# RS2 Model 1
# Vertices: 172
# Faces: 320

v 12 -47 23
v 12 -47 21
v 13 -47 20
v 15 -47 20
v 16 -47 21
v 16 -47 23
v 15 -47 24
v 13 -47 24
v 13 -46 25
v 11 -46 23
v 11 -46 21
v 13 -46 19
v 15 -46 19
v 17 -46 21
v 17 -46 23
v 15 -46 25
v -13 -47 24
v -15 -47 24
v -16 -47 23
v -16 -47 21
v -15 -47 20
v -13 -47 20
v -12 -47 21
v -12 -47 23
v -11 -46 23
v -13 -46 25
v -15 -46 25
v -17 -46 23
v -17 -46 21
v -15 -46 19
v -13 -46 19
v -11 -46 21
v -40 -16 10
v -40 -8 10
v -40 -12 2
v -28 -32 -11
v -32 -36 6
v -40 -24 26
v -40 -8 18
v -44 -8 18
v -44 8 14
v -40 -4 -2
v -12 -12 -34
v -9 -36 -36
v -9 -42 -16
v -13 -41 -14
v -10 -42 -14
v -11 -44 -2
v -16 -44 14
v -22 -44 21
v -27 -41 22
v -32 -48 30
v -28 -44 50
v -40 0 54
v -40 4 22
v -44 4 22
v -40 8 14
v -32 16 -14
v -48 -12 -30
v -48 -28 -18
v -36 -36 -46
v -10 -49 -12
v 0 -51 -11
v 11 -44 -2
v 10 -49 -12
v 36 -36 -46
v 28 -32 -11
v 32 -36 6
v 16 -44 14
v 12 -44 2
v 11 -47 -2
v 4 -44 -2
v 3 -44 -11
v 10 -42 -14
v 13 -41 -14
v 9 -42 -16
v 8 -36 -36
v 12 -12 -34
v 40 -12 2
v 40 -16 10
v 40 -24 26
v 26 -41 22
v 22 -44 21
v 6 -44 22
v 4 -44 22
v 9 -44 5
v 12 -47 2
v 11 -50 -2
v 1 -52 -2
v 3 -56 0
v -1 -52 -2
v -1 -49 -2
v 1 -49 -2
v -4 -44 -2
v -3 -44 -11
v -3 -44 -13
v 3 -44 -13
v 0 -41 -16
v 9 -41 -15
v 0 -43 -17
v -28 -8 -54
v 28 -8 -54
v 28 40 -50
v 20 32 -18
v 32 16 -14
v 40 -4 -2
v 44 8 14
v 40 -8 10
v 40 -8 18
v 40 0 54
v 28 -44 50
v 32 -48 30
v 21 -44 23
v 14 -48 26
v 7 -44 24
v 0 -52 30
v 0 -49 20
v 0 -54 11
v 9 -47 5
v 12 -50 2
v 1 -57 5
v -3 -56 0
v -11 -50 -2
v -11 -47 -2
v -12 -47 2
v 0 -40 58
v 0 -44 50
v 26 -51 38
v 16 -52 32
v 13 -44 30
v 17 -49 22
v 20 8 74
v -20 8 74
v -26 -51 38
v -6 -53 38
v 6 -53 38
v 7 -52 32
v 12 -48 22
v 0 32 58
v -32 40 38
v 32 40 38
v -20 32 -18
v 40 4 22
v 40 8 14
v -28 40 -50
v 44 -8 18
v 44 4 22
v -9 -41 -15
v -16 -52 32
v -13 -44 30
v -7 -52 32
v -7 -44 24
v -4 -44 22
v -9 -47 5
v -1 -57 5
v -21 -44 23
v -14 -48 26
v -16 -49 22
v -12 -49 22
v -6 -44 22
v -9 -44 5
v -12 -44 2
v -12 -50 2
v 8 -45 -14
v 13 -42 -14
v 48 -12 -30
v 48 -28 -18
v -8 -45 -14
v -13 -42 -14
v -12 -49 21
v 13 -49 21
v -12 -51 43

f 1 2 3
f 1 3 4
f 1 4 5
f 1 5 6
f 1 6 7
f 1 7 8
f 1 8 9
f 1 9 10
f 1 10 2
f 2 10 11
f 2 11 3
f 3 11 12
f 3 12 4
f 4 12 13
f 4 13 5
f 5 13 14
f 5 14 6
f 6 14 15
f 6 15 7
f 7 15 16
f 7 16 8
f 8 16 9
f 17 18 19
f 17 19 20
f 17 20 21
f 17 21 22
f 17 22 23
f 17 23 24
f 17 24 25
f 17 25 26
f 17 26 18
f 18 26 27
f 18 27 19
f 19 27 28
f 19 28 20
f 20 28 29
f 20 29 21
f 21 29 30
f 21 30 22
f 22 30 31
f 22 31 23
f 23 31 32
f 23 32 24
f 24 32 25
f 33 34 35
f 33 35 36
f 33 36 37
f 33 37 38
f 33 38 39
f 33 39 34
f 34 39 40
f 34 40 41
f 34 41 35
f 35 41 42
f 35 42 43
f 35 43 36
f 36 43 44
f 36 44 45
f 36 45 46
f 36 46 47
f 36 47 48
f 36 48 37
f 37 48 49
f 37 49 50
f 37 50 51
f 37 51 38
f 38 51 52
f 38 52 53
f 38 53 54
f 38 54 39
f 39 54 55
f 39 55 40
f 40 55 56
f 40 56 41
f 41 56 57
f 41 57 42
f 42 57 58
f 42 58 43
f 42 43 59
f 42 59 35
f 35 59 60
f 35 60 36
f 36 60 61
f 36 61 48
f 48 61 62
f 48 62 63
f 48 63 64
f 64 63 65
f 64 65 66
f 64 66 67
f 64 67 68
f 64 68 69
f 64 69 70
f 64 70 71
f 64 71 72
f 64 72 73
f 64 73 74
f 64 74 67
f 67 74 75
f 67 75 76
f 67 76 77
f 67 77 78
f 67 78 79
f 67 79 80
f 67 80 68
f 68 80 81
f 68 81 82
f 68 82 83
f 68 83 69
f 69 83 13
f 69 13 84
f 69 84 85
f 69 85 86
f 69 86 70
f 70 86 87
f 70 87 71
f 71 87 88
f 71 88 89
f 89 88 90
f 89 90 91
f 89 91 92
f 89 92 93
f 93 92 94
f 93 94 72
f 72 94 95
f 72 95 73
f 73 95 96
f 73 96 97
f 73 97 74
f 74 97 98
f 74 98 99
f 74 99 75
f 75 99 76
f 76 99 98
f 76 98 100
f 76 100 77
f 77 100 44
f 77 44 78
f 78 44 43
f 78 43 101
f 78 101 102
f 78 102 103
f 78 103 104
f 78 104 105
f 78 105 106
f 78 106 79
f 79 106 107
f 79 107 108
f 79 108 80
f 80 108 109
f 80 109 81
f 81 109 110
f 81 110 111
f 81 111 112
f 81 112 82
f 82 112 113
f 82 113 83
f 83 113 114
f 83 114 13
f 13 114 115
f 13 115 84
f 84 115 85
f 85 115 116
f 85 116 117
f 85 117 118
f 85 118 119
f 85 119 86
f 86 119 87
f 87 119 120
f 87 120 88
f 88 120 90
f 90 120 121
f 90 121 122
f 90 122 91
f 91 122 123
f 91 123 124
f 124 123 125
f 124 125 48
f 124 48 94
f 94 48 95
f 95 48 47
f 95 47 96
f 96 47 98
f 96 98 97
f 111 126 127
f 111 127 128
f 111 128 112
f 112 128 129
f 112 129 130
f 112 130 113
f 113 130 114
f 113 114 131
f 113 131 83
f 126 111 132
f 126 132 133
f 126 133 53
f 126 53 127
f 127 53 134
f 127 134 135
f 127 135 136
f 127 136 128
f 128 136 129
f 129 136 137
f 129 137 130
f 130 137 116
f 130 116 115
f 130 115 114
f 114 115 138
f 114 138 131
f 133 132 139
f 133 139 140
f 133 140 54
f 133 54 53
f 139 141 140
f 140 141 142
f 140 142 58
f 140 58 57
f 140 57 55
f 140 55 54
f 139 132 141
f 141 132 110
f 141 110 143
f 141 143 144
f 141 144 105
f 141 105 104
f 141 104 142
f 142 104 145
f 142 145 43
f 142 43 58
f 110 109 143
f 143 109 146
f 143 146 147
f 143 147 144
f 144 147 107
f 144 107 106
f 144 106 105
f 110 132 111
f 44 100 45
f 45 100 98
f 45 98 148
f 45 148 46
f 46 148 47
f 47 148 98
f 149 134 52
f 149 52 150
f 149 150 151
f 149 151 135
f 149 135 134
f 116 135 151
f 116 151 150
f 116 150 152
f 116 152 153
f 116 153 117
f 117 153 118
f 118 153 154
f 118 154 155
f 118 155 121
f 118 121 119
f 119 121 120
f 137 136 116
f 116 136 135
f 53 52 134
f 146 107 147
f 107 146 108
f 108 146 109
f 56 55 57
f 104 103 145
f 43 145 101
f 138 115 84
f 156 50 30
f 156 30 157
f 156 157 150
f 156 150 52
f 156 52 51
f 156 51 50
f 156 50 158
f 156 158 157
f 157 158 159
f 157 159 152
f 157 152 150
f 152 157 160
f 152 160 153
f 153 160 49
f 153 49 161
f 153 161 154
f 154 161 162
f 154 162 125
f 154 125 155
f 155 125 163
f 155 163 122
f 155 122 121
f 157 30 160
f 160 30 49
f 49 30 50
f 160 152 159
f 49 48 162
f 49 162 161
f 48 125 162
f 123 163 125
f 163 123 122
f 66 65 164
f 66 164 165
f 66 165 67
f 66 67 78
f 66 78 166
f 66 166 167
f 66 167 67
f 67 167 79
f 79 167 106
f 106 167 166
f 106 166 78
f 168 62 61
f 168 61 169
f 169 61 36
f 36 61 43
f 43 61 59
f 59 61 60
f 168 63 62
f 63 168 164
f 63 164 65
