# RS2 Model 10036
# Vertices: 153
# Faces: 267

v -10 -56 -10
v -10 -51 -13
v 0 -56 -10
v 0 -59 -3
v -14 -64 -7
v -25 -55 -5
v -28 -43 -8
v -19 -48 -10
v -10 -53 -15
v 0 -58 -13
v 10 -53 -15
v 10 -51 -13
v 10 -56 -10
v 14 -64 -7
v 4 -60 7
v -4 -60 7
v -23 -55 4
v -22 -53 8
v -31 -50 10
v -33 -46 14
v -35 -21 16
v -40 -11 -4
v -16 -33 -31
v 19 -48 -10
v 28 -43 -8
v 25 -55 -5
v 23 -55 4
v 22 -53 8
v 16 -44 16
v 8 -42 16
v 0 -44 23
v -8 -42 16
v -16 -44 16
v -14 48 26
v -14 30 35
v 14 30 35
v 14 48 26
v 30 30 21
v 38 39 0
v 37 25 3
v 37 16 -14
v 33 29 -28
v 14 18 -48
v 27 8 -34
v 0 6 -40
v -13 18 -48
v -27 8 -34
v -37 16 -14
v -32 29 -28
v -38 39 0
v -37 25 3
v -30 30 21
v -30 7 32
v -14 5 44
v 14 5 44
v 30 7 32
v 40 -6 12
v 40 -11 -4
v 27 -7 -25
v 0 -26 -39
v -27 -7 -25
v -40 -6 12
v 17 -33 -31
v 35 -21 16
v 32 -46 14
v 31 -50 10
v 0 -47 -27
v 0 -55 -21
v 5 -42 34
v 4 -42 30
v 7 -43 27
v 18 -43 32
v 18 -43 37
v 14 -39 41
v -5 -42 33
v -4 -42 29
v 15 -44 26
v 29 -40 31
v 29 -39 33
v 33 -22 33
v 14 -21 50
v -14 -39 41
v -18 -43 36
v -7 -43 26
v -15 -44 26
v -10 -42 24
v -22 -42 23
v -21 -42 18
v -18 -43 30
v -29 -40 29
v -13 -47 18
v -28 -39 31
v -33 -22 33
v -27 -35 19
v -14 -21 50
v -27 -16 45
v -38 -6 26
v 22 -42 23
v 27 -35 19
v 38 -6 26
v 27 -16 45
v 42 -6 50
v -42 -6 50
v -40 -8 47
v -31 -13 43
v -37 -7 30
v 21 -42 18
v 10 -42 24
v 13 -47 18
v 37 -7 30
v 31 -13 43
v 40 -8 47
v 32 2 34
v -32 2 34
v -24 -1 -36
v -10 -73 -36
v -45 -14 49
v -14 -44 21
v -16 -44 21
v -17 -43 20
v -17 -44 18
v -16 -45 17
v -14 -44 17
v -13 -44 18
v -13 -44 20
v -12 -44 20
v -14 -44 22
v -16 -44 22
v -19 -43 20
v -19 -43 18
v -14 -44 16
v -12 -44 18
v 13 -44 20
v 13 -44 18
v 14 -44 17
v 16 -45 17
v 17 -44 18
v 17 -43 20
v 16 -44 21
v 14 -44 21
v 14 -44 22
v 12 -44 20
v 12 -44 18
v 14 -44 16
v 19 -43 18
v 19 -43 20
v 16 -44 22
v -38 -40 -38
v -12 -72 34
v -53 23 -10
v -34 -43 -49
v 35 -43 -49
v -34 -47 18

f 1 2 3
f 1 3 4
f 1 4 5
f 1 5 6
f 1 6 7
f 1 7 8
f 1 8 2
f 2 8 9
f 2 9 3
f 3 9 10
f 3 10 11
f 3 11 12
f 3 12 13
f 3 13 4
f 4 13 14
f 4 14 15
f 4 15 16
f 4 16 5
f 5 16 17
f 5 17 6
f 6 17 7
f 7 17 18
f 7 18 19
f 7 19 20
f 7 20 21
f 7 21 22
f 7 22 23
f 7 23 9
f 7 9 8
f 24 13 12
f 24 12 11
f 24 11 25
f 24 25 13
f 13 25 26
f 13 26 14
f 14 26 27
f 14 27 15
f 15 27 28
f 15 28 29
f 15 29 30
f 15 30 31
f 15 31 16
f 16 31 32
f 16 32 33
f 16 33 18
f 16 18 17
f 34 35 36
f 34 36 37
f 37 36 38
f 37 38 39
f 39 38 40
f 39 40 41
f 39 41 42
f 42 41 43
f 43 41 44
f 43 44 45
f 43 45 46
f 46 45 47
f 46 47 48
f 46 48 49
f 49 48 50
f 50 48 51
f 50 51 52
f 50 52 34
f 34 52 35
f 35 52 53
f 35 53 54
f 35 54 55
f 35 55 36
f 36 55 56
f 36 56 38
f 38 56 40
f 40 56 57
f 40 57 58
f 40 58 41
f 41 58 59
f 41 59 44
f 44 59 60
f 44 60 45
f 45 60 47
f 47 60 61
f 47 61 48
f 48 61 22
f 48 22 51
f 51 22 62
f 51 62 53
f 51 53 52
f 60 59 58
f 60 58 63
f 60 63 23
f 60 23 22
f 60 22 61
f 25 11 63
f 25 63 58
f 25 58 64
f 25 64 65
f 25 65 66
f 25 66 28
f 25 28 27
f 25 27 26
f 67 23 63
f 67 63 11
f 67 11 68
f 67 68 9
f 67 9 23
f 10 68 11
f 68 10 9
f 69 70 71
f 69 71 72
f 69 72 73
f 69 73 74
f 69 74 75
f 69 75 70
f 70 75 76
f 70 76 31
f 70 31 71
f 71 31 77
f 71 77 72
f 72 77 78
f 72 78 73
f 73 78 79
f 73 79 74
f 74 79 80
f 74 80 81
f 74 81 82
f 74 82 75
f 75 82 83
f 75 83 76
f 76 83 84
f 76 84 31
f 31 84 85
f 31 85 86
f 31 86 32
f 32 86 85
f 32 85 33
f 33 85 87
f 33 87 88
f 33 88 20
f 33 20 19
f 33 19 18
f 83 89 84
f 84 89 85
f 85 89 90
f 85 90 87
f 85 87 91
f 85 91 86
f 86 91 32
f 92 90 89
f 92 89 83
f 92 83 82
f 92 82 93
f 92 93 90
f 90 93 87
f 87 93 94
f 87 94 88
f 87 88 91
f 95 93 82
f 95 82 81
f 95 81 55
f 95 55 54
f 95 54 96
f 95 96 93
f 93 96 97
f 93 97 62
f 93 62 21
f 93 21 94
f 94 21 20
f 94 20 88
f 77 98 78
f 78 98 80
f 78 80 79
f 80 98 99
f 80 99 64
f 80 64 57
f 80 57 100
f 80 100 101
f 80 101 81
f 81 101 55
f 55 101 56
f 56 101 102
f 56 102 100
f 56 100 57
f 58 57 64
f 21 62 22
f 96 54 53
f 96 53 103
f 96 103 104
f 96 104 105
f 96 105 106
f 96 106 97
f 97 106 104
f 97 104 103
f 97 103 53
f 97 53 62
f 98 107 99
f 99 107 65
f 99 65 64
f 65 107 29
f 65 29 66
f 66 29 28
f 31 30 108
f 31 108 77
f 77 108 29
f 77 29 107
f 77 107 98
f 108 30 29
f 109 98 77
f 109 77 108
f 109 108 30
f 109 107 98
f 110 111 101
f 110 101 100
f 110 100 112
f 110 112 113
f 110 113 111
f 111 113 112
f 111 112 101
f 101 112 102
f 102 112 100
f 104 106 114
f 104 114 105
f 105 114 106
f 115 116 117
f 118 119 120
f 118 120 121
f 118 121 122
f 118 122 123
f 118 123 124
f 118 124 125
f 118 125 126
f 118 126 127
f 118 127 119
f 119 127 128
f 119 128 120
f 120 128 129
f 120 129 121
f 121 129 130
f 121 130 122
f 122 130 33
f 122 33 123
f 123 33 131
f 123 131 124
f 124 131 132
f 124 132 125
f 125 132 126
f 133 134 135
f 133 135 136
f 133 136 137
f 133 137 138
f 133 138 139
f 133 139 140
f 133 140 141
f 133 141 142
f 133 142 134
f 134 142 143
f 134 143 135
f 135 143 144
f 135 144 136
f 136 144 29
f 136 29 137
f 137 29 145
f 137 145 138
f 138 145 146
f 138 146 139
f 139 146 147
f 139 147 140
f 140 147 141
