# RS2 Model 10031
# Vertices: 178
# Faces: 298

v 21 -47 -5
v 24 -48 14
v 20 -51 21
v 27 -44 29
v 13 -51 34
v 14 -51 37
v 5 -50 36
v 8 -50 31
v 11 -44 29
v 19 -38 21
v 24 -37 22
v 30 -24 26
v 25 -38 58
v 23 -49 35
v 0 -46 52
v 3 -50 35
v 0 -48 31
v 7 -38 22
v 13 -40 24
v 20 -38 19
v 22 -37 13
v 32 -16 9
v 36 -8 17
v 36 0 53
v 16 8 71
v 0 -32 69
v -25 -38 58
v -14 -50 37
v -5 -50 36
v -3 -50 35
v -14 -50 35
v -23 -47 31
v -24 -48 14
v -19 -51 16
v -21 -55 -18
v -30 -24 26
v -25 -37 22
v -26 -44 29
v -36 0 53
v -36 -8 17
v -32 -16 9
v -22 -37 13
v -20 -38 19
v -19 -38 21
v -11 -44 29
v -23 -48 35
v -8 -50 31
v -19 -33 -13
v -7 -42 -5
v -14 -43 11
v -14 -40 17
v -13 -40 24
v -7 -38 22
v -30 -11 1
v -22 -23 -23
v -5 -38 -34
v -3 -41 -32
v -5 -38 -22
v -8 -42 -17
v -11 -41 -14
v -9 -42 -14
v -2 -44 -11
v -3 -42 -5
v -5 -51 -5
v -7 -47 -1
v -8 -44 -1
v -5 -44 2
v -4 -41 20
v -6 -38 20
v 0 -45 21
v 4 -41 20
v 6 -38 20
v 14 -40 17
v 14 -43 11
v 7 -42 -5
v 19 -33 -13
v 30 -11 1
v 36 -8 9
v 39 -8 17
v 36 4 21
v 28 40 37
v 0 32 57
v -16 8 71
v -28 40 37
v -36 4 21
v -39 -8 17
v -36 -8 9
v -28 -5 -1
v -23 16 -14
v -17 -11 -29
v -42 8 13
v -36 8 13
v -18 56 -14
v -36 29 -53
v -36 14 -53
v -30 7 -53
v -18 2 -54
v -2 -14 -54
v 17 -11 -29
v 2 -38 -34
v 21 16 -14
v 28 -5 -1
v 22 -23 -23
v 5 -38 -34
v 2 -41 -32
v 36 8 13
v 42 8 13
v 40 4 23
v 16 56 -14
v 2 -14 -54
v 19 2 -54
v 28 7 -53
v 34 14 -53
v 34 29 -53
v 30 57 -48
v 0 62 -40
v -32 57 -48
v -40 4 23
v -8 -41 -15
v 0 -41 -16
v -2 -44 -13
v 2 -44 -11
v 3 -42 -5
v 0 -55 -5
v -2 -59 0
v -3 -51 0
v 0 -54 3
v 0 -43 -19
v 8 -42 -17
v 8 -41 -15
v 9 -42 -14
v 2 -44 -13
v 6 -51 -5
v 2 -59 0
v 11 -41 -14
v -11 -42 20
v 11 -42 20
v -1 -40 -22
v 1 -40 -22
v 5 -38 -22
v -12 -40 22
v -14 -40 22
v -15 -40 21
v -15 -40 19
v -14 -40 18
v -12 -40 18
v -11 -40 19
v -11 -40 21
v -12 -40 23
v -14 -40 23
v -16 -40 21
v -16 -40 19
v -12 -40 17
v -10 -40 19
v -10 -40 21
v 10 -40 21
v 10 -40 19
v 12 -40 17
v 16 -40 19
v 16 -40 21
v 14 -40 23
v 12 -40 23
v 11 -40 21
v 11 -40 19
v 12 -40 18
v 14 -40 18
v 15 -40 19
v 15 -40 21
v 14 -40 22
v 12 -40 22
v 5 -44 2
v 8 -44 -1
v 7 -47 -1
v 4 -51 0
v 0 -49 11
v 31 -44 34
v -29 -44 37
v 29 -51 -2

f 1 2 3
f 3 2 4
f 3 4 5
f 5 4 6
f 5 6 7
f 5 7 8
f 5 8 9
f 5 9 4
f 4 9 10
f 4 10 11
f 4 11 12
f 4 12 13
f 4 13 14
f 4 14 6
f 6 14 13
f 6 13 15
f 6 15 7
f 7 15 16
f 7 16 8
f 8 16 17
f 8 17 9
f 9 17 18
f 9 18 19
f 9 19 10
f 10 19 20
f 10 20 11
f 11 20 21
f 11 21 12
f 12 21 22
f 12 22 23
f 12 23 24
f 12 24 13
f 13 24 25
f 13 25 26
f 13 26 15
f 15 26 27
f 15 27 28
f 15 28 29
f 15 29 30
f 15 30 17
f 15 17 16
f 31 32 33
f 31 33 34
f 34 33 35
f 36 37 38
f 36 38 27
f 36 27 39
f 36 39 40
f 36 40 41
f 36 41 42
f 36 42 37
f 37 42 43
f 37 43 44
f 37 44 38
f 38 44 45
f 38 45 31
f 38 31 32
f 38 32 46
f 38 46 27
f 27 46 28
f 28 46 31
f 28 31 47
f 28 47 30
f 28 30 29
f 41 48 42
f 42 48 49
f 42 49 50
f 42 50 43
f 43 50 51
f 43 51 44
f 44 51 52
f 44 52 45
f 45 52 53
f 45 53 17
f 45 17 47
f 45 47 31
f 41 54 48
f 48 54 55
f 48 55 56
f 48 56 57
f 48 57 58
f 48 58 59
f 48 59 60
f 48 60 61
f 48 61 49
f 49 61 62
f 49 62 63
f 49 63 64
f 49 64 65
f 49 65 66
f 49 66 50
f 50 66 67
f 50 67 68
f 50 68 69
f 50 69 51
f 51 69 52
f 52 69 53
f 53 69 68
f 53 68 17
f 17 68 70
f 17 70 71
f 17 71 18
f 18 71 72
f 18 72 73
f 18 73 19
f 19 73 20
f 20 73 74
f 20 74 21
f 21 74 75
f 21 75 76
f 21 76 22
f 22 76 77
f 22 77 23
f 23 77 78
f 23 78 79
f 23 79 80
f 23 80 24
f 24 80 81
f 24 81 25
f 25 81 82
f 25 82 83
f 25 83 26
f 26 83 27
f 27 83 39
f 39 83 84
f 39 84 85
f 39 85 40
f 40 85 86
f 40 86 87
f 40 87 54
f 40 54 41
f 88 89 90
f 88 90 54
f 88 54 91
f 88 91 92
f 88 92 89
f 89 92 84
f 89 84 93
f 89 93 94
f 89 94 95
f 89 95 96
f 89 96 97
f 89 97 90
f 90 97 98
f 90 98 99
f 90 99 100
f 90 100 56
f 90 56 55
f 90 55 54
f 99 101 102
f 99 102 77
f 99 77 103
f 99 103 104
f 99 104 100
f 100 104 105
f 100 105 57
f 100 57 56
f 102 101 106
f 102 106 107
f 102 107 77
f 77 107 78
f 78 107 79
f 79 107 108
f 79 108 80
f 80 108 106
f 80 106 81
f 81 106 101
f 81 101 109
f 81 109 93
f 81 93 84
f 81 84 82
f 82 84 83
f 98 110 99
f 99 110 111
f 99 111 101
f 101 111 112
f 101 112 113
f 101 113 114
f 101 114 109
f 109 114 115
f 109 115 116
f 109 116 93
f 93 116 117
f 93 117 94
f 93 90 89
f 84 92 85
f 85 92 118
f 85 118 86
f 86 118 91
f 86 91 87
f 87 91 54
f 17 30 47
f 61 119 120
f 61 120 121
f 61 121 62
f 62 121 122
f 62 122 123
f 62 123 63
f 63 123 124
f 63 124 64
f 64 124 125
f 64 125 126
f 64 126 65
f 65 126 127
f 65 127 67
f 65 67 66
f 119 61 60
f 119 60 59
f 119 59 120
f 120 59 128
f 120 128 129
f 120 129 130
f 120 130 131
f 120 131 132
f 120 132 121
f 121 132 122
f 122 132 131
f 122 131 75
f 122 75 123
f 123 75 133
f 123 133 124
f 124 133 134
f 124 134 125
f 125 134 127
f 125 127 126
f 135 131 130
f 135 130 129
f 135 129 76
f 135 76 131
f 131 76 75
f 107 106 108
f 118 92 91
f 46 32 31
f 52 44 136
f 52 136 53
f 53 136 69
f 44 43 136
f 137 10 19
f 137 19 18
f 137 18 72
f 137 20 10
f 57 138 58
f 58 138 59
f 59 138 128
f 128 138 139
f 128 139 129
f 129 139 140
f 129 140 76
f 76 140 105
f 76 105 104
f 76 104 103
f 76 103 77
f 57 105 138
f 138 105 139
f 139 105 140
f 141 142 143
f 141 143 144
f 141 144 145
f 141 145 146
f 141 146 147
f 141 147 148
f 149 150 151
f 149 151 152
f 149 152 51
f 149 51 153
f 149 153 154
f 149 154 155
f 156 157 158
f 156 158 73
f 156 73 159
f 156 159 160
f 156 160 161
f 156 161 162
f 163 164 165
f 163 165 166
f 163 166 167
f 163 167 168
f 163 168 169
f 163 169 170
f 73 72 74
f 74 72 71
f 74 71 171
f 74 171 172
f 74 172 75
f 75 172 133
f 133 172 173
f 133 173 174
f 133 174 134
f 134 174 127
f 127 174 171
f 127 171 175
f 127 175 67
f 67 175 68
f 68 175 70
f 70 175 71
f 71 175 171
f 171 173 172
f 173 171 174
