# RS2 Model 10049
# Vertices: 91
# Faces: 145

v -64 24 32
v -64 44 62
v -47 44 61
v -47 24 32
v -64 44 17
v -64 -2 19
v -64 36 69
v -47 36 69
v -47 44 17
v -64 44 0
v -64 44 11
v -47 -2 19
v -47 -64 16
v -47 44 11
v -47 -64 11
v -47 -64 0
v -47 44 0
v -47 -64 240
v -47 5 239
v -64 5 239
v -64 -64 240
v -64 28 210
v -64 -2 165
v -64 -14 138
v -64 -64 16
v -64 -13 106
v -64 19 70
v -64 -64 11
v -64 -64 0
v -47 27 210
v -64 21 184
v -47 21 184
v -47 -2 165
v -64 -4 154
v -47 -4 154
v -47 -14 138
v -64 0 138
v -64 -1 108
v -47 -13 106
v -47 -1 108
v -47 0 138
v -47 19 70
v -47 28 210
v -47 44 62
v -42 47 28
v -42 47 59
v -42 64 58
v -42 64 28
v -46 47 17
v 2 47 19
v -22 47 66
v -22 64 66
v -46 47 0
v -46 47 11
v -46 64 0
v 64 64 240
v -40 64 240
v -40 47 240
v 64 47 240
v -40 47 227
v 7 47 206
v 5 47 186
v -4 47 154
v -3 47 137
v 64 47 22
v 3 47 104
v 3 47 69
v 64 47 16
v 64 47 0
v -40 64 227
v 7 64 206
v 5 64 186
v -37 47 190
v -33 47 173
v -33 64 173
v -4 64 154
v -3 64 137
v -25 47 137
v -16 47 107
v -37 64 190
v 3 64 104
v -16 64 107
v -25 64 137
v 3 64 69
v 64 64 22
v 2 64 19
v -42 64 59
v 64 64 16
v 64 64 0
v -46 64 11
v -46 64 17

f 1 2 3
f 1 3 4
f 1 4 5
f 1 5 6
f 1 6 7
f 1 7 2
f 2 7 8
f 2 8 3
f 9 10 11
f 9 11 4
f 9 4 12
f 9 12 13
f 9 13 14
f 14 13 15
f 14 15 16
f 14 16 17
f 18 19 20
f 18 20 21
f 21 20 22
f 21 22 23
f 21 23 24
f 21 24 25
f 25 24 26
f 25 26 27
f 25 27 6
f 25 6 5
f 25 5 11
f 25 11 28
f 28 11 29
f 29 11 10
f 19 30 22
f 19 22 20
f 22 30 31
f 22 31 23
f 23 31 32
f 23 32 33
f 23 33 34
f 23 34 24
f 24 34 35
f 24 35 36
f 24 36 37
f 24 37 38
f 24 38 26
f 33 35 34
f 35 33 36
f 36 33 18
f 36 18 39
f 36 39 40
f 36 40 41
f 36 41 37
f 37 41 38
f 38 41 40
f 39 42 27
f 39 27 26
f 42 8 7
f 42 7 27
f 27 7 6
f 30 32 31
f 11 5 4
f 43 19 18
f 43 18 33
f 43 33 32
f 18 13 39
f 39 13 42
f 42 13 12
f 42 12 8
f 8 12 4
f 8 4 44
f 45 46 47
f 45 47 48
f 45 48 49
f 45 49 50
f 45 50 51
f 45 51 46
f 46 51 52
f 46 52 47
f 53 54 48
f 53 48 55
f 56 57 58
f 56 58 59
f 59 58 60
f 59 60 61
f 59 61 62
f 59 62 63
f 59 63 64
f 59 64 65
f 65 64 66
f 65 66 67
f 65 67 50
f 65 50 49
f 65 49 54
f 65 54 68
f 68 54 69
f 69 54 53
f 57 70 60
f 57 60 58
f 60 70 61
f 61 70 71
f 61 71 62
f 62 71 72
f 62 72 73
f 62 73 74
f 62 74 63
f 63 74 75
f 63 75 76
f 63 76 64
f 64 76 77
f 64 77 78
f 64 78 79
f 64 79 66
f 74 80 75
f 75 80 72
f 75 72 76
f 76 72 56
f 76 56 77
f 77 56 81
f 77 81 82
f 77 82 83
f 77 83 78
f 78 83 79
f 79 83 82
f 81 84 67
f 81 67 66
f 84 52 51
f 84 51 67
f 67 51 50
f 54 49 48
f 56 70 57
f 70 56 71
f 71 56 72
f 81 56 85
f 81 85 84
f 84 85 86
f 84 86 52
f 52 86 48
f 52 48 87
f 88 89 90
f 88 90 85
f 85 90 91
f 85 91 86
f 86 91 48
f 89 55 90
f 72 80 73
f 73 80 74
f 10 9 17
