# RS2 Model 10068
# Vertices: 68
# Faces: 100

v -64 51 0
v -61 55 0
v -61 53 15
v -64 49 14
v -61 52 18
v -64 49 18
v -64 45 43
v -61 49 43
v -61 47 48
v -64 44 48
v -64 45 84
v -64 41 84
v -64 46 97
v -64 42 98
v -61 50 84
v -64 54 84
v -64 54 94
v -64 51 95
v -53 48 84
v -56 52 84
v -61 53 48
v -64 57 49
v -61 54 44
v -64 57 44
v -64 61 19
v -62 56 19
v -62 57 15
v -64 61 16
v -62 61 0
v -64 64 0
v -59 61 15
v -61 64 16
v -58 61 19
v -61 64 19
v -57 64 44
v -54 61 44
v -53 61 48
v -57 64 49
v -50 61 84
v -54 64 84
v -51 64 95
v -46 64 97
v -45 61 84
v -42 64 98
v -41 64 84
v -48 61 48
v -44 64 48
v -49 61 43
v -45 64 43
v -49 64 18
v -53 61 18
v -54 61 15
v -49 64 14
v -56 61 0
v -51 64 0
v -54 54 42
v -57 57 44
v -59 58 20
v -54 49 48
v -49 55 48
v -47 54 84
v -51 56 84
v -58 54 48
v -54 57 48
v -56 56 18
v -66 68 104
v -66 29 107
v -58 66 70

f 1 2 3
f 1 3 4
f 4 3 5
f 4 5 6
f 6 5 7
f 7 5 8
f 7 8 9
f 7 9 10
f 10 9 11
f 10 11 12
f 12 11 13
f 12 13 14
f 15 16 17
f 15 17 18
f 15 18 11
f 15 11 19
f 15 19 20
f 15 20 21
f 15 21 16
f 16 21 22
f 22 21 23
f 22 23 24
f 24 23 25
f 25 23 26
f 25 26 27
f 25 27 28
f 28 27 29
f 28 29 30
f 30 29 31
f 30 31 32
f 32 31 33
f 32 33 34
f 34 33 35
f 35 33 36
f 35 36 37
f 35 37 38
f 38 37 39
f 38 39 40
f 40 39 41
f 41 39 42
f 42 39 43
f 42 43 44
f 44 43 45
f 45 43 46
f 45 46 47
f 47 46 48
f 47 48 49
f 49 48 50
f 50 48 51
f 50 51 52
f 50 52 53
f 53 52 54
f 53 54 55
f 18 13 11
f 23 21 9
f 23 9 8
f 23 8 56
f 23 56 57
f 23 57 26
f 26 57 58
f 58 57 36
f 58 36 33
f 3 27 26
f 3 26 5
f 11 9 59
f 11 59 19
f 19 59 60
f 19 60 61
f 19 61 20
f 20 61 62
f 20 62 63
f 20 63 21
f 21 63 9
f 9 63 59
f 59 63 64
f 59 64 60
f 60 64 37
f 60 37 46
f 60 46 61
f 61 46 43
f 61 43 62
f 62 43 39
f 62 39 64
f 62 64 63
f 36 48 46
f 36 46 37
f 52 51 33
f 52 33 31
f 52 31 27
f 52 27 3
f 52 3 54
f 54 3 2
f 39 37 64
f 8 5 65
f 8 65 56
f 56 65 51
f 56 51 48
f 56 48 57
f 57 48 36
f 31 29 27
