# RS2 Model 10074
# Vertices: 72
# Faces: 121

v -29 -7 82
v -29 -6 78
v -26 -7 86
v -29 -7 87
v -34 -7 82
v -38 -6 80
v -29 3 78
v -26 1 84
v -29 -1 91
v -32 -4 92
v -34 -7 87
v -37 -4 86
v -37 3 80
v -34 5 82
v -29 5 82
v -29 5 87
v -32 4 91
v -26 4 93
v -26 -4 93
v -32 -7 93
v -36 0 91
v -34 5 87
v -39 0 96
v -32 -4 100
v -36 1 98
v -32 5 99
v -32 7 96
v -32 6 93
v -39 0 93
v -32 -7 96
v -26 -4 96
v -28 0 99
v -26 4 95
v 29 -6 78
v 29 -7 82
v 26 -7 86
v 26 1 84
v 29 3 78
v 38 -6 80
v 34 -7 82
v 29 -7 87
v 32 -4 92
v 29 -1 91
v 29 5 87
v 29 5 82
v 34 5 82
v 37 3 80
v 37 -4 86
v 34 -7 87
v 36 0 91
v 32 -7 93
v 26 -4 93
v 26 4 93
v 32 4 91
v 34 5 87
v 39 0 93
v 32 -7 96
v 26 -4 96
v 26 4 95
v 32 7 96
v 32 6 93
v 39 0 96
v 32 -4 100
v 28 0 99
v 32 5 99
v 36 1 98
v -32 -22 92
v -52 0 92
v -6 2 92
v 51 1 92
v 21 -18 92
v 30 18 92

f 1 2 3
f 1 3 4
f 1 4 5
f 1 5 2
f 2 5 6
f 2 6 7
f 2 7 8
f 2 8 3
f 3 8 9
f 3 9 10
f 3 10 4
f 4 10 11
f 4 11 5
f 5 11 6
f 6 11 12
f 6 12 13
f 6 13 7
f 7 13 14
f 7 14 15
f 7 15 8
f 8 15 16
f 8 16 9
f 9 16 17
f 9 17 18
f 9 18 19
f 9 19 10
f 10 19 20
f 10 20 21
f 10 21 12
f 10 12 11
f 22 14 13
f 22 13 21
f 22 21 17
f 22 17 16
f 22 16 15
f 22 15 14
f 13 12 21
f 23 24 25
f 23 25 26
f 23 26 27
f 23 27 28
f 23 28 29
f 23 29 30
f 23 30 24
f 24 30 31
f 24 31 32
f 32 31 33
f 32 33 26
f 26 33 27
f 27 33 18
f 27 18 28
f 28 18 17
f 28 17 29
f 29 17 21
f 29 21 20
f 29 20 30
f 30 20 31
f 31 20 19
f 31 19 18
f 31 18 33
f 34 35 36
f 34 36 37
f 34 37 38
f 34 38 39
f 34 39 40
f 34 40 35
f 35 40 41
f 35 41 36
f 36 41 42
f 36 42 43
f 36 43 37
f 37 43 44
f 37 44 45
f 37 45 38
f 38 45 46
f 38 46 47
f 38 47 39
f 39 47 48
f 39 48 49
f 39 49 40
f 40 49 41
f 41 49 42
f 42 49 48
f 42 48 50
f 42 50 51
f 42 51 52
f 42 52 43
f 43 52 53
f 43 53 54
f 43 54 44
f 44 54 55
f 44 55 45
f 45 55 46
f 46 55 47
f 47 55 50
f 47 50 48
f 55 54 50
f 50 54 56
f 50 56 51
f 51 56 57
f 51 57 58
f 51 58 52
f 52 58 53
f 53 58 59
f 53 59 60
f 53 60 61
f 53 61 54
f 54 61 56
f 56 61 62
f 56 62 57
f 57 62 63
f 57 63 58
f 58 63 64
f 58 64 59
f 59 64 65
f 59 65 60
f 60 65 62
f 60 62 61
f 63 62 66
f 66 62 65
f 67 68 69
