# RS2 Model 10190
# Vertices: 27
# Faces: 42

v 32 -35 93
v 32 39 93
v -31 39 93
v -31 -35 93
v 23 -36 89
v 30 -39 63
v 41 -40 58
v 41 43 58
v -37 43 58
v -37 -40 58
v -22 -36 89
v 19 -29 86
v 25 -31 65
v -26 -39 63
v 46 -48 58
v 46 48 58
v -47 48 58
v -47 -48 58
v -52 -54 0
v 52 -54 0
v 52 54 0
v -52 54 0
v -21 -31 65
v -18 -29 86
v -33 -33 69
v 35 -33 69
v -33 36 69

f 1 2 3
f 1 3 4
f 1 4 5
f 1 5 6
f 1 6 7
f 1 7 2
f 2 7 8
f 2 8 9
f 2 9 3
f 3 9 4
f 4 9 10
f 4 10 11
f 4 11 5
f 5 11 12
f 5 12 6
f 6 12 13
f 6 13 14
f 6 14 7
f 7 14 10
f 7 10 15
f 7 15 16
f 7 16 8
f 8 16 17
f 8 17 9
f 9 17 18
f 9 18 10
f 10 18 15
f 15 18 19
f 15 19 20
f 15 20 16
f 16 20 21
f 16 21 22
f 16 22 17
f 17 22 18
f 18 22 19
f 10 14 11
f 11 14 23
f 11 23 24
f 11 24 12
f 12 24 23
f 12 23 13
f 13 23 14
