# RS2 Model 10261
# Vertices: 38
# Faces: 29

v -39 27 8
v -29 31 0
v -45 37 0
v -43 15 0
v -29 -27 12
v -39 1 0
v -43 -31 0
v -19 -47 2
v -11 -19 0
v 10 -55 6
v 1 -50 0
v 12 -63 0
v 13 -53 0
v 41 -47 8
v 51 -43 0
v 35 -37 0
v 37 -59 0
v 5 35 8
v 17 39 0
v -5 43 0
v 5 21 0
v 53 35 6
v 61 39 0
v 45 45 0
v 49 27 0
v 29 15 8
v 27 29 0
v 15 11 0
v 31 3 0
v 43 17 0
v 9 -17 8
v 27 -13 0
v -1 -11 0
v 5 -35 0
v -45 -53 6
v -35 -57 0
v -47 -45 0
v -47 -55 0

f 1 2 3
f 1 3 4
f 1 4 2
f 5 6 7
f 5 7 8
f 5 8 9
f 5 9 6
f 10 11 12
f 10 12 13
f 10 13 11
f 14 15 16
f 14 16 17
f 14 17 15
f 18 19 20
f 18 20 21
f 18 21 19
f 22 23 24
f 22 24 25
f 22 25 23
f 26 27 28
f 26 28 29
f 26 29 30
f 26 30 27
f 31 32 33
f 31 33 34
f 31 34 32
f 35 36 37
f 35 37 38
f 35 38 36
