# RS2 Model 10374
# Vertices: 70
# Faces: 124

v 29 -5 120
v 27 -6 129
v 22 1 125
v 25 1 119
v 25 0 110
v 32 -5 111
v 36 0 112
v 34 1 120
v 35 1 129
v 32 1 138
v 26 -6 137
v 20 1 136
v 26 9 130
v 27 7 125
v 28 8 119
v 32 7 112
v 32 9 111
v 23 0 109
v 33 -7 110
v 38 0 112
v 26 9 137
v 25 11 144
v 33 1 147
v 25 -8 146
v 18 2 142
v 28 0 99
v 32 -4 100
v 32 5 99
v 36 1 98
v 22 -8 153
v 28 2 158
v 19 2 160
v 17 -9 153
v 22 10 154
v 19 10 155
v -29 -5 120
v -22 1 125
v -27 -6 129
v -35 1 129
v -34 1 120
v -36 0 112
v -32 -5 111
v -25 0 110
v -25 1 119
v -27 7 125
v -26 9 130
v -20 1 136
v -26 -6 137
v -32 1 138
v -26 9 137
v -28 8 119
v -32 7 112
v -38 0 112
v -33 -7 110
v -23 0 109
v -32 9 111
v -28 0 99
v -32 -4 100
v -36 1 98
v -32 5 99
v -22 -8 153
v -25 -8 146
v -18 2 142
v -17 -9 153
v -19 2 160
v -28 2 158
v -33 1 147
v -25 11 144
v -22 10 154
v -19 10 155

f 1 2 3
f 1 3 4
f 1 4 5
f 1 5 6
f 1 6 7
f 1 7 8
f 1 8 9
f 1 9 2
f 2 9 10
f 2 10 11
f 2 11 12
f 2 12 3
f 3 12 13
f 3 13 14
f 3 14 4
f 4 14 15
f 4 15 5
f 5 15 16
f 5 16 17
f 5 17 18
f 5 18 6
f 6 18 19
f 6 19 7
f 7 19 20
f 7 20 16
f 7 16 8
f 8 16 15
f 8 15 14
f 8 14 9
f 9 14 13
f 9 13 21
f 9 21 10
f 10 21 22
f 10 22 23
f 10 23 24
f 10 24 11
f 11 24 25
f 11 25 12
f 12 25 21
f 12 21 13
f 26 27 18
f 26 18 28
f 28 18 17
f 28 17 29
f 29 17 20
f 29 20 27
f 27 20 19
f 27 19 18
f 30 25 24
f 30 24 23
f 30 23 31
f 30 31 32
f 30 32 33
f 30 33 25
f 22 34 31
f 22 31 23
f 21 25 22
f 22 25 34
f 34 25 35
f 34 35 32
f 34 32 31
f 16 20 17
f 36 37 38
f 36 38 39
f 36 39 40
f 36 40 41
f 36 41 42
f 36 42 43
f 36 43 44
f 36 44 37
f 37 44 45
f 37 45 46
f 37 46 47
f 37 47 38
f 38 47 48
f 38 48 49
f 38 49 39
f 39 49 50
f 39 50 46
f 39 46 45
f 39 45 40
f 40 45 51
f 40 51 52
f 40 52 41
f 41 52 53
f 41 53 54
f 41 54 42
f 42 54 55
f 42 55 43
f 43 55 56
f 43 56 52
f 43 52 51
f 43 51 44
f 44 51 45
f 57 55 58
f 58 55 54
f 58 54 53
f 58 53 59
f 59 53 56
f 59 56 60
f 60 56 55
f 60 55 57
f 61 62 63
f 61 63 64
f 61 64 65
f 61 65 66
f 61 66 67
f 61 67 62
f 62 67 49
f 62 49 48
f 62 48 63
f 63 48 47
f 63 47 50
f 63 50 68
f 63 68 69
f 63 69 70
f 70 69 65
f 65 69 66
f 66 69 68
f 66 68 67
f 67 68 49
f 49 68 50
f 46 50 47
f 52 56 53
