# RS2 Model 10400
# Vertices: 187
# Faces: 326

v 34 9 29
v 30 1 20
v 32 1 20
v 36 9 29
v 45 20 33
v 44 20 34
v 34 28 12
v 30 16 1
v 32 16 1
v 36 28 12
v 32 -1 11
v 29 -5 5
v 29 -12 2
v 29 -4 -2
v 41 30 25
v 47 35 30
v 47 35 31
v 47 34 32
v 39 30 26
v 46 34 31
v 30 -1 11
v 29 -16 10
v 21 -29 -12
v 11 -12 -34
v 25 16 -14
v 30 7 3
v 25 40 35
v 28 0 47
v -10 -41 -14
v -9 -38 -15
v 0 -38 -16
v -3 -43 -13
v -3 -43 -11
v -7 -41 -2
v -21 -29 -11
v -13 -40 -14
v -9 -39 -16
v 0 -40 -17
v 9 -39 -16
v 9 -38 -15
v 10 -41 -14
v 3 -43 -13
v 3 -43 -11
v 4 -41 -2
v -4 -41 -2
v -6 -44 -2
v -5 -44 2
v -6 -41 2
v -16 -42 14
v -23 -33 7
v -29 -16 10
v -29 -12 2
v -12 -12 -34
v 13 -38 -14
v 7 -41 -2
v 25 -41 32
v 26 -38 22
v 30 -21 26
v 23 -37 49
v 22 -44 35
v 22 -44 33
v 16 -46 32
v 12 -41 30
v 18 -41 23
v 18 -41 21
v 23 -33 6
v 18 8 62
v 0 -29 58
v 0 -45 45
v 16 -46 35
v 5 -46 36
v 7 -46 32
v 0 -45 31
v 7 -41 24
v 12 -43 28
v 13 -43 19
v 16 -42 14
v -30 -21 26
v -27 -38 22
v -29 -41 32
v -23 -37 49
v -28 0 47
v -30 -1 11
v -18 -41 21
v -18 -41 23
v -12 -41 30
v -16 -46 32
v -25 -44 33
v -25 -44 35
v -16 -46 35
v -18 8 62
v -25 40 35
v -30 1 20
v -32 -1 11
v -29 -5 5
v -32 16 1
v -29 -4 -2
v -25 16 -14
v -20 28 -19
v -21 28 -52
v -17 4 -53
v -2 -9 -53
v 4 -48 -33
v -4 -48 -33
v 20 28 -19
v 0 32 51
v -30 7 3
v 4 -46 34
v -4 -46 34
v -7 -46 32
v -7 -41 24
v -2 -41 22
v 0 -47 20
v 2 -41 22
v 6 -41 22
v -5 -46 36
v -13 -43 19
v -12 -43 28
v -6 -41 22
v -4 -41 8
v -3 -44 8
v 0 -51 8
v 3 -44 8
v 4 -41 8
v 21 28 -52
v 17 4 -53
v 2 -9 -53
v 4 35 -51
v -4 35 -51
v -12 -45 25
v 12 -45 25
v 1 -47 -2
v -1 -47 -2
v 1 -57 -12
v -1 -57 -12
v -5 -47 -2
v -1 -61 -10
v 6 -44 -2
v 6 -41 2
v 6 -44 2
v 5 -47 -2
v 5 -47 2
v 1 -61 -10
v -11 -43 24
v -13 -43 24
v -15 -43 23
v -15 -43 21
v -13 -43 20
v -11 -43 20
v -10 -43 21
v -10 -43 23
v -11 -43 25
v -13 -43 25
v -16 -43 23
v -16 -43 21
v -11 -43 19
v -9 -43 21
v -9 -43 23
v 9 -43 23
v 9 -43 21
v 11 -43 19
v 16 -43 21
v 16 -43 23
v 13 -43 25
v 11 -43 25
v 10 -43 23
v 10 -43 21
v 11 -43 20
v 13 -43 20
v 15 -43 21
v 15 -43 23
v 13 -43 24
v 11 -43 24
v -32 1 20
v -34 9 29
v -36 9 29
v -34 28 12
v -30 16 1
v -36 28 12
v -41 29 26
v -39 29 26
v -42 20 36
v -44 20 35
v -48 34 34
v -46 34 32
v -45 35 34
v -46 35 35

f 1 2 3
f 1 3 4
f 1 4 5
f 1 5 6
f 1 6 7
f 1 7 8
f 1 8 2
f 9 8 7
f 9 7 10
f 9 10 3
f 9 3 11
f 9 11 12
f 9 12 13
f 9 13 14
f 9 14 8
f 3 10 4
f 4 10 15
f 4 15 5
f 5 15 16
f 5 16 17
f 5 17 6
f 6 17 18
f 6 18 19
f 6 19 7
f 7 19 10
f 10 19 15
f 15 19 20
f 15 20 16
f 16 20 18
f 16 18 17
f 19 18 20
f 12 11 21
f 12 21 22
f 12 22 13
f 13 22 23
f 13 23 24
f 13 24 14
f 14 24 25
f 14 25 26
f 26 25 27
f 26 27 2
f 2 27 28
f 2 28 21
f 2 21 3
f 3 21 11
f 29 30 31
f 29 31 32
f 29 32 33
f 29 33 34
f 29 34 35
f 29 35 36
f 29 36 30
f 30 36 37
f 30 37 31
f 31 37 38
f 31 38 39
f 31 39 40
f 31 40 41
f 31 41 42
f 31 42 32
f 32 42 43
f 32 43 33
f 33 43 44
f 33 44 45
f 33 45 34
f 34 45 46
f 34 46 47
f 34 47 48
f 34 48 49
f 34 49 50
f 34 50 35
f 35 50 51
f 35 51 52
f 35 52 53
f 35 53 37
f 35 37 36
f 54 41 40
f 54 40 39
f 54 39 23
f 54 23 41
f 41 23 55
f 41 55 43
f 41 43 42
f 56 57 58
f 56 58 59
f 56 59 60
f 56 60 61
f 56 61 62
f 56 62 63
f 56 63 64
f 56 64 57
f 57 64 65
f 57 65 66
f 57 66 58
f 58 66 22
f 58 22 21
f 58 21 28
f 58 28 59
f 59 28 67
f 59 67 68
f 59 68 69
f 59 69 70
f 59 70 60
f 60 70 61
f 61 70 62
f 62 70 71
f 62 71 72
f 62 72 63
f 63 72 73
f 63 73 74
f 63 74 75
f 63 75 64
f 64 75 65
f 65 75 76
f 65 76 77
f 65 77 66
f 66 77 55
f 66 55 23
f 66 23 22
f 78 79 80
f 78 80 81
f 78 81 82
f 78 82 83
f 78 83 51
f 78 51 50
f 78 50 79
f 79 50 84
f 79 84 85
f 79 85 80
f 80 85 86
f 80 86 87
f 80 87 88
f 80 88 89
f 80 89 81
f 81 89 90
f 81 90 69
f 81 69 68
f 81 68 91
f 81 91 82
f 82 91 92
f 82 92 93
f 82 93 83
f 83 93 94
f 83 94 95
f 83 95 51
f 51 95 52
f 52 95 96
f 52 96 97
f 52 97 53
f 53 97 98
f 53 98 99
f 53 99 100
f 53 100 101
f 53 101 102
f 53 102 24
f 53 24 103
f 53 103 104
f 53 104 37
f 37 104 38
f 38 104 103
f 38 103 39
f 39 103 23
f 23 103 24
f 25 24 105
f 25 105 27
f 27 105 99
f 27 99 92
f 27 92 106
f 27 106 67
f 27 67 28
f 107 98 97
f 98 107 92
f 98 92 99
f 68 67 91
f 91 67 106
f 91 106 92
f 92 107 93
f 71 108 72
f 72 108 73
f 73 108 69
f 73 69 109
f 73 109 110
f 73 110 86
f 73 86 111
f 73 111 112
f 73 112 113
f 73 113 114
f 73 114 74
f 74 114 115
f 74 115 76
f 74 76 75
f 90 87 110
f 90 110 109
f 90 109 116
f 90 116 69
f 69 116 109
f 89 88 87
f 89 87 90
f 108 71 69
f 69 71 70
f 85 84 117
f 85 117 118
f 85 118 86
f 86 118 111
f 111 118 119
f 111 119 112
f 112 119 49
f 112 49 120
f 112 120 121
f 112 121 122
f 112 122 113
f 113 122 114
f 114 122 123
f 114 123 124
f 114 124 77
f 114 77 115
f 115 77 76
f 118 117 119
f 119 117 49
f 49 117 84
f 49 84 50
f 125 105 24
f 125 24 126
f 126 24 127
f 127 24 102
f 105 128 129
f 105 129 99
f 99 129 100
f 125 128 105
f 118 85 130
f 118 130 111
f 111 130 119
f 85 84 130
f 131 64 75
f 131 75 74
f 131 74 115
f 131 65 64
f 45 44 132
f 45 132 133
f 133 132 134
f 133 134 135
f 133 135 136
f 133 136 46
f 46 136 47
f 47 136 135
f 47 135 137
f 47 137 121
f 47 121 48
f 48 121 120
f 48 120 49
f 44 55 138
f 138 55 139
f 138 139 140
f 138 140 141
f 138 141 132
f 132 141 134
f 134 141 142
f 134 142 143
f 134 143 135
f 135 143 137
f 137 143 122
f 137 122 121
f 139 55 77
f 139 77 124
f 139 124 140
f 140 124 123
f 140 123 142
f 140 142 141
f 123 143 142
f 143 123 122
f 110 87 86
f 55 44 43
f 144 145 146
f 144 146 147
f 144 147 148
f 144 148 149
f 144 149 150
f 144 150 151
f 152 153 154
f 152 154 155
f 152 155 117
f 152 117 156
f 152 156 157
f 152 157 158
f 159 160 161
f 159 161 76
f 159 76 162
f 159 162 163
f 159 163 164
f 159 164 165
f 166 167 168
f 166 168 169
f 166 169 170
f 166 170 171
f 166 171 172
f 166 172 173
f 174 93 175
f 174 175 176
f 174 176 96
f 174 96 94
f 174 94 93
f 177 175 93
f 177 93 178
f 177 178 179
f 177 179 180
f 177 180 181
f 177 181 175
f 175 181 182
f 175 182 176
f 176 182 183
f 176 183 179
f 176 179 96
f 96 179 178
f 96 178 97
f 183 180 179
f 180 183 184
f 180 184 185
f 180 185 181
f 181 185 186
f 181 186 182
f 182 186 187
f 182 187 183
f 183 187 184
f 184 187 186
f 184 186 185
f 95 94 96
