# RS2 Model 10541
# Vertices: 198
# Faces: 292

v -17 -8 113
v -20 -9 100
v -13 -18 101
v -11 -17 111
v -16 -8 117
v -16 0 118
v -17 0 113
v -21 0 99
v -23 -9 87
v -14 -18 92
v -3 -19 89
v -2 -18 113
v -10 -17 114
v -19 14 88
v -25 1 85
v -17 11 100
v -10 18 89
v -18 14 78
v -24 10 75
v -26 1 73
v 1 -19 131
v 0 -18 131
v 0 -19 116
v 1 -18 130
v 2 -15 153
v 0 -14 153
v -1 -19 131
v -1 -18 130
v 0 -19 115
v 11 -17 115
v 12 -15 131
v 13 -12 155
v 2 -14 153
v 8 1 165
v 0 -8 161
v -2 -15 153
v -2 -14 153
v -12 -15 131
v -11 -17 115
v -2 -16 117
v -14 6 117
v -15 7 113
v -9 10 115
v -9 11 112
v 11 -17 111
v 10 -17 114
v 2 -16 117
v 2 -17 113
v 5 -19 89
v 13 -18 101
v 17 -8 113
v 16 -8 117
v 17 0 113
v 16 0 117
v 15 7 113
v 14 6 117
v 9 11 112
v 9 10 115
v 0 12 115
v 0 13 112
v -10 -17 77
v -8 -17 68
v -6 -17 79
v -19 -14 76
v -27 -6 74
v -5 -17 74
v -3 20 83
v -6 17 71
v -7 20 83
v 0 20 94
v -2 20 79
v 8 20 83
v 5 20 77
v 3 20 83
v 11 18 89
v 15 18 78
v 21 13 88
v 23 10 75
v 26 1 73
v 25 1 85
v 23 -9 87
v 23 -6 74
v 18 -13 76
v 15 -18 92
v 12 -16 77
v 8 -17 79
v 10 -17 70
v 1 18 70
v 6 -18 66
v 20 -9 100
v 21 0 99
v 17 11 100
v 10 16 100
v 0 18 100
v -10 15 100
v -13 13 155
v -19 2 160
v -8 1 165
v 0 9 165
v 0 15 155
v 0 15 138
v -12 13 142
v -17 10 144
v -19 10 155
v 13 13 155
v 12 13 142
v 11 11 126
v 0 13 125
v -12 11 126
v -16 8 128
v -18 2 142
v -12 -12 154
v -18 -8 144
v -17 -8 130
v -18 -8 116
v -17 0 116
v -18 1 129
v -15 7 116
v -11 11 115
v 0 13 115
v 11 11 115
v 15 8 127
v 15 7 116
v 17 1 129
v 17 0 116
v 16 -8 130
v 17 -8 116
v 18 -8 144
v 17 -9 153
v 19 2 160
v -17 -9 153
v 19 10 155
v 17 10 144
v 18 2 142
v 17 8 110
v 16 9 117
v 18 0 117
v 20 0 109
v 19 0 109
v 16 8 110
v 11 13 109
v 11 12 117
v 11 11 117
v 15 8 117
v 17 0 117
v 18 -8 117
v 20 -8 109
v 19 -8 109
v 12 -18 117
v 13 -18 108
v 13 -17 108
v 0 14 116
v 0 16 108
v -11 13 108
v -12 12 117
v -12 11 117
v 0 13 116
v 0 -20 108
v 0 -20 116
v -12 -18 117
v -13 -19 108
v -13 -18 108
v 0 -19 108
v -17 9 109
v -20 0 109
v -19 0 117
v -16 8 117
v -11 12 108
v -16 8 109
v -19 0 109
v -20 -8 109
v -19 -8 117
v -18 -8 117
v -18 0 117
v -15 8 117
v -12 -17 117
v 11 12 109
v 0 15 108
v 17 -8 117
v 12 -17 117
v -19 -8 109
v 12 -11 112
v 16 0 112
v 13 -1 123
v 8 -8 123
v 0 -14 111
v 0 -11 123
v -8 -8 123
v -10 -11 112
v -13 -1 123
v -16 0 112
v -8 5 123
v -9 8 113
v 0 10 113
v 0 8 123
v 8 5 123
v 9 8 113
v 0 -6 160

f 1 2 3
f 1 3 4
f 1 4 5
f 1 5 6
f 1 6 7
f 1 7 8
f 1 8 2
f 2 8 9
f 2 9 10
f 2 10 3
f 3 10 11
f 3 11 4
f 4 11 12
f 4 12 13
f 4 13 5
f 14 15 8
f 14 8 16
f 14 16 17
f 14 17 18
f 14 18 19
f 14 19 20
f 14 20 15
f 15 20 9
f 15 9 8
f 21 22 23
f 21 23 24
f 21 24 25
f 21 25 22
f 22 25 26
f 22 26 27
f 22 27 23
f 23 27 28
f 23 28 29
f 23 29 24
f 24 29 30
f 24 30 31
f 24 31 32
f 24 32 33
f 24 33 25
f 25 33 34
f 25 34 35
f 25 35 26
f 26 35 36
f 26 36 27
f 27 36 37
f 27 37 28
f 28 37 38
f 28 38 39
f 28 39 29
f 13 12 40
f 41 42 7
f 41 7 6
f 43 44 42
f 43 42 41
f 45 46 47
f 45 47 48
f 45 48 49
f 45 49 50
f 45 50 51
f 45 51 46
f 46 51 52
f 52 51 53
f 52 53 54
f 54 53 55
f 54 55 56
f 56 55 57
f 56 57 58
f 58 57 59
f 59 57 60
f 59 60 44
f 59 44 43
f 61 62 63
f 61 63 11
f 61 11 10
f 61 10 64
f 64 10 9
f 64 9 65
f 65 9 20
f 11 63 66
f 67 68 69
f 67 69 70
f 67 70 71
f 72 73 74
f 72 74 70
f 72 70 75
f 72 75 76
f 76 75 77
f 76 77 78
f 78 77 79
f 79 77 80
f 79 80 81
f 79 81 82
f 82 81 83
f 83 81 84
f 83 84 85
f 85 84 49
f 85 49 86
f 85 86 87
f 70 74 88
f 89 86 49
f 49 84 50
f 50 84 90
f 50 90 51
f 51 90 91
f 51 91 53
f 53 91 55
f 55 91 92
f 55 92 57
f 57 92 93
f 57 93 94
f 57 94 60
f 60 94 44
f 44 94 95
f 44 95 16
f 44 16 42
f 42 16 8
f 42 8 7
f 17 69 18
f 69 17 70
f 70 17 95
f 70 95 94
f 70 94 93
f 70 93 75
f 75 93 92
f 75 92 77
f 77 92 91
f 77 91 80
f 80 91 81
f 81 91 90
f 81 90 84
f 17 16 95
f 96 97 98
f 96 98 99
f 96 99 100
f 96 100 101
f 96 101 102
f 96 102 103
f 96 103 104
f 96 104 97
f 99 105 100
f 100 105 101
f 101 105 106
f 101 106 107
f 101 107 108
f 101 108 109
f 101 109 102
f 102 109 103
f 103 109 110
f 103 110 111
f 103 111 104
f 37 98 112
f 37 112 38
f 38 112 113
f 38 113 114
f 38 114 39
f 39 114 115
f 115 114 116
f 116 114 117
f 116 117 118
f 118 117 110
f 118 110 119
f 119 110 109
f 119 109 120
f 120 109 108
f 120 108 107
f 120 107 121
f 121 107 122
f 121 122 123
f 123 122 124
f 123 124 125
f 125 124 126
f 125 126 127
f 127 126 30
f 30 126 31
f 31 126 128
f 31 128 32
f 32 128 129
f 32 129 130
f 32 130 34
f 32 34 33
f 111 117 114
f 111 114 113
f 111 113 131
f 131 113 112
f 131 112 97
f 97 112 98
f 105 130 132
f 105 132 133
f 105 133 106
f 106 133 107
f 107 133 122
f 122 133 134
f 122 134 124
f 124 134 126
f 126 134 128
f 128 134 129
f 35 98 36
f 36 98 37
f 134 133 132
f 111 110 117
f 135 136 137
f 135 137 138
f 135 138 139
f 135 139 140
f 135 140 141
f 135 141 136
f 136 141 142
f 136 142 143
f 136 143 144
f 136 144 137
f 137 144 145
f 137 145 146
f 137 146 147
f 137 147 138
f 138 147 148
f 138 148 139
f 146 149 150
f 146 150 147
f 147 150 151
f 147 151 148
f 152 142 141
f 152 141 153
f 152 153 154
f 152 154 155
f 152 155 156
f 152 156 157
f 152 157 142
f 142 157 143
f 158 150 149
f 158 149 159
f 158 159 160
f 158 160 161
f 158 161 162
f 158 162 163
f 158 163 150
f 150 163 151
f 164 165 166
f 164 166 167
f 164 167 154
f 164 154 168
f 164 168 169
f 164 169 165
f 165 169 170
f 165 170 171
f 165 171 166
f 166 171 172
f 166 172 173
f 166 173 174
f 166 174 167
f 167 174 175
f 167 175 155
f 167 155 154
f 172 171 161
f 172 161 160
f 172 160 176
f 172 176 173
f 140 177 141
f 141 177 153
f 153 177 178
f 153 178 154
f 154 178 168
f 145 179 146
f 146 179 149
f 149 179 180
f 149 180 159
f 159 180 23
f 159 23 160
f 160 23 176
f 170 181 171
f 171 181 161
f 161 181 162
f 175 156 155
f 34 130 105
f 34 105 99
f 182 183 184
f 182 184 185
f 182 185 186
f 186 185 187
f 186 187 188
f 186 188 189
f 189 188 190
f 189 190 191
f 191 190 192
f 191 192 193
f 193 192 194
f 194 192 195
f 194 195 196
f 194 196 197
f 197 196 183
f 183 196 184
f 34 198 35
f 35 198 98
