# RS2 Model 10599
# Vertices: 168
# Faces: 197

v 0 -9 182
v -50 -22 182
v -37 -46 182
v -13 -59 182
v 13 -59 182
v 37 -46 182
v 50 -22 182
v 50 4 182
v 37 28 182
v 13 41 182
v -13 41 182
v -37 28 182
v -50 4 182
v -50 -22 158
v -37 -46 158
v -13 -59 158
v 13 -59 158
v 37 -46 158
v 50 -22 158
v 50 4 158
v 37 28 158
v 13 41 158
v -13 41 158
v -37 28 158
v -50 4 158
v -43 -20 30
v -32 -41 30
v 0 -9 30
v -43 2 30
v -32 23 30
v -24 19 30
v 24 19 30
v 32 23 30
v 43 2 30
v 43 -20 30
v 32 -40 30
v 11 -52 30
v -11 -52 30
v -31 -41 158
v -43 -20 158
v -43 2 158
v -32 22 158
v -24 19 158
v -32 -25 158
v -32 -25 30
v 0 -41 158
v 0 -41 30
v 32 -25 158
v 32 -25 30
v 24 19 158
v 31 23 158
v 43 2 158
v 43 -20 158
v 32 -40 158
v 11 -52 158
v -11 -52 158
v -50 -22 30
v -37 -46 30
v -13 -59 30
v 13 -59 30
v 37 -46 30
v 50 -22 30
v 50 4 30
v 37 28 30
v 13 41 30
v -13 41 30
v -37 28 30
v -50 4 30
v -55 -22 0
v -40 -49 0
v -13 -64 0
v 13 -64 0
v 40 -49 0
v 55 -22 0
v 55 4 0
v 40 31 0
v 13 46 0
v -13 46 0
v -40 31 0
v -55 4 0
v 23 15 155
v -23 15 155
v -23 15 31
v 23 15 31
v 23 21 155
v -23 21 155
v -23 21 31
v 23 21 31
v -17 22 119
v -23 22 115
v -23 22 127
v -17 22 123
v -15 22 128
v -15 22 114
v -12 22 125
v -12 22 117
v -8 22 111
v -7 22 107
v -4 22 114
v -11 22 123
v -11 22 119
v -7 22 134
v -8 22 130
v -8 22 125
v -8 22 117
v -5 22 122
v -5 22 120
v -3 22 128
v -23 15 115
v -23 15 127
v -17 22 56
v -23 22 52
v -23 22 64
v -17 22 60
v -15 22 65
v -15 22 51
v -12 22 62
v -12 22 54
v -8 22 48
v -7 22 44
v -4 22 51
v -11 22 60
v -11 22 56
v -7 22 71
v -8 22 67
v -8 22 62
v -8 22 54
v -5 22 59
v -5 22 57
v -3 22 65
v -23 15 52
v -23 15 64
v 13 31 96
v 13 31 88
v 10 31 90
v 10 31 94
v 8 26 95
v 13 26 99
v 16 31 94
v 16 31 90
v 18 26 89
v 13 26 85
v 8 26 89
v 11 21 91
v 11 21 93
v 13 21 95
v 18 26 95
v 15 21 93
v 15 21 91
v 13 21 89
v -118 55 239
v 65 -17 217
v -118 55 -33
v -93 -85 30
v 93 -87 30
v -93 69 30
v 20 22 53
v -41 22 53
v 20 22 121
v -127 -134 182
v 125 -136 182
v -125 118 182
v -99 -58 226
v 133 86 254
v -71 -42 -69
v -5 26 111
v 30 26 111
v -5 26 72

f 1 2 3
f 1 3 4
f 1 4 5
f 1 5 6
f 1 6 7
f 1 7 8
f 1 8 9
f 1 9 10
f 1 10 11
f 1 11 12
f 1 12 13
f 1 13 2
f 2 13 14
f 2 14 15
f 2 15 3
f 3 15 16
f 3 16 4
f 4 16 17
f 4 17 5
f 5 17 18
f 5 18 6
f 6 18 19
f 6 19 7
f 7 19 20
f 7 20 8
f 8 20 21
f 8 21 9
f 9 21 22
f 9 22 10
f 10 22 23
f 10 23 11
f 11 23 24
f 11 24 12
f 12 24 25
f 12 25 13
f 13 25 14
f 26 27 28
f 26 28 29
f 29 28 30
f 30 28 31
f 31 28 32
f 32 28 33
f 33 28 34
f 34 28 35
f 35 28 36
f 36 28 37
f 37 28 38
f 38 28 27
f 27 39 40
f 27 40 26
f 26 40 41
f 26 41 29
f 29 41 42
f 29 42 30
f 30 42 43
f 30 43 31
f 31 43 44
f 31 44 45
f 45 44 46
f 45 46 47
f 47 46 48
f 47 48 49
f 49 48 50
f 49 50 32
f 32 50 51
f 32 51 33
f 33 51 52
f 33 52 34
f 34 52 53
f 34 53 35
f 35 53 54
f 35 54 36
f 36 54 55
f 36 55 37
f 37 55 56
f 37 56 38
f 38 56 39
f 38 39 27
f 28 57 58
f 28 58 59
f 28 59 60
f 28 60 61
f 28 61 62
f 28 62 63
f 28 63 64
f 28 64 65
f 28 65 66
f 28 66 67
f 28 67 68
f 28 68 57
f 57 68 69
f 57 69 70
f 57 70 58
f 58 70 71
f 58 71 59
f 59 71 72
f 59 72 60
f 60 72 73
f 60 73 61
f 61 73 74
f 61 74 62
f 62 74 75
f 62 75 63
f 63 75 76
f 63 76 64
f 64 76 77
f 64 77 65
f 65 77 78
f 65 78 66
f 66 78 79
f 66 79 67
f 67 79 80
f 67 80 68
f 68 80 69
f 81 82 83
f 81 83 84
f 81 84 85
f 81 85 82
f 82 85 86
f 82 86 87
f 82 87 83
f 83 87 84
f 84 87 88
f 84 88 85
f 85 88 86
f 86 88 87
f 89 90 91
f 89 91 92
f 89 92 93
f 89 93 94
f 94 93 95
f 94 95 96
f 94 96 97
f 94 97 98
f 98 97 99
f 100 101 96
f 100 96 95
f 102 103 93
f 93 103 95
f 104 105 101
f 104 101 100
f 106 107 105
f 106 105 104
f 103 102 108
f 91 90 109
f 91 109 110
f 111 112 113
f 111 113 114
f 111 114 115
f 111 115 116
f 116 115 117
f 116 117 118
f 116 118 119
f 116 119 120
f 120 119 121
f 122 123 118
f 122 118 117
f 124 125 115
f 115 125 117
f 126 127 123
f 126 123 122
f 128 129 127
f 128 127 126
f 125 124 130
f 113 112 131
f 113 131 132
f 133 134 135
f 133 135 136
f 133 136 137
f 133 137 138
f 133 138 139
f 133 139 134
f 134 139 140
f 134 140 141
f 134 141 142
f 134 142 135
f 135 142 143
f 135 143 136
f 136 143 137
f 137 143 144
f 137 144 145
f 137 145 138
f 138 145 146
f 138 146 147
f 138 147 139
f 139 147 140
f 140 147 141
f 141 147 148
f 141 148 149
f 141 149 142
f 142 149 150
f 142 150 143
f 143 150 144
f 147 146 148
f 151 152 153
f 154 155 156
f 157 158 159
