# RS2 Model 10603
# Vertices: 25
# Faces: 28

v 39 -45 0
v 33 -45 0
v 36 -48 2
v 39 -51 0
v 33 -51 0
v 30 42 1
v -30 42 1
v 0 0 0
v 30 -42 1
v 33 45 0
v -33 45 0
v -30 -42 1
v -33 -45 0
v -33 -51 0
v -36 -48 2
v -39 -51 0
v -39 -45 0
v -33 51 0
v -36 48 2
v -39 45 0
v -39 51 0
v 39 45 0
v 39 51 0
v 36 48 2
v 33 51 0

f 1 2 3
f 1 3 4
f 4 3 5
f 5 3 2
f 6 7 8
f 6 8 9
f 6 9 2
f 6 2 10
f 6 10 7
f 7 10 11
f 7 11 12
f 7 12 8
f 8 12 9
f 9 12 13
f 9 13 2
f 12 11 13
f 14 13 15
f 14 15 16
f 16 15 17
f 17 15 13
f 11 18 19
f 11 19 20
f 20 19 21
f 21 19 18
f 22 23 24
f 22 24 10
f 10 24 25
f 25 24 23
