# RS2 Model 1061
# Vertices: 48
# Faces: 32

v 8 -46 5
v 4 -46 5
v 4 -54 5
v 8 -54 5
v 8 -34 5
v 4 -34 5
v 4 -42 5
v 8 -42 5
v 8 -22 5
v 4 -22 5
v 4 -30 5
v 8 -30 5
v 8 -10 5
v 4 -10 5
v 4 -18 5
v 8 -18 5
v 16 -4 5
v 16 -8 5
v 24 -8 5
v 24 -4 5
v 28 -4 5
v 28 -8 5
v 36 -8 5
v 36 -4 5
v 40 -4 5
v 40 -8 5
v 48 -8 5
v 48 -4 5
v 52 -4 5
v 52 -8 5
v 60 -8 5
v 60 -4 5
v 0 0 4
v 4 -20 4
v 20 -4 4
v 0 0 0
v 4 -20 0
v 0 -64 0
v 0 -64 4
v 64 -64 4
v 40 0 4
v 20 -4 0
v 40 0 0
v 64 0 4
v 64 0 0
v 64 -20 4
v 64 64 4
v -64 -64 4

f 1 2 3
f 1 3 4
f 5 6 7
f 5 7 8
f 9 10 11
f 9 11 12
f 13 14 15
f 13 15 16
f 17 18 19
f 17 19 20
f 21 22 23
f 21 23 24
f 25 26 27
f 25 27 28
f 29 30 31
f 29 31 32
f 33 34 35
f 33 35 36
f 33 36 37
f 33 37 34
f 34 37 38
f 34 38 39
f 34 39 35
f 35 39 40
f 35 40 41
f 35 41 42
f 35 42 36
f 43 41 44
f 43 44 45
f 42 41 43
f 41 40 46
f 41 46 44
