# RS2 Model 10669
# Vertices: 82
# Faces: 124

v -32 0 240
v 64 -64 240
v 64 -27 240
v 64 25 240
v 64 64 240
v -32 47 240
v -48 23 240
v -48 -23 240
v -32 -48 240
v -32 -64 240
v -32 -49 140
v -32 -64 140
v -32 -64 24
v -32 -48 24
v -48 -64 24
v -48 -48 24
v -48 -64 0
v -48 -48 0
v -32 -34 0
v -32 -28 24
v -32 -28 0
v -32 28 0
v -32 28 24
v -32 47 24
v -32 34 0
v -48 47 24
v -48 48 0
v -48 64 0
v -48 64 24
v -32 64 24
v -32 64 140
v -32 47 140
v -32 64 240
v 16 -64 208
v 16 -64 32
v 16 -13 32
v 16 -13 208
v 64 -64 224
v 64 -27 224
v 32 64 32
v 16 64 32
v 16 12 32
v 32 25 32
v 32 25 8
v 32 64 8
v 64 25 8
v 64 64 8
v 64 64 0
v 64 -64 0
v 64 -27 8
v 64 -64 8
v 32 -27 8
v 32 -64 8
v 32 -27 32
v 32 -64 32
v 16 64 208
v 16 12 208
v 45 12 217
v 45 12 32
v 64 25 32
v 64 -27 32
v 64 25 224
v 64 64 224
v 45 -13 217
v 45 -13 32
v -16 28 140
v -16 14 180
v -16 40 140
v -16 28 32
v -16 -28 32
v -16 -28 140
v -16 -14 180
v -40 23 200
v -35 36 177
v -16 42 32
v -16 -43 32
v -16 -42 140
v -35 -34 177
v -40 -23 200
v -93 -42 242
v -95 45 244
v 47 -45 125

f 1 2 3
f 1 3 4
f 1 4 5
f 1 5 6
f 1 6 7
f 1 7 8
f 1 8 9
f 1 9 2
f 2 9 10
f 10 9 11
f 10 11 12
f 12 11 13
f 13 11 14
f 13 14 15
f 15 14 16
f 15 16 17
f 17 16 18
f 18 16 14
f 18 14 19
f 19 14 20
f 19 20 21
f 21 20 22
f 22 20 23
f 22 23 24
f 22 24 25
f 25 24 26
f 25 26 27
f 27 26 28
f 28 26 29
f 29 26 30
f 30 26 24
f 30 24 31
f 31 24 32
f 31 32 33
f 33 32 6
f 33 6 5
f 34 35 36
f 34 36 37
f 34 37 38
f 38 37 39
f 38 39 3
f 38 3 2
f 40 41 42
f 40 42 43
f 40 43 44
f 40 44 45
f 45 44 46
f 45 46 47
f 47 46 48
f 48 46 49
f 49 46 50
f 49 50 51
f 51 50 52
f 51 52 53
f 53 52 54
f 53 54 55
f 55 54 36
f 55 36 35
f 42 41 56
f 42 56 57
f 42 57 58
f 42 58 59
f 42 59 43
f 43 59 60
f 43 60 44
f 44 60 46
f 46 60 50
f 50 60 61
f 50 61 54
f 50 54 52
f 4 3 39
f 4 39 62
f 4 62 63
f 4 63 5
f 57 56 63
f 57 63 62
f 57 62 58
f 58 62 64
f 58 64 65
f 58 65 59
f 59 65 61
f 59 61 60
f 37 36 65
f 37 65 64
f 37 64 39
f 39 64 62
f 36 54 61
f 36 61 65
f 66 67 68
f 66 68 69
f 66 69 70
f 66 70 71
f 66 71 67
f 67 71 72
f 67 72 73
f 67 73 74
f 67 74 68
f 68 74 32
f 68 32 75
f 68 75 69
f 69 75 23
f 69 23 20
f 69 20 70
f 70 20 14
f 70 14 76
f 70 76 77
f 70 77 71
f 71 77 72
f 72 77 78
f 72 78 79
f 72 79 73
f 73 79 7
f 73 7 6
f 73 6 74
f 74 6 32
f 79 78 9
f 79 9 8
f 79 8 7
f 78 11 9
f 11 78 77
f 11 77 76
f 11 76 14
f 32 24 75
f 75 24 23
