# RS2 Model 10676
# Vertices: 98
# Faces: 170

v -51 0 44
v -58 -5 44
v -58 -10 24
v -51 -10 24
v -51 10 24
v -58 5 44
v -58 4 72
v -51 2 77
v -58 -5 73
v -58 10 24
v -64 47 140
v -59 47 229
v -59 64 240
v -64 64 140
v -64 64 24
v -64 47 24
v -63 42 24
v -61 40 140
v -64 35 177
v -64 23 200
v -54 47 229
v -54 64 240
v -64 -48 140
v -64 -64 140
v -59 -64 240
v -59 -48 229
v -64 -35 177
v -61 -42 140
v -63 -43 24
v -64 -48 24
v -64 -64 24
v -64 -23 200
v -45 -23 200
v -39 0 210
v -64 0 210
v -61 -24 172
v -52 -24 172
v -52 -42 140
v -44 -43 24
v -61 34 0
v -61 -34 0
v -64 -48 0
v -64 -64 0
v -54 -64 240
v -54 -48 229
v -48 -35 177
v -52 0 190
v -45 23 200
v -61 0 190
v -61 24 172
v -52 24 172
v -48 35 177
v -64 48 0
v -64 64 0
v -52 40 140
v -48 47 140
v -48 64 140
v -26 64 24
v -35 47 24
v -23 64 0
v -26 48 0
v -46 34 0
v -44 42 24
v -46 -34 0
v -35 -48 24
v -26 -48 0
v -23 -64 0
v -26 -64 24
v -48 -48 140
v -48 -64 140
v -58 15 77
v -51 20 92
v -58 4 82
v -58 24 92
v -54 34 93
v -58 23 97
v -58 18 108
v -51 16 105
v -58 14 91
v -58 -17 91
v -51 -20 87
v -58 -21 84
v -54 -3 111
v -58 12 102
v -58 -22 107
v -51 -26 105
v -58 -25 88
v -58 -32 103
v -58 -15 124
v -51 -18 126
v -54 -29 78
v -58 1 131
v -51 1 135
v -58 -23 128
v -58 -3 137
v -58 4 138
v -54 13 124
v -54 1 154

f 1 2 3
f 1 3 4
f 1 4 5
f 1 5 6
f 1 6 7
f 1 7 8
f 1 8 2
f 2 8 9
f 2 9 6
f 2 6 10
f 2 10 3
f 6 5 10
f 11 12 13
f 11 13 14
f 11 14 15
f 11 15 16
f 11 16 17
f 11 17 18
f 11 18 19
f 11 19 12
f 12 19 20
f 12 20 21
f 12 21 22
f 12 22 13
f 23 24 25
f 23 25 26
f 23 26 27
f 23 27 28
f 23 28 29
f 23 29 30
f 23 30 31
f 23 31 24
f 32 27 26
f 32 26 33
f 32 33 34
f 32 34 35
f 32 35 36
f 32 36 27
f 27 36 28
f 28 36 37
f 28 37 38
f 28 38 29
f 29 38 39
f 29 39 17
f 29 17 40
f 29 40 41
f 29 41 30
f 30 41 42
f 30 42 43
f 30 43 31
f 44 26 25
f 26 44 45
f 26 45 33
f 33 45 46
f 33 46 37
f 33 37 47
f 33 47 34
f 34 47 48
f 34 48 35
f 34 35 20
f 34 20 48
f 48 20 35
f 35 20 49
f 35 49 36
f 36 49 37
f 37 49 47
f 47 49 50
f 47 50 51
f 47 51 48
f 48 51 52
f 48 52 21
f 48 21 20
f 40 17 16
f 40 16 53
f 53 16 54
f 54 16 15
f 20 50 49
f 50 20 19
f 50 19 18
f 50 18 55
f 50 55 51
f 51 55 52
f 52 55 56
f 52 56 21
f 21 56 22
f 22 56 57
f 57 56 58
f 58 56 59
f 58 59 60
f 60 59 61
f 61 59 62
f 62 59 63
f 62 63 39
f 62 39 64
f 64 39 65
f 64 65 66
f 66 65 67
f 67 65 68
f 68 65 69
f 68 69 70
f 70 69 44
f 44 69 45
f 45 69 46
f 46 69 38
f 46 38 37
f 63 59 56
f 63 56 55
f 63 55 18
f 63 18 17
f 63 17 39
f 39 38 69
f 39 69 65
f 71 72 8
f 71 8 7
f 71 7 73
f 71 73 74
f 71 74 72
f 72 74 75
f 72 75 76
f 72 76 77
f 72 77 78
f 72 78 79
f 72 79 73
f 72 73 8
f 8 73 80
f 8 80 81
f 8 81 9
f 9 81 82
f 9 82 80
f 9 80 73
f 9 73 7
f 9 7 6
f 83 78 77
f 83 77 84
f 83 84 78
f 78 84 79
f 79 84 77
f 79 77 76
f 79 76 74
f 79 74 73
f 85 86 81
f 85 81 80
f 85 80 87
f 85 87 88
f 85 88 89
f 85 89 86
f 86 89 90
f 86 90 88
f 86 88 87
f 86 87 81
f 81 87 91
f 81 91 82
f 82 91 87
f 82 87 80
f 92 93 90
f 92 90 89
f 92 89 94
f 92 94 95
f 92 95 96
f 92 96 97
f 92 97 93
f 93 97 96
f 93 96 98
f 93 98 95
f 93 95 94
f 93 94 90
f 90 94 88
f 88 94 89
f 76 75 74
f 95 98 96
