# RS2 Model 10716
# Vertices: 162
# Faces: 184

v 44 -1 179
v 44 -1 175
v 47 -1 175
v 47 -1 165
v 44 -1 165
v 20 -1 179
v 7 -1 179
v 10 -1 175
v 17 -1 175
v 17 -1 170
v 20 -1 168
v 17 -1 167
v 17 -1 161
v 20 -1 161
v 7 -1 168
v 10 -1 170
v 10 -1 167
v 7 -1 161
v 10 -1 161
v 3 -2 179
v -10 -2 179
v -7 -2 175
v 3 -2 175
v -10 -2 168
v -7 -2 172
v 0 -2 168
v 3 -2 172
v 0 -2 165
v 3 -2 161
v -10 -2 165
v -10 -2 161
v 35 0 119
v -3 0 119
v -12 0 108
v 46 0 108
v 10 0 128
v 21 0 128
v -18 0 194
v 15 0 133
v 53 0 194
v 53 0 98
v -56 15 112
v -56 15 240
v -56 -16 240
v -56 -16 112
v -64 -16 240
v -64 -16 112
v -64 15 240
v -64 15 112
v -56 -4 168
v -32 -4 216
v -32 3 216
v -56 3 168
v -56 3 152
v -24 3 216
v -24 -4 216
v -56 -4 152
v 71 7 216
v 71 7 232
v 71 -8 232
v 71 -8 216
v -56 -8 232
v -56 -8 216
v -56 7 232
v -56 7 216
v -12 -4 200
v -12 3 200
v -12 3 216
v -12 -4 216
v -20 -4 200
v -20 -4 216
v -20 3 200
v -20 3 216
v 55 -4 200
v 55 3 200
v 55 3 216
v 55 -4 216
v 47 -4 200
v 47 -4 216
v 47 3 200
v 47 3 216
v -24 -8 200
v 59 -8 200
v 59 7 200
v -24 7 200
v -24 -8 92
v -18 -8 194
v 53 -8 194
v 59 -8 92
v 59 7 92
v 53 7 98
v 53 7 194
v -18 7 194
v -18 7 98
v -24 7 92
v -18 -8 98
v 53 -8 98
v -18 0 98
v -6 1 179
v -6 1 175
v -9 1 175
v -9 1 165
v -6 1 165
v 25 -1 172
v 22 -1 179
v 22 -1 161
v 25 -1 161
v 25 -1 179
v 31 -1 161
v 31 -1 168
v 34 -1 161
v 34 -1 179
v 31 -1 179
v 39 -1 175
v 36 -1 179
v 36 -1 161
v 39 -1 165
v 44 -1 161
v 35 1 179
v 48 1 179
v 45 1 175
v 35 1 175
v 48 1 168
v 45 1 172
v 38 1 168
v 35 1 172
v 38 1 165
v 35 1 161
v 48 1 165
v 48 1 161
v 19 1 179
v 32 1 179
v 29 1 175
v 22 1 175
v 22 1 170
v 19 1 168
v 22 1 167
v 22 1 161
v 19 1 161
v 32 1 168
v 29 1 170
v 29 1 167
v 32 1 161
v 29 1 161
v 13 1 172
v 16 1 179
v 16 1 161
v 13 1 161
v 13 1 179
v 7 1 161
v 7 1 168
v 4 1 161
v 4 1 179
v 7 1 179
v 2 1 179
v -1 1 175
v 2 1 161
v -1 1 165
v -6 1 161
v -12 0 133
v -13 0 108
v 45 0 132

f 1 2 3
f 1 3 4
f 4 3 5
f 5 3 2
f 6 7 8
f 6 8 9
f 6 9 10
f 6 10 11
f 11 10 12
f 11 12 13
f 11 13 14
f 8 7 15
f 8 15 16
f 16 15 17
f 16 17 12
f 16 12 10
f 17 15 18
f 17 18 19
f 20 21 22
f 20 22 23
f 22 21 24
f 22 24 25
f 25 24 26
f 25 26 27
f 27 26 28
f 27 28 29
f 29 28 30
f 29 30 31
f 32 33 34
f 32 34 35
f 32 35 33
f 32 33 36
f 32 36 37
f 32 37 33
f 33 37 36
f 33 36 38
f 33 38 34
f 33 34 38
f 33 38 36
f 36 38 39
f 36 39 37
f 36 37 39
f 36 39 38
f 38 39 40
f 38 40 39
f 39 40 37
f 39 37 40
f 40 37 32
f 40 32 35
f 40 35 41
f 40 41 35
f 40 35 32
f 40 32 37
f 42 43 44
f 42 44 45
f 45 44 46
f 45 46 47
f 48 46 44
f 48 44 43
f 48 43 49
f 49 43 42
f 50 51 52
f 50 52 53
f 53 52 54
f 54 52 55
f 54 55 56
f 54 56 57
f 57 56 50
f 50 56 51
f 58 59 60
f 58 60 61
f 61 60 62
f 61 62 63
f 64 62 60
f 64 60 59
f 64 59 65
f 65 59 58
f 66 67 68
f 66 68 69
f 66 69 70
f 70 69 71
f 70 71 72
f 72 71 73
f 72 73 67
f 67 73 68
f 74 75 76
f 74 76 77
f 74 77 78
f 78 77 79
f 78 79 80
f 80 79 81
f 80 81 75
f 75 81 76
f 82 83 84
f 82 84 85
f 82 85 86
f 82 86 87
f 82 87 83
f 83 87 88
f 83 88 89
f 83 89 90
f 83 90 84
f 84 90 91
f 84 91 92
f 84 92 85
f 85 92 93
f 85 93 94
f 85 94 95
f 85 95 86
f 96 97 91
f 96 91 94
f 96 94 87
f 96 87 86
f 96 86 89
f 96 89 97
f 97 89 88
f 97 88 92
f 97 92 91
f 87 94 93
f 91 90 95
f 91 95 94
f 35 34 33
f 34 35 41
f 34 41 98
f 34 98 35
f 35 98 41
f 34 38 98
f 34 98 38
f 99 100 101
f 99 101 102
f 102 101 103
f 103 101 100
f 104 105 106
f 104 106 107
f 105 104 108
f 108 104 109
f 108 109 110
f 110 109 111
f 110 111 112
f 110 112 113
f 114 115 116
f 114 116 117
f 117 116 118
f 117 118 5
f 115 114 2
f 115 2 1
f 119 120 121
f 119 121 122
f 121 120 123
f 121 123 124
f 124 123 125
f 124 125 126
f 126 125 127
f 126 127 128
f 128 127 129
f 128 129 130
f 131 132 133
f 131 133 134
f 131 134 135
f 131 135 136
f 136 135 137
f 136 137 138
f 136 138 139
f 133 132 140
f 133 140 141
f 141 140 142
f 141 142 137
f 141 137 135
f 142 140 143
f 142 143 144
f 145 146 147
f 145 147 148
f 146 145 149
f 149 145 150
f 149 150 151
f 151 150 152
f 151 152 153
f 151 153 154
f 155 156 100
f 155 100 99
f 156 155 157
f 156 157 158
f 158 157 159
f 158 159 103
