# RS2 Model 10767
# Vertices: 74
# Faces: 141

v 113 -128 16
v 113 -113 0
v 128 -114 16
v 128 -114 60
v 113 -128 60
v 0 -128 60
v 0 -128 16
v -113 -113 0
v -113 -128 16
v -120 -114 16
v -120 0 16
v -113 113 0
v -120 114 16
v -113 119 16
v 0 119 16
v 0 113 0
v 113 119 16
v 113 113 0
v 128 114 16
v 128 0 16
v 128 0 38
v 113 -56 99
v 113 -113 93
v 56 -113 93
v 0 -113 93
v -56 -113 108
v -113 -128 76
v -90 90 80
v -56 113 80
v -113 113 74
v -113 56 82
v -95 63 85
v -45 52 60
v -63 95 83
v 15 89 89
v 0 113 93
v 0 125 60
v -113 119 42
v -120 114 42
v -120 0 60
v -113 0 93
v -84 2 89
v -56 0 86
v -8 -12 54
v -1 47 60
v 0 56 61
v 63 95 84
v 56 113 85
v 113 119 46
v -120 -114 76
v -113 -56 108
v -95 -63 101
v -42 -44 72
v -34 -45 67
v 3 -44 71
v 44 -57 61
v 56 0 38
v 41 42 72
v 7 53 62
v 91 86 80
v 113 113 79
v 128 114 46
v -113 -113 108
v -88 -93 101
v -40 -52 70
v -63 -95 101
v -1 -90 94
v 63 -95 89
v 90 -86 89
v 95 -63 93
v 91 -11 66
v 95 63 80
v 113 56 79
v 113 0 70

f 1 2 3
f 1 3 4
f 1 4 5
f 1 5 6
f 1 6 7
f 1 7 2
f 2 7 8
f 8 7 9
f 8 9 10
f 8 10 11
f 8 11 12
f 12 11 13
f 12 13 14
f 12 14 15
f 12 15 16
f 16 15 17
f 16 17 18
f 18 17 19
f 18 19 20
f 18 20 2
f 2 20 3
f 3 20 21
f 3 21 4
f 4 21 22
f 4 22 23
f 4 23 5
f 5 23 24
f 5 24 6
f 6 24 25
f 6 25 26
f 6 26 27
f 6 27 9
f 6 9 7
f 28 29 30
f 28 30 31
f 28 31 32
f 28 32 33
f 28 33 34
f 28 34 29
f 29 34 35
f 29 35 36
f 29 36 37
f 29 37 38
f 29 38 30
f 30 38 39
f 30 39 31
f 31 39 40
f 31 40 41
f 31 41 32
f 32 41 42
f 32 42 43
f 32 43 33
f 33 43 44
f 33 44 45
f 33 45 46
f 33 46 34
f 34 46 35
f 35 46 47
f 35 47 36
f 36 47 48
f 36 48 37
f 37 48 49
f 37 49 17
f 37 17 15
f 37 15 14
f 37 14 38
f 38 14 39
f 39 14 13
f 39 13 40
f 40 13 11
f 40 11 10
f 40 10 50
f 40 50 51
f 40 51 41
f 41 51 42
f 42 51 52
f 42 52 43
f 43 52 53
f 43 53 54
f 43 54 44
f 44 54 55
f 44 55 56
f 44 56 57
f 44 57 58
f 44 58 45
f 45 58 59
f 45 59 46
f 46 59 47
f 47 59 58
f 47 58 60
f 47 60 48
f 48 60 61
f 48 61 49
f 49 61 62
f 49 62 19
f 49 19 17
f 10 27 50
f 50 27 63
f 50 63 51
f 51 63 64
f 51 64 52
f 52 64 65
f 52 65 53
f 53 65 54
f 54 65 55
f 55 65 66
f 55 66 67
f 55 67 68
f 55 68 56
f 56 68 69
f 56 69 70
f 56 70 57
f 57 70 71
f 57 71 72
f 57 72 58
f 58 72 60
f 60 72 73
f 60 73 61
f 61 73 62
f 62 73 21
f 62 21 19
f 19 21 20
f 9 27 10
f 69 24 23
f 69 23 22
f 69 22 70
f 70 22 74
f 70 74 71
f 71 74 73
f 71 73 72
f 26 63 27
f 63 26 64
f 64 26 66
f 64 66 65
f 69 68 24
f 24 68 67
f 24 67 25
f 25 67 66
f 25 66 26
f 21 74 22
f 74 21 73
