# RS2 Model 10773
# Vertices: 82
# Faces: 149

v -120 122 256
v -120 56 264
v -56 56 273
v -56 113 261
v -120 128 240
v -128 123 240
v -120 33 227
v -56 42 247
v 0 56 256
v 0 113 256
v 0 128 240
v 113 128 240
v 56 113 261
v 113 122 256
v 128 123 240
v 113 128 128
v 128 123 128
v 128 123 16
v 113 128 16
v 113 122 0
v 128 0 16
v 113 0 0
v 94 -86 0
v 108 -104 36
v 45 -102 0
v 45 -120 27
v -16 -73 0
v -16 -91 18
v -42 -86 0
v -42 -94 9
v -84 -105 0
v -84 -113 9
v -107 -89 0
v -113 -97 9
v -120 0 0
v -128 0 16
v -120 122 0
v -128 123 16
v -120 128 16
v -128 123 128
v -122 128 128
v -128 0 128
v -66 34 159
v -52 51 195
v 14 47 174
v 56 56 265
v 113 56 256
v 113 33 204
v 121 30 128
v 96 0 45
v 86 -93 122
v 44 -110 128
v 1 -80 104
v 8 -44 131
v 15 -8 116
v -22 -7 119
v -42 -75 70
v -84 -99 113
v -113 -77 81
v -113 -48 131
v 40 128 128
v 0 128 16
v 38 -2 216
v 26 24 208
v 20 -10 182
v 63 -22 180
v 54 23 221
v 71 45 201
v 43 -28 140
v 71 -21 134
v 88 30 134
v 15 44 116
v -29 4 129
v -73 -35 168
v -54 -60 160
v -37 -82 115
v -38 -79 102
v 88 26 124
v -69 11 145
v 43 -65 155
v 43 -39 144
v 79 -58 149

f 1 2 3
f 1 3 4
f 1 4 5
f 1 5 6
f 1 6 2
f 2 6 7
f 2 7 8
f 2 8 3
f 3 8 9
f 3 9 10
f 3 10 4
f 4 10 5
f 5 10 11
f 11 10 12
f 12 10 13
f 12 13 14
f 12 14 15
f 12 15 16
f 16 15 17
f 16 17 18
f 16 18 19
f 19 18 20
f 20 18 21
f 20 21 22
f 22 21 23
f 23 21 24
f 23 24 25
f 25 24 26
f 25 26 27
f 27 26 28
f 27 28 29
f 29 28 30
f 29 30 31
f 31 30 32
f 31 32 33
f 33 32 34
f 33 34 35
f 35 34 36
f 35 36 37
f 37 36 38
f 37 38 39
f 39 38 40
f 39 40 41
f 41 40 5
f 5 40 6
f 6 40 7
f 7 40 42
f 7 42 43
f 7 43 44
f 7 44 8
f 8 44 45
f 8 45 9
f 9 45 46
f 9 46 10
f 10 46 13
f 13 46 14
f 14 46 47
f 14 47 15
f 15 47 48
f 15 48 17
f 17 48 49
f 17 49 18
f 18 49 21
f 21 49 50
f 21 50 24
f 24 50 51
f 24 51 26
f 26 51 52
f 26 52 53
f 26 53 28
f 28 53 54
f 28 54 55
f 28 55 56
f 28 56 57
f 28 57 30
f 30 57 32
f 32 57 58
f 32 58 34
f 34 58 59
f 34 59 36
f 36 59 60
f 36 60 42
f 36 42 38
f 38 42 40
f 12 11 61
f 12 61 16
f 16 61 19
f 19 61 62
f 62 61 39
f 39 61 41
f 41 61 5
f 5 61 11
f 63 64 65
f 63 65 66
f 63 66 67
f 63 67 64
f 64 67 68
f 64 68 45
f 64 45 65
f 65 45 55
f 65 55 69
f 65 69 66
f 66 69 70
f 66 70 71
f 66 71 68
f 66 68 67
f 56 55 72
f 56 72 73
f 56 73 74
f 56 74 75
f 56 75 76
f 56 76 77
f 56 77 57
f 57 77 58
f 58 77 76
f 58 76 75
f 58 75 74
f 58 74 60
f 58 60 59
f 71 70 78
f 71 78 49
f 71 49 68
f 68 49 48
f 68 48 46
f 68 46 45
f 72 43 79
f 72 79 73
f 73 79 74
f 74 79 42
f 74 42 60
f 45 72 55
f 72 45 44
f 72 44 43
f 55 54 80
f 55 80 81
f 55 81 69
f 69 81 70
f 70 81 80
f 70 80 82
f 70 82 50
f 70 50 78
f 78 50 49
f 54 53 52
f 54 52 80
f 80 52 82
f 82 52 51
f 82 51 50
f 48 47 46
f 79 43 42
