# RS2 Model 10785
# Vertices: 28
# Faces: 42

v -49 -8 264
v -56 50 240
v -44 -64 238
v -33 -64 238
v -33 -8 264
v -49 49 256
v -49 63 240
v -56 50 128
v -64 -64 128
v -56 -64 222
v -49 63 128
v -49 63 16
v -56 50 16
v -56 -64 16
v -49 49 0
v -49 -64 0
v -33 63 16
v -33 49 0
v -25 50 16
v -25 -64 16
v -33 -64 0
v -25 50 240
v -37 49 256
v -25 -64 222
v -18 -64 128
v -25 50 128
v -33 63 240
v -33 63 128

f 1 2 3
f 1 3 4
f 1 4 5
f 1 5 6
f 1 6 2
f 2 6 7
f 2 7 8
f 2 8 9
f 2 9 10
f 2 10 3
f 7 11 8
f 8 11 12
f 8 12 13
f 8 13 9
f 9 13 14
f 14 13 15
f 14 15 16
f 13 12 15
f 15 12 17
f 15 17 18
f 18 17 19
f 18 19 20
f 18 20 21
f 22 23 5
f 22 5 4
f 22 4 24
f 22 24 25
f 22 25 26
f 22 26 27
f 22 27 23
f 23 27 6
f 23 6 5
f 17 26 19
f 19 26 25
f 19 25 20
f 28 26 17
f 28 17 12
f 28 12 11
f 28 11 27
f 28 27 26
f 27 7 6
f 7 27 11
