# RS2 Model 10794
# Vertices: 195
# Faces: 293

v 113 -128 16
v 113 -113 0
v 128 -114 16
v 128 -114 128
v 113 -122 128
v -39 -127 90
v 0 -128 16
v -113 -100 0
v -113 -115 16
v -120 -101 16
v -120 0 16
v -117 119 0
v -124 120 16
v -117 125 16
v -124 120 121
v -117 125 128
v -117 125 240
v 40 128 128
v 0 125 240
v 113 119 248
v 113 119 128
v 128 114 248
v 128 114 128
v 128 114 16
v 113 119 16
v 113 113 0
v 128 0 16
v 121 30 128
v 128 -114 233
v 113 -128 233
v 76 -126 158
v 72 -126 148
v 63 -127 154
v -19 -119 161
v -113 -115 240
v -113 -115 128
v -120 -101 128
v -119 0 128
v -127 57 128
v -124 120 240
v -117 119 256
v -56 113 261
v 0 113 256
v 56 113 261
v 113 113 264
v 113 56 256
v 113 0 256
v 128 0 240
v -56 -113 256
v 0 -113 249
v -62 -45 249
v -113 -100 256
v -120 -101 240
v -127 -57 184
v -120 0 240
v -113 56 264
v -113 0 256
v -113 -56 256
v 113 -56 252
v 113 -113 249
v 56 -113 256
v 0 -128 233
v 55 -72 251
v -5 -46 248
v 75 63 265
v 102 -118 272
v 102 -103 256
v 117 -104 272
v 128 -103 384
v 113 -111 384
v 56 -113 311
v 0 -116 272
v -103 -103 256
v -103 -118 272
v -110 -104 272
v -120 0 272
v -106 113 256
v -113 114 272
v -106 119 272
v 113 113 256
v 109 119 272
v 128 114 272
v 128 0 272
v 121 -25 384
v 122 -103 496
v 107 -117 496
v 56 -110 423
v 63 -113 357
v 56 -56 310
v 0 -56 302
v 0 -113 311
v -56 -113 311
v -113 -118 384
v -120 -104 384
v -128 49 384
v -120 114 384
v -113 119 384
v 113 119 384
v 128 114 384
v -107 113 512
v -107 56 520
v -56 56 522
v -56 113 517
v -107 119 496
v -114 114 496
v -113 0 498
v -56 0 512
v -62 0 479
v -56 56 471
v -56 113 459
v -120 0 482
v -119 -104 495
v -104 -59 507
v -56 -56 514
v -56 -56 470
v -65 -56 425
v -65 0 417
v -56 56 420
v 0 56 449
v 0 113 443
v 56 113 448
v 113 119 490
v 128 114 490
v 128 0 496
v 113 0 512
v 113 -56 518
v 107 -102 512
v 62 -113 500
v 60 -113 468
v 67 -56 422
v 56 -56 366
v 0 -56 357
v -56 -56 313
v 113 56 519
v 56 56 519
v 56 0 512
v 56 -56 511
v 56 -56 467
v 56 0 417
v 56 0 366
v 0 0 364
v -56 0 366
v -56 -56 369
v -56 -113 368
v -60 -104 423
v -112 -118 492
v -107 -103 510
v -63 -113 505
v 113 113 506
v 56 113 506
v -56 -113 468
v 0 0 408
v 0 56 405
v 60 56 468
v 56 56 417
v 60 0 468
v 61 50 508
v -54 50 511
v 57 50 401
v 65 0 443
v -72 0 442
v 67 0 360
v 79 -56 430
v -70 -56 436
v 72 -56 291
v -105 -115 515
v 125 -107 523
v -112 120 495
v 58 -98 497
v 55 54 493
v 58 -101 374
v -66 -178 285
v 276 -178 195
v -71 293 323
v -55 31 469
v 59 31 461
v -57 136 449
v -59 -99 414
v 61 -99 413
v -62 67 414
v -67 -83 361
v 67 -83 360
v -67 3 366
v -53 -150 313
v 35 -150 311
v -53 -52 306
v -58 -113 305
v -58 52 296
v -56 -98 579
v 104 102 248
v 88 -273 250
v -37 115 133
v 323 195 149
v -45 241 333
v 280 -128 172

f 1 2 3
f 1 3 4
f 1 4 5
f 1 5 6
f 1 6 7
f 1 7 2
f 2 7 8
f 8 7 9
f 8 9 10
f 8 10 11
f 8 11 12
f 12 11 13
f 12 13 14
f 14 13 15
f 14 15 16
f 16 15 17
f 16 17 18
f 18 17 19
f 18 19 20
f 18 20 21
f 21 20 22
f 21 22 23
f 21 23 24
f 21 24 25
f 25 24 26
f 26 24 27
f 26 27 2
f 2 27 3
f 3 27 28
f 3 28 4
f 4 28 29
f 4 29 30
f 4 30 5
f 5 30 31
f 5 31 32
f 5 32 6
f 6 32 33
f 6 33 34
f 6 34 35
f 6 35 36
f 6 36 9
f 6 9 7
f 10 36 37
f 10 37 38
f 10 38 11
f 11 38 13
f 13 38 39
f 13 39 15
f 15 39 40
f 15 40 17
f 17 40 41
f 17 41 42
f 17 42 43
f 17 43 19
f 19 43 20
f 20 43 44
f 20 44 45
f 20 45 22
f 22 45 46
f 22 46 47
f 22 47 48
f 22 48 28
f 22 28 23
f 23 28 24
f 24 28 27
f 49 35 50
f 49 50 51
f 49 51 52
f 49 52 35
f 35 52 53
f 35 53 36
f 36 53 37
f 37 53 54
f 37 54 38
f 38 54 55
f 38 55 40
f 38 40 39
f 56 40 57
f 56 57 51
f 51 57 58
f 51 58 52
f 52 58 53
f 53 58 57
f 53 57 55
f 53 55 54
f 28 48 29
f 29 48 47
f 29 47 59
f 29 59 60
f 29 60 30
f 30 60 61
f 30 61 50
f 30 50 62
f 30 62 34
f 30 34 33
f 30 33 31
f 31 33 32
f 40 55 57
f 35 62 50
f 62 35 34
f 9 36 10
f 60 59 63
f 60 63 61
f 61 63 50
f 50 63 64
f 50 64 51
f 65 46 45
f 46 65 47
f 63 59 47
f 56 41 40
f 41 56 42
f 66 67 68
f 66 68 69
f 66 69 70
f 66 70 71
f 66 71 72
f 66 72 67
f 67 72 73
f 73 72 74
f 73 74 75
f 73 75 76
f 73 76 77
f 77 76 78
f 77 78 79
f 77 79 80
f 80 79 81
f 80 81 82
f 80 82 83
f 80 83 67
f 67 83 68
f 68 83 84
f 68 84 69
f 69 84 85
f 69 85 86
f 69 86 70
f 70 86 87
f 70 87 88
f 70 88 71
f 71 88 89
f 71 89 90
f 71 90 91
f 71 91 72
f 72 91 92
f 72 92 74
f 74 92 93
f 74 93 75
f 75 93 94
f 75 94 95
f 75 95 76
f 76 95 78
f 78 95 96
f 78 96 79
f 79 96 97
f 79 97 98
f 79 98 81
f 81 98 82
f 82 98 99
f 82 99 84
f 82 84 83
f 100 101 102
f 100 102 103
f 100 103 104
f 100 104 105
f 100 105 101
f 101 105 106
f 101 106 102
f 102 106 107
f 102 107 108
f 102 108 109
f 102 109 103
f 103 109 110
f 103 110 104
f 104 110 97
f 104 97 96
f 104 96 105
f 105 96 95
f 105 95 111
f 105 111 106
f 106 111 112
f 106 112 113
f 106 113 114
f 106 114 107
f 107 114 115
f 107 115 108
f 108 115 116
f 108 116 117
f 108 117 109
f 109 117 118
f 109 118 119
f 109 119 110
f 110 119 120
f 110 120 97
f 97 120 98
f 98 120 121
f 98 121 122
f 98 122 123
f 98 123 99
f 99 123 84
f 84 123 124
f 84 124 85
f 85 124 125
f 85 125 126
f 85 126 127
f 85 127 86
f 86 127 128
f 86 128 129
f 86 129 87
f 87 129 130
f 87 130 131
f 87 131 88
f 88 131 89
f 89 131 90
f 90 131 132
f 90 132 133
f 90 133 92
f 90 92 91
f 123 125 124
f 125 123 134
f 125 134 135
f 125 135 136
f 125 136 137
f 125 137 126
f 126 137 127
f 127 137 128
f 128 137 138
f 128 138 129
f 129 138 130
f 130 138 139
f 130 139 140
f 130 140 131
f 131 140 132
f 132 140 141
f 132 141 142
f 132 142 143
f 132 143 133
f 133 143 92
f 92 143 144
f 92 144 93
f 93 144 145
f 93 145 146
f 93 146 112
f 93 112 94
f 94 112 95
f 95 112 111
f 147 113 112
f 147 112 146
f 147 146 148
f 147 148 114
f 147 114 113
f 149 134 123
f 149 123 122
f 149 122 150
f 149 150 135
f 149 135 134
f 146 151 148
f 148 151 114
f 114 151 115
f 115 151 145
f 115 145 116
f 116 145 144
f 116 144 143
f 116 143 117
f 117 143 142
f 117 142 152
f 117 152 153
f 117 153 118
f 118 153 119
f 119 153 154
f 119 154 121
f 119 121 120
f 146 145 151
f 154 153 155
f 154 155 156
f 154 156 136
f 154 136 135
f 154 135 121
f 121 135 150
f 121 150 122
f 139 155 153
f 139 153 152
f 139 152 141
f 139 141 140
f 152 142 141
f 156 155 139
f 156 139 138
f 156 138 137
f 156 137 136
f 157 158 159
f 160 161 162
f 163 164 165
f 166 167 168
f 169 170 171
f 172 173 174
