# RS2 Model 10817
# Vertices: 57
# Faces: 63

v 56 -110 -2
v -57 -110 -2
v 51 -31 -91
v -33 -56 -125
v -33 35 -125
v 129 -45 15
v -84 110 -3
v 82 109 -4
v -93 -31 -127
v 113 -112 256
v 113 -128 241
v 128 -112 242
v 112 -11 257
v 0 -105 262
v 0 -121 247
v 0 -118 187
v 113 -128 15
v 128 -112 14
v 127 -11 231
v 128 112 242
v 113 112 256
v 17 31 270
v 0 21 259
v -113 -106 256
v -113 -122 241
v -113 -128 15
v 0 -121 15
v 113 -112 0
v 113 112 0
v 128 112 14
v 113 128 15
v 113 128 241
v 0 112 256
v -113 112 244
v -128 112 230
v -128 -112 242
v -128 -112 14
v -113 -112 0
v -113 128 229
v -128 112 14
v -113 128 15
v -113 112 0
v -42 -182 0
v -177 -37 -8
v 19 -129 -106
v 174 -130 80
v 106 -71 -48
v 276 -21 67
v 98 41 -84
v 38 106 -80
v 151 87 14
v -226 143 144
v -156 218 149
v -143 71 -11
v -106 -92 -5
v -106 94 -5
v 28 -84 -128

f 1 2 3
f 4 5 6
f 7 8 9
f 10 11 12
f 10 12 13
f 10 13 14
f 10 14 15
f 10 15 11
f 11 15 16
f 11 16 17
f 11 17 18
f 11 18 12
f 12 18 19
f 12 19 13
f 13 19 20
f 13 20 21
f 13 21 22
f 13 22 23
f 13 23 14
f 14 23 24
f 14 24 15
f 15 24 25
f 15 25 16
f 16 25 26
f 16 26 27
f 16 27 17
f 17 27 28
f 17 28 18
f 18 28 29
f 18 29 30
f 18 30 19
f 19 30 20
f 20 30 31
f 20 31 32
f 20 32 21
f 21 32 33
f 21 33 22
f 22 33 23
f 23 33 34
f 23 34 24
f 24 34 35
f 24 35 36
f 24 36 25
f 25 36 26
f 26 36 37
f 26 37 38
f 26 38 27
f 27 38 28
f 34 39 35
f 35 39 40
f 35 40 37
f 35 37 36
f 39 34 33
f 39 33 32
f 39 32 31
f 39 31 41
f 39 41 40
f 40 41 42
f 40 42 38
f 40 38 37
f 30 29 31
f 31 29 42
f 31 42 41
