# RS2 Model 10833
# Vertices: 92
# Faces: 168

v -27 -7 129
v -28 -8 123
v -21 1 125
v -19 1 136
v -26 -8 137
v -33 1 138
v -34 1 129
v -36 1 120
v -38 0 109
v -30 -10 109
v -22 0 109
v -22 1 119
v -27 10 125
v -26 9 130
v -25 9 137
v -18 2 142
v -25 -9 146
v -31 1 149
v -24 10 146
v -28 12 119
v -29 15 110
v -41 0 93
v -31 -8 95
v -21 0 95
v -28 0 99
v -25 0 89
v -32 -7 91
v -32 -4 100
v -36 1 98
v -38 1 88
v -32 5 99
v -35 16 83
v -28 16 83
v -21 0 80
v -23 28 68
v -26 18 89
v -32 -10 82
v -40 1 78
v -37 28 68
v -22 -8 153
v -27 2 157
v -22 10 154
v -19 2 160
v -17 -9 153
v -19 10 155
v -33 18 89
v 27 -7 129
v 21 1 125
v 28 -8 123
v 34 1 129
v 33 1 138
v 26 -8 137
v 19 1 136
v 26 9 130
v 27 10 125
v 22 1 119
v 22 0 109
v 30 -10 109
v 38 0 109
v 36 1 120
v 25 9 137
v 24 10 146
v 31 1 149
v 25 -9 146
v 18 2 142
v 29 15 110
v 28 12 119
v 21 0 95
v 31 -8 95
v 41 0 93
v 28 0 99
v 32 -4 100
v 32 -7 91
v 24 0 89
v 32 5 99
v 27 16 83
v 34 16 83
v 38 1 88
v 36 1 98
v 21 0 80
v 23 28 68
v 32 -10 82
v 26 18 89
v 33 18 89
v 37 28 68
v 22 -8 153
v 17 -9 153
v 19 2 160
v 27 2 157
v 22 10 154
v 19 10 155
v 40 1 78

f 1 2 3
f 1 3 4
f 1 4 5
f 1 5 6
f 1 6 7
f 1 7 2
f 2 7 8
f 2 8 9
f 2 9 10
f 2 10 11
f 2 11 12
f 2 12 3
f 3 12 13
f 3 13 14
f 3 14 4
f 4 14 15
f 4 15 16
f 4 16 5
f 5 16 17
f 5 17 6
f 6 17 18
f 6 18 19
f 6 19 15
f 6 15 7
f 7 15 14
f 7 14 13
f 7 13 8
f 8 13 20
f 8 20 21
f 8 21 9
f 9 21 22
f 9 22 23
f 9 23 10
f 10 23 11
f 11 23 24
f 11 24 21
f 11 21 20
f 11 20 12
f 12 20 13
f 25 26 27
f 25 27 28
f 28 27 29
f 29 27 30
f 29 30 31
f 31 30 32
f 31 32 33
f 31 33 26
f 31 26 25
f 34 26 33
f 34 33 35
f 34 35 36
f 34 36 24
f 34 24 37
f 34 37 26
f 26 37 27
f 27 37 30
f 30 37 38
f 30 38 32
f 32 38 39
f 32 39 35
f 32 35 33
f 16 40 17
f 17 40 18
f 18 40 41
f 18 41 19
f 19 41 42
f 19 42 16
f 19 16 15
f 43 40 44
f 44 40 16
f 43 45 42
f 43 42 41
f 43 41 40
f 42 45 16
f 24 23 37
f 37 23 22
f 37 22 38
f 38 22 46
f 38 46 39
f 39 46 35
f 35 46 36
f 36 46 21
f 36 21 24
f 22 21 46
f 47 48 49
f 47 49 50
f 47 50 51
f 47 51 52
f 47 52 53
f 47 53 48
f 48 53 54
f 48 54 55
f 48 55 56
f 48 56 49
f 49 56 57
f 49 57 58
f 49 58 59
f 49 59 60
f 49 60 50
f 50 60 55
f 50 55 54
f 50 54 61
f 50 61 51
f 51 61 62
f 51 62 63
f 51 63 64
f 51 64 52
f 52 64 65
f 52 65 53
f 53 65 61
f 53 61 54
f 60 66 67
f 60 67 55
f 55 67 56
f 56 67 57
f 57 67 66
f 57 66 68
f 57 68 69
f 57 69 58
f 58 69 59
f 59 69 70
f 59 70 66
f 59 66 60
f 71 72 73
f 71 73 74
f 71 74 75
f 75 74 76
f 75 76 77
f 75 77 78
f 75 78 79
f 79 78 73
f 79 73 72
f 80 81 76
f 80 76 74
f 80 74 82
f 80 82 68
f 80 68 83
f 80 83 81
f 81 83 84
f 81 84 85
f 81 85 77
f 81 77 76
f 65 64 86
f 65 86 87
f 87 86 88
f 88 86 89
f 88 89 90
f 88 90 91
f 91 90 65
f 65 90 62
f 65 62 61
f 63 86 64
f 86 63 89
f 89 63 62
f 89 62 90
f 68 82 69
f 69 82 70
f 70 82 92
f 70 92 84
f 70 84 66
f 66 84 83
f 66 83 68
f 92 85 84
f 85 92 77
f 77 92 78
f 78 92 82
f 78 82 73
f 73 82 74
