# RS2 Model 10890
# Vertices: 275
# Faces: 311

v 21 35 0
v 28 45 0
v 22 44 6
v 11 32 0
v 2 43 0
v 11 53 6
v 9 64 6
v -1 64 0
v 31 50 7
v 20 64 6
v 41 49 0
v 33 64 8
v 46 64 0
v 45 57 0
v 53 56 0
v 54 58 1
v 47 60 1
v 49 64 1
v 45 64 0
v 62 56 0
v 60 59 1
v 54 64 2
v 64 64 0
v 61 64 1
v 18 -19 0
v 7 -17 0
v 7 -20 1
v 15 -22 1
v 14 -29 1
v 19 -30 0
v 5 -38 0
v 6 -34 1
v -5 -27 1
v -9 -29 0
v -3 -21 1
v -6 -18 0
v 2 -26 5
v 30 0 0
v 33 5 0
v 31 6 1
v 29 2 1
v 23 1 1
v 22 0 0
v 17 7 0
v 18 6 1
v 25 12 1
v 25 15 0
v 31 10 1
v 35 10 0
v 26 8 5
v 45 45 0
v 42 40 0
v 45 37 3
v 47 41 3
v 51 39 3
v 53 42 0
v 57 30 0
v 52 32 3
v 48 30 3
v 47 27 0
v 45 33 3
v 41 33 0
v 48 35 5
v -21 55 0
v -10 55 0
v -11 56 5
v -19 57 5
v -19 64 3
v -24 64 0
v -1 58 0
v -3 61 3
v -10 64 7
v 0 64 0
v -3 64 3
v -43 64 6
v -49 52 3
v -35 55 3
v -31 64 3
v -29 53 0
v -51 49 0
v -60 64 3
v -64 64 0
v -39 18 4
v -45 20 7
v -40 6 4
v -34 3 1
v -29 19 1
v -38 37 1
v -42 32 4
v -50 34 4
v -56 20 4
v -47 8 4
v -46 3 1
v -59 22 1
v -50 40 1
v -13 29 2
v 2 27 2
v 2 29 0
v -14 31 0
v -22 24 1
v -17 16 4
v -10 23 4
v -1 22 4
v 11 16 0
v -24 19 0
v -18 12 0
v -24 26 0
v -15 9 5
v -7 14 4
v -1 12 4
v 4 14 4
v 2 11 4
v 5 9 0
v -4 8 5
v 5 -1 0
v -5 3 5
v -7 -5 0
v -12 5 6
v -17 2 0
v -15 5 5
v -12 8 6
v -43 -19 1
v -39 -29 1
v -39 -29 6
v -41 -22 6
v -35 -19 4
v -36 -13 1
v -23 -18 1
v -29 -22 4
v -27 -33 4
v -23 -33 1
v -31 -35 4
v -32 -36 1
v -32 -27 8
v -31 47 0
v -32 44 0
v -31 43 1
v -29 46 1
v -27 46 1
v -26 47 0
v -23 43 0
v -24 43 1
v -28 40 1
v -28 38 0
v -31 41 1
v -33 41 0
v -28 43 5
v 11 -5 0
v 10 -8 0
v 11 -9 1
v 12 -6 1
v 15 -6 1
v 16 -5 0
v 19 -10 0
v 19 -10 1
v 14 -12 1
v 14 -15 0
v 11 -11 1
v 8 -11 0
v 14 -10 5
v 50 10 0
v 49 7 0
v 50 6 3
v 51 9 3
v 54 9 1
v 55 10 0
v 58 5 0
v 57 5 1
v 53 3 1
v 53 1 0
v 50 4 3
v 48 4 0
v 53 5 5
v 38 -34 1
v 34 -35 1
v 34 -36 2
v 37 -35 2
v 37 -38 2
v 40 -39 1
v 36 -44 1
v 37 -42 2
v 33 -38 2
v 30 -41 1
v 33 -36 2
v 31 -34 1
v 35 -38 6
v -32 1 0
v -33 -2 0
v -32 -3 3
v -31 0 3
v -28 0 1
v -27 1 0
v -24 -4 0
v -25 -4 1
v -29 -6 1
v -29 -8 0
v -32 -5 3
v -34 -5 0
v -29 -4 5
v -16 -47 0
v -16 -45 0
v -16 -44 1
v -17 -46 1
v -19 -46 1
v -20 -46 0
v -22 -44 0
v -21 -44 1
v -19 -41 1
v -19 -40 0
v -16 -42 1
v -14 -42 0
v -19 -43 2
v 17 -51 0
v 17 -48 0
v 17 -48 1
v 16 -50 1
v 14 -50 1
v 13 -50 0
v 12 -47 0
v 12 -47 1
v 15 -45 1
v 15 -44 0
v 17 -46 1
v 18 -46 0
v 15 -47 2
v -28 -11 5
v -46 -18 3
v -19 -32 3
v -9 -15 0
v -7 -36 1
v 18 -14 0
v 32 -31 0
v 28 -39 2
v 41 -35 0
v -42 43 4
v -64 32 2
v -23 8 3
v -6 38 2
v -31 21 1
v 15 7 3
v 54 0 1
v 58 7 1
v 46 4 0
v 66 69 1
v 40 69 0
v 66 50 0
v 1 65 5
v -22 66 3
v 1 51 0
v -27 -9 2
v -23 -1 2
v -35 -4 0
v -19 -39 1
v -22 -45 0
v -13 -42 0
v 11 -50 1
v 13 -43 0
v 20 -8 1
v 13 -2 0
v 12 -15 1
v -34 42 0
v -28 37 1
v -28 49 0
v 37 7 0
v 27 17 1
v 25 -4 0
v 43 24 1
v 57 29 2
v 38 41 0
v -60 44 1
v -23 46 2
v -60 69 1
v 43 66 1
v -2 65 5
v 43 35 0

f 1 2 3
f 1 3 4
f 4 3 5
f 5 3 6
f 5 6 7
f 5 7 8
f 2 9 3
f 3 9 10
f 3 10 6
f 6 10 7
f 11 9 2
f 9 11 12
f 9 12 10
f 11 13 12
f 14 15 16
f 14 16 17
f 14 17 18
f 14 18 19
f 16 15 20
f 16 20 21
f 16 21 22
f 16 22 17
f 17 22 18
f 21 20 23
f 21 23 24
f 21 24 22
f 25 26 27
f 25 27 28
f 25 28 29
f 25 29 30
f 30 29 31
f 31 29 32
f 31 32 33
f 31 33 34
f 34 33 35
f 34 35 36
f 36 35 27
f 36 27 26
f 37 29 28
f 37 28 27
f 37 27 35
f 37 35 33
f 37 33 32
f 37 32 29
f 38 39 40
f 38 40 41
f 38 41 42
f 38 42 43
f 43 42 44
f 44 42 45
f 44 45 46
f 44 46 47
f 47 46 48
f 47 48 49
f 49 48 40
f 49 40 39
f 50 42 41
f 50 41 40
f 50 40 48
f 50 48 46
f 50 46 45
f 50 45 42
f 51 52 53
f 51 53 54
f 51 54 55
f 51 55 56
f 56 55 57
f 57 55 58
f 57 58 59
f 57 59 60
f 60 59 61
f 60 61 62
f 62 61 53
f 62 53 52
f 63 55 54
f 63 54 53
f 63 53 61
f 63 61 59
f 63 59 58
f 63 58 55
f 64 65 66
f 64 66 67
f 64 67 68
f 64 68 69
f 66 65 70
f 66 70 71
f 66 71 72
f 66 72 67
f 67 72 68
f 71 70 73
f 71 73 74
f 71 74 72
f 75 76 77
f 75 77 78
f 78 77 69
f 69 77 79
f 79 77 80
f 80 77 76
f 80 76 81
f 80 81 82
f 75 81 76
f 83 84 85
f 83 85 86
f 83 86 87
f 83 87 88
f 83 88 89
f 83 89 84
f 84 89 90
f 84 90 91
f 84 91 92
f 84 92 85
f 85 92 86
f 86 92 93
f 93 92 94
f 94 92 91
f 94 91 90
f 94 90 95
f 95 90 89
f 95 89 88
f 96 97 98
f 96 98 99
f 96 99 100
f 96 100 101
f 96 101 102
f 96 102 103
f 96 103 97
f 97 103 104
f 97 104 98
f 105 106 101
f 105 101 100
f 105 100 107
f 107 100 99
f 106 108 101
f 101 108 109
f 101 109 102
f 102 109 103
f 103 109 110
f 103 110 111
f 103 111 104
f 104 111 112
f 104 112 113
f 113 112 114
f 113 114 115
f 115 114 116
f 115 116 117
f 117 116 118
f 117 118 119
f 119 118 120
f 119 120 106
f 106 120 108
f 108 120 121
f 108 121 109
f 109 121 110
f 110 121 114
f 110 114 112
f 110 112 111
f 114 121 118
f 114 118 116
f 121 120 118
f 122 123 124
f 122 124 125
f 122 125 126
f 122 126 127
f 127 126 128
f 128 126 129
f 128 129 130
f 128 130 131
f 131 130 132
f 131 132 133
f 133 132 124
f 133 124 123
f 134 126 125
f 134 125 124
f 134 124 132
f 134 132 130
f 134 130 129
f 134 129 126
f 135 136 137
f 135 137 138
f 135 138 139
f 135 139 140
f 140 139 141
f 141 139 142
f 141 142 143
f 141 143 144
f 144 143 145
f 144 145 146
f 146 145 137
f 146 137 136
f 147 139 138
f 147 138 137
f 147 137 145
f 147 145 143
f 147 143 142
f 147 142 139
f 148 149 150
f 148 150 151
f 148 151 152
f 148 152 153
f 153 152 154
f 154 152 155
f 154 155 156
f 154 156 157
f 157 156 158
f 157 158 159
f 159 158 150
f 159 150 149
f 160 152 151
f 160 151 150
f 160 150 158
f 160 158 156
f 160 156 155
f 160 155 152
f 161 162 163
f 161 163 164
f 161 164 165
f 161 165 166
f 166 165 167
f 167 165 168
f 167 168 169
f 167 169 170
f 170 169 171
f 170 171 172
f 172 171 163
f 172 163 162
f 173 165 164
f 173 164 163
f 173 163 171
f 173 171 169
f 173 169 168
f 173 168 165
f 174 175 176
f 174 176 177
f 174 177 178
f 174 178 179
f 179 178 180
f 180 178 181
f 180 181 182
f 180 182 183
f 183 182 184
f 183 184 185
f 185 184 176
f 185 176 175
f 186 178 177
f 186 177 176
f 186 176 184
f 186 184 182
f 186 182 181
f 186 181 178
f 187 188 189
f 187 189 190
f 187 190 191
f 187 191 192
f 192 191 193
f 193 191 194
f 193 194 195
f 193 195 196
f 196 195 197
f 196 197 198
f 198 197 189
f 198 189 188
f 199 191 190
f 199 190 189
f 199 189 197
f 199 197 195
f 199 195 194
f 199 194 191
f 200 201 202
f 200 202 203
f 200 203 204
f 200 204 205
f 205 204 206
f 206 204 207
f 206 207 208
f 206 208 209
f 209 208 210
f 209 210 211
f 211 210 202
f 211 202 201
f 212 204 203
f 212 203 202
f 212 202 210
f 212 210 208
f 212 208 207
f 212 207 204
f 213 214 215
f 213 215 216
f 213 216 217
f 213 217 218
f 218 217 219
f 219 217 220
f 219 220 221
f 219 221 222
f 222 221 223
f 222 223 224
f 224 223 215
f 224 215 214
f 225 217 216
f 225 216 215
f 225 215 223
f 225 223 221
f 225 221 220
f 225 220 217
f 226 227 228
f 229 230 231
f 232 233 234
f 235 236 237
f 238 239 240
f 241 242 243
f 244 245 246
f 247 248 249
