# RS2 Model 10902
# Vertices: 89
# Faces: 171

v 11 14 411
v -11 14 411
v -10 10 411
v 10 10 411
v 17 -4 417
v 17 -2 405
v 17 -1 403
v 13 2 395
v 7 10 393
v -7 10 393
v -13 2 395
v -17 -1 403
v -17 -2 405
v -17 -4 417
v -13 -4 417
v -6 -1 423
v 0 7 417
v 6 -1 423
v 13 -4 417
v 9 -14 415
v 14 -13 415
v 17 -10 407
v 17 -6 404
v 13 -6 404
v 13 -2 405
v 13 -1 403
v 10 2 395
v 6 7 393
v -6 7 393
v -10 2 395
v -13 -1 403
v -13 -2 405
v -17 -6 404
v -17 -10 407
v -14 -13 415
v -9 -14 415
v 0 -16 417
v 13 -10 407
v 10 -17 407
v 7 -17 405
v 10 -14 401
v 13 -8 402
v 13 -6 402
v 14 -6 404
v 14 -2 405
v 14 -1 403
v 13 -5 399
v 3 -7 388
v 9 10 383
v -9 10 383
v -3 -7 388
v -13 -5 399
v -14 -1 403
v -14 -2 405
v -14 -6 404
v -13 -6 404
v -13 -10 407
v -10 -17 407
v -3 -20 411
v 0 -17 415
v 5 -17 404
v 1 -17 405
v 5 -17 403
v 2 -17 399
v 7 -12 392
v 13 -7 400
v 3 -17 407
v 3 -17 409
v 0 -18 409
v 0 -20 404
v 0 -21 400
v -1 -17 405
v -7 -17 405
v -5 -17 404
v -5 -17 403
v -2 -17 399
v -3 -17 409
v -3 -17 407
v -10 -14 401
v 3 -20 411
v -13 -8 402
v -13 -6 402
v -13 -7 400
v -7 -12 392
v 0 -16 388
v -2 -17 395
v -9 -6 381
v 9 -6 381
v 2 -17 395

f 1 2 3
f 1 3 4
f 1 4 5
f 1 5 6
f 1 6 7
f 1 7 8
f 1 8 9
f 1 9 2
f 2 9 10
f 2 10 11
f 2 11 12
f 2 12 13
f 2 13 14
f 2 14 3
f 3 14 15
f 3 15 16
f 3 16 17
f 3 17 4
f 4 17 18
f 4 18 19
f 4 19 5
f 5 19 20
f 5 20 21
f 5 21 22
f 5 22 23
f 5 23 6
f 6 23 24
f 6 24 25
f 6 25 7
f 7 25 26
f 7 26 27
f 7 27 8
f 8 27 28
f 8 28 9
f 9 28 29
f 9 29 10
f 10 29 11
f 11 29 30
f 11 30 31
f 11 31 12
f 12 31 13
f 13 31 32
f 13 32 33
f 13 33 14
f 14 33 34
f 14 34 35
f 14 35 36
f 14 36 15
f 15 36 16
f 16 36 37
f 16 37 18
f 16 18 17
f 38 24 23
f 38 23 22
f 38 22 20
f 38 20 39
f 38 39 40
f 38 40 41
f 38 41 42
f 38 42 24
f 24 42 43
f 24 43 44
f 24 44 25
f 25 44 45
f 25 45 26
f 26 45 46
f 26 46 47
f 26 47 27
f 27 47 48
f 27 48 28
f 28 48 49
f 28 49 50
f 28 50 29
f 29 50 51
f 29 51 30
f 30 51 52
f 30 52 31
f 31 52 53
f 31 53 54
f 31 54 32
f 32 54 55
f 32 55 56
f 32 56 33
f 33 56 34
f 34 56 57
f 34 57 35
f 35 57 36
f 36 57 58
f 36 58 59
f 36 59 60
f 36 60 37
f 37 60 20
f 37 20 18
f 18 20 19
f 20 22 21
f 61 40 62
f 61 62 63
f 61 63 40
f 40 63 41
f 41 63 64
f 41 64 65
f 41 65 42
f 42 65 66
f 42 66 43
f 43 66 46
f 43 46 44
f 44 46 45
f 40 67 62
f 62 67 68
f 62 68 69
f 62 69 70
f 62 70 71
f 62 71 64
f 62 64 63
f 72 73 74
f 72 74 75
f 72 75 76
f 72 76 71
f 72 71 70
f 72 70 69
f 72 69 77
f 72 77 78
f 72 78 73
f 73 78 77
f 73 77 58
f 73 58 57
f 73 57 79
f 73 79 75
f 73 75 74
f 80 39 20
f 80 20 60
f 80 60 69
f 80 69 68
f 80 68 39
f 39 68 40
f 40 68 67
f 60 59 69
f 69 59 77
f 77 59 58
f 81 82 83
f 81 83 84
f 81 84 79
f 81 79 57
f 81 57 56
f 81 56 82
f 82 56 55
f 82 55 53
f 82 53 83
f 83 53 52
f 83 52 51
f 83 51 84
f 84 51 85
f 84 85 86
f 84 86 76
f 84 76 79
f 79 76 75
f 66 47 46
f 47 66 48
f 48 66 65
f 48 65 85
f 48 85 51
f 48 51 87
f 48 87 88
f 48 88 49
f 54 53 55
f 51 50 87
f 89 85 65
f 89 65 64
f 89 64 86
f 89 86 85
f 86 64 76
