# RS2 Model 10979
# Vertices: 88
# Faces: 160

v -32 -7 109
v -32 -7 102
v -24 1 100
v -23 1 109
v -29 -6 121
v -36 2 120
v -39 1 111
v -40 1 99
v -32 -7 98
v -26 0 95
v -32 7 97
v -31 8 101
v -30 10 109
v -29 8 119
v -24 2 119
v -23 1 123
v -29 -7 125
v -36 1 124
v -28 9 123
v -39 1 95
v -32 -4 100
v -28 0 99
v -32 5 99
v -36 1 98
v -21 1 128
v -28 -8 131
v -27 8 126
v -27 9 130
v -20 1 136
v -26 -8 137
v -33 1 138
v -36 1 130
v -26 9 137
v -18 2 142
v -25 -8 146
v -34 1 142
v -25 10 146
v -22 10 154
v -19 10 155
v -19 2 160
v -27 2 157
v -22 -9 153
v -17 -9 153
v -31 1 152
v 32 -7 109
v 23 1 109
v 24 1 100
v 32 -7 102
v 39 1 111
v 36 2 120
v 29 -6 121
v 24 2 119
v 29 8 119
v 30 10 109
v 31 8 101
v 32 7 97
v 26 0 95
v 32 -7 98
v 40 1 99
v 28 9 123
v 36 1 124
v 29 -7 125
v 23 1 123
v 39 1 95
v 32 5 99
v 28 0 99
v 32 -4 100
v 36 1 98
v 21 1 128
v 28 -8 131
v 20 1 136
v 27 9 130
v 27 8 126
v 36 1 130
v 33 1 138
v 26 -8 137
v 18 2 142
v 26 9 137
v 25 -8 146
v 22 -9 153
v 17 -9 153
v 19 2 160
v 27 2 157
v 22 10 154
v 19 10 155
v 25 10 146
v 34 1 142
v 31 1 152

f 1 2 3
f 1 3 4
f 1 4 5
f 1 5 6
f 1 6 7
f 1 7 2
f 2 7 8
f 2 8 9
f 2 9 3
f 3 9 10
f 3 10 11
f 3 11 12
f 3 12 4
f 4 12 13
f 4 13 14
f 4 14 15
f 4 15 5
f 5 15 16
f 5 16 17
f 5 17 18
f 5 18 6
f 6 18 19
f 6 19 14
f 6 14 13
f 6 13 7
f 7 13 12
f 7 12 8
f 8 12 11
f 8 11 20
f 8 20 9
f 9 20 21
f 9 21 10
f 10 21 22
f 10 22 23
f 10 23 11
f 11 23 20
f 20 23 24
f 20 24 21
f 25 26 17
f 25 17 16
f 25 16 27
f 25 27 28
f 25 28 29
f 25 29 26
f 26 29 30
f 26 30 31
f 26 31 32
f 26 32 17
f 17 32 18
f 18 32 27
f 18 27 19
f 19 27 16
f 19 16 15
f 19 15 14
f 32 28 27
f 28 32 31
f 28 31 33
f 28 33 29
f 29 33 34
f 29 34 30
f 30 34 35
f 30 35 36
f 30 36 31
f 31 36 33
f 33 36 37
f 33 37 34
f 34 37 38
f 34 38 39
f 39 38 40
f 40 38 41
f 40 41 42
f 40 42 43
f 43 42 34
f 34 42 35
f 35 42 44
f 35 44 36
f 36 44 37
f 37 44 41
f 37 41 38
f 42 41 44
f 45 46 47
f 45 47 48
f 45 48 49
f 45 49 50
f 45 50 51
f 45 51 46
f 46 51 52
f 46 52 53
f 46 53 54
f 46 54 55
f 46 55 47
f 47 55 56
f 47 56 57
f 47 57 58
f 47 58 48
f 48 58 59
f 48 59 49
f 49 59 55
f 49 55 54
f 49 54 50
f 50 54 53
f 50 53 60
f 50 60 61
f 50 61 51
f 51 61 62
f 51 62 63
f 51 63 52
f 52 63 60
f 52 60 53
f 56 55 59
f 56 59 64
f 56 64 65
f 56 65 57
f 57 65 66
f 57 66 67
f 57 67 58
f 58 67 64
f 58 64 59
f 64 67 68
f 64 68 65
f 69 63 62
f 69 62 70
f 69 70 71
f 69 71 72
f 69 72 73
f 69 73 63
f 63 73 60
f 60 73 61
f 61 73 74
f 61 74 62
f 62 74 70
f 70 74 75
f 70 75 76
f 70 76 71
f 71 76 77
f 71 77 78
f 71 78 72
f 72 78 75
f 72 75 74
f 72 74 73
f 77 79 80
f 77 80 81
f 81 80 82
f 82 80 83
f 82 83 84
f 82 84 85
f 85 84 77
f 77 84 86
f 77 86 78
f 78 86 87
f 78 87 75
f 75 87 76
f 76 87 79
f 76 79 77
f 88 80 79
f 88 79 87
f 88 87 86
f 88 86 83
f 88 83 80
f 86 84 83
