# RS2 Model 11028
# Vertices: 40
# Faces: 36

v 1 -66 4
v 1 -66 8
v -3 -66 4
v -1 -66 3
v -4 -66 -1
v -2 -66 -1
v -3 -66 -8
v -1 -66 -5
v 1 -66 -8
v 1 -66 -9
v 5 -66 -8
v 3 -66 -5
v 6 -66 -1
v 4 -66 -1
v 3 -66 3
v 5 -66 4
v 1 66 5
v 1 66 8
v 5 66 5
v 3 66 4
v 6 66 0
v 4 66 0
v 5 66 -6
v 3 66 -4
v 1 66 -6
v 1 66 -8
v -3 66 -6
v -1 66 -4
v -4 66 0
v -2 66 0
v -1 66 4
v -3 66 5
v 64 -64 -64
v -64 -64 64
v 64 -64 64
v -64 -64 -64
v -64 64 64
v 64 64 64
v 64 64 -64
v -64 64 -64

f 1 2 3
f 1 3 4
f 4 3 5
f 4 5 6
f 6 5 7
f 6 7 8
f 8 7 9
f 9 7 10
f 9 10 11
f 9 11 12
f 12 11 13
f 12 13 14
f 14 13 15
f 15 13 16
f 15 16 1
f 1 16 2
f 17 18 19
f 17 19 20
f 20 19 21
f 20 21 22
f 22 21 23
f 22 23 24
f 24 23 25
f 25 23 26
f 25 26 27
f 25 27 28
f 28 27 29
f 28 29 30
f 30 29 31
f 31 29 32
f 31 32 17
f 17 32 18
f 33 34 35
f 34 33 36
f 37 38 39
f 37 39 40
