# RS2 Model 11125
# Vertices: 311
# Faces: 451

v 51 -2 6
v 44 4 7
v 46 -1 10
v 49 -4 15
v 53 -9 13
v 53 -9 5
v 51 -7 1
v 46 -1 1
v 47 5 23
v 45 1 30
v 49 -4 23
v 46 0 16
v 41 7 22
v 41 7 31
v 36 3 31
v 36 3 22
v 37 -4 23
v 41 -3 30
v 45 -8 23
v 42 -4 16
v 43 -5 10
v 45 -8 15
v 48 -12 13
v 49 -13 5
v 47 -11 1
v 39 0 7
v 42 -10 6
v 43 -5 1
v -46 -1 10
v -43 4 7
v -51 -2 6
v -49 -4 15
v -43 -5 10
v -42 -4 16
v -46 0 16
v -47 5 23
v -41 7 22
v -39 0 7
v -36 3 22
v -37 -4 23
v -42 -10 6
v -43 -5 1
v -47 -11 1
v -49 -13 5
v -51 -7 1
v -52 -9 5
v -46 -1 1
v -49 -4 23
v -45 1 30
v -44 -8 23
v -41 -3 30
v -41 7 31
v -52 -9 13
v -44 -8 15
v -48 -12 13
v -36 3 31
v 41 44 17
v 48 44 17
v 48 47 1
v 41 47 1
v 41 32 17
v 41 34 32
v 41 47 32
v 48 47 32
v 48 32 17
v 48 39 1
v 41 39 1
v 48 34 32
v -48 44 17
v -41 44 17
v -41 47 1
v -48 47 1
v -48 32 17
v -48 34 32
v -48 47 32
v -41 47 32
v -41 32 17
v -41 39 1
v -48 39 1
v -41 34 32
v 33 -17 88
v 31 -17 82
v 32 -16 76
v 35 -16 82
v 37 -17 92
v 19 -17 92
v 22 -17 88
v 25 -17 82
v 23 -16 76
v 39 -16 86
v 42 -17 94
v 14 -17 94
v 11 -16 89
v 17 -16 86
v 20 -16 82
v 45 -16 89
v 42 -17 164
v 37 -17 165
v 33 -17 170
v 30 -17 176
v 25 -17 176
v 22 -17 170
v 19 -17 165
v 14 -17 164
v 11 -16 168
v 35 -16 175
v 32 -16 182
v 39 -16 171
v 45 -16 168
v 23 -16 182
v 20 -16 175
v 17 -16 171
v 53 -16 208
v 53 -22 208
v 55 -22 198
v 55 -16 198
v 44 -16 207
v 43 -22 207
v 45 -22 198
v 34 -22 210
v -38 -22 210
v -47 -22 198
v -47 -22 207
v -58 -22 198
v -55 -22 208
v -58 -16 198
v -55 -16 208
v -46 -16 207
v 35 -16 210
v -37 -16 210
v 17 -16 221
v 34 -16 221
v 34 -22 221
v 27 -22 225
v 16 -22 221
v -20 -22 221
v -37 -22 221
v 28 -16 225
v 11 -16 224
v 10 -22 224
v -14 -22 224
v -19 -16 221
v -30 -16 225
v -31 -22 225
v -36 -16 221
v -13 -16 224
v 7 -16 234
v 7 -22 234
v -10 -22 234
v -1 -16 239
v -1 -22 239
v -9 -16 234
v -21 -16 48
v -21 -21 48
v -24 -16 44
v -24 -21 44
v -28 -16 44
v -28 -21 44
v -31 -16 48
v -31 -21 48
v -28 -16 52
v -28 -21 52
v -24 -16 52
v -24 -21 52
v 31 -16 48
v 31 -21 48
v 28 -16 44
v 28 -21 44
v 24 -16 44
v 24 -21 44
v 21 -16 48
v 21 -21 48
v 24 -16 52
v 24 -21 52
v 28 -16 52
v 28 -21 52
v 49 -17 57
v 3 -17 57
v 3 -17 39
v 49 -17 39
v 47 -18 55
v 5 -18 55
v 5 -18 41
v 47 -18 41
v 1 -16 188
v -1 -16 188
v -1 -16 70
v 1 -16 70
v 53 -16 70
v 53 -16 188
v 53 48 70
v 53 48 188
v 59 48 193
v 59 -22 193
v -55 -16 188
v -59 -22 193
v -55 48 188
v -55 48 70
v -55 -16 70
v 56 48 69
v -58 48 69
v -3 -17 57
v -49 -17 57
v -49 -17 39
v -3 -17 39
v -5 -18 55
v -47 -18 55
v -47 -18 41
v -5 -18 41
v 10 -16 123
v 10 -20 123
v 7 -16 120
v 7 -20 120
v 5 -16 120
v 5 -20 120
v 2 -16 123
v 2 -20 123
v 5 -16 127
v 5 -20 127
v 7 -16 127
v 7 -20 127
v -55 -16 65
v -55 45 65
v -55 45 29
v -55 -16 29
v -41 -16 26
v -17 -16 16
v -1 -16 12
v 53 -16 65
v 15 -16 16
v 39 -16 26
v 53 -16 29
v 53 45 65
v 53 45 29
v 39 45 26
v 15 45 16
v -1 45 12
v -17 45 16
v -41 45 26
v -58 -20 69
v 56 -20 69
v -58 48 65
v -58 -20 65
v 56 -20 65
v 56 48 65
v -59 48 193
v -59 48 198
v 59 48 198
v 59 -22 198
v -59 -22 198
v 33 -17 34
v -35 -17 34
v -1 -17 17
v 9 -17 19
v 24 -17 26
v 33 -17 28
v 49 -17 34
v -11 -17 19
v -26 -17 26
v -35 -17 28
v -50 -17 34
v -24 -17 89
v -28 -17 83
v -27 -16 77
v -23 -16 83
v -22 -17 93
v -40 -17 93
v -36 -17 89
v -33 -17 83
v -35 -16 77
v -19 -16 87
v -16 -17 95
v -45 -17 95
v -47 -16 90
v -41 -16 87
v -38 -16 83
v -13 -16 90
v -16 -17 165
v -22 -17 166
v -24 -17 171
v -28 -17 177
v -33 -17 177
v -36 -17 171
v -40 -17 166
v -45 -17 165
v -47 -16 169
v -23 -16 176
v -27 -16 183
v -19 -16 172
v -13 -16 169
v -35 -16 183
v -38 -16 176
v -41 -16 172
v -2 -16 188
v -2 -16 70
v -2 -10 70
v -2 -10 188
v -55 -10 188
v -55 -10 70
v -4 -16 123
v -4 -20 123
v -7 -16 120
v -7 -20 120
v -9 -16 120
v -9 -20 120
v -12 -16 123
v -12 -20 123
v -9 -16 127
v -9 -20 127
v -7 -16 127
v -7 -20 127

f 1 2 3
f 1 3 4
f 1 4 5
f 1 5 6
f 1 6 7
f 1 7 8
f 1 8 2
f 9 10 11
f 9 11 12
f 9 12 2
f 9 2 13
f 9 13 10
f 10 13 14
f 14 13 15
f 15 13 16
f 15 16 17
f 15 17 18
f 18 17 19
f 18 19 10
f 10 19 11
f 11 19 20
f 11 20 12
f 12 20 21
f 12 21 3
f 12 3 2
f 3 21 22
f 3 22 4
f 4 22 23
f 4 23 5
f 5 23 24
f 5 24 6
f 6 24 25
f 6 25 7
f 16 13 2
f 16 2 26
f 16 26 17
f 17 26 20
f 17 20 19
f 21 26 27
f 21 27 22
f 22 27 23
f 23 27 24
f 24 27 25
f 25 27 28
f 28 27 26
f 26 21 20
f 29 30 31
f 29 31 32
f 29 32 33
f 29 33 34
f 29 34 35
f 29 35 30
f 30 35 36
f 30 36 37
f 30 37 38
f 38 37 39
f 38 39 40
f 38 40 34
f 38 34 33
f 38 33 41
f 38 41 42
f 42 41 43
f 43 41 44
f 43 44 45
f 45 44 46
f 45 46 31
f 45 31 47
f 47 31 30
f 48 49 36
f 48 36 35
f 48 35 50
f 48 50 51
f 48 51 49
f 52 37 36
f 52 36 49
f 31 53 32
f 32 53 54
f 32 54 33
f 33 54 41
f 41 54 55
f 41 55 44
f 44 55 46
f 46 55 53
f 46 53 31
f 53 55 54
f 35 34 50
f 50 34 40
f 50 40 51
f 51 40 39
f 51 39 56
f 56 39 52
f 52 39 37
f 57 58 59
f 57 59 60
f 57 60 61
f 57 61 62
f 57 62 63
f 57 63 58
f 58 63 64
f 58 64 65
f 58 65 66
f 58 66 59
f 65 61 67
f 65 67 66
f 61 60 67
f 61 65 68
f 61 68 62
f 65 64 68
f 69 70 71
f 69 71 72
f 69 72 73
f 69 73 74
f 69 74 75
f 69 75 70
f 70 75 76
f 70 76 77
f 70 77 78
f 70 78 71
f 77 73 79
f 77 79 78
f 73 72 79
f 73 77 80
f 73 80 74
f 77 76 80
f 81 82 83
f 81 83 84
f 81 84 85
f 81 85 86
f 81 86 87
f 81 87 82
f 82 87 88
f 82 88 89
f 82 89 83
f 84 90 85
f 85 90 91
f 85 91 92
f 85 92 86
f 86 92 93
f 86 93 94
f 86 94 87
f 87 94 95
f 87 95 88
f 88 95 89
f 90 96 91
f 91 96 97
f 91 97 92
f 92 97 98
f 92 98 99
f 92 99 100
f 92 100 101
f 92 101 102
f 92 102 103
f 92 103 104
f 92 104 105
f 92 105 93
f 106 107 100
f 106 100 99
f 106 99 108
f 108 99 98
f 108 98 109
f 109 98 97
f 109 97 96
f 102 101 110
f 102 110 111
f 102 111 103
f 103 111 112
f 103 112 104
f 104 112 105
f 101 100 107
f 101 107 110
f 113 114 115
f 113 115 116
f 113 116 117
f 113 117 114
f 114 117 118
f 114 118 115
f 115 118 119
f 119 118 120
f 119 120 121
f 119 121 122
f 122 121 123
f 122 123 124
f 124 123 125
f 124 125 126
f 126 125 127
f 126 127 128
f 126 128 117
f 126 117 116
f 129 120 118
f 129 118 117
f 129 117 128
f 129 128 130
f 129 130 131
f 129 131 132
f 129 132 120
f 120 132 133
f 120 133 134
f 120 134 135
f 120 135 136
f 120 136 121
f 121 136 137
f 121 137 130
f 121 130 128
f 121 128 123
f 123 128 127
f 123 127 125
f 138 134 133
f 138 133 132
f 138 132 131
f 138 131 134
f 134 131 135
f 135 131 139
f 135 139 140
f 135 140 141
f 135 141 136
f 136 141 142
f 136 142 143
f 136 143 144
f 136 144 137
f 137 144 145
f 137 145 130
f 130 145 143
f 130 143 142
f 130 142 131
f 131 142 139
f 139 142 146
f 139 146 147
f 139 147 140
f 140 147 148
f 140 148 149
f 140 149 141
f 141 149 146
f 141 146 142
f 150 151 148
f 150 148 147
f 150 147 152
f 150 152 151
f 151 152 149
f 151 149 148
f 145 144 143
f 146 149 152
f 146 152 147
f 153 154 155
f 155 154 156
f 155 156 157
f 157 156 158
f 157 158 159
f 159 158 160
f 159 160 161
f 161 160 162
f 161 162 163
f 163 162 164
f 163 164 153
f 153 164 154
f 154 164 156
f 156 164 158
f 158 164 160
f 160 164 162
f 165 166 167
f 167 166 168
f 167 168 169
f 169 168 170
f 169 170 171
f 171 170 172
f 171 172 173
f 173 172 174
f 173 174 175
f 175 174 176
f 175 176 165
f 165 176 166
f 166 176 168
f 168 176 170
f 170 176 172
f 172 176 174
f 177 178 179
f 177 179 180
f 181 182 183
f 181 183 184
f 185 186 187
f 185 187 188
f 185 188 189
f 185 189 190
f 190 189 191
f 190 191 192
f 190 192 193
f 190 193 194
f 190 194 195
f 195 194 196
f 195 196 197
f 195 197 198
f 195 198 199
f 195 199 197
f 197 199 198
f 197 198 192
f 197 192 191
f 197 191 198
f 198 191 200
f 198 200 201
f 198 201 199
f 198 199 191
f 198 191 192
f 192 191 189
f 192 189 190
f 202 203 204
f 202 204 205
f 206 207 208
f 206 208 209
f 210 211 212
f 212 211 213
f 212 213 214
f 214 213 215
f 214 215 216
f 216 215 217
f 216 217 218
f 218 217 219
f 218 219 220
f 220 219 221
f 220 221 210
f 210 221 211
f 211 221 213
f 213 221 215
f 215 221 217
f 217 221 219
f 222 223 224
f 222 224 225
f 222 225 226
f 222 226 227
f 222 227 228
f 222 228 229
f 229 228 230
f 229 230 231
f 229 231 232
f 229 232 233
f 233 232 234
f 233 234 235
f 233 235 236
f 233 236 237
f 233 237 223
f 223 237 238
f 223 238 239
f 223 239 224
f 189 199 240
f 189 240 241
f 189 241 191
f 189 191 199
f 199 201 240
f 240 201 242
f 240 242 243
f 240 243 241
f 241 243 244
f 241 244 200
f 241 200 191
f 201 200 245
f 201 245 242
f 200 244 245
f 192 197 246
f 192 246 193
f 193 246 247
f 193 247 248
f 193 248 194
f 194 248 249
f 194 249 196
f 196 249 250
f 196 250 246
f 196 246 197
f 246 250 247
f 247 250 248
f 248 250 249
f 251 252 253
f 251 253 254
f 251 254 255
f 251 255 256
f 251 256 257
f 252 258 253
f 258 252 259
f 259 252 260
f 260 252 261
f 262 263 264
f 262 264 265
f 262 265 266
f 262 266 267
f 262 267 268
f 262 268 263
f 263 268 269
f 263 269 270
f 263 270 264
f 265 271 266
f 266 271 272
f 266 272 273
f 266 273 267
f 267 273 274
f 267 274 275
f 267 275 268
f 268 275 276
f 268 276 269
f 269 276 270
f 271 277 272
f 272 277 278
f 272 278 273
f 273 278 279
f 273 279 280
f 273 280 281
f 273 281 282
f 273 282 283
f 273 283 284
f 273 284 285
f 273 285 286
f 273 286 274
f 287 288 281
f 287 281 280
f 287 280 289
f 289 280 279
f 289 279 290
f 290 279 278
f 290 278 277
f 283 282 291
f 283 291 292
f 283 292 284
f 284 292 293
f 284 293 285
f 285 293 286
f 282 281 288
f 282 288 291
f 294 195 199
f 294 199 295
f 294 295 296
f 294 296 297
f 294 297 195
f 195 297 298
f 195 298 199
f 199 298 299
f 199 299 295
f 295 299 296
f 296 299 298
f 296 298 297
f 300 301 302
f 302 301 303
f 302 303 304
f 304 303 305
f 304 305 306
f 306 305 307
f 306 307 308
f 308 307 309
f 308 309 310
f 310 309 311
f 310 311 300
f 300 311 301
f 301 311 303
f 303 311 305
f 305 311 307
f 307 311 309
