# RS2 Model 11133
# Vertices: 44
# Faces: 84

v -8 -16 9
v -7 -17 9
v -2 -9 8
v -4 -8 8
v -8 -16 7
v -13 -16 9
v -12 -16 13
v -9 -18 15
v -5 -20 13
v -4 -21 9
v -7 -17 7
v -2 -10 6
v 21 26 0
v 21 26 4
v 18 28 4
v -4 -9 6
v -9 -19 3
v -12 -17 4
v -14 -18 3
v -16 -16 9
v -14 -17 15
v -9 -19 17
v -5 -23 15
v -4 -24 9
v -6 -21 4
v -6 -23 3
v -10 -21 1
v -14 -27 2
v -19 -24 4
v -20 -22 10
v -18 -23 16
v -13 -25 18
v -8 -29 16
v -7 -30 10
v 18 28 0
v -9 -30 4
v -11 -32 10
v -13 -32 6
v -16 -30 4
v -19 -28 6
v -20 -27 10
v -18 -28 13
v -15 -29 15
v -13 -31 13

f 1 2 3
f 1 3 4
f 1 4 5
f 1 5 6
f 1 6 7
f 1 7 8
f 1 8 2
f 2 8 9
f 2 9 10
f 2 10 11
f 2 11 12
f 2 12 3
f 3 12 13
f 3 13 14
f 3 14 4
f 4 14 15
f 4 15 16
f 4 16 5
f 5 16 11
f 5 11 17
f 5 17 18
f 5 18 6
f 6 18 19
f 6 19 20
f 6 20 7
f 7 20 21
f 7 21 8
f 8 21 22
f 8 22 9
f 9 22 23
f 9 23 10
f 10 23 24
f 10 24 25
f 10 25 11
f 11 25 17
f 17 25 26
f 17 26 27
f 17 27 18
f 18 27 19
f 19 27 28
f 19 28 29
f 19 29 20
f 20 29 30
f 20 30 21
f 21 30 31
f 21 31 22
f 22 31 32
f 22 32 23
f 23 32 33
f 23 33 24
f 24 33 34
f 24 34 26
f 24 26 25
f 11 16 12
f 12 16 35
f 12 35 13
f 13 35 15
f 13 15 14
f 36 28 27
f 36 27 26
f 36 26 34
f 36 34 37
f 36 37 38
f 36 38 28
f 28 38 39
f 28 39 29
f 29 39 40
f 29 40 30
f 30 40 41
f 30 41 31
f 31 41 42
f 31 42 32
f 32 42 43
f 32 43 33
f 33 43 44
f 33 44 34
f 34 44 37
f 37 44 42
f 37 42 41
f 37 41 40
f 37 40 38
f 38 40 39
f 44 43 42
f 16 15 35
