# RS2 Model 11172
# Vertices: 149
# Faces: 162

v -132 64 196
v -132 64 180
v -132 24 180
v -132 28 196
v -128 28 196
v -128 64 196
v -132 64 236
v -132 64 220
v -132 -32 220
v -132 -32 232
v -128 64 236
v -128 -32 232
v -128 -32 220
v -128 64 220
v -132 16 196
v -132 12 180
v -132 -64 180
v -132 -64 196
v -128 16 196
v -128 12 180
v -128 -64 180
v -132 16 148
v -132 16 132
v -132 -64 132
v -132 -64 148
v -128 16 148
v -128 16 132
v -128 -64 132
v -132 -48 236
v -132 -40 220
v -132 -64 220
v -132 -64 236
v -128 -48 236
v -128 -40 220
v -128 -64 220
v -132 64 132
v -132 36 132
v -132 32 148
v -132 64 148
v -128 64 148
v -128 32 148
v -128 36 132
v -128 64 132
v -128 24 180
v -128 64 180
v -132 64 172
v -132 64 156
v -132 -32 156
v -132 -36 172
v -128 64 172
v -128 -36 172
v -128 -32 156
v -128 64 156
v -132 64 216
v -132 64 200
v -132 0 204
v -132 0 216
v -128 64 216
v -128 0 216
v -128 0 204
v -128 64 200
v -128 -64 148
v -128 -64 196
v -128 -64 236
v -118 -16 94
v -125 -16 108
v -125 64 108
v -118 64 94
v -115 -16 95
v -121 -16 110
v -121 64 110
v -125 -64 108
v -125 -36 108
v -118 -32 94
v -118 -64 94
v -115 -64 95
v -115 -32 95
v -121 -36 110
v -121 -64 110
v -126 48 112
v -122 48 114
v -122 -64 114
v -126 -64 112
v -132 48 127
v -128 48 128
v -132 -64 127
v -128 -64 128
v -115 64 95
v -109 36 72
v -106 36 73
v -106 -64 73
v -109 -64 72
v -115 32 86
v -112 32 88
v -115 -64 86
v -112 -64 88
v -77 -64 15
v -86 -64 28
v -86 32 28
v -79 32 19
v -74 -64 18
v -77 32 21
v -83 32 31
v -83 -64 31
v -77 48 15
v -86 40 28
v -86 64 28
v -77 64 15
v -74 48 18
v -83 40 31
v -83 64 31
v -88 -64 32
v -98 -64 45
v -95 0 42
v -88 0 32
v -85 -64 34
v -85 0 34
v -91 0 45
v -94 -64 47
v -99 -64 48
v -108 -64 62
v -108 -24 62
v -99 -28 48
v -96 -28 51
v -96 -64 51
v -99 -16 48
v -108 -12 62
v -108 64 62
v -99 64 48
v -96 -16 51
v -104 -12 64
v -104 64 64
v -96 64 51
v -104 -24 64
v -104 -64 64
v -74 64 18
v -64 64 0
v -64 -64 0
v 0 64 0
v -69 64 64
v 0 -64 0
v -69 -64 64
v -107 -64 128
v -128 64 128
v -107 64 128
v -107 64 240
v -107 -64 240
v -128 -64 240
v -128 64 240

f 1 2 3
f 1 3 4
f 1 4 5
f 1 5 6
f 7 8 9
f 7 9 10
f 7 10 11
f 11 10 12
f 12 10 9
f 12 9 13
f 13 9 8
f 13 8 14
f 15 16 17
f 15 17 18
f 15 18 19
f 15 19 20
f 15 20 16
f 16 20 21
f 16 21 17
f 22 23 24
f 22 24 25
f 22 25 26
f 22 26 27
f 22 27 23
f 23 27 28
f 23 28 24
f 29 30 31
f 29 31 32
f 29 32 33
f 29 33 34
f 29 34 30
f 30 34 35
f 30 35 31
f 36 37 38
f 36 38 39
f 39 38 40
f 40 38 41
f 41 38 37
f 41 37 42
f 42 37 36
f 42 36 43
f 3 44 5
f 3 5 4
f 2 45 44
f 2 44 3
f 46 47 48
f 46 48 49
f 46 49 50
f 50 49 51
f 51 49 48
f 51 48 52
f 52 48 47
f 52 47 53
f 54 55 56
f 54 56 57
f 54 57 58
f 58 57 59
f 59 57 56
f 59 56 60
f 60 56 55
f 60 55 61
f 25 62 26
f 18 63 19
f 32 64 33
f 65 66 67
f 65 67 68
f 65 68 69
f 65 69 70
f 65 70 66
f 66 70 71
f 66 71 67
f 72 73 74
f 72 74 75
f 75 74 76
f 76 74 77
f 77 74 73
f 77 73 78
f 78 73 72
f 78 72 79
f 80 81 82
f 80 82 83
f 80 83 84
f 80 84 81
f 81 84 85
f 85 84 86
f 85 86 87
f 68 88 69
f 89 90 91
f 89 91 92
f 89 92 93
f 89 93 90
f 90 93 94
f 94 93 95
f 94 95 96
f 83 86 84
f 92 95 93
f 97 98 99
f 97 99 100
f 97 100 101
f 101 100 102
f 102 100 99
f 102 99 103
f 103 99 98
f 103 98 104
f 105 106 107
f 105 107 108
f 105 108 109
f 105 109 110
f 105 110 106
f 106 110 111
f 106 111 107
f 112 113 114
f 112 114 115
f 112 115 116
f 116 115 117
f 117 115 114
f 117 114 118
f 118 114 113
f 118 113 119
f 120 121 122
f 120 122 123
f 120 123 124
f 120 124 125
f 126 127 128
f 126 128 129
f 126 129 130
f 126 130 131
f 126 131 127
f 127 131 132
f 127 132 128
f 129 133 130
f 122 134 124
f 122 124 123
f 121 135 134
f 121 134 122
f 108 136 109
f 137 138 135
f 137 135 132
f 137 132 139
f 139 132 140
f 139 140 141
f 141 140 142
f 141 142 138
f 138 142 135
f 135 142 143
f 135 143 87
f 135 87 132
f 132 87 144
f 132 144 140
f 140 144 145
f 140 145 142
f 142 145 143
f 143 145 146
f 143 146 147
f 143 147 87
f 87 147 148
f 87 148 144
f 144 148 149
f 144 149 145
f 145 149 146
f 146 149 148
f 146 148 147
