# RS2 Model 11182
# Vertices: 24
# Faces: 42

v 0 0 28
v 8 -8 20
v 12 4 20
v 0 8 28
v -8 8 28
v -8 0 28
v -4 -12 20
v 8 -8 8
v 12 4 8
v 8 16 8
v 8 16 20
v -4 20 20
v -16 16 20
v -20 4 20
v -16 -8 20
v -4 -12 8
v 0 0 0
v 0 8 0
v -4 20 8
v -16 16 8
v -20 4 8
v -16 -8 8
v -8 0 0
v -8 8 0

f 1 2 3
f 1 3 4
f 1 4 5
f 1 5 6
f 1 6 7
f 1 7 2
f 2 7 8
f 2 8 9
f 2 9 3
f 3 9 10
f 3 10 11
f 3 11 4
f 4 11 12
f 4 12 5
f 5 12 13
f 5 13 14
f 5 14 6
f 6 14 15
f 6 15 7
f 7 15 16
f 7 16 8
f 8 16 17
f 8 17 9
f 9 17 18
f 9 18 10
f 10 18 19
f 10 19 11
f 11 19 12
f 12 19 20
f 12 20 13
f 13 20 21
f 13 21 14
f 14 21 22
f 14 22 15
f 15 22 16
f 16 22 23
f 16 23 17
f 18 24 19
f 19 24 20
f 20 24 21
f 21 24 23
f 21 23 22
