# RS2 Model 11249
# Vertices: 68
# Faces: 113

v 16 10 131
v 16 11 130
v 14 12 132
v 15 11 130
v 14 12 133
v 19 9 130
v 20 10 127
v 18 9 127
v 19 7 126
v 20 8 130
v 20 9 130
v 21 9 130
v 21 8 130
v 21 8 126
v 19 12 123
v 17 9 122
v 20 8 122
v 22 10 123
v 23 8 133
v 24 8 133
v 25 9 135
v 22 2 137
v 23 3 138
v 23 4 136
v 11 10 133
v 13 16 133
v 11 13 132
v 24 -3 134
v 25 1 137
v 21 0 136
v 29 11 133
v 26 11 134
v 27 8 133
v 17 13 119
v 17 8 118
v 21 8 118
v 23 13 119
v 30 24 112
v 30 24 118
v 39 7 118
v 39 7 112
v 30 -9 118
v 30 -9 112
v 11 -9 118
v 11 -9 112
v 2 7 118
v 2 7 112
v 11 23 118
v 11 23 112
v 14 19 118
v 27 19 118
v 34 7 118
v 28 -5 118
v 14 -5 118
v 7 7 118
v 7 7 153
v 14 19 153
v 27 19 153
v 34 7 153
v 28 -5 153
v 14 -5 153
v 15 -3 157
v 9 7 157
v 15 17 157
v 26 17 157
v 32 7 157
v 26 -3 157
v 21 7 161

f 1 2 3
f 3 2 4
f 3 4 5
f 5 4 1
f 1 4 6
f 1 6 7
f 1 7 2
f 2 7 8
f 2 8 4
f 4 8 6
f 6 8 9
f 6 9 10
f 6 10 11
f 6 11 12
f 6 12 7
f 7 12 13
f 7 13 14
f 7 14 15
f 7 15 16
f 7 16 8
f 8 16 17
f 8 17 9
f 9 17 18
f 9 18 14
f 9 14 10
f 10 14 13
f 10 13 19
f 10 19 20
f 10 20 11
f 11 20 21
f 11 21 12
f 12 21 20
f 12 20 13
f 13 20 19
f 19 20 22
f 19 22 23
f 19 23 20
f 20 23 24
f 20 24 22
f 22 24 23
f 25 5 26
f 25 26 27
f 28 29 23
f 28 23 30
f 31 32 21
f 31 21 33
f 14 18 15
f 15 18 34
f 15 34 35
f 15 35 16
f 16 35 36
f 16 36 17
f 17 36 37
f 17 37 18
f 18 37 34
f 38 39 40
f 38 40 41
f 41 40 42
f 41 42 43
f 43 42 44
f 43 44 45
f 45 44 46
f 45 46 47
f 47 46 48
f 47 48 49
f 49 48 39
f 49 39 38
f 39 48 50
f 39 50 51
f 39 51 40
f 40 51 52
f 40 52 42
f 42 52 53
f 42 53 44
f 44 53 54
f 44 54 46
f 46 54 55
f 46 55 48
f 48 55 50
f 50 55 56
f 50 56 57
f 50 57 51
f 51 57 58
f 51 58 52
f 52 58 59
f 52 59 53
f 53 59 60
f 53 60 54
f 54 60 61
f 54 61 55
f 55 61 56
f 56 61 62
f 56 62 63
f 56 63 57
f 57 63 64
f 57 64 58
f 58 64 65
f 58 65 59
f 59 65 66
f 59 66 60
f 60 66 67
f 60 67 61
f 61 67 62
f 62 67 68
f 62 68 63
f 63 68 64
f 64 68 65
f 65 68 66
f 66 68 67
f 52 51 50
f 52 50 55
f 52 55 53
f 53 55 54
