# RS2 Model 11295
# Vertices: 80
# Faces: 145

v -33 -8 61
v -24 0 68
v -18 -6 64
v -19 -11 62
v -24 -17 58
v -31 -21 55
v -37 -22 55
v -44 -17 58
v -48 -11 62
v -48 -6 64
v -44 0 68
v -37 3 70
v -31 3 70
v -21 1 72
v -14 -8 68
v -15 -14 64
v -21 -21 60
v -30 -27 57
v -37 -27 57
v -47 -22 59
v -52 -15 64
v -52 -8 69
v -47 0 72
v -37 3 76
v -30 3 76
v -19 -1 77
v -13 -11 73
v -14 -17 69
v -19 -26 63
v -29 -31 61
v -37 -31 61
v -47 -27 64
v -53 -18 69
v -54 -12 74
v -47 -3 78
v -37 2 81
v -30 3 82
v -17 0 80
v -11 -11 74
v -11 -18 69
v -17 -28 63
v -28 -33 61
v -37 -33 61
v -49 -29 65
v -55 -19 70
v -57 -13 75
v -49 -2 80
v -38 4 84
v -30 4 84
v -30 -1 84
v -20 -6 82
v -15 -13 77
v -14 -20 72
v -21 -27 68
v -29 -32 67
v -36 -32 65
v -46 -29 72
v -51 -20 73
v -52 -14 77
v -46 -6 83
v -37 -1 84
v -31 -2 81
v -23 -5 79
v -19 -11 74
v -19 -17 70
v -23 -24 67
v -30 -28 65
v -36 -28 65
v -44 -25 68
v -48 -17 70
v -49 -13 75
v -44 -5 79
v -37 -2 81
v -33 -19 79
v -28 -36 62
v -57 -12 79
v -2 -11 74
v -44 9 87
v -62 -23 69
v -3 -7 78

f 1 2 3
f 1 3 4
f 1 4 5
f 1 5 6
f 1 6 7
f 1 7 8
f 1 8 9
f 1 9 10
f 1 10 11
f 1 11 12
f 1 12 13
f 1 13 2
f 2 13 14
f 2 14 3
f 3 14 15
f 3 15 4
f 4 15 16
f 4 16 17
f 4 17 5
f 5 17 18
f 5 18 6
f 6 18 7
f 7 18 19
f 7 19 20
f 7 20 8
f 8 20 21
f 8 21 9
f 9 21 22
f 9 22 10
f 10 22 23
f 10 23 11
f 11 23 12
f 12 23 24
f 12 24 13
f 13 24 25
f 13 25 14
f 14 25 26
f 14 26 15
f 15 26 27
f 15 27 16
f 16 27 28
f 16 28 29
f 16 29 17
f 17 29 18
f 18 29 30
f 18 30 31
f 18 31 19
f 19 31 32
f 19 32 20
f 20 32 33
f 20 33 21
f 21 33 34
f 21 34 22
f 22 34 35
f 22 35 23
f 23 35 24
f 24 35 36
f 24 36 25
f 25 36 37
f 25 37 26
f 26 37 38
f 26 38 39
f 26 39 27
f 27 39 28
f 28 39 40
f 28 40 41
f 28 41 29
f 29 41 30
f 30 41 42
f 30 42 43
f 30 43 31
f 31 43 32
f 32 43 44
f 32 44 33
f 33 44 45
f 33 45 34
f 34 45 46
f 34 46 35
f 35 46 47
f 35 47 36
f 36 47 48
f 36 48 49
f 36 49 37
f 37 49 38
f 38 49 50
f 38 50 51
f 38 51 52
f 38 52 39
f 39 52 40
f 40 52 53
f 40 53 41
f 41 53 54
f 41 54 42
f 42 54 55
f 42 55 56
f 42 56 43
f 43 56 44
f 44 56 57
f 44 57 45
f 45 57 58
f 45 58 46
f 46 58 59
f 46 59 47
f 47 59 60
f 47 60 61
f 47 61 48
f 48 61 50
f 48 50 49
f 51 50 62
f 51 62 63
f 51 63 52
f 52 63 64
f 52 64 53
f 53 64 65
f 53 65 54
f 54 65 66
f 54 66 55
f 55 66 67
f 55 67 56
f 56 67 68
f 56 68 57
f 57 68 69
f 57 69 58
f 58 69 70
f 58 70 59
f 59 70 71
f 59 71 60
f 60 71 72
f 60 72 61
f 61 72 73
f 61 73 50
f 50 73 62
f 62 73 74
f 62 74 63
f 63 74 64
f 64 74 65
f 65 74 66
f 66 74 67
f 67 74 68
f 68 74 69
f 69 74 70
f 70 74 71
f 71 74 72
f 72 74 73
f 75 76 77
