# RS2 Model 11331
# Vertices: 93
# Faces: 172

v -7 -13 192
v 0 -17 192
v -2 -11 201
v -9 0 200
v -10 -5 191
v -19 -6 189
v -14 -18 189
v -9 -23 188
v 0 -26 189
v 7 -12 192
v 4 -7 199
v 4 -4 205
v -2 -7 208
v -6 -1 208
v -6 8 200
v -8 9 192
v -12 1 191
v -18 3 189
v -21 -6 187
v -17 -18 186
v -10 -26 184
v 0 -29 186
v 9 -26 186
v 8 -23 189
v 13 -17 189
v 17 -8 190
v 12 -1 191
v 7 0 198
v 5 0 204
v 6 0 211
v 2 -5 215
v 0 1 219
v 3 6 213
v -3 7 207
v 0 10 199
v -1 12 192
v -1 16 192
v -11 13 191
v 4 -1 224
v 6 -1 222
v 9 1 222
v 5 1 227
v 0 2 227
v 0 -1 224
v -3 -1 220
v -3 0 214
v -3 2 213
v -3 5 220
v 0 5 224
v 4 4 224
v 6 4 221
v 3 6 205
v 1 8 205
v 6 6 198
v 9 9 192
v 12 14 192
v -1 20 189
v -13 16 187
v -20 5 187
v -23 -7 186
v -20 -19 185
v -10 -29 182
v 0 -32 185
v 10 -29 184
v 18 -20 185
v 15 -18 186
v 19 -9 187
v 18 3 189
v -6 -2 214
v -12 -1 210
v -5 5 214
v -7 1 216
v -6 1 221
v 20 5 186
v 13 17 189
v 0 23 188
v -15 18 185
v -22 6 187
v -22 6 186
v -23 -7 185
v -20 -19 184
v -10 -29 181
v 0 -32 184
v 10 -29 183
v 18 -20 184
v 22 -10 186
v 22 6 185
v 15 19 187
v 22 -10 185
v 22 6 184
v 15 19 186
v 0 23 187
v -15 18 184

f 1 2 3
f 1 3 4
f 1 4 5
f 1 5 6
f 1 6 7
f 1 7 8
f 1 8 9
f 1 9 2
f 2 9 10
f 2 10 3
f 3 10 11
f 3 11 12
f 3 12 13
f 3 13 4
f 4 13 14
f 4 14 15
f 4 15 16
f 4 16 17
f 4 17 5
f 5 17 6
f 6 17 18
f 6 18 19
f 6 19 20
f 6 20 7
f 7 20 8
f 8 20 21
f 8 21 9
f 9 21 22
f 9 22 23
f 9 23 24
f 9 24 10
f 10 24 25
f 10 25 26
f 10 26 27
f 10 27 28
f 10 28 11
f 11 28 29
f 11 29 12
f 12 29 30
f 12 30 13
f 13 30 31
f 13 31 32
f 13 32 14
f 14 32 33
f 14 33 34
f 14 34 15
f 15 34 35
f 15 35 16
f 16 35 36
f 16 36 37
f 16 37 38
f 16 38 18
f 16 18 17
f 39 32 31
f 39 31 40
f 39 40 41
f 39 41 42
f 39 42 43
f 39 43 44
f 39 44 32
f 32 44 45
f 32 45 46
f 32 46 47
f 32 47 48
f 32 48 49
f 32 49 50
f 32 50 51
f 32 51 33
f 33 51 30
f 33 30 52
f 33 52 53
f 33 53 34
f 34 53 35
f 35 53 54
f 35 54 55
f 35 55 36
f 36 55 37
f 37 55 56
f 37 56 57
f 37 57 38
f 38 57 58
f 38 58 59
f 38 59 18
f 18 59 19
f 19 59 60
f 19 60 61
f 19 61 20
f 20 61 21
f 21 61 62
f 21 62 22
f 22 62 63
f 22 63 64
f 22 64 23
f 23 64 65
f 23 65 66
f 23 66 24
f 24 66 25
f 25 66 67
f 25 67 26
f 26 67 68
f 26 68 27
f 27 68 55
f 27 55 54
f 27 54 28
f 28 54 52
f 28 52 29
f 29 52 30
f 45 69 46
f 46 69 70
f 46 70 47
f 47 70 71
f 47 71 48
f 48 71 72
f 48 72 73
f 48 73 49
f 49 73 43
f 49 43 42
f 49 42 50
f 50 42 51
f 51 42 41
f 51 41 30
f 30 41 40
f 30 40 31
f 55 68 56
f 56 68 74
f 56 74 75
f 56 75 57
f 57 75 76
f 57 76 58
f 58 76 77
f 58 77 78
f 58 78 59
f 59 78 60
f 60 78 79
f 60 79 80
f 60 80 61
f 61 80 81
f 61 81 62
f 62 81 82
f 62 82 63
f 63 82 83
f 63 83 64
f 64 83 84
f 64 84 65
f 65 84 85
f 65 85 86
f 65 86 66
f 66 86 67
f 67 86 74
f 67 74 68
f 44 43 73
f 44 73 45
f 45 73 69
f 69 73 72
f 69 72 70
f 70 72 71
f 54 53 52
f 87 88 75
f 87 75 74
f 87 74 86
f 87 86 89
f 87 89 90
f 87 90 88
f 88 90 91
f 88 91 76
f 88 76 75
f 86 85 89
f 77 76 92
f 77 92 93
f 77 93 78
f 78 93 79
f 76 91 92
