# RS2 Model 11351
# Vertices: 120
# Faces: 212

v -11 5 186
v -12 1 186
v -12 1 189
v -11 7 189
v -7 11 186
v -11 5 185
v -12 1 185
v -12 -3 185
v -13 -4 186
v -13 -4 189
v -11 1 192
v -9 7 192
v -7 12 189
v 0 13 186
v 0 14 189
v 7 12 189
v 7 11 186
v 11 7 189
v 11 5 186
v 11 5 185
v 12 1 186
v 12 1 185
v 11 5 181
v 12 2 181
v 10 3 175
v 12 1 176
v 10 1 171
v 11 0 172
v 8 -3 169
v 10 -2 173
v 11 -1 178
v 11 -2 182
v 12 -3 185
v 12 -4 186
v 9 -10 186
v 13 -4 189
v 10 -10 189
v 5 -12 186
v 4 -12 189
v 0 -12 186
v 0 -12 189
v -5 -12 189
v -6 -12 186
v -10 -10 189
v -10 -10 186
v -11 -4 192
v -9 -9 192
v -8 -4 196
v -8 -3 169
v -11 0 172
v -10 1 171
v -12 1 176
v -10 3 175
v -12 2 181
v -11 5 181
v -5 6 208
v -4 4 212
v -4 8 214
v -5 10 210
v -6 11 204
v -6 11 200
v -4 4 203
v 0 3 205
v 0 4 207
v 0 3 210
v 0 1 213
v -3 2 214
v -3 4 217
v 0 9 215
v 0 13 210
v 0 14 204
v 0 14 200
v -6 11 196
v -8 7 196
v -4 0 203
v 0 -1 204
v 4 0 203
v 4 4 203
v 5 6 208
v 4 4 212
v 3 2 214
v 2 -3 215
v 0 -3 214
v -2 -3 215
v -2 -2 218
v 0 5 218
v 3 4 217
v 4 8 214
v 5 10 210
v 6 11 204
v 6 11 200
v 6 11 196
v 0 14 196
v -6 11 192
v -9 1 196
v -5 -5 201
v 0 -6 201
v 5 -5 201
v 9 1 196
v 8 7 196
v 2 -2 218
v 0 -10 214
v 0 -2 219
v -6 -8 196
v 0 -10 196
v 6 -8 196
v 8 -4 196
v 11 1 192
v 9 7 192
v 6 11 192
v 0 -11 192
v -4 -11 192
v 3 -11 192
v 9 -9 192
v 11 -4 192
v 12 1 189
v 0 13 192
v -10 -2 173
v -11 -1 178
v -11 -2 182

f 1 2 3
f 1 3 4
f 1 4 5
f 1 5 6
f 1 6 2
f 2 6 7
f 2 7 8
f 2 8 9
f 2 9 3
f 3 9 10
f 3 10 11
f 3 11 4
f 4 11 12
f 4 12 13
f 4 13 5
f 5 13 14
f 14 13 15
f 14 15 16
f 14 16 17
f 17 16 18
f 17 18 19
f 17 19 20
f 20 19 21
f 20 21 22
f 20 22 23
f 23 22 24
f 23 24 25
f 25 24 26
f 25 26 27
f 27 26 28
f 27 28 29
f 29 28 30
f 30 28 26
f 30 26 31
f 31 26 24
f 31 24 32
f 32 24 22
f 32 22 33
f 33 22 21
f 33 21 34
f 33 34 35
f 35 34 36
f 35 36 37
f 35 37 38
f 38 37 39
f 38 39 40
f 40 39 41
f 40 41 42
f 40 42 43
f 43 42 44
f 43 44 45
f 45 44 10
f 45 10 9
f 45 9 8
f 46 10 44
f 46 44 47
f 46 47 48
f 46 48 11
f 46 11 10
f 49 50 51
f 51 50 52
f 51 52 53
f 53 52 54
f 53 54 55
f 55 54 7
f 55 7 6
f 56 57 58
f 56 58 59
f 56 59 60
f 56 60 61
f 56 61 62
f 56 62 63
f 56 63 64
f 56 64 57
f 57 64 65
f 57 65 66
f 57 66 67
f 57 67 68
f 57 68 58
f 58 68 69
f 58 69 70
f 58 70 59
f 59 70 71
f 59 71 60
f 60 71 72
f 60 72 61
f 61 72 73
f 61 73 74
f 61 74 62
f 62 74 75
f 62 75 63
f 63 75 76
f 63 76 77
f 63 77 78
f 63 78 79
f 63 79 64
f 64 79 80
f 64 80 65
f 65 80 66
f 66 80 81
f 66 81 82
f 66 82 83
f 66 83 84
f 66 84 67
f 67 84 85
f 67 85 68
f 68 85 86
f 68 86 69
f 69 86 87
f 69 87 88
f 69 88 70
f 70 88 89
f 70 89 71
f 71 89 90
f 71 90 72
f 72 90 91
f 72 91 92
f 72 92 93
f 72 93 73
f 73 93 94
f 73 94 74
f 74 94 12
f 74 12 11
f 74 11 95
f 74 95 75
f 75 95 96
f 75 96 97
f 75 97 76
f 76 97 77
f 77 97 98
f 77 98 99
f 77 99 100
f 77 100 78
f 78 100 91
f 78 91 79
f 79 91 90
f 79 90 89
f 79 89 88
f 79 88 80
f 80 88 87
f 80 87 81
f 81 87 101
f 81 101 82
f 82 101 102
f 82 102 83
f 83 102 84
f 84 102 85
f 85 102 103
f 85 103 86
f 86 103 101
f 86 101 87
f 96 95 48
f 96 48 104
f 96 104 105
f 96 105 97
f 97 105 98
f 98 105 106
f 98 106 107
f 98 107 99
f 99 107 108
f 99 108 100
f 100 108 109
f 100 109 110
f 100 110 92
f 100 92 91
f 111 105 112
f 111 112 41
f 111 41 113
f 111 113 105
f 105 113 106
f 106 113 114
f 106 114 107
f 107 114 115
f 107 115 108
f 108 115 36
f 108 36 116
f 108 116 18
f 108 18 109
f 109 18 16
f 109 16 110
f 110 16 15
f 110 15 117
f 110 117 93
f 110 93 92
f 52 50 118
f 52 118 119
f 52 119 54
f 54 119 120
f 54 120 7
f 7 120 8
f 50 49 118
f 112 42 41
f 42 112 47
f 42 47 44
f 15 13 94
f 15 94 117
f 117 94 93
f 47 104 48
f 104 47 112
f 104 112 105
f 48 95 11
f 13 12 94
f 19 18 116
f 19 116 21
f 21 116 34
f 34 116 36
f 115 114 37
f 115 37 36
f 102 101 103
f 113 41 39
f 113 39 114
f 114 39 37
