# RS2 Model 11425
# Vertices: 157
# Faces: 142

v -19 28 5
v -20 25 5
v -18 33 6
v -18 33 5
v -19 28 4
v -20 25 3
v -18 33 3
v -18 33 1
v -22 12 4
v -22 14 5
v -21 17 2
v -22 14 2
v -23 9 4
v -23 7 5
v -23 7 2
v -24 5 2
v -21 18 6
v -21 20 7
v -20 23 5
v -21 20 5
v -22 15 6
v -22 14 7
v -23 9 6
v -21 20 4
v -20 23 4
v -21 20 0
v -21 18 1
v -22 14 0
v -22 15 1
v -23 9 1
v -25 -2 4
v -25 -3 2
v -26 -6 5
v -25 -3 5
v -24 2 4
v -24 3 2
v -24 3 5
v -23 6 5
v -26 -8 1
v -27 -10 0
v -27 -13 3
v -27 -10 3
v -26 -5 1
v -25 -3 0
v -24 2 1
v -27 -10 4
v -27 -13 4
v -27 -10 7
v -26 -8 5
v -25 -3 7
v -26 -5 5
v -24 2 5
v -28 -18 3
v -27 -14 2
v -29 -21 1
v -29 -21 2
v -28 -18 4
v -27 -14 5
v -29 -21 5
v 9 52 8
v 13 48 0
v 13 52 0
v -13 52 0
v -10 52 8
v -10 48 8
v 9 48 8
v 17 36 0
v 14 36 9
v 18 32 0
v 22 2 8
v 24 -1 -1
v 26 -12 8
v 26 -13 0
v 30 -40 6
v 30 -40 0
v 31 -45 3
v 29 -45 0
v -13 48 0
v -17 36 0
v -14 36 9
v 0 36 9
v 4 2 10
v 5 -11 11
v 8 -39 9
v 10 -45 6
v -10 -45 6
v -8 -39 9
v -30 -40 6
v -31 -45 3
v -29 -45 0
v -30 -40 0
v -26 -12 8
v -26 -13 0
v -22 2 8
v -24 -1 -1
v -18 31 0
v -5 -11 11
v -4 3 10
v 18 33 5
v 18 33 6
v 20 25 5
v 19 28 5
v 20 25 3
v 19 28 4
v 18 33 1
v 18 33 3
v 22 14 2
v 21 17 2
v 22 14 5
v 22 12 4
v 23 7 5
v 23 9 4
v 24 5 2
v 23 7 2
v 21 20 5
v 20 23 5
v 21 20 7
v 21 18 6
v 22 14 7
v 22 15 6
v 23 9 6
v 21 18 1
v 21 20 0
v 20 23 4
v 21 20 4
v 22 15 1
v 22 14 0
v 23 9 1
v 25 -3 5
v 26 -6 5
v 25 -3 2
v 25 -2 4
v 24 3 2
v 24 2 4
v 23 6 5
v 24 3 5
v 27 -10 3
v 27 -13 3
v 27 -10 0
v 26 -8 1
v 25 -3 0
v 26 -5 1
v 24 2 1
v 26 -8 5
v 27 -10 7
v 27 -13 4
v 27 -10 4
v 26 -5 5
v 25 -3 7
v 24 2 5
v 29 -21 2
v 29 -21 1
v 27 -14 2
v 28 -18 3
v 27 -14 5
v 28 -18 4
v 29 -21 5

f 1 2 3
f 1 3 4
f 5 6 2
f 5 2 1
f 7 8 6
f 7 6 5
f 9 10 11
f 9 11 12
f 13 14 10
f 13 10 9
f 15 16 14
f 15 14 13
f 17 18 19
f 17 19 20
f 21 22 18
f 21 18 17
f 21 23 22
f 24 25 26
f 24 26 27
f 27 26 28
f 27 28 29
f 29 28 30
f 31 32 33
f 31 33 34
f 35 36 32
f 35 32 31
f 37 38 36
f 37 36 35
f 39 40 41
f 39 41 42
f 43 44 40
f 43 40 39
f 43 45 44
f 46 47 48
f 46 48 49
f 49 48 50
f 49 50 51
f 51 50 52
f 53 54 55
f 53 55 56
f 57 58 54
f 57 54 53
f 59 58 57
f 60 61 62
f 60 62 63
f 60 63 64
f 60 64 65
f 60 65 66
f 60 66 61
f 61 66 67
f 67 66 68
f 67 68 69
f 69 68 70
f 69 70 71
f 71 70 72
f 71 72 73
f 73 72 74
f 73 74 75
f 75 74 76
f 75 76 77
f 78 65 64
f 78 64 63
f 65 78 79
f 65 79 80
f 65 80 81
f 65 81 66
f 66 81 68
f 68 81 70
f 70 81 82
f 70 82 72
f 72 82 83
f 72 83 74
f 74 83 84
f 74 84 76
f 76 84 85
f 85 84 86
f 86 84 87
f 86 87 88
f 86 88 89
f 89 88 90
f 90 88 91
f 91 88 92
f 91 92 93
f 93 92 94
f 93 94 95
f 95 94 80
f 95 80 96
f 96 80 79
f 97 98 94
f 97 94 92
f 97 92 87
f 97 87 83
f 97 83 82
f 97 82 98
f 98 82 81
f 98 81 80
f 98 80 94
f 87 92 88
f 87 84 83
f 99 100 101
f 99 101 102
f 102 101 103
f 102 103 104
f 104 103 105
f 104 105 106
f 107 108 109
f 107 109 110
f 110 109 111
f 110 111 112
f 112 111 113
f 112 113 114
f 115 116 117
f 115 117 118
f 118 117 119
f 118 119 120
f 120 119 121
f 122 123 124
f 122 124 125
f 126 127 123
f 126 123 122
f 126 128 127
f 129 130 131
f 129 131 132
f 132 131 133
f 132 133 134
f 134 133 135
f 134 135 136
f 137 138 139
f 137 139 140
f 140 139 141
f 140 141 142
f 142 141 143
f 144 145 146
f 144 146 147
f 148 149 145
f 148 145 144
f 148 150 149
f 151 152 153
f 151 153 154
f 154 153 155
f 154 155 156
f 156 155 157
