# RS2 Model 11432
# Vertices: 108
# Faces: 222

v -52 16 61
v -43 21 59
v -44 22 56
v -53 17 58
v -55 8 59
v -56 7 64
v -52 16 65
v -41 23 64
v -34 19 54
v -35 20 51
v -44 0 48
v -53 2 53
v -56 9 57
v -52 1 55
v -52 -2 59
v -54 7 63
v -50 15 65
v -41 21 63
v -31 19 58
v -26 11 53
v -31 12 50
v -33 13 47
v -35 5 45
v -34 4 48
v -43 -1 50
v -41 -6 52
v -30 1 50
v -41 -4 53
v -49 -1 58
v -51 -3 63
v -51 4 71
v -47 12 72
v -37 19 72
v -33 18 58
v -28 11 54
v -32 3 52
v -29 0 55
v -37 -8 60
v -49 -2 62
v -47 -5 66
v -48 -9 68
v -52 2 75
v -48 13 78
v -35 20 76
v -28 16 67
v -30 17 62
v -28 18 60
v -26 9 57
v -28 2 54
v -27 -2 59
v -24 -5 61
v -36 -11 62
v -22 13 75
v -19 4 71
v -21 6 65
v -25 15 69
v -21 16 74
v -34 17 81
v -29 14 83
v -23 13 80
v -24 11 80
v -25 11 75
v -22 4 71
v -25 -4 69
v -22 -6 68
v -25 -4 62
v -19 7 64
v -36 5 69
v -33 14 79
v -35 18 75
v -44 10 83
v -47 12 78
v -49 0 81
v -46 0 80
v -41 9 81
v -30 12 82
v -30 9 84
v -29 10 87
v -24 9 84
v -25 8 81
v -50 3 74
v -46 -10 75
v -44 -9 75
v -42 -7 74
v -47 -7 69
v -47 12 77
v -34 -13 69
v -36 -10 64
v -24 -8 68
v -35 -9 71
v -33 -12 77
v -39 -10 80
v -39 -8 79
v -24 8 61
v -23 17 70
v -33 -10 76
v -31 -8 80
v -31 -11 81
v -37 -10 84
v -36 -8 82
v -28 5 82
v -33 5 85
v -33 5 90
v -27 5 86
v -29 -7 87
v -34 -7 87
v -34 -7 82
v -29 -7 82

f 1 2 3
f 1 3 4
f 1 4 5
f 1 5 6
f 1 6 7
f 1 7 2
f 2 7 8
f 2 8 9
f 2 9 10
f 2 10 3
f 3 10 11
f 3 11 12
f 3 12 4
f 4 12 13
f 4 13 5
f 5 13 14
f 5 14 6
f 6 14 15
f 6 15 16
f 6 16 7
f 7 16 17
f 7 17 18
f 7 18 8
f 8 18 19
f 8 19 9
f 9 19 20
f 9 20 21
f 9 21 22
f 9 22 10
f 10 22 11
f 11 22 23
f 11 23 24
f 11 24 25
f 11 25 12
f 12 25 14
f 12 14 13
f 21 24 23
f 21 23 22
f 26 15 14
f 26 14 25
f 26 25 27
f 26 27 28
f 26 28 15
f 15 28 29
f 15 29 16
f 16 29 30
f 16 30 31
f 16 31 17
f 17 31 32
f 17 32 33
f 17 33 18
f 18 33 34
f 18 34 19
f 19 34 35
f 19 35 20
f 20 35 27
f 20 27 24
f 20 24 21
f 27 35 36
f 27 36 28
f 28 36 37
f 28 37 38
f 28 38 29
f 29 38 39
f 29 39 30
f 30 39 40
f 30 40 31
f 31 40 41
f 31 41 42
f 31 42 32
f 32 42 43
f 32 43 33
f 33 43 44
f 33 44 45
f 33 45 46
f 33 46 34
f 34 46 47
f 34 47 35
f 35 47 48
f 35 48 36
f 36 48 49
f 36 49 37
f 37 49 50
f 37 50 38
f 38 50 51
f 38 51 52
f 38 52 40
f 38 40 39
f 27 25 24
f 53 54 55
f 53 55 56
f 53 56 57
f 53 57 58
f 53 58 59
f 53 59 60
f 53 60 61
f 53 61 62
f 53 62 54
f 54 62 63
f 54 63 64
f 54 64 65
f 54 65 66
f 54 66 55
f 55 66 67
f 55 67 56
f 55 56 68
f 55 68 66
f 55 66 64
f 55 64 63
f 55 63 62
f 55 62 56
f 56 62 69
f 56 69 70
f 56 70 58
f 56 58 57
f 71 58 70
f 71 70 72
f 71 72 73
f 71 73 74
f 71 74 75
f 71 75 58
f 58 75 69
f 58 69 59
f 59 69 76
f 59 76 77
f 59 77 78
f 59 78 79
f 59 79 60
f 60 79 61
f 61 79 80
f 61 80 76
f 61 76 69
f 61 69 62
f 73 72 81
f 73 81 82
f 73 82 83
f 73 83 84
f 73 84 74
f 74 84 85
f 74 85 81
f 74 81 75
f 75 81 86
f 75 86 69
f 69 86 70
f 70 86 68
f 70 68 56
f 70 56 44
f 70 44 72
f 72 44 43
f 72 43 42
f 72 42 81
f 81 42 85
f 81 85 68
f 81 68 86
f 87 83 85
f 87 85 88
f 87 88 89
f 87 89 90
f 87 90 91
f 87 91 83
f 83 91 92
f 83 92 93
f 83 93 84
f 84 93 90
f 84 90 88
f 84 88 85
f 85 88 68
f 68 88 66
f 66 88 52
f 66 52 51
f 66 51 67
f 67 51 50
f 67 50 94
f 67 94 95
f 67 95 56
f 56 95 44
f 44 95 45
f 45 95 94
f 45 94 48
f 45 48 47
f 45 47 46
f 85 41 52
f 85 52 88
f 42 41 85
f 90 64 66
f 90 66 88
f 88 66 89
f 89 66 64
f 89 64 90
f 81 85 82
f 82 85 83
f 94 50 49
f 94 49 48
f 65 64 66
f 93 96 90
f 90 96 91
f 91 96 97
f 91 97 98
f 91 98 92
f 92 98 99
f 92 99 93
f 93 99 100
f 93 100 97
f 93 97 96
f 80 101 102
f 80 102 77
f 80 77 76
f 79 78 103
f 79 103 104
f 79 104 101
f 79 101 80
f 98 105 106
f 98 106 99
f 99 106 107
f 99 107 100
f 100 107 97
f 97 107 108
f 97 108 98
f 98 108 105
f 102 103 78
f 102 78 77
f 40 52 41
