# RS2 Model 11449
# Vertices: 52
# Faces: 98

v -34 -14 0
v -38 -3 0
v -64 64 0
v -64 -64 0
v -48 -52 15
v -34 -29 8
v -4 -48 0
v -2 -41 -38
v -29 -10 -38
v -32 -1 -38
v -33 37 0
v -33 43 13
v -43 29 13
v -48 55 13
v 64 64 0
v -10 56 13
v 5 44 0
v 37 37 0
v 47 7 0
v 48 -11 10
v 59 28 10
v 64 -64 0
v 59 -59 10
v -20 -44 8
v 32 -28 -38
v 37 -33 0
v 40 6 -38
v 35 5 -60
v 28 -23 -60
v -1 -35 -60
v -24 -8 -60
v -27 0 -60
v -27 31 -38
v -9 45 13
v -41 42 19
v 32 31 -38
v 28 27 -60
v 24 23 -84
v 30 4 -84
v 24 -19 -84
v 0 -30 -84
v -20 -6 -84
v -23 1 -84
v -23 27 -60
v 4 38 -38
v 3 33 -60
v 2 29 -84
v 2 3 -84
v -19 23 -84
v 13 -48 10
v 42 -38 10
v 51 -27 22

f 1 2 3
f 1 3 4
f 1 4 5
f 1 5 6
f 1 6 7
f 1 7 8
f 1 8 9
f 1 9 2
f 2 9 10
f 2 10 11
f 2 11 12
f 2 12 13
f 2 13 3
f 3 13 14
f 3 14 15
f 15 14 16
f 15 16 17
f 15 17 18
f 15 18 19
f 15 19 20
f 15 20 21
f 15 21 22
f 22 21 23
f 22 23 7
f 22 7 4
f 4 7 24
f 4 24 5
f 5 24 6
f 6 24 7
f 25 8 7
f 25 7 26
f 25 26 27
f 25 27 28
f 25 28 29
f 25 29 8
f 8 29 30
f 8 30 9
f 9 30 31
f 9 31 10
f 10 31 32
f 10 32 33
f 10 33 11
f 11 33 17
f 11 17 34
f 11 34 12
f 12 34 16
f 12 16 14
f 12 14 35
f 12 35 13
f 13 35 14
f 27 26 19
f 27 19 36
f 27 36 37
f 27 37 28
f 28 37 38
f 28 38 39
f 28 39 29
f 29 39 40
f 29 40 30
f 30 40 41
f 30 41 31
f 31 41 42
f 31 42 32
f 32 42 43
f 32 43 44
f 32 44 33
f 33 44 45
f 33 45 17
f 17 45 18
f 18 45 36
f 18 36 19
f 44 46 45
f 45 46 36
f 36 46 37
f 37 46 47
f 37 47 38
f 38 47 48
f 38 48 39
f 39 48 40
f 40 48 41
f 41 48 42
f 42 48 43
f 43 48 47
f 43 47 49
f 43 49 44
f 44 49 46
f 46 49 47
f 16 34 17
f 50 23 51
f 50 51 26
f 50 26 7
f 50 7 23
f 51 20 19
f 51 19 26
f 23 52 51
f 51 52 20
f 20 52 21
f 21 52 23
