# RS2 Model 11463
# Vertices: 875
# Faces: 1236

v -55 231 391
v 54 231 391
v 40 256 392
v -54 256 392
v -112 256 392
v -112 255 392
v -112 231 391
v -32 231 343
v 30 231 343
v 112 231 391
v 112 256 392
v 112 256 292
v 112 199 359
v 112 164 357
v 112 127 339
v 112 127 296
v 112 95 272
v 112 63 246
v 112 31 122
v 112 31 246
v 112 31 222
v 112 -15 222
v 112 -14 188
v 112 -64 188
v 112 -65 188
v 112 -65 147
v 112 -97 147
v 112 -97 122
v 112 -129 0
v 112 -129 122
v 112 -129 87
v 112 -161 87
v 112 -161 72
v 112 -193 72
v 112 -193 48
v 112 -225 48
v 112 -225 23
v 112 -225 0
v 112 -257 0
v 112 -257 23
v 80 -257 0
v 80 -257 23
v 60 -257 22
v 59 -257 0
v -54 -257 0
v -52 -257 22
v -80 -257 0
v -80 -257 22
v -112 -257 0
v -112 -257 23
v -112 -225 0
v -112 -225 23
v -112 -129 0
v -112 -193 48
v -112 -161 72
v -112 -129 98
v -112 -97 122
v -112 -65 122
v -112 31 122
v -112 -65 188
v -112 -14 188
v -112 63 224
v -112 256 290
v -112 95 272
v -112 127 296
v -112 164 357
v -112 199 359
v -112 199 391
v 32 199 359
v 112 199 391
v -32 199 359
v -50 164 356
v 65 164 352
v 80 127 420
v 112 127 420
v 80 127 296
v 80 95 396
v 80 95 420
v 112 95 420
v 112 95 396
v 112 95 296
v 57 95 296
v 57 95 267
v 112 63 272
v 64 63 267
v 62 63 222
v 62 31 222
v 71 -15 222
v 68 -14 187
v 76 -64 184
v 75 -65 139
v 69 -97 138
v 68 -97 118
v 64 -129 118
v 64 -129 82
v 65 -161 82
v 62 -161 48
v 62 -193 48
v 62 -193 22
v 62 -225 22
v 80 95 296
v 88 47 359
v 104 47 359
v 104 47 343
v 88 47 343
v 88 31 348
v 88 31 343
v 104 31 348
v 104 31 343
v 104 31 246
v 104 47 246
v 88 47 246
v 88 31 246
v 80 28 343
v 80 -5 343
v 112 -5 343
v 112 -225 185
v 112 -225 157
v 112 28 343
v -112 127 420
v -80 127 420
v -80 127 296
v -112 95 396
v -112 95 420
v -80 95 420
v -80 95 396
v -80 95 296
v -112 95 296
v -63 95 296
v -60 127 296
v -112 127 320
v -50 164 321
v -112 28 343
v -112 -5 343
v -80 -5 343
v -80 -225 185
v -80 -225 157
v -80 28 343
v 80 -225 157
v 80 -225 185
v 112 -257 185
v 80 -225 23
v 80 -257 185
v 88 -49 287
v 104 -49 287
v 104 -49 188
v 88 -49 188
v 88 -65 275
v 88 -65 188
v 104 -65 275
v 104 -65 188
v 88 -137 224
v 104 -137 224
v 104 -137 87
v 88 -137 87
v 88 -153 211
v 88 -153 87
v 104 -153 211
v 104 -153 87
v -104 -49 287
v -88 -49 287
v -88 -49 188
v -104 -49 188
v -104 -65 275
v -104 -65 188
v -88 -65 275
v -88 -65 188
v -104 -137 224
v -88 -137 224
v -88 -137 98
v -104 -137 98
v -104 -153 211
v -104 -153 98
v -88 -153 211
v -88 -153 98
v -80 -257 185
v -112 -225 185
v -112 -257 185
v -80 -225 23
v -112 -225 157
v -50 -225 22
v -50 -193 48
v -50 -193 22
v -50 -161 48
v -112 -193 72
v -50 -161 86
v -112 -161 98
v -50 -129 86
v -51 -129 118
v -112 -129 122
v -51 -97 118
v -50 -65 130
v -52 -64 184
v -57 -14 187
v -55 -15 222
v -112 -15 222
v -50 63 222
v -52 63 267
v -112 63 272
v -62 95 267
v 62 127 296
v 62 164 321
v -112 -225 48
v 88 -257 251
v 80 -249 251
v 86 -246 209
v 91 -251 209
v 104 -257 251
v 101 -251 260
v 91 -251 260
v 86 -246 260
v 80 -233 251
v 86 -236 209
v 80 -233 185
v 80 -249 185
v 88 -257 185
v 101 -251 209
v 112 -249 251
v 106 -246 260
v 91 -231 260
v 86 -236 260
v 88 -225 251
v 91 -231 209
v 88 -225 185
v 104 -225 251
v 101 -231 209
v 104 -225 185
v 112 -233 251
v 106 -236 209
v 112 -233 185
v 106 -246 209
v 112 -249 185
v 104 -257 185
v 106 -236 260
v 101 -231 260
v 79 127 202
v 111 127 202
v 111 127 0
v 79 127 0
v 79 95 202
v 79 95 0
v 111 95 202
v 111 95 0
v -111 127 202
v -79 127 202
v -79 127 0
v -111 127 0
v -111 95 202
v -111 95 0
v -79 95 202
v -79 95 0
v -104 -257 251
v -112 -249 251
v -106 -246 209
v -101 -251 209
v -88 -257 251
v -91 -251 260
v -101 -251 260
v -106 -246 260
v -112 -233 251
v -106 -236 209
v -112 -233 185
v -112 -249 185
v -104 -257 185
v -91 -251 209
v -80 -249 251
v -86 -246 260
v -101 -231 260
v -106 -236 260
v -104 -225 251
v -101 -231 209
v -104 -225 185
v -88 -225 251
v -91 -231 209
v -88 -225 185
v -80 -233 251
v -86 -236 209
v -80 -233 185
v -86 -246 209
v -80 -249 185
v -88 -257 185
v -86 -236 260
v -91 -231 260
v -98 -186 142
v -98 -187 141
v -98 -190 140
v -98 -187 146
v -98 -179 147
v -98 -178 144
v -98 -176 149
v -98 -175 144
v -98 -176 133
v -98 -178 134
v -98 -179 133
v -98 -188 147
v -98 -192 146
v -98 -193 154
v -98 -190 154
v -98 -194 157
v -98 -191 159
v -98 -182 157
v -98 -184 154
v -98 -182 153
v -98 -193 144
v -98 -192 142
v -98 -201 138
v -98 -202 141
v -98 -205 137
v -98 -205 140
v -98 -202 150
v -98 -199 149
v -98 -198 150
v -98 -177 132
v -98 -184 125
v -98 -185 129
v -98 -188 129
v -98 -167 127
v -98 -168 126
v -98 -164 126
v -98 -165 124
v -98 -175 121
v -98 -176 122
v -98 -181 109
v -98 -181 113
v -98 -185 112
v -98 -187 125
v -98 -196 127
v -98 -194 130
v -98 -197 131
v -98 -152 114
v -98 -181 156
v -98 -178 163
v -98 -176 162
v -98 -177 165
v -98 -175 164
v -98 -173 156
v -98 -175 154
v -98 -165 151
v -98 -168 150
v -98 -167 147
v -98 -153 194
v -98 -198 129
v -98 -201 119
v -98 -204 120
v -98 -203 116
v -98 -205 118
v -98 -208 126
v -98 -207 128
v -98 -218 132
v -98 -213 133
v -98 -214 137
v -98 -225 82
v -98 -201 152
v -98 -209 155
v -98 -208 156
v -98 -211 156
v -98 -210 158
v -98 -204 161
v -98 -202 160
v -98 -196 168
v -98 -196 165
v -98 -192 165
v -98 -164 147
v -98 -167 137
v -98 -169 138
v -98 -151 151
v -98 -193 170
v -98 -186 165
v -98 -188 163
v -98 -196 178
v -98 -183 108
v -98 -194 114
v -98 -193 116
v -98 -174 71
v -98 -218 136
v -98 -211 146
v -98 -209 145
v -98 -220 162
v -98 -214 166
v -98 -225 125
v -98 -226 134
v 105 -5 267
v 105 -9 265
v 105 -6 266
v 105 3 259
v 105 2 258
v 105 5 258
v 105 3 269
v 105 6 269
v 105 5 274
v 105 2 272
v 105 -6 271
v 105 -7 272
v 105 -11 271
v 105 -12 269
v 105 -11 267
v 105 -13 255
v 105 -16 256
v 105 -15 252
v 105 -7 254
v 105 -6 250
v 105 -2 251
v 105 -4 254
v 105 4 257
v 105 14 252
v 105 13 251
v 105 17 251
v 105 12 263
v 105 14 262
v 105 14 272
v 105 17 272
v 105 16 276
v 105 13 275
v 105 16 249
v 105 33 235
v 105 -3 279
v 105 -1 278
v 105 -1 282
v 105 -9 279
v 105 -10 284
v 105 -13 282
v 105 -12 279
v 105 0 281
v 105 3 288
v 105 5 287
v 105 4 290
v 105 -7 288
v 105 -5 290
v 105 -11 290
v 105 -12 295
v 105 -15 293
v 105 -15 290
v 105 6 289
v 105 31 322
v 105 -17 254
v 105 -20 244
v 105 -23 245
v 105 -22 241
v 105 -12 241
v 105 -13 239
v 105 -6 237
v 105 -4 233
v 105 -2 234
v 105 -2 238
v 105 -24 243
v 105 -50 202
v 105 -18 274
v 105 -17 275
v 105 -21 275
v 105 -21 266
v 105 -24 265
v 105 -24 262
v 105 -20 263
v 105 -20 277
v 105 -28 280
v 105 -27 281
v 105 -30 281
v 105 -28 270
v 105 -30 271
v 105 -33 262
v 105 -37 261
v 105 -37 257
v 105 -32 258
v 105 -29 283
v 105 -44 291
v 105 -38 295
v 105 32 277
v 105 -16 311
v 105 0 222
v 105 -21 285
v 105 -23 286
v 105 -27 251
v 105 -26 253
v 105 5 247
v 105 6 246
v 105 6 279
v 105 8 281
v 105 -49 247
v 105 -50 256
v -97 -186 142
v -97 -190 140
v -97 -187 141
v -97 -178 134
v -97 -179 133
v -97 -176 133
v -97 -178 144
v -97 -175 144
v -97 -176 149
v -97 -179 147
v -97 -187 146
v -97 -188 147
v -97 -192 146
v -97 -193 144
v -97 -192 142
v -97 -194 130
v -97 -197 131
v -97 -196 127
v -97 -188 129
v -97 -187 125
v -97 -184 125
v -97 -185 129
v -97 -177 132
v -97 -167 127
v -97 -168 126
v -97 -164 126
v -97 -169 138
v -97 -167 137
v -97 -167 147
v -97 -164 147
v -97 -165 151
v -97 -168 150
v -97 -165 124
v -97 -152 114
v -97 -184 154
v -97 -182 153
v -97 -182 157
v -97 -190 154
v -97 -191 159
v -97 -194 157
v -97 -193 154
v -97 -181 156
v -97 -178 163
v -97 -176 162
v -97 -177 165
v -97 -188 163
v -97 -186 165
v -97 -192 165
v -97 -193 170
v -97 -196 168
v -97 -196 165
v -97 -175 164
v -97 -153 194
v -97 -198 129
v -97 -201 119
v -97 -204 120
v -97 -203 116
v -97 -193 116
v -97 -194 114
v -97 -185 112
v -97 -183 108
v -97 -181 109
v -97 -181 113
v -97 -205 118
v -97 -225 82
v -97 -199 149
v -97 -198 150
v -97 -202 150
v -97 -202 141
v -97 -205 140
v -97 -205 137
v -97 -201 138
v -97 -201 152
v -97 -209 155
v -97 -208 156
v -97 -211 156
v -97 -209 145
v -97 -211 146
v -97 -214 137
v -97 -218 136
v -97 -218 132
v -97 -213 133
v -97 -210 158
v -97 -220 162
v -97 -214 166
v -97 -151 151
v -97 -196 178
v -97 -174 71
v -97 -202 160
v -97 -204 161
v -97 -208 126
v -97 -207 128
v -97 -176 122
v -97 -175 121
v -97 -175 154
v -97 -173 156
v -97 -225 125
v -97 -226 134
v 104 -5 267
v 104 -6 266
v 104 -9 265
v 104 -6 271
v 104 2 272
v 104 3 269
v 104 5 274
v 104 6 269
v 104 5 258
v 104 3 259
v 104 2 258
v 104 -7 272
v 104 -11 271
v 104 -12 279
v 104 -9 279
v 104 -13 282
v 104 -10 284
v 104 -1 282
v 104 -3 279
v 104 -1 278
v 104 -12 269
v 104 -11 267
v 104 -20 263
v 104 -21 266
v 104 -24 262
v 104 -24 265
v 104 -21 275
v 104 -18 274
v 104 -17 275
v 104 4 257
v 104 -2 251
v 104 -4 254
v 104 -7 254
v 104 14 252
v 104 13 251
v 104 17 251
v 104 16 249
v 104 6 246
v 104 5 247
v 104 -2 234
v 104 -2 238
v 104 -6 237
v 104 -6 250
v 104 -15 252
v 104 -13 255
v 104 -16 256
v 104 33 235
v 104 0 281
v 104 3 288
v 104 5 287
v 104 4 290
v 104 6 289
v 104 8 281
v 104 6 279
v 104 16 276
v 104 13 275
v 104 14 272
v 104 31 322
v 104 -17 254
v 104 -20 244
v 104 -23 245
v 104 -22 241
v 104 -24 243
v 104 -27 251
v 104 -26 253
v 104 -37 257
v 104 -32 258
v 104 -33 262
v 104 -50 202
v 104 -20 277
v 104 -28 280
v 104 -27 281
v 104 -30 281
v 104 -29 283
v 104 -23 286
v 104 -21 285
v 104 -15 293
v 104 -15 290
v 104 -11 290
v 104 17 272
v 104 14 262
v 104 12 263
v 104 32 277
v 104 -12 295
v 104 -5 290
v 104 -7 288
v 104 -16 311
v 104 -4 233
v 104 -13 239
v 104 -12 241
v 104 0 222
v 104 -37 261
v 104 -30 271
v 104 -28 270
v 104 -44 291
v 104 -38 295
v 104 -49 247
v 104 -50 256
v -45 -56 216
v -45 -56 218
v -47 -56 220
v -47 -56 214
v -43 -56 210
v -41 -56 212
v -41 -56 208
v -38 -56 210
v -34 -56 214
v -36 -56 214
v -36 -56 216
v -49 -56 214
v -51 -56 216
v -56 -56 212
v -53 -56 210
v -58 -56 210
v -56 -56 208
v -49 -56 205
v -49 -56 208
v -47 -56 208
v -51 -56 218
v -49 -56 220
v -51 -56 225
v -53 -56 223
v -53 -56 227
v -56 -56 225
v -60 -56 218
v -58 -56 218
v -58 -56 216
v -34 -56 216
v -38 -56 223
v -41 -56 220
v -43 -56 223
v -23 -56 210
v -23 -56 212
v -21 -56 208
v -19 -56 210
v -28 -56 223
v -30 -56 223
v -30 -56 232
v -34 -56 230
v -36 -56 232
v -41 -56 225
v -47 -56 230
v -47 -56 227
v -49 -56 227
v -47 -56 205
v -49 -56 197
v -47 -56 197
v -49 -56 195
v -47 -56 195
v -43 -56 201
v -43 -56 203
v -34 -56 201
v -36 -56 203
v -34 -56 205
v -49 -56 230
v -47 -56 238
v -49 -56 238
v -47 -56 240
v -49 -56 240
v -53 -56 238
v -53 -56 235
v -68 -56 245
v -66 -56 242
v -68 -56 240
v -60 -56 216
v -68 -56 218
v -68 -56 216
v -71 -56 218
v -71 -56 216
v -68 -56 212
v -66 -56 212
v -71 -56 201
v -68 -56 203
v -66 -56 201
v -30 -56 203
v -28 -56 208
v -30 -56 210
v -68 -56 197
v -56 -56 201
v -56 -56 203
v -34 -56 235
v -41 -56 238
v -41 -56 235
v -71 -56 242
v -68 -56 227
v -66 -56 227
v -86 -56 223
v -86 -56 216
v -86 -56 275
v -86 -56 257
v -86 -56 186
v -76 -56 186
v -21 -56 186
v -13 -56 186
v -49 -56 186
v -45 -56 186
v 16 -56 186
v 24 -56 186
v -45 -55 216
v -47 -55 220
v -45 -55 218
v -36 -55 214
v -36 -55 216
v -34 -55 214
v -41 -55 212
v -38 -55 210
v -41 -55 208
v -43 -55 210
v -47 -55 214
v -49 -55 214
v -51 -55 216
v -51 -55 218
v -49 -55 220
v -47 -55 227
v -49 -55 227
v -47 -55 230
v -43 -55 223
v -41 -55 225
v -38 -55 223
v -41 -55 220
v -34 -55 216
v -23 -55 210
v -23 -55 212
v -21 -55 208
v -30 -55 210
v -28 -55 208
v -34 -55 205
v -30 -55 203
v -34 -55 201
v -36 -55 203
v -19 -55 210
v 16 -55 186
v 24 -55 186
v -49 -55 208
v -47 -55 208
v -49 -55 205
v -53 -55 210
v -56 -55 208
v -58 -55 210
v -56 -55 212
v -47 -55 205
v -49 -55 197
v -47 -55 197
v -49 -55 195
v -56 -55 203
v -56 -55 201
v -66 -55 201
v -68 -55 197
v -71 -55 201
v -68 -55 203
v -47 -55 195
v -49 -55 186
v -45 -55 186
v -49 -55 230
v -47 -55 238
v -49 -55 238
v -47 -55 240
v -41 -55 235
v -41 -55 238
v -36 -55 232
v -34 -55 235
v -30 -55 232
v -34 -55 230
v -49 -55 240
v -53 -55 238
v -53 -55 235
v -68 -55 245
v -66 -55 242
v -68 -55 240
v -71 -55 242
v -86 -55 275
v -86 -55 257
v -58 -55 218
v -58 -55 216
v -60 -55 218
v -53 -55 223
v -56 -55 225
v -53 -55 227
v -51 -55 225
v -60 -55 216
v -68 -55 218
v -68 -55 216
v -71 -55 218
v -66 -55 227
v -68 -55 227
v -71 -55 216
v -86 -55 223
v -86 -55 216
v -66 -55 212
v -68 -55 212
v -30 -55 223
v -28 -55 223
v -43 -55 203
v -43 -55 201
v -86 -55 186
v -76 -55 186
v -21 -55 186
v -13 -55 186

f 1 2 3
f 1 3 4
f 1 4 5
f 1 5 6
f 1 6 7
f 1 7 8
f 1 8 2
f 2 8 9
f 2 9 10
f 2 10 3
f 3 10 11
f 11 10 12
f 12 10 13
f 12 13 14
f 12 14 15
f 12 15 16
f 12 16 17
f 12 17 18
f 12 18 19
f 19 18 20
f 19 20 21
f 19 21 22
f 19 22 23
f 19 23 24
f 19 24 25
f 19 25 26
f 19 26 27
f 19 27 28
f 19 28 29
f 29 28 30
f 29 30 31
f 29 31 32
f 29 32 33
f 29 33 34
f 29 34 35
f 29 35 36
f 29 36 37
f 29 37 38
f 38 37 39
f 39 37 40
f 39 40 41
f 41 40 42
f 41 42 43
f 41 43 44
f 44 43 45
f 45 43 46
f 45 46 47
f 47 46 48
f 47 48 49
f 49 48 50
f 49 50 51
f 51 50 52
f 51 52 53
f 53 52 54
f 53 54 55
f 53 55 56
f 53 56 57
f 53 57 58
f 53 58 59
f 59 58 60
f 59 60 61
f 59 61 62
f 59 62 63
f 63 62 64
f 63 64 65
f 63 65 66
f 63 66 67
f 63 67 68
f 63 68 7
f 63 7 5
f 5 7 6
f 69 13 70
f 69 70 9
f 69 9 8
f 69 8 71
f 69 71 72
f 69 72 73
f 69 73 14
f 69 14 13
f 68 67 71
f 68 71 7
f 7 71 8
f 70 10 9
f 10 70 13
f 74 75 16
f 74 16 76
f 74 76 77
f 74 77 78
f 74 78 75
f 75 78 79
f 75 79 80
f 75 80 81
f 75 81 16
f 16 81 17
f 17 81 82
f 17 82 83
f 17 83 84
f 17 84 18
f 18 84 85
f 18 85 86
f 18 86 20
f 20 86 87
f 20 87 21
f 21 87 22
f 22 87 88
f 22 88 23
f 23 88 89
f 23 89 24
f 24 89 90
f 24 90 25
f 25 90 26
f 26 90 91
f 26 91 27
f 27 91 92
f 27 92 28
f 28 92 93
f 28 93 30
f 30 93 94
f 30 94 31
f 31 94 95
f 31 95 32
f 32 95 96
f 32 96 33
f 33 96 97
f 33 97 34
f 34 97 98
f 34 98 35
f 35 98 99
f 35 99 36
f 36 99 100
f 36 100 37
f 80 77 101
f 80 101 81
f 77 76 101
f 102 103 104
f 102 104 105
f 102 105 106
f 106 105 107
f 106 107 108
f 108 107 109
f 108 109 103
f 103 109 104
f 104 109 110
f 104 110 111
f 104 111 105
f 105 111 112
f 105 112 107
f 107 112 113
f 107 113 109
f 109 113 110
f 114 115 78
f 114 78 77
f 116 79 78
f 116 78 115
f 116 115 117
f 116 117 118
f 116 118 119
f 116 119 79
f 79 119 80
f 120 121 122
f 120 122 65
f 120 65 123
f 120 123 124
f 120 124 121
f 121 124 125
f 121 125 126
f 121 126 127
f 121 127 122
f 126 123 128
f 126 128 127
f 123 65 128
f 128 65 64
f 128 64 129
f 128 129 65
f 65 129 130
f 65 130 131
f 65 131 66
f 66 131 130
f 66 130 132
f 66 132 72
f 66 72 67
f 67 72 71
f 133 134 124
f 133 124 123
f 135 125 124
f 135 124 134
f 135 134 136
f 135 136 137
f 135 137 138
f 135 138 125
f 125 138 126
f 139 140 115
f 139 115 114
f 117 115 140
f 117 140 141
f 117 141 118
f 118 141 40
f 118 40 37
f 118 37 139
f 139 37 142
f 139 142 143
f 139 143 140
f 140 143 141
f 141 143 42
f 141 42 40
f 144 145 146
f 144 146 147
f 144 147 148
f 148 147 149
f 148 149 150
f 150 149 151
f 150 151 145
f 145 151 146
f 152 153 154
f 152 154 155
f 152 155 156
f 156 155 157
f 156 157 158
f 158 157 159
f 158 159 153
f 153 159 154
f 160 161 162
f 160 162 163
f 160 163 164
f 164 163 165
f 164 165 166
f 166 165 167
f 166 167 161
f 161 167 162
f 168 169 170
f 168 170 171
f 168 171 172
f 172 171 173
f 172 173 174
f 174 173 175
f 174 175 169
f 169 175 170
f 176 137 136
f 176 136 177
f 176 177 178
f 176 178 50
f 176 50 48
f 176 48 137
f 137 48 179
f 137 179 180
f 180 179 52
f 180 52 178
f 180 178 177
f 180 177 134
f 180 134 133
f 42 142 100
f 42 100 43
f 43 100 46
f 46 100 181
f 46 181 48
f 48 181 179
f 182 183 99
f 182 99 98
f 182 98 184
f 182 184 55
f 182 55 185
f 182 185 54
f 182 54 183
f 183 54 181
f 183 181 100
f 183 100 99
f 98 97 184
f 184 97 186
f 184 186 55
f 55 186 187
f 55 187 56
f 56 187 186
f 56 186 188
f 56 188 189
f 56 189 190
f 56 190 57
f 57 190 189
f 57 189 191
f 57 191 58
f 58 191 192
f 58 192 193
f 58 193 60
f 60 193 61
f 61 193 194
f 61 194 195
f 61 195 196
f 61 196 62
f 62 196 197
f 62 197 198
f 62 198 199
f 62 199 64
f 64 199 198
f 64 198 200
f 64 200 129
f 129 200 82
f 129 82 201
f 129 201 130
f 130 201 132
f 132 201 202
f 132 202 72
f 72 202 73
f 73 202 14
f 14 202 15
f 15 202 201
f 15 201 16
f 16 201 82
f 16 82 81
f 54 185 55
f 52 203 54
f 54 203 181
f 181 203 52
f 87 86 197
f 87 197 195
f 87 195 88
f 88 195 194
f 88 194 89
f 89 194 193
f 89 193 90
f 90 193 192
f 90 192 91
f 91 192 191
f 91 191 92
f 92 191 93
f 93 191 189
f 93 189 94
f 94 189 188
f 94 188 95
f 95 188 186
f 95 186 96
f 96 186 97
f 143 142 42
f 178 52 50
f 204 205 206
f 204 206 207
f 204 207 208
f 204 208 209
f 204 209 210
f 204 210 205
f 205 210 211
f 205 211 212
f 205 212 213
f 205 213 206
f 206 213 214
f 206 214 215
f 206 215 207
f 207 215 216
f 207 216 217
f 207 217 208
f 208 217 218
f 208 218 219
f 208 219 209
f 209 219 220
f 209 220 210
f 210 220 211
f 211 220 221
f 211 221 212
f 212 221 222
f 212 222 223
f 212 223 213
f 213 223 224
f 213 224 214
f 222 225 226
f 222 226 223
f 223 226 227
f 223 227 224
f 225 228 229
f 225 229 226
f 226 229 230
f 226 230 227
f 228 218 231
f 228 231 229
f 229 231 232
f 229 232 230
f 218 217 231
f 231 217 233
f 231 233 232
f 217 216 233
f 220 219 234
f 220 234 235
f 220 235 225
f 220 225 222
f 220 222 221
f 234 219 218
f 234 218 228
f 234 228 235
f 235 228 225
f 195 197 196
f 198 197 86
f 198 86 85
f 198 85 83
f 198 83 200
f 200 83 82
f 84 83 85
f 136 134 177
f 236 237 238
f 236 238 239
f 236 239 240
f 240 239 241
f 240 241 242
f 242 241 243
f 242 243 237
f 237 243 238
f 244 245 246
f 244 246 247
f 244 247 248
f 248 247 249
f 248 249 250
f 250 249 251
f 250 251 245
f 245 251 246
f 252 253 254
f 252 254 255
f 252 255 256
f 252 256 257
f 252 257 258
f 252 258 253
f 253 258 259
f 253 259 260
f 253 260 261
f 253 261 254
f 254 261 262
f 254 262 263
f 254 263 255
f 255 263 264
f 255 264 265
f 255 265 256
f 256 265 266
f 256 266 267
f 256 267 257
f 257 267 268
f 257 268 258
f 258 268 259
f 259 268 269
f 259 269 260
f 260 269 270
f 260 270 271
f 260 271 261
f 261 271 272
f 261 272 262
f 270 273 274
f 270 274 271
f 271 274 275
f 271 275 272
f 273 276 277
f 273 277 274
f 274 277 278
f 274 278 275
f 276 266 279
f 276 279 277
f 277 279 280
f 277 280 278
f 266 265 279
f 279 265 281
f 279 281 280
f 265 264 281
f 268 267 282
f 268 282 283
f 268 283 273
f 268 273 270
f 268 270 269
f 282 267 266
f 282 266 276
f 282 276 283
f 283 276 273
f 284 285 286
f 284 286 287
f 284 287 288
f 284 288 289
f 289 288 290
f 289 290 291
f 289 291 292
f 289 292 293
f 293 292 294
f 293 294 285
f 293 285 284
f 295 287 286
f 295 286 296
f 295 296 297
f 295 297 298
f 298 297 299
f 298 299 300
f 298 300 301
f 298 301 302
f 302 301 303
f 302 303 287
f 302 287 295
f 304 296 286
f 304 286 305
f 304 305 306
f 304 306 307
f 307 306 308
f 307 308 309
f 307 309 310
f 307 310 311
f 311 310 312
f 311 312 296
f 311 296 304
f 294 292 313
f 294 313 314
f 294 314 315
f 315 314 316
f 315 316 286
f 315 286 285
f 313 292 317
f 313 317 318
f 318 317 319
f 318 319 320
f 318 320 321
f 318 321 322
f 322 321 323
f 322 323 324
f 324 323 325
f 324 325 326
f 324 326 314
f 314 326 316
f 316 326 327
f 316 327 328
f 328 327 329
f 328 329 305
f 328 305 286
f 320 319 330
f 303 301 331
f 303 331 290
f 303 290 288
f 331 301 332
f 331 332 333
f 333 332 334
f 333 334 335
f 333 335 336
f 333 336 337
f 337 336 338
f 337 338 339
f 339 338 340
f 339 340 291
f 339 291 290
f 335 334 341
f 329 327 342
f 329 342 308
f 329 308 306
f 342 327 343
f 342 343 344
f 344 343 345
f 344 345 346
f 344 346 347
f 344 347 348
f 348 347 349
f 348 349 350
f 350 349 351
f 350 351 309
f 350 309 308
f 346 345 352
f 312 310 353
f 312 353 299
f 312 299 297
f 353 310 354
f 353 354 355
f 355 354 356
f 355 356 357
f 355 357 358
f 355 358 359
f 359 358 360
f 359 360 361
f 361 360 362
f 361 362 300
f 361 300 299
f 340 338 363
f 340 363 364
f 340 364 365
f 365 364 319
f 365 319 317
f 363 338 366
f 362 360 367
f 362 367 368
f 362 368 369
f 369 368 334
f 369 334 332
f 367 360 370
f 325 323 371
f 325 371 372
f 325 372 373
f 373 372 345
f 373 345 343
f 371 323 374
f 351 349 375
f 351 375 376
f 351 376 377
f 377 376 356
f 377 356 354
f 357 356 378
f 357 378 379
f 375 349 380
f 375 380 381
f 382 383 384
f 382 384 385
f 385 384 386
f 385 386 387
f 385 387 388
f 388 387 389
f 388 389 390
f 388 390 391
f 388 391 382
f 382 391 392
f 382 392 383
f 383 392 393
f 383 393 394
f 383 394 395
f 383 395 396
f 383 396 397
f 397 396 398
f 397 398 399
f 397 399 400
f 400 399 401
f 400 401 402
f 400 402 403
f 400 403 383
f 383 403 384
f 387 386 404
f 387 404 405
f 405 404 406
f 405 406 407
f 405 407 408
f 408 407 409
f 408 409 410
f 410 409 411
f 410 411 412
f 410 412 413
f 410 413 389
f 389 413 390
f 407 406 414
f 407 414 415
f 416 393 392
f 416 392 417
f 416 417 418
f 416 418 419
f 419 418 420
f 419 420 421
f 419 421 422
f 419 422 393
f 393 422 394
f 418 417 423
f 418 423 424
f 424 423 425
f 424 425 426
f 424 426 427
f 427 426 428
f 427 428 429
f 429 428 430
f 429 430 431
f 429 431 432
f 429 432 420
f 420 432 421
f 426 425 433
f 426 433 434
f 399 398 435
f 399 435 436
f 436 435 437
f 436 437 438
f 436 438 439
f 439 438 440
f 439 440 441
f 441 440 442
f 441 442 443
f 441 443 444
f 441 444 401
f 401 444 402
f 438 437 445
f 438 445 446
f 447 395 394
f 447 394 448
f 447 448 449
f 447 449 450
f 450 449 451
f 450 451 452
f 450 452 453
f 450 453 395
f 395 453 396
f 449 448 454
f 449 454 455
f 455 454 456
f 455 456 457
f 455 457 458
f 458 457 459
f 458 459 460
f 460 459 461
f 460 461 462
f 460 462 463
f 460 463 451
f 451 463 452
f 457 456 464
f 457 464 465
f 465 464 466
f 411 467 412
f 430 468 431
f 442 469 443
f 390 423 417
f 390 417 391
f 448 422 421
f 448 421 454
f 402 404 386
f 402 386 403
f 398 453 452
f 398 452 435
f 470 432 431
f 470 431 471
f 470 471 456
f 456 471 464
f 472 445 437
f 472 437 473
f 472 473 462
f 462 473 463
f 474 444 443
f 474 443 475
f 474 475 406
f 406 475 414
f 476 413 412
f 476 412 477
f 476 477 425
f 425 477 433
f 478 462 461
f 478 461 479
f 480 481 482
f 480 482 483
f 483 482 484
f 483 484 485
f 483 485 486
f 486 485 487
f 486 487 488
f 486 488 489
f 486 489 480
f 480 489 490
f 480 490 481
f 481 490 491
f 481 491 492
f 481 492 493
f 481 493 494
f 481 494 495
f 495 494 496
f 495 496 497
f 495 497 498
f 498 497 499
f 498 499 500
f 498 500 501
f 498 501 481
f 481 501 482
f 485 484 502
f 485 502 503
f 503 502 504
f 503 504 505
f 503 505 506
f 506 505 507
f 506 507 508
f 508 507 509
f 508 509 510
f 508 510 511
f 508 511 487
f 487 511 488
f 505 504 512
f 505 512 513
f 514 491 490
f 514 490 515
f 514 515 516
f 514 516 517
f 517 516 518
f 517 518 519
f 517 519 520
f 517 520 491
f 491 520 492
f 516 515 521
f 516 521 522
f 522 521 523
f 522 523 524
f 522 524 525
f 525 524 526
f 525 526 527
f 527 526 528
f 527 528 529
f 527 529 530
f 527 530 518
f 518 530 519
f 524 523 531
f 524 531 532
f 497 496 533
f 497 533 534
f 534 533 535
f 534 535 536
f 534 536 537
f 537 536 538
f 537 538 539
f 539 538 540
f 539 540 541
f 539 541 542
f 539 542 499
f 499 542 500
f 536 535 543
f 536 543 544
f 545 493 492
f 545 492 546
f 545 546 547
f 545 547 548
f 548 547 549
f 548 549 550
f 548 550 551
f 548 551 493
f 493 551 494
f 547 546 552
f 547 552 553
f 553 552 554
f 553 554 555
f 553 555 556
f 556 555 557
f 556 557 558
f 558 557 559
f 558 559 560
f 558 560 561
f 558 561 549
f 549 561 550
f 555 554 562
f 555 562 563
f 563 562 564
f 509 565 510
f 528 566 529
f 540 567 541
f 488 521 515
f 488 515 489
f 546 520 519
f 546 519 552
f 500 502 484
f 500 484 501
f 496 551 550
f 496 550 533
f 568 530 529
f 568 529 569
f 568 569 554
f 554 569 562
f 570 543 535
f 570 535 571
f 570 571 560
f 560 571 561
f 572 542 541
f 572 541 573
f 572 573 504
f 504 573 512
f 574 511 510
f 574 510 575
f 574 575 523
f 523 575 531
f 576 560 559
f 576 559 577
f 578 579 580
f 578 580 581
f 578 581 582
f 578 582 583
f 583 582 584
f 583 584 585
f 583 585 586
f 583 586 587
f 587 586 588
f 587 588 579
f 587 579 578
f 589 581 580
f 589 580 590
f 589 590 591
f 589 591 592
f 592 591 593
f 592 593 594
f 592 594 595
f 592 595 596
f 596 595 597
f 596 597 581
f 596 581 589
f 598 590 580
f 598 580 599
f 598 599 600
f 598 600 601
f 601 600 602
f 601 602 603
f 601 603 604
f 601 604 605
f 605 604 606
f 605 606 590
f 605 590 598
f 588 586 607
f 588 607 608
f 588 608 609
f 609 608 610
f 609 610 580
f 609 580 579
f 607 586 611
f 607 611 612
f 612 611 613
f 612 613 614
f 612 614 615
f 612 615 616
f 616 615 617
f 616 617 618
f 618 617 619
f 618 619 620
f 618 620 608
f 608 620 610
f 610 620 621
f 610 621 622
f 622 621 623
f 622 623 599
f 622 599 580
f 614 613 624
f 597 595 625
f 597 625 584
f 597 584 582
f 625 595 626
f 625 626 627
f 627 626 628
f 627 628 629
f 627 629 630
f 627 630 631
f 631 630 632
f 631 632 633
f 633 632 634
f 633 634 585
f 633 585 584
f 629 628 635
f 623 621 636
f 623 636 602
f 623 602 600
f 636 621 637
f 636 637 638
f 638 637 639
f 638 639 640
f 638 640 641
f 638 641 642
f 642 641 643
f 642 643 644
f 644 643 645
f 644 645 603
f 644 603 602
f 640 639 646
f 606 604 647
f 606 647 593
f 606 593 591
f 647 604 648
f 647 648 649
f 649 648 650
f 649 650 651
f 649 651 652
f 649 652 653
f 653 652 654
f 653 654 655
f 655 654 656
f 655 656 594
f 655 594 593
f 634 632 657
f 634 657 658
f 634 658 659
f 659 658 613
f 659 613 611
f 657 632 660
f 656 654 661
f 656 661 662
f 656 662 663
f 663 662 628
f 663 628 626
f 661 654 664
f 619 617 665
f 619 665 666
f 619 666 667
f 667 666 639
f 667 639 637
f 665 617 668
f 645 643 669
f 645 669 670
f 645 670 671
f 671 670 650
f 671 650 648
f 651 650 672
f 651 672 673
f 669 643 674
f 669 674 675
f 676 677 678
f 676 678 679
f 676 679 680
f 676 680 681
f 681 680 682
f 681 682 683
f 681 683 684
f 681 684 685
f 685 684 686
f 685 686 677
f 685 677 676
f 687 679 678
f 687 678 688
f 687 688 689
f 687 689 690
f 690 689 691
f 690 691 692
f 690 692 693
f 690 693 694
f 694 693 695
f 694 695 679
f 694 679 687
f 696 688 678
f 696 678 697
f 696 697 698
f 696 698 699
f 699 698 700
f 699 700 701
f 699 701 702
f 699 702 703
f 703 702 704
f 703 704 688
f 703 688 696
f 686 684 705
f 686 705 706
f 686 706 707
f 707 706 708
f 707 708 678
f 707 678 677
f 705 684 709
f 705 709 710
f 710 709 711
f 710 711 712
f 710 712 713
f 710 713 714
f 714 713 715
f 714 715 716
f 716 715 717
f 716 717 718
f 716 718 706
f 706 718 708
f 708 718 719
f 708 719 720
f 720 719 721
f 720 721 697
f 720 697 678
f 695 693 722
f 695 722 682
f 695 682 680
f 722 693 723
f 722 723 724
f 724 723 725
f 724 725 726
f 724 726 727
f 724 727 728
f 728 727 729
f 728 729 730
f 730 729 731
f 730 731 683
f 730 683 682
f 721 719 732
f 721 732 700
f 721 700 698
f 732 719 733
f 732 733 734
f 734 733 735
f 734 735 736
f 734 736 737
f 734 737 738
f 738 737 739
f 738 739 740
f 740 739 741
f 740 741 701
f 740 701 700
f 704 702 742
f 704 742 691
f 704 691 689
f 742 702 743
f 742 743 744
f 744 743 745
f 744 745 746
f 744 746 747
f 744 747 748
f 748 747 749
f 748 749 750
f 750 749 751
f 750 751 692
f 750 692 691
f 731 729 752
f 731 752 753
f 731 753 754
f 754 753 711
f 754 711 709
f 751 749 755
f 751 755 756
f 751 756 757
f 757 756 725
f 757 725 723
f 717 715 758
f 717 758 759
f 717 759 760
f 760 759 735
f 760 735 733
f 741 739 761
f 741 761 762
f 741 762 763
f 763 762 745
f 763 745 743
f 746 745 764
f 746 764 765
f 761 739 766
f 761 766 767
f 755 749 768
f 755 768 769
f 752 729 770
f 752 770 771
f 726 725 772
f 726 772 773
f 712 711 774
f 712 774 775
f 776 777 778
f 776 778 779
f 779 778 780
f 779 780 781
f 779 781 782
f 782 781 783
f 782 783 784
f 782 784 785
f 782 785 776
f 776 785 786
f 776 786 777
f 777 786 787
f 777 787 788
f 777 788 789
f 777 789 790
f 777 790 791
f 791 790 792
f 791 792 793
f 791 793 794
f 794 793 795
f 794 795 796
f 794 796 797
f 794 797 777
f 777 797 778
f 781 780 798
f 781 798 799
f 799 798 800
f 799 800 801
f 799 801 802
f 802 801 803
f 802 803 804
f 804 803 805
f 804 805 806
f 804 806 807
f 804 807 783
f 783 807 784
f 801 800 808
f 801 808 809
f 809 808 810
f 811 787 786
f 811 786 812
f 811 812 813
f 811 813 814
f 814 813 815
f 814 815 816
f 814 816 817
f 814 817 787
f 787 817 788
f 813 812 818
f 813 818 819
f 819 818 820
f 819 820 821
f 819 821 822
f 822 821 823
f 822 823 824
f 824 823 825
f 824 825 826
f 824 826 827
f 824 827 815
f 815 827 816
f 821 820 828
f 821 828 829
f 829 828 830
f 793 792 831
f 793 831 832
f 832 831 833
f 832 833 834
f 832 834 835
f 835 834 836
f 835 836 837
f 837 836 838
f 837 838 839
f 837 839 840
f 837 840 795
f 795 840 796
f 834 833 841
f 841 833 842
f 842 833 843
f 842 843 844
f 844 843 845
f 844 845 846
f 844 846 847
f 844 847 848
f 848 847 849
f 850 789 788
f 850 788 851
f 850 851 852
f 850 852 853
f 853 852 854
f 853 854 855
f 853 855 856
f 853 856 789
f 789 856 790
f 852 851 857
f 852 857 858
f 858 857 859
f 858 859 860
f 858 860 861
f 861 860 862
f 861 862 846
f 846 862 847
f 860 859 863
f 860 863 864
f 864 863 865
f 845 855 854
f 845 854 846
f 784 818 812
f 784 812 785
f 851 817 816
f 851 816 857
f 796 798 780
f 796 780 797
f 792 856 855
f 792 855 831
f 866 827 826
f 866 826 867
f 866 867 859
f 859 867 863
f 868 840 839
f 868 839 869
f 868 869 800
f 800 869 808
f 870 807 806
f 870 806 871
f 870 871 820
f 820 871 828
f 872 826 825
f 872 825 873
f 874 806 805
f 874 805 875
