# RS2 Model 11495
# Vertices: 31
# Faces: 53

v -64 38 112
v -38 64 112
v -38 64 229
v -64 38 229
v -64 52 219
v -64 52 112
v -64 56 112
v -64 56 19
v -64 38 0
v -38 64 0
v -56 64 19
v -56 64 106
v -52 64 112
v -52 64 219
v -56 64 224
v -52 64 229
v -38 64 278
v -64 38 278
v -64 52 278
v -64 52 229
v -64 56 224
v -64 60 14
v -64 64 0
v -44 61 32
v -38 64 293
v -64 38 293
v -64 64 293
v -52 64 278
v -60 64 14
v -128 -27 293
v -129 -28 1

f 1 2 3
f 1 3 4
f 1 4 5
f 1 5 6
f 1 6 7
f 1 7 8
f 1 8 9
f 1 9 10
f 1 10 2
f 2 10 11
f 2 11 12
f 2 12 13
f 2 13 3
f 3 13 14
f 3 14 15
f 3 15 16
f 3 16 17
f 3 17 4
f 4 17 18
f 4 18 19
f 4 19 20
f 4 20 21
f 4 21 5
f 5 21 14
f 5 14 13
f 5 13 6
f 6 13 12
f 6 12 7
f 7 12 8
f 8 12 11
f 8 11 22
f 8 22 9
f 9 22 23
f 9 23 10
f 9 10 24
f 18 17 25
f 18 25 26
f 18 26 19
f 19 26 27
f 19 27 28
f 19 28 16
f 19 16 20
f 20 16 15
f 20 15 21
f 21 15 14
f 29 23 22
f 29 22 11
f 29 11 10
f 29 10 23
f 16 28 17
f 17 28 25
f 25 28 27
f 25 27 26
