# RS2 Model 11500
# Vertices: 113
# Faces: 205

v -32 -32 0
v -32 -27 0
v -32 -27 14
v -32 -32 14
v -36 -27 19
v -36 -36 19
v -36 -27 106
v -36 -36 106
v -40 -27 112
v -40 -40 112
v -40 -27 219
v -40 -40 219
v -36 -27 224
v -36 -36 224
v -40 -27 229
v -40 -40 229
v -40 -27 278
v -40 -40 278
v -28 -28 293
v -28 64 293
v -64 -27 293
v -64 -64 293
v -64 -40 278
v -64 -52 278
v -64 -40 229
v -64 -52 229
v -52 -52 229
v -52 -52 278
v -64 -60 14
v -64 -32 14
v -64 -32 0
v -64 -60 0
v -60 -60 0
v -60 -60 14
v -64 -56 19
v -64 -36 19
v -56 -27 19
v -60 -27 14
v -60 -27 0
v -64 -56 106
v -64 -36 106
v -56 -27 106
v -55 -24 100
v -55 -24 25
v -55 15 25
v -55 18 25
v -55 58 25
v -56 64 19
v -60 64 14
v -60 64 0
v -32 64 0
v -32 64 14
v -36 64 19
v -37 58 25
v -37 18 25
v -37 15 25
v -37 -24 25
v -37 -24 100
v -37 15 100
v -37 18 100
v -37 58 100
v -36 64 106
v -40 64 112
v -40 64 219
v -36 64 224
v -40 64 229
v -40 64 278
v -64 64 293
v -52 64 278
v -52 -27 278
v -52 -27 229
v -64 -36 224
v -64 -56 224
v -56 -56 224
v -64 -52 112
v -64 -40 112
v -52 -27 112
v -56 64 106
v -55 58 100
v -55 18 100
v -55 15 100
v -53 10 90
v -53 -19 90
v -53 -19 35
v -53 10 35
v -53 23 90
v -53 23 35
v -53 53 35
v -55 61 100
v -55 61 25
v -64 -52 219
v -64 -40 219
v -52 -27 219
v -52 64 112
v -37 61 100
v -37 61 25
v -39 53 90
v -39 53 35
v -39 23 35
v -39 10 90
v -39 10 35
v -39 -19 35
v -39 -19 90
v -56 -27 224
v -52 64 219
v -56 -56 19
v -56 -56 106
v -52 -52 112
v -52 -52 219
v -56 64 224
v -52 64 229
v -53 53 90
v -39 23 90

f 1 2 3
f 1 3 4
f 4 3 5
f 4 5 6
f 6 5 7
f 6 7 8
f 8 7 9
f 8 9 10
f 10 9 11
f 10 11 12
f 12 11 13
f 12 13 14
f 14 13 15
f 14 15 16
f 16 15 17
f 16 17 18
f 18 17 19
f 19 17 20
f 19 20 21
f 19 21 22
f 22 21 23
f 22 23 24
f 24 23 25
f 24 25 26
f 24 26 27
f 24 27 28
f 24 28 23
f 23 28 22
f 29 30 31
f 29 31 32
f 29 32 33
f 29 33 34
f 29 34 35
f 29 35 30
f 30 35 36
f 30 36 37
f 30 37 38
f 30 38 31
f 31 38 39
f 31 39 32
f 32 39 33
f 33 39 2
f 33 2 1
f 36 35 40
f 36 40 41
f 36 41 42
f 36 42 37
f 37 42 43
f 37 43 44
f 37 44 45
f 37 45 46
f 37 46 47
f 37 47 48
f 37 48 49
f 37 49 38
f 38 49 50
f 38 50 39
f 39 50 51
f 39 51 2
f 2 51 52
f 2 52 3
f 3 52 53
f 3 53 5
f 5 53 54
f 5 54 55
f 5 55 56
f 5 56 57
f 5 57 7
f 7 57 58
f 7 58 59
f 7 59 60
f 7 60 61
f 7 61 62
f 7 62 63
f 7 63 9
f 9 63 64
f 9 64 11
f 11 64 65
f 11 65 13
f 13 65 66
f 13 66 15
f 15 66 67
f 15 67 17
f 17 67 20
f 20 67 68
f 20 68 21
f 21 68 69
f 21 69 70
f 21 70 23
f 23 70 25
f 25 70 71
f 25 71 72
f 25 72 26
f 26 72 73
f 26 73 74
f 26 74 27
f 41 75 76
f 41 76 77
f 41 77 42
f 42 77 78
f 42 78 79
f 42 79 80
f 42 80 81
f 42 81 43
f 43 81 82
f 43 82 83
f 43 83 44
f 44 83 84
f 44 84 45
f 45 84 85
f 45 85 81
f 45 81 80
f 45 80 46
f 46 80 86
f 46 86 87
f 46 87 47
f 47 87 88
f 47 88 79
f 47 79 89
f 47 89 90
f 47 90 48
f 48 90 78
f 48 78 53
f 48 53 52
f 48 52 49
f 49 52 51
f 49 51 50
f 76 91 92
f 76 92 93
f 76 93 77
f 77 93 94
f 77 94 78
f 78 94 62
f 78 62 53
f 53 62 95
f 53 95 96
f 53 96 54
f 54 96 61
f 54 61 97
f 54 97 98
f 54 98 55
f 55 98 99
f 55 99 60
f 55 60 59
f 55 59 56
f 56 59 100
f 56 100 101
f 56 101 57
f 57 101 102
f 57 102 58
f 58 102 103
f 58 103 59
f 59 103 100
f 100 103 102
f 100 102 101
f 92 73 72
f 92 72 104
f 92 104 93
f 93 104 105
f 93 105 94
f 94 105 63
f 94 63 62
f 35 34 106
f 35 106 40
f 40 106 107
f 40 107 75
f 40 75 41
f 75 107 108
f 75 108 91
f 75 91 76
f 91 108 109
f 91 109 73
f 91 73 92
f 73 109 74
f 72 71 104
f 104 71 110
f 104 110 105
f 105 110 64
f 105 64 63
f 110 65 64
f 65 110 111
f 65 111 66
f 66 111 69
f 66 69 67
f 67 69 68
f 71 111 110
f 111 71 70
f 111 70 69
f 83 82 85
f 83 85 84
f 81 85 82
f 86 112 88
f 86 88 87
f 79 88 112
f 79 112 80
f 80 112 86
f 90 89 78
f 78 89 79
f 99 98 97
f 99 97 113
f 99 113 60
f 60 113 61
f 61 113 97
f 96 95 61
f 61 95 62
