# RS2 Model 11583
# Vertices: 32
# Faces: 96

v -52 -77 160
v -52 -52 186
v -64 -49 185
v -64 -75 158
v -52 -77 123
v -39 -79 120
v -39 -79 163
v -39 -56 187
v -64 -75 125
v -52 -5 196
v -64 -4 194
v -52 5 196
v -64 4 194
v -52 52 186
v -64 49 185
v -52 77 160
v -64 75 158
v -52 77 123
v -64 75 125
v -39 -6 198
v -39 6 198
v -39 55 187
v -39 79 162
v -39 79 120
v -26 81 117
v -26 -81 117
v -26 -81 165
v -26 81 164
v -26 58 188
v -26 7 201
v -26 -7 201
v -26 -59 188

f 1 2 3
f 1 3 4
f 1 4 5
f 1 5 6
f 1 6 7
f 1 7 2
f 1 2 8
f 1 8 7
f 1 7 5
f 1 5 9
f 1 9 4
f 1 4 2
f 2 4 3
f 2 3 10
f 2 10 11
f 2 11 3
f 3 11 10
f 10 11 12
f 10 12 13
f 10 13 11
f 11 13 12
f 12 13 14
f 12 14 15
f 12 15 13
f 13 15 14
f 14 15 16
f 14 16 17
f 14 17 15
f 15 17 16
f 16 17 18
f 16 18 19
f 16 19 17
f 17 19 18
f 18 19 5
f 18 5 9
f 18 9 19
f 19 9 5
f 5 4 9
f 7 8 2
f 2 8 10
f 2 10 20
f 2 20 8
f 8 20 10
f 10 20 12
f 10 12 21
f 10 21 20
f 20 21 12
f 12 21 14
f 12 14 22
f 12 22 21
f 21 22 14
f 14 22 16
f 14 16 23
f 14 23 22
f 22 23 16
f 16 23 18
f 16 18 24
f 16 24 23
f 23 24 18
f 18 24 5
f 18 5 6
f 18 6 24
f 24 6 5
f 6 24 25
f 6 25 26
f 6 26 7
f 6 7 27
f 6 27 26
f 6 26 24
f 24 26 25
f 24 25 23
f 24 23 28
f 24 28 25
f 25 28 23
f 23 28 22
f 23 22 29
f 23 29 28
f 28 29 22
f 22 29 21
f 22 21 30
f 22 30 29
f 29 30 21
f 21 30 20
f 21 20 31
f 21 31 30
f 30 31 20
f 20 31 8
f 20 8 32
f 20 32 31
f 31 32 8
f 8 32 7
f 8 7 27
f 8 27 32
f 32 27 7
f 7 26 27
f 5 7 6
