# RS2 Model 11588
# Vertices: 168
# Faces: 258

v 43 -38 7
v 40 -39 7
v 40 -42 7
v 43 -42 7
v 47 -42 7
v 50 -42 3
v 46 -35 3
v 38 -34 3
v 36 -43 3
v 43 -49 3
v 43 -46 0
v 48 -42 0
v 45 -36 0
v 40 -36 0
v 38 -41 0
v 8 18 22
v 16 18 22
v 19 23 22
v 17 29 22
v 6 32 22
v -4 38 9
v -5 16 9
v 16 3 9
v 31 21 9
v 24 41 9
v 20 35 0
v 0 36 0
v -2 16 0
v 15 6 0
v 26 23 0
v -33 3 16
v -48 13 19
v -50 8 13
v -33 1 13
v -21 -7 16
v -19 -4 34
v -29 10 40
v -44 19 45
v -59 19 22
v -60 18 13
v -52 24 0
v -44 14 0
v -32 8 0
v -22 -10 13
v -13 -11 16
v -13 -4 28
v -13 5 31
v -20 18 35
v -33 35 48
v -56 23 39
v -62 38 25
v -64 38 13
v -53 34 0
v -9 42 16
v -10 21 16
v -9 21 13
v -7 42 13
v -20 53 19
v -23 49 32
v -18 38 33
v -4 6 16
v -3 6 13
v -10 5 0
v -13 20 0
v -11 40 0
v -18 55 13
v -32 60 22
v -32 58 35
v -32 64 13
v -52 54 25
v -46 52 37
v -58 36 39
v -53 56 13
v -46 48 0
v -32 53 0
v -4 -4 16
v -12 -12 13
v -1 -5 13
v -9 -1 28
v -6 -3 0
v -19 -4 0
v -14 -8 0
v -24 48 0
v 9 -10 16
v 10 -17 16
v 16 -19 16
v 19 -13 16
v 14 -6 16
v 19 -1 7
v 3 -4 7
v 2 -20 7
v 19 -27 7
v 29 -13 7
v 25 -12 0
v 18 -2 0
v 5 -6 0
v 3 -19 0
v 17 -23 0
v 25 -28 7
v 23 -31 7
v 26 -33 7
v 28 -31 7
v 30 -28 7
v 32 -26 3
v 25 -24 3
v 19 -29 3
v 24 -37 3
v 33 -36 3
v 31 -34 0
v 31 -27 0
v 25 -25 0
v 21 -29 0
v 24 -34 0
v -9 -22 10
v -14 -24 10
v -12 -28 10
v -7 -30 10
v -3 -25 10
v 3 -25 4
v -7 -16 4
v -19 -18 4
v -19 -31 4
v -7 -37 4
v -7 -32 0
v -1 -25 0
v -7 -18 0
v -14 -19 0
v -15 -28 0
v 9 -34 6
v 5 -36 6
v 6 -40 6
v 10 -42 6
v 16 -38 6
v 21 -37 0
v 12 -28 0
v 0 -30 0
v 0 -43 0
v 12 -49 0
v -31 -21 10
v -36 -17 10
v -41 -19 10
v -42 -24 10
v -36 -31 10
v -34 -42 0
v -21 -26 0
v -28 -7 0
v -50 -9 0
v -53 -28 0
v 38 -53 4
v 35 -51 4
v 33 -54 4
v 34 -58 4
v 38 -58 4
v 40 -60 0
v 42 -53 0
v 37 -47 0
v 29 -52 0
v 30 -61 0
v 56 -48 4
v 53 -49 4
v 53 -52 4
v 56 -53 4
v 60 -52 4
v 63 -52 0
v 59 -45 0
v 51 -44 0
v 49 -53 0
v 56 -59 0

f 1 2 3
f 1 3 4
f 1 4 5
f 1 5 6
f 1 6 7
f 1 7 2
f 2 7 8
f 2 8 3
f 3 8 9
f 3 9 4
f 4 9 10
f 4 10 5
f 5 10 6
f 6 10 11
f 6 11 12
f 6 12 7
f 7 12 13
f 7 13 8
f 8 13 14
f 8 14 9
f 9 14 15
f 9 15 10
f 10 15 11
f 16 17 18
f 16 18 19
f 16 19 20
f 16 20 21
f 16 21 22
f 16 22 17
f 17 22 23
f 17 23 18
f 18 23 24
f 18 24 19
f 19 24 25
f 19 25 20
f 20 25 21
f 21 25 26
f 21 26 27
f 21 27 22
f 22 27 28
f 22 28 23
f 23 28 29
f 23 29 24
f 24 29 30
f 24 30 25
f 25 30 26
f 31 32 33
f 31 33 34
f 31 34 35
f 31 35 36
f 31 36 37
f 31 37 32
f 32 37 38
f 32 38 39
f 32 39 40
f 32 40 33
f 33 40 41
f 33 41 42
f 33 42 34
f 34 42 43
f 34 43 44
f 34 44 35
f 35 44 45
f 35 45 46
f 35 46 36
f 36 46 47
f 36 47 48
f 36 48 37
f 37 48 49
f 37 49 38
f 38 49 50
f 38 50 39
f 39 50 51
f 39 51 52
f 39 52 40
f 40 52 53
f 40 53 41
f 54 55 56
f 54 56 57
f 54 57 58
f 54 58 59
f 54 59 60
f 54 60 55
f 55 60 48
f 55 48 61
f 55 61 62
f 55 62 56
f 56 62 63
f 56 63 64
f 56 64 57
f 57 64 65
f 57 65 66
f 57 66 58
f 58 66 67
f 58 67 68
f 58 68 59
f 59 68 49
f 59 49 60
f 60 49 48
f 67 66 69
f 67 69 70
f 67 70 71
f 67 71 68
f 68 71 49
f 49 71 72
f 49 72 50
f 50 72 51
f 51 72 70
f 51 70 73
f 51 73 52
f 52 73 74
f 52 74 53
f 70 69 73
f 73 69 75
f 73 75 74
f 76 45 77
f 76 77 78
f 76 78 61
f 76 61 47
f 76 47 79
f 76 79 45
f 45 79 46
f 46 79 47
f 61 78 62
f 62 78 80
f 62 80 63
f 45 44 77
f 77 44 81
f 77 81 82
f 77 82 78
f 78 82 80
f 72 71 70
f 48 47 61
f 66 65 83
f 66 83 69
f 69 83 75
f 44 43 81
f 84 85 86
f 84 86 87
f 84 87 88
f 84 88 89
f 84 89 90
f 84 90 85
f 85 90 91
f 85 91 86
f 86 91 92
f 86 92 87
f 87 92 93
f 87 93 88
f 88 93 89
f 89 93 94
f 89 94 95
f 89 95 90
f 90 95 96
f 90 96 91
f 91 96 97
f 91 97 92
f 92 97 98
f 92 98 93
f 93 98 94
f 99 100 101
f 99 101 102
f 99 102 103
f 99 103 104
f 99 104 105
f 99 105 100
f 100 105 106
f 100 106 101
f 101 106 107
f 101 107 102
f 102 107 108
f 102 108 103
f 103 108 104
f 104 108 109
f 104 109 110
f 104 110 105
f 105 110 111
f 105 111 106
f 106 111 112
f 106 112 107
f 107 112 113
f 107 113 108
f 108 113 109
f 114 115 116
f 114 116 117
f 114 117 118
f 114 118 119
f 114 119 120
f 114 120 115
f 115 120 121
f 115 121 116
f 116 121 122
f 116 122 117
f 117 122 123
f 117 123 118
f 118 123 119
f 119 123 124
f 119 124 125
f 119 125 120
f 120 125 126
f 120 126 121
f 121 126 127
f 121 127 122
f 122 127 128
f 122 128 123
f 123 128 124
f 129 130 131
f 129 131 132
f 129 132 133
f 129 133 134
f 129 134 135
f 129 135 130
f 130 135 136
f 130 136 131
f 131 136 137
f 131 137 132
f 132 137 138
f 132 138 133
f 133 138 134
f 139 140 141
f 139 141 142
f 139 142 143
f 139 143 144
f 139 144 145
f 139 145 140
f 140 145 146
f 140 146 141
f 141 146 147
f 141 147 142
f 142 147 148
f 142 148 143
f 143 148 144
f 149 150 151
f 149 151 152
f 149 152 153
f 149 153 154
f 149 154 155
f 149 155 150
f 150 155 156
f 150 156 151
f 151 156 157
f 151 157 152
f 152 157 158
f 152 158 153
f 153 158 154
f 159 160 161
f 159 161 162
f 159 162 163
f 159 163 164
f 159 164 165
f 159 165 160
f 160 165 166
f 160 166 161
f 161 166 167
f 161 167 162
f 162 167 168
f 162 168 163
f 163 168 164
