# RS2 Model 11584
# Vertices: 125
# Faces: 150

v -19 57 18
v -25 60 18
v -29 53 0
v -21 50 0
v -19 70 36
v 41 54 20
v 35 56 20
v 32 50 0
v 40 48 0
v 41 65 41
v -53 24 17
v -56 15 17
v -48 13 0
v -47 21 0
v -65 23 34
v -53 -60 0
v -62 -60 0
v -62 -53 21
v -53 -52 21
v -58 -43 44
v -34 58 19
v -41 55 19
v -40 48 0
v -31 51 0
v -41 65 39
v -45 -52 18
v -38 -58 18
v -33 -52 0
v -40 -46 0
v -49 -64 36
v -59 -20 18
v -55 -25 18
v -48 -21 0
v -55 -14 0
v -65 -30 36
v 8 -57 19
v 14 -52 19
v 10 -46 0
v 3 -51 0
v 17 -64 38
v -29 -54 21
v -19 -56 21
v -17 -49 0
v -25 -47 0
v -27 -65 44
v 23 -57 21
v 30 -51 21
v 26 -46 0
v 20 -50 0
v 33 -63 44
v 53 11 18
v 55 17 18
v 49 20 0
v 47 11 0
v 64 12 36
v 14 55 19
v 5 55 19
v 5 48 0
v 14 48 0
v 9 65 40
v -56 38 19
v -55 32 19
v -51 29 0
v -48 39 0
v -64 38 37
v 54 52 19
v 51 59 19
v 44 55 0
v 48 47 0
v 63 62 37
v -56 -33 17
v -54 -41 17
v -47 -39 0
v -48 -31 0
v -65 -39 34
v -63 61 0
v -55 64 0
v -53 58 21
v -61 54 21
v -53 47 44
v -1 -64 18
v 2 -57 18
v -5 -53 0
v -9 -62 0
v 11 -64 36
v 1 57 18
v -4 56 18
v -4 49 0
v 4 50 0
v -3 67 36
v 50 -60 21
v 54 -52 21
v 49 -48 0
v 44 -56 0
v 61 -61 44
v 58 34 18
v 54 40 18
v 47 36 0
v 53 28 0
v 64 44 36
v 26 55 18
v 21 57 18
v 16 50 0
v 25 47 0
v 27 67 36
v 58 -10 18
v 54 -5 18
v 48 -8 0
v 54 -15 0
v 64 -1 36
v 63 -25 18
v 57 -22 18
v 53 -29 0
v 62 -33 0
v 64 -13 36
v 53 -45 18
v 56 -39 18
v 50 -35 0
v 46 -43 0
v 64 -47 36
v -54 5 18
v -58 -1 18
v -50 -5 0
v -47 4 0
v -65 5 36

f 1 2 3
f 1 3 4
f 1 4 2
f 1 2 5
f 1 5 2
f 6 7 8
f 6 8 9
f 6 9 7
f 6 7 10
f 6 10 7
f 11 12 13
f 11 13 14
f 11 14 12
f 11 12 15
f 11 15 12
f 16 17 18
f 16 18 19
f 16 19 17
f 17 19 18
f 18 19 20
f 18 20 19
f 21 22 23
f 21 23 24
f 21 24 22
f 21 22 25
f 21 25 22
f 26 27 28
f 26 28 29
f 26 29 27
f 26 27 30
f 26 30 27
f 31 32 33
f 31 33 34
f 31 34 32
f 31 32 35
f 31 35 32
f 36 37 38
f 36 38 39
f 36 39 37
f 36 37 40
f 36 40 37
f 41 42 43
f 41 43 44
f 41 44 42
f 41 42 45
f 41 45 42
f 46 47 48
f 46 48 49
f 46 49 47
f 46 47 50
f 46 50 47
f 51 52 53
f 51 53 54
f 51 54 52
f 51 52 55
f 51 55 52
f 56 57 58
f 56 58 59
f 56 59 57
f 56 57 60
f 56 60 57
f 61 62 63
f 61 63 64
f 61 64 62
f 61 62 65
f 61 65 62
f 66 67 68
f 66 68 69
f 66 69 67
f 66 67 70
f 66 70 67
f 71 72 73
f 71 73 74
f 71 74 72
f 71 72 75
f 71 75 72
f 76 77 78
f 76 78 79
f 76 79 77
f 77 79 78
f 78 79 80
f 78 80 79
f 81 82 83
f 81 83 84
f 81 84 82
f 81 82 85
f 81 85 82
f 86 87 88
f 86 88 89
f 86 89 87
f 86 87 90
f 86 90 87
f 91 92 93
f 91 93 94
f 91 94 92
f 91 92 95
f 91 95 92
f 96 97 98
f 96 98 99
f 96 99 97
f 96 97 100
f 96 100 97
f 101 102 103
f 101 103 104
f 101 104 102
f 101 102 105
f 101 105 102
f 106 107 108
f 106 108 109
f 106 109 107
f 106 107 110
f 106 110 107
f 111 112 113
f 111 113 114
f 111 114 112
f 111 112 115
f 111 115 112
f 116 117 118
f 116 118 119
f 116 119 117
f 116 117 120
f 116 120 117
f 121 122 123
f 121 123 124
f 121 124 122
f 121 122 125
f 121 125 122
f 4 3 2
f 9 8 7
f 14 13 12
f 24 23 22
f 29 28 27
f 34 33 32
f 39 38 37
f 44 43 42
f 49 48 47
f 54 53 52
f 59 58 57
f 64 63 62
f 69 68 67
f 74 73 72
f 84 83 82
f 89 88 87
f 94 93 92
f 99 98 97
f 104 103 102
f 109 108 107
f 114 113 112
f 119 118 117
f 124 123 122
