# RS2 Model 11599
# Vertices: 396
# Faces: 494

v 52 5 1
v 47 2 1
v 51 0 1
v 55 3 1
v 57 7 1
v 53 8 1
v 57 12 1
v 53 11 1
v 51 16 1
v 45 -1 1
v 48 -3 1
v 44 -6 1
v 48 -7 1
v 47 -14 1
v -49 52 2
v -54 52 1
v -53 50 2
v -53 50 1
v -49 50 1
v -42 52 2
v -42 56 1
v -49 55 1
v -17 48 3
v -14 50 1
v -16 52 2
v -16 52 1
v -20 50 1
v -22 46 3
v -24 43 1
v -18 46 1
v -13 54 1
v -59 48 1
v -37 47 1
v -31 43 1
v -28 46 3
v -34 50 3
v -43 49 1
v -29 50 1
v -35 54 1
v -24 49 1
v -16 16 2
v -23 16 2
v -16 8 2
v -9 2 2
v -11 15 2
v -11 15 1
v -16 16 1
v -22 20 1
v -29 18 2
v -30 15 1
v -24 13 1
v -16 8 1
v -22 7 2
v -16 1 2
v -16 1 1
v -9 2 1
v -4 7 3
v -7 16 2
v -7 16 1
v -36 18 2
v -41 18 1
v -40 16 2
v -40 16 1
v -36 16 1
v -29 22 1
v -36 21 1
v -1 11 1
v -3 18 2
v -3 18 1
v 0 20 1
v -46 14 1
v -29 7 2
v -36 9 1
v -35 4 1
v -29 4 1
v -22 11 1
v -30 11 1
v -41 5 1
v -39 3 2
v -45 0 1
v -39 3 1
v -23 4 1
v -4 7 1
v 0 53 2
v -6 52 2
v -3 50 1
v 1 51 1
v 5 55 2
v 5 58 1
v -2 55 1
v -6 52 1
v -9 47 2
v -7 47 2
v -9 43 2
v -9 47 1
v -9 43 1
v 18 45 3
v 14 41 5
v 18 38 2
v 18 38 1
v 21 45 1
v 16 51 2
v 14 48 2
v 15 45 3
v 14 41 4
v 10 38 6
v 11 34 2
v 11 34 1
v 5 37 7
v 5 33 3
v 5 33 2
v 0 36 5
v -1 35 3
v 5 52 1
v 10 51 1
v 11 54 2
v 12 57 1
v 18 54 1
v 10 38 5
v 5 37 6
v 1 38 6
v -2 39 6
v -4 38 4
v -1 40 6
v -3 42 6
v -5 43 5
v -2 42 6
v -2 46 7
v -3 47 6
v -1 45 6
v 1 47 8
v 1 48 7
v 1 46 7
v 5 46 7
v 9 -33 2
v 17 -35 2
v 15 -30 2
v 15 -30 1
v 8 -30 1
v 1 -35 2
v 3 -38 1
v 10 -36 1
v 17 -35 1
v 14 -39 2
v 20 -44 2
v 24 -43 2
v 22 -30 2
v 21 -27 2
v 21 -27 1
v 24 -24 2
v 23 -24 1
v -4 -43 2
v -3 -48 1
v -2 -46 2
v -2 -46 1
v -2 -43 1
v -2 -38 2
v -5 -37 1
v -7 -44 1
v 0 -49 1
v 0 -32 1
v 0 -40 1
v 22 -30 1
v 25 -24 1
v 29 -29 1
v 29 -29 2
v 36 -32 1
v 35 -35 2
v 42 -32 1
v 42 -35 2
v 48 -32 1
v 48 -34 2
v 52 -31 1
v 52 -31 2
v 58 -28 1
v 54 -33 1
v 49 -37 1
v 43 -39 1
v 35 -38 1
v 29 -36 1
v 29 -36 2
v 37 -41 1
v 36 -44 2
v 43 -43 1
v 42 -46 2
v 49 -44 1
v 49 -46 2
v 53 -44 1
v 53 -44 2
v 59 -42 1
v 54 -46 1
v 49 -49 1
v 42 -50 1
v 35 -48 1
v 29 -44 1
v 29 -44 2
v 24 -43 1
v 20 -44 1
v 16 -46 1
v 16 -46 2
v 13 -48 1
v 13 -44 1
v 14 -39 1
v 24 -17 1
v -43 -19 3
v -39 -21 3
v -35 -17 2
v -35 -17 1
v -44 -16 1
v -51 -25 3
v -49 -28 3
v -43 -22 1
v -39 -21 1
v -37 -21 2
v -31 -20 3
v -31 -20 2
v -46 -42 1
v -49 -37 1
v -52 -39 2
v -48 -45 2
v -42 -45 1
v -42 -48 2
v -37 -48 1
v -36 -50 2
v -29 -51 1
v -36 -52 1
v -42 -51 1
v -51 -48 1
v -56 -41 1
v -59 -33 1
v -54 -32 2
v -54 -22 1
v -50 -31 2
v -37 -21 1
v -42 -26 3
v -36 -25 6
v -31 -24 7
v -27 -25 7
v -25 -22 4
v -25 -22 3
v -25 -40 2
v -20 -39 2
v -23 -37 2
v -23 -37 1
v -27 -38 1
v -31 -42 2
v -31 -45 1
v -24 -42 1
v -20 -39 1
v -17 -34 2
v -19 -34 2
v -17 -30 2
v -17 -34 1
v -17 -30 1
v -25 -27 7
v -22 -25 5
v -22 -25 4
v -24 -29 7
v -21 -30 6
v -21 -30 5
v -24 -33 7
v -23 -34 6
v -31 -39 1
v -36 -38 1
v -37 -41 2
v -38 -44 1
v -44 -41 1
v -42 -38 2
v -47 -32 1
v -44 -32 3
v -44 -25 1
v -40 -35 2
v -41 -32 3
v -40 -28 4
v -36 -25 5
v -31 -24 6
v -27 -25 6
v -25 -27 6
v -24 -29 6
v -25 -32 6
v -27 -33 7
v -27 -34 8
v -27 -35 7
v -31 -33 7
v -31 -33 8
v 36 39 2
v 36 44 1
v 34 43 2
v 34 43 1
v 34 39 1
v 36 32 2
v 40 32 1
v 39 39 1
v 32 7 3
v 34 4 1
v 36 6 2
v 36 6 1
v 34 10 1
v 30 12 3
v 27 14 1
v 30 8 1
v 38 3 1
v 32 49 1
v 31 27 1
v 27 21 1
v 30 18 3
v 34 24 3
v 33 33 1
v 34 19 1
v 38 25 1
v 33 14 1
v 13 2 2
v 16 5 1
v 14 6 2
v 14 6 1
v 11 3 1
v 7 -3 2
v 10 -6 1
v 15 -1 1
v -14 -16 3
v -15 -20 1
v -13 -20 2
v -13 -20 1
v -11 -16 1
v -12 -11 3
v -12 -8 1
v -15 -14 1
v -14 -23 1
v 18 11 1
v 0 -2 1
v -7 -3 1
v -7 -7 3
v 0 -7 3
v 6 0 1
v -4 -10 1
v 3 -9 1
v -8 -12 1
v 7 -20 1
v 9 -20 1
v 8 -19 1
v 6 -20 1
v 2 -21 1
v 2 -23 1
v 6 -22 1
v -10 -20 2
v -12 -21 1
v -11 -22 1
v -9 -21 1
v -8 -19 2
v -7 -18 1
v -10 -19 1
v 12 -19 1
v 0 -19 1
v -3 -17 1
v -4 -19 2
v -2 -20 2
v 3 -20 1
v -4 -20 1
v -1 -22 1
v -6 -20 1
v 28 -4 2
v 24 -5 3
v 26 -6 2
v 22 -8 2
v 23 -8 3
v 22 -10 2
v 37 -9 3
v 35 -11 3
v 38 -13 2
v 40 -9 2
v 36 -7 3
v 38 -4 2
v 33 -5 2
v 34 -2 2
v 30 -4 2
v 30 -1 2
v 26 -3 2
v 24 -5 2
v 33 -13 4
v 34 -15 2
v 30 -14 4
v 30 -16 3
v 28 -13 4
v 27 -15 3
v 25 -13 3
v 26 -12 4
v 24 -10 4
v 26 -10 4
v 26 -8 4
v 26 -9 4
v 28 -8 5
v 28 -9 5
v 30 -9 5
v -75 62 0
v -71 -73 0
v 70 66 3

f 1 2 3
f 1 3 4
f 1 4 5
f 1 5 6
f 6 5 7
f 6 7 8
f 8 7 9
f 3 2 10
f 3 10 11
f 11 10 12
f 11 12 13
f 13 12 14
f 15 16 17
f 15 17 18
f 15 18 19
f 15 19 20
f 15 20 21
f 15 21 22
f 15 22 16
f 23 24 25
f 23 25 26
f 23 26 27
f 23 27 28
f 23 28 29
f 23 29 30
f 23 30 24
f 24 31 25
f 25 31 26
f 16 32 17
f 17 32 18
f 33 34 35
f 33 35 36
f 33 36 37
f 37 36 20
f 37 20 19
f 38 39 36
f 38 36 35
f 38 35 40
f 40 35 28
f 40 28 27
f 39 21 20
f 39 20 36
f 34 29 28
f 34 28 35
f 41 42 43
f 41 43 44
f 41 44 45
f 41 45 46
f 41 46 47
f 41 47 42
f 42 47 48
f 42 48 49
f 42 49 50
f 42 50 51
f 42 51 43
f 43 51 52
f 43 52 53
f 43 53 54
f 43 54 44
f 44 54 55
f 44 55 56
f 44 56 57
f 44 57 45
f 45 57 58
f 45 58 59
f 45 59 46
f 60 61 62
f 60 62 63
f 60 63 64
f 60 64 49
f 60 49 65
f 60 65 66
f 60 66 61
f 58 57 67
f 58 67 68
f 58 68 69
f 58 69 59
f 67 70 68
f 68 70 69
f 61 71 62
f 62 71 63
f 48 65 49
f 64 50 49
f 72 73 74
f 72 74 75
f 72 75 53
f 72 53 76
f 72 76 77
f 72 77 73
f 74 73 78
f 74 78 79
f 79 78 80
f 79 80 81
f 82 55 54
f 82 54 53
f 82 53 75
f 52 76 53
f 74 72 79
f 56 83 57
f 57 83 67
f 84 85 86
f 84 86 87
f 84 87 88
f 84 88 89
f 84 89 90
f 84 90 85
f 85 90 91
f 85 91 92
f 85 92 86
f 86 92 93
f 93 92 94
f 94 92 95
f 94 95 96
f 97 98 99
f 97 99 100
f 97 100 101
f 97 101 102
f 97 102 103
f 97 103 104
f 97 104 98
f 98 104 105
f 98 105 106
f 98 106 99
f 99 106 107
f 99 107 108
f 99 108 100
f 107 106 109
f 107 109 110
f 107 110 111
f 107 111 108
f 109 112 110
f 110 112 113
f 110 113 111
f 114 115 116
f 114 116 88
f 114 88 87
f 117 89 88
f 117 88 116
f 117 116 118
f 118 116 102
f 118 102 101
f 91 95 92
f 115 103 102
f 115 102 116
f 105 119 106
f 106 119 109
f 109 119 120
f 109 120 112
f 112 120 121
f 112 121 122
f 112 122 123
f 112 123 113
f 121 124 122
f 122 124 125
f 122 125 126
f 122 126 123
f 124 127 125
f 125 127 128
f 125 128 129
f 125 129 126
f 127 130 128
f 128 130 131
f 128 131 132
f 128 132 129
f 130 133 131
f 131 133 134
f 131 134 132
f 131 132 134
f 135 136 137
f 135 137 138
f 135 138 139
f 135 139 140
f 135 140 141
f 135 141 142
f 135 142 136
f 136 142 143
f 136 143 144
f 136 144 145
f 136 145 146
f 136 146 147
f 136 147 137
f 137 147 148
f 137 148 149
f 137 149 138
f 147 150 148
f 148 150 151
f 148 151 149
f 152 153 154
f 152 154 155
f 152 155 156
f 152 156 157
f 152 157 158
f 152 158 159
f 152 159 153
f 153 160 154
f 154 160 155
f 139 161 140
f 140 161 157
f 140 157 162
f 140 162 141
f 163 164 150
f 163 150 147
f 163 147 165
f 165 147 166
f 165 166 167
f 167 166 168
f 167 168 169
f 169 168 170
f 169 170 171
f 171 170 172
f 171 172 173
f 173 172 174
f 173 174 175
f 175 174 176
f 176 174 172
f 176 172 177
f 177 172 178
f 178 172 170
f 178 170 179
f 179 170 168
f 179 168 180
f 180 168 181
f 180 181 182
f 182 181 183
f 182 183 184
f 184 183 185
f 184 185 186
f 186 185 187
f 186 187 188
f 188 187 189
f 188 189 190
f 190 189 191
f 191 189 187
f 191 187 192
f 192 187 193
f 193 187 185
f 193 185 194
f 194 185 183
f 194 183 195
f 195 183 196
f 195 196 197
f 197 196 146
f 197 146 198
f 198 146 145
f 198 145 199
f 199 145 200
f 199 200 201
f 201 200 202
f 202 200 145
f 202 145 144
f 202 144 203
f 203 144 143
f 161 158 157
f 156 162 157
f 204 151 150
f 204 150 164
f 196 183 181
f 196 181 146
f 146 181 147
f 147 181 166
f 166 181 168
f 205 206 207
f 205 207 208
f 205 208 209
f 205 209 210
f 205 210 211
f 205 211 212
f 205 212 206
f 206 212 213
f 206 213 214
f 206 214 207
f 207 214 215
f 207 215 216
f 207 216 208
f 217 218 219
f 217 219 220
f 217 220 221
f 221 220 222
f 221 222 223
f 223 222 224
f 223 224 225
f 225 224 226
f 226 224 227
f 227 224 222
f 227 222 228
f 228 222 220
f 228 220 229
f 229 220 219
f 229 219 230
f 230 219 231
f 230 231 232
f 232 231 210
f 232 210 209
f 218 233 231
f 218 231 219
f 233 211 210
f 233 210 231
f 213 234 214
f 214 234 235
f 214 235 236
f 214 236 237
f 214 237 215
f 215 237 238
f 215 238 239
f 215 239 240
f 215 240 216
f 241 242 243
f 241 243 244
f 241 244 245
f 241 245 246
f 241 246 247
f 241 247 248
f 241 248 242
f 242 248 249
f 242 249 250
f 242 250 243
f 243 250 251
f 251 250 252
f 252 250 253
f 252 253 254
f 239 238 255
f 239 255 256
f 239 256 257
f 239 257 240
f 256 255 258
f 256 258 259
f 256 259 260
f 256 260 257
f 258 261 259
f 259 261 262
f 259 262 260
f 263 264 265
f 263 265 246
f 263 246 245
f 266 247 246
f 266 246 265
f 266 265 267
f 267 265 268
f 267 268 269
f 269 268 270
f 269 270 271
f 271 270 235
f 271 235 234
f 249 253 250
f 264 272 268
f 264 268 265
f 272 273 270
f 272 270 268
f 273 274 235
f 273 235 270
f 274 275 236
f 274 236 235
f 275 276 237
f 275 237 236
f 276 277 238
f 276 238 237
f 277 278 255
f 277 255 238
f 278 279 258
f 278 258 255
f 279 280 261
f 279 261 258
f 280 281 282
f 280 282 261
f 261 282 283
f 261 283 262
f 284 283 282
f 284 282 285
f 284 285 281
f 281 285 282
f 286 287 288
f 286 288 289
f 286 289 290
f 286 290 291
f 286 291 292
f 286 292 293
f 286 293 287
f 294 295 296
f 294 296 297
f 294 297 298
f 294 298 299
f 294 299 300
f 294 300 301
f 294 301 295
f 295 302 296
f 296 302 297
f 287 303 288
f 288 303 289
f 304 305 306
f 304 306 307
f 304 307 308
f 308 307 291
f 308 291 290
f 309 310 307
f 309 307 306
f 309 306 311
f 311 306 299
f 311 299 298
f 310 292 291
f 310 291 307
f 305 300 299
f 305 299 306
f 312 313 314
f 312 314 315
f 312 315 316
f 312 316 317
f 312 317 318
f 312 318 319
f 312 319 313
f 320 321 322
f 320 322 323
f 320 323 324
f 320 324 325
f 320 325 326
f 320 326 327
f 320 327 321
f 321 328 322
f 322 328 323
f 313 329 314
f 314 329 315
f 330 331 332
f 330 332 333
f 330 333 334
f 334 333 317
f 334 317 316
f 335 336 333
f 335 333 332
f 335 332 337
f 337 332 325
f 337 325 324
f 336 318 317
f 336 317 333
f 331 326 325
f 331 325 332
f 338 339 340
f 338 340 341
f 338 341 342
f 338 342 343
f 338 343 344
f 338 344 339
f 345 346 347
f 345 347 348
f 345 348 349
f 345 349 350
f 345 350 351
f 345 351 346
f 346 328 347
f 339 352 340
f 353 354 355
f 353 355 356
f 353 356 357
f 357 356 342
f 357 342 341
f 358 359 356
f 358 356 355
f 358 355 360
f 360 355 349
f 360 349 348
f 359 343 342
f 359 342 356
f 354 350 349
f 354 349 355
f 361 362 363
f 363 362 364
f 363 364 365
f 365 364 366
f 367 368 369
f 367 369 370
f 367 370 371
f 371 370 372
f 371 372 373
f 373 372 374
f 373 374 375
f 375 374 376
f 375 376 361
f 361 376 377
f 361 377 362
f 362 377 378
f 362 378 364
f 369 368 379
f 369 379 380
f 380 379 381
f 380 381 382
f 382 381 383
f 382 383 384
f 384 383 385
f 385 383 386
f 385 386 387
f 387 386 388
f 387 388 389
f 389 388 390
f 389 390 391
f 391 390 392
f 391 392 393
