# RS2 Model 11676
# Vertices: 40
# Faces: 50

v -27 7 -3
v 19 19 -3
v 19 19 50
v -27 7 50
v -37 47 -3
v -37 47 50
v 9 58 -3
v 9 58 50
v 1 -50 0
v -19 6 0
v -19 6 24
v 1 -50 24
v -14 -56 0
v -14 -56 24
v -34 1 0
v -34 1 24
v 37 1 22
v 8 -53 22
v 23 -59 22
v 51 -7 22
v 51 -7 -2
v 37 1 -2
v 8 -53 -2
v 23 -59 -2
v -17 23 66
v -17 -30 26
v -17 -47 48
v -17 6 89
v -1 23 66
v -1 6 89
v -1 -30 26
v -1 -47 48
v 24 64 0
v 11 54 0
v 11 54 24
v 24 64 24
v 63 19 0
v 63 19 24
v 52 7 0
v 52 7 24

f 1 2 3
f 1 3 4
f 1 4 5
f 5 4 6
f 5 6 7
f 7 6 8
f 7 8 2
f 2 8 3
f 3 8 6
f 3 6 4
f 9 10 11
f 9 11 12
f 9 12 13
f 13 12 14
f 13 14 15
f 15 14 16
f 15 16 10
f 10 16 11
f 11 16 12
f 12 16 14
f 17 18 19
f 17 19 20
f 17 20 21
f 17 21 22
f 17 22 18
f 18 22 23
f 18 23 19
f 19 23 24
f 19 24 20
f 20 24 21
f 25 26 27
f 25 27 28
f 25 28 29
f 29 28 30
f 29 30 31
f 31 30 32
f 31 32 26
f 26 32 27
f 27 32 28
f 28 32 30
f 33 34 35
f 33 35 36
f 33 36 37
f 37 36 38
f 37 38 39
f 39 38 40
f 39 40 34
f 34 40 35
f 35 40 38
f 35 38 36
