# RS2 Model 11696
# Vertices: 374
# Faces: 496

v 4 -50 282
v 4 -55 287
v 4 -60 282
v 4 -55 277
v 4 -50 142
v 4 -55 147
v 4 -60 142
v 4 -55 137
v 4 64 287
v 4 59 282
v 4 64 277
v 4 64 147
v 4 59 142
v 4 64 137
v 4 64 23
v 4 59 18
v 4 64 13
v 0 -36 122
v 0 -33 125
v 0 -36 128
v 0 -39 125
v 0 45 122
v 0 48 125
v 0 45 128
v 0 42 125
v 0 -36 40
v 0 -33 43
v 0 -36 46
v 0 -39 43
v 0 45 40
v 0 48 43
v 0 45 46
v 0 42 43
v -25 -55 277
v -25 -60 282
v -25 -55 287
v -25 -50 282
v -25 -55 137
v -25 -60 142
v -25 -55 147
v -25 -50 142
v -25 64 277
v -25 59 282
v -25 64 287
v -25 64 137
v -25 59 142
v -25 64 147
v -25 64 13
v -25 59 18
v -25 64 23
v -21 -39 125
v -21 -36 128
v -21 -33 125
v -21 -36 122
v -21 42 125
v -21 45 128
v -21 48 125
v -21 45 122
v -21 -39 43
v -21 -36 46
v -21 -33 43
v -21 -36 40
v -21 42 43
v -21 45 46
v -21 48 43
v -21 45 40
v 3 52 38
v 3 52 46
v 3 44 38
v -3 42 36
v -3 54 36
v -3 54 48
v 3 13 84
v 3 5 76
v -3 5 72
v -3 -32 36
v 3 -44 36
v 3 54 36
v -3 54 120
v -3 17 84
v 3 51 122
v 3 5 92
v 3 -3 84
v 3 -42 46
v 3 -34 38
v 3 -42 38
v -3 -44 48
v -3 -44 36
v 3 -44 132
v 3 -64 23
v 3 -44 23
v 3 -26 26
v 3 7 26
v 3 27 25
v 3 46 18
v 3 63 0
v 3 64 36
v 3 54 132
v -3 54 132
v 3 51 130
v 3 -41 130
v 3 -41 122
v 3 -34 130
v -3 -32 132
v -3 -44 132
v -3 -44 120
v -3 5 96
v -3 42 132
v 3 43 130
v -3 -7 84
v -24 -44 23
v -24 -64 23
v -24 -44 36
v -24 -26 26
v -24 -44 15
v -24 -64 15
v 3 -64 15
v 3 -64 142
v -24 -64 142
v -24 -44 132
v -18 -44 120
v -18 -44 48
v -18 -44 36
v -18 -32 36
v -24 54 36
v -24 7 26
v -24 -17 23
v -24 -26 12
v -24 -44 0
v -24 -64 0
v 3 -64 0
v 3 -44 0
v 3 -44 15
v -24 -3 23
v -24 -17 15
v -24 -3 15
v -24 7 12
v -24 63 0
v -24 27 13
v -24 46 18
v -24 64 36
v -24 64 132
v -24 54 132
v -24 64 152
v -24 54 152
v -24 64 192
v -24 54 192
v -24 54 232
v -24 64 232
v -24 54 272
v -24 64 272
v -24 54 293
v -24 64 293
v -24 27 25
v -24 -44 215
v -24 -64 215
v -24 -64 232
v -24 -44 232
v -24 -26 218
v -27 -26 218
v -27 -44 215
v -27 -44 207
v -24 -64 207
v 3 -64 207
v 3 -64 215
v 3 -64 232
v 3 -64 272
v -24 -64 272
v -24 -44 272
v 3 -44 272
v 3 -44 232
v -24 7 218
v -24 -17 215
v -27 -17 215
v -27 -26 204
v -24 -44 207
v -24 -44 192
v -24 -44 152
v 3 -44 192
v 3 -44 207
v 3 -26 204
v 3 54 192
v 3 7 204
v 3 -17 207
v 3 -3 207
v -24 -3 215
v -27 -3 215
v -27 -17 207
v -24 -26 204
v -24 -17 207
v -24 -3 207
v -24 7 204
v -24 46 210
v -24 27 217
v -24 27 205
v -27 27 217
v -27 7 218
v -27 -3 207
v -27 7 204
v -27 27 205
v -27 46 210
v 3 -44 152
v 3 54 152
v 3 64 152
v 3 64 192
v 3 64 232
v 3 54 232
v 3 46 210
v 3 27 205
v -18 5 72
v -18 42 36
v -24 -34 38
v -24 5 76
v -24 44 38
v -18 54 36
v -18 -7 84
v -24 -3 84
v -24 -42 46
v -24 -42 38
v -24 13 84
v -24 52 46
v -24 52 38
v -18 54 48
v -18 54 120
v -18 54 132
v -24 51 122
v -24 51 130
v -18 42 132
v -24 43 130
v -18 5 96
v -18 -32 132
v -24 5 92
v -24 -34 130
v -18 -44 132
v -24 -41 130
v -18 17 84
v -6 -25 192
v -6 -35 192
v -6 -35 152
v -6 -25 152
v -16 -25 192
v -16 -25 152
v -16 -35 192
v -16 -35 152
v -6 -3 192
v -6 -13 192
v -6 -13 152
v -6 -3 152
v -16 -3 192
v -16 -3 152
v -16 -13 192
v -16 -13 152
v -6 20 192
v -6 10 192
v -6 10 152
v -6 20 152
v -16 20 192
v -16 20 152
v -16 10 192
v -16 10 152
v -6 43 192
v -6 33 192
v -6 33 152
v -6 43 152
v -16 43 192
v -16 43 152
v -16 33 192
v -16 33 152
v 3 -17 23
v 3 -3 23
v 3 7 12
v 3 27 13
v 3 -26 12
v 3 -17 15
v 3 -3 15
v 3 -44 215
v 3 -26 218
v 3 54 272
v 3 64 272
v 3 64 293
v 3 54 293
v 3 -44 293
v 3 -17 215
v 3 -3 215
v 3 7 218
v 3 27 217
v 6 27 217
v 6 46 210
v 6 27 205
v 6 7 218
v 6 7 204
v 6 -3 215
v 6 -3 207
v 6 -17 215
v 6 -17 207
v 6 -26 218
v 6 -26 204
v 6 -44 215
v 6 -44 207
v 3 64 132
v -24 -64 293
v -24 -44 293
v 3 -64 293
v -24 -41 122
v 0 5 272
v 0 -44 255
v -3 -44 252
v -3 5 269
v 0 54 255
v -3 25 272
v -3 54 262
v -3 33 272
v 0 54 265
v -3 54 272
v -3 54 252
v 0 5 262
v 0 54 245
v -3 5 259
v -3 54 242
v 0 5 252
v 0 54 235
v -3 5 249
v -3 54 232
v -3 31 232
v 0 5 242
v -3 25 232
v -3 5 239
v 0 5 232
v -3 -15 232
v -3 -21 232
v -3 -44 232
v 0 -44 235
v -3 -44 242
v 0 -44 245
v 0 -44 265
v -3 -44 262
v -3 -15 272
v -3 -23 272
v -3 -44 272
v -21 5 272
v -21 54 255
v -18 54 252
v -18 5 269
v -21 -44 255
v -18 -15 272
v -18 -44 262
v -18 -23 272
v -21 -44 265
v -18 -44 272
v -18 -44 252
v -21 5 262
v -21 -44 245
v -18 5 259
v -18 -44 242
v -21 5 252
v -21 -44 235
v -18 5 249
v -18 -44 232
v -18 -21 232
v -21 5 242
v -18 -15 232
v -18 5 239
v -21 5 232
v -18 25 232
v -18 31 232
v -18 54 232
v -21 54 235
v -18 54 242
v -21 54 245
v -21 54 265
v -18 54 262
v -18 25 272
v -18 33 272
v -18 54 272

f 1 2 3
f 1 3 4
f 5 6 7
f 5 7 8
f 9 10 11
f 12 13 14
f 15 16 17
f 18 19 20
f 18 20 21
f 22 23 24
f 22 24 25
f 26 27 28
f 26 28 29
f 30 31 32
f 30 32 33
f 34 35 36
f 34 36 37
f 38 39 40
f 38 40 41
f 42 43 44
f 45 46 47
f 48 49 50
f 51 52 53
f 51 53 54
f 55 56 57
f 55 57 58
f 59 60 61
f 59 61 62
f 63 64 65
f 63 65 66
f 67 68 69
f 67 69 70
f 67 70 71
f 67 71 68
f 68 71 72
f 68 72 73
f 68 73 69
f 69 73 74
f 69 74 75
f 69 75 70
f 70 75 76
f 70 76 77
f 70 77 78
f 70 78 71
f 71 78 72
f 72 78 79
f 72 79 80
f 72 80 73
f 73 80 81
f 73 81 82
f 73 82 83
f 73 83 74
f 74 83 84
f 74 84 85
f 74 85 76
f 74 76 75
f 86 85 84
f 86 84 87
f 86 87 88
f 86 88 85
f 85 88 76
f 76 88 77
f 77 88 87
f 77 87 89
f 77 89 90
f 77 90 91
f 77 91 92
f 77 92 78
f 78 92 93
f 78 93 94
f 78 94 95
f 78 95 96
f 78 96 97
f 78 97 98
f 78 98 79
f 79 98 99
f 79 99 100
f 79 100 81
f 79 81 80
f 101 102 103
f 101 103 104
f 101 104 105
f 101 105 102
f 102 105 106
f 102 106 83
f 102 83 103
f 103 83 82
f 103 82 107
f 103 107 104
f 104 107 108
f 108 107 82
f 108 82 109
f 108 109 99
f 99 109 100
f 100 109 81
f 81 109 82
f 84 83 110
f 84 110 87
f 87 110 106
f 87 106 89
f 89 106 105
f 83 106 110
f 111 112 113
f 111 113 114
f 111 114 115
f 111 115 112
f 112 115 116
f 112 116 117
f 112 117 90
f 112 90 118
f 112 118 119
f 112 119 113
f 113 119 120
f 113 120 121
f 113 121 122
f 113 122 123
f 113 123 124
f 113 124 125
f 113 125 126
f 113 126 114
f 114 126 127
f 114 127 128
f 114 128 115
f 115 128 129
f 115 129 130
f 115 130 116
f 116 130 131
f 116 131 117
f 117 131 132
f 117 132 133
f 117 133 91
f 117 91 90
f 126 134 127
f 127 134 135
f 127 135 128
f 128 135 136
f 128 136 137
f 128 137 129
f 129 137 138
f 138 137 139
f 138 139 140
f 138 140 125
f 138 125 141
f 141 125 142
f 142 125 143
f 142 143 144
f 144 143 145
f 144 145 146
f 146 145 147
f 146 147 148
f 146 148 149
f 149 148 150
f 149 150 151
f 151 150 152
f 151 152 153
f 140 154 125
f 125 154 126
f 126 154 137
f 126 137 136
f 126 136 134
f 134 136 135
f 155 156 157
f 155 157 158
f 155 158 159
f 155 159 160
f 155 160 161
f 155 161 156
f 156 161 162
f 156 162 163
f 156 163 164
f 156 164 165
f 156 165 157
f 157 165 166
f 157 166 167
f 157 167 168
f 157 168 158
f 158 168 169
f 158 169 170
f 158 170 171
f 158 171 148
f 158 148 172
f 158 172 159
f 159 172 173
f 159 173 174
f 159 174 160
f 160 174 175
f 160 175 162
f 160 162 161
f 163 176 177
f 163 177 178
f 163 178 119
f 163 119 164
f 164 119 118
f 164 118 179
f 164 179 180
f 180 179 181
f 181 179 182
f 181 182 183
f 181 183 184
f 184 183 185
f 172 186 173
f 173 186 187
f 173 187 174
f 174 187 188
f 174 188 175
f 189 190 191
f 189 191 192
f 189 192 177
f 189 177 176
f 193 194 148
f 193 148 147
f 193 147 195
f 195 147 192
f 192 147 177
f 194 172 148
f 172 194 196
f 172 196 197
f 172 197 186
f 186 197 187
f 187 197 198
f 187 198 188
f 154 139 137
f 139 154 140
f 197 199 198
f 199 197 196
f 199 196 200
f 200 196 201
f 201 196 194
f 201 194 193
f 202 118 89
f 202 89 98
f 202 98 203
f 202 203 178
f 202 178 177
f 202 177 179
f 202 179 118
f 203 145 178
f 178 145 120
f 178 120 119
f 89 118 90
f 182 147 145
f 182 145 203
f 182 203 204
f 182 204 205
f 182 205 206
f 182 206 207
f 182 207 208
f 182 208 209
f 182 209 183
f 120 145 143
f 210 211 124
f 210 124 212
f 210 212 213
f 210 213 211
f 211 213 214
f 211 214 215
f 211 215 125
f 211 125 124
f 122 121 216
f 122 216 217
f 122 217 218
f 122 218 123
f 123 218 219
f 123 219 124
f 124 219 212
f 212 219 218
f 212 218 217
f 212 217 213
f 213 217 220
f 213 220 221
f 213 221 214
f 214 221 222
f 214 222 215
f 215 222 223
f 215 223 125
f 125 223 143
f 143 223 224
f 143 224 225
f 225 224 226
f 225 226 227
f 225 227 228
f 228 227 229
f 228 229 230
f 228 230 231
f 231 230 232
f 231 232 233
f 231 233 234
f 234 233 235
f 234 235 121
f 234 121 120
f 236 224 223
f 236 223 221
f 236 221 220
f 236 220 224
f 224 220 226
f 226 220 229
f 226 229 227
f 237 238 239
f 237 239 240
f 237 240 241
f 241 240 242
f 241 242 243
f 243 242 244
f 243 244 238
f 238 244 239
f 245 246 247
f 245 247 248
f 245 248 249
f 249 248 250
f 249 250 251
f 251 250 252
f 251 252 246
f 246 252 247
f 253 254 255
f 253 255 256
f 253 256 257
f 257 256 258
f 257 258 259
f 259 258 260
f 259 260 254
f 254 260 255
f 261 262 263
f 261 263 264
f 261 264 265
f 265 264 266
f 265 266 267
f 267 266 268
f 267 268 262
f 262 268 263
f 92 269 270
f 92 270 93
f 93 270 271
f 93 271 272
f 93 272 94
f 94 272 95
f 95 272 96
f 96 272 271
f 96 271 273
f 96 273 132
f 132 273 133
f 133 273 91
f 91 273 92
f 92 273 274
f 92 274 269
f 269 274 275
f 269 275 270
f 270 275 271
f 271 275 274
f 271 274 273
f 171 166 165
f 171 165 276
f 171 276 277
f 171 277 207
f 171 207 148
f 148 207 150
f 150 207 278
f 278 207 279
f 278 279 280
f 278 280 281
f 278 281 282
f 278 282 170
f 170 282 167
f 170 167 166
f 170 166 171
f 277 283 284
f 277 284 285
f 277 285 207
f 207 285 286
f 207 286 208
f 208 286 287
f 208 287 288
f 288 287 289
f 289 287 290
f 289 290 291
f 291 290 292
f 291 292 293
f 293 292 294
f 293 294 295
f 295 294 296
f 295 296 297
f 297 296 298
f 297 298 299
f 299 298 164
f 164 298 165
f 165 298 276
f 276 298 277
f 277 298 296
f 277 296 283
f 283 296 294
f 283 294 284
f 284 294 292
f 284 292 285
f 285 292 290
f 285 290 286
f 286 290 287
f 203 98 300
f 203 300 204
f 98 97 300
f 207 206 279
f 169 168 301
f 169 301 302
f 169 302 152
f 169 152 150
f 167 282 303
f 167 303 168
f 168 303 301
f 220 232 229
f 229 232 230
f 235 233 304
f 235 304 121
f 121 304 216
f 216 304 217
f 217 304 232
f 217 232 220
f 232 304 233
f 222 221 223
f 305 306 307
f 305 307 308
f 305 308 309
f 305 309 310
f 310 309 311
f 310 311 312
f 312 311 313
f 312 313 314
f 309 308 315
f 315 308 316
f 315 316 317
f 317 316 318
f 317 318 319
f 319 318 320
f 319 320 321
f 321 320 322
f 321 322 323
f 323 322 324
f 324 322 325
f 324 325 326
f 326 325 327
f 326 327 328
f 328 327 329
f 329 327 330
f 330 327 325
f 330 325 322
f 330 322 331
f 331 322 320
f 331 320 332
f 332 320 318
f 332 318 333
f 333 318 316
f 333 316 334
f 334 316 308
f 334 308 307
f 335 336 337
f 335 337 338
f 335 338 339
f 336 306 337
f 337 306 305
f 340 341 342
f 340 342 343
f 340 343 344
f 340 344 345
f 345 344 346
f 345 346 347
f 347 346 348
f 347 348 349
f 344 343 350
f 350 343 351
f 350 351 352
f 352 351 353
f 352 353 354
f 354 353 355
f 354 355 356
f 356 355 357
f 356 357 358
f 358 357 359
f 359 357 360
f 359 360 361
f 361 360 362
f 361 362 363
f 363 362 364
f 364 362 365
f 365 362 360
f 365 360 357
f 365 357 366
f 366 357 355
f 366 355 367
f 367 355 353
f 367 353 368
f 368 353 351
f 368 351 369
f 369 351 343
f 369 343 342
f 370 371 372
f 370 372 373
f 370 373 374
f 371 341 372
f 372 341 340
