# RS2 Model 11709
# Vertices: 200
# Faces: 240

v 118 69 17
v 114 75 17
v 107 71 0
v 111 64 0
v 126 78 34
v 104 53 17
v 107 62 17
v 99 64 0
v 98 56 0
v 122 55 34
v 61 80 19
v 57 74 19
v 61 70 0
v 67 77 0
v 50 84 37
v 51 100 19
v 46 94 19
v 51 89 0
v 57 96 0
v 40 104 38
v 112 32 19
v 107 38 19
v 101 34 0
v 107 27 0
v 121 45 39
v 38 90 15
v 31 93 15
v 28 86 0
v 37 83 0
v 37 105 31
v 19 106 18
v 16 100 18
v 22 96 0
v 26 104 0
v 8 108 36
v 40 119 21
v 33 113 21
v 37 108 0
v 43 112 0
v 30 125 44
v 20 88 18
v 14 88 18
v 12 81 0
v 21 82 0
v 15 99 36
v 116 28 19
v 121 25 19
v 126 27 0
v 120 35 0
v 107 17 37
v 119 116 21
v 126 122 21
v 122 128 0
v 114 123 0
v 128 112 44
v 124 9 21
v 116 5 21
v 118 -1 0
v 126 2 0
v 116 16 44
v 13 123 21
v 9 115 21
v 14 111 0
v 19 119 0
v 2 124 44
v 118 57 18
v 125 58 18
v 124 66 0
v 115 64 0
v 125 47 36
v 64 127 18
v 61 120 18
v 68 116 0
v 72 125 0
v 52 127 36
v 0 88 18
v 6 85 18
v 10 92 0
v 1 96 0
v -1 76 36
v 109 8 18
v 105 13 18
v 98 9 0
v 104 2 0
v 115 19 36
v -9 124 21
v -5 116 21
v 1 118 0
v -2 126 0
v -16 116 44
v -13 97 18
v -7 99 18
v -9 107 0
v -17 103 0
v -5 88 36
v 115 -69 21
v 108 -75 21
v 113 -80 0
v 120 -75 0
v 104 -64 44
v 77 -104 17
v 80 -96 17
v 73 -93 0
v 70 -101 0
v 90 -105 34
v 63 -63 18
v 68 -58 18
v 63 -53 0
v 58 -58 0
v 74 -69 36
v 75 -44 19
v 69 -40 19
v 65 -44 0
v 72 -50 0
v 79 -33 37
v 116 -56 19
v 110 -51 19
v 105 -56 0
v 112 -62 0
v 120 -45 38
v 52 -111 19
v 58 -116 19
v 63 -112 0
v 57 -105 0
v 44 -124 39
v 102 -108 18
v 108 -101 18
v 102 -96 0
v 96 -103 0
v 116 -114 36
v 93 -40 15
v 96 -33 15
v 90 -29 0
v 86 -38 0
v 108 -42 31
v 88 -120 18
v 91 -114 18
v 85 -110 0
v 81 -119 0
v 100 -122 36
v 108 -16 18
v 102 -13 18
v 98 -19 0
v 106 -23 0
v 110 -5 36
v 120 -82 21
v 117 -91 21
v 124 -94 0
v 127 -86 0
v 109 -83 44
v 120 -40 21
v 114 -33 21
v 109 -37 0
v 113 -43 0
v 126 -30 44
v 90 -25 18
v 93 -20 18
v 87 -15 0
v 84 -24 0
v 102 -26 36
v 70 -79 19
v 71 -73 19
v 66 -69 0
v 63 -78 0
v 82 -79 37
v 116 -116 21
v 117 -125 21
v 124 -125 0
v 124 -116 0
v 107 -121 44
v 124 -13 21
v 116 -9 21
v 112 -14 0
v 120 -19 0
v 125 -2 44
v 58 -118 18
v 59 -125 18
v 67 -124 0
v 65 -115 0
v 48 -125 36
v 128 -64 18
v 121 -61 18
v 117 -68 0
v 126 -72 0
v 128 -52 36
v 105 -6 18
v 103 0 18
v 95 -2 0
v 99 -11 0
v 114 2 36
v 20 -26 18
v 26 -26 18
v 26 -17 0
v 17 -19 0
v 26 -37 36
v 40 -62 18
v 40 -54 18
v 33 -54 0
v 33 -62 0
v 52 -58 36

f 1 2 3
f 1 3 4
f 1 4 2
f 1 2 5
f 1 5 2
f 4 3 2
f 6 7 8
f 6 8 9
f 6 9 7
f 6 7 10
f 6 10 7
f 9 8 7
f 11 12 13
f 11 13 14
f 11 14 12
f 11 12 15
f 11 15 12
f 14 13 12
f 16 17 18
f 16 18 19
f 16 19 17
f 16 17 20
f 16 20 17
f 19 18 17
f 21 22 23
f 21 23 24
f 21 24 22
f 21 22 25
f 21 25 22
f 24 23 22
f 26 27 28
f 26 28 29
f 26 29 27
f 26 27 30
f 26 30 27
f 29 28 27
f 31 32 33
f 31 33 34
f 31 34 32
f 31 32 35
f 31 35 32
f 34 33 32
f 36 37 38
f 36 38 39
f 36 39 37
f 36 37 40
f 36 40 37
f 39 38 37
f 41 42 43
f 41 43 44
f 41 44 42
f 41 42 45
f 41 45 42
f 44 43 42
f 46 47 48
f 46 48 49
f 46 49 47
f 46 47 50
f 46 50 47
f 49 48 47
f 51 52 53
f 51 53 54
f 51 54 52
f 51 52 55
f 51 55 52
f 54 53 52
f 56 57 58
f 56 58 59
f 56 59 57
f 56 57 60
f 56 60 57
f 59 58 57
f 61 62 63
f 61 63 64
f 61 64 62
f 61 62 65
f 61 65 62
f 64 63 62
f 66 67 68
f 66 68 69
f 66 69 67
f 66 67 70
f 66 70 67
f 69 68 67
f 71 72 73
f 71 73 74
f 71 74 72
f 71 72 75
f 71 75 72
f 74 73 72
f 76 77 78
f 76 78 79
f 76 79 77
f 76 77 80
f 76 80 77
f 79 78 77
f 81 82 83
f 81 83 84
f 81 84 82
f 81 82 85
f 81 85 82
f 84 83 82
f 86 87 88
f 86 88 89
f 86 89 87
f 86 87 90
f 86 90 87
f 89 88 87
f 91 92 93
f 91 93 94
f 91 94 92
f 91 92 95
f 91 95 92
f 94 93 92
f 96 97 98
f 96 98 99
f 96 99 97
f 96 97 100
f 96 100 97
f 99 98 97
f 101 102 103
f 101 103 104
f 101 104 102
f 101 102 105
f 101 105 102
f 104 103 102
f 106 107 108
f 106 108 109
f 106 109 107
f 106 107 110
f 106 110 107
f 109 108 107
f 111 112 113
f 111 113 114
f 111 114 112
f 111 112 115
f 111 115 112
f 114 113 112
f 116 117 118
f 116 118 119
f 116 119 117
f 116 117 120
f 116 120 117
f 119 118 117
f 121 122 123
f 121 123 124
f 121 124 122
f 121 122 125
f 121 125 122
f 124 123 122
f 126 127 128
f 126 128 129
f 126 129 127
f 126 127 130
f 126 130 127
f 129 128 127
f 131 132 133
f 131 133 134
f 131 134 132
f 131 132 135
f 131 135 132
f 134 133 132
f 136 137 138
f 136 138 139
f 136 139 137
f 136 137 140
f 136 140 137
f 139 138 137
f 141 142 143
f 141 143 144
f 141 144 142
f 141 142 145
f 141 145 142
f 144 143 142
f 146 147 148
f 146 148 149
f 146 149 147
f 146 147 150
f 146 150 147
f 149 148 147
f 151 152 153
f 151 153 154
f 151 154 152
f 151 152 155
f 151 155 152
f 154 153 152
f 156 157 158
f 156 158 159
f 156 159 157
f 156 157 160
f 156 160 157
f 159 158 157
f 161 162 163
f 161 163 164
f 161 164 162
f 161 162 165
f 161 165 162
f 164 163 162
f 166 167 168
f 166 168 169
f 166 169 167
f 166 167 170
f 166 170 167
f 169 168 167
f 171 172 173
f 171 173 174
f 171 174 172
f 171 172 175
f 171 175 172
f 174 173 172
f 176 177 178
f 176 178 179
f 176 179 177
f 176 177 180
f 176 180 177
f 179 178 177
f 181 182 183
f 181 183 184
f 181 184 182
f 181 182 185
f 181 185 182
f 184 183 182
f 186 187 188
f 186 188 189
f 186 189 187
f 186 187 190
f 186 190 187
f 189 188 187
f 191 192 193
f 191 193 194
f 191 194 192
f 191 192 195
f 191 195 192
f 194 193 192
f 196 197 198
f 196 198 199
f 196 199 197
f 196 197 200
f 196 200 197
f 199 198 197
