# RS2 Model 11718
# Vertices: 254
# Faces: 423

v 53 38 0
v 53 28 0
v 51 26 18
v 50 36 19
v 62 32 0
v 60 30 20
v 51 24 35
v 43 22 32
v 42 29 37
v 39 18 46
v 45 16 43
v 39 15 40
v 35 3 46
v 35 0 51
v 41 1 48
v 29 -8 44
v 30 47 0
v 27 38 0
v 24 37 12
v 27 44 17
v 37 40 0
v 31 35 17
v 20 34 26
v 17 36 22
v 19 38 27
v 3 37 35
v 7 32 35
v 2 33 31
v -8 23 49
v 31 62 0
v 28 51 0
v 26 49 18
v 27 60 19
v 39 53 0
v 36 52 20
v 25 48 35
v 18 48 32
v 19 56 37
v 13 46 46
v 18 41 43
v 12 42 40
v 10 32 46
v 9 30 51
v 14 28 48
v 0 21 44
v 46 50 0
v 42 38 0
v 45 43 18
v 47 53 15
v 54 42 0
v 55 44 15
v 60 54 27
v 50 51 29
v 52 62 27
v 53 60 40
v 60 53 40
v 51 51 38
v 50 47 47
v 48 53 54
v 55 45 54
v 46 34 57
v 44 38 51
v 40 41 57
v 29 27 49
v 36 21 49
v 35 27 46
v 23 18 45
v 22 21 48
v 26 16 48
v 13 10 54
v 38 -19 14
v 31 -20 14
v 32 -19 0
v 40 -16 0
v 33 -12 15
v 31 -20 25
v 35 -24 26
v 29 -25 23
v 34 -10 0
v 25 -28 28
v 26 -25 31
v 29 -28 33
v 17 -31 36
v 19 -30 33
v 17 -27 34
v 11 -37 31
v -1 57 0
v -10 50 0
v -6 53 16
v -1 59 13
v 0 46 0
v 2 46 13
v 10 53 24
v 0 57 25
v 8 62 24
v 9 62 36
v 10 52 36
v 2 56 34
v -1 53 42
v 1 58 48
v 3 48 48
v -11 44 51
v -11 49 46
v -12 54 51
v -26 48 44
v -25 40 44
v -22 43 41
v -34 42 40
v -35 46 43
v -33 40 43
v -47 42 48
v 38 31 0
v 39 19 0
v 34 17 16
v 35 27 22
v 49 25 0
v 44 18 22
v 31 11 34
v 27 13 28
v 27 15 35
v 9 8 46
v 16 4 46
v 9 2 40
v 1 -15 65
v 19 21 10
v 11 21 12
v 10 20 0
v 15 22 0
v 11 28 10
v 18 31 18
v 23 25 18
v 17 25 19
v 9 28 0
v 17 25 25
v 18 32 27
v 22 26 27
v 18 22 36
v 14 24 31
v 12 28 36
v 6 22 38
v 11 18 38
v 10 20 34
v 0 15 30
v -4 16 33
v 1 10 33
v -4 8 32
v -7 9 30
v -7 9 32
v -11 1 36
v 52 6 0
v 53 -1 0
v 52 2 12
v 50 8 10
v 59 3 0
v 60 5 10
v 58 12 18
v 53 8 19
v 51 13 18
v 52 13 27
v 60 12 27
v 53 8 25
v 54 6 31
v 51 7 36
v 58 5 36
v 56 -3 38
v 53 -1 34
v 50 -1 38
v 49 -12 33
v 55 -14 33
v 53 -12 30
v 50 -21 30
v 48 -19 32
v 51 -20 32
v 45 -27 36
v 18 2 0
v 16 -5 0
v 14 -5 9
v 16 -1 12
v 23 -4 0
v 19 -6 12
v 12 -8 18
v 10 -6 15
v 11 -5 19
v 0 -5 25
v 3 -9 25
v -1 -9 22
v -8 -16 35
v -2 42 0
v -3 35 0
v -4 34 11
v -5 40 12
v 3 39 0
v 2 38 13
v -4 34 21
v -9 32 19
v -10 37 23
v -11 30 29
v -8 29 27
v -11 28 25
v -14 21 29
v -14 20 32
v -10 20 30
v -18 14 27
v 40 14 0
v 39 5 0
v 37 3 15
v 37 12 16
v 47 11 0
v 44 9 18
v 37 3 28
v 31 0 25
v 30 7 30
v 28 -2 39
v 32 -2 36
v 28 -4 33
v 23 -14 39
v 23 -15 43
v 29 -15 40
v 19 -23 36
v -19 61 0
v -19 53 0
v -20 52 11
v -20 58 9
v -13 58 0
v -15 56 13
v -30 57 23
v 11 -16 0
v 11 -23 0
v 9 -25 11
v 9 -19 9
v 17 -19 0
v 15 -21 13
v 0 -20 23
v -21 40 0
v -14 36 0
v -13 33 13
v -19 38 11
v -14 44 0
v -14 42 16
v -24 27 29
v -11 10 0
v -7 13 0
v -6 13 8
v -10 13 6
v -11 15 0
v -11 15 10
v -4 4 18
v 52 -21 0
v 56 -18 0
v 57 -18 8
v 53 -18 6
v 52 -16 0
v 52 -16 10
v 59 -27 18

f 1 2 3
f 1 3 4
f 1 4 5
f 5 4 6
f 5 6 2
f 2 6 3
f 3 6 7
f 3 7 8
f 3 8 4
f 4 8 9
f 4 9 6
f 6 9 7
f 7 9 10
f 7 10 11
f 7 11 8
f 8 11 12
f 8 12 9
f 9 12 10
f 10 12 13
f 10 13 14
f 10 14 11
f 11 14 15
f 11 15 12
f 12 15 13
f 13 15 16
f 13 16 14
f 14 16 15
f 17 18 19
f 17 19 20
f 17 20 21
f 21 20 22
f 21 22 18
f 18 22 19
f 19 22 23
f 19 23 24
f 19 24 20
f 20 24 25
f 20 25 22
f 22 25 23
f 23 25 26
f 23 26 27
f 23 27 24
f 24 27 28
f 24 28 25
f 25 28 26
f 26 28 29
f 26 29 27
f 27 29 28
f 30 31 32
f 30 32 33
f 30 33 34
f 34 33 35
f 34 35 31
f 31 35 32
f 32 35 36
f 32 36 37
f 32 37 33
f 33 37 38
f 33 38 35
f 35 38 36
f 36 38 39
f 36 39 40
f 36 40 37
f 37 40 41
f 37 41 38
f 38 41 39
f 39 41 42
f 39 42 43
f 39 43 40
f 40 43 44
f 40 44 41
f 41 44 42
f 42 44 45
f 42 45 43
f 43 45 44
f 46 47 48
f 46 48 49
f 46 49 50
f 50 49 51
f 50 51 47
f 47 51 48
f 48 51 52
f 48 52 53
f 48 53 49
f 49 53 54
f 49 54 51
f 51 54 52
f 52 54 55
f 52 55 56
f 52 56 53
f 53 56 57
f 53 57 54
f 54 57 55
f 55 57 58
f 55 58 59
f 55 59 56
f 56 59 60
f 56 60 57
f 57 60 58
f 58 60 61
f 58 61 62
f 58 62 59
f 59 62 63
f 59 63 60
f 60 63 61
f 61 63 64
f 61 64 65
f 61 65 62
f 62 65 66
f 62 66 63
f 63 66 64
f 64 66 67
f 64 67 68
f 64 68 65
f 65 68 69
f 65 69 66
f 66 69 67
f 67 69 70
f 67 70 68
f 68 70 69
f 71 72 73
f 71 73 74
f 71 74 75
f 71 75 76
f 71 76 77
f 71 77 72
f 72 77 78
f 72 78 75
f 72 75 79
f 72 79 73
f 75 74 79
f 78 76 75
f 76 78 80
f 76 80 81
f 76 81 77
f 77 81 82
f 77 82 78
f 78 82 80
f 80 82 83
f 80 83 84
f 80 84 81
f 81 84 85
f 81 85 82
f 82 85 83
f 83 85 86
f 83 86 84
f 84 86 85
f 87 88 89
f 87 89 90
f 87 90 91
f 91 90 92
f 91 92 88
f 88 92 89
f 89 92 93
f 89 93 94
f 89 94 90
f 90 94 95
f 90 95 92
f 92 95 93
f 93 95 96
f 93 96 97
f 93 97 94
f 94 97 98
f 94 98 95
f 95 98 96
f 96 98 99
f 96 99 100
f 96 100 97
f 97 100 101
f 97 101 98
f 98 101 99
f 99 101 102
f 99 102 103
f 99 103 100
f 100 103 104
f 100 104 101
f 101 104 102
f 102 104 105
f 102 105 106
f 102 106 103
f 103 106 107
f 103 107 104
f 104 107 105
f 105 107 108
f 105 108 109
f 105 109 106
f 106 109 110
f 106 110 107
f 107 110 108
f 108 110 111
f 108 111 109
f 109 111 110
f 112 113 114
f 112 114 115
f 112 115 116
f 116 115 117
f 116 117 113
f 113 117 114
f 114 117 118
f 114 118 119
f 114 119 115
f 115 119 120
f 115 120 117
f 117 120 118
f 118 120 121
f 118 121 122
f 118 122 119
f 119 122 123
f 119 123 120
f 120 123 121
f 121 123 124
f 121 124 122
f 122 124 123
f 125 126 127
f 125 127 128
f 125 128 129
f 125 129 130
f 125 130 131
f 125 131 126
f 126 131 132
f 126 132 129
f 126 129 133
f 126 133 127
f 129 128 133
f 132 130 129
f 130 132 134
f 130 134 135
f 130 135 131
f 131 135 136
f 131 136 132
f 132 136 134
f 134 136 137
f 134 137 138
f 134 138 135
f 135 138 139
f 135 139 136
f 136 139 137
f 137 139 140
f 137 140 141
f 137 141 138
f 138 141 142
f 138 142 139
f 139 142 140
f 140 142 143
f 140 143 144
f 140 144 141
f 141 144 145
f 141 145 142
f 142 145 143
f 143 145 146
f 143 146 147
f 143 147 144
f 144 147 148
f 144 148 145
f 145 148 146
f 146 148 149
f 146 149 147
f 147 149 148
f 150 151 152
f 150 152 153
f 150 153 154
f 154 153 155
f 154 155 151
f 151 155 152
f 152 155 156
f 152 156 157
f 152 157 153
f 153 157 158
f 153 158 155
f 155 158 156
f 156 158 159
f 156 159 160
f 156 160 157
f 157 160 161
f 157 161 158
f 158 161 159
f 159 161 162
f 159 162 163
f 159 163 160
f 160 163 164
f 160 164 161
f 161 164 162
f 162 164 165
f 162 165 166
f 162 166 163
f 163 166 167
f 163 167 164
f 164 167 165
f 165 167 168
f 165 168 169
f 165 169 166
f 166 169 170
f 166 170 167
f 167 170 168
f 168 170 171
f 168 171 172
f 168 172 169
f 169 172 173
f 169 173 170
f 170 173 171
f 171 173 174
f 171 174 172
f 172 174 173
f 175 176 177
f 175 177 178
f 175 178 179
f 179 178 180
f 179 180 176
f 176 180 177
f 177 180 181
f 177 181 182
f 177 182 178
f 178 182 183
f 178 183 180
f 180 183 181
f 181 183 184
f 181 184 185
f 181 185 182
f 182 185 186
f 182 186 183
f 183 186 184
f 184 186 187
f 184 187 185
f 185 187 186
f 188 189 190
f 188 190 191
f 188 191 192
f 192 191 193
f 192 193 189
f 189 193 190
f 190 193 194
f 190 194 195
f 190 195 191
f 191 195 196
f 191 196 193
f 193 196 194
f 194 196 197
f 194 197 198
f 194 198 195
f 195 198 199
f 195 199 196
f 196 199 197
f 197 199 200
f 197 200 201
f 197 201 198
f 198 201 202
f 198 202 199
f 199 202 200
f 200 202 203
f 200 203 201
f 201 203 202
f 204 205 206
f 204 206 207
f 204 207 208
f 208 207 209
f 208 209 205
f 205 209 206
f 206 209 210
f 206 210 211
f 206 211 207
f 207 211 212
f 207 212 209
f 209 212 210
f 210 212 213
f 210 213 214
f 210 214 211
f 211 214 215
f 211 215 212
f 212 215 213
f 213 215 216
f 213 216 217
f 213 217 214
f 214 217 218
f 214 218 215
f 215 218 216
f 216 218 219
f 216 219 217
f 217 219 218
f 220 221 222
f 220 222 223
f 220 223 224
f 224 223 225
f 224 225 221
f 221 225 222
f 222 225 226
f 222 226 223
f 223 226 225
f 227 228 229
f 227 229 230
f 227 230 231
f 231 230 232
f 231 232 228
f 228 232 229
f 229 232 233
f 229 233 230
f 230 233 232
f 234 235 236
f 234 236 237
f 234 237 238
f 238 237 239
f 238 239 235
f 235 239 236
f 236 239 240
f 236 240 237
f 237 240 239
f 241 242 243
f 241 243 244
f 241 244 245
f 245 244 246
f 245 246 242
f 242 246 243
f 243 246 247
f 243 247 244
f 244 247 246
f 248 249 250
f 248 250 251
f 248 251 252
f 252 251 253
f 252 253 249
f 249 253 250
f 250 253 254
f 250 254 251
f 251 254 253
