# RS2 Model 11728
# Vertices: 78
# Faces: 140

v 28 -6 123
v 28 -8 130
v 21 1 128
v 24 1 118
v 23 0 109
v 32 -7 109
v 37 0 111
v 36 1 120
v 37 1 130
v 36 1 138
v 26 -7 135
v 20 0 134
v 26 11 130
v 27 9 124
v 28 8 118
v 32 10 110
v 32 5 99
v 28 0 99
v 32 -4 100
v 36 1 98
v 26 10 135
v 35 1 140
v 26 -7 137
v 20 1 136
v 22 -8 153
v 18 2 142
v 25 -9 146
v 33 1 152
v 27 2 157
v 19 2 160
v 17 -9 153
v 24 12 145
v 22 10 154
v 19 10 155
v 25 12 143
v 18 2 140
v 26 -9 144
v 34 1 150
v 26 10 137
v -28 -6 123
v -21 1 128
v -28 -8 130
v -37 1 130
v -36 1 120
v -37 0 111
v -32 -7 109
v -24 0 109
v -25 1 118
v -27 9 124
v -26 11 130
v -20 0 134
v -26 -7 135
v -36 1 138
v -28 8 118
v -32 10 110
v -36 1 98
v -32 -4 100
v -28 0 99
v -32 5 99
v -22 -8 153
v -25 -9 146
v -18 2 142
v -17 -9 153
v -19 2 160
v -27 2 157
v -33 1 152
v -26 -9 144
v -18 2 140
v -25 12 143
v -24 12 145
v -22 10 154
v -19 10 155
v -34 1 150
v -26 -7 137
v -20 1 136
v -26 10 137
v -35 1 140
v -26 10 135

f 1 2 3
f 1 3 4
f 1 4 5
f 1 5 6
f 1 6 7
f 1 7 8
f 1 8 9
f 1 9 2
f 2 9 10
f 2 10 11
f 2 11 12
f 2 12 3
f 3 12 13
f 3 13 14
f 3 14 4
f 4 14 15
f 4 15 5
f 5 15 16
f 5 16 17
f 5 17 18
f 5 18 19
f 5 19 6
f 6 19 7
f 7 19 20
f 7 20 16
f 7 16 8
f 8 16 15
f 8 15 14
f 8 14 9
f 9 14 13
f 9 13 10
f 10 13 21
f 10 21 22
f 10 22 11
f 11 22 23
f 11 23 24
f 11 24 12
f 12 24 21
f 12 21 13
f 16 20 17
f 25 26 27
f 25 27 28
f 25 28 29
f 25 29 30
f 25 30 31
f 25 31 26
f 29 28 32
f 29 32 33
f 29 33 30
f 30 33 34
f 34 33 26
f 26 33 32
f 26 32 35
f 26 35 36
f 26 36 37
f 26 37 27
f 27 37 28
f 28 37 38
f 28 38 32
f 32 38 35
f 35 38 22
f 35 22 39
f 35 39 36
f 36 39 24
f 36 24 23
f 36 23 37
f 37 23 38
f 38 23 22
f 21 24 39
f 21 39 22
f 40 41 42
f 40 42 43
f 40 43 44
f 40 44 45
f 40 45 46
f 40 46 47
f 40 47 48
f 40 48 41
f 41 48 49
f 41 49 50
f 41 50 51
f 41 51 42
f 42 51 52
f 42 52 53
f 42 53 43
f 43 53 50
f 43 50 49
f 43 49 44
f 44 49 54
f 44 54 55
f 44 55 45
f 45 55 56
f 45 56 57
f 45 57 46
f 46 57 47
f 47 57 58
f 47 58 59
f 47 59 55
f 47 55 54
f 47 54 48
f 48 54 49
f 55 59 56
f 60 61 62
f 60 62 63
f 60 63 64
f 60 64 65
f 60 65 66
f 60 66 61
f 61 66 67
f 61 67 62
f 62 67 68
f 62 68 69
f 62 69 70
f 62 70 71
f 62 71 72
f 72 71 64
f 64 71 65
f 65 71 70
f 65 70 66
f 66 70 73
f 66 73 67
f 67 73 74
f 67 74 68
f 68 74 75
f 68 75 76
f 68 76 69
f 69 76 77
f 69 77 73
f 69 73 70
f 50 53 78
f 50 78 51
f 51 78 75
f 51 75 52
f 52 75 74
f 52 74 77
f 52 77 53
f 53 77 78
f 78 77 76
f 78 76 75
f 73 77 74
