# RS2 Model 11789
# Vertices: 147
# Faces: 280

v -30 -26 86
v -32 -26 86
v -33 -23 84
v -29 -23 84
v -29 -25 88
v -30 -66 96
v -31 -67 94
v -33 -67 94
v -33 -25 88
v -34 -22 88
v -34 -7 82
v -29 -7 82
v -28 -22 88
v -30 -25 90
v -31 -66 98
v -29 -65 102
v -26 -65 99
v -26 -66 93
v -29 -67 90
v -35 -67 90
v -38 -66 93
v -34 -66 96
v -32 -25 90
v -33 -22 91
v -34 -7 87
v -29 -22 91
v -33 -66 98
v -35 -65 102
v -32 -66 102
v -29 -68 102
v -27 -71 103
v -26 -68 102
v -26 -68 99
v -26 -69 96
v -26 -70 93
v -26 -70 90
v -29 -70 90
v -32 -68 90
v -35 -70 90
v -38 -70 90
v -38 -70 93
v -38 -69 96
v -38 -65 99
v -38 -68 102
v -37 -71 103
v -35 -68 102
v -35 -68 105
v -32 -66 105
v -29 -68 105
v -27 -71 106
v -29 -74 103
v -26 -74 103
v -26 -71 100
v -14 -72 97
v -26 -73 94
v -26 -76 91
v -27 -73 91
v -27 -74 88
v -29 -71 87
v -32 -69 87
v -35 -71 87
v -37 -73 91
v -38 -76 91
v -38 -73 94
v -50 -72 97
v -38 -71 100
v -38 -68 99
v -38 -74 103
v -35 -77 104
v -35 -74 103
v -35 -73 106
v -37 -71 106
v -42 -69 114
v -39 -62 113
v -32 -59 112
v -25 -62 113
v -22 -69 114
v -29 -73 106
v -32 -76 104
v -29 -77 104
v -26 -78 101
v -26 -74 101
v -26 -75 98
v -26 -76 95
v -26 -79 95
v -29 -79 92
v -29 -76 91
v -29 -77 88
v -25 -82 81
v -22 -75 80
v -25 -68 79
v -32 -65 79
v -39 -68 79
v -37 -74 88
v -35 -76 91
v -35 -79 92
v -38 -79 95
v -38 -76 95
v -38 -75 98
v -38 -74 101
v -38 -78 101
v -35 -78 101
v -32 -78 101
v -32 -75 107
v -32 -79 115
v -39 -76 115
v -39 -75 119
v -42 -68 118
v -39 -61 117
v -32 -58 116
v -25 -61 117
v -22 -68 118
v -25 -76 115
v -35 -77 88
v -32 -78 92
v -32 -79 95
v -35 -79 95
v -35 -79 98
v -32 -79 89
v -32 -85 82
v -32 -86 77
v -25 -83 76
v -22 -76 75
v -25 -69 74
v -32 -66 74
v -39 -69 74
v -42 -75 80
v -39 -82 81
v -39 -83 76
v -42 -76 75
v -25 -75 119
v -32 -78 119
v -29 13 84
v -29 12 78
v -34 12 78
v -34 13 84
v -34 5 85
v -29 5 85
v -29 5 82
v -29 4 80
v -34 4 80
v -34 5 82
v -29 -7 87
v -29 -78 101
v -29 -79 98
v -29 -79 95
v -32 -90 100

f 1 2 3
f 1 3 4
f 1 4 5
f 1 5 6
f 1 6 7
f 1 7 2
f 2 7 8
f 2 8 9
f 2 9 10
f 2 10 3
f 3 10 11
f 3 11 4
f 4 11 12
f 4 12 13
f 4 13 5
f 5 13 14
f 5 14 15
f 5 15 6
f 6 15 16
f 6 16 17
f 6 17 18
f 6 18 7
f 7 18 19
f 7 19 20
f 7 20 8
f 8 20 21
f 8 21 22
f 8 22 9
f 9 22 23
f 9 23 24
f 9 24 10
f 10 24 25
f 10 25 11
f 13 26 14
f 14 26 23
f 14 23 15
f 15 23 27
f 15 27 16
f 16 27 28
f 16 28 29
f 16 29 30
f 16 30 31
f 16 31 32
f 16 32 17
f 17 32 33
f 17 33 34
f 17 34 18
f 18 34 35
f 18 35 36
f 18 36 19
f 19 36 37
f 19 37 38
f 19 38 20
f 20 38 39
f 20 39 40
f 20 40 21
f 21 40 41
f 21 41 42
f 21 42 43
f 21 43 22
f 22 43 28
f 22 28 27
f 22 27 23
f 28 43 44
f 28 44 45
f 28 45 46
f 28 46 29
f 29 46 47
f 29 47 48
f 29 48 30
f 30 48 49
f 30 49 31
f 31 49 50
f 31 50 51
f 31 51 52
f 31 52 32
f 32 52 53
f 32 53 33
f 33 53 34
f 34 53 54
f 34 54 55
f 34 55 35
f 35 55 36
f 36 55 56
f 36 56 57
f 36 57 37
f 37 57 58
f 37 58 59
f 37 59 38
f 38 59 60
f 38 60 39
f 39 60 61
f 39 61 62
f 39 62 40
f 40 62 63
f 40 63 64
f 40 64 41
f 41 64 42
f 42 64 65
f 42 65 66
f 42 66 67
f 42 67 43
f 43 67 44
f 44 67 66
f 44 66 68
f 44 68 45
f 45 68 69
f 45 69 70
f 45 70 71
f 45 71 72
f 45 72 46
f 46 72 47
f 47 72 73
f 47 73 74
f 47 74 48
f 48 74 75
f 48 75 49
f 49 75 76
f 49 76 50
f 50 76 77
f 50 77 78
f 50 78 51
f 51 78 79
f 51 79 52
f 52 79 80
f 52 80 81
f 52 81 82
f 52 82 53
f 53 82 83
f 53 83 54
f 54 83 55
f 55 83 84
f 55 84 56
f 56 84 85
f 56 85 86
f 56 86 87
f 56 87 57
f 57 87 88
f 57 88 58
f 58 88 89
f 58 89 90
f 58 90 59
f 59 90 91
f 59 91 60
f 60 91 92
f 60 92 61
f 61 92 93
f 61 93 94
f 61 94 62
f 62 94 95
f 62 95 96
f 62 96 63
f 63 96 97
f 63 97 98
f 63 98 64
f 64 98 99
f 64 99 65
f 65 99 66
f 66 99 100
f 66 100 68
f 68 100 101
f 68 101 69
f 69 101 102
f 69 102 103
f 69 103 80
f 69 80 79
f 69 79 70
f 70 79 104
f 70 104 71
f 71 104 105
f 71 105 106
f 71 106 72
f 72 106 73
f 73 106 107
f 73 107 108
f 73 108 74
f 74 108 109
f 74 109 75
f 75 109 110
f 75 110 76
f 76 110 111
f 76 111 77
f 77 111 112
f 77 112 113
f 77 113 78
f 78 113 104
f 78 104 79
f 94 114 95
f 95 114 115
f 95 115 96
f 96 115 86
f 96 86 116
f 96 116 117
f 96 117 97
f 97 117 118
f 97 118 101
f 97 101 99
f 97 99 98
f 87 115 119
f 87 119 88
f 88 119 120
f 88 120 89
f 89 120 121
f 89 121 122
f 89 122 90
f 90 122 123
f 90 123 91
f 91 123 124
f 91 124 92
f 92 124 125
f 92 125 93
f 93 125 126
f 93 126 127
f 93 127 94
f 94 127 114
f 114 127 128
f 114 128 119
f 114 119 115
f 115 87 86
f 128 120 119
f 120 128 129
f 120 129 121
f 121 129 122
f 122 129 130
f 122 130 123
f 123 130 126
f 123 126 124
f 124 126 125
f 128 127 130
f 128 130 129
f 126 130 127
f 113 105 104
f 105 113 131
f 105 131 132
f 105 132 106
f 106 132 107
f 107 132 131
f 107 131 112
f 107 112 108
f 108 112 111
f 108 111 109
f 109 111 110
f 112 131 113
f 133 134 135
f 133 135 136
f 133 136 137
f 133 137 138
f 133 138 139
f 133 139 134
f 134 139 140
f 134 140 135
f 135 140 141
f 135 141 142
f 135 142 136
f 136 142 137
f 143 26 13
f 143 13 12
f 26 24 23
f 24 26 25
f 25 26 143
f 144 80 103
f 144 103 145
f 144 145 81
f 144 81 80
f 146 86 85
f 146 85 145
f 146 145 116
f 146 116 86
f 103 118 147
f 103 147 145
f 145 147 116
f 116 147 118
f 116 118 117
f 103 102 118
f 118 102 101
f 84 83 85
f 85 83 81
f 85 81 145
f 83 82 81
f 101 100 99
