# RS2 Model 11781
# Vertices: 174
# Faces: 276

v 18 0 78
v 10 -6 55
v 16 0 55
v 8 7 55
v 10 9 76
v 12 10 90
v 20 1 96
v 10 -10 92
v 10 -9 79
v 2 2 77
v 3 1 55
v 10 -5 45
v 17 1 46
v 9 10 45
v 2 2 45
v 0 0 95
v 0 13 97
v 10 14 107
v 19 0 105
v 10 -9 105
v 3 -7 99
v 2 -6 90
v -3 -7 99
v -2 -6 90
v -2 2 77
v -10 9 76
v -12 10 90
v -10 14 107
v 0 16 107
v 9 12 116
v 16 3 115
v 11 -7 112
v 0 -9 105
v -10 -9 105
v -10 -9 92
v -10 -9 79
v -10 -6 55
v -3 1 55
v -8 7 55
v -18 0 78
v -20 1 96
v -19 0 105
v -9 12 116
v 0 14 116
v 0 12 119
v 8 10 119
v 16 10 107
v 20 2 107
v 21 4 101
v 17 10 101
v 17 10 100
v 21 4 100
v 18 10 95
v 22 3 95
v 18 10 94
v 22 3 94
v 19 11 87
v 22 3 86
v 19 11 85
v 22 3 84
v 19 -5 85
v 19 -7 83
v 13 -8 87
v 13 -8 85
v 4 2 32
v 9 -4 32
v 15 2 31
v 8 11 34
v 8 9 19
v 5 2 19
v 8 -2 19
v 13 2 19
v -16 0 55
v -16 3 115
v -14 2 119
v -8 10 119
v 0 19 107
v -11 16 107
v 0 19 101
v -12 16 101
v 0 19 100
v -12 16 100
v 0 18 93
v -12 15 94
v 0 18 92
v -12 15 93
v 0 17 84
v -11 14 87
v 0 17 82
v -10 14 85
v -17 1 46
v -10 -5 45
v -2 2 45
v -9 10 45
v -15 2 31
v -9 -4 32
v -4 2 32
v -8 11 34
v -13 2 19
v -8 -2 19
v -5 2 19
v -8 9 19
v 14 2 119
v 8 -7 117
v 0 -9 116
v 0 -9 111
v -11 -7 112
v -8 -7 117
v -1 -12 107
v 10 -10 107
v 11 -11 101
v -1 -13 101
v -1 -13 100
v 11 -11 100
v -1 -14 93
v 11 -11 94
v -1 -14 92
v 11 -11 93
v -1 -14 84
v 10 -11 87
v 9 -9 85
v -1 -14 82
v -10 -11 85
v -11 -11 87
v -12 -11 93
v -12 -11 94
v -12 -11 100
v -12 -11 101
v -11 -10 107
v -17 11 107
v -20 0 107
v -18 -3 107
v -14 -8 107
v -19 -6 100
v -19 -6 101
v -21 -1 101
v -21 -1 100
v -22 -1 95
v -20 -6 94
v -14 -9 94
v -14 -9 100
v -14 -9 101
v -18 11 101
v -18 11 100
v -19 11 95
v -22 -1 94
v -20 -6 93
v -14 -9 93
v -23 -1 84
v -20 -6 83
v -20 -6 85
v -23 -1 86
v -20 10 84
v -20 10 86
v -19 11 94
v -14 -9 85
v -14 -9 87
v 13 -8 107
v 18 -3 107
v 13 -8 101
v 18 -5 101
v 13 -8 100
v 18 -5 100
v 19 -5 93
v 19 -5 94
v 13 -8 94
v 13 -8 93
v 12 16 107
v 13 15 101
v 13 15 100
v 13 14 94
v 13 14 93
v 12 14 87
v 11 14 85

f 1 2 3
f 1 3 4
f 1 4 5
f 1 5 6
f 1 6 7
f 1 7 8
f 1 8 9
f 1 9 2
f 2 9 10
f 2 10 11
f 2 11 12
f 2 12 13
f 2 13 3
f 3 13 4
f 4 13 14
f 4 14 15
f 4 15 11
f 4 11 5
f 5 11 10
f 5 10 16
f 5 16 6
f 6 16 17
f 6 17 18
f 6 18 7
f 7 18 19
f 7 19 8
f 8 19 20
f 8 20 21
f 8 21 22
f 8 22 9
f 9 22 10
f 10 22 16
f 16 22 21
f 16 21 23
f 16 23 24
f 16 24 25
f 16 25 26
f 16 26 27
f 16 27 17
f 17 27 28
f 17 28 29
f 17 29 18
f 18 29 30
f 18 30 19
f 19 30 31
f 19 31 20
f 20 31 32
f 20 32 33
f 20 33 21
f 21 33 23
f 23 33 34
f 23 34 35
f 23 35 24
f 24 35 36
f 24 36 25
f 25 36 37
f 25 37 38
f 25 38 26
f 26 38 39
f 26 39 40
f 26 40 27
f 27 40 41
f 27 41 28
f 28 41 42
f 28 42 43
f 28 43 29
f 29 43 44
f 29 44 30
f 30 44 45
f 30 45 46
f 30 46 31
f 30 31 47
f 47 31 48
f 47 48 49
f 47 49 50
f 50 49 51
f 51 49 52
f 51 52 53
f 53 52 54
f 53 54 55
f 55 54 56
f 55 56 57
f 57 56 58
f 57 58 59
f 59 58 60
f 60 58 61
f 60 61 62
f 62 61 63
f 62 63 64
f 11 15 12
f 12 15 65
f 12 65 66
f 12 66 13
f 13 66 67
f 13 67 14
f 14 67 68
f 14 68 15
f 15 68 65
f 65 68 69
f 65 69 70
f 65 70 66
f 66 70 71
f 66 71 67
f 67 71 72
f 67 72 68
f 68 72 69
f 40 73 37
f 40 37 36
f 40 36 35
f 40 35 41
f 41 35 42
f 42 35 34
f 42 34 74
f 42 74 43
f 43 74 75
f 43 75 76
f 43 76 44
f 43 44 77
f 43 77 78
f 78 77 79
f 78 79 80
f 80 79 81
f 80 81 82
f 82 81 83
f 82 83 84
f 84 83 85
f 84 85 86
f 86 85 87
f 86 87 88
f 88 87 89
f 88 89 90
f 40 39 73
f 73 39 91
f 73 91 37
f 37 91 92
f 37 92 38
f 38 92 93
f 38 93 39
f 39 93 94
f 39 94 91
f 91 94 95
f 91 95 96
f 91 96 92
f 92 96 97
f 92 97 93
f 93 97 98
f 93 98 94
f 94 98 95
f 95 98 99
f 95 99 100
f 95 100 96
f 96 100 101
f 96 101 97
f 97 101 102
f 97 102 98
f 98 102 99
f 103 104 32
f 103 32 31
f 103 31 46
f 104 105 106
f 104 106 32
f 32 106 33
f 33 106 107
f 33 107 34
f 34 107 74
f 74 107 75
f 75 107 108
f 108 107 105
f 105 107 106
f 106 107 109
f 106 109 32
f 32 109 110
f 110 109 111
f 111 109 112
f 111 112 113
f 111 113 114
f 114 113 115
f 114 115 116
f 116 115 117
f 116 117 118
f 118 117 119
f 118 119 120
f 120 119 121
f 121 119 122
f 122 119 123
f 123 119 124
f 124 119 117
f 124 117 125
f 125 117 115
f 125 115 126
f 126 115 113
f 126 113 127
f 127 113 112
f 127 112 128
f 128 112 109
f 128 109 129
f 129 109 107
f 76 45 44
f 74 130 131
f 74 131 132
f 74 132 133
f 74 133 107
f 134 135 136
f 134 136 137
f 134 137 138
f 134 138 139
f 134 139 140
f 134 140 141
f 134 141 135
f 135 141 142
f 135 142 132
f 135 132 131
f 135 131 136
f 136 131 130
f 136 130 143
f 136 143 137
f 137 143 144
f 137 144 145
f 137 145 138
f 138 145 146
f 138 146 139
f 139 146 147
f 139 147 148
f 139 148 140
f 149 150 151
f 149 151 152
f 149 152 153
f 153 152 154
f 154 152 146
f 154 146 155
f 155 146 145
f 152 151 147
f 152 147 146
f 156 157 151
f 156 151 150
f 157 148 147
f 157 147 151
f 158 159 31
f 158 31 32
f 159 158 160
f 159 160 161
f 159 161 49
f 159 49 48
f 159 48 31
f 160 162 163
f 160 163 161
f 161 163 52
f 161 52 49
f 164 165 166
f 164 166 167
f 164 167 61
f 164 61 58
f 164 58 56
f 164 56 165
f 165 56 54
f 165 54 163
f 165 163 166
f 166 163 162
f 61 167 63
f 77 44 30
f 77 30 168
f 77 168 79
f 79 168 169
f 79 169 170
f 79 170 81
f 81 170 171
f 81 171 83
f 83 171 172
f 83 172 85
f 85 172 173
f 85 173 87
f 87 173 89
f 89 173 174
f 132 142 133
f 163 54 52
f 74 43 130
