# RS2 Model 11784
# Vertices: 123
# Faces: 230

v -6 -7 127
v -5 -8 133
v -13 -3 135
v -13 -1 128
v -7 -7 120
v 0 -9 127
v 0 -10 133
v 0 -11 137
v -8 -9 137
v -13 -3 139
v -14 2 140
v -13 1 135
v -6 7 128
v -7 8 122
v -13 0 123
v -8 -7 117
v 0 -9 116
v 0 -9 120
v 7 -7 120
v 6 -7 127
v 5 -8 133
v 8 -9 137
v 8 -11 138
v 0 -12 138
v -8 -11 138
v -14 -3 140
v -15 2 141
v -8 8 139
v -7 7 138
v -6 7 135
v 0 9 127
v 0 10 122
v 0 12 119
v -8 10 119
v -14 2 119
v 0 10 135
v 6 7 135
v 6 7 128
v 7 8 122
v 8 10 119
v 13 0 123
v 14 2 119
v 8 -7 117
v 0 -3 160
v 0 0 163
v -2 -3 160
v 0 -9 153
v 2 -3 160
v 4 5 166
v 10 -3 158
v 10 4 164
v 11 7 162
v 7 11 161
v 0 10 167
v 0 15 157
v -7 11 161
v -4 5 166
v -11 7 162
v -10 4 164
v -10 -3 158
v -14 4 163
v -15 -2 157
v -14 -4 155
v -7 -9 155
v -6 -14 147
v 0 -12 147
v 6 -14 147
v 7 -9 155
v 14 -4 155
v 15 -2 157
v 14 4 163
v 15 11 157
v 9 13 157
v 0 14 147
v -9 13 157
v -15 11 157
v -12 -12 147
v -15 -6 146
v -14 -4 144
v -8 -10 142
v 0 -11 141
v 0 -11 142
v -8 -10 141
v -8 -11 140
v 0 -12 140
v 8 -11 140
v 8 -10 141
v 8 -10 142
v -14 -3 143
v -14 2 144
v -15 2 143
v -14 -3 142
v 14 -3 140
v 14 -3 142
v 14 -3 143
v 14 -4 144
v 12 -12 147
v 15 -6 146
v 15 4 147
v -15 4 147
v -8 8 142
v -9 9 141
v -9 9 147
v -8 8 143
v 0 12 142
v 0 13 141
v 0 13 139
v 0 11 138
v 0 12 143
v 8 8 143
v 8 8 142
v 9 9 141
v 8 8 139
v 7 7 138
v 14 2 140
v 13 1 135
v 13 -1 128
v 13 -3 135
v 13 -3 139
v 9 9 147
v 14 2 144
v 15 2 143
v 15 2 141

f 1 2 3
f 1 3 4
f 1 4 5
f 1 5 6
f 1 6 2
f 2 6 7
f 2 7 8
f 2 8 9
f 2 9 3
f 3 9 10
f 3 10 11
f 3 11 12
f 3 12 4
f 4 12 13
f 4 13 14
f 4 14 15
f 4 15 5
f 5 15 16
f 5 16 17
f 5 17 18
f 5 18 6
f 6 18 19
f 6 19 20
f 6 20 21
f 6 21 7
f 7 21 8
f 8 21 22
f 8 22 23
f 8 23 24
f 8 24 25
f 8 25 9
f 9 25 26
f 9 26 10
f 10 26 27
f 10 27 11
f 11 27 28
f 11 28 29
f 11 29 30
f 11 30 12
f 12 30 13
f 13 30 31
f 13 31 14
f 14 31 32
f 14 32 33
f 14 33 34
f 14 34 15
f 15 34 35
f 15 35 16
f 30 36 31
f 31 36 37
f 31 37 38
f 31 38 39
f 31 39 32
f 32 39 33
f 33 39 40
f 40 39 41
f 40 41 42
f 42 41 43
f 43 41 19
f 43 19 17
f 17 19 18
f 44 45 46
f 44 46 47
f 44 47 48
f 44 48 45
f 45 48 49
f 49 48 50
f 49 50 51
f 49 51 52
f 49 52 53
f 49 53 54
f 54 53 55
f 54 55 56
f 54 56 57
f 57 56 58
f 57 58 59
f 57 59 60
f 57 60 46
f 57 46 45
f 60 59 61
f 60 61 62
f 60 62 63
f 60 63 64
f 60 64 46
f 46 64 47
f 47 64 65
f 47 65 66
f 47 66 67
f 47 67 68
f 47 68 48
f 48 68 50
f 50 68 69
f 50 69 70
f 50 70 71
f 50 71 51
f 51 71 52
f 52 71 72
f 52 72 73
f 52 73 53
f 53 73 55
f 55 73 74
f 55 74 75
f 55 75 56
f 56 75 58
f 58 75 76
f 58 76 61
f 58 61 59
f 77 63 78
f 77 78 79
f 77 79 80
f 77 80 65
f 77 65 64
f 77 64 63
f 81 82 80
f 81 80 83
f 81 83 84
f 81 84 85
f 81 85 86
f 81 86 87
f 81 87 88
f 81 88 82
f 82 88 67
f 82 67 66
f 82 66 65
f 82 65 80
f 89 83 80
f 89 80 79
f 89 79 90
f 89 90 91
f 89 91 92
f 89 92 83
f 83 92 84
f 84 92 26
f 84 26 25
f 84 25 85
f 85 25 24
f 85 24 23
f 85 23 86
f 86 23 93
f 86 93 94
f 86 94 87
f 87 94 95
f 87 95 88
f 88 95 96
f 88 96 97
f 88 97 67
f 67 97 68
f 68 97 69
f 69 97 98
f 69 98 99
f 69 99 70
f 100 63 62
f 63 100 78
f 78 100 79
f 79 100 90
f 90 100 101
f 90 101 102
f 90 102 91
f 91 102 28
f 91 28 27
f 91 27 26
f 91 26 92
f 75 74 103
f 75 103 76
f 76 103 100
f 100 103 104
f 100 104 101
f 101 104 105
f 101 105 106
f 101 106 102
f 102 106 107
f 102 107 28
f 28 107 29
f 29 107 108
f 29 108 36
f 29 36 30
f 104 74 109
f 104 109 105
f 105 109 110
f 105 110 111
f 105 111 106
f 106 111 112
f 106 112 107
f 107 112 113
f 107 113 114
f 107 114 108
f 108 114 36
f 36 114 37
f 37 114 115
f 37 115 116
f 37 116 38
f 38 116 117
f 38 117 39
f 39 117 41
f 41 117 19
f 19 117 20
f 20 117 118
f 20 118 21
f 21 118 22
f 22 118 119
f 22 119 93
f 22 93 23
f 104 103 74
f 96 99 98
f 96 98 97
f 115 119 118
f 115 118 116
f 116 118 117
f 73 120 74
f 74 120 110
f 74 110 109
f 120 73 72
f 120 72 99
f 120 99 110
f 110 99 111
f 111 99 121
f 111 121 112
f 112 121 122
f 112 122 113
f 113 122 123
f 113 123 115
f 113 115 114
f 121 99 96
f 121 96 95
f 121 95 122
f 122 95 94
f 122 94 93
f 122 93 123
f 123 93 119
f 123 119 115
