# RS2 Model 1178
# Vertices: 244
# Faces: 467

v -44 14 215
v -52 14 215
v -52 14 204
v -44 14 204
v -38 8 215
v -38 8 204
v -58 8 215
v -58 8 204
v -56 6 193
v -50 12 193
v -46 12 193
v -58 0 215
v -58 0 204
v -56 2 193
v -52 -6 215
v -52 -6 204
v -50 -4 193
v -44 -6 215
v -44 -6 204
v -46 -4 193
v -38 0 215
v -38 0 204
v -40 2 193
v -40 6 193
v -46 -16 202
v -46 -5 197
v -46 -5 199
v -46 -13 204
v -46 -14 210
v -50 -16 202
v -50 -14 210
v -50 -12 208
v -50 -13 204
v -50 -5 197
v -50 -5 199
v -46 -12 208
v -46 -6 211
v -50 -6 211
v -50 -6 210
v -46 -6 210
v -44 -18 215
v -52 -18 215
v -52 -18 204
v -44 -18 204
v -38 -24 215
v -38 -24 204
v -58 -24 215
v -58 -24 204
v -56 -26 193
v -50 -20 193
v -46 -20 193
v -58 -32 215
v -58 -32 204
v -56 -30 193
v -52 -38 215
v -52 -38 204
v -50 -36 193
v -44 -38 215
v -44 -38 204
v -46 -36 193
v -38 -32 215
v -38 -32 204
v -40 -30 193
v -40 -26 193
v -46 -48 202
v -46 -37 197
v -46 -37 199
v -46 -45 204
v -46 -46 210
v -50 -48 202
v -50 -46 210
v -50 -44 208
v -50 -45 204
v -50 -37 197
v -50 -37 199
v -46 -44 208
v -46 -38 211
v -50 -38 211
v -50 -38 210
v -46 -38 210
v -44 46 142
v -52 46 142
v -52 46 131
v -44 46 131
v -38 40 142
v -38 40 131
v -58 40 142
v -58 40 131
v -56 38 120
v -50 44 120
v -46 44 120
v -58 32 142
v -58 32 131
v -56 34 120
v -52 26 142
v -52 26 131
v -50 28 120
v -44 26 142
v -44 26 131
v -46 28 120
v -38 32 142
v -38 32 131
v -40 34 120
v -40 38 120
v -46 16 129
v -46 27 124
v -46 27 126
v -46 19 131
v -46 18 136
v -50 16 129
v -50 18 136
v -50 20 135
v -50 19 131
v -50 27 124
v -50 27 126
v -46 20 135
v -46 26 138
v -50 26 138
v -50 26 136
v -46 26 136
v -44 14 142
v -52 14 142
v -52 14 131
v -44 14 131
v -38 8 142
v -38 8 131
v -58 8 142
v -58 8 131
v -56 6 120
v -50 12 120
v -46 12 120
v -58 0 142
v -58 0 131
v -56 2 120
v -52 -6 142
v -52 -6 131
v -50 -4 120
v -44 -6 142
v -44 -6 131
v -46 -4 120
v -38 0 142
v -38 0 131
v -40 2 120
v -40 6 120
v -46 -16 129
v -46 -5 124
v -46 -5 126
v -46 -13 131
v -46 -14 136
v -50 -16 129
v -50 -14 136
v -50 -12 135
v -50 -13 131
v -50 -5 124
v -50 -5 126
v -46 -12 135
v -46 -6 138
v -50 -6 138
v -50 -6 136
v -46 -6 136
v -44 -18 142
v -52 -18 142
v -52 -18 131
v -44 -18 131
v -38 -24 142
v -38 -24 131
v -58 -24 142
v -58 -24 131
v -56 -26 120
v -50 -20 120
v -46 -20 120
v -58 -32 142
v -58 -32 131
v -56 -30 120
v -52 -38 142
v -52 -38 131
v -50 -36 120
v -44 -38 142
v -44 -38 131
v -46 -36 120
v -38 -32 142
v -38 -32 131
v -40 -30 120
v -40 -26 120
v -46 -48 129
v -46 -37 124
v -46 -37 126
v -46 -45 131
v -46 -46 136
v -50 -48 129
v -50 -46 136
v -50 -44 135
v -50 -45 131
v -50 -37 124
v -50 -37 126
v -46 -44 135
v -46 -38 138
v -50 -38 138
v -50 -38 136
v -46 -38 136
v -64 -64 0
v -64 64 0
v -32 64 0
v -32 -64 0
v -64 -64 240
v -64 64 240
v -32 64 105
v -32 48 15
v -32 -48 15
v -32 -48 90
v -32 -64 105
v -32 -64 240
v -32 64 240
v -32 48 120
v -32 -48 120
v -32 48 90
v -48 48 15
v -48 -48 15
v -48 -48 90
v -48 48 90
v -32 -48 225
v -64 -48 225
v -64 48 225
v -32 48 225
v -64 -48 120
v -64 48 120
v -32 -48 193
v -32 -48 185
v -32 48 185
v -32 48 193
v -64 -48 193
v -64 48 193
v -64 -48 185
v -64 48 185
v 40 -64 240
v -32 -64 127
v -63 -48 225
v -63 -48 120
v -63 48 120
v -63 48 225
v 40 64 240
v 40 64 0
v -32 -64 135
v -32 64 135

f 1 2 3
f 1 3 4
f 1 4 5
f 1 5 6
f 1 6 4
f 1 4 2
f 2 4 3
f 2 3 7
f 2 7 8
f 2 8 3
f 3 8 9
f 3 9 10
f 3 10 4
f 3 4 11
f 3 11 10
f 3 10 8
f 3 8 7
f 7 8 12
f 7 12 13
f 7 13 8
f 8 13 14
f 8 14 9
f 8 9 13
f 8 13 12
f 12 13 15
f 12 15 16
f 12 16 13
f 13 16 17
f 13 17 14
f 13 14 16
f 13 16 15
f 15 16 18
f 15 18 19
f 15 19 16
f 16 19 20
f 16 20 17
f 16 17 19
f 16 19 18
f 18 19 21
f 18 21 22
f 18 22 19
f 19 22 23
f 19 23 20
f 19 20 22
f 19 22 21
f 21 22 5
f 21 5 6
f 21 6 22
f 22 6 24
f 22 24 23
f 22 23 6
f 22 6 5
f 5 4 6
f 6 4 11
f 6 11 24
f 6 24 4
f 4 24 11
f 4 10 11
f 10 9 8
f 9 14 13
f 14 17 16
f 17 20 19
f 20 23 22
f 23 24 6
f 25 26 27
f 25 27 28
f 25 28 29
f 25 29 30
f 30 29 31
f 30 31 32
f 30 32 33
f 30 33 34
f 34 33 35
f 35 33 27
f 27 33 28
f 29 28 36
f 29 36 37
f 29 37 31
f 31 37 38
f 31 38 39
f 31 39 32
f 37 36 40
f 41 42 43
f 41 43 44
f 41 44 45
f 41 45 46
f 41 46 44
f 41 44 42
f 42 44 43
f 42 43 47
f 42 47 48
f 42 48 43
f 43 48 49
f 43 49 50
f 43 50 44
f 43 44 51
f 43 51 50
f 43 50 48
f 43 48 47
f 47 48 52
f 47 52 53
f 47 53 48
f 48 53 54
f 48 54 49
f 48 49 53
f 48 53 52
f 52 53 55
f 52 55 56
f 52 56 53
f 53 56 57
f 53 57 54
f 53 54 56
f 53 56 55
f 55 56 58
f 55 58 59
f 55 59 56
f 56 59 60
f 56 60 57
f 56 57 59
f 56 59 58
f 58 59 61
f 58 61 62
f 58 62 59
f 59 62 63
f 59 63 60
f 59 60 62
f 59 62 61
f 61 62 45
f 61 45 46
f 61 46 62
f 62 46 64
f 62 64 63
f 62 63 46
f 62 46 45
f 45 44 46
f 46 44 51
f 46 51 64
f 46 64 44
f 44 64 51
f 44 50 51
f 50 49 48
f 49 54 53
f 54 57 56
f 57 60 59
f 60 63 62
f 63 64 46
f 65 66 67
f 65 67 68
f 65 68 69
f 65 69 70
f 70 69 71
f 70 71 72
f 70 72 73
f 70 73 74
f 74 73 75
f 75 73 67
f 67 73 68
f 69 68 76
f 69 76 77
f 69 77 71
f 71 77 78
f 71 78 79
f 71 79 72
f 77 76 80
f 81 82 83
f 81 83 84
f 81 84 85
f 81 85 86
f 81 86 84
f 81 84 82
f 82 84 83
f 82 83 87
f 82 87 88
f 82 88 83
f 83 88 89
f 83 89 90
f 83 90 84
f 83 84 91
f 83 91 90
f 83 90 88
f 83 88 87
f 87 88 92
f 87 92 93
f 87 93 88
f 88 93 94
f 88 94 89
f 88 89 93
f 88 93 92
f 92 93 95
f 92 95 96
f 92 96 93
f 93 96 97
f 93 97 94
f 93 94 96
f 93 96 95
f 95 96 98
f 95 98 99
f 95 99 96
f 96 99 100
f 96 100 97
f 96 97 99
f 96 99 98
f 98 99 101
f 98 101 102
f 98 102 99
f 99 102 103
f 99 103 100
f 99 100 102
f 99 102 101
f 101 102 85
f 101 85 86
f 101 86 102
f 102 86 104
f 102 104 103
f 102 103 86
f 102 86 85
f 85 84 86
f 86 84 91
f 86 91 104
f 86 104 84
f 84 104 91
f 84 90 91
f 90 89 88
f 89 94 93
f 94 97 96
f 97 100 99
f 100 103 102
f 103 104 86
f 105 106 107
f 105 107 108
f 105 108 109
f 105 109 110
f 110 109 111
f 110 111 112
f 110 112 113
f 110 113 114
f 114 113 115
f 115 113 107
f 107 113 108
f 109 108 116
f 109 116 117
f 109 117 111
f 111 117 118
f 111 118 119
f 111 119 112
f 117 116 120
f 121 122 123
f 121 123 124
f 121 124 125
f 121 125 126
f 121 126 124
f 121 124 122
f 122 124 123
f 122 123 127
f 122 127 128
f 122 128 123
f 123 128 129
f 123 129 130
f 123 130 124
f 123 124 131
f 123 131 130
f 123 130 128
f 123 128 127
f 127 128 132
f 127 132 133
f 127 133 128
f 128 133 134
f 128 134 129
f 128 129 133
f 128 133 132
f 132 133 135
f 132 135 136
f 132 136 133
f 133 136 137
f 133 137 134
f 133 134 136
f 133 136 135
f 135 136 138
f 135 138 139
f 135 139 136
f 136 139 140
f 136 140 137
f 136 137 139
f 136 139 138
f 138 139 141
f 138 141 142
f 138 142 139
f 139 142 143
f 139 143 140
f 139 140 142
f 139 142 141
f 141 142 125
f 141 125 126
f 141 126 142
f 142 126 144
f 142 144 143
f 142 143 126
f 142 126 125
f 125 124 126
f 126 124 131
f 126 131 144
f 126 144 124
f 124 144 131
f 124 130 131
f 130 129 128
f 129 134 133
f 134 137 136
f 137 140 139
f 140 143 142
f 143 144 126
f 145 146 147
f 145 147 148
f 145 148 149
f 145 149 150
f 150 149 151
f 150 151 152
f 150 152 153
f 150 153 154
f 154 153 155
f 155 153 147
f 147 153 148
f 149 148 156
f 149 156 157
f 149 157 151
f 151 157 158
f 151 158 159
f 151 159 152
f 157 156 160
f 161 162 163
f 161 163 164
f 161 164 165
f 161 165 166
f 161 166 164
f 161 164 162
f 162 164 163
f 162 163 167
f 162 167 168
f 162 168 163
f 163 168 169
f 163 169 170
f 163 170 164
f 163 164 171
f 163 171 170
f 163 170 168
f 163 168 167
f 167 168 172
f 167 172 173
f 167 173 168
f 168 173 174
f 168 174 169
f 168 169 173
f 168 173 172
f 172 173 175
f 172 175 176
f 172 176 173
f 173 176 177
f 173 177 174
f 173 174 176
f 173 176 175
f 175 176 178
f 175 178 179
f 175 179 176
f 176 179 180
f 176 180 177
f 176 177 179
f 176 179 178
f 178 179 181
f 178 181 182
f 178 182 179
f 179 182 183
f 179 183 180
f 179 180 182
f 179 182 181
f 181 182 165
f 181 165 166
f 181 166 182
f 182 166 184
f 182 184 183
f 182 183 166
f 182 166 165
f 165 164 166
f 166 164 171
f 166 171 184
f 166 184 164
f 164 184 171
f 164 170 171
f 170 169 168
f 169 174 173
f 174 177 176
f 177 180 179
f 180 183 182
f 183 184 166
f 185 186 187
f 185 187 188
f 185 188 189
f 185 189 190
f 190 189 191
f 190 191 192
f 190 192 193
f 190 193 194
f 194 193 195
f 195 193 187
f 187 193 188
f 189 188 196
f 189 196 197
f 189 197 191
f 191 197 198
f 191 198 199
f 191 199 192
f 197 196 200
f 201 202 203
f 201 203 204
f 201 204 205
f 201 205 206
f 201 206 202
f 202 206 207
f 202 207 203
f 203 207 208
f 203 208 209
f 203 209 204
f 204 209 210
f 204 210 211
f 204 211 205
f 205 211 212
f 205 212 213
f 205 213 206
f 206 213 207
f 207 213 214
f 207 214 215
f 207 215 211
f 207 211 216
f 207 216 208
f 208 216 217
f 208 217 218
f 208 218 209
f 209 218 219
f 209 219 210
f 210 219 220
f 210 220 216
f 210 216 211
f 216 220 217
f 217 220 219
f 217 219 218
f 221 222 223
f 221 223 224
f 221 224 212
f 221 212 211
f 221 211 215
f 221 215 222
f 222 215 225
f 225 215 214
f 225 214 226
f 226 214 224
f 226 224 223
f 227 228 229
f 227 229 230
f 227 230 231
f 231 230 232
f 228 233 234
f 228 234 229
f 213 224 214
f 224 213 212
f 205 201 235
f 211 204 207
f 204 203 236
f 237 238 239
f 237 239 240
