# RS2 Model 11808
# Vertices: 23
# Faces: 20

v -18 -36 -16
v 0 -52 -10
v 0 -48 -2
v -8 -44 -2
v 18 -36 -16
v 8 -44 -2
v 0 -44 -14
v 8 -52 -53
v 0 -52 -46
v -1 -60 -54
v 0 -56 -67
v -9 -52 -54
v 0 -44 -16
v 0 -52 -18
v 16 -12 -34
v 40 -12 2
v 40 -4 -2
v -16 -12 -34
v -40 -12 2
v -40 -4 -2
v -21 -32 -36
v 24 -32 -34
v -24 -52 17

f 1 2 3
f 1 3 4
f 3 5 6
f 5 3 2
f 5 2 7
f 7 2 1
f 8 9 10
f 8 10 11
f 11 10 12
f 12 10 9
f 5 13 14
f 5 14 9
f 5 9 15
f 5 15 16
f 16 15 17
f 14 13 1
f 14 1 9
f 9 1 18
f 18 1 19
f 18 19 20
