# RS2 Model 11809
# Vertices: 88
# Faces: 160

v 25 -7 129
v 18 1 126
v 27 -8 123
v 36 1 129
v 32 1 138
v 26 -4 137
v 19 1 136
v 24 9 129
v 25 9 126
v 20 1 119
v 20 0 115
v 29 -10 118
v 39 1 120
v 26 7 137
v 34 1 142
v 25 -6 146
v 18 2 142
v 42 1 115
v 29 13 115
v 27 11 119
v 18 -1 111
v 30 -13 115
v 45 1 111
v 30 15 112
v 20 -1 109
v 31 -12 112
v 45 1 109
v 31 14 109
v 20 -2 103
v 33 -14 105
v 49 2 101
v 33 16 103
v 28 0 99
v 32 -4 100
v 36 1 98
v 32 5 99
v 22 -8 153
v 17 -9 153
v 19 2 160
v 27 2 157
v 22 10 154
v 19 10 155
v 24 9 146
v 31 1 149
v -25 -7 129
v -27 -8 123
v -18 1 126
v -19 1 136
v -26 -4 137
v -32 1 138
v -36 1 129
v -39 1 120
v -29 -10 118
v -20 0 115
v -20 1 119
v -25 9 126
v -24 9 129
v -26 7 137
v -18 2 142
v -25 -6 146
v -34 1 142
v -27 11 119
v -29 13 115
v -42 1 115
v -30 -13 115
v -18 -1 111
v -32 -4 100
v -28 0 99
v -20 -2 103
v -33 -14 105
v -49 2 101
v -36 1 98
v -32 5 99
v -33 16 103
v -31 14 109
v -20 -1 109
v -31 -12 112
v -45 1 109
v -45 1 111
v -30 15 112
v -22 -8 153
v -31 1 149
v -24 9 146
v -22 10 154
v -19 10 155
v -19 2 160
v -27 2 157
v -17 -9 153

f 1 2 3
f 1 3 4
f 1 4 5
f 1 5 6
f 1 6 7
f 1 7 2
f 2 7 8
f 2 8 9
f 2 9 10
f 2 10 3
f 3 10 11
f 3 11 12
f 3 12 13
f 3 13 4
f 4 13 9
f 4 9 8
f 4 8 14
f 4 14 5
f 5 14 15
f 5 15 6
f 6 15 16
f 6 16 17
f 6 17 7
f 7 17 14
f 7 14 8
f 13 12 18
f 13 18 19
f 13 19 20
f 13 20 9
f 9 20 10
f 10 20 11
f 11 20 19
f 11 19 21
f 11 21 12
f 12 21 22
f 12 22 18
f 18 22 23
f 18 23 24
f 18 24 19
f 19 24 21
f 21 24 25
f 21 25 22
f 22 25 26
f 22 26 23
f 23 26 27
f 23 27 28
f 23 28 24
f 24 28 25
f 25 28 29
f 25 29 26
f 26 29 30
f 26 30 27
f 27 30 31
f 27 31 32
f 27 32 28
f 28 32 29
f 29 32 33
f 29 33 34
f 29 34 30
f 30 34 31
f 31 34 35
f 31 35 36
f 31 36 32
f 32 36 33
f 17 16 37
f 17 37 38
f 38 37 39
f 39 37 40
f 39 40 41
f 39 41 42
f 42 41 17
f 17 41 43
f 17 43 14
f 14 43 15
f 15 43 44
f 15 44 16
f 16 44 37
f 37 44 40
f 40 44 43
f 40 43 41
f 45 46 47
f 45 47 48
f 45 48 49
f 45 49 50
f 45 50 51
f 45 51 46
f 46 51 52
f 46 52 53
f 46 53 54
f 46 54 55
f 46 55 47
f 47 55 56
f 47 56 57
f 47 57 48
f 48 57 58
f 48 58 59
f 48 59 49
f 49 59 60
f 49 60 61
f 49 61 50
f 50 61 58
f 50 58 51
f 51 58 57
f 51 57 56
f 51 56 52
f 52 56 62
f 52 62 63
f 52 63 64
f 52 64 53
f 53 64 65
f 53 65 66
f 53 66 54
f 54 66 63
f 54 63 62
f 54 62 55
f 55 62 56
f 67 68 69
f 67 69 70
f 67 70 71
f 67 71 72
f 72 71 73
f 73 71 74
f 73 74 68
f 68 74 69
f 69 74 75
f 69 75 76
f 69 76 77
f 69 77 70
f 70 77 78
f 70 78 71
f 71 78 74
f 74 78 75
f 75 78 79
f 75 79 80
f 75 80 76
f 76 80 66
f 76 66 65
f 76 65 77
f 77 65 79
f 77 79 78
f 59 81 60
f 60 81 82
f 60 82 61
f 61 82 83
f 61 83 58
f 58 83 59
f 59 83 84
f 59 84 85
f 85 84 86
f 86 84 87
f 86 87 81
f 86 81 88
f 88 81 59
f 81 87 82
f 82 87 83
f 83 87 84
f 65 64 79
f 79 64 80
f 80 64 63
f 80 63 66
