# RS2 Model 11830
# Vertices: 202
# Faces: 363

v -38 -7 271
v -45 0 274
v -45 -7 271
v -34 -3 269
v -38 -4 256
v -28 -7 267
v -17 -7 267
v 0 -7 271
v -38 0 274
v -38 0 267
v -45 0 267
v 39 -4 256
v 0 -3 240
v -15 -3 240
v -38 -4 240
v -28 -5 256
v -17 -5 256
v -6 -7 267
v 6 -7 267
v 39 -7 271
v 39 0 274
v 39 0 267
v 35 -3 269
v 29 -7 267
v 29 -5 256
v 39 -4 240
v 15 -3 240
v 3 -3 232
v -3 -3 232
v -11 -3 232
v -25 -3 232
v -38 -4 232
v -15 -5 240
v 0 -5 240
v -6 -5 256
v 6 -5 256
v 18 -7 267
v 18 -5 256
v 15 -5 240
v 39 -4 232
v 25 -3 232
v 11 -3 232
v 6 -3 230
v 3 -3 230
v -3 -3 230
v -6 -3 230
v -6 -3 220
v -11 -3 220
v -30 -3 220
v -38 -4 220
v -25 -5 232
v -11 -5 232
v -3 -5 232
v 3 -5 232
v 11 -5 232
v 51 0 274
v 47 -7 271
v 47 -7 208
v 51 0 208
v 43 0 267
v 11 -3 207
v 25 -3 207
v 15 -3 200
v 3 -3 200
v 3 -3 207
v 6 -3 209
v 6 -3 220
v 11 -3 220
v 30 -3 220
v 39 -4 220
v 39 -4 207
v 39 -4 200
v 26 -3 176
v 3 -3 176
v -3 -3 200
v -3 -3 207
v -3 -3 209
v 3 -3 209
v 3 -3 220
v 25 -5 232
v 30 -5 220
v 25 -5 207
v 15 -5 200
v 26 -5 176
v 39 -4 176
v 39 -4 151
v 26 -3 151
v 3 -3 151
v -3 -3 176
v -23 -3 176
v -15 -3 200
v -11 -3 207
v -6 -3 209
v -3 -3 220
v -3 -3 151
v -23 -3 151
v -38 -4 176
v -38 -4 200
v -38 -4 207
v -25 -3 207
v -9 -3 126
v 13 -3 126
v -5 -3 123
v -9 -3 110
v -23 -3 126
v 22 -3 126
v 39 -4 126
v 26 -3 110
v 18 -3 119
v 9 -3 96
v -3 -3 113
v 0 -3 123
v -9 -3 90
v -12 -3 97
v -11 -3 107
v -38 -4 151
v -23 -5 176
v -15 -5 200
v -25 -5 207
v -38 -4 126
v -25 -3 95
v -20 -3 108
v -19 -3 96
v -19 -3 77
v -12 -3 77
v -16 -3 66
v 0 -3 82
v 11 -5 207
v 3 -5 200
v 3 -5 176
v 3 -5 151
v 26 -5 151
v 22 -5 126
v 26 -5 110
v 38 -4 96
v 31 -3 96
v -3 -5 230
v 3 -5 230
v -6 -5 230
v -6 -5 220
v -3 -5 220
v 3 -5 220
v 6 -5 230
v 6 -5 220
v 11 -5 220
v 6 -5 209
v 3 -5 207
v -3 -5 200
v -3 -5 176
v -3 -5 151
v -9 -5 126
v 13 -5 126
v -3 -5 207
v 3 -5 209
v -3 -5 209
v -6 -5 209
v -11 -5 207
v -11 -5 220
v -23 -5 151
v -23 -5 126
v -9 -5 110
v -5 -5 123
v 0 -5 123
v -3 -5 113
v 18 -5 119
v 9 -5 96
v -11 -5 107
v -12 -5 97
v -9 -5 90
v 0 -5 82
v -30 -5 220
v -25 -5 95
v -20 -5 108
v -19 -5 96
v -19 -5 77
v -12 -5 77
v -16 -5 66
v -30 -3 78
v -38 -4 59
v -38 -4 78
v -38 -4 96
v -30 -5 78
v 23 -3 77
v 20 -3 53
v 14 -3 77
v 25 -3 96
v 14 -5 77
v 20 -5 53
v 23 -5 77
v 25 -5 96
v 35 -4 81
v 31 -5 96
v 47 -7 139
v 51 0 139
v 43 0 139
v 43 0 64
v 47 -7 64
v 51 0 64
v 43 0 208
v 51 0 0
v 43 0 0
v 47 -7 0

f 1 2 3
f 1 3 4
f 1 4 5
f 1 5 6
f 1 6 7
f 1 7 8
f 1 8 9
f 1 9 2
f 2 9 10
f 2 10 11
f 2 11 3
f 3 11 4
f 4 11 10
f 4 10 5
f 5 10 12
f 5 12 13
f 5 13 14
f 5 14 15
f 5 15 16
f 5 16 6
f 6 16 7
f 7 16 17
f 7 17 18
f 7 18 8
f 8 18 19
f 8 19 20
f 8 20 21
f 8 21 9
f 9 21 10
f 10 21 22
f 10 22 12
f 12 22 23
f 12 23 20
f 12 20 24
f 12 24 25
f 12 25 26
f 12 26 27
f 12 27 13
f 13 27 28
f 13 28 29
f 13 29 30
f 13 30 14
f 14 30 31
f 14 31 32
f 14 32 15
f 15 32 33
f 15 33 16
f 16 33 17
f 17 33 34
f 17 34 35
f 17 35 18
f 18 35 19
f 19 35 36
f 19 36 37
f 19 37 20
f 20 37 24
f 24 37 38
f 24 38 25
f 25 38 39
f 25 39 26
f 26 39 40
f 26 40 27
f 27 40 41
f 27 41 42
f 27 42 28
f 28 42 43
f 28 43 44
f 28 44 29
f 29 44 45
f 29 45 46
f 29 46 30
f 30 46 47
f 30 47 48
f 30 48 31
f 31 48 49
f 31 49 50
f 31 50 32
f 32 50 51
f 32 51 33
f 33 51 52
f 33 52 53
f 33 53 34
f 34 53 54
f 34 54 55
f 34 55 39
f 34 39 38
f 34 38 36
f 34 36 35
f 56 20 57
f 56 57 58
f 56 58 59
f 56 59 60
f 56 60 22
f 56 22 21
f 56 21 20
f 61 62 63
f 61 63 64
f 61 64 65
f 61 65 66
f 61 66 67
f 61 67 68
f 61 68 62
f 62 68 69
f 62 69 70
f 62 70 71
f 62 71 63
f 63 71 72
f 63 72 73
f 63 73 64
f 64 73 74
f 64 74 75
f 64 75 76
f 64 76 65
f 65 76 77
f 65 77 78
f 65 78 66
f 66 78 79
f 66 79 67
f 67 79 44
f 67 44 43
f 67 43 42
f 67 42 68
f 68 42 41
f 68 41 69
f 69 41 70
f 70 41 40
f 70 40 80
f 70 80 81
f 70 81 82
f 70 82 71
f 71 82 83
f 71 83 72
f 72 83 84
f 72 84 85
f 72 85 73
f 73 85 86
f 73 86 87
f 73 87 74
f 74 87 88
f 74 88 89
f 74 89 75
f 75 89 90
f 75 90 91
f 75 91 92
f 75 92 76
f 76 92 93
f 76 93 77
f 77 93 47
f 77 47 94
f 77 94 78
f 78 94 79
f 79 94 45
f 79 45 44
f 89 88 95
f 89 95 90
f 90 95 96
f 90 96 97
f 90 97 98
f 90 98 91
f 91 98 99
f 91 99 100
f 91 100 92
f 92 100 48
f 92 48 47
f 92 47 93
f 101 95 88
f 101 88 102
f 101 102 103
f 101 103 104
f 101 104 105
f 101 105 96
f 101 96 95
f 87 106 102
f 87 102 88
f 87 86 107
f 87 107 106
f 106 107 108
f 106 108 109
f 109 108 110
f 109 110 111
f 109 111 102
f 102 111 112
f 102 112 103
f 110 113 114
f 110 114 115
f 110 115 104
f 110 104 111
f 111 104 103
f 96 116 97
f 97 116 117
f 97 117 98
f 98 117 118
f 98 118 99
f 99 118 119
f 99 119 50
f 99 50 100
f 100 50 49
f 100 49 48
f 105 120 116
f 105 116 96
f 121 120 105
f 121 105 122
f 121 122 123
f 121 123 113
f 121 113 124
f 124 113 125
f 124 125 126
f 94 47 46
f 94 46 45
f 127 113 110
f 113 123 114
f 105 104 115
f 105 115 122
f 55 80 39
f 39 80 40
f 83 82 128
f 83 128 129
f 83 129 84
f 84 129 130
f 84 130 131
f 84 131 132
f 84 132 85
f 85 132 86
f 86 132 107
f 107 132 133
f 107 133 134
f 107 134 135
f 107 135 136
f 107 136 108
f 137 138 54
f 137 54 53
f 137 53 139
f 137 139 140
f 137 140 141
f 137 141 138
f 138 141 142
f 138 142 143
f 138 143 54
f 54 143 55
f 55 143 144
f 55 144 145
f 55 145 80
f 80 145 81
f 81 145 82
f 82 145 128
f 128 145 144
f 128 144 146
f 128 146 147
f 128 147 129
f 129 147 148
f 129 148 149
f 129 149 130
f 130 149 131
f 131 149 150
f 131 150 151
f 131 151 152
f 131 152 132
f 132 152 133
f 153 147 154
f 153 154 155
f 153 155 156
f 153 156 157
f 153 157 148
f 153 148 147
f 147 146 154
f 154 146 144
f 154 144 142
f 154 142 155
f 155 142 141
f 155 141 156
f 156 141 140
f 156 140 157
f 157 140 158
f 157 158 119
f 157 119 118
f 157 118 148
f 148 118 117
f 148 117 149
f 149 117 159
f 149 159 150
f 150 159 151
f 151 159 160
f 151 160 161
f 151 161 162
f 151 162 152
f 152 162 163
f 152 163 164
f 152 164 165
f 165 164 166
f 165 166 134
f 165 134 133
f 166 167 168
f 166 168 169
f 166 169 170
f 53 52 139
f 139 52 140
f 140 52 158
f 158 52 51
f 158 51 171
f 158 171 119
f 119 171 50
f 50 171 51
f 117 116 159
f 159 116 120
f 159 120 160
f 160 120 172
f 160 172 173
f 160 173 167
f 160 167 161
f 161 167 166
f 161 166 164
f 161 164 162
f 37 36 38
f 142 144 143
f 169 168 174
f 169 174 172
f 169 172 175
f 169 175 176
f 176 175 177
f 172 174 173
f 178 179 180
f 178 180 181
f 178 181 121
f 121 181 120
f 120 181 172
f 172 181 182
f 182 181 180
f 182 180 179
f 183 184 185
f 183 185 186
f 186 185 110
f 186 110 108
f 187 188 189
f 187 189 190
f 187 190 166
f 166 190 134
f 135 191 136
f 191 135 192
f 192 135 134
f 193 194 59
f 193 59 58
f 193 58 195
f 193 195 196
f 193 196 197
f 193 197 194
f 194 197 198
f 194 198 195
f 194 195 199
f 194 199 59
f 59 199 60
f 60 199 57
f 60 57 23
f 60 23 22
f 58 199 195
f 199 58 57
f 195 198 196
f 196 198 200
f 196 200 201
f 196 201 197
f 197 201 202
f 197 202 198
f 198 202 200
f 57 20 23
