# RS2 Model 11843
# Vertices: 198
# Faces: 177

v -47 -64 285
v -46 -64 258
v -47 -18 257
v -49 -64 286
v -49 -16 257
v -47 35 221
v -47 20 232
v -47 20 222
v -49 35 222
v -49 19 233
v -47 13 222
v -47 13 235
v -47 -39 253
v -47 -39 222
v -49 -40 221
v -49 -40 254
v -49 -12 254
v -47 -11 253
v -49 14 235
v -49 14 221
v -47 -45 222
v -47 -45 253
v -46 -64 253
v -46 -64 222
v -47 -64 198
v -47 -14 198
v -47 -14 217
v -47 -64 217
v -49 -13 218
v -49 -64 218
v -47 44 198
v -47 38 217
v -47 -8 217
v -47 -8 198
v -49 -9 198
v -49 -9 218
v -49 39 218
v -49 45 198
v -47 64 201
v -47 45 215
v -47 51 198
v -47 64 198
v -49 19 221
v -49 44 216
v -49 64 202
v -49 -13 198
v -49 -44 254
v -49 -64 254
v -49 50 198
v -49 -44 221
v -46 -14 130
v -46 -14 161
v -46 -64 161
v -46 -64 130
v -46 44 130
v -46 44 161
v -46 -8 161
v -46 -8 130
v -48 -9 162
v -48 -9 129
v -46 64 130
v -46 64 161
v -46 51 161
v -46 51 130
v -48 50 129
v -48 50 162
v -48 64 162
v -46 -45 102
v -46 -45 125
v -46 -64 125
v -46 -64 102
v -46 13 102
v -46 13 125
v -46 -39 125
v -46 -39 102
v -48 -40 126
v -48 -40 101
v -46 64 102
v -46 64 125
v -46 20 125
v -46 20 102
v -48 19 126
v -48 19 101
v -46 -64 99
v -46 -64 72
v -46 -14 72
v -46 -14 99
v -48 -64 100
v -48 -13 100
v -48 -13 71
v -46 44 72
v -46 44 99
v -46 -8 99
v -46 -8 72
v -48 -9 71
v -48 -9 100
v -48 45 100
v -48 45 71
v -46 64 72
v -46 64 99
v -46 51 99
v -46 51 72
v -48 50 100
v -48 50 71
v -46 20 36
v -46 64 36
v -46 64 67
v -46 20 67
v -48 19 68
v -48 19 35
v -46 13 36
v -46 13 67
v -46 -39 67
v -46 -39 36
v -48 -40 35
v -48 -40 68
v -48 14 68
v -48 14 35
v -46 -45 36
v -46 -45 67
v -46 -64 67
v -46 -64 36
v -46 -64 1
v -46 -14 1
v -46 -14 31
v -46 -64 31
v -48 -13 32
v -48 -64 32
v -46 44 1
v -46 44 31
v -46 -8 31
v -46 -8 1
v -48 -9 1
v -48 -9 32
v -48 45 32
v -48 45 1
v -46 64 31
v -46 51 31
v -46 51 1
v -46 64 1
v -48 64 68
v -48 50 32
v -48 64 32
v -48 -13 1
v -48 64 100
v -48 14 101
v -48 14 126
v -48 64 126
v -48 45 162
v -48 -13 129
v -48 -13 162
v -48 -64 162
v -48 -44 68
v -48 -64 68
v -48 -64 126
v -48 -44 126
v -48 -44 101
v -48 50 1
v -48 45 129
v -48 -44 35
v -46 -45 166
v -46 -45 193
v -46 -64 193
v -46 -64 166
v -46 13 166
v -46 13 193
v -46 -39 193
v -46 -39 166
v -48 -40 194
v -48 -40 165
v -46 64 166
v -46 64 193
v -46 20 193
v -46 20 166
v -48 19 194
v -48 19 165
v -48 14 165
v -48 14 194
v -48 64 194
v -48 -64 194
v -48 -44 194
v -48 -44 165
v -48 64 204
v -49 -64 292
v -49 -64 0
v -49 64 0
v -64 -64 292
v -64 64 204
v -48 64 211
v -49 -64 306
v -48 64 219
v -49 -64 314
v -48 64 226
v -48 -64 321
v -64 64 226
v -64 -64 321
v 65 -64 321
v 65 64 226

f 1 2 3
f 1 3 4
f 4 3 5
f 6 7 8
f 7 6 9
f 7 9 10
f 11 12 13
f 11 13 14
f 14 13 15
f 15 13 16
f 16 13 17
f 17 13 18
f 17 18 12
f 17 12 19
f 19 12 11
f 19 11 20
f 21 22 23
f 21 23 24
f 25 26 27
f 25 27 28
f 28 27 29
f 28 29 30
f 31 32 33
f 31 33 34
f 34 33 35
f 35 33 36
f 36 33 32
f 36 32 37
f 37 32 38
f 38 32 31
f 39 40 41
f 39 41 42
f 10 7 8
f 10 8 43
f 44 40 39
f 44 39 45
f 27 26 46
f 27 46 29
f 22 47 48
f 22 48 23
f 41 49 44
f 41 44 40
f 21 50 47
f 21 47 22
f 13 12 18
f 51 52 53
f 51 53 54
f 55 56 57
f 55 57 58
f 58 57 59
f 58 59 60
f 61 62 63
f 61 63 64
f 64 63 65
f 65 63 66
f 66 63 62
f 66 62 67
f 68 69 70
f 68 70 71
f 72 73 74
f 72 74 75
f 75 74 76
f 75 76 77
f 78 79 80
f 78 80 81
f 81 80 82
f 81 82 83
f 84 85 86
f 84 86 87
f 84 87 88
f 88 87 89
f 89 87 86
f 89 86 90
f 91 92 93
f 91 93 94
f 94 93 95
f 95 93 96
f 96 93 92
f 96 92 97
f 97 92 98
f 98 92 91
f 99 100 101
f 99 101 102
f 102 101 103
f 102 103 104
f 105 106 107
f 105 107 108
f 105 108 109
f 105 109 110
f 111 112 113
f 111 113 114
f 114 113 115
f 115 113 116
f 116 113 117
f 117 113 112
f 117 112 111
f 117 111 118
f 119 120 121
f 119 121 122
f 123 124 125
f 123 125 126
f 126 125 127
f 126 127 128
f 129 130 131
f 129 131 132
f 132 131 133
f 133 131 134
f 134 131 130
f 134 130 135
f 135 130 136
f 136 130 129
f 137 138 139
f 137 139 140
f 108 107 141
f 108 141 109
f 142 138 137
f 142 137 143
f 125 124 144
f 125 144 127
f 103 101 100
f 103 100 145
f 72 146 147
f 72 147 73
f 73 147 74
f 74 147 76
f 82 80 79
f 82 79 148
f 56 149 59
f 56 59 57
f 51 150 151
f 51 151 52
f 52 151 53
f 53 151 152
f 120 153 154
f 120 154 121
f 155 70 69
f 155 69 156
f 156 69 68
f 156 68 157
f 142 158 139
f 142 139 138
f 149 56 55
f 149 55 159
f 119 160 153
f 119 153 120
f 161 162 163
f 161 163 164
f 165 166 167
f 165 167 168
f 168 167 169
f 168 169 170
f 171 172 173
f 171 173 174
f 174 173 175
f 174 175 176
f 165 177 178
f 165 178 166
f 166 178 167
f 167 178 169
f 175 173 172
f 175 172 179
f 180 163 162
f 180 162 181
f 181 162 161
f 181 161 182
f 183 184 185
f 183 185 186
f 187 188 183
f 187 183 184
f 184 183 189
f 184 189 190
f 190 189 191
f 190 191 192
f 192 191 193
f 192 193 194
f 194 193 195
f 194 195 196
