# RS2 Model 11915
# Vertices: 218
# Faces: 392

v -23 -20 30
v -18 -16 20
v -42 -25 23
v -40 -29 26
v -18 -22 28
v -14 -30 41
v -32 -24 41
v -24 -7 11
v -17 -19 22
v -42 -26 19
v -48 -34 23
v -46 -31 24
v -47 -32 27
v -39 -30 22
v -10 -19 11
v -43 -34 30
v -48 -43 21
v -46 -43 14
v -50 -27 17
v -46 -25 26
v -47 -38 32
v -57 -38 37
v -62 -39 32
v -61 -36 28
v -61 -31 29
v -61 -28 33
v -58 -33 37
v -62 -34 34
v -58 41 151
v -58 47 104
v -4 30 146
v -13 30 170
v -49 35 240
v -39 64 240
v -59 64 150
v -58 64 104
v -48 53 64
v 1 36 99
v 2 15 112
v -13 15 128
v 18 -3 146
v 18 4 170
v -42 0 229
v -40 24 235
v 64 36 240
v 64 54 240
v 64 64 240
v -64 54 0
v -4 36 0
v -59 54 20
v -59 64 20
v -64 64 0
v 64 0 240
v 64 0 -160
v 64 36 -160
v 64 54 -160
v 64 64 -160
v -53 54 44
v -4 36 45
v -13 42 53
v -26 45 47
v -48 64 64
v -53 64 44
v 18 -5 43
v 20 0 99
v -15 17 35
v 3 3 33
v 18 -6 0
v 23 -41 0
v 23 -36 45
v 9 -11 85
v 8 -11 57
v 10 -29 58
v 28 -39 99
v -4 -1 134
v 9 -1 116
v 20 -31 170
v 23 -36 146
v 25 -64 146
v 6 -64 170
v -54 -39 223
v -32 -26 209
v 2 -26 185
v 39 -64 99
v 18 -64 50
v -64 -64 0
v -64 -32 0
v -64 0 0
v -64 28 0
v -20 -47 240
v 64 -47 240
v 64 -47 -160
v -43 -48 79
v -39 -48 59
v -37 -64 59
v -44 -64 80
v -22 -47 76
v -14 -30 60
v -32 -24 61
v -25 -46 60
v -19 -64 75
v -12 -64 94
v 16 -64 86
v 5 -47 88
v -14 -48 97
v -8 -64 67
v -7 -48 66
v -23 -27 86
v -11 -27 73
v -16 -8 98
v -4 -8 85
v 17 -64 134
v 3 -64 147
v 6 -49 146
v 19 -50 133
v 17 -64 151
v 18 -48 151
v 15 -35 144
v 12 -44 140
v 24 -45 129
v 28 -37 132
v 14 -33 113
v 5 -30 128
v 7 -40 130
v 15 -42 116
v -16 -38 113
v -14 -29 115
v -22 -30 130
v -24 -39 127
v -57 -26 111
v -42 -24 104
v -42 -15 108
v -57 -17 115
v -42 -12 74
v -41 -22 74
v -33 -21 89
v -34 -11 89
v -21 -9 74
v -24 -9 58
v -23 -19 58
v -20 -19 74
v -8 -24 73
v -9 -14 73
v -10 -14 57
v -9 -24 57
v 13 -29 85
v -27 -10 212
v -24 -6 182
v -28 -16 179
v -4 -24 177
v -4 -14 177
v -16 -11 152
v -16 -21 152
v -17 6 126
v -17 -4 118
v -64 -64 219
v -20 -64 240
v 64 -64 240
v 64 -64 -160
v -15 17 10
v 3 3 10
v -24 -7 32
v -9 -14 30
v -7 -18 104
v 3 -20 89
v -14 -29 91
v -4 -29 77
v -24 45 67
v -11 33 84
v -29 33 57
v -26 37 70
v -19 28 58
v -15 32 77
v -25 15 78
v -20 21 96
v -23 2 103
v -18 10 112
v -38 19 77
v -34 25 89
v -33 5 103
v -62 22 90
v -39 7 51
v -28 12 108
v -30 5 130
v -30 -6 157
v 1 -10 185
v -34 -16 154
v -34 -5 127
v -33 -3 146
v -34 -1 139
v -34 -6 138
v -33 -8 144
v -56 -11 154
v -23 36 118
v -57 21 33
v -64 -14 67
v -30 -62 120
v -24 -56 116
v -36 -56 168
v -61 -52 53
v -64 -21 136
v -45 -8 138
v -46 -5 138
v -46 -8 143
v -45 -9 141
v -44 -18 144
v -39 -14 137
v -40 -6 133
v -47 0 136
v -53 -3 144
v -51 -12 148
v -60 -16 134
v -54 -18 134
v -52 -18 129
v -52 -12 127
v -56 -9 129
v -60 -10 132
v -58 -15 128

f 1 2 3
f 1 3 4
f 1 4 5
f 1 5 6
f 1 6 7
f 1 7 2
f 2 7 8
f 2 8 9
f 2 9 10
f 2 10 3
f 3 10 11
f 3 11 12
f 3 12 4
f 4 12 13
f 4 13 14
f 4 14 5
f 5 14 9
f 5 9 15
f 5 15 6
f 6 15 7
f 7 15 8
f 8 15 9
f 9 14 10
f 10 14 11
f 11 14 13
f 11 13 16
f 11 16 17
f 11 17 18
f 11 18 19
f 11 19 12
f 12 19 20
f 12 20 16
f 12 16 13
f 17 16 21
f 17 21 22
f 17 22 23
f 17 23 18
f 18 23 24
f 18 24 19
f 19 24 25
f 19 25 20
f 20 25 26
f 20 26 16
f 16 26 27
f 16 27 21
f 21 27 22
f 22 27 28
f 22 28 23
f 23 28 24
f 24 28 25
f 25 28 26
f 26 28 27
f 29 30 31
f 29 31 32
f 29 32 33
f 29 33 34
f 29 34 35
f 29 35 30
f 30 35 36
f 30 36 37
f 30 37 38
f 30 38 31
f 31 38 39
f 31 39 40
f 31 40 41
f 31 41 42
f 31 42 32
f 32 42 43
f 32 43 44
f 32 44 33
f 33 44 45
f 33 45 46
f 33 46 47
f 33 47 34
f 48 49 50
f 48 50 51
f 48 51 52
f 45 53 54
f 45 54 55
f 45 55 56
f 45 56 46
f 46 56 57
f 46 57 47
f 58 49 59
f 58 59 60
f 58 60 61
f 58 61 37
f 58 37 62
f 58 62 63
f 58 63 50
f 58 50 49
f 64 65 38
f 64 38 59
f 64 59 66
f 64 66 67
f 64 67 68
f 64 68 69
f 64 69 70
f 64 70 65
f 64 65 71
f 64 71 72
f 64 72 70
f 70 72 73
f 70 73 74
f 70 74 65
f 65 74 41
f 65 41 75
f 65 75 76
f 65 76 38
f 38 76 39
f 77 78 79
f 77 79 80
f 77 80 81
f 77 81 82
f 77 82 83
f 77 83 42
f 77 42 41
f 77 41 78
f 78 41 74
f 78 74 84
f 78 84 79
f 85 69 86
f 86 69 87
f 87 69 68
f 87 68 88
f 88 68 89
f 89 68 49
f 89 49 48
f 53 43 90
f 53 90 91
f 53 91 92
f 53 92 54
f 70 69 85
f 70 85 74
f 74 85 84
f 93 94 95
f 93 95 96
f 93 96 97
f 93 97 98
f 93 98 99
f 93 99 94
f 94 99 7
f 94 7 100
f 94 100 95
f 97 96 101
f 102 103 104
f 102 104 105
f 102 105 106
f 106 105 107
f 107 105 108
f 107 108 109
f 109 108 110
f 109 110 111
f 111 110 40
f 111 40 39
f 112 113 114
f 112 114 115
f 112 115 116
f 116 115 117
f 116 117 113
f 113 117 114
f 114 117 118
f 114 118 119
f 114 119 115
f 115 119 120
f 115 120 121
f 115 121 117
f 117 121 118
f 118 121 122
f 118 122 123
f 118 123 119
f 119 123 124
f 119 124 120
f 120 124 125
f 120 125 121
f 121 125 122
f 122 125 126
f 122 126 127
f 122 127 123
f 123 127 128
f 123 128 124
f 124 128 129
f 124 129 125
f 125 129 126
f 126 129 130
f 126 130 131
f 126 131 127
f 127 131 132
f 127 132 128
f 128 132 133
f 128 133 129
f 129 133 130
f 130 133 134
f 130 134 135
f 130 135 131
f 131 135 136
f 131 136 132
f 132 136 137
f 132 137 133
f 133 137 134
f 134 137 138
f 134 138 139
f 134 139 135
f 135 139 140
f 135 140 136
f 136 140 141
f 136 141 137
f 137 141 138
f 138 141 142
f 138 142 143
f 138 143 139
f 139 143 144
f 139 144 140
f 140 144 145
f 140 145 141
f 141 145 142
f 142 145 73
f 142 73 146
f 142 146 143
f 143 146 71
f 143 71 144
f 144 71 72
f 144 72 145
f 145 72 73
f 81 90 43
f 81 43 147
f 81 147 82
f 82 147 148
f 82 148 149
f 82 149 83
f 83 149 150
f 150 149 151
f 150 151 152
f 150 152 153
f 153 152 154
f 153 154 155
f 156 90 81
f 156 81 80
f 157 90 156
f 90 157 91
f 91 157 158
f 91 158 92
f 92 158 159
f 43 53 45
f 43 45 44
f 160 66 59
f 160 59 49
f 160 49 161
f 161 49 68
f 161 68 67
f 162 163 67
f 162 67 66
f 162 66 8
f 162 8 7
f 162 7 99
f 162 99 163
f 163 99 98
f 8 66 160
f 100 7 6
f 40 75 41
f 75 40 110
f 75 110 164
f 75 164 76
f 76 164 165
f 165 164 166
f 165 166 167
f 76 39 111
f 76 111 165
f 165 111 109
f 165 109 167
f 167 109 107
f 167 107 166
f 166 107 104
f 108 166 164
f 108 164 110
f 105 104 166
f 105 166 108
f 74 73 146
f 74 146 65
f 65 146 71
f 61 168 37
f 37 168 38
f 38 168 169
f 38 169 59
f 59 169 60
f 170 171 168
f 170 168 61
f 169 60 172
f 169 172 173
f 173 172 174
f 173 174 175
f 175 174 176
f 175 176 177
f 171 173 169
f 171 169 168
f 178 179 171
f 178 171 170
f 178 170 174
f 178 174 176
f 178 176 180
f 178 180 179
f 178 179 181
f 174 170 172
f 172 170 182
f 179 175 173
f 179 173 171
f 180 183 179
f 179 183 175
f 175 183 177
f 177 183 154
f 154 183 184
f 154 184 185
f 154 185 152
f 152 185 148
f 152 148 151
f 151 148 147
f 151 147 186
f 186 147 43
f 186 43 42
f 186 42 83
f 149 148 151
f 83 186 151
f 83 151 150
f 185 187 149
f 185 149 148
f 187 153 150
f 187 150 149
f 184 188 187
f 184 187 185
f 184 185 189
f 184 189 190
f 184 190 188
f 188 190 191
f 188 191 187
f 187 191 192
f 187 192 185
f 187 185 193
f 188 155 153
f 188 153 187
f 183 180 188
f 183 188 184
f 188 180 176
f 188 176 155
f 37 36 62
f 50 63 51
f 177 194 183
f 66 195 162
f 134 196 135
f 126 197 129
f 102 198 105
f 149 199 150
f 94 200 95
f 130 201 133
f 190 191 192
f 190 192 189
f 185 192 189
f 190 191 202
f 190 202 203
f 190 203 189
f 189 203 204
f 189 204 192
f 192 204 205
f 192 205 191
f 191 205 202
f 202 205 206
f 202 206 207
f 202 207 208
f 202 208 203
f 203 208 209
f 203 209 210
f 203 210 204
f 204 210 211
f 204 211 205
f 205 211 206
f 206 211 212
f 206 212 213
f 206 213 207
f 207 213 214
f 207 214 208
f 208 214 215
f 208 215 209
f 209 215 216
f 209 216 210
f 210 216 217
f 210 217 211
f 211 217 212
f 212 217 218
f 212 218 213
f 213 218 214
f 214 218 215
f 215 218 216
f 216 218 217
