# RS2 Model 11972
# Vertices: 370
# Faces: 476

v 6 25 57
v 13 25 65
v 16 25 61
v 16 25 57
v -3 25 65
v 1 25 69
v 6 25 68
v -5 25 59
v -2 26 50
v -6 26 54
v 13 25 50
v 9 25 47
v 5 25 47
v -9 27 36
v -3 27 38
v -3 27 36
v -3 27 34
v -13 27 42
v -9 27 44
v -7 27 42
v -15 27 40
v -16 27 34
v -17 27 36
v -7 27 30
v -10 27 29
v -12 27 30
v -32 55 0
v -32 55 27
v -30 50 27
v -30 50 0
v -24 37 27
v -25 37 0
v -31 60 0
v -31 60 27
v -37 58 0
v -37 58 27
v -35 64 27
v -35 64 0
v -26 64 27
v -26 64 0
v -23 61 27
v -23 61 0
v -35 50 27
v -35 50 0
v -29 37 27
v -30 37 0
v -35 50 14
v -30 37 20
v -22 37 20
v -22 37 0
v -22 26 20
v -22 26 0
v -14 26 20
v -14 26 0
v -6 26 20
v -6 26 0
v 2 26 20
v 2 26 0
v 10 26 20
v 10 26 0
v 18 26 20
v 18 26 0
v 18 37 20
v 18 37 0
v 27 37 0
v 27 37 20
v 36 37 20
v 36 37 0
v 38 54 0
v 38 54 14
v 63 61 0
v 48 48 14
v 54 38 14
v 54 38 0
v 49 17 19
v 49 17 0
v 32 0 128
v 38 0 0
v 48 -17 20
v 48 -17 0
v 51 -36 14
v 51 -36 0
v 65 -67 0
v 45 -46 14
v 35 -52 14
v 35 -52 0
v 17 -48 20
v 17 -48 0
v 0 -32 128
v 0 -38 0
v -27 -42 20
v -27 -42 0
v -41 -53 6
v -41 -53 0
v -61 -63 0
v -46 -50 6
v -48 -40 6
v -48 -40 0
v -42 -23 17
v -42 -23 0
v -32 0 128
v -38 0 0
v -42 16 22
v -42 16 0
v -49 38 14
v -49 38 0
v -63 61 0
v -45 47 14
v 26 30 107
v 14 44 107
v 9 41 134
v 17 29 134
v -2 29 148
v -2 45 134
v -13 41 134
v -19 29 134
v -18 44 107
v -27 30 107
v -2 50 107
v 30 50 0
v 30 50 27
v 32 55 27
v 32 55 0
v 31 60 27
v 31 60 0
v 23 61 27
v 23 61 0
v 26 64 27
v 26 64 0
v 35 64 27
v 35 64 0
v 37 58 27
v 37 58 0
v 35 50 27
v 35 50 0
v 30 37 0
v 29 37 27
v 24 37 27
v 25 37 0
v -44 50 14
v -45 50 13
v -44 54 11
v -42 50 15
v -41 55 12
v -40 58 13
v -45 57 11
v -47 51 13
v -49 52 12
v -50 54 11
v -45 64 14
v -44 63 15
v -42 60 12
v -47 63 13
v -45 59 11
v -42 63 16
v -40 62 16
v -39 60 17
v -53 57 11
v -52 58 11
v -45 58 11
v -51 55 11
v -51 59 11
v -51 62 12
v -49 62 13
v -37 58 18
v -38 56 17
v -40 57 13
v -38 59 17
v -38 55 17
v -39 53 16
v -41 52 16
v -42 58 0
v -44 58 0
v -43 58 12
v -42 58 12
v -42 57 0
v -42 57 12
v -44 57 0
v -43 57 12
v -20 39 17
v -18 37 16
v -15 38 15
v -15 39 15
v -15 40 15
v -16 43 15
v -19 42 16
v -20 40 17
v -22 38 21
v -23 39 22
v -22 41 21
v -13 45 15
v -23 44 15
v -17 39 10
v -19 55 12
v -23 35 15
v -11 35 15
v -15 26 12
v -16 47 18
v -15 47 17
v -18 47 19
v -15 33 18
v -16 34 19
v -13 34 17
v -7 40 15
v -8 39 15
v -9 42 15
v -9 35 16
v -11 35 17
v -9 38 15
v -21 44 20
v -19 45 20
v -22 42 21
v -11 45 16
v -9 44 15
v -13 46 17
v -20 35 20
v -21 37 21
v -18 34 20
v -18 39 4
v -16 39 4
v -17 39 16
v -18 39 16
v -18 40 4
v -18 40 16
v -16 40 4
v -17 40 16
v -20 30 112
v -16 0 240
v -7 18 240
v 10 27 240
v 2 30 112
v 10 30 112
v 28 18 240
v 18 30 112
v 18 19 112
v 10 19 112
v 2 19 112
v -6 19 112
v -14 19 112
v -20 19 112
v -20 -20 128
v -7 -17 240
v 10 -26 240
v 20 -20 128
v 28 -17 240
v 37 0 240
v -34 -37 17
v 37 -37 18
v -5 22 92
v -2 22 95
v 2 22 93
v 1 23 89
v -3 23 88
v -1 22 90
v -1 20 105
v 6 20 105
v 10 21 99
v -16 21 91
v -16 21 98
v -10 21 102
v -13 22 83
v -2 23 77
v -9 23 77
v 13 22 90
v 13 22 84
v 7 22 80
v 55 50 14
v 54 50 13
v 55 54 11
v 57 50 15
v 58 55 12
v 59 58 13
v 54 57 11
v 52 51 13
v 50 52 12
v 49 54 11
v 54 64 14
v 55 63 15
v 57 60 12
v 52 63 13
v 54 59 11
v 57 63 16
v 59 62 16
v 60 60 17
v 46 57 11
v 47 58 11
v 54 58 11
v 48 55 11
v 48 59 11
v 48 62 12
v 50 62 13
v 62 58 18
v 61 56 17
v 59 57 13
v 61 59 17
v 61 55 17
v 60 53 16
v 58 52 16
v 57 58 0
v 55 58 0
v 56 58 12
v 57 58 12
v 57 57 0
v 57 57 12
v 55 57 0
v 56 57 12
v 10 46 13
v 10 43 12
v 12 41 11
v 13 42 11
v 14 42 11
v 16 45 11
v 13 47 12
v 11 46 13
v 8 47 17
v 9 48 18
v 11 49 17
v 19 43 11
v 13 51 11
v 12 43 6
v 24 54 8
v 5 46 11
v 12 36 11
v 2 34 8
v 19 47 14
v 20 46 13
v 18 49 15
v 8 38 14
v 8 40 15
v 10 37 13
v 18 36 11
v 17 36 11
v 19 38 11
v 13 34 12
v 12 36 13
v 16 36 11
v 14 49 16
v 16 48 16
v 12 49 17
v 20 42 12
v 21 40 11
v 20 44 13
v 7 44 16
v 8 46 17
v 7 41 16
v 11 44 0
v 13 43 0
v 12 43 12
v 11 44 12
v 12 45 0
v 12 45 12
v 13 44 12
v 4 26 60
v 6 26 60
v 8 26 57
v 6 27 56
v 3 27 57
v -9 28 38
v -8 28 36
v -9 28 36
v -10 28 36
v -29 66 27
v -41 63 27
v -20 38 27
v -3 54 27
v -3 66 27
v 3 54 27
v 22 38 27
v 31 35 27
v 31 66 27

f 1 2 3
f 1 3 4
f 1 5 6
f 1 6 7
f 8 1 9
f 8 9 10
f 11 12 13
f 11 13 1
f 14 15 16
f 14 16 17
f 14 18 19
f 14 19 20
f 21 14 22
f 21 22 23
f 24 25 26
f 24 26 14
f 27 28 29
f 27 29 30
f 30 29 31
f 30 31 32
f 33 34 28
f 33 28 27
f 35 36 37
f 35 37 38
f 38 37 39
f 38 39 40
f 40 39 41
f 40 41 42
f 42 41 34
f 42 34 33
f 43 29 28
f 43 28 36
f 43 36 44
f 43 44 45
f 43 45 29
f 29 45 31
f 36 28 34
f 36 34 37
f 37 34 41
f 37 41 39
f 44 36 35
f 44 46 45
f 46 44 47
f 46 47 48
f 46 48 49
f 46 49 50
f 50 49 51
f 50 51 52
f 52 51 53
f 52 53 54
f 54 53 55
f 54 55 56
f 56 55 57
f 56 57 58
f 58 57 59
f 58 59 60
f 60 59 61
f 60 61 62
f 62 61 63
f 62 63 64
f 64 63 65
f 65 63 66
f 65 66 67
f 65 67 68
f 68 67 69
f 69 67 70
f 69 70 71
f 71 70 72
f 71 72 73
f 71 73 74
f 74 73 75
f 74 75 76
f 76 75 77
f 76 77 78
f 78 77 79
f 78 79 80
f 80 79 81
f 80 81 82
f 82 81 83
f 83 81 84
f 83 84 85
f 83 85 86
f 86 85 87
f 86 87 88
f 88 87 89
f 88 89 90
f 90 89 91
f 90 91 92
f 92 91 93
f 92 93 94
f 94 93 95
f 95 93 96
f 95 96 97
f 95 97 98
f 98 97 99
f 98 99 100
f 100 99 101
f 100 101 102
f 102 101 103
f 102 103 104
f 104 103 105
f 104 105 106
f 106 105 107
f 107 105 108
f 107 108 47
f 107 47 44
f 109 110 111
f 109 111 112
f 112 111 113
f 113 111 114
f 113 114 115
f 113 115 116
f 116 115 117
f 116 117 118
f 114 111 110
f 114 110 119
f 114 119 115
f 115 119 117
f 120 121 122
f 120 122 123
f 123 122 124
f 123 124 125
f 125 124 126
f 125 126 127
f 127 126 128
f 127 128 129
f 129 128 130
f 129 130 131
f 131 130 132
f 131 132 133
f 133 132 134
f 133 134 135
f 135 134 136
f 136 134 137
f 137 134 138
f 138 134 121
f 138 121 139
f 139 121 120
f 132 122 121
f 132 121 134
f 130 124 122
f 130 122 132
f 128 126 124
f 128 124 130
f 140 141 142
f 140 142 143
f 140 143 142
f 140 142 141
f 144 143 142
f 144 142 143
f 142 144 145
f 142 145 146
f 142 146 147
f 142 147 146
f 146 147 148
f 146 148 149
f 146 149 148
f 146 148 147
f 150 151 152
f 150 152 153
f 150 153 152
f 150 152 151
f 154 153 152
f 154 152 153
f 152 154 145
f 152 145 155
f 152 155 145
f 145 155 156
f 145 156 157
f 145 157 156
f 145 156 155
f 158 159 160
f 158 160 161
f 158 161 160
f 158 160 159
f 146 161 160
f 146 160 161
f 160 146 145
f 160 145 154
f 160 154 162
f 160 162 154
f 154 162 163
f 154 163 164
f 154 164 163
f 154 163 162
f 165 166 167
f 165 167 168
f 165 168 167
f 165 167 166
f 145 168 167
f 145 167 168
f 167 145 144
f 167 144 169
f 167 169 144
f 144 169 170
f 144 170 171
f 144 171 170
f 144 170 169
f 172 173 174
f 172 174 175
f 172 175 176
f 176 175 177
f 176 177 178
f 178 177 179
f 178 179 173
f 173 179 174
f 180 181 182
f 180 182 183
f 180 183 184
f 180 184 185
f 180 185 186
f 180 186 187
f 180 187 188
f 180 188 187
f 187 188 189
f 187 189 190
f 187 190 189
f 187 189 188
f 191 192 193
f 192 191 194
f 193 195 196
f 196 195 197
f 198 199 185
f 198 185 200
f 198 200 185
f 198 185 199
f 186 200 185
f 186 185 200
f 201 202 181
f 201 181 203
f 201 203 181
f 201 181 202
f 182 203 181
f 182 181 203
f 204 205 183
f 204 183 206
f 204 206 183
f 204 183 205
f 184 206 183
f 184 183 206
f 207 208 182
f 207 182 209
f 207 209 182
f 207 182 208
f 183 209 182
f 183 182 209
f 210 211 186
f 210 186 212
f 210 212 186
f 210 186 211
f 187 212 186
f 187 186 212
f 213 214 184
f 213 184 215
f 213 215 184
f 213 184 214
f 185 215 184
f 185 184 215
f 216 217 180
f 216 180 218
f 216 218 180
f 216 180 217
f 181 218 180
f 181 180 218
f 219 220 221
f 219 221 222
f 219 222 223
f 223 222 224
f 223 224 225
f 225 224 226
f 225 226 220
f 220 226 221
f 227 101 228
f 227 228 229
f 227 229 230
f 227 230 231
f 231 230 232
f 232 230 233
f 232 233 234
f 234 233 77
f 234 77 75
f 234 75 67
f 234 67 66
f 234 66 63
f 234 63 61
f 234 61 235
f 235 61 59
f 235 59 236
f 236 59 57
f 236 57 237
f 237 57 55
f 237 55 238
f 238 55 53
f 238 53 239
f 239 53 51
f 239 51 240
f 240 51 49
f 240 49 227
f 227 49 48
f 227 48 101
f 101 48 103
f 103 48 108
f 103 108 105
f 101 241 242
f 101 242 228
f 241 89 243
f 241 243 242
f 89 244 245
f 89 245 243
f 244 77 246
f 244 246 245
f 77 233 246
f 99 247 241
f 99 241 101
f 247 91 89
f 247 89 241
f 97 96 247
f 97 247 99
f 96 93 91
f 96 91 247
f 87 248 244
f 87 244 89
f 248 79 77
f 248 77 244
f 85 84 248
f 85 248 87
f 84 81 79
f 84 79 248
f 73 72 67
f 73 67 75
f 72 70 67
f 48 47 108
f 249 250 251
f 249 251 252
f 249 252 253
f 254 255 256
f 254 256 257
f 254 258 259
f 254 259 260
f 261 254 262
f 261 262 263
f 264 265 266
f 264 266 254
f 267 268 269
f 267 269 270
f 267 270 269
f 267 269 268
f 271 270 269
f 271 269 270
f 269 271 272
f 269 272 273
f 269 273 274
f 269 274 273
f 273 274 275
f 273 275 276
f 273 276 275
f 273 275 274
f 277 278 279
f 277 279 280
f 277 280 279
f 277 279 278
f 281 280 279
f 281 279 280
f 279 281 272
f 279 272 282
f 279 282 272
f 272 282 283
f 272 283 284
f 272 284 283
f 272 283 282
f 285 286 287
f 285 287 288
f 285 288 287
f 285 287 286
f 273 288 287
f 273 287 288
f 287 273 272
f 287 272 281
f 287 281 289
f 287 289 281
f 281 289 290
f 281 290 291
f 281 291 290
f 281 290 289
f 292 293 294
f 292 294 295
f 292 295 294
f 292 294 293
f 272 295 294
f 272 294 295
f 294 272 271
f 294 271 296
f 294 296 271
f 271 296 297
f 271 297 298
f 271 298 297
f 271 297 296
f 299 300 301
f 299 301 302
f 299 302 303
f 303 302 304
f 303 304 305
f 305 304 306
f 305 306 300
f 300 306 301
f 307 308 309
f 307 309 310
f 307 310 311
f 307 311 312
f 307 312 313
f 307 313 314
f 307 314 315
f 307 315 314
f 314 315 316
f 314 316 317
f 314 317 316
f 314 316 315
f 318 319 320
f 319 318 321
f 320 322 323
f 323 322 324
f 325 326 312
f 325 312 327
f 325 327 312
f 325 312 326
f 313 327 312
f 313 312 327
f 328 329 308
f 328 308 330
f 328 330 308
f 328 308 329
f 309 330 308
f 309 308 330
f 331 332 310
f 331 310 333
f 331 333 310
f 331 310 332
f 311 333 310
f 311 310 333
f 334 335 309
f 334 309 336
f 334 336 309
f 334 309 335
f 310 336 309
f 310 309 336
f 337 338 313
f 337 313 339
f 337 339 313
f 337 313 338
f 314 339 313
f 314 313 339
f 340 341 311
f 340 311 342
f 340 342 311
f 340 311 341
f 312 342 311
f 312 311 342
f 343 344 307
f 343 307 345
f 343 345 307
f 343 307 344
f 308 345 307
f 308 307 345
f 346 347 348
f 346 348 349
f 346 349 350
f 350 349 351
f 350 351 347
f 347 351 352
f 347 352 348
f 353 354 355
f 353 355 356
f 353 356 357
f 358 359 360
f 358 360 361
f 362 363 364
