# RS2 Model 12002
# Vertices: 251
# Faces: 430

v 122 -87 45
v 116 -7 52
v 167 -87 94
v 53 -30 47
v 55 -26 108
v -13 -30 50
v 47 -92 65
v 43 -92 98
v 33 -92 65
v 180 -4 49
v 180 -100 51
v -113 -4 50
v -57 12 61
v -41 25 60
v -40 11 52
v -39 -4 60
v -30 7 74
v -33 16 74
v -20 15 74
v 43 16 76
v 110 22 61
v 110 11 56
v 110 1 61
v 43 8 70
v -20 7 74
v -20 4 77
v -28 4 77
v -28 10 82
v -20 10 82
v 97 9 74
v 97 16 74
v 108 17 74
v 134 10 57
v 109 8 74
v 105 14 85
v 105 6 89
v 105 6 81
v 97 6 81
v 97 14 85
v 97 6 89
v 97 -20 89
v 105 -20 89
v 105 -20 81
v 144 -23 77
v 109 -22 61
v 51 -20 71
v 97 -20 81
v -134 -28 101
v -138 -28 87
v -150 -53 94
v -148 -53 117
v -120 -32 108
v -96 -23 105
v -111 -23 101
v -114 -23 89
v -134 -28 77
v -144 -53 79
v -134 -78 77
v -138 -78 87
v -134 -78 101
v -142 -53 112
v -113 -28 79
v -88 -28 104
v 50 -21 87
v -20 -22 85
v -28 -22 85
v -110 -23 81
v -108 -28 56
v -124 -53 60
v -108 -78 56
v -89 -83 64
v -110 -83 81
v -114 -83 89
v -111 -83 101
v -120 -74 108
v -135 -53 90
v -96 -32 64
v -28 -28 77
v -28 -28 85
v -20 -28 85
v 47 -28 89
v 150 -23 96
v -20 -22 77
v -20 4 85
v -28 4 85
v -28 -22 77
v -89 -23 64
v -29 -28 50
v -77 -53 43
v -29 -78 50
v -18 -83 60
v -20 -84 77
v -28 -84 77
v -28 -84 85
v -96 -83 105
v -88 -78 104
v -113 -78 79
v -101 -53 56
v 117 -38 51
v 9 -29 77
v -20 -28 77
v 127 -28 50
v 137 -53 43
v 127 -78 50
v 109 -82 61
v 51 -84 71
v -20 -84 85
v -20 -92 85
v -20 -92 77
v -28 -92 77
v -28 -92 85
v 157 -28 56
v 170 -53 49
v 157 -78 56
v 131 -83 65
v 144 -83 77
v 105 -84 81
v 97 -84 81
v 50 -89 87
v 177 -28 72
v 192 -53 60
v 177 -78 72
v 184 -28 93
v 199 -53 90
v 184 -78 93
v 150 -83 96
v 105 -84 89
v 105 -92 89
v 105 -92 81
v 97 -92 81
v 97 -92 89
v 97 -84 89
v 167 -77 95
v 47 -82 89
v 167 -31 95
v 180 -40 93
v 170 -54 93
v 180 -68 93
v 127 -32 72
v 133 -41 69
v 123 -53 69
v 133 -65 69
v 127 -74 72
v 117 -68 51
v 105 -75 89
v 97 -75 89
v -20 -78 85
v 122 -43 48
v 115 -53 48
v 122 -63 48
v -96 -70 64
v 9 -75 77
v 105 -75 81
v 105 -29 81
v 105 -29 89
v 97 -29 89
v 97 -75 81
v -20 -78 77
v -28 -78 85
v -28 -78 77
v -18 -23 60
v 131 -23 65
v 97 -29 81
v -84 -119 63
v -65 -119 63
v -62 -128 86
v -81 -128 86
v -84 -101 66
v -87 -77 42
v -87 -95 39
v -68 -95 39
v -65 -101 66
v -61 -109 81
v -80 -109 81
v -68 -77 42
v -73 -49 27
v -93 -19 0
v -92 -47 0
v -72 -64 15
v -72 -36 15
v -72 -18 0
v -71 -47 0
v -71 -50 3
v -73 14 63
v -54 12 63
v -51 -44 9
v -70 -36 15
v -75 1 66
v -78 9 81
v -74 23 86
v -55 21 86
v -57 -6 66
v -54 -59 21
v -54 -82 0
v -51 -54 0
v -69 -50 3
v -71 -49 27
v -59 2 81
v -70 -64 15
v -68 -79 0
v -70 -52 0
v 145 -119 63
v 164 -119 63
v 167 -128 86
v 148 -128 86
v 145 -101 66
v 142 -77 42
v 142 -95 39
v 161 -95 39
v 164 -101 66
v 168 -109 81
v 149 -109 81
v 161 -77 42
v 156 -49 27
v 136 -19 0
v 137 -47 0
v 157 -64 15
v 157 -36 15
v 157 -18 0
v 158 -47 0
v 158 -50 3
v 156 14 63
v 175 12 63
v 178 -44 9
v 159 -36 15
v 154 1 66
v 151 9 81
v 155 23 86
v 174 21 86
v 172 -6 66
v 175 -59 21
v 175 -82 0
v 178 -54 0
v 160 -50 3
v 158 -49 27
v 170 2 81
v 159 -64 15
v 161 -79 0
v 159 -52 0
v -76 -6 118
v -82 -76 114
v 8 -6 4
v -60 -65 52
v -56 -90 115
v 85 -58 47
v 95 -91 73
v 95 -6 73
v 49 -91 44
v 47 -79 91
v 47 -33 98
v 13 -79 93

f 1 2 3
f 4 5 6
f 7 8 9
f 10 11 12
f 13 14 15
f 13 15 16
f 13 16 17
f 13 17 18
f 13 18 14
f 14 18 19
f 14 19 20
f 14 20 21
f 14 21 15
f 15 21 22
f 15 22 16
f 16 22 23
f 16 23 24
f 16 24 25
f 16 25 17
f 17 25 26
f 17 26 27
f 17 27 28
f 17 28 18
f 18 28 19
f 19 28 29
f 19 29 25
f 19 25 24
f 19 24 20
f 20 24 30
f 20 30 31
f 20 31 21
f 21 31 32
f 21 32 33
f 21 33 22
f 22 33 23
f 23 33 34
f 23 34 30
f 23 30 24
f 34 33 32
f 34 32 35
f 34 35 36
f 34 36 37
f 34 37 30
f 30 37 38
f 30 38 39
f 30 39 31
f 31 39 32
f 32 39 35
f 35 39 40
f 35 40 36
f 36 40 41
f 36 41 42
f 36 42 37
f 37 42 43
f 43 42 44
f 43 44 45
f 43 45 46
f 43 46 47
f 47 46 41
f 47 41 40
f 47 40 38
f 38 40 39
f 48 49 50
f 48 50 51
f 48 51 52
f 48 52 53
f 48 53 54
f 48 54 49
f 49 54 55
f 49 55 56
f 49 56 57
f 49 57 50
f 50 57 58
f 50 58 59
f 50 59 51
f 51 59 60
f 51 60 61
f 51 61 52
f 52 61 62
f 52 62 63
f 52 63 53
f 53 63 64
f 53 64 65
f 53 65 66
f 53 66 54
f 54 66 67
f 54 67 55
f 55 67 56
f 56 67 68
f 56 68 69
f 56 69 57
f 57 69 70
f 57 70 58
f 58 70 71
f 58 71 72
f 58 72 59
f 59 72 73
f 59 73 60
f 60 73 74
f 60 74 75
f 60 75 61
f 61 75 76
f 61 76 62
f 62 76 77
f 62 77 78
f 62 78 63
f 63 78 79
f 63 79 80
f 63 80 81
f 63 81 64
f 64 81 82
f 64 82 42
f 64 42 41
f 64 41 46
f 64 46 83
f 64 83 65
f 65 83 26
f 65 26 84
f 65 84 66
f 66 84 85
f 66 85 86
f 66 86 87
f 66 87 67
f 67 87 68
f 68 87 88
f 68 88 89
f 68 89 69
f 69 89 90
f 69 90 70
f 70 90 91
f 70 91 71
f 71 91 92
f 71 92 93
f 71 93 94
f 71 94 72
f 72 94 73
f 73 94 74
f 74 94 95
f 74 95 75
f 75 95 96
f 75 96 97
f 75 97 76
f 76 97 98
f 76 98 77
f 77 98 99
f 77 99 100
f 77 100 101
f 77 101 78
f 88 102 103
f 88 103 89
f 89 103 104
f 89 104 90
f 90 104 105
f 90 105 91
f 91 105 106
f 91 106 92
f 92 106 107
f 92 107 108
f 92 108 109
f 109 108 110
f 110 108 111
f 110 111 94
f 110 94 93
f 102 112 113
f 102 113 103
f 103 113 114
f 103 114 104
f 104 114 115
f 104 115 105
f 105 115 116
f 105 116 117
f 105 117 118
f 105 118 106
f 106 118 119
f 106 119 107
f 107 119 94
f 107 94 111
f 107 111 108
f 112 120 121
f 112 121 113
f 113 121 114
f 114 121 122
f 114 122 116
f 114 116 115
f 120 123 124
f 120 124 121
f 121 124 125
f 121 125 122
f 122 125 126
f 122 126 116
f 116 126 117
f 117 126 127
f 117 127 128
f 117 128 129
f 129 128 130
f 130 128 131
f 130 131 132
f 130 132 118
f 118 132 119
f 119 132 126
f 119 126 133
f 119 133 134
f 119 134 95
f 119 95 94
f 123 135 136
f 123 136 124
f 124 136 137
f 124 137 138
f 124 138 133
f 124 133 125
f 125 133 126
f 135 139 140
f 135 140 136
f 136 140 141
f 136 141 137
f 137 141 142
f 137 142 138
f 138 142 143
f 138 143 133
f 133 143 144
f 133 144 145
f 133 145 134
f 134 145 146
f 134 146 147
f 134 147 96
f 134 96 95
f 139 99 148
f 139 148 140
f 140 148 149
f 140 149 141
f 141 149 150
f 141 150 142
f 142 150 144
f 142 144 143
f 99 98 148
f 148 98 149
f 149 98 150
f 150 98 151
f 150 151 144
f 144 151 152
f 144 152 153
f 144 153 145
f 145 153 154
f 145 154 155
f 145 155 146
f 146 155 156
f 146 156 157
f 146 157 152
f 146 152 147
f 147 152 158
f 147 158 101
f 147 101 80
f 147 80 159
f 147 159 96
f 96 159 97
f 97 159 160
f 97 160 151
f 97 151 98
f 88 87 161
f 88 161 102
f 102 161 45
f 102 45 112
f 112 45 162
f 112 162 120
f 120 162 44
f 120 44 123
f 123 44 82
f 123 82 135
f 135 82 81
f 135 81 156
f 135 156 155
f 135 155 154
f 135 154 99
f 135 99 139
f 46 45 161
f 46 161 83
f 83 161 86
f 86 161 87
f 44 162 45
f 42 82 44
f 80 101 100
f 80 100 81
f 81 100 156
f 156 100 163
f 156 163 157
f 99 154 163
f 99 163 100
f 80 79 159
f 159 79 160
f 160 79 78
f 86 85 27
f 27 85 28
f 28 85 29
f 29 85 84
f 29 84 25
f 25 84 26
f 126 132 127
f 127 132 131
f 127 131 128
f 152 157 153
f 152 151 160
f 152 160 158
f 164 165 166
f 164 166 167
f 164 167 168
f 164 168 169
f 164 169 170
f 164 170 165
f 165 170 171
f 165 171 172
f 165 172 173
f 165 173 166
f 166 173 167
f 167 173 174
f 167 174 168
f 168 174 172
f 168 172 175
f 168 175 169
f 169 175 176
f 169 176 177
f 169 177 170
f 170 177 178
f 170 178 179
f 170 179 171
f 171 179 175
f 171 175 172
f 172 174 173
f 177 176 180
f 177 180 181
f 181 180 182
f 182 180 183
f 182 183 178
f 178 183 179
f 179 183 180
f 179 180 176
f 179 176 175
f 184 185 186
f 184 186 187
f 184 187 188
f 184 188 189
f 184 189 190
f 184 190 185
f 185 190 191
f 185 191 192
f 185 192 193
f 185 193 186
f 186 193 194
f 186 194 195
f 186 195 196
f 186 196 187
f 187 196 197
f 187 197 188
f 188 197 192
f 188 192 198
f 188 198 189
f 189 198 191
f 189 191 190
f 192 197 193
f 193 197 199
f 193 199 200
f 193 200 194
f 192 191 198
f 201 200 199
f 201 199 196
f 201 196 195
f 196 199 197
f 202 203 204
f 202 204 205
f 202 205 206
f 202 206 207
f 202 207 208
f 202 208 203
f 203 208 209
f 203 209 210
f 203 210 211
f 203 211 204
f 204 211 205
f 205 211 212
f 205 212 206
f 206 212 210
f 206 210 213
f 206 213 207
f 207 213 214
f 207 214 215
f 207 215 208
f 208 215 216
f 208 216 217
f 208 217 209
f 209 217 213
f 209 213 210
f 210 212 211
f 215 214 218
f 215 218 219
f 219 218 220
f 220 218 221
f 220 221 216
f 216 221 217
f 217 221 218
f 217 218 214
f 217 214 213
f 222 223 224
f 222 224 225
f 222 225 226
f 222 226 227
f 222 227 228
f 222 228 223
f 223 228 229
f 223 229 230
f 223 230 231
f 223 231 224
f 224 231 232
f 224 232 233
f 224 233 234
f 224 234 225
f 225 234 235
f 225 235 226
f 226 235 230
f 226 230 236
f 226 236 227
f 227 236 229
f 227 229 228
f 230 235 231
f 231 235 237
f 231 237 238
f 231 238 232
f 230 229 236
f 239 238 237
f 239 237 234
f 239 234 233
f 234 237 235
