# RS2 Model 12056
# Vertices: 172
# Faces: 304

v -64 -51 0
v -64 -64 0
v -4 -64 34
v -24 -51 41
v -32 -47 34
v -37 -41 29
v -64 -34 0
v -32 -35 34
v -24 -32 43
v -11 -20 40
v -64 -20 0
v -28 -6 46
v -64 -6 0
v -64 8 0
v -28 10 45
v -11 22 40
v -64 22 0
v -21 36 40
v -64 36 0
v -21 49 40
v -64 50 0
v -64 64 0
v -4 64 34
v 0 52 69
v 19 64 64
v 3 50 104
v 30 64 96
v 15 51 148
v 37 64 144
v 12 54 188
v 39 64 192
v 7 54 231
v 39 64 240
v 7 33 230
v 39 22 240
v 64 64 240
v 64 -64 240
v 64 -64 0
v 64 64 0
v 19 -64 64
v -4 -51 72
v 30 -64 96
v 9 -54 100
v 37 -64 144
v 15 -53 146
v 39 -64 192
v 11 -48 192
v 39 -64 240
v 7 -52 230
v 0 36 69
v 3 35 103
v 15 31 146
v 15 42 162
v 14 49 169
v 14 42 177
v 14 28 190
v 19 23 64
v 18 18 101
v 37 26 144
v 39 19 192
v 14 34 169
v 1 34 165
v 1 42 159
v -2 48 165
v -4 41 171
v 0 12 69
v -2 7 105
v 15 11 146
v 14 14 189
v 7 15 232
v 0 -3 69
v -2 -7 105
v 15 -12 149
v 14 -14 188
v 12 0 203
v 10 10 213
v 8 0 224
v 7 -12 232
v 39 -20 240
v 7 -30 231
v 11 -31 192
v 15 -29 146
v 14 -41 135
v 12 -49 127
v 12 -41 120
v 9 -32 101
v -4 -34 73
v -28 -41 39
v -39 -40 44
v -43 -42 40
v -44 -38 36
v -40 -34 40
v 15 -20 68
v 18 -23 101
v 37 -21 144
v 36 -17 187
v 10 -10 213
v -2 -10 209
v 1 0 201
v -2 10 209
v -7 0 218
v -18 2 207
v -13 -8 199
v -6 0 194
v -10 10 199
v -16 10 183
v -26 5 185
v -18 -4 183
v -12 3 182
v -24 5 165
v -26 10 168
v -29 6 171
v -28 2 168
v -39 3 163
v -37 5 160
v -39 6 163
v -38 4 165
v -52 -2 164
v -15 37 161
v -8 33 155
v -7 40 152
v -11 45 155
v -18 40 142
v -20 34 144
v -15 31 142
v -14 37 141
v -17 36 125
v -20 39 126
v -21 33 127
v -17 32 126
v -18 32 114
v -17 36 115
v -21 36 114
v -20 34 112
v -13 38 97
v -44 -32 52
v -46 -35 54
v -49 -36 52
v -48 -31 49
v -52 -27 51
v -51 -24 53
v -53 -25 55
v -54 -26 53
v -59 -21 47
v 1 -42 131
v 3 -50 124
v 4 -35 125
v -6 -34 115
v -13 -38 122
v -11 -44 115
v 3 -42 118
v 12 -34 127
v -7 -40 112
v -13 -38 102
v -14 -32 104
v -19 -35 107
v -18 -41 104
v -20 -39 89
v -16 -36 86
v -16 -32 89
v -19 -34 91
v -24 -30 79
v -24 -35 78
v -21 -33 75
v -21 -31 78
v -37 -23 69
v 20 -64 246
v 18 64 247
v 17 -63 101
v 19 -67 105
v 20 60 104
v -56 -66 -4

f 1 2 3
f 1 3 4
f 1 4 5
f 1 5 6
f 1 6 7
f 7 6 8
f 7 8 9
f 7 9 10
f 7 10 11
f 11 10 12
f 11 12 13
f 13 12 14
f 14 12 15
f 14 15 16
f 14 16 17
f 17 16 18
f 17 18 19
f 19 18 20
f 19 20 21
f 21 20 22
f 22 20 23
f 23 20 24
f 23 24 25
f 25 24 26
f 25 26 27
f 27 26 28
f 27 28 29
f 29 28 30
f 29 30 31
f 31 30 32
f 31 32 33
f 33 32 34
f 33 34 35
f 33 35 36
f 36 35 37
f 36 37 38
f 36 38 39
f 40 41 4
f 40 4 3
f 42 43 41
f 42 41 40
f 44 45 43
f 44 43 42
f 46 47 45
f 46 45 44
f 48 49 47
f 48 47 46
f 20 18 50
f 20 50 24
f 24 50 51
f 24 51 26
f 26 51 52
f 26 52 28
f 28 52 53
f 28 53 54
f 28 54 30
f 30 54 55
f 30 55 56
f 30 56 34
f 30 34 32
f 18 16 57
f 18 57 50
f 50 57 58
f 50 58 51
f 51 58 59
f 51 59 52
f 52 59 60
f 52 60 56
f 52 56 61
f 52 61 53
f 53 61 62
f 53 62 63
f 53 63 54
f 54 63 64
f 54 64 55
f 55 64 65
f 55 65 61
f 55 61 56
f 16 15 66
f 16 66 57
f 57 66 67
f 57 67 58
f 58 67 68
f 58 68 59
f 59 68 69
f 59 69 60
f 60 69 70
f 60 70 35
f 60 35 56
f 56 35 34
f 15 12 71
f 15 71 66
f 66 71 72
f 66 72 67
f 67 72 73
f 67 73 68
f 68 73 74
f 68 74 69
f 69 74 75
f 69 75 76
f 69 76 70
f 70 76 77
f 70 77 78
f 70 78 35
f 35 78 79
f 35 79 37
f 37 79 48
f 48 79 49
f 49 79 80
f 49 80 81
f 49 81 47
f 47 81 82
f 47 82 45
f 45 82 83
f 45 83 84
f 45 84 43
f 43 84 85
f 43 85 86
f 43 86 87
f 43 87 41
f 41 87 9
f 41 9 4
f 4 9 88
f 4 88 5
f 5 88 89
f 5 89 90
f 5 90 6
f 6 90 91
f 6 91 8
f 8 91 92
f 8 92 88
f 8 88 9
f 12 10 93
f 12 93 71
f 71 93 94
f 71 94 72
f 72 94 95
f 72 95 73
f 73 95 96
f 73 96 74
f 74 96 79
f 74 79 78
f 74 78 97
f 74 97 75
f 75 97 98
f 75 98 99
f 75 99 76
f 76 99 100
f 76 100 77
f 77 100 101
f 77 101 97
f 77 97 78
f 10 9 87
f 10 87 93
f 93 87 86
f 93 86 94
f 94 86 82
f 94 82 95
f 95 82 81
f 95 81 96
f 96 81 80
f 96 80 79
f 101 98 97
f 98 101 102
f 98 102 103
f 98 103 99
f 99 103 104
f 99 104 100
f 100 104 105
f 100 105 101
f 101 105 102
f 102 105 106
f 102 106 107
f 102 107 103
f 103 107 108
f 103 108 104
f 104 108 109
f 104 109 105
f 105 109 106
f 106 109 110
f 106 110 111
f 106 111 107
f 107 111 112
f 107 112 108
f 108 112 113
f 108 113 109
f 109 113 110
f 110 113 114
f 110 114 115
f 110 115 111
f 111 115 116
f 111 116 112
f 112 116 117
f 112 117 113
f 113 117 114
f 114 117 118
f 114 118 115
f 115 118 116
f 116 118 117
f 65 62 61
f 62 65 119
f 62 119 120
f 62 120 63
f 63 120 121
f 63 121 64
f 64 121 122
f 64 122 65
f 65 122 119
f 119 122 123
f 119 123 124
f 119 124 120
f 120 124 125
f 120 125 121
f 121 125 126
f 121 126 122
f 122 126 123
f 123 126 127
f 123 127 128
f 123 128 124
f 124 128 129
f 124 129 125
f 125 129 130
f 125 130 126
f 126 130 127
f 127 130 131
f 127 131 132
f 127 132 128
f 128 132 133
f 128 133 129
f 129 133 134
f 129 134 130
f 130 134 131
f 131 134 135
f 131 135 132
f 132 135 133
f 133 135 134
f 92 89 88
f 89 92 136
f 89 136 137
f 89 137 90
f 90 137 138
f 90 138 91
f 91 138 139
f 91 139 92
f 92 139 136
f 136 139 140
f 136 140 141
f 136 141 137
f 137 141 142
f 137 142 138
f 138 142 143
f 138 143 139
f 139 143 140
f 140 143 144
f 140 144 141
f 141 144 142
f 142 144 143
f 145 146 84
f 145 84 83
f 145 83 147
f 145 147 148
f 145 148 149
f 145 149 146
f 146 149 150
f 146 150 151
f 146 151 85
f 146 85 84
f 147 83 152
f 147 152 151
f 147 151 153
f 147 153 148
f 148 153 154
f 148 154 155
f 148 155 149
f 149 155 156
f 149 156 150
f 150 156 157
f 150 157 153
f 150 153 151
f 151 152 85
f 85 152 86
f 86 152 82
f 82 152 83
f 153 157 154
f 154 157 158
f 154 158 159
f 154 159 155
f 155 159 160
f 155 160 156
f 156 160 161
f 156 161 157
f 157 161 158
f 158 161 162
f 158 162 163
f 158 163 159
f 159 163 164
f 159 164 160
f 160 164 165
f 160 165 161
f 161 165 162
f 162 165 166
f 162 166 163
f 163 166 164
f 164 166 165
