# RS2 Model 12061
# Vertices: 193
# Faces: 334

v 64 -64 240
v -64 -64 240
v -64 -64 0
v 64 -64 0
v 64 64 240
v 30 8 240
v -4 -27 240
v -64 -39 240
v -49 -12 231
v -64 -39 192
v -47 -18 192
v -54 -23 180
v -57 -28 173
v -64 -37 144
v -55 -24 168
v -48 -13 146
v -64 -30 96
v -50 -7 100
v -64 -19 64
v -51 0 73
v -64 4 34
v -58 30 40
v -64 64 0
v -55 42 39
v -35 46 45
v -31 64 40
v -4 64 34
v -5 37 64
v 1 52 69
v 19 64 64
v 30 64 96
v 6 52 103
v 37 64 144
v 12 55 146
v 19 58 168
v 24 60 173
v 39 64 192
v 19 58 180
v 11 55 190
v 39 64 239
v 8 60 230
v 64 64 0
v -26 30 167
v -30 24 160
v -21 13 165
v -15 18 173
v -18 34 160
v -23 41 151
v -31 41 156
v -36 34 151
v -23 28 153
v -17 19 158
v -27 11 149
v -21 9 188
v -5 25 189
v -10 25 165
v -28 33 146
v -30 41 137
v -28 47 138
v -36 50 139
v -38 41 138
v -9 28 146
v -16 33 105
v -30 18 105
v -21 -15 144
v -12 -14 187
v -16 7 231
v -3 20 230
v 18 13 192
v 17 24 144
v -41 45 123
v -34 43 124
v -32 51 123
v -39 51 122
v -41 52 108
v -40 48 107
v -35 46 106
v -36 52 107
v -44 55 93
v -48 56 94
v -47 54 93
v -44 52 92
v -63 60 80
v -12 64 69
v -4 64 75
v -8 52 75
v -14 57 69
v -18 64 77
v -19 61 77
v -10 64 82
v -13 56 82
v -19 52 82
v -16 46 75
v -20 53 69
v -24 58 77
v -32 57 77
v -29 50 82
v -29 43 75
v -29 51 69
v -40 48 69
v -46 54 77
v -40 49 82
v -36 43 75
v -43 35 75
v -49 39 69
v -55 43 77
v -48 39 82
v -50 28 82
v -43 26 75
v -51 27 69
v -57 29 77
v -57 22 77
v -51 19 82
v -46 14 75
v -53 18 69
v -58 13 69
v -60 19 77
v -57 12 82
v -55 6 75
v -64 4 75
v -64 12 69
v -64 18 77
v -64 10 82
v 17 64 168
v 23 64 173
v 13 64 175
v 15 56 175
v 18 64 180
v -64 -23 173
v -64 -18 168
v -64 -17 180
v -64 -13 175
v -52 -19 175
v -28 -9 101
v -42 5 68
v -43 30 50
v -43 36 45
v -38 41 50
v -27 41 69
v 4 28 101
v -64 3 136
v -64 -5 130
v -43 2 121
v -48 8 127
v -64 9 132
v -52 13 123
v -64 3 124
v -48 8 115
v -39 19 107
v -32 16 113
v -39 19 119
v -45 21 115
v -38 35 112
v -33 31 104
v -28 26 110
v -33 31 116
v -19 37 119
v -23 43 115
v -19 37 107
v -16 31 113
v -2 41 121
v -7 46 127
v -14 49 123
v -7 46 115
v -3 54 118
v 4 51 124
v -3 54 130
v -10 55 126
v -9 64 133
v -3 64 125
v 5 64 131
v -2 64 137
v -39 30 69
v -44 38 60
v -49 38 56
v -39 35 55
v -43 44 56
v -46 47 68
v -49 46 70
v -52 46 68
v -48 42 52
v -50 49 65
v -52 55 67
v -52 56 69
v -54 56 71
v -54 55 69
v -60 63 63
v -64 -37 242
v 45 57 242
v -72 -27 94
v -96 -1 11
v -56 -35 123
v -5 95 8

f 1 2 3
f 1 3 4
f 1 4 5
f 1 5 6
f 1 6 7
f 1 7 2
f 2 7 8
f 8 7 9
f 8 9 10
f 10 9 11
f 10 11 12
f 10 12 13
f 10 13 14
f 14 13 15
f 14 15 16
f 14 16 17
f 17 16 18
f 17 18 19
f 19 18 20
f 19 20 21
f 21 20 22
f 21 22 23
f 23 22 24
f 23 24 25
f 23 25 26
f 23 26 27
f 27 26 28
f 27 28 29
f 27 29 30
f 30 29 31
f 31 29 32
f 31 32 33
f 33 32 34
f 33 34 35
f 33 35 36
f 33 36 37
f 37 36 38
f 37 38 39
f 37 39 40
f 40 39 41
f 40 41 6
f 40 6 5
f 5 4 42
f 43 44 45
f 43 45 46
f 43 46 47
f 43 47 48
f 43 48 49
f 43 49 44
f 44 49 50
f 44 50 51
f 44 51 52
f 44 52 45
f 45 52 53
f 45 53 54
f 45 54 46
f 46 54 55
f 46 55 56
f 46 56 47
f 47 56 51
f 47 51 57
f 47 57 48
f 48 57 58
f 48 58 59
f 48 59 49
f 49 59 60
f 49 60 50
f 50 60 61
f 50 61 57
f 50 57 51
f 51 56 52
f 52 56 62
f 52 62 53
f 53 62 63
f 53 63 64
f 53 64 65
f 53 65 66
f 53 66 54
f 54 66 7
f 54 7 67
f 54 67 55
f 55 67 68
f 55 68 69
f 55 69 70
f 55 70 62
f 55 62 56
f 57 61 58
f 58 61 71
f 58 71 72
f 58 72 59
f 59 72 73
f 59 73 60
f 60 73 74
f 60 74 61
f 61 74 71
f 71 74 75
f 71 75 76
f 71 76 72
f 72 76 77
f 72 77 73
f 73 77 78
f 73 78 74
f 74 78 75
f 75 78 79
f 75 79 80
f 75 80 76
f 76 80 81
f 76 81 77
f 77 81 82
f 77 82 78
f 78 82 79
f 79 82 83
f 79 83 80
f 80 83 81
f 81 83 82
f 84 85 86
f 84 86 87
f 84 87 88
f 88 87 89
f 88 89 90
f 90 89 91
f 90 91 85
f 85 91 86
f 86 91 92
f 86 92 93
f 86 93 87
f 87 93 94
f 87 94 89
f 89 94 95
f 89 95 91
f 91 95 92
f 92 95 96
f 92 96 97
f 92 97 93
f 93 97 98
f 93 98 94
f 94 98 99
f 94 99 95
f 95 99 96
f 96 99 100
f 96 100 101
f 96 101 97
f 97 101 102
f 97 102 98
f 98 102 103
f 98 103 99
f 99 103 100
f 100 103 104
f 100 104 105
f 100 105 101
f 101 105 106
f 101 106 102
f 102 106 107
f 102 107 103
f 103 107 104
f 104 107 108
f 104 108 109
f 104 109 105
f 105 109 110
f 105 110 106
f 106 110 111
f 106 111 107
f 107 111 108
f 108 111 112
f 108 112 113
f 108 113 109
f 109 113 114
f 109 114 110
f 110 114 115
f 110 115 111
f 111 115 112
f 112 115 116
f 112 116 117
f 112 117 113
f 113 117 118
f 113 118 114
f 114 118 119
f 114 119 115
f 115 119 116
f 116 119 120
f 116 120 121
f 116 121 117
f 117 121 122
f 117 122 118
f 118 122 123
f 118 123 119
f 119 123 120
f 124 125 36
f 124 36 35
f 124 35 126
f 126 35 127
f 126 127 128
f 128 127 38
f 128 38 125
f 125 38 36
f 129 130 15
f 129 15 13
f 129 13 131
f 131 13 12
f 131 12 132
f 132 12 133
f 132 133 130
f 130 133 15
f 15 133 16
f 16 133 11
f 16 11 65
f 16 65 134
f 16 134 18
f 18 134 135
f 18 135 20
f 20 135 22
f 22 135 136
f 22 136 137
f 22 137 24
f 24 137 25
f 25 137 138
f 25 138 139
f 25 139 26
f 26 139 28
f 28 139 63
f 28 63 140
f 28 140 29
f 29 140 32
f 32 140 70
f 32 70 34
f 34 70 69
f 34 69 39
f 34 39 127
f 34 127 35
f 141 142 143
f 141 143 144
f 141 144 145
f 145 144 146
f 145 146 147
f 147 146 148
f 147 148 142
f 142 148 143
f 143 148 149
f 143 149 150
f 143 150 144
f 144 150 151
f 144 151 146
f 146 151 152
f 146 152 148
f 148 152 149
f 149 152 153
f 149 153 154
f 149 154 150
f 150 154 155
f 150 155 151
f 151 155 156
f 151 156 152
f 152 156 153
f 153 156 157
f 153 157 158
f 153 158 154
f 154 158 159
f 154 159 155
f 155 159 160
f 155 160 156
f 156 160 157
f 157 160 161
f 157 161 162
f 157 162 158
f 158 162 163
f 158 163 159
f 159 163 164
f 159 164 160
f 160 164 161
f 161 164 165
f 161 165 166
f 161 166 162
f 162 166 167
f 162 167 163
f 163 167 168
f 163 168 164
f 164 168 165
f 165 168 169
f 165 169 170
f 165 170 166
f 166 170 171
f 166 171 167
f 167 171 172
f 167 172 168
f 168 172 169
f 139 173 64
f 139 64 63
f 173 135 134
f 173 134 64
f 64 134 65
f 140 63 62
f 140 62 70
f 65 11 66
f 66 11 9
f 66 9 7
f 39 69 6
f 39 6 41
f 69 68 6
f 6 68 67
f 6 67 7
f 174 175 136
f 174 136 176
f 174 176 177
f 174 177 178
f 174 178 179
f 174 179 175
f 175 179 180
f 175 180 181
f 175 181 137
f 175 137 136
f 177 176 138
f 177 138 181
f 177 181 182
f 177 182 178
f 178 182 183
f 178 183 184
f 178 184 179
f 179 184 185
f 179 185 180
f 180 185 186
f 180 186 182
f 180 182 181
f 181 138 137
f 182 186 183
f 183 186 187
f 183 187 184
f 184 187 185
f 185 187 186
f 138 176 139
f 139 176 173
f 173 176 136
f 173 136 135
f 11 133 12
f 38 127 39
