# RS2 Model 12080
# Vertices: 317
# Faces: 453

v -10 60 12
v 10 60 12
v 11 64 6
v -11 64 6
v -30 54 12
v -26 47 14
v -8 52 14
v 8 52 14
v 29 55 12
v 31 59 6
v 31 59 0
v 11 64 0
v -11 64 0
v -32 58 6
v -47 40 12
v -41 35 14
v -37 31 3
v -23 42 3
v -6 47 3
v 6 47 3
v 25 48 14
v 44 45 12
v 47 48 6
v 47 48 0
v 10 -59 12
v -10 -59 12
v -11 -64 6
v 11 -64 6
v 30 -55 12
v 26 -48 14
v 8 -51 14
v -8 -51 14
v -28 -56 12
v -30 -60 6
v -30 -60 0
v -11 -64 0
v 11 -64 0
v 32 -59 6
v 45 -46 12
v 39 -40 14
v 34 -36 3
v 23 -43 3
v 6 -47 3
v -6 -47 3
v -24 -49 14
v -45 -47 12
v -48 -51 6
v -48 -51 0
v -50 43 6
v -56 25 12
v -49 21 14
v -45 19 3
v 0 -2 0
v 23 43 3
v 38 39 14
v 54 27 12
v 58 29 6
v 58 29 0
v -60 27 6
v -58 10 12
v -50 8 14
v -46 6 3
v -46 -6 3
v -43 -22 3
v -34 -37 3
v -22 -45 3
v 42 -23 3
v 47 -6 3
v 47 6 3
v 42 21 3
v 34 34 3
v 47 23 14
v 60 10 12
v 64 11 6
v 64 11 0
v -55 -28 12
v -59 -30 6
v -59 -30 0
v -64 11 6
v -58 -10 12
v -50 -8 14
v -64 -13 6
v -48 -24 14
v -64 -13 0
v 48 -49 6
v 54 -30 12
v 47 -26 14
v 58 -33 6
v 60 -10 12
v 52 -8 14
v 64 -11 6
v 52 8 14
v 64 -11 0
v -32 58 0
v -50 43 0
v -60 27 0
v -64 11 0
v 32 -59 0
v 48 -49 0
v 58 -33 0
v -39 -41 14
v -40 58 2
v -36 61 2
v -38 62 2
v -41 60 2
v -43 60 0
v -41 56 0
v -37 57 2
v -36 56 0
v -34 61 0
v -38 64 0
v -48 52 2
v -48 56 2
v -50 55 2
v -50 53 2
v -52 51 0
v -48 50 0
v -46 54 2
v -44 54 0
v -48 58 0
v -52 56 0
v -61 60 2
v -58 56 2
v -57 58 2
v -59 61 2
v -59 63 0
v -63 61 0
v -62 57 2
v -63 56 0
v -58 54 0
v -55 58 0
v -58 39 2
v -62 36 2
v -60 35 2
v -57 37 2
v -55 37 0
v -57 41 0
v -61 40 2
v -62 41 0
v -64 36 0
v -60 33 0
v -59 50 2
v -59 46 2
v -57 47 2
v -57 49 2
v -55 51 0
v -59 52 0
v -61 48 2
v -63 48 0
v -59 44 0
v -55 46 0
v 43 -58 2
v 39 -61 2
v 41 -62 2
v 44 -60 2
v 46 -60 0
v 44 -56 0
v 40 -57 2
v 39 -56 0
v 37 -61 0
v 41 -64 0
v 49 -53 2
v 49 -57 2
v 51 -56 2
v 51 -54 2
v 53 -52 0
v 49 -51 0
v 47 -55 2
v 45 -55 0
v 49 -59 0
v 53 -57 0
v 59 -61 2
v 56 -57 2
v 55 -59 2
v 57 -62 2
v 57 -64 0
v 61 -62 0
v 60 -58 2
v 61 -57 0
v 56 -55 0
v 53 -59 0
v 58 -42 2
v 62 -39 2
v 60 -38 2
v 57 -40 2
v 55 -40 0
v 57 -44 0
v 61 -43 2
v 62 -44 0
v 64 -39 0
v 60 -36 0
v 59 -52 2
v 59 -48 2
v 57 -49 2
v 57 -51 2
v 55 -53 0
v 59 -54 0
v 61 -50 2
v 63 -50 0
v 59 -46 0
v 55 -48 0
v 58 39 2
v 61 35 2
v 62 37 2
v 60 40 2
v 60 42 0
v 56 40 0
v 57 36 2
v 56 35 0
v 61 33 0
v 64 37 0
v 52 53 2
v 56 53 2
v 55 55 2
v 53 55 2
v 51 57 0
v 50 53 0
v 54 51 2
v 54 49 0
v 58 53 0
v 56 57 0
v 61 61 2
v 57 58 2
v 59 57 2
v 62 59 2
v 64 59 0
v 62 63 0
v 58 62 2
v 57 63 0
v 55 58 0
v 59 55 0
v 40 58 2
v 37 62 2
v 36 60 2
v 38 57 2
v 38 55 0
v 42 57 0
v 41 61 2
v 42 62 0
v 37 64 0
v 34 60 0
v 49 61 2
v 45 61 2
v 46 59 2
v 48 59 2
v 50 57 0
v 51 61 0
v 47 63 2
v 47 65 0
v 43 61 0
v 45 57 0
v 54 46 2
v 54 42 2
v 56 43 2
v 56 45 2
v 58 47 0
v 54 48 0
v 52 44 2
v 50 44 0
v 54 40 0
v 58 42 0
v -58 -44 2
v -61 -40 2
v -62 -42 2
v -60 -45 2
v -60 -47 0
v -56 -45 0
v -57 -41 2
v -56 -40 0
v -61 -38 0
v -64 -42 0
v -53 -49 2
v -57 -49 2
v -56 -51 2
v -54 -51 2
v -52 -53 0
v -51 -49 0
v -55 -47 2
v -55 -45 0
v -59 -49 0
v -57 -53 0
v -61 -59 2
v -57 -56 2
v -59 -55 2
v -62 -57 2
v -64 -57 0
v -62 -61 0
v -58 -60 2
v -57 -61 0
v -55 -56 0
v -59 -53 0
v -44 -58 2
v -41 -62 2
v -40 -60 2
v -42 -57 2
v -42 -55 0
v -46 -57 0
v -45 -61 2
v -46 -62 0
v -41 -64 0
v -38 -60 0
v -53 -59 2
v -49 -59 2
v -50 -57 2
v -52 -57 2
v -54 -55 0
v -55 -59 0
v -51 -61 2
v -51 -63 0
v -47 -59 0
v -49 -55 0
v 71 71 2
v -71 71 2
v 71 -72 2
v -40 -43 0
v 45 -43 0
v -40 47 0

f 1 2 3
f 1 3 4
f 1 4 5
f 1 5 6
f 1 6 7
f 1 7 2
f 2 7 8
f 2 8 9
f 2 9 10
f 2 10 3
f 3 10 11
f 3 11 12
f 3 12 4
f 4 12 13
f 4 13 14
f 4 14 5
f 5 14 15
f 5 15 16
f 5 16 6
f 6 16 17
f 6 17 18
f 6 18 7
f 7 18 19
f 7 19 8
f 8 19 20
f 8 20 21
f 8 21 9
f 9 21 22
f 9 22 23
f 9 23 10
f 10 23 24
f 10 24 11
f 25 26 27
f 25 27 28
f 25 28 29
f 25 29 30
f 25 30 31
f 25 31 26
f 26 31 32
f 26 32 33
f 26 33 34
f 26 34 27
f 27 34 35
f 27 35 36
f 27 36 28
f 28 36 37
f 28 37 38
f 28 38 29
f 29 38 39
f 29 39 40
f 29 40 30
f 30 40 41
f 30 41 42
f 30 42 31
f 31 42 43
f 31 43 32
f 32 43 44
f 32 44 45
f 32 45 33
f 33 45 46
f 33 46 47
f 33 47 34
f 34 47 48
f 34 48 35
f 15 14 49
f 15 49 50
f 15 50 51
f 15 51 16
f 16 51 52
f 16 52 17
f 17 52 53
f 17 53 18
f 18 53 19
f 19 53 20
f 20 53 54
f 20 54 21
f 21 54 55
f 21 55 22
f 22 55 56
f 22 56 57
f 22 57 23
f 23 57 58
f 23 58 24
f 50 49 59
f 50 59 60
f 50 60 61
f 50 61 51
f 51 61 62
f 51 62 52
f 52 62 53
f 53 62 63
f 53 63 64
f 53 64 65
f 53 65 66
f 53 66 44
f 53 44 43
f 53 43 42
f 53 42 41
f 53 41 67
f 53 67 68
f 53 68 69
f 53 69 70
f 53 70 71
f 53 71 54
f 54 71 55
f 55 71 72
f 55 72 56
f 56 72 73
f 56 73 74
f 56 74 57
f 57 74 75
f 57 75 58
f 46 76 77
f 46 77 47
f 47 77 78
f 47 78 48
f 60 59 79
f 60 79 80
f 60 80 81
f 60 81 61
f 61 81 63
f 61 63 62
f 80 79 82
f 80 82 76
f 80 76 83
f 80 83 81
f 81 83 64
f 81 64 63
f 76 82 77
f 77 82 84
f 77 84 78
f 39 38 85
f 39 85 86
f 39 86 87
f 39 87 40
f 40 87 67
f 40 67 41
f 86 85 88
f 86 88 89
f 86 89 90
f 86 90 87
f 87 90 68
f 87 68 67
f 89 88 91
f 89 91 73
f 89 73 92
f 89 92 90
f 90 92 69
f 90 69 68
f 73 91 74
f 74 91 93
f 74 93 75
f 14 13 94
f 14 94 49
f 49 94 95
f 49 95 59
f 59 95 96
f 59 96 79
f 79 96 97
f 79 97 82
f 82 97 84
f 38 37 98
f 38 98 85
f 85 98 99
f 85 99 88
f 88 99 100
f 88 100 91
f 91 100 93
f 46 45 101
f 46 101 76
f 76 101 83
f 83 101 65
f 83 65 64
f 73 72 92
f 92 72 70
f 92 70 69
f 45 44 66
f 45 66 101
f 101 66 65
f 72 71 70
f 102 103 104
f 102 104 105
f 102 105 106
f 102 106 107
f 102 107 108
f 102 108 103
f 103 108 109
f 103 109 110
f 103 110 104
f 104 110 111
f 104 111 105
f 105 111 106
f 108 107 109
f 112 113 114
f 112 114 115
f 112 115 116
f 112 116 117
f 112 117 118
f 112 118 113
f 113 118 119
f 113 119 120
f 113 120 114
f 114 120 121
f 114 121 115
f 115 121 116
f 118 117 119
f 122 123 124
f 122 124 125
f 122 125 126
f 122 126 127
f 122 127 128
f 122 128 123
f 123 128 129
f 123 129 130
f 123 130 124
f 124 130 131
f 124 131 125
f 125 131 126
f 128 127 129
f 132 133 134
f 132 134 135
f 132 135 136
f 132 136 137
f 132 137 138
f 132 138 133
f 133 138 139
f 133 139 140
f 133 140 134
f 134 140 141
f 134 141 135
f 135 141 136
f 138 137 139
f 142 143 144
f 142 144 145
f 142 145 146
f 142 146 147
f 142 147 148
f 142 148 143
f 143 148 149
f 143 149 150
f 143 150 144
f 144 150 151
f 144 151 145
f 145 151 146
f 148 147 149
f 152 153 154
f 152 154 155
f 152 155 156
f 152 156 157
f 152 157 158
f 152 158 153
f 153 158 159
f 153 159 160
f 153 160 154
f 154 160 161
f 154 161 155
f 155 161 156
f 158 157 159
f 162 163 164
f 162 164 165
f 162 165 166
f 162 166 167
f 162 167 168
f 162 168 163
f 163 168 169
f 163 169 170
f 163 170 164
f 164 170 171
f 164 171 165
f 165 171 166
f 168 167 169
f 172 173 174
f 172 174 175
f 172 175 176
f 172 176 177
f 172 177 178
f 172 178 173
f 173 178 179
f 173 179 180
f 173 180 174
f 174 180 181
f 174 181 175
f 175 181 176
f 178 177 179
f 182 183 184
f 182 184 185
f 182 185 186
f 182 186 187
f 182 187 188
f 182 188 183
f 183 188 189
f 183 189 190
f 183 190 184
f 184 190 191
f 184 191 185
f 185 191 186
f 188 187 189
f 192 193 194
f 192 194 195
f 192 195 196
f 192 196 197
f 192 197 198
f 192 198 193
f 193 198 199
f 193 199 200
f 193 200 194
f 194 200 201
f 194 201 195
f 195 201 196
f 198 197 199
f 202 203 204
f 202 204 205
f 202 205 206
f 202 206 207
f 202 207 208
f 202 208 203
f 203 208 209
f 203 209 210
f 203 210 204
f 204 210 211
f 204 211 205
f 205 211 206
f 208 207 209
f 212 213 214
f 212 214 215
f 212 215 216
f 212 216 217
f 212 217 218
f 212 218 213
f 213 218 219
f 213 219 220
f 213 220 214
f 214 220 221
f 214 221 215
f 215 221 216
f 218 217 219
f 222 223 224
f 222 224 225
f 222 225 226
f 222 226 227
f 222 227 228
f 222 228 223
f 223 228 229
f 223 229 230
f 223 230 224
f 224 230 231
f 224 231 225
f 225 231 226
f 228 227 229
f 232 233 234
f 232 234 235
f 232 235 236
f 232 236 237
f 232 237 238
f 232 238 233
f 233 238 239
f 233 239 240
f 233 240 234
f 234 240 241
f 234 241 235
f 235 241 236
f 238 237 239
f 242 243 244
f 242 244 245
f 242 245 246
f 242 246 247
f 242 247 248
f 242 248 243
f 243 248 249
f 243 249 250
f 243 250 244
f 244 250 251
f 244 251 245
f 245 251 246
f 248 247 249
f 252 253 254
f 252 254 255
f 252 255 256
f 252 256 257
f 252 257 258
f 252 258 253
f 253 258 259
f 253 259 260
f 253 260 254
f 254 260 261
f 254 261 255
f 255 261 256
f 258 257 259
f 262 263 264
f 262 264 265
f 262 265 266
f 262 266 267
f 262 267 268
f 262 268 263
f 263 268 269
f 263 269 270
f 263 270 264
f 264 270 271
f 264 271 265
f 265 271 266
f 268 267 269
f 272 273 274
f 272 274 275
f 272 275 276
f 272 276 277
f 272 277 278
f 272 278 273
f 273 278 279
f 273 279 280
f 273 280 274
f 274 280 281
f 274 281 275
f 275 281 276
f 278 277 279
f 282 283 284
f 282 284 285
f 282 285 286
f 282 286 287
f 282 287 288
f 282 288 283
f 283 288 289
f 283 289 290
f 283 290 284
f 284 290 291
f 284 291 285
f 285 291 286
f 288 287 289
f 292 293 294
f 292 294 295
f 292 295 296
f 292 296 297
f 292 297 298
f 292 298 293
f 293 298 299
f 293 299 300
f 293 300 294
f 294 300 301
f 294 301 295
f 295 301 296
f 298 297 299
f 302 303 304
f 302 304 305
f 302 305 306
f 302 306 307
f 302 307 308
f 302 308 303
f 303 308 309
f 303 309 310
f 303 310 304
f 304 310 311
f 304 311 305
f 305 311 306
f 308 307 309
