# RS2 Model 12140
# Vertices: 151
# Faces: 296

v -13 -20 187
v 0 -22 188
v 0 -13 189
v -8 -8 190
v -15 -11 189
v -20 -12 185
v -11 -21 185
v 0 -26 184
v 14 -19 187
v 15 -11 189
v 8 -8 189
v 6 -7 192
v 0 -10 192
v -6 -7 192
v -11 2 189
v -19 -2 187
v -23 -3 183
v -20 -12 183
v -4 -9 186
v 0 -10 186
v 0 -25 183
v 12 -20 185
v 21 -11 185
v 23 -3 183
v 19 -2 187
v 11 2 189
v 10 2 192
v 5 -6 196
v 0 -9 196
v -5 -6 196
v -9 2 196
v -10 2 192
v -8 10 189
v -16 13 186
v -22 9 182
v -22 9 180
v -23 -3 181
v -6 -7 186
v -4 -9 184
v 0 -11 183
v 4 -9 184
v 4 -9 186
v 6 -4 186
v 21 -11 183
v 23 -3 181
v 22 10 182
v 16 13 186
v 8 10 189
v 6 8 192
v 9 2 196
v 2 -5 199
v -4 -3 199
v -5 3 199
v -5 7 196
v -6 8 192
v 0 14 189
v 0 27 183
v -18 20 182
v -18 20 180
v -10 0 184
v -8 -4 185
v -7 -6 184
v -5 -7 183
v -2 -8 182
v 0 -10 181
v 2 -8 182
v 5 -7 183
v 7 -6 184
v 12 29 180
v 0 33 178
v -10 29 180
v -10 27 179
v -10 3 184
v -9 2 181
v -8 -4 182
v -7 -5 182
v -5 -7 180
v -2 -9 176
v 0 -12 177
v 2 -9 176
v 5 -7 180
v 7 -5 182
v 8 -4 182
v 8 -4 185
v 10 0 184
v 22 10 180
v 18 20 182
v 18 20 180
v 12 27 179
v 0 32 177
v -6 9 183
v -9 6 181
v -9 4 182
v -10 4 182
v -10 6 181
v -7 2 176
v -8 1 177
v -8 -3 180
v -7 -5 178
v -3 -8 173
v 0 -10 173
v 0 -10 175
v 3 -8 173
v 7 -5 178
v 8 -3 180
v 8 1 177
v 9 2 181
v 10 3 184
v 6 9 183
v 0 12 183
v 0 13 180
v -6 9 178
v -8 6 179
v 0 12 192
v 0 11 196
v 5 7 196
v 4 6 199
v 6 1 200
v 0 1 201
v -1 8 199
v 0 -3 169
v 0 0 163
v 4 5 166
v 4 4 171
v 3 0 171
v 2 -6 169
v 0 -8 169
v -2 -6 169
v -3 0 171
v -4 4 171
v -4 5 166
v 7 4 176
v 6 -2 172
v -6 -2 172
v -7 4 176
v 0 9 172
v 0 10 167
v 7 -1 176
v 7 2 176
v 10 6 181
v 10 4 182
v 9 4 182
v 9 4 176
v 10 6 179
v 8 6 179
v 9 6 181
v 6 9 178
v 0 11 176
v -7 -1 176
v -9 4 176
v -10 6 179

f 1 2 3
f 1 3 4
f 1 4 5
f 1 5 6
f 1 6 7
f 1 7 8
f 1 8 2
f 2 8 9
f 2 9 3
f 3 9 10
f 3 10 11
f 3 11 12
f 3 12 13
f 3 13 4
f 4 13 14
f 4 14 15
f 4 15 5
f 5 15 16
f 5 16 6
f 6 16 17
f 6 17 18
f 6 18 7
f 7 18 19
f 7 19 20
f 7 20 21
f 7 21 8
f 8 21 9
f 9 21 22
f 9 22 23
f 9 23 10
f 10 23 24
f 10 24 25
f 10 25 26
f 10 26 11
f 11 26 27
f 11 27 12
f 12 27 28
f 12 28 29
f 12 29 13
f 13 29 14
f 14 29 30
f 14 30 31
f 14 31 32
f 14 32 15
f 15 32 33
f 15 33 34
f 15 34 16
f 16 34 17
f 17 34 35
f 17 35 36
f 17 36 37
f 17 37 18
f 18 37 19
f 19 37 38
f 19 38 39
f 19 39 20
f 20 39 40
f 20 40 41
f 20 41 42
f 20 42 21
f 21 42 22
f 22 42 43
f 22 43 44
f 22 44 23
f 23 44 24
f 24 44 45
f 24 45 46
f 24 46 25
f 25 46 47
f 25 47 26
f 26 47 48
f 26 48 49
f 26 49 27
f 27 49 50
f 27 50 28
f 28 50 51
f 28 51 29
f 29 51 30
f 30 51 52
f 30 52 31
f 31 52 53
f 31 53 54
f 31 54 55
f 31 55 32
f 32 55 33
f 33 55 56
f 33 56 34
f 34 56 57
f 34 57 58
f 34 58 35
f 35 58 59
f 35 59 36
f 36 59 60
f 36 60 61
f 36 61 37
f 37 61 38
f 38 61 62
f 38 62 39
f 39 62 63
f 39 63 64
f 39 64 40
f 40 64 65
f 40 65 66
f 40 66 41
f 41 66 67
f 41 67 68
f 41 68 43
f 41 43 42
f 56 48 47
f 56 47 57
f 57 47 69
f 57 69 70
f 57 70 71
f 57 71 58
f 58 71 72
f 58 72 59
f 59 72 73
f 59 73 60
f 60 73 74
f 60 74 75
f 60 75 61
f 61 75 62
f 62 75 76
f 62 76 63
f 63 76 77
f 63 77 64
f 64 77 78
f 64 78 65
f 65 78 79
f 65 79 80
f 65 80 66
f 66 80 81
f 66 81 67
f 67 81 82
f 67 82 68
f 68 82 83
f 68 83 84
f 68 84 43
f 43 84 44
f 44 84 45
f 45 84 85
f 45 85 86
f 45 86 46
f 46 86 87
f 46 87 47
f 47 87 69
f 69 87 88
f 69 88 89
f 69 89 70
f 70 89 90
f 70 90 71
f 71 90 72
f 72 90 91
f 72 91 73
f 73 91 92
f 73 92 93
f 73 93 74
f 74 93 94
f 74 94 95
f 74 95 96
f 74 96 97
f 74 97 75
f 75 97 98
f 75 98 99
f 75 99 76
f 76 99 77
f 77 99 78
f 78 99 100
f 78 100 101
f 78 101 102
f 78 102 79
f 79 102 80
f 80 102 101
f 80 101 103
f 80 103 104
f 80 104 81
f 81 104 82
f 82 104 83
f 83 104 105
f 83 105 106
f 83 106 107
f 83 107 85
f 83 85 84
f 86 88 87
f 88 86 108
f 88 108 109
f 88 109 89
f 89 109 110
f 89 110 90
f 90 110 91
f 91 110 111
f 91 111 112
f 91 112 92
f 92 112 113
f 92 113 95
f 92 95 94
f 92 94 93
f 114 49 48
f 114 48 56
f 114 56 55
f 114 55 115
f 114 115 49
f 49 115 116
f 49 116 50
f 50 116 117
f 50 117 118
f 50 118 51
f 51 118 119
f 51 119 52
f 52 119 53
f 53 119 120
f 53 120 115
f 53 115 54
f 54 115 55
f 116 115 120
f 116 120 117
f 117 120 119
f 117 119 118
f 121 122 123
f 121 123 124
f 121 124 125
f 121 125 126
f 121 126 127
f 121 127 128
f 121 128 129
f 121 129 130
f 121 130 131
f 121 131 122
f 125 124 132
f 125 132 133
f 125 133 126
f 126 133 103
f 126 103 127
f 127 103 101
f 127 101 100
f 127 100 128
f 128 100 134
f 128 134 129
f 129 134 135
f 129 135 130
f 130 135 112
f 130 112 136
f 130 136 137
f 130 137 131
f 104 103 133
f 104 133 138
f 104 138 105
f 105 138 106
f 106 138 139
f 106 139 107
f 107 139 140
f 107 140 141
f 107 141 142
f 107 142 108
f 107 108 85
f 85 108 86
f 132 139 133
f 133 139 138
f 143 144 140
f 143 140 139
f 143 139 132
f 143 132 144
f 144 132 145
f 144 145 140
f 140 145 146
f 140 146 141
f 141 146 142
f 142 146 108
f 108 146 109
f 109 146 147
f 109 147 111
f 109 111 110
f 148 111 147
f 148 147 136
f 148 136 112
f 148 112 111
f 137 136 124
f 137 124 123
f 147 132 124
f 147 124 136
f 145 147 146
f 147 145 132
f 99 134 100
f 134 99 149
f 134 149 96
f 134 96 135
f 135 96 150
f 135 150 151
f 135 151 113
f 135 113 112
f 150 95 151
f 151 95 113
f 95 150 96
f 149 97 96
f 97 149 98
f 98 149 99
