# RS2 Model 12142
# Vertices: 181
# Faces: 318

v -8 13 163
v -10 7 167
v -9 8 173
v -6 13 171
v 0 15 170
v -3 15 161
v 0 17 159
v 5 15 161
v 8 12 163
v 5 12 170
v 9 8 173
v 9 7 167
v 11 10 163
v 14 6 163
v 8 -1 164
v 4 5 166
v 4 4 171
v 0 -3 169
v 0 0 163
v -4 5 166
v -4 4 171
v -8 -1 163
v -14 6 163
v -11 10 163
v -8 9 176
v -7 12 184
v -7 4 176
v -8 6 179
v -9 6 181
v -9 4 182
v -11 3 186
v -9 11 188
v 0 16 184
v 0 16 176
v 7 13 184
v 9 6 181
v 7 4 176
v 3 0 171
v 2 -6 169
v 0 -8 169
v -2 -6 169
v -3 0 171
v 7 -5 191
v 0 -6 193
v 0 -9 191
v 0 -11 190
v 5 -9 189
v 8 -4 187
v 11 3 186
v 8 3 192
v 2 -1 195
v -2 -1 195
v -7 -5 190
v -6 -9 188
v -3 -11 186
v 0 -12 187
v 3 -11 186
v 7 -9 186
v 10 -2 184
v 9 2 181
v 9 4 182
v 8 12 187
v 7 10 192
v 2 6 196
v -2 6 196
v -8 3 192
v -8 -6 187
v -7 -10 186
v -6 -11 181
v -8 -11 181
v -7 -10 179
v -8 -9 181
v -9 -8 179
v -9 -10 179
v -8 -8 182
v -8 -6 183
v -8 -5 179
v -8 -4 180
v -7 -4 174
v -7 -3 174
v -5 -4 169
v -8 1 177
v -10 -2 184
v -9 2 181
v -7 2 176
v -7 -1 176
v -6 -2 172
v -7 -5 178
v -8 -4 182
v -7 -5 182
v -7 -6 184
v -7 -4 185
v -6 -6 187
v -5 -5 189
v -3 -7 189
v -4 -8 187
v 0 -9 188
v -4 -9 184
v 0 -11 183
v 4 -9 184
v 4 -8 187
v 4 -7 189
v 6 -6 187
v 5 -5 189
v 7 -4 185
v 7 -6 184
v 8 -4 182
v 7 -5 182
v 7 -5 178
v 7 -1 176
v 6 -2 172
v 7 2 176
v 8 1 177
v 8 -1 175
v 6 -3 169
v 7 -2 175
v 8 -4 178
v 8 -8 182
v 7 -9 181
v 9 -7 181
v 10 -8 179
v 9 -6 179
v 7 -8 179
v 8 -6 177
v 7 -8 177
v 9 -8 177
v 0 12 193
v -7 9 193
v 0 15 190
v 10 4 182
v 10 6 181
v 8 6 179
v 10 6 179
v 9 4 176
v 3 -8 173
v 0 -10 173
v -3 -8 173
v -9 4 176
v -10 6 179
v -10 6 181
v -10 4 182
v 0 -12 183
v 2 -8 182
v 5 -7 183
v 5 -7 180
v 2 -9 176
v 0 -10 181
v 0 -12 177
v 0 -10 175
v -2 -9 176
v 9 4 179
v -2 -8 182
v -5 -7 180
v -5 -7 183
v -9 4 179
v -9 -10 177
v -7 -10 177
v -8 -8 177
v -6 -8 175
v -7 -11 175
v -6 -12 175
v -5 -10 175
v -7 -10 173
v -9 -10 173
v -7 -11 171
v -6 -12 171
v -5 -10 171
v -7 -9 173
v -6 -8 171
v -9 -8 173
v -7 -9 168
v 6 -10 175
v 8 -9 175
v 6 -6 175
v 7 -8 173
v 10 -8 173
v 8 -7 173
v 6 -10 171
v 8 -9 171
v 6 -6 171
v 7 -7 168

f 1 2 3
f 1 3 4
f 1 4 5
f 1 5 6
f 6 5 7
f 7 5 8
f 8 5 9
f 9 5 10
f 9 10 11
f 9 11 12
f 9 12 13
f 13 12 14
f 14 12 15
f 15 12 16
f 16 12 11
f 16 11 17
f 16 17 18
f 16 18 19
f 19 18 20
f 20 18 21
f 20 21 3
f 20 3 2
f 20 2 22
f 22 2 23
f 23 2 24
f 24 2 1
f 25 26 4
f 25 4 3
f 25 3 27
f 25 27 28
f 25 28 29
f 25 29 26
f 26 29 30
f 26 30 31
f 26 31 32
f 26 32 33
f 26 33 34
f 26 34 4
f 4 34 5
f 5 34 10
f 10 34 35
f 10 35 11
f 11 35 36
f 11 36 37
f 11 37 17
f 17 37 38
f 17 38 18
f 18 38 39
f 18 39 40
f 18 40 41
f 18 41 42
f 18 42 21
f 21 42 27
f 21 27 3
f 43 44 45
f 43 45 46
f 43 46 47
f 43 47 48
f 43 48 49
f 43 49 50
f 43 50 51
f 43 51 44
f 44 51 52
f 44 52 53
f 44 53 45
f 45 53 46
f 46 53 54
f 46 54 55
f 46 55 56
f 46 56 57
f 46 57 47
f 47 57 58
f 47 58 48
f 48 58 59
f 48 59 49
f 49 59 60
f 49 60 61
f 49 61 35
f 49 35 62
f 49 62 50
f 50 62 63
f 50 63 64
f 50 64 51
f 51 64 65
f 51 65 52
f 52 65 66
f 52 66 53
f 53 66 67
f 53 67 54
f 54 67 68
f 54 68 55
f 55 68 69
f 69 68 70
f 69 70 71
f 69 71 72
f 72 71 73
f 72 73 74
f 72 74 70
f 72 70 68
f 72 68 75
f 75 68 76
f 75 76 77
f 77 76 78
f 77 78 79
f 79 78 80
f 79 80 81
f 81 80 82
f 82 80 78
f 82 78 83
f 82 83 84
f 82 84 85
f 82 85 86
f 86 85 87
f 86 87 88
f 86 88 89
f 89 88 90
f 89 90 91
f 89 91 92
f 92 91 93
f 92 93 94
f 94 93 95
f 95 93 96
f 95 96 97
f 97 96 98
f 97 98 99
f 97 99 100
f 97 100 101
f 97 101 102
f 102 101 103
f 102 103 104
f 104 103 105
f 105 103 106
f 105 106 107
f 107 106 108
f 107 108 109
f 107 109 110
f 110 109 111
f 110 111 112
f 110 112 113
f 113 112 60
f 113 60 59
f 113 59 114
f 113 114 115
f 115 114 116
f 116 114 117
f 117 114 59
f 117 59 118
f 118 59 58
f 118 58 119
f 118 119 120
f 120 119 121
f 120 121 122
f 120 122 123
f 123 122 124
f 123 124 125
f 123 125 126
f 123 126 121
f 123 121 119
f 65 64 127
f 65 127 128
f 65 128 66
f 66 128 32
f 66 32 31
f 66 31 67
f 67 31 83
f 67 83 68
f 68 83 76
f 76 83 78
f 127 129 32
f 127 32 128
f 127 64 63
f 127 63 62
f 127 62 129
f 129 62 33
f 129 33 32
f 61 36 35
f 36 61 130
f 36 130 131
f 36 131 132
f 132 131 133
f 132 133 37
f 37 133 134
f 37 134 112
f 37 112 111
f 37 111 38
f 38 111 39
f 39 111 135
f 39 135 40
f 40 135 136
f 40 136 137
f 40 137 41
f 41 137 87
f 41 87 42
f 42 87 27
f 27 87 85
f 27 85 138
f 27 138 28
f 28 138 139
f 28 139 29
f 29 139 140
f 29 140 30
f 30 140 141
f 30 141 84
f 30 84 31
f 31 84 83
f 33 35 34
f 35 33 62
f 56 55 142
f 56 142 57
f 100 99 143
f 100 143 144
f 100 144 106
f 100 106 103
f 100 103 101
f 108 106 144
f 108 144 145
f 108 145 109
f 109 145 146
f 109 146 135
f 109 135 111
f 99 147 143
f 143 147 146
f 143 146 145
f 143 145 144
f 148 149 146
f 148 146 147
f 148 147 150
f 148 150 149
f 149 150 136
f 149 136 146
f 146 136 135
f 151 60 112
f 151 112 134
f 151 134 133
f 151 133 131
f 151 131 130
f 151 130 60
f 60 130 61
f 98 152 99
f 99 152 147
f 147 152 150
f 150 152 153
f 150 153 88
f 150 88 137
f 150 137 136
f 98 154 152
f 152 154 153
f 153 154 90
f 153 90 88
f 90 154 91
f 91 154 98
f 91 98 93
f 93 98 96
f 88 87 137
f 155 85 84
f 155 84 141
f 155 141 140
f 155 140 139
f 155 139 138
f 155 138 85
f 156 157 71
f 156 71 74
f 156 74 158
f 156 158 159
f 156 159 160
f 156 160 157
f 157 160 161
f 157 161 162
f 157 162 159
f 157 159 158
f 157 158 73
f 157 73 71
f 163 161 160
f 163 160 164
f 163 164 165
f 163 165 166
f 163 166 167
f 163 167 168
f 163 168 162
f 163 162 161
f 169 166 165
f 169 165 164
f 169 164 170
f 169 170 168
f 169 168 167
f 169 167 171
f 169 171 166
f 166 171 167
f 125 172 173
f 125 173 126
f 126 173 174
f 126 174 124
f 126 124 121
f 121 124 122
f 173 172 175
f 173 175 176
f 173 176 174
f 174 176 177
f 174 177 175
f 174 175 172
f 174 172 124
f 124 172 125
f 175 178 179
f 175 179 176
f 176 179 180
f 176 180 177
f 177 180 175
f 175 180 178
f 178 180 181
f 178 181 179
f 179 181 180
f 158 74 73
f 164 160 159
f 164 159 170
f 170 159 168
f 168 159 162
f 70 74 71
f 119 58 57
