# RS2 Model 1216
# Vertices: 296
# Faces: 442

v 104 40 16
v -104 40 16
v -104 -40 16
v 104 -40 16
v 104 40 8
v -104 40 8
v -104 -40 8
v 104 -40 8
v 112 48 8
v -112 48 8
v -112 -48 8
v 112 -48 8
v 112 48 0
v -112 48 0
v -112 -48 0
v 112 -48 0
v 100 23 66
v 96 15 66
v 96 15 16
v 100 23 16
v 96 31 66
v 96 31 16
v 88 35 66
v 88 35 16
v 80 31 66
v 80 31 16
v 76 23 66
v 76 23 16
v 80 15 66
v 80 15 16
v 88 11 66
v 88 11 16
v -76 -25 16
v -80 -33 16
v -80 -33 66
v -76 -25 66
v -80 -17 16
v -80 -17 66
v -88 -37 16
v -88 -37 66
v -96 -33 16
v -96 -33 66
v -100 -25 16
v -100 -25 66
v -96 -17 16
v -96 -17 66
v -88 -13 16
v -88 -13 66
v -76 23 66
v -80 15 66
v -80 15 16
v -76 23 16
v -80 31 66
v -80 31 16
v -88 35 66
v -88 35 16
v -96 31 66
v -96 31 16
v -100 23 66
v -100 23 16
v -96 15 66
v -96 15 16
v -88 11 66
v -88 11 16
v 64 -40 104
v 104 -40 104
v 104 40 104
v 64 40 104
v 56 40 104
v 56 -40 104
v 56 -48 88
v 64 -48 88
v 112 -48 88
v 112 48 88
v 64 48 88
v 56 48 88
v -56 40 104
v -56 -40 104
v -56 -48 88
v 56 -56 24
v 64 -56 16
v -112 -48 88
v -64 -48 88
v -64 -40 104
v -104 -40 104
v -112 48 88
v -104 40 104
v -64 48 88
v -64 40 104
v -56 48 88
v -64 56 16
v -56 56 24
v 56 56 24
v 64 56 16
v -56 -56 24
v -64 -56 16
v 100 -25 66
v 96 -33 66
v 96 -33 16
v 100 -25 16
v 96 -17 66
v 96 -17 16
v 88 -13 66
v 88 -13 16
v 80 -17 66
v 80 -17 16
v 76 -25 66
v 76 -25 16
v 80 -33 66
v 80 -33 16
v 88 -37 66
v 88 -37 16
v 109 -23 84
v 95 -11 84
v 95 -34 90
v 107 -27 82
v 107 -25 78
v 104 -19 70
v 95 -11 70
v 78 -12 70
v 78 -12 84
v 73 -28 84
v 80 -45 84
v 85 -44 82
v 96 -36 84
v 99 -33 80
v 102 -31 76
v 101 -37 70
v 103 -28 66
v 96 -36 68
v 87 -40 66
v 89 -36 56
v 98 -29 56
v 73 -28 70
v 78 -39 69
v 82 -44 78
v 93 -38 80
v 96 -36 80
v 95 -41 70
v 89 -41 76
v 95 32 90
v 95 9 84
v 109 21 84
v 107 25 82
v 96 34 84
v 85 42 82
v 80 43 84
v 73 26 84
v 78 10 84
v 95 9 70
v 104 17 70
v 107 23 78
v 99 31 80
v 96 34 80
v 93 36 80
v 82 42 78
v 78 37 69
v 73 26 70
v 78 10 70
v 102 29 76
v 101 35 70
v 95 39 70
v 89 39 76
v 87 38 66
v 96 34 68
v 103 26 66
v 98 27 56
v 89 34 56
v -95 -34 90
v -95 -11 84
v -109 -23 84
v -107 -27 82
v -96 -36 84
v -85 -44 82
v -80 -45 84
v -73 -28 84
v -78 -12 84
v -95 -11 70
v -104 -19 70
v -107 -25 78
v -99 -33 80
v -96 -36 80
v -93 -38 80
v -82 -44 78
v -78 -39 69
v -73 -28 70
v -78 -12 70
v -102 -31 76
v -101 -37 70
v -95 -41 70
v -89 -41 76
v -87 -40 66
v -96 -36 68
v -103 -28 66
v -98 -29 56
v -89 -36 56
v -109 21 84
v -95 9 84
v -95 32 90
v -107 25 82
v -107 23 78
v -104 17 70
v -95 9 70
v -78 10 70
v -78 10 84
v -73 26 84
v -80 43 84
v -85 42 82
v -96 34 84
v -99 31 80
v -102 29 76
v -101 35 70
v -103 26 66
v -96 34 68
v -87 38 66
v -89 34 56
v -98 27 56
v -73 26 70
v -78 37 69
v -82 42 78
v -93 36 80
v -96 34 80
v -95 39 70
v -89 39 76
v 0 -26 112
v 8 -26 112
v 6 -16 128
v 2 -16 128
v 0 -18 112
v -8 -26 104
v 0 -34 104
v 8 -34 104
v 16 -26 104
v 8 -18 112
v 6 -12 128
v 8 -16 140
v 8 -20 140
v 2 -12 128
v 0 -16 140
v 0 -16 144
v 8 -16 144
v 26 -22 144
v 24 -22 140
v 30 -36 144
v 30 -36 140
v 24 -36 140
v 26 -36 144
v 20 -26 144
v 20 -26 140
v 8 -20 144
v 0 -20 140
v 8 -10 104
v 0 -10 104
v -8 -18 104
v 16 -18 104
v 0 -20 144
v -18 -22 144
v -12 -26 144
v -12 -26 140
v -22 -36 144
v -18 -36 144
v -16 -36 140
v -22 -36 140
v -16 -22 140
v 4 -40 146
v -4 -40 156
v -4 -40 146
v 4 -40 142
v 12 -40 156
v 4 -32 146
v -4 -32 156
v -18 -32 146
v -18 -40 146
v -10 -40 144
v -10 -40 138
v -10 -32 144
v -10 -32 138
v -14 -32 134
v -4 -32 146
v 4 -32 142
v 12 -32 146
v 12 -32 156
v 26 -32 146
v 18 -32 144
v 18 -32 138
v 18 -40 144
v 18 -40 138
v 22 -40 134
v 26 -40 146
v 12 -40 146
v -14 -40 134
v -4 -40 134
v -4 -32 134
v 12 -40 134
v 12 -32 134
v 22 -32 134

f 1 2 3
f 1 3 4
f 1 4 5
f 1 5 6
f 1 6 2
f 2 6 7
f 2 7 3
f 3 7 4
f 4 7 8
f 4 8 5
f 9 10 11
f 9 11 12
f 9 12 13
f 9 13 14
f 9 14 10
f 10 14 11
f 11 14 15
f 11 15 12
f 12 15 16
f 12 16 13
f 17 18 19
f 17 19 20
f 17 20 21
f 21 20 22
f 21 22 23
f 23 22 24
f 23 24 25
f 25 24 26
f 25 26 27
f 27 26 28
f 27 28 29
f 29 28 30
f 29 30 31
f 31 30 32
f 31 32 18
f 18 32 19
f 33 34 35
f 33 35 36
f 33 36 37
f 33 37 38
f 33 38 36
f 33 36 34
f 34 36 35
f 34 35 39
f 34 39 40
f 34 40 35
f 35 40 39
f 39 40 41
f 39 41 42
f 39 42 40
f 40 42 41
f 41 42 43
f 41 43 44
f 41 44 42
f 42 44 43
f 43 44 45
f 43 45 46
f 43 46 44
f 44 46 45
f 45 46 47
f 45 47 48
f 45 48 46
f 46 48 47
f 47 48 37
f 47 37 38
f 47 38 48
f 48 38 37
f 37 36 38
f 49 50 51
f 49 51 52
f 49 52 53
f 53 52 54
f 53 54 55
f 55 54 56
f 55 56 57
f 57 56 58
f 57 58 59
f 59 58 60
f 59 60 61
f 61 60 62
f 61 62 63
f 63 62 64
f 63 64 50
f 50 64 51
f 65 66 67
f 65 67 68
f 65 68 69
f 65 69 70
f 65 70 71
f 65 71 72
f 65 72 66
f 66 72 73
f 66 73 67
f 67 73 74
f 67 74 68
f 68 74 75
f 68 75 69
f 69 75 76
f 69 76 77
f 69 77 70
f 70 77 78
f 70 78 79
f 70 79 71
f 71 79 80
f 71 80 81
f 71 81 72
f 82 83 84
f 82 84 85
f 82 85 86
f 86 85 87
f 86 87 88
f 88 87 89
f 88 89 90
f 88 90 91
f 91 90 92
f 91 92 93
f 91 93 94
f 94 93 75
f 75 93 76
f 76 93 90
f 76 90 77
f 77 90 89
f 77 89 78
f 78 89 84
f 78 84 83
f 78 83 79
f 79 83 95
f 79 95 80
f 80 95 81
f 81 95 96
f 96 95 83
f 85 84 89
f 85 89 87
f 97 98 99
f 97 99 100
f 97 100 101
f 101 100 102
f 101 102 103
f 103 102 104
f 103 104 105
f 105 104 106
f 105 106 107
f 107 106 108
f 107 108 109
f 109 108 110
f 109 110 111
f 111 110 112
f 111 112 98
f 98 112 99
f 113 114 115
f 113 115 116
f 113 116 117
f 113 117 118
f 113 118 119
f 113 119 114
f 114 119 120
f 114 120 121
f 114 121 115
f 115 121 122
f 115 122 123
f 115 123 124
f 115 124 125
f 115 125 116
f 116 125 126
f 116 126 117
f 117 126 127
f 117 127 118
f 118 127 128
f 118 128 129
f 129 128 130
f 129 130 131
f 129 131 132
f 129 132 133
f 121 120 134
f 121 134 122
f 122 134 135
f 122 135 123
f 123 135 136
f 123 136 124
f 124 136 137
f 124 137 125
f 125 137 138
f 125 138 126
f 126 138 128
f 126 128 127
f 138 139 128
f 128 139 130
f 130 139 131
f 131 139 135
f 135 139 140
f 135 140 136
f 136 140 137
f 137 140 139
f 137 139 138
f 141 142 143
f 141 143 144
f 141 144 145
f 141 145 146
f 141 146 147
f 141 147 148
f 141 148 149
f 141 149 142
f 142 149 150
f 142 150 151
f 142 151 143
f 143 151 152
f 143 152 144
f 144 152 153
f 144 153 145
f 145 153 154
f 145 154 155
f 145 155 146
f 146 155 156
f 146 156 147
f 147 156 157
f 147 157 158
f 147 158 148
f 148 158 159
f 148 159 149
f 149 159 150
f 152 160 153
f 153 160 161
f 153 161 154
f 154 161 162
f 154 162 155
f 155 162 163
f 155 163 156
f 156 163 157
f 157 163 162
f 157 162 164
f 164 162 165
f 164 165 166
f 164 166 167
f 164 167 168
f 152 151 160
f 160 151 161
f 161 151 166
f 161 166 165
f 161 165 162
f 169 170 171
f 169 171 172
f 169 172 173
f 169 173 174
f 169 174 175
f 169 175 176
f 169 176 177
f 169 177 170
f 170 177 178
f 170 178 179
f 170 179 171
f 171 179 180
f 171 180 172
f 172 180 181
f 172 181 173
f 173 181 182
f 173 182 183
f 173 183 174
f 174 183 184
f 174 184 175
f 175 184 185
f 175 185 186
f 175 186 176
f 176 186 187
f 176 187 177
f 177 187 178
f 180 188 181
f 181 188 189
f 181 189 182
f 182 189 190
f 182 190 183
f 183 190 191
f 183 191 184
f 184 191 185
f 185 191 190
f 185 190 192
f 192 190 193
f 192 193 194
f 192 194 195
f 192 195 196
f 180 179 188
f 188 179 189
f 189 179 194
f 189 194 193
f 189 193 190
f 197 198 199
f 197 199 200
f 197 200 201
f 197 201 202
f 197 202 203
f 197 203 198
f 198 203 204
f 198 204 205
f 198 205 199
f 199 205 206
f 199 206 207
f 199 207 208
f 199 208 209
f 199 209 200
f 200 209 210
f 200 210 201
f 201 210 211
f 201 211 202
f 202 211 212
f 202 212 213
f 213 212 214
f 213 214 215
f 213 215 216
f 213 216 217
f 205 204 218
f 205 218 206
f 206 218 219
f 206 219 207
f 207 219 220
f 207 220 208
f 208 220 221
f 208 221 209
f 209 221 222
f 209 222 210
f 210 222 212
f 210 212 211
f 222 223 212
f 212 223 214
f 214 223 215
f 215 223 219
f 219 223 224
f 219 224 220
f 220 224 221
f 221 224 223
f 221 223 222
f 93 92 90
f 225 226 227
f 225 227 228
f 225 228 229
f 225 229 230
f 225 230 231
f 225 231 226
f 226 231 232
f 226 232 233
f 226 233 234
f 226 234 227
f 227 234 235
f 227 235 236
f 227 236 237
f 227 237 228
f 227 228 235
f 235 228 238
f 235 238 239
f 235 239 236
f 236 239 240
f 236 240 241
f 236 241 242
f 236 242 243
f 243 242 244
f 243 244 245
f 245 244 246
f 246 244 247
f 246 247 248
f 246 248 249
f 249 248 237
f 237 248 250
f 237 250 251
f 237 251 228
f 228 251 238
f 228 238 229
f 229 238 235
f 229 235 234
f 229 234 252
f 229 252 253
f 229 253 254
f 229 254 230
f 233 255 234
f 234 255 252
f 238 251 239
f 256 250 241
f 256 241 240
f 256 240 257
f 256 257 258
f 256 258 259
f 256 259 251
f 256 251 250
f 241 250 248
f 241 248 242
f 242 248 247
f 242 247 244
f 258 257 260
f 258 260 261
f 258 261 259
f 259 261 262
f 262 261 260
f 262 260 263
f 263 260 257
f 263 257 264
f 264 257 240
f 264 240 239
f 265 266 267
f 265 267 268
f 265 268 269
f 265 269 270
f 265 270 271
f 265 271 266
f 266 271 272
f 266 272 273
f 266 273 267
f 267 273 274
f 274 273 275
f 274 275 276
f 276 275 277
f 276 277 278
f 276 278 272
f 276 272 271
f 276 271 279
f 279 271 280
f 280 271 270
f 280 270 281
f 281 270 282
f 281 282 283
f 281 283 284
f 284 283 285
f 284 285 286
f 286 285 287
f 286 287 288
f 286 288 289
f 286 289 269
f 286 269 290
f 290 269 268
f 273 291 275
f 275 291 292
f 275 292 277
f 277 292 293
f 277 293 278
f 287 294 288
f 294 287 295
f 295 287 285
f 295 285 296
f 296 285 283
f 296 283 289
f 296 289 288
f 272 278 291
f 272 291 273
f 289 283 282
f 289 282 269
f 269 282 270
