# RS2 Model 12185
# Vertices: 146
# Faces: 222

v -85 16 30
v -99 16 30
v -99 -47 30
v -85 -47 30
v -87 17 22
v -86 30 26
v -81 27 84
v -81 10 84
v -93 10 84
v -99 30 26
v -100 17 22
v -100 -49 22
v -99 -62 27
v -93 -59 84
v -93 -44 84
v -81 -44 84
v -86 -62 27
v -87 -49 22
v -93 27 84
v -90 38 0
v -104 38 0
v -104 23 0
v -90 23 0
v -81 -59 84
v -104 -70 0
v -90 -70 0
v -104 -55 0
v -90 -55 0
v 79 -47 30
v 93 -47 30
v 93 16 30
v 79 16 30
v 81 17 22
v 81 -49 22
v 80 -62 27
v 75 -59 84
v 75 -44 84
v 87 -44 84
v 93 -62 27
v 94 -49 22
v 94 17 22
v 93 30 26
v 87 27 84
v 87 10 84
v 75 10 84
v 80 30 26
v 84 23 0
v 98 23 0
v 98 38 0
v 75 27 84
v 84 38 0
v 87 -59 84
v 84 -70 0
v 98 -70 0
v 98 -55 0
v 84 -55 0
v 25 -2 83
v 72 -2 83
v 72 -2 63
v 25 -2 63
v 25 -66 83
v 72 -66 83
v 72 -66 63
v 25 -66 63
v 26 -66 64
v 26 -66 82
v 71 -66 82
v 71 -66 64
v 71 -70 82
v 71 -70 64
v 26 -70 64
v 26 -70 82
v -104 12 93
v -104 39 85
v -104 -65 85
v -104 -40 93
v -60 12 93
v -104 12 96
v -104 39 93
v -3 39 84
v -3 39 93
v 102 39 85
v 102 39 93
v 102 12 93
v 102 -40 93
v 102 -65 85
v 102 -65 93
v 1 -64 86
v 1 -64 93
v -104 -65 93
v -104 -65 96
v -104 -40 96
v -60 -40 96
v -60 -40 93
v -60 12 96
v -3 39 95
v -104 39 96
v 102 39 96
v 102 12 96
v 58 12 95
v 58 12 93
v 58 -40 93
v 102 -40 96
v 102 -65 96
v 1 -64 95
v 58 -40 95
v -70 -2 83
v -23 -2 83
v -23 -2 63
v -70 -2 63
v -70 -66 83
v -23 -66 83
v -23 -66 63
v -70 -66 63
v -69 -66 64
v -69 -66 82
v -24 -66 82
v -24 -66 64
v -24 -70 82
v -24 -70 64
v -69 -70 64
v -69 -70 82
v -70 -2 61
v -23 -2 61
v -23 -2 41
v -70 -2 41
v -70 -66 61
v -23 -66 61
v -23 -66 41
v -70 -66 41
v -69 -66 42
v -69 -66 60
v -24 -66 60
v -24 -66 42
v -24 -70 60
v -24 -70 42
v -69 -70 42
v -69 -70 60
v 34 25 133
v -43 25 133
v -43 14 99
v 34 14 99
v 34 30 131
v -43 30 131
v -43 18 97
v 34 18 97

f 1 2 3
f 1 3 4
f 1 4 5
f 1 5 6
f 1 6 7
f 1 7 8
f 1 8 2
f 2 8 9
f 2 9 10
f 2 10 11
f 2 11 12
f 2 12 3
f 3 12 13
f 3 13 14
f 3 14 15
f 3 15 4
f 4 15 16
f 4 16 17
f 4 17 18
f 4 18 5
f 19 7 6
f 19 6 10
f 19 10 9
f 10 6 20
f 10 20 21
f 10 21 11
f 11 21 22
f 11 22 5
f 5 22 23
f 5 23 20
f 5 20 6
f 13 17 24
f 13 24 14
f 17 16 24
f 25 26 17
f 25 17 13
f 25 13 27
f 27 13 12
f 27 12 28
f 28 12 18
f 28 18 17
f 28 17 26
f 29 30 31
f 29 31 32
f 29 32 33
f 29 33 34
f 29 34 35
f 29 35 36
f 29 36 37
f 29 37 30
f 30 37 38
f 30 38 39
f 30 39 40
f 30 40 31
f 31 40 41
f 31 41 42
f 31 42 43
f 31 43 44
f 31 44 32
f 32 44 45
f 32 45 46
f 32 46 33
f 33 46 47
f 33 47 41
f 41 47 48
f 41 48 42
f 42 48 49
f 42 49 46
f 42 46 50
f 42 50 43
f 46 45 50
f 49 51 46
f 46 51 47
f 52 36 35
f 52 35 39
f 52 39 38
f 39 35 53
f 39 53 54
f 39 54 40
f 40 54 55
f 40 55 34
f 34 55 56
f 34 56 53
f 34 53 35
f 57 58 59
f 57 59 60
f 57 60 61
f 57 61 58
f 58 61 62
f 58 62 63
f 58 63 59
f 61 60 64
f 61 64 65
f 61 65 66
f 61 66 62
f 62 66 67
f 62 67 63
f 63 67 68
f 68 67 69
f 68 69 70
f 70 69 71
f 71 69 72
f 71 72 66
f 71 66 65
f 67 66 72
f 67 72 69
f 73 74 75
f 73 75 76
f 73 76 77
f 73 77 78
f 73 78 79
f 73 79 74
f 74 79 80
f 80 79 81
f 80 81 82
f 82 81 83
f 82 83 84
f 82 84 85
f 82 85 86
f 86 85 87
f 86 87 88
f 88 87 89
f 88 89 75
f 75 89 90
f 75 90 76
f 76 90 91
f 76 91 92
f 76 92 93
f 76 93 94
f 76 94 77
f 77 94 95
f 77 95 78
f 78 95 96
f 78 96 97
f 78 97 79
f 79 97 81
f 81 97 96
f 81 96 83
f 83 96 98
f 83 98 84
f 84 98 99
f 84 99 100
f 84 100 101
f 84 101 102
f 84 102 85
f 85 102 103
f 85 103 87
f 87 103 104
f 87 104 89
f 89 104 105
f 89 105 90
f 90 105 91
f 91 105 92
f 92 105 93
f 93 105 96
f 93 96 95
f 93 95 94
f 103 102 106
f 103 106 105
f 103 105 104
f 101 100 106
f 101 106 102
f 99 98 96
f 99 96 100
f 100 96 105
f 100 105 106
f 107 108 109
f 107 109 110
f 107 110 111
f 107 111 108
f 108 111 112
f 108 112 113
f 108 113 109
f 111 110 114
f 111 114 115
f 111 115 116
f 111 116 112
f 112 116 117
f 112 117 113
f 113 117 118
f 118 117 119
f 118 119 120
f 120 119 121
f 121 119 122
f 121 122 116
f 121 116 115
f 117 116 122
f 117 122 119
f 123 124 125
f 123 125 126
f 123 126 127
f 123 127 124
f 124 127 128
f 124 128 129
f 124 129 125
f 127 126 130
f 127 130 131
f 127 131 132
f 127 132 128
f 128 132 133
f 128 133 129
f 129 133 134
f 134 133 135
f 134 135 136
f 136 135 137
f 137 135 138
f 137 138 132
f 137 132 131
f 133 132 138
f 133 138 135
f 139 140 141
f 139 141 142
f 139 142 143
f 139 143 140
f 140 143 144
f 140 144 145
f 140 145 141
f 141 145 142
f 142 145 146
f 142 146 143
f 143 146 144
f 144 146 145
