# RS2 Model 1232
# Vertices: 128
# Faces: 205

v -29 44 114
v -29 49 114
v -21 49 114
v -21 44 114
v -29 44 132
v -29 49 134
v -21 49 134
v -21 44 132
v -23 44 129
v -23 42 119
v -27 42 119
v -27 44 129
v -23 -73 134
v -23 -73 119
v -27 -73 119
v -27 -73 134
v -25 -91 127
v -21 86 127
v -21 86 118
v -25 91 123
v -29 86 127
v -23 76 125
v -23 76 122
v -27 76 122
v -29 86 118
v -27 76 125
v -23 49 127
v -23 49 121
v -27 49 127
v -27 49 121
v -21 -45 140
v -21 -50 140
v -29 -50 140
v -29 -45 140
v -21 -45 158
v -21 -50 160
v -29 -50 160
v -29 -45 158
v -27 -45 155
v -27 -43 145
v -23 -43 145
v -23 -45 155
v -27 72 160
v -27 72 145
v -23 72 145
v -23 72 160
v -25 90 153
v -25 -92 149
v -21 -87 144
v -21 -87 153
v -29 -87 153
v -29 -87 144
v -23 -77 148
v -23 -77 151
v -27 -77 151
v -27 -77 148
v -23 -50 147
v -23 -50 153
v -27 -50 153
v -27 -50 147
v 4 17 126
v 4 27 128
v 0 27 128
v 0 17 126
v 4 8 132
v 4 6 125
v 4 14 123
v 4 29 125
v 0 29 125
v 0 14 123
v 4 3 130
v 0 8 132
v 0 3 130
v 0 6 125
v 0 -17 126
v 0 -27 128
v 4 -27 128
v 4 -17 126
v 0 -8 132
v 4 -8 132
v 0 -3 130
v 4 -3 130
v 0 -6 125
v 4 -6 125
v 0 -14 123
v 4 -14 123
v 0 -29 125
v 4 -29 125
v 0 -8 112
v 0 -4 108
v 0 -4 172
v 0 -8 168
v 0 -108 168
v 0 -108 112
v 0 -112 108
v 0 -120 96
v 0 120 96
v 0 4 108
v 0 4 172
v 0 -16 180
v 0 -120 180
v 0 -112 172
v -8 -120 96
v -8 -120 180
v -64 -120 96
v -64 -120 180
v -64 120 96
v -64 120 180
v -8 120 96
v -8 120 180
v 0 120 180
v 0 112 172
v 0 112 108
v 0 108 112
v 0 8 112
v 0 8 168
v 0 108 168
v 0 16 180
v -8 -16 180
v -44 0 172
v -44 -112 172
v -44 -112 108
v -44 0 108
v -44 112 172
v -44 112 108
v -8 16 180
v -64 -16 180
v -64 16 180

f 1 2 3
f 1 3 4
f 1 4 5
f 1 5 2
f 2 5 6
f 2 6 7
f 2 7 3
f 3 7 4
f 4 7 8
f 4 8 5
f 5 8 6
f 6 8 7
f 9 10 11
f 9 11 12
f 9 12 13
f 9 13 10
f 10 13 14
f 10 14 15
f 10 15 11
f 11 15 12
f 12 15 16
f 12 16 13
f 13 16 17
f 13 17 14
f 14 17 15
f 15 17 16
f 18 19 20
f 18 20 21
f 18 21 22
f 18 22 19
f 19 22 23
f 19 23 24
f 19 24 25
f 19 25 20
f 20 25 21
f 21 25 24
f 21 24 26
f 21 26 22
f 22 26 23
f 23 26 24
f 27 28 23
f 27 23 22
f 27 22 29
f 29 22 26
f 29 26 30
f 30 26 24
f 30 24 28
f 28 24 23
f 31 32 33
f 31 33 34
f 31 34 35
f 31 35 32
f 32 35 36
f 32 36 37
f 32 37 33
f 33 37 34
f 34 37 38
f 34 38 35
f 35 38 36
f 36 38 37
f 39 40 41
f 39 41 42
f 39 42 43
f 39 43 40
f 40 43 44
f 40 44 45
f 40 45 41
f 41 45 42
f 42 45 46
f 42 46 43
f 43 46 47
f 43 47 44
f 44 47 45
f 45 47 46
f 48 49 50
f 48 50 51
f 48 51 52
f 48 52 49
f 49 52 53
f 49 53 50
f 50 53 54
f 50 54 55
f 50 55 51
f 51 55 52
f 52 55 56
f 52 56 53
f 53 56 54
f 54 56 55
f 54 53 57
f 54 57 58
f 54 58 55
f 55 58 59
f 55 59 56
f 56 59 60
f 56 60 53
f 53 60 57
f 61 62 63
f 61 63 64
f 61 64 65
f 61 65 66
f 61 66 67
f 61 67 62
f 62 67 68
f 62 68 69
f 62 69 63
f 68 67 70
f 68 70 69
f 71 65 72
f 71 72 73
f 71 73 66
f 71 66 65
f 65 64 72
f 67 66 74
f 67 74 70
f 66 73 74
f 75 76 77
f 75 77 78
f 75 78 79
f 79 78 80
f 79 80 81
f 81 80 82
f 81 82 83
f 83 82 84
f 83 84 85
f 85 84 86
f 85 86 87
f 87 86 88
f 87 88 76
f 76 88 77
f 77 88 78
f 78 88 86
f 78 86 82
f 78 82 80
f 82 86 84
f 89 90 91
f 89 91 92
f 89 92 93
f 89 93 94
f 89 94 95
f 89 95 90
f 90 95 96
f 90 96 97
f 90 97 98
f 90 98 91
f 91 98 99
f 91 99 100
f 91 100 101
f 91 101 102
f 91 102 92
f 92 102 93
f 93 102 94
f 94 102 95
f 95 102 96
f 96 102 101
f 96 101 103
f 103 101 104
f 103 104 105
f 105 104 106
f 105 106 107
f 107 106 108
f 107 108 109
f 109 108 110
f 109 110 97
f 97 110 111
f 97 111 112
f 97 112 113
f 97 113 98
f 98 113 114
f 98 114 115
f 98 115 99
f 99 115 116
f 99 116 117
f 99 117 112
f 99 112 118
f 99 118 100
f 100 118 119
f 100 119 104
f 100 104 101
f 114 113 112
f 114 112 117
f 114 117 116
f 114 116 115
f 120 121 122
f 120 122 123
f 120 123 124
f 124 123 125
f 124 125 112
f 112 125 113
f 113 125 98
f 98 125 123
f 98 123 90
f 90 123 95
f 95 123 122
f 95 122 102
f 102 122 121
f 118 112 111
f 118 111 126
f 118 126 119
f 119 126 127
f 119 127 106
f 119 106 104
f 127 126 128
f 128 126 110
f 128 110 108
f 126 111 110
