# RS2 Model 1235
# Vertices: 136
# Faces: 244

v -27 27 44
v -24 24 12
v -32 0 12
v -36 0 44
v -36 0 52
v -27 27 52
v 0 36 44
v 0 32 12
v 0 24 0
v -18 18 0
v -24 0 0
v -24 -24 12
v -27 -27 44
v -27 -27 52
v -32 0 84
v -24 24 84
v 0 32 84
v 0 36 52
v 27 27 44
v 24 24 12
v 18 18 0
v 36 0 44
v 32 0 12
v 27 27 52
v 36 0 52
v 27 -27 44
v 24 -24 12
v 18 -18 0
v 24 0 0
v 0 -36 44
v 0 -32 12
v 27 -27 52
v 0 -36 52
v -18 -18 0
v 0 -24 0
v -24 -24 84
v 0 -32 84
v 0 -24 96
v -18 -18 96
v 24 24 84
v 0 24 96
v 18 18 96
v 32 0 84
v 24 -24 84
v 18 -18 96
v 0 -20 96
v -14 -15 96
v -20 0 96
v -24 0 96
v -18 18 96
v 0 19 96
v 15 15 96
v 19 0 96
v 24 0 96
v 15 -15 96
v 0 -20 65
v -14 -15 65
v -20 0 65
v -14 15 65
v -14 15 96
v 0 19 65
v 15 15 65
v 19 0 65
v 15 -15 65
v -22 2 136
v -29 3 157
v -27 10 157
v -21 5 138
v -16 8 124
v -12 5 124
v -21 0 137
v -26 1 156
v -23 9 157
v -19 4 138
v -10 11 125
v -14 13 125
v -3 4 89
v -1 2 89
v 0 5 90
v -2 6 89
v 8 5 60
v 9 4 59
v 11 7 59
v 8 8 58
v 20 9 21
v 17 3 20
v 24 1 22
v 26 6 22
v -11 17 141
v -10 24 162
v -3 22 162
v -8 16 143
v -5 11 129
v -8 7 129
v -13 16 142
v -12 21 161
v -4 18 162
v -9 14 143
v -2 5 130
v 0 9 130
v -9 -2 94
v -11 -4 94
v -8 -5 95
v -7 -3 94
v -8 -13 65
v -9 -14 64
v -6 -16 64
v -5 -13 63
v -4 -25 26
v -10 -22 25
v -12 -29 27
v -7 -31 27
v -8 -21 133
v -12 -27 154
v -17 -21 154
v -10 -19 135
v -10 -13 121
v -5 -11 121
v -5 -21 134
v -9 -25 153
v -14 -19 154
v -8 -18 135
v -9 -6 122
v -13 -9 122
v 0 -4 86
v 3 -3 86
v 1 -1 87
v -1 -2 86
v 5 6 57
v 7 6 56
v 5 10 56
v 3 8 55
v 8 18 18
v 12 13 17
v 17 18 19
v 14 22 19

f 1 2 3
f 1 3 4
f 1 4 5
f 1 5 6
f 1 6 7
f 1 7 2
f 2 7 8
f 2 8 9
f 2 9 10
f 2 10 3
f 3 10 11
f 3 11 12
f 3 12 4
f 4 12 13
f 4 13 14
f 4 14 5
f 5 14 15
f 5 15 16
f 5 16 6
f 6 16 17
f 6 17 18
f 6 18 7
f 7 18 19
f 7 19 8
f 8 19 20
f 8 20 21
f 8 21 9
f 22 23 20
f 22 20 19
f 22 19 24
f 22 24 25
f 22 25 26
f 22 26 23
f 23 26 27
f 23 27 28
f 23 28 29
f 23 29 20
f 20 29 21
f 30 31 27
f 30 27 26
f 30 26 32
f 30 32 33
f 30 33 13
f 30 13 31
f 31 13 12
f 31 12 34
f 31 34 35
f 31 35 27
f 27 35 28
f 36 14 33
f 36 33 37
f 36 37 38
f 36 38 39
f 36 39 15
f 36 15 14
f 40 24 18
f 40 18 17
f 40 17 41
f 40 41 42
f 40 42 43
f 40 43 24
f 24 43 25
f 25 43 44
f 25 44 32
f 25 32 26
f 37 33 32
f 37 32 44
f 37 44 45
f 37 45 38
f 38 45 46
f 38 46 47
f 38 47 39
f 39 47 48
f 39 48 49
f 39 49 15
f 15 49 16
f 16 49 50
f 16 50 17
f 17 50 41
f 41 50 51
f 41 51 52
f 41 52 42
f 42 52 53
f 42 53 54
f 42 54 43
f 43 54 44
f 44 54 45
f 45 54 55
f 45 55 46
f 46 55 56
f 46 56 57
f 46 57 47
f 47 57 58
f 47 58 48
f 48 58 59
f 48 59 60
f 48 60 49
f 49 60 50
f 50 60 51
f 51 60 61
f 51 61 62
f 51 62 52
f 52 62 63
f 52 63 53
f 53 63 64
f 53 64 55
f 53 55 54
f 33 14 13
f 18 24 19
f 12 11 34
f 56 55 64
f 60 59 61
f 65 66 67
f 65 67 68
f 65 68 69
f 65 69 70
f 65 70 71
f 65 71 66
f 66 71 72
f 66 72 67
f 67 72 73
f 67 73 74
f 67 74 68
f 68 74 75
f 68 75 76
f 68 76 69
f 69 76 77
f 69 77 70
f 70 77 78
f 70 78 79
f 70 79 75
f 70 75 71
f 71 75 74
f 71 74 72
f 72 74 73
f 76 80 77
f 77 80 81
f 77 81 78
f 78 81 82
f 78 82 83
f 78 83 79
f 79 83 84
f 79 84 80
f 79 80 75
f 75 80 76
f 84 85 86
f 84 86 81
f 84 81 80
f 81 84 83
f 81 83 82
f 82 87 88
f 82 88 83
f 83 88 85
f 83 85 84
f 86 87 82
f 86 82 81
f 89 90 91
f 89 91 92
f 89 92 93
f 89 93 94
f 89 94 95
f 89 95 90
f 90 95 96
f 90 96 91
f 91 96 97
f 91 97 98
f 91 98 92
f 92 98 99
f 92 99 100
f 92 100 93
f 93 100 101
f 93 101 94
f 94 101 102
f 94 102 103
f 94 103 99
f 94 99 95
f 95 99 98
f 95 98 96
f 96 98 97
f 100 104 101
f 101 104 105
f 101 105 102
f 102 105 106
f 102 106 107
f 102 107 103
f 103 107 108
f 103 108 104
f 103 104 99
f 99 104 100
f 108 109 110
f 108 110 105
f 108 105 104
f 105 108 107
f 105 107 106
f 106 111 112
f 106 112 107
f 107 112 109
f 107 109 108
f 110 111 106
f 110 106 105
f 113 114 115
f 113 115 116
f 113 116 117
f 113 117 118
f 113 118 119
f 113 119 114
f 114 119 120
f 114 120 115
f 115 120 121
f 115 121 122
f 115 122 116
f 116 122 123
f 116 123 124
f 116 124 117
f 117 124 125
f 117 125 118
f 118 125 126
f 118 126 127
f 118 127 123
f 118 123 119
f 119 123 122
f 119 122 120
f 120 122 121
f 124 128 125
f 125 128 129
f 125 129 126
f 126 129 130
f 126 130 131
f 126 131 127
f 127 131 132
f 127 132 128
f 127 128 123
f 123 128 124
f 132 133 134
f 132 134 129
f 132 129 128
f 129 132 131
f 129 131 130
f 130 135 136
f 130 136 131
f 131 136 133
f 131 133 132
f 134 135 130
f 134 130 129
