# RS2 Model 12395
# Vertices: 322
# Faces: 572

v 97 91 0
v 122 91 0
v 122 91 8
v 97 91 8
v 97 112 0
v 97 112 8
v 122 112 0
v 122 112 8
v 117 108 11
v 117 95 11
v 102 95 11
v 102 108 11
v 117 108 54
v 117 95 54
v 102 95 54
v 102 108 54
v 102 108 82
v 117 108 82
v 117 95 82
v 102 95 82
v 100 93 85
v 100 111 85
v 120 111 85
v 120 93 85
v 120 93 103
v 100 93 103
v 100 111 103
v 120 111 103
v -95 91 8
v -120 91 8
v -120 91 0
v -95 91 0
v -95 112 8
v -100 108 11
v -100 95 11
v -115 95 11
v -120 112 8
v -120 112 0
v -95 112 0
v -115 108 11
v -115 95 54
v -115 108 54
v -100 108 54
v -100 95 54
v -100 95 82
v -115 95 82
v -115 108 82
v -100 108 82
v -98 111 85
v -98 93 85
v -118 93 85
v -118 111 85
v -118 111 103
v -98 111 103
v -98 93 103
v -118 93 103
v 100 107 82
v 100 97 82
v 100 107 54
v 1 107 54
v 92 107 94
v 92 97 89
v 1 97 54
v 100 97 54
v 81 107 98
v 81 97 93
v 66 107 97
v 66 97 92
v 51 107 91
v 51 97 86
v 42 107 91
v 42 97 86
v 32 107 93
v 32 97 88
v 19 107 104
v 19 97 99
v 1 107 108
v 1 97 103
v -17 107 104
v -17 97 99
v -98 97 82
v -98 107 82
v -98 107 54
v -98 97 54
v -90 97 89
v -90 107 94
v -79 97 93
v -79 107 98
v -64 107 97
v -49 107 91
v -40 107 91
v -30 107 93
v -30 97 88
v -40 97 86
v -49 97 86
v -64 97 92
v 97 -128 1
v 122 -128 1
v 122 -128 9
v 97 -128 9
v 97 -103 1
v 97 -103 9
v 122 -103 1
v 122 -103 9
v 117 -108 12
v 117 -123 12
v 102 -123 12
v 102 -108 12
v 102 -108 40
v 117 -108 44
v 117 -123 33
v 102 -123 33
v 100 -121 33
v 100 -121 12
v 100 -109 12
v 100 -109 44
v 102 -123 73
v 102 -108 73
v 117 -108 73
v 117 -123 73
v 117 -123 83
v 102 -123 83
v -100 -123 73
v -100 -123 83
v -115 -123 73
v -115 -123 33
v -100 -123 33
v -100 -108 73
v -100 -108 44
v -115 -108 40
v -115 -108 73
v -115 -108 83
v -100 -108 83
v 102 -108 83
v 117 -108 83
v 120 -104 86
v 120 -126 86
v 100 -126 86
v -98 -104 86
v -98 -126 86
v -115 -123 83
v -115 -108 12
v -115 -123 12
v -100 -123 12
v -98 -121 12
v -98 -121 33
v -98 -109 41
v -100 -108 12
v -95 -103 9
v -120 -103 9
v -120 -128 9
v -95 -128 9
v -98 -109 12
v 100 -104 86
v 100 -104 99
v 120 -104 99
v 120 -126 99
v 100 -126 99
v 92 -112 49
v 92 -121 41
v 1 -121 12
v 81 -112 53
v 81 -121 44
v 51 -111 46
v 66 -112 51
v 66 -121 43
v 51 -121 37
v 42 -111 46
v 42 -121 37
v 32 -111 48
v 32 -121 40
v -30 -111 48
v 19 -114 58
v 19 -121 50
v 1 -115 63
v 1 -121 55
v -17 -114 58
v -17 -121 50
v -120 -128 1
v -95 -128 1
v -95 -103 1
v -120 -103 1
v -118 -126 86
v -118 -104 86
v -118 -104 99
v -98 -104 99
v -98 -126 99
v -118 -126 99
v -90 -121 41
v -90 -112 49
v -79 -121 44
v -79 -112 53
v -64 -112 51
v -49 -111 46
v -49 -121 37
v -40 -121 37
v -40 -111 46
v -30 -121 40
v -64 -121 43
v -113 -77 40
v -108 -91 46
v -108 -102 59
v -110 -63 59
v -110 -57 44
v -116 -47 43
v -111 -37 59
v -111 -38 44
v -114 -28 38
v -110 -24 44
v -109 -19 59
v -115 -6 39
v -112 4 59
v -111 10 44
v -114 21 46
v -109 39 59
v -109 29 50
v -39 -79 61
v -44 -105 59
v 0 -98 59
v -48 -70 59
v -55 -58 61
v -45 -62 59
v -28 -51 62
v -47 -39 59
v -79 -27 65
v -41 -7 59
v -39 9 62
v -40 20 59
v -60 53 61
v 0 47 59
v -9 22 59
v 40 20 59
v 60 53 61
v 109 39 59
v 109 13 59
v 114 21 46
v 109 29 50
v -10 -18 59
v 41 -7 59
v 39 9 62
v 109 -19 59
v 115 -6 39
v 110 17 44
v 0 -58 59
v 28 -51 62
v 47 -39 59
v 77 -27 65
v 111 -37 59
v 110 -24 44
v 0 -82 59
v 45 -62 59
v 48 -70 59
v 55 -58 61
v 110 -63 59
v 116 -47 43
v 111 -38 44
v 114 -28 38
v -67 47 58
v -40 47 58
v -27 60 68
v -81 60 68
v -94 56 58
v -105 -102 58
v 0 -102 58
v -14 56 58
v -22 65 71
v -86 65 71
v -99 65 58
v -111 -105 34
v -109 -105 34
v 1 -105 34
v 109 -105 34
v 105 -102 58
v 40 47 58
v 14 56 58
v 4 65 58
v 0 89 58
v -4 65 58
v -27 78 71
v -81 78 71
v -94 78 58
v -105 94 58
v -108 87 58
v -111 90 34
v -111 90 25
v -111 -105 25
v -67 88 58
v -40 88 58
v -10 78 58
v 0 95 58
v 10 78 58
v 40 88 58
v 105 94 58
v 67 88 58
v 94 78 58
v 99 65 58
v 108 -102 59
v 108 87 58
v 109 94 34
v -109 94 34
v -109 94 25
v 108 -91 46
v 113 -77 40
v 44 -80 61
v 46 -92 59
v 110 -57 44
v 27 60 68
v 67 47 58
v 81 60 68
v 22 65 71
v 94 56 58
v 86 65 71
v 81 78 71
v 27 78 71
v 111 -105 34
v 111 90 34
v 111 -105 25
v 111 90 25
v -109 -105 25
v 1 -105 25
v 109 -105 25
v 109 94 25

f 1 2 3
f 1 3 4
f 1 4 5
f 5 4 6
f 5 6 7
f 7 6 8
f 7 8 2
f 2 8 3
f 3 8 9
f 3 9 10
f 3 10 4
f 4 10 11
f 4 11 6
f 6 11 12
f 6 12 8
f 8 12 9
f 9 12 13
f 9 13 10
f 10 13 14
f 10 14 11
f 11 14 15
f 11 15 12
f 12 15 16
f 12 16 13
f 13 16 17
f 13 17 18
f 13 18 14
f 14 18 19
f 14 19 15
f 15 19 20
f 15 20 16
f 16 20 17
f 17 20 21
f 17 21 22
f 17 22 18
f 18 22 23
f 18 23 19
f 19 23 24
f 19 24 20
f 20 24 21
f 21 24 25
f 21 25 26
f 21 26 22
f 22 26 27
f 22 27 23
f 23 27 28
f 23 28 24
f 24 28 25
f 25 28 26
f 26 28 27
f 29 30 31
f 29 31 32
f 29 32 33
f 29 33 34
f 29 34 35
f 29 35 30
f 30 35 36
f 30 36 37
f 30 37 38
f 30 38 31
f 37 33 39
f 37 39 38
f 33 32 39
f 40 34 33
f 40 33 37
f 40 37 36
f 40 36 41
f 40 41 42
f 40 42 43
f 40 43 34
f 34 43 35
f 35 43 44
f 35 44 36
f 36 44 41
f 41 44 45
f 41 45 46
f 41 46 42
f 42 46 47
f 42 47 43
f 43 47 48
f 43 48 44
f 44 48 45
f 45 48 49
f 45 49 50
f 45 50 46
f 46 50 51
f 46 51 47
f 47 51 52
f 47 52 48
f 48 52 49
f 49 52 53
f 49 53 54
f 49 54 50
f 50 54 55
f 50 55 51
f 51 55 56
f 51 56 52
f 52 56 53
f 53 56 54
f 54 56 55
f 57 58 20
f 57 20 17
f 57 17 59
f 57 59 60
f 57 60 61
f 57 61 58
f 58 61 62
f 58 62 63
f 58 63 64
f 58 64 15
f 58 15 20
f 64 59 16
f 64 16 15
f 59 17 16
f 65 66 62
f 65 62 61
f 65 61 60
f 65 60 67
f 65 67 66
f 66 67 68
f 66 68 63
f 66 63 62
f 69 70 68
f 69 68 67
f 69 67 60
f 69 60 71
f 69 71 70
f 70 71 72
f 70 72 63
f 70 63 68
f 73 74 72
f 73 72 71
f 73 71 60
f 73 60 75
f 73 75 74
f 74 75 76
f 74 76 63
f 74 63 72
f 77 78 76
f 77 76 75
f 77 75 60
f 77 60 79
f 77 79 78
f 78 79 80
f 78 80 63
f 78 63 76
f 48 45 81
f 48 81 82
f 48 82 43
f 43 82 83
f 43 83 44
f 44 83 84
f 44 84 45
f 45 84 81
f 81 84 63
f 81 63 85
f 81 85 82
f 82 85 86
f 82 86 60
f 82 60 83
f 86 85 87
f 86 87 88
f 86 88 60
f 60 88 89
f 60 89 90
f 60 90 91
f 60 91 92
f 60 92 79
f 79 92 80
f 80 92 93
f 80 93 63
f 63 93 94
f 63 94 95
f 63 95 96
f 63 96 87
f 63 87 85
f 88 87 96
f 88 96 89
f 89 96 95
f 89 95 90
f 90 95 94
f 90 94 91
f 91 94 93
f 91 93 92
f 97 98 99
f 97 99 100
f 97 100 101
f 101 100 102
f 101 102 103
f 103 102 104
f 103 104 98
f 98 104 99
f 99 104 105
f 99 105 106
f 99 106 100
f 100 106 107
f 100 107 102
f 102 107 108
f 102 108 105
f 102 105 104
f 105 108 109
f 105 109 110
f 105 110 106
f 106 110 111
f 106 111 107
f 107 111 112
f 107 112 113
f 107 113 114
f 107 114 108
f 108 114 115
f 108 115 109
f 109 115 116
f 109 116 112
f 109 112 117
f 109 117 118
f 109 118 119
f 109 119 110
f 110 119 111
f 111 119 120
f 111 120 112
f 112 120 117
f 117 120 121
f 117 121 122
f 117 122 123
f 123 122 124
f 123 124 125
f 123 125 126
f 123 126 127
f 123 127 128
f 128 127 129
f 128 129 130
f 128 130 131
f 128 131 132
f 128 132 133
f 128 133 118
f 118 133 134
f 118 134 119
f 119 134 135
f 119 135 120
f 120 135 121
f 121 135 136
f 121 136 137
f 121 137 122
f 122 137 138
f 122 138 134
f 122 134 124
f 124 134 133
f 124 133 139
f 124 139 140
f 124 140 141
f 124 141 125
f 125 141 131
f 125 131 130
f 125 130 126
f 126 130 142
f 126 142 143
f 126 143 127
f 127 143 144
f 127 144 145
f 127 145 146
f 127 146 129
f 129 146 147
f 129 147 148
f 129 148 130
f 130 148 142
f 142 148 149
f 142 149 150
f 142 150 143
f 143 150 151
f 143 151 144
f 144 151 152
f 144 152 148
f 144 148 153
f 144 153 145
f 135 134 154
f 135 154 136
f 136 154 155
f 136 155 156
f 136 156 137
f 137 156 157
f 137 157 138
f 138 157 158
f 138 158 154
f 138 154 134
f 158 155 154
f 155 158 156
f 156 158 157
f 116 113 112
f 113 116 159
f 113 159 160
f 113 160 161
f 113 161 114
f 162 163 160
f 162 160 159
f 162 159 164
f 162 164 165
f 162 165 163
f 163 165 166
f 163 166 161
f 163 161 160
f 164 167 166
f 164 166 165
f 168 169 167
f 168 167 164
f 170 171 169
f 170 169 168
f 170 168 172
f 170 172 173
f 170 173 171
f 171 173 174
f 171 174 161
f 171 161 169
f 169 161 167
f 167 161 166
f 175 176 174
f 175 174 173
f 175 173 172
f 175 172 177
f 175 177 176
f 176 177 178
f 176 178 161
f 176 161 174
f 152 151 179
f 152 179 180
f 152 180 149
f 152 149 148
f 150 149 181
f 150 181 182
f 150 182 151
f 151 182 179
f 149 180 181
f 131 141 132
f 132 141 183
f 132 183 184
f 132 184 133
f 133 184 139
f 139 184 185
f 139 185 186
f 139 186 140
f 140 186 187
f 140 187 183
f 140 183 141
f 187 188 183
f 183 188 184
f 184 188 185
f 185 188 186
f 186 188 187
f 148 147 153
f 147 146 189
f 147 189 190
f 190 189 191
f 190 191 192
f 190 192 193
f 190 193 194
f 194 193 195
f 194 195 196
f 194 196 197
f 197 196 198
f 197 198 172
f 197 172 168
f 192 191 199
f 192 199 193
f 193 199 195
f 195 199 161
f 195 161 196
f 196 161 198
f 198 161 178
f 198 178 172
f 172 178 177
f 161 199 191
f 161 191 189
f 161 189 146
f 161 146 145
f 200 201 202
f 200 202 203
f 200 203 204
f 204 203 205
f 205 203 206
f 205 206 207
f 207 206 208
f 208 206 209
f 209 206 210
f 209 210 211
f 211 210 212
f 211 212 213
f 213 212 214
f 214 212 215
f 214 215 216
f 217 202 218
f 217 218 219
f 217 219 220
f 217 220 202
f 202 220 203
f 203 220 221
f 203 221 222
f 203 222 206
f 206 222 223
f 206 223 224
f 206 224 225
f 206 225 210
f 210 225 226
f 210 226 212
f 212 226 227
f 212 227 228
f 212 228 215
f 215 228 229
f 229 228 230
f 230 228 231
f 230 231 232
f 230 232 233
f 233 232 234
f 234 232 235
f 234 235 236
f 234 236 237
f 231 228 227
f 231 227 226
f 231 226 238
f 231 238 239
f 231 239 240
f 231 240 232
f 232 240 235
f 235 240 239
f 235 239 241
f 235 241 242
f 235 242 243
f 235 243 236
f 226 225 238
f 238 225 224
f 238 224 223
f 238 223 244
f 238 244 245
f 238 245 246
f 238 246 247
f 238 247 239
f 239 247 241
f 241 247 248
f 241 248 249
f 241 249 242
f 244 223 222
f 244 222 250
f 244 250 251
f 244 251 245
f 245 251 248
f 245 248 246
f 246 248 247
f 250 222 221
f 250 221 220
f 250 220 219
f 250 219 252
f 250 252 253
f 250 253 251
f 251 253 254
f 251 254 248
f 248 254 255
f 248 255 256
f 248 256 257
f 248 257 249
f 258 259 260
f 258 260 261
f 258 261 262
f 258 262 263
f 258 263 259
f 259 263 264
f 259 264 265
f 259 265 260
f 260 265 266
f 260 266 261
f 261 266 267
f 261 267 268
f 261 268 262
f 262 268 202
f 262 202 263
f 263 202 269
f 263 269 270
f 263 270 264
f 264 270 271
f 264 271 272
f 264 272 273
f 264 273 274
f 264 274 275
f 264 275 276
f 264 276 277
f 264 277 278
f 264 278 265
f 265 278 266
f 266 278 279
f 266 279 280
f 266 280 267
f 267 280 281
f 267 281 268
f 268 281 282
f 268 282 202
f 202 282 283
f 202 283 284
f 202 284 269
f 269 284 285
f 269 285 286
f 287 281 280
f 287 280 288
f 287 288 282
f 287 282 281
f 288 280 279
f 288 279 289
f 288 289 290
f 288 290 282
f 279 278 289
f 289 278 277
f 289 277 290
f 290 277 291
f 290 291 292
f 290 292 293
f 293 292 294
f 293 294 295
f 293 295 296
f 293 296 297
f 293 297 298
f 293 298 299
f 293 299 63
f 63 299 300
f 63 300 282
f 282 300 283
f 283 300 284
f 284 300 301
f 284 301 285
f 297 302 303
f 297 303 254
f 297 254 252
f 297 252 304
f 297 304 305
f 305 304 219
f 219 304 252
f 254 303 306
f 254 306 255
f 253 252 254
f 307 274 308
f 307 308 309
f 307 309 310
f 307 310 275
f 307 275 274
f 308 311 309
f 309 311 296
f 309 296 312
f 309 312 310
f 310 312 313
f 310 313 314
f 310 314 276
f 310 276 275
f 312 296 295
f 312 295 313
f 313 295 294
f 313 294 292
f 313 292 314
f 314 292 291
f 314 291 276
f 276 291 277
f 315 297 273
f 315 273 272
f 316 298 297
f 316 297 315
f 316 315 317
f 316 317 318
f 316 318 299
f 316 299 298
f 311 273 297
f 311 297 296
f 311 308 273
f 273 308 274
f 271 270 319
f 271 319 320
f 271 320 272
f 272 320 321
f 299 318 322
