# RS2 Model 12404
# Vertices: 266
# Faces: 480

v 64 -12 72
v 64 -12 65
v 64 34 65
v 64 34 72
v 62 -10 72
v 37 -20 72
v 39 -22 72
v 39 -22 65
v -64 34 72
v -64 34 65
v -64 -12 65
v -64 -12 72
v -61 28 72
v 18 -24 72
v 18 -26 72
v 62 28 72
v -18 -24 72
v -18 -26 72
v -18 -26 65
v 18 -26 65
v -37 -20 72
v -39 -22 72
v -61 -10 72
v -39 -22 65
v 52 -4 40
v 57 -4 40
v 57 18 40
v 52 18 40
v 52 -4 35
v 51 -4 41
v 58 -4 41
v 58 -4 33
v 57 -4 35
v 57 18 35
v 58 18 33
v 58 18 41
v 51 18 41
v 51 18 33
v 52 18 35
v 51 -4 33
v 51 -6 39
v 51 -11 41
v 49 -11 65
v 49 -4 65
v 61 -4 65
v 61 -11 65
v 58 -9 0
v 58 -6 0
v 51 -6 0
v 51 -9 0
v 51 -11 33
v 51 -6 34
v 20 -6 28
v 16 -6 34
v 51 -10 39
v -52 18 40
v -57 18 40
v -57 -4 40
v -52 -4 40
v -52 -4 35
v -52 18 35
v -51 18 41
v -58 18 41
v -58 18 33
v -57 18 35
v -57 -4 35
v -58 -4 33
v -58 -4 41
v -51 -4 41
v -51 -4 33
v -51 18 33
v -51 20 39
v -51 26 41
v -49 31 65
v -49 22 65
v -61 22 65
v -61 31 65
v -58 26 25
v -58 19 21
v -51 19 21
v -51 26 25
v -51 26 33
v -51 25 34
v -51 20 34
v -20 20 28
v -16 20 34
v -51 25 39
v -16 25 34
v -20 25 28
v 16 25 34
v 20 25 28
v 51 25 39
v 51 25 34
v 51 26 33
v 51 20 34
v 51 20 39
v 16 20 34
v 20 20 28
v 51 26 41
v 58 26 25
v 51 26 25
v 51 19 21
v 61 22 65
v 49 22 65
v 49 31 65
v 61 31 65
v 58 19 21
v 58 24 12
v 58 29 15
v 51 29 15
v 51 24 12
v -61 -4 65
v -49 -4 65
v -51 -11 41
v -51 -6 39
v -51 -6 34
v -51 -10 34
v -51 -11 33
v -51 -6 0
v -49 -11 65
v -61 -11 65
v -58 -9 0
v -51 -10 39
v -16 -10 34
v -16 -6 34
v -20 -6 28
v -58 -6 0
v -51 -9 0
v 51 -10 34
v -20 -10 28
v 20 -10 28
v 16 -10 34
v -51 29 15
v -58 29 15
v -58 24 12
v -51 24 12
v -51 33 0
v -51 37 0
v -58 37 0
v -58 33 0
v 51 33 0
v 58 33 0
v 58 37 0
v 51 37 0
v -64 16 105
v -64 20 126
v -64 26 123
v -64 23 108
v -64 31 72
v -64 16 72
v -54 16 105
v -54 20 126
v -54 27 138
v -64 27 138
v -64 27 134
v -64 29 133
v -64 28 125
v -64 31 119
v -54 26 123
v -54 23 108
v -54 31 72
v -64 35 140
v -64 36 136
v -64 35 135
v -64 34 132
v -64 31 131
v -64 31 124
v -64 37 126
v -64 39 123
v -54 31 119
v -54 31 124
v -54 28 125
v -54 27 134
v -50 22 123
v -50 24 122
v -50 22 107
v -50 29 72
v 50 22 107
v 50 29 72
v 54 23 108
v 54 31 72
v 64 31 72
v 64 23 108
v 64 16 72
v 64 16 105
v 54 16 72
v 54 16 105
v 50 19 105
v 50 19 72
v -50 19 105
v -50 19 72
v -54 16 72
v -64 39 138
v -54 39 138
v -54 39 123
v -64 36 127
v -64 35 130
v -64 33 130
v -64 33 127
v -54 36 136
v -54 35 140
v -54 37 126
v -54 29 133
v -54 35 135
v -54 36 127
v -54 33 127
v -54 33 130
v -54 31 131
v -54 34 132
v -54 35 130
v -37 21 119
v -37 24 117
v -25 24 117
v -9 25 124
v 0 26 126
v 9 25 124
v 25 24 117
v 37 24 117
v 50 24 122
v 54 26 123
v 64 26 123
v 64 20 126
v 54 20 126
v 50 22 123
v 37 21 119
v 25 21 119
v 9 22 126
v 0 23 128
v -9 22 126
v -25 21 119
v 54 27 138
v 54 27 134
v 54 29 133
v 54 28 125
v 54 31 119
v 64 31 119
v 64 31 124
v 64 28 125
v 64 27 134
v 64 27 138
v 64 35 140
v 54 35 140
v 54 36 136
v 54 35 135
v 54 34 132
v 54 31 131
v 54 31 124
v 54 37 126
v 54 39 123
v 64 39 123
v 64 37 126
v 64 36 127
v 64 33 127
v 64 33 130
v 64 31 131
v 64 29 133
v 64 36 136
v 64 39 138
v 54 39 138
v 54 36 127
v 54 35 130
v 54 33 130
v 54 33 127
v 64 35 135
v 64 34 132
v 64 35 130

f 1 2 3
f 1 3 4
f 1 4 5
f 1 5 6
f 1 6 7
f 1 7 8
f 1 8 2
f 9 10 11
f 9 11 12
f 9 12 13
f 9 13 4
f 9 4 10
f 10 4 3
f 14 15 7
f 14 7 6
f 14 6 16
f 14 16 13
f 14 13 17
f 14 17 15
f 15 17 18
f 15 18 19
f 15 19 20
f 15 20 7
f 7 20 8
f 21 22 18
f 21 18 17
f 21 17 13
f 21 13 23
f 21 23 22
f 22 23 12
f 22 12 11
f 22 11 24
f 22 24 18
f 18 24 19
f 4 16 5
f 5 16 6
f 12 23 13
f 4 13 16
f 25 26 27
f 25 27 28
f 25 28 29
f 25 29 30
f 25 30 26
f 26 30 31
f 26 31 32
f 26 32 33
f 26 33 34
f 26 34 27
f 27 34 35
f 27 35 36
f 27 36 37
f 27 37 28
f 28 37 38
f 28 38 39
f 28 39 29
f 29 39 34
f 29 34 33
f 29 33 32
f 29 32 40
f 29 40 30
f 30 40 41
f 30 41 42
f 30 42 43
f 30 43 44
f 30 44 31
f 31 44 45
f 31 45 46
f 31 46 47
f 31 47 32
f 32 47 48
f 32 48 40
f 40 48 49
f 40 49 50
f 40 50 51
f 40 51 52
f 40 52 41
f 41 52 53
f 41 53 54
f 41 54 55
f 41 55 42
f 42 55 51
f 42 51 46
f 42 46 43
f 56 57 58
f 56 58 59
f 56 59 60
f 56 60 61
f 56 61 62
f 56 62 57
f 57 62 63
f 57 63 64
f 57 64 65
f 57 65 58
f 58 65 66
f 58 66 67
f 58 67 68
f 58 68 69
f 58 69 59
f 59 69 70
f 59 70 60
f 60 70 66
f 60 66 61
f 61 66 65
f 61 65 64
f 61 64 71
f 61 71 62
f 62 71 72
f 62 72 73
f 62 73 74
f 62 74 75
f 62 75 63
f 63 75 76
f 63 76 77
f 63 77 78
f 63 78 64
f 64 78 79
f 64 79 71
f 71 79 80
f 71 80 81
f 71 81 82
f 71 82 83
f 71 83 84
f 71 84 72
f 72 84 85
f 72 85 86
f 72 86 87
f 72 87 73
f 73 87 83
f 73 83 82
f 73 82 77
f 73 77 74
f 86 88 87
f 87 88 83
f 83 88 89
f 89 88 90
f 89 90 91
f 91 90 92
f 91 92 93
f 93 92 94
f 93 94 95
f 95 94 38
f 95 38 37
f 95 37 96
f 95 96 97
f 95 97 98
f 98 97 86
f 98 86 85
f 88 86 97
f 88 97 90
f 90 97 96
f 90 96 92
f 92 96 37
f 92 37 99
f 92 99 94
f 94 99 100
f 94 100 101
f 94 101 102
f 94 102 38
f 38 102 35
f 38 35 34
f 38 34 39
f 37 36 103
f 37 103 104
f 37 104 99
f 99 104 105
f 99 105 106
f 99 106 100
f 100 106 107
f 100 107 108
f 100 108 109
f 100 109 101
f 101 109 110
f 101 110 102
f 102 110 111
f 102 111 107
f 102 107 35
f 35 107 36
f 36 107 106
f 36 106 103
f 69 68 112
f 69 112 113
f 69 113 114
f 69 114 115
f 69 115 116
f 69 116 70
f 70 116 117
f 70 117 118
f 70 118 119
f 70 119 67
f 70 67 66
f 114 113 120
f 114 120 121
f 114 121 122
f 114 122 118
f 114 118 123
f 114 123 115
f 115 123 124
f 115 124 125
f 115 125 126
f 115 126 116
f 68 121 112
f 121 68 67
f 121 67 127
f 121 127 122
f 122 128 118
f 118 128 119
f 119 127 67
f 51 55 129
f 51 129 52
f 123 118 117
f 123 117 124
f 124 117 130
f 124 130 131
f 124 131 132
f 124 132 125
f 125 132 54
f 125 54 126
f 126 54 53
f 77 81 78
f 78 81 133
f 78 133 134
f 78 134 79
f 79 134 135
f 79 135 80
f 80 135 136
f 80 136 81
f 81 136 133
f 133 136 137
f 133 137 138
f 133 138 134
f 134 138 139
f 134 139 135
f 135 139 140
f 135 140 136
f 136 140 137
f 77 82 81
f 46 51 47
f 47 51 50
f 54 132 55
f 55 132 129
f 129 132 131
f 107 111 108
f 108 111 141
f 108 141 142
f 108 142 109
f 109 142 143
f 109 143 110
f 110 143 144
f 110 144 111
f 111 144 141
f 145 146 147
f 145 147 148
f 145 148 149
f 145 149 150
f 145 150 151
f 145 151 152
f 145 152 146
f 146 152 153
f 146 153 154
f 146 154 147
f 147 154 155
f 147 155 156
f 147 156 157
f 147 157 158
f 147 158 159
f 147 159 148
f 148 159 160
f 148 160 161
f 148 161 149
f 155 154 162
f 155 162 163
f 155 163 164
f 155 164 156
f 156 164 165
f 156 165 166
f 156 166 167
f 156 167 157
f 157 167 158
f 158 167 168
f 158 168 169
f 158 169 170
f 158 170 159
f 159 170 171
f 159 171 172
f 159 172 173
f 159 173 152
f 159 152 174
f 159 174 175
f 159 175 160
f 160 175 176
f 160 176 161
f 161 176 177
f 177 176 178
f 177 178 179
f 179 178 180
f 179 180 181
f 181 180 182
f 182 180 183
f 182 183 184
f 184 183 185
f 184 185 186
f 186 185 187
f 186 187 188
f 186 188 189
f 189 188 190
f 189 190 191
f 191 190 151
f 191 151 192
f 192 151 150
f 193 163 162
f 193 162 194
f 193 194 195
f 193 195 169
f 193 169 163
f 163 169 168
f 163 168 196
f 163 196 164
f 164 196 197
f 164 197 165
f 165 197 166
f 166 197 198
f 166 198 199
f 166 199 167
f 167 199 168
f 168 199 196
f 196 199 198
f 196 198 197
f 173 153 152
f 153 173 200
f 153 200 201
f 153 201 154
f 154 201 162
f 162 201 194
f 194 201 200
f 194 200 202
f 194 202 195
f 195 202 171
f 195 171 170
f 195 170 169
f 172 203 173
f 173 203 200
f 200 203 204
f 200 204 202
f 202 204 205
f 202 205 171
f 171 205 206
f 171 206 207
f 171 207 208
f 171 208 172
f 172 208 203
f 203 208 204
f 204 208 209
f 204 209 205
f 205 209 210
f 205 210 206
f 206 210 207
f 207 210 208
f 208 210 209
f 152 151 190
f 152 190 174
f 174 190 211
f 174 211 175
f 175 211 212
f 175 212 176
f 176 212 213
f 176 213 214
f 176 214 215
f 176 215 178
f 178 215 216
f 178 216 217
f 178 217 218
f 178 218 219
f 178 219 220
f 178 220 180
f 180 220 221
f 180 221 183
f 183 221 222
f 183 222 185
f 185 222 187
f 187 222 223
f 187 223 224
f 187 224 188
f 188 224 225
f 188 225 226
f 188 226 227
f 188 227 228
f 188 228 190
f 190 228 229
f 190 229 230
f 190 230 211
f 211 230 212
f 212 230 213
f 213 230 229
f 213 229 214
f 214 229 228
f 214 228 215
f 215 228 227
f 215 227 216
f 216 227 226
f 216 226 217
f 217 226 225
f 217 225 218
f 218 225 224
f 218 224 219
f 219 224 223
f 219 223 220
f 220 223 231
f 220 231 232
f 220 232 233
f 220 233 234
f 220 234 235
f 220 235 221
f 221 235 236
f 221 236 237
f 221 237 238
f 221 238 239
f 221 239 222
f 222 239 240
f 222 240 223
f 223 240 231
f 231 240 241
f 231 241 242
f 231 242 232
f 232 242 243
f 232 243 244
f 232 244 233
f 233 244 245
f 233 245 246
f 233 246 247
f 233 247 234
f 234 247 235
f 235 247 248
f 235 248 249
f 235 249 236
f 236 249 250
f 236 250 237
f 237 250 251
f 237 251 252
f 237 252 253
f 237 253 254
f 237 254 255
f 237 255 238
f 238 255 256
f 238 256 239
f 239 256 257
f 239 257 240
f 240 257 241
f 241 257 258
f 241 258 242
f 242 258 259
f 242 259 243
f 243 259 249
f 243 249 248
f 243 248 260
f 243 260 244
f 244 260 261
f 244 261 245
f 245 261 246
f 246 261 262
f 246 262 263
f 246 263 247
f 247 263 248
f 248 263 260
f 260 263 262
f 260 262 261
f 251 250 258
f 251 258 257
f 251 257 264
f 251 264 252
f 252 264 265
f 252 265 266
f 252 266 253
f 253 266 254
f 254 266 255
f 255 266 265
f 255 265 264
f 255 264 256
f 256 264 257
f 259 258 250
f 259 250 249
