# RS2 Model 12411
# Vertices: 270
# Faces: 454

v -17 -22 157
v -18 -16 164
v -45 -15 163
v -45 -20 157
v -20 -17 150
v -18 -20 157
v -20 -17 161
v -20 -11 163
v -43 -11 161
v -43 -7 157
v -20 -6 157
v -45 -12 151
v -20 -11 150
v -45 -17 153
v -20 -3 150
v -45 -6 151
v -18 -11 153
v -18 -16 152
v -20 -20 157
v -20 -16 161
v -20 -7 157
v -20 -8 157
v -21 -11 154
v -20 -14 154
v -20 -16 153
v -20 -18 157
v -20 -15 160
v -20 -11 160
v -21 -11 158
v -20 -11 156
v -20 -14 155
v -20 -17 157
v -20 -10 157
v -20 -15 158
v -19 -47 131
v -20 -41 138
v -47 -40 137
v -47 -45 131
v -22 -42 124
v -20 -45 131
v -22 -42 135
v -22 -36 137
v -45 -36 135
v -45 -32 131
v -22 -31 131
v -47 -37 125
v -22 -36 124
v -47 -42 127
v -22 -28 124
v -47 -31 125
v -20 -36 127
v -20 -41 126
v -22 -45 131
v -22 -41 135
v -22 -32 131
v -22 -33 131
v -23 -36 128
v -22 -39 128
v -22 -41 127
v -22 -43 131
v -22 -40 134
v -22 -36 134
v -23 -36 132
v -22 -36 130
v -22 -39 129
v -22 -42 131
v -22 -35 131
v -22 -40 132
v -17 -22 105
v -18 -16 112
v -45 -15 111
v -45 -20 105
v -20 -17 98
v -18 -20 105
v -20 -17 109
v -20 -11 111
v -43 -11 109
v -43 -7 105
v -20 -6 105
v -45 -12 99
v -20 -11 98
v -45 -17 101
v -20 -3 98
v -45 -6 99
v -18 -11 101
v -18 -16 100
v -20 -20 105
v -20 -16 109
v -20 -7 105
v -20 -8 105
v -21 -11 102
v -20 -14 102
v -20 -16 101
v -20 -18 105
v -20 -15 108
v -20 -11 108
v -21 -11 106
v -20 -11 104
v -20 -14 103
v -20 -17 105
v -20 -10 105
v -20 -15 106
v -12 -22 131
v -13 -16 138
v -40 -15 137
v -40 -20 131
v -15 -17 124
v -13 -20 131
v -15 -17 135
v -15 -11 137
v -38 -11 135
v -38 -7 131
v -15 -6 131
v -40 -12 125
v -15 -11 124
v -40 -17 127
v -15 -3 124
v -40 -6 125
v -13 -11 127
v -13 -16 126
v -15 -20 131
v -15 -16 135
v -15 -7 131
v -15 -8 131
v -16 -11 128
v -15 -14 128
v -15 -16 127
v -15 -18 131
v -15 -15 134
v -15 -11 134
v -16 -11 132
v -15 -11 130
v -15 -14 129
v -15 -17 131
v -15 -10 131
v -15 -15 132
v -19 -45 102
v -20 -41 107
v -39 -40 107
v -39 -44 102
v -22 -41 98
v -20 -44 102
v -22 -41 105
v -22 -38 107
v -38 -38 105
v -38 -35 102
v -22 -34 102
v -39 -39 99
v -22 -38 98
v -39 -41 100
v -22 -32 98
v -39 -34 99
v -20 -38 100
v -20 -41 100
v -22 -44 102
v -22 -40 104
v -22 -38 104
v -22 -35 102
v -22 -36 102
v -22 -38 101
v -22 -39 101
v -22 -41 100
v -22 -42 102
v -22 -40 103
v -22 -38 103
v -22 -38 102
v -22 -39 102
v -22 -41 102
v -22 -37 102
v -19 5 128
v -20 9 133
v -39 10 133
v -39 6 128
v -22 9 124
v -20 6 128
v -22 9 131
v -22 12 133
v -38 12 131
v -38 15 128
v -22 16 128
v -39 11 125
v -22 12 124
v -39 9 126
v -22 18 124
v -39 16 125
v -20 12 126
v -20 9 126
v -22 6 128
v -22 10 130
v -22 12 130
v -22 15 128
v -22 14 128
v -22 12 127
v -22 11 127
v -22 9 126
v -22 8 128
v -22 10 129
v -22 12 129
v -22 12 128
v -22 11 128
v -22 9 128
v -22 13 128
v -12 30 157
v -13 36 164
v -40 37 163
v -40 32 157
v -15 35 150
v -13 32 157
v -15 35 161
v -15 41 163
v -38 41 161
v -38 45 157
v -15 46 157
v -40 40 151
v -15 41 150
v -40 35 153
v -15 49 150
v -40 46 151
v -13 41 153
v -13 36 152
v -15 32 157
v -15 36 161
v -15 45 157
v -15 44 157
v -16 41 154
v -15 38 154
v -15 36 153
v -15 34 157
v -15 37 160
v -15 41 160
v -16 41 158
v -15 41 156
v -15 38 155
v -15 35 157
v -15 42 157
v -15 37 158
v -12 30 105
v -13 36 112
v -40 37 111
v -40 32 105
v -15 35 98
v -13 32 105
v -15 35 109
v -15 41 111
v -38 41 109
v -38 45 105
v -15 46 105
v -40 40 99
v -15 41 98
v -40 35 101
v -15 49 98
v -40 46 99
v -13 41 101
v -13 36 100
v -15 32 105
v -15 36 109
v -15 45 105
v -15 44 105
v -16 41 102
v -15 38 102
v -15 36 101
v -15 34 105
v -15 37 108
v -15 41 108
v -16 41 106
v -15 41 104
v -15 38 103
v -15 35 105
v -15 42 105
v -15 37 106

f 1 2 3
f 1 3 4
f 1 4 5
f 1 5 6
f 1 6 7
f 1 7 2
f 2 7 8
f 2 8 3
f 3 8 9
f 9 8 10
f 10 8 11
f 10 11 12
f 12 11 13
f 12 13 5
f 12 5 14
f 14 5 4
f 13 15 16
f 13 16 12
f 13 17 18
f 13 18 5
f 5 18 6
f 6 18 19
f 6 19 20
f 6 20 7
f 13 11 21
f 13 21 17
f 17 21 22
f 17 22 23
f 17 23 24
f 17 24 25
f 17 25 18
f 18 25 19
f 19 25 26
f 19 26 27
f 19 27 20
f 20 27 28
f 28 27 29
f 28 29 22
f 28 22 21
f 28 21 8
f 28 8 7
f 8 21 11
f 24 23 30
f 24 30 31
f 24 31 32
f 24 32 26
f 24 26 25
f 23 22 33
f 23 33 30
f 30 33 31
f 31 33 29
f 31 29 34
f 31 34 32
f 32 34 26
f 26 34 27
f 27 34 29
f 22 29 33
f 35 36 37
f 35 37 38
f 35 38 39
f 35 39 40
f 35 40 41
f 35 41 36
f 36 41 42
f 36 42 37
f 37 42 43
f 43 42 44
f 44 42 45
f 44 45 46
f 46 45 47
f 46 47 39
f 46 39 48
f 48 39 38
f 47 49 50
f 47 50 46
f 47 51 52
f 47 52 39
f 39 52 40
f 40 52 53
f 40 53 54
f 40 54 41
f 47 45 55
f 47 55 51
f 51 55 56
f 51 56 57
f 51 57 58
f 51 58 59
f 51 59 52
f 52 59 53
f 53 59 60
f 53 60 61
f 53 61 54
f 54 61 62
f 62 61 63
f 62 63 56
f 62 56 55
f 62 55 42
f 62 42 41
f 42 55 45
f 58 57 64
f 58 64 65
f 58 65 66
f 58 66 60
f 58 60 59
f 57 56 67
f 57 67 64
f 64 67 65
f 65 67 63
f 65 63 68
f 65 68 66
f 66 68 60
f 60 68 61
f 61 68 63
f 56 63 67
f 69 70 71
f 69 71 72
f 69 72 73
f 69 73 74
f 69 74 75
f 69 75 70
f 70 75 76
f 70 76 71
f 71 76 77
f 77 76 78
f 78 76 79
f 78 79 80
f 80 79 81
f 80 81 73
f 80 73 82
f 82 73 72
f 81 83 84
f 81 84 80
f 81 85 86
f 81 86 73
f 73 86 74
f 74 86 87
f 74 87 88
f 74 88 75
f 81 79 89
f 81 89 85
f 85 89 90
f 85 90 91
f 85 91 92
f 85 92 93
f 85 93 86
f 86 93 87
f 87 93 94
f 87 94 95
f 87 95 88
f 88 95 96
f 96 95 97
f 96 97 90
f 96 90 89
f 96 89 76
f 96 76 75
f 76 89 79
f 92 91 98
f 92 98 99
f 92 99 100
f 92 100 94
f 92 94 93
f 91 90 101
f 91 101 98
f 98 101 99
f 99 101 97
f 99 97 102
f 99 102 100
f 100 102 94
f 94 102 95
f 95 102 97
f 90 97 101
f 103 104 105
f 103 105 106
f 103 106 107
f 103 107 108
f 103 108 109
f 103 109 104
f 104 109 110
f 104 110 105
f 105 110 111
f 111 110 112
f 112 110 113
f 112 113 114
f 114 113 115
f 114 115 107
f 114 107 116
f 116 107 106
f 115 117 118
f 115 118 114
f 115 119 120
f 115 120 107
f 107 120 108
f 108 120 121
f 108 121 122
f 108 122 109
f 115 113 123
f 115 123 119
f 119 123 124
f 119 124 125
f 119 125 126
f 119 126 127
f 119 127 120
f 120 127 121
f 121 127 128
f 121 128 129
f 121 129 122
f 122 129 130
f 130 129 131
f 130 131 124
f 130 124 123
f 130 123 110
f 130 110 109
f 110 123 113
f 126 125 132
f 126 132 133
f 126 133 134
f 126 134 128
f 126 128 127
f 125 124 135
f 125 135 132
f 132 135 133
f 133 135 131
f 133 131 136
f 133 136 134
f 134 136 128
f 128 136 129
f 129 136 131
f 124 131 135
f 137 138 139
f 137 139 140
f 137 140 141
f 137 141 142
f 137 142 143
f 137 143 138
f 138 143 144
f 138 144 139
f 139 144 145
f 145 144 146
f 146 144 147
f 146 147 148
f 148 147 149
f 148 149 141
f 148 141 150
f 150 141 140
f 149 151 152
f 149 152 148
f 149 153 154
f 149 154 141
f 141 154 142
f 142 154 155
f 142 155 143
f 143 155 156
f 143 156 157
f 143 157 144
f 144 157 158
f 144 158 147
f 147 158 149
f 149 158 153
f 153 158 159
f 153 159 160
f 153 160 161
f 153 161 162
f 153 162 154
f 154 162 155
f 155 162 163
f 155 163 156
f 156 163 164
f 156 164 165
f 156 165 157
f 157 165 159
f 157 159 158
f 161 160 166
f 161 166 167
f 161 167 168
f 161 168 163
f 161 163 162
f 160 159 169
f 160 169 166
f 166 169 167
f 167 169 165
f 167 165 164
f 167 164 168
f 168 164 163
f 159 165 169
f 170 171 172
f 170 172 173
f 170 173 174
f 170 174 175
f 170 175 176
f 170 176 171
f 171 176 177
f 171 177 172
f 172 177 178
f 178 177 179
f 179 177 180
f 179 180 181
f 181 180 182
f 181 182 174
f 181 174 183
f 183 174 173
f 182 184 185
f 182 185 181
f 182 186 187
f 182 187 174
f 174 187 175
f 175 187 188
f 175 188 176
f 176 188 189
f 176 189 190
f 176 190 177
f 177 190 191
f 177 191 180
f 180 191 182
f 182 191 186
f 186 191 192
f 186 192 193
f 186 193 194
f 186 194 195
f 186 195 187
f 187 195 188
f 188 195 196
f 188 196 189
f 189 196 197
f 189 197 198
f 189 198 190
f 190 198 192
f 190 192 191
f 194 193 199
f 194 199 200
f 194 200 201
f 194 201 196
f 194 196 195
f 193 192 202
f 193 202 199
f 199 202 200
f 200 202 198
f 200 198 197
f 200 197 201
f 201 197 196
f 192 198 202
f 203 204 205
f 203 205 206
f 203 206 207
f 203 207 208
f 203 208 209
f 203 209 204
f 204 209 210
f 204 210 205
f 205 210 211
f 211 210 212
f 212 210 213
f 212 213 214
f 214 213 215
f 214 215 207
f 214 207 216
f 216 207 206
f 215 217 218
f 215 218 214
f 215 219 220
f 215 220 207
f 207 220 208
f 208 220 221
f 208 221 222
f 208 222 209
f 215 213 223
f 215 223 219
f 219 223 224
f 219 224 225
f 219 225 226
f 219 226 227
f 219 227 220
f 220 227 221
f 221 227 228
f 221 228 229
f 221 229 222
f 222 229 230
f 230 229 231
f 230 231 224
f 230 224 223
f 230 223 210
f 230 210 209
f 210 223 213
f 226 225 232
f 226 232 233
f 226 233 234
f 226 234 228
f 226 228 227
f 225 224 235
f 225 235 232
f 232 235 233
f 233 235 231
f 233 231 236
f 233 236 234
f 234 236 228
f 228 236 229
f 229 236 231
f 224 231 235
f 237 238 239
f 237 239 240
f 237 240 241
f 237 241 242
f 237 242 243
f 237 243 238
f 238 243 244
f 238 244 239
f 239 244 245
f 245 244 246
f 246 244 247
f 246 247 248
f 248 247 249
f 248 249 241
f 248 241 250
f 250 241 240
f 249 251 252
f 249 252 248
f 249 253 254
f 249 254 241
f 241 254 242
f 242 254 255
f 242 255 256
f 242 256 243
f 249 247 257
f 249 257 253
f 253 257 258
f 253 258 259
f 253 259 260
f 253 260 261
f 253 261 254
f 254 261 255
f 255 261 262
f 255 262 263
f 255 263 256
f 256 263 264
f 264 263 265
f 264 265 258
f 264 258 257
f 264 257 244
f 264 244 243
f 244 257 247
f 260 259 266
f 260 266 267
f 260 267 268
f 260 268 262
f 260 262 261
f 259 258 269
f 259 269 266
f 266 269 267
f 267 269 265
f 267 265 270
f 267 270 268
f 268 270 262
f 262 270 263
f 263 270 265
f 258 265 269
