# RS2 Model 12473
# Vertices: 460
# Faces: 633

v -66 29 216
v -66 33 216
v -69 35 216
v -69 27 216
v -63 27 216
v -63 27 212
v -66 29 212
v -66 33 212
v -63 35 216
v -63 39 216
v -63 39 212
v -68 35 212
v -68 27 212
v -63 23 216
v -60 29 216
v -60 29 212
v -57 27 212
v -63 23 212
v -63 35 212
v -60 33 216
v -57 35 216
v -57 35 212
v -60 33 212
v -57 27 216
v -53 19 150
v -52 27 147
v -55 34 163
v -55 37 171
v -59 37 170
v -59 19 149
v -58 26 146
v -59 34 162
v -60 47 174
v -54 47 175
v -55 40 179
v -61 40 178
v -59 43 175
v -54 42 176
v -57 37 191
v -63 34 201
v -61 29 211
v -64 28 212
v -61 33 214
v -65 33 214
v -63 37 202
v -58 40 192
v -60 48 177
v -55 48 178
v -62 23 223
v -68 22 228
v -65 27 215
v -61 29 216
v -63 26 230
v -66 25 235
v -70 25 235
v -68 34 232
v -65 35 228
v -65 36 222
v -67 35 220
v -66 31 215
v -62 34 216
v -62 34 226
v -69 -18 216
v -69 -26 216
v -66 -24 216
v -66 -20 216
v -63 -14 216
v -63 -14 212
v -68 -18 212
v -68 -26 212
v -63 -30 216
v -63 -26 216
v -63 -26 212
v -66 -24 212
v -66 -20 212
v -63 -18 216
v -57 -18 216
v -57 -18 212
v -60 -20 212
v -63 -18 212
v -67 -26 206
v -67 -18 206
v -70 27 221
v -70 -18 221
v -70 -26 221
v -72 -26 216
v -71 -26 212
v -70 -26 206
v -70 -18 206
v -67 27 206
v -67 35 206
v -71 35 212
v -72 35 216
v -73 35 221
v -70 35 221
v -73 27 221
v -73 -18 221
v -73 -26 221
v -57 -26 216
v -60 -24 216
v -60 -24 212
v -57 -26 212
v -63 -30 212
v -60 -20 216
v -55 -25 163
v -52 -18 147
v -53 -10 150
v -55 -28 171
v -54 -38 175
v -60 -38 174
v -59 -25 162
v -58 -17 146
v -59 -10 149
v -59 -28 170
v -55 -31 179
v -61 -31 178
v -57 -28 191
v -54 -33 176
v -59 -34 175
v -63 -25 201
v -61 -20 211
v -61 -24 214
v -58 -31 192
v -55 -39 178
v -60 -39 177
v -63 -28 202
v -65 -24 214
v -64 -19 212
v -65 -18 215
v -68 -13 228
v -62 -14 223
v -61 -20 216
v -62 -25 216
v -66 -22 215
v -65 -27 222
v -67 -26 220
v -68 -25 232
v -65 -26 228
v -66 -16 235
v -70 -16 235
v -63 -17 230
v -62 -25 226
v -70 27 206
v -70 35 206
v -39 13 67
v -28 17 42
v -27 26 43
v -40 17 69
v -48 14 97
v -48 5 92
v -55 4 94
v -37 16 55
v -33 16 39
v -32 27 40
v -37 21 56
v -54 14 97
v -48 -25 8
v -45 -15 16
v -54 -23 11
v -41 -3 26
v -39 -2 21
v -53 -19 6
v -42 -12 13
v -47 -19 3
v -23 20 35
v -30 20 36
v -31 16 44
v -24 16 41
v -61 -23 8
v -40 -32 -3
v -45 -35 -5
v -57 -29 5
v -39 -35 8
v -57 -28 10
v -37 -32 5
v -45 -25 7
v -53 -21 10
v -61 -23 10
v -55 -21 3
v -47 -25 2
v -20 -12 48
v -22 -2 49
v -35 -6 71
v -36 -11 71
v -32 -10 58
v -26 -12 43
v -25 -2 42
v -32 -6 58
v -55 -7 98
v -48 -6 97
v -48 -17 99
v -55 -17 98
v -33 34 8
v -30 26 18
v -29 37 11
v -23 33 8
v -24 25 17
v -29 31 4
v -25 12 24
v -29 13 25
v -22 -5 46
v -16 -9 43
v -22 -9 40
v -29 -8 45
v -16 40 0
v -15 39 4
v -39 32 3
v -32 34 -1
v -19 48 9
v -34 38 5
v -17 42 9
v -26 36 11
v -23 34 6
v -31 28 4
v -39 32 5
v -33 34 11
v -51 12 157
v -55 13 159
v -52 16 165
v -47 15 163
v -51 7 160
v -48 11 166
v -55 9 162
v -50 12 168
v -53 6 149
v -57 7 151
v -56 12 157
v -50 11 156
v -53 2 152
v -51 7 159
v -57 3 154
v -56 8 160
v -34 4 135
v -36 8 151
v -36 2 152
v -35 -1 137
v -33 2 133
v -35 16 122
v -37 15 121
v -36 4 134
v -39 8 150
v -39 2 151
v -37 -1 136
v -37 -13 125
v -35 -15 126
v -34 -15 123
v -53 -15 122
v -52 -15 119
v -35 2 133
v -35 15 119
v -50 15 115
v -51 15 118
v -53 4 120
v -53 5 123
v -52 16 118
v -55 5 123
v -52 15 130
v -37 15 133
v -39 17 137
v -54 17 134
v -55 7 135
v -55 7 139
v -55 19 134
v -57 7 138
v -37 19 137
v -35 17 134
v -54 17 130
v -36 7 141
v -38 7 143
v -36 7 145
v -34 7 142
v -53 15 139
v -38 15 141
v -40 16 145
v -54 15 141
v -56 8 143
v -56 8 146
v -55 18 141
v -58 8 146
v -38 19 145
v -37 18 143
v -55 18 139
v -37 8 146
v -38 8 148
v -36 8 150
v -35 8 147
v -33 16 119
v -52 16 115
v -51 16 123
v -35 16 126
v -38 16 129
v -51 16 125
v -53 5 128
v -53 5 130
v -53 18 125
v -55 5 130
v -36 18 130
v -34 18 126
v -53 18 123
v -37 5 136
v -37 6 139
v -35 6 140
v -35 5 136
v -39 -10 141
v -38 -10 137
v -53 -12 134
v -54 -10 138
v -37 -12 141
v -36 1 147
v -38 1 145
v -37 1 143
v -55 -12 138
v -36 -12 138
v -35 1 144
v -55 1 137
v -55 1 141
v -57 1 140
v -55 -14 134
v -40 -7 149
v -39 -8 145
v -54 -8 143
v -55 -8 145
v -38 -10 149
v -37 2 151
v -38 2 149
v -37 2 147
v -56 -11 145
v -37 -11 147
v -35 2 148
v -56 2 144
v -56 2 147
v -58 2 147
v -56 -11 143
v -36 -13 122
v -50 -13 119
v -52 -13 122
v -53 -1 125
v -55 -1 125
v -53 -2 122
v -38 -13 133
v -36 -13 130
v -52 -13 127
v -52 -13 129
v -36 -15 134
v -35 1 142
v -37 1 141
v -36 1 139
v -54 -15 129
v -35 -15 130
v -35 1 139
v -53 -1 130
v -53 -1 132
v -55 -1 132
v -54 -15 127
v -48 20 146
v -49 20 149
v -49 -10 153
v -49 -10 150
v -60 -8 151
v -60 -10 148
v -59 18 147
v -59 20 144
v -53 -3 104
v -48 -3 103
v -48 -3 112
v -53 -3 112
v -48 2 102
v -53 3 103
v -53 3 111
v -48 3 111
v -48 -13 104
v -60 -11 90
v -48 -6 95
v -35 -12 106
v -43 0 102
v -56 0 100
v -48 12 104
v -35 11 106
v -48 6 95
v -60 10 90
v -40 2 83
v -40 -4 83
v -3 42 0
v -4 51 10
v -16 45 10
v -13 39 4
v -14 40 -1
v -6 44 0
v -7 53 8
v -19 47 12
v -38 -34 6
v -25 -39 2
v -31 -38 -8
v -39 -34 -3
v -43 -37 -4
v -36 -39 -8
v -39 -35 7
v -28 -41 4
v -25 13 163
v -26 7 167
v -29 8 163
v -28 17 160
v -32 21 165
v -23 17 172
v -31 6 176
v -28 4 169
v -31 7 171
v -35 3 167
v -34 8 164
v -29 8 159
v -34 9 160
v -34 16 160
v -32 16 162
v -34 21 165
v -39 24 166
v -29 24 172
v -30 25 177
v -31 21 180
v -31 17 183
v -31 12 180
v -39 8 180
v -35 5 173
v -36 2 166
v -34 2 159
v -32 5 160
v -31 7 156
v -34 5 154
v -36 15 159
v -38 14 161
v -43 19 164
v -47 13 170
v -41 28 171
v -35 26 173
v -45 20 179
v -41 11 182
v -33 13 181
v -44 7 172
v -39 5 168
v -39 5 162
v -40 10 157
v -45 5 151
v -42 1 156
v -46 1 156
v -45 4 164
v -50 5 166
v -43 5 171
v -41 5 168
v -42 7 153
v -45 12 158
v -49 16 158
v -42 19 164
v -40 18 162
v -48 3 114
v -53 3 113
v -57 8 146
v -52 8 146
v -48 -2 116
v -52 2 147
v -53 -2 115
v -57 2 147

f 1 2 3
f 1 3 4
f 1 4 5
f 1 5 6
f 1 6 7
f 1 7 2
f 2 7 8
f 2 8 9
f 2 9 10
f 2 10 3
f 3 10 11
f 3 11 12
f 3 12 4
f 4 12 13
f 4 13 14
f 4 14 5
f 5 14 15
f 5 15 16
f 5 16 6
f 6 16 17
f 6 17 18
f 6 18 7
f 7 18 13
f 7 13 8
f 8 13 12
f 8 12 19
f 8 19 9
f 9 19 20
f 9 20 21
f 9 21 10
f 10 21 22
f 10 22 11
f 11 22 23
f 11 23 19
f 11 19 12
f 20 15 24
f 20 24 21
f 21 24 17
f 21 17 22
f 22 17 16
f 22 16 23
f 23 16 15
f 23 15 20
f 23 20 19
f 15 14 24
f 24 14 18
f 24 18 17
f 13 18 14
f 25 26 27
f 25 27 28
f 25 28 29
f 25 29 30
f 25 30 31
f 25 31 26
f 26 31 27
f 27 31 32
f 27 32 33
f 27 33 34
f 27 34 28
f 28 34 35
f 28 35 29
f 29 35 36
f 36 35 33
f 33 35 34
f 37 38 39
f 37 39 40
f 40 39 41
f 40 41 42
f 42 41 43
f 42 43 44
f 44 43 45
f 45 43 46
f 45 46 47
f 47 46 48
f 47 48 37
f 37 48 38
f 38 48 39
f 39 48 46
f 39 46 43
f 39 43 41
f 49 50 51
f 49 51 52
f 49 52 53
f 49 53 54
f 49 54 50
f 50 54 55
f 55 54 56
f 56 54 57
f 56 57 58
f 56 58 59
f 59 58 60
f 60 58 61
f 60 61 52
f 60 52 51
f 53 62 54
f 54 62 57
f 57 62 58
f 58 62 61
f 61 62 53
f 61 53 52
f 63 64 65
f 63 65 66
f 63 66 67
f 63 67 68
f 63 68 69
f 63 69 64
f 64 69 70
f 64 70 71
f 64 71 72
f 64 72 65
f 65 72 73
f 65 73 74
f 65 74 66
f 66 74 75
f 66 75 76
f 66 76 67
f 67 76 77
f 67 77 78
f 67 78 68
f 68 78 79
f 68 79 80
f 68 80 69
f 69 80 75
f 69 75 70
f 69 70 81
f 69 81 82
f 69 82 13
f 69 13 63
f 63 13 4
f 63 4 83
f 63 83 84
f 63 84 64
f 64 84 85
f 64 85 86
f 64 86 70
f 70 86 87
f 70 87 88
f 70 88 81
f 81 88 82
f 82 88 89
f 82 89 90
f 82 90 13
f 13 90 12
f 12 90 91
f 12 91 92
f 12 92 3
f 3 92 93
f 3 93 94
f 3 94 95
f 3 95 4
f 4 95 83
f 83 95 94
f 83 94 96
f 83 96 84
f 84 96 97
f 84 97 85
f 85 97 98
f 85 98 86
f 71 99 100
f 71 100 72
f 72 100 101
f 72 101 73
f 73 101 102
f 73 102 103
f 73 103 74
f 74 103 70
f 74 70 75
f 99 77 104
f 99 104 100
f 100 104 79
f 100 79 101
f 101 79 78
f 101 78 102
f 102 78 77
f 102 77 99
f 102 99 103
f 103 99 71
f 103 71 70
f 77 76 104
f 104 76 80
f 104 80 79
f 76 75 80
f 105 106 107
f 105 107 108
f 105 108 109
f 105 109 110
f 105 110 111
f 105 111 112
f 105 112 106
f 106 112 107
f 107 112 113
f 107 113 114
f 107 114 108
f 108 114 115
f 108 115 109
f 109 115 116
f 109 116 110
f 114 116 115
f 117 118 119
f 117 119 120
f 117 120 121
f 117 121 122
f 117 122 123
f 117 123 124
f 117 124 118
f 118 124 125
f 118 125 119
f 125 124 123
f 125 123 126
f 126 123 122
f 126 122 127
f 127 122 128
f 128 122 121
f 128 121 120
f 129 130 131
f 129 131 132
f 129 132 133
f 129 133 134
f 134 133 135
f 134 135 136
f 136 135 137
f 137 135 138
f 137 138 139
f 137 139 140
f 140 139 130
f 130 139 131
f 131 139 141
f 131 141 132
f 132 141 133
f 133 141 142
f 133 142 135
f 135 142 138
f 138 142 139
f 139 142 141
f 143 144 91
f 143 91 90
f 143 90 89
f 92 91 144
f 145 146 147
f 145 147 148
f 145 148 149
f 145 149 150
f 145 150 151
f 145 151 152
f 145 152 146
f 146 152 153
f 146 153 147
f 147 153 154
f 147 154 155
f 147 155 148
f 148 155 156
f 148 156 149
f 157 158 159
f 159 158 160
f 159 160 161
f 159 161 162
f 162 161 163
f 162 163 164
f 164 163 158
f 164 158 157
f 165 158 163
f 165 163 161
f 165 161 166
f 165 166 167
f 165 167 168
f 165 168 158
f 158 168 160
f 160 168 167
f 160 167 161
f 161 167 166
f 169 170 171
f 169 171 172
f 172 171 173
f 172 173 174
f 174 173 175
f 174 175 176
f 174 176 177
f 174 177 178
f 178 177 179
f 178 179 169
f 169 179 180
f 169 180 170
f 170 180 176
f 170 176 175
f 177 180 179
f 180 177 176
f 181 182 183
f 181 183 184
f 181 184 185
f 181 185 186
f 181 186 187
f 181 187 182
f 182 187 188
f 182 188 183
f 183 188 189
f 183 189 190
f 183 190 191
f 183 191 184
f 184 191 192
f 184 192 185
f 193 194 195
f 195 194 196
f 196 194 197
f 196 197 198
f 198 197 199
f 198 199 193
f 193 199 200
f 193 200 194
f 194 200 201
f 194 201 202
f 194 202 197
f 197 202 199
f 199 202 203
f 199 203 204
f 199 204 200
f 200 204 201
f 201 204 202
f 202 204 203
f 205 206 207
f 205 207 208
f 205 208 209
f 209 208 210
f 209 210 211
f 211 210 212
f 211 212 206
f 206 212 213
f 206 213 207
f 207 213 214
f 207 214 215
f 207 215 210
f 210 215 216
f 210 216 212
f 212 216 213
f 213 216 214
f 214 216 215
f 217 218 219
f 217 219 220
f 217 220 221
f 221 220 222
f 221 222 223
f 223 222 224
f 223 224 218
f 218 224 219
f 225 226 227
f 225 227 228
f 225 228 229
f 229 228 230
f 229 230 231
f 231 230 232
f 231 232 226
f 226 232 227
f 233 234 235
f 233 235 236
f 233 236 237
f 233 237 238
f 233 238 239
f 233 239 240
f 233 240 234
f 234 240 241
f 234 241 235
f 235 241 242
f 235 242 236
f 236 242 243
f 236 243 244
f 236 244 245
f 236 245 237
f 237 245 246
f 246 245 247
f 246 247 248
f 249 243 242
f 249 242 241
f 249 241 240
f 249 240 250
f 250 240 239
f 250 239 251
f 251 239 252
f 251 252 253
f 253 252 254
f 254 252 255
f 254 255 256
f 257 258 259
f 257 259 260
f 257 260 261
f 261 260 262
f 262 260 263
f 262 263 264
f 260 259 265
f 260 265 263
f 263 265 266
f 263 266 267
f 258 268 269
f 258 269 259
f 259 269 270
f 259 270 265
f 265 270 271
f 265 271 266
f 272 273 274
f 272 274 275
f 272 275 276
f 276 275 277
f 277 275 278
f 277 278 279
f 275 274 280
f 275 280 278
f 278 280 281
f 278 281 282
f 273 283 284
f 273 284 274
f 274 284 285
f 274 285 280
f 280 285 286
f 280 286 281
f 252 239 238
f 252 238 255
f 255 238 287
f 255 287 288
f 287 238 237
f 289 290 291
f 289 291 292
f 289 292 293
f 293 292 294
f 294 292 295
f 294 295 296
f 292 291 297
f 292 297 295
f 295 297 298
f 295 298 299
f 290 300 301
f 290 301 291
f 291 301 302
f 291 302 297
f 297 302 303
f 297 303 298
f 290 298 300
f 304 305 306
f 304 306 307
f 304 307 308
f 304 308 309
f 304 309 310
f 304 310 305
f 305 310 311
f 308 307 312
f 308 312 313
f 308 313 314
f 308 314 309
f 307 306 315
f 307 315 316
f 307 316 312
f 312 316 317
f 313 312 318
f 319 320 321
f 319 321 322
f 319 322 323
f 319 323 324
f 319 324 325
f 319 325 320
f 320 325 326
f 323 322 327
f 323 327 328
f 323 328 329
f 323 329 324
f 322 321 330
f 322 330 331
f 322 331 327
f 327 331 332
f 328 327 333
f 244 334 335
f 244 335 336
f 244 336 245
f 245 336 247
f 247 336 337
f 247 337 338
f 243 249 334
f 243 334 244
f 336 335 339
f 336 339 337
f 340 341 342
f 340 342 343
f 340 343 344
f 340 344 345
f 340 345 346
f 340 346 341
f 341 346 347
f 344 343 348
f 344 348 349
f 344 349 350
f 344 350 345
f 347 350 349
f 343 342 351
f 343 351 352
f 343 352 348
f 348 352 353
f 349 348 354
f 355 356 357
f 355 357 358
f 358 357 359
f 358 359 360
f 360 359 361
f 360 361 362
f 362 361 356
f 362 356 355
f 356 361 359
f 356 359 357
f 363 364 365
f 363 365 366
f 367 368 369
f 367 369 370
f 367 370 364
f 364 370 365
f 371 372 373
f 371 373 374
f 371 374 375
f 371 375 376
f 376 375 377
f 377 375 378
f 377 378 379
f 377 379 380
f 380 379 381
f 381 379 378
f 381 378 375
f 381 375 382
f 382 375 374
f 382 374 373
f 382 373 372
f 383 384 385
f 383 385 386
f 383 386 387
f 383 387 388
f 383 388 384
f 384 388 389
f 384 389 385
f 385 389 390
f 390 389 388
f 390 388 387
f 391 392 393
f 391 393 394
f 394 393 395
f 395 393 396
f 395 396 397
f 397 396 398
f 397 398 391
f 391 398 392
f 392 398 396
f 392 396 393
f 399 400 401
f 399 401 402
f 399 402 403
f 399 403 404
f 399 404 400
f 400 404 405
f 400 405 406
f 400 406 401
f 401 406 407
f 401 407 408
f 401 408 409
f 401 409 410
f 401 410 411
f 401 411 412
f 401 412 413
f 401 413 402
f 402 413 414
f 402 414 403
f 403 414 415
f 403 415 416
f 403 416 404
f 404 416 417
f 404 417 418
f 404 418 419
f 404 419 420
f 404 420 405
f 405 420 421
f 405 421 422
f 405 422 406
f 406 422 407
f 407 422 408
f 408 422 423
f 408 423 424
f 408 424 425
f 408 425 409
f 409 425 410
f 410 425 426
f 410 426 411
f 411 426 412
f 412 426 427
f 412 427 428
f 412 428 414
f 412 414 413
f 414 429 415
f 415 429 430
f 415 430 431
f 415 431 432
f 415 432 416
f 416 432 433
f 416 433 417
f 417 433 432
f 417 432 434
f 417 434 418
f 418 434 419
f 419 434 435
f 419 435 436
f 419 436 420
f 420 436 435
f 420 435 421
f 421 435 431
f 421 431 437
f 421 437 438
f 421 438 422
f 422 438 423
f 423 438 439
f 423 439 424
f 414 428 429
f 429 428 440
f 440 428 427
f 432 431 434
f 434 431 435
f 424 426 425
f 426 424 427
f 441 442 443
f 443 442 444
f 443 444 445
f 445 444 446
f 446 444 447
f 448 442 441
f 448 441 449
f 449 441 450
f 449 450 451
f 449 451 452
f 453 454 455
f 453 455 456
f 453 456 457
f 457 456 458
f 457 458 459
f 459 458 460
