# RS2 Model 12505
# Vertices: 213
# Faces: 388

v -16 10 131
v -4 6 126
v -2 10 122
v -20 13 128
v -30 6 131
v -30 4 133
v -26 2 131
v -17 7 129
v -13 5 125
v -7 0 117
v -2 -1 121
v -4 0 129
v 4 6 126
v 2 10 122
v 3 11 124
v -3 11 124
v -38 19 136
v -21 10 126
v -26 3 129
v -29 5 127
v -33 5 126
v -33 0 128
v -29 1 130
v -27 0 126
v -24 0 126
v -13 9 122
v -7 4 115
v 7 0 117
v 2 -1 121
v 2 -3 123
v -2 -3 123
v -5 -5 129
v -6 -2 134
v -6 1 133
v -2 -3 131
v 4 0 129
v 13 5 125
v 17 7 129
v 16 10 131
v 20 13 128
v 38 19 136
v 36 21 134
v 2 13 123
v -2 13 123
v -36 21 134
v -38 62 107
v -38 59 101
v -38 16 130
v -17 9 122
v -9 3 113
v 7 4 115
v 13 9 122
v 21 10 126
v 26 3 129
v 26 2 131
v 30 4 133
v 30 6 131
v 38 15 130
v 38 62 107
v 36 60 108
v 2 53 97
v -2 53 97
v -36 60 108
v -3 54 95
v -17 52 93
v -4 46 84
v 9 3 113
v 17 9 122
v 38 58 101
v 3 54 95
v -4 0 134
v -3 -11 130
v 2 -3 131
v 4 0 134
v 6 1 133
v 5 -5 129
v 2 -5 122
v -2 -5 122
v -4 -10 127
v -2 -17 125
v 3 -11 130
v 6 -2 134
v 4 -3 138
v -4 -3 138
v -2 -14 122
v -2 -15 120
v 2 -14 122
v 2 -15 120
v 2 -17 125
v 4 -10 127
v -32 4 121
v -32 -2 123
v -30 4 122
v -30 3 118
v -30 -3 120
v -30 -1 124
v -27 2 125
v -26 0 123
v -24 1 126
v 17 52 93
v 3 46 84
v 5 50 75
v 5 54 81
v 0 48 76
v -5 56 62
v -2 56 62
v -2 58 64
v 1 52 82
v 33 0 128
v 33 5 126
v 29 5 127
v 27 2 125
v 24 1 126
v 24 0 126
v 29 1 130
v 30 -1 124
v 32 -2 123
v 32 4 121
v 30 4 122
v 27 0 126
v 26 0 123
v 30 3 118
v 30 -3 120
v -4 58 64
v -3 57 50
v -28 62 112
v -2 58 105
v -2 52 96
v -32 59 106
v -28 25 137
v -2 21 130
v 2 58 105
v 2 52 96
v -32 22 131
v -2 15 121
v 2 21 130
v 28 63 111
v 32 59 106
v 28 26 136
v 2 15 121
v 32 22 131
v 3 40 55
v 11 31 55
v 14 31 46
v 4 44 46
v -3 40 55
v -3 37 65
v 2 37 65
v 9 30 65
v 3 18 55
v 4 14 46
v -4 44 46
v -11 31 55
v -10 30 65
v -10 30 95
v -3 37 90
v 2 37 90
v 9 30 95
v 2 21 65
v -3 18 55
v -4 14 46
v -14 31 46
v -3 21 65
v -3 21 101
v 2 21 101
v 30 30 6
v 27 30 0
v 12 60 6
v 9 51 15
v 24 30 15
v 12 -2 6
v 11 2 0
v 11 56 0
v -11 60 6
v -8 51 15
v -22 30 15
v 9 7 15
v -11 -2 6
v -10 2 0
v -10 56 0
v -28 30 6
v -25 30 0
v -8 7 15
v 23 30 39
v 20 30 34
v 8 51 39
v 5 46 46
v 17 30 46
v 8 7 39
v 8 9 34
v 5 12 25
v 16 30 25
v 8 49 34
v -8 51 39
v -6 46 46
v -16 30 46
v 5 12 46
v -8 7 39
v -7 9 34
v -6 12 25
v -6 10 15
v 5 10 15
v 17 30 15
v 5 46 25
v -7 49 34
v -21 30 39
v -18 30 34
v -6 12 46
v -16 30 25
v -17 30 15
v -6 46 25
v -6 48 15
v 5 48 15

f 1 2 3
f 1 3 4
f 1 4 5
f 1 5 6
f 1 6 7
f 1 7 8
f 1 8 2
f 2 8 9
f 2 9 10
f 2 10 11
f 2 11 12
f 2 12 13
f 2 13 14
f 2 14 3
f 3 14 15
f 3 15 16
f 3 16 4
f 4 16 17
f 4 17 18
f 4 18 5
f 5 18 19
f 5 19 20
f 5 20 21
f 5 21 6
f 6 21 22
f 6 22 7
f 7 22 23
f 7 23 24
f 7 24 25
f 7 25 19
f 7 19 18
f 7 18 8
f 8 18 9
f 9 18 26
f 9 26 10
f 10 26 27
f 10 27 28
f 10 28 29
f 10 29 11
f 11 29 30
f 11 30 31
f 11 31 12
f 12 31 32
f 12 32 33
f 12 33 34
f 12 34 35
f 12 35 36
f 12 36 13
f 13 36 30
f 13 30 29
f 13 29 28
f 13 28 37
f 13 37 38
f 13 38 39
f 13 39 40
f 13 40 14
f 14 40 41
f 14 41 15
f 15 41 42
f 15 42 43
f 15 43 16
f 16 43 44
f 16 44 17
f 17 44 45
f 17 45 46
f 17 46 47
f 17 47 48
f 17 48 18
f 18 48 26
f 26 48 49
f 26 49 27
f 27 49 50
f 27 50 51
f 27 51 28
f 28 51 37
f 37 51 52
f 37 52 38
f 38 52 53
f 38 53 54
f 38 54 55
f 38 55 56
f 38 56 39
f 39 56 40
f 40 56 57
f 40 57 54
f 40 54 53
f 40 53 58
f 40 58 41
f 41 58 59
f 41 59 60
f 41 60 42
f 42 60 61
f 42 61 43
f 43 61 62
f 43 62 44
f 44 62 63
f 44 63 45
f 45 63 46
f 46 63 64
f 46 64 65
f 46 65 47
f 47 65 48
f 48 65 49
f 49 65 66
f 49 66 50
f 50 66 67
f 50 67 51
f 51 67 52
f 52 67 68
f 52 68 53
f 53 68 58
f 58 68 69
f 58 69 59
f 59 69 70
f 59 70 61
f 59 61 60
f 34 71 35
f 35 71 32
f 35 32 72
f 35 72 73
f 35 73 36
f 36 73 74
f 36 74 75
f 36 75 76
f 36 76 30
f 30 76 77
f 30 77 31
f 31 77 78
f 31 78 79
f 31 79 32
f 32 79 72
f 72 79 80
f 72 80 81
f 72 81 73
f 73 81 76
f 73 76 82
f 73 82 74
f 74 82 83
f 74 83 75
f 75 83 82
f 75 82 76
f 71 33 32
f 33 71 84
f 33 84 34
f 34 84 71
f 85 86 80
f 85 80 79
f 85 79 78
f 85 78 87
f 85 87 88
f 85 88 86
f 86 88 89
f 86 89 80
f 80 89 81
f 81 89 90
f 81 90 76
f 76 90 77
f 77 90 89
f 77 89 87
f 77 87 78
f 91 92 22
f 91 22 21
f 91 21 93
f 91 93 94
f 91 94 92
f 92 94 95
f 92 95 96
f 92 96 23
f 92 23 22
f 96 93 20
f 96 20 23
f 23 20 97
f 23 97 24
f 24 97 98
f 24 98 25
f 25 98 99
f 25 99 19
f 19 99 20
f 20 99 97
f 97 99 98
f 93 21 20
f 93 96 95
f 93 95 94
f 69 100 70
f 70 100 101
f 70 101 102
f 70 102 103
f 70 103 64
f 70 64 62
f 70 62 61
f 100 68 67
f 100 67 101
f 101 67 66
f 101 66 104
f 101 104 102
f 102 104 105
f 102 105 106
f 102 106 103
f 103 106 107
f 103 107 108
f 103 108 64
f 64 108 66
f 64 66 65
f 68 100 69
f 89 88 87
f 57 56 109
f 57 109 110
f 57 110 54
f 54 110 111
f 54 111 112
f 54 112 113
f 54 113 55
f 55 113 114
f 55 114 115
f 55 115 56
f 56 115 109
f 109 115 116
f 109 116 117
f 109 117 110
f 110 117 118
f 110 118 111
f 111 118 119
f 111 119 115
f 111 115 120
f 111 120 112
f 112 120 121
f 112 121 113
f 113 121 114
f 114 121 120
f 114 120 115
f 115 119 116
f 116 119 122
f 116 122 123
f 116 123 117
f 117 123 118
f 118 123 122
f 118 122 119
f 108 104 66
f 104 108 124
f 104 124 105
f 105 124 125
f 105 125 106
f 106 125 107
f 107 125 124
f 107 124 108
f 126 127 128
f 126 128 129
f 126 129 130
f 126 130 127
f 127 130 131
f 127 131 132
f 127 132 133
f 127 133 128
f 131 130 134
f 131 134 135
f 131 135 136
f 131 136 132
f 132 136 137
f 132 137 138
f 132 138 133
f 129 134 130
f 139 136 140
f 139 140 141
f 139 141 137
f 139 137 136
f 141 138 137
f 135 140 136
f 142 143 144
f 142 144 145
f 142 145 146
f 142 146 147
f 142 147 148
f 142 148 143
f 143 148 149
f 143 149 150
f 143 150 151
f 143 151 144
f 146 145 152
f 146 152 153
f 146 153 154
f 146 154 147
f 147 154 155
f 147 155 156
f 147 156 148
f 148 156 157
f 148 157 149
f 149 157 158
f 149 158 159
f 149 159 150
f 150 159 160
f 150 160 161
f 150 161 151
f 153 152 162
f 153 162 160
f 153 160 163
f 153 163 154
f 154 163 164
f 154 164 155
f 155 164 165
f 155 165 158
f 155 158 157
f 155 157 156
f 160 162 161
f 160 159 163
f 163 159 165
f 163 165 164
f 159 158 165
f 166 167 168
f 166 168 169
f 166 169 170
f 166 170 171
f 166 171 172
f 166 172 167
f 168 167 173
f 168 173 174
f 168 174 175
f 168 175 169
f 169 175 176
f 169 176 170
f 170 176 177
f 170 177 171
f 171 177 178
f 171 178 179
f 171 179 172
f 174 173 180
f 174 180 181
f 174 181 176
f 174 176 175
f 181 180 182
f 181 182 178
f 181 178 183
f 181 183 176
f 176 183 177
f 177 183 178
f 178 182 179
f 184 185 186
f 184 186 187
f 184 187 188
f 184 188 189
f 184 189 190
f 184 190 185
f 185 190 191
f 185 191 192
f 185 192 193
f 185 193 186
f 186 193 194
f 186 194 195
f 186 195 187
f 187 195 196
f 187 196 188
f 188 196 197
f 188 197 189
f 189 197 198
f 189 198 199
f 189 199 190
f 190 199 200
f 190 200 191
f 191 200 201
f 191 201 202
f 191 202 192
f 192 202 203
f 192 203 204
f 192 204 193
f 193 204 205
f 193 205 194
f 194 205 206
f 194 206 196
f 194 196 195
f 206 205 207
f 206 207 198
f 206 198 208
f 206 208 196
f 196 208 197
f 197 208 198
f 198 207 199
f 199 207 209
f 199 209 200
f 200 209 210
f 200 210 201
f 205 204 211
f 205 211 207
f 207 211 209
f 209 211 212
f 209 212 210
f 204 203 213
f 204 213 211
f 211 213 212
f 64 63 62
