# RS2 Model 12564
# Vertices: 256
# Faces: 402

v 68 0 0
v 63 -2 0
v 65 -9 17
v 68 -5 17
v 71 -4 0
v 70 -11 17
v 67 -7 0
v 67 -12 17
v 47 -15 17
v 50 -14 17
v 46 -10 0
v 42 -12 0
v 48 -20 17
v 44 -18 0
v 52 -19 17
v 49 -14 0
v 78 -27 17
v 75 -29 17
v 77 -32 0
v 82 -30 0
v 76 -23 17
v 80 -25 0
v 72 -24 17
v 75 -26 0
v 55 -41 0
v 60 -39 0
v 59 -36 17
v 57 -37 17
v 54 -38 0
v 55 -33 17
v 59 -34 0
v 58 -30 17
v 44 -11 24
v 65 -1 24
v 65 -1 18
v 44 -11 18
v 37 -24 24
v 57 -41 24
v 81 -4 24
v 81 -4 18
v 87 -19 24
v 87 -19 18
v 79 -32 24
v 79 -32 18
v 57 -41 18
v 42 -38 24
v 42 -38 18
v 37 -24 18
v 1 -32 114
v 3 -32 114
v 3 -27 105
v 1 -27 105
v -2 -34 113
v -5 -34 115
v 1 -29 117
v 3 -29 117
v 6 -34 113
v 5 -29 104
v 5 -27 94
v 3 -25 94
v 1 -25 94
v -1 -29 104
v -2 -37 112
v -5 -40 112
v -7 -41 118
v -7 -33 120
v 1 -29 122
v 3 -29 122
v 9 -34 115
v 6 -37 112
v 5 -32 103
v 5 -31 95
v 11 -43 86
v 11 -30 86
v 4 -25 86
v 0 -25 86
v -1 -27 94
v -1 -32 103
v 1 -39 111
v 1 -43 110
v -1 -47 120
v 1 -49 123
v -7 -42 127
v -7 -36 128
v 1 -28 128
v 3 -28 128
v 11 -33 120
v 9 -40 112
v 3 -39 111
v 3 -33 102
v 3 -32 95
v 4 -45 86
v 1 -33 102
v 1 -32 95
v 0 -45 86
v -1 -31 95
v -7 -43 86
v -7 -30 86
v 3 -43 110
v 5 -47 120
v 3 -49 123
v 2 -47 130
v -5 -43 130
v -5 -36 131
v 2 -30 131
v 11 -36 128
v 11 -41 118
v 11 -42 127
v 9 -43 130
v 5 -35 135
v 2 -38 136
v -1 -35 135
v 2 -32 133
v 9 -36 131
v 2 -31 135
v 4 -32 137
v 2 -34 138
v 0 -32 137
v 0 -28 138
v 2 -28 136
v 4 -28 138
v 2 -29 140
v 2 -22 139
v 0 -22 138
v 2 -23 136
v 4 -22 138
v -8 -59 86
v -21 -46 86
v -22 -46 85
v -8 -60 85
v 12 -59 86
v 25 -46 86
v 25 -26 86
v 12 -12 86
v -8 -12 86
v -21 -26 86
v -22 -24 85
v -24 -24 74
v -24 -48 74
v -10 -62 74
v 12 -60 85
v 26 -46 85
v 26 -24 85
v 12 -12 85
v -8 -12 85
v -10 -10 74
v 14 -10 74
v 28 -24 74
v 28 -48 74
v 14 -62 74
v -3 -21 21
v 7 -21 21
v 10 -17 0
v -6 -17 0
v -13 -29 21
v -13 -29 46
v -3 -21 46
v 7 -21 46
v 17 -29 21
v 21 -28 0
v 17 -41 21
v 21 -44 0
v 7 -51 21
v 10 -55 0
v -3 -51 21
v -6 -55 0
v -13 -41 21
v -17 -44 0
v -17 -28 0
v 17 -29 46
v 17 -41 46
v 7 -51 46
v -3 -51 46
v -13 -41 46
v -17 -41 74
v -17 -28 74
v -3 -17 74
v 7 -17 74
v 21 -28 74
v 21 -41 74
v 7 -55 74
v -3 -55 74
v -48 -27 26
v -74 -58 26
v -74 -58 0
v -48 -27 0
v -71 -8 26
v -71 -13 26
v -53 -28 26
v -74 -53 26
v -97 -38 26
v -97 -38 0
v -71 -8 0
v -53 -28 5
v -74 -53 5
v -71 -13 5
v -92 -37 5
v -92 -37 26
v -58 -19 52
v -84 -49 52
v -88 -46 54
v -100 -36 29
v -74 -5 29
v -62 -16 54
v -66 -12 52
v -92 -43 52
v -96 -39 45
v -100 -36 34
v -74 -5 34
v -70 -8 45
v -33 22 33
v -73 22 33
v -73 20 27
v -33 20 27
v -33 50 33
v -33 46 36
v -33 36 38
v -33 27 37
v -73 27 37
v -73 36 38
v -73 46 36
v -73 50 33
v -73 50 27
v -33 50 27
v -33 20 25
v -33 50 25
v -72 50 27
v -72 50 25
v -73 20 25
v -73 20 -1
v -33 20 -1
v -33 50 -1
v -72 50 -1
v 73 29 8
v 73 29 0
v 69 26 0
v 69 26 8
v 59 12 8
v 62 9 8
v 75 26 8
v 75 26 0
v 74 20 8
v 74 20 0
v 70 15 8
v 70 15 0
v 62 9 0
v 59 12 0
v 64 21 8
v 64 21 0
v 28 51 8
v 28 51 0
v 31 56 8
v 31 56 0
v 30 -16 19
v 45 -46 18
v 75 5 21

f 1 2 3
f 1 3 4
f 1 4 5
f 5 4 6
f 5 6 7
f 7 6 8
f 7 8 2
f 2 8 3
f 9 10 11
f 9 11 12
f 9 12 13
f 13 12 14
f 13 14 15
f 15 14 16
f 15 16 10
f 10 16 11
f 17 18 19
f 17 19 20
f 17 20 21
f 21 20 22
f 21 22 23
f 23 22 24
f 23 24 18
f 18 24 19
f 25 26 27
f 25 27 28
f 25 28 29
f 29 28 30
f 29 30 31
f 31 30 32
f 31 32 26
f 26 32 27
f 33 34 35
f 33 35 36
f 33 36 37
f 33 37 38
f 33 38 34
f 34 38 39
f 34 39 40
f 34 40 35
f 39 41 42
f 39 42 40
f 41 43 44
f 41 44 42
f 43 38 45
f 43 45 44
f 38 46 47
f 38 47 45
f 46 37 48
f 46 48 47
f 37 36 48
f 37 46 38
f 38 41 39
f 41 38 43
f 49 50 51
f 49 51 52
f 49 52 53
f 49 53 54
f 49 54 55
f 49 55 50
f 50 55 56
f 50 56 57
f 50 57 58
f 50 58 51
f 51 58 59
f 51 59 60
f 51 60 52
f 52 60 61
f 52 61 62
f 52 62 53
f 53 62 63
f 53 63 64
f 53 64 54
f 54 64 65
f 54 65 66
f 54 66 55
f 55 66 67
f 55 67 56
f 56 67 68
f 56 68 69
f 56 69 57
f 57 69 70
f 57 70 71
f 57 71 58
f 58 71 72
f 58 72 59
f 59 72 73
f 59 73 74
f 59 74 60
f 60 74 75
f 60 75 61
f 61 75 76
f 61 76 77
f 61 77 62
f 62 77 78
f 62 78 63
f 63 78 79
f 63 79 80
f 63 80 64
f 64 80 81
f 64 81 65
f 65 81 82
f 65 82 83
f 65 83 66
f 66 83 84
f 66 84 67
f 67 84 85
f 67 85 68
f 68 85 86
f 68 86 87
f 68 87 69
f 69 87 88
f 69 88 70
f 70 88 89
f 70 89 90
f 70 90 71
f 71 90 91
f 71 91 72
f 72 91 92
f 72 92 73
f 89 79 93
f 89 93 90
f 90 93 94
f 90 94 91
f 91 94 95
f 91 95 92
f 79 78 93
f 93 78 96
f 93 96 94
f 94 96 97
f 94 97 95
f 78 77 96
f 96 77 98
f 96 98 97
f 77 76 98
f 89 88 99
f 89 99 79
f 79 99 80
f 80 99 100
f 80 100 81
f 81 100 101
f 81 101 82
f 82 101 102
f 82 102 83
f 83 102 103
f 83 103 84
f 84 103 104
f 84 104 85
f 85 104 105
f 85 105 86
f 86 105 106
f 86 106 87
f 87 106 107
f 87 107 88
f 88 107 99
f 99 107 100
f 100 107 108
f 100 108 101
f 101 108 109
f 101 109 102
f 102 109 110
f 102 110 111
f 102 111 103
f 103 111 112
f 103 112 104
f 104 112 105
f 105 112 113
f 105 113 114
f 105 114 106
f 106 114 108
f 106 108 107
f 108 114 109
f 109 114 110
f 110 114 113
f 110 113 115
f 110 115 116
f 110 116 111
f 111 116 117
f 111 117 112
f 112 117 118
f 112 118 113
f 113 118 115
f 115 118 119
f 115 119 120
f 115 120 116
f 116 120 121
f 116 121 117
f 117 121 122
f 117 122 118
f 118 122 119
f 119 122 123
f 119 123 124
f 119 124 120
f 120 124 125
f 120 125 121
f 121 125 126
f 121 126 122
f 122 126 123
f 123 126 124
f 124 126 125
f 127 128 129
f 127 129 130
f 127 130 131
f 127 131 128
f 128 131 132
f 128 132 133
f 128 133 134
f 128 134 135
f 128 135 136
f 128 136 137
f 128 137 129
f 129 137 138
f 129 138 139
f 129 139 130
f 130 139 140
f 130 140 141
f 130 141 131
f 131 141 132
f 132 141 142
f 132 142 133
f 133 142 143
f 133 143 134
f 134 143 144
f 134 144 135
f 135 144 145
f 135 145 136
f 136 145 137
f 137 145 146
f 137 146 138
f 145 144 147
f 145 147 146
f 144 143 148
f 144 148 147
f 143 142 149
f 143 149 148
f 142 141 150
f 142 150 149
f 141 140 150
f 151 152 153
f 151 153 154
f 151 154 155
f 151 155 156
f 151 156 157
f 151 157 152
f 152 157 158
f 152 158 159
f 152 159 160
f 152 160 153
f 159 161 162
f 159 162 160
f 161 163 164
f 161 164 162
f 163 165 166
f 163 166 164
f 165 167 168
f 165 168 166
f 167 155 169
f 167 169 168
f 155 154 169
f 159 158 170
f 159 170 161
f 161 170 171
f 161 171 163
f 163 171 172
f 163 172 165
f 165 172 173
f 165 173 167
f 167 173 174
f 167 174 155
f 155 174 156
f 156 174 175
f 156 175 176
f 156 176 157
f 157 176 177
f 157 177 158
f 158 177 178
f 158 178 170
f 170 178 179
f 170 179 171
f 171 179 180
f 171 180 172
f 172 180 181
f 172 181 173
f 173 181 182
f 173 182 174
f 174 182 175
f 183 184 185
f 183 185 186
f 183 186 187
f 183 187 188
f 183 188 189
f 183 189 184
f 184 189 190
f 184 190 191
f 184 191 192
f 184 192 185
f 191 187 193
f 191 193 192
f 187 186 193
f 194 195 190
f 194 190 189
f 194 189 196
f 194 196 195
f 195 196 197
f 195 197 198
f 195 198 190
f 190 198 191
f 191 198 187
f 191 187 199
f 191 199 200
f 191 200 201
f 191 201 202
f 191 202 187
f 187 202 203
f 187 203 199
f 199 203 204
f 199 204 200
f 200 204 201
f 201 204 205
f 201 205 206
f 201 206 207
f 201 207 208
f 201 208 202
f 202 208 203
f 203 208 209
f 203 209 204
f 204 209 210
f 204 210 205
f 205 210 206
f 206 210 207
f 207 210 209
f 207 209 208
f 197 196 188
f 197 188 198
f 198 188 187
f 196 189 188
f 211 212 213
f 211 213 214
f 211 214 215
f 211 215 216
f 211 216 217
f 211 217 218
f 211 218 212
f 212 218 219
f 212 219 220
f 212 220 221
f 212 221 222
f 212 222 223
f 212 223 213
f 222 215 224
f 222 224 223
f 215 214 224
f 224 214 225
f 224 225 226
f 224 226 227
f 227 226 228
f 227 228 213
f 213 228 229
f 213 229 214
f 214 229 225
f 225 229 230
f 225 230 231
f 225 231 226
f 226 231 232
f 226 232 228
f 228 232 233
f 228 233 229
f 229 233 230
f 219 218 217
f 219 217 220
f 220 217 216
f 220 216 221
f 221 216 215
f 221 215 222
f 234 235 236
f 234 236 237
f 234 237 238
f 234 238 239
f 234 239 240
f 234 240 235
f 235 240 241
f 241 240 242
f 241 242 243
f 243 242 244
f 243 244 245
f 245 244 239
f 245 239 246
f 246 239 238
f 246 238 247
f 247 238 248
f 247 248 249
f 249 248 250
f 249 250 251
f 251 250 252
f 251 252 253
f 253 252 237
f 253 237 236
f 238 237 248
f 248 237 252
f 248 252 250
f 244 242 240
f 244 240 239
