# RS2 Model 12563
# Vertices: 249
# Faces: 402

v -32 26 0
v -40 29 0
v -44 21 57
v -39 20 57
v -34 19 0
v -41 13 57
v -42 21 0
v -46 15 57
v -74 30 57
v -69 28 57
v -69 37 0
v -76 39 0
v -76 23 57
v -79 31 0
v -71 22 57
v -71 29 0
v -49 -16 57
v -54 -14 57
v -53 -20 0
v -46 -22 0
v -47 -9 57
v -44 -14 0
v -52 -7 57
v -51 -12 0
v -90 -9 0
v -82 -11 0
v -79 -7 57
v -84 -6 57
v -88 -2 0
v -82 1 57
v -80 -4 0
v -77 0 57
v -67 36 64
v -42 29 64
v -42 29 57
v -67 36 57
v -83 27 64
v -90 3 64
v -33 13 64
v -33 13 57
v -40 -11 64
v -40 -11 57
v -56 -20 64
v -56 -20 57
v -81 -13 64
v -81 -13 57
v -90 3 57
v -83 27 57
v -76 11 91
v -78 12 91
v -82 1 91
v -80 1 91
v -74 9 82
v -70 11 82
v -71 13 91
v -71 16 91
v -78 12 64
v -82 1 64
v -78 -6 64
v -78 -6 91
v -77 -4 91
v -78 1 82
v -69 -6 82
v -64 9 82
v -62 10 91
v -60 11 91
v -71 16 64
v -68 -8 91
v -69 -10 91
v -63 -5 91
v -75 -3 82
v -61 -6 91
v -59 4 91
v -65 -4 82
v -61 4 82
v -57 4 91
v -60 11 64
v -57 4 64
v -69 -10 64
v -61 -6 64
v 36 -32 75
v 33 -41 45
v 31 -34 71
v -30 -34 71
v -35 -32 75
v 30 -32 78
v 31 -23 111
v 32 -28 113
v 37 -38 77
v 41 -41 43
v -40 -41 43
v -34 -41 45
v 33 -46 47
v 31 -39 72
v 40 -49 45
v 35 -40 77
v 29 -54 73
v -30 -39 72
v -28 -54 73
v -34 -40 77
v -39 -49 45
v -34 -46 47
v -36 -38 77
v -31 -28 113
v -30 -23 111
v -29 -32 78
v 30 -37 80
v 25 -23 108
v 2 -22 111
v 24 -21 114
v 25 -16 147
v 27 -19 149
v 24 -21 148
v 30 -30 113
v 43 -47 44
v 47 -52 0
v 41 -52 0
v 36 -42 40
v -35 -42 40
v -40 -52 0
v -46 -52 0
v -42 -47 44
v -29 -30 113
v -23 -21 148
v -26 -19 149
v -24 -16 147
v -23 -21 114
v -4 -22 111
v -2 -23 108
v -24 -23 108
v -29 -37 80
v 25 -29 110
v 50 -60 0
v -24 -29 110
v 22 -16 147
v 22 -19 149
v 24 -27 116
v -23 -27 116
v -21 -19 149
v -21 -16 147
v -1 -21 113
v -1 -7 56
v -4 -9 54
v 0 -23 108
v 2 -9 54
v 2 5 0
v -1 8 0
v -4 5 0
v -2 -11 52
v 0 -11 52
v 46 -62 0
v 36 -48 41
v 41 -60 0
v -49 -60 0
v -45 -62 0
v -35 -48 41
v -40 -60 0
v -34 -52 79
v 35 -52 79
v 0 2 0
v -2 2 0
v 59 6 26
v 22 24 26
v 22 24 0
v 59 6 0
v 71 33 26
v 66 32 26
v 56 11 26
v 27 25 26
v 36 51 26
v 36 51 0
v 71 33 0
v 56 11 5
v 27 25 5
v 66 32 5
v 38 47 5
v 38 47 26
v 64 18 52
v 28 36 52
v 30 40 54
v 37 55 29
v 73 37 29
v 66 23 54
v 69 28 52
v 32 45 52
v 35 50 45
v 37 55 34
v 73 37 34
v 71 32 45
v -66 -28 20
v -68 -27 20
v -71 -35 20
v -69 -35 20
v -65 -29 13
v -62 -28 13
v -63 -27 20
v -63 -24 20
v -68 -27 0
v -71 -35 0
v -68 -40 0
v -68 -40 20
v -67 -39 20
v -68 -35 13
v -61 -40 13
v -59 -29 13
v -57 -29 20
v -56 -28 20
v -63 -24 0
v -61 -42 20
v -61 -43 20
v -58 -39 20
v -66 -38 13
v -56 -40 20
v -55 -33 20
v -59 -39 13
v -56 -33 13
v -54 -33 20
v -56 -28 0
v -54 -33 0
v -61 -43 0
v -56 -40 0
v 84 5 6
v 100 -5 6
v 100 -5 0
v 84 5 0
v 78 -2 6
v 95 -14 6
v 95 -14 0
v 78 -2 0
v 71 -15 0
v 71 -15 6
v 85 -25 6
v 85 -25 0
v 83 -29 6
v 83 -29 0
v 76 -28 3
v 76 -28 0
v 65 -47 6
v 65 -47 0
v 56 -55 3
v 56 -55 0
v 68 -19 6
v 71 -25 3
v 57 -42 6
v 53 -52 3
v 68 -19 0
v 71 -25 0
v 57 -42 0
v 53 -52 0

f 1 2 3
f 1 3 4
f 1 4 5
f 5 4 6
f 5 6 7
f 7 6 8
f 7 8 2
f 2 8 3
f 9 10 11
f 9 11 12
f 9 12 13
f 13 12 14
f 13 14 15
f 15 14 16
f 15 16 10
f 10 16 11
f 17 18 19
f 17 19 20
f 17 20 21
f 21 20 22
f 21 22 23
f 23 22 24
f 23 24 18
f 18 24 19
f 25 26 27
f 25 27 28
f 25 28 29
f 29 28 30
f 29 30 31
f 31 30 32
f 31 32 26
f 26 32 27
f 33 34 35
f 33 35 36
f 33 36 37
f 33 37 38
f 33 38 34
f 34 38 39
f 34 39 40
f 34 40 35
f 39 41 42
f 39 42 40
f 41 43 44
f 41 44 42
f 43 45 46
f 43 46 44
f 45 38 47
f 45 47 46
f 38 37 48
f 38 48 47
f 37 36 48
f 38 45 43
f 38 43 41
f 38 41 39
f 49 50 51
f 49 51 52
f 49 52 53
f 49 53 54
f 49 54 55
f 49 55 56
f 49 56 50
f 50 56 57
f 50 57 58
f 50 58 51
f 51 58 59
f 51 59 60
f 51 60 61
f 51 61 52
f 52 61 62
f 52 62 53
f 53 62 63
f 53 63 54
f 54 63 64
f 54 64 55
f 55 64 65
f 55 65 66
f 55 66 56
f 56 66 67
f 56 67 57
f 68 61 60
f 68 60 69
f 68 69 70
f 68 70 63
f 68 63 71
f 68 71 61
f 61 71 62
f 62 71 63
f 70 69 72
f 70 72 73
f 70 73 74
f 70 74 63
f 63 74 75
f 63 75 64
f 64 75 65
f 65 75 73
f 65 73 76
f 65 76 66
f 66 76 77
f 66 77 67
f 73 72 76
f 76 72 78
f 76 78 77
f 60 59 79
f 60 79 69
f 69 79 80
f 69 80 72
f 72 80 78
f 74 73 75
f 81 82 83
f 81 83 84
f 81 84 85
f 81 85 86
f 81 86 87
f 81 87 88
f 81 88 89
f 81 89 90
f 81 90 82
f 82 90 91
f 82 91 92
f 82 92 93
f 82 93 83
f 83 93 94
f 94 93 95
f 94 95 96
f 94 96 97
f 94 97 98
f 98 97 99
f 98 99 100
f 98 100 101
f 98 101 102
f 98 102 84
f 84 102 92
f 84 92 85
f 85 92 91
f 85 91 103
f 85 103 104
f 85 104 105
f 85 105 106
f 85 106 86
f 86 106 107
f 86 107 108
f 86 108 87
f 87 108 109
f 87 109 110
f 87 110 111
f 87 111 112
f 87 112 88
f 88 112 113
f 88 113 114
f 88 114 89
f 89 114 96
f 89 96 115
f 89 115 90
f 90 115 116
f 90 116 117
f 90 117 118
f 90 118 119
f 90 119 91
f 91 119 120
f 91 120 121
f 91 121 122
f 91 122 103
f 103 122 100
f 103 100 123
f 103 123 104
f 104 123 124
f 104 124 125
f 104 125 105
f 105 125 126
f 105 126 127
f 105 127 128
f 105 128 129
f 105 129 130
f 105 130 106
f 106 130 131
f 106 131 107
f 107 131 100
f 107 100 96
f 107 96 132
f 107 132 108
f 95 115 96
f 115 95 133
f 115 133 116
f 132 96 114
f 132 114 123
f 132 123 134
f 134 123 100
f 134 100 131
f 134 131 130
f 111 110 135
f 111 135 112
f 112 135 136
f 112 136 113
f 113 136 114
f 114 136 137
f 114 137 138
f 114 138 123
f 123 138 139
f 123 139 124
f 124 139 125
f 125 139 140
f 125 140 126
f 126 140 127
f 127 140 138
f 127 138 137
f 127 137 110
f 127 110 141
f 127 141 128
f 128 141 142
f 128 142 143
f 128 143 129
f 128 129 141
f 141 129 144
f 141 144 109
f 141 109 145
f 141 145 142
f 142 145 146
f 142 146 147
f 142 147 143
f 143 147 148
f 143 148 149
f 143 149 129
f 129 149 144
f 144 149 150
f 144 150 109
f 144 109 108
f 135 137 136
f 137 135 110
f 151 133 95
f 151 95 152
f 151 152 153
f 153 152 118
f 153 118 117
f 100 122 101
f 101 122 154
f 101 154 155
f 101 155 156
f 101 156 95
f 101 95 102
f 102 95 93
f 102 93 92
f 139 138 140
f 122 121 154
f 156 155 157
f 156 157 119
f 119 157 120
f 156 152 95
f 96 100 158
f 96 158 159
f 96 159 97
f 97 159 99
f 99 159 158
f 99 158 100
f 109 150 145
f 145 150 160
f 145 160 146
f 149 148 161
f 149 161 150
f 150 161 160
f 109 141 110
f 162 163 164
f 162 164 165
f 162 165 166
f 162 166 167
f 162 167 168
f 162 168 163
f 163 168 169
f 163 169 170
f 163 170 171
f 163 171 164
f 170 166 172
f 170 172 171
f 166 165 172
f 173 174 169
f 173 169 168
f 173 168 175
f 173 175 174
f 174 175 176
f 174 176 177
f 174 177 169
f 169 177 170
f 170 177 166
f 170 166 178
f 170 178 179
f 170 179 180
f 170 180 181
f 170 181 166
f 166 181 182
f 166 182 178
f 178 182 183
f 178 183 179
f 179 183 180
f 180 183 184
f 180 184 185
f 180 185 186
f 180 186 187
f 180 187 181
f 181 187 182
f 182 187 188
f 182 188 183
f 183 188 189
f 183 189 184
f 184 189 185
f 185 189 186
f 186 189 188
f 186 188 187
f 176 175 167
f 176 167 177
f 177 167 166
f 175 168 167
f 190 191 192
f 190 192 193
f 190 193 194
f 190 194 195
f 190 195 196
f 190 196 197
f 190 197 191
f 191 197 198
f 191 198 199
f 191 199 192
f 192 199 200
f 192 200 201
f 192 201 202
f 192 202 193
f 193 202 203
f 193 203 194
f 194 203 204
f 194 204 195
f 195 204 205
f 195 205 196
f 196 205 206
f 196 206 207
f 196 207 197
f 197 207 208
f 197 208 198
f 209 202 201
f 209 201 210
f 209 210 211
f 209 211 204
f 209 204 212
f 209 212 202
f 202 212 203
f 203 212 204
f 211 210 213
f 211 213 214
f 211 214 215
f 211 215 204
f 204 215 216
f 204 216 205
f 205 216 206
f 206 216 214
f 206 214 217
f 206 217 207
f 207 217 218
f 207 218 208
f 214 213 217
f 217 213 219
f 217 219 218
f 201 200 220
f 201 220 210
f 210 220 221
f 210 221 213
f 213 221 219
f 215 214 216
f 222 223 224
f 222 224 225
f 222 225 226
f 222 226 223
f 223 226 227
f 223 227 228
f 223 228 224
f 226 225 229
f 226 229 230
f 226 230 231
f 226 231 227
f 227 231 232
f 227 232 228
f 228 232 233
f 233 232 234
f 233 234 235
f 235 234 236
f 235 236 237
f 237 236 238
f 237 238 239
f 239 238 240
f 239 240 241
f 232 231 242
f 232 242 234
f 234 242 243
f 234 243 236
f 236 243 244
f 236 244 238
f 238 244 245
f 238 245 240
f 231 230 246
f 231 246 242
f 242 246 247
f 242 247 243
f 243 247 248
f 243 248 244
f 244 248 249
f 244 249 245
