# RS2 Model 126
# Vertices: 21
# Faces: 22

v -14 -48 34
v -16 -50 24
v -2 -48 30
v 8 -53 33
v 6 -53 39
v 32 -48 37
v 30 -48 43
v 42 -5 38
v 43 -4 44
v 34 41 30
v 33 41 38
v -34 42 20
v -34 42 30
v -42 8 20
v -42 8 30
v -43 -23 20
v -43 -23 30
v -32 -44 20
v -32 -44 30
v -4 -44 20
v -20 -44 12

f 1 2 3
f 1 3 4
f 1 4 5
f 5 4 6
f 5 6 7
f 7 6 8
f 7 8 9
f 9 8 10
f 9 10 11
f 11 10 12
f 11 12 13
f 13 12 14
f 13 14 15
f 15 14 16
f 15 16 17
f 17 16 18
f 17 18 19
f 19 18 2
f 19 2 1
f 2 20 3
f 20 2 21
f 21 2 18
