# RS2 Model 12629
# Vertices: 457
# Faces: 773

v -35 -12 68
v -35 -44 68
v -42 -28 41
v -42 -1 52
v -42 -1 84
v -42 -28 95
v -42 -55 84
v -42 -55 52
v -49 -44 68
v -49 -12 68
v -35 52 68
v -35 20 68
v -42 36 41
v -42 63 52
v -42 63 84
v -42 36 95
v -42 9 84
v -42 9 52
v -49 20 68
v -49 52 68
v -35 -12 129
v -35 -44 129
v -42 -28 102
v -42 -1 113
v -42 -1 145
v -42 -28 156
v -42 -55 145
v -42 -55 113
v -49 -44 129
v -49 -12 129
v -35 52 129
v -35 20 129
v -42 36 102
v -42 63 113
v -42 63 145
v -42 36 156
v -42 9 145
v -42 9 113
v -49 20 129
v -49 52 129
v -1 -39 10
v 1 -41 16
v -4 -41 16
v -7 -41 10
v -4 -41 5
v 1 -41 5
v 5 -41 10
v 1 -45 18
v -6 -45 17
v -9 -45 9
v -5 -45 4
v 3 -45 4
v 7 -45 10
v 1 -35 16
v -5 -35 15
v -9 -35 9
v -5 -35 4
v 1 -35 4
v 6 -35 10
v 5 -22 10
v 0 -22 16
v -4 -22 15
v -8 -22 10
v -4 -22 5
v -6 -7 8
v -3 -7 5
v 0 10 5
v -3 -7 11
v 0 -7 12
v 3 -7 8
v 0 -7 5
v 0 -22 5
v 7 -22 16
v 7 -39 14
v 9 -40 4
v 9 -22 4
v 9 -3 4
v 7 -3 16
v 4 -3 21
v 3 -21 23
v -1 -35 22
v -1 -19 30
v -5 -21 23
v -9 -22 16
v -9 -39 14
v -11 -22 4
v -11 -40 4
v 9 16 4
v 7 16 15
v 3 16 23
v -1 17 29
v -1 -3 25
v -6 -3 21
v -9 -3 16
v -11 -3 4
v -9 16 15
v -11 16 4
v -9 38 16
v -11 37 4
v 9 37 4
v 6 38 15
v -1 34 23
v -5 16 23
v 9 -22 16
v 7 -43 15
v 10 -44 4
v 10 -22 4
v 10 -3 4
v 9 -3 16
v 6 -3 23
v 5 -21 23
v -1 -39 23
v -1 -23 35
v -7 -21 23
v -11 -22 16
v -9 -43 15
v -12 -22 4
v -12 -44 4
v 10 16 4
v 9 16 15
v 5 13 23
v -1 19 35
v -1 -3 27
v -8 -3 23
v -11 -3 16
v -12 -3 4
v -11 16 15
v -12 16 4
v -9 42 16
v -12 41 4
v 10 41 4
v 7 42 16
v -1 38 23
v -7 13 23
v 1 39 18
v -1 37 12
v -4 38 18
v -7 42 19
v 0 44 20
v 6 45 12
v 5 40 12
v 1 39 7
v -4 38 7
v -7 37 12
v -10 41 11
v -3 32 17
v 2 33 18
v 8 31 11
v 3 30 6
v 2 44 6
v -6 42 6
v -6 28 11
v -5 19 11
v -1 21 17
v 5 22 18
v 10 22 12
v 5 21 6
v 9 10 9
v 6 9 6
v 10 -6 5
v 6 9 13
v 3 8 12
v 0 8 9
v 3 8 6
v -1 20 6
v -2 29 6
v -32 2 79
v -32 46 83
v -32 -46 83
v -32 -2 79
v -16 -2 79
v -16 2 79
v -32 42 79
v -16 42 79
v -16 46 83
v -32 46 101
v -32 -46 101
v -16 -46 101
v -16 -46 83
v -32 -42 79
v -16 -42 79
v 0 -42 79
v 0 -2 79
v 0 2 79
v -32 42 105
v -32 -42 105
v -16 -42 105
v 0 -42 105
v 0 -46 101
v 0 -46 83
v 31 -112 28
v -48 -112 28
v -48 -112 0
v 31 -112 0
v 31 -90 0
v 31 -90 28
v 31 -112 32
v 9 -112 32
v 5 -112 32
v -48 -112 32
v -48 -112 58
v 5 -112 58
v -9 -112 62
v -13 -112 62
v -48 -112 62
v -13 -112 79
v -48 -112 79
v -48 -109 83
v -9 -112 79
v 31 -109 83
v -48 -96 101
v 31 -96 101
v 31 -96 123
v -48 -96 123
v 26 -93 123
v -43 -93 123
v -48 -58 123
v -43 -61 123
v 31 -58 123
v 9 -54 127
v 5 -54 127
v -48 -54 127
v 5 -43 145
v -48 -43 145
v -9 -42 148
v -13 -42 148
v -48 -42 148
v -13 -36 166
v -48 -36 166
v -48 -34 170
v -9 -36 166
v 4 -34 170
v -1 -32 188
v -48 -32 188
v -48 -32 192
v -1 -32 192
v -9 -32 207
v -48 -32 210
v -9 32 207
v -48 32 210
v -1 32 192
v -48 32 192
v -1 32 188
v -48 32 188
v 4 34 170
v -48 34 170
v -13 36 166
v -48 36 166
v -13 42 148
v -48 42 148
v -48 43 145
v 5 43 145
v 5 54 127
v -48 54 127
v -48 58 123
v 31 58 123
v 31 96 101
v -48 96 101
v -48 109 83
v 31 109 83
v -13 112 79
v -48 112 79
v -13 112 62
v -48 112 62
v -48 112 58
v 5 112 58
v -48 112 32
v 5 112 32
v -48 112 28
v 31 112 28
v 31 112 0
v -48 112 0
v 9 -112 58
v 31 -112 58
v 31 -112 62
v 31 -112 79
v 31 -90 62
v 31 -90 79
v 22 -43 145
v 9 -43 145
v 31 -54 127
v 22 -24 145
v 20 -42 148
v 6 -36 166
v 6 -2 166
v 4 -20 170
v 4 -24 170
v 31 86 28
v 31 48 28
v 31 48 0
v 31 86 0
v 31 90 0
v 31 90 28
v 31 112 32
v 31 72 32
v 31 68 32
v 31 48 32
v 23 48 32
v 23 48 0
v 23 39 28
v 23 39 9
v 23 -48 0
v 23 -39 9
v 23 -48 32
v 31 -48 28
v 31 -48 0
v 31 -86 0
v 31 -86 28
v 9 112 32
v 31 112 58
v 31 72 58
v 31 68 58
v 31 40 44
v 23 40 44
v 23 32 38
v 20 32 38
v 20 39 28
v 20 39 9
v 20 0 9
v 20 -39 9
v 23 -39 28
v 23 -40 44
v 31 -40 44
v 31 -48 32
v 31 -68 32
v 31 -72 32
v 31 90 79
v 31 90 62
v 31 112 62
v 31 112 79
v 31 86 79
v 31 86 62
v 9 112 58
v -9 112 62
v -9 112 79
v 31 42 79
v 31 2 79
v 31 2 62
v 31 42 62
v 31 46 62
v 31 46 79
v 31 64 83
v 31 46 83
v 16 46 83
v 16 42 79
v 16 2 79
v 31 -2 79
v 31 -2 62
v 31 -19 58
v 31 21 58
v 31 25 58
v 31 68 83
v 31 64 101
v 31 46 101
v 16 46 101
v 0 46 101
v 0 46 83
v 0 42 79
v 16 -2 79
v 31 -42 79
v 31 -42 62
v 31 -23 58
v 31 -23 50
v 31 -19 51
v 31 21 51
v 31 25 50
v 31 68 105
v 31 42 123
v 31 2 123
v 31 2 105
v 31 42 105
v 31 46 123
v 31 24 127
v 31 20 127
v 31 -20 127
v 31 -2 123
v 31 -2 105
v 31 -42 105
v 31 -42 123
v 31 -46 105
v 31 -64 101
v 31 -46 101
v 16 -46 101
v 16 -42 105
v 6 36 166
v 6 2 166
v 20 2 148
v 20 42 148
v -9 36 166
v 4 24 170
v 4 20 170
v 20 -2 148
v 22 -20 145
v 22 20 145
v 22 24 145
v 22 43 145
v 9 43 145
v -9 42 148
v 31 -72 58
v 31 -86 62
v 31 -46 62
v 31 -46 79
v 31 -86 79
v 31 -68 83
v 31 -68 105
v 26 -61 123
v 26 -61 121
v 26 -93 121
v -43 -93 121
v -43 -61 121
v 31 -64 83
v 31 -46 83
v 16 -42 79
v 16 -46 83
v 31 -24 127
v 31 54 127
v 9 54 127
v -1 24 188
v -1 20 188
v -1 -20 188
v -1 -24 188
v 31 -68 58
v 31 -46 123
v 31 46 105
v 16 42 105
v 0 42 105
v -16 42 105
v -16 46 101
v 23 -19 51
v 23 21 51
v 23 16 44
v 20 16 44
v 20 20 34
v 20 20 14
v 20 15 14
v 20 12 14
v 20 6 14
v 20 3 14
v 20 -3 14
v 20 -6 14
v 20 -12 14
v 20 -15 14
v 20 -20 14
v 20 -39 28
v 23 -32 38
v 23 -15 44
v 20 -15 44
v 20 -3 39
v 20 3 39
v 20 6 39
v 20 12 39
v 20 15 34
v 20 -32 38
v 20 -20 34
v 20 -12 39
v 20 -6 39
v 20 -15 34

f 1 2 3
f 1 3 4
f 1 4 5
f 1 5 6
f 1 6 2
f 2 6 7
f 2 7 8
f 2 8 3
f 3 8 9
f 3 9 10
f 3 10 4
f 4 10 5
f 5 10 6
f 6 10 9
f 6 9 7
f 7 9 8
f 11 12 13
f 11 13 14
f 11 14 15
f 11 15 16
f 11 16 12
f 12 16 17
f 12 17 18
f 12 18 13
f 13 18 19
f 13 19 20
f 13 20 14
f 14 20 15
f 15 20 16
f 16 20 19
f 16 19 17
f 17 19 18
f 21 22 23
f 21 23 24
f 21 24 25
f 21 25 26
f 21 26 22
f 22 26 27
f 22 27 28
f 22 28 23
f 23 28 29
f 23 29 30
f 23 30 24
f 24 30 25
f 25 30 26
f 26 30 29
f 26 29 27
f 27 29 28
f 31 32 33
f 31 33 34
f 31 34 35
f 31 35 36
f 31 36 32
f 32 36 37
f 32 37 38
f 32 38 33
f 33 38 39
f 33 39 40
f 33 40 34
f 34 40 35
f 35 40 36
f 36 40 39
f 36 39 37
f 37 39 38
f 41 42 43
f 41 43 44
f 41 44 45
f 41 45 46
f 41 46 47
f 41 47 42
f 42 47 48
f 42 48 43
f 43 48 49
f 43 49 44
f 44 49 50
f 44 50 51
f 44 51 45
f 45 51 52
f 45 52 46
f 46 52 53
f 46 53 47
f 47 53 48
f 48 53 54
f 48 54 49
f 49 54 55
f 49 55 56
f 49 56 50
f 50 56 57
f 50 57 51
f 52 58 59
f 52 59 53
f 53 59 54
f 54 59 60
f 54 60 61
f 54 61 55
f 55 61 62
f 55 62 56
f 56 62 63
f 56 63 57
f 57 63 64
f 64 63 65
f 64 65 66
f 66 65 67
f 67 65 68
f 67 68 69
f 67 69 70
f 67 70 71
f 71 70 60
f 71 60 72
f 72 60 59
f 72 59 58
f 63 62 68
f 63 68 65
f 61 60 70
f 61 70 69
f 61 69 62
f 62 69 68
f 73 74 75
f 73 75 76
f 73 76 77
f 73 77 78
f 73 78 79
f 73 79 80
f 73 80 74
f 74 80 81
f 81 80 82
f 81 82 83
f 81 83 84
f 81 84 85
f 85 84 86
f 85 86 87
f 78 77 88
f 78 88 89
f 78 89 90
f 78 90 79
f 79 90 91
f 79 91 92
f 79 92 80
f 80 92 82
f 82 92 93
f 82 93 83
f 83 93 94
f 83 94 84
f 84 94 86
f 86 94 95
f 95 94 96
f 95 96 97
f 97 96 98
f 97 98 99
f 89 88 100
f 89 100 101
f 89 101 102
f 89 102 90
f 90 102 91
f 91 102 103
f 91 103 92
f 92 103 93
f 93 103 96
f 93 96 94
f 104 105 106
f 104 106 107
f 104 107 108
f 104 108 109
f 104 109 110
f 104 110 111
f 104 111 105
f 105 111 112
f 112 111 113
f 112 113 114
f 112 114 115
f 112 115 116
f 116 115 117
f 116 117 118
f 109 108 119
f 109 119 120
f 109 120 121
f 109 121 110
f 110 121 122
f 110 122 123
f 110 123 111
f 111 123 113
f 113 123 124
f 113 124 114
f 114 124 125
f 114 125 115
f 115 125 117
f 117 125 126
f 126 125 127
f 126 127 128
f 128 127 129
f 128 129 130
f 120 119 131
f 120 131 132
f 120 132 133
f 120 133 121
f 121 133 122
f 122 133 134
f 122 134 123
f 123 134 124
f 124 134 127
f 124 127 125
f 98 96 103
f 98 103 102
f 129 127 134
f 129 134 133
f 135 136 137
f 135 137 138
f 135 138 139
f 135 139 140
f 135 140 141
f 135 141 136
f 136 141 142
f 136 142 143
f 136 143 144
f 136 144 137
f 137 144 138
f 138 144 145
f 138 145 146
f 138 146 139
f 139 146 147
f 139 147 148
f 139 148 140
f 140 148 149
f 140 149 150
f 140 150 141
f 141 150 142
f 142 150 151
f 142 151 143
f 143 151 145
f 143 145 144
f 145 152 146
f 146 152 153
f 146 153 154
f 146 154 147
f 147 154 155
f 147 155 148
f 148 155 156
f 148 156 149
f 149 156 157
f 157 156 158
f 157 158 159
f 159 158 160
f 160 158 161
f 160 161 162
f 160 162 163
f 160 163 164
f 164 163 153
f 164 153 165
f 165 153 152
f 165 152 166
f 166 152 151
f 151 152 145
f 163 162 154
f 163 154 153
f 161 158 156
f 161 156 155
f 161 155 162
f 162 155 154
f 167 168 169
f 167 169 170
f 167 170 171
f 167 171 172
f 167 172 173
f 167 173 168
f 168 173 174
f 168 174 175
f 168 175 176
f 168 176 177
f 168 177 169
f 169 177 178
f 169 178 179
f 169 179 180
f 169 180 170
f 170 180 181
f 170 181 171
f 171 181 182
f 171 182 183
f 171 183 172
f 172 183 184
f 172 184 174
f 172 174 173
f 176 185 186
f 176 186 177
f 177 186 187
f 177 187 178
f 178 187 188
f 178 188 189
f 178 189 179
f 179 189 190
f 179 190 181
f 179 181 180
f 191 192 193
f 191 193 194
f 191 194 195
f 191 195 196
f 191 196 197
f 191 197 198
f 191 198 192
f 192 198 199
f 192 199 200
f 200 199 201
f 201 199 202
f 201 202 203
f 201 203 204
f 201 204 205
f 205 204 206
f 205 206 207
f 207 206 208
f 208 206 209
f 208 209 210
f 208 210 211
f 211 210 212
f 211 212 213
f 211 213 214
f 214 213 215
f 214 215 216
f 214 216 217
f 217 216 218
f 217 218 219
f 217 219 220
f 217 220 221
f 217 221 222
f 222 221 223
f 222 223 224
f 224 223 225
f 224 225 226
f 224 226 227
f 227 226 228
f 227 228 229
f 229 228 230
f 230 228 231
f 230 231 232
f 230 232 233
f 230 233 234
f 234 233 235
f 235 233 236
f 235 236 237
f 235 237 238
f 238 237 239
f 238 239 240
f 240 239 241
f 240 241 242
f 242 241 243
f 242 243 244
f 244 243 245
f 244 245 246
f 246 245 247
f 246 247 248
f 248 247 249
f 248 249 250
f 250 249 251
f 251 249 252
f 251 252 253
f 251 253 254
f 254 253 255
f 255 253 256
f 255 256 257
f 255 257 258
f 258 257 259
f 259 257 260
f 259 260 261
f 259 261 262
f 262 261 263
f 262 263 264
f 264 263 265
f 265 263 266
f 265 266 267
f 267 266 268
f 267 268 269
f 269 268 270
f 269 270 271
f 269 271 272
f 273 198 197
f 273 197 274
f 273 274 275
f 273 275 203
f 273 203 202
f 273 202 198
f 198 202 199
f 276 209 203
f 276 203 275
f 276 275 277
f 276 277 278
f 276 278 210
f 276 210 209
f 279 280 220
f 279 220 281
f 279 281 282
f 279 282 283
f 279 283 280
f 280 283 225
f 280 225 223
f 280 223 220
f 220 223 221
f 284 231 225
f 284 225 283
f 284 283 285
f 284 285 286
f 284 286 287
f 284 287 232
f 284 232 231
f 288 289 290
f 288 290 291
f 288 291 292
f 288 292 293
f 288 293 294
f 288 294 295
f 288 295 289
f 289 295 296
f 289 296 297
f 289 297 298
f 289 298 290
f 290 298 299
f 299 298 300
f 299 300 301
f 299 301 302
f 302 301 303
f 302 303 304
f 302 304 305
f 302 305 306
f 306 305 307
f 307 305 308
f 307 308 196
f 307 196 195
f 293 292 271
f 293 271 270
f 293 270 294
f 294 270 309
f 294 309 310
f 294 310 295
f 295 310 311
f 295 311 312
f 295 312 296
f 296 312 297
f 297 312 313
f 297 313 314
f 297 314 298
f 298 314 315
f 298 315 300
f 300 315 316
f 300 316 317
f 300 317 301
f 301 317 318
f 301 318 303
f 303 318 319
f 303 319 320
f 303 320 321
f 303 321 304
f 304 321 322
f 304 322 323
f 304 323 324
f 304 324 305
f 305 324 325
f 305 325 308
f 308 325 326
f 308 326 197
f 308 197 196
f 327 328 329
f 327 329 330
f 327 330 260
f 327 260 331
f 327 331 328
f 328 331 332
f 328 332 310
f 328 310 329
f 329 310 333
f 329 333 266
f 329 266 334
f 329 334 335
f 329 335 330
f 330 335 260
f 260 335 261
f 261 335 263
f 263 335 334
f 263 334 266
f 336 337 338
f 336 338 339
f 336 339 340
f 336 340 341
f 336 341 342
f 336 342 343
f 336 343 344
f 336 344 345
f 336 345 337
f 337 345 346
f 337 346 347
f 337 347 338
f 338 347 348
f 338 348 349
f 338 349 350
f 338 350 339
f 339 350 351
f 339 351 340
f 340 351 312
f 340 312 311
f 340 311 332
f 340 332 331
f 340 331 341
f 341 331 352
f 341 352 342
f 342 352 353
f 342 353 343
f 343 353 354
f 343 354 355
f 343 355 344
f 344 355 356
f 344 356 357
f 344 357 345
f 345 357 358
f 345 358 346
f 346 358 184
f 346 184 359
f 346 359 347
f 347 359 360
f 347 360 361
f 347 361 348
f 348 361 362
f 348 362 349
f 349 362 363
f 349 363 364
f 349 364 350
f 350 364 365
f 350 365 351
f 351 365 366
f 351 366 313
f 351 313 312
f 257 367 352
f 257 352 260
f 260 352 331
f 368 369 370
f 368 370 371
f 368 371 372
f 368 372 373
f 368 373 369
f 369 373 374
f 369 374 375
f 369 375 376
f 369 376 370
f 370 376 377
f 377 376 378
f 378 376 379
f 378 379 380
f 378 380 381
f 378 381 382
f 378 382 383
f 378 383 384
f 384 383 189
f 384 189 188
f 385 386 387
f 385 387 388
f 385 388 389
f 385 389 245
f 385 245 390
f 385 390 386
f 386 390 391
f 386 391 286
f 386 286 285
f 386 285 387
f 387 285 392
f 387 392 393
f 387 393 394
f 387 394 395
f 387 395 388
f 388 395 396
f 388 396 397
f 388 397 252
f 388 252 398
f 388 398 389
f 389 398 249
f 389 249 247
f 389 247 245
f 197 326 399
f 197 399 274
f 274 399 400
f 274 400 277
f 274 277 275
f 400 401 402
f 400 402 403
f 400 403 278
f 400 278 277
f 210 404 405
f 210 405 212
f 212 405 219
f 212 219 213
f 213 219 406
f 213 406 215
f 215 406 407
f 215 407 408
f 215 408 216
f 216 408 409
f 216 409 218
f 218 409 410
f 218 410 406
f 218 406 219
f 411 412 382
f 411 382 381
f 411 381 405
f 411 405 404
f 411 404 403
f 411 403 402
f 411 402 412
f 412 402 360
f 412 360 413
f 412 413 414
f 412 414 382
f 382 414 383
f 383 414 190
f 383 190 189
f 283 392 285
f 392 283 282
f 392 282 393
f 393 282 415
f 393 415 375
f 393 375 394
f 394 375 374
f 394 374 395
f 395 374 373
f 395 373 416
f 395 416 396
f 396 416 397
f 397 416 417
f 397 417 253
f 397 253 252
f 236 241 239
f 236 239 237
f 245 243 418
f 245 418 390
f 390 418 391
f 391 418 419
f 391 419 286
f 286 419 420
f 286 420 287
f 287 420 421
f 287 421 232
f 232 421 233
f 233 421 236
f 236 421 241
f 241 421 420
f 241 420 418
f 241 418 243
f 422 325 324
f 422 324 323
f 422 323 363
f 422 363 362
f 422 362 361
f 422 361 401
f 422 401 400
f 422 400 399
f 422 399 325
f 325 399 326
f 282 281 415
f 415 281 423
f 415 423 379
f 415 379 376
f 415 376 375
f 310 309 333
f 333 309 268
f 333 268 266
f 310 332 311
f 353 352 367
f 353 367 424
f 353 424 354
f 354 424 371
f 354 371 425
f 354 425 355
f 355 425 426
f 355 426 356
f 356 426 427
f 356 427 428
f 356 428 357
f 357 428 175
f 357 175 358
f 358 175 174
f 358 174 184
f 402 401 361
f 402 361 360
f 210 278 403
f 210 403 404
f 380 379 423
f 380 423 219
f 380 219 405
f 380 405 381
f 372 371 424
f 372 424 256
f 372 256 416
f 372 416 373
f 423 281 219
f 219 281 220
f 270 268 309
f 256 417 416
f 417 256 253
f 252 249 398
f 206 204 203
f 206 203 209
f 228 226 225
f 228 225 231
f 360 359 413
f 413 359 183
f 413 183 182
f 413 182 414
f 414 182 190
f 190 182 181
f 418 420 419
f 363 323 322
f 363 322 429
f 363 429 364
f 364 429 365
f 365 429 430
f 365 430 366
f 366 430 313
f 313 430 314
f 314 430 431
f 314 431 315
f 315 431 432
f 315 432 316
f 316 432 433
f 316 433 317
f 317 433 434
f 317 434 318
f 318 434 435
f 318 435 319
f 319 435 436
f 319 436 437
f 319 437 438
f 319 438 439
f 319 439 440
f 319 440 441
f 319 441 442
f 319 442 443
f 319 443 320
f 320 443 444
f 320 444 321
f 321 444 445
f 321 445 322
f 322 445 429
f 429 445 446
f 429 446 430
f 430 446 431
f 431 446 447
f 431 447 432
f 432 447 448
f 432 448 449
f 432 449 450
f 432 450 451
f 432 451 452
f 432 452 433
f 445 444 453
f 445 453 446
f 446 453 447
f 447 453 454
f 447 454 455
f 447 455 456
f 447 456 448
f 448 456 439
f 439 456 440
f 449 438 437
f 449 437 450
f 451 436 435
f 451 435 452
f 457 442 441
f 457 441 455
f 457 455 454
f 443 454 453
f 443 453 444
f 359 184 183
f 175 428 176
f 176 428 185
f 185 428 427
f 256 424 367
f 256 367 257
f 407 410 409
f 407 409 408
f 410 407 406
