# RS2 Model 12774
# Vertices: 92
# Faces: 190

v -37 9 -4
v -35 3 117
v -35 6 117
v -33 15 -4
v -29 9 -4
v -31 3 117
v -35 1 207
v -35 4 209
v -31 6 117
v -52 0 283
v -34 -3 269
v -37 -3 266
v -60 -1 261
v -72 -7 292
v -78 -4 320
v -60 -4 314
v -33 -4 311
v -32 1 292
v -30 -3 269
v -30 -1 259
v -37 -3 262
v -52 1 245
v -68 -9 261
v -60 -10 261
v -52 -9 283
v -32 -8 292
v -10 -4 314
v -13 0 283
v -27 -3 266
v -27 -3 262
v -12 -1 245
v -32 0 235
v -34 -2 259
v -57 -6 213
v -78 -3 208
v -72 -6 230
v -52 -8 245
v -37 -12 262
v -37 -12 266
v -34 -12 269
v -30 -12 269
v -13 -9 283
v 11 -3 320
v 4 -7 292
v -5 -3 263
v -3 -6 257
v 4 -6 230
v 9 -3 208
v -9 -5 213
v -33 -7 216
v -32 -9 235
v 2 -9 263
v -12 -10 245
v -30 -11 259
v -34 -11 259
v -27 -12 266
v -5 -12 263
v -27 -12 262
v -31 4 209
v -31 1 207
v -33 -2 207
v -56 1 205
v -33 1 211
v -33 2 254
v -35 6 254
v -33 2 347
v -31 4 322
v -35 4 322
v -35 -1 324
v -31 -1 324
v -33 -1 320
v -33 1 288
v -31 5 288
v -35 5 288
v -56 -1 322
v -56 -1 325
v -56 -4 325
v -33 -4 324
v -10 -1 325
v -10 -1 322
v -10 -4 322
v -56 -4 322
v -31 6 254
v -9 1 207
v -9 1 204
v -9 -2 204
v -33 -2 211
v -56 -2 208
v -56 -2 205
v -56 1 208
v -9 -2 207
v -10 -4 325

f 1 2 3
f 1 3 4
f 1 4 5
f 1 5 2
f 2 5 6
f 2 6 7
f 2 7 8
f 2 8 3
f 3 8 9
f 3 9 4
f 4 9 6
f 4 6 5
f 10 11 12
f 10 12 13
f 10 13 14
f 10 14 15
f 10 15 16
f 10 16 17
f 10 17 18
f 10 18 11
f 11 18 19
f 11 19 20
f 11 20 12
f 12 20 21
f 12 21 13
f 13 21 22
f 13 22 23
f 13 23 14
f 14 23 24
f 14 24 15
f 15 24 25
f 15 25 16
f 16 25 17
f 17 25 26
f 17 26 27
f 17 27 18
f 18 27 28
f 18 28 19
f 19 28 29
f 19 29 20
f 20 29 30
f 20 30 31
f 20 31 32
f 20 32 33
f 20 33 21
f 21 33 22
f 22 33 32
f 22 32 34
f 22 34 35
f 22 35 36
f 22 36 23
f 23 36 37
f 23 37 24
f 24 37 38
f 24 38 39
f 24 39 25
f 25 39 40
f 25 40 26
f 26 40 41
f 26 41 42
f 26 42 43
f 26 43 27
f 27 43 28
f 28 43 44
f 28 44 45
f 28 45 29
f 29 45 30
f 30 45 45
f 30 45 31
f 31 45 46
f 31 46 47
f 31 47 48
f 31 48 49
f 31 49 32
f 32 49 50
f 32 50 34
f 34 50 51
f 34 51 35
f 35 51 37
f 35 37 36
f 45 45 46
f 46 45 52
f 46 52 47
f 47 52 53
f 47 53 48
f 48 53 49
f 49 53 50
f 50 53 51
f 51 53 54
f 51 54 55
f 51 55 37
f 37 55 38
f 38 55 54
f 38 54 39
f 39 54 40
f 40 54 41
f 41 54 56
f 41 56 42
f 42 56 57
f 42 57 44
f 42 44 43
f 52 45 44
f 52 44 57
f 52 57 53
f 53 57 58
f 53 58 54
f 54 58 56
f 56 58 57
f 9 59 60
f 9 60 6
f 6 60 7
f 7 60 61
f 7 61 62
f 7 62 63
f 7 63 8
f 8 63 64
f 8 64 65
f 8 65 59
f 8 59 9
f 66 67 68
f 66 68 69
f 66 69 70
f 66 70 67
f 67 70 71
f 67 71 72
f 67 72 73
f 67 73 68
f 68 73 74
f 68 74 71
f 68 71 69
f 69 71 75
f 69 75 76
f 69 76 77
f 69 77 78
f 69 78 70
f 70 78 79
f 70 79 71
f 71 79 80
f 71 80 81
f 71 81 78
f 71 78 77
f 71 77 82
f 71 82 75
f 75 82 15
f 75 15 76
f 76 15 77
f 77 15 82
f 83 65 74
f 83 74 73
f 83 73 64
f 83 64 63
f 83 63 59
f 83 59 65
f 74 72 71
f 72 74 65
f 72 65 64
f 72 64 73
f 60 59 63
f 60 63 84
f 60 84 85
f 60 85 86
f 60 86 61
f 61 86 87
f 61 87 88
f 61 88 89
f 61 89 62
f 62 89 35
f 62 35 90
f 62 90 63
f 63 90 88
f 63 88 87
f 63 87 84
f 84 87 91
f 84 91 48
f 84 48 85
f 85 48 86
f 86 48 91
f 86 91 87
f 80 43 81
f 81 43 92
f 81 92 78
f 78 92 79
f 79 92 43
f 79 43 80
f 90 35 88
f 88 35 89
f 52 45 45
f 45 45 45
f 45 45 45
f 45 45 44
