# RS2 Model 12795
# Vertices: 80
# Faces: 138

v 37 37 120
v 27 37 120
v 27 28 120
v 37 28 120
v 36 26 112
v 36 35 112
v 28 35 112
v 28 26 112
v 28 20 82
v 36 20 82
v 64 26 112
v 64 35 112
v 64 29 82
v 36 29 82
v 28 29 82
v -28 35 112
v -28 26 112
v -28 20 82
v 27 26 66
v 27 16 66
v 37 16 66
v 64 20 82
v -37 -19 -6
v -37 -11 2
v -37 17 2
v -37 25 -6
v -37 17 54
v -37 25 54
v -27 25 -6
v -27 25 54
v -27 17 2
v -27 -11 2
v -27 -19 -6
v -27 -11 54
v -27 -19 54
v -37 -19 54
v -27 17 54
v 27 -19 -6
v 27 -11 2
v 27 17 2
v 27 25 -6
v 27 17 54
v 27 25 54
v 37 25 -6
v 37 25 54
v 37 17 2
v 37 -11 2
v 37 -19 -6
v 37 -11 54
v 37 -19 54
v 27 -19 54
v 37 17 54
v -64 -26 66
v -64 -26 54
v 64 -26 54
v 64 -26 66
v 64 28 66
v -64 28 66
v -64 28 54
v 64 28 54
v -27 37 120
v -27 28 120
v -36 26 112
v -36 20 82
v -37 16 66
v -27 16 66
v -28 29 82
v -36 35 112
v -37 37 120
v -37 28 120
v -64 35 112
v -64 26 112
v -64 20 82
v -36 29 82
v -37 26 66
v -27 26 66
v -64 29 82
v 37 26 66
v -37 -11 54
v 27 -11 54

f 1 2 3
f 1 3 4
f 1 4 5
f 1 5 6
f 1 6 2
f 2 6 7
f 2 7 3
f 3 7 8
f 3 8 4
f 4 8 5
f 5 8 9
f 5 9 10
f 5 10 11
f 5 11 6
f 6 11 12
f 6 12 13
f 6 13 14
f 6 14 7
f 7 14 15
f 7 15 16
f 7 16 8
f 8 16 17
f 8 17 18
f 8 18 9
f 9 18 15
f 9 15 19
f 9 19 20
f 9 20 10
f 10 20 21
f 10 21 14
f 10 14 13
f 10 13 22
f 10 22 11
f 11 22 13
f 11 13 12
f 23 24 25
f 23 25 26
f 26 25 27
f 26 27 28
f 26 28 29
f 29 28 30
f 29 30 31
f 29 31 32
f 29 32 33
f 33 32 34
f 33 34 35
f 33 35 23
f 23 35 36
f 23 36 24
f 23 24 25
f 23 25 26
f 24 32 31
f 24 31 25
f 25 31 37
f 25 37 27
f 38 39 40
f 38 40 41
f 41 40 42
f 41 42 43
f 41 43 44
f 44 43 45
f 44 45 46
f 44 46 47
f 44 47 48
f 48 47 49
f 48 49 50
f 48 50 38
f 38 50 51
f 38 51 39
f 38 39 40
f 38 40 41
f 39 47 46
f 39 46 40
f 40 46 52
f 40 52 42
f 53 54 55
f 53 55 56
f 53 56 57
f 53 57 58
f 53 58 54
f 54 58 59
f 59 58 57
f 59 57 60
f 60 57 56
f 60 56 55
f 17 16 61
f 17 61 62
f 17 62 63
f 17 63 64
f 17 64 18
f 18 64 65
f 18 65 66
f 18 66 67
f 18 67 15
f 15 67 16
f 16 67 68
f 16 68 69
f 16 69 61
f 61 69 70
f 61 70 62
f 62 70 63
f 63 70 68
f 63 68 71
f 63 71 72
f 63 72 73
f 63 73 64
f 64 73 74
f 64 74 75
f 64 75 65
f 66 76 67
f 67 76 74
f 67 74 68
f 68 74 71
f 71 74 77
f 71 77 73
f 71 73 72
f 70 69 68
f 76 75 74
f 21 78 14
f 14 78 15
f 15 78 19
f 73 77 74
f 24 32 31
f 24 31 25
f 32 33 29
f 32 29 31
f 39 47 46
f 39 46 40
f 47 48 44
f 47 44 46
f 79 34 32
f 79 32 24
f 79 24 36
f 30 37 31
f 80 49 47
f 80 47 39
f 80 39 51
f 45 52 46
