# RS2 Model 12828
# Vertices: 66
# Faces: 132

v 50 -35 92
v 37 -53 63
v 39 -53 63
v 52 -35 92
v 39 -39 126
v 37 -39 126
v 39 -27 112
v 47 -25 89
v 39 -36 70
v 37 -9 53
v 39 -9 53
v 43 -41 68
v 52 -28 90
v 44 -30 115
v 39 5 116
v 37 5 116
v 39 3 106
v 47 -11 89
v 47 -16 87
v 47 -13 84
v 39 -7 63
v 37 22 46
v 39 22 46
v 43 21 55
v 44 -7 61
v 50 -10 79
v 52 -24 89
v 44 3 108
v 44 31 101
v 39 36 109
v 37 36 109
v 39 25 101
v 47 12 84
v 25 -13 84
v 25 -11 89
v 22 -16 87
v 22 15 80
v 25 11 78
v 25 12 84
v 52 47 73
v 50 47 73
v 47 33 76
v 47 15 80
v 47 11 78
v 39 15 58
v 52 37 76
v 49 27 67
v 52 22 76
v 50 17 72
v 50 9 74
v 52 3 81
v 52 -10 83
v 52 -5 85
v 51 4 89
v 51 9 88
v 51 22 86
v 51 31 84
v 52 6 83
v 52 10 82
v 52 13 83
v 52 17 82
v 52 21 79
v 52 29 77
v 52 17 80
v 52 13 81
v 52 7 80

f 1 2 3
f 1 3 4
f 1 4 5
f 1 5 6
f 1 6 7
f 1 7 8
f 1 8 2
f 2 8 9
f 2 9 10
f 2 10 3
f 3 10 11
f 3 11 12
f 3 12 4
f 4 12 13
f 4 13 14
f 4 14 5
f 5 14 15
f 5 15 6
f 6 15 16
f 6 16 17
f 6 17 7
f 7 17 18
f 7 18 19
f 7 19 8
f 8 19 9
f 9 19 20
f 9 20 21
f 9 21 10
f 10 21 22
f 10 22 11
f 11 22 23
f 11 23 24
f 11 24 25
f 11 25 12
f 12 25 26
f 12 26 27
f 12 27 13
f 13 27 14
f 14 27 28
f 14 28 15
f 15 28 29
f 15 29 30
f 15 30 16
f 16 30 31
f 16 31 32
f 16 32 17
f 17 32 33
f 17 33 18
f 18 33 20
f 18 20 34
f 18 34 35
f 18 35 19
f 19 35 36
f 19 36 20
f 20 36 34
f 34 36 37
f 34 37 38
f 38 37 39
f 39 37 36
f 39 36 35
f 35 36 34
f 31 30 40
f 31 40 41
f 31 41 42
f 31 42 32
f 32 42 43
f 32 43 33
f 33 43 37
f 33 37 39
f 33 39 44
f 33 44 20
f 20 44 21
f 21 44 45
f 21 45 22
f 22 45 41
f 22 41 23
f 23 41 40
f 23 40 24
f 24 40 46
f 24 46 47
f 24 47 48
f 24 48 49
f 24 49 50
f 24 50 25
f 25 50 26
f 26 50 51
f 26 51 52
f 26 52 27
f 27 52 53
f 27 53 54
f 27 54 28
f 28 54 29
f 29 54 55
f 29 55 56
f 29 56 57
f 29 57 46
f 29 46 40
f 29 40 30
f 45 42 41
f 42 45 43
f 43 45 44
f 43 44 38
f 43 38 37
f 44 39 38
f 53 52 51
f 53 51 58
f 53 58 54
f 54 58 55
f 55 58 59
f 55 59 60
f 55 60 61
f 55 61 56
f 56 61 62
f 56 62 57
f 57 62 63
f 57 63 46
f 46 63 47
f 47 63 48
f 48 63 62
f 48 62 64
f 48 64 49
f 49 64 65
f 49 65 50
f 50 65 66
f 50 66 51
f 51 66 59
f 51 59 58
f 66 65 59
f 59 65 60
f 60 65 61
f 61 65 64
f 61 64 62
