# RS2 Model 12820
# Vertices: 123
# Faces: 246

v 48 -31 103
v 43 -37 88
v 45 -37 88
v 50 -31 103
v 45 -31 119
v 43 -31 119
v 43 -21 111
v 45 -20 100
v 43 -23 90
v 37 -31 80
v 36 -46 76
v 38 -46 76
v 41 -35 79
v 47 -27 90
v 50 -25 101
v 48 -25 114
v 42 -29 127
v 38 -34 133
v 36 -34 133
v 37 -22 123
v 45 -11 99
v 45 -11 95
v 37 -2 74
v 35 -4 64
v 35 -45 73
v 37 -45 73
v 37 -4 64
v 42 1 72
v 44 -14 82
v 47 -16 91
v 50 -17 100
v 47 -13 107
v 45 -9 114
v 42 11 119
v 37 9 127
v 37 -32 135
v 35 -32 135
v 37 7 117
v 45 -9 101
v 35 -11 101
v 34 -13 99
v 35 -13 95
v 45 17 96
v 45 16 90
v 37 21 69
v 35 24 59
v 35 9 127
v 37 38 121
v 35 38 121
v 42 36 113
v 38 42 117
v 36 42 117
v 37 30 112
v 43 48 102
v 41 48 102
v 41 34 100
v 45 20 92
v 48 52 85
v 50 52 85
v 43 42 71
v 41 42 71
v 45 38 88
v 50 42 87
v 45 36 75
v 41 26 66
v 38 29 60
v 36 29 60
v 41 29 78
v 37 24 59
v 44 19 75
v 47 7 86
v 51 7 90
v 45 2 75
v 47 1 87
v 51 3 91
v 47 -11 84
v 49 -4 93
v 52 1 93
v 52 -13 99
v 49 -2 102
v 52 2 99
v 48 -5 111
v 47 4 106
v 51 5 100
v 46 10 114
v 47 11 103
v 45 26 107
v 35 18 90
v 34 23 92
v 35 19 96
v 26 -9 101
v 21 4 98
v 18 5 95
v 23 -11 99
v 26 -11 95
v 21 2 92
v 26 16 90
v 26 17 96
v 23 20 92
v 52 9 91
v 47 16 78
v 49 14 89
v 52 24 91
v 52 10 94
v 50 7 93
v 50 6 92
v 51 9 100
v 52 10 97
v 48 22 105
v 50 5 98
v 50 7 98
v 50 8 97
v 50 8 95
v 50 28 90
v 49 15 97
v 47 27 98
v 46 41 100
v 52 1 96
v 50 4 97
v 47 23 82
v 50 4 92
v 50 3 94
v 50 3 96

f 1 2 3
f 1 3 4
f 1 4 5
f 1 5 6
f 1 6 7
f 1 7 8
f 1 8 9
f 1 9 2
f 2 9 10
f 2 10 11
f 2 11 12
f 2 12 3
f 3 12 13
f 3 13 14
f 3 14 4
f 4 14 15
f 4 15 16
f 4 16 5
f 5 16 17
f 5 17 18
f 5 18 6
f 6 18 19
f 6 19 20
f 6 20 7
f 7 20 21
f 7 21 8
f 8 21 9
f 9 21 10
f 10 21 22
f 10 22 23
f 10 23 24
f 10 24 25
f 10 25 11
f 11 25 26
f 11 26 12
f 12 26 13
f 13 26 27
f 13 27 28
f 13 28 29
f 13 29 14
f 14 29 30
f 14 30 15
f 15 30 31
f 15 31 32
f 15 32 16
f 16 32 33
f 16 33 17
f 17 33 34
f 17 34 35
f 17 35 36
f 17 36 18
f 18 36 37
f 18 37 19
f 19 37 20
f 20 37 38
f 20 38 39
f 20 39 21
f 21 39 40
f 21 40 41
f 21 41 42
f 21 42 22
f 22 42 40
f 22 40 39
f 22 39 43
f 22 43 44
f 22 44 23
f 23 44 45
f 23 45 46
f 23 46 24
f 24 46 27
f 24 27 26
f 24 26 25
f 35 47 37
f 35 37 36
f 48 49 47
f 48 47 35
f 48 35 50
f 48 50 51
f 48 51 52
f 48 52 49
f 49 52 53
f 49 53 38
f 49 38 47
f 47 38 37
f 51 54 55
f 51 55 52
f 52 55 53
f 53 55 56
f 53 56 57
f 53 57 43
f 53 43 38
f 38 43 39
f 58 59 60
f 58 60 61
f 58 61 62
f 58 62 55
f 58 55 54
f 58 54 59
f 59 54 63
f 59 63 60
f 60 63 64
f 60 64 65
f 60 65 66
f 60 66 61
f 61 66 67
f 61 67 68
f 61 68 62
f 62 68 57
f 62 57 56
f 62 56 55
f 27 46 69
f 27 69 65
f 27 65 28
f 28 65 70
f 28 70 71
f 28 71 72
f 28 72 73
f 28 73 74
f 28 74 29
f 29 74 75
f 29 75 76
f 29 76 77
f 29 77 30
f 30 77 31
f 31 77 78
f 31 78 79
f 31 79 80
f 31 80 32
f 32 80 33
f 33 80 81
f 33 81 82
f 33 82 83
f 33 83 34
f 34 83 84
f 34 84 85
f 34 85 86
f 34 86 87
f 34 87 50
f 34 50 35
f 65 69 66
f 66 69 46
f 66 46 67
f 67 46 45
f 67 45 68
f 68 45 57
f 57 45 44
f 57 44 88
f 57 88 89
f 57 89 90
f 57 90 43
f 43 90 88
f 43 88 44
f 91 92 93
f 91 93 94
f 91 94 41
f 91 41 40
f 91 40 95
f 91 95 96
f 91 96 92
f 92 96 97
f 92 97 98
f 92 98 93
f 93 98 99
f 93 99 97
f 93 97 96
f 93 96 94
f 94 96 95
f 94 95 41
f 41 95 42
f 42 95 40
f 100 72 101
f 100 101 70
f 100 70 102
f 100 102 103
f 100 103 104
f 100 104 105
f 100 105 72
f 72 105 106
f 72 106 75
f 72 75 73
f 73 75 74
f 107 108 109
f 107 109 87
f 107 87 86
f 107 86 85
f 107 85 84
f 107 84 110
f 107 110 111
f 107 111 108
f 108 111 112
f 108 112 113
f 108 113 104
f 108 104 103
f 108 103 114
f 108 114 115
f 108 115 109
f 109 115 87
f 87 115 116
f 87 116 117
f 87 117 50
f 50 117 54
f 50 54 51
f 75 78 76
f 76 78 77
f 81 84 82
f 82 84 83
f 71 70 101
f 71 101 72
f 79 81 80
f 81 79 118
f 81 118 119
f 81 119 84
f 84 119 110
f 110 119 112
f 110 112 111
f 103 102 114
f 114 102 120
f 114 120 64
f 114 64 63
f 114 63 117
f 114 117 116
f 114 116 115
f 121 122 78
f 121 78 75
f 121 75 106
f 121 106 122
f 122 106 105
f 122 105 113
f 122 113 123
f 122 123 78
f 78 123 118
f 78 118 79
f 105 104 113
f 119 118 123
f 119 123 112
f 112 123 113
f 70 120 102
f 120 70 64
f 64 70 65
f 63 54 117
f 98 97 88
f 98 88 90
f 98 90 89
f 98 89 99
f 99 89 97
f 97 89 88
