# RS2 Model 12858
# Vertices: 329
# Faces: 562

v 0 41 218
v -4 37 192
v 3 37 192
v 3 44 192
v -4 44 192
v -27 -24 28
v -27 -21 22
v -34 -25 23
v -30 -27 31
v -23 -27 28
v -20 -23 38
v -25 -20 38
v -23 -16 34
v -22 -25 22
v -18 -20 34
v -21 -34 23
v -25 -30 16
v -28 -34 16
v -30 -38 23
v -34 -31 16
v -34 -33 23
v -31 -25 16
v -33 -31 31
v -25 -30 31
v -27 -35 31
v -16 -19 44
v -18 -20 54
v -21 -24 54
v -26 -21 54
v -22 -16 44
v -22 -16 54
v -35 28 23
v -28 24 22
v -29 27 28
v -31 29 31
v -34 33 31
v -35 35 23
v -35 33 16
v -32 28 16
v -24 29 28
v -26 32 31
v -29 37 31
v -31 39 23
v -29 35 16
v -24 28 22
v -22 35 23
v -26 31 16
v -19 23 34
v -24 19 34
v -22 27 38
v -22 27 54
v -19 23 54
v -24 19 54
v -28 24 38
v -28 24 54
v -36 -17 92
v -28 -17 92
v -27 -4 86
v -35 -4 86
v -35 -6 80
v -36 -16 84
v -36 -25 92
v -36 -25 96
v -28 -25 96
v -28 -16 84
v -27 -6 80
v -25 15 88
v -25 17 96
v -33 17 96
v -33 14 86
v -33 28 97
v -33 26 83
v -32 31 92
v -27 45 64
v -39 34 64
v -29 24 74
v -25 28 97
v -30 36 157
v -37 36 161
v -37 44 161
v -30 44 164
v -21 44 180
v -9 44 186
v -3 44 180
v 28 45 64
v 28 45 54
v -27 45 54
v -39 33 54
v -39 -33 64
v -36 21 67
v 0 21 74
v 0 28 157
v -21 36 169
v -30 36 164
v -46 36 173
v -46 36 169
v -46 36 167
v -41 36 164
v -39 36 156
v -39 44 156
v -46 44 153
v -55 44 161
v -55 44 167
v -46 44 173
v -21 36 180
v -9 36 186
v -3 36 180
v 2 36 180
v 2 44 180
v 9 44 186
v 21 44 180
v 30 44 164
v 32 31 92
v 39 34 64
v 39 33 54
v -36 -34 90
v -28 -34 90
v -36 -30 87
v -36 -34 84
v -28 -34 84
v -36 -25 90
v -36 -28 87
v -36 -25 81
v -36 -25 76
v -28 -25 76
v -28 -18 79
v -36 -18 79
v -36 -21 85
v -36 -20 87
v -36 -25 88
v -36 -26 86
v -36 -25 83
v -36 -23 85
v -36 -25 86
v -55 36 167
v -51 36 164
v -49 36 164
v -47 36 163
v -46 36 165
v -42 36 162
v -46 36 158
v -46 36 153
v -55 36 161
v -46 36 160
v -46 36 163
v -44 36 162
v -5 36 178
v 5 36 178
v 9 36 186
v 21 36 180
v 30 36 164
v 46 36 173
v 46 44 173
v 37 44 161
v 33 28 97
v 33 26 83
v 29 24 74
v 36 21 67
v 36 -31 67
v 39 -33 64
v 39 -33 54
v 21 36 169
v -36 -31 67
v -26 -44 64
v -24 -41 67
v 25 -41 67
v 27 -44 64
v 27 -44 54
v -39 -33 54
v -26 -44 54
v 25 28 97
v 30 36 157
v 37 36 161
v 46 36 169
v 51 36 164
v 55 36 167
v 55 44 167
v 55 44 161
v 46 44 153
v 39 44 156
v 25 17 96
v 33 17 96
v 33 14 86
v 35 -4 86
v 35 -6 80
v 36 -16 84
v 36 -17 92
v 36 -25 96
v 36 -25 92
v 36 -25 90
v 36 -20 87
v 36 -18 79
v 28 -16 84
v 28 -18 79
v 28 -25 76
v 28 -34 84
v 28 -34 90
v 28 -25 96
v 28 -17 92
v 27 -6 80
v 27 -4 86
v 25 15 88
v 36 -34 90
v 36 -30 87
v 36 -28 87
v 36 -26 86
v 36 -25 88
v 36 -21 85
v 36 -25 81
v 36 -25 76
v 36 -34 84
v 36 -25 83
v 36 -25 86
v 36 -23 85
v 55 36 161
v 46 36 158
v 46 36 153
v 39 36 156
v 42 36 162
v 41 36 164
v 46 36 167
v 49 36 164
v 46 36 160
v 44 36 162
v 46 36 163
v 46 36 165
v 47 36 163
v 34 -25 23
v 27 -21 22
v 27 -24 28
v 30 -27 31
v 33 -31 31
v 34 -33 23
v 34 -31 16
v 31 -25 16
v 23 -27 28
v 25 -30 31
v 27 -35 31
v 30 -38 23
v 28 -34 16
v 22 -25 22
v 21 -34 23
v 25 -30 16
v 18 -20 34
v 23 -16 34
v 20 -23 38
v 16 -19 44
v 22 -16 44
v 25 -20 38
v 22 -16 54
v 26 -21 54
v 21 -24 54
v 18 -20 54
v 29 27 28
v 28 24 22
v 35 28 23
v 31 29 31
v 24 29 28
v 22 27 38
v 28 24 38
v 24 19 34
v 24 28 22
v 19 23 34
v 22 35 23
v 26 31 16
v 29 35 16
v 31 39 23
v 35 33 16
v 35 35 23
v 32 28 16
v 34 33 31
v 26 32 31
v 29 37 31
v 19 23 54
v 22 27 54
v 28 24 54
v 24 19 54
v 39 -39 6
v 39 40 6
v 36 40 16
v 36 -39 16
v -36 -39 16
v -39 -39 6
v 39 -39 4
v 39 40 4
v -39 40 4
v -39 40 6
v -36 40 16
v -39 -39 4
v 45 -46 4
v 45 47 4
v -45 47 4
v -45 -46 4
v 46 -46 -6
v 46 47 -6
v -46 47 -6
v -46 -46 -6
v 34 -5 80
v 29 -5 80
v 29 -9 67
v 34 -9 67
v 34 0 82
v 34 -4 67
v 29 0 82
v 29 -4 67
v -29 -5 80
v -34 -5 80
v -34 -9 67
v -29 -9 67
v -29 0 82
v -29 -4 67
v -34 0 82
v -34 -4 67
v 2 38 185
v -3 38 185
v -3 38 180
v 2 38 180
v 2 43 185
v 7 47 188
v 7 34 188
v -8 34 188
v -3 43 185
v -3 43 180
v 2 43 180
v -8 47 188
v -4 37 193
v -4 44 193
v 3 44 193
v 3 37 193

f 1 2 3
f 1 3 4
f 1 4 5
f 1 5 2
f 6 7 8
f 6 8 9
f 6 9 10
f 6 10 11
f 6 11 12
f 6 12 7
f 7 12 13
f 7 13 14
f 14 13 15
f 14 15 10
f 14 10 16
f 14 16 17
f 17 16 18
f 18 16 19
f 18 19 20
f 20 19 21
f 20 21 8
f 20 8 22
f 22 8 7
f 8 23 9
f 9 23 24
f 9 24 10
f 10 24 16
f 16 24 25
f 16 25 19
f 19 25 21
f 21 25 23
f 21 23 8
f 23 25 24
f 10 15 11
f 11 15 26
f 11 26 27
f 11 27 28
f 11 28 12
f 12 28 29
f 12 29 30
f 12 30 13
f 13 30 15
f 15 30 26
f 26 30 31
f 26 31 27
f 29 31 30
f 32 33 34
f 32 34 35
f 32 35 36
f 32 36 37
f 32 37 38
f 32 38 39
f 32 39 33
f 34 40 41
f 34 41 35
f 35 41 42
f 35 42 36
f 36 42 43
f 36 43 37
f 37 43 44
f 37 44 38
f 40 45 46
f 40 46 41
f 41 46 42
f 42 46 43
f 43 46 44
f 44 46 47
f 47 46 45
f 48 49 33
f 48 33 45
f 48 45 50
f 48 50 51
f 48 51 52
f 48 52 49
f 49 52 53
f 49 53 54
f 49 54 34
f 49 34 33
f 54 50 40
f 54 40 34
f 50 45 40
f 54 53 55
f 54 55 50
f 50 55 51
f 56 57 58
f 56 58 59
f 56 59 60
f 56 60 61
f 56 61 62
f 56 62 63
f 56 63 57
f 57 63 64
f 57 64 65
f 57 65 58
f 58 65 66
f 58 66 67
f 58 67 68
f 58 68 59
f 59 68 69
f 59 69 60
f 60 69 70
f 70 69 71
f 70 71 72
f 72 71 73
f 72 73 74
f 72 74 75
f 72 75 76
f 72 76 67
f 67 76 68
f 68 76 77
f 68 77 69
f 69 77 71
f 71 77 78
f 71 78 79
f 71 79 73
f 73 79 80
f 73 80 74
f 74 80 81
f 74 81 82
f 74 82 83
f 74 83 84
f 74 84 85
f 74 85 86
f 74 86 87
f 74 87 75
f 75 87 88
f 75 88 89
f 75 89 90
f 75 90 76
f 76 90 91
f 76 91 77
f 77 91 78
f 78 91 92
f 78 92 93
f 78 93 94
f 78 94 79
f 79 94 95
f 79 95 96
f 79 96 97
f 79 97 98
f 79 98 99
f 79 99 80
f 80 99 100
f 80 100 101
f 80 101 102
f 80 102 103
f 80 103 104
f 80 104 81
f 81 104 94
f 81 94 105
f 81 105 82
f 82 105 106
f 82 106 83
f 83 106 107
f 83 107 84
f 84 107 108
f 84 108 109
f 84 109 85
f 85 109 110
f 85 110 111
f 85 111 112
f 85 112 113
f 85 113 114
f 85 114 115
f 85 115 86
f 116 117 64
f 116 64 63
f 116 63 118
f 116 118 119
f 116 119 117
f 117 119 120
f 117 120 65
f 117 65 64
f 118 63 62
f 118 62 121
f 118 121 122
f 118 122 123
f 118 123 119
f 119 123 124
f 119 124 120
f 120 124 125
f 120 125 65
f 65 125 126
f 65 126 61
f 61 126 127
f 61 127 128
f 61 128 129
f 61 129 62
f 62 129 121
f 121 129 130
f 121 130 122
f 122 130 131
f 122 131 132
f 122 132 123
f 123 132 128
f 123 128 124
f 124 128 127
f 124 127 125
f 125 127 126
f 132 133 128
f 128 133 134
f 128 134 130
f 128 130 129
f 130 134 131
f 131 134 133
f 131 133 132
f 94 104 95
f 95 104 103
f 95 103 135
f 95 135 96
f 96 135 136
f 96 136 137
f 96 137 97
f 97 137 138
f 97 138 139
f 97 139 140
f 97 140 98
f 98 140 99
f 99 140 141
f 99 141 142
f 99 142 100
f 100 142 101
f 101 142 143
f 101 143 102
f 102 143 135
f 102 135 103
f 143 136 135
f 136 143 142
f 136 142 141
f 136 141 144
f 136 144 137
f 137 144 138
f 138 144 145
f 138 145 139
f 139 145 146
f 139 146 140
f 140 146 141
f 141 146 144
f 144 146 145
f 93 105 94
f 105 93 106
f 106 93 147
f 106 147 107
f 107 147 108
f 108 147 148
f 108 148 149
f 108 149 109
f 109 149 110
f 110 149 150
f 110 150 111
f 111 150 151
f 111 151 112
f 112 151 152
f 112 152 153
f 112 153 154
f 112 154 113
f 113 154 155
f 113 155 156
f 113 156 114
f 114 156 157
f 114 157 158
f 114 158 159
f 114 159 160
f 114 160 161
f 114 161 115
f 92 147 93
f 147 92 148
f 148 92 162
f 148 162 150
f 148 150 149
f 163 159 158
f 163 158 90
f 163 90 89
f 163 89 164
f 163 164 165
f 163 165 159
f 159 165 166
f 159 166 160
f 160 166 167
f 160 167 168
f 160 168 161
f 165 164 167
f 165 167 166
f 89 88 169
f 89 169 164
f 164 169 170
f 164 170 167
f 167 170 168
f 91 90 158
f 91 158 157
f 91 157 171
f 91 171 92
f 92 171 172
f 92 172 162
f 162 172 150
f 150 172 151
f 151 172 173
f 151 173 174
f 151 174 152
f 152 174 175
f 152 175 176
f 152 176 153
f 153 176 177
f 153 177 154
f 154 177 178
f 154 178 179
f 154 179 180
f 154 180 173
f 154 173 155
f 155 173 171
f 155 171 181
f 155 181 182
f 155 182 156
f 156 182 183
f 183 182 184
f 183 184 185
f 185 184 186
f 186 184 187
f 186 187 188
f 186 188 189
f 186 189 190
f 186 190 191
f 186 191 192
f 186 192 193
f 193 192 194
f 193 194 195
f 193 195 196
f 193 196 197
f 193 197 198
f 193 198 199
f 193 199 200
f 200 199 201
f 200 201 181
f 200 181 202
f 202 181 171
f 202 171 157
f 202 157 156
f 184 201 199
f 184 199 187
f 187 199 198
f 187 198 188
f 188 198 197
f 188 197 203
f 188 203 189
f 189 203 204
f 189 204 205
f 189 205 190
f 190 205 206
f 190 206 207
f 190 207 208
f 190 208 191
f 191 208 192
f 192 208 209
f 192 209 210
f 192 210 194
f 194 210 195
f 195 210 211
f 195 211 196
f 196 211 203
f 196 203 197
f 211 204 203
f 204 211 210
f 204 210 209
f 204 209 212
f 204 212 205
f 205 212 206
f 206 212 213
f 206 213 207
f 207 213 214
f 207 214 208
f 208 214 209
f 209 214 212
f 212 214 213
f 182 181 201
f 182 201 184
f 173 172 171
f 215 178 177
f 215 177 176
f 215 176 175
f 215 175 216
f 215 216 217
f 215 217 178
f 178 217 179
f 179 217 218
f 179 218 180
f 180 218 173
f 173 218 219
f 173 219 220
f 173 220 174
f 174 220 221
f 174 221 175
f 175 221 222
f 175 222 216
f 216 222 223
f 216 223 219
f 216 219 217
f 217 219 218
f 223 224 219
f 219 224 225
f 219 225 226
f 219 226 220
f 220 226 221
f 221 226 222
f 222 226 227
f 222 227 223
f 223 227 224
f 224 227 225
f 225 227 226
f 228 229 230
f 228 230 231
f 228 231 232
f 228 232 233
f 228 233 234
f 228 234 235
f 228 235 229
f 230 236 237
f 230 237 231
f 231 237 238
f 231 238 232
f 232 238 239
f 232 239 233
f 233 239 240
f 233 240 234
f 236 241 242
f 236 242 237
f 237 242 238
f 238 242 239
f 239 242 240
f 240 242 243
f 243 242 241
f 244 245 229
f 244 229 241
f 244 241 246
f 244 246 247
f 244 247 245
f 245 247 248
f 245 248 249
f 245 249 230
f 245 230 229
f 249 246 236
f 249 236 230
f 246 241 236
f 249 248 250
f 249 250 251
f 249 251 246
f 246 251 252
f 246 252 247
f 247 252 253
f 247 253 248
f 248 253 250
f 254 255 256
f 254 256 257
f 254 257 258
f 254 258 259
f 254 259 260
f 254 260 255
f 255 260 261
f 255 261 262
f 262 261 263
f 262 263 258
f 262 258 264
f 262 264 265
f 265 264 266
f 266 264 267
f 266 267 268
f 268 267 269
f 268 269 256
f 268 256 270
f 270 256 255
f 256 271 257
f 257 271 272
f 257 272 258
f 258 272 264
f 264 272 273
f 264 273 267
f 267 273 269
f 269 273 271
f 269 271 256
f 271 273 272
f 258 263 259
f 259 263 274
f 259 274 275
f 259 275 260
f 260 275 276
f 260 276 261
f 261 276 277
f 261 277 263
f 263 277 274
f 278 279 280
f 278 280 281
f 278 281 282
f 278 282 283
f 278 283 284
f 278 284 279
f 279 284 285
f 279 285 286
f 279 286 287
f 279 287 280
f 280 287 288
f 280 288 281
f 281 288 282
f 282 288 287
f 282 287 283
f 283 287 286
f 283 286 289
f 283 289 284
f 284 289 290
f 284 290 285
f 285 290 291
f 285 291 292
f 285 292 286
f 286 292 289
f 289 292 293
f 289 293 290
f 290 293 294
f 290 294 291
f 291 294 295
f 291 295 296
f 291 296 292
f 292 296 293
f 293 296 297
f 293 297 294
f 298 299 300
f 298 300 301
f 298 301 302
f 302 301 303
f 302 303 304
f 304 303 305
f 304 305 299
f 299 305 300
f 306 307 308
f 306 308 309
f 306 309 310
f 310 309 311
f 310 311 312
f 312 311 313
f 312 313 307
f 307 313 308
f 314 315 316
f 314 316 317
f 314 317 318
f 314 318 319
f 314 319 320
f 314 320 315
f 315 320 321
f 315 321 322
f 315 322 323
f 315 323 316
f 322 318 324
f 322 324 323
f 325 319 318
f 325 318 322
f 325 322 321
f 325 321 326
f 325 326 327
f 325 327 319
f 319 327 328
f 319 328 320
f 320 328 329
f 320 329 321
f 321 329 326
f 317 324 318
