# RS2 Model 12857
# Vertices: 325
# Faces: 562

v 1 36 28
v 5 36 22
v 0 46 23
v -3 40 31
v -3 31 28
v 3 27 39
v 7 33 39
v 12 31 34
v 0 29 22
v 7 24 34
v -12 28 23
v -7 33 15
v -12 38 15
v -18 40 23
v -8 46 15
v -11 46 23
v 0 42 15
v -8 44 31
v -7 33 31
v -14 36 31
v 8 21 45
v 7 24 56
v 1 28 56
v 5 35 56
v 12 29 45
v 12 29 56
v 71 47 23
v 66 38 22
v 70 39 28
v 72 42 31
v 78 46 31
v 81 47 23
v 78 47 15
v 71 43 15
v 72 32 28
v 76 35 31
v 83 39 31
v 86 42 23
v 81 39 15
v 71 32 22
v 81 29 23
v 75 35 15
v 64 25 34
v 59 32 34
v 70 29 39
v 70 29 56
v 64 25 56
v 59 32 56
v 66 38 39
v 66 38 56
v 11 48 102
v 11 38 102
v 29 36 97
v 29 47 97
v 26 47 90
v 12 48 93
v 0 48 102
v 0 48 106
v 0 38 106
v 12 38 93
v 26 36 90
v 53 33 97
v 56 33 106
v 56 44 106
v 52 44 96
v 71 44 104
v 68 44 90
v 75 43 94
v 94 36 66
v 79 52 66
v 66 39 77
v 71 33 104
v 82 40 164
v 82 50 168
v 93 50 168
v 93 40 171
v 93 28 188
v 93 12 194
v 93 4 188
v 94 -38 66
v 94 -38 56
v 94 36 56
v 78 52 56
v -11 52 66
v 62 48 69
v 62 0 77
v 71 0 164
v 82 28 176
v 82 40 171
v 82 62 180
v 82 62 176
v 82 62 174
v 82 55 171
v 82 52 162
v 93 52 162
v 93 62 159
v 93 74 168
v 93 74 174
v 93 62 180
v 82 28 188
v 82 12 194
v 82 4 188
v 82 -2 188
v 93 -2 188
v 93 -12 194
v 93 -28 188
v 93 -40 171
v 75 -43 94
v 79 -52 66
v 78 -52 56
v -12 48 100
v -12 38 100
v -7 48 97
v -12 48 93
v -12 38 93
v 0 48 100
v -4 48 97
v 0 48 90
v 0 48 87
v 0 38 87
v 10 38 90
v 10 48 90
v 5 48 94
v 7 48 97
v 0 48 97
v -1 48 96
v 0 48 93
v 3 48 94
v 0 48 96
v 82 74 174
v 82 69 171
v 82 66 171
v 82 63 170
v 82 62 172
v 82 57 169
v 82 62 165
v 82 62 159
v 82 74 168
v 82 62 167
v 82 62 170
v 82 59 169
v 82 6 186
v 82 -6 186
v 82 -12 194
v 82 -28 188
v 82 -40 171
v 82 -62 180
v 93 -62 180
v 93 -50 168
v 71 -44 104
v 68 -44 90
v 66 -39 77
v 62 -48 69
v -8 -48 69
v -11 -52 66
v -11 -52 56
v 82 -28 176
v -8 48 69
v -26 35 66
v -22 32 69
v -22 -33 69
v -26 -36 66
v -26 -36 56
v -11 52 56
v -26 35 56
v 71 -33 104
v 82 -40 164
v 82 -50 168
v 82 -62 176
v 82 -69 171
v 82 -74 174
v 93 -74 174
v 93 -74 168
v 93 -62 159
v 93 -52 162
v 56 -33 106
v 56 -44 106
v 52 -44 96
v 29 -47 97
v 26 -47 90
v 12 -48 93
v 11 -48 102
v 0 -48 106
v 0 -48 102
v 0 -48 100
v 7 -48 97
v 10 -48 90
v 12 -38 93
v 10 -38 90
v 0 -38 87
v -12 -38 93
v -12 -38 100
v 0 -38 106
v 11 -38 102
v 26 -36 90
v 29 -36 97
v 53 -33 97
v -12 -48 100
v -7 -48 97
v -4 -48 97
v -1 -48 96
v 0 -48 97
v 5 -48 94
v 0 -48 90
v 0 -48 87
v -12 -48 93
v 0 -48 93
v 0 -48 96
v 3 -48 94
v 82 -74 168
v 82 -62 165
v 82 -62 159
v 82 -52 162
v 82 -57 169
v 82 -55 171
v 82 -62 174
v 82 -66 171
v 82 -62 167
v 82 -59 169
v 82 -62 170
v 82 -62 172
v 82 -63 170
v 0 -46 23
v 5 -36 22
v 1 -36 28
v -3 -40 31
v -8 -44 31
v -11 -46 23
v -8 -46 15
v 0 -42 15
v -3 -31 28
v -7 -33 31
v -14 -36 31
v -18 -40 23
v -12 -38 15
v 0 -29 22
v -12 -28 23
v -7 -33 15
v 7 -24 34
v 12 -31 34
v 3 -27 39
v 8 -21 45
v 12 -29 45
v 7 -33 39
v 12 -29 56
v 5 -35 56
v 1 -28 56
v 7 -24 56
v 70 -39 28
v 66 -38 22
v 71 -47 23
v 72 -42 31
v 72 -32 28
v 70 -29 39
v 66 -38 39
v 59 -32 34
v 71 -32 22
v 64 -25 34
v 81 -29 23
v 75 -35 15
v 81 -39 15
v 86 -42 23
v 78 -47 15
v 81 -47 23
v 71 -43 15
v 78 -46 31
v 76 -35 31
v 83 -39 31
v 64 -25 56
v 70 -29 56
v 66 -38 56
v 59 -32 56
v -19 -52 4
v 87 -52 4
v 87 -48 15
v -19 -48 15
v -19 48 15
v -19 52 4
v -19 -52 3
v 87 -52 3
v 87 52 3
v 87 52 4
v 87 48 15
v -19 52 3
v -29 -61 3
v 97 -61 3
v 97 61 3
v -29 61 3
v -29 -62 -8
v 97 -62 -8
v 97 62 -8
v -29 62 -8
v 27 -46 90
v 27 -39 90
v 22 -39 69
v 22 -46 69
v 34 -46 93
v 29 -46 69
v 34 -39 93
v 29 -39 69
v 27 39 90
v 27 46 90
v 22 46 69
v 22 39 69
v 34 39 93
v 29 39 69
v 34 46 93
v 29 46 69
v 85 -2 194
v 85 4 194
v 85 4 188
v 85 -2 188
v 91 -2 194
v 97 -9 197
v 79 -9 197
v 79 10 197
v 91 4 194
v 91 4 188
v 91 -2 188
v 97 10 197
v 83 5 202
v 93 5 202
v 93 -4 202
v 83 -4 202
v 89 0 230

f 1 2 3
f 1 3 4
f 1 4 5
f 1 5 6
f 1 6 7
f 1 7 2
f 2 7 8
f 2 8 9
f 9 8 10
f 9 10 5
f 9 5 11
f 9 11 12
f 12 11 13
f 13 11 14
f 13 14 15
f 15 14 16
f 15 16 3
f 15 3 17
f 17 3 2
f 3 18 4
f 4 18 19
f 4 19 5
f 5 19 11
f 11 19 20
f 11 20 14
f 14 20 16
f 16 20 18
f 16 18 3
f 18 20 19
f 5 10 6
f 6 10 21
f 6 21 22
f 6 22 23
f 6 23 7
f 7 23 24
f 7 24 25
f 7 25 8
f 8 25 10
f 10 25 21
f 21 25 26
f 21 26 22
f 24 26 25
f 27 28 29
f 27 29 30
f 27 30 31
f 27 31 32
f 27 32 33
f 27 33 34
f 27 34 28
f 29 35 36
f 29 36 30
f 30 36 37
f 30 37 31
f 31 37 38
f 31 38 32
f 32 38 39
f 32 39 33
f 35 40 41
f 35 41 36
f 36 41 37
f 37 41 38
f 38 41 39
f 39 41 42
f 42 41 40
f 43 44 28
f 43 28 40
f 43 40 45
f 43 45 46
f 43 46 47
f 43 47 44
f 44 47 48
f 44 48 49
f 44 49 29
f 44 29 28
f 49 45 35
f 49 35 29
f 45 40 35
f 49 48 50
f 49 50 45
f 45 50 46
f 51 52 53
f 51 53 54
f 51 54 55
f 51 55 56
f 51 56 57
f 51 57 58
f 51 58 52
f 52 58 59
f 52 59 60
f 52 60 53
f 53 60 61
f 53 61 62
f 53 62 63
f 53 63 54
f 54 63 64
f 54 64 55
f 55 64 65
f 65 64 66
f 65 66 67
f 67 66 68
f 67 68 69
f 67 69 70
f 67 70 71
f 67 71 62
f 62 71 63
f 63 71 72
f 63 72 64
f 64 72 66
f 66 72 73
f 66 73 74
f 66 74 68
f 68 74 75
f 68 75 69
f 69 75 76
f 69 76 77
f 69 77 78
f 69 78 79
f 69 79 80
f 69 80 81
f 69 81 82
f 69 82 70
f 70 82 83
f 70 83 84
f 70 84 85
f 70 85 71
f 71 85 86
f 71 86 72
f 72 86 73
f 73 86 87
f 73 87 88
f 73 88 89
f 73 89 74
f 74 89 90
f 74 90 91
f 74 91 92
f 74 92 93
f 74 93 94
f 74 94 75
f 75 94 95
f 75 95 96
f 75 96 97
f 75 97 98
f 75 98 99
f 75 99 76
f 76 99 89
f 76 89 100
f 76 100 77
f 77 100 101
f 77 101 78
f 78 101 102
f 78 102 79
f 79 102 103
f 79 103 104
f 79 104 80
f 80 104 105
f 80 105 106
f 80 106 107
f 80 107 108
f 80 108 109
f 80 109 110
f 80 110 81
f 111 112 59
f 111 59 58
f 111 58 113
f 111 113 114
f 111 114 112
f 112 114 115
f 112 115 60
f 112 60 59
f 113 58 57
f 113 57 116
f 113 116 117
f 113 117 118
f 113 118 114
f 114 118 119
f 114 119 115
f 115 119 120
f 115 120 60
f 60 120 121
f 60 121 56
f 56 121 122
f 56 122 123
f 56 123 124
f 56 124 57
f 57 124 116
f 116 124 125
f 116 125 117
f 117 125 126
f 117 126 127
f 117 127 118
f 118 127 123
f 118 123 119
f 119 123 122
f 119 122 120
f 120 122 121
f 127 128 123
f 123 128 129
f 123 129 125
f 123 125 124
f 125 129 126
f 126 129 128
f 126 128 127
f 89 99 90
f 90 99 98
f 90 98 130
f 90 130 91
f 91 130 131
f 91 131 132
f 91 132 92
f 92 132 133
f 92 133 134
f 92 134 135
f 92 135 93
f 93 135 94
f 94 135 136
f 94 136 137
f 94 137 95
f 95 137 96
f 96 137 138
f 96 138 97
f 97 138 130
f 97 130 98
f 138 131 130
f 131 138 137
f 131 137 136
f 131 136 139
f 131 139 132
f 132 139 133
f 133 139 140
f 133 140 134
f 134 140 141
f 134 141 135
f 135 141 136
f 136 141 139
f 139 141 140
f 88 100 89
f 100 88 101
f 101 88 142
f 101 142 102
f 102 142 103
f 103 142 143
f 103 143 144
f 103 144 104
f 104 144 105
f 105 144 145
f 105 145 106
f 106 145 146
f 106 146 107
f 107 146 147
f 107 147 148
f 107 148 149
f 107 149 108
f 108 149 150
f 108 150 151
f 108 151 109
f 109 151 152
f 109 152 153
f 109 153 154
f 109 154 155
f 109 155 156
f 109 156 110
f 87 142 88
f 142 87 143
f 143 87 157
f 143 157 145
f 143 145 144
f 158 154 153
f 158 153 85
f 158 85 84
f 158 84 159
f 158 159 160
f 158 160 154
f 154 160 161
f 154 161 155
f 155 161 162
f 155 162 163
f 155 163 156
f 160 159 162
f 160 162 161
f 84 83 164
f 84 164 159
f 159 164 165
f 159 165 162
f 162 165 163
f 86 85 153
f 86 153 152
f 86 152 166
f 86 166 87
f 87 166 167
f 87 167 157
f 157 167 145
f 145 167 146
f 146 167 168
f 146 168 169
f 146 169 147
f 147 169 170
f 147 170 171
f 147 171 148
f 148 171 172
f 148 172 149
f 149 172 173
f 149 173 174
f 149 174 175
f 149 175 168
f 149 168 150
f 150 168 166
f 150 166 176
f 150 176 177
f 150 177 151
f 151 177 178
f 178 177 179
f 178 179 180
f 180 179 181
f 181 179 182
f 181 182 183
f 181 183 184
f 181 184 185
f 181 185 186
f 181 186 187
f 181 187 188
f 188 187 189
f 188 189 190
f 188 190 191
f 188 191 192
f 188 192 193
f 188 193 194
f 188 194 195
f 195 194 196
f 195 196 176
f 195 176 197
f 197 176 166
f 197 166 152
f 197 152 151
f 179 196 194
f 179 194 182
f 182 194 193
f 182 193 183
f 183 193 192
f 183 192 198
f 183 198 184
f 184 198 199
f 184 199 200
f 184 200 185
f 185 200 201
f 185 201 202
f 185 202 203
f 185 203 186
f 186 203 187
f 187 203 204
f 187 204 205
f 187 205 189
f 189 205 190
f 190 205 206
f 190 206 191
f 191 206 198
f 191 198 192
f 206 199 198
f 199 206 205
f 199 205 204
f 199 204 207
f 199 207 200
f 200 207 201
f 201 207 208
f 201 208 202
f 202 208 209
f 202 209 203
f 203 209 204
f 204 209 207
f 207 209 208
f 177 176 196
f 177 196 179
f 168 167 166
f 210 173 172
f 210 172 171
f 210 171 170
f 210 170 211
f 210 211 212
f 210 212 173
f 173 212 174
f 174 212 213
f 174 213 175
f 175 213 168
f 168 213 214
f 168 214 215
f 168 215 169
f 169 215 216
f 169 216 170
f 170 216 217
f 170 217 211
f 211 217 218
f 211 218 214
f 211 214 212
f 212 214 213
f 218 219 214
f 214 219 220
f 214 220 221
f 214 221 215
f 215 221 216
f 216 221 217
f 217 221 222
f 217 222 218
f 218 222 219
f 219 222 220
f 220 222 221
f 223 224 225
f 223 225 226
f 223 226 227
f 223 227 228
f 223 228 229
f 223 229 230
f 223 230 224
f 225 231 232
f 225 232 226
f 226 232 233
f 226 233 227
f 227 233 234
f 227 234 228
f 228 234 235
f 228 235 229
f 231 236 237
f 231 237 232
f 232 237 233
f 233 237 234
f 234 237 235
f 235 237 238
f 238 237 236
f 239 240 224
f 239 224 236
f 239 236 241
f 239 241 242
f 239 242 240
f 240 242 243
f 240 243 244
f 240 244 225
f 240 225 224
f 244 241 231
f 244 231 225
f 241 236 231
f 244 243 245
f 244 245 246
f 244 246 241
f 241 246 247
f 241 247 242
f 242 247 248
f 242 248 243
f 243 248 245
f 249 250 251
f 249 251 252
f 249 252 253
f 249 253 254
f 249 254 255
f 249 255 250
f 250 255 256
f 250 256 257
f 257 256 258
f 257 258 253
f 257 253 259
f 257 259 260
f 260 259 261
f 261 259 262
f 261 262 263
f 263 262 264
f 263 264 251
f 263 251 265
f 265 251 250
f 251 266 252
f 252 266 267
f 252 267 253
f 253 267 259
f 259 267 268
f 259 268 262
f 262 268 264
f 264 268 266
f 264 266 251
f 266 268 267
f 253 258 254
f 254 258 269
f 254 269 270
f 254 270 255
f 255 270 271
f 255 271 256
f 256 271 272
f 256 272 258
f 258 272 269
f 273 274 275
f 273 275 276
f 273 276 277
f 273 277 278
f 273 278 279
f 273 279 274
f 274 279 280
f 274 280 281
f 274 281 282
f 274 282 275
f 275 282 283
f 275 283 276
f 276 283 277
f 277 283 282
f 277 282 278
f 278 282 281
f 278 281 284
f 278 284 279
f 279 284 285
f 279 285 280
f 280 285 286
f 280 286 287
f 280 287 281
f 281 287 284
f 284 287 288
f 284 288 285
f 285 288 289
f 285 289 286
f 286 289 290
f 286 290 291
f 286 291 287
f 287 291 288
f 288 291 292
f 288 292 289
f 293 294 295
f 293 295 296
f 293 296 297
f 297 296 298
f 297 298 299
f 299 298 300
f 299 300 294
f 294 300 295
f 301 302 303
f 301 303 304
f 301 304 305
f 305 304 306
f 305 306 307
f 307 306 308
f 307 308 302
f 302 308 303
f 309 310 311
f 309 311 312
f 309 312 313
f 309 313 314
f 309 314 315
f 309 315 310
f 310 315 316
f 310 316 317
f 310 317 318
f 310 318 311
f 317 313 319
f 317 319 318
f 320 314 313
f 320 313 317
f 320 317 316
f 320 316 321
f 320 321 322
f 320 322 314
f 314 322 323
f 314 323 315
f 315 323 324
f 315 324 316
f 316 324 321
f 321 324 325
f 321 325 322
f 322 325 323
f 323 325 324
f 312 319 313
