# RS2 Model 12938
# Vertices: 98
# Faces: 96

v -7 -7 29
v -1 -13 27
v 1 -5 8
v -3 -1 8
v 2 0 2
v -1 6 8
v -9 6 27
v -7 -1 29
v -15 6 38
v -15 0 38
v -22 6 43
v -25 0 43
v -45 5 52
v -6 14 27
v 5 8 8
v 1 17 27
v -7 21 36
v -1 22 36
v -4 28 43
v -12 27 43
v -17 43 58
v 16 8 27
v 11 14 27
v 9 2 8
v 6 -4 8
v 16 -5 27
v 17 3 27
v 23 2 36
v 23 -5 36
v 33 -5 41
v 33 2 41
v 60 -3 51
v 5 -16 27
v 11 -12 27
v -12 -12 36
v -4 -18 36
v 8 -21 36
v 14 -16 36
v 20 13 36
v 14 17 36
v 28 18 41
v 20 24 41
v 42 42 51
v 28 -49 54
v 20 -27 41
v 12 -31 41
v -25 -43 58
v -9 -26 41
v -17 -21 41
v -6 -20 33
v 5 -21 33
v 5 -13 23
v -6 -12 23
v 5 -7 5
v -4 -6 5
v 2 0 0
v -10 5 5
v -15 2 23
v -9 -7 23
v -22 -3 33
v -20 -10 33
v -34 -5 38
v -31 -12 38
v -58 -16 33
v 19 -20 33
v 27 -10 33
v 22 -7 23
v 14 -15 23
v 12 -3 5
v 11 11 5
v 0 16 5
v -15 10 23
v -4 18 23
v -20 14 33
v -10 22 33
v -21 30 38
v -26 24 38
v -51 47 41
v 19 0 23
v 28 3 33
v 24 16 33
v 17 13 23
v 2 22 23
v 11 17 23
v 14 24 33
v 3 27 33
v 14 33 38
v 6 36 38
v 19 63 38
v -4 -32 38
v 3 -32 38
v 0 -62 43
v 30 -26 38
v 36 -18 38
v 56 -40 51
v 37 8 38
v 34 17 38
v 64 22 36

f 1 2 3
f 1 3 4
f 4 3 5
f 4 5 6
f 4 6 7
f 4 7 8
f 8 7 9
f 8 9 10
f 10 9 11
f 10 11 12
f 12 11 13
f 14 6 15
f 14 15 16
f 14 16 17
f 17 16 18
f 17 18 19
f 17 19 20
f 20 19 21
f 22 23 15
f 22 15 24
f 24 15 5
f 24 5 25
f 24 25 26
f 24 26 27
f 27 26 28
f 28 26 29
f 28 29 30
f 28 30 31
f 31 30 32
f 33 34 25
f 33 25 3
f 3 25 5
f 5 15 6
f 35 36 2
f 35 2 1
f 37 38 34
f 37 34 33
f 23 22 39
f 23 39 40
f 40 39 41
f 40 41 42
f 42 41 43
f 44 45 46
f 46 45 38
f 46 38 37
f 47 48 49
f 49 48 36
f 49 36 35
f 50 51 52
f 50 52 53
f 53 52 54
f 53 54 55
f 55 54 56
f 55 56 57
f 55 57 58
f 55 58 59
f 59 58 60
f 59 60 61
f 61 60 62
f 61 62 63
f 63 62 64
f 65 66 67
f 65 67 68
f 68 67 69
f 68 69 54
f 54 69 56
f 56 69 70
f 56 70 71
f 56 71 57
f 57 71 72
f 72 71 73
f 72 73 74
f 74 73 75
f 74 75 76
f 74 76 77
f 77 76 78
f 79 80 81
f 79 81 82
f 79 82 70
f 79 70 69
f 83 84 85
f 83 85 86
f 86 85 87
f 86 87 88
f 88 87 89
f 84 83 71
f 84 71 70
f 51 50 90
f 51 90 91
f 91 90 92
f 66 65 93
f 66 93 94
f 94 93 95
f 81 80 96
f 81 96 97
f 97 96 98
