# RS2 Model 12990
# Vertices: 71
# Faces: 186

v -3 3 20
v -6 6 19
v -12 -22 18
v 8 -22 19
v 2 7 20
v 3 11 20
v -1 12 20
v -3 18 21
v -3 12 20
v -8 11 20
v -18 -2 19
v -43 -58 12
v -2 -53 14
v -24 3 15
v -39 1 12
v -42 54 11
v -11 12 19
v -8 17 21
v -12 28 18
v -1 49 14
v 12 -2 20
v 42 -58 12
v 17 3 16
v 42 54 12
v 6 12 20
v 2 17 21
v 7 28 18
v -5 23 19
v -3 34 18
v 1 22 19
v 35 2 14
v -1 -156 5
v -1 -59 5
v -1 -57 1
v -1 -156 1
v 5 -157 1
v 3 -56 1
v 3 -58 6
v 5 -157 5
v 0 81 6
v 2 57 3
v -1 56 3
v -2 58 9
v 4 59 9
v 1 54 8
v 1 23 5
v 4 24 2
v 0 22 2
v -23 57 7
v -22 60 8
v -22 60 11
v 0 58 12
v 24 59 9
v 23 56 9
v 23 56 12
v -23 57 10
v 4 -11 2
v 0 -12 2
v 2 -11 5
v 1 -54 4
v 25 -59 5
v 25 -62 5
v 25 -62 8
v 1 -58 8
v -22 -61 5
v 24 59 12
v -22 -61 8
v -22 -58 5
v -22 -58 8
v 1 -54 7
v 25 -59 8

f 1 2 3
f 1 3 4
f 1 4 5
f 1 5 6
f 1 6 7
f 1 7 8
f 1 8 9
f 1 9 2
f 1 2 10
f 1 10 9
f 1 9 8
f 1 8 7
f 1 7 5
f 1 5 4
f 1 4 3
f 1 3 2
f 2 3 11
f 2 11 3
f 3 11 12
f 3 12 13
f 3 13 4
f 3 4 13
f 3 13 12
f 3 12 11
f 11 12 14
f 11 14 12
f 12 14 15
f 12 15 14
f 14 15 16
f 14 16 15
f 16 14 11
f 16 11 17
f 16 17 18
f 16 18 19
f 16 19 20
f 16 20 19
f 16 19 18
f 16 18 17
f 16 17 11
f 16 11 14
f 11 2 10
f 11 10 17
f 11 17 2
f 2 17 10
f 10 17 18
f 10 18 17
f 18 10 8
f 18 8 19
f 18 19 8
f 18 8 9
f 18 9 10
f 10 9 8
f 9 10 2
f 21 5 4
f 21 4 22
f 21 22 23
f 21 23 24
f 21 24 25
f 21 25 5
f 21 5 6
f 21 6 25
f 21 25 24
f 21 24 23
f 21 23 22
f 21 22 4
f 21 4 5
f 25 6 5
f 6 25 26
f 6 26 7
f 6 7 8
f 6 8 26
f 6 26 25
f 25 26 24
f 25 24 26
f 26 24 27
f 26 27 8
f 26 8 7
f 28 19 8
f 28 8 29
f 28 29 19
f 28 19 29
f 28 29 8
f 28 8 19
f 30 29 8
f 30 8 27
f 30 27 29
f 30 29 27
f 30 27 8
f 30 8 29
f 20 19 29
f 20 29 27
f 20 27 24
f 20 24 27
f 20 27 29
f 20 29 19
f 22 4 13
f 22 13 4
f 31 24 23
f 31 23 22
f 31 22 23
f 31 23 24
f 32 33 34
f 32 34 35
f 35 34 36
f 36 34 37
f 36 37 38
f 36 38 39
f 39 38 33
f 39 33 32
f 40 41 42
f 40 42 43
f 40 43 44
f 40 44 41
f 41 44 45
f 41 45 46
f 41 46 47
f 41 47 42
f 42 47 48
f 42 48 45
f 42 45 43
f 43 45 49
f 43 49 50
f 43 50 51
f 43 51 52
f 43 52 44
f 44 52 53
f 44 53 45
f 45 53 54
f 45 54 55
f 45 55 52
f 45 52 51
f 45 51 56
f 45 56 49
f 49 56 16
f 49 16 50
f 50 16 51
f 51 16 56
f 48 47 57
f 48 57 58
f 48 58 46
f 48 46 45
f 58 57 37
f 58 37 34
f 58 34 59
f 58 59 46
f 46 59 47
f 47 59 57
f 57 59 60
f 57 60 37
f 37 60 38
f 38 60 61
f 38 61 62
f 38 62 63
f 38 63 64
f 38 64 33
f 33 64 65
f 33 65 60
f 33 60 34
f 34 60 59
f 54 24 55
f 55 24 66
f 55 66 52
f 52 66 53
f 53 66 24
f 53 24 54
f 64 67 65
f 65 67 12
f 65 12 68
f 65 68 60
f 60 68 69
f 60 69 70
f 60 70 61
f 61 70 71
f 61 71 22
f 61 22 62
f 62 22 63
f 63 22 71
f 63 71 70
f 63 70 64
f 64 70 69
f 64 69 67
f 67 69 12
f 12 69 68
f 5 7 6
f 27 26 8
f 26 27 24
