# RS2 Model 1299
# Vertices: 100
# Faces: 131

v -38 28 -28
v -38 44 -11
v -38 11 -12
v -38 -44 -12
v -38 -27 -28
v -38 -28 4
v -64 -52 -34
v -64 -75 -10
v -64 -28 -11
v -64 27 12
v -64 30 -34
v -64 -30 10
v -64 53 -44
v -64 20 -10
v -64 84 -14
v -64 48 0
v -64 40 -8
v -38 40 -8
v -38 48 0
v -64 56 0
v -64 40 -16
v -64 32 0
v -38 32 0
v -38 24 0
v -38 40 -16
v -38 48 -24
v -38 56 -24
v -38 64 -16
v -38 64 -8
v -38 56 0
v -64 64 -8
v -64 64 -16
v -64 56 -24
v -64 48 -24
v -64 32 -24
v -64 24 -24
v -64 16 -16
v -64 16 -8
v -64 24 0
v -38 16 -8
v -38 16 -16
v -38 24 -24
v -38 32 -24
v -64 8 -24
v -64 8 0
v -38 8 0
v -38 -8 0
v -38 8 -24
v -64 -8 0
v -64 -16 -8
v -38 -16 -8
v -64 -16 -16
v -64 -24 0
v -38 -24 0
v -38 -32 0
v -38 -16 -16
v -38 -8 -24
v -64 -8 -24
v -64 -24 -24
v -64 -32 -24
v -64 -40 -16
v -64 -40 -8
v -64 -32 0
v -38 -40 -8
v -38 -40 -16
v -38 -32 -24
v -38 -24 -24
v -64 -48 -24
v -64 -48 0
v -38 -48 0
v -38 -56 0
v -38 -48 -24
v -64 -56 0
v -64 -64 -8
v -38 -64 -8
v -64 -64 -16
v -38 -64 -16
v -38 -56 -24
v -64 -56 -24
v -38 64 -24
v -38 -64 -24
v 64 64 -24
v 64 -64 -24
v 64 -64 -8
v 64 64 -8
v -38 52 -28
v -38 68 -11
v -38 35 -12
v -38 -15 0
v -38 -16 -23
v -38 16 0
v -38 -51 -28
v -38 -35 -11
v -38 -68 -12
v -64 -28 -32
v -64 -49 -10
v -64 -7 -13
v -64 58 -14
v -64 28 -42
v -64 29 18

f 1 2 3
f 4 5 6
f 7 8 9
f 10 11 12
f 13 14 15
f 16 17 18
f 16 18 19
f 16 19 20
f 16 20 17
f 17 20 21
f 17 21 22
f 17 22 23
f 17 23 18
f 18 23 24
f 18 24 25
f 18 25 19
f 19 25 26
f 19 26 27
f 19 27 28
f 19 28 29
f 19 29 30
f 19 30 20
f 20 30 31
f 20 31 32
f 20 32 33
f 20 33 34
f 20 34 21
f 21 34 26
f 21 26 25
f 21 25 35
f 21 35 22
f 22 35 36
f 22 36 37
f 22 37 38
f 22 38 39
f 22 39 24
f 22 24 23
f 33 32 28
f 33 28 27
f 32 31 29
f 32 29 28
f 31 30 29
f 39 38 40
f 39 40 24
f 24 40 41
f 24 41 42
f 24 42 43
f 24 43 25
f 25 43 35
f 37 36 42
f 37 42 41
f 37 41 44
f 37 44 45
f 37 45 38
f 38 45 46
f 38 46 40
f 40 46 47
f 40 47 41
f 41 47 48
f 41 48 44
f 49 50 51
f 49 51 47
f 49 47 45
f 49 45 50
f 50 45 52
f 50 52 53
f 50 53 54
f 50 54 51
f 51 54 55
f 51 55 56
f 51 56 47
f 47 56 57
f 47 57 48
f 52 58 57
f 52 57 56
f 52 56 59
f 52 59 53
f 53 59 60
f 53 60 61
f 53 61 62
f 53 62 63
f 53 63 55
f 53 55 54
f 45 47 46
f 45 44 58
f 45 58 52
f 63 62 64
f 63 64 55
f 55 64 65
f 55 65 66
f 55 66 67
f 55 67 56
f 56 67 59
f 61 60 66
f 61 66 65
f 61 65 68
f 61 68 69
f 61 69 62
f 62 69 70
f 62 70 64
f 64 70 71
f 64 71 65
f 65 71 72
f 65 72 68
f 73 74 75
f 73 75 71
f 73 71 69
f 73 69 74
f 74 69 76
f 74 76 77
f 74 77 75
f 75 77 71
f 71 77 78
f 71 78 72
f 76 79 78
f 76 78 77
f 69 71 70
f 69 68 79
f 69 79 76
f 80 81 75
f 80 75 29
f 80 29 82
f 80 82 81
f 81 82 83
f 81 83 84
f 81 84 75
f 75 84 85
f 75 85 29
f 29 85 82
f 82 85 83
f 83 85 84
