# RS2 Model 13027
# Vertices: 101
# Faces: 156

v -55 -11 181
v -55 -13 166
v -55 -7 173
v -63 -7 173
v -63 -11 181
v -60 -11 192
v -55 -21 180
v -55 -17 153
v -55 0 163
v -55 0 171
v -63 0 171
v -60 -28 190
v -55 -35 167
v -55 -37 153
v -55 -33 134
v -55 -18 135
v -55 0 143
v -55 17 153
v -55 13 166
v -55 7 173
v -63 7 173
v -60 -43 173
v -60 -46 153
v -60 -42 133
v -60 -35 118
v -55 -27 125
v -55 -14 118
v -55 0 116
v -55 18 135
v -55 33 134
v -55 37 153
v -55 21 180
v -55 11 181
v -63 11 181
v -60 -19 107
v -60 0 105
v -55 14 118
v -55 27 125
v -60 35 118
v -60 42 133
v -60 46 153
v -55 35 167
v -60 28 190
v -60 11 192
v -63 11 192
v -63 -35 118
v -63 -19 107
v -63 0 105
v -60 19 107
v -63 19 107
v -63 35 118
v -63 42 133
v -63 46 153
v -60 43 173
v -63 43 173
v -63 28 190
v -63 -11 192
v -63 -28 190
v -63 -43 173
v -63 -46 153
v -63 -42 133
v -54 -11 148
v -54 -19 143
v -54 -15 138
v -54 -7 143
v -54 0 153
v -54 0 159
v -54 0 161
v -54 -12 149
v -54 -21 143
v -54 -15 136
v -54 -6 142
v -54 0 150
v -54 7 143
v -54 11 148
v -54 12 149
v -54 15 138
v -54 19 143
v -54 21 143
v -54 -11 133
v -54 -19 128
v -54 -15 123
v -54 -7 128
v -54 0 138
v -54 0 143
v -54 0 145
v -54 -12 134
v -54 -21 128
v -54 -15 121
v -54 -6 127
v -54 0 136
v -54 7 128
v -54 11 133
v -54 12 134
v -54 15 123
v -54 19 128
v -54 21 129
v -54 6 142
v -54 15 136
v -54 6 127
v -54 15 121

f 1 2 3
f 1 3 4
f 1 4 5
f 1 5 6
f 1 6 7
f 1 7 2
f 2 7 8
f 2 8 9
f 2 9 3
f 3 9 10
f 3 10 11
f 3 11 4
f 7 6 12
f 7 12 13
f 7 13 14
f 7 14 8
f 8 14 15
f 8 15 16
f 8 16 17
f 8 17 9
f 9 17 18
f 9 18 19
f 9 19 20
f 9 20 10
f 10 20 21
f 10 21 11
f 12 22 13
f 13 22 23
f 13 23 14
f 14 23 24
f 14 24 15
f 15 24 25
f 15 25 26
f 15 26 16
f 16 26 27
f 16 27 28
f 16 28 17
f 17 28 29
f 17 29 18
f 18 29 30
f 18 30 31
f 18 31 32
f 18 32 19
f 19 32 33
f 19 33 20
f 20 33 34
f 20 34 21
f 27 26 35
f 27 35 36
f 27 36 28
f 28 36 37
f 28 37 29
f 29 37 38
f 29 38 30
f 30 38 39
f 30 39 40
f 30 40 31
f 31 40 41
f 31 41 42
f 31 42 32
f 32 42 43
f 32 43 44
f 32 44 33
f 33 44 45
f 33 45 34
f 25 35 26
f 35 25 46
f 35 46 47
f 35 47 36
f 36 47 48
f 36 48 49
f 36 49 37
f 37 49 38
f 38 49 39
f 39 49 50
f 39 50 51
f 39 51 40
f 40 51 52
f 40 52 41
f 41 52 53
f 41 53 54
f 41 54 42
f 42 54 43
f 43 54 55
f 43 55 56
f 43 56 44
f 44 56 45
f 6 5 57
f 6 57 12
f 12 57 58
f 12 58 22
f 22 58 59
f 22 59 23
f 23 59 60
f 23 60 24
f 24 60 61
f 24 61 25
f 25 61 46
f 54 53 55
f 49 48 50
f 62 63 64
f 62 64 65
f 62 65 66
f 62 66 67
f 62 67 68
f 62 68 69
f 62 69 63
f 63 69 70
f 63 70 64
f 64 70 71
f 64 71 65
f 65 71 72
f 65 72 66
f 66 72 73
f 66 73 74
f 66 74 67
f 67 74 75
f 67 75 76
f 67 76 68
f 74 77 78
f 74 78 75
f 75 78 79
f 75 79 76
f 80 81 82
f 80 82 83
f 80 83 84
f 80 84 85
f 80 85 86
f 80 86 87
f 80 87 81
f 81 87 88
f 81 88 82
f 82 88 89
f 82 89 83
f 83 89 90
f 83 90 84
f 84 90 91
f 84 91 92
f 84 92 85
f 85 92 93
f 85 93 94
f 85 94 86
f 92 95 96
f 92 96 93
f 93 96 97
f 93 97 94
f 73 98 74
f 74 98 77
f 77 98 99
f 77 99 78
f 78 99 79
f 91 100 92
f 92 100 95
f 95 100 101
f 95 101 96
f 96 101 97
