# RS2 Model 13036
# Vertices: 39
# Faces: 77

v 0 40 13
v -32 51 0
v -32 51 2
v 0 40 15
v 32 51 2
v 32 51 0
v 32 6 2
v 32 6 0
v 32 -26 2
v 32 -26 0
v 0 -44 15
v 0 -44 13
v -32 -26 2
v -32 -26 0
v -32 6 2
v -32 6 0
v 26 -24 7
v 0 -36 15
v 26 18 7
v 20 12 10
v 11 10 13
v 0 -7 15
v -26 -23 6
v -26 1 7
v -26 41 6
v 0 34 15
v 26 42 7
v 17 18 11
v 15 15 12
v 6 12 14
v 0 18 15
v 0 12 15
v 0 3 15
v -5 12 14
v -8 6 14
v -11 10 13
v -16 9 10
v -16 12 10
v -16 18 10

f 1 2 3
f 1 3 4
f 1 4 5
f 1 5 6
f 6 5 7
f 6 7 8
f 8 7 9
f 8 9 10
f 10 9 11
f 10 11 12
f 12 11 13
f 12 13 14
f 14 13 15
f 14 15 16
f 16 15 3
f 16 3 2
f 17 18 11
f 17 11 9
f 17 9 7
f 17 7 19
f 17 19 20
f 17 20 21
f 17 21 22
f 17 22 18
f 18 22 23
f 18 23 11
f 11 23 13
f 13 23 15
f 15 23 24
f 15 24 25
f 15 25 3
f 3 25 4
f 4 25 26
f 4 26 27
f 4 27 5
f 5 27 7
f 7 27 19
f 19 27 28
f 19 28 29
f 19 29 20
f 20 29 21
f 21 29 30
f 21 30 22
f 21 22 30
f 21 30 29
f 29 30 28
f 29 28 30
f 30 28 31
f 30 31 32
f 30 32 33
f 30 33 22
f 30 22 33
f 33 22 34
f 33 34 22
f 22 34 35
f 22 35 34
f 34 35 36
f 34 36 35
f 35 36 37
f 35 37 24
f 35 24 23
f 35 23 22
f 37 38 24
f 37 24 38
f 36 34 39
f 36 39 34
f 32 34 33
f 34 32 31
f 34 31 39
f 39 31 26
f 39 26 25
f 39 25 24
f 39 24 38
f 39 38 36
f 36 38 37
f 31 28 26
f 26 28 27
