# RS2 Model 13060
# Vertices: 42
# Faces: 56

v -54 -16 187
v -54 -16 99
v -54 18 99
v -54 18 187
v -53 0 191
v -60 -29 191
v -55 -25 187
v -55 -25 99
v -60 -29 94
v -53 0 94
v -60 29 94
v -55 25 99
v -55 25 187
v -60 29 191
v -58 0 191
v -64 -29 191
v -64 -29 94
v -64 29 191
v -58 0 94
v -64 29 94
v -53 -6 136
v -53 -16 140
v -53 -10 134
v -53 -5 132
v -53 -3 140
v -53 0 136
v -53 3 140
v -53 0 142
v -53 -5 148
v -53 -13 148
v -53 -8 152
v -53 -14 154
v -53 -22 148
v -53 13 148
v -53 5 148
v -53 22 148
v -53 14 154
v -53 8 152
v -53 6 132
v -53 6 136
v -53 10 134
v -53 16 140

f 1 2 3
f 1 3 4
f 1 4 5
f 1 5 6
f 1 6 7
f 1 7 2
f 2 7 8
f 2 8 9
f 2 9 10
f 2 10 3
f 3 10 11
f 3 11 12
f 3 12 4
f 4 12 13
f 4 13 14
f 4 14 5
f 5 14 15
f 5 15 16
f 5 16 6
f 6 16 17
f 6 17 9
f 6 9 7
f 7 9 8
f 14 13 12
f 14 12 11
f 14 11 18
f 14 18 15
f 15 18 19
f 15 19 16
f 16 19 17
f 17 19 9
f 9 19 10
f 10 19 20
f 10 20 11
f 11 20 18
f 18 20 19
f 21 22 23
f 21 23 24
f 21 24 25
f 25 24 26
f 25 26 27
f 25 27 28
f 25 28 29
f 25 29 30
f 30 29 31
f 30 31 32
f 30 32 33
f 34 35 28
f 34 28 27
f 36 37 38
f 36 38 35
f 36 35 34
f 26 39 40
f 26 40 27
f 39 41 42
f 39 42 40
