# RS2 Model 13082
# Vertices: 49
# Faces: 49

v -59 52 161
v -64 52 161
v -64 52 181
v -59 52 181
v -55 19 197
v -55 35 141
v -64 35 141
v -64 41 199
v -57 41 199
v -64 19 197
v -64 -21 197
v -55 -21 197
v -55 -37 141
v -59 -54 181
v -64 -54 181
v -64 -54 161
v -59 -54 161
v -57 -43 199
v -64 -43 199
v -64 -37 141
v -54 -18 173
v -54 -20 175
v -54 -26 171
v -54 -14 179
v -54 -18 179
v -54 -16 171
v -54 -14 171
v -54 -12 179
v -54 4 173
v -54 4 183
v -54 -6 189
v -54 4 189
v -54 4 191
v -54 10 193
v -54 -16 161
v -54 -4 157
v -54 2 165
v -54 10 167
v -54 6 165
v -54 16 159
v -54 -10 151
v -54 -8 153
v -54 -8 145
v -54 14 165
v -54 18 157
v -54 22 157
v -54 16 153
v -54 16 157
v -54 10 161

f 1 2 3
f 1 3 4
f 1 4 5
f 1 5 6
f 1 6 2
f 2 6 7
f 4 3 8
f 4 8 9
f 4 9 5
f 5 9 10
f 5 10 11
f 5 11 12
f 5 12 13
f 5 13 6
f 10 9 8
f 14 15 16
f 14 16 17
f 14 17 12
f 14 12 18
f 14 18 15
f 15 18 19
f 19 18 12
f 19 12 11
f 20 13 17
f 20 17 16
f 17 13 12
f 21 22 23
f 22 21 24
f 22 24 25
f 21 26 27
f 21 27 24
f 24 27 28
f 28 27 29
f 28 29 30
f 28 30 31
f 31 30 32
f 31 32 33
f 33 32 34
f 27 35 36
f 27 36 37
f 27 37 29
f 29 37 38
f 38 37 39
f 38 39 40
f 35 41 42
f 35 42 36
f 41 43 42
f 44 45 46
f 47 48 49
