# RS2 Model 13108
# Vertices: 58
# Faces: 78

v -55 -64 202
v -64 -64 202
v -64 -64 140
v -55 -64 140
v -55 -59 197
v -55 -39 192
v -55 -39 197
v -64 -39 197
v -55 64 140
v -64 64 140
v -64 64 202
v -55 64 202
v -55 59 145
v -55 39 150
v -55 39 145
v -64 39 145
v -55 -18 197
v -55 -18 202
v -55 -18 145
v -55 18 197
v -55 18 202
v -64 18 202
v -64 -18 202
v -55 39 192
v -55 39 197
v -55 59 197
v -64 39 197
v -55 -59 145
v -55 -39 150
v -55 -18 140
v -55 18 140
v -55 18 145
v -64 18 140
v -55 -39 145
v -64 -39 145
v -64 -18 140
v -54 -7 162
v -54 -21 168
v -54 -12 159
v -54 -5 157
v -54 -3 168
v -54 1 162
v -54 5 168
v -54 1 170
v -54 -5 178
v -54 -17 178
v -54 -10 183
v -54 -18 186
v -54 -27 178
v -54 19 178
v -54 7 178
v -54 29 178
v -54 20 186
v -54 12 183
v -54 9 157
v -54 9 162
v -54 14 159
v -54 23 168

f 1 2 3
f 1 3 4
f 1 4 5
f 1 5 6
f 1 6 7
f 1 7 8
f 1 8 2
f 9 10 11
f 9 11 12
f 9 12 13
f 9 13 14
f 9 14 15
f 9 15 16
f 9 16 10
f 17 18 7
f 17 7 6
f 17 6 19
f 17 19 20
f 17 20 18
f 18 20 21
f 18 21 22
f 18 22 23
f 18 23 7
f 7 23 8
f 24 25 21
f 24 21 20
f 24 20 14
f 24 14 13
f 24 13 26
f 24 26 25
f 25 26 12
f 25 12 11
f 25 11 27
f 25 27 21
f 21 27 22
f 4 28 5
f 5 28 6
f 6 28 29
f 6 29 19
f 19 29 30
f 19 30 31
f 19 31 32
f 19 32 20
f 20 32 14
f 14 32 15
f 15 32 31
f 15 31 33
f 15 33 16
f 12 26 13
f 29 34 30
f 30 34 35
f 30 35 36
f 30 36 31
f 31 36 33
f 28 4 34
f 28 34 29
f 34 4 3
f 34 3 35
f 37 38 39
f 37 39 40
f 37 40 41
f 41 40 42
f 41 42 43
f 41 43 44
f 41 44 45
f 41 45 46
f 46 45 47
f 46 47 48
f 46 48 49
f 50 51 44
f 50 44 43
f 52 53 54
f 52 54 51
f 52 51 50
f 42 55 56
f 42 56 43
f 55 57 58
f 55 58 56
