# RS2 Model 13111
# Vertices: 110
# Faces: 157

v -55 -64 202
v -64 -64 202
v -64 -64 140
v -55 -64 140
v -55 -59 197
v -55 -39 192
v -55 -39 197
v -64 -39 197
v -55 64 140
v -64 64 140
v -64 64 202
v -55 64 202
v -55 59 145
v -55 39 150
v -55 39 145
v -64 39 145
v -55 -18 197
v -55 -18 202
v -55 -18 145
v -55 18 197
v -55 18 202
v -64 18 202
v -64 -18 202
v -55 39 192
v -55 39 197
v -55 59 197
v -64 39 197
v -55 -59 145
v -55 -39 150
v -55 -18 140
v -55 18 140
v -55 18 145
v -64 18 140
v -55 -39 145
v -64 -39 145
v -64 -18 140
v -54 2 158
v -54 2 161
v -54 0 161
v -54 0 158
v -54 -4 158
v -54 -2 158
v -54 -3 162
v -54 -2 166
v -54 -7 165
v -54 -11 163
v -54 -8 160
v -54 -11 161
v -54 -11 154
v -54 -8 154
v -54 -5 153
v -54 -7 151
v -54 -2 153
v -54 -4 155
v -54 -2 155
v -54 5 162
v -54 4 158
v -54 6 158
v -53 1 177
v -54 7 190
v -54 -5 190
v -53 -9 180
v -54 -8 177
v -54 -1 174
v -54 3 174
v -53 12 180
v -54 14 186
v -54 17 174
v -54 19 178
v -54 18 166
v -53 14 172
v -54 14 167
v -54 10 165
v -54 13 163
v -54 13 161
v -54 10 160
v -54 13 154
v -54 10 154
v -54 9 151
v -54 7 153
v -54 4 153
v -54 1 152
v -54 0 153
v -54 0 155
v -54 2 155
v -54 2 153
v -53 11 177
v -54 4 166
v -54 -12 167
v -54 -16 166
v -54 -15 174
v -54 -13 172
v -54 -12 186
v -54 -17 178
v -54 -10 169
v -54 -8 174
v -54 -2 171
v -54 1 170
v -54 4 171
v -54 10 174
v -54 12 169
v -54 9 167
v -54 4 168
v -53 1 166
v -53 3 165
v -53 -1 165
v -54 -2 168
v -54 -7 167
v -54 6 155
v -54 4 155

f 1 2 3
f 1 3 4
f 1 4 5
f 1 5 6
f 1 6 7
f 1 7 8
f 1 8 2
f 9 10 11
f 9 11 12
f 9 12 13
f 9 13 14
f 9 14 15
f 9 15 16
f 9 16 10
f 17 18 7
f 17 7 6
f 17 6 19
f 17 19 20
f 17 20 18
f 18 20 21
f 18 21 22
f 18 22 23
f 18 23 7
f 7 23 8
f 24 25 21
f 24 21 20
f 24 20 14
f 24 14 13
f 24 13 26
f 24 26 25
f 25 26 12
f 25 12 11
f 25 11 27
f 25 27 21
f 21 27 22
f 4 28 5
f 5 28 6
f 6 28 29
f 6 29 19
f 19 29 30
f 19 30 31
f 19 31 32
f 19 32 20
f 20 32 14
f 14 32 15
f 15 32 31
f 15 31 33
f 15 33 16
f 12 26 13
f 29 34 30
f 30 34 35
f 30 35 36
f 30 36 31
f 31 36 33
f 28 4 34
f 28 34 29
f 34 4 3
f 34 3 35
f 37 38 39
f 37 39 40
f 41 42 39
f 41 39 43
f 43 39 44
f 43 44 45
f 43 45 46
f 43 46 47
f 47 46 48
f 47 48 49
f 47 49 50
f 50 49 51
f 51 49 52
f 51 52 53
f 51 53 54
f 54 53 55
f 56 38 57
f 56 57 58
f 59 60 61
f 59 61 62
f 59 62 63
f 59 63 64
f 59 64 65
f 59 65 66
f 59 66 60
f 60 66 67
f 67 66 68
f 67 68 69
f 69 68 70
f 70 68 71
f 70 71 72
f 70 72 73
f 70 73 74
f 70 74 75
f 75 74 76
f 75 76 77
f 77 76 78
f 77 78 79
f 79 78 80
f 79 80 81
f 79 81 82
f 79 82 52
f 52 82 53
f 53 82 83
f 83 82 84
f 84 82 85
f 85 82 86
f 86 82 81
f 65 87 66
f 66 87 71
f 66 71 68
f 74 73 88
f 74 88 56
f 74 56 76
f 46 45 89
f 46 89 90
f 46 90 48
f 91 92 63
f 91 63 62
f 91 62 93
f 91 93 94
f 91 94 90
f 91 90 92
f 92 90 89
f 92 89 95
f 92 95 96
f 92 96 63
f 63 96 64
f 64 96 97
f 64 97 98
f 64 98 65
f 65 98 99
f 65 99 100
f 65 100 87
f 87 100 71
f 71 100 72
f 72 100 101
f 72 101 73
f 73 101 102
f 73 102 88
f 88 102 103
f 88 103 98
f 88 98 104
f 88 104 105
f 88 105 56
f 56 105 38
f 61 93 62
f 44 39 106
f 44 106 98
f 44 98 107
f 44 107 45
f 45 107 108
f 45 108 89
f 89 108 95
f 106 104 98
f 80 109 110
f 80 110 81
f 107 98 97
f 99 98 103
