# RS2 Model 13150
# Vertices: 66
# Faces: 90

v -55 -8 10
v -63 -17 8
v -50 -21 8
v -43 -12 8
v -47 -1 8
v -64 -1 8
v -62 -1 0
v -61 -17 0
v -49 -21 0
v -42 -12 0
v -46 -1 0
v -52 -28 10
v -60 -21 8
v -64 -31 8
v -57 -40 8
v -44 -38 8
v -44 -22 8
v -43 -22 0
v -58 -21 0
v -62 -31 0
v -56 -40 0
v -43 -38 0
v -53 -53 10
v -64 -53 8
v -59 -64 8
v -47 -64 8
v -42 -53 8
v -53 -42 8
v -52 -41 0
v -62 -51 0
v -57 -62 0
v -46 -62 0
v -41 -51 0
v -52 9 10
v -44 18 8
v -57 21 8
v -64 13 8
v -60 1 8
v -44 1 8
v -43 1 0
v -43 18 0
v -56 21 0
v -62 13 0
v -58 1 0
v -43 33 8
v -50 41 8
v -55 30 10
v -47 21 8
v -46 21 0
v -42 33 0
v -49 41 0
v -63 39 8
v -64 23 8
v -62 23 0
v -61 39 0
v -54 54 10
v -64 54 8
v -54 42 8
v -43 54 8
v -48 64 8
v -60 64 8
v -58 63 0
v -62 52 0
v -53 41 0
v -42 53 0
v -47 63 0

f 1 2 3
f 1 3 4
f 1 4 5
f 1 5 6
f 1 6 2
f 2 6 7
f 2 7 8
f 2 8 3
f 3 8 9
f 3 9 4
f 4 9 10
f 4 10 5
f 5 10 11
f 5 11 6
f 6 11 7
f 12 13 14
f 12 14 15
f 12 15 16
f 12 16 17
f 12 17 13
f 13 17 18
f 13 18 19
f 13 19 14
f 14 19 20
f 14 20 15
f 15 20 21
f 15 21 16
f 16 21 22
f 16 22 17
f 17 22 18
f 23 24 25
f 23 25 26
f 23 26 27
f 23 27 28
f 23 28 24
f 24 28 29
f 24 29 30
f 24 30 25
f 25 30 31
f 25 31 26
f 26 31 32
f 26 32 27
f 27 32 33
f 27 33 28
f 28 33 29
f 34 35 36
f 34 36 37
f 34 37 38
f 34 38 39
f 34 39 35
f 35 39 40
f 35 40 41
f 35 41 36
f 36 41 42
f 36 42 37
f 37 42 43
f 37 43 38
f 38 43 44
f 38 44 39
f 39 44 40
f 45 46 47
f 45 47 48
f 45 48 49
f 45 49 50
f 45 50 46
f 46 50 51
f 46 51 52
f 46 52 47
f 47 52 53
f 47 53 48
f 48 53 54
f 48 54 49
f 51 55 52
f 52 55 53
f 53 55 54
f 56 57 58
f 56 58 59
f 56 59 60
f 56 60 61
f 56 61 57
f 57 61 62
f 57 62 63
f 57 63 58
f 58 63 64
f 58 64 59
f 59 64 65
f 59 65 60
f 60 65 66
f 60 66 61
f 61 66 62
