# RS2 Model 13166
# Vertices: 79
# Faces: 119

v 24 -24 45
v 22 -22 32
v 64 -20 32
v 64 -24 48
v 24 -23 67
v 23 -64 64
v 24 -64 48
v 20 -64 32
v 64 -23 64
v 24 -24 83
v 24 -64 80
v 64 -24 80
v 23 -22 94
v 21 -64 96
v 64 -21 96
v 16 0 109
v 0 -16 109
v 0 -64 104
v 16 28 32
v 16 32 45
v 64 24 48
v 64 20 32
v 16 31 67
v 64 23 64
v 16 32 83
v 64 24 80
v 16 29 96
v 64 21 96
v 64 0 104
v -14 13 96
v -29 -16 96
v -21 -64 96
v -32 -16 45
v -28 -16 32
v -20 -64 32
v -24 -64 48
v -31 -16 67
v -15 15 67
v -16 16 45
v -13 12 32
v -23 -64 64
v -32 -16 83
v -16 16 83
v -24 -64 80
v 16 7 0
v -3 2 0
v 0 -2 24
v 7 2 24
v 14 2 12
v 16 4 7
v 19 -10 0
v 17 -1 7
v 10 -5 24
v 4 -14 26
v 9 -23 0
v -7 -19 0
v -1 -15 18
v -5 -14 11
v -4 -8 12
v -2 -8 17
v -3 -8 44
v -1 -1 45
v 3 1 46
v 15 -2 12
v 21 2 21
v 21 6 21
v 24 7 19
v 24 3 19
v 4 -14 47
v -3 -15 44
v -13 -17 36
v -12 -23 36
v -17 -23 33
v -18 -18 34
v 6 -6 46
v 26 15 44
v 24 14 46
v 23 18 46
v 25 19 44

f 1 2 3
f 1 3 4
f 1 4 5
f 1 5 6
f 1 6 7
f 1 7 2
f 2 7 8
f 5 4 9
f 5 9 10
f 5 10 11
f 5 11 6
f 10 9 12
f 10 12 13
f 10 13 14
f 10 14 11
f 13 12 15
f 13 15 16
f 13 16 17
f 13 17 18
f 13 18 14
f 19 20 21
f 19 21 22
f 20 23 24
f 20 24 21
f 23 25 26
f 23 26 24
f 25 27 28
f 25 28 26
f 16 15 29
f 16 29 27
f 16 27 30
f 16 30 17
f 17 30 31
f 17 31 32
f 17 32 18
f 27 29 28
f 33 34 35
f 33 35 36
f 33 36 37
f 33 37 38
f 33 38 39
f 33 39 34
f 34 39 40
f 40 39 20
f 40 20 19
f 37 36 41
f 37 41 42
f 37 42 43
f 37 43 38
f 38 43 25
f 38 25 23
f 38 23 39
f 39 23 20
f 42 41 44
f 42 44 31
f 42 31 30
f 42 30 43
f 43 30 27
f 43 27 25
f 31 44 32
f 45 46 47
f 45 47 48
f 45 48 49
f 45 49 50
f 45 50 51
f 51 50 52
f 51 52 53
f 51 53 54
f 51 54 55
f 55 54 56
f 56 54 57
f 56 57 58
f 56 58 46
f 46 58 59
f 46 59 47
f 47 59 60
f 47 60 61
f 47 61 62
f 47 62 48
f 48 62 63
f 48 63 53
f 48 53 64
f 48 64 49
f 49 64 65
f 49 65 66
f 49 66 50
f 50 66 67
f 50 67 52
f 52 67 68
f 52 68 64
f 52 64 53
f 57 60 47
f 57 47 54
f 57 54 69
f 57 69 70
f 57 70 60
f 57 60 71
f 57 71 72
f 57 72 58
f 58 72 73
f 58 73 59
f 59 73 74
f 59 74 60
f 60 74 71
f 71 74 73
f 71 73 72
f 53 63 75
f 53 75 54
f 54 75 69
f 70 61 60
f 64 68 65
f 65 68 76
f 65 76 77
f 65 77 66
f 66 77 78
f 66 78 67
f 67 78 79
f 67 79 68
f 68 79 76
