# RS2 Model 13170
# Vertices: 579
# Faces: 395

v -13 -16 157
v 0 -10 172
v 0 0 180
v -10 -1 167
v -15 -21 91
v -6 -21 113
v -9 -12 120
v -18 -11 113
v -13 -19 109
v -4 -20 131
v -6 -10 139
v -15 -10 131
v -13 -16 124
v -3 -16 145
v -6 -7 152
v -15 -7 145
v -10 -16 139
v 0 -16 160
v -2 -8 167
v -11 -7 160
v -9 -12 170
v 2 -10 175
v -7 0 175
v 15 -14 157
v 9 0 172
v 0 -11 172
v 19 -16 91
v 20 -7 113
v 10 -10 120
v 10 -19 113
v 18 -13 109
v 18 -5 131
v 8 -6 139
v 9 -16 131
v 15 -14 124
v 14 -4 145
v 6 -7 152
v 5 -16 145
v 14 -10 139
v 15 -1 160
v 6 -3 167
v 6 -12 160
v 11 -10 170
v 9 2 175
v 0 -7 175
v -16 11 157
v -10 -2 172
v 0 -1 180
v -1 8 172
v -21 13 91
v -21 4 113
v -11 6 120
v -11 15 113
v -19 10 109
v -19 1 131
v -10 3 139
v -10 13 131
v -16 11 124
v -16 1 145
v -7 3 152
v -7 12 145
v -16 7 139
v -16 -1 160
v -7 0 167
v -7 10 160
v -12 7 170
v -10 -5 175
v 0 -2 180
v 0 4 175
v 13 15 157
v 0 10 172
v 10 0 172
v 16 20 91
v 7 20 113
v 9 11 120
v 18 10 113
v 13 18 109
v 4 19 131
v 6 9 139
v 16 10 131
v 13 15 124
v 4 15 145
v 6 6 152
v 15 6 145
v 10 15 139
v 0 15 160
v 3 7 167
v 12 6 160
v 10 11 170
v -2 10 175
v 7 0 175
v -7 -25 91
v 1 -21 113
v -4 -15 120
v -12 -18 113
v -6 -23 109
v 2 -21 131
v -2 -11 139
v -10 -15 131
v 23 -8 91
v 21 0 113
v 13 -5 120
v 16 -13 113
v 21 -6 109
v 18 0 131
v 9 -3 139
v 13 -11 131
v -25 4 91
v -21 -4 113
v -13 0 120
v -17 9 113
v -22 2 109
v -19 -6 131
v -10 0 139
v -14 8 131
v 7 24 91
v -1 21 113
v 3 13 120
v 11 16 113
v 5 21 109
v -3 19 131
v 1 10 139
v 10 14 131
v -21 0 162
v -7 -7 176
v 0 0 184
v -7 7 176
v -25 0 96
v -20 -8 118
v -14 0 125
v -20 6 118
v -22 -1 114
v -17 -9 136
v -10 -1 142
v -17 5 136
v -21 0 129
v -14 -7 150
v -9 0 157
v -14 7 150
v -18 -2 142
v -12 -10 164
v -7 -2 172
v -12 4 164
v -15 0 174
v -5 -9 180
v -4 4 180
v 0 -21 162
v 6 -7 176
v -8 -7 176
v 0 -25 96
v 7 -20 118
v 0 -14 125
v -7 -20 118
v 0 -22 114
v 8 -17 136
v 0 -10 142
v -6 -17 136
v 0 -21 129
v 6 -14 150
v 0 -9 157
v -8 -14 150
v 1 -18 142
v 9 -12 164
v 1 -7 172
v -5 -12 164
v 0 -15 174
v 8 -5 180
v -5 -4 180
v 0 20 162
v -8 6 176
v 6 6 176
v -1 24 96
v -9 19 118
v -1 13 125
v 5 19 118
v -2 21 114
v -10 16 136
v -2 10 142
v 4 16 136
v 0 20 129
v -8 13 150
v 0 8 157
v 6 13 150
v -3 17 142
v -10 11 164
v -3 6 172
v 3 11 164
v -1 14 174
v -10 4 180
v -1 0 184
v 3 3 180
v 21 0 162
v 8 6 176
v 8 -8 176
v 26 0 96
v 21 7 118
v 15 0 125
v 21 -7 118
v 23 0 114
v 18 8 136
v 11 0 142
v 18 -6 136
v 21 0 129
v 15 6 150
v 10 0 157
v 15 -8 150
v 19 1 142
v 13 9 164
v 8 1 172
v 13 -5 164
v 16 0 174
v 6 8 180
v 5 -5 180
v -23 -10 96
v -16 -15 118
v -13 -6 125
v -21 -1 118
v -21 -10 114
v -12 -15 136
v -10 -6 142
v -19 -1 136
v 9 -23 96
v 13 -16 118
v 4 -13 125
v 0 -21 118
v 9 -21 114
v 13 -13 136
v 4 -10 142
v 0 -19 136
v -11 21 96
v -16 13 118
v -7 11 125
v -2 19 118
v -10 19 114
v -16 10 136
v -7 8 142
v -2 16 136
v 23 9 96
v 16 14 118
v 13 5 125
v 21 0 118
v 21 9 114
v 12 13 136
v 10 4 142
v 19 0 136
v 0 -11 170
v -13 -13 94
v 0 -20 94
v 8 -8 170
v 11 0 170
v 0 0 177
v -8 -8 170
v -20 0 94
v -20 0 45
v -15 -15 45
v 0 -20 45
v 13 -13 94
v 20 0 94
v 8 8 170
v 0 11 170
v -11 0 170
v -13 13 94
v -15 15 45
v 0 0 38
v 0 20 45
v 20 0 45
v 0 20 94
v 15 15 45
v 13 13 94
v 15 -15 45
v -8 8 170
v 12 0 0
v 8 9 0
v 3 3 16
v 5 0 16
v 10 -7 0
v 3 -3 16
v 0 -11 0
v 0 -5 16
v -10 -8 0
v -3 -3 16
v -12 -1 0
v -5 0 16
v -4 4 0
v -3 3 16
v 1 11 0
v 0 5 16
v 0 3 23
v 2 2 23
v 3 0 23
v 2 -2 23
v 0 -3 23
v -2 -2 23
v -3 0 23
v -2 2 23
v -6 11 35
v -4 12 35
v 0 3 29
v 2 2 27
v 3 0 28
v 11 -4 47
v 13 -5 45
v 12 -7 44
v 2 -2 28
v 0 -3 28
v -4 -13 47
v -4 -14 47
v -5 -13 47
v -2 -2 28
v -3 0 27
v -2 2 29
v -5 9 36
v -6 11 53
v -6 13 53
v -4 14 53
v -3 9 36
v -1 1 60
v 0 2 60
v 1 1 60
v 2 0 60
v 10 -6 46
v -1 -1 60
v -2 0 60
v 0 -2 60
v 1 -1 60
v -4 11 53
v -15 -18 109
v 1 -12 125
v 0 0 134
v -12 -2 120
v -17 -23 36
v -7 -23 60
v -10 -14 68
v -20 -13 60
v -15 -21 56
v -5 -22 80
v -7 -11 88
v -17 -11 80
v -15 -18 72
v -4 -18 96
v -7 -8 104
v -17 -8 96
v -11 -18 88
v -1 -18 112
v -3 -9 120
v -13 -8 112
v -10 -14 123
v 3 -11 129
v 0 -1 134
v -8 -1 129
v 17 -16 109
v 10 0 125
v -1 -1 134
v 0 -13 125
v 21 -18 36
v 22 -8 60
v 12 -11 68
v 12 -21 60
v 20 -15 56
v 20 -6 80
v 9 -7 88
v 10 -18 80
v 17 -16 72
v 16 -5 96
v 7 -8 104
v 6 -18 96
v 16 -12 88
v 17 -2 112
v 7 -4 120
v 7 -14 112
v 13 -11 123
v 10 3 129
v 0 -8 129
v -18 13 109
v -12 -3 125
v 0 -2 134
v -2 9 125
v -23 15 36
v -23 5 60
v -13 7 68
v -13 17 60
v -21 12 56
v -21 2 80
v -11 4 88
v -11 15 80
v -18 13 72
v -18 2 96
v -8 4 104
v -8 14 96
v -18 8 88
v -18 -2 112
v -8 1 120
v -8 11 112
v -14 8 123
v -11 -6 129
v -1 -3 134
v -1 5 129
v 15 17 109
v 0 11 125
v 1 0 134
v 12 1 125
v 18 22 36
v 8 22 60
v 10 13 68
v 20 12 60
v 15 20 56
v 5 21 80
v 7 10 88
v 18 11 80
v 15 17 72
v 5 17 96
v 7 7 104
v 17 7 96
v 11 17 88
v 1 17 112
v 4 8 120
v 14 7 112
v 11 13 123
v -3 11 129
v 8 0 129
v -8 -28 36
v 2 -24 60
v -5 -17 68
v -14 -20 60
v -7 -26 56
v 3 -23 80
v -3 -13 88
v -12 -17 80
v 26 -9 36
v 23 0 60
v 15 -6 68
v 18 -15 60
v 24 -7 56
v 20 1 80
v 10 -4 88
v 15 -13 80
v -28 5 36
v -24 -5 60
v -15 1 68
v -19 10 60
v -25 3 56
v -21 -7 80
v -12 -1 88
v -16 9 80
v 8 27 36
v -2 23 60
v 4 15 68
v 13 18 60
v 6 24 56
v -4 21 80
v 2 11 88
v 12 16 80
v -23 0 114
v -8 -8 130
v 0 0 139
v -8 8 130
v -28 -1 41
v -22 -9 65
v -16 -1 73
v -22 7 65
v -25 -2 61
v -19 -10 85
v -12 -2 93
v -19 6 85
v -23 0 77
v -16 -8 101
v -10 0 109
v -16 8 101
v -20 -3 93
v -14 -11 117
v -8 -3 125
v -14 5 117
v -17 -1 128
v -6 -10 134
v 0 -1 139
v -5 5 134
v -1 -23 114
v 7 -8 130
v -1 0 139
v -9 -8 130
v 0 -28 41
v 8 -22 65
v 0 -16 73
v -8 -22 65
v 1 -25 61
v 9 -19 85
v 1 -12 93
v -7 -19 85
v -1 -23 77
v 7 -16 101
v -1 -10 109
v -9 -16 101
v 2 -20 93
v 10 -14 117
v 2 -8 125
v -6 -14 117
v 0 -17 128
v 9 -6 134
v -6 -5 134
v -1 22 114
v -9 7 130
v -1 -1 139
v 7 7 130
v -2 27 41
v -10 21 65
v -2 15 73
v 6 21 65
v -3 24 61
v -11 18 85
v -3 11 93
v 5 18 85
v -1 22 77
v -9 15 101
v -1 9 109
v 7 15 101
v -4 19 93
v -12 13 117
v -4 7 125
v 4 13 117
v -2 16 128
v -11 5 134
v -2 -1 139
v 4 4 134
v 24 -1 114
v 9 7 130
v 1 -1 139
v 9 -9 130
v 29 0 41
v 23 8 65
v 17 0 73
v 23 -8 65
v 26 1 61
v 20 9 85
v 13 1 93
v 20 -7 85
v 24 -1 77
v 17 7 101
v 11 -1 109
v 17 -9 101
v 21 2 93
v 15 10 117
v 9 2 125
v 15 -6 117
v 18 0 128
v 7 9 134
v 1 0 139
v 6 -6 134
v -26 -12 41
v -18 -17 65
v -15 -7 73
v -24 -2 65
v -23 -12 61
v -14 -17 85
v -11 -7 93
v -21 -2 85
v 10 -26 41
v 15 -18 65
v 5 -15 73
v 0 -24 65
v 10 -23 61
v 15 -15 85
v 5 -11 93
v 0 -21 85
v -13 24 41
v -18 15 65
v -8 13 73
v -3 21 65
v -12 21 61
v -18 12 85
v -8 9 93
v -3 18 85
v 26 10 41
v 18 16 65
v 15 6 73
v 24 1 65
v 23 10 61
v 14 15 85
v 11 5 93
v 21 1 85

f 1 2 3
f 1 3 4
f 5 6 7
f 5 7 8
f 9 10 11
f 9 11 12
f 13 14 15
f 13 15 16
f 17 18 19
f 17 19 20
f 21 22 3
f 21 3 23
f 24 25 3
f 24 3 26
f 27 28 29
f 27 29 30
f 31 32 33
f 31 33 34
f 35 36 37
f 35 37 38
f 39 40 41
f 39 41 42
f 43 44 3
f 43 3 45
f 46 47 48
f 46 48 49
f 50 51 52
f 50 52 53
f 54 55 56
f 54 56 57
f 58 59 60
f 58 60 61
f 62 63 64
f 62 64 65
f 66 67 68
f 66 68 69
f 70 71 3
f 70 3 72
f 73 74 75
f 73 75 76
f 77 78 79
f 77 79 80
f 81 82 83
f 81 83 84
f 85 86 87
f 85 87 88
f 89 90 3
f 89 3 91
f 92 93 94
f 92 94 95
f 96 97 98
f 96 98 99
f 100 101 102
f 100 102 103
f 104 105 106
f 104 106 107
f 108 109 110
f 108 110 111
f 112 113 114
f 112 114 115
f 116 117 118
f 116 118 119
f 120 121 122
f 120 122 123
f 124 125 126
f 124 126 127
f 128 129 130
f 128 130 131
f 132 133 134
f 132 134 135
f 136 137 138
f 136 138 139
f 140 141 142
f 140 142 143
f 144 145 126
f 144 126 146
f 147 148 126
f 147 126 149
f 150 151 152
f 150 152 153
f 154 155 156
f 154 156 157
f 158 159 160
f 158 160 161
f 162 163 164
f 162 164 165
f 166 167 126
f 166 126 168
f 169 170 126
f 169 126 171
f 172 173 174
f 172 174 175
f 176 177 178
f 176 178 179
f 180 181 182
f 180 182 183
f 184 185 186
f 184 186 187
f 188 189 190
f 188 190 191
f 192 193 126
f 192 126 194
f 195 196 197
f 195 197 198
f 199 200 201
f 199 201 202
f 203 204 205
f 203 205 206
f 207 208 209
f 207 209 210
f 211 212 126
f 211 126 213
f 214 215 216
f 214 216 217
f 218 219 220
f 218 220 221
f 222 223 224
f 222 224 225
f 226 227 228
f 226 228 229
f 230 231 232
f 230 232 233
f 234 235 236
f 234 236 237
f 238 239 240
f 238 240 241
f 242 243 244
f 242 244 245
f 246 247 248
f 246 248 249
f 246 249 250
f 246 250 251
f 246 251 252
f 246 252 247
f 247 252 253
f 247 253 254
f 247 254 255
f 247 255 248
f 248 255 256
f 248 256 257
f 248 257 249
f 249 257 250
f 250 257 258
f 250 258 259
f 250 259 251
f 251 259 260
f 251 260 261
f 251 261 252
f 252 261 253
f 253 261 262
f 253 262 263
f 253 263 254
f 254 263 264
f 254 264 256
f 254 256 255
f 265 266 264
f 265 264 263
f 265 263 262
f 265 262 267
f 265 267 268
f 265 268 266
f 266 268 269
f 266 269 258
f 266 258 270
f 266 270 264
f 264 270 256
f 256 270 257
f 257 270 258
f 260 269 267
f 260 267 271
f 260 271 261
f 261 271 262
f 262 271 267
f 259 269 260
f 269 259 258
f 268 267 269
f 272 273 274
f 272 274 275
f 272 275 276
f 276 275 277
f 276 277 278
f 278 277 279
f 278 279 280
f 280 279 281
f 280 281 282
f 282 281 283
f 282 283 284
f 284 283 285
f 284 285 286
f 286 285 287
f 286 287 273
f 273 287 274
f 274 287 288
f 274 288 289
f 274 289 275
f 275 289 290
f 275 290 277
f 277 290 291
f 277 291 279
f 279 291 292
f 279 292 281
f 281 292 293
f 281 293 283
f 283 293 294
f 283 294 285
f 285 294 295
f 285 295 287
f 287 295 288
f 288 295 296
f 288 296 297
f 288 297 298
f 288 298 289
f 289 298 299
f 289 299 290
f 290 299 300
f 290 300 301
f 290 301 302
f 290 302 291
f 291 302 303
f 291 303 304
f 291 304 292
f 292 304 305
f 292 305 306
f 292 306 307
f 292 307 293
f 293 307 308
f 293 308 309
f 293 309 294
f 294 309 310
f 294 310 295
f 295 310 311
f 295 311 312
f 295 312 296
f 296 312 313
f 296 313 314
f 296 314 297
f 297 314 315
f 297 315 316
f 297 316 298
f 298 316 311
f 298 311 317
f 298 317 318
f 298 318 299
f 299 318 319
f 299 319 300
f 300 319 320
f 300 320 304
f 300 304 321
f 300 321 301
f 310 309 322
f 310 322 323
f 310 323 311
f 311 323 317
f 324 322 309
f 324 309 305
f 324 305 325
f 325 305 304
f 325 304 320
f 303 321 304
f 306 305 309
f 306 309 308
f 316 312 311
f 312 316 326
f 312 326 313
f 313 326 315
f 313 315 314
f 315 326 316
f 327 328 329
f 327 329 330
f 331 332 333
f 331 333 334
f 335 336 337
f 335 337 338
f 339 340 341
f 339 341 342
f 343 344 345
f 343 345 346
f 347 348 349
f 347 349 350
f 351 352 353
f 351 353 354
f 355 356 357
f 355 357 358
f 359 360 361
f 359 361 362
f 363 364 365
f 363 365 366
f 367 368 369
f 367 369 370
f 371 372 329
f 371 329 373
f 374 375 376
f 374 376 377
f 378 379 380
f 378 380 381
f 382 383 384
f 382 384 385
f 386 387 388
f 386 388 389
f 390 391 392
f 390 392 393
f 394 395 396
f 394 396 397
f 398 399 400
f 398 400 401
f 402 403 404
f 402 404 405
f 406 407 408
f 406 408 409
f 410 411 412
f 410 412 413
f 414 415 416
f 414 416 417
f 418 419 329
f 418 329 420
f 421 422 423
f 421 423 424
f 425 426 427
f 425 427 428
f 429 430 431
f 429 431 432
f 433 434 435
f 433 435 436
f 437 438 439
f 437 439 440
f 441 442 443
f 441 443 444
f 445 446 447
f 445 447 448
f 449 450 451
f 449 451 452
f 453 454 455
f 453 455 456
f 457 458 459
f 457 459 460
f 461 462 463
f 461 463 464
f 465 466 467
f 465 467 468
f 469 470 471
f 469 471 472
f 473 474 475
f 473 475 476
f 477 478 479
f 477 479 480
f 481 482 483
f 481 483 484
f 485 486 487
f 485 487 488
f 489 490 491
f 489 491 492
f 493 494 495
f 493 495 496
f 497 498 455
f 497 455 499
f 500 501 502
f 500 502 503
f 504 505 506
f 504 506 507
f 508 509 510
f 508 510 511
f 512 513 514
f 512 514 515
f 516 517 518
f 516 518 519
f 520 521 522
f 520 522 523
f 524 525 526
f 524 526 527
f 528 529 530
f 528 530 531
f 532 533 534
f 532 534 535
f 536 537 538
f 536 538 539
f 540 541 542
f 540 542 543
f 544 545 546
f 544 546 547
f 548 549 550
f 548 550 551
f 552 553 554
f 552 554 555
f 556 557 558
f 556 558 559
f 560 561 562
f 560 562 563
f 564 565 566
f 564 566 567
f 568 569 570
f 568 570 571
f 572 573 574
f 572 574 575
f 576 577 578
f 576 578 579
