# RS2 Model 13219
# Vertices: 158
# Faces: 167

v 8 -75 8
v -41 -105 8
v 57 -105 8
v 16 -72 8
v 22 -64 8
v 24 -57 8
v 19 -52 8
v 25 -48 8
v 19 -45 8
v 14 -40 8
v 22 -39 8
v 15 -36 8
v 27 -32 8
v 18 -32 8
v 32 -24 4
v 21 -24 4
v 41 -16 0
v 26 -16 0
v 0 -72 8
v -6 -64 8
v -8 -57 8
v -9 -48 8
v -41 -32 8
v -13 -41 8
v -20 -32 8
v -27 -24 4
v -41 -16 0
v -25 -16 0
v -16 -24 4
v -10 -16 0
v -5 -24 4
v -11 -32 8
v -2 -32 8
v -6 -39 8
v 1 -36 8
v -3 -45 8
v 2 -40 8
v -3 -52 8
v 57 -32 8
v 29 -41 8
v 36 -32 8
v 43 -24 4
v 57 -16 0
v 15 -94 103
v 12 -98 103
v 12 -98 20
v 15 -94 20
v 12 -90 103
v 12 -90 20
v 5 -90 103
v 5 -90 20
v 2 -94 103
v 2 -94 20
v 5 -98 103
v 5 -98 20
v 18 -94 20
v 12 -101 20
v 12 -101 8
v 18 -94 8
v 12 -87 20
v -1 -94 20
v 5 -101 20
v 5 -101 8
v 12 -87 8
v 5 -87 20
v 5 -87 8
v -1 -94 8
v 64 128 16
v 57 119 16
v 57 -105 16
v 64 -113 16
v 64 -113 0
v 64 128 0
v -48 128 16
v -41 119 16
v -41 119 0
v 57 119 0
v 57 -105 0
v -41 -105 16
v -48 -113 16
v -48 -113 0
v -48 128 0
v -41 -105 0
v -41 115 8
v -41 106 8
v 57 106 8
v 57 115 8
v 57 115 0
v -41 115 0
v -41 106 0
v 57 106 0
v -41 101 8
v -41 92 8
v 57 92 8
v 57 101 8
v 57 101 0
v -41 101 0
v -41 92 0
v 57 92 0
v -41 87 8
v -41 78 8
v 57 78 8
v 57 87 8
v 57 87 0
v -41 87 0
v -41 78 0
v 57 78 0
v -41 73 8
v -41 64 8
v 57 64 8
v 57 73 8
v 57 73 0
v -41 73 0
v -41 64 0
v 57 64 0
v -41 59 8
v -41 50 8
v 57 50 8
v 57 59 8
v 57 59 0
v -41 59 0
v -41 50 0
v 57 50 0
v -41 46 8
v -41 37 8
v 57 37 8
v 57 46 8
v 57 46 0
v -41 46 0
v -41 37 0
v 57 37 0
v -41 32 8
v -41 23 8
v 57 23 8
v 57 32 8
v 57 32 0
v -41 32 0
v -41 23 0
v 57 23 0
v -41 19 8
v -41 10 8
v 57 10 8
v 57 19 8
v 57 19 0
v -41 19 0
v -41 10 0
v 57 10 0
v -41 5 8
v -41 -4 8
v 57 -4 8
v 57 5 8
v 57 5 0
v -41 5 0
v -41 -4 0
v 57 -4 0
v 67 24 -1
v -51 24 -1
v 67 -98 13

f 1 2 3
f 1 3 4
f 4 3 5
f 5 3 6
f 5 6 7
f 7 6 8
f 7 8 9
f 7 9 10
f 10 9 11
f 10 11 12
f 12 11 13
f 12 13 14
f 14 13 15
f 14 15 16
f 16 15 17
f 16 17 18
f 1 19 2
f 2 19 20
f 2 20 21
f 2 21 22
f 2 22 23
f 23 22 24
f 23 24 25
f 23 25 26
f 23 26 27
f 27 26 28
f 28 26 29
f 28 29 30
f 30 29 31
f 31 29 32
f 31 32 33
f 33 32 34
f 33 34 35
f 35 34 36
f 35 36 37
f 37 36 38
f 38 36 21
f 38 21 20
f 39 8 6
f 39 6 3
f 39 40 8
f 8 40 9
f 9 40 11
f 11 40 41
f 11 41 13
f 13 41 42
f 13 42 15
f 15 42 43
f 15 43 17
f 39 41 40
f 41 39 42
f 42 39 43
f 21 36 22
f 22 36 34
f 22 34 24
f 24 34 32
f 24 32 25
f 25 32 29
f 25 29 26
f 44 45 46
f 44 46 47
f 44 47 48
f 48 47 49
f 48 49 50
f 50 49 51
f 50 51 52
f 52 51 53
f 52 53 54
f 54 53 55
f 54 55 45
f 45 55 46
f 56 57 58
f 56 58 59
f 56 59 60
f 56 60 61
f 56 61 57
f 57 61 62
f 57 62 63
f 57 63 58
f 60 59 64
f 60 64 65
f 60 65 61
f 61 65 66
f 61 66 67
f 61 67 62
f 62 67 63
f 65 64 66
f 68 69 70
f 68 70 71
f 68 71 72
f 68 72 73
f 68 73 74
f 68 74 69
f 69 74 75
f 69 75 76
f 69 76 77
f 69 77 70
f 70 77 78
f 70 78 79
f 70 79 71
f 71 79 80
f 71 80 81
f 71 81 72
f 80 79 75
f 80 75 74
f 80 74 82
f 80 82 81
f 74 73 82
f 75 79 83
f 75 83 76
f 76 83 77
f 77 83 78
f 78 83 79
f 84 85 86
f 84 86 87
f 84 87 88
f 84 88 89
f 86 85 90
f 86 90 91
f 92 93 94
f 92 94 95
f 92 95 96
f 92 96 97
f 94 93 98
f 94 98 99
f 100 101 102
f 100 102 103
f 100 103 104
f 100 104 105
f 102 101 106
f 102 106 107
f 108 109 110
f 108 110 111
f 108 111 112
f 108 112 113
f 110 109 114
f 110 114 115
f 116 117 118
f 116 118 119
f 116 119 120
f 116 120 121
f 118 117 122
f 118 122 123
f 124 125 126
f 124 126 127
f 124 127 128
f 124 128 129
f 126 125 130
f 126 130 131
f 132 133 134
f 132 134 135
f 132 135 136
f 132 136 137
f 134 133 138
f 134 138 139
f 140 141 142
f 140 142 143
f 140 143 144
f 140 144 145
f 142 141 146
f 142 146 147
f 148 149 150
f 148 150 151
f 148 151 152
f 148 152 153
f 150 149 154
f 150 154 155
