# RS2 Model 13220
# Vertices: 209
# Faces: 330

v -48 120 103
v 8 120 103
v 64 120 96
v -48 120 96
v -48 -112 103
v -43 37 103
v -34 64 103
v -34 104 103
v -16 104 103
v 8 104 103
v 64 120 103
v 64 -112 96
v 64 -112 103
v -48 -112 96
v 8 -112 103
v 60 -80 103
v 60 37 103
v 60 37 112
v 60 -80 112
v 50 -92 103
v 31 -96 103
v -14 -96 103
v -33 -92 103
v -43 -80 103
v -43 -80 112
v -43 37 112
v -33 53 103
v -34 64 116
v -34 104 116
v -30 104 116
v -16 104 116
v -9 104 116
v 5 104 116
v 11 104 116
v 32 104 103
v 50 104 103
v 50 64 103
v 50 53 103
v 50 53 112
v 44 45 112
v 53 31 112
v 53 -75 112
v 50 -92 112
v 31 -96 112
v 16 -90 103
v 1 -90 103
v 1 -90 112
v -14 -96 112
v -33 -92 112
v -27 -85 112
v -36 -75 112
v -36 31 112
v -33 53 112
v -30 64 116
v 4 -84 103
v 13 -84 103
v 13 -84 112
v 4 -84 112
v 4 -78 112
v 0 -84 112
v -11 -89 112
v -8 -72 103
v -19 -69 103
v -25 -62 103
v -25 18 103
v -19 27 103
v -27 45 112
v -15 52 112
v -23 64 112
v -23 100 112
v -16 64 116
v -9 64 116
v -2 100 112
v -2 64 112
v 5 64 116
v 11 64 116
v 18 100 112
v 25 104 116
v 32 104 116
v 46 104 116
v 50 104 116
v 50 64 116
v 60 116 19
v 53 116 19
v 53 116 96
v 60 116 96
v 60 108 19
v 60 108 96
v 57 108 19
v 57 108 96
v 57 -100 96
v 57 -100 19
v 60 -100 19
v 60 -100 96
v 60 -108 19
v 60 -108 96
v 53 -108 19
v 53 -108 96
v 53 -104 19
v 53 -104 96
v -37 -104 19
v -37 -104 96
v -37 -108 19
v -37 -108 96
v -44 -108 19
v -44 -108 96
v -44 -100 19
v -44 -100 96
v -41 -100 19
v -41 -100 96
v -41 108 19
v -41 108 96
v -44 108 19
v -44 108 96
v -44 116 19
v -44 116 96
v -37 116 19
v -37 116 96
v -37 112 19
v -37 112 96
v 53 112 19
v 53 112 96
v 54 114 12
v 58 109 12
v 61 112 4
v 57 117 4
v 49 109 12
v 54 114 0
v 54 103 12
v 58 109 0
v 64 115 0
v 64 115 5
v 59 120 5
v 59 120 0
v -42 109 12
v -38 114 12
v -41 117 4
v -45 112 4
v -38 103 12
v -42 109 0
v -33 109 12
v -38 114 0
v -43 120 0
v -43 120 5
v -48 115 5
v -48 115 0
v -38 -106 12
v -42 -101 12
v -45 -104 4
v -41 -109 4
v -33 -101 12
v -38 -106 0
v -38 -95 12
v -42 -101 0
v -48 -107 0
v -48 -107 5
v -43 -112 5
v -43 -112 0
v 58 -101 12
v 54 -106 12
v 57 -109 4
v 61 -104 4
v 54 -95 12
v 58 -101 0
v 49 -101 12
v 54 -106 0
v 59 -112 0
v 59 -112 5
v 64 -107 5
v 64 -107 0
v -48 120 19
v 64 120 19
v 64 120 12
v -48 120 12
v -48 -112 19
v 64 -112 19
v 64 -112 12
v -48 -112 12
v 16 -90 112
v 18 -84 112
v 13 -78 112
v 14 -68 103
v 3 -68 103
v 2 -57 103
v -4 -48 103
v -11 32 103
v 28 -89 112
v 44 -85 112
v 25 -72 103
v 14 -57 103
v 36 -69 103
v 36 27 103
v 28 32 103
v 20 -48 103
v 32 52 112
v 41 18 103
v 41 -62 103
v 1 34 103
v 2 -39 103
v 14 -39 103
v 15 34 103
v 20 55 112
v -3 55 112
v 25 64 116
v 18 64 112
v 39 100 112
v 39 64 112
v 46 64 116
v 32 64 116

f 1 2 3
f 1 3 4
f 1 4 5
f 1 5 6
f 1 6 7
f 1 7 8
f 1 8 9
f 1 9 2
f 2 9 10
f 2 10 11
f 2 11 3
f 3 11 12
f 12 11 13
f 12 13 14
f 14 13 15
f 14 15 5
f 14 5 4
f 16 13 11
f 16 11 17
f 16 17 18
f 16 18 19
f 16 19 20
f 16 20 13
f 13 20 21
f 13 21 15
f 15 21 22
f 15 22 5
f 5 22 23
f 5 23 24
f 5 24 6
f 6 24 25
f 6 25 26
f 6 26 27
f 6 27 7
f 7 27 28
f 7 28 8
f 8 28 29
f 8 29 9
f 9 29 30
f 9 30 31
f 9 31 10
f 10 31 32
f 10 32 33
f 10 33 34
f 10 34 35
f 10 35 11
f 11 35 36
f 11 36 37
f 11 37 38
f 11 38 17
f 17 38 39
f 17 39 18
f 18 39 40
f 18 40 41
f 18 41 19
f 19 41 42
f 19 42 43
f 19 43 20
f 20 43 21
f 21 43 44
f 21 44 45
f 21 45 22
f 22 45 46
f 22 46 47
f 22 47 48
f 22 48 23
f 23 48 49
f 23 49 24
f 24 49 25
f 25 49 50
f 25 50 51
f 25 51 26
f 26 51 52
f 26 52 53
f 26 53 27
f 27 53 28
f 28 53 54
f 28 54 30
f 28 30 29
f 55 46 45
f 55 45 56
f 55 56 57
f 55 57 58
f 55 58 46
f 46 58 47
f 47 58 59
f 47 59 60
f 47 60 48
f 48 60 61
f 48 61 49
f 49 61 50
f 50 61 62
f 50 62 63
f 50 63 51
f 51 63 64
f 51 64 52
f 52 64 65
f 52 65 66
f 52 66 67
f 52 67 53
f 53 67 68
f 53 68 54
f 54 68 69
f 54 69 70
f 54 70 30
f 30 70 31
f 31 70 69
f 31 69 71
f 31 71 32
f 32 71 72
f 32 72 73
f 32 73 33
f 33 73 74
f 33 74 75
f 33 75 34
f 34 75 76
f 34 76 77
f 34 77 78
f 34 78 35
f 35 78 79
f 35 79 36
f 36 79 80
f 36 80 81
f 36 81 37
f 37 81 82
f 37 82 39
f 37 39 38
f 83 84 85
f 83 85 86
f 83 86 87
f 87 86 88
f 87 88 89
f 89 88 90
f 89 90 91
f 89 91 92
f 92 91 93
f 93 91 94
f 93 94 95
f 95 94 96
f 95 96 97
f 97 96 98
f 97 98 99
f 99 98 100
f 99 100 101
f 101 100 102
f 101 102 103
f 103 102 104
f 103 104 105
f 105 104 106
f 105 106 107
f 107 106 108
f 107 108 109
f 109 108 110
f 109 110 111
f 111 110 112
f 111 112 113
f 113 112 114
f 113 114 115
f 115 114 116
f 115 116 117
f 117 116 118
f 117 118 119
f 119 118 120
f 119 120 121
f 121 120 122
f 121 122 84
f 84 122 85
f 123 124 125
f 123 125 126
f 123 126 127
f 127 126 128
f 127 128 129
f 129 128 130
f 129 130 124
f 124 130 125
f 125 130 131
f 125 131 132
f 125 132 126
f 126 132 133
f 126 133 128
f 128 133 134
f 134 133 131
f 131 133 132
f 135 136 137
f 135 137 138
f 135 138 139
f 139 138 140
f 139 140 141
f 141 140 142
f 141 142 136
f 136 142 137
f 137 142 143
f 137 143 144
f 137 144 138
f 138 144 145
f 138 145 140
f 140 145 146
f 146 145 143
f 143 145 144
f 147 148 149
f 147 149 150
f 147 150 151
f 151 150 152
f 151 152 153
f 153 152 154
f 153 154 148
f 148 154 149
f 149 154 155
f 149 155 156
f 149 156 150
f 150 156 157
f 150 157 152
f 152 157 158
f 158 157 155
f 155 157 156
f 159 160 161
f 159 161 162
f 159 162 163
f 163 162 164
f 163 164 165
f 165 164 166
f 165 166 160
f 160 166 161
f 161 166 167
f 161 167 168
f 161 168 162
f 162 168 169
f 162 169 164
f 164 169 170
f 170 169 167
f 167 169 168
f 171 172 173
f 171 173 174
f 171 174 175
f 171 175 172
f 172 175 176
f 172 176 177
f 172 177 173
f 176 175 178
f 176 178 177
f 175 174 178
f 57 179 180
f 57 180 181
f 57 181 58
f 58 181 59
f 59 181 182
f 59 182 183
f 59 183 60
f 60 183 61
f 61 183 62
f 62 183 184
f 62 184 185
f 62 185 186
f 62 186 63
f 63 186 66
f 63 66 64
f 64 66 65
f 179 44 187
f 179 187 180
f 180 187 182
f 180 182 181
f 44 43 188
f 44 188 187
f 187 188 189
f 187 189 182
f 182 189 190
f 182 190 183
f 183 190 184
f 43 42 188
f 188 42 191
f 188 191 189
f 189 191 192
f 189 192 193
f 189 193 194
f 189 194 190
f 39 195 40
f 40 195 193
f 40 193 192
f 40 192 41
f 41 192 196
f 41 196 197
f 41 197 42
f 42 197 191
f 191 197 196
f 191 196 192
f 179 57 56
f 179 56 45
f 179 45 44
f 198 199 200
f 198 200 201
f 198 201 202
f 198 202 203
f 198 203 68
f 198 68 186
f 198 186 185
f 198 185 199
f 193 201 200
f 193 200 194
f 67 66 186
f 67 186 68
f 201 193 195
f 201 195 202
f 202 195 204
f 202 204 205
f 202 205 76
f 202 76 203
f 203 76 75
f 203 75 74
f 203 74 72
f 203 72 68
f 68 72 71
f 68 71 69
f 80 206 207
f 80 207 208
f 80 208 81
f 81 208 82
f 82 208 39
f 39 208 207
f 39 207 195
f 195 207 209
f 195 209 204
f 204 209 79
f 204 79 78
f 204 78 205
f 205 78 77
f 205 77 76
f 209 207 206
f 209 206 79
f 79 206 80
f 72 74 73
