# RS2 Model 13301
# Vertices: 310
# Faces: 421

v -63 55 175
v -63 33 175
v -63 33 206
v -63 55 206
v -60 32 207
v -60 55 207
v -63 -39 206
v -63 -35 206
v -63 -35 175
v -63 -39 175
v -60 -40 207
v -60 -34 207
v -60 -34 174
v -63 -45 175
v -63 -54 175
v -63 -54 206
v -63 -45 206
v -60 -44 207
v -60 -44 174
v -63 -54 170
v -63 -36 170
v -63 -36 140
v -63 -54 140
v -63 36 170
v -63 55 170
v -63 55 140
v -63 36 140
v -60 35 139
v -60 35 171
v -60 55 171
v -63 -54 135
v -63 -32 135
v -63 -32 105
v -63 -54 105
v -63 35 135
v -63 55 135
v -63 55 105
v -63 35 105
v -60 34 136
v -60 55 136
v -63 -14 72
v -63 -54 72
v -63 -54 99
v -63 -14 99
v -60 -13 100
v -60 -13 71
v -63 -8 99
v -63 44 99
v -63 44 72
v -63 -8 72
v -60 -9 71
v -60 -9 100
v -63 51 99
v -63 55 99
v -63 55 72
v -63 51 72
v -60 50 100
v -60 55 100
v -63 55 67
v -63 55 36
v -63 20 36
v -63 20 67
v -60 55 68
v -60 19 68
v -60 19 35
v -63 -39 67
v -63 13 67
v -63 13 36
v -63 -39 36
v -60 -40 35
v -60 -40 68
v -60 14 68
v -60 14 35
v -63 -54 67
v -63 -45 67
v -63 -45 36
v -63 -54 36
v -63 -14 31
v -63 -14 1
v -63 -54 1
v -63 -54 31
v -60 -13 32
v -60 -13 1
v -63 -8 31
v -63 44 31
v -63 44 1
v -63 -8 1
v -60 -9 1
v -60 -9 32
v -60 45 32
v -60 45 1
v -63 51 1
v -63 51 31
v -63 55 31
v -63 55 1
v -63 -14 239
v -63 -14 210
v -63 -54 210
v -63 -54 239
v -60 -13 240
v -60 -13 209
v -63 44 210
v -63 -8 210
v -63 -8 239
v -63 44 239
v -60 45 240
v -60 45 209
v -63 51 210
v -63 51 239
v -63 55 239
v -63 55 210
v -60 -54 32
v -60 50 32
v -60 55 32
v -60 34 104
v -60 -35 171
v -60 -35 139
v -60 -54 171
v -60 -54 100
v -60 33 173
v -60 50 240
v -60 55 240
v -60 -9 209
v -60 -9 240
v -60 -54 240
v -60 -54 68
v -60 -44 68
v -60 -54 136
v -60 -32 136
v -60 -32 105
v -60 -54 207
v -60 -40 174
v -60 50 209
v -60 50 71
v -60 50 1
v -60 45 100
v -60 45 71
v -60 -44 35
v -60 55 0
v -64 55 0
v -64 -54 0
v -60 -54 0
v -60 32 105
v -48 55 0
v -48 55 240
v -48 32 105
v -48 -54 0
v -48 -32 105
v -48 -33 173
v -48 -54 240
v -60 -33 173
v -60 -32 209
v -60 -27 164
v -60 -27 109
v -60 -2 109
v -60 2 109
v -60 27 109
v -60 27 164
v -60 27 168
v -60 32 209
v -48 64 240
v -60 64 240
v -64 64 240
v -64 55 240
v -64 64 0
v -60 64 0
v -48 64 0
v -48 -32 209
v -48 32 209
v -48 33 173
v -56 27 164
v -56 27 109
v -56 2 109
v -56 -2 109
v -56 -27 109
v -56 -27 164
v -56 -27 168
v -60 -2 204
v -60 -27 204
v -60 -27 168
v -60 -2 142
v -60 0 142
v -60 2 142
v -56 2 142
v -56 27 168
v -56 27 204
v -60 27 204
v -60 2 204
v -56 -2 204
v -56 -27 204
v -60 -20 168
v -60 -20 166
v -60 -20 164
v -60 -6 160
v -56 6 172
v -56 20 168
v -60 20 168
v -60 6 172
v -56 2 190
v -56 0 190
v -56 4 170
v -56 2 204
v -56 -2 190
v -56 -4 170
v -60 -4 170
v -60 0 190
v -60 4 170
v -56 20 166
v -60 20 166
v -60 2 190
v -56 -20 168
v -60 -6 172
v -56 -20 166
v -60 -4 162
v -56 -6 160
v -56 -20 164
v -56 -4 162
v -56 -2 142
v -56 0 142
v -56 -6 172
v -60 -2 190
v -60 4 162
v -56 4 162
v -56 6 160
v -56 20 164
v -60 6 160
v -60 20 164
v -48 -64 0
v -48 -64 240
v -60 -64 240
v -60 -64 0
v -64 -64 240
v -64 -64 0
v -64 -54 240
v -47 33 206
v -47 33 175
v -47 55 175
v -47 55 206
v -47 -35 175
v -47 -35 206
v -47 -39 206
v -47 -39 175
v -47 -54 206
v -47 -54 175
v -47 -45 175
v -47 -45 206
v -47 -36 140
v -47 -36 170
v -47 -54 170
v -47 -54 140
v -47 55 140
v -47 55 170
v -47 36 170
v -47 36 140
v -47 -32 105
v -47 -33 135
v -47 -54 135
v -47 -54 105
v -47 55 105
v -47 55 135
v -47 35 135
v -47 35 105
v -47 -54 99
v -47 -54 72
v -47 -14 72
v -47 -14 99
v -47 44 72
v -47 44 99
v -47 -8 99
v -47 -8 72
v -47 55 72
v -47 55 99
v -47 51 99
v -47 51 72
v -47 20 36
v -47 55 36
v -47 55 67
v -47 20 67
v -47 13 36
v -47 13 67
v -47 -39 67
v -47 -39 36
v -47 -45 36
v -47 -45 67
v -47 -54 67
v -47 -54 36
v -47 -54 1
v -47 -14 1
v -47 -14 31
v -47 -54 31
v -47 44 1
v -47 44 31
v -47 -8 31
v -47 -8 1
v -47 55 31
v -47 51 31
v -47 51 1
v -47 55 1
v -47 -54 210
v -47 -14 210
v -47 -14 239
v -47 -54 239
v -47 -8 239
v -47 -8 210
v -47 44 210
v -47 44 239
v -47 55 239
v -47 51 239
v -47 51 210
v -47 55 210

f 1 2 3
f 1 3 4
f 4 3 5
f 4 5 6
f 7 8 9
f 7 9 10
f 7 10 11
f 7 11 12
f 7 12 8
f 8 12 9
f 9 12 13
f 14 15 16
f 14 16 17
f 14 17 18
f 14 18 19
f 20 21 22
f 20 22 23
f 24 25 26
f 24 26 27
f 24 27 28
f 24 28 29
f 24 29 25
f 25 29 30
f 31 32 33
f 31 33 34
f 35 36 37
f 35 37 38
f 35 38 39
f 35 39 36
f 36 39 40
f 41 42 43
f 41 43 44
f 41 44 45
f 41 45 46
f 47 48 49
f 47 49 50
f 47 50 51
f 47 51 52
f 47 52 48
f 53 54 55
f 53 55 56
f 53 56 57
f 53 57 54
f 54 57 58
f 59 60 61
f 59 61 62
f 59 62 63
f 63 62 64
f 64 62 61
f 64 61 65
f 66 67 68
f 66 68 69
f 66 69 70
f 66 70 71
f 66 71 72
f 66 72 67
f 67 72 68
f 68 72 73
f 74 75 76
f 74 76 77
f 78 79 80
f 78 80 81
f 78 81 82
f 78 82 83
f 78 83 79
f 84 85 86
f 84 86 87
f 84 87 88
f 84 88 89
f 84 89 85
f 85 89 90
f 85 90 91
f 85 91 86
f 92 93 94
f 92 94 95
f 96 97 98
f 96 98 99
f 96 99 100
f 96 100 101
f 96 101 97
f 102 103 104
f 102 104 105
f 102 105 106
f 102 106 107
f 108 109 110
f 108 110 111
f 81 112 82
f 94 93 113
f 94 113 114
f 38 115 39
f 116 117 22
f 116 22 21
f 116 21 20
f 116 20 118
f 44 43 119
f 44 119 45
f 120 5 3
f 120 3 2
f 110 109 121
f 110 121 122
f 123 124 104
f 123 104 103
f 99 125 100
f 105 104 124
f 105 124 106
f 126 127 75
f 126 75 74
f 32 31 128
f 32 128 129
f 32 129 33
f 33 129 130
f 17 16 131
f 17 131 18
f 10 132 11
f 109 108 133
f 109 133 121
f 56 134 57
f 92 135 113
f 92 113 93
f 48 136 137
f 48 137 49
f 127 138 76
f 127 76 75
f 139 140 141
f 139 141 142
f 139 142 130
f 139 130 143
f 139 143 120
f 139 120 122
f 139 122 144
f 144 122 145
f 144 145 146
f 144 146 147
f 147 146 148
f 147 148 149
f 147 149 150
f 147 150 142
f 142 150 125
f 142 125 130
f 130 125 151
f 130 151 152
f 130 152 153
f 130 153 154
f 130 154 155
f 130 155 156
f 130 156 143
f 143 156 157
f 143 157 158
f 143 158 159
f 143 159 160
f 143 160 120
f 120 160 122
f 122 160 125
f 122 125 145
f 122 145 161
f 122 161 162
f 122 162 163
f 122 163 164
f 122 164 139
f 139 164 140
f 140 164 163
f 140 163 165
f 165 163 162
f 165 162 166
f 166 162 161
f 166 161 167
f 167 161 145
f 167 145 144
f 125 150 145
f 145 150 168
f 145 168 169
f 145 169 170
f 145 170 146
f 146 170 169
f 146 169 171
f 146 171 172
f 146 172 173
f 146 173 174
f 146 174 148
f 148 174 175
f 148 175 176
f 148 176 177
f 148 177 168
f 148 168 149
f 149 168 150
f 151 125 152
f 152 125 160
f 152 160 178
f 152 178 179
f 152 179 180
f 152 180 153
f 153 180 176
f 153 176 175
f 153 175 154
f 154 175 174
f 154 174 155
f 155 174 181
f 155 181 182
f 155 182 156
f 156 182 183
f 156 183 184
f 156 184 173
f 156 173 172
f 156 172 157
f 157 172 171
f 157 171 158
f 158 171 185
f 158 185 159
f 159 185 186
f 159 186 187
f 159 187 160
f 160 187 188
f 160 188 178
f 178 188 189
f 178 189 190
f 178 190 179
f 179 190 177
f 179 177 180
f 180 177 191
f 180 191 192
f 180 192 153
f 153 192 193
f 153 193 154
f 154 193 194
f 154 194 181
f 154 181 155
f 195 196 197
f 195 197 198
f 195 198 199
f 195 199 200
f 195 200 201
f 195 201 196
f 195 196 186
f 195 186 199
f 199 186 202
f 199 202 200
f 200 202 189
f 200 189 203
f 200 203 204
f 200 204 205
f 200 205 206
f 200 206 201
f 201 206 207
f 201 207 208
f 201 208 196
f 196 208 185
f 196 185 159
f 196 159 197
f 197 159 209
f 197 209 198
f 197 198 187
f 197 187 159
f 198 210 199
f 199 210 202
f 202 210 188
f 202 188 187
f 202 187 186
f 202 186 169
f 202 169 168
f 202 168 189
f 202 189 188
f 191 177 211
f 191 211 212
f 191 212 205
f 191 205 192
f 192 205 204
f 192 204 213
f 192 213 214
f 192 214 194
f 192 194 193
f 193 194 215
f 193 215 216
f 216 215 217
f 216 217 213
f 216 213 176
f 216 176 175
f 216 175 215
f 215 175 218
f 215 218 219
f 215 219 217
f 217 219 182
f 217 182 214
f 217 214 213
f 212 211 220
f 212 220 221
f 212 221 206
f 212 206 205
f 205 206 207
f 205 207 222
f 205 222 214
f 205 214 192
f 220 203 221
f 221 203 178
f 221 178 206
f 206 178 188
f 206 188 210
f 206 210 207
f 207 210 198
f 207 198 209
f 207 209 208
f 208 209 223
f 208 223 224
f 208 224 225
f 208 225 171
f 208 171 185
f 185 171 169
f 185 169 186
f 185 186 196
f 203 189 178
f 194 181 218
f 194 218 215
f 181 174 218
f 218 174 219
f 219 174 173
f 219 173 184
f 219 184 223
f 219 223 222
f 219 222 182
f 182 222 226
f 182 226 183
f 183 226 224
f 183 224 184
f 184 224 223
f 224 184 172
f 224 172 225
f 225 172 171
f 226 227 225
f 226 225 224
f 223 209 222
f 222 209 227
f 222 227 226
f 226 227 157
f 226 157 183
f 183 157 156
f 176 180 177
f 155 174 173
f 155 173 156
f 213 204 220
f 213 220 211
f 213 211 177
f 213 177 176
f 203 220 204
f 220 203 190
f 220 190 211
f 211 190 177
f 177 190 168
f 168 190 189
f 189 190 203
f 184 173 172
f 175 174 218
f 200 204 201
f 201 204 217
f 201 217 223
f 201 223 208
f 213 217 204
f 219 223 217
f 181 194 214
f 181 214 182
f 182 214 222
f 158 227 209
f 158 209 159
f 227 158 157
f 210 188 187
f 210 187 198
f 179 178 221
f 179 221 212
f 179 212 191
f 179 191 180
f 222 207 209
f 228 229 230
f 228 230 231
f 231 230 232
f 231 232 233
f 233 232 234
f 233 234 141
f 141 234 125
f 141 125 142
f 150 125 230
f 150 230 229
f 150 229 147
f 147 229 228
f 230 125 234
f 230 234 232
f 235 236 237
f 235 237 238
f 239 240 241
f 239 241 242
f 243 244 245
f 243 245 246
f 247 248 249
f 247 249 250
f 251 252 253
f 251 253 254
f 255 256 257
f 255 257 258
f 259 260 261
f 259 261 262
f 263 264 265
f 263 265 266
f 267 268 269
f 267 269 270
f 271 272 273
f 271 273 274
f 275 276 277
f 275 277 278
f 279 280 281
f 279 281 282
f 283 284 285
f 283 285 286
f 287 288 289
f 287 289 290
f 291 292 293
f 291 293 294
f 295 296 297
f 295 297 298
f 299 300 301
f 299 301 302
f 303 304 305
f 303 305 306
f 307 308 309
f 307 309 310
