# RS2 Model 13335
# Vertices: 92
# Faces: 178

v 5 -14 182
v 2 -15 180
v 5 -14 179
v 8 -11 180
v 7 -15 184
v 0 -18 183
v 0 -17 181
v 3 -16 175
v 5 -14 178
v 8 -13 178
v 9 -9 181
v 8 -14 186
v 0 -18 186
v -7 -15 184
v -5 -14 182
v -2 -15 180
v -3 -16 175
v 0 -20 175
v 0 -17 174
v 4 -15 173
v 8 1 173
v 9 -1 175
v 7 -2 170
v 0 6 173
v 9 4 176
v 11 3 176
v 9 1 178
v 10 -2 180
v 9 -7 177
v 8 -4 172
v 7 -8 169
v 0 -6 165
v 8 1 165
v 0 9 165
v -8 1 165
v -7 -2 170
v -8 1 173
v -9 4 176
v -5 6 176
v 0 9 176
v 5 6 176
v 6 7 179
v 9 5 179
v 11 5 180
v 12 4 180
v 12 1 182
v 11 1 183
v 10 -7 184
v 7 -10 174
v 5 -12 168
v 0 -13 166
v -5 -12 168
v -7 -8 169
v 0 -6 160
v 8 -13 189
v 0 -16 190
v -8 -13 189
v -8 -14 186
v -9 -9 181
v -8 -11 180
v -5 -14 179
v -5 -14 178
v -8 -13 178
v -4 -15 173
v 7 6 188
v 10 0 189
v 7 -9 192
v 0 -10 194
v -7 -9 192
v -10 -7 184
v -10 -2 180
v -9 -7 177
v -9 -1 175
v -11 3 176
v -11 5 180
v -9 5 179
v -6 7 179
v 0 9 179
v 0 9 185
v -9 1 178
v -12 4 180
v -12 1 182
v -11 1 183
v -7 6 188
v -10 0 189
v -7 -2 193
v 0 4 194
v 7 -2 193
v 0 -3 196
v -8 -4 172
v -7 -10 174
v 0 -16 169

f 1 2 3
f 1 3 4
f 1 4 5
f 1 5 6
f 1 6 2
f 2 6 7
f 2 7 8
f 2 8 9
f 2 9 3
f 3 9 10
f 3 10 4
f 4 10 11
f 4 11 5
f 5 11 12
f 5 12 13
f 5 13 6
f 6 13 14
f 6 14 15
f 6 15 16
f 6 16 7
f 7 16 17
f 7 17 18
f 7 18 8
f 8 18 19
f 8 19 20
f 8 20 10
f 8 10 9
f 21 22 23
f 21 23 24
f 21 24 25
f 21 25 26
f 21 26 22
f 22 26 27
f 22 27 28
f 22 28 29
f 22 29 30
f 22 30 23
f 23 30 31
f 23 31 32
f 23 32 33
f 23 33 24
f 24 33 34
f 24 34 35
f 24 35 36
f 24 36 37
f 24 37 38
f 24 38 39
f 24 39 40
f 24 40 41
f 24 41 25
f 25 41 42
f 25 42 43
f 25 43 44
f 25 44 26
f 26 44 45
f 26 45 27
f 27 45 46
f 27 46 28
f 28 46 47
f 28 47 48
f 28 48 11
f 28 11 29
f 29 11 10
f 29 10 49
f 29 49 30
f 30 49 31
f 31 49 50
f 31 50 32
f 32 50 51
f 32 51 52
f 32 52 53
f 32 53 36
f 32 36 35
f 32 35 54
f 32 54 33
f 12 11 48
f 12 48 55
f 12 55 13
f 13 55 56
f 13 56 57
f 13 57 58
f 13 58 14
f 14 58 59
f 14 59 60
f 14 60 15
f 15 60 61
f 15 61 16
f 16 61 62
f 16 62 17
f 17 62 63
f 17 63 64
f 17 64 19
f 17 19 18
f 46 45 44
f 46 44 47
f 47 44 43
f 47 43 65
f 47 65 66
f 47 66 48
f 48 66 67
f 48 67 55
f 55 67 56
f 56 67 68
f 56 68 57
f 57 68 69
f 57 69 70
f 57 70 58
f 58 70 59
f 59 70 71
f 59 71 72
f 59 72 63
f 59 63 60
f 60 63 61
f 61 63 62
f 37 36 73
f 37 73 74
f 37 74 38
f 38 74 75
f 38 75 76
f 38 76 77
f 38 77 39
f 39 77 40
f 40 77 78
f 40 78 41
f 41 78 42
f 42 78 79
f 42 79 65
f 42 65 43
f 73 80 74
f 74 80 81
f 74 81 75
f 75 81 82
f 75 82 83
f 75 83 76
f 76 83 84
f 76 84 77
f 77 84 79
f 77 79 78
f 81 80 82
f 82 80 71
f 82 71 83
f 83 71 70
f 83 70 85
f 83 85 84
f 84 85 86
f 84 86 87
f 84 87 79
f 79 87 65
f 65 87 88
f 65 88 66
f 66 88 67
f 67 88 68
f 68 88 89
f 68 89 86
f 68 86 69
f 69 86 85
f 69 85 70
f 80 73 71
f 71 73 72
f 72 73 90
f 72 90 91
f 72 91 63
f 63 91 64
f 64 91 52
f 64 52 92
f 64 92 19
f 19 92 20
f 20 92 50
f 20 50 49
f 20 49 10
f 88 87 89
f 89 87 86
f 36 90 73
f 90 36 53
f 90 53 91
f 91 53 52
f 51 50 92
f 51 92 52
