# RS2 Model 13348
# Vertices: 151
# Faces: 255

v 13 2 128
v 8 -8 124
v 14 -4 123
v 14 2 123
v 10 10 128
v 13 2 136
v 11 -5 132
v 10 -5 129
v 9 -6 128
v 0 -8 122
v 0 -8 128
v -3 -9 122
v -3 -9 120
v -6 -8 122
v -7 -8 123
v -8 -8 119
v -8 -7 124
v -9 -6 128
v -13 2 128
v -12 -1 124
v -13 -3 122
v -10 -7 119
v -13 -1 121
v -14 2 124
v -15 0 121
v -13 -1 119
v -15 3 122
v -15 6 123
v -12 10 121
v -12 11 124
v -11 10 128
v -10 14 123
v -10 13 120
v -8 13 121
v -5 13 123
v -6 13 120
v -3 16 121
v 0 13 118
v 0 14 122
v 0 13 127
v 4 12 121
v 8 13 123
v 5 13 120
v 11 11 124
v 16 7 124
v 15 3 118
v 15 -1 122
v 9 -6 121
v 1 15 145
v -1 15 144
v 0 15 148
v 2 15 149
v 4 15 142
v 3 15 138
v -9 12 144
v -6 15 146
v -4 15 148
v -3 15 151
v 1 15 156
v 15 11 157
v 6 15 143
v 5 15 139
v -12 9 136
v -12 9 145
v -15 11 157
v -9 15 151
v -5 15 150
v -6 15 156
v 1 11 165
v 14 4 163
v 0 10 167
v 4 5 166
v 13 0 161
v 14 -4 156
v 15 -2 157
v 11 -8 142
v 13 -3 143
v 14 2 140
v 15 4 147
v 14 4 135
v 14 7 142
v 12 8 136
v 10 10 135
v -7 15 152
v -8 15 155
v 6 9 127
v 12 0 127
v 14 2 119
v 6 10 119
v 0 12 119
v -1 10 127
v -8 10 119
v -7 9 127
v -14 2 119
v -11 0 127
v -7 -6 128
v -8 -7 117
v 0 -9 116
v 0 -7 128
v 7 -6 128
v 8 -7 117
v -14 4 163
v -4 5 166
v -13 0 161
v 0 0 163
v -12 -8 156
v -6 -8 155
v -2 -10 151
v 0 -13 150
v 12 -8 156
v 0 -14 147
v 11 -15 148
v -11 -15 148
v -14 -4 158
v -11 -14 145
v -5 -15 148
v 11 -14 145
v 0 -13 144
v 0 -9 140
v 8 -8 133
v 9 -7 135
v 11 -5 136
v 11 -3 136
v 13 -3 140
v 10 -7 134
v 10 -7 130
v -1 -9 138
v -3 -8 137
v -3 -9 134
v -6 -8 131
v -8 -8 131
v -8 -8 133
v -10 -5 135
v -13 2 135
v -11 -8 142
v -15 -2 157
v -14 -2 145
v -13 -2 143
v -5 -8 137
v -2 -9 139
v -7 -8 132
v -5 -8 133
v -6 -9 134
v -4 -8 136
v 13 5 135
v 13 7 134
v 12 8 134
v -15 0 145
v -14 0 144
v -14 -1 142
v -15 4 147

f 1 2 3
f 1 3 4
f 1 4 5
f 1 5 6
f 1 6 7
f 1 7 8
f 1 8 9
f 1 9 2
f 2 9 10
f 10 9 11
f 10 11 12
f 10 12 13
f 13 12 14
f 14 12 11
f 14 11 15
f 14 15 16
f 16 15 17
f 17 15 11
f 17 11 18
f 17 18 19
f 17 19 20
f 17 20 21
f 17 21 22
f 22 21 23
f 23 21 20
f 23 20 24
f 23 24 25
f 23 25 26
f 26 25 27
f 27 25 24
f 27 24 28
f 27 28 29
f 29 28 30
f 30 28 24
f 30 24 31
f 30 31 32
f 30 32 33
f 33 32 34
f 34 32 35
f 34 35 36
f 36 35 37
f 36 37 38
f 38 37 39
f 39 37 35
f 39 35 40
f 39 40 41
f 41 40 42
f 41 42 43
f 43 42 44
f 44 42 5
f 44 5 45
f 44 45 46
f 46 45 4
f 46 4 47
f 47 4 3
f 47 3 48
f 48 3 2
f 31 40 35
f 31 35 32
f 49 50 51
f 49 51 52
f 49 52 53
f 49 53 50
f 50 53 54
f 50 54 55
f 50 55 56
f 50 56 57
f 50 57 51
f 51 57 58
f 51 58 52
f 52 58 59
f 52 59 60
f 52 60 61
f 52 61 53
f 53 61 62
f 53 62 54
f 54 62 40
f 54 40 55
f 55 40 63
f 55 63 64
f 55 64 65
f 55 65 66
f 55 66 56
f 56 66 67
f 56 67 57
f 57 67 58
f 58 67 68
f 58 68 59
f 59 68 69
f 59 69 60
f 60 69 70
f 70 69 71
f 70 71 72
f 70 72 73
f 70 73 74
f 70 74 75
f 75 74 76
f 75 76 77
f 75 77 78
f 75 78 79
f 79 78 6
f 79 6 80
f 79 80 81
f 79 81 60
f 60 81 82
f 60 82 83
f 60 83 61
f 61 83 62
f 62 83 5
f 62 5 40
f 40 5 42
f 84 66 85
f 84 85 68
f 84 68 67
f 84 67 66
f 86 87 88
f 86 88 89
f 86 89 90
f 86 90 91
f 91 90 92
f 91 92 93
f 93 92 94
f 93 94 95
f 95 94 96
f 96 94 97
f 96 97 98
f 96 98 99
f 99 98 100
f 100 98 101
f 100 101 87
f 87 101 88
f 69 102 71
f 71 102 103
f 103 102 104
f 103 104 105
f 105 104 106
f 105 106 107
f 105 107 108
f 105 108 109
f 105 109 110
f 105 110 73
f 105 73 72
f 109 111 112
f 109 112 110
f 110 112 74
f 110 74 73
f 113 106 114
f 113 114 115
f 113 115 111
f 113 111 116
f 113 116 106
f 106 116 107
f 107 116 108
f 108 116 111
f 108 111 109
f 112 117 74
f 74 117 76
f 76 117 118
f 76 118 119
f 76 119 120
f 76 120 121
f 76 121 122
f 76 122 123
f 76 123 124
f 76 124 77
f 77 124 78
f 78 124 6
f 6 124 123
f 6 123 7
f 7 123 125
f 7 125 8
f 8 125 120
f 8 120 126
f 8 126 9
f 9 126 127
f 9 127 128
f 9 128 129
f 9 129 11
f 11 129 130
f 11 130 18
f 18 130 131
f 18 131 132
f 18 132 133
f 18 133 134
f 18 134 19
f 19 134 31
f 19 31 24
f 19 24 20
f 135 119 118
f 135 118 115
f 135 115 114
f 135 114 136
f 135 136 137
f 135 137 138
f 135 138 134
f 135 134 133
f 135 133 139
f 135 139 140
f 135 140 119
f 119 140 127
f 119 127 126
f 119 126 120
f 136 114 102
f 102 114 104
f 104 114 106
f 141 132 131
f 141 131 130
f 141 130 142
f 141 142 143
f 141 143 132
f 132 143 133
f 133 143 139
f 139 143 144
f 139 144 128
f 139 128 140
f 140 128 127
f 129 128 144
f 129 144 142
f 129 142 130
f 121 120 125
f 121 125 122
f 122 125 123
f 81 80 145
f 81 145 146
f 81 146 82
f 82 146 147
f 82 147 83
f 83 147 5
f 5 147 146
f 5 146 145
f 5 145 6
f 6 145 80
f 137 136 148
f 137 148 149
f 137 149 138
f 138 149 150
f 138 150 134
f 134 150 63
f 134 63 31
f 31 63 40
f 136 151 148
f 148 151 64
f 148 64 149
f 149 64 150
f 150 64 63
f 85 65 68
f 68 65 69
f 69 65 102
f 151 65 64
f 142 144 143
f 4 45 5
f 117 112 111
f 117 111 118
f 118 111 115
f 85 66 65
