# RS2 Model 1337
# Vertices: 62
# Faces: 74

v -128 -64 208
v 0 -64 208
v 0 -64 240
v -128 -64 240
v -128 64 240
v -128 55 208
v 0 55 208
v 0 64 240
v -128 80 240
v -256 128 240
v -256 96 128
v -128 32 128
v 0 32 128
v 128 64 240
v 0 80 240
v 0 48 128
v -128 48 128
v -256 112 128
v -16 -48 212
v -32 -48 212
v -40 32 128
v -8 32 128
v -16 -24 212
v -8 40 156
v -32 -24 212
v -40 40 156
v -96 -48 212
v -112 -48 212
v -120 32 128
v -88 32 128
v -96 -24 212
v -88 40 156
v -112 -24 212
v -120 40 156
v 0 -64 32
v 128 -64 0
v 160 -64 0
v 0 -64 64
v -128 -64 0
v 0 0 32
v 128 0 0
v -160 -64 0
v -160 0 0
v 0 0 64
v -256 64 0
v -128 0 0
v 160 0 0
v -128 16 0
v -256 80 0
v 256 112 128
v 128 48 128
v 128 80 240
v 256 128 240
v 256 96 128
v 128 32 128
v 256 64 0
v 128 16 0
v 256 80 0
v 0 16 0
v -151 -64 84
v -81 -64 -26
v -46 -64 120

f 1 2 3
f 1 3 4
f 1 4 5
f 1 5 6
f 3 2 7
f 3 7 8
f 3 8 4
f 4 8 5
f 5 8 9
f 5 9 10
f 5 10 11
f 5 11 12
f 5 12 8
f 8 12 13
f 8 13 14
f 8 14 15
f 8 15 9
f 9 15 16
f 9 16 17
f 9 17 18
f 9 18 10
f 19 20 21
f 19 21 22
f 19 22 23
f 23 22 24
f 23 24 25
f 25 24 26
f 25 26 20
f 20 26 21
f 27 28 29
f 27 29 30
f 27 30 31
f 31 30 32
f 31 32 33
f 33 32 34
f 33 34 28
f 28 34 29
f 35 36 37
f 35 37 38
f 35 38 39
f 35 39 40
f 35 40 41
f 35 41 36
f 39 38 42
f 42 38 43
f 43 38 44
f 43 44 12
f 43 12 11
f 43 11 45
f 40 39 46
f 44 38 37
f 44 37 47
f 44 47 13
f 44 13 12
f 18 17 48
f 18 48 49
f 50 51 52
f 50 52 53
f 53 52 14
f 53 14 54
f 54 14 55
f 54 55 47
f 54 47 56
f 57 51 50
f 57 50 58
f 48 17 16
f 48 16 59
f 59 16 51
f 59 51 57
f 15 52 51
f 15 51 16
f 15 14 52
f 13 55 14
f 55 13 47
