# RS2 Model 13449
# Vertices: 147
# Faces: 176

v -64 45 240
v -63 62 240
v -63 62 0
v -64 45 0
v -45 64 240
v -62 63 240
v -62 63 0
v -45 64 0
v 64 -64 240
v -64 32 240
v -64 -64 240
v -32 64 240
v 64 64 240
v -37 -12 246
v -33 -2 240
v -45 -14 240
v -35 -14 240
v -19 -1 242
v -25 -7 240
v -13 -1 240
v -22 5 240
v -45 -29 248
v -49 -19 240
v -55 -35 240
v -33 -33 240
v -46 1 249
v -50 13 251
v -54 17 241
v -50 -5 240
v -37 7 248
v -34 12 246
v -43 18 249
v -43 25 240
v -34 4 240
v -29 14 240
v -51 -42 244
v -46 -49 245
v -44 -51 240
v -51 -40 240
v -55 -47 243
v -56 -50 242
v -51 -53 244
v -50 -57 240
v -57 -45 240
v -59 -52 240
v -35 -43 243
v -28 -45 244
v -25 -45 240
v -36 -41 240
v -35 -48 242
v -34 -51 241
v -29 -50 243
v -26 -53 240
v -37 -48 240
v -35 -54 240
v -13 16 243
v -19 12 244
v -20 9 240
v -11 16 240
v -17 19 242
v -20 20 241
v -22 15 243
v -26 15 240
v -16 21 240
v -22 23 240
v -22 -26 243
v -15 -28 244
v -12 -28 240
v -23 -24 240
v -22 -31 242
v -21 -34 241
v -16 -33 243
v -13 -36 240
v -24 -31 240
v -22 -37 240
v 21 41 246
v 31 37 240
v 19 49 240
v 19 39 240
v 32 23 242
v 26 29 240
v 32 17 240
v 38 26 240
v 4 49 248
v 14 53 240
v -2 59 240
v 0 37 240
v 34 50 249
v 46 54 251
v 50 58 241
v 28 54 240
v 40 41 248
v 45 38 246
v 51 47 249
v 58 47 240
v 37 38 240
v 47 33 240
v -9 55 244
v -16 50 245
v -18 48 240
v -7 55 240
v -14 59 243
v -17 60 242
v -20 55 244
v -24 54 240
v -12 61 240
v -19 63 240
v -10 39 243
v -12 32 244
v -12 29 240
v -8 40 240
v -15 39 242
v -18 38 241
v -17 33 243
v -20 30 240
v -15 41 240
v -21 39 240
v 49 17 243
v 45 23 244
v 42 24 240
v 49 15 240
v 52 21 242
v 53 24 241
v 48 26 243
v 48 30 240
v 54 20 240
v 56 26 240
v 7 26 243
v 5 19 244
v 5 16 240
v 9 27 240
v 2 26 242
v -1 25 241
v 0 20 243
v -3 17 240
v 2 28 240
v -4 26 240
v -52 50 249
v -40 54 251
v -36 58 241
v -58 54 240
v -46 41 248
v -41 38 246
v -35 47 249
v -28 47 240
v -49 38 240
v -39 33 240

f 1 2 3
f 1 3 4
f 1 4 5
f 1 5 2
f 2 5 6
f 2 6 7
f 2 7 3
f 6 5 8
f 6 8 7
f 5 4 8
f 9 5 1
f 9 1 10
f 9 10 11
f 5 9 12
f 12 9 13
f 14 15 16
f 14 16 17
f 14 17 15
f 18 19 20
f 18 20 21
f 18 21 19
f 22 23 24
f 22 24 25
f 22 25 23
f 26 27 28
f 26 28 29
f 26 29 30
f 26 30 31
f 26 31 32
f 26 32 27
f 27 32 33
f 27 33 28
f 30 29 34
f 30 34 31
f 31 34 35
f 31 35 32
f 32 35 33
f 36 37 38
f 36 38 39
f 36 39 40
f 36 40 41
f 36 41 42
f 36 42 37
f 37 42 43
f 37 43 38
f 40 39 44
f 40 44 41
f 41 44 45
f 41 45 42
f 42 45 43
f 46 47 48
f 46 48 49
f 46 49 50
f 46 50 51
f 46 51 52
f 46 52 47
f 47 52 53
f 47 53 48
f 50 49 54
f 50 54 51
f 51 54 55
f 51 55 52
f 52 55 53
f 56 57 58
f 56 58 59
f 56 59 60
f 56 60 61
f 56 61 62
f 56 62 57
f 57 62 63
f 57 63 58
f 60 59 64
f 60 64 61
f 61 64 65
f 61 65 62
f 62 65 63
f 66 67 68
f 66 68 69
f 66 69 70
f 66 70 71
f 66 71 72
f 66 72 67
f 67 72 73
f 67 73 68
f 70 69 74
f 70 74 71
f 71 74 75
f 71 75 72
f 72 75 73
f 76 77 78
f 76 78 79
f 76 79 77
f 80 81 82
f 80 82 83
f 80 83 81
f 84 85 86
f 84 86 87
f 84 87 85
f 88 89 90
f 88 90 91
f 88 91 92
f 88 92 93
f 88 93 94
f 88 94 89
f 89 94 95
f 89 95 90
f 92 91 96
f 92 96 93
f 93 96 97
f 93 97 94
f 94 97 95
f 98 99 100
f 98 100 101
f 98 101 102
f 98 102 103
f 98 103 104
f 98 104 99
f 99 104 105
f 99 105 100
f 102 101 106
f 102 106 103
f 103 106 107
f 103 107 104
f 104 107 105
f 108 109 110
f 108 110 111
f 108 111 112
f 108 112 113
f 108 113 114
f 108 114 109
f 109 114 115
f 109 115 110
f 112 111 116
f 112 116 113
f 113 116 117
f 113 117 114
f 114 117 115
f 118 119 120
f 118 120 121
f 118 121 122
f 118 122 123
f 118 123 124
f 118 124 119
f 119 124 125
f 119 125 120
f 122 121 126
f 122 126 123
f 123 126 127
f 123 127 124
f 124 127 125
f 128 129 130
f 128 130 131
f 128 131 132
f 128 132 133
f 128 133 134
f 128 134 129
f 129 134 135
f 129 135 130
f 132 131 136
f 132 136 133
f 133 136 137
f 133 137 134
f 134 137 135
f 138 139 140
f 138 140 141
f 138 141 142
f 138 142 143
f 138 143 144
f 138 144 139
f 139 144 145
f 139 145 140
f 142 141 146
f 142 146 143
f 143 146 147
f 143 147 144
f 144 147 145
