# RS2 Model 13470
# Vertices: 47
# Faces: 92

v 0 -40 0
v 0 7 0
v 2 8 1
v 2 -40 1
v 0 -43 2
v -2 -40 1
v -2 8 1
v -8 13 1
v 0 13 0
v 8 13 1
v 2 8 3
v 2 -40 3
v 0 -40 4
v -2 -40 3
v -2 8 3
v -8 13 3
v -8 29 3
v -8 29 1
v -4 29 0
v -1 29 0
v 1 29 0
v 4 29 0
v 8 29 1
v 8 13 3
v 0 9 2
v 0 7 4
v 8 29 3
v 6 29 2
v 6 13 2
v -6 13 2
v -6 29 2
v -6 37 2
v -6 37 0
v -4 37 0
v -4 37 2
v -4 29 2
v -1 29 2
v -1 37 0
v 1 37 0
v 1 37 2
v 1 29 2
v 4 29 2
v 4 37 0
v 6 37 0
v 6 37 2
v -1 37 2
v 4 37 2

f 1 2 3
f 1 3 4
f 1 4 5
f 1 5 6
f 1 6 2
f 2 6 7
f 2 7 8
f 2 8 9
f 2 9 3
f 3 9 10
f 3 10 11
f 3 11 4
f 4 11 12
f 4 12 5
f 5 12 13
f 5 13 14
f 5 14 6
f 6 14 7
f 7 14 15
f 7 15 16
f 7 16 8
f 8 16 17
f 8 17 18
f 8 18 19
f 8 19 9
f 9 19 20
f 9 20 21
f 9 21 10
f 10 21 22
f 10 22 23
f 10 23 24
f 10 24 11
f 11 24 25
f 11 25 26
f 11 26 12
f 12 26 13
f 13 26 15
f 13 15 14
f 24 23 27
f 24 27 28
f 24 28 29
f 24 29 25
f 25 29 30
f 25 30 15
f 25 15 26
f 17 16 30
f 17 30 31
f 17 31 32
f 17 32 33
f 17 33 18
f 18 33 19
f 19 33 34
f 19 34 35
f 19 35 36
f 19 36 37
f 19 37 20
f 20 37 38
f 20 38 21
f 21 38 39
f 21 39 40
f 21 40 41
f 21 41 42
f 21 42 22
f 22 42 43
f 22 43 44
f 22 44 23
f 23 44 45
f 23 45 27
f 27 45 28
f 28 45 42
f 28 42 29
f 29 42 41
f 29 41 30
f 30 41 37
f 30 37 36
f 30 36 31
f 31 36 35
f 31 35 32
f 32 35 34
f 32 34 33
f 30 16 15
f 46 40 39
f 46 39 38
f 46 38 37
f 46 37 40
f 40 37 41
f 47 45 44
f 47 44 43
f 47 43 42
f 47 42 45
f 31 19 18
f 31 18 17
