# RS2 Model 1349
# Vertices: 34
# Faces: 42

v 64 -32 128
v 64 -16 128
v 64 16 240
v 64 0 240
v -64 -32 128
v 64 -64 0
v 64 -48 0
v -64 -48 0
v -64 -16 128
v -64 16 240
v -64 0 240
v -64 -64 0
v -64 -128 208
v 64 -128 208
v 64 -128 240
v -64 -128 240
v -64 -9 208
v 64 -9 208
v 48 -112 212
v 32 -112 212
v 24 -32 128
v 56 -32 128
v 48 -88 212
v 56 -24 156
v 32 -88 212
v 24 -24 156
v -32 -112 212
v -48 -112 212
v -56 -32 128
v -24 -32 128
v -32 -88 212
v -24 -24 156
v -48 -88 212
v -56 -24 156

f 1 2 3
f 1 3 4
f 1 4 5
f 1 5 6
f 1 6 2
f 2 6 7
f 2 7 8
f 2 8 9
f 2 9 10
f 2 10 3
f 3 10 4
f 4 10 11
f 4 11 5
f 5 11 9
f 5 9 8
f 5 8 12
f 5 12 6
f 11 10 9
f 13 14 15
f 13 15 16
f 13 16 11
f 13 11 17
f 15 14 18
f 15 18 4
f 15 4 16
f 16 4 11
f 19 20 21
f 19 21 22
f 19 22 23
f 23 22 24
f 23 24 25
f 25 24 26
f 25 26 20
f 20 26 21
f 27 28 29
f 27 29 30
f 27 30 31
f 31 30 32
f 31 32 33
f 33 32 34
f 33 34 28
f 28 34 29
