# RS2 Model 13529
# Vertices: 184
# Faces: 180

v -32 -45 99
v -32 -45 128
v -32 -47 128
v -32 -47 99
v -32 13 99
v -32 13 104
v -32 -39 104
v -32 -39 99
v -35 -40 105
v -35 -40 98
v -60 -40 105
v -60 -40 98
v -63 -39 99
v -63 -39 104
v -63 13 99
v -63 13 104
v -60 14 105
v -60 14 98
v -35 14 105
v -35 14 98
v -32 64 99
v -32 64 128
v -32 20 128
v -32 20 99
v -35 19 129
v -35 19 98
v -60 19 129
v -60 19 98
v -63 20 99
v -63 20 128
v -63 64 99
v -63 64 128
v -60 64 129
v -35 64 129
v -32 -47 93
v -32 -47 68
v -32 -14 68
v -32 -14 93
v -35 -50 94
v -35 -13 94
v -35 -13 67
v -32 44 68
v -32 44 93
v -32 -8 93
v -32 -8 68
v -35 -9 67
v -35 -9 94
v -35 45 94
v -35 45 67
v -32 64 68
v -32 64 93
v -32 51 93
v -32 51 68
v -35 50 94
v -35 50 67
v -32 20 34
v -32 64 34
v -32 64 63
v -32 20 63
v -35 19 64
v -35 19 33
v -32 13 34
v -32 13 63
v -32 -39 63
v -32 -39 34
v -35 -40 33
v -35 -40 64
v -35 14 64
v -35 14 33
v -32 -45 34
v -32 -45 63
v -32 -47 63
v -32 -47 34
v -32 -47 0
v -32 -14 0
v -32 -14 29
v -32 -47 29
v -35 -13 30
v -35 -50 30
v -32 44 0
v -32 44 29
v -32 -8 29
v -32 -8 0
v -35 -9 0
v -35 -9 30
v -35 45 30
v -35 45 0
v -32 64 29
v -32 51 29
v -32 51 0
v -32 64 0
v -35 64 64
v -35 50 30
v -35 64 30
v -35 -13 0
v -35 64 94
v -35 -44 64
v -35 -50 64
v -35 -50 129
v -35 -44 129
v -60 -44 129
v -60 -60 129
v -63 -45 128
v -63 -63 128
v -63 -45 99
v -63 -63 99
v -35 50 0
v -35 -44 98
v -35 -44 33
v -63 -14 68
v -63 -63 68
v -63 -63 93
v -63 -14 93
v -60 -13 94
v -60 -13 67
v -63 -8 93
v -63 44 93
v -63 44 68
v -63 -8 68
v -60 -9 67
v -60 -9 94
v -60 45 94
v -60 45 67
v -63 51 93
v -63 64 93
v -63 64 68
v -63 51 68
v -60 50 94
v -60 64 94
v -63 64 63
v -63 64 34
v -63 20 34
v -63 20 63
v -60 64 64
v -60 19 64
v -60 19 33
v -63 -39 63
v -63 13 63
v -63 13 34
v -63 -39 34
v -60 -40 33
v -60 -40 64
v -60 14 64
v -60 14 33
v -63 -63 63
v -63 -45 63
v -63 -45 34
v -63 -63 34
v -63 -14 29
v -63 -14 0
v -63 -63 0
v -63 -63 29
v -60 -13 30
v -60 -13 0
v -63 -8 29
v -63 44 29
v -63 44 0
v -63 -8 0
v -60 -9 0
v -60 -9 30
v -60 45 30
v -60 45 0
v -63 51 0
v -63 51 29
v -63 64 29
v -63 64 0
v -60 -60 30
v -60 50 30
v -60 64 30
v -60 -60 94
v -60 -60 64
v -60 -44 64
v -60 50 67
v -60 50 0
v -60 -44 98
v -60 -44 33
v -35 64 99
v -35 -50 99
v -35 -50 0
v -35 64 0
v -60 -60 0
v -60 -60 99
v -60 64 99
v -60 64 0

f 1 2 3
f 1 3 4
f 5 6 7
f 5 7 8
f 8 7 9
f 8 9 10
f 10 9 11
f 10 11 12
f 12 11 13
f 13 11 14
f 13 14 15
f 15 14 16
f 15 16 17
f 15 17 18
f 18 17 19
f 18 19 20
f 20 19 5
f 5 19 6
f 6 19 7
f 7 19 9
f 9 19 17
f 9 17 11
f 11 17 14
f 14 17 16
f 21 22 23
f 21 23 24
f 24 23 25
f 24 25 26
f 26 25 27
f 26 27 28
f 28 27 29
f 29 27 30
f 29 30 31
f 31 30 32
f 32 30 27
f 32 27 33
f 33 27 25
f 33 25 34
f 34 25 22
f 22 25 23
f 35 36 37
f 35 37 38
f 35 38 39
f 39 38 40
f 40 38 37
f 40 37 41
f 42 43 44
f 42 44 45
f 45 44 46
f 46 44 47
f 47 44 43
f 47 43 48
f 48 43 49
f 49 43 42
f 50 51 52
f 50 52 53
f 53 52 54
f 53 54 55
f 56 57 58
f 56 58 59
f 56 59 60
f 56 60 61
f 62 63 64
f 62 64 65
f 65 64 66
f 66 64 67
f 67 64 68
f 68 64 63
f 68 63 62
f 68 62 69
f 70 71 72
f 70 72 73
f 74 75 76
f 74 76 77
f 77 76 78
f 77 78 79
f 80 81 82
f 80 82 83
f 83 82 84
f 84 82 85
f 85 82 81
f 85 81 86
f 86 81 87
f 87 81 80
f 88 89 90
f 88 90 91
f 59 58 92
f 59 92 60
f 93 89 88
f 93 88 94
f 76 75 95
f 76 95 78
f 54 52 51
f 54 51 96
f 71 97 98
f 71 98 72
f 99 3 2
f 99 2 100
f 99 100 101
f 99 101 102
f 102 101 103
f 102 103 104
f 104 103 105
f 104 105 106
f 93 107 90
f 93 90 89
f 1 108 100
f 1 100 2
f 70 109 97
f 70 97 71
f 110 111 112
f 110 112 113
f 110 113 114
f 110 114 115
f 116 117 118
f 116 118 119
f 116 119 120
f 116 120 121
f 116 121 117
f 117 121 122
f 117 122 123
f 117 123 118
f 124 125 126
f 124 126 127
f 124 127 128
f 124 128 125
f 125 128 129
f 130 131 132
f 130 132 133
f 130 133 134
f 134 133 135
f 135 133 132
f 135 132 136
f 137 138 139
f 137 139 140
f 137 140 141
f 137 141 142
f 137 142 143
f 137 143 138
f 138 143 139
f 139 143 144
f 145 146 147
f 145 147 148
f 149 150 151
f 149 151 152
f 149 152 153
f 149 153 154
f 149 154 150
f 155 156 157
f 155 157 158
f 155 158 159
f 155 159 160
f 155 160 156
f 156 160 161
f 156 161 162
f 156 162 157
f 163 164 165
f 163 165 166
f 152 167 153
f 165 164 168
f 165 168 169
f 113 112 170
f 113 170 114
f 171 172 146
f 171 146 145
f 127 173 128
f 163 174 168
f 163 168 164
f 101 175 105
f 101 105 103
f 172 176 147
f 172 147 146
f 100 108 175
f 100 175 101
f 177 178 179
f 177 179 180
f 181 182 183
f 181 183 184
f 178 177 183
f 178 183 182
