# RS2 Model 13537
# Vertices: 30
# Faces: 37

v 33 0 12
v 7 -25 12
v 63 -25 13
v 63 0 12
v 63 2 0
v 33 2 0
v 7 -27 0
v 63 -27 0
v 5 -32 12
v -28 -61 12
v 31 -61 13
v 30 -31 12
v 30 -29 0
v 5 -30 0
v -28 -63 0
v 31 -63 0
v 34 -31 12
v 34 -61 12
v 63 -61 13
v 62 -31 12
v 62 -29 0
v 34 -29 0
v 34 -63 0
v 63 -63 0
v 63 6 12
v 63 27 12
v 40 6 12
v 40 5 0
v 63 5 0
v 63 28 0

f 1 2 3
f 1 3 4
f 1 4 5
f 1 5 6
f 1 6 7
f 1 7 2
f 2 7 3
f 3 7 8
f 3 8 4
f 4 8 5
f 9 10 11
f 9 11 12
f 9 12 13
f 9 13 14
f 9 14 15
f 9 15 10
f 10 15 11
f 11 15 16
f 11 16 12
f 12 16 13
f 17 18 19
f 17 19 20
f 17 20 21
f 17 21 22
f 17 22 18
f 18 22 23
f 18 23 19
f 19 23 24
f 19 24 20
f 20 24 21
f 25 26 27
f 25 27 28
f 25 28 29
f 25 29 26
f 26 29 30
f 26 30 27
f 27 30 28
