# RS2 Model 13593
# Vertices: 125
# Faces: 243

v -9 9 14
v 7 11 11
v 10 13 9
v -7 13 11
v -18 9 26
v -7 6 6
v 8 6 6
v 18 -4 6
v 17 1 11
v 20 3 9
v 24 0 2
v 14 10 2
v -5 13 2
v -18 13 22
v -21 9 41
v -19 6 16
v -5 9 -1
v 13 5 0
v 23 -5 0
v 25 -21 0
v 21 -18 6
v 23 -13 11
v 27 -13 9
v 28 -18 2
v -20 9 11
v -20 13 11
v -22 13 39
v -17 9 63
v -24 6 36
v -12 9 112
v -11 9 83
v -12 13 82
v -13 13 109
v -12 9 136
v -15 6 105
v -15 6 80
v -21 6 58
v -19 13 60
v -24 13 56
v -18 13 76
v -17 13 100
v -13 13 132
v -12 9 159
v -15 6 129
v -18 9 98
v -20 9 76
v -26 9 54
v -28 9 31
v -27 13 33
v -12 9 206
v -12 9 183
v -13 13 179
v -13 13 203
v -12 9 229
v -15 6 200
v -15 6 176
v -15 6 152
v -13 13 156
v -17 13 147
v -17 13 171
v -17 13 195
v -13 13 226
v -12 9 253
v -15 6 222
v -18 9 193
v -18 9 169
v -18 9 146
v -18 9 122
v -17 13 124
v -13 13 249
v -12 9 276
v -15 6 246
v -18 9 216
v -17 13 217
v -17 13 241
v -13 13 273
v -12 9 300
v -15 6 270
v -18 9 239
v -18 9 263
v -17 13 265
v -13 13 297
v -12 9 324
v -15 6 293
v -18 9 287
v -17 13 288
v -15 6 317
v -18 9 310
v -17 13 312
v -13 13 320
v -12 9 395
v -12 9 371
v -13 13 368
v -13 13 391
v -12 9 418
v -15 6 388
v -15 6 364
v -15 6 341
v -12 9 347
v -13 13 344
v -17 13 336
v -17 13 359
v -17 13 383
v -13 13 415
v -12 9 442
v -15 6 412
v -18 9 381
v -18 9 358
v -18 9 334
v -18 9 405
v -17 13 406
v -13 13 439
v -12 9 466
v -15 6 435
v -18 9 428
v -17 13 430
v -15 6 459
v -18 9 452
v -17 13 454
v -13 13 462
v -12 9 489
v -13 13 486
v -17 13 477
v -18 9 476
v -15 6 482

f 1 2 3
f 1 3 4
f 1 4 5
f 1 5 6
f 1 6 7
f 1 7 2
f 2 7 8
f 2 8 9
f 2 9 3
f 3 9 10
f 3 10 11
f 3 11 12
f 3 12 4
f 4 12 13
f 4 13 14
f 4 14 5
f 5 14 15
f 5 15 16
f 5 16 6
f 6 16 17
f 6 17 18
f 6 18 7
f 7 18 19
f 7 19 8
f 8 19 20
f 8 20 21
f 8 21 9
f 9 21 22
f 9 22 10
f 10 22 23
f 10 23 24
f 10 24 11
f 11 24 20
f 11 20 19
f 11 19 12
f 12 19 18
f 12 18 17
f 12 17 13
f 13 17 25
f 13 25 26
f 13 26 14
f 14 26 27
f 14 27 15
f 15 27 28
f 15 28 29
f 15 29 16
f 16 29 25
f 16 25 17
f 30 31 32
f 30 32 33
f 30 33 34
f 30 34 35
f 30 35 36
f 30 36 31
f 31 36 37
f 31 37 28
f 31 28 38
f 31 38 32
f 32 38 39
f 32 39 40
f 32 40 33
f 33 40 41
f 33 41 42
f 33 42 34
f 34 42 43
f 34 43 44
f 34 44 35
f 35 44 45
f 35 45 46
f 35 46 36
f 36 46 47
f 36 47 37
f 37 47 48
f 37 48 29
f 37 29 28
f 45 41 40
f 45 40 46
f 46 40 39
f 46 39 47
f 47 39 49
f 47 49 48
f 48 49 26
f 48 26 25
f 48 25 29
f 28 27 38
f 38 27 49
f 38 49 39
f 27 26 49
f 50 51 52
f 50 52 53
f 50 53 54
f 50 54 55
f 50 55 56
f 50 56 51
f 51 56 57
f 51 57 43
f 51 43 58
f 51 58 52
f 52 58 59
f 52 59 60
f 52 60 53
f 53 60 61
f 53 61 62
f 53 62 54
f 54 62 63
f 54 63 64
f 54 64 55
f 55 64 65
f 55 65 66
f 55 66 56
f 56 66 67
f 56 67 57
f 57 67 68
f 57 68 44
f 57 44 43
f 65 61 60
f 65 60 66
f 66 60 59
f 66 59 67
f 67 59 69
f 67 69 68
f 68 69 41
f 68 41 45
f 68 45 44
f 43 42 58
f 58 42 69
f 58 69 59
f 42 41 69
f 63 62 70
f 63 70 71
f 63 71 72
f 63 72 64
f 64 72 73
f 64 73 65
f 65 73 61
f 61 73 74
f 61 74 62
f 62 74 70
f 70 74 75
f 70 75 76
f 70 76 71
f 71 76 77
f 71 77 78
f 71 78 72
f 72 78 79
f 72 79 73
f 73 79 74
f 74 79 75
f 75 79 80
f 75 80 81
f 75 81 76
f 76 81 82
f 76 82 77
f 77 82 83
f 77 83 84
f 77 84 78
f 78 84 80
f 78 80 79
f 85 86 81
f 85 81 80
f 85 80 84
f 85 84 87
f 85 87 88
f 85 88 86
f 86 88 89
f 86 89 90
f 86 90 82
f 86 82 81
f 91 92 93
f 91 93 94
f 91 94 95
f 91 95 96
f 91 96 97
f 91 97 92
f 92 97 98
f 92 98 99
f 92 99 100
f 92 100 93
f 93 100 101
f 93 101 102
f 93 102 94
f 94 102 103
f 94 103 104
f 94 104 95
f 95 104 105
f 95 105 106
f 95 106 96
f 96 106 107
f 96 107 108
f 96 108 97
f 97 108 109
f 97 109 98
f 98 109 88
f 98 88 87
f 98 87 99
f 99 87 83
f 99 83 90
f 99 90 100
f 100 90 89
f 100 89 101
f 101 89 109
f 101 109 108
f 101 108 102
f 102 108 107
f 102 107 103
f 103 107 110
f 103 110 111
f 103 111 104
f 104 111 112
f 104 112 105
f 105 112 113
f 105 113 114
f 105 114 106
f 106 114 110
f 106 110 107
f 109 89 88
f 83 82 90
f 83 87 84
f 115 116 111
f 115 111 110
f 115 110 114
f 115 114 117
f 115 117 118
f 115 118 116
f 116 118 119
f 116 119 120
f 116 120 112
f 116 112 111
f 121 113 120
f 121 120 122
f 122 120 119
f 122 119 123
f 123 119 124
f 124 119 118
f 124 118 125
f 125 118 117
f 125 117 121
f 121 117 113
f 113 117 114
f 113 112 120
f 22 21 20
f 22 20 24
f 22 24 23
