# RS2 Model 13641
# Vertices: 28
# Faces: 52

v 0 -23 1
v 2 -23 2
v 3 -24 2
v 0 -24 0
v -2 -23 2
v -1 -23 2
v 1 -23 2
v 2 -23 4
v 3 -24 4
v 3 -37 4
v 3 -37 2
v 0 -37 0
v -3 -24 2
v -2 -23 4
v -1 -23 4
v -1 37 2
v 1 37 2
v 1 37 4
v 1 -23 4
v 0 -23 5
v 0 -24 6
v 0 -37 6
v 0 -39 3
v -3 -37 2
v -3 -24 4
v -1 37 4
v 0 39 3
v -3 -37 4

f 1 2 3
f 1 3 4
f 1 4 5
f 1 5 6
f 1 6 7
f 1 7 2
f 2 7 8
f 2 8 9
f 2 9 3
f 3 9 10
f 3 10 11
f 3 11 4
f 4 11 12
f 4 12 13
f 4 13 5
f 5 13 14
f 5 14 15
f 5 15 6
f 6 15 16
f 6 16 7
f 7 16 17
f 7 17 18
f 7 18 19
f 7 19 8
f 8 19 20
f 8 20 21
f 8 21 9
f 9 21 22
f 9 22 10
f 10 22 23
f 10 23 11
f 11 23 12
f 12 23 24
f 12 24 13
f 13 24 25
f 13 25 14
f 14 25 20
f 14 20 15
f 15 20 19
f 15 19 18
f 15 18 26
f 15 26 16
f 16 26 27
f 16 27 17
f 17 27 18
f 18 27 26
f 20 25 21
f 21 25 28
f 21 28 22
f 22 28 23
f 23 28 24
f 24 28 25
