# RS2 Model 13658
# Vertices: 141
# Faces: 189

v -102 -48 120
v -98 -40 122
v -106 -45 126
v -111 -48 118
v -113 -40 123
v -113 -40 115
v -110 -33 118
v -106 -36 112
v -100 -33 119
v -106 -36 125
v -78 -34 126
v -85 -37 124
v -77 -43 123
v -71 -37 122
v -74 -30 119
v -83 -30 120
v -87 -36 115
v -83 -44 118
v -74 -44 118
v -72 -36 113
v -80 -30 114
v -79 -40 111
v -82 -62 124
v -78 -68 120
v -72 -61 125
v -77 -54 125
v -83 -55 119
v -82 -63 116
v -75 -65 112
v -70 -64 118
v -70 -56 122
v -75 -51 116
v -71 -57 113
v -95 -68 110
v -90 -71 117
v -98 -73 114
v -96 -73 122
v -103 -70 121
v -103 -66 113
v -101 -60 120
v -96 -59 113
v -93 -59 121
v -97 -63 125
v -89 -66 123
v -90 -62 114
v -108 -46 120
v -114 -50 117
v -111 -54 124
v -103 -52 124
v -101 -49 116
v -108 -49 112
v -110 -57 110
v -113 -59 118
v -106 -59 124
v -99 -58 119
v -104 -62 116
v -87 -34 120
v -92 -39 120
v -90 -35 112
v -87 -27 114
v -90 -25 122
v -94 -32 125
v -102 -34 120
v -97 -27 124
v -100 -28 114
v -98 -36 114
v -94 -23 115
v -61 -45 118
v -63 -48 124
v -65 -54 116
v -66 -48 110
v -69 -40 114
v -69 -42 122
v -74 -48 125
v -71 -54 121
v -70 -53 113
v -77 -50 117
v -74 -41 119
v -93 -58 119
v -88 -54 116
v -90 -50 123
v -98 -51 123
v -100 -53 115
v -94 -55 111
v -98 -50 110
v -100 -45 118
v -94 -42 115
v -92 -46 123
v -88 -46 117
v -59 -42 110
v -73 -24 110
v -94 -20 110
v -112 -34 110
v -116 -55 110
v -102 -73 110
v -81 -77 110
v -63 -63 110
v -55 -68 116
v -50 -40 116
v -67 -15 116
v -96 -11 116
v -121 -28 116
v -125 -57 116
v -108 -81 116
v -79 -86 116
v -83 -57 133
v -78 -54 129
v -80 -49 137
v -88 -50 137
v -90 -53 129
v -84 -54 124
v -79 -47 123
v -77 -46 130
v -82 -45 137
v -90 -44 131
v -88 -49 123
v -84 -41 128
v -90 -70 130
v -84 -66 127
v -86 -62 135
v -94 -63 135
v -96 -66 126
v -90 -67 122
v -86 -59 120
v -84 -58 128
v -90 -57 134
v -96 -56 129
v -94 -62 121
v -91 -54 126
v -98 -43 132
v -91 -40 134
v -97 -33 133
v -101 -37 126
v -96 -44 123
v -90 -45 128
v -84 -38 127
v -89 -33 130
v -96 -30 128
v -96 -35 120
v -90 -32 122
v -90 -43 122

f 1 2 3
f 1 3 4
f 4 3 5
f 4 5 6
f 6 5 7
f 6 7 8
f 8 7 9
f 9 7 10
f 9 10 2
f 2 10 3
f 3 10 5
f 5 10 7
f 11 12 13
f 11 13 14
f 11 14 15
f 11 15 16
f 11 16 12
f 12 16 17
f 12 17 18
f 12 18 13
f 13 18 19
f 13 19 14
f 14 19 20
f 14 20 15
f 15 20 21
f 15 21 16
f 16 21 17
f 18 17 22
f 18 22 19
f 23 24 25
f 23 25 26
f 23 26 27
f 23 27 28
f 23 28 24
f 24 28 29
f 24 29 30
f 24 30 25
f 25 30 31
f 25 31 26
f 26 31 32
f 26 32 27
f 30 29 33
f 30 33 31
f 31 33 32
f 34 35 36
f 36 35 37
f 36 37 38
f 36 38 39
f 39 38 40
f 39 40 41
f 41 40 42
f 42 40 43
f 42 43 44
f 42 44 45
f 45 44 35
f 35 44 37
f 37 44 43
f 37 43 38
f 38 43 40
f 46 47 48
f 46 48 49
f 46 49 50
f 46 50 51
f 46 51 47
f 47 51 52
f 47 52 53
f 47 53 48
f 48 53 54
f 48 54 49
f 49 54 55
f 49 55 50
f 53 52 56
f 53 56 54
f 54 56 55
f 57 58 59
f 57 59 60
f 57 60 61
f 57 61 62
f 57 62 58
f 58 62 63
f 63 62 64
f 63 64 65
f 63 65 66
f 67 65 64
f 67 64 61
f 67 61 60
f 64 62 61
f 68 69 70
f 68 70 71
f 68 71 72
f 68 72 73
f 68 73 69
f 69 73 74
f 69 74 75
f 69 75 70
f 70 75 76
f 70 76 71
f 75 74 77
f 75 77 76
f 78 77 74
f 78 74 73
f 78 73 72
f 79 80 81
f 79 81 82
f 79 82 83
f 79 83 84
f 84 83 85
f 85 83 86
f 85 86 87
f 87 86 88
f 87 88 89
f 89 88 81
f 89 81 80
f 82 81 88
f 82 88 86
f 82 86 83
f 90 91 92
f 90 92 93
f 90 93 94
f 90 94 95
f 90 95 96
f 90 96 97
f 90 97 98
f 90 98 99
f 90 99 91
f 91 99 100
f 91 100 92
f 92 100 101
f 92 101 93
f 93 101 102
f 93 102 94
f 94 102 103
f 94 103 95
f 95 103 104
f 95 104 96
f 96 104 105
f 96 105 97
f 97 105 98
f 106 107 108
f 106 108 109
f 106 109 110
f 106 110 111
f 106 111 107
f 107 111 112
f 107 112 113
f 107 113 108
f 108 113 114
f 108 114 109
f 109 114 115
f 109 115 110
f 110 115 116
f 116 115 117
f 117 115 114
f 117 114 113
f 117 113 112
f 118 119 120
f 118 120 121
f 118 121 122
f 118 122 123
f 118 123 119
f 119 123 124
f 119 124 125
f 119 125 120
f 120 125 126
f 120 126 121
f 121 126 127
f 121 127 122
f 122 127 128
f 122 128 123
f 125 124 129
f 125 129 126
f 126 129 127
f 127 129 128
f 130 131 132
f 130 132 133
f 130 133 134
f 130 134 135
f 130 135 131
f 131 135 136
f 131 136 137
f 131 137 132
f 132 137 138
f 132 138 133
f 133 138 139
f 139 138 140
f 140 138 137
f 140 137 136
f 141 136 135
f 141 135 134
