# RS2 Model 13717
# Vertices: 186
# Faces: 348

v 169 15 37
v 177 25 37
v 174 29 7
v 165 18 7
v 165 10 22
v 170 -7 37
v 168 3 43
v 180 13 85
v 187 22 85
v 186 30 37
v 184 35 7
v 161 12 7
v 151 7 18
v 167 -2 30
v 174 -28 37
v 182 -12 85
v 183 -11 132
v 181 12 132
v 187 20 132
v 186 23 132
v 195 25 132
v 195 27 85
v 199 30 37
v 200 35 7
v 182 12 7
v 174 12 7
v 166 8 7
v 158 -14 7
v 145 -9 8
v 148 11 7
v 141 10 17
v 141 6 21
v 153 -1 24
v 163 -12 22
v 171 -32 7
v 192 -29 37
v 199 -23 85
v 197 -21 132
v 191 -27 192
v 179 -23 192
v 176 -21 192
v 176 -11 192
v 176 4 192
v 182 12 192
v 181 15 192
v 190 17 192
v 208 18 132
v 211 20 85
v 212 14 37
v 211 28 22
v 213 32 7
v 178 -4 7
v 178 -2 3
v 182 14 3
v 174 14 3
v 166 10 3
v 168 -2 7
v 168 0 3
v 168 -1 0
v 178 -3 0
v 182 13 0
v 174 13 0
v 166 9 0
v 226 -1 37
v 222 -26 21
v 224 -30 7
v 231 -2 7
v 225 6 22
v 218 17 31
v 230 0 85
v 210 -22 37
v 212 -30 27
v 223 -45 24
v 229 -43 21
v 234 -42 7
v 217 -51 11
v 203 -38 7
v 208 -26 7
v 219 -25 7
v 223 -17 7
v 229 7 7
v 238 24 22
v 232 29 27
v 186 -37 7
v 203 -34 21
v 216 -21 85
v 212 -20 132
v 204 -22 192
v 211 -21 251
v 198 -26 251
v 186 -22 251
v 183 -20 251
v 183 -10 251
v 183 5 251
v 189 13 251
v 197 18 251
v 201 10 192
v 226 1 132
v 220 -48 21
v 245 33 7
v 240 44 22
v 237 46 26
v 235 49 22
v 226 34 22
v 229 43 9
v 213 -13 7
v 206 -19 7
v 206 -17 3
v 208 -24 3
v 219 -23 3
v 223 -15 3
v 238 51 22
v 243 59 12
v 237 56 11
v 237 58 3
v 229 44 3
v 245 34 3
v 245 50 10
v 245 52 3
v 243 61 3
v 243 61 0
v 237 58 0
v 229 44 0
v 245 34 0
v 230 -55 17
v 233 -60 14
v 233 -63 3
v 234 -44 3
v 217 -53 3
v 225 -60 14
v 225 -55 17
v 225 -63 3
v 225 -63 0
v 233 -63 0
v 234 -44 0
v 217 -53 0
v 149 -8 18
v 138 13 11
v 136 10 16
v 139 3 17
v 134 12 13
v 136 5 12
v 133 5 3
v 143 -9 3
v 146 11 3
v 135 13 3
v 227 -51 20
v 215 -17 85
v 211 -16 132
v 230 0 132
v 218 -5 192
v 225 -4 251
v 218 -6 305
v 205 -22 305
v 194 -26 305
v 184 -23 305
v 181 -11 305
v 181 1 305
v 186 8 305
v 194 13 305
v 208 11 251
v 203 7 305
v 201 3 305
v 208 -6 305
v 197 -17 305
v 187 -13 305
v 186 -1 305
v 189 3 305
v 194 7 305
v 195 -7 305
v 131 12 3
v 131 12 0
v 133 5 0
v 143 -9 0
v 146 11 0
v 135 13 0
v 245 52 0
v 213 -11 3
v 213 -12 0
v 206 -18 0
v 208 -25 0
v 219 -24 0
v 223 -16 0
v 145 -9 305
v 206 -55 305
v 186 42 305

f 1 2 3
f 1 3 4
f 1 4 5
f 1 5 6
f 1 6 7
f 1 7 8
f 1 8 2
f 2 8 9
f 2 9 10
f 2 10 11
f 2 11 3
f 3 11 4
f 4 11 12
f 4 12 5
f 5 12 13
f 5 13 14
f 5 14 6
f 6 14 15
f 6 15 16
f 6 16 7
f 7 16 8
f 8 16 17
f 8 17 18
f 8 18 9
f 9 18 19
f 9 19 20
f 9 20 21
f 9 21 22
f 9 22 10
f 10 22 23
f 10 23 24
f 10 24 11
f 11 24 25
f 11 25 26
f 11 26 12
f 12 26 27
f 12 27 28
f 12 28 29
f 12 29 30
f 12 30 13
f 13 30 31
f 13 31 32
f 13 32 33
f 13 33 14
f 14 33 34
f 14 34 15
f 15 34 28
f 15 28 35
f 15 35 36
f 15 36 37
f 15 37 16
f 16 37 38
f 16 38 17
f 17 38 39
f 17 39 40
f 17 40 41
f 17 41 42
f 17 42 18
f 18 42 43
f 18 43 19
f 19 43 44
f 19 44 45
f 19 45 20
f 20 45 46
f 20 46 21
f 21 46 47
f 21 47 48
f 21 48 22
f 22 48 23
f 23 48 49
f 23 49 50
f 23 50 51
f 23 51 24
f 24 51 35
f 24 35 52
f 24 52 25
f 25 52 53
f 25 53 54
f 25 54 26
f 26 54 55
f 26 55 27
f 27 55 56
f 27 56 57
f 27 57 28
f 28 57 35
f 35 57 52
f 52 57 58
f 52 58 53
f 53 58 59
f 53 59 60
f 53 60 54
f 54 60 61
f 54 61 55
f 55 61 62
f 55 62 56
f 56 62 63
f 56 63 58
f 56 58 57
f 64 65 66
f 64 66 67
f 64 67 68
f 64 68 69
f 64 69 49
f 64 49 48
f 64 48 70
f 64 70 71
f 64 71 65
f 65 71 72
f 65 72 73
f 65 73 74
f 65 74 75
f 65 75 66
f 66 75 76
f 66 76 77
f 66 77 78
f 66 78 79
f 66 79 67
f 67 79 80
f 67 80 81
f 67 81 68
f 68 81 82
f 68 82 69
f 69 82 83
f 69 83 50
f 69 50 49
f 36 35 84
f 36 84 85
f 36 85 71
f 36 71 37
f 37 71 86
f 37 86 38
f 38 86 87
f 38 87 39
f 39 87 88
f 39 88 89
f 39 89 90
f 39 90 40
f 40 90 91
f 40 91 92
f 40 92 41
f 41 92 93
f 41 93 42
f 42 93 43
f 43 93 94
f 43 94 44
f 44 94 95
f 44 95 45
f 45 95 96
f 45 96 46
f 46 96 97
f 46 97 47
f 47 97 98
f 47 98 70
f 47 70 48
f 85 84 77
f 85 77 99
f 85 99 72
f 85 72 71
f 82 81 100
f 82 100 101
f 82 101 102
f 82 102 83
f 83 102 103
f 83 103 104
f 83 104 50
f 50 104 105
f 50 105 51
f 51 105 100
f 51 100 35
f 35 100 84
f 84 100 81
f 84 81 106
f 84 106 107
f 84 107 77
f 77 107 78
f 78 107 108
f 78 108 109
f 78 109 79
f 79 109 110
f 79 110 80
f 80 110 111
f 80 111 106
f 80 106 81
f 103 112 113
f 103 113 114
f 103 114 104
f 104 114 105
f 105 114 115
f 105 115 116
f 105 116 100
f 100 116 117
f 100 117 118
f 100 118 101
f 101 118 112
f 101 112 102
f 102 112 103
f 112 118 113
f 113 118 119
f 113 119 120
f 113 120 114
f 114 120 115
f 115 120 121
f 115 121 122
f 115 122 116
f 116 122 123
f 116 123 117
f 117 123 124
f 117 124 119
f 117 119 118
f 74 125 126
f 74 126 75
f 75 126 127
f 75 127 128
f 75 128 76
f 76 128 129
f 76 129 130
f 76 130 131
f 76 131 99
f 76 99 77
f 125 131 130
f 125 130 126
f 126 130 132
f 126 132 127
f 127 132 133
f 127 133 134
f 127 134 128
f 128 134 135
f 128 135 129
f 129 135 136
f 129 136 132
f 129 132 130
f 34 137 29
f 34 29 28
f 31 30 138
f 31 138 139
f 31 139 32
f 32 139 140
f 32 140 33
f 33 140 137
f 33 137 34
f 140 139 141
f 140 141 142
f 140 142 137
f 137 142 29
f 29 142 143
f 29 143 144
f 29 144 30
f 30 144 145
f 30 145 138
f 138 145 146
f 138 146 141
f 138 141 139
f 147 131 125
f 147 125 73
f 147 73 99
f 147 99 131
f 73 125 74
f 72 99 73
f 71 70 148
f 71 148 86
f 86 148 87
f 87 148 149
f 87 149 88
f 88 149 150
f 88 150 151
f 88 151 152
f 88 152 89
f 89 152 153
f 89 153 154
f 89 154 90
f 90 154 155
f 90 155 91
f 91 155 156
f 91 156 92
f 92 156 157
f 92 157 93
f 93 157 94
f 94 157 158
f 94 158 95
f 95 158 159
f 95 159 96
f 96 159 160
f 96 160 161
f 96 161 97
f 97 161 151
f 97 151 98
f 98 151 150
f 98 150 70
f 70 150 149
f 70 149 148
f 151 161 152
f 152 161 162
f 152 162 153
f 153 162 163
f 153 163 164
f 153 164 154
f 154 164 165
f 154 165 155
f 155 165 156
f 156 165 166
f 156 166 157
f 157 166 158
f 158 166 167
f 158 167 159
f 159 167 168
f 159 168 160
f 160 168 169
f 160 169 162
f 160 162 161
f 169 163 162
f 163 169 170
f 163 170 164
f 164 170 165
f 165 170 166
f 166 170 167
f 167 170 168
f 168 170 169
f 142 141 171
f 142 171 143
f 143 171 172
f 143 172 173
f 143 173 144
f 144 173 174
f 144 174 145
f 145 174 175
f 145 175 146
f 146 175 176
f 146 176 171
f 146 171 141
f 119 124 177
f 119 177 120
f 120 177 121
f 132 136 133
f 171 176 172
f 106 111 178
f 106 178 107
f 107 178 108
f 108 178 179
f 108 179 180
f 108 180 109
f 109 180 181
f 109 181 110
f 110 181 182
f 110 182 111
f 111 182 183
f 111 183 178
f 178 183 179
f 58 63 59
