# RS2 Model 13754
# Vertices: 217
# Faces: 376

v 21 -15 78
v 64 -30 110
v 1 28 78
v -24 28 53
v -7 -16 54
v 11 -64 78
v 64 -64 98
v -14 64 53
v 11 64 78
v 64 30 110
v 64 64 98
v -20 -15 11
v -14 -64 53
v -24 -64 10
v -43 -17 0
v -49 -64 0
v -24 64 10
v -34 28 10
v -59 28 0
v -49 64 0
v -40 41 60
v -21 50 60
v -23 30 61
v -32 26 61
v -38 25 61
v -49 25 61
v -56 34 61
v -60 45 61
v -54 54 61
v -47 59 61
v -38 61 61
v -30 59 61
v -20 50 62
v -20 39 61
v -30 34 62
v -39 33 62
v -46 41 62
v -41 49 62
v -34 52 62
v -34 44 62
v -25 41 62
v -45 -23 19
v -23 -23 20
v -36 -56 24
v -43 -57 24
v -51 -51 24
v -61 -44 24
v -63 -23 24
v -61 1 24
v -51 11 24
v -43 13 24
v -37 11 24
v -29 0 24
v -23 -23 27
v -29 -45 24
v -37 -47 27
v -44 -42 27
v -50 -28 27
v -49 -11 27
v -42 -6 27
v -36 -8 27
v -39 -23 27
v -32 -37 27
v -37 -6 40
v -27 -6 40
v -35 -26 42
v -41 -26 42
v -45 -23 42
v -52 -19 42
v -53 -6 42
v -52 9 42
v -45 15 42
v -41 16 42
v -35 15 42
v -31 8 42
v -27 -6 44
v -31 -19 42
v -34 -17 44
v -41 -18 44
v -44 -9 44
v -44 1 44
v -40 4 44
v -35 3 44
v -37 -6 44
v -29 -30 61
v -13 -17 62
v -16 -47 64
v -22 -53 64
v -28 -54 64
v -37 -54 64
v -43 -42 64
v -47 -25 64
v -42 -13 64
v -36 -6 64
v -28 -3 64
v -21 -6 64
v -12 -17 66
v -12 -35 64
v -18 -41 66
v -25 -43 66
v -33 -38 66
v -35 -26 66
v -31 -18 66
v -25 -15 66
v -24 -26 66
v -16 -32 66
v -12 -6 80
v 16 -16 81
v -8 -34 83
v -20 -30 83
v -29 -23 83
v -38 -13 83
v -37 2 83
v -29 18 83
v -14 20 83
v -3 19 83
v 7 13 83
v 15 1 83
v 17 -16 85
v 4 -29 83
v -10 -24 85
v -21 -14 85
v -22 -3 85
v -12 4 85
v -5 5 85
v 4 -1 85
v -3 -9 85
v 2 -23 85
v -18 13 91
v 6 5 92
v -15 -10 93
v -24 -7 93
v -32 -1 93
v -39 7 93
v -38 19 93
v -32 33 93
v -19 34 93
v -11 34 93
v -2 28 93
v 5 18 93
v 6 5 94
v -5 -6 93
v -10 -2 94
v -21 1 94
v -26 9 94
v -23 18 94
v -13 21 94
v -4 16 94
v -11 11 94
v 13 -28 96
v 38 -36 97
v 17 -51 98
v 8 -48 98
v 0 -42 98
v -7 -34 98
v -6 -22 98
v 0 -8 98
v 13 -7 98
v 21 -7 98
v 30 -13 98
v 37 -23 98
v 38 -36 99
v 27 -47 98
v 22 -43 99
v 10 -39 99
v 6 -29 99
v 11 -20 99
v 18 -19 99
v 27 -24 99
v 21 -30 99
v 17 22 102
v 42 14 103
v 21 -1 104
v 12 2 104
v 4 8 104
v -3 16 104
v -2 28 104
v 4 42 104
v 17 43 104
v 25 43 104
v 34 37 104
v 41 27 104
v 42 14 105
v 31 3 104
v 22 5 105
v 14 10 105
v 10 21 105
v 15 30 105
v 22 30 105
v 31 25 105
v 25 20 105
v 30 8 105
v -25 36 69
v -8 30 69
v -29 15 70
v -38 18 70
v -46 24 70
v -53 32 70
v -52 44 70
v -46 58 70
v -33 59 70
v -25 59 70
v -16 53 70
v -9 43 70
v -8 30 71
v -19 19 70
v -28 21 71
v -35 26 71
v -40 37 71
v -35 46 71
v -27 46 71
v -18 41 71
v -25 36 71
v -20 24 71
v 63 -61 111
v 64 66 110
v -58 -61 0

f 1 2 3
f 1 3 4
f 1 4 5
f 1 5 6
f 1 6 7
f 1 7 2
f 8 4 3
f 8 3 9
f 9 3 10
f 9 10 11
f 5 12 13
f 5 13 6
f 14 12 15
f 14 15 16
f 17 18 4
f 17 4 8
f 19 12 18
f 19 18 20
f 20 18 17
f 10 3 2
f 18 5 4
f 5 18 12
f 14 13 12
f 19 15 12
f 21 22 23
f 21 23 24
f 21 24 25
f 21 25 26
f 21 26 27
f 21 27 28
f 21 28 29
f 21 29 30
f 21 30 31
f 21 31 32
f 21 32 22
f 22 32 33
f 22 33 34
f 22 34 23
f 23 34 35
f 23 35 24
f 24 35 36
f 24 36 25
f 25 36 26
f 26 36 37
f 26 37 27
f 27 37 28
f 28 37 29
f 29 37 38
f 29 38 30
f 30 38 39
f 30 39 31
f 31 39 32
f 32 39 33
f 33 39 40
f 33 40 41
f 33 41 34
f 34 41 35
f 35 41 40
f 35 40 36
f 36 40 37
f 37 40 38
f 38 40 39
f 42 43 44
f 42 44 45
f 42 45 46
f 42 46 47
f 42 47 48
f 42 48 49
f 42 49 50
f 42 50 51
f 42 51 52
f 42 52 53
f 42 53 43
f 43 53 54
f 43 54 55
f 43 55 44
f 44 55 56
f 44 56 57
f 44 57 45
f 45 57 46
f 46 57 58
f 46 58 47
f 47 58 48
f 48 58 49
f 49 58 59
f 49 59 50
f 50 59 60
f 50 60 51
f 51 60 61
f 51 61 52
f 52 61 53
f 53 61 54
f 54 61 62
f 54 62 63
f 54 63 55
f 55 63 56
f 56 63 62
f 56 62 57
f 57 62 58
f 58 62 59
f 59 62 60
f 60 62 61
f 64 65 66
f 64 66 67
f 64 67 68
f 64 68 69
f 64 69 70
f 64 70 71
f 64 71 72
f 64 72 73
f 64 73 74
f 64 74 75
f 64 75 65
f 65 75 76
f 65 76 77
f 65 77 66
f 66 77 78
f 66 78 79
f 66 79 67
f 67 79 68
f 68 79 80
f 68 80 69
f 69 80 70
f 70 80 71
f 71 80 81
f 71 81 72
f 72 81 82
f 72 82 73
f 73 82 83
f 73 83 74
f 74 83 75
f 75 83 76
f 76 83 84
f 76 84 78
f 76 78 77
f 81 80 84
f 81 84 82
f 82 84 83
f 84 80 79
f 84 79 78
f 85 86 87
f 85 87 88
f 85 88 89
f 85 89 90
f 85 90 91
f 85 91 92
f 85 92 93
f 85 93 94
f 85 94 95
f 85 95 96
f 85 96 86
f 86 96 97
f 86 97 98
f 86 98 87
f 87 98 99
f 87 99 100
f 87 100 88
f 88 100 89
f 89 100 101
f 89 101 90
f 90 101 91
f 91 101 92
f 92 101 102
f 92 102 93
f 93 102 103
f 93 103 94
f 94 103 104
f 94 104 95
f 95 104 96
f 96 104 97
f 97 104 105
f 97 105 106
f 97 106 98
f 98 106 99
f 99 106 105
f 99 105 100
f 100 105 101
f 101 105 102
f 102 105 103
f 103 105 104
f 107 108 109
f 107 109 110
f 107 110 111
f 107 111 112
f 107 112 113
f 107 113 114
f 107 114 115
f 107 115 116
f 107 116 117
f 107 117 118
f 107 118 108
f 108 118 119
f 108 119 120
f 108 120 109
f 109 120 121
f 109 121 110
f 110 121 122
f 110 122 111
f 111 122 112
f 112 122 123
f 112 123 113
f 113 123 114
f 114 123 124
f 114 124 115
f 115 124 125
f 115 125 116
f 116 125 126
f 116 126 117
f 117 126 118
f 118 126 119
f 119 126 127
f 119 127 128
f 119 128 120
f 120 128 121
f 121 128 127
f 121 127 122
f 122 127 123
f 123 127 124
f 124 127 125
f 125 127 126
f 129 130 131
f 129 131 132
f 129 132 133
f 129 133 134
f 129 134 135
f 129 135 136
f 129 136 137
f 129 137 138
f 129 138 139
f 129 139 140
f 129 140 130
f 130 140 141
f 130 141 142
f 130 142 131
f 131 142 143
f 131 143 144
f 131 144 132
f 132 144 133
f 133 144 145
f 133 145 134
f 134 145 146
f 134 146 135
f 135 146 136
f 136 146 137
f 137 146 147
f 137 147 138
f 138 147 148
f 138 148 139
f 139 148 140
f 140 148 141
f 141 148 149
f 141 149 143
f 141 143 142
f 147 146 149
f 147 149 148
f 149 145 144
f 149 144 143
f 149 146 145
f 150 151 152
f 150 152 153
f 150 153 154
f 150 154 155
f 150 155 156
f 150 156 157
f 150 157 158
f 150 158 159
f 150 159 160
f 150 160 161
f 150 161 151
f 151 161 162
f 151 162 163
f 151 163 152
f 152 163 164
f 152 164 165
f 152 165 153
f 153 165 154
f 154 165 166
f 154 166 155
f 155 166 156
f 156 166 157
f 157 166 167
f 157 167 158
f 158 167 168
f 158 168 159
f 159 168 169
f 159 169 160
f 160 169 161
f 161 169 162
f 162 169 170
f 162 170 164
f 162 164 163
f 167 166 170
f 167 170 168
f 168 170 169
f 170 166 165
f 170 165 164
f 171 172 173
f 171 173 174
f 171 174 175
f 171 175 176
f 171 176 177
f 171 177 178
f 171 178 179
f 171 179 180
f 171 180 181
f 171 181 182
f 171 182 172
f 172 182 183
f 172 183 184
f 172 184 173
f 173 184 185
f 173 185 186
f 173 186 174
f 174 186 175
f 175 186 187
f 175 187 176
f 176 187 177
f 177 187 178
f 178 187 188
f 178 188 179
f 179 188 189
f 179 189 180
f 180 189 190
f 180 190 181
f 181 190 182
f 182 190 183
f 183 190 191
f 183 191 192
f 183 192 184
f 184 192 185
f 185 192 191
f 185 191 186
f 186 191 187
f 187 191 188
f 188 191 189
f 189 191 190
f 193 194 195
f 193 195 196
f 193 196 197
f 193 197 198
f 193 198 199
f 193 199 200
f 193 200 201
f 193 201 202
f 193 202 203
f 193 203 204
f 193 204 194
f 194 204 205
f 194 205 206
f 194 206 195
f 195 206 207
f 195 207 208
f 195 208 196
f 196 208 197
f 197 208 209
f 197 209 198
f 198 209 199
f 199 209 200
f 200 209 210
f 200 210 201
f 201 210 211
f 201 211 202
f 202 211 212
f 202 212 203
f 203 212 204
f 204 212 205
f 205 212 213
f 205 213 214
f 205 214 206
f 206 214 207
f 207 214 213
f 207 213 208
f 208 213 209
f 209 213 210
f 210 213 211
f 211 213 212
