# RS2 Model 13757
# Vertices: 146
# Faces: 247

v -30 64 110
v -23 45 117
v 30 64 110
v 45 45 132
v 64 64 98
v 64 30 110
v 58 -9 132
v 64 -30 110
v 30 -64 110
v 64 -64 98
v -42 -46 115
v -47 -9 116
v -64 -30 110
v -64 -64 98
v -30 -64 110
v 18 -55 121
v -3 -41 133
v -32 -34 129
v -35 -4 128
v -18 22 138
v -64 30 110
v 45 -26 149
v 36 -23 180
v 11 -33 180
v -8 -25 171
v -15 -3 172
v -5 -6 176
v 43 21 152
v 49 -11 150
v 32 1 174
v -64 64 98
v -50 -21 132
v -34 -22 131
v -45 -55 135
v -50 -55 135
v -56 -49 136
v -63 -42 137
v -64 -21 137
v -62 3 139
v -55 13 138
v -49 14 136
v -45 12 136
v -39 1 135
v -36 -22 137
v -40 -44 133
v -47 -46 137
v -53 -36 138
v -55 -15 139
v -50 -5 139
v -45 -7 138
v -47 -22 138
v -43 -36 137
v -35 37 136
v -25 17 130
v -57 10 125
v -62 20 127
v -61 30 131
v -61 42 137
v -46 55 147
v -27 64 155
v -15 59 155
v -10 53 154
v -7 44 150
v -11 32 145
v -25 14 136
v -46 10 127
v -52 18 132
v -53 29 137
v -44 39 143
v -31 46 150
v -23 42 150
v -21 33 146
v -33 29 141
v -42 15 133
v -31 -40 151
v -43 -23 148
v -13 -30 147
v -8 -36 149
v -9 -42 150
v -9 -50 153
v -22 -55 156
v -38 -55 159
v -50 -49 158
v -55 -42 157
v -57 -34 155
v -54 -28 153
v -42 -21 151
v -25 -24 147
v -19 -30 150
v -17 -37 152
v -21 -41 154
v -31 -44 156
v -42 -38 156
v -45 -32 155
v -33 -33 154
v -28 -27 151
v -42 -7 158
v -18 -13 148
v -35 -34 159
v -45 -31 163
v -52 -26 167
v -61 -18 170
v -62 -2 170
v -58 14 168
v -46 19 162
v -37 19 158
v -29 15 154
v -21 4 150
v -17 -13 151
v -26 -28 154
v -34 -26 160
v -43 -21 164
v -48 -13 166
v -47 -1 165
v -37 4 160
v -28 0 156
v -34 -8 159
v -28 -22 157
v -38 -9 175
v -15 -17 167
v -34 -32 174
v -43 -29 177
v -50 -23 180
v -56 -15 182
v -56 -3 181
v -50 11 180
v -38 12 176
v -30 12 174
v -22 6 170
v -15 -4 168
v -14 -17 169
v -24 -28 172
v -35 -24 176
v -42 -19 179
v -45 -10 179
v -39 -1 178
v -32 0 175
v -23 -5 172
v -30 -11 175
v -25 -23 173
v -62 -72 103
v 61 -72 131
v -61 78 95
v 75 57 103
v -8 60 192
v 58 -67 88

f 1 2 3
f 3 2 4
f 3 4 5
f 5 4 6
f 6 4 7
f 6 7 8
f 8 7 9
f 8 9 10
f 11 12 13
f 11 13 14
f 11 14 15
f 11 15 16
f 11 16 17
f 11 17 18
f 11 18 12
f 12 18 19
f 12 19 20
f 12 20 2
f 12 2 21
f 12 21 13
f 16 15 9
f 16 9 7
f 16 7 22
f 16 22 17
f 17 22 23
f 17 23 24
f 17 24 25
f 17 25 18
f 18 25 19
f 19 25 26
f 19 26 20
f 20 26 27
f 20 27 28
f 20 28 2
f 2 28 4
f 4 28 29
f 4 29 7
f 7 29 22
f 22 29 23
f 23 29 30
f 23 30 27
f 23 27 24
f 24 27 25
f 25 27 26
f 21 2 1
f 21 1 31
f 28 27 30
f 28 30 29
f 32 33 34
f 32 34 35
f 32 35 36
f 32 36 37
f 32 37 38
f 32 38 39
f 32 39 40
f 32 40 41
f 32 41 42
f 32 42 43
f 32 43 33
f 33 43 44
f 33 44 45
f 33 45 34
f 34 45 46
f 34 46 47
f 34 47 35
f 35 47 36
f 36 47 37
f 37 47 48
f 37 48 38
f 38 48 39
f 39 48 40
f 40 48 49
f 40 49 41
f 41 49 50
f 41 50 42
f 42 50 43
f 43 50 44
f 44 50 51
f 44 51 52
f 44 52 45
f 45 52 46
f 46 52 51
f 46 51 47
f 47 51 48
f 48 51 49
f 49 51 50
f 53 54 55
f 53 55 56
f 53 56 57
f 53 57 58
f 53 58 59
f 53 59 60
f 53 60 61
f 53 61 62
f 53 62 63
f 53 63 64
f 53 64 54
f 54 64 65
f 54 65 66
f 54 66 55
f 55 66 67
f 55 67 56
f 56 67 68
f 56 68 57
f 57 68 69
f 57 69 58
f 58 69 59
f 59 69 60
f 60 69 70
f 60 70 61
f 61 70 71
f 61 71 62
f 62 71 72
f 62 72 63
f 63 72 64
f 64 72 65
f 65 72 73
f 65 73 74
f 65 74 66
f 66 74 67
f 67 74 73
f 67 73 68
f 68 73 69
f 69 73 70
f 70 73 71
f 71 73 72
f 75 76 77
f 75 77 78
f 75 78 79
f 75 79 80
f 75 80 81
f 75 81 82
f 75 82 83
f 75 83 84
f 75 84 85
f 75 85 86
f 75 86 76
f 76 86 87
f 76 87 88
f 76 88 77
f 77 88 89
f 77 89 90
f 77 90 78
f 78 90 79
f 79 90 91
f 79 91 80
f 80 91 92
f 80 92 81
f 81 92 82
f 82 92 83
f 83 92 93
f 83 93 84
f 84 93 94
f 84 94 85
f 85 94 86
f 86 94 87
f 87 94 95
f 87 95 96
f 87 96 88
f 88 96 89
f 89 96 95
f 89 95 90
f 90 95 91
f 91 95 92
f 92 95 93
f 93 95 94
f 97 98 99
f 97 99 100
f 97 100 101
f 97 101 102
f 97 102 103
f 97 103 104
f 97 104 105
f 97 105 106
f 97 106 107
f 97 107 108
f 97 108 98
f 98 108 109
f 98 109 110
f 98 110 99
f 99 110 111
f 99 111 112
f 99 112 100
f 100 112 101
f 101 112 113
f 101 113 102
f 102 113 114
f 102 114 103
f 103 114 104
f 104 114 105
f 105 114 115
f 105 115 106
f 106 115 116
f 106 116 107
f 107 116 108
f 108 116 109
f 109 116 117
f 109 117 118
f 109 118 110
f 110 118 111
f 111 118 117
f 111 117 112
f 112 117 113
f 113 117 114
f 114 117 115
f 115 117 116
f 119 120 121
f 119 121 122
f 119 122 123
f 119 123 124
f 119 124 125
f 119 125 126
f 119 126 127
f 119 127 128
f 119 128 129
f 119 129 130
f 119 130 120
f 120 130 131
f 120 131 132
f 120 132 121
f 121 132 133
f 121 133 122
f 122 133 134
f 122 134 123
f 123 134 135
f 123 135 124
f 124 135 125
f 125 135 126
f 126 135 136
f 126 136 127
f 127 136 137
f 127 137 128
f 128 137 138
f 128 138 129
f 129 138 130
f 130 138 131
f 131 138 139
f 131 139 140
f 131 140 132
f 132 140 133
f 133 140 139
f 133 139 134
f 134 139 135
f 135 139 136
f 136 139 137
f 137 139 138
f 141 142 143
