# RS2 Model 13759
# Vertices: 321
# Faces: 443

v 18 -15 19
v 14 -17 23
v 8 -11 26
v 14 -8 23
v 21 -13 27
v 19 -17 31
v 15 -24 52
v 1 -22 41
v -12 -10 41
v 2 -18 47
v 1 -28 61
v 8 -32 64
v 4 -32 60
v -15 -21 54
v -22 -18 49
v -24 -14 51
v -33 -23 57
v -32 -27 60
v -25 -30 63
v 1 -40 73
v 6 -38 71
v -5 -37 68
v -6 -50 74
v -5 -50 76
v -7 -62 80
v 4 -52 78
v 9 -52 79
v 0 -51 78
v -3 -59 78
v -13 -50 75
v -13 -58 76
v 8 -62 80
v -44 -35 61
v -39 -38 63
v -37 -39 64
v -43 -47 66
v -33 -40 65
v -31 -43 67
v -27 -43 67
v -33 -51 69
v -52 -40 60
v -43 -51 69
v 39 17 78
v 64 64 98
v 24 42 78
v 15 35 53
v 22 -6 53
v 64 11 78
v -14 64 53
v 11 64 78
v 9 -16 10
v 64 -14 53
v 64 -24 10
v -3 -31 0
v 64 -49 0
v -24 64 10
v 7 30 10
v -15 17 0
v -49 64 0
v 15 21 20
v 3 19 31
v -2 28 26
v 11 27 15
v 15 32 21
v 2 34 33
v -9 42 51
v -10 24 50
v -9 7 50
v -14 26 44
v -24 40 60
v -21 45 63
v -20 35 62
v -25 6 58
v -19 12 61
v -20 3 60
v -34 -3 67
v -39 1 70
v -37 11 68
v -46 -8 74
v -46 -14 73
v -55 -17 72
v -29 48 68
v -33 45 71
v -34 38 69
v -38 56 73
v -39 50 74
v -40 47 76
v -51 50 74
v -41 42 74
v -42 40 74
v -46 35 75
v -55 40 75
v -46 62 74
v -57 49 75
v -46 3 75
v -46 -1 73
v -46 8 74
v -58 8 75
v -47 -4 73
v -58 -4 75
v -62 1 77
v 21 1 30
v 10 -1 42
v 6 7 45
v 21 8 35
v 25 1 38
v 14 -4 50
v 7 -11 69
v -5 -3 59
v -12 13 61
v -2 0 65
v -8 -11 78
v -3 -18 81
v -6 -16 77
v -20 2 72
v -25 8 68
v -25 12 70
v -37 7 76
v -38 2 78
v -33 -4 80
v -13 -23 88
v -6 -23 87
v -17 -18 85
v -23 -30 89
v -21 -31 90
v -28 -42 93
v -14 -36 92
v -9 -38 92
v -17 -34 92
v -24 -40 91
v -29 -28 90
v -33 -35 89
v -14 -47 92
v -52 -1 78
v -49 -5 80
v -46 -7 81
v -55 -12 82
v -44 -10 82
v -43 -14 83
v -40 -15 83
v -48 -21 84
v -61 -2 77
v -57 -17 84
v 9 33 32
v -1 36 44
v -1 44 49
v 13 38 39
v 12 29 39
v -1 30 51
v -12 24 69
v -17 40 61
v -15 53 66
v -13 39 68
v -24 31 79
v -25 23 80
v -26 27 76
v -26 50 76
v -27 55 74
v -25 57 77
v -37 58 82
v -41 55 84
v -40 51 84
v -37 23 86
v -31 19 85
v -36 30 84
v -48 23 87
v -48 21 88
v -60 16 88
v -46 13 88
v -42 8 88
v -47 16 88
v -55 15 87
v -52 29 88
v -59 25 87
v -52 4 86
v -54 62 84
v -54 60 85
v -53 57 85
v -64 58 86
v -53 53 85
v -54 49 86
v -53 46 85
v -63 46 86
v -63 62 83
v -63 53 87
v 32 11 58
v 30 -1 69
v 23 -1 75
v 29 14 66
v 37 13 66
v 37 -2 75
v 45 -16 91
v 28 -19 84
v 16 -18 90
v 30 -15 91
v 39 -29 99
v 46 -30 99
v 42 -31 96
v 19 -30 99
v 13 -31 96
v 12 -29 100
v 12 -42 103
v 14 -47 104
v 18 -46 104
v 46 -43 104
v 50 -38 103
v 39 -42 103
v 43 -53 102
v 46 -51 103
v 49 -63 102
v 53 -49 102
v 59 -45 102
v 51 -50 103
v 52 -59 101
v 38 -55 104
v 40 -62 101
v 62 -55 98
v 7 -58 103
v 9 -59 104
v 12 -58 104
v 11 -69 103
v 16 -58 103
v 20 -60 103
v 23 -58 102
v 22 -68 102
v 6 -67 101
v 17 -65 103
v 24 13 56
v 18 19 70
v 25 20 78
v 27 9 63
v 19 7 61
v 11 16 74
v -4 18 90
v 10 29 90
v 20 31 99
v 9 23 95
v -6 27 103
v -13 27 101
v -9 30 100
v 10 36 109
v 16 40 109
v 17 38 112
v 10 48 119
v 6 50 120
v 2 48 118
v -21 35 109
v -21 29 105
v -14 38 110
v -26 46 111
v -27 44 111
v -36 53 112
v -33 39 107
v -36 34 105
v -31 41 109
v -35 48 109
v -23 50 115
v -27 56 114
v -41 44 103
v -45 42 103
v 12 58 125
v 11 57 125
v 8 55 124
v 4 60 126
v 4 53 122
v 0 53 122
v -2 51 119
v -6 59 121
v 10 62 125
v -1 62 127
v 31 31 79
v 32 31 95
v 30 22 100
v 26 25 75
v 22 33 76
v 26 36 100
v 20 41 119
v 32 30 119
v 32 17 123
v 24 29 121
v 22 39 135
v 22 44 136
v 26 41 135
v 32 22 137
v 36 17 136
v 34 15 138
v 40 18 150
v 40 21 154
v 39 25 153
v 26 49 148
v 21 50 143
v 29 41 147
v 35 53 156
v 32 54 157
v 39 62 163
v 24 55 153
v 21 59 150
v 26 52 155
v 30 61 160
v 36 48 160
v 42 53 164
v 23 62 155
v 51 19 162
v 50 20 163
v 48 23 163
v 55 26 170
v 46 27 161
v 46 31 162
v 44 34 161
v 50 37 167
v 58 21 167
v 56 30 173
v 87 -2 117
v 34 110 87
v 11 -69 13
v 80 53 106
v -35 75 108
v 61 -50 -2
v 83 26 95
v 23 114 110
v 1 -16 -9

f 1 2 3
f 1 3 4
f 1 4 5
f 1 5 2
f 2 5 6
f 2 6 7
f 2 7 8
f 2 8 3
f 3 8 9
f 3 9 10
f 3 10 6
f 3 6 4
f 4 6 5
f 10 7 6
f 7 10 11
f 7 11 12
f 7 12 8
f 8 12 13
f 8 13 11
f 8 11 10
f 8 10 14
f 8 14 15
f 8 15 9
f 9 15 16
f 9 16 10
f 10 16 14
f 14 16 17
f 14 17 18
f 14 18 19
f 14 19 18
f 14 18 15
f 15 18 17
f 15 17 16
f 20 21 12
f 20 12 11
f 20 11 22
f 20 22 23
f 20 23 24
f 24 23 25
f 22 11 13
f 22 13 20
f 20 13 12
f 20 12 21
f 26 27 21
f 26 21 20
f 26 20 28
f 26 28 29
f 30 23 22
f 23 30 31
f 32 27 26
f 18 17 33
f 18 33 34
f 18 34 35
f 35 34 36
f 19 18 37
f 19 37 38
f 19 38 39
f 39 38 40
f 34 33 41
f 38 37 42
f 43 44 45
f 43 45 46
f 43 46 47
f 43 47 48
f 43 48 44
f 49 46 45
f 49 45 50
f 50 45 44
f 47 51 52
f 47 52 48
f 53 51 54
f 53 54 55
f 56 57 46
f 56 46 49
f 58 51 57
f 58 57 59
f 59 57 56
f 57 47 46
f 47 57 51
f 53 52 51
f 58 54 51
f 60 61 62
f 60 62 63
f 60 63 64
f 60 64 61
f 61 64 65
f 61 65 66
f 61 66 67
f 61 67 68
f 61 68 62
f 62 68 69
f 62 69 65
f 62 65 63
f 63 65 64
f 65 69 66
f 66 69 70
f 66 70 71
f 66 71 67
f 67 71 72
f 67 72 69
f 67 69 73
f 67 73 74
f 67 74 68
f 68 74 75
f 68 75 69
f 69 75 73
f 73 75 76
f 73 76 77
f 73 77 78
f 73 78 74
f 74 78 77
f 74 77 75
f 75 77 76
f 76 77 79
f 76 79 80
f 80 79 81
f 72 71 82
f 72 82 83
f 72 83 84
f 72 84 70
f 72 70 69
f 83 82 85
f 83 85 86
f 83 86 87
f 87 86 88
f 84 83 89
f 84 89 90
f 84 90 91
f 91 90 92
f 86 85 93
f 90 89 94
f 95 96 77
f 95 77 78
f 95 78 97
f 95 97 98
f 99 79 77
f 79 99 100
f 101 96 95
f 70 84 83
f 70 83 82
f 70 82 71
f 102 103 104
f 102 104 105
f 102 105 106
f 102 106 103
f 103 106 107
f 103 107 108
f 103 108 109
f 103 109 104
f 104 109 110
f 104 110 111
f 104 111 107
f 104 107 105
f 105 107 106
f 111 108 107
f 108 111 112
f 108 112 113
f 108 113 109
f 109 113 114
f 109 114 112
f 109 112 111
f 109 111 115
f 109 115 116
f 109 116 110
f 110 116 117
f 110 117 111
f 111 117 115
f 115 117 118
f 115 118 119
f 115 119 120
f 115 120 119
f 115 119 116
f 116 119 118
f 116 118 117
f 121 122 113
f 121 113 112
f 121 112 123
f 121 123 124
f 121 124 125
f 125 124 126
f 123 112 114
f 123 114 121
f 121 114 113
f 121 113 122
f 127 128 122
f 127 122 121
f 127 121 129
f 127 129 130
f 131 124 123
f 124 131 132
f 133 128 127
f 119 118 134
f 119 134 135
f 119 135 136
f 136 135 137
f 120 119 138
f 120 138 139
f 120 139 140
f 140 139 141
f 135 134 142
f 139 138 143
f 144 145 146
f 144 146 147
f 144 147 148
f 144 148 145
f 145 148 149
f 145 149 150
f 145 150 151
f 145 151 146
f 146 151 152
f 146 152 153
f 146 153 149
f 146 149 147
f 147 149 148
f 153 150 149
f 150 153 154
f 150 154 155
f 150 155 151
f 151 155 156
f 151 156 154
f 151 154 153
f 151 153 157
f 151 157 158
f 151 158 152
f 152 158 159
f 152 159 153
f 153 159 157
f 157 159 160
f 157 160 161
f 157 161 162
f 157 162 161
f 157 161 158
f 158 161 160
f 158 160 159
f 163 164 155
f 163 155 154
f 163 154 165
f 163 165 166
f 163 166 167
f 167 166 168
f 165 154 156
f 165 156 163
f 163 156 155
f 163 155 164
f 169 170 164
f 169 164 163
f 169 163 171
f 169 171 172
f 173 166 165
f 166 173 174
f 175 170 169
f 161 160 176
f 161 176 177
f 161 177 178
f 178 177 179
f 162 161 180
f 162 180 181
f 162 181 182
f 182 181 183
f 177 176 184
f 181 180 185
f 186 187 188
f 186 188 189
f 186 189 190
f 186 190 187
f 187 190 191
f 187 191 192
f 187 192 193
f 187 193 188
f 188 193 194
f 188 194 195
f 188 195 191
f 188 191 189
f 189 191 190
f 195 192 191
f 192 195 196
f 192 196 197
f 192 197 193
f 193 197 198
f 193 198 196
f 193 196 195
f 193 195 199
f 193 199 200
f 193 200 194
f 194 200 201
f 194 201 195
f 195 201 199
f 199 201 202
f 199 202 203
f 199 203 204
f 199 204 203
f 199 203 200
f 200 203 202
f 200 202 201
f 205 206 197
f 205 197 196
f 205 196 207
f 205 207 208
f 205 208 209
f 209 208 210
f 207 196 198
f 207 198 205
f 205 198 197
f 205 197 206
f 211 212 206
f 211 206 205
f 211 205 213
f 211 213 214
f 215 208 207
f 208 215 216
f 217 212 211
f 203 202 218
f 203 218 219
f 203 219 220
f 220 219 221
f 204 203 222
f 204 222 223
f 204 223 224
f 224 223 225
f 219 218 226
f 223 222 227
f 228 229 230
f 228 230 231
f 228 231 232
f 228 232 229
f 229 232 233
f 229 233 234
f 229 234 235
f 229 235 230
f 230 235 236
f 230 236 237
f 230 237 233
f 230 233 231
f 231 233 232
f 237 234 233
f 234 237 238
f 234 238 239
f 234 239 235
f 235 239 240
f 235 240 238
f 235 238 237
f 235 237 241
f 235 241 242
f 235 242 236
f 236 242 243
f 236 243 237
f 237 243 241
f 241 243 244
f 241 244 245
f 241 245 246
f 241 246 245
f 241 245 242
f 242 245 244
f 242 244 243
f 247 248 239
f 247 239 238
f 247 238 249
f 247 249 250
f 247 250 251
f 251 250 252
f 249 238 240
f 249 240 247
f 247 240 239
f 247 239 248
f 253 254 248
f 253 248 247
f 253 247 255
f 253 255 256
f 257 250 249
f 250 257 258
f 259 260 254
f 259 254 253
f 245 244 261
f 245 261 262
f 245 262 263
f 263 262 264
f 246 245 265
f 246 265 266
f 246 266 267
f 267 266 268
f 262 261 269
f 266 265 270
f 271 272 273
f 271 273 274
f 271 274 275
f 271 275 272
f 272 275 276
f 272 276 277
f 272 277 278
f 272 278 273
f 273 278 279
f 273 279 280
f 273 280 276
f 273 276 274
f 274 276 275
f 280 277 276
f 277 280 281
f 277 281 282
f 277 282 278
f 278 282 283
f 278 283 281
f 278 281 280
f 278 280 284
f 278 284 285
f 278 285 279
f 279 285 286
f 279 286 280
f 280 286 284
f 284 286 287
f 284 287 288
f 284 288 289
f 284 289 288
f 284 288 285
f 285 288 287
f 285 287 286
f 290 291 282
f 290 282 281
f 290 281 292
f 290 292 293
f 290 293 294
f 294 293 295
f 292 281 283
f 292 283 290
f 290 283 282
f 290 282 291
f 296 297 291
f 296 291 290
f 296 290 298
f 296 298 299
f 300 293 292
f 293 300 301
f 302 297 296
f 288 287 303
f 288 303 304
f 288 304 305
f 305 304 306
f 289 288 307
f 289 307 308
f 289 308 309
f 309 308 310
f 304 303 311
f 308 307 312
f 313 314 315
