# RS2 Model 13756
# Vertices: 169
# Faces: 298

v -30 64 110
v -23 45 117
v 30 64 110
v 30 45 129
v 64 64 98
v 64 30 110
v 43 -9 129
v 64 -30 110
v 30 -64 110
v 64 -64 98
v -42 -46 115
v -47 -9 116
v -64 -30 110
v -64 -64 98
v -30 -64 110
v 18 -55 121
v -3 -41 133
v -32 -34 129
v -35 -4 128
v -18 36 128
v -64 30 110
v 19 -27 138
v 14 -23 143
v 0 -33 144
v -18 -25 139
v -26 -3 138
v -15 14 139
v 15 38 138
v 31 4 138
v 10 25 142
v -64 64 98
v -43 -23 138
v -54 -22 143
v -37 11 140
v -31 0 136
v -30 -23 129
v -40 -56 139
v -46 -56 143
v -53 -50 147
v -61 -43 152
v -62 -22 153
v -58 2 153
v -49 12 148
v -42 13 143
v -38 -6 143
v -35 -10 141
v -26 -23 135
v -34 -45 135
v -39 -47 142
v -43 -44 145
v -46 -40 147
v -49 -32 149
v -50 -22 150
v -47 -10 149
v -42 -7 146
v -41 -5 145
v -40 -23 143
v -34 -37 140
v 52 0 146
v 37 0 140
v 53 37 150
v 61 25 153
v 69 0 151
v 54 -38 151
v 43 -39 147
v 35 -33 144
v 24 -25 141
v 21 0 140
v 24 26 141
v 35 37 144
v 43 39 147
v 51 18 153
v 55 14 154
v 68 0 158
v 61 -26 153
v 51 -28 153
v 45 -25 151
v 39 -22 149
v 35 -12 148
v 34 0 147
v 35 13 148
v 42 17 150
v 45 20 151
v 50 0 152
v 57 -17 155
v -13 -17 147
v -22 -27 149
v -23 4 152
v -16 4 150
v -7 -4 145
v 0 -34 144
v -4 -41 146
v -10 -43 147
v -17 -46 150
v -27 -37 153
v -34 -22 156
v -33 -9 155
v -30 -1 154
v -18 -7 153
v -15 -6 151
v -5 -4 148
v 0 -21 144
v -3 -29 147
v -8 -32 149
v -10 -34 150
v -14 -32 151
v -20 -28 153
v -23 -19 154
v -22 -13 154
v -20 -9 153
v -12 -17 151
v -4 -19 148
v -9 39 146
v -12 57 153
v 16 41 145
v 9 29 141
v -6 20 139
v -32 30 150
v -34 42 154
v -32 52 158
v -28 64 161
v -14 71 161
v 3 72 159
v 12 61 153
v 16 52 149
v 3 38 148
v 1 33 147
v -5 18 142
v -23 23 145
v -25 32 151
v -24 40 154
v -24 47 156
v -18 52 157
v -11 56 157
v -3 55 156
v 1 48 152
v 3 46 151
v -8 38 150
v -18 27 148
v 30 -18 156
v 18 -14 148
v 38 -1 161
v 44 -11 165
v 45 -24 164
v 27 -39 155
v 19 -36 150
v 12 -30 146
v 6 -22 143
v 7 -10 143
v 12 4 146
v 23 5 153
v 30 5 157
v 34 -11 160
v 36 -14 162
v 44 -24 166
v 35 -35 160
v 27 -33 156
v 23 -29 154
v 18 -26 151
v 16 -20 150
v 16 -14 150
v 21 -8 153
v 26 -8 156
v 29 -7 157
v 29 -18 158
v 34 -30 160
v 61 -67 124
v 61 60 129
v -66 -67 114

f 1 2 3
f 3 2 4
f 3 4 5
f 5 4 6
f 6 4 7
f 6 7 8
f 8 7 9
f 8 9 10
f 11 12 13
f 11 13 14
f 11 14 15
f 11 15 16
f 11 16 17
f 11 17 18
f 11 18 12
f 12 18 19
f 12 19 20
f 12 20 2
f 12 2 21
f 12 21 13
f 16 15 9
f 16 9 7
f 16 7 22
f 16 22 17
f 17 22 23
f 17 23 24
f 17 24 25
f 17 25 18
f 18 25 19
f 19 25 26
f 19 26 20
f 20 26 27
f 20 27 28
f 20 28 2
f 2 28 4
f 4 28 29
f 4 29 7
f 7 29 22
f 22 29 30
f 22 30 23
f 23 30 24
f 24 30 25
f 25 30 27
f 25 27 26
f 21 2 1
f 21 1 31
f 28 27 30
f 28 30 29
f 32 33 34
f 32 34 35
f 32 35 36
f 32 36 37
f 32 37 38
f 32 38 39
f 32 39 33
f 33 39 40
f 33 40 41
f 33 41 42
f 33 42 43
f 33 43 44
f 33 44 34
f 34 44 45
f 34 45 46
f 34 46 35
f 35 46 47
f 35 47 36
f 36 47 48
f 36 48 37
f 37 48 49
f 37 49 50
f 37 50 38
f 38 50 51
f 38 51 39
f 39 51 52
f 39 52 40
f 40 52 53
f 40 53 41
f 41 53 42
f 42 53 54
f 42 54 43
f 43 54 55
f 43 55 56
f 43 56 44
f 44 56 45
f 45 56 57
f 45 57 46
f 46 57 47
f 47 57 58
f 47 58 48
f 48 58 49
f 49 58 57
f 49 57 50
f 50 57 51
f 51 57 52
f 52 57 53
f 53 57 54
f 54 57 55
f 55 57 56
f 59 60 61
f 59 61 62
f 59 62 63
f 59 63 64
f 59 64 65
f 59 65 66
f 59 66 60
f 60 66 67
f 60 67 68
f 60 68 69
f 60 69 70
f 60 70 71
f 60 71 61
f 61 71 72
f 61 72 73
f 61 73 62
f 62 73 74
f 62 74 63
f 63 74 75
f 63 75 64
f 64 75 76
f 64 76 77
f 64 77 65
f 65 77 78
f 65 78 66
f 66 78 79
f 66 79 67
f 67 79 80
f 67 80 68
f 68 80 69
f 69 80 81
f 69 81 70
f 70 81 82
f 70 82 83
f 70 83 71
f 71 83 72
f 72 83 84
f 72 84 73
f 73 84 74
f 74 84 85
f 74 85 75
f 75 85 76
f 76 85 84
f 76 84 77
f 77 84 78
f 78 84 79
f 79 84 80
f 80 84 81
f 81 84 82
f 82 84 83
f 86 87 88
f 86 88 89
f 86 89 90
f 86 90 91
f 86 91 92
f 86 92 93
f 86 93 87
f 87 93 94
f 87 94 95
f 87 95 96
f 87 96 97
f 87 97 98
f 87 98 88
f 88 98 99
f 88 99 100
f 88 100 89
f 89 100 101
f 89 101 90
f 90 101 102
f 90 102 91
f 91 102 103
f 91 103 104
f 91 104 92
f 92 104 105
f 92 105 93
f 93 105 106
f 93 106 94
f 94 106 107
f 94 107 95
f 95 107 96
f 96 107 108
f 96 108 97
f 97 108 109
f 97 109 110
f 97 110 98
f 98 110 99
f 99 110 111
f 99 111 100
f 100 111 101
f 101 111 112
f 101 112 102
f 102 112 103
f 103 112 111
f 103 111 104
f 104 111 105
f 105 111 106
f 106 111 107
f 107 111 108
f 108 111 109
f 109 111 110
f 113 114 115
f 113 115 116
f 113 116 117
f 113 117 118
f 113 118 119
f 113 119 120
f 113 120 114
f 114 120 121
f 114 121 122
f 114 122 123
f 114 123 124
f 114 124 125
f 114 125 115
f 115 125 126
f 115 126 127
f 115 127 116
f 116 127 128
f 116 128 117
f 117 128 129
f 117 129 118
f 118 129 130
f 118 130 131
f 118 131 119
f 119 131 132
f 119 132 120
f 120 132 133
f 120 133 121
f 121 133 134
f 121 134 122
f 122 134 123
f 123 134 135
f 123 135 124
f 124 135 136
f 124 136 137
f 124 137 125
f 125 137 126
f 126 137 138
f 126 138 127
f 127 138 128
f 128 138 139
f 128 139 129
f 129 139 130
f 130 139 138
f 130 138 131
f 131 138 132
f 132 138 133
f 133 138 134
f 134 138 135
f 135 138 136
f 136 138 137
f 140 141 142
f 140 142 143
f 140 143 144
f 140 144 145
f 140 145 146
f 140 146 147
f 140 147 141
f 141 147 148
f 141 148 149
f 141 149 150
f 141 150 151
f 141 151 152
f 141 152 142
f 142 152 153
f 142 153 154
f 142 154 143
f 143 154 155
f 143 155 144
f 144 155 156
f 144 156 145
f 145 156 157
f 145 157 158
f 145 158 146
f 146 158 159
f 146 159 147
f 147 159 160
f 147 160 148
f 148 160 161
f 148 161 149
f 149 161 150
f 150 161 162
f 150 162 151
f 151 162 163
f 151 163 164
f 151 164 152
f 152 164 153
f 153 164 165
f 153 165 154
f 154 165 155
f 155 165 166
f 155 166 156
f 156 166 157
f 157 166 165
f 157 165 158
f 158 165 159
f 159 165 160
f 160 165 161
f 161 165 162
f 162 165 163
f 163 165 164
