# RS2 Model 13784
# Vertices: 23
# Faces: 24

v 21 -15 78
v 64 -30 110
v 1 28 78
v -24 28 53
v -7 -16 54
v 11 -64 78
v 64 -64 98
v -14 64 53
v 11 64 78
v 64 30 110
v 64 64 98
v -20 -15 11
v -14 -64 53
v -24 -64 10
v -43 -17 0
v -49 -64 0
v -24 64 10
v -34 28 10
v -59 28 0
v -49 64 0
v 64 -63 112
v 65 64 111
v -59 -63 0

f 1 2 3
f 1 3 4
f 1 4 5
f 1 5 6
f 1 6 7
f 1 7 2
f 8 4 3
f 8 3 9
f 9 3 10
f 9 10 11
f 5 12 13
f 5 13 6
f 14 12 15
f 14 15 16
f 17 18 4
f 17 4 8
f 19 12 18
f 19 18 20
f 20 18 17
f 10 3 2
f 18 5 4
f 5 18 12
f 14 13 12
f 19 15 12
