# RS2 Model 13812
# Vertices: 218
# Faces: 390

v 0 38 -161
v 0 33 -162
v 0 25 -155
v 0 34 -152
v 0 42 -159
v 0 40 -165
v 0 45 -163
v 0 38 -150
v 4 25 -152
v 5 13 -157
v 0 14 -160
v -4 25 -152
v -2 34 -151
v 0 47 -166
v 0 5 -165
v -6 -10 -162
v -5 5 -161
v 5 5 -161
v 6 -10 -162
v 0 -9 -166
v 0 -23 -164
v -3 -26 -160
v -10 -11 -159
v -10 -9 -160
v -11 0 -155
v -5 13 -157
v -7 11 -146
v -4 24 -149
v -2 34 -150
v 0 34 -149
v 0 40 -146
v 2 34 -150
v 2 34 -151
v 4 24 -149
v 7 11 -146
v 11 0 -155
v -11 -7 -154
v -11 -9 -154
v -11 -11 -150
v -10 -10 -149
v 0 2 -140
v -7 0 -143
v 0 -11 -141
v 0 -7 -136
v 0 1 -136
v 0 9 -140
v 0 24 -146
v -9 -14 -146
v 0 -17 -144
v 9 -14 -146
v 7 0 -143
v 0 -2 -133
v 0 7 -137
v 0 35 -139
v 0 45 -140
v 0 42 -136
v 0 45 -135
v 0 47 -137
v -8 -19 -157
v -8 -20 -154
v -9 -19 -156
v -10 -17 -156
v -10 -16 -157
v -10 -15 -154
v -9 -16 -151
v -5 -20 -149
v 0 -22 -148
v 5 -20 -149
v 8 -19 -151
v 9 -16 -151
v 11 -11 -150
v 10 -10 -149
v 0 -29 -160
v 0 -32 -157
v -5 -26 -158
v -8 -19 -151
v -9 -20 -154
v -10 -20 -154
v -10 -19 -155
v -11 -16 -154
v -10 -17 -152
v -9 -19 -152
v 0 -29 -154
v 5 -26 -158
v 8 -20 -154
v 9 -19 -152
v 10 -17 -152
v 11 -16 -154
v 10 -15 -154
v 11 -9 -154
v 11 -7 -154
v 10 -9 -160
v 10 -11 -159
v 3 -26 -160
v 0 -28 -162
v 0 -28 -161
v 0 -27 -160
v 0 8 -134
v -10 -19 -153
v -11 -18 -154
v -10 -11 -166
v -11 -7 -167
v -13 -3 -170
v -16 -12 -172
v -14 1 -176
v -17 -6 -175
v 10 -16 -157
v 8 -19 -157
v 0 9 -130
v 10 -17 -156
v 9 -19 -156
v 9 -20 -154
v 10 -20 -154
v 10 -19 -153
v 11 -18 -154
v 10 -19 -155
v 11 -7 -167
v 10 -11 -166
v 16 -12 -172
v 13 -3 -170
v 17 -6 -175
v 14 1 -176
v 2 -24 -138
v -3 -24 -138
v -1 -20 -141
v 1 -20 -141
v 1 -20 -135
v -1 -20 -135
v -3 -17 -139
v 2 -17 -139
v -2 -17 -124
v -1 -13 -125
v -5 -15 -128
v -5 -19 -128
v 3 -18 -127
v 2 -14 -128
v 0 -16 -133
v -1 -20 -131
v 3 -22 -115
v -3 -22 -115
v -2 -18 -119
v 2 -18 -119
v 2 -18 -111
v -2 -18 -111
v -3 -14 -115
v 3 -14 -115
v 2 -16 -100
v -3 -17 -106
v 0 -14 -108
v 4 -12 -104
v -2 -12 -97
v -4 -14 -100
v -3 -10 -105
v 2 -8 -100
v -1 -20 -84
v -6 -22 -89
v -2 -18 -92
v 2 -16 -88
v -4 -16 -82
v -8 -18 -86
v -6 -14 -89
v -1 -12 -84
v 1 -17 -70
v -4 -19 -75
v -1 -15 -76
v 2 -14 -73
v -2 -14 -68
v -6 -15 -72
v -4 -13 -75
v 1 -11 -70
v 2 -11 -127
v -3 -11 -127
v -1 -7 -130
v 1 -7 -130
v 1 -7 -124
v -1 -7 -124
v -3 -4 -128
v 2 -4 -128
v 3 12 -110
v -3 12 -110
v -2 16 -114
v 2 16 -114
v 2 16 -106
v -2 16 -106
v -3 20 -110
v 3 20 -110
v 2 31 -99
v -3 30 -105
v 0 33 -107
v 4 35 -103
v -2 35 -96
v -4 33 -99
v -3 37 -104
v 2 39 -99
v -1 45 -90
v -6 43 -95
v -2 47 -98
v 2 49 -94
v -4 49 -88
v -8 47 -92
v -6 51 -95
v -1 53 -90
v 1 58 -82
v -4 56 -87
v -1 60 -88
v 2 61 -85
v -2 61 -80
v -6 60 -84
v -4 62 -87
v 1 64 -82
v -2 -1 -115
v -1 3 -116
v -5 1 -119
v -5 -3 -119
v 3 -2 -118
v 2 2 -119
v 0 0 -124
v -1 -4 -122

f 1 2 3
f 1 3 4
f 1 4 5
f 1 5 6
f 1 6 2
f 1 2 6
f 1 6 7
f 1 7 5
f 1 5 8
f 1 8 4
f 1 4 2
f 2 4 3
f 3 4 9
f 3 9 10
f 3 10 11
f 3 11 12
f 3 12 13
f 3 13 4
f 4 13 8
f 4 8 5
f 6 5 7
f 6 7 14
f 6 14 7
f 15 16 17
f 15 17 11
f 15 11 18
f 15 18 19
f 15 19 20
f 15 20 16
f 16 20 21
f 16 21 22
f 16 22 23
f 16 23 24
f 16 24 17
f 17 24 25
f 17 25 26
f 17 26 11
f 11 26 12
f 12 26 27
f 12 27 28
f 12 28 29
f 12 29 13
f 13 29 8
f 8 29 30
f 8 30 31
f 8 31 30
f 8 30 32
f 8 32 33
f 8 33 4
f 4 33 9
f 9 33 32
f 9 32 34
f 9 34 35
f 9 35 10
f 10 35 36
f 10 36 18
f 10 18 11
f 37 24 23
f 37 23 38
f 37 38 39
f 37 39 40
f 37 40 25
f 37 25 24
f 41 27 42
f 41 42 43
f 41 43 44
f 41 44 45
f 41 45 46
f 41 46 27
f 27 46 47
f 27 47 28
f 28 47 30
f 28 30 29
f 25 42 27
f 25 27 26
f 42 48 43
f 43 48 49
f 43 49 50
f 43 50 51
f 43 51 41
f 43 41 45
f 43 45 44
f 44 45 52
f 44 52 45
f 45 52 53
f 45 53 46
f 46 53 41
f 46 41 35
f 46 35 34
f 46 34 47
f 47 34 32
f 47 32 30
f 47 30 54
f 47 54 30
f 30 54 31
f 30 31 54
f 54 31 55
f 54 55 31
f 55 54 56
f 55 56 57
f 55 57 58
f 55 58 56
f 55 56 54
f 59 22 60
f 59 60 61
f 59 61 62
f 59 62 63
f 59 63 22
f 22 63 23
f 23 63 64
f 23 64 38
f 38 64 65
f 38 65 39
f 39 65 48
f 39 48 40
f 40 48 42
f 40 42 25
f 49 48 66
f 49 66 67
f 49 67 68
f 49 68 50
f 50 68 69
f 50 69 70
f 50 70 71
f 50 71 72
f 50 72 51
f 51 72 36
f 51 36 35
f 51 35 41
f 22 73 74
f 22 74 75
f 22 75 60
f 60 75 66
f 60 66 76
f 60 76 77
f 60 77 61
f 61 77 78
f 61 78 79
f 61 79 62
f 62 79 80
f 62 80 63
f 63 80 64
f 64 80 81
f 64 81 65
f 65 81 82
f 65 82 76
f 65 76 48
f 48 76 66
f 67 66 75
f 67 75 83
f 67 83 84
f 67 84 68
f 68 84 85
f 68 85 69
f 69 85 86
f 69 86 87
f 69 87 70
f 70 87 88
f 70 88 89
f 70 89 90
f 70 90 71
f 71 90 91
f 71 91 72
f 72 91 36
f 36 91 92
f 36 92 18
f 18 92 19
f 19 92 93
f 19 93 94
f 19 94 20
f 20 94 21
f 21 94 95
f 21 95 22
f 22 95 96
f 22 96 97
f 22 97 73
f 73 97 94
f 73 94 74
f 74 94 84
f 74 84 83
f 74 83 75
f 52 98 53
f 53 98 45
f 53 45 41
f 76 82 77
f 77 82 99
f 77 99 78
f 78 99 100
f 78 100 79
f 79 100 80
f 80 100 81
f 81 100 99
f 81 99 82
f 101 16 102
f 101 102 103
f 101 103 104
f 101 104 102
f 101 102 16
f 105 106 104
f 105 104 103
f 105 103 106
f 106 103 104
f 104 103 102
f 93 92 91
f 93 91 90
f 93 90 89
f 93 89 107
f 93 107 94
f 94 107 108
f 94 108 85
f 94 85 84
f 45 98 52
f 52 98 109
f 52 109 98
f 56 58 57
f 97 96 94
f 94 96 95
f 89 88 110
f 89 110 107
f 107 110 111
f 107 111 108
f 108 111 112
f 108 112 85
f 85 112 86
f 86 112 113
f 86 113 114
f 86 114 87
f 87 114 88
f 88 114 115
f 88 115 110
f 110 115 116
f 110 116 111
f 111 116 112
f 112 116 113
f 113 116 115
f 113 115 114
f 117 19 118
f 117 118 119
f 117 119 120
f 117 120 118
f 117 118 19
f 120 119 121
f 120 121 122
f 120 122 119
f 120 119 118
f 122 121 119
f 123 124 125
f 123 125 126
f 123 126 127
f 123 127 124
f 124 127 128
f 124 128 129
f 124 129 125
f 125 129 126
f 126 129 130
f 126 130 127
f 127 130 128
f 128 130 129
f 131 132 133
f 131 133 134
f 131 134 135
f 131 135 132
f 132 135 136
f 132 136 137
f 132 137 133
f 133 137 134
f 134 137 138
f 134 138 135
f 135 138 136
f 136 138 137
f 139 140 141
f 139 141 142
f 139 142 143
f 139 143 140
f 140 143 144
f 140 144 145
f 140 145 141
f 141 145 142
f 142 145 146
f 142 146 143
f 143 146 144
f 144 146 145
f 147 148 149
f 147 149 150
f 147 150 151
f 147 151 148
f 148 151 152
f 148 152 153
f 148 153 149
f 149 153 150
f 150 153 154
f 150 154 151
f 151 154 152
f 152 154 153
f 155 156 157
f 155 157 158
f 155 158 159
f 155 159 156
f 156 159 160
f 156 160 161
f 156 161 157
f 157 161 158
f 158 161 162
f 158 162 159
f 159 162 160
f 160 162 161
f 163 164 165
f 163 165 166
f 163 166 167
f 163 167 164
f 164 167 168
f 164 168 169
f 164 169 165
f 165 169 166
f 166 169 170
f 166 170 167
f 167 170 168
f 168 170 169
f 171 172 173
f 171 173 174
f 171 174 175
f 171 175 172
f 172 175 176
f 172 176 177
f 172 177 173
f 173 177 174
f 174 177 178
f 174 178 175
f 175 178 176
f 176 178 177
f 179 180 181
f 179 181 182
f 179 182 183
f 179 183 180
f 180 183 184
f 180 184 185
f 180 185 181
f 181 185 182
f 182 185 186
f 182 186 183
f 183 186 184
f 184 186 185
f 187 188 189
f 187 189 190
f 187 190 191
f 187 191 188
f 188 191 192
f 188 192 193
f 188 193 189
f 189 193 190
f 190 193 194
f 190 194 191
f 191 194 192
f 192 194 193
f 195 196 197
f 195 197 198
f 195 198 199
f 195 199 196
f 196 199 200
f 196 200 201
f 196 201 197
f 197 201 198
f 198 201 202
f 198 202 199
f 199 202 200
f 200 202 201
f 203 204 205
f 203 205 206
f 203 206 207
f 203 207 204
f 204 207 208
f 204 208 209
f 204 209 205
f 205 209 206
f 206 209 210
f 206 210 207
f 207 210 208
f 208 210 209
f 211 212 213
f 211 213 214
f 211 214 215
f 211 215 212
f 212 215 216
f 212 216 217
f 212 217 213
f 213 217 214
f 214 217 218
f 214 218 215
f 215 218 216
f 216 218 217
