# RS2 Model 13908
# Vertices: 91
# Faces: 340

v 30 38 503
v 15 52 552
v -31 52 552
v -39 38 503
v 33 31 466
v 36 11 476
v 31 22 521
v -2 15 572
v 28 31 564
v -43 26 566
v -43 7 576
v -26 -14 587
v -2 -17 590
v 14 -12 585
v 30 1 579
v 34 13 573
v -44 16 518
v -45 -3 528
v -46 7 473
v -41 29 460
v -47 -10 480
v -48 -3 426
v -43 18 419
v -50 -20 427
v -51 -11 388
v -44 12 384
v -52 -28 378
v -53 -20 343
v -46 2 342
v -54 -36 340
v -55 -30 295
v -48 -8 300
v -57 -45 285
v -58 -39 252
v -50 -20 256
v -59 -55 238
v -60 -49 202
v -52 -31 211
v -62 -63 186
v -38 -89 211
v -41 -100 158
v -36 -78 269
v 2 -91 260
v 2 -105 202
v 4 -116 147
v 1 -79 316
v 17 -61 328
v 19 -73 274
v 15 -53 378
v 46 -39 382
v 49 -47 338
v 42 -29 429
v 45 -14 433
v 48 -21 385
v 41 -4 480
v 39 2 429
v 38 4 524
v 38 -20 483
v 34 -11 532
v 13 -32 477
v 16 -23 534
v -1 -44 480
v -1 -31 536
v -28 -35 478
v -27 -24 535
v 37 18 422
v 43 -8 388
v 52 -28 348
v 54 -56 285
v 21 -85 218
v 22 -95 168
v 40 13 388
v 47 -14 355
v 55 -40 297
v 57 -66 238
v 62 -76 186
v -31 -45 426
v 0 -54 428
v -33 -56 373
v 14 -41 428
v 0 -67 370
v 45 2 347
v 51 -23 307
v 58 -47 252
v 63 -58 200
v 47 -6 307
v 55 -33 266
v 59 -42 218
v -35 -65 324
v 52 -17 265
v 55 -29 219

f 1 2 3
f 1 3 4
f 1 4 5
f 1 5 6
f 1 6 7
f 1 7 2
f 1 2 7
f 1 7 6
f 1 6 5
f 1 5 4
f 1 4 3
f 1 3 2
f 2 3 8
f 2 8 9
f 2 9 7
f 2 7 9
f 2 9 8
f 2 8 3
f 3 8 10
f 3 10 4
f 3 4 10
f 3 10 8
f 8 10 11
f 8 11 12
f 8 12 13
f 8 13 14
f 8 14 15
f 8 15 16
f 8 16 9
f 8 9 16
f 8 16 15
f 8 15 14
f 8 14 13
f 8 13 12
f 8 12 11
f 8 11 10
f 10 11 17
f 10 17 4
f 10 4 17
f 10 17 11
f 11 17 18
f 11 18 17
f 17 18 19
f 17 19 20
f 17 20 4
f 17 4 20
f 17 20 19
f 17 19 18
f 18 19 21
f 18 21 19
f 19 21 22
f 19 22 23
f 19 23 20
f 19 20 23
f 19 23 22
f 19 22 21
f 21 22 24
f 21 24 22
f 22 24 25
f 22 25 26
f 22 26 23
f 22 23 26
f 22 26 25
f 22 25 24
f 24 25 27
f 24 27 25
f 25 27 28
f 25 28 29
f 25 29 26
f 25 26 29
f 25 29 28
f 25 28 27
f 27 28 30
f 27 30 28
f 28 30 31
f 28 31 32
f 28 32 29
f 28 29 32
f 28 32 31
f 28 31 30
f 30 31 33
f 30 33 31
f 31 33 34
f 31 34 35
f 31 35 32
f 31 32 35
f 31 35 34
f 31 34 33
f 33 34 36
f 33 36 34
f 34 36 37
f 34 37 38
f 34 38 35
f 34 35 38
f 34 38 37
f 34 37 36
f 36 37 39
f 36 39 37
f 39 36 40
f 39 40 41
f 39 41 40
f 39 40 36
f 36 40 42
f 36 42 40
f 40 42 43
f 40 43 44
f 40 44 45
f 40 45 41
f 40 41 45
f 40 45 44
f 40 44 43
f 40 43 42
f 42 43 46
f 42 46 43
f 43 46 47
f 43 47 48
f 43 48 44
f 43 44 48
f 43 48 47
f 43 47 46
f 46 47 49
f 46 49 47
f 47 49 50
f 47 50 51
f 47 51 48
f 47 48 51
f 47 51 50
f 47 50 49
f 49 50 52
f 49 52 50
f 50 52 53
f 50 53 54
f 50 54 51
f 50 51 54
f 50 54 53
f 50 53 52
f 52 53 55
f 52 55 53
f 53 55 6
f 53 6 56
f 53 56 54
f 53 54 56
f 53 56 6
f 53 6 55
f 55 6 7
f 55 7 6
f 7 55 57
f 7 57 9
f 7 9 57
f 7 57 55
f 55 57 58
f 55 58 57
f 57 58 59
f 57 59 16
f 57 16 9
f 57 9 16
f 57 16 59
f 57 59 58
f 58 59 60
f 58 60 59
f 59 60 61
f 59 61 15
f 59 15 16
f 59 16 15
f 59 15 61
f 59 61 60
f 60 61 62
f 60 62 61
f 61 62 63
f 61 63 14
f 61 14 15
f 61 15 14
f 61 14 63
f 61 63 62
f 62 63 64
f 62 64 63
f 63 64 65
f 63 65 13
f 63 13 14
f 63 14 13
f 63 13 65
f 63 65 64
f 64 65 21
f 64 21 65
f 65 21 18
f 65 18 12
f 65 12 13
f 65 13 12
f 65 12 18
f 65 18 21
f 18 11 12
f 18 12 11
f 4 20 5
f 4 5 20
f 20 5 66
f 20 66 5
f 5 66 56
f 5 56 6
f 5 6 56
f 5 56 66
f 66 56 67
f 66 67 56
f 56 67 54
f 56 54 67
f 67 54 68
f 67 68 54
f 54 68 51
f 54 51 68
f 68 51 69
f 68 69 51
f 51 69 48
f 51 48 69
f 69 48 70
f 69 70 48
f 48 70 44
f 48 44 70
f 70 44 71
f 70 71 44
f 44 71 45
f 44 45 71
f 20 23 66
f 20 66 23
f 23 66 72
f 23 72 66
f 66 72 67
f 66 67 72
f 72 67 73
f 72 73 67
f 67 73 68
f 67 68 73
f 73 68 74
f 73 74 68
f 68 74 69
f 68 69 74
f 74 69 75
f 74 75 69
f 69 75 70
f 69 70 75
f 75 70 76
f 75 76 70
f 70 76 71
f 70 71 76
f 24 21 64
f 24 64 77
f 24 77 27
f 24 27 77
f 24 77 64
f 24 64 21
f 77 64 62
f 77 62 78
f 77 78 79
f 77 79 27
f 77 27 79
f 77 79 78
f 77 78 62
f 77 62 64
f 78 62 60
f 78 60 80
f 78 80 81
f 78 81 79
f 78 79 81
f 78 81 80
f 78 80 60
f 78 60 62
f 80 60 58
f 80 58 52
f 80 52 49
f 80 49 81
f 80 81 49
f 80 49 52
f 80 52 58
f 80 58 60
f 52 58 55
f 52 55 58
f 23 26 72
f 23 72 26
f 26 72 82
f 26 82 72
f 72 82 73
f 72 73 82
f 82 73 83
f 82 83 73
f 73 83 74
f 73 74 83
f 83 74 84
f 83 84 74
f 74 84 75
f 74 75 84
f 84 75 85
f 84 85 75
f 75 85 76
f 75 76 85
f 26 29 82
f 26 82 29
f 29 82 86
f 29 86 82
f 82 86 83
f 82 83 86
f 86 83 87
f 86 87 83
f 83 87 84
f 83 84 87
f 87 84 88
f 87 88 84
f 84 88 85
f 84 85 88
f 30 27 79
f 30 79 89
f 30 89 33
f 30 33 89
f 30 89 79
f 30 79 27
f 89 79 81
f 89 81 46
f 89 46 42
f 89 42 33
f 89 33 42
f 89 42 46
f 89 46 81
f 89 81 79
f 46 81 49
f 46 49 81
f 29 32 86
f 29 86 32
f 32 86 90
f 32 90 86
f 86 90 87
f 86 87 90
f 90 87 88
f 90 88 87
f 88 90 91
f 88 91 90
f 90 91 38
f 90 38 91
f 38 90 35
f 38 35 90
f 90 35 32
f 90 32 35
f 36 33 42
f 36 42 33
