# RS2 Model 13928
# Vertices: 139
# Faces: 272

v -4 -9 184
v 0 -10 186
v -4 -8 186
v -6 -5 186
v -5 -7 183
v -2 -8 182
v 0 -11 183
v 4 -9 184
v 4 -8 186
v 1 -9 189
v -3 -7 189
v -5 -6 188
v -7 -4 188
v -14 0 180
v -7 -2 183
v -7 -5 182
v -5 -7 180
v -2 -9 176
v 0 -10 181
v 2 -8 182
v 5 -7 183
v 6 -5 186
v 5 -6 188
v 3 -7 189
v -4 -2 199
v -4 -4 191
v -11 0 193
v -9 1 186
v -8 0 182
v -10 0 177
v -8 -1 179
v -7 -5 178
v -3 -8 173
v 0 -10 173
v 0 -10 175
v 0 -12 177
v 2 -9 176
v 5 -7 180
v 7 -5 182
v 7 -2 183
v 7 -4 188
v 4 -4 191
v 4 -1 192
v 0 1 194
v -4 -1 192
v -7 1 189
v -9 4 185
v -15 2 183
v -9 2 181
v -8 1 178
v -7 2 176
v -6 -2 172
v -2 -6 169
v 0 -8 169
v 3 -8 173
v 0 -3 169
v -4 4 171
v -4 5 166
v 0 0 163
v 4 5 166
v 4 4 171
v 3 0 171
v 2 -6 169
v -3 0 171
v -7 4 176
v -21 10 164
v -5 10 173
v 0 8 170
v 0 10 167
v -9 4 176
v -8 6 179
v -23 16 170
v -6 14 174
v -2 14 175
v 0 12 172
v 5 10 173
v -9 4 179
v -10 4 182
v -10 6 181
v -10 6 179
v -4 3 193
v -4 6 191
v -8 5 188
v 0 3 194
v 0 8 192
v -4 10 188
v -6 9 187
v -7 9 184
v -17 13 178
v -9 4 182
v -9 6 181
v -8 13 178
v -5 13 179
v -3 20 175
v 0 18 172
v 3 15 174
v 6 14 174
v 23 16 170
v 8 6 179
v 21 10 164
v 7 4 176
v 6 -2 172
v 0 26 165
v 0 22 176
v 2 20 175
v -1 14 182
v 5 13 179
v 8 13 178
v 7 9 184
v 9 6 181
v 10 6 179
v 9 4 176
v -3 17 186
v 0 20 182
v 0 17 189
v 0 25 183
v 3 17 186
v 4 10 188
v 6 9 187
v 7 -5 178
v 8 -1 179
v 10 0 177
v 8 0 182
v 14 0 180
v 9 1 186
v 11 0 191
v 6 1 189
v 4 3 193
v 7 2 176
v 8 1 178
v 9 2 181
v 15 2 183
v 9 4 179
v 10 6 181
v 10 4 182
v 9 4 182
v 9 4 185
v 8 5 188
v 17 13 178

f 1 2 3
f 1 3 4
f 1 4 5
f 1 5 6
f 1 6 7
f 1 7 2
f 2 7 8
f 2 8 9
f 2 9 10
f 2 10 3
f 3 10 11
f 3 11 12
f 3 12 4
f 4 12 13
f 4 13 14
f 4 14 15
f 4 15 16
f 4 16 5
f 5 16 17
f 5 17 6
f 6 17 18
f 6 18 19
f 6 19 7
f 7 19 20
f 7 20 8
f 8 20 21
f 8 21 22
f 8 22 9
f 9 22 23
f 9 23 24
f 9 24 10
f 10 24 25
f 10 25 11
f 11 25 26
f 11 26 12
f 12 26 13
f 13 26 27
f 13 27 28
f 13 28 14
f 14 28 29
f 14 29 15
f 15 29 30
f 15 30 31
f 15 31 32
f 15 32 16
f 16 32 17
f 17 32 18
f 18 32 33
f 18 33 34
f 18 34 35
f 18 35 36
f 18 36 19
f 19 36 37
f 19 37 20
f 20 37 38
f 20 38 21
f 21 38 39
f 21 39 22
f 22 39 40
f 22 40 41
f 22 41 23
f 23 41 42
f 23 42 24
f 24 42 25
f 25 42 43
f 25 43 44
f 25 44 45
f 25 45 26
f 26 45 27
f 27 45 46
f 27 46 28
f 28 46 47
f 28 47 48
f 28 48 29
f 29 48 49
f 29 49 50
f 29 50 30
f 30 50 31
f 31 50 51
f 31 51 52
f 31 52 32
f 32 52 33
f 33 52 53
f 33 53 54
f 33 54 34
f 34 54 55
f 34 55 37
f 34 37 35
f 35 37 36
f 56 57 58
f 56 58 59
f 56 59 60
f 56 60 61
f 56 61 62
f 56 62 63
f 56 63 54
f 56 54 53
f 56 53 64
f 56 64 57
f 57 64 65
f 57 65 66
f 57 66 67
f 57 67 68
f 57 68 69
f 57 69 58
f 52 64 53
f 64 52 65
f 65 52 51
f 65 51 70
f 65 70 71
f 65 71 66
f 66 71 67
f 67 71 72
f 67 72 73
f 67 73 74
f 67 74 75
f 67 75 68
f 68 75 76
f 68 76 61
f 68 61 69
f 69 61 60
f 77 51 49
f 77 49 78
f 77 78 79
f 77 79 80
f 77 80 70
f 77 70 51
f 81 82 83
f 81 83 46
f 81 46 45
f 81 45 44
f 81 44 84
f 81 84 85
f 81 85 82
f 82 85 86
f 82 86 87
f 82 87 83
f 83 87 88
f 83 88 89
f 83 89 47
f 83 47 46
f 49 90 78
f 78 90 79
f 79 90 91
f 79 91 80
f 80 91 71
f 80 71 70
f 71 88 72
f 72 88 92
f 72 92 73
f 73 92 93
f 73 93 74
f 74 93 94
f 74 94 95
f 74 95 75
f 75 95 96
f 75 96 76
f 76 96 97
f 76 97 98
f 76 98 99
f 76 99 100
f 76 100 61
f 61 100 101
f 61 101 62
f 62 101 102
f 62 102 63
f 63 102 55
f 63 55 54
f 103 94 104
f 103 104 105
f 103 105 95
f 103 95 94
f 88 91 89
f 89 91 47
f 47 91 90
f 47 90 49
f 47 49 48
f 91 88 71
f 50 49 51
f 93 88 87
f 93 87 106
f 93 106 94
f 94 106 104
f 104 106 105
f 105 106 107
f 105 107 95
f 95 107 96
f 96 107 97
f 97 107 108
f 97 108 98
f 98 108 109
f 98 109 99
f 99 109 110
f 99 110 111
f 99 111 112
f 99 112 101
f 99 101 100
f 113 114 106
f 113 106 86
f 113 86 85
f 113 85 115
f 113 115 116
f 113 116 114
f 114 116 117
f 114 117 106
f 106 117 118
f 106 118 119
f 106 119 107
f 107 119 109
f 107 109 108
f 106 87 86
f 88 93 92
f 120 40 39
f 120 39 38
f 120 38 37
f 120 37 55
f 120 55 102
f 120 102 121
f 120 121 40
f 40 121 122
f 40 122 123
f 40 123 124
f 40 124 41
f 41 124 125
f 41 125 126
f 41 126 42
f 42 126 43
f 43 126 127
f 43 127 128
f 43 128 44
f 44 128 84
f 84 128 85
f 85 128 118
f 85 118 117
f 85 117 115
f 115 117 116
f 102 101 129
f 102 129 121
f 121 129 130
f 121 130 122
f 122 130 123
f 123 130 131
f 123 131 132
f 123 132 125
f 123 125 124
f 133 131 129
f 133 129 112
f 133 112 111
f 133 111 134
f 133 134 135
f 133 135 131
f 131 135 136
f 131 136 137
f 131 137 132
f 132 137 125
f 125 137 127
f 125 127 126
f 118 128 138
f 118 138 119
f 119 138 109
f 109 138 139
f 109 139 110
f 110 139 137
f 110 137 136
f 110 136 134
f 110 134 111
f 128 127 138
f 138 127 137
f 138 137 139
f 134 136 135
f 112 129 101
f 130 129 131
