# RS2 Model 1396
# Vertices: 72
# Faces: 86

v 16 -44 8
v 16 44 8
v 16 44 0
v 16 -44 0
v 48 44 8
v 48 -44 8
v 48 -44 0
v 48 44 0
v 11 60 24
v -7 52 24
v 64 52 24
v 64 60 24
v 11 60 16
v 15 64 16
v 15 64 24
v 5 64 24
v -7 52 12
v 64 52 12
v 64 64 16
v 21 64 16
v 64 60 16
v -11 44 12
v 64 44 12
v 5 64 12
v -7 64 12
v -11 60 12
v 64 44 0
v -11 44 0
v -64 -13 0
v -64 -13 24
v -11 44 24
v -64 -3 24
v -19 44 24
v -64 -3 12
v -19 44 12
v -64 7 12
v -27 44 12
v -64 7 0
v -27 44 0
v -64 44 12
v -64 44 0
v -64 52 12
v -64 60 0
v -64 52 24
v -64 60 24
v -19 52 24
v -11 60 24
v -64 60 12
v -11 60 0
v -7 64 0
v 64 64 0
v 21 64 0
v -19 52 12
v 64 -64 0
v 64 -64 16
v -64 -64 16
v -64 -64 0
v 64 -44 12
v 64 -44 0
v -64 -52 0
v -64 -52 12
v -60 -60 0
v -64 -52 24
v 64 -52 24
v 64 -52 12
v -64 -44 12
v -60 -60 16
v -64 -60 16
v 64 -60 16
v 64 -60 24
v -60 -60 24
v -64 -60 0

f 1 2 3
f 1 3 4
f 5 6 7
f 5 7 8
f 6 5 2
f 6 2 1
f 9 10 11
f 9 11 12
f 9 12 13
f 9 13 14
f 9 14 15
f 9 15 16
f 9 16 10
f 10 16 17
f 10 17 18
f 10 18 11
f 19 20 13
f 19 13 21
f 21 13 12
f 20 14 13
f 17 22 23
f 17 23 18
f 24 25 26
f 24 26 17
f 24 17 16
f 27 23 22
f 27 22 28
f 28 22 29
f 29 22 30
f 30 22 31
f 30 31 32
f 32 31 33
f 32 33 34
f 34 33 35
f 34 35 36
f 36 35 37
f 36 37 38
f 38 37 39
f 39 37 40
f 39 40 41
f 41 40 42
f 41 42 43
f 43 42 44
f 43 44 45
f 45 44 46
f 45 46 47
f 45 47 26
f 45 26 48
f 48 26 43
f 43 26 49
f 49 26 25
f 49 25 50
f 19 51 52
f 19 52 20
f 46 44 42
f 46 42 53
f 46 53 47
f 47 53 26
f 26 53 35
f 26 35 17
f 17 35 22
f 22 35 31
f 31 35 33
f 40 37 53
f 40 53 42
f 54 55 56
f 54 56 57
f 58 59 60
f 58 60 61
f 61 60 62
f 61 62 63
f 61 63 64
f 61 64 65
f 61 65 66
f 66 65 58
f 55 67 68
f 55 68 56
f 69 70 71
f 69 71 67
f 69 67 55
f 70 64 63
f 70 63 71
f 71 63 62
f 67 62 72
f 67 72 68
f 53 37 35
