# RS2 Model 13978
# Vertices: 135
# Faces: 202

v 5 63 -6
v -5 63 -6
v -5 -65 -6
v 5 -65 -6
v 5 63 -20
v -5 63 -20
v -5 -65 -20
v 5 -65 -20
v 1 -59 -1
v 64 -54 0
v 1 -55 0
v 64 -46 0
v 7 -40 0
v -40 -54 0
v -40 -57 -1
v 1 -59 0
v 1 -59 -5
v -41 -58 -5
v -43 -56 -1
v -47 -58 -5
v -48 -49 -1
v -51 -49 -5
v -47 -47 -1
v -49 -47 -5
v -51 -45 -1
v -55 -43 -5
v -47 -39 -1
v -51 -38 -5
v 8 -38 -5
v 7 -37 0
v -47 -42 0
v 64 -58 -5
v 64 -59 -1
v 64 -42 -1
v 7 -37 -1
v 64 -41 -5
v -20 -35 -1
v 64 -29 0
v -19 -32 0
v -47 -34 -1
v -20 -35 -5
v 64 -34 -1
v 64 -21 0
v -14 -21 0
v -46 -32 0
v -53 -32 -1
v -54 -34 -5
v -48 -36 -5
v 64 -33 -5
v 64 -16 -5
v 64 -17 -1
v -14 -18 -1
v -49 -23 0
v -55 -26 -1
v -59 -29 -1
v -55 -32 -5
v -13 -19 -5
v -51 -20 -1
v -63 -24 -1
v -57 -26 -5
v -62 -28 -5
v 0 -10 -1
v 64 -5 0
v -3 -6 0
v -27 -7 -1
v 0 -10 -5
v 64 -10 -1
v 64 9 0
v -7 8 0
v -30 -3 0
v -46 0 -1
v -27 -8 -5
v 64 -9 -5
v 64 14 -5
v 64 13 -1
v -6 11 -1
v -52 6 0
v -59 9 -1
v -63 11 -5
v -47 -2 -5
v -5 10 -5
v 2 18 -1
v 64 28 0
v 4 22 0
v -43 16 -2
v 2 18 -5
v 64 19 -1
v 64 35 0
v 7 31 0
v -49 20 -1
v -49 18 -1
v -49 17 -5
v 64 20 -5
v 64 40 -5
v 64 39 -1
v 9 37 -1
v -55 28 0
v -55 23 -1
v -56 21 -1
v -59 21 -5
v -57 23 -5
v -59 25 -1
v -63 27 -5
v -59 32 -1
v -61 34 -5
v 10 36 -5
v 27 41 -1
v 64 49 0
v 29 44 0
v -28 47 0
v -30 44 -1
v 27 41 -5
v 64 44 -1
v 64 58 0
v 28 60 0
v -25 56 0
v -34 50 -1
v -53 47 -1
v -35 43 -5
v 64 45 -5
v 64 63 -5
v 64 62 -1
v 30 62 -1
v -26 58 -1
v -32 56 -1
v -44 53 -1
v -36 50 -5
v -56 47 -5
v 31 61 -5
v -27 60 -5
v -39 59 -5
v -34 56 -5
v -47 53 -5
v -56 -19 -5
v -66 -23 -5

f 1 2 3
f 1 3 4
f 1 4 5
f 1 5 2
f 2 5 6
f 2 6 3
f 3 6 7
f 3 7 4
f 4 7 8
f 4 8 5
f 9 10 11
f 11 10 12
f 11 12 13
f 11 13 14
f 11 14 15
f 11 15 16
f 16 15 17
f 17 15 18
f 18 15 19
f 18 19 20
f 20 19 21
f 20 21 22
f 22 21 23
f 22 23 24
f 24 23 25
f 24 25 26
f 26 25 27
f 26 27 28
f 28 27 29
f 29 27 30
f 30 27 31
f 30 31 13
f 13 31 14
f 14 31 23
f 14 23 21
f 14 21 19
f 14 19 15
f 17 32 33
f 17 33 9
f 9 33 10
f 10 33 12
f 12 33 34
f 12 34 13
f 13 34 35
f 35 34 36
f 35 36 29
f 33 32 36
f 33 36 34
f 37 38 39
f 37 39 40
f 37 40 41
f 37 41 42
f 37 42 38
f 38 42 43
f 38 43 39
f 39 43 44
f 39 44 45
f 39 45 40
f 40 45 46
f 40 46 47
f 40 47 48
f 40 48 41
f 41 49 42
f 42 49 50
f 42 50 51
f 42 51 43
f 43 51 44
f 44 51 52
f 44 52 53
f 44 53 45
f 45 53 54
f 45 54 55
f 45 55 46
f 46 55 56
f 46 56 47
f 52 51 50
f 52 50 57
f 52 57 58
f 52 58 53
f 53 58 59
f 53 59 54
f 54 59 60
f 54 60 61
f 54 61 55
f 55 61 56
f 62 63 64
f 62 64 65
f 62 65 66
f 62 66 67
f 62 67 63
f 63 67 68
f 63 68 64
f 64 68 69
f 64 69 70
f 64 70 65
f 65 70 71
f 65 71 72
f 65 72 66
f 66 73 67
f 67 73 74
f 67 74 75
f 67 75 68
f 68 75 69
f 69 75 76
f 69 76 77
f 69 77 70
f 70 77 71
f 71 77 78
f 71 78 79
f 71 79 80
f 71 80 72
f 76 75 74
f 76 74 81
f 76 81 78
f 76 78 77
f 82 83 84
f 82 84 85
f 82 85 86
f 82 86 87
f 82 87 83
f 83 87 88
f 83 88 84
f 84 88 89
f 84 89 90
f 84 90 85
f 85 90 91
f 85 91 92
f 85 92 86
f 86 93 87
f 87 93 94
f 87 94 95
f 87 95 88
f 88 95 89
f 89 95 96
f 89 96 97
f 89 97 90
f 90 97 98
f 90 98 99
f 90 99 91
f 91 99 92
f 92 99 100
f 100 99 98
f 100 98 101
f 101 98 102
f 101 102 103
f 103 102 104
f 103 104 105
f 105 104 106
f 106 104 96
f 106 96 94
f 94 96 95
f 107 108 109
f 107 109 110
f 107 110 111
f 107 111 112
f 107 112 113
f 107 113 108
f 108 113 114
f 108 114 109
f 109 114 115
f 109 115 116
f 109 116 110
f 110 116 117
f 110 117 118
f 110 118 111
f 111 118 119
f 111 119 112
f 112 120 113
f 113 120 121
f 113 121 122
f 113 122 114
f 114 122 115
f 115 122 123
f 115 123 124
f 115 124 116
f 116 124 125
f 116 125 126
f 116 126 117
f 117 126 127
f 117 127 128
f 117 128 118
f 118 128 119
f 123 122 121
f 123 121 129
f 123 129 124
f 124 129 130
f 124 130 131
f 124 131 125
f 125 131 132
f 125 132 133
f 125 133 126
f 126 133 127
f 78 81 79
f 58 57 134
f 58 134 135
f 58 135 59
f 59 135 60
f 104 97 96
f 97 104 102
f 97 102 98
f 25 31 27
f 31 25 23
