# RS2 Model 13987
# Vertices: 70
# Faces: 55

v 15 -52 -15
v -29 -43 -9
v -29 -43 -10
v 14 -52 -18
v 15 2 -15
v -28 -26 -9
v -42 10 -9
v -29 46 -9
v 15 56 -15
v -28 51 -9
v 14 56 -18
v -28 51 -12
v 14 2 -18
v 45 -52 -29
v 9 -52 -21
v 9 -52 -24
v 44 -52 -32
v 45 56 -29
v 9 56 -21
v 44 56 -32
v 9 56 -24
v 64 -52 -45
v 38 -52 -38
v 38 -52 -41
v 63 -52 -48
v 64 56 -45
v 38 56 -38
v 63 56 -48
v 38 56 -41
v -3 0 -37
v 44 0 -59
v 32 -35 -53
v -3 -41 -37
v -38 -35 -21
v -50 0 -15
v -38 35 -21
v -3 41 -37
v 32 35 -53
v -26 43 -11
v -24 41 -11
v -22 43 -11
v -24 45 -10
v 8 49 -13
v 10 47 -14
v 12 49 -13
v 10 51 -13
v -26 -40 -11
v -24 -42 -11
v -22 -40 -11
v -24 -38 -10
v 8 -44 -13
v 10 -46 -14
v 12 -44 -13
v 10 -42 -13
v 38 49 -27
v 40 47 -28
v 42 49 -27
v 40 51 -27
v 38 -44 -27
v 40 -46 -28
v 42 -44 -27
v 40 -42 -27
v 59 49 -43
v 61 47 -44
v 63 49 -43
v 61 51 -43
v 59 -44 -43
v 61 -46 -44
v 63 -44 -43
v 61 -42 -43

f 1 2 3
f 1 3 4
f 1 4 5
f 1 5 2
f 2 5 6
f 6 5 7
f 7 5 8
f 8 5 9
f 8 9 10
f 10 9 11
f 10 11 12
f 9 8 11
f 11 5 13
f 13 5 4
f 14 15 16
f 14 16 17
f 14 17 18
f 14 18 15
f 15 18 19
f 19 18 20
f 19 20 21
f 18 17 20
f 22 23 24
f 22 24 25
f 22 25 26
f 22 26 23
f 23 26 27
f 27 26 28
f 27 28 29
f 26 25 28
f 30 31 32
f 30 32 33
f 30 33 34
f 30 34 35
f 30 35 36
f 30 36 37
f 30 37 38
f 30 38 31
f 11 9 5
f 39 40 41
f 39 41 42
f 43 44 45
f 43 45 46
f 47 48 49
f 47 49 50
f 51 52 53
f 51 53 54
f 55 56 57
f 55 57 58
f 59 60 61
f 59 61 62
f 63 64 65
f 63 65 66
f 67 68 69
f 67 69 70
