# RS2 Model 14007
# Vertices: 136
# Faces: 216

v -42 -42 209
v -42 -42 109
v -42 -34 107
v -42 -32 200
v -42 -42 238
v -42 -32 238
v -58 -32 238
v -58 -58 238
v -58 -58 209
v -58 -32 200
v -58 -58 109
v -58 -34 108
v -58 -58 49
v -58 -33 48
v -58 -58 33
v -58 -30 32
v -58 -58 15
v -58 -28 14
v -58 -58 0
v -58 -26 0
v -42 -27 0
v -42 -28 14
v -42 -42 15
v -42 -42 0
v -45 -29 238
v -45 -29 201
v -45 0 200
v -45 2 238
v -61 2 238
v -61 -29 238
v -61 -28 204
v -45 -31 104
v -45 -3 109
v -61 0 111
v -61 1 195
v -42 4 238
v -42 6 165
v -42 35 200
v -42 30 238
v -58 30 238
v -58 4 238
v -58 6 168
v -42 3 108
v -42 35 97
v -58 35 95
v -58 36 198
v -45 32 238
v -45 40 195
v -45 62 169
v -45 63 238
v -61 63 238
v -61 32 238
v -61 39 189
v -45 37 98
v -45 63 96
v -61 63 96
v -61 62 169
v -61 -29 101
v -45 -29 48
v -45 2 48
v -61 3 48
v -61 -27 48
v -45 -27 32
v -45 3 32
v -61 4 32
v -61 -26 32
v -45 -25 14
v -45 3 14
v -61 4 14
v -61 -25 14
v -61 -24 0
v -45 -24 0
v -45 5 0
v -61 5 0
v -58 4 107
v -42 6 49
v -42 31 48
v -58 31 48
v -58 7 49
v -42 6 32
v -42 34 33
v -58 34 33
v -58 7 32
v -42 6 14
v -42 35 15
v -58 35 15
v -58 7 14
v -58 7 0
v -42 7 0
v -42 35 0
v -58 35 0
v -61 37 98
v -45 34 48
v -45 63 48
v -61 63 48
v -61 34 48
v -45 36 33
v -45 63 33
v -61 63 33
v -61 36 33
v -45 37 15
v -45 63 15
v -61 63 15
v -61 37 15
v -45 37 0
v -45 63 0
v -61 63 0
v -61 37 0
v -42 -42 49
v -42 -33 48
v -42 -31 32
v -42 -42 33
v -64 64 70
v -61 64 70
v -61 64 52
v -64 64 52
v -64 -7 69
v -61 -7 69
v -61 -7 51
v -64 -64 70
v -64 -7 51
v -64 -64 52
v -61 -61 70
v -61 -61 52
v -64 64 166
v -61 64 166
v -61 64 148
v -64 64 148
v -64 17 167
v -61 17 167
v -61 17 149
v -64 -64 166
v -64 17 149
v -64 -64 148
v -61 -61 166
v -61 -61 148

f 1 2 3
f 1 3 4
f 1 4 5
f 5 4 6
f 5 6 7
f 5 7 8
f 8 7 9
f 9 7 10
f 9 10 11
f 11 10 12
f 11 12 13
f 13 12 14
f 13 14 15
f 15 14 16
f 15 16 17
f 17 16 18
f 17 18 19
f 19 18 20
f 20 18 21
f 21 18 22
f 21 22 23
f 21 23 24
f 25 26 27
f 25 27 28
f 25 28 29
f 25 29 30
f 25 30 26
f 26 30 31
f 26 31 32
f 26 32 33
f 26 33 27
f 27 33 34
f 27 34 35
f 27 35 28
f 28 35 29
f 29 35 31
f 29 31 30
f 36 37 38
f 36 38 39
f 36 39 40
f 36 40 41
f 36 41 37
f 37 41 42
f 37 42 43
f 37 43 44
f 37 44 38
f 38 44 45
f 38 45 46
f 38 46 39
f 39 46 40
f 40 46 42
f 40 42 41
f 47 48 49
f 47 49 50
f 47 50 51
f 47 51 52
f 47 52 48
f 48 52 53
f 48 53 54
f 48 54 55
f 48 55 49
f 49 55 56
f 49 56 57
f 49 57 50
f 50 57 51
f 51 57 53
f 51 53 52
f 35 34 58
f 35 58 31
f 31 58 32
f 32 58 59
f 32 59 60
f 32 60 33
f 33 60 34
f 34 60 61
f 34 61 62
f 34 62 58
f 58 62 59
f 59 62 63
f 59 63 64
f 59 64 60
f 60 64 61
f 61 64 65
f 61 65 66
f 61 66 62
f 62 66 63
f 63 66 67
f 63 67 68
f 63 68 64
f 64 68 65
f 65 68 69
f 65 69 70
f 65 70 66
f 66 70 67
f 67 70 71
f 67 71 72
f 67 72 73
f 67 73 68
f 68 73 69
f 69 73 74
f 69 74 71
f 69 71 70
f 46 45 75
f 46 75 42
f 42 75 43
f 43 75 76
f 43 76 77
f 43 77 44
f 44 77 45
f 45 77 78
f 45 78 79
f 45 79 75
f 75 79 76
f 76 79 80
f 76 80 81
f 76 81 77
f 77 81 78
f 78 81 82
f 78 82 83
f 78 83 79
f 79 83 80
f 80 83 84
f 80 84 85
f 80 85 81
f 81 85 82
f 82 85 86
f 82 86 87
f 82 87 83
f 83 87 84
f 84 87 88
f 84 88 89
f 84 89 90
f 84 90 85
f 85 90 86
f 86 90 91
f 86 91 88
f 86 88 87
f 57 56 92
f 57 92 53
f 53 92 54
f 54 92 93
f 54 93 94
f 54 94 55
f 55 94 56
f 56 94 95
f 56 95 96
f 56 96 92
f 92 96 93
f 93 96 97
f 93 97 98
f 93 98 94
f 94 98 95
f 95 98 99
f 95 99 100
f 95 100 96
f 96 100 97
f 97 100 101
f 97 101 102
f 97 102 98
f 98 102 99
f 99 102 103
f 99 103 104
f 99 104 100
f 100 104 101
f 101 104 105
f 101 105 106
f 101 106 102
f 102 106 103
f 103 106 107
f 103 107 108
f 103 108 104
f 104 108 105
f 6 4 10
f 6 10 7
f 4 3 12
f 4 12 10
f 2 109 110
f 2 110 3
f 3 110 12
f 12 110 14
f 14 110 111
f 14 111 16
f 16 111 22
f 16 22 18
f 112 23 22
f 112 22 111
f 112 111 109
f 109 111 110
f 113 114 115
f 113 115 116
f 113 116 117
f 113 117 114
f 114 117 118
f 114 118 119
f 114 119 115
f 120 117 121
f 120 121 122
f 118 117 120
f 118 120 123
f 118 123 124
f 118 124 119
f 121 117 116
f 125 126 127
f 125 127 128
f 125 128 129
f 125 129 126
f 126 129 130
f 126 130 131
f 126 131 127
f 132 129 133
f 132 133 134
f 130 129 132
f 130 132 135
f 130 135 136
f 130 136 131
f 133 129 128
