# RS2 Model 14055
# Vertices: 47
# Faces: 44

v 8 11 0
v -8 11 0
v -8 -9 0
v 8 -9 0
v 18 -9 0
v 18 11 0
v 18 19 0
v 8 19 0
v 6 21 0
v 6 13 0
v -6 13 0
v -8 19 0
v -18 11 0
v -18 -9 0
v -21 -11 0
v -9 -11 0
v 9 -11 0
v 21 -11 0
v 21 11 0
v 21 21 0
v -18 19 0
v -21 21 0
v -21 11 0
v -6 21 0
v 12 10 1
v 12 4 1
v 14 4 1
v 14 10 1
v -12 4 1
v -12 10 1
v -14 10 1
v -14 4 1
v 4 1 1
v -4 1 1
v -4 -9 1
v 4 -9 1
v -5 10 1
v -5 4 1
v -3 4 1
v -3 10 1
v 3 10 1
v 3 4 1
v 5 4 1
v 5 10 1
v 35 -28 0
v 35 39 0
v -35 -28 0

f 1 2 3
f 1 3 4
f 1 4 5
f 1 5 6
f 1 6 7
f 1 7 8
f 1 8 9
f 1 9 10
f 1 10 2
f 2 10 11
f 2 11 12
f 2 12 13
f 2 13 3
f 3 13 14
f 3 14 15
f 3 15 16
f 3 16 4
f 4 16 17
f 4 17 5
f 5 17 18
f 5 18 6
f 6 18 19
f 6 19 7
f 7 19 20
f 7 20 8
f 8 20 9
f 13 12 21
f 13 21 22
f 13 22 23
f 13 23 14
f 14 23 15
f 12 11 24
f 12 24 21
f 21 24 22
f 25 26 27
f 25 27 28
f 29 30 31
f 29 31 32
f 33 34 35
f 33 35 36
f 37 38 39
f 37 39 40
f 41 42 43
f 41 43 44
