# RS2 Model 14056
# Vertices: 469
# Faces: 556

v 130 47 1
v 102 47 1
v 102 27 1
v 130 27 1
v 1 175 0
v 2 163 0
v 20 171 0
v 14 157 0
v 160 160 0
v 160 176 0
v 112 176 0
v 112 183 0
v -6 177 0
v -3 162 0
v -1 175 0
v -5 158 0
v -14 163 0
v -64 164 0
v -62 128 0
v -39 123 0
v -33 105 0
v -33 100 0
v -3 54 0
v 42 51 0
v 84 69 0
v 151 69 0
v 161 63 4
v 164 160 4
v 166 173 4
v 168 160 14
v 170 169 14
v 163 67 11
v 162 66 19
v 165 160 23
v 168 172 24
v 161 -33 4
v 163 -30 13
v 162 -36 19
v 163 -130 4
v 166 -124 14
v 163 -127 23
v 166 -137 4
v 171 -134 14
v 166 -138 23
v -20 176 0
v -10 176 0
v -22 176 0
v -68 176 0
v -128 176 0
v -75 176 0
v -128 160 0
v -68 122 0
v -62 126 0
v -42 121 0
v -35 103 0
v -38 84 0
v -49 71 0
v -64 65 0
v -73 55 0
v -73 36 0
v -82 19 0
v -74 10 0
v -66 -15 0
v -66 -22 0
v -28 -76 0
v 23 -58 0
v 61 -55 0
v 91 -38 0
v 150 -38 0
v 116 182 0
v -135 174 23
v -134 160 23
v -137 160 14
v -139 169 13
v -125 160 28
v -125 176 28
v -129 67 18
v -131 71 9
v -125 65 23
v -130 -36 17
v -131 -32 11
v -125 -32 22
v -131 -127 23
v -135 -124 14
v -125 -128 28
v -134 -138 23
v -141 -134 14
v -125 -144 28
v -133 160 4
v -134 173 4
v -129 63 4
v -129 -33 4
v -131 -130 4
v -135 -137 4
v -114 60 0
v -68 117 0
v -63 124 0
v -44 119 0
v -37 103 0
v -40 86 0
v -53 73 0
v -65 68 0
v -77 56 0
v -76 36 0
v -86 18 0
v -77 9 0
v -69 -19 0
v -76 -41 0
v -70 -73 0
v -65 -112 0
v -63 -114 0
v -20 -100 0
v -29 -129 0
v 17 -124 0
v 55 -129 0
v 97 -128 0
v 160 -128 0
v -120 -21 0
v -116 2 0
v -100 23 0
v -90 40 0
v -92 60 0
v -75 79 0
v -59 85 0
v -49 100 0
v -52 109 0
v -51 110 0
v -50 112 0
v -46 102 0
v -48 94 0
v -42 88 0
v -55 75 0
v -67 70 0
v -79 56 0
v -78 36 0
v -89 18 0
v -79 7 0
v -72 -20 0
v -80 -39 0
v -74 -73 0
v -69 -116 0
v -31 -133 0
v -128 -128 0
v -89 -75 0
v -96 -42 0
v -93 -41 0
v -91 -39 0
v -81 -20 0
v -98 18 0
v -99 20 0
v -89 39 0
v -90 60 0
v -74 78 0
v -59 84 0
v -49 96 0
v -48 102 0
v -128 -144 0
v -90 -139 0
v -100 -133 0
v -89 -115 0
v -86 -116 0
v -87 -75 0
v -85 -75 0
v -82 -39 0
v -87 38 0
v -88 60 0
v -73 77 0
v -59 82 0
v 160 -144 0
v 158 176 28
v 158 160 28
v 158 65 24
v 158 -34 23
v 158 -128 28
v 158 -144 28
v 106 -128 0
v 107 -134 0
v 117 -133 0
v 114 -128 0
v 65 -135 0
v 96 -138 0
v 98 -133 0
v 13 -135 0
v -47 -136 0
v -50 -146 0
v 99 -139 0
v 107 -141 0
v 110 -141 0
v 117 -142 0
v 120 -143 0
v -84 -118 0
v -91 -152 0
v -56 -145 0
v -103 -150 0
v -71 -118 0
v -76 -75 0
v -47 36 1
v -50 38 1
v -55 36 1
v -54 31 1
v -51 29 1
v -46 31 1
v -22 25 1
v -25 24 1
v -25 20 1
v -22 19 1
v -20 22 1
v 43 -22 1
v 30 -16 1
v 30 -22 1
v 37 -26 1
v 47 -51 1
v 39 -51 1
v 38 -73 1
v 32 -69 1
v 11 -82 1
v 11 -76 1
v -7 -77 1
v -16 -75 1
v -16 -84 1
v -11 -85 1
v -17 -97 1
v -12 -98 1
v -26 -32 1
v -25 -51 1
v -17 -51 1
v -19 -29 1
v -10 -71 1
v 43 -14 1
v 35 -12 1
v 45 2 1
v 40 3 1
v 31 -1 1
v 31 -7 1
v 20 1 1
v 20 -5 1
v 42 18 1
v 38 14 1
v 30 24 1
v 29 19 1
v 15 -15 1
v 15 -21 1
v -2 -26 1
v 1 -31 1
v 30 -31 1
v 12 -28 1
v 12 -32 1
v 27 -34 1
v 36 -50 1
v 32 -50 1
v 29 -67 1
v 26 -64 1
v 12 -74 1
v 12 -70 1
v -7 -68 1
v -4 -65 1
v -13 -50 1
v -9 -50 1
v -9 -39 1
v -5 -37 1
v -9 -27 1
v -13 -29 1
v -22 -20 1
v -23 -25 1
v -33 -21 1
v -31 -26 1
v -40 -32 1
v -35 -34 1
v -40 -53 1
v -36 -53 1
v -46 -64 1
v -43 -67 1
v -51 -64 1
v -54 -67 1
v -52 -50 1
v -56 -51 1
v -46 -35 1
v -50 -36 1
v -54 -27 1
v -53 -32 1
v -60 -33 1
v -56 -36 1
v -63 -47 1
v -60 -47 1
v -63 -59 1
v -61 -60 1
v -67 -62 1
v -68 -65 1
v -69 -53 1
v -71 -54 1
v -68 -43 1
v -70 -43 1
v -64 -33 1
v -66 -33 1
v -61 -21 1
v -63 -21 1
v -3 -39 1
v -41 5 1
v -50 2 1
v -49 0 1
v -42 3 1
v -34 -2 1
v -37 -2 1
v -40 -12 1
v -41 -10 1
v -51 -14 1
v -50 -12 1
v -57 -5 1
v -54 -5 1
v -60 27 1
v -63 30 1
v -69 27 1
v -68 22 1
v -64 19 1
v -58 22 1
v -50 17 1
v -54 16 1
v -53 9 1
v -48 8 1
v -44 11 1
v -45 17 1
v -15 4 1
v -22 2 1
v -21 -10 1
v -13 -11 1
v -6 -6 1
v -7 4 1
v -40 66 1
v -44 64 1
v -44 58 1
v -40 58 1
v -36 61 1
v -36 66 1
v -31 49 1
v -36 51 1
v -43 47 1
v -40 43 1
v -34 41 1
v -29 44 1
v -3 60 1
v -10 58 1
v -9 46 1
v -1 45 1
v 6 50 1
v 5 60 1
v 33 45 1
v 31 50 1
v 24 53 1
v 23 49 1
v 24 43 1
v 30 40 1
v 42 72 1
v 39 75 1
v 33 72 1
v 34 67 1
v 38 64 1
v 44 67 1
v 18 126 1
v 2 126 1
v 2 115 1
v 18 115 1
v -3 113 1
v -10 113 1
v -10 102 1
v -3 102 1
v 36 129 1
v 22 129 1
v 22 119 1
v 36 119 1
v 46 99 1
v 46 114 1
v 36 114 1
v 36 99 1
v 23 95 1
v 3 95 1
v 3 81 1
v 23 81 1
v 51 96 1
v 37 96 1
v 37 82 1
v 51 82 1
v 19 -34 1
v 11 -34 1
v 11 -39 1
v 19 -39 1
v 11 -46 1
v 7 -41 1
v 4 -45 1
v 9 -49 1
v -2 -44 1
v -7 -49 1
v -3 -51 1
v 2 -47 1
v 26 -49 1
v 26 -41 1
v 20 -41 1
v 20 -49 1
v 11 -67 1
v 11 -59 1
v 5 -59 1
v 5 -67 1
v 20 -61 1
v 20 -54 1
v 15 -54 1
v 15 -61 1
v 75 -22 1
v 62 -22 1
v 62 -31 1
v 75 -31 1
v 100 -16 1
v 80 -16 1
v 80 -25 1
v 100 -25 1
v 65 -34 1
v 56 -34 1
v 56 -42 1
v 65 -42 1
v 67 -46 1
v 62 -46 1
v 62 -52 1
v 67 -52 1
v 128 -35 1
v 117 -35 1
v 117 -41 1
v 128 -41 1
v 19 -84 1
v 14 -84 1
v 14 -89 1
v 19 -89 1
v 26 -85 1
v 22 -85 1
v 22 -90 1
v 26 -90 1
v 39 -82 1
v 30 -82 1
v 30 -89 1
v 39 -89 1
v 23 -97 1
v 13 -97 1
v 13 -103 1
v 23 -103 1
v 35 -97 1
v 29 -97 1
v 29 -101 1
v 35 -101 1
v 46 -98 1
v 40 -98 1
v 40 -102 1
v 46 -102 1
v 14 -105 1
v 7 -105 1
v 7 -110 1
v 14 -110 1
v 23 -106 1
v 17 -106 1
v 17 -111 1
v 23 -111 1
v 30 -104 1
v 26 -109 1
v 29 -112 1
v 34 -107 1
v 20 -120 1
v 20 -114 1
v 15 -114 1
v 15 -120 1
v 43 -115 1
v 43 -109 1
v 38 -109 1
v 38 -115 1

f 1 2 3
f 1 3 4
f 5 6 7
f 7 6 8
f 7 8 9
f 7 9 10
f 7 10 11
f 7 11 12
f 13 14 6
f 13 6 15
f 16 8 6
f 16 6 14
f 16 14 17
f 16 17 18
f 16 18 19
f 16 19 20
f 16 20 21
f 16 21 22
f 16 22 23
f 16 23 8
f 8 23 24
f 8 24 25
f 8 25 26
f 8 26 9
f 9 26 27
f 9 27 28
f 9 28 10
f 10 28 29
f 29 28 30
f 29 30 31
f 29 31 28
f 28 31 30
f 28 30 27
f 28 27 32
f 28 32 30
f 30 32 33
f 30 33 34
f 30 34 31
f 30 31 35
f 30 35 34
f 30 34 32
f 30 32 27
f 27 32 36
f 27 36 37
f 27 37 32
f 32 37 38
f 32 38 33
f 32 33 37
f 32 37 36
f 36 37 39
f 36 39 40
f 36 40 37
f 37 40 41
f 37 41 38
f 37 38 40
f 37 40 39
f 39 40 42
f 39 42 43
f 39 43 40
f 40 43 44
f 40 44 41
f 40 41 43
f 40 43 42
f 45 17 14
f 45 14 46
f 18 17 47
f 18 47 48
f 49 18 50
f 18 49 51
f 18 51 52
f 18 52 19
f 19 52 53
f 19 53 54
f 19 54 20
f 20 54 55
f 20 55 21
f 21 55 22
f 22 55 56
f 22 56 23
f 23 56 57
f 23 57 58
f 23 58 59
f 23 59 60
f 23 60 61
f 23 61 62
f 23 62 63
f 23 63 64
f 23 64 65
f 23 65 24
f 24 65 66
f 24 66 67
f 24 67 25
f 25 67 68
f 25 68 69
f 25 69 26
f 26 69 36
f 26 36 27
f 11 10 70
f 71 72 73
f 71 73 74
f 71 74 72
f 71 72 75
f 71 75 76
f 72 77 78
f 72 78 73
f 72 73 77
f 72 77 79
f 72 79 75
f 77 80 81
f 77 81 78
f 77 78 80
f 77 80 82
f 77 82 79
f 80 83 84
f 80 84 81
f 80 81 83
f 80 83 85
f 80 85 82
f 83 86 87
f 83 87 84
f 83 84 86
f 83 86 88
f 83 88 85
f 74 73 89
f 74 89 90
f 74 90 73
f 74 73 72
f 73 78 91
f 73 91 89
f 73 89 78
f 73 78 77
f 78 81 92
f 78 92 91
f 78 91 81
f 78 81 80
f 81 84 93
f 81 93 92
f 81 92 84
f 81 84 83
f 84 87 94
f 84 94 93
f 84 93 87
f 84 87 86
f 90 89 51
f 90 51 49
f 89 91 95
f 89 95 51
f 51 95 96
f 51 96 52
f 52 96 97
f 52 97 53
f 53 97 98
f 53 98 54
f 54 98 99
f 54 99 55
f 55 99 100
f 55 100 56
f 56 100 57
f 57 100 101
f 57 101 58
f 58 101 102
f 58 102 59
f 59 102 103
f 59 103 104
f 59 104 60
f 60 104 61
f 61 104 105
f 61 105 106
f 61 106 62
f 62 106 63
f 63 106 107
f 63 107 64
f 64 107 108
f 64 108 65
f 65 108 109
f 65 109 110
f 65 110 111
f 65 111 112
f 65 112 66
f 66 112 113
f 66 113 114
f 66 114 67
f 67 114 115
f 67 115 68
f 68 115 116
f 68 116 117
f 68 117 69
f 69 117 39
f 69 39 36
f 91 92 118
f 91 118 119
f 91 119 95
f 95 119 120
f 95 120 121
f 95 121 122
f 95 122 123
f 95 123 96
f 96 123 124
f 96 124 125
f 96 125 126
f 96 126 127
f 96 127 128
f 96 128 97
f 97 128 98
f 98 128 129
f 98 129 99
f 99 129 130
f 99 130 131
f 99 131 100
f 100 131 101
f 101 131 132
f 101 132 102
f 102 132 133
f 102 133 103
f 103 133 134
f 103 134 104
f 104 134 135
f 104 135 105
f 105 135 136
f 105 136 106
f 106 136 137
f 106 137 107
f 107 137 138
f 107 138 139
f 107 139 108
f 108 139 109
f 109 139 140
f 109 140 110
f 110 140 141
f 110 141 111
f 111 141 142
f 111 142 113
f 111 113 112
f 92 93 143
f 92 143 118
f 118 143 144
f 118 144 145
f 118 145 146
f 118 146 147
f 118 147 119
f 119 147 148
f 119 148 149
f 119 149 150
f 119 150 120
f 120 150 151
f 120 151 121
f 121 151 122
f 122 151 152
f 122 152 153
f 122 153 123
f 123 153 154
f 123 154 124
f 124 154 125
f 125 154 155
f 125 155 156
f 125 156 126
f 126 156 127
f 127 156 129
f 127 129 128
f 93 94 157
f 93 157 143
f 143 157 158
f 143 158 159
f 143 159 160
f 143 160 144
f 144 160 161
f 144 161 162
f 144 162 145
f 145 162 146
f 146 162 147
f 147 162 163
f 147 163 164
f 147 164 138
f 147 138 148
f 148 138 137
f 148 137 136
f 148 136 149
f 149 136 135
f 149 135 165
f 149 165 150
f 150 165 151
f 151 165 152
f 152 165 166
f 152 166 167
f 152 167 153
f 153 167 168
f 153 168 154
f 154 168 155
f 155 168 130
f 155 130 129
f 155 129 156
f 90 89 73
f 89 91 78
f 91 92 81
f 92 93 84
f 93 94 87
f 31 34 35
f 117 169 42
f 117 42 39
f 170 171 34
f 170 34 35
f 171 172 33
f 171 33 34
f 34 33 32
f 172 173 38
f 172 38 33
f 33 38 37
f 173 174 41
f 173 41 38
f 38 41 40
f 174 175 44
f 174 44 41
f 41 44 43
f 176 177 178
f 176 178 179
f 179 178 169
f 179 169 117
f 180 181 182
f 180 182 115
f 180 115 114
f 180 114 183
f 183 114 142
f 183 142 184
f 183 184 185
f 182 186 187
f 182 187 177
f 182 177 116
f 182 116 115
f 177 188 189
f 177 189 178
f 178 190 169
f 159 158 184
f 159 184 142
f 159 142 191
f 159 191 161
f 159 161 160
f 158 192 193
f 158 193 184
f 157 194 158
f 116 177 176
f 195 191 142
f 195 142 141
f 195 141 196
f 195 196 191
f 191 196 163
f 191 163 161
f 161 163 162
f 168 132 131
f 168 131 130
f 132 168 167
f 132 167 133
f 133 167 166
f 133 166 134
f 134 166 165
f 134 165 135
f 138 164 139
f 139 164 140
f 140 164 196
f 140 196 141
f 164 163 196
f 142 114 113
f 197 198 199
f 197 199 200
f 197 200 201
f 197 201 202
f 203 204 205
f 203 205 206
f 203 206 207
f 208 209 210
f 208 210 211
f 208 211 212
f 212 211 213
f 212 213 214
f 214 213 215
f 214 215 216
f 216 215 217
f 216 217 218
f 218 217 219
f 218 219 220
f 218 220 221
f 221 220 222
f 221 222 223
f 224 225 226
f 224 226 227
f 225 219 228
f 225 228 226
f 219 217 228
f 209 208 229
f 209 229 230
f 230 229 231
f 230 231 232
f 230 232 233
f 230 233 234
f 234 233 235
f 234 235 236
f 232 231 237
f 232 237 238
f 238 237 239
f 238 239 240
f 210 209 241
f 210 241 242
f 242 241 243
f 242 243 244
f 245 246 247
f 245 247 248
f 245 248 249
f 249 248 250
f 249 250 251
f 251 250 252
f 251 252 253
f 253 252 254
f 253 254 255
f 255 254 256
f 255 256 257
f 257 256 258
f 257 258 259
f 259 258 260
f 259 260 261
f 259 261 262
f 262 261 263
f 262 263 264
f 264 263 265
f 264 265 266
f 266 265 267
f 266 267 268
f 268 267 269
f 268 269 270
f 270 269 271
f 270 271 272
f 272 271 273
f 272 273 274
f 274 273 275
f 274 275 276
f 276 275 277
f 276 277 278
f 278 277 279
f 278 279 280
f 280 279 281
f 280 281 282
f 282 281 283
f 282 283 284
f 284 283 285
f 284 285 286
f 286 285 287
f 286 287 288
f 288 287 289
f 288 289 290
f 290 289 291
f 290 291 292
f 292 291 293
f 292 293 294
f 294 293 295
f 294 295 296
f 246 260 297
f 246 297 247
f 260 258 297
f 298 299 300
f 298 300 301
f 298 301 302
f 302 301 303
f 302 303 304
f 304 303 305
f 304 305 306
f 306 305 307
f 306 307 308
f 308 307 309
f 308 309 299
f 299 309 300
f 310 311 312
f 310 312 313
f 310 313 314
f 310 314 315
f 316 317 318
f 316 318 319
f 316 319 320
f 316 320 321
f 322 323 324
f 322 324 325
f 322 325 326
f 322 326 327
f 328 329 330
f 328 330 331
f 328 331 332
f 328 332 333
f 334 335 336
f 334 336 337
f 334 337 338
f 334 338 339
f 340 341 342
f 340 342 343
f 340 343 344
f 340 344 345
f 346 347 348
f 346 348 349
f 346 349 350
f 346 350 351
f 352 353 354
f 352 354 355
f 352 355 356
f 352 356 357
f 358 359 360
f 358 360 361
f 362 363 364
f 362 364 365
f 366 367 368
f 366 368 369
f 370 371 372
f 370 372 373
f 374 375 376
f 374 376 377
f 378 379 380
f 378 380 381
f 382 383 384
f 382 384 385
f 386 387 388
f 386 388 389
f 390 391 392
f 390 392 393
f 394 395 396
f 394 396 397
f 398 399 400
f 398 400 401
f 402 403 404
f 402 404 405
f 406 407 408
f 406 408 409
f 410 411 412
f 410 412 413
f 414 415 416
f 414 416 417
f 418 419 420
f 418 420 421
f 422 423 424
f 422 424 425
f 426 427 428
f 426 428 429
f 430 431 432
f 430 432 433
f 434 435 436
f 434 436 437
f 438 439 440
f 438 440 441
f 442 443 444
f 442 444 445
f 446 447 448
f 446 448 449
f 450 451 452
f 450 452 453
f 454 455 456
f 454 456 457
f 458 459 460
f 458 460 461
f 462 463 464
f 462 464 465
f 466 467 468
f 466 468 469
