# RS2 Model 1406
# Vertices: 69
# Faces: 116

v -40 1 19
v -29 7 19
v -26 13 8
v -44 7 8
v -49 -8 19
v -48 -8 27
v -39 -1 25
v -31 3 27
v -14 1 19
v -9 7 8
v -4 10 0
v -26 18 0
v -48 10 0
v -55 -6 8
v -60 -26 8
v -51 -21 19
v -49 -17 27
v -29 -10 31
v -7 -10 19
v 1 -9 8
v 8 -9 0
v -29 -32 19
v -26 -39 8
v -9 -27 8
v -14 -23 19
v -21 -19 27
v -30 -24 27
v -14 -10 27
v -22 -3 27
v -4 -31 0
v -61 -6 0
v -67 -29 0
v -26 -46 0
v 65 50 25
v 50 13 25
v 53 12 0
v 69 52 0
v 59 76 22
v 36 71 49
v 46 46 49
v 39 26 49
v 14 21 49
v 15 12 24
v 16 3 0
v 46 85 0
v 24 74 0
v 30 72 24
v 41 78 24
v 65 79 0
v 20 72 26
v 6 25 24
v 9 28 49
v 5 33 26
v 4 22 0
v 2 82 0
v 4 78 26
v 6 75 53
v 16 70 52
v 26 45 49
v 15 33 49
v 16 63 50
v 6 44 53
v -14 39 26
v -20 29 0
v -21 60 0
v -14 55 26
v -10 62 26
v 0 65 53
v -8 50 52

f 1 2 3
f 1 3 4
f 1 4 5
f 1 5 6
f 1 6 7
f 1 7 2
f 2 7 8
f 2 8 9
f 2 9 3
f 3 9 10
f 3 10 11
f 3 11 12
f 3 12 4
f 4 12 13
f 4 13 14
f 4 14 5
f 5 14 15
f 5 15 16
f 5 16 17
f 5 17 6
f 6 17 18
f 6 18 8
f 6 8 7
f 9 19 20
f 9 20 10
f 10 20 21
f 10 21 11
f 22 16 15
f 22 15 23
f 22 23 24
f 22 24 25
f 22 25 26
f 22 26 27
f 22 27 16
f 16 27 17
f 17 27 18
f 18 27 28
f 18 28 8
f 8 28 29
f 8 29 9
f 9 29 19
f 19 29 28
f 19 28 25
f 19 25 20
f 20 25 24
f 20 24 30
f 20 30 21
f 27 26 28
f 28 26 25
f 14 13 31
f 14 31 15
f 15 31 32
f 15 32 23
f 23 32 33
f 23 33 24
f 24 33 30
f 34 35 36
f 34 36 37
f 34 37 38
f 34 38 39
f 34 39 40
f 34 40 41
f 34 41 35
f 35 41 42
f 35 42 43
f 35 43 44
f 35 44 36
f 45 46 47
f 45 47 48
f 45 48 38
f 45 38 49
f 49 38 37
f 46 50 47
f 47 50 39
f 47 39 48
f 48 39 38
f 51 44 43
f 51 43 52
f 51 52 53
f 51 53 54
f 51 54 44
f 46 55 56
f 46 56 50
f 50 56 57
f 50 57 58
f 50 58 39
f 39 58 59
f 39 59 40
f 40 59 41
f 41 59 60
f 41 60 42
f 42 60 52
f 42 52 43
f 59 58 61
f 59 61 60
f 60 61 62
f 60 62 52
f 52 62 53
f 53 62 63
f 53 63 64
f 53 64 54
f 65 64 63
f 65 63 66
f 65 66 67
f 65 67 55
f 55 67 56
f 56 67 68
f 56 68 57
f 57 68 61
f 57 61 58
f 62 61 68
f 62 68 69
f 62 69 63
f 63 69 66
f 66 69 68
f 66 68 67
