# RS2 Model 14063
# Vertices: 38
# Faces: 20

v -16 22 4
v 0 64 4
v -52 64 4
v -64 52 4
v -64 0 4
v -6 28 4
v 40 16 4
v 40 64 4
v 8 64 4
v 42 10 4
v 60 -4 4
v 60 60 4
v 46 58 4
v -60 -60 4
v -4 -60 4
v -6 -28 4
v -60 -42 4
v -60 -38 4
v -4 -22 4
v -8 22 4
v -60 -8 4
v -4 20 4
v 0 -22 4
v 34 -22 4
v 36 10 4
v 0 -60 4
v 36 -60 4
v 34 -28 4
v 0 -28 4
v 40 -60 4
v 60 -60 4
v 60 -12 4
v 42 0 4
v -64 44 0
v -64 -64 0
v 64 -64 0
v 64 64 0
v -44 64 0

f 1 2 3
f 1 3 4
f 1 4 5
f 6 7 8
f 6 8 9
f 10 11 12
f 10 12 13
f 14 15 16
f 14 16 17
f 18 19 20
f 18 20 21
f 22 23 24
f 22 24 25
f 26 27 28
f 26 28 29
f 30 31 32
f 30 32 33
f 34 35 36
f 34 36 37
f 34 37 38
