# RS2 Model 14080
# Vertices: 168
# Faces: 288

v -64 -33 240
v -64 -64 240
v -58 -58 240
v -58 -38 240
v -58 -28 240
v -64 31 240
v -64 -33 200
v -64 -64 200
v -58 26 240
v -58 36 240
v -64 64 240
v -64 31 200
v -58 64 240
v -64 64 200
v -64 -33 198
v -64 -64 198
v -58 -58 198
v -58 -38 198
v -58 -28 198
v -64 31 198
v -64 -33 158
v -64 -64 158
v -58 26 198
v -58 36 198
v -64 64 198
v -64 31 158
v -58 64 198
v -64 64 158
v -64 -33 156
v -64 -64 156
v -58 -58 156
v -58 -38 156
v -58 -28 156
v -64 31 156
v -64 -33 116
v -64 -64 116
v -58 26 156
v -58 36 156
v -64 64 156
v -64 31 116
v -58 64 156
v -64 64 116
v -64 -33 114
v -64 -64 114
v -58 -58 114
v -58 -38 114
v -58 -28 114
v -64 31 114
v -64 -33 74
v -64 -64 74
v -58 26 114
v -58 36 114
v -64 64 114
v -64 31 74
v -58 64 114
v -64 64 74
v -64 -33 72
v -64 -64 72
v -58 -58 72
v -58 -38 72
v -58 -28 72
v -64 31 72
v -64 -33 32
v -64 -64 32
v -58 26 72
v -58 36 72
v -64 64 72
v -64 31 32
v -58 64 72
v -64 64 32
v -64 -33 30
v -64 -64 30
v -58 -58 30
v -58 -38 30
v -58 -28 30
v -64 31 30
v -64 -33 0
v -64 -64 0
v -58 26 30
v -58 36 30
v -64 64 30
v -64 31 0
v -58 64 30
v -64 64 0
v -48 36 240
v -48 26 240
v -48 26 200
v -48 36 200
v -58 36 200
v -58 64 200
v -48 -28 240
v -48 -38 240
v -48 -38 200
v -48 -28 200
v -58 -28 200
v -58 26 200
v -48 26 198
v -48 36 198
v -58 -58 200
v -58 -38 200
v -48 -38 198
v -48 -28 198
v -58 -58 158
v -58 -38 158
v -48 -38 158
v -48 -28 158
v -58 -28 158
v -58 26 158
v -48 26 158
v -48 36 158
v -58 36 158
v -58 64 158
v -58 -58 116
v -58 -38 116
v -48 -38 156
v -48 -28 156
v -48 -28 116
v -58 -28 116
v -58 26 116
v -48 26 156
v -48 36 156
v -48 36 116
v -58 36 116
v -58 64 116
v -58 -58 74
v -58 -38 74
v -48 -38 114
v -48 -38 116
v -48 -28 114
v -48 -28 74
v -58 -28 74
v -58 26 74
v -48 26 114
v -48 26 116
v -48 36 114
v -48 36 74
v -58 36 74
v -58 64 74
v -58 -58 32
v -58 -38 32
v -48 -38 72
v -48 -38 74
v -48 -28 72
v -48 -28 32
v -58 -28 32
v -58 26 32
v -48 26 72
v -48 26 74
v -48 36 72
v -48 36 32
v -58 36 32
v -58 64 32
v -58 -58 0
v -58 -38 0
v -48 -38 30
v -48 -38 32
v -48 -28 30
v -48 -28 0
v -58 -28 0
v -58 26 0
v -48 26 30
v -48 26 32
v -48 36 30
v -48 36 0
v -58 36 0
v -58 64 0
v -48 26 0
v -48 -38 0

f 1 2 3
f 1 3 4
f 1 4 5
f 1 5 6
f 1 6 7
f 1 7 8
f 1 8 2
f 6 5 9
f 6 9 10
f 6 10 11
f 6 11 12
f 6 12 7
f 11 10 13
f 11 13 14
f 11 14 12
f 15 16 17
f 15 17 18
f 15 18 19
f 15 19 20
f 15 20 21
f 15 21 22
f 15 22 16
f 20 19 23
f 20 23 24
f 20 24 25
f 20 25 26
f 20 26 21
f 25 24 27
f 25 27 28
f 25 28 26
f 29 30 31
f 29 31 32
f 29 32 33
f 29 33 34
f 29 34 35
f 29 35 36
f 29 36 30
f 34 33 37
f 34 37 38
f 34 38 39
f 34 39 40
f 34 40 35
f 39 38 41
f 39 41 42
f 39 42 40
f 43 44 45
f 43 45 46
f 43 46 47
f 43 47 48
f 43 48 49
f 43 49 50
f 43 50 44
f 48 47 51
f 48 51 52
f 48 52 53
f 48 53 54
f 48 54 49
f 53 52 55
f 53 55 56
f 53 56 54
f 57 58 59
f 57 59 60
f 57 60 61
f 57 61 62
f 57 62 63
f 57 63 64
f 57 64 58
f 62 61 65
f 62 65 66
f 62 66 67
f 62 67 68
f 62 68 63
f 67 66 69
f 67 69 70
f 67 70 68
f 71 72 73
f 71 73 74
f 71 74 75
f 71 75 76
f 71 76 77
f 71 77 78
f 71 78 72
f 76 75 79
f 76 79 80
f 76 80 81
f 76 81 82
f 76 82 77
f 81 80 83
f 81 83 84
f 81 84 82
f 85 10 9
f 85 9 86
f 85 86 87
f 85 87 88
f 85 88 10
f 10 88 89
f 10 89 90
f 10 90 13
f 13 90 14
f 91 5 4
f 91 4 92
f 91 92 93
f 91 93 94
f 91 94 5
f 5 94 95
f 5 95 96
f 5 96 9
f 9 96 86
f 86 96 87
f 87 96 23
f 87 23 97
f 87 97 88
f 88 97 98
f 88 98 89
f 89 98 24
f 89 24 96
f 96 24 23
f 3 99 100
f 3 100 4
f 4 100 92
f 92 100 93
f 93 100 18
f 93 18 101
f 93 101 94
f 94 101 102
f 94 102 95
f 95 102 19
f 95 19 100
f 100 19 18
f 17 103 104
f 17 104 18
f 18 104 101
f 101 104 105
f 101 105 102
f 102 105 106
f 102 106 19
f 19 106 107
f 19 107 108
f 19 108 23
f 23 108 97
f 97 108 109
f 97 109 98
f 98 109 110
f 98 110 24
f 24 110 111
f 24 111 112
f 24 112 27
f 27 112 28
f 31 113 114
f 31 114 32
f 32 114 115
f 32 115 105
f 32 105 104
f 32 104 33
f 33 104 107
f 33 107 116
f 33 116 117
f 33 117 118
f 33 118 119
f 33 119 37
f 37 119 120
f 37 120 109
f 37 109 108
f 37 108 38
f 38 108 111
f 38 111 121
f 38 121 122
f 38 122 123
f 38 123 124
f 38 124 41
f 41 124 42
f 45 125 126
f 45 126 46
f 46 126 127
f 46 127 128
f 46 128 114
f 46 114 47
f 47 114 118
f 47 118 129
f 47 129 130
f 47 130 131
f 47 131 132
f 47 132 51
f 51 132 133
f 51 133 134
f 51 134 119
f 51 119 52
f 52 119 123
f 52 123 135
f 52 135 136
f 52 136 137
f 52 137 138
f 52 138 55
f 55 138 56
f 59 139 140
f 59 140 60
f 60 140 141
f 60 141 142
f 60 142 126
f 60 126 61
f 61 126 131
f 61 131 143
f 61 143 144
f 61 144 145
f 61 145 146
f 61 146 65
f 65 146 147
f 65 147 148
f 65 148 132
f 65 132 66
f 66 132 137
f 66 137 149
f 66 149 150
f 66 150 151
f 66 151 152
f 66 152 69
f 69 152 70
f 73 153 154
f 73 154 74
f 74 154 155
f 74 155 156
f 74 156 140
f 74 140 75
f 75 140 145
f 75 145 157
f 75 157 158
f 75 158 159
f 75 159 160
f 75 160 79
f 79 160 161
f 79 161 162
f 79 162 146
f 79 146 80
f 80 146 151
f 80 151 163
f 80 163 164
f 80 164 165
f 80 165 166
f 80 166 83
f 83 166 84
f 111 110 121
f 121 110 120
f 121 120 134
f 121 134 122
f 122 134 133
f 122 133 135
f 122 135 123
f 107 106 116
f 116 106 115
f 116 115 128
f 116 128 117
f 117 128 127
f 117 127 129
f 117 129 118
f 137 136 149
f 149 136 147
f 149 147 162
f 149 162 150
f 150 162 161
f 150 161 163
f 150 163 151
f 131 130 143
f 143 130 141
f 143 141 156
f 143 156 144
f 144 156 155
f 144 155 157
f 144 157 145
f 120 119 134
f 115 114 128
f 133 132 148
f 133 148 135
f 135 148 136
f 136 148 147
f 127 126 142
f 127 142 129
f 129 142 130
f 130 142 141
f 147 146 162
f 141 140 156
f 161 160 167
f 161 167 163
f 163 167 164
f 155 154 168
f 155 168 157
f 157 168 158
f 110 109 120
f 106 105 115
