# RS2 Model 14116
# Vertices: 205
# Faces: 378

v -11 10 0
v 10 10 0
v -1 -6 0
v -12 6 226
v 13 6 226
v 9 15 218
v -11 16 218
v -28 13 220
v -14 -10 226
v -27 -8 217
v -18 -16 218
v -6 -16 218
v 0 -13 215
v 11 -10 226
v 4 -16 218
v 16 -16 218
v 30 -8 217
v 30 13 220
v 15 22 191
v -16 23 192
v -36 11 222
v -35 -7 217
v -33 -11 190
v -23 -24 191
v -5 -24 191
v 0 -16 192
v 3 -24 191
v 22 -24 191
v 31 -11 188
v 32 -8 188
v 36 -7 219
v 35 1 221
v 49 5 217
v 54 10 201
v 33 15 192
v 31 17 191
v 29 8 182
v 12 17 174
v -15 15 175
v -33 16 190
v -34 15 191
v -58 10 198
v -50 5 214
v -47 -7 212
v -55 -8 196
v -35 -8 191
v -29 9 182
v -29 -9 182
v -22 -19 177
v -11 -22 177
v 0 -20 176
v 7 -22 177
v 21 -19 177
v 29 -9 182
v 38 12 183
v 44 -13 177
v 54 -8 197
v 47 -7 214
v 59 -13 179
v 62 12 185
v 62 8 165
v 45 7 163
v 46 -6 163
v -19 30 143
v -36 20 144
v -43 -11 143
v -30 -34 140
v -27 -28 154
v -14 -43 139
v -12 -37 159
v -4 -38 159
v 0 -37 159
v 3 -38 159
v 11 -37 159
v 26 -30 156
v 44 -11 143
v 1 -45 138
v 15 -43 138
v -19 -36 73
v 0 -35 62
v 8 -39 96
v 30 -39 140
v 39 18 143
v 20 29 143
v 15 18 103
v -16 18 94
v -34 8 110
v -40 -16 110
v -25 -38 92
v 40 -30 109
v 41 -16 110
v 39 18 108
v -46 7 163
v -45 10 148
v -63 10 150
v -62 8 165
v -40 12 183
v -47 -6 163
v -49 -10 148
v -53 4 121
v -62 4 119
v -62 -6 119
v -63 -8 150
v -62 -5 165
v -64 12 186
v -45 -13 177
v -58 -13 180
v -53 -6 121
v -46 8 106
v -64 8 104
v -64 -9 104
v -46 -9 106
v -48 7 100
v -58 7 99
v -58 -8 99
v -48 -8 100
v 62 -5 165
v 62 -8 150
v 62 10 150
v 44 10 148
v 48 -10 148
v 52 -6 121
v 61 -6 119
v 61 4 119
v 52 4 121
v 45 8 106
v 45 -9 106
v 63 -9 104
v 63 8 104
v 57 7 99
v 47 7 100
v 47 -8 100
v 57 -8 99
v 11 -47 8
v 26 -44 8
v 27 -14 14
v 10 -14 14
v 9 -43 0
v 28 -41 0
v 31 -18 0
v 5 -18 0
v 27 11 11
v 27 8 0
v 9 11 11
v 12 4 25
v 25 4 25
v 25 -10 25
v 12 -10 25
v 9 8 0
v 4 13 52
v 31 13 52
v 5 -18 52
v 8 -16 65
v 8 8 65
v 29 8 65
v 33 -14 52
v 29 -13 65
v 31 -23 73
v 5 -24 74
v 5 6 75
v 31 7 74
v 29 5 86
v 29 -16 86
v 8 -21 86
v 8 5 86
v 2 14 125
v 34 6 125
v 35 -21 125
v 2 -28 125
v -26 11 11
v -24 4 25
v -11 4 25
v -8 11 11
v -26 8 0
v -30 -18 0
v -26 -14 14
v -24 -10 25
v -31 13 52
v -3 13 52
v -4 -18 52
v -11 -10 25
v -9 -14 14
v -4 -18 0
v -8 8 0
v -10 -47 8
v -8 -43 0
v -25 -43 8
v -27 -39 0
v -29 -14 52
v -28 8 65
v -7 8 65
v -7 -16 65
v -28 -13 65
v -30 7 74
v -4 6 75
v -4 -24 74
v -30 -23 73
v -28 5 86
v -7 5 86
v -7 -21 86
v -28 -16 86
v -33 6 125
v -1 14 125
v -1 -28 125
v -34 -21 125

f 1 2 3
f 4 5 6
f 4 6 7
f 4 7 8
f 4 8 9
f 9 8 10
f 9 10 11
f 9 11 12
f 9 12 13
f 9 13 14
f 14 13 15
f 14 15 16
f 14 16 17
f 14 17 5
f 5 17 18
f 5 18 6
f 6 18 19
f 6 19 7
f 7 19 20
f 7 20 8
f 8 20 21
f 8 21 22
f 8 22 10
f 10 22 23
f 10 23 24
f 10 24 11
f 11 24 12
f 12 24 25
f 12 25 13
f 13 25 26
f 13 26 27
f 13 27 15
f 15 27 16
f 16 27 28
f 16 28 17
f 17 28 29
f 17 29 30
f 17 30 31
f 17 31 18
f 18 31 32
f 18 32 33
f 18 33 34
f 18 34 35
f 18 35 36
f 18 36 19
f 19 36 37
f 19 37 38
f 19 38 20
f 20 38 39
f 20 39 40
f 20 40 21
f 21 40 41
f 21 41 42
f 21 42 43
f 21 43 44
f 21 44 22
f 22 44 45
f 22 45 46
f 22 46 23
f 23 46 41
f 23 41 40
f 23 40 47
f 23 47 48
f 23 48 24
f 24 48 49
f 24 49 25
f 25 49 50
f 25 50 26
f 26 50 51
f 26 51 52
f 26 52 27
f 27 52 28
f 28 52 53
f 28 53 29
f 29 53 54
f 29 54 36
f 29 36 30
f 30 36 35
f 30 35 55
f 30 55 56
f 30 56 57
f 30 57 31
f 31 57 58
f 31 58 32
f 32 58 33
f 33 58 34
f 34 58 57
f 34 57 59
f 34 59 60
f 34 60 35
f 35 60 55
f 55 60 61
f 55 61 62
f 55 62 63
f 55 63 56
f 56 63 59
f 56 59 57
f 39 64 65
f 39 65 47
f 39 47 40
f 65 66 48
f 65 48 47
f 66 67 68
f 66 68 49
f 66 49 48
f 67 69 70
f 67 70 68
f 68 70 50
f 68 50 49
f 50 70 71
f 50 71 51
f 51 71 72
f 51 72 73
f 51 73 52
f 52 73 74
f 52 74 53
f 53 74 75
f 53 75 76
f 53 76 54
f 54 76 37
f 54 37 36
f 77 78 74
f 77 74 73
f 77 73 72
f 77 72 71
f 77 71 70
f 77 70 69
f 77 69 79
f 77 79 80
f 77 80 78
f 78 80 81
f 78 81 82
f 78 82 75
f 78 75 74
f 76 83 37
f 37 83 38
f 38 83 84
f 38 84 39
f 39 84 64
f 64 84 85
f 64 85 86
f 64 86 65
f 65 86 87
f 65 87 66
f 66 87 88
f 66 88 67
f 67 88 89
f 67 89 69
f 69 89 79
f 81 90 82
f 82 90 76
f 82 76 75
f 90 91 76
f 76 91 83
f 83 91 92
f 83 92 84
f 84 92 85
f 93 94 95
f 93 95 96
f 93 96 97
f 93 97 98
f 93 98 99
f 93 99 94
f 94 99 100
f 94 100 101
f 94 101 95
f 95 101 102
f 95 102 103
f 95 103 96
f 96 103 104
f 96 104 105
f 96 105 97
f 97 105 41
f 97 41 46
f 97 46 106
f 97 106 98
f 98 106 107
f 98 107 104
f 98 104 99
f 99 104 103
f 99 103 108
f 99 108 100
f 100 108 109
f 100 109 110
f 100 110 101
f 101 110 111
f 101 111 102
f 102 111 112
f 102 112 108
f 102 108 103
f 108 112 109
f 109 112 113
f 109 113 114
f 109 114 110
f 110 114 115
f 110 115 111
f 111 115 116
f 111 116 112
f 112 116 113
f 113 116 115
f 113 115 114
f 44 43 42
f 44 42 45
f 45 42 105
f 45 105 107
f 45 107 106
f 45 106 46
f 107 105 104
f 105 42 41
f 63 117 59
f 59 117 60
f 60 117 61
f 61 117 118
f 61 118 119
f 61 119 62
f 62 119 120
f 62 120 121
f 62 121 63
f 63 121 117
f 117 121 118
f 118 121 122
f 118 122 123
f 118 123 119
f 119 123 124
f 119 124 120
f 120 124 125
f 120 125 121
f 121 125 122
f 122 125 126
f 122 126 127
f 122 127 123
f 123 127 128
f 123 128 124
f 124 128 129
f 124 129 125
f 125 129 126
f 126 129 130
f 126 130 131
f 126 131 127
f 127 131 132
f 127 132 128
f 128 132 133
f 128 133 129
f 129 133 130
f 130 133 131
f 131 133 132
f 134 135 136
f 134 136 137
f 134 137 138
f 134 138 135
f 135 138 139
f 135 139 140
f 135 140 136
f 136 140 137
f 137 140 141
f 137 141 138
f 138 141 139
f 139 141 140
f 142 136 140
f 142 140 143
f 142 143 144
f 142 144 145
f 142 145 146
f 142 146 136
f 136 146 147
f 136 147 137
f 137 147 148
f 137 148 145
f 137 145 144
f 137 144 141
f 141 144 149
f 149 144 143
f 150 151 146
f 150 146 145
f 150 145 152
f 150 152 153
f 150 153 154
f 150 154 151
f 151 154 155
f 151 155 156
f 151 156 147
f 151 147 146
f 156 152 148
f 156 148 147
f 152 145 148
f 155 157 156
f 156 157 152
f 152 157 153
f 153 157 158
f 153 158 159
f 153 159 160
f 153 160 154
f 154 160 155
f 155 160 161
f 155 161 157
f 157 161 158
f 158 161 162
f 158 162 163
f 158 163 159
f 159 163 164
f 159 164 160
f 160 164 165
f 160 165 161
f 161 165 162
f 162 165 166
f 162 166 167
f 162 167 163
f 163 167 168
f 163 168 164
f 164 168 169
f 164 169 166
f 164 166 165
f 170 171 172
f 170 172 173
f 170 173 174
f 170 174 175
f 170 175 176
f 170 176 171
f 171 176 177
f 171 177 178
f 171 178 179
f 171 179 172
f 172 179 180
f 172 180 181
f 172 181 182
f 172 182 173
f 173 182 183
f 173 183 184
f 173 184 174
f 182 181 177
f 182 177 176
f 182 176 185
f 182 185 186
f 182 186 183
f 182 183 175
f 182 175 176
f 176 175 187
f 176 187 185
f 185 187 186
f 186 187 188
f 186 188 183
f 183 188 175
f 175 188 187
f 177 189 178
f 178 189 190
f 178 190 191
f 178 191 179
f 179 191 192
f 179 192 180
f 180 192 193
f 180 193 189
f 180 189 181
f 181 189 177
f 189 193 190
f 190 193 194
f 190 194 195
f 190 195 191
f 191 195 192
f 192 195 196
f 192 196 197
f 192 197 193
f 193 197 194
f 194 197 198
f 194 198 199
f 194 199 195
f 195 199 200
f 195 200 196
f 196 200 201
f 196 201 197
f 197 201 198
f 198 201 202
f 198 202 203
f 198 203 199
f 199 203 200
f 200 203 204
f 200 204 205
f 200 205 201
f 201 205 202
