# RS2 Model 14149
# Vertices: 253
# Faces: 476

v 59 -16 0
v 44 -72 0
v 48 -55 26
v 57 -35 21
v 74 -35 21
v 84 -16 0
v 57 -35 -32
v 48 -55 -32
v 52 -68 -32
v 56 -88 0
v 52 -68 21
v 42 -41 61
v 42 -23 62
v 60 -28 61
v 92 -37 31
v 101 -30 0
v 74 -35 -32
v 74 -88 0
v 67 -68 21
v 60 -38 61
v 44 -43 83
v 91 -50 31
v 101 -53 0
v 91 -50 -32
v 92 -37 -32
v 82 -68 0
v 73 -55 21
v 73 -55 -32
v 24 86 0
v 24 64 0
v 34 57 15
v 30 85 15
v 32 101 11
v 31 113 0
v 30 85 -32
v 34 57 -32
v 46 51 -32
v 37 44 0
v 46 51 15
v 36 60 38
v 31 74 41
v 50 106 11
v 54 113 0
v 50 106 -32
v 32 101 -32
v 68 86 15
v 67 90 0
v 68 86 -32
v 81 107 0
v 99 106 0
v 85 102 -32
v 93 88 -32
v 108 87 0
v 90 68 0
v 79 72 -32
v 67 65 0
v 65 70 -32
v 60 46 0
v 62 55 -32
v 62 55 15
v 65 64 40
v 55 55 42
v 31 45 57
v 11 59 62
v 32 79 62
v 41 88 39
v 55 91 40
v 71 102 60
v 85 102 20
v 65 70 15
v 62 82 40
v 57 72 58
v 38 54 70
v 35 36 67
v -17 44 75
v 23 73 67
v 33 70 67
v 46 84 58
v 54 93 67
v 76 95 60
v 93 88 21
v 79 72 12
v -25 25 21
v 7 11 21
v -8 30 0
v -40 33 0
v -66 15 0
v -45 24 33
v -5 17 58
v 8 -13 64
v 12 -10 21
v 22 9 0
v 7 11 -32
v -25 25 -32
v -45 24 -32
v -69 -18 0
v -58 -3 33
v -62 8 50
v -27 22 62
v 21 8 82
v 0 -4 110
v -21 -18 104
v -5 -35 61
v 3 -30 29
v 20 -26 0
v 3 -30 -32
v 12 -10 -32
v -48 -36 0
v -40 -27 21
v -40 -27 -32
v -45 -49 -32
v -42 -72 0
v -45 -49 29
v -46 -11 60
v -20 -35 21
v -9 -36 0
v -29 -27 60
v -41 -32 49
v -23 -59 28
v -17 -74 0
v -20 -35 -32
v -23 -59 -32
v 67 -68 -32
v -58 -3 -32
v 2 -78 183
v 1 -73 173
v 33 -60 171
v 33 -66 178
v -1 -77 188
v -10 -89 185
v -52 -48 146
v -30 -48 137
v -10 -57 178
v 1 -64 180
v 30 -51 175
v 90 -47 201
v 91 -57 196
v 90 -63 203
v 30 -62 184
v -1 -67 187
v -1 -75 229
v 8 -85 226
v 6 -95 222
v -29 -75 180
v -50 -28 152
v -32 22 115
v -43 12 106
v -45 -6 102
v -33 -19 109
v -24 -31 138
v -22 -56 176
v -24 -82 229
v -14 -76 229
v 30 -52 183
v 88 -48 209
v 139 -24 215
v 138 -22 211
v 142 -28 207
v 142 -33 212
v 89 -60 209
v -20 -94 229
v -31 -17 147
v -14 16 116
v -1 35 108
v -52 -22 49
v -13 -74 274
v -21 -67 266
v -17 -59 266
v 13 -90 231
v 26 -124 243
v 27 -134 240
v 0 -101 231
v -3 -95 239
v -2 -70 273
v 22 -45 301
v 16 -51 304
v -21 -67 281
v -25 -70 275
v -24 -65 271
v -22 -57 275
v -6 -55 274
v 2 -88 238
v 18 -137 243
v 15 -131 250
v 0 -64 273
v 20 -41 299
v -3 3 329
v -1 1 331
v -1 -2 333
v 11 -49 301
v -20 -62 281
v -41 -60 286
v -43 -66 286
v -48 -68 280
v -47 -61 276
v -43 -57 280
v 8 -45 298
v 16 -38 296
v -60 -51 303
v -59 -52 309
v -62 -58 309
v -63 -59 303
v -63 -52 299
v -97 -36 310
v -96 -31 314
v -94 -33 319
v -96 -37 319
v -96 -39 314
v -118 -36 351
v -119 -32 349
v -116 -28 351
v -114 -30 353
v -115 -33 353
v -158 -39 361
v -2 -5 331
v -3 -6 330
v -4 -2 330
v 142 -29 216
v 157 -33 212
v 157 -31 211
v 157 -30 208
v 157 -33 206
v 157 -36 208
v 45 -136 273
v 52 -130 273
v 21 -122 250
v 46 -141 265
v 99 -172 274
v 97 -170 278
v 101 -167 278
v 55 -131 265
v 53 -140 261
v 103 -173 271
v 156 -179 302
v 105 -166 274
v 66 82 67
v 54 69 75
v 39 57 85
v 13 23 103
v 22 15 94
v 23 34 118
v 8 8 126
v 25 55 80
v 9 45 123
v 34 65 90
v 42 80 77
v -3 22 130
v 185 -34 226
v 185 -32 227
v 185 -32 226
v 185 -31 226
v 185 -32 225
v 191 -32 226

f 1 2 3
f 1 3 4
f 1 4 5
f 1 5 6
f 1 6 7
f 1 7 2
f 2 7 8
f 2 8 9
f 2 9 10
f 2 10 3
f 3 10 11
f 3 11 12
f 3 12 4
f 4 12 13
f 4 13 14
f 4 14 5
f 5 14 15
f 5 15 6
f 6 15 16
f 6 16 17
f 6 17 7
f 11 10 18
f 11 18 19
f 11 19 12
f 12 19 20
f 12 20 21
f 12 21 13
f 13 21 14
f 14 21 20
f 14 20 22
f 14 22 15
f 15 22 23
f 15 23 16
f 16 23 24
f 16 24 25
f 16 25 17
f 26 27 19
f 26 19 18
f 26 18 28
f 26 28 24
f 26 24 23
f 26 23 27
f 27 23 22
f 27 22 20
f 27 20 19
f 29 30 31
f 29 31 32
f 29 32 33
f 29 33 34
f 29 34 35
f 29 35 30
f 30 35 36
f 30 36 37
f 30 37 38
f 30 38 31
f 31 38 39
f 31 39 40
f 31 40 32
f 32 40 41
f 32 41 33
f 33 41 42
f 33 42 43
f 33 43 34
f 34 43 44
f 34 44 45
f 34 45 35
f 43 42 46
f 43 46 47
f 43 47 44
f 44 47 48
f 48 47 49
f 48 49 50
f 48 50 51
f 51 50 52
f 52 50 53
f 52 53 54
f 52 54 55
f 55 54 56
f 55 56 57
f 57 56 58
f 57 58 59
f 59 58 37
f 37 58 38
f 38 58 60
f 38 60 39
f 39 60 61
f 39 61 62
f 39 62 40
f 40 62 63
f 40 63 64
f 40 64 41
f 41 64 65
f 41 65 66
f 41 66 42
f 42 66 67
f 42 67 46
f 46 67 68
f 46 68 69
f 46 69 49
f 46 49 47
f 60 58 56
f 60 56 70
f 60 70 61
f 61 70 71
f 61 71 72
f 61 72 62
f 62 72 73
f 62 73 74
f 62 74 63
f 63 74 64
f 64 74 75
f 64 75 76
f 64 76 65
f 65 76 77
f 65 77 78
f 65 78 66
f 66 78 67
f 67 78 79
f 67 79 68
f 68 79 80
f 68 80 81
f 68 81 69
f 69 81 53
f 69 53 50
f 69 50 49
f 54 82 70
f 54 70 56
f 83 84 85
f 83 85 86
f 83 86 87
f 83 87 88
f 83 88 89
f 83 89 84
f 84 89 90
f 84 90 91
f 84 91 85
f 85 91 92
f 85 92 93
f 85 93 86
f 86 93 94
f 86 94 95
f 86 95 87
f 87 95 96
f 87 96 97
f 87 97 88
f 88 97 98
f 88 98 99
f 88 99 89
f 89 99 75
f 89 75 100
f 89 100 90
f 90 100 101
f 90 101 102
f 90 102 103
f 90 103 104
f 90 104 91
f 91 104 105
f 91 105 92
f 92 105 106
f 92 106 107
f 92 107 93
f 108 109 97
f 108 97 96
f 108 96 110
f 108 110 111
f 108 111 112
f 108 112 109
f 109 112 113
f 109 113 114
f 109 114 98
f 109 98 97
f 115 116 105
f 115 105 104
f 115 104 117
f 115 117 118
f 115 118 119
f 115 119 116
f 116 119 120
f 116 120 121
f 116 121 106
f 116 106 105
f 119 113 112
f 119 112 120
f 120 112 111
f 120 111 122
f 120 122 121
f 82 54 53
f 82 53 81
f 82 81 71
f 82 71 70
f 123 18 10
f 123 10 9
f 18 123 28
f 96 95 124
f 96 124 110
f 125 126 127
f 125 127 128
f 125 128 129
f 125 129 130
f 125 130 126
f 126 130 131
f 126 131 132
f 126 132 133
f 126 133 134
f 126 134 135
f 126 135 127
f 127 135 136
f 127 136 137
f 127 137 128
f 128 137 138
f 128 138 139
f 128 139 129
f 129 139 140
f 129 140 141
f 129 141 142
f 129 142 130
f 130 142 143
f 130 143 144
f 130 144 131
f 131 144 145
f 131 145 146
f 131 146 147
f 131 147 148
f 131 148 132
f 132 148 149
f 132 149 102
f 132 102 150
f 132 150 133
f 133 150 151
f 133 151 152
f 133 152 153
f 133 153 140
f 133 140 134
f 134 140 154
f 134 154 135
f 135 154 155
f 135 155 136
f 136 155 156
f 136 156 157
f 136 157 137
f 137 157 158
f 137 158 138
f 138 158 159
f 138 159 160
f 138 160 139
f 139 160 154
f 139 154 140
f 144 143 161
f 144 161 151
f 144 151 162
f 144 162 145
f 145 162 163
f 145 163 146
f 146 163 164
f 146 164 76
f 146 76 75
f 146 75 147
f 147 75 99
f 147 99 98
f 147 98 114
f 147 114 148
f 148 114 165
f 148 165 149
f 149 165 118
f 149 118 102
f 102 118 117
f 102 117 103
f 103 117 104
f 151 161 152
f 152 161 166
f 152 166 167
f 152 167 153
f 153 167 168
f 153 168 141
f 153 141 140
f 143 169 170
f 143 170 171
f 143 171 172
f 143 172 161
f 161 172 173
f 161 173 174
f 161 174 166
f 166 174 175
f 166 175 176
f 166 176 177
f 166 177 178
f 166 178 167
f 167 178 179
f 167 179 168
f 168 179 180
f 168 180 181
f 168 181 141
f 141 181 182
f 141 182 169
f 141 169 142
f 142 169 143
f 172 171 183
f 172 183 173
f 173 183 184
f 173 184 182
f 173 182 185
f 173 185 174
f 174 185 186
f 174 186 175
f 175 186 187
f 175 187 188
f 175 188 176
f 176 188 189
f 176 189 190
f 176 190 177
f 177 190 191
f 177 191 192
f 177 192 193
f 177 193 178
f 178 193 194
f 178 194 179
f 179 194 195
f 179 195 180
f 180 195 196
f 180 196 191
f 180 191 181
f 181 191 197
f 181 197 198
f 181 198 185
f 181 185 182
f 191 196 192
f 192 196 199
f 192 199 200
f 192 200 193
f 193 200 201
f 193 201 194
f 194 201 202
f 194 202 195
f 195 202 203
f 195 203 196
f 196 203 199
f 199 203 204
f 199 204 205
f 199 205 200
f 200 205 206
f 200 206 201
f 201 206 207
f 201 207 202
f 202 207 208
f 202 208 203
f 203 208 204
f 204 208 209
f 204 209 210
f 204 210 205
f 205 210 211
f 205 211 206
f 206 211 212
f 206 212 207
f 207 212 213
f 207 213 208
f 208 213 209
f 209 213 214
f 209 214 210
f 210 214 211
f 211 214 212
f 212 214 213
f 191 190 197
f 197 190 215
f 197 215 216
f 197 216 198
f 198 216 217
f 198 217 186
f 198 186 185
f 186 217 187
f 187 217 189
f 187 189 188
f 190 189 215
f 215 189 216
f 216 189 217
f 160 155 154
f 155 160 218
f 155 218 156
f 156 218 219
f 156 219 220
f 156 220 157
f 157 220 221
f 157 221 158
f 158 221 222
f 158 222 159
f 159 222 223
f 159 223 218
f 159 218 160
f 224 225 226
f 224 226 184
f 224 184 227
f 224 227 228
f 224 228 229
f 224 229 225
f 225 229 230
f 225 230 231
f 225 231 170
f 225 170 226
f 226 170 169
f 226 169 182
f 226 182 184
f 227 184 183
f 227 183 232
f 227 232 233
f 227 233 228
f 228 233 234
f 228 234 229
f 229 234 230
f 230 234 235
f 230 235 231
f 231 235 232
f 231 232 171
f 231 171 170
f 232 183 171
f 235 233 232
f 233 235 234
f 20 22 15
f 118 165 113
f 118 113 119
f 114 113 165
f 71 81 80
f 71 80 72
f 72 80 236
f 72 236 73
f 73 236 237
f 73 237 238
f 73 238 239
f 73 239 240
f 73 240 74
f 74 240 100
f 74 100 75
f 101 240 239
f 101 239 241
f 101 241 242
f 101 242 162
f 101 162 150
f 101 150 102
f 100 240 101
f 243 77 76
f 243 76 164
f 243 164 244
f 243 244 245
f 243 245 77
f 77 245 246
f 77 246 78
f 78 246 79
f 79 246 236
f 79 236 80
f 237 246 245
f 237 245 238
f 238 245 241
f 238 241 239
f 236 246 237
f 241 245 244
f 241 244 247
f 241 247 242
f 242 247 162
f 162 247 163
f 163 247 164
f 164 247 244
f 150 162 151
f 218 223 219
f 219 223 248
f 219 248 249
f 219 249 220
f 220 249 250
f 220 250 221
f 221 250 251
f 221 251 222
f 222 251 252
f 222 252 223
f 223 252 248
f 248 252 253
f 248 253 249
f 249 253 250
f 250 253 251
f 251 253 252
