# RS2 Model 14147
# Vertices: 278
# Faces: 495

v -13 -18 221
v -21 -5 221
v -32 6 189
v -32 -8 189
v -21 -14 184
v -33 -27 177
v -15 -33 224
v 2 -26 240
v -11 -7 240
v -19 6 221
v -21 12 183
v -46 -21 123
v -42 -35 120
v -11 -37 125
v -22 -58 121
v -9 -66 125
v -19 -37 177
v 0 -38 221
v 13 -33 240
v 45 11 221
v 48 -3 220
v 58 -8 190
v 58 6 190
v 43 4 182
v 29 17 188
v 30 14 221
v 39 24 240
v 46 14 240
v 41 2 240
v 37 -12 221
v 43 -6 182
v 84 -7 145
v 79 14 145
v 53 2 139
v 30 23 129
v 24 13 127
v 14 27 116
v 17 31 186
v 15 25 223
v 25 23 240
v -13 21 221
v -19 35 177
v -33 24 178
v -14 11 240
v -5 15 240
v -3 20 221
v -6 31 184
v -30 17 117
v -37 4 117
v -20 -4 123
v -2 29 223
v 6 31 223
v 8 41 178
v -1 41 178
v -7 22 240
v 11 25 240
v 1 34 120
v -10 30 125
v -14 19 120
v -39 22 86
v -41 6 83
v -27 -1 78
v -52 -23 79
v 29 -19 184
v 27 -29 224
v 17 -34 189
v 36 -29 127
v 46 -33 122
v 57 -8 139
v -6 -34 183
v 8 -33 224
v 6 -54 117
v 14 -62 117
v 4 -71 157
v -2 -53 193
v 13 -40 221
v 26 -26 240
v 21 -39 221
v 15 -53 187
v 38 -16 240
v 36 -33 240
v 30 -36 240
v 23 -68 157
v 33 -46 127
v 29 -31 78
v 52 -34 95
v 64 -34 113
v 75 -3 124
v 89 -5 127
v -4 43 69
v -24 40 78
v -28 26 78
v -52 14 25
v -59 -2 25
v -31 -3 35
v -56 -37 43
v -67 -55 43
v -69 -36 92
v -66 -46 92
v -46 -49 75
v -15 -49 78
v -35 -81 78
v -25 -93 78
v -2 -72 68
v 25 -59 128
v 39 -58 75
v 43 -17 35
v 51 9 48
v 60 -12 75
v 90 -13 66
v 90 -22 100
v 105 0 117
v 83 20 127
v 112 51 99
v 88 44 102
v 99 25 117
v 116 27 110
v 131 19 96
v 132 29 81
v 127 60 58
v 106 78 88
v 81 73 88
v 76 50 93
v 75 34 100
v 70 8 121
v 121 7 110
v 130 -16 99
v 136 13 81
v 125 4 65
v 118 31 65
v 103 39 58
v 124 45 28
v 122 82 65
v 102 89 60
v 94 97 67
v 80 95 67
v 79 82 60
v 72 70 60
v 80 44 62
v 78 27 66
v 46 32 113
v 10 41 72
v 17 12 78
v 1 49 39
v -24 67 43
v 36 26 95
v 54 11 75
v 106 -24 102
v 114 -53 88
v 139 -42 88
v 149 -16 64
v 117 -11 58
v 128 -4 33
v 99 -23 21
v 89 -41 21
v 100 -27 62
v 94 -63 50
v 99 -33 93
v 118 -60 60
v 125 -71 57
v 139 -67 57
v 141 -54 60
v 161 -38 56
v 161 -29 26
v 148 -10 21
v 104 -6 0
v 85 -31 0
v 86 -63 0
v 105 -66 27
v 135 -64 17
v 9 -96 83
v 26 -90 83
v 37 -86 42
v 51 -73 42
v 56 -45 35
v 67 52 21
v 107 35 21
v 48 64 14
v 62 43 0
v 89 26 0
v 126 26 0
v 43 22 48
v 17 27 39
v -1 69 0
v -30 87 0
v -38 59 43
v 57 90 14
v 96 94 21
v 56 104 0
v 39 75 0
v 67 53 -32
v 107 36 -32
v 124 46 -32
v 144 58 0
v 132 68 21
v 117 87 21
v 123 105 29
v 99 112 31
v -32 25 35
v -78 16 0
v -78 0 0
v -30 -1 0
v -71 -44 0
v -82 -62 0
v -61 -65 43
v -4 -53 35
v -40 -62 43
v -2 -53 0
v -30 -101 0
v -17 -87 29
v -3 -93 29
v 21 -72 35
v 46 -107 0
v 64 -94 0
v 75 -48 0
v 48 -21 0
v 153 -51 21
v 151 -80 30
v 171 -67 30
v -53 -72 0
v -4 -53 -32
v -17 -87 -32
v -3 -93 -32
v -15 -110 0
v 19 -87 0
v 37 -86 -32
v 51 -73 -32
v 56 -45 -32
v 43 -17 -32
v 51 9 -32
v 70 16 0
v 58 36 0
v 15 34 0
v 1 49 -32
v -24 67 -32
v -50 76 0
v -47 29 0
v -52 14 -32
v -59 -2 -32
v -31 -3 -32
v -56 -37 -32
v -67 -55 -32
v -74 -74 0
v -40 -62 -32
v 43 22 -32
v 17 27 -32
v 57 91 -32
v 48 65 -32
v 93 104 0
v 96 95 -32
v 117 123 0
v 99 113 -32
v 123 106 -32
v 137 110 0
v 125 84 0
v 117 88 -32
v 132 69 -32
v -32 25 -32
v -38 59 -32
v 128 -3 -32
v 99 -22 -32
v 89 -40 -32
v 112 -83 0
v 138 -75 0
v 172 -90 0
v 187 -70 0
v 159 -43 0
v 167 -13 0
v 138 8 0
v 148 -9 -32
v 161 -28 -32
v 153 -50 -32
v 171 -66 -32
v 151 -79 -32
v 135 -63 -32
v 105 -65 -32
v 21 -72 -32
v -61 -65 -32

f 1 2 3
f 1 3 4
f 1 4 5
f 1 5 6
f 1 6 7
f 1 7 8
f 1 8 9
f 1 9 2
f 2 9 10
f 2 10 3
f 3 10 11
f 3 11 12
f 3 12 4
f 4 12 13
f 4 13 14
f 4 14 5
f 5 14 15
f 5 15 6
f 6 15 16
f 6 16 17
f 6 17 7
f 7 17 18
f 7 18 19
f 7 19 8
f 20 21 22
f 20 22 23
f 20 23 24
f 20 24 25
f 20 25 26
f 20 26 27
f 20 27 28
f 20 28 21
f 21 28 29
f 21 29 30
f 21 30 31
f 21 31 22
f 22 31 32
f 22 32 23
f 23 32 33
f 23 33 34
f 23 34 24
f 24 34 35
f 24 35 25
f 25 35 36
f 25 36 37
f 25 37 38
f 25 38 26
f 26 38 39
f 26 39 40
f 26 40 27
f 41 42 43
f 41 43 10
f 41 10 44
f 41 44 45
f 41 45 46
f 41 46 42
f 42 46 47
f 42 47 48
f 42 48 43
f 43 48 49
f 43 49 50
f 43 50 11
f 43 11 10
f 51 52 53
f 51 53 54
f 51 54 47
f 51 47 46
f 51 46 55
f 51 55 52
f 52 55 56
f 52 56 39
f 52 39 53
f 53 39 38
f 53 38 57
f 53 57 54
f 54 57 58
f 54 58 59
f 54 59 47
f 47 59 48
f 48 59 60
f 48 60 61
f 48 61 49
f 49 61 62
f 49 62 50
f 50 62 63
f 50 63 12
f 50 12 11
f 64 30 65
f 64 65 66
f 64 66 67
f 64 67 68
f 64 68 69
f 64 69 31
f 64 31 30
f 70 71 18
f 70 18 17
f 70 17 72
f 70 72 73
f 70 73 74
f 70 74 75
f 70 75 71
f 71 75 76
f 71 76 77
f 71 77 19
f 71 19 18
f 78 76 75
f 78 75 79
f 78 79 65
f 78 65 80
f 78 80 81
f 78 81 76
f 76 81 82
f 76 82 77
f 66 65 79
f 66 79 83
f 66 83 84
f 66 84 67
f 67 84 85
f 67 85 86
f 67 86 68
f 68 86 87
f 68 87 88
f 68 88 69
f 69 88 89
f 69 89 32
f 69 32 31
f 65 30 29
f 65 29 80
f 9 44 10
f 45 55 46
f 56 40 39
f 57 38 37
f 57 37 90
f 57 90 58
f 58 90 91
f 58 91 92
f 58 92 59
f 59 92 60
f 60 92 93
f 60 93 94
f 60 94 61
f 61 94 95
f 61 95 62
f 62 95 96
f 62 96 63
f 63 96 97
f 63 97 98
f 63 98 12
f 12 98 13
f 13 98 99
f 13 99 100
f 13 100 101
f 13 101 14
f 14 101 102
f 14 102 15
f 15 102 103
f 15 103 16
f 16 103 104
f 16 104 72
f 16 72 17
f 73 105 83
f 73 83 74
f 74 83 79
f 74 79 75
f 84 83 105
f 84 105 106
f 84 106 85
f 85 106 107
f 85 107 108
f 85 108 109
f 85 109 86
f 86 109 110
f 86 110 87
f 87 110 111
f 87 111 88
f 88 111 112
f 88 112 89
f 89 112 113
f 89 113 33
f 89 33 32
f 114 115 116
f 114 116 117
f 114 117 118
f 114 118 119
f 114 119 120
f 114 120 121
f 114 121 115
f 115 121 122
f 115 122 123
f 115 123 124
f 115 124 116
f 116 124 125
f 116 125 113
f 116 113 112
f 116 112 126
f 116 126 117
f 117 126 118
f 118 126 127
f 118 127 128
f 118 128 119
f 119 128 129
f 119 129 130
f 119 130 120
f 120 130 131
f 120 131 132
f 120 132 133
f 120 133 121
f 121 133 134
f 121 134 135
f 121 135 122
f 122 135 136
f 122 136 137
f 122 137 138
f 122 138 123
f 123 138 139
f 123 139 140
f 123 140 124
f 124 140 141
f 124 141 125
f 125 141 34
f 125 34 33
f 125 33 113
f 142 37 36
f 142 36 143
f 142 143 144
f 142 144 145
f 142 145 90
f 142 90 37
f 141 146 35
f 141 35 34
f 146 141 140
f 146 140 147
f 146 147 143
f 146 143 35
f 35 143 36
f 126 112 148
f 126 148 127
f 127 148 149
f 127 149 150
f 127 150 151
f 127 151 128
f 128 151 129
f 129 151 152
f 152 151 153
f 152 153 154
f 152 154 155
f 152 155 156
f 156 155 157
f 156 157 158
f 156 158 111
f 156 111 110
f 148 158 149
f 149 158 159
f 149 159 160
f 149 160 150
f 150 160 161
f 150 161 162
f 150 162 163
f 150 163 151
f 151 163 164
f 151 164 165
f 151 165 153
f 153 165 166
f 153 166 154
f 154 166 167
f 154 167 168
f 154 168 155
f 155 168 169
f 155 169 157
f 157 169 170
f 157 170 159
f 157 159 158
f 171 172 105
f 171 105 73
f 171 73 72
f 171 72 104
f 171 104 173
f 171 173 172
f 172 173 174
f 172 174 175
f 172 175 106
f 172 106 105
f 111 148 112
f 148 111 158
f 176 177 131
f 176 131 139
f 176 139 178
f 176 178 179
f 176 179 177
f 177 179 180
f 177 180 181
f 177 181 132
f 177 132 131
f 147 109 108
f 147 108 182
f 147 182 183
f 147 183 143
f 143 183 144
f 144 183 184
f 144 184 185
f 144 185 145
f 145 185 186
f 145 186 91
f 145 91 90
f 187 178 139
f 187 139 138
f 187 138 137
f 187 137 188
f 187 188 189
f 187 189 178
f 178 189 190
f 178 190 179
f 179 190 191
f 179 191 180
f 180 191 192
f 180 192 193
f 180 193 181
f 181 193 194
f 181 194 195
f 181 195 132
f 132 195 133
f 133 195 196
f 133 196 134
f 134 196 197
f 134 197 135
f 135 197 136
f 136 197 198
f 136 198 188
f 136 188 137
f 93 92 199
f 93 199 200
f 93 200 201
f 93 201 94
f 94 201 202
f 94 202 95
f 95 202 203
f 95 203 96
f 96 203 204
f 96 204 97
f 97 204 205
f 97 205 99
f 97 99 98
f 91 186 199
f 91 199 92
f 206 101 100
f 206 100 207
f 206 207 208
f 206 208 209
f 206 209 210
f 206 210 101
f 101 210 102
f 102 210 211
f 102 211 103
f 103 211 212
f 103 212 104
f 104 212 173
f 173 212 213
f 173 213 174
f 174 213 214
f 174 214 215
f 174 215 175
f 175 215 216
f 175 216 107
f 175 107 106
f 162 217 164
f 162 164 163
f 161 160 218
f 161 218 219
f 161 219 217
f 161 217 162
f 159 170 218
f 159 218 160
f 207 100 99
f 207 99 205
f 207 205 220
f 207 220 208
f 208 220 221
f 208 221 222
f 208 222 209
f 209 222 223
f 209 223 224
f 209 224 210
f 210 224 211
f 211 224 225
f 211 225 212
f 212 225 213
f 213 225 226
f 213 226 214
f 214 226 227
f 214 227 228
f 214 228 215
f 215 228 229
f 215 229 216
f 216 229 230
f 216 230 231
f 216 231 107
f 107 231 108
f 108 231 182
f 182 231 232
f 182 232 233
f 182 233 183
f 183 233 184
f 184 233 234
f 184 234 235
f 184 235 185
f 185 235 236
f 185 236 186
f 186 236 237
f 186 237 199
f 199 237 200
f 200 237 238
f 200 238 239
f 200 239 201
f 201 239 240
f 201 240 202
f 202 240 241
f 202 241 203
f 203 241 242
f 203 242 204
f 204 242 243
f 204 243 205
f 205 243 220
f 220 243 244
f 220 244 221
f 230 245 232
f 230 232 231
f 246 233 232
f 246 232 245
f 233 246 234
f 247 248 190
f 247 190 189
f 247 189 249
f 247 249 250
f 250 249 251
f 250 251 252
f 252 251 253
f 253 251 254
f 253 254 255
f 253 255 256
f 256 255 194
f 256 194 257
f 257 194 193
f 191 190 248
f 237 258 238
f 258 237 236
f 258 236 259
f 259 236 235
f 167 166 260
f 167 260 261
f 167 261 262
f 167 262 168
f 168 262 263
f 168 263 169
f 169 263 264
f 169 264 170
f 170 264 265
f 170 265 218
f 218 265 219
f 219 265 266
f 219 266 267
f 219 267 217
f 217 267 268
f 217 268 164
f 164 268 165
f 165 268 269
f 165 269 166
f 166 269 260
f 260 269 270
f 270 269 271
f 271 269 268
f 271 268 267
f 271 267 272
f 272 267 266
f 272 266 273
f 273 266 274
f 274 266 265
f 274 265 264
f 274 264 275
f 275 264 263
f 275 263 276
f 276 263 262
f 224 223 277
f 224 277 225
f 225 277 226
f 242 278 243
f 243 278 244
f 189 188 249
f 249 188 198
f 249 198 251
f 251 198 254
f 254 198 197
f 254 197 196
f 254 196 255
f 255 196 195
f 255 195 194
