# RS2 Model 14167
# Vertices: 256
# Faces: 342

v 39 -41 22
v 36 -44 22
v 34 -40 27
v 40 -43 25
v 41 -46 20
v 40 -45 19
v 39 -47 19
v 37 -45 24
v 40 -47 20
v 45 -46 12
v 45 -44 10
v 44 -43 10
v 44 -46 12
v -49 -71 34
v -49 -75 34
v -47 -73 36
v -46 -71 32
v -47 -72 32
v -48 -72 33
v -48 -74 33
v -46 -75 32
v -47 -74 32
v -47 -65 12
v -46 -64 12
v -49 -65 13
v -49 -66 13
v -59 61 20
v -60 58 21
v -59 60 24
v -58 61 21
v -57 58 21
v -58 58 21
v -58 57 21
v -57 59 23
v -57 57 21
v -52 53 0
v -50 55 0
v -51 56 0
v -52 54 0
v -74 67 0
v -70 71 0
v -79 81 14
v -84 78 13
v -85 90 11
v -88 88 10
v -86 92 2
v -83 59 0
v -83 64 0
v -94 63 10
v -94 59 9
v -104 63 8
v -59 -49 0
v -56 -45 0
v -69 -40 8
v -71 -44 8
v -80 -38 1
v 4 -33 0
v 0 -31 0
v -11 -47 12
v -8 -51 11
v -14 -51 7
v -15 -49 7
v -10 -43 2
v 73 66 14
v 65 55 0
v 70 52 0
v 79 65 13
v 79 76 13
v 76 76 14
v 76 76 7
v 75 77 7
v 72 70 1
v 75 24 0
v 74 19 0
v 89 16 5
v 89 20 6
v 97 19 4
v 49 -62 0
v 46 -66 0
v 55 -76 8
v 58 -73 8
v 67 -82 10
v 69 -78 10
v 65 -78 3
v -59 -39 0
v -57 -36 0
v -62 -33 16
v -63 -34 17
v -72 -27 28
v -71 -24 28
v -79 -18 32
v -80 -20 32
v -88 -12 27
v -20 59 0
v -18 57 0
v -11 67 16
v -12 68 16
v -6 73 21
v 51 -25 0
v 52 -27 0
v 74 -21 12
v 73 -19 12
v 83 -17 7
v 78 46 0
v 80 44 0
v 100 56 6
v 98 57 6
v 107 62 4
v -29 -61 0
v -31 -63 0
v -18 -79 28
v -17 -77 28
v -9 -85 31
v -10 -87 31
v -2 -91 26
v -49 -77 0
v -51 -75 0
v -56 -79 15
v -53 -82 16
v -61 -89 29
v -63 -88 29
v -70 -97 33
v -68 -98 33
v -75 -104 29
v -47 -86 0
v -49 -85 0
v -60 -105 13
v -59 -106 14
v -64 -114 10
v 44 -69 0
v 41 -70 0
v 46 -93 12
v 47 -92 13
v 50 -101 9
v -39 49 0
v -36 47 0
v -32 52 23
v -33 53 24
v -27 68 29
v -25 67 29
v -24 78 26
v 28 -5 13
v 29 -9 14
v 23 -12 0
v 21 -8 0
v 31 -7 34
v 52 10 0
v 50 7 0
v 67 -3 26
v 68 -1 27
v 79 -5 30
v 78 -7 30
v 87 -10 25
v 16 -47 0
v 13 -48 0
v 19 -54 23
v 21 -52 23
v 25 -58 25
v 23 -59 25
v 27 -67 20
v 62 -46 1
v 60 -48 0
v 83 -60 14
v 84 -57 14
v 91 -62 8
v 38 38 0
v 39 40 0
v 34 42 16
v 33 39 17
v 24 42 29
v 24 45 29
v 13 48 33
v 14 45 33
v 4 50 29
v 45 51 0
v 48 51 0
v 48 58 24
v 46 58 24
v 46 73 30
v 49 74 30
v 50 82 28
v -49 67 0
v -47 68 0
v -50 79 22
v -51 78 21
v -55 88 26
v -52 -69 0
v -53 -66 0
v -59 -68 15
v -58 -71 15
v -72 -76 25
v -74 44 0
v -76 48 0
v -85 37 8
v -83 35 8
v -90 25 3
v -38 -2 0
v -39 1 0
v -45 -10 8
v -70 37 0
v -71 39 0
v -73 32 16
v -71 32 17
v -73 22 29
v -76 22 29
v -79 12 33
v -76 13 33
v -80 3 29
v 56 58 7
v 53 44 19
v 58 49 19
v 56 37 24
v 62 42 24
v 64 34 17
v 62 33 10
v 61 34 10
v 67 34 24
v 68 34 24
v 62 31 10
v 58 38 0
v 58 39 0
v 56 39 0
v 67 32 24
v 67 31 26
v 67 35 26
v 70 35 25
v 68 32 24
v 70 31 25
v 72 33 28
v 57 38 0
v 48 -70 6
v 52 -57 18
v 47 -61 18
v 50 -50 24
v 43 -54 24
v 42 -46 16
v 49 -50 0
v 45 -50 0
v 46 -53 0
v 49 -53 0
v -63 32 2
v -52 41 10
v -59 40 10
v -50 47 12
v -58 48 11
v -52 55 4
v -23 -57 17
v -37 -56 29
v -31 -60 29
v -43 -59 35
v -38 -65 35
v -46 -67 27
v -43 -62 0
v -42 -63 0
v -41 -63 0
v -42 -62 0

f 1 2 3
f 1 3 4
f 1 4 5
f 1 5 6
f 1 6 2
f 2 6 7
f 2 7 8
f 2 8 3
f 3 8 4
f 4 8 9
f 4 9 5
f 5 9 10
f 5 10 11
f 5 11 6
f 6 11 12
f 6 12 7
f 7 12 13
f 7 13 9
f 7 9 8
f 14 15 16
f 14 16 17
f 14 17 18
f 14 18 19
f 14 19 15
f 15 19 20
f 15 20 21
f 15 21 16
f 16 21 17
f 17 21 22
f 17 22 18
f 18 22 23
f 18 23 24
f 18 24 19
f 19 24 25
f 19 25 20
f 20 25 26
f 20 26 22
f 20 22 21
f 27 28 29
f 27 29 30
f 27 30 31
f 27 31 32
f 27 32 28
f 28 32 33
f 28 33 34
f 28 34 29
f 29 34 30
f 30 34 35
f 30 35 31
f 31 35 36
f 31 36 37
f 31 37 32
f 32 37 38
f 32 38 33
f 33 38 39
f 33 39 35
f 33 35 34
f 40 41 42
f 40 42 43
f 40 43 41
f 41 43 42
f 43 42 44
f 43 44 45
f 45 44 46
f 45 46 44
f 47 48 49
f 47 49 50
f 47 50 48
f 48 50 49
f 50 49 51
f 52 53 54
f 52 54 55
f 52 55 53
f 53 55 54
f 55 54 56
f 57 58 59
f 57 59 60
f 57 60 58
f 58 60 59
f 59 60 61
f 59 61 62
f 59 62 60
f 60 62 61
f 61 62 63
f 61 63 62
f 64 65 66
f 64 66 67
f 64 67 68
f 64 68 69
f 69 68 70
f 69 70 71
f 69 71 68
f 68 71 70
f 70 71 72
f 70 72 71
f 66 65 64
f 66 64 67
f 73 74 75
f 73 75 76
f 73 76 74
f 74 76 75
f 76 75 77
f 78 79 80
f 78 80 81
f 78 81 79
f 79 81 80
f 81 80 82
f 81 82 83
f 83 82 84
f 83 84 82
f 85 86 87
f 85 87 88
f 85 88 86
f 86 88 87
f 87 88 89
f 87 89 90
f 87 90 88
f 88 90 89
f 89 90 91
f 89 91 92
f 89 92 90
f 90 92 91
f 91 92 93
f 91 93 92
f 94 95 96
f 94 96 97
f 94 97 95
f 95 97 96
f 96 97 98
f 96 98 97
f 99 100 101
f 99 101 102
f 99 102 100
f 100 102 101
f 101 102 103
f 101 103 102
f 104 105 106
f 104 106 107
f 104 107 105
f 105 107 106
f 106 107 108
f 106 108 107
f 109 110 111
f 109 111 112
f 109 112 110
f 110 112 111
f 111 112 113
f 111 113 114
f 111 114 112
f 112 114 113
f 113 114 115
f 113 115 114
f 116 117 118
f 116 118 119
f 116 119 117
f 117 119 118
f 118 119 120
f 118 120 121
f 118 121 119
f 119 121 120
f 120 121 122
f 120 122 123
f 120 123 121
f 121 123 122
f 122 123 124
f 122 124 123
f 125 126 127
f 125 127 128
f 125 128 126
f 126 128 127
f 127 128 129
f 127 129 128
f 130 131 132
f 130 132 133
f 130 133 131
f 131 133 132
f 132 133 134
f 132 134 133
f 135 136 137
f 135 137 138
f 135 138 136
f 136 138 137
f 137 138 139
f 137 139 140
f 137 140 138
f 138 140 139
f 139 140 141
f 139 141 140
f 142 143 144
f 142 144 145
f 142 145 143
f 142 143 146
f 142 146 143
f 145 144 143
f 147 148 149
f 147 149 150
f 147 150 148
f 148 150 149
f 149 150 151
f 149 151 152
f 149 152 150
f 150 152 151
f 151 152 153
f 151 153 152
f 154 155 156
f 154 156 157
f 154 157 155
f 155 157 156
f 156 157 158
f 156 158 159
f 156 159 157
f 157 159 158
f 158 159 160
f 158 160 159
f 161 162 163
f 161 163 164
f 161 164 162
f 162 164 163
f 163 164 165
f 163 165 164
f 166 167 168
f 166 168 169
f 166 169 167
f 167 169 168
f 168 169 170
f 168 170 171
f 168 171 169
f 169 171 170
f 170 171 172
f 170 172 173
f 170 173 171
f 171 173 172
f 172 173 174
f 172 174 173
f 175 176 177
f 175 177 178
f 175 178 176
f 176 178 177
f 177 178 179
f 177 179 180
f 177 180 178
f 178 180 179
f 179 180 181
f 179 181 180
f 182 183 184
f 182 184 185
f 182 185 183
f 183 185 184
f 184 185 186
f 184 186 185
f 187 188 189
f 187 189 190
f 187 190 188
f 188 190 189
f 189 190 191
f 189 191 190
f 192 193 194
f 192 194 195
f 192 195 193
f 193 195 194
f 195 194 196
f 197 198 199
f 197 199 198
f 200 201 202
f 200 202 203
f 200 203 201
f 201 203 202
f 202 203 204
f 202 204 205
f 202 205 203
f 203 205 204
f 204 205 206
f 204 206 207
f 204 207 205
f 205 207 206
f 206 207 208
f 206 208 207
f 209 210 211
f 211 210 212
f 211 212 213
f 213 212 214
f 215 216 217
f 215 217 218
f 215 218 219
f 215 219 220
f 215 220 221
f 215 221 216
f 216 221 222
f 216 222 219
f 216 219 223
f 216 223 217
f 217 223 224
f 217 224 225
f 217 225 218
f 218 225 226
f 218 226 227
f 218 227 219
f 219 227 223
f 223 227 228
f 223 228 224
f 224 228 229
f 224 229 225
f 225 229 226
f 226 229 228
f 226 228 227
f 230 220 219
f 230 219 222
f 231 232 233
f 233 232 234
f 233 234 235
f 235 234 236
f 12 13 10
f 12 10 11
f 12 11 237
f 12 237 238
f 12 238 13
f 13 238 239
f 13 239 10
f 13 10 9
f 239 240 10
f 10 240 11
f 11 240 237
f 241 242 243
f 243 242 244
f 243 244 245
f 245 244 246
f 39 36 35
f 247 248 249
f 249 248 250
f 249 250 251
f 251 250 252
f 26 23 24
f 26 24 25
f 26 25 253
f 26 253 254
f 26 254 23
f 26 23 22
f 255 256 24
f 255 24 23
f 255 23 254
f 256 253 25
f 256 25 24
