# RS2 Model 14170
# Vertices: 121
# Faces: 242

v -36 -11 60
v -37 -6 58
v -41 -6 61
v -40 -11 62
v -38 -14 65
v -34 -14 63
v -34 -20 63
v -36 -16 58
v -40 -10 54
v -41 -4 53
v -37 -1 58
v -41 -1 61
v -44 -10 57
v -41 -16 61
v -38 -20 65
v -36 -15 67
v -32 -15 65
v -31 -20 66
v -33 -23 67
v -36 -23 63
v -39 -18 57
v -43 -11 53
v -44 -4 52
v -43 4 53
v -40 4 54
v -36 4 60
v -40 2 62
v -44 4 57
v -45 -4 56
v -35 -21 69
v -35 -15 69
v -31 -15 67
v -29 -19 70
v -31 -22 72
v -33 -20 73
v -30 -19 77
v -33 -15 73
v -29 -14 70
v -27 -19 74
v -28 -22 76
v -26 -16 80
v -28 -14 81
v -30 -13 77
v -27 -13 74
v -24 -14 78
v -22 -10 86
v -25 -9 85
v -29 -9 80
v -24 -9 77
v -21 -9 83
v -21 0 83
v -22 0 86
v -25 0 85
v -28 -4 81
v -24 -4 78
v -24 -1 78
v -25 2 76
v -23 6 80
v -24 6 82
v -27 6 83
v -29 -1 81
v -30 2 78
v -30 3 76
v -27 4 74
v -27 9 74
v -27 9 77
v -30 9 77
v -33 8 79
v -31 16 68
v -34 18 69
v -28 17 76
v -27 15 74
v -29 10 70
v -31 9 67
v -34 15 62
v -36 17 63
v -38 15 65
v -36 16 70
v -30 15 77
v -28 17 81
v -25 19 80
v -24 17 78
v -22 12 81
v -24 11 78
v -29 5 70
v -31 4 67
v -34 8 62
v -38 10 57
v -41 11 56
v -42 10 60
v -38 8 65
v -36 9 69
v -33 9 73
v -29 11 81
v -26 12 84
v -25 15 85
v -27 20 83
v -24 23 82
v -23 20 80
v -21 15 83
v -23 12 84
v -26 10 80
v -22 19 83
v -23 21 86
v -22 16 87
v -33 3 64
v -35 0 62
v -39 -2 65
v -42 0 67
v -43 4 64
v -33 3 74
v -35 3 70
v -37 2 68
v -36 4 75
v -33 3 78
v -36 9 75
v -38 4 71
v -40 3 68
v -39 9 71
v -41 8 67
v -26 19 85

f 1 2 3
f 1 3 4
f 1 4 5
f 1 5 6
f 1 6 7
f 1 7 8
f 1 8 9
f 1 9 2
f 2 9 10
f 2 10 11
f 2 11 3
f 3 11 12
f 3 12 13
f 3 13 4
f 4 13 14
f 4 14 15
f 4 15 5
f 5 15 16
f 5 16 6
f 6 16 17
f 6 17 7
f 7 17 18
f 7 18 19
f 7 19 20
f 7 20 21
f 7 21 8
f 8 21 9
f 9 21 22
f 9 22 10
f 10 22 23
f 10 23 24
f 10 24 25
f 10 25 11
f 11 25 26
f 11 26 27
f 11 27 12
f 12 27 28
f 12 28 29
f 12 29 13
f 13 29 23
f 13 23 22
f 13 22 14
f 14 22 21
f 14 21 15
f 15 21 20
f 15 20 19
f 15 19 30
f 15 30 16
f 16 30 31
f 16 31 17
f 17 31 32
f 17 32 18
f 18 32 33
f 18 33 34
f 18 34 19
f 19 34 30
f 30 34 35
f 30 35 31
f 31 35 36
f 31 36 37
f 31 37 32
f 32 37 38
f 32 38 39
f 32 39 33
f 33 39 34
f 34 39 40
f 34 40 35
f 35 40 36
f 36 40 41
f 36 41 42
f 36 42 43
f 36 43 37
f 37 43 44
f 37 44 38
f 38 44 39
f 39 44 45
f 39 45 40
f 40 45 41
f 41 45 46
f 41 46 47
f 41 47 42
f 42 47 43
f 43 47 48
f 43 48 44
f 44 48 49
f 44 49 50
f 44 50 45
f 45 50 46
f 46 50 51
f 46 51 52
f 46 52 53
f 46 53 47
f 47 53 54
f 47 54 48
f 48 54 55
f 48 55 49
f 49 55 50
f 50 55 51
f 51 55 56
f 51 56 57
f 51 57 58
f 51 58 52
f 52 58 59
f 52 59 53
f 53 59 60
f 53 60 54
f 54 60 61
f 54 61 55
f 55 61 56
f 56 61 57
f 57 61 62
f 57 62 63
f 57 63 64
f 57 64 65
f 57 65 58
f 58 65 66
f 58 66 59
f 59 66 67
f 59 67 60
f 60 67 68
f 60 68 62
f 60 62 61
f 69 70 71
f 69 71 72
f 69 72 73
f 69 73 74
f 69 74 75
f 69 75 70
f 70 75 76
f 70 76 77
f 70 77 78
f 70 78 79
f 70 79 71
f 71 79 80
f 71 80 81
f 71 81 82
f 71 82 72
f 72 82 83
f 72 83 84
f 72 84 65
f 72 65 73
f 73 65 64
f 73 64 85
f 73 85 74
f 74 85 86
f 74 86 87
f 74 87 75
f 75 87 88
f 75 88 76
f 76 88 89
f 76 89 90
f 76 90 77
f 77 90 91
f 77 91 92
f 77 92 93
f 77 93 78
f 78 93 79
f 79 93 67
f 79 67 94
f 79 94 95
f 79 95 80
f 80 95 96
f 80 96 97
f 80 97 81
f 81 97 98
f 81 98 99
f 81 99 82
f 82 99 100
f 82 100 83
f 83 100 101
f 83 101 102
f 83 102 84
f 84 102 66
f 84 66 65
f 100 103 104
f 100 104 105
f 100 105 101
f 101 105 96
f 101 96 95
f 101 95 102
f 102 95 94
f 102 94 67
f 102 67 66
f 24 89 88
f 24 88 25
f 25 88 26
f 26 88 87
f 26 87 106
f 26 106 107
f 26 107 27
f 27 107 108
f 27 108 109
f 27 109 110
f 27 110 91
f 27 91 28
f 28 91 90
f 28 90 89
f 28 89 24
f 28 24 29
f 29 24 23
f 63 111 85
f 63 85 64
f 106 86 112
f 106 112 113
f 106 113 108
f 106 108 107
f 85 111 112
f 85 112 86
f 86 106 87
f 114 115 68
f 114 68 116
f 114 116 117
f 114 117 112
f 114 112 111
f 114 111 115
f 115 111 63
f 115 63 62
f 115 62 68
f 118 117 119
f 118 119 120
f 118 120 109
f 118 109 108
f 118 108 113
f 118 113 117
f 117 113 112
f 109 120 110
f 110 120 91
f 91 120 92
f 92 120 119
f 92 119 93
f 93 119 116
f 93 116 67
f 67 116 68
f 117 116 119
f 97 121 104
f 97 104 98
f 98 104 99
f 99 104 103
f 99 103 100
f 96 105 104
f 96 104 121
f 96 121 97
