# RS2 Model 14187
# Vertices: 238
# Faces: 364

v 2 -16 133
v 2 -15 141
v 0 -16 141
v 0 -16 133
v 0 -16 128
v 2 -16 128
v 14 -13 133
v 15 -13 140
v 2 -12 155
v 0 -12 157
v -2 -12 155
v -2 -16 141
v -2 -16 133
v -2 -16 128
v -11 -11 114
v 0 -16 114
v 12 -12 114
v 12 -11 112
v 16 0 112
v 16 2 114
v 9 8 113
v 9 10 114
v 0 11 114
v 0 10 113
v -9 8 113
v -9 10 114
v -16 2 114
v -16 0 112
v -10 -11 112
v 0 -14 111
v 19 2 160
v 13 13 158
v 11 7 163
v 8 1 165
v 17 -9 153
v 6 -7 159
v 18 2 142
v 17 2 134
v 13 14 140
v 19 10 155
v 13 -14 126
v 18 2 125
v 13 13 125
v 12 13 132
v 0 16 130
v 0 16 138
v 0 17 160
v 0 9 165
v 2 -18 115
v 15 -14 113
v 20 2 115
v 13 13 115
v 0 16 123
v 0 17 114
v -13 13 115
v -13 13 125
v -12 13 132
v -13 14 140
v -13 13 158
v -11 7 163
v -8 1 165
v -19 2 160
v -17 -9 153
v -6 -7 159
v -3 -8 160
v 0 -6 160
v 3 -8 160
v 5 -11 161
v 11 -10 156
v -19 10 155
v -18 2 142
v -17 2 134
v -14 -13 133
v -15 -13 140
v -5 -11 161
v -11 -10 156
v -13 -14 126
v -2 -18 115
v -15 -14 113
v -20 2 115
v -18 2 125
v -9 -7 159
v -1 -13 155
v -6 -9 160
v 0 -13 156
v 0 -14 155
v 1 -13 155
v 6 -9 161
v 8 -8 159
v -1 -14 154
v 1 -14 154
v 3 -15 149
v 2 -17 148
v 6 -17 146
v 7 -16 146
v 9 -15 141
v 5 -17 143
v -1 -15 147
v -2 -14 150
v -2 -16 145
v 1 -17 145
v 3 -14 144
v -1 -17 142
v 0 -17 141
v -4 -16 139
v 20 0 128
v 20 0 119
v 18 9 120
v 18 9 128
v 17 8 129
v 18 0 129
v 18 -8 130
v 19 -8 121
v 17 -7 122
v 18 0 120
v 16 7 122
v 12 15 125
v 13 14 131
v -2 18 138
v 3 17 143
v 3 16 143
v -18 1 162
v -11 1 165
v -9 13 163
v -17 14 159
v -16 13 158
v -17 1 160
v -16 -8 159
v -10 -7 163
v -9 -6 162
v -10 1 164
v -9 12 162
v -7 17 158
v -13 16 153
v -13 14 153
v 14 -16 126
v 15 -15 133
v 5 -19 135
v 4 -17 135
v 13 -15 126
v -12 -14 154
v -6 -18 147
v -2 -17 151
v -6 -12 157
v -16 -6 158
v -12 -12 153
v -6 -16 146
v 8 -18 140
v -2 -15 152
v -6 -10 157
v -2 16 138
v -7 15 158
v 8 -16 140
v 14 -14 134
v 17 -7 131
v 11 14 126
v 15 -11 112
v 14 -10 115
v 11 -15 114
v 11 -15 111
v 11 -16 103
v 18 -11 104
v 18 -5 112
v 17 -4 115
v 19 2 113
v 18 2 116
v 18 6 112
v 17 6 115
v 14 10 115
v 14 10 112
v 0 15 111
v 0 15 114
v -14 10 115
v -14 10 112
v -18 6 112
v -17 6 115
v -18 2 116
v -19 2 113
v -17 -4 115
v -18 -5 112
v -14 -10 115
v -15 -11 112
v -11 -15 114
v -11 -15 111
v -2 -18 112
v -2 -20 103
v -12 -16 103
v -12 -16 88
v -3 -20 87
v -15 -16 54
v -10 -23 50
v 2 -20 103
v 3 -20 87
v 12 -17 88
v 2 -18 112
v 21 -5 104
v 23 -6 90
v 26 1 91
v 22 2 105
v 22 -13 89
v 26 -6 62
v 31 0 62
v 21 7 89
v 19 7 103
v 8 -27 50
v 15 -17 54
v 24 7 59
v 23 12 55
v 19 13 88
v 10 17 85
v 0 17 82
v 0 17 98
v 8 17 100
v 13 15 52
v 7 17 49
v 3 16 59
v -8 17 100
v -17 12 102
v -20 7 103
v -22 2 105
v -20 -5 104
v -18 -12 104
v 26 -15 59
v 17 13 102
v -25 1 91
v -23 -5 90
v -22 -13 89
v -22 8 89
v -31 0 62
v -24 -6 62
v -26 -13 59
v -24 7 59
v -20 13 88
v -24 11 55
v -10 17 85
v -13 15 52
v -7 19 49
v -3 16 56

f 1 2 3
f 1 3 4
f 1 4 5
f 1 5 6
f 1 6 7
f 1 7 8
f 1 8 2
f 2 8 9
f 2 9 3
f 3 9 10
f 3 10 11
f 3 11 12
f 3 12 13
f 3 13 4
f 4 13 5
f 5 13 14
f 5 14 15
f 5 15 16
f 5 16 17
f 5 17 6
f 17 18 19
f 17 19 20
f 20 19 21
f 20 21 22
f 22 21 23
f 23 21 24
f 23 24 25
f 23 25 26
f 26 25 27
f 27 25 28
f 27 28 15
f 15 28 29
f 15 29 30
f 15 30 16
f 16 30 17
f 17 30 18
f 31 32 33
f 31 33 34
f 31 34 35
f 35 34 36
f 35 36 9
f 35 9 8
f 35 8 37
f 37 8 7
f 37 7 38
f 37 38 39
f 37 39 40
f 40 39 32
f 40 32 31
f 6 41 7
f 7 41 38
f 38 41 42
f 38 42 43
f 38 43 44
f 38 44 39
f 39 44 45
f 39 45 46
f 39 46 32
f 32 46 47
f 32 47 48
f 32 48 33
f 33 48 34
f 41 6 49
f 41 49 50
f 41 50 51
f 41 51 42
f 42 51 43
f 43 51 52
f 43 52 53
f 43 53 45
f 43 45 44
f 52 54 53
f 53 54 55
f 53 55 56
f 53 56 45
f 45 56 57
f 45 57 58
f 45 58 46
f 46 58 59
f 46 59 47
f 47 59 48
f 48 59 60
f 48 60 61
f 61 60 62
f 61 62 63
f 61 63 64
f 61 64 65
f 61 65 66
f 66 65 10
f 66 10 67
f 66 67 34
f 34 67 36
f 36 67 9
f 9 67 10
f 10 67 68
f 10 68 67
f 67 68 34
f 67 34 68
f 68 34 69
f 68 69 34
f 62 60 59
f 62 59 70
f 70 59 58
f 70 58 71
f 71 58 72
f 71 72 73
f 71 73 74
f 71 74 63
f 63 74 11
f 63 11 64
f 64 11 65
f 65 11 10
f 65 10 75
f 65 75 10
f 75 65 61
f 75 61 76
f 75 76 61
f 75 61 65
f 14 13 73
f 14 73 77
f 14 77 78
f 78 77 79
f 79 77 80
f 80 77 81
f 80 81 56
f 80 56 55
f 72 58 57
f 72 57 56
f 72 56 81
f 72 81 77
f 72 77 73
f 74 12 11
f 12 74 13
f 13 74 73
f 82 83 84
f 84 83 85
f 85 83 86
f 85 86 87
f 85 87 88
f 88 87 89
f 83 90 86
f 86 90 91
f 86 91 87
f 87 91 92
f 92 91 93
f 92 93 94
f 92 94 95
f 95 94 96
f 96 94 97
f 97 94 93
f 97 93 98
f 98 93 91
f 98 91 90
f 83 99 90
f 90 99 100
f 90 100 101
f 90 101 102
f 102 101 103
f 102 103 104
f 104 103 105
f 105 103 100
f 100 103 101
f 106 107 108
f 106 108 109
f 106 109 110
f 106 110 111
f 106 111 112
f 106 112 113
f 106 113 107
f 107 113 114
f 107 114 115
f 107 115 108
f 108 115 116
f 108 116 117
f 108 117 109
f 109 117 118
f 109 118 44
f 109 44 110
f 118 117 119
f 118 119 120
f 118 120 121
f 118 121 44
f 122 123 124
f 122 124 125
f 122 125 126
f 122 126 127
f 122 127 128
f 122 128 129
f 122 129 123
f 123 129 130
f 123 130 131
f 123 131 124
f 124 131 132
f 124 132 133
f 124 133 125
f 125 133 134
f 125 134 135
f 125 135 126
f 136 113 112
f 136 112 137
f 136 137 138
f 136 138 139
f 136 139 140
f 136 140 113
f 113 140 114
f 141 142 143
f 141 143 144
f 141 144 128
f 141 128 145
f 141 145 146
f 141 146 142
f 142 146 147
f 142 147 139
f 142 139 138
f 142 138 148
f 142 148 143
f 143 148 149
f 143 149 144
f 144 149 150
f 144 150 129
f 144 129 128
f 134 133 120
f 134 120 119
f 134 119 151
f 134 151 135
f 120 133 152
f 120 152 121
f 133 132 152
f 129 150 130
f 148 153 149
f 153 148 154
f 154 148 137
f 154 137 155
f 155 137 112
f 155 112 111
f 128 127 145
f 119 117 156
f 119 156 151
f 117 116 156
f 138 137 148
f 157 158 159
f 157 159 160
f 157 160 161
f 157 161 162
f 157 162 163
f 157 163 158
f 158 163 164
f 164 163 165
f 164 165 166
f 166 165 167
f 166 167 168
f 168 167 169
f 169 167 170
f 169 170 171
f 169 171 172
f 172 171 173
f 173 171 174
f 173 174 175
f 173 175 176
f 176 175 177
f 177 175 178
f 177 178 179
f 179 178 180
f 179 180 181
f 181 180 182
f 181 182 183
f 183 182 184
f 183 184 78
f 78 184 185
f 185 184 186
f 186 184 187
f 186 187 188
f 186 188 189
f 189 188 190
f 189 190 191
f 192 193 194
f 192 194 161
f 192 161 160
f 192 160 195
f 195 160 49
f 49 160 159
f 196 197 198
f 196 198 199
f 196 199 165
f 196 165 163
f 196 163 162
f 196 162 197
f 197 162 200
f 197 200 201
f 197 201 202
f 197 202 198
f 198 202 203
f 198 203 204
f 198 204 199
f 199 204 167
f 199 167 165
f 194 205 206
f 194 206 200
f 194 200 162
f 194 162 161
f 207 208 209
f 207 209 203
f 207 203 202
f 210 211 212
f 210 212 213
f 210 213 209
f 210 209 208
f 210 208 214
f 210 214 215
f 210 215 216
f 210 216 211
f 171 213 212
f 171 212 217
f 171 217 174
f 174 217 218
f 174 218 219
f 174 219 175
f 175 219 220
f 175 220 178
f 178 220 221
f 178 221 180
f 180 221 222
f 180 222 182
f 182 222 187
f 182 187 184
f 206 223 200
f 200 223 201
f 224 204 203
f 224 203 209
f 224 209 213
f 224 213 170
f 224 170 204
f 204 170 167
f 221 220 225
f 221 225 226
f 221 226 222
f 222 226 227
f 222 227 188
f 222 188 187
f 219 228 225
f 219 225 220
f 226 225 229
f 226 229 230
f 226 230 227
f 227 230 231
f 227 231 190
f 227 190 188
f 232 228 233
f 232 233 234
f 234 233 235
f 234 235 236
f 236 235 237
f 237 235 238
f 238 235 211
f 211 235 212
f 212 235 217
f 217 235 233
f 217 233 218
f 218 233 228
f 218 228 219
f 229 225 228
f 229 228 232
f 171 170 213
f 194 193 205
