# RS2 Model 14195
# Vertices: 95
# Faces: 122

v 3 64 5
v -1 64 9
v -1 18 8
v 3 18 4
v 1 64 0
v 1 18 0
v -3 64 0
v -3 18 0
v -5 64 5
v -5 18 4
v -5 -64 5
v -1 -64 9
v 3 -64 5
v 1 -64 0
v -3 -64 0
v -1 62 41
v -3 60 1
v 1 60 1
v 1 64 1
v -3 64 1
v 11 62 12
v -1 60 2
v 2 60 -1
v 2 64 -1
v -1 64 2
v -1 50 38
v -3 57 -1
v 1 57 -1
v 1 61 0
v -3 61 0
v -1 74 12
v -3 62 1
v 1 62 1
v 1 66 -1
v -3 66 -1
v -19 62 36
v -4 60 -1
v 0 60 1
v 0 64 1
v -4 64 -1
v 15 44 32
v -4 61 2
v -2 59 -1
v 1 61 -1
v -2 64 2
v -23 47 29
v 0 60 -1
v 2 61 2
v 0 65 2
v -3 63 -1
v -17 81 32
v 2 64 2
v 0 66 -1
v -3 64 -1
v 0 61 2
v 21 78 29
v -2 65 -1
v -4 64 2
v -2 60 2
v 1 62 -1
v -1 48 9
v 3 48 5
v 1 48 0
v 3 32 5
v 1 32 0
v 3 16 5
v 1 16 0
v 3 0 5
v 1 0 0
v 3 -16 5
v 1 -16 0
v 3 -32 5
v 1 -32 0
v 3 -48 5
v 1 -48 0
v -3 48 0
v -5 48 5
v -5 32 5
v -1 32 9
v -1 16 9
v -1 0 9
v -1 -16 9
v -1 -32 9
v -1 -48 9
v -3 32 0
v -3 16 0
v -5 16 5
v -5 0 5
v -5 -16 5
v -5 -32 5
v -5 -48 5
v -3 0 0
v -3 -16 0
v -3 -32 0
v -3 -48 0

f 1 2 3
f 1 3 4
f 1 4 5
f 5 4 6
f 5 6 7
f 7 6 8
f 7 8 9
f 9 8 10
f 9 10 2
f 2 10 3
f 3 10 11
f 3 11 12
f 3 12 4
f 4 12 13
f 4 13 6
f 6 13 14
f 6 14 8
f 8 14 15
f 8 15 10
f 10 15 11
f 16 17 18
f 16 18 19
f 16 19 20
f 16 20 17
f 21 22 23
f 21 23 24
f 21 24 25
f 21 25 22
f 26 27 28
f 26 28 29
f 26 29 30
f 26 30 27
f 31 32 33
f 31 33 34
f 31 34 35
f 31 35 32
f 36 37 38
f 36 38 39
f 36 39 40
f 36 40 37
f 37 40 38
f 38 40 39
f 41 42 43
f 41 43 44
f 41 44 45
f 41 45 42
f 46 47 48
f 46 48 49
f 46 49 50
f 46 50 47
f 51 52 53
f 51 53 54
f 51 54 55
f 51 55 52
f 56 57 58
f 56 58 59
f 56 59 60
f 56 60 57
f 1 2 61
f 1 61 62
f 1 62 5
f 5 62 63
f 63 62 64
f 63 64 65
f 65 64 66
f 65 66 67
f 67 66 68
f 67 68 69
f 69 68 70
f 69 70 71
f 71 70 72
f 71 72 73
f 73 72 74
f 73 74 75
f 75 74 13
f 75 13 14
f 9 7 76
f 9 76 77
f 9 77 2
f 2 77 61
f 61 77 78
f 61 78 79
f 61 79 62
f 62 79 64
f 64 79 80
f 64 80 66
f 66 80 81
f 66 81 68
f 68 81 82
f 68 82 70
f 70 82 83
f 70 83 72
f 72 83 84
f 72 84 74
f 74 84 12
f 74 12 13
f 77 76 85
f 77 85 78
f 78 85 86
f 78 86 87
f 78 87 79
f 79 87 80
f 80 87 88
f 80 88 81
f 81 88 89
f 81 89 82
f 82 89 90
f 82 90 83
f 83 90 91
f 83 91 84
f 84 91 11
f 84 11 12
f 87 86 92
f 87 92 88
f 88 92 93
f 88 93 89
f 89 93 94
f 89 94 90
f 90 94 95
f 90 95 91
f 91 95 15
f 91 15 11
