# RS2 Model 14200
# Vertices: 281
# Faces: 390

v -73 -39 92
v -76 -33 92
v -146 -39 86
v -146 -47 86
v -157 -39 78
v -157 -47 78
v -146 39 86
v -72 31 94
v -70 36 94
v -146 45 86
v -157 39 78
v -157 45 78
v 150 -48 115
v 150 -42 115
v 130 -43 113
v 130 -48 113
v 46 -35 104
v 45 -40 104
v 45 -40 106
v 44 -42 109
v 44 -44 108
v 41 -39 104
v 40 -43 108
v 41 -39 106
v 42 -34 107
v 42 -34 104
v 43 -32 108
v 43 -31 109
v 47 -32 109
v 46 -35 107
v 150 41 115
v 150 48 115
v 130 50 112
v 130 42 112
v 46 38 104
v 47 33 104
v 46 38 106
v 47 33 107
v 48 30 109
v 44 29 109
v 43 32 104
v 44 30 108
v 43 32 107
v 42 37 104
v 42 37 106
v 41 41 108
v 45 42 108
v 45 40 109
v 43 -32 115
v 47 -33 115
v 47 -33 108
v 41 -41 114
v 44 -42 114
v 46 -35 112
v 45 -40 111
v 41 -41 109
v 41 -39 111
v 42 -34 112
v 44 30 115
v 48 31 115
v 42 39 114
v 42 37 111
v 43 32 112
v 45 40 114
v 42 39 109
v 46 38 111
v 48 31 108
v 47 33 112
v -65 37 99
v -66 34 94
v -69 39 99
v -66 36 105
v -67 34 101
v -66 34 95
v -69 29 94
v -69 29 96
v -70 26 98
v -74 27 98
v -73 30 100
v -73 31 95
v -70 36 95
v -70 38 105
v -73 29 104
v -70 28 104
v -69 29 101
v -56 18 104
v -50 28 104
v -51 29 94
v -70 36 101
v -73 38 100
v -76 32 100
v -80 34 95
v -82 35 92
v -81 35 100
v -86 35 93
v -87 36 110
v -80 46 93
v -81 46 110
v -76 43 100
v -77 44 92
v -75 43 95
v 37 -4 121
v 39 -6 122
v 40 -3 122
v 39 0 122
v 35 -1 121
v 34 -9 110
v 40 3 122
v 39 6 122
v 37 4 121
v 35 1 121
v 34 0 124
v 31 5 117
v 35 9 114
v 25 7 117
v 24 2 127
v 31 0 121
v 31 -5 117
v 25 -7 117
v 28 -9 110
v 41 -2 122
v 41 2 122
v -69 -36 101
v -50 -29 104
v -56 -19 104
v -72 -31 101
v -73 -30 103
v -68 -38 102
v -68 -36 95
v -51 -30 94
v -57 -19 94
v -71 -30 95
v -73 -28 97
v -77 -30 97
v -77 -32 103
v -71 -40 102
v -67 -38 96
v -69 -35 93
v -72 -30 93
v -76 -33 94
v -76 -33 100
v -73 -39 100
v -71 -41 96
v -73 -39 94
v -57 18 94
v -43 -26 109
v -49 -15 109
v -52 -27 107
v -50 -32 107
v -49 -31 101
v -44 -26 96
v -22 -16 97
v -20 -17 111
v -24 0 111
v -49 -16 96
v -50 -32 96
v -50 -32 93
v -49 14 109
v -43 25 109
v -44 25 96
v -49 15 96
v -29 0 97
v -18 17 110
v -21 16 97
v -19 14 97
v -11 12 110
v -9 12 98
v -9 12 111
v -7 12 99
v 24 -2 127
v 31 0 120
v 34 9 110
v 28 9 110
v 26 -6 106
v 26 7 105
v 23 0 118
v 23 -16 118
v 24 -16 102
v -7 -15 99
v -10 -10 113
v -10 10 113
v 23 16 118
v -7 15 99
v 24 16 102
v 26 6 105
v 37 -9 122
v 32 -11 110
v 38 -11 108
v 51 -7 108
v 38 -6 124
v 57 0 109
v 40 0 124
v 38 6 124
v 51 8 108
v 37 9 122
v 41 11 110
v 33 11 107
v -11 -12 110
v -19 -14 97
v -9 -12 98
v -9 -12 111
v -7 -12 99
v -3 -7 111
v -3 7 111
v -9 10 111
v -9 -10 111
v 35 -29 112
v 31 -37 113
v 41 -38 112
v 35 -29 105
v 31 -26 102
v 32 -26 115
v 28 -36 115
v 31 -37 104
v 41 -38 106
v 46 -39 107
v 46 -39 111
v 47 -36 111
v 42 -34 106
v 47 -36 107
v 51 -36 112
v 52 -37 105
v 54 -38 111
v 53 -40 106
v 52 -43 106
v 50 -44 105
v 49 -44 112
v 51 -43 111
v 27 -35 102
v 12 -23 104
v 12 -23 112
v 13 -14 104
v 13 -14 112
v 12 13 104
v 12 13 112
v 12 21 112
v 12 21 104
v 28 34 115
v 27 34 102
v 31 35 104
v 31 35 113
v 41 37 112
v 41 37 106
v 46 37 111
v 46 37 107
v 48 42 112
v 49 43 105
v 51 41 111
v 52 41 106
v 53 38 106
v 52 35 105
v 51 35 112
v 46 34 111
v 46 34 107
v 42 32 112
v 42 32 106
v 35 28 112
v 35 28 105
v 31 24 102
v 32 25 115
v 53 36 111
v 130 -48 104
v 127 -46 104
v 130 -44 104
v 130 44 104
v 127 46 104
v 130 48 104
v -79 45 112
v -83 36 112
v -82 -46 110
v -87 -36 110
v -87 -35 92
v -81 -46 92
v -76 -44 100
v -79 -45 112
v -84 -36 112
v -81 -36 100
v -82 -35 92
v -80 -35 94
v -77 -44 92
v -76 -43 94

f 1 2 3
f 1 3 4
f 4 3 5
f 4 5 6
f 7 8 9
f 7 9 10
f 7 10 11
f 11 10 12
f 13 14 15
f 13 15 16
f 16 15 17
f 16 17 18
f 18 17 19
f 18 19 20
f 18 20 21
f 18 21 22
f 22 21 23
f 22 23 24
f 22 24 25
f 22 25 26
f 26 25 27
f 26 27 28
f 26 28 17
f 17 28 29
f 17 29 30
f 17 30 19
f 31 32 33
f 31 33 34
f 34 33 35
f 34 35 36
f 36 35 37
f 36 37 38
f 36 38 39
f 36 39 40
f 36 40 41
f 41 40 42
f 41 42 43
f 41 43 44
f 44 43 45
f 44 45 46
f 44 46 47
f 44 47 35
f 35 47 48
f 35 48 37
f 29 28 49
f 29 49 50
f 29 50 51
f 29 51 30
f 50 49 52
f 50 52 53
f 50 53 54
f 50 54 51
f 53 52 23
f 53 23 21
f 53 21 55
f 53 55 54
f 23 56 24
f 56 23 52
f 56 52 57
f 57 52 49
f 57 49 58
f 58 49 28
f 58 28 27
f 21 20 55
f 59 40 39
f 59 39 60
f 59 60 61
f 59 61 62
f 59 62 63
f 59 63 40
f 40 63 42
f 61 60 64
f 61 64 46
f 61 46 65
f 61 65 62
f 46 64 47
f 47 64 66
f 47 66 48
f 45 65 46
f 67 68 60
f 67 60 39
f 67 39 38
f 68 66 64
f 68 64 60
f 69 70 9
f 69 9 71
f 69 71 72
f 69 72 73
f 69 73 74
f 69 74 70
f 70 74 75
f 75 74 76
f 75 76 77
f 75 77 78
f 75 78 8
f 8 78 79
f 8 79 80
f 8 80 9
f 9 80 81
f 9 81 71
f 71 81 82
f 71 82 72
f 72 82 83
f 72 83 84
f 72 84 85
f 72 85 73
f 73 85 86
f 73 86 87
f 73 87 88
f 73 88 74
f 77 84 83
f 77 83 78
f 78 83 79
f 79 83 89
f 79 89 90
f 79 90 91
f 79 91 80
f 80 91 92
f 92 91 93
f 93 91 94
f 93 94 95
f 95 94 96
f 95 96 97
f 97 96 98
f 97 98 99
f 97 99 100
f 100 99 90
f 100 90 101
f 101 90 81
f 81 90 89
f 81 89 82
f 82 89 83
f 76 85 84
f 76 84 77
f 102 103 104
f 102 104 105
f 102 105 106
f 102 106 107
f 102 107 103
f 105 108 109
f 105 109 110
f 105 110 111
f 105 111 112
f 105 112 106
f 113 111 114
f 113 114 115
f 113 115 116
f 113 116 117
f 113 117 111
f 111 117 118
f 111 118 106
f 106 118 107
f 107 118 119
f 107 119 120
f 121 104 103
f 104 121 105
f 109 108 122
f 122 108 105
f 110 109 114
f 110 114 111
f 123 124 125
f 123 125 126
f 123 126 127
f 123 127 128
f 123 128 129
f 123 129 130
f 123 130 124
f 125 131 132
f 125 132 126
f 126 132 133
f 126 133 127
f 127 133 134
f 127 134 135
f 127 135 128
f 128 135 136
f 128 136 137
f 128 137 129
f 129 137 138
f 129 138 132
f 132 138 139
f 132 139 133
f 133 139 2
f 133 2 134
f 134 2 140
f 134 140 141
f 134 141 135
f 135 141 136
f 136 141 142
f 136 142 143
f 136 143 137
f 137 143 138
f 138 143 1
f 1 143 144
f 1 144 2
f 2 144 140
f 76 145 86
f 76 86 85
f 146 147 125
f 146 125 148
f 146 148 149
f 146 149 150
f 146 150 151
f 146 151 152
f 146 152 153
f 146 153 154
f 146 154 147
f 147 154 155
f 147 155 125
f 125 155 131
f 156 151 150
f 151 156 157
f 86 158 159
f 86 159 87
f 87 159 160
f 87 160 88
f 145 161 86
f 86 161 158
f 158 161 162
f 158 162 154
f 158 154 163
f 158 163 159
f 159 163 160
f 160 163 164
f 164 163 165
f 165 163 166
f 165 166 167
f 167 166 168
f 167 168 169
f 116 115 119
f 116 119 170
f 116 170 117
f 117 170 118
f 117 118 171
f 117 171 118
f 171 117 113
f 171 113 117
f 118 170 119
f 114 172 173
f 114 173 115
f 174 175 176
f 174 176 177
f 174 177 178
f 178 177 179
f 179 177 180
f 180 177 176
f 180 176 181
f 181 176 182
f 181 182 183
f 183 182 184
f 184 182 185
f 176 175 182
f 186 187 188
f 186 188 189
f 186 189 190
f 190 189 191
f 190 191 192
f 192 191 193
f 193 191 194
f 193 194 195
f 195 194 196
f 195 196 197
f 154 162 155
f 154 153 198
f 154 198 166
f 154 166 163
f 199 198 153
f 199 153 152
f 199 200 198
f 198 200 201
f 198 201 166
f 166 201 168
f 201 200 202
f 203 204 205
f 203 205 206
f 207 208 209
f 207 209 58
f 207 58 210
f 207 210 211
f 207 211 212
f 207 212 213
f 207 213 208
f 208 213 214
f 208 214 215
f 208 215 209
f 209 215 216
f 209 216 217
f 209 217 58
f 58 217 218
f 58 218 219
f 58 219 210
f 219 218 220
f 220 218 221
f 220 221 222
f 222 221 223
f 222 223 224
f 222 224 225
f 222 225 226
f 226 225 227
f 226 227 217
f 226 217 216
f 217 227 221
f 217 221 218
f 227 228 223
f 227 223 221
f 228 225 224
f 228 224 223
f 225 228 227
f 214 213 229
f 229 213 230
f 230 213 231
f 230 231 232
f 232 231 233
f 232 233 211
f 211 233 212
f 212 233 213
f 213 233 231
f 234 235 236
f 234 236 237
f 237 236 238
f 237 238 239
f 239 238 240
f 240 238 241
f 240 241 242
f 240 242 243
f 243 242 244
f 243 244 245
f 245 244 246
f 245 246 247
f 247 246 248
f 247 248 249
f 247 249 250
f 247 250 251
f 251 250 252
f 251 252 253
f 251 253 254
f 254 253 255
f 254 255 256
f 256 255 257
f 256 257 258
f 258 257 259
f 259 257 260
f 259 260 235
f 259 235 234
f 235 260 238
f 235 238 236
f 241 238 257
f 241 257 255
f 241 255 242
f 242 255 253
f 242 253 244
f 244 253 246
f 246 253 252
f 246 252 248
f 248 252 261
f 248 261 249
f 249 261 250
f 250 261 252
f 238 260 257
f 191 189 194
f 262 263 264
f 265 266 267
f 98 268 99
f 99 268 94
f 99 94 91
f 99 91 90
f 94 269 96
f 96 269 98
f 98 269 268
f 268 269 94
f 270 271 272
f 270 272 273
f 270 273 274
f 270 274 275
f 270 275 276
f 270 276 271
f 271 276 277
f 271 277 272
f 272 277 278
f 278 277 141
f 278 141 279
f 279 141 140
f 280 281 142
f 280 142 274
f 280 274 273
f 275 274 277
f 275 277 276
f 281 144 142
f 142 144 143
f 274 142 141
f 274 141 277
