# RS2 Model 14207
# Vertices: 148
# Faces: 193

v -15 17 88
v -24 15 88
v -22 9 79
v -13 9 76
v -1 10 74
v -2 19 88
v -17 20 110
v -29 18 105
v -2 19 110
v -36 10 89
v -33 7 84
v 11 14 89
v 14 18 110
v 10 8 77
v 21 11 90
v 25 14 106
v 19 6 80
v -39 14 95
v 31 5 92
v 36 8 97
v 27 2 85
v 5 19 110
v 4 11 132
v 0 19 110
v 34 8 97
v 41 2 110
v 33 9 99
v 28 12 101
v 37 5 118
v 25 12 106
v 20 15 106
v 27 8 123
v 18 16 107
v 13 19 111
v 16 9 128
v 10 18 110
v -37 15 97
v -47 9 107
v -38 14 96
v -30 16 104
v -43 12 117
v -32 16 100
v -21 19 107
v -33 12 122
v -24 19 105
v -10 20 109
v -20 13 127
v -15 22 109
v -4 20 111
v -9 12 132
v -8 20 109
v -19 7 77
v -28 7 80
v -31 -4 82
v -22 -5 79
v -10 -8 75
v -8 8 73
v -37 6 87
v -41 -1 87
v -45 -7 88
v -36 -18 89
v -24 -25 89
v -10 -27 88
v 4 -8 76
v 6 -27 87
v 3 6 75
v 12 4 77
v 14 -7 79
v 22 1 82
v 26 -7 82
v 18 -23 86
v 29 -13 84
v -8 -26 88
v -1 -40 107
v -3 -26 87
v 27 -15 83
v 36 -21 94
v 28 -14 83
v 18 -21 87
v 31 -29 98
v 21 -18 83
v 10 -24 86
v 21 -33 101
v 12 -23 86
v 2 -27 86
v 10 -37 104
v 5 -29 86
v -45 -8 89
v -52 -13 101
v -43 -10 88
v -39 -12 88
v -48 -22 103
v -37 -16 91
v -31 -20 89
v -39 -29 106
v -29 -21 89
v -23 -26 88
v -26 -34 106
v -18 -25 88
v -15 -26 87
v -15 -39 108
v -11 -26 88
v -13 2 64
v -12 -2 43
v -8 -9 42
v -8 -7 57
v -6 0 75
v 1 0 64
v -2 -4 43
v -8 -10 26
v 2 14 79
v 6 21 68
v 1 26 65
v -4 21 72
v -8 13 80
v -10 10 71
v -2 19 61
v 7 30 55
v -4 21 15
v 3 21 15
v 1 24 0
v -11 22 0
v -4 13 15
v 7 13 34
v 7 21 34
v 15 21 35
v 3 13 15
v 1 8 0
v -11 0 0
v 1 4 71
v -9 1 74
v -18 8 62
v -10 7 63
v 1 13 71
v -10 14 62
v -9 8 74
v -18 14 62
v -8 15 45
v -7 9 45
v -2 9 49
v -1 15 49
v 16 13 35
v -17 -6 28
v -3 -9 26
v -10 1 76
v -14 7 76
v -3 10 86
v 1 26 51

f 1 2 3
f 1 3 4
f 1 4 5
f 1 5 6
f 1 6 7
f 1 7 2
f 1 2 8
f 1 8 7
f 1 7 9
f 1 9 6
f 1 6 4
f 1 4 2
f 2 4 3
f 2 3 10
f 2 10 11
f 2 11 3
f 3 11 10
f 6 9 7
f 9 6 12
f 9 12 13
f 9 13 6
f 6 13 12
f 6 12 5
f 6 5 14
f 6 14 12
f 12 14 15
f 12 15 16
f 12 16 13
f 12 13 15
f 12 15 17
f 12 17 14
f 12 14 5
f 7 8 2
f 2 8 10
f 2 10 18
f 2 18 8
f 8 18 10
f 14 17 15
f 15 17 19
f 15 19 20
f 15 20 16
f 15 16 19
f 15 19 21
f 15 21 17
f 17 21 19
f 22 23 24
f 22 24 23
f 25 26 27
f 25 27 26
f 28 29 30
f 28 30 29
f 31 32 33
f 31 33 32
f 34 35 36
f 34 36 35
f 37 38 39
f 37 39 38
f 40 41 42
f 40 42 41
f 43 44 45
f 43 45 44
f 46 47 48
f 46 48 47
f 49 50 51
f 49 51 50
f 52 53 54
f 52 54 55
f 52 55 56
f 52 56 57
f 52 57 55
f 52 55 53
f 53 55 54
f 53 54 58
f 53 58 59
f 53 59 54
f 54 59 60
f 54 60 61
f 54 61 55
f 54 55 62
f 54 62 61
f 54 61 59
f 54 59 58
f 55 62 63
f 55 63 56
f 55 56 62
f 62 56 63
f 63 56 64
f 63 64 65
f 63 65 56
f 56 65 64
f 56 64 57
f 56 57 66
f 56 66 64
f 64 66 57
f 66 64 67
f 66 67 68
f 66 68 64
f 64 68 67
f 67 68 69
f 67 69 70
f 67 70 68
f 68 70 69
f 70 68 71
f 70 71 72
f 70 72 68
f 68 72 71
f 68 71 64
f 68 64 65
f 68 65 71
f 71 65 64
f 55 61 62
f 73 74 75
f 73 75 74
f 76 77 78
f 76 78 77
f 79 80 81
f 79 81 80
f 82 83 84
f 82 84 83
f 85 86 87
f 85 87 86
f 88 89 90
f 88 90 89
f 91 92 93
f 91 93 92
f 94 95 96
f 94 96 95
f 97 98 99
f 97 99 98
f 100 101 102
f 100 102 101
f 4 6 5
f 13 16 15
f 16 20 19
f 57 56 55
f 61 60 59
f 103 104 105
f 103 105 106
f 103 106 107
f 107 106 108
f 108 106 109
f 109 106 105
f 109 105 110
f 110 105 104
f 111 112 113
f 111 113 114
f 111 114 115
f 115 114 116
f 116 114 117
f 117 114 113
f 117 113 118
f 118 113 112
f 119 120 121
f 119 121 122
f 119 122 123
f 119 123 124
f 119 124 125
f 119 125 120
f 120 125 126
f 120 126 127
f 120 127 128
f 120 128 121
f 127 123 129
f 127 129 128
f 123 122 129
f 130 131 132
f 130 132 133
f 130 133 134
f 134 133 135
f 134 135 136
f 136 135 137
f 136 137 131
f 131 137 132
f 132 137 138
f 132 138 139
f 132 139 133
f 133 139 140
f 133 140 135
f 135 140 141
f 135 141 137
f 137 141 138
f 138 141 126
f 138 126 125
f 138 125 139
f 139 125 124
f 139 124 140
f 140 124 142
f 140 142 141
f 141 142 126
f 126 142 127
f 127 142 123
f 123 142 124
f 143 144 145
