# RS2 Model 14276
# Vertices: 154
# Faces: 124

v -8 -5 84
v -5 -5 78
v 6 -5 78
v 9 -5 84
v 4 -5 90
v -2 -5 90
v -5 -5 70
v -3 -5 70
v -3 -5 76
v -5 -5 76
v -1 -5 76
v -1 -5 70
v 2 -5 70
v 2 -5 76
v 4 -5 76
v 4 -5 70
v 6 -5 70
v 6 -5 76
v 6 -5 90
v 9 -5 87
v 14 -5 92
v 11 -5 95
v 17 -5 95
v 14 -5 98
v 12 -5 100
v 9 -5 97
v -2 -6 87
v -2 -6 82
v 0 -6 82
v 0 -6 87
v 2 -6 87
v 2 -6 82
v 4 -6 82
v 4 -6 87
v 16 -5 90
v 19 -5 92
v 12 -5 73
v 9 -5 70
v 14 -5 65
v 17 -5 68
v 17 -5 63
v 19 -5 65
v 22 -5 68
v 19 -5 70
v 11 -5 62
v 14 -5 60
v -8 -5 70
v -10 -5 73
v -16 -5 68
v -13 -5 65
v -18 -5 65
v -16 -5 63
v -13 -5 60
v -10 -5 63
v -18 -5 71
v -21 -5 68
v -8 -5 87
v -5 -5 90
v -10 -5 95
v -13 -5 92
v -13 -5 97
v -15 -5 95
v -18 -5 92
v -16 -5 89
v -8 -5 97
v -10 -5 100
v 40 -4 83
v -32 -4 80
v 40 -4 77
v 40 4 83
v 24 4 104
v 24 -4 104
v -32 -4 104
v -32 4 80
v -32 4 56
v -32 -4 56
v 24 -4 56
v 40 4 77
v -32 4 104
v 24 4 56
v 3 -3 56
v -3 -3 56
v -3 -3 0
v 3 -3 0
v 3 3 56
v 3 3 0
v -3 3 56
v -3 3 0
v 9 5 84
v 6 5 78
v -5 5 78
v -8 5 84
v -2 5 90
v 4 5 90
v 6 5 70
v 4 5 70
v 4 5 76
v 6 5 76
v 2 5 76
v 2 5 70
v -1 5 70
v -1 5 76
v -3 5 76
v -3 5 70
v -5 5 70
v -5 5 76
v -5 5 90
v -8 5 87
v -13 5 92
v -10 5 95
v -15 5 95
v -13 5 97
v -10 5 100
v -8 5 97
v 4 6 87
v 4 6 82
v 2 6 82
v 2 6 87
v 0 6 87
v 0 6 82
v -2 6 82
v -2 6 87
v -16 5 89
v -18 5 92
v -10 5 73
v -8 5 70
v -13 5 65
v -16 5 68
v -16 5 63
v -18 5 65
v -21 5 68
v -18 5 71
v -10 5 63
v -13 5 60
v 9 5 70
v 12 5 73
v 17 5 68
v 14 5 65
v 19 5 65
v 17 5 63
v 14 5 60
v 11 5 62
v 19 5 70
v 22 5 68
v 9 5 87
v 6 5 90
v 11 5 95
v 14 5 92
v 14 5 98
v 17 5 95
v 19 5 92
v 16 5 90
v 9 5 97
v 12 5 100

f 1 2 3
f 1 3 4
f 1 4 5
f 1 5 6
f 7 8 9
f 7 9 10
f 11 12 13
f 11 13 14
f 15 16 17
f 15 17 18
f 19 20 21
f 19 21 22
f 22 21 23
f 22 23 24
f 22 24 25
f 22 25 26
f 27 28 29
f 27 29 30
f 31 32 33
f 31 33 34
f 23 21 35
f 23 35 36
f 37 38 39
f 37 39 40
f 40 39 41
f 40 41 42
f 40 42 43
f 40 43 44
f 41 39 45
f 41 45 46
f 47 48 49
f 47 49 50
f 50 49 51
f 50 51 52
f 50 52 53
f 50 53 54
f 51 49 55
f 51 55 56
f 57 58 59
f 57 59 60
f 60 59 61
f 60 61 62
f 60 62 63
f 60 63 64
f 61 59 65
f 61 65 66
f 67 68 69
f 67 69 70
f 67 70 71
f 67 71 72
f 67 72 68
f 68 72 73
f 68 73 74
f 68 74 75
f 68 75 76
f 68 76 69
f 69 76 77
f 69 77 78
f 69 78 70
f 70 78 74
f 70 74 79
f 70 79 71
f 71 79 73
f 71 73 72
f 73 79 74
f 80 75 74
f 80 74 78
f 80 78 77
f 81 82 83
f 81 83 84
f 81 84 85
f 85 84 86
f 85 86 87
f 87 86 88
f 87 88 82
f 82 88 83
f 83 88 84
f 84 88 86
f 89 90 91
f 89 91 92
f 89 92 93
f 89 93 94
f 95 96 97
f 95 97 98
f 99 100 101
f 99 101 102
f 103 104 105
f 103 105 106
f 107 108 109
f 107 109 110
f 110 109 111
f 110 111 112
f 110 112 113
f 110 113 114
f 115 116 117
f 115 117 118
f 119 120 121
f 119 121 122
f 111 109 123
f 111 123 124
f 125 126 127
f 125 127 128
f 128 127 129
f 128 129 130
f 128 130 131
f 128 131 132
f 129 127 133
f 129 133 134
f 135 136 137
f 135 137 138
f 138 137 139
f 138 139 140
f 138 140 141
f 138 141 142
f 139 137 143
f 139 143 144
f 145 146 147
f 145 147 148
f 148 147 149
f 148 149 150
f 148 150 151
f 148 151 152
f 149 147 153
f 149 153 154
