# RS2 Model 14306
# Vertices: 25
# Faces: 46

v 18 0 3
v 16 0 0
v 11 11 0
v 12 12 3
v 6 6 7
v 10 0 7
v 12 -12 3
v 11 -11 0
v 0 16 0
v 0 18 3
v 0 10 7
v 0 0 9
v 6 -6 7
v 0 -18 3
v 0 -16 0
v -11 -11 0
v -16 0 0
v -11 11 0
v -12 12 3
v -6 6 7
v -10 0 7
v -6 -6 7
v 0 -10 7
v -12 -12 3
v -18 0 3

f 1 2 3
f 1 3 4
f 1 4 5
f 1 5 6
f 1 6 7
f 1 7 2
f 2 7 8
f 2 8 3
f 3 8 9
f 3 9 4
f 4 9 10
f 4 10 11
f 4 11 5
f 5 11 12
f 5 12 6
f 6 12 13
f 6 13 7
f 7 13 14
f 7 14 8
f 8 14 15
f 8 15 16
f 8 16 17
f 8 17 18
f 8 18 9
f 9 18 10
f 10 18 19
f 10 19 20
f 10 20 11
f 11 20 12
f 12 20 21
f 12 21 22
f 12 22 23
f 12 23 13
f 13 23 14
f 14 23 24
f 14 24 15
f 15 24 16
f 16 24 25
f 16 25 17
f 17 25 19
f 17 19 18
f 19 25 21
f 19 21 20
f 25 24 22
f 25 22 21
f 24 23 22
