# RS2 Model 14310
# Vertices: 129
# Faces: 220

v -2 -19 24
v -5 -17 24
v -4 -14 21
v 0 -16 20
v 0 -17 25
v -3 -14 26
v -2 -12 24
v 1 -14 22
v -11 29 29
v -1 23 29
v -2 32 5
v -14 39 6
v -19 26 29
v -13 16 49
v -7 19 49
v 0 14 48
v 9 29 28
v 11 39 5
v -24 35 6
v -19 14 28
v -13 7 48
v -8 1 56
v -8 7 57
v -4 9 57
v 0 6 56
v 7 19 48
v 16 26 28
v 19 36 5
v -24 21 4
v -31 13 28
v -22 6 48
v -14 1 56
v -2 -4 60
v 1 -2 59
v 4 9 56
v 12 16 48
v 17 14 27
v 20 21 3
v -39 20 5
v -35 5 28
v -25 0 47
v -16 -3 56
v -5 -7 59
v 1 -7 59
v 4 -4 59
v 8 7 56
v 13 7 47
v 26 13 25
v 31 20 2
v -43 10 4
v -28 -4 27
v -20 -6 46
v -13 -7 55
v -17 -11 55
v -2 -10 59
v 1 -13 58
v 4 -10 58
v 6 -7 58
v 14 -3 55
v 13 1 55
v 8 1 55
v 20 6 47
v 29 6 25
v 35 12 1
v -35 -1 3
v -36 -12 26
v -26 -12 47
v -44 -11 2
v -31 -22 25
v -22 -19 45
v -14 -15 54
v -8 -15 54
v -8 -21 54
v -4 -24 53
v 0 -20 53
v 4 -23 53
v 8 -21 53
v 8 -15 53
v 14 -15 53
v 16 -11 54
v 13 -7 54
v 20 -6 45
v 22 1 46
v -38 -23 0
v -19 -22 24
v -13 -19 45
v -24 -23 -1
v -18 -33 22
v -12 -28 44
v -23 -38 -2
v -10 -38 22
v -6 -32 44
v -13 -43 -3
v -1 -30 23
v 0 -26 43
v -2 -34 -2
v 9 -35 21
v 7 -30 43
v 10 -40 -4
v 17 -31 21
v 13 -27 43
v 20 -35 -3
v 17 -22 23
v 13 -19 44
v 20 -23 -2
v 28 -21 22
v 22 -18 44
v 33 -22 -3
v 31 -13 23
v 24 -12 45
v 37 -12 -2
v 26 -4 24
v 31 -1 0
v -11 -15 35
v -17 -11 36
v -16 -7 32
v -9 -10 32
v -8 -11 41
v -13 -6 41
v -11 -4 37
v -6 -8 36
v 5 4 25
v 2 6 26
v 3 9 23
v 7 7 23
v 7 6 28
v 4 9 28
v 5 10 25
v 8 8 25

f 1 2 3
f 1 3 4
f 1 4 5
f 1 5 2
f 2 5 6
f 2 6 7
f 2 7 3
f 3 7 4
f 4 7 8
f 4 8 5
f 5 8 6
f 6 8 7
f 9 10 11
f 9 11 12
f 9 12 13
f 9 13 14
f 9 14 15
f 9 15 10
f 10 15 16
f 10 16 17
f 10 17 18
f 10 18 11
f 13 12 19
f 13 19 20
f 13 20 21
f 13 21 14
f 14 21 22
f 14 22 23
f 14 23 15
f 15 23 24
f 15 24 16
f 16 24 25
f 16 25 26
f 16 26 17
f 17 26 27
f 17 27 28
f 17 28 18
f 20 19 29
f 20 29 30
f 20 30 31
f 20 31 21
f 21 31 32
f 21 32 22
f 22 32 33
f 22 33 23
f 23 33 24
f 24 33 34
f 24 34 25
f 25 34 35
f 25 35 26
f 26 35 36
f 26 36 27
f 27 36 37
f 27 37 38
f 27 38 28
f 30 29 39
f 30 39 40
f 30 40 41
f 30 41 31
f 31 41 42
f 31 42 32
f 32 42 43
f 32 43 33
f 33 43 44
f 33 44 34
f 34 44 45
f 34 45 46
f 34 46 35
f 35 46 36
f 36 46 47
f 36 47 37
f 37 47 48
f 37 48 49
f 37 49 38
f 40 39 50
f 40 50 51
f 40 51 52
f 40 52 41
f 41 52 53
f 41 53 42
f 42 53 43
f 43 53 54
f 43 54 55
f 43 55 44
f 44 55 56
f 44 56 57
f 44 57 58
f 44 58 45
f 45 58 59
f 45 59 60
f 45 60 61
f 45 61 46
f 46 61 47
f 47 61 62
f 47 62 48
f 48 62 63
f 48 63 64
f 48 64 49
f 51 50 65
f 51 65 66
f 51 66 67
f 51 67 52
f 52 67 54
f 52 54 53
f 66 65 68
f 66 68 69
f 66 69 70
f 66 70 67
f 67 70 71
f 67 71 54
f 54 71 55
f 55 71 72
f 55 72 73
f 55 73 56
f 56 73 74
f 56 74 75
f 56 75 76
f 56 76 57
f 57 76 77
f 57 77 78
f 57 78 79
f 57 79 58
f 58 79 80
f 58 80 81
f 58 81 59
f 59 81 82
f 59 82 83
f 59 83 60
f 60 83 62
f 60 62 61
f 69 68 84
f 69 84 85
f 69 85 86
f 69 86 70
f 70 86 72
f 70 72 71
f 85 84 87
f 85 87 88
f 85 88 89
f 85 89 86
f 86 89 73
f 86 73 72
f 88 87 90
f 88 90 91
f 88 91 92
f 88 92 89
f 89 92 74
f 89 74 73
f 91 90 93
f 91 93 94
f 91 94 95
f 91 95 92
f 92 95 75
f 92 75 74
f 94 93 96
f 94 96 97
f 94 97 98
f 94 98 95
f 95 98 76
f 95 76 75
f 97 96 99
f 97 99 100
f 97 100 101
f 97 101 98
f 98 101 77
f 98 77 76
f 100 99 102
f 100 102 103
f 100 103 104
f 100 104 101
f 101 104 78
f 101 78 77
f 103 102 105
f 103 105 106
f 103 106 107
f 103 107 104
f 104 107 79
f 104 79 78
f 106 105 108
f 106 108 109
f 106 109 110
f 106 110 107
f 107 110 80
f 107 80 79
f 109 108 111
f 109 111 112
f 109 112 82
f 109 82 110
f 110 82 81
f 110 81 80
f 112 111 113
f 112 113 63
f 112 63 83
f 112 83 82
f 63 113 64
f 62 83 63
f 114 115 116
f 114 116 117
f 114 117 118
f 114 118 115
f 115 118 119
f 115 119 120
f 115 120 116
f 116 120 117
f 117 120 121
f 117 121 118
f 118 121 119
f 119 121 120
f 122 123 124
f 122 124 125
f 122 125 126
f 122 126 123
f 123 126 127
f 123 127 128
f 123 128 124
f 124 128 125
f 125 128 129
f 125 129 126
f 126 129 127
f 127 129 128
