# RS2 Model 14326
# Vertices: 395
# Faces: 487

v 25 172 8
v 27 171 20
v 32 164 16
v 23 166 0
v 17 160 5
v 19 154 2
v 25 154 14
v 36 154 10
v 38 151 10
v 24 151 2
v 28 143 10
v 17 148 8
v 34 160 14
v 37 155 18
v 25 154 18
v 27 154 28
v 41 152 18
v 11 183 14
v 16 167 34
v 29 167 28
v 22 165 28
v 9 141 6
v 4 137 20
v -4 153 0
v -12 154 5
v -18 151 22
v -11 175 12
v -9 164 8
v 0 171 6
v 10 165 2
v -9 174 20
v -7 176 30
v 5 156 40
v 21 150 28
v 17 159 36
v 5 171 34
v -4 155 40
v 11 143 31
v 30 153 30
v 29 146 22
v -2 169 34
v 38 127 8
v 41 132 18
v 39 124 18
v 23 132 24
v 19 128 28
v 15 143 34
v 19 144 28
v 35 134 6
v -8 -96 19
v -13 -118 34
v -4 -119 35
v -4 -95 18
v 2 -72 7
v -8 -73 8
v -9 -73 2
v -9 -108 24
v -13 -121 31
v -5 -123 31
v -4 -108 23
v 1 -74 2
v -17 -166 14
v -16 -154 17
v -16 -162 8
v -14 -141 21
v -10 -144 23
v -9 -165 10
v -11 -155 19
v -11 -166 16
v -7 -124 40
v -6 -122 33
v -13 -120 31
v -13 -122 38
v -13 -165 2
v -5 -177 18
v -3 -180 15
v -11 -170 4
v -15 -180 19
v -15 -169 5
v -12 -177 21
v -12 -169 17
v -15 -164 10
v -15 -164 2
v -9 -164 7
v -8 -169 15
v -61 -96 34
v -54 -102 34
v -40 -84 19
v -43 -80 18
v -52 -89 23
v -64 -98 30
v -58 -104 31
v -49 -93 23
v -23 -69 2
v -23 -69 8
v -29 -61 7
v -30 -62 1
v -90 -134 9
v -84 -127 17
v -92 -136 14
v -96 -132 17
v -86 -125 19
v -94 -131 11
v -78 -116 24
v -74 -118 21
v -60 -105 38
v -64 -100 40
v -63 -100 33
v -57 -102 31
v -109 -135 17
v -108 -136 19
v -93 -133 2
v -100 -133 4
v -102 -144 19
v -95 -138 5
v -102 -141 20
v -95 -135 16
v -100 -132 15
v -96 -130 8
v -92 -134 2
v -91 -134 10
v -20 -53 9
v -20 -55 2
v -17 -64 4
v -22 -60 19
v -13 -62 12
v -10 -57 2
v 0 -61 9
v -3 -68 19
v -8 -67 4
v -2 -62 2
v -16 -78 3
v -21 -76 3
v -115 -137 27
v -109 -145 32
v -104 -142 22
v -109 -136 20
v -111 -137 17
v -115 -138 23
v -108 -147 29
v -102 -145 19
v -13 -178 21
v -9 -186 31
v -1 -185 26
v -5 -179 18
v -3 -182 17
v -1 -185 21
v -14 -180 19
v -12 -186 29
v 9 1 5
v 6 3 11
v 6 -9 11
v 6 -9 5
v 0 3 11
v 1 3 5
v 0 -9 5
v 0 -9 11
v -1 -46 5
v -1 -45 11
v -6 -56 11
v -6 -56 5
v -9 -42 11
v -8 -42 5
v -12 -53 5
v -12 -53 11
v 8 -14 5
v 7 -13 11
v 4 -25 11
v 4 -25 5
v -1 -11 11
v -1 -11 5
v -2 -24 5
v -2 -24 11
v 4 -29 5
v 2 -28 11
v 1 -41 11
v 1 -41 5
v -4 -26 11
v -4 -27 5
v -6 -39 5
v -6 -39 11
v 9 14 1
v 20 19 7
v 16 22 10
v 5 15 7
v 4 10 8
v 4 9 2
v 1 11 7
v -3 9 2
v -17 3 3
v -15 7 7
v -31 3 12
v -32 5 11
v -20 8 2
v -26 9 12
v -4 13 1
v -2 15 7
v 1 21 2
v 1 21 0
v 31 25 16
v 25 22 18
v 24 27 17
v 29 27 14
v 19 23 6
v 4 19 6
v 29 29 33
v 24 27 29
v 27 31 31
v 14 28 40
v 8 18 0
v -24 4 13
v -30 8 29
v -31 10 28
v -24 9 26
v -17 14 36
v 6 30 1
v 22 34 9
v 19 38 13
v 1 33 9
v 0 25 10
v -3 28 2
v -4 32 9
v -9 29 2
v -33 25 4
v -26 30 9
v -47 27 15
v -48 33 14
v -32 30 2
v -41 33 15
v -9 33 1
v -5 35 9
v -2 41 2
v -3 41 0
v 38 39 20
v 29 38 22
v 29 43 21
v 36 42 17
v 23 40 8
v 1 38 8
v 37 44 43
v 29 43 37
v 36 46 40
v 17 45 51
v 4 35 0
v -38 26 16
v -46 34 37
v -45 38 35
v -38 33 33
v -25 39 47
v 4 56 2
v 26 56 11
v 22 65 15
v 0 63 11
v -4 55 12
v -5 55 3
v -7 61 11
v -14 61 3
v -37 63 5
v -31 67 11
v -55 70 18
v -54 77 17
v -35 69 3
v -44 74 18
v -13 65 2
v -6 68 11
v 1 73 3
v -1 74 0
v 43 58 25
v 33 59 28
v 35 65 26
v 42 63 21
v 26 66 9
v 2 68 9
v 46 65 50
v 35 65 44
v 44 68 47
v 21 73 60
v 5 64 0
v -46 68 19
v -51 76 44
v -49 81 42
v -43 73 38
v -28 77 55
v -7 80 5
v -4 78 11
v -4 90 11
v -4 90 5
v 2 78 11
v 1 78 5
v 2 90 5
v 2 90 11
v 3 127 5
v 3 126 11
v 8 137 11
v 8 137 5
v 11 123 11
v 10 123 5
v 14 134 5
v 14 134 11
v -6 95 5
v -5 94 11
v -2 106 11
v -2 106 5
v 3 92 11
v 3 92 5
v 4 105 5
v 4 105 11
v -2 110 5
v 0 109 11
v 1 122 11
v 1 122 5
v 6 107 11
v 6 108 5
v 8 120 5
v 8 120 11
v -88 123 1
v -84 128 4
v -88 123 8
v -129 145 8
v -129 145 1
v -127 147 4
v -91 131 4
v -32 85 1
v -28 90 4
v -32 85 8
v -86 124 8
v -86 124 1
v -82 129 4
v -76 123 4
v -149 65 4
v -148 63 4
v -152 65 6
v -130 143 4
v -126 141 4
v -118 71 4
v -115 71 4
v -117 71 6
v -125 140 4
v -122 140 4
v -183 62 4
v -181 60 4
v -185 61 6
v -131 147 4
v -115 69 4
v -118 69 4
v -115 69 6
v -107 14 4
v -146 62 4
v -151 62 4
v -146 62 6
v -137 0 4
v -180 60 4
v -185 59 4
v -180 60 6
v -188 -2 4
v 45 138 8
v 39 140 4
v 45 138 1
v 69 178 1
v 69 178 8
v 44 146 4
v 66 178 4
v 17 76 8
v 11 78 4
v 17 76 1
v 43 137 8
v 43 137 1
v 37 140 4
v 35 131 4
v 128 118 6
v 126 116 4
v 128 118 4
v 71 176 4
v 68 173 4
v 98 108 6
v 95 106 4
v 98 108 4
v 69 171 4
v 66 170 4
v 158 134 6
v 157 131 4
v 158 134 4
v 70 180 4
v 97 106 6
v 99 107 4
v 96 105 4
v 117 54 4
v 127 116 6
v 129 117 4
v 126 115 4
v 150 57 4
v 159 130 6
v 162 132 4
v 159 133 4
v 194 84 4

f 1 2 3
f 1 3 4
f 4 3 5
f 5 3 6
f 6 3 7
f 6 7 8
f 6 8 9
f 6 9 10
f 10 9 11
f 10 11 12
f 13 14 8
f 13 8 7
f 13 7 3
f 13 3 15
f 13 15 14
f 14 15 16
f 14 16 17
f 14 17 8
f 8 17 9
f 1 18 2
f 2 18 19
f 2 19 20
f 2 20 3
f 3 20 21
f 3 21 16
f 3 16 15
f 22 23 24
f 24 23 25
f 25 23 26
f 25 26 27
f 25 27 28
f 25 28 29
f 29 28 27
f 29 27 18
f 29 18 30
f 30 18 1
f 31 27 26
f 31 26 32
f 31 32 18
f 31 18 27
f 33 34 35
f 33 35 19
f 33 19 36
f 33 36 37
f 33 37 23
f 33 23 38
f 33 38 34
f 34 39 35
f 35 39 16
f 35 16 21
f 35 21 20
f 35 20 19
f 39 17 16
f 17 39 40
f 40 39 34
f 41 32 37
f 41 37 36
f 41 36 32
f 32 36 18
f 18 36 19
f 26 37 32
f 37 26 23
f 42 43 44
f 44 43 45
f 44 45 46
f 46 45 47
f 47 45 48
f 49 43 42
f 50 51 52
f 50 52 53
f 50 53 54
f 50 54 55
f 50 55 56
f 50 56 57
f 50 57 51
f 51 57 58
f 51 58 52
f 52 58 59
f 52 59 60
f 52 60 53
f 53 60 61
f 53 61 54
f 62 63 64
f 64 63 65
f 64 65 66
f 64 66 67
f 67 66 68
f 67 68 69
f 69 68 63
f 69 63 62
f 70 63 68
f 70 68 66
f 70 66 71
f 70 71 72
f 70 72 73
f 70 73 63
f 63 73 65
f 65 73 72
f 65 72 66
f 66 72 71
f 74 75 76
f 74 76 77
f 77 76 78
f 77 78 79
f 79 78 80
f 79 80 81
f 79 81 82
f 79 82 83
f 83 82 84
f 83 84 74
f 74 84 85
f 74 85 75
f 75 85 81
f 75 81 80
f 82 85 84
f 85 82 81
f 86 87 88
f 86 88 89
f 86 89 90
f 86 90 91
f 86 91 92
f 86 92 87
f 87 92 93
f 87 93 88
f 88 93 94
f 88 94 95
f 88 95 96
f 88 96 89
f 89 96 97
f 89 97 90
f 98 99 100
f 100 99 101
f 101 99 102
f 101 102 103
f 103 102 104
f 103 104 98
f 98 104 105
f 98 105 99
f 99 105 106
f 99 106 107
f 99 107 102
f 102 107 104
f 104 107 108
f 104 108 109
f 104 109 105
f 105 109 106
f 106 109 107
f 107 109 108
f 110 111 112
f 110 112 113
f 110 113 114
f 114 113 115
f 114 115 116
f 116 115 117
f 116 117 111
f 111 117 118
f 111 118 112
f 112 118 119
f 112 119 120
f 112 120 115
f 115 120 121
f 115 121 117
f 117 121 118
f 118 121 119
f 119 121 120
f 122 123 124
f 122 124 125
f 122 125 126
f 122 126 127
f 127 126 128
f 128 126 129
f 128 129 130
f 128 130 131
f 131 130 132
f 132 130 129
f 132 129 126
f 132 126 133
f 133 126 125
f 133 125 124
f 133 124 123
f 134 135 136
f 134 136 137
f 134 137 138
f 134 138 139
f 134 139 135
f 135 139 140
f 135 140 136
f 136 140 141
f 141 140 139
f 141 139 138
f 142 143 144
f 142 144 145
f 145 144 146
f 146 144 147
f 146 147 148
f 148 147 149
f 148 149 142
f 142 149 143
f 143 149 147
f 143 147 144
f 150 151 152
f 150 152 153
f 154 155 156
f 154 156 157
f 154 157 151
f 151 157 152
f 158 159 160
f 158 160 161
f 162 163 164
f 162 164 165
f 162 165 159
f 159 165 160
f 166 167 168
f 166 168 169
f 170 171 172
f 170 172 173
f 170 173 167
f 167 173 168
f 174 175 176
f 174 176 177
f 178 179 180
f 178 180 181
f 178 181 175
f 175 181 176
f 182 183 184
f 182 184 185
f 182 185 186
f 182 186 187
f 187 186 188
f 187 188 189
f 189 188 190
f 190 188 191
f 190 191 192
f 190 192 193
f 190 193 194
f 194 193 195
f 194 195 191
f 194 191 196
f 196 191 197
f 196 197 198
f 196 198 199
f 183 200 201
f 183 201 184
f 184 201 202
f 184 202 203
f 184 203 204
f 184 204 205
f 184 205 185
f 185 205 197
f 185 197 188
f 185 188 186
f 200 206 207
f 200 207 201
f 201 207 202
f 202 207 208
f 202 208 203
f 203 208 206
f 203 206 200
f 203 200 204
f 204 200 183
f 206 209 207
f 207 209 208
f 208 209 206
f 205 204 210
f 205 210 199
f 191 211 192
f 192 211 212
f 192 212 213
f 192 213 193
f 193 213 214
f 193 214 195
f 195 214 211
f 195 211 191
f 211 214 212
f 212 214 215
f 212 215 213
f 213 215 214
f 197 191 188
f 205 198 197
f 216 217 218
f 216 218 219
f 216 219 220
f 216 220 221
f 221 220 222
f 221 222 223
f 223 222 224
f 224 222 225
f 224 225 226
f 224 226 227
f 224 227 228
f 228 227 229
f 228 229 225
f 228 225 230
f 230 225 231
f 230 231 232
f 230 232 233
f 217 234 235
f 217 235 218
f 218 235 236
f 218 236 237
f 218 237 238
f 218 238 239
f 218 239 219
f 219 239 231
f 219 231 222
f 219 222 220
f 234 240 241
f 234 241 235
f 235 241 236
f 236 241 242
f 236 242 237
f 237 242 240
f 237 240 234
f 237 234 238
f 238 234 217
f 240 243 241
f 241 243 242
f 242 243 240
f 239 238 244
f 239 244 233
f 225 245 226
f 226 245 246
f 226 246 247
f 226 247 227
f 227 247 248
f 227 248 229
f 229 248 245
f 229 245 225
f 245 248 246
f 246 248 249
f 246 249 247
f 247 249 248
f 231 225 222
f 239 232 231
f 250 251 252
f 250 252 253
f 250 253 254
f 250 254 255
f 255 254 256
f 255 256 257
f 257 256 258
f 258 256 259
f 258 259 260
f 258 260 261
f 258 261 262
f 262 261 263
f 262 263 259
f 262 259 264
f 264 259 265
f 264 265 266
f 264 266 267
f 251 268 269
f 251 269 252
f 252 269 270
f 252 270 271
f 252 271 272
f 252 272 273
f 252 273 253
f 253 273 265
f 253 265 256
f 253 256 254
f 268 274 275
f 268 275 269
f 269 275 270
f 270 275 276
f 270 276 271
f 271 276 274
f 271 274 268
f 271 268 272
f 272 268 251
f 274 277 275
f 275 277 276
f 276 277 274
f 273 272 278
f 273 278 267
f 259 279 260
f 260 279 280
f 260 280 281
f 260 281 261
f 261 281 282
f 261 282 263
f 263 282 279
f 263 279 259
f 279 282 280
f 280 282 283
f 280 283 281
f 281 283 282
f 265 259 256
f 273 266 265
f 284 285 286
f 284 286 287
f 288 289 290
f 288 290 291
f 288 291 285
f 285 291 286
f 292 293 294
f 292 294 295
f 296 297 298
f 296 298 299
f 296 299 293
f 293 299 294
f 300 301 302
f 300 302 303
f 304 305 306
f 304 306 307
f 304 307 301
f 301 307 302
f 308 309 310
f 308 310 311
f 312 313 314
f 312 314 315
f 312 315 309
f 309 315 310
f 316 317 318
f 316 318 319
f 316 319 320
f 320 319 321
f 321 319 318
f 321 318 322
f 322 318 317
f 322 317 316
f 323 324 325
f 323 325 326
f 323 326 327
f 327 326 328
f 328 326 329
f 329 326 325
f 329 325 324
f 324 325 323
f 330 331 332
f 330 332 333
f 333 332 334
f 334 332 331
f 335 336 337
f 335 337 338
f 338 337 339
f 339 337 336
f 340 341 342
f 340 342 343
f 343 342 333
f 333 342 341
f 344 345 346
f 344 346 347
f 347 346 345
f 348 349 350
f 348 350 351
f 351 350 349
f 352 353 354
f 352 354 355
f 355 354 353
f 356 357 358
f 356 358 359
f 356 359 360
f 356 360 361
f 356 361 357
f 357 361 358
f 360 362 361
f 362 360 359
f 363 364 365
f 363 365 366
f 363 366 364
f 363 364 365
f 367 366 365
f 366 367 368
f 366 368 369
f 366 369 364
f 370 371 372
f 370 372 373
f 370 373 371
f 371 373 374
f 375 376 377
f 375 377 378
f 375 378 376
f 376 378 379
f 380 381 382
f 380 382 383
f 380 383 381
f 381 383 373
f 384 385 386
f 384 386 387
f 384 387 385
f 388 389 390
f 388 390 391
f 388 391 389
f 392 393 394
f 392 394 395
f 392 395 393
