# RS2 Model 1437
# Vertices: 30
# Faces: 44

v -20 -6 6
v -17 -7 13
v -10 0 16
v -12 3 7
v -12 -2 0
v -18 -8 0
v -14 -12 0
v -13 -12 13
v -7 -6 16
v -1 1 10
v -1 5 10
v -3 8 5
v -3 6 0
v -11 -15 6
v -9 -8 0
v -6 -13 7
v 0 -5 5
v -2 -1 0
v 7 6 0
v 7 5 4
v 7 8 6
v 7 11 6
v 6 14 4
v 5 12 0
v 16 16 2
v 14 17 2
v 16 16 1
v 15 17 0
v 14 18 1
v 14 17 0

f 1 2 3
f 1 3 4
f 1 4 5
f 1 5 6
f 1 6 2
f 2 6 7
f 2 7 8
f 2 8 9
f 2 9 3
f 3 9 10
f 3 10 11
f 3 11 4
f 4 11 12
f 4 12 13
f 4 13 5
f 14 7 15
f 14 15 16
f 14 16 9
f 14 9 8
f 14 8 7
f 16 17 10
f 16 10 9
f 16 15 18
f 16 18 17
f 17 18 19
f 17 19 20
f 17 20 21
f 17 21 10
f 10 21 11
f 11 21 22
f 11 22 12
f 12 22 23
f 12 23 24
f 12 24 13
f 25 26 22
f 25 22 21
f 25 21 20
f 25 20 27
f 27 20 28
f 28 20 19
f 23 29 30
f 23 30 24
f 23 22 26
f 23 26 29
