# RS2 Model 1440
# Vertices: 50
# Faces: 86

v -49 46 0
v -47 -46 0
v -59 -52 12
v -60 50 13
v -49 60 14
v -36 62 0
v 42 58 0
v 48 60 14
v 49 52 0
v 57 54 14
v 51 -50 0
v 60 -56 12
v 45 -56 0
v 51 -62 14
v -40 -56 0
v -50 -64 12
v -62 -56 36
v -64 56 38
v -64 -50 76
v -64 49 76
v -56 -56 108
v -54 55 107
v -48 64 102
v -57 60 75
v -62 56 38
v -56 64 40
v 56 64 40
v 64 56 38
v 56 59 75
v 60 57 75
v 52 64 105
v 60 56 108
v 62 -56 75
v 64 -56 38
v 63 56 37
v -44 -50 127
v 50 -43 125
v 49 39 127
v -42 49 127
v -51 -64 103
v -36 -59 122
v 46 -58 119
v 52 -64 105
v 58 -56 109
v 44 58 120
v -39 59 121
v 56 -59 75
v 56 -64 40
v -57 -60 75
v -52 -64 40

f 1 2 3
f 1 3 4
f 1 4 5
f 1 5 6
f 6 5 7
f 7 5 8
f 7 8 9
f 9 8 10
f 9 10 11
f 11 10 12
f 11 12 13
f 13 12 14
f 13 14 15
f 15 14 16
f 15 16 3
f 15 3 2
f 4 3 17
f 4 17 18
f 18 17 19
f 18 19 20
f 20 19 21
f 20 21 22
f 20 22 23
f 20 23 24
f 20 24 25
f 25 24 26
f 25 26 4
f 4 26 5
f 5 26 8
f 8 26 27
f 8 27 10
f 10 27 28
f 28 27 29
f 28 29 30
f 30 29 31
f 30 31 32
f 30 32 33
f 30 33 34
f 30 34 35
f 35 34 12
f 35 12 10
f 36 37 38
f 36 38 39
f 36 39 21
f 36 21 40
f 36 40 41
f 36 41 37
f 37 41 42
f 37 42 43
f 37 43 44
f 37 44 38
f 38 44 32
f 38 32 45
f 38 45 39
f 39 45 46
f 39 46 22
f 39 22 21
f 33 32 44
f 33 44 47
f 33 47 48
f 33 48 34
f 34 48 14
f 34 14 12
f 40 43 42
f 40 42 41
f 49 47 43
f 49 43 40
f 49 40 21
f 49 21 19
f 49 19 50
f 49 50 47
f 47 50 48
f 48 50 16
f 48 16 14
f 16 50 17
f 16 17 3
f 50 19 17
f 47 44 43
f 46 45 31
f 46 31 23
f 46 23 22
f 23 31 29
f 23 29 24
f 24 29 27
f 24 27 26
f 45 32 31
