# RS2 Model 14438
# Vertices: 194
# Faces: 339

v -39 21 33
v 0 21 41
v 0 21 45
v -42 21 36
v -48 21 4
v -48 12 4
v -41 14 26
v -24 16 36
v 0 17 38
v 24 16 36
v 39 21 33
v 42 21 36
v 52 21 45
v 0 21 57
v -52 21 45
v -52 21 4
v -29 21 -21
v -32 9 -19
v -31 -17 -12
v -38 -12 4
v -35 -3 29
v -20 -1 37
v 0 10 41
v 20 -1 37
v 35 -3 29
v 41 14 26
v 48 21 4
v 52 21 4
v 66 21 4
v 66 30 4
v 52 30 45
v 0 30 57
v -52 30 45
v -66 21 4
v -30 21 -24
v 0 21 -33
v -16 9 -28
v -16 -24 -26
v -24 -22 -22
v -24 -34 -9
v -31 -23 -3
v -31 -20 6
v -31 -12 28
v 0 -19 37
v 31 -12 28
v 38 -12 4
v 48 12 4
v 31 21 -21
v 32 21 -24
v 44 21 -33
v 44 30 -33
v 0 21 -39
v 16 9 -28
v 0 9 -33
v -8 -25 -28
v 0 -45 -23
v -16 -40 -17
v -14 -44 -13
v -12 -40 -10
v -13 -51 -6
v -15 -52 -4
v -14 -47 5
v -25 -33 2
v -29 -28 6
v -40 -21 9
v -36 -31 9
v -37 -31 10
v -40 -23 10
v -46 -24 13
v -44 -32 13
v -54 -27 13
v -52 -34 14
v -61 -29 14
v -61 -34 14
v -75 -35 33
v -62 -36 19
v -61 -35 23
v -61 -31 24
v -51 -28 25
v -51 -32 25
v -41 -25 27
v -41 -32 25
v -33 -24 24
v -34 -30 21
v -32 -29 21
v -31 -23 25
v -27 -20 23
v -26 -28 18
v -22 -32 17
v -24 -28 27
v -6 -30 28
v 0 21 -53
v 0 30 -53
v -42 21 -33
v -42 30 -33
v -66 30 4
v 32 9 -19
v 31 -17 -12
v 24 -22 -22
v 16 -24 -26
v 31 -23 -3
v 24 -34 -9
v 16 -40 -17
v 8 -25 -28
v 0 -27 -31
v 61 -31 24
v 61 -35 23
v 75 -35 33
v 62 -36 19
v 61 -34 14
v 61 -29 14
v 52 -34 14
v 54 -27 13
v 44 -32 13
v 46 -24 13
v 37 -31 10
v 40 -23 10
v 36 -31 9
v 40 -21 9
v 29 -28 6
v 31 -20 6
v 27 -20 23
v 6 -30 28
v 6 -37 32
v 24 -28 27
v 22 -32 17
v 26 -28 18
v 32 -29 21
v 31 -23 25
v 34 -30 21
v 33 -24 24
v 41 -32 25
v 41 -25 27
v 51 -32 25
v 51 -28 25
v 52 -36 19
v 42 -36 19
v 36 -34 15
v 34 -36 13
v 28 -32 12
v 25 -33 2
v 14 -47 5
v 15 -52 -4
v 13 -51 -6
v 12 -40 -10
v 14 -44 -13
v 5 -48 -16
v 0 -50 -17
v -5 -48 -16
v 0 -45 -11
v -7 -51 -7
v -10 -53 -6
v 0 -60 -1
v 0 -56 6
v -14 -39 13
v -28 -32 12
v -34 -36 13
v -36 -34 15
v -42 -36 19
v -52 -36 19
v 7 -51 -7
v 10 -51 -14
v 10 -53 -6
v 0 -52 -6
v 14 -39 13
v 0 -50 11
v -4 -40 16
v -13 -36 17
v 0 -47 21
v 0 -39 16
v 4 -40 16
v 13 -42 19
v 13 -40 27
v 1 -44 25
v 0 -44 23
v -1 -44 25
v -13 -40 27
v -13 -42 19
v 13 -36 17
v 0 -39 27
v -6 -37 32
v -13 -39 16
v 0 -32 29
v 13 -39 16
v -10 -51 -14
v 22 -33 14
v 21 -31 18
v 5 -42 13
v -5 -42 13
v -3 -39 17
v -22 -33 14
v 18 -48 -16
v 20 -53 0
v -20 -49 -12

f 1 2 3
f 1 3 4
f 1 4 5
f 1 5 6
f 1 6 7
f 1 7 8
f 1 8 2
f 2 8 9
f 2 9 10
f 2 10 11
f 2 11 12
f 2 12 3
f 3 12 13
f 3 13 14
f 3 14 4
f 4 14 15
f 4 15 16
f 4 16 5
f 5 16 17
f 5 17 6
f 6 17 18
f 6 18 19
f 6 19 20
f 6 20 7
f 7 20 21
f 7 21 8
f 8 21 22
f 8 22 23
f 8 23 9
f 9 23 10
f 10 23 24
f 10 24 25
f 10 25 26
f 10 26 11
f 11 26 27
f 11 27 28
f 11 28 12
f 12 28 29
f 12 29 13
f 13 29 30
f 13 30 31
f 13 31 14
f 14 31 32
f 14 32 15
f 15 32 33
f 15 33 34
f 15 34 16
f 16 34 35
f 16 35 17
f 17 35 36
f 17 36 37
f 17 37 18
f 18 37 38
f 18 38 39
f 18 39 19
f 19 39 40
f 19 40 41
f 19 41 20
f 20 41 42
f 20 42 43
f 20 43 21
f 21 43 22
f 22 43 44
f 22 44 23
f 23 44 24
f 24 44 45
f 24 45 25
f 25 45 46
f 25 46 26
f 26 46 47
f 26 47 27
f 27 47 48
f 27 48 49
f 27 49 28
f 28 49 50
f 28 50 29
f 29 50 51
f 29 51 30
f 36 35 52
f 36 52 48
f 36 48 53
f 36 53 54
f 36 54 37
f 37 54 55
f 37 55 38
f 38 55 56
f 38 56 57
f 38 57 39
f 39 57 40
f 40 57 58
f 40 58 59
f 40 59 60
f 40 60 61
f 40 61 62
f 40 62 63
f 40 63 41
f 41 63 64
f 41 64 42
f 42 64 65
f 65 64 66
f 65 66 67
f 65 67 68
f 68 67 69
f 69 67 70
f 69 70 71
f 71 70 72
f 71 72 73
f 73 72 74
f 73 74 75
f 75 74 76
f 75 76 77
f 75 77 78
f 78 77 79
f 79 77 80
f 79 80 81
f 81 80 82
f 81 82 83
f 83 82 84
f 83 84 85
f 83 85 86
f 86 85 87
f 87 85 88
f 87 88 89
f 87 89 90
f 87 90 91
f 87 91 44
f 87 44 43
f 87 43 42
f 48 52 49
f 49 52 92
f 49 92 50
f 50 92 93
f 50 93 51
f 52 35 94
f 52 94 92
f 92 94 95
f 92 95 93
f 35 34 94
f 94 34 96
f 94 96 95
f 34 33 96
f 97 98 99
f 97 99 100
f 97 100 53
f 97 53 48
f 97 48 47
f 97 47 98
f 98 47 46
f 98 46 101
f 98 101 102
f 98 102 99
f 99 102 103
f 99 103 100
f 100 103 56
f 100 56 104
f 100 104 53
f 53 104 54
f 54 104 105
f 54 105 55
f 55 105 56
f 56 105 104
f 106 107 108
f 108 107 109
f 108 109 110
f 108 110 111
f 111 110 112
f 111 112 113
f 113 112 114
f 113 114 115
f 115 114 116
f 115 116 117
f 117 116 118
f 117 118 119
f 119 118 120
f 119 120 121
f 121 120 101
f 121 101 46
f 121 46 45
f 121 45 122
f 122 45 44
f 122 44 123
f 122 123 124
f 122 124 125
f 122 125 126
f 122 126 127
f 122 127 128
f 122 128 129
f 129 128 130
f 129 130 131
f 131 130 132
f 131 132 133
f 133 132 134
f 133 134 135
f 135 134 107
f 135 107 106
f 132 136 134
f 134 136 109
f 134 109 107
f 112 110 136
f 112 136 137
f 112 137 114
f 114 137 138
f 114 138 116
f 116 138 139
f 116 139 118
f 118 139 120
f 120 139 140
f 120 140 141
f 120 141 101
f 101 141 102
f 102 141 142
f 102 142 143
f 102 143 144
f 102 144 145
f 102 145 146
f 102 146 103
f 103 146 56
f 56 146 147
f 56 147 148
f 56 148 149
f 56 149 57
f 57 149 58
f 58 149 59
f 59 149 150
f 59 150 151
f 59 151 152
f 59 152 60
f 60 152 61
f 61 152 153
f 61 153 62
f 62 153 154
f 62 154 155
f 62 155 63
f 63 155 156
f 63 156 64
f 64 156 157
f 64 157 66
f 66 157 158
f 66 158 67
f 67 158 70
f 70 158 159
f 70 159 72
f 72 159 160
f 72 160 74
f 74 160 76
f 76 160 80
f 76 80 77
f 161 162 163
f 161 163 153
f 161 153 164
f 161 164 150
f 161 150 145
f 161 145 163
f 163 145 144
f 163 144 143
f 163 143 153
f 153 143 142
f 153 142 154
f 154 142 165
f 154 165 166
f 154 166 155
f 155 166 167
f 155 167 168
f 155 168 89
f 155 89 156
f 156 89 88
f 156 88 85
f 156 85 157
f 157 85 84
f 157 84 158
f 158 84 159
f 159 84 82
f 159 82 160
f 160 82 80
f 169 170 171
f 169 171 172
f 169 172 173
f 169 173 174
f 169 174 175
f 169 175 176
f 169 176 177
f 169 177 178
f 169 178 167
f 169 167 170
f 170 167 166
f 170 166 171
f 171 166 165
f 171 165 179
f 171 179 172
f 172 179 126
f 172 126 125
f 172 125 173
f 173 125 124
f 173 124 174
f 174 124 180
f 174 180 175
f 175 180 176
f 176 180 181
f 176 181 177
f 177 181 90
f 177 90 89
f 177 89 178
f 178 89 168
f 178 168 167
f 167 168 182
f 182 168 89
f 126 165 140
f 126 140 127
f 127 140 128
f 128 140 139
f 128 139 138
f 128 138 130
f 130 138 137
f 130 137 132
f 132 137 136
f 44 183 123
f 123 183 180
f 123 180 124
f 109 136 110
f 163 162 144
f 147 145 150
f 147 150 148
f 148 150 149
f 165 141 140
f 141 165 142
f 179 165 126
f 179 171 184
f 179 184 126
f 152 185 151
f 152 151 153
f 153 151 164
f 164 151 150
f 91 183 44
f 183 91 181
f 183 181 180
f 60 185 152
f 91 90 181
f 146 145 147
f 186 187 188
