# RS2 Model 14457
# Vertices: 176
# Faces: 322

v -42 -59 146
v -17 -33 144
v -68 -34 144
v -57 -6 19
v -58 -27 17
v -35 -6 19
v -21 53 29
v -19 50 29
v -19 50 25
v -21 53 25
v -35 47 25
v -35 47 29
v -34 43 29
v -34 43 25
v -62 39 17
v -57 28 16
v -46 25 16
v -36 30 16
v -32 40 17
v -37 51 17
v -48 54 18
v -58 50 17
v -58 49 33
v -62 38 33
v -57 27 32
v -48 54 34
v -37 50 33
v -32 39 33
v -36 29 32
v -46 24 32
v -23 -17 30
v -23 -20 30
v -23 -19 26
v -23 -16 26
v -36 -16 26
v -36 -17 30
v -36 -20 30
v -36 -19 26
v -58 -13 19
v -58 -22 18
v -51 -27 17
v -43 -27 17
v -36 -22 18
v -36 -13 19
v -43 -6 19
v -51 -6 19
v -51 -7 35
v -58 -14 35
v -58 -23 34
v -43 -7 35
v -36 -14 35
v -36 -23 34
v -43 -29 33
v -51 -29 33
v -28 -37 45
v -30 -40 45
v -30 -40 41
v -28 -37 41
v -38 -28 41
v -38 -28 45
v -39 -30 45
v -39 -30 41
v -51 -11 33
v -58 -18 33
v -58 -27 33
v -51 -33 33
v -43 -33 33
v -36 -27 33
v -36 -18 33
v -43 -11 33
v -43 -11 49
v -51 -11 49
v -58 -18 49
v -36 -18 49
v -36 -27 49
v -43 -33 49
v -51 -33 49
v -58 -27 49
v -39 -28 120
v -45 -27 120
v -51 -33 120
v -48 -39 120
v -41 -41 120
v -36 -38 120
v -34 -34 120
v -26 -34 136
v -29 -26 136
v -35 -20 136
v -43 -15 132
v -34 -18 132
v -27 -25 132
v -24 -34 132
v -29 -42 136
v -27 -43 136
v -24 -34 136
v -27 -25 136
v -34 -18 136
v -43 -17 136
v -51 -20 136
v -59 -25 132
v -52 -18 132
v -52 -18 136
v -43 -15 136
v -27 -43 132
v -35 -48 136
v -34 -50 136
v -34 -50 132
v -62 -34 132
v -62 -34 136
v -59 -25 136
v -57 -26 136
v -59 -43 132
v -52 -50 132
v -52 -50 136
v -59 -43 136
v -57 -42 136
v -60 -34 136
v -43 -53 132
v -43 -53 136
v -43 -51 136
v -51 -48 136
v -39 -30 128
v -45 -29 128
v -51 -35 128
v -48 -41 129
v -41 -43 129
v -36 -40 129
v -34 -36 129
v -26 -34 144
v -29 -26 143
v -35 -20 143
v -43 -16 138
v -34 -19 139
v -27 -26 139
v -24 -34 140
v -29 -42 145
v -27 -43 146
v -24 -34 144
v -27 -25 143
v -34 -18 143
v -43 -17 142
v -51 -20 143
v -59 -26 139
v -52 -19 139
v -52 -18 143
v -43 -15 142
v -27 -43 142
v -35 -48 146
v -34 -50 146
v -34 -50 142
v -62 -34 140
v -62 -34 144
v -59 -25 143
v -57 -26 143
v -59 -43 142
v -52 -50 142
v -52 -50 146
v -59 -43 146
v -57 -42 145
v -60 -34 144
v -43 -53 143
v -43 -53 147
v -43 -51 147
v -51 -48 146
v -32 -34 126
v -39 -65 129
v 12 -44 129
v -42 -59 136
v -17 -33 136
v -68 -34 136
v -31 -23 33
v -45 -6 33
v -48 -37 33
v -57 56 17
v -64 30 16
v -29 49 17

f 1 2 3
f 4 5 6
f 7 8 9
f 7 9 10
f 7 10 11
f 7 11 12
f 7 12 8
f 8 12 13
f 8 13 14
f 8 14 9
f 15 16 17
f 15 17 18
f 15 18 19
f 15 19 20
f 15 20 21
f 15 21 22
f 15 22 23
f 15 23 24
f 15 24 16
f 15 16 25
f 15 25 24
f 15 24 22
f 22 24 23
f 22 23 21
f 22 21 26
f 22 26 23
f 23 26 21
f 21 26 27
f 21 27 20
f 21 20 26
f 26 20 27
f 27 20 19
f 27 19 28
f 27 28 20
f 20 28 19
f 19 28 29
f 19 29 18
f 19 18 28
f 28 18 29
f 29 18 30
f 29 30 17
f 29 17 18
f 18 17 30
f 30 17 25
f 30 25 16
f 30 16 17
f 17 16 25
f 25 16 24
f 31 32 33
f 31 33 34
f 31 34 35
f 31 35 36
f 31 36 32
f 32 36 37
f 32 37 38
f 32 38 33
f 39 40 41
f 39 41 42
f 39 42 43
f 39 43 44
f 39 44 45
f 39 45 46
f 39 46 47
f 39 47 48
f 39 48 40
f 39 40 49
f 39 49 48
f 39 48 46
f 46 48 47
f 46 47 45
f 46 45 50
f 46 50 47
f 47 50 45
f 45 50 51
f 45 51 44
f 45 44 50
f 50 44 51
f 51 44 43
f 51 43 52
f 51 52 44
f 44 52 43
f 43 52 53
f 43 53 42
f 43 42 52
f 52 42 53
f 53 42 54
f 53 54 41
f 53 41 42
f 42 41 54
f 54 41 49
f 54 49 40
f 54 40 41
f 41 40 49
f 49 40 48
f 55 56 57
f 55 57 58
f 55 58 59
f 55 59 60
f 55 60 56
f 56 60 61
f 56 61 62
f 56 62 57
f 63 64 65
f 63 65 66
f 63 66 67
f 63 67 68
f 63 68 69
f 63 69 70
f 63 70 71
f 63 71 72
f 63 72 64
f 63 64 73
f 63 73 72
f 63 72 70
f 70 72 71
f 70 71 69
f 70 69 74
f 70 74 71
f 71 74 69
f 69 74 75
f 69 75 68
f 69 68 74
f 74 68 75
f 75 68 67
f 75 67 76
f 75 76 68
f 68 76 67
f 67 76 77
f 67 77 66
f 67 66 76
f 76 66 77
f 77 66 78
f 77 78 65
f 77 65 66
f 66 65 78
f 78 65 73
f 78 73 64
f 78 64 65
f 65 64 73
f 73 64 72
f 79 80 81
f 79 81 82
f 79 82 83
f 79 83 84
f 79 84 85
f 79 85 86
f 79 86 87
f 79 87 88
f 79 88 80
f 79 80 89
f 79 89 90
f 79 90 91
f 79 91 85
f 85 91 92
f 85 92 84
f 85 84 93
f 85 93 86
f 86 93 94
f 86 94 95
f 86 95 87
f 87 95 96
f 87 96 88
f 88 96 97
f 88 97 98
f 88 98 80
f 80 98 99
f 80 99 81
f 80 81 100
f 80 100 101
f 80 101 89
f 89 101 102
f 89 102 103
f 89 103 90
f 90 103 97
f 90 97 91
f 91 97 96
f 91 96 92
f 92 96 95
f 92 95 104
f 92 104 84
f 84 104 83
f 84 83 105
f 84 105 93
f 93 105 106
f 93 106 94
f 94 106 107
f 94 107 104
f 94 104 95
f 100 81 108
f 100 108 109
f 100 109 110
f 100 110 101
f 101 110 102
f 102 110 111
f 102 111 99
f 102 99 103
f 103 99 98
f 103 98 97
f 112 108 81
f 112 81 82
f 112 82 113
f 112 113 114
f 112 114 115
f 112 115 108
f 108 115 109
f 109 115 116
f 109 116 117
f 109 117 110
f 110 117 111
f 111 117 81
f 111 81 99
f 118 113 82
f 118 82 83
f 118 83 107
f 118 107 106
f 118 106 119
f 118 119 113
f 113 119 114
f 114 119 120
f 114 120 121
f 114 121 115
f 115 121 116
f 116 121 82
f 116 82 117
f 117 82 81
f 104 107 83
f 105 120 119
f 105 119 106
f 83 82 121
f 83 121 120
f 83 120 105
f 122 123 124
f 122 124 125
f 122 125 126
f 122 126 127
f 122 127 128
f 122 128 129
f 122 129 130
f 122 130 131
f 122 131 123
f 122 123 132
f 122 132 133
f 122 133 134
f 122 134 128
f 128 134 135
f 128 135 127
f 128 127 136
f 128 136 129
f 129 136 137
f 129 137 138
f 129 138 130
f 130 138 139
f 130 139 131
f 131 139 140
f 131 140 141
f 131 141 123
f 123 141 142
f 123 142 124
f 123 124 143
f 123 143 144
f 123 144 132
f 132 144 145
f 132 145 146
f 132 146 133
f 133 146 140
f 133 140 134
f 134 140 139
f 134 139 135
f 135 139 138
f 135 138 147
f 135 147 127
f 127 147 126
f 127 126 148
f 127 148 136
f 136 148 149
f 136 149 137
f 137 149 150
f 137 150 147
f 137 147 138
f 143 124 151
f 143 151 152
f 143 152 153
f 143 153 144
f 144 153 145
f 145 153 154
f 145 154 142
f 145 142 146
f 146 142 141
f 146 141 140
f 155 151 124
f 155 124 125
f 155 125 156
f 155 156 157
f 155 157 158
f 155 158 151
f 151 158 152
f 152 158 159
f 152 159 160
f 152 160 153
f 153 160 154
f 154 160 124
f 154 124 142
f 161 156 125
f 161 125 126
f 161 126 150
f 161 150 149
f 161 149 162
f 161 162 156
f 156 162 157
f 157 162 163
f 157 163 164
f 157 164 158
f 158 164 159
f 159 164 125
f 159 125 160
f 160 125 124
f 147 150 126
f 148 163 162
f 148 162 149
f 126 125 164
f 126 164 163
f 126 163 148
