# RS2 Model 14466
# Vertices: 159
# Faces: 298

v 7 3 196
v 8 6 199
v 0 7 200
v 0 3 196
v 0 3 201
v 9 3 200
v 9 -3 196
v 10 6 191
v 8 10 194
v 0 11 195
v -8 10 194
v -8 6 199
v -7 3 196
v -9 3 200
v 0 -2 201
v 9 -2 200
v 0 -3 196
v 0 -5 201
v 11 -5 200
v 9 -10 195
v 12 -3 195
v 14 3 193
v 11 10 188
v 10 9 185
v 7 12 186
v 7 11 192
v 0 6 191
v -10 6 191
v -9 -2 200
v -9 -3 196
v -11 -5 200
v 0 -11 199
v 11 -11 198
v 0 -10 195
v 9 -13 197
v 7 -12 188
v 13 -13 195
v 15 -5 194
v 16 -5 190
v 15 4 188
v 12 4 186
v 11 11 182
v 8 7 180
v 6 11 179
v 6 12 184
v 0 9 185
v 0 13 186
v 0 12 192
v -7 11 192
v -7 12 186
v -10 9 185
v -12 10 188
v -15 3 193
v -13 -3 195
v -9 -10 195
v -11 -11 198
v 0 -13 198
v 9 -16 195
v 0 -16 196
v 0 -14 188
v 7 -14 186
v 10 -9 182
v 14 -11 183
v 15 -11 186
v 9 -4 187
v 13 -15 191
v -9 -13 197
v -9 -16 195
v -7 -12 188
v 0 -16 186
v 7 -15 184
v 9 -9 181
v 10 -2 180
v 11 -2 182
v 15 -5 182
v 17 -5 185
v 16 0 185
v 0 13 184
v -6 12 184
v -6 11 179
v 0 12 179
v 0 9 180
v -8 7 180
v 0 8 175
v -9 4 176
v -11 4 180
v -11 1 183
v -15 4 182
v -12 11 182
v -13 4 186
v -16 4 188
v -17 -5 190
v -16 -4 194
v -14 -13 195
v -14 -14 191
v -11 -4 187
v -16 -11 186
v -15 -11 183
v -10 -9 182
v -7 -14 186
v -7 -15 184
v -3 -17 184
v 0 -18 183
v 4 -16 184
v 5 -14 182
v 8 -11 180
v 8 -13 178
v 9 -7 177
v -16 4 184
v -18 0 185
v -18 -4 185
v -11 -2 182
v -16 0 182
v -16 -5 182
v 15 3 185
v 14 2 183
v 11 1 183
v 11 4 180
v 9 4 176
v 0 6 173
v -8 1 173
v -11 3 176
v -12 4 180
v -12 1 182
v -10 -2 180
v 15 -2 182
v 12 1 182
v 12 4 180
v 11 3 176
v 8 1 173
v 7 -2 170
v 8 1 165
v 0 9 165
v -8 1 165
v -7 -2 170
v -9 -1 175
v -9 1 178
v 2 -15 180
v 5 -14 179
v 3 -16 175
v 4 -15 173
v 7 -10 174
v 9 -1 175
v 9 1 178
v 0 -17 181
v 0 -6 165
v 0 -6 160
v -5 -14 182
v -5 -14 179
v -2 -15 180
v -8 -11 180
v -8 -13 178
v -3 -16 175
v -9 -9 181
v -9 -7 177
v -7 -10 174
v -4 -15 173
v 0 -20 175
v 0 -17 174

f 1 2 3
f 1 3 4
f 1 4 5
f 1 5 6
f 1 6 7
f 1 7 8
f 1 8 9
f 1 9 2
f 2 9 10
f 2 10 3
f 3 10 11
f 3 11 12
f 3 12 13
f 3 13 4
f 4 13 5
f 5 13 14
f 5 14 15
f 5 15 16
f 5 16 6
f 6 16 7
f 7 16 17
f 7 17 18
f 7 18 19
f 7 19 20
f 7 20 21
f 7 21 8
f 8 21 22
f 8 22 23
f 8 23 24
f 8 24 25
f 8 25 26
f 8 26 27
f 8 27 9
f 9 27 10
f 10 27 11
f 11 27 28
f 11 28 13
f 11 13 12
f 17 16 15
f 17 15 29
f 17 29 30
f 17 30 18
f 18 30 31
f 18 31 32
f 18 32 33
f 18 33 19
f 19 33 20
f 20 33 32
f 20 32 34
f 20 34 35
f 20 35 36
f 20 36 37
f 20 37 21
f 21 37 38
f 21 38 22
f 22 38 39
f 22 39 40
f 22 40 23
f 23 40 41
f 23 41 24
f 24 41 42
f 24 42 43
f 24 43 44
f 24 44 45
f 24 45 46
f 24 46 25
f 25 46 47
f 25 47 48
f 25 48 26
f 26 48 27
f 27 48 49
f 27 49 28
f 28 49 50
f 28 50 51
f 28 51 52
f 28 52 53
f 28 53 54
f 28 54 30
f 28 30 13
f 13 30 14
f 14 30 29
f 14 29 15
f 31 30 55
f 31 55 56
f 31 56 32
f 32 56 55
f 32 55 34
f 34 55 57
f 34 57 35
f 35 57 58
f 35 58 36
f 36 58 59
f 36 59 60
f 36 60 61
f 36 61 62
f 36 62 63
f 36 63 64
f 36 64 65
f 36 65 39
f 36 39 66
f 36 66 37
f 37 66 39
f 37 39 38
f 58 57 59
f 59 57 67
f 59 67 68
f 59 68 69
f 59 69 60
f 60 69 70
f 60 70 61
f 61 70 71
f 61 71 62
f 62 71 72
f 62 72 73
f 62 73 74
f 62 74 75
f 62 75 63
f 63 75 64
f 64 75 76
f 64 76 65
f 65 76 77
f 65 77 41
f 65 41 40
f 65 40 39
f 67 55 69
f 67 69 68
f 46 45 78
f 46 78 79
f 46 79 51
f 46 51 50
f 46 50 47
f 47 50 48
f 48 50 49
f 80 81 82
f 80 82 83
f 80 83 51
f 80 51 79
f 80 79 78
f 80 78 81
f 81 78 44
f 81 44 82
f 82 44 43
f 82 43 84
f 82 84 83
f 83 84 85
f 83 85 86
f 83 86 87
f 83 87 88
f 83 88 89
f 83 89 51
f 51 89 90
f 51 90 52
f 52 90 91
f 52 91 53
f 53 91 92
f 53 92 93
f 53 93 54
f 54 93 94
f 54 94 55
f 54 55 30
f 78 45 44
f 69 95 92
f 69 92 96
f 69 96 97
f 69 97 98
f 69 98 99
f 69 99 100
f 69 100 70
f 70 100 101
f 70 101 102
f 70 102 103
f 70 103 104
f 70 104 71
f 71 104 105
f 71 105 106
f 71 106 72
f 72 106 107
f 72 107 108
f 72 108 73
f 69 94 95
f 95 94 92
f 92 94 93
f 90 109 110
f 90 110 111
f 90 111 96
f 90 96 91
f 91 96 92
f 87 112 113
f 87 113 88
f 88 113 109
f 88 109 89
f 89 109 90
f 111 110 113
f 111 113 114
f 111 114 97
f 111 97 96
f 94 69 55
f 113 110 109
f 41 115 42
f 42 115 116
f 42 116 43
f 43 116 117
f 43 117 118
f 43 118 119
f 43 119 84
f 84 119 120
f 84 120 85
f 85 120 121
f 85 121 122
f 85 122 86
f 86 122 123
f 86 123 124
f 86 124 87
f 87 124 125
f 87 125 112
f 112 125 99
f 112 99 114
f 112 114 113
f 41 77 115
f 115 77 126
f 115 126 116
f 116 126 117
f 117 126 74
f 117 74 73
f 117 73 127
f 117 127 118
f 118 127 128
f 118 128 129
f 118 129 119
f 119 129 130
f 119 130 120
f 120 130 131
f 120 131 132
f 120 132 133
f 120 133 134
f 120 134 135
f 120 135 121
f 121 135 136
f 121 136 122
f 122 136 137
f 122 137 123
f 123 137 124
f 124 137 125
f 125 137 136
f 126 77 76
f 126 76 75
f 126 75 74
f 57 55 67
f 97 114 98
f 98 114 99
f 105 138 139
f 105 139 106
f 106 139 107
f 107 139 140
f 107 140 141
f 107 141 142
f 107 142 108
f 103 138 105
f 103 105 104
f 130 143 131
f 143 130 129
f 143 129 144
f 143 144 73
f 73 144 127
f 127 144 128
f 128 144 129
f 103 145 138
f 138 145 140
f 138 140 139
f 146 132 131
f 132 146 147
f 147 146 134
f 134 146 135
f 148 149 150
f 148 150 103
f 148 103 102
f 148 102 101
f 148 101 151
f 148 151 149
f 149 151 152
f 149 152 153
f 149 153 150
f 150 153 145
f 150 145 103
f 101 154 151
f 151 154 152
f 152 154 155
f 152 155 156
f 152 156 157
f 152 157 153
f 154 101 100
f 154 100 99
f 154 99 125
f 154 125 155
f 158 159 140
f 158 140 145
f 158 145 153
f 158 153 159
