# RS2 Model 14495
# Vertices: 328
# Faces: 404

v -31 8 127
v -25 8 126
v -25 24 126
v -31 24 127
v -33 24 110
v -33 8 113
v -27 8 114
v -27 24 111
v -27 40 113
v -25 43 127
v -31 43 128
v -33 40 112
v -31 56 127
v -33 56 113
v -25 56 126
v -27 56 114
v -33 8 111
v -27 8 110
v -27 24 108
v -33 24 109
v -35 22 98
v -35 8 97
v -29 8 98
v -29 23 99
v -29 44 97
v -27 38 108
v -33 40 111
v -35 44 96
v -33 56 111
v -35 56 97
v -27 56 110
v -29 56 98
v -44 8 48
v -38 8 47
v -38 24 45
v -44 24 46
v -47 22 31
v -47 8 33
v -41 8 34
v -41 23 33
v -40 41 37
v -38 38 46
v -44 40 49
v -47 40 35
v -44 56 47
v -47 56 33
v -38 56 46
v -41 56 34
v -47 8 31
v -41 8 30
v -41 22 27
v -47 24 30
v -50 24 16
v -50 8 17
v -44 8 18
v -44 24 17
v -44 43 18
v -41 41 32
v -47 41 33
v -50 43 17
v -47 56 31
v -50 56 17
v -41 56 30
v -44 56 18
v -35 8 95
v -29 8 94
v -29 24 95
v -35 24 96
v -37 24 80
v -37 8 83
v -31 8 84
v -31 24 81
v -31 40 84
v -29 42 94
v -35 42 95
v -37 40 83
v -35 56 94
v -37 56 81
v -29 56 93
v -31 56 82
v -37 8 81
v -31 8 80
v -32 18 76
v -37 20 79
v -40 20 63
v -40 8 65
v -33 8 66
v -34 20 64
v -33 42 70
v -31 41 80
v -37 41 81
v -40 41 68
v -37 56 79
v -40 56 65
v -31 56 78
v -33 56 66
v -40 8 63
v -34 8 62
v -34 22 61
v -40 22 62
v -44 24 48
v -44 8 50
v -38 8 51
v -38 24 49
v -38 40 52
v -34 41 64
v -40 43 67
v -44 39 50
v -40 56 63
v -44 56 49
v -34 56 63
v -38 56 50
v -54 8 14
v -42 8 14
v -42 56 14
v -54 56 14
v -62 56 0
v -62 8 0
v -64 56 0
v -64 8 0
v -50 8 0
v -50 56 0
v -36 56 161
v -20 56 161
v -20 64 161
v -36 64 161
v -37 64 128
v -37 56 128
v -21 56 128
v -21 64 128
v -24 64 96
v -40 64 96
v -40 56 96
v -24 56 96
v -32 56 48
v -32 64 48
v -48 64 48
v -48 56 48
v -56 56 16
v -40 56 16
v -40 64 16
v -56 64 16
v -64 64 0
v -48 56 0
v -48 64 0
v -34 8 158
v -22 8 158
v -22 56 158
v -34 56 158
v -35 56 131
v -35 8 131
v -23 8 131
v -23 56 131
v -42 -58 127
v -37 -58 126
v -30 -41 126
v -36 -40 127
v -38 -40 110
v -44 -57 113
v -39 -58 114
v -32 -41 111
v -29 -25 113
v -26 -23 127
v -32 -22 128
v -35 -24 112
v -31 -8 127
v -33 -8 113
v -25 -8 126
v -27 -8 114
v -44 -57 111
v -39 -58 110
v -32 -41 108
v -38 -40 109
v -41 -41 98
v -46 -57 97
v -41 -58 98
v -35 -41 99
v -30 -21 97
v -29 -27 108
v -35 -24 111
v -36 -20 96
v -33 -8 111
v -35 -8 97
v -27 -8 110
v -29 -8 98
v -48 -57 48
v -42 -58 47
v -38 -40 45
v -44 -40 46
v -47 -42 31
v -51 -57 33
v -45 -57 34
v -41 -41 33
v -40 -23 37
v -38 -26 46
v -44 -24 49
v -47 -24 35
v -44 -8 47
v -47 -8 33
v -38 -8 46
v -41 -8 34
v -51 -57 31
v -45 -57 30
v -41 -42 27
v -47 -40 30
v -50 -40 16
v -58 -56 17
v -52 -57 18
v -44 -40 17
v -44 -21 18
v -41 -23 32
v -47 -23 33
v -50 -21 17
v -47 -8 31
v -50 -8 17
v -41 -8 30
v -44 -8 18
v -44 -57 95
v -39 -58 94
v -33 -42 95
v -38 -41 96
v -40 -41 80
v -46 -57 83
v -41 -58 84
v -35 -42 81
v -32 -26 84
v -30 -24 94
v -36 -24 95
v -38 -25 83
v -35 -8 94
v -37 -8 81
v -29 -8 93
v -31 -8 82
v -46 -57 81
v -41 -58 80
v -36 -48 76
v -41 -45 79
v -44 -45 63
v -49 -57 65
v -42 -58 66
v -38 -46 64
v -34 -24 70
v -32 -25 80
v -38 -24 81
v -41 -24 68
v -37 -8 79
v -40 -8 65
v -31 -8 78
v -33 -8 66
v -49 -57 63
v -43 -58 62
v -38 -44 61
v -44 -43 62
v -47 -40 48
v -53 -56 50
v -47 -57 51
v -41 -41 49
v -39 -25 52
v -35 -25 64
v -41 -22 67
v -45 -25 50
v -40 -8 63
v -44 -8 49
v -34 -8 63
v -38 -8 50
v -60 -56 14
v -48 -57 14
v -42 -8 14
v -54 -8 14
v -62 -8 0
v -62 -56 0
v -64 -8 0
v -64 -56 0
v -50 -56 0
v -50 -8 0
v -49 -64 160
v -34 -64 160
v -32 -59 160
v -47 -57 160
v -48 -57 128
v -50 -64 128
v -35 -64 128
v -33 -59 128
v -34 -59 96
v -49 -57 96
v -51 -64 96
v -36 -64 96
v -39 -64 48
v -37 -58 48
v -52 -56 48
v -54 -64 48
v -64 -64 16
v -48 -64 16
v -46 -56 16
v -62 -56 16
v -64 -64 0
v -36 -8 161
v -20 -8 161
v -20 8 161
v -36 8 161
v -37 8 128
v -37 -8 128
v -21 -8 128
v -21 8 128
v -24 8 96
v -40 8 96
v -40 -8 96
v -24 -8 96
v -32 -8 48
v -32 8 48
v -48 8 48
v -48 -8 48
v -56 -8 16
v -40 -8 16
v -40 8 16
v -56 8 16
v -48 -8 0
v -48 8 0
v -48 -64 0
v -48 -56 0
v -45 -57 157
v -34 -59 157
v -22 -8 158
v -34 -8 158
v -35 -8 131
v -46 -57 131
v -35 -59 131
v -23 -8 131

f 1 2 3
f 1 3 4
f 1 4 5
f 1 5 6
f 3 2 7
f 3 7 8
f 3 8 9
f 3 9 10
f 3 10 4
f 4 10 11
f 4 11 5
f 5 11 12
f 12 11 13
f 12 13 14
f 15 13 11
f 15 11 10
f 15 10 16
f 16 10 9
f 17 18 19
f 17 19 20
f 17 20 21
f 17 21 22
f 19 18 23
f 19 23 24
f 19 24 25
f 19 25 26
f 19 26 20
f 20 26 27
f 20 27 21
f 21 27 28
f 28 27 29
f 28 29 30
f 31 29 27
f 31 27 26
f 31 26 32
f 32 26 25
f 33 34 35
f 33 35 36
f 33 36 37
f 33 37 38
f 35 34 39
f 35 39 40
f 35 40 41
f 35 41 42
f 35 42 36
f 36 42 43
f 36 43 37
f 37 43 44
f 44 43 45
f 44 45 46
f 47 45 43
f 47 43 42
f 47 42 48
f 48 42 41
f 49 50 51
f 49 51 52
f 49 52 53
f 49 53 54
f 51 50 55
f 51 55 56
f 51 56 57
f 51 57 58
f 51 58 52
f 52 58 59
f 52 59 53
f 53 59 60
f 60 59 61
f 60 61 62
f 63 61 59
f 63 59 58
f 63 58 64
f 64 58 57
f 65 66 67
f 65 67 68
f 65 68 69
f 65 69 70
f 67 66 71
f 67 71 72
f 67 72 73
f 67 73 74
f 67 74 68
f 68 74 75
f 68 75 69
f 69 75 76
f 76 75 77
f 76 77 78
f 79 77 75
f 79 75 74
f 79 74 80
f 80 74 73
f 81 82 83
f 81 83 84
f 81 84 85
f 81 85 86
f 83 82 87
f 83 87 88
f 83 88 89
f 83 89 90
f 83 90 84
f 84 90 91
f 84 91 85
f 85 91 92
f 92 91 93
f 92 93 94
f 95 93 91
f 95 91 90
f 95 90 96
f 96 90 89
f 97 98 99
f 97 99 100
f 97 100 101
f 97 101 102
f 99 98 103
f 99 103 104
f 99 104 105
f 99 105 106
f 99 106 100
f 100 106 107
f 100 107 101
f 101 107 108
f 108 107 109
f 108 109 110
f 111 109 107
f 111 107 106
f 111 106 112
f 112 106 105
f 113 114 115
f 113 115 116
f 113 116 117
f 113 117 118
f 118 117 119
f 118 119 120
f 115 114 121
f 115 121 122
f 123 124 125
f 123 125 126
f 123 126 127
f 123 127 128
f 123 128 124
f 124 128 129
f 124 129 125
f 125 129 130
f 125 130 126
f 126 130 127
f 127 130 131
f 127 131 132
f 127 132 128
f 128 132 133
f 128 133 129
f 129 133 134
f 129 134 130
f 130 134 131
f 131 134 135
f 131 135 136
f 131 136 132
f 132 136 137
f 132 137 133
f 133 137 138
f 133 138 134
f 134 138 135
f 135 138 139
f 135 139 140
f 135 140 136
f 136 140 141
f 136 141 137
f 137 141 142
f 137 142 138
f 138 142 139
f 139 142 143
f 139 143 119
f 139 119 140
f 140 119 144
f 140 144 141
f 141 144 145
f 141 145 142
f 142 145 143
f 146 147 148
f 146 148 149
f 146 149 150
f 146 150 151
f 148 147 152
f 148 152 153
f 154 155 156
f 154 156 157
f 154 157 158
f 154 158 159
f 156 155 160
f 156 160 161
f 156 161 162
f 156 162 163
f 156 163 157
f 157 163 164
f 157 164 158
f 158 164 165
f 165 164 166
f 165 166 167
f 168 166 164
f 168 164 163
f 168 163 169
f 169 163 162
f 170 171 172
f 170 172 173
f 170 173 174
f 170 174 175
f 172 171 176
f 172 176 177
f 172 177 178
f 172 178 179
f 172 179 173
f 173 179 180
f 173 180 174
f 174 180 181
f 181 180 182
f 181 182 183
f 184 182 180
f 184 180 179
f 184 179 185
f 185 179 178
f 186 187 188
f 186 188 189
f 186 189 190
f 186 190 191
f 188 187 192
f 188 192 193
f 188 193 194
f 188 194 195
f 188 195 189
f 189 195 196
f 189 196 190
f 190 196 197
f 197 196 198
f 197 198 199
f 200 198 196
f 200 196 195
f 200 195 201
f 201 195 194
f 202 203 204
f 202 204 205
f 202 205 206
f 202 206 207
f 204 203 208
f 204 208 209
f 204 209 210
f 204 210 211
f 204 211 205
f 205 211 212
f 205 212 206
f 206 212 213
f 213 212 214
f 213 214 215
f 216 214 212
f 216 212 211
f 216 211 217
f 217 211 210
f 218 219 220
f 218 220 221
f 218 221 222
f 218 222 223
f 220 219 224
f 220 224 225
f 220 225 226
f 220 226 227
f 220 227 221
f 221 227 228
f 221 228 222
f 222 228 229
f 229 228 230
f 229 230 231
f 232 230 228
f 232 228 227
f 232 227 233
f 233 227 226
f 234 235 236
f 234 236 237
f 234 237 238
f 234 238 239
f 236 235 240
f 236 240 241
f 236 241 242
f 236 242 243
f 236 243 237
f 237 243 244
f 237 244 238
f 238 244 245
f 245 244 246
f 245 246 247
f 248 246 244
f 248 244 243
f 248 243 249
f 249 243 242
f 250 251 252
f 250 252 253
f 250 253 254
f 250 254 255
f 252 251 256
f 252 256 257
f 252 257 258
f 252 258 259
f 252 259 253
f 253 259 260
f 253 260 254
f 254 260 261
f 261 260 262
f 261 262 263
f 264 262 260
f 264 260 259
f 264 259 265
f 265 259 258
f 266 267 268
f 266 268 269
f 266 269 270
f 266 270 271
f 271 270 272
f 271 272 273
f 268 267 274
f 268 274 275
f 276 277 278
f 276 278 279
f 276 279 280
f 276 280 281
f 276 281 277
f 277 281 282
f 277 282 278
f 278 282 283
f 278 283 279
f 279 283 280
f 280 283 284
f 280 284 285
f 280 285 281
f 281 285 286
f 281 286 282
f 282 286 287
f 282 287 283
f 283 287 284
f 284 287 288
f 284 288 289
f 284 289 285
f 285 289 290
f 285 290 286
f 286 290 291
f 286 291 287
f 287 291 288
f 288 291 292
f 288 292 293
f 288 293 289
f 289 293 294
f 289 294 290
f 290 294 295
f 290 295 291
f 291 295 292
f 292 295 273
f 292 273 296
f 297 298 299
f 297 299 300
f 297 300 301
f 297 301 302
f 297 302 298
f 298 302 303
f 298 303 299
f 299 303 304
f 299 304 300
f 300 304 301
f 301 304 305
f 301 305 306
f 301 306 302
f 302 306 307
f 302 307 303
f 303 307 308
f 303 308 304
f 304 308 305
f 305 308 309
f 305 309 310
f 305 310 306
f 306 310 311
f 306 311 307
f 307 311 312
f 307 312 308
f 308 312 309
f 309 312 313
f 309 313 314
f 309 314 310
f 310 314 315
f 310 315 311
f 311 315 316
f 311 316 312
f 312 316 313
f 313 316 120
f 313 120 272
f 313 272 314
f 314 272 317
f 314 317 315
f 315 317 318
f 315 318 316
f 316 318 120
f 294 293 319
f 294 319 320
f 294 320 295
f 295 320 273
f 321 322 323
f 321 323 324
f 321 324 325
f 321 325 326
f 323 322 327
f 323 327 328
