# RS2 Model 1451
# Vertices: 117
# Faces: 192

v -5 -40 0
v 5 -40 0
v 5 -4 84
v -5 -4 84
v -5 -26 0
v -5 -2 77
v 5 -26 0
v 5 -2 77
v 0 -4 112
v 43 28 0
v 43 16 0
v 0 -12 112
v 13 -4 112
v 13 -12 112
v 57 28 0
v 57 16 0
v 10 -4 84
v -10 -4 84
v -13 -2 77
v 13 -2 77
v 10 4 84
v -10 4 84
v -57 16 0
v -43 16 0
v -13 -12 112
v -13 -4 112
v -57 28 0
v -43 28 0
v -32 6 63
v -19 6 63
v 19 6 63
v 32 6 63
v 24 22 36
v 24 41 44
v 45 37 57
v 45 17 50
v 0 2 93
v 0 24 32
v 0 43 39
v 0 37 55
v 18 36 58
v 34 33 68
v 59 29 77
v 59 10 69
v 64 2 93
v 59 -6 116
v 45 -13 136
v 24 -18 149
v 0 -20 154
v -24 -18 149
v -45 -13 136
v -59 -6 116
v -64 2 93
v -59 10 69
v -45 17 50
v -24 22 36
v -24 41 44
v -18 36 58
v -12 32 71
v 0 32 68
v 12 32 71
v 23 29 78
v 44 27 83
v 64 21 100
v -45 37 57
v -59 29 77
v -44 27 83
v -34 33 68
v -23 29 78
v -12 25 88
v -6 27 84
v 0 27 83
v 6 27 84
v 12 25 88
v 31 25 88
v 48 21 100
v 59 12 123
v -64 21 100
v -48 21 100
v -33 21 100
v -31 25 88
v -16 23 93
v 0 21 100
v 16 23 93
v 33 21 100
v 44 15 117
v 45 5 143
v -59 12 123
v -44 15 117
v -31 17 112
v -16 19 106
v -18 21 100
v -12 17 112
v -6 15 116
v 0 15 117
v 6 15 116
v 12 17 112
v 16 19 106
v 18 21 100
v 31 17 112
v 34 9 132
v 24 0 156
v -45 5 143
v -34 9 132
v -23 13 122
v -24 0 156
v -18 6 142
v -12 10 129
v 0 0 161
v 0 4 145
v 0 9 132
v 18 6 142
v 12 10 129
v 23 13 122
v 74 20 157
v -52 11 181
v 46 63 27

f 1 2 3
f 1 3 4
f 1 4 5
f 5 4 6
f 5 6 7
f 7 6 8
f 7 8 3
f 7 3 2
f 9 10 11
f 9 11 12
f 9 12 13
f 13 12 14
f 13 14 15
f 15 14 16
f 16 14 11
f 11 14 12
f 17 18 19
f 17 19 20
f 17 21 22
f 17 22 18
f 23 24 12
f 23 12 25
f 23 25 26
f 23 26 27
f 28 27 29
f 28 29 30
f 28 9 12
f 28 12 24
f 9 26 25
f 9 25 12
f 31 32 15
f 31 15 10
f 33 34 35
f 33 35 36
f 33 36 37
f 33 37 38
f 33 38 39
f 33 39 34
f 34 39 40
f 34 40 41
f 34 41 35
f 35 41 42
f 35 42 43
f 35 43 44
f 35 44 36
f 36 44 37
f 37 44 45
f 37 45 46
f 37 46 47
f 37 47 48
f 37 48 49
f 37 49 50
f 37 50 51
f 37 51 52
f 37 52 53
f 37 53 54
f 37 54 55
f 37 55 56
f 37 56 38
f 38 56 57
f 38 57 39
f 39 57 58
f 39 58 40
f 40 58 59
f 40 59 60
f 40 60 41
f 41 60 61
f 41 61 42
f 42 61 62
f 42 62 63
f 42 63 43
f 43 63 64
f 43 64 45
f 43 45 44
f 65 57 56
f 65 56 55
f 65 55 66
f 65 66 67
f 65 67 68
f 65 68 57
f 57 68 58
f 58 68 69
f 58 69 59
f 59 69 70
f 59 70 71
f 59 71 60
f 60 71 72
f 60 72 61
f 61 72 73
f 61 73 62
f 62 73 74
f 62 74 75
f 62 75 63
f 63 75 76
f 63 76 64
f 64 76 77
f 64 77 46
f 64 46 45
f 55 54 66
f 66 54 78
f 66 78 79
f 66 79 67
f 67 79 80
f 67 80 81
f 67 81 68
f 68 81 69
f 69 81 82
f 69 82 70
f 70 82 83
f 70 83 71
f 71 83 72
f 72 83 73
f 73 83 74
f 74 83 84
f 74 84 75
f 75 84 85
f 75 85 76
f 76 85 86
f 76 86 77
f 77 86 87
f 77 87 47
f 77 47 46
f 54 53 78
f 78 53 88
f 78 88 89
f 78 89 79
f 79 89 90
f 79 90 80
f 80 90 91
f 80 91 92
f 80 92 81
f 81 92 82
f 82 92 83
f 83 92 91
f 83 91 93
f 83 93 94
f 83 94 95
f 83 95 96
f 83 96 97
f 83 97 98
f 83 98 99
f 83 99 84
f 84 99 85
f 85 99 100
f 85 100 86
f 86 100 101
f 86 101 87
f 87 101 102
f 87 102 48
f 87 48 47
f 53 52 88
f 88 52 103
f 88 103 104
f 88 104 89
f 89 104 105
f 89 105 90
f 90 105 93
f 90 93 91
f 52 51 103
f 103 51 106
f 103 106 107
f 103 107 104
f 104 107 108
f 104 108 105
f 105 108 94
f 105 94 93
f 51 50 106
f 106 50 109
f 106 109 110
f 106 110 107
f 107 110 111
f 107 111 108
f 108 111 95
f 108 95 94
f 50 49 109
f 109 49 102
f 109 102 112
f 109 112 110
f 110 112 113
f 110 113 111
f 111 113 96
f 111 96 95
f 49 48 102
f 101 112 102
f 112 101 114
f 112 114 113
f 113 114 97
f 113 97 96
f 100 114 101
f 114 100 98
f 114 98 97
f 99 98 100
