# RS2 Model 14529
# Vertices: 204
# Faces: 317

v 64 -8 0
v 64 -8 16
v 64 8 16
v 64 8 0
v 40 -8 0
v 40 -8 16
v 16 -16 16
v 16 -16 0
v -16 0 24
v -16 0 8
v -40 -8 24
v -40 -8 8
v -64 -8 16
v -64 -8 0
v 40 8 16
v 16 0 16
v -16 16 24
v -40 8 24
v -64 8 16
v 48 -8 16
v 44 -12 16
v 44 -20 16
v 52 -32 16
v 60 -20 16
v 60 -12 16
v 56 -8 16
v -48 8 16
v -44 12 16
v -44 20 16
v -52 32 16
v -60 20 16
v -60 12 16
v -56 8 16
v -28 -12 16
v -24 -20 16
v -12 -28 16
v -8 -16 16
v -12 -4 16
v -16 0 16
v -28 -4 16
v -64 8 0
v -40 8 8
v -16 16 8
v 16 0 0
v 40 8 0
v -46 -10 0
v -47 -10 0
v -49 -12 14
v -44 -12 16
v -46 -13 0
v -43 -17 16
v -43 -8 0
v -49 -17 14
v -50 -16 30
v -50 -12 31
v -44 -12 31
v -44 -16 31
v -40 -15 29
v -42 -12 29
v -38 -8 31
v -36 -16 31
v -46 -21 29
v -44 -26 32
v -53 -19 29
v -56 -23 32
v -55 -12 29
v -59 -12 32
v -49 -10 29
v -51 -5 31
v -49 -12 40
v -42 -12 40
v -42 -15 40
v -46 -19 40
v -51 -18 40
v -53 -12 40
v -48 -14 42
v 10 -23 0
v 6 -22 0
v 4 -25 16
v 6 -25 15
v 7 -28 0
v 4 -29 15
v 2 -25 0
v 1 -27 16
v 4 -29 26
v 5 -26 26
v 8 -28 26
v 6 -30 26
v 10 -32 25
v 10 -27 26
v 17 -27 26
v 13 -36 26
v 2 -34 26
v 1 -39 27
v -1 -30 26
v -6 -32 27
v 2 -23 26
v -3 -22 28
v 7 -23 26
v 8 -18 27
v 8 -25 31
v 12 -29 30
v 10 -33 30
v 6 -34 32
v 2 -30 32
v 4 -25 32
v 6 -30 34
v 4 15 14
v 6 17 12
v 15 24 18
v 13 23 23
v 1 17 14
v -3 13 0
v -1 9 0
v 0 13 0
v 4 19 12
v 13 25 19
v 11 28 15
v 15 24 14
v 17 19 19
v 14 19 25
v 10 21 26
v 12 24 23
v -1 16 0
v 8 28 21
v 4 33 23
v 11 34 12
v 19 27 10
v 24 17 20
v 17 18 28
v 8 23 30
v 17 31 27
v 15 34 26
v 18 34 21
v 22 31 20
v 22 29 24
v 19 28 27
v 22 33 26
v -28 27 23
v -28 30 19
v -32 41 26
v -33 39 29
v -30 24 21
v -28 18 0
v -23 19 0
v -24 24 0
v -29 29 17
v -35 39 25
v -36 38 20
v -29 42 22
v -29 41 27
v -30 37 32
v -37 32 33
v -37 36 27
v -28 24 0
v -39 34 26
v -46 33 25
v -41 42 14
v -29 49 18
v -25 46 29
v -29 38 40
v -40 31 37
v -42 44 33
v -45 46 27
v -42 48 25
v -37 51 26
v -34 49 30
v -37 46 36
v -41 50 29
v 26 15 40
v 29 13 36
v 35 -1 44
v 34 1 50
v 34 17 40
v 30 28 23
v 24 25 24
v 27 20 23
v 34 14 35
v 39 1 44
v 42 1 40
v 35 -1 39
v 29 1 44
v 29 3 51
v 36 5 54
v 38 1 50
v 32 21 23
v 34 12 0
v 33 18 0
v 26 15 0
v 29 12 0
v 43 4 47
v 51 2 51
v 49 -2 38
v 36 -8 36
v 25 -5 44
v 25 1 57
v 38 5 60
v 40 -5 58
v 44 -7 55
v 44 -10 49
v 38 -12 46
v 34 -11 51
v 35 -7 57
v 40 -12 54

f 1 2 3
f 1 3 4
f 1 4 2
f 1 2 5
f 5 2 6
f 5 6 7
f 5 7 8
f 8 7 9
f 8 9 10
f 10 9 11
f 10 11 12
f 12 11 13
f 12 13 14
f 4 3 2
f 2 3 15
f 2 15 6
f 6 15 16
f 6 16 7
f 7 16 17
f 7 17 9
f 9 17 11
f 11 17 18
f 11 18 19
f 11 19 13
f 20 21 22
f 20 22 23
f 20 23 24
f 20 24 25
f 20 25 26
f 27 28 29
f 27 29 30
f 27 30 31
f 27 31 32
f 27 32 33
f 34 35 36
f 34 36 37
f 34 37 38
f 34 38 39
f 34 39 40
f 41 19 18
f 41 18 42
f 42 18 17
f 42 17 43
f 43 17 16
f 43 16 44
f 44 16 15
f 44 15 45
f 45 15 4
f 4 15 3
f 46 47 48
f 46 48 49
f 46 49 50
f 50 49 51
f 50 51 52
f 52 51 53
f 52 53 47
f 47 53 48
f 48 53 54
f 48 54 55
f 48 55 49
f 49 55 56
f 49 56 51
f 51 56 57
f 51 57 53
f 53 57 54
f 58 59 60
f 58 60 61
f 58 61 62
f 62 61 63
f 62 63 64
f 64 63 65
f 64 65 66
f 66 65 67
f 66 67 68
f 68 67 69
f 68 69 59
f 59 69 60
f 60 69 70
f 60 70 71
f 60 71 61
f 61 71 72
f 61 72 63
f 63 72 73
f 63 73 65
f 65 73 74
f 65 74 67
f 67 74 75
f 67 75 69
f 69 75 70
f 70 75 76
f 70 76 71
f 71 76 72
f 72 76 73
f 73 76 74
f 74 76 75
f 77 78 79
f 77 79 80
f 77 80 81
f 81 80 82
f 81 82 83
f 83 82 84
f 83 84 78
f 78 84 79
f 79 84 85
f 79 85 86
f 79 86 80
f 80 86 87
f 80 87 82
f 82 87 88
f 82 88 84
f 84 88 85
f 89 90 91
f 89 91 92
f 89 92 93
f 93 92 94
f 93 94 95
f 95 94 96
f 95 96 97
f 97 96 98
f 97 98 99
f 99 98 100
f 99 100 90
f 90 100 91
f 91 100 101
f 91 101 102
f 91 102 92
f 92 102 103
f 92 103 94
f 94 103 104
f 94 104 96
f 96 104 105
f 96 105 98
f 98 105 106
f 98 106 100
f 100 106 101
f 101 106 107
f 101 107 102
f 102 107 103
f 103 107 104
f 104 107 105
f 105 107 106
f 108 109 110
f 108 110 111
f 108 111 112
f 108 112 113
f 108 113 114
f 108 114 109
f 109 114 115
f 109 115 116
f 109 116 117
f 109 117 110
f 110 117 118
f 110 118 119
f 110 119 120
f 110 120 111
f 111 120 121
f 111 121 122
f 111 122 123
f 111 123 112
f 112 123 116
f 112 116 124
f 112 124 113
f 116 123 117
f 117 123 125
f 117 125 118
f 118 125 126
f 118 126 127
f 118 127 119
f 119 127 128
f 119 128 120
f 120 128 129
f 120 129 121
f 121 129 130
f 121 130 122
f 122 130 131
f 122 131 125
f 122 125 123
f 125 131 126
f 126 131 132
f 126 132 133
f 126 133 127
f 127 133 134
f 127 134 128
f 128 134 135
f 128 135 129
f 129 135 136
f 129 136 130
f 130 136 137
f 130 137 131
f 131 137 132
f 132 137 138
f 132 138 133
f 133 138 134
f 134 138 135
f 135 138 136
f 136 138 137
f 116 115 124
f 139 140 141
f 139 141 142
f 139 142 143
f 139 143 144
f 139 144 145
f 139 145 140
f 140 145 146
f 140 146 147
f 140 147 148
f 140 148 141
f 141 148 149
f 141 149 150
f 141 150 151
f 141 151 142
f 142 151 152
f 142 152 153
f 142 153 154
f 142 154 143
f 143 154 147
f 143 147 155
f 143 155 144
f 147 154 148
f 148 154 156
f 148 156 149
f 149 156 157
f 149 157 158
f 149 158 150
f 150 158 159
f 150 159 151
f 151 159 160
f 151 160 152
f 152 160 161
f 152 161 153
f 153 161 162
f 153 162 156
f 153 156 154
f 156 162 157
f 157 162 163
f 157 163 164
f 157 164 158
f 158 164 165
f 158 165 159
f 159 165 166
f 159 166 160
f 160 166 167
f 160 167 161
f 161 167 168
f 161 168 162
f 162 168 163
f 163 168 169
f 163 169 164
f 164 169 165
f 165 169 166
f 166 169 167
f 167 169 168
f 147 146 155
f 170 171 172
f 170 172 173
f 170 173 174
f 170 174 175
f 170 175 176
f 170 176 171
f 171 176 177
f 171 177 178
f 171 178 179
f 171 179 172
f 172 179 180
f 172 180 181
f 172 181 182
f 172 182 173
f 173 182 183
f 173 183 184
f 173 184 185
f 173 185 174
f 174 185 178
f 174 178 186
f 174 186 175
f 175 186 187
f 175 187 188
f 175 188 176
f 176 188 189
f 176 189 177
f 177 189 190
f 177 190 186
f 177 186 178
f 178 185 179
f 179 185 191
f 179 191 180
f 180 191 192
f 180 192 193
f 180 193 181
f 181 193 194
f 181 194 182
f 182 194 195
f 182 195 183
f 183 195 196
f 183 196 184
f 184 196 197
f 184 197 191
f 184 191 185
f 191 197 192
f 192 197 198
f 192 198 199
f 192 199 193
f 193 199 200
f 193 200 194
f 194 200 201
f 194 201 195
f 195 201 202
f 195 202 196
f 196 202 203
f 196 203 197
f 197 203 198
f 198 203 204
f 198 204 199
f 199 204 200
f 200 204 201
f 201 204 202
f 202 204 203
f 186 190 187
