# RS2 Model 14557
# Vertices: 52
# Faces: 96

v 13 -38 118
v 24 -52 125
v 24 -56 125
v 13 -44 118
v -15 -59 123
v -15 -55 123
v 13 -38 124
v 24 -52 129
v 43 -56 131
v 24 -56 129
v 13 -44 124
v -15 -59 127
v -40 -56 131
v -15 -55 127
v 13 -39 119
v 24 -53 126
v 24 -55 126
v 13 -43 119
v -15 -58 124
v -15 -56 124
v 13 -39 123
v 24 -53 128
v 24 -55 128
v 13 -43 123
v -15 -58 126
v -15 -56 126
v 1 -41 144
v -17 -47 137
v -17 -51 137
v 1 -47 144
v 20 -58 129
v 20 -54 129
v 1 -41 138
v -17 -47 133
v -41 -53 131
v -17 -51 133
v 1 -47 138
v 20 -58 125
v 42 -53 131
v 20 -54 125
v 1 -42 143
v -17 -48 136
v -17 -50 136
v 1 -46 143
v 20 -57 128
v 20 -55 128
v 1 -42 139
v -17 -48 134
v -17 -50 134
v 1 -46 139
v 20 -57 126
v 20 -55 126

f 1 2 3
f 1 3 4
f 1 4 5
f 1 5 6
f 1 6 7
f 1 7 2
f 2 7 8
f 2 8 9
f 2 9 3
f 3 9 10
f 3 10 4
f 4 10 11
f 4 11 12
f 4 12 5
f 5 12 13
f 5 13 6
f 6 13 14
f 6 14 7
f 7 14 11
f 7 11 8
f 8 11 10
f 8 10 9
f 14 12 11
f 12 14 13
f 15 16 17
f 15 17 18
f 15 18 19
f 15 19 20
f 15 20 21
f 15 21 16
f 16 21 22
f 16 22 9
f 16 9 17
f 17 9 23
f 17 23 18
f 18 23 24
f 18 24 25
f 18 25 19
f 19 25 13
f 19 13 20
f 20 13 26
f 20 26 21
f 21 26 24
f 21 24 22
f 22 24 23
f 22 23 9
f 26 25 24
f 25 26 13
f 27 28 29
f 27 29 30
f 27 30 31
f 27 31 32
f 27 32 33
f 27 33 28
f 28 33 34
f 28 34 35
f 28 35 29
f 29 35 36
f 29 36 30
f 30 36 37
f 30 37 38
f 30 38 31
f 31 38 39
f 31 39 32
f 32 39 40
f 32 40 33
f 33 40 37
f 33 37 34
f 34 37 36
f 34 36 35
f 40 38 37
f 38 40 39
f 41 42 43
f 41 43 44
f 41 44 45
f 41 45 46
f 41 46 47
f 41 47 42
f 42 47 48
f 42 48 35
f 42 35 43
f 43 35 49
f 43 49 44
f 44 49 50
f 44 50 51
f 44 51 45
f 45 51 39
f 45 39 46
f 46 39 52
f 46 52 47
f 47 52 50
f 47 50 48
f 48 50 49
f 48 49 35
f 52 51 50
f 51 52 39
