# RS2 Model 14568
# Vertices: 134
# Faces: 232

v -9 10 120
v -10 12 127
v -2 12 127
v 0 11 120
v -6 10 116
v -10 10 116
v -16 2 120
v -15 3 127
v -10 12 135
v -2 14 140
v 0 13 140
v 2 12 127
v 9 10 120
v 6 10 116
v 0 11 116
v 0 10 113
v -9 8 113
v -18 1 115
v -11 -10 120
v -11 -10 127
v -15 3 134
v 0 9 165
v -15 2 161
v -8 1 165
v -7 -8 158
v 0 -6 160
v -5 -11 151
v 4 -11 151
v 6 -8 158
v 8 1 165
v 14 2 161
v 14 10 156
v 2 13 159
v 0 12 159
v -2 13 159
v -15 10 156
v -16 16 162
v -16 11 177
v -16 1 184
v -15 -11 183
v -14 -21 177
v -13 -9 154
v -13 -15 144
v -5 -12 149
v 3 -13 146
v 3 -12 148
v 13 -15 144
v 13 -9 154
v 14 -21 177
v 14 -11 183
v 15 1 184
v 15 11 177
v 15 16 162
v 19 10 155
v 11 15 147
v 3 16 146
v 0 15 146
v -2 16 146
v -11 15 147
v -19 10 155
v -20 16 161
v -20 12 176
v -20 2 183
v -19 -11 182
v -18 -21 176
v -17 -9 153
v -18 2 142
v -18 3 134
v -12 -15 133
v -9 -15 144
v -5 -13 147
v 0 -14 144
v 5 -14 144
v 7 -14 144
v 2 -14 140
v 12 -15 133
v 18 3 134
v 18 2 142
v 17 -9 153
v 18 -21 176
v 19 -11 182
v 20 2 183
v 20 12 176
v 20 16 161
v 19 2 160
v -16 0 112
v -10 -11 112
v -12 -12 115
v 0 -15 115
v 0 -14 111
v 12 -11 112
v 13 -12 115
v 11 -10 120
v 0 -13 120
v 0 -12 127
v 11 -10 127
v 0 -10 138
v -9 -10 134
v -16 14 142
v -14 14 135
v -13 14 132
v -17 3 132
v -12 -13 130
v 0 -14 138
v -5 -14 140
v -5 -14 142
v -7 -15 144
v -2 -14 144
v 0 -14 142
v 2 -14 142
v 0 -13 134
v 12 -13 130
v -2 16 140
v -2 15 137
v 0 15 140
v 10 12 127
v 16 2 120
v 10 10 116
v 9 8 113
v 16 0 112
v 18 1 115
v 15 3 127
v 15 3 134
v 9 -10 134
v 10 12 135
v 16 14 142
v 14 14 135
v 2 16 140
v 17 3 132
v 2 15 137
v 13 14 132
v 0 14 137
v 2 14 140
v -19 2 160

f 1 2 3
f 1 3 4
f 1 4 5
f 1 5 6
f 1 6 7
f 1 7 2
f 2 7 8
f 2 8 9
f 2 9 10
f 2 10 3
f 3 10 11
f 3 11 12
f 3 12 4
f 4 12 13
f 4 13 14
f 4 14 15
f 4 15 5
f 5 15 16
f 5 16 17
f 5 17 6
f 6 17 18
f 6 18 7
f 7 18 19
f 7 19 8
f 8 19 20
f 8 20 21
f 8 21 9
f 22 23 24
f 24 23 25
f 24 25 26
f 26 25 27
f 26 27 28
f 26 28 29
f 26 29 30
f 30 29 31
f 30 31 22
f 22 31 32
f 22 32 33
f 22 33 34
f 22 34 35
f 22 35 36
f 22 36 23
f 23 36 37
f 23 37 38
f 23 38 39
f 23 39 40
f 23 40 41
f 23 41 42
f 23 42 25
f 25 42 27
f 27 42 43
f 27 43 44
f 27 44 45
f 27 45 46
f 27 46 28
f 28 46 47
f 28 47 48
f 28 48 29
f 29 48 31
f 31 48 49
f 31 49 50
f 31 50 51
f 31 51 52
f 31 52 53
f 31 53 32
f 32 53 54
f 32 54 55
f 32 55 56
f 32 56 33
f 33 56 57
f 33 57 34
f 34 57 35
f 35 57 58
f 35 58 36
f 36 58 59
f 36 59 60
f 36 60 61
f 36 61 37
f 37 61 62
f 37 62 38
f 38 62 63
f 38 63 39
f 39 63 64
f 39 64 40
f 40 64 65
f 40 65 41
f 41 65 66
f 41 66 42
f 42 66 43
f 43 66 67
f 43 67 68
f 43 68 69
f 43 69 70
f 43 70 44
f 44 70 71
f 44 71 72
f 44 72 45
f 45 72 73
f 45 73 46
f 46 73 74
f 46 74 47
f 47 74 75
f 47 75 76
f 47 76 77
f 47 77 78
f 47 78 79
f 47 79 48
f 48 79 80
f 48 80 49
f 49 80 50
f 50 80 81
f 50 81 51
f 51 81 82
f 51 82 52
f 52 82 83
f 52 83 53
f 53 83 84
f 53 84 54
f 54 84 85
f 85 84 83
f 85 83 82
f 85 82 81
f 85 81 80
f 85 80 79
f 86 87 88
f 86 88 18
f 86 18 17
f 89 88 87
f 89 87 90
f 89 90 91
f 89 91 92
f 89 92 93
f 89 93 94
f 89 94 88
f 88 94 19
f 88 19 18
f 95 20 19
f 95 19 94
f 95 94 93
f 95 93 96
f 95 96 97
f 95 97 20
f 20 97 98
f 20 98 21
f 67 60 99
f 67 99 68
f 68 99 100
f 68 100 101
f 68 101 102
f 68 102 103
f 68 103 69
f 69 103 104
f 69 104 105
f 69 105 70
f 70 105 106
f 70 106 107
f 70 107 71
f 71 107 108
f 71 108 72
f 72 108 109
f 72 109 75
f 72 75 110
f 72 110 73
f 73 110 75
f 73 75 74
f 104 103 111
f 104 111 112
f 104 112 76
f 104 76 75
f 104 75 109
f 104 109 105
f 105 109 106
f 106 109 108
f 106 108 107
f 100 113 114
f 100 114 101
f 58 57 115
f 58 115 113
f 58 113 59
f 59 113 100
f 59 100 99
f 59 99 60
f 13 12 116
f 13 116 117
f 13 117 118
f 13 118 14
f 14 118 119
f 14 119 15
f 15 119 16
f 120 121 92
f 120 92 91
f 93 117 122
f 93 122 96
f 96 122 123
f 96 123 124
f 96 124 97
f 119 118 121
f 119 121 120
f 117 116 122
f 122 116 125
f 122 125 123
f 78 126 54
f 54 126 55
f 55 126 127
f 55 127 128
f 55 128 56
f 56 128 115
f 56 115 57
f 129 77 112
f 112 77 76
f 130 128 127
f 130 127 131
f 131 127 129
f 129 127 77
f 77 127 126
f 77 126 78
f 121 117 93
f 121 93 92
f 118 117 121
f 132 114 113
f 132 113 115
f 132 115 130
f 130 115 128
f 116 12 133
f 116 133 125
f 133 12 11
f 61 60 134
f 61 134 62
f 62 134 63
f 63 134 64
f 64 134 65
f 65 134 66
