# RS2 Model 14577
# Vertices: 87
# Faces: 158

v 0 12 111
v -10 10 111
v 0 14 122
v 10 10 111
v 9 8 113
v 0 10 113
v -9 8 113
v -18 1 111
v -11 11 122
v -6 14 136
v 0 14 137
v 5 14 136
v 11 11 122
v 18 1 111
v 16 0 112
v 17 -8 111
v 12 -11 112
v 9 -15 111
v 9 -13 111
v 0 -14 111
v 0 -16 111
v -7 -13 111
v -10 -11 112
v -7 -16 111
v -14 -8 111
v -16 0 112
v 0 9 165
v -13 10 159
v -19 2 160
v -8 1 165
v -10 -11 159
v -8 -9 158
v -6 -8 159
v 0 -6 160
v 0 -11 155
v 6 -8 159
v 8 1 165
v 8 -9 158
v 10 -11 159
v 19 2 160
v 11 11 159
v 3 13 161
v 0 14 146
v -4 13 161
v -9 16 149
v -19 10 155
v -7 -12 123
v 0 -15 123
v -5 -13 134
v -7 -13 134
v -8 -15 134
v -8 -14 122
v -15 -8 122
v -18 3 122
v -13 14 135
v 8 16 149
v 13 14 135
v 19 3 122
v 16 -8 122
v 8 -13 122
v 8 -10 123
v 5 -13 134
v 0 -15 135
v 0 -13 144
v -8 -15 143
v -9 -16 142
v -15 -7 134
v -16 14 142
v -18 2 142
v -18 3 134
v -16 -7 142
v -17 -9 153
v -10 -14 153
v 19 10 155
v 16 14 142
v 18 1 134
v 16 -6 134
v 9 -15 134
v 8 -13 134
v 8 -15 143
v 18 2 142
v 16 -7 142
v 9 -16 142
v 8 -11 153
v -8 -11 153
v 17 -9 153
v 10 -14 153

f 1 2 3
f 1 3 4
f 1 4 5
f 1 5 6
f 1 6 7
f 1 7 2
f 2 7 8
f 2 8 9
f 2 9 3
f 3 9 10
f 3 10 11
f 3 11 12
f 3 12 13
f 3 13 4
f 4 13 14
f 4 14 5
f 5 14 15
f 15 14 16
f 15 16 17
f 17 16 18
f 17 18 19
f 17 19 20
f 20 19 21
f 20 21 22
f 20 22 23
f 23 22 24
f 23 24 25
f 23 25 26
f 26 25 8
f 26 8 7
f 27 28 29
f 27 29 30
f 30 29 31
f 30 31 32
f 30 32 33
f 30 33 34
f 34 33 35
f 34 35 36
f 34 36 37
f 37 36 38
f 37 38 39
f 37 39 40
f 37 40 27
f 27 40 41
f 27 41 42
f 27 42 43
f 27 43 44
f 27 44 28
f 28 44 43
f 28 43 45
f 28 45 46
f 28 46 29
f 47 22 21
f 47 21 48
f 47 48 49
f 47 49 50
f 47 50 51
f 47 51 52
f 47 52 24
f 47 24 22
f 24 52 53
f 24 53 25
f 25 53 54
f 25 54 8
f 8 54 9
f 9 54 55
f 9 55 10
f 10 55 45
f 10 45 43
f 10 43 11
f 11 43 12
f 12 43 56
f 12 56 57
f 12 57 13
f 13 57 58
f 13 58 14
f 14 58 16
f 16 58 59
f 16 59 18
f 18 59 60
f 18 60 61
f 18 61 19
f 19 61 21
f 21 61 48
f 48 61 62
f 48 62 63
f 48 63 49
f 49 63 64
f 49 64 65
f 49 65 50
f 50 65 51
f 51 65 66
f 51 66 67
f 51 67 53
f 51 53 52
f 45 68 46
f 46 68 69
f 69 68 70
f 69 70 67
f 69 67 71
f 69 71 72
f 72 71 66
f 72 66 73
f 72 73 31
f 72 31 29
f 40 74 41
f 41 74 56
f 41 56 43
f 41 43 42
f 74 75 56
f 56 75 57
f 57 75 76
f 57 76 58
f 58 76 59
f 59 76 77
f 59 77 78
f 59 78 60
f 60 78 79
f 60 79 61
f 61 79 62
f 62 79 80
f 62 80 64
f 62 64 63
f 81 75 74
f 75 81 76
f 76 81 77
f 77 81 82
f 77 82 83
f 77 83 78
f 78 83 79
f 79 83 80
f 80 83 84
f 80 84 64
f 64 84 35
f 64 35 85
f 64 85 65
f 65 85 66
f 66 85 73
f 73 85 31
f 31 85 32
f 32 85 35
f 32 35 33
f 54 70 55
f 55 70 68
f 55 68 45
f 86 82 81
f 82 86 83
f 83 86 87
f 83 87 84
f 84 87 39
f 84 39 38
f 84 38 35
f 35 38 36
f 39 86 40
f 86 39 87
f 67 70 53
f 53 70 54
f 66 71 67
