# RS2 Model 14583
# Vertices: 95
# Faces: 160

v 0 -48 -49
v 15 -43 -49
v 11 -30 -49
v 0 -34 -49
v -15 -43 -49
v -15 -43 -56
v 0 -48 -56
v 15 -43 -56
v 35 -34 -40
v 25 -25 -40
v 58 -20 -13
v 42 -18 -13
v 35 -18 -56
v 25 -25 -56
v 62 -7 13
v 49 -5 13
v 52 -20 -51
v 62 -7 -49
v 62 6 34
v 49 6 34
v 38 6 -56
v 38 -5 -56
v 49 46 50
v 38 37 50
v 65 9 -40
v 49 46 -34
v 0 60 60
v 0 46 60
v 0 46 -56
v 35 32 -56
v 99 -11 -53
v 102 30 -49
v 65 56 -40
v 0 60 -36
v -49 46 50
v -38 37 50
v -35 32 -56
v 35 -34 -53
v 49 -43 -63
v 88 -34 -56
v 118 -41 -86
v 141 -11 -79
v 146 37 -70
v 85 66 -93
v 0 70 -53
v -49 46 -34
v -62 6 34
v -49 6 34
v -38 6 -56
v 0 -57 -67
v 15 -55 -67
v 18 -57 -91
v 58 -55 -86
v 65 -48 -104
v 118 -34 -100
v 134 -11 -93
v 141 37 -86
v 78 60 -110
v 0 79 -110
v -65 56 -40
v -65 9 -40
v -62 -7 13
v -49 -5 13
v -38 -5 -56
v 0 -64 -93
v 0 -48 -114
v 25 -43 -110
v 0 73 -127
v -85 66 -93
v -102 30 -49
v -62 -7 -49
v -58 -20 -13
v -42 -18 -13
v -35 -18 -56
v -11 -30 -49
v -25 -25 -40
v -35 -34 -40
v -35 -34 -53
v -49 -43 -63
v -15 -55 -67
v -18 -57 -91
v -25 -43 -110
v -52 -20 -51
v -88 -34 -56
v -118 -41 -86
v -58 -55 -86
v -65 -48 -104
v -99 -11 -53
v -141 -11 -79
v -134 -11 -93
v -118 -34 -100
v -134 37 -70
v -132 37 -86
v -78 60 -110
v -25 -25 -56

f 1 2 3
f 1 3 4
f 1 4 5
f 1 5 6
f 1 6 7
f 1 7 2
f 2 7 8
f 2 8 9
f 2 9 3
f 3 9 10
f 10 9 11
f 10 11 12
f 10 12 13
f 10 13 14
f 15 16 12
f 15 12 11
f 15 11 17
f 15 17 18
f 15 18 19
f 15 19 16
f 16 19 20
f 16 20 21
f 16 21 22
f 16 22 12
f 12 22 13
f 23 24 20
f 23 20 19
f 23 19 25
f 23 25 26
f 23 26 27
f 23 27 24
f 24 27 28
f 24 28 29
f 24 29 30
f 24 30 20
f 20 30 21
f 19 18 25
f 25 18 31
f 25 31 32
f 25 32 26
f 26 32 33
f 26 33 34
f 26 34 27
f 27 34 35
f 27 35 28
f 28 35 36
f 28 36 37
f 28 37 29
f 9 8 38
f 9 38 11
f 11 38 17
f 17 38 39
f 17 39 40
f 17 40 18
f 18 40 31
f 31 40 41
f 31 41 42
f 31 42 32
f 32 42 43
f 32 43 33
f 33 43 44
f 33 44 45
f 33 45 34
f 34 45 46
f 34 46 35
f 35 46 47
f 35 47 36
f 36 47 48
f 36 48 49
f 36 49 37
f 8 7 50
f 8 50 51
f 8 51 38
f 38 51 39
f 39 51 52
f 39 52 53
f 39 53 40
f 40 53 41
f 41 53 54
f 41 54 55
f 41 55 42
f 42 55 56
f 42 56 43
f 43 56 57
f 43 57 44
f 44 57 58
f 44 58 59
f 44 59 45
f 45 59 60
f 45 60 46
f 46 60 61
f 46 61 47
f 47 61 62
f 47 62 48
f 48 62 63
f 48 63 64
f 48 64 49
f 51 50 65
f 51 65 52
f 52 65 66
f 52 66 67
f 52 67 53
f 53 67 54
f 59 58 68
f 59 68 69
f 59 69 60
f 60 69 70
f 60 70 61
f 61 70 71
f 61 71 62
f 62 71 72
f 62 72 63
f 63 72 73
f 63 73 74
f 63 74 64
f 4 75 5
f 5 75 76
f 5 76 77
f 5 77 78
f 5 78 6
f 6 78 79
f 6 79 80
f 6 80 7
f 7 80 50
f 50 80 81
f 50 81 65
f 65 81 82
f 65 82 66
f 77 76 73
f 77 73 72
f 77 72 83
f 77 83 78
f 78 83 84
f 78 84 79
f 79 84 85
f 79 85 86
f 79 86 80
f 80 86 81
f 81 86 87
f 81 87 82
f 71 83 72
f 83 71 88
f 83 88 84
f 84 88 89
f 84 89 85
f 85 89 90
f 85 90 91
f 85 91 86
f 86 91 87
f 70 88 71
f 88 70 92
f 88 92 89
f 89 92 93
f 89 93 90
f 69 92 70
f 92 69 94
f 92 94 93
f 68 94 69
f 95 74 73
f 95 73 76
