# RS2 Model 14582
# Vertices: 157
# Faces: 302

v -34 -63 115
v -36 -70 119
v -28 -70 119
v -30 -63 115
v -29 -6 88
v -34 -6 88
v -34 -65 111
v -36 -72 115
v -34 -74 116
v -34 -72 119
v -30 -72 119
v -28 -72 115
v -30 -65 111
v -29 -7 84
v -32 -76 121
v -25 -76 122
v -22 -72 120
v -30 -74 116
v -34 -7 84
v -13 -87 126
v -12 -94 130
v -8 -92 129
v -9 -85 125
v -17 -80 123
v -13 -89 123
v -12 -95 127
v -13 -103 129
v -13 -101 133
v -8 -96 130
v -6 -90 128
v -8 -94 126
v -9 -87 122
v -14 -79 119
v -14 -77 122
v -25 -77 118
v -17 -82 119
v -8 -97 127
v -10 -105 130
v -18 -110 132
v -18 -108 136
v -10 -104 133
v -6 -99 127
v -6 -98 131
v -2 -91 129
v -6 -92 125
v -32 -77 118
v -22 -74 117
v 3 -94 129
v -2 -96 131
v -2 -98 126
v 3 -95 126
v -1 -93 125
v -25 -111 137
v -32 -112 138
v -30 -116 140
v -22 -115 138
v -25 -113 133
v -32 -114 135
v -40 -114 133
v -40 -112 137
v -34 -116 140
v -28 -118 141
v -30 -118 136
v -22 -116 135
v -15 -111 137
v -15 -112 134
v -67 -95 129
v -63 -97 131
v -63 -92 129
v -63 -94 125
v -67 -96 126
v -63 -98 126
v -58 -99 127
v -58 -98 131
v -58 -90 128
v -58 -92 125
v -56 -92 129
v -56 -96 130
v -52 -94 130
v -51 -87 126
v -54 -85 125
v -54 -87 122
v -56 -94 126
v -40 -76 122
v -42 -72 120
v -47 -80 123
v -40 -77 118
v -56 -97 127
v -52 -95 127
v -51 -103 129
v -54 -105 130
v -51 -89 123
v -47 -82 119
v -51 -101 133
v -46 -108 136
v -46 -110 132
v -49 -112 134
v -54 -104 133
v -42 -74 117
v -50 -79 119
v -50 -77 122
v -32 -127 145
v -29 -122 144
v -35 -122 144
v -35 -125 138
v -32 -129 141
v -29 -125 138
v -28 -120 137
v -36 -118 141
v -36 -120 137
v -34 -118 136
v -42 -115 138
v -42 -117 135
v -49 -111 137
v -34 94 42
v -34 94 40
v -36 10 84
v -32 96 41
v -32 96 39
v -32 94 38
v -34 92 39
v -36 6 77
v -34 3 80
v -34 5 84
v -28 10 84
v -30 94 42
v -30 94 40
v -30 92 39
v -28 6 77
v -30 3 80
v -30 5 84
v -32 -100 120
v -32 -88 119
v -24 -91 120
v -21 -98 124
v -24 -104 127
v -32 -107 128
v -40 -104 127
v -42 -98 124
v -40 -91 120
v -43 -86 126
v -32 -82 124
v -22 -85 125
v -18 -95 130
v -22 -103 134
v -32 -106 136
v -42 -103 134
v -46 -95 130
v -43 -93 135
v -41 -85 131
v -32 -82 129
v -24 -84 131
v -20 -93 135
v -24 -99 138
v -32 -102 140
v -40 -99 138
v -32 -90 139

f 1 2 3
f 1 3 4
f 1 4 5
f 1 5 6
f 1 6 7
f 1 7 8
f 1 8 2
f 2 8 9
f 2 9 10
f 2 10 11
f 2 11 3
f 3 11 12
f 3 12 13
f 3 13 4
f 4 13 14
f 4 14 5
f 11 15 16
f 11 16 17
f 11 17 18
f 11 18 12
f 12 18 9
f 12 9 8
f 12 8 13
f 13 8 7
f 13 7 19
f 13 19 14
f 20 21 22
f 20 22 23
f 20 23 24
f 20 24 25
f 20 25 26
f 20 26 21
f 21 26 27
f 21 27 28
f 21 28 29
f 21 29 22
f 22 29 30
f 22 30 31
f 22 31 32
f 22 32 23
f 23 32 33
f 23 33 34
f 23 34 24
f 24 34 17
f 24 17 16
f 24 16 35
f 24 35 36
f 24 36 25
f 25 36 32
f 25 32 31
f 25 31 26
f 26 31 37
f 26 37 27
f 27 37 38
f 27 38 39
f 27 39 40
f 27 40 28
f 28 40 41
f 28 41 29
f 29 41 38
f 29 38 37
f 29 37 42
f 29 42 43
f 29 43 30
f 30 43 44
f 30 44 45
f 30 45 31
f 31 45 42
f 31 42 37
f 35 46 18
f 35 18 47
f 35 47 36
f 36 47 33
f 36 33 32
f 17 47 18
f 47 17 34
f 47 34 33
f 48 44 49
f 48 49 50
f 48 50 51
f 48 51 52
f 48 52 44
f 44 52 45
f 45 52 50
f 45 50 42
f 42 50 49
f 42 49 43
f 43 49 44
f 53 54 55
f 53 55 56
f 53 56 40
f 53 40 57
f 53 57 58
f 53 58 54
f 54 58 59
f 54 59 60
f 54 60 61
f 54 61 55
f 55 61 62
f 55 62 63
f 55 63 64
f 55 64 56
f 56 64 65
f 56 65 40
f 40 65 41
f 41 65 66
f 41 66 38
f 38 66 39
f 39 66 64
f 39 64 57
f 39 57 40
f 51 50 52
f 63 58 57
f 63 57 64
f 64 66 65
f 67 68 69
f 67 69 70
f 67 70 71
f 67 71 72
f 67 72 68
f 68 72 73
f 68 73 74
f 68 74 75
f 68 75 69
f 69 75 76
f 69 76 70
f 70 76 73
f 70 73 72
f 70 72 71
f 77 75 74
f 77 74 78
f 77 78 79
f 77 79 80
f 77 80 81
f 77 81 82
f 77 82 83
f 77 83 76
f 77 76 75
f 84 15 10
f 84 10 85
f 84 85 86
f 84 86 87
f 84 87 46
f 84 46 15
f 15 46 16
f 16 46 35
f 88 73 76
f 88 76 83
f 88 83 89
f 88 89 90
f 88 90 91
f 88 91 78
f 88 78 74
f 88 74 73
f 92 89 83
f 92 83 82
f 92 82 93
f 92 93 86
f 92 86 80
f 92 80 89
f 89 80 79
f 89 79 94
f 89 94 90
f 90 94 95
f 90 95 96
f 90 96 91
f 91 96 97
f 91 97 98
f 91 98 78
f 78 98 94
f 78 94 79
f 9 46 87
f 9 87 99
f 9 99 85
f 9 85 10
f 99 100 101
f 99 101 85
f 85 101 86
f 86 101 81
f 86 81 80
f 87 86 93
f 87 93 99
f 99 93 100
f 100 93 82
f 100 82 81
f 100 81 101
f 102 103 104
f 102 104 105
f 102 105 106
f 102 106 107
f 102 107 103
f 103 107 108
f 103 108 62
f 103 62 109
f 103 109 104
f 104 109 110
f 104 110 105
f 105 110 108
f 105 108 107
f 105 107 106
f 61 109 62
f 109 61 110
f 110 61 111
f 110 111 63
f 110 63 108
f 108 63 62
f 61 60 112
f 61 112 113
f 61 113 111
f 111 113 59
f 111 59 58
f 111 58 63
f 98 97 114
f 98 114 95
f 98 95 94
f 59 96 95
f 59 95 60
f 60 95 112
f 112 95 114
f 112 114 113
f 113 114 97
f 113 97 96
f 113 96 59
f 46 9 18
f 11 10 15
f 6 19 7
f 115 116 117
f 115 117 118
f 115 118 119
f 115 119 116
f 116 119 120
f 116 120 121
f 116 121 117
f 117 121 122
f 117 122 123
f 117 123 124
f 117 124 125
f 117 125 126
f 117 126 118
f 118 126 127
f 118 127 119
f 119 127 128
f 119 128 120
f 120 128 129
f 120 129 121
f 121 129 122
f 122 129 130
f 122 130 123
f 127 126 125
f 127 125 128
f 128 125 129
f 129 125 131
f 129 131 130
f 125 124 131
f 132 133 134
f 132 134 135
f 132 135 136
f 132 136 137
f 132 137 138
f 132 138 139
f 132 139 140
f 132 140 133
f 133 140 141
f 133 141 142
f 133 142 134
f 134 142 143
f 134 143 135
f 135 143 144
f 135 144 136
f 136 144 145
f 136 145 137
f 137 145 146
f 137 146 138
f 138 146 147
f 138 147 139
f 139 147 148
f 139 148 140
f 140 148 141
f 141 148 149
f 141 149 150
f 141 150 142
f 142 150 151
f 142 151 143
f 143 151 152
f 143 152 144
f 144 152 153
f 144 153 145
f 145 153 154
f 145 154 146
f 146 154 155
f 146 155 147
f 147 155 156
f 147 156 148
f 148 156 149
f 149 156 157
f 149 157 150
f 150 157 151
f 151 157 152
f 152 157 153
f 153 157 154
f 154 157 155
f 155 157 156
