# RS2 Model 14608
# Vertices: 154
# Faces: 238

v 12 35 13
v 18 51 13
v 22 47 0
v 18 34 0
v 23 29 0
v 15 30 13
v 16 35 31
v 20 49 31
v 30 62 13
v 31 55 0
v 50 16 13
v 35 12 13
v 35 19 0
v 46 22 0
v 61 32 13
v 57 32 31
v 48 19 31
v 35 16 31
v 30 20 31
v 29 17 13
v 30 22 0
v 51 49 0
v 57 50 13
v 62 46 13
v 55 46 0
v 57 33 0
v 47 61 13
v 45 56 0
v 32 58 31
v 46 58 31
v 50 54 31
v 51 57 13
v 48 51 0
v 20 30 31
v 25 42 42
v 37 50 38
v 42 45 38
v 29 37 42
v 58 45 31
v 53 49 31
v 48 38 38
v 40 27 42
v 37 30 42
v 47 41 38
v 0 -15 0
v -5 0 0
v -3 0 10
v 4 -15 7
v -13 -20 0
v -14 -26 7
v -21 -14 0
v -28 -15 10
v -20 1 0
v -21 4 12
v -33 17 24
v -44 38 19
v -46 36 11
v -35 15 11
v -9 10 28
v -13 23 35
v -25 26 31
v -34 40 27
v -7 51 27
v -1 53 11
v -7 52 0
v -40 37 0
v -29 19 0
v -10 8 11
v -2 22 24
v -8 31 35
v -11 35 42
v -19 31 42
v -24 37 42
v -12 49 33
v 4 38 20
v 8 44 11
v 4 41 0
v 9 22 11
v 4 23 0
v -12 15 0
v -5 39 35
v -13 44 42
v -19 36 45
v 49 -28 11
v 62 -8 11
v 50 -9 25
v 49 -18 25
v 49 -25 0
v 59 -8 0
v 45 10 11
v 42 -2 25
v 45 7 0
v 30 8 11
v 7 -5 11
v 17 -9 25
v 27 -5 25
v 30 4 0
v 13 -7 0
v 11 -29 11
v 21 -18 25
v 17 -25 0
v 19 -43 11
v 37 -44 11
v 40 -35 25
v 23 -31 25
v 21 -38 0
v 38 -41 0
v 43 -25 0
v 27 -22 0
v -14 -54 10
v -28 -61 10
v -28 -58 0
v -17 -52 0
v -9 -33 10
v -27 -36 31
v -20 -50 25
v -28 -55 25
v -40 -55 10
v -38 -52 0
v -12 -36 0
v -28 -24 10
v -27 -36 10
v -37 -39 10
v -37 -39 30
v -25 -47 31
v -37 -51 25
v -49 -42 10
v -45 -42 0
v -28 -27 0
v -40 -30 10
v -39 -33 0
v -34 -48 30
v -43 -28 3
v -52 -30 9
v -49 -36 3
v -49 -35 0
v -46 -27 0
v -49 -20 3
v -59 -24 3
v -62 -35 3
v -58 -32 0
v -49 -21 0
v -56 -24 0
v 25 14 2
v 20 18 7
v 17 13 2
v 18 14 0
v 24 16 0
v 26 22 2
v 19 25 2
v 11 20 2
v 15 19 0
v 25 20 0
v 20 23 0

f 1 2 3
f 1 3 4
f 1 4 5
f 1 5 6
f 1 6 7
f 1 7 2
f 2 7 8
f 2 8 9
f 2 9 10
f 2 10 3
f 11 12 13
f 11 13 14
f 11 14 15
f 11 15 16
f 11 16 17
f 11 17 12
f 12 17 18
f 12 18 19
f 12 19 20
f 12 20 13
f 13 20 21
f 21 20 22
f 22 20 23
f 22 23 24
f 22 24 25
f 25 24 26
f 26 24 15
f 26 15 14
f 9 27 28
f 9 28 10
f 8 29 9
f 9 29 27
f 27 29 30
f 27 30 31
f 27 31 32
f 27 32 28
f 28 32 33
f 33 32 5
f 5 32 6
f 6 32 31
f 6 31 34
f 6 34 7
f 7 34 35
f 7 35 8
f 8 35 29
f 29 35 36
f 29 36 30
f 30 36 37
f 30 37 31
f 31 37 34
f 34 37 38
f 34 38 35
f 35 38 36
f 36 38 37
f 39 16 15
f 39 15 24
f 39 24 23
f 39 23 40
f 39 40 41
f 39 41 16
f 16 41 17
f 17 41 42
f 17 42 18
f 18 42 43
f 18 43 19
f 19 43 44
f 19 44 40
f 19 40 23
f 19 23 20
f 42 41 44
f 42 44 43
f 41 40 44
f 45 46 47
f 45 47 48
f 45 48 49
f 49 48 50
f 49 50 51
f 51 50 52
f 51 52 53
f 53 52 54
f 53 54 46
f 46 54 47
f 47 54 52
f 47 52 48
f 48 52 50
f 55 56 57
f 55 57 58
f 55 58 59
f 55 59 60
f 55 60 61
f 55 61 56
f 56 61 62
f 56 62 63
f 56 63 64
f 56 64 57
f 57 64 65
f 57 65 66
f 57 66 58
f 58 66 67
f 58 67 68
f 58 68 59
f 59 68 69
f 59 69 70
f 59 70 60
f 60 70 71
f 60 71 72
f 60 72 61
f 61 72 62
f 62 72 73
f 62 73 74
f 62 74 63
f 63 74 75
f 63 75 76
f 63 76 64
f 64 76 77
f 64 77 65
f 75 69 78
f 75 78 76
f 76 78 79
f 76 79 77
f 69 68 78
f 78 68 80
f 78 80 79
f 74 81 75
f 75 81 69
f 69 81 70
f 70 81 82
f 70 82 71
f 71 82 83
f 71 83 72
f 72 83 73
f 73 83 82
f 73 82 74
f 74 82 81
f 68 67 80
f 84 85 86
f 84 86 87
f 84 87 88
f 84 88 85
f 85 88 89
f 85 89 90
f 85 90 91
f 85 91 86
f 86 91 87
f 87 91 88
f 88 91 92
f 92 91 90
f 92 90 89
f 93 94 95
f 93 95 96
f 93 96 97
f 93 97 94
f 94 97 98
f 94 98 99
f 94 99 100
f 94 100 95
f 95 100 96
f 96 100 101
f 96 101 97
f 98 101 99
f 99 101 100
f 102 103 104
f 102 104 105
f 102 105 106
f 102 106 103
f 103 106 107
f 103 107 104
f 104 107 108
f 104 108 109
f 104 109 105
f 105 109 106
f 110 111 112
f 110 112 113
f 110 113 114
f 110 114 115
f 110 115 116
f 110 116 111
f 111 116 117
f 111 117 118
f 111 118 119
f 111 119 112
f 114 113 120
f 114 120 121
f 114 121 122
f 114 122 115
f 115 122 123
f 115 123 124
f 115 124 125
f 115 125 116
f 116 125 117
f 117 125 126
f 117 126 118
f 118 126 127
f 118 127 128
f 118 128 119
f 121 120 129
f 121 129 130
f 121 130 123
f 121 123 122
f 130 129 131
f 130 131 127
f 130 127 123
f 123 127 124
f 124 127 126
f 124 126 132
f 124 132 125
f 125 132 126
f 127 131 128
f 133 134 135
f 133 135 136
f 133 136 137
f 133 137 138
f 133 138 134
f 134 138 139
f 134 139 140
f 134 140 135
f 135 140 141
f 135 141 136
f 137 142 138
f 138 142 139
f 139 142 143
f 139 143 140
f 140 143 141
f 144 145 146
f 144 146 147
f 144 147 148
f 144 148 149
f 144 149 145
f 145 149 150
f 145 150 151
f 145 151 146
f 146 151 152
f 146 152 147
f 148 153 149
f 149 153 150
f 150 153 154
f 150 154 151
f 151 154 152
