# RS2 Model 14641
# Vertices: 188
# Faces: 288

v -55 51 36
v -51 51 36
v -45 49 0
v -53 49 0
v -57 41 36
v -54 45 70
v -53 54 70
v -45 54 70
v -49 41 36
v -47 39 0
v -51 39 0
v -44 45 70
v -45 60 91
v -44 51 88
v -52 51 88
v -51 60 91
v -44 62 62
v -38 62 62
v -36 59 54
v -44 60 56
v -40 19 74
v -31 19 74
v -33 15 64
v -39 15 64
v -40 -16 76
v -39 -13 84
v -32 -13 84
v -31 -16 76
v -37 -56 85
v -37 -57 78
v -45 -58 76
v -43 -56 85
v -53 -58 0
v -45 -58 0
v -39 -61 43
v -47 -61 43
v -51 -48 0
v -47 -52 43
v -47 -48 0
v -39 -52 43
v -47 -45 70
v -46 -51 70
v -51 -50 70
v -52 -44 70
v -51 -45 107
v -47 -47 105
v -45 -57 105
v -53 -57 105
v -30 7 117
v -31 3 72
v -24 7 72
v -31 11 72
v -30 -14 116
v -32 -35 79
v -25 -32 78
v -31 -27 77
v -62 23 83
v -62 30 81
v -60 25 77
v -60 20 81
v -53 18 86
v -60 28 91
v -53 35 81
v -59 33 78
v -56 32 78
v -55 32 74
v -56 25 75
v -61 24 75
v -56 23 76
v -55 18 78
v -56 20 81
v -51 17 83
v -44 15 85
v -50 21 91
v -47 24 94
v -46 29 93
v -47 34 91
v -50 35 87
v -44 37 79
v -51 34 78
v -55 31 71
v -60 24 68
v -60 25 71
v -60 21 72
v -60 21 70
v -55 17 75
v -51 19 75
v -44 17 76
v -40 24 74
v -40 18 87
v -46 21 91
v -35 27 85
v -40 36 81
v -46 35 87
v -44 31 72
v -51 30 73
v -53 26 68
v -53 18 69
v -62 -12 94
v -62 -5 93
v -60 -10 88
v -60 -16 92
v -53 -18 96
v -60 -7 102
v -53 0 93
v -59 -2 89
v -56 -3 89
v -55 -3 85
v -56 -9 86
v -61 -10 86
v -56 -11 86
v -55 -17 88
v -56 -16 92
v -51 -17 93
v -44 -20 96
v -50 -14 102
v -47 -12 105
v -46 -7 104
v -47 -2 103
v -50 0 99
v -44 2 91
v -51 0 90
v -55 -3 82
v -60 -10 80
v -60 -9 82
v -60 -13 83
v -60 -14 80
v -55 -18 85
v -51 -16 86
v -44 -18 86
v -40 -11 85
v -40 -18 98
v -46 -14 102
v -35 -8 97
v -40 1 94
v -46 0 99
v -44 -4 83
v -51 -5 84
v -53 -8 79
v -53 -16 81
v -26 -28 30
v -30 1 70
v -23 -3 70
v -30 -7 70
v -32 22 41
v -33 40 71
v -26 37 72
v -32 32 73
v -52 34 29
v -57 26 0
v -53 33 0
v -61 33 0
v -49 -5 14
v -59 -5 0
v -52 -1 0
v -58 4 0
v -27 -29 77
v -20 -27 0
v -27 -23 0
v -31 -26 77
v -28 -13 121
v -24 -16 121
v -31 -32 77
v -27 -31 0
v -28 -19 121
v -27 -28 144
v -27 -22 144
v -23 -25 144
v -26 -28 172
v -31 -25 144
v -22 -32 144
v -23 -16 144
v -29 29 73
v -25 16 0
v -18 20 0
v -25 32 73
v -22 37 137
v -26 34 137
v -29 35 73
v -25 24 0
v -26 40 137
v -25 30 170
v -21 27 168
v -25 24 167
v -20 35 171
v -29 28 168
v -24 19 195
v -21 20 164

f 1 2 3
f 1 3 4
f 1 4 5
f 1 5 6
f 1 6 7
f 1 7 2
f 2 7 8
f 2 8 9
f 2 9 10
f 2 10 3
f 9 5 11
f 9 11 10
f 5 4 11
f 12 6 5
f 12 5 9
f 12 9 8
f 12 8 13
f 12 13 14
f 12 14 6
f 6 14 15
f 6 15 7
f 7 15 16
f 7 16 8
f 8 16 13
f 13 16 15
f 13 15 14
f 17 18 19
f 17 19 20
f 17 20 21
f 17 21 18
f 18 21 22
f 18 22 23
f 18 23 19
f 21 20 24
f 21 24 25
f 21 25 26
f 21 26 22
f 22 26 27
f 22 27 23
f 23 27 28
f 28 27 29
f 28 29 30
f 30 29 31
f 31 29 32
f 31 32 26
f 31 26 25
f 32 29 27
f 32 27 26
f 33 34 35
f 33 35 36
f 33 36 37
f 37 36 38
f 37 38 39
f 39 38 40
f 39 40 34
f 34 40 35
f 35 40 41
f 35 41 42
f 35 42 36
f 36 42 43
f 36 43 38
f 38 43 44
f 38 44 40
f 40 44 41
f 41 44 45
f 41 45 46
f 41 46 42
f 42 46 47
f 42 47 43
f 43 47 48
f 43 48 44
f 44 48 45
f 45 48 46
f 46 48 47
f 49 50 51
f 49 51 52
f 49 52 50
f 50 52 51
f 53 54 55
f 53 55 56
f 53 56 54
f 54 56 55
f 57 58 59
f 57 59 60
f 57 60 61
f 57 61 62
f 57 62 58
f 58 62 63
f 58 63 64
f 58 64 59
f 59 64 65
f 59 65 66
f 59 66 67
f 59 67 68
f 59 68 69
f 59 69 70
f 59 70 71
f 59 71 60
f 60 71 72
f 60 72 61
f 61 72 73
f 61 73 74
f 61 74 62
f 62 74 75
f 62 75 76
f 62 76 77
f 62 77 78
f 62 78 63
f 63 78 79
f 63 79 80
f 63 80 64
f 64 80 65
f 65 80 66
f 66 80 81
f 66 81 82
f 66 82 83
f 66 83 67
f 67 83 68
f 68 83 84
f 68 84 69
f 69 84 70
f 70 84 85
f 70 85 86
f 70 86 72
f 70 72 71
f 72 87 73
f 73 87 88
f 73 88 89
f 73 89 90
f 73 90 74
f 74 90 91
f 74 91 75
f 75 91 90
f 75 90 92
f 75 92 76
f 76 92 77
f 77 92 93
f 77 93 94
f 77 94 78
f 78 94 93
f 78 93 79
f 79 93 89
f 79 89 95
f 79 95 96
f 79 96 80
f 80 96 81
f 81 96 97
f 81 97 82
f 72 86 87
f 87 86 98
f 98 86 85
f 90 89 92
f 92 89 93
f 82 84 83
f 84 82 85
f 99 100 101
f 99 101 102
f 99 102 103
f 99 103 104
f 99 104 100
f 100 104 105
f 100 105 106
f 100 106 101
f 101 106 107
f 101 107 108
f 101 108 109
f 101 109 110
f 101 110 111
f 101 111 112
f 101 112 113
f 101 113 102
f 102 113 114
f 102 114 103
f 103 114 115
f 103 115 116
f 103 116 104
f 104 116 117
f 104 117 118
f 104 118 119
f 104 119 120
f 104 120 105
f 105 120 121
f 105 121 122
f 105 122 106
f 106 122 107
f 107 122 108
f 108 122 123
f 108 123 124
f 108 124 125
f 108 125 109
f 109 125 110
f 110 125 126
f 110 126 111
f 111 126 112
f 112 126 127
f 112 127 128
f 112 128 114
f 112 114 113
f 114 129 115
f 115 129 130
f 115 130 131
f 115 131 132
f 115 132 116
f 116 132 133
f 116 133 117
f 117 133 132
f 117 132 134
f 117 134 118
f 118 134 119
f 119 134 135
f 119 135 136
f 119 136 120
f 120 136 135
f 120 135 121
f 121 135 131
f 121 131 137
f 121 137 138
f 121 138 122
f 122 138 123
f 123 138 139
f 123 139 124
f 114 128 129
f 129 128 140
f 140 128 127
f 132 131 134
f 134 131 135
f 124 126 125
f 126 124 127
f 141 142 143
f 141 143 144
f 141 144 142
f 142 144 143
f 145 146 147
f 145 147 148
f 145 148 146
f 146 148 147
f 149 150 151
f 149 151 152
f 149 152 150
f 150 152 151
f 153 154 155
f 153 155 156
f 153 156 154
f 154 156 155
f 157 158 159
f 157 159 160
f 157 160 161
f 157 161 162
f 157 162 163
f 157 163 158
f 158 163 164
f 158 164 159
f 159 164 160
f 160 164 163
f 160 163 165
f 160 165 161
f 161 165 166
f 161 166 167
f 161 167 162
f 162 167 168
f 162 168 165
f 162 165 163
f 165 168 166
f 169 170 171
f 169 171 172
f 169 172 170
f 173 174 175
f 173 175 176
f 173 176 177
f 173 177 178
f 173 178 179
f 173 179 174
f 174 179 180
f 174 180 175
f 175 180 176
f 176 180 179
f 176 179 181
f 176 181 177
f 177 181 182
f 177 182 183
f 177 183 178
f 178 183 184
f 178 184 181
f 178 181 179
f 184 182 181
f 185 186 187
f 185 187 188
f 188 187 186
