# RS2 Model 14677
# Vertices: 103
# Faces: 163

v 64 64 240
v 64 -64 240
v 64 -64 0
v 64 64 0
v -4 34 138
v 2 64 102
v 0 13 113
v -9 23 138
v 0 15 160
v 2 64 183
v -6 64 145
v -8 8 208
v 0 -13 161
v 0 -15 183
v 2 -64 183
v -20 -64 209
v -39 -64 229
v -57 19 229
v -39 64 229
v -20 64 209
v -5 -33 138
v 0 -9 113
v 2 -64 102
v -6 -64 145
v -21 -30 180
v -6 -7 155
v -9 -19 138
v -6 -7 122
v 0 32 83
v 1 -6 89
v 2 -64 83
v -4 -24 63
v -2 -64 62
v -5 -64 48
v -7 -31 48
v -13 -64 24
v -25 -31 52
v -32 -31 48
v -13 -25 25
v -27 -64 0
v -41 -37 0
v -62 -8 0
v -20 -6 23
v -48 24 0
v -13 8 24
v -33 53 0
v -13 38 43
v -13 64 24
v -27 64 0
v 9 6 130
v 8 13 138
v -4 18 138
v -2 9 126
v 9 -3 130
v 20 0 134
v 20 4 134
v 20 9 138
v 9 6 147
v -2 9 151
v -6 11 155
v -19 7 129
v -19 15 138
v -19 7 149
v -2 -5 126
v 8 -10 138
v 20 -5 138
v -4 -15 138
v 9 -3 147
v 20 0 143
v 20 4 143
v -2 -5 151
v -6 11 122
v -19 -3 129
v -19 -11 138
v -19 -3 149
v -15 -32 186
v -11 46 100
v -13 46 96
v -6 50 84
v -3 40 62
v -2 17 62
v -2 -6 67
v -6 15 48
v -24 15 52
v -31 15 48
v -31 64 240
v -52 18 240
v -31 -64 240
v -2 64 62
v -5 64 48
v 2 64 83
v -43 -24 69
v 23 -4 159
v -36 86 38
v -60 -60 209
v 28 -59 268
v -58 68 203
v -90 -80 27
v 49 -86 50
v -87 67 37
v -7 96 -10
v -12 -92 -10
v 3 96 234

f 1 2 3
f 1 3 4
f 5 6 7
f 5 7 8
f 5 8 9
f 5 9 10
f 5 10 11
f 5 11 6
f 12 9 13
f 12 13 14
f 12 14 15
f 12 15 16
f 12 16 17
f 12 17 18
f 12 18 19
f 12 19 20
f 12 20 10
f 12 10 9
f 21 22 23
f 21 23 24
f 21 24 25
f 21 25 13
f 21 13 26
f 21 26 27
f 21 27 22
f 22 27 28
f 22 28 7
f 22 7 29
f 22 29 30
f 22 30 23
f 23 30 31
f 31 30 32
f 31 32 33
f 33 32 34
f 34 32 35
f 34 35 36
f 36 35 37
f 36 37 38
f 36 38 39
f 36 39 40
f 40 39 41
f 41 39 42
f 42 39 43
f 42 43 44
f 44 43 45
f 44 45 46
f 46 45 47
f 46 47 48
f 46 48 49
f 50 51 52
f 50 52 53
f 50 53 54
f 50 54 55
f 50 55 56
f 50 56 51
f 51 56 57
f 51 57 58
f 51 58 59
f 51 59 52
f 52 59 60
f 52 60 8
f 52 8 53
f 52 53 61
f 52 61 62
f 52 62 59
f 52 59 63
f 52 63 62
f 52 62 53
f 53 62 61
f 53 61 64
f 53 64 54
f 54 64 65
f 54 65 66
f 54 66 55
f 55 66 57
f 55 57 56
f 65 64 67
f 65 67 68
f 65 68 69
f 65 69 66
f 66 69 70
f 66 70 57
f 57 70 58
f 58 70 68
f 58 68 71
f 58 71 59
f 59 71 26
f 59 26 60
f 60 26 13
f 60 13 9
f 60 9 8
f 68 67 71
f 71 67 27
f 71 27 26
f 7 72 8
f 8 72 53
f 53 72 64
f 53 64 73
f 53 73 61
f 61 73 64
f 64 73 67
f 64 67 74
f 64 74 73
f 73 74 67
f 67 74 71
f 67 71 75
f 67 75 74
f 74 75 71
f 71 75 59
f 71 59 63
f 71 63 75
f 75 63 59
f 28 72 7
f 72 28 64
f 64 28 67
f 67 28 27
f 24 15 25
f 25 15 76
f 25 76 14
f 25 14 13
f 77 7 6
f 77 6 78
f 77 78 7
f 7 78 79
f 7 79 29
f 29 79 80
f 29 80 81
f 29 81 30
f 30 81 82
f 30 82 32
f 32 82 35
f 35 82 83
f 35 83 84
f 35 84 37
f 37 84 85
f 37 85 38
f 38 85 43
f 38 43 39
f 86 87 88
f 86 88 2
f 86 2 1
f 87 86 19
f 87 19 18
f 87 18 88
f 88 18 17
f 80 89 90
f 80 90 47
f 80 47 81
f 81 47 83
f 81 83 82
f 90 48 47
f 78 91 79
f 79 91 89
f 79 89 80
f 91 78 6
f 70 69 68
f 59 62 63
f 14 76 15
f 47 45 85
f 47 85 84
f 47 84 83
f 85 45 43
f 92 93 94
