# RS2 Model 14692
# Vertices: 268
# Faces: 449

v 58 58 46
v 57 60 41
v 64 67 39
v 66 68 45
v 52 63 47
v 42 54 37
v 48 49 38
v 50 53 35
v 54 64 40
v 60 69 40
v 57 69 37
v 60 65 36
v 65 63 42
v 67 65 48
v 64 71 50
v 63 71 45
v 47 57 35
v 50 59 23
v 45 56 20
v 50 51 21
v 52 56 23
v 58 73 45
v 58 81 43
v 55 74 33
v 62 64 30
v 71 61 39
v 74 66 52
v 67 76 53
v 72 78 42
v 67 81 38
v 67 77 34
v 69 72 32
v 73 71 35
v 74 74 41
v 73 77 35
v 50 52 0
v 46 57 0
v 41 53 0
v 46 47 0
v 2 22 39
v 4 15 39
v 5 11 59
v 5 19 59
v 11 23 38
v 11 5 18
v 2 5 20
v 4 4 26
v 11 14 39
v 11 11 58
v 11 19 59
v 10 26 56
v 1 22 56
v -5 29 60
v 12 33 60
v 18 17 56
v 26 19 61
v 16 7 56
v 22 1 61
v 5 4 56
v 4 -3 61
v -1 12 56
v -9 10 60
v 1 12 72
v 3 22 72
v 10 23 72
v 16 17 74
v 14 9 73
v 6 6 72
v 8 14 77
v 11 4 27
v 11 -22 26
v 11 -20 17
v 2 -20 20
v 4 -22 25
v 4 -45 0
v 11 -46 0
v 11 -37 0
v 2 -39 0
v -65 -8 39
v -58 -6 39
v -54 -5 59
v -62 -5 59
v -66 1 38
v -48 1 18
v -48 -8 20
v -47 -6 26
v -57 1 39
v -54 1 58
v -62 1 59
v -69 0 56
v -65 -9 56
v -72 -15 60
v -76 2 60
v -60 8 56
v -62 16 61
v -50 6 56
v -44 12 61
v -47 -5 56
v -40 -6 61
v -55 -11 56
v -53 -19 60
v -55 -9 72
v -65 -7 72
v -66 0 72
v -60 6 74
v -52 4 73
v -49 -4 72
v -57 -2 77
v -47 1 27
v -21 1 26
v -23 1 17
v -23 -8 20
v -21 -6 25
v 2 -6 0
v 3 1 0
v -6 1 0
v -4 -8 0
v -54 90 34
v -59 93 32
v -55 90 45
v -51 87 44
v -57 86 34
v -54 76 29
v -51 80 29
v -51 80 25
v -62 89 32
v -57 86 44
v -62 84 44
v -59 93 44
v -52 92 43
v -48 89 41
v -48 83 40
v -53 84 44
v -54 76 25
v -44 69 28
v -43 67 32
v -40 71 32
v -41 73 28
v -58 81 42
v -60 73 46
v -68 83 49
v -65 95 50
v -50 100 46
v -40 88 43
v -44 78 42
v -48 81 52
v -54 80 55
v -58 84 55
v -57 91 55
v -51 90 54
v -46 85 52
v -53 84 57
v -38 68 21
v -41 64 21
v -37 61 18
v -34 65 18
v -44 70 10
v -48 73 13
v -51 69 13
v -47 66 10
v -44 64 0
v -41 68 0
v -47 72 0
v -50 68 0
v 34 -55 0
v 42 -56 3
v 65 -74 17
v 56 -77 16
v 33 -53 12
v 63 -24 12
v 62 -26 0
v 63 -33 3
v 43 -56 11
v 64 -72 23
v 68 -67 29
v 70 -66 17
v 61 -70 10
v 50 -75 11
v 47 -79 22
v 56 -77 23
v 64 -34 11
v 86 -54 11
v 91 -45 12
v 89 -45 0
v 86 -53 3
v 56 -73 32
v 56 -81 35
v 75 -70 30
v 81 -67 15
v 65 -74 0
v 45 -85 0
v 42 -87 25
v 60 -95 14
v 67 -93 21
v 75 -88 18
v 78 -85 9
v 71 -89 3
v 62 -94 6
v 72 -95 11
v 112 -42 3
v 112 -43 11
v 112 -33 12
v 112 -33 0
v -37 -70 22
v -35 -66 18
v -18 -59 28
v -21 -60 35
v -41 -65 22
v -48 -68 7
v -44 -73 6
v -45 -71 0
v -36 -63 17
v -22 -57 29
v -25 -52 23
v -18 -60 21
v -17 -68 29
v -21 -66 38
v -28 -62 41
v -23 -57 35
v -47 -68 0
v -56 -72 0
v -53 -71 7
v -51 -76 6
v -54 -76 0
v -27 -51 31
v -31 -42 35
v -21 -43 18
v -10 -56 14
v -8 -72 30
v -18 -69 46
v -29 -59 49
v -13 -50 44
v -14 -44 40
v -10 -45 31
v -6 -52 30
v -6 -56 36
v -11 -56 45
v -6 -48 39
v -62 -80 15
v -64 -76 15
v -61 -75 21
v -59 -80 20
v -79 -91 23
v -77 -87 17
v -78 -83 17
v -83 -86 24
v -94 -91 0
v -90 -96 0
v -85 -91 0
v -87 -87 0
v -2 -75 40
v -26 -61 57
v -10 -53 11
v -66 71 49
v -71 93 55
v -39 79 41
v 39 -105 20
v 54 -85 -15
v 76 -83 42
v -81 -4 68
v -61 -24 61
v -53 22 69
v 51 82 35
v 59 68 22
v 65 70 56
v 6 40 65
v -19 17 66
v 35 11 62

f 1 2 3
f 1 3 4
f 1 4 5
f 1 5 6
f 1 6 7
f 1 7 2
f 2 7 8
f 2 8 9
f 2 9 10
f 2 10 3
f 3 10 11
f 3 11 12
f 3 12 13
f 3 13 4
f 4 13 14
f 4 14 15
f 4 15 16
f 4 16 5
f 5 16 9
f 5 9 17
f 5 17 6
f 6 17 18
f 6 18 19
f 6 19 7
f 7 19 20
f 7 20 8
f 8 20 21
f 8 21 17
f 8 17 9
f 9 16 10
f 10 16 22
f 10 22 11
f 11 22 23
f 11 23 24
f 11 24 12
f 12 24 25
f 12 25 13
f 13 25 26
f 13 26 14
f 14 26 27
f 14 27 15
f 15 27 28
f 15 28 22
f 15 22 16
f 22 28 23
f 23 28 29
f 23 29 30
f 23 30 24
f 24 30 31
f 24 31 25
f 25 31 32
f 25 32 26
f 26 32 33
f 26 33 27
f 27 33 34
f 27 34 28
f 28 34 29
f 29 34 35
f 29 35 30
f 30 35 31
f 31 35 32
f 32 35 33
f 33 35 34
f 17 21 18
f 18 21 36
f 18 36 37
f 18 37 19
f 19 37 38
f 19 38 20
f 20 38 39
f 20 39 21
f 21 39 36
f 40 41 42
f 40 42 43
f 40 43 44
f 40 44 45
f 40 45 46
f 40 46 41
f 41 46 47
f 41 47 48
f 41 48 49
f 41 49 42
f 48 44 50
f 48 50 49
f 44 43 50
f 51 52 53
f 51 53 54
f 51 54 55
f 55 54 56
f 55 56 57
f 57 56 58
f 57 58 59
f 59 58 60
f 59 60 61
f 61 60 62
f 61 62 52
f 52 62 53
f 53 62 63
f 53 63 64
f 53 64 54
f 54 64 65
f 54 65 56
f 56 65 66
f 56 66 58
f 58 66 67
f 58 67 60
f 60 67 68
f 60 68 62
f 62 68 63
f 63 68 69
f 63 69 64
f 64 69 65
f 65 69 66
f 66 69 67
f 67 69 68
f 48 47 70
f 48 70 44
f 44 70 45
f 45 70 71
f 45 71 72
f 45 72 46
f 46 72 73
f 46 73 47
f 47 73 74
f 47 74 70
f 70 74 71
f 71 74 75
f 71 75 76
f 71 76 72
f 72 76 77
f 72 77 73
f 73 77 78
f 73 78 74
f 74 78 75
f 79 80 81
f 79 81 82
f 79 82 83
f 79 83 84
f 79 84 85
f 79 85 80
f 80 85 86
f 80 86 87
f 80 87 88
f 80 88 81
f 87 83 89
f 87 89 88
f 83 82 89
f 90 91 92
f 90 92 93
f 90 93 94
f 94 93 95
f 94 95 96
f 96 95 97
f 96 97 98
f 98 97 99
f 98 99 100
f 100 99 101
f 100 101 91
f 91 101 92
f 92 101 102
f 92 102 103
f 92 103 93
f 93 103 104
f 93 104 95
f 95 104 105
f 95 105 97
f 97 105 106
f 97 106 99
f 99 106 107
f 99 107 101
f 101 107 102
f 102 107 108
f 102 108 103
f 103 108 104
f 104 108 105
f 105 108 106
f 106 108 107
f 87 86 109
f 87 109 83
f 83 109 84
f 84 109 110
f 84 110 111
f 84 111 85
f 85 111 112
f 85 112 86
f 86 112 113
f 86 113 109
f 109 113 110
f 110 113 114
f 110 114 115
f 110 115 111
f 111 115 116
f 111 116 112
f 112 116 117
f 112 117 113
f 113 117 114
f 118 119 120
f 118 120 121
f 118 121 122
f 118 122 123
f 118 123 124
f 118 124 119
f 119 124 125
f 119 125 126
f 119 126 127
f 119 127 120
f 120 127 128
f 120 128 129
f 120 129 130
f 120 130 121
f 121 130 131
f 121 131 132
f 121 132 133
f 121 133 122
f 122 133 126
f 122 126 134
f 122 134 123
f 123 134 135
f 123 135 136
f 123 136 124
f 124 136 137
f 124 137 125
f 125 137 138
f 125 138 134
f 125 134 126
f 126 133 127
f 127 133 139
f 127 139 128
f 128 139 140
f 128 140 141
f 128 141 129
f 129 141 142
f 129 142 130
f 130 142 143
f 130 143 131
f 131 143 144
f 131 144 132
f 132 144 145
f 132 145 139
f 132 139 133
f 139 145 140
f 140 145 146
f 140 146 147
f 140 147 141
f 141 147 148
f 141 148 142
f 142 148 149
f 142 149 143
f 143 149 150
f 143 150 144
f 144 150 151
f 144 151 145
f 145 151 146
f 146 151 152
f 146 152 147
f 147 152 148
f 148 152 149
f 149 152 150
f 150 152 151
f 134 138 135
f 135 138 153
f 135 153 154
f 135 154 136
f 136 154 155
f 136 155 137
f 137 155 156
f 137 156 138
f 138 156 153
f 153 156 157
f 153 157 158
f 153 158 154
f 154 158 159
f 154 159 155
f 155 159 160
f 155 160 156
f 156 160 157
f 157 160 161
f 157 161 162
f 157 162 158
f 158 162 163
f 158 163 159
f 159 163 164
f 159 164 160
f 160 164 161
f 165 166 167
f 165 167 168
f 165 168 169
f 165 169 170
f 165 170 171
f 165 171 166
f 166 171 172
f 166 172 173
f 166 173 174
f 166 174 167
f 167 174 175
f 167 175 176
f 167 176 177
f 167 177 168
f 168 177 178
f 168 178 179
f 168 179 180
f 168 180 169
f 169 180 173
f 169 173 181
f 169 181 170
f 170 181 182
f 170 182 183
f 170 183 171
f 171 183 184
f 171 184 172
f 172 184 185
f 172 185 181
f 172 181 173
f 173 180 174
f 174 180 186
f 174 186 175
f 175 186 187
f 175 187 188
f 175 188 176
f 176 188 189
f 176 189 177
f 177 189 190
f 177 190 178
f 178 190 191
f 178 191 179
f 179 191 192
f 179 192 186
f 179 186 180
f 186 192 187
f 187 192 193
f 187 193 194
f 187 194 188
f 188 194 195
f 188 195 189
f 189 195 196
f 189 196 190
f 190 196 197
f 190 197 191
f 191 197 198
f 191 198 192
f 192 198 193
f 193 198 199
f 193 199 194
f 194 199 195
f 195 199 196
f 196 199 197
f 197 199 198
f 181 185 182
f 182 185 200
f 182 200 201
f 182 201 183
f 183 201 202
f 183 202 184
f 184 202 203
f 184 203 185
f 185 203 200
f 200 203 202
f 200 202 201
f 204 205 206
f 204 206 207
f 204 207 208
f 204 208 209
f 204 209 210
f 204 210 205
f 205 210 211
f 205 211 212
f 205 212 213
f 205 213 206
f 206 213 214
f 206 214 215
f 206 215 216
f 206 216 207
f 207 216 217
f 207 217 218
f 207 218 219
f 207 219 208
f 208 219 212
f 208 212 220
f 208 220 209
f 209 220 221
f 209 221 222
f 209 222 210
f 210 222 223
f 210 223 211
f 211 223 224
f 211 224 220
f 211 220 212
f 212 219 213
f 213 219 225
f 213 225 214
f 214 225 226
f 214 226 227
f 214 227 215
f 215 227 228
f 215 228 216
f 216 228 229
f 216 229 217
f 217 229 230
f 217 230 218
f 218 230 231
f 218 231 225
f 218 225 219
f 225 231 226
f 226 231 232
f 226 232 233
f 226 233 227
f 227 233 234
f 227 234 228
f 228 234 235
f 228 235 229
f 229 235 236
f 229 236 230
f 230 236 237
f 230 237 231
f 231 237 232
f 232 237 238
f 232 238 233
f 233 238 234
f 234 238 235
f 235 238 236
f 236 238 237
f 220 224 221
f 221 224 239
f 221 239 240
f 221 240 222
f 222 240 241
f 222 241 223
f 223 241 242
f 223 242 224
f 224 242 239
f 239 242 243
f 239 243 244
f 239 244 240
f 240 244 245
f 240 245 241
f 241 245 246
f 241 246 242
f 242 246 243
f 243 246 247
f 243 247 248
f 243 248 244
f 244 248 249
f 244 249 245
f 245 249 250
f 245 250 246
f 246 250 247
f 251 252 253
f 254 255 256
f 257 258 259
