# RS2 Model 14715
# Vertices: 270
# Faces: 449

v 58 -80 0
v 74 -71 0
v 87 -78 0
v 72 -84 6
v 89 -46 7
v 79 -32 0
v 90 -44 0
v 98 -58 0
v 87 -74 7
v 95 -71 0
v 3 73 10
v 21 76 12
v 21 91 10
v 6 68 0
v 23 70 2
v 2 83 4
v -1 81 10
v -17 77 0
v -8 78 15
v -8 101 9
v -17 94 0
v 25 108 0
v 35 91 4
v 25 91 17
v 22 87 4
v 11 88 20
v 5 106 13
v 0 115 2
v 18 108 13
v -55 -69 13
v -88 -68 13
v -58 -81 13
v -64 -80 6
v -52 -62 0
v -71 -47 3
v -79 -65 6
v -101 -53 6
v -91 -65 35
v -73 -70 44
v -50 -83 32
v -41 -93 0
v -74 -106 24
v -58 -109 0
v -108 -80 0
v -103 -87 29
v -88 -98 29
v -93 -110 3
v -54 53 0
v -66 40 0
v -76 50 11
v -53 30 0
v -64 49 16
v -86 33 24
v -93 54 0
v -90 55 39
v -92 74 0
v -69 89 39
v -85 88 11
v -64 92 8
v -45 90 18
v -32 75 6
v -56 76 0
v -52 61 12
v -41 44 0
v -66 36 0
v 16 20 37
v 5 17 38
v 5 -4 46
v 13 -4 41
v 13 17 28
v 13 30 19
v 16 26 28
v 4 31 29
v 5 18 29
v 5 -3 37
v -4 -23 38
v 8 -23 44
v 17 -17 41
v 13 -4 36
v 9 32 19
v 17 40 19
v 36 34 10
v 31 24 10
v 30 19 21
v 21 38 28
v 11 43 46
v 7 30 47
v -1 34 38
v 9 43 28
v -10 53 0
v -19 38 0
v 20 -12 26
v -9 -17 28
v -16 -21 24
v -18 -32 33
v 1 -31 28
v 8 -33 37
v 22 -47 71
v 21 -41 72
v 16 -23 47
v 37 -24 47
v 37 -19 44
v 19 -28 31
v 63 -22 43
v 63 -25 49
v 37 -32 49
v 39 -36 39
v 63 -23 42
v 67 -19 47
v 62 -19 50
v 36 -25 54
v 39 -29 42
v 39 -24 36
v 40 -32 31
v 63 -21 42
v 62 -18 44
v 62 -17 46
v 62 -15 49
v 35 -12 51
v 35 -12 46
v 38 -19 34
v 17 -34 38
v 5 -25 21
v 25 -30 -3
v 33 -4 0
v -3 -7 21
v -7 -35 24
v -1 -37 0
v -10 -15 0
v -28 -25 20
v -38 -15 31
v -29 -8 35
v -29 -21 41
v -26 -35 28
v -26 -48 39
v -17 -42 44
v 40 -39 88
v 44 -42 84
v 31 -41 60
v 26 -31 66
v 19 -29 73
v 38 -40 89
v 44 -43 89
v 42 -45 85
v 31 -51 61
v 27 -44 65
v 26 -38 67
v 17 -41 76
v 39 -46 90
v 40 -48 89
v 41 -49 87
v 25 -57 68
v 21 -55 72
v -54 -9 64
v -61 -6 60
v -48 -21 27
v -34 -34 42
v -51 -7 67
v -59 -3 67
v -58 0 58
v -45 -12 23
v -37 -25 37
v -21 -23 49
v -52 -1 63
v -56 3 60
v -29 1 30
v -20 -7 43
v -22 -41 20
v -19 -51 34
v -33 -53 34
v -26 -36 50
v -16 -33 52
v -8 -47 39
v -25 -43 0
v -19 -74 63
v -18 -70 70
v -16 -77 61
v -16 -77 70
v -13 -67 69
v -9 -70 69
v 1 -42 42
v -4 -55 32
v -19 -60 27
v -11 -73 64
v -34 -23 0
v 2 -5 0
v 33 9 63
v 37 11 64
v 43 24 40
v 30 25 40
v 31 9 63
v 36 7 67
v 40 8 63
v 49 17 40
v 39 4 62
v 49 6 37
v 24 18 38
v 30 7 62
v 35 5 61
v 37 4 62
v 43 4 36
v 30 7 36
v 52 51 63
v 47 49 64
v 42 37 40
v 54 36 40
v 53 51 63
v 49 53 67
v 45 52 63
v 35 44 40
v 45 57 62
v 36 54 37
v 60 42 38
v 54 53 62
v 49 56 61
v 47 57 62
v 41 57 36
v 55 53 36
v 52 48 38
v 50 43 40
v 46 20 27
v 47 24 21
v 46 51 37
v 35 31 21
v 44 44 39
v 32 25 27
v 36 18 40
v 41 16 39
v 43 14 21
v 47 17 10
v 53 31 10
v 32 13 38
v 40 11 37
v 28 20 0
v 45 13 0
v 52 30 0
v 37 38 0
v 13 42 18
v -1 38 0
v 4 48 0
v 5 45 37
v -4 44 55
v 1 42 57
v 0 36 56
v -7 38 52
v -12 43 48
v -9 50 51
v 2 49 57
v 9 44 61
v 9 32 60
v 4 29 58
v -9 32 51
v -19 37 74
v -18 39 75
v -18 40 75
v -14 42 78
v -11 38 79
v -12 34 78
v -13 34 77
v -16 34 75
v -17 38 81
v -7 86 53
v -49 106 -8
v -89 34 63
v -21 105 -23
v -24 97 23
v 28 121 -24
v -106 -60 38
v -112 -65 -31
v -47 -101 38

f 1 2 3
f 1 3 4
f 1 4 5
f 1 5 6
f 6 5 7
f 7 5 8
f 8 5 9
f 8 9 10
f 10 9 3
f 3 9 4
f 4 9 5
f 11 12 13
f 11 13 12
f 14 15 12
f 14 12 11
f 14 11 16
f 16 11 17
f 16 17 18
f 18 17 19
f 18 19 20
f 18 20 21
f 18 21 22
f 18 22 23
f 23 22 24
f 23 24 13
f 23 13 25
f 25 13 15
f 11 13 17
f 17 13 24
f 17 24 26
f 17 26 19
f 19 26 27
f 19 27 20
f 20 27 28
f 20 28 21
f 21 28 22
f 22 28 29
f 22 29 24
f 24 29 26
f 26 29 27
f 27 29 28
f 30 31 32
f 30 32 33
f 30 33 34
f 30 34 35
f 30 35 31
f 31 35 36
f 31 36 37
f 31 37 38
f 31 38 32
f 32 38 39
f 32 39 40
f 32 40 41
f 32 41 33
f 41 40 42
f 41 42 43
f 41 43 44
f 41 44 37
f 37 44 38
f 38 44 45
f 38 45 39
f 39 45 46
f 39 46 40
f 40 46 42
f 42 46 47
f 42 47 43
f 43 47 44
f 44 47 45
f 45 47 46
f 48 49 50
f 50 49 51
f 50 51 52
f 50 52 53
f 50 53 54
f 54 53 55
f 54 55 56
f 56 55 57
f 56 57 58
f 58 57 59
f 59 57 60
f 59 60 61
f 59 61 62
f 55 53 61
f 55 61 60
f 55 60 57
f 63 64 48
f 64 63 51
f 51 63 52
f 49 65 51
f 66 67 68
f 66 68 69
f 66 69 70
f 66 70 71
f 66 71 72
f 66 72 67
f 67 72 73
f 67 73 74
f 67 74 75
f 67 75 68
f 68 75 76
f 68 76 77
f 68 77 69
f 69 77 78
f 69 78 79
f 69 79 70
f 70 79 74
f 70 74 80
f 70 80 71
f 71 80 81
f 71 81 82
f 71 82 83
f 71 83 72
f 72 83 84
f 72 84 85
f 72 85 86
f 72 86 87
f 72 87 73
f 73 87 88
f 73 88 89
f 73 89 90
f 73 90 91
f 73 91 80
f 73 80 74
f 74 79 75
f 75 79 92
f 75 92 76
f 76 92 93
f 76 93 94
f 76 94 95
f 76 95 96
f 76 96 97
f 76 97 77
f 77 97 98
f 77 98 99
f 77 99 100
f 77 100 78
f 78 100 101
f 78 101 102
f 78 102 103
f 78 103 92
f 78 92 79
f 104 105 106
f 104 106 107
f 104 107 108
f 104 108 109
f 104 109 105
f 105 109 110
f 105 110 111
f 105 111 106
f 106 111 101
f 106 101 112
f 106 112 107
f 107 112 113
f 107 113 114
f 107 114 108
f 108 114 115
f 108 115 109
f 109 115 116
f 109 116 117
f 109 117 118
f 109 118 110
f 110 118 119
f 110 119 111
f 111 119 102
f 111 102 101
f 118 117 120
f 118 120 119
f 119 120 102
f 102 120 121
f 102 121 113
f 102 113 103
f 103 113 122
f 103 122 97
f 103 97 96
f 103 96 123
f 103 123 124
f 103 124 92
f 92 124 125
f 92 125 126
f 92 126 93
f 93 126 96
f 93 96 127
f 93 127 94
f 94 127 128
f 94 128 129
f 94 129 130
f 94 130 131
f 94 131 132
f 94 132 95
f 95 132 133
f 95 133 134
f 95 134 135
f 95 135 136
f 95 136 127
f 95 127 96
f 117 116 121
f 117 121 120
f 115 121 116
f 121 115 114
f 121 114 113
f 137 138 139
f 137 139 140
f 137 140 141
f 137 141 142
f 137 142 143
f 137 143 138
f 138 143 144
f 138 144 145
f 138 145 139
f 139 145 146
f 139 146 147
f 139 147 140
f 140 147 141
f 141 147 99
f 141 99 148
f 141 148 142
f 142 148 149
f 142 149 143
f 143 149 150
f 143 150 151
f 143 151 144
f 144 151 152
f 144 152 145
f 145 152 146
f 146 152 98
f 146 98 97
f 146 97 122
f 146 122 147
f 147 122 100
f 147 100 99
f 151 150 153
f 151 153 152
f 152 153 98
f 98 153 99
f 99 153 148
f 148 153 150
f 148 150 149
f 113 112 122
f 122 112 100
f 100 112 101
f 154 155 156
f 154 156 157
f 154 157 158
f 154 158 159
f 154 159 155
f 155 159 160
f 155 160 161
f 155 161 156
f 156 161 131
f 156 131 162
f 156 162 157
f 157 162 133
f 157 133 163
f 157 163 158
f 158 163 164
f 158 164 159
f 159 164 165
f 159 165 160
f 160 165 166
f 160 166 161
f 161 166 132
f 161 132 131
f 164 166 165
f 166 164 167
f 166 167 132
f 132 167 163
f 132 163 133
f 164 163 167
f 133 162 134
f 134 162 130
f 134 130 168
f 134 168 169
f 134 169 135
f 135 169 170
f 135 170 171
f 135 171 136
f 136 171 172
f 136 172 173
f 136 173 127
f 127 173 168
f 127 168 174
f 127 174 128
f 162 131 130
f 175 176 171
f 175 171 170
f 175 170 177
f 175 177 178
f 175 178 176
f 176 178 179
f 176 179 172
f 176 172 171
f 179 180 181
f 179 181 172
f 172 181 173
f 173 181 182
f 173 182 183
f 173 183 169
f 173 169 168
f 184 181 180
f 184 180 178
f 184 178 177
f 184 177 183
f 184 183 182
f 184 182 181
f 177 170 183
f 183 170 169
f 178 180 179
f 130 129 185
f 130 185 168
f 168 185 174
f 126 123 96
f 123 126 186
f 123 186 124
f 125 186 126
f 187 188 189
f 187 189 190
f 187 190 191
f 187 191 192
f 187 192 188
f 188 192 193
f 188 193 194
f 188 194 189
f 193 195 196
f 193 196 194
f 191 190 197
f 191 197 198
f 191 198 192
f 192 198 199
f 192 199 200
f 192 200 195
f 192 195 193
f 195 200 201
f 195 201 196
f 200 199 202
f 200 202 201
f 198 202 199
f 202 198 197
f 203 204 205
f 203 205 206
f 203 206 207
f 203 207 208
f 203 208 204
f 204 208 209
f 204 209 210
f 204 210 205
f 209 211 212
f 209 212 210
f 207 206 213
f 207 213 214
f 207 214 208
f 208 214 215
f 208 215 216
f 208 216 211
f 208 211 209
f 211 216 217
f 211 217 212
f 216 215 218
f 216 218 217
f 214 218 215
f 218 214 213
f 219 220 221
f 219 221 222
f 219 222 223
f 223 222 224
f 223 224 225
f 225 224 226
f 225 226 220
f 220 226 221
f 221 226 227
f 221 227 228
f 221 228 229
f 221 229 222
f 222 229 230
f 222 230 231
f 222 231 224
f 224 231 82
f 224 82 81
f 224 81 85
f 224 85 84
f 224 84 226
f 226 84 232
f 226 232 227
f 228 233 229
f 229 233 84
f 229 84 83
f 229 83 230
f 230 83 234
f 230 234 235
f 230 235 231
f 231 235 236
f 231 236 82
f 82 236 237
f 82 237 83
f 83 237 234
f 233 232 84
f 238 89 85
f 238 85 81
f 238 81 80
f 238 80 239
f 238 239 240
f 238 240 89
f 89 240 90
f 91 239 80
f 88 241 89
f 89 241 85
f 85 241 86
f 86 241 242
f 86 242 243
f 86 243 87
f 87 243 244
f 87 244 88
f 88 244 245
f 88 245 241
f 241 245 242
f 242 245 246
f 242 246 247
f 242 247 248
f 242 248 243
f 243 248 249
f 243 249 250
f 243 250 244
f 244 250 251
f 244 251 252
f 244 252 245
f 245 252 246
f 246 252 253
f 246 253 254
f 246 254 247
f 247 254 255
f 247 255 248
f 248 255 256
f 248 256 249
f 249 256 257
f 249 257 250
f 250 257 258
f 250 258 251
f 251 258 259
f 251 259 252
f 252 259 260
f 252 260 253
f 253 260 261
f 253 261 254
f 254 261 255
f 255 261 256
f 256 261 257
f 257 261 258
f 258 261 259
f 259 261 260
f 262 263 264
