# RS2 Model 1473
# Vertices: 38
# Faces: 56

v -41 10 7
v -45 -3 7
v -45 -14 3
v -37 17 5
v -46 10 7
v -48 3 7
v -54 3 3
v -58 7 0
v -44 -31 0
v -31 21 0
v -48 27 3
v -51 37 0
v -21 -34 3
v -25 -13 3
v -28 -9 0
v -24 -38 0
v -15 -37 3
v -18 -25 5
v -23 -3 3
v -27 4 0
v -14 -26 3
v -13 -28 0
v -15 -43 0
v 45 -17 11
v 42 -14 11
v 37 -10 1
v 39 -31 1
v 49 -21 11
v 48 -3 11
v 46 12 1
v 46 23 0
v 31 -7 0
v 37 -42 0
v 46 -30 1
v 50 -7 11
v 51 0 1
v 55 6 0
v 46 -40 0

f 1 2 3
f 1 3 4
f 1 4 5
f 1 5 6
f 1 6 2
f 2 6 7
f 2 7 3
f 3 7 8
f 3 8 9
f 3 9 4
f 4 9 10
f 4 10 11
f 4 11 5
f 5 11 6
f 6 11 7
f 7 11 12
f 7 12 8
f 13 14 15
f 13 15 16
f 13 16 17
f 13 17 18
f 13 18 14
f 14 18 19
f 14 19 20
f 14 20 15
f 19 21 22
f 19 22 20
f 21 17 23
f 21 23 22
f 17 16 23
f 18 21 19
f 21 18 17
f 11 10 12
f 24 25 26
f 24 26 27
f 24 27 28
f 24 28 25
f 25 28 29
f 25 29 30
f 25 30 26
f 26 30 31
f 26 31 32
f 26 32 27
f 27 32 33
f 27 33 34
f 27 34 28
f 28 34 35
f 28 35 29
f 29 35 36
f 29 36 30
f 30 36 37
f 30 37 31
f 35 34 36
f 36 34 38
f 36 38 37
f 34 33 38
