# RS2 Model 14767
# Vertices: 122
# Faces: 187

v 64 -40 0
v 40 16 0
v 56 24 32
v 80 -40 32
v 72 -128 0
v 88 -128 32
v 72 -80 72
v 72 -128 80
v 0 -128 96
v 0 -80 88
v -72 -128 80
v -64 -80 72
v -72 -56 72
v -96 -56 56
v -97 -56 50
v -104 -56 32
v -88 -128 32
v -88 -56 0
v -72 -128 0
v 48 72 0
v 64 72 32
v 48 24 56
v 48 -48 56
v 51 -53 58
v 8 -48 64
v -24 -56 80
v -48 -40 80
v -56 32 72
v -80 40 56
v -88 40 32
v -96 -50 48
v -72 24 0
v 16 96 0
v 16 112 32
v 16 104 56
v 51 75 53
v 57 72 53
v 56 72 56
v 32 64 72
v 16 56 80
v 16 32 80
v 40 -16 64
v -40 88 0
v -56 104 32
v -48 96 56
v -32 72 72
v 16 80 72
v -32 32 80
v -24 48 80
v -16 24 96
v -24 8 96
v -16 -8 96
v 0 0 96
v 0 16 96
v -36 8 83
v -35 4 83
v -24 -24 80
v -8 -32 80
v 16 -8 80
v -40 8 80
v 112 -84 16
v 116 -72 12
v 104 -84 12
v 112 -92 12
v 124 -84 12
v 116 -64 0
v 100 -72 0
v 104 -72 12
v 100 -88 0
v 112 -96 0
v 128 -84 0
v -117 31 16
v -104 29 12
v -118 39 12
v -124 29 12
v -114 19 12
v -96 31 0
v -107 45 0
v -106 41 12
v -123 42 0
v -128 28 0
v -114 15 0
v -100 96 44
v -97 71 33
v -88 102 33
v -107 108 33
v -121 85 33
v -90 57 0
v -71 85 0
v -77 81 33
v -84 114 0
v -111 116 0
v -126 81 0
v -112 -116 11
v -108 -104 0
v -120 -116 0
v -112 -124 0
v -100 -116 0
v 72 92 11
v 76 104 0
v 64 92 0
v 72 84 0
v 84 92 0
v 76 12 0
v 104 -4 0
v 104 -12 16
v 68 12 16
v 72 44 0
v 64 44 16
v 96 64 0
v 96 72 16
v 124 52 0
v 128 60 16
v 132 12 16
v 128 16 0
v 116 20 48
v 104 12 48
v 92 20 48
v 88 40 48
v 100 52 48
v 112 48 48
v 104 32 52

f 1 2 3
f 1 3 4
f 1 4 5
f 5 4 6
f 6 4 7
f 6 7 8
f 8 7 9
f 9 7 10
f 9 10 11
f 11 10 12
f 11 12 13
f 11 13 14
f 11 14 15
f 11 15 16
f 11 16 17
f 17 16 18
f 17 18 19
f 2 20 21
f 2 21 3
f 3 21 22
f 3 22 4
f 4 22 23
f 4 23 24
f 4 24 7
f 7 24 25
f 7 25 10
f 10 25 26
f 10 26 12
f 12 26 27
f 12 27 13
f 13 27 28
f 13 28 29
f 13 29 14
f 14 29 30
f 14 30 31
f 14 31 15
f 15 31 16
f 16 31 30
f 16 30 32
f 16 32 18
f 20 33 34
f 20 34 21
f 21 34 35
f 21 35 36
f 21 36 37
f 21 37 22
f 22 37 38
f 22 38 39
f 22 39 40
f 22 40 41
f 22 41 42
f 22 42 23
f 23 42 25
f 23 25 24
f 33 43 44
f 33 44 34
f 34 44 45
f 34 45 35
f 35 45 46
f 35 46 47
f 35 47 38
f 35 38 36
f 36 38 37
f 43 32 30
f 43 30 44
f 44 30 29
f 44 29 45
f 45 29 28
f 45 28 46
f 46 28 48
f 46 48 49
f 46 49 47
f 47 49 40
f 47 40 39
f 47 39 38
f 50 51 52
f 50 52 53
f 50 53 54
f 50 54 41
f 50 41 49
f 50 49 48
f 50 48 51
f 51 48 55
f 51 55 56
f 51 56 52
f 52 56 57
f 52 57 58
f 52 58 53
f 53 58 59
f 53 59 54
f 54 59 41
f 41 59 42
f 42 59 58
f 42 58 25
f 25 58 26
f 26 58 27
f 27 58 57
f 27 57 60
f 27 60 28
f 28 60 48
f 48 60 55
f 55 60 56
f 56 60 57
f 49 41 40
f 61 62 63
f 61 63 64
f 61 64 65
f 61 65 62
f 62 65 66
f 62 66 67
f 62 67 68
f 62 68 63
f 63 68 67
f 63 67 69
f 63 69 64
f 64 69 70
f 64 70 71
f 64 71 65
f 65 71 66
f 72 73 74
f 72 74 75
f 72 75 76
f 72 76 73
f 73 76 77
f 73 77 78
f 73 78 79
f 73 79 74
f 74 79 78
f 74 78 80
f 74 80 75
f 75 80 81
f 75 81 82
f 75 82 76
f 76 82 77
f 83 84 85
f 83 85 86
f 83 86 87
f 83 87 84
f 84 87 88
f 84 88 89
f 84 89 90
f 84 90 85
f 85 90 89
f 85 89 91
f 85 91 86
f 86 91 92
f 86 92 93
f 86 93 87
f 87 93 88
f 94 95 96
f 94 96 97
f 94 97 98
f 94 98 95
f 99 100 101
f 99 101 102
f 99 102 103
f 99 103 100
f 104 105 106
f 104 106 107
f 104 107 108
f 108 107 109
f 108 109 110
f 110 109 111
f 110 111 112
f 112 111 113
f 112 113 114
f 112 114 115
f 115 114 105
f 105 114 106
f 106 114 116
f 106 116 117
f 106 117 107
f 107 117 118
f 107 118 109
f 109 118 119
f 109 119 111
f 111 119 120
f 111 120 113
f 113 120 121
f 113 121 114
f 114 121 116
f 116 121 122
f 116 122 117
f 117 122 118
f 118 122 119
f 119 122 120
f 120 122 121
