# RS2 Model 14771
# Vertices: 47
# Faces: 52

v -8 -64 80
v 64 -64 95
v 64 -16 87
v 0 -16 72
v -8 8 72
v -32 8 56
v -33 8 50
v -40 8 32
v -24 -64 32
v -24 8 0
v -8 -64 0
v 56 32 80
v 64 25 72
v 64 35 77
v 64 40 80
v 64 64 95
v 48 56 96
v 40 40 80
v 16 24 80
v 40 8 80
v 64 14 68
v 64 -15 87
v 12 64 75
v 3 64 72
v -12 64 62
v -22 64 56
v -27 64 41
v -32 14 48
v -27 64 39
v -30 64 32
v -17 64 9
v -12 64 0
v 64 64 96
v 48 64 96
v 44 64 96
v 36 64 87
v 31 64 82
v 28 64 80
v 23 64 80
v -56 -52 0
v -48 -60 0
v -48 -52 11
v -44 -40 0
v -36 -52 0
v -72 -50 0
v -47 -78 -1
v -42 -20 4

f 1 2 3
f 1 3 4
f 1 4 5
f 1 5 6
f 1 6 7
f 1 7 8
f 1 8 9
f 9 8 10
f 9 10 11
f 12 13 14
f 12 14 15
f 12 15 16
f 12 16 17
f 12 17 18
f 12 18 19
f 12 19 20
f 12 20 21
f 12 21 13
f 3 22 20
f 3 20 4
f 4 20 19
f 4 19 5
f 5 19 23
f 5 23 24
f 5 24 25
f 5 25 6
f 6 25 26
f 6 26 27
f 6 27 28
f 6 28 7
f 7 28 8
f 8 28 29
f 8 29 30
f 8 30 31
f 8 31 10
f 10 31 32
f 20 22 21
f 16 33 17
f 17 33 34
f 17 34 35
f 17 35 36
f 17 36 18
f 18 36 37
f 18 37 38
f 18 38 19
f 19 38 39
f 19 39 23
f 27 29 28
f 40 41 42
f 40 42 43
f 43 42 44
f 44 42 41
