# RS2 Model 14794
# Vertices: 268
# Faces: 544

v -6 16 165
v 0 17 165
v 0 19 167
v -7 18 167
v -10 16 167
v -8 15 165
v -7 18 163
v 0 19 163
v 7 16 165
v 8 18 167
v 9 20 165
v 0 21 165
v -8 20 165
v -12 17 165
v -15 14 165
v -13 13 167
v -12 11 165
v -10 16 163
v 8 18 163
v 11 16 163
v 9 15 165
v 11 16 167
v 13 17 165
v -13 7 165
v -15 9 167
v -16 6 167
v -14 4 165
v -15 5 163
v -15 9 163
v -17 10 165
v -18 8 165
v -20 6 165
v -19 4 167
v -17 1 165
v -19 4 163
v -14 13 163
v -53 4 166
v -53 2 165
v -53 6 165
v -55 5 165
v -55 4 165
v -55 3 165
v -53 4 163
v -57 4 162
v -59 5 165
v -59 4 165
v -59 3 165
v -60 4 166
v -60 2 165
v -60 6 165
v -64 5 165
v -64 4 166
v -64 3 165
v -60 4 163
v -64 4 164
v 12 11 165
v 14 13 167
v 15 14 165
v 15 9 167
v 13 7 165
v 16 6 167
v 18 8 165
v 17 10 165
v 14 13 163
v 15 9 163
v 15 5 163
v 14 4 165
v 17 1 165
v 19 4 167
v 20 6 165
v 53 2 165
v 53 4 166
v 53 6 165
v 19 4 163
v 53 4 163
v 57 4 162
v 55 3 165
v 55 4 165
v 55 5 165
v 59 3 165
v 59 4 165
v 59 5 165
v 60 2 165
v 60 4 166
v 60 6 165
v 60 4 163
v 64 3 165
v 64 4 166
v 64 5 165
v 64 4 164
v 48 6 136
v 53 12 136
v 53 12 133
v 48 6 133
v 48 0 136
v 48 -1 139
v 48 6 139
v 53 13 139
v 61 12 136
v 61 12 133
v 48 0 133
v 52 -5 136
v 52 -6 139
v 51 -7 142
v 47 -1 146
v 47 6 146
v 53 14 146
v 61 13 139
v 66 7 136
v 66 7 133
v 60 -5 136
v 52 -5 133
v 60 -5 133
v 67 1 136
v 67 1 139
v 60 -6 139
v 61 -7 146
v 53 -7 142
v 52 -7 146
v 52 -7 149
v 47 -1 149
v 46 7 149
v 53 14 149
v 61 14 146
v 59 13 142
v 62 13 142
v 66 7 139
v 67 1 133
v 67 8 142
v 66 2 142
v 67 -1 142
v 68 0 146
v 69 0 149
v 62 -7 149
v 63 14 154
v 69 9 154
v 69 9 149
v 63 14 149
v 62 14 154
v 53 15 154
v 56 13 158
v 60 13 158
v 61 11 154
v 66 7 154
v 66 1 154
v 69 0 154
v 68 9 146
v 58 4 149
v 61 -5 154
v 68 -2 154
v 62 -8 154
v 46 7 154
v 46 -2 154
v 49 0 154
v 50 7 154
v 55 11 154
v 56 12 158
v 56 9 165
v 59 9 165
v 59 9 164
v 60 12 158
v 52 -7 154
v 56 -5 154
v 56 -5 158
v 60 -5 158
v 60 -6 158
v 56 -6 158
v 56 -2 164
v 59 -2 164
v 59 -2 165
v 56 -2 165
v 56 9 164
v 57 4 167
v 58 4 167
v 58 4 166
v 57 4 166
v -48 6 136
v -48 6 133
v -53 12 133
v -53 12 136
v -48 6 139
v -48 -1 139
v -48 0 136
v -48 0 133
v -52 -5 136
v -52 -5 133
v -60 -5 136
v -60 -5 133
v -67 1 136
v -67 1 133
v -67 7 136
v -67 7 133
v -61 12 136
v -61 12 133
v -53 13 139
v -52 14 146
v -47 6 146
v -47 -1 146
v -51 -7 142
v -52 -6 139
v -60 -6 139
v -67 1 139
v -67 8 139
v -61 13 139
v -63 14 154
v -63 14 149
v -69 9 149
v -69 9 154
v -61 11 154
v -60 13 158
v -56 13 158
v -53 15 154
v -62 14 154
v -53 14 149
v -61 14 146
v -68 8 146
v -58 4 149
v -66 7 154
v -66 1 154
v -69 0 149
v -62 -7 149
v -52 -7 149
v -47 -1 149
v -46 7 149
v -61 13 142
v -62 13 142
v -67 8 142
v -67 2 142
v -68 0 146
v -69 0 154
v -46 7 154
v -50 7 154
v -49 0 154
v -46 -2 154
v -62 -8 154
v -52 -7 154
v -56 -6 158
v -60 -6 158
v -61 -5 154
v -68 -2 154
v -61 -7 146
v -52 -7 146
v -56 -5 154
v -56 -5 158
v -56 -2 164
v -56 -2 165
v -59 -2 165
v -60 -5 158
v -67 -1 142
v -53 -7 142
v -55 11 154
v -60 12 158
v -59 9 164
v -59 9 165
v -56 9 165
v -56 12 158
v -56 9 164
v -58 4 166
v -58 4 167
v -57 4 167
v -59 -2 164
v -57 4 166
v -46 -6 149
v -46 14 149
v -69 -6 149
v 46 14 149
v 46 -6 149
v 69 14 149

f 1 2 3
f 1 3 4
f 1 4 5
f 1 5 6
f 1 6 7
f 1 7 2
f 2 7 8
f 2 8 9
f 2 9 10
f 2 10 3
f 3 10 11
f 3 11 12
f 3 12 4
f 4 12 13
f 4 13 14
f 4 14 5
f 5 14 15
f 5 15 16
f 5 16 6
f 6 16 17
f 6 17 18
f 6 18 7
f 7 18 13
f 7 13 8
f 8 13 12
f 8 12 19
f 8 19 9
f 9 19 20
f 9 20 21
f 9 21 10
f 10 21 22
f 10 22 11
f 11 22 23
f 11 23 19
f 11 19 12
f 24 25 26
f 24 26 27
f 24 27 28
f 24 28 29
f 24 29 17
f 24 17 25
f 25 17 16
f 25 16 30
f 25 30 31
f 25 31 26
f 26 31 32
f 26 32 33
f 26 33 27
f 27 33 34
f 27 34 28
f 28 34 35
f 28 35 31
f 28 31 29
f 29 31 30
f 29 30 36
f 29 36 17
f 17 36 18
f 18 36 14
f 18 14 13
f 37 38 34
f 37 34 33
f 37 33 39
f 37 39 40
f 37 40 41
f 37 41 38
f 38 41 42
f 38 42 43
f 38 43 35
f 38 35 34
f 39 33 32
f 39 32 43
f 39 43 44
f 39 44 40
f 40 44 45
f 40 45 41
f 41 45 46
f 41 46 42
f 42 46 47
f 42 47 44
f 42 44 43
f 48 49 47
f 48 47 46
f 48 46 50
f 48 50 51
f 48 51 52
f 48 52 49
f 49 52 53
f 49 53 54
f 49 54 44
f 49 44 47
f 50 46 45
f 50 45 44
f 50 44 54
f 50 54 55
f 50 55 51
f 51 55 53
f 51 53 52
f 14 36 15
f 15 36 30
f 15 30 16
f 31 35 32
f 32 35 43
f 54 53 55
f 22 21 56
f 22 56 57
f 22 57 23
f 23 57 58
f 23 58 20
f 23 20 19
f 59 57 56
f 59 56 60
f 59 60 61
f 59 61 62
f 59 62 63
f 59 63 57
f 57 63 58
f 58 63 64
f 58 64 20
f 20 64 21
f 21 64 56
f 56 64 65
f 56 65 60
f 60 65 66
f 60 66 67
f 60 67 61
f 61 67 68
f 61 68 69
f 61 69 62
f 62 69 70
f 62 70 66
f 62 66 65
f 62 65 63
f 63 65 64
f 69 68 71
f 69 71 72
f 69 72 70
f 70 72 73
f 70 73 74
f 70 74 66
f 66 74 67
f 67 74 68
f 68 74 75
f 68 75 71
f 71 75 76
f 71 76 77
f 71 77 72
f 72 77 78
f 72 78 73
f 73 78 79
f 73 79 75
f 73 75 74
f 78 77 80
f 78 80 81
f 78 81 79
f 79 81 82
f 79 82 76
f 79 76 75
f 81 80 83
f 81 83 84
f 81 84 82
f 82 84 85
f 82 85 86
f 82 86 76
f 76 86 80
f 76 80 77
f 84 83 87
f 84 87 88
f 84 88 85
f 85 88 89
f 85 89 86
f 86 89 90
f 86 90 83
f 86 83 80
f 90 87 83
f 87 90 88
f 88 90 89
f 91 92 93
f 91 93 94
f 91 94 95
f 91 95 96
f 91 96 97
f 91 97 92
f 92 97 98
f 92 98 99
f 92 99 100
f 92 100 93
f 95 94 101
f 95 101 102
f 95 102 103
f 95 103 96
f 96 103 104
f 96 104 105
f 96 105 97
f 97 105 106
f 97 106 107
f 97 107 98
f 98 107 108
f 98 108 99
f 99 108 109
f 99 109 110
f 99 110 100
f 111 102 112
f 111 112 113
f 111 113 114
f 111 114 115
f 111 115 116
f 111 116 102
f 102 116 103
f 103 116 117
f 103 117 118
f 103 118 104
f 104 118 119
f 104 119 105
f 105 119 120
f 105 120 121
f 105 121 106
f 106 121 122
f 106 122 107
f 107 122 123
f 107 123 124
f 107 124 125
f 107 125 108
f 108 125 126
f 108 126 127
f 108 127 109
f 109 127 114
f 109 114 128
f 109 128 110
f 102 101 112
f 114 113 128
f 127 115 114
f 115 127 129
f 115 129 130
f 115 130 131
f 115 131 116
f 116 131 117
f 117 131 132
f 117 132 133
f 117 133 134
f 117 134 119
f 117 119 118
f 135 136 137
f 135 137 138
f 135 138 139
f 135 139 140
f 135 140 141
f 135 141 142
f 135 142 143
f 135 143 136
f 136 143 144
f 136 144 145
f 136 145 146
f 136 146 133
f 136 133 137
f 137 133 132
f 137 132 147
f 137 147 138
f 137 138 148
f 137 148 133
f 137 133 145
f 137 145 144
f 137 144 138
f 138 144 143
f 138 143 123
f 138 123 148
f 148 123 122
f 148 122 121
f 148 121 120
f 148 120 134
f 148 134 133
f 133 134 149
f 133 149 145
f 133 145 150
f 133 150 134
f 134 150 151
f 134 151 120
f 134 120 119
f 152 140 123
f 152 123 122
f 152 122 153
f 152 153 154
f 152 154 155
f 152 155 140
f 140 155 156
f 140 156 141
f 141 156 157
f 141 157 158
f 141 158 159
f 141 159 142
f 142 159 160
f 142 160 161
f 142 161 143
f 143 161 156
f 143 156 123
f 123 156 122
f 122 156 155
f 122 155 121
f 122 121 153
f 153 121 162
f 153 162 163
f 153 163 154
f 154 163 120
f 154 120 121
f 154 121 155
f 151 162 120
f 120 162 121
f 138 147 124
f 138 124 123
f 138 123 140
f 138 140 139
f 134 120 163
f 134 163 149
f 149 163 164
f 149 164 165
f 149 165 166
f 149 166 151
f 149 151 150
f 149 150 145
f 131 130 132
f 132 130 147
f 147 130 129
f 147 129 124
f 124 129 126
f 124 126 125
f 146 145 133
f 127 126 129
f 135 143 156
f 162 163 149
f 163 162 167
f 163 167 164
f 164 167 168
f 164 168 165
f 165 168 169
f 165 169 170
f 165 170 166
f 166 170 171
f 166 171 167
f 166 167 151
f 151 167 162
f 161 157 156
f 157 161 160
f 157 160 172
f 157 172 158
f 158 172 173
f 158 173 174
f 158 174 159
f 159 174 175
f 159 175 160
f 160 175 172
f 172 175 176
f 172 176 173
f 173 176 171
f 173 171 170
f 173 170 174
f 174 170 169
f 174 169 175
f 175 169 176
f 176 169 168
f 176 168 171
f 171 168 167
f 177 178 179
f 177 179 180
f 177 180 181
f 177 181 182
f 177 182 183
f 177 183 178
f 178 183 184
f 184 183 185
f 184 185 186
f 186 185 187
f 186 187 188
f 188 187 189
f 188 189 190
f 190 189 191
f 190 191 192
f 192 191 193
f 192 193 194
f 194 193 180
f 194 180 179
f 181 180 195
f 181 195 196
f 181 196 197
f 181 197 198
f 181 198 182
f 182 198 199
f 182 199 200
f 182 200 183
f 183 200 185
f 185 200 201
f 185 201 187
f 187 201 202
f 187 202 189
f 189 202 203
f 189 203 191
f 191 203 204
f 191 204 193
f 193 204 195
f 193 195 180
f 205 206 207
f 205 207 208
f 205 208 209
f 205 209 210
f 205 210 211
f 205 211 212
f 205 212 213
f 205 213 206
f 206 213 212
f 206 212 214
f 206 214 215
f 206 215 216
f 206 216 207
f 206 207 217
f 206 217 214
f 206 214 209
f 206 209 218
f 206 218 207
f 207 218 219
f 207 219 220
f 207 220 217
f 217 220 221
f 217 221 222
f 217 222 223
f 217 223 224
f 217 224 214
f 214 224 196
f 214 196 215
f 215 196 225
f 215 225 226
f 215 226 227
f 215 227 216
f 216 227 228
f 216 228 229
f 216 229 207
f 207 229 220
f 207 220 208
f 208 220 230
f 208 230 219
f 208 219 218
f 208 218 209
f 231 224 214
f 231 214 212
f 231 212 232
f 231 232 233
f 231 233 234
f 231 234 224
f 224 234 223
f 224 223 197
f 224 197 196
f 235 221 222
f 235 222 236
f 235 236 237
f 235 237 238
f 235 238 239
f 235 239 240
f 235 240 221
f 221 240 220
f 221 220 241
f 221 241 242
f 221 242 222
f 222 242 198
f 222 198 223
f 222 223 236
f 236 223 234
f 236 234 243
f 236 243 237
f 237 243 244
f 237 244 245
f 237 245 246
f 237 246 238
f 238 246 247
f 238 247 248
f 238 248 239
f 239 248 244
f 239 244 243
f 239 243 221
f 239 221 220
f 239 220 219
f 239 219 240
f 240 219 220
f 220 219 230
f 223 198 197
f 220 229 241
f 241 229 249
f 241 249 201
f 241 201 200
f 241 200 250
f 241 250 242
f 242 250 199
f 242 199 198
f 232 212 251
f 232 251 224
f 232 224 223
f 232 223 233
f 233 223 222
f 233 222 243
f 233 243 234
f 214 251 209
f 209 251 252
f 209 252 210
f 210 252 253
f 210 253 254
f 210 254 211
f 211 254 255
f 211 255 256
f 211 256 251
f 211 251 212
f 224 251 214
f 221 243 222
f 202 249 228
f 202 228 227
f 202 227 203
f 203 227 226
f 203 226 204
f 204 226 225
f 204 225 196
f 204 196 195
f 249 229 228
f 201 249 202
f 250 200 199
f 205 251 209
f 236 239 243
f 252 251 256
f 252 256 253
f 253 256 257
f 253 257 258
f 253 258 254
f 254 258 259
f 254 259 255
f 255 259 260
f 255 260 257
f 255 257 256
f 245 248 261
f 245 261 262
f 245 262 246
f 246 262 260
f 246 260 247
f 247 260 259
f 247 259 261
f 247 261 248
f 245 244 248
f 258 257 262
f 258 262 261
f 258 261 259
f 257 260 262
