# RS2 Model 1479
# Vertices: 370
# Faces: 484

v -53 161 112
v 59 161 112
v 59 176 64
v -53 176 64
v -51 95 92
v 59 97 92
v 59 112 45
v -51 110 44
v -51 27 72
v -4 62 83
v -4 77 35
v -51 41 25
v -20 -26 56
v 27 11 67
v 27 25 20
v -20 -11 9
v 22 37 65
v 16 82 79
v 16 94 38
v 22 49 25
v 60 43 67
v 54 86 80
v 54 98 40
v 60 55 27
v -98 97 23
v -98 117 43
v -102 117 43
v -102 97 23
v -102 103 17
v -102 123 37
v -98 123 37
v -98 103 17
v -96 124 64
v -96 136 64
v -104 136 64
v -104 124 64
v -96 116 56
v -96 144 44
v -96 144 56
v -104 144 56
v -104 136 36
v -104 116 56
v -96 116 44
v -96 124 36
v -96 136 36
v -104 144 44
v -104 116 44
v -104 124 36
v -98 88 54
v -98 116 54
v -102 116 54
v -102 88 54
v -102 116 46
v -102 88 46
v -98 88 46
v -98 116 46
v -98 117 57
v -98 97 77
v -102 97 77
v -102 117 57
v -102 103 83
v -102 123 63
v -98 103 83
v -98 123 63
v -98 126 64
v -98 126 92
v -102 126 92
v -102 126 64
v -102 134 92
v -102 134 64
v -98 134 92
v -98 134 64
v -98 137 63
v -98 157 83
v -102 157 83
v -102 137 63
v -102 143 57
v -102 163 77
v -98 163 77
v -98 143 57
v -98 144 54
v -98 172 54
v -102 172 54
v -102 144 54
v -102 172 46
v -102 144 46
v -98 144 46
v -98 172 46
v -98 157 17
v -98 137 37
v -102 137 37
v -102 157 17
v -102 143 43
v -102 163 23
v -98 143 43
v -98 163 23
v -98 126 8
v -98 126 36
v -102 126 36
v -102 126 8
v -102 134 36
v -102 134 8
v -98 134 36
v -98 134 8
v -112 122 50
v -112 125 55
v -112 130 58
v -112 135 55
v -112 138 50
v -112 135 45
v -112 130 42
v -112 125 45
v -104 122 42
v -104 118 50
v -104 122 58
v -104 130 62
v -104 138 58
v -104 142 50
v -104 138 42
v -104 130 38
v -88 125 45
v -88 130 42
v -88 135 45
v -88 138 50
v -88 135 55
v -88 130 58
v -88 125 55
v -88 122 50
v -96 118 50
v -96 122 42
v -96 130 38
v -96 138 42
v -96 142 50
v -96 138 58
v -96 130 62
v -96 122 58
v -92 152 0
v -92 148 8
v -92 112 8
v -92 108 0
v -92 88 32
v -92 80 28
v -108 80 28
v -108 108 0
v -108 112 8
v -108 148 8
v -108 152 0
v -108 180 28
v -92 180 28
v -92 172 32
v -108 172 32
v -108 88 32
v -92 88 68
v -92 80 72
v -108 80 72
v -108 88 68
v -92 148 92
v -92 152 100
v -92 108 100
v -92 112 92
v -108 112 92
v -108 108 100
v -108 152 100
v -108 148 92
v -108 180 72
v -108 172 68
v -92 172 68
v -92 180 72
v 102 97 23
v 102 117 43
v 98 117 43
v 98 97 23
v 98 103 17
v 98 123 37
v 102 123 37
v 102 103 17
v 104 124 64
v 104 136 64
v 96 136 64
v 96 124 64
v 104 116 56
v 104 144 44
v 104 144 56
v 96 144 56
v 96 136 36
v 96 116 56
v 104 116 44
v 104 124 36
v 104 136 36
v 96 144 44
v 96 116 44
v 96 124 36
v 102 88 54
v 102 116 54
v 98 116 54
v 98 88 54
v 98 116 46
v 98 88 46
v 102 88 46
v 102 116 46
v 102 117 57
v 102 97 77
v 98 97 77
v 98 117 57
v 98 103 83
v 98 123 63
v 102 103 83
v 102 123 63
v 102 126 64
v 102 126 92
v 98 126 92
v 98 126 64
v 98 134 92
v 98 134 64
v 102 134 92
v 102 134 64
v 102 137 63
v 102 157 83
v 98 157 83
v 98 137 63
v 98 143 57
v 98 163 77
v 102 163 77
v 102 143 57
v 102 144 54
v 102 172 54
v 98 172 54
v 98 144 54
v 98 172 46
v 98 144 46
v 102 144 46
v 102 172 46
v 102 157 17
v 102 137 37
v 98 137 37
v 98 157 17
v 98 143 43
v 98 163 23
v 102 143 43
v 102 163 23
v 102 126 8
v 102 126 36
v 98 126 36
v 98 126 8
v 98 134 36
v 98 134 8
v 102 134 36
v 102 134 8
v 88 122 50
v 88 125 55
v 88 130 58
v 88 135 55
v 88 138 50
v 88 135 45
v 88 130 42
v 88 125 45
v 96 122 42
v 96 118 50
v 96 122 58
v 96 130 62
v 96 138 58
v 96 142 50
v 96 138 42
v 96 130 38
v 112 125 45
v 112 130 42
v 112 135 45
v 112 138 50
v 112 135 55
v 112 130 58
v 112 125 55
v 112 122 50
v 104 118 50
v 104 122 42
v 104 130 38
v 104 138 42
v 104 142 50
v 104 138 58
v 104 130 62
v 104 122 58
v 108 152 0
v 108 148 8
v 108 112 8
v 108 108 0
v 108 88 32
v 108 80 28
v 92 80 28
v 92 108 0
v 92 112 8
v 92 148 8
v 92 152 0
v 92 180 28
v 108 180 28
v 108 172 32
v 92 172 32
v 92 88 32
v 108 88 68
v 108 80 72
v 92 80 72
v 92 88 68
v 108 148 92
v 108 152 100
v 108 108 100
v 108 112 92
v 92 112 92
v 92 108 100
v 92 152 100
v 92 148 92
v 92 180 72
v 92 172 68
v 108 172 68
v 108 180 72
v 88 138 58
v 88 138 42
v 72 138 42
v 72 138 58
v 88 122 58
v 72 122 58
v 88 122 42
v 72 122 42
v -72 138 58
v -72 138 42
v -88 138 42
v -88 138 58
v -72 122 58
v -88 122 58
v -72 122 42
v -88 122 42
v 72 -159 3
v 72 -161 10
v 64 -161 10
v 64 -159 3
v 64 -16 54
v 64 -14 47
v 72 -16 54
v 64 168 110
v 64 182 64
v 64 -2 9
v 72 0 1
v 72 175 113
v -64 168 110
v -64 182 64
v -64 -2 9
v -72 0 1
v -72 -16 54
v -72 192 59
v -72 175 113
v 72 192 59
v 72 -14 47
v -64 -159 3
v -64 -161 10
v -72 -161 10
v -72 -159 3
v -72 -14 47
v -64 -16 54
v -64 -14 47
v 72 -75 28
v 72 -4 16
v 64 -4 16
v 64 -75 28
v 64 -90 24
v 72 -2 9
v 72 -90 24
v -64 -75 28
v -64 -4 16
v -72 -4 16
v -72 -75 28
v -72 -90 24
v -72 -2 9
v -64 -90 24

f 1 2 3
f 1 3 4
f 1 4 5
f 1 5 6
f 1 6 2
f 2 6 7
f 2 7 3
f 4 8 5
f 5 8 6
f 6 8 7
f 9 10 11
f 9 11 12
f 9 12 13
f 9 13 14
f 9 14 10
f 10 14 15
f 10 15 11
f 12 16 13
f 13 16 14
f 14 16 15
f 17 18 19
f 17 19 20
f 17 20 21
f 17 21 22
f 17 22 18
f 18 22 23
f 18 23 19
f 20 24 21
f 21 24 22
f 22 24 23
f 25 26 27
f 25 27 28
f 28 27 29
f 29 27 30
f 29 30 31
f 29 31 32
f 32 31 25
f 25 31 26
f 33 34 35
f 33 35 36
f 33 36 37
f 33 37 38
f 33 38 34
f 34 38 39
f 34 39 40
f 34 40 35
f 35 40 41
f 35 41 36
f 36 41 42
f 36 42 37
f 37 42 43
f 37 43 38
f 38 43 44
f 38 44 45
f 38 45 41
f 38 41 46
f 38 46 39
f 39 46 40
f 40 46 41
f 44 43 47
f 44 47 48
f 48 47 41
f 41 47 42
f 42 47 43
f 49 50 51
f 49 51 52
f 52 51 53
f 52 53 54
f 55 56 50
f 55 50 49
f 57 58 59
f 57 59 60
f 60 59 61
f 60 61 62
f 62 61 63
f 62 63 64
f 64 63 58
f 64 58 57
f 65 66 67
f 65 67 68
f 68 67 69
f 68 69 70
f 70 69 71
f 70 71 72
f 72 71 66
f 72 66 65
f 73 74 75
f 73 75 76
f 76 75 77
f 77 75 78
f 77 78 79
f 77 79 80
f 80 79 73
f 73 79 74
f 81 82 83
f 81 83 84
f 84 83 85
f 84 85 86
f 87 88 82
f 87 82 81
f 89 90 91
f 89 91 92
f 92 91 93
f 92 93 94
f 94 93 95
f 94 95 96
f 96 95 90
f 96 90 89
f 97 98 99
f 97 99 100
f 100 99 101
f 100 101 102
f 102 101 103
f 102 103 104
f 104 103 98
f 104 98 97
f 105 106 107
f 105 107 108
f 105 108 109
f 105 109 110
f 105 110 111
f 105 111 112
f 105 112 113
f 105 113 114
f 105 114 106
f 106 114 115
f 106 115 107
f 107 115 116
f 107 116 108
f 108 116 117
f 108 117 109
f 109 117 118
f 109 118 110
f 110 118 119
f 110 119 111
f 111 119 120
f 111 120 112
f 112 120 113
f 121 122 123
f 121 123 124
f 121 124 125
f 121 125 126
f 121 126 127
f 121 127 128
f 121 128 129
f 121 129 130
f 121 130 122
f 122 130 131
f 122 131 123
f 123 131 132
f 123 132 124
f 124 132 133
f 124 133 125
f 125 133 134
f 125 134 126
f 126 134 135
f 126 135 127
f 127 135 136
f 127 136 128
f 128 136 129
f 137 138 139
f 137 139 140
f 140 139 141
f 140 141 142
f 140 142 143
f 140 143 144
f 144 143 145
f 144 145 146
f 144 146 147
f 147 146 148
f 147 148 149
f 147 149 137
f 137 149 150
f 137 150 138
f 138 150 151
f 138 151 146
f 138 146 139
f 139 146 145
f 139 145 141
f 141 145 152
f 141 152 153
f 141 153 154
f 141 154 142
f 142 154 155
f 142 155 143
f 143 155 156
f 143 156 152
f 143 152 145
f 157 158 159
f 157 159 160
f 160 159 154
f 160 154 153
f 160 153 156
f 160 156 161
f 161 156 162
f 161 162 163
f 161 163 164
f 164 163 165
f 164 165 166
f 164 166 167
f 164 167 157
f 157 167 158
f 158 167 168
f 158 168 165
f 158 165 163
f 158 163 159
f 159 163 162
f 159 162 154
f 154 162 155
f 155 162 156
f 150 149 168
f 150 168 167
f 150 167 166
f 150 166 151
f 151 166 148
f 151 148 146
f 166 165 148
f 148 165 168
f 148 168 149
f 152 156 153
f 169 170 171
f 169 171 172
f 172 171 173
f 173 171 174
f 173 174 175
f 173 175 176
f 176 175 169
f 169 175 170
f 177 178 179
f 177 179 180
f 177 180 181
f 177 181 182
f 177 182 178
f 178 182 183
f 178 183 184
f 178 184 179
f 179 184 185
f 179 185 180
f 180 185 186
f 180 186 181
f 181 186 187
f 181 187 182
f 182 187 188
f 182 188 189
f 182 189 185
f 182 185 190
f 182 190 183
f 183 190 184
f 184 190 185
f 188 187 191
f 188 191 192
f 192 191 185
f 185 191 186
f 186 191 187
f 193 194 195
f 193 195 196
f 196 195 197
f 196 197 198
f 199 200 194
f 199 194 193
f 201 202 203
f 201 203 204
f 204 203 205
f 204 205 206
f 206 205 207
f 206 207 208
f 208 207 202
f 208 202 201
f 209 210 211
f 209 211 212
f 212 211 213
f 212 213 214
f 214 213 215
f 214 215 216
f 216 215 210
f 216 210 209
f 217 218 219
f 217 219 220
f 220 219 221
f 221 219 222
f 221 222 223
f 221 223 224
f 224 223 217
f 217 223 218
f 225 226 227
f 225 227 228
f 228 227 229
f 228 229 230
f 231 232 226
f 231 226 225
f 233 234 235
f 233 235 236
f 236 235 237
f 236 237 238
f 238 237 239
f 238 239 240
f 240 239 234
f 240 234 233
f 241 242 243
f 241 243 244
f 244 243 245
f 244 245 246
f 246 245 247
f 246 247 248
f 248 247 242
f 248 242 241
f 249 250 251
f 249 251 252
f 249 252 253
f 249 253 254
f 249 254 255
f 249 255 256
f 249 256 257
f 249 257 258
f 249 258 250
f 250 258 259
f 250 259 251
f 251 259 260
f 251 260 252
f 252 260 261
f 252 261 253
f 253 261 262
f 253 262 254
f 254 262 263
f 254 263 255
f 255 263 264
f 255 264 256
f 256 264 257
f 265 266 267
f 265 267 268
f 265 268 269
f 265 269 270
f 265 270 271
f 265 271 272
f 265 272 273
f 265 273 274
f 265 274 266
f 266 274 275
f 266 275 267
f 267 275 276
f 267 276 268
f 268 276 277
f 268 277 269
f 269 277 278
f 269 278 270
f 270 278 279
f 270 279 271
f 271 279 280
f 271 280 272
f 272 280 273
f 281 282 283
f 281 283 284
f 284 283 285
f 284 285 286
f 284 286 287
f 284 287 288
f 288 287 289
f 288 289 290
f 288 290 291
f 291 290 292
f 291 292 293
f 291 293 281
f 281 293 294
f 281 294 282
f 282 294 295
f 282 295 290
f 282 290 283
f 283 290 289
f 283 289 285
f 285 289 296
f 285 296 297
f 285 297 298
f 285 298 286
f 286 298 299
f 286 299 287
f 287 299 300
f 287 300 296
f 287 296 289
f 301 302 303
f 301 303 304
f 304 303 298
f 304 298 297
f 304 297 300
f 304 300 305
f 305 300 306
f 305 306 307
f 305 307 308
f 308 307 309
f 308 309 310
f 308 310 311
f 308 311 301
f 301 311 302
f 302 311 312
f 302 312 309
f 302 309 307
f 302 307 303
f 303 307 306
f 303 306 298
f 298 306 299
f 299 306 300
f 294 293 312
f 294 312 311
f 294 311 310
f 294 310 295
f 295 310 292
f 295 292 290
f 310 309 292
f 292 309 312
f 292 312 293
f 296 300 297
f 313 314 315
f 313 315 316
f 313 316 317
f 317 316 318
f 317 318 319
f 319 318 320
f 319 320 314
f 314 320 315
f 321 322 323
f 321 323 324
f 321 324 325
f 325 324 326
f 325 326 327
f 327 326 328
f 327 328 322
f 322 328 323
f 329 330 331
f 329 331 332
f 332 331 333
f 332 333 334
f 331 330 335
f 331 335 333
f 333 335 336
f 333 336 337
f 333 337 338
f 333 338 339
f 333 339 335
f 335 339 340
f 335 340 336
f 336 340 341
f 336 341 342
f 336 342 337
f 337 342 338
f 338 342 343
f 338 343 339
f 339 343 344
f 344 343 345
f 344 345 346
f 346 345 347
f 346 347 348
f 348 347 340
f 348 340 339
f 330 329 349
f 330 349 335
f 350 351 352
f 350 352 353
f 353 352 345
f 353 345 354
f 352 351 355
f 352 355 345
f 345 355 347
f 347 355 341
f 347 341 340
f 351 350 356
f 351 356 355
f 357 358 359
f 357 359 360
f 360 359 361
f 361 359 338
f 361 338 362
f 361 362 363
f 363 362 357
f 357 362 358
f 364 365 366
f 364 366 367
f 367 366 368
f 368 366 369
f 368 369 343
f 368 343 370
f 370 343 364
f 364 343 365
f 343 342 341
f 343 341 355
f 343 355 345
