# RS2 Model 14848
# Vertices: 103
# Faces: 189

v 18 -2 34
v 8 9 36
v 8 10 41
v 19 -2 39
v 8 -14 38
v 8 -11 33
v 18 -2 24
v 10 10 28
v 2 -2 34
v 1 -2 39
v 2 -2 47
v 8 8 47
v 17 -2 46
v 8 -12 46
v 2 -1 23
v 8 -10 24
v 9 -8 15
v 16 -2 14
v 9 8 15
v 3 -2 14
v 9 -7 10
v 15 -2 9
v 8 6 10
v 4 -2 9
v 3 -2 3
v 9 -8 4
v 16 -2 2
v 9 6 3
v 10 -24 -3
v 18 -17 -4
v 17 -16 0
v 9 -22 1
v 3 -21 -4
v 3 -21 -6
v 10 -24 -6
v 18 -17 -6
v 18 -12 -6
v 18 -12 -4
v 17 -13 1
v 9 -15 3
v 3 -20 0
v 3 -14 -4
v 3 -14 -6
v 3 -15 2
v 3 0 -3
v 3 1 -6
v 16 1 -6
v 16 0 -3
v 9 8 -3
v 9 7 -6
v -18 -2 34
v -19 -2 39
v -8 10 41
v -8 9 36
v -10 10 28
v -18 -2 24
v -8 -11 33
v -8 -14 38
v -17 -2 46
v -8 8 47
v -2 -2 47
v -1 -2 39
v -2 -2 34
v -2 -1 23
v -9 8 15
v -16 -2 14
v -9 -8 15
v -8 -10 24
v -8 -12 46
v -3 -2 14
v -8 6 10
v -15 -2 9
v -9 -7 10
v -4 -2 9
v -3 -2 3
v -9 6 3
v -16 -2 2
v -9 -8 4
v -10 -24 -3
v -9 -22 1
v -17 -16 0
v -18 -17 -4
v -18 -17 -6
v -10 -24 -6
v -3 -21 -6
v -3 -21 -4
v -3 -20 0
v -9 -15 3
v -17 -13 1
v -18 -12 -4
v -18 -12 -6
v -3 -14 -6
v -3 -14 -4
v -3 -15 2
v -16 0 -3
v -16 1 -6
v -3 1 -6
v -3 0 -3
v -9 7 -6
v -9 8 -3
v 6 -2 -6
v -6 -2 -6
v 0 6 -6

f 1 2 3
f 1 3 4
f 1 4 5
f 1 5 6
f 1 6 7
f 1 7 8
f 1 8 2
f 2 8 9
f 2 9 3
f 3 9 10
f 3 10 11
f 3 11 12
f 3 12 13
f 3 13 4
f 4 13 5
f 5 13 14
f 5 14 11
f 5 11 10
f 5 10 9
f 5 9 6
f 6 9 15
f 6 15 16
f 6 16 7
f 7 16 17
f 7 17 18
f 7 18 8
f 8 18 19
f 8 19 15
f 8 15 9
f 19 20 15
f 15 20 16
f 16 20 17
f 17 20 21
f 17 21 18
f 18 21 22
f 18 22 23
f 18 23 19
f 19 23 20
f 20 23 24
f 20 24 21
f 21 24 25
f 21 25 26
f 21 26 27
f 21 27 22
f 22 27 23
f 23 27 28
f 23 28 25
f 23 25 24
f 29 30 31
f 29 31 32
f 29 32 33
f 29 33 34
f 29 34 35
f 29 35 36
f 29 36 30
f 30 36 37
f 30 37 38
f 30 38 31
f 31 38 39
f 31 39 40
f 31 40 32
f 32 40 41
f 32 41 33
f 33 41 42
f 33 42 43
f 33 43 34
f 34 43 35
f 35 43 37
f 35 37 36
f 41 40 44
f 41 44 42
f 42 44 25
f 42 25 45
f 42 45 43
f 43 45 46
f 43 46 47
f 43 47 37
f 37 47 48
f 37 48 38
f 38 48 27
f 38 27 39
f 39 27 26
f 39 26 40
f 40 26 44
f 44 26 25
f 46 45 49
f 46 49 50
f 46 50 47
f 47 50 49
f 47 49 48
f 48 49 27
f 27 49 28
f 28 49 45
f 28 45 25
f 51 52 53
f 51 53 54
f 51 54 55
f 51 55 56
f 51 56 57
f 51 57 58
f 51 58 52
f 52 58 59
f 52 59 53
f 53 59 60
f 53 60 61
f 53 61 62
f 53 62 63
f 53 63 54
f 54 63 55
f 55 63 64
f 55 64 65
f 55 65 66
f 55 66 56
f 56 66 67
f 56 67 68
f 56 68 57
f 57 68 64
f 57 64 63
f 57 63 58
f 58 63 62
f 58 62 61
f 58 61 69
f 58 69 59
f 65 64 70
f 65 70 71
f 65 71 66
f 66 71 72
f 66 72 73
f 66 73 67
f 67 73 70
f 67 70 68
f 68 70 64
f 71 70 74
f 71 74 75
f 71 75 76
f 71 76 77
f 71 77 72
f 72 77 73
f 73 77 78
f 73 78 75
f 73 75 74
f 73 74 70
f 79 80 81
f 79 81 82
f 79 82 83
f 79 83 84
f 79 84 85
f 79 85 86
f 79 86 80
f 80 86 87
f 80 87 88
f 80 88 81
f 81 88 89
f 81 89 90
f 81 90 82
f 82 90 91
f 82 91 83
f 83 91 84
f 84 91 92
f 84 92 85
f 85 92 86
f 86 92 93
f 86 93 87
f 87 93 94
f 87 94 88
f 88 94 78
f 88 78 89
f 89 78 77
f 89 77 90
f 90 77 95
f 90 95 91
f 91 95 96
f 91 96 92
f 92 96 97
f 92 97 98
f 92 98 93
f 93 98 75
f 93 75 94
f 94 75 78
f 97 99 100
f 97 100 98
f 98 100 76
f 98 76 75
f 100 99 96
f 100 96 95
f 100 95 77
f 100 77 76
f 96 99 97
f 101 102 103
