# RS2 Model 14913
# Vertices: 112
# Faces: 117

v 26 -21 162
v -26 -21 161
v 27 -22 116
v 8 -27 102
v 16 -27 102
v 16 -31 106
v 8 -31 106
v 4 -27 106
v 8 -27 110
v 16 -27 110
v 25 -27 106
v 25 -23 108
v 30 -17 106
v 25 -23 104
v -20 -25 152
v -22 -21 152
v -17 -21 124
v -15 -25 125
v -18 -21 153
v -16 -19 157
v -21 -28 156
v -26 -19 155
v -22 -22 161
v -13 -21 125
v -14 -28 120
v -9 -19 121
v -14 -22 115
v -19 -19 119
v 21 -25 153
v 19 -21 154
v 14 -21 126
v 16 -25 126
v 23 -21 153
v 27 -19 156
v 22 -28 157
v 17 -19 158
v 23 -22 162
v 18 -21 125
v 15 -28 121
v 20 -19 120
v 15 -22 116
v 10 -19 122
v -18 35 127
v -20 31 127
v -20 26 154
v -18 30 155
v -16 31 127
v -13 30 121
v -18 39 123
v -23 30 121
v -19 34 117
v -16 26 154
v -18 32 159
v -13 23 158
v -18 26 163
v -23 23 158
v 18 35 128
v 16 31 128
v 16 26 155
v 18 30 156
v 20 31 128
v 23 30 122
v 18 39 124
v 13 30 122
v 19 33 118
v 20 26 155
v 18 32 160
v 23 23 159
v 18 25 164
v 13 23 159
v 10 -31 89
v 18 -31 89
v 18 -35 93
v 10 -35 93
v 6 -31 93
v 10 -31 97
v 18 -31 97
v 27 -31 93
v 27 -27 95
v 32 -21 93
v 27 -27 91
v -8 -31 106
v -16 -31 106
v -16 -27 102
v -8 -27 102
v -4 -27 106
v -8 -27 110
v -16 -27 110
v -25 -23 108
v -25 -27 106
v -25 -23 104
v -30 -17 106
v -10 -35 93
v -18 -35 93
v -18 -31 89
v -10 -31 89
v -6 -31 93
v -10 -31 97
v -18 -31 97
v -27 -27 95
v -27 -31 93
v -27 -27 91
v -32 -21 93
v -23 23 163
v 22 23 163
v -22 35 117
v 27 -26 123
v -31 -26 121
v 29 -26 102
v 30 -30 106
v -32 -30 105
v 31 -30 89

f 1 2 3
f 4 5 6
f 4 6 7
f 4 7 8
f 8 7 9
f 9 7 10
f 10 7 6
f 10 6 11
f 10 11 12
f 12 11 13
f 13 11 14
f 14 11 6
f 14 6 5
f 15 16 17
f 15 17 18
f 15 18 19
f 15 19 20
f 15 20 21
f 15 21 16
f 16 21 22
f 22 21 23
f 22 23 20
f 20 23 21
f 19 18 24
f 24 18 25
f 24 25 26
f 26 25 27
f 27 25 28
f 28 25 18
f 28 18 17
f 29 30 31
f 29 31 32
f 29 32 33
f 29 33 34
f 29 34 35
f 29 35 30
f 30 35 36
f 36 35 37
f 36 37 34
f 34 37 35
f 33 32 38
f 38 32 39
f 38 39 40
f 40 39 41
f 41 39 42
f 42 39 32
f 42 32 31
f 43 44 45
f 43 45 46
f 43 46 47
f 43 47 48
f 43 48 49
f 43 49 44
f 44 49 50
f 50 49 51
f 51 49 48
f 47 46 52
f 52 46 53
f 52 53 54
f 54 53 55
f 54 55 56
f 56 55 53
f 56 53 46
f 56 46 45
f 57 58 59
f 57 59 60
f 57 60 61
f 57 61 62
f 57 62 63
f 57 63 58
f 58 63 64
f 64 63 65
f 65 63 62
f 61 60 66
f 66 60 67
f 66 67 68
f 68 67 69
f 68 69 70
f 70 69 67
f 70 67 60
f 70 60 59
f 71 72 73
f 71 73 74
f 71 74 75
f 75 74 76
f 76 74 77
f 77 74 73
f 77 73 78
f 77 78 79
f 79 78 80
f 80 78 81
f 81 78 73
f 81 73 72
f 82 83 84
f 82 84 85
f 82 85 86
f 82 86 87
f 82 87 83
f 83 87 88
f 83 88 89
f 83 89 90
f 83 90 84
f 84 90 91
f 91 90 92
f 92 90 89
f 93 94 95
f 93 95 96
f 93 96 97
f 93 97 98
f 93 98 94
f 94 98 99
f 94 99 100
f 94 100 101
f 94 101 95
f 95 101 102
f 102 101 103
f 103 101 100
