# RS2 Model 14929
# Vertices: 136
# Faces: 236

v -8 -14 81
v -10 -10 81
v -10 -10 11
v -8 -14 12
v -14 -14 17
v -14 -14 76
v -50 -56 81
v -50 -50 76
v -50 -56 12
v -54 -54 81
v -54 -54 11
v -64 -64 94
v -54 -54 107
v -10 -10 107
v 6 6 107
v 6 6 81
v 6 6 11
v -1 -1 0
v -64 -64 0
v -50 -50 17
v 52 46 81
v 50 50 81
v 50 50 11
v 52 46 12
v 47 46 17
v 47 46 76
v 10 4 81
v 11 10 76
v 10 4 12
v 64 63 0
v 52 46 229
v 50 50 229
v 50 50 107
v 52 46 108
v 47 46 114
v 47 46 223
v 10 4 229
v 11 10 223
v 10 4 108
v 6 6 229
v -10 -10 229
v -1 -1 240
v 64 63 240
v 64 63 94
v 11 10 114
v -8 -14 229
v -8 -14 108
v -14 -14 114
v -14 -14 223
v -50 -56 229
v -50 -50 223
v -50 -56 108
v -54 -54 229
v -64 -64 240
v -41 -64 240
v 11 -12 240
v 64 41 240
v 64 41 94
v 64 41 0
v -50 -50 114
v 11 10 17
v 1 -21 229
v 16 -7 229
v 61 38 229
v 61 38 107
v 61 38 81
v 61 38 11
v 16 -7 11
v 11 -12 0
v 1 -21 11
v -41 -64 0
v -37 -60 11
v -41 -64 94
v -37 -60 229
v 1 -21 107
v 16 -7 107
v 15 -2 229
v 15 -2 108
v 21 -2 114
v 21 -2 223
v 57 39 229
v 57 34 223
v 57 39 108
v 16 -7 81
v 1 -21 81
v -2 -19 12
v -42 -59 12
v -42 -59 81
v -37 -60 81
v -37 -60 107
v 15 -2 81
v 15 -2 12
v 21 -2 17
v 21 -2 76
v 57 39 81
v 57 34 76
v 57 39 12
v -52 -45 94
v -54 -50 94
v -47 -43 101
v -48 -41 98
v -48 -41 90
v -47 -43 87
v -45 -45 90
v -49 -49 94
v -45 -45 98
v -40 -36 94
v -45 -38 94
v -41 -41 94
v -23 -53 94
v -21 -48 94
v -28 -55 101
v -27 -57 98
v -27 -57 90
v -28 -55 87
v -30 -53 90
v -27 -50 94
v -30 -53 98
v -35 -62 94
v -31 -61 94
v -35 -57 94
v -42 -59 229
v -42 -59 108
v -35 -58 114
v -35 -58 223
v -2 -19 229
v -2 -25 223
v -2 -19 108
v -2 -19 81
v -2 -25 76
v -2 -25 17
v -35 -58 17
v -35 -58 76
v -2 -25 114
v 57 34 114
v 57 34 17

f 1 2 3
f 1 3 4
f 1 4 5
f 1 5 6
f 1 6 7
f 7 6 8
f 7 8 9
f 7 9 10
f 10 9 11
f 10 11 12
f 10 12 13
f 10 13 2
f 2 13 14
f 2 14 15
f 2 15 16
f 2 16 17
f 2 17 3
f 3 17 18
f 3 18 19
f 3 19 11
f 3 11 4
f 4 11 9
f 4 9 20
f 4 20 5
f 5 20 6
f 6 20 8
f 8 20 9
f 21 22 23
f 21 23 24
f 21 24 25
f 21 25 26
f 21 26 27
f 27 26 28
f 27 28 29
f 27 29 16
f 16 29 17
f 17 29 24
f 17 24 23
f 17 23 30
f 17 30 18
f 31 32 33
f 31 33 34
f 31 34 35
f 31 35 36
f 31 36 37
f 37 36 38
f 37 38 39
f 37 39 40
f 40 39 15
f 40 15 14
f 40 14 41
f 40 41 42
f 40 42 43
f 40 43 32
f 32 43 44
f 32 44 33
f 33 44 22
f 33 22 16
f 33 16 15
f 33 15 34
f 34 15 39
f 34 39 45
f 34 45 35
f 35 45 36
f 36 45 38
f 38 45 39
f 46 41 14
f 46 14 47
f 46 47 48
f 46 48 49
f 46 49 50
f 50 49 51
f 50 51 52
f 50 52 53
f 53 52 13
f 53 13 12
f 53 12 54
f 53 54 41
f 41 54 42
f 42 54 55
f 42 55 56
f 42 56 43
f 43 56 57
f 43 57 58
f 43 58 44
f 44 58 59
f 44 59 30
f 44 30 23
f 44 23 22
f 47 14 13
f 47 13 52
f 47 52 60
f 47 60 48
f 48 60 49
f 49 60 51
f 51 60 52
f 61 28 26
f 61 26 25
f 61 25 24
f 61 24 29
f 61 29 28
f 56 62 63
f 56 63 57
f 57 63 64
f 57 64 58
f 58 64 65
f 58 65 66
f 58 66 67
f 58 67 59
f 59 67 68
f 59 68 69
f 69 68 70
f 69 70 71
f 71 70 72
f 71 72 73
f 71 73 12
f 71 12 19
f 19 12 11
f 55 74 62
f 55 62 56
f 62 75 76
f 62 76 63
f 63 76 77
f 77 76 78
f 77 78 79
f 77 79 80
f 77 80 81
f 81 80 82
f 81 82 83
f 81 83 64
f 64 83 65
f 65 83 78
f 65 78 76
f 65 76 84
f 65 84 66
f 75 85 84
f 75 84 76
f 70 68 84
f 70 84 85
f 70 85 86
f 70 86 87
f 70 87 72
f 72 87 88
f 72 88 89
f 72 89 73
f 73 89 90
f 73 90 74
f 73 74 55
f 73 55 54
f 73 54 12
f 85 75 90
f 85 90 89
f 91 84 68
f 91 68 92
f 91 92 93
f 91 93 94
f 91 94 95
f 95 94 96
f 95 96 97
f 95 97 66
f 66 97 67
f 67 97 92
f 67 92 68
f 98 99 100
f 98 100 101
f 98 101 102
f 98 102 99
f 99 102 103
f 99 103 104
f 99 104 105
f 99 105 100
f 100 105 106
f 100 106 107
f 100 107 101
f 101 107 108
f 101 108 102
f 102 108 103
f 103 108 107
f 103 107 109
f 103 109 104
f 107 106 109
f 110 111 112
f 110 112 113
f 110 113 114
f 110 114 111
f 111 114 115
f 111 115 116
f 111 116 117
f 111 117 112
f 112 117 118
f 112 118 119
f 112 119 113
f 113 119 120
f 113 120 114
f 114 120 115
f 115 120 119
f 115 119 121
f 115 121 116
f 119 118 121
f 122 74 90
f 122 90 123
f 122 123 124
f 122 124 125
f 122 125 126
f 126 125 127
f 126 127 128
f 126 128 62
f 62 128 75
f 75 128 123
f 75 123 90
f 85 129 86
f 86 129 130
f 86 130 131
f 86 131 87
f 87 131 132
f 87 132 88
f 88 132 133
f 88 133 129
f 129 133 130
f 130 133 131
f 131 133 132
f 134 127 125
f 134 125 124
f 134 124 123
f 134 123 128
f 134 128 127
f 135 82 80
f 135 80 79
f 135 79 78
f 135 78 83
f 135 83 82
f 136 96 94
f 136 94 93
f 136 93 92
f 136 92 97
f 136 97 96
