# RS2 Model 14936
# Vertices: 147
# Faces: 264

v 74 20 0
v 66 42 0
v 64 41 4
v 71 20 4
v 77 0 0
v 79 0 12
v 75 21 12
v 67 43 12
v 48 60 0
v 47 58 4
v 35 58 8
v 62 28 8
v 75 0 4
v 73 -20 0
v 75 -20 12
v 79 -21 12
v 83 0 12
v 79 22 12
v 71 45 12
v 49 62 12
v 30 70 0
v 30 68 4
v 0 69 8
v 0 51 6
v 25 42 6
v 45 20 6
v 67 -9 8
v 71 -20 4
v 66 -42 0
v 67 -43 12
v 71 -45 12
v 81 -51 0
v 91 -25 0
v 95 0 0
v 91 25 0
v 81 51 0
v 52 65 12
v 31 72 12
v 8 77 0
v 9 75 4
v -9 75 4
v -35 58 8
v -25 42 6
v -7 30 5
v 7 30 5
v 23 20 5
v 31 4 5
v 49 -6 6
v 51 -46 8
v 64 -41 4
v 48 -60 0
v 49 -62 12
v 52 -65 12
v 59 -74 0
v -9 77 0
v -31 70 0
v -30 68 4
v -47 58 4
v -62 28 8
v -45 20 6
v -23 20 5
v 0 0 5
v 28 -12 5
v 37 -33 6
v 17 -66 8
v 30 -68 4
v 47 -58 4
v 30 -70 0
v 31 -72 12
v 32 -76 12
v 36 -87 0
v -48 60 0
v -66 42 0
v -64 41 4
v -71 20 4
v -67 -9 8
v -49 -6 6
v -31 4 5
v -28 -12 5
v -15 -26 5
v 0 -32 5
v 15 -26 5
v 12 -48 6
v -17 -66 8
v -9 -75 4
v 9 -75 4
v 8 -77 0
v -73 20 0
v -78 0 0
v -75 0 4
v -71 -20 4
v -51 -46 8
v -37 -33 6
v -73 -20 0
v -66 -42 0
v -64 -41 4
v -47 -58 4
v -12 -48 6
v -48 -60 0
v -31 -70 0
v -30 -68 4
v -9 -77 0
v -10 -80 12
v 8 -80 12
v 8 -84 12
v 9 -96 0
v 8 80 12
v -10 80 12
v -33 72 12
v -51 62 12
v -69 43 12
v -77 21 12
v -81 0 12
v -77 -21 12
v -69 -43 12
v -51 -62 12
v -33 -72 12
v -34 -76 12
v -10 -84 12
v -11 -96 0
v 32 76 12
v 8 84 12
v -10 84 12
v -34 76 12
v -54 65 12
v -73 45 12
v -81 22 12
v -85 0 12
v -81 -22 12
v -73 -45 12
v -54 -65 12
v -61 -74 0
v -38 -87 0
v 59 74 0
v 36 87 0
v 9 96 0
v -11 96 0
v -38 87 0
v -61 74 0
v -83 51 0
v -93 25 0
v -97 0 0
v -93 -25 0
v -83 -51 0
v 73 -19 5
v 21 73 5
v -22 -73 5

f 1 2 3
f 1 3 4
f 1 4 5
f 1 5 6
f 1 6 7
f 1 7 2
f 2 7 8
f 2 8 9
f 2 9 10
f 2 10 3
f 3 10 11
f 3 11 12
f 3 12 4
f 4 12 13
f 4 13 5
f 5 13 14
f 5 14 15
f 5 15 6
f 6 15 16
f 6 16 17
f 6 17 7
f 7 17 18
f 7 18 8
f 8 18 19
f 8 19 20
f 8 20 9
f 9 20 21
f 9 21 22
f 9 22 10
f 10 22 11
f 11 22 23
f 11 23 24
f 11 24 25
f 11 25 12
f 12 25 26
f 12 26 27
f 12 27 13
f 13 27 28
f 13 28 14
f 14 28 29
f 14 29 30
f 14 30 15
f 15 30 31
f 15 31 16
f 16 31 32
f 16 32 33
f 16 33 17
f 17 33 34
f 17 34 18
f 18 34 35
f 18 35 19
f 19 35 36
f 19 36 37
f 19 37 20
f 20 37 38
f 20 38 21
f 21 38 39
f 21 39 40
f 21 40 22
f 22 40 23
f 23 40 41
f 23 41 42
f 23 42 43
f 23 43 24
f 24 43 44
f 24 44 45
f 24 45 25
f 25 45 46
f 25 46 26
f 26 46 47
f 26 47 48
f 26 48 27
f 27 48 49
f 27 49 50
f 27 50 28
f 28 50 29
f 29 50 51
f 29 51 52
f 29 52 30
f 30 52 53
f 30 53 31
f 31 53 54
f 31 54 32
f 39 55 41
f 39 41 40
f 55 56 57
f 55 57 41
f 41 57 42
f 42 57 58
f 42 58 59
f 42 59 60
f 42 60 43
f 43 60 61
f 43 61 44
f 44 61 62
f 44 62 45
f 45 62 46
f 46 62 47
f 47 62 63
f 47 63 48
f 48 63 64
f 48 64 49
f 49 64 65
f 49 65 66
f 49 66 67
f 49 67 50
f 50 67 51
f 51 67 68
f 51 68 69
f 51 69 52
f 52 69 70
f 52 70 53
f 53 70 71
f 53 71 54
f 56 72 58
f 56 58 57
f 72 73 74
f 72 74 58
f 58 74 59
f 59 74 75
f 59 75 76
f 59 76 77
f 59 77 60
f 60 77 78
f 60 78 61
f 61 78 62
f 62 78 79
f 62 79 80
f 62 80 81
f 62 81 82
f 62 82 63
f 63 82 64
f 64 82 83
f 64 83 65
f 65 83 84
f 65 84 85
f 65 85 86
f 65 86 66
f 66 86 87
f 66 87 68
f 66 68 67
f 73 88 75
f 73 75 74
f 88 89 90
f 88 90 75
f 75 90 76
f 76 90 91
f 76 91 92
f 76 92 93
f 76 93 77
f 77 93 79
f 77 79 78
f 89 94 91
f 89 91 90
f 94 95 96
f 94 96 91
f 91 96 92
f 92 96 97
f 92 97 84
f 92 84 98
f 92 98 93
f 93 98 80
f 93 80 79
f 95 99 97
f 95 97 96
f 99 100 101
f 99 101 97
f 97 101 84
f 84 101 85
f 85 101 100
f 85 100 102
f 85 102 86
f 86 102 87
f 87 102 103
f 87 103 104
f 87 104 68
f 68 104 69
f 69 104 105
f 69 105 70
f 70 105 106
f 70 106 71
f 84 83 98
f 98 83 81
f 98 81 80
f 83 82 81
f 38 107 39
f 39 107 55
f 55 107 108
f 55 108 56
f 56 108 109
f 56 109 72
f 72 109 110
f 72 110 73
f 73 110 111
f 73 111 88
f 88 111 112
f 88 112 89
f 89 112 113
f 89 113 94
f 94 113 114
f 94 114 95
f 95 114 115
f 95 115 99
f 99 115 116
f 99 116 100
f 100 116 117
f 100 117 102
f 102 117 103
f 103 117 118
f 103 118 119
f 103 119 104
f 104 119 105
f 105 119 120
f 105 120 106
f 37 121 38
f 38 121 107
f 107 121 122
f 107 122 108
f 108 122 123
f 108 123 109
f 109 123 124
f 109 124 110
f 110 124 125
f 110 125 111
f 111 125 126
f 111 126 112
f 112 126 127
f 112 127 113
f 113 127 128
f 113 128 114
f 114 128 129
f 114 129 115
f 115 129 130
f 115 130 116
f 116 130 131
f 116 131 117
f 117 131 118
f 118 131 132
f 118 132 133
f 118 133 119
f 119 133 120
f 36 134 37
f 37 134 121
f 121 134 135
f 121 135 122
f 122 135 136
f 122 136 123
f 123 136 137
f 123 137 124
f 124 137 138
f 124 138 125
f 125 138 139
f 125 139 126
f 126 139 140
f 126 140 127
f 127 140 141
f 127 141 128
f 128 141 142
f 128 142 129
f 129 142 143
f 129 143 130
f 130 143 144
f 130 144 131
f 131 144 132
