# RS2 Model 14980
# Vertices: 204
# Faces: 272

v -55 61 23
v -55 61 29
v -59 58 29
v -59 59 23
v -63 61 29
v -63 61 23
v -65 64 29
v -65 64 23
v -53 64 23
v -53 64 29
v -59 57 58
v -59 55 66
v -63 61 66
v -63 61 58
v -67 64 66
v -67 64 58
v -55 61 58
v -55 61 66
v -53 64 58
v -53 64 66
v -65 -62 23
v -65 -63 29
v -59 -51 29
v -59 -52 23
v -55 -52 29
v -55 -51 23
v -53 -54 29
v -54 -53 23
v -59 -50 59
v -59 -49 67
v -56 -52 67
v -56 -52 59
v -54 -53 67
v -54 -53 59
v -64 -61 59
v -64 -61 67
v -59 -9 29
v -59 -6 23
v -52 -1 23
v -52 -1 29
v -52 1 23
v -52 1 29
v -59 6 23
v -59 9 29
v -66 1 23
v -66 1 29
v -66 -1 23
v -66 -1 29
v -64 -3 91
v -64 3 91
v -64 3 68
v -64 -3 68
v -59 -6 87
v -59 -6 68
v -54 -3 91
v -54 -3 68
v -54 3 91
v -54 3 68
v -59 6 87
v -59 6 68
v -59 5 60
v -63 2 60
v -63 -2 60
v -59 -5 60
v -55 -2 60
v -55 2 60
v -54 3 32
v -59 6 32
v -64 3 32
v -64 -3 32
v -59 -6 32
v -54 -3 32
v -55 -2 24
v -55 2 24
v -59 5 24
v -63 2 24
v -63 -2 24
v -59 -5 24
v -59 -6 0
v -54 -3 0
v -54 3 0
v -59 6 0
v -64 3 0
v -64 -3 0
v -63 -61 91
v -63 -61 97
v -63 -27 96
v -63 -27 92
v -59 -51 87
v -59 -27 88
v -55 -52 91
v -55 -27 92
v -55 -52 97
v -55 -27 96
v -59 -51 101
v -59 -27 100
v -59 -17 101
v -64 -17 97
v -64 -17 91
v -59 -17 87
v -54 -17 91
v -54 -17 97
v -54 17 97
v -59 17 101
v -64 17 97
v -64 17 91
v -59 17 87
v -54 17 91
v -55 27 92
v -55 27 96
v -59 27 99
v -63 27 96
v -63 27 92
v -59 27 89
v -59 58 87
v -55 61 91
v -55 61 97
v -59 58 101
v -63 61 97
v -63 61 91
v -59 -5 23
v -59 -52 59
v -59 -51 65
v -59 -6 29
v -59 -6 65
v -59 -5 59
v -62 -62 23
v -62 -62 29
v -63 -61 29
v -63 -61 23
v -59 5 23
v -59 59 59
v -59 58 65
v -59 6 29
v -59 6 65
v -59 5 59
v -59 -51 104
v -63 -61 104
v -55 -52 104
v -55 -52 67
v -59 -51 67
v -63 -61 67
v -62 -62 104
v -54 -54 104
v -54 -54 67
v -55 -54 59
v -56 -53 59
v -62 -62 59
v -62 -62 67
v -63 -61 31
v -62 -62 31
v -59 -51 31
v -59 -51 0
v -63 -61 0
v -62 -62 0
v -55 -54 23
v -56 -53 23
v -55 -52 31
v -54 -54 31
v -55 -52 0
v -54 -54 0
v -55 61 104
v -63 61 104
v -59 58 104
v -59 58 67
v -55 61 67
v -54 64 104
v -64 64 104
v -64 64 67
v -63 61 67
v -62 62 59
v -56 62 59
v -54 64 67
v -64 64 59
v -64 64 31
v -63 61 31
v -59 58 31
v -55 61 31
v -54 64 59
v -64 64 23
v -62 62 23
v -56 62 23
v -54 64 31
v -64 64 0
v -63 61 0
v -59 58 0
v -55 61 0
v -54 64 23
v -54 64 0
v -59 -7 65
v -59 -6 59
v -54 -2 59
v -53 -3 65
v -54 2 59
v -54 2 65
v -59 6 59
v -59 7 65
v -64 2 59
v -65 3 65
v -64 -2 59
v -65 -3 65
v -64 -60 104
v -53 -60 104
v -63 65 104

f 1 2 3
f 1 3 4
f 4 3 5
f 4 5 6
f 6 5 7
f 6 7 8
f 9 10 2
f 9 2 1
f 11 12 13
f 11 13 14
f 14 13 15
f 14 15 16
f 12 11 17
f 12 17 18
f 18 17 19
f 18 19 20
f 21 22 23
f 21 23 24
f 24 23 25
f 24 25 26
f 26 25 27
f 26 27 28
f 29 30 31
f 29 31 32
f 32 31 33
f 32 33 34
f 30 29 35
f 30 35 36
f 37 38 39
f 37 39 40
f 40 39 41
f 40 41 42
f 42 41 43
f 42 43 44
f 44 43 45
f 44 45 46
f 46 45 47
f 46 47 48
f 48 47 38
f 48 38 37
f 49 50 51
f 49 51 52
f 49 52 53
f 53 52 54
f 53 54 55
f 55 54 56
f 55 56 57
f 57 56 58
f 57 58 59
f 59 58 60
f 59 60 50
f 50 60 51
f 51 60 61
f 51 61 62
f 51 62 52
f 52 62 63
f 52 63 54
f 54 63 64
f 54 64 56
f 56 64 65
f 56 65 58
f 58 65 66
f 58 66 60
f 60 66 61
f 61 66 67
f 61 67 68
f 61 68 62
f 62 68 69
f 62 69 63
f 63 69 70
f 63 70 64
f 64 70 71
f 64 71 65
f 65 71 72
f 65 72 66
f 66 72 67
f 67 72 73
f 67 73 74
f 67 74 68
f 68 74 75
f 68 75 69
f 69 75 76
f 69 76 70
f 70 76 77
f 70 77 71
f 71 77 78
f 71 78 72
f 72 78 73
f 73 78 79
f 73 79 80
f 73 80 74
f 74 80 81
f 74 81 75
f 75 81 82
f 75 82 76
f 76 82 83
f 76 83 77
f 77 83 84
f 77 84 78
f 78 84 79
f 85 86 87
f 85 87 88
f 85 88 89
f 89 88 90
f 89 90 91
f 91 90 92
f 91 92 93
f 93 92 94
f 93 94 95
f 95 94 96
f 95 96 86
f 86 96 87
f 87 96 97
f 87 97 98
f 87 98 88
f 88 98 99
f 88 99 90
f 90 99 100
f 90 100 92
f 92 100 101
f 92 101 94
f 94 101 102
f 94 102 96
f 96 102 97
f 97 102 103
f 97 103 104
f 97 104 98
f 98 104 105
f 98 105 99
f 99 105 106
f 99 106 100
f 100 106 107
f 100 107 101
f 101 107 108
f 101 108 102
f 102 108 103
f 103 108 109
f 103 109 110
f 103 110 104
f 104 110 111
f 104 111 105
f 105 111 112
f 105 112 106
f 106 112 113
f 106 113 107
f 107 113 114
f 107 114 108
f 108 114 109
f 109 114 115
f 109 115 116
f 109 116 110
f 110 116 117
f 110 117 111
f 111 117 118
f 111 118 112
f 112 118 119
f 112 119 113
f 113 119 120
f 113 120 114
f 114 120 115
f 121 122 123
f 121 123 124
f 121 124 122
f 122 124 123
f 23 125 126
f 23 126 24
f 23 24 125
f 125 24 126
f 127 128 129
f 127 129 130
f 131 132 133
f 131 133 134
f 131 134 132
f 132 134 133
f 3 135 136
f 3 136 4
f 3 4 135
f 135 4 136
f 137 138 139
f 137 139 140
f 137 140 141
f 137 141 138
f 138 141 142
f 138 142 143
f 138 143 139
f 139 143 144
f 139 144 145
f 139 145 140
f 140 145 146
f 140 146 147
f 140 147 141
f 141 147 122
f 141 122 142
f 142 122 148
f 142 148 149
f 142 149 143
f 150 127 151
f 150 151 148
f 150 148 152
f 150 152 24
f 150 24 127
f 127 24 153
f 127 153 154
f 127 154 155
f 156 157 158
f 156 158 159
f 159 158 147
f 159 147 146
f 152 158 157
f 152 157 24
f 24 157 160
f 24 160 153
f 161 160 157
f 161 157 156
f 122 147 158
f 122 158 152
f 122 152 148
f 162 163 164
f 162 164 165
f 162 165 166
f 162 166 167
f 162 167 163
f 163 167 168
f 163 168 169
f 163 169 170
f 163 170 164
f 164 170 165
f 165 170 171
f 165 171 132
f 165 132 166
f 166 132 172
f 166 172 173
f 166 173 167
f 170 169 174
f 170 174 171
f 171 174 175
f 171 175 176
f 171 176 132
f 132 176 177
f 132 177 172
f 172 177 178
f 172 178 179
f 172 179 173
f 176 175 180
f 176 180 181
f 176 181 177
f 177 181 4
f 177 4 178
f 178 4 182
f 178 182 183
f 178 183 179
f 181 180 184
f 181 184 185
f 181 185 4
f 4 185 186
f 4 186 182
f 182 186 187
f 182 187 188
f 182 188 183
f 187 189 188
f 190 191 192
f 190 192 193
f 193 192 194
f 193 194 195
f 195 194 196
f 195 196 197
f 197 196 198
f 197 198 199
f 199 198 200
f 199 200 201
f 201 200 191
f 201 191 190
