# RS2 Model 14984
# Vertices: 238
# Faces: 436

v 19 -50 66
v 19 -49 76
v 9 -51 79
v -1 -53 66
v 9 -51 57
v 7 -44 57
v 18 -43 66
v 17 -41 74
v 7 -43 78
v -1 -52 76
v -2 -47 66
v -51 -53 64
v -40 -50 55
v -46 -46 0
v -35 -44 8
v -34 -40 10
v -38 -44 54
v 6 -34 9
v 6 -38 56
v 45 -26 10
v 50 -28 54
v 48 -30 8
v 54 -33 55
v 65 -33 64
v 58 -34 72
v 6 -36 74
v 7 -43 74
v -3 -45 74
v -43 -52 72
v -49 -53 72
v -66 33 64
v -64 24 56
v -52 -44 56
v -47 -37 8
v -59 27 0
v -57 18 8
v -55 34 55
v -48 29 8
v -7 40 0
v -7 40 7
v 35 43 8
v 46 45 0
v 40 50 55
v 50 53 64
v 52 44 56
v 47 36 8
v 58 -28 0
v 57 -19 8
v 7 -39 0
v 7 -39 7
v 63 -33 72
v 49 51 72
v 57 -20 72
v 58 -27 72
v 45 -27 72
v 44 -22 72
v 5 -29 73
v -34 -41 72
v 43 50 72
v 64 -24 56
v 46 45 72
v 47 36 72
v 45 36 72
v 55 -20 72
v 56 -13 79
v 57 -23 74
v 46 -25 74
v 43 -15 79
v 3 -21 77
v -35 -36 72
v -35 -39 74
v -46 -41 74
v -46 -45 72
v -47 -38 72
v -64 31 72
v -58 32 72
v -43 38 64
v -41 37 55
v -44 44 64
v -42 43 55
v -28 46 56
v -27 48 65
v -26 42 65
v -27 41 56
v -8 46 57
v -8 47 66
v 10 48 65
v 11 47 56
v 9 54 65
v 10 53 56
v 26 56 64
v 25 55 55
v 27 50 64
v 26 49 55
v 26 48 72
v 33 40 72
v 46 40 74
v 48 30 79
v 46 30 79
v 54 -13 79
v 55 -8 87
v 55 -15 82
v 44 -17 82
v 42 -10 87
v 3 -16 85
v -36 -29 79
v -36 -31 82
v -47 -33 82
v -49 -31 79
v -8 45 74
v 12 46 73
v 11 52 73
v 25 54 72
v -7 37 74
v 52 -17 11
v 57 -21 54
v 47 39 54
v 44 33 11
v 34 39 10
v 38 44 54
v -6 35 9
v -7 40 56
v -45 25 10
v -51 28 54
v 39 10 96
v -1 3 94
v 0 -3 94
v 40 3 96
v 41 3 100
v 40 11 100
v 38 15 95
v -2 7 93
v -40 -3 96
v -39 -11 96
v -38 -16 95
v 1 -8 93
v 41 -2 95
v 42 -4 98
v 53 -2 98
v 52 5 100
v 50 12 100
v 38 17 98
v 37 20 91
v -2 12 89
v -41 1 95
v -42 3 98
v -41 -4 100
v -40 -12 100
v -39 -18 98
v -37 -21 91
v 2 -13 89
v 42 -7 91
v 43 -9 94
v 54 -7 94
v 54 0 95
v 53 5 96
v 51 13 96
v 49 19 98
v 37 22 94
v 36 23 87
v -3 15 85
v -42 6 91
v -43 8 94
v -54 6 94
v -53 1 98
v -52 -6 100
v -51 -13 100
v -49 -20 98
v -38 -23 94
v -37 -24 87
v 44 -12 90
v 54 -10 90
v 54 -5 91
v 53 -5 91
v 52 0 95
v 48 22 91
v 49 17 95
v 49 12 96
v 51 4 96
v 35 28 79
v -4 21 77
v -42 9 87
v -44 11 90
v -55 9 90
v -55 4 91
v -54 -1 95
v -53 -6 96
v -52 -14 96
v -51 -19 95
v -49 -25 94
v -37 -26 90
v 34 34 72
v -5 29 74
v -43 14 79
v -45 16 82
v -56 14 82
v -55 7 87
v -53 7 87
v -53 4 91
v -52 0 95
v -48 -23 91
v -49 -18 95
v -50 -13 96
v -51 -5 96
v -44 20 72
v -46 24 74
v -57 22 74
v -56 12 79
v -54 12 79
v -47 -31 79
v -47 -26 87
v -49 -26 87
v -50 -23 91
v -48 -28 90
v 37 25 90
v 36 30 82
v 35 38 74
v 47 32 82
v 49 25 87
v 47 25 87
v 53 -8 87
v 48 24 94
v 48 27 90
v 50 18 95
v 50 23 91
v -55 18 72
v -57 18 72
v -59 27 72
v -45 26 72
v -41 36 72
v -42 42 72
v -29 45 73
v -27 39 73
v -53 16 11
v -58 21 54
v -47 -39 54
v -44 -34 11
v -45 -38 72

f 1 2 3
f 1 3 4
f 1 4 5
f 1 5 6
f 1 6 7
f 1 7 8
f 1 8 2
f 2 8 3
f 3 8 9
f 3 9 10
f 3 10 4
f 4 10 11
f 4 11 5
f 5 11 6
f 6 11 12
f 6 12 13
f 13 12 14
f 13 14 15
f 13 15 16
f 13 16 17
f 17 16 18
f 17 18 19
f 19 18 20
f 19 20 21
f 21 20 22
f 21 22 23
f 23 22 24
f 23 24 6
f 6 24 7
f 7 24 25
f 7 25 8
f 8 25 26
f 8 26 27
f 8 27 9
f 9 27 28
f 9 28 10
f 10 28 11
f 11 28 29
f 11 29 12
f 12 29 30
f 12 30 31
f 12 31 32
f 12 32 33
f 12 33 14
f 14 33 34
f 14 34 35
f 35 34 36
f 35 36 31
f 35 31 37
f 35 37 38
f 35 38 39
f 39 38 40
f 39 40 41
f 39 41 42
f 42 41 43
f 42 43 44
f 42 44 45
f 42 45 46
f 42 46 47
f 47 46 48
f 47 48 24
f 47 24 22
f 47 22 49
f 49 22 50
f 49 50 15
f 49 15 14
f 51 25 24
f 51 24 52
f 51 52 53
f 51 53 54
f 51 54 25
f 25 54 55
f 25 55 26
f 26 55 56
f 26 56 57
f 26 57 58
f 26 58 29
f 26 29 28
f 26 28 27
f 44 59 52
f 44 52 24
f 44 24 60
f 44 60 45
f 52 59 61
f 52 61 62
f 52 62 53
f 53 62 63
f 53 63 64
f 53 64 65
f 53 65 66
f 53 66 54
f 54 66 67
f 54 67 55
f 55 67 56
f 56 67 68
f 56 68 57
f 57 68 69
f 57 69 70
f 57 70 58
f 58 70 71
f 58 71 72
f 58 72 73
f 58 73 29
f 29 73 30
f 30 73 74
f 30 74 75
f 30 75 31
f 31 75 76
f 31 76 77
f 31 77 37
f 37 77 78
f 78 77 79
f 78 79 80
f 80 79 81
f 81 79 82
f 81 82 83
f 81 83 84
f 84 83 85
f 85 83 86
f 85 86 87
f 85 87 88
f 88 87 89
f 88 89 90
f 90 89 91
f 90 91 92
f 92 91 93
f 92 93 94
f 94 93 43
f 43 93 44
f 44 93 59
f 59 93 95
f 59 95 96
f 59 96 61
f 61 96 97
f 61 97 62
f 62 97 98
f 62 98 99
f 62 99 63
f 63 99 100
f 63 100 64
f 64 100 65
f 65 100 101
f 65 101 102
f 65 102 66
f 66 102 103
f 66 103 67
f 67 103 68
f 68 103 104
f 68 104 69
f 69 104 105
f 69 105 106
f 69 106 70
f 70 106 107
f 70 107 71
f 71 107 108
f 71 108 72
f 72 108 109
f 72 109 74
f 72 74 73
f 87 86 110
f 87 110 111
f 87 111 112
f 87 112 89
f 89 112 113
f 89 113 91
f 91 113 95
f 91 95 93
f 111 110 114
f 111 114 96
f 111 96 95
f 111 95 113
f 111 113 112
f 48 60 24
f 60 48 115
f 60 115 116
f 116 115 117
f 117 115 118
f 117 118 46
f 117 46 45
f 118 115 48
f 118 48 46
f 43 41 119
f 43 119 120
f 120 119 121
f 120 121 122
f 122 121 123
f 122 123 124
f 124 123 38
f 124 38 37
f 22 20 18
f 22 18 50
f 50 18 15
f 15 18 16
f 40 121 119
f 40 119 41
f 125 126 127
f 125 127 128
f 125 128 129
f 125 129 130
f 125 130 131
f 125 131 126
f 126 131 132
f 126 132 133
f 126 133 134
f 126 134 127
f 127 134 135
f 127 135 136
f 127 136 128
f 128 136 137
f 128 137 138
f 128 138 129
f 129 138 139
f 129 139 140
f 129 140 130
f 130 140 141
f 130 141 142
f 130 142 131
f 131 142 143
f 131 143 132
f 132 143 144
f 132 144 145
f 132 145 133
f 133 145 146
f 133 146 147
f 133 147 134
f 134 147 148
f 134 148 135
f 135 148 149
f 135 149 150
f 135 150 136
f 136 150 151
f 136 151 137
f 137 151 152
f 137 152 153
f 137 153 138
f 138 153 154
f 138 154 139
f 139 154 155
f 139 155 156
f 139 156 140
f 140 156 141
f 141 156 157
f 141 157 158
f 141 158 142
f 142 158 159
f 142 159 143
f 143 159 160
f 143 160 144
f 144 160 161
f 144 161 162
f 144 162 145
f 145 162 163
f 145 163 146
f 146 163 164
f 146 164 165
f 146 165 147
f 147 165 166
f 147 166 148
f 148 166 167
f 148 167 149
f 149 167 168
f 149 168 169
f 149 169 150
f 150 169 170
f 150 170 151
f 151 170 105
f 151 105 152
f 152 105 104
f 152 104 171
f 152 171 153
f 153 171 172
f 153 172 154
f 154 172 173
f 154 173 155
f 155 173 174
f 155 174 175
f 175 174 176
f 175 176 177
f 175 177 178
f 175 178 179
f 161 160 180
f 161 180 181
f 161 181 182
f 161 182 162
f 162 182 183
f 162 183 163
f 163 183 184
f 163 184 164
f 164 184 185
f 164 185 186
f 164 186 165
f 165 186 187
f 165 187 166
f 166 187 167
f 167 187 188
f 167 188 168
f 168 188 189
f 168 189 190
f 168 190 169
f 169 190 191
f 169 191 170
f 170 191 106
f 170 106 105
f 181 180 192
f 181 192 193
f 181 193 194
f 181 194 182
f 182 194 195
f 182 195 183
f 183 195 196
f 183 196 184
f 184 196 197
f 184 197 185
f 185 197 198
f 185 198 199
f 185 199 186
f 186 199 200
f 200 199 201
f 200 201 202
f 200 202 203
f 200 203 204
f 193 192 96
f 193 96 114
f 193 114 205
f 193 205 194
f 194 205 206
f 194 206 195
f 195 206 207
f 195 207 196
f 196 207 208
f 196 208 197
f 197 208 209
f 197 209 198
f 198 209 210
f 198 210 211
f 198 211 199
f 199 211 201
f 201 211 212
f 201 212 213
f 201 213 202
f 202 213 189
f 189 213 190
f 190 213 214
f 190 214 191
f 191 214 107
f 191 107 106
f 160 159 215
f 160 215 180
f 180 215 216
f 180 216 192
f 192 216 217
f 192 217 96
f 96 217 97
f 97 217 218
f 97 218 98
f 98 218 219
f 98 219 220
f 98 220 99
f 99 220 221
f 99 221 100
f 100 221 101
f 101 221 173
f 101 173 172
f 101 172 102
f 102 172 171
f 102 171 103
f 103 171 104
f 159 158 222
f 159 222 215
f 215 222 223
f 215 223 216
f 216 223 218
f 216 218 217
f 158 157 224
f 158 224 222
f 222 224 225
f 222 225 223
f 223 225 219
f 223 219 218
f 225 224 177
f 225 177 176
f 225 176 219
f 219 176 220
f 220 176 174
f 220 174 221
f 221 174 173
f 74 226 227
f 74 227 75
f 75 227 228
f 75 228 76
f 76 228 229
f 76 229 230
f 76 230 77
f 77 230 231
f 77 231 79
f 79 231 82
f 82 231 232
f 82 232 233
f 82 233 83
f 83 233 110
f 83 110 86
f 31 36 32
f 32 36 234
f 32 234 235
f 235 234 236
f 236 234 237
f 236 237 34
f 236 34 33
f 36 34 237
f 36 237 234
f 38 123 121
f 38 121 40
f 114 229 205
f 205 229 206
f 206 229 228
f 206 228 207
f 207 228 227
f 207 227 208
f 208 227 226
f 208 226 209
f 209 226 238
f 209 238 210
f 210 238 74
f 210 74 109
f 210 109 211
f 211 109 212
f 212 109 108
f 212 108 214
f 212 214 213
f 214 108 107
f 238 226 74
f 114 110 233
f 114 233 229
f 229 233 230
f 230 233 232
f 230 232 231
