# RS2 Model 15018
# Vertices: 88
# Faces: 130

v -47 64 161
v -47 47 161
v -47 47 124
v -47 64 124
v -64 64 161
v -62 62 162
v -49 62 162
v -49 49 162
v -64 47 161
v -64 47 124
v -47 47 165
v -47 64 165
v -47 64 202
v -47 47 202
v -64 47 165
v -64 47 202
v -64 64 165
v -64 64 202
v -49 62 164
v -49 62 203
v -62 62 203
v -62 49 203
v -49 49 203
v -47 47 82
v -47 64 82
v -47 64 120
v -47 47 120
v -64 47 82
v -64 47 120
v -64 64 82
v -64 64 120
v -49 62 81
v -49 62 121
v -62 62 121
v -62 49 121
v -49 49 121
v -47 64 78
v -47 47 78
v -47 47 42
v -47 64 42
v -64 64 78
v -62 62 79
v -49 62 79
v -49 49 79
v -64 47 78
v -64 47 42
v -47 47 3
v -47 64 3
v -47 64 38
v -47 47 38
v -64 47 3
v -64 47 38
v -64 64 3
v -64 64 38
v -49 62 2
v -49 62 39
v -62 62 39
v -62 49 39
v -49 49 39
v -47 64 239
v -47 47 239
v -47 47 206
v -47 64 206
v -64 64 239
v -49 62 240
v -49 49 240
v -62 49 240
v -64 47 239
v -64 47 206
v -62 49 162
v -64 64 124
v -62 49 123
v -62 49 79
v -64 64 42
v -62 49 41
v -64 64 206
v -62 62 240
v -49 49 0
v -49 62 0
v -62 62 0
v -62 49 0
v -62 49 205
v -49 62 205
v -62 49 164
v -49 62 123
v -62 49 81
v -49 62 41
v -62 49 2

f 1 2 3
f 1 3 4
f 1 4 5
f 1 5 6
f 1 6 7
f 1 7 2
f 2 7 8
f 2 8 9
f 2 9 10
f 2 10 3
f 11 12 13
f 11 13 14
f 11 14 15
f 15 14 16
f 15 16 17
f 17 16 18
f 17 18 12
f 12 18 13
f 12 13 19
f 19 13 20
f 20 13 18
f 20 18 21
f 21 18 16
f 21 16 22
f 22 16 14
f 22 14 23
f 23 14 13
f 23 13 20
f 24 25 26
f 24 26 27
f 24 27 28
f 28 27 29
f 28 29 30
f 30 29 31
f 30 31 25
f 25 31 26
f 25 26 32
f 32 26 33
f 33 26 31
f 33 31 34
f 34 31 29
f 34 29 35
f 35 29 27
f 35 27 36
f 36 27 26
f 36 26 33
f 37 38 39
f 37 39 40
f 37 40 41
f 37 41 42
f 37 42 43
f 37 43 38
f 38 43 44
f 38 44 45
f 38 45 46
f 38 46 39
f 47 48 49
f 47 49 50
f 47 50 51
f 51 50 52
f 51 52 53
f 53 52 54
f 53 54 48
f 48 54 49
f 48 49 55
f 55 49 56
f 56 49 54
f 56 54 57
f 57 54 52
f 57 52 58
f 58 52 50
f 58 50 59
f 59 50 49
f 59 49 56
f 60 61 62
f 60 62 63
f 60 63 64
f 60 64 65
f 60 65 66
f 60 66 61
f 61 66 67
f 61 67 68
f 61 68 69
f 61 69 62
f 9 8 70
f 9 70 5
f 9 5 71
f 9 71 10
f 9 10 70
f 70 10 72
f 45 44 73
f 45 73 41
f 45 41 74
f 45 74 46
f 45 46 73
f 73 46 75
f 5 70 6
f 41 73 42
f 68 64 76
f 68 76 69
f 68 69 67
f 68 67 77
f 68 77 64
f 64 77 65
f 65 77 66
f 65 66 78
f 65 78 79
f 65 79 77
f 77 79 80
f 77 80 67
f 77 67 66
f 66 67 81
f 66 81 78
f 5 4 71
f 41 40 74
f 64 63 76
f 67 69 82
f 60 65 83
f 60 83 63
f 22 16 15
f 22 15 84
f 1 7 85
f 1 85 4
f 35 29 28
f 35 28 86
f 37 43 87
f 37 87 40
f 58 52 51
f 58 51 88
f 67 80 81
