# RS2 Model 15052
# Vertices: 28
# Faces: 44

v 2 -49 15
v -3 -49 15
v -3 -65 27
v 2 -65 27
v 2 -51 13
v 2 -35 1
v 2 -33 2
v -3 -33 2
v -3 -51 12
v -3 -65 22
v 2 -65 23
v -3 -36 0
v -3 -29 -10
v -3 -32 -10
v 2 -30 -10
v 2 -29 -10
v 2 -28 -15
v -3 -28 -15
v -3 -31 -15
v 2 -29 -15
v 2 -29 -19
v 2 -28 -19
v -3 -28 -19
v -3 -31 -19
v -3 -31 -23
v 2 -29 -23
v 2 -28 -23
v -3 -28 -23

f 1 2 3
f 1 3 4
f 1 4 5
f 1 5 6
f 1 6 7
f 1 7 2
f 2 7 8
f 2 8 9
f 2 9 10
f 2 10 3
f 5 4 11
f 8 12 9
f 12 8 13
f 12 13 14
f 12 14 6
f 6 14 15
f 6 15 7
f 7 15 16
f 7 16 8
f 8 16 13
f 13 16 17
f 13 17 18
f 13 18 14
f 14 18 19
f 14 19 15
f 15 19 20
f 15 20 16
f 16 20 17
f 17 20 21
f 17 21 22
f 17 22 18
f 18 22 23
f 18 23 19
f 19 23 24
f 19 24 20
f 20 24 21
f 21 24 25
f 21 25 26
f 21 26 22
f 22 26 27
f 22 27 23
f 23 27 28
f 23 28 24
f 24 28 25
