# RS2 Model 15071
# Vertices: 154
# Faces: 244

v -42 -64 209
v -42 -64 109
v -42 -34 107
v -42 -32 200
v -42 -64 238
v -58 -64 238
v -58 -64 209
v -58 -64 109
v -42 -64 49
v -42 -33 48
v -58 -34 108
v -58 -32 200
v -42 -32 238
v -58 -32 238
v -58 -64 49
v -42 -64 33
v -42 -31 32
v -58 -33 48
v -58 -64 33
v -42 -64 15
v -42 -28 14
v -58 -30 32
v -58 -64 15
v -42 -64 0
v -42 -27 0
v -58 -28 14
v -58 -64 0
v -42 6 106
v -42 35 97
v -42 30 108
v -58 30 108
v -58 6 106
v -42 6 49
v -42 31 48
v -58 35 95
v -58 7 49
v -42 6 32
v -42 34 33
v -58 31 48
v -58 7 32
v -42 6 14
v -42 35 15
v -58 34 33
v -58 7 14
v -58 7 0
v -42 7 0
v -42 35 0
v -58 35 15
v -58 35 0
v -45 32 238
v -45 40 195
v -45 63 169
v -45 64 238
v -61 64 238
v -61 32 238
v -61 39 189
v -45 37 98
v -45 64 96
v -61 64 96
v -61 63 169
v -61 37 98
v -45 34 48
v -45 64 48
v -61 64 48
v -61 34 48
v -45 36 33
v -45 64 33
v -61 64 33
v -61 36 33
v -45 37 15
v -45 64 15
v -61 64 15
v -61 37 15
v -45 37 0
v -45 64 0
v -61 64 0
v -61 37 0
v -45 -29 108
v -45 3 104
v -61 2 106
v -61 -31 109
v -45 -29 48
v -45 2 48
v -61 3 48
v -61 -27 48
v -45 -27 32
v -45 3 32
v -61 4 32
v -61 -26 32
v -45 -25 14
v -45 3 14
v -61 4 14
v -61 -25 14
v -61 -24 0
v -45 -24 0
v -45 5 0
v -61 5 0
v -58 -26 0
v -61 -64 70
v -64 -64 70
v -64 -64 52
v -61 -64 52
v -61 -7 69
v -64 -7 69
v -64 -7 51
v -64 65 70
v -61 65 70
v -61 65 52
v -64 65 52
v -61 -7 51
v -61 -64 166
v -64 -64 166
v -64 -64 148
v -61 -64 148
v -61 -40 167
v -64 -40 167
v -64 -40 149
v -61 -40 149
v -33 -26 111
v -33 -26 121
v -58 -26 121
v -58 -26 111
v -58 3 109
v -58 -4 119
v -58 30 112
v -58 31 124
v -33 30 112
v -33 31 124
v -26 4 109
v -27 2 119
v -45 -29 238
v -45 2 238
v -61 2 238
v -61 -29 238
v -45 -26 214
v -45 2 226
v -61 3 228
v -61 -26 214
v -57 30 238
v -57 5 238
v -42 5 237
v -42 30 238
v -57 30 213
v -57 6 228
v -42 7 225
v -42 30 212
v -64 65 166
v -61 65 166
v -61 65 148
v -64 65 148
v -64 41 167
v -61 41 167
v -61 41 149
v -64 41 149

f 1 2 3
f 1 3 4
f 1 4 5
f 1 5 6
f 1 6 7
f 1 7 2
f 2 7 8
f 2 8 9
f 2 9 10
f 2 10 3
f 3 10 11
f 3 11 4
f 4 11 12
f 4 12 13
f 4 13 5
f 5 13 14
f 5 14 6
f 6 14 7
f 7 14 12
f 7 12 8
f 8 12 11
f 8 11 15
f 8 15 9
f 9 15 16
f 9 16 17
f 9 17 10
f 10 17 18
f 10 18 11
f 11 18 15
f 15 18 19
f 15 19 16
f 16 19 20
f 16 20 21
f 16 21 17
f 17 21 22
f 17 22 18
f 18 22 19
f 19 22 23
f 19 23 20
f 20 23 24
f 20 24 25
f 20 25 21
f 21 25 26
f 21 26 22
f 22 26 23
f 23 26 27
f 23 27 24
f 28 29 30
f 28 30 31
f 28 31 32
f 28 32 33
f 28 33 34
f 28 34 29
f 29 34 35
f 29 35 30
f 30 35 31
f 31 35 32
f 32 35 36
f 32 36 33
f 33 36 37
f 33 37 38
f 33 38 34
f 34 38 39
f 34 39 35
f 35 39 36
f 36 39 40
f 36 40 37
f 37 40 41
f 37 41 42
f 37 42 38
f 38 42 43
f 38 43 39
f 39 43 40
f 40 43 44
f 40 44 41
f 41 44 45
f 41 45 46
f 41 46 47
f 41 47 42
f 42 47 48
f 42 48 43
f 43 48 44
f 44 48 45
f 45 48 49
f 49 48 47
f 50 51 52
f 50 52 53
f 50 53 54
f 50 54 55
f 50 55 51
f 51 55 56
f 51 56 57
f 51 57 58
f 51 58 52
f 52 58 59
f 52 59 60
f 52 60 53
f 53 60 54
f 54 60 56
f 54 56 55
f 60 59 61
f 60 61 56
f 56 61 57
f 57 61 62
f 57 62 63
f 57 63 58
f 58 63 59
f 59 63 64
f 59 64 65
f 59 65 61
f 61 65 62
f 62 65 66
f 62 66 67
f 62 67 63
f 63 67 64
f 64 67 68
f 64 68 69
f 64 69 65
f 65 69 66
f 66 69 70
f 66 70 71
f 66 71 67
f 67 71 68
f 68 71 72
f 68 72 73
f 68 73 69
f 69 73 70
f 70 73 74
f 70 74 75
f 70 75 71
f 71 75 72
f 72 75 76
f 72 76 77
f 72 77 73
f 73 77 74
f 13 12 14
f 78 79 80
f 78 80 81
f 78 81 82
f 78 82 83
f 78 83 79
f 79 83 80
f 80 83 84
f 80 84 85
f 80 85 81
f 81 85 82
f 82 85 86
f 82 86 87
f 82 87 83
f 83 87 84
f 84 87 88
f 84 88 89
f 84 89 85
f 85 89 86
f 86 89 90
f 86 90 91
f 86 91 87
f 87 91 88
f 88 91 92
f 88 92 93
f 88 93 89
f 89 93 90
f 90 93 94
f 90 94 95
f 90 95 96
f 90 96 91
f 91 96 92
f 92 96 97
f 92 97 94
f 92 94 93
f 26 98 27
f 98 26 25
f 99 100 101
f 99 101 102
f 99 102 103
f 99 103 100
f 100 103 104
f 100 104 105
f 100 105 101
f 106 107 108
f 106 108 109
f 106 109 104
f 106 104 107
f 107 104 103
f 107 103 110
f 107 110 108
f 105 104 109
f 110 103 102
f 111 112 113
f 111 113 114
f 111 114 115
f 111 115 112
f 112 115 116
f 112 116 117
f 112 117 113
f 118 115 114
f 115 118 116
f 116 118 117
f 119 120 121
f 119 121 122
f 122 121 123
f 123 121 124
f 123 124 125
f 125 124 126
f 125 126 127
f 127 126 128
f 127 128 129
f 129 128 130
f 129 130 119
f 119 130 120
f 120 130 124
f 120 124 121
f 126 124 130
f 126 130 128
f 131 132 133
f 131 133 134
f 131 134 135
f 131 135 136
f 131 136 132
f 132 136 137
f 132 137 133
f 133 137 138
f 133 138 134
f 134 138 135
f 139 140 141
f 139 141 142
f 139 142 143
f 139 143 144
f 139 144 140
f 140 144 145
f 140 145 141
f 141 145 146
f 141 146 142
f 142 146 143
f 147 148 149
f 147 149 150
f 147 150 151
f 147 151 148
f 148 151 152
f 148 152 153
f 148 153 149
f 154 151 150
f 151 154 152
f 152 154 153
