# RS2 Model 15085
# Vertices: 60
# Faces: 76

v 31 40 7
v 31 40 0
v 31 62 0
v 31 62 7
v -16 58 7
v -16 39 7
v -16 38 0
v 31 -64 7
v 31 -64 0
v 31 -41 0
v 31 -41 7
v -25 -60 7
v -25 -62 0
v -64 -64 7
v -25 -41 7
v -64 -41 7
v -25 -39 0
v -64 -41 0
v -64 62 7
v -16 60 0
v -64 62 0
v -64 -64 0
v -64 40 7
v -64 40 0
v 59 12 0
v 59 12 41
v 59 -12 43
v 59 -12 0
v 35 -12 43
v 35 -12 0
v 35 12 41
v 35 12 0
v 55 12 73
v 55 63 0
v 38 63 0
v 38 12 73
v 38 48 0
v 38 11 47
v 55 48 0
v 55 11 47
v 38 -64 0
v 38 -12 73
v 38 -12 47
v 38 -48 0
v 55 -12 47
v 55 -48 0
v 55 -12 73
v 55 -64 0
v 35 -12 77
v 35 12 76
v 59 12 76
v 59 -12 77
v 61 9 210
v 56 -14 211
v 32 -9 211
v 37 14 210
v 35 12 469
v 34 -11 469
v 58 -12 469
v 59 11 469

f 1 2 3
f 1 3 4
f 1 4 5
f 1 5 6
f 1 6 7
f 1 7 2
f 8 9 10
f 8 10 11
f 8 11 12
f 8 12 13
f 8 13 9
f 14 12 15
f 14 15 16
f 16 15 17
f 16 17 18
f 19 5 20
f 19 20 21
f 22 13 12
f 22 12 14
f 15 11 10
f 15 10 17
f 5 4 3
f 5 3 20
f 11 15 12
f 6 23 24
f 6 24 7
f 5 19 23
f 5 23 6
f 25 26 27
f 25 27 28
f 28 27 29
f 28 29 30
f 30 29 31
f 30 31 32
f 32 31 26
f 32 26 25
f 33 34 35
f 33 35 36
f 36 35 37
f 36 37 38
f 38 37 39
f 38 39 40
f 40 39 34
f 40 34 33
f 41 42 43
f 41 43 44
f 44 43 45
f 44 45 46
f 46 45 47
f 46 47 48
f 48 47 42
f 48 42 41
f 29 49 50
f 29 50 31
f 31 50 26
f 26 50 51
f 26 51 52
f 26 52 27
f 27 52 49
f 27 49 29
f 51 53 54
f 51 54 52
f 52 54 55
f 52 55 49
f 49 55 56
f 49 56 50
f 50 56 53
f 50 53 51
f 57 56 55
f 57 55 58
f 58 55 54
f 58 54 59
f 59 54 53
f 59 53 60
f 60 53 56
f 60 56 57
