# RS2 Model 15127
# Vertices: 189
# Faces: 350

v 0 -9 156
v 2 -14 147
v 8 -15 148
v 14 -8 153
v 5 -3 161
v 5 -7 159
v 6 -3 164
v 4 -1 162
v 0 0 163
v -4 -1 162
v -6 -3 164
v -5 -7 159
v -5 -3 161
v -14 -8 153
v -8 -15 148
v -2 -14 147
v 0 -14 147
v 0 -11 140
v 2 -11 140
v 11 -11 140
v 15 4 147
v 15 -2 157
v 7 3 165
v 8 -3 163
v 10 2 167
v 8 3 168
v 4 5 166
v 9 -7 119
v 15 -1 121
v 13 -1 130
v 8 -7 130
v 7 -8 122
v 6 -8 120
v 2 -11 116
v 9 -10 110
v 14 -8 111
v 18 0 112
v 17 9 111
v 12 7 121
v 11 7 130
v 8 -9 134
v 7 -9 132
v 2 -10 129
v 5 -9 124
v 5 -10 122
v 4 -10 120
v 3 -10 122
v 0 -11 115
v 0 -10 129
v -2 -10 129
v -2 -11 116
v -3 -10 122
v -4 -10 120
v -6 -8 120
v -9 -7 119
v -9 -10 110
v -14 -8 111
v -12 -10 105
v -16 -9 105
v -13 -11 103
v -18 -10 103
v -13 -11 101
v -17 -9 101
v -22 -1 104
v -21 0 102
v -18 11 102
v -19 10 104
v -15 17 103
v -14 17 101
v -16 14 85
v -14 16 101
v -13 17 84
v 0 20 100
v -2 20 82
v -5 22 83
v -4 21 100
v 0 20 105
v 4 21 100
v 5 22 83
v 2 20 82
v 13 17 84
v 14 16 101
v 16 14 85
v 18 11 102
v 14 17 101
v 15 17 103
v 19 10 104
v 22 -1 104
v 21 0 102
v 17 -9 101
v 18 -10 103
v 13 -11 101
v 13 -11 103
v 16 -9 105
v 12 -10 105
v 7 14 157
v 7 13 147
v 0 14 147
v 0 15 157
v 2 9 166
v 15 11 157
v 14 11 148
v 6 10 129
v 0 11 129
v -6 10 129
v -7 13 147
v -7 14 157
v -2 9 166
v 0 10 166
v 0 10 167
v 14 4 163
v 13 19 67
v 9 23 67
v 10 22 84
v 14 18 84
v 14 16 67
v 11 17 50
v 11 19 51
v 8 22 48
v 5 23 66
v 9 21 101
v 12 18 67
v 2 21 65
v 2 20 48
v 7 20 46
v 5 22 49
v 14 14 111
v 8 17 111
v 6 11 121
v 0 12 121
v -6 11 121
v -11 7 130
v -14 11 148
v -15 11 157
v -14 4 163
v -7 3 165
v -10 2 167
v -8 3 168
v -2 -11 140
v -4 -10 134
v -5 -10 132
v -7 -9 132
v -8 -7 130
v -5 -9 124
v -5 -10 122
v -7 -8 122
v -13 -1 130
v -15 -1 121
v -18 0 112
v -20 0 106
v -18 9 106
v -14 16 105
v -9 19 105
v -9 21 101
v -14 18 84
v -14 16 67
v -12 18 67
v -2 21 65
v -5 23 66
v -9 23 67
v -10 22 84
v 0 18 111
v 9 19 105
v 20 0 106
v 18 9 106
v 14 16 105
v 4 -10 134
v 6 -11 133
v 6 -11 135
v 5 -10 132
v -11 -11 140
v -15 4 147
v -8 -9 134
v -6 -11 135
v -15 -2 157
v -13 19 67
v -11 19 51
v -11 17 50
v -12 7 121
v -17 9 111
v -14 14 111
v -8 17 111
v -8 22 48
v -7 20 46
v -2 20 48
v -4 5 166
v -8 -3 163
v -6 -11 133
v -5 22 49

f 1 2 3
f 1 3 4
f 1 4 5
f 1 5 6
f 1 6 7
f 1 7 8
f 1 8 9
f 1 9 10
f 1 10 11
f 1 11 12
f 1 12 13
f 1 13 14
f 1 14 15
f 1 15 16
f 1 16 17
f 1 17 2
f 2 17 18
f 2 18 19
f 2 19 20
f 2 20 3
f 3 20 4
f 4 20 21
f 4 21 22
f 4 22 5
f 5 22 23
f 5 23 24
f 5 24 6
f 6 24 7
f 7 24 25
f 7 25 26
f 7 26 8
f 8 26 27
f 8 27 9
f 28 29 30
f 28 30 31
f 28 31 32
f 28 32 33
f 28 33 34
f 28 34 35
f 28 35 36
f 28 36 37
f 28 37 29
f 29 37 38
f 29 38 39
f 29 39 40
f 29 40 30
f 30 40 21
f 30 21 20
f 30 20 31
f 31 20 41
f 31 41 42
f 31 42 43
f 31 43 44
f 31 44 32
f 32 44 45
f 32 45 33
f 33 45 46
f 33 46 34
f 34 46 47
f 34 47 43
f 34 43 48
f 48 43 49
f 48 49 50
f 48 50 51
f 51 50 52
f 51 52 53
f 51 53 54
f 51 54 55
f 51 55 56
f 56 55 57
f 56 57 58
f 58 57 59
f 58 59 60
f 60 59 61
f 60 61 62
f 62 61 63
f 63 61 64
f 63 64 65
f 65 64 66
f 66 64 67
f 66 67 68
f 66 68 69
f 66 69 70
f 66 70 71
f 71 70 72
f 71 72 73
f 73 72 74
f 73 74 75
f 73 75 76
f 73 76 77
f 73 77 78
f 73 78 79
f 73 79 80
f 73 80 81
f 73 81 82
f 82 81 83
f 82 83 84
f 84 83 85
f 84 85 86
f 84 86 87
f 84 87 88
f 84 88 89
f 89 88 90
f 90 88 91
f 90 91 92
f 92 91 93
f 93 91 94
f 93 94 95
f 95 94 36
f 95 36 35
f 96 97 98
f 96 98 99
f 96 99 100
f 96 100 101
f 96 101 102
f 96 102 97
f 97 102 40
f 97 40 103
f 97 103 98
f 98 103 104
f 98 104 105
f 98 105 106
f 98 106 107
f 98 107 99
f 99 107 108
f 99 108 109
f 99 109 100
f 100 109 110
f 100 110 26
f 100 26 25
f 100 25 23
f 100 23 111
f 100 111 101
f 112 113 114
f 112 114 115
f 112 115 116
f 112 116 117
f 112 117 118
f 112 118 113
f 113 118 119
f 113 119 120
f 113 120 79
f 113 79 114
f 114 79 78
f 114 78 121
f 114 121 115
f 115 121 85
f 115 85 83
f 115 83 116
f 116 83 81
f 116 81 122
f 116 122 117
f 117 122 123
f 117 123 124
f 117 124 125
f 117 125 118
f 118 125 119
f 119 125 126
f 119 126 120
f 120 126 123
f 120 123 80
f 120 80 79
f 39 38 127
f 39 127 128
f 39 128 129
f 39 129 40
f 40 129 103
f 103 129 104
f 104 129 130
f 104 130 131
f 104 131 105
f 105 131 132
f 105 132 106
f 106 132 133
f 106 133 107
f 107 133 134
f 107 134 108
f 108 134 135
f 108 135 136
f 108 136 137
f 108 137 138
f 108 138 110
f 108 110 109
f 49 43 19
f 49 19 18
f 49 18 139
f 49 139 50
f 50 139 140
f 50 140 141
f 50 141 142
f 50 142 143
f 50 143 144
f 50 144 52
f 52 144 145
f 52 145 53
f 53 145 54
f 54 145 146
f 54 146 55
f 55 146 143
f 55 143 147
f 55 147 148
f 55 148 149
f 55 149 57
f 57 149 59
f 59 149 150
f 59 150 61
f 61 150 64
f 64 150 67
f 67 150 151
f 67 151 152
f 67 152 68
f 68 152 153
f 68 153 154
f 68 154 69
f 69 154 155
f 69 155 70
f 70 155 156
f 70 156 72
f 72 156 157
f 72 157 74
f 74 157 158
f 74 158 159
f 74 159 75
f 75 159 160
f 75 160 161
f 75 161 76
f 76 161 154
f 76 154 153
f 76 153 77
f 77 153 162
f 77 162 163
f 77 163 78
f 78 163 121
f 121 163 86
f 121 86 85
f 102 101 21
f 102 21 40
f 91 88 164
f 91 164 94
f 94 164 37
f 94 37 36
f 164 88 87
f 164 87 165
f 164 165 38
f 164 38 37
f 87 86 166
f 87 166 165
f 165 166 127
f 165 127 38
f 166 86 163
f 166 163 128
f 166 128 127
f 167 168 169
f 167 169 20
f 167 20 19
f 167 19 43
f 167 43 170
f 167 170 168
f 168 170 42
f 168 42 41
f 168 41 169
f 169 41 20
f 22 111 23
f 27 26 110
f 24 23 25
f 80 123 122
f 80 122 81
f 126 125 124
f 126 124 123
f 42 170 43
f 44 47 45
f 45 47 46
f 47 44 43
f 163 162 128
f 128 162 130
f 128 130 129
f 14 171 15
f 15 171 16
f 16 171 139
f 16 139 18
f 16 18 17
f 171 172 147
f 171 147 143
f 171 143 173
f 171 173 174
f 171 174 140
f 171 140 139
f 14 175 172
f 14 172 171
f 176 155 161
f 176 161 160
f 176 160 177
f 176 177 178
f 176 178 156
f 176 156 155
f 148 179 180
f 148 180 149
f 149 180 150
f 150 180 151
f 151 180 181
f 151 181 152
f 152 181 182
f 152 182 153
f 153 182 162
f 162 182 130
f 130 182 131
f 131 182 179
f 131 179 132
f 132 179 148
f 132 148 147
f 132 147 172
f 132 172 133
f 133 172 134
f 179 181 180
f 181 179 182
f 177 160 183
f 177 183 184
f 177 184 178
f 178 184 185
f 178 185 158
f 178 158 157
f 178 157 156
f 10 9 186
f 10 186 138
f 10 138 11
f 11 138 137
f 11 137 187
f 11 187 12
f 12 187 13
f 13 187 136
f 13 136 175
f 13 175 14
f 140 174 188
f 140 188 141
f 141 188 142
f 142 188 173
f 142 173 143
f 175 136 135
f 186 110 138
f 187 137 136
f 189 185 184
f 189 184 183
f 189 183 159
f 189 159 158
f 189 158 185
f 173 188 174
f 145 144 146
f 146 144 143
f 183 160 159
f 154 161 155
