# RS2 Model 15256
# Vertices: 129
# Faces: 174

v 5 37 19
v -1 42 19
v -6 37 0
v 1 31 0
v 12 53 39
v -12 -6 20
v -10 2 20
v -17 4 0
v -19 -5 0
v 3 -3 41
v 47 -13 16
v 47 -4 16
v 40 -4 0
v 40 -13 0
v 62 -8 29
v -35 9 22
v -35 18 22
v -42 18 0
v -42 9 0
v -18 15 45
v 5 12 18
v 5 21 18
v -2 21 0
v -2 12 0
v 20 17 36
v 44 -35 11
v 48 -27 11
v 43 -23 0
v 39 -30 0
v 59 -42 22
v 47 43 11
v 42 51 11
v 37 47 0
v 41 41 0
v 60 58 22
v -33 35 1
v -40 40 1
v -35 46 18
v -28 40 18
v -20 57 35
v 51 18 11
v 48 26 11
v 41 24 0
v 44 16 0
v 65 28 22
v 25 -33 21
v 29 -28 21
v 25 -23 1
v 19 -29 1
v 40 -43 41
v -31 -22 21
v -29 -14 21
v -36 -12 1
v -38 -21 1
v -12 -21 41
v -15 -20 5
v -19 -20 5
v -28 -59 5
v -24 -59 5
v -15 -20 2
v -19 -20 2
v -28 -59 2
v -24 -59 2
v -19 -22 8
v -31 -30 8
v -31 -30 0
v -19 -22 0
v -9 -22 0
v -9 -22 8
v -7 -18 8
v -21 -18 8
v -34 -27 8
v -35 -41 8
v -35 -41 0
v 7 -41 0
v 3 -30 0
v 3 -30 8
v 6 -27 8
v -7 -18 0
v -21 -18 0
v -34 -27 0
v -39 -41 0
v -39 -41 8
v -31 -52 8
v -31 -52 0
v -9 -60 0
v 3 -52 0
v 7 -41 8
v 3 -52 8
v 6 -55 8
v 11 -41 8
v 6 -27 0
v -9 -60 8
v -7 -64 8
v 6 -55 0
v 11 -41 0
v -19 -60 0
v -19 -60 8
v -21 -64 8
v -7 -64 0
v -34 -55 8
v -21 -64 0
v -34 -55 0
v -14 -37 29
v -25 -43 42
v -25 -51 42
v -14 -57 29
v -10 -58 6
v -10 -36 6
v -6 -21 5
v -10 -21 5
v -10 -61 5
v -6 -61 5
v -6 -21 2
v -10 -21 2
v -10 -61 2
v -6 -61 2
v -47 -54 51
v -25 -54 44
v -24 -49 48
v -47 -49 58
v -24 -44 48
v -47 -44 58
v -25 -38 44
v -47 -38 51
v -26 -43 39
v -47 -43 47
v -26 -48 39
v -47 -48 47

f 1 2 3
f 1 3 4
f 1 4 2
f 1 2 5
f 1 5 2
f 4 3 2
f 6 7 8
f 6 8 9
f 6 9 7
f 6 7 10
f 6 10 7
f 11 12 13
f 11 13 14
f 11 14 12
f 11 12 15
f 11 15 12
f 14 13 12
f 9 8 7
f 16 17 18
f 16 18 19
f 16 19 17
f 16 17 20
f 16 20 17
f 19 18 17
f 21 22 23
f 21 23 24
f 21 24 22
f 21 22 25
f 21 25 22
f 24 23 22
f 26 27 28
f 26 28 29
f 26 29 27
f 26 27 30
f 26 30 27
f 29 28 27
f 31 32 33
f 31 33 34
f 31 34 32
f 31 32 35
f 31 35 32
f 34 33 32
f 36 37 38
f 36 38 39
f 36 39 37
f 37 39 38
f 38 39 40
f 38 40 39
f 41 42 43
f 41 43 44
f 41 44 42
f 41 42 45
f 41 45 42
f 44 43 42
f 46 47 48
f 46 48 49
f 46 49 47
f 46 47 50
f 46 50 47
f 49 48 47
f 51 52 53
f 51 53 54
f 51 54 52
f 51 52 55
f 51 55 52
f 54 53 52
f 56 57 58
f 56 58 59
f 56 59 60
f 56 60 57
f 57 60 61
f 57 61 62
f 57 62 58
f 58 62 59
f 59 62 63
f 59 63 60
f 64 65 66
f 64 66 67
f 64 67 68
f 64 68 69
f 64 69 70
f 64 70 71
f 64 71 65
f 65 71 72
f 65 72 73
f 65 73 66
f 66 73 74
f 66 74 75
f 66 75 67
f 67 75 76
f 67 76 68
f 68 76 69
f 69 76 77
f 69 77 78
f 69 78 70
f 70 78 79
f 70 79 80
f 70 80 71
f 71 80 72
f 72 80 81
f 72 81 82
f 72 82 83
f 72 83 73
f 73 83 84
f 73 84 74
f 74 84 85
f 74 85 86
f 74 86 87
f 74 87 75
f 75 87 88
f 75 88 77
f 75 77 76
f 88 87 89
f 88 89 90
f 88 90 91
f 88 91 77
f 77 91 78
f 78 91 92
f 78 92 79
f 89 87 86
f 89 86 93
f 89 93 94
f 89 94 90
f 90 94 95
f 90 95 96
f 90 96 91
f 91 96 92
f 93 86 97
f 93 97 98
f 93 98 99
f 93 99 94
f 94 99 100
f 94 100 95
f 98 97 85
f 98 85 84
f 98 84 101
f 98 101 99
f 99 101 102
f 99 102 100
f 101 103 102
f 103 101 83
f 103 83 82
f 84 83 101
f 85 97 86
f 104 105 106
f 104 106 107
f 104 107 108
f 104 108 109
f 110 111 112
f 110 112 113
f 110 113 114
f 110 114 111
f 111 114 115
f 111 115 116
f 111 116 112
f 112 116 113
f 113 116 117
f 113 117 114
f 118 119 120
f 118 120 121
f 121 120 122
f 121 122 123
f 123 122 124
f 123 124 125
f 125 124 126
f 125 126 127
f 127 126 128
f 127 128 129
f 129 128 119
f 129 119 118
f 128 124 122
f 128 122 120
f 128 120 119
f 128 126 124
