# RS2 Model 15307
# Vertices: 242
# Faces: 476

v -25 -21 219
v -25 -13 227
v -25 -8 214
v -25 -21 209
v -27 -21 210
v -27 -21 219
v -28 -14 227
v -17 -14 232
v -28 -13 229
v -28 -12 227
v -26 -4 227
v -26 3 219
v -26 3 209
v -26 -4 201
v -25 -13 201
v -27 -20 208
v -16 -25 207
v -27 -24 209
v -27 -25 221
v -27 -16 228
v -16 -25 221
v -16 -27 221
v -17 -15 233
v -17 -2 232
v -28 -3 230
v -28 -4 227
v -28 3 219
v -28 3 210
v -17 9 206
v -28 5 207
v -28 3 208
v -28 -4 201
v -28 -13 201
v -28 -15 198
v -27 -24 206
v -16 -15 196
v -16 -16 195
v -16 -26 207
v -17 -1 233
v -17 9 221
v -28 6 220
v -29 5 220
v -29 -3 230
v -29 3 219
v -28 6 209
v -17 10 206
v -17 -3 196
v -28 -3 198
v -17 -2 195
v -29 -3 199
v -10 -27 222
v -11 -15 233
v -11 0 233
v -12 11 221
v -12 11 205
v -11 -1 194
v -11 -16 194
v -10 -27 206
v -11 -25 221
v -11 -14 232
v -12 -1 232
v -12 9 221
v -12 9 206
v -11 -2 196
v -11 -15 196
v -11 -25 207
v -7 -26 221
v -8 -14 233
v -9 -1 233
v -10 10 221
v -10 10 206
v -8 -2 195
v -7 -15 195
v -7 -26 207
v 0 -25 221
v 0 -14 233
v 0 0 232
v -1 12 221
v -1 12 205
v 0 -1 195
v 0 -15 194
v 0 -27 206
v 13 -25 207
v 13 -25 221
v 11 -13 233
v 11 1 233
v 11 11 221
v 11 11 206
v 11 0 195
v 12 -14 195
v 11 13 206
v 11 0 194
v 11 13 221
v 17 12 206
v 17 0 195
v 17 -13 195
v 12 -15 193
v 12 -26 206
v 12 -26 222
v 17 -13 233
v 17 1 233
v 17 12 221
v 22 9 220
v 17 11 221
v 17 1 232
v 23 0 231
v 21 -7 214
v 22 10 207
v 17 11 206
v 17 -13 232
v 24 -12 230
v 25 -22 221
v 25 -21 207
v 24 -13 197
v 23 -1 197
v 17 0 196
v 18 -24 221
v 18 -24 207
v 17 -13 196
v 18 -25 221
v 18 -25 207
v -2 -31 259
v -9 -28 267
v -14 -26 254
v -2 -31 249
v -3 -33 250
v -3 -33 259
v -9 -31 267
v -5 -21 272
v -10 -31 269
v -11 -30 267
v -18 -25 267
v -24 -22 259
v -24 -22 249
v -18 -25 241
v -9 -28 241
v -4 -33 248
v 6 -25 247
v 0 -35 249
v 1 -35 261
v -7 -31 268
v 6 -25 261
v 7 -26 261
v -4 -22 273
v -16 -16 272
v -19 -27 270
v -18 -27 267
v -25 -24 259
v -25 -24 250
v -26 -12 246
v -27 -23 247
v -25 -24 248
v -18 -27 241
v -10 -31 241
v -9 -32 238
v 0 -35 246
v -3 -21 236
v -3 -21 235
v 7 -25 247
v -17 -16 273
v -26 -12 261
v -28 -23 260
v -27 -24 260
v -20 -28 270
v -25 -25 259
v -28 -23 249
v -27 -11 246
v -15 -17 236
v -19 -27 238
v -16 -16 235
v -20 -28 239
v 10 -20 262
v -1 -16 273
v -15 -10 273
v -25 -6 261
v -25 -6 245
v -14 -10 234
v 0 -17 234
v 10 -20 246
v 8 -20 261
v -2 -16 272
v -14 -11 272
v -24 -7 261
v -24 -7 246
v -13 -11 236
v -1 -16 236
v 8 -20 247
v 10 -17 261
v -1 -13 273
v -13 -9 273
v -24 -5 261
v -24 -5 246
v -12 -8 235
v 0 -13 235
v 10 -17 247
v 12 -11 261
v 2 -6 273
v -10 0 272
v -22 4 261
v -22 4 245
v -9 0 235
v 3 -6 234
v 14 -11 246
v 18 1 247
v 18 1 261
v 6 5 273
v -7 10 273
v -16 15 261
v -16 15 246
v -6 10 235
v 7 5 235
v -17 16 246
v -6 10 234
v -17 16 261
v -14 21 246
v -3 15 235
v 9 10 235
v 8 5 233
v 18 0 246
v 18 0 262
v 9 10 273
v -4 16 273
v -14 21 261
v -9 24 260
v -13 20 261
v -4 16 272
v -1 21 271
v 5 16 254
v -10 24 247
v -13 20 246
v 9 10 272
v 11 17 270
v 20 13 261
v 19 14 247
v 12 16 237
v 0 20 237
v -3 15 236
v 19 6 261
v 19 6 247
v 9 10 236
v 20 6 261
v 20 6 247

f 1 2 3
f 1 3 4
f 1 4 5
f 1 5 6
f 1 6 7
f 1 7 2
f 2 7 8
f 2 8 9
f 2 9 10
f 2 10 11
f 2 11 3
f 3 11 12
f 3 12 13
f 3 13 14
f 3 14 15
f 3 15 4
f 4 15 16
f 4 16 17
f 4 17 18
f 4 18 5
f 5 18 6
f 6 18 19
f 6 19 7
f 7 19 20
f 7 20 8
f 8 20 21
f 8 21 22
f 8 22 23
f 8 23 24
f 8 24 9
f 9 24 25
f 9 25 26
f 9 26 10
f 10 26 11
f 11 26 12
f 12 26 27
f 12 27 28
f 12 28 13
f 13 28 29
f 13 29 30
f 13 30 31
f 13 31 14
f 14 31 32
f 14 32 15
f 15 32 33
f 15 33 16
f 16 33 34
f 16 34 35
f 16 35 17
f 17 35 36
f 17 36 37
f 17 37 38
f 17 38 21
f 17 21 18
f 18 21 19
f 19 21 20
f 23 39 24
f 24 39 40
f 24 40 25
f 25 40 41
f 25 41 42
f 25 42 43
f 25 43 26
f 26 43 44
f 26 44 27
f 27 44 41
f 27 41 28
f 28 41 45
f 28 45 29
f 29 45 40
f 29 40 46
f 29 46 47
f 29 47 30
f 30 47 48
f 30 48 32
f 30 32 31
f 46 49 47
f 47 49 37
f 47 37 36
f 47 36 48
f 48 36 34
f 48 34 50
f 48 50 32
f 32 50 33
f 33 50 34
f 38 22 21
f 22 38 51
f 22 51 52
f 22 52 23
f 23 52 53
f 23 53 39
f 39 53 54
f 39 54 40
f 40 54 55
f 40 55 46
f 46 55 56
f 46 56 49
f 49 56 57
f 49 57 37
f 37 57 58
f 37 58 38
f 38 58 51
f 51 58 59
f 51 59 60
f 51 60 52
f 52 60 53
f 53 60 61
f 53 61 54
f 54 61 62
f 54 62 55
f 55 62 63
f 55 63 56
f 56 63 64
f 56 64 65
f 56 65 57
f 57 65 66
f 57 66 58
f 58 66 59
f 59 66 67
f 59 67 68
f 59 68 60
f 60 68 69
f 60 69 61
f 61 69 70
f 61 70 62
f 62 70 71
f 62 71 63
f 63 71 72
f 63 72 64
f 64 72 73
f 64 73 65
f 65 73 74
f 65 74 66
f 66 74 67
f 67 74 75
f 67 75 68
f 68 75 76
f 68 76 77
f 68 77 69
f 69 77 70
f 70 77 78
f 70 78 79
f 70 79 71
f 71 79 80
f 71 80 72
f 72 80 81
f 72 81 73
f 73 81 82
f 73 82 74
f 74 82 75
f 75 82 83
f 75 83 84
f 75 84 85
f 75 85 76
f 76 85 77
f 77 85 86
f 77 86 87
f 77 87 78
f 78 87 88
f 78 88 79
f 79 88 80
f 80 88 89
f 80 89 90
f 80 90 81
f 81 90 83
f 81 83 82
f 91 92 89
f 91 89 88
f 91 88 93
f 91 93 94
f 91 94 95
f 91 95 92
f 92 95 96
f 92 96 97
f 92 97 90
f 92 90 89
f 83 90 97
f 83 97 98
f 83 98 84
f 84 98 99
f 84 99 85
f 85 99 100
f 85 100 101
f 85 101 86
f 86 101 102
f 86 102 93
f 86 93 87
f 87 93 88
f 43 42 44
f 44 42 41
f 103 104 105
f 103 105 106
f 103 106 107
f 103 107 108
f 103 108 104
f 104 108 109
f 104 109 94
f 104 94 102
f 104 102 105
f 105 102 101
f 105 101 110
f 105 110 106
f 106 110 111
f 106 111 107
f 107 111 112
f 107 112 113
f 107 113 114
f 107 114 115
f 107 115 108
f 108 115 109
f 109 115 116
f 109 116 95
f 109 95 94
f 111 110 117
f 111 117 112
f 112 117 118
f 112 118 113
f 113 118 119
f 113 119 114
f 114 119 115
f 115 119 116
f 116 119 96
f 116 96 95
f 35 34 36
f 45 41 40
f 99 120 100
f 100 120 117
f 100 117 110
f 100 110 101
f 93 102 94
f 120 99 98
f 120 98 121
f 120 121 118
f 120 118 117
f 121 98 97
f 121 97 96
f 121 96 119
f 121 119 118
f 122 123 124
f 122 124 125
f 122 125 126
f 122 126 127
f 122 127 128
f 122 128 123
f 123 128 129
f 123 129 130
f 123 130 131
f 123 131 132
f 123 132 124
f 124 132 133
f 124 133 134
f 124 134 135
f 124 135 136
f 124 136 125
f 125 136 137
f 125 137 138
f 125 138 139
f 125 139 126
f 126 139 127
f 127 139 140
f 127 140 128
f 128 140 141
f 128 141 129
f 129 141 142
f 129 142 143
f 129 143 144
f 129 144 145
f 129 145 130
f 130 145 146
f 130 146 147
f 130 147 131
f 131 147 132
f 132 147 133
f 133 147 148
f 133 148 149
f 133 149 134
f 134 149 150
f 134 150 151
f 134 151 152
f 134 152 135
f 135 152 153
f 135 153 136
f 136 153 154
f 136 154 137
f 137 154 155
f 137 155 156
f 137 156 138
f 138 156 157
f 138 157 158
f 138 158 159
f 138 159 142
f 138 142 139
f 139 142 140
f 140 142 141
f 144 160 145
f 145 160 161
f 145 161 146
f 146 161 162
f 146 162 163
f 146 163 164
f 146 164 147
f 147 164 165
f 147 165 148
f 148 165 162
f 148 162 149
f 149 162 166
f 149 166 150
f 150 166 161
f 150 161 167
f 150 167 168
f 150 168 151
f 151 168 169
f 151 169 153
f 151 153 152
f 167 170 168
f 168 170 158
f 168 158 157
f 168 157 169
f 169 157 155
f 169 155 171
f 169 171 153
f 153 171 154
f 154 171 155
f 159 143 142
f 143 159 172
f 143 172 173
f 143 173 144
f 144 173 174
f 144 174 160
f 160 174 175
f 160 175 161
f 161 175 176
f 161 176 167
f 167 176 177
f 167 177 170
f 170 177 178
f 170 178 158
f 158 178 179
f 158 179 159
f 159 179 172
f 172 179 180
f 172 180 181
f 172 181 173
f 173 181 174
f 174 181 182
f 174 182 175
f 175 182 183
f 175 183 176
f 176 183 184
f 176 184 177
f 177 184 185
f 177 185 186
f 177 186 178
f 178 186 187
f 178 187 179
f 179 187 180
f 180 187 188
f 180 188 189
f 180 189 181
f 181 189 190
f 181 190 182
f 182 190 191
f 182 191 183
f 183 191 192
f 183 192 184
f 184 192 193
f 184 193 185
f 185 193 194
f 185 194 186
f 186 194 195
f 186 195 187
f 187 195 188
f 188 195 196
f 188 196 189
f 189 196 197
f 189 197 198
f 189 198 190
f 190 198 191
f 191 198 199
f 191 199 200
f 191 200 192
f 192 200 201
f 192 201 193
f 193 201 202
f 193 202 194
f 194 202 203
f 194 203 195
f 195 203 196
f 196 203 204
f 196 204 205
f 196 205 206
f 196 206 197
f 197 206 198
f 198 206 207
f 198 207 208
f 198 208 199
f 199 208 209
f 199 209 200
f 200 209 201
f 201 209 210
f 201 210 211
f 201 211 202
f 202 211 204
f 202 204 203
f 212 213 210
f 212 210 209
f 212 209 214
f 212 214 215
f 212 215 216
f 212 216 213
f 213 216 217
f 213 217 218
f 213 218 211
f 213 211 210
f 204 211 218
f 204 218 219
f 204 219 205
f 205 219 220
f 205 220 206
f 206 220 221
f 206 221 222
f 206 222 207
f 207 222 223
f 207 223 214
f 207 214 208
f 208 214 209
f 164 163 165
f 165 163 162
f 224 225 226
f 224 226 227
f 224 227 228
f 224 228 229
f 224 229 225
f 225 229 230
f 225 230 215
f 225 215 223
f 225 223 226
f 226 223 222
f 226 222 231
f 226 231 227
f 227 231 232
f 227 232 228
f 228 232 233
f 228 233 234
f 228 234 235
f 228 235 236
f 228 236 229
f 229 236 230
f 230 236 237
f 230 237 216
f 230 216 215
f 232 231 238
f 232 238 233
f 233 238 239
f 233 239 234
f 234 239 240
f 234 240 235
f 235 240 236
f 236 240 237
f 237 240 217
f 237 217 216
f 156 155 157
f 166 162 161
f 220 241 221
f 221 241 238
f 221 238 231
f 221 231 222
f 214 223 215
f 241 220 219
f 241 219 242
f 241 242 239
f 241 239 238
f 242 219 218
f 242 218 217
f 242 217 240
f 242 240 239
