# RS2 Model 15342
# Vertices: 120
# Faces: 218

v -24 62 80
v -24 50 80
v 15 50 78
v 15 62 78
v -24 62 66
v -32 64 80
v -32 48 80
v -24 50 66
v 15 52 68
v 55 51 67
v 55 49 80
v 55 63 80
v 15 60 68
v 55 61 67
v 64 64 80
v 64 64 0
v 55 61 36
v 55 51 36
v 64 48 80
v 64 48 0
v -10 48 39
v -24 50 37
v -24 50 25
v -10 48 23
v 6 52 27
v 6 52 35
v -10 64 39
v -24 62 37
v -32 48 0
v -24 48 0
v -24 62 25
v -24 64 0
v -32 64 0
v -10 64 23
v 6 60 35
v 6 60 27
v 16 64 23
v 16 48 23
v 16 48 39
v 16 64 39
v 27 60 35
v 27 60 27
v 27 52 27
v 27 52 35
v 43 48 39
v 43 64 39
v 43 64 23
v 43 48 23
v 55 61 26
v 55 64 0
v 55 51 26
v 55 48 0
v 64 -64 0
v -32 -64 0
v 64 -64 -16
v 64 64 -16
v -32 64 -16
v -32 -64 -16
v -32 62 66
v -32 50 66
v -64 50 66
v -64 62 66
v -64 64 80
v -64 48 80
v -24 -50 80
v -24 -62 80
v 15 -62 78
v 15 -50 78
v -24 -50 66
v -32 -48 80
v -32 -64 80
v -24 -62 66
v 15 -60 68
v 55 -61 67
v 55 -63 80
v 55 -49 80
v 15 -52 68
v 55 -51 67
v 64 -48 80
v 64 -48 0
v 55 -51 36
v 55 -61 36
v 64 -64 80
v -10 -64 39
v -24 -62 37
v -24 -62 25
v -10 -64 23
v 6 -60 27
v 6 -60 35
v -10 -48 39
v -24 -50 37
v -24 -64 0
v -24 -50 25
v -24 -48 0
v -32 -48 0
v -10 -48 23
v 6 -52 35
v 6 -52 27
v 16 -48 23
v 16 -64 23
v 16 -64 39
v 16 -48 39
v 27 -52 35
v 27 -52 27
v 27 -60 27
v 27 -60 35
v 43 -64 39
v 43 -48 39
v 43 -48 23
v 43 -64 23
v 55 -51 26
v 55 -48 0
v 55 -61 26
v 55 -64 0
v -32 -50 66
v -32 -62 66
v -64 -62 66
v -64 -50 66
v -64 -48 80
v -64 -64 80

f 1 2 3
f 1 3 4
f 1 4 5
f 1 5 6
f 1 6 2
f 2 6 7
f 2 7 8
f 2 8 3
f 3 8 9
f 3 9 10
f 3 10 11
f 3 11 4
f 4 11 12
f 4 12 13
f 4 13 5
f 12 14 13
f 14 12 15
f 14 15 16
f 14 16 17
f 14 17 10
f 10 17 18
f 10 18 19
f 10 19 11
f 11 19 12
f 12 19 15
f 15 19 20
f 15 20 16
f 21 22 23
f 21 23 24
f 21 24 25
f 21 25 26
f 21 26 27
f 21 27 28
f 21 28 22
f 22 28 5
f 22 5 8
f 22 8 29
f 22 29 23
f 23 29 30
f 23 30 31
f 31 30 32
f 31 32 33
f 31 33 28
f 31 28 27
f 31 27 34
f 34 27 35
f 34 35 36
f 34 36 24
f 24 36 25
f 25 36 37
f 25 37 38
f 25 38 26
f 26 38 39
f 26 39 35
f 26 35 27
f 36 35 40
f 36 40 37
f 37 40 41
f 37 41 42
f 37 42 38
f 38 42 43
f 38 43 39
f 39 43 44
f 39 44 40
f 39 40 35
f 40 44 41
f 41 44 45
f 41 45 46
f 41 46 42
f 42 46 47
f 42 47 43
f 43 47 48
f 43 48 44
f 44 48 45
f 45 48 18
f 45 18 46
f 46 18 17
f 46 17 47
f 47 17 49
f 49 17 16
f 49 16 50
f 49 50 51
f 51 50 52
f 51 52 20
f 51 20 18
f 51 18 48
f 19 18 20
f 53 16 33
f 53 33 54
f 53 54 55
f 53 55 56
f 53 56 16
f 16 56 57
f 16 57 33
f 33 57 54
f 54 57 58
f 54 58 55
f 59 6 5
f 59 5 28
f 59 28 33
f 59 33 60
f 59 60 61
f 59 61 62
f 59 62 6
f 6 62 63
f 6 63 7
f 7 63 64
f 7 64 60
f 7 60 8
f 8 60 29
f 29 60 33
f 65 66 67
f 65 67 68
f 65 68 69
f 65 69 70
f 65 70 66
f 66 70 71
f 66 71 72
f 66 72 67
f 67 72 73
f 67 73 74
f 67 74 75
f 67 75 68
f 68 75 76
f 68 76 77
f 68 77 69
f 76 78 77
f 78 76 79
f 78 79 80
f 78 80 81
f 78 81 74
f 74 81 82
f 74 82 83
f 74 83 75
f 75 83 76
f 76 83 79
f 79 83 53
f 79 53 80
f 84 85 86
f 84 86 87
f 84 87 88
f 84 88 89
f 84 89 90
f 84 90 91
f 84 91 85
f 85 91 69
f 85 69 72
f 85 72 54
f 85 54 86
f 86 54 92
f 86 92 93
f 93 92 94
f 93 94 95
f 93 95 91
f 93 91 90
f 93 90 96
f 96 90 97
f 96 97 98
f 96 98 87
f 87 98 88
f 88 98 99
f 88 99 100
f 88 100 89
f 89 100 101
f 89 101 97
f 89 97 90
f 98 97 102
f 98 102 99
f 99 102 103
f 99 103 104
f 99 104 100
f 100 104 105
f 100 105 101
f 101 105 106
f 101 106 102
f 101 102 97
f 102 106 103
f 103 106 107
f 103 107 108
f 103 108 104
f 104 108 109
f 104 109 105
f 105 109 110
f 105 110 106
f 106 110 107
f 107 110 82
f 107 82 108
f 108 82 81
f 108 81 109
f 109 81 111
f 111 81 80
f 111 80 112
f 111 112 113
f 113 112 114
f 113 114 53
f 113 53 82
f 113 82 110
f 83 82 53
f 115 70 69
f 115 69 91
f 115 91 95
f 115 95 116
f 115 116 117
f 115 117 118
f 115 118 70
f 70 118 119
f 70 119 71
f 71 119 120
f 71 120 116
f 71 116 72
f 72 116 54
f 54 116 95
f 64 63 62
f 64 62 61
f 64 61 60
f 120 119 118
f 120 118 117
f 120 117 116
