# RS2 Model 15357
# Vertices: 174
# Faces: 278

v 2 118 148
v -1 117 148
v -2 120 148
v 0 120 148
v 2 118 149
v 8 114 149
v 8 116 148
v 0 116 148
v 0 117 149
v -2 120 149
v -4 122 149
v -4 122 148
v 0 120 145
v -2 120 144
v -1 120 142
v -4 120 139
v -5 120 139
v -5 120 135
v -4 120 135
v 0 120 149
v -2 123 149
v -3 124 149
v -9 126 148
v -12 126 149
v -12 126 148
v -3 126 148
v -2 124 148
v 0 116 149
v 7 114 148
v 8 113 148
v 11 112 149
v 10 113 148
v 5 111 148
v 5 112 148
v 3 111 148
v 5 108 148
v -3 105 148
v -2 111 148
v -13 114 149
v -14 113 148
v -15 116 149
v -13 128 148
v -12 128 148
v -12 127 149
v -8 128 148
v -8 129 148
v -8 133 148
v -5 129 148
v -1 129 148
v 0 135 148
v 11 128 148
v 11 126 148
v 13 124 148
v 0 120 154
v -2 120 152
v -2 120 154
v 3 120 159
v 2 120 159
v 2 120 161
v 3 120 161
v -1 120 161
v -1 120 160
v -2 120 160
v -2 120 163
v -12 120 161
v -7 120 156
v -18 120 150
v -19 120 151
v -21 120 148
v -2 120 137
v -2 120 136
v -1 120 134
v -1 120 137
v 3 120 141
v 8 120 136
v 16 120 147
v 14 120 148
v 17 120 150
v 50 113 166
v 44 113 166
v 42 110 74
v 52 110 74
v 50 119 166
v 44 119 166
v 42 120 74
v 52 120 74
v -15 50 35
v -15 50 4
v -36 45 4
v -36 45 35
v 1 -32 28
v 6 52 35
v 6 73 4
v -19 71 4
v -55 29 35
v -55 29 4
v -71 12 4
v -71 12 35
v 0 -33 28
v 1 -33 28
v -45 64 4
v -69 44 4
v -82 -12 35
v -82 -12 4
v -82 -28 4
v -82 -28 35
v -89 23 4
v -103 -7 4
v -82 -48 35
v -82 -48 4
v -77 -65 4
v -77 -65 35
v -103 -27 4
v -103 -50 4
v -66 -89 35
v -66 -89 4
v -50 -100 4
v -50 -100 35
v 1 -34 28
v -96 -73 4
v -83 -103 4
v -29 -110 35
v -29 -110 4
v -14 -116 4
v -14 -116 35
v -62 -117 4
v -35 -129 4
v 11 -116 35
v 11 -116 4
v 28 -111 4
v 28 -111 35
v -16 -137 4
v 13 -137 4
v 52 -100 35
v 52 -100 4
v 66 -90 4
v 66 -90 35
v 2 -33 28
v 34 -130 4
v 64 -117 4
v 79 -67 35
v 79 -67 4
v 83 -51 4
v 83 -51 35
v 83 -104 4
v 98 -75 4
v 84 -26 35
v 84 -26 4
v 83 -8 4
v 83 -8 35
v 104 -53 4
v 105 -25 4
v 71 15 35
v 71 15 4
v 57 29 4
v 57 29 35
v 104 -3 4
v 89 26 4
v 38 45 35
v 38 45 4
v 6 52 4
v 71 44 4
v 47 64 4
v 10 109 161
v -10 109 161
v -10 109 141
v 10 109 141
v 10 129 161
v -10 129 161
v -10 129 141
v 10 129 141
v -52 -74 33
v 53 -74 33
v -52 3 33

f 1 2 3
f 1 3 4
f 1 4 5
f 1 5 6
f 1 6 7
f 1 7 8
f 1 8 2
f 2 8 9
f 2 9 10
f 2 10 3
f 3 10 11
f 3 11 12
f 3 12 4
f 3 4 13
f 3 13 14
f 3 14 4
f 4 14 13
f 13 14 15
f 13 15 14
f 14 15 16
f 14 16 17
f 14 17 15
f 15 17 16
f 16 17 18
f 16 18 19
f 16 19 17
f 17 19 18
f 9 5 20
f 9 20 10
f 10 20 21
f 10 21 11
f 11 21 22
f 11 22 23
f 11 23 24
f 11 24 12
f 12 24 25
f 12 25 26
f 12 26 27
f 12 27 4
f 4 27 20
f 4 20 5
f 28 5 9
f 28 9 8
f 28 8 29
f 28 29 5
f 5 29 6
f 6 29 30
f 6 30 31
f 6 31 7
f 7 31 32
f 7 32 29
f 7 29 8
f 32 30 29
f 29 30 33
f 29 33 34
f 29 34 30
f 30 34 33
f 33 34 35
f 33 35 36
f 33 36 34
f 34 36 35
f 35 36 37
f 35 37 38
f 35 38 36
f 36 38 37
f 37 38 39
f 37 39 40
f 37 40 38
f 38 40 39
f 39 40 41
f 39 41 40
f 32 31 30
f 27 21 20
f 21 27 26
f 21 26 22
f 22 26 23
f 23 26 25
f 23 25 42
f 23 42 43
f 23 43 24
f 24 43 44
f 24 44 25
f 25 44 42
f 42 44 43
f 43 23 45
f 43 45 46
f 43 46 23
f 23 46 45
f 45 46 47
f 45 47 48
f 45 48 46
f 46 48 47
f 47 48 49
f 47 49 50
f 47 50 48
f 48 50 49
f 49 50 51
f 49 51 52
f 49 52 50
f 50 52 51
f 51 52 53
f 51 53 52
f 54 55 10
f 54 10 20
f 54 20 55
f 54 55 56
f 54 56 55
f 56 54 57
f 56 57 58
f 56 58 54
f 54 58 57
f 57 58 59
f 57 59 60
f 57 60 58
f 58 60 59
f 58 59 61
f 58 61 62
f 58 62 59
f 59 62 61
f 61 62 63
f 61 63 64
f 61 64 62
f 62 64 63
f 63 64 65
f 63 65 66
f 63 66 64
f 64 66 65
f 65 66 67
f 65 67 68
f 65 68 66
f 66 68 67
f 67 68 69
f 67 69 68
f 55 20 10
f 19 16 70
f 19 70 71
f 19 71 16
f 16 71 70
f 70 71 72
f 70 72 73
f 70 73 71
f 71 73 72
f 72 73 74
f 72 74 75
f 72 75 73
f 73 75 74
f 74 75 76
f 74 76 77
f 74 77 75
f 75 77 76
f 76 77 78
f 76 78 77
f 79 80 81
f 79 81 82
f 79 82 83
f 79 83 80
f 80 83 84
f 80 84 85
f 80 85 81
f 81 85 82
f 82 85 86
f 82 86 83
f 83 86 84
f 84 86 85
f 87 88 89
f 87 89 90
f 87 90 91
f 87 91 92
f 87 92 93
f 87 93 94
f 87 94 88
f 95 96 97
f 95 97 98
f 95 98 99
f 95 99 100
f 95 100 90
f 95 90 101
f 95 101 102
f 95 102 96
f 103 104 105
f 103 105 106
f 103 106 99
f 103 99 98
f 103 98 107
f 103 107 108
f 103 108 104
f 109 110 111
f 109 111 112
f 109 112 99
f 109 99 106
f 109 106 113
f 109 113 114
f 109 114 110
f 115 116 117
f 115 117 118
f 115 118 119
f 115 119 99
f 115 99 112
f 115 112 120
f 115 120 121
f 115 121 116
f 122 123 124
f 122 124 125
f 122 125 119
f 122 119 118
f 122 118 126
f 122 126 127
f 122 127 123
f 128 129 130
f 128 130 131
f 128 131 119
f 128 119 125
f 128 125 132
f 128 132 133
f 128 133 129
f 134 135 136
f 134 136 137
f 134 137 138
f 134 138 119
f 134 119 131
f 134 131 139
f 134 139 140
f 134 140 135
f 141 142 143
f 141 143 144
f 141 144 138
f 141 138 137
f 141 137 145
f 141 145 146
f 141 146 142
f 147 148 149
f 147 149 150
f 147 150 138
f 147 138 144
f 147 144 151
f 147 151 152
f 147 152 148
f 153 154 155
f 153 155 156
f 153 156 100
f 153 100 138
f 153 138 150
f 153 150 157
f 153 157 158
f 153 158 154
f 159 160 161
f 159 161 92
f 159 92 91
f 159 91 156
f 159 156 162
f 159 162 163
f 159 163 160
f 90 100 91
f 91 100 156
f 89 101 90
f 97 107 98
f 105 113 106
f 111 120 112
f 117 126 118
f 124 132 125
f 130 139 131
f 136 145 137
f 143 151 144
f 149 157 150
f 155 162 156
f 161 93 92
f 164 165 166
f 164 166 167
f 164 167 168
f 164 168 165
f 165 168 169
f 165 169 170
f 165 170 166
f 166 170 167
f 167 170 171
f 167 171 168
f 168 171 169
f 169 171 170
