# RS2 Model 15365
# Vertices: 254
# Faces: 492

v 0 -25 0
v 21 -16 0
v 22 -16 22
v 0 -27 22
v -19 -16 0
v -10 -3 0
v -5 -11 0
v 4 -11 0
v 10 -3 0
v 28 1 0
v 31 1 22
v 31 1 34
v 22 -17 40
v 0 -27 41
v -21 -16 22
v -27 1 0
v -4 5 0
v -20 17 0
v 5 5 0
v 0 22 0
v 21 17 0
v 23 17 22
v 23 17 40
v 39 12 61
v 48 3 62
v 42 -8 63
v 21 -16 56
v 0 -21 50
v -20 -17 40
v -29 1 22
v -22 17 22
v 0 19 22
v 0 19 41
v 0 21 56
v 21 15 56
v 33 9 64
v 42 14 69
v 50 -1 74
v 44 -8 75
v 35 -8 65
v 28 1 63
v 24 1 64
v 16 -19 63
v 0 -25 63
v -19 -16 56
v -42 -9 64
v -29 1 34
v -21 17 40
v -20 15 56
v -16 15 61
v 0 21 61
v 17 15 61
v 27 1 66
v 32 6 77
v 40 11 75
v 33 12 85
v 42 15 85
v 49 6 85
v 47 -7 86
v 37 -8 86
v 32 -5 76
v 14 -15 70
v 0 -23 64
v 17 -20 71
v 21 1 71
v 18 0 63
v 13 -15 62
v 0 -16 64
v -12 -15 70
v -16 -20 71
v -15 -19 63
v 26 1 72
v 15 12 70
v 11 9 64
v 9 6 78
v 13 0 78
v 10 -11 64
v -11 -15 62
v 18 15 69
v 0 18 70
v 0 15 63
v 0 11 78
v 0 5 81
v 4 2 81
v 6 0 81
v 10 -9 78
v 10 -12 69
v 0 22 69
v -13 12 70
v -10 9 64
v -7 6 78
v -4 2 81
v -6 0 81
v 0 0 82
v 0 -8 81
v 4 -4 81
v 0 -15 78
v 9 -12 78
v 7 -11 74
v 7 -13 71
v 4 -21 69
v 0 -17 68
v -9 -11 64
v -20 1 71
v -24 1 72
v -22 1 64
v -27 1 63
v -16 15 69
v -16 0 63
v -11 0 78
v -33 9 64
v -27 0 66
v -35 -9 65
v -32 -5 76
v -44 -8 75
v -48 3 63
v -39 12 62
v -42 14 69
v -40 11 75
v -32 6 77
v -32 0 87
v -37 -8 86
v -47 -7 86
v -49 6 85
v -50 -1 74
v -42 15 85
v -33 12 85
v -29 18 91
v -25 0 93
v -35 -14 92
v -51 -13 91
v -56 7 89
v -43 23 90
v -42 17 90
v -33 13 91
v -29 1 92
v -37 -7 91
v -48 -7 91
v -50 5 89
v -39 10 89
v -33 8 89
v -34 3 90
v -41 -1 90
v -47 3 89
v -48 6 90
v -46 6 100
v -37 8 96
v -32 3 96
v -32 5 89
v -34 2 99
v -35 2 100
v -36 4 101
v -45 3 100
v -48 3 99
v -47 3 93
v -55 3 98
v -54 3 92
v -48 6 94
v -55 6 93
v -49 6 99
v 0 -25 69
v 4 -15 71
v 3 -13 74
v 4 -13 73
v 6 -12 73
v 6 -13 71
v -8 -12 69
v -9 -9 78
v -4 -4 81
v 5 -13 71
v -3 -21 69
v -2 -13 74
v -4 -15 71
v -6 -13 71
v -7 -12 78
v -6 -11 74
v -6 -12 73
v -4 -13 73
v -5 -13 71
v -41 4 105
v -35 6 100
v -34 6 99
v -32 4 96
v -24 4 97
v -24 2 99
v -25 2 101
v -25 4 103
v -25 6 101
v -24 6 99
v -21 8 95
v -23 4 94
v -23 8 106
v -19 5 105
v -18 4 98
v -18 4 95
v -21 8 93
v -22 4 90
v -21 0 93
v -21 0 95
v -23 0 106
v -25 4 106
v -24 8 108
v -19 4 109
v -20 4 107
v -19 3 105
v 44 3 117
v 44 5 117
v 46 4 105
v -16 4 93
v -20 8 87
v -22 4 86
v -20 0 87
v -17 4 87
v -56 6 98
v 56 7 89
v 51 -13 91
v 43 23 90
v 42 17 90
v 50 5 89
v 48 -7 91
v 35 -14 92
v 25 0 93
v 30 1 87
v 29 18 91
v 33 13 91
v 38 10 88
v 43 11 87
v 45 4 87
v 43 -3 88
v 37 -7 91
v 29 1 92
v 34 2 90
v 36 4 102
v 38 11 96
v 40 11 89
v 43 6 96
v 41 -3 100
v 38 -4 89
v 38 -2 100
v 39 2 105
v 37 6 103
v -24 0 108
v -25 0 114
v -27 4 114
v -25 4 110
v -22 4 115
v -25 8 114
v 63 4 115
v -28 -4 88
v -41 -8 86
v -34 14 86
v 39 -9 85
v 28 -5 87
v 46 12 84

f 1 2 3
f 1 3 4
f 1 4 5
f 1 5 6
f 1 6 7
f 1 7 8
f 1 8 2
f 2 8 9
f 2 9 10
f 2 10 11
f 2 11 3
f 3 11 12
f 3 12 13
f 3 13 4
f 4 13 14
f 4 14 15
f 4 15 5
f 5 15 16
f 5 16 6
f 6 16 17
f 17 16 18
f 17 18 19
f 19 18 20
f 19 20 21
f 19 21 9
f 9 21 10
f 10 21 11
f 11 21 22
f 11 22 23
f 11 23 12
f 12 23 24
f 12 24 25
f 12 25 13
f 13 25 26
f 13 26 27
f 13 27 14
f 14 27 28
f 14 28 29
f 14 29 15
f 15 29 30
f 15 30 16
f 16 30 31
f 16 31 18
f 18 31 20
f 20 31 32
f 20 32 21
f 21 32 22
f 22 32 33
f 22 33 23
f 23 33 34
f 23 34 35
f 23 35 36
f 23 36 24
f 24 36 37
f 24 37 38
f 24 38 25
f 25 38 26
f 26 38 39
f 26 39 40
f 26 40 27
f 27 40 41
f 27 41 42
f 27 42 43
f 27 43 28
f 28 43 44
f 28 44 45
f 28 45 29
f 29 45 46
f 29 46 47
f 29 47 30
f 30 47 31
f 31 47 48
f 31 48 32
f 32 48 33
f 33 48 49
f 33 49 34
f 34 49 50
f 34 50 51
f 34 51 35
f 35 51 52
f 35 52 41
f 35 41 53
f 35 53 36
f 36 53 54
f 36 54 55
f 36 55 37
f 37 55 56
f 37 56 57
f 37 57 38
f 38 57 58
f 38 58 59
f 38 59 39
f 39 59 60
f 39 60 61
f 39 61 40
f 40 61 53
f 40 53 41
f 62 63 64
f 62 64 65
f 62 65 66
f 62 66 67
f 62 67 63
f 63 67 68
f 63 68 69
f 63 69 70
f 63 70 71
f 63 71 44
f 63 44 64
f 64 44 43
f 64 43 72
f 64 72 65
f 65 72 73
f 65 73 74
f 65 74 66
f 66 74 75
f 66 75 76
f 66 76 77
f 66 77 67
f 66 67 78
f 73 72 79
f 73 79 80
f 73 80 81
f 73 81 74
f 74 81 82
f 74 82 75
f 75 82 83
f 75 83 84
f 75 84 76
f 76 84 85
f 76 85 86
f 76 86 77
f 77 86 87
f 77 87 68
f 77 68 67
f 80 79 88
f 80 88 89
f 80 89 90
f 80 90 81
f 81 90 91
f 81 91 82
f 82 91 92
f 82 92 83
f 83 92 93
f 83 93 94
f 83 94 84
f 84 94 85
f 85 94 95
f 85 95 96
f 85 96 86
f 86 96 97
f 86 97 98
f 86 98 87
f 87 98 99
f 87 99 100
f 87 100 101
f 87 101 102
f 87 102 68
f 68 102 103
f 68 103 78
f 68 78 69
f 69 78 104
f 69 104 105
f 69 105 70
f 70 105 106
f 70 106 71
f 71 106 107
f 71 107 45
f 71 45 44
f 89 88 108
f 89 108 104
f 89 104 109
f 89 109 90
f 90 109 110
f 90 110 91
f 91 110 93
f 91 93 92
f 104 108 105
f 105 108 50
f 105 50 106
f 106 50 49
f 106 49 107
f 107 49 111
f 107 111 112
f 107 112 45
f 45 112 113
f 45 113 46
f 46 113 114
f 46 114 115
f 46 115 116
f 46 116 47
f 47 116 48
f 48 116 117
f 48 117 49
f 49 117 111
f 111 117 118
f 111 118 119
f 111 119 112
f 112 119 120
f 112 120 113
f 113 120 114
f 114 120 121
f 114 121 122
f 114 122 123
f 114 123 115
f 115 123 124
f 115 124 125
f 115 125 116
f 116 125 117
f 117 125 118
f 118 125 124
f 118 124 126
f 118 126 119
f 119 126 127
f 119 127 120
f 120 127 121
f 121 127 128
f 121 128 129
f 121 129 122
f 122 129 130
f 122 130 123
f 123 130 131
f 123 131 124
f 124 131 132
f 124 132 126
f 126 132 133
f 126 133 127
f 127 133 128
f 128 133 134
f 128 134 135
f 128 135 129
f 129 135 136
f 129 136 130
f 130 136 137
f 130 137 131
f 131 137 138
f 131 138 132
f 132 138 139
f 132 139 133
f 133 139 134
f 134 139 140
f 134 140 141
f 134 141 135
f 135 141 142
f 135 142 136
f 136 142 143
f 136 143 137
f 137 143 144
f 137 144 138
f 138 144 145
f 138 145 139
f 139 145 140
f 140 145 146
f 140 146 147
f 140 147 141
f 141 147 148
f 141 148 149
f 141 149 142
f 142 149 148
f 142 148 150
f 142 150 143
f 143 150 151
f 143 151 152
f 143 152 144
f 144 152 153
f 144 153 154
f 144 154 155
f 155 154 156
f 155 156 157
f 155 157 158
f 158 157 159
f 158 159 160
f 158 160 146
f 158 146 145
f 72 43 42
f 72 42 79
f 79 42 52
f 79 52 88
f 88 52 51
f 88 51 108
f 108 51 50
f 104 78 109
f 41 52 42
f 97 161 101
f 97 101 162
f 97 162 163
f 97 163 98
f 98 163 99
f 99 163 164
f 99 164 165
f 99 165 100
f 100 165 166
f 100 166 162
f 100 162 101
f 102 101 161
f 102 161 167
f 102 167 103
f 103 167 168
f 103 168 109
f 109 168 110
f 110 168 169
f 110 169 93
f 93 169 94
f 94 169 95
f 95 169 168
f 95 168 97
f 95 97 96
f 163 162 170
f 163 170 164
f 164 170 166
f 164 166 165
f 162 166 170
f 171 161 97
f 171 97 172
f 171 172 173
f 171 173 167
f 171 167 161
f 173 174 167
f 167 174 175
f 167 175 168
f 168 175 97
f 97 175 176
f 97 176 172
f 172 176 177
f 172 177 178
f 172 178 173
f 173 178 179
f 173 179 174
f 174 179 177
f 174 177 176
f 174 176 175
f 179 178 177
f 147 146 180
f 147 180 152
f 147 152 181
f 147 181 182
f 147 182 183
f 147 183 148
f 148 183 150
f 150 183 184
f 150 184 185
f 150 185 151
f 151 185 186
f 151 186 152
f 152 186 187
f 152 187 181
f 181 187 188
f 181 188 182
f 182 188 189
f 182 189 183
f 183 189 184
f 184 189 190
f 184 190 191
f 184 191 185
f 184 185 187
f 184 187 188
f 184 188 189
f 189 188 192
f 189 192 190
f 190 192 193
f 190 193 194
f 190 194 195
f 190 195 196
f 190 196 197
f 190 197 191
f 191 197 198
f 191 198 199
f 191 199 185
f 185 199 186
f 185 186 187
f 187 186 200
f 187 200 201
f 187 201 188
f 188 201 192
f 192 201 202
f 192 202 203
f 192 203 204
f 192 204 193
f 193 204 205
f 193 205 206
f 193 206 207
f 193 207 194
f 194 207 208
f 194 208 205
f 194 205 200
f 194 200 199
f 194 199 195
f 195 199 198
f 195 198 209
f 195 209 196
f 196 209 210
f 196 210 211
f 196 211 197
f 197 211 212
f 197 212 198
f 198 212 213
f 198 213 209
f 209 213 210
f 210 213 211
f 211 213 212
f 153 180 146
f 153 146 160
f 153 160 154
f 154 160 214
f 154 214 156
f 156 214 159
f 156 159 157
f 152 180 153
f 215 216 59
f 215 59 58
f 215 58 217
f 215 217 218
f 215 218 219
f 215 219 216
f 216 219 220
f 216 220 221
f 216 221 60
f 216 60 59
f 221 222 223
f 221 223 60
f 60 223 54
f 60 54 61
f 61 54 53
f 217 58 57
f 217 57 224
f 217 224 225
f 217 225 218
f 218 225 226
f 218 226 227
f 218 227 219
f 219 227 228
f 219 228 220
f 220 228 229
f 220 229 230
f 220 230 221
f 221 230 222
f 222 230 231
f 222 231 224
f 222 224 56
f 222 56 223
f 223 56 55
f 223 55 54
f 224 57 56
f 231 225 224
f 225 231 232
f 225 232 226
f 226 232 233
f 226 233 234
f 226 234 235
f 226 235 227
f 227 235 234
f 227 234 228
f 228 234 236
f 228 236 229
f 229 236 237
f 229 237 238
f 229 238 230
f 230 238 231
f 231 238 232
f 232 238 239
f 232 239 233
f 233 239 240
f 233 240 234
f 234 240 241
f 234 241 236
f 236 241 237
f 237 241 240
f 237 240 239
f 237 239 238
f 242 200 204
f 242 204 203
f 242 203 243
f 242 243 244
f 242 244 245
f 242 245 201
f 242 201 200
f 243 203 246
f 243 246 244
f 244 246 247
f 244 247 245
f 245 247 202
f 245 202 201
f 202 247 246
f 202 246 203
f 205 204 200
f 205 208 206
f 206 208 248
f 206 248 207
f 207 248 208
f 186 199 200
f 160 159 214
f 78 109 103
f 249 250 251
