# RS2 Model 15368
# Vertices: 34
# Faces: 50

v 63 -63 -60
v -63 -63 -60
v -63 -63 0
v 63 -63 0
v 63 63 -60
v 63 63 -107
v 63 -63 -107
v -63 -63 -107
v -63 63 -60
v -63 63 0
v 63 63 0
v -63 63 -107
v -63 63 -136
v 63 63 -136
v 63 -63 -136
v -63 -63 -136
v 11 -3 0
v 11 -3 -106
v 6 5 -106
v 6 5 0
v -3 5 -106
v -3 5 0
v -9 -3 -106
v -9 -3 0
v -4 -11 -106
v -4 -11 0
v 5 -11 -106
v 5 -11 0
v -4 -11 -117
v 5 -11 -117
v -9 -3 -117
v -3 5 -117
v 6 5 -117
v 11 -3 -117

f 1 2 3
f 1 3 4
f 1 4 5
f 1 5 6
f 1 6 7
f 1 7 2
f 2 7 8
f 2 8 9
f 2 9 10
f 2 10 3
f 9 5 11
f 9 11 10
f 5 4 11
f 5 9 12
f 5 12 6
f 6 12 13
f 6 13 14
f 6 14 7
f 7 14 15
f 7 15 8
f 8 15 16
f 8 16 12
f 8 12 9
f 16 15 14
f 16 14 13
f 16 13 12
f 17 18 19
f 17 19 20
f 20 19 21
f 20 21 22
f 22 21 23
f 22 23 24
f 24 23 25
f 24 25 26
f 26 25 27
f 26 27 28
f 28 27 18
f 28 18 17
f 29 30 27
f 29 27 25
f 29 25 31
f 31 25 23
f 31 23 32
f 32 23 21
f 32 21 33
f 33 21 19
f 33 19 34
f 34 19 18
f 34 18 30
f 30 18 27
