# RS2 Model 15361
# Vertices: 257
# Faces: 483

v 94 144 170
v 91 146 174
v 88 142 182
v 85 141 180
v 86 143 177
v 90 143 172
v 82 142 182
v 79 146 174
v 76 144 170
v 84 143 177
v 80 143 172
v 97 151 174
v 88 150 173
v 95 152 182
v 97 146 177
v 95 150 183
v 95 149 182
v 93 145 182
v 90 142 185
v 86 143 188
v 85 139 181
v 85 141 187
v 84 143 188
v 80 142 185
v 77 145 182
v 75 149 182
v 75 150 183
v 73 146 177
v 73 151 174
v 82 150 173
v 75 152 182
v 77 158 177
v 80 162 176
v 78 162 165
v 78 150 170
v 85 143 173
v 96 156 185
v 95 150 184
v 95 152 185
v 95 148 187
v 93 143 188
v 90 142 186
v 88 143 188
v 88 142 190
v 85 139 190
v 82 142 190
v 82 143 188
v 77 143 188
v 80 142 186
v 75 148 187
v 75 152 185
v 75 150 184
v 74 156 185
v 92 143 193
v 93 142 190
v 77 142 190
v 78 143 193
v 82 140 191
v 85 143 193
v 85 145 195
v 80 159 199
v 75 154 194
v 75 154 186
v 74 152 185
v 74 154 186
v 75 156 185
v 77 163 190
v 93 163 190
v 90 162 176
v 92 162 165
v 92 163 153
v 78 163 153
v 73 160 164
v 73 149 168
v 76 141 164
v 92 150 170
v 93 158 177
v 95 156 185
v 96 154 186
v 96 152 185
v 95 154 186
v 95 154 194
v 90 159 199
v 88 140 191
v 85 162 194
v 73 158 153
v 73 148 150
v 73 143 161
v 76 136 154
v 94 141 164
v 97 149 168
v 97 160 164
v 97 158 153
v 92 156 143
v 97 148 150
v 96 143 128
v 99 140 132
v 96 133 123
v 99 131 129
v 105 106 132
v 95 108 125
v 95 102 122
v 87 101 125
v 87 108 126
v 87 96 140
v 85 100 146
v 88 111 134
v 97 143 161
v 94 136 154
v 97 139 155
v 96 135 140
v 96 126 136
v 103 102 143
v 105 99 130
v 97 90 116
v 91 90 116
v 91 82 120
v 95 94 145
v 95 100 148
v 88 117 143
v 82 120 143
v 75 100 148
v 83 96 140
v 83 101 125
v 83 108 126
v 82 111 134
v 78 132 146
v 92 132 146
v 73 139 155
v 74 135 140
v 78 124 140
v 92 124 140
v 78 156 143
v 74 143 128
v 71 140 132
v 74 126 136
v 67 102 143
v 71 131 129
v 65 106 132
v 67 96 140
v 75 94 145
v 79 82 120
v 79 90 116
v 75 102 122
v 75 108 125
v 65 99 130
v 74 133 123
v 103 144 138
v 103 146 132
v 103 139 142
v 101 140 149
v 97 154 156
v 109 147 141
v 110 146 132
v 105 136 122
v 105 132 126
v 102 133 135
v 112 133 136
v 109 141 143
v 109 141 150
v 109 145 159
v 97 158 165
v 109 158 153
v 109 154 156
v 112 132 126
v 112 136 122
v 109 137 114
v 104 131 118
v 109 124 120
v 106 156 162
v 97 152 169
v 106 151 164
v 115 124 120
v 114 129 112
v 115 137 114
v 109 129 112
v 56 129 112
v 55 124 120
v 58 132 126
v 55 137 114
v 61 129 112
v 61 124 120
v 65 132 126
v 68 133 135
v 58 133 136
v 61 141 143
v 60 146 132
v 58 136 122
v 61 137 114
v 66 131 118
v 65 136 122
v 67 139 142
v 61 141 150
v 61 145 159
v 61 154 156
v 61 147 141
v 67 144 138
v 67 146 132
v 73 152 169
v 73 158 165
v 64 156 162
v 64 151 164
v 73 154 156
v 61 158 153
v 69 140 149
v 73 82 120
v 73 90 116
v 69 80 123
v 82 80 123
v 83 92 115
v 69 92 115
v 66 84 116
v 69 77 123
v 82 78 122
v 84 84 116
v 103 96 140
v 97 82 120
v 101 80 123
v 101 92 115
v 87 92 115
v 88 80 123
v 89 80 95
v 87 58 112
v 88 75 111
v 91 82 103
v 100 79 94
v 99 82 103
v 98 75 111
v 101 59 109
v 99 60 116
v 97 54 113
v 89 60 116
v 90 53 115
v 94 72 113
v 87 78 122
v 86 84 116
v 87 92 110
v 101 92 110
v 104 84 116
v 101 77 123
v 82 75 111
v 83 58 112
v 81 80 95
v 79 82 103
v 76 72 113
v 81 60 116
v 80 53 115
v 73 54 113
v 71 60 116
v 69 59 109
v 72 75 111
v 70 79 94
v 71 82 103
v 70 77 94
v 70 60 107
v 69 92 110
v 82 92 110

f 1 2 3
f 1 3 4
f 1 4 5
f 1 5 6
f 7 8 9
f 7 9 4
f 7 4 3
f 10 5 4
f 10 4 9
f 10 9 11
f 12 1 13
f 12 13 14
f 12 14 15
f 12 15 1
f 1 15 2
f 2 15 16
f 2 16 17
f 2 17 18
f 2 18 3
f 3 18 19
f 3 19 20
f 3 20 21
f 21 20 22
f 21 22 23
f 21 23 7
f 7 23 24
f 7 24 25
f 7 25 8
f 8 25 26
f 8 26 27
f 8 27 28
f 8 28 9
f 9 28 29
f 9 29 30
f 30 29 31
f 30 31 32
f 30 32 33
f 30 33 34
f 30 34 35
f 30 35 13
f 30 13 36
f 30 36 8
f 8 36 10
f 10 36 5
f 5 36 2
f 2 36 13
f 15 14 16
f 16 14 37
f 16 37 38
f 16 38 17
f 17 38 39
f 17 39 40
f 17 40 18
f 18 40 41
f 18 41 19
f 19 41 42
f 19 42 20
f 20 42 41
f 20 41 43
f 20 43 44
f 20 44 45
f 20 45 22
f 22 45 23
f 23 45 46
f 23 46 47
f 23 47 48
f 23 48 49
f 23 49 24
f 24 49 48
f 24 48 25
f 25 48 50
f 25 50 26
f 26 50 51
f 26 51 52
f 26 52 27
f 27 52 53
f 27 53 31
f 27 31 29
f 27 29 28
f 40 54 55
f 40 55 41
f 41 55 44
f 41 44 43
f 56 57 50
f 56 50 48
f 56 48 46
f 56 46 58
f 56 58 57
f 57 58 59
f 57 59 60
f 57 60 61
f 57 61 62
f 57 62 50
f 50 62 51
f 51 62 63
f 51 63 64
f 51 64 52
f 52 64 53
f 53 64 65
f 53 65 66
f 53 66 31
f 31 66 32
f 32 66 67
f 32 67 33
f 33 67 68
f 33 68 69
f 33 69 34
f 34 69 70
f 34 70 71
f 34 71 72
f 34 72 73
f 34 73 74
f 34 74 35
f 35 74 75
f 35 75 76
f 35 76 13
f 13 76 70
f 13 70 69
f 13 69 77
f 13 77 14
f 14 77 78
f 14 78 37
f 37 78 79
f 37 79 80
f 37 80 38
f 38 80 39
f 39 80 81
f 39 81 82
f 39 82 40
f 40 82 54
f 54 82 83
f 54 83 60
f 54 60 59
f 54 59 84
f 54 84 55
f 55 84 44
f 44 84 45
f 45 84 59
f 45 59 58
f 45 58 46
f 48 47 46
f 79 81 80
f 81 79 78
f 81 78 68
f 81 68 82
f 82 68 83
f 83 68 85
f 83 85 61
f 83 61 60
f 64 63 65
f 65 63 66
f 66 63 67
f 67 63 62
f 67 62 61
f 67 61 85
f 67 85 68
f 77 69 68
f 77 68 78
f 74 73 86
f 74 86 87
f 74 87 88
f 74 88 75
f 75 88 89
f 75 89 90
f 75 90 76
f 76 90 91
f 76 91 70
f 70 91 92
f 70 92 71
f 71 92 93
f 71 93 94
f 94 93 95
f 94 95 96
f 96 95 97
f 96 97 98
f 98 97 99
f 98 99 100
f 98 100 101
f 101 100 102
f 101 102 103
f 101 103 104
f 104 103 105
f 104 105 106
f 104 106 107
f 108 95 93
f 108 93 92
f 108 92 91
f 108 91 90
f 108 90 109
f 108 109 110
f 108 110 95
f 95 110 111
f 95 111 97
f 97 111 112
f 97 112 99
f 99 112 100
f 100 112 113
f 100 113 114
f 100 114 102
f 102 114 115
f 102 115 116
f 102 116 103
f 103 116 117
f 103 117 105
f 105 117 118
f 105 118 106
f 106 118 119
f 106 119 120
f 106 120 121
f 106 121 122
f 106 122 123
f 106 123 124
f 106 124 125
f 106 125 126
f 89 127 128
f 89 128 109
f 89 109 90
f 88 87 129
f 88 129 89
f 89 129 130
f 89 130 127
f 127 130 131
f 127 131 132
f 127 132 128
f 128 132 112
f 128 112 111
f 128 111 109
f 109 111 110
f 87 86 133
f 87 133 134
f 87 134 135
f 87 135 130
f 87 130 129
f 86 72 133
f 72 86 73
f 130 136 131
f 131 136 137
f 131 137 122
f 131 122 121
f 131 121 132
f 132 121 120
f 132 120 119
f 132 119 113
f 132 113 112
f 130 135 138
f 130 138 136
f 136 138 137
f 137 138 139
f 137 139 140
f 137 140 141
f 137 141 122
f 122 141 123
f 123 141 142
f 123 142 143
f 123 143 124
f 124 143 144
f 124 144 125
f 125 144 145
f 145 144 146
f 145 146 139
f 145 139 147
f 147 139 138
f 147 138 134
f 134 138 135
f 148 149 150
f 148 150 151
f 148 151 152
f 148 152 93
f 148 93 153
f 148 153 154
f 148 154 149
f 149 154 155
f 149 155 150
f 150 155 156
f 150 156 157
f 150 157 158
f 150 158 159
f 150 159 160
f 150 160 151
f 151 160 161
f 151 161 108
f 151 108 152
f 152 108 162
f 152 162 93
f 93 162 163
f 93 163 153
f 153 163 164
f 153 164 159
f 153 159 154
f 154 159 165
f 154 165 166
f 154 166 155
f 155 166 167
f 155 167 168
f 155 168 156
f 156 168 169
f 156 169 165
f 156 165 157
f 157 165 158
f 158 165 159
f 170 162 171
f 170 171 172
f 170 172 161
f 170 161 164
f 170 164 163
f 170 163 162
f 172 171 108
f 172 108 161
f 171 162 108
f 161 160 159
f 161 159 164
f 165 173 174
f 165 174 175
f 165 175 166
f 166 175 167
f 167 175 174
f 167 174 176
f 167 176 168
f 168 176 169
f 169 176 173
f 169 173 165
f 173 176 174
f 177 178 179
f 177 179 180
f 177 180 181
f 177 181 182
f 177 182 178
f 178 182 179
f 179 182 183
f 179 183 184
f 179 184 185
f 179 185 186
f 179 186 187
f 179 187 188
f 179 188 180
f 180 188 189
f 180 189 181
f 181 189 190
f 181 190 182
f 182 190 183
f 183 190 191
f 183 191 192
f 183 192 184
f 184 192 185
f 185 192 186
f 186 192 193
f 186 193 194
f 186 194 195
f 186 195 196
f 186 196 187
f 187 196 197
f 187 197 198
f 187 198 191
f 187 191 188
f 188 191 189
f 189 191 190
f 199 200 201
f 199 201 202
f 199 202 88
f 199 88 200
f 200 88 203
f 200 203 86
f 200 86 204
f 200 204 201
f 201 204 195
f 201 195 194
f 201 194 202
f 202 194 88
f 88 194 205
f 88 205 203
f 203 205 197
f 203 197 86
f 86 197 196
f 86 196 204
f 204 196 195
f 194 193 205
f 205 193 192
f 205 192 197
f 197 192 198
f 198 192 191
f 206 141 140
f 206 140 146
f 206 146 207
f 206 207 208
f 206 208 209
f 206 209 142
f 206 142 141
f 207 146 144
f 207 144 143
f 207 143 210
f 207 210 211
f 207 211 208
f 208 211 212
f 208 212 213
f 208 213 209
f 209 213 214
f 209 214 215
f 209 215 210
f 209 210 143
f 209 143 142
f 216 118 217
f 216 217 114
f 216 114 113
f 216 113 118
f 118 113 119
f 217 115 114
f 115 217 218
f 115 218 219
f 115 219 220
f 115 220 116
f 116 220 221
f 116 221 117
f 117 221 217
f 117 217 118
f 139 146 140
f 222 223 224
f 222 224 225
f 222 225 226
f 226 225 227
f 226 227 228
f 226 228 229
f 229 228 230
f 229 230 231
f 231 230 232
f 231 232 233
f 233 232 223
f 223 232 224
f 224 232 234
f 224 234 235
f 224 235 236
f 224 236 225
f 225 236 237
f 225 237 227
f 227 237 238
f 227 238 239
f 227 239 228
f 228 239 240
f 228 240 234
f 228 234 230
f 230 234 232
f 240 235 234
f 235 240 221
f 235 221 236
f 236 221 220
f 236 220 237
f 237 220 219
f 237 219 238
f 238 219 239
f 239 219 218
f 239 218 240
f 240 218 221
f 221 218 217
f 241 242 243
f 241 243 244
f 241 244 215
f 241 215 214
f 241 214 245
f 241 245 246
f 241 246 242
f 242 246 247
f 247 246 248
f 248 246 249
f 248 249 250
f 250 249 251
f 250 251 252
f 252 251 253
f 252 253 244
f 252 244 243
f 245 251 249
f 245 249 246
f 254 255 252
f 245 214 213
f 245 213 251
f 251 213 212
f 251 212 253
f 253 212 256
f 253 256 257
f 253 257 244
f 244 257 215
f 215 257 210
f 210 257 211
f 211 257 256
f 211 256 212
