# RS2 Model 15413
# Vertices: 59
# Faces: 114

v 19 -7 85
v 19 -10 83
v 23 -9 83
v 23 -8 84
v 23 -8 83
v 19 -7 84
v 28 -8 82
v 28 -9 83
v 28 -8 83
v 28 -8 80
v 31 -8 81
v 28 -11 83
v 31 -11 85
v 31 -8 83
v 28 -7 80
v 28 -7 78
v 31 -8 80
v 34 -8 80
v 35 -8 82
v 34 -9 83
v 31 -11 81
v 30 -13 83
v 31 -13 85
v 32 -13 83
v 34 -11 83
v 34 -8 83
v 34 -7 80
v 34 -6 78
v 28 -6 78
v 28 -5 77
v 28 -5 76
v 31 -7 78
v 34 -7 78
v 39 -8 82
v 39 -9 83
v 39 -8 84
v 43 -7 83
v 43 -10 83
v 43 -7 84
v 31 -16 81
v 31 -39 83
v 28 -16 83
v 31 -13 81
v 34 -16 83
v 31 -16 85
v 33 2 76
v 34 -2 75
v 28 -2 75
v 29 2 76
v 30 4 78
v 32 4 78
v 33 2 77
v 34 -2 76
v 34 -5 77
v 34 -5 76
v 28 -2 76
v 29 2 77
v 30 4 79
v 32 4 79

f 1 2 3
f 1 3 4
f 1 4 5
f 1 5 6
f 1 6 2
f 2 6 5
f 2 5 3
f 3 5 7
f 3 7 8
f 3 8 4
f 4 8 9
f 4 9 5
f 5 9 7
f 7 9 10
f 7 10 11
f 7 11 8
f 8 11 12
f 8 12 13
f 8 13 14
f 8 14 9
f 9 14 15
f 9 15 10
f 10 15 16
f 10 16 17
f 10 17 11
f 11 17 18
f 11 18 19
f 11 19 20
f 11 20 21
f 11 21 12
f 12 21 22
f 12 22 23
f 12 23 13
f 13 23 24
f 13 24 25
f 13 25 14
f 14 25 20
f 14 20 26
f 14 26 27
f 14 27 15
f 15 27 28
f 15 28 29
f 15 29 16
f 16 29 30
f 16 30 31
f 16 31 32
f 16 32 17
f 17 32 18
f 18 32 33
f 18 33 27
f 18 27 19
f 19 27 26
f 19 26 34
f 19 34 20
f 20 34 35
f 20 35 26
f 26 35 36
f 26 36 34
f 34 36 37
f 34 37 35
f 35 37 38
f 35 38 36
f 36 38 39
f 36 39 37
f 37 39 38
f 40 41 42
f 40 42 43
f 40 43 24
f 40 24 44
f 40 44 41
f 41 44 45
f 41 45 42
f 42 45 22
f 42 22 43
f 43 22 21
f 43 21 25
f 43 25 24
f 21 20 25
f 44 24 23
f 44 23 45
f 45 23 22
f 46 47 48
f 46 48 49
f 46 49 50
f 46 50 51
f 46 51 52
f 46 52 53
f 46 53 47
f 47 53 54
f 47 54 55
f 47 55 31
f 47 31 48
f 48 31 56
f 48 56 57
f 48 57 49
f 49 57 58
f 49 58 50
f 50 58 51
f 51 58 59
f 51 59 52
f 52 59 57
f 52 57 56
f 52 56 53
f 53 56 30
f 53 30 54
f 54 30 29
f 54 29 28
f 54 28 33
f 54 33 55
f 55 33 32
f 55 32 31
f 57 59 58
f 27 33 28
f 31 30 56
