# RS2 Model 15424
# Vertices: 245
# Faces: 438

v -5 -3 164
v 0 -6 164
v 0 -6 168
v -1 -6 168
v -9 1 168
v -7 -4 158
v -2 -13 159
v 2 -13 159
v 5 -3 164
v 1 -6 168
v 9 1 168
v 4 -6 170
v 0 -6 172
v 0 -9 168
v -4 -6 170
v -6 -6 172
v -10 0 172
v -8 7 177
v -9 2 168
v -9 1 160
v 7 -4 158
v 9 2 168
v 8 7 177
v 10 0 172
v 6 -6 172
v 4 -6 171
v 3 -5 173
v 2 -6 174
v 0 -3 178
v -2 -6 174
v -3 -5 173
v -4 -6 171
v 9 1 160
v 10 6 163
v 6 14 175
v 10 9 186
v 9 -5 196
v 5 -2 178
v 0 -3 184
v -5 -2 178
v 6 14 167
v 0 15 174
v 9 22 193
v 0 16 185
v -10 9 186
v -9 22 193
v -6 14 175
v -10 6 163
v -6 0 155
v -6 -4 158
v -6 14 167
v -6 9 158
v -12 -3 151
v 0 -3 151
v 6 0 155
v 12 -3 151
v 6 9 158
v 6 -4 158
v -9 -5 196
v -5 -3 191
v 0 9 186
v 0 -3 185
v 5 -3 191
v 0 -8 198
v 0 -6 195
v -3 -3 191
v 0 -3 188
v 3 -3 191
v 15 14 156
v 10 25 124
v 0 14 157
v 16 12 157
v 15 23 125
v 19 45 105
v 12 50 106
v -10 25 124
v -15 14 156
v -10 4 122
v 10 4 122
v -15 7 124
v -16 0 154
v -17 14 125
v -16 12 157
v -15 23 125
v -19 45 105
v -12 50 106
v 15 7 124
v 16 0 154
v 17 14 125
v 19 -9 122
v 21 -14 120
v 13 -12 120
v 14 -9 122
v 14 -3 122
v 21 -5 122
v 19 -10 126
v 20 -17 127
v 18 -17 125
v 19 -16 121
v 13 -16 121
v 12 -15 127
v 14 -9 127
v 14 -5 128
v 12 1 134
v 13 4 120
v 26 2 122
v 21 -7 128
v 15 -17 125
v 25 -1 135
v 14 7 135
v 15 10 122
v 25 9 122
v 24 6 135
v 22 3 138
v 14 5 142
v 15 13 139
v 23 10 135
v 14 8 153
v 15 16 151
v 16 19 153
v 17 14 140
v 27 12 135
v 27 1 139
v 16 3 143
v 16 7 157
v 29 10 148
v 24 20 143
v 23 1 150
v -24 -16 176
v -24 -18 181
v -32 -18 181
v -29 -16 176
v -30 -16 172
v -23 -16 172
v -24 -12 178
v -24 -12 184
v -27 -13 185
v -25 -18 184
v -30 -18 183
v -32 -12 184
v -29 -12 178
v -30 -10 174
v -33 -4 167
v -33 -17 164
v -20 -17 166
v -23 -10 174
v -30 -13 185
v -20 -5 169
v -20 -4 166
v -30 -3 166
v -30 -10 155
v -20 -11 155
v -18 -2 153
v -27 -3 154
v -31 -3 152
v -20 -1 151
v -15 9 146
v -18 3 160
v -27 1 161
v -31 3 162
v -30 10 151
v -25 1 144
v -16 10 143
v -15 13 153
v -16 17 154
v -20 5 161
v -25 13 160
v -31 19 184
v -28 34 185
v -28 16 179
v -28 -10 180
v -29 -8 182
v -28 -10 183
v -28 17 189
v -25 19 184
v -27 -8 182
v -26 -11 182
v -27 -12 180
v -28 -6 173
v -29 -12 180
v -30 -11 182
v -29 -11 183
v -28 -9 188
v -27 -11 183
v -26 -24 178
v -27 -23 180
v -27 -23 182
v -26 -24 184
v -28 -28 179
v -30 -24 178
v -29 -23 180
v -27 -18 180
v -27 -19 182
v -29 -19 182
v -29 -23 182
v -30 -24 184
v -29 -18 180
v 35 -7 125
v 35 -5 118
v 34 12 119
v 34 13 125
v 36 -5 146
v 34 -12 146
v 34 -12 124
v 34 -12 117
v 35 -6 95
v 33 12 108
v 32 16 104
v 32 16 125
v 31 16 156
v 33 11 150
v 34 -8 150
v 16 -27 155
v 21 -25 149
v 20 -25 123
v 20 -25 117
v 20 -24 107
v 33 -11 96
v 34 -8 88
v 30 14 125
v 31 13 119
v 33 -4 118
v 32 -5 124
v 33 -5 146
v 29 12 150
v 29 18 157
v 29 18 125
v 29 19 105
v 30 13 108
v 33 -5 96
v 30 -10 95
v 31 -11 118
v 31 -11 123
v 31 -11 146
v 31 -7 151
v 31 -7 89
v 14 -26 104
v 18 -24 107
v 18 -23 118
v 17 -23 123
v 17 -23 148
v 13 -26 155
v 17 -26 104
v 17 -27 122
v 14 -27 122

f 1 2 3
f 1 3 4
f 1 4 5
f 1 5 6
f 1 6 7
f 1 7 2
f 2 7 8
f 2 8 9
f 2 9 3
f 3 9 10
f 10 9 11
f 10 11 12
f 10 12 13
f 10 13 14
f 14 13 4
f 4 13 15
f 4 15 5
f 5 15 16
f 5 16 17
f 5 17 18
f 5 18 19
f 5 19 20
f 5 20 6
f 9 8 21
f 9 21 11
f 11 21 22
f 11 22 23
f 11 23 24
f 11 24 25
f 11 25 12
f 12 25 26
f 12 26 13
f 13 26 27
f 13 27 28
f 13 28 29
f 13 29 30
f 13 30 31
f 13 31 16
f 13 16 32
f 13 32 15
f 15 32 16
f 21 33 22
f 22 33 34
f 22 34 23
f 23 34 35
f 23 35 36
f 23 36 37
f 23 37 38
f 23 38 24
f 24 38 25
f 25 38 28
f 25 28 27
f 25 27 26
f 38 29 28
f 29 38 37
f 29 37 39
f 29 39 40
f 29 40 30
f 30 40 16
f 30 16 31
f 34 41 35
f 35 41 42
f 35 42 43
f 35 43 36
f 36 43 44
f 36 44 45
f 36 45 39
f 36 39 37
f 40 17 16
f 17 40 18
f 18 40 45
f 18 45 46
f 18 46 47
f 18 47 48
f 18 48 19
f 19 48 20
f 20 48 49
f 20 49 50
f 47 51 48
f 48 51 52
f 48 52 49
f 49 52 53
f 49 53 54
f 49 54 55
f 55 54 56
f 55 56 57
f 55 57 34
f 55 34 33
f 55 33 58
f 42 41 51
f 42 51 47
f 42 47 44
f 42 44 43
f 57 52 51
f 57 51 41
f 57 41 34
f 39 59 40
f 40 59 45
f 45 59 39
f 44 47 46
f 44 46 45
f 60 61 62
f 60 62 63
f 60 63 64
f 60 64 61
f 61 64 63
f 61 63 62
f 65 66 67
f 65 67 68
f 69 70 71
f 69 71 57
f 69 57 72
f 69 72 73
f 69 73 70
f 70 73 74
f 70 74 73
f 74 70 75
f 74 75 70
f 70 75 76
f 70 76 71
f 71 76 77
f 71 77 52
f 71 52 57
f 78 79 54
f 78 54 53
f 78 53 80
f 80 53 81
f 80 81 82
f 82 81 83
f 82 83 84
f 84 83 77
f 84 77 76
f 84 76 85
f 84 85 76
f 76 85 86
f 76 86 70
f 70 86 75
f 75 86 76
f 76 86 85
f 54 79 56
f 56 79 87
f 56 87 88
f 56 88 57
f 57 88 72
f 72 88 89
f 72 89 73
f 87 89 88
f 81 52 83
f 83 52 77
f 53 52 81
f 90 91 92
f 90 92 93
f 90 93 94
f 90 94 95
f 90 95 96
f 90 96 97
f 90 97 91
f 91 97 98
f 91 98 99
f 91 99 100
f 91 100 92
f 92 100 101
f 92 101 102
f 92 102 93
f 93 102 103
f 93 103 94
f 94 103 104
f 94 104 105
f 94 105 95
f 95 105 106
f 95 106 107
f 95 107 96
f 96 107 102
f 96 102 97
f 97 102 101
f 97 101 98
f 98 101 108
f 98 108 99
f 99 108 100
f 100 108 101
f 102 107 103
f 103 107 109
f 103 109 104
f 104 109 110
f 104 110 105
f 105 110 111
f 105 111 112
f 105 112 106
f 106 112 109
f 106 109 107
f 110 109 113
f 110 113 114
f 110 114 115
f 110 115 116
f 110 116 111
f 111 116 112
f 112 116 117
f 112 117 114
f 112 114 113
f 112 113 109
f 116 115 118
f 116 118 119
f 116 119 120
f 116 120 121
f 116 121 117
f 117 121 122
f 117 122 114
f 114 122 123
f 114 123 115
f 115 123 124
f 115 124 118
f 118 124 125
f 118 125 119
f 119 125 120
f 120 125 126
f 120 126 127
f 120 127 121
f 121 127 122
f 122 127 126
f 122 126 123
f 123 126 128
f 123 128 124
f 124 128 125
f 125 128 126
f 129 130 131
f 129 131 132
f 129 132 133
f 129 133 134
f 129 134 135
f 129 135 136
f 129 136 130
f 130 136 137
f 130 137 138
f 130 138 139
f 130 139 131
f 131 139 140
f 131 140 141
f 131 141 132
f 132 141 142
f 132 142 133
f 133 142 143
f 133 143 144
f 133 144 134
f 134 144 145
f 134 145 146
f 134 146 135
f 135 146 141
f 135 141 136
f 136 141 140
f 136 140 137
f 137 140 147
f 137 147 138
f 138 147 139
f 139 147 140
f 146 142 141
f 142 146 148
f 142 148 143
f 143 148 149
f 143 149 150
f 143 150 151
f 143 151 144
f 144 151 145
f 145 151 152
f 145 152 149
f 145 149 148
f 145 148 146
f 153 152 151
f 153 151 154
f 153 154 155
f 153 155 156
f 153 156 157
f 153 157 158
f 153 158 149
f 153 149 152
f 149 158 159
f 149 159 150
f 150 159 151
f 151 159 154
f 154 159 160
f 154 160 155
f 155 160 161
f 155 161 162
f 155 162 156
f 156 162 163
f 156 163 157
f 157 163 164
f 157 164 158
f 158 164 165
f 158 165 166
f 158 166 159
f 159 166 160
f 160 166 167
f 160 167 161
f 161 167 165
f 161 165 163
f 161 163 162
f 163 165 164
f 165 167 166
f 168 169 170
f 168 170 171
f 168 171 172
f 168 172 173
f 168 173 174
f 168 174 169
f 169 174 175
f 169 175 170
f 170 175 171
f 171 175 176
f 171 176 177
f 171 177 178
f 171 178 179
f 171 179 180
f 171 180 181
f 171 181 172
f 172 181 173
f 173 181 182
f 173 182 183
f 173 183 184
f 173 184 177
f 173 177 176
f 173 176 175
f 173 175 174
f 183 182 184
f 179 178 180
f 180 182 181
f 184 178 177
f 185 186 187
f 185 187 188
f 185 188 189
f 185 189 190
f 185 190 186
f 186 190 191
f 186 191 192
f 186 192 193
f 186 193 187
f 187 193 194
f 187 194 195
f 187 195 188
f 188 195 196
f 188 196 189
f 189 196 190
f 190 196 191
f 191 196 195
f 191 195 197
f 191 197 192
f 195 194 197
f 198 199 200
f 198 200 201
f 198 201 202
f 198 202 203
f 198 203 204
f 198 204 199
f 199 204 205
f 199 205 206
f 199 206 200
f 200 206 207
f 200 207 208
f 200 208 209
f 200 209 201
f 201 209 210
f 201 210 211
f 201 211 202
f 202 211 210
f 202 210 212
f 202 212 203
f 203 212 213
f 203 213 214
f 203 214 215
f 203 215 204
f 204 215 205
f 205 215 216
f 205 216 217
f 205 217 218
f 205 218 206
f 206 218 219
f 206 219 208
f 206 208 207
f 220 221 222
f 220 222 223
f 220 223 224
f 220 224 225
f 220 225 226
f 220 226 227
f 220 227 221
f 221 227 228
f 221 228 229
f 221 229 222
f 222 229 230
f 222 230 231
f 222 231 232
f 222 232 223
f 223 232 233
f 223 233 224
f 224 233 234
f 224 234 235
f 224 235 226
f 224 226 225
f 230 229 228
f 230 228 236
f 230 236 231
f 231 236 237
f 231 237 238
f 231 238 232
f 232 238 239
f 232 239 233
f 233 239 240
f 233 240 234
f 234 240 241
f 234 241 242
f 234 242 235
f 235 242 212
f 235 212 210
f 235 210 226
f 226 210 209
f 226 209 227
f 227 209 208
f 227 208 228
f 228 208 219
f 228 219 236
f 236 219 243
f 236 243 237
f 237 243 244
f 237 244 245
f 237 245 239
f 237 239 238
f 218 217 243
f 218 243 219
f 215 214 213
f 215 213 244
f 215 244 216
f 216 244 243
f 216 243 217
f 242 241 240
f 242 240 245
f 242 245 213
f 242 213 212
f 245 240 239
f 213 245 244
