# RS2 Model 15487
# Vertices: 259
# Faces: 372

v -8 60 235
v -8 36 257
v 21 36 258
v 21 60 236
v -8 64 235
v -8 64 225
v -15 0 225
v -8 37 261
v -8 56 243
v -8 31 293
v -8 33 297
v -8 33 309
v -1 61 282
v -4 64 239
v -1 64 235
v 21 64 236
v 14 61 283
v 21 33 310
v 21 33 298
v 24 64 240
v 21 0 236
v 24 -64 240
v 27 64 236
v 27 -64 236
v 51 64 236
v 51 -64 236
v 55 -64 240
v 55 64 240
v 59 -64 237
v 59 64 237
v 64 64 240
v 64 -64 240
v 64 -64 0
v 64 64 0
v 21 -60 236
v 21 -39 256
v -8 -39 255
v -8 -60 235
v 21 -64 236
v 21 -40 260
v 21 -56 246
v 21 -35 295
v 21 -38 298
v 21 -38 310
v 14 -62 283
v -1 -62 282
v -1 -64 235
v -4 -64 239
v -8 -64 235
v -8 -38 309
v -8 -38 297
v -8 -64 225
v 2 -25 202
v 4 -49 199
v 14 -64 199
v 16 -64 190
v 16 -26 183
v 16 -43 159
v 16 -64 121
v 16 -48 121
v 10 -64 55
v 10 -48 55
v -2 -64 0
v -2 -48 0
v 19 -45 52
v 12 -45 0
v 32 -42 50
v 30 -42 0
v 45 -40 47
v 45 -40 0
v 54 -38 43
v 54 -38 0
v 54 38 43
v 54 38 0
v 45 40 47
v 45 40 0
v 32 42 50
v 30 42 0
v 19 45 52
v 12 45 0
v 10 48 55
v -2 48 0
v 10 64 55
v -2 64 0
v -8 -1 269
v -8 13 266
v -8 -18 263
v 21 -18 264
v 21 -1 270
v 21 13 267
v -8 13 271
v 21 -18 269
v -8 -40 259
v -8 -18 268
v -8 -1 274
v 21 -1 275
v 21 -1 304
v 21 -1 307
v 23 -1 316
v 21 -38 335
v 6 -39 340
v -8 -38 334
v -10 -1 315
v -8 -1 306
v -8 -1 303
v -8 -35 294
v -8 -56 245
v -10 -1 340
v -8 33 333
v 6 33 339
v 21 33 334
v 23 -1 341
v 21 31 294
v 21 56 244
v 21 37 262
v 6 -1 349
v 16 64 121
v 16 48 121
v 16 64 190
v 16 43 159
v 16 26 183
v 14 64 199
v 4 31 199
v 2 8 202
v 16 -9 191
v 25 -8 188
v 25 -24 180
v 25 -40 156
v 25 -45 118
v 35 -42 116
v 45 -40 113
v 54 -38 109
v 54 38 109
v 45 40 113
v 35 42 116
v 25 45 118
v 16 9 191
v 25 8 188
v 35 7 186
v 35 -7 186
v 35 -22 178
v 35 -38 154
v 45 -36 151
v 54 -34 147
v 54 34 147
v 45 36 151
v 35 38 154
v 25 40 156
v 27 -64 226
v 51 64 226
v 27 64 226
v 51 -64 226
v 25 24 180
v 35 22 178
v 45 21 175
v 45 6 183
v 45 -6 183
v 45 -21 175
v 54 -20 171
v 54 20 171
v 54 5 179
v 54 -5 179
v 21 13 272
v -9 9 298
v -9 11 298
v -9 11 275
v -9 9 275
v -9 -13 298
v -9 -11 298
v -9 -11 275
v -9 -13 275
v -9 5 297
v -9 9 295
v -9 9 293
v -9 5 295
v -9 -1 296
v -9 -1 298
v -9 -7 295
v -9 -7 297
v -9 -11 293
v -9 -11 295
v -9 5 292
v -9 9 290
v -9 9 288
v -9 5 290
v -9 -1 291
v -9 -1 293
v -9 -7 290
v -9 -7 292
v -9 -11 288
v -9 -11 290
v -9 5 287
v -9 9 285
v -9 9 283
v -9 5 285
v -9 -1 286
v -9 -1 288
v -9 -7 285
v -9 -7 287
v -9 -11 283
v -9 -11 285
v -9 5 282
v -9 9 280
v -9 9 278
v -9 5 280
v -9 -1 281
v -9 -1 283
v -9 -7 280
v -9 -7 282
v -9 -11 278
v -9 -11 280
v 22 9 275
v 22 11 275
v 22 11 298
v 22 9 298
v 22 -13 275
v 22 -11 275
v 22 -11 298
v 22 -13 298
v 22 5 295
v 22 9 293
v 22 9 295
v 22 5 297
v 22 -1 298
v 22 -1 296
v 22 -7 297
v 22 -7 295
v 22 -11 295
v 22 -11 293
v 22 5 290
v 22 9 288
v 22 9 290
v 22 5 292
v 22 -1 293
v 22 -1 291
v 22 -7 292
v 22 -7 290
v 22 -11 290
v 22 -11 288
v 22 5 285
v 22 9 283
v 22 9 285
v 22 5 287
v 22 -1 288
v 22 -1 286
v 22 -7 287
v 22 -7 285
v 22 -11 285
v 22 -11 283
v 22 5 280
v 22 9 278
v 22 9 280
v 22 5 282
v 22 -1 283
v 22 -1 281
v 22 -7 282
v 22 -7 280
v 22 -11 280
v 22 -11 278

f 1 2 3
f 1 3 4
f 1 4 5
f 1 5 6
f 1 6 7
f 1 7 2
f 1 2 8
f 1 8 9
f 1 9 5
f 5 9 10
f 5 10 11
f 5 11 12
f 5 12 13
f 5 13 14
f 14 13 15
f 15 13 16
f 16 13 17
f 16 17 18
f 16 18 19
f 16 19 5
f 16 5 4
f 16 4 20
f 20 4 21
f 20 21 22
f 20 22 23
f 23 22 24
f 23 24 25
f 25 24 26
f 25 26 27
f 25 27 28
f 28 27 29
f 28 29 30
f 30 29 31
f 31 29 32
f 31 32 33
f 31 33 34
f 35 36 37
f 35 37 38
f 35 38 39
f 35 39 22
f 35 22 21
f 35 21 36
f 35 36 40
f 35 40 41
f 35 41 39
f 39 41 42
f 39 42 43
f 39 43 44
f 39 44 45
f 39 45 46
f 39 46 47
f 47 46 48
f 48 46 49
f 49 46 50
f 49 50 51
f 49 51 43
f 49 43 39
f 49 39 38
f 49 38 52
f 52 38 7
f 52 7 53
f 52 53 54
f 52 54 55
f 55 54 56
f 56 54 57
f 56 57 58
f 56 58 59
f 59 58 60
f 59 60 61
f 61 60 62
f 61 62 63
f 63 62 64
f 64 62 65
f 64 65 66
f 66 65 67
f 66 67 68
f 68 67 69
f 68 69 70
f 70 69 71
f 70 71 72
f 72 71 73
f 72 73 74
f 74 73 75
f 74 75 76
f 76 75 77
f 76 77 78
f 78 77 79
f 78 79 80
f 80 79 81
f 80 81 82
f 82 81 83
f 82 83 84
f 5 19 11
f 85 86 7
f 85 7 87
f 85 87 88
f 85 88 89
f 85 89 86
f 86 89 90
f 86 90 2
f 86 2 7
f 2 86 91
f 2 91 8
f 8 91 10
f 8 10 9
f 7 37 87
f 87 37 36
f 87 36 88
f 88 36 21
f 88 21 89
f 88 89 92
f 88 92 36
f 36 92 40
f 40 92 42
f 40 42 41
f 38 37 7
f 37 38 93
f 37 93 94
f 37 94 87
f 87 94 95
f 87 95 85
f 85 95 91
f 85 91 86
f 89 21 90
f 89 90 96
f 89 96 92
f 92 96 97
f 92 97 42
f 42 97 43
f 43 97 98
f 43 98 44
f 44 98 99
f 44 99 100
f 44 100 45
f 45 100 101
f 45 101 46
f 46 101 102
f 46 102 50
f 50 102 103
f 50 103 104
f 50 104 51
f 51 104 105
f 51 105 106
f 51 106 49
f 49 106 107
f 49 107 38
f 38 107 93
f 93 107 106
f 93 106 94
f 94 106 105
f 94 105 95
f 95 105 91
f 91 105 10
f 10 105 104
f 10 104 11
f 11 104 103
f 11 103 12
f 12 103 108
f 12 108 109
f 12 109 13
f 13 109 110
f 13 110 17
f 17 110 111
f 17 111 18
f 18 111 112
f 18 112 99
f 18 99 19
f 19 99 98
f 19 98 97
f 19 97 113
f 19 113 16
f 16 113 114
f 16 114 4
f 4 114 115
f 4 115 3
f 4 3 21
f 21 3 90
f 90 3 2
f 35 38 49
f 102 101 108
f 102 108 103
f 108 116 109
f 109 116 110
f 110 116 111
f 111 116 112
f 112 116 101
f 112 101 100
f 112 100 99
f 101 116 108
f 117 83 81
f 117 81 118
f 117 118 119
f 119 118 120
f 119 120 121
f 119 121 122
f 122 121 123
f 122 123 6
f 6 123 124
f 6 124 7
f 7 124 53
f 53 124 125
f 53 125 54
f 54 125 57
f 57 125 126
f 57 126 127
f 57 127 58
f 58 127 128
f 58 128 60
f 60 128 129
f 60 129 62
f 62 129 65
f 65 129 130
f 65 130 67
f 67 130 131
f 67 131 69
f 69 131 132
f 69 132 71
f 71 132 73
f 73 132 133
f 73 133 134
f 73 134 75
f 75 134 135
f 75 135 77
f 77 135 136
f 77 136 79
f 79 136 118
f 79 118 81
f 121 137 124
f 121 124 123
f 125 124 137
f 125 137 138
f 125 138 126
f 126 138 139
f 126 139 140
f 126 140 127
f 127 140 141
f 127 141 128
f 128 141 142
f 128 142 129
f 129 142 130
f 130 142 143
f 130 143 131
f 131 143 144
f 131 144 132
f 132 144 145
f 132 145 133
f 133 145 146
f 133 146 134
f 134 146 147
f 134 147 135
f 135 147 148
f 135 148 136
f 136 148 120
f 136 120 118
f 149 150 151
f 149 151 23
f 149 23 24
f 149 152 150
f 150 152 26
f 150 26 25
f 121 120 148
f 121 148 153
f 121 153 137
f 137 153 138
f 138 153 154
f 138 154 139
f 139 154 155
f 139 155 156
f 139 156 140
f 140 156 157
f 140 157 141
f 141 157 158
f 141 158 142
f 142 158 143
f 143 158 159
f 143 159 144
f 144 159 160
f 144 160 145
f 145 160 155
f 145 155 146
f 146 155 154
f 146 154 147
f 147 154 153
f 147 153 148
f 156 155 160
f 156 160 161
f 156 161 157
f 157 161 162
f 157 162 158
f 158 162 159
f 159 162 161
f 159 161 160
f 96 90 163
f 96 163 97
f 97 163 113
f 113 163 115
f 113 115 114
f 115 163 3
f 3 163 90
f 35 21 22
f 164 165 166
f 164 166 167
f 168 169 170
f 168 170 171
f 172 173 174
f 172 174 175
f 172 175 176
f 172 176 177
f 177 176 178
f 177 178 179
f 179 178 180
f 179 180 181
f 182 183 184
f 182 184 185
f 182 185 186
f 182 186 187
f 187 186 188
f 187 188 189
f 189 188 190
f 189 190 191
f 192 193 194
f 192 194 195
f 192 195 196
f 192 196 197
f 197 196 198
f 197 198 199
f 199 198 200
f 199 200 201
f 202 203 204
f 202 204 205
f 202 205 206
f 202 206 207
f 207 206 208
f 207 208 209
f 209 208 210
f 209 210 211
f 212 213 214
f 212 214 215
f 216 217 218
f 216 218 219
f 220 221 222
f 220 222 223
f 220 223 224
f 220 224 225
f 225 224 226
f 225 226 227
f 227 226 228
f 227 228 229
f 230 231 232
f 230 232 233
f 230 233 234
f 230 234 235
f 235 234 236
f 235 236 237
f 237 236 238
f 237 238 239
f 240 241 242
f 240 242 243
f 240 243 244
f 240 244 245
f 245 244 246
f 245 246 247
f 247 246 248
f 247 248 249
f 250 251 252
f 250 252 253
f 250 253 254
f 250 254 255
f 255 254 256
f 255 256 257
f 257 256 258
f 257 258 259
