# RS2 Model 15527
# Vertices: 36
# Faces: 64

v -16 -14 11
v -20 -14 5
v -5 -14 -7
v 0 -14 -2
v 0 -6 -2
v -16 -6 11
v -20 -6 5
v -5 -6 -7
v 3 0 -26
v 3 -8 -26
v 8 -8 -20
v 8 0 -20
v 16 0 -22
v 11 0 -27
v 11 -8 -27
v 16 -8 -22
v -17 3 -1
v -9 3 -1
v -2 -14 17
v -10 -14 17
v -10 -7 17
v -17 10 -1
v -9 10 -1
v -2 -7 17
v 11 -2 26
v 11 -9 26
v 8 -9 33
v 8 -2 33
v 25 -7 26
v 28 -7 19
v 28 -14 19
v 25 -14 26
v 39 -14 48
v 39 -7 48
v 42 -7 41
v 42 -14 41

f 1 2 3
f 1 3 4
f 1 4 5
f 1 5 6
f 1 6 2
f 2 6 7
f 2 7 3
f 3 7 8
f 3 8 9
f 3 9 10
f 3 10 4
f 4 10 11
f 4 11 5
f 5 11 12
f 5 12 8
f 5 8 7
f 5 7 6
f 12 9 8
f 9 12 13
f 9 13 14
f 9 14 10
f 10 14 15
f 10 15 11
f 11 15 16
f 11 16 12
f 12 16 13
f 13 16 14
f 14 16 15
f 17 18 19
f 17 19 20
f 17 20 21
f 17 21 22
f 17 22 18
f 18 22 23
f 18 23 19
f 19 23 24
f 19 24 25
f 19 25 26
f 19 26 20
f 20 26 27
f 20 27 21
f 21 27 28
f 21 28 24
f 21 24 23
f 21 23 22
f 28 25 24
f 25 28 29
f 25 29 30
f 25 30 26
f 26 30 31
f 26 31 27
f 27 31 32
f 27 32 28
f 28 32 29
f 29 32 33
f 29 33 34
f 29 34 30
f 30 34 35
f 30 35 31
f 31 35 36
f 31 36 32
f 32 36 33
f 33 36 35
f 33 35 34
