# RS2 Model 15543
# Vertices: 86
# Faces: 158

v -63 -9 126
v -63 -14 113
v -60 -26 120
v -57 -41 118
v -52 -52 125
v -52 -52 175
v -63 -13 163
v -52 64 125
v -63 64 103
v -52 17 67
v -61 -12 101
v -56 -17 104
v -58 -18 111
v -56 -25 116
v -54 -35 114
v -63 -41 104
v -63 -63 103
v -32 -32 94
v -44 -44 129
v -44 -44 175
v -35 -35 199
v -59 -59 199
v -59 16 210
v -59 19 186
v -57 32 182
v -54 48 185
v -52 64 175
v -44 64 175
v -44 64 129
v -32 64 94
v -63 64 42
v -63 -10 39
v -61 -20 94
v -56 -22 99
v -53 -25 108
v -58 -35 106
v -53 64 240
v -57 0 240
v -38 0 240
v -35 64 240
v -35 64 199
v -59 64 199
v -53 -53 240
v -35 -35 240
v -44 0 199
v -32 0 163
v -58 48 198
v -58 34 202
v -54 35 196
v -55 27 188
v -54 34 186
v -53 42 188
v -32 0 0
v -44 64 0
v -44 64 24
v -44 0 24
v -44 -44 24
v -44 -44 0
v -63 -63 24
v -56 -56 0
v -63 -7 14
v -56 0 0
v -56 64 0
v -63 64 24
v -32 64 58
v -32 0 51
v -32 48 80
v -32 50 72
v -32 33 70
v -44 0 80
v -32 -32 58
v -63 -63 42
v -32 0 127
v -35 39 84
v -37 39 81
v -36 45 78
v -36 46 74
v -36 35 72
v -35 28 76
v -37 32 76
v -38 39 76
v -54 42 194
v -52 36 190
v -1 56 240
v -87 56 240
v -1 -42 240

f 1 2 3
f 1 3 4
f 1 4 5
f 1 5 6
f 1 6 7
f 1 7 8
f 1 8 9
f 1 9 10
f 1 10 2
f 2 10 11
f 2 11 12
f 2 12 13
f 2 13 3
f 3 13 14
f 3 14 4
f 4 14 15
f 4 15 16
f 4 16 17
f 4 17 5
f 5 17 18
f 5 18 19
f 5 19 6
f 6 19 20
f 6 20 21
f 6 21 22
f 6 22 7
f 7 22 23
f 7 23 24
f 7 24 25
f 7 25 26
f 7 26 27
f 7 27 8
f 8 27 28
f 8 28 29
f 8 29 9
f 9 29 30
f 9 30 31
f 9 31 10
f 10 31 32
f 10 32 17
f 10 17 16
f 10 16 33
f 10 33 11
f 11 33 34
f 11 34 12
f 12 34 35
f 12 35 13
f 13 35 14
f 14 35 15
f 15 35 36
f 15 36 16
f 16 36 33
f 33 36 34
f 34 36 35
f 37 38 39
f 37 39 40
f 37 40 41
f 37 41 42
f 37 42 38
f 38 42 23
f 38 23 43
f 38 43 44
f 38 44 39
f 39 44 21
f 39 21 45
f 39 45 40
f 40 45 41
f 41 45 46
f 41 46 28
f 41 28 42
f 42 28 27
f 42 27 47
f 42 47 23
f 23 47 48
f 23 48 24
f 24 48 49
f 24 49 50
f 24 50 25
f 25 50 51
f 25 51 26
f 26 51 52
f 26 52 47
f 26 47 27
f 53 54 55
f 53 55 56
f 53 56 57
f 53 57 58
f 58 57 59
f 58 59 60
f 60 59 61
f 60 61 62
f 62 61 63
f 63 61 64
f 63 64 55
f 63 55 54
f 65 66 56
f 65 56 55
f 65 55 64
f 65 64 31
f 65 31 30
f 65 30 67
f 65 67 68
f 65 68 66
f 66 68 69
f 66 69 70
f 66 70 71
f 66 71 57
f 66 57 56
f 70 18 71
f 71 18 17
f 71 17 72
f 71 72 57
f 57 72 59
f 59 72 61
f 61 72 32
f 61 32 64
f 64 32 31
f 29 73 70
f 29 70 30
f 30 70 74
f 30 74 67
f 67 74 75
f 67 75 76
f 67 76 68
f 68 76 77
f 68 77 69
f 69 77 78
f 69 78 79
f 69 79 70
f 70 79 74
f 74 79 80
f 74 80 75
f 75 80 81
f 75 81 76
f 76 81 77
f 77 81 78
f 78 81 80
f 78 80 79
f 73 19 18
f 73 18 70
f 28 46 73
f 28 73 29
f 46 20 19
f 46 19 73
f 32 72 17
f 45 21 20
f 45 20 46
f 23 22 43
f 43 22 44
f 44 22 21
f 47 52 82
f 47 82 48
f 48 82 49
f 49 82 83
f 49 83 50
f 50 83 51
f 51 83 52
f 52 83 82
