# RS2 Model 1554
# Vertices: 409
# Faces: 379

v -8 118 48
v -3 115 59
v 9 113 60
v 16 114 48
v 18 118 25
v 13 120 13
v 1 123 13
v -6 122 24
v -15 83 43
v -10 81 53
v 2 78 53
v 9 79 42
v 20 110 60
v 32 108 61
v 39 109 49
v 40 113 26
v 35 115 14
v 24 118 14
v 24 73 54
v 31 74 43
v 43 105 61
v 54 103 62
v 62 104 50
v 64 108 27
v 58 111 15
v 47 113 15
v 13 76 54
v 23 66 53
v 34 63 53
v 36 71 55
v 47 69 55
v 55 69 44
v 67 100 62
v 78 98 63
v 85 99 51
v 87 102 28
v 82 106 16
v 69 109 16
v 11 68 52
v 5 38 47
v 16 35 48
v 30 67 41
v 23 37 36
v 22 4 43
v 45 61 54
v 58 58 54
v 59 67 56
v 71 64 56
v 78 63 45
v 91 95 63
v 102 93 64
v 110 93 52
v 112 97 28
v 106 100 17
v 95 103 17
v 95 59 57
v 102 59 46
v 104 63 22
v 84 61 57
v 82 52 55
v 93 50 56
v 101 51 44
v 103 55 19
v 104 63 21
v 69 55 55
v 76 57 43
v 68 16 36
v 74 12 48
v 84 10 48
v 92 10 37
v 94 14 13
v 103 54 20
v -13 88 18
v -13 88 19
v -15 80 17
v -17 76 41
v -12 73 51
v 0 71 52
v 7 72 40
v 1 42 35
v 3 46 12
v 53 62 42
v 40 3 32
v 42 -17 41
v 54 -19 41
v 60 -19 30
v 62 -16 7
v 70 19 13
v 88 17 2
v 77 20 2
v -25 36 34
v -15 80 16
v -23 40 9
v -20 33 44
v -16 41 -2
v -5 38 -2
v 0 35 10
v -2 31 33
v -8 31 44
v 8 46 0
v 20 43 1
v 25 41 13
v 17 9 30
v 19 11 7
v 33 2 43
v 42 6 8
v 37 -13 29
v 39 -11 6
v 57 -13 -5
v 44 -10 -6
v 26 12 -4
v 36 10 -3
v 47 -97 47
v 41 -97 57
v 29 -100 57
v 24 -103 44
v 26 -104 21
v 33 -105 10
v 44 -102 10
v 49 -99 22
v 39 -63 44
v 33 -62 53
v 21 -65 52
v 16 -68 40
v 18 -103 56
v 7 -106 55
v 2 -108 43
v 3 -110 20
v 10 -110 9
v 22 -107 9
v -1 -71 51
v -6 -73 39
v -5 -109 55
v -15 -111 54
v -21 -114 41
v -20 -116 19
v -12 -116 8
v -1 -113 8
v 10 -68 52
v -3 -63 51
v -15 -66 50
v -13 -74 50
v -24 -76 50
v -30 -79 38
v -28 -115 54
v -40 -117 53
v -45 -120 40
v -43 -122 18
v -36 -121 6
v -24 -119 7
v 8 -60 51
v 1 -31 48
v -10 -34 47
v -8 -66 39
v -15 -36 36
v -29 -7 43
v -26 -69 49
v -38 -72 49
v -36 -80 49
v -48 -82 49
v -53 -85 37
v -52 -120 52
v -63 -122 52
v -69 -126 39
v -67 -128 15
v -60 -127 5
v -49 -124 6
v -71 -88 48
v -77 -91 36
v -76 -93 12
v -61 -86 48
v -63 -78 48
v -73 -81 47
v -79 -83 35
v -77 -86 10
v -75 -94 11
v -50 -75 48
v -55 -78 36
v -65 -36 32
v -72 -37 44
v -83 -40 43
v -89 -42 30
v -87 -44 6
v -77 -86 11
v 41 -65 19
v 41 -65 20
v 39 -57 18
v 37 -54 42
v 31 -55 52
v 19 -57 52
v 14 -61 40
v 7 -31 37
v 9 -32 14
v -31 -72 38
v -46 -12 31
v -56 3 40
v -68 0 40
v -73 -1 28
v -71 -4 5
v -63 -38 9
v -80 -44 -4
v -69 -42 -3
v 27 -14 38
v 29 -16 13
v 21 -15 48
v 24 -19 1
v 13 -21 1
v 6 -22 12
v 4 -19 35
v 9 -17 47
v 4 -35 1
v -7 -38 1
v -14 -38 13
v -23 -6 32
v -21 -9 9
v -40 -9 43
v -44 -15 8
v -50 4 29
v -48 2 6
v -65 -4 -7
v -52 0 -6
v -26 -10 -3
v -37 -13 -4
v 94 104 3
v 58 113 1
v 87 90 75
v 48 114 -4
v 8 122 -4
v 45 101 77
v -1 22 75
v -34 30 72
v 7 41 -27
v 12 20 -46
v 58 9 -44
v -1 3 83
v 97 0 67
v 52 13 65
v 107 13 -17
v 14 -33 -18
v -17 -42 -19
v 11 -23 65
v -82 0 55
v -42 6 57
v -76 -6 -24
v -70 -130 -14
v -32 -122 -12
v -77 -122 67
v 8 -101 72
v -28 -113 72
v 11 -108 -11
v 55 -89 77
v 7 -102 72
v 63 -97 -7
v -69 -53 58
v -89 -64 16
v -58 -99 63
v -53 -56 24
v -72 -58 53
v -42 -99 29
v -55 -98 17
v -36 -92 66
v -70 -36 11
v -34 -33 22
v -50 -33 50
v -22 -85 29
v -14 -37 48
v -12 -42 0
v -22 -1 44
v -9 -32 45
v -41 -39 42
v 3 -87 52
v -4 -98 31
v 6 -90 60
v -13 -47 27
v 11 -92 60
v 24 -92 35
v -2 -37 54
v 12 -87 28
v 29 -79 66
v 0 -34 21
v 33 -98 65
v 53 -98 37
v 14 -15 55
v 107 78 15
v 104 71 54
v 97 36 7
v 107 77 61
v 78 82 59
v 96 23 50
v 73 32 2
v 68 26 51
v 60 -26 -8
v 82 76 58
v 52 81 58
v 70 20 47
v 39 7 46
v 44 13 -5
v 33 -21 43
v 13 29 43
v 49 19 47
v 27 98 56
v 22 41 46
v 25 49 2
v 13 0 38
v -9 45 45
v 32 34 48
v 0 95 53
v 6 59 2
v 3 52 48
v -2 22 -5
v -34 45 41
v 10 36 46
v -23 109 54
v -17 53 -5
v -22 44 50
v -6 114 6
v 122 100 -5
v 78 108 -8
v 116 85 86
v 73 110 0
v 30 118 0
v 69 96 75
v 33 120 -15
v -17 129 -17
v 27 104 88
v -4 53 -28
v 37 42 -28
v -13 37 76
v 34 -3 -25
v 72 -12 -22
v 24 -14 58
v 41 -16 -25
v 0 -26 -26
v 32 -7 72
v -56 -11 59
v -14 0 61
v -50 -17 -22
v -101 -39 61
v -55 -28 63
v -94 -50 -24
v -51 -124 -7
v -5 -112 -4
v -55 -120 62
v -2 -113 -10
v 34 -104 -7
v -9 -106 70
v -67 -111 -2
v -71 -107 50
v -79 -61 -7
v -74 -108 48
v -46 -100 50
v -85 -60 42
v -57 -51 -4
v -62 -46 48
v -71 7 -11
v -31 -31 43
v -69 -41 43
v -18 -89 50
v -44 -19 45
v -39 -25 -3
v -53 15 40
v -31 -90 21
v -12 -80 63
v -41 -51 18
v -10 -32 24
v -26 -32 53
v 3 -87 30
v 13 -37 49
v -20 -48 45
v 24 -84 55
v 14 -50 7
v 11 -48 47
v 0 -4 4
v 40 -30 50
v -2 -40 46
v 51 -74 56
v 46 -96 59
v 49 -102 10
v 26 -12 49
v 113 75 35
v 89 72 71
v 104 33 26
v 67 32 30
v 81 25 58
v 77 85 40
v 54 16 54
v 72 19 26
v 66 71 63
v 64 66 68
v 46 78 26
v 53 15 59
v 24 7 55
v 48 7 19
v 33 53 62
v 42 87 66
v 29 95 33
v 28 22 54
v 10 45 60
v 33 45 22
v 23 103 71
v 0 50 24
v 7 41 56
v 12 105 34
v 22 96 27
v -3 95 69
v 12 42 17
v 0 102 66
v -13 110 36
v -12 41 54

f 1 2 3
f 1 3 4
f 1 4 5
f 1 5 6
f 1 6 7
f 1 7 8
f 1 8 9
f 1 9 2
f 2 9 10
f 2 10 3
f 3 10 11
f 3 11 4
f 4 11 12
f 4 12 13
f 4 13 14
f 4 14 15
f 4 15 16
f 4 16 17
f 4 17 18
f 4 18 5
f 15 14 19
f 15 19 20
f 15 20 21
f 15 21 22
f 15 22 23
f 15 23 24
f 15 24 25
f 15 25 26
f 15 26 16
f 14 13 27
f 14 27 19
f 19 27 28
f 19 28 29
f 19 29 30
f 19 30 20
f 20 30 21
f 21 30 22
f 22 30 31
f 22 31 23
f 23 31 32
f 23 32 33
f 23 33 34
f 23 34 35
f 23 35 36
f 23 36 37
f 23 37 38
f 23 38 24
f 12 27 13
f 27 12 11
f 27 11 39
f 27 39 28
f 28 39 40
f 28 40 41
f 28 41 42
f 28 42 29
f 29 42 43
f 29 43 44
f 29 44 45
f 29 45 30
f 30 45 31
f 31 45 46
f 31 46 47
f 31 47 32
f 32 47 33
f 33 47 34
f 34 47 48
f 34 48 35
f 35 48 49
f 35 49 50
f 35 50 51
f 35 51 52
f 35 52 53
f 35 53 54
f 35 54 55
f 35 55 36
f 52 51 56
f 52 56 57
f 52 57 58
f 52 58 53
f 51 50 59
f 51 59 56
f 56 59 60
f 56 60 61
f 56 61 62
f 56 62 57
f 57 62 63
f 57 63 64
f 49 59 50
f 59 49 48
f 59 48 60
f 60 48 65
f 60 65 66
f 60 66 67
f 60 67 68
f 60 68 61
f 61 68 69
f 61 69 62
f 62 69 70
f 62 70 71
f 62 71 72
f 9 8 73
f 74 75 76
f 74 76 9
f 9 76 77
f 9 77 10
f 10 77 78
f 10 78 11
f 11 78 39
f 39 78 79
f 39 79 80
f 39 80 40
f 40 80 81
f 40 81 41
f 41 81 43
f 41 43 42
f 47 46 65
f 47 65 48
f 46 45 82
f 46 82 83
f 46 83 84
f 46 84 65
f 65 84 85
f 65 85 66
f 66 85 67
f 67 85 86
f 67 86 87
f 67 87 88
f 67 88 68
f 68 88 69
f 69 88 70
f 70 88 71
f 71 88 89
f 89 88 90
f 91 76 92
f 91 92 93
f 91 93 94
f 91 94 77
f 91 77 76
f 93 95 96
f 93 96 97
f 93 97 98
f 93 98 99
f 93 99 94
f 94 99 78
f 94 78 77
f 81 100 101
f 81 101 102
f 81 102 43
f 43 102 103
f 43 103 44
f 44 103 104
f 44 104 105
f 44 105 45
f 45 105 82
f 82 105 83
f 83 105 104
f 83 104 106
f 83 106 107
f 83 107 84
f 84 107 108
f 84 108 85
f 85 108 86
f 86 108 87
f 87 108 109
f 109 108 110
f 104 111 112
f 104 112 106
f 79 78 99
f 79 99 80
f 80 99 98
f 80 98 97
f 80 97 81
f 107 106 108
f 103 102 104
f 113 114 115
f 113 115 116
f 113 116 117
f 113 117 118
f 113 118 119
f 113 119 120
f 113 120 121
f 113 121 114
f 114 121 122
f 114 122 115
f 115 122 123
f 115 123 116
f 116 123 124
f 116 124 125
f 116 125 126
f 116 126 127
f 116 127 128
f 116 128 129
f 116 129 130
f 116 130 117
f 127 126 131
f 127 131 132
f 127 132 133
f 127 133 134
f 127 134 135
f 127 135 136
f 127 136 137
f 127 137 138
f 127 138 128
f 126 125 139
f 126 139 131
f 131 139 140
f 131 140 141
f 131 141 142
f 131 142 132
f 132 142 133
f 133 142 134
f 134 142 143
f 134 143 135
f 135 143 144
f 135 144 145
f 135 145 146
f 135 146 147
f 135 147 148
f 135 148 149
f 135 149 150
f 135 150 136
f 124 139 125
f 139 124 123
f 139 123 151
f 139 151 140
f 140 151 152
f 140 152 153
f 140 153 154
f 140 154 141
f 141 154 155
f 141 155 156
f 141 156 157
f 141 157 142
f 142 157 143
f 143 157 158
f 143 158 159
f 143 159 144
f 144 159 145
f 145 159 146
f 146 159 160
f 146 160 147
f 147 160 161
f 147 161 162
f 147 162 163
f 147 163 164
f 147 164 165
f 147 165 166
f 147 166 167
f 147 167 148
f 164 163 168
f 164 168 169
f 164 169 170
f 164 170 165
f 163 162 171
f 163 171 168
f 168 171 172
f 168 172 173
f 168 173 174
f 168 174 169
f 169 174 175
f 169 175 176
f 161 171 162
f 171 161 160
f 171 160 172
f 172 160 177
f 172 177 178
f 172 178 179
f 172 179 180
f 172 180 173
f 173 180 181
f 173 181 174
f 174 181 182
f 174 182 183
f 174 183 184
f 121 120 185
f 186 187 188
f 186 188 121
f 121 188 189
f 121 189 122
f 122 189 190
f 122 190 123
f 123 190 151
f 151 190 191
f 151 191 192
f 151 192 152
f 152 192 193
f 152 193 153
f 153 193 155
f 153 155 154
f 159 158 177
f 159 177 160
f 158 157 194
f 158 194 195
f 158 195 196
f 158 196 177
f 177 196 197
f 177 197 178
f 178 197 179
f 179 197 198
f 179 198 199
f 179 199 200
f 179 200 180
f 180 200 181
f 181 200 182
f 182 200 183
f 183 200 201
f 201 200 202
f 203 188 187
f 203 187 204
f 203 204 205
f 203 205 189
f 203 189 188
f 204 206 207
f 204 207 208
f 204 208 209
f 204 209 210
f 204 210 205
f 205 210 190
f 205 190 189
f 193 211 212
f 193 212 213
f 193 213 155
f 155 213 214
f 155 214 156
f 156 214 215
f 156 215 216
f 156 216 157
f 157 216 194
f 194 216 195
f 195 216 215
f 195 215 217
f 195 217 218
f 195 218 196
f 196 218 219
f 196 219 197
f 197 219 198
f 198 219 199
f 199 219 220
f 220 219 221
f 215 222 223
f 215 223 217
f 191 190 210
f 191 210 192
f 192 210 209
f 192 209 208
f 192 208 193
f 218 217 219
f 214 213 215
f 224 225 226
f 227 228 229
f 230 231 232
f 233 234 235
f 236 237 238
f 239 240 241
f 242 243 244
f 245 246 247
f 248 249 250
f 251 252 253
f 254 255 256
f 257 258 259
f 260 261 262
f 263 264 265
f 266 267 268
f 269 270 271
f 272 273 274
f 275 276 277
f 278 279 280
f 281 282 283
f 284 285 286
f 287 288 289
f 290 291 292
f 293 294 295
f 296 297 298
f 299 300 301
f 302 303 304
f 305 306 307
f 308 309 310
f 311 312 313
f 314 315 316
