# RS2 Model 1561
# Vertices: 92
# Faces: 79

v -8 -64 0
v 8 -64 0
v 8 -64 16
v -8 -64 16
v 0 -32 0
v 0 -32 16
v 16 -16 24
v 16 -16 8
v 16 0 32
v 16 0 16
v 8 8 32
v 8 8 16
v -16 8 0
v -16 8 16
v -40 -16 0
v -40 -16 16
v -64 -8 0
v -64 -8 16
v -64 8 16
v -64 8 0
v -40 0 0
v -40 0 16
v -16 24 0
v -16 24 16
v 8 24 16
v 8 24 32
v 32 0 16
v 32 0 32
v 32 -16 24
v 32 -16 8
v 16 -32 16
v 16 -32 0
v -52 4 12
v -48 6 12
v -46 12 12
v -48 22 12
v -58 16 12
v -60 10 12
v -58 6 12
v -30 -11 12
v -24 -14 12
v -18 -14 12
v -18 -8 12
v -20 -2 12
v -25 -1 12
v -31 -7 12
v 0 24 18
v 2 28 18
v 0 36 18
v -4 40 18
v -8 36 18
v -10 28 18
v -8 24 18
v 24 8 28
v 28 10 28
v 32 16 28
v 32 24 28
v 24 24 28
v 18 20 28
v 16 16 28
v 16 -52 12
v 24 -52 12
v 32 -50 12
v 28 -42 12
v 20 -38 12
v 14 -40 12
v 12 -48 12
v 8 -24 16
v 8 -20 16
v 2 -14 16
v -6 -12 16
v -6 -18 16
v -2 -26 16
v 4 -28 16
v -20 3 12
v -35 -3 12
v -11 -14 12
v 38 16 24
v 22 31 22
v 21 -3 28
v 11 -28 12
v 0 -47 12
v 37 -43 12
v -39 20 12
v -57 26 12
v -48 -5 12
v 3 43 18
v -13 43 18
v 3 15 18
v 3 -39 16
v 19 -22 16
v -17 -15 16

f 1 2 3
f 1 3 4
f 1 4 5
f 5 4 6
f 5 6 7
f 5 7 8
f 8 7 9
f 8 9 10
f 10 9 11
f 10 11 12
f 12 11 13
f 13 11 14
f 13 14 15
f 15 14 16
f 15 16 17
f 17 16 18
f 17 18 19
f 17 19 20
f 20 19 21
f 21 19 22
f 21 22 23
f 23 22 24
f 23 24 25
f 25 24 26
f 25 26 27
f 27 26 28
f 27 28 29
f 27 29 30
f 30 29 31
f 30 31 32
f 32 31 3
f 32 3 2
f 16 22 19
f 16 19 18
f 31 29 7
f 31 7 6
f 31 6 3
f 3 6 4
f 29 28 9
f 29 9 7
f 28 26 11
f 28 11 9
f 11 26 24
f 11 24 14
f 14 24 16
f 16 24 22
f 33 34 35
f 33 35 36
f 33 36 37
f 33 37 38
f 33 38 39
f 40 41 42
f 40 42 43
f 40 43 44
f 40 44 45
f 40 45 46
f 47 48 49
f 47 49 50
f 47 50 51
f 47 51 52
f 47 52 53
f 54 55 56
f 54 56 57
f 54 57 58
f 54 58 59
f 54 59 60
f 61 62 63
f 61 63 64
f 61 64 65
f 61 65 66
f 61 66 67
f 68 69 70
f 68 70 71
f 68 71 72
f 68 72 73
f 68 73 74
f 75 76 77
f 78 79 80
f 81 82 83
