# RS2 Model 1562
# Vertices: 156
# Faces: 210

v 4 16 240
v -4 -4 240
v 22 -16 240
v 16 27 240
v 1 23 174
v -13 13 177
v -12 -7 178
v 1 -16 176
v 19 -16 170
v 38 -17 240
v 38 27 240
v 17 23 170
v 13 27 158
v -5 27 162
v -23 14 166
v -25 -4 164
v -5 -16 162
v 17 -17 156
v 35 -7 170
v 63 -4 240
v 60 15 240
v 35 11 168
v 37 14 150
v 22 11 74
v 4 23 76
v -20 23 77
v -32 13 82
v -33 -7 84
v -22 -16 80
v 5 -16 75
v 33 -4 150
v 18 -7 74
v 29 -9 63
v 30 17 63
v 5 37 63
v -25 36 63
v -45 18 68
v -46 -11 69
v -27 -31 62
v 9 -31 62
v 16 -46 0
v 37 -12 0
v 49 28 0
v 17 48 0
v -38 53 0
v -63 16 0
v -64 -17 0
v -39 -45 0
v -13 -64 84
v -7 -47 56
v -19 -45 58
v -22 -41 23
v -4 -43 22
v -1 -51 0
v -27 -51 0
v 33 -36 37
v 31 -32 24
v 27 -36 25
v 26 -36 9
v 31 -29 8
v 33 -29 0
v 26 -39 0
v 38 -24 25
v 36 -22 16
v 34 -24 17
v 34 -24 6
v 37 -20 5
v 38 -20 0
v 33 -27 0
v 60 28 37
v 55 30 24
v 56 24 25
v 55 23 9
v 53 32 8
v 55 33 0
v 58 21 0
v 55 40 25
v 52 39 16
v 52 37 17
v 52 37 6
v 51 42 5
v 51 42 0
v 54 35 0
v -5 61 37
v -8 57 24
v -2 56 25
v -1 55 9
v -11 56 8
v -11 58 0
v 1 57 0
v -18 60 25
v -18 57 16
v -16 56 17
v -16 56 6
v -21 57 5
v -21 57 0
v -13 57 0
v -54 46 37
v -52 42 24
v -48 46 25
v -47 46 9
v -53 39 8
v -55 40 0
v -47 49 0
v -60 35 25
v -58 33 16
v -56 35 17
v -56 35 6
v -59 31 5
v -60 31 0
v -55 38 0
v -62 -35 37
v -57 -34 24
v -60 -29 25
v -60 -28 9
v -55 -35 8
v -55 -37 0
v -63 -27 0
v -52 -43 25
v -50 -42 16
v -51 -39 17
v -51 -39 6
v -48 -43 5
v -48 -44 0
v -53 -38 0
v 32 68 84
v 21 53 56
v 32 49 58
v 33 44 23
v 18 51 22
v 17 59 0
v 41 51 0
v 32 -21 37
v 18 -34 37
v 32 -20 0
v -41 -38 38
v -57 -21 39
v -51 -38 -3
v -22 54 26
v -12 54 24
v -24 54 -4
v 61 -18 240
v 64 25 240
v -5 -14 240
v 54 16 41
v 50 36 41
v 52 16 -7
v 1 -43 85
v -25 -40 86
v -1 -46 -5
v -35 53 39
v -54 29 42
v -41 51 -9
v -14 58 37
v 0 56 37
v -12 52 1

f 1 2 3
f 1 3 4
f 1 4 5
f 1 5 6
f 1 6 2
f 2 6 7
f 2 7 3
f 3 7 8
f 3 8 9
f 3 9 10
f 3 10 11
f 3 11 4
f 4 11 12
f 4 12 5
f 5 12 13
f 5 13 14
f 5 14 6
f 6 14 15
f 6 15 7
f 7 15 16
f 7 16 8
f 8 16 17
f 8 17 18
f 8 18 9
f 9 18 19
f 9 19 20
f 9 20 10
f 10 20 21
f 10 21 11
f 11 21 22
f 11 22 12
f 12 22 23
f 12 23 13
f 13 23 24
f 13 24 25
f 13 25 14
f 14 25 26
f 14 26 15
f 15 26 27
f 15 27 16
f 16 27 28
f 16 28 17
f 17 28 29
f 17 29 30
f 17 30 18
f 18 30 31
f 18 31 19
f 19 31 22
f 19 22 21
f 19 21 20
f 22 31 23
f 23 31 32
f 23 32 24
f 24 32 33
f 24 33 34
f 24 34 25
f 25 34 35
f 25 35 26
f 26 35 36
f 26 36 27
f 27 36 37
f 27 37 28
f 28 37 38
f 28 38 29
f 29 38 39
f 29 39 40
f 29 40 30
f 30 40 32
f 30 32 31
f 32 40 33
f 33 40 41
f 33 41 42
f 33 42 34
f 34 42 43
f 34 43 35
f 35 43 44
f 35 44 36
f 36 44 45
f 36 45 37
f 37 45 46
f 37 46 38
f 38 46 47
f 38 47 39
f 39 47 48
f 39 48 41
f 39 41 40
f 49 50 51
f 49 51 50
f 50 51 52
f 50 52 53
f 50 53 51
f 51 53 52
f 52 53 54
f 52 54 55
f 52 55 53
f 53 55 54
f 56 57 58
f 56 58 57
f 57 58 59
f 57 59 60
f 57 60 58
f 58 60 59
f 59 60 61
f 59 61 62
f 59 62 60
f 60 62 61
f 63 64 65
f 63 65 64
f 64 65 66
f 64 66 67
f 64 67 65
f 65 67 66
f 66 67 68
f 66 68 69
f 66 69 67
f 67 69 68
f 70 71 72
f 70 72 71
f 71 72 73
f 71 73 74
f 71 74 72
f 72 74 73
f 73 74 75
f 73 75 76
f 73 76 74
f 74 76 75
f 77 78 79
f 77 79 78
f 78 79 80
f 78 80 81
f 78 81 79
f 79 81 80
f 80 81 82
f 80 82 83
f 80 83 81
f 81 83 82
f 84 85 86
f 84 86 85
f 85 86 87
f 85 87 88
f 85 88 86
f 86 88 87
f 87 88 89
f 87 89 90
f 87 90 88
f 88 90 89
f 91 92 93
f 91 93 92
f 92 93 94
f 92 94 95
f 92 95 93
f 93 95 94
f 94 95 96
f 94 96 97
f 94 97 95
f 95 97 96
f 98 99 100
f 98 100 99
f 99 100 101
f 99 101 102
f 99 102 100
f 100 102 101
f 101 102 103
f 101 103 104
f 101 104 102
f 102 104 103
f 105 106 107
f 105 107 106
f 106 107 108
f 106 108 109
f 106 109 107
f 107 109 108
f 108 109 110
f 108 110 111
f 108 111 109
f 109 111 110
f 112 113 114
f 112 114 113
f 113 114 115
f 113 115 116
f 113 116 114
f 114 116 115
f 115 116 117
f 115 117 118
f 115 118 116
f 116 118 117
f 119 120 121
f 119 121 120
f 120 121 122
f 120 122 123
f 120 123 121
f 121 123 122
f 122 123 124
f 122 124 125
f 122 125 123
f 123 125 124
f 126 127 128
f 126 128 127
f 127 128 129
f 127 129 130
f 127 130 128
f 128 130 129
f 129 130 131
f 129 131 132
f 129 132 130
f 130 132 131
f 133 134 135
f 136 137 138
f 139 140 141
f 142 143 144
