# RS2 Model 15639
# Vertices: 68
# Faces: 108

v 52 -62 2
v 51 -64 4
v 42 -55 6
v 41 -50 3
v 59 -56 0
v 50 -64 12
v 45 -56 20
v -3 -13 15
v 0 -16 8
v -5 -10 3
v 51 -49 0
v 54 -47 8
v 64 -51 6
v 59 -56 15
v 53 -62 18
v 48 -55 22
v -2 -10 16
v -52 42 18
v -47 32 7
v -47 37 0
v -45 47 1
v -1 2 0
v 3 8 7
v 58 -48 18
v 54 -51 21
v 0 -3 18
v -49 44 21
v -64 51 13
v -63 52 5
v -62 53 3
v -56 59 1
v -39 52 7
v -44 56 16
v 3 5 15
v -45 51 20
v -61 54 19
v -56 59 16
v -51 64 7
v -42 23 17
v -37 17 17
v -49 12 32
v -32 16 1
v -40 26 1
v -5 19 16
v -11 25 16
v 1 32 31
v -16 25 0
v -6 16 0
v 20 -4 16
v 15 2 16
v 21 10 9
v 17 -6 0
v 25 -16 0
v 10 -44 28
v 17 -50 27
v 0 -64 10
v 29 -40 0
v 18 -28 0
v 64 -28 19
v 56 -25 19
v 64 -19 10
v 40 -34 0
v 52 -46 0
v -35 13 11
v -30 8 11
v -41 2 10
v -23 9 0
v -32 18 0

f 1 2 3
f 1 3 4
f 1 4 5
f 1 5 2
f 2 5 6
f 2 6 7
f 2 7 3
f 3 7 8
f 3 8 9
f 3 9 4
f 4 9 10
f 4 10 11
f 4 11 5
f 5 11 12
f 5 12 13
f 5 13 6
f 6 13 14
f 6 14 15
f 6 15 16
f 6 16 7
f 7 16 17
f 7 17 8
f 8 17 18
f 8 18 19
f 8 19 9
f 9 19 20
f 9 20 10
f 10 20 21
f 10 21 22
f 10 22 11
f 11 22 12
f 12 22 23
f 12 23 24
f 12 24 13
f 13 24 14
f 14 24 25
f 14 25 15
f 15 25 16
f 16 25 26
f 16 26 17
f 17 26 27
f 17 27 18
f 18 27 28
f 18 28 29
f 18 29 19
f 19 29 30
f 19 30 20
f 20 30 31
f 20 31 21
f 21 31 32
f 21 32 22
f 22 32 23
f 23 32 33
f 23 33 34
f 23 34 24
f 24 34 25
f 25 34 26
f 26 34 35
f 26 35 27
f 27 35 36
f 27 36 28
f 28 36 37
f 28 37 29
f 29 37 38
f 29 38 30
f 30 38 31
f 31 38 32
f 32 38 33
f 33 38 37
f 33 37 35
f 33 35 34
f 35 37 36
f 39 40 41
f 39 41 40
f 39 40 42
f 39 42 43
f 39 43 40
f 40 43 42
f 44 45 46
f 44 46 45
f 44 45 47
f 44 47 48
f 44 48 45
f 45 48 47
f 49 50 51
f 49 51 50
f 49 50 52
f 49 52 53
f 49 53 50
f 50 53 52
f 54 55 56
f 54 56 55
f 54 55 57
f 54 57 58
f 54 58 55
f 55 58 57
f 59 60 61
f 59 61 60
f 59 60 62
f 59 62 63
f 59 63 60
f 60 63 62
f 64 65 66
f 64 66 65
f 64 65 67
f 64 67 68
f 64 68 65
f 65 68 67
