# RS2 Model 15645
# Vertices: 113
# Faces: 193

v 39 16 6
v 31 6 6
v 41 4 6
v 53 5 6
v 58 23 6
v 33 28 6
v 23 6 6
v 23 -6 6
v 31 -6 6
v 41 -4 6
v 55 -28 6
v 53 5 0
v 58 23 0
v 44 39 0
v 44 39 6
v 23 38 6
v 5 28 6
v 5 12 6
v 19 4 6
v 19 -4 6
v 5 -12 6
v 33 -28 6
v 39 -16 6
v 48 -48 6
v 55 -28 0
v 1 34 6
v 11 44 6
v 0 46 6
v -1 34 6
v -5 28 6
v 26 51 6
v 24 64 6
v 2 53 6
v 0 57 6
v -11 44 6
v -23 38 6
v -5 12 6
v -1 22 6
v 1 22 6
v 1 18 6
v 1 6 6
v 5 4 6
v 11 4 6
v 17 0 6
v 13 0 6
v 11 -4 6
v 1 -6 6
v -1 -6 6
v -5 -12 6
v -1 -18 6
v 1 -18 6
v 1 -22 6
v 5 -28 6
v 23 -38 6
v -33 28 6
v -33 28 0
v -5 12 0
v -19 4 6
v -11 4 6
v -1 6 6
v -1 0 6
v 1 0 6
v -1 18 6
v -17 0 6
v -13 0 6
v -5 4 6
v -11 -4 6
v -5 -4 6
v 5 -4 6
v -56 -40 6
v -33 -28 6
v -23 -6 6
v -31 -6 6
v -31 -6 0
v -56 -40 0
v -64 -64 6
v -23 -38 6
v -5 -28 6
v -19 -4 6
v -23 6 6
v -23 6 0
v -23 -6 0
v -1 -22 6
v -1 -22 0
v 1 -22 0
v 5 -28 0
v 1 -34 6
v 11 -44 6
v 5 -54 6
v 5 -54 0
v 48 -48 0
v -64 64 6
v -42 64 6
v -64 64 0
v -64 48 6
v -39 16 6
v -39 16 0
v 24 64 0
v 2 53 0
v 0 57 0
v -15 45 0
v -15 45 6
v -25 60 6
v -42 64 0
v -25 60 0
v -23 -38 0
v -5 -28 0
v 1 -34 0
v 11 -44 0
v -64 -64 0
v -19 4 0
v -64 48 0
v 26 51 0

f 1 2 3
f 1 3 4
f 1 4 5
f 1 5 6
f 1 6 7
f 1 7 2
f 2 7 8
f 2 8 9
f 2 9 3
f 3 9 10
f 3 10 11
f 3 11 4
f 4 11 12
f 4 12 13
f 4 13 5
f 5 13 14
f 5 14 15
f 5 15 6
f 6 15 16
f 6 16 17
f 6 17 18
f 6 18 19
f 6 19 7
f 7 19 20
f 7 20 8
f 8 20 21
f 8 21 22
f 8 22 9
f 9 22 23
f 9 23 10
f 10 23 24
f 10 24 11
f 11 24 25
f 11 25 12
f 26 27 28
f 26 28 29
f 26 29 30
f 26 30 17
f 26 17 16
f 26 16 27
f 27 16 31
f 27 31 28
f 28 31 32
f 28 32 33
f 28 33 34
f 28 34 35
f 28 35 29
f 29 35 30
f 30 35 36
f 30 36 37
f 30 37 38
f 30 38 39
f 30 39 17
f 17 39 40
f 17 40 18
f 18 40 37
f 18 37 41
f 18 41 42
f 18 42 43
f 18 43 19
f 19 43 44
f 19 44 20
f 20 44 45
f 20 45 46
f 20 46 21
f 21 46 47
f 21 47 48
f 21 48 49
f 21 49 50
f 21 50 51
f 21 51 52
f 21 52 53
f 21 53 54
f 21 54 22
f 22 54 24
f 22 24 23
f 37 36 55
f 37 55 56
f 37 56 57
f 37 57 58
f 37 58 59
f 37 59 60
f 37 60 41
f 41 60 61
f 41 61 62
f 41 62 42
f 42 62 43
f 43 62 45
f 43 45 44
f 37 63 38
f 38 63 39
f 39 63 40
f 40 63 37
f 58 64 65
f 58 65 59
f 59 65 66
f 59 66 60
f 60 66 61
f 61 66 65
f 61 65 67
f 61 67 68
f 61 68 48
f 61 48 62
f 62 48 47
f 62 47 69
f 62 69 45
f 45 69 46
f 46 69 47
f 70 71 72
f 70 72 73
f 70 73 74
f 70 74 75
f 70 75 76
f 70 76 71
f 71 76 77
f 71 77 78
f 71 78 49
f 71 49 79
f 71 79 72
f 72 79 58
f 72 58 80
f 72 80 81
f 72 81 82
f 72 82 73
f 73 82 74
f 50 49 78
f 50 78 83
f 50 83 51
f 51 83 52
f 52 83 84
f 52 84 85
f 52 85 53
f 53 85 86
f 53 86 87
f 53 87 88
f 53 88 54
f 54 88 24
f 24 88 89
f 24 89 90
f 24 90 91
f 24 91 25
f 67 65 64
f 67 64 79
f 67 79 49
f 67 49 68
f 68 49 48
f 79 64 58
f 92 55 36
f 92 36 93
f 92 93 94
f 92 94 95
f 92 95 96
f 92 96 55
f 55 96 97
f 55 97 56
f 32 98 99
f 32 99 33
f 33 99 100
f 33 100 34
f 34 100 101
f 34 101 102
f 34 102 35
f 35 102 36
f 36 102 103
f 36 103 93
f 93 103 104
f 93 104 94
f 102 101 105
f 102 105 103
f 103 105 104
f 78 77 106
f 78 106 107
f 78 107 83
f 83 107 84
f 87 86 108
f 87 108 88
f 88 108 109
f 88 109 89
f 89 109 90
f 77 76 110
f 77 110 106
f 58 57 111
f 58 111 80
f 80 111 81
f 96 95 112
f 96 112 97
f 15 14 113
f 15 113 31
f 15 31 16
f 31 113 98
f 31 98 32
f 95 94 112
f 76 75 110
