# RS2 Model 15716
# Vertices: 34
# Faces: 54

v -128 -63 96
v 128 -63 96
v 128 -33 96
v -128 -33 96
v -128 -64 80
v 128 -64 80
v 128 -32 80
v -128 -32 80
v -128 1 96
v 128 1 96
v 128 31 96
v -128 31 96
v -128 0 80
v 128 0 80
v 128 32 80
v -128 32 80
v 128 33 96
v -128 33 96
v 128 48 80
v 128 40 96
v 112 47 96
v -128 63 96
v -128 64 80
v 128 64 80
v 128 63 96
v 128 53 96
v -128 -1 96
v 128 -1 96
v -128 -19 80
v -128 -14 96
v -96 -18 96
v 128 -31 96
v -128 -31 96
v -128 -24 96

f 1 2 3
f 1 3 4
f 1 4 5
f 1 5 2
f 2 5 6
f 2 6 3
f 3 6 7
f 3 7 4
f 4 7 8
f 4 8 5
f 9 10 11
f 9 11 12
f 9 12 13
f 9 13 10
f 10 13 14
f 10 14 11
f 11 14 15
f 11 15 12
f 12 15 16
f 12 16 13
f 17 18 16
f 17 16 15
f 17 15 19
f 17 19 20
f 17 20 21
f 17 21 18
f 18 21 22
f 18 22 16
f 16 22 23
f 23 22 24
f 24 22 25
f 24 25 19
f 19 25 26
f 19 26 21
f 19 21 20
f 25 21 26
f 21 25 22
f 27 28 14
f 27 14 13
f 27 13 29
f 27 29 30
f 27 30 31
f 27 31 28
f 28 31 32
f 28 32 14
f 14 32 7
f 7 32 8
f 8 32 33
f 8 33 29
f 29 33 34
f 29 34 31
f 29 31 30
f 33 31 34
f 31 33 32
