# RS2 Model 15747
# Vertices: 42
# Faces: 74

v -41 -31 119
v -32 -34 116
v -19 0 116
v -29 3 119
v -50 -28 116
v -47 -29 113
v -41 -31 115
v -35 -33 113
v -29 -35 106
v -17 -1 106
v -12 12 106
v -15 13 116
v -24 16 119
v -38 6 116
v -53 -27 106
v -49 -29 107
v -47 -29 100
v -32 -34 96
v -19 0 96
v -15 13 96
v -2 49 96
v 1 48 106
v -2 49 116
v -11 53 119
v -34 19 116
v -41 7 106
v -50 -28 96
v -38 6 96
v -36 20 106
v -34 19 96
v -23 57 106
v -20 56 96
v -19 55 107
v -17 54 100
v -5 50 100
v -3 50 107
v -5 50 113
v -11 52 115
v -20 56 116
v -17 54 113
v -35 -33 100
v -33 -33 107

f 1 2 3
f 1 3 4
f 1 4 5
f 1 5 6
f 1 6 7
f 1 7 2
f 2 7 8
f 2 8 9
f 2 9 10
f 2 10 3
f 3 10 11
f 3 11 12
f 3 12 4
f 4 12 13
f 4 13 14
f 4 14 5
f 5 14 15
f 5 15 16
f 5 16 6
f 6 16 17
f 6 17 8
f 6 8 7
f 9 18 19
f 9 19 10
f 10 19 20
f 10 20 11
f 11 20 21
f 11 21 22
f 11 22 12
f 12 22 23
f 12 23 13
f 13 23 24
f 13 24 25
f 13 25 14
f 14 25 26
f 14 26 15
f 15 26 27
f 15 27 17
f 15 17 16
f 27 26 28
f 28 26 29
f 28 29 30
f 30 29 31
f 30 31 32
f 32 31 33
f 32 33 34
f 32 34 21
f 21 34 35
f 21 35 22
f 22 35 36
f 22 36 23
f 23 36 37
f 23 37 24
f 24 37 38
f 24 38 39
f 24 39 25
f 25 39 29
f 25 29 26
f 29 39 31
f 31 39 40
f 31 40 33
f 33 40 36
f 33 36 34
f 34 36 35
f 8 17 41
f 8 41 42
f 8 42 9
f 9 42 18
f 18 42 41
f 18 41 27
f 27 41 17
f 37 40 38
f 38 40 39
f 36 40 37
