# RS2 Model 15746
# Vertices: 96
# Faces: 140

v -62 39 16
v -55 42 0
v -48 35 0
v -53 32 13
v -48 35 121
v -55 42 121
v -62 50 17
v -55 50 0
v -55 62 17
v -50 56 0
v -42 62 15
v -37 56 0
v -32 50 15
v -32 50 0
v -30 42 10
v -32 42 0
v -41 30 10
v -39 35 0
v -55 50 121
v -50 56 121
v -58 39 136
v -58 48 136
v -52 58 136
v -39 56 121
v -39 35 121
v -36 42 121
v -30 39 136
v -39 34 136
v -48 32 136
v -37 58 136
v -36 50 121
v -30 46 136
v -37 -31 35
v -37 35 38
v -42 32 43
v -42 -27 42
v -49 32 43
v -49 -27 42
v -54 35 38
v -54 -31 35
v -54 35 30
v -54 -31 29
v -49 32 26
v -49 -27 23
v -41 32 24
v -41 -27 23
v -37 35 30
v -37 -31 29
v -43 -30 121
v -36 -37 121
v -29 -34 16
v -38 -27 13
v -52 -30 121
v -52 -29 136
v -43 -27 136
v -33 -34 136
v -36 -45 121
v -29 -45 17
v -36 -37 0
v -43 -30 0
v -52 -30 0
v -50 -25 10
v -55 -37 121
v -61 -34 136
v -61 -41 136
v -54 -53 136
v -39 -53 136
v -33 -43 136
v -41 -51 121
v -36 -57 17
v -36 -45 0
v -52 -51 121
v -49 -57 15
v -41 -51 0
v -55 -45 121
v -59 -45 15
v -54 -51 0
v -61 -37 10
v -59 -45 0
v -59 -37 0
v -37 -32 107
v -37 37 111
v -42 37 116
v -42 -32 114
v -49 37 116
v -49 -32 114
v -54 37 111
v -54 -32 107
v -54 37 103
v -54 -32 101
v -49 37 99
v -49 -32 95
v -41 37 97
v -41 -32 95
v -37 37 103
v -37 -32 101

f 1 2 3
f 1 3 4
f 1 4 5
f 1 5 6
f 1 6 7
f 1 7 2
f 2 7 8
f 8 7 9
f 8 9 10
f 10 9 11
f 10 11 12
f 12 11 13
f 12 13 14
f 14 13 15
f 14 15 16
f 16 15 17
f 16 17 18
f 18 17 4
f 18 4 3
f 19 20 9
f 19 9 7
f 19 7 6
f 19 6 21
f 19 21 22
f 19 22 20
f 20 22 23
f 20 23 24
f 20 24 11
f 20 11 9
f 25 5 4
f 25 4 17
f 25 17 26
f 25 26 27
f 25 27 28
f 25 28 5
f 5 28 29
f 5 29 6
f 6 29 21
f 21 29 28
f 21 28 22
f 22 28 23
f 23 28 30
f 23 30 24
f 24 30 31
f 24 31 13
f 24 13 11
f 26 17 15
f 26 15 31
f 26 31 32
f 26 32 27
f 27 32 28
f 28 32 30
f 30 32 31
f 31 15 13
f 33 34 35
f 33 35 36
f 36 35 37
f 36 37 38
f 38 37 39
f 38 39 40
f 40 39 41
f 40 41 42
f 42 41 43
f 42 43 44
f 44 43 45
f 44 45 46
f 46 45 47
f 46 47 48
f 48 47 34
f 48 34 33
f 49 50 51
f 49 51 52
f 49 52 53
f 49 53 54
f 49 54 55
f 49 55 50
f 50 55 56
f 50 56 57
f 50 57 58
f 50 58 51
f 51 58 59
f 51 59 60
f 51 60 52
f 52 60 61
f 52 61 62
f 52 62 53
f 53 62 63
f 53 63 64
f 53 64 54
f 54 64 55
f 55 64 65
f 55 65 66
f 55 66 67
f 55 67 68
f 55 68 56
f 56 68 57
f 57 68 69
f 57 69 70
f 57 70 58
f 58 70 71
f 58 71 59
f 69 72 73
f 69 73 70
f 70 73 74
f 70 74 71
f 72 75 76
f 72 76 73
f 73 76 77
f 73 77 74
f 63 62 78
f 63 78 75
f 63 75 65
f 63 65 64
f 75 78 76
f 76 78 79
f 76 79 77
f 68 67 69
f 69 67 72
f 72 67 66
f 72 66 75
f 75 66 65
f 62 61 80
f 62 80 78
f 78 80 79
f 81 82 83
f 81 83 84
f 84 83 85
f 84 85 86
f 86 85 87
f 86 87 88
f 88 87 89
f 88 89 90
f 90 89 91
f 90 91 92
f 92 91 93
f 92 93 94
f 94 93 95
f 94 95 96
f 96 95 82
f 96 82 81
