# RS2 Model 1575
# Vertices: 131
# Faces: 100

v 65 28 272
v 5 70 265
v 23 -39 223
v 40 -4 212
v -31 18 228
v 15 -81 220
v -3 -45 224
v 46 10 210
v -86 41 242
v 77 -21 229
v 66 43 225
v -7 -35 223
v 0 -8 117
v -8 0 117
v -16 0 62
v 0 -16 62
v 8 0 117
v 16 0 62
v 0 8 117
v 0 16 62
v 0 -8 188
v -8 0 188
v -16 0 152
v 0 -16 152
v 8 0 188
v 8 0 208
v 0 -8 208
v -8 -2 207
v 0 8 188
v 0 16 152
v 16 0 152
v 0 8 62
v 8 0 62
v 16 0 0
v 0 16 0
v -8 0 62
v -16 0 0
v 0 -8 62
v 0 -16 0
v 0 8 208
v 0 -8 152
v -8 0 152
v -20 0 117
v -1 -17 117
v 8 0 152
v 16 0 117
v 0 8 152
v 0 16 117
v 9 50 217
v -2 52 217
v -9 34 217
v 11 34 217
v -8 12 204
v 6 11 204
v 0 5 191
v 4 64 204
v 5 -37 258
v 17 -33 258
v 15 -16 250
v -2 -23 250
v 6 -1 225
v -6 -5 225
v 0 0 209
v 17 -50 251
v -16 -48 234
v -4 -50 232
v 2 -34 230
v -15 -30 234
v 4 -11 217
v -9 -6 221
v 0 0 203
v -15 -61 221
v -50 -15 217
v -46 -27 217
v -30 -24 217
v -37 -6 217
v -8 -12 204
v -13 0 204
v -4 -2 191
v -61 -27 204
v 38 -38 217
v 46 -27 217
v 35 -15 217
v 23 -31 217
v 12 -5 204
v 5 -16 204
v 5 -5 191
v 55 -39 204
v 46 2 232
v 45 15 232
v 27 15 232
v 30 -4 232
v 4 6 219
v 5 -5 219
v 59 12 219
v 27 20 258
v 17 30 258
v 5 20 250
v 19 6 250
v -2 5 225
v 5 -2 225
v 34 38 251
v -27 41 234
v -35 34 235
v -27 19 235
v -12 31 232
v -11 1 221
v 0 11 217
v -41 46 221
v -34 13 258
v -37 1 258
v -23 -5 250
v -17 13 250
v -5 -6 225
v -1 6 225
v -52 12 251
v 11 -39 217
v 21 39 227
v -67 -29 261
v 38 33 221
v -40 11 215
v 50 -57 272
v 29 -31 203
v -12 44 203
v -52 -67 214
v -45 -14 207
v 23 -26 203
v -20 92 213
v 9 36 206
v -25 -24 206
v 74 -15 206

f 1 2 3
f 4 5 6
f 7 8 9
f 10 11 12
f 13 14 15
f 13 15 16
f 13 16 17
f 17 16 18
f 17 18 19
f 19 18 20
f 19 20 14
f 14 20 15
f 21 22 23
f 21 23 24
f 21 24 25
f 21 25 26
f 21 26 27
f 21 27 22
f 22 27 28
f 22 28 29
f 22 29 30
f 22 30 23
f 29 25 31
f 29 31 30
f 25 24 31
f 32 33 34
f 32 34 35
f 32 35 36
f 36 35 37
f 36 37 38
f 38 37 39
f 38 39 33
f 33 39 34
f 26 40 28
f 26 28 27
f 28 40 29
f 29 40 25
f 25 40 26
f 41 42 43
f 41 43 44
f 41 44 45
f 45 44 46
f 45 46 47
f 47 46 48
f 47 48 42
f 42 48 43
f 49 50 51
f 49 51 52
f 52 51 53
f 52 53 54
f 54 53 55
f 56 50 49
f 57 58 59
f 57 59 60
f 60 59 61
f 60 61 62
f 62 61 63
f 64 58 57
f 65 66 67
f 65 67 68
f 68 67 69
f 68 69 70
f 70 69 71
f 72 66 65
f 73 74 75
f 73 75 76
f 76 75 77
f 76 77 78
f 78 77 79
f 80 74 73
f 81 82 83
f 81 83 84
f 84 83 85
f 84 85 86
f 86 85 87
f 88 82 81
f 89 90 91
f 89 91 92
f 92 91 93
f 92 93 94
f 94 93 71
f 95 90 89
f 96 97 98
f 96 98 99
f 99 98 100
f 99 100 101
f 101 100 63
f 102 97 96
f 103 104 105
f 103 105 106
f 106 105 107
f 106 107 108
f 108 107 71
f 109 104 103
f 110 111 112
f 110 112 113
f 113 112 114
f 113 114 115
f 115 114 63
f 116 111 110
