# RS2 Model 15835
# Vertices: 228
# Faces: 368

v -30 -27 116
v -24 -27 116
v -27 -29 111
v -32 -32 113
v -32 -32 119
v -27 -29 121
v -22 -32 119
v -22 -32 113
v -27 -35 111
v -30 -37 116
v -27 -35 121
v -24 -37 116
v -36 -23 111
v -30 -23 111
v -33 -25 106
v -38 -28 108
v -38 -28 114
v -33 -25 116
v -28 -28 114
v -28 -28 108
v -33 -31 106
v -36 -33 111
v -33 -31 116
v -30 -33 111
v -39 -32 121
v -33 -32 121
v -36 -34 116
v -41 -37 118
v -41 -37 124
v -36 -34 126
v -31 -37 124
v -31 -37 118
v -36 -40 116
v -39 -42 121
v -36 -40 126
v -33 -42 121
v -30 35 116
v -24 35 116
v -27 33 111
v -32 30 113
v -32 30 119
v -27 33 121
v -22 30 119
v -22 30 113
v -27 27 111
v -30 25 116
v -27 27 121
v -24 25 116
v -37 29 111
v -31 29 111
v -34 27 106
v -39 24 108
v -39 24 114
v -34 27 116
v -29 24 114
v -29 24 108
v -34 21 106
v -37 19 111
v -34 21 116
v -31 19 111
v -36 42 121
v -30 42 121
v -33 40 116
v -38 37 118
v -38 37 124
v -33 40 126
v -28 37 124
v -28 37 118
v -33 34 116
v -36 32 121
v -33 34 126
v -30 32 121
v -9 29 187
v -1 29 187
v -5 24 179
v -13 21 183
v -13 21 191
v -5 25 195
v 3 21 191
v 3 21 183
v -5 16 179
v -9 13 188
v -5 17 195
v -1 13 188
v -5 1 183
v -5 7 149
v -2 9 149
v 3 6 181
v -2 11 149
v 3 14 182
v -5 13 149
v -5 20 182
v -8 11 149
v -13 16 181
v -8 9 149
v -13 6 182
v -5 7 148
v -2 9 148
v -2 11 148
v -5 13 148
v -8 11 148
v -8 9 148
v 2 18 187
v 8 18 187
v 5 14 180
v -1 11 185
v -1 11 190
v 5 15 193
v 11 11 190
v 11 11 185
v 5 8 181
v 2 5 187
v 5 9 193
v 8 5 187
v -6 7 187
v 2 7 187
v -2 3 180
v -10 -1 183
v -10 0 191
v -2 3 195
v 6 0 191
v 6 -1 183
v -2 -5 180
v -6 -9 188
v -2 -5 196
v 2 -9 188
v -15 8 188
v -9 8 188
v -12 5 182
v -18 2 185
v -18 2 190
v -12 6 193
v -6 2 190
v -6 2 185
v -12 -1 182
v -15 -3 188
v -12 0 194
v -9 -3 188
v -18 20 187
v -12 20 187
v -15 16 181
v -21 13 184
v -21 14 190
v -15 17 193
v -9 14 190
v -9 13 184
v -15 10 181
v -18 7 187
v -15 11 193
v -12 7 187
v 35 -79 118
v 43 -79 118
v 39 -74 110
v 31 -79 109
v 31 -86 113
v 39 -88 118
v 47 -86 113
v 47 -79 109
v 39 -78 103
v 35 -87 104
v 39 -92 111
v 43 -87 104
v 39 -88 92
v 39 -55 82
v 42 -54 84
v 47 -84 95
v 42 -53 86
v 47 -81 103
v 39 -52 87
v 39 -79 108
v 36 -53 86
v 31 -80 104
v 36 -54 84
v 31 -85 96
v 39 -54 82
v 42 -53 83
v 42 -52 85
v 39 -51 87
v 36 -52 85
v 36 -53 83
v 46 -84 108
v 52 -84 108
v 49 -80 102
v 43 -85 101
v 43 -90 104
v 49 -91 108
v 55 -90 104
v 55 -85 101
v 49 -83 97
v 46 -90 97
v 49 -94 103
v 52 -90 97
v 38 -89 99
v 46 -89 99
v 42 -84 92
v 34 -89 90
v 34 -96 94
v 42 -98 99
v 50 -96 94
v 50 -89 90
v 42 -88 85
v 38 -97 85
v 42 -102 92
v 46 -97 85
v 29 -89 100
v 35 -89 100
v 32 -85 95
v 26 -89 93
v 26 -94 96
v 32 -95 100
v 38 -94 96
v 38 -89 93
v 32 -88 89
v 29 -94 90
v 32 -98 95
v 35 -94 90
v 26 -83 110
v 32 -83 110
v 29 -80 104
v 23 -84 103
v 23 -89 106
v 29 -90 110
v 35 -89 106
v 35 -84 103
v 29 -82 99
v 26 -89 99
v 29 -93 105
v 32 -89 99

f 1 2 3
f 1 3 4
f 1 4 5
f 1 5 6
f 1 6 2
f 2 6 7
f 2 7 8
f 2 8 3
f 3 8 9
f 3 9 4
f 4 9 10
f 4 10 5
f 5 10 11
f 5 11 6
f 6 11 7
f 7 11 12
f 7 12 8
f 8 12 9
f 9 12 10
f 10 12 11
f 13 14 15
f 13 15 16
f 13 16 17
f 13 17 18
f 13 18 14
f 14 18 19
f 14 19 20
f 14 20 15
f 15 20 21
f 15 21 16
f 16 21 22
f 16 22 17
f 17 22 23
f 17 23 18
f 18 23 19
f 19 23 24
f 19 24 20
f 20 24 21
f 21 24 22
f 22 24 23
f 25 26 27
f 25 27 28
f 25 28 29
f 25 29 30
f 25 30 26
f 26 30 31
f 26 31 32
f 26 32 27
f 27 32 33
f 27 33 28
f 28 33 34
f 28 34 29
f 29 34 35
f 29 35 30
f 30 35 31
f 31 35 36
f 31 36 32
f 32 36 33
f 33 36 34
f 34 36 35
f 37 38 39
f 37 39 40
f 37 40 41
f 37 41 42
f 37 42 38
f 38 42 43
f 38 43 44
f 38 44 39
f 39 44 45
f 39 45 40
f 40 45 46
f 40 46 41
f 41 46 47
f 41 47 42
f 42 47 43
f 43 47 48
f 43 48 44
f 44 48 45
f 45 48 46
f 46 48 47
f 49 50 51
f 49 51 52
f 49 52 53
f 49 53 54
f 49 54 50
f 50 54 55
f 50 55 56
f 50 56 51
f 51 56 57
f 51 57 52
f 52 57 58
f 52 58 53
f 53 58 59
f 53 59 54
f 54 59 55
f 55 59 60
f 55 60 56
f 56 60 57
f 57 60 58
f 58 60 59
f 61 62 63
f 61 63 64
f 61 64 65
f 61 65 66
f 61 66 62
f 62 66 67
f 62 67 68
f 62 68 63
f 63 68 69
f 63 69 64
f 64 69 70
f 64 70 65
f 65 70 71
f 65 71 66
f 66 71 67
f 67 71 72
f 67 72 68
f 68 72 69
f 69 72 70
f 70 72 71
f 73 74 75
f 73 75 76
f 73 76 77
f 73 77 78
f 73 78 74
f 74 78 79
f 74 79 80
f 74 80 75
f 75 80 81
f 75 81 76
f 76 81 82
f 76 82 77
f 77 82 83
f 77 83 78
f 78 83 79
f 79 83 84
f 79 84 80
f 80 84 81
f 81 84 82
f 82 84 83
f 85 86 87
f 85 87 88
f 88 87 89
f 88 89 90
f 90 89 91
f 90 91 92
f 92 91 93
f 92 93 94
f 94 93 95
f 94 95 96
f 96 95 86
f 96 86 85
f 87 86 97
f 87 97 98
f 87 98 89
f 89 98 99
f 89 99 91
f 91 99 100
f 91 100 93
f 93 100 101
f 93 101 95
f 95 101 102
f 95 102 86
f 86 102 97
f 103 104 105
f 103 105 106
f 103 106 107
f 103 107 108
f 103 108 104
f 104 108 109
f 104 109 110
f 104 110 105
f 105 110 111
f 105 111 106
f 106 111 112
f 106 112 107
f 107 112 113
f 107 113 108
f 108 113 109
f 109 113 114
f 109 114 110
f 110 114 111
f 111 114 112
f 112 114 113
f 115 116 117
f 115 117 118
f 115 118 119
f 115 119 120
f 115 120 116
f 116 120 121
f 116 121 122
f 116 122 117
f 117 122 123
f 117 123 118
f 118 123 124
f 118 124 119
f 119 124 125
f 119 125 120
f 120 125 121
f 121 125 126
f 121 126 122
f 122 126 123
f 123 126 124
f 124 126 125
f 127 128 129
f 127 129 130
f 127 130 131
f 127 131 132
f 127 132 128
f 128 132 133
f 128 133 134
f 128 134 129
f 129 134 135
f 129 135 130
f 130 135 136
f 130 136 131
f 131 136 137
f 131 137 132
f 132 137 133
f 133 137 138
f 133 138 134
f 134 138 135
f 135 138 136
f 136 138 137
f 139 140 141
f 139 141 142
f 139 142 143
f 139 143 144
f 139 144 140
f 140 144 145
f 140 145 146
f 140 146 141
f 141 146 147
f 141 147 142
f 142 147 148
f 142 148 143
f 143 148 149
f 143 149 144
f 144 149 145
f 145 149 150
f 145 150 146
f 146 150 147
f 147 150 148
f 148 150 149
f 151 152 153
f 151 153 154
f 151 154 155
f 151 155 156
f 151 156 152
f 152 156 157
f 152 157 158
f 152 158 153
f 153 158 159
f 153 159 154
f 154 159 160
f 154 160 155
f 155 160 161
f 155 161 156
f 156 161 157
f 157 161 162
f 157 162 158
f 158 162 159
f 159 162 160
f 160 162 161
f 163 164 165
f 163 165 166
f 166 165 167
f 166 167 168
f 168 167 169
f 168 169 170
f 170 169 171
f 170 171 172
f 172 171 173
f 172 173 174
f 174 173 164
f 174 164 163
f 165 164 175
f 165 175 176
f 165 176 167
f 167 176 177
f 167 177 169
f 169 177 178
f 169 178 171
f 171 178 179
f 171 179 173
f 173 179 180
f 173 180 164
f 164 180 175
f 181 182 183
f 181 183 184
f 181 184 185
f 181 185 186
f 181 186 182
f 182 186 187
f 182 187 188
f 182 188 183
f 183 188 189
f 183 189 184
f 184 189 190
f 184 190 185
f 185 190 191
f 185 191 186
f 186 191 187
f 187 191 192
f 187 192 188
f 188 192 189
f 189 192 190
f 190 192 191
f 193 194 195
f 193 195 196
f 193 196 197
f 193 197 198
f 193 198 194
f 194 198 199
f 194 199 200
f 194 200 195
f 195 200 201
f 195 201 196
f 196 201 202
f 196 202 197
f 197 202 203
f 197 203 198
f 198 203 199
f 199 203 204
f 199 204 200
f 200 204 201
f 201 204 202
f 202 204 203
f 205 206 207
f 205 207 208
f 205 208 209
f 205 209 210
f 205 210 206
f 206 210 211
f 206 211 212
f 206 212 207
f 207 212 213
f 207 213 208
f 208 213 214
f 208 214 209
f 209 214 215
f 209 215 210
f 210 215 211
f 211 215 216
f 211 216 212
f 212 216 213
f 213 216 214
f 214 216 215
f 217 218 219
f 217 219 220
f 217 220 221
f 217 221 222
f 217 222 218
f 218 222 223
f 218 223 224
f 218 224 219
f 219 224 225
f 219 225 220
f 220 225 226
f 220 226 221
f 221 226 227
f 221 227 222
f 222 227 223
f 223 227 228
f 223 228 224
f 224 228 225
f 225 228 226
f 226 228 227
