# RS2 Model 15888
# Vertices: 139
# Faces: 273

v -7 -48 43
v -40 -48 48
v -40 -42 19
v -16 -42 15
v -7 -8 43
v -22 -37 102
v -25 -76 84
v -61 -76 90
v -40 -8 48
v -40 -13 19
v -16 -13 15
v -59 -37 108
v -63 -32 143
v -36 -32 139
v -34 -60 150
v -61 -60 155
v -11 3 14
v -45 3 20
v -44 -4 2
v -42 -51 2
v -41 -63 15
v -16 -63 11
v -19 -51 -2
v -17 -4 -2
v -11 45 14
v -11 61 57
v -9 8 66
v -45 45 20
v -56 61 64
v -56 69 135
v -1 69 126
v -6 15 92
v -55 8 73
v -44 56 2
v -52 3 183
v -54 20 167
v -33 20 163
v -30 3 179
v 11 31 218
v -4 31 221
v -4 49 221
v 11 49 218
v 12 25 254
v 10 20 246
v 4 20 247
v 6 25 255
v 9 6 250
v -62 15 100
v -27 -6 127
v -22 1 164
v 11 1 159
v 5 -6 122
v 34 -82 135
v 8 -82 139
v 11 -64 159
v 37 -64 155
v 30 -77 187
v 30 -105 191
v 5 -105 195
v 4 -77 191
v -4 -39 219
v 11 -39 216
v 13 -49 230
v -2 -49 233
v -18 -17 235
v -19 -17 224
v -9 -17 223
v -8 -17 233
v -5 -5 251
v -15 -5 253
v -16 5 248
v -6 5 246
v -8 3 257
v -6 -104 20
v -48 -104 26
v -41 -94 15
v -16 -94 11
v -3 -62 42
v -1 -91 80
v -1 -128 80
v -33 -128 85
v -44 -62 49
v -33 -91 85
v -42 -93 137
v -9 -93 131
v -7 -127 147
v -39 -127 152
v -29 -66 195
v -33 -55 170
v -7 -55 167
v -3 -66 191
v 11 -14 203
v -9 -14 206
v -11 3 193
v 9 3 190
v 29 6 249
v 27 -9 233
v 7 -9 236
v 9 6 252
v 3 -40 262
v 17 -40 260
v 15 -49 251
v 1 -49 253
v 12 -49 273
v -31 111 51
v 3 111 46
v -16 95 18
v -39 95 22
v -31 69 51
v -18 88 82
v -20 127 65
v 13 127 60
v 3 69 46
v -16 66 18
v -39 66 22
v 16 88 77
v 35 71 106
v 8 71 111
v 10 99 123
v 37 99 118
v -17 56 -2
v -19 135 -2
v -42 135 2
v 49 38 146
v 46 21 131
v 25 21 134
v 27 38 149
v 21 4 193
v 37 4 190
v 37 -13 190
v 21 -13 193
v 31 10 227
v 30 15 220
v 37 15 218
v 39 10 225
v 34 29 222
v -43 -134 3
v -18 -134 -1
v -42 -52 2

f 1 2 3
f 1 3 4
f 1 4 5
f 1 5 6
f 1 6 7
f 1 7 2
f 2 7 8
f 2 8 9
f 2 9 10
f 2 10 3
f 3 10 4
f 4 10 11
f 4 11 5
f 5 11 9
f 5 9 12
f 5 12 6
f 6 12 13
f 6 13 14
f 6 14 7
f 7 14 15
f 7 15 8
f 8 15 16
f 8 16 12
f 8 12 9
f 9 11 10
f 10 11 17
f 10 17 18
f 10 18 19
f 10 19 3
f 3 19 20
f 3 20 21
f 3 21 4
f 4 21 22
f 4 22 23
f 4 23 11
f 11 23 24
f 11 24 17
f 17 24 25
f 17 25 26
f 17 26 27
f 17 27 18
f 17 18 28
f 17 28 25
f 25 28 29
f 25 29 26
f 26 29 30
f 26 30 31
f 26 31 27
f 27 31 32
f 27 32 33
f 27 33 18
f 18 33 28
f 18 28 34
f 18 34 19
f 12 16 13
f 13 16 35
f 13 35 36
f 13 36 14
f 14 36 37
f 14 37 15
f 15 37 38
f 15 38 16
f 16 38 35
f 35 38 39
f 35 39 40
f 35 40 36
f 36 40 41
f 36 41 37
f 37 41 42
f 37 42 38
f 38 42 39
f 39 42 43
f 39 43 44
f 39 44 40
f 40 44 45
f 40 45 41
f 41 45 46
f 41 46 42
f 42 46 43
f 43 46 47
f 43 47 44
f 44 47 45
f 45 47 46
f 33 29 28
f 29 33 48
f 29 48 30
f 30 48 49
f 30 49 50
f 30 50 31
f 31 50 51
f 31 51 32
f 32 51 52
f 32 52 48
f 32 48 33
f 48 52 49
f 49 52 53
f 49 53 54
f 49 54 50
f 50 54 55
f 50 55 51
f 51 55 56
f 51 56 52
f 52 56 53
f 53 56 57
f 53 57 58
f 53 58 54
f 54 58 59
f 54 59 55
f 55 59 60
f 55 60 56
f 56 60 57
f 57 60 61
f 57 61 62
f 57 62 58
f 58 62 63
f 58 63 59
f 59 63 64
f 59 64 60
f 60 64 61
f 61 64 65
f 61 65 66
f 61 66 62
f 62 66 67
f 62 67 63
f 63 67 68
f 63 68 64
f 64 68 65
f 65 68 69
f 65 69 70
f 65 70 66
f 66 70 71
f 66 71 67
f 67 71 72
f 67 72 68
f 68 72 69
f 69 72 73
f 69 73 70
f 70 73 71
f 71 73 72
f 74 75 76
f 74 76 77
f 74 77 78
f 74 78 79
f 74 79 80
f 74 80 75
f 75 80 81
f 75 81 82
f 75 82 21
f 75 21 76
f 76 21 77
f 77 21 22
f 77 22 78
f 78 22 82
f 78 82 83
f 78 83 79
f 79 83 84
f 79 84 85
f 79 85 80
f 80 85 86
f 80 86 81
f 81 86 87
f 81 87 83
f 81 83 82
f 82 22 21
f 83 87 84
f 84 87 88
f 84 88 89
f 84 89 85
f 85 89 90
f 85 90 86
f 86 90 91
f 86 91 87
f 87 91 88
f 88 91 92
f 88 92 93
f 88 93 89
f 89 93 94
f 89 94 90
f 90 94 95
f 90 95 91
f 91 95 92
f 92 95 96
f 92 96 97
f 92 97 93
f 93 97 98
f 93 98 94
f 94 98 99
f 94 99 95
f 95 99 96
f 96 99 100
f 96 100 101
f 96 101 97
f 97 101 102
f 97 102 98
f 98 102 103
f 98 103 99
f 99 103 100
f 100 103 104
f 100 104 101
f 101 104 102
f 102 104 103
f 105 106 107
f 105 107 108
f 105 108 109
f 105 109 110
f 105 110 111
f 105 111 106
f 106 111 112
f 106 112 113
f 106 113 114
f 106 114 107
f 107 114 108
f 108 114 115
f 108 115 109
f 109 115 113
f 109 113 116
f 109 116 110
f 110 116 117
f 110 117 118
f 110 118 111
f 111 118 119
f 111 119 112
f 112 119 120
f 112 120 116
f 112 116 113
f 113 115 114
f 114 115 28
f 114 28 25
f 114 25 121
f 114 121 107
f 107 121 122
f 107 122 108
f 108 122 123
f 108 123 115
f 115 123 34
f 115 34 28
f 116 120 117
f 117 120 124
f 117 124 125
f 117 125 118
f 118 125 126
f 118 126 119
f 119 126 127
f 119 127 120
f 120 127 124
f 124 127 128
f 124 128 129
f 124 129 125
f 125 129 130
f 125 130 126
f 126 130 131
f 126 131 127
f 127 131 128
f 128 131 132
f 128 132 133
f 128 133 129
f 129 133 134
f 129 134 130
f 130 134 135
f 130 135 131
f 131 135 132
f 132 135 136
f 132 136 133
f 133 136 134
f 134 136 135
f 25 24 121
f 137 138 77
f 137 77 76
f 137 76 139
f 139 76 21
f 139 21 20
f 22 77 138
f 22 138 23
