# RS2 Model 15891
# Vertices: 131
# Faces: 215

v -48 -31 70
v -48 -7 92
v -48 -16 35
v -48 -22 38
v -48 -50 71
v -55 -49 83
v -55 -36 82
v -55 -20 98
v -48 -5 114
v -46 5 135
v -32 1 36
v -48 -16 27
v -48 -22 26
v -48 -29 32
v -48 -64 81
v -54 -64 90
v -40 -54 96
v -40 -44 92
v -40 -39 92
v -40 -28 101
v -55 -19 111
v -48 -27 136
v -32 -32 150
v -46 6 146
v -46 19 129
v -46 13 62
v -46 13 46
v -32 0 0
v -32 -64 0
v -48 -29 28
v -32 -64 60
v -45 28 189
v -32 64 150
v -30 11 167
v -45 22 187
v -49 22 190
v -49 27 191
v -45 35 194
v -48 59 189
v -48 64 180
v -48 59 194
v -48 64 200
v -32 19 229
v -32 64 240
v 9 19 248
v 9 64 259
v 64 64 250
v 64 -64 250
v 64 -64 0
v 64 0 0
v 64 64 0
v -46 30 134
v -48 48 94
v -46 40 67
v -46 26 76
v -46 19 159
v -46 35 148
v -48 50 115
v -54 56 111
v -54 54 98
v -48 64 81
v -32 64 60
v -32 64 30
v -46 41 46
v -49 37 49
v -49 36 64
v -49 26 71
v -45 12 197
v -45 12 194
v -48 -43 198
v -45 19 207
v -49 20 205
v -49 14 197
v -49 14 195
v -48 -42 184
v -48 -52 203
v -32 -64 240
v 9 -64 259
v -45 33 202
v -45 26 209
v -49 25 206
v -41 23 201
v -41 22 200
v -41 20 197
v -32 -64 30
v -48 -52 176
v -48 -64 200
v -32 -64 150
v -48 -52 137
v -48 -64 126
v -55 -50 126
v -54 -64 117
v -40 -45 117
v -40 -54 112
v -47 -64 110
v -47 -64 99
v -48 64 126
v -54 64 117
v -47 64 110
v -47 64 99
v -54 64 90
v -46 26 41
v -32 64 0
v -48 -64 180
v -49 32 195
v -49 31 201
v -41 26 198
v -45 23 197
v -41 23 194
v -41 24 195
v -55 -34 126
v -40 -37 117
v -50 -40 104
v -40 -28 107
v -41 26 197
v -49 16 49
v -49 26 45
v -40 26 52
v -40 31 54
v -40 30 59
v -40 26 62
v -49 16 60
v -40 23 57
v -40 23 54
v -49 26 56
v -69 63 246
v -69 -65 240
v 63 65 245
v -42 -66 197
v -44 65 195
v -43 -66 44

f 1 2 3
f 1 3 4
f 1 4 5
f 1 5 6
f 1 6 7
f 1 7 2
f 2 7 8
f 2 8 9
f 2 9 10
f 2 10 11
f 2 11 3
f 3 11 12
f 3 12 4
f 4 12 13
f 4 13 14
f 4 14 5
f 5 14 15
f 5 15 16
f 5 16 6
f 6 16 17
f 6 17 18
f 6 18 7
f 7 18 19
f 7 19 8
f 8 19 20
f 8 20 21
f 8 21 9
f 9 21 22
f 9 22 23
f 9 23 24
f 9 24 10
f 10 24 25
f 10 25 26
f 10 26 11
f 11 26 27
f 11 27 28
f 11 28 12
f 12 28 29
f 12 29 13
f 13 29 30
f 13 30 14
f 14 30 31
f 14 31 15
f 32 33 34
f 32 34 35
f 32 35 36
f 32 36 37
f 32 37 38
f 32 38 33
f 33 38 39
f 33 39 40
f 40 39 41
f 40 41 42
f 42 41 43
f 42 43 44
f 44 43 45
f 44 45 46
f 46 45 47
f 47 45 48
f 47 48 49
f 47 49 50
f 47 50 51
f 52 53 54
f 52 54 55
f 52 55 25
f 52 25 56
f 52 56 57
f 52 57 53
f 53 57 58
f 53 58 59
f 53 59 60
f 53 60 61
f 53 61 62
f 53 62 54
f 54 62 63
f 54 63 64
f 54 64 65
f 54 65 66
f 54 66 55
f 55 66 67
f 55 67 26
f 55 26 25
f 68 69 70
f 68 70 43
f 68 43 71
f 68 71 72
f 68 72 73
f 68 73 69
f 69 73 74
f 69 74 35
f 69 35 34
f 69 34 23
f 69 23 75
f 69 75 70
f 70 75 76
f 70 76 43
f 43 76 77
f 43 77 78
f 43 78 45
f 45 78 48
f 39 79 41
f 41 79 43
f 43 79 80
f 43 80 71
f 71 80 81
f 71 81 72
f 72 81 82
f 72 82 83
f 72 83 73
f 73 83 84
f 73 84 74
f 74 84 36
f 74 36 35
f 85 30 29
f 30 85 31
f 76 86 87
f 76 87 77
f 88 23 89
f 88 89 90
f 90 89 91
f 90 91 92
f 92 91 93
f 92 93 94
f 92 94 95
f 95 94 96
f 96 94 17
f 96 17 16
f 57 34 33
f 57 33 58
f 58 33 97
f 58 97 98
f 58 98 59
f 59 98 99
f 59 99 60
f 60 99 100
f 60 100 101
f 60 101 61
f 28 27 102
f 28 102 103
f 103 102 64
f 103 64 63
f 75 23 86
f 75 86 76
f 104 86 23
f 104 23 88
f 38 79 39
f 79 38 105
f 79 105 106
f 79 106 80
f 80 106 81
f 81 106 107
f 81 107 82
f 82 107 108
f 82 108 83
f 83 108 84
f 84 108 109
f 84 109 36
f 36 109 37
f 37 109 110
f 37 110 105
f 37 105 38
f 24 34 56
f 24 56 25
f 57 56 34
f 104 87 86
f 22 89 23
f 89 22 111
f 89 111 91
f 91 111 112
f 91 112 93
f 93 112 113
f 93 113 94
f 94 113 17
f 17 113 18
f 18 113 19
f 19 113 20
f 20 113 114
f 20 114 21
f 21 114 111
f 21 111 22
f 24 23 34
f 105 110 115
f 105 115 106
f 106 115 107
f 107 115 108
f 108 115 110
f 108 110 109
f 102 27 116
f 102 116 117
f 102 117 64
f 64 117 65
f 65 117 118
f 65 118 119
f 65 119 66
f 66 119 120
f 66 120 67
f 67 120 121
f 67 121 122
f 67 122 26
f 26 122 27
f 27 122 116
f 116 122 123
f 116 123 124
f 116 124 117
f 117 124 118
f 118 124 125
f 118 125 119
f 119 125 120
f 120 125 121
f 121 125 123
f 121 123 122
f 123 125 124
f 111 114 112
f 112 114 113
f 126 127 128
