# RS2 Model 15911
# Vertices: 563
# Faces: 989

v 41 -4 -22
v 41 -1 -22
v 42 -1 -18
v 42 -8 -18
v 36 -12 -18
v 35 -8 -22
v 43 -6 -31
v 42 1 -31
v 43 -6 -34
v 43 1 -34
v 43 -1 -40
v 42 2 -40
v 43 0 -55
v 43 6 -55
v 39 0 -58
v 39 6 -58
v 33 -4 -55
v 29 5 -53
v 26 -5 -50
v 19 -4 -47
v 20 3 -47
v 11 0 -41
v 12 5 -42
v 5 6 -37
v 6 7 -38
v 5 9 -38
v 9 7 -35
v 8 9 -34
v 9 4 -30
v 7 6 -33
v 14 1 -37
v 12 -1 -32
v 6 1 -24
v 7 4 -24
v 8 2 -25
v 9 2 -21
v 7 4 -21
v 7 1 -17
v 7 1 -20
v 14 -6 -22
v 14 -4 -18
v 5 -1 -13
v 6 1 -13
v 7 0 -13
v 8 3 -9
v 6 2 -9
v 8 2 -4
v 6 -1 -9
v 5 -6 -9
v 8 -5 -5
v 5 1 0
v 5 4 0
v 7 2 0
v 8 2 3
v 6 4 4
v 7 4 7
v 5 1 3
v 13 -6 3
v 14 -1 7
v 6 6 11
v 6 7 10
v 8 6 10
v 8 7 15
v 6 8 15
v 5 6 16
v 13 0 18
v 15 4 17
v 22 -3 19
v 23 2 17
v 29 -5 18
v 32 4 16
v 37 -4 19
v 42 -1 17
v 43 6 15
v 43 -2 12
v 43 4 10
v 42 0 7
v 42 3 7
v 43 -6 1
v 43 1 1
v 42 -6 -4
v 42 1 -3
v 43 -4 -9
v 43 -1 -9
v 43 -8 -13
v 42 -1 -13
v 37 -10 -29
v 36 -10 -33
v 34 -4 -37
v 36 -4 -50
v 28 -5 -46
v 22 -4 -42
v 3 10 -34
v 3 12 -35
v 5 11 -33
v 1 11 -33
v -1 9 -34
v -1 6 -33
v 2 6 -37
v 1 9 -38
v 0 7 -38
v -2 7 -35
v -2 4 -30
v -6 -1 -32
v -7 1 -37
v -5 0 -41
v 28 -12 -16
v 27 -8 -20
v 29 -12 -12
v 22 -11 -11
v 22 -11 -15
v 21 -7 -20
v 29 -10 -27
v 28 -10 -31
v 26 -4 -34
v 23 -9 -25
v 22 -9 -29
v 21 -3 -33
v 13 -8 -15
v 14 -8 -10
v 13 -6 -26
v 4 6 -23
v 5 6 -20
v 4 5 -21
v 36 -6 13
v 36 -4 7
v 36 -10 1
v 36 -10 -3
v 37 -7 -8
v 36 -12 -13
v 29 -6 13
v 28 -4 7
v 29 -10 1
v 28 -11 -2
v 29 -7 -7
v 22 -5 13
v 22 -3 7
v 22 -9 2
v 22 -10 -2
v 23 -7 -7
v 13 -1 12
v 12 -6 -1
v 22 -13 -11
v 13 -11 -10
v 16 -13 -16
v 9 -13 -12
v 4 -14 -3
v 4 -5 -1
v 3 5 2
v 3 6 1
v 3 6 3
v 1 4 4
v 1 1 3
v 1 1 0
v 1 4 0
v -1 2 0
v -1 2 3
v -1 4 7
v -7 -1 7
v -7 -6 3
v -6 -6 -1
v -6 -10 -1
v 2 -5 -1
v -2 2 -4
v 3 9 12
v 4 10 11
v 4 10 13
v 4 4 -12
v 3 4 -10
v 3 3 -11
v 3 4 -12
v 1 1 -13
v 0 2 -9
v 1 -1 -9
v 2 -1 -13
v -1 1 -17
v -1 0 -13
v -1 3 -9
v -1 -5 -5
v 1 -6 -9
v -7 -8 -10
v -7 -8 -15
v -7 -4 -18
v -1 1 -20
v -1 4 -21
v -3 2 -21
v -1 2 -25
v 0 4 -24
v 1 1 -24
v -7 -6 -26
v -15 -9 -29
v -14 -3 -33
v -15 -4 -42
v -13 -4 -47
v -6 5 -42
v 21 -11 -2
v 23 -10 -7
v 27 -13 -7
v 25 -14 -14
v 16 -13 -13
v 12 -14 -10
v 7 -14 -5
v 8 -14 1
v 13 -10 -1
v 14 -13 5
v 25 -14 1
v 22 -14 -2
v 23 -14 -7
v 16 -8 -6
v 11 -14 -1
v 15 -14 1
v -36 -8 -18
v -36 -1 -18
v -35 -1 -22
v -35 -4 -22
v -29 -8 -22
v -29 -12 -18
v -36 -8 -13
v -36 -1 -13
v -37 -4 -9
v -37 -1 -9
v -36 -6 -4
v -36 1 -3
v -36 -6 1
v -36 1 1
v -36 0 7
v -36 3 7
v -36 -2 12
v -36 4 10
v -36 -1 17
v -37 6 15
v -30 -4 19
v -26 4 16
v -22 -5 18
v -16 -3 19
v -17 2 17
v -7 0 18
v -8 4 17
v 1 6 16
v -1 7 15
v 0 8 15
v -1 6 10
v 0 7 10
v 1 6 11
v -7 -1 12
v -16 -5 13
v -16 -3 7
v -16 -9 2
v -15 -10 -2
v -15 -11 -2
v -19 -14 1
v -8 -13 5
v -2 -14 1
v -36 1 -31
v -36 -6 -31
v -31 -10 -29
v -23 -10 -27
v -21 -8 -20
v -22 -12 -16
v -30 -12 -13
v -31 -7 -8
v -30 -10 -3
v -30 -10 1
v -30 -4 7
v -30 -6 13
v -22 -6 13
v 3 10 13
v 3 10 11
v -37 1 -34
v -36 -6 -34
v -29 -10 -33
v -22 -10 -31
v -17 -9 -25
v -15 -7 -20
v -16 -11 -15
v -22 -12 -12
v -23 -7 -7
v -22 -11 -2
v -22 -10 1
v -22 -4 7
v -36 2 -40
v -36 -1 -40
v -28 -4 -37
v -20 -4 -34
v -36 6 -55
v -37 0 -55
v -30 -4 -50
v -22 -5 -46
v -33 6 -58
v -32 0 -58
v -27 -4 -55
v -19 -5 -50
v -22 5 -53
v -13 3 -47
v -16 -11 -11
v -17 -7 -7
v -8 -6 -22
v 2 5 -21
v 1 6 -20
v 2 6 -23
v -7 -3 -19
v -8 -3 -14
v -7 -11 -10
v -15 -13 -11
v -17 -10 -7
v -21 -13 -7
v -17 -14 -7
v -16 -14 -2
v -8 -14 1
v -5 -14 -1
v 2 -14 -3
v -3 -13 -12
v -19 -14 -14
v -9 -13 -16
v -10 -13 -13
v -16 -13 -11
v -10 -8 -6
v -1 -14 -5
v -5 -14 -10
v 33 4 36
v 34 -2 37
v 36 -3 29
v 35 3 29
v 28 2 35
v 25 3 43
v 28 4 46
v 29 -2 47
v 30 -3 36
v 31 -4 29
v 30 2 29
v 26 -3 44
v 19 -2 52
v 18 2 51
v 20 3 54
v 21 -1 55
v 28 1 26
v 29 -4 26
v 38 -3 26
v 36 4 26
v 36 4 20
v 28 1 22
v 21 -1 26
v 23 -1 30
v 26 0 30
v 27 -4 30
v 22 -5 26
v 22 -5 23
v 29 -4 22
v 38 -3 20
v 48 -1 26
v 47 -1 29
v 40 -3 29
v 38 5 29
v 47 6 26
v 47 6 19
v 14 -2 58
v 14 -2 56
v 13 0 55
v 13 1 57
v 5 -1 56
v 6 -4 56
v 7 -4 54
v 6 -1 54
v 4 -3 54
v 43 5 38
v 45 -3 38
v 45 6 29
v 37 4 36
v 32 1 47
v 37 2 50
v 38 -4 49
v 39 -4 36
v 34 -5 47
v 25 -8 56
v 24 -2 57
v 27 -2 60
v 28 -7 60
v 18 -9 64
v 18 -9 61
v 17 -5 61
v 17 -6 64
v 7 -7 63
v 8 -11 62
v 9 -11 59
v 8 -7 60
v 6 -10 60
v 25 -1 34
v 26 -5 34
v 22 -2 34
v 19 -3 40
v 22 -3 41
v 22 -7 40
v 23 -5 34
v 23 -5 30
v 20 -7 39
v 16 -8 44
v 16 -6 45
v 17 -5 47
v 18 -8 46
v 13 -9 49
v 13 -9 47
v 12 -7 47
v 13 -8 49
v 7 -9 48
v 7 -10 48
v 8 -10 46
v 7 -8 46
v 6 -9 46
v -29 3 29
v -30 -3 29
v -29 -3 36
v -27 3 36
v -23 -4 46
v -22 1 46
v -16 -5 54
v -15 -1 54
v -8 -6 57
v -8 -3 57
v -1 -8 56
v 0 -5 56
v 1 -6 54
v -2 -7 54
v -1 -5 54
v -8 -6 55
v -8 -3 55
v -14 -5 51
v -13 -2 51
v -20 -5 43
v -19 0 43
v -24 -4 35
v -23 2 35
v -25 -4 29
v -24 2 29
v -40 6 29
v -41 -2 29
v -39 -2 39
v -37 6 38
v -32 -1 50
v -30 5 50
v -21 -2 61
v -20 3 60
v -11 -3 65
v -10 1 65
v 0 -6 63
v 1 -2 63
v 2 -4 61
v -2 -6 60
v -1 -2 60
v -11 -3 62
v -10 0 62
v -18 -3 57
v -17 2 57
v -27 -3 48
v -26 4 47
v -32 -3 37
v -31 5 36
v -34 -3 29
v -33 5 29
v -20 0 30
v -21 -4 30
v -19 -4 34
v -19 0 34
v -16 -4 41
v -15 -1 41
v -11 -5 47
v -10 -2 47
v -6 -5 49
v -6 -4 49
v 0 -7 48
v 0 -5 48
v 1 -6 47
v -1 -6 46
v -1 -5 46
v -6 -5 47
v -6 -4 47
v -10 -5 45
v -9 -3 45
v -14 -5 40
v -13 -2 40
v -16 -5 34
v -16 -1 34
v -17 -5 30
v -17 -1 30
v 48 -1 19
v -23 -4 26
v -22 1 26
v -32 -3 26
v -32 -3 20
v -23 -4 22
v -16 -5 26
v -31 4 26
v -43 -1 26
v -42 -2 19
v -15 -1 26
v -16 -5 23
v -15 -1 23
v -41 6 26
v 21 -1 23
v -41 6 19
v -8 -14 -2
v -8 -14 -9
v -7 -26 -14
v -7 -26 0
v -13 -14 -3
v -20 -26 0
v -14 -15 -10
v -20 -26 -12
v -30 -42 -16
v -7 -42 -19
v -7 -42 4
v -30 -42 4
v -43 -62 9
v -43 -62 -21
v -7 -62 -26
v -7 -62 9
v 19 -15 -3
v 19 -14 -10
v 26 -26 -12
v 26 -26 0
v 14 -14 -2
v 13 -26 0
v 13 -14 -9
v 13 -26 -14
v 13 -42 -19
v 36 -42 -16
v 36 -42 4
v 13 -42 4
v 13 -62 9
v 13 -62 -26
v 49 -62 -21
v 49 -62 9
v -7 -27 0
v -7 -27 -14
v -8 -15 -9
v -8 -15 -2
v -20 -27 0
v -30 -43 4
v -7 -43 4
v -7 -43 -19
v -20 -27 -12
v -14 -16 -10
v -13 -15 -3
v -30 -43 -16
v -43 -63 -21
v -43 -63 9
v -7 -63 9
v -7 -63 -26
v 26 -27 0
v 26 -27 -12
v 19 -15 -10
v 19 -16 -3
v 13 -27 0
v 13 -43 4
v 36 -43 4
v 36 -43 -16
v 13 -27 -14
v 13 -15 -9
v 14 -15 -2
v 13 -43 -19
v 13 -63 -26
v 13 -63 9
v 49 -63 9
v 49 -63 -21

f 1 2 3
f 1 3 4
f 1 4 5
f 1 5 6
f 1 6 7
f 1 7 2
f 2 7 8
f 8 7 9
f 8 9 10
f 10 9 11
f 10 11 12
f 12 11 13
f 12 13 14
f 14 13 15
f 14 15 16
f 16 15 17
f 16 17 18
f 18 17 19
f 18 19 20
f 18 20 21
f 21 20 22
f 21 22 23
f 23 22 24
f 23 24 25
f 25 24 26
f 25 26 27
f 27 26 28
f 27 28 29
f 29 28 30
f 29 30 31
f 29 31 32
f 29 32 33
f 29 33 34
f 29 34 35
f 35 34 36
f 36 34 37
f 36 37 38
f 38 37 39
f 38 39 40
f 38 40 41
f 38 41 42
f 38 42 43
f 38 43 44
f 44 43 45
f 45 43 46
f 45 46 47
f 47 46 48
f 47 48 49
f 47 49 50
f 47 50 51
f 47 51 52
f 47 52 53
f 53 52 54
f 54 52 55
f 54 55 56
f 56 55 57
f 56 57 58
f 56 58 59
f 56 59 60
f 56 60 61
f 56 61 62
f 62 61 63
f 63 61 64
f 63 64 65
f 63 65 66
f 63 66 67
f 67 66 68
f 67 68 69
f 69 68 70
f 69 70 71
f 71 70 72
f 71 72 73
f 71 73 74
f 74 73 75
f 74 75 76
f 76 75 77
f 76 77 78
f 78 77 79
f 78 79 80
f 80 79 81
f 80 81 82
f 82 81 83
f 82 83 84
f 84 83 85
f 84 85 86
f 86 85 4
f 86 4 3
f 6 87 7
f 7 87 9
f 9 87 88
f 9 88 11
f 11 88 89
f 11 89 13
f 13 89 90
f 13 90 15
f 15 90 17
f 17 90 91
f 17 91 19
f 19 91 92
f 19 92 20
f 20 92 31
f 20 31 22
f 22 31 30
f 22 30 24
f 24 30 93
f 24 93 26
f 26 93 94
f 26 94 28
f 28 94 95
f 28 95 30
f 30 95 93
f 93 95 94
f 93 94 96
f 93 96 97
f 93 97 98
f 93 98 99
f 93 99 94
f 94 99 100
f 94 100 96
f 96 100 97
f 97 100 101
f 97 101 102
f 97 102 103
f 97 103 98
f 98 103 104
f 98 104 105
f 98 105 99
f 99 105 106
f 99 106 101
f 99 101 100
f 107 108 6
f 107 6 5
f 107 5 109
f 107 109 110
f 107 110 111
f 107 111 108
f 108 111 112
f 108 112 113
f 108 113 87
f 108 87 6
f 113 114 88
f 113 88 87
f 114 115 89
f 114 89 88
f 115 91 90
f 115 90 89
f 112 116 113
f 113 116 114
f 114 116 117
f 114 117 115
f 115 117 118
f 115 118 91
f 91 118 92
f 92 118 32
f 92 32 31
f 119 41 112
f 119 112 111
f 119 111 120
f 119 120 48
f 119 48 42
f 119 42 41
f 41 40 116
f 41 116 112
f 40 121 117
f 40 117 116
f 121 32 118
f 121 118 117
f 39 33 121
f 39 121 40
f 33 32 121
f 37 34 122
f 37 122 123
f 37 123 39
f 39 123 124
f 39 124 33
f 33 124 34
f 34 124 122
f 122 124 123
f 72 125 75
f 72 75 73
f 125 126 77
f 125 77 75
f 126 127 79
f 126 79 77
f 127 128 81
f 127 81 79
f 128 129 83
f 128 83 81
f 129 130 85
f 129 85 83
f 130 5 4
f 130 4 85
f 70 131 125
f 70 125 72
f 131 132 126
f 131 126 125
f 132 133 127
f 132 127 126
f 133 134 128
f 133 128 127
f 134 135 129
f 134 129 128
f 135 109 130
f 135 130 129
f 109 5 130
f 68 136 131
f 68 131 70
f 136 137 132
f 136 132 131
f 137 138 133
f 137 133 132
f 138 139 134
f 138 134 133
f 139 140 135
f 139 135 134
f 140 110 109
f 140 109 135
f 66 141 136
f 66 136 68
f 141 59 137
f 141 137 136
f 59 58 138
f 59 138 137
f 58 142 139
f 58 139 138
f 120 111 110
f 120 110 143
f 120 143 144
f 120 144 48
f 48 144 49
f 49 144 145
f 49 145 146
f 49 146 50
f 50 146 147
f 50 147 148
f 50 148 51
f 51 148 142
f 51 142 57
f 51 57 149
f 51 149 52
f 52 149 150
f 52 150 55
f 55 150 151
f 55 151 57
f 57 151 149
f 149 151 150
f 149 150 151
f 149 151 152
f 149 152 153
f 149 153 154
f 149 154 150
f 150 154 155
f 150 155 151
f 151 155 152
f 152 155 156
f 152 156 157
f 152 157 158
f 152 158 153
f 153 158 159
f 153 159 160
f 153 160 154
f 154 160 161
f 154 161 162
f 154 162 163
f 154 163 164
f 154 164 155
f 155 164 156
f 65 60 141
f 65 141 66
f 60 59 141
f 57 142 58
f 65 165 60
f 60 165 61
f 61 165 166
f 61 166 64
f 64 166 167
f 64 167 65
f 65 167 165
f 165 167 166
f 46 43 168
f 46 168 169
f 46 169 48
f 48 169 170
f 48 170 42
f 42 170 43
f 43 170 168
f 168 170 169
f 169 170 171
f 169 171 172
f 169 172 173
f 169 173 170
f 170 173 174
f 170 174 175
f 170 175 171
f 171 175 172
f 172 175 176
f 172 176 177
f 172 177 173
f 173 177 178
f 173 178 164
f 173 164 174
f 174 164 179
f 174 179 180
f 174 180 181
f 174 181 175
f 175 181 182
f 175 182 176
f 176 182 183
f 176 183 184
f 176 184 185
f 176 185 186
f 186 185 187
f 187 185 188
f 187 188 103
f 103 188 189
f 103 189 190
f 103 190 104
f 104 190 191
f 104 191 192
f 104 192 105
f 105 192 193
f 105 193 106
f 106 193 194
f 106 194 195
f 106 195 101
f 140 139 196
f 140 196 197
f 140 197 110
f 110 197 143
f 143 197 198
f 143 198 199
f 143 199 144
f 144 199 145
f 145 199 143
f 145 143 200
f 145 200 146
f 146 200 201
f 146 201 147
f 147 201 202
f 147 202 203
f 147 203 148
f 148 203 204
f 148 204 142
f 142 204 139
f 139 204 196
f 196 204 205
f 196 205 206
f 196 206 197
f 197 206 198
f 198 206 207
f 198 207 208
f 198 208 199
f 199 208 143
f 143 208 209
f 143 209 200
f 200 209 201
f 201 209 202
f 202 209 210
f 202 210 203
f 203 210 205
f 203 205 204
f 206 205 211
f 206 211 207
f 207 211 209
f 207 209 208
f 205 210 211
f 211 210 209
f 212 213 214
f 212 214 215
f 212 215 216
f 212 216 217
f 212 217 218
f 212 218 213
f 213 218 219
f 219 218 220
f 219 220 221
f 221 220 222
f 221 222 223
f 223 222 224
f 223 224 225
f 225 224 226
f 225 226 227
f 227 226 228
f 227 228 229
f 229 228 230
f 229 230 231
f 231 230 232
f 231 232 233
f 233 232 234
f 233 234 235
f 233 235 236
f 236 235 237
f 236 237 238
f 238 237 239
f 238 239 240
f 240 239 241
f 240 241 242
f 242 241 243
f 242 243 158
f 158 243 244
f 158 244 245
f 158 245 159
f 159 245 246
f 159 246 247
f 159 247 160
f 160 247 248
f 160 248 161
f 161 248 249
f 161 249 250
f 161 250 162
f 162 250 251
f 162 251 252
f 162 252 163
f 163 252 253
f 163 253 179
f 163 179 164
f 215 214 254
f 215 254 255
f 215 255 256
f 215 256 216
f 216 256 257
f 216 257 258
f 216 258 217
f 217 258 259
f 217 259 260
f 217 260 218
f 218 260 220
f 220 260 261
f 220 261 222
f 222 261 262
f 222 262 224
f 224 262 263
f 224 263 226
f 226 263 264
f 226 264 228
f 228 264 265
f 228 265 230
f 230 265 232
f 232 265 266
f 232 266 234
f 234 266 246
f 234 246 235
f 235 246 245
f 235 245 237
f 237 245 244
f 237 244 239
f 239 244 165
f 239 165 241
f 241 165 267
f 241 267 243
f 243 267 268
f 243 268 244
f 244 268 165
f 165 268 267
f 255 254 269
f 255 269 270
f 255 270 271
f 255 271 256
f 256 271 272
f 256 272 257
f 257 272 191
f 257 191 273
f 257 273 258
f 258 273 274
f 258 274 259
f 259 274 275
f 259 275 276
f 259 276 260
f 260 276 261
f 261 276 277
f 261 277 262
f 262 277 278
f 262 278 263
f 263 278 279
f 263 279 264
f 264 279 280
f 264 280 265
f 265 280 266
f 266 280 247
f 266 247 246
f 270 269 281
f 270 281 282
f 270 282 283
f 270 283 271
f 271 283 284
f 271 284 272
f 272 284 192
f 272 192 191
f 282 281 285
f 282 285 286
f 282 286 287
f 282 287 283
f 283 287 288
f 283 288 284
f 284 288 193
f 284 193 192
f 286 285 289
f 286 289 290
f 286 290 291
f 286 291 287
f 287 291 292
f 287 292 288
f 288 292 194
f 288 194 193
f 290 289 293
f 290 293 291
f 291 293 292
f 292 293 294
f 292 294 194
f 194 294 195
f 275 274 183
f 275 183 182
f 275 182 295
f 275 295 276
f 276 295 277
f 277 295 296
f 277 296 278
f 278 296 249
f 278 249 279
f 279 249 248
f 279 248 280
f 280 248 247
f 274 273 297
f 274 297 183
f 183 297 184
f 184 297 189
f 184 189 298
f 184 298 185
f 185 298 299
f 185 299 188
f 188 299 300
f 188 300 189
f 189 300 298
f 298 300 299
f 273 191 190
f 273 190 297
f 297 190 189
f 301 302 177
f 301 177 176
f 295 182 181
f 295 181 303
f 295 303 304
f 295 304 296
f 296 304 305
f 296 305 249
f 249 305 250
f 250 305 306
f 250 306 251
f 251 306 307
f 251 307 308
f 251 308 252
f 252 308 309
f 252 309 253
f 253 309 310
f 253 310 311
f 253 311 179
f 179 311 180
f 180 311 312
f 180 312 303
f 180 303 181
f 313 306 305
f 313 305 304
f 313 304 314
f 313 314 315
f 313 315 316
f 313 316 306
f 306 316 307
f 307 316 317
f 307 317 308
f 308 317 309
f 309 317 310
f 310 317 318
f 310 318 311
f 311 318 312
f 312 318 319
f 312 319 314
f 312 314 303
f 303 314 304
f 319 315 314
f 315 319 317
f 315 317 316
f 318 317 319
f 320 321 322
f 320 322 323
f 320 323 324
f 320 324 325
f 320 325 326
f 320 326 321
f 321 326 327
f 321 327 328
f 321 328 329
f 321 329 322
f 322 329 323
f 323 329 330
f 323 330 324
f 324 330 328
f 324 328 331
f 324 331 325
f 325 331 332
f 325 332 333
f 325 333 326
f 326 333 334
f 326 334 327
f 327 334 335
f 327 335 331
f 327 331 328
f 328 330 329
f 329 330 336
f 329 336 337
f 329 337 322
f 322 337 338
f 322 338 323
f 323 338 339
f 323 339 330
f 330 339 336
f 336 339 340
f 336 340 341
f 336 341 342
f 336 342 343
f 336 343 344
f 336 344 337
f 337 344 345
f 337 345 346
f 337 346 347
f 337 347 348
f 337 348 338
f 338 348 349
f 338 349 350
f 338 350 351
f 338 351 352
f 338 352 339
f 339 352 353
f 339 353 354
f 339 354 355
f 339 355 340
f 331 335 332
f 332 335 356
f 332 356 357
f 332 357 333
f 333 357 358
f 333 358 334
f 334 358 359
f 334 359 335
f 335 359 356
f 356 359 360
f 356 360 361
f 356 361 357
f 357 361 362
f 357 362 358
f 358 362 363
f 358 363 359
f 359 363 360
f 360 363 364
f 360 364 361
f 361 364 362
f 362 364 363
f 365 366 351
f 365 351 367
f 365 367 368
f 365 368 369
f 365 369 370
f 365 370 366
f 366 370 371
f 366 371 372
f 366 372 352
f 366 352 351
f 351 352 367
f 367 352 353
f 367 353 368
f 368 353 372
f 368 372 373
f 368 373 369
f 369 373 374
f 369 374 375
f 369 375 370
f 370 375 376
f 370 376 371
f 371 376 377
f 371 377 373
f 371 373 372
f 372 353 352
f 373 377 374
f 374 377 378
f 374 378 379
f 374 379 375
f 375 379 380
f 375 380 376
f 376 380 381
f 376 381 377
f 377 381 378
f 378 381 382
f 378 382 383
f 378 383 379
f 379 383 384
f 379 384 380
f 380 384 385
f 380 385 381
f 381 385 382
f 382 385 386
f 382 386 383
f 383 386 384
f 384 386 385
f 387 388 345
f 387 345 344
f 387 344 389
f 387 389 390
f 387 390 391
f 387 391 388
f 388 391 392
f 388 392 393
f 388 393 394
f 388 394 345
f 345 394 344
f 344 394 343
f 344 343 389
f 389 343 393
f 389 393 395
f 389 395 390
f 390 395 396
f 390 396 397
f 390 397 391
f 391 397 398
f 391 398 392
f 392 398 399
f 392 399 395
f 392 395 393
f 393 343 394
f 394 343 342
f 394 342 346
f 394 346 345
f 395 399 396
f 396 399 400
f 396 400 401
f 396 401 397
f 397 401 402
f 397 402 398
f 398 402 403
f 398 403 399
f 399 403 400
f 400 403 404
f 400 404 405
f 400 405 401
f 401 405 406
f 401 406 402
f 402 406 407
f 402 407 403
f 403 407 404
f 404 407 408
f 404 408 405
f 405 408 406
f 406 408 407
f 409 410 411
f 409 411 412
f 412 411 413
f 412 413 414
f 414 413 415
f 414 415 416
f 416 415 417
f 416 417 418
f 418 417 419
f 418 419 420
f 420 419 421
f 421 419 422
f 421 422 423
f 423 422 424
f 423 424 425
f 425 424 426
f 425 426 427
f 427 426 428
f 427 428 429
f 429 428 430
f 429 430 431
f 431 430 432
f 431 432 433
f 433 432 410
f 433 410 409
f 410 432 430
f 410 430 411
f 411 430 428
f 411 428 413
f 413 428 426
f 413 426 415
f 415 426 424
f 415 424 417
f 417 424 422
f 417 422 419
f 434 435 436
f 434 436 437
f 437 436 438
f 437 438 439
f 439 438 440
f 439 440 441
f 441 440 442
f 441 442 443
f 443 442 444
f 443 444 445
f 445 444 446
f 446 444 447
f 446 447 448
f 448 447 449
f 448 449 450
f 450 449 451
f 450 451 452
f 452 451 453
f 452 453 454
f 454 453 455
f 454 455 456
f 456 455 457
f 456 457 458
f 458 457 435
f 458 435 434
f 435 457 455
f 435 455 436
f 436 455 453
f 436 453 438
f 438 453 451
f 438 451 440
f 440 451 449
f 440 449 442
f 442 449 447
f 442 447 444
f 459 460 461
f 459 461 462
f 462 461 463
f 462 463 464
f 464 463 465
f 464 465 466
f 466 465 467
f 466 467 468
f 468 467 469
f 468 469 470
f 470 469 471
f 471 469 472
f 471 472 473
f 473 472 474
f 473 474 475
f 475 474 476
f 475 476 477
f 477 476 478
f 477 478 479
f 479 478 480
f 479 480 481
f 481 480 482
f 481 482 483
f 483 482 460
f 483 460 459
f 460 482 480
f 460 480 461
f 461 480 478
f 461 478 463
f 463 478 476
f 463 476 465
f 465 476 474
f 465 474 467
f 467 474 472
f 467 472 469
f 353 367 354
f 354 367 350
f 354 350 484
f 354 484 355
f 433 432 485
f 433 485 486
f 486 485 460
f 486 460 459
f 432 410 487
f 432 487 485
f 485 487 488
f 485 488 489
f 485 489 490
f 485 490 482
f 485 482 460
f 458 457 487
f 458 487 491
f 491 487 410
f 491 410 409
f 457 435 492
f 457 492 487
f 487 492 493
f 487 493 488
f 483 482 490
f 483 490 494
f 494 490 495
f 494 495 496
f 497 492 435
f 497 435 434
f 350 367 351
f 350 349 484
f 346 342 498
f 346 498 347
f 342 341 498
f 490 489 495
f 492 497 499
f 492 499 493
f 500 501 502
f 500 502 503
f 500 503 504
f 504 503 505
f 504 505 506
f 506 505 507
f 506 507 501
f 501 507 502
f 502 507 508
f 502 508 509
f 502 509 503
f 503 509 510
f 503 510 505
f 505 510 511
f 505 511 507
f 507 511 508
f 508 511 512
f 508 512 513
f 508 513 509
f 509 513 514
f 509 514 510
f 510 514 515
f 510 515 511
f 511 515 512
f 516 517 518
f 516 518 519
f 516 519 520
f 520 519 521
f 520 521 522
f 522 521 523
f 522 523 517
f 517 523 518
f 518 523 524
f 518 524 525
f 518 525 519
f 519 525 526
f 519 526 521
f 521 526 527
f 521 527 523
f 523 527 524
f 524 527 528
f 524 528 529
f 524 529 525
f 525 529 530
f 525 530 526
f 526 530 531
f 526 531 527
f 527 531 528
f 532 533 534
f 532 534 535
f 532 535 536
f 532 536 537
f 532 537 538
f 532 538 533
f 533 538 539
f 533 539 540
f 533 540 541
f 533 541 534
f 536 535 542
f 536 542 540
f 536 540 543
f 536 543 537
f 537 543 544
f 537 544 545
f 537 545 538
f 538 545 546
f 538 546 539
f 539 546 547
f 539 547 543
f 539 543 540
f 540 542 541
f 548 549 550
f 548 550 551
f 548 551 552
f 548 552 553
f 548 553 554
f 548 554 549
f 549 554 555
f 549 555 556
f 549 556 557
f 549 557 550
f 552 551 558
f 552 558 556
f 552 556 559
f 552 559 553
f 553 559 560
f 553 560 561
f 553 561 554
f 554 561 562
f 554 562 555
f 555 562 563
f 555 563 559
f 555 559 556
f 556 558 557
f 547 544 543
f 563 560 559
