# RS2 Model 15938
# Vertices: 93
# Faces: 142

v 1 -17 153
v 1 -17 152
v 4 -15 155
v 6 -15 154
v 6 -11 158
v 8 -11 158
v 7 -8 161
v 9 -8 161
v 8 -4 163
v 10 -3 163
v 9 1 165
v 11 2 165
v 7 7 164
v 9 9 164
v 0 12 164
v 0 10 164
v -7 7 164
v -9 9 164
v -11 2 165
v -9 1 165
v -10 -3 163
v -8 -4 163
v -9 -8 161
v -7 -8 162
v -8 -11 158
v -6 -11 158
v -6 -14 155
v -5 -15 156
v -2 -17 152
v -2 -17 153
v 0 -21 143
v 0 -22 146
v -1 -20 146
v -1 -20 143
v -1 -20 141
v 1 -20 141
v 2 -20 143
v 2 -20 146
v 0 -22 147
v -1 -20 147
v -2 -18 147
v -2 -17 146
v -5 -17 145
v -5 -19 145
v -5 -19 144
v -1 -18 143
v -2 -18 141
v -4 -18 140
v -4 -20 140
v -1 -20 138
v 1 -20 138
v 4 -20 139
v 4 -20 141
v 5 -19 142
v 2 -19 142
v 3 -19 143
v 4 -20 144
v 4 -20 145
v 3 -19 146
v 2 -20 147
v 1 -18 152
v -1 -20 152
v -2 -18 152
v -2 -15 151
v 1 -15 151
v 2 -16 146
v 2 -18 143
v -5 -17 144
v -1 -18 141
v 1 -18 141
v -1 -18 138
v 0 -19 136
v 1 -19 138
v 1 -18 138
v 5 -19 139
v -4 -18 138
v -5 -19 139
v -4 -20 138
v 4 -17 144
v 4 -17 145
v 3 -18 147
v 2 -16 151
v 1 -16 152
v 1 -18 153
v -1 -19 153
v -2 -18 153
v 1 -17 151
v -2 -16 151
v 4 -18 141
v 4 -17 139
v -10 -18 151
v 10 -19 152
v -10 7 167

f 1 2 3
f 3 2 4
f 3 4 5
f 5 4 6
f 5 6 7
f 7 6 8
f 7 8 9
f 9 8 10
f 9 10 11
f 11 10 12
f 11 12 13
f 13 12 14
f 13 14 15
f 13 15 16
f 16 15 17
f 17 15 18
f 17 18 19
f 17 19 20
f 20 19 21
f 20 21 22
f 22 21 23
f 22 23 24
f 24 23 25
f 24 25 26
f 26 25 27
f 26 27 28
f 28 27 29
f 28 29 30
f 31 32 33
f 31 33 34
f 31 34 35
f 31 35 36
f 31 36 37
f 31 37 32
f 32 37 38
f 32 38 39
f 32 39 40
f 32 40 33
f 33 40 41
f 33 41 42
f 33 42 43
f 33 43 44
f 33 44 34
f 34 44 45
f 34 45 46
f 34 46 47
f 34 47 35
f 35 47 48
f 35 48 49
f 35 49 50
f 35 50 51
f 35 51 36
f 36 51 52
f 36 52 53
f 36 53 54
f 36 54 55
f 36 55 56
f 36 56 37
f 37 56 57
f 37 57 38
f 38 57 58
f 38 58 59
f 38 59 60
f 38 60 39
f 39 60 61
f 39 61 62
f 39 62 40
f 40 62 63
f 40 63 41
f 41 63 64
f 41 64 65
f 41 65 66
f 41 66 42
f 42 66 67
f 42 67 46
f 42 46 43
f 43 46 68
f 43 68 45
f 43 45 44
f 69 47 46
f 69 46 70
f 69 70 71
f 69 71 48
f 69 48 47
f 72 73 51
f 72 51 50
f 72 50 71
f 72 71 74
f 72 74 73
f 73 74 75
f 73 75 52
f 73 52 51
f 76 77 48
f 76 48 71
f 76 71 78
f 76 78 77
f 77 78 49
f 77 49 48
f 49 78 50
f 50 78 71
f 52 75 54
f 52 54 53
f 79 80 58
f 79 58 57
f 79 57 67
f 79 67 66
f 79 66 80
f 80 66 59
f 80 59 58
f 67 57 56
f 67 56 55
f 67 55 70
f 67 70 46
f 45 68 46
f 81 82 61
f 81 61 60
f 81 60 59
f 81 59 66
f 81 66 82
f 82 66 65
f 82 65 83
f 82 83 84
f 82 84 61
f 61 84 62
f 62 84 85
f 62 85 63
f 63 85 86
f 63 86 64
f 64 86 85
f 64 85 84
f 64 84 83
f 64 83 65
f 2 87 4
f 27 88 29
f 70 89 90
f 70 90 74
f 70 74 71
f 74 90 75
f 75 90 89
f 75 89 54
f 54 89 70
f 54 70 55
