# RS2 Model 15985
# Vertices: 325
# Faces: 449

v -30 -3 188
v -34 -3 188
v -36 5 -23
v -32 5 -24
v -28 5 -23
v -28 7 -25
v -30 0 188
v -30 0 192
v -30 -3 192
v -20 -3 189
v -30 -6 188
v -34 -6 188
v -45 -6 190
v -45 -3 190
v -34 -3 192
v -34 0 188
v -36 8 -25
v -32 8 -26
v -32 11 -24
v -28 11 -23
v -34 0 192
v -34 0 301
v -30 0 301
v -30 -5 301
v -34 -5 301
v -34 -6 192
v -30 -6 192
v -20 -6 193
v -20 -3 193
v -9 -3 190
v -20 -6 189
v -45 -6 193
v -55 -6 190
v -55 -3 190
v -45 -3 193
v -55 -3 193
v -55 -6 193
v -78 -6 190
v -78 -6 188
v -77 -6 187
v -78 -5 187
v -77 -3 187
v -36 11 -23
v -33 -1 328
v -32 -1 329
v -34 0 305
v -33 -2 329
v -32 -3 330
v -31 -1 328
v -30 0 305
v -34 -5 305
v -33 -4 328
v -32 -4 329
v -31 -3 329
v -30 -5 305
v -31 -4 328
v -34 -8 305
v -30 -8 305
v -20 -8 306
v -20 -5 306
v -20 -5 303
v -30 -8 301
v -34 -8 301
v -45 -8 303
v -45 -5 303
v -45 -8 306
v -55 -8 303
v -55 -5 303
v -45 -5 306
v -55 -5 306
v -55 -8 306
v -67 -8 305
v -66 -8 302
v -66 -5 302
v -67 -5 305
v 15 -6 301
v 14 -5 301
v 14 -5 303
v 15 -6 303
v 14 -8 301
v 13 -8 300
v 14 -6 300
v 13 -5 300
v 2 -5 303
v 3 -5 305
v 2 -8 305
v 14 -8 303
v 2 -8 302
v 2 -5 302
v -9 -5 303
v -9 -5 306
v -9 -8 306
v -9 -8 303
v -20 -8 303
v -78 -8 303
v -78 -8 301
v -79 -7 303
v -80 -7 301
v -78 -7 300
v -77 -8 300
v -77 -5 300
v -78 -5 301
v -78 -5 303
v -79 -4 190
v -78 -3 190
v -78 -3 189
v -79 -5 188
v 13 -3 187
v 15 -4 187
v -9 -6 190
v 16 -4 190
v 14 -3 190
v -9 -3 193
v -9 -6 193
v 14 -6 190
v 14 -6 188
v 16 -4 188
v 14 -3 188
v 13 -6 187
v -77 -7 302
v -74 -7 286
v -53 -7 282
v -56 -7 297
v -74 -6 286
v -53 -6 282
v -72 -11 247
v -52 -9 257
v -71 -7 204
v -52 -8 220
v -75 -7 188
v -51 -7 195
v -52 -11 220
v -72 -13 247
v -52 -13 257
v -34 -13 263
v -33 -9 281
v -34 -7 296
v -33 -6 281
v -34 -9 263
v -34 -8 227
v -11 -10 286
v -12 -7 298
v -12 -14 264
v 4 -13 264
v 7 -7 288
v 9 -7 301
v -11 -5 286
v -13 -13 230
v 3 -13 227
v -34 -13 227
v -11 -7 196
v 9 -7 189
v -33 -7 197
v -13 -8 230
v 3 -11 227
v 7 -6 288
v -12 -10 264
v 4 -11 264
v -37 -8 213
v -39 -8 213
v -41 -8 213
v -42 -11 277
v -34 -13 273
v -32 -8 293
v -42 -8 290
v -51 -9 284
v -53 -10 279
v -53 -13 272
v -46 -13 272
v -50 -15 266
v -45 -15 266
v -35 -15 265
v -50 -15 260
v -45 -15 255
v -32 -15 262
v -33 -14 269
v -31 -14 268
v -30 -13 272
v -22 -9 290
v -23 -11 276
v -13 -11 284
v -12 -12 279
v -11 -13 272
v -18 -13 272
v -14 -15 266
v -19 -14 267
v -30 -15 266
v -14 -15 260
v -19 -15 255
v -14 -15 257
v -35 -15 257
v -44 -15 250
v -33 -15 250
v -32 -15 256
v -29 -15 257
v -22 -15 250
v -44 -15 244
v -41 -15 245
v -42 -15 249
v -45 -15 249
v -46 -15 245
v -39 -15 242
v -36 -15 244
v -36 -15 249
v -39 -15 249
v -40 -15 245
v -33 -15 242
v -31 -15 245
v -32 -15 249
v -34 -15 249
v -35 -15 245
v -22 -15 244
v -19 -15 245
v -20 -15 249
v -23 -15 249
v -23 -15 245
v -28 -15 242
v -25 -15 244
v -25 -15 249
v -29 -15 249
v -30 -15 244
v -50 -15 257
v -25 -10 201
v -18 -10 201
v -32 -12 218
v -32 -12 216
v -46 -10 201
v -39 -10 201
v -51 -10 199
v -36 -10 199
v -29 -12 218
v -18 -15 236
v -32 -13 222
v -39 -15 236
v -46 -15 236
v -35 -12 218
v -25 -15 236
v -13 -15 239
v -28 -15 239
v -36 -15 239
v -51 -15 239
v -28 -10 199
v -13 -10 199
v -42 -5 290
v -32 -5 293
v -34 -5 273
v -42 -6 277
v -51 -6 284
v -53 -6 279
v -53 -7 272
v -46 -7 272
v -50 -7 266
v -45 -7 266
v -35 -7 265
v -50 -8 260
v -45 -8 255
v -50 -8 257
v -31 -7 268
v -30 -6 272
v -23 -6 276
v -22 -4 290
v -13 -5 284
v -12 -6 279
v -11 -7 272
v -18 -7 272
v -14 -7 266
v -19 -7 267
v -30 -7 266
v -14 -8 260
v -19 -8 255
v -32 -8 262
v -33 -7 269
v -35 -8 257
v -45 -8 249
v -42 -8 249
v -41 -7 245
v -44 -7 244
v -46 -7 245
v -39 -8 249
v -36 -8 249
v -36 -7 244
v -39 -7 242
v -40 -7 245
v -34 -8 249
v -32 -8 249
v -31 -7 245
v -33 -7 242
v -35 -7 245
v -29 -8 257
v -22 -8 250
v -33 -8 250
v -32 -8 256
v -44 -8 250
v -14 -8 257
v -23 -8 249
v -20 -8 249
v -19 -7 245
v -22 -7 244
v -23 -7 245
v -29 -8 249
v -25 -8 249
v -25 -7 244
v -28 -7 242
v -30 -7 244
v -32 -6 216
v -32 -6 218
v -18 -6 201
v -25 -6 201
v -13 -6 199
v -28 -6 199
v -29 -6 218
v -18 -7 236
v -25 -7 236
v -28 -7 239
v -13 -7 239
v -46 -6 201
v -35 -6 218
v -46 -7 236
v -32 -6 222
v -39 -6 201
v -36 -6 199
v -51 -6 199
v -39 -7 236
v -51 -7 239
v -36 -7 239

f 1 2 3
f 1 3 4
f 1 4 5
f 1 5 6
f 1 6 7
f 1 7 8
f 1 8 9
f 1 9 10
f 1 10 11
f 1 11 2
f 2 11 12
f 2 12 13
f 2 13 14
f 2 14 15
f 2 15 16
f 2 16 3
f 3 16 17
f 3 17 4
f 4 17 18
f 4 18 5
f 5 18 6
f 6 18 19
f 6 19 20
f 6 20 7
f 7 20 19
f 7 19 16
f 7 16 21
f 7 21 8
f 8 21 22
f 8 22 23
f 8 23 24
f 8 24 9
f 9 24 25
f 9 25 15
f 9 15 26
f 9 26 27
f 9 27 28
f 9 28 29
f 9 29 10
f 10 29 30
f 10 30 31
f 10 31 11
f 11 31 27
f 11 27 26
f 11 26 12
f 12 26 13
f 13 26 32
f 13 32 33
f 13 33 14
f 14 33 34
f 14 34 35
f 14 35 15
f 15 35 26
f 26 35 32
f 32 35 36
f 32 36 37
f 32 37 33
f 33 37 38
f 33 38 39
f 33 39 40
f 33 40 41
f 33 41 34
f 34 41 42
f 34 42 36
f 34 36 35
f 16 43 17
f 17 43 18
f 18 43 19
f 19 43 16
f 44 45 46
f 44 46 47
f 44 47 45
f 45 47 48
f 45 48 49
f 45 49 50
f 45 50 46
f 46 50 22
f 46 22 51
f 46 51 52
f 46 52 47
f 47 52 48
f 48 52 53
f 48 53 54
f 48 54 49
f 49 54 50
f 50 54 55
f 50 55 24
f 50 24 23
f 50 23 22
f 55 56 53
f 55 53 52
f 55 52 51
f 55 51 57
f 55 57 58
f 55 58 59
f 55 59 60
f 55 60 61
f 55 61 24
f 24 61 62
f 24 62 25
f 25 62 63
f 25 63 64
f 25 64 65
f 25 65 51
f 25 51 22
f 25 22 15
f 15 22 21
f 15 21 16
f 53 56 54
f 54 56 55
f 62 58 57
f 62 57 63
f 63 57 64
f 64 57 66
f 64 66 67
f 64 67 65
f 65 67 68
f 65 68 69
f 65 69 51
f 51 69 57
f 57 69 66
f 66 69 70
f 66 70 71
f 66 71 67
f 67 71 72
f 67 72 73
f 67 73 68
f 68 73 74
f 68 74 75
f 68 75 70
f 68 70 69
f 76 77 78
f 76 78 79
f 76 79 80
f 76 80 81
f 76 81 82
f 76 82 77
f 77 82 83
f 77 83 84
f 77 84 85
f 77 85 78
f 78 85 86
f 78 86 79
f 79 86 87
f 79 87 80
f 80 87 86
f 80 86 81
f 81 86 88
f 81 88 82
f 82 88 89
f 82 89 83
f 83 89 84
f 84 89 90
f 84 90 85
f 85 90 91
f 85 91 86
f 86 91 92
f 86 92 93
f 86 93 88
f 88 93 89
f 89 93 90
f 90 93 94
f 90 94 61
f 90 61 60
f 90 60 91
f 91 60 92
f 92 60 59
f 92 59 93
f 93 59 94
f 94 59 58
f 94 58 62
f 94 62 61
f 75 72 71
f 75 71 70
f 95 96 72
f 95 72 97
f 95 97 98
f 95 98 96
f 96 98 99
f 96 99 100
f 96 100 72
f 72 100 73
f 73 100 74
f 74 100 99
f 74 99 101
f 74 101 75
f 75 101 102
f 75 102 103
f 75 103 97
f 75 97 72
f 104 38 37
f 104 37 36
f 104 36 105
f 104 105 106
f 104 106 107
f 104 107 38
f 38 107 39
f 39 107 41
f 39 41 40
f 36 106 105
f 106 36 42
f 106 42 107
f 107 42 41
f 30 108 109
f 30 109 110
f 30 110 31
f 31 110 28
f 31 28 27
f 111 112 113
f 111 113 114
f 111 114 115
f 111 115 116
f 111 116 117
f 111 117 112
f 112 117 118
f 112 118 113
f 113 118 30
f 113 30 29
f 113 29 114
f 114 29 28
f 114 28 110
f 114 110 119
f 114 119 116
f 114 116 115
f 118 108 30
f 108 118 109
f 109 118 117
f 109 117 119
f 109 119 110
f 120 121 122
f 120 122 123
f 120 123 124
f 124 123 125
f 124 125 126
f 126 125 127
f 126 127 128
f 128 127 129
f 128 129 130
f 128 130 131
f 128 131 132
f 128 132 133
f 133 132 134
f 133 134 121
f 121 134 122
f 122 134 135
f 122 135 136
f 122 136 123
f 123 136 137
f 123 137 125
f 125 137 138
f 125 138 127
f 127 138 139
f 127 139 129
f 129 139 140
f 129 140 131
f 129 131 130
f 141 142 137
f 141 137 136
f 141 136 143
f 141 143 144
f 141 144 145
f 141 145 142
f 142 145 146
f 142 146 147
f 142 147 138
f 142 138 137
f 143 136 135
f 143 135 148
f 143 148 149
f 143 149 144
f 134 132 150
f 134 150 135
f 135 150 148
f 148 150 151
f 148 151 152
f 148 152 149
f 132 131 153
f 132 153 150
f 150 153 151
f 151 153 154
f 151 154 155
f 151 155 152
f 146 156 147
f 147 156 157
f 147 157 139
f 147 139 138
f 156 158 157
f 157 158 154
f 157 154 140
f 157 140 139
f 154 158 155
f 140 153 131
f 153 140 154
f 159 160 161
f 97 103 102
f 97 102 98
f 98 102 101
f 98 101 99
f 119 117 116
f 162 163 164
f 162 164 165
f 162 165 166
f 162 166 167
f 162 167 168
f 162 168 169
f 169 168 170
f 169 170 171
f 171 170 172
f 172 170 173
f 172 173 174
f 172 174 175
f 172 175 176
f 176 175 177
f 176 177 163
f 163 177 164
f 164 177 178
f 164 178 179
f 179 178 180
f 179 180 181
f 181 180 182
f 182 180 183
f 183 180 184
f 183 184 185
f 185 184 186
f 185 186 187
f 185 187 188
f 188 187 189
f 188 189 190
f 175 174 191
f 191 174 192
f 191 192 193
f 191 193 194
f 194 193 195
f 195 193 196
f 195 196 189
f 195 189 175
f 175 189 187
f 175 187 177
f 197 198 199
f 197 199 200
f 197 200 201
f 202 203 204
f 202 204 205
f 202 205 206
f 207 208 209
f 207 209 210
f 207 210 211
f 212 213 214
f 212 214 215
f 212 215 216
f 217 218 219
f 217 219 220
f 217 220 221
f 173 222 174
f 223 224 225
f 223 225 226
f 226 225 227
f 226 227 228
f 228 227 229
f 228 229 230
f 225 224 231
f 225 231 232
f 225 232 233
f 225 233 234
f 225 234 235
f 225 235 236
f 225 236 227
f 232 237 233
f 237 232 238
f 237 238 239
f 240 241 235
f 240 235 234
f 242 243 224
f 242 224 223
f 244 245 246
f 244 246 247
f 244 247 248
f 248 247 249
f 249 247 250
f 250 247 251
f 250 251 252
f 252 251 253
f 252 253 254
f 252 254 255
f 255 254 256
f 255 256 257
f 258 246 245
f 258 245 259
f 259 245 260
f 260 245 261
f 260 261 262
f 260 262 263
f 260 263 264
f 260 264 265
f 265 264 266
f 265 266 267
f 267 266 268
f 268 266 269
f 268 269 270
f 268 270 271
f 268 271 258
f 258 271 272
f 258 272 246
f 273 256 271
f 271 256 254
f 271 254 272
f 274 275 276
f 274 276 277
f 274 277 278
f 279 280 281
f 279 281 282
f 279 282 283
f 284 285 286
f 284 286 287
f 284 287 288
f 271 270 289
f 289 270 290
f 289 290 291
f 289 291 292
f 292 291 273
f 273 291 293
f 273 293 256
f 269 294 270
f 295 296 297
f 295 297 298
f 295 298 299
f 300 301 302
f 300 302 303
f 300 303 304
f 305 306 307
f 305 307 308
f 308 307 309
f 308 309 310
f 311 307 306
f 311 306 312
f 312 306 313
f 312 313 314
f 312 314 315
f 306 316 317
f 306 317 318
f 306 318 319
f 306 319 313
f 306 305 320
f 306 320 316
f 316 320 321
f 316 321 322
f 319 318 323
f 323 318 324
f 323 324 325
