# RS2 Model 16093
# Vertices: 324
# Faces: 640

v 49 28 160
v 55 13 160
v 49 22 147
v 40 40 152
v 40 40 168
v 49 22 173
v 55 8 173
v 59 0 160
v 55 8 147
v 46 15 132
v 40 33 138
v 28 46 145
v 28 49 160
v 28 46 175
v 40 33 182
v 46 15 188
v 49 0 188
v 55 -8 173
v 55 -13 160
v 55 -8 147
v 49 0 132
v 40 8 120
v 33 22 120
v 22 40 127
v 13 49 138
v 13 55 152
v 13 55 168
v 13 49 182
v 22 40 193
v 33 22 200
v 40 8 200
v 40 -8 200
v 46 -15 188
v 49 -22 173
v 49 -28 160
v 49 -22 147
v 46 -15 132
v 40 -8 120
v 28 0 111
v 22 13 111
v 15 28 114
v 8 40 120
v 0 49 132
v 0 55 147
v 0 59 160
v 0 55 173
v 0 49 188
v 8 40 200
v 15 28 206
v 22 13 209
v 28 0 209
v 22 -13 209
v 33 -22 200
v 40 -33 182
v 40 -40 168
v 40 -40 152
v 40 -33 138
v 33 -22 120
v 22 -13 111
v 13 0 105
v 8 13 105
v 0 28 111
v -8 40 120
v -13 49 138
v -13 55 152
v -13 55 168
v -13 49 182
v -8 40 200
v 0 28 209
v 8 13 215
v 13 0 215
v 8 -13 215
v 15 -28 206
v 22 -40 193
v 28 -46 175
v 28 -49 160
v 28 -46 145
v 22 -40 127
v 15 -28 114
v 8 -13 105
v 0 0 101
v -8 13 105
v -15 28 114
v -22 40 127
v -28 46 145
v -28 49 160
v -28 46 175
v -22 40 193
v -15 28 206
v -8 13 215
v 0 0 219
v -8 -13 215
v 0 -28 209
v 8 -40 200
v 13 -49 182
v 13 -55 168
v 13 -55 152
v 13 -49 138
v 8 -40 120
v 0 -28 111
v -8 -13 105
v -13 0 105
v -22 13 111
v -33 22 120
v -40 33 138
v -40 40 152
v -40 40 168
v -40 33 182
v -33 22 200
v -22 13 209
v -13 0 215
v -22 -13 209
v -15 -28 206
v -8 -40 200
v 0 -49 188
v 0 -55 173
v 0 -59 160
v 0 -55 147
v 0 -49 132
v -8 -40 120
v -15 -28 114
v -22 -13 111
v -28 0 111
v -40 8 120
v -46 15 132
v -49 22 147
v -49 28 160
v -49 22 173
v -46 15 188
v -40 8 200
v -28 0 209
v -40 -8 200
v -33 -22 200
v -22 -40 193
v -13 -49 182
v -13 -55 168
v -13 -55 152
v -13 -49 138
v -22 -40 127
v -33 -22 120
v -40 -8 120
v -49 0 132
v -55 8 147
v -55 13 160
v -55 8 173
v -49 0 188
v -28 -46 145
v -28 -49 160
v -40 -40 152
v -40 -33 138
v -49 -28 160
v -40 -40 168
v -49 -22 173
v -55 -13 160
v -49 -22 147
v -46 -15 132
v -28 -46 175
v -40 -33 182
v -46 -15 188
v -55 -8 173
v -59 0 160
v -55 -8 147
v -10 18 160
v -4 21 160
v -8 18 156
v -15 15 157
v -15 15 163
v -8 18 164
v -3 21 164
v 0 22 160
v -3 21 156
v -5 17 150
v -12 15 152
v -17 10 155
v -18 10 160
v -17 10 165
v -12 15 168
v -5 17 170
v 0 18 170
v 3 21 164
v 4 21 160
v 3 21 156
v 0 18 150
v -3 15 145
v -8 12 145
v -15 8 148
v -18 4 152
v -21 4 157
v -21 4 163
v -18 4 168
v -15 8 172
v -8 12 175
v -3 15 175
v 3 15 175
v 5 17 170
v 8 18 164
v 10 18 160
v 8 18 156
v 5 17 150
v 3 15 145
v 0 10 142
v -4 8 142
v -10 5 143
v -15 3 145
v -18 0 150
v -21 0 156
v -22 0 160
v -21 0 164
v -18 0 170
v -15 3 175
v -10 5 177
v -4 8 178
v 0 10 178
v 4 8 178
v 8 12 175
v 12 15 168
v 15 15 163
v 15 15 157
v 12 15 152
v 8 12 145
v 4 8 142
v 0 4 139
v -4 3 139
v -10 0 142
v -15 -3 145
v -18 -4 152
v -21 -4 157
v -21 -4 163
v -18 -4 168
v -15 -3 175
v -10 0 178
v -4 3 181
v 0 4 181
v 4 3 181
v 10 5 177
v 15 8 172
v 17 10 165
v 18 10 160
v 17 10 155
v 15 8 148
v 10 5 143
v 4 3 139
v 0 0 138
v -4 -3 139
v -10 -5 143
v -15 -8 148
v -17 -10 155
v -18 -10 160
v -17 -10 165
v -15 -8 172
v -10 -5 177
v -4 -3 181
v 0 0 182
v 4 -3 181
v 10 0 178
v 15 3 175
v 18 4 168
v 21 4 163
v 21 4 157
v 18 4 152
v 15 3 145
v 10 0 142
v 4 -3 139
v 0 -4 139
v -4 -8 142
v -8 -12 145
v -12 -15 152
v -15 -15 157
v -15 -15 163
v -12 -15 168
v -8 -12 175
v -4 -8 178
v 0 -4 181
v 4 -8 178
v 10 -5 177
v 15 -3 175
v 18 0 170
v 21 0 164
v 22 0 160
v 21 0 156
v 18 0 150
v 15 -3 145
v 10 -5 143
v 4 -8 142
v 0 -10 142
v -3 -15 145
v -5 -17 150
v -8 -18 156
v -10 -18 160
v -8 -18 164
v -5 -17 170
v -3 -15 175
v 0 -10 178
v 3 -15 175
v 8 -12 175
v 15 -8 172
v 18 -4 168
v 21 -4 163
v 21 -4 157
v 18 -4 152
v 15 -8 148
v 8 -12 145
v 3 -15 145
v 0 -18 150
v -3 -21 156
v -4 -21 160
v -3 -21 164
v 0 -18 170
v 17 -10 155
v 18 -10 160
v 15 -15 157
v 12 -15 152
v 10 -18 160
v 15 -15 163
v 8 -18 164
v 4 -21 160
v 8 -18 156
v 5 -17 150
v 17 -10 165
v 12 -15 168
v 5 -17 170
v 3 -21 164
v 0 -22 160
v 3 -21 156

f 1 2 3
f 1 3 4
f 1 4 5
f 1 5 6
f 1 6 2
f 2 6 7
f 2 7 8
f 2 8 9
f 2 9 3
f 3 9 10
f 3 10 11
f 3 11 4
f 4 11 12
f 4 12 13
f 4 13 5
f 5 13 14
f 5 14 15
f 5 15 6
f 6 15 16
f 6 16 7
f 7 16 17
f 7 17 18
f 7 18 8
f 8 18 19
f 8 19 20
f 8 20 9
f 9 20 21
f 9 21 10
f 10 21 22
f 10 22 23
f 10 23 11
f 11 23 24
f 11 24 12
f 12 24 25
f 12 25 26
f 12 26 13
f 13 26 27
f 13 27 14
f 14 27 28
f 14 28 29
f 14 29 15
f 15 29 30
f 15 30 16
f 16 30 31
f 16 31 17
f 17 31 32
f 17 32 33
f 17 33 18
f 18 33 34
f 18 34 19
f 19 34 35
f 19 35 36
f 19 36 20
f 20 36 37
f 20 37 21
f 21 37 38
f 21 38 22
f 22 38 39
f 22 39 40
f 22 40 23
f 23 40 41
f 23 41 24
f 24 41 42
f 24 42 25
f 25 42 43
f 25 43 44
f 25 44 26
f 26 44 45
f 26 45 27
f 27 45 46
f 27 46 28
f 28 46 47
f 28 47 48
f 28 48 29
f 29 48 49
f 29 49 30
f 30 49 50
f 30 50 31
f 31 50 51
f 31 51 32
f 32 51 52
f 32 52 53
f 32 53 33
f 33 53 54
f 33 54 34
f 34 54 55
f 34 55 35
f 35 55 56
f 35 56 36
f 36 56 57
f 36 57 37
f 37 57 58
f 37 58 38
f 38 58 59
f 38 59 39
f 39 59 60
f 39 60 40
f 40 60 61
f 40 61 41
f 41 61 62
f 41 62 42
f 42 62 63
f 42 63 43
f 43 63 64
f 43 64 44
f 44 64 65
f 44 65 45
f 45 65 66
f 45 66 46
f 46 66 67
f 46 67 47
f 47 67 68
f 47 68 48
f 48 68 69
f 48 69 49
f 49 69 70
f 49 70 50
f 50 70 71
f 50 71 51
f 51 71 52
f 52 71 72
f 52 72 73
f 52 73 53
f 53 73 74
f 53 74 54
f 54 74 75
f 54 75 55
f 55 75 76
f 55 76 56
f 56 76 77
f 56 77 57
f 57 77 78
f 57 78 58
f 58 78 79
f 58 79 59
f 59 79 80
f 59 80 60
f 60 80 81
f 60 81 61
f 61 81 82
f 61 82 62
f 62 82 83
f 62 83 63
f 63 83 84
f 63 84 64
f 64 84 85
f 64 85 65
f 65 85 86
f 65 86 66
f 66 86 87
f 66 87 67
f 67 87 88
f 67 88 68
f 68 88 89
f 68 89 69
f 69 89 90
f 69 90 70
f 70 90 91
f 70 91 71
f 71 91 72
f 72 91 92
f 72 92 93
f 72 93 73
f 73 93 94
f 73 94 74
f 74 94 95
f 74 95 75
f 75 95 96
f 75 96 76
f 76 96 97
f 76 97 77
f 77 97 98
f 77 98 78
f 78 98 99
f 78 99 79
f 79 99 100
f 79 100 80
f 80 100 101
f 80 101 81
f 81 101 102
f 81 102 82
f 82 102 103
f 82 103 83
f 83 103 104
f 83 104 84
f 84 104 105
f 84 105 85
f 85 105 106
f 85 106 86
f 86 106 107
f 86 107 87
f 87 107 108
f 87 108 88
f 88 108 109
f 88 109 89
f 89 109 110
f 89 110 90
f 90 110 111
f 90 111 91
f 91 111 92
f 92 111 112
f 92 112 113
f 92 113 93
f 93 113 114
f 93 114 94
f 94 114 115
f 94 115 95
f 95 115 116
f 95 116 96
f 96 116 117
f 96 117 97
f 97 117 118
f 97 118 98
f 98 118 119
f 98 119 99
f 99 119 120
f 99 120 100
f 100 120 121
f 100 121 101
f 101 121 122
f 101 122 102
f 102 122 123
f 102 123 103
f 103 123 124
f 103 124 104
f 104 124 125
f 104 125 105
f 105 125 126
f 105 126 106
f 106 126 127
f 106 127 107
f 107 127 128
f 107 128 108
f 108 128 129
f 108 129 109
f 109 129 130
f 109 130 110
f 110 130 131
f 110 131 111
f 111 131 112
f 112 131 132
f 112 132 133
f 112 133 113
f 113 133 134
f 113 134 114
f 114 134 135
f 114 135 115
f 115 135 116
f 116 135 136
f 116 136 117
f 117 136 137
f 117 137 118
f 118 137 138
f 118 138 119
f 119 138 120
f 120 138 139
f 120 139 121
f 121 139 140
f 121 140 122
f 122 140 141
f 122 141 123
f 123 141 124
f 124 141 142
f 124 142 125
f 125 142 143
f 125 143 126
f 126 143 144
f 126 144 127
f 127 144 128
f 128 144 145
f 128 145 129
f 129 145 146
f 129 146 130
f 130 146 132
f 130 132 131
f 147 138 137
f 147 137 148
f 147 148 149
f 147 149 150
f 147 150 139
f 147 139 138
f 151 149 152
f 151 152 153
f 151 153 154
f 151 154 155
f 151 155 149
f 149 155 150
f 150 155 156
f 150 156 140
f 150 140 139
f 157 152 148
f 157 148 136
f 157 136 135
f 157 135 134
f 157 134 158
f 157 158 152
f 152 158 153
f 153 158 159
f 153 159 160
f 153 160 154
f 154 160 161
f 154 161 162
f 154 162 155
f 155 162 156
f 156 162 142
f 156 142 141
f 156 141 140
f 152 149 148
f 148 137 136
f 161 144 143
f 161 143 162
f 162 143 142
f 161 145 144
f 145 161 160
f 145 160 146
f 146 160 159
f 146 159 132
f 132 159 133
f 133 159 158
f 133 158 134
f 163 164 165
f 163 165 166
f 163 166 167
f 163 167 168
f 163 168 164
f 164 168 169
f 164 169 170
f 164 170 171
f 164 171 165
f 165 171 172
f 165 172 173
f 165 173 166
f 166 173 174
f 166 174 175
f 166 175 167
f 167 175 176
f 167 176 177
f 167 177 168
f 168 177 178
f 168 178 169
f 169 178 179
f 169 179 180
f 169 180 170
f 170 180 181
f 170 181 182
f 170 182 171
f 171 182 183
f 171 183 172
f 172 183 184
f 172 184 185
f 172 185 173
f 173 185 186
f 173 186 174
f 174 186 187
f 174 187 188
f 174 188 175
f 175 188 189
f 175 189 176
f 176 189 190
f 176 190 191
f 176 191 177
f 177 191 192
f 177 192 178
f 178 192 193
f 178 193 179
f 179 193 194
f 179 194 195
f 179 195 180
f 180 195 196
f 180 196 181
f 181 196 197
f 181 197 198
f 181 198 182
f 182 198 199
f 182 199 183
f 183 199 200
f 183 200 184
f 184 200 201
f 184 201 202
f 184 202 185
f 185 202 203
f 185 203 186
f 186 203 204
f 186 204 187
f 187 204 205
f 187 205 206
f 187 206 188
f 188 206 207
f 188 207 189
f 189 207 208
f 189 208 190
f 190 208 209
f 190 209 210
f 190 210 191
f 191 210 211
f 191 211 192
f 192 211 212
f 192 212 193
f 193 212 213
f 193 213 194
f 194 213 214
f 194 214 215
f 194 215 195
f 195 215 216
f 195 216 196
f 196 216 217
f 196 217 197
f 197 217 218
f 197 218 198
f 198 218 219
f 198 219 199
f 199 219 220
f 199 220 200
f 200 220 221
f 200 221 201
f 201 221 222
f 201 222 202
f 202 222 223
f 202 223 203
f 203 223 224
f 203 224 204
f 204 224 225
f 204 225 205
f 205 225 226
f 205 226 206
f 206 226 227
f 206 227 207
f 207 227 228
f 207 228 208
f 208 228 229
f 208 229 209
f 209 229 230
f 209 230 210
f 210 230 231
f 210 231 211
f 211 231 232
f 211 232 212
f 212 232 233
f 212 233 213
f 213 233 214
f 214 233 234
f 214 234 235
f 214 235 215
f 215 235 236
f 215 236 216
f 216 236 237
f 216 237 217
f 217 237 238
f 217 238 218
f 218 238 239
f 218 239 219
f 219 239 240
f 219 240 220
f 220 240 241
f 220 241 221
f 221 241 242
f 221 242 222
f 222 242 243
f 222 243 223
f 223 243 244
f 223 244 224
f 224 244 245
f 224 245 225
f 225 245 246
f 225 246 226
f 226 246 247
f 226 247 227
f 227 247 248
f 227 248 228
f 228 248 249
f 228 249 229
f 229 249 250
f 229 250 230
f 230 250 251
f 230 251 231
f 231 251 252
f 231 252 232
f 232 252 253
f 232 253 233
f 233 253 234
f 234 253 254
f 234 254 255
f 234 255 235
f 235 255 256
f 235 256 236
f 236 256 257
f 236 257 237
f 237 257 258
f 237 258 238
f 238 258 259
f 238 259 239
f 239 259 260
f 239 260 240
f 240 260 261
f 240 261 241
f 241 261 262
f 241 262 242
f 242 262 263
f 242 263 243
f 243 263 264
f 243 264 244
f 244 264 265
f 244 265 245
f 245 265 266
f 245 266 246
f 246 266 267
f 246 267 247
f 247 267 268
f 247 268 248
f 248 268 269
f 248 269 249
f 249 269 270
f 249 270 250
f 250 270 271
f 250 271 251
f 251 271 272
f 251 272 252
f 252 272 273
f 252 273 253
f 253 273 254
f 254 273 274
f 254 274 275
f 254 275 255
f 255 275 276
f 255 276 256
f 256 276 277
f 256 277 257
f 257 277 278
f 257 278 258
f 258 278 279
f 258 279 259
f 259 279 280
f 259 280 260
f 260 280 281
f 260 281 261
f 261 281 282
f 261 282 262
f 262 282 283
f 262 283 263
f 263 283 284
f 263 284 264
f 264 284 285
f 264 285 265
f 265 285 286
f 265 286 266
f 266 286 287
f 266 287 267
f 267 287 288
f 267 288 268
f 268 288 289
f 268 289 269
f 269 289 290
f 269 290 270
f 270 290 291
f 270 291 271
f 271 291 292
f 271 292 272
f 272 292 293
f 272 293 273
f 273 293 274
f 274 293 294
f 274 294 295
f 274 295 275
f 275 295 296
f 275 296 276
f 276 296 297
f 276 297 277
f 277 297 278
f 278 297 298
f 278 298 279
f 279 298 299
f 279 299 280
f 280 299 300
f 280 300 281
f 281 300 282
f 282 300 301
f 282 301 283
f 283 301 302
f 283 302 284
f 284 302 303
f 284 303 285
f 285 303 286
f 286 303 304
f 286 304 287
f 287 304 305
f 287 305 288
f 288 305 306
f 288 306 289
f 289 306 290
f 290 306 307
f 290 307 291
f 291 307 308
f 291 308 292
f 292 308 294
f 292 294 293
f 309 300 299
f 309 299 310
f 309 310 311
f 309 311 312
f 309 312 301
f 309 301 300
f 313 311 314
f 313 314 315
f 313 315 316
f 313 316 317
f 313 317 311
f 311 317 312
f 312 317 318
f 312 318 302
f 312 302 301
f 319 314 310
f 319 310 298
f 319 298 297
f 319 297 296
f 319 296 320
f 319 320 314
f 314 320 315
f 315 320 321
f 315 321 322
f 315 322 316
f 316 322 323
f 316 323 324
f 316 324 317
f 317 324 318
f 318 324 304
f 318 304 303
f 318 303 302
f 314 311 310
f 310 299 298
f 323 306 305
f 323 305 324
f 324 305 304
f 323 307 306
f 307 323 322
f 307 322 308
f 308 322 321
f 308 321 294
f 294 321 295
f 295 321 320
f 295 320 296
