# RS2 Model 16099
# Vertices: 209
# Faces: 387

v 9 -3 35
v 7 -4 29
v 9 -3 29
v 9 7 29
v 9 7 35
v 7 8 35
v 7 -4 35
v -2 -13 32
v -1 -10 37
v -4 -14 32
v -6 -11 33
v -10 -15 29
v 7 8 29
v 15 6 35
v 15 6 29
v 15 -2 29
v 15 -2 35
v 24 -2 39
v 24 6 39
v 34 9 34
v 25 11 31
v 27 -5 29
v 27 -5 34
v 33 -1 35
v 33 5 35
v 29 13 29
v 30 14 31
v 33 16 35
v 42 16 45
v 43 12 43
v 41 11 45
v 42 -2 43
v 42 -5 44
v 44 -4 46
v 44 -1 45
v 43 9 49
v 40 9 47
v 43 -1 40
v 43 -4 40
v 44 -7 40
v 42 -9 42
v 44 -9 44
v 46 -8 41
v 44 -1 43
v 46 10 45
v 41 13 46
v 42 10 43
v 7 -22 31
v 7 -25 31
v 15 -20 33
v 15 -16 33
v 15 -16 30
v 9 -24 29
v 4 -22 29
v 3 -26 32
v 3 -28 28
v 15 -20 30
v 18 -18 29
v 18 -18 32
v 18 -13 32
v 18 -13 29
v 5 -24 27
v 0 -25 28
v 0 -27 29
v 2 -26 27
v 36 0 35
v 36 4 35
v 34 -1 30
v 34 -3 30
v 36 -2 35
v 42 -2 32
v 41 -2 36
v 35 0 38
v 35 4 38
v 41 6 36
v 42 6 32
v 42 9 32
v 36 6 35
v 34 5 30
v 27 12 30
v 27 12 35
v -18 -6 37
v -8 2 41
v -2 2 39
v -6 15 33
v -18 10 36
v -4 18 32
v -10 19 29
v -2 17 32
v -1 14 37
v 27 1 28
v 32 0 26
v 39 -3 27
v 45 -19 30
v 24 -6 27
v 19 -9 28
v 14 -7 28
v 13 -3 29
v 15 1 29
v 15 3 29
v 13 7 29
v 14 11 28
v 19 13 28
v 24 10 27
v 45 26 30
v 39 7 27
v 32 4 26
v 27 3 28
v -26 -7 29
v -42 -6 27
v -42 -2 27
v -26 0 29
v -19 -7 28
v -26 -7 36
v -46 -6 34
v -49 -6 33
v -45 -6 27
v -45 -2 27
v -49 -2 33
v -46 -2 34
v -26 0 36
v -19 1 38
v -19 1 28
v -19 -5 29
v -19 -7 38
v -51 -6 32
v -49 -6 26
v -49 -2 26
v -51 -2 32
v -55 -6 34
v -56 -6 32
v -51 -6 26
v -51 -2 26
v -56 -2 32
v -55 -2 34
v -57 -4 33
v -19 0 29
v -10 -5 27
v -18 0 35
v 0 2 36
v -2 2 27
v -18 -5 35
v 1 -6 35
v -26 4 29
v -43 7 30
v -43 9 30
v -26 11 29
v -20 6 31
v -26 4 36
v -45 7 33
v -48 7 32
v -46 7 29
v -46 9 29
v -48 9 32
v -45 9 33
v -26 11 36
v -20 9 35
v -20 9 31
v -20 6 35
v -51 6 32
v -47 6 28
v -47 10 28
v -51 10 32
v -55 6 34
v -56 6 32
v -49 6 27
v -49 10 27
v -56 10 32
v -55 10 34
v -57 8 33
v -2 9 27
v 1 10 35
v 27 -9 29
v 27 -9 34
v 33 -4 30
v 31 -7 30
v 31 -7 34
v 33 -4 35
v 36 2 26
v 42 4 25
v 42 0 25
v 38 -5 26
v 36 -5 30
v 34 7 30
v 36 9 30
v 38 9 26
v 46 4 29
v 46 0 29
v 42 -5 32
v 49 -1 41
v 49 5 41
v 47 4 39
v 47 0 39
v 47 -2 39
v 48 -4 34
v 50 0 38
v 50 4 38
v 48 8 34
v 47 6 39
v 40 4 40
v 40 0 40
v 49 -1 30
v 49 5 30
v 43 3 39
v 41 3 39
v 42 5 39
v 42 -1 39
v 41 1 39
v 43 1 39

f 1 2 3
f 1 3 4
f 1 4 5
f 1 5 6
f 1 6 7
f 1 7 2
f 2 7 8
f 8 7 9
f 8 9 10
f 10 9 11
f 10 11 12
f 13 4 3
f 13 3 2
f 13 6 5
f 13 5 4
f 4 5 14
f 4 14 15
f 4 15 3
f 3 15 16
f 3 16 1
f 1 16 17
f 1 17 5
f 5 17 14
f 14 17 18
f 14 18 19
f 14 19 20
f 14 20 15
f 15 20 21
f 15 21 16
f 16 21 22
f 16 22 17
f 17 22 23
f 17 23 18
f 18 23 24
f 18 24 19
f 19 24 25
f 19 25 20
f 20 25 26
f 20 26 27
f 20 27 28
f 20 28 29
f 20 29 30
f 20 30 31
f 20 31 21
f 20 21 28
f 32 33 34
f 32 34 35
f 32 35 36
f 32 36 37
f 32 37 38
f 32 38 39
f 32 39 33
f 33 39 40
f 33 40 41
f 33 41 42
f 33 42 34
f 34 42 43
f 34 43 44
f 34 44 35
f 35 44 45
f 35 45 36
f 36 45 29
f 36 29 46
f 36 46 37
f 37 46 31
f 37 31 47
f 37 47 38
f 38 47 44
f 38 44 39
f 39 44 43
f 39 43 40
f 40 43 41
f 41 43 42
f 48 49 50
f 48 50 51
f 48 51 52
f 48 52 53
f 48 53 54
f 48 54 55
f 48 55 56
f 48 56 49
f 49 56 53
f 49 53 57
f 49 57 50
f 50 57 58
f 50 58 59
f 50 59 51
f 51 59 60
f 51 60 52
f 52 60 61
f 52 61 57
f 52 57 53
f 53 62 54
f 54 62 63
f 54 63 55
f 55 63 64
f 55 64 56
f 56 64 65
f 56 65 62
f 56 62 53
f 62 65 63
f 63 65 64
f 66 67 25
f 66 25 24
f 66 24 68
f 66 68 69
f 66 69 70
f 66 70 71
f 66 71 72
f 66 72 73
f 66 73 67
f 67 73 74
f 67 74 75
f 67 75 76
f 67 76 77
f 67 77 78
f 67 78 79
f 67 79 25
f 25 79 80
f 25 80 26
f 26 80 81
f 26 81 27
f 27 81 28
f 28 81 29
f 29 81 46
f 46 81 31
f 31 81 21
f 21 81 80
f 21 80 20
f 20 80 26
f 82 11 83
f 83 11 9
f 83 9 84
f 83 84 85
f 83 85 86
f 85 87 88
f 87 85 89
f 89 85 90
f 89 90 6
f 89 6 13
f 84 7 6
f 84 6 90
f 84 90 85
f 84 9 7
f 91 92 93
f 91 93 94
f 91 94 95
f 91 95 96
f 91 96 97
f 91 97 98
f 91 98 99
f 91 99 92
f 92 99 93
f 93 99 94
f 94 99 95
f 95 99 96
f 96 99 97
f 97 99 98
f 100 101 102
f 100 102 103
f 100 103 104
f 100 104 105
f 100 105 106
f 100 106 107
f 100 107 108
f 100 108 101
f 101 108 102
f 102 108 103
f 103 108 104
f 104 108 105
f 105 108 106
f 106 108 107
f 109 110 111
f 109 111 112
f 109 112 113
f 109 113 114
f 109 114 115
f 109 115 110
f 110 115 116
f 110 116 117
f 110 117 118
f 110 118 111
f 111 118 119
f 111 119 120
f 111 120 121
f 111 121 112
f 112 121 122
f 112 122 123
f 112 123 113
f 113 123 124
f 113 124 125
f 113 125 114
f 114 125 122
f 114 122 121
f 114 121 115
f 115 121 120
f 115 120 116
f 116 120 119
f 116 119 126
f 116 126 127
f 116 127 117
f 117 127 118
f 118 127 128
f 118 128 119
f 119 128 129
f 119 129 126
f 126 129 130
f 126 130 131
f 126 131 132
f 126 132 127
f 127 132 128
f 128 132 133
f 128 133 129
f 129 133 134
f 129 134 135
f 129 135 130
f 130 135 136
f 130 136 131
f 131 136 134
f 131 134 133
f 131 133 132
f 137 138 124
f 137 124 123
f 137 123 139
f 137 139 140
f 137 140 141
f 137 141 138
f 139 125 142
f 139 142 140
f 140 142 143
f 143 142 138
f 138 142 124
f 124 142 125
f 144 145 146
f 144 146 147
f 144 147 148
f 144 148 149
f 144 149 150
f 144 150 145
f 145 150 151
f 145 151 152
f 145 152 153
f 145 153 146
f 146 153 154
f 146 154 155
f 146 155 156
f 146 156 147
f 147 156 157
f 147 157 158
f 147 158 148
f 148 158 141
f 148 141 159
f 148 159 149
f 149 159 157
f 149 157 156
f 149 156 150
f 150 156 155
f 150 155 151
f 151 155 154
f 151 154 160
f 151 160 161
f 151 161 152
f 152 161 153
f 153 161 162
f 153 162 154
f 154 162 163
f 154 163 160
f 160 163 164
f 160 164 165
f 160 165 166
f 160 166 161
f 161 166 162
f 162 166 167
f 162 167 163
f 163 167 168
f 163 168 169
f 163 169 164
f 164 169 170
f 164 170 165
f 165 170 168
f 165 168 167
f 165 167 166
f 141 158 171
f 171 158 172
f 172 158 157
f 172 157 159
f 172 159 140
f 140 159 141
f 61 58 57
f 58 61 173
f 58 173 59
f 59 173 174
f 59 174 23
f 59 23 60
f 60 23 61
f 61 23 22
f 61 22 173
f 173 22 175
f 173 175 176
f 173 176 177
f 173 177 174
f 174 177 23
f 23 177 178
f 23 178 175
f 23 175 22
f 47 45 44
f 45 47 30
f 45 30 29
f 47 31 30
f 22 23 174
f 176 175 178
f 176 178 177
f 22 21 80
f 22 80 175
f 175 80 79
f 175 79 68
f 175 68 178
f 178 68 24
f 178 24 23
f 179 180 181
f 179 181 182
f 179 182 183
f 179 183 69
f 179 69 68
f 179 68 79
f 179 79 184
f 179 184 185
f 179 185 186
f 179 186 180
f 180 186 77
f 180 77 187
f 180 187 181
f 181 187 188
f 181 188 189
f 181 189 182
f 182 189 183
f 183 189 70
f 183 70 69
f 190 191 192
f 190 192 193
f 190 193 194
f 190 194 195
f 190 195 196
f 190 196 191
f 191 196 197
f 191 197 198
f 191 198 199
f 191 199 192
f 192 199 76
f 192 76 75
f 192 75 200
f 192 200 193
f 193 200 201
f 193 201 72
f 193 72 71
f 193 71 189
f 193 189 194
f 194 189 195
f 195 189 202
f 195 202 196
f 196 202 197
f 197 202 203
f 197 203 198
f 198 203 77
f 198 77 199
f 199 77 76
f 188 187 203
f 188 203 202
f 188 202 189
f 71 70 189
f 185 78 77
f 185 77 186
f 77 203 187
f 78 185 184
f 78 184 79
f 201 200 74
f 201 74 73
f 201 73 72
f 200 75 74
f 204 205 206
f 207 208 209
f 168 165 169
f 169 168 170
f 134 131 135
f 135 134 136
f 125 139 122
f 122 139 123
