# RS2 Model 16109
# Vertices: 159
# Faces: 227

v -136 -36 53
v -138 -33 0
v -154 -37 0
v -147 -39 53
v -147 -36 97
v -135 -33 97
v -132 -46 53
v -131 -48 0
v -155 -53 0
v -147 -49 53
v -147 -48 97
v -142 -59 0
v -139 -53 53
v -139 -52 97
v -130 -44 97
v -78 -154 105
v -117 -119 105
v -117 -119 97
v -78 -154 97
v -76 29 105
v -120 -8 105
v -120 -8 97
v -76 29 97
v -75 149 97
v -75 149 105
v -117 115 105
v -117 115 97
v -25 -171 105
v -70 -155 105
v -70 -155 97
v -25 -171 97
v -26 -6 105
v -72 -8 105
v -72 -8 97
v -26 -6 97
v -28 165 97
v -28 165 105
v -70 151 105
v -70 151 97
v -121 -113 105
v -160 -48 105
v -160 -48 97
v -121 -113 97
v -123 -4 105
v -165 3 105
v -165 3 97
v -123 -4 97
v -120 111 97
v -120 111 105
v -160 43 105
v -160 43 97
v 24 -172 105
v -21 -172 105
v -21 -172 97
v 24 -172 97
v 27 -4 105
v -22 -5 105
v -22 -5 97
v 27 -4 97
v 25 169 97
v 25 169 105
v -20 167 105
v -20 167 97
v 75 -154 105
v 30 -170 105
v 30 -170 97
v 75 -154 97
v 77 -7 105
v 31 -5 105
v 31 -5 97
v 77 -7 97
v 75 152 97
v 75 152 105
v 33 166 105
v 33 166 97
v 123 -118 105
v 84 -153 105
v 84 -153 97
v 123 -118 97
v 126 -7 105
v 82 30 105
v 82 30 97
v 126 -7 97
v 123 116 97
v 123 116 105
v 81 150 105
v 81 150 97
v 167 -48 105
v 130 -113 105
v 130 -113 97
v 167 -48 97
v 170 5 105
v 132 -4 105
v 132 -4 97
v 170 5 97
v 166 43 97
v 166 43 105
v 129 111 105
v 129 111 97
v -80 106 53
v -78 109 0
v -88 122 0
v -87 114 53
v -84 116 97
v -76 106 97
v -87 98 53
v -88 96 0
v -103 116 0
v -96 110 53
v -95 111 97
v -103 102 0
v -96 102 53
v -95 102 97
v -84 97 97
v -2 -139 53
v -6 -139 0
v -13 -154 0
v -7 -151 53
v -9 -148 97
v -3 -137 97
v 8 -144 53
v 11 -144 0
v 0 -166 0
v 1 -156 53
v 1 -156 97
v 12 -159 0
v 9 -154 53
v 9 -153 97
v 9 -140 97
v 137 -52 53
v 135 -56 0
v 148 -66 0
v 147 -59 53
v 143 -61 97
v 134 -53 97
v 144 -43 53
v 145 -41 0
v 163 -57 0
v 154 -53 53
v 154 -53 97
v 159 -43 0
v 153 -45 53
v 152 -44 97
v 141 -42 97
v 91 104 53
v 95 101 0
v 107 112 0
v 100 112 53
v 101 108 97
v 92 101 97
v 84 112 53
v 82 114 0
v 102 127 0
v 96 120 53
v 96 120 97
v 87 127 0
v 87 121 53
v 87 120 97
v 82 110 97

f 1 2 3
f 1 3 4
f 1 4 5
f 1 5 6
f 1 6 7
f 1 7 2
f 2 7 8
f 2 8 3
f 3 8 9
f 3 9 4
f 4 9 10
f 4 10 11
f 4 11 5
f 10 9 12
f 10 12 13
f 10 13 14
f 10 14 11
f 13 12 8
f 13 8 7
f 13 7 15
f 13 15 14
f 8 12 9
f 7 6 15
f 16 17 18
f 16 18 19
f 16 19 20
f 16 20 17
f 17 20 21
f 17 21 22
f 17 22 18
f 20 19 23
f 20 23 24
f 20 24 25
f 20 25 21
f 21 25 26
f 21 26 22
f 22 26 27
f 27 26 24
f 24 26 25
f 28 29 30
f 28 30 31
f 28 31 32
f 28 32 29
f 29 32 33
f 29 33 34
f 29 34 30
f 32 31 35
f 32 35 36
f 32 36 37
f 32 37 33
f 33 37 38
f 33 38 34
f 34 38 39
f 39 38 36
f 36 38 37
f 40 41 42
f 40 42 43
f 40 43 44
f 40 44 41
f 41 44 45
f 41 45 46
f 41 46 42
f 44 43 47
f 44 47 48
f 44 48 49
f 44 49 45
f 45 49 50
f 45 50 46
f 46 50 51
f 51 50 48
f 48 50 49
f 52 53 54
f 52 54 55
f 52 55 56
f 52 56 53
f 53 56 57
f 53 57 58
f 53 58 54
f 56 55 59
f 56 59 60
f 56 60 61
f 56 61 57
f 57 61 62
f 57 62 58
f 58 62 63
f 63 62 60
f 60 62 61
f 64 65 66
f 64 66 67
f 64 67 68
f 64 68 65
f 65 68 69
f 65 69 70
f 65 70 66
f 68 67 71
f 68 71 72
f 68 72 73
f 68 73 69
f 69 73 74
f 69 74 70
f 70 74 75
f 75 74 72
f 72 74 73
f 76 77 78
f 76 78 79
f 76 79 80
f 76 80 77
f 77 80 81
f 77 81 82
f 77 82 78
f 80 79 83
f 80 83 84
f 80 84 85
f 80 85 81
f 81 85 86
f 81 86 82
f 82 86 87
f 87 86 84
f 84 86 85
f 88 89 90
f 88 90 91
f 88 91 92
f 88 92 89
f 89 92 93
f 89 93 94
f 89 94 90
f 92 91 95
f 92 95 96
f 92 96 97
f 92 97 93
f 93 97 98
f 93 98 94
f 94 98 99
f 99 98 96
f 96 98 97
f 100 101 102
f 100 102 103
f 100 103 104
f 100 104 105
f 100 105 106
f 100 106 101
f 101 106 107
f 101 107 102
f 102 107 108
f 102 108 103
f 103 108 109
f 103 109 110
f 103 110 104
f 109 108 111
f 109 111 112
f 109 112 113
f 109 113 110
f 112 111 107
f 112 107 106
f 112 106 114
f 112 114 113
f 107 111 108
f 106 105 114
f 115 116 117
f 115 117 118
f 115 118 119
f 115 119 120
f 115 120 121
f 115 121 116
f 116 121 122
f 116 122 117
f 117 122 123
f 117 123 118
f 118 123 124
f 118 124 125
f 118 125 119
f 124 123 126
f 124 126 127
f 124 127 128
f 124 128 125
f 127 126 122
f 127 122 121
f 127 121 129
f 127 129 128
f 122 126 123
f 121 120 129
f 130 131 132
f 130 132 133
f 130 133 134
f 130 134 135
f 130 135 136
f 130 136 131
f 131 136 137
f 131 137 132
f 132 137 138
f 132 138 133
f 133 138 139
f 133 139 140
f 133 140 134
f 139 138 141
f 139 141 142
f 139 142 143
f 139 143 140
f 142 141 137
f 142 137 136
f 142 136 144
f 142 144 143
f 137 141 138
f 136 135 144
f 145 146 147
f 145 147 148
f 145 148 149
f 145 149 150
f 145 150 151
f 145 151 146
f 146 151 152
f 146 152 147
f 147 152 153
f 147 153 148
f 148 153 154
f 148 154 155
f 148 155 149
f 154 153 156
f 154 156 157
f 154 157 158
f 154 158 155
f 157 156 152
f 157 152 151
f 157 151 159
f 157 159 158
f 152 156 153
f 151 150 159
