# RS2 Model 16181
# Vertices: 43
# Faces: 56

v 24 8 205
v 40 -8 240
v 64 0 240
v 64 16 205
v 40 -8 172
v 2 0 205
v 18 -16 240
v 8 -40 240
v -8 -24 205
v -16 -64 205
v 0 -64 240
v 64 0 172
v 24 8 137
v 18 -16 172
v 8 -40 172
v 0 -64 172
v -16 -64 137
v -8 -24 137
v 8 -40 104
v 0 -64 104
v -16 -64 69
v -8 -24 69
v 8 -40 36
v 0 -64 36
v -16 -64 0
v -8 -24 0
v 2 0 0
v 18 -16 36
v 24 8 0
v 40 -8 36
v 64 0 36
v 64 16 0
v 64 16 137
v 40 -8 104
v 2 0 137
v 18 -16 104
v 2 0 69
v 64 0 104
v 24 8 69
v 64 16 69
v 53 27 0
v -27 -52 0
v 66 13 241

f 1 2 3
f 1 3 4
f 1 4 5
f 1 5 6
f 1 6 7
f 1 7 2
f 8 7 6
f 8 6 9
f 8 9 10
f 8 10 11
f 4 12 5
f 5 12 13
f 5 13 14
f 5 14 6
f 6 14 9
f 9 14 15
f 9 15 10
f 10 15 16
f 16 15 17
f 17 15 18
f 17 18 19
f 17 19 20
f 20 19 21
f 21 19 22
f 21 22 23
f 21 23 24
f 24 23 25
f 25 23 26
f 26 23 27
f 27 23 28
f 27 28 29
f 29 28 30
f 29 30 31
f 29 31 32
f 13 12 33
f 13 33 34
f 13 34 35
f 13 35 14
f 14 35 15
f 15 35 18
f 18 35 36
f 18 36 19
f 19 36 37
f 19 37 22
f 22 37 28
f 22 28 23
f 33 38 34
f 34 38 39
f 34 39 36
f 34 36 35
f 39 38 40
f 39 40 30
f 39 30 37
f 39 37 36
f 40 31 30
f 37 30 28
