# RS2 Model 16198
# Vertices: 42
# Faces: 31

v 0 50 160
v -4 51 158
v -7 49 157
v -3 46 160
v -6 55 157
v -10 54 154
v -13 48 153
v -10 49 156
v -4 43 159
v -2 44 160
v 2 44 161
v 4 49 159
v 1 50 160
v 3 52 159
v 1 54 159
v 0 56 158
v -4 53 158
v 0 32 161
v 0 26 160
v 3 30 161
v 2 33 161
v -6 32 159
v -6 30 159
v 6 45 160
v 10 44 158
v 15 53 153
v 10 51 157
v 14 53 153
v 10 54 156
v 6 62 155
v 2 60 156
v -10 44 156
v -11 40 154
v -7 34 157
v -7 41 157
v 0 34 161
v 1 41 161
v 7 43 159
v 3 43 161
v -22 36 157
v 6 21 161
v -7 68 153

f 1 2 3
f 1 3 4
f 5 6 7
f 5 7 8
f 8 7 9
f 8 9 10
f 10 9 11
f 10 11 12
f 10 12 13
f 13 12 14
f 13 14 15
f 15 14 16
f 15 16 17
f 17 16 5
f 5 16 6
f 18 19 20
f 18 20 21
f 19 18 22
f 19 22 23
f 24 25 26
f 24 26 27
f 27 26 28
f 27 28 29
f 29 28 30
f 29 30 31
f 32 33 34
f 32 34 35
f 35 34 36
f 35 36 37
f 37 36 38
f 37 38 39
