# RS2 Model 16204
# Vertices: 210
# Faces: 422

v 7 7 269
v 4 4 279
v 1 -7 278
v 7 -4 267
v 15 -2 262
v 20 7 259
v 0 14 262
v -7 7 269
v -4 4 279
v 0 10 286
v 5 7 286
v 10 -4 286
v 5 -11 279
v 0 -17 276
v -1 -7 278
v -7 -4 267
v 0 -14 255
v 14 -15 253
v 20 -10 255
v 20 -2 260
v 28 5 262
v 21 10 244
v 0 12 243
v -20 10 244
v -18 10 259
v -14 -2 262
v -5 7 286
v -8 10 301
v 0 14 300
v 8 10 301
v 11 1 292
v 11 -4 293
v 8 -15 289
v 1 -18 286
v -1 -18 286
v -5 -11 279
v -10 -4 286
v -11 1 292
v -11 0 298
v -11 -1 303
v -5 1 312
v 0 7 308
v 5 1 312
v 11 -1 303
v 11 0 298
v 11 -10 296
v 8 -15 295
v 4 -18 292
v 0 -21 290
v -4 -18 292
v -8 -15 289
v -11 -4 293
v -11 -10 296
v -7 -17 303
v 0 -12 309
v 7 -17 303
v 8 -17 298
v 2 -18 293
v -2 -18 293
v -8 -15 295
v -8 -17 298
v 0 -18 299
v -69 7 248
v -92 5 250
v -69 7 260
v -56 5 250
v -56 -1 250
v -69 -2 248
v -92 0 250
v -112 0 253
v -112 4 253
v -92 5 257
v -92 0 257
v -69 -2 260
v -57 -1 257
v -57 5 257
v -30 7 248
v -30 -5 248
v -40 -5 254
v -57 -5 254
v -69 -7 254
v -92 -4 254
v -110 0 256
v -113 -5 255
v -117 -4 254
v -119 -2 253
v -119 5 253
v -119 5 259
v -110 4 256
v -40 -1 257
v -40 7 257
v -20 -4 244
v -28 -5 254
v -27 -2 262
v -27 5 262
v -18 -2 260
v -18 -7 256
v -12 -15 253
v -5 -21 248
v 0 -17 245
v 5 -21 248
v 21 -24 243
v 21 -4 244
v 30 -5 254
v 28 -2 262
v 41 7 257
v 31 7 248
v 31 -5 248
v 15 5 228
v 0 8 227
v -14 5 228
v -18 -2 228
v -14 -11 231
v -15 -21 235
v -18 -24 243
v -119 -2 259
v -129 -2 256
v -129 -2 254
v -117 -4 257
v -129 4 256
v -136 1 254
v -138 -2 254
v -129 4 254
v 0 -17 240
v 0 -15 179
v 14 -14 207
v -12 -14 207
v -21 -8 198
v 0 -8 129
v 23 -8 198
v 18 0 205
v 7 -11 214
v -5 -11 214
v -14 -1 215
v -17 0 205
v -28 5 191
v -10 -8 129
v -14 -11 105
v 0 -11 105
v 15 -11 105
v 11 -8 129
v 17 -2 130
v 30 5 191
v 20 18 195
v 14 12 207
v 15 -1 215
v 15 -11 231
v 0 -18 232
v -10 7 214
v -12 12 207
v -18 18 195
v -17 12 179
v -15 -2 130
v -20 0 103
v 0 0 67
v 21 0 103
v 15 11 102
v 11 1 130
v 18 12 179
v 0 11 186
v 0 10 202
v 0 7 212
v 11 7 214
v 20 -2 228
v 17 -21 235
v 0 -5 130
v -10 1 130
v -14 11 102
v 0 7 80
v 0 4 102
v -123 -11 256
v -119 -10 255
v -123 -11 255
v 70 7 260
v 92 5 250
v 70 7 248
v 57 5 250
v 58 5 257
v 58 -1 257
v 70 -2 260
v 92 0 257
v 92 5 257
v 112 4 253
v 92 0 250
v 70 -2 248
v 57 -1 250
v 41 -1 257
v 58 -5 254
v 70 -7 254
v 92 -4 254
v 110 0 256
v 110 4 256
v 119 5 259
v 119 5 253
v 119 -2 253
v 112 0 253
v 41 -5 254
v 129 -2 254
v 129 -2 256
v 119 -2 259
v 129 4 254
v 136 1 254
v 138 -2 254
v 129 4 256
v 113 -5 255
v 117 -4 257
v 117 -4 254
v 123 -11 256
v 123 -11 255
v 119 -10 255

f 1 2 3
f 1 3 4
f 1 4 5
f 1 5 6
f 1 6 7
f 1 7 8
f 1 8 2
f 2 8 9
f 2 9 10
f 2 10 11
f 2 11 3
f 3 11 12
f 3 12 13
f 3 13 14
f 3 14 15
f 3 15 16
f 3 16 4
f 4 16 17
f 4 17 18
f 4 18 5
f 5 18 19
f 5 19 20
f 5 20 6
f 6 20 21
f 6 21 22
f 6 22 7
f 7 22 23
f 7 23 24
f 7 24 25
f 7 25 8
f 8 25 26
f 8 26 16
f 8 16 15
f 8 15 9
f 9 15 27
f 9 27 10
f 10 27 28
f 10 28 29
f 10 29 30
f 10 30 11
f 11 30 31
f 11 31 12
f 12 31 32
f 12 32 13
f 13 32 33
f 13 33 34
f 13 34 14
f 14 34 35
f 14 35 36
f 14 36 15
f 15 36 37
f 15 37 27
f 27 37 38
f 27 38 28
f 28 38 39
f 28 39 40
f 28 40 41
f 28 41 42
f 28 42 29
f 29 42 30
f 30 42 43
f 30 43 44
f 30 44 45
f 30 45 31
f 31 45 32
f 32 45 44
f 32 44 46
f 32 46 33
f 33 46 47
f 33 47 48
f 33 48 34
f 34 48 49
f 34 49 35
f 35 49 50
f 35 50 51
f 35 51 36
f 36 51 52
f 36 52 37
f 37 52 38
f 38 52 39
f 39 52 40
f 40 52 53
f 40 53 54
f 40 54 41
f 41 54 55
f 41 55 43
f 41 43 42
f 46 56 57
f 46 57 47
f 47 57 58
f 47 58 48
f 48 58 49
f 49 58 59
f 49 59 50
f 50 59 60
f 50 60 51
f 51 60 53
f 51 53 52
f 61 54 53
f 61 53 60
f 61 60 59
f 61 59 54
f 54 59 62
f 54 62 55
f 55 62 56
f 55 56 43
f 43 56 44
f 44 56 46
f 58 57 56
f 58 56 62
f 58 62 59
f 63 64 65
f 63 65 66
f 63 66 67
f 63 67 68
f 63 68 69
f 63 69 64
f 64 69 70
f 64 70 71
f 64 71 72
f 64 72 65
f 65 72 73
f 65 73 74
f 65 74 75
f 65 75 76
f 65 76 66
f 66 76 77
f 66 77 78
f 66 78 67
f 67 78 79
f 67 79 80
f 67 80 68
f 68 80 81
f 68 81 82
f 68 82 69
f 69 82 70
f 70 82 83
f 70 83 84
f 70 84 85
f 70 85 86
f 70 86 71
f 71 86 87
f 71 87 88
f 71 88 89
f 71 89 72
f 72 89 73
f 73 89 83
f 73 83 82
f 73 82 74
f 74 82 81
f 74 81 80
f 74 80 75
f 75 80 90
f 75 90 91
f 75 91 76
f 76 91 77
f 77 91 24
f 77 24 78
f 78 24 92
f 78 92 93
f 78 93 79
f 79 93 94
f 79 94 90
f 79 90 80
f 24 91 95
f 24 95 25
f 25 95 96
f 25 96 26
f 26 96 97
f 26 97 98
f 26 98 16
f 16 98 17
f 17 98 99
f 17 99 100
f 17 100 101
f 17 101 18
f 18 101 102
f 18 102 103
f 18 103 19
f 19 103 104
f 19 104 105
f 19 105 20
f 20 105 21
f 21 105 106
f 21 106 22
f 22 106 107
f 22 107 108
f 22 108 103
f 22 103 109
f 22 109 110
f 22 110 23
f 23 110 24
f 24 110 111
f 24 111 92
f 92 111 112
f 92 112 113
f 92 113 114
f 92 114 115
f 92 115 98
f 92 98 97
f 92 97 93
f 93 97 94
f 94 97 96
f 94 96 95
f 94 95 91
f 94 91 90
f 116 117 118
f 116 118 86
f 116 86 85
f 116 85 119
f 116 119 83
f 116 83 88
f 116 88 120
f 116 120 117
f 117 120 121
f 117 121 122
f 117 122 118
f 118 122 123
f 118 123 87
f 118 87 86
f 120 88 87
f 120 87 123
f 120 123 121
f 121 123 122
f 89 88 83
f 114 113 124
f 114 124 115
f 115 124 99
f 115 99 98
f 125 126 127
f 125 127 128
f 125 128 129
f 125 129 130
f 125 130 126
f 126 130 131
f 126 131 132
f 126 132 133
f 126 133 127
f 127 133 134
f 127 134 135
f 127 135 128
f 128 135 136
f 128 136 137
f 128 137 129
f 129 137 138
f 129 138 139
f 129 139 140
f 129 140 141
f 129 141 130
f 130 141 142
f 130 142 143
f 130 143 131
f 131 143 144
f 131 144 145
f 131 145 146
f 131 146 132
f 132 146 147
f 132 147 148
f 132 148 133
f 133 148 113
f 133 113 112
f 133 112 134
f 134 112 111
f 134 111 149
f 134 149 135
f 135 149 150
f 135 150 151
f 135 151 136
f 136 151 152
f 136 152 153
f 136 153 137
f 137 153 138
f 138 153 154
f 138 154 155
f 138 155 139
f 139 155 140
f 140 155 156
f 140 156 141
f 141 156 142
f 142 156 157
f 142 157 158
f 142 158 143
f 143 158 159
f 143 159 144
f 144 159 160
f 144 160 161
f 144 161 145
f 145 161 162
f 145 162 163
f 145 163 146
f 146 163 164
f 146 164 147
f 147 164 103
f 147 103 165
f 147 165 124
f 147 124 148
f 148 124 113
f 160 152 151
f 160 151 161
f 161 151 150
f 161 150 162
f 162 150 149
f 162 149 110
f 162 110 163
f 163 110 109
f 163 109 164
f 164 109 103
f 160 166 152
f 152 166 167
f 152 167 153
f 153 167 154
f 154 167 168
f 154 168 169
f 154 169 155
f 155 169 156
f 156 169 157
f 157 169 170
f 157 170 158
f 158 170 166
f 158 166 159
f 159 166 160
f 170 168 167
f 170 167 166
f 170 169 168
f 110 149 111
f 99 124 100
f 100 124 101
f 101 124 102
f 102 124 165
f 102 165 103
f 83 119 84
f 84 119 171
f 84 171 172
f 84 172 85
f 85 172 173
f 85 173 119
f 119 173 171
f 171 173 172
f 174 175 176
f 174 176 177
f 174 177 178
f 174 178 179
f 174 179 180
f 174 180 181
f 174 181 182
f 174 182 175
f 175 182 183
f 175 183 184
f 175 184 176
f 176 184 185
f 176 185 186
f 176 186 177
f 177 186 108
f 177 108 107
f 177 107 178
f 178 107 106
f 178 106 179
f 179 106 187
f 179 187 188
f 179 188 180
f 180 188 189
f 180 189 190
f 180 190 181
f 181 190 191
f 181 191 182
f 182 191 192
f 182 192 183
f 183 192 193
f 183 193 194
f 183 194 195
f 183 195 196
f 183 196 184
f 184 196 190
f 184 190 185
f 185 190 189
f 185 189 188
f 185 188 186
f 186 188 197
f 186 197 108
f 108 197 104
f 108 104 103
f 187 106 105
f 187 105 104
f 187 104 197
f 187 197 188
f 198 199 200
f 198 200 195
f 198 195 194
f 198 194 201
f 198 201 202
f 198 202 203
f 198 203 199
f 199 203 204
f 199 204 200
f 200 204 193
f 200 193 191
f 200 191 205
f 200 205 206
f 200 206 195
f 195 206 207
f 195 207 196
f 196 207 205
f 196 205 191
f 196 191 190
f 194 193 204
f 194 204 201
f 201 204 202
f 202 204 203
f 191 193 192
f 207 206 208
f 207 208 209
f 207 209 205
f 205 209 210
f 205 210 206
f 206 210 208
f 208 210 209
f 176 180 189
f 176 185 189
f 174 176 180
f 63 68 81
f 63 81 74
f 63 74 65
