# RS2 Model 16211
# Vertices: 41
# Faces: 72

v 23 39 61
v 6 42 61
v -1 29 57
v 16 20 52
v 28 20 51
v 38 27 51
v 33 53 65
v 11 60 68
v -3 70 72
v -3 46 62
v -7 42 61
v -17 18 50
v -24 38 60
v -39 25 52
v -29 18 50
v -24 40 55
v -17 20 47
v -1 32 52
v -7 45 57
v -1 46 59
v 6 45 56
v 16 20 48
v 23 41 55
v 40 67 69
v 28 74 70
v 18 81 76
v -3 84 74
v -24 79 73
v -17 60 69
v -39 51 65
v -61 30 54
v -39 53 60
v -17 63 64
v -3 70 68
v 11 63 64
v 33 56 61
v 60 31 52
v 48 55 64
v -34 73 69
v -46 66 69
v -54 51 62

f 1 2 3
f 1 3 4
f 1 4 5
f 1 5 6
f 1 6 7
f 1 7 2
f 2 7 8
f 2 8 9
f 2 9 10
f 2 10 3
f 3 10 11
f 3 11 12
f 12 11 13
f 12 13 14
f 12 14 15
f 15 14 16
f 15 16 17
f 17 16 18
f 18 16 19
f 18 19 20
f 18 20 21
f 18 21 22
f 22 21 23
f 22 23 6
f 22 6 5
f 8 7 24
f 8 24 25
f 8 25 26
f 8 26 27
f 8 27 9
f 9 27 28
f 9 28 29
f 9 29 10
f 10 29 11
f 11 29 13
f 13 29 30
f 13 30 31
f 13 31 14
f 14 31 32
f 14 32 16
f 16 32 19
f 19 32 33
f 19 33 34
f 19 34 20
f 20 34 35
f 20 35 21
f 21 35 23
f 23 35 36
f 23 36 37
f 23 37 6
f 6 37 7
f 7 37 24
f 24 37 38
f 24 38 36
f 24 36 25
f 25 36 35
f 25 35 26
f 26 35 34
f 26 34 27
f 27 34 33
f 27 33 28
f 28 33 39
f 28 39 29
f 29 39 30
f 30 39 40
f 30 40 31
f 31 40 41
f 31 41 32
f 32 41 40
f 32 40 33
f 33 40 39
f 38 37 36
