# RS2 Model 1622
# Vertices: 219
# Faces: 238

v -30 15 12
v -27 18 13
v -27 24 13
v -33 33 11
v -39 24 9
v -39 18 9
v -36 15 10
v -43 -3 8
v -40 -9 8
v -32 -15 10
v -29 -6 11
v -32 3 10
v -34 6 9
v -43 3 8
v 5 15 24
v 8 16 25
v 11 21 25
v 12 30 22
v 4 26 19
v 0 22 19
v 0 19 20
v -11 8 16
v -13 3 17
v -10 -5 21
v -5 1 23
v -1 8 21
v -1 11 19
v -9 13 16
v 16 3 52
v 20 4 54
v 23 8 55
v 24 17 52
v 17 13 47
v 14 9 46
v 13 6 47
v 3 -3 40
v 0 -9 41
v 2 -16 45
v 9 -11 49
v 12 -4 47
v 12 0 46
v 6 0 41
v -36 9 232
v -36 4 232
v -40 -1 231
v -39 0 231
v -31 7 238
v -28 15 219
v -34 13 218
v -32 7 218
v -31 3 238
v -42 -3 235
v -45 -9 218
v -42 3 237
v -28 9 219
v -37 9 196
v -37 13 194
v -46 13 196
v -46 7 196
v 20 0 40
v 8 0 44
v 0 6 27
v 2 10 14
v 22 9 40
v 20 -4 65
v 20 -12 64
v 5 -10 65
v 11 9 44
v 3 18 27
v -9 22 18
v -13 10 18
v -13 10 6
v -26 7 16
v -26 7 3
v -52 2 12
v -52 2 1
v -84 16 16
v -84 16 4
v -103 43 16
v -104 42 4
v -128 56 16
v -128 56 0
v 6 21 15
v -10 21 6
v -26 19 3
v -26 19 15
v -45 19 12
v -74 27 16
v -94 57 16
v -128 72 16
v -36 -24 144
v -45 -24 141
v -31 -32 113
v -22 -32 116
v -34 -16 144
v -36 -3 166
v -34 -9 166
v -46 -10 165
v -46 -16 141
v -31 -23 112
v -1 -10 83
v -1 -18 80
v 9 -19 83
v -20 -24 115
v -46 -3 166
v 8 -12 85
v 6 -3 65
v -45 19 1
v -74 28 4
v -94 56 4
v -128 72 0
v -32 -3 57
v -16 10 55
v -16 -13 0
v -22 -15 0
v -16 -18 60
v 0 -3 57
v -16 -22 0
v -10 -15 0
v -17 10 55
v 0 -1 118
v -16 13 118
v -32 -1 118
v -16 -17 115
v -16 -14 60
v -10 -7 60
v -16 -3 60
v -22 -7 60
v 2 -3 175
v -15 13 181
v -29 -3 175
v -15 -18 168
v -15 -10 118
v -9 -3 118
v -15 2 118
v -19 -3 118
v 2 -14 233
v -15 1 241
v -29 -14 233
v -15 -27 220
v -15 -13 173
v -9 -6 175
v -15 -3 178
v -19 -6 175
v -102 -87 275
v -80 -112 275
v -47 -87 275
v -80 -50 275
v -15 -38 254
v -36 -13 254
v -15 -13 233
v -113 -124 254
v -32 108 275
v -61 97 275
v -58 52 275
v -14 67 275
v -35 -3 254
v -5 7 254
v -56 128 254
v 88 -55 275
v 94 -20 275
v 58 -4 275
v 48 -55 275
v 3 -1 254
v -4 -34 254
v 121 -43 254
v 12 9 312
v 3 20 312
v -10 9 299
v 4 -6 299
v -17 -7 259
v -10 -15 259
v 19 29 301
v -49 1 312
v -51 -12 312
v -38 -19 299
v -32 1 299
v -20 -20 259
v -16 -6 259
v -66 0 301
v -10 -55 312
v 3 -50 312
v 0 -31 299
v -17 -39 299
v -8 -14 259
v -21 -19 259
v 3 -69 301
v -104 60 11
v -99 62 11
v -96 70 11
v -98 83 11
v -110 76 11
v -114 69 11
v -112 64 11
v -104 36 11
v -109 25 11
v -111 13 11
v -98 12 11
v -87 15 11
v -84 22 11
v -95 36 11
v 21 3 255
v 9 -44 254
v 87 -11 267
v -2 -21 272
v -19 -27 271
v 3 -44 295
v -21 93 258
v -66 83 260
v -6 25 258
v -16 -52 254
v -52 -21 255
v -67 -107 266
v 12 4 302
v -2 18 301
v 0 -11 263
v -40 2 292
v -44 -17 291
v -26 0 276

f 1 2 3
f 1 3 4
f 1 4 5
f 1 5 6
f 1 6 7
f 8 9 10
f 8 10 11
f 8 11 12
f 8 12 13
f 8 13 14
f 15 16 17
f 15 17 18
f 15 18 19
f 15 19 20
f 15 20 21
f 22 23 24
f 22 24 25
f 22 25 26
f 22 26 27
f 22 27 28
f 29 30 31
f 29 31 32
f 29 32 33
f 29 33 34
f 29 34 35
f 36 37 38
f 36 38 39
f 36 39 40
f 36 40 41
f 36 41 42
f 43 44 45
f 43 45 46
f 43 46 47
f 43 47 48
f 43 48 49
f 43 49 44
f 44 49 50
f 44 50 51
f 44 51 52
f 44 52 45
f 45 52 53
f 45 53 46
f 46 53 54
f 46 54 47
f 47 54 51
f 47 51 55
f 47 55 48
f 48 55 56
f 48 56 57
f 48 57 49
f 49 57 58
f 49 58 50
f 50 58 59
f 50 59 55
f 50 55 51
f 51 54 52
f 52 54 53
f 60 61 62
f 60 62 63
f 60 63 64
f 60 64 65
f 60 65 66
f 60 66 61
f 61 66 67
f 61 67 68
f 61 68 69
f 61 69 62
f 62 69 70
f 62 70 71
f 62 71 63
f 63 71 72
f 72 71 73
f 72 73 74
f 74 73 75
f 74 75 76
f 76 75 77
f 76 77 78
f 78 77 79
f 78 79 80
f 80 79 81
f 80 81 82
f 68 64 83
f 68 83 69
f 69 83 84
f 69 84 70
f 70 84 85
f 70 85 86
f 70 86 71
f 71 86 73
f 73 86 87
f 73 87 75
f 75 87 88
f 75 88 77
f 77 88 89
f 77 89 79
f 79 89 90
f 79 90 81
f 64 63 83
f 91 92 93
f 91 93 94
f 91 94 95
f 91 95 96
f 91 96 97
f 91 97 92
f 92 97 98
f 92 98 99
f 92 99 100
f 92 100 93
f 93 100 101
f 93 101 102
f 93 102 94
f 94 102 103
f 94 103 104
f 94 104 95
f 95 104 99
f 95 99 105
f 95 105 96
f 96 105 58
f 96 58 57
f 96 57 97
f 97 57 56
f 97 56 98
f 98 56 59
f 98 59 105
f 98 105 99
f 99 104 100
f 100 104 106
f 100 106 101
f 101 106 65
f 101 65 107
f 101 107 102
f 102 107 67
f 102 67 103
f 103 67 66
f 103 66 106
f 103 106 104
f 59 58 105
f 86 85 108
f 86 108 87
f 87 108 109
f 87 109 88
f 88 109 110
f 88 110 89
f 89 110 111
f 89 111 90
f 106 66 65
f 107 65 64
f 107 64 68
f 107 68 67
f 55 59 56
f 112 113 114
f 112 114 115
f 112 115 116
f 112 116 117
f 112 117 113
f 116 115 118
f 116 118 117
f 117 118 119
f 117 119 120
f 120 119 114
f 121 122 123
f 121 123 124
f 121 124 125
f 121 125 126
f 121 126 122
f 122 126 127
f 122 127 123
f 123 127 128
f 123 128 124
f 124 128 125
f 129 130 131
f 129 131 132
f 129 132 133
f 129 133 134
f 129 134 130
f 130 134 135
f 130 135 131
f 131 135 136
f 131 136 132
f 132 136 133
f 137 138 139
f 137 139 140
f 137 140 141
f 137 141 142
f 137 142 138
f 138 142 143
f 138 143 139
f 139 143 144
f 139 144 140
f 140 144 141
f 145 146 147
f 145 147 148
f 148 147 149
f 148 149 150
f 150 149 151
f 152 146 145
f 153 154 155
f 153 155 156
f 156 155 157
f 156 157 158
f 158 157 151
f 159 154 153
f 160 161 162
f 160 162 163
f 163 162 164
f 163 164 165
f 165 164 151
f 166 161 160
f 167 168 169
f 167 169 170
f 170 169 171
f 170 171 172
f 172 171 151
f 173 168 167
f 174 175 176
f 174 176 177
f 177 176 178
f 177 178 179
f 179 178 151
f 180 175 174
f 181 182 183
f 181 183 184
f 184 183 185
f 184 185 186
f 186 185 151
f 187 182 181
f 188 189 190
f 188 190 191
f 188 191 192
f 188 192 193
f 188 193 194
f 195 196 197
f 195 197 198
f 195 198 199
f 195 199 200
f 195 200 201
f 202 203 204
f 205 206 207
