# RS2 Model 16223
# Vertices: 253
# Faces: 438

v -14 -25 142
v -13 -25 142
v -13 -21 142
v -14 -21 142
v -14 -25 141
v -13 -25 141
v -13 -21 141
v -13 -1 141
v -13 -1 142
v -14 -1 142
v -14 -21 141
v -14 -1 141
v 5 -3 156
v 6 3 154
v 5 3 156
v -5 3 156
v -5 -3 156
v -6 -3 154
v 6 -3 154
v 15 0 145
v 12 10 146
v 0 15 145
v -6 3 154
v -4 3 162
v 4 3 162
v 4 -3 162
v -4 -3 162
v -15 0 145
v -12 -10 146
v 0 -15 145
v 12 -10 146
v 16 0 143
v 13 11 142
v 0 17 141
v -13 11 142
v -12 10 146
v -16 0 143
v -13 -11 142
v 0 -17 141
v 13 -11 142
v 17 -5 138
v -14 2 146
v -15 3 143
v -12 3 143
v -12 2 146
v -12 0 146
v -12 -2 142
v -15 -1 139
v -14 0 146
v -15 2 139
v -13 2 139
v -13 -1 139
v 2 -3 183
v -2 -3 183
v -3 -3 180
v 3 -3 180
v 3 2 181
v 5 2 181
v 4 -3 183
v 4 0 189
v 4 -4 188
v 2 -6 182
v -2 -6 182
v -4 -4 188
v -4 0 189
v -7 0 189
v -4 -3 183
v -3 2 181
v -6 2 180
v -6 -3 180
v -7 -2 174
v -4 -7 171
v 4 -7 171
v 7 -2 174
v 6 -3 180
v 6 2 180
v 0 6 183
v 7 2 183
v 7 0 189
v 2 -7 194
v 2 -8 187
v -2 -8 187
v -2 -7 194
v -4 -7 194
v -6 -2 195
v -3 2 196
v -2 3 193
v -2 8 189
v -7 6 185
v -7 2 183
v -5 2 181
v 2 8 189
v 7 6 185
v 2 3 193
v 3 2 196
v 6 -2 195
v 4 -7 194
v 3 -9 196
v 8 -15 136
v 17 7 138
v 8 15 136
v -17 -5 138
v -17 7 138
v -8 15 136
v -8 -15 136
v 1 3 174
v 2 5 179
v 5 11 186
v 16 29 192
v 8 17 172
v 11 19 167
v 9 16 162
v 5 10 160
v 1 3 162
v -1 3 162
v -5 10 160
v -9 16 162
v -11 19 167
v -8 17 172
v -16 29 192
v -5 11 186
v -2 5 179
v -1 3 174
v 9 3 121
v 7 2 104
v 5 2 104
v 2 3 121
v 7 1 127
v 9 -4 121
v 7 -1 102
v 7 0 99
v 7 3 101
v 5 3 101
v 5 0 99
v 5 -1 102
v 2 -4 121
v 4 -3 127
v 4 1 127
v 7 5 145
v 7 -3 127
v 8 0 96
v 8 4 100
v 4 4 100
v 4 0 96
v 8 -2 92
v 8 0 91
v 8 5 98
v 4 5 98
v 4 0 91
v 4 -2 92
v 6 -1 90
v 0 5 145
v 0 -4 147
v -4 -3 127
v -4 1 127
v -7 1 127
v -7 5 145
v -8 -3 148
v -7 -3 127
v 8 -3 148
v -2 3 121
v -5 2 104
v -7 2 104
v -9 3 121
v -2 -4 121
v -5 -1 102
v -5 0 99
v -5 3 101
v -7 3 101
v -7 0 99
v -7 -1 102
v -9 -4 121
v -4 0 96
v -4 4 100
v -8 4 100
v -8 0 96
v -4 -2 92
v -4 0 91
v -4 5 98
v -8 5 98
v -8 0 91
v -8 -2 92
v -6 -1 90
v 10 -3 161
v 13 -4 161
v 14 -3 157
v 10 -3 157
v -1 -5 157
v -1 -5 159
v 10 -8 161
v 7 3 174
v 11 3 174
v 13 -7 161
v 14 -8 157
v 10 -8 157
v -1 -7 159
v -1 -7 157
v -8 -8 156
v -4 -4 156
v -4 -4 159
v -10 -1 157
v -14 -1 157
v -10 4 157
v -10 3 161
v -10 0 161
v -13 0 161
v -14 4 157
v -13 3 161
v -11 3 174
v -7 3 174
v -11 -2 174
v -9 2 178
v -9 -2 178
v 11 -2 174
v 9 -2 178
v 9 2 178
v -3 -9 196
v -2 -6 197
v 2 -6 197
v -1 -7 190
v -1 -7 188
v -3 -7 189
v 3 -7 189
v 1 -7 188
v 1 -7 190
v -13 -6 0
v -7 -12 0
v 0 -16 0
v 7 -12 0
v 13 -6 0
v 16 0 0
v -16 0 0
v -13 6 0
v 13 6 0
v 7 12 0
v 0 16 0
v -7 12 0
v -7 -4 0
v -4 -7 0
v 0 -10 0
v 4 -7 0
v 7 -4 0
v 10 0 0
v -10 0 0
v -7 4 0
v 7 4 0
v 4 7 0
v 0 10 0
v -4 7 0
v -5 -9 159
v -8 -8 158
v -8 -5 156
v -8 -5 158

f 1 2 3
f 1 3 4
f 1 4 5
f 1 5 2
f 2 5 6
f 2 6 7
f 2 7 3
f 3 7 8
f 3 8 9
f 3 9 4
f 4 9 10
f 4 10 11
f 4 11 5
f 5 11 6
f 6 11 7
f 7 11 12
f 7 12 8
f 11 10 12
f 13 14 15
f 13 15 16
f 13 16 17
f 13 17 18
f 13 18 19
f 13 19 14
f 14 19 20
f 14 20 21
f 14 21 22
f 14 22 23
f 14 23 15
f 15 23 16
f 15 16 24
f 15 24 25
f 15 25 13
f 13 25 26
f 13 26 17
f 17 26 27
f 17 27 16
f 17 16 23
f 17 23 18
f 18 23 28
f 18 28 29
f 18 29 30
f 18 30 19
f 19 30 31
f 19 31 20
f 20 31 32
f 20 32 33
f 20 33 21
f 21 33 34
f 21 34 22
f 22 34 35
f 22 35 36
f 22 36 23
f 23 36 28
f 28 36 37
f 28 37 38
f 28 38 29
f 29 38 30
f 30 38 39
f 30 39 31
f 31 39 40
f 31 40 32
f 32 40 41
f 42 43 44
f 42 44 45
f 45 44 46
f 46 44 47
f 46 47 48
f 46 48 49
f 49 48 42
f 42 48 43
f 43 48 50
f 43 50 51
f 43 51 44
f 44 51 47
f 47 51 52
f 47 52 48
f 48 52 50
f 50 52 51
f 53 54 55
f 53 55 56
f 53 56 57
f 53 57 58
f 53 58 59
f 53 59 60
f 53 60 61
f 53 61 62
f 53 62 54
f 54 62 63
f 54 63 64
f 54 64 65
f 54 65 66
f 54 66 67
f 54 67 68
f 54 68 55
f 55 68 69
f 55 69 70
f 55 70 71
f 55 71 72
f 55 72 56
f 56 72 73
f 56 73 74
f 56 74 75
f 56 75 57
f 57 75 76
f 57 76 68
f 57 68 77
f 57 77 58
f 58 77 78
f 58 78 59
f 59 78 79
f 59 79 60
f 60 79 80
f 60 80 61
f 61 80 81
f 61 81 62
f 62 81 63
f 63 81 82
f 63 82 64
f 64 82 83
f 64 83 65
f 65 83 84
f 65 84 66
f 66 84 85
f 66 85 86
f 66 86 87
f 66 87 88
f 66 88 89
f 66 89 90
f 66 90 67
f 67 90 91
f 67 91 68
f 68 91 77
f 77 91 90
f 77 90 89
f 77 89 88
f 77 88 92
f 77 92 93
f 77 93 78
f 78 93 79
f 79 93 92
f 79 92 94
f 79 94 95
f 79 95 96
f 79 96 97
f 79 97 80
f 80 97 98
f 80 98 83
f 80 83 82
f 80 82 81
f 99 40 39
f 100 33 32
f 101 34 33
f 38 37 102
f 37 35 103
f 35 37 36
f 35 34 104
f 39 38 105
f 106 107 108
f 106 108 109
f 106 109 110
f 106 110 111
f 106 111 112
f 106 112 113
f 106 113 114
f 106 114 107
f 107 114 108
f 108 114 109
f 109 114 110
f 110 114 111
f 111 114 112
f 112 114 113
f 115 116 117
f 115 117 118
f 115 118 119
f 115 119 120
f 115 120 121
f 115 121 122
f 115 122 123
f 115 123 116
f 116 123 117
f 117 123 118
f 118 123 119
f 119 123 120
f 120 123 121
f 121 123 122
f 124 125 126
f 124 126 127
f 124 127 128
f 124 128 129
f 124 129 130
f 124 130 125
f 125 130 131
f 125 131 132
f 125 132 133
f 125 133 126
f 126 133 134
f 126 134 135
f 126 135 136
f 126 136 127
f 127 136 137
f 127 137 138
f 127 138 128
f 128 138 139
f 128 139 140
f 128 140 129
f 129 140 137
f 129 137 136
f 129 136 130
f 130 136 135
f 130 135 131
f 131 135 134
f 131 134 141
f 131 141 142
f 131 142 132
f 132 142 133
f 133 142 143
f 133 143 134
f 134 143 144
f 134 144 141
f 141 144 145
f 141 145 146
f 141 146 147
f 141 147 142
f 142 147 143
f 143 147 148
f 143 148 144
f 144 148 149
f 144 149 150
f 144 150 145
f 145 150 151
f 145 151 146
f 146 151 149
f 146 149 148
f 146 148 147
f 139 138 152
f 152 138 153
f 152 153 154
f 152 154 155
f 152 155 156
f 152 156 157
f 157 156 158
f 158 156 159
f 158 159 154
f 158 154 153
f 140 160 153
f 140 153 137
f 137 153 138
f 140 139 160
f 161 162 163
f 161 163 164
f 161 164 155
f 161 155 165
f 161 165 166
f 161 166 162
f 162 166 167
f 162 167 168
f 162 168 169
f 162 169 163
f 163 169 170
f 163 170 171
f 163 171 172
f 163 172 164
f 164 172 159
f 164 159 156
f 164 156 155
f 166 165 172
f 166 172 171
f 166 171 167
f 167 171 170
f 167 170 173
f 167 173 174
f 167 174 168
f 168 174 169
f 169 174 175
f 169 175 170
f 170 175 176
f 170 176 173
f 173 176 177
f 173 177 178
f 173 178 179
f 173 179 174
f 174 179 175
f 175 179 180
f 175 180 176
f 176 180 181
f 176 181 182
f 176 182 177
f 177 182 183
f 177 183 178
f 178 183 181
f 178 181 180
f 178 180 179
f 165 154 159
f 165 159 172
f 165 155 154
f 184 185 186
f 184 186 187
f 184 187 188
f 184 188 189
f 184 189 190
f 184 190 74
f 184 74 191
f 184 191 192
f 184 192 185
f 185 192 193
f 185 193 194
f 185 194 186
f 195 194 193
f 195 193 190
f 195 190 196
f 195 196 197
f 195 197 187
f 187 197 188
f 188 197 198
f 188 198 199
f 188 199 200
f 188 200 189
f 189 200 196
f 189 196 190
f 201 202 49
f 201 49 46
f 201 46 203
f 201 203 204
f 201 204 205
f 201 205 202
f 202 205 206
f 202 206 207
f 202 207 42
f 202 42 49
f 45 42 207
f 45 207 203
f 45 203 46
f 203 207 208
f 203 208 204
f 204 208 209
f 204 209 210
f 204 210 71
f 204 71 205
f 205 71 206
f 206 71 211
f 206 211 209
f 206 209 208
f 206 208 207
f 211 71 210
f 69 210 209
f 69 209 212
f 69 212 70
f 69 70 71
f 69 71 210
f 71 213 211
f 211 213 209
f 209 213 212
f 212 213 70
f 70 213 71
f 27 24 16
f 24 27 71
f 24 71 210
f 24 210 25
f 25 210 191
f 25 191 26
f 26 191 74
f 26 74 73
f 26 73 27
f 27 73 72
f 27 72 71
f 74 190 193
f 74 193 214
f 74 214 215
f 74 215 75
f 74 75 76
f 74 76 191
f 191 76 192
f 192 76 216
f 192 216 215
f 192 215 214
f 192 214 193
f 191 74 214
f 216 76 75
f 216 75 215
f 191 210 69
f 191 69 76
f 76 69 68
f 98 217 83
f 83 217 84
f 84 217 85
f 85 217 218
f 85 218 86
f 86 218 95
f 86 95 94
f 86 94 87
f 87 94 92
f 87 92 88
f 219 218 217
f 219 217 98
f 219 98 96
f 219 96 95
f 219 95 218
f 98 97 96
f 220 221 222
f 223 224 225
f 181 178 182
f 182 181 183
f 149 146 150
f 150 149 151
f 226 227 228
f 226 228 229
f 226 229 230
f 226 230 231
f 226 231 232
f 232 231 233
f 233 231 234
f 233 234 235
f 233 235 236
f 233 236 237
f 238 239 240
f 238 240 241
f 238 241 242
f 238 242 243
f 238 243 244
f 244 243 245
f 245 243 246
f 245 246 247
f 245 247 248
f 245 248 249
f 198 197 196
f 198 196 250
f 198 250 251
f 198 251 252
f 198 252 199
f 199 252 253
f 199 253 200
f 200 253 250
f 200 250 196
f 252 251 253
f 253 251 250
f 190 74 196
f 189 74 184
