# RS2 Model 16247
# Vertices: 305
# Faces: 546

v -138 -10 -19
v -144 -8 -5
v -149 0 -17
v -140 -2 -30
v -131 -6 -36
v -125 -14 -30
v -134 -17 -14
v -137 -16 -12
v -138 -14 -9
v -139 -15 -5
v -138 -16 -2
v -141 -10 13
v -151 -1 -2
v -156 0 -6
v -157 0 -14
v -151 -1 -22
v -146 -3 -30
v -142 -1 -36
v -134 0 -40
v -118 -8 -43
v -109 -18 -36
v -110 -20 -33
v -120 -20 -21
v -131 -19 -12
v -134 -18 -6
v -136 -18 0
v -134 -19 1
v -128 -20 12
v -128 -17 28
v -133 -9 31
v -144 -2 26
v -150 -1 11
v -156 0 9
v -155 -2 1
v -158 -2 0
v -158 0 -7
v -159 0 -14
v -154 -1 -22
v -149 -3 -30
v -144 -1 -36
v -140 0 -42
v -131 0 -47
v -120 -2 -50
v -108 -2 -52
v -103 -10 -46
v -107 -17 -39
v -103 -20 -36
v -110 -22 -30
v -106 -23 -29
v -108 -27 -18
v -116 -28 -7
v -129 -21 -10
v -128 -22 -6
v -128 -22 -2
v -132 -21 0
v -87 -24 31
v -95 -19 40
v -99 -25 31
v -96 -29 22
v -86 -26 22
v -77 -22 28
v -79 -21 32
v -80 -19 36
v -87 -15 43
v -106 -12 45
v -110 -19 36
v -111 -21 32
v -104 -25 29
v -105 -28 17
v -102 -30 16
v -89 -30 11
v -71 -26 15
v -74 -22 26
v -73 -18 32
v -78 -18 37
v -76 -16 38
v -76 -9 44
v -96 -9 51
v -108 -2 55
v -124 -7 41
v -114 -16 40
v -112 -17 38
v -118 -18 32
v -114 -23 28
v -109 -28 16
v -105 -30 14
v -101 -30 12
v -101 -32 10
v -101 -30 10
v -89 -28 11
v -74 -27 10
v -74 -26 10
v -71 -25 15
v -66 -26 5
v -62 -20 18
v -70 -21 25
v -67 -19 26
v -65 -17 28
v -66 -16 32
v -68 -14 36
v -72 -15 37
v -137 0 38
v -141 -1 38
v -146 -3 32
v -152 -1 24
v -156 0 16
v -158 0 16
v -158 0 8
v -104 -31 10
v -104 -29 10
v -102 -30 4
v -91 -30 2
v -87 -30 4
v -115 -26 16
v -117 -22 26
v -121 -21 24
v -120 -26 3
v -110 -30 12
v -110 -31 4
v -110 -30 4
v -104 -30 1
v -104 -32 1
v -102 -32 4
v -91 -32 2
v -89 -31 -2
v -86 -30 0
v -86 -32 0
v -87 -32 4
v -69 -26 2
v -66 -24 5
v -69 -27 2
v -64 -20 -10
v -54 -16 1
v -50 -12 13
v -56 -13 22
v -93 -25 -22
v -106 -30 -13
v -102 -23 -30
v -99 -23 -32
v -97 -22 -34
v -96 -20 -36
v -80 -18 -35
v -76 -24 -21
v -77 -28 -14
v -87 -30 -13
v -90 -30 -15
v -96 -30 -16
v -101 -32 -14
v -104 -32 -10
v -108 -32 -5
v -110 -32 0
v -110 -30 0
v -108 -30 -5
v -105 -30 -1
v -105 -32 -1
v -103 -32 -6
v -100 -32 -9
v -97 -32 -10
v -94 -32 -9
v -90 -32 -6
v -89 -32 -2
v -90 -31 -6
v -90 -29 -15
v -87 -29 -13
v -86 -28 -9
v -86 -30 -9
v -85 -29 -6
v -84 -31 -2
v -81 -30 0
v -75 -29 0
v -76 -8 -45
v -66 -8 -40
v -74 -13 -38
v -78 -14 -40
v -90 -12 -44
v -76 -2 -50
v -60 0 -41
v -58 -9 -28
v -74 -15 -36
v -77 -16 -37
v -81 -16 -38
v -96 -18 -39
v -99 -17 -41
v -92 -2 -54
v -88 -2 -59
v -80 -2 -55
v -71 -2 -53
v -62 0 -48
v -53 0 -43
v -51 -3 -27
v -50 -6 -20
v -52 -9 -20
v -53 -12 -17
v -63 -16 -24
v -76 -18 -34
v -103 -17 -40
v -71 -27 -11
v -77 -29 -6
v -83 -29 -11
v -96 -29 -16
v -101 -30 -14
v -104 -30 -10
v -64 -1 46
v -61 -8 34
v -54 0 38
v -53 0 44
v -62 0 48
v -76 -2 52
v -92 -2 56
v -96 -2 60
v -105 -2 61
v -112 -2 56
v -123 -1 48
v -130 0 48
v -140 0 44
v -141 0 46
v -144 -1 39
v -150 -3 34
v -154 -1 25
v -46 -5 4
v -48 -9 -4
v -46 -6 -5
v -42 -3 -6
v -42 -1 11
v -48 -3 26
v -80 -2 57
v -87 -2 61
v -86 -2 62
v -96 -2 62
v -106 -2 63
v -113 -2 58
v -122 -2 54
v -122 -2 57
v -130 0 50
v -48 -5 -16
v -44 -2 -18
v -45 -4 -13
v -49 -8 -11
v -45 -4 -8
v -78 -2 58
v -50 -1 -37
v -48 -1 -37
v -48 -3 -29
v -51 0 -44
v -61 0 -50
v -80 -2 -57
v -71 -2 -55
v -114 -2 -56
v -114 -2 -57
v -105 -2 -59
v -122 -2 -54
v -123 -2 -54
v -96 -2 -61
v -96 -2 -62
v -106 -2 -60
v -145 -1 -36
v -142 0 -43
v -132 0 -48
v -42 -1 -22
v -40 -1 -22
v -36 0 -14
v -46 -3 -29
v -37 0 -7
v -34 0 -8
v -37 -2 0
v -34 0 -14
v -42 -1 24
v -39 -1 24
v -46 -3 32
v -36 0 16
v -34 0 16
v -36 0 7
v -34 0 7
v -35 -2 -2
v -50 -1 38
v -48 -1 39
v -44 -3 32
v -61 0 50
v -71 -2 54
v -70 -2 56
v -124 -19 26
v -128 -15 32
v -124 -13 36
v -119 -14 39
v -51 -13 -7
v -53 -15 -9
v -54 -13 -13
v -69 -27 -6
v -70 -28 -2
v -88 -2 -60
v -51 0 46
v -103 -30 -6
v -100 -30 -9
v -97 -30 -10
v -94 -30 -9
v -1 0 1
v 1 0 1
v 1 0 -1
v -1 0 -1
v -89 -8 -25
v -74 -8 16
v -113 -9 -17
v -13 -11 -22
v -70 -14 81
v -118 -14 -80

f 1 2 3
f 1 3 4
f 1 4 5
f 1 5 6
f 1 6 7
f 1 7 8
f 1 8 9
f 1 9 2
f 2 9 10
f 2 10 11
f 2 11 12
f 2 12 13
f 2 13 3
f 3 13 14
f 3 14 15
f 3 15 16
f 3 16 4
f 4 16 17
f 4 17 18
f 4 18 19
f 4 19 5
f 5 19 20
f 5 20 6
f 6 20 21
f 6 21 22
f 6 22 23
f 6 23 7
f 7 23 24
f 7 24 25
f 7 25 8
f 8 25 9
f 9 25 10
f 10 25 11
f 11 25 26
f 11 26 12
f 12 26 27
f 12 27 28
f 12 28 29
f 12 29 30
f 12 30 31
f 12 31 32
f 12 32 13
f 13 32 33
f 13 33 34
f 13 34 14
f 14 34 35
f 14 35 36
f 14 36 15
f 15 36 37
f 15 37 16
f 16 37 38
f 16 38 17
f 17 38 39
f 17 39 40
f 17 40 18
f 18 40 41
f 18 41 19
f 19 41 42
f 19 42 43
f 19 43 20
f 20 43 44
f 20 44 45
f 20 45 46
f 20 46 21
f 21 46 47
f 21 47 22
f 22 47 48
f 22 48 23
f 23 48 49
f 23 49 50
f 23 50 51
f 23 51 52
f 23 52 24
f 24 52 25
f 25 52 53
f 25 53 54
f 25 54 55
f 25 55 27
f 25 27 26
f 56 57 58
f 56 58 59
f 56 59 60
f 56 60 61
f 56 61 62
f 56 62 63
f 56 63 57
f 57 63 64
f 57 64 65
f 57 65 66
f 57 66 58
f 58 66 67
f 58 67 68
f 58 68 59
f 59 68 69
f 59 69 70
f 59 70 60
f 60 70 71
f 60 71 72
f 60 72 61
f 61 72 73
f 61 73 74
f 61 74 62
f 62 74 63
f 63 74 75
f 63 75 64
f 64 75 76
f 64 76 77
f 64 77 78
f 64 78 65
f 65 78 79
f 65 79 80
f 65 80 81
f 65 81 82
f 65 82 66
f 66 82 83
f 66 83 67
f 67 83 84
f 67 84 68
f 68 84 69
f 69 84 85
f 69 85 86
f 69 86 70
f 70 86 87
f 70 87 71
f 71 87 88
f 71 88 89
f 71 89 90
f 71 90 91
f 71 91 72
f 72 91 92
f 72 92 93
f 72 93 94
f 72 94 95
f 72 95 96
f 72 96 73
f 73 96 74
f 74 96 97
f 74 97 98
f 74 98 99
f 74 99 100
f 74 100 101
f 74 101 76
f 74 76 75
f 30 80 102
f 30 102 31
f 31 102 103
f 31 103 104
f 31 104 105
f 31 105 32
f 32 105 106
f 32 106 33
f 33 106 107
f 33 107 108
f 33 108 34
f 34 108 35
f 87 86 109
f 87 109 88
f 88 109 110
f 88 110 89
f 89 110 111
f 89 111 112
f 89 112 113
f 89 113 90
f 90 113 92
f 90 92 91
f 114 85 115
f 114 115 116
f 114 116 28
f 114 28 117
f 114 117 118
f 114 118 85
f 85 118 86
f 86 118 109
f 109 118 119
f 109 119 120
f 109 120 110
f 110 120 121
f 110 121 111
f 111 121 122
f 111 122 123
f 111 123 112
f 112 123 124
f 112 124 125
f 112 125 126
f 112 126 113
f 113 126 127
f 113 127 128
f 113 128 129
f 113 129 92
f 92 129 93
f 93 129 130
f 93 130 94
f 94 130 131
f 94 131 132
f 94 132 133
f 94 133 134
f 94 134 95
f 95 134 135
f 95 135 98
f 95 98 97
f 95 97 96
f 136 137 50
f 136 50 49
f 136 49 138
f 136 138 139
f 136 139 140
f 136 140 141
f 136 141 142
f 136 142 143
f 136 143 144
f 136 144 145
f 136 145 146
f 136 146 147
f 136 147 148
f 136 148 137
f 137 148 149
f 137 149 150
f 137 150 51
f 137 51 50
f 119 117 51
f 119 51 151
f 119 151 152
f 119 152 120
f 120 152 153
f 120 153 154
f 120 154 121
f 121 154 155
f 121 155 122
f 122 155 156
f 122 156 157
f 122 157 158
f 122 158 123
f 123 158 159
f 123 159 160
f 123 160 161
f 123 161 124
f 124 161 125
f 125 161 162
f 125 162 163
f 125 163 164
f 125 164 126
f 126 164 165
f 126 165 166
f 126 166 127
f 127 166 167
f 127 167 168
f 127 168 169
f 127 169 128
f 128 169 170
f 128 170 131
f 128 131 129
f 129 131 130
f 171 172 173
f 171 173 174
f 171 174 175
f 171 175 176
f 171 176 172
f 172 176 177
f 172 177 178
f 172 178 179
f 172 179 173
f 173 179 180
f 173 180 174
f 174 180 181
f 174 181 175
f 175 181 182
f 175 182 183
f 175 183 45
f 175 45 184
f 175 184 176
f 176 184 185
f 176 185 186
f 176 186 187
f 176 187 177
f 177 187 188
f 177 188 189
f 177 189 190
f 177 190 178
f 178 190 191
f 178 191 192
f 178 192 193
f 178 193 194
f 178 194 179
f 179 194 195
f 179 195 180
f 180 195 142
f 180 142 181
f 181 142 141
f 181 141 182
f 182 141 47
f 182 47 183
f 183 47 196
f 183 196 45
f 45 196 46
f 46 196 47
f 143 194 132
f 143 132 197
f 143 197 144
f 144 197 198
f 144 198 199
f 144 199 145
f 145 199 166
f 145 166 165
f 145 165 164
f 145 164 146
f 146 164 163
f 146 163 147
f 147 163 200
f 147 200 148
f 148 200 201
f 148 201 149
f 149 201 202
f 149 202 150
f 150 202 153
f 150 153 151
f 150 151 51
f 203 77 204
f 203 204 205
f 203 205 206
f 203 206 207
f 203 207 208
f 203 208 77
f 77 208 209
f 77 209 78
f 78 209 79
f 79 209 210
f 79 210 211
f 79 211 212
f 79 212 213
f 79 213 80
f 80 213 102
f 102 213 214
f 102 214 215
f 102 215 103
f 103 215 216
f 103 216 217
f 103 217 104
f 104 217 218
f 104 218 105
f 105 218 219
f 105 219 106
f 106 219 107
f 220 134 133
f 220 133 221
f 220 221 222
f 220 222 223
f 220 223 224
f 220 224 134
f 134 224 225
f 134 225 135
f 135 225 204
f 135 204 98
f 98 204 99
f 99 204 100
f 100 204 77
f 100 77 101
f 101 77 76
f 208 226 209
f 209 226 227
f 209 227 210
f 210 227 228
f 210 228 229
f 210 229 211
f 211 229 230
f 211 230 212
f 212 230 231
f 212 231 232
f 212 232 213
f 213 232 214
f 214 232 233
f 214 233 234
f 214 234 215
f 215 234 216
f 235 190 236
f 235 236 237
f 235 237 238
f 235 238 191
f 235 191 190
f 239 236 223
f 239 223 222
f 239 222 238
f 239 238 237
f 239 237 236
f 226 240 227
f 227 240 228
f 241 242 243
f 241 243 190
f 241 190 189
f 241 189 244
f 241 244 242
f 188 245 189
f 189 245 244
f 186 246 187
f 187 246 247
f 187 247 188
f 188 247 245
f 248 249 250
f 248 250 44
f 248 44 251
f 248 251 252
f 248 252 249
f 253 254 185
f 253 185 184
f 253 184 250
f 253 250 255
f 253 255 254
f 40 256 41
f 41 256 257
f 41 257 42
f 42 257 258
f 42 258 251
f 42 251 43
f 43 251 44
f 259 260 261
f 259 261 236
f 259 236 243
f 259 243 262
f 259 262 260
f 263 264 265
f 263 265 223
f 263 223 261
f 263 261 266
f 263 266 264
f 267 268 269
f 267 269 225
f 267 225 270
f 267 270 271
f 267 271 268
f 272 273 270
f 272 270 224
f 272 224 265
f 272 265 274
f 272 274 273
f 275 276 206
f 275 206 205
f 275 205 269
f 275 269 277
f 275 277 276
f 207 278 279
f 207 279 208
f 208 279 226
f 226 279 280
f 226 280 240
f 116 115 83
f 116 83 281
f 116 281 28
f 28 281 29
f 29 281 83
f 29 83 282
f 29 282 30
f 30 282 283
f 30 283 80
f 80 283 284
f 80 284 81
f 81 284 83
f 81 83 82
f 84 83 115
f 84 115 85
f 283 83 284
f 83 283 282
f 27 55 28
f 28 55 54
f 28 54 117
f 117 54 51
f 51 54 53
f 51 53 52
f 118 117 119
f 221 133 285
f 221 285 238
f 221 238 222
f 286 285 133
f 286 133 132
f 286 132 287
f 286 287 238
f 286 238 285
f 197 132 288
f 197 288 198
f 198 288 289
f 198 289 170
f 198 170 169
f 198 169 168
f 198 168 167
f 198 167 199
f 199 167 166
f 289 288 132
f 289 132 131
f 289 131 170
f 191 238 192
f 192 238 193
f 193 238 287
f 193 287 132
f 193 132 194
f 195 143 142
f 143 195 194
f 139 47 140
f 140 47 141
f 44 184 45
f 184 44 250
f 139 138 47
f 47 138 49
f 47 49 48
f 225 205 204
f 205 225 269
f 243 236 190
f 261 223 236
f 270 225 224
f 265 224 223
f 233 232 231
f 262 243 242
f 290 186 185
f 290 185 254
f 290 246 186
f 255 250 249
f 39 256 40
f 252 251 258
f 266 261 260
f 274 265 264
f 277 269 268
f 271 270 273
f 291 206 276
f 206 291 207
f 207 291 278
f 280 279 278
f 292 154 153
f 292 153 202
f 292 202 201
f 292 201 293
f 292 293 157
f 292 157 156
f 292 156 154
f 154 156 155
f 294 200 295
f 294 295 159
f 294 159 158
f 294 158 293
f 294 293 200
f 200 293 201
f 295 200 163
f 295 163 162
f 295 162 160
f 295 160 159
f 153 152 151
f 293 158 157
f 162 161 160
f 296 297 298
f 296 298 299
