# RS2 Model 16283
# Vertices: 293
# Faces: 522

v -1 0 1
v 1 0 1
v 1 0 -1
v -1 0 -1
v 70 -10 37
v 82 -8 46
v 70 0 49
v 57 -2 37
v 54 -6 28
v 60 -14 23
v 75 -17 34
v 77 -16 38
v 79 -14 40
v 83 -15 42
v 85 -16 41
v 100 -10 47
v 84 -1 53
v 78 0 57
v 70 0 57
v 64 -1 51
v 56 -3 44
v 51 -1 39
v 49 0 30
v 49 -8 14
v 58 -18 7
v 60 -20 8
v 71 -20 19
v 76 -19 33
v 83 -18 36
v 88 -18 40
v 90 -19 37
v 102 -20 33
v 118 -17 36
v 120 -9 41
v 113 -2 51
v 97 -1 55
v 94 0 60
v 86 -2 59
v 84 -2 60
v 78 0 60
v 70 0 60
v 64 -1 53
v 56 -3 47
v 51 -1 41
v 46 0 35
v 43 0 26
v 42 -2 14
v 41 -2 2
v 48 -10 -1
v 55 -17 3
v 59 -20 0
v 64 -22 8
v 65 -23 4
v 77 -29 9
v 85 -28 18
v 80 -21 30
v 83 -22 30
v 88 -22 31
v 90 -21 35
v 127 -24 -3
v 134 -19 5
v 126 -25 8
v 117 -29 3
v 118 -26 -6
v 126 -22 -15
v 130 -21 -11
v 134 -19 -10
v 139 -15 -1
v 138 -12 18
v 128 -19 20
v 124 -21 20
v 123 -25 13
v 110 -28 10
v 109 -30 7
v 107 -31 -5
v 112 -25 -18
v 125 -22 -18
v 131 -18 -17
v 135 -18 -12
v 136 -16 -14
v 142 -9 -13
v 146 -9 8
v 148 -2 21
v 131 -7 34
v 131 -16 25
v 130 -17 23
v 123 -18 27
v 120 -23 22
v 108 -28 14
v 107 -30 9
v 106 -30 5
v 106 -29 5
v 107 -30 -5
v 104 -31 -11
v 99 -29 -18
v 97 -28 -24
v 104 -24 -30
v 119 -20 -30
v 124 -21 -21
v 125 -19 -25
v 128 -17 -25
v 132 -16 -25
v 136 -14 -21
v 136 -15 -17
v 126 0 46
v 124 -1 51
v 118 -3 55
v 109 -1 59
v 101 0 62
v 101 0 63
v 92 0 62
v 103 -30 9
v 103 -29 9
v 104 -30 -11
v 99 -31 -6
v 97 -30 -13
v 91 -29 -18
v 93 -27 -26
v 90 -20 -34
v 104 -16 -42
v 116 -12 -43
v 123 -13 -35
v 108 -26 22
v 116 -22 25
v 114 -21 29
v 94 -26 23
v 104 -30 13
v 99 -31 12
v 99 -30 12
v 99 -30 8
v 101 -30 0
v 99 -30 -6
v 101 -31 0
v 95 -31 1
v 96 -31 -7
v 93 -31 -10
v 88 -30 -10
v 85 -29 -13
v 84 -28 -19
v 88 -27 -24
v 78 -24 -24
v 78 -16 -37
v 86 -12 -46
v 90 -13 -44
v 94 -15 -45
v 96 -13 -46
v 99 -9 -49
v 108 -5 -49
v 116 -1 -52
v 129 -3 -42
v 135 -8 -29
v 94 -31 14
v 91 -31 14
v 91 -30 14
v 94 -30 14
v 54 -8 -27
v 61 -8 -37
v 61 -13 -28
v 59 -14 -25
v 52 -12 -14
v 50 -2 -29
v 61 0 -42
v 75 -9 -43
v 63 -15 -29
v 62 -16 -25
v 60 -16 -21
v 57 -18 -7
v 54 -17 -4
v 43 -2 -14
v 39 -2 -19
v 44 -2 -26
v 48 -2 -34
v 54 0 -42
v 61 0 -50
v 77 -3 -50
v 84 -6 -49
v 83 -9 -47
v 66 -18 -26
v 64 -18 -22
v 59 -20 -7
v 55 -17 -1
v 77 -28 -4
v 88 -29 -10
v 77 -27 -4
v 65 -23 1
v 63 -23 -2
v 62 -22 -6
v 145 -1 -24
v 140 0 -34
v 146 0 -35
v 149 0 -26
v 149 -2 -12
v 151 -2 5
v 155 -2 10
v 154 -2 20
v 147 -2 26
v 138 -1 35
v 137 0 41
v 131 0 50
v 133 0 52
v 125 -1 54
v 120 -3 58
v 110 -1 61
v 154 -2 -7
v 157 -2 1
v 158 -2 0
v 157 -2 10
v 156 -2 20
v 150 -2 26
v 144 -2 34
v 147 -2 35
v 139 0 42
v 88 -5 -51
v 87 -2 -54
v 91 -4 -52
v 93 -8 -49
v 96 -4 -52
v 99 -3 -55
v 99 -6 -51
v 105 -2 -58
v 113 0 -59
v 122 0 -56
v 129 -1 -50
v 136 -3 -43
v 156 -2 -7
v 67 -1 -52
v 67 -1 -54
v 75 -3 -53
v 60 0 -52
v 52 0 -43
v 42 -2 -26
v 46 -2 -35
v 37 -2 7
v 36 -2 7
v 36 -2 -1
v 38 -2 16
v 36 -2 17
v 35 -2 -11
v 34 -2 -11
v 34 -2 -1
v 50 -1 42
v 45 0 37
v 42 0 26
v 83 -1 -58
v 84 -1 -60
v 91 0 -61
v 76 -3 -55
v 99 0 -60
v 98 0 -62
v 92 0 -64
v 129 -1 -52
v 136 -3 -46
v 141 -1 -39
v 142 -1 -41
v 147 0 -36
v 151 0 -26
v 153 -2 -16
v 155 -2 -16
v 113 0 -61
v 122 0 -58
v 115 -19 32
v 121 -15 36
v 126 -13 33
v 130 -14 30
v 38 -2 -19
v 104 -2 -61
v 99 -31 8
v 95 -31 9
v 95 -30 9
v 95 -30 1
v 96 -30 -7
v 93 -30 -10
v 89 -30 -3
v 86 -30 -4
v 83 -30 -2
v 82 -30 1
v 77 -28 9
v 83 -31 9
v 89 -31 9
v 89 -30 9
v 83 -31 -2
v 86 -31 -4
v 89 -31 -3
v 82 -31 1
v 85 -31 8
v 85 -30 8
v 83 -30 9
v 99 -10 23
v 69 -9 4
v 119 -10 -6
v 107 -16 82
v 12 -15 13
v 179 -12 -15

f 1 2 3
f 1 3 4
f 5 6 7
f 5 7 8
f 5 8 9
f 5 9 10
f 5 10 11
f 5 11 12
f 5 12 13
f 5 13 6
f 6 13 14
f 6 14 15
f 6 15 16
f 6 16 17
f 6 17 7
f 7 17 18
f 7 18 19
f 7 19 20
f 7 20 8
f 8 20 21
f 8 21 22
f 8 22 23
f 8 23 9
f 9 23 24
f 9 24 10
f 10 24 25
f 10 25 26
f 10 26 27
f 10 27 11
f 11 27 28
f 11 28 29
f 11 29 12
f 12 29 13
f 13 29 14
f 14 29 15
f 15 29 30
f 15 30 16
f 16 30 31
f 16 31 32
f 16 32 33
f 16 33 34
f 16 34 35
f 16 35 36
f 16 36 17
f 17 36 37
f 17 37 38
f 17 38 18
f 18 38 39
f 18 39 40
f 18 40 19
f 19 40 41
f 19 41 20
f 20 41 42
f 20 42 21
f 21 42 43
f 21 43 44
f 21 44 22
f 22 44 45
f 22 45 23
f 23 45 46
f 23 46 47
f 23 47 24
f 24 47 48
f 24 48 49
f 24 49 50
f 24 50 25
f 25 50 51
f 25 51 26
f 26 51 52
f 26 52 27
f 27 52 53
f 27 53 54
f 27 54 55
f 27 55 56
f 27 56 28
f 28 56 29
f 29 56 57
f 29 57 58
f 29 58 59
f 29 59 31
f 29 31 30
f 60 61 62
f 60 62 63
f 60 63 64
f 60 64 65
f 60 65 66
f 60 66 67
f 60 67 61
f 61 67 68
f 61 68 69
f 61 69 70
f 61 70 62
f 62 70 71
f 62 71 72
f 62 72 63
f 63 72 73
f 63 73 74
f 63 74 64
f 64 74 75
f 64 75 76
f 64 76 65
f 65 76 77
f 65 77 78
f 65 78 66
f 66 78 67
f 67 78 79
f 67 79 68
f 68 79 80
f 68 80 81
f 68 81 82
f 68 82 69
f 69 82 83
f 69 83 84
f 69 84 85
f 69 85 86
f 69 86 70
f 70 86 87
f 70 87 71
f 71 87 88
f 71 88 72
f 72 88 73
f 73 88 89
f 73 89 90
f 73 90 74
f 74 90 91
f 74 91 75
f 75 91 92
f 75 92 93
f 75 93 94
f 75 94 76
f 76 94 95
f 76 95 96
f 76 96 97
f 76 97 98
f 76 98 99
f 76 99 77
f 77 99 78
f 78 99 100
f 78 100 101
f 78 101 102
f 78 102 103
f 78 103 104
f 78 104 80
f 78 80 79
f 34 84 105
f 34 105 35
f 35 105 106
f 35 106 107
f 35 107 108
f 35 108 36
f 36 108 109
f 36 109 37
f 37 109 110
f 37 110 111
f 37 111 38
f 38 111 39
f 91 90 112
f 91 112 113
f 91 113 92
f 92 113 93
f 93 113 114
f 93 114 94
f 94 114 115
f 94 115 116
f 94 116 95
f 95 116 117
f 95 117 96
f 96 117 118
f 96 118 119
f 96 119 97
f 97 119 120
f 97 120 121
f 97 121 98
f 98 121 122
f 98 122 101
f 98 101 100
f 98 100 99
f 123 89 124
f 123 124 125
f 123 125 32
f 123 32 126
f 123 126 127
f 123 127 89
f 89 127 90
f 90 127 112
f 112 127 128
f 112 128 129
f 112 129 113
f 113 129 130
f 113 130 131
f 113 131 114
f 114 131 132
f 114 132 115
f 115 132 133
f 115 133 134
f 115 134 135
f 115 135 116
f 116 135 136
f 116 136 117
f 117 136 137
f 117 137 138
f 117 138 139
f 117 139 140
f 117 140 118
f 118 140 119
f 119 140 141
f 119 141 142
f 119 142 143
f 119 143 144
f 119 144 145
f 119 145 120
f 120 145 146
f 120 146 147
f 120 147 148
f 120 148 121
f 121 148 149
f 121 149 150
f 121 150 122
f 122 150 151
f 122 151 101
f 101 151 102
f 102 151 103
f 103 151 81
f 103 81 104
f 104 81 80
f 152 126 55
f 152 55 153
f 152 153 154
f 152 154 155
f 152 155 128
f 152 128 127
f 152 127 126
f 156 157 158
f 156 158 159
f 156 159 160
f 156 160 161
f 156 161 157
f 157 161 162
f 157 162 163
f 157 163 164
f 157 164 158
f 158 164 165
f 158 165 159
f 159 165 166
f 159 166 160
f 160 166 167
f 160 167 168
f 160 168 49
f 160 49 169
f 160 169 161
f 161 169 170
f 161 170 171
f 161 171 172
f 161 172 162
f 162 172 173
f 162 173 174
f 162 174 175
f 162 175 163
f 163 175 176
f 163 176 177
f 163 177 143
f 163 143 142
f 163 142 164
f 164 142 178
f 164 178 165
f 165 178 179
f 165 179 166
f 166 179 180
f 166 180 167
f 167 180 51
f 167 51 168
f 168 51 181
f 168 181 49
f 49 181 50
f 50 181 51
f 182 179 141
f 182 141 139
f 182 139 138
f 182 138 137
f 182 137 183
f 182 183 184
f 182 184 54
f 182 54 53
f 182 53 185
f 182 185 186
f 182 186 187
f 182 187 180
f 182 180 179
f 188 81 151
f 188 151 189
f 188 189 190
f 188 190 191
f 188 191 192
f 188 192 81
f 81 192 193
f 81 193 82
f 82 193 83
f 83 193 194
f 83 194 195
f 83 195 196
f 83 196 197
f 83 197 84
f 84 197 105
f 105 197 198
f 105 198 199
f 105 199 106
f 106 199 200
f 106 200 201
f 106 201 107
f 107 201 202
f 107 202 108
f 108 202 203
f 108 203 109
f 109 203 110
f 192 204 193
f 193 204 205
f 193 205 194
f 194 205 206
f 194 206 207
f 194 207 195
f 195 207 208
f 195 208 196
f 196 208 209
f 196 209 210
f 196 210 197
f 197 210 198
f 198 210 211
f 198 211 212
f 198 212 199
f 199 212 200
f 213 175 214
f 213 214 215
f 213 215 216
f 213 216 176
f 213 176 175
f 217 214 218
f 217 218 219
f 217 219 216
f 217 216 215
f 217 215 214
f 148 218 149
f 149 218 220
f 149 220 221
f 149 221 222
f 149 222 150
f 150 222 223
f 150 223 224
f 150 224 189
f 150 189 151
f 204 225 205
f 205 225 206
f 226 227 228
f 226 228 175
f 226 175 174
f 226 174 229
f 226 229 227
f 173 230 174
f 174 230 229
f 171 231 172
f 172 231 232
f 172 232 173
f 173 232 230
f 233 234 235
f 233 235 48
f 233 48 236
f 233 236 237
f 233 237 234
f 238 239 170
f 238 170 169
f 238 169 235
f 238 235 240
f 238 240 239
f 44 241 45
f 45 241 242
f 45 242 46
f 46 242 243
f 46 243 236
f 46 236 47
f 47 236 48
f 244 245 246
f 244 246 214
f 244 214 228
f 244 228 247
f 244 247 245
f 248 249 220
f 248 220 218
f 248 218 246
f 248 246 250
f 248 250 249
f 223 251 224
f 224 251 252
f 224 252 253
f 224 253 189
f 189 253 190
f 190 253 254
f 190 254 255
f 190 255 191
f 191 255 256
f 191 256 257
f 191 257 192
f 192 257 204
f 204 257 258
f 204 258 225
f 221 259 222
f 222 259 260
f 222 260 223
f 223 260 251
f 125 124 87
f 125 87 261
f 125 261 32
f 32 261 33
f 33 261 87
f 33 87 262
f 33 262 34
f 34 262 263
f 34 263 84
f 84 263 264
f 84 264 85
f 85 264 87
f 85 87 86
f 88 87 124
f 88 124 89
f 263 87 264
f 87 263 262
f 31 59 32
f 32 59 58
f 32 58 126
f 126 58 55
f 55 58 57
f 55 57 56
f 147 146 216
f 147 216 219
f 147 219 148
f 148 219 218
f 145 216 146
f 216 145 144
f 216 144 143
f 216 143 177
f 216 177 176
f 139 141 140
f 178 141 179
f 141 178 142
f 186 51 187
f 187 51 180
f 48 169 49
f 169 48 235
f 186 185 51
f 51 185 53
f 51 53 52
f 228 214 175
f 246 218 214
f 211 210 209
f 247 228 227
f 265 171 170
f 265 170 239
f 265 231 171
f 240 235 234
f 43 241 44
f 237 236 243
f 250 246 245
f 266 220 249
f 220 266 221
f 221 266 259
f 252 254 253
f 258 257 256
f 133 267 268
f 133 268 134
f 134 268 269
f 134 269 270
f 134 270 135
f 135 270 271
f 135 271 136
f 136 271 272
f 136 272 137
f 137 272 183
f 183 272 273
f 183 273 274
f 183 274 184
f 184 274 275
f 184 275 276
f 184 276 277
f 184 277 54
f 54 277 278
f 54 278 55
f 55 278 279
f 55 279 153
f 153 279 280
f 153 280 154
f 154 280 272
f 154 272 271
f 154 271 270
f 154 270 269
f 154 269 155
f 155 269 129
f 155 129 128
f 281 282 283
f 281 283 284
f 281 284 276
f 281 276 275
f 281 275 282
f 282 275 274
f 282 274 283
f 283 274 273
f 283 273 279
f 283 279 285
f 283 285 284
f 284 285 286
f 284 286 276
f 276 286 287
f 276 287 277
f 277 287 278
f 278 287 285
f 278 285 279
f 130 129 269
f 130 269 268
f 130 268 267
f 130 267 131
f 131 267 133
f 131 133 132
f 272 280 273
f 273 280 279
f 287 286 285
