# RS2 Model 16293
# Vertices: 310
# Faces: 474

v -24 43 469
v 0 48 483
v -18 53 459
v -21 38 467
v -42 45 445
v -40 25 483
v -33 21 495
v -13 37 504
v 13 37 504
v 24 40 483
v 18 53 459
v 0 42 481
v 36 0 504
v 48 0 483
v 33 21 495
v 16 9 534
v 16 -9 534
v 33 -21 495
v 40 -25 483
v 60 -17 459
v 42 0 481
v 60 17 459
v 43 25 469
v 0 16 536
v 0 0 544
v 0 -16 536
v 13 -37 504
v 24 -40 483
v 42 -42 449
v 35 -22 481
v -24 -40 483
v -18 -53 459
v 0 -48 483
v -13 -37 504
v -33 -21 495
v -41 -27 475
v -43 -44 451
v -21 -35 481
v 18 -53 459
v 21 -35 481
v -16 -9 534
v -36 0 504
v -48 0 483
v -60 -17 459
v -36 -24 473
v -16 9 534
v -53 15 453
v -42 0 481
v 45 42 445
v 21 35 481
v 0 -42 481
v -35 22 481
v 38 22 467
v -32 53 411
v -1 66 399
v -22 75 380
v -18 65 382
v -27 45 408
v -56 55 380
v -59 32 399
v -44 27 436
v -16 44 447
v 16 44 447
v 30 55 399
v 18 72 368
v 15 62 371
v -1 58 396
v 48 -1 447
v 65 -1 411
v 47 30 441
v 24 13 492
v 24 -13 492
v 55 -34 428
v 59 -38 411
v 81 -23 380
v 71 -19 382
v 56 -1 408
v 81 21 380
v 54 32 411
v 0 24 495
v -24 13 492
v -48 -1 447
v -24 -13 492
v -44 -28 436
v -16 -44 447
v 0 -24 495
v 16 -44 447
v 32 -55 411
v 56 -57 380
v 49 -50 382
v 46 -29 408
v -32 -55 411
v -22 -77 380
v 0 -68 399
v -59 -34 399
v -56 -57 380
v -49 -50 382
v -27 -47 408
v -18 -67 382
v 0 -60 396
v 22 -77 380
v -70 -1 399
v -86 -23 368
v -76 -19 371
v -52 -29 398
v -86 21 368
v -76 17 371
v -62 -1 398
v 56 55 380
v 49 48 382
v 26 48 396
v 18 -67 382
v 27 -47 408
v -49 48 382
v -52 27 398
v 71 17 382
v 46 27 408
v -45 77 253
v 0 92 253
v -29 106 184
v -26 95 188
v -40 69 249
v -67 76 184
v -93 42 235
v -80 49 271
v -63 39 292
v -22 63 318
v 22 70 300
v 45 86 227
v 29 106 184
v 26 95 188
v 0 82 249
v 70 0 318
v 96 -11 229
v 63 39 292
v 42 21 375
v 42 -21 375
v 63 -39 292
v 77 -46 253
v 103 -32 184
v 92 -28 188
v 86 -11 225
v 103 32 184
v 77 46 253
v 0 42 379
v -42 21 375
v -70 0 318
v -42 -21 375
v -63 -39 292
v -22 -63 318
v 0 -42 379
v 22 -63 318
v 45 -77 253
v 67 -76 184
v 60 -68 188
v 69 -41 249
v -45 -77 253
v -29 -106 184
v 0 -92 253
v -24 -85 283
v -72 -54 228
v -67 -76 184
v -60 -68 188
v -40 -69 249
v -26 -95 188
v 0 -82 249
v 29 -106 184
v -97 15 242
v -103 -32 184
v -92 -28 188
v -64 -49 224
v 67 76 184
v 60 68 188
v 40 78 223
v -103 32 184
v -92 28 188
v -87 15 238
v 26 -95 188
v 40 -69 249
v -60 68 188
v -85 37 231
v 92 28 188
v 69 41 249
v -53 90 137
v 9 108 111
v -33 114 71
v -30 104 74
v -48 82 134
v -85 87 62
v -103 49 104
v -82 52 170
v -30 82 192
v 30 82 192
v 53 90 137
v 33 114 71
v 30 104 74
v 9 98 108
v 91 0 192
v 112 11 112
v 82 52 170
v 40 21 268
v 40 -21 268
v 82 -52 170
v 90 -55 137
v 121 -33 71
v 110 -30 74
v 102 11 109
v 121 33 71
v 90 55 137
v 0 40 273
v -40 21 268
v -91 0 192
v -40 -21 268
v -82 -52 170
v -30 -82 192
v 0 -40 273
v 30 -82 192
v 53 -90 137
v 85 -85 71
v 77 -77 74
v 82 -50 134
v -53 -90 137
v -33 -114 71
v 0 -107 137
v -90 -55 137
v -77 -91 90
v -69 -83 93
v -48 -82 134
v -30 -104 74
v 0 -97 134
v 33 -114 71
v -107 0 137
v -121 -33 71
v -110 -30 74
v -82 -50 134
v -121 35 62
v -110 32 65
v -97 0 134
v 85 85 71
v 77 77 74
v 48 82 134
v 30 -104 74
v 48 -82 134
v -77 79 65
v -95 44 101
v 110 30 74
v 82 50 134
v -24 75 336
v 17 83 320
v -6 99 296
v -4 86 299
v -21 64 333
v -53 85 296
v -63 56 322
v -46 46 364
v -7 58 379
v 31 49 379
v 53 60 320
v 43 83 281
v 36 72 285
v 14 72 316
v 59 -14 379
v 78 -19 336
v 67 23 371
v 27 14 441
v 27 -14 441
v 61 -62 336
v 92 -51 296
v 81 -43 299
v 69 -17 333
v 105 4 296
v 75 24 336
v 0 27 444
v -27 14 441
v -60 13 379
v -27 -14 441
v -62 -22 364
v -32 -50 379
v 0 -27 444
v 6 -59 379
v 23 -76 336
v 52 -86 296
v 46 -75 299
v 48 -49 333
v -55 -58 336
v -50 -88 296
v -20 -83 320
v -82 -24 322
v -86 -53 296
v -75 -47 299
v -48 -49 333
v -42 -76 299
v -17 -73 316
v 5 -100 296
v -86 20 322
v -112 -3 281
v -99 -1 285
v -72 -21 319
v -99 51 281
v -89 44 285
v -76 17 319
v 85 52 296
v 74 46 299
v 45 53 316
v 3 -87 299
v 20 -65 333
v -47 74 299
v -56 49 319
v 91 2 299
v 64 21 333

f 1 2 3
f 1 3 4
f 1 4 5
f 1 5 6
f 1 6 7
f 1 7 8
f 1 8 2
f 2 8 9
f 2 9 10
f 2 10 11
f 2 11 12
f 2 12 3
f 13 14 15
f 13 15 16
f 13 16 17
f 13 17 18
f 13 18 14
f 14 18 19
f 14 19 20
f 14 20 21
f 14 21 22
f 14 22 23
f 14 23 15
f 15 23 10
f 15 10 9
f 15 9 16
f 16 9 24
f 16 24 25
f 16 25 17
f 17 25 26
f 17 26 27
f 17 27 18
f 18 27 28
f 18 28 19
f 19 28 29
f 19 29 30
f 19 30 20
f 31 32 33
f 31 33 34
f 31 34 35
f 31 35 36
f 31 36 37
f 31 37 38
f 31 38 32
f 28 33 39
f 28 39 40
f 28 40 29
f 26 34 27
f 27 34 33
f 27 33 28
f 26 25 41
f 26 41 34
f 34 41 35
f 35 41 42
f 35 42 43
f 35 43 36
f 36 43 44
f 36 44 45
f 36 45 37
f 42 41 46
f 42 46 7
f 42 7 43
f 43 7 6
f 43 6 47
f 43 47 48
f 43 48 44
f 24 46 25
f 25 46 41
f 24 8 46
f 46 8 7
f 24 9 8
f 10 23 49
f 10 49 50
f 10 50 11
f 33 32 51
f 33 51 39
f 6 5 52
f 6 52 47
f 23 22 53
f 23 53 49
f 54 55 56
f 54 56 57
f 54 57 58
f 54 58 59
f 54 59 60
f 54 60 61
f 54 61 62
f 54 62 55
f 55 62 63
f 55 63 64
f 55 64 65
f 55 65 66
f 55 66 67
f 55 67 56
f 56 67 57
f 68 69 70
f 68 70 71
f 68 71 72
f 68 72 73
f 68 73 69
f 69 73 74
f 69 74 75
f 69 75 76
f 69 76 77
f 69 77 78
f 69 78 79
f 69 79 70
f 70 79 64
f 70 64 63
f 70 63 71
f 71 63 80
f 80 63 62
f 80 62 81
f 81 62 61
f 81 61 82
f 81 82 83
f 83 82 84
f 83 84 85
f 83 85 86
f 86 85 87
f 86 87 72
f 72 87 73
f 73 87 88
f 73 88 74
f 74 88 89
f 74 89 90
f 74 90 91
f 74 91 75
f 75 91 76
f 92 93 94
f 92 94 85
f 92 85 84
f 92 84 95
f 92 95 96
f 92 96 97
f 92 97 98
f 92 98 93
f 93 98 99
f 93 99 94
f 94 99 100
f 94 100 101
f 94 101 88
f 94 88 87
f 94 87 85
f 82 61 102
f 82 102 84
f 84 102 95
f 95 102 103
f 95 103 104
f 95 104 105
f 95 105 96
f 96 105 97
f 102 61 60
f 102 60 106
f 102 106 107
f 102 107 108
f 102 108 103
f 103 108 104
f 64 79 109
f 64 109 110
f 64 110 111
f 64 111 65
f 65 111 66
f 101 100 112
f 101 112 88
f 88 112 113
f 88 113 89
f 89 113 90
f 59 58 114
f 59 114 60
f 60 114 115
f 60 115 106
f 106 115 107
f 78 77 116
f 78 116 79
f 79 116 117
f 79 117 109
f 109 117 110
f 118 119 120
f 118 120 121
f 118 121 122
f 118 122 123
f 118 123 124
f 118 124 125
f 118 125 126
f 118 126 127
f 118 127 119
f 119 127 128
f 119 128 129
f 119 129 130
f 119 130 131
f 119 131 132
f 119 132 120
f 120 132 121
f 133 134 135
f 133 135 136
f 133 136 137
f 133 137 138
f 133 138 134
f 134 138 139
f 134 139 140
f 134 140 141
f 134 141 142
f 134 142 143
f 134 143 144
f 134 144 135
f 135 144 129
f 135 129 128
f 135 128 136
f 136 128 145
f 145 128 127
f 145 127 146
f 146 127 126
f 146 126 147
f 146 147 148
f 148 147 149
f 148 149 150
f 148 150 151
f 151 150 152
f 151 152 137
f 137 152 138
f 138 152 153
f 138 153 139
f 139 153 154
f 139 154 155
f 139 155 156
f 139 156 140
f 140 156 141
f 157 158 159
f 157 159 160
f 157 160 150
f 157 150 149
f 157 149 161
f 157 161 162
f 157 162 163
f 157 163 164
f 157 164 158
f 158 164 165
f 158 165 159
f 159 165 166
f 159 166 167
f 159 167 153
f 159 153 152
f 159 152 150
f 159 150 160
f 147 126 168
f 147 168 149
f 149 168 161
f 161 168 169
f 161 169 170
f 161 170 171
f 161 171 162
f 162 171 163
f 129 144 172
f 129 172 173
f 129 173 174
f 129 174 130
f 130 174 131
f 168 124 175
f 168 175 176
f 168 176 177
f 168 177 169
f 169 177 170
f 167 166 178
f 167 178 153
f 153 178 179
f 153 179 154
f 154 179 155
f 123 122 180
f 123 180 124
f 124 180 181
f 124 181 175
f 175 181 176
f 143 142 182
f 143 182 144
f 144 182 183
f 144 183 172
f 172 183 173
f 168 126 125
f 168 125 124
f 184 185 186
f 184 186 187
f 184 187 188
f 184 188 189
f 184 189 190
f 184 190 191
f 184 191 192
f 184 192 185
f 185 192 193
f 185 193 194
f 185 194 195
f 185 195 196
f 185 196 197
f 185 197 186
f 186 197 187
f 198 199 200
f 198 200 201
f 198 201 202
f 198 202 203
f 198 203 199
f 199 203 204
f 199 204 205
f 199 205 206
f 199 206 207
f 199 207 208
f 199 208 209
f 199 209 200
f 200 209 194
f 200 194 193
f 200 193 201
f 201 193 210
f 210 193 192
f 210 192 211
f 211 192 191
f 211 191 212
f 211 212 213
f 213 212 214
f 213 214 215
f 213 215 216
f 216 215 217
f 216 217 202
f 202 217 203
f 203 217 218
f 203 218 204
f 204 218 219
f 204 219 220
f 204 220 221
f 204 221 205
f 205 221 206
f 222 223 224
f 222 224 215
f 222 215 214
f 222 214 225
f 222 225 226
f 222 226 227
f 222 227 228
f 222 228 223
f 223 228 229
f 223 229 224
f 224 229 230
f 224 230 231
f 224 231 218
f 224 218 217
f 224 217 215
f 212 191 232
f 212 232 214
f 214 232 225
f 225 232 233
f 225 233 234
f 225 234 235
f 225 235 226
f 226 235 227
f 232 191 190
f 232 190 236
f 232 236 237
f 232 237 238
f 232 238 233
f 233 238 234
f 194 209 239
f 194 239 240
f 194 240 241
f 194 241 195
f 195 241 196
f 231 230 242
f 231 242 218
f 218 242 243
f 218 243 219
f 219 243 220
f 189 188 244
f 189 244 190
f 190 244 245
f 190 245 236
f 236 245 237
f 208 207 246
f 208 246 209
f 209 246 247
f 209 247 239
f 239 247 240
f 248 249 250
f 248 250 251
f 248 251 252
f 248 252 253
f 248 253 254
f 248 254 255
f 248 255 256
f 248 256 249
f 249 256 257
f 249 257 258
f 249 258 259
f 249 259 260
f 249 260 261
f 249 261 250
f 250 261 251
f 262 263 264
f 262 264 265
f 262 265 266
f 262 266 267
f 262 267 263
f 263 267 268
f 263 268 269
f 263 269 270
f 263 270 271
f 263 271 272
f 263 272 264
f 264 272 258
f 264 258 257
f 264 257 265
f 265 257 273
f 273 257 256
f 273 256 274
f 274 256 255
f 274 255 275
f 274 275 276
f 276 275 277
f 276 277 278
f 276 278 279
f 279 278 280
f 279 280 266
f 266 280 267
f 267 280 281
f 267 281 282
f 267 282 283
f 267 283 284
f 267 284 268
f 268 284 269
f 285 286 287
f 285 287 278
f 285 278 277
f 285 277 288
f 285 288 289
f 285 289 290
f 285 290 291
f 285 291 286
f 286 291 292
f 286 292 287
f 287 292 293
f 287 293 294
f 287 294 281
f 287 281 280
f 287 280 278
f 275 255 295
f 275 295 277
f 277 295 288
f 288 295 296
f 288 296 297
f 288 297 298
f 288 298 289
f 289 298 290
f 295 255 254
f 295 254 299
f 295 299 300
f 295 300 301
f 295 301 296
f 296 301 297
f 258 272 302
f 258 302 303
f 258 303 304
f 258 304 259
f 259 304 260
f 294 293 305
f 294 305 281
f 281 305 306
f 281 306 282
f 282 306 283
f 253 252 307
f 253 307 254
f 254 307 308
f 254 308 299
f 299 308 300
f 271 270 309
f 271 309 272
f 272 309 310
f 272 310 302
f 302 310 303
