# RS2 Model 16302
# Vertices: 204
# Faces: 390

v -24 -11 114
v -32 1 118
v -23 8 136
v -36 12 132
v -40 8 140
v -31 4 154
v -23 2 153
v -25 -3 155
v -27 -12 151
v -34 -10 153
v -28 -20 144
v -25 -32 145
v -28 -28 124
v -31 -18 122
v -34 -23 115
v -38 1 104
v -55 7 106
v -53 6 119
v -51 8 121
v -34 5 120
v -38 13 131
v -47 3 145
v -51 -10 147
v -42 -21 146
v -35 -25 134
v -37 -27 132
v -36 -25 117
v -54 -20 115
v -40 -16 102
v -40 1 92
v -53 5 92
v -58 -3 92
v -58 -4 105
v -60 -4 118
v -61 -2 121
v -54 6 122
v -46 7 142
v -41 0 84
v -45 -13 87
v -45 -22 64
v -43 -1 64
v -44 2 66
v -43 3 82
v -51 5 83
v -43 -11 92
v -53 -11 92
v -51 -13 87
v -50 -16 85
v -46 -16 85
v -46 -22 68
v -55 -22 68
v -51 -25 63
v -42 -35 51
v -46 -24 51
v -56 -23 50
v -53 -22 42
v -53 7 42
v -58 5 62
v -55 3 68
v -53 4 70
v -50 6 81
v -57 2 69
v -54 4 82
v -58 -5 85
v -54 -16 103
v -57 -19 119
v -62 -6 121
v -54 -8 146
v -50 3 144
v -47 -23 136
v -56 -11 145
v -52 -21 135
v -51 -24 117
v -46 -25 133
v -60 -5 63
v -62 -7 42
v -59 -6 68
v -62 7 42
v -60 9 33
v -60 -6 32
v -62 -22 42
v -60 -24 33
v -52 -23 35
v -51 4 34
v -49 4 20
v -49 -23 20
v -48 -22 28
v -48 4 28
v -37 -2 23
v -37 -23 23
v -49 -23 43
v -49 -34 46
v -41 -22 46
v -36 -24 43
v -41 -24 37
v -60 -5 69
v -59 -4 83
v -60 -7 70
v -59 -6 83
v -54 -12 85
v -53 -22 71
v -57 -20 70
v 24 -11 114
v 23 8 136
v 32 1 118
v 31 -18 122
v 28 -28 124
v 28 -20 144
v 25 -32 145
v 27 -12 151
v 34 -10 153
v 31 4 154
v 25 -3 155
v 23 2 153
v 40 8 140
v 36 12 132
v 38 13 131
v 34 5 120
v 53 6 119
v 55 7 106
v 38 1 104
v 34 -23 115
v 35 -25 134
v 42 -21 146
v 51 -10 147
v 47 3 145
v 46 7 142
v 51 8 121
v 50 3 144
v 54 6 122
v 60 -4 118
v 58 -4 105
v 58 -3 92
v 53 5 92
v 40 1 92
v 40 -16 102
v 54 -20 115
v 51 -24 117
v 36 -25 117
v 37 -27 132
v 47 -23 136
v 52 -21 135
v 56 -11 145
v 61 -2 121
v 54 -8 146
v 41 0 84
v 45 -22 64
v 45 -13 87
v 43 -11 92
v 51 5 83
v 50 6 81
v 43 3 82
v 43 -1 64
v 53 7 42
v 53 -22 42
v 56 -23 50
v 46 -24 51
v 42 -35 51
v 51 -25 63
v 55 -22 68
v 53 -22 71
v 46 -22 68
v 46 -16 85
v 51 -13 87
v 53 -11 92
v 54 -16 103
v 58 -5 85
v 54 -12 85
v 59 -6 83
v 59 -6 68
v 60 -5 69
v 59 -4 83
v 62 -6 121
v 57 -19 119
v 46 -25 133
v 60 -5 63
v 62 -7 42
v 58 5 62
v 49 -34 46
v 49 -23 43
v 41 -22 46
v 36 -24 43
v 41 -24 37
v 60 -24 33
v 52 -23 35
v 48 -22 28
v 49 -23 20
v 49 4 20
v 60 -6 32
v 62 -22 42
v 60 9 33
v 62 7 42
v 55 3 68
v 57 2 69
v 54 4 82
v 53 4 70
v 44 2 66
v 48 4 28
v 37 -2 23
v 37 -23 23
v 51 4 34
v 57 -20 70
v 60 -7 70
v 50 -16 85

f 1 2 3
f 3 2 4
f 3 4 5
f 3 5 6
f 3 6 7
f 7 6 8
f 8 6 9
f 9 6 10
f 9 10 11
f 9 11 12
f 12 11 13
f 13 11 14
f 13 14 1
f 1 14 2
f 2 14 15
f 2 15 16
f 2 16 17
f 2 17 18
f 2 18 19
f 2 19 20
f 2 20 4
f 4 20 21
f 4 21 22
f 4 22 5
f 5 22 6
f 6 22 10
f 10 22 23
f 10 23 24
f 10 24 11
f 11 24 25
f 11 25 14
f 14 25 15
f 15 25 26
f 15 26 27
f 15 27 28
f 15 28 29
f 15 29 16
f 16 29 30
f 16 30 31
f 16 31 17
f 17 31 32
f 17 32 33
f 17 33 34
f 17 34 18
f 18 34 35
f 18 35 36
f 18 36 22
f 18 22 37
f 18 37 19
f 19 37 21
f 19 21 20
f 38 39 40
f 38 40 41
f 38 41 42
f 38 42 43
f 38 43 44
f 38 44 31
f 38 31 30
f 38 30 45
f 38 45 39
f 39 45 46
f 39 46 47
f 39 47 48
f 39 48 49
f 39 49 40
f 40 49 50
f 40 50 51
f 40 51 52
f 40 52 53
f 40 53 54
f 40 54 55
f 40 55 56
f 40 56 41
f 41 56 57
f 41 57 58
f 41 58 59
f 41 59 60
f 41 60 42
f 42 60 61
f 42 61 43
f 43 61 44
f 44 61 59
f 44 59 62
f 44 62 63
f 44 63 64
f 44 64 31
f 31 64 32
f 32 64 47
f 32 47 46
f 32 46 33
f 33 46 65
f 33 65 28
f 33 28 34
f 34 28 66
f 34 66 67
f 34 67 23
f 34 23 68
f 34 68 35
f 35 68 69
f 35 69 36
f 36 69 22
f 22 69 23
f 23 69 68
f 30 29 45
f 45 29 65
f 45 65 46
f 70 24 23
f 70 23 71
f 70 71 72
f 70 72 28
f 70 28 73
f 70 73 74
f 70 74 25
f 70 25 24
f 65 29 28
f 75 76 55
f 75 55 51
f 75 51 77
f 75 77 58
f 75 58 76
f 76 58 78
f 76 78 79
f 76 79 80
f 76 80 81
f 76 81 55
f 55 81 56
f 56 81 82
f 56 82 83
f 56 83 84
f 56 84 57
f 57 84 79
f 57 79 78
f 57 78 58
f 80 82 81
f 82 80 85
f 82 85 86
f 82 86 87
f 82 87 83
f 83 87 88
f 83 88 84
f 84 88 79
f 79 88 85
f 79 85 80
f 85 88 89
f 85 89 90
f 85 90 86
f 86 90 87
f 87 90 89
f 87 89 88
f 91 92 55
f 91 55 54
f 91 54 93
f 91 93 94
f 91 94 95
f 91 95 92
f 92 95 53
f 92 53 52
f 92 52 55
f 55 52 51
f 94 93 54
f 94 54 53
f 94 53 95
f 58 77 59
f 59 77 96
f 59 96 62
f 62 96 63
f 63 96 97
f 63 97 64
f 64 97 77
f 64 77 98
f 64 98 99
f 64 99 47
f 47 99 100
f 47 100 51
f 47 51 101
f 47 101 48
f 48 101 50
f 48 50 49
f 67 66 72
f 67 72 71
f 67 71 23
f 72 66 28
f 27 74 73
f 27 73 28
f 26 74 27
f 74 26 25
f 21 37 22
f 102 100 99
f 102 99 98
f 102 98 77
f 102 77 51
f 102 51 100
f 50 101 51
f 61 60 59
f 97 96 77
f 103 104 105
f 103 105 106
f 103 106 107
f 107 106 108
f 107 108 109
f 109 108 110
f 110 108 111
f 110 111 112
f 110 112 113
f 113 112 114
f 114 112 104
f 104 112 115
f 104 115 116
f 104 116 105
f 105 116 117
f 105 117 118
f 105 118 119
f 105 119 120
f 105 120 121
f 105 121 122
f 105 122 106
f 106 122 123
f 106 123 108
f 108 123 124
f 108 124 111
f 111 124 125
f 111 125 126
f 111 126 112
f 112 126 115
f 115 126 116
f 116 126 127
f 116 127 117
f 117 127 128
f 117 128 118
f 118 128 119
f 119 128 126
f 119 126 129
f 119 129 130
f 119 130 131
f 119 131 120
f 120 131 132
f 120 132 133
f 120 133 134
f 120 134 121
f 121 134 135
f 121 135 136
f 121 136 122
f 122 136 137
f 122 137 138
f 122 138 139
f 122 139 123
f 123 139 140
f 123 140 141
f 123 141 124
f 124 141 125
f 125 141 142
f 125 142 143
f 125 143 131
f 125 131 144
f 125 144 145
f 125 145 126
f 126 145 129
f 129 145 144
f 129 144 130
f 130 144 131
f 146 147 148
f 146 148 149
f 146 149 135
f 146 135 150
f 146 150 151
f 146 151 152
f 146 152 153
f 146 153 147
f 147 153 154
f 147 154 155
f 147 155 156
f 147 156 157
f 147 157 158
f 147 158 159
f 147 159 160
f 147 160 161
f 147 161 162
f 147 162 148
f 148 162 163
f 148 163 164
f 148 164 165
f 148 165 149
f 149 165 166
f 149 166 136
f 149 136 135
f 165 133 132
f 165 132 166
f 166 132 137
f 166 137 136
f 167 133 164
f 167 164 168
f 167 168 169
f 167 169 170
f 167 170 171
f 167 171 172
f 167 172 150
f 167 150 134
f 167 134 133
f 164 133 165
f 137 132 131
f 137 131 173
f 137 173 174
f 137 174 141
f 137 141 175
f 137 175 138
f 138 175 139
f 139 175 140
f 140 175 141
f 176 156 177
f 176 177 178
f 176 178 170
f 176 170 160
f 176 160 156
f 156 160 159
f 156 159 179
f 156 179 180
f 156 180 157
f 157 180 181
f 157 181 182
f 157 182 158
f 158 182 183
f 158 183 179
f 158 179 159
f 184 155 185
f 184 185 186
f 184 186 187
f 184 187 188
f 184 188 189
f 184 189 190
f 184 190 155
f 155 190 156
f 156 190 177
f 177 190 189
f 177 189 191
f 177 191 192
f 177 192 178
f 178 192 154
f 178 154 153
f 178 153 193
f 178 193 170
f 170 193 194
f 170 194 171
f 171 194 195
f 171 195 172
f 172 195 150
f 150 195 193
f 150 193 196
f 150 196 151
f 151 196 197
f 151 197 152
f 152 197 153
f 153 197 193
f 193 197 196
f 186 185 198
f 186 198 199
f 186 199 200
f 186 200 187
f 187 200 188
f 188 200 199
f 188 199 198
f 188 198 191
f 188 191 189
f 191 154 192
f 154 191 201
f 154 201 185
f 154 185 155
f 180 179 183
f 180 183 181
f 181 183 182
f 135 134 150
f 185 201 198
f 198 201 191
f 173 142 174
f 174 142 141
f 142 173 143
f 143 173 131
f 128 127 126
f 202 169 168
f 202 168 164
f 202 164 160
f 202 160 203
f 202 203 169
f 169 203 170
f 170 203 160
f 162 161 204
f 162 204 163
f 163 204 164
f 164 204 160
f 160 204 161
f 195 194 193
