# RS2 Model 16324
# Vertices: 110
# Faces: 196

v 24 -11 114
v 17 -17 89
v 20 -10 89
v 23 -8 91
v 26 -9 112
v 23 8 136
v 25 6 131
v 15 8 95
v 14 13 97
v 21 13 132
v 0 12 131
v 3 14 134
v 20 11 138
v 23 2 153
v 20 8 150
v 0 8 147
v 3 8 152
v 18 4 156
v 12 -1 159
v 25 -3 155
v 27 -12 151
v 15 -3 161
v 25 -13 157
v 25 -32 145
v 24 -30 151
v 10 -23 154
v 9 -28 152
v 21 -35 148
v 0 -36 144
v 25 -36 144
v 24 -35 131
v 28 -28 124
v 23 -30 118
v 24 -24 112
v 17 -20 94
v 6 -27 97
v 13 -19 90
v 0 -21 89
v 2 -24 90
v 2 -32 104
v 0 -35 115
v -2 -32 104
v -2 -24 90
v -13 -19 90
v -17 -17 89
v -6 -27 97
v -17 -20 94
v -24 -11 114
v -20 -10 89
v -26 -9 112
v -23 -8 91
v -15 8 95
v -19 6 96
v -23 8 136
v -21 13 132
v -14 13 97
v 0 8 99
v -2 13 101
v 2 15 127
v 2 13 101
v 0 -31 117
v 2 -35 115
v 7 -30 100
v 3 -37 142
v 2 -37 130
v 3 -34 118
v 0 -37 142
v -2 -37 130
v -3 -34 118
v -23 -30 118
v -2 -35 115
v 13 -22 156
v 2 -36 146
v 2 -31 151
v 0 -27 152
v 10 2 159
v 3 3 159
v 0 0 159
v -3 8 152
v -3 3 159
v -12 -1 159
v -10 2 159
v -23 2 153
v -25 -3 155
v -27 -12 151
v -25 -13 157
v -15 -3 161
v -10 -23 154
v -13 -22 156
v -25 -32 145
v -21 -35 148
v -9 -28 152
v -2 -31 151
v -2 -36 146
v -3 -37 142
v -24 -35 131
v -28 -28 124
v -24 -24 112
v -7 -30 100
v 3 11 145
v -3 14 134
v -3 11 145
v -18 4 156
v 19 6 96
v -25 -36 144
v -24 -30 151
v -20 11 138
v -20 8 150
v -2 15 127
v -25 6 131

f 1 2 3
f 1 3 4
f 1 4 5
f 1 5 6
f 6 5 7
f 6 7 8
f 6 8 9
f 6 9 10
f 6 10 11
f 6 11 12
f 6 12 13
f 6 13 14
f 14 13 15
f 14 15 16
f 14 16 17
f 14 17 18
f 14 18 19
f 14 19 20
f 20 19 21
f 21 19 22
f 21 22 23
f 21 23 24
f 24 23 25
f 24 25 26
f 24 26 27
f 24 27 28
f 24 28 29
f 24 29 30
f 24 30 31
f 24 31 32
f 32 31 33
f 32 33 1
f 1 33 34
f 1 34 35
f 1 35 2
f 2 35 36
f 2 36 37
f 2 37 38
f 38 37 39
f 38 39 40
f 38 40 41
f 38 41 42
f 38 42 43
f 38 43 44
f 38 44 45
f 45 44 46
f 45 46 47
f 45 47 48
f 45 48 49
f 49 48 50
f 49 50 51
f 49 51 52
f 52 51 53
f 52 53 54
f 52 54 55
f 52 55 56
f 52 56 57
f 57 56 58
f 57 58 11
f 57 11 59
f 57 59 60
f 57 60 8
f 8 60 9
f 9 60 59
f 9 59 10
f 10 59 11
f 33 61 62
f 33 62 34
f 34 62 63
f 34 63 35
f 35 63 36
f 36 63 41
f 36 41 40
f 36 40 39
f 36 39 37
f 29 64 30
f 30 64 31
f 31 64 65
f 31 65 66
f 31 66 33
f 33 66 61
f 61 66 65
f 61 65 67
f 61 67 68
f 61 68 69
f 61 69 70
f 61 70 71
f 61 71 41
f 61 41 62
f 62 41 63
f 29 67 64
f 64 67 65
f 72 25 22
f 72 22 19
f 72 19 26
f 72 26 25
f 25 23 22
f 73 28 27
f 73 27 74
f 73 74 75
f 73 75 29
f 73 29 28
f 74 27 26
f 74 26 75
f 76 18 17
f 76 17 77
f 76 77 78
f 76 78 19
f 76 19 18
f 77 17 16
f 77 16 78
f 78 16 79
f 78 79 80
f 78 80 81
f 81 80 82
f 81 82 83
f 81 83 84
f 81 84 85
f 81 85 86
f 81 86 87
f 81 87 88
f 88 87 89
f 88 89 90
f 88 90 91
f 88 91 92
f 88 92 75
f 75 92 93
f 75 93 29
f 29 93 94
f 29 94 90
f 29 90 95
f 29 95 67
f 67 95 68
f 68 95 96
f 68 96 69
f 69 96 70
f 70 96 97
f 70 97 48
f 70 48 98
f 70 98 71
f 71 98 99
f 71 99 46
f 71 46 41
f 41 46 42
f 42 46 43
f 43 46 44
f 13 12 100
f 13 100 15
f 15 100 16
f 16 100 11
f 16 11 101
f 16 101 102
f 16 102 83
f 16 83 103
f 16 103 79
f 79 103 82
f 79 82 80
f 100 12 11
f 4 104 7
f 4 7 5
f 104 4 3
f 104 3 8
f 104 8 7
f 95 90 105
f 95 105 96
f 96 105 90
f 96 90 97
f 46 99 47
f 47 99 98
f 47 98 48
f 89 87 106
f 89 106 90
f 90 106 85
f 85 106 86
f 86 106 87
f 94 92 91
f 94 91 90
f 93 92 94
f 82 103 83
f 101 107 108
f 101 108 102
f 102 108 83
f 83 108 54
f 54 108 107
f 54 107 11
f 54 11 109
f 54 109 55
f 55 109 58
f 55 58 56
f 107 101 11
f 58 109 11
f 53 51 50
f 53 50 110
f 53 110 54
f 54 110 48
f 48 110 50
