# RS2 Model 16351
# Vertices: 27
# Faces: 34

v 48 0 7
v 41 23 7
v 24 41 7
v 0 48 7
v -23 41 7
v -41 24 7
v -48 0 7
v -41 -23 7
v -24 -41 7
v 0 -48 7
v 23 -41 7
v 41 -24 7
v 48 0 0
v 41 23 0
v 24 41 0
v 0 48 0
v -23 41 0
v -41 24 0
v -48 0 0
v -41 -23 0
v -24 -41 0
v 0 -48 0
v 23 -41 0
v 41 -24 0
v 64 -2 7
v 2 64 7
v -2 -64 7

f 1 2 3
f 1 3 4
f 1 4 5
f 1 5 6
f 1 6 7
f 1 7 8
f 1 8 9
f 1 9 10
f 1 10 11
f 1 11 12
f 1 12 13
f 1 13 14
f 1 14 2
f 2 14 15
f 2 15 3
f 3 15 16
f 3 16 4
f 4 16 17
f 4 17 5
f 5 17 18
f 5 18 6
f 6 18 19
f 6 19 7
f 7 19 20
f 7 20 8
f 8 20 21
f 8 21 9
f 9 21 22
f 9 22 10
f 10 22 23
f 10 23 11
f 11 23 24
f 11 24 12
f 12 24 13
