# RS2 Model 16417
# Vertices: 204
# Faces: 384

v -5 -1 127
v 0 -4 127
v 0 -10 141
v -5 -8 142
v -6 0 127
v -5 0 110
v -4 -2 110
v 0 -4 110
v 5 -1 127
v 5 -8 142
v 5 -19 153
v 0 -20 152
v -5 -19 153
v -8 -18 154
v -7 -7 142
v -6 3 128
v -5 3 111
v -5 3 83
v -5 2 83
v -3 0 83
v 0 -2 83
v 4 -2 110
v 5 0 127
v 6 -7 142
v 7 -18 154
v 9 -19 154
v 8 -20 151
v 0 -21 150
v -8 -20 151
v -9 -19 154
v -8 -15 156
v -7 -4 145
v -5 4 128
v -4 4 111
v -3 5 83
v 3 0 83
v 5 0 110
v 5 3 128
v 6 -4 145
v 7 -15 156
v 9 -20 159
v 9 -22 159
v 9 -24 154
v 9 -24 151
v 0 -24 151
v -9 -24 151
v -9 -24 154
v -9 -22 159
v -9 -20 159
v -19 -15 156
v -21 -4 145
v -16 3 128
v -15 4 128
v -1 7 111
v -1 7 83
v 4 2 83
v 5 3 111
v 15 3 128
v 20 -4 145
v 18 -15 156
v 8 -16 163
v 9 -23 162
v 9 -23 160
v -8 -28 158
v 8 -28 158
v 8 -29 156
v 0 -29 153
v -8 -29 156
v -5 -36 159
v 5 -36 159
v 4 -39 155
v 0 -40 154
v -4 -39 155
v -2 -39 158
v 2 -39 158
v 1 -46 157
v -1 -46 157
v 4 3 83
v 4 4 111
v 15 4 128
v 19 -2 146
v 16 -14 161
v 5 -14 161
v 5 -20 163
v 7 -24 163
v 8 -26 159
v -9 -23 160
v -8 -16 163
v -16 -14 161
v -19 -2 146
v -1 8 128
v 1 7 111
v 1 7 83
v 1 8 128
v 5 4 128
v 5 -2 146
v 0 -13 160
v 0 -23 164
v 5 -24 164
v 5 -27 164
v 7 -27 161
v 4 -28 162
v 4 -26 163
v 7 -26 159
v 4 -30 162
v 5 -35 161
v -8 -26 159
v -9 -23 162
v -5 -20 163
v -5 -14 161
v -5 -2 146
v -1 0 146
v 3 5 83
v 1 0 146
v -5 -24 164
v -2 -26 163
v 0 -26 163
v 2 -26 163
v -4 -28 162
v 0 -40 162
v -7 -24 163
v -7 -26 159
v -7 -27 161
v -5 -27 164
v -5 -35 161
v -4 -30 162
v 2 -44 158
v -2 -44 158
v 0 -46 159
v -1 -46 158
v -2 -46 161
v -4 -44 160
v -1 -42 153
v -2 -42 158
v -4 -41 159
v -4 -39 159
v -3 -40 161
v -4 -26 163
v 1 -46 158
v 2 -46 161
v 0 -46 161
v -3 -43 162
v 1 -42 153
v 2 -42 158
v 4 -41 159
v 4 -44 160
v 4 -39 159
v 3 -43 162
v 3 -40 161
v 12 5 146
v 0 7 143
v 0 8 150
v 9 5 151
v 20 -4 153
v 0 -8 156
v -12 5 146
v -9 5 151
v -3 -1 160
v 0 0 160
v 3 -1 160
v 17 -3 158
v 20 -13 161
v 12 -21 168
v 0 -25 169
v -12 -21 168
v -20 -13 161
v -20 -4 153
v -17 -3 158
v -4 -3 161
v -5 -3 163
v -4 1 162
v 0 2 162
v 4 1 162
v 4 -3 161
v 17 -9 163
v 9 -17 169
v 0 -19 171
v -9 -17 169
v -17 -9 163
v -3 -6 164
v -4 -6 167
v -4 -3 170
v -5 0 166
v -4 4 165
v 0 5 164
v 4 4 165
v 5 -3 163
v 3 -6 164
v 0 -7 165
v 0 -7 167
v 0 -4 170
v 0 1 169
v 5 0 166
v 4 -6 167
v 4 -3 170
v -6 -35 185
v 39 -6 162
v -39 -2 157
v 26 27 124
v 48 -26 172
v -48 9 139
v -7 -18 181
v 17 -13 176
v -17 14 153

f 1 2 3
f 1 3 4
f 1 4 5
f 1 5 6
f 1 6 7
f 1 7 2
f 2 7 8
f 2 8 9
f 2 9 10
f 2 10 3
f 3 10 11
f 3 11 12
f 3 12 4
f 4 12 13
f 4 13 14
f 4 14 15
f 4 15 5
f 5 15 16
f 5 16 17
f 5 17 6
f 6 17 18
f 6 18 19
f 6 19 7
f 7 19 20
f 7 20 8
f 8 20 21
f 8 21 22
f 8 22 9
f 9 22 23
f 9 23 24
f 9 24 10
f 10 24 11
f 11 24 25
f 11 25 26
f 11 26 27
f 11 27 12
f 12 27 28
f 12 28 29
f 12 29 13
f 13 29 30
f 13 30 14
f 14 30 31
f 14 31 15
f 15 31 32
f 15 32 16
f 16 32 33
f 16 33 34
f 16 34 17
f 17 34 35
f 17 35 18
f 21 36 22
f 22 36 37
f 22 37 23
f 23 37 38
f 23 38 39
f 23 39 24
f 24 39 25
f 25 39 40
f 25 40 41
f 25 41 26
f 26 41 42
f 26 42 43
f 26 43 44
f 26 44 27
f 27 44 45
f 27 45 28
f 28 45 46
f 28 46 29
f 29 46 47
f 29 47 30
f 30 47 48
f 30 48 49
f 30 49 31
f 31 49 50
f 31 50 32
f 32 50 51
f 32 51 16
f 16 51 52
f 16 52 17
f 17 52 34
f 34 52 53
f 34 53 33
f 34 33 54
f 34 54 55
f 34 55 35
f 36 56 37
f 37 56 57
f 37 57 38
f 38 57 58
f 38 58 39
f 39 58 59
f 39 59 40
f 40 59 60
f 40 60 41
f 41 60 61
f 41 61 62
f 41 62 63
f 41 63 49
f 41 49 48
f 41 48 42
f 42 48 64
f 42 64 65
f 42 65 66
f 42 66 43
f 43 66 44
f 44 66 67
f 44 67 45
f 45 67 68
f 45 68 46
f 46 68 47
f 47 68 48
f 48 68 64
f 64 68 69
f 64 69 65
f 65 69 70
f 65 70 66
f 66 70 71
f 66 71 72
f 66 72 67
f 67 72 68
f 68 72 73
f 68 73 69
f 69 73 74
f 69 74 70
f 70 74 75
f 70 75 71
f 71 75 72
f 72 75 76
f 72 76 77
f 72 77 74
f 72 74 73
f 56 78 57
f 57 78 79
f 57 79 80
f 57 80 58
f 58 80 81
f 58 81 59
f 59 81 82
f 59 82 60
f 60 82 61
f 61 82 83
f 61 83 84
f 61 84 62
f 62 84 85
f 62 85 86
f 62 86 63
f 63 86 87
f 63 87 49
f 49 87 88
f 49 88 89
f 49 89 50
f 50 89 90
f 50 90 51
f 51 90 53
f 51 53 52
f 54 33 91
f 54 91 92
f 54 92 93
f 54 93 55
f 79 92 94
f 79 94 95
f 79 95 80
f 80 95 81
f 81 95 96
f 81 96 82
f 82 96 83
f 83 96 97
f 83 97 98
f 83 98 84
f 84 98 99
f 84 99 85
f 85 99 100
f 85 100 101
f 85 101 99
f 99 101 102
f 99 102 103
f 99 103 100
f 100 103 102
f 100 102 101
f 101 102 104
f 101 104 85
f 85 104 86
f 86 104 105
f 86 105 106
f 86 106 107
f 86 107 87
f 87 107 108
f 87 108 88
f 88 108 109
f 88 109 110
f 88 110 89
f 89 110 90
f 90 110 111
f 90 111 53
f 53 111 33
f 33 111 91
f 91 111 112
f 91 112 94
f 91 94 92
f 78 113 79
f 79 113 92
f 92 113 93
f 33 32 111
f 111 32 31
f 111 31 110
f 111 110 112
f 112 110 97
f 112 97 114
f 112 114 94
f 94 114 95
f 95 114 96
f 96 114 97
f 97 110 98
f 98 110 109
f 98 109 115
f 98 115 116
f 98 116 117
f 98 117 118
f 98 118 99
f 99 118 103
f 103 118 102
f 102 118 117
f 102 117 119
f 102 119 120
f 102 120 105
f 102 105 104
f 121 109 108
f 121 108 122
f 121 122 123
f 121 123 124
f 121 124 115
f 121 115 109
f 28 3 12
f 28 12 3
f 107 106 125
f 107 125 126
f 107 126 122
f 107 122 108
f 125 106 127
f 125 127 128
f 128 127 129
f 128 129 130
f 128 130 131
f 128 131 132
f 128 132 133
f 128 133 134
f 134 133 135
f 135 133 132
f 135 132 136
f 135 136 125
f 125 136 126
f 126 136 137
f 126 137 119
f 126 119 122
f 122 119 123
f 123 119 124
f 124 119 138
f 124 138 115
f 115 138 116
f 116 138 119
f 116 119 117
f 139 129 127
f 139 127 140
f 139 140 141
f 139 141 129
f 129 141 130
f 130 141 131
f 131 141 142
f 131 142 136
f 131 136 132
f 143 127 144
f 143 144 145
f 143 145 146
f 143 146 127
f 127 146 140
f 140 146 147
f 140 147 148
f 140 148 141
f 141 148 142
f 142 148 120
f 142 120 137
f 142 137 136
f 137 120 119
f 105 120 149
f 105 149 106
f 106 149 147
f 106 147 145
f 145 147 146
f 149 120 148
f 149 148 147
f 138 119 123
f 138 123 121
f 138 121 115
f 77 76 75
f 77 75 74
f 150 151 152
f 150 152 153
f 150 153 154
f 150 154 155
f 150 155 151
f 151 155 156
f 151 156 157
f 151 157 152
f 152 157 158
f 152 158 159
f 152 159 153
f 153 159 160
f 153 160 161
f 153 161 154
f 154 161 162
f 154 162 155
f 155 162 163
f 155 163 164
f 155 164 165
f 155 165 166
f 155 166 167
f 155 167 156
f 156 167 168
f 156 168 157
f 157 168 169
f 157 169 158
f 158 169 170
f 158 170 171
f 158 171 159
f 159 171 172
f 159 172 160
f 160 172 173
f 160 173 174
f 160 174 161
f 161 174 175
f 161 175 162
f 162 175 163
f 163 175 176
f 163 176 164
f 164 176 177
f 164 177 165
f 165 177 178
f 165 178 166
f 166 178 179
f 166 179 167
f 167 179 168
f 168 179 169
f 169 179 180
f 169 180 181
f 169 181 170
f 170 181 182
f 170 182 183
f 170 183 171
f 171 183 184
f 171 184 172
f 172 184 185
f 172 185 173
f 173 185 186
f 173 186 187
f 173 187 174
f 174 187 188
f 174 188 176
f 174 176 175
f 179 178 180
f 180 178 189
f 180 189 190
f 180 190 181
f 181 190 191
f 181 191 182
f 182 191 192
f 182 192 183
f 183 192 184
f 184 192 185
f 185 192 186
f 186 192 193
f 186 193 187
f 187 193 194
f 187 194 188
f 188 194 189
f 188 189 177
f 188 177 176
f 178 177 189
f 189 194 190
f 190 194 195
f 190 195 191
f 191 195 192
f 192 195 193
f 193 195 194
f 196 197 198
