# RS2 Model 16443
# Vertices: 179
# Faces: 292

v -10 -42 -14
v -9 -41 -15
v 0 -41 -16
v -3 -44 -13
v -3 -44 -11
v -8 -44 -2
v -26 -33 -13
v -13 -41 -14
v -9 -42 -17
v 0 -43 -19
v 9 -42 -17
v 9 -41 -15
v 10 -42 -14
v 3 -44 -13
v 3 -44 -11
v 4 -44 -2
v -4 -44 -2
v -7 -47 -2
v -9 -47 2
v -9 -44 2
v -16 -44 14
v -29 -40 6
v -36 -20 9
v -38 -12 2
v -38 -4 -2
v -16 -10 -32
v -7 -37 -31
v 13 -41 -14
v 26 -33 -13
v 8 -44 -2
v 44 -8 18
v 44 8 14
v 44 4 22
v 40 4 22
v 40 -8 18
v 40 -8 10
v 38 -12 2
v 38 -4 -2
v 40 8 14
v 28 40 38
v 37 0 54
v 42 -27 27
v 40 -27 9
v 16 -10 -32
v 27 16 -14
v 17 24 -21
v -17 24 -21
v -29 40 38
v 0 32 58
v 18 8 72
v 25 -40 56
v 26 -49 40
v 26 -55 25
v 35 -43 19
v 22 -59 12
v -44 4 22
v -44 8 14
v -44 -8 18
v -40 4 22
v -40 8 14
v -40 -8 10
v -40 -8 18
v -37 0 54
v -28 16 -14
v -26 31 -51
v -21 2 -54
v -3 -14 -54
v 6 -37 -31
v 14 -46 26
v 15 -46 19
v 22 -44 21
v 21 -44 23
v 13 -44 30
v 7 -44 24
v 6 -44 22
v 16 -44 14
v 29 -40 6
v 29 -40 23
v 12 -48 22
v 2 -44 22
v 6 -44 5
v 9 -44 2
v -21 -44 23
v -22 -44 21
v -15 -46 19
v -14 -46 26
v -13 -44 30
v -29 -44 30
v -27 -37 23
v -12 -48 22
v -7 -44 24
v 0 -48 32
v -9 -50 32
v -16 -50 36
v -26 -48 32
v -26 -48 36
v -28 -44 30
v -6 -44 22
v -2 -44 22
v 0 -48 22
v 9 -50 32
v 2 -50 35
v -2 -50 35
v -16 -50 38
v 26 31 -51
v 22 2 -54
v 3 -14 -54
v 6 40 -50
v -6 40 -50
v 8 -47 -2
v 9 -47 2
v 7 -50 -2
v 1 -52 -2
v 3 -54 0
v -1 -52 -2
v -1 -49 -2
v 1 -49 -2
v -13 -46 24
v -15 -46 24
v -16 -46 23
v -16 -46 21
v -15 -46 20
v -13 -46 20
v -12 -46 21
v -12 -46 23
v -13 -46 25
v -15 -46 25
v -17 -46 23
v -17 -46 21
v -13 -46 19
v -11 -46 21
v -11 -46 23
v 11 -46 23
v 11 -46 21
v 13 -46 19
v 17 -46 21
v 17 -46 23
v 15 -46 25
v 13 -46 25
v 12 -46 23
v 12 -46 21
v 13 -46 20
v 15 -46 20
v 16 -46 21
v 16 -46 23
v 15 -46 24
v 13 -46 24
v 15 -50 35
v 29 -44 30
v 26 -48 32
v 16 -50 38
v 6 -50 37
v -6 -50 -2
v -7 -50 2
v -1 -55 5
v -6 -47 5
v -6 -44 5
v -40 -33 27
v -3 -54 0
v 1 -55 5
v 0 -50 12
v 8 -50 2
v 6 -47 5
v 0 -32 68
v 0 -48 52
v 2 -55 36
v -2 -58 28
v 12 -55 25
v -12 -59 19
v -18 8 72
v -25 -40 56
v -28 -51 34
v -8 -53 30
v -31 -49 18
v -22 -51 16
v -42 -43 7
v -39 -39 15
v -6 -50 37
v 26 -48 36

f 1 2 3
f 1 3 4
f 1 4 5
f 1 5 6
f 1 6 7
f 1 7 8
f 1 8 2
f 2 8 9
f 2 9 3
f 3 9 10
f 3 10 11
f 3 11 12
f 3 12 13
f 3 13 14
f 3 14 4
f 4 14 15
f 4 15 5
f 5 15 16
f 5 16 17
f 5 17 6
f 6 17 18
f 6 18 19
f 6 19 20
f 6 20 21
f 6 21 22
f 6 22 7
f 7 22 23
f 7 23 24
f 7 24 25
f 7 25 26
f 7 26 27
f 7 27 9
f 7 9 8
f 28 13 12
f 28 12 11
f 28 11 29
f 28 29 13
f 13 29 30
f 13 30 15
f 13 15 14
f 31 32 33
f 31 33 34
f 31 34 35
f 31 35 36
f 31 36 32
f 32 36 37
f 32 37 38
f 32 38 39
f 32 39 33
f 33 39 34
f 34 39 40
f 34 40 41
f 34 41 35
f 35 41 42
f 35 42 43
f 35 43 36
f 36 43 37
f 37 43 29
f 37 29 44
f 37 44 38
f 38 44 45
f 38 45 39
f 39 45 40
f 40 45 46
f 40 46 47
f 40 47 48
f 40 48 49
f 40 49 50
f 40 50 41
f 41 50 51
f 41 51 42
f 42 51 52
f 42 52 53
f 42 53 54
f 54 53 55
f 56 57 58
f 56 58 59
f 56 59 60
f 56 60 57
f 57 60 25
f 57 25 24
f 57 24 61
f 57 61 58
f 58 61 62
f 58 62 59
f 59 62 63
f 59 63 48
f 59 48 60
f 60 48 64
f 60 64 25
f 25 64 26
f 26 64 47
f 26 47 65
f 26 65 66
f 26 66 67
f 26 67 44
f 26 44 27
f 27 44 68
f 27 68 10
f 27 10 9
f 69 70 71
f 69 71 72
f 69 72 73
f 69 73 74
f 69 74 70
f 70 74 75
f 70 75 76
f 70 76 71
f 71 76 77
f 71 77 43
f 71 43 78
f 71 78 72
f 71 72 79
f 79 72 69
f 79 69 74
f 79 74 75
f 75 74 80
f 75 80 76
f 76 80 81
f 76 81 82
f 76 82 30
f 76 30 77
f 77 30 29
f 77 29 43
f 83 84 85
f 83 85 86
f 83 86 87
f 83 87 88
f 83 88 89
f 83 89 84
f 83 84 90
f 83 90 86
f 86 90 91
f 86 91 87
f 87 91 92
f 87 92 93
f 87 93 94
f 87 94 88
f 88 94 95
f 95 94 96
f 95 96 97
f 86 85 98
f 86 98 91
f 91 98 99
f 91 99 92
f 92 99 100
f 92 100 80
f 92 80 74
f 92 74 73
f 92 73 101
f 92 101 102
f 92 102 103
f 92 103 93
f 93 103 104
f 93 104 94
f 94 104 96
f 105 46 44
f 105 44 106
f 106 44 107
f 107 44 67
f 46 108 109
f 46 109 47
f 47 109 65
f 105 108 46
f 98 91 90
f 30 16 15
f 16 30 110
f 110 30 82
f 110 82 111
f 110 111 112
f 110 112 113
f 113 112 114
f 113 114 115
f 113 115 116
f 113 116 117
f 117 116 17
f 117 17 16
f 11 10 68
f 11 68 29
f 29 68 44
f 118 119 120
f 118 120 121
f 118 121 122
f 118 122 123
f 118 123 124
f 118 124 125
f 126 127 128
f 126 128 129
f 126 129 85
f 126 85 130
f 126 130 131
f 126 131 132
f 133 134 135
f 133 135 70
f 133 70 136
f 133 136 137
f 133 137 138
f 133 138 139
f 140 141 142
f 140 142 143
f 140 143 144
f 140 144 145
f 140 145 146
f 140 146 147
f 148 149 150
f 148 150 151
f 148 151 152
f 148 152 101
f 148 101 73
f 148 73 149
f 149 73 72
f 149 72 78
f 149 78 42
f 42 78 43
f 18 115 153
f 18 153 19
f 19 153 154
f 19 154 155
f 19 155 156
f 19 156 20
f 20 156 157
f 20 157 21
f 21 157 99
f 21 99 98
f 21 98 85
f 21 85 84
f 21 84 22
f 22 84 89
f 22 89 158
f 22 158 23
f 23 158 62
f 23 62 61
f 23 61 24
f 115 114 159
f 115 159 153
f 153 159 154
f 154 159 155
f 155 159 160
f 155 160 161
f 155 161 156
f 156 161 99
f 156 99 157
f 159 114 160
f 160 114 162
f 160 162 163
f 160 163 161
f 161 163 80
f 161 80 100
f 161 100 99
f 81 163 111
f 81 111 82
f 111 162 112
f 112 162 114
f 163 162 111
f 163 81 80
f 45 44 46
f 51 164 165
f 51 165 166
f 51 166 52
f 52 166 167
f 52 167 168
f 168 167 169
f 164 51 50
f 164 50 170
f 164 170 171
f 164 171 165
f 165 171 172
f 165 172 173
f 173 172 174
f 173 174 175
f 175 174 176
f 176 174 177
f 177 174 172
f 177 172 158
f 158 172 171
f 158 171 63
f 158 63 62
f 170 50 49
f 170 49 48
f 170 48 63
f 170 63 171
f 48 47 64
f 152 102 101
f 102 152 178
f 102 178 103
f 103 178 104
f 151 150 179
f 151 179 52
f 52 179 149
f 52 149 53
f 149 179 150
f 178 152 165
