# RS2 Model 16453
# Vertices: 169
# Faces: 308

v 3 6 170
v 0 -3 169
v 4 5 166
v 7 8 169
v 7 7 173
v 8 1 175
v 4 0 171
v 4 -6 171
v 0 -9 169
v -4 -6 171
v -4 0 171
v -3 6 170
v -4 5 166
v 0 0 163
v 3 -10 180
v 6 -10 181
v 3 -10 183
v 1 -10 181
v 3 -10 179
v 6 -7 177
v 6 -9 184
v 3 -11 184
v 0 -12 184
v 0 -10 181
v 1 -10 176
v 3 -8 172
v 7 -5 180
v 10 0 186
v 6 -9 187
v 6 -6 191
v 3 -11 188
v 9 -10 182
v 6 -11 185
v 5 -11 185
v 8 -12 181
v 9 -11 180
v 8 -11 180
v 6 -10 178
v 7 -10 178
v 7 -10 176
v 8 -10 176
v 6 -10 174
v 7 -10 174
v 7 -11 171
v 7 -13 173
v 6 -13 173
v 7 -12 176
v 8 -12 176
v 6 -14 178
v 7 -14 178
v 7 -12 180
v 7 -12 182
v 0 -11 187
v -3 -11 188
v -3 -11 184
v -1 -10 181
v -1 -10 176
v 0 -12 177
v 0 -10 176
v 0 -9 172
v -8 -2 178
v -8 -1 178
v -8 -1 176
v -7 -5 180
v -10 0 186
v -8 -1 180
v -9 -1 180
v -9 4 179
v -8 1 175
v 8 -1 176
v 8 -1 178
v 8 -2 178
v 9 4 179
v 9 -1 180
v 8 -1 180
v 9 3 181
v 8 3 181
v 11 6 182
v 8 6 184
v 9 9 186
v 7 5 193
v -1 -4 194
v 0 -11 191
v -6 -6 191
v -6 -9 187
v -9 -10 182
v -6 -11 185
v -5 -11 185
v -6 -9 184
v -6 -10 181
v -3 -10 183
v -3 -10 180
v -3 -10 179
v -6 -7 177
v -3 -8 172
v 8 4 179
v 11 8 179
v 8 8 181
v 6 12 180
v 4 10 182
v 6 9 186
v 6 9 190
v 0 10 192
v 0 7 195
v -9 3 181
v -8 3 181
v -8 4 179
v -7 7 173
v -11 6 182
v -11 7 179
v -9 9 176
v -5 11 174
v -5 9 172
v -4 13 171
v -6 8 169
v -9 12 169
v -8 12 167
v -6 14 166
v -3 14 165
v 0 10 167
v 0 13 166
v 3 14 165
v 6 14 166
v 9 12 167
v 8 12 169
v 4 13 171
v 5 8 171
v 5 11 173
v 9 9 176
v -7 5 193
v -6 9 190
v -9 9 186
v -8 6 184
v -8 7 181
v -6 9 178
v 0 11 173
v 0 9 171
v 0 9 168
v 0 13 168
v -5 14 167
v -4 10 182
v 0 11 181
v 0 13 177
v -6 11 180
v -6 9 186
v -4 13 184
v 0 15 183
v 6 9 178
v 0 9 175
v 4 13 184
v 5 14 167
v -9 -10 180
v -8 -12 181
v -8 -10 180
v -7 -11 178
v -7 -14 178
v -6 -14 178
v -7 -12 180
v -7 -12 182
v -8 -10 176
v -8 -12 176
v -6 -11 178
v -7 -10 176
v -7 -10 174
v -7 -13 173
v -6 -13 173
v -7 -12 176
v -8 -11 171
v -6 -10 174

f 1 2 3
f 1 3 4
f 1 4 5
f 1 5 6
f 1 6 7
f 1 7 2
f 2 7 8
f 2 8 9
f 2 9 10
f 2 10 11
f 2 11 12
f 2 12 13
f 2 13 14
f 2 14 3
f 15 16 17
f 15 17 18
f 15 18 19
f 15 19 16
f 16 19 20
f 16 20 21
f 16 21 22
f 16 22 17
f 17 22 18
f 18 22 23
f 18 23 24
f 18 24 25
f 18 25 19
f 19 25 20
f 20 25 26
f 20 26 8
f 20 8 27
f 20 27 21
f 21 27 28
f 21 28 29
f 29 28 30
f 29 30 31
f 29 31 32
f 32 31 33
f 32 33 34
f 32 34 35
f 32 35 36
f 32 36 37
f 37 36 38
f 38 36 39
f 38 39 40
f 40 39 41
f 40 41 42
f 42 41 43
f 42 43 44
f 44 43 45
f 44 45 46
f 46 45 47
f 47 45 48
f 47 48 49
f 49 48 50
f 49 50 51
f 51 50 35
f 51 35 52
f 52 35 34
f 23 31 53
f 23 53 54
f 23 54 55
f 23 55 56
f 23 56 24
f 24 56 57
f 24 57 58
f 24 58 25
f 25 58 59
f 25 59 60
f 25 60 26
f 26 60 9
f 26 9 8
f 61 62 63
f 61 63 10
f 61 10 64
f 61 64 65
f 61 65 66
f 61 66 62
f 62 66 67
f 62 67 68
f 62 68 63
f 63 68 69
f 63 69 11
f 63 11 10
f 70 71 72
f 70 72 8
f 70 8 7
f 70 7 6
f 70 6 73
f 70 73 71
f 71 73 74
f 71 74 75
f 71 75 72
f 72 75 28
f 72 28 27
f 72 27 8
f 74 73 76
f 74 76 77
f 74 77 75
f 75 77 28
f 28 77 78
f 28 78 79
f 28 79 80
f 28 80 81
f 28 81 30
f 30 81 82
f 30 82 83
f 30 83 31
f 31 83 53
f 53 83 54
f 54 83 84
f 54 84 85
f 54 85 86
f 54 86 87
f 54 87 88
f 54 88 55
f 55 88 89
f 55 89 90
f 55 90 91
f 55 91 56
f 56 91 92
f 56 92 93
f 56 93 57
f 57 93 94
f 57 94 95
f 57 95 60
f 57 60 59
f 57 59 58
f 6 96 73
f 73 96 76
f 76 96 77
f 77 96 78
f 78 96 97
f 78 97 98
f 78 98 79
f 79 98 80
f 80 98 99
f 80 99 100
f 80 100 101
f 80 101 102
f 80 102 81
f 81 102 103
f 81 103 104
f 81 104 82
f 82 104 84
f 82 84 83
f 105 68 67
f 105 67 106
f 105 106 107
f 105 107 68
f 68 107 69
f 69 107 108
f 69 108 12
f 69 12 11
f 67 66 106
f 106 66 65
f 106 65 109
f 106 109 107
f 107 109 110
f 107 110 111
f 107 111 108
f 108 111 112
f 108 112 113
f 108 113 114
f 108 114 115
f 108 115 12
f 12 115 13
f 13 115 116
f 13 116 117
f 13 117 118
f 13 118 119
f 13 119 120
f 120 119 121
f 120 121 122
f 120 122 3
f 3 122 123
f 3 123 124
f 3 124 125
f 3 125 4
f 4 125 126
f 4 126 127
f 4 127 5
f 5 127 128
f 5 128 129
f 5 129 96
f 5 96 6
f 10 95 94
f 10 94 64
f 64 94 90
f 64 90 89
f 64 89 65
f 65 89 85
f 65 85 84
f 65 84 130
f 65 130 131
f 65 131 132
f 65 132 133
f 65 133 109
f 109 133 134
f 109 134 110
f 110 134 135
f 110 135 111
f 111 135 112
f 112 135 136
f 112 136 113
f 113 136 137
f 113 137 114
f 114 137 138
f 114 138 139
f 114 139 140
f 114 140 116
f 114 116 115
f 90 93 92
f 90 92 91
f 93 90 94
f 22 31 23
f 31 22 34
f 31 34 33
f 141 142 143
f 141 143 144
f 141 144 145
f 141 145 146
f 141 146 142
f 142 146 147
f 142 147 100
f 142 100 99
f 142 99 143
f 143 99 148
f 143 148 149
f 143 149 144
f 144 149 135
f 144 135 134
f 144 134 132
f 144 132 145
f 145 132 131
f 145 131 103
f 145 103 146
f 146 103 147
f 147 103 150
f 147 150 100
f 100 150 103
f 100 103 101
f 101 103 102
f 133 132 134
f 128 136 149
f 128 149 148
f 128 148 129
f 129 148 97
f 129 97 96
f 127 137 136
f 127 136 128
f 98 148 99
f 148 98 97
f 130 104 103
f 130 103 131
f 137 127 126
f 137 126 138
f 138 126 151
f 138 151 139
f 139 151 122
f 139 122 121
f 139 121 140
f 140 121 119
f 140 119 118
f 140 118 117
f 140 117 116
f 151 123 122
f 123 151 124
f 124 151 125
f 125 151 126
f 152 153 86
f 152 86 154
f 152 154 155
f 152 155 156
f 152 156 153
f 153 156 157
f 153 157 158
f 153 158 159
f 153 159 86
f 86 159 87
f 87 159 88
f 160 161 156
f 160 156 155
f 160 155 162
f 160 162 163
f 160 163 164
f 160 164 161
f 161 164 165
f 161 165 166
f 161 166 167
f 161 167 156
f 156 167 157
f 164 168 165
f 165 168 166
f 36 35 50
f 36 50 39
f 39 50 48
f 39 48 41
f 41 48 45
f 41 45 43
f 21 34 22
f 84 104 130
f 10 9 95
f 95 9 60
f 154 162 155
f 163 169 164
f 164 169 168
f 135 149 136
