# RS2 Model 16480
# Vertices: 91
# Faces: 160

v 4 -15 183
v 7 -11 185
v 4 -13 186
v 0 -14 187
v 0 -16 183
v 0 -14 181
v 5 -13 181
v 10 -8 181
v 9 -11 186
v 6 -14 188
v 0 -17 190
v -6 -14 188
v -4 -13 186
v -4 -15 183
v -5 -14 181
v -6 -13 179
v -3 -19 179
v 0 -21 179
v 3 -19 179
v 6 -13 179
v 8 -11 176
v 9 -5 176
v 10 -3 177
v 13 2 180
v 12 -3 189
v 0 -12 191
v -12 -3 189
v -9 -11 186
v -7 -11 185
v -10 -8 181
v -8 -11 176
v -3 -19 174
v 3 -19 174
v 6 -9 169
v 8 -11 169
v 11 -6 163
v 12 -5 168
v 8 6 167
v 8 10 176
v 8 10 184
v 7 -4 194
v 0 -4 196
v -7 -4 194
v -8 10 184
v -13 2 180
v 3 12 187
v 0 10 191
v 0 6 195
v -3 12 187
v -3 13 183
v -3 12 174
v -8 10 175
v -12 -5 168
v -10 -3 177
v -9 -5 176
v -8 -11 169
v -6 -9 169
v -4 -11 166
v 0 -14 165
v 4 -11 166
v 3 -7 165
v 5 5 170
v 8 1 165
v 0 9 165
v 0 5 170
v -5 5 170
v -8 1 165
v -3 -7 165
v 0 -7 165
v 0 -6 160
v 11 -15 161
v 14 2 164
v 13 -8 161
v 11 7 163
v 6 12 161
v 3 9 167
v 3 12 174
v 3 13 183
v 0 12 164
v 0 15 159
v -6 12 161
v -8 6 167
v -3 9 167
v -11 -15 161
v -11 -6 163
v -14 2 164
v -13 -8 161
v -11 7 163
v -18 -8 184
v -16 -8 168
v 16 -8 184

f 1 2 3
f 1 3 4
f 1 4 5
f 1 5 6
f 1 6 7
f 1 7 8
f 1 8 2
f 2 8 9
f 2 9 10
f 2 10 3
f 3 10 4
f 4 10 11
f 4 11 12
f 4 12 13
f 4 13 14
f 4 14 5
f 5 14 6
f 6 14 15
f 6 15 16
f 6 16 17
f 6 17 18
f 6 18 19
f 6 19 20
f 6 20 7
f 7 20 8
f 8 20 21
f 8 21 22
f 8 22 23
f 8 23 24
f 8 24 25
f 8 25 9
f 9 25 10
f 10 25 26
f 10 26 11
f 11 26 12
f 12 26 27
f 12 27 28
f 12 28 29
f 12 29 13
f 13 29 14
f 14 29 30
f 14 30 15
f 15 30 16
f 16 30 31
f 16 31 17
f 17 31 32
f 17 32 18
f 18 32 33
f 18 33 19
f 19 33 21
f 19 21 20
f 21 33 34
f 21 34 35
f 21 35 22
f 22 35 36
f 22 36 37
f 22 37 23
f 23 37 24
f 24 37 38
f 24 38 39
f 24 39 40
f 24 40 25
f 25 40 41
f 25 41 26
f 26 41 42
f 26 42 43
f 26 43 27
f 27 43 44
f 27 44 45
f 27 45 30
f 27 30 28
f 28 30 29
f 40 46 47
f 40 47 48
f 40 48 41
f 41 48 42
f 42 48 43
f 43 48 44
f 44 48 49
f 44 49 50
f 44 50 51
f 44 51 52
f 44 52 45
f 45 52 53
f 45 53 54
f 45 54 30
f 30 54 55
f 30 55 31
f 31 55 56
f 31 56 57
f 31 57 32
f 32 57 58
f 32 58 59
f 32 59 33
f 33 59 60
f 33 60 34
f 34 60 61
f 34 61 62
f 62 61 63
f 62 63 64
f 62 64 65
f 65 64 66
f 66 64 67
f 66 67 68
f 66 68 57
f 57 68 58
f 58 68 59
f 59 68 69
f 59 69 61
f 59 61 60
f 61 69 70
f 61 70 63
f 34 71 35
f 35 71 36
f 36 71 34
f 36 34 72
f 36 72 73
f 36 73 37
f 37 73 72
f 37 72 38
f 38 72 74
f 38 74 75
f 38 75 76
f 38 76 39
f 39 76 77
f 39 77 40
f 40 77 78
f 40 78 46
f 46 78 49
f 46 49 47
f 47 49 48
f 79 75 80
f 79 80 81
f 79 81 82
f 79 82 83
f 79 83 76
f 79 76 75
f 56 84 57
f 57 84 85
f 57 85 86
f 86 85 87
f 86 87 53
f 86 53 82
f 86 82 88
f 88 82 81
f 53 87 85
f 53 85 55
f 53 55 54
f 56 55 85
f 56 85 84
f 52 82 53
f 82 52 83
f 83 52 51
f 83 51 76
f 76 51 77
f 77 51 50
f 77 50 78
f 78 50 49
f 70 69 68
f 70 68 67
