# RS2 Model 16484
# Vertices: 70
# Faces: 124

v -9 10 121
v -10 11 125
v 0 12 125
v 0 11 119
v -9 9 119
v -16 3 125
v -13 12 135
v 0 14 137
v 13 12 135
v 10 11 125
v 9 10 121
v 9 9 119
v 9 8 113
v 0 10 113
v -9 8 113
v -16 2 119
v -12 -11 119
v -12 -12 125
v -17 3 134
v -16 12 142
v -13 13 146
v 0 14 146
v 11 13 147
v 16 12 143
v 17 3 134
v 16 3 125
v 16 2 119
v 16 0 112
v 12 -11 119
v 12 -11 112
v 4 -15 119
v 0 -14 111
v 0 -16 119
v -4 -15 119
v -10 -11 112
v -16 0 112
v -10 11 158
v -19 10 155
v -19 2 160
v -8 1 165
v 0 13 159
v -18 2 142
v -15 -13 142
v -17 -9 153
v -7 -15 145
v -10 -10 155
v 0 -6 160
v -8 -14 125
v 0 -16 125
v 0 -16 135
v -13 -13 134
v -5 -15 138
v 0 -17 142
v 0 -16 145
v 0 -13 152
v 11 -10 154
v 19 2 160
v 8 1 165
v 10 11 158
v 0 9 165
v 8 -14 125
v 13 -13 134
v 0 -16 138
v 12 -12 125
v 5 -15 138
v 15 -13 142
v 8 -15 145
v 17 -9 153
v 18 2 142
v 19 10 155

f 1 2 3
f 1 3 4
f 1 4 5
f 1 5 6
f 1 6 2
f 2 6 7
f 2 7 3
f 3 7 8
f 3 8 9
f 3 9 10
f 3 10 11
f 3 11 4
f 4 11 12
f 4 12 13
f 4 13 14
f 4 14 15
f 4 15 5
f 5 15 16
f 5 16 6
f 6 16 17
f 6 17 18
f 6 18 19
f 6 19 7
f 7 19 20
f 7 20 21
f 7 21 8
f 8 21 22
f 8 22 23
f 8 23 9
f 9 23 24
f 9 24 25
f 9 25 26
f 9 26 10
f 10 26 11
f 11 26 12
f 12 26 27
f 12 27 13
f 13 27 28
f 28 27 29
f 28 29 30
f 30 29 31
f 30 31 32
f 32 31 33
f 32 33 34
f 32 34 35
f 35 34 17
f 35 17 36
f 36 17 16
f 36 16 15
f 37 38 39
f 37 39 40
f 37 40 41
f 37 41 22
f 37 22 21
f 37 21 38
f 38 21 20
f 38 20 42
f 42 20 19
f 42 19 43
f 42 43 44
f 44 43 45
f 44 45 46
f 44 46 39
f 39 46 47
f 39 47 40
f 48 18 17
f 48 17 34
f 48 34 49
f 48 49 50
f 48 50 51
f 48 51 18
f 18 51 19
f 19 51 43
f 43 51 52
f 43 52 53
f 43 53 45
f 45 53 54
f 45 54 55
f 45 55 46
f 46 55 47
f 47 55 56
f 47 56 57
f 47 57 58
f 58 57 59
f 58 59 41
f 58 41 60
f 60 41 40
f 49 33 31
f 49 31 61
f 49 61 50
f 50 61 62
f 50 62 63
f 50 63 52
f 50 52 51
f 26 64 29
f 26 29 27
f 25 62 64
f 25 64 26
f 53 52 63
f 53 63 65
f 53 65 66
f 53 66 67
f 53 67 54
f 54 67 55
f 55 67 56
f 56 67 66
f 56 66 68
f 56 68 57
f 25 69 66
f 25 66 62
f 62 66 65
f 62 65 63
f 25 24 69
f 69 24 70
f 70 24 23
f 70 23 59
f 70 59 57
f 68 66 69
f 29 64 61
f 29 61 31
f 61 64 62
f 34 33 49
f 41 59 23
f 41 23 22
