# RS2 Model 1649
# Vertices: 211
# Faces: 248

v -64 52 16
v -64 64 16
v -64 64 0
v -64 52 0
v -46 36 8
v -46 36 24
v -52 64 16
v -52 64 0
v -35 47 24
v -35 47 8
v -12 36 24
v -12 36 8
v -1 2 16
v 2 -1 4
v 8 -9 34
v 20 -22 28
v -9 -12 4
v 12 -31 28
v -12 -9 16
v -24 25 24
v -24 25 8
v -41 27 14
v -43 19 14
v -41 5 14
v -29 10 14
v -24 22 14
v -24 27 14
v -35 33 14
v -11 32 16
v -5 32 16
v 0 37 16
v 3 51 16
v -11 49 16
v -16 43 16
v -16 37 16
v 26 -28 32
v 34 -19 32
v 40 -8 32
v 29 -2 32
v 17 -2 32
v 12 -8 32
v 17 -25 32
v -7 -15 16
v -12 -15 16
v -18 -21 16
v -21 -35 16
v -7 -32 16
v -1 -26 16
v -1 -21 16
v -1 -18 34
v 6 -8 54
v 17 -19 52
v 9 -28 52
v -2 -16 54
v -8 -8 68
v -2 -2 68
v 3 -8 76
v -2 -14 76
v -26 -4 86
v -25 -2 78
v -21 2 78
v -22 1 86
v -41 5 80
v -43 2 80
v -38 -1 74
v -35 2 74
v -42 3 58
v -46 -1 58
v -42 -5 56
v -2 -46 42
v -8 -39 42
v -13 -44 0
v -8 -51 0
v 3 -35 88
v -33 -2 34
v -33 -10 34
v -25 -10 0
v -25 -2 0
v -45 -5 68
v 16 3 36
v 16 11 36
v 9 11 0
v 9 3 0
v 28 7 72
v 11 27 40
v 5 29 40
v 2 23 0
v 10 20 0
v 10 39 82
v 24 -41 38
v 29 -35 38
v 24 -30 0
v 18 -37 0
v 35 -45 76
v 43 42 32
v 39 36 32
v 44 32 0
v 48 38 0
v 29 47 66
v -38 -37 36
v -31 -43 36
v -26 -37 0
v -33 -31 0
v -44 -51 72
v 42 -22 30
v 34 -22 30
v 33 -29 0
v 43 -29 0
v 37 -8 62
v 37 18 40
v 34 26 40
v 28 24 0
v 31 16 0
v 49 28 82
v -50 -24 36
v -47 -30 36
v -40 -27 0
v -45 -19 0
v -58 -33 72
v 44 -43 36
v 47 -37 36
v 41 -33 0
v 37 -41 0
v 55 -45 72
v -19 -56 42
v -28 -53 42
v -31 -60 0
v -23 -63 0
v -20 -45 88
v 23 -56 42
v 30 -50 42
v 26 -45 0
v 20 -49 0
v 33 -62 88
v 50 -8 36
v 49 -2 36
v 42 -2 0
v 44 -11 0
v 60 -3 72
v -2 57 36
v 4 57 36
v 5 64 0
v -3 64 0
v 0 46 72
v -53 35 38
v -58 38 38
v -63 36 0
v -57 28 0
v -44 46 74
v 54 52 38
v 51 59 38
v 44 55 0
v 48 47 0
v 63 62 74
v -53 -52 42
v -62 -53 42
v -62 -60 0
v -53 -60 0
v -58 -43 88
v 50 -60 42
v 54 -52 42
v 49 -48 0
v 44 -56 0
v 61 -61 88
v -55 6 36
v -62 5 36
v -61 -3 0
v -52 -1 0
v -62 16 72
v -1 -64 36
v 2 -57 36
v -5 -53 0
v -9 -62 0
v 11 -64 72
v 63 -25 36
v 57 -22 36
v 53 -29 0
v 62 -33 0
v 64 -13 72
v 61 36 36
v 54 35 36
v 55 27 0
v 64 29 0
v 54 46 72
v 26 53 36
v 24 59 36
v 16 57 0
v 20 49 0
v 35 61 72
v -21 56 36
v -21 63 36
v -29 63 0
v -28 54 0
v -10 62 72
v 59 11 36
v 54 14 36
v 49 10 0
v 57 5 0
v 63 22 72
v -5 7 32
v 0 -38 32
v 48 12 32
v 22 46 16
v -2 72 16
v -17 7 16
v -39 -29 16
v -15 -53 16
v -4 7 16
v -64 2 11
v -32 -14 11
v -33 53 16

f 1 2 3
f 1 3 4
f 1 4 5
f 1 5 6
f 1 6 7
f 1 7 2
f 2 7 8
f 2 8 3
f 8 7 9
f 8 9 10
f 10 9 11
f 10 11 12
f 12 11 13
f 12 13 14
f 14 13 15
f 14 15 16
f 14 16 17
f 17 16 18
f 17 18 19
f 17 19 20
f 17 20 21
f 21 20 6
f 21 6 5
f 19 13 11
f 19 11 20
f 20 11 6
f 6 11 9
f 6 9 7
f 22 23 24
f 22 24 25
f 22 25 26
f 22 26 27
f 22 27 28
f 29 30 31
f 29 31 32
f 29 32 33
f 29 33 34
f 29 34 35
f 36 37 38
f 36 38 39
f 36 39 40
f 36 40 41
f 36 41 42
f 43 44 45
f 43 45 46
f 43 46 47
f 43 47 48
f 43 48 49
f 18 50 19
f 19 50 13
f 13 50 15
f 15 50 51
f 15 51 16
f 16 51 52
f 16 52 18
f 18 52 53
f 18 53 50
f 50 53 54
f 50 54 51
f 51 54 55
f 51 55 56
f 51 56 52
f 52 56 57
f 52 57 53
f 53 57 58
f 53 58 54
f 54 58 55
f 55 58 59
f 55 59 60
f 55 60 56
f 56 60 61
f 56 61 57
f 57 61 62
f 57 62 58
f 58 62 59
f 59 62 63
f 59 63 64
f 59 64 60
f 60 64 65
f 60 65 66
f 60 66 61
f 61 66 62
f 62 66 63
f 63 66 67
f 63 67 68
f 63 68 64
f 64 68 65
f 65 68 69
f 65 69 66
f 66 69 67
f 70 71 72
f 70 72 73
f 70 73 71
f 70 71 74
f 70 74 71
f 73 72 71
f 75 76 77
f 75 77 78
f 75 78 76
f 75 76 79
f 75 79 76
f 78 77 76
f 80 81 82
f 80 82 83
f 80 83 81
f 80 81 84
f 80 84 81
f 83 82 81
f 85 86 87
f 85 87 88
f 85 88 86
f 85 86 89
f 85 89 86
f 88 87 86
f 90 91 92
f 90 92 93
f 90 93 91
f 90 91 94
f 90 94 91
f 93 92 91
f 95 96 97
f 95 97 98
f 95 98 96
f 95 96 99
f 95 99 96
f 98 97 96
f 100 101 102
f 100 102 103
f 100 103 101
f 100 101 104
f 100 104 101
f 103 102 101
f 105 106 107
f 105 107 108
f 105 108 106
f 105 106 109
f 105 109 106
f 108 107 106
f 110 111 112
f 110 112 113
f 110 113 111
f 110 111 114
f 110 114 111
f 113 112 111
f 115 116 117
f 115 117 118
f 115 118 116
f 115 116 119
f 115 119 116
f 118 117 116
f 120 121 122
f 120 122 123
f 120 123 121
f 120 121 124
f 120 124 121
f 123 122 121
f 125 126 127
f 125 127 128
f 125 128 126
f 125 126 129
f 125 129 126
f 128 127 126
f 130 131 132
f 130 132 133
f 130 133 131
f 130 131 134
f 130 134 131
f 133 132 131
f 135 136 137
f 135 137 138
f 135 138 136
f 135 136 139
f 135 139 136
f 138 137 136
f 140 141 142
f 140 142 143
f 140 143 141
f 140 141 144
f 140 144 141
f 143 142 141
f 145 146 147
f 145 147 148
f 145 148 146
f 145 146 149
f 145 149 146
f 148 147 146
f 150 151 152
f 150 152 153
f 150 153 151
f 150 151 154
f 150 154 151
f 153 152 151
f 155 156 157
f 155 157 158
f 155 158 156
f 155 156 159
f 155 159 156
f 158 157 156
f 160 161 162
f 160 162 163
f 160 163 161
f 160 161 164
f 160 164 161
f 163 162 161
f 165 166 167
f 165 167 168
f 165 168 166
f 165 166 169
f 165 169 166
f 168 167 166
f 170 171 172
f 170 172 173
f 170 173 171
f 170 171 174
f 170 174 171
f 173 172 171
f 175 176 177
f 175 177 178
f 175 178 176
f 175 176 179
f 175 179 176
f 178 177 176
f 180 181 182
f 180 182 183
f 180 183 181
f 180 181 184
f 180 184 181
f 183 182 181
f 185 186 187
f 185 187 188
f 185 188 186
f 185 186 189
f 185 189 186
f 188 187 186
f 190 191 192
f 190 192 193
f 190 193 191
f 190 191 194
f 190 194 191
f 193 192 191
f 195 196 197
f 195 197 198
f 195 198 196
f 195 196 199
f 195 199 196
f 198 197 196
f 200 201 202
f 203 204 205
