# RS2 Model 16504
# Vertices: 88
# Faces: 110

v 0 13 162
v 5 12 162
v 5 12 161
v 0 13 161
v -6 12 162
v -5 12 162
v -11 8 163
v -12 8 163
v -12 4 163
v -13 4 164
v -11 -4 160
v -10 -4 159
v -9 -8 156
v -8 -8 155
v -7 -11 153
v -6 -11 152
v -2 -14 147
v -4 -14 146
v -1 -14 146
v -1 -15 146
v 0 -15 146
v 6 -14 146
v 4 -14 147
v 8 -11 153
v 7 -11 152
v 8 -8 155
v 9 -8 156
v 10 -4 159
v 11 -4 160
v 12 4 163
v 13 4 164
v 10 9 163
v 11 9 162
v -8 -11 152
v -10 -8 155
v -12 -4 159
v -14 4 163
v -12 8 162
v -6 12 161
v 9 -11 152
v 10 -8 155
v 12 -4 159
v 14 4 163
v 2 -14 145
v 1 -15 145
v 1 -13 145
v 0 -13 144
v -1 -14 145
v -1 -14 144
v -2 -14 143
v 0 -13 143
v 0 -13 142
v -1 -14 141
v 2 -13 140
v -1 -13 141
v 0 -14 139
v 1 -13 138
v -1 -13 137
v -2 -14 137
v -1 -14 136
v -2 -13 136
v -3 -13 137
v -1 -13 139
v -2 -13 143
v -1 -13 140
v -3 -13 140
v -2 -13 139
v -4 -13 138
v -5 -13 138
v -4 -13 135
v -5 -14 136
v -5 -13 134
v -6 -14 136
v -7 -13 136
v -8 -14 138
v -9 -13 139
v -8 -14 139
v -8 -13 140
v -6 -13 139
v -6 -14 138
v 4 -13 136
v 5 -13 135
v 5 -14 137
v 3 -14 138
v 3 -13 137
v 4 -13 139
v 7 -13 139
v 8 -13 139

f 1 2 3
f 1 3 4
f 1 4 5
f 1 5 6
f 6 5 7
f 7 5 8
f 7 8 9
f 9 8 10
f 9 10 11
f 9 11 12
f 12 11 13
f 12 13 14
f 14 13 15
f 14 15 16
f 16 15 17
f 17 15 18
f 17 18 19
f 17 19 20
f 17 20 21
f 17 21 22
f 17 22 23
f 23 22 24
f 23 24 25
f 25 24 26
f 26 24 27
f 26 27 28
f 28 27 29
f 28 29 30
f 30 29 31
f 30 31 32
f 32 31 33
f 32 33 3
f 32 3 2
f 34 15 13
f 34 13 35
f 35 13 11
f 35 11 36
f 36 11 10
f 36 10 37
f 37 10 38
f 38 10 8
f 38 8 39
f 39 8 5
f 39 5 4
f 27 24 40
f 27 40 41
f 27 41 29
f 29 41 42
f 29 42 31
f 31 42 43
f 31 43 33
f 40 24 22
f 18 15 34
f 22 21 44
f 44 21 45
f 44 45 46
f 46 45 47
f 47 45 48
f 47 48 49
f 47 49 50
f 47 50 51
f 51 50 52
f 52 50 53
f 52 53 54
f 54 53 55
f 54 55 56
f 54 56 57
f 57 56 58
f 58 56 59
f 58 59 60
f 60 59 61
f 61 59 62
f 62 59 63
f 63 59 56
f 63 56 55
f 19 48 20
f 20 48 21
f 21 48 45
f 64 50 49
f 50 64 55
f 50 55 53
f 65 66 63
f 63 66 67
f 67 66 68
f 68 66 69
f 68 69 70
f 70 69 71
f 70 71 72
f 72 71 73
f 72 73 74
f 74 73 75
f 74 75 76
f 76 75 77
f 76 77 78
f 78 77 79
f 79 77 80
f 79 80 69
f 69 80 71
f 71 80 73
f 73 80 75
f 75 80 77
f 81 82 83
f 81 83 84
f 81 84 85
f 85 84 54
f 54 84 86
f 86 84 83
f 86 83 87
f 87 83 88
f 88 83 82
