# RS2 Model 16530
# Vertices: 142
# Faces: 200

v -24 -39 86
v -16 -38 86
v -16 -38 87
v -24 -39 87
v -25 -29 86
v -25 -29 87
v -18 -21 86
v -18 -21 87
v -7 -16 86
v -7 -16 87
v -4 -2 87
v -4 -2 86
v -1 -15 87
v -1 -15 86
v 11 -17 87
v 11 -17 86
v -3 -20 87
v -3 -20 86
v -7 -31 86
v -7 -31 87
v -16 -31 90
v -15 -23 90
v -4 -19 89
v -10 -29 90
v -11 -26 92
v -15 -31 89
v -14 -34 89
v -10 -34 89
v -10 -31 89
v -59 34 0
v -61 27 0
v -61 27 1
v -59 34 1
v -52 30 0
v -52 30 1
v -47 22 0
v -47 22 1
v -47 11 0
v -47 11 1
v -37 5 1
v -37 5 0
v -48 6 1
v -48 6 0
v -54 -3 1
v -54 -3 0
v -51 9 1
v -51 9 0
v -60 17 0
v -60 17 1
v -57 25 4
v -50 21 4
v -51 10 3
v -57 18 4
v -53 19 5
v -57 24 3
v -59 24 3
v -60 20 3
v -58 19 3
v 39 -38 0
v 48 -40 0
v 48 -40 1
v 39 -38 1
v 42 -34 2
v 42 -34 0
v 44 -32 0
v 45 -30 4
v 46 -28 0
v 46 -28 1
v 51 -36 0
v 51 -36 1
v 61 -38 1
v 61 -38 0
v 51 -41 1
v 51 -41 0
v 52 -50 1
v 52 -50 0
v 48 -38 2
v 40 -36 4
v 42 -34 5
v -9 9 85
v 2 21 85
v 2 21 88
v -9 9 88
v -12 18 90
v -12 15 85
v -14 20 85
v -15 25 92
v -17 29 85
v -17 29 88
v 0 28 85
v 0 28 88
v 11 42 88
v 11 42 85
v 8 25 88
v 8 25 85
v 20 17 88
v 20 17 85
v 1 23 90
v -11 13 92
v -12 18 94
v -29 -15 85
v -20 -9 85
v -20 -9 88
v -29 -15 88
v -37 -5 85
v -37 -5 88
v -35 10 85
v -35 10 88
v -27 8 85
v -25 8 90
v -21 6 85
v -18 6 92
v -13 5 88
v -13 5 85
v -26 -2 92
v -30 10 92
v -23 8 94
v -24 -1 90
v -21 -4 90
v -15 0 90
v -17 3 90
v -24 32 0
v -29 25 0
v -29 25 1
v -24 32 1
v -21 28 2
v -21 28 0
v -20 25 0
v -19 23 4
v -18 21 0
v -18 21 1
v -27 20 0
v -27 20 1
v -33 12 1
v -33 12 0
v -31 23 1
v -31 23 0
v -40 26 1
v -40 26 0
v -27 24 2
v -22 30 4
v -21 28 5

f 1 2 3
f 1 3 4
f 1 4 5
f 5 4 6
f 5 6 7
f 7 6 8
f 7 8 9
f 9 8 10
f 9 10 11
f 9 11 12
f 12 11 13
f 12 13 14
f 14 13 15
f 14 15 16
f 16 15 17
f 16 17 18
f 18 17 19
f 19 17 20
f 19 20 2
f 2 20 3
f 3 20 21
f 3 21 4
f 4 21 6
f 6 21 22
f 6 22 8
f 8 22 23
f 8 23 10
f 10 23 13
f 10 13 11
f 13 17 15
f 17 13 23
f 17 23 24
f 17 24 20
f 20 24 21
f 21 24 25
f 21 25 22
f 22 25 23
f 23 25 24
f 26 27 28
f 26 28 29
f 30 31 32
f 30 32 33
f 30 33 34
f 34 33 35
f 34 35 36
f 36 35 37
f 36 37 38
f 38 37 39
f 38 39 40
f 38 40 41
f 41 40 42
f 41 42 43
f 43 42 44
f 43 44 45
f 45 44 46
f 45 46 47
f 47 46 48
f 48 46 49
f 48 49 31
f 31 49 32
f 32 49 50
f 32 50 33
f 33 50 35
f 35 50 51
f 35 51 37
f 37 51 52
f 37 52 39
f 39 52 42
f 39 42 40
f 42 46 44
f 46 42 52
f 46 52 53
f 46 53 49
f 49 53 50
f 50 53 54
f 50 54 51
f 51 54 52
f 52 54 53
f 55 56 57
f 55 57 58
f 59 60 61
f 59 61 62
f 59 62 63
f 59 63 64
f 64 63 65
f 65 63 66
f 65 66 67
f 67 66 68
f 67 68 69
f 69 68 70
f 69 70 71
f 69 71 72
f 72 71 73
f 72 73 74
f 74 73 75
f 74 75 76
f 76 75 61
f 76 61 60
f 73 61 75
f 61 73 77
f 61 77 78
f 61 78 62
f 62 78 63
f 63 78 66
f 66 78 79
f 66 79 77
f 66 77 68
f 68 77 70
f 70 77 73
f 70 73 71
f 79 78 77
f 80 81 82
f 80 82 83
f 80 83 84
f 80 84 85
f 85 84 86
f 86 84 87
f 86 87 88
f 88 87 89
f 88 89 90
f 90 89 91
f 90 91 92
f 90 92 93
f 93 92 94
f 93 94 95
f 95 94 96
f 95 96 97
f 97 96 82
f 97 82 81
f 94 82 96
f 82 94 98
f 82 98 99
f 82 99 83
f 83 99 84
f 84 99 87
f 87 99 100
f 87 100 98
f 87 98 89
f 89 98 91
f 91 98 94
f 91 94 92
f 100 99 98
f 101 102 103
f 101 103 104
f 101 104 105
f 105 104 106
f 105 106 107
f 107 106 108
f 107 108 109
f 109 108 110
f 109 110 111
f 111 110 112
f 111 112 113
f 111 113 114
f 114 113 102
f 102 113 103
f 103 113 115
f 103 115 104
f 104 115 106
f 106 115 116
f 106 116 108
f 108 116 110
f 110 116 112
f 112 116 117
f 112 117 115
f 112 115 113
f 115 117 116
f 118 119 120
f 118 120 121
f 122 123 124
f 122 124 125
f 122 125 126
f 122 126 127
f 127 126 128
f 128 126 129
f 128 129 130
f 130 129 131
f 130 131 132
f 132 131 133
f 132 133 134
f 132 134 135
f 135 134 136
f 135 136 137
f 137 136 138
f 137 138 139
f 139 138 124
f 139 124 123
f 136 124 138
f 124 136 140
f 124 140 141
f 124 141 125
f 125 141 126
f 126 141 129
f 129 141 142
f 129 142 140
f 129 140 131
f 131 140 133
f 133 140 136
f 133 136 134
f 142 141 140
