# RS2 Model 16579
# Vertices: 133
# Faces: 158

v 64 33 240
v 64 49 240
v 48 49 240
v 48 44 240
v 4 37 240
v 6 30 240
v 48 42 19
v 48 34 16
v 64 34 16
v 64 54 88
v 64 52 141
v 64 51 193
v 48 51 193
v 48 48 193
v 4 40 193
v -40 -5 193
v -37 -5 240
v -30 -7 240
v 5 36 19
v 48 41 0
v 48 33 0
v 64 33 0
v 64 57 0
v 64 57 43
v 48 54 88
v 48 52 141
v 5 36 0
v 6 30 0
v 48 57 43
v 48 49 89
v 48 46 142
v 48 48 145
v 48 45 191
v 2 47 44
v 3 44 89
v 48 51 44
v 1 53 43
v -53 -1 43
v -47 -3 44
v -44 -3 89
v 4 40 142
v 3 44 145
v 4 39 191
v -39 -5 191
v -48 -48 193
v -44 -48 240
v -33 -64 240
v -42 -48 19
v -36 -6 19
v -36 -6 0
v -30 -7 0
v -33 -48 0
v -41 -48 0
v -34 -48 16
v -33 -64 0
v -34 -64 16
v -57 -64 43
v -57 -64 0
v -64 -64 43
v -64 -64 0
v -58 0 43
v -58 0 0
v 0 58 43
v 0 58 0
v 64 64 0
v 64 64 43
v -57 -48 43
v -51 -48 44
v -49 -48 89
v -40 -5 142
v -44 -3 145
v -48 -48 145
v -45 -48 191
v -52 -48 141
v -51 -48 193
v -49 -48 240
v -49 -64 240
v -51 -64 193
v -52 -64 141
v -54 -64 88
v -54 -48 88
v -46 -48 142
v -36 -48 47
v -68 -48 47
v -29 -48 244
v 3 50 0
v 9 15 0
v 45 53 0
v -21 -8 0
v -44 -4 0
v -26 -50 0
v 61 16 240
v 61 57 240
v 1 13 240
v -54 -96 240
v 1 -57 240
v -83 -51 240
v -47 -66 22
v 70 25 24
v -47 -64 112
v 89 56 42
v 19 56 42
v 91 48 239
v 64 84 226
v 64 7 226
v 64 84 -13
v 48 28 244
v 48 59 244
v 48 38 47
v 29 38 211
v 26 41 79
v -37 -23 211
v 7 39 0
v -12 58 0
v -33 -2 0
v 11 33 240
v -15 58 240
v -29 -8 240
v -17 0 240
v -50 0 240
v -20 -60 240
v 60 80 240
v 25 25 240
v 91 60 240
v -56 -32 42
v -56 -91 42
v -48 -31 239
v -1 43 187
v 25 16 147
v -43 -1 187
v -79 -64 -13
v -14 -64 -13
v -78 -64 226

f 1 2 3
f 1 3 4
f 1 4 5
f 1 5 6
f 1 6 7
f 1 7 8
f 1 8 9
f 1 9 10
f 1 10 11
f 1 11 12
f 1 12 2
f 2 12 3
f 3 12 13
f 3 13 14
f 3 14 4
f 4 14 5
f 5 14 15
f 5 15 16
f 5 16 17
f 5 17 6
f 6 17 18
f 6 18 19
f 6 19 7
f 7 19 20
f 7 20 8
f 8 20 21
f 8 21 22
f 8 22 9
f 9 22 23
f 9 23 24
f 9 24 10
f 10 24 25
f 10 25 26
f 10 26 11
f 11 26 13
f 11 13 12
f 19 27 20
f 20 27 28
f 20 28 21
f 24 29 25
f 25 29 30
f 25 30 31
f 25 31 32
f 25 32 26
f 26 32 33
f 26 33 14
f 26 14 13
f 34 35 30
f 34 30 36
f 34 36 29
f 34 29 37
f 34 37 38
f 34 38 39
f 34 39 35
f 35 39 40
f 35 40 41
f 35 41 30
f 30 41 31
f 31 41 32
f 32 41 42
f 32 42 43
f 32 43 33
f 33 43 14
f 14 43 15
f 15 43 44
f 15 44 16
f 16 44 45
f 16 45 17
f 17 45 46
f 17 46 47
f 17 47 18
f 18 47 48
f 18 48 49
f 18 49 19
f 19 49 27
f 27 49 50
f 27 50 28
f 28 50 51
f 51 50 52
f 52 50 53
f 52 53 54
f 52 54 55
f 55 54 56
f 55 56 57
f 55 57 58
f 58 57 59
f 58 59 60
f 60 59 61
f 60 61 62
f 62 61 63
f 62 63 64
f 64 63 65
f 65 63 66
f 65 66 24
f 65 24 23
f 29 36 30
f 29 24 66
f 29 66 37
f 37 66 63
f 37 63 61
f 37 61 38
f 38 61 67
f 38 67 39
f 39 67 68
f 39 68 69
f 39 69 40
f 40 69 70
f 40 70 41
f 41 70 42
f 42 70 71
f 42 71 43
f 43 71 44
f 44 71 72
f 44 72 73
f 44 73 45
f 45 73 74
f 45 74 75
f 45 75 76
f 45 76 46
f 46 76 47
f 47 76 77
f 47 77 78
f 47 78 79
f 47 79 80
f 47 80 57
f 47 57 56
f 47 56 54
f 47 54 48
f 48 54 53
f 48 53 49
f 49 53 50
f 78 77 76
f 78 76 75
f 78 75 79
f 79 75 74
f 79 74 80
f 80 74 81
f 80 81 57
f 57 81 67
f 57 67 59
f 59 67 61
f 71 70 72
f 72 70 82
f 72 82 81
f 72 81 74
f 72 74 73
f 70 69 82
f 82 69 81
f 81 69 67
f 67 69 68
f 83 84 85
f 86 87 88
f 89 90 91
f 92 93 94
f 95 96 97
f 98 99 100
f 101 102 103
f 104 105 106
