# RS2 Model 16590
# Vertices: 41
# Faces: 47

v 11 -8 227
v 0 1 230
v 8 -6 240
v 14 -20 233
v 15 -10 225
v 24 0 218
v 0 17 217
v -11 -8 227
v -9 -6 240
v -6 -30 243
v 5 -30 243
v 11 -43 233
v 12 -43 228
v 3 -48 226
v 5 -48 230
v -3 -48 226
v -2 -44 216
v 2 -44 216
v -15 -20 233
v -13 -43 233
v -6 -48 230
v -13 -43 228
v -24 0 218
v -15 -10 225
v 19 -25 212
v 27 -19 208
v 24 -28 198
v 12 -37 212
v 18 -36 191
v 14 -38 200
v 11 -38 189
v -27 -19 208
v -19 -25 212
v -18 -36 191
v -12 -37 212
v -24 -28 198
v -14 -38 200
v -11 -38 189
v -19 -49 245
v 12 -49 245
v -11 13 236

f 1 2 3
f 1 3 4
f 1 4 5
f 1 5 6
f 1 6 2
f 2 6 7
f 2 7 8
f 2 8 9
f 2 9 3
f 3 9 10
f 3 10 11
f 3 11 4
f 4 11 12
f 4 12 13
f 13 12 14
f 14 12 15
f 14 15 16
f 14 16 17
f 14 17 18
f 8 19 9
f 9 19 10
f 10 19 20
f 10 20 11
f 11 20 12
f 12 20 21
f 12 21 15
f 15 21 16
f 16 21 22
f 22 21 20
f 22 20 19
f 8 7 23
f 8 23 24
f 8 24 19
f 6 5 25
f 6 25 26
f 26 25 27
f 27 25 28
f 27 28 29
f 29 28 30
f 29 30 31
f 32 33 24
f 32 24 23
f 34 35 33
f 34 33 36
f 36 33 32
f 37 35 34
f 37 34 38
