# RS2 Model 16613
# Vertices: 49
# Faces: 67

v -13 -26 24
v -21 -26 35
v -21 -64 35
v -13 -64 24
v -13 -26 0
v -25 -12 0
v -25 -12 24
v -35 -19 35
v -51 -26 35
v -51 -64 35
v -61 -64 24
v -13 -64 0
v -61 -26 24
v -61 -26 0
v -61 -64 0
v -40 -64 93
v -30 -64 93
v -30 -64 108
v -40 -64 108
v -40 -26 108
v -40 -26 93
v -35 -20 108
v -35 -20 93
v -30 -26 108
v -30 -26 93
v -34 -39 35
v -36 -39 35
v -36 -39 51
v -34 -39 51
v -34 -49 35
v -34 -49 51
v -36 -49 35
v -36 -49 51
v -38 -64 51
v -32 -64 51
v -32 -64 58
v -38 -64 58
v -37 -49 58
v -37 -39 58
v -37 -39 51
v -32 -39 51
v -33 -39 58
v -33 -49 58
v -33 -49 93
v -37 -49 93
v -37 -39 93
v -33 -39 93
v -46 -12 24
v -46 -12 0

f 1 2 3
f 1 3 4
f 1 4 5
f 1 5 6
f 1 6 7
f 1 7 2
f 2 7 8
f 2 8 9
f 2 9 10
f 2 10 3
f 3 10 4
f 4 10 11
f 4 11 12
f 4 12 5
f 9 13 11
f 9 11 10
f 13 14 15
f 13 15 11
f 11 15 12
f 16 17 18
f 16 18 19
f 16 19 20
f 16 20 21
f 21 20 22
f 21 22 23
f 23 22 24
f 23 24 25
f 25 24 18
f 25 18 17
f 26 27 28
f 26 28 29
f 26 29 30
f 30 29 31
f 30 31 32
f 32 31 33
f 32 33 27
f 27 33 28
f 34 35 36
f 34 36 37
f 34 37 38
f 34 38 39
f 34 39 40
f 40 39 41
f 41 39 42
f 41 42 35
f 35 42 43
f 35 43 36
f 36 43 37
f 37 43 38
f 38 43 44
f 38 44 45
f 38 45 39
f 39 45 46
f 39 46 42
f 42 46 47
f 42 47 43
f 43 47 44
f 19 18 24
f 19 24 20
f 20 24 22
f 13 9 8
f 13 8 48
f 13 48 14
f 14 48 49
f 49 48 7
f 49 7 6
f 48 8 7
