# RS2 Model 16632
# Vertices: 158
# Faces: 246

v -36 -20 239
v -7 -20 128
v -1 -20 129
v -14 -20 181
v -30 -20 240
v -20 -14 215
v -20 -14 220
v -24 -14 235
v -30 21 240
v -24 13 235
v -14 20 181
v -7 20 128
v -36 21 239
v -1 20 129
v 1 13 137
v 1 -14 137
v -3 -14 155
v -5 -14 158
v -10 -14 180
v -12 -14 184
v -20 13 215
v -20 13 220
v -12 13 184
v -10 13 180
v -5 13 158
v -3 13 155
v -31 39 264
v -11 39 264
v -6 49 264
v -31 57 264
v -47 32 264
v -31 32 264
v -31 39 257
v -9 39 259
v -4 49 257
v -9 57 259
v -11 57 264
v -14 57 257
v -31 57 257
v -31 64 264
v -47 64 264
v -34 31 127
v -18 31 127
v -31 39 245
v -31 49 243
v -27 49 249
v -14 39 257
v -14 49 255
v -31 57 245
v -18 64 35
v -34 64 35
v -34 35 35
v -18 35 35
v -28 -56 264
v -8 -56 264
v -3 -46 264
v -28 -38 264
v -44 -32 264
v -47 -64 264
v -28 -64 264
v -28 -56 257
v -6 -56 259
v -1 -46 257
v -6 -38 259
v -8 -38 264
v -11 -38 257
v -28 -38 257
v -28 -32 264
v -31 -27 35
v -34 -64 35
v -15 -64 35
v -28 -56 245
v -28 -46 243
v -24 -46 249
v -11 -56 257
v -11 -46 255
v -28 -38 245
v -15 -27 35
v -11 -22 35
v -38 -42 35
v -38 -64 35
v -11 -64 35
v -3 -64 24
v -3 -22 24
v 36 -15 22
v -11 -15 35
v -11 14 35
v -38 39 35
v -54 -42 24
v -47 -64 24
v -3 -64 0
v -3 -30 0
v 55 -15 0
v 55 14 0
v 36 14 22
v -3 21 24
v -11 21 35
v -11 64 35
v -38 64 35
v -54 39 24
v -58 -42 0
v -47 -64 0
v -3 29 0
v -3 64 0
v -3 64 24
v -47 64 24
v -58 39 0
v -47 64 0
v -18 -26 35
v -14 -27 115
v -34 -28 127
v -32 -26 35
v -32 -17 35
v -34 -20 127
v -34 21 35
v -34 20 127
v -34 34 35
v -34 30 127
v -14 30 115
v -18 34 35
v -18 21 97
v -18 -17 97
v -10 -17 110
v -10 -20 127
v -18 -20 127
v -31 -30 241
v -47 -30 241
v -47 -20 241
v -31 -20 241
v -18 20 127
v -47 21 241
v -47 31 241
v -31 31 241
v -31 21 241
v -10 20 127
v -10 21 110
v -44 -30 264
v -28 -30 264
v -44 31 264
v -32 31 264
v -14 22 204
v -14 -22 204
v -2 22 160
v -47 -63 28
v -45 -65 105
v -48 60 28
v 0 62 -1
v -18 62 65
v 0 -63 0
v -53 11 264
v -18 13 264
v -53 81 264
v -46 64 2
v -46 64 37
v -2 64 2
v -66 -60 -1
v -19 -64 56
v -67 63 -1

f 1 2 3
f 1 3 4
f 1 4 5
f 5 4 6
f 5 6 7
f 5 7 8
f 5 8 9
f 9 8 10
f 9 10 11
f 9 11 12
f 9 12 13
f 13 12 2
f 13 2 1
f 3 2 12
f 3 12 14
f 3 14 15
f 3 15 16
f 3 16 17
f 3 17 18
f 3 18 4
f 4 18 19
f 4 19 20
f 4 20 6
f 6 20 21
f 6 21 22
f 6 22 7
f 7 22 10
f 7 10 8
f 21 20 23
f 23 20 19
f 23 19 24
f 23 24 11
f 23 11 10
f 24 19 18
f 24 18 25
f 24 25 26
f 24 26 11
f 11 26 14
f 11 14 12
f 25 18 17
f 25 17 26
f 26 17 16
f 26 16 15
f 26 15 14
f 27 28 29
f 27 29 30
f 27 30 31
f 27 31 32
f 27 32 33
f 27 33 28
f 28 33 34
f 28 34 35
f 28 35 29
f 29 35 36
f 29 36 37
f 29 37 30
f 30 37 36
f 30 36 38
f 30 38 39
f 30 39 40
f 30 40 41
f 30 41 31
f 31 41 42
f 31 42 43
f 31 43 32
f 32 43 44
f 32 44 33
f 33 44 45
f 33 45 46
f 33 46 47
f 33 47 34
f 34 47 48
f 34 48 35
f 35 48 38
f 35 38 36
f 47 46 48
f 48 46 39
f 48 39 38
f 46 45 49
f 46 49 39
f 39 49 40
f 40 49 50
f 40 50 51
f 40 51 41
f 41 51 42
f 42 51 52
f 42 52 53
f 42 53 43
f 43 53 50
f 43 50 45
f 43 45 44
f 54 55 56
f 54 56 57
f 54 57 58
f 54 58 59
f 54 59 60
f 54 60 61
f 54 61 55
f 55 61 62
f 55 62 63
f 55 63 56
f 56 63 64
f 56 64 65
f 56 65 57
f 57 65 64
f 57 64 66
f 57 66 67
f 57 67 68
f 57 68 58
f 58 68 69
f 58 69 70
f 58 70 59
f 59 70 71
f 59 71 60
f 60 71 72
f 60 72 61
f 61 72 73
f 61 73 74
f 61 74 75
f 61 75 62
f 62 75 76
f 62 76 63
f 63 76 66
f 63 66 64
f 75 74 76
f 76 74 67
f 76 67 66
f 74 73 77
f 74 77 67
f 67 77 68
f 68 77 78
f 68 78 69
f 79 80 81
f 79 81 82
f 79 82 83
f 79 83 84
f 79 84 85
f 79 85 86
f 79 86 80
f 80 86 87
f 80 87 88
f 80 88 89
f 80 89 81
f 81 89 90
f 81 90 83
f 81 83 82
f 84 83 91
f 84 91 92
f 84 92 93
f 84 93 85
f 85 93 94
f 85 94 95
f 85 95 86
f 86 95 87
f 87 95 96
f 87 96 97
f 87 97 88
f 88 97 98
f 88 98 99
f 88 99 100
f 88 100 89
f 89 100 101
f 89 101 90
f 90 101 102
f 90 102 91
f 90 91 83
f 95 94 103
f 95 103 96
f 96 103 104
f 96 104 105
f 96 105 97
f 97 105 98
f 98 105 106
f 98 106 99
f 99 106 100
f 100 106 107
f 100 107 101
f 106 108 107
f 108 106 105
f 108 105 104
f 78 77 73
f 78 73 71
f 71 73 72
f 50 49 45
f 109 110 111
f 109 111 112
f 112 111 113
f 113 111 114
f 113 114 115
f 115 114 116
f 115 116 117
f 117 116 118
f 117 118 119
f 117 119 120
f 120 119 121
f 120 121 109
f 109 121 122
f 109 122 110
f 110 122 123
f 110 123 124
f 110 124 125
f 110 125 126
f 110 126 127
f 110 127 111
f 111 127 128
f 111 128 114
f 114 128 129
f 114 129 125
f 114 125 130
f 114 130 116
f 116 130 131
f 116 131 132
f 116 132 118
f 118 132 133
f 118 133 119
f 119 133 134
f 119 134 130
f 119 130 135
f 119 135 136
f 119 136 123
f 123 136 135
f 123 135 124
f 124 135 130
f 124 130 125
f 137 127 126
f 137 126 138
f 137 138 139
f 137 139 131
f 137 131 128
f 137 128 127
f 140 133 132
f 140 132 139
f 140 139 138
f 140 138 134
f 140 134 133
f 126 125 129
f 126 129 138
f 138 129 134
f 131 130 134
f 119 136 121
f 121 136 122
f 122 136 123
f 139 132 131
f 141 142 143
f 95 85 94
f 144 145 146
