# RS2 Model 16677
# Vertices: 104
# Faces: 186

v 105 153 0
v 0 187 0
v 0 187 13
v 105 153 13
v 161 189 0
v 149 175 13
v 191 160 0
v 179 146 13
v 155 103 0
v 155 103 13
v 187 0 0
v 187 0 13
v 152 -103 0
v 152 -103 13
v 187 -158 0
v 173 -146 13
v 158 -188 0
v 144 -176 13
v 102 -154 0
v 102 -154 13
v 0 -187 0
v 0 -187 13
v -105 -152 0
v -105 -152 13
v -161 -187 0
v -149 -173 13
v -191 -158 0
v -179 -144 13
v -155 -102 0
v -155 -102 13
v -187 0 0
v -187 0 13
v -154 102 0
v -154 102 13
v -192 156 0
v -178 144 13
v -163 186 0
v -149 174 13
v -104 153 0
v -104 153 13
v 99 62 82
v 69 91 82
v 101 124 82
v 131 95 82
v 131 95 101
v 99 62 101
v 69 91 101
v 101 124 101
v 100 113 117
v 120 94 117
v 100 73 117
v 80 92 117
v 80 92 264
v 100 113 264
v 120 94 264
v 100 73 264
v -101 -122 82
v -131 -93 82
v -69 -89 82
v -69 -89 101
v -101 -122 101
v -131 -93 101
v -99 -60 82
v -99 -60 101
v -100 -71 117
v -80 -90 117
v -100 -111 117
v -120 -92 117
v -120 -92 264
v -100 -71 264
v -80 -90 264
v -100 -111 264
v -127 96 82
v -98 126 82
v -94 64 82
v -94 64 101
v -127 96 101
v -98 126 101
v -65 94 82
v -65 94 101
v -76 95 117
v -95 75 117
v -116 95 117
v -97 115 117
v -97 115 264
v -76 95 264
v -95 75 264
v -116 95 264
v 122 -98 82
v 93 -128 82
v 89 -66 82
v 89 -66 101
v 122 -98 101
v 93 -128 101
v 60 -96 82
v 60 -96 101
v 71 -97 117
v 90 -77 117
v 111 -97 117
v 92 -117 117
v 92 -117 264
v 71 -97 264
v 90 -77 264
v 111 -97 264

f 1 2 3
f 1 3 4
f 1 4 5
f 5 4 6
f 5 6 7
f 7 6 8
f 7 8 9
f 9 8 10
f 9 10 11
f 11 10 12
f 11 12 13
f 13 12 14
f 13 14 15
f 15 14 16
f 15 16 17
f 17 16 18
f 17 18 19
f 19 18 20
f 19 20 21
f 21 20 22
f 21 22 23
f 23 22 24
f 23 24 25
f 25 24 26
f 25 26 27
f 27 26 28
f 27 28 29
f 29 28 30
f 29 30 31
f 31 30 32
f 31 32 33
f 33 32 34
f 33 34 35
f 35 34 36
f 35 36 37
f 37 36 38
f 37 38 39
f 39 38 40
f 39 40 2
f 2 40 3
f 3 40 34
f 3 34 32
f 3 32 30
f 3 30 24
f 3 24 22
f 3 22 20
f 3 20 14
f 3 14 12
f 3 12 10
f 3 10 4
f 4 10 41
f 4 41 42
f 4 42 6
f 6 42 43
f 6 43 8
f 8 43 44
f 8 44 10
f 10 44 41
f 41 44 45
f 41 45 46
f 41 46 42
f 42 46 47
f 42 47 43
f 43 47 48
f 43 48 44
f 44 48 45
f 45 48 49
f 45 49 50
f 45 50 46
f 46 50 51
f 46 51 47
f 47 51 52
f 47 52 48
f 48 52 49
f 49 52 53
f 49 53 54
f 49 54 50
f 50 54 55
f 50 55 51
f 51 55 56
f 51 56 52
f 52 56 53
f 53 56 55
f 53 55 54
f 57 58 28
f 57 28 26
f 57 26 59
f 57 59 60
f 57 60 61
f 57 61 58
f 58 61 62
f 58 62 63
f 58 63 30
f 58 30 28
f 63 59 24
f 63 24 30
f 59 26 24
f 59 63 64
f 59 64 60
f 60 64 65
f 60 65 66
f 60 66 61
f 61 66 67
f 61 67 62
f 62 67 68
f 62 68 64
f 62 64 63
f 64 68 65
f 65 68 69
f 65 69 70
f 65 70 66
f 66 70 71
f 66 71 67
f 67 71 72
f 67 72 68
f 68 72 69
f 69 72 71
f 69 71 70
f 73 74 38
f 73 38 36
f 73 36 75
f 73 75 76
f 73 76 77
f 73 77 74
f 74 77 78
f 74 78 79
f 74 79 40
f 74 40 38
f 79 75 34
f 79 34 40
f 75 36 34
f 75 79 80
f 75 80 76
f 76 80 81
f 76 81 82
f 76 82 77
f 77 82 83
f 77 83 78
f 78 83 84
f 78 84 80
f 78 80 79
f 80 84 81
f 81 84 85
f 81 85 86
f 81 86 82
f 82 86 87
f 82 87 83
f 83 87 88
f 83 88 84
f 84 88 85
f 85 88 87
f 85 87 86
f 89 90 18
f 89 18 16
f 89 16 91
f 89 91 92
f 89 92 93
f 89 93 90
f 90 93 94
f 90 94 95
f 90 95 20
f 90 20 18
f 95 91 14
f 95 14 20
f 91 16 14
f 91 95 96
f 91 96 92
f 92 96 97
f 92 97 98
f 92 98 93
f 93 98 99
f 93 99 94
f 94 99 100
f 94 100 96
f 94 96 95
f 96 100 97
f 97 100 101
f 97 101 102
f 97 102 98
f 98 102 103
f 98 103 99
f 99 103 104
f 99 104 100
f 100 104 101
f 101 104 103
f 101 103 102
