# RS2 Model 16693
# Vertices: 27
# Faces: 28

v -24 -30 184
v -64 -30 184
v -64 -30 176
v -24 -30 176
v -30 -7 180
v -64 2 181
v -23 35 184
v -63 35 184
v -23 35 176
v -63 35 176
v -28 3 173
v -52 -22 176
v -64 -22 160
v -64 -26 160
v -52 -26 176
v -64 -26 150
v -44 -26 176
v -64 -22 150
v -44 -22 176
v -51 31 176
v -63 31 160
v -63 27 160
v -51 27 176
v -63 27 150
v -43 27 176
v -63 31 150
v -43 31 176

f 1 2 3
f 1 3 4
f 1 4 5
f 1 5 2
f 2 5 6
f 6 5 7
f 6 7 8
f 8 7 9
f 8 9 10
f 5 4 11
f 5 11 7
f 7 11 9
f 12 13 14
f 12 14 15
f 15 14 16
f 15 16 17
f 17 16 18
f 17 18 19
f 19 18 13
f 19 13 12
f 20 21 22
f 20 22 23
f 23 22 24
f 23 24 25
f 25 24 26
f 25 26 27
f 27 26 21
f 27 21 20
