# RS2 Model 16706
# Vertices: 45
# Faces: 75

v -1 3 165
v -1 11 172
v -8 14 169
v -18 7 160
v -5 2 161
v 8 2 163
v 18 7 162
v 8 14 168
v 7 16 172
v -1 14 173
v -7 16 172
v -8 24 161
v -23 14 161
v -23 12 160
v -23 21 152
v -23 23 153
v -18 27 145
v -18 29 146
v -10 32 140
v -10 35 139
v 0 35 135
v 0 36 135
v 12 32 140
v 12 35 139
v 18 27 145
v 18 29 146
v 23 21 152
v 23 23 153
v 23 12 160
v 23 14 161
v 18 7 160
v 0 31 149
v 0 28 156
v 7 25 158
v -5 27 164
v 0 31 162
v 5 27 164
v 11 24 166
v 10 22 163
v 9 26 168
v 5 20 174
v 0 17 175
v -5 20 174
v -9 26 168
v 0 28 171

f 1 2 3
f 1 3 4
f 1 4 5
f 1 5 6
f 1 6 7
f 1 7 8
f 1 8 2
f 2 8 9
f 2 9 10
f 2 10 3
f 3 10 11
f 3 11 12
f 3 12 4
f 4 12 13
f 4 13 14
f 14 13 15
f 15 13 16
f 15 16 17
f 17 16 18
f 17 18 19
f 19 18 20
f 19 20 21
f 21 20 22
f 21 22 23
f 23 22 24
f 23 24 25
f 25 24 26
f 25 26 27
f 27 26 28
f 27 28 29
f 29 28 30
f 29 30 31
f 31 30 7
f 31 7 6
f 32 33 34
f 32 34 26
f 32 26 24
f 32 24 22
f 32 22 20
f 32 20 18
f 32 18 12
f 32 12 33
f 33 12 35
f 33 35 36
f 33 36 34
f 34 36 37
f 34 37 38
f 34 38 39
f 34 39 26
f 26 39 28
f 28 39 30
f 30 39 7
f 7 39 8
f 8 39 38
f 8 38 9
f 9 38 40
f 9 40 41
f 9 41 10
f 10 41 42
f 10 42 11
f 11 42 43
f 11 43 12
f 12 43 44
f 12 44 35
f 35 44 45
f 35 45 36
f 36 45 37
f 37 45 40
f 37 40 38
f 12 16 13
f 16 12 18
f 42 41 45
f 42 45 43
f 43 45 44
f 41 40 45
