# RS2 Model 1672
# Vertices: 155
# Faces: 77

v 0 89 44
v 22 91 45
v 31 108 0
v -8 105 0
v -10 65 43
v -23 64 0
v 1 40 45
v -5 20 0
v 23 40 46
v 32 22 0
v 34 66 45
v 51 65 0
v -5 41 64
v 33 41 63
v 46 71 0
v -20 71 0
v -28 -2 61
v -51 -1 0
v -13 -37 62
v -24 -77 0
v 33 -38 62
v 43 -75 0
v 44 -2 61
v 73 -1 0
v 46 3 81
v 30 36 82
v 12 2 95
v 30 -36 77
v 42 -62 37
v 63 -5 39
v 36 55 40
v -4 35 80
v -24 0 81
v -6 -37 77
v -23 -62 37
v -16 56 40
v -45 -2 41
v 22 91 52
v 32 64 53
v 43 64 29
v 29 98 29
v 0 91 51
v 11 65 63
v 21 40 52
v 28 29 29
v -1 41 51
v -5 30 29
v -13 66 49
v -3 98 29
v -21 66 29
v -26 -24 101
v -27 -64 39
v 55 -22 100
v 12 -56 97
v 41 -68 35
v 40 16 98
v 44 -12 99
v 70 -4 37
v 14 56 99
v -4 -57 100
v -25 -68 37
v -30 13 101
v -22 -12 98
v -48 -1 38
v 6 49 99
v -21 44 60
v -22 72 -1
v 43 48 62
v 55 -9 98
v 49 61 71
v -23 -15 96
v 6 36 104
v -54 13 68
v 45 -37 95
v -14 49 52
v -27 52 0
v 10 107 51
v 12 108 48
v 29 115 0
v 37 54 48
v 9 21 52
v -6 16 1
v -14 79 51
v -19 52 82
v -32 55 30
v 12 107 80
v 9 103 75
v 26 110 27
v 31 48 74
v 12 22 80
v -3 17 29
v -11 80 79
v -34 59 35
v 6 32 66
v -7 112 39
v 9 39 66
v 53 58 41
v -10 87 66
v -17 61 65
v 3 17 42
v 28 84 65
v -22 -30 95
v 44 -55 58
v 13 35 103
v -26 -37 61
v -27 -77 -1
v 55 -35 60
v 25 -58 68
v 44 -70 1
v 55 16 66
v 50 -10 59
v 76 -2 -3
v 27 62 62
v -6 -60 62
v -27 -71 -1
v -31 11 62
v -29 -2 61
v -52 2 -2
v -3 59 61
v -20 28 97
v -21 56 36
v 44 32 99
v 12 -40 99
v 74 -3 67
v -19 28 101
v 41 30 100
v -12 64 66
v 0 -41 102
v -26 6 94
v -24 -59 65
v 47 9 94
v -16 89 50
v -20 104 -1
v 43 93 50
v 43 83 47
v 59 74 1
v 19 29 46
v 46 38 47
v 42 18 1
v -12 40 46
v -18 83 79
v -17 99 28
v 39 83 80
v 35 87 75
v 51 78 29
v 11 33 74
v 48 47 73
v 44 27 27
v -10 49 72
v 37 50 68
v 36 110 42
v -15 50 64
v 6 93 64
v -34 68 35
v 32 42 70

f 1 2 3
f 1 3 4
f 1 4 5
f 5 4 6
f 5 6 7
f 7 6 8
f 7 8 9
f 9 8 10
f 9 10 11
f 11 10 12
f 11 12 2
f 2 12 3
f 13 14 15
f 13 15 16
f 13 16 17
f 17 16 18
f 17 18 19
f 19 18 20
f 19 20 21
f 21 20 22
f 21 22 23
f 23 22 24
f 23 24 14
f 14 24 15
f 25 26 27
f 25 27 28
f 25 28 29
f 25 29 30
f 25 30 26
f 26 30 31
f 26 31 32
f 26 32 27
f 27 32 33
f 27 33 34
f 27 34 28
f 28 34 35
f 28 35 29
f 33 32 36
f 33 36 37
f 33 37 34
f 34 37 35
f 32 31 36
f 38 39 40
f 38 40 41
f 38 41 42
f 38 42 43
f 38 43 39
f 39 43 44
f 39 44 45
f 39 45 40
f 44 46 47
f 44 47 45
f 48 42 49
f 48 49 50
f 48 50 46
f 48 46 43
f 48 43 42
f 42 41 49
f 46 50 47
f 46 44 43
f 51 52 53
f 54 55 56
f 57 58 59
f 60 61 62
f 63 64 65
f 66 67 68
f 69 70 71
f 72 73 74
f 75 76 77
f 78 79 80
f 81 82 83
f 84 85 86
f 87 88 89
f 90 91 92
f 93 94 95
f 96 97 98
f 99 100 101
