# RS2 Model 16777
# Vertices: 76
# Faces: 156

v -16 8 81
v -16 -8 81
v -2 -8 74
v -2 8 74
v -18 8 64
v -28 8 76
v -20 8 92
v -20 -8 92
v -28 -8 76
v -18 -8 64
v 14 -8 64
v 11 -8 81
v 11 8 81
v 14 8 64
v -2 8 52
v -18 8 47
v -32 8 49
v -34 -8 88
v -34 8 88
v -34 8 96
v -28 8 108
v -16 8 101
v -16 -8 101
v -28 -8 108
v -34 -8 96
v 17 -8 92
v 17 8 92
v 26 8 74
v 29 -8 49
v 29 8 49
v 13 8 47
v -2 -8 52
v -18 -8 47
v -23 -8 31
v -23 8 31
v -39 8 37
v -32 -8 49
v 13 -8 47
v 19 -8 31
v 36 -8 37
v 36 8 37
v 19 8 31
v 32 8 88
v 32 -8 88
v 26 -8 74
v 32 8 96
v 32 -8 96
v -1 8 106
v -1 -8 106
v -12 8 119
v 9 8 119
v 11 8 101
v 11 -8 101
v 9 -8 119
v -12 -8 119
v 26 -8 108
v 26 8 108
v -18 8 20
v -18 -8 20
v -2 -8 14
v -2 8 14
v -14 8 0
v -32 8 13
v -32 -8 13
v -14 -8 0
v 10 -8 0
v 13 -8 20
v 13 8 20
v 10 8 0
v -39 -8 25
v -39 8 25
v -39 -8 37
v 29 8 10
v 29 -8 10
v 36 8 25
v 36 -8 25

f 1 2 3
f 1 3 4
f 1 4 5
f 1 5 6
f 1 6 7
f 1 7 2
f 2 7 8
f 2 8 9
f 2 9 10
f 2 10 3
f 3 10 11
f 3 11 12
f 3 12 4
f 4 12 13
f 4 13 14
f 4 14 5
f 5 14 15
f 5 15 16
f 5 16 17
f 5 17 10
f 5 10 9
f 5 9 6
f 6 9 18
f 6 18 19
f 6 19 7
f 7 19 20
f 7 20 21
f 7 21 22
f 7 22 8
f 8 22 23
f 8 23 24
f 8 24 25
f 8 25 18
f 8 18 9
f 13 12 26
f 13 26 27
f 13 27 28
f 13 28 14
f 14 28 11
f 14 11 29
f 14 29 30
f 14 30 31
f 14 31 15
f 15 31 32
f 15 32 33
f 15 33 16
f 16 33 34
f 16 34 35
f 16 35 17
f 17 35 36
f 17 36 37
f 17 37 10
f 10 37 33
f 10 33 32
f 10 32 11
f 11 32 38
f 11 38 29
f 29 38 39
f 29 39 40
f 29 40 30
f 30 40 41
f 30 41 42
f 30 42 31
f 31 42 38
f 31 38 32
f 43 44 45
f 43 45 28
f 43 28 27
f 43 27 46
f 43 46 44
f 44 46 47
f 44 47 26
f 44 26 45
f 45 26 12
f 45 12 11
f 45 11 28
f 48 49 23
f 48 23 22
f 48 22 50
f 48 50 51
f 48 51 52
f 48 52 49
f 49 52 53
f 49 53 54
f 49 54 55
f 49 55 23
f 23 55 24
f 24 55 21
f 24 21 20
f 24 20 25
f 25 20 19
f 25 19 18
f 21 55 50
f 21 50 22
f 50 55 54
f 50 54 51
f 51 54 56
f 51 56 57
f 51 57 52
f 52 57 27
f 52 27 53
f 53 27 26
f 53 26 56
f 53 56 54
f 57 56 47
f 57 47 46
f 57 46 27
f 26 47 56
f 58 59 60
f 58 60 61
f 58 61 62
f 58 62 63
f 58 63 35
f 58 35 59
f 59 35 34
f 59 34 64
f 59 64 65
f 59 65 60
f 60 65 66
f 60 66 67
f 60 67 61
f 61 67 68
f 61 68 69
f 61 69 62
f 62 69 65
f 62 65 64
f 62 64 63
f 63 64 70
f 63 70 71
f 63 71 35
f 35 71 36
f 36 71 72
f 36 72 37
f 37 72 34
f 37 34 33
f 69 66 65
f 66 69 73
f 66 73 74
f 66 74 67
f 67 74 39
f 67 39 68
f 68 39 42
f 68 42 73
f 68 73 69
f 34 70 64
f 70 34 72
f 70 72 71
f 75 76 74
f 75 74 73
f 75 73 42
f 75 42 41
f 75 41 76
f 76 41 40
f 76 40 39
f 76 39 74
f 42 39 38
