# RS2 Model 16770
# Vertices: 96
# Faces: 168

v -8 41 17
v -8 -39 17
v -18 -39 0
v -18 41 0
v -23 35 8
v -17 35 17
v -19 41 34
v -19 -39 34
v -24 -33 26
v -17 -33 17
v -23 -33 8
v -37 -39 0
v -32 -33 8
v -48 -39 17
v -37 41 0
v -48 41 17
v -39 35 17
v -33 35 8
v -33 35 26
v -23 35 26
v -38 41 34
v -38 -39 34
v -33 -33 26
v -39 -33 17
v 49 41 17
v 49 -39 17
v 39 -39 0
v 39 41 0
v 34 35 8
v 40 35 17
v 38 41 34
v 38 -39 34
v 33 -33 26
v 40 -33 17
v 34 -33 8
v 20 -39 0
v 25 -33 8
v 9 -39 17
v 20 41 0
v 9 41 17
v 18 35 17
v 24 35 8
v 24 35 26
v 34 35 26
v 19 41 34
v 19 -39 34
v 24 -33 26
v 18 -33 17
v 40 9 51
v -40 9 51
v -40 19 34
v 40 19 34
v 34 24 42
v 34 18 51
v 40 20 68
v -40 20 68
v -34 25 60
v -34 18 51
v -34 24 42
v -40 38 34
v -34 33 42
v -40 49 51
v 40 38 34
v 40 49 51
v 34 40 51
v 34 34 42
v 34 34 60
v 34 24 60
v 40 39 68
v -40 39 68
v -34 34 60
v -34 40 51
v 40 -48 51
v -40 -48 51
v -40 -38 34
v 40 -38 34
v 34 -33 42
v 34 -39 51
v 40 -37 68
v -40 -37 68
v -34 -32 60
v -34 -39 51
v -34 -33 42
v -40 -19 34
v -34 -24 42
v -40 -8 51
v 40 -19 34
v 40 -8 51
v 34 -17 51
v 34 -23 42
v 34 -23 60
v 34 -33 60
v 40 -18 68
v -40 -18 68
v -34 -23 60
v -34 -17 51

f 1 2 3
f 1 3 4
f 1 4 5
f 1 5 6
f 1 6 7
f 1 7 2
f 2 7 8
f 2 8 9
f 2 9 10
f 2 10 3
f 3 10 11
f 3 11 12
f 12 11 13
f 12 13 14
f 12 14 15
f 15 14 16
f 15 16 17
f 15 17 18
f 15 18 4
f 4 18 5
f 5 18 6
f 6 18 17
f 6 17 19
f 6 19 20
f 6 20 7
f 7 20 21
f 7 21 8
f 8 21 22
f 8 22 23
f 8 23 9
f 9 23 24
f 9 24 13
f 9 13 11
f 9 11 10
f 16 14 22
f 16 22 21
f 16 21 19
f 16 19 17
f 14 13 24
f 14 24 22
f 22 24 23
f 21 20 19
f 25 26 27
f 25 27 28
f 25 28 29
f 25 29 30
f 25 30 31
f 25 31 26
f 26 31 32
f 26 32 33
f 26 33 34
f 26 34 27
f 27 34 35
f 27 35 36
f 36 35 37
f 36 37 38
f 36 38 39
f 39 38 40
f 39 40 41
f 39 41 42
f 39 42 28
f 28 42 29
f 29 42 30
f 30 42 41
f 30 41 43
f 30 43 44
f 30 44 31
f 31 44 45
f 31 45 32
f 32 45 46
f 32 46 47
f 32 47 33
f 33 47 48
f 33 48 37
f 33 37 35
f 33 35 34
f 40 38 46
f 40 46 45
f 40 45 43
f 40 43 41
f 38 37 48
f 38 48 46
f 46 48 47
f 45 44 43
f 49 50 51
f 49 51 52
f 49 52 53
f 49 53 54
f 49 54 55
f 49 55 50
f 50 55 56
f 50 56 57
f 50 57 58
f 50 58 51
f 51 58 59
f 51 59 60
f 60 59 61
f 60 61 62
f 60 62 63
f 63 62 64
f 63 64 65
f 63 65 66
f 63 66 52
f 52 66 53
f 53 66 54
f 54 66 65
f 54 65 67
f 54 67 68
f 54 68 55
f 55 68 69
f 55 69 56
f 56 69 70
f 56 70 71
f 56 71 57
f 57 71 72
f 57 72 61
f 57 61 59
f 57 59 58
f 64 62 70
f 64 70 69
f 64 69 67
f 64 67 65
f 62 61 72
f 62 72 70
f 70 72 71
f 69 68 67
f 73 74 75
f 73 75 76
f 73 76 77
f 73 77 78
f 73 78 79
f 73 79 74
f 74 79 80
f 74 80 81
f 74 81 82
f 74 82 75
f 75 82 83
f 75 83 84
f 84 83 85
f 84 85 86
f 84 86 87
f 87 86 88
f 87 88 89
f 87 89 90
f 87 90 76
f 76 90 77
f 77 90 78
f 78 90 89
f 78 89 91
f 78 91 92
f 78 92 79
f 79 92 93
f 79 93 80
f 80 93 94
f 80 94 95
f 80 95 81
f 81 95 96
f 81 96 85
f 81 85 83
f 81 83 82
f 88 86 94
f 88 94 93
f 88 93 91
f 88 91 89
f 86 85 96
f 86 96 94
f 94 96 95
f 93 92 91
