# RS2 Model 16831
# Vertices: 83
# Faces: 106

v 5 -12 154
v 2 -10 156
v 0 -14 154
v 2 -14 153
v 5 -13 151
v 6 -14 151
v 3 -16 150
v 5 -15 149
v 3 -15 147
v 1 -16 149
v 0 -16 148
v 0 -16 147
v 2 -16 144
v 0 -17 144
v -2 -16 144
v -3 -15 147
v -1 -16 149
v -3 -16 150
v -5 -15 149
v -6 -14 151
v -5 -13 151
v -5 -12 154
v -2 -14 153
v -2 -10 156
v 0 -10 156
v 0 -15 151
v 1 -15 152
v -1 -15 152
v -3 -15 150
v 0 -16 150
v 3 -15 150
v 3 -14 151
v 0 -16 149
v -3 -14 151
v 2 -17 139
v 2 -17 137
v 3 -18 138
v 2 -17 140
v 3 -17 141
v 5 -17 139
v 6 -16 142
v 7 -16 141
v 9 -15 140
v 7 -16 136
v 4 -17 136
v 3 -16 136
v -3 -16 132
v -3 -16 130
v -4 -17 132
v -6 -17 131
v -4 -16 128
v -7 -15 127
v -8 -15 127
v -9 -14 129
v -8 -16 133
v -5 -17 133
v -4 -17 133
v 3 -19 133
v 2 -18 132
v 3 -19 131
v 4 -19 133
v 5 -19 130
v 7 -19 132
v 8 -17 130
v 7 -17 128
v 6 -17 127
v 3 -17 127
v 2 -17 130
v 2 -17 131
v -3 -18 137
v -3 -18 138
v -4 -18 137
v -4 -19 138
v -5 -19 139
v -7 -18 138
v -6 -17 140
v -7 -17 140
v -2 -18 139
v -3 -18 141
v -5 -18 142
v 12 -9 154
v -12 -11 154
v 12 -14 131

f 1 2 3
f 1 3 4
f 1 4 5
f 1 5 6
f 6 5 7
f 6 7 8
f 8 7 9
f 9 7 10
f 9 10 11
f 9 11 12
f 9 12 13
f 13 12 14
f 14 12 15
f 15 12 16
f 16 12 11
f 16 11 17
f 16 17 18
f 16 18 19
f 19 18 20
f 20 18 21
f 20 21 22
f 22 21 23
f 22 23 3
f 22 3 24
f 24 3 25
f 25 3 2
f 26 27 4
f 26 4 3
f 26 3 23
f 26 23 28
f 26 28 29
f 26 29 18
f 26 18 17
f 26 17 30
f 26 30 10
f 26 10 7
f 26 7 31
f 26 31 27
f 27 31 32
f 27 32 4
f 4 32 5
f 5 32 31
f 5 31 7
f 11 10 33
f 11 33 17
f 17 33 30
f 30 33 10
f 21 34 23
f 23 34 28
f 28 34 29
f 29 34 21
f 29 21 18
f 35 36 37
f 35 37 38
f 38 37 39
f 39 37 40
f 39 40 41
f 41 40 42
f 42 40 43
f 43 40 44
f 44 40 45
f 45 40 37
f 45 37 46
f 46 37 36
f 46 36 47
f 46 47 48
f 48 47 49
f 48 49 50
f 48 50 51
f 51 50 52
f 52 50 53
f 53 50 54
f 54 50 55
f 55 50 56
f 56 50 49
f 56 49 47
f 56 47 57
f 57 47 36
f 57 36 35
f 58 59 60
f 58 60 61
f 61 60 62
f 61 62 63
f 63 62 64
f 64 62 65
f 65 62 66
f 66 62 67
f 67 62 68
f 68 62 60
f 68 60 69
f 69 60 59
f 69 59 70
f 70 59 71
f 70 71 72
f 72 71 73
f 72 73 74
f 72 74 75
f 75 74 76
f 75 76 77
f 71 78 73
f 73 78 74
f 74 78 79
f 74 79 80
f 74 80 76
f 58 78 71
f 58 71 59
