# RS2 Model 16901
# Vertices: 24
# Faces: 22

v -54 43 5
v -48 -64 6
v -22 -64 7
v -28 45 6
v -28 46 1
v -54 44 0
v -48 -64 1
v -22 -64 2
v 1 45 6
v -6 -64 7
v 20 -64 8
v 27 44 7
v 27 45 1
v 1 46 0
v -6 -64 1
v 20 -64 2
v -64 -5 8
v -64 -31 8
v 30 -60 8
v 35 -35 8
v -64 -5 2
v 35 -35 2
v -64 -31 2
v 30 -60 2

f 1 2 3
f 1 3 4
f 1 4 5
f 1 5 6
f 1 6 2
f 2 6 7
f 4 3 8
f 4 8 5
f 9 10 11
f 9 11 12
f 9 12 13
f 9 13 14
f 9 14 10
f 10 14 15
f 12 11 16
f 12 16 13
f 17 18 19
f 17 19 20
f 17 20 21
f 21 20 22
f 18 23 24
f 18 24 19
