# RS2 Model 16918
# Vertices: 113
# Faces: 139

v -32 64 292
v -64 64 292
v -64 -64 292
v -32 -64 292
v -32 64 0
v -64 64 0
v -64 -64 0
v -32 -64 0
v -36 -50 -15
v -36 50 -15
v 42 44 -4
v 64 64 0
v 64 -64 0
v 43 -48 -4
v 29 -43 -40
v 1 -34 -76
v -46 -48 -23
v -46 48 -23
v 31 40 -40
v 1 34 -76
v -58 27 -93
v -58 -27 -93
v -60 -25 -33
v -60 25 -33
v 56 -35 18
v 55 -40 18
v 62 -43 0
v 64 -34 0
v 42 -33 41
v 56 -18 18
v 55 -23 18
v 63 -26 0
v 64 -17 0
v 48 -19 33
v 56 2 13
v 54 -3 13
v 62 -6 0
v 64 3 0
v 36 -5 36
v 56 16 18
v 55 11 18
v 63 8 0
v 64 17 0
v 43 11 36
v 57 36 18
v 55 31 18
v 63 28 0
v 65 37 0
v 43 36 36
v 49 57 18
v 55 56 18
v 55 63 0
v 46 65 0
v 55 47 36
v 30 57 18
v 36 56 18
v 38 64 0
v 29 65 0
v 30 47 36
v 11 56 12
v 16 55 12
v 18 63 0
v 9 64 0
v 19 39 28
v -4 57 18
v 1 56 18
v 4 63 0
v -5 64 0
v -7 47 35
v -23 57 15
v -17 55 15
v -16 63 0
v -25 65 0
v -13 40 36
v -19 -56 18
v -25 -55 18
v -27 -63 0
v -18 -64 0
v -18 -45 30
v -2 -56 12
v -8 -55 12
v -10 -63 0
v -1 -64 0
v -2 -39 36
v 18 -55 18
v 12 -54 18
v 10 -62 0
v 19 -63 0
v 13 -46 28
v 32 -55 18
v 26 -54 18
v 24 -62 0
v 33 -63 0
v 33 -39 30
v 53 -55 10
v 47 -54 10
v 44 -62 0
v 53 -63 0
v 46 -41 36
v 42 45 18
v 35 33 36
v 46 41 18
v 46 52 0
v 52 46 0
v 40 -45 18
v 34 -33 36
v 35 -47 18
v 44 -53 0
v 36 -54 0
v 64 -64 292
v -23 -64 -5
v 72 -65 3
v -22 63 -6

f 1 2 3
f 1 3 4
f 1 4 5
f 1 5 6
f 1 6 2
f 2 6 7
f 2 7 3
f 3 7 8
f 3 8 4
f 4 8 5
f 5 8 9
f 5 9 10
f 5 10 11
f 5 11 12
f 12 11 13
f 13 11 14
f 13 14 8
f 8 14 15
f 8 15 9
f 9 15 16
f 9 16 17
f 9 17 10
f 10 17 18
f 10 18 19
f 10 19 11
f 11 19 14
f 14 19 15
f 15 19 20
f 15 20 16
f 16 20 21
f 16 21 22
f 16 22 17
f 17 22 23
f 17 23 18
f 18 23 24
f 18 24 20
f 18 20 19
f 25 26 27
f 25 27 28
f 25 28 26
f 25 26 29
f 25 29 26
f 28 27 26
f 30 31 32
f 30 32 33
f 30 33 31
f 30 31 34
f 30 34 31
f 33 32 31
f 35 36 37
f 35 37 38
f 35 38 36
f 35 36 39
f 35 39 36
f 38 37 36
f 40 41 42
f 40 42 43
f 40 43 41
f 40 41 44
f 40 44 41
f 43 42 41
f 45 46 47
f 45 47 48
f 45 48 46
f 45 46 49
f 45 49 46
f 48 47 46
f 50 51 52
f 50 52 53
f 50 53 51
f 50 51 54
f 50 54 51
f 53 52 51
f 55 56 57
f 55 57 58
f 55 58 56
f 55 56 59
f 55 59 56
f 58 57 56
f 60 61 62
f 60 62 63
f 60 63 61
f 60 61 64
f 60 64 61
f 63 62 61
f 65 66 67
f 65 67 68
f 65 68 66
f 65 66 69
f 65 69 66
f 68 67 66
f 70 71 72
f 70 72 73
f 70 73 71
f 70 71 74
f 70 74 71
f 73 72 71
f 75 76 77
f 75 77 78
f 75 78 76
f 75 76 79
f 75 79 76
f 78 77 76
f 80 81 82
f 80 82 83
f 80 83 81
f 80 81 84
f 80 84 81
f 83 82 81
f 85 86 87
f 85 87 88
f 85 88 86
f 85 86 89
f 85 89 86
f 88 87 86
f 90 91 92
f 90 92 93
f 90 93 91
f 90 91 94
f 90 94 91
f 93 92 91
f 95 96 97
f 95 97 98
f 95 98 96
f 95 96 99
f 95 99 96
f 98 97 96
f 100 101 102
f 100 102 101
f 102 100 103
f 102 103 104
f 105 106 107
f 105 107 106
f 107 105 108
f 107 108 109
f 21 24 23
f 21 23 22
f 24 21 20
f 13 110 7
