# RS2 Model 16946
# Vertices: 56
# Faces: 104

v 27 -4 74
v 30 -8 66
v 29 -1 62
v 30 6 67
v 27 2 74
v 31 8 74
v 31 -11 74
v 20 -4 74
v 24 -8 66
v 24 -1 62
v 24 6 67
v 20 2 74
v 17 8 74
v 27 5 94
v 27 -8 94
v 17 -11 74
v 19 -1 67
v -29 -1 62
v -30 -8 66
v -27 -4 74
v -30 6 67
v -24 -1 62
v -24 -8 66
v -20 -4 74
v -17 -11 74
v -30 -11 74
v -27 2 74
v -24 6 67
v -19 -1 67
v -20 2 74
v -17 8 74
v -16 -8 93
v -27 -8 95
v -27 5 95
v -30 8 74
v 16 5 93
v 12 6 111
v 24 6 111
v 24 -8 111
v 16 -8 93
v 12 -10 111
v 12 2 111
v 12 2 121
v 21 1 118
v 21 -5 118
v 12 -6 121
v -12 -6 121
v -12 2 121
v -21 1 118
v -21 -5 118
v -12 -10 111
v -12 2 111
v -12 6 111
v -24 6 111
v -24 -8 111
v -16 5 93

f 1 2 3
f 1 3 4
f 1 4 5
f 1 5 6
f 1 6 7
f 1 7 8
f 1 8 9
f 1 9 2
f 2 9 10
f 2 10 3
f 3 10 11
f 3 11 4
f 4 11 5
f 5 11 12
f 5 12 13
f 5 13 6
f 6 13 14
f 6 14 7
f 7 14 15
f 7 15 16
f 7 16 8
f 8 16 12
f 8 12 17
f 8 17 9
f 9 17 10
f 10 17 11
f 11 17 12
f 18 19 20
f 18 20 21
f 18 21 22
f 18 22 23
f 18 23 19
f 19 23 20
f 20 23 24
f 20 24 25
f 20 25 26
f 20 26 27
f 20 27 21
f 21 27 28
f 21 28 22
f 22 28 29
f 22 29 23
f 23 29 24
f 24 29 30
f 24 30 31
f 24 31 25
f 25 31 32
f 25 32 33
f 25 33 26
f 26 33 34
f 26 34 35
f 26 35 27
f 27 35 30
f 27 30 28
f 28 30 29
f 14 13 36
f 14 36 37
f 14 37 38
f 14 38 15
f 15 38 39
f 15 39 40
f 15 40 16
f 16 40 13
f 16 13 12
f 40 36 13
f 36 40 41
f 36 41 42
f 36 42 37
f 37 42 43
f 37 43 38
f 38 43 44
f 38 44 39
f 39 44 45
f 39 45 41
f 39 41 40
f 44 43 46
f 44 46 45
f 45 46 41
f 41 46 43
f 41 43 42
f 47 48 49
f 47 49 50
f 47 50 51
f 47 51 48
f 48 51 52
f 48 52 53
f 48 53 54
f 48 54 49
f 49 54 55
f 49 55 50
f 50 55 51
f 51 55 32
f 51 32 56
f 51 56 52
f 52 56 53
f 53 56 34
f 53 34 54
f 54 34 33
f 54 33 55
f 55 33 32
f 31 35 34
f 31 34 56
f 31 56 32
f 35 31 30
