# RS2 Model 16945
# Vertices: 181
# Faces: 337

v -40 -16 10
v -40 -8 10
v -40 -12 2
v -32 -18 -12
v -32 -27 4
v -32 -36 6
v -40 -24 26
v -40 -8 18
v -44 -8 18
v -44 8 14
v -40 -4 -2
v -32 16 -14
v -12 -12 -34
v -28 -32 -11
v -11 -44 -2
v -16 -44 14
v -22 -44 21
v -27 -41 22
v -32 -48 30
v -28 -44 50
v -40 0 54
v -40 4 22
v -44 4 22
v -40 8 14
v -32 40 38
v -20 32 -18
v -28 40 -50
v -28 -8 -54
v 12 -12 -34
v -9 -36 -36
v -9 -42 -16
v -13 -41 -14
v -10 -42 -14
v -3 -44 -11
v -4 -44 -2
v -11 -47 -2
v -12 -47 2
v -12 -44 2
v -9 -44 5
v -4 -44 22
v -6 -44 22
v -15 -46 19
v -21 -44 23
v -13 -44 30
v -16 -52 32
v -26 -51 38
v 0 -44 50
v 0 -40 58
v -20 8 74
v 28 -44 50
v 26 -51 38
v 32 -48 30
v 40 -24 26
v 40 0 54
v 20 8 74
v 0 32 58
v 32 40 38
v 20 32 -18
v 28 40 -50
v 28 -8 -54
v 40 4 22
v 40 8 14
v 32 16 -14
v 32 -18 -12
v 28 -32 -11
v 8 -36 -36
v 0 -43 -17
v 0 -41 -16
v -9 -41 -15
v -3 -44 -13
v 3 -44 -11
v 4 -44 -2
v 1 -49 -2
v -1 -49 -2
v 1 -52 -2
v -1 -52 -2
v 3 -56 0
v -3 -56 0
v -11 -50 -2
v -12 -50 2
v -1 -57 5
v -9 -47 5
v 0 -54 11
v 0 -49 20
v 0 -52 30
v -7 -44 24
v -14 -47 26
v -7 -52 32
v -6 -53 38
v 6 -53 38
v 16 -52 32
v 13 -44 30
v 21 -44 23
v 26 -41 22
v 32 -36 6
v 40 -16 10
v 40 -8 18
v 44 -8 18
v 44 4 22
v 44 8 14
v 40 -4 -2
v 40 -12 2
v 32 -27 4
v 11 -44 -2
v 10 -42 -14
v 13 -41 -14
v 9 -42 -16
v 9 -41 -15
v 3 -44 -13
v 11 -47 -2
v 12 -44 2
v 12 -47 2
v 11 -50 -2
v 12 -50 2
v 1 -57 5
v 7 -52 32
v 7 -44 24
v 14 -47 26
v 22 -44 21
v 16 -44 14
v 9 -44 5
v 9 -47 5
v 40 -8 10
v 12 -48 22
v 6 -44 22
v 4 -44 22
v 15 -46 19
v -12 -48 22
v 22 -35 -40
v 10 -49 -12
v 8 -45 -14
v 9 -42 -15
v 0 -51 -11
v -8 -45 -14
v -10 -49 -12
v -22 -35 -40
v -9 -42 -15
v -6 -49 -19
v 6 -49 -19
v 18 -35 -50
v -18 -35 -50
v 0 -49 -53
v -8 -52 -47
v 8 -52 -47
v 8 -56 -34
v -8 -56 -34
v 17 -48 22
v -17 -48 22
v 12 -47 23
v 12 -47 21
v 13 -47 20
v 15 -47 20
v 16 -47 21
v 16 -47 23
v 15 -47 24
v 13 -47 24
v 13 -46 25
v 11 -46 23
v 11 -46 21
v 13 -46 19
v 17 -46 21
v 17 -46 23
v 15 -46 25
v -13 -47 24
v -15 -47 24
v -16 -47 23
v -16 -47 21
v -15 -47 20
v -13 -47 20
v -12 -47 21
v -12 -47 23
v -11 -46 23
v -13 -46 25
v -15 -46 25
v -17 -46 23
v -17 -46 21
v -13 -46 19
v -11 -46 21
v -23 -34 -43
v 23 -34 -43
v -23 -48 -5

f 1 2 3
f 1 3 4
f 1 4 5
f 1 5 6
f 1 6 7
f 1 7 8
f 1 8 2
f 2 8 9
f 2 9 10
f 2 10 3
f 3 10 11
f 3 11 4
f 4 11 12
f 4 12 13
f 4 13 14
f 4 14 5
f 5 14 6
f 6 14 15
f 6 15 16
f 6 16 17
f 6 17 18
f 6 18 7
f 7 18 19
f 7 19 20
f 7 20 21
f 7 21 8
f 8 21 22
f 8 22 9
f 9 22 23
f 9 23 10
f 10 23 24
f 10 24 11
f 11 24 12
f 12 24 25
f 12 25 26
f 12 26 13
f 13 26 27
f 13 27 28
f 13 28 29
f 13 29 30
f 13 30 14
f 14 30 31
f 14 31 32
f 14 32 33
f 14 33 15
f 15 33 34
f 15 34 35
f 15 35 36
f 15 36 37
f 15 37 38
f 15 38 16
f 16 38 39
f 16 39 40
f 16 40 41
f 16 41 42
f 16 42 17
f 17 42 43
f 17 43 18
f 18 43 19
f 19 43 44
f 19 44 45
f 19 45 46
f 19 46 20
f 20 46 47
f 20 47 48
f 20 48 49
f 20 49 21
f 21 49 25
f 21 25 22
f 22 25 24
f 22 24 23
f 50 48 47
f 50 47 51
f 50 51 52
f 50 52 53
f 50 53 54
f 50 54 55
f 50 55 48
f 48 55 49
f 49 55 56
f 49 56 25
f 25 56 57
f 25 57 26
f 26 57 58
f 26 58 27
f 27 58 59
f 59 58 29
f 59 29 60
f 60 29 28
f 56 55 57
f 57 55 54
f 57 54 61
f 57 61 62
f 57 62 63
f 57 63 58
f 58 63 29
f 29 63 64
f 29 64 65
f 29 65 66
f 29 66 30
f 30 66 67
f 30 67 31
f 31 67 68
f 31 68 69
f 31 69 32
f 32 69 33
f 33 69 68
f 33 68 70
f 33 70 34
f 34 70 71
f 34 71 72
f 34 72 35
f 35 72 73
f 35 73 74
f 74 73 75
f 74 75 76
f 76 75 77
f 76 77 78
f 76 78 79
f 76 79 36
f 36 79 37
f 37 79 80
f 37 80 81
f 37 81 82
f 37 82 38
f 38 82 39
f 39 82 40
f 40 82 83
f 40 83 84
f 40 84 85
f 40 85 86
f 40 86 41
f 41 86 87
f 41 87 42
f 42 87 43
f 43 87 44
f 44 87 86
f 44 86 85
f 44 85 88
f 44 88 45
f 45 88 89
f 45 89 46
f 46 89 47
f 47 89 90
f 47 90 51
f 51 90 91
f 51 91 52
f 52 91 92
f 52 92 93
f 52 93 94
f 52 94 53
f 53 94 95
f 53 95 96
f 53 96 97
f 53 97 54
f 54 97 61
f 61 97 98
f 61 98 99
f 61 99 62
f 62 99 100
f 62 100 101
f 62 101 63
f 63 101 64
f 64 101 102
f 64 102 103
f 64 103 65
f 65 103 95
f 65 95 104
f 65 104 105
f 65 105 106
f 65 106 107
f 65 107 66
f 66 107 67
f 67 107 68
f 68 107 108
f 68 108 105
f 68 105 109
f 68 109 70
f 70 109 71
f 71 109 105
f 71 105 104
f 71 104 72
f 72 104 110
f 110 104 111
f 110 111 112
f 110 112 113
f 110 113 75
f 75 113 77
f 77 113 114
f 77 114 115
f 77 115 78
f 78 115 81
f 78 81 80
f 78 80 79
f 106 105 108
f 106 108 107
f 85 89 88
f 89 85 90
f 90 85 116
f 90 116 91
f 91 116 92
f 92 116 85
f 92 85 117
f 92 117 118
f 92 118 93
f 93 118 119
f 93 119 94
f 94 119 95
f 95 119 120
f 95 120 104
f 104 120 111
f 111 120 121
f 111 121 112
f 112 121 122
f 112 122 114
f 112 114 113
f 98 100 99
f 100 98 123
f 100 123 102
f 100 102 101
f 123 98 97
f 123 97 96
f 123 96 102
f 102 96 103
f 103 96 95
f 124 118 117
f 124 117 125
f 125 117 126
f 125 126 120
f 125 120 127
f 125 127 117
f 117 127 118
f 118 127 119
f 119 127 120
f 86 87 128
f 86 128 41
f 126 85 84
f 126 84 83
f 126 83 122
f 126 122 121
f 126 121 120
f 122 115 114
f 115 122 83
f 115 83 81
f 81 83 82
f 117 85 126
f 129 130 131
f 129 131 132
f 129 132 65
f 129 65 104
f 129 104 130
f 130 104 133
f 130 133 131
f 131 133 134
f 134 133 135
f 134 135 136
f 134 136 137
f 137 136 14
f 14 136 15
f 15 136 135
f 15 135 133
f 15 133 104
f 138 67 31
f 67 138 139
f 67 139 107
f 13 29 140
f 13 140 141
f 13 141 136
f 13 136 14
f 141 140 142
f 141 142 143
f 141 143 137
f 141 137 136
f 129 140 29
f 129 29 65
f 132 140 129
f 140 132 144
f 140 144 142
f 142 144 143
f 143 144 145
f 143 145 146
f 143 146 137
f 137 146 138
f 138 146 139
f 139 146 145
f 139 145 132
f 132 145 144
f 124 147 118
f 118 147 93
f 93 147 119
f 43 148 87
f 87 148 128
f 17 148 43
f 149 150 151
f 149 151 152
f 149 152 153
f 149 153 154
f 149 154 155
f 149 155 156
f 149 156 157
f 149 157 158
f 149 158 150
f 150 158 159
f 150 159 151
f 151 159 160
f 151 160 152
f 152 160 127
f 152 127 153
f 153 127 161
f 153 161 154
f 154 161 162
f 154 162 155
f 155 162 163
f 155 163 156
f 156 163 157
f 164 165 166
f 164 166 167
f 164 167 168
f 164 168 169
f 164 169 170
f 164 170 171
f 164 171 172
f 164 172 173
f 164 173 165
f 165 173 174
f 165 174 166
f 166 174 175
f 166 175 167
f 167 175 176
f 167 176 168
f 168 176 42
f 168 42 169
f 169 42 177
f 169 177 170
f 170 177 178
f 170 178 171
f 171 178 172
