# RS2 Model 16977
# Vertices: 182
# Faces: 315

v 12 -42 19
v 19 -39 21
v 13 -40 22
v 7 -38 21
v 5 -38 19
v 2 -38 19
v 15 -38 12
v 14 -39 16
v 11 -33 27
v 0 -37 30
v 0 -42 17
v 0 -45 9
v 5 -41 4
v 5 -38 4
v 10 -38 1
v 10 -38 -1
v 28 -31 5
v 21 -38 18
v 24 -33 27
v 14 -33 35
v 6 -33 34
v 24 -35 19
v 35 -10 1
v 34 -10 10
v 25 -33 34
v -9 -57 -36
v -8 -42 -15
v -28 -28 -12
v -24 -10 -30
v -5 -52 -40
v 0 -57 -31
v 0 -45 -16
v 0 -42 -15
v -8 -36 -14
v -13 -36 -12
v -9 -36 -13
v -10 -38 -1
v -28 -31 5
v -35 -10 1
v -35 -3 -1
v -17 24 -16
v -22 27 -44
v -18 1 -47
v -2 -12 -47
v -1 -14 -35
v 3 -52 -40
v 8 -57 -36
v 8 -42 -15
v 8 -36 -14
v 9 -38 -12
v 2 -40 -11
v -2 -40 -11
v 28 -28 -12
v 24 -10 -30
v 13 -36 -12
v 35 -3 -1
v 17 24 -16
v 22 27 -44
v 5 35 -43
v -5 35 -43
v 3 -38 -1
v 2 -40 -9
v -2 -40 -9
v -3 -38 -1
v -10 -41 -1
v -10 -41 1
v -10 -38 1
v -5 -38 4
v -15 -38 11
v -21 -38 18
v -26 -35 19
v -24 -33 27
v -26 -33 34
v -36 -10 10
v 0 -42 -1
v -14 -33 35
v -11 -33 27
v -6 -33 34
v -7 -38 21
v -2 -38 19
v -5 -41 4
v 0 -51 3
v 10 -43 1
v 10 -41 1
v 10 -41 -1
v 0 -51 -3
v -9 -45 -2
v -10 -43 1
v -5 -38 19
v -14 -39 16
v -20 -38 21
v -13 -40 22
v -12 -42 19
v 9 -45 -2
v 2 -52 -3
v -2 -52 -3
v 19 1 -47
v 2 -12 -47
v -36 -16 20
v -40 -20 4
v -34 -32 27
v -37 5 45
v -27 -36 42
v -44 0 16
v -32 20 0
v -26 22 43
v -44 -8 0
v -42 -16 -4
v 34 -32 27
v 41 -20 4
v 36 -16 20
v 42 -16 -4
v 37 5 45
v 44 0 16
v 44 -8 0
v 32 20 0
v 55 -24 -47
v 40 21 -49
v 4 42 -12
v 26 22 43
v 0 48 12
v -4 42 -12
v 0 53 44
v -23 23 84
v 0 51 64
v 23 23 84
v -6 44 -47
v -42 21 -49
v -58 -24 -47
v -52 -38 -46
v -40 -47 -49
v 27 -36 42
v 24 -44 28
v 27 1 97
v 23 -34 73
v 0 -46 48
v 0 -51 32
v -24 -44 28
v 4 44 -47
v 53 -38 -47
v 48 -46 -45
v 44 -8 1
v 32 20 1
v 40 21 -48
v 55 -24 -46
v 42 -16 -3
v 53 -38 -46
v 41 -20 5
v 48 -46 -44
v 4 44 -46
v 4 42 -11
v 0 41 93
v 0 50 138
v -27 1 97
v -11 -4 125
v 11 -4 125
v 0 -38 87
v -23 -34 73
v -12 -40 21
v -14 -40 21
v -15 -40 20
v -15 -40 18
v -14 -40 16
v -12 -40 16
v -10 -40 18
v -10 -40 20
v -14 -40 17
v -12 -40 17
v -11 -40 18
v -11 -40 20
v 10 -40 20
v 10 -40 18
v 12 -40 16
v 14 -40 16
v 15 -40 18
v 15 -40 20
v 14 -40 21
v 12 -40 21
v 11 -40 20
v 11 -40 18
v 12 -40 17
v 14 -40 17

f 1 2 3
f 1 3 4
f 1 4 5
f 5 4 6
f 5 6 7
f 5 7 8
f 5 8 4
f 4 8 3
f 4 3 9
f 4 9 10
f 4 10 6
f 6 10 11
f 6 11 12
f 6 12 13
f 6 13 14
f 6 14 7
f 7 14 15
f 7 15 16
f 7 16 17
f 7 17 18
f 7 18 8
f 8 18 3
f 3 18 2
f 3 2 9
f 9 2 19
f 9 19 20
f 9 20 21
f 9 21 10
f 1 18 2
f 2 18 22
f 2 22 19
f 19 22 23
f 19 23 24
f 19 24 25
f 19 25 20
f 26 27 28
f 26 28 29
f 26 29 30
f 26 30 31
f 26 31 32
f 26 32 27
f 27 32 33
f 27 33 34
f 27 34 35
f 27 35 28
f 28 35 36
f 28 36 37
f 28 37 38
f 28 38 39
f 28 39 29
f 29 39 40
f 29 40 41
f 29 41 42
f 29 42 43
f 29 43 44
f 29 44 45
f 29 45 30
f 30 45 46
f 30 46 47
f 30 47 31
f 31 47 32
f 32 47 48
f 32 48 33
f 33 48 49
f 33 49 50
f 33 50 51
f 33 51 52
f 33 52 36
f 33 36 34
f 34 36 35
f 53 48 47
f 53 47 54
f 53 54 23
f 53 23 17
f 53 17 16
f 53 16 50
f 53 50 55
f 53 55 48
f 48 55 49
f 49 55 50
f 54 56 23
f 56 54 57
f 57 54 58
f 57 58 59
f 57 59 60
f 57 60 41
f 41 60 42
f 45 54 46
f 46 54 47
f 16 61 62
f 16 62 50
f 50 62 51
f 51 62 52
f 52 62 63
f 52 63 36
f 36 63 37
f 37 63 64
f 37 64 65
f 37 65 66
f 37 66 67
f 37 67 68
f 37 68 69
f 37 69 38
f 38 69 70
f 38 70 71
f 38 71 39
f 39 71 72
f 39 72 73
f 39 73 74
f 63 62 61
f 63 61 64
f 64 61 75
f 73 72 76
f 76 72 77
f 76 77 78
f 78 77 10
f 10 77 79
f 10 79 80
f 10 80 11
f 11 80 12
f 12 80 81
f 12 81 82
f 12 82 13
f 13 82 83
f 13 83 84
f 13 84 14
f 14 84 15
f 15 84 85
f 15 85 16
f 16 85 61
f 65 86 87
f 65 87 66
f 66 87 88
f 66 88 82
f 66 82 81
f 66 81 67
f 67 81 68
f 68 81 80
f 68 80 69
f 69 80 89
f 69 89 90
f 69 90 70
f 70 90 91
f 70 91 71
f 71 91 72
f 72 91 77
f 77 91 92
f 77 92 79
f 79 92 93
f 79 93 89
f 79 89 80
f 89 79 92
f 89 92 90
f 90 92 91
f 86 85 94
f 86 94 95
f 86 95 96
f 86 96 87
f 87 96 88
f 88 96 82
f 82 96 95
f 82 95 83
f 83 95 94
f 83 94 84
f 84 94 85
f 17 22 18
f 22 17 23
f 92 91 93
f 93 91 70
f 97 58 54
f 97 54 98
f 98 54 44
f 44 54 45
f 99 100 101
f 99 101 100
f 99 100 102
f 99 102 103
f 99 103 101
f 99 101 103
f 99 103 102
f 99 102 100
f 100 102 104
f 100 104 102
f 102 104 105
f 102 105 106
f 102 106 105
f 102 105 104
f 104 105 107
f 104 107 105
f 107 104 100
f 107 100 108
f 107 108 100
f 107 100 104
f 109 110 111
f 109 111 110
f 110 111 112
f 110 112 111
f 111 112 113
f 111 113 112
f 112 113 114
f 112 114 115
f 112 115 114
f 112 114 113
f 113 114 116
f 113 116 114
f 114 116 115
f 114 115 116
f 116 115 117
f 116 117 118
f 116 118 119
f 116 119 120
f 116 120 119
f 119 120 121
f 119 121 122
f 119 122 121
f 119 121 120
f 120 121 123
f 120 123 121
f 121 123 106
f 121 106 122
f 121 122 106
f 121 106 123
f 123 106 124
f 123 124 125
f 123 125 120
f 120 125 126
f 120 126 113
f 120 113 116
f 120 116 113
f 105 122 106
f 105 106 122
f 105 122 127
f 105 127 128
f 105 128 107
f 107 128 129
f 107 129 108
f 108 129 130
f 108 130 100
f 100 130 131
f 132 113 111
f 132 111 109
f 132 109 133
f 132 133 109
f 132 109 111
f 132 111 113
f 132 113 134
f 132 134 135
f 132 135 136
f 132 136 133
f 133 136 137
f 133 137 136
f 136 137 138
f 136 138 137
f 138 136 103
f 138 103 101
f 138 101 103
f 119 118 139
f 119 139 122
f 122 139 127
f 115 112 140
f 115 140 117
f 112 110 141
f 112 141 140
f 142 143 144
f 142 144 145
f 142 145 146
f 146 145 147
f 146 147 148
f 148 147 149
f 150 144 143
f 150 143 151
f 152 153 126
f 152 126 125
f 152 125 124
f 152 124 153
f 153 124 154
f 153 154 155
f 153 155 156
f 153 156 134
f 153 134 126
f 126 134 113
f 157 156 155
f 157 155 158
f 157 158 103
f 157 103 136
f 157 136 135
f 157 135 156
f 156 135 134
f 154 158 155
f 158 154 102
f 158 102 103
f 106 102 154
f 106 154 124
f 159 160 161
f 159 161 162
f 159 162 163
f 159 163 164
f 159 164 165
f 159 165 166
f 159 162 167
f 159 167 168
f 159 168 169
f 159 169 170
f 171 172 173
f 171 173 174
f 171 174 175
f 171 175 176
f 171 176 177
f 171 177 178
f 179 180 181
f 179 181 182
f 179 182 175
f 179 175 176
f 179 176 177
f 179 177 178
