# RS2 Model 16975
# Vertices: 202
# Faces: 317

v 10 -42 19
v 18 -39 20
v 12 -40 22
v 6 -38 21
v 5 -38 19
v 2 -38 19
v 14 -38 12
v 13 -39 16
v 11 -33 27
v 0 -36 29
v 0 -42 17
v 0 -45 9
v 5 -41 4
v 5 -38 4
v 10 -38 1
v 10 -38 -1
v 28 -31 5
v 19 -38 18
v 24 -33 27
v 14 -32 33
v 6 -32 33
v -6 -32 33
v -11 -33 27
v -6 -38 21
v -2 -38 19
v -5 -41 4
v 0 -51 3
v 10 -43 1
v 10 -41 1
v 10 -41 -1
v 3 -38 -1
v 4 -42 -8
v 11 -40 -9
v 28 -29 -12
v 22 -35 19
v -10 -59 -36
v -7 -40 -15
v -28 -29 -12
v -24 -10 -30
v 0 -63 -39
v 0 -42 -16
v 0 -40 -15
v -7 -35 -14
v -11 -35 -13
v -8 -35 -13
v -11 -40 -9
v -10 -38 -1
v -28 -31 5
v -35 -10 1
v -35 -3 -1
v 7 -40 -15
v 9 -59 -37
v 11 -35 -13
v 7 -35 -14
v 0 -14 -35
v 24 -10 -30
v 35 -3 -1
v 35 -10 1
v -2 -12 -47
v 2 -12 -47
v 19 1 -47
v 22 27 -44
v 17 24 -16
v 5 35 -43
v -5 35 -43
v -17 24 -16
v -22 27 -44
v -18 1 -47
v -2 -38 -11
v -2 -38 -9
v -4 -42 -8
v -3 -38 -1
v -10 -41 -1
v -10 -41 1
v -10 -38 1
v -5 -38 4
v -14 -38 12
v -19 -39 18
v -23 -35 19
v -18 -39 20
v -24 -33 27
v -14 -32 33
v -22 -34 31
v 8 -36 -12
v 2 -38 -11
v 2 -38 -9
v 0 -42 -1
v 22 -34 31
v 0 -51 -3
v -9 -45 -2
v -10 -43 1
v -5 -38 19
v -13 -39 16
v -12 -40 22
v -10 -42 19
v 9 -45 -2
v 2 -52 -3
v -2 -52 -3
v 39 2 19
v 39 -4 5
v 39 -11 2
v 39 10 39
v 39 18 5
v 50 23 -39
v 50 -4 -39
v 50 -26 -39
v 42 -34 -42
v 28 -37 -5
v 39 -16 8
v 39 -11 21
v 34 -4 47
v 34 23 50
v 6 29 -5
v 0 41 -42
v 31 -34 21
v 21 -45 24
v -6 29 -5
v 28 -40 -49
v -39 -16 7
v -39 -11 20
v -39 10 38
v -39 2 18
v -39 -4 4
v -39 -11 1
v -28 -37 -6
v -31 -34 20
v -34 -4 46
v -34 23 49
v -39 18 4
v -50 23 -40
v -50 -4 -40
v -50 -26 -40
v -42 -34 -43
v -28 -40 -50
v 39 -11 1
v 39 -4 4
v 39 2 18
v 39 10 38
v 39 -11 20
v 39 -16 7
v 28 -37 -6
v 42 -34 -43
v 50 -26 -40
v 50 -4 -40
v 50 23 -40
v 39 18 4
v 34 23 49
v 34 -4 46
v 31 -34 20
v 21 -45 23
v 24 -19 67
v 0 -40 49
v 0 -52 31
v -21 -45 23
v -24 -19 67
v 0 41 -43
v 6 29 -6
v -6 29 -6
v 0 44 12
v -34 51 59
v 0 65 18
v 34 51 59
v 16 10 88
v 0 -19 70
v -16 10 88
v -16 44 100
v -13 91 78
v -34 80 49
v -28 98 31
v 0 88 15
v 34 80 49
v 16 44 100
v 28 -40 -50
v 13 91 78
v 13 109 46
v -13 109 46
v 0 117 1
v 28 98 31
v -11 -40 21
v -13 -40 21
v -14 -40 20
v -14 -40 18
v -13 -40 16
v -11 -40 16
v -9 -40 18
v -9 -40 20
v -13 -40 17
v -11 -40 17
v -10 -40 18
v -10 -40 20
v 9 -40 20
v 9 -40 18
v 11 -40 16
v 13 -40 16
v 14 -40 18
v 14 -40 20
v 13 -40 21
v 11 -40 21
v 10 -40 20
v 10 -40 18
v 11 -40 17
v 13 -40 17

f 1 2 3
f 1 3 4
f 1 4 5
f 5 4 6
f 5 6 7
f 5 7 8
f 5 8 4
f 4 8 3
f 4 3 9
f 4 9 10
f 4 10 6
f 6 10 11
f 6 11 12
f 6 12 13
f 6 13 14
f 6 14 7
f 7 14 15
f 7 15 16
f 7 16 17
f 7 17 18
f 7 18 8
f 8 18 3
f 3 18 2
f 3 2 9
f 9 2 19
f 9 19 20
f 9 20 21
f 9 21 10
f 10 21 22
f 10 22 23
f 10 23 24
f 10 24 25
f 10 25 11
f 11 25 12
f 12 25 26
f 12 26 27
f 12 27 13
f 13 27 28
f 13 28 29
f 13 29 14
f 14 29 15
f 15 29 30
f 15 30 16
f 16 30 31
f 16 31 32
f 16 32 33
f 16 33 34
f 16 34 17
f 1 18 2
f 2 18 35
f 2 35 19
f 36 37 38
f 36 38 39
f 36 39 40
f 36 40 41
f 36 41 37
f 37 41 42
f 37 42 43
f 37 43 44
f 37 44 38
f 38 44 45
f 38 45 46
f 38 46 47
f 38 47 48
f 38 48 49
f 38 49 39
f 39 49 50
f 51 41 52
f 51 52 34
f 51 34 53
f 51 53 54
f 51 54 42
f 51 42 41
f 39 55 40
f 40 55 52
f 40 52 41
f 56 57 58
f 56 58 34
f 56 34 52
f 56 52 55
f 56 55 59
f 56 59 60
f 56 60 61
f 56 61 62
f 56 62 63
f 63 62 64
f 63 64 65
f 63 65 66
f 66 65 67
f 66 67 39
f 39 67 68
f 39 68 59
f 39 59 55
f 45 43 42
f 45 42 69
f 45 69 70
f 45 70 71
f 45 71 46
f 46 71 47
f 47 71 72
f 47 72 73
f 47 73 74
f 47 74 75
f 47 75 76
f 47 76 77
f 47 77 48
f 48 77 78
f 48 78 79
f 79 78 80
f 79 80 81
f 81 80 23
f 81 23 82
f 81 82 83
f 43 45 44
f 42 54 84
f 42 84 85
f 42 85 69
f 69 85 86
f 69 86 70
f 70 86 32
f 70 32 71
f 71 32 31
f 71 31 72
f 72 31 87
f 53 84 54
f 84 53 34
f 84 34 33
f 84 33 32
f 84 32 86
f 84 86 85
f 20 19 88
f 73 89 90
f 73 90 74
f 74 90 91
f 74 91 27
f 74 27 26
f 74 26 75
f 75 26 76
f 76 26 25
f 76 25 77
f 77 25 92
f 77 92 93
f 77 93 78
f 78 93 80
f 80 93 94
f 80 94 23
f 23 94 24
f 24 94 95
f 24 95 92
f 24 92 25
f 92 24 94
f 92 94 93
f 89 30 96
f 89 96 97
f 89 97 98
f 89 98 90
f 90 98 91
f 91 98 27
f 27 98 97
f 27 97 28
f 28 97 96
f 28 96 29
f 29 96 30
f 17 35 18
f 22 82 23
f 94 80 95
f 95 80 78
f 99 100 101
f 99 101 102
f 99 102 103
f 99 103 100
f 100 103 104
f 100 104 101
f 101 104 105
f 101 105 106
f 101 106 107
f 101 107 108
f 101 108 109
f 101 109 110
f 101 110 102
f 102 110 111
f 102 111 112
f 102 112 103
f 103 112 113
f 103 113 114
f 103 114 104
f 110 109 115
f 110 115 111
f 111 115 116
f 116 115 108
f 108 115 109
f 114 113 117
f 107 118 108
f 119 120 121
f 119 121 122
f 119 122 123
f 119 123 124
f 119 124 125
f 119 125 126
f 119 126 120
f 120 126 127
f 120 127 121
f 121 127 128
f 121 128 129
f 121 129 122
f 122 129 123
f 123 129 130
f 123 130 124
f 124 130 131
f 124 131 132
f 124 132 133
f 124 133 125
f 125 133 134
f 135 136 137
f 135 137 138
f 135 138 139
f 135 139 140
f 135 140 141
f 135 141 142
f 135 142 143
f 135 143 144
f 135 144 145
f 135 145 136
f 136 145 146
f 136 146 137
f 137 146 138
f 138 146 147
f 138 147 148
f 138 148 139
f 139 148 149
f 139 149 140
f 140 149 141
f 141 149 150
f 150 149 148
f 150 148 151
f 150 151 152
f 150 152 153
f 153 152 154
f 154 152 155
f 154 155 127
f 154 127 126
f 154 126 125
f 156 157 146
f 156 146 145
f 129 158 156
f 129 156 130
f 158 157 156
f 157 158 159
f 157 159 147
f 157 147 146
f 128 158 129
f 158 128 159
f 159 128 160
f 159 160 161
f 159 161 147
f 147 161 162
f 147 162 163
f 147 163 148
f 148 163 151
f 151 163 164
f 151 164 152
f 152 164 155
f 155 164 165
f 155 165 127
f 127 165 128
f 128 165 166
f 128 166 160
f 160 166 167
f 160 167 168
f 160 168 161
f 161 168 169
f 161 169 170
f 161 170 171
f 161 171 162
f 162 171 172
f 162 172 163
f 163 172 165
f 163 165 164
f 141 173 142
f 165 172 166
f 166 172 174
f 166 174 167
f 167 174 175
f 167 175 176
f 167 176 168
f 168 176 169
f 169 176 177
f 169 177 170
f 170 177 178
f 170 178 171
f 171 178 174
f 171 174 172
f 174 178 175
f 175 178 177
f 175 177 176
f 179 180 181
f 179 181 182
f 179 182 183
f 179 183 184
f 179 184 185
f 179 185 186
f 179 182 187
f 179 187 188
f 179 188 189
f 179 189 190
f 191 192 193
f 191 193 194
f 191 194 195
f 191 195 196
f 191 196 197
f 191 197 198
f 199 200 201
f 199 201 202
f 199 202 195
f 199 195 196
f 199 196 197
f 199 197 198
