# RS2 Model 16996
# Vertices: 98
# Faces: 188

v 12 -8 76
v 12 8 74
v 12 8 76
v -12 8 76
v -12 -8 76
v -12 -8 74
v 12 -8 74
v 15 -12 63
v 15 12 63
v -12 8 74
v -10 6 82
v 10 6 82
v 10 -8 76
v 7 -8 82
v -10 -8 76
v -7 -8 82
v -3 -6 26
v -2 -9 34
v -10 -14 34
v -14 -6 26
v -16 -7 22
v -2 -7 22
v -3 7 28
v -2 8 34
v -2 -9 48
v -10 -14 48
v -20 -5 48
v -20 -5 34
v -18 5 34
v -13 7 28
v -16 9 22
v -13 6 9
v -13 -4 10
v -5 -4 10
v -2 9 22
v -10 10 34
v -2 8 48
v 0 3 55
v 0 -2 55
v 0 -13 60
v -15 -6 62
v -15 6 62
v -18 5 48
v -10 10 48
v 10 -14 34
v 2 -9 34
v 3 -6 26
v 14 -6 26
v 20 -5 34
v 20 -5 48
v 10 -14 48
v 2 -9 48
v 2 8 48
v 2 8 34
v 3 7 28
v 2 9 22
v 2 -7 22
v 16 -7 22
v 14 7 28
v 18 5 34
v 18 5 48
v 0 13 59
v 10 10 48
v 10 10 34
v 16 9 22
v 13 6 9
v 5 6 9
v 5 -4 10
v 13 -4 10
v -13 -18 1
v -5 -18 1
v -9 -14 6
v -15 -10 1
v -15 -9 -2
v -13 -18 -2
v -5 -18 -2
v -2 -10 1
v -14 8 1
v -14 8 -2
v -2 -9 -2
v -9 9 5
v -5 6 9
v -4 8 1
v -4 8 -2
v 9 -14 6
v 5 -18 1
v 13 -18 1
v 15 -10 1
v 2 -10 1
v 2 -9 -2
v 5 -18 -2
v 13 -18 -2
v 15 -9 -2
v 14 8 1
v 4 8 1
v 9 9 5
v 14 8 -2
v 4 8 -2

f 1 2 3
f 1 3 4
f 1 4 5
f 1 5 6
f 1 6 7
f 1 7 2
f 2 7 8
f 2 8 9
f 2 9 10
f 2 10 3
f 3 10 4
f 3 4 11
f 3 11 12
f 3 12 13
f 13 12 14
f 13 14 15
f 15 14 16
f 15 16 4
f 4 16 11
f 10 6 5
f 10 5 4
f 17 18 19
f 17 19 20
f 17 20 21
f 17 21 22
f 17 22 23
f 17 23 18
f 18 23 24
f 18 24 25
f 18 25 26
f 18 26 19
f 19 26 27
f 19 27 28
f 19 28 20
f 20 28 29
f 20 29 30
f 20 30 31
f 20 31 21
f 21 31 32
f 21 32 33
f 21 33 22
f 22 33 34
f 22 34 35
f 22 35 23
f 23 35 30
f 23 30 36
f 23 36 24
f 24 36 37
f 24 37 25
f 25 37 38
f 25 38 39
f 25 39 26
f 26 39 40
f 26 40 41
f 26 41 27
f 27 41 42
f 27 42 43
f 27 43 28
f 28 43 29
f 29 43 44
f 29 44 36
f 29 36 30
f 45 46 47
f 45 47 48
f 45 48 49
f 45 49 50
f 45 50 51
f 45 51 52
f 45 52 46
f 46 52 53
f 46 53 54
f 46 54 47
f 47 54 55
f 47 55 56
f 47 56 57
f 47 57 48
f 48 57 58
f 48 58 59
f 48 59 60
f 48 60 49
f 49 60 50
f 50 60 61
f 50 61 9
f 50 9 8
f 50 8 51
f 51 8 40
f 51 40 39
f 51 39 52
f 52 39 38
f 52 38 53
f 53 38 62
f 53 62 63
f 53 63 54
f 54 63 64
f 54 64 55
f 55 64 59
f 55 59 65
f 55 65 56
f 56 65 66
f 56 66 67
f 56 67 57
f 57 67 68
f 57 68 58
f 58 68 69
f 58 69 65
f 58 65 59
f 64 60 59
f 60 64 61
f 61 64 63
f 61 63 9
f 9 63 62
f 9 62 42
f 9 42 10
f 10 42 6
f 6 42 41
f 6 41 7
f 7 41 8
f 8 41 40
f 44 43 42
f 44 42 62
f 44 62 37
f 44 37 36
f 62 38 37
f 70 71 72
f 70 72 73
f 70 73 74
f 70 74 75
f 70 75 71
f 71 75 76
f 71 76 77
f 71 77 72
f 72 77 34
f 72 34 33
f 72 33 73
f 73 33 78
f 73 78 79
f 73 79 74
f 74 79 80
f 74 80 76
f 74 76 75
f 81 82 83
f 81 83 78
f 81 78 32
f 81 32 82
f 82 32 31
f 82 31 35
f 82 35 34
f 82 34 83
f 83 34 77
f 83 77 80
f 83 80 84
f 83 84 78
f 78 84 79
f 79 84 80
f 76 80 77
f 30 35 31
f 33 32 78
f 85 86 87
f 85 87 88
f 85 88 69
f 85 69 68
f 85 68 89
f 85 89 86
f 86 89 90
f 86 90 91
f 86 91 87
f 87 91 92
f 87 92 88
f 88 92 93
f 88 93 94
f 88 94 69
f 69 94 66
f 69 66 65
f 95 67 96
f 95 96 94
f 95 94 97
f 95 97 98
f 95 98 89
f 95 89 68
f 95 68 67
f 67 66 96
f 96 66 94
f 94 93 97
f 97 93 98
f 98 93 90
f 98 90 89
f 92 91 90
f 92 90 93
