# RS2 Model 17041
# Vertices: 238
# Faces: 434

v 61 -18 64
v 67 -28 77
v 68 -27 79
v 65 -15 66
v 69 11 49
v 65 10 46
v 67 -21 60
v 69 -30 74
v 70 -18 62
v 72 -29 76
v 71 9 47
v 63 13 36
v 69 9 44
v 82 -53 118
v 85 -52 120
v 70 -39 93
v 67 -42 90
v 86 -55 115
v 87 -54 118
v 75 -42 88
v 70 -29 80
v 67 -30 79
v 73 -45 86
v 82 -63 122
v 71 -32 77
v 72 -30 78
v 91 -20 132
v 97 -18 132
v 95 -5 139
v 87 -15 132
v 89 -23 128
v 91 -23 126
v 93 -24 128
v 97 -25 126
v 102 -19 127
v 101 -14 131
v 101 -8 130
v 95 -5 129
v 89 -5 130
v 86 -9 131
v 82 -15 127
v 85 -22 126
v 88 -22 127
v 87 -22 125
v 87 -22 124
v 90 -22 122
v 89 -26 122
v 92 -23 122
v 95 -24 124
v 95 -24 125
v 94 -24 127
v 101 -18 122
v 102 -17 122
v 103 -11 120
v 101 -5 121
v 89 -2 121
v 84 -7 120
v 84 -13 122
v 83 -13 122
v 96 -21 118
v 91 -23 122
v 90 -24 118
v 91 -23 118
v 90 -31 112
v 98 -23 112
v 86 -18 118
v 86 -30 112
v 84 -19 112
v 84 -15 114
v 86 -17 111
v 85 -20 112
v 101 -19 114
v 97 -19 111
v 99 -10 111
v 88 -8 111
v 77 -18 108
v 90 -22 108
v 104 -25 108
v 107 -22 110
v 111 -10 109
v 110 -8 108
v 95 -5 109
v 81 -1 108
v 79 -1 108
v 76 -14 110
v 77 -16 89
v 84 -21 84
v 98 -25 84
v 106 -23 89
v 109 -18 89
v 110 -10 87
v 105 -6 84
v 86 -1 84
v 80 -3 87
v 77 -9 89
v 85 -17 84
v 98 -21 84
v 103 -11 83
v 84 -7 83
v 82 -17 78
v 102 -22 78
v 106 -10 77
v 83 -4 77
v 101 -20 123
v 103 -15 126
v 103 -18 122
v 102 -19 121
v 82 -15 121
v 83 -11 126
v 82 -13 122
v 82 -16 123
v 97 -22 112
v 75 -12 94
v 69 -6 83
v 77 1 83
v 77 -25 96
v 65 -16 95
v 65 -22 87
v 74 -19 85
v 70 -15 77
v 60 -8 85
v 59 -1 87
v 78 3 92
v 78 -20 101
v 60 -20 97
v 61 -17 81
v 66 -25 77
v 68 -28 80
v 72 -27 79
v 70 -24 75
v 78 -13 108
v 79 2 102
v 79 -6 109
v 69 -9 107
v 62 -15 101
v 61 -2 95
v 68 1 101
v 103 -35 93
v 110 -8 87
v 112 -15 88
v 109 -27 91
v 122 -35 93
v 105 -31 100
v 110 -8 96
v 126 -15 87
v 122 -17 87
v 111 -19 77
v 109 -27 80
v 119 -29 80
v 119 -30 91
v 124 -16 95
v 120 -31 98
v 106 -26 107
v 110 -10 105
v 107 -20 110
v 108 -16 109
v 116 -26 106
v 119 -15 104
v 64 -30 74
v 71 -27 72
v 65 -31 73
v 66 -33 79
v 74 -30 77
v 70 -33 75
v 70 -29 71
v 68 -33 77
v 112 -27 70
v 117 -28 70
v 121 -21 78
v 118 -24 70
v 113 -24 70
v 119 -32 66
v 121 -26 65
v 113 -23 66
v 111 -30 67
v 114 -24 63
v 114 -30 65
v 117 -32 65
v 118 -27 64
v 82 -9 5
v 84 0 -2
v 75 -18 -2
v 75 -21 1
v 87 -12 6
v 87 -13 13
v 82 -10 13
v 85 -3 14
v 86 -2 4
v 91 -5 4
v 91 -4 -2
v 82 -22 -2
v 81 -24 1
v 91 -6 14
v 89 -18 30
v 75 -12 30
v 82 1 30
v 104 -19 0
v 98 -26 6
v 95 -36 0
v 93 -39 2
v 86 -35 2
v 87 -32 0
v 92 -22 7
v 96 -15 0
v 95 -16 6
v 102 -19 6
v 102 -19 16
v 98 -26 14
v 92 -23 14
v 95 -16 16
v 93 -14 32
v 80 -16 77
v 83 -5 75
v 80 -16 76
v 103 -23 76
v 103 -23 77
v 106 -11 75
v 86 2 65
v 75 -12 65
v 90 -19 64
v 104 -25 65
v 109 -10 65
v 82 1 62
v 80 -12 39
v 90 -18 65
v 87 -15 39
v 91 -7 39
v 96 -6 62
v 90 -24 41
v 98 -28 41
v 103 -20 39
v 110 -14 62
v 84 -4 39
v 95 -6 30
v 107 -21 32
v 100 -33 32
v 87 -26 32
v 94 -16 39

f 1 2 3
f 1 3 4
f 1 4 5
f 1 5 6
f 1 6 7
f 1 7 2
f 2 7 8
f 8 7 9
f 8 9 10
f 10 9 3
f 3 9 4
f 4 9 11
f 4 11 5
f 5 11 6
f 5 6 12
f 5 12 11
f 11 12 13
f 11 13 6
f 6 13 7
f 7 13 9
f 9 13 11
f 6 13 12
f 14 15 16
f 14 16 17
f 14 17 18
f 14 18 15
f 15 18 19
f 15 19 20
f 15 20 16
f 16 20 21
f 16 21 17
f 17 21 22
f 17 22 23
f 17 23 18
f 18 23 19
f 18 19 24
f 18 24 14
f 14 24 15
f 15 24 19
f 19 23 20
f 20 23 25
f 20 25 26
f 20 26 21
f 22 25 23
f 27 28 29
f 27 29 30
f 27 30 31
f 27 31 32
f 27 32 33
f 27 33 28
f 28 33 34
f 28 34 35
f 28 35 36
f 28 36 29
f 29 36 37
f 29 37 38
f 29 38 39
f 29 39 40
f 29 40 30
f 30 40 41
f 30 41 42
f 30 42 31
f 31 42 43
f 31 43 32
f 32 43 42
f 32 42 44
f 32 44 45
f 32 45 46
f 32 46 47
f 32 47 48
f 32 48 49
f 32 49 50
f 32 50 51
f 32 51 33
f 33 51 34
f 34 51 50
f 34 50 49
f 34 49 52
f 34 52 35
f 35 52 36
f 36 52 53
f 36 53 54
f 36 54 37
f 37 54 55
f 37 55 38
f 38 55 56
f 38 56 39
f 39 56 57
f 39 57 40
f 40 57 58
f 40 58 59
f 40 59 41
f 41 59 42
f 42 59 45
f 42 45 44
f 60 61 62
f 60 62 63
f 60 63 62
f 60 62 64
f 60 64 65
f 60 65 52
f 60 52 48
f 60 48 61
f 61 46 66
f 61 66 62
f 62 66 63
f 62 63 66
f 62 66 67
f 62 67 64
f 66 68 67
f 68 66 59
f 68 59 58
f 68 58 69
f 69 58 57
f 69 57 70
f 69 70 71
f 52 72 53
f 53 72 54
f 54 72 73
f 54 73 74
f 54 74 55
f 55 74 56
f 56 74 75
f 56 75 57
f 57 75 70
f 70 75 76
f 70 76 77
f 70 77 73
f 73 77 78
f 73 78 74
f 74 78 79
f 74 79 80
f 74 80 81
f 74 81 82
f 74 82 75
f 75 82 83
f 75 83 84
f 75 84 85
f 75 85 76
f 76 85 86
f 76 86 87
f 76 87 77
f 77 87 88
f 77 88 78
f 78 88 89
f 78 89 79
f 79 89 90
f 79 90 80
f 80 90 91
f 80 91 81
f 81 91 92
f 81 92 82
f 82 92 93
f 82 93 83
f 83 93 94
f 83 94 84
f 84 94 95
f 84 95 85
f 85 95 86
f 86 95 96
f 86 96 87
f 87 96 88
f 88 96 97
f 88 97 89
f 89 97 90
f 90 97 98
f 90 98 91
f 91 98 92
f 92 98 93
f 93 98 99
f 93 99 94
f 94 99 95
f 95 99 96
f 96 99 100
f 96 100 101
f 96 101 97
f 97 101 102
f 97 102 98
f 98 102 103
f 98 103 99
f 99 103 100
f 52 65 72
f 104 36 35
f 36 104 105
f 105 104 106
f 106 104 107
f 108 109 110
f 109 108 40
f 40 108 41
f 41 108 111
f 73 72 112
f 59 66 46
f 59 46 45
f 52 49 48
f 113 114 115
f 113 115 116
f 113 116 117
f 113 117 118
f 113 118 119
f 113 119 120
f 113 120 114
f 114 120 121
f 114 121 115
f 115 121 122
f 115 122 123
f 115 123 116
f 116 123 124
f 116 124 125
f 116 125 117
f 117 125 122
f 117 122 121
f 117 121 118
f 118 121 126
f 118 126 127
f 118 127 128
f 118 128 119
f 119 128 129
f 119 129 120
f 120 129 130
f 120 130 126
f 120 126 121
f 131 132 84
f 131 84 133
f 131 133 134
f 131 134 135
f 131 135 124
f 131 124 132
f 132 124 123
f 132 123 136
f 132 136 137
f 132 137 84
f 84 137 133
f 133 137 134
f 134 137 136
f 134 136 135
f 135 136 122
f 135 122 125
f 135 125 124
f 122 136 123
f 138 139 140
f 138 140 141
f 138 141 142
f 138 142 143
f 138 143 139
f 139 143 144
f 139 144 145
f 139 145 140
f 140 145 146
f 140 146 147
f 140 147 141
f 141 147 148
f 141 148 149
f 141 149 150
f 141 150 142
f 142 150 146
f 142 146 145
f 142 145 151
f 142 151 152
f 142 152 143
f 143 152 153
f 143 153 144
f 144 153 154
f 144 154 151
f 144 151 145
f 155 156 154
f 155 154 153
f 155 153 157
f 155 157 156
f 156 157 158
f 156 158 154
f 154 158 151
f 151 158 152
f 152 158 157
f 152 157 153
f 159 127 130
f 159 130 160
f 159 160 161
f 159 161 162
f 159 162 128
f 159 128 127
f 128 162 163
f 128 163 129
f 129 163 130
f 130 163 160
f 160 163 164
f 160 164 165
f 160 165 161
f 161 165 166
f 161 166 162
f 162 166 164
f 162 164 163
f 166 165 164
f 126 130 127
f 149 148 167
f 149 167 168
f 149 168 169
f 149 169 146
f 149 146 150
f 170 171 147
f 170 147 169
f 170 169 168
f 170 168 172
f 170 172 173
f 170 173 174
f 170 174 171
f 171 174 167
f 171 167 148
f 171 148 147
f 167 175 172
f 167 172 168
f 174 175 167
f 175 174 176
f 175 176 177
f 175 177 178
f 175 178 172
f 172 178 173
f 173 178 179
f 173 179 176
f 173 176 174
f 177 176 179
f 177 179 178
f 169 147 146
f 180 181 182
f 180 182 183
f 180 183 184
f 180 184 185
f 180 185 186
f 180 186 187
f 180 187 188
f 180 188 181
f 181 188 189
f 181 189 190
f 190 189 184
f 190 184 191
f 191 184 192
f 191 192 182
f 182 192 183
f 183 192 184
f 184 193 185
f 185 193 194
f 185 194 186
f 186 194 195
f 186 195 196
f 186 196 187
f 187 196 193
f 187 193 189
f 187 189 188
f 184 189 193
f 197 198 199
f 199 198 200
f 199 200 201
f 199 201 202
f 202 201 203
f 202 203 204
f 204 203 205
f 204 205 197
f 197 205 206
f 197 206 198
f 198 206 207
f 198 207 208
f 198 208 209
f 198 209 203
f 198 203 200
f 200 203 201
f 210 203 209
f 210 209 211
f 210 211 207
f 210 207 205
f 210 205 203
f 205 207 206
f 212 103 213
f 212 213 214
f 212 214 215
f 212 215 216
f 212 216 103
f 103 216 102
f 103 102 217
f 103 217 213
f 213 217 218
f 213 218 214
f 214 218 219
f 214 219 220
f 214 220 215
f 215 220 221
f 215 221 222
f 215 222 217
f 215 217 216
f 216 217 102
f 219 218 223
f 219 223 224
f 219 224 225
f 225 224 226
f 225 226 227
f 225 227 228
f 225 228 229
f 225 229 221
f 221 229 230
f 221 230 231
f 221 231 232
f 221 232 222
f 222 232 228
f 222 228 218
f 222 218 217
f 218 228 223
f 223 228 227
f 223 227 233
f 223 233 224
f 224 233 195
f 224 195 226
f 226 195 194
f 226 194 234
f 226 234 227
f 227 234 233
f 233 234 196
f 233 196 195
f 196 234 193
f 193 234 194
f 211 235 207
f 207 235 236
f 207 236 208
f 208 236 209
f 209 236 237
f 209 237 211
f 211 237 238
f 211 238 235
f 235 238 231
f 235 231 230
f 235 230 236
f 236 230 237
f 237 230 229
f 237 229 238
f 238 229 228
f 238 228 231
f 231 228 232
