# RS2 Model 17063
# Vertices: 71
# Faces: 120

v -6 -64 85
v 7 -64 123
v 7 -30 123
v -6 -18 85
v -1 -64 54
v -1 -27 54
v -13 -64 27
v -13 -25 27
v -30 -64 14
v -30 -23 14
v -38 -64 0
v -38 -16 0
v -17 -14 17
v -24 -3 4
v -24 64 3
v -38 64 0
v 8 -64 169
v 8 -6 172
v 17 -1 165
v 16 -23 120
v 4 -12 86
v 9 -20 56
v -1 -18 30
v 10 -10 33
v -5 -5 21
v -11 9 8
v -11 64 7
v -6 -64 214
v -6 31 198
v 4 33 189
v 13 37 179
v 25 6 157
v 24 -14 117
v 13 -4 87
v 18 -11 57
v 27 -3 61
v 21 -2 37
v 7 3 27
v 2 22 11
v 2 64 11
v -3 -64 240
v -3 64 240
v 7 64 228
v 16 64 214
v 25 64 201
v 22 40 169
v 33 12 150
v 32 -5 114
v 22 4 88
v 35 11 87
v 35 4 64
v 35 6 42
v 35 11 33
v 35 26 19
v 35 64 19
v 35 64 33
v 35 64 42
v 35 64 64
v 35 64 87
v 35 64 111
v 35 2 111
v 35 64 143
v 35 17 143
v 35 64 160
v 35 43 160
v 35 64 189
v 64 -64 240
v 64 64 240
v 22 -97 234
v 13 25 238
v -31 -92 -28

f 1 2 3
f 1 3 4
f 1 4 5
f 5 4 6
f 5 6 7
f 7 6 8
f 7 8 9
f 9 8 10
f 9 10 11
f 11 10 12
f 12 10 13
f 12 13 14
f 12 14 15
f 12 15 16
f 2 17 18
f 2 18 3
f 3 18 19
f 3 19 20
f 3 20 4
f 4 20 21
f 4 21 6
f 6 21 22
f 6 22 8
f 8 22 23
f 8 23 10
f 10 23 13
f 13 23 24
f 13 24 25
f 13 25 14
f 14 25 26
f 14 26 27
f 14 27 15
f 17 28 29
f 17 29 18
f 18 29 30
f 18 30 19
f 19 30 31
f 19 31 32
f 19 32 20
f 20 32 33
f 20 33 21
f 21 33 34
f 21 34 22
f 22 34 35
f 22 35 23
f 23 35 24
f 24 35 36
f 24 36 37
f 24 37 25
f 25 37 38
f 25 38 26
f 26 38 39
f 26 39 40
f 26 40 27
f 28 41 42
f 28 42 29
f 29 42 43
f 29 43 30
f 30 43 44
f 30 44 31
f 31 44 45
f 31 45 46
f 31 46 32
f 32 46 47
f 32 47 33
f 33 47 48
f 33 48 34
f 34 48 49
f 34 49 35
f 35 49 36
f 36 49 50
f 36 50 51
f 36 51 37
f 37 51 52
f 37 52 38
f 38 52 53
f 38 53 39
f 39 53 54
f 39 54 40
f 40 54 55
f 55 54 56
f 55 56 53
f 55 53 54
f 54 53 56
f 56 53 57
f 56 57 52
f 56 52 53
f 53 52 57
f 57 52 58
f 57 58 51
f 57 51 52
f 52 51 58
f 58 51 59
f 58 59 50
f 58 50 51
f 51 50 59
f 59 50 60
f 59 60 61
f 59 61 50
f 50 61 60
f 60 61 62
f 60 62 63
f 60 63 61
f 61 63 62
f 62 63 64
f 62 64 65
f 62 65 63
f 63 65 64
f 64 65 66
f 64 66 65
f 49 48 61
f 49 61 50
f 48 47 63
f 48 63 61
f 47 46 65
f 47 65 63
f 46 45 66
f 46 66 65
f 42 41 67
f 42 67 68
