# RS2 Model 17084
# Vertices: 391
# Faces: 498

v 21 51 40
v 21 55 47
v 15 55 47
v 15 51 40
v 21 55 33
v 21 67 40
v 21 63 47
v 15 63 47
v 15 67 40
v 21 63 33
v 15 63 33
v 15 55 33
v 58 67 40
v 58 63 47
v 64 63 47
v 64 67 40
v 58 63 33
v 58 51 40
v 58 55 47
v 64 55 47
v 64 51 40
v 58 55 33
v 64 55 33
v 64 63 33
v 21 62 35
v 21 65 40
v 58 65 40
v 58 62 35
v 21 56 35
v 58 56 35
v 21 53 40
v 58 53 40
v 21 56 45
v 58 56 45
v 21 62 45
v 58 62 45
v 28 -24 196
v 28 -16 208
v 15 -16 208
v 15 -24 196
v 28 -24 179
v 28 4 208
v 15 4 208
v 28 12 196
v 15 12 196
v 28 12 180
v 15 12 180
v 28 4 168
v 15 4 168
v 28 -16 168
v 15 -24 179
v 15 -16 168
v 28 -10 144
v 28 -2 156
v 15 -2 156
v 15 -10 144
v 28 -10 127
v 28 18 156
v 15 18 156
v 28 26 144
v 15 26 144
v 28 26 128
v 15 26 128
v 28 18 116
v 15 18 116
v 28 -2 116
v 15 -10 127
v 15 -2 116
v 28 -24 90
v 28 -16 102
v 15 -16 102
v 15 -24 90
v 28 -24 73
v 28 4 102
v 15 4 102
v 28 12 90
v 15 12 90
v 28 12 74
v 15 12 74
v 28 4 62
v 15 4 62
v 28 -16 62
v 15 -24 73
v 15 -16 62
v -11 -57 203
v -5 -57 203
v -5 -57 92
v -11 -57 92
v 0 -50 92
v -16 -50 92
v -14 -62 92
v -22 -62 92
v -11 -67 92
v -16 -74 92
v -5 -67 92
v -5 -67 203
v -11 -67 203
v -2 -62 203
v -2 -62 92
v 6 -62 92
v 6 -62 78
v 0 -50 78
v -16 -50 78
v 0 -74 92
v 0 -74 78
v -16 -74 78
v -13 -54 70
v -3 -54 70
v -3 -54 53
v -13 -54 53
v 2 -62 70
v 2 -62 53
v -3 -70 70
v -13 -70 70
v -13 -70 53
v -3 -70 53
v 2 -62 78
v -3 -70 78
v -13 -70 78
v -13 -54 78
v -3 -54 78
v -11 -86 203
v -5 -86 203
v -5 -86 182
v -11 -86 182
v 0 -79 182
v -16 -79 182
v -14 -91 182
v -22 -91 182
v -11 -96 182
v -16 -103 182
v -5 -96 182
v -5 -96 203
v -11 -96 203
v -2 -91 203
v -2 -91 182
v 6 -91 182
v 6 -91 168
v 0 -79 168
v -16 -79 168
v 0 -103 182
v 0 -103 168
v -16 -103 168
v -13 -83 160
v -3 -83 160
v -3 -83 53
v -13 -83 53
v 2 -91 160
v 2 -91 53
v -3 -99 160
v -13 -99 160
v -13 -99 53
v -3 -99 53
v 2 -91 168
v -3 -99 168
v -13 -99 168
v -13 -83 168
v -3 -83 168
v 11 -44 203
v 15 -39 203
v 15 -44 208
v 11 -108 203
v 15 -108 208
v 15 -113 203
v 11 -108 112
v -32 -108 112
v -32 -108 203
v -32 -44 112
v -32 -44 203
v 11 -44 112
v 15 -39 112
v 15 -32 112
v 15 -32 216
v 15 -120 216
v 15 -113 112
v 11 -108 53
v -32 -108 53
v -32 -44 53
v 11 -44 53
v 15 -39 53
v 15 -32 8
v 15 120 112
v 15 65 216
v 11 -32 224
v 11 -124 224
v 7 -128 216
v 7 -128 112
v 15 -120 112
v 15 -120 8
v 15 -113 53
v 15 -108 48
v -64 -120 216
v -56 -128 216
v -60 -124 224
v -60 -32 224
v -64 -32 216
v -64 -120 112
v -56 -128 112
v 11 67 224
v -60 67 224
v -64 65 216
v -64 120 112
v -64 -32 112
v -64 -120 8
v -56 -128 8
v 15 -44 48
v 11 -32 0
v 11 124 0
v 15 120 8
v 7 128 114
v 7 73 216
v 7 -128 8
v 11 -124 0
v -60 -124 0
v -64 -32 8
v -60 -32 0
v -64 120 8
v -60 124 0
v -56 128 8
v 7 128 8
v -56 128 114
v -56 73 216
v -12 58 224
v -17 50 224
v -17 50 230
v -12 58 230
v -2 58 224
v -2 58 230
v 3 50 224
v 3 50 230
v -2 42 224
v -2 42 230
v -12 42 224
v -12 42 230
v -10 56 230
v -14 50 230
v -14 50 276
v -10 56 276
v -4 56 230
v -4 56 276
v 0 50 230
v 0 50 276
v -4 44 230
v -4 44 276
v -10 44 230
v -10 44 276
v -7 50 290
v -12 28 224
v -17 20 224
v -17 20 230
v -12 28 230
v -2 28 224
v -2 28 230
v 3 20 224
v 3 20 230
v -2 12 224
v -2 12 230
v -12 12 224
v -12 12 230
v -10 26 230
v -14 20 230
v -14 20 264
v -10 26 264
v -4 26 230
v -4 26 264
v 0 20 230
v 0 20 264
v -4 14 230
v -4 14 264
v -10 14 230
v -10 14 264
v -7 20 278
v -12 0 224
v -17 -8 224
v -17 -8 230
v -12 0 230
v -2 0 224
v -2 0 230
v 3 -8 224
v 3 -8 230
v -2 -16 224
v -2 -16 230
v -12 -16 224
v -12 -16 230
v -10 -2 230
v -14 -8 230
v -14 -8 270
v -10 -2 270
v -4 -2 230
v -4 -2 270
v 0 -8 230
v 0 -8 270
v -4 -14 230
v -4 -14 270
v -10 -14 230
v -10 -14 270
v -7 -8 284
v -12 -30 224
v -17 -38 224
v -17 -38 230
v -12 -30 230
v -2 -30 224
v -2 -30 230
v 3 -38 224
v 3 -38 230
v -2 -46 224
v -2 -46 230
v -12 -46 224
v -12 -46 230
v -10 -32 230
v -14 -38 230
v -14 -38 276
v -10 -32 276
v -4 -32 230
v -4 -32 276
v 0 -38 230
v 0 -38 276
v -4 -44 230
v -4 -44 276
v -10 -44 230
v -10 -44 276
v -7 -38 290
v 21 80 65
v 21 84 72
v 15 84 72
v 15 80 65
v 21 84 58
v 21 96 65
v 21 92 72
v 15 92 72
v 15 96 65
v 21 92 58
v 15 92 58
v 15 84 58
v 58 96 65
v 58 92 72
v 64 92 72
v 64 96 65
v 58 92 58
v 58 80 65
v 58 84 72
v 64 84 72
v 64 80 65
v 58 84 58
v 64 84 58
v 64 92 58
v 21 91 60
v 21 94 65
v 58 94 65
v 58 91 60
v 21 85 60
v 58 85 60
v 21 82 65
v 58 82 65
v 21 85 70
v 58 85 70
v 21 91 70
v 58 91 70
v 29 -3 187
v 29 1 206
v 29 -6 189
v 29 -7 189
v 29 -20 186
v 29 -6 186
v 29 11 135
v 29 15 154
v 29 8 137
v 29 7 137
v 29 -6 134
v 29 8 134
v 29 -3 81
v 29 1 100
v 29 -6 83
v 29 -7 83
v 29 -20 80
v 29 -6 80
v 28 -95 56
v 28 94 59
v 28 -95 227
v -32 -68 182
v -34 -109 182
v 18 -70 182
v 14 128 114
v -63 128 114
v 14 73 216
v -30 -45 92
v -32 -72 92
v 16 -48 92
v -24 37 230
v -24 -27 230
v 10 39 230

f 1 2 3
f 1 3 4
f 1 4 5
f 1 5 6
f 1 6 2
f 2 6 7
f 2 7 8
f 2 8 3
f 7 6 9
f 7 9 8
f 6 10 11
f 6 11 9
f 10 5 12
f 10 12 11
f 5 4 12
f 5 10 6
f 13 14 15
f 13 15 16
f 13 16 17
f 13 17 18
f 13 18 14
f 14 18 19
f 14 19 20
f 14 20 15
f 19 18 21
f 19 21 20
f 18 22 23
f 18 23 21
f 22 17 24
f 22 24 23
f 17 16 24
f 17 22 18
f 25 26 27
f 25 27 28
f 25 28 29
f 29 28 30
f 29 30 31
f 31 30 32
f 31 32 33
f 33 32 34
f 33 34 35
f 35 34 36
f 35 36 26
f 26 36 27
f 37 38 39
f 37 39 40
f 37 40 41
f 37 41 38
f 38 41 42
f 38 42 43
f 38 43 39
f 42 44 45
f 42 45 43
f 44 46 47
f 44 47 45
f 46 48 49
f 46 49 47
f 50 41 51
f 50 51 52
f 41 40 51
f 41 50 48
f 41 48 46
f 41 46 44
f 41 44 42
f 53 54 55
f 53 55 56
f 53 56 57
f 53 57 54
f 54 57 58
f 54 58 59
f 54 59 55
f 58 60 61
f 58 61 59
f 60 62 63
f 60 63 61
f 62 64 65
f 62 65 63
f 66 57 67
f 66 67 68
f 57 56 67
f 57 66 64
f 57 64 62
f 57 62 60
f 57 60 58
f 69 70 71
f 69 71 72
f 69 72 73
f 69 73 70
f 70 73 74
f 70 74 75
f 70 75 71
f 74 76 77
f 74 77 75
f 76 78 79
f 76 79 77
f 78 80 81
f 78 81 79
f 82 73 83
f 82 83 84
f 73 72 83
f 73 82 80
f 73 80 78
f 73 78 76
f 73 76 74
f 85 86 87
f 85 87 88
f 88 87 89
f 88 89 90
f 88 90 91
f 91 90 92
f 91 92 93
f 93 92 94
f 93 94 95
f 93 95 96
f 93 96 97
f 86 98 99
f 86 99 87
f 87 99 100
f 87 100 89
f 89 100 101
f 89 101 102
f 89 102 90
f 90 102 103
f 98 96 95
f 98 95 99
f 99 95 104
f 99 104 100
f 100 104 105
f 100 105 101
f 104 94 106
f 104 106 105
f 94 104 95
f 107 108 109
f 107 109 110
f 108 111 112
f 108 112 109
f 113 114 115
f 113 115 116
f 113 116 111
f 113 111 117
f 113 117 118
f 113 118 114
f 114 118 119
f 111 116 112
f 108 107 120
f 108 120 121
f 108 121 111
f 111 121 117
f 122 123 124
f 122 124 125
f 125 124 126
f 125 126 127
f 125 127 128
f 128 127 129
f 128 129 130
f 130 129 131
f 130 131 132
f 130 132 133
f 130 133 134
f 123 135 136
f 123 136 124
f 124 136 137
f 124 137 126
f 126 137 138
f 126 138 139
f 126 139 127
f 127 139 140
f 135 133 132
f 135 132 136
f 136 132 141
f 136 141 137
f 137 141 142
f 137 142 138
f 141 131 143
f 141 143 142
f 131 141 132
f 144 145 146
f 144 146 147
f 145 148 149
f 145 149 146
f 150 151 152
f 150 152 153
f 150 153 148
f 150 148 154
f 150 154 155
f 150 155 151
f 151 155 156
f 148 153 149
f 145 144 157
f 145 157 158
f 145 158 148
f 148 158 154
f 159 160 161
f 159 161 162
f 162 161 163
f 162 163 164
f 162 164 165
f 162 165 166
f 162 166 167
f 167 166 168
f 167 168 169
f 169 168 170
f 169 170 159
f 159 170 171
f 159 171 160
f 160 171 172
f 160 172 173
f 160 173 161
f 161 173 174
f 161 174 163
f 163 174 164
f 164 174 175
f 164 175 165
f 165 175 176
f 165 176 177
f 165 177 166
f 166 177 178
f 166 178 168
f 168 178 179
f 168 179 170
f 170 179 180
f 170 180 171
f 171 180 181
f 171 181 172
f 172 181 182
f 172 182 183
f 172 183 173
f 173 183 184
f 173 184 185
f 173 185 174
f 174 185 186
f 174 186 187
f 174 187 188
f 174 188 175
f 175 188 189
f 175 189 190
f 175 190 176
f 176 190 191
f 176 191 179
f 176 179 178
f 176 178 177
f 192 193 194
f 192 194 195
f 192 195 196
f 192 196 197
f 192 197 193
f 193 197 198
f 193 198 186
f 193 186 194
f 194 186 185
f 194 185 184
f 194 184 195
f 195 184 199
f 195 199 200
f 195 200 196
f 196 200 201
f 196 201 202
f 196 202 203
f 196 203 197
f 197 203 204
f 197 204 198
f 198 204 205
f 198 205 187
f 198 187 186
f 179 206 180
f 180 206 181
f 181 206 191
f 181 191 189
f 181 189 207
f 181 207 208
f 181 208 209
f 181 209 182
f 182 209 210
f 182 210 211
f 182 211 183
f 183 211 199
f 183 199 184
f 191 206 179
f 212 213 189
f 212 189 188
f 212 188 187
f 212 187 205
f 212 205 213
f 213 205 214
f 214 205 204
f 214 204 215
f 214 215 216
f 216 215 217
f 216 217 218
f 218 217 219
f 218 219 220
f 218 220 208
f 208 220 209
f 209 220 210
f 210 220 221
f 210 221 222
f 210 222 211
f 211 222 199
f 199 222 200
f 200 222 201
f 201 222 221
f 201 221 202
f 202 221 219
f 202 219 217
f 202 217 203
f 203 217 215
f 203 215 204
f 191 190 189
f 207 189 213
f 223 224 225
f 223 225 226
f 223 226 227
f 227 226 228
f 227 228 229
f 229 228 230
f 229 230 231
f 231 230 232
f 231 232 233
f 233 232 234
f 233 234 224
f 224 234 225
f 225 234 232
f 225 232 230
f 225 230 226
f 226 230 228
f 235 236 237
f 235 237 238
f 235 238 239
f 239 238 240
f 239 240 241
f 241 240 242
f 241 242 243
f 243 242 244
f 243 244 245
f 245 244 246
f 245 246 236
f 236 246 237
f 237 246 247
f 237 247 238
f 238 247 240
f 240 247 242
f 242 247 244
f 244 247 246
f 248 249 250
f 248 250 251
f 248 251 252
f 252 251 253
f 252 253 254
f 254 253 255
f 254 255 256
f 256 255 257
f 256 257 258
f 258 257 259
f 258 259 249
f 249 259 250
f 250 259 257
f 250 257 255
f 250 255 251
f 251 255 253
f 260 261 262
f 260 262 263
f 260 263 264
f 264 263 265
f 264 265 266
f 266 265 267
f 266 267 268
f 268 267 269
f 268 269 270
f 270 269 271
f 270 271 261
f 261 271 262
f 262 271 272
f 262 272 263
f 263 272 265
f 265 272 267
f 267 272 269
f 269 272 271
f 221 220 219
f 273 274 275
f 273 275 276
f 273 276 277
f 277 276 278
f 277 278 279
f 279 278 280
f 279 280 281
f 281 280 282
f 281 282 283
f 283 282 284
f 283 284 274
f 274 284 275
f 275 284 282
f 275 282 280
f 275 280 276
f 276 280 278
f 285 286 287
f 285 287 288
f 285 288 289
f 289 288 290
f 289 290 291
f 291 290 292
f 291 292 293
f 293 292 294
f 293 294 295
f 295 294 296
f 295 296 286
f 286 296 287
f 287 296 297
f 287 297 288
f 288 297 290
f 290 297 292
f 292 297 294
f 294 297 296
f 298 299 300
f 298 300 301
f 298 301 302
f 302 301 303
f 302 303 304
f 304 303 305
f 304 305 306
f 306 305 307
f 306 307 308
f 308 307 309
f 308 309 299
f 299 309 300
f 300 309 307
f 300 307 305
f 300 305 301
f 301 305 303
f 310 311 312
f 310 312 313
f 310 313 314
f 314 313 315
f 314 315 316
f 316 315 317
f 316 317 318
f 318 317 319
f 318 319 320
f 320 319 321
f 320 321 311
f 311 321 312
f 312 321 322
f 312 322 313
f 313 322 315
f 315 322 317
f 317 322 319
f 319 322 321
f 323 324 325
f 323 325 326
f 323 326 327
f 323 327 328
f 323 328 324
f 324 328 329
f 324 329 330
f 324 330 325
f 329 328 331
f 329 331 330
f 328 332 333
f 328 333 331
f 332 327 334
f 332 334 333
f 327 326 334
f 327 332 328
f 335 336 337
f 335 337 338
f 335 338 339
f 335 339 340
f 335 340 336
f 336 340 341
f 336 341 342
f 336 342 337
f 341 340 343
f 341 343 342
f 340 344 345
f 340 345 343
f 344 339 346
f 344 346 345
f 339 338 346
f 339 344 340
f 347 348 349
f 347 349 350
f 347 350 351
f 351 350 352
f 351 352 353
f 353 352 354
f 353 354 355
f 355 354 356
f 355 356 357
f 357 356 358
f 357 358 348
f 348 358 349
f 359 360 361
f 362 363 364
f 365 366 367
f 368 369 370
f 371 372 373
f 374 375 376
f 377 378 379
f 380 381 382
