# RS2 Model 17128
# Vertices: 315
# Faces: 465

v -6 52 50
v -52 38 48
v 6 10 52
v -32 7 50
v -6 14 50
v -40 35 50
v 14 -25 50
v -7 -8 50
v -5 -50 50
v -23 45 33
v -7 38 33
v -4 41 18
v -23 49 18
v -40 39 33
v -43 42 18
v -44 32 33
v -48 32 18
v -38 10 33
v -41 7 18
v -18 5 33
v -17 1 18
v -13 14 33
v -10 11 18
v -5 17 33
v -1 16 18
v 1 14 18
v -1 44 18
v -23 52 18
v -46 45 18
v -51 32 18
v -44 4 18
v -15 -1 18
v -7 8 18
v -7 8 11
v 1 14 11
v -1 44 11
v -23 52 11
v -46 45 11
v -51 32 11
v -44 4 11
v -15 -1 11
v -5 40 0
v -23 47 0
v -23 50 11
v -3 42 11
v -3 16 0
v -1 15 11
v -11 12 0
v -9 10 11
v -17 3 0
v -16 1 11
v -40 8 0
v -42 6 11
v -46 32 0
v -49 32 11
v -42 41 0
v -44 43 11
v -3 42 40
v -23 50 40
v -23 44 53
v -8 37 53
v -1 15 40
v 1 14 40
v -1 44 40
v -23 52 40
v -44 43 40
v -39 38 53
v -36 35 50
v -23 40 50
v -11 34 50
v -6 17 53
v -9 10 40
v -7 8 40
v -7 8 33
v 1 14 33
v -1 44 33
v -23 52 33
v -46 45 40
v -49 32 40
v -43 32 53
v -39 32 50
v -25 26 50
v -23 27 50
v -21 26 50
v -10 19 50
v -14 15 53
v -16 1 40
v -15 -1 40
v -15 -1 33
v -42 6 40
v -37 11 53
v -34 14 50
v -24 23 50
v -24 22 57
v -26 26 57
v -23 28 57
v -20 26 57
v -21 24 50
v -17 18 50
v -18 6 53
v -44 4 40
v -44 4 33
v -20 10 50
v -20 24 57
v -46 45 33
v -51 32 40
v -51 32 33
v 20 -4 33
v 10 9 33
v 6 8 18
v 18 -8 18
v 37 -7 33
v 39 -12 18
v 45 -3 33
v 48 -6 18
v 50 19 33
v 54 20 18
v 36 33 33
v 36 37 18
v 27 28 33
v 25 31 18
v 18 29 33
v 15 32 18
v 14 34 18
v 1 7 18
v 17 -10 18
v 40 -16 18
v 51 -7 18
v 58 22 18
v 35 39 18
v 24 36 18
v 24 36 11
v 14 34 11
v 1 7 11
v 17 -10 11
v 40 -16 11
v 51 -7 11
v 58 22 11
v 35 39 11
v 6 9 0
v 19 -7 0
v 17 -9 11
v 4 8 11
v 17 31 0
v 16 33 11
v 26 31 0
v 25 33 11
v 35 35 0
v 36 37 11
v 53 20 0
v 56 20 11
v 47 -4 0
v 49 -6 11
v 39 -10 0
v 39 -12 11
v 4 8 40
v 17 -9 40
v 21 -4 53
v 11 10 53
v 16 33 40
v 14 34 40
v 1 7 40
v 17 -10 40
v 39 -12 40
v 37 -6 53
v 36 -2 50
v 23 0 50
v 15 11 50
v 19 29 53
v 25 33 40
v 24 36 40
v 24 36 33
v 14 34 33
v 1 7 33
v 17 -10 33
v 40 -16 40
v 49 -6 40
v 44 -3 53
v 41 0 50
v 31 11 50
v 28 11 50
v 28 14 50
v 22 24 50
v 27 26 53
v 36 37 40
v 35 39 40
v 35 39 33
v 56 20 40
v 49 18 53
v 45 17 50
v 31 14 50
v 32 15 57
v 32 11 57
v 28 10 57
v 26 14 57
v 29 15 50
v 28 22 50
v 35 32 53
v 58 22 40
v 58 22 33
v 35 28 50
v 28 15 57
v 40 -16 33
v 51 -7 40
v 51 -7 33
v 13 -35 33
v 2 -48 33
v 4 -52 18
v 17 -36 18
v 11 -17 33
v 15 -15 18
v 6 -11 33
v 7 -7 18
v -17 -12 33
v -20 -8 18
v -28 -29 33
v -31 -29 18
v -20 -36 33
v -23 -39 18
v -19 -45 33
v -21 -48 18
v -23 -50 18
v 6 -56 18
v 19 -37 18
v 19 -13 18
v 8 -4 18
v -22 -4 18
v -34 -31 18
v -27 -41 18
v -27 -41 11
v -23 -50 11
v 6 -56 11
v 19 -37 11
v 19 -13 11
v 8 -4 11
v -22 -4 11
v -34 -31 11
v 3 -51 0
v 15 -35 0
v 18 -36 11
v 4 -53 11
v -21 -46 0
v -22 -48 11
v -23 -38 0
v -25 -39 11
v -30 -30 0
v -32 -30 11
v -19 -8 0
v -20 -6 11
v 6 -9 0
v 7 -6 11
v 14 -15 0
v 16 -14 11
v 4 -53 40
v 18 -36 40
v 12 -34 53
v 1 -48 53
v -22 -48 40
v -23 -50 40
v 6 -56 40
v 19 -37 40
v 16 -14 40
v 10 -18 53
v 6 -20 50
v 8 -33 50
v -1 -44 50
v -19 -44 53
v -25 -39 40
v -27 -41 40
v -27 -41 33
v -23 -50 33
v 6 -56 33
v 19 -37 33
v 19 -13 40
v 7 -6 40
v 5 -12 53
v 4 -16 50
v -5 -28 50
v -5 -31 50
v -7 -32 50
v -16 -40 50
v -19 -36 53
v -32 -30 40
v -34 -31 40
v -34 -31 33
v -20 -6 40
v -17 -12 53
v -14 -16 50
v -8 -28 50
v -9 -28 57
v -5 -27 57
v -3 -30 57
v -6 -33 57
v -8 -31 50
v -15 -33 50
v -27 -29 53
v -22 -4 40
v -22 -4 33
v -23 -28 50
v -8 -32 57
v 19 -13 33
v 8 -4 40
v 8 -4 33
v 65 35 52
v 7 48 52
v 52 -23 49
v -46 -3 29
v 3 0 29
v -50 49 29
v 30 33 50
v 9 14 50
v 50 10 50
v -50 -38 38
v 14 -68 38
v -28 11 38

f 1 2 3
f 4 5 6
f 7 8 9
f 10 11 12
f 10 12 13
f 10 13 14
f 14 13 15
f 14 15 16
f 16 15 17
f 16 17 18
f 18 17 19
f 18 19 20
f 20 19 21
f 20 21 22
f 22 21 23
f 22 23 24
f 24 23 25
f 24 25 11
f 11 25 12
f 12 25 26
f 12 26 27
f 12 27 13
f 13 27 28
f 13 28 15
f 15 28 29
f 15 29 17
f 17 29 30
f 17 30 19
f 19 30 31
f 19 31 21
f 21 31 32
f 21 32 23
f 23 32 33
f 23 33 25
f 25 33 26
f 26 33 34
f 26 34 35
f 26 35 27
f 27 35 36
f 27 36 28
f 28 36 37
f 28 37 29
f 29 37 38
f 29 38 30
f 30 38 39
f 30 39 31
f 31 39 40
f 31 40 32
f 32 40 41
f 32 41 33
f 33 41 34
f 42 43 44
f 42 44 45
f 42 45 46
f 46 45 47
f 46 47 48
f 48 47 49
f 48 49 50
f 50 49 51
f 50 51 52
f 52 51 53
f 52 53 54
f 54 53 55
f 54 55 56
f 56 55 57
f 56 57 43
f 43 57 44
f 58 59 60
f 58 60 61
f 58 61 62
f 58 62 63
f 58 63 64
f 58 64 59
f 59 64 65
f 59 65 66
f 59 66 67
f 59 67 60
f 60 67 68
f 60 68 69
f 60 69 61
f 61 69 70
f 61 70 71
f 61 71 62
f 62 71 72
f 62 72 73
f 62 73 63
f 63 73 74
f 63 74 75
f 63 75 64
f 64 75 76
f 64 76 65
f 65 76 77
f 65 77 78
f 65 78 66
f 66 78 79
f 66 79 80
f 66 80 67
f 67 80 81
f 67 81 68
f 68 81 82
f 68 82 83
f 68 83 69
f 69 83 70
f 70 83 84
f 70 84 85
f 70 85 71
f 71 85 86
f 71 86 72
f 72 86 87
f 72 87 88
f 72 88 73
f 73 88 89
f 73 89 74
f 79 90 91
f 79 91 80
f 80 91 92
f 80 92 81
f 81 92 93
f 81 93 82
f 82 93 94
f 82 94 95
f 82 95 83
f 83 95 96
f 83 96 84
f 84 96 97
f 84 97 98
f 84 98 99
f 84 99 85
f 85 99 86
f 86 99 100
f 86 100 87
f 87 100 90
f 87 90 101
f 87 101 88
f 88 101 102
f 88 102 89
f 90 100 91
f 91 100 103
f 91 103 92
f 92 103 93
f 93 103 98
f 93 98 104
f 93 104 94
f 94 104 97
f 94 97 95
f 95 97 96
f 77 105 78
f 78 105 106
f 78 106 79
f 79 106 90
f 90 106 101
f 101 106 107
f 101 107 102
f 105 107 106
f 100 99 103
f 103 99 98
f 98 97 104
f 108 109 110
f 108 110 111
f 108 111 112
f 112 111 113
f 112 113 114
f 114 113 115
f 114 115 116
f 116 115 117
f 116 117 118
f 118 117 119
f 118 119 120
f 120 119 121
f 120 121 122
f 122 121 123
f 122 123 109
f 109 123 110
f 110 123 124
f 110 124 125
f 110 125 111
f 111 125 126
f 111 126 113
f 113 126 127
f 113 127 115
f 115 127 128
f 115 128 117
f 117 128 129
f 117 129 119
f 119 129 130
f 119 130 121
f 121 130 131
f 121 131 123
f 123 131 124
f 124 131 132
f 124 132 133
f 124 133 125
f 125 133 134
f 125 134 126
f 126 134 135
f 126 135 127
f 127 135 136
f 127 136 128
f 128 136 137
f 128 137 129
f 129 137 138
f 129 138 130
f 130 138 139
f 130 139 131
f 131 139 132
f 140 141 142
f 140 142 143
f 140 143 144
f 144 143 145
f 144 145 146
f 146 145 147
f 146 147 148
f 148 147 149
f 148 149 150
f 150 149 151
f 150 151 152
f 152 151 153
f 152 153 154
f 154 153 155
f 154 155 141
f 141 155 142
f 156 157 158
f 156 158 159
f 156 159 160
f 156 160 161
f 156 161 162
f 156 162 157
f 157 162 163
f 157 163 164
f 157 164 165
f 157 165 158
f 158 165 166
f 158 166 167
f 158 167 159
f 159 167 168
f 159 168 169
f 159 169 160
f 160 169 170
f 160 170 171
f 160 171 161
f 161 171 172
f 161 172 173
f 161 173 162
f 162 173 174
f 162 174 163
f 163 174 175
f 163 175 176
f 163 176 164
f 164 176 177
f 164 177 178
f 164 178 165
f 165 178 179
f 165 179 166
f 166 179 180
f 166 180 181
f 166 181 167
f 167 181 168
f 168 181 182
f 168 182 183
f 168 183 169
f 169 183 184
f 169 184 170
f 170 184 185
f 170 185 186
f 170 186 171
f 171 186 187
f 171 187 172
f 177 188 189
f 177 189 178
f 178 189 190
f 178 190 179
f 179 190 191
f 179 191 180
f 180 191 192
f 180 192 193
f 180 193 181
f 181 193 194
f 181 194 182
f 182 194 195
f 182 195 196
f 182 196 197
f 182 197 183
f 183 197 184
f 184 197 198
f 184 198 185
f 185 198 188
f 185 188 199
f 185 199 186
f 186 199 200
f 186 200 187
f 188 198 189
f 189 198 201
f 189 201 190
f 190 201 191
f 191 201 196
f 191 196 202
f 191 202 192
f 192 202 195
f 192 195 193
f 193 195 194
f 175 203 176
f 176 203 204
f 176 204 177
f 177 204 188
f 188 204 199
f 199 204 205
f 199 205 200
f 203 205 204
f 198 197 201
f 201 197 196
f 196 195 202
f 206 207 208
f 206 208 209
f 206 209 210
f 210 209 211
f 210 211 212
f 212 211 213
f 212 213 214
f 214 213 215
f 214 215 216
f 216 215 217
f 216 217 218
f 218 217 219
f 218 219 220
f 220 219 221
f 220 221 207
f 207 221 208
f 208 221 222
f 208 222 223
f 208 223 209
f 209 223 224
f 209 224 211
f 211 224 225
f 211 225 213
f 213 225 226
f 213 226 215
f 215 226 227
f 215 227 217
f 217 227 228
f 217 228 219
f 219 228 229
f 219 229 221
f 221 229 222
f 222 229 230
f 222 230 231
f 222 231 223
f 223 231 232
f 223 232 224
f 224 232 233
f 224 233 225
f 225 233 234
f 225 234 226
f 226 234 235
f 226 235 227
f 227 235 236
f 227 236 228
f 228 236 237
f 228 237 229
f 229 237 230
f 238 239 240
f 238 240 241
f 238 241 242
f 242 241 243
f 242 243 244
f 244 243 245
f 244 245 246
f 246 245 247
f 246 247 248
f 248 247 249
f 248 249 250
f 250 249 251
f 250 251 252
f 252 251 253
f 252 253 239
f 239 253 240
f 254 255 256
f 254 256 257
f 254 257 258
f 254 258 259
f 254 259 260
f 254 260 255
f 255 260 261
f 255 261 262
f 255 262 263
f 255 263 256
f 256 263 264
f 256 264 265
f 256 265 257
f 257 265 266
f 257 266 267
f 257 267 258
f 258 267 268
f 258 268 269
f 258 269 259
f 259 269 270
f 259 270 271
f 259 271 260
f 260 271 272
f 260 272 261
f 261 272 273
f 261 273 274
f 261 274 262
f 262 274 275
f 262 275 276
f 262 276 263
f 263 276 277
f 263 277 264
f 264 277 278
f 264 278 279
f 264 279 265
f 265 279 266
f 266 279 280
f 266 280 281
f 266 281 267
f 267 281 282
f 267 282 268
f 268 282 283
f 268 283 284
f 268 284 269
f 269 284 285
f 269 285 270
f 275 286 287
f 275 287 276
f 276 287 288
f 276 288 277
f 277 288 289
f 277 289 278
f 278 289 290
f 278 290 291
f 278 291 279
f 279 291 292
f 279 292 280
f 280 292 293
f 280 293 294
f 280 294 295
f 280 295 281
f 281 295 282
f 282 295 296
f 282 296 283
f 283 296 286
f 283 286 297
f 283 297 284
f 284 297 298
f 284 298 285
f 286 296 287
f 287 296 299
f 287 299 288
f 288 299 289
f 289 299 294
f 289 294 300
f 289 300 290
f 290 300 293
f 290 293 291
f 291 293 292
f 273 301 274
f 274 301 302
f 274 302 275
f 275 302 286
f 286 302 297
f 297 302 303
f 297 303 298
f 301 303 302
f 296 295 299
f 299 295 294
f 294 293 300
