# RS2 Model 17135
# Vertices: 135
# Faces: 193

v 42 34 37
v 42 10 37
v 42 3 13
v 42 41 13
v 42 41 53
v 42 34 40
v 42 10 40
v 42 3 53
v 38 3 53
v 38 3 13
v 33 0 61
v 33 0 6
v 38 41 13
v 33 45 6
v 38 41 53
v 33 45 61
v 27 50 61
v 27 50 6
v -44 50 61
v -44 50 6
v -50 45 61
v -50 45 6
v -50 -45 61
v -50 -45 6
v -44 -50 61
v -44 -50 6
v 27 -50 61
v 27 -50 6
v 33 -45 61
v 33 -45 6
v 38 -40 13
v 38 -40 53
v 38 -2 53
v 38 -2 13
v 27 -45 1
v 27 45 1
v -44 45 1
v 42 -9 37
v 42 -33 37
v 42 -40 13
v 42 -2 13
v 42 -2 53
v 42 -9 40
v 42 -33 40
v 42 -40 53
v 42 34 103
v 42 10 103
v 42 3 79
v 42 41 79
v 42 41 119
v 42 34 106
v 42 10 106
v 42 3 119
v 38 3 119
v 38 3 79
v 33 0 127
v 33 0 72
v 38 41 79
v 33 45 72
v 38 41 119
v 33 45 127
v 27 45 132
v 27 -45 132
v 33 -45 127
v 38 -40 119
v 38 -2 119
v 38 -2 79
v 33 -45 72
v 36 -47 72
v 36 47 72
v 27 50 72
v 27 50 127
v 42 -9 103
v 42 -33 103
v 42 -40 79
v 42 -2 79
v 42 -2 119
v 42 -9 106
v 42 -33 106
v 42 -40 119
v 38 -40 79
v -44 50 72
v -50 45 72
v 27 -50 127
v 27 -50 72
v 30 -53 72
v 30 -53 61
v 36 -47 61
v 36 47 61
v 30 53 72
v -44 50 127
v -50 45 127
v -50 -45 127
v -44 45 132
v -44 -45 132
v -44 -50 127
v -50 -45 72
v -44 -50 72
v -47 -53 72
v -47 -53 61
v 30 53 61
v -47 53 61
v -47 53 72
v -53 -47 61
v -53 -47 72
v -53 47 61
v -53 47 72
v -44 -45 1
v -59 -46 118
v -38 -42 136
v -60 42 117
v -24 0 25
v 102 0 25
v -24 0 96
v 17 -37 5
v -34 -37 5
v 15 -12 -47
v -28 45 82
v 11 45 82
v -28 45 1
v 34 36 139
v 30 52 120
v -47 36 140
v 32 -55 113
v 32 -35 137
v -48 -55 114
v 44 42 78
v -11 42 78
v 44 -41 78
v 83 44 78
v 83 -44 78
v 47 44 49
v 42 41 121
v 42 -39 122
v 42 40 15

f 1 2 3
f 1 3 4
f 1 4 5
f 1 5 6
f 1 6 2
f 2 6 7
f 2 7 8
f 2 8 3
f 3 8 9
f 3 9 10
f 10 9 11
f 10 11 12
f 10 12 13
f 13 12 14
f 13 14 15
f 13 15 5
f 13 5 4
f 7 6 5
f 7 5 8
f 8 5 9
f 9 5 15
f 9 15 16
f 9 16 11
f 15 14 16
f 16 14 17
f 17 14 18
f 17 18 19
f 19 18 20
f 19 20 21
f 21 20 22
f 21 22 23
f 23 22 24
f 23 24 25
f 25 24 26
f 25 26 27
f 27 26 28
f 27 28 29
f 29 28 30
f 29 30 31
f 29 31 32
f 29 32 11
f 11 32 33
f 11 33 12
f 12 33 34
f 12 34 30
f 12 30 35
f 12 35 36
f 12 36 14
f 14 36 18
f 18 36 37
f 18 37 20
f 20 37 22
f 38 39 40
f 38 40 41
f 38 41 42
f 38 42 43
f 38 43 39
f 39 43 44
f 39 44 45
f 39 45 40
f 40 45 32
f 40 32 31
f 44 43 42
f 44 42 45
f 45 42 32
f 32 42 33
f 33 42 34
f 34 42 41
f 34 31 30
f 46 47 48
f 46 48 49
f 46 49 50
f 46 50 51
f 46 51 47
f 47 51 52
f 47 52 53
f 47 53 48
f 48 53 54
f 48 54 55
f 55 54 56
f 55 56 57
f 55 57 58
f 58 57 59
f 58 59 60
f 58 60 50
f 58 50 49
f 52 51 50
f 52 50 53
f 53 50 54
f 54 50 60
f 54 60 61
f 54 61 56
f 56 61 62
f 56 62 63
f 56 63 64
f 56 64 65
f 56 65 66
f 56 66 57
f 57 66 67
f 57 67 68
f 57 68 69
f 57 69 70
f 57 70 59
f 59 70 71
f 59 71 72
f 59 72 61
f 59 61 60
f 73 74 75
f 73 75 76
f 73 76 77
f 73 77 78
f 73 78 74
f 74 78 79
f 74 79 80
f 74 80 75
f 75 80 65
f 75 65 81
f 81 65 64
f 81 64 68
f 81 68 67
f 79 78 77
f 79 77 80
f 80 77 65
f 65 77 66
f 66 77 67
f 67 77 76
f 82 83 21
f 82 21 19
f 64 84 85
f 64 85 68
f 68 85 86
f 68 86 69
f 69 86 87
f 69 87 88
f 69 88 70
f 70 88 89
f 70 89 90
f 70 90 71
f 71 90 82
f 71 82 91
f 71 91 72
f 72 91 62
f 72 62 61
f 92 91 82
f 92 82 83
f 92 83 93
f 92 93 94
f 92 94 91
f 91 94 62
f 62 94 63
f 63 94 95
f 63 95 84
f 63 84 64
f 96 93 97
f 96 97 98
f 96 98 84
f 96 84 95
f 96 95 93
f 93 95 94
f 84 98 85
f 85 98 99
f 85 99 86
f 86 99 100
f 86 100 87
f 101 102 103
f 101 103 90
f 101 90 89
f 104 100 99
f 104 99 105
f 104 105 97
f 104 97 23
f 102 106 107
f 102 107 103
f 103 107 83
f 103 83 82
f 103 82 90
f 98 97 105
f 98 105 99
f 21 83 107
f 21 107 106
f 26 24 108
f 26 108 35
f 26 35 28
f 28 35 30
f 83 97 93
f 97 83 107
f 97 107 105
f 105 107 106
f 105 106 104
f 109 110 111
f 112 113 114
f 115 116 117
f 118 119 120
