# RS2 Model 17194
# Vertices: 32
# Faces: 46

v 20 -1 8
v 20 -1 -8
v 28 -1 -5
v 28 -1 5
v 20 -1 13
v 16 3 10
v 0 -1 4
v 0 -1 -4
v 0 3 -5
v 16 3 -10
v 20 -1 -13
v 20 3 -17
v 30 3 -6
v 36 -1 0
v 41 3 0
v 30 3 6
v 20 3 17
v 0 3 5
v -20 -1 8
v -20 -1 -8
v -16 3 -10
v -28 -1 -5
v -20 -1 -13
v -20 3 -17
v -30 3 -6
v -41 3 0
v -36 -1 0
v -30 3 6
v -28 -1 5
v -20 3 17
v -20 -1 13
v -16 3 10

f 1 2 3
f 1 3 4
f 1 4 5
f 1 5 6
f 1 6 7
f 1 7 2
f 2 7 8
f 2 8 9
f 2 9 10
f 2 10 11
f 2 11 3
f 3 11 12
f 3 12 13
f 3 13 14
f 3 14 4
f 4 14 15
f 4 15 16
f 4 16 5
f 5 16 17
f 5 17 6
f 14 13 15
f 10 12 11
f 7 6 18
f 7 18 19
f 7 19 20
f 7 20 8
f 8 20 21
f 8 21 9
f 19 22 20
f 20 22 23
f 20 23 21
f 21 23 24
f 24 23 25
f 25 23 22
f 25 22 26
f 26 22 27
f 26 27 28
f 28 27 29
f 28 29 30
f 30 29 31
f 30 31 32
f 32 31 19
f 32 19 18
f 22 29 27
f 29 22 19
f 29 19 31
