# RS2 Model 17249
# Vertices: 64
# Faces: 59

v -64 64 61
v -64 -48 61
v 56 -48 4
v 56 64 4
v 64 64 10
v 65 -64 9
v 64 -64 0
v 63 64 0
v 25 64 15
v 30 -64 15
v 30 -64 23
v 25 64 24
v 36 64 32
v 33 -64 32
v 32 -64 23
v 35 64 24
v 0 64 32
v -3 -64 32
v -2 -64 40
v 1 64 41
v 4 64 47
v 3 -64 47
v 1 -64 40
v 3 64 40
v -42 64 51
v -41 -64 51
v -40 -64 56
v -40 64 57
v -34 64 64
v -33 -64 64
v -33 -64 55
v -35 64 55
v -64 64 71
v -64 -64 71
v -64 -64 62
v -27 -64 0
v -27 -64 44
v -63 -64 62
v -63 -64 0
v -63 -48 62
v -63 -48 0
v 5 -61 0
v 5 -61 28
v -23 -61 42
v -24 -61 0
v -23 -45 42
v -24 -45 0
v 35 -64 0
v 32 -64 14
v 8 -64 27
v 7 -64 0
v 8 -48 27
v 7 -48 0
v 36 -45 12
v 37 -45 0
v 37 -61 0
v 36 -61 12
v 64 -61 0
v 35 -48 0
v 32 -48 14
v 5 -45 0
v 5 -45 28
v -26 -48 0
v -27 -48 44

f 1 2 3
f 1 3 4
f 5 6 7
f 5 7 8
f 9 10 11
f 9 11 12
f 12 11 6
f 12 6 5
f 13 14 15
f 13 15 16
f 17 18 19
f 17 19 20
f 20 19 14
f 20 14 13
f 21 22 23
f 21 23 24
f 25 26 27
f 25 27 28
f 28 27 22
f 28 22 21
f 29 30 31
f 29 31 32
f 33 34 30
f 33 30 29
f 34 35 31
f 34 31 30
f 23 22 27
f 23 27 26
f 15 14 19
f 15 19 18
f 7 6 11
f 7 11 10
f 36 37 38
f 36 38 39
f 39 38 40
f 39 40 41
f 42 43 44
f 42 44 45
f 45 44 46
f 45 46 47
f 48 49 50
f 48 50 51
f 51 50 52
f 51 52 53
f 54 55 56
f 54 56 57
f 57 56 58
f 59 60 49
f 59 49 48
f 61 62 43
f 61 43 42
f 63 64 37
f 63 37 36
f 38 37 64
f 38 64 40
f 44 43 62
f 44 62 46
f 50 49 60
f 50 60 52
