# RS2 Model 17281
# Vertices: 56
# Faces: 67

v 1 -38 228
v -1 -38 228
v -1 -38 227
v 1 -38 227
v 2 -26 226
v 3 -26 230
v -3 -26 230
v -2 -26 226
v -3 64 231
v -2 64 226
v 2 -44 6
v 0 -44 6
v 0 -44 5
v 2 -44 5
v 3 -32 4
v 4 -32 8
v -2 -32 8
v -1 -32 4
v -2 64 11
v -1 64 3
v -7 -16 205
v -3 -16 198
v 10 -16 198
v 15 -16 205
v 10 -16 217
v -3 -16 217
v -3 0 217
v -7 0 205
v -3 0 198
v -27 42 205
v -10 45 175
v -27 64 205
v -18 64 190
v -10 64 175
v 10 0 198
v 15 0 205
v 10 0 217
v -10 24 220
v -10 64 220
v -18 64 212
v 30 42 205
v 19 45 175
v 19 64 175
v 24 64 190
v 32 64 205
v 19 24 220
v 26 64 212
v 19 64 220
v 4 64 220
v 2 64 226
v 3 64 231
v 3 64 3
v 4 64 11
v -7 -16 216
v -7 -16 197
v 14 -16 216

f 1 2 3
f 1 3 4
f 1 4 5
f 1 5 6
f 1 6 2
f 2 6 7
f 2 7 3
f 3 7 8
f 8 7 9
f 8 9 10
f 11 12 13
f 11 13 14
f 11 14 15
f 11 15 16
f 11 16 12
f 12 16 17
f 12 17 13
f 13 17 18
f 18 17 19
f 18 19 20
f 21 22 23
f 21 23 24
f 21 24 25
f 21 25 26
f 21 26 27
f 21 27 28
f 21 28 22
f 22 28 29
f 29 28 30
f 29 30 31
f 31 30 32
f 31 32 33
f 31 33 34
f 35 36 24
f 35 24 23
f 36 37 25
f 36 25 24
f 37 27 26
f 37 26 25
f 30 38 39
f 30 39 40
f 30 40 32
f 41 42 43
f 41 43 44
f 41 44 45
f 41 45 46
f 41 46 37
f 41 37 36
f 41 36 42
f 42 36 35
f 46 47 48
f 46 48 38
f 46 38 27
f 46 27 37
f 38 49 39
f 49 38 48
f 38 30 28
f 38 28 27
f 46 45 47
f 5 50 6
f 6 50 51
f 6 51 7
f 7 51 9
f 15 52 16
f 16 52 53
f 16 53 17
f 17 53 19
