# RS2 Model 17320
# Vertices: 180
# Faces: 270

v 32 -33 6
v 27 -34 6
v 27 -38 6
v 31 -41 6
v 36 -38 6
v 43 -39 0
v 36 -28 0
v 24 -27 0
v 21 -40 0
v 31 -48 0
v 5 -52 4
v 3 -49 4
v 0 -52 4
v 0 -56 4
v 4 -57 4
v 5 -59 0
v 9 -53 0
v 5 -46 0
v -4 -49 0
v -5 -58 0
v 55 -49 4
v 52 -49 4
v 51 -52 4
v 54 -54 4
v 58 -53 4
v 61 -54 0
v 59 -46 0
v 51 -44 0
v 47 -52 0
v 53 -58 0
v 37 56 4
v 34 55 4
v 34 52 4
v 37 51 4
v 40 52 4
v 43 52 0
v 40 59 0
v 32 59 0
v 30 50 0
v 37 44 0
v 55 -22 4
v 54 -19 4
v 51 -19 4
v 48 -22 4
v 51 -26 4
v 51 -29 0
v 58 -25 0
v 59 -17 0
v 50 -15 0
v 44 -22 0
v -32 42 0
v -39 56 0
v -38 58 10
v -30 41 10
v -47 28 0
v -48 25 10
v -56 42 0
v -61 41 10
v -56 55 10
v -53 53 0
v -55 58 10
v -52 56 0
v -55 56 18
v -43 56 18
v -36 43 18
v -49 29 18
v -58 43 18
v -56 53 18
v -50 45 22
v -21 -33 0
v 0 -27 0
v -6 -38 47
v -39 -46 46
v -34 -24 0
v -53 -25 42
v -39 18 1
v -58 18 32
v -20 37 0
v -30 48 27
v 24 37 0
v 26 48 31
v 33 -6 0
v 42 -9 45
v -3 -36 47
v -1 -22 0
v -2 -40 77
v -34 -48 76
v -49 -26 71
v -54 18 61
v -27 49 55
v 26 46 60
v 31 48 59
v 56 -12 74
v 1 -34 76
v 1 -45 105
v -33 -52 111
v -46 -27 116
v -50 20 119
v -24 53 98
v 31 46 95
v 35 49 94
v 58 -18 96
v 4 -38 104
v -29 -39 118
v -34 -11 124
v -37 12 130
v -17 41 121
v 28 32 124
v 46 -12 103
v 1 -32 113
v -10 30 139
v -11 33 133
v 59 17 0
v 57 30 0
v 58 32 8
v 62 16 8
v 49 10 0
v 49 7 8
v 31 29 0
v 27 31 8
v 37 40 8
v 39 39 0
v 38 43 8
v 40 41 0
v 37 41 14
v 54 30 14
v 57 19 14
v 49 11 14
v 30 30 14
v 36 39 14
v 51 24 18
v -48 -43 0
v -56 -41 0
v -56 -40 5
v -47 -42 5
v -47 -54 0
v -46 -56 5
v -58 -54 0
v -59 -57 5
v -62 -48 5
v -60 -47 0
v -62 -47 5
v -60 -46 0
v -61 -47 9
v -57 -43 9
v -50 -44 9
v -49 -54 9
v -59 -55 9
v -61 -49 9
v -55 -48 11
v -43 -7 4
v -45 -5 4
v -48 -7 4
v -47 -10 4
v -44 -12 4
v -42 -14 0
v -38 -8 0
v -43 -1 0
v -51 -4 0
v -52 -14 0
v -37 -38 4
v -35 -35 4
v -36 -33 4
v -41 -32 4
v -42 -37 4
v -45 -38 0
v -37 -42 0
v -30 -38 0
v -34 -30 0
v -43 -29 0
v -11 54 4
v -14 56 4
v -16 54 4
v -15 51 4
v -13 49 4
v -11 47 0
v -7 54 0
v -12 60 0
v -20 56 0
v -21 47 0

f 1 2 3
f 1 3 4
f 1 4 5
f 1 5 6
f 1 6 7
f 1 7 2
f 2 7 8
f 2 8 3
f 3 8 9
f 3 9 4
f 4 9 10
f 4 10 5
f 5 10 6
f 11 12 13
f 11 13 14
f 11 14 15
f 11 15 16
f 11 16 17
f 11 17 12
f 12 17 18
f 12 18 13
f 13 18 19
f 13 19 14
f 14 19 20
f 14 20 15
f 15 20 16
f 21 22 23
f 21 23 24
f 21 24 25
f 21 25 26
f 21 26 27
f 21 27 22
f 22 27 28
f 22 28 23
f 23 28 29
f 23 29 24
f 24 29 30
f 24 30 25
f 25 30 26
f 31 32 33
f 31 33 34
f 31 34 35
f 31 35 36
f 31 36 37
f 31 37 32
f 32 37 38
f 32 38 33
f 33 38 39
f 33 39 34
f 34 39 40
f 34 40 35
f 35 40 36
f 41 42 43
f 41 43 44
f 41 44 45
f 41 45 46
f 41 46 47
f 41 47 42
f 42 47 48
f 42 48 43
f 43 48 49
f 43 49 44
f 44 49 50
f 44 50 45
f 45 50 46
f 51 52 53
f 51 53 54
f 51 54 55
f 55 54 56
f 55 56 57
f 57 56 58
f 57 58 59
f 57 59 60
f 60 59 61
f 60 61 62
f 62 61 52
f 52 61 53
f 53 61 63
f 53 63 64
f 53 64 54
f 54 64 65
f 54 65 56
f 56 65 66
f 56 66 58
f 58 66 67
f 58 67 68
f 58 68 59
f 59 68 63
f 59 63 61
f 65 64 69
f 65 69 66
f 66 69 67
f 67 69 68
f 68 69 63
f 63 69 64
f 70 71 72
f 70 72 73
f 70 73 74
f 74 73 75
f 74 75 76
f 76 75 77
f 76 77 78
f 78 77 79
f 78 79 80
f 80 79 81
f 80 81 82
f 82 81 83
f 82 83 84
f 82 84 85
f 85 84 72
f 85 72 71
f 73 72 86
f 73 86 87
f 73 87 75
f 75 87 88
f 75 88 77
f 77 88 89
f 77 89 79
f 79 89 90
f 79 90 91
f 79 91 81
f 81 91 92
f 81 92 83
f 83 92 93
f 83 93 94
f 83 94 84
f 84 94 86
f 84 86 72
f 87 86 95
f 87 95 96
f 87 96 88
f 88 96 97
f 88 97 89
f 89 97 98
f 89 98 90
f 90 98 99
f 90 99 100
f 90 100 91
f 91 100 101
f 91 101 92
f 92 101 93
f 93 101 102
f 93 102 103
f 93 103 94
f 94 103 95
f 94 95 86
f 98 97 104
f 98 104 105
f 98 105 106
f 98 106 99
f 99 106 107
f 99 107 100
f 100 107 108
f 100 108 101
f 101 108 102
f 102 108 109
f 102 109 110
f 102 110 103
f 103 110 95
f 95 110 96
f 96 110 104
f 96 104 97
f 110 109 108
f 110 108 111
f 110 111 106
f 110 106 105
f 110 105 104
f 111 108 112
f 111 112 106
f 106 112 107
f 107 112 108
f 113 114 115
f 113 115 116
f 113 116 117
f 117 116 118
f 117 118 119
f 119 118 120
f 119 120 121
f 119 121 122
f 122 121 123
f 122 123 124
f 124 123 114
f 114 123 115
f 115 123 125
f 115 125 126
f 115 126 116
f 116 126 127
f 116 127 118
f 118 127 128
f 118 128 120
f 120 128 129
f 120 129 130
f 120 130 121
f 121 130 125
f 121 125 123
f 127 126 131
f 127 131 128
f 128 131 129
f 129 131 130
f 130 131 125
f 125 131 126
f 132 133 134
f 132 134 135
f 132 135 136
f 136 135 137
f 136 137 138
f 138 137 139
f 138 139 140
f 138 140 141
f 141 140 142
f 141 142 143
f 143 142 133
f 133 142 134
f 134 142 144
f 134 144 145
f 134 145 135
f 135 145 146
f 135 146 137
f 137 146 147
f 137 147 139
f 139 147 148
f 139 148 149
f 139 149 140
f 140 149 144
f 140 144 142
f 146 145 150
f 146 150 147
f 147 150 148
f 148 150 149
f 149 150 144
f 144 150 145
f 151 152 153
f 151 153 154
f 151 154 155
f 151 155 156
f 151 156 157
f 151 157 152
f 152 157 158
f 152 158 153
f 153 158 159
f 153 159 154
f 154 159 160
f 154 160 155
f 155 160 156
f 161 162 163
f 161 163 164
f 161 164 165
f 161 165 166
f 161 166 167
f 161 167 162
f 162 167 168
f 162 168 163
f 163 168 169
f 163 169 164
f 164 169 170
f 164 170 165
f 165 170 166
f 171 172 173
f 171 173 174
f 171 174 175
f 171 175 176
f 171 176 177
f 171 177 172
f 172 177 178
f 172 178 173
f 173 178 179
f 173 179 174
f 174 179 180
f 174 180 175
f 175 180 176
