# RS2 Model 1733
# Vertices: 160
# Faces: 263

v -8 -54 44
v 0 -56 45
v -9 -45 48
v -12 -44 40
v -8 -58 38
v 0 -59 41
v 8 -58 38
v 8 -54 44
v 9 -45 48
v 9 -24 42
v -9 -24 42
v -18 -26 32
v -12 -50 36
v -6 12 42
v -3 10 39
v -15 -12 39
v -18 -15 42
v 6 12 42
v 15 33 41
v -15 33 41
v -15 13 33
v -12 13 33
v -18 13 24
v -21 -15 33
v 18 -15 42
v 3 10 39
v 12 13 33
v 15 13 33
v 24 25 32
v 25 25 33
v 16 33 42
v 15 49 33
v -15 49 33
v -17 49 35
v -17 33 42
v -24 25 32
v -24 15 21
v -18 10 18
v -21 -18 27
v -15 -29 26
v 15 -12 39
v 21 -15 33
v 18 13 24
v 24 15 21
v 24 43 11
v 24 48 21
v 25 48 23
v 34 48 30
v 34 31 36
v 40 45 54
v 28 45 54
v 16 49 35
v 15 57 18
v -15 57 18
v -17 57 20
v -35 48 30
v -41 57 48
v -29 57 48
v -29 45 54
v -35 31 36
v -26 25 33
v -24 48 21
v -24 43 11
v -15 43 3
v -18 -12 0
v -18 -12 6
v -24 15 12
v -24 13 6
v -30 28 15
v -30 25 3
v -30 39 12
v -30 43 5
v -30 42 0
v -24 43 5
v -24 42 0
v -24 39 12
v -24 28 15
v -24 25 3
v -18 15 12
v -18 13 6
v -12 -12 6
v -12 -12 0
v -10 -29 11
v -10 -30 5
v -6 -35 12
v -6 -36 6
v 6 -36 6
v 6 -35 12
v 10 -29 11
v 10 -30 5
v 12 -12 6
v 12 -12 0
v 18 15 12
v 18 13 6
v 24 28 15
v 24 25 3
v 24 39 12
v 24 43 5
v 24 42 0
v 30 43 5
v 30 42 0
v 30 39 12
v 30 28 15
v 30 25 3
v 24 15 12
v 24 13 6
v 18 -12 6
v 18 -12 0
v 16 -29 11
v 16 -30 5
v 6 -41 14
v 6 -42 8
v -6 -41 14
v -6 -42 8
v -16 -29 11
v -16 -30 5
v -30 30 21
v -30 36 26
v -30 40 18
v -24 40 18
v 24 30 21
v 24 36 26
v 24 40 18
v 30 40 18
v -24 36 26
v -24 30 21
v 30 36 26
v 30 30 21
v 18 -26 32
v 21 -18 27
v 18 10 18
v 15 43 3
v 15 52 6
v 16 57 20
v 28 57 48
v 40 57 48
v 25 58 71
v -15 52 6
v -26 48 23
v -41 45 54
v -26 58 71
v 12 -50 36
v 12 -44 40
v 15 -29 26
v -2 -54 38
v -2 -57 39
v -2 -59 35
v -2 -56 32
v -8 -53 38
v -8 -54 32
v -8 -56 38
v -8 -57 32
v 1 -56 32
v 1 -59 35
v 1 -57 39
v 1 -54 38
v 7 -54 32
v 7 -53 38
v 7 -57 32
v 7 -56 38

f 1 2 3
f 1 3 4
f 1 4 5
f 1 5 6
f 1 6 2
f 2 6 7
f 2 7 8
f 2 8 9
f 2 9 3
f 3 9 10
f 3 10 11
f 3 11 4
f 4 11 12
f 4 12 13
f 4 13 5
f 14 15 16
f 14 16 17
f 14 17 18
f 14 18 19
f 14 19 20
f 14 20 21
f 14 21 15
f 15 21 22
f 15 22 16
f 16 22 21
f 16 21 17
f 17 21 23
f 17 23 24
f 17 24 12
f 17 12 11
f 17 11 25
f 17 25 18
f 18 25 26
f 18 26 27
f 18 27 28
f 18 28 19
f 19 28 29
f 19 29 30
f 19 30 31
f 19 31 32
f 19 32 33
f 19 33 20
f 20 33 34
f 20 34 35
f 20 35 36
f 20 36 21
f 21 36 37
f 21 37 23
f 23 37 38
f 23 38 39
f 23 39 24
f 24 39 40
f 24 40 12
f 12 40 13
f 25 41 26
f 26 41 27
f 27 41 25
f 27 25 28
f 28 25 42
f 28 42 43
f 28 43 44
f 28 44 29
f 29 44 45
f 29 45 46
f 29 46 47
f 29 47 30
f 30 47 48
f 30 48 49
f 30 49 31
f 31 49 50
f 31 50 51
f 31 51 52
f 31 52 32
f 32 52 53
f 32 53 33
f 33 53 54
f 33 54 55
f 33 55 34
f 34 55 56
f 34 56 57
f 34 57 58
f 34 58 35
f 35 58 59
f 35 59 60
f 35 60 61
f 35 61 36
f 36 61 62
f 36 62 37
f 37 62 63
f 37 63 64
f 37 64 38
f 65 66 67
f 65 67 68
f 68 67 69
f 68 69 70
f 70 69 71
f 70 71 72
f 70 72 73
f 73 72 74
f 73 74 75
f 75 74 76
f 75 76 77
f 75 77 78
f 78 77 79
f 78 79 80
f 80 79 81
f 80 81 82
f 82 81 83
f 82 83 84
f 84 83 85
f 84 85 86
f 86 85 87
f 87 85 88
f 87 88 89
f 87 89 90
f 90 89 91
f 90 91 92
f 92 91 93
f 92 93 94
f 94 93 95
f 94 95 96
f 96 95 97
f 96 97 98
f 96 98 99
f 99 98 100
f 99 100 101
f 101 100 102
f 101 102 103
f 101 103 104
f 104 103 105
f 104 105 106
f 106 105 107
f 106 107 108
f 108 107 109
f 108 109 110
f 110 109 111
f 110 111 112
f 112 111 113
f 112 113 114
f 114 113 115
f 114 115 116
f 116 115 66
f 116 66 65
f 113 85 83
f 113 83 115
f 115 83 66
f 66 83 81
f 66 81 79
f 66 79 67
f 67 79 69
f 69 79 77
f 69 77 117
f 69 117 118
f 69 118 119
f 69 119 71
f 71 119 120
f 71 120 76
f 71 76 72
f 72 76 74
f 111 88 85
f 111 85 113
f 109 89 88
f 109 88 111
f 91 107 105
f 91 105 93
f 93 105 95
f 95 105 103
f 95 103 121
f 95 121 122
f 95 122 123
f 95 123 97
f 97 123 124
f 97 124 102
f 97 102 98
f 98 102 100
f 76 120 125
f 76 125 126
f 76 126 77
f 77 126 117
f 117 126 118
f 118 126 125
f 118 125 119
f 119 125 120
f 102 124 127
f 102 127 128
f 102 128 103
f 103 128 121
f 121 128 122
f 122 128 127
f 122 127 123
f 123 127 124
f 109 107 91
f 109 91 89
f 11 10 25
f 25 10 129
f 25 129 42
f 42 129 130
f 42 130 131
f 42 131 43
f 43 131 44
f 44 131 45
f 45 131 132
f 45 132 133
f 45 133 46
f 46 133 53
f 46 53 134
f 46 134 47
f 47 134 48
f 48 134 52
f 48 52 135
f 48 135 136
f 48 136 49
f 49 136 50
f 50 136 137
f 50 137 51
f 51 137 135
f 51 135 52
f 53 133 138
f 53 138 54
f 54 138 63
f 54 63 62
f 54 62 139
f 54 139 55
f 55 139 56
f 56 139 60
f 56 60 140
f 56 140 57
f 57 140 141
f 57 141 58
f 58 141 59
f 59 141 140
f 59 140 60
f 64 63 138
f 64 138 132
f 132 138 133
f 142 143 8
f 142 8 7
f 144 129 143
f 144 143 142
f 130 129 144
f 129 10 9
f 129 9 143
f 143 9 8
f 60 139 61
f 61 139 62
f 136 135 137
f 52 134 53
f 145 146 147
f 145 147 148
f 145 148 149
f 149 148 150
f 149 150 151
f 151 150 152
f 151 152 146
f 146 152 147
f 153 154 155
f 153 155 156
f 153 156 157
f 157 156 158
f 157 158 159
f 159 158 160
f 159 160 154
f 154 160 155
