# RS2 Model 17336
# Vertices: 126
# Faces: 232

v -37 -52 19
v -64 -64 32
v -64 -64 0
v -22 -55 0
v -7 -34 0
v -24 -32 18
v -42 -49 62
v -64 -64 70
v -39 -52 19
v -24 -55 0
v -48 -47 102
v -64 -64 107
v -29 -32 63
v -36 -31 100
v -51 -45 138
v -64 -64 149
v -50 -47 102
v -44 -49 62
v -31 -32 63
v -26 -32 18
v -9 -34 0
v -38 -12 18
v -32 -7 0
v -64 -6 13
v -64 -6 0
v -58 6 18
v -59 5 0
v -39 12 19
v -24 9 0
v -26 32 18
v -9 30 0
v -38 52 18
v -32 57 0
v -64 64 13
v -64 64 0
v -36 52 18
v -30 57 0
v -24 32 18
v -7 30 0
v -37 12 19
v -22 9 0
v -56 6 18
v -57 5 0
v -62 -6 13
v -62 -6 0
v -36 -12 18
v -30 -7 0
v -57 -43 188
v -64 -64 193
v -42 -31 142
v -49 -31 183
v -62 -31 240
v -62 -42 240
v -64 -64 240
v -59 -43 188
v -53 -45 138
v -44 -31 142
v -38 -31 100
v -46 -16 103
v -41 -14 63
v -64 -6 70
v -63 6 62
v -44 15 62
v -31 32 63
v -41 50 63
v -64 64 70
v -39 50 63
v -29 32 63
v -42 15 62
v -61 6 62
v -62 -6 70
v -39 -14 63
v -62 -6 107
v -44 -16 103
v -62 -6 149
v -50 -18 147
v -62 -6 193
v -56 -20 186
v -62 -6 240
v -62 -24 240
v -64 -24 240
v -64 -31 240
v -64 -42 240
v -51 -31 183
v -58 -20 186
v -52 -18 147
v -64 -6 149
v -64 -6 107
v -62 7 106
v -50 17 102
v -38 33 100
v -46 48 103
v -64 64 107
v -44 48 103
v -36 33 100
v -48 17 102
v -60 7 106
v -64 64 149
v -50 46 147
v -42 33 142
v -51 19 138
v -58 7 147
v -64 64 193
v -56 44 186
v -49 33 183
v -57 21 188
v -61 7 194
v -64 64 240
v -62 40 240
v -62 33 240
v -62 22 240
v -62 7 240
v -64 -6 193
v -63 7 194
v -60 7 147
v -53 19 138
v -44 33 142
v -52 46 147
v -64 -6 240
v -64 7 240
v -64 22 240
v -59 21 188
v -51 33 183
v -58 44 186
v -64 40 240
v -64 33 240

f 1 2 3
f 1 3 4
f 1 4 5
f 1 5 6
f 1 6 7
f 1 7 2
f 2 7 8
f 2 8 9
f 2 9 10
f 2 10 3
f 11 12 8
f 11 8 7
f 11 7 13
f 11 13 14
f 11 14 15
f 11 15 12
f 12 15 16
f 12 16 17
f 12 17 18
f 12 18 8
f 8 18 9
f 9 18 19
f 9 19 20
f 9 20 10
f 10 20 21
f 21 20 22
f 21 22 23
f 23 22 24
f 23 24 25
f 25 24 26
f 25 26 27
f 27 26 28
f 27 28 29
f 29 28 30
f 29 30 31
f 31 30 32
f 31 32 33
f 33 32 34
f 33 34 35
f 35 34 36
f 35 36 37
f 37 36 38
f 37 38 39
f 39 38 40
f 39 40 41
f 41 40 42
f 41 42 43
f 43 42 44
f 43 44 45
f 45 44 46
f 45 46 47
f 47 46 6
f 47 6 5
f 48 49 16
f 48 16 15
f 48 15 50
f 48 50 51
f 48 51 52
f 48 52 53
f 48 53 49
f 49 53 54
f 49 54 55
f 49 55 56
f 49 56 16
f 16 56 17
f 17 56 57
f 17 57 58
f 17 58 18
f 18 58 19
f 19 58 59
f 19 59 60
f 19 60 20
f 20 60 22
f 22 60 61
f 22 61 24
f 24 61 62
f 24 62 26
f 26 62 63
f 26 63 28
f 28 63 64
f 28 64 30
f 30 64 65
f 30 65 32
f 32 65 66
f 32 66 34
f 34 66 67
f 34 67 36
f 36 67 68
f 36 68 38
f 38 68 69
f 38 69 40
f 40 69 70
f 40 70 42
f 42 70 71
f 42 71 44
f 44 71 72
f 44 72 46
f 46 72 13
f 46 13 6
f 6 13 7
f 71 73 74
f 71 74 72
f 72 74 14
f 72 14 13
f 73 75 76
f 73 76 74
f 74 76 50
f 74 50 14
f 14 50 15
f 75 77 78
f 75 78 76
f 76 78 51
f 76 51 50
f 77 79 80
f 77 80 78
f 78 80 51
f 51 80 52
f 52 80 81
f 52 81 82
f 52 82 53
f 53 82 83
f 53 83 54
f 54 83 55
f 55 83 84
f 55 84 56
f 56 84 57
f 57 84 85
f 57 85 86
f 57 86 58
f 58 86 59
f 59 86 87
f 59 87 88
f 59 88 60
f 60 88 61
f 61 88 89
f 61 89 62
f 62 89 90
f 62 90 63
f 63 90 91
f 63 91 64
f 64 91 92
f 64 92 65
f 65 92 93
f 65 93 66
f 66 93 94
f 66 94 67
f 67 94 95
f 67 95 68
f 68 95 96
f 68 96 69
f 69 96 97
f 69 97 70
f 70 97 73
f 70 73 71
f 93 98 99
f 93 99 94
f 94 99 100
f 94 100 95
f 95 100 101
f 95 101 96
f 96 101 102
f 96 102 97
f 97 102 75
f 97 75 73
f 98 103 104
f 98 104 99
f 99 104 105
f 99 105 100
f 100 105 106
f 100 106 101
f 101 106 107
f 101 107 102
f 102 107 77
f 102 77 75
f 103 108 109
f 103 109 104
f 104 109 105
f 105 109 110
f 105 110 106
f 106 110 111
f 106 111 112
f 106 112 107
f 107 112 79
f 107 79 77
f 86 85 113
f 86 113 87
f 87 113 114
f 87 114 115
f 87 115 88
f 88 115 89
f 89 115 116
f 89 116 90
f 90 116 117
f 90 117 91
f 91 117 118
f 91 118 92
f 92 118 98
f 92 98 93
f 85 81 119
f 85 119 113
f 113 119 120
f 113 120 114
f 114 120 121
f 114 121 122
f 114 122 115
f 115 122 116
f 116 122 123
f 116 123 117
f 117 123 124
f 117 124 118
f 118 124 103
f 118 103 98
f 84 83 82
f 84 82 85
f 85 82 81
f 124 125 108
f 124 108 103
f 123 122 121
f 123 121 126
f 123 126 124
f 124 126 125
f 125 126 110
f 125 110 109
f 125 109 108
f 119 81 80
f 119 80 79
f 119 79 112
f 119 112 120
f 120 112 111
f 120 111 121
f 121 111 126
f 126 111 110
