# RS2 Model 1739
# Vertices: 36
# Faces: 47

v -82 -34 112
v -22 -80 104
v -24 -64 80
v -72 -24 80
v -84 10 112
v -208 -48 64
v -208 -176 64
v -112 -176 64
v -48 -176 64
v 16 -176 64
v 56 -74 96
v 44 -58 72
v -64 16 80
v -74 36 96
v -208 80 64
v -22 84 96
v -16 176 64
v -80 176 64
v -144 176 96
v -208 176 64
v -16 62 80
v 40 48 72
v 38 72 112
v 48 176 64
v 56 24 72
v 84 26 96
v 68 54 104
v 144 176 64
v 72 8 72
v 84 -12 104
v 208 48 64
v 208 -64 64
v 208 -176 64
v 144 -176 96
v 48 -176 64
v 208 176 64

f 1 2 3
f 1 3 4
f 1 4 5
f 1 5 6
f 1 6 7
f 1 7 8
f 1 8 9
f 1 9 10
f 1 10 2
f 2 10 11
f 2 11 12
f 2 12 3
f 5 4 13
f 5 13 14
f 5 14 15
f 5 15 6
f 13 16 14
f 14 16 17
f 14 17 18
f 14 18 19
f 14 19 20
f 14 20 15
f 13 21 16
f 16 21 22
f 16 22 23
f 16 23 24
f 16 24 17
f 22 25 26
f 22 26 27
f 22 27 23
f 23 27 28
f 23 28 24
f 25 29 26
f 26 29 30
f 26 30 29
f 12 11 30
f 12 30 29
f 31 26 30
f 31 30 32
f 32 30 11
f 32 11 33
f 33 11 34
f 34 11 35
f 35 11 10
f 27 26 36
f 27 36 28
f 26 31 36
