# RS2 Model 17412
# Vertices: 311
# Faces: 565

v 22 -148 86
v 14 -144 82
v 21 -144 83
v 23 -144 84
v 24 -144 87
v 24 -146 92
v 14 -157 89
v 11 -153 80
v 7 -149 80
v 0 -136 81
v 17 -136 84
v 21 -140 86
v 24 -130 95
v 24 -147 95
v 0 -147 99
v 0 -146 90
v 0 -157 86
v 7 -170 81
v 5 -167 77
v 7 -157 79
v 9 -152 77
v 5 -153 80
v 0 -154 78
v -7 -149 80
v -14 -144 82
v -17 -136 84
v -7 -131 83
v -5 -129 84
v 0 -118 91
v 5 -129 84
v 7 -131 83
v 11 -129 85
v 14 -123 89
v 21 -128 89
v 22 -130 91
v 24 -128 92
v 17 -118 96
v 22 -119 106
v 33 -138 102
v 21 -156 110
v 16 -158 103
v 18 -160 93
v 0 -160 95
v -24 -147 95
v -24 -146 92
v -14 -157 89
v -7 -170 81
v 0 -172 80
v 0 -169 76
v 0 -165 75
v 0 -162 77
v 23 -144 133
v 17 -147 136
v 11 -165 123
v 6 -171 113
v 14 -171 100
v 11 -177 86
v 0 -183 89
v -18 -160 93
v -16 -158 103
v -21 -156 110
v -33 -138 102
v -24 -130 95
v -21 -140 86
v -24 -144 87
v -22 -148 86
v -11 -153 80
v -5 -167 77
v -7 -157 79
v -5 -153 80
v -9 -152 77
v -21 -144 83
v 17 -129 135
v 8 -129 135
v 7 -147 131
v 0 -161 126
v 0 -173 113
v 5 -174 104
v 9 -176 105
v 12 -181 102
v 7 -183 96
v 0 -184 102
v -7 -183 96
v -11 -177 86
v -14 -171 100
v -6 -171 113
v -11 -165 123
v -17 -147 136
v -23 -144 133
v -21 -143 128
v -20 -149 111
v -22 -139 108
v -24 -127 115
v -22 -121 118
v -22 -119 106
v -17 -118 96
v -24 -128 92
v -22 -130 91
v -21 -128 89
v -14 -123 89
v -11 -129 85
v -8 -128 82
v -7 -124 84
v -20 -107 77
v -12 -116 94
v -10 -113 94
v 0 -114 90
v 10 -113 94
v 12 -116 94
v 20 -107 77
v 7 -124 84
v 8 -128 82
v 20 -149 111
v 21 -143 128
v 17 -138 130
v 20 -129 116
v 24 -127 115
v 22 -121 118
v 22 -116 135
v 17 -121 142
v 10 -121 143
v 0 -123 134
v 0 -129 146
v 4 -135 142
v 0 -146 134
v -7 -147 131
v -5 -174 104
v -3 -178 107
v -2 -179 110
v 0 -176 113
v 2 -179 110
v 3 -178 107
v 22 -139 108
v 22 -144 113
v 24 -139 112
v 25 -106 113
v 25 -106 118
v 23 -106 120
v 21 -118 120
v 20 -108 133
v 20 -101 146
v 22 -108 148
v 20 -111 151
v 15 -111 152
v 11 -105 150
v 5 -113 137
v 0 -101 122
v -5 -113 137
v -10 -121 143
v -8 -129 135
v -4 -135 142
v 0 -137 147
v 0 -141 140
v 24 -106 101
v 22 -106 97
v 29 -93 99
v 22 -106 102
v 20 -116 106
v 23 -106 112
v 32 -92 123
v 21 -106 118
v 15 -110 118
v 12 -105 132
v 17 -99 146
v 22 -102 153
v 10 -102 117
v 0 -91 114
v -10 -102 117
v -12 -105 132
v -17 -99 146
v -11 -105 150
v -15 -111 152
v -20 -111 151
v -17 -121 142
v -17 -129 135
v -17 -138 130
v -24 -139 112
v -22 -144 113
v -20 -129 116
v -22 -116 135
v -21 -118 120
v -23 -106 120
v -25 -106 118
v -25 -106 113
v -20 -116 106
v -22 -106 102
v -24 -106 101
v -22 -106 97
v -21 -124 91
v -23 -128 91
v 17 -106 95
v 18 -102 99
v 14 -109 102
v 17 -111 112
v 21 -106 113
v 10 -94 97
v 6 -92 109
v 6 -86 104
v 0 -84 111
v -6 -86 104
v -6 -92 109
v -14 -109 102
v -17 -111 112
v -15 -110 118
v -20 -108 133
v -20 -101 146
v -22 -102 153
v -22 -108 148
v 0 -107 85
v 12 -102 91
v 10 -87 95
v 11 -80 92
v 7 -79 103
v 0 -79 110
v -7 -79 103
v -11 -80 92
v -10 -87 95
v -10 -94 97
v -18 -102 99
v -23 -106 112
v -21 -106 113
v -21 -106 118
v 0 -103 87
v 0 -99 83
v 7 -96 88
v 9 -87 83
v 9 -80 77
v 13 -73 90
v 8 -71 100
v 0 -71 108
v -8 -71 100
v -13 -73 90
v -9 -80 77
v -9 -87 83
v -7 -96 88
v -12 -102 91
v 0 -96 83
v 0 -91 76
v 0 -88 78
v 0 -83 71
v 0 -80 72
v 0 -70 64
v 11 -67 75
v 6 -176 88
v 9 -173 89
v 8 -175 84
v 10 -177 88
v 4 -165 81
v 6 -167 81
v 5 -167 84
v 6 -165 81
v 11 -172 90
v 12 -170 91
v 11 -170 86
v 12 -172 90
v 12 -167 91
v 14 -165 92
v 13 -165 89
v 14 -167 91
v 14 -162 93
v 16 -160 94
v 15 -161 91
v 16 -162 93
v 0 -68 65
v -11 -67 75
v 34 -97 109
v 30 -101 134
v 33 -102 89
v 21 -124 91
v 23 -128 91
v 0 -184 106
v -9 -176 105
v -12 -181 102
v 0 -183 113
v 0 -103 151
v -23 -144 84
v -32 -92 123
v -29 -93 99
v -17 -106 95
v -30 -101 134
v -6 -176 88
v -8 -175 84
v -9 -173 89
v -10 -177 88
v -4 -165 81
v -5 -167 84
v -6 -167 81
v -6 -165 81
v -11 -172 90
v -11 -170 86
v -12 -170 91
v -12 -172 90
v -12 -167 91
v -13 -165 89
v -14 -165 92
v -14 -167 91
v -14 -162 93
v -15 -161 91
v -16 -160 94
v -16 -162 93
v -33 -102 89
v -34 -97 109
v -24 -26 63
v 26 -29 63
v -26 -132 94
v 44 -190 131
v -44 -190 131
v 44 -178 83
v 35 -95 153
v -32 -94 155
v 32 -116 80

f 1 2 3
f 1 3 4
f 1 4 5
f 1 5 6
f 1 6 7
f 1 7 8
f 1 8 2
f 2 8 9
f 2 9 10
f 2 10 11
f 2 11 12
f 2 12 3
f 3 12 4
f 4 12 5
f 5 12 6
f 6 12 11
f 6 11 13
f 6 13 14
f 6 14 15
f 6 15 16
f 6 16 7
f 7 16 17
f 7 17 18
f 7 18 19
f 7 19 8
f 8 19 20
f 8 20 21
f 8 21 9
f 9 21 22
f 9 22 23
f 9 23 10
f 10 23 24
f 10 24 25
f 10 25 26
f 10 26 27
f 10 27 28
f 10 28 29
f 10 29 30
f 10 30 31
f 10 31 11
f 11 31 32
f 11 32 33
f 11 33 34
f 11 34 35
f 11 35 13
f 13 35 36
f 13 36 37
f 13 37 38
f 13 38 39
f 13 39 14
f 14 39 40
f 14 40 41
f 14 41 42
f 14 42 43
f 14 43 15
f 15 43 44
f 15 44 45
f 15 45 16
f 16 45 46
f 16 46 17
f 17 46 47
f 17 47 48
f 17 48 18
f 18 48 19
f 19 48 49
f 19 49 50
f 19 50 51
f 19 51 23
f 19 23 20
f 20 23 22
f 20 22 21
f 40 52 53
f 40 53 54
f 40 54 41
f 41 54 55
f 41 55 56
f 41 56 42
f 42 56 57
f 42 57 58
f 42 58 43
f 43 58 59
f 43 59 44
f 44 59 60
f 44 60 61
f 44 61 62
f 44 62 63
f 44 63 45
f 45 63 26
f 45 26 64
f 45 64 65
f 45 65 66
f 45 66 46
f 46 66 67
f 46 67 68
f 46 68 47
f 47 68 48
f 48 68 49
f 49 68 50
f 50 68 51
f 51 68 23
f 23 68 69
f 23 69 70
f 23 70 24
f 24 70 71
f 24 71 67
f 24 67 25
f 25 67 66
f 25 66 72
f 25 72 64
f 25 64 26
f 53 52 73
f 53 73 74
f 53 74 75
f 53 75 54
f 54 75 76
f 54 76 55
f 55 76 77
f 55 77 78
f 55 78 56
f 56 78 79
f 56 79 80
f 56 80 81
f 56 81 57
f 57 81 58
f 58 81 82
f 58 82 83
f 58 83 84
f 58 84 59
f 59 84 85
f 59 85 60
f 60 85 86
f 60 86 87
f 60 87 61
f 61 87 88
f 61 88 89
f 61 89 90
f 61 90 91
f 61 91 92
f 61 92 62
f 62 92 93
f 62 93 94
f 62 94 95
f 62 95 63
f 63 95 96
f 63 96 97
f 63 97 98
f 63 98 26
f 26 98 99
f 26 99 100
f 26 100 101
f 26 101 27
f 27 101 102
f 27 102 28
f 28 102 103
f 28 103 29
f 29 103 100
f 29 100 104
f 29 104 105
f 29 105 106
f 29 106 107
f 29 107 108
f 29 108 109
f 29 109 110
f 29 110 33
f 29 33 111
f 29 111 30
f 30 111 112
f 30 112 31
f 31 112 32
f 32 112 111
f 32 111 33
f 40 113 114
f 40 114 52
f 52 114 73
f 73 114 115
f 73 115 116
f 73 116 117
f 73 117 118
f 73 118 119
f 73 119 120
f 73 120 74
f 74 120 121
f 74 121 122
f 74 122 123
f 74 123 124
f 74 124 125
f 74 125 75
f 75 125 76
f 76 125 126
f 76 126 87
f 76 87 86
f 76 86 77
f 77 86 127
f 77 127 128
f 77 128 129
f 77 129 130
f 77 130 131
f 77 131 132
f 77 132 78
f 78 132 82
f 78 82 81
f 78 81 79
f 79 81 80
f 40 39 133
f 40 133 113
f 113 133 134
f 113 134 114
f 114 134 135
f 114 135 115
f 115 135 116
f 116 135 133
f 116 133 117
f 117 133 39
f 117 39 118
f 118 39 38
f 118 38 136
f 118 136 137
f 118 137 138
f 118 138 139
f 118 139 119
f 119 139 140
f 119 140 141
f 119 141 142
f 119 142 120
f 120 142 143
f 120 143 121
f 121 143 144
f 121 144 145
f 121 145 146
f 121 146 122
f 122 146 147
f 122 147 148
f 122 148 149
f 122 149 150
f 122 150 123
f 123 150 151
f 123 151 152
f 123 152 124
f 124 152 153
f 124 153 125
f 125 153 151
f 125 151 150
f 125 150 126
f 126 150 88
f 126 88 87
f 154 38 37
f 154 37 155
f 154 155 156
f 154 156 157
f 154 157 38
f 38 157 158
f 38 158 136
f 136 158 159
f 136 159 160
f 136 160 137
f 137 160 138
f 138 160 161
f 138 161 162
f 138 162 139
f 139 162 163
f 139 163 140
f 140 163 141
f 141 163 164
f 141 164 165
f 141 165 142
f 142 165 143
f 143 165 144
f 144 165 145
f 145 165 164
f 145 164 146
f 146 164 163
f 146 163 147
f 147 163 166
f 147 166 167
f 147 167 168
f 147 168 169
f 147 169 148
f 148 169 170
f 148 170 171
f 148 171 149
f 149 171 172
f 149 172 173
f 149 173 174
f 149 174 150
f 150 174 175
f 150 175 88
f 88 175 89
f 89 175 90
f 90 175 176
f 90 176 177
f 90 177 178
f 90 178 91
f 91 178 92
f 92 178 177
f 92 177 179
f 92 179 93
f 93 179 175
f 93 175 94
f 94 175 180
f 94 180 181
f 94 181 182
f 94 182 183
f 94 183 184
f 94 184 95
f 95 184 185
f 95 185 186
f 95 186 187
f 95 187 96
f 96 187 188
f 96 188 105
f 96 105 104
f 96 104 100
f 96 100 189
f 96 189 97
f 97 189 190
f 97 190 98
f 98 190 99
f 99 190 189
f 99 189 100
f 155 37 109
f 155 109 191
f 155 191 156
f 156 191 192
f 156 192 157
f 157 192 158
f 158 192 193
f 158 193 194
f 158 194 159
f 159 194 195
f 159 195 160
f 160 195 161
f 161 195 194
f 161 194 162
f 162 194 166
f 162 166 163
f 193 196 197
f 193 197 166
f 193 166 194
f 166 197 167
f 167 197 198
f 167 198 199
f 167 199 200
f 167 200 201
f 167 201 168
f 168 201 202
f 168 202 203
f 168 203 204
f 168 204 169
f 169 204 181
f 169 181 205
f 169 205 206
f 169 206 170
f 170 206 207
f 170 207 171
f 171 207 172
f 172 207 173
f 173 207 208
f 173 208 174
f 174 208 180
f 174 180 175
f 107 209 210
f 107 210 108
f 108 210 196
f 108 196 193
f 108 193 192
f 108 192 191
f 108 191 109
f 197 196 211
f 197 211 198
f 198 211 212
f 198 212 213
f 198 213 199
f 199 213 214
f 199 214 215
f 199 215 200
f 200 215 216
f 200 216 217
f 200 217 201
f 201 217 218
f 201 218 202
f 202 218 106
f 202 106 219
f 202 219 185
f 202 185 203
f 203 185 220
f 203 220 221
f 203 221 222
f 203 222 204
f 204 222 182
f 204 182 181
f 210 209 223
f 210 223 224
f 210 224 225
f 210 225 196
f 196 225 211
f 211 225 226
f 211 226 212
f 212 226 227
f 212 227 228
f 212 228 213
f 213 228 229
f 213 229 214
f 214 229 230
f 214 230 231
f 214 231 215
f 215 231 232
f 215 232 216
f 216 232 233
f 216 233 234
f 216 234 217
f 217 234 235
f 217 235 218
f 218 235 236
f 218 236 106
f 106 236 107
f 107 236 209
f 209 236 223
f 223 236 224
f 224 236 235
f 224 235 237
f 224 237 225
f 225 237 238
f 225 238 226
f 226 238 239
f 226 239 240
f 226 240 227
f 227 240 241
f 227 241 242
f 227 242 243
f 227 243 228
f 244 245 246
f 244 246 247
f 247 246 245
f 248 249 250
f 248 250 251
f 251 250 249
f 252 253 254
f 252 254 255
f 255 254 253
f 256 257 258
f 256 258 259
f 259 258 257
f 260 261 262
f 260 262 263
f 263 262 261
f 191 109 193
f 191 193 192
f 243 242 264
f 264 242 265
f 265 242 233
f 265 233 232
f 157 159 158
f 159 157 156
f 159 156 266
f 159 266 160
f 138 140 139
f 140 138 160
f 140 160 267
f 140 267 141
f 141 267 165
f 109 37 110
f 109 110 191
f 191 110 268
f 191 268 156
f 37 33 110
f 33 37 269
f 33 269 34
f 34 269 270
f 34 270 35
f 35 270 36
f 36 270 269
f 36 269 37
f 134 133 135
f 82 132 131
f 82 131 271
f 82 271 129
f 82 129 128
f 82 128 127
f 82 127 83
f 83 127 272
f 83 272 273
f 83 273 85
f 83 85 84
f 274 131 130
f 274 130 129
f 274 129 271
f 274 271 131
f 275 145 165
f 145 275 146
f 146 275 122
f 122 275 148
f 148 275 171
f 171 275 207
f 72 66 276
f 72 276 64
f 64 276 65
f 65 276 66
f 272 85 273
f 85 272 127
f 85 127 86
f 176 175 179
f 176 179 177
f 180 205 181
f 181 205 182
f 182 205 277
f 182 277 183
f 183 277 184
f 184 277 220
f 184 220 185
f 185 220 186
f 186 220 278
f 186 278 187
f 187 278 188
f 188 278 279
f 188 279 105
f 105 279 202
f 202 279 219
f 219 279 278
f 219 278 186
f 219 186 185
f 180 206 205
f 205 206 280
f 205 280 277
f 180 208 206
f 206 208 207
f 206 207 280
f 281 282 283
f 283 282 284
f 284 282 281
f 285 286 287
f 287 286 288
f 288 286 285
f 289 290 291
f 291 290 292
f 292 290 289
f 293 294 295
f 295 294 296
f 296 294 293
f 297 298 299
f 299 298 300
f 300 298 297
f 277 221 220
f 221 277 222
f 222 277 182
f 234 239 238
f 234 238 235
f 235 238 237
f 233 240 234
f 234 240 239
f 240 233 241
f 241 233 242
f 106 105 279
f 106 279 219
f 104 105 279
f 104 279 301
f 301 279 278
f 220 302 278
f 302 220 277
f 152 151 153
f 71 70 69
f 71 69 67
f 67 69 68
f 101 103 102
f 103 101 100
f 303 304 305
