# RS2 Model 17419
# Vertices: 322
# Faces: 616

v 8 263 130
v 0 257 132
v 0 248 132
v 8 259 126
v 6 270 123
v 5 269 126
v 0 267 135
v -8 263 130
v -8 259 126
v -16 240 128
v -17 202 137
v 0 204 144
v 17 202 137
v 16 240 128
v 14 279 118
v 0 276 122
v 0 271 126
v -5 269 126
v -6 270 123
v -14 279 118
v -21 236 117
v -19 196 126
v -17 152 152
v -12 179 149
v -9 194 145
v -5 191 151
v 0 193 151
v 5 191 151
v 9 194 145
v 12 179 149
v 17 152 152
v 19 196 126
v 21 236 117
v 19 277 108
v 15 319 96
v 11 320 104
v 0 335 103
v -11 320 104
v 0 14 176
v 24 15 162
v 25 55 167
v 0 54 178
v -25 55 167
v -24 15 162
v -35 19 148
v -44 32 150
v -32 64 126
v -31 25 110
v -21 39 85
v -18 76 108
v 0 79 95
v 0 41 81
v 0 34 75
v 21 39 85
v 18 76 108
v 32 64 126
v 31 25 110
v 35 19 148
v 44 32 150
v 18 99 163
v 0 98 174
v -18 99 163
v -42 72 165
v -68 32 150
v -45 11 116
v -35 36 107
v -45 46 92
v -44 73 108
v -44 93 115
v -14 99 122
v 0 98 108
v 0 83 102
v 14 99 122
v 44 93 115
v 44 73 108
v 45 46 92
v 35 36 107
v 45 11 116
v 68 32 150
v 42 72 165
v 40 99 156
v 21 100 150
v 20 150 140
v 0 164 156
v -20 150 140
v -21 100 150
v -40 99 156
v -59 89 149
v -80 64 126
v -80 36 107
v -69 11 116
v -47 2 88
v -38 16 89
v -47 41 88
v -65 41 88
v -66 46 92
v -68 73 108
v -59 93 122
v -39 104 137
v -14 147 124
v 0 146 110
v 0 104 111
v 14 147 124
v 39 104 137
v 59 93 122
v 68 73 108
v 66 46 92
v 65 41 88
v 47 41 88
v 38 16 89
v 47 2 88
v 69 11 116
v 80 36 107
v 80 64 126
v 59 89 149
v 65 91 135
v 14 191 116
v 13 231 106
v 11 271 98
v 8 314 88
v 6 358 79
v 11 361 84
v 8 362 91
v 5 343 100
v 5 345 102
v 0 341 103
v -5 345 102
v -5 343 100
v -8 362 91
v -11 361 84
v -15 319 96
v -19 277 108
v -13 231 106
v -14 191 116
v 0 190 104
v 0 195 106
v 0 229 96
v 0 236 98
v 0 269 90
v 0 276 92
v 0 313 81
v 0 319 83
v 0 357 73
v 0 363 76
v 0 418 71
v 0 353 98
v 3 350 98
v 3 348 101
v 0 346 106
v -3 348 101
v -3 350 98
v -6 358 79
v -8 314 88
v -11 271 98
v 46 48 0
v 54 62 0
v 70 62 0
v 54 34 0
v 54 25 0
v 46 33 0
v 46 48 16
v 39 58 10
v 39 58 0
v 43 66 0
v 54 62 16
v 70 62 16
v 74 48 0
v 70 34 0
v 70 25 0
v 67 4 0
v 57 4 0
v 54 25 11
v 47 8 7
v 47 8 0
v 41 11 0
v 47 33 11
v 56 38 19
v 54 56 40
v 50 64 38
v 43 66 10
v 32 67 0
v 74 48 16
v 77 33 11
v 78 33 0
v 84 12 0
v 77 7 0
v 70 25 11
v 67 4 7
v 62 -13 0
v 57 4 7
v 66 38 19
v 41 11 7
v 39 -5 0
v 54 74 37
v 67 74 37
v 70 64 38
v 77 7 7
v 84 12 7
v 85 -3 0
v 48 66 45
v 54 75 49
v 56 80 48
v 56 81 41
v 64 81 41
v 66 75 49
v 72 66 45
v 66 56 40
v 66 56 42
v 54 56 42
v 51 51 47
v 43 51 59
v 50 51 73
v 64 80 48
v 60 88 55
v 65 42 79
v 65 51 73
v 47 42 79
v 68 26 78
v 73 35 69
v 72 51 59
v 39 35 69
v 44 26 78
v 47 12 64
v 65 2 88
v 74 16 89
v 75 42 100
v 48 24 57
v 65 51 47
v 65 24 57
v 65 12 64
v 0 152 113
v -46 48 0
v -70 62 0
v -54 62 0
v -39 58 0
v -39 58 10
v -46 48 16
v -46 33 0
v -54 25 0
v -54 34 0
v -70 34 0
v -74 48 0
v -70 62 16
v -54 62 16
v -43 66 0
v -32 67 0
v -43 66 10
v -50 64 38
v -54 56 40
v -56 38 19
v -47 33 11
v -41 11 0
v -47 8 0
v -47 8 7
v -54 25 11
v -57 4 0
v -67 4 0
v -70 25 0
v -78 33 0
v -77 33 11
v -74 48 16
v -67 74 37
v -54 74 37
v -48 66 45
v -54 56 42
v -66 56 42
v -66 56 40
v -66 38 19
v -41 11 7
v -39 -5 0
v -70 64 38
v -70 25 11
v -57 4 7
v -62 -13 0
v -67 4 7
v -77 7 0
v -84 12 0
v -84 12 7
v -77 7 7
v -72 66 45
v -66 75 49
v -50 51 73
v -54 75 49
v -64 80 48
v -64 81 41
v -72 51 59
v -65 51 73
v -47 42 79
v -39 35 69
v -43 51 59
v -56 80 48
v -60 88 55
v -56 81 41
v -65 42 79
v -73 35 69
v -68 26 78
v -44 26 78
v -47 12 64
v -48 24 57
v -51 51 47
v -65 51 47
v -65 24 57
v -65 12 64
v -65 2 88
v -74 16 89
v -75 42 100
v -65 91 135
v -9 185 153
v 0 188 159
v 9 185 153
v -85 -3 0
v 0 0 0
v -1 -2 0
v 1 -2 0
v 0 177 155
v 0 349 101
v -45 296 112
v 36 299 112
v -36 91 79
v -35 98 163
v 35 98 163
v -35 98 116

f 1 2 3
f 1 3 4
f 1 4 5
f 1 5 6
f 1 6 7
f 1 7 2
f 2 7 8
f 2 8 3
f 3 8 9
f 3 9 10
f 3 10 11
f 3 11 12
f 3 12 13
f 3 13 14
f 3 14 4
f 4 14 15
f 4 15 5
f 5 15 16
f 5 16 6
f 6 16 17
f 6 17 7
f 7 17 18
f 7 18 8
f 8 18 19
f 8 19 9
f 9 19 20
f 9 20 10
f 10 20 21
f 10 21 22
f 10 22 11
f 11 22 23
f 11 23 24
f 11 24 25
f 11 25 12
f 12 25 26
f 12 26 27
f 12 27 28
f 12 28 29
f 12 29 13
f 13 29 30
f 13 30 31
f 13 31 32
f 13 32 14
f 14 32 33
f 14 33 15
f 15 33 34
f 15 34 35
f 15 35 36
f 15 36 16
f 16 36 37
f 16 37 38
f 16 38 20
f 16 20 19
f 16 19 18
f 16 18 17
f 39 40 41
f 39 41 42
f 39 42 43
f 39 43 44
f 44 43 45
f 45 43 46
f 45 46 47
f 45 47 48
f 48 47 49
f 49 47 50
f 49 50 51
f 49 51 52
f 49 52 53
f 53 52 54
f 54 52 51
f 54 51 55
f 54 55 56
f 54 56 57
f 57 56 58
f 58 56 59
f 58 59 41
f 58 41 40
f 42 41 60
f 42 60 61
f 42 61 62
f 42 62 43
f 43 62 63
f 43 63 46
f 46 63 64
f 46 64 65
f 46 65 66
f 46 66 47
f 47 66 67
f 47 67 68
f 47 68 50
f 50 68 69
f 50 69 70
f 50 70 71
f 50 71 72
f 50 72 51
f 51 72 55
f 55 72 71
f 55 71 73
f 55 73 74
f 55 74 75
f 55 75 56
f 56 75 76
f 56 76 77
f 56 77 59
f 59 77 78
f 59 78 79
f 59 79 80
f 59 80 41
f 41 80 60
f 60 80 81
f 60 81 82
f 60 82 83
f 60 83 31
f 60 31 61
f 61 31 84
f 61 84 23
f 61 23 62
f 62 23 85
f 62 85 86
f 62 86 87
f 62 87 63
f 63 87 88
f 63 88 64
f 64 88 89
f 64 89 90
f 64 90 91
f 64 91 65
f 65 91 92
f 65 92 93
f 65 93 66
f 66 93 94
f 66 94 67
f 67 94 95
f 67 95 96
f 67 96 68
f 68 96 97
f 68 97 69
f 69 97 98
f 69 98 99
f 69 99 70
f 70 99 86
f 70 86 100
f 70 100 101
f 70 101 102
f 70 102 71
f 71 102 73
f 73 102 101
f 73 101 103
f 73 103 82
f 73 82 104
f 73 104 74
f 74 104 105
f 74 105 106
f 74 106 75
f 75 106 107
f 75 107 76
f 76 107 108
f 76 108 109
f 76 109 77
f 77 109 110
f 77 110 78
f 78 110 111
f 78 111 112
f 78 112 79
f 79 112 113
f 79 113 114
f 79 114 115
f 79 115 80
f 80 115 81
f 81 115 116
f 81 116 104
f 81 104 82
f 32 117 118
f 32 118 33
f 33 118 34
f 34 118 119
f 34 119 120
f 34 120 35
f 35 120 121
f 35 121 122
f 35 122 36
f 36 122 123
f 36 123 124
f 36 124 37
f 37 124 125
f 37 125 126
f 37 126 127
f 37 127 128
f 37 128 38
f 38 128 129
f 38 129 130
f 38 130 131
f 38 131 20
f 20 131 132
f 20 132 21
f 21 132 133
f 21 133 22
f 22 133 134
f 22 134 85
f 22 85 23
f 117 135 136
f 117 136 137
f 117 137 118
f 118 137 138
f 118 138 139
f 118 139 119
f 119 139 140
f 119 140 141
f 119 141 120
f 120 141 142
f 120 142 143
f 120 143 121
f 121 143 144
f 121 144 145
f 121 145 122
f 122 145 123
f 123 145 146
f 123 146 147
f 123 147 124
f 124 147 125
f 125 147 148
f 125 148 149
f 125 149 126
f 126 149 127
f 127 149 150
f 127 150 151
f 127 151 128
f 128 151 129
f 129 151 146
f 129 146 145
f 129 145 130
f 130 145 152
f 130 152 131
f 131 152 153
f 131 153 132
f 132 153 154
f 132 154 133
f 133 154 139
f 133 139 138
f 133 138 137
f 133 137 134
f 134 137 136
f 134 136 135
f 134 135 100
f 134 100 85
f 85 100 86
f 83 82 103
f 83 103 117
f 83 117 32
f 83 32 31
f 155 156 157
f 155 157 158
f 155 158 159
f 155 159 160
f 155 160 161
f 155 161 162
f 155 162 163
f 155 163 156
f 156 163 164
f 156 164 165
f 156 165 157
f 157 165 166
f 157 166 167
f 157 167 168
f 157 168 158
f 158 168 169
f 158 169 159
f 159 169 170
f 159 170 171
f 159 171 172
f 159 172 173
f 159 173 174
f 159 174 160
f 160 174 175
f 160 175 176
f 160 176 161
f 161 176 177
f 161 177 178
f 161 178 179
f 161 179 165
f 161 165 180
f 161 180 162
f 162 180 181
f 162 181 163
f 163 181 164
f 164 181 180
f 164 180 165
f 166 182 167
f 167 182 183
f 167 183 184
f 167 184 168
f 168 184 169
f 169 184 185
f 169 185 186
f 169 186 187
f 169 187 188
f 169 188 170
f 170 188 189
f 170 189 171
f 171 189 190
f 171 190 172
f 172 190 187
f 172 187 191
f 172 191 177
f 172 177 176
f 172 176 192
f 172 192 173
f 173 192 193
f 173 193 174
f 174 193 175
f 175 193 192
f 175 192 176
f 166 165 194
f 166 194 195
f 166 195 182
f 182 195 196
f 182 196 191
f 182 191 187
f 182 187 183
f 183 187 197
f 183 197 198
f 183 198 184
f 184 198 185
f 185 198 199
f 185 199 186
f 186 199 197
f 186 197 187
f 194 165 179
f 194 179 200
f 194 200 201
f 194 201 202
f 194 202 203
f 194 203 195
f 195 203 204
f 195 204 205
f 195 205 206
f 195 206 196
f 196 206 207
f 196 207 191
f 191 207 177
f 177 207 178
f 178 207 208
f 178 208 209
f 178 209 179
f 179 209 200
f 200 209 210
f 200 210 211
f 200 211 201
f 201 211 212
f 201 212 205
f 201 205 213
f 201 213 202
f 202 213 214
f 202 214 203
f 203 214 204
f 204 214 213
f 204 213 205
f 215 216 217
f 215 217 109
f 215 109 108
f 215 108 218
f 215 218 219
f 215 219 216
f 216 219 220
f 216 220 205
f 216 205 212
f 216 212 217
f 217 212 221
f 217 221 222
f 217 222 109
f 109 222 110
f 110 222 111
f 111 222 223
f 111 223 224
f 111 224 112
f 112 224 225
f 112 225 113
f 113 225 226
f 113 226 114
f 114 226 106
f 114 106 105
f 114 105 116
f 114 116 115
f 221 211 227
f 221 227 223
f 221 223 222
f 208 206 220
f 208 220 228
f 208 228 209
f 209 228 210
f 210 228 229
f 210 229 227
f 210 227 211
f 229 228 219
f 229 219 218
f 229 218 230
f 229 230 227
f 227 230 223
f 223 230 224
f 224 230 225
f 225 230 218
f 225 218 108
f 225 108 226
f 226 108 107
f 226 107 106
f 116 105 104
f 207 206 208
f 212 211 221
f 228 220 219
f 220 206 205
f 101 231 103
f 103 231 135
f 103 135 117
f 187 190 188
f 188 190 189
f 198 197 199
f 154 140 139
f 140 154 141
f 141 154 153
f 141 153 142
f 142 153 143
f 143 153 152
f 143 152 144
f 144 152 145
f 232 233 234
f 232 234 235
f 232 235 236
f 232 236 237
f 232 237 238
f 232 238 239
f 232 239 240
f 232 240 233
f 233 240 241
f 233 241 242
f 233 242 243
f 233 243 244
f 233 244 234
f 234 244 245
f 234 245 235
f 235 245 246
f 235 246 236
f 236 246 247
f 236 247 237
f 237 247 244
f 237 244 248
f 237 248 249
f 237 249 250
f 237 250 251
f 237 251 238
f 238 251 252
f 238 252 253
f 238 253 239
f 239 253 254
f 239 254 255
f 239 255 256
f 239 256 257
f 239 257 258
f 239 258 240
f 240 258 241
f 241 258 259
f 241 259 242
f 242 259 260
f 242 260 261
f 242 261 243
f 243 261 262
f 243 262 263
f 243 263 244
f 244 263 248
f 248 263 264
f 248 264 265
f 248 265 249
f 249 265 266
f 249 266 267
f 249 267 250
f 250 267 268
f 250 268 255
f 250 255 251
f 251 255 269
f 251 269 252
f 252 269 270
f 252 270 253
f 253 270 254
f 254 270 269
f 254 269 255
f 268 271 261
f 268 261 272
f 268 272 255
f 255 272 273
f 255 273 256
f 256 273 274
f 256 274 257
f 257 274 275
f 257 275 258
f 258 275 272
f 258 272 276
f 258 276 277
f 258 277 259
f 259 277 278
f 259 278 260
f 260 278 279
f 260 279 272
f 260 272 261
f 267 271 268
f 271 267 280
f 271 280 262
f 271 262 261
f 281 282 283
f 281 283 284
f 281 284 285
f 281 285 262
f 281 262 280
f 281 280 286
f 281 286 287
f 281 287 282
f 282 287 288
f 282 288 289
f 282 289 290
f 282 290 283
f 283 290 264
f 283 264 263
f 283 263 291
f 283 291 284
f 284 291 292
f 284 292 285
f 285 292 293
f 285 293 262
f 262 293 263
f 263 293 291
f 291 293 292
f 294 288 287
f 294 287 295
f 294 295 296
f 294 296 95
f 294 95 94
f 294 94 288
f 288 94 297
f 288 297 289
f 289 297 298
f 289 298 299
f 289 299 290
f 290 299 300
f 290 300 264
f 264 300 265
f 265 300 301
f 265 301 266
f 266 301 286
f 266 286 280
f 266 280 267
f 302 295 301
f 302 301 300
f 302 300 299
f 302 299 303
f 302 303 296
f 302 296 295
f 287 286 295
f 295 286 301
f 94 93 297
f 297 93 92
f 297 92 298
f 298 92 304
f 298 304 303
f 298 303 299
f 303 305 296
f 296 305 95
f 95 305 306
f 95 306 96
f 96 306 97
f 97 306 89
f 97 89 98
f 98 89 307
f 98 307 99
f 99 307 87
f 99 87 86
f 303 304 305
f 305 304 91
f 305 91 90
f 305 90 306
f 306 90 89
f 92 91 304
f 88 307 89
f 307 88 87
f 101 100 231
f 231 100 135
f 23 84 24
f 24 84 308
f 24 308 25
f 25 308 26
f 26 308 309
f 26 309 27
f 27 309 28
f 28 309 310
f 28 310 29
f 29 310 30
f 30 310 84
f 30 84 31
f 272 275 273
f 273 275 274
f 272 279 276
f 276 279 311
f 276 311 277
f 277 311 278
f 278 311 279
f 244 247 245
f 245 247 246
f 312 313 314
f 310 315 84
f 84 315 308
f 308 315 309
f 309 315 310
f 316 148 146
f 316 146 150
f 316 150 149
f 316 149 148
f 146 148 147
f 146 151 150
f 317 318 319
