# RS2 Model 17451
# Vertices: 447
# Faces: 997

v 43 25 232
v 22 31 223
v 27 29 246
v 35 25 248
v 44 26 250
v 44 22 246
v 43 21 229
v 23 29 220
v 0 26 218
v 0 28 248
v 0 18 269
v 29 4 271
v 42 14 256
v 52 15 259
v 52 14 252
v 57 21 234
v 56 27 208
v 40 16 206
v 40 -3 202
v 40 -16 222
v 37 8 210
v 20 22 192
v 0 24 215
v -22 32 223
v -26 29 246
v -29 4 271
v -26 1 275
v -22 -1 277
v -16 3 282
v 0 11 290
v 16 3 282
v 22 -1 277
v 26 1 275
v 30 -1 283
v 31 -1 272
v 39 6 269
v 49 -1 265
v 53 -1 264
v 53 -1 257
v 61 8 247
v 63 12 234
v 65 16 206
v 53 23 184
v 45 15 182
v 45 7 180
v 53 -1 183
v 57 -12 204
v 57 -13 231
v 44 -17 237
v 28 -27 221
v 27 -13 213
v 29 8 199
v 29 8 185
v 5 21 174
v 0 18 194
v -20 22 192
v -23 29 220
v -42 25 233
v -34 25 248
v -41 14 256
v -39 6 269
v -31 -1 272
v -30 -1 278
v -28 0 279
v -28 -4 276
v -28 -5 273
v -19 -12 259
v -7 -11 280
v -14 -9 290
v -15 0 297
v 0 18 305
v 15 0 297
v 14 -9 290
v 7 -11 280
v 19 -12 259
v 28 -5 273
v 28 -4 281
v 28 0 284
v 33 -1 271
v 36 -1 281
v 39 3 282
v 41 -1 283
v 39 -7 269
v 41 -19 259
v 41 -18 252
v 52 -14 251
v 61 -2 245
v 63 4 233
v 67 10 221
v 66 10 204
v 61 15 182
v -40 -16 222
v -43 21 229
v -37 8 210
v -27 -13 214
v -25 -27 222
v -44 -17 237
v -57 -13 231
v -57 -12 204
v -40 -3 202
v -40 16 206
v -56 27 208
v -57 21 234
v -52 14 252
v -44 22 246
v -43 25 250
v -30 8 199
v -24 -10 206
v 0 -23 220
v -25 -31 226
v -41 -18 252
v -52 -14 251
v -63 -4 232
v -65 0 202
v -61 7 180
v -53 -1 183
v -45 7 180
v -45 15 182
v -53 23 184
v -65 16 206
v -63 12 234
v -61 8 247
v -53 -1 257
v -53 -1 264
v -51 15 259
v 65 0 202
v 63 -4 232
v 28 -31 225
v 24 -10 206
v 61 7 180
v 64 4 197
v 67 -1 204
v 66 -1 221
v 67 4 224
v 0 -14 264
v 7 -25 251
v 0 -16 270
v -8 -25 253
v 0 -23 253
v 0 -27 227
v 4 -30 229
v 38 -5 282
v 35 -1 289
v 38 -1 292
v 0 -25 204
v 18 -17 206
v -29 8 185
v -5 21 174
v -24 9 174
v -17 -16 172
v -20 -12 185
v -16 -17 204
v 0 -27 177
v 23 -12 187
v 17 -16 172
v 24 9 174
v 0 -15 276
v -10 -14 280
v -7 -19 283
v -8 -19 295
v -10 -18 298
v -12 -12 299
v -12 -6 295
v -14 -6 301
v -15 -7 305
v -14 5 309
v -14 5 311
v 0 18 307
v 14 5 309
v 15 -7 305
v 14 -6 301
v 12 -6 295
v 12 -12 299
v 10 -18 298
v 8 -19 295
v 7 -19 283
v 10 -14 280
v 0 -20 273
v -6 -21 275
v -4 -22 281
v -3 -22 282
v -3 -21 286
v -5 -23 288
v 0 -28 293
v -3 -20 296
v -6 -20 296
v -6 -19 300
v -10 -19 303
v 0 22 143
v 2 29 143
v 4 20 133
v 0 2 132
v -4 20 133
v -2 29 143
v 0 23 165
v 17 25 159
v 23 27 144
v 33 8 124
v 21 21 113
v 4 17 114
v 3 -12 112
v 0 -13 144
v -3 -12 112
v -4 17 114
v -21 21 113
v -33 8 124
v -23 27 144
v -17 25 159
v -25 8 162
v 0 21 173
v 25 8 162
v 37 -7 117
v 31 8 93
v 8 14 93
v 8 -12 93
v 21 -17 115
v 18 -12 157
v 0 -17 153
v -18 -12 157
v -21 -17 115
v -8 -12 93
v -8 14 93
v -31 8 93
v -37 -7 117
v 0 -18 167
v 24 -4 164
v 26 -1 170
v -24 -4 164
v -31 -7 93
v -31 -7 84
v -8 -14 82
v -10 12 83
v -31 8 84
v -26 -1 170
v 31 -7 93
v 31 8 84
v 10 12 83
v 8 -14 82
v 31 -7 84
v 33 12 67
v 20 18 67
v 6 8 63
v 10 -10 67
v 31 -5 71
v 34 -8 71
v 37 15 67
v 21 22 67
v 2 10 61
v 7 -14 65
v 26 -4 26
v 27 3 27
v 18 12 52
v 14 8 26
v 14 -9 26
v 27 -3 18
v 29 6 16
v 14 8 17
v -12 -42 6
v -35 -31 6
v -37 -31 0
v -20 -44 0
v -7 -41 0
v -8 -27 0
v -8 -14 9
v -16 -21 14
v -28 -14 11
v -31 -11 9
v -30 -3 1
v -29 10 0
v -33 9 5
v -14 17 4
v -14 10 0
v -27 -3 18
v -29 6 16
v -14 8 17
v -8 -14 4
v -12 -10 20
v -14 8 26
v -14 -9 26
v -26 -4 26
v -27 3 27
v -18 12 52
v 0 11 60
v -5 -17 65
v -36 -10 72
v -39 16 67
v -21 24 67
v -20 19 67
v -5 9 62
v -9 -12 67
v -32 -7 72
v -35 13 67
v 12 -42 6
v 37 -31 0
v 35 -31 6
v 16 -21 14
v 8 -14 9
v 8 -27 0
v 7 -41 0
v 20 -44 0
v 30 -3 1
v 31 -11 9
v 28 -14 11
v 12 -10 20
v 14 17 4
v 8 -14 4
v 14 10 0
v 29 10 0
v 33 9 5
v -41 -19 259
v -39 -7 269
v -49 -1 267
v -4 -30 229
v -40 -5 279
v -38 -1 278
v -37 -1 286
v -40 -1 289
v -45 -1 280
v -35 -1 271
v -41 3 279
v 69 4 215
v 82 4 215
v 83 4 219
v 76 4 203
v 67 4 207
v 67 4 213
v 66 4 201
v -61 15 182
v -66 10 204
v -67 10 221
v -63 4 233
v -61 -2 245
v -66 -1 221
v -67 -1 204
v -64 4 197
v -66 4 201
v -76 4 203
v -67 4 207
v -67 4 213
v -69 4 215
v -82 4 215
v -83 4 219
v -67 4 224
v 18 -7 313
v 14 -18 311
v 10 -19 301
v 0 -27 313
v 0 -27 306
v 0 -25 300
v 6 -19 300
v 5 -23 288
v 2 -26 289
v 0 -23 286
v 3 -21 286
v 4 -22 282
v 4 -22 281
v 6 -21 275
v 0 -25 272
v 0 -25 279
v 3 -20 296
v -2 -20 299
v -2 -21 299
v -6 -21 296
v -6 -20 300
v -14 -18 311
v 2 -20 299
v 6 -20 296
v 2 -21 299
v 6 -20 300
v 6 -21 296
v -18 -7 313
v -18 -7 315
v -14 -6 313
v -11 2 311
v 0 13 308
v 14 5 311
v -2 -27 289
v -14 -18 313
v -11 -15 311
v -9 -13 305
v -11 -7 306
v -14 -1 326
v -18 -11 326
v 0 14 326
v 11 2 311
v 18 -7 315
v 14 -18 313
v 9 -22 314
v 8 -21 312
v 6 -20 312
v 6 -23 312
v 0 -27 315
v 0 -22 313
v 0 -19 306
v 0 -17 302
v -8 -12 302
v -9 -7 302
v -9 0 305
v 0 9 303
v 14 -1 326
v 14 -6 313
v 11 -15 311
v 5 -20 314
v 5 -24 314
v 4 -17 307
v 3 -15 303
v 0 -7 302
v 8 -12 302
v 9 -7 302
v 8 -1 302
v 0 7 301
v -8 -1 302
v 9 0 305
v 18 -11 326
v 14 -22 326
v 6 -25 326
v 0 -27 326
v -14 -22 326
v -10 -13 338
v -14 -6 338
v 0 -20 338
v 4 -19 338
v 10 -13 338
v 14 -6 338
v 10 2 338
v 0 14 338
v -10 2 338
v -4 -6 347
v -7 -11 347
v -4 -16 347
v 3 3 347
v -5 5 359
v -9 -1 359
v -10 -3 359
v 10 -6 347
v -1 -1 359
v 13 -11 347
v 0 -3 359
v 10 -16 347
v -1 -5 359
v 5 -20 347
v -4 -8 359
v 3 -21 347
v -5 -8 359
v -9 -5 359
v 11 -7 306
v 9 -13 305

f 1 2 3
f 1 3 4
f 1 4 5
f 1 5 6
f 1 6 7
f 1 7 2
f 2 7 8
f 2 8 9
f 2 9 10
f 2 10 3
f 3 10 11
f 3 11 12
f 3 12 13
f 3 13 4
f 4 13 5
f 4 5 13
f 13 5 14
f 13 14 5
f 5 14 15
f 5 15 6
f 6 15 7
f 7 15 16
f 7 16 17
f 7 17 18
f 7 18 19
f 7 19 20
f 7 20 21
f 7 21 8
f 8 21 22
f 8 22 23
f 8 23 9
f 9 23 24
f 9 24 10
f 10 24 25
f 10 25 11
f 11 25 26
f 11 26 27
f 11 27 28
f 11 28 29
f 11 29 30
f 11 30 31
f 11 31 32
f 11 32 33
f 11 33 12
f 12 33 34
f 12 34 35
f 12 35 36
f 12 36 13
f 13 36 14
f 14 36 37
f 14 37 38
f 14 38 39
f 14 39 15
f 15 39 40
f 15 40 16
f 16 40 41
f 16 41 17
f 17 41 42
f 17 42 43
f 17 43 44
f 17 44 18
f 18 44 45
f 18 45 19
f 19 45 46
f 19 46 47
f 19 47 20
f 20 47 48
f 20 48 49
f 20 49 50
f 20 50 51
f 20 51 21
f 21 51 52
f 21 52 22
f 22 52 53
f 22 53 54
f 22 54 55
f 22 55 23
f 23 55 56
f 23 56 57
f 23 57 24
f 24 57 58
f 24 58 25
f 25 58 59
f 25 59 60
f 25 60 26
f 26 60 61
f 26 61 62
f 26 62 63
f 26 63 64
f 26 64 27
f 27 64 65
f 27 65 66
f 27 66 28
f 28 66 67
f 28 67 29
f 29 67 68
f 29 68 69
f 29 69 70
f 29 70 30
f 30 70 71
f 30 71 72
f 30 72 31
f 31 72 73
f 31 73 74
f 31 74 75
f 31 75 32
f 32 75 76
f 32 76 33
f 33 76 77
f 33 77 78
f 33 78 34
f 34 78 77
f 34 77 35
f 35 77 76
f 35 76 79
f 35 79 36
f 36 79 80
f 36 80 81
f 36 81 37
f 37 81 82
f 37 82 83
f 37 83 84
f 37 84 38
f 38 84 85
f 38 85 39
f 39 85 86
f 39 86 87
f 39 87 40
f 40 87 41
f 41 87 88
f 41 88 89
f 41 89 42
f 42 89 90
f 42 90 91
f 42 91 43
f 92 93 94
f 92 94 95
f 92 95 96
f 92 96 97
f 92 97 98
f 92 98 99
f 92 99 100
f 92 100 93
f 93 100 101
f 93 101 102
f 93 102 103
f 93 103 104
f 93 104 105
f 93 105 106
f 93 106 58
f 93 58 57
f 93 57 94
f 94 57 56
f 94 56 107
f 94 107 95
f 95 107 108
f 95 108 109
f 95 109 96
f 96 109 110
f 96 110 111
f 96 111 97
f 97 111 98
f 98 111 112
f 98 112 113
f 98 113 114
f 98 114 99
f 99 114 115
f 99 115 116
f 99 116 100
f 100 116 117
f 100 117 101
f 101 117 118
f 101 118 102
f 102 118 119
f 102 119 120
f 102 120 121
f 102 121 103
f 103 121 122
f 103 122 104
f 104 122 123
f 104 123 124
f 104 124 125
f 104 125 106
f 104 106 105
f 48 126 127
f 48 127 86
f 48 86 85
f 48 85 49
f 49 85 50
f 50 85 84
f 50 84 128
f 50 128 109
f 50 109 51
f 51 109 129
f 51 129 52
f 51 52 129
f 51 129 109
f 48 47 126
f 126 47 130
f 126 130 131
f 126 131 132
f 126 132 127
f 127 132 133
f 127 133 134
f 127 134 88
f 127 88 87
f 127 87 86
f 47 46 130
f 135 136 75
f 135 75 74
f 135 74 137
f 135 137 68
f 135 68 67
f 135 67 138
f 135 138 139
f 135 139 136
f 136 139 140
f 136 140 141
f 136 141 128
f 136 128 84
f 136 84 75
f 75 84 83
f 75 83 76
f 76 83 79
f 79 83 142
f 79 142 80
f 80 142 143
f 80 143 81
f 81 143 144
f 81 144 82
f 82 144 142
f 82 142 83
f 109 145 146
f 109 146 129
f 129 146 53
f 129 53 52
f 147 107 56
f 147 56 148
f 147 148 149
f 147 149 150
f 147 150 151
f 147 151 152
f 147 152 108
f 147 108 107
f 109 108 152
f 109 152 145
f 145 152 151
f 145 151 153
f 145 153 154
f 145 154 146
f 146 154 53
f 53 154 155
f 53 155 156
f 53 156 54
f 53 54 156
f 53 156 155
f 137 74 157
f 137 157 68
f 68 157 158
f 68 158 69
f 69 158 159
f 69 159 160
f 69 160 161
f 69 161 162
f 69 162 163
f 69 163 70
f 70 163 164
f 70 164 165
f 70 165 166
f 70 166 71
f 71 166 167
f 71 167 168
f 71 168 169
f 71 169 72
f 72 169 170
f 72 170 171
f 72 171 172
f 72 172 73
f 73 172 173
f 73 173 174
f 73 174 175
f 73 175 176
f 73 176 177
f 73 177 74
f 74 177 157
f 157 177 178
f 157 178 158
f 158 178 179
f 158 179 159
f 159 179 180
f 159 180 181
f 159 181 182
f 159 182 183
f 159 183 160
f 160 183 184
f 160 184 185
f 160 185 186
f 160 186 161
f 161 186 187
f 161 187 188
f 161 188 162
f 162 188 164
f 162 164 163
f 189 190 191
f 189 191 192
f 189 192 193
f 189 193 194
f 189 194 195
f 189 195 190
f 190 195 196
f 190 196 197
f 190 197 191
f 191 197 198
f 191 198 199
f 191 199 200
f 191 200 201
f 191 201 192
f 192 201 202
f 192 202 203
f 192 203 193
f 193 203 204
f 193 204 205
f 193 205 206
f 193 206 207
f 193 207 194
f 194 207 208
f 194 208 195
f 195 208 209
f 195 209 148
f 195 148 210
f 195 210 54
f 195 54 211
f 195 211 196
f 196 211 197
f 197 211 198
f 198 211 212
f 198 212 213
f 198 213 199
f 199 213 214
f 199 214 200
f 200 214 215
f 200 215 201
f 201 215 216
f 201 216 202
f 202 216 217
f 202 217 218
f 202 218 219
f 202 219 220
f 202 220 203
f 203 220 221
f 203 221 204
f 204 221 222
f 204 222 205
f 205 222 223
f 205 223 206
f 206 223 224
f 206 224 209
f 206 209 207
f 207 209 208
f 153 155 154
f 155 153 225
f 155 225 226
f 155 226 227
f 155 227 156
f 156 227 211
f 156 211 54
f 226 225 217
f 226 217 212
f 226 212 211
f 226 211 227
f 217 225 218
f 218 225 219
f 219 225 228
f 219 228 224
f 219 224 220
f 220 224 229
f 220 229 221
f 221 229 230
f 221 230 231
f 221 231 222
f 222 231 232
f 222 232 223
f 223 232 233
f 223 233 229
f 223 229 224
f 55 54 210
f 55 210 148
f 55 148 56
f 153 151 150
f 153 150 225
f 225 150 228
f 228 150 234
f 228 234 209
f 228 209 224
f 148 209 149
f 149 209 234
f 149 234 150
f 215 235 216
f 216 235 212
f 216 212 217
f 212 235 213
f 213 235 236
f 213 236 237
f 213 237 214
f 214 237 238
f 214 238 215
f 215 238 239
f 215 239 235
f 235 239 236
f 236 239 240
f 236 240 241
f 236 241 237
f 237 241 242
f 237 242 238
f 238 242 243
f 238 243 239
f 239 243 244
f 239 244 240
f 240 244 245
f 240 245 246
f 240 246 241
f 241 246 247
f 241 247 242
f 242 247 248
f 242 248 243
f 243 248 249
f 243 249 244
f 244 249 245
f 245 249 250
f 245 250 246
f 246 250 251
f 246 251 252
f 246 252 247
f 247 252 248
f 248 252 253
f 248 253 254
f 248 254 249
f 249 254 250
f 250 254 255
f 250 255 256
f 250 256 251
f 251 256 257
f 251 257 253
f 251 253 252
f 258 259 260
f 258 260 261
f 258 261 262
f 258 262 263
f 258 263 264
f 258 264 265
f 258 265 259
f 259 265 266
f 259 266 267
f 259 267 268
f 259 268 260
f 260 268 263
f 260 263 262
f 260 262 261
f 269 270 271
f 269 271 272
f 269 272 268
f 269 268 270
f 270 268 267
f 270 267 273
f 270 273 274
f 270 274 271
f 271 274 275
f 271 275 264
f 271 264 276
f 271 276 272
f 272 276 268
f 268 276 263
f 263 276 264
f 277 273 266
f 277 266 265
f 277 265 264
f 277 264 275
f 277 275 278
f 277 278 279
f 277 279 273
f 273 279 280
f 273 280 274
f 274 280 281
f 274 281 275
f 275 281 278
f 278 281 282
f 278 282 283
f 278 283 279
f 279 283 284
f 279 284 280
f 280 284 285
f 280 285 286
f 280 286 281
f 281 286 282
f 282 286 287
f 282 287 283
f 283 287 288
f 283 288 289
f 283 289 284
f 284 289 290
f 284 290 285
f 285 290 291
f 285 291 286
f 286 291 292
f 286 292 287
f 287 292 288
f 288 292 233
f 288 233 232
f 288 232 289
f 289 232 231
f 289 231 290
f 290 231 291
f 291 231 230
f 291 230 233
f 291 233 292
f 229 233 230
f 273 267 266
f 293 294 295
f 293 295 296
f 293 296 297
f 293 297 298
f 293 298 299
f 293 299 300
f 293 300 294
f 294 300 299
f 294 299 298
f 294 298 301
f 294 301 295
f 295 301 302
f 295 302 303
f 295 303 296
f 296 303 304
f 296 304 297
f 297 304 257
f 297 257 305
f 297 305 306
f 297 306 298
f 298 306 301
f 301 306 307
f 301 307 308
f 301 308 309
f 301 309 302
f 302 309 255
f 302 255 303
f 303 255 304
f 304 255 254
f 304 254 253
f 304 253 257
f 308 305 309
f 309 305 256
f 309 256 255
f 308 307 305
f 305 307 306
f 256 305 257
f 108 107 95
f 108 95 109
f 149 148 147
f 149 147 150
f 310 124 123
f 310 123 111
f 310 111 110
f 310 110 138
f 310 138 67
f 310 67 311
f 310 311 312
f 310 312 124
f 124 312 125
f 125 312 60
f 125 60 106
f 125 106 60
f 60 106 59
f 60 59 106
f 106 59 58
f 106 58 59
f 140 109 141
f 141 109 128
f 140 313 109
f 109 313 110
f 110 313 138
f 138 313 140
f 138 140 139
f 1 5 4
f 142 144 143
f 314 315 316
f 314 316 317
f 314 317 318
f 314 318 311
f 314 311 319
f 314 319 315
f 315 319 61
f 315 61 320
f 315 320 316
f 316 320 317
f 317 320 318
f 318 320 312
f 318 312 311
f 65 64 63
f 65 63 62
f 65 62 66
f 66 62 311
f 66 311 67
f 312 320 61
f 312 61 60
f 311 62 319
f 319 62 61
f 133 321 322
f 133 322 134
f 134 322 323
f 134 323 89
f 134 89 88
f 132 324 325
f 132 325 326
f 132 326 133
f 133 326 321
f 321 326 89
f 321 89 322
f 322 89 323
f 132 327 324
f 324 327 90
f 324 90 325
f 325 90 326
f 326 90 89
f 132 131 327
f 327 131 91
f 327 91 90
f 130 91 131
f 120 119 328
f 120 328 329
f 120 329 330
f 120 330 121
f 121 330 331
f 121 331 332
f 121 332 122
f 122 332 123
f 123 332 112
f 123 112 111
f 112 332 113
f 113 332 331
f 113 331 333
f 113 333 114
f 114 333 334
f 114 334 335
f 114 335 115
f 115 335 328
f 328 335 336
f 328 336 329
f 329 336 337
f 329 337 338
f 329 338 339
f 329 339 330
f 330 339 340
f 330 340 341
f 330 341 342
f 330 342 343
f 330 343 331
f 331 343 333
f 333 343 341
f 333 341 340
f 333 340 339
f 333 339 334
f 334 339 338
f 334 338 337
f 334 337 336
f 334 336 335
f 123 125 104
f 341 343 342
f 170 344 345
f 170 345 346
f 170 346 171
f 171 346 173
f 171 173 172
f 346 347 348
f 346 348 349
f 346 349 350
f 346 350 174
f 346 174 173
f 351 176 175
f 351 175 184
f 351 184 352
f 351 352 353
f 351 353 354
f 351 354 176
f 176 354 355
f 176 355 356
f 176 356 357
f 176 357 177
f 177 357 178
f 178 357 358
f 178 358 179
f 179 358 359
f 179 359 180
f 180 359 181
f 181 359 355
f 181 355 353
f 181 353 182
f 181 182 353
f 181 353 355
f 355 353 354
f 355 354 353
f 175 360 184
f 184 360 349
f 184 349 185
f 185 349 361
f 185 361 186
f 186 361 187
f 186 187 361
f 186 361 362
f 186 362 363
f 186 363 161
f 186 161 187
f 187 161 364
f 187 364 361
f 187 361 349
f 187 349 188
f 188 349 348
f 188 348 347
f 188 347 365
f 188 365 165
f 188 165 164
f 349 366 350
f 350 366 367
f 350 367 174
f 350 174 367
f 350 367 366
f 350 366 368
f 350 368 369
f 350 369 174
f 350 174 369
f 350 369 366
f 366 369 368
f 366 368 367
f 366 367 370
f 366 370 368
f 368 370 367
f 367 370 174
f 367 174 370
f 174 367 175
f 175 367 360
f 360 367 366
f 360 366 349
f 165 371 166
f 166 371 372
f 166 372 167
f 167 372 373
f 167 373 374
f 167 374 168
f 168 374 375
f 168 375 376
f 168 376 169
f 169 376 344
f 169 344 170
f 352 184 377
f 352 377 353
f 353 377 183
f 353 183 182
f 357 359 358
f 359 357 356
f 359 356 355
f 365 371 165
f 371 365 378
f 371 378 372
f 372 378 379
f 372 379 373
f 373 379 380
f 373 380 381
f 373 381 374
f 373 374 382
f 373 382 383
f 373 383 374
f 374 383 382
f 374 382 375
f 374 375 384
f 374 384 382
f 382 384 375
f 375 384 385
f 375 385 376
f 376 385 386
f 376 386 344
f 344 386 345
f 345 386 387
f 345 387 388
f 345 388 389
f 345 389 346
f 346 389 390
f 346 390 391
f 346 391 347
f 347 391 392
f 347 392 365
f 365 392 378
f 378 392 393
f 378 393 379
f 379 393 394
f 379 394 380
f 380 394 395
f 380 395 396
f 380 396 381
f 381 396 397
f 381 397 398
f 381 398 374
f 374 398 375
f 375 398 399
f 375 399 385
f 375 385 400
f 375 400 384
f 384 400 385
f 385 400 401
f 385 401 386
f 386 401 387
f 387 401 402
f 387 402 403
f 387 403 388
f 388 403 389
f 389 403 390
f 390 403 404
f 390 404 391
f 391 404 392
f 392 404 403
f 392 403 393
f 393 403 405
f 393 405 394
f 394 405 406
f 394 406 395
f 395 406 407
f 395 407 396
f 395 396 407
f 395 407 406
f 406 407 408
f 406 408 407
f 407 408 409
f 407 409 410
f 407 410 411
f 407 411 412
f 407 412 397
f 407 397 396
f 407 396 397
f 407 397 412
f 407 412 411
f 407 411 410
f 407 410 409
f 407 409 408
f 183 377 184
f 354 176 355
f 159 182 181
f 385 399 413
f 385 413 401
f 385 401 414
f 385 414 400
f 400 414 401
f 401 414 402
f 401 402 415
f 401 415 414
f 414 415 402
f 402 415 403
f 402 403 416
f 402 416 415
f 415 416 403
f 403 416 393
f 403 393 417
f 403 417 416
f 416 417 393
f 393 417 379
f 393 379 418
f 393 418 417
f 417 418 379
f 379 418 373
f 379 373 383
f 379 383 418
f 418 383 373
f 383 418 419
f 383 419 420
f 383 420 418
f 418 420 419
f 418 419 417
f 418 417 421
f 418 421 419
f 419 421 417
f 417 421 416
f 417 416 422
f 417 422 421
f 421 422 416
f 416 422 415
f 416 415 423
f 416 423 422
f 422 423 415
f 415 423 414
f 415 414 424
f 415 424 423
f 423 424 414
f 414 424 400
f 414 400 425
f 414 425 424
f 424 425 400
f 400 425 384
f 400 384 426
f 400 426 425
f 425 426 384
f 384 426 382
f 384 382 427
f 384 427 426
f 426 427 382
f 382 427 383
f 382 383 420
f 382 420 427
f 427 420 383
f 420 427 428
f 420 428 429
f 420 429 419
f 420 419 430
f 420 430 429
f 420 429 427
f 427 429 428
f 427 428 426
f 427 426 431
f 427 431 428
f 428 431 432
f 428 432 433
f 428 433 429
f 428 429 434
f 428 434 433
f 428 433 431
f 428 431 426
f 426 431 425
f 426 425 435
f 426 435 431
f 431 435 436
f 431 436 432
f 431 432 435
f 431 435 425
f 425 435 424
f 425 424 437
f 425 437 435
f 435 437 438
f 435 438 436
f 435 436 437
f 435 437 424
f 424 437 423
f 424 423 439
f 424 439 437
f 437 439 440
f 437 440 438
f 437 438 439
f 437 439 423
f 423 439 422
f 423 422 441
f 423 441 439
f 439 441 442
f 439 442 440
f 439 440 441
f 439 441 422
f 422 441 421
f 422 421 443
f 422 443 441
f 441 443 444
f 441 444 442
f 441 442 443
f 441 443 421
f 421 443 419
f 421 419 430
f 421 430 443
f 443 430 445
f 443 445 444
f 443 444 430
f 443 430 419
f 402 401 446
f 402 446 447
f 402 447 403
f 403 447 405
f 405 447 408
f 405 408 406
f 401 413 446
f 446 413 410
f 446 410 409
f 446 409 447
f 447 409 408
f 413 399 411
f 413 411 410
f 398 397 412
f 398 412 399
f 399 412 411
f 419 429 430
f 430 429 434
f 430 434 445
f 430 445 429
f 429 445 434
f 429 433 434
f 432 436 435
f 438 440 439
f 444 445 430
f 433 432 431
f 436 438 437
f 442 444 443
f 440 442 441
f 361 364 362
f 363 362 361
f 363 361 186
f 363 186 161
f 364 161 187
