# RS2 Model 17450
# Vertices: 364
# Faces: 830

v -40 -16 222
v -57 -13 231
v -57 -12 204
v -40 -3 202
v -43 21 229
v -37 8 210
v -27 -13 214
v -25 -27 222
v -44 -17 237
v -41 -18 252
v -52 -14 251
v -63 -4 232
v -67 0 202
v -61 7 180
v -53 -1 183
v -45 7 180
v -40 16 206
v -56 27 208
v -57 21 234
v -52 14 252
v -44 22 246
v -35 25 246
v -27 29 246
v -23 29 220
v -20 22 192
v -30 8 199
v -24 -10 206
v 0 -22 219
v -4 -27 226
v -8 -22 250
v -24 -18 256
v -63 12 234
v -67 16 206
v -61 -2 245
v -61 8 247
v -53 -1 257
v -41 7 263
v -42 14 254
v 0 18 269
v 0 28 248
v 0 24 215
v 0 18 194
v -5 21 174
v -29 8 185
v -16 -17 204
v 0 -25 204
v 18 -17 206
v 24 -10 206
v 27 -13 213
v 28 -27 221
v 4 -27 226
v 0 -24 224
v 0 -20 250
v 0 -14 264
v -19 -6 259
v -61 15 182
v -45 15 182
v -53 23 184
v 40 -16 222
v 57 -12 204
v 57 -13 231
v 44 -17 237
v 37 8 210
v 43 21 229
v 40 -3 202
v 53 -1 183
v 61 7 180
v 67 0 202
v 63 -4 232
v 52 -14 251
v 41 -18 252
v 24 -18 254
v 7 -22 248
v 19 -6 259
v 7 -11 280
v 0 -16 270
v -7 -11 280
v -16 3 282
v -27 4 275
v 56 27 208
v 57 21 234
v 63 12 234
v 67 16 206
v 53 23 184
v 45 15 182
v 40 16 206
v 45 7 180
v 61 -2 245
v 53 -1 257
v 61 15 182
v 52 14 252
v 44 22 246
v 42 14 254
v 41 7 263
v 61 8 247
v 35 25 246
v 29 8 199
v 20 22 192
v 23 29 220
v 27 29 246
v 27 4 275
v 29 8 185
v 23 -12 187
v 17 -16 172
v 24 9 174
v 5 21 174
v 0 11 290
v 16 3 282
v 14 -9 290
v 10 -14 280
v 0 -15 276
v -10 -14 280
v -14 -9 290
v -15 0 297
v 0 18 305
v 15 0 297
v 12 -6 295
v 12 -12 299
v 10 -18 298
v 8 -19 295
v 7 -19 283
v 6 -21 275
v 0 -20 273
v -6 -21 275
v -7 -19 283
v -8 -19 295
v -10 -18 298
v -12 -12 299
v -12 -6 295
v -14 -6 301
v -15 -7 305
v -14 5 309
v -14 5 311
v 0 18 307
v 14 5 309
v 15 -7 305
v 14 -6 301
v 10 -19 301
v 6 -19 300
v 6 -20 296
v 3 -20 296
v 0 -28 293
v 5 -23 288
v 3 -21 286
v 4 -22 282
v 4 -22 281
v 0 -25 279
v 0 -25 272
v -4 -22 281
v -3 -22 282
v -3 -21 286
v -5 -23 288
v -3 -20 296
v -6 -20 296
v -6 -19 300
v -10 -19 303
v 18 -7 313
v 14 -18 311
v 0 -27 313
v 0 -27 306
v 0 -25 300
v 2 -20 299
v 2 -21 299
v 6 -20 300
v 6 -21 296
v -2 -20 299
v -2 -21 299
v -6 -21 296
v -6 -20 300
v -14 -18 311
v -18 -7 313
v -18 -7 315
v -14 -6 313
v -11 2 311
v 0 13 308
v 14 5 311
v 0 -23 286
v 2 -26 289
v -2 -27 289
v 0 22 143
v 2 29 143
v 4 20 133
v 0 2 132
v -4 20 133
v -2 29 143
v 0 23 165
v 17 25 159
v 23 27 144
v 33 8 124
v 21 21 113
v 4 17 114
v 3 -12 112
v 0 -13 144
v -3 -12 112
v -4 17 114
v -21 21 113
v -33 8 124
v -23 27 144
v -17 25 159
v -25 8 162
v 0 21 173
v 25 8 162
v 37 -7 117
v 31 8 93
v 8 14 93
v 8 -12 93
v 21 -17 115
v 18 -12 157
v 0 -17 153
v -18 -12 157
v -21 -17 115
v -8 -12 93
v -8 14 93
v -31 8 93
v -37 -7 117
v 0 -27 177
v 0 -18 167
v 24 -4 164
v 26 -1 170
v -24 -4 164
v -31 -7 93
v -31 -7 84
v -8 -14 82
v -10 12 83
v -31 8 84
v -20 -12 185
v -17 -16 172
v -26 -1 170
v -24 9 174
v -35 14 67
v -33 -7 73
v -8 -12 67
v -4 10 61
v -21 20 67
v 31 -7 93
v 31 8 84
v 10 12 83
v 8 -14 82
v 31 -7 84
v 35 14 67
v 21 20 67
v 4 10 61
v 8 -12 67
v 33 -7 73
v 26 -4 26
v 27 3 27
v 18 12 52
v 14 8 26
v 14 -9 26
v -14 -18 313
v -11 -15 311
v -9 -13 305
v -11 -7 306
v -14 -1 326
v -18 -11 326
v 0 14 326
v 11 2 311
v 18 -7 315
v 14 -18 313
v 9 -22 314
v 8 -21 312
v 6 -20 312
v 6 -23 312
v 0 -27 315
v 0 -22 313
v 0 -19 306
v 0 -17 302
v -8 -12 302
v -9 -7 302
v -9 0 305
v 0 9 303
v 14 -1 326
v 14 -6 313
v 11 -15 311
v 5 -20 314
v 5 -24 314
v 4 -17 307
v 3 -15 303
v 0 -7 302
v 8 -12 302
v 9 -7 302
v 8 -1 302
v 0 7 301
v -8 -1 302
v -12 -42 6
v -35 -31 6
v -37 -31 0
v -20 -44 0
v -7 -41 0
v -8 -27 0
v -8 -14 9
v -16 -21 14
v -28 -14 11
v -31 -11 9
v -30 -3 1
v -29 10 0
v -33 9 5
v -14 17 4
v -14 10 0
v -27 -3 18
v -29 6 16
v -14 8 17
v -8 -14 4
v -12 -10 20
v -14 8 26
v -14 -9 26
v -26 -4 26
v -27 3 27
v -18 12 52
v 12 -42 6
v 37 -31 0
v 35 -31 6
v 16 -21 14
v 8 -14 9
v 8 -27 0
v 7 -41 0
v 20 -44 0
v 30 -3 1
v 31 -11 9
v 28 -14 11
v 12 -10 20
v 14 8 17
v 14 17 4
v 8 -14 4
v 14 10 0
v 29 10 0
v 33 9 5
v 27 -3 18
v 29 6 16
v 9 0 305
v 18 -11 326
v 14 -22 326
v 6 -25 326
v 0 -27 326
v -14 -22 326
v -10 -13 338
v -14 -6 338
v 0 -20 338
v 4 -19 338
v 10 -13 338
v 14 -6 338
v 10 2 338
v 0 14 338
v -10 2 338
v -4 -6 347
v -7 -11 347
v -4 -16 347
v 3 3 347
v -5 5 359
v -9 -1 359
v -10 -3 359
v 10 -6 347
v -1 -1 359
v 13 -11 347
v 0 -3 359
v 10 -16 347
v -1 -5 359
v 5 -20 347
v -4 -8 359
v 3 -21 347
v -5 -8 359
v -9 -5 359
v 11 -7 306
v 9 -13 305

f 1 2 3
f 1 3 4
f 1 4 5
f 1 5 6
f 1 6 7
f 1 7 8
f 1 8 9
f 1 9 2
f 2 9 10
f 2 10 11
f 2 11 12
f 2 12 13
f 2 13 3
f 3 13 14
f 3 14 15
f 3 15 4
f 4 15 16
f 4 16 17
f 4 17 5
f 5 17 18
f 5 18 19
f 5 19 20
f 5 20 21
f 5 21 22
f 5 22 23
f 5 23 24
f 5 24 6
f 6 24 25
f 6 25 26
f 6 26 7
f 7 26 27
f 7 27 28
f 7 28 8
f 8 28 29
f 8 29 30
f 8 30 31
f 8 31 10
f 8 10 9
f 32 19 18
f 32 18 33
f 32 33 12
f 32 12 34
f 32 34 35
f 32 35 19
f 19 35 20
f 20 35 36
f 20 36 37
f 20 37 38
f 20 38 21
f 20 21 38
f 38 21 22
f 38 22 21
f 22 38 37
f 22 37 23
f 23 37 39
f 23 39 40
f 23 40 24
f 24 40 41
f 24 41 25
f 25 41 42
f 25 42 43
f 25 43 44
f 25 44 26
f 26 44 27
f 27 44 45
f 27 45 28
f 28 45 46
f 28 46 47
f 28 47 48
f 28 48 49
f 28 49 50
f 28 50 51
f 28 51 52
f 28 52 29
f 29 52 30
f 30 52 53
f 30 53 54
f 30 54 55
f 30 55 31
f 31 55 10
f 10 55 36
f 10 36 11
f 11 36 34
f 11 34 12
f 12 33 13
f 13 33 56
f 13 56 14
f 18 17 57
f 18 57 58
f 18 58 33
f 33 58 56
f 17 16 57
f 36 35 34
f 59 60 61
f 59 61 62
f 59 62 50
f 59 50 49
f 59 49 63
f 59 63 64
f 59 64 65
f 59 65 60
f 60 65 66
f 60 66 67
f 60 67 68
f 60 68 61
f 61 68 69
f 61 69 70
f 61 70 71
f 61 71 62
f 62 71 50
f 50 71 72
f 50 72 73
f 50 73 51
f 51 73 52
f 52 73 53
f 53 73 54
f 54 73 74
f 54 74 75
f 54 75 76
f 54 76 77
f 54 77 55
f 55 77 78
f 55 78 79
f 55 79 37
f 55 37 36
f 80 64 81
f 80 81 82
f 80 82 83
f 80 83 84
f 80 84 85
f 80 85 86
f 80 86 64
f 64 86 65
f 65 86 87
f 65 87 66
f 69 83 82
f 69 82 88
f 69 88 70
f 70 88 89
f 70 89 71
f 71 89 74
f 71 74 72
f 72 74 73
f 69 68 83
f 83 68 90
f 83 90 84
f 68 67 90
f 86 85 87
f 91 92 93
f 91 93 94
f 91 94 89
f 91 89 95
f 91 95 81
f 91 81 64
f 91 64 92
f 92 64 96
f 92 96 93
f 92 93 96
f 92 96 64
f 95 82 81
f 82 95 88
f 88 95 89
f 49 97 63
f 63 97 98
f 63 98 99
f 63 99 64
f 64 99 100
f 64 100 96
f 96 100 93
f 93 100 94
f 94 100 39
f 94 39 101
f 94 101 74
f 94 74 89
f 49 48 97
f 49 97 48
f 49 48 28
f 102 98 97
f 102 97 48
f 102 48 47
f 102 47 103
f 102 103 104
f 102 104 105
f 102 105 106
f 102 106 98
f 98 106 42
f 98 42 41
f 98 41 99
f 99 41 40
f 99 40 100
f 100 40 39
f 39 37 79
f 39 79 78
f 39 78 107
f 39 107 108
f 39 108 101
f 101 108 74
f 74 108 75
f 75 108 109
f 75 109 110
f 75 110 111
f 75 111 76
f 76 111 77
f 77 111 112
f 77 112 113
f 77 113 78
f 78 113 114
f 78 114 107
f 107 114 115
f 107 115 116
f 107 116 108
f 108 116 109
f 109 116 117
f 109 117 118
f 109 118 119
f 109 119 120
f 109 120 121
f 109 121 110
f 110 121 122
f 110 122 123
f 110 123 111
f 111 123 112
f 112 123 124
f 112 124 125
f 112 125 113
f 113 125 126
f 113 126 127
f 113 127 128
f 113 128 129
f 113 129 114
f 114 129 130
f 114 130 131
f 114 131 132
f 114 132 115
f 115 132 133
f 115 133 134
f 115 134 135
f 115 135 116
f 116 135 136
f 116 136 137
f 116 137 117
f 117 137 118
f 118 137 138
f 118 138 119
f 119 138 139
f 119 139 140
f 119 140 120
f 120 140 141
f 120 141 142
f 120 142 143
f 120 143 121
f 121 143 144
f 121 144 145
f 121 145 146
f 121 146 122
f 122 146 147
f 122 147 148
f 122 148 123
f 123 148 124
f 124 148 147
f 124 147 149
f 124 149 125
f 125 149 150
f 125 150 151
f 125 151 152
f 125 152 126
f 126 152 142
f 126 142 153
f 126 153 154
f 126 154 127
f 127 154 155
f 127 155 156
f 127 156 128
f 128 156 130
f 128 130 129
f 136 157 158
f 136 158 138
f 136 138 137
f 138 159 160
f 138 160 161
f 138 161 139
f 139 161 162
f 139 162 140
f 139 140 162
f 139 162 163
f 139 163 164
f 139 164 119
f 139 119 140
f 140 119 165
f 140 165 162
f 140 162 141
f 141 162 161
f 141 161 142
f 142 161 153
f 153 161 166
f 153 166 154
f 154 166 155
f 154 155 166
f 154 166 167
f 154 167 168
f 154 168 127
f 154 127 155
f 155 127 169
f 155 169 166
f 155 166 161
f 155 161 156
f 156 161 160
f 156 160 159
f 156 159 170
f 156 170 131
f 156 131 130
f 131 171 132
f 132 171 172
f 132 172 133
f 133 172 173
f 133 173 174
f 133 174 134
f 134 174 175
f 134 175 176
f 134 176 135
f 135 176 157
f 135 157 136
f 145 177 150
f 145 150 147
f 145 147 146
f 150 177 151
f 150 151 177
f 150 177 145
f 145 177 144
f 145 144 177
f 177 144 143
f 177 143 178
f 177 178 179
f 177 179 152
f 177 152 151
f 178 142 179
f 179 142 152
f 147 150 149
f 180 181 182
f 180 182 183
f 180 183 184
f 180 184 185
f 180 185 186
f 180 186 181
f 181 186 187
f 181 187 188
f 181 188 182
f 182 188 189
f 182 189 190
f 182 190 191
f 182 191 192
f 182 192 183
f 183 192 193
f 183 193 194
f 183 194 184
f 184 194 195
f 184 195 196
f 184 196 197
f 184 197 198
f 184 198 185
f 185 198 199
f 185 199 186
f 186 199 200
f 186 200 43
f 186 43 201
f 186 201 106
f 186 106 202
f 186 202 187
f 187 202 188
f 188 202 189
f 189 202 203
f 189 203 204
f 189 204 190
f 190 204 205
f 190 205 191
f 191 205 206
f 191 206 192
f 192 206 207
f 192 207 193
f 193 207 208
f 193 208 209
f 193 209 210
f 193 210 211
f 193 211 194
f 194 211 212
f 194 212 195
f 195 212 213
f 195 213 196
f 196 213 214
f 196 214 197
f 197 214 215
f 197 215 200
f 197 200 198
f 198 200 199
f 46 216 103
f 46 103 47
f 216 104 103
f 104 216 217
f 104 217 218
f 104 218 219
f 104 219 105
f 105 219 202
f 105 202 106
f 218 217 208
f 218 208 203
f 218 203 202
f 218 202 219
f 208 217 209
f 209 217 210
f 210 217 220
f 210 220 215
f 210 215 211
f 211 215 221
f 211 221 212
f 212 221 222
f 212 222 223
f 212 223 213
f 213 223 224
f 213 224 214
f 214 224 225
f 214 225 221
f 214 221 215
f 42 106 201
f 42 201 43
f 226 216 46
f 226 46 45
f 226 45 44
f 226 44 227
f 226 227 216
f 216 227 217
f 217 227 220
f 220 227 228
f 220 228 200
f 220 200 215
f 44 43 229
f 44 229 227
f 44 227 229
f 44 229 43
f 43 200 229
f 229 200 228
f 229 228 227
f 222 230 231
f 222 231 223
f 223 231 232
f 223 232 224
f 224 232 233
f 224 233 234
f 224 234 225
f 225 234 230
f 225 230 222
f 225 222 221
f 206 235 207
f 207 235 203
f 207 203 208
f 203 235 204
f 204 235 236
f 204 236 237
f 204 237 205
f 205 237 238
f 205 238 206
f 206 238 239
f 206 239 235
f 235 239 236
f 236 239 240
f 236 240 241
f 236 241 237
f 237 241 242
f 237 242 243
f 237 243 238
f 238 243 244
f 238 244 239
f 239 244 240
f 240 244 245
f 240 245 246
f 240 246 247
f 240 247 241
f 241 247 242
f 242 247 248
f 242 248 249
f 242 249 243
f 243 249 245
f 243 245 244
f 170 171 131
f 171 170 250
f 171 250 172
f 172 250 251
f 172 251 173
f 173 251 252
f 173 252 253
f 173 253 174
f 173 174 254
f 173 254 255
f 173 255 174
f 174 255 254
f 174 254 175
f 174 175 256
f 174 256 254
f 254 256 175
f 175 256 257
f 175 257 176
f 176 257 258
f 176 258 157
f 157 258 158
f 158 258 259
f 158 259 260
f 158 260 261
f 158 261 138
f 138 261 262
f 138 262 263
f 138 263 159
f 159 263 264
f 159 264 170
f 170 264 250
f 250 264 265
f 250 265 251
f 251 265 266
f 251 266 252
f 252 266 267
f 252 267 268
f 252 268 253
f 253 268 269
f 253 269 270
f 253 270 174
f 174 270 175
f 175 270 271
f 175 271 257
f 175 257 272
f 175 272 256
f 256 272 257
f 257 272 273
f 257 273 258
f 258 273 259
f 259 273 274
f 259 274 275
f 259 275 260
f 260 275 261
f 261 275 262
f 262 275 276
f 262 276 263
f 263 276 264
f 264 276 275
f 264 275 265
f 265 275 277
f 265 277 266
f 266 277 278
f 266 278 267
f 267 278 279
f 267 279 268
f 267 268 279
f 267 279 278
f 278 279 280
f 278 280 279
f 279 280 281
f 279 281 282
f 279 282 283
f 279 283 284
f 279 284 269
f 279 269 268
f 279 268 269
f 279 269 284
f 279 284 283
f 279 283 282
f 279 282 281
f 279 281 280
f 143 142 178
f 285 286 287
f 285 287 288
f 285 288 289
f 285 289 290
f 285 290 291
f 285 291 292
f 285 292 286
f 286 292 293
f 286 293 294
f 286 294 295
f 286 295 287
f 287 295 290
f 287 290 289
f 287 289 288
f 296 297 298
f 296 298 299
f 296 299 295
f 296 295 297
f 297 295 294
f 297 294 300
f 297 300 301
f 297 301 298
f 298 301 302
f 298 302 291
f 298 291 303
f 298 303 299
f 299 303 295
f 295 303 290
f 290 303 291
f 304 300 293
f 304 293 292
f 304 292 291
f 304 291 302
f 304 302 305
f 304 305 306
f 304 306 300
f 300 306 307
f 300 307 301
f 301 307 308
f 301 308 302
f 302 308 305
f 305 308 309
f 305 309 233
f 305 233 306
f 306 233 232
f 306 232 307
f 307 232 231
f 307 231 230
f 307 230 308
f 308 230 309
f 309 230 234
f 309 234 233
f 300 294 293
f 310 311 312
f 310 312 313
f 310 313 314
f 310 314 315
f 310 315 316
f 310 316 317
f 310 317 311
f 311 317 316
f 311 316 315
f 311 315 318
f 311 318 312
f 312 318 319
f 312 319 320
f 312 320 313
f 313 320 321
f 313 321 314
f 314 321 322
f 314 322 323
f 314 323 324
f 314 324 315
f 315 324 318
f 318 324 325
f 318 325 326
f 318 326 327
f 318 327 319
f 319 327 328
f 319 328 320
f 320 328 321
f 321 328 249
f 321 249 248
f 321 248 322
f 322 248 246
f 322 246 329
f 322 329 323
f 323 329 327
f 323 327 326
f 323 326 325
f 323 325 324
f 328 327 329
f 328 329 245
f 328 245 249
f 245 329 246
f 247 246 248
f 93 92 91
f 27 26 7
f 27 7 28
f 144 121 145
f 106 105 102
f 102 105 104
f 125 151 150
f 21 5 22
f 257 271 330
f 257 330 273
f 257 273 331
f 257 331 272
f 272 331 273
f 273 331 274
f 273 274 332
f 273 332 331
f 331 332 274
f 274 332 275
f 274 275 333
f 274 333 332
f 332 333 275
f 275 333 265
f 275 265 334
f 275 334 333
f 333 334 265
f 265 334 251
f 265 251 335
f 265 335 334
f 334 335 251
f 251 335 173
f 251 173 255
f 251 255 335
f 335 255 173
f 255 335 336
f 255 336 337
f 255 337 335
f 335 337 336
f 335 336 334
f 335 334 338
f 335 338 336
f 336 338 334
f 334 338 333
f 334 333 339
f 334 339 338
f 338 339 333
f 333 339 332
f 333 332 340
f 333 340 339
f 339 340 332
f 332 340 331
f 332 331 341
f 332 341 340
f 340 341 331
f 331 341 272
f 331 272 342
f 331 342 341
f 341 342 272
f 272 342 256
f 272 256 343
f 272 343 342
f 342 343 256
f 256 343 254
f 256 254 344
f 256 344 343
f 343 344 254
f 254 344 255
f 254 255 337
f 254 337 344
f 344 337 255
f 337 344 345
f 337 345 346
f 337 346 336
f 337 336 347
f 337 347 346
f 337 346 344
f 344 346 345
f 344 345 343
f 344 343 348
f 344 348 345
f 345 348 349
f 345 349 350
f 345 350 346
f 345 346 351
f 345 351 350
f 345 350 348
f 345 348 343
f 343 348 342
f 343 342 352
f 343 352 348
f 348 352 353
f 348 353 349
f 348 349 352
f 348 352 342
f 342 352 341
f 342 341 354
f 342 354 352
f 352 354 355
f 352 355 353
f 352 353 354
f 352 354 341
f 341 354 340
f 341 340 356
f 341 356 354
f 354 356 357
f 354 357 355
f 354 355 356
f 354 356 340
f 340 356 339
f 340 339 358
f 340 358 356
f 356 358 359
f 356 359 357
f 356 357 358
f 356 358 339
f 339 358 338
f 339 338 360
f 339 360 358
f 358 360 361
f 358 361 359
f 358 359 360
f 358 360 338
f 338 360 336
f 338 336 347
f 338 347 360
f 360 347 362
f 360 362 361
f 360 361 347
f 360 347 336
f 274 273 363
f 274 363 364
f 274 364 275
f 275 364 277
f 277 364 280
f 277 280 278
f 273 330 363
f 363 330 282
f 363 282 281
f 363 281 364
f 364 281 280
f 330 271 283
f 330 283 282
f 270 269 284
f 270 284 271
f 271 284 283
f 336 346 347
f 347 346 351
f 347 351 362
f 347 362 346
f 346 362 351
f 346 350 351
f 349 353 352
f 355 357 356
f 361 362 347
f 350 349 348
f 353 355 354
f 359 361 360
f 357 359 358
f 162 165 163
f 162 163 140
f 140 163 165
f 140 165 119
f 166 169 167
f 164 163 162
f 164 162 139
f 164 139 119
f 168 167 166
f 168 166 154
f 168 154 127
f 169 127 155
