# RS2 Model 17487
# Vertices: 159
# Faces: 294

v -58 -16 223
v -58 8 221
v -58 23 223
v -58 8 228
v -58 -24 228
v -58 -16 216
v -58 -3 218
v -58 1 219
v -58 20 220
v -58 33 226
v -58 38 228
v -58 20 232
v -58 -6 232
v -58 -14 232
v -58 -30 232
v -58 -32 230
v -58 -30 213
v -58 -17 212
v -58 -9 214
v -58 -2 217
v -58 11 216
v -58 3 218
v -58 24 217
v -58 33 222
v -58 41 220
v -58 46 232
v -58 48 236
v -58 21 239
v -58 -3 236
v -58 -24 234
v -58 -39 238
v -58 -37 232
v -58 -37 210
v -58 -21 210
v -58 -9 211
v -58 -6 213
v -58 23 206
v -58 6 206
v -58 21 204
v -58 31 205
v -58 34 210
v -58 20 209
v -58 -14 209
v -58 -9 205
v -58 -7 204
v -58 0 202
v -58 20 203
v -58 39 202
v -58 48 204
v -58 56 210
v -58 46 213
v -58 39 218
v -58 18 215
v -58 -27 207
v -58 -27 206
v -58 -27 204
v -58 -16 202
v -58 -24 199
v -58 -16 197
v -58 0 200
v -58 13 197
v -58 33 200
v -58 31 198
v -58 41 201
v -58 48 203
v -58 56 196
v -58 31 195
v -58 6 191
v -58 36 191
v -58 41 190
v -58 56 181
v -58 28 184
v -58 -27 181
v -58 -29 185
v -58 -35 190
v -58 -35 185
v -58 -42 182
v -58 -55 181
v -58 -47 183
v -58 -47 190
v -58 -55 193
v -58 -50 198
v -58 -55 200
v -58 -52 206
v -58 -55 216
v -58 -47 208
v -58 -50 213
v -58 -42 231
v -58 -47 232
v -58 -55 227
v -58 -52 236
v -58 -55 231
v -58 -55 240
v -58 -22 237
v -58 -22 250
v -58 -55 247
v -58 -55 253
v -58 -24 254
v -58 -55 259
v -58 -17 257
v -58 8 259
v -58 1 254
v -58 31 254
v -58 26 256
v -58 56 259
v -58 56 253
v -58 24 250
v -58 56 249
v -58 56 243
v -58 56 241
v -58 51 234
v -58 52 232
v -58 56 234
v -58 56 226
v -58 -32 208
v -58 -3 195
v -58 8 193
v -58 16 196
v -58 -7 192
v -58 -4 189
v -58 16 187
v -58 -22 193
v -58 -30 195
v -58 -42 197
v -58 -40 189
v -58 -42 201
v -58 -45 203
v -58 -49 204
v -58 -45 207
v -58 -42 210
v -58 -45 211
v -58 59 179
v -58 59 261
v -58 -58 261
v -58 -58 179
v -58 -63 176
v -58 64 176
v -58 64 264
v -58 -63 264
v -64 -63 264
v -64 -63 176
v -64 64 176
v -64 64 264
v -58 -37 197
v -58 -37 201
v -58 -40 207
v -58 -30 200
v -58 -34 207
v -58 1 247
v -58 11 250
v -58 8 253
v -58 -4 252
v -58 -6 250
v -58 -7 247
v -58 3 242
v -58 10 244
v -58 11 247
v -58 -4 244
v -58 49 231

f 1 2 3
f 1 3 4
f 1 4 5
f 1 5 6
f 1 6 7
f 1 7 8
f 1 8 2
f 2 8 9
f 2 9 3
f 3 9 10
f 3 10 4
f 4 10 11
f 4 11 12
f 4 12 13
f 4 13 5
f 5 13 14
f 5 14 15
f 5 15 16
f 5 16 6
f 6 16 17
f 6 17 18
f 6 18 19
f 6 19 20
f 6 20 7
f 7 20 21
f 7 21 22
f 7 22 8
f 8 22 9
f 9 22 21
f 9 21 23
f 9 23 24
f 9 24 10
f 10 24 11
f 11 24 25
f 11 25 26
f 11 26 27
f 11 27 12
f 12 27 28
f 12 28 13
f 13 28 29
f 13 29 30
f 13 30 14
f 14 30 15
f 15 30 31
f 15 31 16
f 16 31 32
f 16 32 17
f 17 32 33
f 17 33 34
f 17 34 18
f 18 34 35
f 18 35 19
f 19 35 36
f 19 36 21
f 19 21 20
f 37 38 39
f 37 39 40
f 37 40 41
f 37 41 42
f 37 42 35
f 37 35 43
f 37 43 38
f 38 43 44
f 38 44 39
f 39 44 45
f 39 45 46
f 39 46 47
f 39 47 40
f 40 47 48
f 40 48 49
f 40 49 41
f 41 49 50
f 41 50 51
f 41 51 52
f 41 52 42
f 42 52 53
f 42 53 36
f 42 36 35
f 43 54 44
f 44 54 45
f 45 54 55
f 45 55 56
f 45 56 57
f 45 57 46
f 46 57 58
f 46 58 59
f 46 59 60
f 46 60 47
f 47 60 61
f 47 61 62
f 47 62 48
f 48 62 63
f 48 63 64
f 48 64 65
f 48 65 49
f 49 65 50
f 50 65 66
f 66 65 64
f 66 64 63
f 66 63 67
f 66 67 68
f 66 68 69
f 66 69 70
f 66 70 71
f 71 70 72
f 71 72 73
f 73 72 74
f 73 74 75
f 73 75 76
f 73 76 77
f 73 77 78
f 78 77 79
f 78 79 80
f 78 80 81
f 81 80 82
f 81 82 83
f 83 82 84
f 83 84 85
f 85 84 86
f 85 86 87
f 85 87 88
f 85 88 89
f 85 89 90
f 90 89 91
f 90 91 92
f 92 91 93
f 93 91 31
f 93 31 94
f 93 94 95
f 93 95 96
f 96 95 97
f 97 95 98
f 97 98 99
f 99 98 100
f 99 100 101
f 101 100 98
f 101 98 102
f 101 102 103
f 101 103 104
f 101 104 105
f 105 104 103
f 105 103 106
f 106 103 107
f 106 107 108
f 108 107 109
f 109 107 110
f 110 107 28
f 110 28 27
f 110 27 111
f 110 111 112
f 110 112 113
f 113 112 114
f 114 112 25
f 114 25 52
f 114 52 51
f 114 51 50
f 34 33 115
f 34 115 54
f 34 54 43
f 34 43 35
f 60 59 116
f 60 116 61
f 61 116 117
f 61 117 118
f 61 118 62
f 62 118 63
f 63 118 67
f 67 118 68
f 68 118 117
f 68 117 119
f 68 119 120
f 68 120 121
f 68 121 69
f 69 121 70
f 70 121 72
f 72 121 120
f 72 120 74
f 74 120 122
f 74 122 123
f 74 123 75
f 75 123 124
f 75 124 125
f 75 125 76
f 76 125 77
f 77 125 79
f 79 125 80
f 80 125 124
f 80 124 82
f 82 124 126
f 82 126 127
f 82 127 128
f 82 128 84
f 84 128 86
f 86 128 129
f 86 129 130
f 86 130 131
f 86 131 87
f 87 131 88
f 88 131 130
f 88 130 32
f 88 32 31
f 88 31 89
f 89 31 91
f 59 122 119
f 59 119 116
f 116 119 117
f 122 120 119
f 105 71 132
f 105 132 133
f 105 133 99
f 99 133 134
f 99 134 78
f 78 134 135
f 78 135 71
f 71 135 132
f 132 135 136
f 132 136 137
f 132 137 133
f 133 137 138
f 133 138 134
f 134 138 139
f 134 139 135
f 135 139 136
f 136 139 140
f 136 140 141
f 136 141 137
f 137 141 142
f 137 142 138
f 138 142 143
f 138 143 139
f 139 143 140
f 58 123 122
f 58 122 59
f 124 123 144
f 124 144 126
f 126 144 145
f 126 145 146
f 126 146 127
f 127 146 129
f 127 129 128
f 130 129 146
f 130 146 33
f 130 33 32
f 145 147 148
f 145 148 146
f 146 148 115
f 146 115 33
f 144 123 58
f 144 58 147
f 144 147 145
f 149 150 151
f 149 151 102
f 149 102 152
f 149 152 153
f 149 153 154
f 149 154 155
f 149 155 156
f 149 156 157
f 149 157 150
f 150 157 107
f 150 107 151
f 151 107 103
f 151 103 102
f 154 158 155
f 155 158 29
f 155 29 156
f 156 29 28
f 156 28 107
f 156 107 157
f 58 57 56
f 58 56 147
f 147 56 148
f 148 56 115
f 115 56 55
f 115 55 54
f 21 53 23
f 23 53 25
f 23 25 24
f 29 94 30
f 30 94 31
f 95 158 154
f 95 154 153
f 95 153 98
f 98 153 152
f 98 152 102
f 36 53 21
f 25 53 52
f 112 159 25
f 25 159 26
f 26 159 111
f 26 111 27
f 111 159 112
f 29 95 94
f 95 29 158
