# RS2 Model 17513
# Vertices: 126
# Faces: 236

v 27 -6 129
v 22 1 125
v 28 -5 123
v 34 1 129
v 32 1 138
v 26 -6 137
v 20 1 136
v 26 9 130
v 27 7 125
v 25 1 119
v 25 0 109
v 32 -5 109
v 36 0 109
v 34 1 120
v 26 9 137
v 34 1 142
v 25 -8 146
v 18 2 142
v 32 7 110
v 28 8 119
v 32 7 103
v 32 -4 100
v 32 -6 103
v 25 0 102
v 28 0 99
v 29 -1 93
v 32 -4 94
v 36 1 98
v 38 1 101
v 32 5 99
v 32 4 93
v 32 4 91
v 29 -1 91
v 32 -4 92
v 36 0 93
v 22 -8 153
v 17 -9 153
v 19 2 160
v 27 2 157
v 22 10 154
v 19 10 155
v 24 11 146
v 35 1 149
v 36 0 91
v 34 5 87
v 29 5 87
v 26 1 84
v 26 -7 86
v 29 -7 87
v 34 -7 87
v 37 -4 86
v 29 -6 78
v 29 -7 82
v 34 -7 82
v 38 -6 80
v 37 3 80
v 34 5 82
v 29 5 82
v 29 3 78
v 37 -3 88
v 39 0 89
v 42 0 80
v 36 3 87
v -27 -6 129
v -28 -5 123
v -22 1 125
v -20 1 136
v -26 -6 137
v -32 1 138
v -34 1 129
v -34 1 120
v -36 0 109
v -32 -5 109
v -25 0 109
v -25 1 119
v -27 7 125
v -26 9 130
v -26 9 137
v -18 2 142
v -25 -8 146
v -34 1 142
v -28 8 119
v -32 7 110
v -32 7 103
v -38 1 101
v -32 -6 103
v -25 0 102
v -32 -4 100
v -28 0 99
v -36 1 98
v -32 -4 94
v -29 -1 93
v -32 4 93
v -32 5 99
v -36 0 93
v -32 -4 92
v -29 -1 91
v -32 4 91
v -36 3 87
v -39 0 89
v -37 -3 88
v -22 -8 153
v -35 1 149
v -24 11 146
v -22 10 154
v -19 10 155
v -19 2 160
v -27 2 157
v -17 -9 153
v -36 0 91
v -37 -4 86
v -34 -7 87
v -29 -7 87
v -26 -7 86
v -26 1 84
v -29 5 87
v -34 5 87
v -29 -7 82
v -29 -6 78
v -29 3 78
v -29 5 82
v -34 5 82
v -37 3 80
v -38 -6 80
v -34 -7 82
v -42 0 80

f 1 2 3
f 1 3 4
f 1 4 5
f 1 5 6
f 1 6 7
f 1 7 2
f 2 7 8
f 2 8 9
f 2 9 10
f 2 10 3
f 3 10 11
f 3 11 12
f 3 12 13
f 3 13 14
f 3 14 4
f 4 14 9
f 4 9 8
f 4 8 15
f 4 15 5
f 5 15 16
f 5 16 6
f 6 16 17
f 6 17 18
f 6 18 7
f 7 18 15
f 7 15 8
f 19 20 14
f 19 14 13
f 19 13 21
f 19 21 11
f 19 11 20
f 20 11 10
f 20 10 9
f 20 9 14
f 22 23 24
f 22 24 25
f 22 25 26
f 22 26 27
f 22 27 28
f 22 28 29
f 22 29 23
f 23 29 13
f 23 13 12
f 23 12 24
f 24 12 11
f 24 11 21
f 24 21 30
f 24 30 25
f 25 30 31
f 25 31 26
f 26 31 32
f 26 32 33
f 26 33 34
f 26 34 27
f 27 34 35
f 27 35 28
f 28 35 30
f 28 30 29
f 29 30 21
f 29 21 13
f 18 17 36
f 18 36 37
f 37 36 38
f 38 36 39
f 38 39 40
f 38 40 41
f 41 40 18
f 18 40 42
f 18 42 15
f 15 42 16
f 16 42 43
f 16 43 17
f 17 43 36
f 36 43 39
f 39 43 42
f 39 42 40
f 30 35 31
f 31 35 32
f 32 35 44
f 32 44 45
f 32 45 46
f 32 46 33
f 33 46 47
f 33 47 48
f 33 48 34
f 34 48 49
f 34 49 50
f 34 50 51
f 34 51 44
f 34 44 35
f 48 52 53
f 48 53 49
f 49 53 54
f 49 54 50
f 50 54 55
f 50 55 51
f 51 55 56
f 51 56 44
f 44 56 45
f 45 56 57
f 45 57 58
f 45 58 46
f 46 58 47
f 47 58 59
f 47 59 52
f 47 52 48
f 59 58 57
f 59 57 56
f 59 56 55
f 59 55 52
f 52 55 54
f 52 54 53
f 60 61 35
f 60 35 27
f 61 62 63
f 61 63 35
f 35 63 31
f 60 62 61
f 64 65 66
f 64 66 67
f 64 67 68
f 64 68 69
f 64 69 70
f 64 70 65
f 65 70 71
f 65 71 72
f 65 72 73
f 65 73 74
f 65 74 75
f 65 75 66
f 66 75 76
f 66 76 77
f 66 77 67
f 67 77 78
f 67 78 79
f 67 79 68
f 68 79 80
f 68 80 81
f 68 81 69
f 69 81 78
f 69 78 70
f 70 78 77
f 70 77 76
f 70 76 71
f 71 76 82
f 71 82 83
f 71 83 72
f 72 83 84
f 72 84 85
f 72 85 86
f 72 86 73
f 73 86 87
f 73 87 74
f 74 87 84
f 74 84 83
f 74 83 82
f 74 82 75
f 75 82 76
f 88 89 87
f 88 87 86
f 88 86 85
f 88 85 90
f 88 90 91
f 88 91 92
f 88 92 89
f 89 92 93
f 89 93 94
f 89 94 87
f 87 94 84
f 84 94 85
f 85 94 90
f 90 94 95
f 90 95 91
f 91 95 96
f 91 96 92
f 92 96 97
f 92 97 98
f 92 98 93
f 93 98 95
f 93 95 94
f 95 93 99
f 95 99 100
f 95 100 101
f 95 101 91
f 79 102 80
f 80 102 103
f 80 103 81
f 81 103 104
f 81 104 78
f 78 104 79
f 79 104 105
f 79 105 106
f 106 105 107
f 107 105 108
f 107 108 102
f 107 102 109
f 109 102 79
f 102 108 103
f 103 108 104
f 104 108 105
f 96 95 110
f 96 110 111
f 96 111 112
f 96 112 113
f 96 113 114
f 96 114 97
f 97 114 115
f 97 115 116
f 97 116 98
f 98 116 117
f 98 117 110
f 98 110 95
f 114 118 119
f 114 119 115
f 115 119 120
f 115 120 121
f 115 121 116
f 116 121 117
f 117 121 122
f 117 122 123
f 117 123 110
f 110 123 111
f 111 123 124
f 111 124 112
f 112 124 125
f 112 125 113
f 113 125 118
f 113 118 114
f 120 122 121
f 122 120 123
f 123 120 124
f 124 120 119
f 124 119 125
f 125 119 118
f 100 99 126
f 100 126 101
