# RS2 Model 17551
# Vertices: 24
# Faces: 30

v 64 -16 -22
v -61 -16 6
v -61 -36 6
v 64 -36 -22
v 64 -36 -28
v 64 -16 -28
v -64 -16 0
v -64 -36 0
v -29 64 -8
v -50 64 -3
v -50 -64 -3
v -29 -64 -8
v -31 -64 -11
v -31 64 -11
v -52 64 -6
v -52 -64 -6
v 64 48 -22
v -61 48 6
v -61 28 6
v 64 28 -22
v 64 28 -28
v 64 48 -28
v -64 48 0
v -64 28 0

f 1 2 3
f 1 3 4
f 1 4 5
f 1 5 6
f 1 6 2
f 2 6 7
f 2 7 3
f 3 7 8
f 3 8 4
f 4 8 5
f 9 10 11
f 9 11 12
f 9 12 13
f 9 13 14
f 9 14 10
f 10 14 15
f 10 15 11
f 11 15 16
f 11 16 12
f 12 16 13
f 17 18 19
f 17 19 20
f 17 20 21
f 17 21 22
f 17 22 18
f 18 22 23
f 18 23 19
f 19 23 24
f 19 24 20
f 20 24 21
