# RS2 Model 17572
# Vertices: 169
# Faces: 198

v 64 44 12
v 64 50 12
v 24 44 12
v 25 38 12
v 64 44 6
v 25 38 6
v -32 19 12
v -32 19 6
v -64 0 12
v -64 0 6
v 64 50 6
v 24 44 6
v -34 25 6
v -34 25 12
v -64 8 12
v 64 -50 12
v 64 -44 12
v 44 -47 12
v 45 -53 12
v 64 -50 6
v 45 -53 6
v 10 -64 12
v 10 -64 6
v 64 -44 6
v 44 -47 6
v -2 -64 6
v -2 -64 12
v -64 8 6
v -64 -55 6
v -64 -55 0
v -56 -64 0
v -56 -64 6
v -64 -41 6
v -36 -64 6
v -64 -41 0
v -36 -64 0
v -64 -15 6
v -64 -15 0
v -54 -30 0
v -54 -30 6
v -64 10 6
v -39 -24 6
v -64 10 0
v -39 -24 0
v -19 -43 6
v -19 -43 0
v -3 -64 6
v -3 -64 0
v -31 -54 0
v -31 -54 6
v -19 -64 6
v -19 -64 0
v -40 15 6
v -48 31 6
v -48 31 0
v -40 15 0
v -24 -7 0
v -24 -7 6
v -27 22 6
v -36 38 6
v -36 38 0
v -27 22 0
v -12 -1 6
v -12 -1 0
v 5 -29 6
v 5 -29 0
v 22 -64 6
v 22 -64 0
v -10 -36 6
v 9 -64 6
v -10 -36 0
v 9 -64 0
v -6 29 6
v -11 46 6
v -11 46 0
v -6 29 0
v 5 3 0
v 5 3 6
v 8 33 6
v 3 52 6
v 3 52 0
v 8 33 0
v 19 10 6
v 19 10 0
v 33 -18 6
v 33 -18 0
v 41 -46 6
v 41 -46 0
v 45 -62 6
v 45 -62 0
v 31 -64 6
v 31 -64 0
v 26 -51 6
v 26 -51 0
v 17 -26 6
v 17 -26 0
v 35 -60 8
v 37 -57 8
v 37 -57 6
v 35 -60 6
v 38 -62 8
v 41 -59 8
v 41 -59 6
v 38 -62 6
v -6 43 8
v -5 47 8
v -5 47 6
v -6 43 6
v -2 42 8
v -1 46 8
v -1 46 6
v -2 42 6
v -43 28 8
v -41 32 8
v -41 32 6
v -43 28 6
v -39 26 8
v -37 30 8
v -37 30 6
v -39 26 6
v 26 39 6
v 23 56 6
v 23 56 0
v 26 39 0
v 38 60 6
v 40 40 6
v 40 40 0
v 38 60 0
v 32 11 6
v 47 16 6
v 47 16 0
v 57 -14 6
v 57 -14 0
v 60 -43 6
v 60 -43 0
v 64 -58 6
v 64 -58 0
v 48 -62 6
v 48 -62 0
v 45 -45 6
v 45 -45 0
v 40 -19 6
v 40 -19 0
v 32 11 0
v 52 -56 8
v 55 -53 8
v 55 -53 6
v 52 -56 6
v 55 -58 8
v 58 -56 8
v 58 -56 6
v 55 -58 6
v 28 53 8
v 30 57 8
v 30 57 6
v 28 53 6
v 32 51 8
v 34 55 8
v 34 55 6
v 32 51 6
v 8 -81 6
v 78 -48 6
v -46 35 6
v -86 -7 6
v -79 -89 6
v -34 -60 6
v -48 16 6
v -97 -22 6
v 14 -58 6

f 1 2 3
f 1 3 4
f 1 4 5
f 5 4 6
f 6 4 7
f 6 7 8
f 8 7 9
f 8 9 10
f 2 11 12
f 2 12 3
f 3 12 13
f 3 13 14
f 3 14 4
f 4 14 7
f 7 14 15
f 7 15 9
f 16 17 18
f 16 18 19
f 16 19 20
f 20 19 21
f 21 19 22
f 21 22 23
f 17 24 25
f 17 25 18
f 18 25 26
f 18 26 27
f 18 27 19
f 19 27 22
f 14 13 28
f 14 28 15
f 29 30 31
f 29 31 32
f 29 32 33
f 33 32 34
f 33 34 35
f 35 34 36
f 37 38 39
f 37 39 40
f 37 40 41
f 41 40 42
f 41 42 43
f 43 42 44
f 44 42 45
f 44 45 46
f 46 45 47
f 46 47 48
f 40 39 49
f 40 49 50
f 40 50 42
f 42 50 45
f 45 50 51
f 45 51 47
f 50 49 52
f 50 52 51
f 53 54 55
f 53 55 56
f 53 56 57
f 53 57 58
f 53 58 59
f 53 59 54
f 54 59 60
f 54 60 61
f 54 61 55
f 60 59 62
f 60 62 61
f 62 59 63
f 62 63 64
f 64 63 65
f 64 65 66
f 66 65 67
f 66 67 68
f 59 58 63
f 63 58 69
f 63 69 65
f 65 69 70
f 65 70 67
f 58 57 71
f 58 71 69
f 69 71 72
f 69 72 70
f 73 74 75
f 73 75 76
f 73 76 77
f 73 77 78
f 73 78 79
f 73 79 74
f 74 79 80
f 74 80 81
f 74 81 75
f 80 79 82
f 80 82 81
f 82 79 83
f 82 83 84
f 84 83 85
f 84 85 86
f 86 85 87
f 86 87 88
f 88 87 89
f 88 89 90
f 90 89 91
f 90 91 92
f 92 91 93
f 92 93 94
f 94 93 95
f 94 95 96
f 96 95 78
f 96 78 77
f 79 78 83
f 83 78 95
f 83 95 85
f 85 95 93
f 85 93 87
f 87 93 91
f 87 91 89
f 97 98 99
f 97 99 100
f 97 100 101
f 97 101 98
f 98 101 102
f 98 102 103
f 98 103 99
f 102 101 104
f 102 104 103
f 101 100 104
f 105 106 107
f 105 107 108
f 105 108 109
f 105 109 106
f 106 109 110
f 106 110 111
f 106 111 107
f 110 109 112
f 110 112 111
f 109 108 112
f 113 114 115
f 113 115 116
f 113 116 117
f 113 117 114
f 114 117 118
f 114 118 119
f 114 119 115
f 118 117 120
f 118 120 119
f 117 116 120
f 121 122 123
f 121 123 124
f 125 126 127
f 125 127 128
f 125 128 122
f 125 122 126
f 126 122 121
f 126 121 129
f 126 129 130
f 126 130 127
f 127 130 131
f 131 130 132
f 131 132 133
f 133 132 134
f 133 134 135
f 135 134 136
f 135 136 137
f 137 136 138
f 137 138 139
f 139 138 140
f 139 140 141
f 141 140 142
f 141 142 143
f 143 142 129
f 143 129 144
f 144 129 121
f 122 128 123
f 130 129 142
f 130 142 132
f 132 142 140
f 132 140 134
f 134 140 138
f 134 138 136
f 145 146 147
f 145 147 148
f 145 148 149
f 145 149 146
f 146 149 150
f 146 150 151
f 146 151 147
f 150 149 152
f 150 152 151
f 149 148 152
f 153 154 155
f 153 155 156
f 153 156 157
f 153 157 154
f 154 157 158
f 154 158 159
f 154 159 155
f 158 157 160
f 158 160 159
f 157 156 160
f 161 162 163
