# RS2 Model 17619
# Vertices: 32
# Faces: 42

v 4 -20 0
v 48 -18 0
v 48 14 0
v 13 10 0
v -64 -18 0
v -64 -21 -12
v 4 -20 -12
v 48 -21 -12
v 48 15 -12
v 13 11 -12
v -64 14 0
v -64 15 -12
v 48 -25 0
v -25 -23 0
v -20 -59 0
v 48 -60 0
v -21 -25 -12
v -64 -25 0
v -64 -60 0
v -64 -62 -12
v -20 -60 -12
v 48 -62 -12
v 48 46 0
v -7 46 0
v -13 15 0
v 48 20 0
v 48 49 -12
v -7 45 -12
v -64 46 0
v -64 20 0
v -13 15 -12
v -64 49 -12

f 1 2 3
f 1 3 4
f 1 4 5
f 1 5 6
f 1 6 7
f 1 7 8
f 1 8 2
f 2 8 9
f 2 9 3
f 3 9 4
f 4 9 10
f 4 10 11
f 4 11 5
f 11 10 12
f 13 14 15
f 13 15 16
f 13 16 8
f 13 8 17
f 13 17 14
f 14 17 18
f 14 18 19
f 14 19 15
f 15 19 20
f 15 20 21
f 15 21 16
f 16 21 22
f 16 22 8
f 17 6 18
f 23 24 25
f 23 25 26
f 23 26 27
f 23 27 28
f 23 28 24
f 24 28 29
f 24 29 30
f 24 30 25
f 25 30 12
f 25 12 31
f 25 31 26
f 26 31 9
f 26 9 27
f 28 32 29
