# RS2 Model 17623
# Vertices: 32
# Faces: 42

v -4 22 0
v -48 20 0
v -48 -12 0
v -13 -8 0
v 64 20 0
v 64 23 -12
v -4 22 -12
v -48 23 -12
v -48 -13 -12
v -13 -9 -12
v 64 -12 0
v 64 -13 -12
v -48 27 0
v 25 25 0
v 20 61 0
v -48 62 0
v 21 27 -12
v 64 27 0
v 64 62 0
v 64 64 -12
v 20 62 -12
v -48 64 -12
v -48 -44 0
v 7 -44 0
v 13 -13 0
v -48 -18 0
v -48 -47 -12
v 7 -43 -12
v 64 -44 0
v 64 -18 0
v 13 -13 -12
v 64 -47 -12

f 1 2 3
f 1 3 4
f 1 4 5
f 1 5 6
f 1 6 7
f 1 7 8
f 1 8 2
f 2 8 9
f 2 9 3
f 3 9 4
f 4 9 10
f 4 10 11
f 4 11 5
f 11 10 12
f 13 14 15
f 13 15 16
f 13 16 8
f 13 8 17
f 13 17 14
f 14 17 18
f 14 18 19
f 14 19 15
f 15 19 20
f 15 20 21
f 15 21 16
f 16 21 22
f 16 22 8
f 17 6 18
f 23 24 25
f 23 25 26
f 23 26 27
f 23 27 28
f 23 28 24
f 24 28 29
f 24 29 30
f 24 30 25
f 25 30 12
f 25 12 31
f 25 31 26
f 26 31 9
f 26 9 27
f 28 32 29
