# RS2 Model 17640
# Vertices: 397
# Faces: 500

v 28 58 95
v 45 58 93
v 33 55 64
v 24 55 70
v 22 47 72
v 27 47 97
v 37 47 101
v 47 47 94
v 44 55 66
v 46 47 67
v -9 58 93
v 15 58 93
v 4 55 66
v -12 55 69
v -16 47 71
v -13 47 94
v 4 47 97
v 18 47 95
v 18 55 69
v 21 47 71
v -44 58 89
v -24 58 93
v -29 55 66
v -42 55 67
v -44 47 69
v -46 47 91
v -34 47 97
v -21 47 95
v -20 55 72
v -19 47 73
v -43 55 113
v -35 55 115
v -35 55 98
v -43 55 99
v -45 47 102
v -45 47 115
v -39 47 119
v -33 47 117
v -30 55 102
v -29 47 106
v -21 55 116
v -9 55 113
v -17 55 94
v -26 55 100
v -28 47 104
v -23 47 119
v -14 47 120
v -8 47 114
v -9 55 96
v -7 47 99
v 14 55 118
v 32 55 120
v 23 55 97
v 11 55 99
v 8 47 101
v 9 47 121
v 21 47 126
v 33 47 121
v 34 55 102
v 36 47 105
v -32 55 134
v -25 55 135
v -27 55 118
v -32 55 120
v -35 47 123
v -34 47 136
v -28 47 140
v -24 47 137
v -22 55 122
v -21 47 126
v -3 55 114
v 4 55 115
v 2 55 98
v -3 55 100
v -6 47 103
v -5 47 116
v 1 47 119
v 5 47 117
v 6 55 102
v 7 47 106
v 59 -27 95
v 59 -44 93
v 56 -32 64
v 56 -23 70
v 48 -21 72
v 48 -26 97
v 48 -36 101
v 48 -46 94
v 56 -43 66
v 48 -45 67
v 59 10 93
v 59 -14 93
v 56 -3 66
v 56 13 69
v 48 17 71
v 48 14 94
v 48 -3 97
v 48 -17 95
v 56 -17 69
v 48 -20 71
v 59 45 89
v 59 25 93
v 56 30 66
v 56 43 67
v 48 45 69
v 48 47 91
v 48 35 97
v 48 22 95
v 56 21 72
v 48 20 73
v 56 44 113
v 56 36 115
v 56 36 98
v 56 44 99
v 48 46 102
v 48 46 115
v 48 40 119
v 48 34 117
v 56 31 102
v 48 30 106
v 56 -13 118
v 56 -31 120
v 56 -22 97
v 56 -10 99
v 48 -7 101
v 48 -8 121
v 48 -20 126
v 48 -32 121
v 56 -33 102
v 48 -35 105
v -46 -38 103
v -46 47 97
v -46 -47 98
v -41 -42 98
v -41 -38 103
v -46 -33 122
v -46 -10 124
v -46 38 122
v -46 47 116
v -39 47 121
v -14 47 121
v -7 47 117
v 37 47 107
v 48 47 63
v -46 47 63
v -46 -47 63
v -4 -47 100
v -36 -47 103
v -36 -42 103
v -4 -42 100
v -41 -42 63
v -41 42 63
v -41 42 98
v -41 -10 124
v -41 -33 122
v -46 -20 128
v -41 -20 128
v -46 -11 151
v -46 37 147
v -41 37 147
v -41 38 122
v -41 42 116
v -39 42 121
v -36 47 136
v -23 47 138
v -20 47 126
v -20 42 126
v -14 42 121
v -7 42 117
v 1 47 120
v 34 47 122
v 34 42 122
v 37 42 107
v 48 47 116
v 48 33 118
v 48 28 106
v 48 18 95
v 48 -47 63
v 48 -3 100
v 48 -47 97
v 19 -47 95
v 19 -42 95
v -5 -47 122
v -32 -47 122
v -32 -42 122
v -5 -42 122
v -19 -47 128
v -19 -42 128
v -46 9 179
v -46 15 182
v -46 23 179
v -46 6 162
v -41 6 162
v -41 9 179
v -41 15 182
v -41 23 179
v -46 24 167
v -46 33 161
v -46 -2 161
v -41 -2 161
v -41 -11 151
v -41 33 161
v -41 24 167
v 48 -47 117
v 41 -47 121
v 34 -47 120
v 43 -42 97
v 43 -42 117
v 41 -42 121
v 34 -42 120
v 29 -47 106
v 29 -42 106
v 43 -42 63
v 43 42 63
v 48 40 120
v 43 40 120
v 43 33 118
v 43 28 106
v 43 18 95
v 43 -3 100
v 48 -6 121
v 48 -33 122
v 48 -38 103
v 43 -38 103
v 43 42 116
v 48 -20 128
v 43 -20 128
v 43 -33 122
v 43 -6 121
v -28 47 141
v -28 42 141
v -23 42 138
v -36 42 136
v 8 47 122
v 21 47 127
v 1 42 120
v 8 42 122
v 21 42 127
v -57 -44 93
v -57 -27 95
v -54 -23 70
v -54 -32 64
v -54 -43 66
v -46 -45 67
v -46 -46 94
v -46 -36 101
v -46 -26 97
v -46 -21 72
v -57 -14 93
v -57 10 93
v -54 13 69
v -54 -3 66
v -54 -17 69
v -46 -20 71
v -46 -17 95
v -46 -3 97
v -46 14 94
v -46 17 71
v -57 25 93
v -57 45 89
v -54 43 67
v -54 30 66
v -54 21 72
v -46 20 73
v -46 22 95
v -46 35 97
v -46 45 69
v -54 36 115
v -54 44 113
v -54 44 99
v -54 36 98
v -54 31 102
v -46 30 106
v -46 34 117
v -46 40 119
v -46 46 115
v -46 46 102
v -54 10 113
v -54 22 116
v -54 27 100
v -54 18 94
v -54 10 96
v -46 8 99
v -46 9 114
v -46 15 120
v -46 24 119
v -46 29 104
v -54 -31 120
v -54 -13 118
v -54 -10 99
v -54 -22 97
v -54 -33 102
v -46 -35 105
v -46 -32 121
v -46 -20 126
v -46 -8 121
v -46 -7 101
v -54 -8 150
v -54 7 155
v -54 16 127
v -54 5 120
v -54 -6 120
v -46 -8 123
v -46 -9 151
v -46 1 160
v -46 12 160
v -46 19 130
v -54 21 158
v -54 30 157
v -54 32 143
v -54 25 141
v -54 19 145
v -46 18 149
v -46 20 160
v -46 26 163
v -46 32 159
v -46 35 146
v -54 26 135
v -54 33 134
v -54 33 120
v -54 28 118
v -54 23 122
v -46 22 126
v -46 25 137
v -46 29 140
v -46 35 136
v -46 36 123
v -54 -3 115
v -54 4 114
v -54 4 100
v -54 -1 98
v -54 -5 102
v -46 -6 106
v -46 -4 117
v -46 0 119
v -46 6 116
v -46 7 103
v -54 12 176
v -54 19 175
v -54 19 161
v -54 14 159
v -54 10 163
v -46 9 167
v -46 11 178
v -46 15 180
v -46 21 177
v -46 22 164
v -26 -58 95
v -43 -58 93
v -31 -55 64
v -22 -55 70
v -20 -47 72
v -25 -47 97
v -35 -47 101
v -45 -47 94
v -42 -55 66
v -44 -47 67
v 11 -58 93
v -13 -58 93
v -2 -55 66
v 14 -55 69
v 18 -47 71
v 15 -47 94
v -2 -47 97
v -16 -47 95
v -16 -55 69
v -19 -47 71
v 46 -58 89
v 26 -58 93
v 31 -55 66
v 44 -55 67
v 46 -47 69
v 48 -47 91
v 36 -47 97
v 23 -47 95
v 22 -55 72
v 21 -47 73
v 45 -55 113
v 37 -55 115
v 37 -55 98
v 45 -55 99
v 47 -47 102
v 47 -47 115
v 41 -47 119
v 35 -47 117
v 32 -55 102
v 31 -47 106
v -12 -55 118
v -30 -55 120
v -21 -55 97
v -9 -55 99
v -6 -47 101
v -7 -47 121
v -19 -47 126
v -31 -47 121
v -32 -55 102
v -34 -47 105

f 1 2 3
f 1 3 4
f 1 4 5
f 1 5 6
f 1 6 7
f 1 7 2
f 2 7 8
f 2 8 9
f 2 9 3
f 8 10 9
f 11 12 13
f 11 13 14
f 11 14 15
f 11 15 16
f 11 16 17
f 11 17 12
f 12 17 18
f 12 18 19
f 12 19 13
f 18 20 19
f 21 22 23
f 21 23 24
f 21 24 25
f 21 25 26
f 21 26 27
f 21 27 22
f 22 27 28
f 22 28 29
f 22 29 23
f 28 30 29
f 31 32 33
f 31 33 34
f 31 34 35
f 31 35 36
f 31 36 37
f 31 37 32
f 32 37 38
f 32 38 39
f 32 39 33
f 38 40 39
f 41 42 43
f 41 43 44
f 41 44 45
f 41 45 46
f 41 46 47
f 41 47 42
f 42 47 48
f 42 48 49
f 42 49 43
f 48 50 49
f 51 52 53
f 51 53 54
f 51 54 55
f 51 55 56
f 51 56 57
f 51 57 52
f 52 57 58
f 52 58 59
f 52 59 53
f 58 60 59
f 61 62 63
f 61 63 64
f 61 64 65
f 61 65 66
f 61 66 67
f 61 67 62
f 62 67 68
f 62 68 69
f 62 69 63
f 68 70 69
f 71 72 73
f 71 73 74
f 71 74 75
f 71 75 76
f 71 76 77
f 71 77 72
f 72 77 78
f 72 78 79
f 72 79 73
f 78 80 79
f 81 82 83
f 81 83 84
f 81 84 85
f 81 85 86
f 81 86 87
f 81 87 82
f 82 87 88
f 82 88 89
f 82 89 83
f 88 90 89
f 91 92 93
f 91 93 94
f 91 94 95
f 91 95 96
f 91 96 97
f 91 97 92
f 92 97 98
f 92 98 99
f 92 99 93
f 98 100 99
f 101 102 103
f 101 103 104
f 101 104 105
f 101 105 106
f 101 106 107
f 101 107 102
f 102 107 108
f 102 108 109
f 102 109 103
f 108 110 109
f 111 112 113
f 111 113 114
f 111 114 115
f 111 115 116
f 111 116 117
f 111 117 112
f 112 117 118
f 112 118 119
f 112 119 113
f 118 120 119
f 121 122 123
f 121 123 124
f 121 124 125
f 121 125 126
f 121 126 127
f 121 127 122
f 122 127 128
f 122 128 129
f 122 129 123
f 128 130 129
f 131 132 133
f 131 133 134
f 131 134 135
f 131 135 136
f 131 136 137
f 131 137 138
f 131 138 132
f 132 138 139
f 132 139 140
f 132 140 141
f 132 141 142
f 132 142 143
f 132 143 144
f 132 144 145
f 132 145 146
f 132 146 133
f 133 146 147
f 133 147 148
f 133 148 149
f 133 149 134
f 134 149 150
f 134 150 151
f 134 151 152
f 134 152 153
f 134 153 135
f 135 153 154
f 135 154 155
f 135 155 136
f 136 155 156
f 136 156 137
f 137 156 157
f 137 157 154
f 137 154 158
f 137 158 159
f 137 159 138
f 138 159 160
f 138 160 161
f 138 161 139
f 139 161 162
f 139 162 140
f 140 162 163
f 140 163 164
f 140 164 165
f 140 165 166
f 140 166 141
f 141 166 167
f 141 167 168
f 141 168 142
f 142 168 169
f 142 169 170
f 142 170 143
f 143 170 171
f 143 171 172
f 143 172 173
f 143 173 174
f 143 174 144
f 144 174 175
f 144 175 176
f 144 176 177
f 144 177 178
f 178 177 179
f 178 179 180
f 178 180 181
f 178 181 146
f 146 181 147
f 147 181 182
f 147 182 150
f 147 150 183
f 147 183 184
f 147 184 148
f 148 184 185
f 148 185 149
f 149 185 186
f 149 186 150
f 150 186 183
f 183 186 187
f 183 187 184
f 184 187 188
f 184 188 185
f 185 188 186
f 186 188 187
f 189 190 191
f 189 191 192
f 189 192 193
f 189 193 194
f 189 194 190
f 190 194 195
f 190 195 191
f 191 195 196
f 191 196 197
f 191 197 192
f 192 197 198
f 192 198 158
f 192 158 199
f 192 199 200
f 192 200 193
f 193 200 201
f 193 201 160
f 193 160 202
f 193 202 203
f 193 203 194
f 194 203 196
f 194 196 195
f 158 198 159
f 159 198 202
f 159 202 160
f 204 205 206
f 204 206 180
f 204 180 207
f 204 207 208
f 204 208 205
f 205 208 209
f 205 209 206
f 206 209 210
f 206 210 211
f 206 211 180
f 180 211 181
f 181 211 212
f 181 212 182
f 182 212 207
f 182 207 213
f 182 213 150
f 150 213 151
f 151 213 214
f 151 214 152
f 152 214 173
f 152 173 153
f 153 173 169
f 153 169 168
f 153 168 167
f 153 167 163
f 153 163 162
f 153 162 161
f 153 161 154
f 154 161 201
f 154 201 158
f 158 201 199
f 199 201 200
f 174 215 175
f 175 215 216
f 175 216 217
f 175 217 176
f 176 217 218
f 176 218 177
f 177 218 219
f 177 219 179
f 179 219 220
f 179 220 221
f 179 221 222
f 179 222 223
f 179 223 180
f 180 223 224
f 180 224 207
f 207 224 220
f 207 220 213
f 213 220 219
f 213 219 214
f 214 219 218
f 214 218 217
f 214 217 225
f 214 225 173
f 173 225 174
f 174 225 215
f 215 225 216
f 216 225 217
f 221 226 222
f 222 226 227
f 222 227 228
f 222 228 223
f 223 228 224
f 224 228 229
f 224 229 220
f 220 229 221
f 221 229 226
f 226 229 227
f 227 229 228
f 164 230 165
f 165 230 231
f 165 231 232
f 165 232 166
f 166 232 167
f 167 232 233
f 167 233 163
f 163 233 164
f 164 233 230
f 230 233 231
f 231 233 232
f 234 235 171
f 234 171 170
f 234 170 236
f 234 236 237
f 234 237 235
f 235 237 238
f 235 238 171
f 171 238 172
f 172 238 237
f 172 237 173
f 173 237 236
f 173 236 169
f 169 236 170
f 197 196 203
f 197 203 198
f 198 203 202
f 156 155 157
f 157 155 154
f 211 210 212
f 212 210 208
f 212 208 207
f 161 160 201
f 210 209 208
f 239 240 241
f 239 241 242
f 239 242 243
f 239 243 244
f 239 244 245
f 239 245 246
f 239 246 247
f 239 247 240
f 240 247 241
f 241 247 248
f 249 250 251
f 249 251 252
f 249 252 253
f 249 253 254
f 249 254 255
f 249 255 256
f 249 256 257
f 249 257 250
f 250 257 251
f 251 257 258
f 259 260 261
f 259 261 262
f 259 262 263
f 259 263 264
f 259 264 265
f 259 265 266
f 259 266 26
f 259 26 260
f 260 26 261
f 261 26 267
f 268 269 270
f 268 270 271
f 268 271 272
f 268 272 273
f 268 273 274
f 268 274 275
f 268 275 276
f 268 276 269
f 269 276 270
f 270 276 277
f 278 279 280
f 278 280 281
f 278 281 282
f 278 282 283
f 278 283 284
f 278 284 285
f 278 285 286
f 278 286 279
f 279 286 280
f 280 286 287
f 288 289 290
f 288 290 291
f 288 291 292
f 288 292 293
f 288 293 294
f 288 294 295
f 288 295 296
f 288 296 289
f 289 296 290
f 290 296 297
f 298 299 300
f 298 300 301
f 298 301 302
f 298 302 303
f 298 303 304
f 298 304 305
f 298 305 306
f 298 306 299
f 299 306 300
f 300 306 307
f 308 309 310
f 308 310 311
f 308 311 312
f 308 312 313
f 308 313 314
f 308 314 315
f 308 315 316
f 308 316 309
f 309 316 310
f 310 316 317
f 318 319 320
f 318 320 321
f 318 321 322
f 318 322 323
f 318 323 324
f 318 324 325
f 318 325 326
f 318 326 319
f 319 326 320
f 320 326 327
f 328 329 330
f 328 330 331
f 328 331 332
f 328 332 333
f 328 333 334
f 328 334 335
f 328 335 336
f 328 336 329
f 329 336 330
f 330 336 337
f 338 339 340
f 338 340 341
f 338 341 342
f 338 342 343
f 338 343 344
f 338 344 345
f 338 345 346
f 338 346 339
f 339 346 340
f 340 346 347
f 348 349 350
f 348 350 351
f 348 351 352
f 348 352 353
f 348 353 354
f 348 354 349
f 349 354 355
f 349 355 356
f 349 356 350
f 355 357 356
f 358 359 360
f 358 360 361
f 358 361 362
f 358 362 363
f 358 363 364
f 358 364 359
f 359 364 365
f 359 365 366
f 359 366 360
f 365 367 366
f 368 369 370
f 368 370 371
f 368 371 372
f 368 372 373
f 368 373 374
f 368 374 369
f 369 374 375
f 369 375 376
f 369 376 370
f 375 377 376
f 378 379 380
f 378 380 381
f 378 381 382
f 378 382 383
f 378 383 384
f 378 384 379
f 379 384 385
f 379 385 386
f 379 386 380
f 385 387 386
f 388 389 390
f 388 390 391
f 388 391 392
f 388 392 393
f 388 393 394
f 388 394 389
f 389 394 395
f 389 395 396
f 389 396 390
f 395 397 396
