# RS2 Model 17672
# Vertices: 104
# Faces: 110

v 4 -4 7
v 5 0 2
v 0 -1 2
v 0 -9 2
v 8 -5 2
v 2 5 8
v 9 2 3
v 8 8 3
v -1 8 3
v 0 0 3
v -6 -1 5
v -4 4 2
v -9 0 2
v -7 -6 2
v 12 4 12
v 13 9 10
v 10 8 8
v 13 0 8
v 16 4 12
v 0 -12 12
v 3 -12 10
v 2 -11 8
v 0 -11 8
v 0 -13 12
v -4 7 10
v -4 11 6
v -10 9 8
v -9 1 7
v -2 5 5
v 3 12 12
v 7 16 11
v 2 16 8
v 4 9 4
v 8 11 9
v 0 -6 8
v 0 -6 3
v -6 -6 5
v -5 -12 10
v 1 -11 7
v -8 -4 11
v -8 0 7
v -13 -1 8
v -12 -9 8
v -5 -5 6
v 14 -2 12
v 14 1 8
v 8 0 8
v 9 -8 8
v 16 -4 7
v 1 -6 17
v 1 0 10
v -7 -3 12
v -6 -13 12
v 5 -8 9
v 0 7 16
v 4 12 8
v -4 16 10
v -12 5 9
v 0 3 8
v 10 -8 16
v 16 -3 12
v 7 -5 8
v 10 -15 8
v 18 -10 12
v -9 5 16
v -12 10 9
v -18 8 13
v -16 0 12
v -8 4 8
v 0 -19 0
v 0 -30 18
v -22 -20 20
v -12 -12 0
v -32 0 22
v -19 0 0
v -22 20 20
v -12 12 0
v 0 30 18
v 0 18 0
v 21 20 18
v 13 12 0
v 32 0 18
v 20 0 0
v 21 -20 18
v 13 -12 0
v 9 8 2
v 0 12 2
v -8 8 2
v -12 0 2
v -7 -8 2
v 0 -10 2
v 7 -8 2
v 12 0 2
v 27 0 18
v 18 16 18
v 0 25 18
v -18 16 20
v -27 0 21
v -18 -16 20
v 0 -25 18
v 18 -16 18
v -14 4 2
v -5 -14 2
v 5 14 2

f 1 2 3
f 1 3 4
f 1 4 5
f 1 5 2
f 6 7 8
f 6 8 9
f 6 9 10
f 6 10 7
f 11 4 12
f 11 12 13
f 11 13 14
f 11 14 4
f 15 16 17
f 15 17 18
f 15 18 19
f 15 19 16
f 20 21 22
f 20 22 23
f 20 23 24
f 20 24 21
f 25 26 27
f 25 27 28
f 25 28 29
f 25 29 26
f 30 31 32
f 30 32 33
f 30 33 34
f 30 34 31
f 35 36 37
f 35 37 38
f 35 38 39
f 35 39 36
f 40 41 42
f 40 42 43
f 40 43 44
f 40 44 41
f 45 46 47
f 45 47 48
f 45 48 49
f 45 49 46
f 50 51 52
f 50 52 53
f 50 53 54
f 50 54 51
f 55 56 57
f 55 57 58
f 55 58 59
f 55 59 56
f 60 61 62
f 60 62 63
f 60 63 64
f 60 64 61
f 65 66 67
f 65 67 68
f 65 68 69
f 65 69 66
f 70 71 72
f 70 72 73
f 73 72 74
f 73 74 75
f 75 74 76
f 75 76 77
f 77 76 78
f 77 78 79
f 79 78 80
f 79 80 81
f 81 80 82
f 81 82 83
f 83 82 84
f 83 84 85
f 85 84 71
f 85 71 70
f 86 87 88
f 86 88 89
f 86 89 90
f 86 90 91
f 86 91 92
f 86 92 93
f 86 93 94
f 86 94 95
f 86 95 87
f 87 95 96
f 87 96 88
f 88 96 97
f 88 97 89
f 89 97 98
f 89 98 90
f 90 98 99
f 90 99 91
f 91 99 100
f 91 100 92
f 92 100 101
f 92 101 93
f 93 101 94
f 94 101 84
f 94 84 82
f 94 82 80
f 94 80 95
f 95 80 78
f 95 78 96
f 96 78 76
f 96 76 97
f 97 76 98
f 98 76 74
f 98 74 99
f 99 74 72
f 99 72 100
f 100 72 71
f 100 71 101
f 101 71 84
