# RS2 Model 17677
# Vertices: 47
# Faces: 39

v -49 49 107
v -46 50 119
v -47 42 117
v -46 49 128
v -49 38 125
v -57 49 137
v -59 40 134
v -65 44 136
v -50 27 112
v -49 30 120
v -53 26 121
v -56 28 131
v -56 45 134
v -62 38 137
v -58 44 138
v -64 45 132
v -64 39 132
v -57 33 138
v -52 30 138
v -52 42 138
v -48 28 130
v -47 37 130
v -45 29 118
v -45 34 113
v -49 34 99
v -63 47 141
v -64 45 133
v -64 39 135
v -58 38 144
v -53 38 147
v -58 48 144
v -45 39 141
v -48 47 139
v -39 41 131
v -39 45 125
v -37 43 111
v -56 56 137
v -64 49 134
v -64 42 135
v -59 46 140
v -52 47 135
v -51 58 133
v -50 52 126
v -49 61 125
v -55 51 113
v -52 57 114
v -61 49 99

f 1 2 3
f 3 2 4
f 3 4 5
f 5 4 6
f 5 6 7
f 7 6 8
f 9 10 11
f 11 10 5
f 11 5 12
f 12 5 13
f 12 13 14
f 14 13 8
f 15 16 17
f 15 17 18
f 15 18 19
f 15 19 20
f 20 19 21
f 20 21 22
f 22 21 23
f 22 23 24
f 24 23 25
f 26 27 28
f 26 28 29
f 26 29 30
f 26 30 31
f 31 30 32
f 31 32 33
f 33 32 34
f 33 34 35
f 35 34 36
f 37 38 39
f 37 39 40
f 37 40 41
f 37 41 42
f 42 41 43
f 42 43 44
f 44 43 45
f 44 45 46
f 46 45 47
