# RS2 Model 17706
# Vertices: 46
# Faces: 69

v -52 48 74
v -63 51 72
v -64 48 0
v -52 44 0
v -48 64 119
v -50 48 118
v -48 0 58
v -50 -46 117
v -52 -45 39
v -48 -64 119
v -52 -45 0
v -63 -49 36
v -64 -48 0
v -64 -64 119
v -63 -49 60
v -64 0 56
v -64 0 85
v -63 51 107
v -64 64 119
v -64 64 0
v -64 -64 0
v -48 -64 240
v -64 -64 240
v -63 -48 117
v -56 -49 60
v -53 0 87
v -56 51 107
v -56 50 117
v -63 50 118
v -64 48 240
v -64 64 240
v -48 64 0
v -56 41 240
v -56 -42 240
v -48 -48 240
v -48 48 240
v -48 64 240
v -64 -48 240
v -56 -46 116
v -48 -64 0
v -18 20 240
v -93 20 240
v -18 -21 240
v -30 -36 240
v -30 39 240
v -65 -37 240

f 1 2 3
f 1 3 4
f 1 4 5
f 1 5 6
f 1 6 7
f 7 6 8
f 7 8 9
f 9 8 10
f 9 10 11
f 9 11 12
f 12 11 13
f 12 13 14
f 12 14 15
f 12 15 16
f 16 15 17
f 16 17 2
f 2 17 18
f 2 18 19
f 2 19 20
f 2 20 3
f 14 13 21
f 14 21 10
f 14 10 22
f 14 22 23
f 14 23 24
f 14 24 15
f 15 24 25
f 15 25 17
f 17 25 26
f 17 26 18
f 18 26 27
f 18 27 28
f 18 28 29
f 18 29 19
f 19 29 30
f 19 30 31
f 19 31 5
f 19 5 32
f 19 32 20
f 33 30 29
f 33 29 28
f 33 28 34
f 33 34 35
f 33 35 36
f 33 36 37
f 33 37 30
f 30 37 31
f 31 37 5
f 5 37 6
f 6 37 36
f 6 36 8
f 8 36 35
f 8 35 10
f 10 35 22
f 22 35 34
f 22 34 23
f 23 34 38
f 23 38 24
f 24 38 34
f 24 34 39
f 24 39 25
f 25 39 26
f 26 39 27
f 27 39 28
f 28 39 34
f 10 40 11
f 40 10 21
f 5 4 32
f 41 42 43
