# RS2 Model 1771
# Vertices: 291
# Faces: 401

v -65 -48 120
v -65 -48 96
v -65 -56 104
v -65 -56 120
v -37 -28 84
v -37 -32 68
v -37 -20 68
v -37 -24 84
v -37 -20 84
v -37 -16 68
v -37 -12 68
v -37 -8 84
v -37 -4 84
v -37 -8 68
v -37 4 68
v -37 0 84
v -37 4 84
v -37 8 68
v -37 12 68
v -37 16 84
v -37 20 84
v -37 16 68
v -37 28 68
v -37 24 84
v -37 -52 84
v -37 -64 84
v -37 -64 80
v -37 -56 80
v -37 -52 68
v -37 -56 72
v -37 -64 72
v -37 -64 68
v -37 -52 88
v -37 -52 97
v -37 -56 97
v -37 -56 92
v -37 -64 92
v -37 -64 88
v -37 -56 60
v -37 -56 56
v -37 -52 56
v -37 -52 64
v -37 -64 64
v -37 -64 60
v -46 -52 97
v -46 -56 97
v -32 64 240
v -32 64 0
v -64 64 0
v -64 64 240
v -64 16 416
v -32 16 416
v -32 52 240
v -32 52 0
v -38 52 96
v -38 52 56
v -48 52 0
v -48 52 56
v -46 52 96
v -38 52 188
v -46 52 188
v -46 40 188
v -46 40 184
v -46 52 184
v -46 52 196
v -38 52 196
v -48 52 240
v -32 0 416
v -48 0 416
v -48 -64 240
v -48 -64 0
v -64 -64 240
v -64 -64 0
v -38 40 188
v -38 32 180
v -46 32 180
v -46 32 176
v -38 16 196
v -38 16 188
v -38 24 180
v -38 40 196
v -38 32 204
v -38 24 204
v -46 16 196
v -46 16 188
v -46 24 180
v -46 40 196
v -46 32 204
v -38 32 240
v -38 24 240
v -46 24 240
v -46 24 204
v -46 20 204
v -46 12 196
v -46 12 188
v -46 24 176
v -46 40 200
v -46 36 204
v -46 32 240
v -38 32 252
v -38 24 252
v -46 24 252
v -46 20 240
v -46 52 200
v -46 36 240
v -46 32 252
v -46 40 260
v -38 40 260
v -38 16 268
v -38 16 260
v -46 16 260
v -46 16 256
v -46 20 252
v -46 12 96
v -46 12 120
v -38 12 120
v -38 12 96
v -38 4 96
v -38 4 120
v -46 4 120
v -46 4 96
v -46 0 100
v -46 0 120
v -46 -8 128
v -46 -4 128
v -46 -8 136
v -46 -4 136
v -46 4 148
v -46 4 144
v -46 12 148
v -46 12 144
v -46 24 136
v -46 20 136
v -46 20 128
v -46 24 128
v -46 16 120
v -46 16 100
v -38 20 128
v -38 20 136
v -38 12 144
v -38 4 144
v -38 -4 136
v -38 -4 128
v -38 -64 96
v -38 -64 56
v -46 -64 96
v -46 -64 56
v -38 -64 164
v -38 -60 164
v -38 -60 172
v -38 -64 188
v -46 -64 164
v -46 -64 188
v -38 -60 188
v -46 -60 188
v -38 -60 180
v -46 -60 180
v -46 -32 180
v -46 -32 184
v -46 -56 184
v -38 -32 180
v -38 -24 188
v -46 -24 188
v -46 -28 188
v -46 -60 164
v -46 -60 172
v -38 -32 172
v -38 -8 172
v -38 -16 188
v -38 -16 240
v -38 -24 240
v -46 -24 240
v -46 -28 240
v -46 -28 292
v -46 -24 292
v -46 -36 300
v -48 -32 300
v -46 -32 308
v -48 -36 308
v -46 -24 320
v -46 -24 316
v -46 -16 320
v -46 -16 316
v -46 -8 312
v -46 -8 308
v -46 32 308
v -46 28 312
v -46 -32 172
v -46 -24 164
v -38 -24 164
v -38 -16 164
v -46 -8 172
v -46 -8 180
v -38 -8 180
v -46 -16 188
v -46 -16 240
v -38 -16 260
v -38 -16 268
v -38 -24 292
v -46 -56 168
v -46 -32 168
v -46 -24 160
v -46 -16 164
v -46 -16 160
v -46 -4 172
v -46 -4 180
v -46 -12 188
v -46 -12 240
v -46 -12 256
v -46 -16 260
v -46 16 268
v -46 -16 268
v -38 -16 292
v -38 -32 308
v -38 -32 300
v -46 -16 292
v -46 -8 300
v -38 -8 300
v -38 -8 308
v -38 -16 316
v -38 -24 316
v -38 -64 44
v -46 -64 44
v -46 -64 20
v -38 -64 20
v -38 -60 36
v -38 -60 44
v -46 -60 44
v -46 -60 36
v -46 -12 36
v -46 -12 40
v -46 -56 40
v -38 -60 20
v -38 -60 28
v -38 -12 28
v -38 -12 36
v -38 -4 44
v -46 -4 44
v -46 -4 48
v -46 -60 28
v -46 -12 28
v -46 -4 20
v -38 -4 20
v -38 4 20
v -38 12 28
v -38 12 36
v -38 4 44
v -46 4 44
v -46 4 48
v -46 -60 20
v -46 8 4
v -46 8 20
v -46 4 20
v -46 4 0
v -38 4 0
v -38 -4 0
v -46 -4 0
v -46 -8 20
v -46 -8 4
v -46 16 28
v -46 12 28
v -46 12 36
v -46 16 36
v -46 -56 24
v -46 -12 24
v -48 -64 528
v -64 -64 528
v -48 -64 496
v -32 -64 528
v -32 -64 496
v -38 40 268
v -38 32 276
v -38 24 276
v -46 24 276
v -46 24 280
v -46 16 272
v -46 -12 272
v -46 -12 292
v -46 40 268
v -46 32 276
v -46 36 252
v -46 44 260
v -46 44 268
v -46 32 280
v -38 32 308
v -38 36 300
v -46 36 300
v -46 -8 296
v -46 32 296
v 64 -64 240
v 64 -64 0

f 1 2 3
f 1 3 4
f 5 6 7
f 5 7 8
f 9 10 11
f 9 11 12
f 13 14 15
f 13 15 16
f 17 18 19
f 17 19 20
f 21 22 23
f 21 23 24
f 25 26 27
f 25 27 28
f 25 28 29
f 29 28 30
f 29 30 31
f 29 31 32
f 33 34 35
f 33 35 36
f 33 36 37
f 33 37 38
f 39 40 41
f 39 41 42
f 39 42 43
f 39 43 44
f 35 34 45
f 35 45 46
f 47 48 49
f 47 49 50
f 47 50 51
f 47 51 52
f 47 52 53
f 47 53 48
f 48 53 54
f 54 53 55
f 54 55 56
f 54 56 57
f 57 56 58
f 59 55 60
f 59 60 61
f 61 60 62
f 61 62 63
f 61 63 64
f 65 66 53
f 65 53 67
f 67 53 68
f 67 68 69
f 67 69 70
f 67 70 57
f 57 70 71
f 71 70 72
f 71 72 73
f 73 72 50
f 73 50 49
f 53 60 55
f 60 53 66
f 60 66 74
f 60 74 62
f 62 74 75
f 62 75 76
f 62 76 77
f 62 77 63
f 78 79 80
f 78 80 75
f 78 75 74
f 78 74 81
f 78 81 82
f 78 82 83
f 78 83 84
f 78 84 85
f 78 85 79
f 79 85 86
f 79 86 80
f 81 87 88
f 81 88 82
f 82 88 89
f 82 89 83
f 83 89 90
f 83 90 91
f 83 91 92
f 83 92 84
f 84 92 93
f 84 93 94
f 84 94 85
f 85 94 95
f 85 95 86
f 86 95 96
f 86 96 77
f 86 77 76
f 81 66 65
f 81 65 87
f 87 65 97
f 87 97 88
f 88 97 98
f 88 98 99
f 88 99 89
f 89 99 100
f 89 100 101
f 89 101 90
f 90 101 102
f 90 102 91
f 91 102 103
f 91 103 92
f 92 103 93
f 74 66 81
f 97 65 104
f 98 105 99
f 99 105 106
f 99 106 100
f 100 106 107
f 100 107 108
f 100 108 109
f 100 109 101
f 101 109 110
f 101 110 102
f 102 110 111
f 102 111 112
f 102 112 113
f 102 113 103
f 114 115 116
f 114 116 117
f 117 116 118
f 118 116 119
f 118 119 120
f 118 120 121
f 121 120 122
f 122 120 123
f 123 120 124
f 124 120 125
f 124 125 126
f 126 125 127
f 126 127 128
f 128 127 129
f 128 129 130
f 130 129 131
f 130 131 132
f 132 131 133
f 132 133 134
f 132 134 135
f 135 134 136
f 136 134 115
f 136 115 137
f 137 115 114
f 138 139 140
f 138 140 141
f 138 141 142
f 138 142 143
f 138 143 119
f 138 119 116
f 138 116 134
f 138 134 133
f 138 133 139
f 139 133 131
f 139 131 140
f 140 131 129
f 140 129 141
f 141 129 127
f 141 127 142
f 142 127 125
f 142 125 143
f 143 125 120
f 143 120 119
f 116 115 134
f 55 144 145
f 55 145 56
f 59 146 144
f 59 144 55
f 147 145 144
f 147 144 146
f 148 149 150
f 148 150 151
f 148 151 152
f 152 151 153
f 153 151 154
f 153 154 155
f 155 154 156
f 155 156 157
f 157 156 158
f 157 158 159
f 157 159 160
f 156 154 150
f 156 150 161
f 156 161 158
f 158 161 162
f 158 162 163
f 158 163 164
f 158 164 159
f 156 151 150
f 151 156 154
f 149 165 166
f 149 166 150
f 150 166 167
f 150 167 161
f 161 167 168
f 161 168 162
f 162 168 169
f 162 169 170
f 162 170 171
f 162 171 172
f 162 172 163
f 163 172 164
f 164 172 173
f 173 172 174
f 174 172 175
f 174 175 176
f 176 175 177
f 176 177 178
f 176 178 179
f 179 178 180
f 180 178 181
f 180 181 182
f 182 181 183
f 182 183 184
f 184 183 185
f 184 185 186
f 184 186 187
f 166 188 167
f 167 188 189
f 167 189 190
f 167 190 168
f 168 190 191
f 168 191 192
f 168 192 193
f 168 193 194
f 168 194 169
f 169 194 195
f 169 195 170
f 170 195 196
f 170 196 197
f 170 197 171
f 171 197 198
f 171 198 199
f 171 199 175
f 171 175 172
f 166 200 201
f 166 201 188
f 188 201 189
f 189 201 202
f 189 202 203
f 203 202 204
f 203 204 192
f 203 192 191
f 204 205 192
f 192 205 206
f 192 206 193
f 193 206 195
f 193 195 194
f 206 207 195
f 195 207 196
f 196 207 208
f 196 208 209
f 196 209 210
f 196 210 197
f 197 210 110
f 197 110 198
f 198 110 109
f 198 109 211
f 198 211 212
f 198 212 213
f 198 213 199
f 199 213 214
f 199 214 215
f 199 215 175
f 199 175 216
f 199 216 213
f 213 216 217
f 213 217 218
f 213 218 214
f 214 218 219
f 214 219 220
f 214 220 221
f 214 221 178
f 214 178 177
f 214 177 215
f 215 177 175
f 169 195 163
f 169 163 162
f 222 223 224
f 222 224 225
f 222 225 226
f 222 226 227
f 222 227 223
f 223 227 228
f 228 227 226
f 228 226 229
f 229 226 230
f 229 230 231
f 229 231 232
f 226 233 234
f 226 234 235
f 226 235 236
f 226 236 230
f 230 236 237
f 230 237 238
f 230 238 239
f 230 239 231
f 226 225 234
f 234 225 233
f 234 233 240
f 234 240 235
f 235 240 241
f 235 241 242
f 235 242 243
f 235 243 236
f 236 243 244
f 236 244 245
f 236 245 246
f 236 246 247
f 236 247 237
f 237 247 238
f 238 247 248
f 238 248 249
f 238 249 239
f 233 250 240
f 251 252 253
f 251 253 254
f 254 253 244
f 254 244 255
f 255 244 243
f 255 243 256
f 256 243 242
f 256 242 257
f 257 242 258
f 257 258 259
f 252 260 261
f 252 261 253
f 253 261 244
f 244 261 245
f 245 261 262
f 245 262 246
f 246 262 248
f 246 248 247
f 260 263 262
f 260 262 261
f 263 249 248
f 263 248 262
f 241 240 264
f 241 264 265
f 241 265 258
f 241 258 242
f 266 267 268
f 266 268 269
f 266 269 52
f 266 52 51
f 266 51 267
f 267 51 72
f 267 72 268
f 268 72 70
f 268 70 69
f 268 69 270
f 268 270 269
f 269 270 52
f 52 270 68
f 52 68 53
f 51 50 72
f 109 108 271
f 109 271 272
f 109 272 273
f 109 273 211
f 211 273 274
f 211 274 275
f 211 275 276
f 211 276 212
f 212 276 277
f 212 277 278
f 212 278 216
f 212 216 213
f 271 279 280
f 271 280 272
f 272 280 274
f 272 274 273
f 110 210 111
f 111 210 209
f 111 209 112
f 105 281 106
f 106 281 107
f 107 281 282
f 107 282 283
f 107 283 279
f 279 283 280
f 280 283 284
f 280 284 274
f 274 284 275
f 69 68 270
f 186 185 219
f 186 219 285
f 285 219 218
f 285 218 286
f 286 218 217
f 286 217 287
f 287 217 288
f 287 288 289
f 278 288 217
f 278 217 216
f 219 185 183
f 219 183 220
f 220 183 221
f 221 183 181
f 221 181 178
f 72 73 50
