# RS2 Model 17788
# Vertices: 79
# Faces: 91

v -64 -22 131
v -64 21 131
v -61 -22 -4
v -23 52 103
v -51 45 76
v 48 47 29
v -47 -42 75
v -23 -56 100
v 19 -39 7
v 70 38 -10
v 70 74 -8
v -58 37 123
v -35 6 16
v -35 6 0
v -40 48 0
v -37 48 16
v -61 43 16
v -60 -49 16
v -37 -48 16
v -40 -48 0
v -64 64 0
v -64 -64 0
v -64 -64 136
v -64 -48 102
v -52 -48 101
v -47 -48 30
v -9 -64 43
v -37 -64 11
v 35 -64 12
v -1 -44 16
v -3 -48 0
v -64 64 136
v -64 48 102
v -64 4 107
v -64 4 132
v -40 48 110
v 6 49 47
v 5 64 53
v 64 48 0
v 64 64 0
v -40 4 106
v -52 4 96
v -52 48 101
v -21 51 45
v 34 43 16
v 31 48 0
v 34 -41 16
v 30 -48 0
v 64 -48 0
v 5 -58 53
v 64 -64 0
v 5 -64 53
v -40 -48 110
v 35 64 12
v -37 64 11
v -1 46 16
v -22 -52 52
v -48 -64 88
v -22 -64 52
v -9 64 43
v -2 48 0
v -47 48 30
v -22 64 52
v -48 64 88
v 32 22 6
v 30 -22 5
v -54 23 95
v -64 -62 102
v -64 -62 136
v -64 65 102
v -30 -51 114
v -57 -51 92
v -32 54 114
v 70 -71 -9
v 70 -41 -7
v -58 -72 124
v -38 67 107
v -71 67 144
v -40 -64 107

f 1 2 3
f 4 5 6
f 7 8 9
f 10 11 12
f 13 14 15
f 13 15 16
f 13 16 17
f 13 17 18
f 13 18 19
f 13 19 20
f 13 20 14
f 17 21 22
f 17 22 18
f 18 22 23
f 18 23 24
f 18 24 25
f 18 25 26
f 18 26 19
f 19 26 27
f 19 27 28
f 19 28 29
f 19 29 30
f 19 30 31
f 19 31 20
f 32 33 34
f 32 34 35
f 32 35 36
f 32 36 37
f 32 37 38
f 38 37 39
f 38 39 40
f 35 34 24
f 35 24 23
f 35 23 41
f 35 41 36
f 36 41 42
f 36 42 43
f 36 43 37
f 37 43 44
f 37 44 45
f 37 45 39
f 39 45 46
f 46 45 47
f 46 47 48
f 48 47 49
f 49 47 50
f 49 50 51
f 51 50 52
f 52 50 23
f 23 50 53
f 23 53 41
f 41 53 25
f 41 25 42
f 45 54 55
f 45 55 56
f 45 56 30
f 45 30 47
f 47 30 29
f 47 29 57
f 47 57 50
f 50 57 53
f 53 57 25
f 25 57 58
f 25 58 28
f 25 28 26
f 26 28 59
f 26 59 57
f 26 57 27
f 27 57 29
f 55 60 16
f 55 16 56
f 56 16 15
f 56 15 61
f 62 44 63
f 62 63 55
f 62 55 64
f 62 64 43
f 62 43 33
f 62 33 17
f 62 17 16
f 62 16 44
f 44 16 60
f 44 60 54
f 44 54 45
f 43 64 63
f 43 63 44
f 33 32 21
f 33 21 17
f 57 59 58
f 30 31 61
f 30 61 56
