# RS2 Model 17798
# Vertices: 82
# Faces: 94

v -48 51 240
v -60 51 240
v -60 -51 240
v -48 -51 240
v -48 26 97
v -48 50 99
v -43 50 99
v -43 26 97
v -41 50 97
v -41 26 95
v -41 50 83
v -41 25 78
v -39 -22 81
v -39 -23 97
v -41 -52 95
v -41 -52 79
v -48 -27 55
v -48 24 59
v -48 50 83
v -48 -52 79
v -48 -51 56
v -43 -27 55
v -43 24 59
v -43 50 59
v -48 50 59
v -48 -51 0
v -48 51 0
v -48 51 40
v -48 -51 40
v -41 -27 53
v -41 24 57
v -43 -51 56
v -41 -51 54
v -41 -21 38
v -41 26 40
v -41 51 40
v -41 51 54
v -41 -23 99
v -48 -23 99
v -48 -52 97
v -43 -52 97
v -60 51 16
v -60 -51 16
v -64 -64 16
v -64 -64 240
v -45 -64 240
v -38 -64 240
v -43 -51 240
v -43 -51 0
v -43 51 0
v -43 51 240
v -46 64 240
v -64 64 240
v -64 64 16
v -64 51 16
v -64 -51 16
v -64 -51 0
v -64 -64 0
v -38 -64 0
v -38 64 0
v -38 64 240
v -35 51 8
v -35 64 8
v -19 64 0
v -19 -64 0
v -35 -51 8
v -35 -64 8
v -41 -51 40
v -64 51 0
v -64 64 0
v -76 64 16
v -94 62 16
v -76 -60 16
v -40 -51 105
v -40 -48 26
v -40 48 106
v -66 -32 240
v -31 -30 240
v -66 30 240
v -25 50 69
v -60 50 84
v -26 -51 67

f 1 2 3
f 1 3 4
f 1 4 5
f 1 5 6
f 6 5 7
f 7 5 8
f 7 8 9
f 9 8 10
f 9 10 11
f 11 10 12
f 12 10 13
f 13 10 14
f 13 14 15
f 13 15 16
f 17 18 19
f 17 19 20
f 17 20 21
f 17 21 22
f 17 22 18
f 18 22 23
f 18 23 24
f 18 24 25
f 18 25 19
f 26 27 28
f 26 28 29
f 30 31 23
f 30 23 22
f 30 22 32
f 30 32 33
f 30 33 34
f 30 34 31
f 31 34 35
f 31 35 36
f 31 36 37
f 31 37 23
f 23 37 24
f 38 8 5
f 38 5 39
f 38 39 40
f 38 40 41
f 38 41 14
f 38 14 8
f 8 14 10
f 4 39 5
f 39 4 40
f 2 42 43
f 2 43 3
f 3 43 44
f 3 44 45
f 3 45 4
f 4 45 46
f 4 46 47
f 4 47 48
f 4 48 26
f 26 48 49
f 26 49 27
f 27 49 50
f 27 50 1
f 1 50 51
f 1 51 52
f 1 52 2
f 2 52 53
f 2 53 42
f 42 53 54
f 42 54 55
f 42 55 43
f 43 55 56
f 43 56 44
f 44 56 57
f 44 57 58
f 47 59 49
f 47 49 48
f 60 61 51
f 60 51 50
f 60 50 62
f 60 62 63
f 63 62 64
f 64 62 65
f 65 62 66
f 65 66 67
f 67 66 49
f 67 49 59
f 51 61 52
f 14 41 15
f 22 21 32
f 34 33 68
f 56 55 69
f 56 69 57
f 55 54 70
f 55 70 69
f 66 62 50
f 66 50 49
f 71 72 73
f 74 75 76
