# RS2 Model 17829
# Vertices: 80
# Faces: 90

v -48 51 240
v -60 51 240
v -60 -51 240
v -48 -34 240
v -48 26 97
v -48 50 99
v -43 50 99
v -43 26 97
v -41 50 97
v -41 26 95
v -41 50 83
v -41 25 78
v -39 -3 81
v -39 -4 97
v -41 -35 95
v -41 -35 79
v -48 -8 55
v -48 24 59
v -48 50 83
v -48 -35 79
v -48 -34 56
v -43 -8 55
v -43 24 59
v -43 50 59
v -48 50 59
v -48 -34 0
v -48 51 0
v -48 51 40
v -48 -34 40
v -41 -8 53
v -41 24 57
v -43 -34 56
v -41 -34 54
v -41 -2 38
v -41 26 40
v -41 51 40
v -41 51 54
v -41 -4 99
v -48 -4 99
v -48 -35 97
v -43 -35 97
v -60 51 16
v -60 -51 16
v -64 -64 16
v -64 -64 240
v -45 -45 240
v -38 -38 240
v -43 -34 240
v -43 -34 0
v -38 -38 0
v -64 64 240
v -64 64 16
v -64 51 16
v -64 -51 16
v -64 -51 0
v -64 -64 0
v -38 64 0
v -38 64 240
v -43 51 240
v -43 51 0
v -35 51 8
v -35 64 8
v -19 64 0
v -19 -19 0
v -35 -35 8
v -43 -43 0
v -48 -48 0
v -46 64 240
v -41 -34 40
v -64 51 0
v -64 64 0
v -67 65 16
v -85 64 16
v -68 -60 16
v -30 70 240
v -66 70 240
v -31 -57 240
v -29 50 70
v -56 50 83
v -30 -32 68

f 1 2 3
f 1 3 4
f 1 4 5
f 1 5 6
f 6 5 7
f 7 5 8
f 7 8 9
f 9 8 10
f 9 10 11
f 11 10 12
f 12 10 13
f 13 10 14
f 13 14 15
f 13 15 16
f 17 18 19
f 17 19 20
f 17 20 21
f 17 21 22
f 17 22 18
f 18 22 23
f 18 23 24
f 18 24 25
f 18 25 19
f 26 27 28
f 26 28 29
f 30 31 23
f 30 23 22
f 30 22 32
f 30 32 33
f 30 33 34
f 30 34 31
f 31 34 35
f 31 35 36
f 31 36 37
f 31 37 23
f 23 37 24
f 38 8 5
f 38 5 39
f 38 39 40
f 38 40 41
f 38 41 14
f 38 14 8
f 8 14 10
f 4 39 5
f 39 4 40
f 2 42 43
f 2 43 3
f 3 43 44
f 3 44 45
f 3 45 4
f 4 45 46
f 4 46 47
f 4 47 48
f 4 48 26
f 26 48 49
f 49 48 47
f 49 47 50
f 42 2 51
f 42 51 52
f 42 52 53
f 42 53 43
f 43 53 54
f 43 54 44
f 44 54 55
f 44 55 56
f 57 58 59
f 57 59 60
f 57 60 61
f 57 61 62
f 62 61 63
f 63 61 64
f 64 61 65
f 65 61 60
f 65 60 66
f 66 60 27
f 66 27 67
f 1 27 60
f 1 60 59
f 1 59 68
f 1 68 2
f 2 68 51
f 59 58 68
f 14 41 15
f 22 21 32
f 34 33 69
f 54 53 70
f 54 70 55
f 53 52 71
f 53 71 70
f 72 73 74
