# RS2 Model 17851
# Vertices: 233
# Faces: 345

v -36 -87 5
v -37 -126 5
v 35 -88 5
v 39 104 69
v 37 114 69
v 38 113 99
v 40 105 99
v 32 104 82
v 29 104 69
v 29 114 69
v 32 114 82
v 32 113 99
v 41 113 149
v 41 105 149
v 32 105 99
v -37 104 82
v -34 104 69
v -44 -83 69
v 40 -83 69
v 41 116 69
v -34 114 69
v -37 114 82
v -37 105 99
v -44 104 69
v -42 114 69
v -37 113 99
v -33 113 149
v -33 105 149
v -41 105 149
v -45 105 99
v -46 116 69
v -43 113 99
v -41 113 149
v -44 -83 57
v 40 -83 57
v 41 116 57
v -46 116 57
v 38 -81 57
v 48 -90 0
v 48 -72 0
v 38 -72 57
v 38 -72 0
v 29 -72 57
v 29 -81 57
v 38 -90 0
v -42 -81 57
v -52 -90 0
v -42 -90 0
v -33 -81 57
v -42 -72 0
v -33 -72 57
v -42 -72 57
v -52 -72 0
v 39 113 57
v 49 113 0
v 39 113 0
v 30 113 57
v 39 105 0
v 30 105 57
v 39 105 57
v 49 105 0
v -44 113 57
v -54 113 0
v -54 105 0
v -44 105 57
v -44 105 0
v -35 105 57
v -35 113 57
v -44 113 0
v -1 95 82
v -24 92 81
v -24 72 81
v -1 71 79
v 18 72 81
v 18 92 81
v -1 100 69
v -34 96 69
v -34 68 69
v -1 66 69
v 27 68 69
v 27 96 69
v 41 104 161
v 39 114 161
v 40 120 187
v 42 111 188
v 35 108 174
v 32 104 161
v 32 114 161
v 35 117 172
v 35 121 192
v 35 127 202
v 42 127 202
v 44 117 207
v 35 117 207
v 35 112 195
v -35 108 174
v -32 104 161
v -41 -83 161
v 42 -83 161
v 43 116 161
v -32 114 161
v -35 117 172
v -35 112 195
v -41 104 161
v -39 114 161
v -35 121 192
v -35 117 207
v -44 117 207
v -42 111 188
v -43 116 161
v -40 120 187
v -42 127 202
v -35 127 202
v -41 -83 149
v 42 -83 149
v 43 116 149
v -43 116 149
v 40 -81 149
v 40 -81 68
v 40 -72 68
v 40 -72 149
v 31 -72 68
v 32 -72 149
v 32 -81 149
v 31 -81 68
v -39 -81 149
v -39 -81 69
v -29 -81 69
v -31 -81 149
v -29 -72 69
v -31 -72 149
v -39 -72 149
v -39 -72 69
v 33 113 149
v 33 105 149
v -5 83 174
v -30 76 173
v -27 57 173
v -2 59 171
v 17 64 173
v 14 84 173
v -6 87 161
v -39 79 161
v -36 51 161
v -1 54 161
v 25 62 161
v 22 89 161
v -35 -124 5
v -35 -91 5
v -37 -88 5
v -37 -127 5
v 33 -124 5
v 33 -124 13
v -35 -124 13
v -35 -91 13
v 33 -91 5
v 35 -88 0
v -37 -88 0
v -37 -127 0
v 35 -127 5
v 33 -91 13
v 33 -91 20
v 33 -124 20
v -35 -124 20
v -35 -91 20
v 35 -127 0
v -35 -124 24
v -35 -91 24
v 33 -91 24
v 33 -124 24
v 35 -127 24
v 35 -88 24
v 35 -88 29
v 35 -127 29
v -37 -127 24
v -37 -127 29
v -37 -88 24
v -37 -88 29
v 30 36 162
v 7 31 162
v 8 13 167
v 29 7 162
v 0 -14 162
v 22 -14 162
v 16 -58 164
v 29 -65 162
v 8 -83 162
v 29 -83 162
v 8 -85 160
v 29 -85 160
v 10 -84 138
v 25 -84 143
v -5 -85 161
v -6 -84 132
v -14 -85 109
v 11 -85 106
v 28 -85 112
v -27 -85 160
v -25 -84 144
v -28 -85 113
v -12 36 162
v -12 15 162
v -14 -34 167
v -3 -65 169
v -4 -83 166
v -36 32 162
v -36 12 162
v -36 -14 162
v -30 -60 162
v -27 -83 162
v 30 55 70
v 8 54 70
v 8 27 75
v 29 21 70
v 0 0 70
v 33 1 70
v 16 -44 72
v 26 -51 70
v 13 -64 70
v 29 -69 70
v -12 46 70
v -12 29 70
v -14 -20 75
v -3 -51 77
v -4 -69 74
v -36 46 70
v -32 24 70
v -40 0 70
v -26 -46 70
v -26 -74 70
v -61 -28 161
v 102 -28 161
v -61 170 161

f 1 2 3
f 4 5 6
f 4 6 7
f 4 7 8
f 4 8 9
f 4 9 10
f 4 10 5
f 5 10 11
f 5 11 6
f 6 11 12
f 6 12 13
f 6 13 14
f 6 14 7
f 7 14 15
f 7 15 8
f 8 15 12
f 8 12 11
f 8 11 16
f 8 16 17
f 8 17 9
f 9 17 18
f 9 18 19
f 9 19 4
f 4 19 20
f 4 20 5
f 5 20 10
f 10 20 21
f 10 21 22
f 10 22 11
f 11 22 16
f 16 22 23
f 16 23 24
f 16 24 17
f 17 24 25
f 17 25 21
f 21 25 22
f 22 25 26
f 22 26 23
f 23 26 27
f 23 27 28
f 23 28 29
f 23 29 30
f 23 30 24
f 24 30 25
f 24 25 31
f 24 31 18
f 24 18 17
f 25 30 32
f 25 32 26
f 26 32 27
f 27 32 33
f 33 32 30
f 33 30 29
f 18 34 35
f 18 35 19
f 19 35 36
f 19 36 20
f 20 36 37
f 20 37 31
f 20 31 21
f 21 31 25
f 31 37 34
f 31 34 18
f 38 39 40
f 38 40 41
f 41 40 42
f 41 42 43
f 43 42 44
f 44 42 45
f 44 45 39
f 44 39 38
f 46 47 48
f 46 48 49
f 49 48 50
f 49 50 51
f 51 50 52
f 52 50 53
f 52 53 47
f 52 47 46
f 54 55 56
f 54 56 57
f 57 56 58
f 57 58 59
f 59 58 60
f 60 58 61
f 60 61 55
f 60 55 54
f 62 63 64
f 62 64 65
f 65 64 66
f 65 66 67
f 67 66 68
f 68 66 69
f 68 69 63
f 68 63 62
f 70 71 72
f 70 72 73
f 70 73 74
f 70 74 75
f 70 75 76
f 70 76 71
f 71 76 77
f 71 77 72
f 72 77 78
f 72 78 73
f 73 78 79
f 73 79 80
f 73 80 74
f 74 80 75
f 75 80 81
f 75 81 76
f 82 83 84
f 82 84 85
f 82 85 86
f 82 86 87
f 82 87 88
f 82 88 83
f 83 88 89
f 83 89 84
f 84 89 90
f 84 90 91
f 84 91 92
f 84 92 85
f 85 92 93
f 85 93 94
f 85 94 95
f 85 95 86
f 86 95 90
f 86 90 89
f 86 89 96
f 86 96 97
f 86 97 87
f 87 97 98
f 87 98 99
f 87 99 82
f 82 99 100
f 82 100 83
f 83 100 88
f 88 100 101
f 88 101 102
f 88 102 89
f 89 102 96
f 96 102 103
f 96 103 104
f 96 104 97
f 97 104 105
f 97 105 101
f 101 105 102
f 102 105 106
f 102 106 103
f 103 106 107
f 103 107 108
f 103 108 109
f 103 109 104
f 104 109 105
f 104 105 110
f 104 110 98
f 104 98 97
f 94 93 92
f 94 92 91
f 94 91 95
f 95 91 90
f 105 109 111
f 105 111 106
f 106 111 112
f 106 112 113
f 106 113 107
f 107 113 108
f 108 113 112
f 108 112 111
f 108 111 109
f 98 114 115
f 98 115 99
f 99 115 116
f 99 116 100
f 100 116 117
f 100 117 110
f 100 110 101
f 101 110 105
f 110 117 114
f 110 114 98
f 118 119 120
f 118 120 121
f 121 120 122
f 121 122 123
f 123 122 124
f 124 122 125
f 124 125 119
f 124 119 118
f 126 127 128
f 126 128 129
f 129 128 130
f 129 130 131
f 131 130 132
f 132 130 133
f 132 133 127
f 132 127 126
f 13 12 134
f 134 12 15
f 134 15 135
f 135 15 14
f 136 137 138
f 136 138 139
f 136 139 140
f 136 140 141
f 136 141 142
f 136 142 137
f 137 142 143
f 137 143 138
f 138 143 144
f 138 144 139
f 139 144 145
f 139 145 146
f 139 146 140
f 140 146 141
f 141 146 147
f 141 147 142
f 148 149 150
f 148 150 151
f 148 151 152
f 148 152 153
f 148 153 154
f 148 154 149
f 149 154 155
f 149 155 156
f 149 156 3
f 149 3 150
f 150 3 157
f 150 157 158
f 150 158 151
f 151 158 159
f 151 159 160
f 151 160 152
f 152 160 156
f 152 156 161
f 152 161 153
f 153 161 162
f 153 162 163
f 153 163 154
f 154 163 164
f 154 164 155
f 155 164 165
f 155 165 161
f 155 161 156
f 156 160 3
f 3 160 166
f 3 166 157
f 160 159 166
f 165 164 167
f 165 167 168
f 165 168 162
f 165 162 161
f 162 168 169
f 162 169 163
f 163 169 170
f 163 170 164
f 164 170 167
f 171 172 173
f 171 173 174
f 171 174 175
f 175 174 176
f 175 176 177
f 177 176 178
f 177 178 172
f 172 178 173
f 173 178 174
f 174 178 176
f 179 180 181
f 179 181 182
f 182 181 183
f 182 183 184
f 184 183 185
f 184 185 186
f 186 185 187
f 186 187 188
f 188 187 189
f 188 189 190
f 190 189 191
f 190 191 192
f 190 192 189
f 189 192 191
f 189 191 193
f 189 193 194
f 189 194 191
f 191 194 195
f 191 195 196
f 191 196 192
f 191 192 197
f 191 197 196
f 191 196 194
f 191 194 193
f 193 194 198
f 193 198 199
f 193 199 194
f 194 199 200
f 194 200 195
f 194 195 199
f 194 199 198
f 181 180 201
f 181 201 202
f 181 202 203
f 181 203 183
f 183 203 204
f 183 204 185
f 185 204 205
f 185 205 187
f 187 205 193
f 187 193 189
f 202 201 206
f 202 206 207
f 202 207 208
f 202 208 203
f 203 208 209
f 203 209 204
f 204 209 210
f 204 210 205
f 205 210 198
f 205 198 193
f 192 196 197
f 196 195 194
f 195 200 199
f 211 212 213
f 211 213 214
f 214 213 215
f 214 215 216
f 216 215 217
f 216 217 218
f 218 217 219
f 218 219 220
f 213 212 221
f 213 221 222
f 213 222 223
f 213 223 215
f 215 223 224
f 215 224 217
f 217 224 225
f 217 225 219
f 222 221 226
f 222 226 227
f 222 227 228
f 222 228 223
f 223 228 229
f 223 229 224
f 224 229 230
f 224 230 225
