# RS2 Model 17857
# Vertices: 22
# Faces: 20

v -64 64 0
v -64 -64 0
v -41 -64 64
v -41 64 64
v -56 -64 128
v -56 64 128
v -32 -64 240
v -32 64 240
v 0 64 240
v 0 -64 240
v 12 64 240
v 12 -64 240
v 25 64 240
v 25 -64 240
v 37 64 240
v 37 -64 240
v 52 64 240
v 52 -64 240
v 64 64 240
v 64 -64 240
v 64 64 -160
v 64 -64 -160

f 1 2 3
f 1 3 4
f 4 3 5
f 4 5 6
f 6 5 7
f 6 7 8
f 8 7 9
f 9 7 10
f 9 10 11
f 11 10 12
f 11 12 13
f 13 12 14
f 13 14 15
f 15 14 16
f 15 16 17
f 17 16 18
f 17 18 19
f 19 18 20
f 19 20 21
f 21 20 22
