# RS2 Model 17878
# Vertices: 155
# Faces: 284

v 28 13 208
v 42 19 178
v 10 31 208
v 18 46 178
v -14 30 208
v -17 45 178
v -30 12 208
v -43 21 178
v -30 -11 208
v -45 -15 178
v -14 -28 208
v -21 -41 178
v 10 -28 208
v 14 -40 178
v 28 -10 208
v 38 -15 178
v 43 -17 158
v 44 23 162
v 18 -44 157
v 13 -29 123
v 27 -13 120
v 28 16 117
v 18 49 167
v -21 49 170
v -46 20 169
v -21 -44 160
v -15 -30 128
v -15 -33 100
v 12 -32 105
v 31 -11 107
v 31 18 102
v 11 32 119
v -17 31 124
v -31 15 128
v -47 -19 165
v -32 -14 130
v -35 -15 92
v -51 -16 71
v -22 -49 71
v 15 -53 71
v 52 -21 71
v 50 18 71
v 10 37 95
v -16 35 89
v -35 14 87
v 16 48 33
v 44 21 33
v 30 16 21
v 10 32 21
v -19 48 33
v -17 56 71
v 21 49 71
v 43 -16 33
v 31 -8 21
v 42 -9 20
v 42 13 20
v 26 35 20
v -33 11 21
v -34 -9 21
v -18 -27 21
v 16 -27 21
v 35 -27 20
v 42 -9 0
v 42 13 0
v 26 35 0
v 0 40 0
v 0 40 20
v -17 29 21
v -46 20 33
v -53 23 71
v -47 -16 33
v -18 -43 33
v 17 -44 33
v 42 -9 209
v 42 13 209
v 42 13 229
v 42 -9 229
v 35 -27 229
v 35 -27 209
v 13 -38 229
v 13 -38 209
v -15 -38 209
v -15 -38 229
v -34 -29 229
v -34 -29 209
v -44 -9 229
v -44 -9 209
v -44 13 209
v -44 13 229
v -27 35 229
v -27 35 209
v 0 40 229
v 0 40 209
v 26 35 209
v 26 35 229
v -18 16 229
v -18 -16 229
v -15 -13 244
v -15 13 244
v 0 13 244
v 18 16 229
v 18 -16 229
v 0 -13 244
v -10 -7 244
v -10 6 244
v -8 5 256
v 1 11 255
v 11 6 244
v 15 13 244
v 15 -13 244
v 11 -7 244
v 9 -4 257
v 1 -9 258
v -8 -4 257
v -6 4 266
v -6 10 264
v 1 14 261
v 9 5 256
v -44 -9 20
v -44 13 20
v -44 13 0
v -44 -9 0
v -34 -29 0
v -34 -29 20
v -27 35 20
v -27 35 0
v 34 -27 0
v 13 -38 20
v 13 -38 0
v -15 -38 20
v -15 -38 0
v 7 10 264
v 7 4 266
v 1 0 268
v 1 6 274
v -5 10 273
v -5 14 273
v 1 18 272
v 6 14 273
v 6 10 273
v 5 12 289
v 1 8 289
v -4 12 289
v -4 15 289
v 1 19 289
v 5 15 289
v 4 15 320
v 4 12 320
v 1 9 320
v -3 12 320
v -3 15 320
v 1 18 320
v 59 5 178
v 0 63 178
v -2 -58 178

f 1 2 3
f 3 2 4
f 3 4 5
f 5 4 6
f 5 6 7
f 7 6 8
f 7 8 9
f 9 8 10
f 9 10 11
f 11 10 12
f 11 12 13
f 13 12 14
f 13 14 15
f 15 14 16
f 15 16 1
f 1 16 2
f 2 16 17
f 2 17 18
f 2 18 4
f 2 4 6
f 2 6 8
f 2 8 16
f 16 8 14
f 16 14 19
f 16 19 17
f 17 19 20
f 17 20 21
f 17 21 18
f 18 21 22
f 18 22 23
f 18 23 4
f 4 23 6
f 6 23 24
f 6 24 8
f 8 24 25
f 8 25 10
f 8 10 14
f 14 10 12
f 14 12 26
f 14 26 19
f 19 26 27
f 19 27 20
f 20 27 28
f 20 28 29
f 20 29 21
f 21 29 30
f 21 30 22
f 22 30 31
f 22 31 32
f 22 32 23
f 23 32 24
f 24 32 33
f 24 33 25
f 25 33 34
f 25 34 35
f 25 35 10
f 10 35 12
f 12 35 26
f 26 35 36
f 26 36 27
f 27 36 37
f 27 37 28
f 28 37 38
f 28 38 39
f 28 39 29
f 29 39 40
f 29 40 30
f 30 40 41
f 30 41 31
f 31 41 42
f 31 42 43
f 31 43 32
f 32 43 33
f 33 43 44
f 33 44 34
f 34 44 45
f 34 45 36
f 34 36 35
f 46 47 48
f 46 48 49
f 46 49 50
f 46 50 51
f 46 51 52
f 46 52 47
f 47 52 42
f 47 42 53
f 47 53 54
f 47 54 48
f 48 54 55
f 48 55 56
f 48 56 57
f 48 57 49
f 48 49 58
f 48 58 59
f 48 59 54
f 54 59 60
f 54 60 61
f 54 61 62
f 54 62 55
f 55 62 63
f 55 63 56
f 56 63 64
f 56 64 65
f 56 65 57
f 57 65 66
f 57 66 67
f 57 67 49
f 49 67 68
f 49 68 50
f 50 68 69
f 50 69 70
f 50 70 51
f 51 70 45
f 51 45 44
f 51 44 52
f 52 44 43
f 52 43 42
f 69 68 58
f 69 58 71
f 69 71 38
f 69 38 70
f 70 38 37
f 70 37 45
f 45 37 36
f 71 58 59
f 71 59 72
f 71 72 39
f 71 39 38
f 72 59 60
f 72 60 73
f 72 73 40
f 72 40 39
f 73 60 61
f 73 61 53
f 73 53 41
f 73 41 40
f 53 61 54
f 53 42 41
f 74 75 76
f 74 76 77
f 74 77 78
f 74 78 79
f 79 78 80
f 79 80 81
f 81 80 82
f 82 80 83
f 82 83 84
f 82 84 85
f 85 84 86
f 85 86 87
f 87 86 88
f 88 86 89
f 88 89 90
f 88 90 91
f 91 90 92
f 91 92 93
f 93 92 94
f 94 92 95
f 94 95 76
f 94 76 75
f 96 97 98
f 96 98 99
f 96 99 100
f 96 100 101
f 96 101 92
f 96 92 90
f 96 90 89
f 96 89 97
f 97 89 86
f 97 86 84
f 97 84 83
f 97 83 102
f 97 102 103
f 97 103 98
f 98 103 104
f 98 104 99
f 99 104 105
f 99 105 100
f 100 105 106
f 100 106 107
f 100 107 108
f 100 108 109
f 100 109 101
f 101 109 102
f 101 102 77
f 101 77 76
f 101 76 95
f 101 95 92
f 102 109 110
f 102 110 103
f 103 110 111
f 103 111 112
f 103 112 113
f 103 113 104
f 104 113 114
f 104 114 105
f 105 114 106
f 106 114 115
f 106 115 116
f 106 116 107
f 107 116 117
f 107 117 118
f 107 118 108
f 108 118 111
f 108 111 110
f 108 110 109
f 102 83 80
f 102 80 78
f 102 78 77
f 119 120 121
f 119 121 122
f 119 122 123
f 119 123 124
f 119 124 60
f 119 60 59
f 119 59 120
f 120 59 58
f 120 58 125
f 120 125 121
f 121 125 126
f 126 125 66
f 66 125 67
f 67 125 68
f 68 125 58
f 68 58 49
f 63 62 127
f 127 62 128
f 127 128 129
f 129 128 130
f 129 130 131
f 131 130 124
f 131 124 123
f 124 130 60
f 60 130 61
f 61 130 128
f 61 128 62
f 111 118 112
f 112 118 132
f 112 132 133
f 112 133 113
f 113 133 134
f 113 134 114
f 114 134 115
f 115 134 135
f 115 135 136
f 115 136 116
f 116 136 137
f 116 137 117
f 117 137 138
f 117 138 132
f 117 132 118
f 133 132 139
f 133 139 140
f 133 140 134
f 134 140 135
f 135 140 141
f 135 141 142
f 135 142 136
f 136 142 143
f 136 143 137
f 137 143 144
f 137 144 138
f 138 144 145
f 138 145 139
f 138 139 132
f 140 139 146
f 140 146 141
f 141 146 147
f 141 147 148
f 141 148 142
f 142 148 149
f 142 149 143
f 143 149 150
f 143 150 144
f 144 150 151
f 144 151 145
f 145 151 152
f 145 152 146
f 145 146 139
f 146 152 147
f 147 152 151
f 147 151 148
f 148 151 150
f 148 150 149
