# RS2 Model 17871
# Vertices: 296
# Faces: 472

v 64 96 90
v 64 96 113
v 64 64 121
v 64 64 90
v 16 64 90
v 16 64 118
v -32 64 118
v -32 64 90
v -64 64 121
v -64 64 90
v -64 96 90
v -64 96 113
v -32 96 110
v -32 96 90
v -64 128 82
v -64 128 60
v -64 96 60
v -32 96 60
v 16 96 60
v 16 96 87
v -32 128 79
v -32 128 56
v -64 160 52
v -64 160 29
v -64 128 29
v -32 128 29
v 16 128 29
v 16 128 57
v -32 160 45
v -32 160 29
v -64 192 21
v -64 187 0
v -64 155 0
v -32 155 0
v 16 155 0
v 16 160 27
v -32 192 21
v -32 187 0
v 16 192 19
v 16 187 0
v 64 187 0
v 64 192 21
v 64 155 0
v 64 160 29
v 16 96 110
v 16 128 79
v 64 128 60
v 16 160 49
v 64 160 52
v 64 128 29
v 64 128 82
v 64 96 60
v 56 172 26
v 56 180 24
v 56 180 114
v 56 172 122
v 48 172 26
v 48 172 122
v 48 180 24
v 48 180 114
v 56 76 118
v 56 84 116
v 56 84 215
v 56 76 222
v 48 76 118
v 48 76 222
v 48 84 116
v 48 84 215
v 16 64 134
v 64 64 143
v 64 32 121
v 64 32 151
v 16 32 121
v 16 32 145
v -32 32 148
v -32 32 121
v -64 32 151
v -64 32 121
v -64 64 143
v -32 64 140
v 64 -32 234
v 64 -64 242
v 64 -64 211
v 64 -32 211
v 16 -32 231
v 16 -64 242
v 16 -64 211
v 56 -20 208
v 56 -12 206
v 56 -12 293
v 56 -20 300
v 48 -20 208
v 48 -20 300
v 48 -12 206
v 48 -12 293
v 16 -32 207
v -32 -32 207
v -32 -32 234
v -32 -64 238
v -32 -64 211
v -64 -64 242
v -64 -64 211
v -64 -32 211
v -64 -32 234
v -64 0 203
v -64 0 182
v -64 -32 182
v -32 -32 182
v 16 -32 182
v -32 0 199
v -32 0 180
v -64 32 174
v -64 0 151
v -32 0 151
v 16 0 151
v 16 0 182
v -32 32 169
v 64 0 203
v 64 -32 182
v 64 0 182
v 16 0 199
v 64 32 174
v 16 32 174
v 64 0 151
v 56 -180 303
v 56 -172 303
v 56 -172 379
v 56 -180 379
v 48 -180 303
v 48 -180 379
v 48 -172 303
v 48 -172 379
v 60 -192 398
v 60 -192 379
v 57 -100 379
v 57 -100 398
v 44 -192 398
v 44 -192 379
v 41 -100 379
v 46 0 281
v 62 0 281
v 62 0 295
v 41 -100 398
v 46 0 295
v 41 89 226
v 41 89 210
v 57 89 210
v 57 89 226
v 56 -116 303
v 56 -108 303
v 56 -108 379
v 56 -116 379
v 48 -116 303
v 48 -116 379
v 48 -108 303
v 48 -108 379
v 16 -64 260
v 64 -64 263
v -32 -64 259
v 16 -96 272
v 64 -96 272
v 64 -96 242
v 16 -96 242
v 16 -96 303
v 64 -96 303
v -32 -96 272
v -32 -96 303
v 16 -192 303
v 64 -192 303
v 64 -192 272
v 16 -192 272
v 60 191 120
v 44 191 120
v 44 191 101
v 60 191 101
v -32 -96 242
v -64 -96 272
v -64 -96 242
v -64 -64 263
v -32 -192 303
v -32 -192 272
v -64 -192 303
v -64 -192 272
v -64 -96 303
v 58 -186 128
v 58 -170 128
v 60 -168 272
v 60 -184 272
v 44 -186 128
v 47 -182 64
v 60 -182 64
v 60 -168 64
v 44 -170 128
v 44 -168 272
v 44 -184 272
v -59 -186 128
v -44 -186 128
v -44 -184 272
v -60 -184 272
v -59 -170 128
v -62 -168 64
v -62 -182 64
v -44 -182 64
v -44 -170 128
v -44 -168 272
v -60 -168 272
v 58 -56 128
v 58 -42 128
v 60 -40 211
v 60 -56 211
v 44 -56 128
v 47 -54 64
v 60 -54 64
v 60 -40 64
v 44 -42 128
v 46 -40 211
v 46 -56 211
v 60 71 64
v 60 86 64
v 60 87 90
v 60 71 90
v 47 71 64
v 44 73 32
v 58 73 32
v 58 87 32
v 47 86 64
v 46 87 90
v 46 71 90
v -42 -56 128
v -42 -42 128
v -42 -40 211
v -42 -56 211
v -57 -56 128
v -60 -54 64
v -42 -54 64
v -42 -40 64
v -57 -42 128
v -58 -40 211
v -58 -56 211
v -42 71 64
v -42 86 64
v -42 87 90
v -42 71 90
v -60 71 64
v -58 73 32
v -43 73 32
v -43 87 32
v -60 86 64
v -57 87 90
v -57 71 90
v 47 -168 64
v 44 -169 32
v 44 -185 32
v 58 -185 32
v 58 -169 32
v -44 -168 64
v -45 -169 32
v -60 -169 32
v -60 -185 32
v -45 -185 32
v -44 -184 0
v -44 -168 0
v -60 -168 0
v -60 -184 0
v 47 -40 64
v 44 -42 32
v 44 -54 32
v 58 -54 32
v 58 -42 32
v -60 -40 64
v -58 -42 32
v -58 -54 32
v -43 -54 32
v -43 -42 32
v 44 87 32
v 44 87 0
v 44 71 0
v 60 71 0
v 60 87 0
v -58 87 32
v -58 87 0
v -58 71 0
v -42 71 0
v -42 87 0
v 60 -168 0
v 44 -168 0
v 44 -184 0
v 60 -184 0
v 60 -40 0
v 44 -40 0
v 44 -56 0
v 60 -56 0
v -42 -40 0
v -58 -40 0
v -58 -56 0
v -42 -56 0

f 1 2 3
f 1 3 4
f 4 3 5
f 5 3 6
f 5 6 7
f 5 7 8
f 8 7 9
f 8 9 10
f 10 9 11
f 11 9 12
f 11 12 13
f 11 13 14
f 11 14 15
f 11 15 16
f 11 16 17
f 11 17 18
f 11 18 14
f 14 18 19
f 14 19 20
f 14 20 21
f 14 21 15
f 15 21 16
f 16 21 22
f 16 22 23
f 16 23 24
f 16 24 25
f 16 25 26
f 16 26 22
f 22 26 27
f 22 27 28
f 22 28 29
f 22 29 23
f 23 29 24
f 24 29 30
f 24 30 31
f 24 31 32
f 24 32 33
f 24 33 34
f 24 34 30
f 30 34 35
f 30 35 36
f 30 36 37
f 30 37 31
f 31 37 32
f 32 37 38
f 38 37 39
f 38 39 40
f 40 39 41
f 41 39 42
f 41 42 43
f 43 42 44
f 43 44 35
f 35 44 36
f 36 44 39
f 36 39 37
f 20 45 2
f 20 2 1
f 20 1 46
f 20 46 21
f 21 46 22
f 22 46 28
f 28 46 47
f 28 47 48
f 28 48 29
f 29 48 30
f 30 48 36
f 36 48 44
f 44 48 49
f 44 49 50
f 50 49 47
f 50 47 27
f 27 47 28
f 51 1 52
f 51 52 47
f 51 47 46
f 51 46 1
f 53 54 55
f 53 55 56
f 53 56 57
f 57 56 58
f 57 58 59
f 59 58 60
f 59 60 54
f 54 60 55
f 61 62 63
f 61 63 64
f 61 64 65
f 65 64 66
f 65 66 67
f 67 66 68
f 67 68 62
f 62 68 63
f 3 2 45
f 3 45 6
f 3 6 69
f 3 69 70
f 3 70 71
f 71 70 72
f 71 72 73
f 73 72 74
f 73 74 75
f 73 75 76
f 76 75 77
f 76 77 78
f 78 77 9
f 9 77 79
f 9 79 80
f 9 80 7
f 9 7 12
f 12 7 13
f 13 7 6
f 13 6 45
f 13 45 14
f 14 45 20
f 47 49 48
f 44 42 39
f 1 20 19
f 1 19 52
f 81 82 83
f 81 83 84
f 81 84 85
f 81 85 82
f 82 85 86
f 82 86 87
f 82 87 83
f 88 89 90
f 88 90 91
f 88 91 92
f 92 91 93
f 92 93 94
f 94 93 95
f 94 95 89
f 89 95 90
f 85 84 96
f 85 96 97
f 85 97 98
f 85 98 86
f 86 98 99
f 86 99 87
f 87 99 100
f 100 99 101
f 100 101 102
f 102 101 103
f 103 101 104
f 103 104 98
f 103 98 97
f 103 97 105
f 103 105 106
f 103 106 107
f 103 107 108
f 103 108 97
f 97 108 109
f 97 109 96
f 97 96 110
f 97 110 105
f 105 110 106
f 106 110 111
f 106 111 112
f 106 112 77
f 106 77 113
f 106 113 114
f 106 114 111
f 111 114 115
f 111 115 116
f 111 116 117
f 111 117 112
f 112 117 77
f 77 117 75
f 77 75 79
f 79 75 80
f 80 75 74
f 80 74 69
f 80 69 7
f 7 69 6
f 118 84 119
f 118 119 120
f 118 120 121
f 118 121 84
f 84 121 96
f 84 96 109
f 84 109 119
f 120 122 123
f 120 123 116
f 120 116 115
f 120 115 124
f 120 124 122
f 122 124 72
f 122 72 123
f 123 72 74
f 123 74 75
f 123 75 117
f 123 117 116
f 72 70 69
f 72 69 74
f 121 120 116
f 121 116 111
f 121 111 110
f 121 110 96
f 125 126 127
f 125 127 128
f 125 128 129
f 129 128 130
f 129 130 131
f 131 130 132
f 131 132 126
f 126 132 127
f 133 134 135
f 133 135 136
f 133 136 137
f 133 137 134
f 134 137 138
f 134 138 139
f 134 139 135
f 135 139 140
f 135 140 141
f 135 141 136
f 136 141 142
f 136 142 143
f 136 143 137
f 137 143 138
f 138 143 139
f 139 143 144
f 139 144 140
f 140 144 145
f 140 145 146
f 140 146 141
f 141 146 147
f 141 147 142
f 142 147 148
f 142 148 144
f 142 144 143
f 149 150 151
f 149 151 152
f 149 152 153
f 153 152 154
f 153 154 155
f 155 154 156
f 155 156 150
f 150 156 151
f 157 158 82
f 157 82 86
f 157 86 99
f 157 99 159
f 157 159 160
f 157 160 161
f 157 161 158
f 158 161 162
f 158 162 82
f 161 160 163
f 161 163 162
f 164 165 161
f 164 161 160
f 164 160 166
f 164 166 167
f 164 167 168
f 164 168 169
f 164 169 165
f 165 169 170
f 165 170 161
f 169 168 171
f 169 171 170
f 144 148 145
f 145 148 172
f 145 172 173
f 145 173 146
f 146 173 174
f 146 174 147
f 147 174 175
f 147 175 148
f 148 175 172
f 172 175 174
f 172 174 173
f 160 159 166
f 160 166 163
f 163 166 176
f 176 166 177
f 176 177 178
f 178 177 101
f 101 177 179
f 101 179 159
f 101 159 99
f 101 99 104
f 104 99 98
f 168 167 180
f 168 180 171
f 171 180 181
f 181 180 182
f 181 182 183
f 183 182 177
f 177 182 184
f 177 184 167
f 177 167 166
f 177 166 179
f 179 166 159
f 180 167 184
f 180 184 182
f 185 186 187
f 185 187 188
f 185 188 189
f 185 189 190
f 185 190 191
f 185 191 186
f 186 191 192
f 186 192 193
f 186 193 194
f 186 194 187
f 193 189 195
f 193 195 194
f 189 188 195
f 196 197 198
f 196 198 199
f 196 199 200
f 196 200 201
f 196 201 202
f 196 202 197
f 197 202 203
f 197 203 204
f 197 204 205
f 197 205 198
f 204 200 206
f 204 206 205
f 200 199 206
f 207 208 209
f 207 209 210
f 207 210 211
f 207 211 212
f 207 212 213
f 207 213 208
f 208 213 214
f 208 214 215
f 208 215 216
f 208 216 209
f 215 211 217
f 215 217 216
f 211 210 217
f 218 219 220
f 218 220 221
f 218 221 222
f 218 222 223
f 218 223 224
f 218 224 219
f 219 224 225
f 219 225 226
f 219 226 227
f 219 227 220
f 226 222 228
f 226 228 227
f 222 221 228
f 229 230 231
f 229 231 232
f 229 232 233
f 229 233 234
f 229 234 235
f 229 235 230
f 230 235 236
f 230 236 237
f 230 237 238
f 230 238 231
f 237 233 239
f 237 239 238
f 233 232 239
f 240 241 242
f 240 242 243
f 240 243 244
f 240 244 245
f 240 245 246
f 240 246 241
f 241 246 247
f 241 247 248
f 241 248 249
f 241 249 242
f 248 244 250
f 248 250 249
f 244 243 250
f 189 193 251
f 189 251 190
f 190 251 252
f 190 252 253
f 190 253 191
f 191 253 254
f 191 254 192
f 192 254 255
f 192 255 251
f 192 251 193
f 204 203 256
f 204 256 200
f 200 256 201
f 201 256 257
f 201 257 258
f 201 258 202
f 202 258 259
f 202 259 203
f 203 259 260
f 203 260 256
f 256 260 257
f 257 260 261
f 257 261 262
f 257 262 258
f 258 262 263
f 258 263 259
f 259 263 264
f 259 264 260
f 260 264 261
f 211 215 265
f 211 265 212
f 212 265 266
f 212 266 267
f 212 267 213
f 213 267 268
f 213 268 214
f 214 268 269
f 214 269 265
f 214 265 215
f 233 237 270
f 233 270 234
f 234 270 271
f 234 271 272
f 234 272 235
f 235 272 273
f 235 273 236
f 236 273 274
f 236 274 270
f 236 270 237
f 222 226 275
f 222 275 223
f 223 275 276
f 223 276 277
f 223 277 224
f 224 277 278
f 224 278 225
f 225 278 279
f 225 279 275
f 225 275 226
f 244 248 280
f 244 280 245
f 245 280 281
f 245 281 282
f 245 282 246
f 246 282 283
f 246 283 247
f 247 283 284
f 247 284 280
f 247 280 248
f 251 255 252
f 252 255 285
f 252 285 286
f 252 286 253
f 253 286 287
f 253 287 254
f 254 287 288
f 254 288 255
f 255 288 285
f 265 269 266
f 266 269 289
f 266 289 290
f 266 290 267
f 267 290 291
f 267 291 268
f 268 291 292
f 268 292 269
f 269 292 289
f 270 274 271
f 271 274 293
f 271 293 294
f 271 294 272
f 272 294 295
f 272 295 273
f 273 295 296
f 273 296 274
f 274 296 293
f 275 279 276
f 280 284 281
