# RS2 Model 17870
# Vertices: 126
# Faces: 172

v -64 128 -185
v 64 128 -185
v 64 128 -159
v -64 128 -159
v -64 0 -159
v -64 0 -185
v -64 -128 -185
v -64 -128 -159
v -64 0 -128
v -64 -128 -128
v -64 0 -96
v -64 -128 -96
v -64 0 -64
v -64 -128 -64
v -64 0 -32
v -64 -128 -32
v -64 0 0
v -64 -128 0
v 64 128 -128
v -64 128 -128
v 64 128 -96
v -64 128 -96
v 64 128 -64
v -64 128 -64
v 64 128 -32
v -64 128 -32
v 64 128 0
v -64 128 0
v 56 44 -95
v 56 52 -97
v 56 52 -10
v 56 44 -3
v 48 44 -95
v 48 44 -3
v 48 52 -97
v 48 52 -10
v 16 32 -72
v 64 32 -69
v 64 32 -92
v 16 32 -96
v -32 32 -96
v -32 32 -69
v 16 0 -61
v 64 0 -61
v 64 64 -100
v 16 64 -104
v -32 64 -104
v -64 64 -100
v -64 32 -92
v -64 32 -69
v -32 0 -65
v 16 0 -43
v 64 0 -40
v 64 -32 -31
v 16 -32 -31
v 16 -32 0
v 64 -32 0
v 64 -128 0
v -32 -32 0
v -64 -32 0
v -64 -32 -31
v -32 -32 -31
v -64 0 -40
v -32 0 -44
v -64 0 -61
v 64 64 -121
v 64 96 -129
v 16 96 -129
v 16 64 -121
v 64 96 -152
v 64 128 -160
v 16 128 -169
v 16 96 -158
v 56 -116 0
v 56 -108 0
v 56 -108 76
v 56 -116 76
v 48 -116 0
v 48 -116 76
v 48 -108 0
v 48 -108 76
v 60 -128 95
v 60 -128 76
v 57 -36 76
v 57 -36 95
v 44 -128 95
v 44 -128 76
v 41 -36 95
v 41 -36 76
v 46 64 -8
v 46 64 -22
v 62 64 -22
v 62 64 -8
v 56 -52 0
v 56 -44 0
v 56 -44 76
v 56 -52 76
v 48 -52 0
v 48 -52 76
v 48 -44 0
v 48 -44 76
v 58 128 -77
v 42 128 -77
v 42 128 -93
v 58 128 -93
v -32 96 -155
v -32 96 -134
v -32 64 -123
v -64 64 -121
v -32 128 -163
v -64 128 -160
v -64 96 -152
v -64 96 -129
v 64 0 -185
v 64 -128 -185
v 64 -128 -159
v 64 0 -159
v 64 -128 -128
v 64 0 -128
v 64 -128 -96
v 64 0 -96
v 64 -128 -64
v 64 0 -64
v 64 -128 -32
v 64 0 -32
v 64 0 0

f 1 2 3
f 1 3 4
f 1 4 5
f 1 5 6
f 6 5 7
f 7 5 8
f 8 5 9
f 8 9 10
f 10 9 11
f 10 11 12
f 12 11 13
f 12 13 14
f 14 13 15
f 14 15 16
f 16 15 17
f 16 17 18
f 4 3 19
f 4 19 20
f 4 20 9
f 4 9 5
f 20 19 21
f 20 21 22
f 20 22 11
f 20 11 9
f 22 21 23
f 22 23 24
f 22 24 13
f 22 13 11
f 24 23 25
f 24 25 26
f 24 26 15
f 24 15 13
f 26 25 27
f 26 27 28
f 26 28 17
f 26 17 15
f 29 30 31
f 29 31 32
f 29 32 33
f 33 32 34
f 33 34 35
f 35 34 36
f 35 36 30
f 30 36 31
f 37 38 39
f 37 39 40
f 37 40 41
f 37 41 42
f 37 42 43
f 37 43 44
f 37 44 38
f 39 45 46
f 39 46 40
f 40 46 47
f 40 47 41
f 41 47 48
f 41 48 49
f 41 49 42
f 42 49 50
f 42 50 51
f 42 51 43
f 43 51 52
f 43 52 44
f 44 52 53
f 53 52 54
f 54 52 55
f 54 55 56
f 54 56 57
f 57 56 58
f 58 56 59
f 58 59 18
f 18 59 60
f 60 59 61
f 61 59 62
f 61 62 63
f 63 62 64
f 63 64 65
f 65 64 51
f 65 51 50
f 66 67 68
f 66 68 69
f 66 69 46
f 66 46 45
f 70 71 72
f 70 72 73
f 70 73 68
f 70 68 67
f 74 75 76
f 74 76 77
f 74 77 78
f 78 77 79
f 78 79 80
f 80 79 81
f 80 81 75
f 75 81 76
f 82 83 84
f 82 84 85
f 82 85 86
f 82 86 83
f 83 86 87
f 87 86 88
f 87 88 89
f 89 88 90
f 89 90 91
f 89 91 84
f 84 91 92
f 84 92 85
f 85 92 93
f 85 93 88
f 85 88 86
f 94 95 96
f 94 96 97
f 94 97 98
f 98 97 99
f 98 99 100
f 100 99 101
f 100 101 95
f 95 101 96
f 88 93 90
f 90 93 102
f 90 102 103
f 90 103 91
f 91 103 104
f 91 104 92
f 92 104 105
f 92 105 93
f 93 105 102
f 68 73 106
f 68 106 107
f 68 107 69
f 69 107 108
f 69 108 46
f 46 108 47
f 47 108 109
f 47 109 48
f 73 72 110
f 73 110 106
f 106 110 111
f 106 111 112
f 106 112 107
f 107 112 113
f 107 113 108
f 108 113 109
f 52 51 64
f 52 64 55
f 55 64 62
f 55 62 56
f 56 62 59
f 114 115 116
f 114 116 117
f 114 117 3
f 114 3 2
f 117 116 118
f 117 118 119
f 117 119 19
f 117 19 3
f 119 118 120
f 119 120 121
f 119 121 21
f 119 21 19
f 121 120 122
f 121 122 123
f 121 123 23
f 121 23 21
f 123 122 124
f 123 124 125
f 123 125 25
f 123 25 23
f 125 124 58
f 125 58 126
f 125 126 27
f 125 27 25
