# RS2 Model 17896
# Vertices: 223
# Faces: 228

v -48 46 245
v -48 64 248
v -47 64 213
v -47 46 215
v -19 44 209
v -36 44 246
v -36 64 249
v -48 -64 248
v -48 -24 245
v -47 -24 215
v -47 -64 213
v -36 -22 246
v -19 -22 209
v -36 -64 249
v -27 52 203
v -27 64 206
v -22 64 181
v -22 54 184
v -14 51 185
v -19 50 204
v -19 64 207
v -27 -64 206
v -27 -52 200
v -22 -52 186
v -22 -64 181
v -19 -50 200
v -14 -50 186
v -19 -64 207
v -27 -43 203
v -27 -20 201
v -22 -16 182
v -22 -32 180
v -22 -46 185
v -14 -48 188
v -19 -44 204
v -19 -29 209
v -19 -13 204
v -14 -12 184
v -39 46 139
v -39 64 142
v -39 64 102
v -39 46 103
v -25 43 102
v -15 44 140
v -15 64 143
v -39 -64 142
v -39 -24 139
v -39 -24 105
v -39 -64 102
v -15 -22 140
v -25 -21 104
v -15 -64 143
v -41 -16 138
v -40 39 140
v -40 40 103
v -42 -16 103
v -15 -20 143
v -15 42 143
v -48 64 61
v -47 25 61
v -47 25 97
v -48 64 99
v -25 22 99
v -25 64 101
v -25 21 60
v -41 18 59
v -44 -40 59
v -44 -40 99
v -41 18 99
v -25 20 101
v -25 -42 101
v -25 -43 60
v -44 -46 61
v -48 -64 61
v -48 -64 99
v -44 -46 97
v -25 -44 99
v -25 -64 101
v -64 46 54
v -64 64 56
v -64 64 0
v -64 46 0
v -44 43 0
v -25 44 55
v -25 64 57
v -64 -64 56
v -60 -27 54
v -64 -24 0
v -64 -64 0
v -25 -22 55
v -44 -21 0
v -25 -64 57
v -52 -18 53
v -52 40 53
v -55 40 0
v -55 -18 0
v -25 -20 57
v -25 42 57
v -61 64 258
v -61 24 259
v -61 24 289
v -61 64 292
v -44 21 293
v -44 64 293
v 0 64 293
v -2 0 290
v 10 -64 272
v 10 64 272
v 21 -64 272
v 21 64 272
v 31 0 291
v 32 64 293
v 64 64 293
v 64 -64 293
v 64 -64 146
v 64 64 146
v 64 -64 0
v 64 64 0
v -44 21 261
v -54 18 258
v -54 -11 254
v -54 -40 287
v -54 18 287
v -44 -43 293
v -44 -43 261
v -61 -46 259
v -61 -46 289
v -44 -64 293
v 0 -64 293
v -54 -40 258
v -61 -64 258
v -61 -64 292
v -30 -60 173
v -30 -36 175
v -33 -30 150
v -33 -42 144
v -33 -59 146
v -25 -61 147
v -19 -62 174
v -19 -47 181
v -19 -34 177
v -25 -28 152
v -27 -4 199
v -27 12 202
v -22 19 186
v -22 7 180
v -22 -5 182
v -14 -7 185
v -19 -6 200
v -19 3 206
v -19 15 205
v -14 21 190
v -30 33 173
v -30 61 169
v -33 58 147
v -33 39 146
v -33 28 152
v -25 26 153
v -19 29 175
v -19 46 177
v -19 64 171
v -25 61 149
v -30 -19 173
v -30 14 173
v -33 18 149
v -33 -4 146
v -33 -22 149
v -25 -26 151
v -19 -23 175
v -19 -5 177
v -19 20 175
v -25 23 151
v -27 31 199
v -27 42 197
v -22 42 183
v -22 32 182
v -22 25 186
v -14 24 190
v -19 29 201
v -19 37 203
v -19 45 199
v -14 45 186
v -41 -15 235
v -42 6 240
v -32 17 213
v -31 3 206
v -31 -12 206
v -24 -15 211
v -34 -16 237
v -35 -3 246
v -35 12 246
v -25 21 218
v -45 24 245
v -45 35 244
v -40 36 230
v -40 26 228
v -40 19 232
v -32 18 236
v -37 22 247
v -37 30 250
v -37 38 246
v -32 39 233
v -27 28 224
v -27 37 223
v -22 37 209
v -22 30 207
v -22 24 211
v -14 23 215
v -19 26 226
v -19 32 229
v -19 39 225
v -14 40 212
v -44 64 0
v -44 -64 0
v -14 -64 179
v -14 64 179
v 32 -64 293
v -49 -59 154
v -44 67 153
v -51 -62 -2
v 1 64 272
v 1 -64 272
v 28 64 272

f 1 2 3
f 1 3 4
f 1 4 5
f 1 5 6
f 1 6 7
f 1 7 2
f 8 9 10
f 8 10 11
f 12 13 10
f 12 10 9
f 12 9 8
f 12 8 14
f 15 16 17
f 15 17 18
f 15 18 19
f 15 19 20
f 15 20 21
f 15 21 16
f 22 23 24
f 22 24 25
f 26 27 24
f 26 24 23
f 26 23 22
f 26 22 28
f 29 30 31
f 29 31 32
f 29 32 33
f 29 33 34
f 29 34 35
f 29 35 36
f 29 36 37
f 29 37 30
f 30 37 31
f 31 37 38
f 39 40 41
f 39 41 42
f 39 42 43
f 39 43 44
f 39 44 45
f 39 45 40
f 46 47 48
f 46 48 49
f 50 51 48
f 50 48 47
f 50 47 46
f 50 46 52
f 53 54 55
f 53 55 56
f 53 56 51
f 53 51 57
f 53 57 58
f 53 58 54
f 54 58 55
f 55 58 43
f 59 60 61
f 59 61 62
f 62 61 63
f 62 63 64
f 65 63 61
f 65 61 60
f 66 67 68
f 66 68 69
f 66 69 70
f 66 70 65
f 71 70 69
f 71 69 68
f 71 68 72
f 72 68 67
f 73 74 75
f 73 75 76
f 73 76 77
f 73 77 72
f 78 77 76
f 78 76 75
f 79 80 81
f 79 81 82
f 79 82 83
f 79 83 84
f 79 84 85
f 79 85 80
f 86 87 88
f 86 88 89
f 90 91 88
f 90 88 87
f 90 87 86
f 90 86 92
f 93 94 95
f 93 95 96
f 93 96 91
f 93 91 97
f 93 97 98
f 93 98 94
f 94 98 95
f 95 98 83
f 99 100 101
f 99 101 102
f 102 101 103
f 102 103 104
f 104 103 105
f 105 103 106
f 105 106 107
f 105 107 108
f 108 107 109
f 108 109 110
f 110 109 111
f 110 111 112
f 112 111 113
f 113 111 114
f 113 114 115
f 113 115 116
f 116 115 117
f 116 117 118
f 119 103 101
f 119 101 100
f 120 121 122
f 120 122 123
f 120 123 103
f 120 103 119
f 124 103 123
f 124 123 122
f 124 122 125
f 124 125 126
f 124 126 127
f 124 127 128
f 124 128 129
f 124 129 106
f 124 106 103
f 125 122 130
f 130 122 121
f 126 131 132
f 126 132 127
f 127 132 128
f 133 134 135
f 133 135 136
f 133 136 137
f 133 137 138
f 133 138 139
f 133 139 140
f 133 140 141
f 133 141 134
f 134 141 135
f 135 141 142
f 143 144 145
f 143 145 146
f 143 146 147
f 143 147 148
f 143 148 149
f 143 149 150
f 143 150 151
f 143 151 144
f 144 151 145
f 145 151 152
f 153 154 155
f 153 155 156
f 153 156 157
f 153 157 158
f 153 158 159
f 153 159 160
f 153 160 161
f 153 161 154
f 154 161 155
f 155 161 162
f 163 164 165
f 163 165 166
f 163 166 167
f 163 167 168
f 163 168 169
f 163 169 170
f 163 170 171
f 163 171 164
f 164 171 165
f 165 171 172
f 173 174 175
f 173 175 176
f 173 176 177
f 173 177 178
f 173 178 179
f 173 179 180
f 173 180 181
f 173 181 174
f 174 181 175
f 175 181 182
f 183 184 185
f 183 185 186
f 183 186 187
f 183 187 188
f 183 188 189
f 183 189 190
f 183 190 191
f 183 191 184
f 184 191 185
f 185 191 192
f 193 194 195
f 193 195 196
f 193 196 197
f 193 197 198
f 193 198 199
f 193 199 200
f 193 200 201
f 193 201 194
f 194 201 195
f 195 201 202
f 203 204 205
f 203 205 206
f 203 206 207
f 203 207 208
f 203 208 209
f 203 209 210
f 203 210 211
f 203 211 204
f 204 211 205
f 205 211 212
f 213 214 78
f 213 78 64
f 64 78 52
f 64 52 45
f 45 52 215
f 45 215 216
f 216 215 28
f 216 28 21
f 21 28 14
f 21 14 7
f 7 14 128
f 7 128 104
f 217 114 111
f 217 111 109
f 129 107 106
f 218 219 220
