# RS2 Model 17901
# Vertices: 146
# Faces: 149

v 32 0 88
v 32 -64 101
v 32 -64 143
v 32 64 101
v 32 64 0
v 32 -64 0
v 32 64 143
v 32 64 179
v 32 -64 179
v 32 64 249
v 32 -64 249
v -36 -64 249
v -36 64 249
v -44 -64 293
v -44 64 293
v -47 -53 215
v -47 -64 213
v -48 -64 248
v -48 -45 243
v -36 -42 243
v -19 -46 217
v -47 64 213
v -47 53 218
v -48 50 241
v -48 64 248
v -36 48 242
v -19 51 220
v -61 -64 292
v -64 -42 289
v -64 -42 259
v -61 -64 258
v -44 -39 293
v -44 -40 263
v -64 48 287
v -64 10 242
v -64 -34 246
v -64 10 291
v -44 52 293
v -64 45 246
v -64 -37 287
v -44 -38 247
v -44 51 247
v -64 55 289
v -61 64 292
v -61 64 258
v -64 55 259
v -44 53 263
v 0 64 293
v 4 0 290
v 10 -64 272
v 10 64 272
v 21 -64 272
v 21 64 272
v 29 0 293
v 32 64 293
v 64 64 293
v 64 -64 293
v 64 -64 146
v 64 64 146
v 64 64 0
v 64 -64 0
v 28 29 40
v 28 19 45
v 25 25 57
v 25 37 55
v 28 37 42
v 32 41 58
v 32 44 43
v 32 14 48
v 32 20 63
v 32 32 64
v 19 40 7
v 19 33 9
v 20 36 28
v 20 51 28
v 19 54 9
v 32 58 33
v 31 61 9
v 26 25 9
v 32 28 33
v 32 40 35
v 28 2 32
v 28 -5 33
v 25 -5 43
v 25 3 45
v 28 8 35
v 32 6 49
v 32 11 38
v 32 -10 34
v 32 -10 47
v 32 -2 51
v 25 -37 204
v 25 -25 206
v 28 -19 194
v 28 -29 189
v 28 -37 191
v 32 -44 192
v 32 -41 207
v 32 -32 213
v 32 -20 212
v 32 -14 197
v 20 -51 177
v 20 -36 177
v 19 -33 158
v 19 -40 156
v 19 -54 158
v 31 -61 158
v 32 -58 182
v 32 -40 184
v 32 -28 182
v 26 -25 158
v 25 -3 204
v 25 5 202
v 28 5 192
v 28 -2 191
v 28 -8 194
v 32 -11 197
v 32 -6 208
v 32 2 210
v 32 10 206
v 32 10 193
v 28 48 158
v 28 36 159
v 25 36 169
v 25 49 171
v 28 55 161
v 32 52 175
v 32 58 164
v 32 30 160
v 32 30 173
v 32 43 177
v 28 -47 15
v 28 -52 20
v 25 -45 27
v 25 -38 24
v 28 -41 13
v 32 -33 25
v 32 -37 13
v 32 -55 24
v 32 -47 34
v 32 -38 32
v 0 -64 293
v 32 -64 293
v -11 64 272
v -11 -64 272
v 42 64 272

f 1 2 3
f 1 3 4
f 1 4 5
f 1 5 6
f 1 6 2
f 7 4 3
f 7 3 8
f 8 3 9
f 8 9 10
f 10 9 11
f 10 11 12
f 10 12 13
f 13 12 14
f 13 14 15
f 16 17 18
f 16 18 19
f 16 19 20
f 16 20 21
f 20 19 18
f 20 18 12
f 22 23 24
f 22 24 25
f 25 24 13
f 13 24 26
f 26 24 27
f 27 24 23
f 28 29 30
f 28 30 31
f 29 28 14
f 29 14 32
f 29 32 30
f 30 32 33
f 34 35 36
f 34 36 37
f 34 37 38
f 34 38 39
f 34 39 35
f 40 32 38
f 40 38 37
f 40 37 36
f 40 36 41
f 40 41 32
f 39 38 42
f 43 44 45
f 43 45 46
f 43 46 47
f 43 47 38
f 43 38 44
f 44 38 15
f 15 38 48
f 48 38 49
f 48 49 50
f 48 50 51
f 51 50 52
f 51 52 53
f 53 52 54
f 53 54 55
f 55 54 56
f 56 54 57
f 56 57 58
f 56 58 59
f 59 58 60
f 60 58 61
f 62 63 64
f 62 64 65
f 62 65 66
f 66 65 67
f 66 67 68
f 64 63 69
f 64 69 70
f 64 70 71
f 64 71 65
f 65 71 67
f 72 73 74
f 72 74 75
f 72 75 76
f 76 75 77
f 76 77 78
f 74 73 79
f 74 79 80
f 74 80 81
f 74 81 75
f 75 81 77
f 82 83 84
f 82 84 85
f 82 85 86
f 86 85 87
f 86 87 88
f 84 83 89
f 84 89 90
f 84 90 91
f 84 91 85
f 85 91 87
f 92 93 94
f 92 94 95
f 92 95 96
f 92 96 97
f 92 97 98
f 92 98 99
f 92 99 100
f 92 100 93
f 93 100 94
f 94 100 101
f 102 103 104
f 102 104 105
f 102 105 106
f 102 106 107
f 102 107 108
f 102 108 109
f 102 109 110
f 102 110 103
f 103 110 104
f 104 110 111
f 112 113 114
f 112 114 115
f 112 115 116
f 112 116 117
f 112 117 118
f 112 118 119
f 112 119 120
f 112 120 113
f 113 120 114
f 114 120 121
f 122 123 124
f 122 124 125
f 122 125 126
f 126 125 127
f 126 127 128
f 124 123 129
f 124 129 130
f 124 130 131
f 124 131 125
f 125 131 127
f 132 133 134
f 132 134 135
f 132 135 136
f 136 135 137
f 136 137 138
f 134 133 139
f 134 139 140
f 134 140 141
f 134 141 135
f 135 141 137
f 32 49 38
f 49 32 142
f 49 142 50
f 14 142 32
f 143 57 54
f 143 54 52
