# RS2 Model 17907
# Vertices: 146
# Faces: 155

v -34 45 138
v -39 64 142
v -39 64 102
v -34 45 104
v -25 43 96
v -15 44 140
v -15 64 143
v -39 -64 127
v -33 -31 122
v -33 -24 102
v -39 -64 102
v -15 -29 126
v -25 -21 98
v -15 -64 128
v -44 12 97
v -43 -11 122
v -43 11 128
v -43 40 102
v -43 34 122
v -15 42 132
v -15 -17 126
v -45 -16 102
v -48 64 61
v -47 50 63
v -47 50 95
v -48 64 99
v -25 47 97
v -25 64 101
v -25 46 62
v -38 -46 63
v -48 -64 61
v -48 -64 99
v -38 -46 89
v -25 -44 99
v -25 -43 60
v -25 -64 101
v -58 47 49
v -64 64 56
v -64 64 0
v -58 46 0
v -44 43 0
v -25 44 55
v -25 64 57
v -63 -5 0
v -52 -21 67
v -52 4 77
v -55 40 0
v -52 29 71
v -25 42 89
v -44 -40 0
v -25 -39 85
v -55 -37 0
v -18 2 182
v -18 18 181
v -13 21 163
v -13 8 160
v -13 -3 165
v 9 -5 166
v 9 0 183
v 9 10 187
v 9 21 183
v 10 26 167
v 36 18 181
v 43 19 161
v 43 6 158
v 36 2 182
v 43 -5 163
v -30 21 159
v -30 59 166
v -33 59 144
v -33 41 140
v -33 19 138
v 20 12 138
v 20 13 160
v 20 39 171
v 20 58 168
v 20 57 145
v 58 56 166
v 61 56 144
v 60 13 139
v 58 18 159
v -18 -21 157
v -18 -4 160
v -21 0 136
v -21 -9 133
v -21 -24 133
v 11 -31 135
v 11 -27 159
v 11 -12 164
v 11 0 162
v 11 2 138
v 53 -4 158
v 56 0 134
v 56 -9 131
v 53 -21 155
v 56 -24 131
v 9 -51 145
v 9 -40 145
v 7 -37 129
v 2 -47 128
v 8 -55 127
v 25 -59 127
v 25 -55 146
v 25 -47 149
v 25 -39 147
v 25 -34 130
v 48 -40 141
v 50 -37 125
v 55 -47 124
v 48 -51 141
v 49 -55 123
v -44 64 0
v -44 0 0
v 64 -64 118
v 64 0 132
v 64 32 139
v 64 64 146
v 64 0 73
v 64 64 0
v 64 -64 0
v -64 -64 56
v -54 -50 54
v -58 -47 0
v -64 -64 0
v -25 -45 55
v -44 -44 0
v -25 -64 57
v -44 -64 0
v -31 6 160
v -2 -58 152
v 32 35 163
v -68 -61 87
v -2 -62 102
v -67 68 91
v -56 -63 99
v -45 65 97
v -61 -64 0
v 42 -8 182
v 26 44 180
v -7 -25 183
v -36 59 174
v -10 -16 158
v 43 88 166
v -40 73 76
v -38 -55 71
v -38 70 156

f 1 2 3
f 1 3 4
f 1 4 5
f 1 5 6
f 1 6 7
f 1 7 2
f 8 9 10
f 8 10 11
f 12 13 10
f 12 10 9
f 12 9 8
f 12 8 14
f 15 16 17
f 15 17 18
f 18 17 19
f 18 19 20
f 18 20 5
f 13 21 16
f 13 16 22
f 22 16 15
f 20 19 17
f 20 17 21
f 21 17 16
f 23 24 25
f 23 25 26
f 26 25 27
f 26 27 28
f 29 27 25
f 29 25 24
f 30 31 32
f 30 32 33
f 30 33 34
f 30 34 35
f 36 34 33
f 36 33 32
f 37 38 39
f 37 39 40
f 37 40 41
f 37 41 42
f 37 42 43
f 37 43 38
f 44 45 46
f 44 46 47
f 47 46 48
f 47 48 49
f 47 49 41
f 50 51 45
f 50 45 52
f 52 45 44
f 49 48 46
f 49 46 51
f 51 46 45
f 53 54 55
f 53 55 56
f 53 56 57
f 53 57 58
f 53 58 59
f 53 59 60
f 53 60 61
f 53 61 54
f 54 61 55
f 55 61 62
f 62 61 63
f 62 63 64
f 64 63 65
f 65 63 66
f 65 66 67
f 67 66 59
f 67 59 58
f 68 69 70
f 68 70 71
f 68 71 72
f 68 72 73
f 68 73 74
f 68 74 75
f 68 75 69
f 69 75 76
f 69 76 70
f 70 76 77
f 77 76 78
f 77 78 79
f 79 78 80
f 80 78 81
f 80 81 74
f 80 74 73
f 82 83 84
f 82 84 85
f 82 85 86
f 82 86 87
f 82 87 88
f 82 88 89
f 82 89 83
f 83 89 90
f 83 90 84
f 84 90 91
f 91 90 92
f 91 92 93
f 93 92 94
f 94 92 95
f 94 95 96
f 96 95 88
f 96 88 87
f 97 98 99
f 97 99 100
f 97 100 101
f 97 101 102
f 97 102 103
f 97 103 104
f 97 104 105
f 97 105 98
f 98 105 99
f 99 105 106
f 106 105 107
f 106 107 108
f 108 107 109
f 109 107 110
f 109 110 111
f 111 110 103
f 111 103 102
f 112 113 36
f 112 36 28
f 28 36 14
f 28 14 7
f 7 14 114
f 7 114 115
f 7 115 116
f 7 116 117
f 117 116 118
f 117 118 119
f 119 118 120
f 120 118 115
f 120 115 114
f 121 122 123
f 121 123 124
f 125 126 123
f 125 123 122
f 125 122 121
f 125 121 127
f 113 128 36
f 115 118 116
f 95 92 90
f 95 90 89
f 95 89 88
f 81 78 76
f 81 76 75
f 81 75 74
f 104 110 107
f 104 107 105
f 103 110 104
f 60 66 63
f 60 63 61
f 59 66 60
f 129 130 131
f 132 133 134
f 135 136 137
