# RS2 Model 17917
# Vertices: 281
# Faces: 278

v 29 32 245
v 64 58 248
v 64 57 213
v 29 32 215
v 31 27 209
v 31 27 246
v 64 52 249
v -58 -64 248
v -18 -15 245
v -18 -15 215
v -57 -64 213
v -17 -13 246
v -13 -17 209
v -52 -64 249
v 34 35 203
v 64 49 206
v 64 48 181
v 37 35 184
v 37 31 185
v 36 31 204
v 64 47 207
v -49 -64 206
v -35 -34 200
v -34 -35 186
v -48 -64 181
v -31 -35 200
v -30 -36 186
v -47 -64 207
v -30 -28 203
v -14 -13 201
v -10 -12 182
v -20 -22 180
v -30 -32 185
v -29 -35 188
v -27 -32 204
v -18 -22 209
v -6 -11 204
v -5 -11 184
v 29 31 102
v 64 53 105
v 64 53 76
v 31 30 77
v 29 28 76
v 34 24 103
v 64 45 106
v -10 -19 103
v -14 -14 78
v -20 -13 79
v -17 -15 102
v -53 -64 105
v -45 -64 106
v -9 -13 101
v 25 27 103
v 24 30 77
v -11 -11 77
v -5 -22 106
v 36 19 106
v 64 58 41
v 15 18 41
v 15 18 72
v 64 58 74
v 15 15 74
v 64 48 75
v 14 14 40
v 8 16 39
v -28 -26 39
v -28 -26 74
v 8 16 74
v 14 13 76
v -28 -28 76
v -29 -29 40
v -36 -26 41
v -58 -64 41
v -58 -64 74
v -36 -26 72
v -30 -30 74
v -48 -64 75
v 26 35 37
v 64 64 39
v 64 64 6
v 26 35 0
v 28 29 0
v 29 29 38
v 64 48 40
v -64 -64 39
v -23 -14 37
v -21 -11 3
v -64 -64 6
v -15 -15 38
v -15 -13 3
v -48 -64 40
v -14 -10 36
v 25 29 36
v 24 30 0
v -15 -9 0
v -13 -14 40
v 28 27 40
v 64 63 261
v 11 20 259
v 11 20 289
v 64 63 292
v 11 17 293
v 64 56 293
v 64 45 293
v 2 -2 290
v -41 -64 272
v 64 41 272
v -35 -64 272
v 64 35 272
v 16 -16 291
v 64 31 293
v 64 20 293
v -20 -64 293
v -24 -64 259
v 64 24 259
v -33 -64 249
v 64 33 249
v -39 -64 213
v 64 39 213
v -39 -64 179
v 64 39 179
v 64 39 106
v -39 -64 106
v 64 39 75
v -39 -64 75
v -39 -64 0
v 64 39 0
v 14 15 261
v 9 15 258
v -11 -5 254
v -30 -24 287
v 9 15 287
v -32 -26 293
v -34 -24 261
v -36 -26 259
v -36 -26 289
v -56 -64 293
v -45 -64 293
v -30 -24 258
v -63 -64 261
v -63 -64 292
v -39 -45 173
v -22 -29 175
v -18 -25 150
v -27 -33 144
v -38 -44 146
v -38 -47 147
v -37 -50 174
v -26 -39 181
v -17 -31 177
v -16 -25 152
v -3 -2 199
v 7 8 202
v 14 12 186
v 5 3 180
v -3 -4 182
v -2 -8 185
v -2 -7 200
v 4 0 206
v 12 7 205
v 17 11 190
v -11 -17 173
v 11 4 173
v 14 7 149
v -1 -8 146
v -13 -20 149
v -14 -24 151
v -10 -24 175
v 2 -12 177
v 19 5 175
v 18 9 151
v 20 21 199
v 27 28 197
v 29 27 183
v 22 20 182
v 17 15 186
v 19 12 190
v 22 17 201
v 27 22 203
v 32 27 199
v 33 27 186
v -10 -9 240
v 3 4 245
v 12 10 217
v 3 1 210
v -7 -9 210
v -7 -13 213
v -8 -13 241
v 0 -4 250
v 10 5 250
v 17 11 220
v 15 16 248
v 23 24 247
v 25 23 233
v 18 16 231
v 14 12 235
v 15 9 239
v 17 12 250
v 22 17 253
v 28 23 249
v 29 23 236
v 18 19 224
v 24 25 223
v 26 24 209
v 21 19 207
v 17 15 211
v 18 12 215
v 19 15 226
v 24 19 229
v 29 24 225
v 30 24 212
v 64 56 0
v -56 -64 0
v -44 -64 179
v 64 44 179
v -31 -64 293
v -10 -13 134
v 23 11 133
v 24 14 111
v 7 6 110
v -7 -8 113
v -2 -17 114
v -6 -22 136
v 11 -6 141
v 27 11 135
v 29 13 113
v 28 20 133
v 39 30 136
v 44 33 120
v 37 25 114
v 29 18 116
v 29 14 119
v 29 16 134
v 35 21 140
v 44 30 139
v -22 -30 140
v -15 -23 138
v -14 -25 124
v -20 -31 123
v -25 -36 127
v -24 -39 131
v -21 -34 142
v -15 -29 144
v -10 -24 140
v -10 -25 127
v -36 -44 130
v -30 -38 129
v -29 -39 115
v -34 -44 113
v -38 -49 117
v -37 -51 121
v -35 -49 132
v -31 -44 135
v -26 -39 131
v -25 -40 118
v -53 -64 76
v 35 22 173
v 52 38 175
v 56 42 150
v 47 34 144
v 36 23 146
v 36 20 147
v 37 17 174
v 48 28 181
v 57 36 177
v 58 42 152
v 26 55 194
v -43 -18 187
v 58 21 231
v -26 -20 308
v 16 22 308
v -26 -20 268
v -27 -101 117
v 97 24 120
v -93 -34 67
v -46 -72 307
v -11 -17 307
v -73 -54 269
v 11 -8 296
v 64 29 296
v 11 64 285

f 1 2 3
f 1 3 4
f 1 4 5
f 1 5 6
f 1 6 7
f 1 7 2
f 8 9 10
f 8 10 11
f 12 13 10
f 12 10 9
f 12 9 8
f 12 8 14
f 15 16 17
f 15 17 18
f 15 18 19
f 15 19 20
f 15 20 21
f 15 21 16
f 22 23 24
f 22 24 25
f 26 27 24
f 26 24 23
f 26 23 22
f 26 22 28
f 29 30 31
f 29 31 32
f 29 32 33
f 29 33 34
f 29 34 35
f 29 35 36
f 29 36 37
f 29 37 30
f 30 37 31
f 31 37 38
f 39 40 41
f 39 41 42
f 39 42 43
f 39 43 44
f 39 44 45
f 39 45 40
f 46 47 48
f 46 48 49
f 46 49 50
f 46 50 51
f 52 53 54
f 52 54 55
f 52 55 47
f 52 47 56
f 52 56 57
f 52 57 53
f 53 57 54
f 54 57 43
f 58 59 60
f 58 60 61
f 61 60 62
f 61 62 63
f 64 62 60
f 64 60 59
f 65 66 67
f 65 67 68
f 65 68 69
f 65 69 64
f 70 69 68
f 70 68 67
f 70 67 71
f 71 67 66
f 72 73 74
f 72 74 75
f 72 75 76
f 72 76 71
f 77 76 75
f 77 75 74
f 78 79 80
f 78 80 81
f 78 81 82
f 78 82 83
f 78 83 84
f 78 84 79
f 85 86 87
f 85 87 88
f 89 90 87
f 89 87 86
f 89 86 85
f 89 85 91
f 92 93 94
f 92 94 95
f 92 95 90
f 92 90 96
f 92 96 97
f 92 97 93
f 93 97 94
f 94 97 82
f 98 99 100
f 98 100 101
f 101 100 102
f 101 102 103
f 103 102 104
f 104 102 105
f 104 105 106
f 104 106 107
f 107 106 108
f 107 108 109
f 109 108 110
f 109 110 111
f 111 110 112
f 112 110 113
f 112 113 114
f 112 114 115
f 115 114 116
f 115 116 117
f 117 116 118
f 117 118 119
f 119 118 120
f 119 120 121
f 121 120 122
f 122 120 123
f 122 123 124
f 124 123 125
f 124 125 126
f 124 126 127
f 128 102 100
f 128 100 99
f 129 130 131
f 129 131 132
f 129 132 102
f 129 102 128
f 133 102 132
f 133 132 131
f 133 131 134
f 133 134 135
f 133 135 136
f 133 136 137
f 133 137 138
f 133 138 105
f 133 105 102
f 134 131 139
f 139 131 130
f 135 140 141
f 135 141 136
f 136 141 137
f 142 143 144
f 142 144 145
f 142 145 146
f 142 146 147
f 142 147 148
f 142 148 149
f 142 149 150
f 142 150 143
f 143 150 144
f 144 150 151
f 152 153 154
f 152 154 155
f 152 155 156
f 152 156 157
f 152 157 158
f 152 158 159
f 152 159 160
f 152 160 153
f 153 160 154
f 154 160 161
f 162 163 164
f 162 164 165
f 162 165 166
f 162 166 167
f 162 167 168
f 162 168 169
f 162 169 170
f 162 170 163
f 163 170 164
f 164 170 171
f 172 173 174
f 172 174 175
f 172 175 176
f 172 176 177
f 172 177 178
f 172 178 179
f 172 179 180
f 172 180 173
f 173 180 174
f 174 180 181
f 182 183 184
f 182 184 185
f 182 185 186
f 182 186 187
f 182 187 188
f 182 188 189
f 182 189 190
f 182 190 183
f 183 190 184
f 184 190 191
f 192 193 194
f 192 194 195
f 192 195 196
f 192 196 197
f 192 197 198
f 192 198 199
f 192 199 200
f 192 200 193
f 193 200 194
f 194 200 201
f 202 203 204
f 202 204 205
f 202 205 206
f 202 206 207
f 202 207 208
f 202 208 209
f 202 209 210
f 202 210 203
f 203 210 204
f 204 210 211
f 212 213 77
f 212 77 63
f 63 77 51
f 63 51 45
f 45 51 214
f 45 214 215
f 215 214 28
f 215 28 21
f 21 28 14
f 21 14 7
f 7 14 137
f 7 137 103
f 216 113 110
f 216 110 108
f 138 106 105
f 217 218 219
f 217 219 220
f 217 220 221
f 217 221 222
f 217 222 223
f 217 223 224
f 217 224 225
f 217 225 218
f 218 225 219
f 219 225 226
f 227 228 229
f 227 229 230
f 227 230 231
f 227 231 232
f 227 232 233
f 227 233 234
f 227 234 235
f 227 235 228
f 228 235 229
f 236 237 238
f 236 238 239
f 236 239 240
f 236 240 241
f 236 241 242
f 236 242 243
f 236 243 244
f 236 244 237
f 237 244 238
f 238 244 245
f 246 247 248
f 246 248 249
f 246 249 250
f 246 250 251
f 246 251 252
f 246 252 253
f 246 253 254
f 246 254 247
f 247 254 248
f 248 254 255
f 50 49 48
f 50 48 256
f 257 258 259
f 257 259 260
f 257 260 261
f 257 261 262
f 257 262 263
f 257 263 264
f 257 264 265
f 257 265 258
f 258 265 259
f 259 265 266
f 267 268 269
f 270 271 272
