# RS2 Model 17933
# Vertices: 28
# Faces: 40

v -19 -59 5
v -18 -21 8
v 64 -21 -14
v 64 -57 -15
v -16 -59 18
v -16 -21 21
v 64 -22 -6
v 64 -52 -7
v -19 22 1
v -19 56 -1
v 64 52 -13
v 64 23 -9
v -16 19 19
v -16 58 15
v 64 53 -2
v 64 23 1
v -13 -19 1
v -14 18 5
v 36 17 -8
v 36 -17 -12
v -11 -21 15
v -12 16 19
v 40 16 1
v 63 12 -16
v 63 13 -31
v 63 -19 -26
v 39 -18 -2
v 63 -19 -21

f 1 2 3
f 1 3 4
f 1 4 5
f 1 5 2
f 2 5 6
f 2 6 7
f 2 7 3
f 6 5 8
f 6 8 7
f 5 4 8
f 9 10 11
f 9 11 12
f 9 12 13
f 9 13 10
f 10 13 14
f 10 14 15
f 10 15 11
f 14 13 16
f 14 16 15
f 13 12 16
f 17 18 19
f 17 19 20
f 17 20 21
f 17 21 18
f 18 21 22
f 18 22 23
f 18 23 19
f 19 23 24
f 19 24 25
f 19 25 20
f 20 25 26
f 20 26 27
f 20 27 21
f 21 27 22
f 22 27 23
f 23 27 28
f 23 28 24
f 24 28 26
f 24 26 25
f 26 28 27
