# RS2 Model 17934
# Vertices: 31
# Faces: 38

v 59 30 -30
v 59 58 -29
v 60 62 -15
v 60 24 -18
v -16 27 -7
v -17 28 -15
v -17 60 -14
v -15 59 -6
v -64 60 -6
v -64 25 -7
v -64 26 -15
v -64 61 -14
v 59 -62 -29
v 57 -23 -31
v 59 -23 -21
v 60 -62 -18
v -64 -58 1
v -64 -58 -9
v -64 -27 -13
v -64 -27 -2
v 57 -17 -34
v 59 21 -29
v 60 20 -20
v 59 -18 -25
v -64 -16 -2
v -64 -15 -12
v -64 19 -8
v -64 18 1
v 56 16 -39
v 59 14 -8
v 56 -13 -39

f 1 2 3
f 1 3 4
f 1 4 5
f 1 5 6
f 1 6 7
f 1 7 2
f 2 7 8
f 2 8 3
f 3 8 4
f 4 8 5
f 5 8 9
f 5 9 10
f 5 10 6
f 6 10 11
f 6 11 7
f 7 11 12
f 7 12 8
f 8 12 9
f 13 14 15
f 13 15 16
f 13 16 17
f 13 17 18
f 13 18 14
f 14 18 19
f 14 19 15
f 15 19 20
f 15 20 16
f 16 20 17
f 21 22 23
f 21 23 24
f 21 24 25
f 21 25 26
f 21 26 22
f 22 26 27
f 22 27 23
f 23 27 28
f 23 28 24
f 24 28 25
