# RS2 Model 17935
# Vertices: 28
# Faces: 38

v -13 -19 1
v -14 18 5
v 34 19 -8
v 34 -15 -12
v -11 -21 15
v -12 16 19
v 38 18 1
v 64 18 1
v 64 19 -8
v 64 -15 -12
v 37 -16 -2
v 64 -16 -2
v -19 -59 1
v -19 -25 -1
v 64 -27 -13
v 64 -58 -9
v -16 -62 19
v -16 -23 15
v 64 -27 -2
v 64 -58 1
v -19 23 5
v -18 61 8
v 64 61 -14
v 64 26 -15
v -16 23 18
v -16 61 21
v 64 60 -6
v 64 25 -7

f 1 2 3
f 1 3 4
f 1 4 5
f 1 5 2
f 2 5 6
f 2 6 7
f 2 7 3
f 3 7 8
f 3 8 9
f 3 9 4
f 4 9 10
f 4 10 11
f 4 11 5
f 5 11 6
f 6 11 7
f 7 11 12
f 7 12 8
f 13 14 15
f 13 15 16
f 13 16 17
f 13 17 14
f 14 17 18
f 14 18 19
f 14 19 15
f 18 17 20
f 18 20 19
f 17 16 20
f 11 10 12
f 21 22 23
f 21 23 24
f 21 24 25
f 21 25 22
f 22 25 26
f 22 26 27
f 22 27 23
f 26 25 28
f 26 28 27
f 25 24 28
