# RS2 Model 18005
# Vertices: 216
# Faces: 466

v 2 -12 328
v 2 -10 300
v 15 -11 329
v 5 -3 338
v -2 -12 328
v -2 -10 300
v -2 -8 292
v 2 -8 292
v 12 -10 300
v 17 4 300
v 18 -5 321
v 17 -3 337
v 7 5 339
v 19 7 337
v 0 10 334
v -7 5 339
v -19 7 337
v -18 -3 337
v -5 -3 338
v -15 -11 329
v -42 75 291
v -39 75 347
v -21 42 317
v -35 67 240
v -24 37 248
v -53 96 285
v -71 141 285
v -57 113 325
v -74 136 336
v -57 109 363
v -76 149 364
v -92 175 366
v -57 111 368
v -39 78 344
v -47 75 344
v -61 107 363
v -80 147 364
v -62 108 368
v -37 74 339
v -39 78 340
v -63 110 325
v -61 107 322
v -46 74 340
v -43 68 343
v -46 72 347
v -14 12 287
v -27 39 317
v -18 7 321
v -29 4 335
v -29 -2 335
v -18 -5 321
v -18 4 300
v -12 -10 300
v 21 42 317
v 39 75 347
v 42 75 291
v 35 67 240
v 24 37 248
v 14 12 287
v 53 96 285
v 57 113 325
v 71 141 285
v 74 136 336
v 57 109 363
v 76 149 364
v -45 74 291
v -44 70 339
v -27 39 312
v -36 72 343
v -39 76 291
v -41 81 289
v -47 78 289
v -57 110 322
v -83 159 264
v -78 138 285
v -40 65 240
v -21 42 312
v 0 9 320
v -36 62 212
v 21 42 312
v 18 7 321
v -22 6 304
v -35 6 304
v -35 -4 304
v -22 -4 304
v -25 5 287
v -36 5 287
v -36 -3 287
v -25 -3 287
v -28 4 276
v -34 4 276
v -34 0 276
v -28 0 276
v -29 -2 269
v -29 4 269
v -37 4 269
v -37 -2 269
v 44 70 339
v 45 74 291
v 46 74 340
v 43 68 343
v 27 39 312
v 37 74 339
v 39 76 291
v 40 65 240
v 47 78 289
v 39 78 340
v 57 110 322
v 61 107 322
v 47 75 344
v 46 72 347
v 36 72 343
v 27 39 317
v 41 81 289
v 36 62 212
v 39 78 344
v 63 110 325
v 57 111 368
v 61 107 363
v 62 108 368
v 78 138 285
v 83 159 264
v 92 175 366
v 80 147 364
v 35 6 304
v 25 5 287
v 22 6 304
v 29 4 335
v 35 -4 304
v 36 -3 287
v 36 5 287
v 34 4 276
v 28 4 276
v 25 -3 287
v 22 -4 304
v 29 -2 335
v 28 0 276
v 34 0 276
v 37 4 269
v 28 4 269
v 28 -2 269
v 37 -2 269
v 34 3 263
v 29 3 263
v 31 -1 262
v -30 3 264
v -36 3 264
v -33 -1 261
v -18 14 283
v -20 9 270
v -15 -8 280
v -16 7 290
v 18 14 283
v 0 13 274
v -15 4 237
v -15 -10 234
v -2 -10 234
v 0 -7 274
v 15 -8 280
v -12 -8 292
v 16 7 290
v 21 9 270
v 3 5 237
v -2 4 237
v -16 9 225
v -11 -3 194
v -4 -3 194
v -4 5 195
v -2 9 225
v -11 5 195
v -12 6 186
v -11 -4 184
v -4 -4 184
v -3 6 186
v 3 -11 234
v 16 -11 234
v 16 5 237
v 3 9 225
v 17 9 225
v 5 5 195
v 5 -3 194
v 12 -3 194
v 12 5 195
v 13 6 186
v 4 6 186
v 5 -4 184
v 12 -4 184
v 13 -4 171
v 11 2 171
v 11 8 171
v 6 8 171
v 3 -4 171
v 5 -16 171
v 11 -16 171
v 5 2 171
v -12 -4 171
v -10 -16 171
v -4 -16 171
v -2 -4 171
v -4 2 171
v -5 8 171
v -10 8 171
v -10 2 171
v 12 -8 292
v 23 14 263
v -23 14 263
v 21 -8 266
v 24 1 224
v 26 16 227
v -26 16 227
v -21 -8 266
v -24 1 224
v -32 20 188
v 32 20 188
v -29 20 178
v 29 20 178

f 1 2 3
f 1 3 4
f 1 4 5
f 1 5 2
f 2 5 6
f 2 6 7
f 2 7 8
f 2 8 9
f 2 9 3
f 3 9 10
f 3 10 11
f 3 11 12
f 3 12 4
f 4 12 13
f 13 12 14
f 13 14 15
f 13 15 16
f 16 15 17
f 16 17 18
f 16 18 19
f 19 18 20
f 19 20 5
f 19 5 4
f 21 22 23
f 21 23 24
f 21 24 25
f 21 25 22
f 21 22 26
f 21 26 24
f 21 24 26
f 21 26 22
f 22 26 27
f 22 27 28
f 22 28 26
f 26 28 27
f 27 28 29
f 27 29 28
f 28 29 30
f 28 30 22
f 28 22 29
f 29 22 30
f 29 30 31
f 29 31 30
f 30 31 32
f 30 32 33
f 30 33 34
f 30 34 35
f 30 35 36
f 30 36 31
f 31 36 37
f 31 37 32
f 32 37 38
f 32 38 33
f 33 38 22
f 33 22 34
f 34 22 39
f 34 39 40
f 34 40 28
f 34 28 41
f 34 41 35
f 35 41 42
f 35 42 43
f 35 43 44
f 35 44 45
f 35 45 36
f 36 45 38
f 36 38 37
f 23 46 25
f 23 25 46
f 23 46 17
f 23 17 46
f 17 23 47
f 17 47 48
f 17 48 49
f 17 49 18
f 18 49 50
f 18 50 51
f 18 51 20
f 20 51 52
f 20 52 53
f 20 53 6
f 20 6 5
f 25 24 23
f 25 23 22
f 54 55 56
f 54 56 57
f 54 57 58
f 54 58 59
f 54 59 58
f 54 58 55
f 55 58 56
f 55 56 60
f 55 60 61
f 55 61 62
f 55 62 60
f 55 60 56
f 56 60 57
f 56 57 60
f 57 56 58
f 60 62 61
f 61 62 63
f 61 63 62
f 63 61 64
f 63 64 65
f 63 65 64
f 63 64 55
f 63 55 61
f 61 55 64
f 59 54 14
f 59 14 54
f 43 66 67
f 43 67 44
f 44 67 68
f 44 68 47
f 44 47 69
f 44 69 22
f 44 22 45
f 45 22 38
f 39 70 71
f 39 71 40
f 40 71 72
f 40 72 43
f 40 43 73
f 40 73 28
f 28 73 74
f 28 74 41
f 41 74 75
f 41 75 42
f 42 75 27
f 42 27 73
f 42 73 43
f 43 72 66
f 66 72 76
f 66 76 24
f 66 24 70
f 66 70 67
f 67 70 39
f 67 39 77
f 67 77 68
f 68 77 78
f 68 78 48
f 68 48 47
f 72 79 76
f 76 79 24
f 24 79 70
f 70 79 71
f 71 79 72
f 73 27 74
f 74 27 75
f 39 22 69
f 39 69 23
f 39 23 77
f 77 23 15
f 77 15 78
f 78 15 54
f 78 54 80
f 78 80 81
f 78 81 10
f 78 10 52
f 78 52 48
f 48 52 51
f 48 51 82
f 48 82 83
f 48 83 49
f 49 83 84
f 49 84 50
f 50 84 85
f 50 85 51
f 51 85 82
f 82 85 86
f 82 86 83
f 83 86 87
f 83 87 88
f 83 88 84
f 84 88 85
f 85 88 89
f 85 89 86
f 86 89 90
f 86 90 87
f 87 90 91
f 87 91 88
f 88 91 92
f 88 92 89
f 89 92 93
f 89 93 90
f 90 93 94
f 90 94 95
f 90 95 96
f 90 96 91
f 91 96 92
f 92 96 97
f 92 97 94
f 92 94 93
f 47 23 69
f 23 17 15
f 98 99 100
f 98 100 101
f 98 101 102
f 98 102 80
f 98 80 103
f 98 103 104
f 98 104 99
f 99 104 57
f 99 57 105
f 99 105 106
f 99 106 100
f 100 106 107
f 100 107 108
f 100 108 109
f 100 109 110
f 100 110 101
f 101 110 111
f 101 111 112
f 101 112 113
f 101 113 102
f 102 113 14
f 102 14 81
f 102 81 80
f 114 104 103
f 114 103 107
f 114 107 106
f 114 106 115
f 114 115 104
f 104 115 57
f 57 115 105
f 105 115 106
f 116 110 117
f 116 117 61
f 116 61 107
f 116 107 103
f 116 103 55
f 116 55 118
f 116 118 64
f 116 64 110
f 110 64 119
f 110 119 111
f 111 119 120
f 111 120 55
f 111 55 112
f 112 55 103
f 112 103 54
f 112 54 113
f 113 54 15
f 113 15 14
f 109 117 110
f 117 109 121
f 117 121 122
f 117 122 61
f 61 122 108
f 61 108 107
f 122 62 108
f 108 62 109
f 109 62 121
f 121 62 122
f 118 55 120
f 118 120 123
f 118 123 64
f 64 123 65
f 64 65 119
f 119 65 124
f 119 124 120
f 120 124 123
f 123 124 65
f 103 80 54
f 125 126 127
f 125 127 81
f 125 81 128
f 125 128 129
f 125 129 130
f 125 130 131
f 125 131 126
f 126 131 132
f 126 132 133
f 126 133 134
f 126 134 127
f 127 134 135
f 127 135 11
f 127 11 81
f 81 11 10
f 135 134 130
f 135 130 129
f 135 129 136
f 135 136 11
f 11 136 12
f 12 136 128
f 12 128 14
f 14 128 81
f 134 133 137
f 134 137 130
f 130 137 138
f 130 138 131
f 131 138 132
f 132 138 139
f 132 139 133
f 133 139 140
f 133 140 141
f 133 141 137
f 137 141 138
f 138 141 142
f 138 142 139
f 139 142 143
f 139 143 140
f 140 143 144
f 140 144 145
f 140 145 141
f 141 145 142
f 142 145 143
f 143 145 144
f 95 146 147
f 95 147 96
f 96 147 97
f 97 147 148
f 97 148 94
f 94 148 95
f 95 148 146
f 146 148 147
f 149 150 151
f 149 151 152
f 149 152 153
f 149 153 154
f 149 154 150
f 150 154 155
f 150 155 156
f 150 156 151
f 151 156 157
f 151 157 158
f 151 158 159
f 151 159 8
f 151 8 7
f 151 7 160
f 151 160 152
f 152 160 53
f 152 53 52
f 152 52 161
f 152 161 153
f 153 161 159
f 153 159 162
f 153 162 154
f 154 162 163
f 154 163 158
f 154 158 157
f 154 157 164
f 154 164 155
f 155 164 165
f 155 165 156
f 156 165 166
f 156 166 157
f 157 166 167
f 157 167 168
f 157 168 169
f 157 169 164
f 164 169 165
f 165 169 168
f 165 168 170
f 165 170 166
f 166 170 171
f 166 171 172
f 166 172 167
f 167 172 173
f 167 173 174
f 167 174 168
f 168 174 171
f 168 171 170
f 158 175 159
f 159 175 176
f 159 176 162
f 162 176 177
f 162 177 163
f 163 177 178
f 163 178 175
f 163 175 158
f 177 179 178
f 178 179 180
f 178 180 175
f 175 180 181
f 175 181 182
f 175 182 176
f 176 182 179
f 176 179 177
f 179 183 180
f 180 183 184
f 180 184 185
f 180 185 181
f 181 185 186
f 181 186 187
f 181 187 182
f 182 187 184
f 182 184 183
f 182 183 179
f 187 188 184
f 184 188 189
f 184 189 190
f 184 190 185
f 185 190 191
f 185 191 192
f 185 192 186
f 186 192 193
f 186 193 194
f 186 194 187
f 187 194 188
f 188 194 192
f 188 192 195
f 188 195 189
f 192 194 193
f 191 195 192
f 171 196 172
f 172 196 197
f 172 197 173
f 173 197 198
f 173 198 199
f 173 199 174
f 174 199 200
f 174 200 201
f 174 201 171
f 171 201 202
f 171 202 196
f 196 202 203
f 196 203 199
f 196 199 197
f 197 199 198
f 199 203 200
f 161 10 9
f 161 9 204
f 161 204 159
f 159 204 8
f 8 204 9
f 52 10 161
f 129 128 136
f 205 206 149
f 205 149 153
f 205 153 207
f 205 207 208
f 205 208 209
f 205 209 206
f 205 206 210
f 205 210 209
f 205 209 207
f 205 207 159
f 205 159 153
f 205 153 206
f 206 153 149
f 206 149 211
f 206 211 151
f 206 151 149
f 149 151 211
f 207 153 159
f 209 210 206
f 206 210 211
f 206 211 212
f 206 212 210
f 210 212 211
f 212 210 213
f 212 213 210
f 210 213 209
f 210 209 214
f 210 214 213
f 213 214 209
f 209 214 208
f 209 208 214
f 207 209 208
f 6 53 160
f 6 160 7
f 214 213 215
f 214 215 216
f 214 216 213
f 213 216 215
