# RS2 Model 18018
# Vertices: 84
# Faces: 79

v -5 -14 12
v -3 -21 11
v -2 -14 12
v -8 -14 12
v -7 -23 11
v -13 -14 12
v -11 -17 12
v -13 -15 7
v -13 -23 9
v -13 -15 2
v -13 -22 4
v -10 -25 1
v -9 -15 2
v -6 -25 1
v -5 -15 2
v -3 -22 1
v -2 -15 2
v -2 -14 6
v -1 -23 4
v -1 -24 6
v 9 60 14
v 12 61 6
v -13 61 6
v -10 60 14
v -10 56 16
v 9 56 16
v 12 57 4
v -13 57 4
v -16 47 0
v -18 35 2
v -15 46 12
v 0 41 16
v 15 46 12
v 16 47 0
v 18 35 2
v 12 -4 12
v 12 0 6
v 14 -14 12
v 14 -15 2
v 14 -26 10
v 14 -27 2
v 3 -15 2
v 5 -27 2
v 3 -14 12
v 4 -4 12
v 4 0 6
v 0 43 0
v -3 -4 12
v -3 0 6
v -11 0 6
v -11 -4 12
v 5 -26 10
v 6 28 3
v 11 24 4
v 10 13 4
v 5 18 3
v 15 18 10
v 15 18 8
v 16 23 5
v 16 22 8
v -8 14 4
v -5 17 4
v -6 9 4
v -9 9 4
v -13 11 5
v -12 6 7
v -14 15 10
v -14 14 7
v 7 -33 10
v 8 -26 10
v 9 -35 10
v 11 -26 10
v 13 -29 10
v 14 -35 9
v 14 -27 6
v 14 -34 4
v 10 -27 2
v 12 -37 2
v 8 -27 2
v 9 -37 2
v 7 -34 2
v 5 -26 6
v 4 -35 4
v 4 -36 8

f 1 2 3
f 4 5 1
f 6 7 4
f 8 9 6
f 10 11 8
f 10 12 13
f 13 14 15
f 15 16 17
f 18 19 17
f 3 20 18
f 21 22 23
f 21 23 24
f 21 24 25
f 21 25 26
f 21 26 27
f 21 27 22
f 28 25 24
f 28 24 23
f 29 30 31
f 29 31 25
f 29 25 28
f 25 31 32
f 25 32 26
f 26 32 33
f 26 33 34
f 26 34 27
f 33 35 34
f 35 33 36
f 35 36 37
f 37 36 38
f 37 38 39
f 39 38 40
f 39 40 41
f 39 41 42
f 42 41 43
f 42 43 44
f 42 44 45
f 42 45 46
f 46 45 32
f 46 32 47
f 47 32 48
f 47 48 49
f 49 48 3
f 49 3 17
f 10 17 49
f 10 49 50
f 3 48 51
f 3 51 6
f 6 51 10
f 10 51 50
f 50 51 30
f 30 51 31
f 31 51 48
f 31 48 32
f 38 36 45
f 38 45 44
f 38 44 52
f 38 52 40
f 32 45 33
f 33 45 36
f 53 54 55
f 53 55 56
f 57 58 59
f 57 59 60
f 61 62 63
f 61 63 64
f 65 66 67
f 65 67 68
f 52 69 70
f 70 71 72
f 72 73 40
f 40 74 75
f 75 76 41
f 77 78 41
f 79 80 77
f 43 81 79
f 82 83 43
f 82 84 52
f 44 43 52
