# RS2 Model 18051
# Vertices: 166
# Faces: 261

v -16 -48 16
v 0 -48 20
v -12 -48 28
v -21 -48 30
v -23 -47 20
v -32 -40 8
v -12 -48 0
v 0 -68 1
v 12 -48 0
v 16 -48 16
v 12 -48 28
v 0 -52 32
v -12 -56 36
v -32 -45 32
v -32 -37 24
v -36 -28 24
v -36 -24 8
v -26 -32 -3
v -16 -44 -6
v -8 -48 -6
v 0 -48 0
v 8 -48 -6
v 16 -44 -6
v 32 -40 8
v 23 -47 20
v 21 -48 30
v 12 -56 36
v 0 -48 51
v -16 -48 48
v -33 -8 51
v -36 -8 48
v 32 -45 32
v 19 -48 48
v 0 -38 59
v -18 -38 55
v -14 -9 62
v -9 0 66
v -32 32 32
v -36 0 37
v -36 -16 16
v -36 -16 8
v -36 -16 0
v -24 -32 -8
v -16 -46 -12
v -8 -50 -12
v 25 42 -48
v 22 35 -20
v 16 -9 -40
v 25 -12 -56
v -24 -12 -56
v -16 -9 -40
v -24 42 -48
v -22 35 -20
v 12 -44 -32
v 8 -48 -24
v 4 -48 -32
v 0 -47 -45
v 0 -40 -53
v 16 -28 -50
v 18 -28 -31
v 24 -24 -24
v -18 -28 -31
v -6 -44 -32
v 6 -44 -32
v -4 -48 -32
v -8 -48 -24
v -12 -44 -32
v -16 -28 -50
v -24 -24 -24
v -36 -8 -4
v -32 8 -12
v -24 33 0
v 24 33 0
v 32 8 -12
v 36 -8 -4
v 36 -16 0
v 32 -37 24
v 36 -28 24
v 39 -8 48
v 36 -8 51
v 21 -38 55
v 0 -9 66
v -27 -13 67
v -32 -38 64
v -36 -13 58
v -37 -22 76
v -27 -21 82
v -32 -40 72
v -31 -63 81
v -30 -48 95
v -24 -45 88
v -10 -67 87
v -20 -85 80
v -13 -73 90
v -9 -88 81
v 36 -24 8
v 36 -16 16
v 36 0 37
v 32 32 32
v 12 0 66
v 17 -9 62
v 0 0 68
v 36 8 12
v 44 8 12
v 36 -16 8
v 26 -32 -3
v 24 -32 -8
v 16 -46 -12
v 8 -50 -12
v 8 -45 -28
v 16 -42 -10
v 8 -41 -10
v -8 -41 -10
v -8 -45 -28
v -16 -42 -10
v -36 8 12
v -44 8 12
v -41 0 40
v 44 -16 16
v 40 0 41
v -44 -16 16
v 0 40 32
v 0 28 52
v 35 -38 64
v 30 -13 67
v 39 -9 58
v 40 -22 76
v 35 -40 72
v 30 -21 82
v 27 -45 88
v 33 -48 95
v 34 -63 81
v 23 -80 80
v 13 -62 87
v 16 -73 90
v 12 -83 81
v -63 -40 82
v -91 -37 30
v 59 -53 17
v 25 -7 -7
v -23 -7 -7
v 23 -59 -41
v 59 1 63
v 7 4 63
v 63 -17 -12
v -54 4 55
v -24 0 55
v -54 2 -16
v 58 58 52
v 58 2 87
v 27 0 -34
v 110 -33 23
v 64 -40 106
v -28 -48 -64
v -86 -137 48
v 48 -155 48
v -47 133 72
v -52 -13 61
v -52 43 27
v -31 -48 11
v -3 10 67
v -59 10 73
v -13 -24 -18
v 18 0 73
v 57 4 73
v 15 -4 -14

f 1 2 3
f 1 3 4
f 1 4 5
f 1 5 6
f 1 6 7
f 1 7 2
f 2 7 8
f 2 8 9
f 2 9 10
f 2 10 11
f 2 11 12
f 2 12 3
f 3 12 13
f 3 13 4
f 4 13 14
f 4 14 5
f 5 14 15
f 5 15 6
f 6 15 16
f 6 16 17
f 6 17 18
f 6 18 7
f 7 18 19
f 7 19 20
f 7 20 21
f 7 21 8
f 8 21 9
f 9 21 22
f 9 22 23
f 9 23 24
f 9 24 10
f 10 24 25
f 10 25 11
f 11 25 26
f 11 26 27
f 11 27 12
f 12 27 28
f 12 28 13
f 13 28 29
f 13 29 14
f 14 29 30
f 14 30 31
f 14 31 16
f 14 16 15
f 25 32 26
f 26 32 27
f 27 32 33
f 27 33 28
f 28 33 34
f 28 34 35
f 28 35 29
f 29 35 30
f 30 35 36
f 30 36 37
f 30 37 31
f 31 37 38
f 31 38 39
f 31 39 40
f 31 40 16
f 16 40 17
f 17 40 41
f 17 41 42
f 17 42 18
f 18 42 43
f 18 43 19
f 19 43 44
f 19 44 20
f 20 44 45
f 20 45 22
f 20 22 21
f 46 47 48
f 46 48 49
f 49 48 50
f 50 48 51
f 50 51 52
f 52 51 53
f 52 53 47
f 52 47 46
f 54 55 56
f 54 56 57
f 54 57 58
f 54 58 59
f 54 59 60
f 60 59 61
f 60 61 62
f 60 62 63
f 60 63 64
f 64 63 65
f 64 65 56
f 64 56 55
f 64 55 54
f 65 66 67
f 65 67 57
f 65 57 56
f 58 57 67
f 58 67 68
f 68 67 62
f 68 62 69
f 68 69 51
f 51 69 42
f 51 42 70
f 51 70 71
f 51 71 53
f 53 71 72
f 53 72 47
f 47 72 73
f 47 73 74
f 47 74 48
f 48 74 75
f 48 75 76
f 48 76 61
f 48 61 59
f 76 42 69
f 76 69 61
f 61 69 62
f 32 77 78
f 32 78 79
f 32 79 80
f 32 80 33
f 33 80 81
f 33 81 34
f 34 81 82
f 34 82 36
f 34 36 35
f 35 36 83
f 35 83 84
f 35 84 30
f 30 84 85
f 30 85 36
f 36 85 83
f 83 85 86
f 83 86 87
f 83 87 84
f 84 87 88
f 84 88 85
f 85 88 86
f 86 88 89
f 86 89 90
f 86 90 87
f 87 90 91
f 87 91 88
f 88 91 89
f 89 91 92
f 89 92 93
f 89 93 90
f 90 93 94
f 90 94 91
f 91 94 92
f 92 94 95
f 92 95 93
f 93 95 94
f 24 78 77
f 24 77 25
f 25 77 32
f 78 24 96
f 78 96 97
f 78 97 79
f 79 97 98
f 79 98 99
f 79 99 100
f 79 100 101
f 79 101 80
f 80 101 81
f 81 101 82
f 82 101 102
f 82 102 37
f 82 37 36
f 75 74 103
f 75 103 104
f 75 104 76
f 76 104 105
f 76 105 96
f 76 96 106
f 76 106 107
f 107 106 108
f 108 106 23
f 108 23 109
f 108 109 110
f 108 110 111
f 111 110 112
f 112 110 109
f 112 109 113
f 113 109 45
f 113 45 114
f 113 114 115
f 115 114 44
f 44 114 45
f 116 71 70
f 116 70 117
f 116 117 118
f 116 118 39
f 116 39 38
f 116 38 72
f 116 72 71
f 119 104 120
f 119 120 98
f 119 98 97
f 119 97 105
f 119 105 104
f 103 98 120
f 103 120 104
f 118 117 121
f 118 121 39
f 39 121 40
f 40 121 41
f 41 121 117
f 41 117 42
f 42 117 70
f 122 38 123
f 122 123 99
f 122 99 73
f 122 73 72
f 122 72 38
f 103 74 73
f 103 73 99
f 103 99 98
f 38 37 123
f 123 37 102
f 123 102 100
f 123 100 99
f 97 96 105
f 124 125 101
f 124 101 81
f 124 81 126
f 124 126 127
f 124 127 128
f 124 128 125
f 125 128 129
f 125 129 126
f 125 126 80
f 125 80 101
f 126 81 80
f 129 127 126
f 127 129 130
f 127 130 131
f 127 131 128
f 128 131 132
f 128 132 129
f 129 132 130
f 130 132 133
f 130 133 134
f 130 134 131
f 131 134 135
f 131 135 132
f 132 135 133
f 133 135 136
f 133 136 134
f 134 136 135
f 67 66 63
f 67 63 62
f 63 66 65
f 23 22 109
f 109 22 45
f 24 23 106
f 24 106 96
f 102 101 100
f 54 64 60
f 137 138 139
f 140 141 142
f 143 144 145
f 146 147 148
