# RS2 Model 18151
# Vertices: 154
# Faces: 238

v 87 -212 0
v -8 -200 0
v -5 -216 0
v -116 -216 0
v -8 -184 2
v -117 -184 2
v -176 -194 0
v -155 -221 0
v -168 -216 0
v 91 -201 0
v 91 -184 2
v 91 -170 2
v -8 -170 2
v -117 -170 2
v -176 -184 2
v -204 -204 0
v -180 -216 0
v -204 -216 0
v -242 -206 0
v -239 -211 0
v 179 -199 0
v 191 -219 0
v 207 -214 0
v 209 -195 0
v 209 -184 2
v 179 -184 2
v 147 -204 0
v 183 -221 0
v 147 -216 0
v 95 -211 0
v 139 -216 0
v 147 -184 2
v 147 -170 2
v 147 -157 2
v 91 -157 2
v -8 -157 2
v -117 -157 2
v -176 -170 2
v -204 -184 2
v -242 -184 2
v -204 -170 2
v -242 -170 2
v -204 -157 2
v -242 -157 2
v -204 -149 2
v -242 -149 2
v -204 -144 2
v -242 -144 2
v -204 -140 2
v -242 -140 2
v -204 -128 2
v -242 -128 2
v 179 -170 2
v 179 -157 2
v 179 -149 2
v 147 -149 2
v 91 -149 2
v -8 -149 2
v -117 -149 2
v -176 -157 2
v 209 -170 2
v 209 -157 2
v 209 -149 2
v 209 -144 2
v 179 -144 2
v 147 -144 2
v 91 -144 2
v -8 -144 2
v -117 -144 2
v -176 -149 2
v -176 -144 2
v -176 -140 2
v -176 -128 2
v -117 -140 2
v -117 -128 2
v 91 -140 2
v -8 -140 2
v -8 -128 2
v 209 -140 2
v 179 -140 2
v 147 -140 2
v 147 -128 2
v 91 -128 2
v 209 -128 2
v 179 -128 2
v -5 131 0
v -72 130 0
v -70 105 0
v -6 115 0
v 75 123 0
v 143 115 0
v 103 133 0
v 139 133 0
v -150 135 0
v -184 127 0
v -72 129 0
v -176 115 0
v 175 115 0
v 207 115 0
v -208 102 0
v -236 115 0
v 195 131 0
v 171 133 0
v 175 83 3
v 207 83 3
v 175 70 3
v 207 70 3
v 175 62 3
v 207 62 3
v 175 57 3
v 207 57 3
v 175 54 3
v 207 54 3
v 145 133 0
v 143 83 3
v 143 70 3
v 143 62 3
v 143 57 3
v 143 54 3
v -212 132 0
v -236 83 3
v -208 83 3
v -204 128 0
v -70 83 3
v -6 83 3
v 75 83 3
v 75 70 3
v 75 62 3
v 75 57 3
v 75 54 3
v -176 83 3
v -176 70 3
v -70 70 3
v -6 70 3
v -6 62 3
v -6 57 3
v -6 54 3
v -236 70 3
v -208 70 3
v -208 62 3
v -176 62 3
v -70 62 3
v -70 57 3
v -70 54 3
v -236 62 3
v -236 57 0
v -208 57 3
v -176 57 3
v -176 54 3
v -236 54 0
v -208 54 3
v -144 67 0
v -146 -179 0
v 125 63 0

f 1 2 3
f 3 2 4
f 4 2 5
f 4 5 6
f 4 6 7
f 4 7 8
f 8 7 9
f 2 1 10
f 2 10 11
f 2 11 5
f 5 11 12
f 5 12 13
f 5 13 6
f 6 13 14
f 6 14 15
f 6 15 7
f 7 15 16
f 7 16 17
f 17 16 18
f 18 16 19
f 18 19 20
f 21 22 23
f 21 23 24
f 21 24 25
f 21 25 26
f 21 26 27
f 21 27 28
f 28 27 29
f 10 30 31
f 10 31 27
f 10 27 32
f 10 32 11
f 11 32 33
f 11 33 12
f 12 33 34
f 12 34 35
f 12 35 13
f 13 35 36
f 13 36 14
f 14 36 37
f 14 37 38
f 14 38 15
f 15 38 39
f 15 39 16
f 16 39 19
f 19 39 40
f 40 39 41
f 40 41 42
f 42 41 43
f 42 43 44
f 44 43 45
f 44 45 46
f 46 45 47
f 46 47 48
f 48 47 49
f 48 49 50
f 50 49 51
f 50 51 52
f 27 26 32
f 32 26 53
f 32 53 33
f 33 53 54
f 33 54 34
f 34 54 55
f 34 55 56
f 34 56 35
f 35 56 57
f 35 57 36
f 36 57 58
f 36 58 37
f 37 58 59
f 37 59 60
f 37 60 38
f 38 60 41
f 38 41 39
f 26 25 61
f 26 61 53
f 53 61 62
f 53 62 54
f 54 62 63
f 54 63 55
f 55 63 64
f 55 64 65
f 55 65 56
f 56 65 66
f 56 66 57
f 57 66 67
f 57 67 58
f 58 67 68
f 58 68 59
f 59 68 69
f 59 69 70
f 59 70 60
f 60 70 43
f 60 43 41
f 43 70 45
f 45 70 71
f 45 71 47
f 47 71 72
f 47 72 49
f 49 72 73
f 49 73 51
f 70 69 71
f 71 69 74
f 71 74 72
f 72 74 75
f 72 75 73
f 68 67 76
f 68 76 77
f 68 77 69
f 69 77 74
f 74 77 78
f 74 78 75
f 65 64 79
f 65 79 80
f 65 80 66
f 66 80 81
f 66 81 67
f 67 81 76
f 76 81 82
f 76 82 83
f 76 83 77
f 77 83 78
f 80 79 84
f 80 84 85
f 80 85 81
f 81 85 82
f 86 87 88
f 86 88 89
f 86 89 90
f 90 89 2
f 90 2 10
f 90 10 27
f 90 27 91
f 90 91 92
f 92 91 93
f 94 95 96
f 96 95 88
f 88 95 97
f 88 97 4
f 88 4 89
f 89 4 2
f 21 98 91
f 21 91 27
f 24 99 98
f 24 98 21
f 16 100 101
f 16 101 19
f 7 97 100
f 7 100 16
f 4 97 7
f 99 102 103
f 99 103 98
f 99 98 104
f 99 104 105
f 105 104 106
f 105 106 107
f 107 106 108
f 107 108 109
f 109 108 110
f 109 110 111
f 111 110 112
f 111 112 113
f 98 103 114
f 98 114 91
f 98 91 115
f 98 115 104
f 104 115 116
f 104 116 106
f 106 116 117
f 106 117 108
f 108 117 118
f 108 118 110
f 110 118 119
f 110 119 112
f 100 120 101
f 100 101 121
f 100 121 122
f 100 122 97
f 100 97 123
f 123 97 95
f 89 88 124
f 89 124 125
f 89 125 90
f 90 125 126
f 90 126 91
f 91 126 115
f 115 126 127
f 115 127 116
f 116 127 128
f 116 128 117
f 117 128 129
f 117 129 118
f 118 129 130
f 118 130 119
f 97 122 131
f 97 131 88
f 88 131 124
f 124 131 132
f 124 132 133
f 124 133 125
f 125 133 134
f 125 134 126
f 126 134 127
f 127 134 135
f 127 135 128
f 128 135 136
f 128 136 129
f 129 136 137
f 129 137 130
f 122 121 138
f 122 138 139
f 122 139 131
f 131 139 132
f 132 139 140
f 132 140 141
f 132 141 133
f 133 141 142
f 133 142 134
f 134 142 135
f 135 142 143
f 135 143 136
f 136 143 144
f 136 144 137
f 139 138 145
f 139 145 140
f 140 145 146
f 140 146 147
f 140 147 141
f 141 147 148
f 141 148 142
f 142 148 143
f 143 148 149
f 143 149 144
f 147 146 150
f 147 150 151
f 147 151 148
f 148 151 149
