# RS2 Model 18171
# Vertices: 166
# Faces: 316

v -44 51 136
v -64 49 136
v -63 51 159
v -44 50 156
v -25 51 159
v -24 50 136
v -25 50 113
v -42 51 113
v -42 44 113
v -44 43 136
v -47 50 113
v -64 50 113
v -63 44 113
v -63 44 136
v -63 44 159
v -44 45 156
v -25 44 159
v -24 45 136
v -25 44 113
v -28 51 90
v -43 51 90
v -43 44 90
v -46 44 113
v -46 50 90
v -63 51 90
v -63 45 90
v -46 44 90
v -46 51 67
v -63 51 67
v -63 45 67
v -46 45 67
v -26 51 68
v -43 51 67
v -26 45 90
v -25 44 67
v -43 44 67
v -122 51 154
v -129 51 149
v -128 50 163
v -123 50 163
v -123 46 163
v -122 47 150
v -113 51 151
v -128 50 138
v -128 46 138
v -129 47 149
v -128 46 163
v -113 46 144
v -101 51 154
v -96 50 138
v -112 50 124
v -129 50 125
v -129 46 125
v -112 45 124
v -96 46 138
v -101 47 150
v -101 50 163
v -95 51 151
v -95 47 151
v -94 51 123
v -96 50 110
v -112 51 108
v -128 51 109
v -128 47 109
v -112 46 108
v -96 46 110
v -94 47 123
v -96 50 163
v -96 46 163
v -101 46 163
v 13 51 157
v 4 51 140
v 2 50 153
v 12 50 159
v 12 46 159
v 13 47 153
v 22 51 154
v 7 50 134
v -2 51 132
v -8 50 141
v 2 46 153
v 4 47 140
v 7 46 134
v 22 46 147
v 34 51 157
v 39 50 134
v 23 50 128
v 7 50 127
v 7 46 127
v 5 46 127
v 5 50 127
v -2 47 132
v -8 46 141
v 46 50 151
v 44 51 142
v 34 50 159
v 34 46 159
v 46 46 151
v 52 46 135
v 52 50 135
v 47 51 130
v 39 51 128
v 40 50 113
v 22 51 114
v 6 51 115
v 6 47 115
v 23 45 128
v 39 46 134
v 34 47 153
v 44 47 142
v 47 47 130
v 42 46 126
v 42 50 126
v 39 47 128
v 40 46 113
v 39 46 99
v 39 50 99
v 22 51 99
v 6 51 101
v 6 47 101
v 22 46 99
v 22 46 114
v 85 51 138
v 65 49 143
v 66 51 161
v 85 50 158
v 104 51 161
v 104 50 142
v 104 49 128
v 86 51 126
v 86 44 126
v 85 43 138
v 83 50 126
v 64 49 126
v 65 44 126
v 66 44 143
v 66 44 161
v 85 45 158
v 104 44 161
v 104 45 142
v 105 45 126
v 104 50 115
v 87 51 115
v 87 44 115
v 104 44 115
v 84 44 126
v 82 50 115
v 65 50 115
v 66 44 115
v 83 44 115
v 78 49 112
v 69 50 112
v 69 46 112
v 78 45 112
v 82 51 108
v 65 51 108
v 65 45 108
v 82 45 108
v 98 50 111
v 91 50 111
v 91 46 111
v 99 46 111
v 104 51 109
v 87 51 108
v 105 44 108
v 87 44 108

f 1 2 3
f 1 3 4
f 1 4 5
f 1 5 6
f 1 6 7
f 1 7 8
f 1 8 9
f 1 9 10
f 1 10 11
f 1 11 12
f 1 12 2
f 2 12 13
f 2 13 14
f 2 14 3
f 3 14 15
f 3 15 4
f 4 15 16
f 4 16 5
f 5 16 17
f 5 17 6
f 6 17 18
f 6 18 7
f 7 18 19
f 7 19 20
f 7 20 21
f 7 21 8
f 8 21 22
f 8 22 9
f 9 22 19
f 9 19 10
f 10 19 18
f 10 18 17
f 10 17 16
f 10 16 15
f 10 15 14
f 10 14 13
f 10 13 23
f 10 23 11
f 11 23 24
f 11 24 12
f 12 24 25
f 12 25 26
f 12 26 13
f 13 26 27
f 13 27 23
f 23 27 24
f 24 27 28
f 24 28 29
f 24 29 25
f 25 29 30
f 25 30 26
f 26 30 27
f 27 30 31
f 27 31 28
f 28 31 29
f 29 31 30
f 32 33 21
f 32 21 20
f 32 20 34
f 32 34 35
f 32 35 33
f 33 35 36
f 33 36 21
f 21 36 22
f 22 36 35
f 22 35 34
f 22 34 19
f 19 34 20
f 37 38 39
f 37 39 40
f 37 40 41
f 37 41 42
f 37 42 43
f 37 43 44
f 37 44 38
f 38 44 45
f 38 45 46
f 38 46 39
f 39 46 47
f 39 47 40
f 40 47 41
f 41 47 46
f 41 46 42
f 42 46 45
f 42 45 48
f 42 48 43
f 43 48 49
f 43 49 50
f 43 50 51
f 43 51 44
f 44 51 52
f 44 52 53
f 44 53 45
f 45 53 54
f 45 54 48
f 48 54 55
f 48 55 56
f 48 56 49
f 49 56 57
f 49 57 58
f 49 58 50
f 50 58 59
f 50 59 55
f 50 55 60
f 50 60 51
f 51 60 61
f 51 61 62
f 51 62 63
f 51 63 52
f 52 63 64
f 52 64 53
f 53 64 54
f 54 64 65
f 54 65 66
f 54 66 67
f 54 67 55
f 55 67 60
f 60 67 61
f 61 67 66
f 61 66 62
f 62 66 65
f 62 65 63
f 63 65 64
f 58 57 68
f 58 68 69
f 58 69 59
f 59 69 56
f 59 56 55
f 69 70 56
f 56 70 57
f 57 70 68
f 68 70 69
f 71 72 73
f 71 73 74
f 71 74 75
f 71 75 76
f 71 76 77
f 71 77 78
f 71 78 72
f 72 78 79
f 72 79 80
f 72 80 73
f 73 80 81
f 73 81 74
f 74 81 75
f 75 81 76
f 76 81 82
f 76 82 83
f 76 83 84
f 76 84 77
f 77 84 85
f 77 85 86
f 77 86 87
f 77 87 78
f 78 87 88
f 78 88 89
f 78 89 83
f 78 83 90
f 78 90 91
f 78 91 79
f 79 91 90
f 79 90 92
f 79 92 80
f 80 92 93
f 80 93 81
f 81 93 82
f 82 93 92
f 82 92 83
f 83 92 90
f 94 95 85
f 94 85 96
f 94 96 97
f 94 97 98
f 94 98 99
f 94 99 100
f 94 100 95
f 95 100 101
f 95 101 86
f 95 86 85
f 86 102 87
f 87 102 103
f 87 103 104
f 87 104 105
f 87 105 88
f 88 105 106
f 88 106 89
f 89 106 107
f 89 107 83
f 83 107 84
f 84 107 108
f 84 108 109
f 84 109 85
f 85 109 97
f 85 97 96
f 98 97 109
f 98 109 110
f 98 110 99
f 99 110 111
f 99 111 101
f 99 101 100
f 108 110 109
f 110 108 111
f 111 108 112
f 111 112 113
f 111 113 101
f 101 113 86
f 86 113 108
f 86 108 102
f 102 108 114
f 102 114 103
f 103 114 115
f 103 115 116
f 103 116 117
f 103 117 118
f 103 118 104
f 104 118 105
f 105 118 119
f 105 119 106
f 106 119 120
f 106 120 121
f 106 121 122
f 106 122 107
f 107 122 115
f 107 115 114
f 107 114 108
f 113 112 108
f 121 116 115
f 121 115 122
f 119 118 121
f 119 121 120
f 118 117 116
f 118 116 121
f 123 124 125
f 123 125 126
f 123 126 127
f 123 127 128
f 123 128 129
f 123 129 130
f 123 130 131
f 123 131 132
f 123 132 133
f 123 133 134
f 123 134 124
f 124 134 135
f 124 135 136
f 124 136 125
f 125 136 137
f 125 137 126
f 126 137 138
f 126 138 127
f 127 138 139
f 127 139 128
f 128 139 140
f 128 140 129
f 129 140 141
f 129 141 142
f 129 142 130
f 130 142 143
f 130 143 144
f 130 144 131
f 131 144 145
f 131 145 141
f 131 141 132
f 132 141 140
f 132 140 139
f 132 139 138
f 132 138 137
f 132 137 136
f 132 136 135
f 132 135 146
f 132 146 133
f 133 146 147
f 133 147 148
f 133 148 134
f 134 148 149
f 134 149 135
f 135 149 146
f 146 149 150
f 146 150 147
f 147 150 151
f 147 151 148
f 148 151 152
f 148 152 153
f 148 153 149
f 149 153 154
f 149 154 150
f 150 154 151
f 151 154 155
f 151 155 156
f 151 156 152
f 152 156 157
f 152 157 153
f 153 157 154
f 154 157 158
f 154 158 155
f 155 158 156
f 156 158 157
f 142 159 160
f 142 160 143
f 143 160 161
f 143 161 144
f 144 161 145
f 145 161 162
f 145 162 159
f 145 159 142
f 145 142 141
f 163 164 160
f 163 160 159
f 163 159 162
f 163 162 165
f 163 165 164
f 164 165 166
f 164 166 160
f 160 166 161
f 161 166 165
f 161 165 162
