# RS2 Model 18213
# Vertices: 351
# Faces: 603

v 46 -120 14
v 42 -115 2
v 33 -88 25
v 36 -93 39
v 37 -98 50
v 46 -132 17
v 48 -126 7
v 59 -120 3
v 60 -112 10
v 55 -111 4
v 44 -121 -6
v 31 -118 1
v 22 -93 27
v 19 -84 32
v 30 -80 33
v 52 -69 25
v 54 -77 19
v 54 -82 29
v 34 -85 44
v 21 -51 77
v 27 -101 49
v 39 -133 16
v 47 -156 -29
v 51 -153 -32
v 51 -147 -34
v 57 -117 -5
v 69 -108 -10
v 71 -109 -6
v 70 -104 4
v 67 -101 -3
v 18 -46 51
v 23 -51 66
v 20 -43 69
v 6 -10 98
v 12 -55 77
v 7 -52 68
v 20 -90 44
v 22 -97 37
v 32 -124 13
v 33 -131 6
v 42 -151 -31
v 39 -146 -104
v 48 -143 -102
v 43 -131 -99
v 49 -140 -35
v 33 -125 -6
v 16 -130 -8
v 15 -125 3
v 5 -98 27
v 1 -94 17
v -3 -86 23
v 5 -45 52
v 15 -39 55
v 34 -32 55
v 37 -39 51
v 42 -41 58
v 39 -33 62
v 3 -3 72
v 8 -8 87
v -3 -13 98
v -6 -13 87
v -9 -7 71
v -11 1 75
v 0 5 76
v 28 15 76
v 31 7 72
v 34 5 79
v 5 -1 91
v -12 41 118
v -22 37 117
v -23 31 104
v -9 -6 91
v -33 -10 82
v -30 -18 78
v -33 -14 69
v -35 -7 72
v -24 37 92
v -13 41 93
v 31 13 82
v 78 -89 -12
v 80 -94 -20
v 85 -93 -17
v 82 -88 -8
v 89 -64 -53
v 81 -67 -53
v 80 -74 -60
v 88 -71 -61
v 53 -73 34
v 75 -60 24
v 70 -57 16
v 73 -66 11
v 77 -69 20
v 91 -53 -2
v 90 -45 4
v 81 -46 0
v 82 -54 -6
v 90 -36 -37
v 100 -31 -40
v 97 -24 -32
v 88 -29 -31
v 61 -19 49
v 54 -18 41
v 56 -25 38
v 63 -27 45
v 76 -13 26
v 74 -5 30
v 64 -5 23
v 67 -13 19
v 68 -3 0
v 76 1 -2
v 73 8 1
v 66 5 4
v 41 -144 -33
v 19 -134 2
v 5 -132 -9
v 6 -130 -12
v 3 -124 -5
v 16 -127 8
v 1 -127 0
v 34 -134 -99
v 4 -88 32
v -18 -91 22
v -14 -98 16
v -15 -94 7
v -15 -87 14
v -38 -86 -4
v -45 -90 -2
v -42 -98 -8
v -34 -94 -9
v -54 -86 -41
v -58 -78 -34
v -68 -81 -36
v -66 -89 -44
v -39 76 112
v -40 82 100
v -27 46 95
v -27 41 105
v -36 80 122
v -43 83 112
v -57 80 107
v -53 73 108
v -56 75 101
v -43 88 100
v -29 85 101
v -16 51 94
v -50 33 83
v -54 41 86
v -50 39 94
v -59 84 99
v -74 81 93
v -74 79 96
v -73 71 98
v -71 74 93
v -89 74 78
v -92 80 79
v -94 78 80
v -91 71 82
v -120 83 38
v -112 84 40
v -113 92 40
v -121 90 39
v -45 29 93
v -70 26 81
v -69 30 74
v -74 40 75
v -74 35 84
v -97 39 60
v -94 28 58
v -88 33 55
v -91 42 59
v -102 53 26
v -114 50 26
v -110 39 24
v -100 44 26
v -53 -5 58
v -55 -10 65
v -53 -17 61
v -50 -13 54
v -65 -9 34
v -68 -1 38
v -71 -5 43
v -68 -12 40
v -82 -3 12
v -71 -1 15
v -74 6 19
v -85 4 15
v -32 92 100
v -53 122 99
v -45 126 97
v -28 88 113
v -19 94 109
v -19 98 101
v -57 126 106
v -71 163 48
v -63 166 48
v -48 130 103
v -50 130 108
v -30 82 123
v -25 80 113
v -13 88 109
v -4 94 103
v -8 104 100
v -11 104 96
v -17 89 103
v -14 46 107
v 4 55 99
v 4 60 90
v 8 51 87
v -9 37 104
v -54 128 111
v -65 175 55
v -75 172 53
v -9 97 96
v 9 108 86
v 13 108 89
v 10 117 87
v 5 116 84
v 7 136 45
v 11 130 44
v 20 133 43
v 16 139 45
v 7 47 96
v 31 59 87
v 27 69 89
v 22 71 81
v 25 62 78
v 36 74 62
v 44 75 66
v 41 84 68
v 32 82 65
v 40 99 36
v 44 90 33
v 54 95 31
v 49 105 32
v 13 -22 -34
v 11 -22 -39
v 16 -17 -39
v -14 -2 -24
v -13 -9 -22
v -16 -10 -27
v -14 8 -21
v -21 -3 -20
v -26 -14 -27
v -57 11 -3
v -74 13 -9
v -63 27 -4
v 104 -60 -6
v 94 -62 17
v 80 -108 -1
v 88 -112 -27
v 100 -99 -84
v 114 -43 -53
v -2 -145 -27
v 1 -136 -1
v -38 -109 17
v -47 -114 -6
v -20 -141 -84
v -18 -135 -78
v -2 -137 -25
v -44 -107 -6
v -36 -104 17
v 2 -129 -1
v 30 -143 -33
v 28 -137 -8
v 29 -144 -9
v 31 -151 -35
v 64 -132 -9
v 67 -138 -35
v 64 -138 -100
v -105 50 75
v -89 35 88
v -76 81 106
v -90 101 95
v -71 77 101
v -85 97 90
v -99 47 71
v -84 33 84
v -79 -4 45
v -66 -12 61
v -67 -43 26
v -55 -49 44
v -63 -102 -48
v -76 -41 -4
v 1 134 95
v 3 109 106
v 43 82 88
v 45 104 75
v 3 175 51
v -72 194 54
v -54 145 109
v -45 119 118
v -41 113 113
v 2 103 101
v 40 77 84
v 60 33 64
v 65 49 48
v 54 128 31
v -59 -49 46
v -71 -46 28
v -66 -107 -53
v -84 -4 48
v -70 -13 64
v 77 6 27
v 70 -3 46
v 68 64 19
v -80 -44 -7
v 76 -103 -1
v 89 -59 17
v 97 -57 -6
v 83 -107 -25
v 60 -126 -8
v 66 -6 43
v 72 5 25
v 62 -131 -33
v 0 127 90
v 42 97 71
v 56 31 61
v -50 138 103
v -66 184 53
v 2 166 51
v 51 120 32
v 61 46 45
v 64 59 19
v 95 -95 -78
v 108 -41 -48
v 60 -133 -94
v 18 79 15
v 7 36 -2
v 27 31 -8
v 37 68 5
v 34 68 3
v 16 79 12
v 5 36 -4
v 25 34 -9
v -6 -114 -61
v 40 -82 -54
v 28 -60 -44
v -13 -87 -51
v -12 -88 -53
v -5 -114 -65
v 42 -81 -56
v 27 -60 -46
v -39 -82 -1
v -32 -97 -11
v -59 -74 -33
v 37 -1 82
v 28 2 61
v 30 15 88
v -32 32 -4
v -62 -8 -16
v -3 16 -13

f 1 2 3
f 1 3 4
f 1 4 5
f 1 5 6
f 1 6 7
f 1 7 8
f 1 8 9
f 1 9 2
f 2 9 10
f 2 10 11
f 2 11 12
f 2 12 13
f 2 13 3
f 3 13 14
f 3 14 15
f 3 15 16
f 3 16 17
f 3 17 4
f 4 17 18
f 4 18 19
f 4 19 5
f 5 19 20
f 5 20 21
f 5 21 22
f 5 22 6
f 6 22 23
f 6 23 24
f 6 24 25
f 6 25 7
f 7 25 11
f 7 11 26
f 7 26 8
f 8 26 27
f 8 27 28
f 8 28 9
f 9 28 29
f 9 29 10
f 10 29 30
f 10 30 26
f 10 26 11
f 19 15 31
f 19 31 32
f 19 32 20
f 20 32 33
f 20 33 34
f 20 34 35
f 20 35 21
f 21 35 36
f 21 36 37
f 21 37 38
f 21 38 22
f 22 38 39
f 22 39 40
f 22 40 23
f 23 40 41
f 23 41 42
f 23 42 24
f 24 42 43
f 24 43 44
f 24 44 25
f 25 44 45
f 25 45 11
f 11 45 46
f 11 46 12
f 12 46 47
f 12 47 48
f 12 48 39
f 12 39 38
f 12 38 13
f 13 38 49
f 13 49 50
f 13 50 14
f 14 50 51
f 14 51 37
f 14 37 36
f 14 36 52
f 14 52 15
f 15 52 31
f 31 52 53
f 31 53 54
f 31 54 55
f 31 55 32
f 32 55 56
f 32 56 33
f 33 56 57
f 33 57 53
f 33 53 58
f 33 58 59
f 33 59 34
f 34 59 60
f 34 60 35
f 35 60 61
f 35 61 36
f 36 61 62
f 36 62 52
f 52 62 53
f 53 62 58
f 58 62 63
f 58 63 64
f 58 64 65
f 58 65 66
f 58 66 59
f 59 66 67
f 59 67 68
f 59 68 34
f 59 34 61
f 59 61 60
f 60 61 34
f 60 34 69
f 60 69 70
f 60 70 71
f 60 71 72
f 60 72 61
f 61 72 73
f 61 73 74
f 61 74 62
f 62 74 75
f 62 75 63
f 63 75 76
f 63 76 72
f 63 72 71
f 63 71 77
f 63 77 64
f 64 77 78
f 64 78 68
f 64 68 79
f 64 79 65
f 65 79 67
f 65 67 66
f 26 30 27
f 27 30 80
f 27 80 81
f 27 81 28
f 28 81 82
f 28 82 29
f 29 82 83
f 29 83 30
f 30 83 80
f 80 83 84
f 80 84 85
f 80 85 81
f 81 85 86
f 81 86 82
f 82 86 87
f 82 87 83
f 83 87 84
f 84 87 85
f 85 87 86
f 19 18 88
f 19 88 15
f 15 88 16
f 16 88 89
f 16 89 90
f 16 90 17
f 17 90 91
f 17 91 18
f 18 91 92
f 18 92 88
f 88 92 89
f 89 92 93
f 89 93 94
f 89 94 90
f 90 94 95
f 90 95 91
f 91 95 96
f 91 96 92
f 92 96 93
f 93 96 97
f 93 97 98
f 93 98 94
f 94 98 99
f 94 99 95
f 95 99 100
f 95 100 96
f 96 100 97
f 97 100 98
f 98 100 99
f 53 57 54
f 54 57 101
f 54 101 102
f 54 102 55
f 55 102 103
f 55 103 56
f 56 103 104
f 56 104 57
f 57 104 101
f 101 104 105
f 101 105 106
f 101 106 102
f 102 106 107
f 102 107 103
f 103 107 108
f 103 108 104
f 104 108 105
f 105 108 109
f 105 109 110
f 105 110 106
f 106 110 111
f 106 111 107
f 107 111 112
f 107 112 108
f 108 112 109
f 109 112 110
f 110 112 111
f 46 45 113
f 46 113 40
f 46 40 114
f 46 114 47
f 47 114 115
f 47 115 116
f 47 116 48
f 48 116 117
f 48 117 118
f 48 118 39
f 39 118 40
f 40 118 114
f 114 118 119
f 114 119 115
f 40 113 41
f 41 113 120
f 41 120 42
f 113 45 44
f 113 44 120
f 7 11 45
f 7 45 25
f 25 45 44
f 118 117 119
f 38 37 121
f 38 121 49
f 49 121 122
f 49 122 123
f 49 123 50
f 50 123 124
f 50 124 51
f 51 124 125
f 51 125 121
f 51 121 37
f 121 125 122
f 122 125 126
f 122 126 127
f 122 127 123
f 123 127 128
f 123 128 124
f 124 128 129
f 124 129 125
f 125 129 126
f 126 129 130
f 126 130 131
f 126 131 127
f 127 131 132
f 129 128 133
f 129 133 130
f 134 135 136
f 134 136 137
f 134 137 70
f 134 70 138
f 134 138 139
f 134 139 140
f 134 140 141
f 134 141 135
f 135 141 142
f 135 142 143
f 135 143 144
f 135 144 145
f 135 145 136
f 136 145 78
f 136 78 77
f 136 77 146
f 136 146 147
f 136 147 137
f 137 147 148
f 137 148 71
f 137 71 70
f 139 143 149
f 139 149 140
f 140 149 150
f 140 150 151
f 140 151 141
f 141 151 152
f 141 152 142
f 142 152 153
f 142 153 149
f 142 149 143
f 149 153 150
f 150 153 154
f 150 154 155
f 150 155 151
f 151 155 156
f 151 156 152
f 152 156 157
f 152 157 153
f 153 157 154
f 154 157 158
f 154 158 159
f 154 159 155
f 155 159 160
f 155 160 156
f 156 160 161
f 156 161 157
f 157 161 158
f 71 148 162
f 71 162 77
f 77 162 146
f 146 162 163
f 146 163 164
f 146 164 147
f 147 164 165
f 147 165 148
f 148 165 166
f 148 166 162
f 162 166 163
f 163 166 167
f 163 167 168
f 163 168 164
f 164 168 169
f 164 169 165
f 165 169 170
f 165 170 166
f 166 170 167
f 167 170 171
f 167 171 172
f 167 172 168
f 168 172 173
f 168 173 169
f 169 173 174
f 169 174 170
f 170 174 171
f 72 76 73
f 73 76 175
f 73 175 176
f 73 176 74
f 74 176 177
f 74 177 75
f 75 177 178
f 75 178 76
f 76 178 175
f 175 178 179
f 175 179 180
f 175 180 176
f 176 180 181
f 176 181 177
f 177 181 182
f 177 182 178
f 178 182 179
f 179 182 183
f 179 183 184
f 179 184 180
f 180 184 185
f 180 185 181
f 181 185 186
f 181 186 182
f 182 186 183
f 187 143 188
f 187 188 189
f 187 189 190
f 187 190 191
f 187 191 192
f 187 192 144
f 187 144 143
f 143 139 193
f 143 193 188
f 143 188 139
f 139 188 193
f 193 188 194
f 193 194 188
f 188 194 189
f 189 194 195
f 189 195 196
f 189 196 190
f 190 196 197
f 190 197 198
f 190 198 199
f 190 199 200
f 190 200 191
f 191 200 201
f 191 201 202
f 191 202 192
f 192 202 203
f 192 203 204
f 192 204 144
f 144 204 199
f 144 199 205
f 144 205 145
f 145 205 206
f 145 206 207
f 145 207 78
f 78 207 208
f 78 208 209
f 78 209 68
f 68 209 69
f 68 69 34
f 70 69 198
f 70 198 138
f 138 198 197
f 138 197 210
f 138 210 193
f 138 193 139
f 210 197 211
f 210 211 212
f 210 212 194
f 210 194 193
f 211 197 196
f 211 196 195
f 199 204 200
f 200 204 213
f 200 213 201
f 201 213 214
f 201 214 215
f 201 215 202
f 202 215 216
f 202 216 203
f 203 216 217
f 203 217 213
f 203 213 204
f 213 217 214
f 214 217 218
f 214 218 219
f 214 219 215
f 215 219 220
f 217 216 221
f 217 221 218
f 205 209 222
f 205 222 206
f 206 222 223
f 206 223 224
f 206 224 207
f 207 224 225
f 207 225 208
f 208 225 226
f 208 226 222
f 208 222 209
f 222 226 223
f 223 226 227
f 223 227 228
f 223 228 224
f 224 228 229
f 224 229 225
f 225 229 230
f 225 230 226
f 226 230 227
f 227 230 231
f 227 231 232
f 227 232 228
f 228 232 233
f 230 229 234
f 230 234 231
f 68 67 79
f 198 69 205
f 198 205 199
f 69 209 205
f 235 236 237
f 235 237 238
f 235 238 239
f 235 239 236
f 236 239 240
f 236 240 237
f 237 240 238
f 238 241 242
f 238 242 239
f 239 242 240
f 240 242 243
f 243 242 244
f 243 244 245
f 245 244 246
f 246 244 241
f 241 244 242
f 247 248 249
f 247 249 250
f 247 250 251
f 247 251 252
f 253 254 255
f 253 255 256
f 253 256 257
f 253 257 258
f 253 258 259
f 259 258 260
f 259 260 261
f 259 261 262
f 259 262 263
f 263 262 264
f 263 264 265
f 263 265 266
f 266 265 254
f 266 254 253
f 250 249 267
f 250 267 268
f 250 268 269
f 250 269 251
f 270 271 272
f 270 272 273
f 273 272 274
f 273 274 275
f 275 274 276
f 276 274 277
f 276 277 278
f 278 277 279
f 278 279 280
f 280 279 281
f 280 281 260
f 280 260 282
f 280 282 283
f 284 285 286
f 284 286 287
f 284 287 288
f 284 288 289
f 284 289 290
f 284 290 285
f 285 290 291
f 285 291 292
f 285 292 293
f 285 293 286
f 286 293 294
f 286 294 295
f 286 295 287
f 287 295 296
f 287 296 297
f 287 297 288
f 256 255 298
f 256 298 299
f 256 299 300
f 256 300 257
f 301 302 271
f 301 271 270
f 303 304 248
f 303 248 247
f 299 298 302
f 299 302 301
f 296 295 304
f 296 304 303
f 296 305 297
f 299 306 300
f 307 308 309
f 307 309 310
f 307 310 311
f 307 311 267
f 307 267 249
f 307 249 308
f 308 249 248
f 308 248 312
f 308 312 313
f 308 313 309
f 311 310 314
f 311 314 268
f 311 268 267
f 294 293 315
f 294 315 316
f 294 316 317
f 294 317 295
f 295 317 304
f 304 317 312
f 304 312 248
f 293 292 318
f 293 318 315
f 315 318 319
f 315 319 320
f 315 320 316
f 316 320 321
f 316 321 322
f 316 322 317
f 317 322 312
f 312 322 313
f 281 261 260
f 261 281 298
f 261 298 255
f 261 255 262
f 262 255 254
f 262 254 264
f 264 254 265
f 321 323 322
f 324 310 309
f 324 309 325
f 314 310 326
f 314 326 269
f 314 269 268
f 258 282 260
f 310 324 326
f 281 279 302
f 281 302 298
f 271 302 279
f 271 279 277
f 271 277 272
f 272 277 274
f 290 289 319
f 290 319 318
f 290 318 291
f 291 318 292
f 327 328 329
f 327 329 330
f 327 330 331
f 327 331 332
f 327 332 328
f 328 332 333
f 330 329 334
f 330 334 331
f 335 336 337
f 335 337 338
f 335 338 339
f 335 339 340
f 335 340 336
f 336 340 341
f 338 337 342
f 338 342 339
f 343 344 345
