# RS2 Model 18232
# Vertices: 385
# Faces: 708

v 1 -34 76
v -8 -34 91
v 1 -30 110
v 12 -34 90
v 4 -38 110
v 0 -38 110
v 0 -37 232
v -6 -34 232
v 1 -31 232
v 10 -34 232
v 4 -37 232
v 19 -2 237
v 19 24 231
v 19 24 237
v -19 24 231
v -19 24 237
v -19 -2 237
v -19 -4 231
v 19 -4 231
v 20 26 221
v 4 32 220
v -4 32 220
v -20 26 221
v -20 -1 223
v -4 -4 207
v 4 -4 207
v 20 -1 223
v 23 -1 213
v 23 25 207
v 4 32 213
v -4 32 213
v -23 25 206
v -23 -1 213
v -23 2 171
v -11 0 171
v -8 13 161
v -6 19 161
v 0 25 209
v 8 15 163
v 9 9 163
v 11 -6 168
v 25 -5 170
v 29 12 104
v 26 0 153
v 12 -2 152
v 20 9 104
v 36 11 103
v 25 22 110
v 29 25 149
v 25 18 164
v 26 11 164
v 30 -2 161
v 23 -6 154
v 16 -6 154
v 11 -7 159
v 8 -5 160
v 6 22 146
v 16 19 110
v 8 22 107
v 15 4 103
v 36 12 99
v 30 29 103
v 30 29 107
v 27 -6 161
v 19 -9 160
v 15 -9 167
v -23 22 163
v -25 14 163
v -12 1 153
v -26 4 154
v -26 11 106
v -18 9 106
v -15 19 108
v -4 24 145
v -6 0 161
v -15 -3 156
v -23 -2 156
v -27 -2 161
v -29 2 163
v -26 28 146
v -23 22 108
v -29 28 107
v -34 9 104
v -12 4 104
v -6 22 106
v -11 -5 160
v -13 -5 167
v -19 -5 163
v -22 -3 167
v 23 -9 167
v -6 22 102
v -29 26 102
v -33 9 100
v -12 4 100
v -15 9 96
v -13 24 90
v -26 26 90
v -29 12 96
v -30 13 92
v -18 11 92
v -11 26 83
v -26 31 83
v -26 26 74
v -34 -2 74
v -36 -6 83
v -20 -10 83
v -20 -6 74
v -12 24 74
v 8 22 103
v 15 5 99
v 30 13 93
v 27 29 92
v 15 25 92
v 27 33 83
v 11 29 83
v 18 11 93
v 32 14 90
v 19 13 90
v 38 -2 83
v 37 1 74
v 27 29 74
v 13 25 74
v 23 -3 74
v 23 -7 83
v -1 -31 275
v 2 -31 275
v 2 -37 275
v -1 -37 275
v -5 -27 283
v 4 -31 239
v -1 -31 239
v -1 -37 239
v 6 -40 283
v -5 -40 283
v 0 -34 289
v 6 -27 283
v 4 -37 239
v -13 -34 232
v -8 -27 239
v -8 -27 232
v 16 -34 232
v 12 -41 232
v -8 -40 232
v -13 -34 239
v 12 -28 239
v 10 -28 232
v 16 -34 239
v 12 -41 239
v -8 -40 239
v 13 19 320
v 4 11 315
v 6 25 319
v 11 31 337
v 13 18 330
v 13 13 326
v 8 7 320
v 0 1 316
v 4 -2 329
v -4 -2 329
v -8 7 320
v -4 11 315
v -13 13 326
v -13 19 320
v -6 25 319
v -9 25 306
v -9 11 308
v 9 11 308
v 11 17 309
v 9 25 306
v 0 31 303
v -11 31 337
v 0 28 346
v 6 21 351
v 13 17 345
v 13 13 333
v 15 18 330
v 13 1 327
v 15 4 340
v 8 -2 344
v 8 -3 328
v -8 -2 344
v -8 -3 328
v -15 4 340
v -13 1 327
v -15 18 330
v -13 18 330
v 4 1 341
v 9 7 346
v 0 3 346
v -4 1 341
v 11 4 340
v 0 9 350
v -9 7 346
v -11 4 340
v -6 21 351
v -13 17 345
v -13 13 333
v 0 26 355
v 0 38 352
v -2 36 349
v 2 36 349
v 2 50 348
v 3 51 360
v 5 46 368
v 0 35 355
v -5 46 368
v -3 51 360
v -2 50 348
v -2 43 344
v -2 40 340
v -2 33 342
v 2 33 342
v 2 40 340
v 2 43 344
v -2 33 366
v 2 33 366
v -2 36 338
v 2 36 338
v 0 47 328
v 5 -2 344
v 5 -3 328
v 1 -2 344
v 4 -3 328
v 4 -2 344
v 1 -3 328
v -4 -2 344
v -1 -3 328
v -1 -2 344
v -4 -3 328
v -5 -3 328
v -5 -2 344
v 29 17 311
v 27 31 301
v 18 34 302
v 18 15 312
v 26 1 299
v 42 17 303
v 40 32 293
v 23 33 285
v 17 30 286
v 12 31 301
v 22 -2 294
v 28 1 287
v 34 0 295
v 44 2 291
v 47 11 285
v 45 21 277
v 43 26 270
v 32 31 275
v 25 22 274
v 0 35 273
v 0 35 292
v 27 13 277
v 43 13 277
v 43 4 270
v 32 1 268
v 25 8 280
v 41 21 269
v 47 15 276
v 47 8 282
v 42 3 285
v 41 -12 274
v 48 -1 262
v 32 1 262
v 33 -4 270
v 22 -25 265
v 38 -16 263
v 18 -17 263
v 13 -19 266
v 20 -30 267
v 26 -25 258
v 20 -17 256
v 32 -6 260
v 35 -5 259
v 46 -10 261
v 19 -17 253
v 9 -28 252
v 6 -28 257
v 11 -35 258
v 26 -28 255
v 13 -34 253
v 4 -32 246
v -3 -33 256
v 2 -45 257
v 9 -42 248
v 0 -40 250
v 0 2 298
v -20 -3 287
v 0 -3 284
v 20 -3 287
v 0 -2 278
v 19 -2 278
v 19 1 266
v 20 11 249
v 20 17 247
v 19 28 262
v 0 29 244
v -19 28 262
v -25 22 275
v -17 30 286
v -12 31 301
v -19 -2 278
v -19 1 266
v 0 -3 267
v -20 18 247
v -16 25 244
v -23 24 238
v -29 13 239
v -20 11 249
v -26 10 279
v -41 21 269
v -43 26 270
v -32 29 273
v -23 34 285
v -18 33 302
v -11 17 309
v -22 -3 296
v -16 1 250
v 0 -6 247
v 16 1 250
v 23 2 240
v 29 13 239
v 23 24 236
v 16 25 244
v 13 32 232
v 0 36 228
v -13 32 232
v 13 32 229
v 0 35 225
v -13 32 229
v -25 24 233
v 29 13 236
v 25 24 233
v 25 1 237
v 13 -7 239
v 15 -7 236
v 0 -12 235
v 0 -13 230
v -29 13 236
v -25 1 237
v -23 2 240
v -15 -7 236
v -13 -7 239
v -25 31 301
v -26 17 311
v -18 15 312
v -26 1 299
v -34 0 295
v -30 -2 288
v -30 -2 271
v -32 1 269
v -43 4 270
v -44 9 277
v -47 15 276
v -45 21 277
v -38 32 294
v -39 17 306
v -47 11 285
v -44 1 289
v -47 7 281
v -41 3 283
v -38 -9 274
v -16 -18 260
v -22 -25 261
v -34 -14 263
v -26 -6 262
v -14 -18 268
v -10 -17 269
v -11 -19 257
v -22 -30 260
v -20 -25 269
v -39 -10 262
v -30 -5 261
v -33 2 265
v -47 0 265
v 0 -45 271
v -4 -44 259
v 3 -43 263
v 6 -36 270
v -8 -34 267
v -9 -34 262
v -4 -28 262
v 1 -34 256
v -3 -28 266
v -19 -28 273

f 1 2 3
f 1 3 4
f 1 4 5
f 1 5 6
f 1 6 2
f 2 6 7
f 2 7 8
f 2 8 9
f 2 9 3
f 3 9 4
f 4 9 10
f 4 10 11
f 4 11 5
f 5 11 7
f 5 7 6
f 12 13 14
f 14 13 15
f 14 15 16
f 16 15 17
f 17 15 18
f 17 18 12
f 12 18 19
f 12 19 13
f 13 19 20
f 13 20 21
f 13 21 22
f 13 22 15
f 15 22 23
f 15 23 18
f 18 23 24
f 18 24 25
f 18 25 26
f 18 26 19
f 19 26 27
f 19 27 20
f 20 27 28
f 20 28 29
f 20 29 30
f 20 30 21
f 21 30 22
f 22 30 31
f 22 31 23
f 23 31 32
f 23 32 33
f 23 33 24
f 24 33 25
f 25 33 34
f 25 34 35
f 25 35 36
f 25 36 37
f 25 37 38
f 38 37 32
f 38 32 31
f 38 31 30
f 38 30 29
f 38 29 39
f 38 39 26
f 26 39 40
f 26 40 41
f 26 41 42
f 26 42 28
f 26 28 27
f 43 44 45
f 43 45 46
f 43 46 47
f 43 47 48
f 43 48 49
f 43 49 44
f 44 49 50
f 44 50 51
f 44 51 52
f 44 52 53
f 44 53 45
f 45 53 54
f 45 54 55
f 45 55 56
f 45 56 40
f 45 40 39
f 45 39 57
f 45 57 58
f 45 58 46
f 46 58 59
f 46 59 60
f 46 60 47
f 47 60 61
f 47 61 62
f 47 62 63
f 47 63 48
f 48 63 59
f 48 59 58
f 48 58 49
f 49 58 57
f 49 57 50
f 50 57 39
f 50 39 29
f 50 29 51
f 51 29 42
f 51 42 52
f 52 42 64
f 52 64 53
f 53 64 65
f 53 65 54
f 54 65 55
f 55 65 66
f 55 66 56
f 56 66 41
f 56 41 40
f 42 29 28
f 37 67 32
f 32 67 68
f 32 68 34
f 32 34 33
f 69 70 71
f 69 71 72
f 69 72 73
f 69 73 74
f 69 74 37
f 69 37 36
f 69 36 75
f 69 75 76
f 69 76 70
f 70 76 77
f 70 77 78
f 70 78 79
f 70 79 68
f 70 68 67
f 70 67 80
f 70 80 71
f 71 80 81
f 71 81 82
f 71 82 83
f 71 83 84
f 71 84 72
f 72 84 73
f 73 84 85
f 73 85 82
f 73 82 81
f 73 81 80
f 73 80 74
f 74 80 67
f 74 67 37
f 86 87 88
f 86 88 76
f 86 76 75
f 86 75 35
f 86 35 87
f 87 35 89
f 87 89 88
f 88 89 78
f 88 78 77
f 88 77 76
f 90 66 65
f 90 65 64
f 90 64 42
f 90 42 66
f 66 42 41
f 84 91 85
f 85 91 92
f 85 92 82
f 82 92 93
f 82 93 83
f 83 93 94
f 83 94 84
f 84 94 91
f 91 94 95
f 91 95 96
f 91 96 92
f 92 96 97
f 92 97 98
f 92 98 93
f 93 98 94
f 94 98 95
f 95 98 99
f 95 99 100
f 95 100 96
f 96 100 101
f 96 101 102
f 96 102 97
f 97 102 98
f 98 102 99
f 99 102 103
f 99 103 104
f 99 104 105
f 99 105 100
f 100 105 106
f 100 106 107
f 100 107 108
f 100 108 101
f 101 108 103
f 101 103 102
f 63 109 59
f 59 109 110
f 59 110 60
f 60 110 61
f 61 110 111
f 61 111 62
f 62 111 112
f 62 112 113
f 62 113 109
f 62 109 63
f 79 89 34
f 79 34 68
f 79 78 89
f 35 34 89
f 113 114 115
f 113 115 116
f 113 116 109
f 109 116 110
f 110 116 111
f 111 116 117
f 111 117 114
f 111 114 112
f 112 114 113
f 116 115 118
f 116 118 117
f 117 118 119
f 117 119 120
f 117 120 121
f 117 121 114
f 114 121 115
f 115 121 122
f 115 122 118
f 118 122 123
f 118 123 124
f 118 124 119
f 119 124 120
f 120 124 123
f 106 104 107
f 104 106 105
f 35 75 36
f 125 126 127
f 125 127 128
f 125 128 129
f 125 129 126
f 125 126 130
f 125 130 131
f 125 131 128
f 128 131 132
f 128 132 127
f 128 127 133
f 128 133 134
f 128 134 129
f 129 134 135
f 129 135 136
f 129 136 126
f 126 136 133
f 126 133 127
f 126 127 137
f 126 137 130
f 127 132 137
f 138 139 140
f 138 140 141
f 138 141 142
f 138 142 143
f 138 143 144
f 138 144 139
f 139 144 145
f 139 145 140
f 140 145 146
f 140 146 141
f 141 146 147
f 141 147 148
f 141 148 142
f 142 148 149
f 142 149 143
f 143 149 144
f 144 149 147
f 144 147 145
f 145 147 146
f 149 148 147
f 134 133 135
f 135 133 136
f 150 151 152
f 150 152 153
f 150 153 154
f 150 154 155
f 150 155 151
f 151 155 156
f 151 156 157
f 157 156 158
f 157 158 159
f 157 159 160
f 157 160 161
f 161 160 162
f 161 162 163
f 161 163 164
f 161 164 165
f 161 165 166
f 161 166 151
f 151 166 167
f 151 167 168
f 151 168 152
f 152 168 169
f 152 169 170
f 152 170 164
f 152 164 153
f 153 164 171
f 153 171 172
f 153 172 173
f 153 173 174
f 153 174 154
f 154 174 175
f 154 175 176
f 154 176 155
f 155 176 177
f 177 176 178
f 177 178 179
f 177 179 180
f 180 179 181
f 180 181 182
f 182 181 183
f 182 183 184
f 184 183 185
f 184 185 162
f 162 185 186
f 162 186 163
f 163 186 171
f 163 171 164
f 156 155 158
f 159 162 160
f 187 188 189
f 187 189 190
f 187 190 181
f 187 181 179
f 187 179 178
f 187 178 191
f 187 191 188
f 188 191 174
f 188 174 173
f 188 173 192
f 188 192 189
f 189 192 193
f 189 193 190
f 190 193 194
f 190 194 183
f 190 183 181
f 192 173 195
f 192 195 193
f 193 195 196
f 193 196 194
f 194 196 197
f 194 197 183
f 183 197 185
f 185 197 186
f 186 197 196
f 186 196 171
f 171 196 195
f 171 195 172
f 172 195 173
f 174 191 175
f 175 191 178
f 175 178 176
f 173 172 198
f 173 198 195
f 195 198 172
f 199 200 201
f 199 201 202
f 199 202 203
f 199 203 204
f 199 204 205
f 199 205 206
f 199 206 207
f 199 207 208
f 199 208 200
f 200 208 209
f 200 209 210
f 200 210 211
f 200 211 201
f 201 211 212
f 201 212 213
f 201 213 214
f 201 214 202
f 202 214 209
f 202 209 208
f 202 208 207
f 202 207 203
f 203 207 206
f 203 206 204
f 204 206 215
f 204 215 216
f 204 216 198
f 204 198 205
f 205 198 206
f 206 198 215
f 215 198 216
f 212 217 218
f 212 218 213
f 213 218 219
f 213 219 210
f 213 210 214
f 214 210 209
f 212 211 217
f 217 211 210
f 217 210 219
f 217 219 218
f 220 180 179
f 180 220 221
f 222 223 224
f 223 222 225
f 226 227 228
f 227 226 229
f 181 230 231
f 230 181 182
f 232 233 234
f 232 234 235
f 232 235 236
f 232 236 237
f 232 237 233
f 233 237 238
f 233 238 239
f 233 239 234
f 234 239 240
f 234 240 241
f 234 241 168
f 234 168 235
f 235 168 236
f 236 168 242
f 236 242 243
f 236 243 244
f 236 244 237
f 237 244 245
f 237 245 246
f 237 246 238
f 238 246 247
f 238 247 248
f 238 248 249
f 238 249 239
f 239 249 240
f 240 249 250
f 240 250 251
f 240 251 252
f 240 252 241
f 241 252 170
f 241 170 169
f 241 169 168
f 253 254 255
f 253 255 256
f 253 256 243
f 253 243 257
f 253 257 250
f 253 250 254
f 254 250 258
f 254 258 259
f 254 259 260
f 254 260 261
f 254 261 262
f 254 262 255
f 255 262 263
f 255 263 256
f 256 263 264
f 256 264 265
f 256 265 243
f 243 265 262
f 243 262 261
f 243 261 244
f 244 261 245
f 245 261 260
f 245 260 246
f 246 260 259
f 246 259 247
f 247 259 258
f 247 258 248
f 248 258 250
f 248 250 249
f 266 267 262
f 266 262 265
f 266 265 268
f 266 268 269
f 266 269 270
f 266 270 271
f 266 271 267
f 267 271 272
f 267 272 273
f 267 273 274
f 267 274 275
f 267 275 262
f 262 275 263
f 263 275 274
f 263 274 264
f 264 274 265
f 265 274 273
f 265 273 272
f 265 272 268
f 268 272 276
f 268 276 269
f 269 276 277
f 269 277 278
f 269 278 270
f 270 278 279
f 270 279 280
f 270 280 271
f 271 280 272
f 272 280 276
f 276 280 281
f 276 281 277
f 277 281 282
f 277 282 278
f 278 282 283
f 278 283 284
f 278 284 279
f 279 284 285
f 279 285 281
f 279 281 280
f 286 285 284
f 286 284 283
f 286 283 282
f 286 282 285
f 285 282 281
f 259 260 261
f 259 261 254
f 287 167 166
f 287 166 288
f 287 288 289
f 287 289 290
f 287 290 167
f 167 290 168
f 168 290 242
f 242 290 257
f 242 257 243
f 289 291 292
f 289 292 290
f 290 292 257
f 257 292 293
f 257 293 294
f 257 294 250
f 250 294 295
f 250 295 296
f 250 296 251
f 251 296 297
f 251 297 298
f 251 298 299
f 251 299 300
f 251 300 252
f 252 300 301
f 252 301 170
f 170 301 165
f 170 165 164
f 288 302 289
f 289 302 291
f 291 302 303
f 291 303 304
f 291 304 293
f 291 293 292
f 305 299 298
f 305 298 306
f 305 306 307
f 305 307 308
f 305 308 309
f 305 309 310
f 305 310 299
f 299 310 311
f 299 311 312
f 299 312 313
f 299 313 300
f 300 313 314
f 300 314 315
f 300 315 301
f 301 315 316
f 301 316 165
f 165 316 166
f 166 316 317
f 166 317 288
f 288 317 310
f 288 310 302
f 302 310 303
f 303 310 309
f 303 309 318
f 303 318 319
f 303 319 304
f 304 319 293
f 293 319 320
f 293 320 294
f 294 320 321
f 294 321 322
f 294 322 295
f 295 322 323
f 295 323 324
f 295 324 296
f 296 324 297
f 297 324 325
f 297 325 326
f 297 326 327
f 297 327 306
f 297 306 298
f 325 328 329
f 325 329 326
f 326 329 327
f 327 329 330
f 327 330 331
f 327 331 307
f 327 307 306
f 322 332 333
f 322 333 323
f 323 333 325
f 323 325 324
f 325 333 328
f 322 321 334
f 322 334 332
f 321 335 336
f 321 336 334
f 335 337 338
f 335 338 336
f 331 339 308
f 331 308 307
f 340 341 308
f 340 308 339
f 342 343 341
f 342 341 340
f 338 337 343
f 338 343 342
f 319 335 320
f 320 335 321
f 318 343 319
f 319 343 337
f 319 337 335
f 341 318 309
f 341 309 308
f 318 341 343
f 315 344 345
f 315 345 346
f 315 346 316
f 316 346 317
f 317 346 347
f 317 347 348
f 317 348 349
f 317 349 310
f 310 349 350
f 310 350 351
f 310 351 352
f 310 352 353
f 310 353 354
f 310 354 311
f 311 354 312
f 312 354 355
f 312 355 356
f 312 356 313
f 313 356 314
f 314 356 344
f 314 344 315
f 357 345 344
f 357 344 356
f 357 356 358
f 357 358 359
f 357 359 348
f 357 348 347
f 357 347 345
f 345 347 346
f 356 355 358
f 358 355 354
f 358 354 360
f 358 360 359
f 359 360 361
f 359 361 349
f 359 349 348
f 353 352 362
f 353 362 361
f 353 361 360
f 353 360 354
f 363 364 365
f 363 365 366
f 363 366 350
f 363 350 367
f 363 367 368
f 363 368 369
f 363 369 364
f 364 369 370
f 364 370 371
f 364 371 365
f 365 371 362
f 365 362 372
f 365 372 366
f 366 372 373
f 366 373 374
f 366 374 350
f 350 374 351
f 351 374 375
f 351 375 352
f 352 375 362
f 362 375 372
f 372 375 373
f 373 375 374
f 371 367 350
f 371 350 362
f 362 350 349
f 362 349 361
f 376 377 378
f 376 378 379
f 376 379 380
f 376 380 377
f 377 380 381
f 377 381 382
f 377 382 383
f 377 383 378
f 378 383 379
f 379 383 384
f 379 384 380
f 380 384 368
f 380 368 385
f 380 385 381
f 381 385 370
f 381 370 382
f 382 370 369
f 382 369 384
f 382 384 383
f 371 370 385
f 371 385 367
f 367 385 368
f 384 369 368
