# RS2 Model 18243
# Vertices: 131
# Faces: 137

v -3 -55 0
v -2 -52 0
v -6 -53 4
v -8 -59 0
v -11 -52 3
v -12 -58 0
v -14 -52 0
v -11 -49 0
v -9 -50 4
v -5 -49 0
v 34 -54 0
v 32 -51 0
v 31 -54 3
v 34 -60 0
v 26 -58 3
v 30 -62 0
v 24 -60 0
v 24 -56 0
v 26 -55 3
v 28 -51 0
v 54 -2 0
v 57 -2 0
v 56 1 3
v 49 2 0
v 55 8 3
v 49 7 0
v 54 13 0
v 57 10 0
v 57 7 3
v 59 4 0
v -13 -30 0
v -15 -31 0
v -14 -32 2
v -9 -32 0
v -10 -36 0
v -14 -33 2
v -15 -35 0
v -16 -33 0
v 49 -24 0
v 53 -16 0
v 45 -15 3
v 43 -24 0
v 43 -13 0
v 46 -13 3
v 48 -7 0
v 53 -10 0
v 46 -39 0
v 40 -50 0
v 44 -49 8
v 58 -42 0
v 55 -48 5
v 61 -45 0
v 57 -55 0
v 47 -54 3
v 44 -59 0
v 30 -17 0
v 22 -11 0
v 19 -19 3
v 27 -24 0
v 16 -21 0
v 17 -17 3
v 12 -13 0
v 17 -8 0
v 13 -39 0
v 13 -28 0
v 12 -35 3
v 6 -37 0
v 2 -27 3
v 1 -34 0
v -2 -27 0
v 2 -24 0
v 5 -24 4
v 10 -24 0
v 61 34 0
v 59 36 0
v 58 35 2
v 60 30 0
v 56 29 0
v 58 34 2
v 55 34 0
v 57 36 0
v 33 -35 0
v 31 -33 0
v 30 -34 2
v 32 -39 0
v 28 -40 0
v 30 -35 2
v 27 -35 0
v 29 -33 0
v -25 -61 0
v -24 -58 0
v -26 -58 2
v -29 -62 0
v -33 -59 0
v -27 -58 2
v -28 -56 0
v -25 -57 0
v -28 48 0
v -30 47 0
v -29 46 2
v -24 46 0
v -25 42 0
v -29 45 2
v -30 43 0
v -31 45 0
v 32 19 0
v 29 20 0
v 30 16 4
v 36 14 0
v 29 11 3
v 35 10 0
v 30 8 0
v 26 11 0
v 27 13 4
v 26 17 0
v -41 -16 0
v -39 -18 0
v -38 -17 2
v -39 -12 0
v -35 -12 0
v -37 -17 2
v -35 -18 0
v -37 -19 0
v 13 50 0
v 14 48 0
v 15 49 2
v 16 54 0
v 20 52 0
v 16 49 2
v 18 47 0
v 16 47 0

f 1 2 3
f 1 3 4
f 4 3 5
f 4 5 6
f 6 5 7
f 7 5 8
f 8 5 9
f 8 9 10
f 10 9 2
f 2 9 3
f 3 9 5
f 11 12 13
f 11 13 14
f 14 13 15
f 14 15 16
f 16 15 17
f 17 15 18
f 18 15 19
f 18 19 20
f 20 19 12
f 12 19 13
f 13 19 15
f 21 22 23
f 21 23 24
f 24 23 25
f 24 25 26
f 26 25 27
f 27 25 28
f 28 25 29
f 28 29 30
f 30 29 22
f 22 29 23
f 23 29 25
f 31 32 33
f 31 33 34
f 34 33 35
f 35 33 36
f 35 36 37
f 37 36 38
f 38 36 32
f 32 36 33
f 39 40 41
f 39 41 42
f 42 41 43
f 43 41 44
f 43 44 45
f 45 44 46
f 46 44 40
f 40 44 41
f 47 48 49
f 47 49 50
f 50 49 51
f 50 51 52
f 52 51 53
f 53 51 54
f 53 54 55
f 55 54 48
f 48 54 49
f 49 54 51
f 56 57 58
f 56 58 59
f 59 58 60
f 60 58 61
f 60 61 62
f 62 61 63
f 63 61 57
f 57 61 58
f 64 65 66
f 64 66 67
f 67 66 68
f 67 68 69
f 69 68 70
f 70 68 71
f 71 68 72
f 71 72 73
f 73 72 65
f 65 72 66
f 66 72 68
f 74 75 76
f 74 76 77
f 77 76 78
f 78 76 79
f 78 79 80
f 80 79 81
f 81 79 75
f 75 79 76
f 82 83 84
f 82 84 85
f 85 84 86
f 86 84 87
f 86 87 88
f 88 87 89
f 89 87 83
f 83 87 84
f 90 91 92
f 90 92 93
f 93 92 94
f 94 92 95
f 94 95 96
f 96 95 97
f 97 95 91
f 91 95 92
f 98 99 100
f 98 100 101
f 101 100 102
f 102 100 103
f 102 103 104
f 104 103 105
f 105 103 99
f 99 103 100
f 106 107 108
f 106 108 109
f 109 108 110
f 109 110 111
f 111 110 112
f 112 110 113
f 113 110 114
f 113 114 115
f 115 114 107
f 107 114 108
f 108 114 110
f 116 117 118
f 116 118 119
f 119 118 120
f 120 118 121
f 120 121 122
f 122 121 123
f 123 121 117
f 117 121 118
f 124 125 126
f 124 126 127
f 127 126 128
f 128 126 129
f 128 129 130
f 130 129 131
f 131 129 125
f 125 129 126
