# RS2 Model 18275
# Vertices: 245
# Faces: 326

v -39 -45 202
v -39 -60 202
v -39 -60 182
v -39 -45 182
v -42 -45 182
v -42 -45 202
v -39 -48 205
v -39 -57 205
v -42 -57 205
v -42 -60 202
v -42 -60 182
v -39 -56 179
v -39 -48 179
v -42 -48 179
v -42 -48 205
v -42 -56 179
v -41 -48 173
v -41 -64 173
v -41 -64 153
v -41 -48 153
v -44 -48 153
v -44 -48 173
v -41 -51 176
v -41 -64 176
v -44 -51 176
v -44 -64 176
v -41 -64 150
v -41 -51 150
v -44 -51 150
v -39 -39 139
v -39 -59 139
v -39 -59 119
v -39 -39 119
v -42 -39 119
v -42 -39 139
v -39 -42 142
v -39 -56 142
v -42 -56 142
v -42 -59 139
v -42 -59 119
v -39 -55 116
v -39 -42 116
v -42 -42 116
v -42 -42 142
v -42 -55 116
v -40 -34 105
v -40 -53 105
v -40 -53 96
v -40 -34 96
v -43 -34 96
v -43 -34 105
v -40 -37 108
v -40 -50 108
v -43 -50 108
v -43 -53 105
v -43 -53 96
v -40 -49 93
v -40 -37 93
v -43 -37 93
v -43 -37 108
v -43 -49 93
v -41 55 207
v -41 41 207
v -41 41 187
v -41 55 187
v -44 55 187
v -44 55 207
v -41 52 210
v -41 44 210
v -44 44 210
v -44 41 207
v -44 41 187
v -41 45 184
v -41 52 184
v -44 52 184
v -44 52 210
v -44 45 184
v -40 64 173
v -40 45 173
v -40 45 153
v -40 64 153
v -40 49 150
v -40 64 150
v -40 64 176
v -40 48 176
v -43 48 176
v -43 45 173
v -43 45 153
v -43 49 150
v -43 64 176
v -40 62 139
v -40 30 139
v -40 30 119
v -40 62 119
v -43 62 119
v -43 62 139
v -40 59 142
v -40 33 142
v -43 33 142
v -43 30 139
v -43 30 119
v -40 34 116
v -40 59 116
v -43 59 116
v -43 59 142
v -43 34 116
v -44 10 115
v -44 -24 115
v -44 -24 95
v -44 10 95
v -47 10 95
v -47 10 115
v -44 7 118
v -44 -21 118
v -47 -21 118
v -47 -24 115
v -47 -24 95
v -44 -20 92
v -44 7 92
v -47 7 92
v -47 7 118
v -47 -20 92
v -47 64 239
v -47 21 239
v -47 19 215
v -47 48 222
v -47 59 208
v -47 64 205
v -49 64 240
v -61 64 240
v -47 -42 239
v -47 -37 211
v -47 13 215
v -49 16 214
v -49 -40 210
v -47 -43 211
v -47 -52 217
v -47 -64 239
v -47 -57 207
v -47 -64 205
v -49 -64 240
v -61 -64 240
v -61 0 208
v -61 -18 204
v -61 -64 208
v -61 -35 188
v -61 -40 169
v -54 -64 120
v -61 -32 140
v -61 -9 122
v -54 -24 102
v -54 -64 108
v -54 -23 79
v -61 -64 48
v -61 -32 35
v -61 -64 19
v -61 0 35
v -61 64 19
v -64 64 15
v -64 -64 15
v -64 64 0
v -64 -64 0
v -54 19 79
v -54 15 98
v -54 64 108
v -61 64 48
v -54 64 120
v -61 13 125
v -61 32 149
v -61 31 180
v -61 64 208
v -61 17 198
v -49 17 198
v -49 0 208
v -49 -18 204
v -49 -35 188
v -49 -40 169
v -49 -32 140
v -49 -9 122
v -43 -39 218
v -43 8 225
v -49 -64 234
v -43 -57 192
v -43 38 213
v -49 31 180
v -43 57 176
v -49 64 234
v -40 -44 121
v -46 -26 95
v -46 21 92
v -49 13 125
v -49 32 149
v -43 -56 153
v -43 40 133
v -49 52 99
v -49 -64 74
v -49 64 74
v -45 64 86
v -44 17 83
v -47 11 55
v -47 64 58
v -41 11 55
v -41 64 58
v -44 17 0
v -44 64 0
v -49 56 93
v -49 14 86
v -49 8 54
v -44 11 83
v -44 -40 84
v -47 -37 61
v -47 5 55
v -49 -43 87
v -49 -40 60
v -44 -38 0
v -41 -37 61
v -41 5 55
v -47 -46 86
v -45 -64 86
v -47 -64 58
v -47 -43 61
v -47 -56 93
v -47 -61 100
v -47 -64 99
v -41 -43 61
v -44 -64 0
v -41 -64 58
v -47 64 99
v -47 61 100
v -44 37 111
v -44 19 111
v -44 19 100
v -44 37 100
v -47 37 100
v -47 37 111
v -44 34 114
v -44 22 114
v -47 22 114
v -47 19 111
v -47 19 100
v -44 23 97
v -44 34 97
v -47 34 97
v -47 34 114
v -47 23 97

f 1 2 3
f 1 3 4
f 1 4 5
f 1 5 6
f 1 6 7
f 1 7 2
f 2 7 8
f 2 8 9
f 2 9 10
f 2 10 3
f 3 10 11
f 3 11 12
f 3 12 4
f 4 12 13
f 4 13 14
f 4 14 5
f 7 6 15
f 7 15 8
f 8 15 9
f 12 11 16
f 17 18 19
f 17 19 20
f 17 20 21
f 17 21 22
f 17 22 23
f 17 23 18
f 18 23 24
f 24 23 25
f 24 25 26
f 20 19 27
f 20 27 28
f 20 28 29
f 20 29 21
f 23 22 25
f 30 31 32
f 30 32 33
f 30 33 34
f 30 34 35
f 30 35 36
f 30 36 31
f 31 36 37
f 31 37 38
f 31 38 39
f 31 39 32
f 32 39 40
f 32 40 41
f 32 41 33
f 33 41 42
f 33 42 43
f 33 43 34
f 36 35 44
f 36 44 37
f 37 44 38
f 41 40 45
f 46 47 48
f 46 48 49
f 46 49 50
f 46 50 51
f 46 51 52
f 46 52 47
f 47 52 53
f 47 53 54
f 47 54 55
f 47 55 48
f 48 55 56
f 48 56 57
f 48 57 49
f 49 57 58
f 49 58 59
f 49 59 50
f 52 51 60
f 52 60 53
f 53 60 54
f 57 56 61
f 62 63 64
f 62 64 65
f 62 65 66
f 62 66 67
f 62 67 68
f 62 68 63
f 63 68 69
f 63 69 70
f 63 70 71
f 63 71 64
f 64 71 72
f 64 72 73
f 64 73 65
f 65 73 74
f 65 74 75
f 65 75 66
f 68 67 76
f 68 76 69
f 69 76 70
f 73 72 77
f 78 79 80
f 78 80 81
f 81 80 82
f 81 82 83
f 79 78 84
f 79 84 85
f 79 85 86
f 79 86 87
f 79 87 80
f 80 87 88
f 80 88 82
f 82 88 89
f 85 84 90
f 85 90 86
f 91 92 93
f 91 93 94
f 91 94 95
f 91 95 96
f 91 96 97
f 91 97 92
f 92 97 98
f 92 98 99
f 92 99 100
f 92 100 93
f 93 100 101
f 93 101 102
f 93 102 94
f 94 102 103
f 94 103 104
f 94 104 95
f 97 96 105
f 97 105 98
f 98 105 99
f 102 101 106
f 107 108 109
f 107 109 110
f 107 110 111
f 107 111 112
f 107 112 113
f 107 113 108
f 108 113 114
f 108 114 115
f 108 115 116
f 108 116 109
f 109 116 117
f 109 117 118
f 109 118 110
f 110 118 119
f 110 119 120
f 110 120 111
f 113 112 121
f 113 121 114
f 114 121 115
f 118 117 122
f 123 124 125
f 123 125 126
f 123 126 127
f 123 127 128
f 124 123 129
f 124 129 130
f 124 130 131
f 124 131 132
f 124 132 133
f 124 133 134
f 124 134 125
f 132 131 135
f 135 131 136
f 136 131 137
f 137 131 138
f 137 138 139
f 139 138 140
f 138 131 141
f 141 131 142
f 142 131 130
f 142 130 143
f 142 143 144
f 142 144 145
f 145 144 146
f 145 146 147
f 145 147 148
f 148 147 149
f 148 149 150
f 148 150 151
f 148 151 152
f 152 151 153
f 152 153 154
f 154 153 155
f 154 155 156
f 156 155 157
f 156 157 158
f 156 158 159
f 156 159 160
f 160 159 161
f 160 161 162
f 163 153 151
f 163 151 164
f 163 164 165
f 163 165 166
f 163 166 157
f 163 157 153
f 153 157 155
f 164 167 165
f 167 164 168
f 167 168 169
f 167 169 170
f 167 170 171
f 171 170 130
f 130 170 172
f 130 172 143
f 143 172 173
f 143 173 174
f 143 174 144
f 144 174 175
f 144 175 146
f 146 175 176
f 146 176 147
f 147 176 177
f 147 177 149
f 149 177 178
f 149 178 150
f 150 178 179
f 150 179 168
f 150 168 164
f 150 164 151
f 166 158 157
f 180 175 174
f 180 174 181
f 180 181 182
f 180 182 183
f 180 183 176
f 180 176 175
f 184 173 185
f 184 185 186
f 184 186 187
f 184 187 181
f 184 181 174
f 184 174 173
f 178 188 179
f 179 188 189
f 179 189 190
f 179 190 191
f 179 191 168
f 168 191 169
f 169 191 192
f 169 192 170
f 170 192 185
f 170 185 172
f 172 185 173
f 183 193 177
f 183 177 176
f 194 192 191
f 194 191 190
f 194 190 195
f 194 195 186
f 194 186 192
f 192 186 185
f 189 188 196
f 189 196 190
f 190 196 197
f 190 197 195
f 195 197 186
f 186 197 187
f 187 182 181
f 193 188 178
f 193 178 177
f 193 183 182
f 193 182 196
f 193 196 188
f 198 199 200
f 198 200 201
f 201 200 202
f 201 202 203
f 203 202 204
f 203 204 205
f 199 198 206
f 199 206 207
f 199 207 200
f 200 207 208
f 200 208 204
f 200 204 202
f 209 210 211
f 209 211 212
f 209 212 208
f 209 208 207
f 209 207 210
f 210 207 213
f 210 213 211
f 211 213 214
f 211 214 215
f 211 215 216
f 211 216 212
f 212 216 217
f 212 217 204
f 212 204 208
f 218 219 220
f 218 220 221
f 218 221 214
f 218 214 213
f 218 213 219
f 219 213 222
f 219 222 223
f 219 223 224
f 214 221 215
f 215 221 225
f 215 225 226
f 226 225 227
f 227 225 221
f 227 221 220
f 206 198 228
f 206 228 229
f 217 216 215
f 217 215 204
f 230 231 232
f 230 232 233
f 230 233 234
f 230 234 235
f 230 235 236
f 230 236 231
f 231 236 237
f 231 237 238
f 231 238 239
f 231 239 232
f 232 239 240
f 232 240 241
f 232 241 233
f 233 241 242
f 233 242 243
f 233 243 234
f 236 235 244
f 236 244 237
f 237 244 238
f 241 240 245
