# RS2 Model 18306
# Vertices: 24
# Faces: 36

v -47 32 161
v -60 32 159
v -54 42 0
v -41 42 2
v -48 55 167
v -61 55 165
v -55 65 6
v -42 65 8
v -53 -23 209
v -64 -15 207
v -64 -51 5
v -53 -59 7
v -40 -7 193
v -50 0 191
v -50 -33 0
v -40 -40 1
v -50 7 229
v -63 7 226
v -40 7 0
v -27 7 4
v -50 31 229
v -63 31 226
v -40 31 0
v -27 31 4

f 1 2 3
f 1 3 4
f 1 4 5
f 1 5 2
f 2 5 6
f 2 6 7
f 2 7 3
f 3 7 4
f 4 7 8
f 4 8 5
f 5 8 6
f 6 8 7
f 9 10 11
f 9 11 12
f 9 12 13
f 9 13 10
f 10 13 14
f 10 14 15
f 10 15 11
f 11 15 12
f 12 15 16
f 12 16 13
f 13 16 14
f 14 16 15
f 17 18 19
f 17 19 20
f 17 20 21
f 17 21 18
f 18 21 22
f 18 22 23
f 18 23 19
f 19 23 20
f 20 23 24
f 20 24 21
f 21 24 22
f 22 24 23
