# RS2 Model 18334
# Vertices: 164
# Faces: 273

v -9 40 -49
v -1 40 -50
v -14 35 -50
v -28 32 -40
v -26 29 -39
v -26 30 -43
v -29 17 -38
v -25 15 -38
v -25 17 -41
v -23 6 -42
v -12 -42 -9
v -11 -41 -10
v 0 -41 -11
v -3 -44 -8
v -3 -44 -6
v -8 -44 2
v -28 -32 -10
v -16 -41 -9
v -11 -42 -11
v 0 -43 -12
v 11 -42 -11
v 11 -41 -10
v 12 -42 -9
v 3 -44 -8
v 3 -44 -6
v 4 -44 4
v -4 -44 4
v 16 -41 -9
v 28 -32 -10
v 8 -44 2
v 32 -44 30
v 30 -41 22
v 40 -24 26
v 28 -40 56
v 26 -48 37
v 26 -48 35
v 16 -52 35
v 18 -44 31
v 27 -44 23
v 28 -44 21
v 32 -36 6
v 40 -16 10
v 40 -8 18
v 40 0 54
v 18 8 72
v 0 -32 68
v 0 -48 52
v 16 -52 38
v 5 -52 41
v 7 -52 35
v 0 -48 34
v 12 -44 24
v 19 -46 26
v 20 -46 19
v 19 -44 10
v 40 -12 2
v 40 -8 10
v 44 -8 18
v 40 4 22
v 32 40 38
v 0 32 58
v -18 8 72
v -28 -40 56
v -16 -52 38
v -5 -52 41
v -4 -52 38
v 4 -52 38
v -40 -24 26
v -29 -41 22
v -32 -44 30
v -40 0 54
v -40 -8 18
v -40 -16 10
v -32 -36 6
v -28 -44 21
v -27 -44 23
v -19 -44 30
v -16 -52 35
v -26 -48 35
v -26 -48 37
v -7 -52 35
v -19 -45 10
v -21 -46 19
v -20 -46 26
v -13 -44 24
v -40 -12 2
v -25 -12 -34
v -12 -36 -36
v 32 16 -14
v 25 -12 -34
v 26 28 -19
v 40 8 14
v 40 -4 -2
v 8 -36 -36
v -3 -14 -54
v 3 -14 -54
v 22 2 -54
v 26 31 -51
v 6 40 -50
v -6 40 -50
v -26 28 -19
v -32 40 38
v -32 16 -14
v -40 8 14
v -40 4 22
v -44 -8 18
v -40 -8 10
v -44 8 14
v -40 -4 -2
v -44 4 22
v 44 8 14
v 44 4 22
v 11 -44 22
v -12 -44 22
v -10 -45 23
v -6 -45 17
v -1 -50 29
v 1 -50 29
v 6 -45 17
v 8 -46 23
v 17 -48 22
v -26 31 -51
v -21 2 -54
v -18 -48 22
v 9 -48 8
v 8 -48 4
v 1 -48 -1
v 3 -53 6
v -1 -48 -1
v -3 -53 6
v -8 -48 4
v -9 -48 8
v -19 -46 24
v -21 -46 24
v -22 -46 23
v -22 -46 21
v -21 -46 20
v -19 -46 20
v -18 -46 21
v -18 -46 23
v -19 -46 25
v -21 -46 25
v -23 -46 23
v -23 -46 21
v -19 -46 19
v -17 -46 21
v -17 -46 23
v 16 -46 23
v 16 -46 21
v 18 -46 19
v 22 -46 21
v 22 -46 23
v 20 -46 25
v 18 -46 25
v 17 -46 23
v 17 -46 21
v 18 -46 20
v 20 -46 20
v 21 -46 21
v 21 -46 23
v 20 -46 24
v 18 -46 24
v 1 -53 11
v -1 -53 11

f 1 2 3
f 1 3 4
f 1 4 5
f 1 5 2
f 4 3 6
f 4 6 7
f 4 7 8
f 4 8 5
f 7 9 10
f 7 10 8
f 7 6 9
f 11 12 13
f 11 13 14
f 11 14 15
f 11 15 16
f 11 16 17
f 11 17 18
f 11 18 12
f 12 18 19
f 12 19 13
f 13 19 20
f 13 20 21
f 13 21 22
f 13 22 23
f 13 23 24
f 13 24 14
f 14 24 25
f 14 25 15
f 15 25 26
f 15 26 27
f 15 27 16
f 28 23 22
f 28 22 21
f 28 21 29
f 28 29 23
f 23 29 30
f 23 30 25
f 23 25 24
f 31 32 33
f 31 33 34
f 31 34 35
f 31 35 36
f 31 36 37
f 31 37 38
f 31 38 39
f 31 39 32
f 32 39 40
f 32 40 41
f 32 41 33
f 33 41 42
f 33 42 43
f 33 43 44
f 33 44 34
f 34 44 45
f 34 45 46
f 34 46 47
f 34 47 48
f 34 48 35
f 35 48 36
f 36 48 37
f 37 48 49
f 37 49 50
f 37 50 38
f 38 50 51
f 38 51 52
f 38 52 53
f 38 53 39
f 39 53 40
f 40 53 54
f 40 54 55
f 40 55 41
f 41 55 30
f 41 30 29
f 41 29 42
f 42 29 56
f 42 56 57
f 42 57 43
f 43 57 58
f 43 58 59
f 43 59 44
f 44 59 60
f 44 60 45
f 45 60 61
f 45 61 62
f 45 62 46
f 46 62 63
f 46 63 47
f 47 63 64
f 47 64 65
f 47 65 66
f 47 66 51
f 47 51 67
f 47 67 49
f 47 49 48
f 68 69 70
f 68 70 63
f 68 63 71
f 68 71 72
f 68 72 73
f 68 73 74
f 68 74 69
f 69 74 75
f 69 75 76
f 69 76 70
f 70 76 77
f 70 77 78
f 70 78 79
f 70 79 80
f 70 80 63
f 63 80 64
f 64 80 78
f 64 78 81
f 64 81 66
f 64 66 65
f 73 17 74
f 74 17 16
f 74 16 82
f 74 82 75
f 75 82 83
f 75 83 76
f 76 83 84
f 76 84 77
f 77 84 85
f 77 85 51
f 77 51 81
f 77 81 78
f 73 86 17
f 17 86 87
f 17 87 88
f 17 88 19
f 17 19 18
f 89 90 91
f 89 91 60
f 89 60 92
f 89 92 93
f 89 93 90
f 90 93 56
f 90 56 29
f 90 29 94
f 90 94 88
f 90 88 87
f 90 87 95
f 90 95 96
f 90 96 97
f 90 97 98
f 90 98 91
f 91 98 99
f 91 99 100
f 91 100 101
f 91 101 60
f 60 101 102
f 60 102 61
f 61 102 62
f 62 102 71
f 62 71 63
f 101 87 103
f 101 103 102
f 102 103 104
f 102 104 105
f 102 105 71
f 71 105 72
f 72 105 106
f 72 106 107
f 72 107 73
f 73 107 86
f 86 107 108
f 86 108 109
f 86 109 87
f 87 109 103
f 103 109 104
f 104 109 108
f 104 108 110
f 104 110 105
f 105 110 106
f 106 110 108
f 106 108 107
f 58 111 112
f 58 112 59
f 59 112 92
f 59 92 60
f 111 58 57
f 111 57 56
f 111 56 93
f 111 93 92
f 111 92 112
f 49 67 50
f 50 67 51
f 80 79 78
f 51 66 81
f 52 113 54
f 52 54 53
f 84 83 114
f 84 114 85
f 85 114 115
f 85 115 51
f 51 115 116
f 51 116 117
f 51 117 118
f 51 118 119
f 51 119 120
f 51 120 52
f 52 120 113
f 52 113 121
f 52 121 53
f 53 121 39
f 39 121 40
f 87 122 123
f 87 123 95
f 87 101 122
f 122 101 100
f 84 76 124
f 84 124 85
f 85 124 114
f 76 75 124
f 54 113 55
f 55 113 119
f 55 119 125
f 55 125 126
f 55 126 30
f 30 126 127
f 127 126 128
f 127 128 129
f 129 128 130
f 129 130 131
f 129 131 16
f 16 131 82
f 82 131 132
f 82 132 116
f 82 116 114
f 82 114 83
f 113 120 119
f 88 20 19
f 20 88 94
f 20 94 21
f 21 94 29
f 133 134 135
f 133 135 136
f 133 136 137
f 133 137 138
f 133 138 139
f 133 139 140
f 141 142 143
f 141 143 144
f 141 144 83
f 141 83 145
f 141 145 146
f 141 146 147
f 148 149 150
f 148 150 54
f 148 54 151
f 148 151 152
f 148 152 153
f 148 153 154
f 155 156 157
f 155 157 158
f 155 158 159
f 155 159 160
f 155 160 161
f 155 161 162
f 130 128 163
f 130 163 164
f 130 164 132
f 130 132 131
f 126 125 128
f 128 125 163
f 163 125 119
f 163 119 118
f 163 118 117
f 163 117 164
f 164 117 116
f 164 116 132
f 116 115 114
f 30 26 25
