# RS2 Model 18379
# Vertices: 173
# Faces: 304

v -85 3 170
v -78 5 171
v -76 2 148
v -79 1 148
v -84 -3 170
v -87 -4 181
v -88 3 181
v -78 11 171
v -89 6 169
v -89 -5 169
v -79 -7 171
v -81 -8 183
v -82 -9 189
v -88 -6 188
v -90 -1 188
v -90 3 188
v -82 7 189
v -81 6 183
v -75 -1 172
v -74 0 148
v -76 5 148
v -81 3 147
v -79 -1 148
v -76 -3 148
v -76 -1 183
v -76 -1 190
v -72 0 195
v -83 -13 193
v -95 -4 191
v -95 5 191
v -83 11 193
v -76 -5 148
v -81 -2 147
v -80 -2 141
v -75 -5 142
v -70 -3 148
v -80 3 141
v -75 5 142
v -78 -11 171
v -88 -5 163
v -77 -11 165
v -70 -3 166
v -71 -3 172
v -77 11 165
v -88 6 163
v -83 11 195
v -72 0 197
v -83 -13 195
v -95 -4 193
v -95 5 193
v -89 3 194
v -83 6 195
v -77 0 196
v -83 -7 195
v -89 -1 194
v -89 3 192
v -83 6 193
v -77 0 194
v -83 -7 193
v -89 -1 192
v -70 3 148
v -70 4 142
v -71 3 172
v -70 3 166
v -64 3 173
v -64 3 166
v -64 -3 166
v -64 -3 173
v -70 -4 142
v -64 -4 142
v -64 -3 148
v -64 3 148
v -64 4 142
v -51 4 141
v -51 -4 141
v -51 -3 149
v -50 3 148
v -52 -3 175
v -52 3 175
v -52 3 167
v -52 -3 167
v -35 -21 187
v -37 1 191
v -30 21 187
v -50 13 162
v -51 -1 157
v -49 -11 163
v -32 -32 142
v -43 -42 145
v -39 -32 197
v -37 1 207
v -41 32 198
v -33 33 142
v -51 19 150
v -47 -17 148
v -41 -23 106
v -36 -32 95
v -16 -54 151
v -23 -51 219
v -18 -18 240
v -22 12 240
v -22 30 240
v -22 52 219
v -37 46 137
v -35 26 110
v -36 11 123
v -6 64 85
v -19 44 85
v -4 51 105
v 7 64 123
v -28 56 139
v 8 64 169
v -6 64 214
v -18 50 240
v -3 64 240
v 64 64 240
v 64 -64 240
v 64 -64 -160
v 64 64 -160
v -18 34 75
v -20 32 97
v -36 12 70
v -33 2 84
v -41 5 94
v -36 -18 72
v -36 -12 123
v -19 -37 80
v -21 -56 123
v 8 -64 169
v -6 -64 214
v -3 -64 240
v -14 -47 240
v -26 -51 85
v 7 -64 123
v -6 -64 85
v -17 -47 64
v -1 -64 54
v -19 -39 38
v -13 -64 27
v -41 -52 11
v -30 -64 14
v -51 -48 0
v -38 -64 0
v -1 64 54
v -14 47 58
v -29 28 58
v -31 6 57
v -31 -11 58
v -13 -32 62
v -21 -24 37
v -47 -26 20
v -58 -26 0
v -13 64 27
v -26 44 27
v -37 24 31
v -29 9 33
v -29 -6 33
v -54 -12 16
v -61 -9 0
v -30 64 14
v -43 50 12
v -54 24 10
v -54 6 17
v -61 6 0
v -38 64 0
v -51 44 0
v -61 24 0
v 47 62 240
v -23 62 240
v 48 -63 240
v -9 -52 243
v -8 52 243
v -44 -52 -3

f 1 2 3
f 1 3 4
f 1 4 5
f 1 5 6
f 1 6 7
f 1 7 2
f 1 2 8
f 1 8 9
f 1 9 5
f 5 9 10
f 5 10 11
f 5 11 12
f 5 12 6
f 6 12 13
f 6 13 14
f 6 14 15
f 6 15 16
f 6 16 7
f 7 16 17
f 7 17 18
f 7 18 2
f 2 18 19
f 2 19 20
f 2 20 3
f 3 20 21
f 3 21 4
f 4 21 22
f 4 22 23
f 4 23 5
f 5 23 11
f 11 23 24
f 11 24 19
f 11 19 25
f 11 25 12
f 12 25 13
f 13 25 26
f 13 26 27
f 13 27 28
f 13 28 14
f 14 28 29
f 14 29 15
f 15 29 16
f 16 29 30
f 16 30 17
f 17 30 31
f 17 31 26
f 17 26 25
f 17 25 18
f 18 25 19
f 32 33 34
f 32 34 35
f 32 35 36
f 32 36 24
f 32 24 33
f 33 24 23
f 33 23 22
f 33 22 37
f 33 37 34
f 22 21 38
f 22 38 37
f 39 10 40
f 39 40 41
f 39 41 42
f 39 42 43
f 39 43 19
f 39 19 11
f 39 11 10
f 9 8 44
f 9 44 45
f 9 45 10
f 10 45 40
f 31 27 26
f 27 31 46
f 27 46 47
f 27 47 28
f 28 47 48
f 28 48 29
f 29 48 49
f 29 49 30
f 30 49 50
f 30 50 31
f 31 50 46
f 46 50 51
f 46 51 52
f 46 52 53
f 46 53 47
f 47 53 54
f 47 54 48
f 48 54 49
f 49 54 55
f 49 55 51
f 49 51 50
f 52 51 56
f 52 56 57
f 52 57 53
f 53 57 58
f 53 58 54
f 54 58 59
f 54 59 55
f 55 59 60
f 55 60 51
f 51 60 56
f 56 60 57
f 57 60 58
f 58 60 59
f 20 19 24
f 20 24 36
f 20 36 61
f 20 61 21
f 21 61 62
f 21 62 38
f 8 2 19
f 8 19 63
f 8 63 44
f 44 63 64
f 64 63 65
f 64 65 66
f 64 66 42
f 42 66 67
f 42 67 43
f 43 67 68
f 43 68 63
f 43 63 19
f 36 35 69
f 36 69 70
f 36 70 71
f 36 71 61
f 61 71 72
f 61 72 62
f 62 72 73
f 62 73 69
f 69 73 70
f 70 73 74
f 70 74 75
f 70 75 76
f 70 76 71
f 71 76 72
f 72 76 77
f 72 77 74
f 72 74 73
f 63 68 65
f 65 68 78
f 65 78 79
f 65 79 66
f 66 79 80
f 66 80 67
f 67 80 81
f 67 81 68
f 68 81 78
f 78 81 82
f 78 82 83
f 78 83 79
f 79 83 84
f 79 84 80
f 80 84 85
f 80 85 86
f 80 86 81
f 81 86 87
f 81 87 82
f 82 87 88
f 82 88 89
f 82 89 90
f 82 90 83
f 83 90 91
f 83 91 84
f 84 91 92
f 84 92 93
f 84 93 94
f 84 94 85
f 85 94 86
f 86 94 77
f 86 77 76
f 86 76 95
f 86 95 87
f 87 95 88
f 88 95 96
f 88 96 97
f 88 97 89
f 89 97 98
f 89 98 99
f 89 99 90
f 90 99 100
f 90 100 91
f 91 100 101
f 91 101 92
f 92 101 102
f 92 102 103
f 92 103 104
f 92 104 93
f 93 104 105
f 93 105 106
f 93 106 94
f 94 106 74
f 94 74 77
f 107 108 109
f 107 109 110
f 110 109 111
f 110 111 112
f 112 111 103
f 112 103 113
f 113 103 114
f 113 114 115
f 115 114 116
f 116 114 102
f 116 102 101
f 116 101 117
f 116 117 118
f 116 118 119
f 108 120 121
f 108 121 109
f 109 121 104
f 109 104 111
f 111 104 103
f 121 120 122
f 121 122 123
f 121 123 124
f 121 124 105
f 121 105 104
f 122 125 123
f 123 125 97
f 123 97 124
f 124 97 96
f 124 96 126
f 124 126 106
f 124 106 105
f 125 127 97
f 97 127 128
f 97 128 98
f 98 128 129
f 98 129 130
f 98 130 99
f 99 130 131
f 99 131 132
f 99 132 100
f 100 132 117
f 100 117 101
f 127 133 128
f 128 133 134
f 128 134 129
f 133 135 134
f 135 133 136
f 135 136 137
f 137 136 138
f 137 138 139
f 139 138 140
f 139 140 141
f 141 140 142
f 141 142 143
f 103 102 114
f 132 131 117
f 108 107 144
f 108 144 145
f 108 145 120
f 120 145 146
f 120 146 122
f 122 146 147
f 122 147 125
f 125 147 148
f 125 148 149
f 125 149 127
f 127 149 133
f 133 149 136
f 136 149 150
f 136 150 138
f 138 150 151
f 138 151 140
f 140 151 152
f 140 152 142
f 145 144 153
f 145 153 154
f 145 154 146
f 146 154 155
f 146 155 147
f 147 155 156
f 147 156 148
f 148 156 157
f 148 157 149
f 149 157 150
f 150 157 158
f 150 158 151
f 151 158 159
f 151 159 152
f 154 153 160
f 154 160 161
f 154 161 155
f 155 161 162
f 155 162 156
f 156 162 163
f 156 163 157
f 157 163 158
f 158 163 164
f 158 164 159
f 161 160 165
f 161 165 166
f 161 166 162
f 162 166 167
f 162 167 163
f 163 167 164
f 95 126 96
f 126 95 75
f 126 75 106
f 106 75 74
f 75 95 76
f 168 169 170
