# RS2 Model 18397
# Vertices: 139
# Faces: 270

v 140 -37 1
v 122 -37 1
v 122 -28 1
v 140 -28 1
v 146 -35 6
v 102 -58 5
v 112 -37 5
v 112 -24 5
v 130 -24 5
v 154 -20 6
v 111 -30 13
v 111 -37 13
v 99 -62 9
v 154 -64 6
v 102 -74 5
v 94 -66 5
v 88 -58 5
v 91 -37 5
v 101 -28 5
v 101 -14 5
v 130 -14 5
v 152 6 6
v 104 -20 9
v 104 -27 9
v 98 -30 13
v 98 -37 13
v 91 -37 9
v 76 -37 9
v 85 -62 9
v 85 -70 9
v 91 -70 9
v 91 -72 9
v 99 -78 9
v 144 -96 6
v 96 -85 6
v 88 -74 5
v 94 -68 5
v 88 -68 5
v 88 -66 5
v 81 -68 5
v 81 -58 5
v 73 -58 5
v 82 -37 5
v 91 -28 5
v 82 -14 5
v 89 38 14
v 160 30 6
v 83 -20 9
v 91 -27 9
v 72 -37 5
v 72 -28 5
v 82 -28 5
v 82 -24 5
v 46 -15 0
v 41 -8 6
v 60 6 6
v 69 -20 9
v 83 -30 9
v 76 -30 9
v 69 -30 9
v 69 -37 9
v 60 -62 9
v 70 -62 9
v 78 -62 9
v 78 -72 9
v 85 -72 9
v 47 -24 5
v 39 -19 6
v 45 -19 12
v 67 -37 5
v 47 -37 2
v 47 -28 5
v 67 -28 5
v 63 -58 5
v 36 -50 6
v 38 -38 8
v 8 -58 3
v 14 -66 3
v 14 -74 3
v 8 -74 3
v -4 -80 7
v -6 -59 7
v 9 -50 6
v 27 -58 5
v 27 -66 5
v 20 -68 3
v 20 -74 3
v 20 -90 6
v 5 -78 11
v 5 -62 11
v 24 -62 9
v 34 -58 5
v 34 -66 5
v 34 -68 5
v 34 -74 5
v 30 -85 6
v 31 -78 9
v 17 -78 11
v 11 -78 11
v 11 -70 11
v 24 -70 9
v 31 -62 9
v 44 -37 12
v 44 -30 9
v 48 -67 1
v 56 -66 5
v 56 -68 5
v 49 -74 5
v 66 -74 5
v 66 -68 5
v 73 -68 5
v 69 -89 9
v 61 -85 5
v 41 -88 6
v 63 -66 5
v 85 -78 9
v 70 -72 9
v 63 -78 9
v 46 -78 9
v 31 -72 9
v 17 -72 11
v 31 -70 9
v 47 -69 13
v 53 -70 9
v 60 -70 9
v 151 59 6
v 62 -30 9
v 62 -37 9
v 58 -37 9
v 58 -30 9
v 44 -27 9
v 69 -27 9
v 53 -72 9
v 63 -72 9
v 0 0 4
v -10 -10 -6
v 10 -10 -6
v 10 10 -6
v -10 10 -6

f 1 2 3
f 1 3 4
f 1 4 5
f 1 5 6
f 1 6 2
f 2 6 7
f 2 7 3
f 3 7 8
f 3 8 9
f 3 9 4
f 4 9 10
f 4 10 5
f 5 10 11
f 5 11 12
f 5 12 13
f 5 13 14
f 5 14 6
f 6 14 15
f 6 15 16
f 6 16 17
f 6 17 18
f 6 18 7
f 7 18 19
f 7 19 20
f 7 20 8
f 8 20 21
f 8 21 9
f 9 21 10
f 10 21 22
f 10 22 23
f 10 23 24
f 10 24 11
f 11 24 25
f 11 25 26
f 11 26 12
f 12 26 13
f 13 26 27
f 13 27 28
f 13 28 29
f 13 29 30
f 13 30 31
f 13 31 32
f 13 32 33
f 13 33 14
f 14 33 34
f 14 34 15
f 15 34 35
f 15 35 36
f 15 36 37
f 15 37 16
f 16 37 38
f 16 38 39
f 16 39 17
f 17 39 40
f 17 40 41
f 17 41 18
f 18 41 42
f 18 42 43
f 18 43 44
f 18 44 19
f 19 44 45
f 19 45 20
f 20 45 46
f 20 46 21
f 21 46 22
f 22 46 47
f 22 47 46
f 22 46 23
f 23 46 48
f 23 48 24
f 24 48 49
f 24 49 25
f 25 49 27
f 25 27 26
f 43 50 51
f 43 51 52
f 43 52 44
f 44 52 53
f 44 53 45
f 45 53 54
f 45 54 55
f 45 55 56
f 45 56 46
f 46 56 57
f 46 57 48
f 48 57 58
f 48 58 49
f 49 58 27
f 27 58 59
f 27 59 28
f 28 59 60
f 28 60 61
f 28 61 62
f 28 62 63
f 28 63 64
f 28 64 29
f 29 64 30
f 30 64 65
f 30 65 66
f 30 66 32
f 30 32 31
f 53 67 54
f 54 67 68
f 54 68 55
f 55 68 69
f 55 69 57
f 55 57 56
f 70 71 72
f 70 72 73
f 70 73 51
f 70 51 50
f 70 50 74
f 70 74 71
f 71 74 75
f 71 75 76
f 71 76 72
f 72 76 67
f 72 67 73
f 73 67 53
f 73 53 51
f 51 53 52
f 77 78 79
f 77 79 80
f 77 80 81
f 77 81 82
f 77 82 83
f 77 83 84
f 77 84 78
f 78 84 85
f 78 85 86
f 78 86 79
f 79 86 87
f 79 87 88
f 79 88 80
f 80 88 81
f 81 88 89
f 81 89 82
f 82 89 90
f 82 90 83
f 83 90 91
f 83 91 75
f 83 75 84
f 84 75 92
f 84 92 85
f 85 92 93
f 85 93 94
f 85 94 86
f 86 94 95
f 86 95 87
f 87 95 96
f 87 96 88
f 88 96 97
f 88 97 98
f 88 98 99
f 88 99 89
f 89 99 100
f 89 100 90
f 90 100 101
f 90 101 91
f 91 101 102
f 91 102 75
f 75 102 62
f 75 62 103
f 75 103 76
f 76 103 104
f 76 104 68
f 76 68 67
f 105 93 92
f 105 92 74
f 105 74 106
f 105 106 107
f 105 107 108
f 105 108 95
f 105 95 94
f 105 94 93
f 109 108 107
f 109 107 110
f 109 110 111
f 109 111 112
f 109 112 113
f 109 113 108
f 108 113 114
f 108 114 96
f 108 96 95
f 74 115 106
f 106 115 107
f 107 115 110
f 110 115 111
f 111 115 42
f 111 42 40
f 111 40 112
f 112 40 36
f 112 36 35
f 112 35 116
f 112 116 65
f 112 65 117
f 112 117 118
f 112 118 113
f 113 118 119
f 113 119 114
f 114 119 96
f 96 119 97
f 97 119 120
f 97 120 98
f 98 120 121
f 98 121 99
f 99 121 100
f 100 121 101
f 101 121 120
f 101 120 122
f 101 122 102
f 102 122 62
f 62 122 123
f 62 123 124
f 62 124 125
f 62 125 63
f 63 125 117
f 63 117 64
f 64 117 65
f 40 42 41
f 37 36 38
f 38 36 40
f 38 40 39
f 75 74 92
f 74 50 43
f 74 43 42
f 74 42 115
f 46 126 47
f 46 47 126
f 60 127 128
f 60 128 61
f 61 128 62
f 62 128 129
f 62 129 103
f 103 129 130
f 103 130 104
f 104 130 131
f 104 131 68
f 68 131 69
f 69 131 57
f 57 131 132
f 57 132 59
f 57 59 58
f 119 133 124
f 119 124 123
f 119 123 120
f 120 123 122
f 134 133 119
f 134 119 118
f 134 118 117
f 134 117 125
f 134 125 124
f 134 124 133
f 66 116 33
f 66 33 32
f 60 59 132
f 60 132 127
f 127 132 131
f 127 131 130
f 127 130 128
f 128 130 129
f 35 33 116
f 33 35 34
f 65 116 66
f 135 136 137
f 135 137 138
f 135 138 139
f 135 139 136
f 136 139 137
f 137 139 138
