# RS2 Model 18468
# Vertices: 132
# Faces: 212

v -56 2 148
v -56 -2 148
v -56 -2 152
v -56 2 152
v -56 37 152
v -56 37 148
v -52 2 148
v -52 2 116
v -56 2 116
v -56 -2 116
v -52 -2 148
v -52 -39 148
v -56 -39 148
v -56 -39 152
v -52 -2 152
v -52 -2 184
v -56 -2 184
v -56 2 184
v -52 2 152
v -52 37 152
v -52 -39 152
v -52 -2 116
v -52 2 184
v -52 37 148
v -48 64 0
v -60 64 0
v -60 64 127
v -48 64 127
v -48 37 0
v -48 37 127
v -48 14 0
v -48 14 116
v -48 -16 0
v -48 -16 65
v -44 -16 65
v -48 -39 0
v -44 -39 60
v -48 -39 60
v -48 -64 0
v -48 -64 127
v -48 -39 127
v -44 -39 172
v -44 -64 172
v -44 -39 240
v -44 -64 240
v -48 -39 240
v -48 -64 240
v -60 -64 240
v -60 -39 240
v -60 -39 172
v -60 -64 172
v -60 -39 127
v -60 -64 127
v -64 -39 127
v -64 -64 127
v -60 -39 0
v -60 -64 0
v -60 37 0
v -60 14 0
v -60 14 65
v -60 37 127
v -64 37 127
v -64 64 127
v -60 37 172
v -60 64 172
v -48 64 172
v -44 64 172
v -44 37 172
v -48 37 172
v -60 14 116
v -60 -16 116
v -48 -16 116
v -44 -16 116
v -44 -39 127
v -60 -16 65
v -60 -16 0
v -64 -16 116
v -64 -16 65
v -64 14 65
v -48 64 240
v -60 64 240
v -60 37 240
v -48 37 240
v -44 37 240
v -44 64 240
v -60 37 210
v -60 14 240
v -48 14 240
v -48 14 184
v -60 -16 240
v -48 -16 240
v -44 -16 240
v -44 14 240
v -48 -16 184
v -48 -39 172
v -64 37 210
v -60 14 210
v -64 14 210
v -64 14 240
v -64 -16 240
v -60 -16 222
v -60 -16 184
v -60 14 184
v -64 -16 222
v -64 14 116
v -51 -23 128
v -55 -23 128
v -55 -31 123
v -51 -31 123
v -51 -14 125
v -55 -14 125
v -55 -16 116
v -51 -16 116
v -51 -2 116
v -55 -2 116
v -51 -7 128
v -55 -7 128
v -55 2 116
v -51 2 116
v -51 14 116
v -55 14 116
v -51 37 127
v -55 37 127
v -51 15 129
v -55 15 129
v -55 2 136
v -51 2 136
v -51 20 134
v -55 20 134
v -36 21 240
v -69 21 240
v -36 -22 240

f 1 2 3
f 1 3 4
f 1 4 5
f 1 5 6
f 1 6 7
f 1 7 8
f 1 8 9
f 1 9 2
f 2 9 10
f 2 10 11
f 2 11 12
f 2 12 13
f 2 13 3
f 3 13 14
f 3 14 15
f 3 15 16
f 3 16 17
f 3 17 4
f 4 17 18
f 4 18 19
f 4 19 20
f 4 20 5
f 11 7 19
f 11 19 15
f 11 15 21
f 11 21 12
f 7 11 22
f 7 22 8
f 11 10 22
f 15 19 23
f 15 23 16
f 19 18 23
f 19 7 24
f 19 24 20
f 7 6 24
f 15 14 21
f 25 26 27
f 25 27 28
f 25 28 29
f 29 28 30
f 29 30 31
f 31 30 32
f 31 32 33
f 33 32 34
f 33 34 35
f 33 35 36
f 36 35 37
f 36 37 38
f 36 38 39
f 39 38 40
f 40 38 41
f 40 41 42
f 40 42 43
f 43 42 44
f 43 44 45
f 45 44 46
f 45 46 47
f 47 46 48
f 48 46 49
f 48 49 50
f 48 50 51
f 51 50 52
f 51 52 53
f 53 52 54
f 53 54 55
f 55 54 56
f 55 56 57
f 58 59 60
f 58 60 61
f 58 61 62
f 58 62 26
f 26 62 63
f 26 63 27
f 27 63 61
f 27 61 64
f 27 64 65
f 27 65 28
f 28 65 66
f 28 66 67
f 28 67 30
f 30 67 68
f 30 68 69
f 30 69 61
f 30 61 70
f 30 70 32
f 32 70 71
f 32 71 72
f 32 72 34
f 34 72 73
f 34 73 35
f 35 73 37
f 37 73 74
f 37 74 41
f 37 41 38
f 75 76 56
f 75 56 52
f 75 52 71
f 75 71 77
f 75 77 78
f 75 78 76
f 76 78 59
f 59 78 79
f 59 79 60
f 60 79 70
f 60 70 61
f 80 81 82
f 80 82 83
f 80 83 84
f 80 84 85
f 80 85 66
f 80 66 81
f 81 66 65
f 81 65 86
f 81 86 82
f 82 86 87
f 82 87 83
f 83 87 88
f 83 88 89
f 83 89 69
f 83 69 68
f 83 68 84
f 84 68 85
f 85 68 67
f 85 67 66
f 88 87 90
f 88 90 91
f 88 91 92
f 88 92 93
f 88 93 89
f 89 93 94
f 94 93 92
f 94 92 91
f 94 91 95
f 95 91 46
f 95 46 44
f 95 44 42
f 95 42 41
f 95 41 50
f 50 41 52
f 52 41 72
f 52 72 71
f 91 90 49
f 91 49 46
f 61 69 64
f 52 56 54
f 61 63 62
f 72 41 74
f 72 74 73
f 65 64 86
f 86 64 96
f 86 96 97
f 86 97 87
f 87 97 98
f 87 98 99
f 87 99 90
f 90 99 100
f 90 100 101
f 90 101 49
f 49 101 102
f 49 102 50
f 64 103 98
f 64 98 96
f 96 98 97
f 103 102 104
f 103 104 98
f 98 104 100
f 98 100 99
f 102 101 104
f 104 101 100
f 79 78 77
f 79 77 105
f 79 105 70
f 70 105 71
f 71 105 77
f 106 107 108
f 106 108 109
f 106 109 110
f 106 110 107
f 107 110 111
f 107 111 112
f 107 112 108
f 108 109 113
f 108 113 112
f 112 113 114
f 112 114 115
f 110 109 113
f 110 113 114
f 110 114 116
f 110 116 111
f 111 116 117
f 111 117 112
f 112 117 115
f 115 117 114
f 114 117 116
f 118 119 120
f 118 120 121
f 121 120 122
f 121 122 123
f 124 125 126
f 124 126 127
f 124 127 119
f 124 119 120
f 124 120 122
f 124 122 128
f 124 128 125
f 125 128 129
f 125 129 121
f 125 121 126
f 126 121 118
f 129 128 122
f 129 122 123
f 129 123 121
