# RS2 Model 18471
# Vertices: 85
# Faces: 123

v 42 6 188
v 26 22 188
v -9 -44 186
v 47 29 0
v 64 48 0
v 64 48 127
v 47 29 127
v 50 26 158
v 22 5 0
v 25 2 158
v 22 5 158
v -9 -25 0
v -9 -25 65
v -5 -28 65
v -33 -49 0
v -30 -52 60
v -33 -49 60
v -48 -64 0
v -48 -64 127
v -33 -49 127
v -30 -52 172
v -44 -64 172
v -30 -52 240
v -44 -64 240
v -33 -49 240
v -48 -64 240
v -60 -64 240
v -40 -43 240
v -40 -43 172
v -60 -64 172
v -40 -43 127
v -60 -64 127
v -43 -40 127
v -64 -64 127
v -40 -43 0
v -60 -64 0
v 39 37 0
v 14 14 0
v 14 14 65
v 39 37 127
v 36 40 127
v 64 60 0
v 64 64 127
v 64 60 127
v 39 37 172
v 64 60 172
v 39 37 210
v 64 60 240
v 39 37 240
v 64 48 240
v 47 29 240
v 50 26 240
v 64 44 240
v 50 26 166
v 64 44 172
v -17 -17 65
v -17 -17 0
v -17 -17 158
v -19 -14 158
v -19 -14 65
v 12 17 65
v 14 14 159
v 12 17 210
v 36 40 210
v 14 14 210
v 14 14 240
v 22 5 240
v 47 29 158
v -9 -25 146
v -17 -17 240
v -9 -25 240
v -5 -28 240
v 25 2 240
v -33 -49 172
v -17 -17 222
v -19 -14 222
v 12 17 159
v -19 -14 240
v 12 17 240
v -39 -29 240
v -21 -47 240
v 28 36 240
v -27 -10 172
v -11 -26 172
v 19 36 172

f 1 2 3
f 4 5 6
f 4 6 7
f 4 7 8
f 4 8 9
f 9 8 10
f 9 10 11
f 9 11 12
f 12 11 13
f 12 13 14
f 12 14 15
f 15 14 16
f 15 16 17
f 15 17 18
f 18 17 19
f 19 17 20
f 19 20 21
f 19 21 22
f 22 21 23
f 22 23 24
f 24 23 25
f 24 25 26
f 26 25 27
f 27 25 28
f 27 28 29
f 27 29 30
f 30 29 31
f 30 31 32
f 32 31 33
f 32 33 34
f 34 33 35
f 34 35 36
f 37 38 39
f 37 39 40
f 37 40 41
f 37 41 42
f 42 41 43
f 43 41 40
f 43 40 44
f 44 40 45
f 44 45 46
f 46 45 47
f 46 47 48
f 48 47 49
f 48 49 50
f 50 49 51
f 50 51 52
f 50 52 53
f 53 52 54
f 53 54 55
f 55 54 7
f 55 7 6
f 56 57 35
f 56 35 31
f 56 31 29
f 56 29 58
f 56 58 59
f 56 59 60
f 56 60 57
f 57 60 38
f 38 60 61
f 38 61 39
f 39 61 62
f 39 62 40
f 40 62 45
f 45 62 63
f 45 63 64
f 45 64 47
f 47 64 65
f 47 65 66
f 47 66 49
f 49 66 51
f 51 66 67
f 51 67 11
f 51 11 68
f 51 68 54
f 51 54 52
f 13 11 69
f 13 69 17
f 13 17 16
f 13 16 14
f 67 66 70
f 67 70 71
f 67 71 72
f 67 72 73
f 67 73 11
f 11 73 69
f 69 73 72
f 69 72 71
f 69 71 74
f 69 74 20
f 69 20 17
f 71 70 28
f 71 28 25
f 71 25 74
f 74 25 23
f 74 23 21
f 74 21 20
f 31 35 33
f 68 7 54
f 7 68 8
f 8 68 10
f 10 68 11
f 58 29 28
f 58 28 75
f 58 75 76
f 58 76 62
f 58 62 77
f 58 77 59
f 59 77 61
f 59 61 60
f 75 28 70
f 75 70 78
f 75 78 76
f 76 78 63
f 76 63 62
f 65 64 63
f 65 63 66
f 66 63 79
f 66 79 70
f 70 79 78
f 78 79 63
f 62 61 77
