# RS2 Model 18530
# Vertices: 218
# Faces: 298

v -99 -142 6
v -123 -147 12
v -125 -173 12
v -91 -169 6
v -8 -119 6
v -104 -117 6
v -127 -127 12
v -136 -147 12
v -137 -134 12
v -131 -74 12
v -141 -115 12
v -97 -78 6
v -98 -27 12
v -136 -20 12
v -94 58 6
v -127 85 12
v -141 91 12
v -132 -154 12
v -139 -167 12
v -138 -174 12
v -136 -220 12
v -111 -220 12
v 13 -220 12
v 130 -218 12
v 86 -131 7
v 8 -89 6
v -109 136 6
v -137 157 12
v -24 119 6
v -109 209 12
v -142 203 12
v -147 142 11
v -141 106 12
v 181 -29 12
v 168 -30 12
v 176 -53 12
v -1 28 8
v 176 -67 12
v 181 -104 12
v 173 -165 12
v 182 -162 12
v 184 -17 12
v 169 -20 12
v 181 -27 12
v 184 8 12
v 171 5 12
v 183 -9 12
v 125 116 10
v 37 118 4
v 168 120 12
v 147 215 12
v -12 215 12
v 183 15 12
v 179 116 12
v 177 216 12
v 179 128 12
v 173 -218 12
v 181 -170 12
v -145 -215 54
v -145 -210 50
v -157 -208 50
v -157 -215 56
v -145 -218 54
v -157 -218 56
v -145 -222 50
v -157 -225 50
v -145 -222 47
v -157 -225 47
v -145 -218 42
v -157 -218 41
v -145 -215 42
v -157 -215 41
v -145 -210 47
v -157 -208 47
v 191 -215 56
v 191 -209 50
v 179 -210 50
v 179 -215 54
v 191 -219 56
v 191 -209 47
v 179 -210 47
v 191 -215 41
v 179 -215 42
v 191 -219 41
v 179 -218 42
v 191 -225 47
v 179 -222 47
v 191 -225 50
v 179 -222 50
v 179 -218 54
v -124 -210 35
v -124 -202 44
v -50 -204 46
v -50 -213 37
v 78 -204 46
v 78 -213 37
v 158 -202 44
v 158 -210 35
v 187 -200 41
v 187 -208 31
v -124 -202 56
v -50 -204 53
v 78 -204 53
v 158 -202 56
v 187 -200 58
v -124 -210 64
v -50 -213 62
v 78 -213 62
v 158 -210 64
v 187 -208 69
v -124 -222 64
v -50 -220 62
v 78 -220 62
v 158 -222 64
v 187 -225 69
v -124 -231 56
v -50 -229 53
v 78 -229 53
v 158 -231 56
v 187 -233 58
v -124 -231 44
v -50 -229 46
v 78 -229 46
v 158 -231 44
v 187 -233 41
v -124 -222 35
v -50 -220 37
v 78 -220 37
v 158 -222 35
v 187 -225 31
v -152 -200 58
v -152 -208 69
v -152 -225 69
v -152 -233 58
v -152 -233 41
v -152 -225 31
v -152 -200 41
v -152 -208 31
v -145 212 54
v -145 217 50
v -157 219 50
v -157 212 56
v -145 209 54
v -157 209 56
v -145 205 50
v -157 202 50
v -145 205 47
v -157 202 47
v -145 209 42
v -157 209 41
v -145 212 42
v -157 212 41
v -145 217 47
v -157 219 47
v 191 212 56
v 191 218 50
v 179 217 50
v 179 212 54
v 191 208 56
v 191 218 47
v 179 217 47
v 191 212 41
v 179 212 42
v 191 208 41
v 179 209 42
v 191 202 47
v 179 205 47
v 191 202 50
v 179 205 50
v 179 209 54
v -124 217 35
v -124 225 44
v -50 223 46
v -50 214 37
v 78 223 46
v 78 214 37
v 158 225 44
v 158 217 35
v 187 227 41
v 187 219 31
v -124 225 56
v -50 223 53
v 78 223 53
v 158 225 56
v 187 227 58
v -124 217 64
v -50 214 62
v 78 214 62
v 158 217 64
v 187 219 69
v -124 205 64
v -50 207 62
v 78 207 62
v 158 205 64
v 187 202 69
v -124 196 56
v -50 198 53
v 78 198 53
v 158 196 56
v 187 194 58
v -124 196 44
v -50 198 46
v 78 198 46
v 158 196 44
v 187 194 41
v -124 205 35
v -50 207 37
v 78 207 37
v 158 205 35
v 187 202 31
v -152 227 58
v -152 219 69
v -152 202 69
v -152 194 58
v -152 194 41
v -152 202 31
v -152 227 41
v -152 219 31

f 1 2 3
f 1 3 4
f 1 4 5
f 1 5 6
f 1 6 2
f 2 6 7
f 2 7 8
f 8 7 9
f 10 11 7
f 10 7 12
f 10 12 13
f 10 13 14
f 14 13 15
f 14 15 16
f 14 16 17
f 2 18 19
f 2 19 3
f 3 20 21
f 3 21 4
f 4 21 22
f 4 22 5
f 5 22 23
f 5 23 24
f 5 24 25
f 5 25 26
f 5 26 6
f 6 26 12
f 6 12 7
f 27 28 16
f 27 16 15
f 27 15 29
f 27 29 30
f 27 30 28
f 28 30 31
f 28 32 33
f 28 33 16
f 34 35 36
f 36 35 37
f 36 37 38
f 38 37 25
f 38 25 39
f 39 25 24
f 39 24 40
f 39 40 41
f 42 43 35
f 42 35 44
f 45 46 43
f 45 43 47
f 37 43 46
f 37 46 48
f 37 48 49
f 37 49 29
f 37 29 15
f 37 15 13
f 37 13 12
f 37 12 26
f 37 26 25
f 48 46 50
f 48 50 51
f 48 51 52
f 48 52 49
f 49 52 29
f 29 52 30
f 50 46 53
f 50 53 54
f 51 50 55
f 55 50 56
f 40 57 58
f 57 40 24
f 43 37 35
f 59 60 61
f 59 61 62
f 59 62 63
f 63 62 64
f 63 64 65
f 65 64 66
f 65 66 67
f 67 66 68
f 67 68 69
f 69 68 70
f 69 70 71
f 71 70 72
f 71 72 73
f 73 72 74
f 73 74 60
f 60 74 61
f 61 74 62
f 62 74 72
f 62 72 70
f 62 70 68
f 62 68 66
f 62 66 64
f 75 76 77
f 75 77 78
f 75 78 79
f 75 79 76
f 76 79 80
f 76 80 81
f 76 81 77
f 80 82 83
f 80 83 81
f 82 84 85
f 82 85 83
f 84 86 87
f 84 87 85
f 86 88 89
f 86 89 87
f 88 79 90
f 88 90 89
f 79 78 90
f 79 88 86
f 79 86 84
f 79 84 82
f 79 82 80
f 91 92 93
f 91 93 94
f 94 93 95
f 94 95 96
f 96 95 97
f 96 97 98
f 98 97 99
f 98 99 100
f 92 101 102
f 92 102 93
f 93 102 103
f 93 103 95
f 95 103 104
f 95 104 97
f 97 104 105
f 97 105 99
f 101 106 107
f 101 107 102
f 102 107 108
f 102 108 103
f 103 108 109
f 103 109 104
f 104 109 110
f 104 110 105
f 106 111 112
f 106 112 107
f 107 112 113
f 107 113 108
f 108 113 114
f 108 114 109
f 109 114 115
f 109 115 110
f 111 116 117
f 111 117 112
f 112 117 118
f 112 118 113
f 113 118 119
f 113 119 114
f 114 119 120
f 114 120 115
f 116 121 122
f 116 122 117
f 117 122 123
f 117 123 118
f 118 123 124
f 118 124 119
f 119 124 125
f 119 125 120
f 121 126 127
f 121 127 122
f 122 127 128
f 122 128 123
f 123 128 129
f 123 129 124
f 124 129 130
f 124 130 125
f 106 101 131
f 106 131 132
f 106 132 111
f 111 132 133
f 111 133 116
f 116 133 134
f 116 134 121
f 121 134 135
f 121 135 126
f 126 135 136
f 101 92 137
f 101 137 131
f 92 91 138
f 92 138 137
f 139 140 141
f 139 141 142
f 139 142 143
f 143 142 144
f 143 144 145
f 145 144 146
f 145 146 147
f 147 146 148
f 147 148 149
f 149 148 150
f 149 150 151
f 151 150 152
f 151 152 153
f 153 152 154
f 153 154 140
f 140 154 141
f 141 154 142
f 142 154 152
f 142 152 150
f 142 150 148
f 142 148 146
f 142 146 144
f 155 156 157
f 155 157 158
f 155 158 159
f 155 159 156
f 156 159 160
f 156 160 161
f 156 161 157
f 160 162 163
f 160 163 161
f 162 164 165
f 162 165 163
f 164 166 167
f 164 167 165
f 166 168 169
f 166 169 167
f 168 159 170
f 168 170 169
f 159 158 170
f 159 168 166
f 159 166 164
f 159 164 162
f 159 162 160
f 171 172 173
f 171 173 174
f 174 173 175
f 174 175 176
f 176 175 177
f 176 177 178
f 178 177 179
f 178 179 180
f 172 181 182
f 172 182 173
f 173 182 183
f 173 183 175
f 175 183 184
f 175 184 177
f 177 184 185
f 177 185 179
f 181 186 187
f 181 187 182
f 182 187 188
f 182 188 183
f 183 188 189
f 183 189 184
f 184 189 190
f 184 190 185
f 186 191 192
f 186 192 187
f 187 192 193
f 187 193 188
f 188 193 194
f 188 194 189
f 189 194 195
f 189 195 190
f 191 196 197
f 191 197 192
f 192 197 198
f 192 198 193
f 193 198 199
f 193 199 194
f 194 199 200
f 194 200 195
f 196 201 202
f 196 202 197
f 197 202 203
f 197 203 198
f 198 203 204
f 198 204 199
f 199 204 205
f 199 205 200
f 201 206 207
f 201 207 202
f 202 207 208
f 202 208 203
f 203 208 209
f 203 209 204
f 204 209 210
f 204 210 205
f 186 181 211
f 186 211 212
f 186 212 191
f 191 212 213
f 191 213 196
f 196 213 214
f 196 214 201
f 201 214 215
f 201 215 206
f 206 215 216
f 181 172 217
f 181 217 211
f 172 171 218
f 172 218 217
