# RS2 Model 18551
# Vertices: 259
# Faces: 339

v 6 49 173
v 7 49 172
v 11 50 171
v 12 52 173
v 7 51 177
v 5 50 176
v -4 46 178
v -2 46 176
v -5 45 179
v -4 44 177
v 2 43 172
v 1 41 170
v 4 43 170
v 11 44 166
v 13 46 166
v 10 43 165
v 13 45 164
v 19 50 166
v 21 50 164
v 20 52 168
v -3 53 184
v -4 52 183
v -6 52 187
v -7 51 185
v 3 41 168
v -6 32 164
v -4 31 163
v -7 29 163
v -6 29 162
v 7 35 162
v 6 33 160
v 14 34 160
v 14 33 157
v 17 35 160
v 23 53 166
v 18 54 166
v 10 54 171
v 5 53 173
v 4 52 176
v -4 53 183
v -7 53 185
v -22 53 197
v -21 51 199
v -22 50 198
v -23 52 201
v -25 50 201
v -23 44 182
v -25 43 184
v -29 34 173
v -31 33 174
v -26 34 173
v 33 50 158
v 34 51 159
v 20 54 164
v 13 62 164
v 14 63 162
v 11 62 164
v 8 55 172
v 1 65 169
v -1 63 171
v -1 66 169
v -3 65 170
v -5 59 176
v -6 60 177
v -5 58 178
v -29 33 172
v -17 34 167
v -16 35 169
v -75 22 144
v 17 34 158
v 24 44 156
v 23 44 159
v 25 22 150
v 38 51 156
v 39 52 157
v 33 53 158
v -48 52 231
v -25 53 200
v -22 58 188
v -19 58 187
v -27 66 185
v -23 64 184
v -26 68 183
v -57 75 194
v -31 21 150
v 63 51 150
v 67 52 150
v 38 53 156
v 24 67 157
v 23 66 158
v 22 69 157
v 21 67 158
v 12 70 156
v 12 72 155
v 10 70 157
v 11 64 163
v -7 59 178
v -24 66 183
v -17 69 172
v -15 68 174
v -14 74 163
v -12 71 164
v -12 74 161
v -43 102 144
v -10 72 163
v 0 73 161
v 2 71 163
v 10 72 156
v 19 88 150
v 63 52 150
v 31 76 150
v -62 8 365
v -62 4 366
v -62 1 366
v -62 -1 361
v -62 3 360
v -62 9 360
v -62 22 363
v -62 22 368
v -62 24 363
v -62 24 369
v -62 17 375
v -62 -1 364
v -62 -12 358
v -62 -10 356
v -62 -17 358
v -62 -15 355
v -62 -6 351
v -62 -8 350
v -62 -5 350
v -62 15 376
v -62 -10 371
v -62 -12 370
v -62 6 377
v -62 3 376
v -62 -15 371
v -62 3 378
v -62 -12 372
v -62 7 381
v -62 -40 354
v -62 -38 351
v -63 -30 382
v -63 -33 381
v -63 -34 366
v -63 -38 368
v -62 -45 353
v -62 -43 350
v -63 -28 344
v -63 -32 343
v -63 -25 330
v -63 -28 326
v -63 -24 328
v -62 -6 348
v -62 2 347
v -62 2 345
v -62 6 347
v -62 7 358
v -62 22 351
v -62 23 353
v -62 24 351
v -62 26 352
v -63 -38 382
v -63 -35 383
v -62 -77 403
v -62 -4 391
v -62 -6 393
v -62 -78 344
v -62 5 344
v -62 9 313
v -62 12 315
v -62 8 310
v -62 11 311
v -61 21 332
v -61 23 330
v -62 36 339
v -62 38 338
v -62 38 341
v -62 -8 325
v -63 -25 325
v -62 -8 323
v -62 45 352
v -62 40 340
v -62 50 328
v -62 -75 284
v -62 48 254
v -63 1 366
v -63 4 366
v -63 8 365
v -63 -1 361
v -63 -1 364
v -63 -12 370
v -63 -10 371
v -63 -15 371
v -63 -12 372
v -63 3 376
v -63 3 378
v -63 6 377
v -63 15 376
v -63 17 375
v -63 -10 356
v -63 -12 358
v -63 -15 355
v -63 -17 358
v -63 7 381
v -63 22 368
v -63 24 369
v -63 22 363
v -63 9 360
v -63 3 360
v -63 -5 350
v -63 -6 351
v -63 -6 348
v -63 -8 350
v -63 -38 351
v -63 -40 354
v -63 -43 350
v -63 -45 353
v -64 -34 366
v -64 -38 368
v -64 -33 381
v -64 -38 382
v -64 -30 382
v -64 -35 383
v -63 -6 393
v -63 -4 391
v -63 -77 403
v -63 -78 344
v -63 7 358
v -63 6 347
v -63 2 347
v -63 5 344
v -63 2 345
v -63 23 353
v -63 22 351
v -63 26 352
v -63 24 351
v -63 24 363
v -64 -24 328
v -64 -25 330
v -64 -25 325
v -64 -28 326
v -64 -28 344
v -64 -32 343
v -63 12 315
v -63 9 313
v -63 11 311
v -63 8 310
v -63 -8 325
v -63 -8 323
v -63 38 341
v -63 36 339
v -63 40 340
v -63 38 338
v -62 21 332
v -62 23 330
v -63 45 352
v -63 -75 284
v -63 48 254
v -63 50 328

f 1 2 3
f 1 3 4
f 1 4 5
f 1 5 6
f 1 6 7
f 1 7 8
f 8 7 9
f 8 9 10
f 8 10 11
f 11 10 12
f 11 12 13
f 11 13 2
f 11 2 1
f 3 2 14
f 3 14 15
f 15 14 16
f 15 16 17
f 15 17 18
f 18 17 19
f 18 19 20
f 18 20 4
f 18 4 3
f 6 5 21
f 6 21 22
f 22 21 23
f 22 23 24
f 22 24 7
f 7 24 9
f 25 16 14
f 25 14 13
f 25 13 12
f 25 12 26
f 25 26 27
f 27 26 28
f 27 28 29
f 27 29 30
f 30 29 31
f 30 31 32
f 32 31 33
f 32 33 34
f 32 34 17
f 32 17 16
f 20 19 35
f 20 35 36
f 20 36 37
f 20 37 4
f 4 37 38
f 4 38 5
f 5 38 39
f 5 39 40
f 5 40 21
f 21 40 41
f 21 41 23
f 23 41 42
f 23 42 43
f 23 43 24
f 24 43 44
f 44 43 45
f 44 45 46
f 44 46 47
f 47 46 48
f 47 48 49
f 49 48 50
f 49 50 51
f 49 51 10
f 49 10 9
f 35 19 52
f 35 52 53
f 35 53 54
f 35 54 36
f 36 54 55
f 55 54 56
f 55 56 57
f 55 57 58
f 55 58 37
f 37 58 38
f 38 58 59
f 38 59 60
f 60 59 61
f 60 61 62
f 60 62 63
f 63 62 64
f 63 64 65
f 63 65 39
f 63 39 38
f 66 67 68
f 66 68 51
f 66 51 50
f 66 50 69
f 26 68 67
f 26 67 28
f 70 71 72
f 70 72 34
f 70 34 33
f 70 33 73
f 52 72 71
f 52 71 74
f 52 74 53
f 53 74 75
f 53 75 76
f 53 76 54
f 45 77 46
f 77 45 78
f 78 45 43
f 78 43 42
f 78 42 79
f 79 42 80
f 79 80 81
f 81 80 82
f 81 82 83
f 81 83 84
f 28 85 29
f 75 74 86
f 75 86 87
f 75 87 88
f 75 88 76
f 76 88 89
f 76 89 90
f 90 89 91
f 90 91 92
f 92 91 93
f 93 91 94
f 93 94 95
f 93 95 96
f 93 96 56
f 56 96 57
f 57 96 59
f 59 96 61
f 97 41 40
f 97 40 65
f 97 65 64
f 97 64 98
f 97 98 82
f 82 98 83
f 83 98 99
f 99 98 100
f 99 100 101
f 101 100 102
f 101 102 103
f 101 103 104
f 62 61 105
f 62 105 102
f 102 105 103
f 103 105 106
f 106 105 107
f 106 107 108
f 108 107 95
f 108 95 94
f 108 94 109
f 88 87 110
f 89 111 91
f 112 113 114
f 112 114 115
f 112 115 116
f 112 116 117
f 112 117 118
f 112 118 119
f 119 118 120
f 119 120 121
f 119 121 122
f 114 123 115
f 115 123 124
f 115 124 125
f 125 124 126
f 125 126 127
f 125 127 128
f 128 127 129
f 128 129 130
f 128 130 116
f 128 116 115
f 122 131 113
f 122 113 112
f 132 133 123
f 132 123 114
f 134 135 114
f 134 114 113
f 124 133 136
f 124 136 126
f 137 138 132
f 137 132 135
f 137 135 139
f 139 135 134
f 139 134 131
f 138 136 133
f 138 133 132
f 140 141 127
f 140 127 126
f 142 143 136
f 142 136 138
f 140 144 145
f 140 145 146
f 140 146 141
f 141 146 147
f 141 147 148
f 148 147 149
f 148 149 150
f 150 149 151
f 150 151 152
f 150 152 153
f 150 153 129
f 129 153 130
f 130 153 154
f 154 153 155
f 154 155 156
f 154 156 157
f 154 157 116
f 116 157 117
f 117 157 158
f 117 158 159
f 159 158 160
f 159 160 161
f 159 161 118
f 118 161 120
f 162 145 144
f 162 144 143
f 162 143 163
f 162 163 164
f 142 165 166
f 142 166 163
f 142 163 143
f 146 167 147
f 158 156 168
f 158 168 160
f 155 168 156
f 168 155 169
f 168 169 170
f 170 169 171
f 170 171 172
f 170 172 173
f 173 172 174
f 173 174 175
f 175 174 176
f 175 176 177
f 175 177 161
f 175 161 160
f 178 152 179
f 178 179 180
f 178 180 169
f 169 180 171
f 181 177 182
f 182 177 176
f 182 176 183
f 151 179 152
f 179 151 184
f 171 185 172
f 186 187 188
f 186 188 189
f 186 189 190
f 186 190 191
f 186 191 192
f 192 191 193
f 192 193 194
f 192 194 195
f 195 194 196
f 195 196 197
f 195 197 187
f 195 187 186
f 188 187 198
f 188 198 199
f 190 189 200
f 190 200 201
f 201 200 202
f 201 202 203
f 201 203 191
f 191 203 193
f 198 197 204
f 204 197 196
f 205 199 206
f 205 206 207
f 205 207 208
f 205 208 188
f 188 208 209
f 188 209 189
f 189 209 210
f 189 210 211
f 211 210 212
f 211 212 213
f 211 213 200
f 200 213 202
f 203 202 214
f 203 214 215
f 215 214 216
f 215 216 217
f 215 217 218
f 218 217 219
f 218 219 220
f 220 219 221
f 220 221 222
f 220 222 194
f 220 194 193
f 223 224 225
f 223 225 222
f 223 222 221
f 223 221 226
f 216 227 217
f 209 208 228
f 209 228 229
f 209 229 230
f 230 229 231
f 230 231 232
f 230 232 210
f 210 232 212
f 228 208 233
f 228 233 234
f 234 233 235
f 234 235 236
f 234 236 229
f 229 236 231
f 233 207 237
f 233 237 235
f 207 206 237
f 213 212 238
f 213 238 239
f 239 238 240
f 239 240 241
f 239 241 242
f 242 241 243
f 242 243 214
f 214 243 216
f 232 231 244
f 232 244 245
f 245 244 246
f 245 246 247
f 245 247 248
f 248 247 249
f 248 249 238
f 238 249 240
f 236 235 250
f 236 250 251
f 251 250 252
f 251 252 253
f 251 253 254
f 254 253 255
f 254 255 244
f 244 255 246
f 252 250 256
f 240 257 241
f 246 258 247
f 252 259 253
