# RS2 Model 18568
# Vertices: 93
# Faces: 190

v -24 -1 63
v -20 -5 64
v -20 -9 65
v -25 -8 64
v -26 -1 63
v -21 8 66
v -21 2 64
v -18 1 64
v -18 1 65
v -20 -5 65
v -20 -9 66
v -26 -12 68
v -27 -7 64
v -27 -7 65
v -26 -1 64
v -23 8 66
v -23 11 71
v -21 11 71
v -18 11 71
v -18 8 66
v -18 7 67
v -23 7 67
v -28 -11 69
v -26 -11 69
v -26 -15 74
v -28 -12 68
v -26 -16 77
v -20 -16 76
v -19 -16 77
v -20 -16 78
v -26 -15 79
v -33 -13 77
v -26 -14 75
v -20 -15 76
v -19 -15 77
v -20 -15 78
v -26 -14 79
v -26 -12 85
v -26 -13 85
v -28 -12 85
v -32 -13 79
v -35 -6 79
v -36 -6 77
v -35 -6 74
v -32 -13 74
v -31 -12 75
v -23 12 77
v -21 12 77
v -24 11 75
v -32 9 75
v -33 9 77
v -32 9 79
v -24 11 79
v -21 11 82
v -18 11 82
v -18 12 77
v -23 10 72
v -23 10 75
v -31 8 75
v -36 1 74
v -37 1 77
v -36 1 79
v -31 8 79
v -23 10 79
v -23 10 82
v -23 11 82
v -21 8 88
v -18 8 88
v -18 10 82
v -18 11 77
v -18 10 72
v -35 1 79
v -18 7 87
v -23 7 87
v -23 8 88
v -26 -1 90
v -24 -1 90
v -21 2 90
v -18 1 90
v -35 1 75
v -34 -6 75
v -31 -12 79
v -20 -9 89
v -20 -5 90
v -18 1 89
v -26 -1 89
v -27 -7 88
v -27 -7 89
v -25 -8 89
v -20 -9 88
v -20 -5 89
v -28 -11 84
v -34 -6 79

f 1 2 3
f 1 3 4
f 1 4 5
f 1 5 6
f 1 6 7
f 1 7 2
f 2 7 8
f 2 8 9
f 2 9 10
f 2 10 3
f 3 10 11
f 3 11 12
f 3 12 4
f 4 12 13
f 4 13 5
f 5 13 14
f 5 14 15
f 5 15 16
f 5 16 6
f 6 16 17
f 6 17 18
f 6 18 19
f 6 19 20
f 6 20 7
f 7 20 8
f 8 20 21
f 8 21 9
f 9 21 22
f 9 22 15
f 9 15 10
f 10 15 14
f 10 14 11
f 11 14 23
f 11 23 24
f 11 24 12
f 12 24 25
f 12 25 26
f 12 26 13
f 13 26 23
f 13 23 14
f 27 28 29
f 27 29 30
f 27 30 31
f 27 31 32
f 27 32 25
f 27 25 28
f 28 25 33
f 28 33 34
f 28 34 29
f 29 34 35
f 29 35 36
f 29 36 30
f 30 36 37
f 30 37 31
f 31 37 38
f 31 38 39
f 31 39 40
f 31 40 41
f 31 41 32
f 32 41 42
f 32 42 43
f 32 43 44
f 32 44 45
f 32 45 25
f 25 45 26
f 26 45 46
f 26 46 23
f 23 46 33
f 23 33 24
f 24 33 25
f 47 48 49
f 47 49 50
f 47 50 51
f 47 51 52
f 47 52 53
f 47 53 48
f 48 53 54
f 48 54 55
f 48 55 56
f 48 56 19
f 48 19 18
f 48 18 49
f 49 18 17
f 49 17 57
f 49 57 58
f 49 58 50
f 50 58 59
f 50 59 60
f 50 60 51
f 51 60 61
f 51 61 62
f 51 62 52
f 52 62 63
f 52 63 64
f 52 64 53
f 53 64 65
f 53 65 66
f 53 66 54
f 54 66 67
f 54 67 55
f 55 67 68
f 55 68 69
f 55 69 70
f 55 70 56
f 56 70 19
f 19 70 71
f 19 71 20
f 20 71 21
f 21 71 57
f 21 57 22
f 22 57 17
f 22 17 16
f 22 16 15
f 60 44 43
f 60 43 61
f 61 43 62
f 62 43 42
f 62 42 72
f 62 72 63
f 63 72 59
f 63 59 58
f 63 58 64
f 64 58 70
f 64 70 69
f 64 69 65
f 65 69 73
f 65 73 74
f 65 74 66
f 66 74 75
f 66 75 67
f 67 75 76
f 67 76 77
f 67 77 78
f 67 78 68
f 68 78 79
f 68 79 73
f 68 73 69
f 60 59 80
f 60 80 44
f 44 80 81
f 44 81 45
f 45 81 46
f 46 81 82
f 46 82 37
f 46 37 33
f 33 37 34
f 34 37 36
f 34 36 35
f 77 83 84
f 77 84 78
f 78 84 79
f 79 84 85
f 79 85 73
f 73 85 74
f 74 85 86
f 74 86 75
f 75 86 76
f 76 86 87
f 76 87 88
f 76 88 89
f 76 89 77
f 77 89 83
f 83 89 39
f 83 39 90
f 83 90 91
f 83 91 84
f 84 91 85
f 85 91 86
f 86 91 87
f 87 91 90
f 87 90 38
f 87 38 92
f 87 92 88
f 88 92 40
f 88 40 39
f 88 39 89
f 39 38 90
f 42 93 72
f 72 93 80
f 72 80 59
f 41 82 93
f 41 93 42
f 40 92 82
f 40 82 41
f 37 82 92
f 37 92 38
f 81 93 82
f 93 81 80
f 71 70 58
f 71 58 57
