# RS2 Model 18599
# Vertices: 152
# Faces: 200

v -51 0 168
v -61 0 168
v -61 -48 208
v -51 -48 208
v -51 -4 161
v -51 0 158
v -51 4 161
v -51 48 197
v -51 48 208
v -61 48 208
v -61 4 161
v -61 -4 161
v -61 -48 197
v -51 -48 197
v -55 -4 165
v -55 -10 159
v -51 -48 128
v -51 -48 117
v -55 0 162
v -55 48 121
v -51 48 117
v -51 48 128
v -55 10 159
v -55 4 165
v -55 48 201
v -55 -48 201
v -55 -48 190
v -57 -10 159
v -61 -48 128
v -61 -48 117
v -61 0 158
v -57 -48 121
v -57 0 162
v -57 -48 111
v -57 0 150
v -55 -48 111
v -55 0 150
v -55 -48 121
v -57 -4 165
v -57 -48 190
v -57 -48 201
v -55 48 190
v -57 10 159
v -57 4 165
v -57 48 201
v -57 48 190
v -61 48 197
v -61 48 128
v -55 48 111
v -57 48 111
v -57 48 121
v -61 48 117
v -64 -64 0
v -48 -64 0
v -48 -64 240
v -64 -64 240
v -64 -60 0
v -64 -60 240
v -61 -60 0
v -61 -60 240
v -61 -52 0
v -61 -52 240
v -64 -52 0
v -64 -52 240
v -64 -48 0
v -64 -48 240
v -48 -48 0
v -48 -48 240
v -48 -52 0
v -48 -52 240
v -51 -52 0
v -51 -52 240
v -51 -60 1
v -51 -60 240
v -48 -60 0
v -48 -60 240
v -48 64 0
v -64 64 0
v -64 64 240
v -48 64 240
v -48 60 0
v -48 60 240
v -51 60 1
v -51 60 240
v -51 52 0
v -51 52 240
v -48 52 0
v -48 52 240
v -48 48 0
v -48 48 240
v -64 48 0
v -64 48 240
v -64 52 0
v -64 52 240
v -61 52 0
v -61 52 240
v -61 60 0
v -61 60 240
v -64 60 0
v -64 60 240
v -51 0 57
v -61 0 57
v -61 -48 97
v -51 -48 97
v -51 -4 54
v -51 0 51
v -51 4 54
v -51 48 90
v -51 48 97
v -61 48 97
v -61 4 54
v -61 -4 54
v -61 -48 90
v -51 -48 90
v -55 -10 48
v -55 -4 54
v -55 -48 90
v -55 -48 79
v -57 -4 54
v -57 -10 48
v -57 -48 79
v -57 -48 90
v -55 4 54
v -55 48 90
v -55 10 48
v -55 48 79
v -57 10 48
v -57 4 54
v -57 48 90
v -57 48 79
v -61 48 90
v -51 48 17
v -61 48 17
v -61 0 51
v -61 -48 10
v -61 -48 17
v -51 48 10
v -55 48 0
v -55 48 10
v -55 0 51
v -55 0 39
v -55 -48 10
v -55 -48 0
v -57 48 10
v -57 48 0
v -57 0 39
v -57 0 51
v -57 -48 0
v -57 -48 10
v -61 48 10
v -51 -48 17
v -51 -48 10

f 1 2 3
f 1 3 4
f 1 4 5
f 1 5 6
f 1 6 7
f 1 7 8
f 1 8 9
f 1 9 2
f 2 9 10
f 2 10 11
f 2 11 12
f 2 12 13
f 2 13 3
f 5 4 14
f 5 14 15
f 5 15 16
f 5 16 17
f 5 17 6
f 6 17 18
f 6 18 19
f 6 19 20
f 6 20 21
f 6 21 7
f 7 21 22
f 7 22 23
f 7 23 24
f 7 24 25
f 7 25 8
f 15 14 26
f 15 26 16
f 16 26 27
f 16 27 28
f 16 28 17
f 17 28 29
f 29 28 12
f 29 12 30
f 30 12 31
f 30 31 32
f 32 31 33
f 32 33 34
f 34 33 35
f 34 35 36
f 36 35 37
f 36 37 38
f 38 37 19
f 38 19 18
f 39 28 40
f 39 40 41
f 39 41 12
f 39 12 28
f 28 27 40
f 12 41 13
f 24 23 42
f 24 42 25
f 43 44 45
f 43 45 46
f 43 46 23
f 43 23 22
f 43 22 11
f 43 11 44
f 44 11 47
f 44 47 45
f 23 46 42
f 11 10 47
f 22 48 11
f 11 48 31
f 11 31 12
f 49 20 19
f 49 19 37
f 49 37 50
f 50 37 35
f 50 35 51
f 51 35 33
f 51 33 52
f 52 33 31
f 52 31 48
f 53 54 55
f 53 55 56
f 53 56 57
f 57 56 58
f 57 58 59
f 59 58 60
f 59 60 61
f 61 60 62
f 61 62 63
f 63 62 64
f 63 64 65
f 65 64 66
f 65 66 67
f 67 66 68
f 67 68 69
f 69 68 70
f 69 70 71
f 71 70 72
f 71 72 73
f 73 72 74
f 73 74 75
f 75 74 76
f 75 76 54
f 54 76 55
f 55 76 74
f 55 74 56
f 56 74 60
f 56 60 58
f 60 74 72
f 60 72 62
f 62 72 68
f 62 68 66
f 62 66 64
f 68 72 70
f 77 78 79
f 77 79 80
f 77 80 81
f 81 80 82
f 81 82 83
f 83 82 84
f 83 84 85
f 85 84 86
f 85 86 87
f 87 86 88
f 87 88 89
f 89 88 90
f 89 90 91
f 91 90 92
f 91 92 93
f 93 92 94
f 93 94 95
f 95 94 96
f 95 96 97
f 97 96 98
f 97 98 99
f 99 98 100
f 99 100 78
f 78 100 79
f 79 100 98
f 79 98 80
f 80 98 84
f 80 84 82
f 84 98 96
f 84 96 86
f 86 96 92
f 86 92 90
f 86 90 88
f 96 94 92
f 101 102 103
f 101 103 104
f 101 104 105
f 101 105 106
f 101 106 107
f 101 107 108
f 101 108 109
f 101 109 102
f 102 109 110
f 102 110 111
f 102 111 112
f 102 112 113
f 102 113 103
f 105 104 114
f 115 116 117
f 115 117 118
f 119 120 121
f 119 121 122
f 107 123 124
f 107 124 108
f 123 125 126
f 123 126 124
f 127 128 129
f 127 129 130
f 111 110 131
f 111 131 128
f 111 128 127
f 111 127 132
f 111 132 133
f 111 133 134
f 111 134 112
f 112 134 135
f 112 135 136
f 112 136 120
f 112 120 119
f 128 131 129
f 137 132 107
f 137 107 106
f 138 139 140
f 138 140 141
f 141 140 142
f 141 142 143
f 144 145 146
f 144 146 147
f 147 146 148
f 147 148 149
f 133 150 134
f 132 127 125
f 132 125 107
f 107 125 123
f 136 151 120
f 120 151 115
f 115 151 105
f 115 105 116
f 151 152 106
f 151 106 105
