# RS2 Model 18623
# Vertices: 262
# Faces: 254

v 56 58 112
v 56 60 112
v 56 63 166
v 56 54 166
v 64 58 112
v 64 60 112
v 48 62 9
v 48 60 112
v 48 63 166
v 48 46 166
v 48 46 126
v -47 47 166
v -48 46 126
v -48 60 112
v -48 63 166
v -56 63 166
v -56 60 112
v -55 55 166
v -57 57 112
v -63 56 166
v -60 56 112
v -60 48 112
v -63 48 166
v -46 48 126
v -46 -48 166
v -46 -48 126
v -60 -48 112
v -63 -48 166
v -63 -56 166
v -60 -56 112
v -54 -56 166
v -58 -56 112
v -54 -64 166
v -58 -64 112
v -60 -64 112
v -62 -48 9
v -62 -64 9
v -64 -64 7
v -64 64 7
v -64 -64 0
v -64 64 0
v 64 64 7
v 64 64 0
v 64 54 166
v -61 -35 117
v -64 -32 119
v -61 -32 115
v -61 -28 117
v -61 -28 121
v -61 -32 123
v -61 -35 121
v -61 34 90
v -61 11 66
v -61 -11 66
v -61 -34 90
v -61 -43 112
v -61 43 112
v -50 43 112
v -50 34 90
v -50 11 66
v -61 34 134
v -61 -34 134
v -61 11 158
v -50 11 158
v -50 34 134
v -61 -11 158
v -50 -11 158
v -50 -11 66
v -50 -34 90
v -50 -43 112
v -50 -34 134
v -61 -14 142
v -64 -11 144
v -61 -11 140
v -61 -7 142
v -61 -7 146
v -61 -11 148
v -61 -14 146
v -61 8 142
v -64 11 144
v -61 11 140
v -61 15 142
v -61 15 146
v -61 11 148
v -61 8 146
v -61 28 116
v -64 31 118
v -61 31 114
v -61 35 116
v -61 35 120
v -61 31 122
v -61 28 120
v -61 16 85
v -64 19 87
v -61 19 83
v -61 23 85
v -61 23 89
v -61 19 91
v -61 16 89
v -61 -20 85
v -64 -17 87
v -61 -17 83
v -61 -13 85
v -61 -13 89
v -61 -17 91
v -61 -20 89
v -62 26 106
v -62 7 86
v -62 -7 86
v -62 -26 106
v -62 23 124
v -62 -23 124
v -62 7 138
v -62 -7 138
v -63 63 166
v -63 -39 166
v -63 -39 233
v -63 63 233
v -44 63 166
v -44 63 233
v -41 61 166
v -41 61 233
v -39 63 166
v -39 63 233
v 64 63 166
v 64 63 233
v -61 -41 233
v -61 -41 166
v -63 -44 233
v -63 -44 166
v -63 -64 233
v -63 -64 166
v 60 -61 239
v 60 61 239
v -61 61 239
v -61 -61 239
v 64 -64 238
v 64 31 238
v 64 64 238
v -64 64 238
v -64 -64 238
v -31 -64 238
v -62 48 9
v -62 62 9
v -48 62 9
v 64 62 9
v -47 47 9
v -60 60 112
v 48 46 9
v 48 46 48
v 48 46 87
v -47 47 87
v -47 47 48
v -46 -48 87
v -46 -48 48
v -46 -48 9
v -64 64 232
v -64 -64 232
v 64 64 232
v -64 -52 215
v -64 -56 218
v -64 -52 222
v -64 -49 218
v -64 -53 191
v -64 -56 194
v -64 -53 197
v -64 -50 194
v -64 -53 166
v -64 -57 169
v -64 -53 173
v -64 -50 169
v -64 -28 215
v -64 -32 218
v -64 -28 222
v -64 -25 218
v -64 -29 191
v -64 -33 194
v -64 -29 198
v -64 -26 194
v -64 -29 167
v -64 -32 169
v -64 -29 172
v -64 -27 169
v 51 52 240
v 47 56 240
v 44 52 240
v 47 49 240
v 54 -15 240
v 49 -11 240
v 45 -15 240
v 49 -20 240
v 52 -52 240
v 48 -49 240
v 45 -52 240
v 48 -56 240
v -48 52 240
v -52 57 240
v -57 52 240
v -52 48 240
v -48 -16 240
v -51 -13 240
v -55 -16 240
v -51 -20 240
v -48 -50 240
v -51 -47 240
v -55 -50 240
v -51 -54 240
v -52 64 215
v -56 64 218
v -52 64 222
v -49 64 218
v -53 64 191
v -56 64 194
v -53 64 197
v -50 64 194
v -53 64 166
v -57 64 169
v -53 64 173
v -50 64 169
v -28 64 215
v -32 64 218
v -28 64 222
v -25 64 218
v -29 64 191
v -33 64 194
v -29 64 198
v -26 64 194
v -29 64 167
v -32 64 169
v -29 64 172
v -27 64 169
v -62 58 112
v -11 46 68
v -33 46 90
v -33 64 90
v -11 64 68
v -44 46 112
v -44 64 112
v -33 46 134
v -33 64 134
v -11 46 156
v -11 64 156
v 11 46 156
v 11 64 156
v 33 46 134
v 33 64 134
v 44 46 112
v 44 64 112
v 33 46 90
v 33 64 90
v 11 46 68
v 11 64 68
v 45 64 197
v -21 64 197
v -21 64 216
v 45 64 216
v 41 65 203
v -17 65 203
v -17 65 211
v 41 65 211
v 41 65 201
v -17 65 201

f 1 2 3
f 1 3 4
f 1 4 5
f 1 5 6
f 1 6 2
f 2 6 7
f 2 7 8
f 2 8 3
f 3 8 9
f 9 8 10
f 10 8 11
f 10 11 12
f 12 11 13
f 12 13 14
f 12 14 15
f 15 14 16
f 16 14 17
f 16 17 18
f 18 17 19
f 18 19 20
f 20 19 21
f 20 21 22
f 20 22 23
f 23 22 12
f 12 22 24
f 12 24 25
f 25 24 26
f 25 26 27
f 25 27 28
f 28 27 29
f 29 27 30
f 29 30 31
f 31 30 32
f 31 32 33
f 33 32 34
f 34 32 30
f 34 30 35
f 35 30 36
f 35 36 37
f 37 36 38
f 38 36 39
f 38 39 40
f 40 39 41
f 41 39 42
f 41 42 43
f 5 4 44
f 45 46 47
f 47 46 48
f 48 46 49
f 49 46 50
f 50 46 51
f 51 46 45
f 52 53 54
f 52 54 55
f 52 55 56
f 52 56 57
f 52 57 58
f 52 58 59
f 52 59 53
f 53 59 60
f 61 57 56
f 61 56 62
f 61 62 63
f 61 63 64
f 61 64 65
f 61 65 57
f 57 65 58
f 62 66 63
f 63 66 67
f 63 67 64
f 55 54 68
f 55 68 69
f 55 69 56
f 56 69 70
f 56 70 62
f 62 70 71
f 62 71 66
f 66 71 67
f 72 73 74
f 74 73 75
f 75 73 76
f 76 73 77
f 77 73 78
f 78 73 72
f 79 80 81
f 81 80 82
f 82 80 83
f 83 80 84
f 84 80 85
f 85 80 79
f 86 87 88
f 88 87 89
f 89 87 90
f 90 87 91
f 91 87 92
f 92 87 86
f 93 94 95
f 95 94 96
f 96 94 97
f 97 94 98
f 98 94 99
f 99 94 93
f 100 101 102
f 102 101 103
f 103 101 104
f 104 101 105
f 105 101 106
f 106 101 100
f 107 108 109
f 107 109 110
f 107 110 111
f 111 110 112
f 111 112 113
f 113 112 114
f 115 116 117
f 115 117 118
f 115 118 119
f 119 118 120
f 119 120 121
f 121 120 122
f 121 122 123
f 123 122 124
f 123 124 125
f 125 124 126
f 127 117 116
f 127 116 128
f 127 128 129
f 129 128 130
f 129 130 131
f 131 130 132
f 133 134 135
f 133 135 136
f 133 136 137
f 133 137 134
f 134 137 138
f 134 138 139
f 134 139 140
f 134 140 135
f 135 140 136
f 136 140 141
f 136 141 142
f 136 142 137
f 36 143 39
f 39 143 144
f 39 144 145
f 39 145 42
f 42 145 7
f 42 7 146
f 146 7 6
f 143 147 22
f 143 22 21
f 143 21 148
f 143 148 144
f 144 148 145
f 145 148 17
f 145 17 14
f 145 14 147
f 145 147 7
f 7 147 149
f 7 149 8
f 8 149 150
f 8 150 151
f 8 151 11
f 11 151 13
f 13 151 152
f 13 152 14
f 14 152 153
f 14 153 147
f 147 153 22
f 22 153 152
f 22 152 24
f 24 152 26
f 26 152 154
f 26 154 27
f 27 154 155
f 27 155 156
f 27 156 36
f 27 36 30
f 147 143 156
f 147 156 155
f 147 155 153
f 147 153 149
f 149 153 150
f 150 153 152
f 150 152 151
f 156 143 36
f 157 158 141
f 157 141 140
f 157 140 159
f 159 140 139
f 160 161 162
f 160 162 163
f 164 165 166
f 164 166 167
f 168 169 170
f 168 170 171
f 172 173 174
f 172 174 175
f 176 177 178
f 176 178 179
f 180 181 182
f 180 182 183
f 152 153 154
f 154 153 155
f 184 185 186
f 184 186 187
f 188 189 190
f 188 190 191
f 192 193 194
f 192 194 195
f 196 197 198
f 196 198 199
f 200 201 202
f 200 202 203
f 204 205 206
f 204 206 207
f 208 209 210
f 208 210 211
f 212 213 214
f 212 214 215
f 216 217 218
f 216 218 219
f 220 221 222
f 220 222 223
f 224 225 226
f 224 226 227
f 228 229 230
f 228 230 231
f 148 19 17
f 19 148 232
f 233 234 235
f 233 235 236
f 234 237 238
f 234 238 235
f 237 239 240
f 237 240 238
f 239 241 242
f 239 242 240
f 241 243 244
f 241 244 242
f 243 245 246
f 243 246 244
f 245 247 248
f 245 248 246
f 247 249 250
f 247 250 248
f 249 251 252
f 249 252 250
f 253 254 255
f 253 255 256
f 257 258 259
f 257 259 260
f 258 257 261
f 258 261 262
