# RS2 Model 18631
# Vertices: 314
# Faces: 299

v -64 -64 238
v -64 -64 232
v -31 -64 232
v -31 -64 238
v -61 -60 239
v -64 32 238
v -64 32 232
v -27 -64 160
v -27 -64 233
v -63 -64 233
v -63 -64 166
v -63 28 166
v -63 28 233
v -61 28 233
v -61 28 194
v -61 28 166
v -61 62 194
v -61 57 58
v -61 28 117
v -61 -48 166
v -61 -48 117
v -61 -63 166
v -60 -62 112
v -20 -62 112
v -20 -62 160
v -19 -64 160
v -19 -64 112
v -30 -64 112
v -60 -64 112
v -32 -64 110
v -32 -64 105
v -62 -64 9
v -62 -56 9
v -64 -64 7
v -64 64 7
v -64 -64 0
v -64 64 0
v 64 64 7
v 64 64 0
v 25 37 39
v 1 37 42
v 3 32 77
v 26 33 71
v 29 31 73
v 28 31 40
v -1 31 43
v 0 26 80
v 39 28 160
v -16 27 196
v 39 28 233
v 41 26 160
v 41 26 233
v 44 28 160
v 44 28 233
v 64 28 233
v 64 28 160
v -59 27 196
v 62 25 112
v 35 25 112
v 31 26 120
v 58 25 131
v 60 20 133
v 64 20 112
v 29 21 122
v 33 20 112
v 24 27 131
v 3 24 136
v 5 24 157
v 26 25 153
v 29 21 155
v 27 23 131
v 18 24 115
v -7 24 113
v -5 24 130
v 21 27 123
v 23 23 125
v 20 20 115
v 60 25 137
v 32 20 135
v 40 24 157
v 59 24 152
v 61 20 154
v 62 21 137
v 3 20 159
v 1 20 136
v -7 20 132
v -9 20 113
v 38 20 159
v 30 16 135
v -61 30 239
v 61 -60 239
v 61 30 239
v 64 -64 238
v 64 32 238
v 64 32 232
v -14 62 9
v 37 62 9
v 64 62 9
v 64 33 105
v 37 33 105
v 64 33 110
v -14 32 110
v -14 30 112
v 64 31 112
v -14 19 112
v -14 19 160
v 64 20 160
v -12 59 9
v -14 33 105
v -12 30 105
v -12 33 9
v 35 59 9
v -14 62 194
v -14 27 160
v 35 33 9
v 35 30 105
v -12 23 105
v 35 23 105
v -47 24 240
v -51 20 240
v -47 17 240
v -44 20 240
v -49 -10 240
v -54 -14 240
v -49 -19 240
v -45 -14 240
v -48 -48 240
v -52 -51 240
v -48 -55 240
v -45 -51 240
v 52 25 240
v 48 20 240
v 52 16 240
v 57 20 240
v 51 -12 240
v 48 -15 240
v 51 -19 240
v 55 -15 240
v 51 -46 240
v 48 -49 240
v 51 -53 240
v 55 -49 240
v 56 29 218
v 52 29 215
v 49 29 218
v 52 29 222
v 56 29 194
v 53 29 191
v 50 29 194
v 53 29 197
v 57 29 169
v 53 29 166
v 50 29 169
v 53 29 173
v 32 29 218
v 28 29 215
v 25 29 218
v 28 29 222
v 33 29 194
v 29 29 191
v 26 29 194
v 29 29 198
v 32 29 169
v 29 29 167
v 27 29 169
v 29 29 172
v -4 31 96
v 27 28 97
v 31 31 84
v 1 32 84
v -1 26 84
v -6 25 99
v 30 23 99
v 33 26 84
v 5 37 35
v 30 38 10
v 1 38 11
v -2 33 10
v 2 31 37
v 28 35 33
v 31 29 35
v 33 33 9
v -62 62 9
v -15 27 194
v -16 61 196
v -59 61 196
v -62 57 9
v -61 -56 58
v -64 13 190
v -64 -53 190
v -64 -53 230
v -64 13 230
v -65 9 218
v -65 -49 218
v -65 -49 226
v -65 9 226
v -65 9 206
v -65 -49 206
v -65 -49 214
v -65 9 214
v -65 9 194
v -65 -49 194
v -65 -49 202
v -65 9 202
v -65 9 216
v -65 -49 216
v -65 9 204
v -65 -49 204
v -65 9 192
v -65 -49 192
v -63 -2 94
v -63 -39 94
v -63 -39 157
v -63 -2 157
v -61 -2 157
v -61 -2 94
v -61 -39 157
v -61 -39 94
v -64 -3 97
v -64 -35 97
v -64 -35 153
v -64 -3 153
v -65 -5 116
v -65 -33 116
v -65 -33 124
v -65 -5 124
v -65 -5 104
v -65 -33 104
v -65 -33 112
v -65 -5 112
v -65 -5 114
v -65 -33 114
v -65 -5 102
v -65 -33 102
v -64 28 88
v -64 32 93
v -60 32 93
v -60 28 88
v -64 32 101
v -60 32 101
v -64 28 107
v -60 28 107
v -64 24 107
v -60 24 107
v -64 20 101
v -60 20 101
v -64 20 93
v -60 20 93
v -64 24 88
v -60 24 88
v -64 28 10
v -64 32 15
v -61 32 15
v -61 28 10
v -64 32 24
v -61 32 24
v -64 28 29
v -61 28 29
v -64 24 29
v -61 24 29
v -64 20 24
v -61 20 24
v -64 20 15
v -61 20 15
v -64 24 10
v -61 24 10
v -64 -23 59
v -64 -31 67
v -60 -31 67
v -60 -23 59
v -64 -23 47
v -60 -23 47
v -64 -31 40
v -60 -31 40
v -64 -40 67
v -60 -40 67
v -64 -48 59
v -60 -48 59
v -64 -48 47
v -60 -48 47
v -64 -40 40
v -60 -40 40
v -64 9 81
v -64 1 88
v -60 1 88
v -60 9 81
v -64 9 69
v -60 9 69
v -64 1 61
v -60 1 61
v -64 -8 88
v -60 -8 88
v -64 -16 81
v -60 -16 81
v -64 -16 69
v -60 -16 69
v -64 -8 61
v -60 -8 61
v -64 45 164
v -64 30 164
v -60 30 164
v -60 45 164
v -64 59 150
v -60 59 150
v -64 59 131
v -60 59 131
v -64 45 118
v -60 45 118
v -64 16 150
v -60 16 150
v -64 16 131
v -60 16 131
v -64 30 118
v -60 30 118

f 1 2 3
f 1 3 4
f 1 4 5
f 1 5 6
f 1 6 7
f 1 7 2
f 8 9 10
f 8 10 11
f 11 10 12
f 12 10 13
f 12 13 14
f 12 14 15
f 12 15 16
f 16 15 17
f 16 17 18
f 16 18 19
f 16 19 20
f 20 19 21
f 20 21 22
f 22 21 23
f 22 23 24
f 22 24 25
f 25 24 26
f 26 24 27
f 27 24 28
f 28 24 23
f 28 23 29
f 28 29 30
f 30 29 31
f 31 29 32
f 32 29 23
f 32 23 33
f 32 33 34
f 34 33 35
f 34 35 36
f 36 35 37
f 37 35 38
f 37 38 39
f 40 41 42
f 40 42 43
f 40 43 44
f 40 44 45
f 42 41 46
f 42 46 47
f 42 47 43
f 43 47 44
f 48 49 50
f 48 50 51
f 51 50 52
f 51 52 53
f 53 52 54
f 53 54 55
f 53 55 56
f 49 57 14
f 49 14 50
f 58 59 60
f 58 60 61
f 58 61 62
f 58 62 63
f 61 60 64
f 61 64 62
f 60 59 65
f 60 65 64
f 66 67 68
f 66 68 69
f 66 69 70
f 66 70 71
f 72 73 74
f 72 74 75
f 72 75 76
f 72 76 77
f 78 79 80
f 78 80 81
f 78 81 82
f 78 82 83
f 69 68 84
f 69 84 70
f 68 67 85
f 68 85 84
f 75 74 86
f 75 86 76
f 74 73 87
f 74 87 86
f 81 80 88
f 81 88 82
f 80 79 89
f 80 89 88
f 90 5 91
f 90 91 92
f 90 92 6
f 90 6 5
f 91 93 92
f 92 93 94
f 92 94 6
f 6 94 7
f 7 94 95
f 35 96 97
f 35 97 38
f 38 97 98
f 98 97 99
f 99 97 100
f 99 100 101
f 101 100 102
f 101 102 103
f 101 103 104
f 104 103 105
f 104 105 63
f 63 105 106
f 63 106 107
f 108 96 109
f 108 109 110
f 108 110 111
f 108 111 112
f 108 112 97
f 108 97 96
f 100 109 102
f 102 109 113
f 102 113 103
f 103 113 105
f 105 113 114
f 105 114 106
f 111 115 112
f 112 115 116
f 112 116 100
f 112 100 97
f 110 117 111
f 111 117 118
f 111 118 115
f 115 118 116
f 119 120 121
f 119 121 122
f 123 124 125
f 123 125 126
f 127 128 129
f 127 129 130
f 131 132 133
f 131 133 134
f 135 136 137
f 135 137 138
f 139 140 141
f 139 141 142
f 143 144 145
f 143 145 146
f 147 148 149
f 147 149 150
f 151 152 153
f 151 153 154
f 155 156 157
f 155 157 158
f 159 160 161
f 159 161 162
f 163 164 165
f 163 165 166
f 167 168 169
f 167 169 170
f 167 170 171
f 167 171 172
f 167 172 168
f 168 172 173
f 168 173 169
f 169 173 174
f 175 176 177
f 175 177 178
f 175 178 179
f 175 179 180
f 175 180 176
f 176 180 181
f 176 181 182
f 179 181 180
f 35 183 96
f 96 183 113
f 96 113 109
f 48 114 184
f 48 184 49
f 49 184 113
f 49 113 185
f 49 185 186
f 49 186 57
f 57 186 15
f 57 15 14
f 186 17 15
f 17 186 185
f 17 185 113
f 17 113 183
f 17 183 18
f 18 183 187
f 18 187 188
f 18 188 21
f 18 21 19
f 184 114 113
f 33 187 35
f 35 187 183
f 189 190 191
f 189 191 192
f 193 194 195
f 193 195 196
f 197 198 199
f 197 199 200
f 201 202 203
f 201 203 204
f 194 193 205
f 194 205 206
f 198 197 207
f 198 207 208
f 202 201 209
f 202 209 210
f 188 187 33
f 188 33 23
f 188 23 21
f 211 212 213
f 211 213 214
f 211 214 215
f 211 215 216
f 214 213 217
f 214 217 215
f 213 212 218
f 213 218 217
f 219 220 221
f 219 221 222
f 223 224 225
f 223 225 226
f 227 228 229
f 227 229 230
f 224 223 231
f 224 231 232
f 228 227 233
f 228 233 234
f 4 93 91
f 4 91 5
f 235 236 237
f 235 237 238
f 236 239 240
f 236 240 237
f 239 241 242
f 239 242 240
f 241 243 244
f 241 244 242
f 243 245 246
f 243 246 244
f 245 247 248
f 245 248 246
f 247 249 250
f 247 250 248
f 251 252 253
f 251 253 254
f 252 255 256
f 252 256 253
f 255 257 258
f 255 258 256
f 257 259 260
f 257 260 258
f 259 261 262
f 259 262 260
f 261 263 264
f 261 264 262
f 263 265 266
f 263 266 264
f 267 268 269
f 267 269 270
f 267 270 271
f 271 270 272
f 271 272 273
f 273 272 274
f 268 275 276
f 268 276 269
f 275 277 278
f 275 278 276
f 277 279 280
f 277 280 278
f 279 281 282
f 279 282 280
f 283 284 285
f 283 285 286
f 283 286 287
f 287 286 288
f 287 288 289
f 289 288 290
f 284 291 292
f 284 292 285
f 291 293 294
f 291 294 292
f 293 295 296
f 293 296 294
f 295 297 298
f 295 298 296
f 299 300 301
f 299 301 302
f 299 302 303
f 303 302 304
f 303 304 305
f 305 304 306
f 305 306 307
f 307 306 308
f 300 309 310
f 300 310 301
f 309 311 312
f 309 312 310
f 311 313 314
f 311 314 312
