# RS2 Model 18675
# Vertices: 178
# Faces: 212

v 11 64 68
v 33 64 90
v 33 47 90
v 11 47 68
v 8 47 80
v 24 47 96
v 24 -47 96
v 8 -47 80
v 11 -47 68
v 33 -47 90
v 33 -64 90
v 11 -64 68
v 44 64 112
v 44 47 112
v 32 47 112
v 32 -47 112
v 44 -47 112
v 44 -64 112
v 33 64 134
v 33 47 134
v 24 47 128
v 27 47 123
v 30 47 117
v 30 -41 117
v 24 -47 128
v 33 -47 134
v 33 -64 134
v 11 64 156
v 11 47 156
v 8 47 144
v 8 -47 144
v 27 -41 123
v -11 64 156
v -11 47 156
v -8 47 144
v -8 -7 144
v -8 -47 144
v -11 -47 156
v 11 -47 156
v -33 64 134
v -33 47 134
v -24 47 128
v -24 18 128
v -14 18 144
v -20 2 138
v -44 64 112
v -44 47 112
v -32 47 112
v -32 18 112
v -28 12 122
v -24 15 128
v -20 13 135
v -33 64 90
v -33 47 90
v -24 47 96
v -24 18 96
v -29 16 104
v -32 11 114
v -29 3 120
v -11 64 68
v -11 47 68
v -8 47 80
v -13 18 80
v -24 10 95
v -26 13 100
v -3 57 156
v 0 55 159
v 0 59 156
v 4 57 156
v 4 53 156
v 0 51 156
v -3 53 156
v -24 57 144
v -23 55 148
v -21 59 147
v -18 57 149
v -18 53 149
v -21 51 147
v -24 53 144
v -40 57 121
v -40 55 125
v -38 59 125
v -36 57 128
v -36 53 128
v -38 51 125
v -40 53 121
v 24 59 144
v 26 55 145
v 27 57 141
v 27 53 141
v 24 51 144
v 21 53 146
v 21 57 146
v 39 59 123
v 41 55 123
v 41 57 119
v 41 53 119
v 39 51 123
v 37 53 126
v 37 57 126
v -3 -54 156
v 0 -56 159
v 0 -52 156
v 4 -54 156
v 4 -58 156
v 0 -60 156
v -3 -58 156
v -24 -54 144
v -23 -56 148
v -21 -52 147
v -18 -54 149
v -18 -58 149
v -21 -60 147
v -24 -58 144
v -40 -54 121
v -40 -56 125
v -38 -52 125
v -36 -54 128
v -36 -58 128
v -38 -60 125
v -40 -58 121
v 24 -52 144
v 26 -56 145
v 27 -54 141
v 27 -58 141
v 24 -60 144
v 21 -58 146
v 21 -54 146
v 39 -52 123
v 41 -56 123
v 41 -54 119
v 41 -58 119
v 39 -60 123
v 37 -58 126
v 37 -54 126
v -8 -47 80
v -24 -47 96
v -24 -7 96
v -8 -7 80
v -24 -3 94
v -26 3 98
v -29 6 103
v -31 0 109
v -32 -7 112
v -32 1 112
v -30 -7 117
v -29 -5 119
v -27 -7 123
v -24 -3 129
v -24 -7 128
v -24 -47 128
v -33 -47 134
v -33 -64 134
v -11 -64 156
v 11 -64 156
v -32 -47 112
v -11 -64 68
v -33 -64 90
v -33 -47 90
v -11 -47 68
v -44 -47 112
v -27 -41 123
v -30 -41 117
v -44 -64 112
v 7 47 144
v 23 47 128
v 23 -47 128
v 7 -47 144
v 31 47 112
v 23 47 96
v 23 -47 96
v 31 -47 112
v 29 -41 117
v 29 47 117
v 26 47 123
v 26 -41 123
v 7 47 80
v 7 -47 80

f 1 2 3
f 1 3 4
f 4 3 5
f 5 3 6
f 5 6 7
f 5 7 8
f 8 7 9
f 9 7 10
f 9 10 11
f 9 11 12
f 2 13 14
f 2 14 3
f 3 14 6
f 6 14 15
f 6 15 16
f 6 16 7
f 7 16 10
f 10 16 17
f 10 17 18
f 10 18 11
f 13 19 20
f 13 20 14
f 14 20 15
f 15 20 21
f 15 21 22
f 15 22 23
f 15 23 16
f 16 23 24
f 16 24 25
f 16 25 17
f 17 25 26
f 17 26 27
f 17 27 18
f 19 28 29
f 19 29 20
f 20 29 21
f 21 29 30
f 21 30 31
f 21 31 25
f 21 25 32
f 21 32 22
f 22 32 23
f 23 32 24
f 24 32 25
f 28 33 34
f 28 34 29
f 29 34 35
f 29 35 30
f 30 35 36
f 30 36 37
f 30 37 31
f 31 37 38
f 31 38 39
f 31 39 26
f 31 26 25
f 33 40 41
f 33 41 34
f 34 41 35
f 35 41 42
f 35 42 43
f 35 43 44
f 35 44 36
f 36 44 45
f 40 46 47
f 40 47 41
f 41 47 42
f 42 47 48
f 42 48 49
f 42 49 43
f 43 49 50
f 43 50 51
f 43 51 52
f 43 52 44
f 46 53 54
f 46 54 47
f 47 54 48
f 48 54 55
f 48 55 56
f 48 56 49
f 49 56 57
f 49 57 58
f 49 58 59
f 49 59 50
f 53 60 61
f 53 61 54
f 54 61 55
f 55 61 62
f 55 62 63
f 55 63 56
f 56 63 64
f 56 64 65
f 56 65 57
f 66 67 68
f 68 67 69
f 69 67 70
f 70 67 71
f 71 67 72
f 72 67 66
f 73 74 75
f 75 74 76
f 76 74 77
f 77 74 78
f 78 74 79
f 79 74 73
f 80 81 82
f 82 81 83
f 83 81 84
f 84 81 85
f 85 81 86
f 86 81 80
f 87 88 89
f 89 88 90
f 90 88 91
f 91 88 92
f 92 88 93
f 93 88 87
f 94 95 96
f 96 95 97
f 97 95 98
f 98 95 99
f 99 95 100
f 100 95 94
f 101 102 103
f 103 102 104
f 104 102 105
f 105 102 106
f 106 102 107
f 107 102 101
f 108 109 110
f 110 109 111
f 111 109 112
f 112 109 113
f 113 109 114
f 114 109 108
f 115 116 117
f 117 116 118
f 118 116 119
f 119 116 120
f 120 116 121
f 121 116 115
f 122 123 124
f 124 123 125
f 125 123 126
f 126 123 127
f 127 123 128
f 128 123 122
f 129 130 131
f 131 130 132
f 132 130 133
f 133 130 134
f 134 130 135
f 135 130 129
f 136 137 138
f 136 138 139
f 139 138 140
f 140 138 141
f 141 138 142
f 142 138 143
f 143 138 144
f 143 144 145
f 145 144 146
f 145 146 147
f 147 146 148
f 147 148 149
f 149 148 150
f 149 150 36
f 36 150 151
f 36 151 37
f 37 151 38
f 38 151 152
f 38 152 153
f 38 153 154
f 38 154 39
f 39 154 155
f 39 155 26
f 26 155 27
f 137 156 144
f 137 144 138
f 157 158 159
f 157 159 160
f 160 159 136
f 136 159 137
f 137 159 161
f 137 161 156
f 156 161 152
f 156 152 151
f 156 151 162
f 156 162 163
f 156 163 144
f 144 163 146
f 146 163 148
f 148 163 162
f 148 162 151
f 148 151 150
f 158 164 161
f 158 161 159
f 164 153 152
f 164 152 161
f 165 166 167
f 165 167 168
f 169 170 171
f 169 171 172
f 169 172 173
f 169 173 174
f 174 173 175
f 175 173 176
f 175 176 167
f 175 167 166
f 170 177 178
f 170 178 171
f 172 167 176
f 172 176 173
