# RS2 Model 18686
# Vertices: 50
# Faces: 67

v 64 -64 0
v 57 -49 0
v 53 -54 0
v 48 -54 0
v 0 -64 0
v 0 -64 -14
v 64 -64 -14
v 64 0 0
v 57 -18 0
v 50 -21 0
v 50 -41 0
v 46 -21 0
v 46 -41 0
v 42 -17 0
v 42 -46 0
v 24 -17 0
v 24 -46 0
v 21 -54 0
v 14 -54 0
v 12 -46 0
v -12 -46 0
v -14 -54 0
v -21 -54 0
v -64 -64 0
v -64 -64 -14
v 12 -16 0
v 16 -41 0
v 16 -21 0
v 20 -41 0
v 20 -21 0
v 51 -12 0
v 51 11 0
v 46 11 0
v 46 -12 0
v 42 16 0
v 20 -12 0
v 57 17 0
v 64 64 0
v 50 21 0
v 46 21 0
v 16 -12 0
v -16 -16 0
v -16 -41 0
v 64 64 -14
v -16 -16 -14
v -48 -48 0
v -20 -41 0
v -48 -48 -14
v -24 -46 0
v 64 0 -14

f 1 2 3
f 1 3 4
f 1 4 5
f 1 5 6
f 1 6 7
f 1 7 8
f 1 8 9
f 1 9 2
f 2 9 10
f 2 10 11
f 11 10 12
f 11 12 13
f 13 12 14
f 13 14 15
f 15 14 16
f 15 16 17
f 15 17 18
f 15 18 4
f 4 18 5
f 5 18 19
f 5 19 20
f 5 20 21
f 5 21 22
f 5 22 23
f 5 23 24
f 5 24 25
f 5 25 6
f 26 20 27
f 26 27 28
f 28 27 29
f 28 29 30
f 30 29 17
f 30 17 16
f 31 9 8
f 31 8 32
f 31 32 33
f 31 33 34
f 34 33 35
f 34 35 14
f 14 35 36
f 14 36 16
f 37 32 8
f 37 8 38
f 37 38 39
f 39 38 40
f 40 38 35
f 35 38 41
f 35 41 36
f 42 43 21
f 42 21 20
f 42 20 26
f 42 26 41
f 42 41 38
f 42 38 44
f 42 44 45
f 42 45 46
f 42 46 47
f 42 47 43
f 24 23 46
f 24 46 48
f 24 48 25
f 46 23 49
f 46 49 47
f 8 7 50
f 8 50 38
f 38 50 44
f 46 45 48
