# RS2 Model 18681
# Vertices: 138
# Faces: 166

v -3 -54 156
v 0 -56 159
v 0 -52 156
v 4 -54 156
v 4 -58 156
v 0 -60 156
v -3 -58 156
v -24 -54 144
v -23 -56 148
v -21 -52 147
v -18 -54 149
v -18 -58 149
v -21 -60 147
v -24 -58 144
v -40 -54 121
v -40 -56 125
v -38 -52 125
v -36 -54 128
v -36 -58 128
v -38 -60 125
v -40 -58 121
v 24 -52 144
v 26 -56 145
v 27 -54 141
v 27 -58 141
v 24 -60 144
v 21 -58 146
v 21 -54 146
v 39 -52 123
v 41 -56 123
v 41 -54 119
v 41 -58 119
v 39 -60 123
v 37 -58 126
v 37 -54 126
v -8 -47 80
v -24 -47 96
v -24 47 96
v -8 47 80
v -11 47 68
v -33 47 90
v -33 64 90
v -11 64 68
v -32 -47 112
v -32 47 112
v -44 47 112
v -44 64 112
v -24 -47 128
v -8 -47 144
v -8 47 144
v -24 47 128
v -27 41 123
v -27 -41 123
v -33 -47 134
v -11 -47 156
v 8 -47 144
v 8 47 144
v 11 47 156
v -11 47 156
v -33 47 134
v -30 41 117
v -30 -41 117
v 24 -47 128
v 24 47 128
v 33 47 134
v 33 64 134
v 11 64 156
v -11 64 156
v -33 64 134
v 32 -47 112
v 24 -47 96
v 24 47 96
v 32 47 112
v 30 41 117
v 30 -41 117
v 44 -47 112
v 33 -47 90
v 11 -47 68
v 8 -47 80
v 8 47 80
v 33 47 90
v 44 47 112
v 27 41 123
v 27 -41 123
v 11 64 68
v 33 64 90
v 11 47 68
v 44 64 112
v -11 -64 68
v -33 -64 90
v -33 -47 90
v -11 -47 68
v -44 -47 112
v -44 -64 112
v -33 -64 134
v -11 -64 156
v 11 -47 156
v 33 -47 134
v 33 -64 134
v 44 -64 112
v 33 -64 90
v 11 -64 68
v 11 -64 156
v -3 57 156
v 0 55 159
v 0 59 156
v 4 57 156
v 4 53 156
v 0 51 156
v -3 53 156
v -24 57 144
v -23 55 148
v -21 59 147
v -18 57 149
v -18 53 149
v -21 51 147
v -24 53 144
v -40 57 121
v -40 55 125
v -38 59 125
v -36 57 128
v -36 53 128
v -38 51 125
v -40 53 121
v 24 59 144
v 26 55 145
v 27 57 141
v 27 53 141
v 24 51 144
v 21 53 146
v 21 57 146
v 39 59 123
v 41 55 123
v 41 57 119
v 41 53 119
v 39 51 123
v 37 53 126
v 37 57 126

f 1 2 3
f 3 2 4
f 4 2 5
f 5 2 6
f 6 2 7
f 7 2 1
f 8 9 10
f 10 9 11
f 11 9 12
f 12 9 13
f 13 9 14
f 14 9 8
f 15 16 17
f 17 16 18
f 18 16 19
f 19 16 20
f 20 16 21
f 21 16 15
f 22 23 24
f 24 23 25
f 25 23 26
f 26 23 27
f 27 23 28
f 28 23 22
f 29 30 31
f 31 30 32
f 32 30 33
f 33 30 34
f 34 30 35
f 35 30 29
f 36 37 38
f 36 38 39
f 39 38 40
f 40 38 41
f 40 41 42
f 40 42 43
f 37 44 45
f 37 45 38
f 38 45 41
f 41 45 46
f 41 46 47
f 41 47 42
f 48 49 50
f 48 50 51
f 48 51 52
f 48 52 53
f 48 53 44
f 48 44 54
f 48 54 55
f 48 55 49
f 49 55 56
f 49 56 57
f 49 57 50
f 50 57 58
f 50 58 59
f 50 59 60
f 50 60 51
f 51 60 46
f 51 46 45
f 51 45 61
f 51 61 52
f 52 61 62
f 52 62 53
f 53 62 44
f 44 62 45
f 45 62 61
f 56 63 64
f 56 64 57
f 57 64 58
f 58 64 65
f 58 65 66
f 58 66 67
f 58 67 59
f 59 67 68
f 59 68 60
f 60 68 69
f 60 69 46
f 46 69 47
f 70 71 72
f 70 72 73
f 70 73 74
f 70 74 75
f 70 75 63
f 70 63 76
f 70 76 77
f 70 77 71
f 71 77 78
f 71 78 79
f 71 79 80
f 71 80 72
f 72 80 81
f 72 81 82
f 72 82 73
f 73 82 65
f 73 65 64
f 73 64 83
f 73 83 74
f 74 83 84
f 74 84 75
f 75 84 63
f 63 84 64
f 64 84 83
f 85 86 81
f 85 81 87
f 87 81 80
f 86 88 82
f 86 82 81
f 88 66 65
f 88 65 82
f 89 90 91
f 89 91 92
f 92 91 36
f 36 91 37
f 37 91 93
f 37 93 44
f 44 93 54
f 54 93 94
f 54 94 95
f 54 95 55
f 55 95 96
f 55 96 97
f 55 97 56
f 56 97 98
f 56 98 63
f 63 98 76
f 76 98 99
f 76 99 100
f 76 100 77
f 77 100 101
f 77 101 78
f 78 101 102
f 90 94 93
f 90 93 91
f 96 103 97
f 97 103 98
f 98 103 99
f 104 105 106
f 106 105 107
f 107 105 108
f 108 105 109
f 109 105 110
f 110 105 104
f 111 112 113
f 113 112 114
f 114 112 115
f 115 112 116
f 116 112 117
f 117 112 111
f 118 119 120
f 120 119 121
f 121 119 122
f 122 119 123
f 123 119 124
f 124 119 118
f 125 126 127
f 127 126 128
f 128 126 129
f 129 126 130
f 130 126 131
f 131 126 125
f 132 133 134
f 134 133 135
f 135 133 136
f 136 133 137
f 137 133 138
f 138 133 132
