# RS2 Model 1871
# Vertices: 72
# Faces: 140

v 4 64 354
v 3 60 366
v 8 14 370
v 8 14 351
v -3 64 354
v -1 60 366
v -6 14 370
v 0 4 597
v 2 4 597
v 16 6 370
v 16 6 351
v 16 6 255
v 8 14 255
v -6 14 351
v -14 6 370
v -2 2 597
v -2 -2 597
v 0 -4 597
v 2 -4 597
v 4 -2 597
v 4 2 597
v 16 -6 370
v 16 -6 351
v 16 -6 255
v 16 -6 235
v 16 6 235
v 8 14 235
v -6 14 255
v -14 6 351
v -64 5 356
v -64 4 367
v -14 -6 370
v -2 -64 354
v -1 -60 366
v -6 -14 370
v -6 -14 351
v 5 -64 354
v 3 -60 366
v 8 -14 370
v -14 -6 351
v -14 -6 255
v -6 -14 255
v 8 -14 351
v 64 -5 356
v 64 -4 367
v 64 4 367
v 64 5 356
v 16 -20 19
v -16 -20 19
v -16 -20 0
v 16 -20 0
v 20 -12 19
v 8 -14 235
v -6 -14 235
v -20 -12 19
v -20 -12 0
v -20 10 19
v -20 10 0
v -16 20 19
v -16 20 0
v 16 20 19
v 16 20 0
v 20 10 19
v 20 10 0
v 20 -12 0
v -14 -6 235
v -14 6 235
v -6 14 235
v 8 -14 255
v -14 6 255
v -64 -4 367
v -64 -5 356

f 1 2 3
f 1 3 4
f 1 4 5
f 1 5 2
f 2 5 6
f 2 6 7
f 2 7 3
f 3 7 4
f 3 4 7
f 3 7 8
f 3 8 9
f 3 9 10
f 3 10 11
f 3 11 4
f 4 11 12
f 4 12 13
f 4 13 14
f 4 14 5
f 5 14 6
f 6 14 7
f 7 14 4
f 7 4 14
f 7 14 15
f 7 15 16
f 7 16 8
f 8 16 17
f 8 17 18
f 8 18 19
f 8 19 20
f 8 20 21
f 8 21 9
f 9 21 10
f 10 21 22
f 10 22 23
f 10 23 11
f 11 23 24
f 11 24 12
f 12 24 25
f 12 25 26
f 12 26 13
f 13 26 27
f 13 27 28
f 13 28 14
f 14 28 29
f 14 29 15
f 15 29 30
f 15 30 31
f 15 31 32
f 15 32 17
f 15 17 16
f 33 34 35
f 33 35 36
f 33 36 37
f 33 37 34
f 34 37 38
f 34 38 39
f 34 39 35
f 35 39 36
f 35 36 39
f 35 39 19
f 35 19 18
f 35 18 32
f 35 32 40
f 35 40 36
f 36 40 41
f 36 41 42
f 36 42 43
f 36 43 37
f 37 43 38
f 38 43 39
f 39 43 36
f 39 36 43
f 39 43 22
f 39 22 20
f 39 20 19
f 22 43 23
f 22 23 44
f 22 44 45
f 22 45 10
f 10 45 46
f 10 46 11
f 11 46 47
f 47 46 44
f 44 46 45
f 48 49 50
f 48 50 51
f 48 51 52
f 48 52 25
f 48 25 53
f 48 53 49
f 49 53 54
f 49 54 55
f 49 55 56
f 49 56 50
f 55 57 58
f 55 58 56
f 57 59 60
f 57 60 58
f 59 61 62
f 59 62 60
f 61 63 64
f 61 64 62
f 63 52 65
f 63 65 64
f 52 51 65
f 54 66 55
f 55 66 57
f 57 66 67
f 57 67 59
f 59 67 68
f 59 68 61
f 61 68 27
f 61 27 63
f 63 27 26
f 63 26 52
f 52 26 25
f 43 42 69
f 43 69 23
f 23 69 24
f 24 69 53
f 24 53 25
f 40 29 70
f 40 70 41
f 41 70 67
f 41 67 66
f 41 66 42
f 42 66 54
f 42 54 69
f 69 54 53
f 29 28 70
f 70 28 68
f 70 68 67
f 28 27 68
f 21 20 22
f 18 17 32
f 71 72 40
f 71 40 32
f 71 32 31
f 71 31 30
f 71 30 72
