# RS2 Model 18748
# Vertices: 16
# Faces: 26

v -269 21 66
v -269 -19 66
v -269 -19 74
v -269 21 74
v -241 21 66
v -241 21 74
v -241 -19 66
v -241 -19 74
v -267 -17 74
v -267 19 74
v -243 19 74
v -243 -17 74
v -249 -11 82
v -261 -11 82
v -261 13 82
v -249 13 82

f 1 2 3
f 1 3 4
f 1 4 5
f 5 4 6
f 5 6 7
f 7 6 8
f 7 8 2
f 2 8 3
f 3 8 9
f 3 9 4
f 4 9 10
f 4 10 11
f 4 11 6
f 6 11 8
f 8 11 12
f 8 12 9
f 9 12 13
f 9 13 14
f 9 14 10
f 10 14 15
f 10 15 11
f 11 15 16
f 11 16 12
f 12 16 13
f 13 16 15
f 13 15 14
