# RS2 Model 18760
# Vertices: 280
# Faces: 435

v 148 18 325
v 79 18 325
v 79 12 325
v 148 12 325
v 148 18 278
v 148 12 278
v 148 -11 325
v 79 -11 325
v 79 -17 325
v 148 -17 325
v 148 -11 278
v 148 -17 278
v 79 12 278
v 79 18 278
v 79 -17 278
v 79 -11 278
v -238 -6 222
v -238 8 222
v -241 8 228
v -241 -6 228
v -255 -6 228
v -258 -6 222
v -258 -9 202
v -238 -9 202
v -238 11 202
v -258 8 222
v -255 8 228
v -250 5 231
v -250 -3 231
v -258 11 202
v -281 1 202
v -273 -17 202
v -256 -30 202
v -240 -30 202
v -223 -17 202
v -215 1 202
v -223 19 202
v -240 32 202
v -250 -3 271
v -250 5 271
v -246 6 228
v -246 6 260
v -246 -4 228
v -246 -4 260
v -246 -3 271
v -236 -3 280
v -238 -3 283
v -238 5 283
v -246 5 271
v -236 6 265
v -236 6 256
v -239 6 252
v -239 -4 252
v -236 -4 256
v -236 -4 265
v -226 -4 279
v -236 5 280
v -226 6 279
v -219 -4 271
v -219 6 271
v -236 6 280
v -215 1 192
v -223 19 192
v -240 32 192
v -256 32 192
v -256 32 202
v -273 19 202
v -281 1 192
v -273 -17 192
v -256 -30 192
v -240 -30 192
v -223 -17 192
v -273 19 192
v -242 28 190
v -223 15 190
v -212 34 158
v -227 45 158
v -229 42 157
v -242 28 184
v -250 17 178
v -246 12 184
v -244 15 189
v -234 8 189
v -231 3 178
v -227 7 177
v -222 14 184
v -213 31 157
v -212 34 145
v -227 45 145
v -229 42 146
v -232 37 152
v -247 21 177
v -237 5 184
v -217 26 152
v -213 31 146
v 100 -37 324
v 80 -37 324
v 80 -37 278
v 100 -37 278
v 100 37 324
v 80 37 324
v 80 37 278
v 100 37 278
v 124 -37 324
v 104 -37 324
v 104 -37 278
v 124 -37 278
v 124 37 324
v 104 37 324
v 104 37 278
v 124 37 278
v 147 -37 324
v 127 -37 324
v 127 -37 278
v 147 -37 278
v 147 37 324
v 127 37 324
v 127 37 278
v 147 37 278
v -227 -47 158
v -212 -36 158
v -223 -17 190
v -242 -30 190
v -242 -30 184
v -229 -44 157
v -227 -47 145
v -212 -36 145
v -213 -33 146
v -213 -33 157
v -222 -16 184
v -231 -5 178
v -237 -7 184
v -234 -10 189
v -244 -17 189
v -250 -19 178
v -247 -23 177
v -232 -40 152
v -229 -44 146
v -242 -55 136
v -238 -53 136
v -238 -53 137
v -216 -29 152
v -227 -9 177
v -218 -27 152
v -246 -14 184
v -233 -38 152
v -239 -51 137
v -243 -53 137
v -238 -52 137
v -242 -55 137
v -273 -1 192
v -278 -1 192
v -282 3 178
v -278 3 176
v -273 2 192
v -278 6 176
v -278 2 192
v -282 6 178
v -276 1 162
v -276 -2 162
v -273 -2 160
v -273 1 160
v -176 -9 263
v -185 -13 263
v -181 -9 257
v -189 -9 257
v -193 -9 263
v -189 -9 270
v -181 -9 270
v -181 11 257
v -185 15 263
v -176 11 263
v -181 11 270
v -189 11 270
v -193 11 263
v -189 11 257
v 10 -5 274
v 0 -5 278
v -10 -5 274
v -15 -5 264
v -10 -5 254
v 0 -5 249
v 10 -5 254
v 15 -5 264
v 10 -18 274
v 15 -17 264
v 28 -20 286
v 0 -19 278
v -28 -20 286
v -10 -18 274
v -15 -17 264
v -10 -15 254
v 0 -15 249
v 10 -15 254
v 15 17 302
v -15 17 302
v -15 -15 302
v 15 -15 302
v 28 22 286
v -28 22 286
v 17 -14 241
v -17 -14 241
v -25 -9 271
v -19 -9 251
v -17 16 241
v -19 11 251
v -15 19 264
v -10 17 254
v 0 17 249
v 17 16 241
v 10 17 254
v 15 19 264
v 25 11 271
v 19 11 251
v 19 -9 251
v 25 -9 271
v 26 -8 275
v 26 -5 275
v 26 7 275
v 26 10 275
v 161 11 271
v 161 11 251
v 15 7 264
v 10 7 254
v 0 7 249
v -10 7 254
v -15 7 264
v -10 7 274
v 0 7 278
v 10 7 274
v -10 20 274
v 10 20 274
v 0 21 278
v -219 -9 271
v -219 -9 251
v -219 11 271
v -25 11 271
v -219 11 251
v -236 11 256
v -236 11 265
v -219 10 275
v -26 10 275
v -26 -8 275
v -219 -8 275
v -219 -5 275
v -236 -9 265
v -236 -9 256
v -26 -5 275
v -25 -4 271
v -25 6 271
v -26 7 275
v -219 7 275
v 161 -9 251
v 161 -9 271
v 161 -8 275
v 161 -5 275
v 161 -4 271
v 25 -4 271
v 25 6 271
v 161 7 275
v 161 10 275
v 161 6 271
v -226 -4 252
v -226 6 252
v -13 5 302
v -13 -3 302
v -2 -3 307
v -2 5 307
v 9 5 302
v -2 5 311
v 14 5 302
v 14 -3 302
v -2 -3 311
v 9 -3 302
v -252 -55 202
v -193 19 202
v -301 -17 202
v -141 31 271
v -141 -26 271
v 112 28 271

f 1 2 3
f 1 3 4
f 1 4 5
f 5 4 6
f 7 8 9
f 7 9 10
f 7 10 11
f 11 10 12
f 13 3 2
f 13 2 14
f 15 9 8
f 15 8 16
f 17 18 19
f 17 19 20
f 17 20 21
f 17 21 22
f 17 22 23
f 17 23 24
f 17 24 18
f 18 24 25
f 18 25 26
f 18 26 19
f 19 26 27
f 19 27 28
f 19 28 20
f 20 28 29
f 20 29 21
f 21 29 27
f 21 27 26
f 21 26 22
f 22 26 30
f 22 30 23
f 23 30 31
f 23 31 32
f 23 32 33
f 23 33 24
f 24 33 34
f 24 34 35
f 24 35 36
f 24 36 25
f 25 36 37
f 25 37 38
f 25 38 30
f 25 30 26
f 27 29 28
f 28 29 39
f 28 39 40
f 28 40 41
f 41 40 42
f 41 42 43
f 43 42 44
f 43 44 29
f 29 44 39
f 39 44 45
f 39 45 46
f 39 46 47
f 39 47 40
f 40 47 48
f 40 48 49
f 40 49 42
f 42 49 50
f 42 50 51
f 42 51 52
f 42 52 44
f 44 52 53
f 44 53 54
f 44 54 45
f 45 54 55
f 45 55 46
f 46 55 56
f 46 56 57
f 57 56 58
f 58 56 59
f 58 59 60
f 58 60 50
f 58 50 61
f 61 50 49
f 36 62 63
f 36 63 37
f 37 63 64
f 37 64 38
f 38 64 65
f 38 65 66
f 38 66 30
f 30 66 67
f 30 67 31
f 31 67 68
f 31 68 69
f 31 69 32
f 32 69 70
f 32 70 33
f 33 70 71
f 33 71 34
f 34 71 72
f 34 72 35
f 35 72 62
f 35 62 36
f 66 65 73
f 66 73 67
f 67 73 68
f 74 75 76
f 74 76 77
f 74 77 78
f 74 78 79
f 74 79 80
f 74 80 81
f 74 81 82
f 74 82 75
f 75 82 83
f 75 83 84
f 75 84 85
f 75 85 86
f 75 86 87
f 75 87 76
f 76 87 88
f 76 88 77
f 77 88 89
f 77 89 90
f 77 90 78
f 78 90 91
f 78 91 92
f 78 92 79
f 79 92 80
f 80 92 91
f 80 91 84
f 80 84 93
f 80 93 81
f 81 93 82
f 82 93 83
f 83 93 84
f 84 91 94
f 84 94 85
f 85 94 86
f 86 94 87
f 87 94 95
f 87 95 88
f 88 95 90
f 88 90 89
f 96 97 98
f 96 98 99
f 96 99 100
f 96 100 97
f 97 100 101
f 97 101 102
f 97 102 98
f 101 100 103
f 101 103 102
f 100 99 103
f 104 105 106
f 104 106 107
f 104 107 108
f 104 108 105
f 105 108 109
f 105 109 110
f 105 110 106
f 109 108 111
f 109 111 110
f 108 107 111
f 112 113 114
f 112 114 115
f 112 115 116
f 112 116 113
f 113 116 117
f 113 117 118
f 113 118 114
f 117 116 119
f 117 119 118
f 116 115 119
f 120 121 122
f 120 122 123
f 120 123 124
f 120 124 125
f 120 125 126
f 120 126 121
f 121 126 127
f 121 127 128
f 121 128 129
f 121 129 130
f 121 130 122
f 122 130 131
f 122 131 132
f 122 132 133
f 122 133 123
f 123 133 134
f 123 134 135
f 123 135 136
f 123 136 124
f 124 136 137
f 124 137 125
f 125 137 138
f 125 138 126
f 126 138 139
f 126 139 127
f 127 139 140
f 127 140 141
f 127 141 128
f 128 141 142
f 128 142 129
f 129 142 143
f 129 143 130
f 130 143 131
f 131 143 142
f 131 142 144
f 131 144 135
f 131 135 145
f 131 145 132
f 132 145 133
f 133 145 134
f 134 145 135
f 144 146 135
f 135 146 137
f 135 137 136
f 147 148 146
f 147 146 144
f 147 144 142
f 147 142 149
f 147 149 140
f 147 140 148
f 148 140 139
f 148 139 150
f 148 150 146
f 146 150 137
f 137 150 138
f 138 150 139
f 142 141 149
f 149 141 140
f 151 152 153
f 151 153 154
f 151 154 155
f 155 154 156
f 155 156 157
f 157 156 158
f 157 158 152
f 152 158 153
f 153 158 159
f 153 159 160
f 153 160 154
f 154 160 161
f 154 161 156
f 156 161 162
f 156 162 158
f 158 162 159
f 163 164 165
f 165 164 166
f 166 164 167
f 167 164 168
f 168 164 169
f 169 164 163
f 170 171 172
f 172 171 173
f 173 171 174
f 174 171 175
f 175 171 176
f 176 171 170
f 177 178 179
f 177 179 180
f 177 180 181
f 177 181 182
f 177 182 183
f 177 183 184
f 177 184 185
f 185 184 186
f 185 186 187
f 185 187 188
f 188 187 189
f 188 189 190
f 190 189 191
f 190 191 179
f 179 191 180
f 180 191 192
f 180 192 181
f 181 192 193
f 181 193 182
f 182 193 194
f 182 194 183
f 183 194 186
f 183 186 184
f 195 196 197
f 195 197 198
f 195 198 187
f 195 187 199
f 195 199 196
f 196 199 200
f 196 200 197
f 197 200 189
f 197 189 198
f 198 189 187
f 201 187 186
f 201 186 194
f 201 194 193
f 201 193 202
f 202 193 192
f 202 192 191
f 202 191 189
f 202 189 203
f 202 203 204
f 202 204 205
f 205 204 206
f 205 206 200
f 205 200 207
f 205 207 208
f 205 208 209
f 205 209 210
f 210 209 211
f 210 211 212
f 210 212 199
f 210 199 213
f 210 213 214
f 210 214 201
f 201 214 215
f 201 215 187
f 187 215 216
f 187 216 217
f 187 217 218
f 187 218 199
f 199 218 219
f 199 219 220
f 199 220 213
f 213 220 221
f 213 221 222
f 213 222 214
f 223 224 225
f 223 225 226
f 223 226 227
f 223 227 228
f 223 228 229
f 223 229 230
f 223 230 212
f 223 212 211
f 223 211 224
f 224 211 209
f 224 209 225
f 225 209 208
f 225 208 226
f 226 208 207
f 226 207 227
f 227 207 231
f 227 231 228
f 230 232 212
f 212 232 199
f 199 232 233
f 199 233 200
f 200 233 231
f 200 231 207
f 203 234 235
f 203 235 204
f 236 237 206
f 236 206 238
f 236 238 239
f 236 239 240
f 236 240 60
f 236 60 241
f 236 241 237
f 237 241 242
f 237 242 200
f 237 200 206
f 234 203 243
f 234 243 244
f 234 244 245
f 234 245 59
f 234 59 55
f 234 55 246
f 234 246 235
f 235 246 247
f 247 246 54
f 54 246 55
f 244 243 248
f 244 248 245
f 245 248 249
f 245 249 59
f 59 249 250
f 59 250 60
f 60 250 251
f 60 251 252
f 60 252 241
f 241 252 242
f 242 252 251
f 242 251 200
f 200 251 189
f 189 251 248
f 189 248 243
f 189 243 203
f 251 250 249
f 251 249 248
f 215 253 254
f 215 254 216
f 216 254 255
f 216 255 217
f 217 255 256
f 217 256 218
f 218 256 257
f 218 257 258
f 218 258 259
f 218 259 219
f 219 259 260
f 219 260 261
f 219 261 220
f 220 261 221
f 221 261 260
f 221 260 262
f 221 262 222
f 222 262 253
f 253 262 257
f 253 257 254
f 254 257 255
f 255 257 256
f 260 259 262
f 262 259 258
f 262 258 257
f 60 240 50
f 50 240 239
f 50 239 51
f 56 55 59
f 54 53 263
f 264 52 51
f 265 266 267
f 265 267 268
f 265 268 269
f 269 268 270
f 269 270 271
f 271 270 272
f 272 270 273
f 272 273 267
f 272 267 274
f 274 267 266
f 273 270 48
f 273 48 47
f 273 47 267
f 267 47 46
f 270 268 57
f 270 57 48
f 48 57 49
f 90 95 94
f 90 94 91
f 275 276 277
