# RS2 Model 1876
# Vertices: 24
# Faces: 24

v -10 64 240
v 18 64 240
v 48 -64 0
v -36 -64 0
v 56 -13 127
v 56 -13 132
v -46 -13 132
v -46 -13 127
v -46 -5 134
v -46 0 128
v 56 -5 134
v 56 0 128
v 56 -61 27
v 56 -61 32
v -46 -61 32
v -46 -61 27
v -46 -53 34
v -46 -48 28
v 56 -53 34
v 56 -48 28
v -68 21 162
v 120 36 188
v -70 -20 82
v 104 -24 76

f 1 2 3
f 1 3 4
f 1 4 2
f 2 4 3
f 5 6 7
f 5 7 8
f 8 7 9
f 8 9 10
f 10 9 11
f 10 11 12
f 12 11 6
f 12 6 5
f 6 11 9
f 6 9 7
f 13 14 15
f 13 15 16
f 16 15 17
f 16 17 18
f 18 17 19
f 18 19 20
f 20 19 14
f 20 14 13
f 14 19 17
f 14 17 15
