# RS2 Model 19017
# Vertices: 300
# Faces: 518

v -1 0 220
v -1 -23 226
v -1 -16 217
v -1 -59 213
v -1 -59 208
v -29 -59 208
v -29 -59 213
v -29 -23 226
v -29 -16 217
v -29 0 220
v -29 -11 239
v -29 11 239
v -29 23 226
v -29 16 217
v -29 59 213
v -29 59 208
v -1 59 208
v -1 59 213
v -1 23 226
v -1 16 217
v -1 16 228
v -1 0 224
v -1 -16 228
v -1 -11 239
v -1 11 239
v -1 -8 237
v -1 8 237
v -4 8 237
v -4 16 228
v -4 0 224
v -4 -16 228
v -4 -8 237
v -5 119 79
v -6 132 58
v -6 130 175
v -5 117 163
v -7 114 82
v -4 68 79
v -5 56 58
v 7 63 27
v 6 139 34
v 5 140 34
v -7 133 57
v -7 132 175
v 2 59 196
v -5 55 184
v -5 68 163
v -7 72 159
v -7 114 159
v -5 106 95
v -7 72 82
v -3 51 58
v 7 38 27
v 5 41 59
v 5 0 45
v 7 -38 27
v 5 -41 59
v -3 -49 58
v 7 -63 27
v -4 -56 58
v -6 -132 58
v 6 -139 34
v -7 -134 57
v 5 -140 34
v -47 -140 34
v -47 -134 58
v -47 0 59
v -47 0 27
v -47 133 58
v -47 140 34
v -5 93 121
v -4 92 95
v -5 106 109
v -5 86 146
v -5 79 146
v -4 79 120
v -4 79 95
v -5 106 146
v -6 -130 175
v -5 -119 79
v -5 -117 163
v -5 -68 163
v -5 -55 184
v 2 -59 196
v 1 -135 187
v -7 -133 175
v -47 -133 176
v -47 -59 197
v -47 59 197
v -47 132 176
v -4 -68 79
v -5 -106 95
v -4 -92 95
v -5 -93 121
v -5 -106 109
v -7 -114 159
v -7 -114 82
v -7 -72 82
v -4 -79 95
v -4 -79 120
v -5 -79 146
v -5 -86 146
v -5 -106 146
v -7 -72 159
v 6 -130 15
v 7 -135 12
v 5 -128 8
v 5 139 8
v 6 141 15
v -1 -120 44
v 7 -144 23
v 7 -144 18
v 7 -144 16
v 7 -138 12
v 7 -136 5
v -47 -132 12
v -47 -126 5
v -47 -133 0
v -47 -141 7
v 7 -153 16
v -46 -120 44
v -46 120 44
v -47 135 9
v 7 -149 12
v 7 -148 12
v 7 -145 11
v 7 -144 13
v 7 -140 9
v 7 -144 4
v 7 -144 0
v 7 -153 7
v 7 -144 6
v 7 -145 10
v 7 -144 11
v 7 -141 9
v -1 120 44
v -3 -49 196
v 7 -55 201
v 2 -64 201
v -47 -138 188
v 0 -138 187
v 5 -41 197
v 11 -42 193
v 39 -34 198
v 39 -32 203
v 38 -30 203
v 5 -39 197
v 5 -39 59
v 44 -29 45
v 44 -29 204
v 45 -31 195
v 45 -32 55
v 45 -33 50
v 45 -31 45
v 42 -33 51
v 42 -32 46
v 11 -42 62
v 14 -39 190
v 39 -32 194
v 45 -33 199
v 45 -31 204
v -48 -64 202
v -48 64 202
v -47 137 188
v 0 137 187
v 1 135 187
v 7 -46 202
v 7 -54 204
v 2 -63 206
v -48 -63 207
v -48 63 207
v 2 64 201
v 7 55 201
v -3 51 196
v 5 41 197
v 11 42 193
v 11 42 62
v 42 32 46
v 43 34 51
v 46 34 50
v 45 32 45
v 45 30 45
v 46 33 55
v 45 30 204
v 39 31 203
v 5 39 59
v 5 39 197
v 40 33 203
v 40 35 198
v 40 33 194
v 14 39 190
v 14 39 66
v 43 33 56
v 2 0 220
v -48 0 220
v 2 63 206
v 7 54 204
v 7 46 202
v 7 0 210
v 5 0 204
v 7 0 215
v 28 -38 112
v 35 -37 128
v 28 -38 125
v 23 -40 110
v 29 -38 100
v 34 -37 103
v 33 -34 103
v 27 -35 112
v 34 -34 128
v 27 -35 125
v 23 -37 110
v 28 -35 100
v 31 -38 89
v 36 -36 92
v 35 -33 92
v 24 -39 74
v 31 -38 77
v 30 -35 77
v 41 -33 57
v 38 -33 193
v 15 -39 189
v 15 -39 67
v 24 -36 74
v 30 -35 89
v 14 -39 66
v 42 -33 56
v 2 0 45
v 0 -41 59
v 0 41 59
v -41 41 59
v -41 -41 59
v -41 -41 205
v 5 -41 205
v -41 41 205
v 6 130 15
v 5 128 8
v 7 135 12
v 7 144 18
v 7 144 23
v 7 153 16
v -47 132 12
v 7 153 7
v -47 141 7
v -47 133 0
v -47 126 5
v 7 136 5
v 7 140 9
v 7 138 12
v 7 144 16
v 7 149 12
v 7 144 4
v 7 144 0
v 7 148 12
v 7 144 6
v 7 141 9
v 7 144 11
v 7 144 13
v 7 145 11
v 7 145 10
v 35 37 128
v 29 39 112
v 24 40 110
v 29 39 125
v 28 36 125
v 35 34 128
v 28 36 112
v 34 37 103
v 30 39 100
v 29 36 100
v 23 37 110
v 15 39 189
v 39 33 193
v 42 34 57
v 36 34 92
v 34 35 103
v 36 37 92
v 31 38 89
v 31 35 89
v 24 37 74
v 15 39 67
v 31 35 77
v 31 38 77
v 25 40 74
v 45 32 204
v 46 34 199
v 45 32 195
v 5 41 205
v 55 85 209
v -82 80 209
v 56 -80 209
v -4 17 218
v -4 15 242
v -4 -13 218
v 31 -150 56
v -76 -117 49
v 36 -159 -22
v 41 50 239
v -71 50 239
v 41 -48 239

f 1 2 3
f 3 2 4
f 3 4 5
f 5 4 6
f 6 4 7
f 6 7 8
f 6 8 9
f 9 8 10
f 10 8 11
f 10 11 12
f 10 12 13
f 10 13 14
f 14 13 15
f 14 15 16
f 16 15 17
f 17 15 18
f 17 18 19
f 17 19 20
f 20 19 1
f 1 19 21
f 1 21 22
f 1 22 2
f 2 22 23
f 2 23 24
f 2 24 8
f 2 8 7
f 2 7 4
f 24 11 8
f 11 24 25
f 11 25 12
f 12 25 19
f 12 19 13
f 13 19 18
f 13 18 15
f 24 23 26
f 24 26 25
f 25 26 27
f 25 27 19
f 19 27 21
f 21 27 28
f 21 28 29
f 21 29 22
f 22 29 30
f 22 30 23
f 23 30 31
f 23 31 26
f 26 31 32
f 32 31 30
f 32 30 28
f 28 30 29
f 33 34 35
f 33 35 36
f 33 36 37
f 33 37 38
f 33 38 34
f 34 38 39
f 34 39 40
f 34 40 41
f 34 41 42
f 34 42 43
f 34 43 44
f 34 44 35
f 35 44 45
f 35 45 46
f 35 46 47
f 35 47 36
f 36 47 48
f 36 48 49
f 36 49 37
f 37 49 50
f 37 50 51
f 37 51 38
f 38 51 48
f 38 48 47
f 38 47 39
f 39 47 46
f 39 46 52
f 39 52 40
f 40 52 53
f 53 52 54
f 53 54 55
f 53 55 56
f 56 55 57
f 56 57 58
f 56 58 59
f 59 58 60
f 59 60 61
f 59 61 62
f 62 61 63
f 62 63 64
f 64 63 65
f 65 63 66
f 65 66 67
f 65 67 68
f 68 67 69
f 68 69 70
f 70 69 43
f 70 43 42
f 71 72 50
f 71 50 73
f 71 73 74
f 71 74 75
f 71 75 76
f 71 76 72
f 72 76 77
f 72 77 51
f 72 51 50
f 49 48 75
f 49 75 74
f 49 74 78
f 49 78 73
f 49 73 50
f 48 51 75
f 75 51 76
f 76 51 77
f 74 73 78
f 79 61 80
f 79 80 81
f 79 81 82
f 79 82 83
f 79 83 84
f 79 84 85
f 79 85 86
f 79 86 61
f 61 86 63
f 63 86 66
f 66 86 87
f 66 87 88
f 66 88 67
f 67 88 89
f 67 89 90
f 67 90 69
f 69 90 44
f 69 44 43
f 60 83 82
f 60 82 91
f 60 91 80
f 60 80 61
f 92 93 94
f 92 94 95
f 92 95 96
f 92 96 97
f 92 97 98
f 92 98 93
f 93 98 99
f 93 99 100
f 93 100 94
f 94 100 101
f 94 101 102
f 94 102 95
f 95 102 103
f 95 103 96
f 96 103 102
f 96 102 101
f 96 101 104
f 96 104 81
f 96 81 97
f 97 81 80
f 97 80 91
f 97 91 98
f 98 91 104
f 98 104 101
f 98 101 100
f 98 100 99
f 91 82 104
f 104 82 81
f 105 106 107
f 105 107 108
f 105 108 109
f 105 109 110
f 105 110 111
f 105 111 106
f 106 111 112
f 106 112 113
f 106 113 114
f 106 114 115
f 106 115 116
f 116 115 117
f 116 117 118
f 116 118 119
f 116 119 120
f 116 120 111
f 116 111 121
f 116 121 122
f 116 122 123
f 111 110 121
f 112 111 120
f 112 120 124
f 112 124 125
f 112 125 113
f 113 125 126
f 113 126 127
f 113 127 128
f 113 128 114
f 114 128 115
f 115 128 129
f 115 129 130
f 115 130 117
f 117 130 118
f 118 130 131
f 118 131 119
f 119 131 120
f 120 131 124
f 124 131 130
f 124 130 129
f 124 129 132
f 124 132 125
f 125 132 133
f 125 133 126
f 126 133 127
f 127 133 134
f 127 134 135
f 127 135 128
f 128 135 129
f 129 135 132
f 132 135 134
f 132 134 133
f 110 109 136
f 60 58 137
f 60 137 83
f 83 137 84
f 84 137 138
f 84 138 139
f 84 139 88
f 84 88 140
f 84 140 85
f 85 140 141
f 85 141 86
f 86 141 87
f 87 141 140
f 87 140 88
f 142 137 58
f 142 58 57
f 142 57 143
f 142 143 144
f 142 144 145
f 142 145 146
f 142 146 147
f 142 147 57
f 57 147 148
f 148 147 149
f 149 147 146
f 149 146 150
f 149 150 151
f 149 151 152
f 149 152 153
f 149 153 154
f 154 153 155
f 154 155 156
f 156 155 157
f 156 157 57
f 57 157 143
f 143 157 158
f 143 158 159
f 143 159 144
f 144 159 151
f 144 151 160
f 144 160 145
f 145 160 161
f 145 161 150
f 145 150 146
f 88 139 162
f 88 162 163
f 88 163 89
f 89 163 45
f 89 45 164
f 89 164 90
f 90 164 165
f 90 165 44
f 44 165 166
f 44 166 45
f 45 166 164
f 164 166 165
f 138 137 167
f 138 167 168
f 138 168 169
f 138 169 139
f 139 169 162
f 162 169 170
f 162 170 171
f 162 171 163
f 163 171 172
f 163 172 45
f 45 172 173
f 45 173 174
f 45 174 46
f 46 174 52
f 52 174 175
f 52 175 54
f 54 175 176
f 54 176 177
f 54 177 178
f 178 177 179
f 178 179 180
f 178 180 181
f 181 180 182
f 182 180 183
f 182 183 184
f 182 184 185
f 182 185 186
f 186 185 187
f 187 185 188
f 187 188 175
f 175 188 189
f 175 189 176
f 176 189 190
f 176 190 191
f 176 191 177
f 177 191 192
f 177 192 179
f 179 192 193
f 179 193 183
f 179 183 180
f 170 169 194
f 170 194 195
f 170 195 171
f 171 195 196
f 171 196 172
f 172 196 173
f 173 196 197
f 173 197 198
f 173 198 174
f 174 198 175
f 175 198 199
f 175 199 200
f 200 199 167
f 200 167 142
f 142 167 137
f 169 168 201
f 169 201 194
f 194 201 196
f 194 196 195
f 199 201 168
f 199 168 167
f 202 203 204
f 202 204 205
f 202 205 206
f 202 206 207
f 202 207 208
f 202 208 209
f 202 209 203
f 203 209 210
f 203 210 204
f 204 210 211
f 204 211 205
f 205 211 212
f 205 212 206
f 206 212 213
f 206 213 214
f 206 214 207
f 207 214 215
f 207 215 216
f 207 216 208
f 208 216 210
f 208 210 209
f 214 217 218
f 214 218 215
f 215 218 219
f 215 219 216
f 216 219 220
f 216 220 210
f 210 220 221
f 210 221 211
f 211 221 222
f 211 222 212
f 212 222 223
f 212 223 224
f 212 224 213
f 213 224 225
f 213 225 214
f 214 225 217
f 217 225 224
f 158 157 226
f 158 226 223
f 158 223 222
f 158 222 159
f 159 222 221
f 159 221 220
f 159 220 227
f 159 227 151
f 151 227 152
f 152 227 153
f 153 227 155
f 155 227 226
f 155 226 157
f 219 224 223
f 219 223 220
f 220 223 226
f 220 226 227
f 150 161 160
f 150 160 151
f 150 146 149
f 228 229 57
f 228 57 55
f 228 55 54
f 228 54 230
f 228 230 229
f 229 230 231
f 229 231 232
f 229 232 57
f 57 232 233
f 57 233 234
f 232 231 235
f 232 235 233
f 236 237 238
f 236 238 239
f 236 239 240
f 236 240 122
f 236 122 136
f 122 240 241
f 122 241 242
f 242 241 243
f 242 243 244
f 242 244 245
f 242 245 246
f 242 246 238
f 238 246 247
f 238 247 248
f 238 248 249
f 238 249 239
f 239 249 250
f 239 250 251
f 239 251 240
f 240 251 241
f 241 251 243
f 243 251 252
f 243 252 253
f 243 253 244
f 244 253 245
f 245 253 247
f 245 247 246
f 253 252 248
f 253 248 247
f 251 250 254
f 251 254 252
f 252 254 255
f 252 255 248
f 248 255 256
f 248 256 257
f 248 257 258
f 248 258 249
f 249 258 250
f 250 258 254
f 254 258 259
f 254 259 255
f 255 259 260
f 255 260 256
f 256 260 257
f 257 260 258
f 258 260 259
f 201 197 196
f 197 201 199
f 197 199 198
f 261 262 263
f 261 263 264
f 261 264 265
f 261 265 266
f 261 266 262
f 262 266 267
f 262 267 268
f 262 268 263
f 263 268 269
f 263 269 270
f 263 270 271
f 263 271 264
f 264 271 265
f 265 271 272
f 265 272 266
f 266 272 273
f 266 273 274
f 266 274 275
f 266 275 276
f 266 276 267
f 267 276 268
f 268 276 277
f 268 277 269
f 269 277 278
f 269 278 279
f 269 279 270
f 270 279 280
f 270 280 271
f 271 280 281
f 271 281 272
f 272 281 192
f 272 192 191
f 272 191 273
f 273 191 190
f 273 190 193
f 273 193 274
f 274 193 281
f 274 281 280
f 274 280 282
f 274 282 275
f 275 282 283
f 275 283 277
f 275 277 276
f 284 278 277
f 284 277 283
f 280 279 278
f 280 278 284
f 193 192 281
f 189 188 285
f 189 285 286
f 189 286 190
f 190 286 287
f 190 287 183
f 190 183 193
f 285 184 286
f 286 184 287
f 287 184 183
f 285 188 185
f 285 185 184
f 184 182 185
f 54 231 230
f 231 54 235
f 235 54 288
f 289 290 291
f 292 293 294
