# RS2 Model 19036
# Vertices: 160
# Faces: 278

v 43 41 131
v 43 45 131
v 57 45 115
v 57 41 115
v 47 41 136
v 11 41 148
v 11 41 141
v 0 41 149
v 0 41 141
v -11 41 148
v -11 41 141
v -47 41 136
v -43 41 131
v -64 41 115
v -57 41 115
v -43 45 131
v -57 45 115
v -47 45 133
v -11 45 145
v -11 45 141
v 0 45 146
v 0 45 141
v 11 45 145
v 11 45 141
v 47 45 133
v 62 45 115
v 86 48 116
v 55 48 116
v 55 38 116
v 64 41 115
v -62 45 115
v -74 38 116
v -55 39 116
v -55 48 116
v 74 38 116
v 85 38 116
v 86 38 68
v 86 48 0
v 86 -39 0
v 86 -18 68
v 86 -28 68
v 86 -41 68
v 77 -40 39
v 80 -40 4
v -86 -39 0
v -80 -40 4
v -77 -40 39
v -86 -41 68
v -86 -28 68
v -86 -19 68
v -86 48 0
v -86 38 68
v -86 48 116
v -85 38 116
v -79 38 68
v 79 38 68
v 79 -18 68
v 81 -20 68
v 84 -20 68
v 84 -27 68
v 79 -28 68
v 79 -41 68
v 74 -41 68
v 56 -41 64
v 53 -41 60
v 72 -40 39
v 75 -40 8
v -75 -40 8
v -72 -40 39
v -53 -41 60
v -56 -41 64
v -74 -41 68
v -79 -41 68
v -79 -28 68
v -81 -27 68
v -84 -27 68
v -84 -20 68
v -79 -19 68
v -74 -34 68
v -79 38 14
v 79 38 14
v 74 -34 68
v 81 -27 68
v 81 -12 89
v 81 -8 84
v 84 -8 84
v 84 -12 89
v 84 12 102
v 81 12 102
v 81 15 96
v 81 38 107
v 81 38 98
v 84 15 96
v 84 38 107
v 84 38 98
v -81 -20 68
v -81 -8 84
v -81 -12 89
v -84 -12 89
v -84 -8 84
v -81 15 96
v -81 12 102
v -84 12 102
v -84 15 96
v -81 38 98
v -81 38 107
v -84 38 107
v -84 38 98
v 74 -34 14
v -74 -34 14
v 70 -23 170
v 74 -33 176
v 74 -31 168
v 71 38 121
v 60 8 146
v 60 -13 163
v -71 -23 171
v 70 -23 177
v 70 -29 181
v -74 -33 176
v -74 -31 168
v -78 -9 101
v -74 -9 101
v -70 -31 168
v -70 38 116
v 70 -31 168
v 70 38 116
v 74 -9 101
v 78 -9 101
v -71 38 121
v -43 22 135
v 0 24 133
v 43 22 135
v 41 19 137
v 57 8 146
v 57 -11 161
v -61 -13 163
v -70 -29 181
v -70 -23 177
v 20 -13 169
v 22 -16 165
v 10 -14 169
v 10 -11 173
v 20 -16 171
v 22 -19 167
v -10 -11 173
v -10 -14 169
v -22 -16 165
v -20 -13 169
v -10 -14 175
v 10 -14 175
v 10 -17 171
v -10 -17 171
v -20 -16 171
v -22 -19 167
v -61 8 146
v -58 8 146
v -41 19 137
v 0 21 134
v -58 -11 161

f 1 2 3
f 1 3 4
f 1 4 5
f 1 5 6
f 1 6 7
f 7 6 8
f 7 8 9
f 9 8 10
f 9 10 11
f 11 10 12
f 11 12 13
f 13 12 14
f 13 14 15
f 13 15 16
f 16 15 17
f 16 17 18
f 16 18 19
f 16 19 20
f 20 19 21
f 20 21 22
f 22 21 23
f 22 23 24
f 24 23 25
f 24 25 2
f 2 25 26
f 2 26 3
f 3 26 27
f 3 27 28
f 3 28 4
f 4 28 29
f 4 29 30
f 4 30 5
f 5 30 25
f 5 25 23
f 5 23 6
f 6 23 21
f 6 21 8
f 8 21 19
f 8 19 10
f 10 19 18
f 10 18 12
f 12 18 31
f 12 31 14
f 14 31 32
f 14 32 33
f 14 33 15
f 15 33 17
f 17 33 34
f 17 34 31
f 17 31 18
f 25 30 26
f 26 30 27
f 27 30 35
f 27 35 36
f 27 36 37
f 27 37 38
f 27 38 28
f 28 38 34
f 28 34 29
f 29 34 33
f 38 37 39
f 39 37 40
f 39 40 41
f 39 41 42
f 39 42 43
f 39 43 44
f 39 44 45
f 45 44 46
f 45 46 47
f 45 47 48
f 45 48 49
f 45 49 50
f 45 50 51
f 51 50 52
f 51 52 53
f 51 53 38
f 38 53 34
f 34 53 31
f 31 53 32
f 32 53 54
f 32 54 52
f 32 52 55
f 32 55 35
f 35 55 56
f 35 56 36
f 36 56 37
f 37 56 57
f 37 57 40
f 40 57 58
f 40 58 59
f 40 59 41
f 41 59 60
f 41 60 61
f 41 61 62
f 41 62 42
f 42 62 43
f 43 62 63
f 43 63 64
f 43 64 65
f 43 65 66
f 43 66 44
f 44 66 67
f 44 67 46
f 46 67 68
f 46 68 69
f 46 69 47
f 47 69 70
f 47 70 71
f 47 71 72
f 47 72 73
f 47 73 48
f 48 73 49
f 49 73 74
f 49 74 75
f 49 75 76
f 49 76 50
f 50 76 77
f 50 77 78
f 50 78 52
f 52 78 55
f 55 78 79
f 55 79 80
f 55 80 56
f 56 80 81
f 56 81 82
f 56 82 57
f 57 82 61
f 57 61 83
f 57 83 58
f 58 83 84
f 58 84 85
f 58 85 59
f 59 85 86
f 59 86 60
f 60 86 87
f 60 87 83
f 60 83 61
f 62 61 82
f 62 82 63
f 63 82 79
f 63 79 72
f 63 72 71
f 63 71 64
f 64 71 65
f 65 71 70
f 65 70 67
f 65 67 66
f 87 84 83
f 84 87 88
f 84 88 89
f 84 89 85
f 85 89 90
f 90 89 91
f 90 91 92
f 93 88 87
f 93 87 86
f 94 91 89
f 94 89 88
f 94 88 95
f 95 88 93
f 54 53 52
f 73 79 74
f 74 79 78
f 74 78 96
f 74 96 75
f 75 96 97
f 75 97 98
f 75 98 76
f 76 98 99
f 76 99 77
f 77 99 100
f 77 100 96
f 77 96 78
f 79 73 72
f 70 68 67
f 68 70 69
f 100 97 96
f 101 102 98
f 101 98 97
f 102 103 99
f 102 99 98
f 103 104 100
f 103 100 99
f 105 106 102
f 105 102 101
f 106 107 103
f 106 103 102
f 107 108 104
f 107 104 103
f 29 35 30
f 81 109 82
f 82 109 79
f 79 109 110
f 79 110 80
f 80 110 109
f 80 109 81
f 111 112 113
f 111 113 114
f 111 114 115
f 111 115 116
f 111 116 117
f 111 117 118
f 111 118 112
f 112 118 119
f 112 119 120
f 112 120 113
f 113 120 121
f 121 120 117
f 121 117 32
f 121 32 122
f 121 122 123
f 121 123 124
f 124 123 125
f 124 125 126
f 126 125 127
f 126 127 128
f 126 128 129
f 126 129 113
f 113 129 35
f 113 35 114
f 114 35 130
f 114 130 131
f 114 131 132
f 114 132 133
f 114 133 115
f 115 133 134
f 115 134 135
f 115 135 116
f 116 135 136
f 116 136 137
f 116 137 117
f 117 137 130
f 117 130 32
f 32 130 35
f 120 119 138
f 120 138 139
f 120 139 117
f 117 139 118
f 118 139 138
f 118 138 119
f 140 141 142
f 140 142 143
f 140 143 144
f 140 144 145
f 140 145 141
f 146 143 147
f 146 147 148
f 146 148 149
f 146 149 150
f 146 150 151
f 146 151 143
f 143 151 144
f 144 151 145
f 145 151 152
f 152 151 150
f 152 150 153
f 153 150 154
f 153 154 155
f 155 154 148
f 148 154 149
f 149 154 150
f 143 142 147
f 137 156 130
f 130 156 131
f 131 156 157
f 131 157 158
f 131 158 132
f 132 158 159
f 132 159 133
f 133 159 134
f 134 159 135
f 135 159 157
f 135 157 136
f 136 157 160
f 136 160 137
f 137 160 156
f 156 160 157
f 158 157 159
