# RS2 Model 19080
# Vertices: 274
# Faces: 550

v -39 11 98
v -44 11 98
v -40 11 99
v -39 11 93
v -38 11 99
v -34 11 98
v -39 11 103
v -40 12 98
v -39 16 98
v -39 12 97
v -39 10 97
v -39 6 98
v -39 10 99
v -39 12 99
v -38 12 98
v -38 10 98
v -40 10 98
v -25 10 90
v -31 10 90
v -26 10 89
v -25 10 84
v -24 10 89
v -19 10 90
v -24 10 93
v -25 10 96
v -26 10 93
v -26 12 90
v -25 16 90
v -25 12 89
v -25 9 89
v -25 3 90
v -25 9 91
v -25 10 91
v -24 12 90
v -24 9 90
v -26 9 90
v -37 -8 105
v -43 -8 105
v -38 -8 104
v -37 -8 100
v -36 -8 104
v -31 -8 105
v -36 -8 107
v -37 -8 111
v -38 -8 107
v -38 -7 104
v -37 -2 105
v -37 -7 104
v -37 -9 104
v -37 -14 105
v -37 -9 107
v -37 -7 107
v -36 -7 104
v -36 -9 105
v -38 -9 105
v -29 -10 94
v -35 -10 94
v -30 -10 93
v -29 -10 88
v -28 -10 93
v -23 -10 94
v -28 -10 95
v -29 -10 100
v -30 -10 95
v -30 -9 94
v -29 -4 94
v -29 -9 93
v -29 -11 93
v -29 -16 94
v -29 -11 95
v -29 -9 95
v -28 -9 94
v -28 -11 94
v -30 -11 94
v -39 -4 89
v -45 -4 89
v -40 -4 88
v -39 -4 83
v -38 -4 88
v -33 -4 89
v -38 -4 90
v -39 -4 95
v -40 -4 90
v -40 -3 89
v -39 2 89
v -39 -3 88
v -39 -5 88
v -39 -10 89
v -39 -5 90
v -39 -3 90
v -38 -3 89
v -38 -5 89
v -40 -5 89
v -35 4 108
v -35 3 112
v -35 5 112
v -33 7 108
v -33 9 108
v -37 4 108
v -33 1 108
v -33 1 112
v -31 1 112
v -29 3 112
v -29 5 112
v -31 7 112
v -33 7 112
v -31 7 108
v -31 9 108
v -31 9 105
v -33 9 105
v -37 5 105
v -37 2 105
v -33 -1 108
v -31 -1 108
v -31 1 108
v -29 4 108
v -36 5 101
v -36 3 101
v -35 2 105
v -35 5 105
v -33 8 101
v -33 7 105
v -31 8 101
v -31 7 105
v -28 5 101
v -29 5 105
v -28 3 101
v -29 2 105
v -31 0 101
v -31 1 105
v -33 0 101
v -33 1 105
v -33 -1 105
v -31 -1 105
v -27 4 108
v -27 2 105
v -27 5 105
v -42 8 82
v -42 2 82
v -36 4 96
v -36 6 96
v -35 15 82
v -33 14 79
v -40 6 79
v -40 4 79
v -35 -5 82
v -33 1 96
v -29 -5 82
v -31 1 96
v -22 2 82
v -28 4 96
v -22 8 82
v -28 6 96
v -29 15 82
v -31 9 96
v -33 9 96
v -33 -4 79
v -31 -4 79
v -24 4 79
v -24 6 79
v -31 14 79
v 33 -3 79
v 27 -3 79
v 27 -3 73
v 33 -3 73
v 33 3 79
v 27 3 79
v 27 3 73
v 33 3 73
v 41 -3 79
v 35 -3 79
v 35 -3 73
v 41 -3 73
v 41 3 79
v 35 3 79
v 35 3 73
v 41 3 73
v 49 -3 79
v 43 -3 79
v 43 -3 73
v 49 -3 73
v 49 3 79
v 43 3 79
v 43 3 73
v 49 3 73
v 26 -10 99
v 26 -6 105
v 28 -2 102
v 28 -3 98
v 34 -10 99
v 34 -6 105
v 32 -2 102
v 32 -3 98
v 27 19 94
v 27 17 89
v 28 2 97
v 28 5 100
v 33 19 94
v 33 17 89
v 32 2 97
v 32 5 100
v 41 -11 79
v 35 -11 79
v 35 -11 73
v 41 -11 73
v 41 -5 79
v 35 -5 79
v 35 -5 73
v 41 -5 73
v 41 5 79
v 35 5 79
v 35 5 73
v 41 5 73
v 41 11 79
v 35 11 79
v 35 11 73
v 41 11 73
v -29 16 109
v -35 16 109
v -30 16 108
v -29 16 103
v -28 16 108
v -23 16 109
v -28 16 110
v -29 16 115
v -30 16 110
v -30 17 109
v -29 22 109
v -29 17 108
v -29 15 108
v -29 10 109
v -29 15 110
v -29 17 110
v -28 17 109
v -28 15 109
v -30 15 109
v -38 -2 115
v -44 -2 115
v -39 -2 114
v -38 -2 109
v -37 -2 114
v -32 -2 115
v -37 -2 118
v -38 -2 121
v -39 -2 118
v -39 0 115
v -38 4 115
v -38 0 114
v -38 -3 114
v -38 -9 115
v -38 -3 116
v -38 -2 116
v -37 0 115
v -37 -3 115
v -39 -3 115
v -32 9 117
v -38 9 117
v -33 9 116
v -32 9 111
v -31 9 116
v -26 9 117
v -31 9 118
v -32 9 123
v -33 9 118
v -33 10 117
v -32 15 117
v -32 10 116
v -32 8 116
v -32 3 117
v -32 8 118
v -32 10 118
v -31 10 117
v -31 8 117
v -33 8 117

f 1 2 3
f 1 3 4
f 1 4 5
f 1 5 6
f 1 6 5
f 1 5 7
f 1 7 3
f 1 3 2
f 1 2 8
f 1 8 9
f 1 9 10
f 1 10 4
f 1 4 3
f 1 3 7
f 1 7 5
f 1 5 4
f 1 4 11
f 1 11 12
f 1 12 13
f 1 13 7
f 1 7 14
f 1 14 9
f 1 9 14
f 1 14 7
f 1 7 13
f 1 13 12
f 1 12 11
f 1 11 4
f 1 4 10
f 1 10 9
f 1 9 15
f 1 15 6
f 1 6 16
f 1 16 12
f 1 12 17
f 1 17 2
f 1 2 17
f 1 17 12
f 1 12 16
f 1 16 6
f 1 6 15
f 1 15 9
f 1 9 8
f 1 8 2
f 18 19 20
f 18 20 21
f 18 21 22
f 18 22 23
f 18 23 24
f 18 24 25
f 18 25 26
f 18 26 19
f 18 19 26
f 18 26 25
f 18 25 24
f 18 24 23
f 18 23 22
f 18 22 21
f 18 21 20
f 18 20 19
f 18 19 27
f 18 27 28
f 18 28 29
f 18 29 21
f 18 21 30
f 18 30 31
f 18 31 32
f 18 32 25
f 18 25 33
f 18 33 28
f 18 28 33
f 18 33 25
f 18 25 32
f 18 32 31
f 18 31 30
f 18 30 21
f 18 21 29
f 18 29 28
f 18 28 34
f 18 34 23
f 18 23 35
f 18 35 31
f 18 31 36
f 18 36 19
f 18 19 36
f 18 36 31
f 18 31 35
f 18 35 23
f 18 23 34
f 18 34 28
f 18 28 27
f 18 27 19
f 37 38 39
f 37 39 40
f 37 40 41
f 37 41 42
f 37 42 43
f 37 43 44
f 37 44 45
f 37 45 38
f 37 38 45
f 37 45 44
f 37 44 43
f 37 43 42
f 37 42 41
f 37 41 40
f 37 40 39
f 37 39 38
f 37 38 46
f 37 46 47
f 37 47 48
f 37 48 40
f 37 40 49
f 37 49 50
f 37 50 51
f 37 51 44
f 37 44 52
f 37 52 47
f 37 47 52
f 37 52 44
f 37 44 51
f 37 51 50
f 37 50 49
f 37 49 40
f 37 40 48
f 37 48 47
f 37 47 53
f 37 53 42
f 37 42 54
f 37 54 50
f 37 50 55
f 37 55 38
f 37 38 55
f 37 55 50
f 37 50 54
f 37 54 42
f 37 42 53
f 37 53 47
f 37 47 46
f 37 46 38
f 56 57 58
f 56 58 59
f 56 59 60
f 56 60 61
f 56 61 62
f 56 62 63
f 56 63 64
f 56 64 57
f 56 57 64
f 56 64 63
f 56 63 62
f 56 62 61
f 56 61 60
f 56 60 59
f 56 59 58
f 56 58 57
f 56 57 65
f 56 65 66
f 56 66 67
f 56 67 59
f 56 59 68
f 56 68 69
f 56 69 70
f 56 70 63
f 56 63 71
f 56 71 66
f 56 66 71
f 56 71 63
f 56 63 70
f 56 70 69
f 56 69 68
f 56 68 59
f 56 59 67
f 56 67 66
f 56 66 72
f 56 72 61
f 56 61 73
f 56 73 69
f 56 69 74
f 56 74 57
f 56 57 74
f 56 74 69
f 56 69 73
f 56 73 61
f 56 61 72
f 56 72 66
f 56 66 65
f 56 65 57
f 75 76 77
f 75 77 78
f 75 78 79
f 75 79 80
f 75 80 81
f 75 81 82
f 75 82 83
f 75 83 76
f 75 76 83
f 75 83 82
f 75 82 81
f 75 81 80
f 75 80 79
f 75 79 78
f 75 78 77
f 75 77 76
f 75 76 84
f 75 84 85
f 75 85 86
f 75 86 78
f 75 78 87
f 75 87 88
f 75 88 89
f 75 89 82
f 75 82 90
f 75 90 85
f 75 85 90
f 75 90 82
f 75 82 89
f 75 89 88
f 75 88 87
f 75 87 78
f 75 78 86
f 75 86 85
f 75 85 91
f 75 91 80
f 75 80 92
f 75 92 88
f 75 88 93
f 75 93 76
f 75 76 93
f 75 93 88
f 75 88 92
f 75 92 80
f 75 80 91
f 75 91 85
f 75 85 84
f 75 84 76
f 94 95 96
f 94 96 97
f 94 97 98
f 94 98 99
f 94 99 100
f 94 100 101
f 94 101 95
f 95 101 96
f 96 101 102
f 96 102 103
f 96 103 104
f 96 104 105
f 96 105 106
f 96 106 97
f 97 106 107
f 97 107 98
f 98 107 108
f 98 108 109
f 98 109 110
f 98 110 99
f 99 110 111
f 99 111 112
f 99 112 113
f 99 113 100
f 100 113 114
f 100 114 115
f 100 115 102
f 100 102 101
f 115 116 103
f 115 103 102
f 116 104 103
f 104 116 105
f 105 116 107
f 105 107 106
f 117 118 119
f 117 119 120
f 117 120 121
f 121 120 122
f 121 122 123
f 123 122 124
f 123 124 125
f 125 124 126
f 125 126 127
f 127 126 128
f 127 128 129
f 129 128 130
f 129 130 131
f 131 130 132
f 131 132 118
f 118 132 119
f 112 133 113
f 113 133 114
f 114 133 134
f 114 134 135
f 114 135 115
f 115 135 116
f 116 135 108
f 116 108 107
f 134 136 135
f 135 136 137
f 135 137 108
f 108 137 109
f 138 139 140
f 138 140 141
f 138 141 142
f 138 142 143
f 138 143 144
f 138 144 139
f 139 144 145
f 139 145 146
f 139 146 147
f 139 147 140
f 146 148 149
f 146 149 147
f 148 150 151
f 148 151 149
f 150 152 153
f 150 153 151
f 152 154 155
f 152 155 153
f 154 142 156
f 154 156 155
f 142 141 156
f 145 157 146
f 146 157 148
f 148 157 158
f 148 158 150
f 150 158 159
f 150 159 152
f 152 159 160
f 152 160 154
f 154 160 161
f 154 161 142
f 142 161 143
f 143 161 160
f 143 160 144
f 144 160 145
f 145 160 157
f 157 160 158
f 158 160 159
f 162 163 164
f 162 164 165
f 162 165 166
f 162 166 163
f 163 166 167
f 163 167 168
f 163 168 164
f 167 166 169
f 167 169 168
f 166 165 169
f 170 171 172
f 170 172 173
f 170 173 174
f 170 174 171
f 171 174 175
f 171 175 176
f 171 176 172
f 175 174 177
f 175 177 176
f 174 173 177
f 178 179 180
f 178 180 181
f 178 181 182
f 178 182 179
f 179 182 183
f 179 183 184
f 179 184 180
f 183 182 185
f 183 185 184
f 182 181 185
f 186 187 188
f 186 188 189
f 186 189 190
f 186 190 187
f 187 190 191
f 187 191 192
f 187 192 188
f 191 190 193
f 191 193 192
f 190 189 193
f 194 195 196
f 194 196 197
f 194 197 198
f 194 198 195
f 195 198 199
f 195 199 200
f 195 200 196
f 199 198 201
f 199 201 200
f 198 197 201
f 202 203 204
f 202 204 205
f 202 205 206
f 202 206 203
f 203 206 207
f 203 207 208
f 203 208 204
f 207 206 209
f 207 209 208
f 206 205 209
f 210 211 212
f 210 212 213
f 210 213 214
f 210 214 211
f 211 214 215
f 211 215 216
f 211 216 212
f 215 214 217
f 215 217 216
f 214 213 217
f 218 219 220
f 218 220 221
f 218 221 222
f 218 222 223
f 218 223 224
f 218 224 225
f 218 225 226
f 218 226 219
f 218 219 226
f 218 226 225
f 218 225 224
f 218 224 223
f 218 223 222
f 218 222 221
f 218 221 220
f 218 220 219
f 218 219 227
f 218 227 228
f 218 228 229
f 218 229 221
f 218 221 230
f 218 230 231
f 218 231 232
f 218 232 225
f 218 225 233
f 218 233 228
f 218 228 233
f 218 233 225
f 218 225 232
f 218 232 231
f 218 231 230
f 218 230 221
f 218 221 229
f 218 229 228
f 218 228 234
f 218 234 223
f 218 223 235
f 218 235 231
f 218 231 236
f 218 236 219
f 218 219 236
f 218 236 231
f 218 231 235
f 218 235 223
f 218 223 234
f 218 234 228
f 218 228 227
f 218 227 219
f 237 238 239
f 237 239 240
f 237 240 241
f 237 241 242
f 237 242 243
f 237 243 244
f 237 244 245
f 237 245 238
f 237 238 245
f 237 245 244
f 237 244 243
f 237 243 242
f 237 242 241
f 237 241 240
f 237 240 239
f 237 239 238
f 237 238 246
f 237 246 247
f 237 247 248
f 237 248 240
f 237 240 249
f 237 249 250
f 237 250 251
f 237 251 244
f 237 244 252
f 237 252 247
f 237 247 252
f 237 252 244
f 237 244 251
f 237 251 250
f 237 250 249
f 237 249 240
f 237 240 248
f 237 248 247
f 237 247 253
f 237 253 242
f 237 242 254
f 237 254 250
f 237 250 255
f 237 255 238
f 237 238 255
f 237 255 250
f 237 250 254
f 237 254 242
f 237 242 253
f 237 253 247
f 237 247 246
f 237 246 238
f 256 257 258
f 256 258 259
f 256 259 260
f 256 260 261
f 256 261 262
f 256 262 263
f 256 263 264
f 256 264 257
f 256 257 264
f 256 264 263
f 256 263 262
f 256 262 261
f 256 261 260
f 256 260 259
f 256 259 258
f 256 258 257
f 256 257 265
f 256 265 266
f 256 266 267
f 256 267 259
f 256 259 268
f 256 268 269
f 256 269 270
f 256 270 263
f 256 263 271
f 256 271 266
f 256 266 271
f 256 271 263
f 256 263 270
f 256 270 269
f 256 269 268
f 256 268 259
f 256 259 267
f 256 267 266
f 256 266 272
f 256 272 261
f 256 261 273
f 256 273 269
f 256 269 274
f 256 274 257
f 256 257 274
f 256 274 269
f 256 269 273
f 256 273 261
f 256 261 272
f 256 272 266
f 256 266 265
f 256 265 257
