# RS2 Model 19092
# Vertices: 439
# Faces: 683

v 16 -27 -6
v 16 -47 -6
v 22 -42 -24
v 22 -16 -24
v 1 -25 -6
v 0 -29 -6
v 10 -31 -6
v 10 -43 -6
v -1 -57 -6
v -1 -56 -24
v -1 -64 -38
v 36 -42 -38
v 36 -2 -38
v 2 -13 -24
v -15 -28 -6
v -12 -34 -6
v -6 -36 -6
v -1 -34 -6
v 4 -35 -6
v 4 -41 -6
v -1 -50 -6
v -16 -50 -6
v -21 -46 -24
v -30 -48 -38
v -19 -18 -24
v -23 -36 -24
v -18 -42 -6
v -10 -44 -6
v -5 -41 -6
v -1 -38 -6
v -1 -44 -6
v 3 3 -38
v -30 -4 -38
v -35 -28 -38
v 16 -29 211
v 16 -49 211
v 16 -40 147
v 16 -20 147
v 1 -27 211
v 0 -31 211
v 10 -33 211
v 10 -45 211
v -1 -59 211
v 3 -58 192
v 11 -53 192
v 11 -51 177
v -1 -50 147
v 3 -55 177
v -16 -43 147
v -16 -52 211
v -18 -35 147
v -18 -44 211
v -20 -35 180
v -20 -33 164
v -15 -21 147
v -19 -26 164
v -15 -30 211
v 1 -18 147
v -12 -36 211
v -6 -38 211
v -1 -36 211
v 4 -37 211
v 4 -43 211
v -1 -52 211
v -10 -46 211
v -19 -28 180
v -30 -22 188
v -31 -29 188
v -31 -27 176
v -30 -20 176
v -1 -46 211
v -5 -43 211
v -1 -40 211
v 17 -63 194
v 17 -61 199
v 25 -56 199
v 25 -62 194
v 30 -64 215
v 26 -64 215
v 26 -62 217
v 30 -61 217
v -42 -13 189
v -42 -15 201
v -43 -22 201
v -43 -20 189
v -55 -12 215
v -54 -5 215
v -54 -7 222
v -55 -14 222
v 16 -49 212
v 16 -29 212
v 10 -33 212
v 10 -45 212
v -1 -59 212
v -1 -52 212
v -16 -52 212
v -10 -46 212
v -12 -36 212
v -18 -44 212
v -15 -30 212
v 1 -27 212
v 0 -31 212
v -1 -36 212
v 4 -37 212
v 4 -43 212
v -1 -46 212
v -5 -43 212
v -6 -38 212
v -1 -40 212
v 16 -41 260
v 16 -21 260
v 10 -25 260
v 10 -37 260
v -1 -51 260
v 21 -42 239
v 19 -38 249
v 19 -28 249
v 1 -19 260
v 0 -23 260
v -1 -28 260
v 4 -29 260
v 4 -35 260
v -1 -44 260
v -16 -44 260
v -12 -49 250
v -5 -52 250
v -5 -55 238
v -12 -51 238
v -18 -36 260
v -19 -34 248
v -19 -39 232
v -18 -32 232
v -15 -22 260
v -12 -28 260
v -6 -30 260
v -1 -32 260
v -1 -38 260
v -10 -38 260
v -19 -27 245
v -40 -23 249
v -39 -29 252
v -40 -35 240
v -39 -28 240
v -5 -35 260
v -58 -22 263
v -58 -18 268
v -58 -22 270
v -58 -26 263
v 21 -32 239
v 34 -33 246
v 34 -40 246
v 34 -37 254
v 34 -30 254
v 51 -22 255
v 51 -25 251
v 51 -32 251
v 51 -29 255
v -7 -63 256
v -7 -56 259
v 0 -59 259
v 0 -64 256
v 7 -63 284
v 3 -61 284
v 3 -59 285
v 7 -62 285
v 43 -16 267
v 23 -23 266
v 27 -23 257
v 42 -19 257
v 56 -33 264
v 59 -33 265
v 44 -13 268
v 21 -21 267
v 22 -43 263
v 26 -39 254
v 41 -44 254
v 52 -32 256
v 42 -50 262
v 43 -53 263
v 42 -46 252
v 54 -31 255
v 43 -17 257
v 25 -22 256
v 20 -45 264
v 24 -40 253
v 32 -14 284
v 28 -17 284
v 26 -20 268
v 29 -18 269
v 56 -49 278
v 56 -48 278
v 50 -43 265
v 47 -45 265
v 48 -15 275
v 45 -12 276
v 44 -15 269
v 47 -17 269
v 23 -47 274
v 25 -49 274
v 33 -48 264
v 30 -46 264
v 17 -38 281
v 18 -41 281
v 22 -32 266
v 22 -30 267
v 57 -34 276
v 58 -32 276
v 56 -30 267
v 56 -32 267
v 28 -17 268
v 25 -19 267
v 27 -17 285
v 31 -14 285
v 48 -46 264
v 51 -44 264
v 57 -49 279
v 57 -50 279
v 48 -16 268
v 45 -14 268
v 46 -11 277
v 49 -14 276
v 29 -47 263
v 32 -49 263
v 24 -50 275
v 22 -48 275
v 21 -29 266
v 21 -33 265
v 17 -42 282
v 16 -38 282
v 57 -33 265
v 57 -29 266
v 59 -32 277
v 58 -35 277
v 16 -27 31
v 16 -47 31
v 22 -42 13
v 22 -16 13
v 1 -25 31
v 0 -29 31
v 10 -31 31
v 10 -43 31
v -1 -57 31
v -1 -56 13
v -1 -64 -1
v 36 -42 -1
v 36 -2 -1
v 2 -13 13
v -15 -28 31
v -12 -34 31
v -6 -36 31
v -1 -34 31
v 4 -35 31
v 4 -41 31
v -1 -50 31
v -16 -50 31
v -21 -46 13
v -30 -48 -1
v -19 -18 13
v -23 -36 13
v -18 -42 31
v -10 -44 31
v -5 -41 31
v -1 -38 31
v -1 -44 31
v 3 3 -1
v -30 -4 -1
v -35 -28 -1
v 16 -49 74
v 16 -29 74
v 10 -33 74
v 10 -45 74
v -1 -59 74
v -1 -57 32
v 16 -47 32
v 16 -27 32
v 1 -27 74
v 0 -31 74
v -1 -36 74
v 4 -37 74
v 4 -43 74
v -1 -52 74
v -16 -52 74
v -16 -50 32
v -15 -30 74
v -12 -36 74
v -6 -38 74
v -1 -40 74
v -1 -46 74
v -10 -46 74
v -18 -44 74
v -18 -42 32
v -5 -43 74
v -15 -28 32
v 1 -25 32
v 16 -40 146
v 16 -20 146
v 10 -24 146
v 10 -36 146
v -1 -50 146
v -1 -59 75
v 16 -49 75
v 16 -42 102
v 18 -36 117
v 16 -27 118
v 16 -29 75
v 1 -18 146
v 0 -22 146
v -1 -27 146
v 4 -28 146
v 4 -34 146
v -1 -43 146
v -16 -43 146
v -14 -46 136
v -3 -52 136
v -3 -55 123
v -16 -52 75
v -14 -49 123
v -18 -44 75
v -18 -35 146
v -15 -30 75
v -15 -21 146
v 1 -27 75
v -12 -27 146
v -6 -29 146
v -1 -31 146
v -1 -37 146
v -10 -37 146
v -5 -34 146
v 16 -33 98
v 35 -30 101
v 35 -36 104
v 36 -31 114
v 35 -25 115
v 56 -34 138
v 56 -38 128
v 56 -42 130
v 57 -39 138
v -36 -57 141
v -36 -53 148
v -29 -59 148
v -29 -63 141
v -32 -63 171
v -31 -60 171
v -31 -58 174
v -32 -62 174
v 53 -25 267
v 41 -30 267
v 41 -37 267
v 53 -29 267
v 41 -33 264
v 38 -24 269
v 39 -33 273
v 39 -37 271
v 33 -37 267
v 33 -33 264
v 36 -24 269
v 35 -33 273
v 35 -37 271
v 33 -30 267
v 21 -25 267
v 21 -29 267
v 36 -38 271
v 38 -38 271
v 35 -38 267
v 35 -41 268
v 37 -41 272
v 39 -38 267
v 39 -41 268
v 37 -43 269
v 34 -18 274
v 40 -18 274
v 31 -57 210
v 35 -50 210
v 38 -46 191
v 28 -64 191
v -55 -10 208
v -60 -14 208
v -63 -16 189
v -49 -7 189
v -55 -22 257
v -60 -18 257
v -64 -16 238
v -48 -25 238
v 45 -27 247
v 50 -33 247
v 53 -37 227
v 40 -22 227
v -39 -21 185
v -45 -22 185
v -49 -22 166
v -32 -22 166
v -48 -16 196
v -47 -22 196
v -48 -26 177
v -47 -9 177
v 18 -64 184
v 17 -56 184
v 11 -52 166
v 15 -72 165
v 8 -59 179
v 13 -52 179
v 15 -48 160
v 6 -66 160
v 21 -61 192
v 24 -54 192
v 32 -50 175
v 28 -70 174
v 25 -65 226
v 41 -70 215
v 26 -66 202
v 20 -64 207
v -2 -65 216
v 10 -78 207
v 7 -64 194
v 3 -58 198
v -22 -44 217
v -34 -32 217
v -32 -35 198
v -27 -39 198
v -36 -19 218
v -49 -30 218
v -45 -28 199
v -42 -23 199
v -10 -61 250
v -5 -67 250
v -2 -71 231
v -15 -56 231
v -3 -64 265
v 3 -66 270
v 11 -82 261
v -4 -77 249
v 1 -58 281
v -5 -59 276
v -16 -43 270
v -1 -38 282
v 31 -39 240
v 35 -33 245
v 42 -20 231
v 33 -34 221

f 1 2 3
f 1 3 4
f 1 4 5
f 1 5 6
f 1 6 7
f 1 7 2
f 2 7 8
f 2 8 9
f 2 9 10
f 2 10 3
f 3 10 11
f 3 11 12
f 3 12 4
f 4 12 13
f 4 13 14
f 4 14 5
f 5 14 15
f 5 15 16
f 5 16 6
f 6 16 17
f 6 17 18
f 6 18 7
f 7 18 19
f 7 19 8
f 8 19 20
f 8 20 21
f 8 21 9
f 9 21 22
f 9 22 23
f 9 23 10
f 10 23 24
f 10 24 11
f 15 14 25
f 15 25 26
f 15 26 27
f 15 27 16
f 16 27 22
f 16 22 28
f 16 28 29
f 16 29 17
f 17 29 30
f 17 30 18
f 18 30 19
f 19 30 20
f 20 30 31
f 20 31 21
f 21 31 28
f 21 28 22
f 14 13 32
f 14 32 25
f 25 32 33
f 25 33 34
f 25 34 26
f 26 34 24
f 26 24 23
f 26 23 27
f 27 23 22
f 28 31 29
f 29 31 30
f 35 36 37
f 35 37 38
f 35 38 39
f 35 39 40
f 35 40 41
f 35 41 36
f 36 41 42
f 36 42 43
f 36 43 44
f 36 44 45
f 36 45 37
f 37 45 46
f 37 46 47
f 47 46 48
f 47 48 43
f 47 43 49
f 49 43 50
f 49 50 51
f 51 50 52
f 51 52 53
f 51 53 54
f 51 54 55
f 55 54 56
f 55 56 57
f 55 57 39
f 55 39 58
f 58 39 38
f 39 57 59
f 39 59 40
f 40 59 60
f 40 60 61
f 40 61 41
f 41 61 62
f 41 62 42
f 42 62 63
f 42 63 64
f 42 64 43
f 43 64 50
f 50 64 65
f 50 65 59
f 50 59 52
f 52 59 57
f 52 57 66
f 52 66 53
f 53 66 67
f 53 67 68
f 53 68 54
f 54 68 69
f 54 69 56
f 56 69 70
f 56 70 66
f 56 66 57
f 65 64 71
f 65 71 72
f 65 72 59
f 59 72 60
f 60 72 73
f 60 73 61
f 61 73 62
f 62 73 63
f 63 73 71
f 63 71 64
f 72 71 73
f 43 48 44
f 44 48 74
f 44 74 75
f 44 75 45
f 45 75 76
f 45 76 46
f 46 76 77
f 46 77 48
f 48 77 74
f 74 77 78
f 74 78 79
f 74 79 75
f 75 79 80
f 75 80 76
f 76 80 81
f 76 81 77
f 77 81 78
f 78 81 80
f 78 80 79
f 66 70 67
f 67 70 82
f 67 82 83
f 67 83 68
f 68 83 84
f 68 84 69
f 69 84 85
f 69 85 70
f 70 85 82
f 82 85 86
f 82 86 87
f 82 87 83
f 83 87 88
f 83 88 84
f 84 88 89
f 84 89 85
f 85 89 86
f 86 89 88
f 86 88 87
f 90 91 92
f 90 92 93
f 90 93 94
f 94 93 95
f 94 95 96
f 96 95 97
f 96 97 98
f 96 98 99
f 99 98 100
f 100 98 101
f 101 98 102
f 101 102 91
f 91 102 92
f 92 102 103
f 92 103 104
f 92 104 93
f 93 104 105
f 93 105 95
f 95 105 106
f 95 106 97
f 97 106 107
f 97 107 98
f 98 107 108
f 98 108 102
f 102 108 103
f 103 108 109
f 103 109 104
f 104 109 105
f 105 109 106
f 106 109 107
f 107 109 108
f 110 111 112
f 110 112 113
f 110 113 114
f 110 114 94
f 110 94 90
f 110 90 115
f 110 115 116
f 110 116 111
f 111 116 117
f 111 117 91
f 111 91 118
f 111 118 119
f 111 119 112
f 112 119 120
f 112 120 121
f 112 121 113
f 113 121 122
f 113 122 123
f 113 123 114
f 114 123 124
f 114 124 125
f 114 125 126
f 114 126 94
f 94 126 127
f 94 127 96
f 96 127 128
f 96 128 124
f 96 124 99
f 99 124 129
f 99 129 130
f 99 130 131
f 99 131 100
f 100 131 132
f 100 132 133
f 100 133 101
f 101 133 118
f 101 118 91
f 118 133 134
f 118 134 119
f 119 134 135
f 119 135 120
f 120 135 136
f 120 136 121
f 121 136 122
f 122 136 137
f 122 137 123
f 123 137 138
f 123 138 124
f 124 138 134
f 124 134 129
f 129 134 133
f 129 133 139
f 129 139 130
f 130 139 140
f 130 140 141
f 130 141 131
f 131 141 142
f 131 142 132
f 132 142 143
f 132 143 139
f 132 139 133
f 138 137 144
f 138 144 134
f 134 144 135
f 135 144 136
f 136 144 137
f 139 143 140
f 140 143 145
f 140 145 146
f 140 146 141
f 141 146 147
f 141 147 142
f 142 147 148
f 142 148 143
f 143 148 145
f 145 148 147
f 145 147 146
f 91 117 149
f 91 149 90
f 90 149 115
f 115 149 150
f 115 150 151
f 115 151 116
f 116 151 152
f 116 152 117
f 117 152 153
f 117 153 149
f 149 153 150
f 150 153 154
f 150 154 155
f 150 155 151
f 151 155 156
f 151 156 152
f 152 156 157
f 152 157 153
f 153 157 154
f 154 157 156
f 154 156 155
f 128 125 124
f 125 128 158
f 125 158 159
f 125 159 126
f 126 159 160
f 126 160 127
f 127 160 161
f 127 161 128
f 128 161 158
f 158 161 162
f 158 162 163
f 158 163 159
f 159 163 164
f 159 164 160
f 160 164 165
f 160 165 161
f 161 165 162
f 162 165 163
f 163 165 164
f 166 167 168
f 166 168 169
f 166 169 170
f 166 170 171
f 166 171 172
f 166 172 167
f 167 172 173
f 167 173 174
f 167 174 175
f 167 175 168
f 168 175 169
f 169 175 176
f 169 176 177
f 169 177 170
f 170 177 178
f 170 178 179
f 170 179 171
f 171 179 180
f 171 180 181
f 171 181 172
f 172 181 182
f 172 182 173
f 173 182 183
f 173 183 184
f 173 184 174
f 174 184 178
f 174 178 176
f 174 176 175
f 178 177 176
f 183 185 184
f 184 185 179
f 184 179 178
f 185 180 179
f 180 185 183
f 180 183 181
f 181 183 182
f 186 187 188
f 186 188 189
f 190 191 192
f 190 192 193
f 194 195 196
f 194 196 197
f 198 199 200
f 198 200 201
f 202 203 204
f 202 204 205
f 206 207 208
f 206 208 209
f 210 211 212
f 210 212 213
f 214 215 216
f 214 216 217
f 218 219 220
f 218 220 221
f 222 223 224
f 222 224 225
f 226 227 228
f 226 228 229
f 230 231 232
f 230 232 233
f 234 235 236
f 234 236 237
f 234 237 238
f 234 238 239
f 234 239 240
f 234 240 235
f 235 240 241
f 235 241 242
f 235 242 243
f 235 243 236
f 236 243 244
f 236 244 245
f 236 245 237
f 237 245 246
f 237 246 247
f 237 247 238
f 238 247 248
f 238 248 249
f 238 249 239
f 239 249 250
f 239 250 251
f 239 251 240
f 240 251 252
f 240 252 241
f 241 252 253
f 241 253 254
f 241 254 242
f 242 254 255
f 242 255 256
f 242 256 243
f 243 256 257
f 243 257 244
f 248 247 258
f 248 258 259
f 248 259 260
f 248 260 249
f 249 260 255
f 249 255 261
f 249 261 262
f 249 262 250
f 250 262 263
f 250 263 251
f 251 263 252
f 252 263 253
f 253 263 264
f 253 264 254
f 254 264 261
f 254 261 255
f 247 246 265
f 247 265 258
f 258 265 266
f 258 266 267
f 258 267 259
f 259 267 257
f 259 257 256
f 259 256 260
f 260 256 255
f 261 264 262
f 262 264 263
f 268 269 270
f 268 270 271
f 268 271 272
f 268 272 273
f 268 273 274
f 268 274 269
f 269 274 275
f 269 275 276
f 269 276 277
f 269 277 270
f 270 277 278
f 270 278 279
f 270 279 271
f 271 279 280
f 271 280 281
f 271 281 272
f 272 281 282
f 272 282 283
f 272 283 273
f 276 284 285
f 276 285 277
f 277 285 286
f 277 286 278
f 278 286 287
f 278 287 279
f 279 287 280
f 280 287 288
f 280 288 281
f 281 288 289
f 281 289 282
f 282 289 285
f 282 285 290
f 282 290 291
f 282 291 283
f 289 288 292
f 289 292 285
f 285 292 286
f 286 292 287
f 287 292 288
f 290 285 284
f 290 284 293
f 290 293 291
f 276 275 294
f 276 294 284
f 284 294 293
f 295 296 297
f 295 297 298
f 295 298 299
f 295 299 300
f 295 300 301
f 295 301 302
f 295 302 303
f 295 303 296
f 296 303 304
f 296 304 305
f 296 305 306
f 296 306 307
f 296 307 297
f 297 307 308
f 297 308 309
f 297 309 298
f 298 309 310
f 298 310 311
f 298 311 299
f 299 311 312
f 299 312 313
f 299 313 314
f 299 314 300
f 300 314 315
f 300 315 316
f 316 315 317
f 316 317 312
f 316 312 318
f 318 312 319
f 318 319 320
f 320 319 321
f 320 321 322
f 322 321 306
f 322 306 305
f 306 321 323
f 306 323 307
f 307 323 324
f 307 324 308
f 308 324 325
f 308 325 309
f 309 325 310
f 310 325 326
f 310 326 311
f 311 326 327
f 311 327 312
f 312 327 323
f 312 323 319
f 319 323 321
f 327 326 328
f 327 328 323
f 323 328 324
f 324 328 325
f 325 328 326
f 301 305 329
f 301 329 302
f 302 329 330
f 302 330 331
f 302 331 303
f 303 331 332
f 303 332 304
f 304 332 333
f 304 333 329
f 304 329 305
f 329 333 330
f 330 333 334
f 330 334 335
f 330 335 331
f 331 335 336
f 331 336 332
f 332 336 337
f 332 337 333
f 333 337 334
f 334 337 336
f 334 336 335
f 317 313 312
f 313 317 338
f 313 338 339
f 313 339 314
f 314 339 340
f 314 340 315
f 315 340 341
f 315 341 317
f 317 341 338
f 338 341 342
f 338 342 343
f 338 343 339
f 339 343 344
f 339 344 340
f 340 344 345
f 340 345 341
f 341 345 342
f 342 345 343
f 343 345 344
f 346 347 348
f 346 348 349
f 346 349 347
f 347 349 348
f 347 348 350
f 347 350 351
f 347 351 352
f 347 352 353
f 347 353 348
f 348 353 354
f 348 354 355
f 348 355 350
f 350 355 356
f 350 356 351
f 351 356 357
f 351 357 352
f 352 357 358
f 352 358 353
f 353 358 354
f 354 358 357
f 354 357 359
f 354 359 355
f 355 359 356
f 356 359 357
f 359 360 361
f 359 361 354
f 359 354 360
f 360 354 361
f 362 363 353
f 362 353 358
f 362 358 364
f 362 364 365
f 362 365 366
f 362 366 363
f 363 366 367
f 363 367 348
f 363 348 353
f 364 358 354
f 364 354 367
f 364 367 368
f 364 368 365
f 365 368 369
f 365 369 366
f 366 369 368
f 366 368 367
f 367 354 348
f 351 356 370
f 351 370 371
f 351 371 356
f 356 371 370
f 372 373 374
f 372 374 375
f 372 375 373
f 373 375 374
f 376 377 378
f 376 378 379
f 376 379 377
f 377 379 378
f 380 381 382
f 380 382 383
f 380 383 381
f 381 383 382
f 384 385 386
f 384 386 387
f 384 387 385
f 385 387 386
f 388 389 390
f 388 390 391
f 388 391 389
f 389 391 390
f 392 393 394
f 392 394 395
f 392 395 393
f 393 395 394
f 396 397 398
f 396 398 399
f 396 399 397
f 397 399 398
f 400 401 402
f 400 402 403
f 400 403 401
f 401 403 402
f 404 405 406
f 404 406 407
f 404 407 405
f 405 407 406
f 408 409 410
f 408 410 411
f 408 411 409
f 409 411 410
f 412 413 414
f 412 414 415
f 412 415 413
f 413 415 414
f 416 417 418
f 416 418 419
f 416 419 417
f 417 419 418
f 420 421 422
f 420 422 423
f 420 423 421
f 421 423 422
f 424 425 426
f 424 426 427
f 424 427 425
f 425 427 426
f 428 429 430
f 428 430 431
f 428 431 429
f 429 431 430
f 432 433 434
f 432 434 435
f 432 435 433
f 433 435 434
f 436 437 438
f 436 438 439
f 436 439 437
f 437 439 438
