# RS2 Model 19107
# Vertices: 167
# Faces: 281

v -6 -18 122
v -11 -4 123
v -11 -4 122
v -6 -18 121
v 9 -16 121
v 10 -3 122
v 10 -3 123
v 9 -16 122
v -2 -18 124
v -4 -18 124
v -4 -18 120
v -2 -18 120
v 0 -18 122
v 0 -17 125
v -6 -17 125
v -6 -17 119
v 0 -17 119
v 6 -18 124
v 4 -18 124
v 2 -18 122
v 4 -18 120
v 6 -18 120
v 8 -18 122
v 5 -17 126
v 1 -17 122
v 5 -17 118
v 9 -17 122
v -4 -16 118
v -8 -17 122
v -4 -16 126
v 7 -16 119
v 1 -16 119
v 1 -16 125
v 7 -16 125
v 9 -6 118
v 9 -7 110
v 2 -7 112
v 8 -1 118
v 9 -3 120
v 10 -3 120
v 9 -7 118
v 7 -11 108
v -2 -7 112
v -9 -7 110
v -9 -6 118
v -8 -1 118
v -4 1 117
v -6 2 110
v -6 -6 110
v 6 -6 110
v 6 2 110
v 4 1 117
v 9 -4 124
v 9 -4 122
v 10 -4 122
v 10 -6 121
v 9 -6 120
v 9 -8 120
v 5 -11 114
v 2 -18 107
v 0 -15 114
v -2 -18 107
v -5 -11 114
v -7 -11 108
v -9 -7 118
v -10 -3 120
v -9 -3 120
v -9 -4 122
v -3 8 126
v 4 8 126
v 0 3 110
v -14 4 107
v -7 -8 108
v 8 -8 108
v 14 4 107
v 14 5 106
v 0 4 109
v -14 5 106
v -17 3 96
v -14 -4 107
v -14 -12 96
v 0 -12 96
v 14 -12 96
v 14 -4 107
v 17 -6 96
v 17 3 96
v 11 7 101
v 0 9 97
v -11 7 101
v -12 7 95
v -12 6 76
v -12 -6 76
v -12 -11 93
v -17 -6 96
v 0 -9 93
v 12 -11 93
v -8 -3 122
v 2 2 118
v 2 9 114
v -13 6 116
v -17 -3 123
v -12 -13 131
v 2 -15 136
v 0 -11 129
v 7 2 119
v 15 3 118
v 6 -3 124
v 18 -3 123
v 15 -9 130
v 6 -8 129
v 4 -14 121
v 6 -14 122
v 3 -14 123
v 0 -14 122
v 4 -14 120
v 7 -12 119
v 9 -10 122
v 7 -14 124
v 2 -14 124
v 0 -15 124
v 0 -16 121
v 0 -17 118
v 1 -14 118
v 9 -6 121
v 6 -9 129
v 6 -14 126
v 2 -16 124
v 0 -14 126
v -2 -16 124
v -2 -14 124
v -1 -14 118
v -4 -14 120
v -7 -12 119
v 0 -15 118
v 0 -16 116
v -3 -14 123
v -6 -14 122
v -4 -14 121
v -9 -10 124
v -9 -8 120
v -9 -6 120
v -10 -6 121
v -10 -4 122
v -9 -6 121
v -7 -14 127
v 0 -12 129
v -3 -2 136
v -8 2 131
v -10 7 135
v -4 12 131
v 4 15 130
v 8 4 128
v 8 -1 132
v 4 -2 136
v 0 -14 116
v -7 -14 124
v 11 5 134
v 4 2 143
v -4 3 140
v 12 6 76
v -12 7 76
v 12 7 95
v 12 -6 76
v 0 -8 86
v 26 5 134
v 0 -3 150
v 0 15 120

f 1 2 3
f 1 3 4
f 5 6 7
f 5 7 8
f 9 10 1
f 9 1 11
f 9 11 12
f 9 12 13
f 9 13 12
f 9 12 11
f 9 11 1
f 9 1 10
f 14 15 16
f 14 16 17
f 14 17 15
f 15 17 16
f 18 19 20
f 18 20 21
f 18 21 22
f 18 22 23
f 18 23 22
f 18 22 21
f 18 21 20
f 18 20 19
f 24 25 26
f 24 26 27
f 24 27 25
f 25 27 26
f 25 28 29
f 25 29 30
f 31 32 33
f 31 33 34
f 35 36 37
f 35 37 38
f 35 38 39
f 35 39 40
f 35 40 41
f 35 41 42
f 35 42 36
f 43 44 45
f 43 45 46
f 43 46 47
f 43 47 48
f 43 48 49
f 43 49 37
f 37 49 50
f 37 50 51
f 37 51 52
f 37 52 38
f 38 52 53
f 38 53 54
f 38 54 39
f 39 54 55
f 39 55 40
f 40 55 56
f 40 56 57
f 40 57 41
f 41 57 58
f 41 58 59
f 41 59 42
f 42 59 60
f 60 59 61
f 60 61 62
f 62 61 63
f 62 63 64
f 64 63 65
f 64 65 44
f 44 65 45
f 45 65 66
f 45 66 67
f 45 67 46
f 46 67 68
f 46 68 47
f 47 68 69
f 47 69 70
f 47 70 52
f 47 52 48
f 48 52 51
f 48 51 71
f 48 71 72
f 48 72 73
f 48 73 49
f 49 73 50
f 50 73 74
f 50 74 51
f 51 74 75
f 51 75 71
f 71 75 76
f 71 76 77
f 71 77 78
f 71 78 72
f 72 78 79
f 72 79 80
f 72 80 73
f 73 80 81
f 73 81 82
f 73 82 74
f 74 82 83
f 74 83 84
f 74 84 75
f 75 84 85
f 75 85 86
f 75 86 76
f 76 86 87
f 76 87 88
f 76 88 77
f 77 88 78
f 78 88 89
f 78 89 79
f 79 89 90
f 79 90 91
f 79 91 92
f 79 92 93
f 79 93 94
f 79 94 80
f 80 94 81
f 81 94 93
f 81 93 82
f 82 93 95
f 82 95 96
f 82 96 83
f 83 96 85
f 83 85 84
f 97 98 99
f 97 99 100
f 97 100 101
f 97 101 102
f 97 102 103
f 97 103 104
f 97 104 103
f 97 103 102
f 97 102 101
f 97 101 100
f 97 100 99
f 97 99 98
f 98 99 105
f 98 105 99
f 99 105 106
f 99 106 105
f 105 106 107
f 105 107 106
f 106 107 108
f 106 108 107
f 107 108 109
f 107 109 108
f 109 107 110
f 109 110 103
f 109 103 110
f 109 110 107
f 104 103 110
f 104 110 103
f 111 112 113
f 111 113 114
f 111 114 115
f 111 115 112
f 112 115 116
f 112 116 117
f 112 117 118
f 112 118 119
f 112 119 113
f 113 119 114
f 114 119 120
f 114 120 121
f 114 121 122
f 114 122 123
f 114 123 115
f 115 123 116
f 116 123 59
f 116 59 58
f 116 58 117
f 117 58 124
f 117 124 54
f 117 54 53
f 117 53 125
f 117 125 126
f 117 126 118
f 118 126 127
f 118 127 119
f 119 127 120
f 120 127 128
f 120 128 129
f 120 129 130
f 120 130 114
f 120 114 121
f 121 114 122
f 122 114 131
f 131 114 132
f 131 132 133
f 131 133 63
f 131 63 134
f 134 63 135
f 134 135 59
f 134 59 123
f 114 136 137
f 114 137 138
f 114 138 132
f 132 138 137
f 132 137 133
f 133 137 139
f 133 139 140
f 133 140 63
f 63 140 65
f 65 140 141
f 65 141 66
f 66 141 142
f 66 142 143
f 66 143 67
f 67 143 68
f 68 143 142
f 68 142 144
f 68 144 139
f 68 139 145
f 68 145 146
f 68 146 147
f 68 147 148
f 68 148 69
f 69 148 149
f 69 149 150
f 69 150 151
f 69 151 70
f 70 151 152
f 70 152 52
f 52 152 53
f 53 152 153
f 53 153 125
f 125 153 154
f 125 154 146
f 125 146 126
f 126 146 128
f 126 128 127
f 155 59 135
f 155 135 63
f 155 63 61
f 155 61 59
f 156 145 139
f 156 139 137
f 156 137 130
f 156 130 129
f 156 129 145
f 145 129 128
f 145 128 146
f 137 136 130
f 130 136 114
f 141 140 139
f 141 139 144
f 141 144 142
f 124 58 57
f 124 57 56
f 124 56 54
f 54 56 55
f 157 151 158
f 157 158 151
f 159 150 149
f 159 149 147
f 159 147 158
f 159 158 150
f 150 158 151
f 151 157 152
f 152 157 153
f 153 157 158
f 153 158 154
f 154 158 147
f 154 147 146
f 147 149 148
f 160 91 161
f 160 161 162
f 160 162 86
f 160 86 163
f 163 86 96
f 163 96 164
f 163 164 92
f 92 164 93
f 93 164 95
f 95 164 96
f 88 87 162
f 88 162 161
f 88 161 90
f 88 90 89
f 86 162 87
f 161 91 90
f 86 85 96
