# RS2 Model 19131
# Vertices: 191
# Faces: 204

v -52 -32 5
v -48 -33 5
v -50 -31 5
v -55 -30 3
v -52 -36 3
v -46 -35 7
v -48 -30 3
v -39 -36 7
v -38 -34 3
v -31 -44 5
v -30 -42 3
v -26 -47 3
v -16 -44 3
v -31 -45 3
v -22 -56 3
v -42 -41 7
v -43 -43 3
v -40 -39 9
v -46 -36 5
v -48 -38 5
v -45 -41 5
v -43 -41 5
v 4 -4 24
v 4 -3 19
v 4 -1 21
v -4 -6 28
v -4 -13 20
v 2 -13 20
v 2 -6 28
v -4 4 20
v -8 -6 15
v -4 -16 5
v 2 -16 5
v 6 -6 15
v 2 4 20
v -4 6 5
v -8 1 5
v -10 -6 5
v -8 -11 5
v 2 6 5
v 6 1 5
v 8 -6 5
v 6 -11 5
v 4 -8 13
v 4 -11 15
v 4 -16 10
v 4 -13 7
v -6 -4 24
v -6 -1 21
v -6 -3 19
v -6 -11 15
v -6 -8 13
v -6 -13 7
v -6 -16 10
v 27 32 25
v 28 30 18
v 31 21 34
v 33 34 25
v 28 48 34
v 22 46 34
v 25 37 18
v 25 31 18
v 25 26 3
v 31 22 3
v 36 25 3
v 33 32 18
v 37 23 34
v 35 35 18
v 31 39 18
v 23 43 3
v 21 37 3
v 21 30 3
v 29 45 3
v 34 42 3
v 38 36 3
v 38 31 3
v -55 62 43
v -59 50 31
v -45 50 24
v -42 64 31
v -45 68 28
v -58 66 40
v -62 54 28
v -55 44 19
v -56 43 3
v -49 43 3
v -42 46 3
v -36 54 3
v -37 59 19
v -40 63 16
v -53 59 17
v -59 48 16
v -59 47 3
v -58 54 3
v -53 60 3
v -45 64 3
v -39 65 3
v -35 60 3
v -48 46 17
v -50 44 20
v -63 33 7
v -53 42 7
v -48 60 35
v -45 58 30
v -44 60 32
v -57 52 20
v -55 54 17
v -59 50 7
v -70 41 7
v -53 66 30
v -50 67 27
v -51 65 25
v -70 40 7
v -59 49 7
v -55 53 17
v -57 51 20
v -53 43 7
v -63 34 7
v -50 45 20
v -48 47 17
v 64 -67 29
v 52 -48 22
v 50 -68 23
v 51 -70 19
v 67 -70 26
v 69 -48 19
v 68 -47 23
v 51 -33 15
v 25 -26 3
v 20 -38 3
v 18 -48 3
v 28 -56 3
v 35 -62 3
v 54 -72 15
v 68 -70 21
v 72 -50 15
v 55 -24 3
v 58 -27 12
v 43 -60 19
v 42 -50 20
v 41 -50 19
v 41 -59 18
v 44 -61 20
v 46 -52 22
v 44 -50 21
v 49 -62 22
v 49 -52 24
v 47 -52 23
v 46 -61 21
v 34 -46 15
v 49 -47 21
v 39 -39 15
v 35 -41 14
v 46 -37 17
v 63 -52 26
v 60 -52 24
v 62 -57 27
v 59 -54 6
v 61 -41 3
v 62 -30 3
v 56 -53 3
v 46 -59 3
v 68 -58 15
v 67 -62 16
v 64 -58 13
v -82 -19 37
v -82 -25 31
v -90 -21 40
v -79 -20 43
v -86 0 50
v -88 1 44
v -76 -15 31
v -80 -20 30
v -86 -26 2
v -85 -32 2
v -80 -35 2
v -78 -27 35
v -88 -22 46
v -73 -24 36
v -72 -18 35
v -72 -9 2
v -77 -11 2
v -84 -18 2
v -74 -13 19
v -67 -1 24
v -66 -12 2
v -65 -18 2
v -68 -27 2
v -74 -33 2
v -62 -4 24
v -69 -16 19

f 1 2 3
f 4 5 6
f 4 6 7
f 7 6 8
f 7 8 9
f 9 8 10
f 9 10 11
f 11 10 12
f 11 12 13
f 12 14 15
f 14 12 10
f 14 10 16
f 14 16 17
f 17 16 6
f 17 6 5
f 6 18 8
f 8 18 10
f 10 18 16
f 16 18 6
f 19 20 21
f 19 21 22
f 23 24 25
f 26 27 28
f 26 28 29
f 26 29 30
f 26 30 31
f 26 31 27
f 27 31 32
f 27 32 33
f 27 33 28
f 28 33 34
f 28 34 29
f 29 34 35
f 29 35 30
f 30 35 36
f 30 36 37
f 30 37 31
f 31 37 38
f 31 38 39
f 31 39 32
f 36 35 40
f 40 35 41
f 41 35 34
f 41 34 42
f 42 34 43
f 43 34 33
f 44 45 46
f 44 46 47
f 48 49 50
f 51 52 53
f 51 53 54
f 55 56 57
f 55 57 58
f 55 58 59
f 55 59 60
f 55 60 61
f 55 61 62
f 55 62 56
f 56 62 63
f 56 63 64
f 56 64 65
f 56 65 66
f 56 66 67
f 56 67 57
f 57 67 58
f 58 67 66
f 58 66 68
f 58 68 69
f 58 69 59
f 59 69 60
f 60 69 61
f 61 69 70
f 61 70 62
f 62 70 71
f 62 71 72
f 62 72 63
f 70 69 73
f 73 69 74
f 74 69 68
f 74 68 75
f 75 68 76
f 76 68 65
f 65 68 66
f 77 78 79
f 77 79 80
f 77 80 81
f 77 81 82
f 77 82 83
f 77 83 78
f 78 83 84
f 78 84 79
f 79 84 85
f 79 85 86
f 79 86 87
f 79 87 88
f 79 88 89
f 79 89 80
f 80 89 90
f 80 90 81
f 81 90 91
f 81 91 82
f 82 91 83
f 83 91 92
f 83 92 84
f 84 92 85
f 85 92 93
f 93 92 91
f 93 91 94
f 94 91 95
f 95 91 96
f 96 91 90
f 96 90 97
f 97 90 89
f 97 89 98
f 98 89 88
f 99 100 101
f 99 101 102
f 103 104 105
f 106 107 108
f 106 108 109
f 110 111 112
f 113 114 115
f 113 115 116
f 117 118 119
f 117 119 120
f 121 122 123
f 121 123 124
f 121 124 125
f 121 125 126
f 121 126 127
f 121 127 122
f 122 127 128
f 122 128 129
f 122 129 130
f 122 130 131
f 122 131 123
f 123 131 132
f 123 132 124
f 124 132 133
f 124 133 134
f 124 134 125
f 125 134 135
f 125 135 136
f 125 136 126
f 126 136 137
f 126 137 138
f 126 138 127
f 127 138 128
f 128 138 129
f 129 138 137
f 139 140 141
f 139 141 142
f 143 144 145
f 143 145 139
f 146 147 148
f 146 148 149
f 150 151 152
f 150 152 153
f 152 151 154
f 155 156 157
f 135 134 158
f 135 158 136
f 136 158 159
f 136 159 160
f 136 160 137
f 158 161 159
f 161 158 162
f 162 158 133
f 133 158 134
f 163 164 165
f 166 167 168
f 166 168 169
f 166 169 170
f 166 170 171
f 166 171 172
f 166 172 173
f 166 173 167
f 167 173 174
f 167 174 175
f 167 175 176
f 167 176 177
f 167 177 178
f 167 178 168
f 168 178 169
f 169 178 177
f 169 177 179
f 169 179 180
f 169 180 170
f 170 180 171
f 171 180 172
f 172 180 181
f 172 181 173
f 173 181 182
f 173 182 183
f 173 183 174
f 181 184 185
f 180 186 181
f 186 180 187
f 187 180 179
f 187 179 188
f 188 179 189
f 189 179 176
f 176 179 177
f 186 190 191
