# RS2 Model 19180
# Vertices: 243
# Faces: 336

v 15 15 94
v 13 11 89
v 11 16 94
v 12 15 97
v 9 15 97
v 7 15 94
v 11 11 88
v 9 10 89
v 6 6 55
v 9 8 55
v 10 7 55
v 10 -10 108
v 16 1 108
v 16 0 112
v 12 -11 112
v 0 -14 111
v 0 -14 107
v 5 -10 103
v 13 -10 103
v 16 -4 103
v 16 5 101
v 15 8 103
v 12 12 104
v 10 9 108
v 9 8 113
v 0 10 113
v 17 9 89
v 0 9 89
v 0 13 94
v 0 12 104
v 17 -9 94
v 15 -4 58
v 3 3 55
v 0 -9 94
v -3 3 55
v -17 9 89
v -15 15 94
v -13 12 104
v -10 9 108
v 0 11 108
v -9 8 113
v -16 0 112
v -12 -11 112
v -10 -10 108
v 0 -12 103
v 7 -10 94
v 4 -2 14
v 1 4 43
v 9 10 43
v 9 8 15
v 16 -2 14
v 17 -4 45
v 10 -9 45
v 9 -8 15
v 9 -10 58
v 0 14 102
v 0 13 103
v 1 13 103
v 2 14 102
v 0 14 95
v -2 14 102
v -1 13 103
v 11 6 15
v 10 8 15
v 13 8 43
v 12 7 43
v 11 7 50
v 11 8 51
v 12 10 43
v 10 9 51
v 10 8 43
v 10 8 16
v 5 8 43
v 7 12 43
v 8 8 50
v 6 4 15
v 11 14 102
v 0 12 107
v 10 11 109
v 14 11 103
v 12 13 101
v 3 14 100
v 2 13 98
v 12 -10 93
v 8 -12 94
v 10 -10 89
v 12 -10 64
v 9 -11 55
v 13 -8 57
v 12 -9 54
v 15 -9 32
v 11 -9 16
v 12 -8 16
v 14 -11 31
v 12 -9 30
v 10 -8 16
v 8 -9 16
v 7 -12 28
v 5 -8 30
v 6 -8 16
v 11 -10 41
v 10 -9 41
v 12 -9 41
v 10 -9 30
v 8 -10 41
v 6 -9 41
v 6 -11 90
v 6 -11 64
v 6 -8 57
v 7 -8 54
v 4 -10 93
v 6 -11 96
v 8 -11 97
v 11 -10 96
v 7 -10 47
v 10 -12 46
v 10 -12 50
v 7 -10 49
v 5 -7 50
v 5 -7 46
v 10 -10 45
v 13 -10 47
v 13 -10 49
v 14 -7 50
v 10 -10 51
v 14 -7 46
v 13 -13 104
v 12 -15 104
v 11 -13 100
v 7 -13 102
v 11 -13 109
v 7 -14 111
v 5 -14 107
v 3 -13 95
v 1 -13 96
v 0 -15 106
v 0 -12 100
v -7 -13 102
v -5 -14 107
v -12 -15 104
v -3 -13 95
v -1 -13 96
v -11 -13 100
v -13 -13 104
v -11 -13 109
v -7 -14 111
v 0 13 112
v 0 11 113
v 2 11 113
v 2 13 112
v -2 13 112
v -2 11 113
v -11 16 94
v -13 11 89
v -11 11 88
v -10 7 55
v -9 8 55
v -6 6 55
v -9 10 89
v -7 15 94
v -9 15 97
v -12 15 97
v -16 1 108
v -14 -10 103
v -5 -10 103
v -7 -10 94
v -9 -10 58
v -1 4 43
v -15 -4 58
v -17 -9 94
v -17 5 101
v -16 8 103
v -4 -2 14
v -9 8 15
v -9 10 43
v -10 -9 45
v -9 -8 15
v -16 -2 14
v -17 -4 45
v -17 -4 103
v -11 6 15
v -13 8 43
v -10 8 15
v -12 10 43
v -10 8 16
v -10 8 43
v -10 9 51
v -11 8 51
v -11 7 50
v -12 7 43
v -7 12 43
v -5 8 43
v -6 4 15
v -8 8 50
v -11 14 102
v -10 11 109
v -3 14 100
v -12 13 101
v -14 12 103
v -2 13 98
v -12 -10 93
v -10 -10 89
v -8 -12 94
v -8 -11 97
v -11 -10 96
v -15 -9 32
v -12 -8 16
v -11 -9 16
v -14 -11 31
v -12 -9 41
v -11 -10 41
v -12 -9 30
v -10 -9 41
v -8 -9 16
v -5 -8 30
v -7 -12 28
v -10 -8 16
v -10 -9 30
v -8 -10 41
v -6 -9 41
v -12 -10 64
v -9 -11 55
v -6 -11 90
v -4 -10 93
v -6 -11 96
v -13 -8 57
v -12 -9 54
v -6 -11 64
v -6 -8 57
v -7 -8 54
v -6 -8 16
v -7 -10 47
v -7 -10 49
v -10 -12 50
v -10 -12 46
v -5 -7 46
v -5 -7 50
v -10 -10 51
v -14 -7 50
v -13 -10 49
v -13 -10 47
v -10 -10 45
v -14 -7 46

f 1 2 3
f 1 3 4
f 4 3 5
f 5 3 6
f 6 3 7
f 6 7 8
f 8 7 9
f 9 7 10
f 10 7 11
f 11 7 2
f 2 7 3
f 12 13 14
f 12 14 15
f 12 15 16
f 12 16 17
f 12 17 18
f 12 18 19
f 12 19 20
f 12 20 13
f 13 20 21
f 13 21 22
f 13 22 23
f 13 23 24
f 13 24 25
f 13 25 14
f 14 25 26
f 14 26 16
f 14 16 15
f 1 27 28
f 1 28 29
f 1 29 30
f 1 30 23
f 1 23 22
f 1 22 21
f 1 21 27
f 27 21 20
f 27 20 31
f 27 31 32
f 27 32 11
f 27 11 33
f 27 33 28
f 28 33 34
f 28 34 35
f 28 35 36
f 28 36 37
f 28 37 29
f 29 37 38
f 29 38 30
f 30 38 39
f 30 39 40
f 30 40 23
f 23 40 24
f 24 40 25
f 25 40 26
f 26 40 41
f 26 41 42
f 26 42 16
f 16 42 43
f 16 43 44
f 16 44 17
f 17 44 45
f 17 45 18
f 18 45 34
f 18 34 46
f 18 46 19
f 19 46 31
f 19 31 20
f 47 48 49
f 47 49 50
f 50 49 51
f 51 49 52
f 51 52 53
f 51 53 54
f 54 53 47
f 47 53 48
f 48 53 55
f 48 55 33
f 48 33 11
f 48 11 49
f 49 11 52
f 52 11 32
f 52 32 55
f 52 55 53
f 46 34 55
f 46 55 32
f 46 32 31
f 34 33 55
f 56 57 58
f 56 58 59
f 56 59 60
f 56 60 61
f 56 61 62
f 56 62 57
f 58 60 59
f 63 64 65
f 63 65 66
f 66 65 67
f 67 65 68
f 68 65 69
f 68 69 70
f 70 69 71
f 71 69 72
f 72 69 64
f 64 69 65
f 50 73 74
f 50 74 72
f 72 74 49
f 49 74 70
f 70 74 75
f 75 74 73
f 50 76 73
f 77 78 79
f 77 79 80
f 77 80 81
f 77 81 82
f 77 82 78
f 78 82 83
f 83 82 81
f 84 85 86
f 86 85 87
f 87 85 88
f 87 88 89
f 89 88 90
f 91 92 93
f 92 91 94
f 92 94 95
f 92 95 96
f 97 98 99
f 97 99 100
f 95 94 101
f 95 101 102
f 103 101 94
f 103 94 91
f 97 96 98
f 98 96 104
f 98 104 105
f 98 105 106
f 98 106 99
f 85 107 88
f 88 107 108
f 88 108 109
f 88 109 110
f 111 85 112
f 112 85 113
f 113 85 84
f 113 84 114
f 111 107 85
f 104 102 105
f 115 116 117
f 115 117 118
f 115 118 119
f 115 119 120
f 115 120 116
f 116 120 121
f 116 121 122
f 116 122 123
f 116 123 117
f 117 123 124
f 117 124 125
f 117 125 118
f 118 125 119
f 126 124 123
f 126 123 122
f 126 122 121
f 127 128 129
f 127 129 130
f 127 130 131
f 127 131 128
f 128 131 132
f 128 132 133
f 128 133 130
f 128 130 134
f 128 134 129
f 129 134 130
f 130 134 135
f 130 135 134
f 136 133 132
f 136 132 130
f 136 130 133
f 130 136 137
f 130 137 136
f 136 137 138
f 136 138 137
f 138 136 139
f 138 139 140
f 138 140 141
f 138 141 142
f 138 142 141
f 138 141 143
f 138 143 144
f 138 144 136
f 136 144 145
f 136 145 146
f 136 146 139
f 139 146 140
f 140 146 145
f 140 145 144
f 140 144 143
f 140 143 141
f 147 148 149
f 147 149 150
f 147 150 78
f 147 78 151
f 147 151 152
f 147 152 148
f 149 78 150
f 37 153 154
f 154 153 155
f 154 155 156
f 156 155 157
f 157 155 158
f 158 155 159
f 159 155 160
f 160 155 153
f 160 153 161
f 161 153 162
f 162 153 37
f 44 43 42
f 44 42 163
f 44 163 164
f 44 164 165
f 44 165 45
f 45 165 34
f 34 165 166
f 34 166 167
f 34 167 35
f 35 167 168
f 35 168 156
f 35 156 36
f 36 156 169
f 36 169 170
f 36 170 171
f 36 171 172
f 36 172 37
f 37 172 38
f 38 172 39
f 39 172 163
f 39 163 41
f 39 41 40
f 173 174 175
f 173 175 168
f 173 168 176
f 173 176 177
f 177 176 178
f 178 176 179
f 178 179 175
f 178 175 174
f 168 175 156
f 156 175 179
f 156 179 169
f 169 179 167
f 169 167 166
f 169 166 170
f 170 166 164
f 170 164 180
f 170 180 171
f 171 180 163
f 171 163 172
f 179 176 167
f 167 176 168
f 62 61 60
f 181 182 183
f 183 182 184
f 183 184 185
f 185 184 186
f 186 184 187
f 187 184 188
f 188 184 182
f 188 182 189
f 189 182 190
f 190 182 181
f 174 191 192
f 174 192 193
f 174 185 191
f 191 185 175
f 191 175 187
f 191 187 194
f 191 194 192
f 195 196 78
f 195 78 197
f 195 197 198
f 195 198 199
f 195 199 196
f 78 200 197
f 197 200 198
f 201 202 203
f 201 203 204
f 201 204 205
f 206 207 208
f 206 208 209
f 206 209 210
f 210 209 211
f 211 209 212
f 211 212 213
f 214 215 216
f 214 216 217
f 217 216 218
f 218 216 219
f 218 219 213
f 216 220 219
f 220 216 215
f 203 221 222
f 203 222 223
f 203 223 224
f 203 224 225
f 203 225 204
f 222 221 226
f 222 226 227
f 222 228 223
f 228 222 229
f 229 222 230
f 221 203 202
f 212 209 208
f 212 208 217
f 214 231 215
f 232 233 234
f 232 234 235
f 232 235 236
f 232 236 237
f 232 237 233
f 233 237 238
f 233 238 234
f 234 238 239
f 234 239 240
f 234 240 235
f 235 240 241
f 235 241 242
f 235 242 236
f 243 241 240
f 243 240 239
f 242 241 243
f 152 151 78
f 163 42 41
f 130 132 131
f 163 180 164
f 164 166 165
