# RS2 Model 19185
# Vertices: 61
# Faces: 106

v 27 11 56
v 31 8 55
v 28 5 55
v 24 5 55
v 27 10 59
v 35 10 59
v 35 11 56
v 34 5 55
v 32 6 50
v 31 7 50
v 30 6 50
v 31 2 54
v 27 -2 54
v 27 -3 57
v 24 4 58
v 26 9 67
v 36 9 67
v 38 4 58
v 38 5 55
v 31 5 50
v 35 -2 54
v 35 -3 57
v 35 -5 65
v 26 -5 65
v 23 3 66
v 27 7 74
v 35 7 74
v 39 3 66
v 27 -6 72
v 24 1 73
v 24 0 77
v 27 6 78
v 35 6 78
v 38 1 73
v 35 -5 72
v 35 -6 76
v 27 -7 76
v 29 -3 78
v 28 1 79
v 29 4 78
v 33 4 79
v 38 0 77
v 35 0 79
v 33 -3 78
v 33 -1 78
v 29 -1 78
v 29 -1 76
v 29 -3 75
v 27 1 76
v 29 5 76
v 29 2 78
v 32 2 79
v 32 3 76
v 33 5 76
v 35 1 76
v 33 -3 75
v 33 -1 76
v 29 3 76
v 21 -7 70
v 38 -7 70
v 21 11 73

f 1 2 3
f 1 3 4
f 1 4 5
f 1 5 6
f 1 6 7
f 1 7 2
f 2 7 8
f 2 8 9
f 2 9 10
f 2 10 3
f 3 10 11
f 3 11 12
f 3 12 4
f 4 12 13
f 4 13 14
f 4 14 15
f 4 15 5
f 5 15 16
f 5 16 6
f 6 16 17
f 6 17 18
f 6 18 19
f 6 19 7
f 7 19 8
f 8 19 12
f 8 12 20
f 8 20 9
f 9 20 11
f 9 11 10
f 19 21 12
f 12 21 13
f 13 21 22
f 13 22 14
f 14 22 23
f 14 23 24
f 14 24 25
f 14 25 15
f 15 25 16
f 16 25 26
f 16 26 17
f 17 26 27
f 17 27 28
f 17 28 18
f 18 28 22
f 18 22 21
f 18 21 19
f 24 29 30
f 24 30 25
f 25 30 26
f 26 30 31
f 26 31 32
f 26 32 33
f 26 33 27
f 27 33 34
f 27 34 28
f 28 34 23
f 28 23 22
f 34 35 23
f 23 35 24
f 24 35 29
f 29 35 36
f 29 36 37
f 29 37 30
f 30 37 31
f 31 37 38
f 31 38 39
f 31 39 32
f 32 39 40
f 32 40 33
f 33 40 41
f 33 41 42
f 33 42 34
f 34 42 35
f 35 42 36
f 36 42 43
f 36 43 44
f 36 44 37
f 37 44 38
f 38 44 45
f 38 45 46
f 38 46 47
f 38 47 48
f 38 48 39
f 39 48 49
f 39 49 40
f 40 49 50
f 40 50 51
f 40 51 41
f 41 51 52
f 41 52 53
f 41 53 54
f 41 54 43
f 41 43 42
f 11 20 12
f 43 54 55
f 43 55 44
f 44 55 56
f 44 56 45
f 45 56 57
f 57 56 55
f 57 55 53
f 53 55 54
f 49 48 47
f 49 47 58
f 49 58 50
f 50 58 51
