# RS2 Model 19197
# Vertices: 193
# Faces: 340

v 8 -7 117
v 14 3 114
v 14 2 119
v 10 11 115
v 8 10 119
v 0 13 115
v 0 12 119
v -8 10 119
v -9 11 115
v -14 2 119
v -14 3 114
v -8 -7 117
v -9 -8 114
v 0 -9 116
v 0 -12 113
v 9 -8 114
v 12 -3 113
v 16 2 112
v 13 6 112
v 10 11 112
v 5 13 111
v 0 15 111
v -5 13 111
v -11 11 112
v -13 6 112
v -16 2 112
v -12 -3 113
v -9 -9 110
v -4 -10 110
v 4 -10 110
v 9 -9 110
v 13 -4 109
v 16 2 105
v 14 6 104
v 12 11 104
v 6 13 104
v 0 15 104
v -6 13 104
v -13 11 104
v -14 6 104
v -16 2 105
v -13 -4 109
v -10 -10 106
v -5 -11 106
v 0 -12 106
v 5 -11 106
v 10 -10 106
v 10 -9 102
v 13 -3 103
v 13 -3 99
v 16 2 99
v 15 7 98
v 15 12 97
v 7 14 97
v 0 16 97
v -7 14 97
v -15 12 97
v -15 7 97
v -16 2 98
v -13 -10 99
v 4 -13 99
v -5 17 59
v 4 17 59
v 4 18 39
v -5 18 39
v -20 14 34
v -19 11 59
v -5 15 71
v 4 15 71
v 18 11 59
v 21 11 33
v 4 18 32
v -5 18 32
v -17 15 28
v -22 12 26
v -24 2 31
v -20 2 61
v -17 11 71
v 16 11 71
v 20 2 61
v 23 2 43
v 24 2 37
v 22 12 26
v 17 15 28
v 4 19 21
v -5 19 21
v -17 17 20
v -23 11 20
v -26 2 24
v -22 -11 29
v -20 -10 36
v -18 -14 62
v -19 2 73
v 17 -16 41
v 21 -10 36
v 25 2 26
v 23 11 20
v 17 17 20
v 17 17 14
v 4 20 18
v -5 20 18
v -18 17 12
v -22 14 13
v -26 2 20
v -23 -11 20
v -13 -19 22
v -15 -18 33
v -16 -17 40
v -5 -20 40
v 0 -18 62
v -5 -16 71
v -14 -14 68
v -15 -13 75
v 13 -19 22
v 3 -20 22
v 3 -24 17
v 12 -23 14
v 23 -11 23
v 16 -18 33
v 3 -21 30
v -4 -23 21
v 22 -10 12
v 2 -20 35
v -5 -21 35
v -12 -23 18
v -12 -23 17
v -5 -22 14
v 26 2 18
v 22 14 12
v 18 17 4
v 4 20 14
v -5 20 14
v -10 14 9
v -17 17 5
v -22 14 8
v -24 8 11
v -27 2 14
v -24 -10 16
v -20 -14 11
v 18 2 73
v 15 -13 75
v 17 -14 62
v 14 -10 99
v 0 -17 75
v 7 -17 52
v 10 -16 52
v 5 -18 46
v 13 -16 46
v 9 -18 43
v 8 -23 9
v 26 -2 12
v 24 8 11
v -23 11 5
v -12 -14 80
v -4 -16 75
v -5 -16 82
v -6 -15 88
v -9 -15 88
v -13 -10 98
v -6 -12 92
v -9 -12 94
v -8 -10 55
v -16 0 55
v -17 1 46
v -9 -8 45
v -3 1 55
v -2 2 44
v -8 9 55
v -9 11 45
v -8 -7 30
v -2 2 30
v -8 14 30
v -15 2 30
v -13 2 19
v -8 -7 19
v -5 2 19
v -8 9 19
v 8 -10 55
v 17 1 46
v 16 0 55
v 8 9 55
v 9 11 45
v 2 2 44
v 3 1 55
v 9 -8 45
v 8 -7 30
v 15 2 30
v 8 14 30
v 2 2 30
v 8 -2 19
v 13 2 19
v 8 9 19
v 5 2 19

f 1 2 3
f 3 2 4
f 3 4 5
f 5 4 6
f 5 6 7
f 7 6 8
f 8 6 9
f 8 9 10
f 10 9 11
f 10 11 12
f 12 11 13
f 12 13 14
f 14 13 15
f 14 15 16
f 14 16 1
f 1 16 2
f 2 16 17
f 2 17 18
f 2 18 19
f 2 19 20
f 2 20 4
f 4 20 21
f 4 21 22
f 4 22 6
f 6 22 9
f 9 22 23
f 9 23 24
f 9 24 11
f 11 24 25
f 11 25 26
f 11 26 27
f 11 27 13
f 13 27 28
f 13 28 29
f 13 29 15
f 15 29 30
f 15 30 16
f 16 30 31
f 16 31 17
f 17 31 32
f 17 32 18
f 18 32 33
f 18 33 34
f 18 34 19
f 19 34 35
f 19 35 20
f 20 35 36
f 20 36 21
f 21 36 37
f 21 37 22
f 22 37 23
f 23 37 38
f 23 38 24
f 24 38 39
f 24 39 25
f 25 39 40
f 25 40 26
f 26 40 41
f 26 41 42
f 26 42 27
f 27 42 28
f 28 42 43
f 28 43 44
f 28 44 29
f 29 44 45
f 29 45 30
f 30 45 46
f 30 46 31
f 31 46 47
f 31 47 32
f 32 47 48
f 32 48 49
f 32 49 33
f 33 49 50
f 33 50 51
f 33 51 52
f 33 52 34
f 34 52 53
f 34 53 35
f 35 53 54
f 35 54 36
f 36 54 55
f 36 55 37
f 37 55 38
f 38 55 56
f 38 56 39
f 39 56 57
f 39 57 40
f 40 57 58
f 40 58 41
f 41 58 59
f 41 59 60
f 41 60 42
f 42 60 43
f 43 60 44
f 44 60 61
f 44 61 45
f 45 61 46
f 46 61 48
f 46 48 47
f 62 63 64
f 62 64 65
f 62 65 66
f 62 66 67
f 62 67 68
f 62 68 69
f 62 69 63
f 63 69 70
f 63 70 71
f 63 71 64
f 64 71 72
f 64 72 73
f 64 73 65
f 65 73 66
f 66 73 74
f 66 74 75
f 66 75 76
f 66 76 67
f 67 76 77
f 67 77 78
f 67 78 68
f 68 78 56
f 68 56 55
f 68 55 69
f 69 55 54
f 69 54 79
f 69 79 70
f 70 79 80
f 70 80 81
f 70 81 71
f 71 81 82
f 71 82 83
f 71 83 84
f 71 84 72
f 72 84 85
f 72 85 86
f 72 86 73
f 73 86 74
f 74 86 87
f 74 87 75
f 75 87 88
f 75 88 89
f 75 89 76
f 76 89 90
f 76 90 91
f 76 91 77
f 77 91 92
f 77 92 93
f 77 93 78
f 78 93 58
f 78 58 57
f 78 57 56
f 81 94 95
f 81 95 82
f 82 95 96
f 82 96 83
f 83 96 97
f 83 97 98
f 83 98 84
f 84 98 85
f 85 98 99
f 85 99 100
f 85 100 86
f 86 100 101
f 86 101 102
f 86 102 87
f 87 102 103
f 87 103 88
f 88 103 104
f 88 104 89
f 89 104 105
f 89 105 90
f 90 105 106
f 90 106 107
f 90 107 91
f 91 107 108
f 91 108 92
f 92 108 109
f 92 109 110
f 92 110 111
f 92 111 112
f 92 112 113
f 92 113 93
f 93 113 60
f 93 60 59
f 93 59 58
f 114 115 116
f 114 116 117
f 114 117 118
f 114 118 119
f 114 119 120
f 114 120 115
f 115 120 121
f 115 121 116
f 118 117 122
f 118 122 96
f 118 96 95
f 118 95 119
f 119 95 94
f 119 94 123
f 119 123 120
f 120 123 124
f 120 124 121
f 121 124 107
f 121 107 106
f 121 106 125
f 121 125 126
f 121 126 127
f 122 128 96
f 96 128 129
f 96 129 97
f 97 129 98
f 98 129 99
f 99 129 130
f 99 130 131
f 99 131 100
f 100 131 101
f 101 131 132
f 101 132 102
f 102 132 133
f 102 133 134
f 102 134 103
f 103 134 135
f 103 135 136
f 103 136 137
f 103 137 104
f 104 137 138
f 104 138 105
f 105 138 106
f 106 138 125
f 125 138 126
f 126 138 139
f 140 141 142
f 140 142 80
f 140 80 79
f 140 79 52
f 140 52 51
f 140 51 50
f 140 50 141
f 141 50 143
f 141 143 61
f 141 61 144
f 141 144 142
f 142 144 110
f 142 110 145
f 142 145 146
f 142 146 94
f 142 94 80
f 80 94 81
f 107 124 109
f 107 109 108
f 110 109 123
f 110 123 147
f 110 147 145
f 145 147 146
f 146 147 148
f 146 148 94
f 94 148 149
f 94 149 123
f 123 149 147
f 147 149 148
f 123 109 124
f 117 116 150
f 128 122 151
f 129 128 152
f 136 135 153
f 154 113 155
f 154 155 156
f 154 156 157
f 154 157 158
f 154 158 159
f 154 159 60
f 154 60 113
f 110 144 111
f 111 144 155
f 111 155 113
f 111 113 112
f 160 161 158
f 160 158 157
f 160 157 156
f 160 156 61
f 160 61 60
f 160 60 159
f 160 159 161
f 161 159 158
f 156 155 144
f 156 144 61
f 162 163 164
f 162 164 165
f 162 165 166
f 166 165 167
f 166 167 168
f 168 167 169
f 168 169 164
f 168 164 163
f 164 170 165
f 165 170 171
f 165 171 167
f 167 171 172
f 167 172 169
f 169 172 173
f 169 173 164
f 164 173 170
f 170 173 174
f 170 174 175
f 170 175 171
f 171 175 176
f 171 176 172
f 172 176 177
f 172 177 173
f 173 177 174
f 178 179 180
f 180 179 181
f 181 179 182
f 181 182 183
f 181 183 184
f 184 183 185
f 184 185 178
f 178 185 179
f 179 185 186
f 179 186 187
f 179 187 182
f 182 187 188
f 182 188 183
f 183 188 189
f 183 189 185
f 185 189 186
f 186 189 190
f 186 190 191
f 186 191 187
f 187 191 192
f 187 192 188
f 188 192 193
f 188 193 189
f 189 193 190
f 49 48 143
f 49 143 50
f 54 53 79
f 79 53 52
f 61 143 48
