# RS2 Model 19216
# Vertices: 209
# Faces: 340

v -6 5 240
v 6 2 240
v 2 2 160
v -10 5 160
v -11 -5 240
v -15 -5 160
v -1 -15 240
v -5 -15 160
v 9 -9 240
v 5 -9 160
v 5 -9 69
v 2 2 69
v -10 5 69
v -15 -5 69
v -5 -15 69
v -5 -15 0
v 5 -9 0
v 2 2 0
v -10 5 0
v -15 -5 0
v 16 11 240
v 26 8 240
v 40 8 160
v 30 11 160
v 12 3 240
v 26 3 160
v 20 -5 240
v 34 -5 160
v 28 0 240
v 42 0 160
v 47 10 69
v 46 16 69
v 38 18 69
v 35 12 69
v 41 6 69
v 35 6 13
v 41 11 20
v 39 15 18
v 33 18 11
v 30 12 7
v 46 12 -2
v 47 6 5
v 47 11 14
v 47 15 11
v 47 18 4
v 59 12 20
v 17 -31 240
v 27 -34 240
v 15 -40 160
v 5 -37 160
v 12 -40 240
v 0 -46 160
v 21 -49 240
v 9 -55 160
v 30 -43 240
v 18 -49 160
v 15 -31 69
v 12 -22 69
v 2 -19 69
v -3 -28 69
v 6 -37 69
v 16 -37 0
v 25 -31 0
v 22 -22 0
v 12 -19 0
v 7 -28 0
v 37 15 240
v 22 18 240
v 13 18 160
v 28 15 160
v 43 27 240
v 34 27 160
v 37 39 240
v 28 39 160
v 22 35 240
v 13 35 160
v 5 25 69
v 5 8 69
v 20 5 69
v 26 17 69
v 20 29 69
v 20 29 0
v 5 25 0
v 5 8 0
v 20 5 0
v 26 17 0
v -16 -5 240
v -18 -13 240
v -30 0 160
v -28 8 160
v -24 0 240
v -36 13 160
v -32 -5 240
v -44 8 160
v -30 -13 240
v -42 0 160
v -60 -16 69
v -48 -16 69
v -46 -8 69
v -54 -3 69
v -62 -8 69
v -42 -28 19
v -40 -34 19
v -31 -34 16
v -29 -28 16
v -35 -23 17
v -44 -23 4
v -48 -28 11
v -47 -34 9
v -42 -34 1
v -41 -28 0
v -63 -29 10
v -7 47 240
v -9 40 240
v 4 40 160
v 6 47 160
v -14 52 240
v -1 52 160
v -21 47 240
v -8 47 160
v -19 40 240
v -6 40 160
v -6 31 69
v 4 31 69
v 6 38 69
v -1 43 69
v -8 38 69
v -10 31 22
v -8 24 22
v 2 24 22
v 4 31 22
v -3 36 22
v -3 38 14
v -10 36 10
v -8 32 4
v 2 32 4
v 4 36 10
v 2 49 13
v -3 51 17
v -8 49 13
v -7 47 9
v 1 47 9
v -3 62 1
v 1 -37 240
v -11 -34 240
v 10 -25 160
v 22 -28 160
v 6 -31 240
v 27 -22 160
v 3 -20 240
v 24 -11 160
v -11 -20 240
v 10 -11 160
v 24 -21 66
v 24 -32 66
v 34 -35 66
v 39 -29 66
v 36 -21 66
v 34 -38 11
v 26 -38 11
v 24 -44 18
v 34 -46 21
v 39 -42 15
v 38 -52 11
v 33 -53 4
v 27 -53 4
v 25 -52 14
v 34 -51 18
v 31 -64 21
v -40 -14 240
v -53 -18 240
v -48 -36 160
v -35 -32 160
v -40 0 240
v -35 -18 160
v -53 4 240
v -48 -14 160
v -59 -7 240
v -54 -25 160
v -42 -16 69
v -36 -27 69
v -23 -23 69
v -23 -9 69
v -36 -5 69
v -29 6 0
v -35 -5 0
v -29 -16 0
v -16 -12 0
v -16 2 0
v -6 39 240
v 4 36 240
v -6 26 160
v -16 29 160
v -10 31 240
v -20 21 160
v -2 23 240
v -12 13 160
v 6 28 240
v -4 18 160
v -12 24 69
v -14 32 69
v -24 35 69
v -28 27 69
v -20 19 69
v -20 27 0
v -12 32 0
v -14 40 0
v -24 43 0
v -28 35 0

f 1 2 3
f 1 3 4
f 1 4 5
f 5 4 6
f 5 6 7
f 7 6 8
f 7 8 9
f 9 8 10
f 9 10 2
f 2 10 3
f 3 10 11
f 3 11 12
f 3 12 4
f 4 12 13
f 4 13 6
f 6 13 14
f 6 14 8
f 8 14 15
f 8 15 10
f 10 15 11
f 11 15 16
f 11 16 17
f 11 17 12
f 12 17 18
f 12 18 13
f 13 18 19
f 13 19 14
f 14 19 20
f 14 20 15
f 15 20 16
f 21 22 23
f 21 23 24
f 21 24 25
f 25 24 26
f 25 26 27
f 27 26 28
f 27 28 29
f 29 28 30
f 29 30 22
f 22 30 23
f 23 30 31
f 23 31 32
f 23 32 24
f 24 32 33
f 24 33 26
f 26 33 34
f 26 34 28
f 28 34 35
f 28 35 30
f 30 35 31
f 31 35 36
f 31 36 37
f 31 37 32
f 32 37 38
f 32 38 33
f 33 38 39
f 33 39 34
f 34 39 40
f 34 40 35
f 35 40 36
f 36 40 41
f 36 41 42
f 36 42 37
f 37 42 43
f 37 43 38
f 38 43 44
f 38 44 39
f 39 44 45
f 39 45 40
f 40 45 41
f 41 45 46
f 41 46 42
f 42 46 43
f 43 46 44
f 44 46 45
f 47 48 49
f 47 49 50
f 47 50 51
f 51 50 52
f 51 52 53
f 53 52 54
f 53 54 55
f 55 54 56
f 55 56 48
f 48 56 49
f 49 56 57
f 49 57 58
f 49 58 50
f 50 58 59
f 50 59 52
f 52 59 60
f 52 60 54
f 54 60 61
f 54 61 56
f 56 61 57
f 57 61 62
f 57 62 63
f 57 63 58
f 58 63 64
f 58 64 59
f 59 64 65
f 59 65 60
f 60 65 66
f 60 66 61
f 61 66 62
f 67 68 69
f 67 69 70
f 67 70 71
f 71 70 72
f 71 72 73
f 73 72 74
f 73 74 75
f 75 74 76
f 75 76 68
f 68 76 69
f 69 76 77
f 69 77 78
f 69 78 70
f 70 78 79
f 70 79 72
f 72 79 80
f 72 80 74
f 74 80 81
f 74 81 76
f 76 81 77
f 77 81 82
f 77 82 83
f 77 83 78
f 78 83 84
f 78 84 79
f 79 84 85
f 79 85 80
f 80 85 86
f 80 86 81
f 81 86 82
f 87 88 89
f 87 89 90
f 87 90 91
f 91 90 92
f 91 92 93
f 93 92 94
f 93 94 95
f 95 94 96
f 95 96 88
f 88 96 89
f 89 96 97
f 89 97 98
f 89 98 90
f 90 98 99
f 90 99 92
f 92 99 100
f 92 100 94
f 94 100 101
f 94 101 96
f 96 101 97
f 97 101 102
f 97 102 103
f 97 103 98
f 98 103 104
f 98 104 99
f 99 104 105
f 99 105 100
f 100 105 106
f 100 106 101
f 101 106 102
f 102 106 107
f 102 107 108
f 102 108 103
f 103 108 109
f 103 109 104
f 104 109 110
f 104 110 105
f 105 110 111
f 105 111 106
f 106 111 107
f 107 111 112
f 107 112 108
f 108 112 109
f 109 112 110
f 110 112 111
f 113 114 115
f 113 115 116
f 113 116 117
f 117 116 118
f 117 118 119
f 119 118 120
f 119 120 121
f 121 120 122
f 121 122 114
f 114 122 115
f 115 122 123
f 115 123 124
f 115 124 116
f 116 124 125
f 116 125 118
f 118 125 126
f 118 126 120
f 120 126 127
f 120 127 122
f 122 127 123
f 123 127 128
f 123 128 129
f 123 129 124
f 124 129 130
f 124 130 125
f 125 130 131
f 125 131 126
f 126 131 132
f 126 132 127
f 127 132 128
f 128 132 133
f 128 133 134
f 128 134 129
f 129 134 135
f 129 135 130
f 130 135 136
f 130 136 131
f 131 136 137
f 131 137 132
f 132 137 133
f 133 137 138
f 133 138 139
f 133 139 134
f 134 139 140
f 134 140 135
f 135 140 141
f 135 141 136
f 136 141 142
f 136 142 137
f 137 142 138
f 138 142 143
f 138 143 139
f 139 143 140
f 140 143 141
f 141 143 142
f 144 145 146
f 144 146 147
f 144 147 148
f 148 147 149
f 148 149 150
f 150 149 151
f 150 151 152
f 152 151 153
f 152 153 145
f 145 153 146
f 146 153 154
f 146 154 155
f 146 155 147
f 147 155 156
f 147 156 149
f 149 156 157
f 149 157 151
f 151 157 158
f 151 158 153
f 153 158 154
f 154 158 159
f 154 159 160
f 154 160 155
f 155 160 161
f 155 161 156
f 156 161 162
f 156 162 157
f 157 162 163
f 157 163 158
f 158 163 159
f 159 163 164
f 159 164 165
f 159 165 160
f 160 165 166
f 160 166 161
f 161 166 167
f 161 167 162
f 162 167 168
f 162 168 163
f 163 168 164
f 164 168 169
f 164 169 165
f 165 169 166
f 166 169 167
f 167 169 168
f 170 171 172
f 170 172 173
f 170 173 174
f 174 173 175
f 174 175 176
f 176 175 177
f 176 177 178
f 178 177 179
f 178 179 171
f 171 179 172
f 172 179 180
f 172 180 181
f 172 181 173
f 173 181 182
f 173 182 175
f 175 182 183
f 175 183 177
f 177 183 184
f 177 184 179
f 179 184 180
f 180 184 185
f 180 185 186
f 180 186 181
f 181 186 187
f 181 187 182
f 182 187 188
f 182 188 183
f 183 188 189
f 183 189 184
f 184 189 185
f 190 191 192
f 190 192 193
f 190 193 194
f 194 193 195
f 194 195 196
f 196 195 197
f 196 197 198
f 198 197 199
f 198 199 191
f 191 199 192
f 192 199 200
f 192 200 201
f 192 201 193
f 193 201 202
f 193 202 195
f 195 202 203
f 195 203 197
f 197 203 204
f 197 204 199
f 199 204 200
f 200 204 205
f 200 205 206
f 200 206 201
f 201 206 207
f 201 207 202
f 202 207 208
f 202 208 203
f 203 208 209
f 203 209 204
f 204 209 205
