# RS2 Model 19274
# Vertices: 164
# Faces: 277

v -30 -75 111
v -32 -76 121
v -32 -47 121
v -31 -48 111
v -11 -28 121
v -10 -31 111
v 18 -28 121
v 17 -30 111
v 36 -49 121
v 34 -50 111
v 36 -77 121
v 35 -77 111
v 15 -97 121
v 14 -94 111
v -13 -96 121
v -13 -95 111
v 17 -29 163
v 17 -30 172
v 34 -50 172
v 36 -49 163
v 35 -77 172
v 36 -77 163
v 14 -94 172
v 15 -97 163
v -13 -95 172
v -13 -96 163
v -30 -75 172
v -32 -76 163
v -31 -48 172
v -32 -47 163
v -10 -31 172
v -11 -28 163
v 17 -69 187
v 18 -56 187
v 2 -62 187
v 8 -78 187
v 10 -82 187
v 21 -71 187
v 22 -55 187
v 9 -48 187
v -4 -47 187
v -13 -56 187
v -14 -69 187
v -4 -77 187
v -6 -82 187
v -8 -84 187
v 11 -85 187
v 24 -72 187
v 25 -54 187
v 11 -43 187
v -6 -43 187
v -17 -54 187
v -18 -70 187
v -20 -71 187
v -19 -73 191
v -8 -84 191
v 11 -85 191
v 24 -73 191
v 32 -76 172
v 28 -73 191
v 24 -71 191
v 25 -54 191
v 12 -40 187
v -7 -40 187
v -20 -53 187
v -21 -70 191
v -28 -74 172
v -24 -74 191
v -10 -90 191
v -10 -90 193
v -8 -84 193
v 11 -85 193
v 13 -90 191
v 27 -75 191
v 14 -93 172
v 32 -51 172
v 30 -52 191
v -11 -93 172
v 16 -32 172
v 14 -35 191
v 14 -35 193
v 28 -52 193
v 25 -54 193
v 12 -40 191
v -4 -40 191
v -10 -32 172
v -9 -37 191
v -8 -40 191
v -20 -53 191
v -25 -50 191
v -25 -70 191
v -28 -49 172
v -5 -35 191
v 12 -40 193
v 34 -50 121
v 34 -77 121
v 14 -94 121
v -12 -94 121
v -30 -75 121
v -30 -48 121
v -10 -31 121
v 16 -30 121
v 35 -47 142
v 30 -51 142
v 37 -51 142
v 36 -77 142
v 15 -97 142
v -13 -95 142
v -11 -92 142
v -32 -76 142
v -31 -49 142
v -27 -49 142
v -31 -48 142
v -11 -28 142
v 17 -29 142
v 16 -30 157
v 34 -50 157
v 34 -77 158
v 14 -94 158
v -12 -94 158
v -30 -75 158
v -30 -48 158
v -10 -31 157
v 12 -89 193
v 14 -35 94
v -9 -35 94
v -10 -32 106
v 16 -32 106
v 14 -35 106
v 13 -39 94
v 15 -35 94
v 32 -51 106
v 30 -52 94
v 30 -75 94
v 32 -76 106
v 13 -90 94
v 14 -93 106
v -10 -90 94
v -11 -93 106
v -26 -73 94
v -28 -74 106
v -25 -50 94
v -28 -49 106
v 16 -32 111
v 32 -76 111
v -11 -93 111
v -28 -49 111
v 14 -94 163
v -12 -93 163
v -30 -75 163
v -29 -49 163
v -10 -31 163
v 16 -31 163
v 34 -50 163
v 33 -76 163
v 19 -48 191
v -9 -45 191
v 16 -79 191
v -12 -83 187
v 17 -83 187
v -13 -38 187
v 36 -27 146
v -31 -27 146
v 36 -96 146

f 1 2 3
f 1 3 4
f 4 3 5
f 4 5 6
f 6 5 7
f 6 7 8
f 8 7 9
f 8 9 10
f 10 9 11
f 10 11 12
f 12 11 13
f 12 13 14
f 14 13 15
f 14 15 16
f 16 15 2
f 16 2 1
f 17 18 19
f 17 19 20
f 20 19 21
f 20 21 22
f 22 21 23
f 22 23 24
f 24 23 25
f 24 25 26
f 26 25 27
f 26 27 28
f 28 27 29
f 28 29 30
f 30 29 31
f 30 31 32
f 32 31 18
f 32 18 17
f 33 34 35
f 33 35 36
f 33 36 37
f 33 37 38
f 33 38 34
f 34 38 39
f 34 39 40
f 34 40 35
f 35 40 41
f 35 41 42
f 35 42 43
f 35 43 44
f 35 44 36
f 36 44 45
f 36 45 37
f 37 45 46
f 37 46 47
f 37 47 38
f 38 47 48
f 38 48 39
f 39 48 49
f 39 49 50
f 39 50 40
f 40 50 41
f 41 50 51
f 41 51 42
f 42 51 52
f 42 52 43
f 43 52 53
f 43 53 44
f 44 53 45
f 45 53 54
f 45 54 46
f 46 54 55
f 46 55 56
f 46 56 47
f 47 56 57
f 47 57 58
f 47 58 48
f 48 58 59
f 48 59 60
f 48 60 61
f 48 61 49
f 49 61 62
f 49 62 63
f 49 63 50
f 50 63 51
f 51 63 64
f 51 64 52
f 52 64 65
f 52 65 53
f 53 65 54
f 54 65 66
f 54 66 67
f 54 67 68
f 54 68 55
f 55 68 56
f 56 68 69
f 56 69 70
f 56 70 71
f 56 71 57
f 57 71 72
f 57 72 73
f 57 73 58
f 58 73 74
f 58 74 59
f 59 74 75
f 59 75 23
f 59 23 21
f 59 21 76
f 59 76 60
f 60 76 77
f 60 77 62
f 60 62 61
f 78 67 27
f 78 27 25
f 78 25 75
f 78 75 69
f 78 69 68
f 78 68 67
f 25 23 75
f 21 19 76
f 76 19 79
f 76 79 77
f 77 79 80
f 77 80 81
f 77 81 82
f 77 82 62
f 62 82 83
f 62 83 84
f 62 84 63
f 63 84 85
f 63 85 64
f 64 85 86
f 64 86 87
f 64 87 88
f 64 88 65
f 65 88 89
f 65 89 66
f 66 89 90
f 66 90 91
f 66 91 67
f 67 91 92
f 67 92 29
f 67 29 27
f 19 18 79
f 79 18 86
f 79 86 93
f 79 93 80
f 80 93 85
f 80 85 84
f 80 84 94
f 80 94 81
f 81 94 82
f 82 94 83
f 83 94 84
f 18 31 86
f 86 31 92
f 86 92 87
f 87 92 90
f 87 90 89
f 87 89 88
f 31 29 92
f 11 9 95
f 11 95 96
f 11 96 13
f 13 96 97
f 13 97 15
f 15 97 98
f 15 98 2
f 2 98 99
f 2 99 3
f 3 99 100
f 3 100 5
f 5 100 101
f 5 101 7
f 7 101 102
f 7 102 9
f 9 102 95
f 95 102 103
f 95 103 104
f 95 104 105
f 95 105 96
f 96 105 106
f 96 106 107
f 96 107 97
f 97 107 108
f 97 108 98
f 98 108 109
f 98 109 108
f 98 108 99
f 99 108 110
f 99 110 111
f 99 111 100
f 100 111 112
f 100 112 113
f 100 113 101
f 101 113 114
f 101 114 115
f 101 115 102
f 102 115 103
f 103 115 116
f 103 116 117
f 103 117 104
f 104 117 105
f 105 117 118
f 105 118 106
f 106 118 119
f 106 119 107
f 107 119 108
f 108 119 120
f 108 120 109
f 108 109 120
f 108 120 121
f 108 121 110
f 110 121 111
f 111 121 122
f 111 122 112
f 112 122 113
f 113 122 123
f 113 123 114
f 114 123 116
f 114 116 115
f 72 71 70
f 72 70 124
f 72 124 73
f 73 124 69
f 73 69 75
f 73 75 74
f 85 93 86
f 125 126 127
f 125 127 128
f 125 128 129
f 125 129 130
f 130 129 128
f 130 128 131
f 131 128 132
f 131 132 133
f 133 132 134
f 134 132 135
f 134 135 136
f 136 135 137
f 136 137 138
f 138 137 139
f 138 139 140
f 140 139 141
f 140 141 142
f 142 141 143
f 142 143 126
f 126 143 127
f 127 143 6
f 127 6 144
f 127 144 128
f 128 144 10
f 128 10 132
f 132 10 145
f 132 145 135
f 135 145 14
f 135 14 137
f 137 14 146
f 137 146 139
f 139 146 1
f 139 1 141
f 141 1 147
f 141 147 143
f 143 147 6
f 124 70 69
f 91 90 92
f 119 148 149
f 119 149 120
f 120 149 150
f 120 150 121
f 121 150 151
f 121 151 122
f 122 151 152
f 122 152 123
f 123 152 153
f 123 153 116
f 116 153 154
f 116 154 117
f 117 154 155
f 117 155 118
f 118 155 148
f 118 148 119
f 156 157 158
