# RS2 Model 19289
# Vertices: 263
# Faces: 282

v -54 -31 43
v -54 -38 21
v -37 -38 21
v 36 -38 21
v 0 -31 37
v -9 -22 66
v -54 -22 69
v -54 -24 40
v -54 -31 19
v -54 -38 0
v -54 -47 0
v -37 -47 0
v -37 -31 19
v -37 -38 0
v 0 -24 34
v 36 -31 19
v 52 -24 40
v 52 -31 19
v 52 -38 0
v 36 -38 0
v 36 -47 0
v 52 -38 21
v 52 -31 43
v 52 -22 69
v 52 -14 96
v 6 -14 93
v -54 -14 96
v -54 -15 66
v -9 -15 63
v 52 -15 66
v 52 -47 0
v -1 -18 85
v -5 -18 86
v -9 -18 85
v -10 -20 81
v -9 -21 77
v -5 -21 76
v -1 -21 77
v 0 -20 81
v 10 -12 106
v -6 -11 107
v 2 -14 97
v 11 -18 87
v 17 -17 90
v 23 -14 97
v 23 -18 88
v 25 -17 90
v 7 -19 84
v 9 -19 84
v -10 -12 106
v -18 -14 98
v -12 -17 89
v -9 -13 101
v -3 -17 90
v 0 -17 90
v -23 -18 86
v -14 -19 83
v 21 -18 85
v 17 -18 86
v 13 -18 85
v 12 -20 81
v 13 -21 77
v 17 -21 76
v 21 -21 77
v 22 -20 81
v 9 -20 81
v 6 -19 82
v 6 -21 76
v 11 -22 74
v 4 -23 71
v 8 -23 72
v 12 -23 70
v 23 -21 77
v 21 -22 75
v 20 -23 71
v 23 -23 71
v 20 -25 66
v 22 -24 68
v 17 -22 75
v -1 -25 65
v -3 -25 65
v -3 -26 61
v 0 -27 60
v 4 -25 65
v 2 -25 65
v 2 -27 60
v 5 -27 60
v 9 -25 65
v 7 -25 65
v 7 -27 60
v 10 -27 60
v 14 -25 65
v 12 -25 65
v 12 -27 60
v 15 -27 60
v 18 -25 65
v 16 -25 65
v 16 -27 60
v 19 -26 61
v 0 -28 56
v -9 -28 57
v -9 -28 56
v 6 -31 46
v 14 -31 46
v 13 -28 55
v 20 -28 55
v 21 -27 58
v -21 -13 100
v -36 -11 109
v -37 -13 103
v -23 -15 95
v -16 -13 103
v -32 -9 114
v -31 -8 118
v -40 -10 112
v -38 -7 120
v -43 -8 117
v -42 -10 112
v -43 -13 100
v -46 -14 99
v -45 -14 97
v -43 -14 97
v -45 -16 94
v -44 -15 95
v -47 -10 110
v -50 -11 108
v 23 -13 102
v 31 -9 114
v 25 -8 115
v 18 -12 104
v 26 -15 96
v 27 -14 97
v 36 -10 111
v 41 -10 110
v 34 -8 118
v 43 -8 116
v 40 -7 121
v 33 -7 120
v 23 -6 123
v 33 -5 125
v 30 -4 128
v 22 -31 48
v 36 -33 39
v 38 -32 45
v 23 -29 53
v 19 -32 45
v 31 -34 38
v 31 -37 30
v 40 -34 37
v 38 -37 28
v 40 -37 29
v 43 -36 31
v 42 -34 37
v 46 -30 49
v 47 -34 38
v 50 -33 40
v -14 -28 57
v -25 -33 41
v -19 -33 40
v -11 -29 53
v -14 -26 61
v -28 -31 46
v -35 -31 46
v -29 -34 37
v -37 -33 39
v -34 -35 34
v -36 -35 34
v -35 -36 32
v -33 -36 32
v -34 -37 28
v -28 -35 36
v -17 -36 31
v -26 -37 30
v -24 -37 28
v -22 -37 27
v -24 -38 26
v -23 -38 26
v -24 -39 22
v -23 -39 23
v -7 -29 53
v 19 -31 47
v -5 -22 74
v -11 -22 76
v -9 -23 70
v -5 -23 71
v -2 -22 74
v -6 -24 68
v -4 -24 68
v 39 -38 26
v 40 -37 27
v 40 -39 23
v -40 -16 93
v -41 -16 94
v -42 -17 90
v -40 -18 87
v -42 -19 82
v -41 -19 83
v 26 -16 94
v 27 -15 95
v 27 -17 90
v 31 -16 92
v 30 -17 91
v 31 -18 86
v 32 -18 87
v 31 -20 80
v 52 -7 93
v 52 1 116
v 52 -6 119
v -5 -6 116
v -54 -6 119
v -54 -7 93
v 6 -7 90
v -5 1 113
v 36 8 135
v 52 8 135
v 52 1 138
v 36 1 138
v -54 1 138
v -54 1 116
v -54 8 135
v 52 -11 80
v 47 -11 80
v 47 2 60
v 52 2 60
v 52 -6 99
v 52 10 71
v 47 -6 99
v 47 10 71
v 47 22 47
v 47 12 42
v 52 12 42
v 52 22 47
v 52 33 28
v 47 33 28
v 47 26 17
v 52 26 17
v 52 35 0
v 52 52 0
v 47 52 0
v 47 35 0
v -49 -11 80
v -54 -11 80
v -54 2 60
v -49 2 60
v -49 -6 99
v -49 10 71
v -54 -6 99
v -54 10 71
v -54 22 47
v -54 12 42
v -49 12 42
v -49 22 47
v -49 33 28
v -54 33 28
v -54 26 17
v -49 26 17
v -49 35 0
v -49 52 0
v -54 52 0
v -54 35 0
v 38 -1 133
v -53 -8 119
v 57 -36 26

f 1 2 3
f 1 3 4
f 1 4 5
f 1 5 6
f 1 6 7
f 1 7 8
f 1 8 9
f 1 9 2
f 2 9 10
f 2 10 11
f 2 11 3
f 3 11 12
f 3 12 13
f 13 12 14
f 13 14 9
f 13 9 8
f 13 8 15
f 13 15 16
f 16 15 17
f 16 17 18
f 16 18 19
f 16 19 20
f 16 20 4
f 4 20 21
f 4 21 22
f 4 22 5
f 5 22 23
f 5 23 24
f 5 24 6
f 6 24 25
f 6 25 26
f 6 26 7
f 7 26 27
f 7 27 28
f 7 28 8
f 8 28 15
f 15 28 29
f 15 29 17
f 17 29 30
f 17 30 23
f 17 23 22
f 17 22 18
f 18 22 31
f 18 31 19
f 9 14 10
f 22 21 31
f 32 33 34
f 32 34 35
f 32 35 36
f 32 36 37
f 32 37 38
f 32 38 39
f 40 41 42
f 40 42 43
f 40 43 44
f 40 44 45
f 45 44 46
f 45 46 47
f 43 42 48
f 43 48 49
f 50 51 52
f 50 52 53
f 53 52 54
f 53 54 55
f 52 51 56
f 52 56 57
f 58 59 60
f 58 60 61
f 58 61 62
f 58 62 63
f 58 63 64
f 58 64 65
f 66 67 68
f 66 68 69
f 69 68 70
f 69 70 71
f 69 71 72
f 73 74 75
f 73 75 76
f 76 75 77
f 76 77 78
f 74 79 75
f 80 81 82
f 80 82 83
f 84 85 86
f 84 86 87
f 88 89 90
f 88 90 91
f 92 93 94
f 92 94 95
f 96 97 98
f 96 98 99
f 100 101 102
f 100 102 103
f 100 103 104
f 100 104 105
f 105 104 106
f 105 106 107
f 108 109 110
f 108 110 111
f 109 108 112
f 109 112 113
f 109 113 114
f 109 114 115
f 115 114 116
f 115 116 117
f 110 109 118
f 110 118 119
f 119 118 120
f 119 120 121
f 119 121 122
f 122 121 123
f 122 123 124
f 120 118 125
f 120 125 126
f 127 128 129
f 127 129 130
f 128 127 131
f 128 131 132
f 128 132 133
f 128 133 134
f 128 134 135
f 135 134 136
f 135 136 137
f 129 128 138
f 129 138 139
f 139 138 140
f 139 140 141
f 142 143 144
f 142 144 145
f 143 142 146
f 143 146 147
f 143 147 148
f 143 148 149
f 149 148 150
f 149 150 151
f 149 151 152
f 144 143 153
f 144 153 154
f 154 153 155
f 154 155 156
f 157 158 159
f 157 159 160
f 158 157 161
f 158 161 162
f 158 162 163
f 158 163 164
f 164 163 165
f 164 165 166
f 166 165 167
f 166 167 168
f 166 168 169
f 169 168 170
f 159 158 171
f 159 171 172
f 172 171 173
f 172 173 174
f 172 174 175
f 175 174 176
f 175 176 177
f 177 176 178
f 177 178 179
f 103 102 180
f 106 104 181
f 182 183 184
f 182 184 185
f 182 185 186
f 185 184 187
f 185 187 188
f 151 150 189
f 151 189 190
f 190 189 191
f 192 193 194
f 192 194 195
f 195 194 196
f 195 196 197
f 132 131 198
f 132 198 199
f 199 198 200
f 201 202 203
f 201 203 204
f 204 203 205
f 23 30 24
f 24 30 206
f 24 206 25
f 25 206 207
f 25 207 208
f 25 208 26
f 26 208 209
f 26 209 27
f 27 209 210
f 27 210 211
f 27 211 28
f 28 211 29
f 29 211 212
f 29 212 30
f 30 212 206
f 206 212 213
f 206 213 207
f 207 213 214
f 207 214 215
f 207 215 208
f 208 215 216
f 208 216 209
f 209 216 217
f 209 217 210
f 210 217 218
f 210 218 219
f 210 219 211
f 211 219 212
f 212 219 213
f 213 219 220
f 213 220 214
f 214 220 217
f 214 217 216
f 214 216 215
f 220 218 217
f 218 220 219
f 221 222 223
f 221 223 224
f 221 224 225
f 225 224 226
f 225 226 227
f 227 226 228
f 227 228 222
f 222 228 223
f 223 228 229
f 223 229 230
f 223 230 224
f 224 230 231
f 224 231 226
f 226 231 232
f 226 232 228
f 228 232 229
f 229 232 233
f 229 233 234
f 229 234 230
f 230 234 235
f 230 235 231
f 231 235 236
f 231 236 232
f 232 236 233
f 233 236 237
f 233 237 238
f 233 238 234
f 234 238 239
f 234 239 235
f 235 239 240
f 235 240 236
f 236 240 237
f 241 242 243
f 241 243 244
f 241 244 245
f 245 244 246
f 245 246 247
f 247 246 248
f 247 248 242
f 242 248 243
f 243 248 249
f 243 249 250
f 243 250 244
f 244 250 251
f 244 251 246
f 246 251 252
f 246 252 248
f 248 252 249
f 249 252 253
f 249 253 254
f 249 254 250
f 250 254 255
f 250 255 251
f 251 255 256
f 251 256 252
f 252 256 253
f 253 256 257
f 253 257 258
f 253 258 254
f 254 258 259
f 254 259 255
f 255 259 260
f 255 260 256
f 256 260 257
