# RS2 Model 1929
# Vertices: 133
# Faces: 212

v -56 15 112
v -56 15 240
v -56 -16 240
v -56 -16 112
v -64 -16 240
v -64 -16 112
v -64 15 240
v -64 15 112
v -56 -4 168
v -32 -4 216
v -32 3 216
v -56 3 168
v -56 3 152
v -24 3 216
v -24 -4 216
v -56 -4 152
v 71 7 216
v 71 7 232
v 71 -8 232
v 71 -8 216
v -56 -8 232
v -56 -8 216
v -56 7 232
v -56 7 216
v 52 -2 171
v 52 1 171
v 52 1 216
v 52 -2 216
v 50 -2 170
v 50 -2 216
v 50 1 170
v 50 1 216
v -15 -2 170
v -15 1 170
v -15 1 216
v -15 -2 216
v -17 -2 170
v -17 -2 216
v -17 1 170
v -17 1 216
v 21 6 151
v 11 2 139
v 15 7 134
v 25 10 146
v 30 1 154
v 16 12 153
v 6 9 141
v 10 -5 131
v 14 0 126
v 9 -1 119
v 10 14 136
v 20 17 148
v 39 7 156
v 35 6 149
v 40 -11 149
v 36 3 160
v 5 -7 124
v 14 -19 119
v 19 -17 125
v 23 -13 120
v 18 -14 115
v 29 -21 129
v 33 -17 124
v 38 -24 121
v 34 -29 126
v 44 -26 138
v 40 -19 141
v 44 -14 136
v 49 -21 133
v 44 -6 144
v 49 -5 150
v 45 -10 155
v 46 -5 158
v 42 1 161
v 44 4 158
v 48 -2 156
v 65 -2 153
v 53 -17 167
v 38 3 175
v 51 18 161
v 56 3 171
v 12 -5 149
v 23 -2 137
v 19 -7 132
v 8 -10 144
v 3 0 152
v 17 -12 151
v 28 -9 139
v 23 5 129
v 20 0 124
v 24 2 117
v 24 -13 134
v 13 -17 146
v -6 -7 154
v -1 -6 147
v -6 11 147
v -2 -2 158
v 29 7 122
v 19 19 117
v 14 18 123
v 10 13 118
v 15 14 113
v 5 22 127
v 1 17 122
v -5 24 119
v 0 30 124
v -11 27 136
v -6 19 139
v -10 15 134
v -15 21 131
v -10 7 142
v -15 6 148
v -11 10 153
v -13 5 156
v -9 -1 159
v -11 -3 156
v -15 3 154
v -32 2 151
v -20 17 165
v -5 -3 173
v -17 -17 159
v -23 -2 169
v 18 -2 127
v 18 1 127
v 18 1 216
v 18 -2 216
v 16 -2 125
v 16 -2 216
v 16 1 125
v 16 1 216
v -56 -68 112
v -56 25 112
v -56 -68 240

f 1 2 3
f 1 3 4
f 4 3 5
f 4 5 6
f 7 5 3
f 7 3 2
f 7 2 8
f 8 2 1
f 9 10 11
f 9 11 12
f 12 11 13
f 13 11 14
f 13 14 15
f 13 15 16
f 16 15 9
f 9 15 10
f 17 18 19
f 17 19 20
f 20 19 21
f 20 21 22
f 23 21 19
f 23 19 18
f 23 18 24
f 24 18 17
f 25 26 27
f 25 27 28
f 25 28 29
f 29 28 30
f 29 30 31
f 31 30 32
f 31 32 26
f 26 32 27
f 33 34 35
f 33 35 36
f 33 36 37
f 37 36 38
f 37 38 39
f 39 38 40
f 39 40 34
f 34 40 35
f 41 42 43
f 41 43 44
f 41 44 45
f 41 45 46
f 41 46 42
f 42 46 47
f 42 47 48
f 42 48 49
f 42 49 43
f 43 49 50
f 43 50 51
f 43 51 44
f 44 51 52
f 44 52 53
f 44 53 54
f 44 54 45
f 45 54 55
f 45 55 56
f 45 56 46
f 46 56 53
f 46 53 52
f 46 52 47
f 47 52 51
f 47 51 57
f 47 57 48
f 48 57 58
f 48 58 59
f 48 59 60
f 48 60 49
f 49 60 50
f 50 60 61
f 50 61 58
f 50 58 57
f 50 57 51
f 59 62 63
f 59 63 60
f 60 63 61
f 61 63 64
f 61 64 65
f 61 65 58
f 58 65 59
f 59 65 62
f 62 65 66
f 62 66 67
f 62 67 68
f 62 68 63
f 63 68 64
f 64 68 69
f 64 69 66
f 64 66 65
f 67 55 70
f 67 70 68
f 68 70 69
f 69 70 71
f 69 71 72
f 69 72 66
f 66 72 67
f 67 72 55
f 55 72 56
f 56 72 73
f 56 73 74
f 56 74 53
f 53 74 75
f 53 75 71
f 53 71 54
f 54 71 70
f 54 70 55
f 75 76 71
f 71 76 72
f 72 76 73
f 73 76 77
f 73 77 78
f 73 78 74
f 74 78 79
f 74 79 75
f 75 79 80
f 75 80 76
f 76 80 77
f 77 80 81
f 77 81 78
f 78 81 79
f 79 81 80
f 82 83 84
f 82 84 85
f 82 85 86
f 82 86 87
f 82 87 83
f 83 87 88
f 83 88 89
f 83 89 90
f 83 90 84
f 84 90 91
f 84 91 92
f 84 92 85
f 85 92 93
f 85 93 94
f 85 94 95
f 85 95 86
f 86 95 96
f 86 96 97
f 86 97 87
f 87 97 94
f 87 94 93
f 87 93 88
f 88 93 92
f 88 92 98
f 88 98 89
f 89 98 99
f 89 99 100
f 89 100 101
f 89 101 90
f 90 101 91
f 91 101 102
f 91 102 99
f 91 99 98
f 91 98 92
f 100 103 104
f 100 104 101
f 101 104 102
f 102 104 105
f 102 105 106
f 102 106 99
f 99 106 100
f 100 106 103
f 103 106 107
f 103 107 108
f 103 108 109
f 103 109 104
f 104 109 105
f 105 109 110
f 105 110 107
f 105 107 106
f 108 96 111
f 108 111 109
f 109 111 110
f 110 111 112
f 110 112 113
f 110 113 107
f 107 113 108
f 108 113 96
f 96 113 97
f 97 113 114
f 97 114 115
f 97 115 94
f 94 115 116
f 94 116 112
f 94 112 95
f 95 112 111
f 95 111 96
f 116 117 112
f 112 117 113
f 113 117 114
f 114 117 118
f 114 118 119
f 114 119 115
f 115 119 120
f 115 120 116
f 116 120 121
f 116 121 117
f 117 121 118
f 118 121 122
f 118 122 119
f 119 122 120
f 120 122 121
f 123 124 125
f 123 125 126
f 123 126 127
f 127 126 128
f 127 128 129
f 129 128 130
f 129 130 124
f 124 130 125
