# RS2 Model 19299
# Vertices: 30
# Faces: 22

v -64 37 20
v -64 23 64
v -23 64 64
v -37 64 20
v -64 64 3
v -64 8 96
v -8 64 96
v -64 5 134
v -5 64 134
v -64 21 157
v -21 64 157
v -64 32 183
v -32 64 183
v -64 50 223
v -50 64 223
v -64 48 239
v -48 64 239
v -64 20 240
v -20 64 240
v 64 -64 240
v 64 64 240
v -64 -64 240
v -63 64 0
v -64 63 0
v 38 60 241
v 37 187 239
v -89 60 239
v -8 90 231
v 51 149 226
v -15 79 -8

f 1 2 3
f 1 3 4
f 1 4 5
f 2 6 7
f 2 7 3
f 6 8 9
f 6 9 7
f 8 10 11
f 8 11 9
f 10 12 13
f 10 13 11
f 12 14 15
f 12 15 13
f 14 16 17
f 14 17 15
f 16 18 19
f 16 19 17
f 20 21 19
f 20 19 18
f 20 18 22
f 5 23 24
f 25 26 27
