# RS2 Model 19329
# Vertices: 70
# Faces: 124

v -28 -5 123
v -22 1 125
v -27 -6 129
v -34 1 129
v -34 1 120
v -36 0 109
v -32 -5 109
v -25 0 109
v -25 1 119
v -27 7 125
v -26 9 130
v -20 1 136
v -26 -6 137
v -32 1 138
v -26 9 137
v -28 8 119
v -32 7 110
v -32 5 100
v -36 0 98
v -32 -4 100
v -28 0 99
v -22 -8 153
v -25 -8 146
v -18 2 142
v -17 -9 153
v -19 2 160
v -27 2 157
v -31 1 149
v -34 1 142
v -26 -7 139
v -18 1 137
v -25 10 139
v -24 11 146
v -22 10 154
v -19 10 155
v 22 1 125
v 28 -5 123
v 27 -6 129
v 20 1 136
v 26 9 130
v 27 7 125
v 25 1 119
v 25 0 109
v 32 -5 109
v 36 0 109
v 34 1 120
v 34 1 129
v 32 1 138
v 26 -6 137
v 18 1 137
v 26 9 137
v 28 8 119
v 32 7 110
v 32 5 100
v 28 0 99
v 31 -4 99
v 36 0 98
v 25 -8 146
v 22 -8 153
v 18 2 142
v 26 -7 139
v 34 1 142
v 31 1 149
v 27 2 157
v 19 2 160
v 17 -9 153
v 22 10 154
v 24 11 146
v 19 10 155
v 25 10 139

f 1 2 3
f 1 3 4
f 1 4 5
f 1 5 6
f 1 6 7
f 1 7 8
f 1 8 9
f 1 9 2
f 2 9 10
f 2 10 11
f 2 11 12
f 2 12 3
f 3 12 13
f 3 13 14
f 3 14 4
f 4 14 15
f 4 15 11
f 4 11 10
f 4 10 5
f 5 10 16
f 5 16 17
f 5 17 6
f 6 17 18
f 6 18 19
f 6 19 7
f 7 19 20
f 7 20 8
f 8 20 21
f 8 21 17
f 8 17 16
f 8 16 9
f 9 16 10
f 22 23 24
f 22 24 25
f 22 25 26
f 22 26 27
f 22 27 28
f 22 28 23
f 23 28 29
f 23 29 30
f 23 30 24
f 24 30 31
f 24 31 32
f 24 32 33
f 24 33 34
f 24 34 35
f 35 34 26
f 26 34 27
f 27 34 33
f 27 33 28
f 28 33 29
f 29 33 32
f 29 32 14
f 29 14 30
f 30 14 13
f 30 13 31
f 31 13 12
f 31 12 15
f 31 15 32
f 32 15 14
f 15 12 11
f 36 37 38
f 36 38 39
f 36 39 40
f 36 40 41
f 36 41 42
f 36 42 37
f 37 42 43
f 37 43 44
f 37 44 45
f 37 45 46
f 37 46 47
f 37 47 38
f 38 47 48
f 38 48 49
f 38 49 39
f 39 49 50
f 39 50 51
f 39 51 40
f 40 51 47
f 40 47 41
f 41 47 46
f 41 46 52
f 41 52 42
f 42 52 43
f 43 52 53
f 43 53 54
f 43 54 55
f 43 55 44
f 44 55 56
f 44 56 45
f 45 56 57
f 45 57 53
f 45 53 46
f 46 53 52
f 58 59 60
f 58 60 61
f 58 61 62
f 58 62 63
f 58 63 59
f 59 63 64
f 59 64 65
f 59 65 66
f 59 66 60
f 67 64 68
f 67 68 60
f 67 60 69
f 67 69 65
f 67 65 64
f 61 60 50
f 61 50 49
f 61 49 48
f 61 48 62
f 62 48 70
f 62 70 68
f 62 68 63
f 63 68 64
f 70 51 50
f 70 50 60
f 70 60 68
f 51 70 48
f 51 48 47
f 53 57 54
f 17 21 18
