# RS2 Model 194
# Vertices: 50
# Faces: 86

v 5 -19 186
v 7 -24 181
v 11 -21 182
v 0 -26 181
v 0 -20 186
v -5 -19 186
v -7 -24 181
v -11 -21 182
v -11 -19 184
v -11 -17 185
v -10 -14 186
v 6 -20 192
v 8 -7 197
v 0 -8 199
v 0 -21 192
v 0 -20 188
v 5 -19 188
v 13 -14 191
v 15 -4 190
v 8 -1 197
v 0 0 199
v -8 -7 197
v -6 -20 192
v -5 -19 188
v 11 -14 187
v 12 -4 186
v 10 4 186
v 13 6 191
v 8 7 194
v 0 8 195
v -8 7 194
v -8 -1 197
v -15 -4 190
v -13 -14 191
v -11 -14 187
v 6 12 191
v 5 10 186
v 0 14 191
v 0 12 186
v -5 10 186
v -7 12 191
v -13 6 191
v -10 4 186
v -12 -4 186
v 10 -14 186
v 11 -17 185
v 11 -19 184
v -5 -17 190
v -7 -17 181
v 6 -17 185

f 1 2 3
f 1 3 2
f 1 2 4
f 1 4 2
f 4 1 5
f 4 5 1
f 5 4 6
f 5 6 4
f 4 6 7
f 4 7 6
f 6 7 8
f 6 8 7
f 8 6 9
f 8 9 6
f 6 9 10
f 6 10 11
f 6 11 10
f 6 10 9
f 12 13 14
f 12 14 15
f 12 15 16
f 12 16 17
f 12 17 18
f 12 18 13
f 13 18 19
f 13 19 20
f 13 20 21
f 13 21 14
f 14 21 22
f 14 22 23
f 14 23 15
f 15 23 24
f 15 24 16
f 16 24 6
f 16 6 5
f 16 5 17
f 17 5 1
f 17 1 25
f 17 25 18
f 18 25 19
f 19 25 26
f 19 26 27
f 19 27 28
f 19 28 20
f 20 28 29
f 20 29 21
f 21 29 30
f 21 30 31
f 21 31 32
f 21 32 22
f 22 32 33
f 22 33 34
f 22 34 23
f 23 34 35
f 23 35 24
f 24 35 11
f 24 11 6
f 36 28 27
f 36 27 37
f 36 37 38
f 36 38 30
f 36 30 29
f 36 29 28
f 38 37 39
f 38 39 40
f 38 40 41
f 38 41 30
f 30 41 31
f 31 41 42
f 31 42 32
f 32 42 33
f 33 42 43
f 33 43 44
f 33 44 35
f 33 35 34
f 41 40 43
f 41 43 42
f 25 1 45
f 25 45 26
f 44 11 35
f 46 45 1
f 46 1 45
f 1 46 47
f 1 47 46
f 47 1 3
f 47 3 1
