# RS2 Model 19490
# Vertices: 113
# Faces: 167

v 6 5 13
v 5 4 13
v 6 3 13
v 7 4 13
v -8 5 13
v -8 3 13
v -7 4 13
v -9 4 13
v 16 33 2
v 16 24 8
v 20 23 8
v 24 30 2
v 24 31 1
v 17 35 1
v 17 15 8
v 25 17 7
v 28 22 1
v 31 12 1
v 31 1 1
v 23 1 7
v 23 -5 8
v 33 -5 1
v 24 -15 2
v 31 -15 2
v 27 -26 1
v 31 -26 1
v 17 15 0
v 23 1 0
v 23 -5 0
v -18 24 8
v -18 33 2
v -26 30 2
v -22 23 8
v -19 15 8
v -15 26 12
v -11 33 3
v -11 37 0
v 9 37 0
v 9 33 3
v 13 26 12
v 12 10 12
v 12 -9 12
v 19 -8 4
v 16 -11 0
v 3 -11 10
v 3 -15 10
v 16 -15 0
v -30 22 1
v -27 17 7
v -33 1 0
v -25 1 7
v -25 1 0
v -19 15 0
v -32 17 1
v -25 -5 8
v -25 -5 0
v -35 -5 3
v -33 -15 2
v -26 -15 2
v -19 35 1
v -26 31 1
v -33 -26 1
v -29 -26 1
v 1 -5 12
v 11 -5 12
v 1 2 13
v 1 2 12
v 0 -9 12
v 11 2 12
v 11 2 13
v 6 2 13
v 2 3 13
v 1 6 13
v 1 6 12
v 0 0 12
v -2 0 12
v -2 -9 12
v 0 -11 10
v 0 -15 10
v 11 6 13
v 10 3 13
v -2 -11 10
v -14 -9 11
v -5 -11 10
v -2 -15 10
v -1 23 12
v 0 10 12
v 0 23 12
v 1 25 13
v -3 25 13
v -2 23 12
v -2 12 12
v 11 6 12
v -3 -5 12
v -3 2 13
v -13 -5 12
v -3 2 12
v -3 6 13
v -4 3 13
v -8 2 13
v -13 2 13
v -13 2 12
v -12 3 13
v -13 6 13
v -13 6 12
v -14 10 11
v -21 -8 4
v -18 -11 0
v -18 -15 0
v -5 -15 10
v -3 6 12
v -14 12 12
v -9 3 13

f 1 2 3
f 1 3 4
f 5 6 7
f 6 5 8
f 9 10 11
f 9 11 12
f 9 12 13
f 9 13 14
f 10 15 11
f 11 15 16
f 11 16 12
f 12 16 17
f 17 16 18
f 18 16 19
f 19 16 20
f 19 20 21
f 19 21 22
f 22 21 23
f 22 23 24
f 24 23 25
f 24 25 26
f 16 15 20
f 20 15 27
f 20 27 28
f 20 28 21
f 21 28 29
f 21 29 23
f 30 31 32
f 30 32 33
f 30 33 34
f 30 34 35
f 30 35 31
f 31 35 36
f 31 36 37
f 37 36 38
f 38 36 39
f 38 39 9
f 9 39 40
f 9 40 10
f 10 40 15
f 15 40 41
f 15 41 42
f 15 42 43
f 43 42 44
f 44 42 45
f 44 45 46
f 44 46 47
f 33 32 48
f 33 48 49
f 33 49 34
f 34 49 50
f 34 50 51
f 34 51 52
f 34 52 53
f 54 50 49
f 54 49 48
f 51 50 55
f 51 55 56
f 51 56 52
f 55 57 58
f 55 58 59
f 55 59 56
f 32 31 60
f 32 60 61
f 50 57 55
f 59 58 62
f 59 62 63
f 64 65 66
f 64 66 67
f 64 67 68
f 64 68 65
f 65 68 42
f 65 42 41
f 65 41 69
f 65 69 70
f 65 70 71
f 65 71 66
f 66 71 72
f 66 72 73
f 66 73 74
f 66 74 67
f 67 74 75
f 67 75 68
f 68 75 76
f 68 76 77
f 68 77 78
f 68 78 42
f 42 78 45
f 45 78 79
f 45 79 46
f 70 80 81
f 70 81 71
f 71 81 80
f 71 80 73
f 71 73 72
f 82 78 77
f 82 77 83
f 82 83 84
f 82 84 85
f 82 85 78
f 78 85 79
f 86 87 88
f 86 88 40
f 86 40 89
f 86 89 39
f 86 39 36
f 86 36 90
f 86 90 91
f 86 91 92
f 86 92 76
f 86 76 87
f 87 76 75
f 87 75 74
f 87 74 41
f 87 41 40
f 87 40 88
f 40 39 89
f 41 93 69
f 69 93 80
f 69 80 70
f 73 80 93
f 73 93 74
f 74 93 41
f 94 95 96
f 94 96 77
f 94 77 76
f 94 76 97
f 94 97 95
f 95 97 98
f 95 98 99
f 95 99 100
f 95 100 96
f 96 100 101
f 96 101 102
f 96 102 83
f 96 83 77
f 101 103 104
f 101 104 105
f 101 105 102
f 102 105 106
f 102 106 83
f 83 106 34
f 83 34 107
f 83 107 108
f 83 108 84
f 84 108 109
f 84 109 110
f 84 110 85
f 100 103 101
f 103 100 104
f 104 100 98
f 104 98 111
f 104 111 105
f 105 111 92
f 105 92 112
f 105 112 106
f 106 112 34
f 34 112 35
f 35 112 91
f 35 91 90
f 35 90 36
f 97 76 92
f 97 92 111
f 97 111 98
f 98 100 99
f 112 92 91
f 3 4 2
