# RS2 Model 19503
# Vertices: 201
# Faces: 308

v 101 -92 6
v 96 -93 6
v 96 -97 6
v 100 -100 6
v 105 -97 6
v 112 -98 0
v 105 -87 0
v 93 -86 0
v 90 -99 0
v 100 -107 0
v 57 -112 4
v 55 -109 4
v 52 -112 4
v 52 -116 4
v 56 -117 4
v 57 -119 0
v 61 -113 0
v 57 -106 0
v 48 -109 0
v 47 -118 0
v 116 -51 4
v 113 -51 4
v 112 -54 4
v 115 -56 4
v 119 -55 4
v 122 -56 0
v 120 -48 0
v 112 -46 0
v 108 -54 0
v 114 -60 0
v 70 106 4
v 67 105 4
v 67 102 4
v 70 101 4
v 73 102 4
v 76 102 0
v 73 109 0
v 65 109 0
v 63 100 0
v 70 94 0
v 105 79 4
v 104 82 4
v 101 82 4
v 98 79 4
v 101 75 4
v 101 72 0
v 108 76 0
v 109 84 0
v 100 86 0
v 94 79 0
v -91 -90 0
v -105 -97 0
v -107 -96 10
v -90 -88 10
v -77 -105 0
v -74 -106 10
v -90 -118 0
v -89 -123 10
v -104 -114 10
v -102 -111 0
v -107 -113 10
v -105 -110 0
v -105 -113 18
v -105 -101 18
v -92 -94 18
v -78 -107 18
v -91 -120 18
v -102 -114 18
v -94 -108 22
v 113 -27 0
v 114 53 0
v 113 44 35
v 121 -37 35
v 77 -89 0
v 76 -99 35
v -2 -127 35
v -4 -119 0
v -80 -90 0
v -76 -83 35
v -94 -55 35
v -99 -60 0
v -112 1 35
v -115 1 0
v -116 8 35
v -120 2 0
v -104 55 0
v -96 58 35
v -69 87 35
v -75 85 0
v -24 109 35
v -25 112 0
v 31 117 0
v 34 124 35
v 51 84 66
v 103 41 66
v 106 -29 66
v 108 -33 66
v 67 -87 66
v -5 -115 66
v -68 -74 66
v -85 -46 66
v -96 1 66
v -101 8 66
v -89 50 66
v -62 78 66
v -20 98 66
v -18 80 104
v 39 67 104
v 90 31 101
v 91 -15 91
v 92 -19 91
v 57 -71 89
v -5 -79 87
v -56 -60 80
v -73 -33 81
v -78 -3 88
v -82 0 88
v -79 37 92
v -52 64 93
v -44 61 101
v -23 67 108
v 35 61 118
v 60 34 113
v 79 -18 112
v 41 -67 99
v -52 -54 89
v -72 4 102
v 34 -21 114
v 13 5 133
v 18 36 118
v 19 4 118
v 22 33 116
v 36 -14 114
v 99 94 0
v 105 105 0
v 107 106 8
v 100 91 8
v 87 94 0
v 85 93 8
v 86 121 0
v 84 125 8
v 97 126 8
v 98 124 0
v 100 127 8
v 100 124 0
v 98 126 14
v 104 107 14
v 98 97 14
v 87 96 14
v 86 122 14
v 96 125 14
v 97 105 18
v -102 80 0
v -110 82 0
v -110 83 5
v -101 81 5
v -101 69 0
v -100 67 5
v -112 69 0
v -113 66 5
v -116 75 5
v -114 76 0
v -116 76 5
v -114 77 0
v -115 76 9
v -111 80 9
v -104 79 9
v -103 69 9
v -113 68 9
v -115 74 9
v -109 75 11
v -119 -19 4
v -121 -17 4
v -124 -19 4
v -123 -22 4
v -120 -24 4
v -118 -26 0
v -114 -20 0
v -119 -13 0
v -127 -16 0
v -128 -26 0
v -111 -56 4
v -109 -53 4
v -110 -51 4
v -115 -50 4
v -116 -55 4
v -119 -56 0
v -111 -60 0
v -104 -56 0
v -108 -48 0
v -117 -47 0
v -80 108 4
v -83 110 4
v -85 108 4
v -84 105 4
v -82 103 4
v -80 101 0
v -76 108 0
v -81 114 0
v -89 110 0
v -90 101 0

f 1 2 3
f 1 3 4
f 1 4 5
f 1 5 6
f 1 6 7
f 1 7 2
f 2 7 8
f 2 8 3
f 3 8 9
f 3 9 4
f 4 9 10
f 4 10 5
f 5 10 6
f 11 12 13
f 11 13 14
f 11 14 15
f 11 15 16
f 11 16 17
f 11 17 12
f 12 17 18
f 12 18 13
f 13 18 19
f 13 19 14
f 14 19 20
f 14 20 15
f 15 20 16
f 21 22 23
f 21 23 24
f 21 24 25
f 21 25 26
f 21 26 27
f 21 27 22
f 22 27 28
f 22 28 23
f 23 28 29
f 23 29 24
f 24 29 30
f 24 30 25
f 25 30 26
f 31 32 33
f 31 33 34
f 31 34 35
f 31 35 36
f 31 36 37
f 31 37 32
f 32 37 38
f 32 38 33
f 33 38 39
f 33 39 34
f 34 39 40
f 34 40 35
f 35 40 36
f 41 42 43
f 41 43 44
f 41 44 45
f 41 45 46
f 41 46 47
f 41 47 42
f 42 47 48
f 42 48 43
f 43 48 49
f 43 49 44
f 44 49 50
f 44 50 45
f 45 50 46
f 51 52 53
f 51 53 54
f 51 54 55
f 55 54 56
f 55 56 57
f 57 56 58
f 57 58 59
f 57 59 60
f 60 59 61
f 60 61 62
f 62 61 52
f 52 61 53
f 53 61 63
f 53 63 64
f 53 64 54
f 54 64 65
f 54 65 56
f 56 65 66
f 56 66 58
f 58 66 67
f 58 67 68
f 58 68 59
f 59 68 63
f 59 63 61
f 65 64 69
f 65 69 66
f 66 69 67
f 67 69 68
f 68 69 63
f 63 69 64
f 70 71 72
f 70 72 73
f 70 73 74
f 74 73 75
f 74 75 76
f 74 76 77
f 77 76 78
f 78 76 79
f 78 79 80
f 78 80 81
f 81 80 82
f 81 82 83
f 83 82 84
f 83 84 85
f 85 84 86
f 86 84 87
f 86 87 88
f 86 88 89
f 89 88 90
f 89 90 91
f 91 90 92
f 92 90 93
f 92 93 71
f 71 93 72
f 72 93 94
f 72 94 95
f 72 95 96
f 72 96 73
f 73 96 97
f 73 97 75
f 75 97 98
f 75 98 99
f 75 99 76
f 76 99 79
f 79 99 100
f 79 100 101
f 79 101 80
f 80 101 102
f 80 102 82
f 82 102 103
f 82 103 84
f 84 103 87
f 87 103 104
f 87 104 105
f 87 105 88
f 88 105 90
f 90 105 106
f 90 106 93
f 93 106 94
f 94 106 107
f 94 107 108
f 94 108 95
f 95 108 109
f 95 109 110
f 95 110 96
f 96 110 111
f 96 111 97
f 97 111 98
f 98 111 112
f 98 112 113
f 98 113 99
f 99 113 100
f 100 113 114
f 100 114 115
f 100 115 101
f 101 115 116
f 101 116 102
f 102 116 117
f 102 117 103
f 103 117 104
f 104 117 118
f 104 118 119
f 104 119 105
f 105 119 106
f 106 119 107
f 107 119 120
f 107 120 108
f 108 120 121
f 108 121 122
f 108 122 109
f 109 122 123
f 109 123 110
f 110 123 124
f 110 124 111
f 111 124 112
f 112 124 125
f 112 125 113
f 113 125 114
f 114 125 126
f 114 126 127
f 114 127 116
f 114 116 115
f 127 126 125
f 127 125 128
f 127 128 129
f 127 129 130
f 127 130 122
f 127 122 121
f 127 121 120
f 127 120 118
f 127 118 117
f 127 117 116
f 129 128 131
f 129 131 130
f 130 131 132
f 130 132 122
f 122 132 123
f 123 132 131
f 123 131 133
f 123 133 124
f 124 133 128
f 124 128 125
f 134 135 136
f 134 136 137
f 134 137 138
f 138 137 139
f 138 139 140
f 140 139 141
f 140 141 142
f 140 142 143
f 143 142 144
f 143 144 145
f 145 144 135
f 135 144 136
f 136 144 146
f 136 146 147
f 136 147 137
f 137 147 148
f 137 148 139
f 139 148 149
f 139 149 141
f 141 149 150
f 141 150 151
f 141 151 142
f 142 151 146
f 142 146 144
f 148 147 152
f 148 152 149
f 149 152 150
f 150 152 151
f 151 152 146
f 146 152 147
f 153 154 155
f 153 155 156
f 153 156 157
f 157 156 158
f 157 158 159
f 159 158 160
f 159 160 161
f 159 161 162
f 162 161 163
f 162 163 164
f 164 163 154
f 154 163 155
f 155 163 165
f 155 165 166
f 155 166 156
f 156 166 167
f 156 167 158
f 158 167 168
f 158 168 160
f 160 168 169
f 160 169 170
f 160 170 161
f 161 170 165
f 161 165 163
f 167 166 171
f 167 171 168
f 168 171 169
f 169 171 170
f 170 171 165
f 165 171 166
f 172 173 174
f 172 174 175
f 172 175 176
f 172 176 177
f 172 177 178
f 172 178 173
f 173 178 179
f 173 179 174
f 174 179 180
f 174 180 175
f 175 180 181
f 175 181 176
f 176 181 177
f 182 183 184
f 182 184 185
f 182 185 186
f 182 186 187
f 182 187 188
f 182 188 183
f 183 188 189
f 183 189 184
f 184 189 190
f 184 190 185
f 185 190 191
f 185 191 186
f 186 191 187
f 192 193 194
f 192 194 195
f 192 195 196
f 192 196 197
f 192 197 198
f 192 198 193
f 193 198 199
f 193 199 194
f 194 199 200
f 194 200 195
f 195 200 201
f 195 201 196
f 196 201 197
f 131 128 133
f 118 120 119
