# RS2 Model 19554
# Vertices: 812
# Faces: 590

v -202 -1 -164
v -211 -1 -167
v -209 -1 -172
v -204 -1 -170
v -206 -2 34
v -209 -2 18
v -198 -2 13
v -202 -2 39
v -209 -2 68
v -193 -2 47
v -195 -2 23
v -188 -2 32
v -186 -2 48
v -185 -2 63
v -165 -2 55
v -170 -2 35
v -160 -2 42
v -158 -2 59
v -161 -2 82
v -237 -2 30
v -234 -2 9
v -221 -2 10
v -230 -2 28
v -233 -2 49
v -220 -1 -119
v -229 -1 -122
v -227 -1 -127
v -222 -1 -125
v -59 -1 63
v -81 -1 36
v -39 -1 46
v -37 -1 75
v -4 -1 41
v -18 -1 70
v -90 -1 25
v -32 -1 24
v 6 -1 29
v -83 -1 0
v -25 -1 -1
v 0 -1 12
v -52 -1 -17
v -11 -1 -19
v 0 -1 -1
v -261 -2 161
v -262 -2 155
v -256 -2 155
v -258 -2 161
v -258 -2 172
v -228 -2 150
v -229 -2 144
v -223 -2 144
v -225 -2 153
v -230 -2 161
v -270 -2 132
v -271 -2 126
v -265 -2 126
v -267 -2 134
v -272 -2 143
v -250 -2 152
v -249 -2 145
v -243 -2 145
v -247 -2 151
v -249 -2 162
v -208 -2 138
v -209 -2 132
v -203 -2 132
v -205 -2 141
v -210 -2 149
v -293 -2 140
v -293 -2 133
v -287 -2 133
v -290 -2 141
v -290 -2 150
v -238 -2 137
v -237 -2 128
v -231 -2 128
v -234 -2 136
v -237 -2 145
v 287 -1 56
v 289 -1 64
v 272 -1 70
v 267 -1 60
v 257 -1 50
v 294 -1 50
v 261 -1 39
v 291 -1 40
v 278 -1 24
v 291 -1 33
v 263 -1 63
v 252 -1 58
v 245 -1 46
v 248 -1 38
v 256 -1 30
v -111 -1 97
v -117 -1 70
v -67 -1 67
v -75 -1 118
v -61 -1 143
v -80 -1 134
v -10 -1 82
v -12 -1 132
v -21 -1 154
v 51 -1 95
v 38 -1 141
v 14 -1 161
v 90 -1 103
v 82 -1 141
v 48 -1 161
v 112 -1 119
v -34 -2 112
v -38 -2 110
v -34 -2 107
v -32 -2 110
v -31 -2 107
v -34 -2 105
v -32 -2 105
v -39 -2 107
v -36 -2 105
v -41 -2 134
v -43 -2 132
v -41 -2 129
v -39 -2 132
v -320 0 -58
v -320 0 -192
v -255 0 -192
v -261 0 -87
v -320 0 -2
v -261 0 -31
v -320 0 29
v -261 0 0
v -320 0 104
v -261 0 75
v -320 0 192
v -252 0 192
v -203 0 53
v -183 0 192
v -125 0 39
v -90 0 192
v -63 0 52
v -37 0 192
v 15 0 50
v 61 0 192
v 83 0 23
v 118 0 192
v 152 0 34
v 189 0 192
v 244 0 70
v 258 0 192
v 320 0 80
v 320 0 192
v -188 0 -192
v -203 0 -109
v -203 0 -53
v -203 0 -22
v -125 0 -36
v -63 0 -23
v 15 0 -25
v 83 0 -52
v 152 0 -41
v 244 0 -5
v 320 0 4
v -118 0 -192
v -125 0 -123
v -125 0 -67
v -63 0 -54
v 15 0 -56
v 83 0 -83
v 152 0 -72
v 244 0 -36
v 320 0 -27
v -47 0 -192
v -63 0 -110
v 15 0 -112
v 83 0 -139
v 152 0 -128
v 244 0 -92
v 320 0 -83
v 27 0 -192
v 107 0 -192
v 190 0 -192
v 269 0 -192
v 320 0 -192
v -95 -2 98
v -99 -2 96
v -95 -2 93
v -93 -2 96
v -92 -2 93
v -95 -2 91
v -93 -2 91
v -100 -2 93
v -97 -2 91
v -67 -2 124
v -71 -2 122
v -67 -2 119
v -65 -2 122
v -64 -2 119
v -67 -2 117
v -65 -2 117
v -72 -2 119
v -69 -2 117
v 38 -2 124
v 34 -2 122
v 38 -2 119
v 40 -2 122
v 41 -2 119
v 38 -2 117
v 40 -2 117
v 33 -2 119
v 36 -2 117
v 52 -2 147
v 48 -2 145
v 52 -2 142
v 54 -2 145
v 55 -2 142
v 52 -2 140
v 54 -2 140
v 47 -2 142
v 50 -2 140
v 66 -2 121
v 62 -2 119
v 66 -2 116
v 68 -2 119
v 69 -2 116
v 66 -2 114
v 68 -2 114
v 61 -2 116
v 64 -2 114
v -2 -2 99
v -6 -2 97
v -2 -2 94
v 0 -2 97
v 1 -2 94
v -2 -2 92
v 0 -2 92
v -7 -2 94
v -4 -2 92
v -58 -2 111
v -60 -2 109
v -58 -2 106
v -56 -2 109
v -76 -2 114
v -78 -2 112
v -76 -2 109
v -74 -2 112
v -90 -2 90
v -92 -2 88
v -90 -2 85
v -88 -2 88
v -21 -2 104
v -23 -2 102
v -21 -2 99
v -19 -2 102
v -33 -2 101
v -35 -2 99
v -33 -2 96
v -31 -2 99
v 26 -2 138
v 24 -2 136
v 26 -2 133
v 28 -2 136
v 26 -2 119
v 24 -2 117
v 26 -2 114
v 28 -2 117
v 45 -2 113
v 43 -2 111
v 45 -2 108
v 47 -2 111
v 63 -2 143
v 61 -2 141
v 63 -2 138
v 65 -2 141
v -4 -2 146
v -6 -2 144
v -4 -2 141
v -2 -2 144
v 84 -2 126
v 82 -2 124
v 84 -2 121
v 86 -2 124
v -12 -2 127
v -14 -2 125
v -12 -2 122
v -10 -2 125
v -104 -2 180
v -105 -2 174
v -99 -2 174
v -101 -2 180
v -101 -2 191
v -71 -2 169
v -72 -2 163
v -66 -2 163
v -68 -2 172
v -73 -2 180
v -105 -2 150
v -106 -2 144
v -100 -2 144
v -102 -2 152
v -107 -2 161
v -93 -2 174
v -92 -2 167
v -86 -2 167
v -90 -2 173
v -92 -2 184
v -49 -2 171
v -50 -2 165
v -44 -2 165
v -46 -2 174
v -51 -2 182
v -142 -2 155
v -142 -2 148
v -136 -2 148
v -139 -2 156
v -139 -2 165
v -84 -2 163
v -83 -2 154
v -77 -2 154
v -80 -2 162
v -83 -2 171
v -212 -2 97
v -213 -2 91
v -207 -2 91
v -209 -2 97
v -209 -2 108
v -164 -2 106
v -165 -2 100
v -159 -2 100
v -161 -2 109
v -166 -2 117
v -200 -2 87
v -201 -2 81
v -195 -2 81
v -197 -2 89
v -202 -2 98
v -189 -2 101
v -188 -2 94
v -182 -2 94
v -186 -2 100
v -188 -2 111
v -146 -2 115
v -147 -2 109
v -141 -2 109
v -143 -2 118
v -148 -2 126
v -219 -2 79
v -219 -2 72
v -213 -2 72
v -216 -2 80
v -216 -2 89
v -180 -2 90
v -179 -2 81
v -173 -2 81
v -176 -2 89
v -179 -2 98
v 117 -2 111
v 116 -2 105
v 122 -2 105
v 120 -2 111
v 120 -2 122
v 150 -2 101
v 149 -2 94
v 155 -2 94
v 153 -2 105
v 148 -2 111
v 122 -2 91
v 121 -2 85
v 127 -2 85
v 125 -2 93
v 120 -2 102
v 128 -2 105
v 129 -2 98
v 135 -2 98
v 131 -2 104
v 129 -2 115
v 170 -2 88
v 169 -2 82
v 175 -2 82
v 173 -2 91
v 168 -2 99
v 108 -2 76
v 108 -2 69
v 114 -2 69
v 111 -2 77
v 111 -2 86
v 141 -2 89
v 139 -2 81
v 145 -2 81
v 145 -2 88
v 139 -2 96
v 165 -2 165
v 164 -2 159
v 170 -2 159
v 168 -2 165
v 168 -2 176
v 198 -2 154
v 197 -2 148
v 203 -2 148
v 201 -2 157
v 196 -2 165
v 170 -2 145
v 169 -2 139
v 175 -2 139
v 173 -2 147
v 168 -2 156
v 176 -2 159
v 177 -2 152
v 183 -2 152
v 179 -2 158
v 177 -2 169
v 218 -2 142
v 217 -2 136
v 223 -2 136
v 221 -2 145
v 216 -2 153
v 146 -2 137
v 146 -2 130
v 152 -2 130
v 149 -2 138
v 149 -2 147
v 185 -2 148
v 186 -2 139
v 192 -2 139
v 189 -2 147
v 186 -2 156
v 248 -2 137
v 247 -2 131
v 253 -2 131
v 251 -2 137
v 251 -2 148
v 281 -2 126
v 280 -2 120
v 286 -2 120
v 284 -2 129
v 279 -2 137
v 252 -2 107
v 251 -2 101
v 257 -2 101
v 255 -2 109
v 250 -2 118
v 259 -2 131
v 260 -2 124
v 266 -2 124
v 262 -2 130
v 260 -2 141
v 302 -2 106
v 301 -2 100
v 307 -2 100
v 305 -2 109
v 300 -2 117
v 226 -2 120
v 226 -2 113
v 232 -2 113
v 229 -2 121
v 229 -2 130
v 268 -2 120
v 269 -2 111
v 275 -2 111
v 272 -2 119
v 269 -2 128
v 250 -2 190
v 249 -2 184
v 255 -2 184
v 253 -2 190
v 253 -2 201
v 283 -2 179
v 282 -2 173
v 288 -2 173
v 286 -2 182
v 281 -2 190
v 255 -2 170
v 254 -2 164
v 260 -2 164
v 258 -2 172
v 253 -2 181
v 261 -2 184
v 262 -2 177
v 268 -2 177
v 264 -2 183
v 262 -2 194
v 303 -2 167
v 302 -2 161
v 308 -2 161
v 306 -2 170
v 301 -2 178
v 231 -2 162
v 231 -2 155
v 237 -2 155
v 234 -2 163
v 234 -2 172
v 270 -2 173
v 271 -2 164
v 277 -2 164
v 274 -2 172
v 271 -2 181
v 16 -2 187
v 15 -2 181
v 21 -2 181
v 19 -2 187
v 19 -2 198
v 57 -2 185
v 56 -2 179
v 62 -2 179
v 60 -2 188
v 55 -2 196
v 29 -2 176
v 28 -2 170
v 34 -2 170
v 32 -2 178
v 27 -2 187
v 35 -2 190
v 36 -2 183
v 42 -2 183
v 38 -2 189
v 36 -2 200
v 77 -2 173
v 76 -2 167
v 82 -2 167
v 80 -2 176
v 75 -2 184
v 5 -2 168
v 5 -2 161
v 11 -2 161
v 8 -2 169
v 8 -2 178
v 44 -2 179
v 45 -2 170
v 51 -2 170
v 48 -2 178
v 45 -2 187
v 14 -2 83
v 13 -2 77
v 19 -2 77
v 17 -2 83
v 17 -2 94
v 54 -2 81
v 53 -2 75
v 59 -2 75
v 57 -2 84
v 52 -2 92
v 26 -2 72
v 25 -2 66
v 31 -2 63
v 29 -2 74
v 24 -2 83
v 31 -2 87
v 32 -2 80
v 38 -2 80
v 34 -2 86
v 32 -2 97
v 74 -2 69
v 73 -2 63
v 79 -2 63
v 77 -2 72
v 72 -2 80
v 2 -2 64
v 2 -2 57
v 8 -2 57
v 5 -2 65
v 5 -2 74
v 44 -2 74
v 43 -2 62
v 48 -2 66
v 48 -2 73
v 44 -2 84
v -106 -1 -151
v -113 -1 -153
v -104 -1 -169
v -95 -1 -155
v -91 -1 -163
v -102 -1 -176
v -94 -1 -173
v -89 -1 -166
v -119 -1 -162
v -122 -1 -166
v -113 -1 -173
v -274 -1 -39
v -281 -1 -41
v -272 -1 -57
v -263 -1 -43
v -259 -1 -51
v -270 -1 -64
v -262 -1 -61
v -257 -1 -54
v -287 -1 -50
v -290 -1 -54
v -281 -1 -61
v -4 -1 -69
v -11 -1 -71
v -2 -1 -87
v 7 -1 -73
v 11 -1 -81
v 0 -1 -94
v 8 -1 -91
v 13 -1 -84
v -17 -1 -80
v -20 -1 -84
v -11 -1 -91
v -159 -1 -82
v -166 -1 -84
v -157 -1 -100
v -148 -1 -86
v -144 -1 -94
v -155 -1 -107
v -147 -1 -104
v -142 -1 -97
v -172 -1 -93
v -175 -1 -97
v -166 -1 -104
v 169 -1 -61
v 162 -1 -63
v 171 -1 -79
v 180 -1 -65
v 184 -1 -73
v 173 -1 -86
v 181 -1 -83
v 186 -1 -76
v 156 -1 -72
v 153 -1 -76
v 162 -1 -83
v 276 -1 -51
v 269 -1 -53
v 278 -1 -69
v 287 -1 -55
v 291 -1 -63
v 280 -1 -76
v 288 -1 -73
v 293 -1 -66
v 263 -1 -62
v 260 -1 -66
v 269 -1 -73
v 65 -1 -136
v 58 -1 -138
v 67 -1 -154
v 76 -1 -140
v 80 -1 -148
v 69 -1 -161
v 77 -1 -158
v 82 -1 -151
v 52 -1 -147
v 49 -1 -151
v 58 -1 -158
v -285 -1 -165
v -294 -1 -168
v -292 -1 -173
v -287 -1 -171
v -269 -1 -90
v -278 -1 -93
v -276 -1 -98
v -271 -1 -96
v -227 -1 -73
v -236 -1 -76
v -234 -1 -81
v -229 -1 -79
v -113 -1 -98
v -122 -1 -101
v -120 -1 -106
v -115 -1 -104
v -98 -1 -76
v -107 -1 -79
v -105 -1 -84
v -100 -1 -82
v -53 -1 -124
v -62 -1 -127
v -60 -1 -132
v -55 -1 -130
v 10 -1 -144
v 1 -1 -147
v 3 -1 -152
v 8 -1 -150
v 30 -1 -110
v 21 -1 -113
v 23 -1 -118
v 28 -1 -116
v 80 -1 -97
v 71 -1 -100
v 73 -1 -105
v 78 -1 -103
v 101 -1 -111
v 92 -1 -114
v 94 -1 -119
v 99 -1 -117
v 140 -1 -154
v 131 -1 -157
v 133 -1 -162
v 138 -1 -160
v 206 -1 -139
v 197 -1 -142
v 199 -1 -147
v 204 -1 -145
v 235 -1 -156
v 226 -1 -159
v 228 -1 -164
v 233 -1 -162
v 283 -1 -105
v 274 -1 -108
v 276 -1 -113
v 281 -1 -111
v 294 -1 -149
v 285 -1 -152
v 287 -1 -157
v 292 -1 -155
v 209 -1 -60
v 200 -1 -63
v 202 -1 -68
v 207 -1 -66
v 243 -1 -66
v 234 -1 -69
v 236 -1 -74
v 241 -1 -72
v 101 -2 10
v 98 -2 -6
v 109 -2 -11
v 105 -2 15
v 98 -2 44
v 114 -2 23
v 112 -2 -1
v 119 -2 8
v 121 -2 24
v 122 -2 39
v 142 -2 31
v 137 -2 11
v 147 -2 18
v 149 -2 35
v 146 -2 58
v 70 -2 6
v 73 -2 -15
v 86 -2 -14
v 77 -2 4
v 74 -2 25
v 214 -1 12
v 211 -1 -4
v 222 -1 -9
v 218 -1 17
v 211 -1 46
v 227 -1 25
v 225 -1 1
v 232 -1 10
v 234 -1 26
v 235 -1 41
v 255 -1 33
v 250 -1 13
v 260 -1 20
v 262 -1 37
v 259 -1 60
v 183 -1 8
v 186 -1 -13
v 199 -1 -12
v 190 -1 6
v 187 -1 27
v -128 -2 -5
v -131 -2 -21
v -120 -2 -26
v -124 -2 0
v -131 -2 29
v -115 -2 8
v -117 -2 -16
v -110 -2 -7
v -108 -2 9
v -107 -2 24
v -87 -2 16
v -92 -2 -4
v -82 -2 3
v -80 -2 20
v -83 -2 43
v -159 -2 -9
v -156 -2 -30
v -143 -2 -29
v -152 -2 -11
v -155 -2 10
v 27 -2 17
v 24 -2 1
v 35 -2 -4
v 31 -2 22
v 24 -2 51
v 40 -2 30
v 38 -2 6
v 45 -2 15
v 47 -2 31
v 48 -2 46
v 68 -2 38
v 63 -2 18
v 73 -2 25
v 75 -2 42
v 72 -2 65
v -4 -2 13
v -1 -2 -8
v 12 -2 -7
v 3 -2 11
v 0 -2 32
v -275 -2 56
v -278 -2 40
v -267 -2 35
v -271 -2 61
v -278 -2 90
v -261 -2 66
v -264 -2 51
v -254 -2 56
v -257 -2 64
v -254 -2 85
v -240 -2 73
v -245 -2 64
v -236 -2 63
v -234 -2 80
v -239 -2 96
v -306 -2 52
v -303 -2 31
v -290 -2 32
v -299 -2 50
v -302 -2 71
v 139 0 236
v -160 0 234
v 141 0 -197

f 1 2 3
f 1 3 4
f 5 6 7
f 5 7 8
f 5 8 9
f 10 11 12
f 10 12 13
f 10 13 14
f 15 16 17
f 15 17 18
f 15 18 19
f 20 21 22
f 20 22 23
f 20 23 24
f 25 26 27
f 25 27 28
f 29 30 31
f 29 31 32
f 32 31 33
f 32 33 34
f 31 30 35
f 31 35 36
f 31 36 37
f 31 37 33
f 36 35 38
f 36 38 39
f 36 39 40
f 36 40 37
f 39 38 41
f 39 41 42
f 39 42 40
f 40 42 43
f 44 45 46
f 44 46 47
f 44 47 48
f 49 50 51
f 49 51 52
f 49 52 53
f 54 55 56
f 54 56 57
f 54 57 58
f 59 60 61
f 59 61 62
f 59 62 63
f 64 65 66
f 64 66 67
f 64 67 68
f 69 70 71
f 69 71 72
f 69 72 73
f 74 75 76
f 74 76 77
f 74 77 78
f 79 80 81
f 79 81 82
f 79 82 83
f 79 83 84
f 84 83 85
f 84 85 86
f 86 85 87
f 86 87 88
f 82 81 89
f 82 89 90
f 82 90 83
f 83 90 91
f 83 91 85
f 85 91 92
f 85 92 93
f 85 93 87
f 94 95 96
f 94 96 97
f 94 97 98
f 94 98 99
f 97 96 100
f 97 100 101
f 97 101 102
f 97 102 98
f 101 100 103
f 101 103 104
f 101 104 105
f 101 105 102
f 104 103 106
f 104 106 107
f 104 107 108
f 104 108 105
f 107 106 109
f 110 111 112
f 110 112 113
f 113 112 114
f 114 112 115
f 114 115 116
f 112 117 118
f 112 118 115
f 111 117 112
f 119 120 121
f 119 121 122
f 123 124 125
f 123 125 126
f 123 126 127
f 127 126 128
f 127 128 129
f 129 128 130
f 129 130 131
f 131 130 132
f 131 132 133
f 133 132 134
f 134 132 135
f 134 135 136
f 136 135 137
f 136 137 138
f 138 137 139
f 138 139 140
f 140 139 141
f 140 141 142
f 142 141 143
f 142 143 144
f 144 143 145
f 144 145 146
f 146 145 147
f 146 147 148
f 148 147 149
f 148 149 150
f 126 125 151
f 126 151 152
f 126 152 128
f 128 152 153
f 128 153 130
f 130 153 154
f 130 154 132
f 132 154 135
f 135 154 155
f 135 155 137
f 137 155 156
f 137 156 139
f 139 156 157
f 139 157 141
f 141 157 158
f 141 158 143
f 143 158 159
f 143 159 145
f 145 159 160
f 145 160 147
f 147 160 161
f 147 161 149
f 152 151 162
f 152 162 163
f 152 163 153
f 153 163 164
f 153 164 154
f 154 164 155
f 155 164 165
f 155 165 156
f 156 165 166
f 156 166 157
f 157 166 167
f 157 167 158
f 158 167 168
f 158 168 159
f 159 168 169
f 159 169 160
f 160 169 170
f 160 170 161
f 163 162 171
f 163 171 172
f 163 172 164
f 164 172 165
f 165 172 173
f 165 173 166
f 166 173 174
f 166 174 167
f 167 174 175
f 167 175 168
f 168 175 176
f 168 176 169
f 169 176 177
f 169 177 170
f 172 171 178
f 172 178 173
f 173 178 179
f 173 179 174
f 174 179 180
f 174 180 175
f 175 180 181
f 175 181 176
f 176 181 182
f 176 182 177
f 183 184 185
f 183 185 186
f 186 185 187
f 187 185 188
f 187 188 189
f 185 190 191
f 185 191 188
f 184 190 185
f 192 193 194
f 192 194 195
f 195 194 196
f 196 194 197
f 196 197 198
f 194 199 200
f 194 200 197
f 193 199 194
f 201 202 203
f 201 203 204
f 204 203 205
f 205 203 206
f 205 206 207
f 203 208 209
f 203 209 206
f 202 208 203
f 210 211 212
f 210 212 213
f 213 212 214
f 214 212 215
f 214 215 216
f 212 217 218
f 212 218 215
f 211 217 212
f 219 220 221
f 219 221 222
f 222 221 223
f 223 221 224
f 223 224 225
f 221 226 227
f 221 227 224
f 220 226 221
f 228 229 230
f 228 230 231
f 231 230 232
f 232 230 233
f 232 233 234
f 230 235 236
f 230 236 233
f 229 235 230
f 237 238 239
f 237 239 240
f 241 242 243
f 241 243 244
f 245 246 247
f 245 247 248
f 249 250 251
f 249 251 252
f 253 254 255
f 253 255 256
f 257 258 259
f 257 259 260
f 261 262 263
f 261 263 264
f 265 266 267
f 265 267 268
f 269 270 271
f 269 271 272
f 273 274 275
f 273 275 276
f 277 278 279
f 277 279 280
f 281 282 283
f 281 283 284
f 285 286 287
f 285 287 288
f 285 288 289
f 290 291 292
f 290 292 293
f 290 293 294
f 295 296 297
f 295 297 298
f 295 298 299
f 300 301 302
f 300 302 303
f 300 303 304
f 305 306 307
f 305 307 308
f 305 308 309
f 310 311 312
f 310 312 313
f 310 313 314
f 315 316 317
f 315 317 318
f 315 318 319
f 320 321 322
f 320 322 323
f 320 323 324
f 325 326 327
f 325 327 328
f 325 328 329
f 330 331 332
f 330 332 333
f 330 333 334
f 335 336 337
f 335 337 338
f 335 338 339
f 340 341 342
f 340 342 343
f 340 343 344
f 345 346 347
f 345 347 348
f 345 348 349
f 350 351 352
f 350 352 353
f 350 353 354
f 355 356 357
f 355 357 358
f 355 358 359
f 360 361 362
f 360 362 363
f 360 363 364
f 365 366 367
f 365 367 368
f 365 368 369
f 370 371 372
f 370 372 373
f 370 373 374
f 375 376 377
f 375 377 378
f 375 378 379
f 380 381 382
f 380 382 383
f 380 383 384
f 385 386 387
f 385 387 388
f 385 388 389
f 390 391 392
f 390 392 393
f 390 393 394
f 395 396 397
f 395 397 398
f 395 398 399
f 400 401 402
f 400 402 403
f 400 403 404
f 405 406 407
f 405 407 408
f 405 408 409
f 410 411 412
f 410 412 413
f 410 413 414
f 415 416 417
f 415 417 418
f 415 418 419
f 420 421 422
f 420 422 423
f 420 423 424
f 425 426 427
f 425 427 428
f 425 428 429
f 430 431 432
f 430 432 433
f 430 433 434
f 435 436 437
f 435 437 438
f 435 438 439
f 440 441 442
f 440 442 443
f 440 443 444
f 445 446 447
f 445 447 448
f 445 448 449
f 450 451 452
f 450 452 453
f 450 453 454
f 455 456 457
f 455 457 458
f 455 458 459
f 460 461 462
f 460 462 463
f 460 463 464
f 465 466 467
f 465 467 468
f 465 468 469
f 470 471 472
f 470 472 473
f 470 473 474
f 475 476 477
f 475 477 478
f 475 478 479
f 480 481 482
f 480 482 483
f 480 483 484
f 485 486 487
f 485 487 488
f 485 488 489
f 490 491 492
f 490 492 493
f 490 493 494
f 495 496 497
f 495 497 498
f 495 498 499
f 500 501 502
f 500 502 503
f 500 503 504
f 505 506 507
f 505 507 508
f 505 508 509
f 510 511 512
f 510 512 513
f 510 513 514
f 515 516 517
f 515 517 518
f 515 518 519
f 520 521 522
f 520 522 523
f 520 523 524
f 525 526 527
f 525 527 528
f 525 528 529
f 530 531 532
f 530 532 533
f 530 533 534
f 535 536 537
f 535 537 538
f 535 538 539
f 540 541 542
f 540 542 543
f 540 543 544
f 545 546 547
f 545 547 548
f 545 548 549
f 550 551 552
f 550 552 553
f 550 553 554
f 555 556 557
f 555 557 558
f 555 558 559
f 560 561 562
f 560 562 563
f 560 563 564
f 565 566 567
f 565 567 568
f 568 567 569
f 569 567 570
f 569 570 571
f 569 571 572
f 567 573 574
f 567 574 575
f 567 575 570
f 566 573 567
f 576 577 578
f 576 578 579
f 579 578 580
f 580 578 581
f 580 581 582
f 580 582 583
f 578 584 585
f 578 585 586
f 578 586 581
f 577 584 578
f 587 588 589
f 587 589 590
f 590 589 591
f 591 589 592
f 591 592 593
f 591 593 594
f 589 595 596
f 589 596 597
f 589 597 592
f 588 595 589
f 598 599 600
f 598 600 601
f 601 600 602
f 602 600 603
f 602 603 604
f 602 604 605
f 600 606 607
f 600 607 608
f 600 608 603
f 599 606 600
f 609 610 611
f 609 611 612
f 612 611 613
f 613 611 614
f 613 614 615
f 613 615 616
f 611 617 618
f 611 618 619
f 611 619 614
f 610 617 611
f 620 621 622
f 620 622 623
f 623 622 624
f 624 622 625
f 624 625 626
f 624 626 627
f 622 628 629
f 622 629 630
f 622 630 625
f 621 628 622
f 631 632 633
f 631 633 634
f 634 633 635
f 635 633 636
f 635 636 637
f 635 637 638
f 633 639 640
f 633 640 641
f 633 641 636
f 632 639 633
f 642 643 644
f 642 644 645
f 646 647 648
f 646 648 649
f 650 651 652
f 650 652 653
f 654 655 656
f 654 656 657
f 658 659 660
f 658 660 661
f 662 663 664
f 662 664 665
f 666 667 668
f 666 668 669
f 670 671 672
f 670 672 673
f 674 675 676
f 674 676 677
f 678 679 680
f 678 680 681
f 682 683 684
f 682 684 685
f 686 687 688
f 686 688 689
f 690 691 692
f 690 692 693
f 694 695 696
f 694 696 697
f 698 699 700
f 698 700 701
f 702 703 704
f 702 704 705
f 706 707 708
f 706 708 709
f 710 711 712
f 710 712 713
f 710 713 714
f 715 716 717
f 715 717 718
f 715 718 719
f 720 721 722
f 720 722 723
f 720 723 724
f 725 726 727
f 725 727 728
f 725 728 729
f 730 731 732
f 730 732 733
f 730 733 734
f 735 736 737
f 735 737 738
f 735 738 739
f 740 741 742
f 740 742 743
f 740 743 744
f 745 746 747
f 745 747 748
f 745 748 749
f 750 751 752
f 750 752 753
f 750 753 754
f 755 756 757
f 755 757 758
f 755 758 759
f 760 761 762
f 760 762 763
f 760 763 764
f 765 766 767
f 765 767 768
f 765 768 769
f 770 771 772
f 770 772 773
f 770 773 774
f 775 776 777
f 775 777 778
f 775 778 779
f 780 781 782
f 780 782 783
f 780 783 784
f 785 786 787
f 785 787 788
f 785 788 789
f 790 791 792
f 790 792 793
f 790 793 794
f 795 796 797
f 795 797 798
f 795 798 799
f 800 801 802
f 800 802 803
f 800 803 804
f 805 806 807
f 805 807 808
f 805 808 809
