# RS2 Model 19600
# Vertices: 53
# Faces: 49

v -14 0 -64
v 3 0 -56
v -15 0 -54
v -13 0 -51
v 2 0 -49
v -12 0 -48
v -1 0 2
v -24 0 -42
v -31 0 -42
v -39 0 -42
v -27 0 -59
v -22 0 -56
v -24 0 -64
v 10 0 -57
v 12 0 -52
v 33 0 -42
v 49 0 -37
v 59 0 -26
v 61 0 2
v 4 0 64
v -58 0 -26
v -53 0 -35
v -63 0 6
v -60 0 44
v -49 0 64
v 56 0 41
v 49 0 64
v 2 0 -64
v 10 0 -64
v -48 -1 -28
v -41 -1 -20
v -52 -1 -5
v -54 -1 -12
v -36 -1 -38
v -32 -1 -26
v -17 -1 -35
v -9 -1 -27
v 45 -1 -9
v 52 -1 -17
v 55 -1 3
v 53 -1 10
v 33 -1 -19
v 37 -1 -31
v 10 -1 -20
v 18 -1 -28
v 8 -1 29
v 6 -1 20
v 21 -1 25
v 28 -1 32
v -6 -1 35
v -12 -1 27
v -15 -1 55
v -17 -1 46

f 1 2 3
f 3 2 4
f 4 2 5
f 4 5 6
f 6 5 7
f 6 7 8
f 8 7 9
f 9 7 10
f 9 10 11
f 9 11 12
f 12 11 13
f 12 13 1
f 2 14 15
f 2 15 5
f 5 15 7
f 7 15 16
f 7 16 17
f 7 17 18
f 7 18 19
f 7 19 20
f 7 20 21
f 7 21 10
f 10 21 22
f 21 20 23
f 23 20 24
f 24 20 25
f 20 19 26
f 20 26 27
f 1 28 2
f 2 28 14
f 14 28 29
f 30 31 32
f 30 32 33
f 31 30 34
f 31 34 35
f 35 34 36
f 35 36 37
f 38 39 40
f 38 40 41
f 39 38 42
f 39 42 43
f 43 42 44
f 43 44 45
f 46 47 48
f 46 48 49
f 47 46 50
f 47 50 51
f 51 50 52
f 51 52 53
