# RS2 Model 19623
# Vertices: 140
# Faces: 124

v -3 -2 55
v -10 -2 64
v -10 -2 62
v -5 -2 56
v -10 -2 41
v -5 -2 37
v -5 -2 33
v 8 -2 25
v 4 -2 31
v 8 -2 29
v 8 -2 46
v 3 -2 49
v 12 -2 46
v 2 -2 62
v -2 -2 64
v -11 -2 64
v 64 -2 64
v 47 -2 64
v 64 -2 58
v 48 -2 57
v 28 -2 57
v 31 -2 45
v 37 -2 47
v 42 -2 51
v 38 -2 23
v 43 -2 23
v 44 -2 19
v 64 -2 18
v 64 -2 22
v 40 -2 64
v -44 -1 52
v -28 -1 62
v -33 -1 61
v -42 -1 56
v -34 -1 64
v -45 -1 64
v 13 -2 55
v 19 -2 44
v 24 -2 43
v 20 -2 26
v 25 -2 25
v 25 -2 21
v 8 -2 16
v 25 -2 12
v 44 -2 10
v 64 -2 9
v -16 -2 45
v -19 -2 45
v -15 -2 35
v -5 -2 26
v -14 -1 26
v -19 -1 42
v -39 -1 33
v -37 -1 20
v 8 -1 17
v 2 -1 26
v -35 -1 16
v -31 -1 1
v 8 -1 -13
v 5 -1 9
v -25 -1 -6
v -24 -1 -18
v 30 -1 -28
v 24 -1 -11
v -16 -1 -24
v -15 -1 -36
v 19 -1 -49
v 17 -1 -34
v -9 -1 -41
v -8 -1 -53
v 35 -1 -61
v 33 -1 -50
v -1 -1 -54
v -1 -1 -62
v 40 -1 40
v 40 -1 55
v -14 -1 45
v -10 -1 30
v 41 -1 25
v 40 -1 37
v 12 -1 30
v 13 -1 18
v 42 -1 0
v 42 -1 22
v 11 -1 12
v 14 -1 -6
v 47 -1 -26
v 47 -1 -5
v 29 -1 -9
v 35 -1 -27
v 55 -1 -45
v 47 -1 -29
v 24 -1 -33
v 25 -1 -48
v 61 -1 -63
v 62 -1 -48
v 40 -1 -48
v 41 -1 -60
v 36 -1 50
v 45 -1 31
v 50 -1 36
v 44 -1 50
v 42 -1 64
v 50 -1 64
v 53 -1 50
v 57 -1 57
v 64 -1 61
v 64 -1 50
v 57 -1 43
v 64 -1 39
v 64 -1 30
v -26 -1 64
v -24 -1 64
v -2 -1 55
v -6 -1 64
v -42 -1 50
v -41 -1 38
v -18 -1 64
v 44 -1 64
v 0 -1 57
v 64 0 -64
v 64 0 -44
v -16 0 -44
v -5 0 -64
v 52 0 -27
v -25 0 -24
v 44 0 16
v -33 0 -5
v 47 0 49
v -40 0 19
v 25 0 64
v -7 0 64
v -24 0 64
v -28 0 62
v -44 0 52
v 64 0 -27
v 64 0 16
v 64 0 50
v 48 0 64
v 64 0 64

f 1 2 3
f 1 3 4
f 4 3 5
f 4 5 6
f 6 5 7
f 6 7 8
f 6 8 9
f 9 8 10
f 9 10 11
f 9 11 12
f 12 11 13
f 12 13 1
f 1 13 14
f 1 14 15
f 1 15 2
f 2 16 3
f 17 18 19
f 19 18 20
f 20 18 21
f 20 21 22
f 20 22 23
f 20 23 24
f 24 23 25
f 24 25 26
f 26 25 27
f 26 27 28
f 26 28 29
f 18 30 21
f 31 32 33
f 31 33 34
f 34 33 35
f 34 35 36
f 22 21 37
f 22 37 13
f 22 13 38
f 22 38 39
f 39 38 40
f 39 40 41
f 41 40 42
f 41 42 27
f 41 27 25
f 13 37 14
f 42 40 10
f 42 10 8
f 42 8 43
f 42 43 44
f 42 44 27
f 27 44 45
f 27 45 28
f 28 45 46
f 7 5 47
f 7 47 48
f 7 48 49
f 7 49 50
f 7 50 8
f 8 50 43
f 51 52 53
f 51 53 54
f 55 56 57
f 55 57 58
f 59 60 61
f 59 61 62
f 63 64 65
f 63 65 66
f 67 68 69
f 67 69 70
f 71 72 73
f 71 73 74
f 75 76 77
f 75 77 78
f 79 80 81
f 79 81 82
f 83 84 85
f 83 85 86
f 87 88 89
f 87 89 90
f 91 92 93
f 91 93 94
f 95 96 97
f 95 97 98
f 99 100 101
f 99 101 102
f 99 102 103
f 103 102 104
f 104 102 105
f 104 105 106
f 104 106 17
f 17 106 107
f 107 106 108
f 108 106 105
f 108 105 109
f 108 109 110
f 110 109 101
f 110 101 111
f 111 101 100
f 111 100 29
f 102 101 109
f 102 109 105
f 112 32 113
f 114 115 116
f 114 116 117
f 115 118 116
f 119 15 120
f 121 122 123
f 121 123 124
f 122 125 126
f 122 126 123
f 125 127 128
f 125 128 126
f 128 127 129
f 128 129 130
f 130 129 131
f 130 131 132
f 130 132 133
f 130 133 134
f 130 134 135
f 125 122 136
f 125 136 127
f 127 136 137
f 127 137 129
f 129 137 138
f 129 138 139
f 129 139 131
f 139 138 140
