# RS2 Model 19705
# Vertices: 64
# Faces: 56

v -64 0 -3
v -64 0 -26
v -31 0 -22
v -28 0 -4
v 10 0 -27
v 8 0 -5
v 43 0 -27
v 25 0 -7
v -64 0 -50
v -64 0 -55
v -28 0 -56
v -28 0 -51
v -64 0 -45
v -26 0 -41
v -64 0 -40
v -27 0 -36
v 8 0 -42
v 43 0 -33
v -64 0 -64
v -27 0 -64
v 12 0 -64
v 8 0 -57
v 8 0 -52
v 8 0 -47
v 39 0 -42
v 37 0 -53
v 37 0 -48
v 43 0 -64
v 51 0 -64
v 51 0 -58
v 47 0 -60
v 64 0 -64
v 60 0 -61
v -55 -1 -3
v -56 -1 -9
v -50 -1 -9
v -52 -1 0
v -57 -1 8
v -28 -1 -1
v -28 -1 -8
v -22 -1 -8
v -23 -1 -2
v -31 -1 9
v -6 -1 -2
v -6 -1 -8
v 0 -1 -8
v -3 -1 0
v -6 -1 9
v -43 -1 2
v -43 -1 -5
v -37 -1 -5
v -38 -1 1
v -39 -1 12
v 19 -1 -2
v 20 -1 -11
v 26 -1 -11
v 23 -1 -3
v 20 -1 6
v 108 0 -105
v 108 0 -13
v -4 0 -105
v -64 0 29
v -64 0 -64
v 80 0 26

f 1 2 3
f 1 3 4
f 4 3 5
f 4 5 6
f 6 5 7
f 6 7 8
f 9 10 11
f 9 11 12
f 9 12 13
f 13 12 14
f 13 14 15
f 15 14 16
f 15 16 2
f 2 16 3
f 3 16 17
f 3 17 5
f 5 17 18
f 5 18 7
f 10 19 20
f 10 20 11
f 11 20 21
f 11 21 22
f 11 22 12
f 12 22 23
f 12 23 14
f 14 23 24
f 14 24 16
f 16 24 17
f 17 24 25
f 17 25 18
f 23 22 26
f 23 26 27
f 23 27 24
f 24 27 25
f 22 21 28
f 22 28 26
f 28 29 30
f 28 30 31
f 29 32 33
f 29 33 30
f 34 35 36
f 34 36 37
f 34 37 38
f 39 40 41
f 39 41 42
f 39 42 43
f 44 45 46
f 44 46 47
f 44 47 48
f 49 50 51
f 49 51 52
f 49 52 53
f 54 55 56
f 54 56 57
f 54 57 58
f 59 60 61
