# RS2 Model 19711
# Vertices: 30
# Faces: 20

v -64 0 64
v -64 0 -64
v 64 0 -64
v 64 0 64
v -64 -1 -26
v -64 -1 -64
v 4 -1 -64
v -38 -1 42
v 4 -1 52
v 64 -1 -64
v 39 -1 43
v 64 -1 2
v -51 -2 -45
v -38 -2 -44
v -17 -2 -29
v -25 -2 -19
v 15 -2 -24
v 17 -2 -10
v 40 -2 -31
v 49 -2 -28
v -33 -2 64
v -49 -2 64
v -52 -2 3
v -41 -2 10
v 62 -2 64
v 50 -2 64
v 49 -2 35
v 61 -2 30
v 45 -2 -40
v 52 -2 -29

f 1 2 3
f 1 3 4
f 5 6 7
f 5 7 8
f 8 7 9
f 9 7 10
f 9 10 11
f 11 10 12
f 13 14 15
f 13 15 16
f 16 15 17
f 16 17 18
f 18 17 19
f 18 19 20
f 21 22 23
f 21 23 24
f 25 26 27
f 25 27 28
f 28 27 29
f 28 29 30
