# RS2 Model 19758
# Vertices: 93
# Faces: 108

v -64 6 -30
v 64 6 -30
v 64 6 64
v -64 6 64
v -64 6 -40
v -37 0 -40
v -39 0 -28
v -64 0 -31
v -35 0 -25
v -64 0 -28
v -31 0 -42
v -18 0 -40
v 33 0 -40
v 36 0 -30
v -23 0 -29
v -27 0 -26
v -22 0 -43
v -21 0 -51
v -16 0 -50
v 35 0 -50
v 37 0 -43
v 40 0 -27
v 47 0 -40
v 64 6 -40
v 64 0 -31
v 49 0 -33
v 45 0 -30
v 44 0 -43
v 44 0 -53
v 47 0 -50
v 64 6 -50
v 47 0 -56
v 64 0 -56
v 44 0 -59
v 64 0 -59
v 64 0 -28
v -56 0 -17
v -5 0 -14
v -5 0 12
v -58 0 15
v -62 0 18
v -60 0 -20
v -1 0 -17
v -1 0 15
v 9 0 -16
v 58 0 -11
v 57 0 16
v 10 0 17
v 6 0 20
v 5 0 -19
v 61 0 -14
v 61 0 20
v -64 6 -50
v -64 6 -57
v 64 6 -57
v -64 6 -64
v 64 6 -64
v -37 0 -50
v -31 0 -52
v -37 0 -57
v -31 0 -59
v -64 0 -59
v -64 0 -56
v 38 0 -51
v 33 0 -57
v 35 0 -60
v -19 0 -60
v -15 0 -57
v -18 0 52
v -57 0 55
v -56 0 26
v -19 0 32
v -15 0 29
v -14 0 55
v -61 0 58
v -60 0 23
v 49 0 52
v -7 0 54
v -7 0 31
v 53 0 30
v 57 0 27
v 53 0 55
v -11 0 57
v -11 0 28
v 64 -4 64
v 0 -4 64
v 0 -4 48
v 64 -4 48
v -64 -4 64
v -64 -4 48
v 52 0 -64
v 52 0 115
v -49 0 -64

f 1 2 3
f 1 3 4
f 5 6 7
f 5 7 8
f 8 7 9
f 8 9 10
f 7 6 11
f 7 11 9
f 12 13 14
f 12 14 15
f 12 15 16
f 12 16 17
f 12 17 18
f 12 18 19
f 12 19 13
f 13 19 20
f 13 20 21
f 13 21 14
f 14 21 22
f 14 22 15
f 15 22 16
f 23 24 25
f 23 25 26
f 23 26 27
f 23 27 28
f 23 28 29
f 23 29 30
f 23 30 24
f 24 30 31
f 31 30 32
f 31 32 33
f 33 32 34
f 33 34 35
f 26 25 36
f 26 36 27
f 37 38 39
f 37 39 40
f 37 40 41
f 37 41 42
f 37 42 38
f 38 42 43
f 38 43 39
f 39 43 44
f 39 44 40
f 40 44 41
f 45 46 47
f 45 47 48
f 45 48 49
f 45 49 50
f 45 50 46
f 46 50 51
f 46 51 52
f 46 52 47
f 47 52 48
f 48 52 49
f 2 1 5
f 2 5 24
f 24 5 53
f 24 53 31
f 31 53 54
f 31 54 55
f 55 54 56
f 55 56 57
f 6 5 53
f 6 53 58
f 6 58 11
f 11 58 59
f 59 58 60
f 59 60 61
f 61 60 62
f 62 60 63
f 63 60 58
f 63 58 53
f 21 20 64
f 64 20 65
f 64 65 66
f 66 65 67
f 67 65 68
f 67 68 19
f 67 19 18
f 20 19 68
f 20 68 65
f 30 29 34
f 30 34 32
f 69 70 71
f 69 71 72
f 69 72 73
f 69 73 74
f 69 74 70
f 70 74 75
f 70 75 71
f 71 75 76
f 71 76 72
f 72 76 73
f 77 78 79
f 77 79 80
f 77 80 81
f 77 81 82
f 77 82 78
f 78 82 83
f 78 83 79
f 79 83 84
f 79 84 80
f 80 84 81
f 85 86 87
f 85 87 88
f 86 89 90
f 86 90 87
