# RS2 Model 19765
# Vertices: 175
# Faces: 134

v 8 1 24
v 8 1 -64
v 56 1 -64
v 56 1 24
v -56 1 24
v -56 1 -64
v -8 1 -64
v -8 1 24
v 64 2 64
v -64 2 64
v -64 2 -64
v 64 2 -64
v 57 0 57
v 18 0 54
v 19 0 34
v 56 0 28
v 60 0 25
v 61 0 60
v 14 0 57
v 15 0 31
v 7 0 56
v -49 0 54
v -53 0 32
v 7 0 33
v 11 0 30
v 11 0 59
v -53 0 57
v -57 0 29
v 64 4 18
v 34 4 17
v 39 4 -10
v 64 4 -7
v 35 4 -13
v 64 4 -10
v 64 4 21
v 30 4 20
v 21 4 21
v -33 4 17
v -36 4 -8
v 23 4 -9
v 27 4 -12
v 25 4 24
v -37 4 20
v -40 4 -11
v -46 4 16
v -64 4 18
v -64 4 -7
v -49 4 -5
v -45 4 -8
v -42 4 19
v -64 4 21
v -64 4 -10
v 56 4 -21
v 5 4 -24
v 5 4 -50
v 58 4 -53
v 62 4 -56
v 60 4 -18
v 1 4 -21
v 1 4 -53
v -9 4 -22
v -58 4 -27
v -57 4 -54
v -10 4 -55
v -6 4 -58
v -5 4 -19
v -61 4 -24
v -61 4 -58
v 8 0 -64
v 8 -1 -22
v 8 0 24
v 8 0 -18
v 26 -1 -64
v 56 -1 -12
v 56 -1 -6
v 22 -1 -64
v 44 -1 -64
v 56 -1 -44
v 56 -1 -38
v 40 -1 -64
v 8 -1 -28
v 40 -1 24
v 36 -1 24
v 56 0 18
v 56 0 24
v 8 0 -58
v 8 -1 4
v 20 -1 24
v 16 -1 24
v 8 -1 10
v 42 -1 -64
v 8 -1 -6
v 8 -1 -12
v 38 -1 -64
v 24 -1 -64
v 8 -1 -38
v 8 -1 -44
v 20 -1 -64
v 56 -1 -22
v 28 -1 24
v 24 -1 24
v 56 -1 -28
v 56 0 -58
v 8 0 18
v 56 0 -64
v 56 -1 10
v 48 -1 24
v 44 -1 24
v 56 -1 4
v -38 -1 -64
v -8 -1 -12
v -8 -1 -6
v -42 -1 -64
v -20 -1 -64
v -8 -1 -44
v -8 -1 -38
v -24 -1 -64
v -56 -1 -28
v -24 -1 24
v -28 -1 24
v -56 -1 -22
v -56 0 -64
v -8 0 18
v -8 0 24
v -56 0 -58
v -56 -1 4
v -44 -1 24
v -48 -1 24
v -56 -1 10
v -22 -1 -64
v -56 -1 -6
v -56 -1 -12
v -26 -1 -64
v -40 -1 -64
v -56 -1 -38
v -56 -1 -44
v -44 -1 -64
v -8 -1 -22
v -36 -1 24
v -40 -1 24
v -8 -1 -28
v -8 0 -58
v -56 0 24
v -56 0 18
v -8 0 -64
v -8 -1 10
v -16 -1 24
v -20 -1 24
v -8 -1 4
v -8 0 -18
v 64 -6 64
v -64 -6 64
v -64 -6 50
v 64 -6 50
v -64 -6 43
v 64 -6 43
v -64 -6 36
v 64 -6 36
v 0 -2 -64
v 8 -2 -64
v 8 -2 24
v 0 -2 32
v -8 -2 -64
v -8 -2 24
v -56 -2 24
v -64 -2 32
v -64 -2 -64
v -56 -2 -64
v 64 -2 32
v 56 -2 24
v 56 -2 -64
v 64 -2 -64
v 38 0 -64
v 38 0 91
v -37 0 -64

f 1 2 3
f 1 3 4
f 5 6 7
f 5 7 8
f 9 10 11
f 9 11 12
f 13 14 15
f 13 15 16
f 13 16 17
f 13 17 18
f 13 18 14
f 14 18 19
f 14 19 15
f 15 19 20
f 15 20 16
f 16 20 17
f 21 22 23
f 21 23 24
f 21 24 25
f 21 25 26
f 21 26 22
f 22 26 27
f 22 27 23
f 23 27 28
f 23 28 24
f 24 28 25
f 29 30 31
f 29 31 32
f 32 31 33
f 32 33 34
f 30 29 35
f 30 35 36
f 30 36 31
f 31 36 33
f 37 38 39
f 37 39 40
f 37 40 41
f 37 41 42
f 37 42 38
f 38 42 43
f 38 43 39
f 39 43 44
f 39 44 40
f 40 44 41
f 45 46 47
f 45 47 48
f 45 48 49
f 45 49 50
f 45 50 46
f 46 50 51
f 48 47 52
f 48 52 49
f 53 54 55
f 53 55 56
f 53 56 57
f 53 57 58
f 53 58 54
f 54 58 59
f 54 59 55
f 55 59 60
f 55 60 56
f 56 60 57
f 61 62 63
f 61 63 64
f 61 64 65
f 61 65 66
f 61 66 62
f 62 66 67
f 62 67 68
f 62 68 63
f 63 68 64
f 64 68 65
f 69 70 71
f 71 70 72
f 73 74 75
f 73 75 76
f 77 78 79
f 77 79 80
f 81 82 83
f 81 83 70
f 69 84 85
f 69 85 86
f 87 88 89
f 87 89 90
f 91 92 93
f 91 93 94
f 95 96 97
f 95 97 98
f 99 100 101
f 99 101 102
f 103 71 104
f 103 104 105
f 106 107 108
f 106 108 109
f 110 111 112
f 110 112 113
f 114 115 116
f 114 116 117
f 118 119 120
f 118 120 121
f 122 123 124
f 122 124 125
f 126 127 128
f 126 128 129
f 130 131 132
f 130 132 133
f 134 135 136
f 134 136 137
f 138 139 140
f 138 140 141
f 142 143 144
f 142 144 145
f 146 147 148
f 146 148 149
f 145 124 138
f 138 124 150
f 151 152 153
f 151 153 154
f 154 153 155
f 154 155 156
f 156 155 157
f 156 157 158
f 159 160 161
f 159 161 162
f 159 162 163
f 163 162 164
f 164 162 165
f 165 162 166
f 165 166 167
f 165 167 168
f 169 170 171
f 169 171 172
f 161 170 169
f 161 169 162
