# RS2 Model 19806
# Vertices: 29
# Faces: 24

v 6 -49 20
v -6 -49 20
v 0 -116 -6
v 14 -48 12
v 14 -46 -1
v 6 -45 -9
v -6 -45 -9
v -14 -46 -1
v -14 -48 12
v -40 4 24
v -40 4 22
v -40 -18 12
v -40 -19 14
v -29 -38 6
v -29 -39 8
v -13 -44 4
v -13 -45 6
v 40 -19 14
v 40 -18 12
v 40 4 22
v 40 4 24
v 32 37 20
v 32 37 22
v 29 -39 8
v 29 -38 6
v 13 -45 6
v 13 -44 4
v -32 37 22
v -32 37 20

f 1 2 3
f 1 3 4
f 4 3 5
f 5 3 6
f 6 3 7
f 7 3 8
f 8 3 9
f 9 3 2
f 10 11 12
f 10 12 13
f 13 12 14
f 13 14 15
f 15 14 16
f 15 16 17
f 18 19 20
f 18 20 21
f 21 20 22
f 21 22 23
f 24 25 19
f 24 19 18
f 26 27 25
f 26 25 24
f 28 29 11
f 28 11 10
