# RS2 Model 19803
# Vertices: 200
# Faces: 337

v 38 -10 64
v 34 -42 40
v 45 -4 29
v 38 40 22
v 28 45 49
v 20 35 77
v 32 -37 89
v 28 -50 62
v 0 -50 62
v 0 -56 44
v -35 -44 40
v -28 -50 62
v -45 -4 31
v -39 -10 64
v -28 45 49
v -39 40 22
v 0 46 20
v -14 -2 146
v -10 16 129
v -18 12 107
v -21 -18 114
v 24 -18 114
v 20 -2 146
v 13 41 146
v -6 41 146
v -2 32 132
v 17 16 129
v 24 12 107
v 0 18 97
v -28 -37 89
v 10 32 132
v 2 55 108
v -14 35 77
v 10 67 107
v 2 52 93
v 10 64 92
v 2 74 105
v -6 67 107
v -6 64 92
v 2 71 90
v -10 -42 -14
v -9 -41 -15
v 0 -41 -16
v -3 -44 -13
v -3 -44 -11
v -8 -44 -2
v -26 -33 -13
v -13 -41 -14
v -9 -42 -17
v 0 -43 -19
v 9 -42 -17
v 9 -41 -15
v 10 -42 -14
v 3 -44 -13
v 3 -44 -11
v 4 -44 -2
v -4 -44 -2
v -7 -47 -2
v -9 -47 2
v -9 -44 2
v -16 -44 14
v -32 -40 6
v -40 -16 10
v -40 -12 2
v -16 -10 -32
v -7 -37 -31
v 13 -41 -14
v 26 -33 -13
v 8 -44 -2
v 32 -44 30
v 26 -37 23
v 37 -24 27
v 25 -39 50
v 26 -48 36
v 26 -48 35
v 16 -50 36
v 13 -44 30
v 21 -44 23
v 22 -44 21
v 32 -40 6
v 40 -16 10
v 40 -8 18
v 37 0 43
v -37 -24 27
v -27 -37 23
v -32 -44 30
v -25 -39 50
v -37 0 43
v -40 -8 18
v -22 -44 21
v -21 -44 23
v -13 -44 30
v -16 -50 36
v -26 -48 35
v -26 -48 36
v -16 -50 38
v 0 -47 46
v -6 -50 37
v -4 -50 36
v 0 -48 29
v 4 -50 36
v 6 -50 37
v 16 -50 38
v 7 -50 35
v 7 -44 24
v 14 -46 26
v 15 -46 19
v 16 -44 14
v 40 -12 2
v 40 -8 10
v 44 -8 18
v 40 4 22
v 28 39 29
v 40 8 14
v 27 16 -14
v 17 24 -21
v -17 24 -21
v -29 39 29
v -28 16 -14
v -40 8 14
v -40 4 22
v -44 -8 18
v -40 -8 10
v -44 8 14
v -38 -4 -2
v -26 31 -51
v -21 2 -54
v -3 -14 -54
v 16 -10 -32
v 6 -37 -31
v 26 31 -51
v 6 40 -50
v -6 40 -50
v 38 -4 -2
v 44 8 14
v -44 4 22
v 44 4 22
v -7 -50 35
v -7 -44 24
v -2 -44 22
v 0 -48 22
v 2 -44 22
v 6 -44 22
v -15 -46 19
v -14 -46 26
v -6 -44 22
v -6 -44 5
v -6 -47 5
v 0 -50 12
v 6 -47 5
v 6 -44 5
v 22 2 -54
v 3 -14 -54
v -12 -48 22
v 12 -48 22
v 1 -49 -2
v -1 -49 -2
v 1 -52 -2
v -1 -52 -2
v 3 -54 0
v -3 -54 0
v -6 -50 -2
v -7 -50 2
v -1 -55 5
v 8 -47 -2
v 9 -44 2
v 9 -47 2
v 7 -50 -2
v 8 -50 2
v 1 -55 5
v -13 -46 24
v -15 -46 24
v -16 -46 23
v -16 -46 21
v -15 -46 20
v -13 -46 20
v -12 -46 21
v -12 -46 23
v -13 -46 25
v -15 -46 25
v -17 -46 23
v -17 -46 21
v -13 -46 19
v -11 -46 21
v -11 -46 23
v 11 -46 23
v 11 -46 21
v 13 -46 19
v 17 -46 21
v 17 -46 23
v 15 -46 25
v 13 -46 25
v 12 -46 23
v 12 -46 21
v 13 -46 20
v 15 -46 20
v 16 -46 21
v 16 -46 23
v 15 -46 24
v 13 -46 24

f 1 2 3
f 1 3 4
f 1 4 5
f 1 5 6
f 1 6 7
f 1 7 8
f 1 8 2
f 2 8 9
f 2 9 10
f 10 9 11
f 11 9 12
f 11 12 13
f 13 12 14
f 13 14 15
f 13 15 16
f 16 15 17
f 17 15 5
f 17 5 4
f 18 19 20
f 18 20 21
f 18 21 22
f 18 22 23
f 18 23 24
f 18 24 25
f 18 25 19
f 19 25 26
f 19 26 27
f 19 27 28
f 19 28 20
f 20 28 29
f 20 29 30
f 20 30 21
f 21 30 22
f 22 30 7
f 22 7 28
f 22 28 23
f 23 28 27
f 23 27 31
f 23 31 24
f 24 31 32
f 24 32 25
f 25 32 26
f 26 32 31
f 26 31 27
f 29 6 33
f 29 33 30
f 30 33 14
f 30 14 12
f 30 12 9
f 30 9 7
f 7 9 8
f 29 7 6
f 7 29 28
f 5 15 33
f 5 33 6
f 33 15 14
f 34 32 35
f 34 35 36
f 34 36 37
f 34 37 32
f 32 37 38
f 32 38 39
f 32 39 35
f 35 39 36
f 36 39 40
f 36 40 37
f 37 40 38
f 38 40 39
f 41 42 43
f 41 43 44
f 41 44 45
f 41 45 46
f 41 46 47
f 41 47 48
f 41 48 42
f 42 48 49
f 42 49 43
f 43 49 50
f 43 50 51
f 43 51 52
f 43 52 53
f 43 53 54
f 43 54 44
f 44 54 55
f 44 55 45
f 45 55 56
f 45 56 57
f 45 57 46
f 46 57 58
f 46 58 59
f 46 59 60
f 46 60 61
f 46 61 62
f 46 62 47
f 47 62 63
f 47 63 64
f 47 64 65
f 47 65 66
f 47 66 49
f 47 49 48
f 67 53 52
f 67 52 51
f 67 51 68
f 67 68 53
f 53 68 69
f 53 69 55
f 53 55 54
f 70 71 72
f 70 72 73
f 70 73 74
f 70 74 75
f 70 75 76
f 70 76 77
f 70 77 78
f 70 78 71
f 71 78 79
f 71 79 80
f 71 80 72
f 72 80 81
f 72 81 82
f 72 82 83
f 72 83 73
f 84 85 86
f 84 86 87
f 84 87 88
f 84 88 89
f 84 89 63
f 84 63 62
f 84 62 85
f 85 62 90
f 85 90 91
f 85 91 86
f 86 91 92
f 86 92 93
f 86 93 94
f 86 94 95
f 86 95 87
f 87 95 96
f 87 96 97
f 97 96 98
f 97 98 99
f 97 99 100
f 97 100 101
f 97 101 102
f 97 102 103
f 97 103 73
f 73 103 74
f 74 103 75
f 75 103 76
f 76 103 102
f 76 102 104
f 76 104 77
f 77 104 100
f 77 100 105
f 77 105 106
f 77 106 78
f 78 106 79
f 79 106 107
f 79 107 108
f 79 108 80
f 80 108 69
f 80 69 68
f 80 68 81
f 81 68 109
f 81 109 110
f 81 110 82
f 82 110 111
f 82 111 112
f 82 112 83
f 83 112 113
f 113 112 114
f 113 114 115
f 113 115 116
f 113 116 117
f 113 117 118
f 118 117 119
f 118 119 120
f 118 120 121
f 118 121 88
f 88 121 89
f 89 121 122
f 89 122 123
f 89 123 63
f 63 123 64
f 64 123 124
f 64 124 125
f 64 125 65
f 65 125 119
f 65 119 117
f 65 117 126
f 65 126 127
f 65 127 128
f 65 128 129
f 65 129 66
f 66 129 130
f 66 130 50
f 66 50 49
f 115 129 116
f 116 129 131
f 116 131 132
f 116 132 133
f 116 133 117
f 117 133 126
f 134 115 114
f 134 114 135
f 134 135 109
f 134 109 129
f 134 129 115
f 120 119 125
f 120 125 124
f 120 124 136
f 120 136 121
f 121 136 122
f 122 136 124
f 122 124 123
f 111 135 137
f 111 137 112
f 112 137 114
f 114 137 135
f 135 111 110
f 135 110 109
f 102 101 104
f 104 101 100
f 96 93 138
f 96 138 99
f 96 99 98
f 95 94 93
f 95 93 96
f 100 99 138
f 100 138 92
f 100 92 139
f 100 139 140
f 100 140 141
f 100 141 142
f 100 142 105
f 105 142 143
f 105 143 107
f 105 107 106
f 91 90 144
f 91 144 145
f 91 145 92
f 92 145 139
f 139 145 146
f 139 146 140
f 140 146 61
f 140 61 147
f 140 147 148
f 140 148 149
f 140 149 141
f 141 149 142
f 142 149 150
f 142 150 151
f 142 151 108
f 142 108 143
f 143 108 107
f 145 144 146
f 146 144 61
f 61 144 90
f 61 90 62
f 152 131 129
f 152 129 153
f 153 129 128
f 145 91 154
f 145 154 139
f 139 154 146
f 91 90 154
f 155 78 106
f 155 106 105
f 155 105 143
f 155 79 78
f 57 56 156
f 57 156 157
f 157 156 158
f 157 158 159
f 159 158 160
f 159 160 161
f 159 161 162
f 159 162 58
f 58 162 59
f 59 162 163
f 59 163 164
f 59 164 148
f 59 148 60
f 60 148 147
f 60 147 61
f 56 69 165
f 165 69 166
f 165 166 167
f 165 167 168
f 165 168 158
f 158 168 160
f 160 168 169
f 160 169 170
f 160 170 161
f 161 170 164
f 161 164 163
f 161 163 162
f 166 69 108
f 166 108 151
f 166 151 167
f 167 151 150
f 167 150 169
f 167 169 168
f 150 170 169
f 170 150 149
f 170 149 164
f 164 149 148
f 138 93 92
f 69 56 55
f 51 50 130
f 51 130 68
f 68 130 129
f 68 129 109
f 171 172 173
f 171 173 174
f 171 174 175
f 171 175 176
f 171 176 177
f 171 177 178
f 179 180 181
f 179 181 182
f 179 182 144
f 179 144 183
f 179 183 184
f 179 184 185
f 186 187 188
f 186 188 107
f 186 107 189
f 186 189 190
f 186 190 191
f 186 191 192
f 193 194 195
f 193 195 196
f 193 196 197
f 193 197 198
f 193 198 199
f 193 199 200
