# RS2 Model 19853
# Vertices: 241
# Faces: 433

v 28 1 103
v 28 1 105
v 25 4 105
v 25 4 103
v 23 0 99
v 26 -1 99
v 31 -1 99
v 31 4 103
v 31 4 105
v 26 0 115
v 23 4 114
v 27 6 105
v 28 8 103
v 26 9 99
v 23 5 97
v 25 0 90
v 26 -1 94
v 31 -1 94
v 32 0 93
v 32 2 99
v 31 9 99
v 29 7 105
v 30 4 115
v 28 8 105
v 28 10 106
v 29 8 105
v 28 7 115
v 27 7 105
v 27 11 112
v 28 8 114
v 26 10 115
v 27 11 115
v 26 11 115
v 25 8 115
v 25 9 114
v 25 7 90
v 26 9 94
v 31 9 94
v 31 7 93
v -26 0 115
v -25 4 105
v -23 4 114
v -28 8 105
v -26 10 115
v -31 4 105
v -30 4 115
v -28 1 105
v -28 1 103
v -25 4 103
v -28 8 103
v -31 4 103
v -23 0 99
v -26 -1 94
v -25 0 90
v -23 5 97
v -26 -1 99
v -31 -1 94
v -32 0 93
v -25 7 90
v -25 9 94
v -25 9 99
v -31 9 99
v -32 2 99
v -31 -1 99
v -31 7 93
v -31 9 94
v 27 16 113
v 27 16 114
v 26 16 114
v 26 18 115
v 27 18 111
v 27 18 115
v 21 -47 105
v 19 -49 106
v 19 -45 105
v 23 -44 102
v 21 -48 103
v 20 -48 104
v 20 -49 105
v 20 -51 105
v 19 -49 107
v 17 -48 107
v 17 -48 106
v 17 -45 105
v 16 -47 106
v 16 -44 107
v 16 -47 107
v 17 -45 108
v 19 -44 108
v 19 -44 107
v 19 -44 106
v 20 -42 105
v 27 -42 103
v 31 -45 103
v 26 -48 102
v 21 -49 104
v 23 -50 103
v 26 -51 105
v 26 -51 107
v 20 -51 108
v 20 -49 108
v 21 -47 108
v 30 -48 107
v 26 -51 108
v 23 -50 110
v 21 -49 109
v 20 -48 109
v 21 -48 110
v 23 -44 110
v 20 -42 108
v 22 -39 108
v 22 -39 105
v 26 -34 99
v 30 -36 100
v 30 -40 101
v 34 -40 103
v 35 -40 107
v 32 -45 107
v 26 -48 110
v 31 -45 110
v 27 -42 110
v 26 -34 114
v 23 -31 109
v 23 -31 104
v 30 -20 107
v 32 -22 100
v 41 -31 107
v 31 -27 96
v 29 -33 97
v 31 -38 98
v 36 -39 100
v 39 -36 105
v 34 -40 110
v 52 -10 105
v 52 -10 107
v 45 -19 107
v 50 -9 106
v 57 9 102
v 61 11 105
v 61 11 108
v 57 9 111
v 50 -9 107
v 40 -18 111
v 40 -18 102
v 38 -13 107
v 35 -12 102
v 36 -13 110
v 35 -12 111
v 32 -22 113
v 30 -36 113
v 31 -27 118
v 35 -19 118
v 47 -21 107
v 42 -32 112
v 39 -36 108
v 37 -38 114
v 30 -40 112
v 31 -12 105
v 26 -4 101
v 31 -12 100
v 26 -4 102
v 24 -3 102
v 25 -2 99
v 28 -4 101
v 26 -2 103
v 21 0 103
v 21 0 100
v 22 -1 98
v 22 1 98
v 20 1 97
v 23 4 97
v 21 2 98
v 29 -2 102
v 31 0 102
v 33 -2 101
v 32 3 101
v 31 0 100
v 29 -2 100
v 22 0 105
v 20 1 105
v 21 2 104
v 23 2 105
v 23 4 105
v 20 -1 101
v 19 2 101
v 20 3 100
v 22 5 101
v 20 3 102
v 31 -38 116
v 29 -33 117
v 37 -33 118
v 38 -28 120
v 43 -11 117
v 51 -13 109
v 45 -16 117
v 41 -29 118
v 56 1 112
v 54 -1 111
v 56 -1 109
v 43 -11 97
v 50 -13 104
v 54 -1 103
v 56 1 102
v 45 -16 97
v 38 -28 94
v 35 -19 96
v 42 -32 102
v 48 -21 103
v 56 -1 105
v 37 -33 96
v 31 -12 113
v 26 -4 112
v 31 -12 108
v 28 -4 112
v 25 -2 114
v 24 -3 111
v 26 -4 111
v 26 -2 110
v 29 -2 111
v 31 0 111
v 33 -2 112
v 31 0 113
v 29 -2 113
v 31 3 112
v 22 -1 115
v 23 1 116
v 20 1 116
v 21 0 113
v 21 0 110
v 20 -1 112
v 18 2 112
v 20 3 111
v 22 5 112
v 20 3 113
v 22 0 108
v 21 2 109
v 20 1 108
v 23 2 108
v 21 2 115
v 22 4 116
v 23 4 108

f 1 2 3
f 1 3 4
f 1 4 5
f 1 5 6
f 1 6 7
f 1 7 8
f 1 8 9
f 1 9 2
f 2 9 10
f 2 10 3
f 3 10 11
f 3 11 12
f 3 12 13
f 3 13 4
f 4 13 14
f 4 14 15
f 4 15 5
f 5 15 16
f 5 16 17
f 5 17 6
f 6 17 18
f 6 18 7
f 7 18 19
f 7 19 20
f 7 20 8
f 8 20 21
f 8 21 13
f 8 13 9
f 9 13 22
f 9 22 23
f 9 23 10
f 13 24 22
f 22 24 25
f 22 25 26
f 22 26 27
f 22 27 23
f 13 12 24
f 24 12 28
f 24 28 25
f 25 28 29
f 25 29 30
f 25 30 26
f 26 30 27
f 27 30 31
f 31 30 32
f 31 32 33
f 31 33 34
f 34 33 35
f 34 35 12
f 34 12 11
f 16 15 36
f 16 36 19
f 16 19 18
f 16 18 17
f 36 37 38
f 36 38 39
f 36 39 19
f 19 39 20
f 20 39 21
f 21 39 38
f 21 38 37
f 21 37 14
f 21 14 13
f 14 37 15
f 15 37 36
f 33 29 35
f 35 29 28
f 35 28 12
f 40 41 42
f 42 41 43
f 42 43 44
f 44 43 45
f 44 45 46
f 46 45 40
f 40 45 47
f 40 47 41
f 41 47 48
f 41 48 49
f 41 49 50
f 41 50 43
f 43 50 45
f 45 50 51
f 45 51 48
f 45 48 47
f 52 53 54
f 52 54 55
f 52 55 49
f 52 49 48
f 52 48 56
f 52 56 53
f 53 56 57
f 53 57 54
f 54 57 58
f 54 58 59
f 54 59 55
f 55 59 60
f 55 60 61
f 55 61 49
f 49 61 50
f 50 61 62
f 50 62 51
f 51 62 63
f 51 63 64
f 51 64 48
f 48 64 56
f 56 64 57
f 57 64 58
f 58 64 63
f 58 63 65
f 58 65 59
f 59 65 66
f 59 66 60
f 60 66 62
f 60 62 61
f 65 62 66
f 62 65 63
f 29 32 30
f 32 29 67
f 32 67 68
f 32 68 33
f 33 68 69
f 33 69 29
f 29 69 67
f 67 69 70
f 67 70 71
f 67 71 68
f 68 71 72
f 68 72 69
f 69 72 70
f 70 72 71
f 73 74 75
f 73 75 76
f 73 76 77
f 73 77 78
f 73 78 79
f 73 79 74
f 74 79 80
f 74 80 81
f 74 81 82
f 74 82 83
f 74 83 75
f 75 83 84
f 84 83 85
f 84 85 86
f 86 85 87
f 86 87 88
f 88 87 82
f 88 82 89
f 88 89 90
f 88 90 75
f 75 90 91
f 75 91 92
f 75 92 76
f 76 92 93
f 76 93 94
f 76 94 95
f 76 95 77
f 77 95 96
f 77 96 78
f 78 96 79
f 79 96 80
f 80 96 97
f 80 97 98
f 80 98 99
f 80 99 100
f 80 100 81
f 81 100 101
f 81 101 102
f 81 102 89
f 81 89 82
f 98 97 95
f 98 95 103
f 98 103 99
f 99 103 104
f 99 104 100
f 100 104 105
f 100 105 106
f 100 106 101
f 101 106 107
f 101 107 102
f 102 107 108
f 102 108 109
f 102 109 89
f 89 109 110
f 89 110 90
f 90 110 91
f 91 110 92
f 92 110 111
f 92 111 112
f 92 112 93
f 93 112 113
f 93 113 114
f 93 114 115
f 93 115 94
f 94 115 116
f 94 116 117
f 94 117 118
f 94 118 103
f 94 103 95
f 108 119 109
f 109 119 120
f 109 120 121
f 109 121 110
f 110 121 111
f 111 121 122
f 111 122 123
f 111 123 112
f 112 123 124
f 112 124 113
f 113 124 125
f 113 125 126
f 113 126 114
f 114 126 127
f 114 127 128
f 114 128 129
f 114 129 130
f 114 130 115
f 115 130 131
f 115 131 116
f 116 131 132
f 116 132 127
f 116 127 117
f 117 127 133
f 117 133 118
f 118 133 120
f 118 120 103
f 103 120 119
f 103 119 104
f 104 119 105
f 105 119 106
f 106 119 108
f 106 108 107
f 83 87 85
f 87 83 82
f 134 135 136
f 134 136 137
f 134 137 138
f 134 138 139
f 134 139 135
f 135 139 140
f 135 140 141
f 135 141 142
f 135 142 136
f 136 142 143
f 136 143 127
f 136 127 144
f 136 144 137
f 137 144 145
f 137 145 142
f 137 142 139
f 139 142 140
f 126 144 127
f 144 126 146
f 144 146 145
f 145 146 125
f 145 125 147
f 145 147 143
f 145 143 142
f 143 145 148
f 143 148 149
f 143 149 127
f 127 149 150
f 127 150 151
f 127 151 152
f 127 152 153
f 127 153 154
f 127 154 155
f 127 155 133
f 133 155 156
f 133 156 157
f 133 157 120
f 120 157 121
f 121 157 150
f 121 150 122
f 122 150 149
f 122 149 125
f 122 125 123
f 123 125 124
f 158 159 160
f 158 160 125
f 158 125 146
f 158 146 161
f 158 161 159
f 159 161 162
f 159 162 163
f 159 163 164
f 159 164 160
f 160 164 146
f 160 146 126
f 160 126 125
f 146 164 161
f 161 164 162
f 162 164 165
f 162 165 166
f 162 166 167
f 162 167 168
f 162 168 163
f 163 168 169
f 169 168 170
f 169 170 171
f 171 170 172
f 172 170 167
f 167 170 168
f 165 164 173
f 173 164 174
f 174 164 175
f 174 175 176
f 176 175 177
f 177 175 164
f 177 164 178
f 178 164 163
f 166 165 179
f 166 179 180
f 166 180 181
f 166 181 179
f 179 181 182
f 179 182 180
f 180 182 183
f 180 183 181
f 167 166 184
f 167 184 185
f 167 185 186
f 186 185 187
f 187 185 188
f 188 185 184
f 188 184 166
f 143 147 149
f 157 189 150
f 150 189 190
f 150 190 151
f 151 190 191
f 151 191 192
f 151 192 152
f 152 192 193
f 152 193 153
f 153 193 194
f 153 194 195
f 153 195 154
f 154 195 196
f 154 196 191
f 154 191 156
f 154 156 155
f 156 189 157
f 189 156 191
f 189 191 190
f 197 195 198
f 197 198 193
f 197 193 195
f 195 193 192
f 195 192 196
f 196 192 191
f 198 195 199
f 198 199 194
f 198 194 193
f 199 195 194
f 200 153 201
f 200 201 202
f 200 202 203
f 200 203 204
f 200 204 205
f 200 205 206
f 200 206 153
f 153 206 127
f 153 127 207
f 153 207 208
f 153 208 201
f 201 208 204
f 201 204 209
f 201 209 202
f 202 209 204
f 202 204 203
f 205 204 207
f 205 207 210
f 205 210 128
f 205 128 206
f 206 128 127
f 207 204 208
f 207 127 132
f 207 132 131
f 207 131 210
f 210 131 130
f 210 130 129
f 210 129 128
f 97 96 95
f 211 212 213
f 211 213 125
f 211 125 149
f 211 149 148
f 211 148 214
f 211 214 212
f 212 214 215
f 212 215 216
f 212 216 217
f 212 217 213
f 213 217 148
f 213 148 125
f 125 148 145
f 217 214 148
f 214 217 216
f 214 216 218
f 214 218 219
f 214 219 220
f 214 220 221
f 214 221 222
f 214 222 223
f 214 223 215
f 224 222 221
f 224 221 220
f 225 215 226
f 225 226 227
f 225 227 228
f 225 228 216
f 225 216 215
f 229 216 228
f 229 228 230
f 229 230 231
f 229 231 232
f 232 231 233
f 233 231 234
f 234 231 230
f 234 230 228
f 235 218 229
f 235 229 236
f 235 236 237
f 235 237 238
f 235 238 229
f 229 238 236
f 218 216 229
f 228 227 239
f 239 227 240
f 240 227 226
f 237 236 241
f 237 241 238
