# RS2 Model 19975
# Vertices: 232
# Faces: 430

v -1 -62 65
v -3 -59 66
v 0 -59 61
v 1 -62 65
v 2 -62 70
v -2 -62 70
v -4 -55 69
v -1 -60 76
v -5 -52 74
v -6 -50 74
v -3 -54 68
v -8 -49 71
v -3 -57 59
v -2 -56 62
v -1 -58 63
v -1 -59 66
v 2 -58 63
v 1 -59 66
v 3 -54 68
v 3 -56 62
v 3 -57 59
v 9 -49 71
v 6 -50 74
v 4 -55 69
v 6 -52 74
v 1 -60 76
v 3 -59 66
v -11 -38 69
v -8 -42 79
v 0 -40 82
v 11 -38 69
v 9 -29 63
v -9 -29 63
v -10 -37 62
v -7 -43 63
v -6 -49 75
v -6 -50 78
v -6 -52 85
v 0 -51 87
v 6 -52 85
v 8 -42 79
v 8 -43 63
v 10 -37 62
v 12 -24 63
v 12 -10 52
v 6 -12 50
v -6 -12 50
v -12 -10 52
v -12 -24 63
v -13 -32 63
v -14 -31 57
v -11 -35 58
v -14 -40 53
v -12 -44 46
v -4 -53 53
v 4 -53 53
v 13 -44 46
v 14 -40 53
v 12 -35 58
v 14 -31 57
v 13 -32 63
v 24 -25 60
v 19 -13 55
v 15 -12 49
v 17 -20 34
v 9 -9 27
v 6 1 33
v -5 1 33
v -9 -9 27
v -17 -20 34
v -15 -12 49
v -19 -13 55
v -24 -25 60
v -20 -39 56
v -33 -43 52
v -44 -38 50
v -50 -25 49
v -27 4 43
v -35 4 45
v -43 5 45
v -34 -21 55
v -6 -38 26
v -6 -48 41
v 6 -48 41
v 6 -38 26
v 6 -16 21
v -6 -16 21
v 0 -11 17
v 4 4 13
v 8 -20 18
v 8 -30 16
v 13 -29 17
v 13 -22 19
v 8 -23 11
v 8 -28 10
v 12 -28 10
v 12 -23 11
v 9 -23 5
v 9 -27 5
v 11 -27 5
v 11 -23 5
v 11 -21 3
v 8 -28 3
v 11 -30 3
v 14 -28 3
v 12 -21 0
v 12 -8 2
v 10 -7 4
v 8 -8 2
v 9 -21 0
v 7 -28 0
v 3 -43 4
v 5 -43 1
v 9 -30 0
v 11 -42 6
v 12 -41 3
v 12 -30 0
v 19 -35 4
v 20 -33 1
v 15 -27 0
v 10 -4 0
v -8 -20 18
v -3 4 13
v -1 8 16
v 2 8 16
v 17 -36 1
v 21 -38 0
v 11 -46 1
v 9 -41 3
v 2 -41 1
v 1 -46 0
v -14 44 0
v -19 39 0
v -18 47 2
v 14 44 0
v 19 39 0
v 4 74 -2
v -2 74 -2
v 0 9 17
v 0 84 2
v 19 47 2
v 6 59 -1
v 12 53 -1
v 12 68 1
v -12 53 -1
v -6 59 -1
v -12 68 1
v -13 -22 19
v -8 -23 11
v -12 -23 11
v -13 -29 17
v -12 -28 10
v -8 -30 16
v -8 -28 10
v -9 -27 5
v -9 -23 5
v -11 -23 5
v -11 -27 5
v -11 -30 3
v -8 -28 3
v -11 -21 3
v -14 -28 3
v -12 -30 0
v -12 -41 3
v -11 -42 6
v -9 -30 0
v -5 -43 1
v -3 -43 4
v -7 -28 0
v -9 -21 0
v -8 -8 2
v -10 -7 4
v -12 -8 2
v -12 -21 0
v -15 -27 0
v -20 -33 1
v -19 -35 4
v -17 -36 1
v -9 -41 3
v -11 -46 1
v -21 -38 0
v -2 -41 1
v -1 -46 0
v -10 -4 0
v -27 14 37
v -32 13 38
v -39 12 40
v -46 35 31
v -53 44 25
v -48 6 40
v -54 32 32
v -58 1 41
v -32 20 35
v -36 22 34
v -42 30 30
v -59 41 27
v -64 45 23
v -4 -53 75
v -7 -51 75
v -5 -52 77
v 6 -49 75
v 6 -50 78
v 7 -51 75
v 4 -53 75
v 5 -52 77
v 5 -60 80
v 0 -62 80
v -5 -60 80
v 32 13 38
v 27 14 37
v 27 4 43
v 39 12 40
v 36 22 34
v 42 30 30
v 32 20 35
v 35 4 45
v 43 5 45
v 46 35 31
v 53 44 25
v 48 6 40
v 50 -25 49
v 34 -21 55
v 58 1 41
v 54 32 32
v 33 -43 52
v 44 -38 50
v 59 41 27
v 64 45 23
v 20 -39 56
v 2 -22 0
v -2 -22 0
v 0 -17 0

f 1 2 3
f 1 3 4
f 1 4 5
f 1 5 6
f 1 6 2
f 2 6 7
f 7 6 8
f 7 8 9
f 7 9 10
f 7 10 11
f 11 10 12
f 11 12 13
f 11 13 14
f 11 14 15
f 11 15 16
f 16 15 17
f 16 17 18
f 18 17 19
f 19 17 20
f 19 20 21
f 19 21 22
f 19 22 23
f 19 23 24
f 24 23 25
f 24 25 26
f 24 26 5
f 24 5 27
f 27 5 4
f 27 4 3
f 26 8 6
f 26 6 5
f 28 29 30
f 28 30 31
f 28 31 32
f 28 32 33
f 28 33 34
f 28 34 35
f 28 35 12
f 28 12 29
f 29 12 36
f 29 36 37
f 29 37 38
f 29 38 30
f 30 38 39
f 30 39 40
f 30 40 41
f 30 41 31
f 31 41 22
f 31 22 42
f 31 42 43
f 31 43 32
f 32 43 44
f 32 44 45
f 32 45 46
f 32 46 33
f 33 46 47
f 33 47 48
f 33 48 49
f 33 49 34
f 34 49 50
f 34 50 51
f 34 51 52
f 34 52 53
f 34 53 35
f 35 53 54
f 35 54 55
f 35 55 13
f 35 13 12
f 55 56 21
f 55 21 13
f 13 21 20
f 13 20 14
f 14 20 17
f 14 17 15
f 42 22 21
f 42 21 56
f 42 56 57
f 42 57 58
f 42 58 43
f 43 58 59
f 43 59 60
f 43 60 61
f 43 61 44
f 44 61 62
f 44 62 63
f 44 63 45
f 45 63 64
f 45 64 46
f 46 64 60
f 46 60 59
f 46 59 65
f 46 65 66
f 46 66 67
f 46 67 47
f 47 67 68
f 47 68 69
f 47 69 70
f 47 70 52
f 47 52 51
f 47 51 71
f 47 71 48
f 48 71 72
f 48 72 49
f 49 72 73
f 49 73 50
f 50 73 74
f 50 74 51
f 51 74 75
f 51 75 71
f 71 75 76
f 71 76 77
f 71 77 78
f 71 78 72
f 72 78 79
f 72 79 80
f 72 80 81
f 72 81 73
f 73 81 75
f 73 75 74
f 70 53 52
f 53 70 54
f 54 70 82
f 54 82 83
f 54 83 55
f 55 83 56
f 56 83 84
f 56 84 57
f 57 84 85
f 57 85 65
f 57 65 58
f 58 65 59
f 86 85 87
f 86 87 88
f 86 88 89
f 86 89 66
f 86 66 90
f 86 90 85
f 85 90 91
f 85 91 92
f 85 92 65
f 65 92 93
f 65 93 66
f 66 93 90
f 90 93 94
f 90 94 95
f 90 95 91
f 91 95 96
f 91 96 92
f 92 96 97
f 92 97 93
f 93 97 94
f 94 97 98
f 94 98 99
f 94 99 95
f 95 99 100
f 95 100 96
f 96 100 101
f 96 101 97
f 97 101 98
f 98 101 102
f 98 102 103
f 98 103 99
f 99 103 104
f 99 104 100
f 100 104 105
f 100 105 101
f 101 105 102
f 102 105 106
f 102 106 107
f 102 107 108
f 102 108 109
f 102 109 110
f 102 110 111
f 102 111 103
f 103 111 112
f 103 112 113
f 103 113 114
f 103 114 104
f 104 114 115
f 104 115 116
f 104 116 117
f 104 117 105
f 105 117 118
f 105 118 119
f 105 119 120
f 105 120 106
f 106 120 117
f 106 117 110
f 106 110 107
f 107 110 109
f 107 109 121
f 107 121 108
f 108 121 109
f 87 85 82
f 87 82 122
f 87 122 69
f 87 69 123
f 87 123 88
f 88 123 89
f 89 123 124
f 89 124 125
f 89 125 67
f 89 67 66
f 82 85 84
f 82 84 83
f 126 117 120
f 126 120 119
f 126 119 127
f 126 127 118
f 126 118 117
f 116 128 129
f 116 129 114
f 116 114 117
f 117 114 111
f 117 111 110
f 113 130 111
f 113 111 114
f 130 113 131
f 130 131 112
f 130 112 111
f 116 115 128
f 128 115 129
f 129 115 114
f 113 112 131
f 119 118 127
f 132 123 133
f 133 123 124
f 133 124 134
f 134 124 132
f 89 135 136
f 89 136 125
f 125 136 135
f 137 125 124
f 137 124 138
f 138 124 139
f 138 139 140
f 140 139 137
f 137 139 125
f 125 139 67
f 67 139 68
f 68 139 124
f 68 124 123
f 68 123 69
f 136 141 125
f 125 141 135
f 142 143 125
f 142 125 144
f 144 125 143
f 143 125 89
f 145 146 124
f 145 124 147
f 147 124 146
f 145 123 124
f 148 122 149
f 148 149 150
f 148 150 151
f 148 151 70
f 148 70 69
f 148 69 122
f 151 152 153
f 151 153 82
f 151 82 70
f 152 154 153
f 153 154 122
f 153 122 82
f 154 149 122
f 149 154 155
f 149 155 156
f 149 156 150
f 150 156 157
f 150 157 152
f 150 152 151
f 157 158 152
f 152 158 154
f 154 158 155
f 155 158 159
f 155 159 160
f 155 160 156
f 156 160 161
f 156 161 157
f 157 161 162
f 157 162 158
f 158 162 159
f 159 162 163
f 159 163 164
f 159 164 165
f 159 165 166
f 159 166 160
f 160 166 167
f 160 167 168
f 160 168 169
f 160 169 161
f 161 169 170
f 161 170 171
f 161 171 172
f 161 172 173
f 161 173 174
f 161 174 162
f 162 174 175
f 162 175 176
f 162 176 177
f 162 177 163
f 163 177 178
f 163 178 175
f 163 175 174
f 163 174 170
f 163 170 169
f 163 169 166
f 163 166 164
f 164 166 179
f 164 179 180
f 164 180 165
f 165 180 179
f 165 179 166
f 176 175 178
f 176 178 181
f 176 181 177
f 177 181 178
f 169 182 167
f 169 167 166
f 183 167 182
f 183 182 168
f 183 168 167
f 182 169 168
f 184 172 171
f 184 171 173
f 184 173 172
f 170 174 173
f 170 173 171
f 78 185 186
f 78 186 187
f 78 187 79
f 79 187 80
f 80 187 188
f 80 188 189
f 80 189 190
f 80 190 191
f 80 191 192
f 80 192 81
f 81 192 77
f 81 77 76
f 81 76 75
f 186 185 193
f 186 194 187
f 187 194 195
f 77 192 190
f 77 190 78
f 78 190 187
f 187 190 189
f 187 189 188
f 196 190 192
f 196 192 197
f 196 197 192
f 196 192 191
f 196 191 190
f 9 8 198
f 9 198 199
f 9 199 10
f 10 199 36
f 10 36 12
f 8 200 198
f 198 200 199
f 199 200 37
f 199 37 36
f 201 23 22
f 201 22 41
f 201 41 202
f 201 202 203
f 201 203 23
f 23 203 25
f 25 203 204
f 25 204 26
f 26 204 205
f 26 205 206
f 26 206 207
f 26 207 8
f 8 207 208
f 8 208 200
f 200 208 37
f 37 208 38
f 38 208 39
f 39 208 207
f 39 207 206
f 39 206 40
f 40 206 202
f 40 202 41
f 206 205 202
f 202 205 203
f 203 205 204
f 209 210 211
f 209 211 212
f 209 212 213
f 213 212 214
f 215 210 209
f 212 211 216
f 212 216 217
f 212 217 218
f 212 218 219
f 212 219 220
f 212 220 211
f 211 220 221
f 211 221 64
f 211 64 63
f 211 63 216
f 216 63 217
f 217 63 222
f 217 222 223
f 217 223 224
f 217 224 220
f 217 220 219
f 217 219 218
f 62 222 63
f 222 62 225
f 222 225 226
f 222 226 221
f 222 221 223
f 223 221 220
f 223 220 227
f 223 227 228
f 223 228 227
f 223 227 224
f 224 227 220
f 225 62 229
f 225 229 60
f 225 60 64
f 225 64 226
f 226 64 221
f 62 61 229
f 229 61 60
f 230 231 232
