# RS2 Model 20001
# Vertices: 170
# Faces: 208

v -26 -2 0
v -26 2 17
v -36 9 10
v -36 5 0
v -42 19 0
v -36 19 17
v -36 29 10
v -36 35 0
v -26 36 17
v -26 42 0
v -16 47 0
v -16 41 22
v -26 25 27
v -16 19 32
v -16 -3 22
v -16 -7 0
v -12 9 43
v -16 64 48
v -16 64 0
v -16 0 0
v -16 -64 0
v -16 -64 48
v -6 9 101
v -16 64 96
v -13 0 141
v -16 64 144
v -6 14 196
v -16 64 192
v -16 0 240
v -16 64 240
v -16 -64 96
v -16 -64 144
v -16 -64 192
v -16 -64 240
v -26 -2 240
v -26 5 231
v -16 -7 240
v -16 0 226
v -26 20 215
v -16 21 214
v -16 44 222
v -26 44 223
v -26 42 240
v -16 47 240
v -36 23 223
v -36 29 230
v -36 35 240
v -42 19 240
v -36 9 230
v -36 5 240
v -41 2 168
v -16 20 171
v -16 13 155
v -41 -7 153
v -50 -25 164
v -43 -23 187
v -32 -14 196
v -16 2 187
v -45 -25 148
v -16 -4 144
v -16 -25 142
v -16 -41 147
v -43 -41 155
v -16 -39 199
v -16 -17 206
v -32 -32 197
v -16 -48 188
v -41 -33 183
v -16 -49 174
v -16 -50 158
v -16 -1 201
v -31 45 150
v -16 41 144
v -27 32 141
v -37 30 151
v -33 39 162
v -24 50 159
v -16 48 174
v -24 33 172
v -16 34 174
v -16 24 164
v -27 24 164
v -31 20 151
v -16 24 143
v -32 -64 48
v -32 -37 53
v -16 -29 45
v -16 -64 42
v -32 -39 92
v -16 -19 80
v -32 -27 71
v -48 -34 73
v -42 -48 101
v -42 -64 112
v -32 -64 123
v -16 -29 115
v -48 -55 70
v -52 -64 85
v -48 -64 53
v -16 -64 132
v -32 30 89
v -32 37 107
v -42 48 101
v -42 42 85
v -48 48 64
v -16 22 80
v -16 29 115
v -32 64 123
v -42 64 112
v -52 64 85
v -48 64 53
v -32 64 48
v -16 37 58
v -16 64 42
v -16 64 132
v -31 -50 208
v -16 -56 211
v -27 -61 220
v -37 -51 223
v -33 -39 216
v -24 -40 205
v -16 -32 213
v -24 -37 227
v -16 -35 226
v -16 -40 232
v -27 -40 232
v -31 -53 233
v -16 -60 228
v -31 64 179
v -26 64 169
v -16 47 182
v -27 64 195
v -16 64 200
v -16 54 169
v -16 64 166
v -26 -64 169
v -31 -64 179
v -27 -58 178
v -16 -64 166
v -16 -53 173
v -16 -50 184
v -27 -64 195
v -16 -54 200
v -16 -57 203
v -16 -64 200
v -31 -6 39
v -16 -6 27
v -16 -15 33
v -31 -14 45
v -37 -6 56
v -32 7 51
v -25 12 46
v -16 5 37
v -33 -17 57
v -16 -20 44
v -16 -20 57
v -16 -15 66
v -32 -10 66
v -16 16 60
v -16 18 47
v -25 14 56
v -16 11 67
v -31 6 58
v -16 1 69
v -16 -7 71
v -16 14 38
v 64 -64 0
v 64 64 0
v 64 64 240
v 64 -64 240

f 1 2 3
f 1 3 4
f 4 3 5
f 5 3 6
f 5 6 7
f 5 7 8
f 8 7 9
f 8 9 10
f 10 9 11
f 11 9 12
f 12 9 13
f 12 13 14
f 14 13 15
f 15 13 2
f 15 2 1
f 15 1 16
f 9 6 13
f 13 6 2
f 2 6 3
f 7 6 9
f 17 18 19
f 17 19 20
f 17 20 21
f 17 21 22
f 17 22 23
f 17 23 18
f 18 23 24
f 24 23 25
f 24 25 26
f 26 25 27
f 26 27 28
f 28 27 29
f 28 29 30
f 23 22 31
f 23 31 25
f 25 31 32
f 25 32 27
f 27 32 33
f 27 33 29
f 29 33 34
f 35 36 37
f 37 36 38
f 38 36 39
f 38 39 40
f 40 39 41
f 41 39 42
f 41 42 43
f 41 43 44
f 39 36 45
f 39 45 42
f 42 45 46
f 42 46 47
f 42 47 43
f 48 45 49
f 48 49 50
f 50 49 36
f 50 36 35
f 49 45 36
f 46 48 47
f 48 46 45
f 51 52 53
f 51 53 54
f 51 54 55
f 51 55 56
f 51 56 57
f 51 57 58
f 51 58 52
f 59 54 60
f 59 60 61
f 59 61 62
f 59 62 63
f 59 63 55
f 59 55 54
f 54 53 60
f 64 65 66
f 64 66 67
f 67 66 68
f 67 68 69
f 69 68 63
f 69 63 70
f 70 63 62
f 56 66 57
f 57 66 65
f 57 65 71
f 57 71 58
f 56 55 68
f 56 68 66
f 55 63 68
f 72 73 74
f 72 74 75
f 72 75 76
f 72 76 77
f 72 77 73
f 73 77 78
f 78 77 76
f 78 76 79
f 78 79 80
f 80 79 81
f 81 79 82
f 81 82 83
f 81 83 84
f 84 83 74
f 84 74 73
f 75 74 83
f 75 83 82
f 75 82 76
f 76 82 79
f 85 86 87
f 85 87 88
f 89 90 91
f 89 91 92
f 89 92 93
f 89 93 94
f 89 94 95
f 89 95 96
f 89 96 90
f 91 86 92
f 92 86 97
f 92 97 98
f 92 98 93
f 93 98 94
f 99 97 86
f 99 86 85
f 87 91 90
f 91 87 86
f 96 95 100
f 97 99 98
f 101 102 103
f 101 103 104
f 101 104 105
f 101 105 106
f 101 106 107
f 101 107 102
f 102 107 108
f 102 108 109
f 102 109 103
f 103 109 110
f 103 110 104
f 104 110 105
f 105 110 111
f 105 111 112
f 105 112 113
f 105 113 106
f 113 112 114
f 107 115 108
f 116 117 118
f 116 118 119
f 116 119 120
f 116 120 121
f 116 121 117
f 117 121 122
f 122 121 120
f 122 120 123
f 122 123 124
f 124 123 125
f 125 123 126
f 125 126 127
f 125 127 128
f 128 127 118
f 128 118 117
f 119 118 127
f 119 127 126
f 119 126 120
f 120 126 123
f 129 130 131
f 129 131 132
f 132 131 133
f 134 131 130
f 134 130 135
f 136 137 138
f 136 138 139
f 139 138 140
f 140 138 141
f 141 138 142
f 141 142 143
f 143 142 144
f 144 142 145
f 138 137 142
f 146 147 148
f 146 148 149
f 146 149 150
f 146 150 151
f 146 151 152
f 146 152 153
f 146 153 147
f 154 149 155
f 154 155 156
f 154 156 157
f 154 157 158
f 154 158 150
f 154 150 149
f 149 148 155
f 159 160 161
f 159 161 162
f 162 161 163
f 162 163 164
f 164 163 158
f 164 158 165
f 165 158 157
f 151 161 152
f 152 161 160
f 152 160 166
f 152 166 153
f 151 150 163
f 151 163 161
f 150 158 163
f 167 168 169
f 167 169 170
