# RS2 Model 20008
# Vertices: 156
# Faces: 189

v 5 -5 0
v 8 -3 17
v 9 9 10
v 6 7 0
v 15 19 0
v 18 14 17
v 27 19 10
v 32 22 0
v 38 14 17
v 43 17 0
v 52 10 0
v 47 7 22
v 28 8 27
v 28 -4 32
v 9 -15 22
v 6 -17 0
v 10 -11 43
v 64 16 48
v 64 16 0
v 6 -20 0
v -16 -64 0
v -16 -64 48
v 16 -11 101
v 64 16 96
v 9 -20 141
v 64 16 144
v 16 -6 196
v 64 16 192
v 21 -24 227
v 64 0 224
v 64 -32 240
v 32 -64 240
v 64 -64 240
v -16 -64 96
v -16 -64 144
v -16 -64 192
v 0 -64 224
v 3 11 168
v 33 9 171
v 29 4 155
v -3 4 153
v -22 -4 164
v -15 -7 187
v -1 -6 196
v 22 -4 187
v -17 -6 148
v 18 -10 144
v 5 -26 142
v -6 -38 147
v -27 -20 155
v -4 -36 199
v 10 -19 206
v -12 -22 197
v -8 -43 188
v -20 -15 183
v -8 -44 174
v -9 -44 158
v 20 -7 201
v 52 27 137
v 56 12 131
v 42 17 128
v 36 25 138
v 45 26 149
v 59 23 146
v 62 16 161
v 45 15 159
v 49 9 161
v 41 4 151
v 35 13 151
v 30 15 138
v 41 4 130
v -32 -64 48
v -20 -37 53
v 0 -39 45
v -16 -64 42
v -20 -39 92
v 0 -29 80
v -20 -27 71
v -36 -34 73
v -30 -48 101
v -42 -64 112
v -32 -64 123
v 0 -39 115
v -48 -55 70
v -52 -64 85
v -48 -64 53
v -16 -64 132
v 30 32 89
v 37 32 107
v 48 42 101
v 42 42 85
v 48 48 64
v 22 16 80
v 29 16 115
v 64 32 123
v 64 42 112
v 64 52 85
v 64 48 53
v 64 32 48
v 37 16 58
v 64 16 42
v 64 16 132
v 64 31 179
v 64 26 169
v 47 16 182
v 64 27 195
v 64 16 200
v 54 16 169
v 64 16 166
v -26 -64 169
v -31 -64 179
v -27 -58 178
v -16 -64 166
v -10 -53 173
v -10 -50 184
v -27 -64 195
v -16 -54 200
v -16 -57 203
v -16 -64 200
v 0 -7 39
v 11 -17 27
v 6 -24 33
v -5 -14 45
v -5 -4 56
v 7 3 51
v 16 3 46
v 18 -9 37
v -9 -15 57
v 2 -28 44
v 2 -28 57
v 6 -24 66
v -4 -10 66
v 25 0 60
v 27 1 47
v 17 4 56
v 22 -4 67
v 8 2 58
v 16 -12 69
v 11 -18 71
v 24 -2 38
v -25 -47 9
v -11 -45 5
v -16 -54 8
v -19 -59 18
v -18 -43 24
v -15 -25 19
v -7 -38 8
v -2 -29 25
v 0 -26 20
v -1 -29 12
v -16 -54 22
v -14 -51 31
v -11 -45 35
v -14 -29 27
v -4 -33 32
v -8 -41 34

f 1 2 3
f 1 3 4
f 4 3 5
f 5 3 6
f 5 6 7
f 5 7 8
f 8 7 9
f 8 9 10
f 10 9 11
f 11 9 12
f 12 9 13
f 12 13 14
f 14 13 15
f 15 13 2
f 15 2 1
f 15 1 16
f 9 6 13
f 13 6 2
f 2 6 3
f 7 6 9
f 17 18 19
f 17 19 20
f 17 20 21
f 17 21 22
f 17 22 23
f 17 23 18
f 18 23 24
f 24 23 25
f 24 25 26
f 26 25 27
f 26 27 28
f 28 27 29
f 28 29 30
f 30 29 31
f 31 29 32
f 31 32 33
f 23 22 34
f 23 34 25
f 25 34 35
f 25 35 27
f 27 35 36
f 27 36 29
f 29 36 37
f 29 37 32
f 38 39 40
f 38 40 41
f 38 41 42
f 38 42 43
f 38 43 44
f 38 44 45
f 38 45 39
f 46 41 47
f 46 47 48
f 46 48 49
f 46 49 50
f 46 50 42
f 46 42 41
f 41 40 47
f 51 52 53
f 51 53 54
f 54 53 55
f 54 55 56
f 56 55 50
f 56 50 57
f 57 50 49
f 43 53 44
f 44 53 52
f 44 52 58
f 44 58 45
f 43 42 55
f 43 55 53
f 42 50 55
f 59 60 61
f 59 61 62
f 59 62 63
f 59 63 64
f 59 64 60
f 60 64 65
f 65 64 63
f 65 63 66
f 65 66 67
f 67 66 68
f 68 66 69
f 68 69 70
f 68 70 71
f 71 70 61
f 71 61 60
f 62 61 70
f 62 70 69
f 62 69 63
f 63 69 66
f 72 73 74
f 72 74 75
f 76 77 78
f 76 78 79
f 76 79 80
f 76 80 81
f 76 81 82
f 76 82 83
f 76 83 77
f 78 73 79
f 79 73 84
f 79 84 85
f 79 85 80
f 80 85 81
f 86 84 73
f 86 73 72
f 74 78 77
f 78 74 73
f 83 82 87
f 84 86 85
f 88 89 90
f 88 90 91
f 88 91 92
f 88 92 93
f 88 93 94
f 88 94 89
f 89 94 95
f 89 95 96
f 89 96 90
f 90 96 97
f 90 97 91
f 91 97 92
f 92 97 98
f 92 98 99
f 92 99 100
f 92 100 93
f 100 99 101
f 94 102 95
f 103 104 105
f 103 105 106
f 106 105 107
f 108 105 104
f 108 104 109
f 110 111 112
f 110 112 113
f 113 112 114
f 114 112 115
f 115 112 116
f 115 116 117
f 117 116 118
f 118 116 119
f 112 111 116
f 120 121 122
f 120 122 123
f 120 123 124
f 120 124 125
f 120 125 126
f 120 126 127
f 120 127 121
f 128 123 129
f 128 129 130
f 128 130 131
f 128 131 132
f 128 132 124
f 128 124 123
f 123 122 129
f 133 134 135
f 133 135 136
f 136 135 137
f 136 137 138
f 138 137 132
f 138 132 139
f 139 132 131
f 125 135 126
f 126 135 134
f 126 134 140
f 126 140 127
f 125 124 137
f 125 137 135
f 124 132 137
f 141 142 143
f 141 143 144
f 141 144 145
f 141 145 146
f 141 146 147
f 141 147 142
f 146 148 149
f 146 149 150
f 146 150 147
f 151 145 144
f 145 151 152
f 145 152 153
f 145 153 154
f 145 154 146
f 146 154 148
f 148 154 155
f 155 154 156
f 156 154 153
