# RS2 Model 20007
# Vertices: 99
# Faces: 117

v -61 33 148
v -61 21 143
v -61 21 153
v -55 26 159
v -54 36 148
v -56 39 137
v -57 25 137
v -43 36 133
v -45 34 128
v -51 30 128
v -51 30 158
v -45 34 156
v -41 38 151
v -51 41 141
v -40 39 140
v -41 38 146
v -64 16 192
v -64 0 224
v 0 64 224
v -16 64 192
v -64 16 144
v -16 64 144
v -64 16 96
v -16 64 96
v -64 16 48
v -16 64 48
v -64 16 0
v -16 64 0
v -42 64 112
v -52 64 85
v -55 54 85
v -50 49 104
v -32 64 123
v -45 44 115
v -16 64 132
v -40 40 124
v -64 32 123
v -64 16 132
v -64 42 112
v -64 52 85
v -64 48 53
v -53 52 61
v -64 32 48
v -45 44 56
v -64 16 42
v -40 40 50
v -32 64 48
v -16 64 42
v -48 64 53
v -52 50 171
v -41 40 159
v -47 33 165
v -57 44 177
v -56 54 188
v -43 59 183
v -34 58 178
v -34 47 169
v -61 44 189
v -51 30 176
v -51 30 189
v -47 33 198
v -56 47 198
v -26 55 192
v -24 56 179
v -33 59 188
v -29 52 199
v -43 58 190
v -36 44 201
v -42 39 203
v -27 54 170
v -54 47 13
v -44 36 1
v -50 30 7
v -59 41 19
v -58 50 30
v -46 56 25
v -38 55 20
v -35 43 11
v -63 40 31
v -53 26 18
v -53 26 31
v -50 30 40
v -58 44 40
v -28 51 34
v -26 53 21
v -36 56 30
v -32 48 41
v -46 55 32
v -38 41 43
v -44 36 45
v -29 50 12
v -64 -32 240
v 32 64 240
v -64 -64 240
v 64 64 240
v 64 -64 240
v -64 -64 0
v 64 -64 0
v 64 64 0

f 1 2 3
f 1 3 4
f 1 4 5
f 1 5 6
f 1 6 7
f 1 7 2
f 6 8 9
f 6 9 10
f 6 10 7
f 11 5 4
f 5 11 12
f 5 12 13
f 5 13 14
f 5 14 6
f 6 14 8
f 8 14 15
f 15 14 16
f 16 14 13
f 17 18 19
f 17 19 20
f 17 20 21
f 21 20 22
f 21 22 23
f 23 22 24
f 23 24 25
f 25 24 26
f 25 26 27
f 27 26 28
f 29 30 31
f 29 31 32
f 29 32 33
f 33 32 34
f 33 34 35
f 35 34 36
f 36 34 37
f 36 37 38
f 39 37 34
f 39 34 32
f 39 32 40
f 40 32 31
f 40 31 41
f 41 31 42
f 41 42 43
f 43 42 44
f 43 44 45
f 45 44 46
f 46 44 47
f 46 47 48
f 30 49 42
f 30 42 31
f 42 49 44
f 44 49 47
f 50 51 52
f 50 52 53
f 50 53 54
f 50 54 55
f 50 55 56
f 50 56 57
f 50 57 51
f 58 53 59
f 58 59 60
f 58 60 61
f 58 61 62
f 58 62 54
f 58 54 53
f 53 52 59
f 63 64 65
f 63 65 66
f 66 65 67
f 66 67 68
f 68 67 62
f 68 62 69
f 69 62 61
f 55 65 56
f 56 65 64
f 56 64 70
f 56 70 57
f 55 54 67
f 55 67 65
f 54 62 67
f 71 72 73
f 71 73 74
f 71 74 75
f 71 75 76
f 71 76 77
f 71 77 78
f 71 78 72
f 79 74 80
f 79 80 81
f 79 81 82
f 79 82 83
f 79 83 75
f 79 75 74
f 74 73 80
f 84 85 86
f 84 86 87
f 87 86 88
f 87 88 89
f 89 88 83
f 89 83 90
f 90 83 82
f 76 86 77
f 77 86 85
f 77 85 91
f 77 91 78
f 76 75 88
f 76 88 86
f 75 83 88
f 18 92 93
f 18 93 19
f 92 94 95
f 92 95 93
f 96 95 94
f 96 94 97
f 96 97 98
f 96 98 95
f 95 98 99
