# RS2 Model 20095
# Vertices: 130
# Faces: 244

v 21 1 127
v 21 1 119
v 28 -9 120
v 27 -8 128
v 22 1 128
v 26 11 128
v 28 11 120
v 28 8 119
v 25 1 119
v 28 -5 119
v 37 1 124
v 35 1 130
v 33 1 130
v 27 -7 129
v 21 1 129
v 26 9 129
v 34 1 121
v 32 7 110
v 25 0 109
v 32 -5 109
v 36 0 109
v 36 1 98
v 32 5 99
v 28 0 99
v 32 -4 100
v 26 -6 134
v 26 -6 137
v 20 1 136
v 20 1 134
v 19 1 134
v 26 -8 134
v 32 1 135
v 32 1 138
v 25 -8 146
v 18 2 142
v 26 9 137
v 26 9 134
v 26 11 135
v 26 10 130
v 27 -8 130
v 34 1 135
v 25 11 144
v 32 1 147
v 27 -1 157
v 22 -8 153
v 17 -9 153
v 19 2 160
v 19 -2 160
v 19 -2 161
v 19 2 161
v 19 6 161
v 19 6 160
v 27 5 157
v 22 10 154
v 19 10 155
v 28 2 157
v 30 3 157
v 30 2 157
v 30 1 157
v 28 -2 159
v 28 2 159
v 28 6 159
v 31 3 159
v 34 1 131
v 31 1 159
v -21 1 127
v -27 -8 128
v -28 -9 120
v -21 1 119
v -26 11 128
v -22 1 128
v -27 -7 129
v -33 1 130
v -35 1 130
v -37 1 124
v -28 -5 119
v -25 1 119
v -28 8 119
v -28 11 120
v -26 9 129
v -21 1 129
v -27 -8 130
v -34 1 131
v -26 10 130
v -25 0 109
v -32 -5 109
v -32 -4 100
v -28 0 99
v -32 5 99
v -32 7 110
v -34 1 121
v -36 0 109
v -36 1 98
v -26 -6 134
v -20 1 134
v -20 1 136
v -26 -6 137
v -32 1 135
v -26 -8 134
v -19 1 134
v -26 11 135
v -26 9 134
v -26 9 137
v -18 2 142
v -25 -8 146
v -32 1 138
v -34 1 135
v -22 -8 153
v -17 -9 153
v -19 2 160
v -27 -1 157
v -32 1 147
v -25 11 144
v -28 2 157
v -30 1 157
v -30 2 157
v -30 3 157
v -27 5 157
v -22 10 154
v -19 10 155
v -19 6 160
v -19 6 161
v -19 2 161
v -19 -2 161
v -19 -2 160
v -28 -2 159
v -31 1 159
v -31 3 159
v -28 2 159
v -28 6 159

f 1 2 3
f 1 3 4
f 1 4 5
f 1 5 6
f 1 6 2
f 2 6 7
f 2 7 8
f 2 8 9
f 2 9 3
f 3 9 10
f 3 10 11
f 3 11 12
f 3 12 4
f 4 12 13
f 4 13 14
f 4 14 5
f 5 14 15
f 5 15 16
f 5 16 6
f 6 16 12
f 6 12 11
f 6 11 7
f 7 11 17
f 7 17 8
f 8 17 18
f 8 18 19
f 8 19 9
f 9 19 10
f 10 19 20
f 10 20 21
f 10 21 17
f 10 17 11
f 21 18 17
f 18 21 22
f 18 22 23
f 18 23 19
f 19 23 24
f 19 24 25
f 19 25 20
f 20 25 21
f 21 25 22
f 26 27 28
f 26 28 29
f 26 29 30
f 26 30 31
f 26 31 32
f 26 32 27
f 27 32 33
f 27 33 34
f 27 34 35
f 27 35 28
f 28 35 36
f 28 36 37
f 28 37 29
f 29 37 38
f 29 38 30
f 30 38 39
f 30 39 15
f 30 15 40
f 30 40 31
f 31 40 41
f 31 41 32
f 32 41 37
f 32 37 33
f 33 37 36
f 33 36 42
f 33 42 43
f 33 43 34
f 34 43 44
f 34 44 45
f 34 45 35
f 35 45 46
f 46 45 47
f 47 45 44
f 47 44 48
f 47 48 49
f 47 49 50
f 47 50 51
f 47 51 52
f 47 52 53
f 47 53 54
f 47 54 55
f 55 54 35
f 35 54 42
f 35 42 36
f 56 44 43
f 56 43 53
f 56 53 57
f 56 57 58
f 56 58 59
f 56 59 44
f 44 59 60
f 44 60 48
f 48 60 49
f 49 60 61
f 49 61 50
f 50 61 51
f 51 61 62
f 51 62 52
f 52 62 53
f 53 62 63
f 53 63 57
f 57 63 59
f 57 59 58
f 40 64 41
f 41 64 39
f 41 39 38
f 41 38 37
f 16 13 12
f 13 16 39
f 13 39 64
f 13 64 14
f 14 64 40
f 14 40 15
f 16 15 39
f 62 61 63
f 63 61 65
f 63 65 59
f 59 65 60
f 60 65 61
f 42 54 53
f 42 53 43
f 66 67 68
f 66 68 69
f 66 69 70
f 66 70 71
f 66 71 67
f 67 71 72
f 67 72 73
f 67 73 74
f 67 74 68
f 68 74 75
f 68 75 76
f 68 76 77
f 68 77 69
f 69 77 78
f 69 78 79
f 69 79 70
f 70 79 75
f 70 75 74
f 70 74 80
f 70 80 71
f 71 80 81
f 71 81 72
f 72 81 82
f 72 82 83
f 72 83 73
f 73 83 84
f 73 84 80
f 73 80 74
f 85 77 76
f 85 76 86
f 85 86 87
f 85 87 88
f 85 88 89
f 85 89 90
f 85 90 78
f 85 78 77
f 91 92 76
f 91 76 75
f 91 75 79
f 91 79 78
f 91 78 90
f 91 90 92
f 92 90 93
f 92 93 87
f 92 87 86
f 92 86 76
f 90 89 93
f 94 95 96
f 94 96 97
f 94 97 98
f 94 98 99
f 94 99 100
f 94 100 95
f 95 100 101
f 95 101 102
f 95 102 96
f 96 102 103
f 96 103 104
f 96 104 97
f 97 104 105
f 97 105 106
f 97 106 98
f 98 106 102
f 98 102 107
f 98 107 99
f 99 107 82
f 99 82 100
f 100 82 81
f 100 81 84
f 100 84 101
f 101 84 107
f 101 107 102
f 108 105 104
f 108 104 109
f 108 109 110
f 108 110 111
f 108 111 105
f 105 111 112
f 105 112 106
f 106 112 113
f 106 113 103
f 106 103 102
f 114 112 111
f 114 111 115
f 114 115 116
f 114 116 117
f 114 117 118
f 114 118 112
f 112 118 113
f 113 118 119
f 113 119 104
f 113 104 103
f 120 119 110
f 110 119 118
f 110 118 121
f 110 121 122
f 110 122 123
f 110 123 124
f 110 124 125
f 110 125 111
f 111 125 126
f 111 126 115
f 115 126 127
f 115 127 128
f 115 128 117
f 115 117 116
f 120 104 119
f 124 123 129
f 124 129 126
f 124 126 125
f 82 107 83
f 83 107 84
f 80 84 81
f 122 130 129
f 122 129 123
f 121 118 130
f 121 130 122
f 118 117 128
f 118 128 130
f 130 128 129
f 129 128 127
f 129 127 126
