# RS2 Model 20136
# Vertices: 92
# Faces: 148

v -5 -14 182
v -5 -14 179
v -2 -15 180
v 0 -18 183
v -3 -17 184
v -7 -15 184
v -8 -11 180
v -8 -13 178
v -3 -16 175
v 0 -17 181
v 2 -15 180
v 5 -14 182
v 3 -17 184
v 0 -18 186
v -4 -16 188
v -8 -12 187
v -9 -9 181
v -9 -7 177
v -7 -10 174
v -4 -15 173
v -10 -2 180
v -9 -7 184
v 0 -6 165
v -7 -2 170
v -8 1 165
v 0 -6 160
v 8 1 165
v 7 -2 170
v 0 6 173
v 8 1 173
v -8 1 173
v 0 11 165
v 0 -20 175
v 0 -17 174
v 3 -16 175
v 5 -14 179
v 8 -11 180
v 7 -15 184
v 4 -16 188
v 0 -23 187
v -8 -18 190
v -11 -13 191
v -12 -8 193
v -11 -1 186
v -12 -1 178
v -10 -9 179
v -13 -9 166
v -8 9 166
v -13 0 166
v -8 7 178
v 0 12 165
v 0 10 178
v 8 7 178
v 8 9 166
v 12 -1 178
v 13 0 166
v 13 -9 166
v 10 -9 179
v 11 -1 186
v 8 -12 187
v 12 -1 191
v 12 -8 193
v 11 -13 192
v 8 -18 190
v 9 -9 181
v 9 -7 184
v 10 -2 180
v 9 -7 177
v 8 -13 178
v 7 -10 174
v 4 -15 173
v -7 7 186
v -8 8 191
v 0 11 191
v 0 10 186
v -12 -1 191
v -9 -1 192
v 0 -1 198
v 8 8 191
v 8 7 186
v -5 -19 197
v 0 -22 200
v 0 -13 197
v -9 -14 195
v -7 -7 195
v 5 -19 197
v 10 -13 195
v 7 -7 195
v 9 -1 192
v -19 -15 196
v 23 -9 196
v -23 8 189

f 1 2 3
f 1 3 4
f 1 4 5
f 1 5 6
f 1 6 7
f 1 7 2
f 2 7 8
f 2 8 9
f 2 9 3
f 3 9 10
f 3 10 4
f 4 10 11
f 4 11 12
f 4 12 13
f 4 13 14
f 4 14 5
f 5 14 15
f 5 15 6
f 6 15 16
f 6 16 17
f 6 17 7
f 7 17 8
f 8 17 18
f 8 18 19
f 8 19 20
f 8 20 9
f 21 17 22
f 22 17 16
f 23 24 25
f 23 25 26
f 23 26 27
f 23 27 28
f 28 27 29
f 28 29 30
f 29 25 24
f 29 24 31
f 25 29 32
f 32 29 27
f 33 9 34
f 33 34 35
f 33 35 10
f 33 10 9
f 17 21 18
f 12 11 36
f 12 36 37
f 12 37 38
f 12 38 13
f 13 38 39
f 13 39 14
f 14 39 40
f 14 40 41
f 14 41 15
f 15 41 16
f 16 41 42
f 16 42 43
f 16 43 44
f 16 44 45
f 16 45 46
f 46 45 47
f 46 47 24
f 24 47 48
f 48 47 49
f 48 49 50
f 48 50 51
f 51 50 52
f 51 52 53
f 51 53 54
f 54 53 55
f 54 55 56
f 54 56 57
f 54 57 28
f 28 57 58
f 58 57 55
f 58 55 59
f 58 59 60
f 60 59 61
f 60 61 62
f 60 62 63
f 60 63 64
f 60 64 39
f 60 39 38
f 60 38 65
f 60 65 66
f 66 65 67
f 67 65 68
f 68 65 69
f 68 69 70
f 70 69 71
f 71 69 35
f 35 69 36
f 35 36 11
f 35 11 10
f 38 37 65
f 65 37 69
f 69 37 36
f 72 73 74
f 72 74 75
f 72 75 52
f 72 52 50
f 72 50 44
f 72 44 76
f 72 76 73
f 73 76 77
f 73 77 78
f 73 78 74
f 74 78 79
f 74 79 75
f 75 79 80
f 75 80 53
f 75 53 52
f 81 41 40
f 81 40 82
f 81 82 83
f 81 83 84
f 81 84 42
f 81 42 41
f 84 43 42
f 43 84 83
f 43 83 85
f 43 85 76
f 43 76 44
f 83 78 85
f 85 78 77
f 85 77 76
f 47 45 49
f 49 45 50
f 50 45 44
f 39 64 40
f 40 64 86
f 40 86 82
f 82 86 83
f 83 86 87
f 83 87 62
f 83 62 88
f 83 88 78
f 78 88 89
f 78 89 79
f 79 89 61
f 79 61 59
f 79 59 80
f 80 59 55
f 80 55 53
f 63 62 87
f 63 87 64
f 64 87 86
f 55 57 56
f 89 88 62
f 89 62 61
