# RS2 Model 20133
# Vertices: 65
# Faces: 117

v 11 -13 184
v 12 -13 188
v 8 -17 190
v 8 -18 185
v 0 -20 186
v 0 -19 190
v -8 -18 185
v -7 -16 190
v -10 -13 184
v -13 -3 189
v -12 -6 180
v -14 5 185
v -12 2 177
v -9 9 175
v -7 11 179
v 0 12 172
v 0 14 181
v 10 8 182
v 11 6 176
v 12 4 181
v 12 -6 180
v 13 0 184
v 13 -10 185
v 11 -3 189
v 11 -11 194
v 5 -9 201
v 2 -16 194
v -4 -11 197
v -9 -2 195
v -8 6 192
v -6 13 188
v 1 13 188
v 7 9 188
v -1 5 199
v 6 7 198
v 10 8 195
v 13 10 189
v 11 4 188
v 2 -1 203
v 10 -5 201
v 15 5 199
v 19 8 191
v 20 6 181
v 14 8 182
v 11 4 186
v 16 -2 188
v 15 -5 190
v 16 -5 193
v 17 -1 198
v 7 2 203
v 20 3 191
v 18 -1 183
v 20 2 182
v 16 0 183
v 15 0 177
v 18 3 174
v 11 6 175
v 13 5 181
v 14 2 182
v 11 1 177
v 8 -6 170
v 12 -6 171
v 13 -3 168
v 8 -4 167
v 8 -10 162

f 1 2 3
f 1 3 4
f 4 3 5
f 5 3 6
f 5 6 7
f 7 6 8
f 7 8 9
f 9 8 10
f 9 10 11
f 11 10 12
f 11 12 13
f 13 12 14
f 14 12 15
f 14 15 16
f 16 15 17
f 16 17 18
f 16 18 19
f 19 18 20
f 19 20 21
f 21 20 22
f 21 22 23
f 21 23 1
f 1 23 2
f 2 23 24
f 2 24 25
f 2 25 3
f 3 25 26
f 3 26 27
f 3 27 6
f 6 27 28
f 6 28 8
f 8 28 10
f 10 28 29
f 10 29 12
f 12 29 30
f 12 30 31
f 12 31 15
f 15 31 17
f 17 31 32
f 17 32 33
f 17 33 18
f 18 33 22
f 18 22 20
f 33 32 34
f 33 34 35
f 33 35 36
f 33 36 37
f 33 37 38
f 33 38 24
f 33 24 22
f 22 24 23
f 28 39 29
f 29 39 34
f 29 34 30
f 30 34 31
f 31 34 32
f 25 40 26
f 26 40 39
f 26 39 28
f 26 28 27
f 36 41 42
f 36 42 37
f 37 42 43
f 37 43 44
f 37 44 45
f 37 45 38
f 38 45 24
f 24 45 46
f 24 46 47
f 24 47 25
f 25 47 48
f 25 48 49
f 25 49 40
f 40 49 50
f 40 50 39
f 39 50 34
f 34 50 35
f 35 50 41
f 35 41 36
f 51 42 41
f 51 41 49
f 51 49 48
f 51 48 47
f 51 47 46
f 51 46 52
f 51 52 53
f 51 53 43
f 51 43 42
f 46 54 52
f 52 54 55
f 52 55 53
f 53 55 56
f 53 56 43
f 43 56 57
f 43 57 44
f 44 57 58
f 44 58 45
f 45 58 59
f 45 59 54
f 45 54 46
f 57 60 59
f 57 59 58
f 60 61 62
f 60 62 55
f 60 55 54
f 60 54 59
f 63 64 57
f 63 57 56
f 63 56 62
f 63 62 65
f 63 65 64
f 64 65 61
f 64 61 60
f 64 60 57
f 62 61 65
f 56 55 62
f 49 41 50
