# RS2 Model 20144
# Vertices: 206
# Faces: 398

v 12 -11 112
v 16 1 108
v 16 0 112
v 10 9 109
v 9 8 113
v 0 11 109
v 0 10 113
v -9 8 113
v -10 9 109
v -16 0 112
v -16 1 108
v -10 -11 112
v -10 -10 108
v 0 -14 111
v 0 -14 107
v 10 -10 108
v 11 -12 102
v 18 0 106
v 12 11 106
v 0 14 96
v -12 11 106
v -18 0 106
v -11 -12 102
v 0 -14 100
v 3 -14 91
v 11 -13 91
v 18 -9 95
v 20 -3 97
v 14 12 97
v 5 13 89
v 0 11 91
v -5 13 89
v -14 12 97
v -20 -3 97
v -11 -13 91
v -3 -14 91
v 0 -14 93
v 0 -6 88
v 1 -4 78
v 8 -11 80
v 17 -14 82
v 26 -7 87
v 28 -3 87
v 25 5 86
v 20 10 91
v 14 12 77
v 4 3 75
v 0 -5 88
v -1 -4 78
v -4 3 75
v -14 12 77
v -20 10 91
v -24 5 86
v -27 -3 87
v -25 -7 87
v -18 -9 95
v -17 -14 82
v -8 -11 80
v 32 -3 72
v 31 3 71
v 27 9 71
v 32 4 46
v 33 5 57
v 34 -2 57
v 34 -2 46
v 24 -2 39
v 22 0 39
v 18 5 40
v 28 12 47
v 31 7 48
v 32 6 57
v 33 -4 57
v 33 -4 48
v 32 -8 48
v 31 -10 46
v 23 -3 39
v 21 -2 38
v 12 7 40
v 11 10 41
v 16 14 48
v 28 12 56
v 29 11 49
v 29 11 56
v 2 -2 47
v 1 -3 56
v 4 4 56
v 5 6 47
v 7 4 40
v 3 -2 39
v 8 -9 46
v 6 -10 56
v 4 -7 67
v 1 -4 67
v 4 3 65
v 17 12 56
v 5 -2 38
v 6 -6 39
v 13 -14 39
v 15 -16 46
v 11 -12 47
v 8 -12 56
v 11 -15 68
v 16 12 66
v 11 9 34
v 20 -2 31
v 18 -2 24
v 10 8 25
v 4 -3 24
v 4 -2 31
v 12 -12 38
v 11 -11 31
v 10 -10 24
v 16 -2 14
v 9 8 15
v 4 -2 14
v 18 -10 39
v 9 -8 15
v 18 -17 57
v 20 -15 47
v 25 -14 47
v 24 -15 57
v 23 -15 69
v 16 -15 69
v 17 -17 57
v 18 -15 46
v 26 -14 46
v 25 -15 57
v 31 -11 57
v 30 -11 72
v 13 -18 57
v 11 -15 57
v 32 -9 57
v -31 3 71
v -32 -3 72
v -30 -11 72
v -23 -15 69
v -16 -15 69
v -11 -15 68
v -4 -7 67
v -1 -4 67
v -4 3 65
v -16 12 66
v -27 9 71
v -32 4 46
v -34 -2 46
v -34 -2 57
v -33 5 57
v -31 7 48
v -28 12 47
v -18 5 40
v -22 0 39
v -24 -2 39
v -31 -10 46
v -32 -8 48
v -33 -4 48
v -33 -4 57
v -32 6 57
v -29 11 49
v -28 12 56
v -16 14 48
v -11 10 41
v -12 7 40
v -21 -2 38
v -23 -3 39
v -26 -14 46
v -31 -11 57
v -32 -9 57
v -25 -15 57
v -24 -15 57
v -18 -17 57
v -17 -17 57
v -13 -18 57
v -11 -15 57
v -8 -12 56
v -6 -10 56
v -1 -3 56
v -4 4 56
v -17 12 56
v -29 11 56
v -2 -2 47
v -5 6 47
v -8 -9 46
v -3 -2 39
v -7 4 40
v -11 9 34
v -10 8 25
v -18 -2 24
v -20 -2 31
v -4 -2 31
v -4 -3 24
v -9 8 15
v -16 -2 14
v -10 -10 24
v -11 -11 31
v -12 -12 38
v -18 -10 39
v -18 -15 46
v -20 -15 47
v -25 -14 47
v -4 -2 14
v -9 -8 15
v -5 -2 38
v -6 -6 39
v -13 -14 39
v -15 -16 46
v -11 -12 47

f 1 2 3
f 3 2 4
f 3 4 5
f 5 4 6
f 5 6 7
f 7 6 8
f 8 6 9
f 8 9 10
f 10 9 11
f 10 11 12
f 12 11 13
f 12 13 14
f 14 13 15
f 14 15 16
f 14 16 1
f 1 16 2
f 2 16 17
f 2 17 18
f 2 18 19
f 2 19 4
f 4 19 20
f 4 20 6
f 6 20 9
f 9 20 21
f 9 21 11
f 11 21 22
f 11 22 23
f 11 23 13
f 13 23 24
f 13 24 15
f 15 24 16
f 16 24 17
f 17 24 25
f 17 25 26
f 17 26 18
f 18 26 27
f 18 27 28
f 18 28 29
f 18 29 19
f 19 29 20
f 20 29 30
f 20 30 31
f 20 31 32
f 20 32 33
f 20 33 21
f 21 33 22
f 22 33 34
f 22 34 35
f 22 35 23
f 23 35 36
f 23 36 24
f 24 36 37
f 24 37 25
f 25 37 38
f 25 38 39
f 25 39 40
f 25 40 41
f 25 41 26
f 26 41 42
f 26 42 27
f 27 42 28
f 28 42 43
f 28 43 44
f 28 44 45
f 28 45 29
f 29 45 30
f 30 45 46
f 30 46 47
f 30 47 39
f 30 39 48
f 30 48 31
f 31 48 32
f 32 48 49
f 32 49 50
f 32 50 51
f 32 51 52
f 32 52 33
f 33 52 34
f 34 52 53
f 34 53 54
f 34 54 55
f 34 55 56
f 34 56 35
f 35 56 55
f 35 55 57
f 35 57 36
f 36 57 58
f 36 58 49
f 36 49 38
f 36 38 37
f 39 38 48
f 48 38 49
f 43 59 60
f 43 60 44
f 44 60 61
f 44 61 46
f 44 46 45
f 62 63 64
f 62 64 65
f 62 65 66
f 62 66 67
f 62 67 68
f 62 68 69
f 62 69 70
f 62 70 63
f 63 70 71
f 63 71 60
f 63 60 59
f 63 59 64
f 64 59 72
f 64 72 73
f 64 73 65
f 65 73 74
f 65 74 75
f 65 75 66
f 66 75 76
f 66 76 77
f 66 77 67
f 67 77 78
f 67 78 68
f 68 78 79
f 68 79 69
f 69 79 80
f 69 80 81
f 69 81 82
f 69 82 70
f 70 82 71
f 71 82 83
f 71 83 61
f 71 61 60
f 84 85 86
f 84 86 87
f 84 87 88
f 84 88 89
f 84 89 90
f 84 90 91
f 84 91 85
f 85 91 92
f 85 92 93
f 85 93 94
f 85 94 86
f 86 94 95
f 86 95 87
f 87 95 80
f 87 80 79
f 87 79 88
f 88 79 78
f 88 78 89
f 89 78 96
f 89 96 97
f 89 97 90
f 90 97 98
f 90 98 99
f 90 99 100
f 90 100 91
f 91 100 101
f 91 101 92
f 92 101 102
f 92 102 40
f 92 40 39
f 92 39 93
f 93 39 47
f 93 47 94
f 94 47 103
f 94 103 95
f 95 103 81
f 95 81 80
f 103 47 46
f 103 46 61
f 103 61 81
f 81 61 83
f 81 83 82
f 104 105 106
f 104 106 107
f 104 107 108
f 104 108 109
f 104 109 78
f 104 78 77
f 104 77 105
f 105 77 110
f 105 110 111
f 105 111 106
f 106 111 112
f 106 112 113
f 106 113 114
f 106 114 107
f 107 114 108
f 108 114 115
f 108 115 112
f 108 112 109
f 109 112 111
f 109 111 96
f 109 96 78
f 77 76 116
f 77 116 110
f 110 116 98
f 110 98 97
f 110 97 96
f 110 96 111
f 112 117 113
f 117 112 115
f 118 119 120
f 118 120 121
f 118 121 122
f 118 122 123
f 118 123 124
f 118 124 119
f 119 124 125
f 119 125 126
f 119 126 120
f 120 126 127
f 120 127 121
f 121 127 122
f 122 127 128
f 122 128 129
f 122 129 41
f 122 41 123
f 123 41 102
f 123 102 130
f 123 130 124
f 124 130 99
f 124 99 125
f 125 99 98
f 125 98 116
f 125 116 126
f 126 116 76
f 126 76 75
f 126 75 128
f 126 128 127
f 131 101 100
f 131 100 130
f 131 130 102
f 131 102 101
f 41 129 42
f 42 129 59
f 42 59 43
f 132 74 73
f 132 73 72
f 132 72 59
f 132 59 129
f 132 129 128
f 132 128 74
f 74 128 75
f 41 40 102
f 130 100 99
f 54 133 134
f 54 134 55
f 55 134 135
f 55 135 57
f 57 135 136
f 57 136 137
f 57 137 138
f 57 138 58
f 58 138 139
f 58 139 49
f 49 139 140
f 49 140 50
f 50 140 141
f 50 141 142
f 50 142 51
f 51 142 143
f 51 143 53
f 51 53 52
f 144 145 146
f 144 146 147
f 144 147 148
f 144 148 149
f 144 149 150
f 144 150 151
f 144 151 152
f 144 152 145
f 145 152 153
f 145 153 154
f 145 154 155
f 145 155 146
f 146 155 156
f 146 156 134
f 146 134 147
f 147 134 133
f 147 133 157
f 147 157 148
f 148 157 158
f 148 158 149
f 149 158 159
f 149 159 160
f 149 160 161
f 149 161 150
f 150 161 162
f 150 162 151
f 151 162 163
f 151 163 152
f 152 163 164
f 152 164 153
f 153 164 165
f 153 165 166
f 153 166 154
f 154 166 167
f 154 167 155
f 155 167 156
f 156 167 134
f 134 167 135
f 135 167 166
f 135 166 136
f 136 166 168
f 136 168 169
f 136 169 170
f 136 170 137
f 137 170 171
f 137 171 172
f 137 172 138
f 138 172 173
f 138 173 174
f 138 174 139
f 139 174 175
f 139 175 176
f 139 176 140
f 140 176 141
f 141 176 177
f 141 177 178
f 141 178 142
f 142 178 159
f 142 159 143
f 143 159 179
f 143 179 157
f 143 157 133
f 143 133 53
f 53 133 54
f 180 181 177
f 180 177 176
f 180 176 175
f 180 175 182
f 180 182 183
f 180 183 184
f 180 184 181
f 181 184 161
f 181 161 160
f 181 160 178
f 181 178 177
f 185 186 187
f 185 187 188
f 185 188 163
f 185 163 162
f 185 162 189
f 185 189 190
f 185 190 186
f 186 190 191
f 186 191 187
f 187 191 192
f 187 192 193
f 187 193 194
f 187 194 188
f 188 194 163
f 163 194 195
f 163 195 196
f 163 196 164
f 164 196 165
f 165 196 197
f 165 197 198
f 165 198 199
f 165 199 168
f 165 168 166
f 190 200 191
f 200 190 193
f 200 193 201
f 201 193 192
f 183 202 162
f 183 162 184
f 184 162 161
f 202 195 194
f 202 194 189
f 202 189 162
f 195 202 203
f 195 203 204
f 195 204 196
f 196 204 197
f 197 204 205
f 197 205 171
f 197 171 198
f 198 171 170
f 198 170 199
f 199 170 169
f 199 169 168
f 173 206 174
f 174 206 175
f 175 206 182
f 182 206 205
f 182 205 204
f 182 204 203
f 182 203 183
f 183 203 202
f 160 159 178
f 189 194 193
f 189 193 190
f 157 179 158
f 158 179 159
f 171 205 172
f 172 205 206
f 172 206 173
