# RS2 Model 20149
# Vertices: 107
# Faces: 160

v 5 -12 157
v 2 -17 150
v 3 -17 150
v 6 -12 158
v 7 -6 161
v 8 -6 162
v 8 -1 165
v 9 -1 165
v 7 5 165
v 8 5 166
v 5 7 165
v 6 8 166
v 0 10 165
v 0 9 165
v -5 7 165
v -6 8 166
v -8 5 166
v -7 5 165
v -9 -1 165
v -8 -1 165
v -8 -6 162
v -7 -6 161
v -6 -12 158
v -5 -12 157
v -3 -17 150
v -2 -17 150
v -2 -17 149
v 0 -17 152
v 0 -16 153
v 2 -17 149
v 3 -17 149
v 7 -12 157
v 9 -6 161
v 10 -1 164
v 9 5 165
v 7 9 164
v 0 11 164
v -7 9 164
v -9 5 165
v -10 -1 164
v -9 -6 161
v -7 -12 157
v -3 -17 149
v 3 -17 142
v 4 -17 144
v 2 -17 143
v 2 -17 142
v 3 -17 141
v 5 -17 144
v 5 -17 145
v 4 -17 145
v 1 -17 143
v 1 -17 142
v 2 -17 141
v 3 -17 140
v 6 -17 144
v 6 -17 146
v 3 -17 146
v 2 -17 148
v 0 -17 143
v 0 -17 142
v 1 -16 141
v 2 -17 140
v 3 -16 139
v 7 -16 144
v 7 -16 146
v 4 -16 147
v 5 -16 149
v 4 -17 149
v 0 -17 151
v 1 -17 148
v 0 -17 148
v -1 -17 148
v -2 -17 148
v -1 -17 143
v -1 -17 142
v -1 -16 141
v -2 -17 140
v -2 -16 139
v -3 -16 139
v -3 -17 140
v -7 -16 144
v -6 -17 144
v -7 -16 146
v -6 -17 146
v -4 -16 147
v -3 -17 146
v -5 -16 149
v -4 -17 149
v 2 -16 139
v 0 -17 150
v -4 -17 144
v -3 -17 142
v -2 -17 143
v -4 -17 145
v -5 -17 145
v -5 -17 144
v -3 -17 141
v -2 -17 142
v -2 -17 141
v -8 -13 141
v 8 -13 141
v 8 -8 159
v -8 -8 159
v -13 -12 137
v 13 -12 137
v -13 -6 160

f 1 2 3
f 1 3 4
f 1 4 5
f 5 4 6
f 5 6 7
f 7 6 8
f 7 8 9
f 9 8 10
f 9 10 11
f 11 10 12
f 11 12 13
f 11 13 14
f 14 13 15
f 15 13 16
f 15 16 17
f 15 17 18
f 18 17 19
f 18 19 20
f 20 19 21
f 20 21 22
f 22 21 23
f 22 23 24
f 24 23 25
f 24 25 26
f 26 25 27
f 26 27 28
f 26 28 29
f 29 28 2
f 2 28 30
f 2 30 3
f 3 30 31
f 3 31 32
f 3 32 4
f 4 32 6
f 6 32 33
f 6 33 8
f 8 33 34
f 8 34 10
f 10 34 35
f 10 35 12
f 12 35 36
f 12 36 37
f 12 37 13
f 13 37 16
f 16 37 38
f 16 38 39
f 16 39 17
f 17 39 40
f 17 40 19
f 19 40 41
f 19 41 21
f 21 41 42
f 21 42 23
f 23 42 25
f 25 42 43
f 25 43 27
f 44 45 46
f 44 46 47
f 44 47 48
f 44 48 49
f 44 49 45
f 45 49 50
f 45 50 51
f 45 51 52
f 45 52 46
f 46 52 53
f 46 53 47
f 47 53 54
f 47 54 48
f 48 54 55
f 48 55 49
f 49 55 56
f 49 56 57
f 49 57 50
f 50 57 58
f 50 58 51
f 51 58 52
f 52 58 59
f 52 59 60
f 52 60 61
f 52 61 53
f 53 61 62
f 53 62 63
f 53 63 54
f 54 63 55
f 55 63 64
f 55 64 65
f 55 65 56
f 56 65 66
f 56 66 57
f 57 66 67
f 57 67 58
f 58 67 68
f 58 68 69
f 58 69 59
f 59 69 30
f 59 30 70
f 59 70 71
f 59 71 60
f 60 71 72
f 60 72 73
f 60 73 74
f 60 74 75
f 60 75 61
f 61 75 76
f 61 76 77
f 77 76 78
f 77 78 79
f 79 78 80
f 80 78 81
f 80 81 82
f 82 81 83
f 82 83 84
f 84 83 85
f 84 85 86
f 86 85 87
f 86 87 88
f 88 87 89
f 88 89 26
f 26 89 27
f 27 89 74
f 27 74 70
f 27 70 28
f 28 70 30
f 90 64 63
f 90 63 62
f 2 30 69
f 2 69 68
f 91 71 70
f 91 70 73
f 91 73 72
f 91 72 71
f 92 93 94
f 92 94 75
f 92 75 95
f 92 95 96
f 92 96 97
f 92 97 93
f 93 97 98
f 93 98 99
f 93 99 94
f 94 99 76
f 94 76 75
f 74 73 70
f 75 74 87
f 75 87 95
f 95 87 96
f 96 87 85
f 96 85 97
f 97 85 83
f 97 83 81
f 97 81 98
f 98 81 100
f 98 100 99
f 99 100 76
f 76 100 78
f 78 100 81
f 89 87 74
f 101 102 103
f 101 103 104
