# RS2 Model 2022
# Vertices: 18
# Faces: 30

v -2 -25 109
v -3 -16 93
v -8 -21 0
v -8 -37 0
v 6 -25 108
v 3 -32 227
v -1 -32 227
v -2 -15 114
v -2 17 142
v -2 22 133
v 7 -16 93
v 8 -21 0
v 8 -37 0
v -2 -24 213
v 5 -24 212
v 6 -15 114
v 6 17 142
v 6 22 133

f 1 2 3
f 1 3 4
f 1 4 5
f 1 5 6
f 1 6 7
f 1 7 8
f 1 8 2
f 2 8 9
f 2 9 10
f 2 10 11
f 2 11 12
f 2 12 3
f 11 5 13
f 11 13 12
f 13 5 4
f 8 14 15
f 8 15 16
f 8 16 9
f 9 16 17
f 9 17 10
f 10 17 18
f 10 18 11
f 11 18 16
f 11 16 5
f 5 16 15
f 5 15 6
f 6 15 14
f 6 14 7
f 7 14 8
f 18 17 16
