# RS2 Model 20239
# Vertices: 85
# Faces: 184

v -4 -18 9
v 25 9 12
v 21 12 13
v 15 5 13
v -6 -14 10
v -31 -40 9
v 0 -20 10
v 45 28 13
v 43 35 13
v 40 39 13
v 25 23 13
v 25 16 13
v 15 13 13
v -13 -16 12
v 1 -5 12
v 4 1 12
v 32 0 11
v 3 -24 9
v 5 -27 9
v 36 -4 11
v 50 15 11
v 29 5 13
v -26 -45 8
v 47 24 13
v 54 31 12
v 57 23 10
v 59 19 8
v 52 11 9
v 6 27 13
v -22 0 9
v -17 -3 10
v 11 23 12
v 29 44 13
v 25 45 13
v 17 48 11
v 2 30 11
v -25 3 9
v -43 -28 8
v -15 -6 9
v 12 20 13
v 14 19 13
v -12 -8 10
v 32 52 12
v 36 51 12
v 42 48 12
v 36 42 13
v 24 56 10
v 20 57 8
v 12 51 9
v -2 34 11
v -1 2 12
v -1 -4 12
v -34 -37 9
v 49 41 12
v 52 35 12
v 46 45 12
v 18 23 13
v 2 5 12
v 10 14 13
v 9 7 13
v -38 -33 9
v -39 -51 7
v -49 -41 7
v -53 -42 5
v -40 -55 5
v -29 -53 7
v -34 -52 8
v -31 -43 8
v -49 -37 8
v -51 -32 8
v -41 -33 8
v 1 -5 13
v 4 1 13
v -1 -4 13
v -13 -16 13
v 2 5 13
v 9 7 14
v 15 5 14
v 15 13 14
v 10 14 14
v 12 20 14
v 18 23 14
v 25 23 14
v 25 16 14
v -1 2 13

f 1 2 3
f 1 3 4
f 1 4 5
f 1 5 6
f 1 6 7
f 1 7 2
f 1 2 7
f 1 7 6
f 1 6 5
f 1 5 3
f 1 3 2
f 2 3 8
f 2 8 3
f 3 8 9
f 3 9 10
f 3 10 11
f 3 11 12
f 3 12 4
f 4 12 13
f 14 5 15
f 15 5 4
f 15 4 16
f 17 18 19
f 17 19 20
f 17 20 21
f 17 21 22
f 17 22 18
f 17 18 22
f 17 22 21
f 17 21 20
f 17 20 19
f 17 19 18
f 18 19 23
f 18 23 19
f 23 18 7
f 23 7 6
f 23 6 7
f 23 7 18
f 18 7 2
f 18 2 22
f 18 22 7
f 7 22 2
f 2 22 8
f 2 8 22
f 22 8 24
f 22 24 8
f 8 24 25
f 8 25 24
f 24 25 21
f 24 21 22
f 24 22 21
f 24 21 25
f 25 21 26
f 25 26 21
f 21 26 27
f 21 27 28
f 21 28 20
f 21 20 28
f 21 28 27
f 21 27 26
f 29 30 31
f 29 31 32
f 29 32 33
f 29 33 34
f 29 34 35
f 29 35 36
f 29 36 30
f 30 36 37
f 30 37 38
f 30 38 31
f 30 31 38
f 30 38 37
f 30 37 36
f 30 36 31
f 31 36 29
f 31 29 39
f 31 39 32
f 32 39 40
f 32 40 41
f 32 41 33
f 32 33 41
f 32 41 42
f 32 42 39
f 32 39 29
f 32 29 33
f 33 29 34
f 33 34 43
f 33 43 44
f 33 44 45
f 33 45 46
f 33 46 41
f 33 41 46
f 33 46 45
f 33 45 44
f 33 44 43
f 33 43 34
f 34 43 35
f 34 35 43
f 43 35 47
f 43 47 35
f 35 47 48
f 35 48 47
f 48 35 49
f 48 49 35
f 35 49 50
f 35 50 36
f 35 36 50
f 35 50 49
f 51 14 52
f 14 51 42
f 14 42 53
f 14 53 5
f 14 5 53
f 14 53 42
f 14 42 11
f 14 11 5
f 5 11 3
f 3 11 10
f 3 10 9
f 3 9 8
f 8 9 54
f 8 54 55
f 8 55 25
f 8 25 55
f 8 55 54
f 8 54 9
f 9 54 10
f 9 10 54
f 54 10 56
f 54 56 10
f 10 56 45
f 10 45 56
f 45 10 46
f 45 46 10
f 10 46 41
f 10 41 11
f 10 11 41
f 10 41 46
f 36 50 37
f 36 37 50
f 40 57 41
f 41 57 11
f 41 11 42
f 40 39 51
f 40 51 58
f 40 58 59
f 59 58 60
f 51 39 42
f 42 39 61
f 42 61 53
f 42 53 61
f 42 61 39
f 39 61 31
f 39 31 61
f 61 31 38
f 61 38 31
f 5 53 6
f 5 6 53
f 29 36 35
f 29 35 34
f 62 63 64
f 62 64 65
f 62 65 66
f 62 66 67
f 67 66 23
f 67 23 68
f 68 23 6
f 69 70 64
f 69 64 63
f 70 69 71
f 70 71 38
f 38 71 61
f 72 73 74
f 72 74 75
f 76 73 77
f 77 73 78
f 77 78 79
f 77 79 80
f 80 79 81
f 81 79 82
f 82 79 83
f 83 79 84
f 85 73 76
f 73 85 74
