# RS2 Model 2023
# Vertices: 50
# Faces: 95

v 37 -8 240
v 37 8 240
v 21 -8 240
v 17 -11 173
v 34 -11 144
v 21 8 240
v 17 8 174
v -34 -8 240
v 15 -11 145
v 32 -15 74
v 64 -13 64
v 34 8 144
v 15 8 145
v -52 8 240
v -34 8 240
v -52 -8 240
v 32 13 74
v -1 -13 86
v -11 -13 65
v 19 -15 49
v 64 -13 25
v -1 11 86
v 19 13 49
v -11 11 65
v -16 9 101
v -16 -13 101
v -34 -13 85
v -34 9 85
v -54 -11 33
v -42 -11 22
v -42 7 22
v 64 12 25
v 64 12 64
v -64 57 158
v -64 42 158
v -32 8 121
v -32 -13 121
v -64 -47 158
v -64 -62 158
v -64 -62 143
v -64 -47 143
v -48 -13 109
v -48 8 109
v -64 42 143
v -64 57 143
v -64 8 160
v -64 -8 160
v -64 -8 136
v -64 8 136
v -54 7 33

f 1 2 3
f 1 3 4
f 1 4 5
f 1 5 2
f 1 2 6
f 1 6 3
f 3 6 4
f 4 6 7
f 4 7 8
f 4 8 9
f 4 9 5
f 5 9 10
f 5 10 11
f 5 11 12
f 5 12 2
f 2 12 6
f 6 12 7
f 7 12 13
f 7 13 14
f 7 14 15
f 7 15 8
f 8 15 14
f 8 14 16
f 8 16 9
f 9 16 13
f 9 13 17
f 9 17 10
f 10 17 18
f 10 18 19
f 10 19 20
f 10 20 21
f 10 21 11
f 22 18 17
f 22 17 23
f 22 23 24
f 22 24 25
f 22 25 18
f 18 25 26
f 18 26 27
f 18 27 19
f 19 27 28
f 19 28 24
f 19 24 29
f 19 29 20
f 20 29 30
f 20 30 31
f 20 31 23
f 20 23 32
f 20 32 21
f 23 17 33
f 23 33 32
f 28 25 24
f 25 28 34
f 25 34 35
f 25 35 36
f 25 36 37
f 25 37 26
f 26 37 38
f 26 38 39
f 26 39 27
f 27 39 40
f 27 40 41
f 27 41 42
f 27 42 43
f 27 43 28
f 28 43 44
f 28 44 45
f 28 45 34
f 34 45 35
f 35 45 44
f 35 44 36
f 36 44 43
f 36 43 46
f 36 46 47
f 36 47 37
f 37 47 48
f 37 48 42
f 37 42 41
f 37 41 38
f 38 41 39
f 39 41 40
f 49 43 42
f 49 42 48
f 49 48 47
f 49 47 46
f 49 46 43
f 31 50 24
f 31 24 23
f 50 29 24
f 29 50 31
f 29 31 30
f 13 12 33
f 13 33 17
f 33 12 11
f 16 14 13
