# RS2 Model 2025
# Vertices: 52
# Faces: 29

v -86 34 234
v -84 42 228
v -85 44 231
v -85 54 231
v -85 43 231
v -84 44 228
v -83 50 222
v -85 43 230
v -84 41 228
v -76 -21 186
v -75 -33 180
v -74 -28 178
v -77 -31 202
v -75 -28 180
v -73 -45 156
v -74 -28 179
v -81 -16 211
v -77 0 193
v -78 4 196
v -82 -21 233
v -76 1 181
v -75 5 181
v -68 -9 139
v -81 3 212
v -76 16 185
v -77 20 191
v -81 0 232
v -74 16 179
v -73 19 173
v -65 9 130
v -81 15 212
v -78 26 198
v -79 32 199
v -82 12 232
v -77 26 191
v -76 31 186
v -71 16 139
v -70 12 104
v -80 29 64
v -80 34 64
v -73 24 92
v -77 30 52
v -77 34 52
v -66 23 12
v -69 -45 24
v -70 -33 30
v -70 -38 32
v -77 -10 53
v -65 -35 8
v -63 -53 88
v -59 69 87
v -88 -53 229

f 1 2 3
f 4 5 6
f 7 8 9
f 10 11 12
f 13 11 14
f 15 16 11
f 17 18 19
f 17 19 20
f 21 22 19
f 21 19 18
f 21 23 22
f 24 25 26
f 24 26 27
f 28 29 26
f 28 26 25
f 28 30 29
f 31 32 33
f 31 33 34
f 35 36 33
f 35 33 32
f 35 37 36
f 38 39 40
f 38 40 41
f 42 43 40
f 42 40 39
f 42 44 43
f 45 46 47
f 47 46 48
f 46 47 49
