# RS2 Model 20253
# Vertices: 55
# Faces: 87

v 3 29 23
v 0 27 23
v 0 7 17
v 4 8 17
v -3 29 23
v -4 8 17
v -5 33 26
v -6 34 25
v 6 34 25
v 0 28 25
v 5 33 26
v 0 39 28
v -3 38 26
v 3 38 26
v -11 -37 5
v -6 -42 4
v -3 -34 6
v -9 -32 6
v 9 -37 5
v 4 -42 4
v -1 -41 4
v -1 -32 6
v -3 -30 7
v -1 -23 9
v 7 -32 6
v 0 41 26
v 3 44 27
v 0 46 28
v -3 44 27
v -6 43 27
v -9 59 17
v -12 60 17
v -9 60 8
v -12 61 8
v 0 51 3
v -6 54 4
v 0 44 1
v -6 47 2
v 6 43 27
v 13 60 17
v 10 59 17
v 6 62 17
v 10 60 8
v 6 63 8
v 0 56 5
v -6 63 8
v -6 62 17
v 13 61 8
v 6 54 4
v 6 47 2
v 1 -30 7
v 1 -34 6
v 8 -30 6
v -1 -22 8
v 0 -41 4

f 1 2 3
f 1 3 4
f 1 4 5
f 5 4 6
f 5 6 2
f 5 2 7
f 5 7 8
f 5 8 9
f 5 9 2
f 2 9 1
f 2 1 10
f 2 10 7
f 7 10 11
f 7 11 12
f 7 12 13
f 7 13 8
f 8 13 14
f 8 14 9
f 9 14 11
f 9 11 1
f 1 11 10
f 15 16 17
f 15 17 18
f 15 18 3
f 15 3 6
f 15 6 19
f 15 19 16
f 16 19 20
f 16 20 21
f 16 21 17
f 17 21 22
f 17 22 18
f 18 22 23
f 18 23 24
f 18 24 3
f 3 24 25
f 3 25 19
f 3 19 4
f 4 19 6
f 26 14 13
f 26 13 12
f 26 12 11
f 26 11 14
f 26 14 27
f 26 27 28
f 26 28 29
f 26 29 13
f 13 29 30
f 30 29 31
f 30 31 32
f 32 31 33
f 32 33 34
f 34 33 35
f 34 35 36
f 36 35 37
f 36 37 38
f 39 27 14
f 27 39 40
f 27 40 41
f 27 41 28
f 28 41 42
f 42 41 43
f 42 43 44
f 44 43 35
f 44 35 45
f 45 35 33
f 45 33 46
f 46 33 31
f 46 31 47
f 47 31 29
f 47 29 28
f 41 40 48
f 41 48 43
f 43 48 49
f 43 49 35
f 35 49 50
f 35 50 37
f 3 2 6
f 22 51 24
f 22 24 23
f 25 51 22
f 25 22 52
f 25 52 19
f 19 52 20
f 20 52 21
f 21 52 22
f 24 51 25
