# RS2 Model 20282
# Vertices: 253
# Faces: 397

v 18 38 13
v 20 44 12
v 24 47 29
v 28 41 25
v 24 31 17
v 0 31 11
v 0 38 10
v 0 48 15
v 15 44 12
v 14 44 6
v 17 40 7
v 19 40 7
v 21 44 6
v 17 49 11
v 17 52 27
v 16 52 39
v 25 44 38
v 28 36 34
v 26 36 5
v 31 24 59
v 21 9 59
v 28 16 34
v 24 16 17
v 0 14 11
v -24 16 17
v -24 31 17
v -18 38 13
v -15 44 12
v -17 49 11
v 0 55 34
v 18 47 5
v 14 40 0
v 16 36 0
v 20 36 0
v 22 40 0
v 18 46 0
v 26 46 66
v 24 28 75
v 31 16 51
v 32 18 42
v 5 53 70
v -1 51 80
v 12 28 83
v 10 12 83
v 18 13 75
v 22 0 73
v 28 -8 55
v 24 -1 30
v 21 3 15
v 7 -8 9
v 3 -8 9
v 0 -9 10
v -3 -8 9
v -7 -8 9
v -21 3 15
v -24 -1 30
v -28 16 34
v -28 36 34
v -24 23 7
v 0 -22 13
v 6 -15 12
v 15 -14 25
v 0 -28 19
v -15 -14 25
v -6 -15 12
v 0 -16 8
v 3 -12 11
v 2 -12 6
v 6 -16 7
v 8 -16 7
v 11 -11 11
v 21 -9 25
v 19 -14 29
v 11 -24 27
v 0 -34 24
v 0 -32 14
v -10 -24 26
v -19 -14 29
v -21 -9 25
v -11 -11 11
v -8 -16 7
v -6 -16 7
v -2 -12 6
v -3 -12 11
v 1 -9 10
v 7 -9 5
v 2 -15 0
v 5 -20 0
v 8 -20 0
v 12 -15 0
v 12 -12 6
v 23 -4 32
v 22 -8 31
v 27 -18 50
v 19 -28 51
v 0 -36 47
v -17 -29 51
v -25 -19 50
v -22 -8 31
v -23 -4 32
v -12 -12 6
v -12 -15 0
v -8 -20 0
v -5 -20 0
v -2 -15 0
v -7 -9 5
v -1 -9 10
v 7 -9 0
v 0 54 70
v 25 -12 69
v 28 -12 44
v 28 -14 34
v 9 -14 79
v 21 -21 67
v 21 -23 45
v 0 59 66
v -5 54 70
v -26 47 66
v -24 28 75
v -12 28 83
v 0 36 90
v 0 11 85
v 0 3 83
v 13 1 78
v 28 7 57
v 0 -12 84
v 3 -24 88
v 0 -32 91
v 10 -37 83
v 12 -18 77
v 8 -41 72
v 12 -34 59
v 8 -35 40
v 7 -35 35
v 0 -41 59
v 0 -44 71
v -8 -41 72
v -13 -34 59
v 3 -20 7
v 22 51 6
v 22 8 2
v 24 23 7
v 29 10 18
v 27 4 22
v 28 4 3
v 30 26 30
v 31 19 25
v 30 22 10
v 4 -44 45
v 31 34 54
v 37 29 42
v 20 50 55
v 32 20 55
v 16 -33 44
v 17 -30 54
v 2 -4 85
v 6 1 84
v 12 8 87
v 3 10 86
v 10 17 89
v 8 48 78
v 4 54 73
v 30 -17 60
v 32 -5 58
v 28 3 48
v 0 19 87
v 2 18 88
v 6 25 91
v 2 -12 85
v 3 -6 83
v 8 -1 85
v 8 58 21
v 31 40 23
v -20 44 12
v -28 41 25
v -24 47 29
v -17 52 27
v -21 44 6
v -19 40 7
v -17 40 7
v -14 44 6
v -18 47 5
v -18 46 0
v -22 40 0
v -20 36 0
v -16 36 0
v -14 40 0
v -25 44 38
v -16 52 43
v -22 50 11
v -24 9 59
v -31 24 59
v -20 13 75
v -12 12 83
v -13 1 78
v -9 -14 79
v -3 -24 88
v -10 -37 83
v -12 -18 77
v -22 -21 67
v -10 -36 39
v -6 -35 23
v -28 -8 55
v -32 27 23
v -32 20 22
v -32 25 11
v -25 -12 69
v -22 0 73
v -30 6 47
v -30 -2 47
v -31 1 33
v -30 6 18
v -29 4 11
v -7 -9 0
v -19 -24 45
v -20 -20 39
v -32 -6 53
v -22 8 2
v -28 -12 44
v -28 -12 33
v -31 34 54
v -31 30 38
v -20 51 55
v -31 16 51
v -32 18 36
v -32 20 55
v -16 -32 43
v -17 -30 54
v -2 -4 85
v -6 1 84
v -12 8 87
v -3 10 86
v -10 17 89
v -9 48 78
v -5 54 73
v -30 -19 47
v -26 6 61
v -7 56 23
v -14 54 16
v -12 55 8
v -2 18 88
v -6 25 91
v -2 -12 85
v -3 -6 83
v -8 -1 85
v -31 41 23
v -22 -5 10
v 29 37 84
v -41 21 84
v 41 -17 88
v 13 -46 86
v -24 -39 67
v 24 -44 59

f 1 2 3
f 1 3 4
f 1 4 5
f 1 5 6
f 1 6 7
f 1 7 8
f 1 8 9
f 1 9 10
f 1 10 11
f 1 11 12
f 1 12 2
f 2 12 13
f 2 13 14
f 2 14 15
f 2 15 3
f 3 15 16
f 3 16 17
f 3 17 4
f 4 17 18
f 4 18 5
f 4 5 19
f 18 20 21
f 18 21 22
f 18 22 23
f 18 23 5
f 5 23 6
f 6 23 24
f 6 24 25
f 6 25 26
f 6 26 7
f 7 26 27
f 7 27 28
f 7 28 8
f 8 28 29
f 8 29 30
f 8 30 14
f 8 14 9
f 9 14 31
f 9 31 10
f 10 31 32
f 10 32 33
f 10 33 11
f 11 33 34
f 11 34 12
f 12 34 35
f 12 35 13
f 13 35 36
f 13 36 31
f 13 31 14
f 18 17 37
f 18 37 20
f 20 37 38
f 20 38 21
f 20 21 39
f 20 39 40
f 17 16 37
f 37 16 41
f 37 41 42
f 37 42 38
f 38 42 43
f 38 43 44
f 38 44 45
f 38 45 21
f 21 45 46
f 21 46 47
f 21 47 22
f 22 47 48
f 22 48 23
f 23 48 49
f 23 49 24
f 24 49 50
f 24 50 51
f 24 51 52
f 24 52 53
f 24 53 54
f 24 54 55
f 24 55 25
f 25 55 56
f 25 56 57
f 25 57 58
f 25 58 26
f 25 26 59
f 60 61 62
f 60 62 63
f 60 63 64
f 60 64 65
f 60 65 66
f 60 66 61
f 61 66 67
f 61 67 68
f 61 68 69
f 61 69 70
f 61 70 71
f 61 71 62
f 62 71 72
f 62 72 73
f 62 73 74
f 62 74 75
f 62 75 63
f 63 75 76
f 63 76 75
f 63 75 64
f 64 75 77
f 64 77 78
f 64 78 79
f 64 79 80
f 64 80 65
f 65 80 81
f 65 81 82
f 65 82 83
f 65 83 84
f 65 84 66
f 66 84 52
f 66 52 67
f 67 52 85
f 67 85 68
f 68 85 51
f 68 51 86
f 68 86 87
f 68 87 88
f 68 88 69
f 69 88 89
f 69 89 70
f 70 89 90
f 70 90 91
f 70 91 71
f 71 91 50
f 71 50 48
f 71 48 72
f 72 48 92
f 72 92 93
f 72 93 73
f 73 93 94
f 73 94 95
f 73 95 74
f 74 95 75
f 75 95 96
f 75 96 97
f 75 97 77
f 77 97 78
f 78 97 98
f 78 98 99
f 78 99 79
f 79 99 100
f 79 100 56
f 79 56 80
f 80 56 54
f 80 54 101
f 80 101 81
f 81 101 102
f 81 102 103
f 81 103 82
f 82 103 104
f 82 104 83
f 83 104 105
f 83 105 106
f 83 106 53
f 83 53 107
f 83 107 84
f 84 107 52
f 52 107 53
f 50 49 48
f 47 94 93
f 47 93 92
f 47 92 48
f 86 108 87
f 87 108 90
f 87 90 88
f 88 90 89
f 91 90 108
f 91 108 86
f 91 86 50
f 50 86 51
f 31 36 32
f 32 36 35
f 32 35 33
f 33 35 34
f 30 109 41
f 30 41 16
f 30 16 15
f 30 15 14
f 47 110 94
f 47 94 111
f 111 94 112
f 47 46 110
f 110 46 113
f 110 113 114
f 110 114 95
f 110 95 94
f 94 95 115
f 42 41 116
f 42 116 117
f 42 117 118
f 42 118 119
f 42 119 120
f 42 120 121
f 42 121 43
f 43 121 44
f 44 121 122
f 44 122 123
f 44 123 124
f 44 124 45
f 45 124 46
f 45 46 125
f 123 126 113
f 123 113 124
f 124 113 46
f 127 113 126
f 127 126 128
f 127 128 129
f 127 129 130
f 127 130 113
f 113 130 114
f 114 130 129
f 114 129 131
f 114 131 132
f 114 132 95
f 95 132 96
f 95 96 133
f 133 96 134
f 135 131 136
f 135 136 137
f 135 137 138
f 135 138 96
f 135 96 132
f 135 132 131
f 62 60 139
f 15 3 140
f 141 23 49
f 142 5 23
f 22 48 143
f 143 48 144
f 143 144 145
f 18 22 146
f 146 22 147
f 146 147 148
f 149 131 135
f 37 20 150
f 150 20 151
f 41 37 152
f 38 45 153
f 154 155 132
f 132 155 114
f 30 117 109
f 109 117 116
f 109 116 41
f 123 126 156
f 123 156 157
f 123 157 158
f 122 123 159
f 122 159 160
f 42 38 161
f 42 161 162
f 110 114 163
f 46 110 164
f 165 21 47
f 166 122 167
f 166 167 168
f 126 127 169
f 126 169 170
f 170 169 171
f 30 16 172
f 17 18 173
f 174 27 175
f 174 175 176
f 174 176 177
f 174 177 29
f 174 29 178
f 174 178 179
f 174 179 27
f 27 179 180
f 27 180 181
f 27 181 28
f 28 181 182
f 28 182 29
f 29 182 178
f 178 182 183
f 178 183 184
f 178 184 179
f 179 184 185
f 179 185 180
f 180 185 186
f 180 186 181
f 181 186 187
f 181 187 182
f 182 187 183
f 183 187 184
f 184 187 186
f 184 186 185
f 175 188 176
f 176 188 189
f 176 189 177
f 176 177 190
f 175 58 188
f 188 58 118
f 188 118 189
f 189 118 117
f 189 117 30
f 189 30 177
f 177 30 29
f 58 191 192
f 58 192 118
f 118 192 119
f 119 192 191
f 119 191 193
f 119 193 194
f 119 194 120
f 120 194 121
f 121 194 122
f 122 194 123
f 123 194 195
f 123 195 196
f 123 196 126
f 126 196 197
f 126 197 128
f 128 197 198
f 198 197 199
f 198 199 200
f 198 200 137
f 137 200 138
f 138 200 97
f 138 97 96
f 96 97 201
f 96 201 202
f 54 56 55
f 57 203 191
f 57 191 58
f 57 58 204
f 57 204 205
f 205 204 206
f 203 99 98
f 203 98 207
f 203 207 208
f 203 208 191
f 203 191 209
f 203 209 210
f 210 209 211
f 203 100 99
f 100 203 56
f 56 203 57
f 56 57 212
f 56 212 213
f 106 105 214
f 106 214 101
f 106 101 54
f 106 54 53
f 101 214 102
f 102 214 105
f 102 105 104
f 102 104 103
f 58 175 26
f 26 175 27
f 191 208 193
f 193 208 195
f 193 195 194
f 97 207 98
f 97 98 215
f 215 98 216
f 207 97 200
f 207 200 196
f 207 196 208
f 207 208 217
f 196 195 208
f 196 199 197
f 199 196 200
f 218 55 25
f 203 219 98
f 98 219 220
f 118 221 192
f 192 221 222
f 117 223 118
f 192 224 191
f 224 192 225
f 119 226 193
f 227 138 228
f 228 138 200
f 123 229 126
f 229 123 230
f 230 123 231
f 122 232 123
f 232 122 233
f 42 234 119
f 234 42 235
f 207 236 200
f 193 237 208
f 30 238 177
f 177 238 239
f 239 238 240
f 166 241 122
f 241 166 242
f 243 197 126
f 243 126 244
f 243 244 245
f 188 246 58
f 79 56 247
f 51 85 52
f 248 249 250
