# RS2 Model 20291
# Vertices: 57
# Faces: 100

v -2 -62 75
v 0 -62 71
v 2 -62 75
v 0 -60 83
v -3 -59 73
v -4 -57 68
v 0 -59 66
v 4 -57 68
v 3 -59 73
v 2 -56 82
v 5 -53 89
v 0 -54 90
v -5 -53 89
v -2 -56 82
v -6 -53 83
v -10 -49 78
v -6 -52 73
v -4 -51 70
v 0 -52 67
v 4 -51 70
v 6 -52 73
v 10 -49 78
v 6 -53 83
v 6 -52 86
v 8 -49 87
v 7 -45 92
v 9 -46 87
v 8 -44 88
v 10 -40 86
v 16 -39 83
v 9 -37 81
v 9 -49 84
v 8 -41 72
v 0 -47 71
v 0 -50 70
v -8 -41 72
v -9 -37 81
v -9 -49 84
v -9 -46 87
v -10 -40 86
v -15 -46 83
v -16 -39 83
v -8 -44 88
v -7 -45 92
v -8 -49 87
v -6 -52 86
v -7 -52 83
v 7 -51 86
v 8 -50 85
v 15 -46 83
v 17 -42 85
v 19 -42 79
v -7 -51 86
v -8 -50 85
v -19 -42 79
v -17 -42 85
v 7 -52 83

f 1 2 3
f 1 3 4
f 1 4 5
f 1 5 2
f 2 5 6
f 2 6 7
f 2 7 8
f 2 8 9
f 2 9 3
f 3 9 4
f 4 9 10
f 4 10 11
f 4 11 12
f 4 12 13
f 4 13 14
f 4 14 5
f 5 14 15
f 5 15 16
f 5 16 17
f 5 17 6
f 6 17 18
f 6 18 19
f 6 19 7
f 7 19 8
f 8 19 20
f 8 20 21
f 8 21 9
f 9 21 22
f 9 22 23
f 9 23 10
f 10 23 24
f 10 24 11
f 11 24 25
f 11 25 26
f 26 25 27
f 26 27 28
f 26 28 29
f 29 28 30
f 29 30 27
f 29 27 31
f 31 27 32
f 31 32 22
f 31 22 33
f 33 22 21
f 33 21 20
f 33 20 34
f 34 20 35
f 34 35 18
f 34 18 36
f 36 18 17
f 36 17 16
f 36 16 37
f 37 16 38
f 37 38 39
f 37 39 40
f 40 39 41
f 40 41 42
f 40 42 43
f 40 43 44
f 44 43 39
f 44 39 45
f 44 45 13
f 13 45 46
f 13 46 14
f 14 46 15
f 15 46 47
f 15 47 38
f 15 38 16
f 25 24 48
f 25 48 49
f 25 49 32
f 25 32 27
f 30 50 27
f 27 50 28
f 28 50 51
f 28 51 30
f 30 51 52
f 30 52 50
f 50 52 51
f 45 53 46
f 46 53 47
f 47 53 54
f 47 54 38
f 38 54 45
f 38 45 39
f 42 41 55
f 42 55 56
f 42 56 43
f 43 56 41
f 43 41 39
f 35 20 19
f 35 19 18
f 22 32 23
f 23 32 57
f 23 57 24
f 24 57 48
f 48 57 49
f 49 57 32
f 41 56 55
f 45 54 53
