# RS2 Model 20303
# Vertices: 238
# Faces: 468

v -28 4 13
v -30 3 9
v -30 4 12
v -28 1 13
v -9 3 15
v -10 5 13
v -13 3 9
v -10 0 13
v -30 1 12
v -54 3 9
v -54 6 13
v -54 0 13
v -56 0 12
v -76 1 9
v -76 3 6
v -76 4 9
v -56 6 12
v -78 5 8
v -78 0 8
v -77 3 5
v -89 3 6
v -9 -7 18
v -7 -4 20
v -10 6 16
v -9 8 12
v 0 10 11
v 0 -1 5
v -10 0 11
v -10 -3 12
v -10 -5 11
v -10 -10 11
v -4 -13 14
v -3 -15 17
v 0 -6 26
v 7 -4 19
v 1 3 25
v -6 6 17
v -21 27 21
v -19 29 15
v -5 8 16
v -6 12 17
v 0 13 13
v 6 12 17
v 5 8 16
v 9 8 12
v 13 3 9
v 10 0 11
v 12 -3 7
v 12 -6 10
v 9 -10 6
v 7 -13 7
v 4 -12 7
v 0 -14 7
v -4 -12 7
v -7 -13 7
v -9 -10 6
v -12 -6 10
v -12 -3 7
v -31 -3 7
v -30 -1 12
v -30 -5 12
v -25 -31 11
v -20 -32 11
v -8 -12 9
v -7 -11 10
v -5 -13 9
v -3 -17 12
v -4 -16 16
v 0 -15 15
v 3 -15 17
v 4 -13 14
v 7 -11 10
v 10 -10 11
v 10 -5 11
v 10 -3 12
v 10 0 13
v 9 3 15
v 10 6 16
v 6 6 17
v 4 8 20
v 0 7 22
v -4 8 20
v -17 28 21
v -18 30 19
v -22 29 19
v -28 51 19
v -24 52 14
v -21 52 19
v -4 -17 8
v -2 -20 10
v -1 -17 8
v 3 -17 12
v 5 -13 9
v 4 -16 16
v 17 28 21
v 19 29 15
v 21 27 21
v 10 5 13
v 28 4 13
v 30 3 9
v 28 1 13
v 30 -1 12
v 31 -3 7
v 30 -5 12
v 25 -31 11
v 23 -33 6
v 20 -32 11
v 8 -12 9
v 7 -19 8
v 6 -18 9
v 21 -34 9
v 25 -33 9
v 31 -55 10
v 28 -56 5
v 24 -57 10
v 30 1 12
v 30 4 12
v 54 6 14
v 54 3 9
v 54 0 14
v 7 -18 9
v 8 -19 10
v 6 -23 7
v 5 -19 10
v 5 -29 9
v 8 -29 9
v 6 -29 7
v 4 -17 8
v 2 -20 10
v 2 -19 3
v 1 -17 8
v -2 -19 3
v -23 -33 6
v -25 -33 9
v -21 -34 9
v -22 54 17
v -28 53 17
v -30 73 11
v -28 73 14
v -31 73 14
v -31 75 13
v -30 75 10
v -29 75 13
v -32 85 9
v 22 29 19
v 18 30 19
v 24 52 14
v 28 51 19
v 21 52 19
v 22 54 17
v 30 73 11
v 28 53 17
v 28 74 14
v 29 75 13
v 30 75 10
v 31 73 14
v 31 75 13
v 32 85 9
v -31 -1 10
v -31 -5 10
v -55 -3 7
v -55 0 11
v -55 -6 11
v -57 -6 9
v -77 -4 6
v -77 -3 4
v -77 -1 6
v -57 0 9
v -79 -1 6
v -79 -4 6
v -78 -3 3
v -91 -2 3
v 56 0 12
v 56 6 12
v 76 3 6
v 76 4 9
v 78 5 8
v 77 3 5
v 76 1 9
v 78 0 8
v 91 3 4
v -28 -56 5
v -31 -55 10
v -24 -57 10
v -31 -57 8
v -25 -59 8
v -30 -78 5
v -33 -78 3
v -35 -78 5
v -33 -79 1
v -34 -79 5
v -32 -80 5
v -33 -90 1
v 31 -5 10
v 31 -1 10
v 55 0 11
v 55 -3 7
v 55 -6 11
v 57 -6 9
v 57 0 9
v 77 -3 4
v 77 -4 6
v 77 -1 6
v 79 -1 6
v 78 -3 3
v 79 -4 6
v 91 -2 3
v 25 -59 8
v 31 -57 8
v 33 -78 3
v 35 -77 5
v 33 -79 1
v 30 -78 5
v 32 -80 5
v 34 -79 5
v 35 -90 1
v 6 -36 2
v 7 -31 10
v 4 -31 10
v 7 -30 6
v 7 -27 1
v -7 -20 9
v -7 -20 7
v -8 -21 10
v -6 -20 9
v -5 -21 10
v -7 -30 6
v -8 -34 7
v -5 -34 7
v -6 -33 5
v -7 -32 0
v -7 -36 4
v -8 -37 7
v -5 -37 7
v -7 -37 3
v -7 -40 5
v -7 -38 -3
v -7 -24 2

f 1 2 3
f 1 3 4
f 1 4 5
f 1 5 6
f 1 6 2
f 2 6 7
f 2 7 8
f 2 8 4
f 2 4 9
f 2 9 10
f 2 10 3
f 3 10 11
f 3 11 9
f 3 9 4
f 9 12 10
f 10 12 13
f 10 13 14
f 10 14 15
f 10 15 16
f 10 16 17
f 10 17 11
f 11 17 12
f 11 12 9
f 12 17 13
f 13 17 16
f 13 16 14
f 14 16 18
f 14 18 19
f 14 19 15
f 15 19 20
f 15 20 16
f 16 20 18
f 18 20 21
f 18 21 19
f 19 21 20
f 4 8 5
f 5 8 22
f 5 22 23
f 5 23 24
f 5 24 6
f 6 24 25
f 6 25 7
f 7 25 26
f 7 26 27
f 7 27 28
f 7 28 8
f 8 28 29
f 8 29 22
f 22 29 30
f 22 30 31
f 22 31 32
f 22 32 23
f 23 32 33
f 23 33 34
f 23 34 35
f 23 35 36
f 23 36 37
f 23 37 24
f 24 37 38
f 24 38 25
f 25 38 39
f 25 39 40
f 25 40 26
f 26 40 41
f 26 41 42
f 26 42 43
f 26 43 44
f 26 44 45
f 26 45 46
f 26 46 27
f 27 46 47
f 27 47 48
f 27 48 49
f 27 49 50
f 27 50 51
f 27 51 52
f 27 52 53
f 27 53 54
f 27 54 55
f 27 55 56
f 27 56 57
f 27 57 58
f 27 58 28
f 28 58 59
f 28 59 60
f 28 60 29
f 29 60 61
f 29 61 30
f 30 61 59
f 30 59 58
f 30 58 57
f 30 57 31
f 31 57 62
f 31 62 63
f 31 63 64
f 31 64 65
f 31 65 32
f 32 65 66
f 32 66 67
f 32 67 68
f 32 68 33
f 33 68 69
f 33 69 70
f 33 70 34
f 34 70 35
f 35 70 71
f 35 71 72
f 35 72 73
f 35 73 74
f 35 74 75
f 35 75 76
f 35 76 77
f 35 77 78
f 35 78 79
f 35 79 36
f 36 79 80
f 36 80 81
f 36 81 82
f 36 82 37
f 37 82 40
f 37 40 83
f 37 83 38
f 38 83 84
f 38 84 85
f 38 85 39
f 39 85 86
f 39 86 87
f 39 87 88
f 39 88 84
f 39 84 83
f 39 83 40
f 66 55 54
f 66 54 67
f 67 54 89
f 67 89 90
f 67 90 91
f 67 91 53
f 67 53 92
f 67 92 69
f 67 69 68
f 92 52 93
f 92 93 71
f 92 71 94
f 92 94 69
f 69 94 70
f 70 94 71
f 43 80 44
f 44 80 79
f 44 79 95
f 44 95 45
f 45 95 96
f 45 96 97
f 45 97 78
f 45 78 98
f 45 98 46
f 46 98 99
f 46 99 100
f 46 100 101
f 46 101 76
f 46 76 47
f 47 76 75
f 47 75 102
f 47 102 48
f 48 102 103
f 48 103 104
f 48 104 74
f 48 74 49
f 49 74 73
f 49 73 105
f 49 105 50
f 50 105 106
f 50 106 107
f 50 107 108
f 50 108 51
f 51 108 109
f 51 109 110
f 51 110 93
f 51 93 52
f 72 108 73
f 73 108 107
f 73 107 105
f 105 107 111
f 105 111 112
f 105 112 106
f 106 112 113
f 106 113 114
f 106 114 115
f 106 115 111
f 106 111 107
f 98 78 77
f 98 77 99
f 99 77 101
f 99 101 116
f 99 116 117
f 99 117 100
f 100 117 118
f 100 118 119
f 100 119 120
f 100 120 116
f 100 116 101
f 71 93 72
f 72 93 110
f 72 110 121
f 72 121 108
f 108 121 109
f 109 121 122
f 109 122 123
f 109 123 124
f 109 124 110
f 110 124 121
f 121 124 122
f 122 124 125
f 122 125 126
f 122 126 123
f 123 126 127
f 123 127 125
f 123 125 124
f 128 52 92
f 128 92 129
f 128 129 130
f 128 130 131
f 128 131 53
f 128 53 52
f 92 53 131
f 92 131 129
f 129 131 130
f 41 40 82
f 54 53 91
f 54 91 89
f 89 91 132
f 89 132 90
f 90 132 91
f 56 55 64
f 56 64 133
f 56 133 57
f 57 133 62
f 62 133 134
f 62 134 135
f 62 135 63
f 63 135 133
f 63 133 64
f 85 84 88
f 85 88 86
f 86 88 136
f 86 136 137
f 86 137 87
f 87 137 138
f 87 138 136
f 87 136 88
f 137 136 139
f 137 139 140
f 137 140 138
f 138 140 141
f 138 141 142
f 138 142 139
f 138 139 136
f 140 139 143
f 140 143 141
f 141 143 144
f 141 144 142
f 142 144 143
f 142 143 139
f 95 97 145
f 95 145 146
f 95 146 96
f 96 146 147
f 96 147 148
f 96 148 145
f 96 145 97
f 146 145 148
f 146 148 149
f 146 149 147
f 147 149 150
f 147 150 151
f 147 151 152
f 147 152 148
f 148 152 149
f 149 152 150
f 150 152 153
f 150 153 151
f 151 153 154
f 151 154 155
f 151 155 156
f 151 156 152
f 152 156 153
f 153 156 154
f 154 156 157
f 154 157 158
f 154 158 155
f 155 158 157
f 155 157 156
f 95 79 78
f 95 78 97
f 61 60 159
f 61 159 160
f 61 160 59
f 59 160 161
f 59 161 159
f 59 159 60
f 160 159 162
f 160 162 163
f 160 163 161
f 161 163 164
f 161 164 165
f 161 165 166
f 161 166 167
f 161 167 168
f 161 168 162
f 161 162 159
f 163 162 168
f 163 168 164
f 164 168 167
f 164 167 165
f 165 167 169
f 165 169 170
f 165 170 166
f 166 170 171
f 166 171 167
f 167 171 169
f 169 171 172
f 169 172 170
f 170 172 171
f 117 116 120
f 117 120 118
f 118 120 173
f 118 173 174
f 118 174 119
f 119 174 175
f 119 175 173
f 119 173 120
f 175 174 176
f 175 176 177
f 175 177 178
f 175 178 179
f 175 179 173
f 173 179 174
f 174 179 176
f 176 179 180
f 176 180 177
f 177 180 181
f 177 181 178
f 178 181 180
f 178 180 179
f 77 76 101
f 134 133 182
f 134 182 183
f 134 183 184
f 134 184 135
f 135 184 182
f 135 182 133
f 183 182 185
f 183 185 184
f 184 185 186
f 184 186 182
f 182 186 187
f 182 187 188
f 182 188 189
f 182 189 185
f 185 189 187
f 185 187 186
f 189 188 190
f 189 190 191
f 189 191 192
f 189 192 187
f 187 192 190
f 187 190 188
f 193 191 190
f 193 190 192
f 193 192 191
f 102 104 194
f 102 194 195
f 102 195 103
f 103 195 196
f 103 196 197
f 103 197 198
f 103 198 194
f 103 194 104
f 195 194 198
f 195 198 196
f 196 198 199
f 196 199 200
f 196 200 197
f 197 200 201
f 197 201 199
f 197 199 198
f 200 199 202
f 200 202 203
f 200 203 201
f 201 203 204
f 201 204 205
f 201 205 202
f 201 202 199
f 203 202 206
f 203 206 204
f 204 206 207
f 204 207 205
f 205 207 206
f 205 206 202
f 75 104 102
f 104 75 74
f 112 111 115
f 112 115 113
f 113 115 208
f 113 208 209
f 113 209 114
f 114 209 210
f 114 210 208
f 114 208 115
f 210 209 211
f 210 211 212
f 210 212 213
f 210 213 208
f 208 213 209
f 209 213 211
f 211 213 214
f 211 214 215
f 211 215 212
f 212 215 216
f 212 216 214
f 212 214 213
f 216 215 214
f 217 218 219
f 217 219 220
f 217 220 218
f 218 220 127
f 218 127 126
f 218 126 219
f 219 126 125
f 219 125 220
f 220 125 127
f 123 221 127
f 123 127 221
f 222 65 64
f 222 64 55
f 222 55 223
f 222 223 224
f 222 224 225
f 222 225 65
f 65 225 66
f 66 225 223
f 66 223 55
f 225 224 226
f 225 226 223
f 223 226 227
f 223 227 224
f 224 227 228
f 224 228 226
f 226 228 229
f 226 229 227
f 227 229 230
f 227 230 231
f 227 231 230
f 227 230 228
f 228 230 232
f 228 232 233
f 228 233 229
f 229 233 234
f 229 234 230
f 230 234 232
f 232 234 235
f 232 235 233
f 233 235 236
f 233 236 234
f 234 236 235
f 235 236 237
f 235 237 236
f 223 238 227
f 223 227 238
