# RS2 Model 20313
# Vertices: 23
# Faces: 38

v -11 21 27
v -3 12 29
v -3 16 33
v -6 30 37
v -7 30 26
v -8 25 21
v -6 12 17
v -4 8 20
v 0 7 22
v 3 12 29
v 3 16 33
v 1 22 38
v -1 22 38
v 0 28 39
v 0 34 37
v 0 35 32
v 7 30 26
v 8 25 21
v 0 13 13
v 11 21 27
v 6 30 37
v 4 8 20
v 6 12 17

f 1 2 3
f 1 3 4
f 1 4 5
f 1 5 6
f 1 6 7
f 1 7 8
f 1 8 2
f 2 8 9
f 2 9 10
f 2 10 11
f 2 11 3
f 3 11 12
f 3 12 13
f 3 13 4
f 4 13 14
f 4 14 15
f 4 15 16
f 4 16 5
f 5 16 17
f 5 17 6
f 6 17 18
f 6 18 19
f 6 19 7
f 20 18 17
f 20 17 21
f 20 21 11
f 20 11 10
f 20 10 22
f 20 22 23
f 20 23 18
f 18 23 19
f 22 10 9
f 12 21 14
f 12 14 13
f 15 21 16
f 16 21 17
f 15 14 21
f 11 21 12
