# RS2 Model 2034
# Vertices: 173
# Faces: 271

v -59 20 136
v -59 16 136
v -59 16 165
v -59 20 165
v -55 24 136
v -55 24 165
v -55 12 136
v -51 12 136
v -47 16 136
v -47 20 136
v -51 24 136
v -51 24 165
v -47 20 165
v -47 16 165
v -51 12 165
v -55 12 165
v -58 19 148
v -58 17 148
v -54 13 148
v -52 13 148
v -48 17 148
v -48 19 148
v -52 23 148
v -54 23 148
v -54 23 136
v -58 19 136
v -58 17 136
v -52 23 136
v -48 19 136
v -48 17 136
v -52 13 136
v -54 13 136
v -62 -2 140
v -62 -2 136
v -49 -16 138
v -55 2 140
v -55 2 136
v -33 -15 140
v -33 -15 136
v -49 -16 136
v -49 -16 140
v -44 -21 140
v -45 -22 136
v -57 -30 140
v -57 -30 136
v -47 -23 140
v -35 -43 140
v -25 -55 140
v -25 -55 136
v -44 -21 136
v -39 -49 140
v -39 -49 136
v -43 -43 140
v -43 -43 136
v -35 -43 136
v -47 -23 136
v -44 1 136
v -44 -3 136
v -49 -5 144
v -49 3 144
v -39 6 136
v -41 11 144
v -35 6 136
v -33 11 144
v -30 1 136
v -25 3 144
v -30 -3 136
v -25 -5 144
v -35 -8 136
v -33 -13 144
v -39 -8 136
v -41 -13 144
v -39 -5 152
v -41 -3 152
v -41 1 152
v -39 3 152
v -35 3 152
v -33 1 152
v -33 -3 152
v -35 -5 152
v -36 -3 170
v -38 -3 170
v -39 -2 170
v -39 0 170
v -38 1 170
v -36 1 170
v -35 0 170
v -35 -2 170
v -33 -3 174
v -35 -5 174
v -39 -5 174
v -41 -3 174
v -41 1 174
v -39 3 174
v -35 3 174
v -33 1 174
v -34 27 142
v -34 23 142
v -36 21 150
v -36 29 148
v -30 27 142
v -28 29 148
v -30 23 142
v -28 21 150
v -39 27 136
v -39 23 136
v -44 21 140
v -44 29 140
v -34 32 136
v -36 37 140
v -30 32 136
v -28 37 140
v -25 27 136
v -20 29 140
v -25 23 136
v -20 21 140
v -30 18 136
v -28 13 140
v -34 18 136
v -36 13 140
v -34 19 142
v -38 23 142
v -38 27 142
v -34 31 142
v -30 31 142
v -26 27 142
v -26 23 142
v -30 19 142
v -24 -56 136
v -64 -56 136
v -64 -56 128
v -24 -56 128
v -24 56 136
v -64 56 136
v -24 56 128
v -64 56 128
v -52 52 128
v -64 52 112
v -64 48 112
v -52 48 128
v -64 48 108
v -44 48 128
v -64 52 108
v -44 52 128
v -52 -48 128
v -64 -48 112
v -64 -52 112
v -52 -52 128
v -64 -52 108
v -44 -52 128
v -64 -48 108
v -44 -48 128
v -48 30 170
v -48 30 165
v -37 42 165
v -37 42 170
v -34 50 136
v -34 50 178
v -32 48 178
v -32 48 136
v -55 26 178
v -55 26 136
v -63 34 136
v -63 34 178
v -40 56 178
v -40 56 136
v -56 29 178
v -41 57 136
v -41 57 178
v -39 55 178
v -39 55 136
v -34 50 137
v -60 33 178

f 1 2 3
f 1 3 4
f 1 4 5
f 1 5 6
f 1 6 4
f 1 4 2
f 1 2 7
f 1 7 8
f 1 8 9
f 1 9 10
f 1 10 11
f 1 11 5
f 5 11 12
f 5 12 6
f 5 6 11
f 11 6 12
f 11 12 10
f 11 10 13
f 11 13 12
f 12 13 10
f 10 13 9
f 10 9 14
f 10 14 13
f 13 14 9
f 9 14 8
f 9 8 15
f 9 15 14
f 14 15 8
f 8 15 7
f 8 7 16
f 8 16 15
f 15 16 7
f 7 16 2
f 7 2 3
f 7 3 16
f 16 3 2
f 5 4 6
f 4 3 2
f 17 18 19
f 17 19 20
f 17 20 21
f 17 21 22
f 17 22 23
f 17 23 24
f 17 24 25
f 17 25 26
f 17 26 18
f 17 18 27
f 17 27 26
f 17 26 24
f 24 26 25
f 24 25 23
f 24 23 28
f 24 28 25
f 25 28 23
f 23 28 22
f 23 22 29
f 23 29 28
f 28 29 22
f 22 29 21
f 22 21 30
f 22 30 29
f 29 30 21
f 21 30 20
f 21 20 31
f 21 31 30
f 30 31 20
f 20 31 19
f 20 19 32
f 20 32 31
f 31 32 19
f 19 32 18
f 19 18 27
f 19 27 32
f 32 27 18
f 26 27 18
f 33 34 35
f 33 35 36
f 33 36 34
f 34 36 37
f 34 37 35
f 35 37 36
f 38 39 40
f 38 40 41
f 38 41 42
f 38 42 39
f 39 42 43
f 44 41 40
f 44 40 45
f 44 45 46
f 44 46 41
f 41 46 42
f 42 46 47
f 42 47 48
f 42 48 49
f 42 49 50
f 46 45 43
f 47 51 48
f 48 51 52
f 48 52 49
f 46 53 47
f 47 53 54
f 47 54 55
f 47 55 51
f 51 55 52
f 54 53 46
f 54 46 56
f 57 58 59
f 57 59 60
f 57 60 61
f 61 60 62
f 61 62 63
f 63 62 64
f 63 64 65
f 65 64 66
f 65 66 67
f 67 66 68
f 67 68 69
f 69 68 70
f 69 70 71
f 71 70 72
f 71 72 58
f 58 72 59
f 59 72 73
f 59 73 74
f 59 74 60
f 60 74 75
f 60 75 62
f 62 75 76
f 62 76 64
f 64 76 77
f 64 77 66
f 66 77 78
f 66 78 68
f 68 78 79
f 68 79 70
f 70 79 80
f 70 80 72
f 72 80 73
f 73 80 81
f 73 81 82
f 73 82 74
f 74 82 83
f 74 83 75
f 75 83 84
f 75 84 76
f 76 84 85
f 76 85 77
f 77 85 86
f 77 86 78
f 78 86 87
f 78 87 79
f 79 87 88
f 79 88 80
f 80 88 81
f 81 88 89
f 81 89 90
f 81 90 82
f 82 90 91
f 82 91 83
f 83 91 92
f 83 92 84
f 84 92 93
f 84 93 85
f 85 93 94
f 85 94 86
f 86 94 95
f 86 95 87
f 87 95 96
f 87 96 88
f 88 96 89
f 89 96 94
f 89 94 90
f 90 94 91
f 91 94 92
f 92 94 93
f 94 96 95
f 97 98 99
f 97 99 100
f 97 100 101
f 101 100 102
f 101 102 103
f 103 102 104
f 103 104 98
f 98 104 99
f 99 104 100
f 100 104 102
f 105 106 107
f 105 107 108
f 105 108 109
f 109 108 110
f 109 110 111
f 111 110 112
f 111 112 113
f 113 112 114
f 113 114 115
f 115 114 116
f 115 116 117
f 117 116 118
f 117 118 119
f 119 118 120
f 119 120 106
f 106 120 107
f 107 120 121
f 107 121 122
f 107 122 108
f 108 122 123
f 108 123 110
f 110 123 124
f 110 124 112
f 112 124 125
f 112 125 114
f 114 125 126
f 114 126 116
f 116 126 127
f 116 127 118
f 118 127 128
f 118 128 120
f 120 128 121
f 121 128 124
f 121 124 122
f 122 124 123
f 124 128 127
f 124 127 126
f 124 126 125
f 129 130 131
f 129 131 132
f 129 132 133
f 129 133 130
f 130 133 134
f 134 133 135
f 134 135 136
f 133 132 135
f 137 138 139
f 137 139 140
f 140 139 141
f 140 141 142
f 142 141 143
f 142 143 144
f 144 143 138
f 144 138 137
f 145 146 147
f 145 147 148
f 148 147 149
f 148 149 150
f 150 149 151
f 150 151 152
f 152 151 146
f 152 146 145
f 153 154 155
f 153 155 156
f 157 158 159
f 157 159 160
f 160 159 161
f 160 161 162
f 162 161 163
f 163 161 164
f 163 164 165
f 163 165 166
f 158 167 161
f 158 161 159
f 168 169 170
f 168 170 171
f 171 170 172
f 172 170 158
f 158 170 173
f 158 173 167
f 167 173 164
f 167 164 161
f 169 164 173
f 169 173 170
