# RS2 Model 20397
# Vertices: 102
# Faces: 200

v 22 16 187
v 8 23 189
v 0 16 194
v 14 9 194
v 29 6 184
v 43 8 174
v 32 23 175
v 12 32 183
v -8 23 189
v -14 9 194
v -10 8 198
v 0 12 197
v 10 8 198
v 18 -2 194
v 29 -9 184
v 43 -12 174
v 43 -13 172
v 43 7 172
v 32 22 173
v 11 32 181
v -11 33 183
v -22 17 187
v -18 -2 194
v -14 0 199
v -10 4 208
v -9 9 202
v 0 13 200
v 9 9 202
v 14 0 199
v 14 -13 194
v 22 -21 189
v 32 -31 184
v 32 -32 182
v 0 -2 190
v -11 32 181
v -32 25 175
v -28 6 184
v -28 -9 184
v -14 -13 194
v -10 -9 201
v -8 -2 212
v -2 10 218
v -5 15 213
v -1 16 207
v 6 17 205
v 11 13 206
v 13 1 205
v 10 -9 201
v 0 -20 194
v 8 -27 193
v 11 -39 196
v 11 -40 194
v -11 -40 194
v -30 -32 182
v -41 -13 172
v -41 7 172
v -32 24 173
v -41 8 174
v -41 -12 174
v -21 -21 189
v 0 -14 202
v 1 -6 214
v 5 6 221
v 8 16 224
v 1 19 220
v -3 21 214
v 0 20 208
v 6 20 205
v 14 16 207
v 14 8 210
v 10 -4 211
v -8 -27 193
v -11 -39 196
v -30 -31 184
v 12 7 217
v 14 15 219
v 17 29 216
v 12 31 219
v 6 32 217
v 1 31 211
v 4 28 207
v 8 26 204
v 14 25 206
v 16 14 211
v 19 26 210
v 20 32 206
v 21 35 209
v 16 39 210
v 11 40 208
v 7 38 204
v 9 34 202
v 11 30 200
v 18 30 202
v 17 34 196
v 19 36 196
v 20 39 197
v 18 41 198
v 15 42 197
v 12 39 196
v 12 37 196
v 14 34 195
v 17 35 178

f 1 2 3
f 1 3 4
f 1 4 5
f 1 5 6
f 1 6 7
f 1 7 2
f 2 7 8
f 2 8 9
f 2 9 3
f 3 9 10
f 3 10 11
f 3 11 12
f 3 12 4
f 4 12 13
f 4 13 14
f 4 14 5
f 5 14 15
f 5 15 16
f 5 16 6
f 6 16 17
f 6 17 18
f 6 18 7
f 7 18 19
f 7 19 8
f 8 19 20
f 8 20 21
f 8 21 9
f 9 21 22
f 9 22 10
f 10 22 23
f 10 23 24
f 10 24 11
f 11 24 25
f 11 25 26
f 11 26 12
f 12 26 27
f 12 27 13
f 13 27 28
f 13 28 29
f 13 29 14
f 14 29 30
f 14 30 31
f 14 31 15
f 15 31 32
f 15 32 16
f 16 32 33
f 16 33 17
f 17 33 34
f 17 34 18
f 18 34 19
f 19 34 20
f 20 34 35
f 20 35 21
f 21 35 36
f 21 36 22
f 22 36 37
f 22 37 23
f 23 37 38
f 23 38 39
f 23 39 40
f 23 40 24
f 24 40 41
f 24 41 25
f 25 41 42
f 25 42 43
f 25 43 26
f 26 43 44
f 26 44 27
f 27 44 45
f 27 45 28
f 28 45 46
f 28 46 47
f 28 47 29
f 29 47 48
f 29 48 30
f 30 48 49
f 30 49 50
f 30 50 31
f 31 50 32
f 32 50 51
f 32 51 52
f 32 52 33
f 33 52 34
f 34 52 53
f 34 53 54
f 34 54 55
f 34 55 56
f 34 56 57
f 34 57 35
f 35 57 36
f 36 57 58
f 36 58 37
f 37 58 38
f 38 58 59
f 38 59 60
f 38 60 39
f 39 60 49
f 39 49 61
f 39 61 40
f 40 61 62
f 40 62 41
f 41 62 63
f 41 63 42
f 42 63 64
f 42 64 65
f 42 65 43
f 43 65 66
f 43 66 44
f 44 66 67
f 44 67 45
f 45 67 68
f 45 68 46
f 46 68 69
f 46 69 70
f 46 70 47
f 47 70 71
f 47 71 48
f 48 71 61
f 48 61 49
f 49 72 50
f 50 72 73
f 50 73 51
f 51 73 53
f 51 53 52
f 60 72 49
f 72 60 74
f 72 74 73
f 73 74 54
f 73 54 53
f 59 74 60
f 74 59 55
f 74 55 54
f 57 56 58
f 58 56 59
f 59 56 55
f 71 62 61
f 62 71 75
f 62 75 63
f 63 75 76
f 63 76 64
f 64 76 77
f 64 77 78
f 64 78 65
f 65 78 79
f 65 79 66
f 66 79 80
f 66 80 67
f 67 80 81
f 67 81 68
f 68 81 82
f 68 82 69
f 69 82 83
f 69 83 84
f 69 84 70
f 70 84 75
f 70 75 71
f 84 76 75
f 76 84 85
f 76 85 77
f 77 85 86
f 77 86 87
f 77 87 78
f 78 87 88
f 78 88 79
f 79 88 89
f 79 89 80
f 80 89 90
f 80 90 81
f 81 90 91
f 81 91 82
f 82 91 92
f 82 92 83
f 83 92 93
f 83 93 85
f 83 85 84
f 93 86 85
f 86 93 94
f 86 94 95
f 86 95 87
f 87 95 96
f 87 96 88
f 88 96 97
f 88 97 89
f 89 97 98
f 89 98 90
f 90 98 99
f 90 99 91
f 91 99 100
f 91 100 92
f 92 100 101
f 92 101 93
f 93 101 94
f 94 101 102
f 94 102 95
f 95 102 96
f 96 102 97
f 97 102 98
f 98 102 99
f 99 102 100
f 100 102 101
