# RS2 Model 20434
# Vertices: 300
# Faces: 280

v 85 84 -214
v 94 84 -237
v 102 84 -231
v 120 84 -249
v 114 84 -257
v 148 84 -263
v 145 84 -273
v -314 84 -60
v -291 84 -68
v -290 84 -58
v -264 84 -57
v -262 84 -67
v -235 84 -45
v -230 84 -54
v -49 72 -214
v -59 72 -214
v -59 72 -225
v -49 72 -225
v 327 72 219
v 289 72 219
v 309 72 212
v 327 72 212
v 300 72 212
v 300 72 203
v 309 72 196
v 286 72 196
v 286 72 203
v 289 72 212
v 263 72 196
v 271 72 196
v 271 72 219
v 263 72 219
v 219 72 219
v 210 72 219
v 210 72 214
v 219 72 214
v 193 72 196
v 225 72 196
v 225 72 205
v 201 72 205
v 201 72 219
v 193 72 219
v 327 72 206
v 318 72 206
v 318 72 196
v 327 72 196
v 244 72 206
v 239 72 206
v 239 72 196
v 244 72 196
v 244 72 219
v 239 72 219
v 239 72 210
v 244 72 210
v -3 72 -214
v -41 72 -214
v -21 72 -223
v -3 72 -223
v -31 72 -223
v -31 72 -230
v -21 72 -237
v -44 72 -237
v -44 72 -230
v -41 72 -223
v -3 72 -227
v -12 72 -227
v -12 72 -237
v -3 72 -237
v -215 72 -114
v -236 72 -114
v -229 72 -120
v -215 72 -120
v -236 72 -124
v -229 72 -132
v -250 72 -124
v -250 72 -132
v -260 72 -114
v -268 72 -114
v -268 72 -124
v -260 72 -132
v -275 72 -124
v -282 72 -132
v -282 72 -114
v -275 72 -114
v -215 72 -124
v -221 72 -124
v -221 72 -132
v -215 72 -132
v -310 72 -109
v -319 72 -109
v -319 72 -114
v -310 72 -114
v -293 72 -132
v -325 72 -122
v -325 72 -132
v -301 72 -122
v -293 72 -109
v -301 72 -109
v -14 84 4
v -10 84 -2
v 60 84 -11
v 77 84 -8
v 79 84 6
v -15 84 19
v -45 84 -14
v 11 84 -17
v 64 84 -28
v 56 78 -44
v 60 78 -48
v 71 84 -33
v 66 84 -148
v 39 71 -134
v 46 84 -184
v 22 71 -168
v 17 71 -172
v 27 84 -195
v -51 84 -184
v -34 71 -165
v -68 84 -169
v -40 71 -160
v -77 84 -129
v -48 71 -122
v -31 71 -56
v -48 78 -33
v -77 84 -128
v -51 84 -16
v -42 78 -31
v -30 71 -50
v 5 67 -61
v 40 71 -59
v 42 71 -64
v 33 63 -71
v 33 63 -127
v 18 63 -156
v 71 84 -13
v 72 84 15
v -26 84 28
v -37 84 21
v 4 67 -68
v 4 63 -74
v -24 63 -65
v -39 63 -117
v -33 63 -149
v 410 72 103
v 417 72 109
v 404 72 115
v 402 72 92
v 412 79 87
v 413 79 100
v 419 79 103
v 430 72 117
v 427 79 117
v 418 79 112
v 412 79 114
v 404 72 132
v 397 79 129
v 396 79 111
v 393 79 94
v 388 72 55
v 399 79 47
v 378 79 57
v 434 79 126
v 428 77 141
v 428 75 141
v 432 72 127
v 433 79 118
v 435 79 114
v 443 79 108
v 439 72 109
v 447 79 102
v 445 72 102
v 452 79 98
v 443 79 101
v 438 79 107
v 426 79 110
v 430 79 126
v 411 79 131
v 397 72 150
v 392 79 146
v 407 79 148
v 427 72 177
v 423 79 179
v 402 79 159
v 392 79 159
v 379 72 169
v 384 79 152
v 345 79 160
v 361 79 163
v 360 72 169
v 343 72 166
v 342 79 166
v 358 79 170
v 365 79 175
v 366 72 173
v 377 79 173
v 385 79 177
v 388 72 178
v 391 79 187
v 394 72 187
v 396 76 202
v 396 75 202
v 397 79 184
v 392 79 173
v 385 79 166
v 368 79 166
v 376 79 163
v 428 79 170
v 431 79 177
v 428 74 209
v 425 81 206
v 431 81 209
v -306 70 -167
v -333 64 -189
v -322 68 -194
v -335 68 -196
v -339 68 -191
v -448 68 -277
v -444 68 -282
v -465 68 -290
v -460 68 -296
v -444 68 -289
v -461 68 -306
v -334 68 -180
v -457 68 -276
v -474 68 -290
v -493 84 354
v 489 96 354
v 505 96 370
v -509 84 370
v -493 84 -391
v -509 84 -404
v 489 96 -391
v 505 96 -404
v -15 88 251
v -8 88 223
v 34 79 201
v 72 88 226
v -16 88 258
v 86 81 239
v -8 88 269
v 66 88 323
v 99 88 332
v 143 80 316
v 112 88 333
v 55 88 203
v 7 88 207
v 109 88 243
v 128 88 245
v 156 88 281
v -7 0 256
v -11 0 255
v -8 0 243
v -4 0 244
v 11 0 272
v 8 0 276
v -2 0 269
v 1 0 265
v 34 0 289
v 31 0 293
v 22 0 285
v 25 0 281
v 59 0 306
v 56 0 310
v 46 0 303
v 49 0 299
v 94 0 320
v 92 0 325
v 80 0 321
v 82 0 317
v 126 0 311
v 129 0 316
v 118 0 322
v 116 0 318
v 130 0 265
v 134 0 262
v 141 0 272
v 138 0 275
v 94 0 250
v 95 0 245
v 107 0 247
v 106 0 252
v 59 0 225
v 63 0 222
v 70 0 231
v 66 0 234
v 20 0 214
v 18 0 210
v 29 0 206
v 31 0 211
v 2 0 233
v -2 0 231
v 6 0 221
v 10 0 225
v 138 0 305
v 134 0 304
v 140 0 292
v 144 0 295
v 160 57 -135
v 162 64 147
v -157 57 -132

f 1 2 3
f 3 2 4
f 4 2 5
f 4 5 6
f 6 5 7
f 8 9 10
f 10 9 11
f 11 9 12
f 11 12 13
f 13 12 14
f 15 16 17
f 15 17 18
f 19 20 21
f 19 21 22
f 20 23 21
f 21 23 24
f 21 24 25
f 25 24 26
f 26 24 27
f 20 28 23
f 29 30 31
f 29 31 32
f 33 34 35
f 33 35 36
f 37 38 39
f 37 39 40
f 37 40 41
f 37 41 42
f 43 44 45
f 43 45 46
f 47 48 49
f 47 49 50
f 51 52 53
f 51 53 54
f 55 56 57
f 55 57 58
f 56 59 57
f 57 59 60
f 57 60 61
f 61 60 62
f 62 60 63
f 56 64 59
f 65 66 67
f 65 67 68
f 69 70 71
f 69 71 72
f 73 74 71
f 73 71 70
f 74 73 75
f 74 75 76
f 77 78 79
f 77 79 80
f 80 79 81
f 80 81 82
f 82 81 83
f 83 81 84
f 85 86 87
f 85 87 88
f 89 90 91
f 89 91 92
f 93 94 95
f 94 93 96
f 96 93 97
f 96 97 98
f 99 100 101
f 99 101 102
f 99 102 103
f 99 103 104
f 99 104 105
f 99 105 100
f 100 105 106
f 100 106 101
f 101 106 107
f 107 106 108
f 107 108 109
f 107 109 110
f 110 109 111
f 111 109 112
f 111 112 113
f 113 112 114
f 113 114 115
f 113 115 116
f 116 115 117
f 117 115 118
f 117 118 119
f 119 118 120
f 119 120 121
f 121 120 122
f 121 122 123
f 121 123 124
f 121 124 125
f 125 124 126
f 126 124 105
f 105 124 127
f 105 127 106
f 106 127 128
f 106 128 129
f 106 129 130
f 106 130 108
f 108 130 131
f 108 131 109
f 109 131 112
f 112 131 132
f 112 132 133
f 112 133 114
f 114 133 134
f 114 134 120
f 114 120 118
f 114 118 115
f 102 101 135
f 104 103 136
f 104 136 137
f 104 137 105
f 105 137 138
f 124 123 128
f 124 128 127
f 123 139 129
f 123 129 128
f 139 131 130
f 139 130 129
f 140 141 142
f 140 142 133
f 140 133 132
f 140 132 131
f 140 131 139
f 140 139 141
f 141 139 123
f 141 123 142
f 142 123 122
f 142 122 143
f 142 143 134
f 142 134 133
f 120 134 143
f 120 143 122
f 144 145 146
f 144 146 147
f 144 147 148
f 144 148 149
f 144 149 145
f 145 149 150
f 145 150 151
f 145 151 152
f 145 152 153
f 145 153 146
f 146 153 154
f 146 154 155
f 146 155 156
f 146 156 157
f 146 157 147
f 147 157 158
f 147 158 159
f 147 159 160
f 147 160 148
f 161 160 159
f 161 159 158
f 162 163 164
f 162 164 165
f 162 165 166
f 166 165 151
f 166 151 167
f 167 151 168
f 168 151 169
f 168 169 170
f 170 169 171
f 170 171 172
f 172 171 173
f 173 171 174
f 174 171 169
f 174 169 175
f 175 169 151
f 175 151 150
f 163 176 165
f 163 165 164
f 176 152 151
f 176 151 165
f 154 177 155
f 155 177 178
f 155 178 179
f 155 179 156
f 177 180 178
f 178 180 181
f 178 181 182
f 178 182 183
f 178 183 184
f 178 184 185
f 178 185 186
f 178 186 179
f 187 188 189
f 187 189 190
f 187 190 191
f 191 190 192
f 192 190 189
f 192 189 193
f 193 189 194
f 193 194 195
f 195 194 185
f 195 185 196
f 196 185 197
f 196 197 198
f 198 197 199
f 198 199 200
f 200 199 201
f 200 201 202
f 202 201 199
f 202 199 203
f 203 199 197
f 203 197 204
f 204 197 185
f 204 185 184
f 188 205 194
f 188 194 189
f 205 206 185
f 205 185 194
f 206 186 185
f 180 207 181
f 181 207 208
f 181 208 209
f 181 209 210
f 181 210 182
f 211 210 209
f 211 209 208
f 212 213 214
f 214 213 215
f 215 213 216
f 215 216 217
f 215 217 218
f 218 217 219
f 218 219 220
f 218 220 221
f 221 220 222
f 223 213 212
f 213 223 216
f 217 224 225
f 217 225 219
f 226 227 228
f 226 228 229
f 226 229 230
f 230 229 231
f 230 231 232
f 232 231 233
f 232 233 227
f 227 233 228
f 234 235 236
f 234 236 237
f 234 237 238
f 238 237 239
f 238 239 240
f 240 239 241
f 241 239 242
f 242 239 243
f 242 243 244
f 245 237 236
f 235 246 236
f 243 239 247
f 243 247 248
f 243 248 249
f 250 251 252
f 250 252 253
f 254 255 256
f 254 256 257
f 258 259 260
f 258 260 261
f 262 263 264
f 262 264 265
f 266 267 268
f 266 268 269
f 270 271 272
f 270 272 273
f 274 275 276
f 274 276 277
f 278 279 280
f 278 280 281
f 282 283 284
f 282 284 285
f 286 287 288
f 286 288 289
f 290 291 292
f 290 292 293
f 294 295 296
f 294 296 297
