# RS2 Model 20550
# Vertices: 167
# Faces: 291

v 0 43 -91
v -24 43 -89
v -28 55 -97
v 0 55 -99
v 22 43 -89
v 17 34 -71
v 0 34 -73
v -19 34 -71
v -54 43 -77
v -60 55 -85
v -78 43 -53
v -85 55 -59
v -89 43 -23
v -97 55 -25
v -91 43 0
v -99 55 0
v -89 43 24
v -97 55 28
v -76 43 54
v -85 55 60
v -52 43 79
v -58 55 85
v -22 43 89
v -24 55 97
v 0 43 91
v 0 55 99
v 24 43 89
v 28 55 97
v 54 43 76
v 60 55 85
v 78 43 52
v 85 55 58
v 89 43 22
v 97 55 24
v 91 43 0
v 99 55 0
v 89 43 -25
v 97 55 -29
v 76 43 -55
v 85 55 -61
v 52 43 -79
v 58 55 -86
v 24 55 -97
v -42 34 -61
v -62 34 -43
v -70 34 -18
v -72 34 0
v -70 34 19
v -60 34 42
v -42 34 62
v -17 34 70
v 0 34 72
v 19 34 70
v 42 34 60
v 62 34 42
v 70 34 17
v 72 34 0
v 70 34 -20
v 60 34 -43
v 42 34 -63
v 30 31 -46
v 12 31 -53
v 0 31 -55
v -13 31 -53
v -30 31 -44
v -45 31 -31
v -52 31 -13
v -54 31 0
v -52 31 13
v -43 31 30
v -30 31 45
v -12 31 52
v 0 31 54
v 13 31 52
v 30 31 43
v 45 31 30
v 52 31 12
v 54 31 0
v 52 31 -14
v 43 31 -31
v 0 31 0
v -21 -60 -23
v -42 -61 -49
v -1 -84 -49
v 8 -51 -23
v 2 -44 10
v -12 -44 10
v -40 -35 -23
v -62 -17 -49
v -62 -17 -61
v -42 -61 -61
v -1 -84 -61
v 23 -72 -49
v 40 -54 -49
v 24 -27 -23
v 6 -29 10
v 10 -38 38
v 4 -46 35
v -5 -49 38
v -21 -33 10
v -26 -6 -23
v -40 12 -49
v -40 12 -61
v -35 6 -68
v -53 -17 -68
v -39 -56 -68
v -2 -78 -68
v 23 -72 -61
v 40 -54 -61
v 31 -6 -49
v 6 -1 -23
v -1 -19 10
v 4 -31 47
v 21 -54 70
v 24 -59 57
v 18 -64 51
v 11 -69 57
v -10 -42 47
v -17 -18 10
v -4 27 -49
v -4 27 -61
v -5 18 -68
v 31 -6 -61
v 24 -7 -68
v -7 -31 51
v 11 -56 76
v 37 -90 70
v 44 -80 66
v 41 -75 57
v 29 -79 51
v 21 -90 57
v 7 -65 70
v 25 -94 66
v 52 -137 45
v 69 -132 47
v 77 -118 45
v 70 -109 25
v 55 -115 13
v 45 -127 25
v 49 -132 23
v 54 -140 35
v 71 -135 45
v 79 -121 35
v 73 -113 23
v 62 -123 13
v 57 -126 23
v 55 -134 32
v 64 -136 41
v 73 -129 41
v 74 -121 32
v 66 -120 23
v 64 -127 23
v 63 -133 29
v 71 -135 35
v 72 -127 29
v 71 -131 25
v 69 -132 23
v 66 -134 25
v 71 -135 29
v 34 -51 -68
v 21 -69 -68
v -106 40 89
v -89 40 -107
v 89 40 106
v 53 41 24
v 63 57 17
v 70 36 40

f 1 2 3
f 1 3 4
f 1 4 5
f 1 5 6
f 1 6 7
f 1 7 2
f 2 7 8
f 2 8 9
f 2 9 10
f 2 10 3
f 9 11 12
f 9 12 10
f 11 13 14
f 11 14 12
f 13 15 16
f 13 16 14
f 15 17 18
f 15 18 16
f 17 19 20
f 17 20 18
f 19 21 22
f 19 22 20
f 21 23 24
f 21 24 22
f 23 25 26
f 23 26 24
f 25 27 28
f 25 28 26
f 27 29 30
f 27 30 28
f 29 31 32
f 29 32 30
f 31 33 34
f 31 34 32
f 33 35 36
f 33 36 34
f 35 37 38
f 35 38 36
f 37 39 40
f 37 40 38
f 39 41 42
f 39 42 40
f 41 5 43
f 41 43 42
f 5 4 43
f 9 8 44
f 9 44 11
f 11 44 45
f 11 45 13
f 13 45 46
f 13 46 15
f 15 46 47
f 15 47 17
f 17 47 48
f 17 48 19
f 19 48 49
f 19 49 21
f 21 49 50
f 21 50 23
f 23 50 51
f 23 51 25
f 25 51 52
f 25 52 27
f 27 52 53
f 27 53 29
f 29 53 54
f 29 54 31
f 31 54 55
f 31 55 33
f 33 55 56
f 33 56 35
f 35 56 57
f 35 57 37
f 37 57 58
f 37 58 39
f 39 58 59
f 39 59 41
f 41 59 60
f 41 60 5
f 5 60 6
f 6 60 61
f 6 61 62
f 6 62 7
f 7 62 63
f 7 63 8
f 8 63 64
f 8 64 44
f 44 64 65
f 44 65 45
f 45 65 66
f 45 66 46
f 46 66 67
f 46 67 47
f 47 67 68
f 47 68 48
f 48 68 69
f 48 69 49
f 49 69 70
f 49 70 50
f 50 70 71
f 50 71 51
f 51 71 72
f 51 72 52
f 52 72 73
f 52 73 53
f 53 73 74
f 53 74 54
f 54 74 75
f 54 75 55
f 55 75 76
f 55 76 56
f 56 76 77
f 56 77 57
f 57 77 78
f 57 78 58
f 58 78 79
f 58 79 59
f 59 79 80
f 59 80 60
f 60 80 61
f 61 80 81
f 61 81 62
f 62 81 63
f 63 81 64
f 64 81 65
f 65 81 66
f 66 81 67
f 67 81 68
f 68 81 69
f 69 81 70
f 70 81 71
f 71 81 72
f 72 81 73
f 73 81 74
f 74 81 75
f 75 81 76
f 76 81 77
f 77 81 78
f 78 81 79
f 79 81 80
f 82 83 84
f 82 84 85
f 82 85 86
f 82 86 87
f 82 87 88
f 82 88 83
f 83 88 89
f 83 89 90
f 83 90 91
f 83 91 84
f 84 91 92
f 84 92 93
f 84 93 85
f 85 93 94
f 85 94 95
f 85 95 96
f 85 96 86
f 86 96 97
f 86 97 98
f 86 98 87
f 87 98 99
f 87 99 100
f 87 100 88
f 88 100 101
f 88 101 89
f 89 101 102
f 89 102 103
f 89 103 90
f 90 103 104
f 90 104 105
f 90 105 91
f 91 105 106
f 91 106 92
f 92 106 107
f 92 107 108
f 92 108 93
f 93 108 94
f 94 108 109
f 94 109 110
f 94 110 95
f 95 110 111
f 95 111 112
f 95 112 96
f 96 112 113
f 96 113 97
f 97 113 114
f 97 114 115
f 97 115 98
f 98 115 116
f 98 116 99
f 99 116 117
f 99 117 118
f 99 118 100
f 100 118 119
f 100 119 101
f 101 119 111
f 101 111 120
f 101 120 102
f 102 120 121
f 102 121 103
f 103 121 122
f 103 122 104
f 120 111 110
f 120 110 123
f 120 123 121
f 121 123 124
f 121 124 122
f 111 119 112
f 112 119 125
f 112 125 113
f 113 125 126
f 113 126 114
f 114 126 127
f 114 127 128
f 114 128 115
f 115 128 129
f 115 129 116
f 116 129 130
f 116 130 117
f 117 130 131
f 117 131 132
f 117 132 118
f 118 132 125
f 118 125 119
f 125 132 126
f 126 132 133
f 126 133 127
f 127 133 134
f 127 134 135
f 127 135 128
f 128 135 136
f 128 136 129
f 129 136 137
f 129 137 130
f 130 137 138
f 130 138 131
f 131 138 139
f 131 139 133
f 131 133 132
f 133 139 134
f 134 139 140
f 134 140 141
f 134 141 135
f 135 141 142
f 135 142 136
f 136 142 143
f 136 143 137
f 137 143 144
f 137 144 138
f 138 144 145
f 138 145 139
f 139 145 140
f 140 145 146
f 140 146 147
f 140 147 141
f 141 147 148
f 141 148 142
f 142 148 149
f 142 149 143
f 143 149 150
f 143 150 144
f 144 150 151
f 144 151 145
f 145 151 146
f 146 151 152
f 146 152 147
f 147 152 153
f 147 153 148
f 148 153 154
f 148 154 149
f 149 154 150
f 150 154 155
f 150 155 151
f 151 155 152
f 152 155 156
f 152 156 157
f 152 157 153
f 153 157 158
f 153 158 154
f 154 158 159
f 154 159 155
f 155 159 156
f 156 159 157
f 157 159 158
f 110 109 123
f 123 109 160
f 123 160 124
f 108 107 161
f 108 161 109
f 109 161 160
f 162 163 164
