# RS2 Model 20663
# Vertices: 45
# Faces: 61

v -51 24 133
v -51 -8 133
v -51 -8 119
v -51 24 117
v -64 24 117
v -64 24 133
v -64 -8 133
v -51 -1 144
v -51 -23 140
v -51 -25 133
v -51 -25 117
v -64 -25 117
v -64 -8 119
v -51 -15 153
v -64 -15 153
v -64 -23 140
v -64 -25 133
v -51 14 156
v -51 -2 164
v -64 -2 164
v -51 22 172
v -51 6 174
v -64 6 174
v -51 20 192
v -51 5 185
v -64 5 185
v -51 10 207
v -51 1 191
v -64 1 191
v -51 -8 208
v -51 -8 192
v -64 -8 192
v -51 -25 199
v -51 -18 187
v -64 -18 187
v -64 -1 144
v -64 14 156
v -64 22 172
v -64 20 192
v -64 10 207
v -64 -8 208
v -64 -25 199
v -51 34 202
v -51 -38 202
v -51 34 122

f 1 2 3
f 1 3 4
f 1 4 5
f 1 5 6
f 1 6 2
f 2 6 7
f 2 7 8
f 2 8 9
f 2 9 10
f 2 10 3
f 3 10 11
f 3 11 12
f 3 12 13
f 3 13 4
f 4 13 5
f 9 8 14
f 9 14 15
f 9 15 16
f 9 16 10
f 10 16 17
f 10 17 11
f 11 17 12
f 14 8 18
f 14 18 19
f 14 19 20
f 14 20 15
f 19 18 21
f 19 21 22
f 19 22 23
f 19 23 20
f 22 21 24
f 22 24 25
f 22 25 26
f 22 26 23
f 25 24 27
f 25 27 28
f 25 28 29
f 25 29 26
f 28 27 30
f 28 30 31
f 28 31 32
f 28 32 29
f 31 30 33
f 31 33 34
f 31 34 35
f 31 35 32
f 8 7 36
f 8 36 18
f 18 36 37
f 18 37 21
f 21 37 38
f 21 38 24
f 24 38 39
f 24 39 27
f 27 39 40
f 27 40 30
f 30 40 41
f 30 41 33
f 33 41 42
f 33 42 34
f 34 42 35
