# RS2 Model 2069
# Vertices: 197
# Faces: 298

v -9 -20 2
v -9 -20 -9
v -7 -23 -9
v -7 -23 2
v -4 -20 2
v -7 -18 2
v -14 -3 2
v -17 -4 2
v -17 -4 -9
v -9 -20 -13
v -7 -23 -13
v 10 -29 -9
v 10 -29 2
v 10 -26 2
v 10 0 5
v -14 0 2
v -17 0 2
v -17 0 -9
v -17 -4 -13
v -13 -4 -23
v -5 -15 -23
v -3 -19 -23
v 10 -24 -23
v 10 -29 -13
v 14 -28 -13
v 14 -28 -9
v 14 -28 2
v 14 -25 2
v 26 -19 2
v 29 -16 2
v 33 -2 2
v 33 2 2
v 26 16 2
v 24 19 2
v 10 24 2
v 6 24 2
v -7 19 2
v -10 15 2
v -12 17 2
v -12 17 -9
v -17 0 -13
v -13 0 -23
v -10 1 -27
v -10 -3 -27
v -5 -14 -27
v -1 -17 -27
v 9 -21 -27
v 14 -24 -23
v 29 -22 2
v 29 -22 -9
v 32 -19 -9
v 32 -19 2
v 29 -22 -13
v 32 -19 -13
v 37 -1 -13
v 37 -1 -9
v 37 -1 2
v -9 21 2
v -9 21 -9
v 6 28 2
v 6 28 -9
v -9 21 -13
v -12 17 -13
v -8 14 -23
v -6 12 -27
v -3 15 -27
v 9 3 -32
v 6 0 -32
v 36 2 -9
v 36 2 2
v 10 28 2
v 10 28 -9
v 26 22 2
v 26 22 -9
v 10 28 -13
v 6 28 -13
v 6 22 -23
v -5 16 -23
v 6 19 -27
v 11 20 -27
v 12 4 -32
v 30 19 2
v 30 19 -9
v 30 19 -13
v 26 22 -13
v 10 23 -23
v 22 17 -23
v 21 16 -27
v 24 13 -27
v 14 1 -32
v 6 -2 -32
v 10 -5 -32
v 12 -4 -32
v 14 -21 -27
v 23 -16 -27
v 25 -17 -23
v 28 2 -27
v 29 -2 -27
v 15 -1 -32
v 26 -13 -27
v 28 -15 -23
v 36 2 -13
v 32 -2 -23
v 32 2 -23
v 26 14 -23
v -12 5 14
v -12 -11 14
v 6 -5 9
v 6 4 9
v 10 0 4
v -34 -4 9
v -23 -8 14
v -24 1 14
v -5 -11 30
v -2 -16 30
v 5 -11 26
v -1 -4 26
v 10 -3 14
v 6 2 14
v -10 -20 27
v -1 19 14
v -11 8 14
v 4 -1 9
v 10 6 9
v -22 30 9
v -19 19 14
v -12 26 14
v 43 8 14
v 40 17 14
v 26 15 14
v 32 1 14
v 12 5 9
v 14 -3 9
v 49 17 9
v -1 -35 14
v 8 -36 14
v 12 -24 14
v -1 -21 14
v 14 -6 9
v 4 -4 9
v 2 -45 9
v 5 26 27
v 4 16 30
v 9 18 30
v 12 2 14
v 6 0 14
v 25 17 14
v 13 22 14
v 6 5 9
v 16 2 9
v 28 30 14
v 21 35 14
v 29 41 9
v 33 -7 27
v 26 -2 30
v 24 -8 30
v 10 -2 14
v 12 0 14
v 24 -31 14
v 32 -25 14
v 27 -15 14
v 16 -23 14
v 16 -1 9
v 8 -6 9
v 34 -36 9
v 2 8 26
v 12 11 26
v 20 1 26
v 17 -6 26
v -57 10 16
v -57 10 91
v -57 -11 91
v -57 -11 16
v -63 -11 91
v -63 -11 16
v -63 10 91
v -63 10 16
v -57 -2 48
v -42 -2 77
v -42 2 77
v -57 2 48
v -57 2 39
v -36 2 77
v -36 -2 77
v -57 -2 39
v 25 4 77
v 25 4 86
v 25 -5 86
v 25 -5 77
v -57 -5 86
v -57 -5 77
v -57 4 86
v -57 4 77
v 14 4 87
v 8 4 87
v 8 -5 87
v 14 -5 87

f 1 2 3
f 1 3 4
f 1 4 5
f 1 5 6
f 1 6 7
f 1 7 8
f 1 8 2
f 2 8 9
f 2 9 10
f 2 10 11
f 2 11 3
f 3 11 12
f 3 12 4
f 4 12 13
f 4 13 14
f 4 14 5
f 5 14 15
f 5 15 6
f 6 15 7
f 7 15 16
f 7 16 17
f 7 17 8
f 8 17 9
f 9 17 18
f 9 18 19
f 9 19 10
f 10 19 20
f 10 20 21
f 10 21 11
f 11 21 22
f 11 22 23
f 11 23 24
f 11 24 12
f 12 24 25
f 12 25 26
f 12 26 13
f 13 26 27
f 13 27 28
f 13 28 14
f 14 28 15
f 15 28 29
f 15 29 30
f 15 30 31
f 15 31 32
f 15 32 33
f 15 33 34
f 15 34 35
f 15 35 36
f 15 36 37
f 15 37 38
f 15 38 16
f 16 38 17
f 17 38 39
f 17 39 18
f 18 39 40
f 18 40 41
f 18 41 19
f 19 41 42
f 19 42 20
f 20 42 43
f 20 43 44
f 20 44 45
f 20 45 21
f 21 45 22
f 22 45 46
f 22 46 47
f 22 47 23
f 23 47 48
f 23 48 25
f 23 25 24
f 49 50 51
f 49 51 52
f 49 52 30
f 49 30 29
f 49 29 27
f 49 27 50
f 50 27 26
f 50 26 53
f 50 53 54
f 50 54 51
f 51 54 55
f 51 55 56
f 51 56 52
f 52 56 57
f 52 57 31
f 52 31 30
f 58 59 40
f 58 40 39
f 58 39 38
f 58 38 37
f 58 37 36
f 58 36 60
f 58 60 59
f 59 60 61
f 59 61 62
f 59 62 63
f 59 63 40
f 40 63 41
f 41 63 42
f 42 63 64
f 42 64 43
f 43 64 65
f 65 64 66
f 65 66 67
f 65 67 68
f 57 56 69
f 57 69 70
f 57 70 32
f 57 32 31
f 71 72 61
f 71 61 60
f 71 60 36
f 71 36 35
f 71 35 34
f 71 34 73
f 71 73 72
f 72 73 74
f 72 74 75
f 72 75 76
f 72 76 61
f 61 76 62
f 62 76 77
f 62 77 78
f 62 78 63
f 63 78 64
f 64 78 66
f 66 78 77
f 66 77 79
f 79 77 80
f 79 80 81
f 79 81 67
f 82 83 74
f 82 74 73
f 82 73 33
f 82 33 32
f 82 32 70
f 82 70 83
f 83 70 69
f 83 69 84
f 83 84 85
f 83 85 74
f 74 85 75
f 75 85 86
f 75 86 76
f 76 86 77
f 77 86 80
f 80 86 87
f 80 87 88
f 88 87 89
f 88 89 90
f 88 90 81
f 91 92 46
f 91 46 45
f 92 93 94
f 92 94 47
f 47 94 48
f 48 94 95
f 48 95 96
f 48 96 53
f 48 53 25
f 25 53 26
f 68 91 44
f 68 44 43
f 97 98 99
f 97 99 90
f 93 99 100
f 93 100 95
f 95 100 101
f 95 101 96
f 96 101 54
f 96 54 53
f 102 55 103
f 102 103 104
f 102 104 84
f 102 84 69
f 102 69 56
f 102 56 55
f 85 84 105
f 85 105 87
f 85 87 86
f 104 103 98
f 104 98 97
f 104 97 89
f 104 89 105
f 104 105 84
f 87 105 89
f 101 100 98
f 101 98 103
f 101 103 54
f 54 103 55
f 73 34 33
f 29 28 27
f 106 107 108
f 106 108 109
f 109 108 110
f 109 110 108
f 111 112 113
f 111 113 112
f 114 115 116
f 114 116 117
f 117 116 118
f 117 118 119
f 119 118 15
f 119 15 118
f 120 115 114
f 120 114 115
f 121 122 123
f 121 123 124
f 124 123 110
f 124 110 123
f 125 126 127
f 125 127 126
f 128 129 130
f 128 130 131
f 131 130 132
f 131 132 133
f 133 132 110
f 133 110 132
f 134 129 128
f 134 128 129
f 135 136 137
f 135 137 138
f 138 137 139
f 138 139 140
f 140 139 110
f 140 110 139
f 141 136 135
f 141 135 136
f 142 143 144
f 142 144 143
f 145 146 15
f 145 15 146
f 147 148 149
f 147 149 150
f 150 149 110
f 150 110 149
f 151 152 153
f 151 153 152
f 151 152 148
f 151 148 147
f 154 155 156
f 154 156 155
f 157 158 15
f 157 15 158
f 159 160 161
f 159 161 162
f 162 161 163
f 162 163 164
f 164 163 110
f 164 110 163
f 165 160 159
f 165 159 160
f 113 112 107
f 113 107 106
f 127 126 122
f 127 122 121
f 144 143 166
f 144 166 167
f 167 166 146
f 167 146 145
f 156 155 168
f 156 168 169
f 169 168 158
f 169 158 157
f 170 171 172
f 170 172 173
f 173 172 174
f 173 174 175
f 176 174 172
f 176 172 171
f 176 171 177
f 177 171 170
f 178 179 180
f 178 180 181
f 181 180 182
f 182 180 183
f 182 183 184
f 182 184 185
f 185 184 178
f 178 184 179
f 186 187 188
f 186 188 189
f 189 188 190
f 189 190 191
f 192 190 188
f 192 188 187
f 192 187 193
f 193 187 186
f 194 195 196
f 194 196 197
f 197 196 13
f 197 13 27
f 197 27 196
f 196 27 13
f 195 194 71
f 195 71 60
f 195 60 194
f 194 60 71
