# RS2 Model 20703
# Vertices: 91
# Faces: 141

v 0 -53 37
v -3 -53 32
v 3 -53 32
v 0 13 65
v 9 21 44
v -10 21 44
v -27 13 43
v -27 7 58
v 0 -16 73
v 26 -16 66
v 26 7 58
v 26 13 43
v 9 21 8
v 26 15 15
v 10 9 0
v -11 9 0
v -10 21 8
v -27 5 6
v -27 15 15
v -35 6 31
v -35 1 51
v -27 -16 66
v 0 -43 67
v 26 -38 58
v 34 -33 51
v 34 -16 57
v 34 1 51
v 34 6 31
v 26 5 6
v 11 1 0
v 26 1 6
v 38 -1 0
v 38 -1 3
v 43 -3 0
v 38 -5 3
v 38 -5 0
v 11 -7 0
v 26 -7 6
v 26 -24 6
v 11 -24 0
v 38 -26 0
v 38 -26 3
v 43 -28 0
v 38 -30 3
v 38 -30 0
v 11 -32 0
v 26 -32 6
v 26 -36 6
v 11 -40 0
v 11 -53 11
v -12 -53 11
v -12 -40 0
v -27 -45 18
v -27 -36 6
v -27 -32 6
v -12 -32 0
v -39 -30 0
v -39 -30 3
v -44 -28 0
v -39 -26 3
v -39 -26 0
v -12 -24 0
v -27 -24 6
v -27 -7 6
v -12 -7 0
v -39 -5 0
v -39 -5 3
v -44 -3 0
v -39 -1 3
v -39 -1 0
v -12 1 0
v -27 1 6
v -35 -1 13
v -42 -15 32
v -35 -16 57
v -27 -38 58
v -12 -53 56
v 11 -53 56
v 26 -45 48
v 34 -37 33
v 41 -15 32
v 34 -1 13
v 34 -31 13
v 26 -45 18
v -27 -45 48
v -35 -33 51
v -35 -37 33
v -35 -31 13
v 0 37 82
v 3 -71 76
v -3 41 -20

f 1 2 3
f 4 5 6
f 4 6 7
f 4 7 8
f 4 8 9
f 4 9 10
f 4 10 11
f 4 11 5
f 5 11 12
f 5 12 13
f 13 12 14
f 13 14 15
f 13 15 16
f 13 16 17
f 17 16 18
f 17 18 19
f 17 19 6
f 6 19 7
f 7 19 20
f 7 20 8
f 8 20 21
f 8 21 22
f 8 22 9
f 9 22 23
f 9 23 24
f 9 24 10
f 10 24 25
f 10 25 26
f 10 26 11
f 11 26 27
f 11 27 12
f 12 27 28
f 12 28 14
f 14 28 29
f 14 29 15
f 15 29 30
f 30 29 31
f 30 31 32
f 32 31 33
f 32 33 34
f 34 33 35
f 34 35 36
f 36 35 37
f 37 35 38
f 37 38 39
f 37 39 40
f 40 39 41
f 41 39 42
f 41 42 43
f 43 42 44
f 43 44 45
f 45 44 46
f 46 44 47
f 46 47 48
f 46 48 49
f 49 48 50
f 49 50 51
f 49 51 52
f 52 51 53
f 52 53 54
f 52 54 55
f 52 55 56
f 56 55 57
f 57 55 58
f 57 58 59
f 59 58 60
f 59 60 61
f 61 60 62
f 62 60 63
f 62 63 64
f 62 64 65
f 65 64 66
f 66 64 67
f 66 67 68
f 68 67 69
f 68 69 70
f 70 69 71
f 71 69 72
f 71 72 16
f 16 72 18
f 18 72 73
f 18 73 19
f 19 73 20
f 20 73 74
f 20 74 21
f 21 74 75
f 21 75 22
f 22 75 76
f 22 76 23
f 23 76 77
f 23 77 78
f 23 78 79
f 23 79 24
f 24 79 80
f 24 80 25
f 25 80 81
f 25 81 26
f 26 81 27
f 27 81 28
f 28 81 82
f 28 82 29
f 29 82 31
f 31 82 38
f 31 38 35
f 31 35 33
f 39 47 44
f 39 44 42
f 83 48 47
f 83 47 39
f 83 39 38
f 83 38 82
f 83 82 81
f 83 81 80
f 83 80 84
f 83 84 48
f 48 84 50
f 50 84 78
f 78 84 79
f 79 84 80
f 85 53 51
f 85 51 77
f 85 77 76
f 85 76 86
f 85 86 87
f 85 87 53
f 53 87 54
f 54 87 88
f 54 88 55
f 55 88 63
f 55 63 60
f 55 60 58
f 75 86 76
f 86 75 74
f 86 74 87
f 87 74 88
f 88 74 73
f 88 73 63
f 63 73 64
f 64 73 72
f 64 72 69
f 64 69 67
