# RS2 Model 20740
# Vertices: 287
# Faces: 538

v 9 13 160
v 5 11 162
v 8 8 164
v 11 8 164
v 12 11 161
v 13 14 155
v 5 15 155
v 0 16 155
v 6 17 150
v 3 17 148
v 0 17 146
v -5 17 142
v -7 17 142
v -5 15 155
v -5 11 162
v -9 13 160
v -8 8 164
v -11 8 164
v -11 0 164
v -14 0 164
v -7 -10 158
v -8 -11 157
v -2 -12 156
v 0 -11 157
v 0 -13 155
v 2 -12 156
v 7 -10 158
v 8 -11 157
v 14 0 164
v 11 0 164
v 15 0 162
v 13 8 162
v 23 22 82
v 18 21 99
v 23 21 85
v 31 20 83
v 34 24 59
v 21 23 67
v 18 22 73
v 12 22 81
v 15 21 95
v 14 21 98
v 17 21 101
v 19 21 99
v 23 20 89
v 27 20 92
v 24 19 118
v 20 25 57
v 31 26 45
v 26 25 58
v 21 24 62
v 15 23 66
v 11 22 70
v 6 23 68
v 0 23 81
v 6 21 86
v 11 20 90
v 12 20 92
v 12 21 94
v 12 21 98
v 13 21 103
v 14 21 103
v 17 19 108
v 25 20 93
v 13 20 118
v 10 19 111
v 0 20 118
v 0 19 124
v 10 19 125
v 13 19 123
v 17 18 125
v 15 19 113
v 13 19 112
v 13 20 107
v 11 20 106
v 9 20 105
v 4 21 103
v 2 20 106
v 0 19 111
v -3 19 111
v -8 19 114
v -10 20 118
v -3 19 123
v -4 19 129
v 0 19 130
v 4 18 132
v 8 18 133
v 11 19 128
v 13 19 131
v 16 18 131
v 13 19 118
v 10 25 56
v 19 27 40
v 27 27 36
v 19 26 55
v 13 24 62
v 10 25 61
v 11 23 65
v 6 24 66
v 1 23 68
v 2 22 70
v 1 23 72
v 0 22 71
v -5 23 69
v -10 22 75
v -12 22 81
v -5 20 91
v 0 21 94
v 1 20 91
v 2 20 87
v 3 21 85
v 4 20 91
v 8 20 92
v 4 25 59
v 8 25 56
v 0 26 55
v 0 23 67
v 11 25 54
v 9 25 54
v 7 26 50
v 4 26 54
v 0 26 53
v -3 27 52
v -10 25 56
v -2 26 58
v -1 24 66
v -13 8 162
v -15 0 162
v -23 22 82
v -23 20 88
v -21 20 90
v -20 22 78
v -21 22 77
v -22 22 76
v -22 22 70
v -28 21 71
v -31 22 70
v -32 21 82
v -23 20 89
v -24 21 94
v -24 21 100
v -19 21 96
v -17 20 93
v -13 20 106
v -12 21 96
v -10 20 92
v -6 21 97
v 0 21 99
v 1 21 95
v -12 11 161
v -12 16 154
v -6 17 153
v -8 16 151
v -10 16 150
v -13 16 152
v -15 19 128
v -17 18 126
v -24 19 118
v -13 19 118
v -5 16 154
v 0 16 154
v 5 16 154
v -18 27 50
v -18 27 41
v -21 27 48
v -21 26 55
v -20 26 57
v -10 26 52
v -8 28 49
v -11 28 36
v -20 25 57
v -27 27 37
v -26 26 43
v -25 27 49
v -27 25 58
v -25 24 63
v -21 25 61
v -20 25 61
v -18 22 70
v -19 22 74
v -17 22 73
v -12 22 72
v -9 25 60
v -9 25 58
v -4 24 62
v -7 25 61
v -5 -15 152
v -3 -14 152
v -7 -13 153
v 5 -16 151
v 6 -14 152
v 2 -14 152
v 0 30 30
v 3 28 49
v 7 27 49
v 9 27 49
v 11 29 35
v -2 27 46
v 0 27 47
v -13 19 124
v -15 19 124
v -12 19 125
v -10 19 130
v -7 19 130
v -5 18 132
v -2 18 133
v 0 18 138
v 1 18 135
v 6 18 136
v 7 18 136
v 7 18 134
v 8 18 134
v 8 18 137
v 8 17 142
v 10 18 138
v 12 19 131
v 12 17 141
v 7 21 101
v 7 21 97
v 6 21 98
v 3 21 100
v -8 25 60
v 9 17 141
v 9 17 143
v 9 16 147
v 10 16 150
v 7 17 146
v 4 17 144
v 0 17 143
v -4 17 142
v -5 17 139
v -6 17 139
v -8 18 138
v -9 16 140
v 7 17 139
v 5 17 141
v -9 18 135
v -9 17 139
v -7 18 136
v -11 18 135
v -13 19 127
v -19 19 116
v -25 19 110
v -4 18 136
v -9 21 100
v -14 19 115
v -13 19 115
v -15 19 111
v -21 21 99
v -17 21 103
v -16 21 103
v -13 20 107
v -16 19 108
v -13 19 111
v -10 19 110
v -12 20 107
v -19 21 102
v -24 20 104
v -20 19 113
v -4 19 108
v -4 21 102
v -5 19 110
v -1 19 109
v -7 21 100
v -8 21 103
v -34 24 59
v -31 23 65
v -12 22 75
v -30 25 45
v -32 23 65
v 4 21 94
v 1 21 99
v -9 21 102
v -26 20 101
v -27 20 97
v 17 17 71
v -29 17 80
v 25 17 115
v 30 15 158
v -30 15 158
v 30 18 25
v -29 7 153
v 26 7 155
v -27 18 155
v -26 15 157
v 28 15 157
v -26 19 24

f 1 2 3
f 1 3 4
f 1 4 5
f 1 5 6
f 1 6 7
f 1 7 2
f 2 7 8
f 8 7 9
f 8 9 10
f 8 10 11
f 8 11 12
f 8 12 13
f 8 13 14
f 8 14 15
f 15 14 16
f 15 16 17
f 17 16 18
f 17 18 19
f 19 18 20
f 19 20 21
f 21 20 22
f 21 22 23
f 21 23 24
f 24 23 25
f 24 25 26
f 24 26 27
f 27 26 28
f 27 28 29
f 27 29 30
f 30 29 4
f 30 4 3
f 29 31 32
f 29 32 4
f 4 32 5
f 5 32 6
f 33 34 35
f 33 35 36
f 33 36 37
f 33 37 38
f 33 38 39
f 33 39 40
f 33 40 41
f 33 41 42
f 33 42 34
f 34 42 43
f 34 43 44
f 34 44 35
f 35 44 45
f 35 45 46
f 35 46 36
f 36 46 47
f 36 47 33
f 36 33 37
f 37 33 48
f 37 48 49
f 37 49 50
f 37 50 51
f 37 51 38
f 38 51 52
f 38 52 39
f 39 52 53
f 39 53 40
f 40 53 54
f 40 54 55
f 40 55 56
f 40 56 57
f 40 57 58
f 40 58 41
f 41 58 59
f 41 59 60
f 41 60 42
f 42 60 61
f 42 61 62
f 42 62 43
f 43 62 63
f 43 63 44
f 44 63 47
f 44 47 45
f 45 47 64
f 45 64 46
f 46 64 47
f 65 66 67
f 65 67 68
f 65 68 69
f 65 69 70
f 65 70 71
f 65 71 47
f 65 47 72
f 65 72 73
f 65 73 66
f 66 73 74
f 66 74 75
f 66 75 76
f 66 76 77
f 66 77 78
f 66 78 67
f 67 78 79
f 67 79 80
f 67 80 81
f 67 81 82
f 67 82 83
f 67 83 68
f 68 83 84
f 68 84 85
f 68 85 86
f 68 86 87
f 68 87 69
f 69 87 88
f 69 88 70
f 70 88 89
f 70 89 71
f 71 89 90
f 71 90 47
f 47 90 6
f 47 6 91
f 47 91 33
f 33 91 40
f 33 40 92
f 33 92 48
f 48 92 93
f 48 93 49
f 49 93 94
f 49 94 95
f 49 95 50
f 50 95 51
f 51 95 96
f 51 96 52
f 52 96 97
f 52 97 98
f 52 98 53
f 53 98 54
f 54 98 99
f 54 99 100
f 54 100 101
f 54 101 55
f 55 101 102
f 55 102 103
f 55 103 104
f 55 104 105
f 55 105 106
f 55 106 107
f 55 107 108
f 55 108 109
f 55 109 110
f 55 110 111
f 55 111 56
f 56 111 112
f 56 112 113
f 56 113 57
f 57 113 59
f 57 59 58
f 114 98 97
f 114 97 115
f 114 115 116
f 114 116 117
f 114 117 99
f 114 99 98
f 93 95 94
f 95 93 118
f 95 118 96
f 96 118 97
f 97 118 119
f 97 119 115
f 115 119 120
f 115 120 121
f 115 121 116
f 116 121 122
f 116 122 123
f 116 123 124
f 116 124 125
f 116 125 126
f 116 126 117
f 117 126 103
f 117 103 100
f 117 100 99
f 28 31 29
f 20 18 127
f 20 127 128
f 20 128 22
f 129 130 131
f 129 131 106
f 129 106 132
f 129 132 133
f 129 133 134
f 129 134 135
f 129 135 136
f 129 136 137
f 129 137 138
f 129 138 130
f 130 138 139
f 130 139 131
f 131 139 140
f 131 140 141
f 131 141 142
f 131 142 143
f 131 143 106
f 106 143 144
f 106 144 145
f 106 145 146
f 106 146 107
f 107 146 147
f 107 147 148
f 107 148 108
f 108 148 149
f 108 149 109
f 109 149 112
f 109 112 110
f 110 112 111
f 18 16 150
f 18 150 127
f 127 150 151
f 151 150 16
f 151 16 14
f 151 14 152
f 151 152 153
f 151 153 154
f 151 154 155
f 151 155 156
f 151 156 157
f 151 157 158
f 151 158 159
f 151 159 160
f 160 159 161
f 161 159 67
f 161 67 91
f 161 91 162
f 162 91 6
f 163 164 165
f 163 165 166
f 163 166 167
f 163 167 124
f 163 124 164
f 164 124 168
f 164 168 169
f 164 169 170
f 164 170 124
f 164 124 171
f 164 171 172
f 164 172 173
f 164 173 174
f 164 174 165
f 165 174 166
f 166 174 175
f 166 175 167
f 167 175 176
f 167 176 177
f 167 177 178
f 167 178 124
f 124 178 179
f 124 179 180
f 124 180 181
f 124 181 182
f 124 182 105
f 124 105 183
f 124 183 184
f 124 184 125
f 125 184 185
f 125 185 126
f 126 185 186
f 126 186 104
f 126 104 103
f 25 187 188
f 187 25 189
f 189 25 23
f 26 190 191
f 190 26 25
f 190 25 192
f 193 194 195
f 193 195 196
f 193 196 197
f 193 197 116
f 193 116 170
f 193 170 169
f 193 169 198
f 193 198 199
f 193 199 194
f 194 199 122
f 194 122 121
f 194 121 120
f 194 120 195
f 195 120 196
f 196 120 118
f 196 118 93
f 196 93 197
f 197 93 92
f 197 92 116
f 116 92 55
f 116 55 124
f 116 124 170
f 200 82 201
f 200 201 202
f 200 202 82
f 82 202 203
f 82 203 204
f 82 204 205
f 82 205 83
f 83 205 84
f 84 205 206
f 84 206 85
f 85 206 207
f 85 207 208
f 85 208 86
f 86 208 209
f 86 209 210
f 86 210 211
f 86 211 87
f 87 211 212
f 87 212 88
f 88 212 213
f 88 213 214
f 88 214 215
f 88 215 216
f 88 216 89
f 89 216 215
f 89 215 217
f 89 217 6
f 89 6 90
f 218 76 61
f 218 61 60
f 218 60 219
f 218 219 220
f 218 220 221
f 218 221 77
f 218 77 76
f 112 220 113
f 113 220 219
f 113 219 59
f 59 219 60
f 183 104 222
f 183 222 184
f 184 222 186
f 184 186 185
f 214 223 215
f 215 223 217
f 217 223 224
f 217 224 225
f 217 225 226
f 217 226 6
f 6 226 7
f 7 226 9
f 9 226 227
f 9 227 10
f 10 227 228
f 10 228 11
f 11 228 229
f 11 229 230
f 11 230 12
f 12 230 231
f 12 231 232
f 12 232 13
f 13 232 233
f 13 233 234
f 13 234 152
f 13 152 14
f 211 210 212
f 212 210 213
f 213 210 235
f 213 235 214
f 214 235 236
f 214 236 228
f 214 228 227
f 214 227 225
f 214 225 224
f 214 224 223
f 207 229 236
f 207 236 209
f 207 209 208
f 237 238 233
f 237 233 239
f 237 239 203
f 237 203 240
f 237 240 238
f 238 240 234
f 238 234 233
f 234 153 152
f 153 234 240
f 153 240 154
f 154 240 155
f 155 240 241
f 155 241 156
f 156 241 157
f 157 241 201
f 157 201 158
f 158 201 82
f 158 82 242
f 158 242 243
f 158 243 138
f 158 138 129
f 158 129 159
f 159 129 106
f 159 106 55
f 159 55 67
f 67 55 91
f 91 55 40
f 40 55 92
f 232 239 233
f 239 232 231
f 239 231 244
f 239 244 205
f 239 205 203
f 203 205 204
f 145 245 147
f 145 147 146
f 246 82 247
f 246 247 248
f 246 248 242
f 246 242 82
f 142 249 250
f 142 250 251
f 142 251 144
f 142 144 143
f 252 253 248
f 252 248 254
f 252 254 255
f 252 255 256
f 252 256 144
f 252 144 251
f 252 251 250
f 252 250 253
f 253 250 257
f 253 257 258
f 253 258 243
f 253 243 259
f 253 259 248
f 248 259 242
f 242 259 243
f 260 261 262
f 260 262 80
f 260 80 79
f 260 79 263
f 260 263 261
f 261 263 148
f 261 148 147
f 261 147 264
f 261 264 265
f 261 265 255
f 261 255 262
f 262 255 81
f 262 81 80
f 174 266 175
f 175 266 267
f 175 267 176
f 176 267 136
f 176 136 135
f 176 135 177
f 177 135 178
f 178 135 179
f 179 135 134
f 179 134 180
f 180 134 181
f 181 134 132
f 181 132 182
f 182 132 268
f 182 268 105
f 105 268 106
f 106 268 132
f 62 61 63
f 63 61 74
f 63 74 73
f 63 73 72
f 63 72 47
f 231 229 244
f 244 229 206
f 244 206 205
f 123 199 198
f 123 198 169
f 123 169 168
f 123 168 124
f 269 266 174
f 269 174 173
f 269 173 172
f 269 172 171
f 269 171 266
f 266 171 129
f 266 129 138
f 266 138 270
f 266 270 267
f 267 270 137
f 267 137 136
f 103 101 100
f 101 103 102
f 271 220 112
f 271 112 149
f 271 149 272
f 271 272 221
f 271 221 220
f 81 247 82
f 247 81 254
f 247 254 248
f 263 79 148
f 148 79 78
f 148 78 272
f 148 272 149
f 75 74 61
f 75 61 76
f 225 227 226
f 210 209 236
f 210 236 235
f 240 203 241
f 241 203 202
f 241 202 201
f 256 265 273
f 256 273 144
f 144 273 145
f 145 273 245
f 245 273 264
f 245 264 147
f 264 273 265
f 231 230 229
f 183 105 104
f 229 228 236
f 141 258 257
f 141 257 249
f 141 249 142
f 249 257 250
f 258 141 274
f 258 274 243
f 243 274 138
f 138 274 275
f 138 275 139
f 139 275 140
f 140 275 274
f 140 274 141
f 186 222 104
f 134 133 132
f 120 119 118
f 123 122 199
f 138 137 270
f 78 77 221
f 78 221 272
f 81 255 254
f 256 255 265
f 206 229 207
f 124 55 106
f 124 106 129
f 124 129 171
f 276 277 278
f 279 280 281
