# RS2 Model 20753
# Vertices: 84
# Faces: 152

v 0 13 115
v -10 11 115
v 0 14 119
v 10 11 115
v 9 8 113
v 0 10 113
v -9 8 113
v -18 2 114
v -10 11 119
v 0 12 121
v 10 11 119
v 18 2 114
v 16 0 112
v 13 -13 115
v 12 -11 112
v 0 -14 111
v 0 -16 116
v -13 -12 115
v -10 -11 112
v -16 0 112
v 0 9 165
v -13 10 159
v -19 2 160
v -8 1 165
v -11 -8 158
v -10 -9 158
v 0 -6 160
v 0 -11 155
v 10 -9 158
v 8 1 165
v 11 -8 158
v 19 2 160
v 11 11 159
v 3 13 161
v 0 14 146
v -4 13 161
v -9 16 149
v -19 10 155
v 0 -15 120
v -10 -13 120
v 11 -13 120
v 9 -13 134
v 0 -15 135
v -9 -13 134
v -11 -13 134
v -12 -12 134
v -12 -12 119
v -16 3 119
v -16 3 134
v -13 14 135
v -16 14 142
v -18 2 142
v -13 -12 140
v -14 -13 142
v -17 -9 153
v -13 -10 153
v 19 10 155
v 8 16 149
v 16 3 119
v 12 -12 119
v 13 14 135
v 16 1 134
v 12 -12 134
v 16 14 142
v 5 14 136
v 0 14 137
v -6 14 136
v 18 2 142
v 0 -13 144
v -6 -15 141
v 0 -13 142
v 6 -15 140
v 12 -15 143
v 11 -11 153
v 0 -12 154
v -11 -11 153
v -12 -15 143
v -11 -14 140
v 11 -14 140
v 13 -12 139
v 14 -13 142
v 13 -10 153
v 17 -9 153
v 11 -13 134

f 1 2 3
f 1 3 4
f 1 4 5
f 1 5 6
f 1 6 7
f 1 7 2
f 2 7 8
f 2 8 9
f 2 9 3
f 3 9 10
f 3 10 11
f 3 11 4
f 4 11 12
f 4 12 5
f 5 12 13
f 13 12 14
f 13 14 15
f 15 14 16
f 16 14 17
f 16 17 18
f 16 18 19
f 19 18 20
f 20 18 8
f 20 8 7
f 21 22 23
f 21 23 24
f 24 23 25
f 24 25 26
f 24 26 27
f 27 26 28
f 27 28 29
f 27 29 30
f 30 29 31
f 30 31 32
f 30 32 21
f 21 32 33
f 21 33 34
f 21 34 35
f 21 35 36
f 21 36 22
f 22 36 35
f 22 35 37
f 22 37 38
f 22 38 23
f 39 40 17
f 39 17 41
f 39 41 42
f 39 42 43
f 39 43 44
f 39 44 40
f 40 44 45
f 40 45 46
f 40 46 47
f 40 47 18
f 40 18 17
f 48 18 47
f 48 47 49
f 48 49 50
f 48 50 9
f 48 9 8
f 48 8 18
f 37 51 38
f 38 51 52
f 52 51 49
f 52 49 46
f 52 46 53
f 52 53 54
f 52 54 55
f 55 54 56
f 55 56 25
f 55 25 23
f 32 57 33
f 33 57 58
f 33 58 35
f 33 35 34
f 59 60 14
f 59 14 12
f 59 12 11
f 59 11 61
f 59 61 62
f 59 62 60
f 60 62 63
f 60 63 41
f 60 41 14
f 14 41 17
f 57 64 58
f 58 64 61
f 58 61 65
f 58 65 35
f 35 65 66
f 35 66 67
f 35 67 37
f 37 67 50
f 37 50 51
f 51 50 49
f 68 64 57
f 64 68 62
f 64 62 61
f 46 49 47
f 67 10 9
f 67 9 50
f 69 70 71
f 69 71 72
f 69 72 73
f 69 73 74
f 69 74 75
f 69 75 76
f 69 76 77
f 69 77 70
f 70 77 78
f 70 78 44
f 70 44 43
f 70 43 71
f 71 43 72
f 72 43 42
f 72 42 79
f 72 79 73
f 73 79 80
f 73 80 81
f 73 81 74
f 74 81 82
f 74 82 31
f 74 31 29
f 74 29 28
f 74 28 75
f 75 28 76
f 76 28 26
f 76 26 25
f 76 25 56
f 76 56 54
f 76 54 77
f 77 54 53
f 77 53 78
f 78 53 45
f 78 45 44
f 80 63 62
f 80 62 68
f 80 68 81
f 81 68 83
f 81 83 82
f 82 83 31
f 31 83 32
f 67 66 10
f 10 66 65
f 10 65 11
f 11 65 61
f 53 46 45
f 41 84 42
f 42 84 79
f 79 84 80
f 80 84 63
f 63 84 41
