# RS2 Model 20789
# Vertices: 252
# Faces: 461

v 4 51 26
v 4 26 26
v -1 25 19
v -1 52 19
v -9 52 26
v -4 51 32
v 9 48 32
v 9 26 32
v 1 26 38
v -4 26 32
v -9 25 26
v 1 48 38
v 14 41 38
v 14 25 38
v 6 25 44
v 6 41 44
v 19 33 44
v 19 23 44
v 12 23 50
v 12 33 50
v 24 19 50
v 16 19 56
v -119 56 8
v 119 56 8
v 128 64 0
v -128 64 0
v -119 -57 8
v -119 -57 19
v -119 56 19
v 119 56 19
v 119 -57 8
v 128 -64 0
v -128 -64 0
v 119 -57 19
v -13 -8 55
v -10 -18 52
v 5 -10 40
v 3 -1 42
v -3 3 46
v -12 -1 53
v -15 -1 48
v -17 -8 49
v -14 -18 47
v -5 -22 48
v 3 -18 42
v 0 -18 37
v 2 -10 36
v 0 -1 38
v -7 3 42
v -1 11 37
v -24 0 55
v -22 -8 53
v -16 -13 49
v -18 -23 50
v -9 -22 43
v -15 -30 48
v 8 -19 31
v 4 -12 34
v 1 -5 36
v 0 3 37
v -5 4 28
v -6 12 28
v -3 19 39
v -25 8 55
v -30 8 47
v -30 0 47
v -28 -8 45
v -23 -14 41
v -24 -23 42
v -32 16 48
v -25 16 55
v -33 24 49
v -26 24 56
v -36 31 51
v -29 32 58
v -39 38 53
v -32 39 61
v -42 46 56
v -37 45 64
v -47 51 59
v -42 50 68
v -35 49 50
v -30 49 59
v -26 45 44
v -21 44 52
v -19 40 38
v -14 39 47
v -13 34 34
v -8 33 43
v -10 27 31
v -5 26 40
v -8 20 30
v -21 -30 40
v -11 -37 45
v 11 -26 28
v 6 -25 19
v 3 -18 22
v -1 -11 25
v -4 -4 27
v -16 -37 37
v -7 -43 42
v 13 -34 27
v 7 -34 19
v -13 -44 34
v 91 43 30
v 105 43 30
v 108 46 19
v 88 46 19
v 105 29 30
v 105 29 84
v 91 43 74
v 105 43 84
v 108 26 19
v 105 -31 30
v 105 -45 30
v 108 -48 19
v 108 -28 19
v 91 -45 30
v 91 -45 74
v 105 -31 84
v 105 -45 84
v 88 -48 19
v -94 -45 30
v -108 -45 30
v -111 -48 19
v -91 -48 19
v -108 -31 30
v -108 -31 84
v -94 -45 74
v -108 -45 84
v -111 -28 19
v -108 29 30
v -108 43 30
v -111 46 19
v -111 26 19
v -94 43 30
v -94 43 74
v -108 29 84
v -108 43 84
v -91 46 19
v -21 -50 23
v -17 -50 27
v -17 2 27
v -21 2 23
v -17 -50 19
v -13 -50 23
v -13 2 23
v -17 2 19
v -24 52 26
v -29 52 19
v -53 52 37
v -48 52 44
v -41 59 47
v -20 59 31
v -24 -61 26
v -29 -61 19
v -117 52 86
v -117 -61 86
v -112 -61 93
v -112 52 93
v -90 52 66
v -85 52 72
v -48 -61 44
v -53 -61 37
v -85 -61 72
v -90 -61 66
v -78 -69 76
v -115 -69 104
v -115 59 104
v -78 59 76
v -70 59 70
v -48 59 53
v -52 59 21
v -44 59 14
v -48 59 60
v -40 59 54
v -16 59 36
v -20 -69 31
v -41 -69 47
v -48 -69 53
v -70 -69 70
v -73 -69 37
v -81 -69 43
v -69 -69 77
v -77 -69 83
v -112 -69 109
v -112 59 109
v -77 59 83
v -73 59 37
v -81 59 43
v -66 59 8
v -68 59 -1
v -16 -69 36
v -40 -69 54
v -52 -69 21
v -44 -69 14
v -68 -69 -1
v -66 -69 8
v -69 59 77
v -48 -69 60
v 21 -57 26
v 26 -57 19
v 50 -57 37
v 45 -57 44
v 38 -64 47
v 17 -64 31
v 21 56 26
v 26 56 19
v 114 -57 86
v 114 56 86
v 109 56 93
v 109 -57 93
v 87 -57 66
v 82 -57 72
v 45 56 44
v 50 56 37
v 82 56 72
v 87 56 66
v 75 64 76
v 112 64 104
v 112 -64 104
v 75 -64 76
v 67 -64 70
v 45 -64 53
v 49 -64 21
v 41 -64 14
v 45 -64 60
v 37 -64 54
v 13 -64 36
v 17 64 31
v 38 64 47
v 45 64 53
v 67 64 70
v 70 64 37
v 78 64 43
v 66 64 77
v 74 64 83
v 109 64 109
v 109 -64 109
v 74 -64 83
v 70 -64 37
v 78 -64 43
v 63 -64 8
v 65 -64 -1
v 13 64 36
v 37 64 54
v 49 64 21
v 41 64 14
v 65 64 -1
v 63 64 8
v 66 -64 77
v 45 64 60

f 1 2 3
f 1 3 4
f 1 4 5
f 1 5 6
f 1 6 7
f 1 7 2
f 2 7 8
f 2 8 9
f 2 9 10
f 2 10 3
f 3 10 11
f 3 11 4
f 4 11 5
f 5 11 10
f 5 10 6
f 6 10 9
f 6 9 12
f 6 12 7
f 7 12 13
f 7 13 8
f 8 13 14
f 8 14 15
f 8 15 9
f 9 15 12
f 12 15 16
f 12 16 13
f 13 16 17
f 13 17 14
f 14 17 18
f 14 18 19
f 14 19 15
f 15 19 16
f 16 19 20
f 16 20 17
f 17 20 21
f 17 21 18
f 18 21 22
f 18 22 19
f 19 22 20
f 20 22 21
f 23 24 25
f 23 25 26
f 23 26 27
f 23 27 28
f 23 28 29
f 23 29 24
f 24 29 30
f 24 30 31
f 24 31 32
f 24 32 25
f 27 26 33
f 27 33 31
f 27 31 34
f 27 34 28
f 28 34 30
f 28 30 29
f 31 33 32
f 30 34 31
f 35 36 37
f 35 37 38
f 35 38 39
f 35 39 40
f 35 40 41
f 35 41 42
f 35 42 36
f 36 42 43
f 36 43 44
f 36 44 37
f 37 44 45
f 37 45 46
f 37 46 47
f 37 47 38
f 38 47 48
f 38 48 39
f 39 48 49
f 39 49 40
f 40 49 41
f 41 49 50
f 41 50 51
f 41 51 42
f 42 51 52
f 42 52 53
f 42 53 43
f 43 53 54
f 43 54 55
f 43 55 44
f 44 55 45
f 45 55 46
f 46 55 56
f 46 56 57
f 46 57 58
f 46 58 47
f 47 58 59
f 47 59 48
f 48 59 60
f 48 60 49
f 49 60 50
f 50 60 61
f 50 61 62
f 50 62 63
f 50 63 51
f 51 63 64
f 51 64 65
f 51 65 66
f 51 66 52
f 52 66 67
f 52 67 53
f 53 67 68
f 53 68 54
f 54 68 69
f 54 69 56
f 54 56 55
f 70 65 64
f 70 64 71
f 70 71 72
f 72 71 73
f 72 73 74
f 74 73 75
f 74 75 76
f 76 75 77
f 76 77 78
f 78 77 79
f 78 79 80
f 80 79 81
f 80 81 82
f 82 81 83
f 82 83 84
f 84 83 85
f 84 85 86
f 86 85 87
f 86 87 88
f 88 87 89
f 88 89 90
f 90 89 91
f 90 91 92
f 92 91 63
f 92 63 62
f 69 93 56
f 56 93 94
f 56 94 57
f 57 94 95
f 57 95 96
f 57 96 97
f 57 97 58
f 58 97 98
f 58 98 59
f 59 98 99
f 59 99 60
f 60 99 61
f 93 100 94
f 94 100 101
f 94 101 95
f 95 101 102
f 95 102 103
f 95 103 96
f 100 104 101
f 101 104 103
f 101 103 102
f 91 71 64
f 91 64 63
f 89 73 71
f 89 71 91
f 87 75 73
f 87 73 89
f 85 77 75
f 85 75 87
f 83 79 77
f 83 77 85
f 83 81 79
f 105 106 107
f 105 107 108
f 105 108 109
f 105 109 110
f 105 110 111
f 105 111 106
f 106 111 112
f 106 112 109
f 106 109 113
f 106 113 107
f 112 110 109
f 109 108 113
f 114 115 116
f 114 116 117
f 114 117 118
f 114 118 119
f 114 119 120
f 114 120 115
f 115 120 121
f 115 121 118
f 115 118 122
f 115 122 116
f 121 119 118
f 118 117 122
f 123 124 125
f 123 125 126
f 123 126 127
f 123 127 128
f 123 128 129
f 123 129 124
f 124 129 130
f 124 130 127
f 124 127 131
f 124 131 125
f 130 128 127
f 127 126 131
f 132 133 134
f 132 134 135
f 132 135 136
f 132 136 137
f 132 137 138
f 132 138 133
f 133 138 139
f 133 139 136
f 133 136 140
f 133 140 134
f 139 137 136
f 136 135 140
f 141 142 143
f 141 143 144
f 141 144 145
f 141 145 142
f 142 145 146
f 142 146 147
f 142 147 143
f 143 147 144
f 144 147 148
f 144 148 145
f 145 148 146
f 146 148 147
f 149 150 151
f 149 151 152
f 149 152 153
f 149 153 154
f 149 154 155
f 149 155 156
f 149 156 150
f 150 156 157
f 157 156 158
f 157 158 159
f 157 159 160
f 157 160 161
f 161 160 162
f 161 162 152
f 161 152 151
f 156 155 163
f 156 163 164
f 164 163 165
f 164 165 166
f 166 165 158
f 158 165 159
f 159 165 167
f 159 167 168
f 159 168 160
f 160 168 169
f 160 169 162
f 162 169 170
f 162 170 171
f 162 171 152
f 152 171 172
f 152 172 153
f 153 172 173
f 153 173 174
f 153 174 172
f 153 172 175
f 153 175 176
f 153 176 154
f 154 176 177
f 154 177 178
f 154 178 155
f 155 178 163
f 163 178 179
f 163 179 180
f 163 180 165
f 165 180 181
f 165 181 167
f 167 181 182
f 167 182 183
f 167 183 181
f 167 181 184
f 167 184 185
f 167 185 168
f 168 185 186
f 168 186 169
f 169 186 187
f 169 187 170
f 170 187 188
f 170 188 171
f 170 171 189
f 170 189 190
f 170 190 171
f 171 190 189
f 171 189 172
f 171 172 173
f 171 173 189
f 189 173 172
f 173 189 191
f 173 191 174
f 173 174 192
f 173 192 191
f 173 191 189
f 189 191 190
f 189 190 192
f 189 192 191
f 191 192 174
f 193 177 176
f 193 176 194
f 193 194 179
f 193 179 178
f 193 178 177
f 195 182 181
f 195 181 180
f 195 180 196
f 195 196 197
f 195 197 198
f 195 198 182
f 195 182 198
f 195 198 196
f 195 196 179
f 195 179 180
f 195 180 182
f 182 180 181
f 182 181 183
f 182 183 197
f 182 197 198
f 182 198 183
f 183 198 197
f 196 180 179
f 188 187 186
f 188 186 185
f 188 185 184
f 188 184 199
f 188 199 171
f 171 199 172
f 172 199 175
f 175 199 200
f 175 200 194
f 175 194 176
f 199 184 200
f 200 184 181
f 200 181 180
f 200 180 194
f 194 180 179
f 172 174 173
f 190 191 192
f 196 198 197
f 201 202 203
f 201 203 204
f 201 204 205
f 201 205 206
f 201 206 207
f 201 207 208
f 201 208 202
f 202 208 209
f 209 208 210
f 209 210 211
f 209 211 212
f 209 212 213
f 213 212 214
f 213 214 204
f 213 204 203
f 208 207 215
f 208 215 216
f 216 215 217
f 216 217 218
f 218 217 210
f 210 217 211
f 211 217 219
f 211 219 220
f 211 220 212
f 212 220 221
f 212 221 214
f 214 221 222
f 214 222 223
f 214 223 204
f 204 223 224
f 204 224 205
f 205 224 225
f 205 225 226
f 205 226 224
f 205 224 227
f 205 227 228
f 205 228 206
f 206 228 229
f 206 229 230
f 206 230 207
f 207 230 215
f 215 230 231
f 215 231 232
f 215 232 217
f 217 232 233
f 217 233 219
f 219 233 234
f 219 234 235
f 219 235 233
f 219 233 236
f 219 236 237
f 219 237 220
f 220 237 238
f 220 238 221
f 221 238 239
f 221 239 222
f 222 239 240
f 222 240 223
f 222 223 241
f 222 241 242
f 222 242 223
f 223 242 241
f 223 241 224
f 223 224 225
f 223 225 241
f 241 225 224
f 225 241 243
f 225 243 226
f 225 226 244
f 225 244 243
f 225 243 241
f 241 243 242
f 241 242 244
f 241 244 243
f 243 244 226
f 245 229 228
f 245 228 246
f 245 246 231
f 245 231 230
f 245 230 229
f 247 234 233
f 247 233 232
f 247 232 248
f 247 248 249
f 247 249 250
f 247 250 234
f 247 234 250
f 247 250 248
f 247 248 231
f 247 231 232
f 247 232 234
f 234 232 233
f 234 233 235
f 234 235 249
f 234 249 250
f 234 250 235
f 235 250 249
f 248 232 231
f 240 239 238
f 240 238 237
f 240 237 236
f 240 236 251
f 240 251 223
f 223 251 224
f 224 251 227
f 227 251 252
f 227 252 246
f 227 246 228
f 251 236 252
f 252 236 233
f 252 233 232
f 252 232 246
f 246 232 231
f 224 226 225
f 242 243 244
f 248 250 249
