# RS2 Model 20825
# Vertices: 28
# Faces: 48

v 18 -16 240
v 0 -16 208
v -6 -8 214
v -12 -17 219
v -6 -25 213
v 13 -46 189
v -7 -16 199
v 12 14 189
v -14 -8 205
v -33 13 229
v -20 -17 210
v -32 -47 228
v -13 -25 204
v -37 -16 177
v -9 -16 250
v -3 -10 214
v -15 -10 214
v -15 -22 214
v -3 -22 214
v 33 -16 208
v -3 -10 202
v -9 26 208
v -15 -10 202
v -51 -16 208
v -15 -22 202
v -9 -58 208
v -3 -22 202
v -9 -16 166

f 1 2 3
f 1 3 4
f 1 4 5
f 1 5 2
f 2 5 6
f 2 6 7
f 2 7 8
f 2 8 3
f 3 8 9
f 3 9 10
f 3 10 4
f 4 10 11
f 4 11 12
f 4 12 5
f 5 12 13
f 5 13 6
f 6 13 7
f 7 13 14
f 7 14 9
f 7 9 8
f 14 13 11
f 14 11 9
f 9 11 10
f 12 11 13
f 15 16 17
f 15 17 18
f 15 18 19
f 15 19 16
f 16 19 20
f 16 20 21
f 16 21 22
f 16 22 17
f 17 22 23
f 17 23 24
f 17 24 18
f 18 24 25
f 18 25 26
f 18 26 19
f 19 26 27
f 19 27 20
f 20 27 21
f 21 27 28
f 21 28 23
f 21 23 22
f 28 27 25
f 28 25 23
f 23 25 24
f 26 25 27
