# RS2 Model 2086
# Vertices: 121
# Faces: 105

v -56 16 222
v -56 -1 221
v -56 0 218
v -56 10 220
v -56 -14 209
v -56 -10 208
v -56 -16 191
v -56 -9 194
v -56 -4 178
v -56 -3 183
v -56 12 176
v -56 11 184
v -56 23 186
v -56 20 189
v -56 28 200
v -56 25 199
v -56 18 213
v -56 16 204
v -56 0 212
v -56 4 208
v -56 -6 196
v -56 -2 198
v -56 3 186
v -56 2 192
v -56 -2 226
v -56 2 231
v -56 -10 228
v -56 -9 224
v -56 -24 224
v -56 -21 221
v -56 -37 216
v -56 -33 214
v -56 -45 206
v -56 -42 205
v -56 -50 190
v -56 -46 195
v -56 11 225
v -56 15 230
v -56 24 223
v -56 34 226
v -56 38 217
v -56 44 217
v -56 46 205
v -56 51 200
v -56 -32 177
v -56 -29 167
v -56 -24 170
v -56 -28 179
v -56 -30 183
v -56 -37 184
v -56 -34 197
v -56 -39 204
v -56 -34 159
v -56 -29 162
v -56 -31 151
v -56 -27 157
v -56 -17 141
v -56 -15 148
v -56 34 166
v -56 37 176
v -56 33 178
v -56 29 169
v -56 34 161
v -56 39 158
v -56 33 155
v -56 37 151
v -56 23 148
v -56 25 140
v -56 42 183
v -56 35 182
v -56 44 203
v -56 39 196
v -56 22 168
v -56 17 175
v -56 21 161
v -56 26 159
v -56 18 154
v -56 21 152
v -56 6 150
v -56 12 140
v -56 -7 175
v -56 -12 168
v -56 -16 159
v -56 -11 161
v -56 -11 152
v -56 -8 154
v -56 -4 140
v -56 -1 150
v -56 5 129
v -56 1 134
v -56 -6 136
v -56 -9 130
v -56 -17 139
v -56 -23 134
v -56 -28 143
v -56 -31 139
v -56 -38 151
v -56 -41 147
v -56 -44 159
v -56 -48 161
v -56 16 130
v -56 14 135
v -56 35 133
v -56 25 135
v -56 44 138
v -56 42 142
v -56 53 154
v -57 4 228
v -57 -19 201
v -57 2 201
v -57 30 201
v -57 35 224
v -57 -19 147
v -57 2 147
v -57 30 147
v -57 -23 140
v -57 4 132
v -57 36 136
v -56 -46 124
v -56 55 128
v -56 -51 226

f 1 2 3
f 1 3 4
f 3 2 5
f 3 5 6
f 6 5 7
f 6 7 8
f 8 7 9
f 8 9 10
f 10 9 11
f 10 11 12
f 12 11 13
f 12 13 14
f 14 13 15
f 14 15 16
f 16 15 17
f 16 17 18
f 18 17 19
f 18 19 20
f 20 19 21
f 20 21 22
f 22 21 23
f 22 23 24
f 25 26 27
f 25 27 28
f 28 27 29
f 28 29 30
f 30 29 31
f 30 31 32
f 32 31 33
f 32 33 34
f 34 33 35
f 34 35 36
f 26 25 37
f 26 37 38
f 38 37 39
f 38 39 40
f 40 39 41
f 40 41 42
f 42 41 43
f 42 43 44
f 45 46 47
f 45 47 48
f 45 48 49
f 45 49 50
f 50 49 51
f 50 51 52
f 47 46 53
f 47 53 54
f 54 53 55
f 54 55 56
f 56 55 57
f 56 57 58
f 59 60 61
f 59 61 62
f 59 62 63
f 59 63 64
f 64 63 65
f 64 65 66
f 66 65 67
f 66 67 68
f 61 60 69
f 61 69 70
f 70 69 71
f 70 71 72
f 73 74 75
f 73 75 76
f 76 75 77
f 76 77 78
f 78 77 79
f 78 79 80
f 81 82 83
f 81 83 84
f 84 83 85
f 84 85 86
f 86 85 87
f 86 87 88
f 89 90 91
f 89 91 92
f 92 91 93
f 92 93 94
f 94 93 95
f 94 95 96
f 96 95 97
f 96 97 98
f 98 97 99
f 98 99 100
f 90 89 101
f 90 101 102
f 102 101 103
f 102 103 104
f 104 103 105
f 104 105 106
f 106 105 107
f 108 29 109
f 108 109 110
f 108 110 111
f 108 111 112
f 110 109 113
f 110 113 114
f 110 114 115
f 110 115 111
f 114 113 116
f 114 116 117
f 114 117 118
f 114 118 115
