# RS2 Model 20876
# Vertices: 32
# Faces: 52

v 21 22 0
v 23 43 0
v 31 43 0
v 35 22 0
v 29 11 0
v 25 12 0
v 25 11 3
v 23 23 7
v 22 38 13
v 27 42 13
v 31 38 14
v 32 23 6
v 34 14 3
v 34 14 0
v 29 9 4
v 27 33 14
v -21 22 0
v -31 43 0
v -23 43 0
v -23 23 7
v -25 11 3
v -25 12 0
v -29 11 0
v -35 22 0
v -31 38 14
v -27 42 13
v -22 38 13
v -27 33 14
v -32 23 6
v -29 9 4
v -34 14 0
v -34 14 3

f 1 2 3
f 1 3 4
f 1 4 5
f 1 5 6
f 1 6 7
f 1 7 8
f 1 8 2
f 2 8 9
f 2 9 10
f 2 10 3
f 3 10 11
f 3 11 4
f 4 11 12
f 4 12 13
f 4 13 14
f 4 14 5
f 5 14 15
f 5 15 6
f 6 15 7
f 7 15 8
f 8 15 12
f 8 12 16
f 8 16 9
f 16 12 11
f 14 13 15
f 15 13 12
f 17 18 19
f 17 19 20
f 17 20 21
f 17 21 22
f 17 22 23
f 17 23 24
f 17 24 18
f 18 24 25
f 18 25 26
f 18 26 19
f 19 26 27
f 19 27 20
f 20 27 28
f 20 28 29
f 20 29 30
f 20 30 21
f 21 30 22
f 22 30 23
f 23 30 31
f 23 31 24
f 24 31 32
f 24 32 29
f 24 29 25
f 25 29 28
f 31 30 32
f 32 30 29
