# RS2 Model 20935
# Vertices: 32
# Faces: 59

v 14 28 130
v 15 31 126
v 12 38 127
v 11 39 131
v 10 37 132
v 12 29 131
v 11 20 129
v 12 24 125
v 5 18 123
v 5 15 130
v 0 15 121
v 4 18 99
v 0 14 100
v 5 20 73
v 0 13 76
v -5 17 73
v -4 18 99
v -5 18 123
v -5 15 130
v -11 20 129
v -12 24 125
v -14 28 130
v -15 31 126
v -11 39 131
v -12 38 127
v 0 14 133
v 0 17 129
v -7 20 130
v -12 29 131
v -10 37 132
v 0 37 132
v 7 20 130

f 1 2 3
f 1 3 4
f 1 4 5
f 1 5 6
f 1 6 7
f 1 7 2
f 2 7 8
f 8 7 9
f 9 7 10
f 9 10 11
f 9 11 12
f 9 12 13
f 9 13 12
f 12 13 14
f 12 14 15
f 12 15 14
f 15 12 13
f 15 13 12
f 13 15 14
f 15 13 16
f 15 16 17
f 15 17 16
f 17 15 13
f 17 13 11
f 17 11 18
f 17 18 13
f 17 13 18
f 18 13 11
f 18 11 19
f 18 19 20
f 18 20 21
f 21 20 22
f 21 22 23
f 23 22 24
f 23 24 25
f 25 24 4
f 25 4 3
f 11 10 26
f 11 26 19
f 19 26 27
f 19 27 28
f 19 28 20
f 20 28 22
f 22 28 29
f 22 29 24
f 24 29 30
f 24 30 31
f 24 31 4
f 4 31 5
f 7 6 32
f 7 32 10
f 10 32 27
f 10 27 26
f 12 11 13
f 13 11 9
f 13 9 11
f 17 16 13
f 17 13 15
f 11 13 18
