# RS2 Model 20972
# Vertices: 110
# Faces: 200

v 6 11 172
v -2 11 166
v -6 11 172
v 0 10 176
v 3 9 178
v 8 9 173
v 19 8 171
v 16 8 162
v 0 10 163
v -4 10 164
v -8 11 170
v -19 8 171
v -11 8 180
v -6 12 173
v -1 11 176
v -8 1 186
v -4 1 186
v 0 4 186
v 4 1 186
v 11 8 180
v -1 -19 150
v -1 -19 156
v -6 -19 156
v -6 -16 150
v 0 -18 149
v 0 -18 157
v -7 -18 157
v -7 -14 149
v -6 -15 148
v -1 -19 148
v 0 -17 141
v 1 -19 148
v 6 -15 148
v 7 -14 149
v 6 -16 150
v 1 -19 150
v 1 -19 156
v 6 -19 156
v 7 -18 157
v 0 -22 161
v -12 -21 161
v -14 -14 158
v -12 -6 153
v -10 -5 145
v -6 -15 141
v -5 -16 142
v -1 -18 142
v -7 -17 137
v 0 -20 137
v 7 -17 137
v 6 -15 141
v 1 -18 142
v 5 -16 142
v 10 -5 145
v 12 -6 153
v 14 -14 158
v -15 0 185
v -9 -6 186
v -7 -6 187
v -17 -8 180
v -15 -16 175
v -8 -17 178
v -7 -16 179
v -6 -15 179
v -4 -13 180
v 0 -11 183
v 0 -9 189
v 7 -6 187
v 10 -15 175
v 17 -8 180
v 15 0 185
v 18 -8 164
v 17 -2 160
v 22 0 164
v 18 -14 172
v 19 -16 167
v 12 -21 161
v 12 -22 167
v 0 -23 167
v -12 -22 167
v -19 -16 167
v -18 -8 164
v -17 -2 160
v -16 8 162
v -6 7 157
v -5 0 147
v -3 0 141
v -13 -2 139
v 0 -20 172
v 0 -19 173
v -5 -20 173
v 26 -6 172
v 11 -2 139
v 3 0 141
v 5 0 147
v 6 7 157
v -22 0 164
v -18 -14 172
v -26 -6 172
v -17 -14 174
v -16 -15 175
v -17 -16 174
v -15 -19 169
v -6 -17 179
v 0 1 145
v 0 2 150
v 0 1 140
v 0 5 138
v -16 -17 171
v -5 -19 174

f 1 2 3
f 1 3 4
f 1 4 5
f 1 5 6
f 1 6 7
f 1 7 8
f 1 8 9
f 1 9 2
f 2 9 10
f 2 10 11
f 2 11 3
f 3 11 12
f 3 12 13
f 3 13 14
f 3 14 4
f 4 14 15
f 4 15 16
f 4 16 17
f 4 17 18
f 4 18 19
f 4 19 5
f 5 19 20
f 5 20 6
f 6 20 7
f 21 22 23
f 21 23 24
f 21 24 25
f 21 25 22
f 22 25 26
f 22 26 23
f 23 26 27
f 23 27 24
f 24 27 28
f 24 28 25
f 25 28 29
f 25 29 30
f 25 30 31
f 25 31 32
f 25 32 33
f 25 33 34
f 25 34 35
f 25 35 36
f 25 36 37
f 25 37 26
f 26 37 38
f 26 38 39
f 26 39 40
f 26 40 27
f 27 40 41
f 27 41 42
f 27 42 28
f 28 42 43
f 28 43 44
f 28 44 45
f 28 45 46
f 28 46 29
f 29 46 30
f 30 46 47
f 30 47 31
f 31 47 45
f 31 45 48
f 31 48 49
f 31 49 50
f 31 50 51
f 31 51 52
f 31 52 32
f 32 52 53
f 32 53 33
f 33 53 34
f 34 53 51
f 34 51 54
f 34 54 55
f 34 55 56
f 34 56 39
f 34 39 35
f 35 39 38
f 35 38 36
f 36 38 37
f 16 57 58
f 16 58 59
f 16 59 17
f 60 58 57
f 58 60 61
f 58 61 62
f 58 62 63
f 58 63 64
f 58 64 65
f 58 65 59
f 59 65 66
f 59 66 67
f 67 66 68
f 68 66 69
f 68 69 70
f 68 70 71
f 68 71 19
f 19 71 20
f 72 56 55
f 72 55 73
f 72 73 74
f 72 74 75
f 72 75 76
f 72 76 56
f 56 76 77
f 56 77 39
f 39 77 40
f 40 77 78
f 40 78 79
f 40 79 41
f 41 79 80
f 41 80 81
f 41 81 42
f 42 81 82
f 42 82 43
f 43 82 83
f 43 83 84
f 43 84 85
f 43 85 86
f 43 86 44
f 44 86 87
f 44 87 88
f 44 88 45
f 45 88 48
f 89 79 78
f 89 78 75
f 89 75 90
f 89 90 91
f 89 91 80
f 89 80 79
f 69 75 70
f 70 75 92
f 92 75 74
f 51 93 54
f 54 93 94
f 54 94 95
f 54 95 55
f 55 95 96
f 55 96 8
f 55 8 73
f 73 8 74
f 74 8 7
f 8 96 9
f 9 96 85
f 9 85 84
f 9 84 10
f 10 84 11
f 11 84 12
f 12 84 97
f 97 84 83
f 97 83 82
f 97 82 98
f 97 98 99
f 99 98 60
f 60 98 100
f 60 100 101
f 60 101 61
f 61 101 102
f 61 102 103
f 61 103 62
f 62 103 91
f 62 91 104
f 62 104 64
f 62 64 63
f 94 105 95
f 95 105 86
f 95 86 106
f 95 106 96
f 96 106 85
f 85 106 86
f 94 107 105
f 105 107 87
f 105 87 86
f 93 51 50
f 94 93 108
f 94 108 107
f 107 108 87
f 87 108 88
f 75 78 76
f 76 78 77
f 82 81 98
f 98 81 103
f 98 103 109
f 98 109 100
f 100 109 102
f 100 102 101
f 103 102 109
f 103 81 80
f 103 80 91
f 13 57 16
f 13 16 15
f 13 15 14
f 47 46 45
f 52 51 53
f 75 69 90
f 90 69 66
f 90 66 65
f 90 65 64
f 90 64 110
f 90 110 91
f 91 110 104
f 104 110 64
