# RS2 Model 20994
# Vertices: 58
# Faces: 102

v -56 4 131
v -59 -1 131
v -53 0 146
v -49 9 141
v -49 -1 129
v -51 -1 129
v -56 3 130
v -58 -1 130
v -56 -6 131
v -49 -9 141
v -48 -6 142
v -51 0 145
v -48 7 142
v -41 0 137
v -56 -4 130
v -50 -5 124
v -56 0 116
v -58 6 124
v -60 7 127
v -62 -1 128
v -58 -9 124
v -43 0 139
v 56 4 131
v 53 0 146
v 59 -1 131
v 58 -1 130
v 56 3 130
v 49 -1 129
v 49 9 141
v 48 7 142
v 51 0 145
v 49 -9 141
v 56 -6 131
v 56 -4 130
v 60 -8 127
v 62 -1 128
v 60 7 127
v 51 -1 129
v 41 0 137
v 43 0 139
v 65 6 117
v 69 -1 121
v 65 -1 112
v 53 -1 115
v 56 -1 119
v 50 -5 124
v 65 -6 117
v 55 -6 118
v 53 -8 119
v 56 -9 124
v 48 -6 142
v -63 6 117
v -69 -1 121
v -63 -6 117
v -65 -1 112
v -55 -7 116
v -53 -8 119
v -56 -9 124

f 1 2 3
f 1 3 4
f 1 4 5
f 1 5 6
f 1 6 7
f 1 7 2
f 2 7 8
f 2 8 9
f 2 9 3
f 3 9 10
f 3 10 11
f 3 11 12
f 3 12 4
f 4 12 13
f 4 13 14
f 4 14 5
f 5 14 10
f 5 10 9
f 5 9 15
f 5 15 6
f 6 15 16
f 6 16 17
f 6 17 18
f 6 18 19
f 6 19 7
f 7 19 8
f 8 19 20
f 8 20 21
f 8 21 15
f 8 15 9
f 14 13 22
f 14 22 10
f 10 22 11
f 23 24 25
f 23 25 26
f 23 26 27
f 23 27 28
f 23 28 29
f 23 29 24
f 24 29 30
f 24 30 31
f 24 31 32
f 24 32 33
f 24 33 25
f 25 33 34
f 25 34 26
f 26 34 35
f 26 35 36
f 26 36 37
f 26 37 27
f 27 37 38
f 27 38 28
f 28 38 33
f 28 33 32
f 28 32 39
f 28 39 29
f 29 39 40
f 29 40 30
f 41 38 37
f 41 37 42
f 41 42 43
f 41 43 44
f 41 44 45
f 41 45 38
f 38 45 46
f 38 46 34
f 38 34 33
f 35 42 36
f 36 42 37
f 35 47 42
f 42 47 43
f 43 47 44
f 44 47 45
f 45 47 35
f 45 35 48
f 45 48 46
f 46 48 49
f 46 49 50
f 46 50 34
f 34 50 35
f 35 50 48
f 48 50 49
f 32 31 51
f 32 51 39
f 39 51 40
f 52 19 18
f 19 52 53
f 19 53 20
f 20 53 21
f 21 53 54
f 54 53 55
f 54 55 56
f 56 55 17
f 56 17 16
f 56 16 57
f 56 57 21
f 21 57 58
f 21 58 15
f 15 58 16
f 16 58 57
f 53 52 55
f 55 52 17
