# RS2 Model 21010
# Vertices: 93
# Faces: 178

v 9 -14 208
v 11 -9 209
v 8 -10 216
v 7 -14 215
v 4 -17 211
v 4 -15 209
v 8 -14 207
v 8 -15 205
v 8 -8 201
v 12 -2 201
v 11 -4 209
v 13 2 215
v 8 -3 217
v 5 1 222
v 4 -11 218
v 3 -13 217
v 0 -18 214
v 0 -19 212
v 0 -20 209
v 1 -18 208
v 2 -17 206
v 3 -15 205
v 7 -15 205
v 2 -17 205
v 3 -19 202
v 4 -14 201
v 5 -12 196
v 6 -6 193
v 3 -2 193
v 6 -3 200
v 8 1 206
v 5 1 215
v 0 -3 220
v 0 -13 219
v -3 -13 217
v -7 -14 215
v -4 -17 211
v -1 -18 208
v 0 -19 207
v 1 -18 206
v 0 3 206
v 0 4 215
v -5 1 215
v -5 1 222
v -4 -11 218
v -8 -10 216
v -9 -14 208
v -4 -15 209
v -2 -17 206
v -2 -17 205
v -1 -18 206
v 0 -9 189
v 7 -6 187
v 0 -13 188
v -6 -6 193
v -7 -6 187
v -3 -2 193
v -4 1 186
v 0 1 193
v 0 4 186
v 4 1 186
v 0 1 198
v 5 6 197
v -5 4 197
v -8 1 206
v 2 -19 201
v 0 -20 201
v 3 -20 198
v 4 -18 195
v 3 -13 190
v 0 -17 189
v -3 -13 190
v -5 -12 196
v -8 -8 201
v -6 -3 200
v -13 -2 201
v -11 -4 209
v -13 2 215
v -8 -3 217
v -11 -9 209
v -8 -15 205
v -7 -15 205
v -8 -14 207
v -3 -15 205
v -3 -19 202
v -2 -19 201
v -3 -20 198
v 0 -22 200
v 0 -16 197
v 0 -20 195
v 0 -18 193
v -4 -14 201
v -4 -18 195

f 1 2 3
f 1 3 4
f 1 4 5
f 1 5 6
f 1 6 7
f 1 7 8
f 1 8 2
f 2 8 9
f 2 9 10
f 2 10 11
f 2 11 12
f 2 12 3
f 3 12 13
f 3 13 14
f 3 14 15
f 3 15 4
f 4 15 16
f 4 16 17
f 4 17 18
f 4 18 5
f 5 18 19
f 5 19 20
f 5 20 6
f 6 20 21
f 6 21 22
f 6 22 23
f 6 23 7
f 7 23 8
f 8 23 24
f 8 24 25
f 8 25 26
f 8 26 9
f 9 26 27
f 9 27 28
f 9 28 29
f 9 29 30
f 9 30 31
f 9 31 10
f 10 31 11
f 11 31 32
f 11 32 12
f 12 32 13
f 13 32 14
f 14 32 33
f 14 33 34
f 14 34 15
f 15 34 16
f 16 34 17
f 17 34 35
f 17 35 36
f 17 36 18
f 18 36 37
f 18 37 19
f 19 37 38
f 19 38 39
f 19 39 20
f 20 39 40
f 20 40 24
f 20 24 21
f 21 24 22
f 22 24 23
f 32 31 41
f 32 41 42
f 32 42 33
f 33 42 43
f 33 43 44
f 33 44 34
f 34 44 45
f 34 45 35
f 35 45 46
f 35 46 36
f 36 46 47
f 36 47 37
f 37 47 48
f 37 48 38
f 38 48 49
f 38 49 50
f 38 50 51
f 38 51 39
f 39 51 40
f 40 51 25
f 40 25 24
f 52 53 28
f 52 28 54
f 52 54 55
f 52 55 56
f 56 55 57
f 56 57 58
f 58 57 59
f 58 59 60
f 60 59 61
f 61 59 29
f 61 29 53
f 53 29 28
f 30 29 59
f 30 59 62
f 30 62 63
f 30 63 31
f 31 63 41
f 41 63 62
f 41 62 64
f 41 64 65
f 41 65 43
f 41 43 42
f 66 26 25
f 66 25 67
f 66 67 68
f 66 68 26
f 26 68 27
f 27 68 69
f 27 69 70
f 27 70 28
f 28 70 54
f 54 70 71
f 54 71 72
f 54 72 55
f 55 72 73
f 55 73 74
f 55 74 57
f 57 74 75
f 57 75 59
f 59 75 62
f 62 75 64
f 64 75 65
f 65 75 74
f 65 74 76
f 65 76 77
f 65 77 43
f 43 77 78
f 43 78 79
f 43 79 44
f 44 79 46
f 44 46 45
f 47 46 80
f 47 80 81
f 47 81 82
f 47 82 83
f 47 83 48
f 48 83 82
f 48 82 84
f 48 84 49
f 49 84 50
f 50 84 81
f 50 81 85
f 50 85 51
f 51 85 25
f 25 85 67
f 67 85 86
f 67 86 87
f 67 87 88
f 67 88 68
f 68 88 89
f 68 89 69
f 69 89 90
f 69 90 91
f 69 91 71
f 69 71 70
f 77 74 80
f 77 80 78
f 78 80 46
f 78 46 79
f 86 85 92
f 86 92 87
f 87 92 73
f 87 73 93
f 87 93 89
f 87 89 88
f 85 81 92
f 92 81 74
f 92 74 73
f 81 80 74
f 73 72 93
f 93 72 71
f 93 71 91
f 93 91 90
f 93 90 89
f 81 84 82
f 76 74 77
