# RS2 Model 21025
# Vertices: 90
# Faces: 159

v 7 -19 76
v -7 -20 64
v 7 -20 64
v 25 -18 63
v 23 -17 75
v 6 -21 110
v 0 -22 108
v -7 -19 76
v -25 -18 63
v -6 -23 44
v 6 -23 44
v 27 -19 44
v 44 -1 44
v 38 -1 63
v 34 -1 75
v 19 -17 117
v 12 -21 115
v 0 -22 109
v -12 -21 115
v -6 -21 110
v -23 -17 75
v -38 -1 63
v -44 -1 44
v -27 -19 44
v -16 -21 39
v -4 20 63
v 4 19 75
v 4 20 63
v -3 22 44
v -23 16 63
v -21 16 75
v -4 19 75
v 0 14 117
v 16 10 117
v 21 16 75
v 23 16 63
v 3 22 44
v -18 -1 42
v -24 17 44
v -34 -1 75
v -26 -5 117
v -16 10 117
v -12 10 126
v 0 13 126
v 12 10 126
v 22 -4 126
v 26 -5 117
v 24 17 44
v 12 20 38
v 15 -16 128
v 16 -4 135
v 11 -2 139
v 7 -17 137
v 0 -20 137
v 10 -21 118
v 17 -16 125
v 18 -16 124
v 0 5 138
v 0 -22 113
v -10 -21 118
v -17 -16 125
v -18 -16 124
v -19 -17 117
v -16 -4 135
v -13 -2 139
v -15 -16 128
v -7 -17 137
v 33 8 40
v 16 -21 39
v 35 -11 39
v 27 -6 42
v 18 -1 42
v 24 1 23
v 28 -3 23
v 32 1 23
v 34 -1 42
v 27 11 43
v 28 5 23
v -22 -4 126
v -33 8 40
v 0 -23 40
v -12 20 38
v -35 -11 39
v -27 -6 42
v -24 1 23
v -34 -1 42
v -32 1 23
v -28 -3 23
v -27 11 43
v -28 5 23

f 1 2 3
f 1 3 4
f 1 4 5
f 1 5 6
f 1 6 7
f 1 7 8
f 1 8 2
f 2 8 9
f 2 9 10
f 2 10 3
f 3 10 11
f 3 11 4
f 4 11 12
f 4 12 13
f 4 13 14
f 4 14 5
f 5 14 15
f 5 15 16
f 5 16 6
f 6 16 17
f 6 17 7
f 7 17 18
f 7 18 19
f 7 19 20
f 7 20 8
f 8 20 21
f 8 21 9
f 9 21 22
f 9 22 23
f 9 23 24
f 9 24 10
f 10 24 25
f 26 27 28
f 26 28 29
f 26 29 30
f 26 30 31
f 26 31 32
f 26 32 27
f 27 32 33
f 27 33 34
f 27 34 35
f 27 35 28
f 28 35 36
f 28 36 37
f 28 37 29
f 29 37 11
f 29 11 10
f 29 10 38
f 29 38 39
f 29 39 30
f 30 39 22
f 30 22 40
f 30 40 31
f 31 40 41
f 31 41 42
f 31 42 32
f 32 42 33
f 33 42 43
f 33 43 44
f 33 44 45
f 33 45 34
f 34 45 46
f 34 46 47
f 34 47 35
f 35 47 15
f 35 15 36
f 36 15 14
f 36 14 48
f 36 48 37
f 37 48 49
f 50 51 52
f 50 52 53
f 50 53 54
f 50 54 55
f 50 55 56
f 50 56 51
f 51 56 57
f 51 57 46
f 51 46 45
f 51 45 58
f 51 58 52
f 54 59 55
f 55 59 17
f 55 17 56
f 56 17 57
f 57 17 16
f 57 16 47
f 57 47 46
f 59 18 17
f 18 59 19
f 19 59 60
f 19 60 61
f 19 61 62
f 19 62 63
f 19 63 20
f 20 63 21
f 21 63 40
f 21 40 22
f 45 44 58
f 58 44 43
f 58 43 64
f 58 64 65
f 65 64 66
f 65 66 67
f 67 66 54
f 54 66 60
f 54 60 59
f 16 15 47
f 14 13 48
f 48 13 68
f 11 69 12
f 12 70 13
f 71 72 73
f 71 73 74
f 71 74 75
f 71 75 76
f 71 76 12
f 71 12 11
f 71 11 72
f 72 11 37
f 72 37 48
f 72 48 77
f 72 77 73
f 73 77 78
f 78 77 75
f 75 77 76
f 76 77 13
f 76 13 12
f 77 48 13
f 66 64 61
f 66 61 60
f 61 64 62
f 62 64 79
f 62 79 41
f 62 41 63
f 63 41 40
f 64 43 79
f 79 43 42
f 79 42 41
f 22 39 23
f 23 39 80
f 11 10 81
f 39 29 82
f 24 23 83
f 84 85 38
f 84 38 24
f 84 24 23
f 84 23 86
f 84 86 87
f 84 87 88
f 84 88 85
f 89 87 86
f 89 86 23
f 89 23 39
f 89 39 38
f 89 38 85
f 89 85 90
f 89 90 87
f 38 10 24
