# RS2 Model 21022
# Vertices: 85
# Faces: 146

v 13 13 77
v 29 -4 83
v 20 12 70
v 20 5 73
v 15 -5 73
v 9 -5 86
v 23 -12 67
v 28 -5 73
v -8 8 133
v -13 -2 139
v 0 5 138
v 0 10 132
v 0 11 125
v -10 8 126
v -20 -3 128
v -7 -17 137
v -15 -17 123
v 0 -24 120
v 0 -20 137
v 11 -16 128
v 7 -17 137
v 14 -1 134
v 11 -2 139
v 8 7 133
v 9 11 126
v 10 10 105
v -1 13 105
v -2 13 103
v -21 10 108
v -22 -2 119
v -19 -18 117
v -10 -21 113
v -5 -26 103
v 5 -23 102
v 15 -17 119
v 19 2 123
v 27 -1 103
v -1 14 81
v -4 14 85
v -21 8 89
v -28 -1 111
v -25 -19 108
v -7 -26 94
v -1 -25 93
v 2 -24 84
v 14 -22 84
v 16 -21 102
v 27 -6 42
v 18 -1 42
v 24 1 23
v 28 -3 23
v 32 1 23
v 34 -1 42
v 25 -7 57
v 17 -3 60
v 23 3 64
v 27 11 43
v 28 5 23
v 29 -3 60
v 14 -3 66
v 30 -3 66
v -27 -6 42
v -24 1 23
v -18 -1 42
v -25 -7 57
v -34 -1 42
v -32 1 23
v -28 -3 23
v -27 11 43
v -23 3 64
v -28 5 23
v -23 -12 66
v -15 -5 73
v -21 -10 75
v -27 -14 89
v -30 -3 66
v -29 -3 60
v -17 -3 60
v -14 -3 66
v -14 -5 88
v -33 1 91
v -9 -26 85
v 22 -16 70
v 0 -26 76
v -18 -21 81

f 1 2 3
f 1 3 4
f 1 4 5
f 1 5 6
f 6 5 2
f 2 5 7
f 2 7 8
f 2 8 4
f 2 4 3
f 9 10 11
f 9 11 12
f 9 12 13
f 9 13 14
f 9 14 10
f 10 14 15
f 10 15 16
f 16 15 17
f 16 17 18
f 16 18 19
f 19 18 20
f 19 20 21
f 21 20 22
f 21 22 23
f 23 22 24
f 23 24 11
f 11 24 12
f 12 24 25
f 12 25 13
f 13 25 26
f 13 26 27
f 13 27 28
f 13 28 14
f 14 28 29
f 14 29 15
f 15 29 30
f 15 30 17
f 17 30 31
f 17 31 32
f 17 32 18
f 18 32 33
f 18 33 34
f 18 34 35
f 18 35 20
f 20 35 22
f 22 35 36
f 22 36 24
f 24 36 25
f 25 36 37
f 25 37 26
f 26 37 2
f 26 2 1
f 26 1 27
f 27 1 38
f 27 38 39
f 27 39 28
f 28 39 29
f 29 39 40
f 29 40 41
f 29 41 30
f 30 41 31
f 31 41 42
f 31 42 32
f 32 42 33
f 33 42 43
f 33 43 44
f 33 44 34
f 34 44 45
f 34 45 46
f 34 46 47
f 34 47 35
f 35 47 37
f 35 37 36
f 48 49 50
f 48 50 51
f 48 51 52
f 48 52 53
f 48 53 54
f 48 54 49
f 49 54 55
f 49 55 56
f 49 56 57
f 49 57 50
f 50 57 58
f 58 57 52
f 52 57 53
f 53 57 56
f 53 56 59
f 53 59 54
f 54 59 7
f 54 7 55
f 55 7 60
f 55 60 56
f 56 60 4
f 56 4 61
f 56 61 59
f 59 61 7
f 7 61 8
f 8 61 4
f 7 5 60
f 60 5 4
f 62 63 64
f 62 64 65
f 62 65 66
f 62 66 67
f 62 67 68
f 62 68 63
f 69 67 66
f 69 66 70
f 69 70 64
f 69 64 63
f 69 63 71
f 69 71 67
f 72 73 74
f 72 74 75
f 72 75 76
f 72 76 77
f 72 77 65
f 72 65 78
f 72 78 79
f 72 79 73
f 73 79 40
f 73 40 80
f 73 80 74
f 74 80 75
f 81 40 70
f 81 70 76
f 81 76 75
f 81 75 41
f 81 41 40
f 79 70 40
f 70 79 78
f 70 78 64
f 64 78 65
f 70 77 76
f 77 70 66
f 77 66 65
f 41 75 42
f 42 75 82
f 42 82 43
f 43 82 45
f 43 45 44
f 2 37 47
f 2 47 46
f 2 46 83
f 45 82 84
f 82 75 85
