# RS2 Model 2102
# Vertices: 139
# Faces: 149

v -62 24 174
v -62 24 216
v -62 2 216
v -62 2 174
v -62 24 170
v -60 24 216
v -62 -2 216
v -62 -2 174
v -62 2 170
v -62 24 128
v -60 24 128
v -60 32 224
v -60 -24 216
v -62 -24 216
v -62 -24 174
v -62 -2 170
v -62 -2 128
v -62 2 128
v -60 0 128
v -56 32 128
v -60 32 128
v -64 32 128
v -64 32 224
v -64 -32 224
v -60 -32 224
v -60 -32 128
v -60 -24 128
v -62 -24 128
v -62 -24 170
v -64 -32 128
v -64 -32 112
v -56 -32 112
v -56 -32 128
v -56 32 112
v -64 32 112
v -58 -59 184
v -58 -59 176
v -58 -29 176
v -58 -29 184
v -58 -59 194
v -58 -59 186
v -58 -29 186
v -58 -29 194
v -58 -59 204
v -58 -59 196
v -58 -29 196
v -58 -29 204
v -58 -59 214
v -58 -59 206
v -58 -29 206
v -58 -29 214
v -58 -59 144
v -58 -59 136
v -58 -29 136
v -58 -29 144
v -58 -59 154
v -58 -59 146
v -58 -29 146
v -58 -29 154
v -58 -59 164
v -58 -59 156
v -58 -29 156
v -58 -29 164
v -58 -59 174
v -58 -59 166
v -58 -29 166
v -58 -29 174
v -56 -64 128
v -56 -24 128
v -56 -29 136
v -56 -59 136
v -56 -59 216
v -56 -64 224
v -60 -64 224
v -60 -64 128
v -56 -24 224
v -56 -29 216
v -58 -29 170
v -58 -59 170
v -60 -24 224
v -58 -45 216
v -58 -42 216
v -58 -29 216
v -58 -59 216
v -58 29 184
v -58 29 176
v -58 59 176
v -58 59 184
v -58 29 194
v -58 29 186
v -58 59 186
v -58 59 194
v -58 29 204
v -58 29 196
v -58 59 196
v -58 59 204
v -58 29 214
v -58 29 206
v -58 59 206
v -58 59 214
v -58 29 144
v -58 29 136
v -58 59 136
v -58 59 144
v -58 29 154
v -58 29 146
v -58 59 146
v -58 59 154
v -58 29 164
v -58 29 156
v -58 59 156
v -58 59 164
v -58 29 174
v -58 29 166
v -58 59 166
v -58 59 174
v -56 24 128
v -56 64 128
v -56 59 136
v -56 29 136
v -56 29 216
v -56 24 224
v -60 24 224
v -60 64 128
v -56 64 224
v -56 59 216
v -58 59 170
v -58 29 170
v -60 64 224
v -58 42 216
v -58 45 216
v -58 59 216
v -58 29 216
v -48 63 224
v -80 63 224
v -48 -63 224
v -62 23 215
v -62 -23 215
v -62 23 127

f 1 2 3
f 1 3 4
f 1 4 5
f 1 5 6
f 1 6 2
f 2 6 3
f 3 6 7
f 3 7 8
f 3 8 4
f 4 8 9
f 4 9 5
f 5 9 10
f 5 10 11
f 5 11 6
f 6 11 12
f 6 12 13
f 6 13 7
f 7 13 14
f 7 14 8
f 8 14 15
f 8 15 16
f 8 16 9
f 9 16 17
f 9 17 18
f 9 18 10
f 10 18 11
f 11 18 19
f 11 19 20
f 11 20 21
f 11 21 12
f 12 21 22
f 12 22 23
f 12 23 24
f 12 24 25
f 12 25 13
f 13 25 26
f 13 26 27
f 13 27 28
f 13 28 29
f 13 29 15
f 13 15 14
f 17 16 29
f 17 29 28
f 17 28 27
f 17 27 19
f 17 19 18
f 15 29 16
f 26 25 24
f 26 24 30
f 26 30 31
f 26 31 32
f 26 32 33
f 26 33 27
f 27 33 19
f 19 33 20
f 20 33 32
f 20 32 34
f 20 34 21
f 21 34 22
f 22 34 35
f 36 37 38
f 36 38 39
f 40 41 42
f 40 42 43
f 44 45 46
f 44 46 47
f 48 49 50
f 48 50 51
f 52 53 54
f 52 54 55
f 56 57 58
f 56 58 59
f 60 61 62
f 60 62 63
f 64 65 66
f 64 66 67
f 68 69 70
f 68 70 71
f 68 71 72
f 68 72 73
f 68 73 74
f 68 74 75
f 68 75 27
f 68 27 69
f 69 27 76
f 69 76 70
f 70 76 77
f 70 77 78
f 70 78 54
f 53 79 72
f 53 72 71
f 27 80 76
f 76 80 74
f 76 74 73
f 76 73 72
f 76 72 77
f 77 72 81
f 77 81 82
f 77 82 83
f 77 83 67
f 77 67 78
f 81 72 84
f 84 72 64
f 64 72 79
f 85 86 87
f 85 87 88
f 89 90 91
f 89 91 92
f 93 94 95
f 93 95 96
f 97 98 99
f 97 99 100
f 101 102 103
f 101 103 104
f 105 106 107
f 105 107 108
f 109 110 111
f 109 111 112
f 113 114 115
f 113 115 116
f 117 118 119
f 117 119 120
f 117 120 121
f 117 121 122
f 117 122 123
f 117 123 11
f 117 11 124
f 117 124 118
f 118 124 125
f 118 125 119
f 119 125 126
f 119 126 127
f 119 127 103
f 102 128 121
f 102 121 120
f 124 129 125
f 125 129 123
f 125 123 122
f 125 122 121
f 125 121 126
f 126 121 130
f 126 130 131
f 126 131 132
f 126 132 116
f 126 116 127
f 130 121 133
f 133 121 113
f 113 121 128
f 134 135 136
