# RS2 Model 21090
# Vertices: 51
# Faces: 87

v -58 9 136
v -66 0 138
v -57 0 148
v -50 7 145
v -48 0 130
v -55 0 130
v -59 5 133
v -62 0 134
v -58 -8 136
v -50 -6 145
v -42 0 144
v -59 -5 133
v -52 -6 127
v -59 0 121
v -61 6 127
v -64 9 129
v -67 0 133
v -63 -10 130
v -59 -11 127
v -57 -9 121
v -59 -10 121
v -68 -8 121
v -56 0 118
v -67 9 122
v -68 0 115
v -72 0 124
v 63 -10 130
v 68 -8 120
v 72 0 124
v 67 0 133
v 62 0 134
v 59 -5 133
v 59 -11 127
v 58 -8 121
v 59 0 122
v 56 0 118
v 68 0 115
v 68 8 120
v 63 10 130
v 59 5 133
v 58 9 136
v 66 0 138
v 58 -8 136
v 53 0 131
v 52 -6 127
v 56 -10 122
v 57 0 148
v 50 -6 145
v 46 0 132
v 50 7 145
v 42 0 144

f 1 2 3
f 1 3 4
f 1 4 5
f 1 5 6
f 1 6 7
f 1 7 2
f 2 7 8
f 2 8 9
f 2 9 3
f 3 9 10
f 10 9 5
f 10 5 11
f 11 5 4
f 9 8 12
f 9 12 5
f 5 12 6
f 6 12 13
f 6 13 14
f 6 14 15
f 6 15 7
f 7 15 16
f 7 16 8
f 8 16 17
f 8 17 18
f 8 18 12
f 12 18 19
f 12 19 13
f 13 19 20
f 13 20 14
f 14 20 21
f 14 21 22
f 14 22 23
f 14 23 24
f 24 23 25
f 24 25 26
f 24 26 16
f 16 26 17
f 17 26 18
f 18 26 22
f 22 26 25
f 22 25 23
f 27 28 29
f 27 29 30
f 27 30 31
f 27 31 32
f 27 32 33
f 27 33 34
f 27 34 35
f 27 35 28
f 28 35 36
f 28 36 37
f 28 37 29
f 29 37 38
f 29 38 39
f 29 39 30
f 30 39 31
f 31 39 40
f 31 40 41
f 31 41 42
f 31 42 32
f 32 42 43
f 32 43 44
f 32 44 45
f 32 45 33
f 33 45 46
f 33 46 34
f 34 46 45
f 34 45 35
f 35 45 44
f 35 44 38
f 35 38 36
f 36 38 37
f 41 47 42
f 42 47 43
f 43 47 48
f 43 48 49
f 43 49 44
f 44 49 40
f 44 40 39
f 44 39 38
f 41 50 47
f 50 41 49
f 50 49 51
f 51 49 48
f 49 41 40
f 20 19 21
f 21 19 18
