# RS2 Model 21106
# Vertices: 93
# Faces: 178

v 10 -14 212
v 11 -9 212
v 8 -10 219
v 7 -14 218
v 5 -17 215
v 4 -15 212
v 8 -14 211
v 8 -15 208
v 9 -8 204
v 11 -4 212
v 8 -3 220
v 0 -3 223
v 0 -13 222
v 0 -18 217
v 0 -19 215
v 0 -20 212
v 1 -18 211
v 2 -17 209
v 3 -15 208
v 7 -15 208
v 2 -17 208
v 3 -19 205
v 8 -14 204
v 7 -12 199
v 6 -6 193
v 6 -3 203
v 8 1 209
v 5 1 218
v 0 4 218
v -5 1 218
v -8 -3 220
v -8 -10 219
v -7 -14 218
v -5 -17 215
v -1 -18 211
v 0 -19 210
v 1 -18 209
v 0 1 201
v 0 5 209
v 0 2 195
v -6 -3 203
v -8 1 209
v 5 0 195
v 7 3 196
v 0 5 196
v -5 0 195
v -6 -6 193
v -9 -8 204
v -11 -4 212
v -11 -9 212
v -10 -14 212
v -4 -15 212
v -2 -17 209
v -2 -17 208
v -1 -18 209
v 0 -20 208
v 0 -22 205
v 0 -20 204
v 2 -19 204
v -3 -19 205
v -2 -19 204
v -3 -20 201
v 0 -22 203
v 3 -20 201
v -8 -15 208
v -7 -15 208
v -8 -14 211
v -3 -15 208
v -8 -14 204
v -7 -12 199
v -4 -18 198
v -2 -14 199
v -2 -18 201
v 0 -19 203
v 2 -18 201
v 2 -14 199
v 4 -18 198
v -5 -13 193
v 0 -17 192
v 0 -18 195
v 0 -20 196
v 0 -14 199
v 5 -13 193
v 0 -13 191
v 0 -10 190
v 9 -5 193
v 9 -6 190
v 5 5 189
v 0 8 189
v -5 5 189
v -7 3 196
v -9 -5 193
v -9 -6 190

f 1 2 3
f 1 3 4
f 1 4 5
f 1 5 6
f 1 6 7
f 1 7 8
f 1 8 2
f 2 8 9
f 2 9 10
f 2 10 3
f 3 10 11
f 3 11 12
f 3 12 13
f 3 13 4
f 4 13 14
f 4 14 15
f 4 15 5
f 5 15 16
f 5 16 17
f 5 17 6
f 6 17 18
f 6 18 19
f 6 19 20
f 6 20 7
f 7 20 8
f 8 20 21
f 8 21 22
f 8 22 23
f 8 23 9
f 9 23 24
f 9 24 25
f 9 25 26
f 9 26 27
f 9 27 10
f 10 27 28
f 10 28 11
f 11 28 12
f 12 28 29
f 12 29 30
f 12 30 31
f 12 31 32
f 12 32 13
f 13 32 33
f 13 33 14
f 14 33 15
f 15 33 34
f 15 34 16
f 16 34 35
f 16 35 36
f 16 36 17
f 17 36 37
f 17 37 21
f 17 21 18
f 18 21 19
f 19 21 20
f 38 39 27
f 38 27 26
f 38 26 40
f 38 40 41
f 38 41 42
f 38 42 39
f 39 42 30
f 39 30 29
f 39 29 28
f 39 28 27
f 26 25 43
f 26 43 40
f 40 43 44
f 40 44 45
f 40 45 46
f 40 46 41
f 41 46 47
f 41 47 48
f 41 48 42
f 42 48 49
f 42 49 30
f 30 49 31
f 31 49 32
f 32 49 50
f 32 50 51
f 32 51 33
f 33 51 34
f 34 51 52
f 34 52 35
f 35 52 53
f 35 53 54
f 35 54 55
f 35 55 36
f 36 55 56
f 36 56 37
f 37 56 22
f 37 22 21
f 57 58 59
f 57 59 22
f 57 22 56
f 57 56 60
f 57 60 61
f 57 61 58
f 58 61 62
f 58 62 63
f 58 63 64
f 58 64 59
f 59 64 23
f 59 23 22
f 49 48 50
f 50 48 65
f 50 65 51
f 51 65 66
f 51 66 67
f 51 67 52
f 52 67 66
f 52 66 68
f 52 68 53
f 53 68 54
f 54 68 65
f 54 65 60
f 54 60 55
f 55 60 56
f 61 60 69
f 61 69 62
f 62 69 70
f 62 70 71
f 62 71 72
f 62 72 73
f 62 73 74
f 62 74 63
f 63 74 64
f 64 74 75
f 64 75 76
f 64 76 77
f 64 77 24
f 64 24 23
f 60 65 69
f 69 65 48
f 69 48 70
f 70 48 47
f 70 47 78
f 70 78 71
f 71 78 79
f 71 79 80
f 71 80 81
f 71 81 82
f 71 82 72
f 72 82 73
f 73 82 74
f 74 82 75
f 75 82 76
f 76 82 77
f 77 82 81
f 77 81 80
f 77 80 79
f 77 79 83
f 77 83 24
f 24 83 25
f 25 83 84
f 25 84 85
f 25 85 86
f 25 86 43
f 43 86 44
f 44 86 87
f 44 87 88
f 44 88 45
f 45 88 89
f 45 89 90
f 45 90 91
f 45 91 46
f 46 91 47
f 47 91 92
f 47 92 85
f 47 85 84
f 47 84 78
f 78 84 79
f 79 84 83
f 65 68 66
f 85 87 86
f 85 92 93
f 93 92 91
f 93 91 90
