# RS2 Model 21111
# Vertices: 95
# Faces: 183

v -3 -19 205
v -8 -15 208
v -8 -14 204
v -2 -19 204
v 0 -22 205
v 0 -20 208
v -1 -18 209
v -2 -17 208
v -4 -17 208
v -7 -15 208
v -8 -14 211
v -10 -14 211
v -11 -9 212
v -10 -7 207
v -8 -12 199
v -3 -20 201
v 0 -20 204
v 2 -19 204
v 3 -19 205
v 1 -18 209
v 0 -19 210
v -1 -18 211
v -3 -15 208
v -6 -15 212
v -4 -15 212
v 10 -14 212
v 11 -9 212
v 8 -10 219
v 7 -14 218
v 5 -17 215
v 4 -15 213
v 8 -14 212
v 8 -15 208
v 10 -7 207
v 11 -4 212
v 11 -2 212
v 8 -8 219
v 3 -7 223
v 0 -11 222
v 0 -18 217
v 0 -19 215
v 0 -20 212
v 1 -18 211
v 2 -17 209
v 3 -15 208
v 7 -15 208
v 2 -17 208
v 8 -14 204
v 8 -12 199
v 7 -6 196
v 5 0 197
v 0 1 201
v 8 1 209
v 18 6 210
v 0 5 209
v 5 3 214
v 8 -1 217
v 0 -10 190
v 9 -6 190
v 0 -11 192
v -7 -6 196
v -9 -6 190
v -5 0 197
v -5 5 189
v 0 2 197
v 0 8 189
v 5 5 189
v -8 1 209
v -5 3 214
v -3 1 217
v 3 1 217
v 0 -3 223
v 12 11 220
v 3 -20 201
v 4 -20 200
v 5 -14 194
v 0 -17 192
v -5 -14 194
v 0 -22 200
v 0 -21 199
v 0 -22 203
v 0 -16 200
v -4 -20 200
v -3 -7 223
v -8 -10 219
v -7 -14 218
v -4 -17 214
v 0 13 223
v -12 11 220
v -8 -1 217
v -8 -8 219
v -11 -2 212
v -11 -4 212
v -6 -17 214
v -18 6 210

f 1 2 3
f 1 3 4
f 1 4 5
f 1 5 6
f 1 6 7
f 1 7 8
f 1 8 9
f 1 9 2
f 2 9 10
f 2 10 11
f 2 11 12
f 2 12 13
f 2 13 14
f 2 14 3
f 3 14 15
f 3 15 16
f 3 16 4
f 4 16 17
f 4 17 5
f 5 17 18
f 5 18 19
f 5 19 6
f 6 19 20
f 6 20 21
f 6 21 7
f 7 21 22
f 7 22 8
f 8 22 23
f 8 23 10
f 8 10 9
f 24 11 10
f 24 10 23
f 24 23 25
f 24 25 23
f 26 27 28
f 26 28 29
f 26 29 30
f 26 30 31
f 26 31 32
f 26 32 33
f 26 33 27
f 27 33 34
f 27 34 35
f 27 35 28
f 28 35 36
f 28 36 37
f 28 37 38
f 28 38 39
f 28 39 29
f 29 39 40
f 29 40 41
f 29 41 30
f 30 41 42
f 30 42 43
f 30 43 31
f 31 43 44
f 31 44 45
f 31 45 46
f 31 46 32
f 32 46 33
f 33 46 47
f 33 47 19
f 33 19 48
f 33 48 34
f 34 48 49
f 34 49 50
f 34 50 51
f 34 51 52
f 34 52 53
f 34 53 54
f 34 54 36
f 34 36 35
f 52 55 53
f 53 55 56
f 53 56 57
f 53 57 54
f 54 57 37
f 54 37 36
f 58 59 50
f 58 50 60
f 58 60 61
f 58 61 62
f 62 61 63
f 62 63 64
f 64 63 65
f 64 65 66
f 66 65 67
f 67 65 51
f 67 51 59
f 59 51 50
f 51 65 52
f 52 65 63
f 52 63 14
f 52 14 68
f 52 68 55
f 55 68 69
f 55 69 70
f 55 70 71
f 55 71 56
f 56 71 72
f 56 72 73
f 56 73 57
f 57 73 38
f 57 38 37
f 47 44 43
f 47 43 20
f 47 20 19
f 18 48 19
f 48 18 74
f 48 74 49
f 49 74 75
f 49 75 76
f 49 76 50
f 50 76 60
f 60 76 77
f 60 77 78
f 60 78 61
f 61 78 15
f 61 15 14
f 61 14 63
f 42 21 43
f 43 21 20
f 75 79 80
f 75 80 77
f 75 77 76
f 17 81 74
f 17 74 18
f 82 75 74
f 82 74 81
f 82 81 16
f 82 16 83
f 82 83 79
f 82 79 75
f 46 45 47
f 47 45 44
f 73 72 38
f 38 72 84
f 38 84 39
f 39 84 85
f 39 85 86
f 39 86 40
f 40 86 41
f 41 86 87
f 41 87 42
f 42 87 22
f 42 22 21
f 71 70 88
f 71 88 72
f 72 88 70
f 72 70 69
f 72 69 89
f 72 89 84
f 84 89 90
f 84 90 91
f 84 91 85
f 85 91 92
f 85 92 93
f 85 93 13
f 85 13 12
f 85 12 86
f 86 12 94
f 86 94 87
f 87 94 25
f 87 25 22
f 22 25 23
f 93 14 13
f 14 93 92
f 14 92 95
f 14 95 68
f 68 95 90
f 68 90 69
f 69 90 89
f 16 15 83
f 83 15 78
f 83 78 77
f 83 77 80
f 83 80 79
f 17 16 81
f 91 90 95
f 91 95 92
f 24 12 11
f 12 24 94
f 94 24 25
