# RS2 Model 21121
# Vertices: 90
# Faces: 168

v 28 -8 28
v 16 -1 29
v 24 1 23
v 28 -3 23
v 33 1 23
v 40 -1 29
v 26 -7 57
v 16 -3 60
v 24 6 64
v 28 13 29
v 28 5 23
v 33 -3 61
v 24 -12 66
v 13 -3 66
v 22 7 76
v 34 -3 66
v 32 -5 74
v 22 -10 75
v 14 -5 73
v 6 -5 96
v 20 8 96
v -27 -8 30
v -24 1 23
v -14 0 30
v -25 -7 57
v -40 0 30
v -33 1 23
v -28 -3 23
v -27 13 29
v -23 6 64
v -28 5 23
v 0 -15 108
v 5 -5 104
v 12 -17 110
v 0 -22 109
v -12 -17 110
v -5 -5 104
v 0 -5 103
v 0 14 109
v 14 9 109
v 20 -12 97
v 30 -5 96
v 27 -5 110
v 23 -14 111
v 12 -19 110
v 9 -20 125
v 0 -22 125
v -1 -21 125
v -9 -19 125
v -12 -19 110
v -23 -14 111
v -27 -5 110
v -29 -5 96
v -19 -12 97
v -6 -5 96
v -19 8 96
v -16 9 109
v -19 11 109
v -15 10 124
v 0 13 124
v 14 10 124
v 18 11 109
v 28 -5 111
v 22 -5 125
v 19 -13 125
v 9 -19 125
v 8 -15 130
v 0 -17 130
v -8 -15 130
v -19 -13 125
v -31 -5 74
v -21 -10 75
v -14 -5 73
v -21 7 76
v -33 -3 66
v -23 -12 66
v -13 -3 66
v -32 -3 61
v -16 -3 60
v 7 -15 137
v 0 -18 137
v -7 -15 137
v -14 -1 132
v -22 -5 125
v -28 -5 111
v 0 6 131
v 13 -1 132
v 10 -2 139
v 0 5 138
v -12 -2 139

f 1 2 3
f 1 3 4
f 1 4 5
f 1 5 6
f 1 6 7
f 1 7 2
f 2 7 8
f 2 8 9
f 2 9 10
f 2 10 3
f 3 10 11
f 11 10 5
f 5 10 6
f 6 10 9
f 6 9 12
f 6 12 7
f 7 12 13
f 7 13 8
f 8 13 14
f 8 14 9
f 9 14 15
f 9 15 16
f 9 16 12
f 12 16 13
f 13 16 17
f 13 17 18
f 13 18 19
f 13 19 14
f 14 19 15
f 15 19 20
f 15 20 21
f 15 21 17
f 15 17 16
f 22 23 24
f 22 24 25
f 22 25 26
f 22 26 27
f 22 27 28
f 22 28 23
f 29 27 26
f 29 26 30
f 29 30 24
f 29 24 23
f 29 23 31
f 29 31 27
f 32 33 34
f 32 34 35
f 32 35 36
f 32 36 37
f 32 37 38
f 32 38 33
f 33 38 39
f 33 39 40
f 33 40 21
f 33 21 20
f 33 20 34
f 34 20 41
f 34 41 42
f 34 42 43
f 34 43 44
f 34 44 45
f 34 45 35
f 35 45 46
f 35 46 47
f 35 47 48
f 35 48 49
f 35 49 50
f 35 50 36
f 36 50 51
f 36 51 52
f 36 52 53
f 36 53 54
f 36 54 55
f 36 55 37
f 37 55 56
f 37 56 57
f 37 57 39
f 37 39 38
f 21 40 43
f 21 43 42
f 21 42 17
f 17 42 41
f 17 41 18
f 18 41 19
f 19 41 20
f 56 52 57
f 57 52 58
f 57 58 39
f 39 58 59
f 39 59 60
f 39 60 61
f 39 61 62
f 39 62 40
f 40 62 43
f 43 62 63
f 43 63 44
f 44 63 64
f 44 64 65
f 44 65 66
f 44 66 45
f 45 66 46
f 46 66 67
f 46 67 68
f 46 68 47
f 47 68 48
f 48 68 49
f 49 68 69
f 49 69 70
f 49 70 51
f 49 51 50
f 56 53 52
f 53 56 71
f 53 71 54
f 54 71 72
f 54 72 73
f 54 73 55
f 55 73 74
f 55 74 56
f 56 74 71
f 71 74 75
f 71 75 76
f 71 76 72
f 72 76 73
f 73 76 77
f 73 77 74
f 74 77 30
f 74 30 75
f 75 30 78
f 75 78 76
f 76 78 25
f 76 25 79
f 76 79 77
f 77 79 30
f 30 79 24
f 24 79 25
f 26 25 78
f 26 78 30
f 68 67 80
f 68 80 81
f 68 81 69
f 69 81 82
f 69 82 83
f 69 83 84
f 69 84 70
f 70 84 51
f 51 84 85
f 51 85 52
f 52 85 58
f 58 85 84
f 58 84 59
f 59 84 83
f 59 83 86
f 59 86 60
f 60 86 61
f 61 86 87
f 61 87 64
f 61 64 62
f 62 64 63
f 67 87 88
f 67 88 80
f 87 86 89
f 87 89 88
f 83 82 90
f 83 90 86
f 86 90 89
f 65 67 66
f 67 65 64
f 67 64 87
