# RS2 Model 21142
# Vertices: 383
# Faces: 765

v 50 3 188
v 67 3 175
v 75 -3 175
v 59 -6 191
v 45 3 203
v 59 14 191
v 75 12 175
v 62 3 173
v 75 -7 173
v 88 3 180
v 81 3 180
v 74 3 199
v 53 -3 209
v 36 -5 208
v 47 12 223
v 53 12 209
v 75 17 173
v 71 3 161
v 83 -4 163
v 93 3 167
v 65 3 217
v 47 -3 223
v 39 -6 226
v 33 -8 225
v 28 -9 208
v 34 -9 205
v 32 6 201
v 32 5 205
v 36 6 208
v 38 15 229
v 38 3 242
v 58 3 237
v 38 -3 237
v 38 -4 238
v 32 -5 238
v 32 -6 239
v 29 -9 225
v 28 -15 208
v 21 -24 205
v 17 -17 191
v 22 -2 191
v 11 10 204
v 8 38 178
v 29 34 173
v 29 36 175
v 14 8 206
v 20 10 213
v 27 8 210
v 36 8 210
v 38 17 231
v 38 3 245
v -105 5 121
v -103 -8 129
v -110 -9 103
v -118 0 104
v -118 5 124
v -118 12 104
v -109 21 103
v -103 18 130
v -97 1 131
v -97 -6 135
v -99 3 146
v -118 -9 104
v -109 -3 81
v -95 -3 145
v -91 -10 135
v -87 3 143
v -71 3 161
v -83 -4 163
v -88 -1 135
v -95 13 145
v -83 14 163
v -75 17 173
v -62 3 173
v -75 -7 173
v -88 3 180
v -93 3 167
v -118 21 104
v -109 13 81
v -88 -17 105
v -50 3 188
v -75 -3 175
v -67 3 175
v -75 12 175
v -59 14 191
v -45 3 203
v -59 -6 191
v -74 3 199
v -81 3 180
v -53 12 209
v -47 12 223
v -36 -5 208
v -53 -3 209
v -65 3 217
v -58 3 237
v -38 3 242
v -38 15 229
v -36 6 208
v -32 5 205
v -32 6 201
v -34 -9 205
v -28 -9 208
v -33 -8 225
v -39 -6 226
v -47 -3 223
v -38 -3 237
v -38 3 245
v -38 17 231
v -36 8 210
v -27 8 210
v -20 10 213
v -14 8 206
v -29 36 175
v -29 34 173
v -8 38 178
v -11 10 204
v -22 -2 191
v -17 -17 191
v -21 -24 205
v -28 -15 208
v -29 -9 225
v -32 -6 239
v -32 -5 238
v -38 -4 238
v -29 3 246
v -29 17 231
v 105 5 121
v 110 -9 103
v 103 -8 129
v 97 1 131
v 103 18 130
v 109 21 103
v 118 12 104
v 118 5 124
v 118 0 104
v 109 -3 81
v 118 -9 104
v 99 3 146
v 97 -6 135
v 88 -17 105
v 88 -1 135
v 95 13 145
v 118 21 104
v 109 13 81
v 95 -3 145
v 91 -10 135
v 87 3 143
v 83 14 163
v 0 -30 153
v 9 -27 161
v 0 -28 161
v -9 -27 161
v -5 -31 145
v 5 -31 145
v 0 -26 161
v 11 -33 130
v 6 -33 130
v 5 -33 113
v 11 -33 97
v -5 -33 113
v 0 -33 105
v 0 -33 121
v -6 -33 130
v -11 -33 130
v -11 -33 97
v 0 -32 137
v 0 17 226
v 20 16 233
v 0 9 207
v -20 16 233
v 0 10 239
v 21 6 241
v 22 19 234
v 29 18 233
v 27 9 212
v 29 17 231
v -21 6 241
v -15 -9 247
v -13 -9 253
v -14 -11 263
v 0 -1 269
v 14 -11 263
v 13 -9 253
v 15 -9 247
v 27 -7 240
v 22 3 250
v 29 3 248
v 29 3 246
v 13 -21 257
v 3 -21 251
v 13 -22 272
v 7 -28 266
v 8 -26 258
v 0 -29 254
v -3 -21 251
v 0 -24 245
v 18 -23 91
v 40 -14 20
v 35 -13 93
v 20 -22 146
v 0 -27 146
v 0 -18 144
v 18 -14 91
v 0 -24 91
v 11 -13 35
v 9 -6 35
v 15 -3 93
v 0 -2 35
v 0 2 93
v 0 16 146
v 15 -2 93
v 40 -3 20
v 46 -6 26
v 80 9 3
v 0 -23 184
v 22 -14 180
v 24 -2 180
v 11 5 182
v 0 6 191
v 0 10 204
v 9 39 180
v 6 80 163
v 5 79 161
v 32 75 157
v 32 77 159
v 0 -27 186
v -22 -14 180
v -28 -14 180
v 0 -27 182
v 28 -14 180
v 31 -2 180
v 15 9 181
v 0 13 184
v 0 9 185
v -11 5 182
v 31 3 163
v 13 10 163
v 22 -20 163
v 27 1 160
v 27 22 131
v 31 24 134
v 13 31 134
v 12 7 160
v 0 10 162
v 0 13 164
v 0 -20 35
v 0 -7 5
v -9 -6 35
v -15 -3 93
v -15 -2 93
v -35 -13 93
v -12 7 146
v -12 7 160
v 12 7 146
v 31 1 146
v 20 -17 160
v 12 28 131
v 12 65 122
v 27 61 122
v 31 63 125
v 13 67 125
v -22 -20 163
v -20 -17 160
v -20 -22 146
v -18 -23 91
v -18 -14 91
v -11 -13 35
v 19 -20 233
v 3 -35 223
v 2 -30 210
v 0 -26 205
v 0 -31 203
v -2 -30 210
v -3 -35 223
v -19 -20 233
v -27 -7 240
v -22 3 250
v -29 3 248
v 0 -30 239
v 0 -32 223
v 0 -28 210
v -22 19 234
v -29 18 233
v -27 9 212
v -13 -21 257
v -13 -22 272
v -16 -10 275
v 0 4 276
v 16 -10 275
v 14 -24 278
v 9 -26 274
v 7 -26 268
v 2 -28 270
v 0 -32 267
v -8 -26 258
v -7 -28 266
v -7 -26 268
v -9 -26 274
v -14 -24 278
v -16 -13 283
v -8 0 283
v 0 3 283
v 8 0 283
v 16 -13 283
v 11 -26 281
v 7 -29 280
v 0 -35 274
v -2 -28 270
v 7 -32 280
v 0 -35 282
v -7 -32 280
v -7 -29 280
v 18 -13 284
v 12 -28 282
v 12 -28 289
v 0 -35 289
v -12 -28 289
v -12 -28 282
v -11 -26 281
v 8 2 284
v 8 2 291
v 18 -13 291
v 15 -13 290
v 10 -25 288
v 0 -31 288
v -10 -25 288
v -15 -13 290
v -18 -13 291
v -18 -13 284
v 0 6 284
v 0 6 291
v 0 2 290
v 7 -1 290
v 5 -6 295
v 11 -13 294
v 7 -21 294
v 0 -26 293
v -7 -21 294
v -11 -13 294
v -5 -6 295
v -7 -1 290
v -8 2 291
v -8 2 284
v 0 -3 296
v 0 -14 298
v -40 -14 20
v -46 -6 26
v -80 9 3
v -40 -3 20
v -24 -2 180
v -15 9 181
v -31 -2 180
v -31 3 163
v -13 10 163
v -13 31 134
v -31 24 134
v -27 22 131
v -27 1 160
v -31 1 146
v -12 28 131
v -13 67 125
v -31 63 125
v -27 61 122
v -12 65 122
v 40 107 122
v 2 113 126
v 3 116 71
v 39 104 71
v -9 39 180
v -6 80 163
v -32 77 159
v -5 79 161
v -2 113 126
v -40 107 122
v -32 75 157
v -3 116 71
v -39 104 71
v 3 6 292
v -19 -8 292
v 19 -18 292
v -18 -34 154
v 21 -34 150
v -21 -30 107

f 1 2 3
f 1 3 4
f 1 4 5
f 1 5 6
f 1 6 7
f 1 7 2
f 2 7 8
f 2 8 9
f 2 9 3
f 3 9 10
f 3 10 11
f 3 11 12
f 3 12 4
f 4 12 13
f 4 13 5
f 5 13 14
f 5 14 15
f 5 15 16
f 5 16 6
f 6 16 12
f 6 12 7
f 7 12 11
f 7 11 17
f 7 17 8
f 8 17 18
f 8 18 9
f 9 18 19
f 9 19 10
f 10 19 20
f 10 20 17
f 10 17 11
f 13 12 21
f 13 21 22
f 13 22 14
f 14 22 23
f 14 23 24
f 14 24 25
f 14 25 26
f 14 26 27
f 14 27 28
f 14 28 29
f 14 29 15
f 15 29 30
f 15 30 31
f 15 31 32
f 15 32 21
f 15 21 16
f 16 21 12
f 23 22 32
f 23 32 33
f 23 33 34
f 23 34 24
f 24 34 35
f 24 35 36
f 24 36 37
f 24 37 25
f 25 37 38
f 25 38 26
f 26 38 39
f 26 39 40
f 26 40 41
f 26 41 27
f 27 41 42
f 27 42 43
f 27 43 44
f 27 44 28
f 28 44 45
f 28 45 46
f 28 46 47
f 28 47 48
f 28 48 49
f 28 49 29
f 29 49 30
f 30 49 50
f 30 50 31
f 31 50 51
f 31 51 33
f 31 33 32
f 22 21 32
f 52 53 54
f 52 54 55
f 52 55 56
f 52 56 57
f 52 57 58
f 52 58 59
f 52 59 60
f 52 60 53
f 53 60 61
f 53 61 62
f 53 62 56
f 53 56 63
f 53 63 54
f 54 63 64
f 54 64 55
f 55 64 63
f 55 63 56
f 65 61 66
f 65 66 67
f 65 67 68
f 65 68 69
f 65 69 62
f 65 62 61
f 66 70 67
f 67 70 71
f 67 71 72
f 67 72 68
f 68 72 73
f 68 73 74
f 68 74 75
f 68 75 69
f 69 75 76
f 69 76 77
f 69 77 62
f 62 77 72
f 62 72 71
f 62 71 59
f 62 59 56
f 56 59 78
f 56 78 57
f 57 78 79
f 57 79 58
f 58 79 78
f 58 78 59
f 59 71 60
f 60 71 70
f 60 70 80
f 60 80 61
f 61 80 66
f 66 80 70
f 81 82 83
f 81 83 84
f 81 84 85
f 81 85 86
f 81 86 87
f 81 87 82
f 82 87 88
f 82 88 89
f 82 89 76
f 82 76 75
f 82 75 83
f 83 75 74
f 83 74 84
f 84 74 73
f 84 73 89
f 84 89 88
f 84 88 85
f 85 88 90
f 85 90 86
f 86 90 91
f 86 91 92
f 86 92 93
f 86 93 87
f 87 93 88
f 88 93 94
f 88 94 90
f 90 94 91
f 91 94 95
f 91 95 96
f 91 96 97
f 91 97 98
f 91 98 92
f 92 98 99
f 92 99 100
f 92 100 101
f 92 101 102
f 92 102 103
f 92 103 104
f 92 104 105
f 92 105 93
f 93 105 94
f 94 105 95
f 95 105 104
f 95 104 106
f 95 106 96
f 96 106 107
f 96 107 108
f 96 108 97
f 97 108 109
f 97 109 98
f 98 109 99
f 99 109 110
f 99 110 111
f 99 111 112
f 99 112 113
f 99 113 114
f 99 114 100
f 100 114 115
f 100 115 116
f 100 116 117
f 100 117 101
f 101 117 118
f 101 118 119
f 101 119 120
f 101 120 102
f 102 120 121
f 102 121 103
f 103 121 122
f 103 122 123
f 103 123 124
f 103 124 104
f 104 124 106
f 106 124 107
f 107 124 123
f 107 123 125
f 107 125 126
f 107 126 108
f 108 126 110
f 108 110 109
f 89 73 76
f 76 73 77
f 77 73 72
f 127 128 129
f 127 129 130
f 127 130 131
f 127 131 132
f 127 132 133
f 127 133 134
f 127 134 135
f 127 135 128
f 128 135 136
f 128 136 137
f 128 137 129
f 129 137 134
f 129 134 138
f 129 138 139
f 129 139 130
f 130 139 140
f 130 140 141
f 130 141 142
f 130 142 131
f 131 142 138
f 131 138 134
f 131 134 143
f 131 143 132
f 132 143 144
f 132 144 133
f 133 144 143
f 133 143 134
f 145 146 139
f 145 139 138
f 145 138 19
f 145 19 18
f 145 18 147
f 145 147 146
f 146 147 141
f 146 141 140
f 146 140 139
f 141 147 142
f 142 147 148
f 142 148 138
f 138 148 20
f 138 20 19
f 17 148 18
f 18 148 147
f 20 148 17
f 135 134 137
f 135 137 136
f 149 150 151
f 149 151 152
f 149 152 153
f 149 153 154
f 149 154 150
f 149 150 154
f 149 154 153
f 149 153 152
f 149 152 151
f 149 151 150
f 150 151 155
f 150 155 151
f 151 155 152
f 151 152 155
f 156 150 154
f 156 154 157
f 156 157 158
f 156 158 159
f 156 159 158
f 156 158 157
f 156 157 154
f 156 154 150
f 160 161 158
f 160 158 162
f 160 162 163
f 160 163 164
f 160 164 165
f 160 165 161
f 160 161 165
f 160 165 164
f 160 164 163
f 160 163 162
f 160 162 158
f 160 158 161
f 161 158 159
f 161 159 158
f 159 161 165
f 159 165 161
f 153 166 154
f 153 154 166
f 153 166 163
f 153 163 166
f 166 163 157
f 166 157 154
f 166 154 157
f 166 157 163
f 163 157 162
f 163 162 157
f 157 162 158
f 157 158 162
f 153 152 164
f 153 164 163
f 153 163 164
f 153 164 152
f 167 168 46
f 167 46 169
f 167 169 112
f 167 112 170
f 167 170 171
f 167 171 168
f 168 171 172
f 168 172 173
f 168 173 46
f 46 173 47
f 47 173 174
f 47 174 175
f 47 175 48
f 48 175 176
f 48 176 50
f 48 50 49
f 171 170 177
f 171 177 178
f 171 178 179
f 171 179 180
f 171 180 181
f 171 181 182
f 171 182 183
f 171 183 184
f 171 184 172
f 172 184 185
f 172 185 186
f 172 186 173
f 173 186 187
f 173 187 174
f 174 187 188
f 174 188 176
f 174 176 175
f 189 190 182
f 189 182 191
f 189 191 192
f 189 192 193
f 189 193 190
f 190 193 194
f 190 194 195
f 190 195 196
f 190 196 184
f 190 184 183
f 190 183 182
f 197 198 199
f 197 199 200
f 197 200 201
f 197 201 202
f 197 202 203
f 203 202 204
f 203 204 205
f 203 205 206
f 203 206 207
f 207 206 208
f 207 208 209
f 207 209 210
f 207 210 211
f 211 210 199
f 211 199 212
f 212 199 213
f 212 213 214
f 214 213 198
f 198 213 199
f 40 215 216
f 40 216 41
f 41 216 217
f 41 217 218
f 41 218 219
f 41 219 42
f 42 219 220
f 42 220 46
f 42 46 221
f 42 221 43
f 43 221 222
f 43 222 223
f 43 223 44
f 44 223 224
f 44 224 45
f 45 224 225
f 45 225 221
f 45 221 46
f 40 226 215
f 215 226 118
f 215 118 227
f 215 227 228
f 215 228 229
f 215 229 230
f 215 230 216
f 216 230 231
f 216 231 217
f 217 231 232
f 217 232 218
f 218 232 233
f 218 233 234
f 218 234 219
f 219 234 235
f 219 235 117
f 219 117 116
f 219 116 220
f 220 116 112
f 220 112 169
f 220 169 46
f 236 237 232
f 236 232 231
f 236 231 230
f 236 230 238
f 236 238 239
f 236 239 240
f 236 240 241
f 236 241 237
f 237 241 242
f 237 242 243
f 237 243 244
f 237 244 245
f 237 245 233
f 237 233 232
f 204 246 205
f 205 246 247
f 205 247 206
f 206 247 208
f 208 247 248
f 208 248 249
f 208 249 209
f 209 249 210
f 210 249 250
f 210 250 251
f 210 251 252
f 210 252 253
f 210 253 244
f 210 244 243
f 210 243 254
f 210 254 199
f 199 254 255
f 199 255 200
f 200 255 256
f 200 256 150
f 200 150 201
f 239 255 254
f 239 254 243
f 239 243 257
f 239 257 240
f 240 257 258
f 240 258 259
f 240 259 241
f 241 259 260
f 241 260 242
f 242 260 261
f 242 261 257
f 242 257 243
f 256 255 239
f 256 239 238
f 256 238 150
f 150 238 155
f 155 238 229
f 155 229 262
f 155 262 152
f 152 262 263
f 152 263 264
f 152 264 201
f 201 264 265
f 201 265 202
f 202 265 266
f 202 266 204
f 204 266 267
f 204 267 246
f 246 267 247
f 247 267 248
f 248 267 266
f 248 266 249
f 33 51 34
f 34 51 35
f 35 51 188
f 35 188 36
f 36 188 187
f 36 187 186
f 36 186 185
f 36 185 37
f 37 185 268
f 37 268 38
f 38 268 269
f 38 269 270
f 38 270 271
f 38 271 39
f 39 271 272
f 39 272 40
f 40 272 226
f 226 272 118
f 118 272 119
f 119 272 271
f 119 271 120
f 120 271 273
f 120 273 274
f 120 274 275
f 120 275 121
f 121 275 276
f 121 276 122
f 122 276 277
f 122 277 278
f 122 278 125
f 122 125 123
f 269 268 279
f 269 279 280
f 269 280 281
f 269 281 270
f 270 281 271
f 271 281 273
f 273 281 274
f 274 281 280
f 274 280 279
f 274 279 275
f 275 279 276
f 276 279 178
f 276 178 177
f 276 177 277
f 277 177 282
f 277 282 278
f 278 282 283
f 278 283 125
f 125 283 126
f 126 283 284
f 126 284 110
f 110 284 111
f 111 284 283
f 111 283 282
f 111 282 112
f 112 282 170
f 170 282 177
f 185 279 268
f 279 185 184
f 279 184 196
f 279 196 178
f 178 196 195
f 178 195 179
f 179 195 180
f 180 195 285
f 180 285 286
f 180 286 287
f 180 287 288
f 180 288 181
f 181 288 182
f 182 288 289
f 182 289 191
f 191 289 290
f 191 290 291
f 191 291 292
f 191 292 192
f 192 292 293
f 192 293 294
f 192 294 193
f 193 294 194
f 194 294 295
f 194 295 195
f 195 295 285
f 285 295 296
f 285 296 286
f 286 296 297
f 286 297 298
f 286 298 299
f 286 299 287
f 287 299 300
f 287 300 301
f 287 301 288
f 288 301 302
f 288 302 303
f 288 303 289
f 289 303 304
f 289 304 290
f 290 304 305
f 290 305 306
f 290 306 291
f 291 306 293
f 291 293 292
f 238 230 229
f 51 176 188
f 176 51 50
f 293 307 294
f 294 307 308
f 294 308 296
f 294 296 295
f 306 307 293
f 307 306 309
f 307 309 310
f 307 310 311
f 307 311 312
f 307 312 308
f 308 312 298
f 308 298 297
f 308 297 296
f 305 304 313
f 305 313 314
f 305 314 306
f 306 314 309
f 309 314 310
f 310 314 315
f 310 315 316
f 310 316 317
f 310 317 318
f 310 318 311
f 311 318 312
f 312 318 319
f 312 319 299
f 312 299 298
f 304 303 320
f 304 320 313
f 313 320 321
f 313 321 322
f 313 322 314
f 314 322 315
f 315 322 323
f 315 323 324
f 315 324 316
f 316 324 325
f 316 325 326
f 316 326 317
f 317 326 327
f 317 327 328
f 317 328 318
f 318 328 329
f 318 329 319
f 319 329 300
f 319 300 299
f 303 302 330
f 303 330 320
f 320 330 331
f 320 331 321
f 321 331 332
f 321 332 333
f 321 333 322
f 322 333 323
f 323 333 334
f 323 334 335
f 323 335 324
f 324 335 336
f 324 336 325
f 325 336 337
f 325 337 338
f 325 338 326
f 326 338 339
f 326 339 327
f 327 339 340
f 327 340 341
f 327 341 328
f 328 341 342
f 328 342 329
f 329 342 343
f 329 343 300
f 300 343 301
f 301 343 330
f 301 330 302
f 306 305 309
f 333 332 344
f 333 344 334
f 334 344 345
f 334 345 335
f 335 345 336
f 336 345 337
f 337 345 338
f 338 345 339
f 339 345 340
f 340 345 344
f 340 344 341
f 341 344 332
f 341 332 342
f 342 332 331
f 342 331 343
f 343 331 330
f 265 251 346
f 346 251 347
f 346 347 348
f 348 347 349
f 349 347 251
f 349 251 250
f 117 235 350
f 117 350 227
f 117 227 118
f 350 235 351
f 350 351 352
f 350 352 227
f 227 352 228
f 228 352 353
f 228 353 262
f 228 262 229
f 235 234 233
f 235 233 351
f 351 233 354
f 351 354 353
f 351 353 352
f 354 233 245
f 354 245 244
f 354 244 253
f 354 253 355
f 354 355 356
f 354 356 353
f 353 356 357
f 353 357 358
f 353 358 262
f 262 358 263
f 263 358 359
f 263 359 264
f 264 359 251
f 264 251 265
f 251 359 252
f 252 359 358
f 252 358 253
f 253 358 360
f 253 360 355
f 355 360 361
f 355 361 362
f 355 362 356
f 356 362 363
f 356 363 357
f 357 363 364
f 357 364 360
f 357 360 358
f 312 311 319
f 221 225 222
f 222 225 365
f 222 365 366
f 222 366 223
f 223 366 224
f 224 366 365
f 224 365 225
f 257 261 258
f 258 261 367
f 258 367 259
f 259 367 368
f 259 368 260
f 260 368 261
f 261 368 367
f 369 116 115
f 369 115 370
f 369 370 371
f 369 371 113
f 369 113 112
f 369 112 116
f 114 372 115
f 115 372 370
f 370 372 373
f 370 373 374
f 370 374 371
f 371 374 375
f 371 375 113
f 113 375 114
f 114 375 372
f 372 375 373
f 373 375 374
f 360 364 361
f 361 364 376
f 361 376 377
f 361 377 362
f 362 377 363
f 363 377 376
f 363 376 364
f 378 379 380
