# RS2 Model 21153
# Vertices: 448
# Faces: 734

v -15 4 142
v 0 8 142
v 0 8 133
v -13 1 133
v -14 -10 133
v -11 -13 142
v -9 -12 142
v -14 3 142
v 0 6 142
v 15 4 142
v 13 1 133
v 14 -10 133
v 11 -13 142
v 0 -16 133
v 0 -16 142
v -33 0 111
v -29 2 119
v -29 0 119
v -34 0 121
v -38 0 113
v -33 2 111
v -38 2 113
v -34 2 121
v -36 2 122
v -38 -3 123
v -44 -1 115
v -41 2 114
v -48 -3 103
v -49 2 95
v -48 7 103
v -45 0 105
v -45 -5 107
v -52 2 105
v -52 -1 94
v -52 5 94
v -44 4 115
v -42 -3 107
v -42 -6 101
v -43 -6 107
v -45 2 115
v -46 2 116
v -43 2 125
v -38 7 123
v -29 2 134
v -32 -3 135
v -32 7 135
v -26 2 133
v -32 -5 135
v -36 2 137
v -41 2 124
v -30 9 135
v -20 3 142
v -27 -5 146
v -39 2 138
v -28 9 146
v -27 7 146
v -23 2 144
v -27 -4 146
v -34 2 148
v -31 2 147
v -19 9 154
v -18 2 149
v -21 -4 154
v -16 -6 159
v -16 -5 151
v -12 -13 145
v -9 -12 160
v -10 1 164
v -19 1 166
v -24 2 160
v -18 5 163
v -12 4 165
v -4 10 153
v -16 2 145
v -5 0 166
v 0 4 167
v 0 7 161
v 0 10 154
v -7 4 119
v -13 -1 118
v -10 -1 129
v 0 6 119
v -8 7 116
v -17 1 116
v -11 -10 118
v -8 -9 129
v -12 -6 133
v -11 0 133
v 0 5 133
v 0 4 129
v 10 -1 129
v 7 4 119
v 8 7 116
v 0 9 116
v -7 6 113
v -15 2 113
v -13 -12 115
v 0 -15 118
v 0 -13 129
v 0 -14 133
v 0 -14 147
v -2 -17 148
v -2 -12 159
v 0 -8 162
v 0 -6 165
v 12 -13 145
v 16 -6 159
v 9 -12 160
v 2 -17 148
v 9 -12 142
v 14 3 142
v 16 -5 151
v 21 -4 154
v 24 2 160
v 19 1 166
v 10 1 164
v 2 -12 159
v 11 0 133
v 12 -6 133
v 8 -9 129
v 14 -1 118
v 17 1 116
v 15 2 113
v 7 6 113
v 0 8 114
v 0 11 99
v -7 6 99
v -17 2 99
v -11 -13 113
v 0 -18 116
v 16 -12 115
v 13 -10 118
v 4 10 153
v 12 4 165
v 19 9 154
v 18 5 163
v 31 2 147
v 27 7 146
v 18 2 149
v 16 2 145
v 27 -4 146
v 5 0 166
v 11 -13 113
v 17 2 99
v 7 6 99
v 0 -14 142
v 33 0 111
v 29 0 119
v 29 2 119
v 33 2 111
v 38 2 113
v 38 0 113
v 34 0 121
v 34 2 121
v 44 4 115
v 41 2 114
v 44 -1 115
v 38 -3 123
v 36 2 122
v 38 7 123
v 43 2 125
v 46 2 116
v 45 2 115
v 52 2 105
v 48 7 103
v 45 0 105
v 42 -3 107
v 43 -6 107
v 45 -5 107
v 41 2 124
v 32 -3 135
v 29 2 134
v 32 7 135
v 48 -3 103
v 49 2 95
v 52 -1 94
v 42 -6 101
v 52 5 94
v 36 2 137
v 32 -5 135
v 26 2 133
v 30 9 135
v 23 2 144
v 20 3 142
v 27 -5 146
v 34 2 148
v 28 9 146
v 39 2 138
v 37 -9 146
v 36 -7 145
v 39 -5 143
v 40 -7 144
v 37 -6 150
v 36 -4 149
v 39 -2 147
v 40 -4 148
v 33 0 144
v 32 -1 143
v 37 -6 146
v 37 -4 147
v 38 -5 145
v 33 0 142
v -9 -15 63
v -1 -19 99
v -11 -16 99
v -17 -9 64
v -19 -10 15
v -22 -5 19
v -38 5 3
v -19 -3 15
v -8 -1 64
v -8 -4 64
v 0 1 64
v 0 -1 24
v -5 -5 24
v -9 -10 63
v -6 -9 24
v 0 -16 63
v 0 -14 95
v 1 -19 99
v 0 -17 112
v 9 -15 63
v 11 -16 99
v 9 -10 63
v 0 -13 24
v 6 -9 24
v 8 -4 64
v 5 -5 24
v 8 -1 64
v 17 -9 64
v 18 -3 16
v 22 -5 19
v 36 5 3
v 18 -10 16
v 0 -6 5
v -37 -7 145
v -38 -9 146
v -41 -7 144
v -40 -5 143
v -37 -4 149
v -38 -6 150
v -41 -4 148
v -40 -2 147
v -33 -1 143
v -34 0 144
v -38 -4 147
v -38 -6 146
v -34 0 142
v -39 -5 145
v -34 0 143
v 32 1 98
v 32 1 115
v 29 1 115
v 29 1 99
v 29 1 78
v 32 1 77
v 29 1 58
v 32 1 57
v 32 2 77
v 29 2 99
v 32 2 115
v 29 2 115
v -29 1 98
v -29 1 115
v -32 1 115
v -32 1 99
v -32 1 78
v -29 1 77
v -32 1 58
v -29 1 57
v -32 2 78
v -29 2 98
v -29 2 115
v -32 2 115
v 46 3 183
v 62 3 189
v 61 3 192
v 45 3 186
v 22 3 177
v 23 3 174
v 4 2 169
v 3 2 168
v 22 4 177
v 46 4 183
v 3 3 169
v 0 -9 164
v 8 0 166
v 8 -1 171
v 0 -10 169
v -8 0 166
v -8 -1 171
v 0 7 167
v 0 6 172
v 0 4 172
v 5 -1 171
v 0 -7 170
v -5 -1 171
v -6 -5 177
v -3 1 176
v 3 1 176
v 6 -5 177
v 0 -8 171
v -6 -10 173
v -5 -11 175
v -6 -13 178
v -8 -4 183
v -5 2 182
v 5 2 182
v 8 -4 183
v 6 -13 178
v 5 -11 175
v 6 -10 173
v 0 -15 169
v -1 -17 170
v -2 -17 173
v -2 -16 174
v -4 -14 179
v -6 -13 182
v -7 -12 185
v -7 -6 188
v -5 0 187
v 5 0 187
v 7 -6 188
v 7 -12 185
v 6 -13 182
v 4 -14 179
v 2 -16 174
v 2 -17 173
v 1 -17 170
v -1 -16 177
v -1 -17 181
v -4 -15 180
v -4 -15 182
v -4 -17 182
v 0 -17 187
v -2 -9 191
v 0 -3 190
v 2 -9 191
v 4 -17 182
v 4 -15 182
v 4 -15 180
v 1 -17 181
v 1 -16 177
v 0 -18 176
v 0 -18 181
v 12 7 172
v 10 6 171
v 8 9 169
v 10 10 170
v 9 7 176
v 7 6 175
v 5 9 173
v 7 10 174
v 9 7 172
v 7 7 173
v 8 8 171
v -62 3 189
v -46 3 183
v -45 3 186
v -61 3 192
v -45 4 186
v -22 3 177
v -23 4 174
v -3 3 169
v -3 2 168
v -23 3 174
v -4 2 169
v -10 6 171
v -12 7 172
v -10 10 170
v -8 9 169
v -7 6 175
v -9 7 176
v -7 10 174
v -5 9 173
v -7 7 173
v -9 7 172
v -8 8 171
v 91 -1 163
v 75 -1 157
v 74 -1 160
v 90 -1 166
v 74 -2 160
v 51 -1 151
v 52 -2 148
v 52 -1 148
v 33 0 143
v -76 -1 157
v -92 -1 163
v -91 -1 166
v -75 -1 160
v -52 -1 151
v -53 -1 148
v -52 -2 151
v -76 -2 157
v 39 14 109
v 52 16 99
v 54 17 101
v 41 14 111
v 22 10 126
v 20 10 124
v 7 6 137
v 6 6 137
v 22 11 126
v 39 15 109
v 6 6 138
v 11 14 136
v 10 12 137
v 6 12 133
v 8 14 132
v 7 15 139
v 5 13 139
v 3 13 136
v 4 15 135
v 8 13 134
v 7 13 137
v 6 12 135
v -52 16 99
v -39 14 109
v -41 14 111
v -54 17 101
v -39 15 109
v -22 11 126
v -20 10 124
v -6 6 138
v -6 6 137
v -22 10 126
v -7 6 137
v -11 12 134
v -11 14 133
v -6 14 132
v -6 12 134
v -9 13 139
v -10 15 138
v -5 15 137
v -5 13 138
v -7 13 137
v -8 13 134
v -6 12 135
v 11 -19 142
v 17 3 142
v -17 -11 142
v 5 -15 175
v 2 -15 182
v -2 -15 177
v -8 -12 167
v 8 -10 167
v -8 -16 187

f 1 2 3
f 1 3 4
f 1 4 5
f 1 5 6
f 1 6 7
f 1 7 8
f 1 8 2
f 2 8 9
f 2 9 10
f 2 10 3
f 3 10 11
f 11 10 12
f 12 10 13
f 12 13 14
f 14 13 15
f 14 15 6
f 14 6 5
f 16 17 18
f 16 18 19
f 16 19 20
f 16 20 21
f 16 21 17
f 17 21 22
f 17 22 23
f 17 23 18
f 18 23 19
f 19 23 24
f 19 24 25
f 19 25 26
f 19 26 20
f 20 26 27
f 20 27 22
f 20 22 21
f 28 29 30
f 28 30 31
f 28 31 32
f 28 32 33
f 28 33 34
f 28 34 29
f 29 34 35
f 29 35 30
f 30 35 33
f 30 33 36
f 30 36 31
f 31 36 37
f 31 37 38
f 31 38 32
f 32 38 39
f 32 39 26
f 32 26 33
f 33 26 40
f 33 40 36
f 36 40 41
f 36 41 42
f 36 42 43
f 36 43 23
f 36 23 22
f 36 22 27
f 36 27 37
f 37 27 39
f 37 39 38
f 27 26 39
f 35 34 33
f 44 45 25
f 44 25 24
f 44 24 43
f 44 43 46
f 44 46 47
f 44 47 45
f 45 47 48
f 45 48 49
f 45 49 50
f 45 50 25
f 25 50 42
f 25 42 26
f 26 42 41
f 26 41 40
f 46 50 49
f 46 49 51
f 46 51 47
f 47 51 52
f 47 52 48
f 48 52 53
f 48 53 54
f 48 54 49
f 49 54 51
f 51 54 55
f 51 55 52
f 52 55 56
f 52 56 57
f 52 57 58
f 52 58 53
f 53 58 59
f 53 59 54
f 54 59 55
f 55 59 56
f 56 59 60
f 56 60 61
f 56 61 62
f 56 62 57
f 57 62 58
f 58 62 63
f 58 63 60
f 58 60 59
f 46 43 50
f 50 43 42
f 64 63 65
f 64 65 66
f 64 66 67
f 64 67 68
f 64 68 69
f 64 69 70
f 64 70 63
f 63 70 60
f 60 70 61
f 61 70 71
f 61 71 72
f 61 72 73
f 61 73 8
f 61 8 74
f 61 74 62
f 62 74 65
f 62 65 63
f 69 71 70
f 71 69 72
f 72 69 68
f 72 68 75
f 72 75 76
f 72 76 77
f 72 77 73
f 73 77 78
f 73 78 9
f 73 9 8
f 79 80 81
f 79 81 82
f 79 82 83
f 79 83 84
f 79 84 80
f 80 84 85
f 80 85 86
f 80 86 81
f 81 86 87
f 81 87 88
f 81 88 89
f 81 89 90
f 81 90 82
f 82 90 91
f 82 91 92
f 82 92 93
f 82 93 94
f 82 94 83
f 83 94 95
f 83 95 96
f 83 96 84
f 84 96 97
f 84 97 85
f 85 97 98
f 85 98 86
f 86 98 99
f 86 99 100
f 86 100 87
f 7 66 8
f 8 66 65
f 8 65 74
f 7 101 66
f 66 101 102
f 66 102 67
f 67 102 103
f 67 103 104
f 67 104 68
f 68 104 105
f 68 105 75
f 106 107 108
f 106 108 109
f 106 109 101
f 106 101 110
f 106 110 111
f 106 111 112
f 106 112 107
f 107 112 113
f 107 113 114
f 107 114 115
f 107 115 116
f 107 116 108
f 108 116 104
f 108 104 117
f 108 117 109
f 109 117 104
f 109 104 101
f 101 104 102
f 102 104 103
f 90 89 91
f 91 89 118
f 91 118 119
f 91 119 120
f 91 120 121
f 91 121 92
f 92 121 122
f 92 122 93
f 93 122 123
f 93 123 124
f 93 124 94
f 94 124 125
f 94 125 95
f 95 125 126
f 95 126 127
f 95 127 128
f 95 128 96
f 96 128 129
f 96 129 97
f 97 129 130
f 97 130 98
f 98 130 131
f 98 131 132
f 98 132 120
f 98 120 99
f 99 120 100
f 100 120 119
f 133 78 77
f 133 77 134
f 133 134 135
f 133 135 111
f 133 111 9
f 133 9 78
f 135 134 136
f 135 136 114
f 135 114 137
f 135 137 138
f 135 138 139
f 135 139 140
f 135 140 111
f 111 140 112
f 112 140 139
f 112 139 113
f 113 139 141
f 113 141 137
f 113 137 114
f 76 142 116
f 76 116 134
f 76 134 77
f 120 132 121
f 121 132 122
f 122 132 131
f 122 131 123
f 123 131 143
f 123 143 144
f 123 144 124
f 124 144 145
f 124 145 126
f 124 126 125
f 116 115 134
f 134 115 136
f 136 115 114
f 110 101 146
f 110 146 15
f 110 15 13
f 110 13 111
f 111 13 10
f 111 10 9
f 105 104 116
f 105 116 142
f 24 23 43
f 147 148 149
f 147 149 150
f 147 150 151
f 147 151 152
f 147 152 148
f 148 152 153
f 148 153 149
f 149 153 154
f 149 154 150
f 150 154 151
f 151 154 155
f 151 155 156
f 151 156 152
f 152 156 157
f 152 157 153
f 153 157 158
f 153 158 159
f 153 159 154
f 154 159 160
f 154 160 155
f 155 160 161
f 155 161 162
f 155 162 163
f 155 163 164
f 155 164 165
f 155 165 166
f 155 166 167
f 155 167 156
f 156 167 168
f 156 168 157
f 157 168 169
f 157 169 164
f 157 164 163
f 157 163 162
f 157 162 161
f 157 161 158
f 158 161 170
f 158 170 171
f 158 171 172
f 158 172 159
f 159 172 160
f 160 172 173
f 160 173 170
f 160 170 161
f 174 165 175
f 174 175 176
f 174 176 164
f 174 164 169
f 174 169 166
f 174 166 165
f 169 168 177
f 169 177 166
f 166 177 167
f 167 177 168
f 164 178 165
f 165 178 175
f 175 178 176
f 176 178 164
f 171 170 179
f 171 179 180
f 171 180 181
f 171 181 172
f 172 181 173
f 173 181 182
f 173 182 179
f 173 179 170
f 183 141 139
f 183 139 138
f 183 138 184
f 183 184 141
f 141 184 185
f 141 185 186
f 141 186 137
f 137 186 138
f 138 186 187
f 138 187 184
f 184 187 182
f 184 182 181
f 184 181 180
f 184 180 185
f 185 180 188
f 185 188 186
f 186 188 187
f 187 188 182
f 182 188 179
f 179 188 180
f 189 190 191
f 189 191 192
f 189 192 193
f 189 193 190
f 190 193 194
f 190 194 195
f 190 195 191
f 191 195 192
f 192 195 196
f 192 196 193
f 193 196 194
f 194 196 195
f 197 198 199
f 197 199 200
f 197 200 201
f 197 201 202
f 202 201 198
f 198 201 199
f 203 204 205
f 203 205 206
f 203 206 207
f 207 206 208
f 207 208 209
f 209 208 210
f 210 208 206
f 210 206 211
f 211 206 126
f 211 126 212
f 212 126 213
f 212 213 214
f 212 214 215
f 212 215 216
f 216 215 217
f 216 217 218
f 216 218 219
f 216 219 203
f 203 219 204
f 204 219 220
f 204 220 221
f 204 221 205
f 205 221 129
f 205 129 128
f 205 128 206
f 206 128 127
f 206 127 126
f 222 223 220
f 222 220 219
f 222 219 224
f 224 219 218
f 224 218 225
f 224 225 226
f 224 226 227
f 227 226 228
f 227 228 213
f 227 213 126
f 227 126 229
f 229 126 230
f 229 230 231
f 231 230 232
f 231 232 233
f 233 232 234
f 234 232 230
f 234 230 222
f 222 230 223
f 223 230 144
f 223 144 143
f 223 143 220
f 220 143 221
f 221 143 130
f 221 130 129
f 230 145 144
f 145 230 126
f 131 130 143
f 218 217 225
f 225 217 235
f 225 235 226
f 226 235 228
f 228 235 214
f 228 214 213
f 215 214 235
f 215 235 217
f 236 237 238
f 236 238 239
f 236 239 240
f 236 240 237
f 237 240 241
f 237 241 242
f 237 242 238
f 238 242 239
f 239 242 243
f 239 243 240
f 240 243 241
f 241 243 242
f 244 245 246
f 244 246 247
f 244 247 248
f 248 247 249
f 248 249 250
f 250 249 245
f 245 249 246
f 251 252 253
f 251 253 254
f 251 254 255
f 251 255 256
f 256 255 257
f 256 257 258
f 258 257 255
f 258 255 259
f 259 255 260
f 259 260 251
f 251 260 261
f 261 260 262
f 263 264 265
f 263 265 266
f 263 266 267
f 263 267 268
f 268 267 269
f 268 269 270
f 268 270 271
f 268 271 266
f 268 266 272
f 272 266 273
f 273 266 274
f 275 276 277
f 275 277 278
f 275 278 279
f 275 279 280
f 280 279 281
f 280 281 282
f 280 282 283
f 280 283 278
f 280 278 284
f 284 278 276
f 276 278 277
f 271 270 269
f 283 282 285
f 286 287 288
f 286 288 289
f 286 289 290
f 290 289 291
f 290 291 292
f 292 291 293
f 292 293 287
f 287 293 288
f 288 293 294
f 288 294 295
f 288 295 289
f 289 295 296
f 289 296 291
f 291 296 297
f 291 297 293
f 293 297 294
f 294 297 298
f 294 298 299
f 294 299 300
f 294 300 295
f 295 300 301
f 295 301 296
f 296 301 302
f 296 302 297
f 297 302 298
f 298 302 303
f 298 303 304
f 298 304 305
f 298 305 306
f 298 306 307
f 298 307 299
f 299 307 308
f 299 308 300
f 300 308 309
f 300 309 301
f 301 309 310
f 301 310 311
f 301 311 312
f 301 312 302
f 302 312 313
f 302 313 303
f 303 313 314
f 303 314 315
f 303 315 316
f 303 316 304
f 304 316 305
f 305 316 317
f 305 317 318
f 305 318 306
f 306 318 319
f 306 319 320
f 306 320 321
f 306 321 307
f 307 321 322
f 307 322 308
f 308 322 323
f 308 323 309
f 309 323 324
f 309 324 325
f 309 325 310
f 310 325 326
f 310 326 327
f 310 327 311
f 311 327 312
f 312 327 328
f 312 328 329
f 312 329 313
f 313 329 314
f 314 329 328
f 314 328 315
f 315 328 327
f 315 327 316
f 316 327 330
f 316 330 317
f 317 330 331
f 317 331 332
f 317 332 318
f 318 332 333
f 318 333 334
f 318 334 319
f 319 334 335
f 319 335 336
f 319 336 320
f 320 336 337
f 320 337 321
f 321 337 322
f 322 337 338
f 322 338 323
f 323 338 324
f 324 338 335
f 324 335 339
f 324 339 325
f 325 339 340
f 325 340 341
f 325 341 326
f 326 341 342
f 326 342 343
f 326 343 327
f 327 343 330
f 330 343 344
f 330 344 345
f 330 345 331
f 331 345 334
f 331 334 333
f 331 333 332
f 334 345 335
f 335 345 339
f 339 345 342
f 339 342 340
f 340 342 341
f 345 344 343
f 345 343 342
f 338 336 335
f 336 338 337
f 346 347 348
f 346 348 349
f 346 349 350
f 346 350 347
f 347 350 351
f 347 351 352
f 347 352 348
f 348 352 349
f 349 352 353
f 349 353 350
f 350 353 351
f 351 353 352
f 285 281 354
f 285 354 355
f 285 355 356
f 285 356 282
f 282 356 281
f 281 356 354
f 357 358 359
f 357 359 360
f 357 360 358
f 358 360 361
f 358 361 362
f 358 362 363
f 363 362 364
f 363 364 365
f 359 358 366
f 359 366 362
f 362 366 365
f 362 365 367
f 368 369 370
f 368 370 371
f 368 371 372
f 368 372 369
f 369 372 373
f 369 373 374
f 369 374 370
f 370 374 371
f 371 374 375
f 371 375 372
f 372 375 373
f 373 375 374
f 367 364 376
f 367 376 377
f 367 377 365
f 365 377 378
f 365 378 364
f 364 378 376
f 379 380 381
f 379 381 382
f 379 382 380
f 380 382 383
f 380 383 384
f 380 384 385
f 385 384 198
f 385 198 202
f 381 380 386
f 381 386 384
f 384 386 202
f 384 202 387
f 388 389 390
f 388 390 391
f 388 391 392
f 388 392 393
f 393 392 250
f 393 250 248
f 393 248 394
f 393 394 391
f 393 391 395
f 395 391 389
f 389 391 390
f 394 248 244
f 146 101 7
f 146 7 6
f 146 6 15
f 396 397 398
f 396 398 399
f 396 399 400
f 396 400 401
f 401 400 402
f 401 402 403
f 401 403 404
f 401 404 399
f 401 399 405
f 405 399 397
f 397 399 398
f 404 403 406
f 407 408 409
f 407 409 410
f 407 410 411
f 407 411 408
f 408 411 412
f 408 412 413
f 408 413 409
f 409 413 410
f 410 413 414
f 410 414 411
f 411 414 412
f 412 414 413
f 406 402 415
f 406 415 416
f 406 416 417
f 406 417 403
f 403 417 402
f 402 417 415
f 418 419 420
f 418 420 421
f 418 421 422
f 422 421 420
f 422 420 423
f 422 423 424
f 424 423 425
f 424 425 426
f 424 426 427
f 424 427 420
f 424 420 419
f 427 426 428
f 429 430 431
f 429 431 432
f 429 432 433
f 429 433 430
f 430 433 434
f 430 434 435
f 430 435 431
f 431 435 432
f 432 435 436
f 432 436 433
f 433 436 434
f 434 436 435
f 428 425 437
f 428 437 438
f 428 438 426
f 426 438 439
f 426 439 425
f 425 439 437
f 440 441 442
