# RS2 Model 21305
# Vertices: 138
# Faces: 126

v 14 28 7
v -14 28 7
v -29 14 7
v 29 14 7
v 32 16 0
v 16 32 0
v -16 32 0
v -32 16 0
v -29 -14 7
v -14 -29 7
v 14 -29 7
v 29 -14 7
v 32 -16 0
v 13 -39 7
v -13 -39 7
v -13 -64 7
v 13 -64 7
v 16 -64 0
v 16 -36 0
v -16 -36 0
v -16 -64 0
v -64 -22 7
v -64 -64 7
v -36 -22 7
v -34 -19 0
v -64 -19 0
v -22 -36 7
v -22 -64 7
v -19 -64 0
v -19 -34 0
v -32 -16 0
v -16 -32 0
v 16 -32 0
v -39 -13 7
v -39 13 7
v -64 13 7
v -64 -13 7
v -64 -16 0
v -36 -16 0
v -36 16 0
v -64 16 0
v -22 64 7
v -64 64 7
v -22 36 7
v -19 34 0
v -19 64 0
v -36 22 7
v -64 22 7
v -64 19 0
v -34 19 0
v -13 39 7
v 13 39 7
v 13 64 7
v -13 64 7
v -16 64 0
v -16 36 0
v 16 36 0
v 16 64 0
v 64 22 7
v 64 64 7
v 36 22 7
v 34 19 0
v 64 19 0
v 22 36 7
v 22 64 7
v 19 64 0
v 19 34 0
v 39 13 7
v 39 -13 7
v 64 -13 7
v 64 13 7
v 64 16 0
v 36 16 0
v 36 -16 0
v 64 -16 0
v 22 -64 7
v 64 -64 7
v 22 -36 7
v 19 -34 0
v 19 -64 0
v 36 -22 7
v 64 -22 7
v 64 -19 0
v 34 -19 0
v -64 64 0
v 64 -64 0
v 64 64 0
v -64 -64 0
v -53 -33 7
v -47 -30 11
v -48 -25 9
v -38 -32 12
v -40 -19 10
v -26 -28 9
v -28 -19 6
v -22 -22 3
v -24 -23 10
v -24 -26 1
v -29 -22 1
v -33 -17 11
v -37 -18 15
v -28 -25 15
v -44 -24 16
v -37 -29 17
v -51 -33 14
v -50 -39 11
v -57 -46 7
v -18 -21 8
v -23 -25 2
v -27 -19 3
v -25 -16 13
v -26 -16 19
v -17 -22 13
v -31 -25 22
v -24 -29 18
v -36 -34 17
v -35 -40 14
v -44 -46 7
v -15 -32 11
v -20 -26 3
v -24 -21 3
v -21 -23 10
v -25 -30 16
v -18 -38 15
v -27 -40 14
v -20 -46 14
v -32 -45 13
v -28 -49 12
v -38 -50 7
v -37 -37 28
v -26 -46 20
v -27 -5 9
v -55 -25 9
v -50 -37 12
v -24 -14 4
v -66 -25 19
v -51 -52 23
v -21 -1 -5

f 1 2 3
f 1 3 4
f 1 4 5
f 1 5 6
f 1 6 2
f 2 6 7
f 2 7 3
f 3 7 8
f 3 8 9
f 3 9 10
f 3 10 11
f 3 11 12
f 3 12 4
f 4 12 13
f 4 13 5
f 14 15 16
f 14 16 17
f 14 17 18
f 14 18 19
f 14 19 15
f 15 19 20
f 15 20 16
f 16 20 21
f 22 23 24
f 22 24 25
f 22 25 26
f 27 24 23
f 27 23 28
f 27 28 29
f 27 29 30
f 27 30 24
f 24 30 25
f 8 31 9
f 9 31 10
f 10 31 32
f 10 32 11
f 11 32 33
f 11 33 12
f 12 33 13
f 34 35 36
f 34 36 37
f 34 37 38
f 34 38 39
f 34 39 35
f 35 39 40
f 35 40 36
f 36 40 41
f 42 43 44
f 42 44 45
f 42 45 46
f 47 44 43
f 47 43 48
f 47 48 49
f 47 49 50
f 47 50 44
f 44 50 45
f 51 52 53
f 51 53 54
f 51 54 55
f 51 55 56
f 51 56 52
f 52 56 57
f 52 57 53
f 53 57 58
f 59 60 61
f 59 61 62
f 59 62 63
f 64 61 60
f 64 60 65
f 64 65 66
f 64 66 67
f 64 67 61
f 61 67 62
f 68 69 70
f 68 70 71
f 68 71 72
f 68 72 73
f 68 73 69
f 69 73 74
f 69 74 70
f 70 74 75
f 76 77 78
f 76 78 79
f 76 79 80
f 81 78 77
f 81 77 82
f 81 82 83
f 81 83 84
f 81 84 78
f 78 84 79
f 85 86 87
f 86 85 88
f 89 90 91
f 91 90 92
f 91 92 93
f 93 92 94
f 93 94 95
f 95 94 96
f 97 98 99
f 97 99 100
f 97 100 101
f 97 101 102
f 102 101 103
f 102 103 104
f 104 103 105
f 104 105 106
f 106 105 107
f 108 109 110
f 108 110 111
f 108 111 112
f 108 112 113
f 113 112 114
f 113 114 115
f 115 114 116
f 115 116 117
f 117 116 118
f 119 120 121
f 119 121 122
f 119 122 123
f 119 123 124
f 124 123 125
f 124 125 126
f 126 125 127
f 126 127 128
f 128 127 129
f 130 131 132
