# RS2 Model 21314
# Vertices: 154
# Faces: 195

v 16 -34 0
v 16 -48 0
v 19 -46 7
v 19 -36 7
v 35 -28 0
v 35 -31 7
v 49 -35 0
v 47 -37 7
v 50 -46 7
v 52 -48 0
v -61 10 0
v -47 10 0
v -49 13 7
v -59 13 7
v -61 46 0
v -59 44 7
v -50 41 7
v -48 43 0
v -41 29 0
v -44 29 7
v -14 -28 7
v -8 -28 7
v -12 -13 7
v -29 -14 7
v -32 -16 0
v -16 -32 0
v -7 -32 0
v -12 -13 0
v -32 7 0
v -29 4 7
v 7 29 7
v -14 29 7
v -7 10 7
v 9 32 0
v -16 32 0
v -28 15 7
v -32 16 0
v -7 10 0
v 8 0 7
v 29 -14 7
v 29 14 7
v 17 26 7
v 18 29 0
v 8 0 0
v 20 -28 0
v 18 -24 7
v 32 -16 0
v 32 16 0
v -13 39 7
v 13 39 7
v 13 48 7
v -13 51 7
v -16 53 0
v -16 36 0
v 16 36 0
v 16 49 0
v 2 56 7
v 2 59 0
v -32 48 7
v -28 45 7
v -25 49 7
v -29 52 7
v -30 56 0
v -36 47 0
v -27 41 0
v -21 50 0
v -17 1 5
v -10 -4 5
v -6 2 5
v -14 5 5
v -15 9 0
v -21 0 0
v -9 -8 0
v -2 3 0
v -1 -13 4
v -5 -20 4
v 2 -24 4
v 6 -17 4
v 8 -17 0
v -1 -11 0
v -7 -20 0
v 2 -26 0
v 32 47 7
v 29 43 7
v 33 40 7
v 36 44 7
v 40 45 0
v 31 51 0
v 25 42 0
v 34 36 0
v 51 5 7
v 54 9 7
v 50 12 7
v 47 8 7
v 43 7 0
v 52 1 0
v 58 10 0
v 49 16 0
v -44 -44 7
v -37 -34 7
v -49 -28 7
v -53 -34 7
v -56 -34 0
v -43 -48 0
v -33 -33 0
v -50 -25 0
v -40 -52 7
v -30 -59 7
v -22 -52 7
v -30 -45 7
v -30 -40 0
v -44 -53 0
v -29 -63 0
v -18 -52 0
v -30 -37 3
v -28 -39 3
v -26 -37 3
v -28 -35 3
v -28 -34 0
v -31 -37 0
v -28 -40 0
v -25 -37 0
v 9 -49 3
v 11 -51 3
v 13 -49 3
v 11 -47 3
v 11 -46 0
v 8 -49 0
v 11 -52 0
v 14 -49 0
v 54 -43 3
v 56 -45 3
v 58 -43 3
v 56 -41 3
v 56 -40 0
v 53 -43 0
v 56 -46 0
v 59 -43 0
v 45 -29 3
v 47 -31 3
v 49 -29 3
v 47 -27 3
v 47 -26 0
v 44 -29 0
v 47 -32 0
v 50 -29 0
v 55 16 3
v 57 14 3
v 59 16 3
v 57 18 3
v 57 19 0
v 54 16 0
v 57 13 0
v 60 16 0

f 1 2 3
f 1 3 4
f 1 4 5
f 5 4 6
f 5 6 7
f 7 6 8
f 7 8 9
f 7 9 10
f 10 9 3
f 10 3 2
f 8 3 9
f 3 8 6
f 3 6 4
f 11 12 13
f 11 13 14
f 11 14 15
f 15 14 16
f 15 16 17
f 15 17 18
f 18 17 19
f 19 17 20
f 19 20 12
f 12 20 13
f 13 20 14
f 14 20 17
f 14 17 16
f 21 22 23
f 21 23 24
f 21 24 25
f 21 25 26
f 21 26 22
f 22 26 27
f 22 27 23
f 23 27 28
f 23 28 29
f 23 29 30
f 23 30 24
f 24 30 29
f 24 29 25
f 31 32 33
f 31 33 34
f 31 34 32
f 32 34 35
f 32 35 36
f 32 36 33
f 33 36 37
f 33 37 38
f 33 38 34
f 35 37 36
f 39 40 41
f 39 41 42
f 39 42 43
f 39 43 44
f 39 44 45
f 39 45 46
f 39 46 40
f 40 46 45
f 40 45 47
f 40 47 41
f 41 47 48
f 41 48 42
f 42 48 43
f 49 50 51
f 49 51 52
f 49 52 53
f 49 53 54
f 49 54 50
f 50 54 55
f 50 55 51
f 51 55 56
f 51 56 57
f 51 57 52
f 52 57 58
f 52 58 53
f 57 56 58
f 59 60 61
f 59 61 62
f 59 62 63
f 59 63 64
f 59 64 60
f 60 64 65
f 60 65 61
f 61 65 66
f 61 66 62
f 62 66 63
f 67 68 69
f 67 69 70
f 67 70 71
f 67 71 72
f 67 72 68
f 68 72 73
f 68 73 69
f 69 73 74
f 69 74 70
f 70 74 71
f 75 76 77
f 75 77 78
f 75 78 79
f 75 79 80
f 75 80 76
f 76 80 81
f 76 81 77
f 77 81 82
f 77 82 78
f 78 82 79
f 83 84 85
f 83 85 86
f 83 86 87
f 83 87 88
f 83 88 84
f 84 88 89
f 84 89 85
f 85 89 90
f 85 90 86
f 86 90 87
f 91 92 93
f 91 93 94
f 91 94 95
f 91 95 96
f 91 96 92
f 92 96 97
f 92 97 93
f 93 97 98
f 93 98 94
f 94 98 95
f 99 100 101
f 99 101 102
f 99 102 103
f 99 103 104
f 99 104 100
f 100 104 105
f 100 105 101
f 101 105 106
f 101 106 102
f 102 106 103
f 107 108 109
f 107 109 110
f 107 110 111
f 107 111 112
f 107 112 108
f 108 112 113
f 108 113 109
f 109 113 114
f 109 114 110
f 110 114 111
f 115 116 117
f 115 117 118
f 115 118 119
f 115 119 120
f 115 120 116
f 116 120 121
f 116 121 117
f 117 121 122
f 117 122 118
f 118 122 119
f 123 124 125
f 123 125 126
f 123 126 127
f 123 127 128
f 123 128 124
f 124 128 129
f 124 129 125
f 125 129 130
f 125 130 126
f 126 130 127
f 131 132 133
f 131 133 134
f 131 134 135
f 131 135 136
f 131 136 132
f 132 136 137
f 132 137 133
f 133 137 138
f 133 138 134
f 134 138 135
f 139 140 141
f 139 141 142
f 139 142 143
f 139 143 144
f 139 144 140
f 140 144 145
f 140 145 141
f 141 145 146
f 141 146 142
f 142 146 143
f 147 148 149
f 147 149 150
f 147 150 151
f 147 151 152
f 147 152 148
f 148 152 153
f 148 153 149
f 149 153 154
f 149 154 150
f 150 154 151
