# RS2 Model 21358
# Vertices: 656
# Faces: 824

v -41 63 139
v -42 60 147
v -38 64 148
v -42 52 152
v -35 62 158
v -35 45 161
v -29 52 164
v -26 46 163
v -33 46 165
v -27 45 159
v -27 51 159
v -34 57 165
v -39 60 165
v -39 48 165
v -43 62 157
v -44 53 157
v -46 61 145
v -46 56 140
v -42 56 126
v -28 43 168
v -27 45 160
v -27 51 162
v -33 52 171
v -38 52 174
v -33 42 171
v -46 51 168
v -43 43 166
v -48 49 157
v -48 45 151
v -45 47 137
v -35 34 164
v -27 41 161
v -27 48 162
v -32 44 167
v -39 43 162
v -40 32 160
v -41 38 153
v -42 29 152
v -36 39 140
v -39 33 141
v -30 41 126
v -16 -28 155
v -15 -34 161
v -4 -35 161
v -10 -28 155
v -13 -40 161
v -1 -40 161
v -8 -45 153
v 1 -44 153
v -5 -47 136
v 0 -47 141
v -5 -43 122
v -20 -28 157
v -27 -36 160
v -17 -33 163
v -13 -28 158
v -29 -41 156
v -18 -40 158
v -32 -43 148
v -23 -42 149
v -28 -40 137
v -22 -37 136
v -20 -31 122
v -16 -1 74
v -5 -5 74
v -5 -5 60
v -16 -1 60
v -27 -5 60
v -27 -5 74
v -16 -16 74
v -1 -16 74
v -1 -16 60
v -5 -27 60
v -5 -27 74
v -16 -31 74
v -16 -31 60
v -27 -27 60
v -27 -27 74
v -31 -16 74
v -31 -16 60
v -16 -5 112
v -8 -8 112
v -8 -8 74
v -16 -5 74
v -24 -8 74
v -24 -8 112
v -27 -16 112
v -27 -16 74
v -24 -24 74
v -24 -24 112
v -16 -27 112
v -16 -27 74
v -8 -24 74
v -8 -24 112
v -5 -16 112
v -5 -16 74
v -16 -5 194
v -8 -8 194
v -8 -8 156
v -16 -5 156
v -24 -8 156
v -24 -8 194
v -27 -16 194
v -27 -16 156
v -24 -24 156
v -24 -24 194
v -16 -27 194
v -16 -27 156
v -8 -24 156
v -8 -24 194
v -5 -16 194
v -5 -16 156
v -16 -1 156
v -5 -5 156
v -8 -8 135
v -16 -5 135
v -24 -8 135
v -27 -5 156
v -16 -16 156
v -1 -16 156
v -5 -16 135
v -5 -5 112
v -16 -1 112
v -27 -5 112
v -27 -16 135
v -31 -16 156
v -27 -27 156
v -16 -31 156
v -5 -27 156
v -8 -24 135
v -5 -27 112
v -1 -16 112
v -16 -27 135
v -16 -31 112
v -27 -27 112
v -24 -24 135
v -31 -16 112
v -16 -1 208
v -5 -5 208
v -5 -5 194
v -16 -1 194
v -27 -5 194
v -27 -5 208
v -31 -16 208
v -31 -16 194
v -27 -27 194
v -27 -27 208
v -16 -31 208
v -16 -31 194
v -5 -27 194
v -5 -27 208
v -1 -16 208
v -1 -16 194
v -16 32 74
v -5 28 74
v -5 28 60
v -16 32 60
v -27 28 60
v -27 28 74
v -16 17 74
v -1 17 74
v -1 17 60
v -5 6 60
v -5 6 74
v -16 2 74
v -16 2 60
v -27 6 60
v -27 6 74
v -31 17 74
v -31 17 60
v -16 28 112
v -8 25 112
v -8 25 74
v -16 28 74
v -24 25 74
v -24 25 112
v -27 17 112
v -27 17 74
v -24 9 74
v -24 9 112
v -16 6 112
v -16 6 74
v -8 9 74
v -8 9 112
v -5 17 112
v -5 17 74
v -16 28 194
v -8 25 194
v -8 25 156
v -16 28 156
v -24 25 156
v -24 25 194
v -27 17 194
v -27 17 156
v -24 9 156
v -24 9 194
v -16 6 194
v -16 6 156
v -8 9 156
v -8 9 194
v -5 17 194
v -5 17 156
v -16 32 156
v -5 28 156
v -8 25 135
v -16 28 135
v -24 25 135
v -27 28 156
v -16 17 156
v -1 17 156
v -5 17 135
v -5 28 112
v -16 32 112
v -27 28 112
v -27 17 135
v -31 17 156
v -27 6 156
v -16 2 156
v -5 6 156
v -8 9 135
v -5 6 112
v -1 17 112
v -16 6 135
v -16 2 112
v -27 6 112
v -24 9 135
v -31 17 112
v -16 32 208
v -5 28 208
v -5 28 194
v -16 32 194
v -27 28 194
v -27 28 208
v -31 17 208
v -31 17 194
v -27 6 194
v -27 6 208
v -16 2 208
v -16 2 194
v -5 6 194
v -5 6 208
v -1 17 208
v -1 17 194
v 17 -1 74
v 28 -5 74
v 28 -5 60
v 17 -1 60
v 6 -5 60
v 6 -5 74
v 17 -16 74
v 32 -16 74
v 32 -16 60
v 28 -27 60
v 28 -27 74
v 17 -31 74
v 17 -31 60
v 6 -27 60
v 6 -27 74
v 2 -16 74
v 2 -16 60
v 17 -5 112
v 25 -8 112
v 25 -8 74
v 17 -5 74
v 9 -8 74
v 9 -8 112
v 6 -16 112
v 6 -16 74
v 9 -24 74
v 9 -24 112
v 17 -27 112
v 17 -27 74
v 25 -24 74
v 25 -24 112
v 28 -16 112
v 28 -16 74
v 17 -5 194
v 25 -8 194
v 25 -8 156
v 17 -5 156
v 9 -8 156
v 9 -8 194
v 6 -16 194
v 6 -16 156
v 9 -24 156
v 9 -24 194
v 17 -27 194
v 17 -27 156
v 25 -24 156
v 25 -24 194
v 28 -16 194
v 28 -16 156
v 17 -1 156
v 28 -5 156
v 25 -8 135
v 17 -5 135
v 9 -8 135
v 6 -5 156
v 17 -16 156
v 32 -16 156
v 28 -16 135
v 28 -5 112
v 17 -1 112
v 6 -5 112
v 6 -16 135
v 2 -16 156
v 6 -27 156
v 17 -31 156
v 28 -27 156
v 25 -24 135
v 28 -27 112
v 32 -16 112
v 17 -27 135
v 17 -31 112
v 6 -27 112
v 9 -24 135
v 2 -16 112
v 17 -1 208
v 28 -5 208
v 28 -5 194
v 17 -1 194
v 6 -5 194
v 6 -5 208
v 2 -16 208
v 2 -16 194
v 6 -27 194
v 6 -27 208
v 17 -31 208
v 17 -31 194
v 28 -27 194
v 28 -27 208
v 32 -16 208
v 32 -16 194
v 32 -53 60
v 30 -59 60
v 30 -59 44
v 32 -53 44
v 64 -53 60
v 64 0 60
v 0 0 60
v 0 -53 60
v 2 -59 60
v 2 -59 44
v 0 -53 44
v -2 -59 60
v -2 -59 44
v -30 -59 60
v -32 -53 60
v -32 -53 44
v -30 -59 44
v -53 -53 60
v -53 -53 44
v -53 -53 38
v -53 -53 20
v -38 -53 20
v -36 -48 20
v -48 -48 35
v -53 -38 20
v -53 -32 16
v -53 -53 16
v -32 -53 16
v -26 -53 20
v -28 -48 20
v -32 -48 25
v -44 -48 40
v -48 -48 40
v -48 -44 40
v -48 -36 20
v -53 -26 20
v -53 0 16
v -64 -30 16
v -64 -30 0
v -53 -32 0
v -64 -34 16
v -64 -64 16
v -34 -64 16
v -34 -64 0
v -32 -53 0
v -30 -64 16
v -2 -64 16
v 0 -53 16
v -6 -53 20
v -16 -53 33
v -16 -48 35
v -20 -48 40
v -22 -53 40
v -32 -53 27
v -42 -53 40
v -16 -53 44
v -53 -53 40
v -53 -42 40
v -53 -22 40
v -53 -32 27
v -48 -32 25
v -48 -28 20
v -53 -16 33
v -53 -6 20
v -53 6 20
v -53 32 16
v -64 2 16
v -64 2 0
v -53 0 0
v -64 -2 16
v -64 -2 0
v 16 -53 33
v 6 -53 20
v 26 -53 20
v 28 -48 20
v 16 -48 35
v 4 -48 20
v 32 -53 16
v 38 -53 20
v 36 -48 20
v 32 -48 25
v 20 -48 40
v 12 -48 40
v 0 -48 25
v -4 -48 20
v -12 -48 40
v 48 -53 33
v 56 -53 20
v 58 -48 20
v 48 -48 35
v 44 -48 40
v 42 -53 40
v 32 -53 27
v 22 -53 40
v 48 -53 44
v 16 -53 44
v 10 -53 40
v -10 -53 40
v 0 -53 27
v 64 -53 27
v 64 -53 44
v 54 -53 40
v 52 -48 40
v 64 -48 25
v 64 -48 20
v 64 -53 20
v 64 -53 16
v 62 -64 16
v 62 -64 0
v 64 -53 0
v 30 -64 16
v 30 -64 0
v 32 -53 0
v 34 -64 16
v 34 -64 0
v 2 -64 16
v 0 -53 0
v 2 -64 0
v -2 -64 0
v -30 -64 0
v -53 -32 60
v -59 -30 60
v -59 -30 44
v -53 -32 44
v -53 0 60
v -59 -2 60
v -59 -2 44
v -53 0 44
v -53 32 60
v -59 34 60
v -59 34 44
v -53 32 44
v 0 64 60
v -53 64 60
v -59 62 60
v -59 62 44
v -53 64 44
v -53 48 33
v -53 58 20
v -53 38 20
v -48 36 20
v -48 48 35
v -48 60 20
v -53 64 20
v -53 64 16
v -53 26 20
v -48 28 20
v -48 32 25
v -48 44 40
v -48 52 40
v -48 64 25
v -48 64 20
v -53 16 33
v -48 4 20
v -48 16 35
v -48 20 40
v -53 22 40
v -53 32 27
v -53 42 40
v -53 16 44
v -53 48 44
v -53 54 40
v -53 64 27
v -53 0 27
v -53 -10 40
v -53 10 40
v -48 12 40
v -48 0 25
v -48 -12 40
v -48 -4 20
v -48 -16 35
v -48 -20 40
v -53 -16 44
v -64 -34 0
v -64 -64 0
v -64 34 16
v -64 34 0
v -53 32 0
v -64 30 16
v -64 30 0
v -64 62 16
v -53 64 0
v -64 62 0
v 64 0 208
v 0 0 208
v 0 64 208
v 64 -53 224
v 62 -59 224
v 62 -59 208
v 64 -53 208
v 34 -59 224
v 32 -53 224
v 32 -53 208
v 34 -59 208
v 64 -39 224
v 0 -53 224
v 0 -53 208
v -32 -53 224
v -34 -59 224
v -34 -59 208
v -32 -53 208
v -30 -59 224
v -2 -59 224
v -39 -39 224
v -53 -53 224
v -59 -59 224
v -59 -59 208
v -2 -59 208
v -30 -59 208
v 64 -39 256
v -39 -39 256
v -39 64 224
v -53 32 224
v -53 0 224
v -53 -32 224
v -59 -34 224
v -59 -34 208
v -32 -53 272
v -34 -59 272
v -34 -59 256
v -32 -53 256
v -30 -59 272
v -2 -59 272
v 0 -53 272
v 64 64 272
v -53 -53 272
v -59 -59 272
v -59 -59 256
v -2 -59 256
v 0 -53 256
v 32 -53 272
v 64 -53 272
v 32 -53 256
v 64 -53 256
v -30 -59 256
v -59 -30 224
v -59 -30 208
v -53 -32 208
v -59 -2 224
v -53 0 208
v -59 -2 208
v -53 64 224
v -53 64 208
v -53 32 208
v -39 64 256
v -59 -34 272
v -53 -32 272
v -53 -32 256
v -59 -34 256
v -53 0 272
v -53 0 256
v -53 32 272
v -59 34 272
v -59 34 256
v -53 32 256
v -59 30 272
v -59 2 272
v -53 64 272
v -59 62 272
v -59 62 256
v -53 64 256
v -59 2 256
v -59 30 256
v -24 36 199
v -24 64 202
v -24 64 162
v -24 36 163
v -10 33 162
v -10 34 200
v -10 64 203
v -33 64 121
v -32 37 121
v -32 37 157
v -33 64 159
v -10 34 159
v -10 64 161
v -10 33 120
v -49 36 114
v -49 64 116
v -49 64 60
v -49 36 60
v -10 33 60
v -10 34 115
v -10 64 117
v 64 -24 202
v 37 -24 199
v 37 -24 165
v 64 -24 162
v 35 -10 200
v 34 -10 164
v 64 -10 203
v 37 -29 121
v 64 -33 121
v 64 -33 159
v 37 -29 157
v 35 -10 159
v 34 -10 120
v 64 -10 161
v 64 -49 116
v 40 -45 114
v 37 -49 60
v 64 -49 60
v 35 -10 115
v 34 -10 60
v 64 -10 117
v -56 52 150
v -53 40 148
v -31 55 169
v -51 67 135
v -53 54 134
v -28 60 167
v -37 -46 132
v -21 -45 130
v -32 -29 161
v -40 69 143
v -47 58 140
v -24 52 167
v -44 41 136
v -43 25 139
v -27 47 165
v -6 -56 139
v 5 -52 140
v -17 -30 157

f 1 2 3
f 3 2 4
f 3 4 5
f 5 4 6
f 5 6 7
f 7 6 8
f 9 10 11
f 9 11 12
f 9 12 13
f 9 13 14
f 14 13 15
f 14 15 16
f 16 15 17
f 16 17 18
f 18 17 19
f 20 21 22
f 20 22 23
f 20 23 24
f 20 24 25
f 25 24 26
f 25 26 27
f 27 26 28
f 27 28 29
f 29 28 30
f 31 32 33
f 31 33 34
f 31 34 35
f 31 35 36
f 36 35 37
f 36 37 38
f 38 37 39
f 38 39 40
f 40 39 41
f 42 43 44
f 42 44 45
f 44 43 46
f 44 46 47
f 47 46 48
f 47 48 49
f 49 48 50
f 49 50 51
f 51 50 52
f 53 54 55
f 53 55 56
f 57 58 55
f 57 55 54
f 59 60 58
f 59 58 57
f 61 62 60
f 61 60 59
f 62 61 63
f 64 65 66
f 64 66 67
f 64 67 68
f 64 68 69
f 64 69 70
f 64 70 65
f 65 70 71
f 65 71 66
f 66 71 72
f 72 71 73
f 73 71 74
f 73 74 75
f 73 75 76
f 76 75 77
f 77 75 78
f 77 78 79
f 77 79 80
f 80 79 68
f 68 79 69
f 69 79 70
f 70 79 78
f 70 78 75
f 70 75 74
f 70 74 71
f 81 82 83
f 81 83 84
f 81 84 85
f 81 85 86
f 86 85 87
f 87 85 88
f 87 88 89
f 87 89 90
f 90 89 91
f 91 89 92
f 91 92 93
f 91 93 94
f 94 93 95
f 95 93 96
f 95 96 83
f 95 83 82
f 97 98 99
f 97 99 100
f 97 100 101
f 97 101 102
f 102 101 103
f 103 101 104
f 103 104 105
f 103 105 106
f 106 105 107
f 107 105 108
f 107 108 109
f 107 109 110
f 110 109 111
f 111 109 112
f 111 112 99
f 111 99 98
f 113 114 115
f 113 115 116
f 113 116 117
f 113 117 118
f 113 118 119
f 113 119 114
f 114 119 120
f 114 120 115
f 115 120 121
f 115 121 122
f 115 122 116
f 116 122 123
f 116 123 124
f 116 124 117
f 117 124 125
f 117 125 126
f 117 126 118
f 118 126 119
f 119 126 127
f 119 127 128
f 119 128 129
f 119 129 120
f 120 129 130
f 120 130 121
f 121 130 131
f 121 131 132
f 121 132 122
f 130 129 128
f 130 128 133
f 130 133 131
f 131 133 134
f 134 133 135
f 135 133 136
f 135 136 125
f 135 125 137
f 137 125 124
f 128 127 136
f 128 136 133
f 136 127 126
f 136 126 125
f 138 139 140
f 138 140 141
f 138 141 142
f 138 142 143
f 143 142 144
f 144 142 145
f 144 145 146
f 144 146 147
f 147 146 148
f 148 146 149
f 148 149 150
f 148 150 151
f 151 150 152
f 152 150 153
f 152 153 140
f 152 140 139
f 154 155 156
f 154 156 157
f 154 157 158
f 154 158 159
f 154 159 160
f 154 160 155
f 155 160 161
f 155 161 156
f 156 161 162
f 162 161 163
f 163 161 164
f 163 164 165
f 163 165 166
f 166 165 167
f 167 165 168
f 167 168 169
f 167 169 170
f 170 169 158
f 158 169 159
f 159 169 160
f 160 169 168
f 160 168 165
f 160 165 164
f 160 164 161
f 171 172 173
f 171 173 174
f 171 174 175
f 171 175 176
f 176 175 177
f 177 175 178
f 177 178 179
f 177 179 180
f 180 179 181
f 181 179 182
f 181 182 183
f 181 183 184
f 184 183 185
f 185 183 186
f 185 186 173
f 185 173 172
f 187 188 189
f 187 189 190
f 187 190 191
f 187 191 192
f 192 191 193
f 193 191 194
f 193 194 195
f 193 195 196
f 196 195 197
f 197 195 198
f 197 198 199
f 197 199 200
f 200 199 201
f 201 199 202
f 201 202 189
f 201 189 188
f 203 204 205
f 203 205 206
f 203 206 207
f 203 207 208
f 203 208 209
f 203 209 204
f 204 209 210
f 204 210 205
f 205 210 211
f 205 211 212
f 205 212 206
f 206 212 213
f 206 213 214
f 206 214 207
f 207 214 215
f 207 215 216
f 207 216 208
f 208 216 209
f 209 216 217
f 209 217 218
f 209 218 219
f 209 219 210
f 210 219 220
f 210 220 211
f 211 220 221
f 211 221 222
f 211 222 212
f 220 219 218
f 220 218 223
f 220 223 221
f 221 223 224
f 224 223 225
f 225 223 226
f 225 226 215
f 225 215 227
f 227 215 214
f 218 217 226
f 218 226 223
f 226 217 216
f 226 216 215
f 228 229 230
f 228 230 231
f 228 231 232
f 228 232 233
f 233 232 234
f 234 232 235
f 234 235 236
f 234 236 237
f 237 236 238
f 238 236 239
f 238 239 240
f 238 240 241
f 241 240 242
f 242 240 243
f 242 243 230
f 242 230 229
f 244 245 246
f 244 246 247
f 244 247 248
f 244 248 249
f 244 249 250
f 244 250 245
f 245 250 251
f 245 251 246
f 246 251 252
f 252 251 253
f 253 251 254
f 253 254 255
f 253 255 256
f 256 255 257
f 257 255 258
f 257 258 259
f 257 259 260
f 260 259 248
f 248 259 249
f 249 259 250
f 250 259 258
f 250 258 255
f 250 255 254
f 250 254 251
f 261 262 263
f 261 263 264
f 261 264 265
f 261 265 266
f 266 265 267
f 267 265 268
f 267 268 269
f 267 269 270
f 270 269 271
f 271 269 272
f 271 272 273
f 271 273 274
f 274 273 275
f 275 273 276
f 275 276 263
f 275 263 262
f 277 278 279
f 277 279 280
f 277 280 281
f 277 281 282
f 282 281 283
f 283 281 284
f 283 284 285
f 283 285 286
f 286 285 287
f 287 285 288
f 287 288 289
f 287 289 290
f 290 289 291
f 291 289 292
f 291 292 279
f 291 279 278
f 293 294 295
f 293 295 296
f 293 296 297
f 293 297 298
f 293 298 299
f 293 299 294
f 294 299 300
f 294 300 295
f 295 300 301
f 295 301 302
f 295 302 296
f 296 302 303
f 296 303 304
f 296 304 297
f 297 304 305
f 297 305 306
f 297 306 298
f 298 306 299
f 299 306 307
f 299 307 308
f 299 308 309
f 299 309 300
f 300 309 310
f 300 310 301
f 301 310 311
f 301 311 312
f 301 312 302
f 310 309 308
f 310 308 313
f 310 313 311
f 311 313 314
f 314 313 315
f 315 313 316
f 315 316 305
f 315 305 317
f 317 305 304
f 308 307 316
f 308 316 313
f 316 307 306
f 316 306 305
f 318 319 320
f 318 320 321
f 318 321 322
f 318 322 323
f 323 322 324
f 324 322 325
f 324 325 326
f 324 326 327
f 327 326 328
f 328 326 329
f 328 329 330
f 328 330 331
f 331 330 332
f 332 330 333
f 332 333 320
f 332 320 319
f 334 335 336
f 334 336 337
f 334 337 338
f 334 338 339
f 334 339 340
f 334 340 341
f 334 341 335
f 335 341 342
f 335 342 343
f 335 343 336
f 342 341 344
f 342 344 343
f 341 345 346
f 341 346 344
f 347 348 349
f 347 349 350
f 347 350 345
f 347 345 348
f 348 345 341
f 348 341 340
f 348 340 351
f 348 351 352
f 348 352 349
f 345 350 346
f 353 354 355
f 353 355 356
f 353 356 357
f 353 357 358
f 353 358 354
f 354 358 359
f 354 359 360
f 354 360 355
f 355 360 361
f 355 361 362
f 355 362 363
f 355 363 356
f 356 363 364
f 356 364 357
f 357 364 365
f 357 365 366
f 357 366 367
f 357 367 368
f 357 368 358
f 358 368 369
f 358 369 359
f 359 369 370
f 359 370 371
f 359 371 372
f 359 372 373
f 359 373 374
f 359 374 375
f 359 375 360
f 360 375 376
f 360 376 361
f 361 376 377
f 361 377 378
f 361 378 379
f 361 379 380
f 361 380 381
f 361 381 382
f 361 382 362
f 362 382 383
f 362 383 384
f 362 384 363
f 363 384 385
f 363 385 364
f 364 385 386
f 364 386 387
f 364 387 365
f 365 387 388
f 388 387 386
f 388 386 389
f 388 389 352
f 388 352 390
f 390 352 391
f 391 352 392
f 391 392 393
f 391 393 394
f 391 394 367
f 367 394 368
f 368 394 395
f 368 395 369
f 369 395 396
f 369 396 397
f 369 397 370
f 370 397 398
f 370 398 399
f 370 399 400
f 370 400 401
f 370 401 402
f 370 402 403
f 370 403 371
f 371 403 404
f 371 404 372
f 405 406 407
f 405 407 408
f 405 408 409
f 405 409 406
f 406 409 410
f 406 410 382
f 406 382 381
f 406 381 407
f 407 381 411
f 407 411 412
f 407 412 413
f 407 413 408
f 408 413 414
f 408 414 409
f 409 414 415
f 409 415 416
f 409 416 410
f 410 416 417
f 410 417 418
f 410 418 382
f 382 418 383
f 383 418 384
f 384 418 417
f 384 417 419
f 384 419 385
f 420 412 421
f 420 421 422
f 420 422 423
f 420 423 412
f 412 423 413
f 413 423 424
f 413 424 414
f 414 424 425
f 414 425 426
f 414 426 415
f 415 426 427
f 427 426 425
f 427 425 428
f 427 428 429
f 427 429 430
f 430 429 431
f 430 431 432
f 430 432 417
f 430 417 416
f 433 434 435
f 433 435 436
f 433 436 437
f 437 436 423
f 437 423 422
f 437 422 438
f 438 422 421
f 438 421 439
f 439 421 440
f 440 421 411
f 440 411 441
f 440 441 442
f 440 442 443
f 436 424 423
f 419 417 432
f 419 432 431
f 421 412 411
f 429 389 431
f 431 389 386
f 434 428 435
f 435 428 425
f 411 444 445
f 411 445 446
f 411 446 447
f 411 447 441
f 441 447 448
f 441 448 442
f 449 381 450
f 449 450 451
f 449 451 444
f 449 444 381
f 381 444 411
f 444 451 445
f 447 446 448
f 381 380 452
f 381 452 450
f 379 378 453
f 379 453 380
f 380 453 452
f 454 455 456
f 454 456 457
f 454 457 351
f 454 351 340
f 454 340 458
f 454 458 455
f 455 458 459
f 455 459 460
f 455 460 456
f 459 458 461
f 459 461 460
f 462 463 464
f 462 464 465
f 462 465 458
f 462 458 340
f 462 340 466
f 462 466 467
f 462 467 463
f 463 467 468
f 463 468 469
f 463 469 464
f 468 467 470
f 468 470 469
f 471 472 473
f 471 473 474
f 471 474 475
f 471 475 472
f 472 475 476
f 472 476 477
f 472 477 478
f 472 478 473
f 473 478 399
f 473 399 479
f 473 479 480
f 473 480 474
f 474 480 481
f 474 481 475
f 475 481 482
f 475 482 483
f 475 483 476
f 476 483 484
f 476 484 485
f 476 485 477
f 486 479 398
f 486 398 487
f 486 487 488
f 486 488 479
f 479 488 480
f 480 488 489
f 480 489 481
f 481 489 490
f 481 490 491
f 481 491 482
f 482 491 492
f 492 491 490
f 492 490 493
f 492 493 494
f 492 494 495
f 495 494 470
f 495 470 496
f 495 496 484
f 495 484 483
f 497 498 499
f 497 499 500
f 497 500 501
f 497 501 498
f 498 501 502
f 502 501 503
f 502 503 504
f 502 504 505
f 505 504 394
f 505 394 393
f 505 393 392
f 488 500 489
f 500 488 501
f 501 488 487
f 501 487 503
f 503 487 398
f 503 398 397
f 503 397 504
f 504 397 396
f 504 396 395
f 504 395 394
f 398 479 399
f 506 493 499
f 506 499 498
f 506 498 392
f 506 392 352
f 493 490 499
f 403 402 404
f 374 373 507
f 374 507 375
f 375 507 508
f 375 508 376
f 376 508 377
f 399 509 510
f 399 510 511
f 399 511 512
f 399 512 400
f 400 512 513
f 400 513 401
f 514 478 515
f 514 515 516
f 514 516 509
f 514 509 478
f 478 509 399
f 509 516 510
f 512 511 513
f 340 339 517
f 340 517 518
f 340 518 466
f 466 518 519
f 520 521 522
f 520 522 523
f 524 525 526
f 524 526 527
f 524 527 521
f 524 521 525
f 525 521 520
f 525 520 528
f 525 528 529
f 525 529 530
f 525 530 526
f 521 527 522
f 531 532 533
f 531 533 534
f 531 534 535
f 531 535 536
f 531 536 529
f 531 529 537
f 531 537 538
f 531 538 532
f 532 538 539
f 532 539 540
f 532 540 533
f 529 536 541
f 529 541 530
f 535 534 542
f 535 542 536
f 536 542 541
f 529 528 537
f 537 528 543
f 537 543 544
f 537 544 545
f 537 545 546
f 537 546 547
f 537 547 548
f 537 548 538
f 538 548 539
f 539 548 549
f 539 549 550
f 539 550 540
f 551 552 553
f 551 553 554
f 551 554 555
f 551 555 556
f 551 556 557
f 551 557 558
f 551 558 559
f 551 559 552
f 552 559 560
f 552 560 561
f 552 561 553
f 557 556 562
f 557 562 563
f 557 563 564
f 557 564 558
f 558 564 565
f 565 564 566
f 565 566 567
f 555 554 568
f 555 568 556
f 556 568 562
f 548 569 570
f 548 570 571
f 548 571 549
f 549 571 550
f 572 547 573
f 572 573 574
f 572 574 569
f 572 569 547
f 547 569 548
f 569 574 570
f 575 546 545
f 546 575 576
f 546 576 577
f 546 577 547
f 547 577 573
f 545 544 578
f 579 580 581
f 579 581 582
f 579 582 560
f 579 560 580
f 580 560 559
f 580 559 558
f 580 558 583
f 580 583 584
f 580 584 581
f 560 582 561
f 585 586 587
f 585 587 588
f 585 588 589
f 585 589 590
f 585 590 583
f 585 583 558
f 585 558 591
f 585 591 586
f 586 591 592
f 586 592 593
f 586 593 587
f 592 591 594
f 592 594 593
f 583 590 595
f 583 595 584
f 589 588 596
f 589 596 590
f 590 596 595
f 597 598 599
f 597 599 600
f 597 600 601
f 597 601 602
f 597 602 603
f 597 603 598
f 604 605 606
f 604 606 607
f 607 606 608
f 607 608 609
f 610 608 606
f 610 606 605
f 611 612 613
f 611 613 614
f 611 614 615
f 611 615 616
f 611 616 617
f 611 617 612
f 618 619 620
f 618 620 621
f 622 623 620
f 622 620 619
f 622 619 618
f 622 618 624
f 625 626 627
f 625 627 628
f 625 628 629
f 625 629 630
f 631 629 628
f 631 628 627
f 632 633 634
f 632 634 635
f 636 637 634
f 636 634 633
f 636 633 632
f 636 632 638
f 338 337 434
f 458 465 461
f 351 457 352
f 564 563 566
f 639 640 641
f 642 643 644
f 645 646 647
