# RS2 Model 21361
# Vertices: 225
# Faces: 296

v -53 -32 16
v -64 -30 16
v -64 -30 0
v -53 -32 0
v -64 -34 16
v -64 -62 16
v -53 -64 16
v -53 -56 20
v -53 -38 20
v -53 -26 20
v -53 0 16
v -64 -2 16
v -64 -2 0
v -53 0 0
v -64 -62 0
v -53 -64 0
v -64 -34 0
v -53 32 16
v -64 34 16
v -64 34 0
v -53 32 0
v -64 30 16
v -64 2 16
v -53 6 20
v -53 26 20
v -53 38 20
v -53 64 16
v -64 62 16
v -64 62 0
v -53 64 0
v -64 2 0
v -64 30 0
v -53 48 33
v -53 58 20
v -48 36 20
v -48 48 35
v -48 60 20
v -53 64 20
v -53 16 33
v -48 4 20
v -48 16 35
v -48 28 20
v -48 32 25
v -48 44 40
v -48 52 40
v -48 64 25
v -48 64 20
v -53 -16 33
v -53 -6 20
v -48 -28 20
v -48 -16 35
v -48 -4 20
v -53 -48 33
v -48 -58 20
v -48 -48 35
v -48 -36 20
v -48 -32 25
v -48 -20 40
v -48 -12 40
v -48 0 25
v -53 -32 27
v -53 -42 40
v -53 -22 40
v -48 -44 40
v -48 -52 40
v -48 -64 25
v -53 -64 27
v -53 -54 40
v -53 -64 44
v -53 -48 44
v -53 -32 44
v -53 -16 44
v -53 -10 40
v -53 0 44
v -53 10 40
v -53 0 27
v -53 32 27
v -53 22 40
v -53 42 40
v -48 20 40
v -48 12 40
v -53 64 27
v -53 54 40
v -53 64 44
v -53 48 44
v -53 64 60
v -53 32 60
v 0 64 60
v -53 0 60
v 0 -64 60
v 0 -64 208
v 0 64 208
v -48 -64 20
v -53 -64 20
v -53 32 44
v -59 30 60
v -59 2 60
v -59 2 44
v -53 -32 60
v -53 -64 60
v -59 -62 60
v -59 -62 44
v -53 16 44
v -59 -34 60
v -59 -34 44
v -59 30 44
v -24 46 199
v -24 64 202
v -24 64 162
v -24 46 163
v -10 43 162
v -10 44 200
v -10 64 203
v -24 -64 202
v -24 -32 199
v -24 -32 165
v -24 -64 162
v -10 -30 200
v -10 -29 164
v -10 -64 203
v -33 64 121
v -32 14 116
v -32 17 152
v -33 64 159
v -10 14 154
v -10 64 161
v -10 10 115
v -29 -46 121
v -33 -64 121
v -33 -64 159
v -29 -46 157
v -10 -44 159
v -10 -43 120
v -10 -64 161
v -49 46 114
v -49 64 116
v -49 64 60
v -49 46 60
v -10 43 60
v -10 44 115
v -10 64 117
v -49 -64 116
v -45 -20 114
v -49 -17 60
v -49 -64 60
v -10 -15 115
v -10 -14 60
v -10 -64 117
v -53 -32 224
v -59 -30 224
v -59 -30 208
v -53 -32 208
v -59 -34 224
v -59 -62 224
v -53 -64 224
v -39 -64 224
v -53 0 224
v -59 -2 224
v -59 -2 208
v -53 0 208
v -59 -62 208
v -53 -64 208
v -59 -34 208
v -53 32 224
v -59 34 224
v -59 34 208
v -53 32 208
v -39 64 224
v -53 64 224
v -59 62 224
v -59 62 208
v -53 64 208
v -39 -64 256
v -39 64 256
v -53 -64 272
v -59 -62 272
v -59 -62 256
v -53 -64 256
v -59 -34 272
v -53 -32 272
v -53 -32 256
v -59 -34 256
v 0 -64 272
v -53 0 272
v -53 0 256
v -59 2 256
v -59 2 272
v -59 30 256
v -59 30 272
v -53 32 256
v -53 32 272
v -59 34 256
v -59 34 272
v -59 62 256
v -59 62 272
v -53 64 256
v -53 64 272
v -2 6 272
v 31 6 272
v 64 64 272
v 64 -64 272
v 64 -64 0
v 64 64 0
v 10 -64 251
v 10 0 251
v 11 4 263
v 14 6 267
v 17 6 267
v 20 4 263
v 21 0 251
v 21 -64 251
v 32 -64 272
v -35 3 115
v -38 -41 119
v -38 -38 158
v -35 3 154
v -10 6 156
v -10 7 116
v -10 -39 160
v 109 107 272
v -120 110 272
v 106 -131 272
v -12 21 251
v -12 -85 251
v 43 21 251

f 1 2 3
f 1 3 4
f 1 4 5
f 1 5 6
f 1 6 7
f 1 7 8
f 1 8 9
f 1 9 10
f 1 10 11
f 1 11 2
f 2 11 12
f 2 12 13
f 2 13 3
f 12 11 14
f 12 14 13
f 7 6 15
f 7 15 16
f 5 4 17
f 5 17 6
f 6 17 15
f 18 19 20
f 18 20 21
f 18 21 22
f 18 22 23
f 18 23 11
f 18 11 24
f 18 24 25
f 18 25 26
f 18 26 27
f 18 27 19
f 19 27 28
f 19 28 29
f 19 29 20
f 28 27 30
f 28 30 29
f 11 23 31
f 11 31 14
f 22 21 32
f 22 32 23
f 23 32 31
f 33 34 26
f 33 26 35
f 33 35 36
f 33 36 34
f 34 36 37
f 34 37 38
f 34 38 27
f 34 27 26
f 39 25 24
f 39 24 40
f 39 40 41
f 39 41 25
f 25 41 42
f 25 42 26
f 26 42 35
f 35 42 43
f 35 43 36
f 36 43 44
f 36 44 45
f 36 45 37
f 37 45 46
f 37 46 47
f 37 47 38
f 48 49 10
f 48 10 50
f 48 50 51
f 48 51 49
f 49 51 52
f 49 52 24
f 49 24 11
f 49 11 10
f 53 9 8
f 53 8 54
f 53 54 55
f 53 55 9
f 9 55 56
f 9 56 10
f 10 56 50
f 50 56 57
f 50 57 51
f 51 57 58
f 51 58 59
f 51 59 52
f 52 59 60
f 52 60 40
f 52 40 24
f 61 62 63
f 61 63 58
f 61 58 57
f 61 57 62
f 62 57 64
f 64 57 56
f 64 56 55
f 64 55 65
f 65 55 66
f 65 66 67
f 65 67 68
f 68 67 69
f 68 69 70
f 68 70 62
f 62 70 71
f 62 71 63
f 63 71 72
f 63 72 73
f 73 72 74
f 73 74 75
f 73 75 76
f 73 76 60
f 73 60 59
f 77 78 79
f 77 79 44
f 77 44 43
f 77 43 78
f 78 43 80
f 80 43 42
f 80 42 41
f 80 41 81
f 81 41 60
f 81 60 76
f 81 76 75
f 82 83 84
f 84 83 85
f 84 85 86
f 86 85 87
f 86 87 88
f 88 87 89
f 88 89 90
f 88 90 91
f 88 91 92
f 93 66 54
f 93 54 8
f 93 8 94
f 94 8 7
f 55 54 66
f 41 40 60
f 46 45 83
f 46 83 82
f 85 83 79
f 85 79 95
f 85 95 87
f 87 95 96
f 87 96 97
f 87 97 89
f 89 97 98
f 89 98 74
f 89 74 72
f 89 72 99
f 89 99 90
f 90 99 100
f 100 99 101
f 100 101 102
f 100 102 69
f 103 78 75
f 103 75 74
f 95 79 78
f 95 78 103
f 104 99 71
f 104 71 105
f 104 105 101
f 104 101 99
f 101 105 102
f 96 95 106
f 96 106 97
f 97 106 98
f 99 72 71
f 107 108 109
f 107 109 110
f 107 110 111
f 107 111 112
f 107 112 113
f 107 113 108
f 114 115 116
f 114 116 117
f 118 119 116
f 118 116 115
f 118 115 114
f 118 114 120
f 121 122 123
f 121 123 124
f 124 123 125
f 124 125 126
f 127 125 123
f 127 123 122
f 128 129 130
f 128 130 131
f 128 131 132
f 128 132 133
f 134 132 131
f 134 131 130
f 135 136 137
f 135 137 138
f 135 138 139
f 135 139 140
f 135 140 141
f 135 141 136
f 142 143 144
f 142 144 145
f 146 147 144
f 146 144 143
f 146 143 142
f 146 142 148
f 149 150 151
f 149 151 152
f 149 152 153
f 149 153 154
f 149 154 155
f 149 155 156
f 149 156 157
f 149 157 150
f 150 157 158
f 150 158 159
f 150 159 151
f 158 157 160
f 158 160 159
f 155 154 161
f 155 161 162
f 153 152 163
f 153 163 154
f 154 163 161
f 164 165 166
f 164 166 167
f 164 167 160
f 164 160 157
f 164 157 168
f 164 168 169
f 164 169 165
f 165 169 170
f 165 170 171
f 165 171 166
f 170 169 172
f 170 172 171
f 157 156 168
f 168 156 173
f 168 173 174
f 175 176 177
f 175 177 178
f 179 180 181
f 179 181 182
f 179 182 176
f 179 176 180
f 180 176 175
f 180 175 183
f 180 183 184
f 180 184 181
f 181 184 185
f 185 184 186
f 186 184 187
f 186 187 188
f 188 187 189
f 188 189 190
f 190 189 191
f 190 191 192
f 192 191 193
f 192 193 194
f 194 193 195
f 194 195 196
f 196 195 197
f 197 195 193
f 197 193 191
f 197 191 198
f 197 198 199
f 197 199 200
f 200 199 201
f 200 201 202
f 200 202 203
f 176 182 177
f 191 189 187
f 191 187 184
f 191 184 198
f 198 184 183
f 198 183 204
f 198 204 205
f 198 205 206
f 198 206 207
f 198 207 199
f 199 207 208
f 199 208 209
f 199 209 210
f 199 210 211
f 199 211 212
f 199 212 201
f 205 204 211
f 205 211 210
f 205 210 209
f 205 209 206
f 206 209 208
f 206 208 207
f 213 214 215
f 213 215 216
f 213 216 217
f 213 217 218
f 219 217 216
f 219 216 215
f 219 215 133
f 133 215 214
f 220 221 222
