# RS2 Model 21379
# Vertices: 758
# Faces: 1498

v -25 -26 225
v -22 -31 241
v -37 -23 237
v -54 -17 237
v -54 -22 236
v -28 -32 225
v -26 -32 225
v -20 -31 241
v -13 -36 253
v -11 -16 263
v -20 -12 258
v -37 -28 245
v -58 -12 247
v -59 -17 247
v -62 -23 227
v -23 -36 210
v -21 -36 210
v -11 -52 215
v -13 -49 226
v -13 -49 239
v -9 -51 248
v 0 -39 259
v 0 -25 267
v 0 -2 273
v -13 -1 267
v -35 -8 296
v -41 -11 288
v -19 -2 261
v -35 -18 262
v -55 -12 259
v -72 9 254
v -70 -2 247
v -66 -16 236
v -62 -19 223
v -72 -5 191
v -23 -31 176
v -9 -46 197
v -7 -54 210
v -5 -68 212
v -18 -78 218
v -8 -86 213
v -9 -86 216
v -9 -85 220
v -12 -77 233
v -18 -53 210
v -18 -53 182
v -19 -60 183
v -19 -70 180
v -8 -78 182
v -15 -61 150
v -18 -54 150
v -19 -59 146
v -19 -61 151
v -19 -71 148
v -19 -73 148
v -8 -79 150
v -12 -69 150
v -18 -72 125
v -17 -65 128
v -17 -56 139
v -18 -50 133
v 44 -12 50
v 41 7 15
v 73 19 16
v 72 -2 51
v 62 -8 65
v 44 -12 64
v 28 9 47
v 32 22 14
v 32 22 -2
v 36 -15 -2
v 42 -16 8
v 57 -16 9
v 65 -9 8
v 78 -1 8
v 73 37 -2
v 59 52 -2
v 59 41 16
v 60 39 49
v 57 41 60
v 70 2 66
v 56 2 100
v 40 8 97
v 29 11 55
v 32 34 48
v 36 37 15
v 36 47 -2
v 78 1 -2
v 55 -13 -2
v 57 -26 -3
v 38 -30 -3
v 42 -26 8
v 53 -25 8
v 60 -25 -2
v 61 -22 9
v 66 -17 8
v 64 -6 -2
v 70 -16 -2
v 70 -13 8
v 81 -8 8
v 11 -52 215
v 7 -54 210
v 9 -46 197
v 21 -36 210
v 13 -49 226
v 14 -53 230
v 18 -53 210
v 18 -78 218
v 19 -60 183
v 18 -53 182
v 8 -78 182
v 19 -70 180
v 19 -71 148
v 19 -61 151
v 19 -59 146
v 18 -54 150
v 15 -61 150
v 12 -69 150
v 8 -79 150
v 19 -73 148
v 18 -72 125
v 17 -65 128
v 17 -56 139
v 18 -50 133
v 26 -32 225
v 13 -49 239
v 13 -55 246
v 15 -69 246
v 12 -77 233
v 9 -86 216
v 8 -86 213
v 5 -68 212
v 20 -31 241
v 9 -51 248
v 10 -55 249
v 12 -69 253
v 13 -80 247
v 10 -90 235
v 7 -92 232
v 6 -87 226
v 9 -85 220
v 8 -85 220
v 8 -86 216
v 4 -93 209
v 0 -68 212
v 0 -54 209
v 0 -50 194
v 0 -38 181
v 23 -31 176
v 23 -36 210
v 28 -32 225
v 25 -26 225
v 22 -31 241
v 13 -36 253
v 0 -53 252
v 0 -58 251
v 0 -73 258
v 0 -93 254
v 10 -82 251
v 7 -92 240
v 7 -91 237
v 6 -92 234
v 3 -95 235
v 3 -94 232
v 2 -94 229
v 5 -91 224
v 6 -89 220
v -10 -55 249
v -12 -69 253
v -10 -82 251
v -3 -91 250
v 0 -101 237
v 3 -91 250
v 1 -96 234
v 2 -98 231
v 0 -98 229
v 0 -100 226
v 3 -93 226
v 3 -93 224
v 4 -92 223
v 5 -90 221
v 6 -90 217
v 3 -96 217
v 0 -99 217
v 0 -97 209
v -4 -93 209
v 0 -27 172
v 18 -14 164
v 72 -5 191
v 62 -19 223
v 62 -23 227
v 54 -22 236
v 54 -17 237
v 37 -23 237
v 37 -28 245
v 35 -18 262
v 20 -12 258
v 11 -16 263
v 13 -1 267
v 13 19 267
v 0 39 270
v -13 19 267
v -43 -3 289
v -72 -2 298
v -69 -8 311
v -70 -11 299
v 0 -98 235
v 0 -101 230
v -2 -94 229
v -3 -93 226
v -3 -93 224
v 0 -98 224
v 0 -96 222
v 3 -95 219
v 0 -98 219
v -3 -95 219
v -3 -96 217
v -6 -90 217
v 5 -91 218
v 3 -94 220
v 0 -96 220
v -3 -94 220
v 5 -85 120
v 8 -80 123
v 66 -16 236
v 59 -17 247
v 58 -12 247
v 55 -12 259
v 41 2 272
v 19 -2 261
v 43 -3 289
v 41 -11 288
v 35 -8 296
v 17 11 260
v 54 26 296
v 20 27 261
v 20 74 248
v 0 82 234
v -20 74 248
v -20 27 261
v -58 35 288
v -54 26 296
v -58 26 287
v -17 11 260
v -41 40 268
v -41 2 272
v -66 36 252
v -89 9 256
v -90 -9 236
v -75 -8 239
v -67 -16 230
v -68 -28 222
v -81 -14 190
v -87 -18 168
v -83 1 169
v -89 43 206
v -64 32 194
v -53 9 186
v -18 -14 164
v -18 0 172
v 0 -19 174
v 18 0 172
v 53 9 186
v 64 32 194
v 89 43 206
v 100 34 158
v 83 1 169
v 81 -14 190
v 68 -28 222
v 67 -16 230
v 75 -11 234
v 75 -8 239
v 70 -2 247
v 72 9 254
v 66 36 252
v 41 40 268
v 58 35 288
v 58 26 287
v 101 35 277
v 102 38 288
v 0 -7 158
v 20 16 163
v 24 33 144
v 50 38 155
v 53 72 163
v 35 77 222
v 66 52 221
v 90 52 221
v 117 34 202
v 132 37 174
v 136 30 151
v 112 34 137
v 96 1 149
v 87 -18 168
v 114 -21 177
v 102 -14 192
v 104 -18 197
v 94 -28 228
v 0 0 158
v 0 2 149
v 0 14 144
v 0 12 138
v 24 40 135
v 33 50 138
v 21 86 143
v 0 82 178
v 0 84 198
v 16 67 220
v 16 80 232
v 35 81 234
v 89 36 254
v 109 36 246
v 117 42 217
v 122 -8 199
v 136 0 173
v 146 -1 149
v 151 -7 115
v 143 26 115
v 130 23 113
v 107 -4 128
v 105 -6 145
v 100 -15 149
v 120 -16 158
v 110 -8 231
v 90 -9 236
v 89 9 256
v 29 70 247
v 0 78 222
v -16 67 220
v -16 80 232
v -31 77 240
v -38 89 283
v -45 89 275
v -29 70 247
v 0 16 129
v 31 40 128
v 41 50 132
v 21 87 133
v 0 94 146
v -21 86 143
v -53 72 163
v -35 77 222
v -35 81 234
v -44 98 276
v -71 108 285
v -70 101 298
v -72 98 286
v -75 99 288
v -73 108 287
v -74 102 297
v -99 118 278
v -94 115 271
v -91 124 271
v -113 138 241
v -127 132 243
v -116 125 240
v -117 127 238
v -115 136 240
v -125 132 240
v -105 143 202
v -99 137 199
v -95 146 201
v -72 157 156
v -85 151 156
v -77 144 156
v -74 143 150
v -64 154 143
v -86 154 149
v -75 155 116
v 0 14 118
v 31 26 120
v 41 50 122
v 21 83 119
v 0 100 134
v -21 87 133
v -33 50 138
v -50 38 155
v -66 52 221
v 19 19 114
v 60 31 107
v 52 60 95
v 33 80 93
v 16 86 82
v 9 83 101
v 0 95 120
v -21 83 119
v -41 50 132
v -24 40 135
v -24 33 144
v -20 16 163
v 0 19 115
v 0 25 96
v 9 30 98
v 15 30 82
v 28 3 76
v 0 67 85
v 9 65 90
v 32 36 58
v 0 88 100
v -9 83 101
v -33 80 93
v -52 60 95
v -41 50 122
v -31 40 128
v 53 -16 84
v 67 28 91
v 72 32 71
v 52 68 67
v 24 85 72
v 19 93 52
v 119 9 241
v 125 -9 155
v 138 -12 139
v 142 -10 115
v 143 -13 114
v 157 -4 113
v 145 27 114
v 129 28 111
v 121 -3 113
v 132 -8 114
v 139 -9 96
v 140 -11 95
v 154 -7 90
v 146 26 90
v 131 23 89
v 118 -4 112
v 132 -10 113
v 121 0 89
v 139 -9 90
v 138 -10 78
v 138 -11 67
v 153 -10 69
v 152 2 68
v 151 11 67
v 150 23 67
v 130 23 78
v 123 -4 88
v 120 0 78
v 122 -6 77
v 127 -15 72
v 139 -22 75
v 136 -12 69
v 138 1 66
v 138 -2 54
v 138 -12 55
v 151 -7 51
v 138 1 50
v 154 10 49
v 138 12 66
v 138 15 51
v 150 19 51
v 138 24 66
v 138 12 48
v 135 12 31
v 135 2 31
v 148 7 31
v 138 25 51
v 133 25 37
v 133 17 36
v 145 22 35
v 147 -8 36
v 138 -5 39
v 138 -14 40
v 135 -17 57
v 128 -18 62
v 138 -27 61
v 69 -18 -2
v 84 -9 -2
v 69 -8 311
v 72 -2 298
v 70 -11 299
v 73 -11 301
v 72 -8 310
v 74 -3 300
v 121 -3 296
v 120 -11 298
v 120 -8 307
v 159 -8 292
v 155 -1 279
v 154 -13 281
v 157 -12 281
v 160 -8 289
v 157 -3 280
v 185 -3 255
v 185 -12 255
v 192 -8 261
v 215 -8 225
v 208 -2 219
v 208 -13 219
v 211 -15 212
v 222 -7 222
v 211 2 211
v 214 -5 201
v 241 -13 193
v 99 45 276
v 102 45 277
v 104 36 278
v 106 39 287
v 130 55 250
v 121 61 245
v 123 52 245
v 138 62 198
v 148 69 203
v 135 74 199
v 137 73 199
v 140 64 196
v 147 69 199
v 132 80 138
v 122 83 136
v 126 74 135
v 100 81 85
v 108 88 85
v 94 94 85
v 96 79 78
v 109 91 77
v 98 92 44
v 87 91 72
v 31 77 240
v 44 98 276
v 45 89 275
v 38 89 283
v 71 108 285
v 72 98 286
v 70 101 298
v 74 102 297
v 73 108 287
v 75 99 288
v 94 115 271
v 99 118 278
v 91 124 271
v 113 138 241
v 116 125 240
v 127 132 243
v 125 132 240
v 115 136 240
v 117 127 238
v 99 137 199
v 105 143 202
v 95 146 201
v 72 157 156
v 77 144 156
v 85 151 156
v 86 154 149
v 75 155 116
v 64 154 143
v 74 143 150
v -41 7 15
v -44 -12 50
v -72 -2 51
v -73 19 16
v -65 -9 8
v -57 -16 9
v -42 -16 8
v -32 22 -2
v -32 22 14
v -28 9 47
v -44 -12 64
v -62 -8 65
v -70 2 66
v -57 41 60
v -60 39 49
v -59 41 16
v -73 37 -2
v -78 1 -2
v -78 -1 8
v -81 -8 8
v -70 -13 8
v -64 -6 -2
v -69 -18 -2
v -66 -17 8
v -61 -22 9
v -55 -13 -2
v -57 -26 -3
v -53 -25 8
v -42 -26 8
v -36 -15 -2
v -59 52 -2
v -36 47 -2
v -36 37 15
v -32 34 48
v -32 36 58
v -29 11 55
v -15 30 82
v -40 8 97
v -56 2 100
v -60 31 107
v -7 -92 240
v -7 -91 237
v -3 -95 235
v -1 -96 234
v -2 -98 231
v -3 -94 232
v -6 -87 226
v -5 -91 224
v -4 -92 223
v -5 -90 221
v -10 -90 235
v -6 -92 234
v -7 -92 232
v -8 -85 220
v -6 -89 220
v -8 -86 216
v -5 -91 218
v -13 -80 247
v -15 -69 246
v -13 -55 246
v -14 -53 230
v -4 -90 220
v 0 -96 221
v 4 -90 220
v -8 -80 123
v -5 -85 120
v -75 -11 234
v -94 -28 228
v -104 -18 197
v -102 -14 192
v -114 -21 177
v -120 -16 158
v -100 -15 149
v -96 1 149
v -100 34 158
v -117 34 202
v -117 42 217
v -90 52 221
v -19 19 114
v -31 26 120
v -9 30 98
v -67 28 91
v -72 32 71
v -9 65 90
v -16 86 82
v -24 85 72
v -19 93 52
v -28 3 76
v -53 -16 84
v -52 68 67
v -70 -16 -2
v -84 -9 -2
v -110 -8 231
v -122 -8 199
v -136 0 173
v -125 -9 155
v -105 -6 145
v -107 -4 128
v -112 34 137
v -132 37 174
v -109 36 246
v -89 36 254
v -119 9 241
v -136 30 151
v -146 -1 149
v -138 -12 139
v -121 -3 113
v -130 23 113
v -132 -8 114
v -132 -10 113
v -118 -4 112
v -129 28 111
v -143 26 115
v -151 -7 115
v -142 -10 115
v -139 -9 96
v -140 -11 95
v -121 0 89
v -131 23 89
v -145 27 114
v -157 -4 113
v -143 -13 114
v -154 -7 90
v -139 -9 90
v -123 -4 88
v -122 -6 77
v -120 0 78
v -130 23 78
v -146 26 90
v -150 23 67
v -151 11 67
v -152 2 68
v -153 -10 69
v -138 -11 67
v -138 -10 78
v -136 -12 69
v -139 -22 75
v -127 -15 72
v -138 1 66
v -138 12 66
v -138 24 66
v -138 25 51
v -150 19 51
v -138 12 48
v -154 10 49
v -138 -2 54
v -151 -7 51
v -138 -12 55
v -138 -14 40
v -138 -5 39
v -147 -8 36
v -138 1 50
v -135 2 31
v -135 12 31
v -148 7 31
v -138 15 51
v -133 17 36
v -133 25 37
v -145 22 35
v -128 -18 62
v -135 -17 57
v -138 -27 61
v -38 -30 -3
v -60 -25 -2
v -73 -11 301
v -74 -3 300
v -72 -8 310
v -120 -8 307
v -120 -11 298
v -121 -3 296
v -155 -1 279
v -159 -8 292
v -154 -13 281
v -157 -12 281
v -157 -3 280
v -160 -8 289
v -192 -8 261
v -185 -12 255
v -185 -3 255
v -208 -2 219
v -215 -8 225
v -208 -13 219
v -211 -15 212
v -211 2 211
v -222 -7 222
v -241 -13 193
v -214 -5 201
v -101 35 277
v -99 45 276
v -102 38 288
v -106 39 287
v -104 36 278
v -102 45 277
v -121 61 245
v -130 55 250
v -123 52 245
v -138 62 198
v -135 74 199
v -148 69 203
v -147 69 199
v -140 64 196
v -137 73 199
v -122 83 136
v -132 80 138
v -126 74 135
v -100 81 85
v -94 94 85
v -108 88 85
v -109 91 77
v -96 79 78
v -87 91 72
v -98 92 44

f 1 2 3
f 1 3 4
f 1 4 5
f 1 5 6
f 1 6 7
f 1 7 8
f 1 8 2
f 2 8 9
f 2 9 10
f 2 10 11
f 2 11 12
f 2 12 3
f 3 12 13
f 3 13 4
f 4 13 14
f 4 14 5
f 5 14 15
f 5 15 16
f 5 16 6
f 6 16 17
f 6 17 7
f 7 17 18
f 7 18 19
f 7 19 8
f 8 19 20
f 8 20 9
f 9 20 21
f 9 21 22
f 9 22 23
f 9 23 10
f 10 23 24
f 10 24 25
f 10 25 26
f 10 26 11
f 11 26 27
f 11 27 28
f 11 28 29
f 11 29 12
f 12 29 13
f 13 29 30
f 13 30 31
f 13 31 32
f 13 32 14
f 14 32 33
f 14 33 15
f 15 33 34
f 15 34 16
f 16 34 35
f 16 35 36
f 16 36 37
f 16 37 17
f 17 37 38
f 17 38 18
f 18 38 39
f 18 39 40
f 40 39 41
f 40 41 42
f 40 42 43
f 40 43 44
f 40 44 45
f 40 45 46
f 40 46 47
f 40 47 48
f 40 48 49
f 40 49 45
f 45 49 46
f 46 49 50
f 46 50 51
f 46 51 47
f 47 51 52
f 47 52 53
f 47 53 48
f 48 53 54
f 48 54 55
f 48 55 49
f 49 55 56
f 49 56 57
f 49 57 50
f 50 57 58
f 50 58 59
f 50 59 53
f 50 53 52
f 50 52 60
f 50 60 51
f 51 60 61
f 51 61 52
f 52 61 60
f 62 63 64
f 62 64 65
f 62 65 66
f 62 66 67
f 62 67 68
f 62 68 63
f 63 68 69
f 63 69 70
f 63 70 71
f 63 71 72
f 63 72 73
f 63 73 64
f 64 73 74
f 64 74 75
f 64 75 76
f 64 76 77
f 64 77 78
f 64 78 79
f 64 79 65
f 65 79 80
f 65 80 81
f 65 81 66
f 66 81 82
f 66 82 83
f 66 83 67
f 67 83 84
f 67 84 68
f 68 84 85
f 68 85 86
f 68 86 69
f 69 86 87
f 69 87 70
f 70 87 77
f 70 77 76
f 70 76 71
f 71 76 88
f 71 88 89
f 71 89 90
f 71 90 91
f 71 91 72
f 72 91 92
f 72 92 73
f 73 92 93
f 73 93 89
f 73 89 94
f 73 94 95
f 73 95 74
f 74 95 96
f 74 96 97
f 74 97 98
f 74 98 99
f 74 99 75
f 75 99 100
f 75 100 88
f 75 88 76
f 101 102 103
f 101 103 104
f 101 104 105
f 101 105 106
f 101 106 107
f 107 106 108
f 107 108 109
f 107 109 110
f 107 110 108
f 108 110 111
f 108 111 112
f 108 112 109
f 109 112 113
f 109 113 114
f 109 114 115
f 109 115 110
f 110 115 116
f 110 116 111
f 111 116 117
f 111 117 118
f 111 118 119
f 111 119 112
f 112 119 120
f 112 120 113
f 113 120 118
f 113 118 121
f 113 121 114
f 114 121 122
f 114 122 117
f 114 117 115
f 115 117 123
f 115 123 116
f 116 123 124
f 116 124 117
f 117 124 123
f 105 104 125
f 105 125 126
f 105 126 127
f 105 127 106
f 106 127 128
f 106 128 129
f 106 129 108
f 108 129 130
f 108 130 131
f 108 131 132
f 108 132 102
f 108 102 101
f 126 125 133
f 126 133 134
f 126 134 135
f 126 135 127
f 127 135 128
f 128 135 136
f 128 136 137
f 128 137 129
f 129 137 138
f 129 138 139
f 129 139 140
f 129 140 141
f 129 141 130
f 130 141 142
f 130 142 143
f 130 143 131
f 131 143 144
f 131 144 132
f 132 144 145
f 132 145 146
f 132 146 102
f 102 146 147
f 102 147 103
f 103 147 148
f 103 148 149
f 103 149 150
f 103 150 104
f 104 150 151
f 104 151 125
f 125 151 152
f 125 152 153
f 125 153 133
f 133 153 154
f 133 154 134
f 134 154 155
f 134 155 156
f 134 156 135
f 135 156 157
f 135 157 136
f 136 157 158
f 136 158 159
f 136 159 137
f 137 159 138
f 138 159 160
f 138 160 161
f 138 161 162
f 138 162 139
f 139 162 163
f 139 163 164
f 139 164 140
f 140 164 165
f 140 165 166
f 140 166 167
f 140 167 142
f 140 142 141
f 155 154 22
f 155 22 21
f 155 21 168
f 155 168 156
f 156 168 169
f 156 169 157
f 157 169 170
f 157 170 158
f 158 170 171
f 158 171 172
f 158 172 173
f 158 173 159
f 159 173 172
f 159 172 160
f 160 172 163
f 160 163 161
f 161 163 162
f 163 172 174
f 163 174 175
f 163 175 164
f 164 175 165
f 165 175 176
f 165 176 177
f 165 177 178
f 165 178 166
f 166 178 179
f 166 179 180
f 166 180 167
f 167 180 181
f 167 181 182
f 167 182 142
f 142 182 143
f 143 182 144
f 144 182 183
f 144 183 184
f 144 184 185
f 144 185 145
f 145 185 186
f 145 186 39
f 145 39 38
f 145 38 146
f 146 38 37
f 146 37 147
f 147 37 36
f 147 36 148
f 148 36 187
f 148 187 149
f 149 187 188
f 149 188 189
f 149 189 150
f 150 189 190
f 150 190 191
f 150 191 151
f 151 191 192
f 151 192 193
f 151 193 152
f 152 193 194
f 152 194 153
f 153 194 195
f 153 195 196
f 153 196 197
f 153 197 154
f 154 197 198
f 154 198 22
f 22 198 23
f 23 198 199
f 23 199 24
f 24 199 200
f 24 200 201
f 24 201 25
f 25 201 202
f 25 202 28
f 25 28 203
f 25 203 26
f 26 203 204
f 26 204 205
f 26 205 27
f 27 205 206
f 27 206 203
f 27 203 28
f 174 172 207
f 174 207 208
f 174 208 175
f 175 208 176
f 176 208 209
f 176 209 210
f 176 210 177
f 177 210 211
f 177 211 212
f 177 212 178
f 178 212 179
f 179 212 213
f 179 213 181
f 179 181 180
f 183 182 214
f 183 214 215
f 183 215 184
f 184 215 216
f 184 216 217
f 184 217 185
f 185 217 186
f 186 217 218
f 186 218 41
f 186 41 39
f 182 181 219
f 182 219 214
f 214 219 220
f 214 220 215
f 215 220 221
f 215 221 216
f 216 221 222
f 216 222 218
f 216 218 217
f 120 119 223
f 120 223 224
f 120 224 118
f 118 224 119
f 119 224 223
f 118 117 122
f 118 122 121
f 192 191 225
f 192 225 226
f 192 226 227
f 192 227 193
f 193 227 194
f 194 227 195
f 195 227 228
f 195 228 196
f 196 228 229
f 196 229 230
f 196 230 197
f 197 230 231
f 197 231 232
f 197 232 198
f 198 232 233
f 198 233 199
f 199 233 230
f 199 230 234
f 199 234 200
f 200 234 235
f 200 235 236
f 200 236 237
f 200 237 201
f 201 237 238
f 201 238 239
f 201 239 202
f 202 239 240
f 202 240 241
f 202 241 242
f 202 242 243
f 202 243 244
f 202 244 28
f 28 244 240
f 28 240 245
f 28 245 246
f 28 246 29
f 29 246 30
f 30 246 31
f 31 246 245
f 31 245 247
f 31 247 248
f 31 248 249
f 31 249 250
f 31 250 32
f 32 250 33
f 33 250 251
f 33 251 34
f 34 251 252
f 34 252 253
f 34 253 35
f 35 253 254
f 35 254 255
f 35 255 256
f 35 256 257
f 35 257 258
f 35 258 259
f 35 259 36
f 36 259 187
f 187 259 260
f 187 260 261
f 187 261 188
f 188 261 262
f 188 262 189
f 189 262 263
f 189 263 264
f 189 264 265
f 189 265 266
f 189 266 267
f 189 267 268
f 189 268 269
f 189 269 190
f 190 269 270
f 190 270 191
f 191 270 225
f 225 270 271
f 225 271 272
f 225 272 226
f 226 272 273
f 226 273 227
f 227 273 228
f 228 273 274
f 228 274 229
f 229 274 275
f 229 275 276
f 229 276 236
f 229 236 230
f 230 236 234
f 234 236 277
f 234 277 278
f 234 278 235
f 235 278 279
f 235 279 280
f 235 280 277
f 235 277 236
f 262 261 281
f 262 281 282
f 262 282 263
f 263 282 283
f 263 283 284
f 263 284 264
f 264 284 285
f 264 285 286
f 264 286 287
f 264 287 288
f 264 288 265
f 265 288 289
f 265 289 290
f 265 290 266
f 266 290 291
f 266 291 292
f 266 292 293
f 266 293 267
f 267 293 294
f 267 294 268
f 268 294 295
f 268 295 296
f 268 296 297
f 268 297 269
f 269 297 298
f 269 298 271
f 269 271 270
f 282 281 299
f 282 299 300
f 282 300 283
f 283 300 301
f 283 301 302
f 283 302 303
f 283 303 284
f 284 303 304
f 284 304 285
f 285 304 305
f 285 305 306
f 285 306 286
f 286 306 307
f 286 307 308
f 286 308 309
f 286 309 310
f 286 310 287
f 287 310 276
f 287 276 275
f 287 275 288
f 288 275 311
f 288 311 312
f 288 312 313
f 288 313 289
f 289 313 314
f 289 314 315
f 289 315 290
f 290 315 316
f 290 316 291
f 291 316 317
f 291 317 318
f 291 318 292
f 292 318 319
f 292 319 320
f 292 320 293
f 293 320 321
f 293 321 322
f 293 322 294
f 294 322 295
f 295 322 323
f 295 323 315
f 295 315 314
f 295 314 296
f 296 314 297
f 297 314 298
f 298 314 324
f 298 324 325
f 298 325 271
f 271 325 272
f 272 325 326
f 272 326 274
f 272 274 273
f 276 310 327
f 276 327 237
f 276 237 236
f 328 238 309
f 328 309 308
f 328 308 307
f 328 307 329
f 328 329 238
f 238 329 330
f 238 330 239
f 239 330 331
f 239 331 332
f 239 332 333
f 239 333 334
f 239 334 245
f 239 245 240
f 303 302 335
f 303 335 336
f 303 336 304
f 304 336 337
f 304 337 305
f 305 337 338
f 305 338 339
f 305 339 306
f 306 339 340
f 306 340 341
f 306 341 307
f 307 341 342
f 307 342 329
f 329 342 343
f 329 343 330
f 330 343 331
f 331 343 334
f 331 334 333
f 331 333 344
f 331 344 332
f 332 344 345
f 332 345 346
f 332 346 333
f 333 346 347
f 333 347 344
f 344 347 345
f 345 347 348
f 345 348 349
f 345 349 346
f 346 349 350
f 346 350 347
f 347 350 348
f 348 350 351
f 348 351 352
f 348 352 349
f 349 352 353
f 349 353 350
f 350 353 351
f 351 353 354
f 351 354 355
f 351 355 352
f 352 355 356
f 352 356 353
f 353 356 354
f 354 356 357
f 354 357 358
f 354 358 355
f 355 358 359
f 355 359 356
f 356 359 357
f 357 359 360
f 357 360 361
f 357 361 358
f 358 361 362
f 358 362 359
f 359 362 360
f 360 362 363
f 360 363 364
f 360 364 361
f 361 364 365
f 361 365 362
f 362 365 363
f 363 365 366
f 363 366 367
f 363 367 368
f 363 368 364
f 364 368 365
f 365 368 366
f 366 368 369
f 366 369 367
f 367 369 368
f 336 335 370
f 336 370 371
f 336 371 337
f 337 371 372
f 337 372 338
f 338 372 373
f 338 373 374
f 338 374 339
f 339 374 340
f 340 374 375
f 340 375 376
f 340 376 377
f 340 377 341
f 341 377 258
f 341 258 257
f 341 257 342
f 342 257 378
f 342 378 343
f 343 378 247
f 343 247 245
f 343 245 334
f 370 379 371
f 371 379 83
f 371 83 82
f 371 82 372
f 372 82 380
f 372 380 373
f 373 380 381
f 373 381 382
f 373 382 383
f 373 383 384
f 373 384 385
f 373 385 374
f 374 385 375
f 375 385 386
f 375 386 387
f 375 387 376
f 376 387 388
f 376 388 377
f 377 388 389
f 377 389 390
f 377 390 258
f 258 390 260
f 258 260 259
f 379 370 391
f 379 391 392
f 379 392 393
f 379 393 394
f 379 394 83
f 83 394 395
f 393 392 396
f 393 396 397
f 393 397 394
f 394 397 383
f 394 383 398
f 394 398 84
f 394 84 83
f 397 396 399
f 397 399 384
f 397 384 383
f 384 399 385
f 385 399 386
f 386 399 400
f 386 400 401
f 386 401 402
f 386 402 403
f 386 403 387
f 387 403 404
f 387 404 388
f 388 404 370
f 388 370 335
f 388 335 389
f 389 335 302
f 389 302 301
f 389 301 300
f 389 300 299
f 389 299 390
f 390 299 281
f 390 281 261
f 390 261 260
f 82 83 405
f 380 82 406
f 380 406 381
f 381 406 407
f 382 381 408
f 383 382 409
f 383 409 410
f 380 81 80
f 380 80 381
f 381 80 382
f 382 80 383
f 383 80 398
f 398 80 85
f 398 85 84
f 85 80 79
f 85 79 78
f 85 78 86
f 86 78 77
f 86 77 87
f 81 380 82
f 274 326 311
f 274 311 275
f 326 325 324
f 326 324 411
f 326 411 311
f 311 411 312
f 312 411 313
f 313 411 314
f 314 411 324
f 323 322 321
f 323 321 412
f 323 412 315
f 315 412 413
f 315 413 316
f 316 413 414
f 316 414 317
f 317 414 415
f 317 415 416
f 317 416 318
f 318 416 417
f 318 417 319
f 319 417 418
f 319 418 419
f 319 419 320
f 320 419 420
f 320 420 413
f 320 413 412
f 320 412 321
f 413 420 414
f 414 420 421
f 414 421 422
f 414 422 415
f 415 422 416
f 416 422 423
f 416 423 417
f 417 423 424
f 417 424 418
f 418 424 425
f 418 425 426
f 418 426 419
f 419 426 420
f 420 426 427
f 420 427 421
f 421 427 422
f 422 427 428
f 422 428 429
f 422 429 423
f 423 429 430
f 423 430 431
f 423 431 432
f 423 432 433
f 423 433 434
f 423 434 424
f 424 434 435
f 424 435 425
f 425 435 436
f 425 436 428
f 425 428 426
f 426 428 427
f 437 429 428
f 437 428 438
f 437 438 439
f 437 439 440
f 437 440 429
f 429 440 441
f 429 441 430
f 430 441 442
f 430 442 439
f 430 439 431
f 431 439 443
f 431 443 444
f 431 444 445
f 431 445 432
f 432 445 446
f 432 446 433
f 433 446 443
f 433 443 447
f 433 447 448
f 433 448 434
f 434 448 449
f 434 449 450
f 434 450 451
f 434 451 435
f 435 451 452
f 435 452 436
f 436 452 438
f 436 438 428
f 439 438 443
f 443 438 449
f 443 449 453
f 443 453 447
f 447 453 454
f 447 454 455
f 447 455 448
f 448 455 456
f 448 456 453
f 448 453 449
f 438 452 449
f 449 452 457
f 449 457 450
f 450 457 458
f 450 458 459
f 450 459 451
f 451 459 460
f 451 460 457
f 451 457 452
f 446 444 443
f 444 446 461
f 444 461 462
f 444 462 445
f 445 462 463
f 445 463 446
f 446 463 461
f 461 463 462
f 453 456 454
f 454 456 455
f 457 460 458
f 458 460 459
f 439 442 440
f 440 442 464
f 440 464 465
f 440 465 441
f 441 465 466
f 441 466 442
f 442 466 464
f 464 466 465
f 88 97 89
f 89 97 467
f 89 467 94
f 94 467 95
f 95 467 96
f 96 467 97
f 89 93 90
f 90 93 91
f 91 93 92
f 88 100 468
f 88 468 97
f 97 468 98
f 98 468 99
f 99 468 100
f 230 233 231
f 231 233 469
f 231 469 470
f 231 470 232
f 232 470 471
f 232 471 233
f 233 471 469
f 469 471 472
f 469 472 473
f 469 473 470
f 470 473 474
f 470 474 471
f 471 474 472
f 472 474 475
f 472 475 476
f 472 476 473
f 473 476 477
f 473 477 474
f 474 477 475
f 475 477 478
f 475 478 479
f 475 479 476
f 476 479 480
f 476 480 477
f 477 480 478
f 478 480 481
f 478 481 482
f 478 482 479
f 479 482 483
f 479 483 480
f 480 483 481
f 481 483 484
f 481 484 485
f 481 485 482
f 482 485 486
f 482 486 483
f 483 486 484
f 484 486 487
f 484 487 488
f 484 488 485
f 485 488 489
f 485 489 486
f 486 489 487
f 487 489 490
f 487 490 491
f 487 491 488
f 488 491 492
f 488 492 489
f 489 492 490
f 490 492 493
f 490 493 494
f 490 494 491
f 491 494 492
f 492 494 493
f 278 277 495
f 278 495 279
f 279 495 496
f 279 496 497
f 279 497 280
f 280 497 498
f 280 498 495
f 280 495 277
f 495 498 496
f 496 498 499
f 496 499 500
f 496 500 497
f 497 500 501
f 497 501 498
f 498 501 499
f 499 501 502
f 499 502 503
f 499 503 500
f 500 503 504
f 500 504 501
f 501 504 502
f 502 504 505
f 502 505 506
f 502 506 503
f 503 506 507
f 503 507 504
f 504 507 505
f 505 507 508
f 505 508 509
f 505 509 506
f 506 509 510
f 506 510 507
f 507 510 508
f 508 510 511
f 508 511 512
f 508 512 509
f 509 512 513
f 509 513 510
f 510 513 511
f 511 513 514
f 511 514 512
f 512 514 515
f 512 515 513
f 513 515 516
f 513 516 517
f 513 517 514
f 514 517 516
f 514 516 515
f 237 309 238
f 309 237 310
f 310 237 518
f 310 518 327
f 327 518 519
f 327 519 520
f 327 520 521
f 327 521 237
f 237 521 519
f 237 519 518
f 520 519 522
f 520 522 523
f 520 523 521
f 521 523 524
f 521 524 519
f 519 524 522
f 522 524 525
f 522 525 526
f 522 526 523
f 523 526 527
f 523 527 524
f 524 527 525
f 525 527 528
f 525 528 529
f 525 529 526
f 526 529 530
f 526 530 527
f 527 530 528
f 528 530 531
f 528 531 532
f 528 532 529
f 529 532 533
f 529 533 530
f 530 533 531
f 531 533 534
f 531 534 535
f 531 535 532
f 532 535 536
f 532 536 533
f 533 536 534
f 534 536 537
f 534 537 538
f 534 538 535
f 535 538 539
f 535 539 536
f 536 539 537
f 537 539 540
f 537 540 541
f 537 541 538
f 538 541 542
f 538 542 539
f 539 542 540
f 540 542 543
f 540 543 544
f 540 544 545
f 540 545 546
f 540 546 541
f 541 546 542
f 542 546 543
f 543 546 544
f 544 546 545
f 547 548 549
f 547 549 550
f 547 550 551
f 547 551 552
f 547 552 553
f 547 553 554
f 547 554 555
f 547 555 556
f 547 556 548
f 548 556 557
f 548 557 558
f 548 558 549
f 549 558 559
f 549 559 560
f 549 560 561
f 549 561 562
f 549 562 550
f 550 562 563
f 550 563 564
f 550 564 565
f 550 565 551
f 551 565 566
f 551 566 567
f 551 567 568
f 551 568 569
f 551 569 570
f 551 570 552
f 552 570 571
f 552 571 572
f 552 572 573
f 552 573 574
f 552 574 553
f 553 574 575
f 553 575 576
f 553 576 554
f 554 576 564
f 554 564 563
f 554 563 577
f 554 577 578
f 554 578 579
f 554 579 555
f 555 579 580
f 555 580 556
f 556 580 581
f 556 581 582
f 556 582 557
f 557 582 583
f 557 583 584
f 557 584 558
f 558 584 585
f 558 585 559
f 559 585 586
f 559 586 402
f 559 402 560
f 560 402 401
f 560 401 581
f 560 581 561
f 561 581 580
f 561 580 579
f 561 579 562
f 562 579 578
f 562 578 577
f 562 577 563
f 172 587 588
f 172 588 589
f 172 589 590
f 172 590 207
f 207 590 591
f 207 591 208
f 208 591 209
f 209 591 592
f 209 592 593
f 209 593 210
f 210 593 594
f 210 594 595
f 210 595 211
f 211 595 596
f 211 596 212
f 212 596 213
f 213 596 221
f 213 221 181
f 181 221 220
f 181 220 219
f 587 597 588
f 588 597 598
f 588 598 589
f 589 598 592
f 589 592 590
f 590 592 591
f 599 598 597
f 599 597 593
f 599 593 592
f 599 592 598
f 593 597 44
f 593 44 43
f 593 43 600
f 593 600 594
f 594 600 601
f 594 601 596
f 594 596 595
f 601 600 602
f 601 602 218
f 601 218 603
f 601 603 596
f 596 603 222
f 596 222 221
f 587 172 171
f 587 171 170
f 587 170 604
f 587 604 597
f 597 604 44
f 44 604 605
f 44 605 606
f 44 606 607
f 44 607 45
f 45 607 18
f 18 607 19
f 19 607 20
f 20 607 606
f 20 606 21
f 21 606 168
f 168 606 169
f 169 606 605
f 169 605 170
f 170 605 604
f 218 602 41
f 41 602 42
f 42 602 43
f 43 602 600
f 218 222 603
f 603 222 608
f 608 222 221
f 608 221 609
f 609 221 220
f 609 220 610
f 610 220 219
f 56 55 611
f 56 611 612
f 56 612 57
f 57 612 611
f 57 611 55
f 57 55 54
f 57 54 58
f 58 54 59
f 59 54 53
f 251 250 613
f 251 613 614
f 251 614 252
f 252 614 253
f 253 614 615
f 253 615 616
f 253 616 254
f 254 616 617
f 254 617 618
f 254 618 619
f 254 619 255
f 255 619 620
f 255 620 621
f 255 621 256
f 256 621 622
f 256 622 623
f 256 623 624
f 256 624 378
f 256 378 257
f 625 370 404
f 625 404 626
f 625 626 585
f 625 585 584
f 625 584 627
f 625 627 391
f 625 391 370
f 404 403 626
f 626 403 586
f 626 586 585
f 585 586 628
f 628 586 402
f 628 402 629
f 391 627 392
f 392 627 630
f 392 630 396
f 396 630 400
f 396 400 399
f 403 402 586
f 627 584 583
f 627 583 630
f 630 583 400
f 400 583 631
f 400 631 401
f 401 631 632
f 632 631 633
f 584 634 583
f 585 635 584
f 402 401 636
f 631 583 582
f 631 582 581
f 631 581 401
f 576 572 564
f 564 572 568
f 564 568 637
f 564 637 638
f 564 638 565
f 565 638 566
f 566 638 637
f 566 637 567
f 567 637 568
f 613 249 614
f 614 249 639
f 614 639 615
f 615 639 640
f 615 640 616
f 616 640 617
f 617 640 618
f 618 640 641
f 618 641 642
f 618 642 619
f 619 642 643
f 619 643 620
f 620 643 644
f 620 644 621
f 621 644 645
f 621 645 646
f 621 646 622
f 622 646 640
f 622 640 623
f 623 640 647
f 623 647 648
f 623 648 624
f 624 648 378
f 378 648 247
f 247 648 248
f 248 648 647
f 248 647 649
f 248 649 249
f 249 649 639
f 639 649 640
f 640 649 647
f 613 250 249
f 640 646 641
f 641 646 650
f 641 650 651
f 641 651 642
f 642 651 652
f 642 652 643
f 643 652 644
f 644 652 653
f 644 653 645
f 645 653 654
f 645 654 650
f 645 650 646
f 652 655 653
f 653 655 656
f 653 656 657
f 653 657 654
f 654 657 658
f 654 658 659
f 654 659 650
f 650 659 651
f 651 659 660
f 651 660 652
f 652 660 661
f 652 661 655
f 655 661 662
f 655 662 663
f 655 663 656
f 656 663 657
f 657 663 664
f 657 664 658
f 658 664 665
f 658 665 666
f 658 666 659
f 659 666 660
f 660 666 667
f 660 667 661
f 661 667 668
f 661 668 662
f 662 668 663
f 663 668 669
f 663 669 670
f 663 670 664
f 664 670 671
f 664 671 672
f 664 672 673
f 664 673 665
f 665 673 674
f 665 674 675
f 665 675 666
f 666 675 667
f 667 675 669
f 667 669 668
f 675 674 676
f 675 676 677
f 675 677 669
f 669 677 678
f 669 678 679
f 669 679 680
f 669 680 681
f 669 681 670
f 670 681 682
f 670 682 683
f 670 683 671
f 671 683 684
f 671 684 672
f 672 684 681
f 672 681 680
f 672 680 673
f 673 680 685
f 673 685 686
f 673 686 674
f 674 686 687
f 674 687 676
f 676 687 688
f 676 688 689
f 676 689 677
f 677 689 686
f 677 686 690
f 677 690 691
f 677 691 678
f 678 691 685
f 678 685 692
f 678 692 693
f 678 693 679
f 679 693 680
f 680 693 694
f 680 694 685
f 685 694 692
f 692 694 695
f 692 695 696
f 692 696 693
f 693 696 697
f 693 697 694
f 694 697 695
f 695 697 696
f 686 685 698
f 686 698 690
f 690 698 699
f 690 699 700
f 690 700 691
f 691 700 701
f 691 701 698
f 691 698 685
f 698 701 699
f 699 701 700
f 687 686 702
f 687 702 688
f 688 702 703
f 688 703 704
f 688 704 689
f 689 704 705
f 689 705 702
f 689 702 686
f 702 705 703
f 703 705 704
f 681 684 682
f 682 684 706
f 682 706 707
f 682 707 683
f 683 707 708
f 683 708 684
f 684 708 706
f 706 708 707
f 576 575 709
f 576 709 572
f 572 709 573
f 573 709 575
f 573 575 574
f 568 572 710
f 568 710 569
f 569 710 570
f 570 710 571
f 571 710 572
f 203 206 204
f 204 206 711
f 204 711 712
f 204 712 205
f 205 712 713
f 205 713 206
f 206 713 711
f 711 713 714
f 711 714 715
f 711 715 712
f 712 715 716
f 712 716 713
f 713 716 714
f 714 716 717
f 714 717 718
f 714 718 715
f 715 718 719
f 715 719 716
f 716 719 717
f 717 719 720
f 717 720 721
f 717 721 718
f 718 721 722
f 718 722 719
f 719 722 720
f 720 722 723
f 720 723 724
f 720 724 721
f 721 724 725
f 721 725 722
f 722 725 723
f 723 725 726
f 723 726 727
f 723 727 724
f 724 727 728
f 724 728 725
f 725 728 726
f 726 728 729
f 726 729 730
f 726 730 727
f 727 730 731
f 727 731 728
f 728 731 729
f 729 731 732
f 729 732 733
f 729 733 730
f 730 733 731
f 731 733 732
f 240 244 243
f 240 243 241
f 241 243 734
f 241 734 735
f 241 735 242
f 242 735 736
f 242 736 243
f 243 736 734
f 734 736 737
f 734 737 738
f 734 738 735
f 735 738 739
f 735 739 736
f 736 739 737
f 737 739 740
f 737 740 741
f 737 741 738
f 738 741 742
f 738 742 739
f 739 742 740
f 740 742 743
f 740 743 744
f 740 744 741
f 741 744 745
f 741 745 742
f 742 745 743
f 743 745 746
f 743 746 747
f 743 747 744
f 744 747 748
f 744 748 745
f 745 748 746
f 746 748 749
f 746 749 750
f 746 750 747
f 747 750 751
f 747 751 748
f 748 751 749
f 749 751 752
f 749 752 753
f 749 753 750
f 750 753 754
f 750 754 751
f 751 754 752
f 752 754 755
f 752 755 756
f 752 756 753
f 753 756 757
f 753 757 755
f 753 755 754
f 755 758 756
f 756 758 757
f 757 758 755
