# RS2 Model 214
# Vertices: 148
# Faces: 246

v 2 -15 180
v 5 -14 179
v 5 -14 182
v 0 -18 183
v 0 -17 181
v 3 -16 175
v 8 -13 178
v 8 -11 180
v 7 -14 184
v 0 -18 184
v -7 -14 184
v -5 -14 182
v -2 -15 180
v -3 -16 175
v 0 -20 175
v 0 -17 174
v 9 -1 175
v 7 -2 170
v 8 1 173
v 11 3 176
v 11 1 178
v 10 -2 180
v 11 1 181
v 11 -7 185
v 11 -8 181
v 11 -3 178
v 11 -6 177
v 11 -5 173
v 11 -4 174
v 9 -9 181
v 9 -12 182
v 9 -11 185
v 7 -13 189
v 7 -16 185
v 8 -16 181
v 8 -14 181
v 8 -16 177
v 6 -17 180
v 3 -17 184
v 2 -19 184
v 2 -18 180
v 0 -17 188
v -2 -19 184
v -2 -18 180
v -3 -17 184
v -7 -13 189
v -7 -16 185
v -8 -16 181
v -6 -17 180
v -8 -16 177
v -8 -14 181
v -9 -12 182
v -9 -11 185
v -9 -9 181
v -8 -11 180
v -5 -14 179
v -8 -13 178
v -4 -15 173
v -7 -10 174
v -9 -7 177
v -11 -8 181
v -11 -6 177
v -10 -6 173
v -11 -5 173
v -11 -3 178
v -11 -4 174
v 9 -7 177
v 7 -9 191
v 0 -10 195
v 0 -15 191
v 12 3 180
v 12 4 180
v 11 3 182
v 10 0 189
v 7 -2 193
v 0 -3 196
v -7 -2 193
v -7 -9 191
v 9 4 176
v 9 5 179
v 7 6 188
v 0 4 194
v -7 6 188
v -10 0 189
v -11 -7 185
v 8 1 165
v 0 -6 165
v 0 -6 160
v -8 1 165
v -7 -2 170
v 0 6 173
v 0 10 165
v 9 1 173
v 10 4 172
v 6 9 173
v 6 9 179
v 0 12 186
v 0 9 191
v -6 9 179
v -9 5 179
v -11 3 182
v -11 1 181
v -10 -2 180
v 4 -15 173
v 7 -10 174
v -9 -1 175
v -8 1 173
v -11 3 176
v -11 1 178
v -12 3 180
v -12 4 180
v -9 4 176
v -6 9 173
v -10 4 172
v -9 1 173
v -8 -1 170
v -9 1 169
v -13 3 167
v -11 -7 162
v -14 -8 162
v -16 -7 164
v -16 4 166
v -18 6 166
v -18 13 159
v -8 14 169
v 0 26 162
v -11 16 148
v 0 28 155
v 0 29 150
v 0 28 143
v 11 16 148
v 18 13 159
v 8 14 169
v 13 3 167
v 16 4 166
v 18 6 166
v 16 -7 164
v 14 -8 162
v 11 -7 162
v 9 1 169
v 8 -1 170
v 0 14 180
v 0 16 173
v 0 18 169
v -11 4 170
v 0 21 166
v 11 4 170
v 10 -6 173

f 1 2 3
f 1 3 4
f 1 4 5
f 1 5 6
f 1 6 2
f 2 6 7
f 2 7 8
f 2 8 3
f 3 8 9
f 3 9 4
f 4 9 10
f 4 10 11
f 4 11 12
f 4 12 13
f 4 13 5
f 5 13 14
f 5 14 15
f 5 15 6
f 6 15 16
f 16 15 14
f 17 18 19
f 17 19 20
f 17 20 21
f 17 21 22
f 22 21 23
f 22 23 24
f 22 24 25
f 22 25 26
f 26 25 27
f 26 27 28
f 26 28 29
f 8 30 9
f 9 30 31
f 31 30 32
f 31 32 33
f 31 33 34
f 31 34 35
f 31 35 36
f 36 35 37
f 37 35 38
f 38 35 39
f 39 35 34
f 39 34 33
f 39 33 40
f 39 40 41
f 41 40 10
f 10 40 42
f 10 42 43
f 10 43 44
f 44 43 45
f 45 43 46
f 45 46 47
f 45 47 48
f 45 48 49
f 49 48 50
f 50 48 51
f 51 48 52
f 52 48 47
f 52 47 46
f 52 46 53
f 52 53 54
f 52 54 11
f 11 54 55
f 11 55 12
f 12 55 56
f 12 56 13
f 13 56 14
f 14 56 57
f 14 57 58
f 58 57 59
f 59 57 60
f 60 57 54
f 60 54 61
f 60 61 62
f 60 62 63
f 63 62 64
f 64 62 65
f 64 65 66
f 7 30 8
f 30 7 67
f 30 67 25
f 30 25 32
f 32 25 24
f 32 24 33
f 33 24 68
f 33 68 69
f 33 69 70
f 33 70 42
f 33 42 40
f 71 21 20
f 71 20 72
f 71 72 73
f 71 73 21
f 21 73 23
f 23 73 24
f 24 73 74
f 24 74 68
f 68 74 75
f 68 75 69
f 69 75 76
f 69 76 77
f 69 77 78
f 69 78 46
f 69 46 70
f 70 46 42
f 42 46 43
f 20 79 72
f 72 79 80
f 72 80 73
f 73 80 81
f 73 81 74
f 74 81 75
f 75 81 82
f 75 82 76
f 76 82 77
f 77 82 83
f 77 83 84
f 77 84 78
f 78 84 85
f 78 85 46
f 46 85 53
f 53 85 61
f 53 61 54
f 86 18 87
f 86 87 88
f 88 87 89
f 89 87 90
f 89 90 91
f 89 91 92
f 92 91 86
f 86 91 18
f 18 91 19
f 79 20 19
f 79 19 93
f 79 93 94
f 79 94 95
f 79 95 96
f 79 96 80
f 80 96 81
f 81 96 97
f 81 97 98
f 81 98 82
f 82 98 83
f 83 98 97
f 83 97 99
f 83 99 100
f 83 100 101
f 83 101 84
f 84 101 85
f 85 101 102
f 85 102 103
f 85 103 61
f 61 103 65
f 61 65 62
f 7 6 104
f 7 104 105
f 7 105 67
f 106 107 90
f 90 107 91
f 57 55 54
f 55 57 56
f 108 106 109
f 108 109 110
f 108 110 111
f 108 111 112
f 108 112 107
f 108 107 106
f 101 110 109
f 101 109 102
f 102 109 103
f 103 109 106
f 110 101 111
f 111 101 100
f 111 100 112
f 112 100 99
f 112 99 113
f 112 113 114
f 112 114 115
f 112 115 107
f 107 115 90
f 90 115 116
f 90 116 89
f 89 116 117
f 89 117 118
f 89 118 119
f 119 118 120
f 120 118 121
f 121 118 122
f 121 122 123
f 123 122 124
f 124 122 118
f 124 118 125
f 124 125 126
f 124 126 127
f 127 126 128
f 127 128 129
f 127 129 130
f 130 129 131
f 131 129 128
f 131 128 126
f 131 126 132
f 132 126 133
f 132 133 134
f 132 134 135
f 132 135 136
f 136 135 137
f 137 135 134
f 137 134 138
f 138 134 139
f 139 134 86
f 86 134 140
f 86 140 141
f 86 141 18
f 18 141 93
f 18 93 19
f 96 142 97
f 97 142 99
f 99 142 143
f 99 143 113
f 113 143 144
f 113 144 125
f 113 125 114
f 114 125 145
f 114 145 117
f 114 117 116
f 114 116 115
f 143 142 96
f 143 96 95
f 143 95 144
f 144 95 133
f 144 133 146
f 144 146 125
f 125 146 126
f 126 146 133
f 94 93 141
f 94 141 140
f 94 140 147
f 94 147 133
f 94 133 95
f 25 67 27
f 27 67 148
f 27 148 28
f 134 147 140
f 147 134 133
f 118 117 145
f 118 145 125
