# RS2 Model 21410
# Vertices: 199
# Faces: 345

v 27 -44 29
v 26 -37 22
v 30 -24 26
v 33 -21 35
v 26 -41 37
v 23 -48 35
v 24 -44 31
v 13 -50 31
v 11 -44 29
v 22 -38 24
v 25 -38 21
v 23 -37 12
v 32 -16 9
v 36 -8 17
v 36 -4 35
v 39 -4 35
v 37 -21 35
v 29 -47 35
v 14 -50 37
v 4 -50 35
v 8 -50 31
v 0 -48 26
v 6 -38 21
v 14 -40 27
v 16 -40 18
v 14 -43 10
v 8 -44 -1
v 30 -11 1
v 36 -8 9
v 39 -8 17
v 36 4 21
v 38 28 35
v 40 0 53
v 18 -41 53
v 14 -52 35
v 3 -52 35
v -4 -50 35
v -30 -24 26
v -25 -37 22
v -26 -44 29
v -33 -22 35
v -36 -4 35
v -36 -8 17
v -32 -16 9
v -22 -37 12
v -24 -38 22
v -22 -38 24
v -11 -44 29
v -14 -50 32
v -23 -44 31
v -23 -48 35
v -25 -41 37
v -27 -47 35
v -37 -21 35
v -39 -4 35
v -38 28 35
v -36 4 21
v -39 -8 17
v -36 -8 9
v -30 -11 1
v -8 -44 -1
v -14 -43 10
v -16 -40 18
v -13 -40 27
v -6 -38 21
v -8 -50 31
v -14 -50 37
v -7 -42 -5
v -6 -45 0
v -5 -44 2
v -2 -41 20
v -6 -38 19
v 0 -45 21
v 2 -41 20
v 6 -38 19
v -17 -33 -15
v -9 -42 -14
v -2 -44 -11
v -3 -42 -5
v -4 -48 -4
v -2 -48 0
v 0 -50 7
v 0 -48 16
v 5 -44 2
v 7 -42 -5
v 17 -33 -15
v 5 -48 -4
v 3 -42 -5
v 2 -44 -11
v 9 -42 -14
v 11 -41 -14
v 8 -42 -17
v 5 -38 -22
v 2 -41 -32
v 5 -38 -34
v 22 -23 -23
v 17 -11 -29
v 28 -5 -1
v 42 8 13
v 40 4 23
v 36 8 13
v 16 56 -14
v 0 45 34
v 29 18 53
v 26 15 53
v 36 0 53
v 16 -37 53
v 0 -44 77
v 0 -50 53
v -3 -52 35
v -28 -5 -1
v -49 16 -14
v -17 -11 -29
v -42 8 13
v -36 8 13
v -18 56 -14
v -54 34 -53
v -59 14 -53
v -49 7 -53
v -18 2 -54
v -2 -14 -54
v 2 -38 -34
v -5 -38 -34
v -22 -23 -23
v -3 -41 -32
v -5 -38 -22
v -8 -42 -17
v -11 -41 -14
v -8 -41 -15
v 0 -41 -16
v -2 -44 -13
v 0 -52 -4
v -1 -56 0
v 1 -56 0
v 3 -48 0
v 47 16 -14
v 2 -14 -54
v 19 2 -54
v 47 7 -53
v 57 14 -53
v 52 34 -53
v 25 66 -46
v 0 80 -43
v -29 18 53
v 0 42 53
v 0 37 53
v 16 8 71
v 0 -32 69
v 0 -45 54
v -16 -37 53
v -18 -41 53
v -14 -52 35
v -26 66 -46
v -16 8 71
v -26 15 53
v -36 0 53
v -40 0 53
v 8 -41 -15
v 2 -44 -13
v 0 -43 -19
v 1 -40 -22
v -1 -40 -22
v -40 4 23
v -13 -43 20
v 13 -43 20
v -13 -40 22
v -15 -40 24
v -16 -40 22
v -18 -40 20
v -16 -40 19
v -14 -40 19
v -13 -40 19
v -12 -40 21
v -13 -40 24
v -15 -40 25
v -18 -40 22
v -19 -40 21
v -14 -40 18
v -12 -40 19
v -10 -40 21
v 10 -40 21
v 12 -40 19
v 14 -40 18
v 19 -40 20
v 18 -40 22
v 15 -40 25
v 13 -40 24
v 12 -40 21
v 13 -40 19
v 14 -40 19
v 16 -40 19
v 18 -40 20
v 16 -40 22
v 15 -40 24
v 13 -40 22
v 6 -45 0
v 18 10 57
v -20 8 57
v 20 -21 57

f 1 2 3
f 1 3 4
f 1 4 5
f 1 5 6
f 1 6 7
f 1 7 8
f 1 8 9
f 1 9 10
f 1 10 2
f 2 10 11
f 2 11 12
f 2 12 13
f 2 13 3
f 3 13 14
f 3 14 15
f 3 15 4
f 4 15 16
f 4 16 17
f 4 17 5
f 5 17 18
f 5 18 19
f 5 19 6
f 6 19 7
f 7 19 8
f 8 19 20
f 8 20 21
f 8 21 9
f 9 21 22
f 9 22 23
f 9 23 24
f 9 24 10
f 10 24 11
f 11 24 25
f 11 25 26
f 11 26 12
f 12 26 27
f 12 27 13
f 13 27 28
f 13 28 14
f 14 28 29
f 14 29 30
f 14 30 31
f 14 31 15
f 15 31 32
f 15 32 16
f 16 32 33
f 16 33 17
f 17 33 34
f 17 34 18
f 18 34 35
f 18 35 19
f 19 35 20
f 20 35 36
f 20 36 37
f 20 37 22
f 20 22 21
f 38 39 40
f 38 40 41
f 38 41 42
f 38 42 43
f 38 43 44
f 38 44 39
f 39 44 45
f 39 45 46
f 39 46 47
f 39 47 40
f 40 47 48
f 40 48 49
f 40 49 50
f 40 50 51
f 40 51 52
f 40 52 41
f 41 52 53
f 41 53 54
f 41 54 42
f 42 54 55
f 42 55 56
f 42 56 57
f 42 57 43
f 43 57 58
f 43 58 59
f 43 59 60
f 43 60 44
f 44 60 61
f 44 61 45
f 45 61 62
f 45 62 46
f 46 62 63
f 46 63 47
f 47 63 64
f 47 64 48
f 48 64 65
f 48 65 22
f 48 22 66
f 48 66 49
f 49 66 67
f 49 67 51
f 49 51 50
f 60 68 61
f 61 68 69
f 61 69 70
f 61 70 71
f 61 71 62
f 62 71 72
f 62 72 63
f 63 72 64
f 64 72 65
f 65 72 71
f 65 71 22
f 22 71 73
f 22 73 74
f 22 74 23
f 23 74 75
f 23 75 25
f 23 25 24
f 60 76 68
f 68 76 77
f 68 77 78
f 68 78 79
f 68 79 80
f 68 80 69
f 69 80 81
f 69 81 82
f 69 82 70
f 70 82 83
f 70 83 71
f 71 83 73
f 73 83 74
f 74 83 84
f 74 84 27
f 74 27 26
f 74 26 75
f 75 26 25
f 85 86 28
f 85 28 27
f 85 27 87
f 85 87 88
f 85 88 89
f 85 89 90
f 85 90 86
f 86 90 91
f 86 91 92
f 86 92 93
f 86 93 94
f 86 94 95
f 86 95 96
f 86 96 28
f 28 96 97
f 28 97 98
f 28 98 99
f 28 99 29
f 29 99 30
f 30 99 100
f 30 100 31
f 31 100 101
f 31 101 32
f 32 101 102
f 32 102 103
f 32 103 104
f 32 104 33
f 33 104 105
f 33 105 106
f 33 106 34
f 34 106 107
f 34 107 108
f 34 108 109
f 34 109 35
f 35 109 36
f 36 109 110
f 36 110 37
f 37 110 67
f 37 67 66
f 37 66 22
f 111 112 113
f 111 113 60
f 111 60 114
f 111 114 115
f 111 115 112
f 112 115 116
f 112 116 117
f 112 117 118
f 112 118 119
f 112 119 120
f 112 120 113
f 113 120 121
f 113 121 97
f 113 97 122
f 113 122 123
f 113 123 124
f 113 124 60
f 60 124 76
f 76 124 123
f 76 123 125
f 76 125 126
f 76 126 127
f 76 127 128
f 76 128 77
f 77 128 129
f 77 129 130
f 77 130 131
f 77 131 78
f 78 131 89
f 78 89 88
f 78 88 79
f 79 88 132
f 79 132 80
f 80 132 133
f 80 133 81
f 81 133 82
f 82 133 134
f 82 134 135
f 82 135 84
f 82 84 83
f 97 136 98
f 98 136 101
f 98 101 99
f 99 101 100
f 121 137 97
f 97 137 138
f 97 138 136
f 136 138 139
f 136 139 140
f 136 140 141
f 136 141 102
f 136 102 101
f 142 102 141
f 102 142 143
f 102 143 116
f 102 116 103
f 103 116 56
f 103 56 144
f 103 144 145
f 103 145 104
f 104 145 146
f 104 146 105
f 105 146 147
f 105 147 106
f 106 147 107
f 107 147 148
f 107 148 149
f 107 149 108
f 108 149 150
f 108 150 151
f 108 151 109
f 109 151 152
f 109 152 110
f 110 152 67
f 67 152 52
f 67 52 51
f 143 153 116
f 116 153 117
f 148 147 154
f 148 154 150
f 148 150 149
f 154 147 146
f 154 146 155
f 154 155 156
f 154 156 150
f 150 156 157
f 150 157 151
f 151 157 54
f 151 54 53
f 151 53 152
f 152 53 52
f 115 57 56
f 115 56 116
f 130 158 90
f 130 90 159
f 130 159 131
f 131 159 89
f 89 159 90
f 91 90 158
f 91 158 92
f 92 158 130
f 92 130 160
f 92 160 161
f 92 161 93
f 93 161 94
f 94 161 162
f 94 162 125
f 94 125 122
f 94 122 95
f 95 122 97
f 95 97 96
f 163 114 58
f 163 58 57
f 163 57 115
f 163 115 114
f 59 58 114
f 59 114 60
f 64 47 164
f 64 164 65
f 65 164 72
f 47 46 164
f 165 10 24
f 165 24 23
f 165 23 75
f 165 11 10
f 128 127 129
f 129 127 130
f 130 127 160
f 160 127 162
f 160 162 161
f 125 162 126
f 126 162 127
f 166 167 168
f 166 168 169
f 166 169 170
f 166 170 171
f 166 171 172
f 166 172 173
f 174 175 176
f 174 176 177
f 174 177 63
f 174 63 178
f 174 178 179
f 174 179 180
f 181 182 183
f 181 183 25
f 181 25 184
f 181 184 185
f 181 185 186
f 181 186 187
f 188 189 190
f 188 190 191
f 188 191 192
f 188 192 193
f 188 193 194
f 188 194 195
f 132 134 133
f 134 132 87
f 134 87 135
f 135 87 196
f 135 196 84
f 84 196 27
f 27 196 87
f 123 122 125
f 87 132 88
f 55 54 157
f 55 157 56
f 56 157 144
f 144 157 156
f 144 156 155
f 144 155 145
f 145 155 146
