# RS2 Model 2143
# Vertices: 455
# Faces: 396

v 48 0 68
v 48 48 80
v 48 0 79
v 48 -48 67
v 46 -46 63
v 48 48 67
v 0 48 80
v 26 27 80
v 26 -24 80
v 48 -48 80
v 0 -48 69
v -46 -46 63
v -48 -48 62
v 0 -48 61
v 48 -48 62
v 46 46 63
v 0 48 69
v -48 48 80
v -24 27 80
v -24 -24 80
v -48 0 79
v -48 -48 80
v 0 -48 80
v -48 -48 67
v -46 46 63
v -48 48 62
v -48 0 60
v -48 0 48
v -48 -48 46
v 0 -48 47
v 48 -48 46
v 48 0 61
v 48 48 62
v -48 48 67
v -48 0 68
v 48 0 47
v 46 -45 43
v 48 48 46
v 0 48 60
v 0 48 48
v -48 48 46
v -46 45 43
v -46 -45 43
v -48 -48 42
v 0 -48 41
v 48 -48 42
v 46 45 43
v 48 0 41
v 48 48 42
v 48 0 27
v 48 -48 26
v 46 -46 22
v 48 48 26
v 0 48 41
v -48 48 42
v -48 0 40
v -48 0 28
v -48 -48 26
v 0 -48 27
v 46 45 22
v 0 48 27
v -48 48 26
v -46 45 22
v -46 -46 22
v -48 -48 21
v -24 -48 19
v 0 -48 18
v 48 -48 21
v 48 0 18
v 48 48 21
v 48 0 5
v 48 -48 2
v 46 -46 0
v 48 48 2
v 0 48 20
v -48 48 21
v -48 0 20
v -48 0 3
v -48 -48 2
v 0 -47 3
v 46 46 0
v 0 48 3
v -48 48 2
v -46 46 0
v -46 -46 0
v 49 -43 40
v 49 -46 40
v 49 -46 37
v 49 -43 37
v 49 -43 32
v 49 -46 32
v 49 -46 29
v 49 -43 29
v 49 -42 18
v 49 -45 18
v 49 -45 15
v 49 -42 15
v 49 -42 10
v 49 -45 10
v 49 -45 7
v 49 -42 7
v 49 46 16
v 49 43 16
v 49 43 13
v 49 46 13
v 49 46 8
v 49 43 8
v 49 43 5
v 49 46 5
v 49 45 40
v 49 42 40
v 49 42 37
v 49 45 37
v 49 45 32
v 49 42 32
v 49 42 29
v 49 45 29
v 49 46 59
v 49 43 59
v 49 43 56
v 49 46 56
v 49 46 51
v 49 43 51
v 49 43 48
v 49 46 48
v 49 46 79
v 49 43 79
v 49 43 76
v 49 46 76
v 49 46 71
v 49 43 71
v 49 43 68
v 49 46 68
v 49 -43 79
v 49 -46 79
v 49 -46 76
v 49 -43 76
v 49 -43 71
v 49 -46 71
v 49 -46 68
v 49 -43 68
v 49 -42 60
v 49 -45 60
v 49 -45 57
v 49 -42 57
v 49 -42 52
v 49 -45 52
v 49 -45 49
v 49 -42 49
v -43 -49 40
v -46 -49 40
v -46 -49 37
v -43 -49 37
v -43 -49 32
v -46 -49 32
v -46 -49 29
v -43 -49 29
v -42 -49 18
v -45 -49 18
v -45 -49 15
v -42 -49 15
v -42 -49 10
v -45 -49 10
v -45 -49 7
v -42 -49 7
v 46 -49 16
v 43 -49 16
v 43 -49 13
v 46 -49 13
v 46 -49 8
v 43 -49 8
v 43 -49 5
v 46 -49 5
v 45 -49 40
v 42 -49 40
v 42 -49 37
v 45 -49 37
v 45 -49 32
v 42 -49 32
v 42 -49 29
v 45 -49 29
v 46 -49 59
v 43 -49 59
v 43 -49 56
v 46 -49 56
v 46 -49 51
v 43 -49 51
v 43 -49 48
v 46 -49 48
v 46 -49 79
v 43 -49 79
v 43 -49 76
v 46 -49 76
v 46 -49 71
v 43 -49 71
v 43 -49 68
v 46 -49 68
v -43 -49 79
v -46 -49 79
v -46 -49 76
v -43 -49 76
v -43 -49 71
v -46 -49 71
v -46 -49 68
v -43 -49 68
v -42 -49 60
v -45 -49 60
v -45 -49 57
v -42 -49 57
v -42 -49 52
v -45 -49 52
v -45 -49 49
v -42 -49 49
v -49 43 40
v -49 46 40
v -49 46 37
v -49 43 37
v -49 43 32
v -49 46 32
v -49 46 29
v -49 43 29
v -49 42 18
v -49 45 18
v -49 45 15
v -49 42 15
v -49 42 10
v -49 45 10
v -49 45 7
v -49 42 7
v -49 -46 16
v -49 -43 16
v -49 -43 13
v -49 -46 13
v -49 -46 8
v -49 -43 8
v -49 -43 5
v -49 -46 5
v -49 -45 40
v -49 -42 40
v -49 -42 37
v -49 -45 37
v -49 -45 32
v -49 -42 32
v -49 -42 29
v -49 -45 29
v -49 -46 59
v -49 -43 59
v -49 -43 56
v -49 -46 56
v -49 -46 51
v -49 -43 51
v -49 -43 48
v -49 -46 48
v -49 -46 79
v -49 -43 79
v -49 -43 76
v -49 -46 76
v -49 -46 71
v -49 -43 71
v -49 -43 68
v -49 -46 68
v -49 43 79
v -49 46 79
v -49 46 76
v -49 43 76
v -49 43 71
v -49 46 71
v -49 46 68
v -49 43 68
v -49 42 60
v -49 45 60
v -49 45 57
v -49 42 57
v -49 42 52
v -49 45 52
v -49 45 49
v -49 42 49
v 43 49 40
v 46 49 40
v 46 49 37
v 43 49 37
v 43 49 32
v 46 49 32
v 46 49 29
v 43 49 29
v 42 49 18
v 45 49 18
v 45 49 15
v 42 49 15
v 42 49 10
v 45 49 10
v 45 49 7
v 42 49 7
v -46 49 16
v -43 49 16
v -43 49 13
v -46 49 13
v -46 49 8
v -43 49 8
v -43 49 5
v -46 49 5
v -45 49 40
v -42 49 40
v -42 49 37
v -45 49 37
v -45 49 32
v -42 49 32
v -42 49 29
v -45 49 29
v -46 49 59
v -43 49 59
v -43 49 56
v -46 49 56
v -46 49 51
v -43 49 51
v -43 49 48
v -46 49 48
v -46 49 79
v -43 49 79
v -43 49 76
v -46 49 76
v -46 49 71
v -43 49 71
v -43 49 68
v -46 49 68
v 43 49 79
v 46 49 79
v 46 49 76
v 43 49 76
v 43 49 71
v 46 49 71
v 46 49 68
v 43 49 68
v 42 49 60
v 45 49 60
v 45 49 57
v 42 49 57
v 42 49 52
v 45 49 52
v 45 49 49
v 42 49 49
v 39 -7 85
v 42 -7 85
v 42 -4 85
v 39 -4 85
v 38 2 85
v 41 2 85
v 41 5 85
v 38 5 85
v 37 32 85
v 40 32 85
v 40 35 85
v 37 35 85
v 38 40 85
v 41 40 85
v 41 43 85
v 38 43 85
v -39 18 85
v -36 18 85
v -36 21 85
v -39 21 85
v -40 32 85
v -37 32 85
v -37 35 85
v -40 35 85
v -38 -6 85
v -35 -6 85
v -35 -3 85
v -38 -3 85
v -38 2 85
v -35 2 85
v -35 5 85
v -38 5 85
v -39 -25 85
v -36 -25 85
v -36 -22 85
v -39 -22 85
v -39 -20 85
v -36 -20 85
v -36 -17 85
v -39 -17 85
v -39 -45 85
v -36 -45 85
v -36 -42 85
v -39 -42 85
v -39 -39 85
v -36 -39 85
v -36 -36 85
v -39 -36 85
v 38 -45 85
v 41 -45 85
v 41 -42 85
v 38 -42 85
v 38 -39 85
v 41 -39 85
v 41 -36 85
v 38 -36 85
v 37 -25 85
v 40 -25 85
v 40 -22 85
v 37 -22 85
v 37 -19 85
v 40 -19 85
v 40 -16 85
v 37 -16 85
v -40 41 85
v -37 41 85
v -37 44 85
v -40 44 85
v 38 18 85
v 41 18 85
v 41 21 85
v 38 21 85
v 0 24 84
v -44 16 84
v 0 17 84
v 43 25 84
v 46 27 80
v -44 25 84
v -46 27 80
v -46 12 80
v 43 16 84
v 46 12 80
v -44 9 84
v 0 8 84
v 43 9 84
v 46 -12 80
v 43 -9 84
v -46 -12 80
v -44 -15 84
v 0 -16 84
v 43 -15 84
v 46 -30 80
v 43 -27 84
v -46 -30 80
v -44 -34 84
v 0 -35 84
v 43 -34 84
v 46 -48 80
v 43 -46 84
v -46 -48 80
v 0 -45 84
v -44 -46 84
v 0 -8 84
v -44 -9 84
v 0 -26 84
v -44 -27 84
v 46 48 80
v -46 48 80
v -44 45 84
v 0 44 84
v 43 45 84
v 43 31 84
v 0 32 84
v -44 31 84

f 1 2 3
f 1 3 4
f 1 4 5
f 1 5 6
f 1 6 2
f 2 6 7
f 2 7 8
f 2 8 3
f 3 8 9
f 3 9 10
f 3 10 4
f 4 10 11
f 4 11 12
f 4 12 5
f 5 12 13
f 5 13 14
f 5 14 15
f 5 15 16
f 5 16 6
f 6 16 17
f 6 17 7
f 7 17 18
f 7 18 8
f 8 18 19
f 19 18 20
f 20 18 21
f 20 21 22
f 20 22 23
f 20 23 9
f 9 23 10
f 10 23 11
f 11 23 24
f 11 24 12
f 12 24 25
f 12 25 26
f 12 26 27
f 12 27 13
f 13 27 28
f 13 28 29
f 13 29 14
f 14 29 30
f 14 30 15
f 15 30 31
f 15 31 32
f 15 32 16
f 16 32 33
f 16 33 25
f 16 25 34
f 16 34 17
f 17 34 18
f 18 34 21
f 21 34 35
f 21 35 22
f 22 35 24
f 22 24 23
f 36 33 32
f 36 32 31
f 36 31 37
f 36 37 38
f 36 38 33
f 33 38 39
f 33 39 25
f 25 39 26
f 26 39 40
f 26 40 41
f 26 41 27
f 27 41 28
f 28 41 42
f 28 42 29
f 29 42 43
f 29 43 30
f 30 43 31
f 31 43 37
f 37 43 44
f 37 44 45
f 37 45 46
f 37 46 47
f 37 47 38
f 38 47 40
f 38 40 39
f 47 46 48
f 47 48 49
f 47 49 42
f 47 42 41
f 47 41 40
f 50 49 48
f 50 48 51
f 50 51 52
f 50 52 53
f 50 53 49
f 49 53 54
f 49 54 42
f 42 54 55
f 42 55 43
f 43 55 56
f 43 56 44
f 44 56 57
f 44 57 58
f 44 58 45
f 45 58 59
f 45 59 46
f 46 59 51
f 46 51 48
f 53 52 60
f 53 60 61
f 53 61 54
f 54 61 55
f 55 61 62
f 55 62 56
f 56 62 57
f 57 62 63
f 57 63 58
f 58 63 64
f 58 64 59
f 59 64 51
f 51 64 52
f 52 64 65
f 52 65 66
f 52 66 67
f 52 67 68
f 52 68 60
f 60 68 69
f 60 69 70
f 60 70 63
f 60 63 62
f 60 62 61
f 71 70 69
f 71 69 72
f 71 72 73
f 71 73 74
f 71 74 70
f 70 74 75
f 70 75 63
f 63 75 76
f 63 76 64
f 64 76 77
f 64 77 65
f 65 77 78
f 65 78 79
f 65 79 66
f 66 79 67
f 67 79 80
f 67 80 68
f 68 80 72
f 68 72 69
f 74 73 81
f 74 81 82
f 74 82 75
f 75 82 76
f 76 82 83
f 76 83 77
f 77 83 78
f 78 83 84
f 78 84 79
f 79 84 85
f 79 85 80
f 80 85 73
f 80 73 72
f 24 35 25
f 25 35 34
f 83 82 81
f 83 81 84
f 86 87 88
f 86 88 89
f 90 91 92
f 90 92 93
f 94 95 96
f 94 96 97
f 98 99 100
f 98 100 101
f 102 103 104
f 102 104 105
f 106 107 108
f 106 108 109
f 110 111 112
f 110 112 113
f 114 115 116
f 114 116 117
f 118 119 120
f 118 120 121
f 122 123 124
f 122 124 125
f 126 127 128
f 126 128 129
f 130 131 132
f 130 132 133
f 134 135 136
f 134 136 137
f 138 139 140
f 138 140 141
f 142 143 144
f 142 144 145
f 146 147 148
f 146 148 149
f 150 151 152
f 150 152 153
f 154 155 156
f 154 156 157
f 158 159 160
f 158 160 161
f 162 163 164
f 162 164 165
f 166 167 168
f 166 168 169
f 170 171 172
f 170 172 173
f 174 175 176
f 174 176 177
f 178 179 180
f 178 180 181
f 182 183 184
f 182 184 185
f 186 187 188
f 186 188 189
f 190 191 192
f 190 192 193
f 194 195 196
f 194 196 197
f 198 199 200
f 198 200 201
f 202 203 204
f 202 204 205
f 206 207 208
f 206 208 209
f 210 211 212
f 210 212 213
f 214 215 216
f 214 216 217
f 218 219 220
f 218 220 221
f 222 223 224
f 222 224 225
f 226 227 228
f 226 228 229
f 230 231 232
f 230 232 233
f 234 235 236
f 234 236 237
f 238 239 240
f 238 240 241
f 242 243 244
f 242 244 245
f 246 247 248
f 246 248 249
f 250 251 252
f 250 252 253
f 254 255 256
f 254 256 257
f 258 259 260
f 258 260 261
f 262 263 264
f 262 264 265
f 266 267 268
f 266 268 269
f 270 271 272
f 270 272 273
f 274 275 276
f 274 276 277
f 278 279 280
f 278 280 281
f 282 283 284
f 282 284 285
f 286 287 288
f 286 288 289
f 290 291 292
f 290 292 293
f 294 295 296
f 294 296 297
f 298 299 300
f 298 300 301
f 302 303 304
f 302 304 305
f 306 307 308
f 306 308 309
f 310 311 312
f 310 312 313
f 314 315 316
f 314 316 317
f 318 319 320
f 318 320 321
f 322 323 324
f 322 324 325
f 326 327 328
f 326 328 329
f 330 331 332
f 330 332 333
f 334 335 336
f 334 336 337
f 338 339 340
f 338 340 341
f 342 343 344
f 342 344 345
f 346 347 348
f 346 348 349
f 350 351 352
f 350 352 353
f 354 355 356
f 354 356 357
f 358 359 360
f 358 360 361
f 362 363 364
f 362 364 365
f 366 367 368
f 366 368 369
f 370 371 372
f 370 372 373
f 374 375 376
f 374 376 377
f 378 379 380
f 378 380 381
f 382 383 384
f 382 384 385
f 386 387 388
f 386 388 389
f 390 391 392
f 390 392 393
f 394 395 396
f 394 396 397
f 398 399 400
f 398 400 401
f 402 403 404
f 402 404 405
f 406 407 408
f 406 408 409
f 410 411 412
f 410 412 413
f 414 415 416
f 414 416 417
f 414 417 418
f 414 418 419
f 414 419 415
f 415 419 420
f 415 420 421
f 415 421 416
f 416 421 422
f 416 422 417
f 417 422 423
f 417 423 418
f 422 421 423
f 423 421 424
f 423 424 425
f 423 425 426
f 423 426 427
f 427 426 428
f 427 428 429
f 427 429 430
f 427 430 431
f 427 431 432
f 427 432 433
f 433 432 434
f 433 434 435
f 433 435 436
f 433 436 437
f 433 437 438
f 433 438 439
f 439 438 440
f 439 440 441
f 441 440 442
f 441 442 443
f 441 443 435
f 435 443 436
f 436 443 437
f 437 443 442
f 437 442 438
f 438 442 440
f 444 426 425
f 444 425 445
f 444 445 429
f 444 429 428
f 444 428 426
f 446 432 431
f 446 431 447
f 446 447 435
f 446 435 434
f 446 434 432
f 448 449 450
f 448 450 451
f 448 451 452
f 448 452 418
f 418 452 453
f 418 453 420
f 418 420 419
f 454 452 451
f 454 451 455
f 454 455 420
f 454 420 453
f 454 453 452
f 445 424 421
f 445 421 429
f 447 430 429
f 447 429 435
f 455 450 449
f 455 449 420
f 451 450 455
f 425 424 445
f 431 430 447
