# RS2 Model 21530
# Vertices: 256
# Faces: 416

v -44 -12 0
v -48 6 0
v -50 8 0
v -47 -13 0
v -30 -31 0
v -34 -34 0
v -22 -39 0
v -22 -43 0
v -2 -46 0
v -2 -50 0
v 13 -47 0
v 16 -48 0
v 30 -37 0
v -14 51 0
v 4 51 0
v 5 54 0
v -16 53 0
v -36 43 0
v 46 14 0
v 47 -1 0
v 50 -3 0
v 49 15 0
v 35 32 0
v 39 35 0
v 25 40 0
v 27 44 0
v 41 -21 0
v -19 58 0
v 6 60 0
v 7 63 0
v -19 61 0
v -41 49 0
v 57 14 0
v 58 -6 0
v 61 -6 0
v 59 15 0
v 44 39 0
v 46 40 0
v 32 48 0
v 34 50 0
v 50 -26 0
v -56 -17 0
v -58 8 0
v -60 8 0
v -58 -17 0
v -40 -41 0
v -41 -42 0
v -28 -51 0
v -28 -52 0
v -3 -59 0
v -3 -62 0
v 17 -58 0
v 18 -60 0
v 36 -46 0
v -54 29 0
v -44 27 0
v 36 -43 14
v 35 -21 45
v 32 -36 44
v 26 -43 14
v 24 -41 6
v 34 -41 6
v 44 -26 14
v 53 -18 45
v 39 -13 55
v 30 -23 55
v 22 -35 53
v 19 -56 14
v 18 -54 6
v 15 -47 0
v 20 -36 0
v 29 -36 0
v 42 -25 6
v 61 -23 14
v 55 -3 42
v 42 0 55
v 34 -1 76
v 30 -11 73
v 26 -18 79
v 16 -27 55
v 7 -38 55
v 19 -46 47
v 4 -55 14
v 3 -53 6
v 2 -47 0
v 2 -48 -9
v 15 -48 -9
v 20 -37 -9
v 30 -37 -9
v 36 -22 0
v 58 -22 6
v 63 -7 14
v 48 16 49
v 26 8 55
v 19 6 69
v 28 -8 85
v 13 -21 75
v 6 -32 79
v -10 -41 56
v 4 -44 53
v -8 -60 14
v -7 -57 6
v -6 -50 0
v -6 -52 -9
v -7 -61 -16
v 2 -56 -16
v 17 -56 -16
v 23 -43 -16
v 35 -43 -16
v 37 -22 -9
v 50 -19 0
v 60 -6 6
v 56 12 14
v 32 21 41
v 26 23 55
v 20 18 75
v 14 16 83
v 19 1 84
v 18 2 106
v 25 -6 107
v -2 -28 83
v -7 -32 77
v -12 -28 56
v -37 -19 42
v -27 -32 46
v -26 -42 42
v -8 -50 40
v -27 -61 14
v -25 -58 6
v -21 -51 0
v -22 -53 -9
v -26 -62 -16
v -35 21 47
v -28 26 14
v -51 25 14
v -46 10 42
v -40 5 56
v -33 15 55
v -17 23 47
v -19 43 14
v -18 41 6
v -26 24 6
v -49 23 6
v -63 15 14
v -50 -5 47
v -39 -6 47
v -26 -6 56
v -20 -5 75
v -27 6 73
v -25 14 76
v -13 18 55
v -1 29 55
v -11 36 42
v 2 46 14
v 1 43 6
v 0 36 0
v -15 35 0
v -22 20 0
v -42 19 0
v -60 14 6
v -61 0 14
v -54 -16 14
v -38 -25 14
v -39 -43 14
v 32 41 47
v 38 29 14
v 36 53 14
v 16 50 40
v 14 32 55
v 53 11 6
v 36 27 6
v 34 50 6
v 19 63 14
v 3 36 46
v -2 26 75
v 14 28 72
v -10 16 73
v 2 23 81
v 7 26 83
v 5 17 106
v 9 7 106
v 17 -6 115
v -2 -23 109
v -10 -21 82
v -8 -24 78
v -26 -21 56
v -21 -17 76
v -13 -10 82
v -19 -3 81
v -22 6 81
v -16 11 81
v -3 8 108
v -5 12 81
v -11 8 106
v -12 -1 115
v 5 11 115
v 6 4 136
v 9 -6 136
v 0 -18 115
v -8 -19 108
v -10 -9 108
v -15 -3 108
v -16 3 108
v 0 -10 133
v -4 -1 139
v 18 60 6
v 15 51 0
v 15 53 -9
v 0 38 -9
v -15 36 -9
v -23 21 -9
v -44 20 -9
v -52 11 0
v -58 -1 6
v -51 -15 6
v -36 -24 6
v -37 -41 6
v -32 -36 0
v -33 -37 -9
v -39 -43 -16
v 52 -6 0
v 46 8 0
v 31 22 0
v 29 42 0
v -31 -21 0
v -32 -21 -9
v -38 -23 -16
v -44 -13 0
v -46 -13 -9
v -55 -14 -16
v 52 -19 -9
v 54 -6 -9
v 48 8 -9
v 32 23 -9
v 30 44 -9
v -50 -2 0
v -52 -2 -9
v -62 -2 -16
v -54 11 -9
v -64 14 -16
v 44 -25 -16
v 62 -21 -16
v 64 -6 -16
v 57 10 -16
v 38 28 -16
v 35 53 -16
v 31 61 -16
v -52 25 -16
v -27 26 -16
v -17 44 -16
v 0 46 -16
v 6 56 -16
v 17 64 -16
v 48 -58 0
v 48 60 0
v -48 -58 0

f 1 2 3
f 1 3 4
f 1 4 5
f 5 4 6
f 5 6 7
f 7 6 8
f 7 8 9
f 9 8 10
f 9 10 11
f 11 10 12
f 11 12 13
f 14 15 16
f 14 16 17
f 14 17 18
f 19 20 21
f 19 21 22
f 19 22 23
f 23 22 24
f 23 24 25
f 25 24 26
f 25 26 15
f 15 26 16
f 20 27 21
f 28 29 30
f 28 30 31
f 28 31 32
f 33 34 35
f 33 35 36
f 33 36 37
f 37 36 38
f 37 38 39
f 39 38 40
f 39 40 29
f 29 40 30
f 34 41 35
f 42 43 44
f 42 44 45
f 42 45 46
f 46 45 47
f 46 47 48
f 48 47 49
f 48 49 50
f 50 49 51
f 50 51 52
f 52 51 53
f 52 53 54
f 43 55 44
f 2 56 3
f 57 58 59
f 57 59 60
f 57 60 61
f 57 61 62
f 57 62 63
f 57 63 58
f 58 63 64
f 58 64 65
f 58 65 66
f 58 66 67
f 58 67 59
f 59 67 60
f 60 67 68
f 60 68 69
f 60 69 61
f 61 69 70
f 61 70 71
f 61 71 62
f 62 71 72
f 62 72 73
f 62 73 63
f 63 73 74
f 63 74 64
f 64 74 75
f 64 75 65
f 65 75 76
f 65 76 77
f 65 77 78
f 65 78 66
f 66 78 79
f 66 79 80
f 66 80 67
f 67 80 81
f 67 81 82
f 67 82 68
f 68 82 83
f 68 83 84
f 68 84 69
f 69 84 85
f 69 85 70
f 70 85 86
f 70 86 87
f 70 87 71
f 71 87 88
f 71 88 72
f 72 88 89
f 72 89 90
f 72 90 73
f 73 90 91
f 73 91 74
f 74 91 92
f 74 92 75
f 75 92 93
f 75 93 76
f 76 93 94
f 76 94 95
f 76 95 77
f 77 95 96
f 77 96 78
f 78 96 79
f 79 96 97
f 79 97 80
f 80 97 81
f 81 97 98
f 81 98 99
f 81 99 100
f 81 100 82
f 82 100 83
f 83 100 101
f 83 101 102
f 83 102 84
f 84 102 103
f 84 103 85
f 85 103 104
f 85 104 86
f 86 104 105
f 86 105 106
f 86 106 87
f 87 106 107
f 87 107 88
f 88 107 108
f 88 108 89
f 89 108 109
f 89 109 110
f 89 110 90
f 90 110 111
f 90 111 91
f 91 111 112
f 91 112 92
f 92 112 113
f 92 113 93
f 93 113 114
f 93 114 115
f 93 115 94
f 94 115 95
f 95 115 116
f 95 116 117
f 95 117 118
f 95 118 96
f 96 118 119
f 96 119 120
f 96 120 121
f 96 121 97
f 97 121 98
f 98 121 122
f 98 122 99
f 99 122 123
f 99 123 124
f 99 124 125
f 99 125 126
f 99 126 127
f 99 127 100
f 100 127 101
f 101 127 128
f 101 128 129
f 101 129 102
f 102 129 130
f 102 130 103
f 103 130 131
f 103 131 104
f 104 131 132
f 104 132 105
f 133 134 135
f 133 135 136
f 133 136 137
f 133 137 138
f 133 138 139
f 133 139 134
f 134 139 140
f 134 140 141
f 134 141 142
f 134 142 135
f 135 142 143
f 135 143 144
f 135 144 136
f 136 144 145
f 136 145 137
f 137 145 146
f 137 146 124
f 137 124 147
f 137 147 148
f 137 148 149
f 137 149 138
f 138 149 150
f 138 150 151
f 138 151 139
f 139 151 152
f 139 152 153
f 139 153 140
f 140 153 154
f 140 154 155
f 140 155 141
f 141 155 156
f 141 156 157
f 141 157 142
f 142 157 158
f 142 158 143
f 143 158 159
f 143 159 160
f 143 160 144
f 144 160 161
f 144 161 145
f 145 161 162
f 145 162 146
f 146 162 124
f 124 162 163
f 124 163 125
f 125 163 164
f 125 164 126
f 126 164 128
f 126 128 127
f 165 166 167
f 165 167 168
f 165 168 169
f 165 169 115
f 165 115 114
f 165 114 166
f 166 114 113
f 166 113 170
f 166 170 171
f 166 171 167
f 167 171 172
f 167 172 173
f 167 173 168
f 168 173 174
f 168 174 169
f 169 174 152
f 169 152 175
f 169 175 176
f 169 176 116
f 169 116 115
f 152 177 175
f 175 177 178
f 175 178 179
f 175 179 176
f 176 179 116
f 116 179 117
f 117 179 180
f 117 180 181
f 117 181 118
f 118 181 119
f 119 181 182
f 119 182 120
f 120 182 183
f 120 183 121
f 121 183 184
f 121 184 185
f 121 185 122
f 122 185 123
f 123 185 186
f 123 186 124
f 124 186 147
f 147 186 187
f 147 187 148
f 148 187 185
f 148 185 184
f 148 184 188
f 148 188 189
f 148 189 190
f 148 190 149
f 149 190 150
f 150 190 191
f 150 191 177
f 150 177 151
f 151 177 152
f 187 186 185
f 178 192 180
f 178 180 179
f 192 193 194
f 192 194 195
f 192 195 196
f 192 196 180
f 180 196 181
f 181 196 182
f 182 196 197
f 182 197 198
f 182 198 199
f 182 199 183
f 183 199 200
f 183 200 184
f 184 200 188
f 188 200 201
f 188 201 189
f 189 201 202
f 189 202 190
f 190 202 203
f 190 203 191
f 191 203 194
f 191 194 193
f 191 193 177
f 177 193 178
f 178 193 192
f 195 203 202
f 195 202 201
f 195 201 199
f 195 199 204
f 195 204 205
f 195 205 196
f 196 205 197
f 197 205 198
f 198 205 204
f 198 204 199
f 154 174 173
f 154 173 206
f 154 206 155
f 155 206 207
f 155 207 156
f 156 207 208
f 156 208 209
f 156 209 157
f 157 209 210
f 157 210 158
f 158 210 211
f 158 211 159
f 159 211 212
f 159 212 213
f 159 213 160
f 160 213 214
f 160 214 161
f 161 214 162
f 162 214 215
f 162 215 163
f 163 215 216
f 163 216 164
f 164 216 217
f 164 217 128
f 128 217 129
f 129 217 218
f 129 218 130
f 130 218 219
f 130 219 131
f 131 219 220
f 131 220 132
f 152 174 153
f 153 174 154
f 194 203 195
f 201 200 199
f 113 112 170
f 170 112 221
f 170 221 222
f 170 222 171
f 171 222 223
f 171 223 172
f 172 223 224
f 172 224 206
f 172 206 173
f 217 216 225
f 217 225 218
f 218 225 226
f 218 226 219
f 219 226 227
f 219 227 220
f 216 215 228
f 216 228 225
f 225 228 229
f 225 229 226
f 226 229 230
f 226 230 227
f 112 111 221
f 221 111 231
f 221 231 232
f 221 232 222
f 222 232 233
f 222 233 223
f 223 233 234
f 223 234 224
f 224 234 235
f 224 235 207
f 224 207 206
f 215 214 236
f 215 236 228
f 228 236 237
f 228 237 229
f 229 237 238
f 229 238 230
f 214 213 236
f 236 213 239
f 236 239 237
f 237 239 240
f 237 240 238
f 111 110 231
f 231 110 241
f 231 241 242
f 231 242 232
f 232 242 243
f 232 243 233
f 233 243 244
f 233 244 234
f 234 244 245
f 234 245 235
f 235 245 246
f 235 246 247
f 235 247 208
f 235 208 207
f 213 212 239
f 239 212 248
f 239 248 240
f 212 211 249
f 212 249 248
f 211 210 250
f 211 250 249
f 110 109 241
f 210 209 251
f 210 251 250
f 252 209 208
f 252 208 253
f 253 208 247
f 209 252 251
