# RS2 Model 21548
# Vertices: 56
# Faces: 108

v -14 -14 27
v -12 -14 4
v -19 -4 4
v -20 -6 27
v -21 -7 38
v -14 -14 38
v -21 -22 27
v -20 -24 4
v -15 -34 -8
v 0 -14 -8
v -13 6 -8
v -30 -4 4
v -29 -6 27
v -29 -1 27
v -20 -1 27
v -21 -2 38
v -28 -7 38
v -25 -14 41
v -22 -21 38
v -30 -22 27
v -31 -24 4
v -37 -34 -8
v -37 -34 -11
v -15 -34 -11
v 0 -14 -11
v -13 6 -11
v -35 6 -8
v -38 -14 4
v -36 -14 27
v -36 -14 38
v -28 -2 38
v -27 -1 36
v -27 -1 29
v -22 -1 29
v -23 -1 36
v -29 -21 38
v -50 -14 -8
v -50 -14 -11
v -46 -14 -11
v -35 -31 -11
v -17 -31 -11
v -4 -14 -11
v -15 3 -11
v -35 6 -11
v -33 3 -11
v -28 -7 4
v -33 -14 4
v -29 -21 4
v -22 -21 4
v -17 -14 4
v -21 -7 4
v -25 -14 20
v -23 9 36
v -27 9 36
v -27 10 29
v -22 10 29

f 1 2 3
f 1 3 4
f 1 4 5
f 1 5 6
f 1 6 7
f 1 7 2
f 2 7 8
f 2 8 9
f 2 9 10
f 2 10 3
f 3 10 11
f 3 11 12
f 3 12 4
f 4 12 13
f 4 13 14
f 4 14 15
f 4 15 5
f 5 15 16
f 5 16 17
f 5 17 18
f 5 18 6
f 6 18 19
f 6 19 7
f 7 19 20
f 7 20 8
f 8 20 21
f 8 21 22
f 8 22 9
f 9 22 23
f 9 23 24
f 9 24 10
f 10 24 25
f 10 25 11
f 11 25 26
f 11 26 27
f 11 27 12
f 12 27 28
f 12 28 13
f 13 28 29
f 13 29 30
f 13 30 17
f 13 17 31
f 13 31 14
f 14 31 32
f 14 32 33
f 14 33 15
f 15 33 34
f 15 34 16
f 16 34 35
f 16 35 31
f 16 31 17
f 29 28 21
f 29 21 20
f 29 20 36
f 29 36 30
f 30 36 18
f 30 18 17
f 28 27 37
f 28 37 21
f 21 37 22
f 22 37 38
f 22 38 23
f 23 38 39
f 23 39 40
f 23 40 24
f 24 40 41
f 24 41 25
f 25 41 42
f 25 42 26
f 26 42 43
f 26 43 44
f 26 44 27
f 27 44 37
f 37 44 38
f 38 44 45
f 38 45 39
f 39 45 46
f 39 46 47
f 39 47 40
f 40 47 48
f 40 48 41
f 41 48 49
f 41 49 42
f 42 49 50
f 42 50 43
f 43 50 51
f 43 51 45
f 43 45 44
f 20 19 36
f 36 19 18
f 45 51 46
f 46 51 52
f 46 52 47
f 47 52 48
f 48 52 49
f 49 52 50
f 50 52 51
f 31 35 32
f 32 35 53
f 32 53 54
f 32 54 33
f 33 54 55
f 33 55 34
f 34 55 56
f 34 56 35
f 35 56 53
f 53 56 54
f 54 56 55
