# RS2 Model 21540
# Vertices: 473
# Faces: 927

v -28 47 122
v -13 34 128
v -14 51 135
v -17 62 135
v -35 57 121
v -42 10 106
v -25 13 123
v -14 10 133
v 0 8 135
v 0 66 141
v 0 93 132
v -17 108 113
v -35 102 101
v -46 90 85
v -42 62 98
v -39 43 101
v -33 36 72
v -50 20 78
v -54 -4 98
v -42 -33 110
v -24 -10 124
v 0 -15 132
v 14 10 133
v 13 34 128
v 14 51 135
v 17 62 135
v 17 108 113
v 1 114 117
v 0 114 118
v -1 114 117
v 0 118 100
v -12 114 89
v -35 113 82
v -52 103 84
v -52 80 75
v -39 51 81
v -35 48 60
v -17 37 62
v -29 22 61
v -35 22 62
v -54 7 69
v -54 2 80
v -53 -14 84
v -39 -31 87
v -38 -54 105
v -29 -47 120
v -33 -32 124
v -23 -33 131
v -14 -38 137
v 0 -39 136
v 14 -38 137
v 24 -10 124
v 25 13 123
v 28 47 122
v 35 57 121
v 35 102 101
v 35 113 82
v 12 114 89
v 1 122 106
v 0 124 106
v -1 122 106
v -44 11 44
v -44 2 24
v -35 -21 56
v -44 11 53
v -35 24 51
v -35 30 19
v -46 7 15
v -46 -5 16
v -35 -11 16
v -35 -4 24
v -25 2 24
v -21 -6 53
v -35 -22 58
v -50 -10 71
v -25 18 52
v -24 7 15
v -35 22 10
v -35 24 7
v -50 4 0
v -50 -11 0
v -44 -24 19
v -35 -26 19
v -24 -5 16
v -21 4 0
v -28 -48 85
v -19 -71 96
v -16 -76 117
v -13 -67 120
v -13 -60 121
v -16 -46 127
v -18 -79 100
v -15 -92 110
v -17 -85 111
v -20 -85 89
v -17 -91 97
v -17 -92 103
v -20 -92 110
v -17 -96 114
v -12 -96 114
v -6 -95 110
v 0 -92 112
v 0 -85 115
v 0 -78 118
v -35 124 58
v -52 105 67
v -54 89 58
v -52 74 46
v -46 79 28
v -35 63 28
v -20 79 28
v -16 71 58
v 0 53 46
v 0 22 47
v -19 18 52
v -46 89 28
v -46 82 17
v -35 73 17
v -20 82 17
v -20 93 17
v -20 89 28
v -16 108 60
v 0 85 48
v 16 108 60
v 16 71 58
v 17 37 62
v 29 22 61
v 19 18 52
v 0 2 44
v -14 -6 53
v -46 99 28
v -35 110 34
v -35 107 17
v -46 93 17
v -46 79 10
v -35 75 12
v -17 79 10
v -17 93 10
v -20 99 28
v 0 121 67
v 35 124 58
v 35 110 34
v 20 99 28
v 20 89 28
v 20 79 28
v 35 48 60
v 33 36 72
v 35 22 62
v 25 18 52
v 21 -6 53
v 14 -6 53
v 0 -26 58
v -21 -32 71
v -35 110 10
v -46 93 10
v -51 89 0
v -50 74 0
v -46 65 15
v -35 63 15
v -20 65 15
v -16 74 0
v -16 89 0
v -35 110 7
v -21 -11 0
v -30 -13 0
v -35 21 0
v -25 -24 19
v -25 -32 11
v -23 -35 0
v -35 -36 10
v -35 -40 0
v -39 -13 0
v -50 -35 0
v -44 -31 10
v -35 105 0
v -27 72 0
v -39 72 0
v -50 58 0
v -46 57 8
v -35 53 8
v -20 55 8
v -17 58 0
v 0 120 87
v 0 128 96
v -1 125 95
v 0 122 95
v 1 125 95
v 0 129 90
v -35 50 0
v 0 -64 123
v 0 -49 129
v -16 -47 71
v -16 -62 75
v -15 -76 76
v -15 -89 70
v -19 -91 88
v -16 -95 96
v -17 -95 102
v -21 -96 108
v -18 -99 114
v -12 -100 114
v -12 -103 114
v -6 -97 109
v -3 -97 107
v 0 -96 111
v 6 -95 110
v 15 -92 110
v 17 -85 111
v 16 -76 117
v 13 -67 120
v 0 -68 122
v 16 -46 127
v 23 -33 131
v 33 -32 124
v 42 -33 110
v 42 10 106
v 39 43 101
v 42 62 98
v 46 90 85
v 52 103 84
v 52 105 67
v -17 -96 107
v -17 -96 103
v -12 -97 110
v -16 -97 110
v -17 -97 107
v -21 -97 107
v -10 -96 103
v -10 -96 108
v -12 -101 110
v -17 -101 110
v -17 -102 111
v -9 -98 108
v 0 -114 100
v -4 -113 96
v 0 -117 96
v 4 -113 96
v 3 -111 100
v 0 -110 104
v -3 -111 100
v -12 -107 98
v -10 -109 97
v -4 -111 94
v -2 -114 92
v 0 -121 92
v 2 -114 92
v 4 -111 94
v 10 -109 97
v 12 -107 98
v 10 -96 103
v 3 -97 107
v 0 -103 109
v -14 -107 92
v -13 -109 92
v -10 -109 93
v -10 -108 96
v -6 -111 92
v -3 -111 92
v -6 -113 91
v -1 -130 85
v 0 -130 86
v 1 -130 85
v 6 -113 91
v 3 -111 92
v 6 -111 92
v 10 -109 93
v 10 -108 96
v 13 -109 92
v 14 -107 92
v 16 -95 96
v 17 -96 103
v 10 -96 108
v 9 -98 108
v 6 -97 109
v -17 -99 81
v -14 -111 85
v -7 -117 83
v -3 -130 82
v 0 -133 84
v 3 -130 82
v 7 -117 83
v 14 -111 85
v 0 -131 79
v 0 -133 82
v 3 -128 76
v 6 -124 78
v 7 -117 80
v 11 -111 79
v 17 -99 81
v 19 -91 88
v 20 -85 89
v 17 -91 97
v 17 -92 103
v 17 -95 102
v 21 -97 107
v 17 -97 107
v 17 -96 107
v 12 -97 110
v 12 -101 110
v 12 -103 114
v 12 -100 114
v 12 -96 114
v 17 -96 114
v 20 -92 110
v 18 -79 100
v 19 -71 96
v 38 -54 105
v 13 -60 121
v -6 -124 78
v -3 -128 76
v 0 -129 75
v 0 -128 75
v 2 -127 75
v 5 -122 78
v -11 -111 79
v -7 -117 80
v -5 -122 78
v -2 -127 75
v -11 -109 77
v -7 -112 70
v -7 -112 73
v -9 -105 69
v -3 -110 67
v -3 -116 66
v -3 -119 69
v -4 -117 71
v -6 -112 73
v -7 -108 76
v 0 -110 80
v 0 -116 83
v 0 -116 65
v 0 -121 68
v 0 -119 69
v -2 -117 70
v -3 -118 75
v -3 -115 71
v 0 -111 74
v 0 -109 77
v 7 -108 76
v 0 -119 72
v -1 -117 70
v 0 -117 70
v 1 -117 70
v 3 -115 71
v 6 -112 73
v -12 -100 70
v 0 -104 68
v 0 -110 67
v 2 -117 70
v 3 -118 75
v 4 -117 71
v 7 -112 73
v 11 -109 77
v 7 -112 70
v 9 -105 69
v 12 -100 70
v 15 -89 70
v 15 -76 76
v 0 -99 67
v 3 -110 67
v 3 -116 66
v 3 -119 69
v 0 -89 65
v 0 -46 42
v 0 -62 57
v -7 -54 60
v 0 -44 57
v 7 -54 60
v 16 -62 75
v 7 -69 66
v 0 -66 50
v -7 -69 66
v 0 -30 49
v 16 -47 71
v 28 -48 85
v 7 -77 70
v 0 -80 60
v -7 -77 70
v 21 -32 71
v 39 -31 87
v 0 -85 67
v -14 -85 70
v 14 -85 70
v 44 11 44
v 35 -21 56
v 44 2 24
v 35 30 19
v 35 24 51
v 44 11 53
v 35 -22 58
v 25 2 24
v 35 -4 24
v 35 -11 16
v 46 -5 16
v 46 7 15
v 35 22 10
v 24 7 15
v 54 7 69
v 50 -10 71
v 53 -14 84
v 52 80 75
v 39 51 81
v 52 74 46
v 54 89 58
v 35 63 28
v 46 79 28
v 46 89 28
v 46 99 28
v 35 107 17
v 20 93 17
v 20 82 17
v 46 93 17
v 35 110 10
v 46 82 17
v 46 79 10
v 46 93 10
v 35 110 7
v 17 93 10
v 17 79 10
v 35 73 17
v 35 75 12
v 35 63 15
v 46 65 15
v 50 74 0
v 51 89 0
v 35 105 0
v 16 89 0
v 16 74 0
v 20 65 15
v 54 2 80
v 54 -4 98
v 29 -47 120
v 50 20 78
v 50 4 0
v 35 24 7
v 21 4 0
v 24 -5 16
v 35 -27 14
v 44 -25 14
v 50 -11 0
v 39 -13 0
v 30 -13 0
v 35 21 0
v 21 -11 0
v 25 -25 14
v 35 -36 10
v 44 -31 10
v 50 -35 0
v 39 72 0
v 50 58 0
v 46 57 8
v 35 53 8
v 35 50 0
v 27 72 0
v 17 58 0
v 20 55 8
v 23 -35 0
v 25 -32 11
v 35 -40 0
v 16 -97 110
v 17 -101 110
v 17 -102 111
v 18 -99 114
v 21 -96 108
v -3 -106 78
v -3 -110 92
v 10 -102 84
v 2 -112 95
v -1 -107 82
v -12 -108 99
v -34 -56 113
v 29 -59 113
v -29 60 128

f 1 2 3
f 1 3 4
f 1 4 5
f 1 5 6
f 1 6 7
f 1 7 2
f 2 7 8
f 2 8 9
f 2 9 3
f 3 9 10
f 3 10 4
f 4 10 11
f 4 11 12
f 4 12 13
f 4 13 5
f 5 13 14
f 5 14 15
f 5 15 16
f 5 16 6
f 6 16 17
f 6 17 18
f 6 18 19
f 6 19 20
f 6 20 7
f 7 20 21
f 7 21 8
f 8 21 22
f 8 22 9
f 9 22 23
f 9 23 24
f 9 24 25
f 9 25 10
f 10 25 26
f 10 26 11
f 11 26 27
f 11 27 28
f 11 28 29
f 11 29 30
f 11 30 12
f 12 30 31
f 12 31 32
f 12 32 33
f 12 33 13
f 13 33 34
f 13 34 14
f 14 34 35
f 14 35 36
f 14 36 15
f 15 36 16
f 16 36 17
f 17 36 37
f 17 37 38
f 17 38 39
f 17 39 40
f 17 40 18
f 18 40 41
f 18 41 42
f 18 42 19
f 19 42 43
f 19 43 20
f 20 43 44
f 20 44 45
f 20 45 46
f 20 46 47
f 20 47 21
f 21 47 48
f 21 48 49
f 21 49 22
f 22 49 50
f 22 50 51
f 22 51 52
f 22 52 23
f 23 52 53
f 23 53 24
f 24 53 54
f 24 54 25
f 25 54 26
f 26 54 55
f 26 55 56
f 26 56 27
f 27 56 57
f 27 57 58
f 27 58 31
f 27 31 28
f 28 31 59
f 28 59 60
f 28 60 29
f 29 60 30
f 30 60 61
f 30 61 31
f 30 31 61
f 62 63 64
f 62 64 65
f 62 65 66
f 62 66 67
f 62 67 63
f 63 67 68
f 63 68 69
f 63 69 70
f 63 70 71
f 63 71 64
f 64 71 72
f 64 72 73
f 64 73 74
f 64 74 65
f 65 74 75
f 65 75 41
f 65 41 40
f 65 40 66
f 66 40 76
f 66 76 67
f 67 76 72
f 67 72 77
f 67 77 78
f 67 78 68
f 68 78 79
f 68 79 80
f 68 80 69
f 69 80 81
f 69 81 82
f 69 82 70
f 70 82 83
f 70 83 84
f 70 84 71
f 71 84 72
f 72 84 77
f 77 84 85
f 77 85 79
f 77 79 78
f 45 86 87
f 45 87 88
f 45 88 89
f 45 89 90
f 45 90 46
f 46 90 91
f 46 91 48
f 46 48 47
f 92 93 94
f 92 94 87
f 92 87 95
f 92 95 96
f 92 96 97
f 92 97 93
f 93 97 98
f 93 98 99
f 93 99 100
f 93 100 101
f 93 101 102
f 93 102 103
f 93 103 94
f 94 103 104
f 94 104 88
f 94 88 87
f 33 105 106
f 33 106 34
f 34 106 35
f 35 106 107
f 35 107 108
f 35 108 37
f 35 37 36
f 108 109 110
f 108 110 37
f 37 110 111
f 37 111 112
f 37 112 38
f 38 112 113
f 38 113 114
f 38 114 39
f 39 114 115
f 39 115 76
f 39 76 40
f 108 107 116
f 108 116 109
f 109 116 117
f 109 117 118
f 109 118 110
f 110 118 119
f 110 119 111
f 111 119 120
f 111 120 121
f 111 121 122
f 111 122 112
f 112 122 113
f 113 122 123
f 113 123 124
f 113 124 125
f 113 125 126
f 113 126 114
f 114 126 127
f 114 127 128
f 114 128 129
f 114 129 115
f 115 129 130
f 115 130 73
f 115 73 76
f 76 73 72
f 131 116 107
f 131 107 106
f 131 106 105
f 131 105 132
f 131 132 133
f 131 133 134
f 131 134 116
f 116 134 117
f 117 134 135
f 117 135 136
f 117 136 118
f 118 136 137
f 118 137 119
f 119 137 138
f 119 138 120
f 120 138 133
f 120 133 139
f 120 139 121
f 121 139 122
f 122 139 132
f 122 132 105
f 122 105 32
f 122 32 140
f 122 140 123
f 123 140 124
f 124 140 58
f 124 58 141
f 124 141 142
f 124 142 143
f 124 143 144
f 124 144 145
f 124 145 125
f 125 145 146
f 125 146 126
f 126 146 147
f 126 147 127
f 127 147 148
f 127 148 149
f 127 149 128
f 128 149 150
f 128 150 151
f 128 151 129
f 129 151 152
f 129 152 130
f 130 152 153
f 130 153 73
f 73 153 74
f 74 153 44
f 74 44 43
f 74 43 75
f 75 43 42
f 75 42 41
f 134 133 154
f 134 154 155
f 134 155 135
f 135 155 156
f 135 156 157
f 135 157 158
f 135 158 159
f 135 159 136
f 136 159 137
f 137 159 160
f 137 160 161
f 137 161 162
f 137 162 138
f 138 162 163
f 138 163 154
f 138 154 133
f 139 133 132
f 84 164 85
f 85 164 165
f 85 165 80
f 85 80 166
f 85 166 79
f 79 166 80
f 32 105 33
f 83 167 84
f 84 167 164
f 164 167 168
f 164 168 169
f 164 169 165
f 165 169 168
f 165 168 167
f 165 167 83
f 165 83 170
f 165 170 171
f 165 171 172
f 165 172 80
f 80 172 81
f 81 172 173
f 81 173 174
f 81 174 82
f 82 174 172
f 82 172 83
f 83 172 170
f 170 172 171
f 156 155 163
f 156 163 175
f 156 175 162
f 156 162 176
f 156 176 177
f 156 177 157
f 157 177 178
f 157 178 179
f 157 179 158
f 158 179 177
f 158 177 159
f 159 177 180
f 159 180 176
f 159 176 160
f 160 176 181
f 160 181 161
f 161 181 182
f 161 182 176
f 161 176 162
f 155 154 163
f 163 162 175
f 140 32 183
f 140 183 58
f 58 183 31
f 31 183 32
f 61 60 184
f 61 184 185
f 61 185 31
f 31 185 186
f 31 186 187
f 31 187 59
f 59 187 184
f 59 184 60
f 185 184 188
f 185 188 186
f 186 188 187
f 187 188 184
f 173 172 174
f 178 177 179
f 189 177 176
f 189 176 180
f 189 180 177
f 182 181 176
f 90 190 191
f 90 191 91
f 91 191 49
f 91 49 48
f 45 44 86
f 86 44 153
f 86 153 192
f 86 192 193
f 86 193 194
f 86 194 87
f 87 194 95
f 95 194 195
f 95 195 196
f 95 196 197
f 95 197 96
f 96 197 97
f 97 197 198
f 97 198 199
f 97 199 98
f 98 199 99
f 99 199 200
f 99 200 100
f 100 200 201
f 100 201 101
f 101 201 202
f 101 202 203
f 101 203 204
f 101 204 205
f 101 205 102
f 102 205 206
f 102 206 207
f 102 207 103
f 103 207 208
f 103 208 104
f 104 208 209
f 104 209 210
f 104 210 211
f 104 211 89
f 104 89 88
f 191 50 49
f 50 191 51
f 51 191 212
f 51 212 213
f 51 213 52
f 52 213 214
f 52 214 215
f 52 215 53
f 53 215 216
f 53 216 54
f 54 216 55
f 55 216 217
f 55 217 218
f 55 218 219
f 55 219 56
f 56 219 220
f 56 220 57
f 57 220 221
f 57 221 141
f 57 141 58
f 222 223 224
f 222 224 225
f 222 225 226
f 222 226 223
f 223 226 227
f 223 227 198
f 223 198 197
f 223 197 228
f 223 228 229
f 223 229 224
f 224 229 230
f 224 230 231
f 224 231 225
f 225 231 226
f 226 231 227
f 227 231 232
f 227 232 200
f 227 200 199
f 227 199 198
f 229 233 230
f 230 233 202
f 230 202 231
f 231 202 232
f 232 202 201
f 232 201 200
f 233 228 204
f 233 204 203
f 233 203 202
f 233 229 228
f 234 235 236
f 234 236 237
f 234 237 238
f 234 238 239
f 234 239 240
f 234 240 235
f 235 240 241
f 235 241 242
f 235 242 243
f 235 243 244
f 235 244 236
f 236 244 245
f 236 245 246
f 236 246 237
f 237 246 247
f 237 247 248
f 237 248 249
f 237 249 238
f 238 249 250
f 238 250 251
f 238 251 252
f 238 252 239
f 239 252 240
f 240 252 204
f 240 204 228
f 240 228 241
f 241 228 197
f 241 197 253
f 241 253 242
f 242 253 254
f 242 254 255
f 242 255 256
f 242 256 243
f 243 256 255
f 243 255 257
f 243 257 258
f 243 258 244
f 244 258 259
f 244 259 245
f 245 259 260
f 245 260 261
f 245 261 262
f 245 262 263
f 245 263 246
f 246 263 264
f 246 264 247
f 247 264 265
f 247 265 266
f 247 266 267
f 247 267 248
f 248 267 266
f 248 266 268
f 248 268 269
f 248 269 249
f 249 269 270
f 249 270 250
f 250 270 271
f 250 271 272
f 250 272 273
f 250 273 251
f 251 273 274
f 251 274 206
f 251 206 205
f 251 205 252
f 252 205 204
f 257 255 254
f 257 254 259
f 257 259 258
f 253 196 275
f 253 275 276
f 253 276 259
f 253 259 254
f 196 253 197
f 259 276 277
f 259 277 260
f 260 277 278
f 260 278 279
f 260 279 261
f 261 279 262
f 262 279 280
f 262 280 281
f 262 281 263
f 263 281 282
f 263 282 269
f 263 269 268
f 263 268 265
f 263 265 264
f 278 283 284
f 278 284 279
f 279 284 280
f 280 284 283
f 280 283 285
f 280 285 286
f 280 286 281
f 281 286 287
f 281 287 288
f 281 288 282
f 282 288 289
f 282 289 269
f 269 289 290
f 269 290 270
f 270 290 291
f 270 291 292
f 270 292 293
f 270 293 294
f 270 294 271
f 271 294 295
f 271 295 296
f 271 296 297
f 271 297 298
f 271 298 272
f 272 298 299
f 272 299 273
f 273 299 300
f 273 300 274
f 274 300 206
f 206 300 301
f 206 301 302
f 206 302 207
f 207 302 303
f 207 303 304
f 207 304 293
f 207 293 305
f 207 305 208
f 208 305 306
f 208 306 209
f 209 306 307
f 209 307 210
f 210 307 308
f 210 308 190
f 210 190 211
f 211 190 89
f 89 190 90
f 277 309 278
f 278 309 310
f 278 310 283
f 283 310 311
f 283 311 285
f 285 311 312
f 285 312 313
f 285 313 314
f 285 314 286
f 286 314 287
f 277 276 315
f 277 315 316
f 277 316 309
f 309 316 317
f 309 317 310
f 310 317 318
f 310 318 312
f 310 312 311
f 275 319 315
f 275 315 276
f 320 321 319
f 320 319 275
f 320 275 322
f 320 322 323
f 320 323 324
f 320 324 325
f 320 325 321
f 321 325 326
f 321 326 327
f 321 327 319
f 319 327 328
f 319 328 315
f 315 328 329
f 315 329 330
f 315 330 316
f 325 324 331
f 325 331 332
f 325 332 333
f 325 333 334
f 325 334 326
f 326 334 335
f 326 335 336
f 326 336 327
f 327 336 337
f 327 337 328
f 328 337 338
f 328 338 329
f 329 338 339
f 329 339 288
f 329 288 330
f 330 288 287
f 334 333 340
f 334 340 341
f 334 341 335
f 335 341 336
f 336 341 337
f 337 341 342
f 337 342 343
f 337 343 344
f 337 344 345
f 337 345 339
f 337 339 338
f 275 346 322
f 322 346 347
f 322 347 323
f 323 347 348
f 323 348 331
f 323 331 324
f 342 341 340
f 342 340 343
f 343 340 349
f 343 349 350
f 343 350 344
f 344 350 351
f 344 351 345
f 345 351 352
f 345 352 353
f 345 353 339
f 339 353 288
f 288 353 289
f 289 353 354
f 289 354 355
f 289 355 356
f 289 356 357
f 289 357 290
f 290 357 291
f 291 357 358
f 291 358 306
f 291 306 305
f 291 305 292
f 292 305 293
f 347 346 359
f 347 359 356
f 347 356 355
f 347 355 360
f 347 360 348
f 348 360 331
f 331 360 361
f 331 361 362
f 331 362 332
f 332 362 333
f 333 362 349
f 333 349 340
f 195 275 196
f 275 195 346
f 346 195 359
f 359 195 363
f 359 363 357
f 359 357 356
f 364 365 366
f 364 366 367
f 364 367 368
f 364 368 365
f 365 368 369
f 365 369 370
f 365 370 371
f 365 371 372
f 365 372 193
f 365 193 366
f 366 193 192
f 366 192 367
f 367 192 373
f 367 373 374
f 367 374 368
f 368 374 369
f 369 374 375
f 369 375 358
f 369 358 370
f 370 358 376
f 370 376 371
f 371 376 377
f 371 377 378
f 371 378 372
f 372 378 194
f 372 194 193
f 373 153 152
f 373 152 379
f 373 379 374
f 374 379 375
f 375 379 380
f 375 380 307
f 375 307 306
f 375 306 358
f 373 192 153
f 377 381 382
f 377 382 378
f 378 382 194
f 194 382 195
f 195 382 363
f 363 382 381
f 363 381 383
f 363 383 357
f 357 383 358
f 358 383 376
f 376 383 377
f 377 383 381
f 384 385 386
f 384 386 387
f 384 387 388
f 384 388 389
f 384 389 385
f 385 389 390
f 385 390 150
f 385 150 391
f 385 391 392
f 385 392 386
f 386 392 393
f 386 393 394
f 386 394 395
f 386 395 387
f 387 395 396
f 387 396 397
f 387 397 391
f 387 391 149
f 387 149 388
f 388 149 148
f 388 148 389
f 389 148 398
f 389 398 399
f 389 399 390
f 390 399 400
f 390 400 380
f 390 380 379
f 390 379 150
f 150 379 151
f 151 379 152
f 401 219 402
f 401 402 146
f 401 146 403
f 401 403 404
f 401 404 221
f 401 221 220
f 401 220 219
f 403 405 406
f 403 406 407
f 403 407 404
f 404 407 408
f 404 408 221
f 221 408 141
f 141 408 142
f 142 408 409
f 142 409 143
f 143 409 410
f 143 410 144
f 144 410 145
f 145 410 411
f 145 411 405
f 145 405 146
f 146 405 403
f 412 413 409
f 412 409 408
f 412 408 407
f 412 407 414
f 412 414 415
f 412 415 416
f 412 416 413
f 413 416 417
f 413 417 418
f 413 418 409
f 409 418 410
f 410 418 411
f 411 418 419
f 411 419 420
f 411 420 405
f 405 420 406
f 406 420 414
f 406 414 407
f 414 421 415
f 415 421 422
f 415 422 423
f 415 423 424
f 415 424 425
f 415 425 416
f 416 425 417
f 417 425 426
f 417 426 427
f 417 427 418
f 418 427 419
f 419 427 428
f 419 428 429
f 419 429 422
f 419 422 421
f 419 421 420
f 420 421 414
f 400 430 431
f 400 431 215
f 400 215 380
f 380 215 307
f 307 215 432
f 307 432 308
f 308 432 212
f 308 212 191
f 308 191 190
f 400 399 430
f 430 399 398
f 430 398 433
f 430 433 431
f 431 433 216
f 431 216 215
f 216 433 147
f 216 147 217
f 217 147 402
f 217 402 218
f 218 402 219
f 433 148 147
f 148 433 398
f 147 146 402
f 394 434 395
f 395 434 435
f 395 435 396
f 396 435 397
f 397 435 436
f 397 436 437
f 397 437 391
f 391 437 392
f 392 437 393
f 393 437 438
f 393 438 439
f 393 439 394
f 394 439 440
f 394 440 434
f 434 440 441
f 434 441 442
f 434 442 436
f 434 436 443
f 434 443 435
f 435 443 436
f 437 436 444
f 437 444 445
f 437 445 438
f 438 445 442
f 438 442 446
f 438 446 441
f 438 441 439
f 439 441 447
f 439 447 440
f 440 447 448
f 440 448 441
f 441 448 447
f 149 391 150
f 449 425 424
f 449 424 450
f 449 450 451
f 449 451 423
f 449 423 422
f 449 422 452
f 449 452 453
f 449 453 454
f 449 454 425
f 425 454 427
f 425 427 426
f 427 454 428
f 428 454 455
f 428 455 456
f 428 456 429
f 429 456 454
f 429 454 422
f 422 454 452
f 452 454 453
f 436 442 444
f 444 442 457
f 444 457 458
f 444 458 445
f 445 458 442
f 442 458 457
f 28 59 31
f 459 442 441
f 459 441 446
f 459 446 442
f 424 451 450
f 451 424 423
f 455 454 456
f 213 212 432
f 213 432 214
f 214 432 215
f 297 460 298
f 298 460 461
f 298 461 299
f 299 461 300
f 300 461 462
f 300 462 301
f 301 462 463
f 301 463 302
f 302 463 303
f 303 463 464
f 303 464 304
f 304 464 293
f 293 464 294
f 294 464 295
f 295 464 463
f 295 463 462
f 295 462 461
f 295 461 296
f 296 461 460
f 296 460 297
f 265 268 266
f 362 354 352
f 362 352 351
f 362 351 349
f 349 351 350
f 362 361 354
f 354 361 360
f 354 360 355
f 353 352 354
f 256 243 255
f 255 243 257
f 257 243 258
f 267 266 247
f 247 266 265
f 247 265 264
f 465 466 467
