# RS2 Model 21628
# Vertices: 289
# Faces: 538

v 13 9 18
v 15 -23 27
v 7 19 75
v 10 17 13
v 13 -13 17
v 7 13 64
v -9 4 77
v -8 -5 75
v -7 -6 78
v -8 5 80
v -6 10 72
v -11 8 69
v -12 5 72
v -12 -5 69
v -10 -6 68
v -6 -8 70
v 0 -10 71
v 0 -9 79
v -6 -3 84
v -8 6 84
v 0 9 80
v 0 13 73
v 0 15 63
v -8 13 61
v -13 4 59
v -14 -5 59
v -14 11 53
v -16 11 54
v -16 -5 60
v -17 -6 57
v -14 -6 55
v -14 9 51
v -17 9 52
v -18 0 41
v -18 -13 43
v -16 -13 42
v -16 0 39
v -16 0 38
v -18 0 39
v -18 -14 39
v -16 -14 38
v -16 -2 18
v -17 4 14
v 0 16 14
v -6 14 12
v -8 14 36
v 0 17 36
v 8 14 36
v 6 14 12
v 4 20 7
v 0 21 7
v -4 20 7
v -2 11 7
v -11 5 9
v -12 5 14
v -15 4 34
v -14 4 45
v -8 14 48
v 0 17 48
v 8 14 48
v 14 4 45
v 15 4 34
v 12 5 14
v 11 5 9
v 2 11 7
v 4 20 2
v 1 25 3
v 0 26 2
v -1 25 3
v -4 20 2
v 0 11 7
v 0 -4 10
v -3 -4 10
v -5 -2 5
v -7 6 5
v -10 4 7
v -11 -2 7
v -11 -1 10
v -12 -3 14
v -14 -5 31
v -14 -5 43
v -13 -5 56
v 8 13 61
v 13 4 59
v 14 -5 43
v 14 -5 31
v 12 -3 14
v 11 -1 10
v 11 -2 7
v 10 4 7
v 7 6 5
v 5 -2 5
v 3 -4 10
v 0 20 1
v -8 -11 28
v -7 -6 13
v 0 -8 13
v 0 -13 28
v 0 -15 39
v -8 -12 40
v 7 -6 13
v 8 -11 28
v 8 -12 40
v 8 -10 58
v 0 -13 59
v -8 -10 58
v 0 8 84
v 8 6 84
v 8 5 80
v 6 10 72
v 11 8 69
v 13 -5 56
v 9 -9 4
v 12 -6 2
v 10 -1 2
v 10 3 2
v 7 3 2
v 5 -2 2
v 4 -7 1
v 4 -7 4
v 7 -9 3
v 8 -15 1
v 9 -9 1
v 12 -12 1
v 12 -6 1
v 0 -10 81
v 0 -12 84
v -4 -9 85
v -6 -1 88
v -6 3 90
v 0 8 88
v 6 3 90
v 6 -1 88
v 6 -3 84
v 7 -6 78
v 9 4 77
v 12 5 72
v 16 11 54
v 14 11 53
v 10 -6 68
v 6 -8 70
v -6 0 90
v -5 3 93
v 0 5 93
v 5 3 93
v 6 0 90
v 4 -4 92
v 4 -10 88
v 2 -9 85
v 8 -5 75
v 12 -5 69
v 16 -5 60
v 17 -6 57
v 17 9 52
v 14 9 51
v 14 -5 59
v 0 0 95
v -3 0 94
v 0 -4 95
v 3 0 94
v -4 -4 92
v 0 -9 93
v -4 -10 88
v -2 -12 88
v 0 -16 86
v -1 -16 88
v 0 -14 90
v -2 -12 90
v 0 -12 91
v 2 -12 90
v 2 -12 88
v 0 -15 91
v 1 -16 88
v 0 -25 88
v 0 -22 89
v -10 -1 2
v -10 3 2
v -7 3 2
v -5 -2 2
v -9 -9 1
v -12 -6 1
v -4 -7 4
v -4 -7 1
v -7 -9 1
v -8 -15 1
v -9 -9 4
v -12 -12 1
v -12 -6 2
v -7 -9 3
v -6 -13 1
v -4 -11 1
v 7 -9 1
v 6 -13 1
v 4 -11 1
v 14 -6 55
v 16 -13 42
v 18 -13 43
v 18 0 41
v 16 0 39
v 16 0 38
v 16 -14 38
v 18 -14 39
v 18 0 39
v 17 4 14
v 16 -2 18
v -1 -5 98
v -3 -7 96
v 0 -5 98
v 0 -4 98
v 0 -3 98
v 0 -2 98
v -4 -2 98
v -4 -10 96
v 0 -10 96
v 4 -10 96
v 3 -7 96
v 1 -5 98
v 4 -2 98
v 4 5 96
v 0 5 96
v -4 5 96
v -5 5 94
v -7 -2 95
v -5 -8 96
v -5 -10 96
v -4 -11 98
v 0 -11 98
v 4 -11 98
v 5 -8 96
v 4 10 89
v 0 10 89
v -4 10 89
v -7 3 90
v -7 5 93
v -8 -2 94
v -7 -8 93
v -7 -9 92
v -4 -14 92
v 0 -14 92
v 4 -14 92
v 5 -10 96
v 7 -8 93
v 7 -2 95
v 5 5 94
v 7 2 85
v 4 9 83
v 0 10 83
v -4 9 83
v -7 2 85
v -7 1 86
v -8 1 86
v -8 -2 90
v 8 -2 94
v 6 -8 91
v 8 -2 90
v 7 5 93
v 7 3 90
v 8 -7 86
v 8 -2 86
v 8 1 86
v 7 1 86
v 10 -5 80
v 10 -2 80
v 10 0 80
v 8 0 80
v 5 -8 91
v 7 -7 86
v 7 -9 92
v 4 -12 91
v -4 -12 91
v -5 -8 91
v -6 -8 91
v -7 -7 86
v -8 -7 86
v -8 -5 80
v -10 -5 80
v -8 -2 80
v -10 -2 80
v -8 0 80
v -10 0 80
v -8 -2 86
v 8 -5 80
v 8 -2 80
v -6 -13 79
v -8 13 79
v -11 -16 22
v -4 17 68
v -8 -12 70
v -13 13 13

f 1 2 3
f 4 5 6
f 7 8 9
f 7 9 10
f 7 10 11
f 7 11 12
f 7 12 13
f 7 13 8
f 8 13 14
f 8 14 15
f 8 15 16
f 8 16 9
f 9 16 17
f 9 17 18
f 9 18 19
f 9 19 20
f 9 20 10
f 10 20 21
f 10 21 11
f 11 21 22
f 11 22 23
f 11 23 24
f 11 24 12
f 12 24 25
f 12 25 15
f 12 15 26
f 12 26 27
f 12 27 28
f 12 28 13
f 13 28 29
f 13 29 14
f 14 29 15
f 15 29 26
f 26 29 30
f 26 30 31
f 26 31 27
f 27 31 32
f 27 32 28
f 28 32 33
f 28 33 29
f 29 33 30
f 30 33 34
f 30 34 35
f 30 35 31
f 31 35 36
f 31 36 32
f 32 36 37
f 32 37 33
f 33 37 34
f 34 37 38
f 34 38 39
f 34 39 35
f 35 39 40
f 35 40 36
f 36 40 41
f 36 41 37
f 37 41 38
f 38 41 42
f 38 42 43
f 38 43 39
f 39 43 42
f 39 42 40
f 40 42 41
f 44 45 46
f 44 46 47
f 44 47 48
f 44 48 49
f 44 49 50
f 44 50 51
f 44 51 45
f 45 51 52
f 45 52 53
f 45 53 54
f 45 54 55
f 45 55 46
f 46 55 56
f 46 56 57
f 46 57 58
f 46 58 47
f 47 58 59
f 47 59 60
f 47 60 48
f 48 60 61
f 48 61 62
f 48 62 63
f 48 63 49
f 49 63 64
f 49 64 65
f 49 65 66
f 49 66 50
f 50 66 67
f 50 67 51
f 51 67 68
f 51 68 52
f 52 68 69
f 52 69 70
f 52 70 53
f 53 70 71
f 53 71 72
f 53 72 73
f 53 73 74
f 53 74 75
f 53 75 54
f 54 75 76
f 54 76 77
f 54 77 78
f 54 78 79
f 54 79 55
f 55 79 80
f 55 80 56
f 56 80 81
f 56 81 57
f 57 81 82
f 57 82 25
f 57 25 58
f 58 25 24
f 58 24 59
f 59 24 23
f 59 23 83
f 59 83 60
f 60 83 61
f 61 83 84
f 61 84 85
f 61 85 62
f 62 85 86
f 62 86 87
f 62 87 63
f 63 87 88
f 63 88 64
f 64 88 89
f 64 89 90
f 64 90 91
f 64 91 65
f 65 91 92
f 65 92 93
f 65 93 72
f 65 72 71
f 65 71 94
f 65 94 66
f 66 94 68
f 66 68 67
f 95 96 97
f 95 97 98
f 95 98 99
f 95 99 100
f 95 100 81
f 95 81 80
f 95 80 79
f 95 79 96
f 96 79 78
f 96 78 73
f 96 73 97
f 97 73 72
f 97 72 93
f 97 93 101
f 97 101 102
f 97 102 98
f 98 102 99
f 99 102 103
f 99 103 104
f 99 104 105
f 99 105 106
f 99 106 100
f 100 106 81
f 81 106 82
f 82 106 15
f 82 15 25
f 20 107 21
f 21 107 108
f 21 108 109
f 21 109 110
f 21 110 22
f 22 110 23
f 23 110 83
f 83 110 111
f 83 111 84
f 84 111 112
f 84 112 85
f 85 112 104
f 85 104 103
f 85 103 102
f 85 102 86
f 86 102 87
f 87 102 101
f 87 101 88
f 88 101 93
f 88 93 92
f 88 92 89
f 89 92 113
f 89 113 114
f 89 114 115
f 89 115 116
f 89 116 90
f 90 116 91
f 91 116 117
f 91 117 92
f 92 117 118
f 92 118 119
f 92 119 120
f 92 120 121
f 92 121 113
f 113 121 122
f 113 122 123
f 113 123 124
f 113 124 114
f 114 124 125
f 114 125 115
f 115 125 123
f 115 123 118
f 115 118 116
f 116 118 117
f 18 126 19
f 19 126 127
f 19 127 128
f 19 128 129
f 19 129 20
f 20 129 130
f 20 130 131
f 20 131 107
f 107 131 108
f 108 131 132
f 108 132 133
f 108 133 134
f 108 134 135
f 108 135 109
f 109 135 136
f 109 136 110
f 110 136 111
f 111 136 137
f 111 137 138
f 111 138 139
f 111 139 140
f 111 140 112
f 112 140 104
f 104 140 141
f 104 141 17
f 104 17 105
f 105 17 106
f 106 17 16
f 106 16 15
f 129 142 130
f 130 142 143
f 130 143 131
f 131 143 144
f 131 144 132
f 132 144 145
f 132 145 146
f 132 146 133
f 133 146 147
f 133 147 148
f 133 148 134
f 134 148 149
f 134 149 126
f 134 126 18
f 134 18 135
f 135 18 17
f 135 17 141
f 135 141 150
f 135 150 136
f 136 150 137
f 137 150 151
f 137 151 152
f 137 152 138
f 138 152 153
f 138 153 154
f 138 154 139
f 139 154 155
f 139 155 156
f 139 156 140
f 140 156 151
f 140 151 150
f 140 150 141
f 157 144 143
f 157 143 158
f 157 158 159
f 157 159 160
f 157 160 145
f 157 145 144
f 143 142 161
f 143 161 158
f 158 161 159
f 159 161 162
f 159 162 147
f 159 147 160
f 160 147 145
f 145 147 146
f 129 128 163
f 129 163 161
f 129 161 142
f 164 163 128
f 164 128 127
f 164 127 165
f 164 165 166
f 164 166 167
f 164 167 168
f 164 168 163
f 163 168 161
f 161 168 162
f 162 168 169
f 162 169 170
f 162 170 147
f 147 170 148
f 148 170 171
f 148 171 149
f 149 171 127
f 149 127 126
f 169 168 167
f 169 167 172
f 169 172 170
f 170 172 167
f 170 167 171
f 171 167 173
f 171 173 165
f 171 165 127
f 166 165 174
f 166 174 175
f 166 175 167
f 167 175 172
f 167 172 175
f 167 175 173
f 173 175 174
f 173 174 165
f 70 94 71
f 94 70 69
f 94 69 68
f 77 74 73
f 77 73 78
f 176 177 178
f 176 178 179
f 176 179 180
f 176 180 181
f 176 181 77
f 176 77 177
f 177 77 76
f 177 76 75
f 177 75 178
f 178 75 179
f 179 75 74
f 179 74 182
f 179 182 183
f 179 183 184
f 179 184 180
f 180 184 185
f 180 185 186
f 180 186 187
f 180 187 181
f 181 187 188
f 181 188 77
f 77 188 186
f 77 186 74
f 74 186 189
f 74 189 182
f 182 189 190
f 182 190 191
f 182 191 183
f 183 191 184
f 184 191 190
f 184 190 189
f 184 189 185
f 185 189 186
f 187 186 188
f 118 123 192
f 118 192 119
f 119 192 193
f 119 193 194
f 119 194 120
f 120 194 121
f 121 194 193
f 121 193 192
f 121 192 122
f 122 192 123
f 124 123 125
f 151 156 152
f 152 156 195
f 152 195 153
f 153 195 196
f 153 196 197
f 153 197 154
f 154 197 198
f 154 198 155
f 155 198 199
f 155 199 195
f 155 195 156
f 195 199 196
f 196 199 200
f 196 200 201
f 196 201 197
f 197 201 202
f 197 202 198
f 198 202 203
f 198 203 199
f 199 203 200
f 200 203 204
f 200 204 201
f 201 204 205
f 201 205 202
f 202 205 203
f 203 205 204
f 206 207 208
f 206 208 209
f 206 209 210
f 206 210 211
f 206 211 212
f 206 212 207
f 207 212 213
f 207 213 214
f 207 214 208
f 208 214 215
f 208 215 216
f 208 216 217
f 208 217 209
f 209 217 210
f 210 217 211
f 211 217 218
f 211 218 219
f 211 219 220
f 211 220 212
f 212 220 221
f 212 221 222
f 212 222 223
f 212 223 213
f 213 223 224
f 213 224 225
f 213 225 226
f 213 226 214
f 214 226 227
f 214 227 215
f 215 227 228
f 215 228 229
f 215 229 218
f 215 218 216
f 216 218 217
f 220 219 230
f 220 230 231
f 220 231 221
f 221 231 232
f 221 232 222
f 222 232 130
f 222 130 233
f 222 233 234
f 222 234 223
f 223 234 235
f 223 235 224
f 224 235 236
f 224 236 225
f 225 236 237
f 225 237 238
f 225 238 226
f 226 238 227
f 227 238 239
f 227 239 228
f 228 239 240
f 228 240 241
f 228 241 229
f 229 241 242
f 229 242 243
f 229 243 218
f 218 243 219
f 219 243 244
f 219 244 230
f 230 244 132
f 230 132 245
f 230 245 246
f 230 246 231
f 231 246 247
f 231 247 232
f 232 247 248
f 232 248 130
f 130 248 249
f 130 249 250
f 130 250 251
f 130 251 233
f 233 251 252
f 233 252 235
f 233 235 234
f 253 242 254
f 253 254 255
f 253 255 256
f 253 256 244
f 253 244 243
f 253 243 242
f 256 255 257
f 256 257 132
f 256 132 244
f 255 254 258
f 255 258 259
f 255 259 257
f 257 259 260
f 257 260 261
f 257 261 132
f 132 261 245
f 259 258 262
f 259 262 263
f 259 263 260
f 260 263 264
f 260 264 265
f 260 265 261
f 266 267 258
f 266 258 254
f 266 254 268
f 266 268 269
f 269 268 240
f 269 240 169
f 169 240 239
f 169 239 270
f 270 239 238
f 270 238 271
f 271 238 237
f 271 237 272
f 271 272 273
f 273 272 274
f 273 274 275
f 275 274 276
f 275 276 277
f 277 276 278
f 277 278 279
f 279 278 280
f 279 280 250
f 250 280 251
f 251 280 281
f 251 281 252
f 252 281 272
f 252 272 236
f 252 236 235
f 282 283 263
f 282 263 262
f 282 262 267
f 267 262 258
f 283 265 264
f 283 264 263
f 241 240 268
f 241 268 254
f 241 254 242
f 272 281 274
f 274 281 278
f 274 278 276
f 281 280 278
f 237 236 272
