# RS2 Model 2165
# Vertices: 96
# Faces: 168

v -69 -24 70
v -67 -4 65
v -80 -16 61
v -86 -20 35
v -71 -39 53
v -56 -44 68
v -58 -20 72
v -57 -10 70
v -48 6 65
v -49 29 56
v -67 5 32
v -94 -15 30
v -95 -18 17
v -98 -21 16
v -89 -23 33
v -73 -42 51
v -54 -49 68
v -36 -44 68
v -39 -38 70
v -51 -36 70
v -49 -32 73
v -54 -18 74
v -53 -8 73
v -46 4 67
v -35 26 56
v -28 48 40
v -35 72 25
v -56 44 28
v -67 10 16
v -99 -15 15
v -92 -14 0
v -95 -18 0
v -92 -45 0
v -91 -44 16
v -86 -44 32
v -67 -69 32
v -51 -62 58
v -35 -49 68
v -2 -54 60
v -4 -42 73
v -9 -28 73
v -10 -26 76
v -37 -35 73
v -37 -15 79
v -17 -4 76
v -33 23 62
v -27 45 46
v -12 54 33
v 17 54 29
v 17 60 14
v -34 78 12
v -59 51 14
v -60 12 0
v 32 -64 28
v 8 -64 28
v 40 -67 14
v 49 -34 28
v 35 -32 42
v 24 -35 56
v 16 -57 56
v 25 -31 61
v 24 -3 66
v -4 -60 58
v -33 -62 57
v -31 -82 33
v 6 -68 29
v -30 -90 17
v 4 -71 15
v 6 -67 14
v 37 -61 0
v 54 -35 14
v 55 -31 29
v 43 -28 45
v 42 4 48
v -1 21 62
v -14 50 39
v 20 53 33
v 24 59 14
v 11 54 0
v -31 70 0
v -57 49 0
v -1 -62 0
v -3 -67 0
v -31 -90 0
v -71 -76 16
v -68 -73 0
v 53 14 0
v 62 16 14
v 61 -33 14
v 53 -29 0
v 47 -31 0
v 60 13 29
v 16 55 0
v 29 -33 35
v -12 27 49
v -27 -69 25

f 1 2 3
f 1 3 4
f 1 4 5
f 1 5 6
f 1 6 7
f 1 7 8
f 1 8 2
f 2 8 9
f 2 9 10
f 2 10 11
f 2 11 3
f 3 11 12
f 3 12 4
f 4 12 13
f 4 13 14
f 4 14 15
f 4 15 5
f 5 15 16
f 5 16 6
f 6 16 17
f 6 17 18
f 6 18 19
f 6 19 20
f 6 20 7
f 7 20 21
f 7 21 22
f 7 22 8
f 8 22 23
f 8 23 9
f 9 23 24
f 9 24 25
f 9 25 10
f 10 25 26
f 10 26 27
f 10 27 28
f 10 28 11
f 11 28 29
f 11 29 12
f 12 29 30
f 12 30 13
f 13 30 31
f 13 31 32
f 13 32 14
f 14 32 33
f 14 33 34
f 14 34 15
f 15 34 35
f 15 35 16
f 16 35 36
f 16 36 37
f 16 37 17
f 17 37 38
f 17 38 18
f 18 38 39
f 18 39 40
f 18 40 19
f 19 40 41
f 19 41 42
f 19 42 43
f 19 43 20
f 20 43 21
f 21 43 44
f 21 44 22
f 22 44 23
f 23 44 24
f 24 44 45
f 24 45 46
f 24 46 25
f 25 46 26
f 26 46 47
f 26 47 48
f 26 48 27
f 27 48 49
f 27 49 50
f 27 50 51
f 27 51 52
f 27 52 28
f 28 52 29
f 29 52 53
f 29 53 30
f 30 53 31
f 54 39 55
f 54 55 56
f 54 56 57
f 54 57 58
f 54 58 59
f 54 59 60
f 54 60 39
f 39 60 40
f 40 60 59
f 40 59 41
f 41 59 61
f 41 61 42
f 42 61 62
f 42 62 45
f 42 45 44
f 42 44 43
f 63 64 65
f 63 65 66
f 63 66 55
f 63 55 39
f 63 39 38
f 63 38 64
f 64 38 37
f 64 37 65
f 65 37 36
f 65 36 67
f 65 67 66
f 66 67 68
f 66 68 69
f 66 69 55
f 55 69 56
f 56 69 70
f 56 70 71
f 56 71 57
f 57 71 72
f 57 72 73
f 57 73 58
f 58 73 59
f 59 73 61
f 61 73 62
f 62 73 74
f 62 74 75
f 62 75 45
f 45 75 46
f 46 75 47
f 47 75 76
f 47 76 48
f 48 76 49
f 49 76 77
f 49 77 50
f 50 77 78
f 50 78 79
f 50 79 51
f 51 79 80
f 51 80 81
f 51 81 52
f 52 81 53
f 69 82 70
f 82 69 68
f 82 68 83
f 83 68 84
f 84 68 67
f 84 67 85
f 84 85 86
f 86 85 34
f 86 34 33
f 75 74 77
f 75 77 76
f 36 85 67
f 85 36 35
f 85 35 34
f 87 88 89
f 87 89 90
f 90 89 91
f 91 89 71
f 91 71 70
f 88 92 72
f 88 72 89
f 89 72 71
f 73 72 92
f 73 92 74
f 74 92 77
f 77 92 78
f 78 92 88
f 78 88 93
f 78 93 79
f 88 87 93
