# RS2 Model 21658
# Vertices: 78
# Faces: 126

v -15 64 68
v -15 55 73
v -18 51 174
v -14 64 175
v -21 64 240
v -21 44 240
v 64 64 240
v -13 33 240
v 64 -64 240
v 64 -64 0
v 64 64 0
v -26 7 158
v -13 48 71
v -18 40 64
v -17 31 64
v -20 17 64
v 17 17 59
v 11 7 153
v 9 8 235
v -28 8 240
v -28 23 240
v -8 38 178
v -16 44 49
v -17 28 58
v -20 23 41
v 17 23 36
v 44 2 52
v 39 2 201
v 11 -7 182
v -26 -7 187
v -28 -7 240
v -24 -18 74
v -30 -24 183
v -25 -19 240
v -23 -31 240
v -29 -47 240
v -21 -64 240
v -34 -46 173
v -14 -64 175
v -15 -64 68
v -15 -56 59
v -16 -64 49
v -20 -47 54
v -17 -42 32
v -11 -64 23
v -37 -50 14
v -35 -64 10
v -64 -64 0
v -34 -31 16
v -56 -32 0
v -62 -11 0
v -59 7 0
v -44 8 10
v -60 34 0
v -35 50 8
v -64 64 0
v -35 64 10
v -14 45 23
v -11 64 23
v -16 64 49
v -23 -29 75
v -21 -33 71
v -18 -36 56
v -19 -38 62
v -15 -48 67
v -12 -27 27
v -26 23 26
v 11 23 21
v 32 2 13
v 17 -7 21
v 13 -7 44
v 13 -18 69
v -24 -7 49
v -20 -7 26
v -7 8 5
v 6 -83 238
v 0 53 238
v -42 -85 -4

f 1 2 3
f 1 3 4
f 4 3 5
f 5 3 6
f 5 6 7
f 7 6 8
f 7 8 9
f 7 9 10
f 7 10 11
f 12 13 14
f 12 14 15
f 12 15 16
f 12 16 17
f 12 17 18
f 12 18 19
f 12 19 20
f 12 20 21
f 12 21 8
f 12 8 22
f 12 22 13
f 13 22 3
f 13 3 2
f 13 2 23
f 13 23 14
f 14 23 15
f 15 23 24
f 15 24 16
f 16 24 25
f 16 25 26
f 16 26 17
f 17 26 27
f 17 27 18
f 18 27 28
f 18 28 19
f 19 28 29
f 19 29 30
f 19 30 20
f 20 30 31
f 20 31 9
f 20 9 21
f 21 9 8
f 30 32 33
f 30 33 31
f 31 33 34
f 31 34 9
f 9 34 35
f 9 35 36
f 9 36 37
f 37 36 38
f 37 38 39
f 39 38 40
f 40 38 41
f 40 41 42
f 42 41 43
f 42 43 44
f 42 44 45
f 45 44 46
f 45 46 47
f 47 46 48
f 48 46 49
f 48 49 50
f 50 49 51
f 51 49 52
f 52 49 53
f 52 53 54
f 54 53 55
f 54 55 56
f 56 55 57
f 57 55 58
f 57 58 59
f 59 58 23
f 59 23 60
f 60 23 1
f 1 23 2
f 61 62 38
f 61 38 33
f 61 33 32
f 61 32 62
f 62 32 63
f 62 63 64
f 62 64 65
f 62 65 38
f 38 65 41
f 41 65 43
f 43 65 64
f 43 64 63
f 43 63 66
f 43 66 44
f 44 66 49
f 44 49 46
f 23 25 24
f 25 23 58
f 25 58 67
f 25 67 68
f 25 68 26
f 26 68 69
f 26 69 27
f 27 69 70
f 27 70 71
f 27 71 72
f 27 72 28
f 28 72 29
f 29 72 30
f 30 72 32
f 32 72 73
f 32 73 63
f 63 73 74
f 63 74 66
f 66 74 53
f 66 53 49
f 53 67 58
f 53 58 55
f 6 3 22
f 6 22 8
f 35 33 38
f 35 38 36
f 34 33 35
f 73 72 71
f 73 71 74
f 74 71 70
f 74 70 53
f 53 70 75
f 53 75 68
f 53 68 67
f 68 75 69
f 69 75 70
