# RS2 Model 21670
# Vertices: 65
# Faces: 94

v -6 2 533
v -1 21 528
v -2 22 533
v -19 22 533
v -21 7 536
v -45 -4 342
v 22 -5 302
v 53 -3 522
v -4 35 528
v -5 35 536
v -20 35 536
v -45 57 330
v -54 31 332
v -46 10 340
v -27 -7 142
v -38 -18 331
v 28 -16 527
v 32 -64 522
v 64 -64 522
v 64 64 522
v 32 64 522
v -1 64 528
v -2 64 536
v -13 64 536
v -32 64 342
v -28 64 145
v -28 56 136
v -32 37 142
v -37 18 138
v -35 3 141
v -7 3 123
v -27 -22 137
v -25 -42 148
v -31 -46 335
v -12 -46 536
v -14 -28 536
v 1 -23 533
v -2 -46 528
v -1 -64 528
v -3 -46 536
v -2 -64 536
v -13 -64 536
v -32 -64 342
v -28 -64 145
v -1 -41 121
v 1 -64 122
v -21 -64 0
v -29 -47 0
v -23 -31 0
v 13 -19 125
v -25 -19 0
v -28 -7 0
v -28 8 0
v -28 23 0
v 8 18 123
v -2 41 118
v -13 33 0
v -21 44 0
v 1 64 122
v -21 64 0
v 64 64 0
v 64 -64 0
v -16 40 532
v -16 -62 529
v 115 42 520

f 1 2 3
f 1 3 4
f 1 4 5
f 1 5 6
f 1 6 7
f 1 7 8
f 1 8 2
f 2 8 9
f 2 9 10
f 2 10 3
f 3 10 11
f 3 11 4
f 4 11 12
f 4 12 13
f 4 13 14
f 4 14 5
f 5 14 6
f 6 14 15
f 6 15 7
f 7 15 16
f 7 16 8
f 8 16 17
f 8 17 18
f 8 18 19
f 8 19 20
f 8 20 21
f 8 21 9
f 9 21 22
f 9 22 23
f 9 23 10
f 10 23 24
f 10 24 11
f 11 24 25
f 11 25 12
f 12 25 26
f 12 26 27
f 12 27 28
f 12 28 13
f 13 28 14
f 14 28 29
f 14 29 30
f 14 30 15
f 15 30 31
f 15 31 32
f 15 32 16
f 16 32 33
f 16 33 34
f 16 34 35
f 16 35 36
f 16 36 37
f 16 37 17
f 17 37 18
f 18 37 38
f 18 38 39
f 39 38 40
f 39 40 41
f 41 40 35
f 41 35 42
f 42 35 34
f 42 34 43
f 43 34 44
f 44 34 33
f 44 33 45
f 44 45 46
f 46 45 47
f 47 45 48
f 48 45 49
f 49 45 50
f 49 50 51
f 51 50 52
f 52 50 31
f 52 31 53
f 53 31 54
f 54 31 55
f 54 55 56
f 54 56 57
f 57 56 58
f 58 56 59
f 58 59 60
f 38 37 40
f 40 37 35
f 35 37 36
f 45 32 50
f 50 32 31
f 45 33 32
f 29 31 30
f 31 29 55
f 55 29 56
f 56 29 28
f 56 28 27
f 56 27 59
f 59 27 26
f 19 61 20
f 61 19 62
