# RS2 Model 21671
# Vertices: 63
# Faces: 91

v 11 -26 528
v 22 -13 528
v 21 -11 536
v 11 -25 541
v 7 -45 528
v 55 -55 523
v -4 -6 342
v 11 -3 536
v 1 -16 541
v -9 -31 536
v 6 -44 536
v 3 -56 528
v 32 -64 522
v 64 -64 522
v 64 -32 522
v 43 7 528
v 36 -5 528
v 39 -34 333
v -2 -9 142
v -9 -21 331
v -4 -36 536
v 64 1 528
v 64 2 536
v 42 8 536
v 36 -4 533
v 23 7 533
v 26 22 334
v 58 -43 120
v 19 -15 123
v -12 -21 137
v -24 -37 148
v -22 -43 335
v -16 -49 536
v 2 -56 536
v -1 -64 528
v -2 -64 536
v -13 -64 536
v -32 -64 342
v -28 -64 145
v -5 -52 121
v 1 -64 122
v -21 -64 0
v -18 -50 0
v -14 -36 0
v 20 -45 125
v -9 -28 0
v 9 -7 0
v 19 4 0
v 25 15 118
v 29 15 0
v 47 12 0
v 54 10 0
v 64 -1 122
v 64 21 0
v 32 23 139
v 38 38 330
v 64 28 145
v 64 32 342
v 31 18 536
v 64 13 536
v 27 44 533
v -47 -24 531
v 102 -41 526

f 1 2 3
f 1 3 4
f 1 4 5
f 1 5 6
f 1 6 2
f 2 6 7
f 2 7 8
f 2 8 3
f 3 8 9
f 3 9 4
f 4 9 10
f 4 10 11
f 4 11 5
f 5 11 12
f 5 12 13
f 5 13 6
f 6 13 14
f 6 14 15
f 6 15 16
f 6 16 17
f 6 17 18
f 6 18 7
f 7 18 19
f 7 19 20
f 7 20 21
f 7 21 9
f 7 9 8
f 16 22 23
f 16 23 24
f 16 24 17
f 17 24 25
f 17 25 26
f 17 26 18
f 18 26 27
f 18 27 28
f 18 28 19
f 19 28 29
f 19 29 30
f 19 30 20
f 20 30 31
f 20 31 32
f 20 32 33
f 20 33 21
f 12 11 34
f 12 34 35
f 12 35 13
f 35 34 36
f 36 34 33
f 36 33 37
f 37 33 32
f 37 32 38
f 38 32 39
f 39 32 31
f 39 31 40
f 39 40 41
f 41 40 42
f 42 40 43
f 43 40 44
f 44 40 45
f 44 45 46
f 46 45 47
f 47 45 29
f 47 29 48
f 48 29 28
f 48 28 49
f 48 49 50
f 50 49 51
f 51 49 52
f 52 49 53
f 52 53 54
f 55 27 56
f 55 56 57
f 55 57 53
f 55 53 49
f 55 49 28
f 55 28 27
f 56 58 57
f 58 56 59
f 58 59 60
f 60 59 24
f 60 24 23
f 40 30 45
f 45 30 29
f 40 31 30
f 59 56 27
f 59 27 26
f 59 26 25
f 59 25 24
f 10 33 11
f 11 33 34
f 16 15 22
