# RS2 Model 21682
# Vertices: 54
# Faces: 84

v -15 64 68
v -14 48 69
v -18 51 174
v -14 64 175
v -21 64 240
v -21 44 240
v 64 64 240
v -13 33 240
v 26 27 240
v 64 -64 240
v 64 -64 0
v 64 64 0
v -8 38 178
v -18 31 62
v 17 26 60
v 14 25 172
v -22 -25 72
v -34 -46 173
v -30 -24 183
v 13 -23 70
v -25 -11 46
v -16 -48 63
v -15 -64 68
v -14 -64 175
v -21 -64 240
v -29 -47 240
v -23 -31 240
v 10 -21 181
v 44 2 52
v 13 -7 44
v -23 8 26
v -12 -27 27
v -17 -42 32
v -16 -64 49
v 24 -23 240
v 17 23 36
v 23 5 33
v -20 23 41
v -14 45 23
v -14 45 11
v -23 8 11
v -12 -27 11
v -17 -42 11
v -11 -64 23
v -16 64 49
v -11 64 23
v -11 64 11
v -11 64 0
v -14 45 0
v -23 8 0
v -12 -27 0
v -17 -42 0
v -11 -64 11
v -11 -64 0

f 1 2 3
f 1 3 4
f 4 3 5
f 5 3 6
f 5 6 7
f 7 6 8
f 7 8 9
f 7 9 10
f 7 10 11
f 7 11 12
f 13 2 14
f 13 14 15
f 13 15 16
f 13 16 9
f 13 9 8
f 13 8 6
f 13 6 3
f 13 3 2
f 17 18 19
f 17 19 20
f 17 20 21
f 17 21 22
f 17 22 18
f 18 22 23
f 18 23 24
f 18 24 25
f 18 25 26
f 18 26 27
f 18 27 19
f 19 27 28
f 19 28 20
f 20 28 16
f 20 16 29
f 20 29 30
f 20 30 21
f 21 30 31
f 21 31 32
f 21 32 22
f 22 32 33
f 22 33 34
f 22 34 23
f 27 26 10
f 27 10 35
f 27 35 28
f 28 35 16
f 16 35 9
f 9 35 10
f 26 25 10
f 16 15 29
f 29 15 36
f 29 36 37
f 29 37 30
f 30 37 31
f 31 37 36
f 31 36 38
f 31 38 39
f 31 39 40
f 31 40 41
f 31 41 32
f 32 41 42
f 32 42 33
f 33 42 43
f 33 43 44
f 33 44 34
f 1 45 2
f 2 45 46
f 2 46 39
f 2 39 38
f 2 38 14
f 14 38 36
f 14 36 15
f 39 46 47
f 39 47 40
f 40 47 48
f 40 48 49
f 40 49 41
f 41 49 50
f 41 50 42
f 42 50 51
f 42 51 43
f 43 51 52
f 43 52 53
f 43 53 44
f 53 52 54
