# RS2 Model 21707
# Vertices: 120
# Faces: 229

v 102 37 53
v 92 21 0
v 80 42 0
v 45 54 67
v 94 49 70
v 100 -6 54
v 92 -23 0
v 86 -39 53
v 70 -95 0
v 45 -128 55
v 45 -103 0
v 19 -118 0
v -33 -140 54
v -34 -114 0
v -62 -86 0
v -39 -131 71
v -75 -40 70
v -66 -14 1
v -69 4 75
v -69 23 0
v -59 49 74
v -62 50 1
v -34 55 71
v -50 66 0
v -44 98 0
v -29 91 80
v -1 117 69
v -16 124 0
v 24 110 71
v 31 118 -2
v 39 93 70
v 53 99 0
v 59 54 0
v 44 -126 74
v 43 -125 95
v -26 -131 95
v -55 -86 95
v -29 -32 94
v -35 -3 99
v -47 34 198
v -60 62 194
v -44 63 191
v -24 89 137
v -12 104 132
v 22 189 199
v 67 176 202
v 54 116 120
v 54 103 119
v 64 84 194
v 59 73 195
v 75 69 197
v 79 25 86
v 82 -30 74
v 61 -119 171
v 54 -138 170
v 5 -171 163
v -25 -183 166
v -55 -111 146
v -56 -100 170
v -32 -76 173
v 37 -76 175
v 45 -21 95
v 33 2 105
v 43 25 198
v -61 17 269
v -60 33 270
v -33 68 278
v -38 86 228
v -34 87 192
v -24 135 192
v -30 113 250
v -21 147 306
v 28 175 331
v 72 149 319
v 69 118 245
v 68 132 195
v -34 103 249
v -34 105 304
v 73 96 321
v -60 24 345
v -28 51 328
v 71 106 259
v 67 89 230
v 60 67 270
v 68 65 271
v 75 47 196
v 86 -62 330
v 86 -130 297
v 25 -162 286
v -56 -166 304
v -109 -64 349
v 44 -165 451
v -32 -167 451
v -41 -182 431
v 52 -182 431
v 103 -137 421
v 87 -106 453
v -81 -112 453
v -113 -107 426
v 94 -48 356
v 100 4 361
v 100 43 395
v 68 35 405
v -1 48 402
v -71 -20 415
v -95 5 390
v -119 -11 374
v -73 -32 345
v -71 -46 325
v 68 -32 345
v 78 0 344
v 95 29 349
v 62 62 346
v 8 58 354
v 2 54 389
v 60 12 271
v 85 38 272
v -76 1 341
v 54 -47 335
v 17 76 333

f 1 2 3
f 1 3 4
f 1 4 5
f 1 5 6
f 1 6 2
f 2 6 7
f 7 6 8
f 7 8 9
f 9 8 10
f 9 10 11
f 11 10 12
f 12 10 13
f 12 13 14
f 14 13 15
f 15 13 16
f 15 16 17
f 15 17 18
f 18 17 19
f 18 19 20
f 20 19 21
f 20 21 22
f 22 21 23
f 22 23 24
f 24 23 25
f 25 23 26
f 25 26 27
f 25 27 28
f 28 27 29
f 28 29 30
f 30 29 31
f 30 31 32
f 32 31 33
f 33 31 4
f 33 4 3
f 13 10 34
f 13 34 16
f 16 34 35
f 16 35 36
f 16 36 37
f 16 37 17
f 17 37 38
f 17 38 19
f 19 38 39
f 19 39 21
f 21 39 40
f 21 40 41
f 21 41 23
f 23 41 42
f 23 42 26
f 26 42 43
f 26 43 44
f 26 44 27
f 27 44 45
f 27 45 29
f 29 45 46
f 29 46 31
f 31 46 47
f 31 47 48
f 31 48 4
f 4 48 49
f 4 49 50
f 4 50 5
f 5 50 51
f 5 51 52
f 5 52 6
f 6 52 53
f 6 53 8
f 8 53 34
f 8 34 10
f 35 34 53
f 35 53 54
f 35 54 55
f 35 55 56
f 35 56 36
f 36 56 57
f 36 57 37
f 37 57 58
f 37 58 38
f 38 58 59
f 38 59 60
f 38 60 61
f 38 61 62
f 38 62 39
f 39 62 63
f 39 63 40
f 40 63 64
f 40 64 65
f 40 65 66
f 40 66 41
f 41 66 42
f 42 66 67
f 42 67 68
f 42 68 69
f 42 69 43
f 43 69 49
f 43 49 48
f 43 48 44
f 44 48 47
f 44 47 70
f 44 70 45
f 45 70 71
f 45 71 72
f 45 72 73
f 45 73 74
f 45 74 46
f 46 74 75
f 46 75 76
f 46 76 47
f 47 76 70
f 70 76 71
f 71 76 75
f 71 75 77
f 71 77 78
f 71 78 72
f 72 78 79
f 72 79 74
f 72 74 73
f 65 80 66
f 66 80 81
f 66 81 67
f 67 81 78
f 67 78 77
f 67 77 68
f 68 77 82
f 68 82 83
f 68 83 69
f 69 83 49
f 49 83 50
f 50 83 84
f 50 84 51
f 51 84 85
f 51 85 86
f 51 86 52
f 52 86 63
f 52 63 62
f 52 62 53
f 53 62 61
f 53 61 54
f 54 61 87
f 54 87 88
f 54 88 55
f 55 88 56
f 56 88 89
f 56 89 57
f 57 89 90
f 57 90 91
f 57 91 59
f 57 59 58
f 92 93 94
f 92 94 95
f 92 95 96
f 92 96 97
f 92 97 93
f 93 97 98
f 93 98 99
f 93 99 94
f 94 99 91
f 94 91 90
f 94 90 95
f 95 90 89
f 95 89 96
f 96 89 88
f 96 88 100
f 96 100 101
f 96 101 102
f 96 102 97
f 97 102 103
f 97 103 104
f 97 104 105
f 97 105 98
f 98 105 106
f 98 106 99
f 99 106 107
f 99 107 91
f 91 107 108
f 91 108 109
f 91 109 60
f 91 60 59
f 100 110 101
f 101 110 111
f 101 111 112
f 101 112 102
f 102 112 113
f 102 113 114
f 102 114 115
f 102 115 103
f 103 115 104
f 104 115 106
f 104 106 105
f 116 64 117
f 116 117 112
f 116 112 111
f 116 111 118
f 116 118 65
f 116 65 64
f 119 110 100
f 119 100 87
f 119 87 61
f 119 61 60
f 119 60 109
f 119 109 110
f 110 109 108
f 110 108 111
f 111 108 118
f 118 108 107
f 118 107 80
f 118 80 65
f 78 81 120
f 78 120 79
f 79 120 113
f 79 113 84
f 79 84 83
f 79 83 82
f 79 82 74
f 74 82 75
f 75 82 77
f 64 86 117
f 117 86 85
f 117 85 113
f 117 113 112
f 107 106 80
f 80 106 115
f 80 115 114
f 80 114 81
f 81 114 120
f 120 114 113
f 88 87 100
f 86 64 63
f 85 84 113
