# RS2 Model 21716
# Vertices: 182
# Faces: 351

v 100 11 27
v 116 0 17
v 66 82 17
v 62 71 41
v 92 24 44
v 98 -37 28
v 116 -62 17
v 116 -60 9
v 116 2 9
v 66 84 9
v 22 127 17
v 27 114 45
v 33 114 124
v 86 85 117
v 76 37 116
v 77 -2 60
v 79 -75 46
v 84 -72 27
v 88 -161 17
v 88 -159 9
v 88 -160 -1
v 116 -61 -1
v 116 1 -1
v 66 83 -1
v 22 129 9
v -17 95 18
v -13 91 38
v -11 100 119
v -4 117 216
v 93 123 239
v 105 49 235
v 76 13 115
v 31 -28 79
v 43 -79 68
v 34 -125 119
v 58 -145 116
v 41 -164 69
v 42 -165 48
v 43 -168 29
v 55 -172 17
v 55 -170 9
v 55 -171 -1
v 51 -160 -10
v 81 -149 -10
v 107 -57 -10
v 107 -1 -10
v 61 75 -10
v 22 128 -1
v -17 97 10
v -16 66 17
v -13 61 43
v -18 76 117
v -10 103 203
v -63 170 450
v -25 220 449
v 34 220 449
v 98 158 450
v 129 61 454
v 99 -1 408
v 98 15 271
v 93 3 200
v 44 -10 117
v -47 -6 120
v -37 -33 73
v -31 -90 67
v -35 -125 117
v 52 -105 185
v 84 -122 180
v 84 -176 186
v 51 -165 115
v 2 -201 108
v -47 -170 70
v -41 -171 45
v -35 -181 28
v 22 -193 17
v 22 -191 9
v 22 -192 -1
v 20 -179 -10
v 22 -191 -22
v 55 -170 -22
v 88 -159 -22
v 116 -60 -22
v 116 2 -22
v 66 84 -22
v 20 117 -10
v -17 96 0
v -16 68 9
v -45 76 18
v -44 77 45
v -52 86 115
v -41 115 218
v -103 67 455
v -73 64 486
v -37 125 480
v -49 175 480
v -20 204 480
v 28 204 480
v 83 148 482
v 113 54 486
v 98 -21 454
v 62 -58 391
v 76 -69 305
v 85 -143 304
v 101 -176 272
v 98 -25 212
v 76 -29 195
v -78 -28 192
v -82 7 199
v -60 24 116
v -60 6 73
v -71 -26 49
v -77 -73 44
v -57 -122 69
v -58 -136 91
v -59 -150 114
v -111 -124 199
v -73 -104 175
v 66 -63 196
v 92 -107 206
v 23 -210 175
v -49 42 18
v -92 4 18
v -107 -49 17
v -78 -124 27
v -47 -213 112
v -58 -214 193
v -43 -225 282
v -115 -144 277
v -121 -41 225
v -75 -64 196
v -97 -149 17
v -47 -187 17
v -47 -185 9
v -47 -186 -1
v -43 -173 -10
v -47 -185 -22
v -93 57 258
v -110 -31 409
v -96 -22 455
v -75 -12 483
v 3 79 492
v -107 -47 9
v -97 -147 9
v -97 -148 -1
v -90 -138 -10
v -97 -147 -22
v 50 -225 282
v 42 -206 302
v -34 -209 302
v -83 -149 304
v -97 -27 266
v -62 -100 391
v -53 -70 455
v -37 -27 483
v 42 -27 483
v 83 -12 483
v -63 -109 305
v 0 -122 391
v 6 -92 455
v 65 -29 455
v -2 -130 305
v -49 44 10
v -92 6 10
v -92 5 0
v -107 -48 -1
v -99 -45 -10
v -107 -47 -22
v -45 78 10
v -45 77 0
v -49 43 0
v -45 38 -10
v -85 3 -10
v -92 6 -21
v -16 67 -1
v -14 61 -10
v -41 70 -10
v -45 78 -21
v -49 44 -21
v -15 87 -10
v -17 97 -21
v -16 68 -22
v 22 129 -22

f 1 2 3
f 1 3 4
f 1 4 5
f 1 5 6
f 1 6 2
f 2 6 7
f 2 7 8
f 2 8 9
f 2 9 3
f 3 9 10
f 3 10 11
f 3 11 4
f 4 11 12
f 4 12 13
f 4 13 14
f 4 14 5
f 5 14 15
f 5 15 16
f 5 16 6
f 6 16 17
f 6 17 18
f 6 18 7
f 7 18 19
f 7 19 20
f 7 20 8
f 8 20 21
f 8 21 22
f 8 22 9
f 9 22 23
f 9 23 10
f 10 23 24
f 10 24 25
f 10 25 11
f 11 25 26
f 11 26 12
f 12 26 27
f 12 27 28
f 12 28 13
f 13 28 29
f 13 29 30
f 13 30 14
f 14 30 15
f 15 30 31
f 15 31 32
f 15 32 16
f 16 32 33
f 16 33 34
f 16 34 17
f 17 34 35
f 17 35 36
f 17 36 37
f 17 37 38
f 17 38 18
f 18 38 39
f 18 39 19
f 19 39 40
f 19 40 41
f 19 41 20
f 20 41 42
f 20 42 21
f 21 42 43
f 21 43 44
f 21 44 22
f 22 44 45
f 22 45 23
f 23 45 46
f 23 46 24
f 24 46 47
f 24 47 48
f 24 48 25
f 25 48 49
f 25 49 26
f 26 49 50
f 26 50 27
f 27 50 51
f 27 51 52
f 27 52 28
f 28 52 53
f 28 53 29
f 29 53 54
f 29 54 55
f 29 55 56
f 29 56 30
f 30 56 57
f 30 57 31
f 31 57 58
f 31 58 59
f 31 59 60
f 31 60 61
f 31 61 32
f 32 61 62
f 32 62 33
f 33 62 63
f 33 63 64
f 33 64 34
f 34 64 65
f 34 65 35
f 35 65 66
f 35 66 67
f 35 67 68
f 35 68 36
f 36 68 69
f 36 69 70
f 36 70 37
f 37 70 71
f 37 71 72
f 37 72 73
f 37 73 38
f 38 73 74
f 38 74 39
f 39 74 75
f 39 75 40
f 40 75 76
f 40 76 41
f 41 76 77
f 41 77 42
f 42 77 78
f 42 78 43
f 43 78 79
f 43 79 80
f 43 80 44
f 44 80 81
f 44 81 45
f 45 81 82
f 45 82 46
f 46 82 83
f 46 83 47
f 47 83 84
f 47 84 85
f 47 85 48
f 48 85 86
f 48 86 49
f 49 86 87
f 49 87 50
f 50 87 88
f 50 88 51
f 51 88 89
f 51 89 90
f 51 90 52
f 52 90 91
f 52 91 53
f 53 91 54
f 54 91 92
f 54 92 93
f 54 93 94
f 54 94 95
f 54 95 55
f 55 95 96
f 55 96 56
f 56 96 97
f 56 97 57
f 57 97 98
f 57 98 58
f 58 98 99
f 58 99 100
f 58 100 59
f 59 100 101
f 59 101 102
f 59 102 60
f 60 102 103
f 60 103 104
f 60 104 105
f 60 105 61
f 61 105 106
f 61 106 62
f 62 106 107
f 62 107 63
f 63 107 108
f 63 108 109
f 63 109 110
f 63 110 64
f 64 110 111
f 64 111 65
f 65 111 112
f 65 112 113
f 65 113 114
f 65 114 115
f 65 115 66
f 66 115 116
f 66 116 117
f 66 117 67
f 67 117 118
f 67 118 119
f 67 119 68
f 68 119 69
f 69 119 104
f 69 104 120
f 69 120 71
f 69 71 70
f 110 121 122
f 110 122 111
f 111 122 123
f 111 123 112
f 112 123 124
f 112 124 73
f 112 73 113
f 113 73 72
f 113 72 125
f 113 125 114
f 114 125 115
f 115 125 116
f 116 125 126
f 116 126 127
f 116 127 128
f 116 128 129
f 116 129 130
f 116 130 117
f 117 130 118
f 118 130 106
f 118 106 105
f 118 105 119
f 119 105 104
f 124 131 132
f 124 132 74
f 124 74 73
f 74 132 75
f 75 132 133
f 75 133 76
f 76 133 134
f 76 134 77
f 77 134 135
f 77 135 78
f 78 135 136
f 78 136 79
f 88 121 89
f 89 121 110
f 89 110 109
f 89 109 90
f 90 109 91
f 91 109 108
f 91 108 137
f 91 137 92
f 92 137 138
f 92 138 139
f 92 139 140
f 92 140 93
f 93 140 141
f 93 141 94
f 94 141 96
f 94 96 95
f 123 131 124
f 131 123 142
f 131 142 143
f 131 143 132
f 132 143 133
f 133 143 144
f 133 144 134
f 134 144 145
f 134 145 135
f 135 145 146
f 135 146 136
f 126 120 147
f 126 147 127
f 127 147 148
f 127 148 149
f 127 149 128
f 128 149 150
f 128 150 151
f 128 151 129
f 129 151 137
f 129 137 108
f 129 108 107
f 129 107 130
f 130 107 106
f 137 151 138
f 138 151 152
f 138 152 153
f 138 153 139
f 139 153 154
f 139 154 140
f 140 154 141
f 141 154 155
f 141 155 156
f 141 156 99
f 141 99 98
f 141 98 97
f 141 97 96
f 152 157 158
f 152 158 159
f 152 159 153
f 153 159 155
f 153 155 154
f 101 160 158
f 101 158 161
f 101 161 102
f 102 161 103
f 103 161 150
f 103 150 149
f 103 149 148
f 103 148 104
f 104 148 147
f 104 147 120
f 71 120 125
f 71 125 72
f 125 120 126
f 100 99 156
f 100 156 160
f 100 160 101
f 160 156 155
f 160 155 159
f 160 159 158
f 157 151 150
f 157 150 161
f 157 161 158
f 152 151 157
f 122 121 162
f 122 162 163
f 122 163 123
f 123 163 142
f 142 163 164
f 142 164 165
f 142 165 143
f 143 165 144
f 144 165 166
f 144 166 145
f 145 166 167
f 145 167 146
f 121 88 168
f 121 168 162
f 162 168 169
f 162 169 170
f 162 170 163
f 163 170 164
f 164 170 171
f 164 171 172
f 164 172 165
f 165 172 166
f 166 172 173
f 166 173 167
f 88 87 168
f 168 87 174
f 168 174 169
f 169 174 175
f 169 175 176
f 169 176 170
f 170 176 171
f 171 176 177
f 171 177 178
f 171 178 172
f 172 178 173
f 87 86 174
f 174 86 179
f 174 179 175
f 175 179 180
f 175 180 181
f 175 181 176
f 176 181 177
f 86 85 179
f 179 85 182
f 179 182 180
f 85 84 182
