# RS2 Model 21731
# Vertices: 152
# Faces: 200

v 34 -46 105
v 36 -48 93
v 35 -52 93
v 32 -50 105
v 34 -55 105
v 37 -54 93
v 39 -57 105
v 38 -50 93
v 41 -53 105
v 39 -48 105
v 36 -51 41
v 25 -27 109
v 27 -29 99
v 26 -33 99
v 23 -31 109
v 25 -36 109
v 28 -35 99
v 30 -38 109
v 29 -31 99
v 32 -34 109
v 30 -29 109
v 27 -32 50
v 16 -18 110
v 14 -16 93
v 15 -12 93
v 18 -14 110
v 16 -9 108
v 13 -10 93
v 11 -7 107
v 12 -14 93
v 9 -11 107
v 11 -16 110
v 14 -13 3
v 3 -3 102
v 1 -1 87
v 2 1 87
v 5 1 102
v 3 4 102
v 1 3 87
v 0 6 102
v 1 1 87
v -2 2 102
v 0 -1 102
v 1 1 -1
v -14 19 95
v -12 17 53
v -13 15 53
v -16 15 95
v -14 12 95
v -12 13 53
v -11 10 95
v -12 15 53
v -9 14 95
v -11 17 95
v -12 16 19
v -22 24 95
v -25 23 54
v -26 24 54
v -25 27 95
v -28 27 95
v -28 24 54
v -31 25 95
v -27 23 54
v -29 21 95
v -25 22 95
v -27 23 -8
v -38 26 100
v -42 28 77
v -43 32 77
v -39 32 100
v -44 36 97
v -46 34 77
v -50 35 96
v -45 29 77
v -50 30 99
v -45 25 100
v -44 30 -47
v -64 -25 73
v -64 -29 70
v -39 -37 70
v -36 -34 73
v -64 -26 68
v -36 -34 68
v -64 -29 62
v -39 -37 62
v -64 -33 59
v -41 -39 59
v -64 -33 65
v -41 -39 65
v -29 -64 65
v -25 -64 70
v -21 -64 73
v -21 -64 69
v -25 -64 62
v -29 -64 59
v -54 -30 42
v -57 -29 61
v -53 -27 61
v -51 -30 42
v -51 -31 17
v -52 -33 42
v -55 -35 61
v -50 -36 61
v -49 -33 42
v -46 -34 61
v -48 -29 61
v -37 -40 48
v -38 -39 61
v -36 -39 61
v -36 -41 48
v -36 -41 29
v -36 -42 48
v -39 -42 61
v -36 -44 61
v -36 -43 48
v -34 -45 61
v -34 -41 61
v -26 -56 46
v -25 -55 65
v -25 -57 65
v -27 -57 46
v -27 -57 16
v -28 -57 46
v -28 -54 65
v -30 -57 65
v -29 -57 46
v -31 -59 65
v -27 -59 65
v -64 45 103
v -64 42 104
v -13 20 96
v -11 22 95
v -64 42 100
v -13 20 92
v -64 37 100
v -17 16 92
v -64 34 102
v -19 14 94
v -64 37 105
v -17 16 97
v 19 -22 115
v 23 -18 114
v 25 -16 113
v 23 -18 110
v 19 -22 110
v 17 -24 112
v 38 -64 102
v 41 -64 105
v 46 -64 104
v 49 -64 103
v 46 -64 100
v 41 -64 100

f 1 2 3
f 1 3 4
f 4 3 5
f 5 3 6
f 5 6 7
f 7 6 8
f 7 8 9
f 9 8 10
f 10 8 2
f 10 2 1
f 2 11 3
f 3 11 6
f 6 11 8
f 8 11 2
f 12 13 14
f 12 14 15
f 15 14 16
f 16 14 17
f 16 17 18
f 18 17 19
f 18 19 20
f 20 19 21
f 21 19 13
f 21 13 12
f 13 22 14
f 14 22 17
f 17 22 19
f 19 22 13
f 23 24 25
f 23 25 26
f 26 25 27
f 27 25 28
f 27 28 29
f 29 28 30
f 29 30 31
f 31 30 32
f 32 30 24
f 32 24 23
f 24 33 25
f 25 33 28
f 28 33 30
f 30 33 24
f 34 35 36
f 34 36 37
f 37 36 38
f 38 36 39
f 38 39 40
f 40 39 41
f 40 41 42
f 42 41 43
f 43 41 35
f 43 35 34
f 35 44 36
f 36 44 39
f 39 44 41
f 41 44 35
f 45 46 47
f 45 47 48
f 48 47 49
f 49 47 50
f 49 50 51
f 51 50 52
f 51 52 53
f 53 52 54
f 54 52 46
f 54 46 45
f 46 55 47
f 47 55 50
f 50 55 52
f 52 55 46
f 56 57 58
f 56 58 59
f 59 58 60
f 60 58 61
f 60 61 62
f 62 61 63
f 62 63 64
f 64 63 65
f 65 63 57
f 65 57 56
f 57 66 58
f 58 66 61
f 61 66 63
f 63 66 57
f 67 68 69
f 67 69 70
f 70 69 71
f 71 69 72
f 71 72 73
f 73 72 74
f 73 74 75
f 75 74 76
f 76 74 68
f 76 68 67
f 68 77 69
f 69 77 72
f 72 77 74
f 74 77 68
f 78 79 80
f 78 80 81
f 78 81 82
f 82 81 83
f 82 83 84
f 84 83 85
f 84 85 86
f 86 85 87
f 86 87 88
f 88 87 89
f 88 89 79
f 79 89 80
f 80 89 90
f 80 90 91
f 80 91 81
f 81 91 92
f 81 92 83
f 83 92 93
f 83 93 85
f 85 93 94
f 85 94 87
f 87 94 95
f 87 95 89
f 89 95 90
f 96 97 98
f 96 98 99
f 96 99 100
f 96 100 101
f 96 101 97
f 97 101 102
f 102 101 103
f 103 101 104
f 103 104 105
f 105 104 99
f 105 99 106
f 106 99 98
f 99 104 100
f 100 104 101
f 107 108 109
f 107 109 110
f 107 110 111
f 107 111 112
f 107 112 108
f 108 112 113
f 113 112 114
f 114 112 115
f 114 115 116
f 116 115 110
f 116 110 117
f 117 110 109
f 110 115 111
f 111 115 112
f 118 119 120
f 118 120 121
f 118 121 122
f 118 122 123
f 118 123 119
f 119 123 124
f 124 123 125
f 125 123 126
f 125 126 127
f 127 126 121
f 127 121 128
f 128 121 120
f 121 126 122
f 122 126 123
f 129 130 131
f 129 131 132
f 129 132 133
f 133 132 134
f 133 134 135
f 135 134 136
f 135 136 137
f 137 136 138
f 137 138 139
f 139 138 140
f 139 140 130
f 130 140 131
f 131 140 141
f 131 141 142
f 131 142 132
f 132 142 143
f 132 143 134
f 134 143 144
f 134 144 136
f 136 144 145
f 136 145 138
f 138 145 146
f 138 146 140
f 140 146 141
f 141 146 147
f 141 147 148
f 141 148 142
f 142 148 149
f 142 149 143
f 143 149 150
f 143 150 144
f 144 150 151
f 144 151 145
f 145 151 152
f 145 152 146
f 146 152 147
