# RS2 Model 21783
# Vertices: 146
# Faces: 167

v -7 57 109
v -8 64 111
v -16 64 62
v -15 57 61
v -20 47 104
v -12 47 108
v 1 57 113
v 0 64 115
v -7 57 117
v -8 64 119
v -38 41 103
v -28 47 55
v -46 41 54
v -64 41 51
v -64 41 103
v -30 38 107
v -38 38 111
v -20 47 112
v -8 -64 111
v -28 -40 105
v -36 -40 56
v -16 -64 62
v -11 57 54
v -12 64 55
v -3 64 15
v -2 57 16
v -24 47 48
v -14 47 53
v -1 57 59
v -2 64 60
v -11 57 62
v -12 64 63
v -42 41 47
v -15 47 17
v -33 41 16
v -64 41 16
v -64 41 44
v -32 38 52
v -42 38 55
v -24 47 56
v -12 -64 55
v -32 -40 49
v -23 -40 14
v -3 -64 15
v -33 -40 0
v -13 -64 0
v -12 57 0
v -25 47 0
v -43 41 0
v -64 41 0
v -13 64 0
v 0 -64 115
v -20 -39 109
v -64 -31 107
v -64 -34 103
v -64 -34 51
v -8 -64 119
v -28 -39 113
v -64 -31 111
v 64 64 240
v 64 -64 240
v 64 -64 0
v 64 64 0
v -21 64 240
v -19 64 174
v -18 57 175
v -17 51 240
v -1 46 240
v 2 64 240
v 21 33 240
v 25 64 240
v 43 33 240
v 47 64 240
v 40 0 240
v 40 -32 240
v 47 -64 240
v 18 -32 240
v 25 -64 240
v -4 -32 240
v 2 -64 240
v -32 -28 240
v -21 -64 240
v -39 -40 173
v -19 -64 174
v -31 47 176
v -49 41 175
v -40 42 240
v -28 45 240
v -11 57 169
v -12 64 168
v -12 64 118
v -11 57 116
v -24 47 170
v -17 47 174
v -4 57 173
v -5 64 172
v -13 57 176
v -14 64 175
v -42 41 169
v -24 47 111
v -42 41 110
v -64 41 110
v -64 41 169
v -35 38 173
v -44 38 176
v -26 47 177
v -12 -64 168
v -32 -40 167
v -32 -40 112
v -12 -64 118
v -5 22 240
v 18 0 240
v -12 -64 63
v -32 -39 57
v -22 -39 54
v -2 -64 60
v -14 -64 175
v -34 -39 174
v -25 -39 171
v -5 -64 172
v -64 -34 44
v -64 -35 16
v -64 -35 0
v -64 38 107
v -64 38 111
v -64 41 175
v -64 42 240
v -64 -34 240
v -64 -35 175
v -64 -35 169
v -64 -34 110
v -64 38 49
v -64 38 52
v -64 -31 52
v -64 -31 49
v -64 38 173
v -64 38 176
v -64 -32 176
v -64 -32 173
v -108 -16 240
v 60 93 240
v -118 2 0
v 68 -85 240
v -122 15 240
v 58 -102 0
v -65 -64 240

f 1 2 3
f 1 3 4
f 1 4 5
f 1 5 6
f 1 6 7
f 1 7 2
f 2 7 8
f 8 7 9
f 8 9 10
f 11 5 12
f 11 12 13
f 11 13 14
f 11 14 15
f 11 15 16
f 11 16 5
f 5 16 6
f 6 16 17
f 6 17 18
f 6 18 7
f 7 18 9
f 19 20 21
f 19 21 22
f 5 4 12
f 23 24 25
f 23 25 26
f 23 26 27
f 23 27 28
f 23 28 29
f 23 29 24
f 24 29 30
f 30 29 31
f 30 31 32
f 33 27 34
f 33 34 35
f 33 35 36
f 33 36 37
f 33 37 38
f 33 38 27
f 27 38 28
f 28 38 39
f 28 39 40
f 28 40 29
f 29 40 31
f 41 42 43
f 41 43 44
f 44 43 45
f 44 45 46
f 27 26 34
f 34 26 47
f 34 47 48
f 34 48 35
f 35 48 49
f 35 49 50
f 35 50 36
f 26 25 51
f 26 51 47
f 20 19 52
f 20 52 53
f 20 53 54
f 20 54 55
f 20 55 21
f 21 55 56
f 53 52 57
f 53 57 58
f 53 58 59
f 53 59 54
f 60 61 62
f 60 62 63
f 64 65 66
f 64 66 67
f 64 67 68
f 64 68 69
f 69 68 70
f 69 70 71
f 71 70 72
f 71 72 73
f 73 72 60
f 60 72 74
f 60 74 61
f 61 74 75
f 61 75 76
f 76 75 77
f 76 77 78
f 78 77 79
f 78 79 80
f 80 79 81
f 80 81 82
f 82 81 83
f 82 83 84
f 85 86 87
f 85 87 88
f 85 88 67
f 85 67 66
f 89 90 91
f 89 91 92
f 89 92 93
f 89 93 94
f 89 94 95
f 89 95 90
f 90 95 96
f 96 95 97
f 96 97 98
f 99 93 100
f 99 100 101
f 99 101 102
f 99 102 103
f 99 103 104
f 99 104 93
f 93 104 94
f 94 104 105
f 94 105 106
f 94 106 95
f 95 106 97
f 107 108 109
f 107 109 110
f 93 92 100
f 88 87 111
f 88 111 68
f 88 68 67
f 111 81 79
f 111 79 77
f 111 77 112
f 111 112 68
f 68 112 70
f 70 112 74
f 70 74 72
f 112 77 75
f 112 75 74
f 113 114 115
f 113 115 116
f 116 115 42
f 116 42 41
f 117 118 119
f 117 119 120
f 120 119 108
f 120 108 107
f 43 42 121
f 43 121 122
f 43 122 45
f 45 122 123
f 16 15 124
f 16 124 17
f 17 124 125
f 87 86 126
f 87 126 127
f 87 127 81
f 87 81 111
f 83 81 128
f 83 128 129
f 109 108 130
f 109 130 131
f 39 38 132
f 39 132 133
f 115 114 134
f 115 134 135
f 115 135 42
f 42 135 121
f 38 37 132
f 105 104 136
f 105 136 137
f 119 118 138
f 119 138 139
f 119 139 108
f 108 139 130
f 104 103 136
f 127 128 81
f 140 141 142
