# RS2 Model 2178
# Vertices: 45
# Faces: 84

v 52 44 120
v -44 -52 120
v -44 -52 232
v 52 44 232
v -40 -56 120
v 56 40 120
v 56 40 232
v 48 48 120
v -48 -48 120
v -48 -48 232
v -40 -56 232
v -48 -64 120
v -40 -56 112
v 48 32 112
v 56 40 105
v 64 48 120
v 64 48 240
v -48 -64 240
v -64 -64 120
v -64 -64 0
v -48 -64 0
v -40 -56 16
v -44 -52 112
v -44 -52 16
v 44 36 112
v -48 -48 112
v -48 -48 16
v 40 40 112
v 48 48 105
v -40 -40 0
v 52 44 105
v 52 44 0
v -36 -44 0
v 56 40 0
v 64 48 0
v 64 64 120
v 64 64 240
v -64 -64 240
v 48 48 0
v 64 64 0
v 52 44 112
v 56 40 112
v 48 48 112
v -32 -48 0
v 48 48 232

f 1 2 3
f 1 3 4
f 1 4 3
f 1 3 2
f 1 2 5
f 1 5 6
f 1 6 7
f 1 7 4
f 1 4 8
f 1 8 2
f 2 8 9
f 2 9 10
f 2 10 3
f 2 3 5
f 5 3 11
f 5 11 12
f 5 12 13
f 5 13 6
f 6 13 14
f 6 14 15
f 6 15 16
f 6 16 7
f 7 16 17
f 7 17 18
f 7 18 11
f 11 18 12
f 12 18 19
f 12 19 20
f 12 20 21
f 12 21 13
f 13 21 22
f 13 22 23
f 23 22 24
f 23 24 25
f 23 25 24
f 23 24 26
f 26 24 27
f 26 27 20
f 26 20 19
f 26 19 9
f 26 9 8
f 26 8 28
f 28 8 29
f 28 29 30
f 28 30 27
f 27 30 20
f 31 32 33
f 31 33 32
f 31 32 15
f 15 32 34
f 15 34 35
f 15 35 16
f 16 35 36
f 16 36 37
f 16 37 17
f 17 37 38
f 17 38 18
f 18 38 19
f 19 38 10
f 19 10 9
f 39 32 31
f 39 31 29
f 39 29 40
f 40 29 36
f 40 36 35
f 41 24 22
f 41 22 42
f 43 27 24
f 43 24 41
f 32 33 44
f 32 44 34
f 39 30 33
f 39 33 32
f 8 4 45
f 8 45 36
f 8 36 29
f 44 15 22
f 44 22 21
f 38 45 10
f 45 38 37
f 45 37 36
f 29 15 44
f 29 44 30
f 15 14 22
