# RS2 Model 21786
# Vertices: 341
# Faces: 706

v -154 -149 185
v -144 -146 185
v -154 -152 185
v -164 -154 185
v -166 -150 185
v -164 -146 185
v -142 -150 185
v -144 -154 185
v -151 217 192
v -155 224 198
v -145 222 207
v -140 217 204
v -141 215 205
v -151 215 196
v -163 210 192
v -166 216 196
v -164 215 200
v -155 223 201
v -148 221 208
v -143 219 219
v -137 211 214
v -140 211 213
v -150 202 206
v -131 188 170
v -119 189 180
v -144 215 218
v -155 222 201
v -160 209 195
v -168 199 200
v -172 206 204
v -171 206 206
v -165 201 201
v -175 247 221
v -183 242 220
v -169 248 228
v -185 244 223
v -176 251 223
v -172 251 229
v -167 245 236
v -187 236 224
v -190 240 226
v -168 247 238
v -148 210 227
v -143 202 222
v -145 203 219
v -154 196 218
v -164 197 208
v -141 182 168
v -118 149 134
v -99 158 134
v -81 158 149
v -116 184 191
v -150 208 224
v -158 201 226
v -155 194 221
v -161 204 222
v -179 232 241
v -170 239 241
v -161 204 223
v -170 200 214
v -167 194 210
v -167 203 214
v -186 233 232
v -173 240 242
v -180 235 241
v -188 235 234
v -157 222 212
v -160 221 211
v -162 222 209
v -163 221 208
v -161 220 209
v -159 220 209
v -158 224 208
v -160 225 208
v -163 224 208
v -165 221 214
v -160 224 216
v -157 216 213
v -162 216 222
v -163 218 220
v -160 218 221
v -160 215 226
v -162 223 205
v -160 221 206
v -158 221 206
v -157 222 204
v -155 224 206
v -159 227 207
v -162 226 206
v -162 222 203
v -160 222 203
v -148 171 176
v -129 132 143
v -115 80 105
v -96 108 94
v -66 124 99
v -32 126 118
v -76 153 161
v -123 175 198
v -133 166 196
v -146 165 184
v -128 121 153
v -106 69 117
v -25 -89 52
v -74 -65 52
v -59 43 52
v -23 76 52
v 15 87 52
v -22 118 133
v -89 134 171
v -107 122 170
v -72 72 138
v 60 -62 52
v -43 93 142
v 85 5 52
v 61 85 52
v 216 118 192
v 223 121 198
v 220 111 207
v 214 107 204
v 212 108 205
v 214 118 196
v 211 130 192
v 217 133 196
v 216 131 200
v 222 121 201
v 219 114 208
v 216 109 219
v 208 105 214
v 208 108 213
v 201 119 206
v 184 102 170
v 183 90 180
v 213 111 218
v 221 121 201
v 209 128 195
v 200 137 200
v 208 140 204
v 208 139 206
v 202 134 201
v 249 137 221
v 245 146 220
v 249 131 228
v 247 147 223
v 253 137 223
v 252 133 229
v 246 129 236
v 240 150 224
v 244 153 226
v 248 130 238
v 208 116 227
v 200 112 222
v 201 114 219
v 195 124 218
v 198 133 208
v 180 113 168
v 144 95 134
v 150 75 134
v 147 57 149
v 178 88 191
v 207 118 224
v 201 127 226
v 194 125 221
v 204 129 222
v 235 143 241
v 240 133 241
v 204 129 223
v 202 139 214
v 195 137 210
v 204 136 214
v 237 150 232
v 242 136 242
v 238 144 241
v 239 152 234
v 222 123 212
v 221 126 211
v 222 128 209
v 221 129 208
v 220 127 209
v 220 125 209
v 224 123 208
v 225 125 208
v 224 128 208
v 222 131 214
v 224 125 216
v 216 124 213
v 216 129 222
v 218 129 220
v 218 126 221
v 215 127 226
v 223 128 205
v 221 126 206
v 221 124 206
v 222 123 204
v 223 121 206
v 227 124 207
v 226 127 206
v 222 128 203
v 222 126 203
v 170 121 176
v 128 109 143
v 75 102 105
v 100 79 94
v 111 47 99
v 108 13 118
v 141 53 161
v 170 96 198
v 163 107 196
v 164 120 184
v 117 109 153
v 63 95 117
v -106 38 53
v -75 83 53
v 30 52 53
v 57 12 53
v 63 -27 53
v 99 5 133
v 125 69 171
v 115 88 170
v 61 61 138
v -91 -50 53
v 77 29 142
v -29 -84 53
v 54 -73 53
v -184 -166 192
v -190 -171 198
v -189 -161 207
v -185 -155 204
v -183 -156 205
v -182 -166 196
v -176 -177 192
v -181 -181 196
v -180 -179 200
v -189 -171 201
v -188 -163 208
v -187 -158 219
v -179 -151 214
v -179 -154 213
v -169 -163 206
v -157 -143 170
v -160 -131 180
v -183 -159 218
v -188 -170 201
v -175 -174 195
v -164 -181 200
v -171 -186 204
v -171 -185 206
v -166 -178 201
v -211 -193 221
v -205 -201 220
v -213 -187 228
v -207 -203 223
v -215 -195 223
v -215 -191 229
v -210 -185 236
v -199 -204 224
v -202 -207 226
v -212 -186 238
v -177 -162 227
v -170 -156 222
v -171 -158 219
v -163 -167 218
v -162 -177 208
v -150 -152 168
v -120 -126 134
v -131 -108 134
v -133 -90 149
v -155 -127 191
v -175 -164 224
v -167 -171 226
v -161 -167 221
v -170 -174 222
v -196 -195 241
v -204 -187 241
v -170 -174 223
v -165 -183 214
v -159 -179 210
v -168 -180 214
v -196 -203 232
v -204 -190 242
v -198 -197 241
v -198 -205 234
v -188 -172 212
v -187 -175 211
v -188 -177 209
v -186 -178 208
v -186 -176 209
v -186 -174 209
v -190 -174 208
v -191 -176 208
v -189 -179 208
v -186 -180 214
v -190 -176 216
v -182 -172 213
v -182 -177 222
v -183 -178 220
v -184 -175 221
v -181 -175 226
v -189 -178 205
v -187 -175 206
v -187 -173 206
v -188 -172 204
v -190 -171 206
v -193 -175 207
v -192 -178 206
v -188 -177 203
v -188 -175 203
v -138 -158 176
v -102 -135 143
v -52 -115 105
v -82 -99 94
v -101 -71 99
v -107 -38 118
v -129 -84 161
v -145 -133 198
v -135 -142 196
v -133 -155 184
v -91 -132 153
v -42 -105 117
v 106 -6 51
v 88 -58 51
v -21 -55 51
v -58 -23 51
v -73 14 51
v -100 -27 133
v -108 -95 171
v -94 -112 170
v -49 -71 138
v 70 75 51
v -73 -45 142
v 0 92 51
v -76 60 51
v -168 196 202
v -154 215 190
v -149 195 223
v 210 102 211
v 194 120 223
v 214 120 190
v -160 -180 203
v -180 -170 190
v -163 -161 223

f 1 2 3
f 1 3 4
f 1 4 5
f 1 5 6
f 1 6 5
f 1 5 4
f 1 4 3
f 1 3 2
f 2 3 7
f 2 7 3
f 3 7 8
f 3 8 7
f 9 10 11
f 9 11 12
f 9 12 13
f 9 13 14
f 9 14 15
f 9 15 10
f 10 15 16
f 10 16 17
f 10 17 18
f 10 18 11
f 11 18 19
f 11 19 20
f 11 20 12
f 12 20 21
f 12 21 22
f 12 22 13
f 13 22 23
f 13 23 14
f 13 14 24
f 13 24 25
f 13 25 22
f 13 22 26
f 13 26 19
f 13 19 14
f 14 19 27
f 14 27 28
f 14 28 15
f 15 28 29
f 15 29 16
f 16 29 30
f 16 30 31
f 16 31 17
f 17 31 32
f 17 32 28
f 17 28 27
f 17 27 33
f 17 33 34
f 17 34 18
f 18 34 33
f 18 33 19
f 19 33 35
f 19 35 27
f 27 35 33
f 33 35 34
f 33 34 36
f 33 36 37
f 33 37 35
f 35 37 38
f 35 38 39
f 35 39 40
f 35 40 34
f 34 40 41
f 34 41 36
f 36 41 42
f 36 42 38
f 36 38 37
f 21 20 43
f 21 43 44
f 21 44 45
f 21 45 22
f 22 45 23
f 23 45 46
f 23 46 47
f 23 47 32
f 23 32 28
f 23 28 14
f 14 28 48
f 14 48 24
f 24 48 49
f 24 49 50
f 24 50 25
f 25 50 51
f 25 51 52
f 25 52 22
f 22 52 45
f 22 45 53
f 22 53 26
f 26 53 43
f 26 43 20
f 26 20 19
f 44 43 54
f 44 54 55
f 44 55 46
f 44 46 45
f 45 46 56
f 45 56 53
f 53 56 57
f 53 57 58
f 53 58 59
f 53 59 54
f 53 54 43
f 55 54 60
f 55 60 61
f 55 61 47
f 55 47 46
f 46 47 62
f 46 62 47
f 62 46 56
f 62 56 46
f 56 62 63
f 56 63 57
f 57 63 62
f 57 62 59
f 57 59 58
f 57 58 64
f 57 64 65
f 57 65 63
f 57 63 58
f 58 63 39
f 58 39 42
f 58 42 64
f 64 42 41
f 64 41 66
f 64 66 65
f 65 66 63
f 63 66 40
f 63 40 39
f 61 60 30
f 61 30 29
f 61 29 32
f 61 32 47
f 47 32 31
f 47 31 62
f 62 31 30
f 62 30 60
f 62 60 59
f 59 60 54
f 29 28 32
f 39 38 42
f 40 66 41
f 67 68 69
f 67 69 70
f 67 70 71
f 67 71 72
f 67 72 73
f 67 73 74
f 67 74 68
f 68 74 75
f 68 75 69
f 68 69 76
f 68 76 77
f 68 77 78
f 68 78 72
f 72 78 69
f 69 78 76
f 76 78 79
f 76 79 80
f 76 80 77
f 77 80 81
f 77 81 78
f 78 81 79
f 79 81 82
f 79 82 80
f 80 82 81
f 69 75 83
f 69 83 70
f 70 83 84
f 70 84 71
f 71 84 85
f 71 85 72
f 72 85 73
f 73 85 86
f 73 86 87
f 73 87 74
f 74 87 88
f 74 88 75
f 75 88 89
f 75 89 83
f 83 89 90
f 83 90 84
f 84 90 91
f 84 91 85
f 85 91 86
f 28 32 92
f 28 92 48
f 48 92 93
f 48 93 49
f 49 93 94
f 49 94 95
f 49 95 50
f 50 95 96
f 50 96 51
f 51 96 97
f 51 97 98
f 51 98 52
f 52 98 99
f 52 99 45
f 45 99 46
f 46 99 100
f 46 100 47
f 47 100 101
f 47 101 32
f 32 101 92
f 92 101 102
f 92 102 93
f 93 102 103
f 93 103 94
f 94 103 104
f 94 104 105
f 94 105 95
f 95 105 106
f 95 106 96
f 96 106 107
f 96 107 97
f 97 107 108
f 97 108 109
f 97 109 98
f 98 109 110
f 98 110 99
f 99 110 100
f 100 110 111
f 100 111 101
f 101 111 102
f 102 111 112
f 102 112 103
f 103 112 113
f 103 113 104
f 104 113 106
f 104 106 105
f 110 109 114
f 110 114 111
f 111 114 112
f 112 114 115
f 112 115 113
f 113 115 106
f 106 115 116
f 106 116 107
f 107 116 108
f 108 116 109
f 109 116 114
f 114 116 115
f 117 118 119
f 117 119 120
f 117 120 121
f 117 121 122
f 117 122 123
f 117 123 118
f 118 123 124
f 118 124 125
f 118 125 126
f 118 126 119
f 119 126 127
f 119 127 128
f 119 128 120
f 120 128 129
f 120 129 130
f 120 130 121
f 121 130 131
f 121 131 122
f 121 122 132
f 121 132 133
f 121 133 130
f 121 130 134
f 121 134 127
f 121 127 122
f 122 127 135
f 122 135 136
f 122 136 123
f 123 136 137
f 123 137 124
f 124 137 138
f 124 138 139
f 124 139 125
f 125 139 140
f 125 140 136
f 125 136 135
f 125 135 141
f 125 141 142
f 125 142 126
f 126 142 141
f 126 141 127
f 127 141 143
f 127 143 135
f 135 143 141
f 141 143 142
f 141 142 144
f 141 144 145
f 141 145 143
f 143 145 146
f 143 146 147
f 143 147 148
f 143 148 142
f 142 148 149
f 142 149 144
f 144 149 150
f 144 150 146
f 144 146 145
f 129 128 151
f 129 151 152
f 129 152 153
f 129 153 130
f 130 153 131
f 131 153 154
f 131 154 155
f 131 155 140
f 131 140 136
f 131 136 122
f 122 136 156
f 122 156 132
f 132 156 157
f 132 157 158
f 132 158 133
f 133 158 159
f 133 159 160
f 133 160 130
f 130 160 153
f 130 153 161
f 130 161 134
f 134 161 151
f 134 151 128
f 134 128 127
f 152 151 162
f 152 162 163
f 152 163 154
f 152 154 153
f 153 154 164
f 153 164 161
f 161 164 165
f 161 165 166
f 161 166 167
f 161 167 162
f 161 162 151
f 163 162 168
f 163 168 169
f 163 169 155
f 163 155 154
f 154 155 170
f 154 170 155
f 170 154 164
f 170 164 154
f 164 170 171
f 164 171 165
f 165 171 170
f 165 170 167
f 165 167 166
f 165 166 172
f 165 172 173
f 165 173 171
f 165 171 166
f 166 171 147
f 166 147 150
f 166 150 172
f 172 150 149
f 172 149 174
f 172 174 173
f 173 174 171
f 171 174 148
f 171 148 147
f 169 168 138
f 169 138 137
f 169 137 140
f 169 140 155
f 155 140 139
f 155 139 170
f 170 139 138
f 170 138 168
f 170 168 167
f 167 168 162
f 137 136 140
f 147 146 150
f 148 174 149
f 175 176 177
f 175 177 178
f 175 178 179
f 175 179 180
f 175 180 181
f 175 181 182
f 175 182 176
f 176 182 183
f 176 183 177
f 176 177 184
f 176 184 185
f 176 185 186
f 176 186 180
f 180 186 177
f 177 186 184
f 184 186 187
f 184 187 188
f 184 188 185
f 185 188 189
f 185 189 186
f 186 189 187
f 187 189 190
f 187 190 188
f 188 190 189
f 177 183 191
f 177 191 178
f 178 191 192
f 178 192 179
f 179 192 193
f 179 193 180
f 180 193 181
f 181 193 194
f 181 194 195
f 181 195 182
f 182 195 196
f 182 196 183
f 183 196 197
f 183 197 191
f 191 197 198
f 191 198 192
f 192 198 199
f 192 199 193
f 193 199 194
f 136 140 200
f 136 200 156
f 156 200 201
f 156 201 157
f 157 201 202
f 157 202 203
f 157 203 158
f 158 203 204
f 158 204 159
f 159 204 205
f 159 205 206
f 159 206 160
f 160 206 207
f 160 207 153
f 153 207 154
f 154 207 208
f 154 208 155
f 155 208 209
f 155 209 140
f 140 209 200
f 200 209 210
f 200 210 201
f 201 210 211
f 201 211 202
f 202 211 212
f 202 212 213
f 202 213 203
f 203 213 214
f 203 214 204
f 204 214 215
f 204 215 205
f 205 215 216
f 205 216 217
f 205 217 206
f 206 217 218
f 206 218 207
f 207 218 208
f 208 218 219
f 208 219 209
f 209 219 210
f 210 219 220
f 210 220 211
f 211 220 221
f 211 221 212
f 212 221 214
f 212 214 213
f 218 217 222
f 218 222 219
f 219 222 220
f 220 222 223
f 220 223 221
f 221 223 214
f 214 223 224
f 214 224 215
f 215 224 216
f 216 224 217
f 217 224 222
f 222 224 223
f 225 226 227
f 225 227 228
f 225 228 229
f 225 229 230
f 225 230 231
f 225 231 226
f 226 231 232
f 226 232 233
f 226 233 234
f 226 234 227
f 227 234 235
f 227 235 236
f 227 236 228
f 228 236 237
f 228 237 238
f 228 238 229
f 229 238 239
f 229 239 230
f 229 230 240
f 229 240 241
f 229 241 238
f 229 238 242
f 229 242 235
f 229 235 230
f 230 235 243
f 230 243 244
f 230 244 231
f 231 244 245
f 231 245 232
f 232 245 246
f 232 246 247
f 232 247 233
f 233 247 248
f 233 248 244
f 233 244 243
f 233 243 249
f 233 249 250
f 233 250 234
f 234 250 249
f 234 249 235
f 235 249 251
f 235 251 243
f 243 251 249
f 249 251 250
f 249 250 252
f 249 252 253
f 249 253 251
f 251 253 254
f 251 254 255
f 251 255 256
f 251 256 250
f 250 256 257
f 250 257 252
f 252 257 258
f 252 258 254
f 252 254 253
f 237 236 259
f 237 259 260
f 237 260 261
f 237 261 238
f 238 261 239
f 239 261 262
f 239 262 263
f 239 263 248
f 239 248 244
f 239 244 230
f 230 244 264
f 230 264 240
f 240 264 265
f 240 265 266
f 240 266 241
f 241 266 267
f 241 267 268
f 241 268 238
f 238 268 261
f 238 261 269
f 238 269 242
f 242 269 259
f 242 259 236
f 242 236 235
f 260 259 270
f 260 270 271
f 260 271 262
f 260 262 261
f 261 262 272
f 261 272 269
f 269 272 273
f 269 273 274
f 269 274 275
f 269 275 270
f 269 270 259
f 271 270 276
f 271 276 277
f 271 277 263
f 271 263 262
f 262 263 278
f 262 278 263
f 278 262 272
f 278 272 262
f 272 278 279
f 272 279 273
f 273 279 278
f 273 278 275
f 273 275 274
f 273 274 280
f 273 280 281
f 273 281 279
f 273 279 274
f 274 279 255
f 274 255 258
f 274 258 280
f 280 258 257
f 280 257 282
f 280 282 281
f 281 282 279
f 279 282 256
f 279 256 255
f 277 276 246
f 277 246 245
f 277 245 248
f 277 248 263
f 263 248 247
f 263 247 278
f 278 247 246
f 278 246 276
f 278 276 275
f 275 276 270
f 245 244 248
f 255 254 258
f 256 282 257
f 283 284 285
f 283 285 286
f 283 286 287
f 283 287 288
f 283 288 289
f 283 289 290
f 283 290 284
f 284 290 291
f 284 291 285
f 284 285 292
f 284 292 293
f 284 293 294
f 284 294 288
f 288 294 285
f 285 294 292
f 292 294 295
f 292 295 296
f 292 296 293
f 293 296 297
f 293 297 294
f 294 297 295
f 295 297 298
f 295 298 296
f 296 298 297
f 285 291 299
f 285 299 286
f 286 299 300
f 286 300 287
f 287 300 301
f 287 301 288
f 288 301 289
f 289 301 302
f 289 302 303
f 289 303 290
f 290 303 304
f 290 304 291
f 291 304 305
f 291 305 299
f 299 305 306
f 299 306 300
f 300 306 307
f 300 307 301
f 301 307 302
f 244 248 308
f 244 308 264
f 264 308 309
f 264 309 265
f 265 309 310
f 265 310 311
f 265 311 266
f 266 311 312
f 266 312 267
f 267 312 313
f 267 313 314
f 267 314 268
f 268 314 315
f 268 315 261
f 261 315 262
f 262 315 316
f 262 316 263
f 263 316 317
f 263 317 248
f 248 317 308
f 308 317 318
f 308 318 309
f 309 318 319
f 309 319 310
f 310 319 320
f 310 320 321
f 310 321 311
f 311 321 322
f 311 322 312
f 312 322 323
f 312 323 313
f 313 323 324
f 313 324 325
f 313 325 314
f 314 325 326
f 314 326 315
f 315 326 316
f 316 326 327
f 316 327 317
f 317 327 318
f 318 327 328
f 318 328 319
f 319 328 329
f 319 329 320
f 320 329 322
f 320 322 321
f 326 325 330
f 326 330 327
f 327 330 328
f 328 330 331
f 328 331 329
f 329 331 322
f 322 331 332
f 322 332 323
f 323 332 324
f 324 332 325
f 325 332 330
f 330 332 331
f 333 334 335
