# RS2 Model 21812
# Vertices: 191
# Faces: 368

v 16 0 112
v 12 -11 112
v 12 -10 107
v 16 0 107
v 9 8 113
v 9 8 107
v 0 10 107
v 0 10 113
v -9 8 113
v -9 8 107
v -16 0 107
v -16 0 112
v -12 -10 107
v -10 -11 112
v 0 -14 111
v 0 -14 107
v 8 -13 100
v 0 -15 100
v 0 -14 92
v 8 -14 91
v 15 -9 100
v -8 -13 100
v -8 -14 91
v -3 -11 88
v 0 -1 90
v 3 -11 88
v 9 -12 89
v 16 -9 90
v 20 1 100
v 15 13 96
v 21 2 91
v 14 12 94
v 8 14 92
v 0 16 96
v 12 12 100
v 15 11 84
v 9 13 84
v 4 11 84
v 3 11 91
v 0 14 94
v -8 14 92
v -15 13 96
v -12 12 100
v 0 13 100
v -20 1 100
v -15 -9 100
v 16 -10 84
v 22 0 84
v 4 10 76
v 9 12 76
v 4 13 58
v 2 -1 60
v 2 -1 76
v 2 0 84
v 0 8 91
v -3 11 91
v -4 11 84
v -9 13 84
v -15 11 84
v -14 12 94
v -21 2 91
v 10 -14 76
v 17 -11 76
v 10 -13 84
v 4 -13 76
v 4 -14 58
v 11 -16 59
v 19 -14 56
v 25 -9 60
v 22 -8 76
v 21 -8 82
v 23 0 82
v 21 8 82
v 4 -12 84
v 10 15 58
v 10 6 59
v 3 -3 59
v 22 8 76
v 15 11 76
v 25 9 60
v 17 14 58
v 26 -1 58
v 27 0 60
v 18 -2 60
v 28 8 73
v 25 8 81
v 27 0 81
v 31 0 73
v 29 0 71
v 27 8 73
v 24 8 73
v 23 8 80
v 25 0 80
v 25 -8 81
v 28 -8 73
v 27 -8 73
v 31 0 61
v 29 9 61
v 27 9 59
v 23 -8 80
v 24 -8 73
v 29 0 59
v 29 -9 61
v 27 -9 59
v 9 -12 60
v 9 -12 57
v 17 -2 57
v 10 5 56
v 3 -3 56
v 18 -2 46
v 9 8 47
v 2 -2 47
v 9 -12 46
v 17 -2 31
v 9 9 32
v 3 -2 31
v 9 -10 31
v 9 -8 15
v 16 -2 14
v 9 8 15
v 4 -2 14
v -16 -9 90
v -9 -12 89
v -22 0 84
v -16 -10 84
v -10 -13 84
v -4 -12 84
v -4 10 76
v -9 12 76
v -2 0 84
v -2 -1 76
v -2 -1 60
v -4 13 58
v -10 15 58
v -15 11 76
v -10 -14 76
v -17 -11 76
v -11 -16 59
v -4 -14 58
v -4 -13 76
v -19 -14 56
v -9 -12 60
v -3 -3 59
v -23 0 82
v -21 -8 82
v -22 -8 76
v -25 -9 60
v -26 -1 58
v -18 -2 60
v -9 -12 57
v -3 -3 56
v -10 5 56
v -10 6 59
v -17 14 58
v -22 8 76
v -21 8 82
v -25 9 60
v -24 8 73
v -23 8 80
v -27 0 60
v -17 -2 57
v -18 -2 46
v -9 -12 46
v -2 -2 47
v -9 8 47
v -28 8 73
v -31 0 73
v -27 0 81
v -25 8 81
v -27 8 73
v -29 0 71
v -27 -8 73
v -28 -8 73
v -25 -8 81
v -25 0 80
v -27 9 59
v -29 9 61
v -31 0 61
v -29 -9 61
v -27 -9 59
v -24 -8 73
v -23 -8 80
v -29 0 59
v -9 9 32
v -17 -2 31
v -9 -10 31
v -3 -2 31
v -9 8 15
v -16 -2 14
v -9 -8 15
v -4 -2 14

f 1 2 3
f 1 3 4
f 1 4 5
f 5 4 6
f 5 6 7
f 5 7 8
f 8 7 9
f 9 7 10
f 9 10 11
f 9 11 12
f 12 11 13
f 12 13 14
f 14 13 15
f 15 13 16
f 15 16 3
f 15 3 2
f 17 18 19
f 17 19 20
f 17 20 21
f 17 21 3
f 17 3 16
f 17 16 18
f 18 16 22
f 18 22 19
f 19 22 23
f 19 23 24
f 19 24 25
f 19 25 26
f 19 26 20
f 20 26 27
f 20 27 28
f 20 28 21
f 21 28 29
f 21 29 4
f 21 4 3
f 30 29 31
f 30 31 32
f 30 32 33
f 30 33 34
f 30 34 35
f 30 35 29
f 29 35 6
f 29 6 4
f 33 32 36
f 33 36 37
f 33 37 38
f 33 38 39
f 33 39 40
f 33 40 34
f 34 40 41
f 34 41 42
f 34 42 43
f 34 43 44
f 34 44 35
f 35 44 6
f 6 44 7
f 7 44 10
f 10 44 43
f 10 43 45
f 10 45 11
f 11 45 46
f 11 46 13
f 13 46 22
f 13 22 16
f 28 47 48
f 28 48 31
f 28 31 29
f 49 38 37
f 49 37 50
f 49 50 51
f 49 51 52
f 49 52 53
f 49 53 54
f 49 54 38
f 38 54 25
f 38 25 39
f 39 25 55
f 39 55 40
f 40 55 56
f 40 56 41
f 41 56 57
f 41 57 58
f 41 58 59
f 41 59 60
f 41 60 42
f 42 60 61
f 42 61 45
f 42 45 43
f 62 63 47
f 62 47 64
f 62 64 65
f 62 65 66
f 62 66 67
f 62 67 63
f 63 67 68
f 63 68 69
f 63 69 70
f 63 70 47
f 47 70 71
f 47 71 48
f 48 71 72
f 48 72 73
f 48 73 36
f 48 36 32
f 48 32 31
f 53 65 74
f 53 74 54
f 54 74 25
f 25 74 26
f 26 74 27
f 27 74 64
f 27 64 47
f 27 47 28
f 50 75 51
f 51 75 76
f 51 76 52
f 52 76 77
f 52 77 66
f 52 66 65
f 52 65 53
f 73 78 79
f 73 79 36
f 36 79 50
f 36 50 37
f 78 80 81
f 78 81 79
f 79 81 75
f 79 75 50
f 82 81 80
f 82 80 83
f 82 83 69
f 82 69 68
f 82 68 84
f 82 84 81
f 81 84 76
f 81 76 75
f 85 86 87
f 85 87 88
f 85 88 89
f 85 89 90
f 85 90 86
f 86 90 91
f 86 91 92
f 86 92 93
f 86 93 87
f 87 93 94
f 87 94 88
f 88 94 95
f 88 95 96
f 88 96 89
f 89 96 97
f 89 97 90
f 90 97 98
f 90 98 99
f 90 99 91
f 91 99 80
f 91 80 78
f 91 78 92
f 92 78 73
f 92 73 72
f 92 72 93
f 93 72 100
f 93 100 94
f 94 100 101
f 94 101 96
f 94 96 95
f 102 99 98
f 102 98 97
f 102 97 103
f 102 103 104
f 102 104 83
f 102 83 99
f 99 83 80
f 104 103 96
f 104 96 101
f 104 101 69
f 104 69 83
f 68 105 84
f 84 105 106
f 84 106 107
f 84 107 76
f 76 107 108
f 76 108 77
f 77 108 109
f 77 109 106
f 77 106 105
f 77 105 66
f 66 105 67
f 67 105 68
f 96 103 97
f 72 71 100
f 100 71 70
f 100 70 101
f 101 70 69
f 64 74 65
f 108 107 110
f 108 110 111
f 108 111 112
f 108 112 109
f 109 112 106
f 106 112 113
f 106 113 110
f 106 110 107
f 110 114 115
f 110 115 111
f 111 115 116
f 111 116 112
f 112 116 117
f 112 117 113
f 113 117 110
f 110 117 114
f 114 117 118
f 114 118 119
f 114 119 115
f 115 119 120
f 115 120 116
f 116 120 121
f 116 121 117
f 117 121 118
f 122 123 23
f 122 23 46
f 122 46 45
f 122 45 61
f 122 61 124
f 122 124 125
f 122 125 123
f 123 125 126
f 123 126 127
f 123 127 24
f 123 24 23
f 128 129 58
f 128 58 57
f 128 57 130
f 128 130 131
f 128 131 132
f 128 132 133
f 128 133 129
f 129 133 134
f 129 134 135
f 129 135 59
f 129 59 58
f 136 126 125
f 136 125 137
f 136 137 138
f 136 138 139
f 136 139 140
f 136 140 126
f 126 140 127
f 127 140 131
f 127 131 130
f 127 130 25
f 127 25 24
f 137 141 138
f 138 141 142
f 138 142 139
f 139 142 143
f 139 143 132
f 139 132 140
f 140 132 131
f 124 144 145
f 124 145 125
f 125 145 146
f 125 146 137
f 137 146 147
f 137 147 141
f 141 147 148
f 141 148 149
f 141 149 142
f 142 149 150
f 142 150 143
f 143 150 151
f 143 151 152
f 143 152 153
f 143 153 132
f 132 153 133
f 133 153 134
f 134 153 154
f 134 154 135
f 135 154 155
f 135 155 156
f 135 156 59
f 59 156 124
f 59 124 60
f 60 124 61
f 154 157 155
f 155 157 158
f 155 158 159
f 155 159 156
f 156 159 144
f 156 144 124
f 148 160 157
f 148 157 154
f 148 154 149
f 149 154 153
f 149 153 161
f 149 161 150
f 150 161 162
f 150 162 163
f 150 163 164
f 150 164 151
f 151 164 152
f 152 164 165
f 152 165 162
f 152 162 161
f 152 161 153
f 166 167 168
f 166 168 169
f 166 169 170
f 166 170 171
f 166 171 167
f 167 171 172
f 167 172 173
f 167 173 174
f 167 174 168
f 168 174 175
f 168 175 169
f 169 175 159
f 169 159 158
f 169 158 170
f 170 158 176
f 170 176 177
f 170 177 178
f 170 178 171
f 171 178 172
f 172 178 179
f 172 179 180
f 172 180 181
f 172 181 174
f 172 174 173
f 174 182 175
f 175 182 144
f 175 144 159
f 181 182 174
f 182 181 146
f 182 146 145
f 182 145 144
f 183 178 177
f 183 177 176
f 183 176 160
f 183 160 180
f 183 180 179
f 183 179 178
f 147 160 148
f 160 147 180
f 180 147 181
f 181 147 146
f 25 130 57
f 25 57 56
f 25 56 55
f 157 176 158
f 176 157 160
f 23 22 46
f 162 165 184
f 162 184 185
f 162 185 186
f 162 186 163
f 163 186 164
f 164 186 187
f 164 187 165
f 165 187 184
f 184 187 188
f 184 188 189
f 184 189 185
f 185 189 190
f 185 190 186
f 186 190 191
f 186 191 187
f 187 191 188
