# RS2 Model 21823
# Vertices: 398
# Faces: 459

v -8 -10 148
v -6 -10 169
v -92 0 253
v -8 9 148
v -6 9 169
v 78 -1 287
v 16 -10 227
v 17 -10 205
v 17 6 205
v 16 6 227
v 5 -1 500
v 0 6 260
v 0 -7 260
v 5 -6 500
v 11 -1 500
v 20 6 248
v -13 11 114
v -13 -13 114
v 18 -20 111
v 20 -13 248
v 11 -6 500
v 19 11 111
v 1 12 98
v 0 15 62
v -18 13 66
v -16 10 83
v -16 10 94
v -15 -2 100
v -16 -9 89
v -15 -10 90
v -14 -19 98
v -13 -18 106
v 19 -18 107
v -14 -25 89
v -9 -25 89
v -13 -25 94
v -10 -25 86
v -7 -25 86
v -4 -25 89
v -2 -31 92
v -8 -31 94
v -11 -31 98
v -14 -31 99
v -9 -21 105
v 9 -21 105
v 11 -31 98
v 16 -31 99
v 19 -19 99
v 19 -18 92
v 19 -1 99
v 19 11 94
v 17 12 65
v 19 20 40
v -23 20 50
v -18 -12 66
v -17 -2 79
v -18 -2 79
v -17 10 83
v -17 10 94
v -16 -2 100
v -17 -9 89
v -16 -29 79
v -8 -29 78
v -5 -37 79
v -3 -37 82
v 0 -29 92
v 0 -24 99
v -7 -24 100
v 7 -24 100
v 8 -31 94
v 9 -25 89
v 13 -25 93
v 14 -25 89
v 16 -29 79
v 17 -16 66
v 17 -8 88
v 18 -8 88
v 20 -1 99
v 20 11 94
v 17 11 83
v 17 -1 78
v 19 -24 41
v 34 0 0
v 27 34 0
v 0 51 0
v -38 31 0
v -44 0 0
v -23 -15 50
v -14 -23 58
v -10 -27 59
v -15 -25 66
v -13 -29 74
v -9 -29 76
v -3 -29 77
v 0 -29 76
v 5 -37 79
v 3 -37 82
v 7 -25 86
v 4 -25 89
v 2 -31 92
v -10 -23 55
v -8 -27 59
v -7 -18 60
v -8 -18 60
v -11 -18 68
v -10 -18 72
v -7 -18 75
v -8 -30 71
v -3 -30 72
v -2 -18 73
v -2 -18 76
v 2 -18 76
v 2 -18 71
v 3 -30 70
v 3 -29 77
v 9 -29 76
v 8 -29 78
v -7 -23 55
v -4 -29 63
v -3 -18 64
v -7 -18 72
v -2 -25 53
v -2 -27 60
v -1 -18 62
v 10 -25 86
v 13 -29 74
v 15 -25 68
v 14 -26 57
v 10 -23 55
v -4 -23 49
v 0 -43 0
v 28 -34 0
v 11 -27 59
v 7 -23 55
v 3 -25 53
v 8 -27 59
v 5 -29 64
v 3 -27 60
v 2 -18 62
v 4 -18 65
v 7 -18 71
v 7 -18 60
v 11 -18 68
v 7 -18 75
v 8 -30 70
v 10 -18 72
v 9 -18 60
v 18 -1 78
v 68 1 81
v 68 -6 88
v 68 1 95
v 68 9 92
v 18 11 83
v 68 9 84
v 93 7 86
v 93 3 82
v 93 -5 88
v 93 3 94
v 93 7 90
v -35 -30 0
v 45 0 25
v 24 0 28
v 26 -18 0
v 45 -12 8
v 53 -12 0
v 57 0 20
v 45 12 8
v 26 18 0
v 53 12 0
v 66 0 8
v 83 0 0
v -20 48 25
v -11 28 28
v 2 40 0
v -11 55 8
v -16 61 0
v -27 60 20
v -30 43 8
v -26 21 0
v -35 49 0
v -31 67 8
v -39 84 0
v -27 -33 25
v -15 -15 28
v -30 -6 0
v -37 -27 8
v -39 -34 0
v -34 -45 20
v -19 -40 8
v -2 -27 0
v -22 -48 0
v -38 -52 8
v -48 -67 0
v -66 0 81
v -66 7 84
v -66 7 92
v -66 0 95
v -66 -7 88
v -91 -6 88
v -91 1 82
v -91 6 86
v -91 6 90
v -91 1 94
v -119 1 92
v -119 -3 88
v -119 1 84
v -119 5 87
v -119 5 89
v -158 1 88
v 122 6 89
v 122 6 87
v 122 3 84
v 122 -2 88
v 122 3 92
v 161 3 88
v 77 -1 311
v 16 -9 255
v 18 -9 234
v 18 5 234
v 16 5 255
v 6 1 528
v 6 -56 430
v 58 -30 430
v 58 32 430
v 6 63 430
v -46 32 430
v -46 -30 430
v -29 -20 451
v -29 22 451
v -58 40 384
v -58 -38 384
v 6 -38 451
v 6 -68 384
v 41 -20 451
v 70 -38 384
v 41 22 451
v 70 40 384
v 6 41 451
v 6 77 384
v -37 -25 415
v -37 27 415
v -73 47 339
v -73 -46 339
v 6 -47 415
v 6 -83 339
v 49 -25 415
v 85 -46 339
v 49 27 415
v 85 47 339
v 6 50 415
v 6 93 339
v -44 -30 386
v -44 32 386
v -96 63 281
v -96 -61 281
v 6 -56 386
v 6 -109 281
v 57 -30 386
v 109 -61 281
v 57 32 386
v 109 63 281
v 6 59 386
v 6 122 281
v -61 -40 330
v -61 42 330
v -123 82 204
v -123 -80 204
v 7 -76 330
v 7 -140 204
v 76 -40 330
v 140 -80 204
v 76 42 330
v 140 82 204
v 7 81 330
v 7 156 204
v -84 -55 253
v -84 57 253
v -150 98 123
v -150 -96 123
v 7 -102 253
v 7 -168 123
v 101 -55 253
v 166 -96 123
v 101 57 253
v 166 98 123
v 7 107 253
v 7 189 123
v -47 90 361
v -128 91 206
v -47 -93 360
v 3 89 495
v -78 90 338
v 3 -94 494
v 29 95 579
v -52 96 421
v 29 -88 578
v -108 -14 357
v -139 -81 199
v 56 -88 357
v -87 32 489
v -118 -35 329
v 77 -42 489
v -75 57 575
v -106 -10 414
v 89 -17 575
v -38 -79 360
v -6 -150 204
v 123 -5 362
v -57 -35 488
v -25 -106 330
v 104 39 490
v -77 -15 574
v -43 -92 416
v 78 63 574
v 67 -85 356
v 144 -87 200
v 68 93 356
v 13 -83 492
v 90 -85 334
v 14 95 492
v -18 -81 574
v 67 -84 416
v -17 96 574
v -37 93 358
v -2 167 204
v 117 6 355
v -80 58 487
v -45 132 331
v 74 -29 485
v -81 22 577
v -42 102 421
v 71 -65 574
v -94 8 357
v -138 79 203
v 54 94 356
v -66 -34 492
v -107 32 335
v 79 53 491
v -66 -65 574
v -110 6 417
v 82 21 574
v -16 -20 60
v 11 -20 56
v -11 -20 95
v -69 90 278
v -150 91 119
v -69 -93 277
v -15 89 436
v -96 90 281
v -15 -94 436
v 14 96 538
v -67 97 380
v 14 -87 538
v -118 -35 279
v -149 -102 119
v 46 -109 279
v -95 15 435
v -126 -52 277
v 69 -59 435
v -81 45 533
v -112 -22 373
v 83 -29 533
v -26 -103 278
v 6 -174 119
v 135 -29 279
v -49 -55 433
v -17 -126 277
v 112 19 435
v -69 -37 530
v -40 -101 369
v 89 40 530
v 91 -86 279
v 168 -88 120
v 92 92 279
v 35 -84 432
v 112 -86 276
v 36 94 432
v 0 -83 533
v 77 -85 375
v 1 95 533
v -28 116 282
v 7 190 125
v 126 29 279
v -49 66 432
v -14 140 278
v 105 -21 429
v -69 47 533
v -39 112 372
v 84 -40 530
v -106 29 278
v -150 100 120
v 42 118 277
v -79 -15 431
v -123 56 277
v 69 71 429
v -75 -45 537
v -114 14 375
v 72 41 534

f 1 2 3
f 1 3 4
f 4 3 5
f 5 3 2
f 6 7 8
f 6 8 9
f 6 9 10
f 6 10 7
f 11 12 13
f 11 13 14
f 11 14 15
f 11 15 12
f 12 15 16
f 12 16 17
f 12 17 18
f 12 18 13
f 13 18 19
f 13 19 20
f 13 20 14
f 14 20 21
f 14 21 15
f 15 21 16
f 16 21 20
f 16 20 22
f 16 22 17
f 17 22 23
f 17 23 24
f 17 24 25
f 17 25 26
f 17 26 27
f 17 27 28
f 17 28 18
f 18 28 29
f 18 29 30
f 18 30 31
f 18 31 32
f 18 32 33
f 18 33 19
f 19 33 22
f 19 22 20
f 34 35 36
f 34 36 31
f 34 31 30
f 34 30 37
f 34 37 35
f 35 37 38
f 35 38 39
f 35 39 40
f 35 40 41
f 35 41 36
f 36 41 42
f 36 42 43
f 36 43 31
f 31 43 32
f 32 43 42
f 32 42 44
f 32 44 45
f 32 45 33
f 33 45 46
f 33 46 47
f 33 47 48
f 33 48 22
f 22 48 49
f 22 49 50
f 22 50 51
f 22 51 52
f 22 52 23
f 23 52 24
f 24 52 53
f 24 53 54
f 24 54 25
f 25 54 55
f 25 55 56
f 25 56 26
f 26 56 57
f 26 57 58
f 26 58 27
f 27 58 59
f 27 59 28
f 28 59 60
f 28 60 29
f 29 60 61
f 29 61 56
f 29 56 55
f 29 55 30
f 30 55 62
f 30 62 37
f 37 62 63
f 37 63 38
f 38 63 64
f 38 64 65
f 38 65 66
f 38 66 39
f 39 66 40
f 40 66 67
f 40 67 41
f 41 67 68
f 41 68 42
f 42 68 44
f 44 68 67
f 44 67 45
f 45 67 69
f 45 69 46
f 46 69 70
f 46 70 71
f 46 71 72
f 46 72 47
f 47 72 48
f 48 72 73
f 48 73 49
f 49 73 74
f 49 74 75
f 49 75 76
f 49 76 50
f 50 76 77
f 50 77 78
f 50 78 51
f 51 78 79
f 51 79 80
f 51 80 52
f 52 80 81
f 52 81 75
f 52 75 82
f 52 82 53
f 53 82 83
f 53 83 84
f 53 84 85
f 53 85 54
f 54 85 86
f 54 86 87
f 54 87 88
f 54 88 55
f 55 88 89
f 55 89 90
f 55 90 91
f 55 91 92
f 55 92 62
f 62 92 93
f 62 93 63
f 63 93 94
f 63 94 64
f 64 94 95
f 64 95 96
f 64 96 65
f 65 96 97
f 65 97 66
f 66 97 98
f 66 98 99
f 66 99 100
f 66 100 67
f 67 100 70
f 67 70 69
f 88 101 89
f 89 101 90
f 90 101 102
f 90 102 103
f 90 103 104
f 90 104 91
f 91 104 105
f 91 105 92
f 92 105 106
f 92 106 93
f 93 106 107
f 93 107 108
f 93 108 109
f 93 109 94
f 94 109 110
f 94 110 111
f 111 110 112
f 112 110 113
f 112 113 114
f 112 114 115
f 115 114 116
f 115 116 117
f 115 117 96
f 115 96 95
f 102 101 118
f 102 118 119
f 102 119 120
f 102 120 103
f 103 120 121
f 103 121 105
f 103 105 104
f 119 118 122
f 119 122 123
f 119 123 124
f 119 124 120
f 120 124 110
f 120 110 121
f 73 72 71
f 73 71 125
f 73 125 74
f 74 125 117
f 74 117 116
f 74 116 126
f 74 126 75
f 75 126 127
f 75 127 128
f 75 128 82
f 82 128 129
f 82 129 130
f 82 130 88
f 82 88 131
f 82 131 132
f 82 132 83
f 98 125 71
f 98 71 99
f 99 71 100
f 100 71 70
f 127 133 128
f 128 133 129
f 129 133 134
f 129 134 130
f 130 134 135
f 130 135 122
f 130 122 118
f 130 118 101
f 130 101 88
f 133 136 134
f 134 136 137
f 134 137 135
f 135 137 138
f 135 138 122
f 122 138 123
f 123 138 139
f 123 139 124
f 124 139 110
f 110 139 113
f 113 139 140
f 113 140 141
f 141 140 142
f 141 142 143
f 141 143 144
f 141 144 116
f 141 116 145
f 145 116 114
f 98 96 117
f 98 117 125
f 96 98 97
f 121 107 106
f 121 106 105
f 143 146 144
f 144 146 126
f 144 126 116
f 142 147 143
f 143 147 133
f 143 133 127
f 143 127 146
f 146 127 126
f 108 107 121
f 136 133 147
f 136 147 142
f 136 142 137
f 137 142 140
f 137 140 138
f 138 140 139
f 81 76 75
f 76 81 148
f 76 148 77
f 77 148 149
f 77 149 150
f 77 150 78
f 78 150 151
f 78 151 79
f 79 151 152
f 79 152 153
f 79 153 80
f 80 153 81
f 81 153 148
f 148 153 154
f 148 154 149
f 149 154 155
f 149 155 156
f 149 156 150
f 150 156 157
f 150 157 151
f 151 157 158
f 151 158 152
f 152 158 159
f 152 159 154
f 152 154 153
f 160 131 88
f 160 88 87
f 161 162 163
f 161 163 164
f 161 164 165
f 161 165 166
f 161 166 167
f 161 167 162
f 162 167 168
f 166 169 167
f 169 166 170
f 169 170 171
f 171 170 165
f 165 170 166
f 172 173 174
f 172 174 175
f 172 175 176
f 172 176 177
f 172 177 178
f 172 178 173
f 173 178 179
f 177 180 178
f 180 177 181
f 180 181 182
f 182 181 176
f 176 181 177
f 183 184 185
f 183 185 186
f 183 186 187
f 183 187 188
f 183 188 189
f 183 189 184
f 184 189 190
f 188 191 189
f 191 188 192
f 191 192 193
f 193 192 187
f 187 192 188
f 58 57 194
f 58 194 195
f 58 195 59
f 59 195 196
f 59 196 60
f 60 196 197
f 60 197 61
f 61 197 198
f 61 198 57
f 61 57 56
f 57 198 194
f 194 198 199
f 194 199 200
f 194 200 195
f 195 200 201
f 195 201 196
f 196 201 202
f 196 202 197
f 197 202 203
f 197 203 198
f 198 203 199
f 199 203 204
f 199 204 205
f 199 205 200
f 200 205 206
f 200 206 201
f 201 206 207
f 201 207 202
f 202 207 208
f 202 208 203
f 203 208 204
f 204 208 209
f 204 209 205
f 205 209 206
f 206 209 207
f 207 209 208
f 154 159 155
f 155 159 210
f 155 210 211
f 155 211 156
f 156 211 212
f 156 212 157
f 157 212 213
f 157 213 158
f 158 213 214
f 158 214 159
f 159 214 210
f 210 214 215
f 210 215 211
f 211 215 212
f 212 215 213
f 213 215 214
f 216 217 218
f 216 218 219
f 216 219 220
f 216 220 217
f 221 222 223
f 221 223 224
f 221 224 225
f 221 225 226
f 221 226 227
f 221 227 222
f 228 229 230
f 228 230 231
f 228 231 232
f 232 231 233
f 232 233 234
f 234 233 235
f 234 235 236
f 236 235 237
f 236 237 238
f 238 237 239
f 238 239 229
f 229 239 230
f 240 241 242
f 240 242 243
f 240 243 244
f 244 243 245
f 244 245 246
f 246 245 247
f 246 247 248
f 248 247 249
f 248 249 250
f 250 249 251
f 250 251 241
f 241 251 242
f 252 253 254
f 252 254 255
f 252 255 256
f 256 255 257
f 256 257 258
f 258 257 259
f 258 259 260
f 260 259 261
f 260 261 262
f 262 261 263
f 262 263 253
f 253 263 254
f 264 265 266
f 264 266 267
f 264 267 268
f 268 267 269
f 268 269 270
f 270 269 271
f 270 271 272
f 272 271 273
f 272 273 274
f 274 273 275
f 274 275 265
f 265 275 266
f 276 277 278
f 276 278 279
f 276 279 280
f 280 279 281
f 280 281 282
f 282 281 283
f 282 283 284
f 284 283 285
f 284 285 286
f 286 285 287
f 286 287 277
f 277 287 278
f 288 289 290
f 291 292 293
f 294 295 296
f 297 298 299
f 300 301 302
f 303 304 305
f 306 307 308
f 309 310 311
f 312 313 314
f 315 316 317
f 318 319 320
f 321 322 323
f 324 325 326
f 327 328 329
f 330 331 332
f 333 334 335
f 336 337 338
f 339 340 341
