# RS2 Model 21870
# Vertices: 129
# Faces: 241

v 15 7 -6
v 15 -5 -6
v 10 -5 -6
v 10 8 -6
v 15 8 -1
v 17 2 -1
v 16 -5 2
v 15 -19 -6
v 5 -19 -6
v 4 -5 -6
v 5 7 -6
v 5 8 -1
v 10 10 -1
v 15 6 5
v 17 1 5
v 16 -5 7
v 10 -9 4
v 15 -17 -1
v 14 -21 -1
v 14 -23 -4
v 6 -24 -4
v 5 -21 -1
v 5 -17 -1
v 5 -5 2
v 4 -6 8
v 5 6 5
v 10 9 5
v 17 6 15
v 18 -1 14
v 17 -6 13
v 10 -11 14
v 10 -9 8
v 10 -17 1
v 9 -20 0
v 9 -22 2
v 14 -24 2
v 13 -29 0
v 7 -29 0
v 6 -24 2
v 9 13 16
v 9 10 10
v 3 8 15
v 9 8 15
v 3 -7 13
v 4 -2 14
v 9 -8 15
v 12 -27 6
v 13 -24 5
v 13 -21 8
v 12 -22 11
v 8 -22 11
v 7 -27 6
v 9 -23 4
v 10 -20 6
v 12 -16 7
v 10 -16 10
v 9 -16 10
v 8 -16 7
v 7 -21 8
v 6 -24 5
v 10 -14 7
v 10 -15 6
v 16 -2 14
v -15 7 -6
v -10 -5 -6
v -15 -5 -6
v -17 2 -1
v -15 8 -1
v -10 8 -6
v -5 7 -6
v -4 -5 -6
v -5 -19 -6
v -15 -19 -6
v -16 -5 2
v -17 1 5
v -15 6 5
v -10 10 -1
v -5 8 -1
v -5 -5 2
v -5 -17 -1
v -5 -21 -1
v -6 -24 -4
v -14 -23 -4
v -14 -21 -1
v -15 -17 -1
v -10 -9 4
v -16 -5 7
v -17 -6 13
v -18 -1 14
v -17 6 15
v -10 9 5
v -5 6 5
v -4 -6 8
v -10 -9 8
v -10 -17 1
v -9 -20 0
v -9 -22 2
v -6 -24 2
v -7 -29 0
v -13 -29 0
v -14 -24 2
v -9 13 16
v -3 8 15
v -9 10 10
v -9 8 15
v -4 -2 14
v -3 -7 13
v -10 -11 14
v -9 -8 15
v -16 -2 14
v -12 -27 6
v -12 -22 11
v -13 -21 8
v -13 -24 5
v -7 -27 6
v -8 -22 11
v -10 -16 10
v -12 -16 7
v -10 -20 6
v -9 -23 4
v -6 -24 5
v -7 -21 8
v -8 -16 7
v -9 -16 10
v -10 -14 7
v -10 -15 6
v 6 -2 -6
v -6 -2 -6
v 0 6 -6

f 1 2 3
f 1 3 4
f 1 4 5
f 1 5 6
f 1 6 2
f 2 6 7
f 2 7 8
f 2 8 3
f 3 8 9
f 3 9 10
f 3 10 11
f 3 11 4
f 4 11 12
f 4 12 13
f 4 13 5
f 5 13 14
f 5 14 15
f 5 15 6
f 6 15 7
f 7 15 16
f 7 16 17
f 7 17 18
f 7 18 8
f 8 18 19
f 8 19 20
f 8 20 21
f 8 21 9
f 9 21 22
f 9 22 23
f 9 23 24
f 9 24 10
f 10 24 11
f 11 24 12
f 12 24 25
f 12 25 26
f 12 26 13
f 13 26 27
f 13 27 14
f 14 27 28
f 14 28 15
f 15 28 29
f 15 29 30
f 15 30 16
f 16 30 31
f 16 31 32
f 16 32 17
f 17 32 24
f 17 24 33
f 17 33 18
f 18 33 19
f 19 33 34
f 19 34 35
f 19 35 36
f 19 36 20
f 20 36 37
f 20 37 38
f 20 38 21
f 21 38 39
f 21 39 22
f 22 39 35
f 22 35 34
f 22 34 23
f 23 34 33
f 23 33 24
f 40 41 42
f 40 42 43
f 40 43 28
f 40 28 41
f 41 28 27
f 41 27 26
f 41 26 42
f 42 26 25
f 42 25 44
f 42 44 45
f 42 45 43
f 25 32 31
f 25 31 44
f 44 31 46
f 44 46 45
f 47 48 49
f 47 49 50
f 47 50 51
f 47 51 52
f 47 52 37
f 47 37 36
f 47 36 48
f 48 36 35
f 48 35 53
f 48 53 54
f 48 54 49
f 49 54 55
f 49 55 56
f 49 56 50
f 50 56 51
f 51 56 57
f 51 57 58
f 51 58 59
f 51 59 52
f 52 59 60
f 52 60 39
f 52 39 38
f 52 38 37
f 60 53 35
f 60 35 39
f 61 56 55
f 61 55 62
f 61 62 58
f 61 58 57
f 61 57 56
f 62 54 59
f 62 59 58
f 32 25 24
f 30 29 63
f 30 63 46
f 30 46 31
f 54 62 55
f 54 53 60
f 54 60 59
f 28 43 63
f 28 63 29
f 64 65 66
f 64 66 67
f 64 67 68
f 64 68 69
f 64 69 65
f 65 69 70
f 65 70 71
f 65 71 72
f 65 72 73
f 65 73 66
f 66 73 74
f 66 74 67
f 67 74 75
f 67 75 68
f 68 75 76
f 68 76 77
f 68 77 69
f 69 77 78
f 69 78 70
f 70 78 79
f 70 79 71
f 71 79 72
f 72 79 80
f 72 80 81
f 72 81 82
f 72 82 73
f 73 82 83
f 73 83 84
f 73 84 85
f 73 85 74
f 74 85 86
f 74 86 87
f 74 87 75
f 75 87 88
f 75 88 89
f 75 89 90
f 75 90 76
f 76 90 91
f 76 91 77
f 77 91 92
f 77 92 78
f 78 92 93
f 78 93 79
f 79 93 94
f 79 94 86
f 79 86 95
f 79 95 80
f 80 95 96
f 80 96 81
f 81 96 97
f 81 97 98
f 81 98 82
f 82 98 99
f 82 99 83
f 83 99 100
f 83 100 101
f 83 101 84
f 84 101 97
f 84 97 96
f 84 96 95
f 84 95 85
f 85 95 86
f 102 103 104
f 102 104 90
f 102 90 105
f 102 105 103
f 103 105 106
f 103 106 107
f 103 107 93
f 103 93 92
f 103 92 104
f 104 92 91
f 104 91 90
f 86 94 87
f 87 94 108
f 87 108 88
f 88 108 109
f 88 109 110
f 88 110 89
f 89 110 90
f 90 110 105
f 93 107 108
f 93 108 94
f 111 112 113
f 111 113 114
f 111 114 101
f 111 101 100
f 111 100 115
f 111 115 116
f 111 116 112
f 112 116 117
f 112 117 113
f 113 117 118
f 113 118 119
f 113 119 114
f 114 119 120
f 114 120 97
f 114 97 101
f 121 98 97
f 121 97 120
f 121 120 119
f 121 119 122
f 121 122 115
f 121 115 98
f 98 115 99
f 99 115 100
f 122 116 115
f 116 122 123
f 116 123 124
f 116 124 117
f 117 124 125
f 117 125 118
f 118 125 126
f 118 126 119
f 119 126 122
f 122 126 123
f 123 126 125
f 123 125 124
f 109 108 107
f 109 107 106
f 127 128 129
