# RS2 Model 21899
# Vertices: 84
# Faces: 152

v -15 4 147
v -18 -1 157
v -20 -1 150
v -21 -2 145
v -15 5 145
v -19 11 149
v -17 11 154
v -15 11 157
v -22 4 160
v -14 4 163
v -15 -2 157
v -25 4 154
v -27 4 147
v -21 -1 143
v -16 4 143
v -21 10 143
v -20 12 145
v -19 4 122
v -20 4 129
v -24 0 130
v -25 -1 123
v -26 -2 118
v -19 4 117
v -25 11 123
v -24 10 130
v -23 10 137
v -18 4 135
v -22 -1 137
v -28 4 130
v -31 4 124
v -33 4 119
v -27 -2 112
v -20 4 111
v -26 12 118
v -26 4 137
v -25 4 144
v -30 4 115
v -34 4 113
v -27 13 112
v -26 10 115
v -23 4 114
v -26 0 115
v 15 4 147
v 20 -1 150
v 18 -1 157
v 15 -2 157
v 14 4 163
v 22 4 160
v 15 11 157
v 17 11 154
v 19 11 149
v 15 5 145
v 21 -2 145
v 27 4 147
v 25 4 154
v 20 12 145
v 21 10 143
v 16 4 143
v 21 -1 143
v 25 4 144
v 23 10 137
v 18 4 135
v 22 -1 137
v 26 4 137
v 28 4 130
v 24 10 130
v 20 4 129
v 24 0 130
v 19 4 122
v 25 -1 123
v 25 11 123
v 19 4 117
v 26 -2 118
v 31 4 124
v 33 4 119
v 26 12 118
v 20 4 111
v 27 -2 112
v 34 4 113
v 27 13 112
v 23 4 114
v 26 0 115
v 30 4 115
v 26 10 115

f 1 2 3
f 1 3 4
f 1 4 5
f 1 5 6
f 1 6 7
f 1 7 8
f 8 7 9
f 8 9 10
f 10 9 2
f 10 2 11
f 11 2 1
f 3 9 12
f 3 12 13
f 3 13 4
f 4 13 14
f 4 14 15
f 4 15 5
f 5 15 16
f 5 16 17
f 5 17 6
f 6 17 13
f 6 13 12
f 6 12 7
f 7 12 9
f 3 2 9
f 18 19 20
f 18 20 21
f 18 21 22
f 18 22 23
f 18 23 24
f 18 24 19
f 19 24 25
f 19 25 26
f 19 26 27
f 19 27 28
f 19 28 20
f 20 28 29
f 20 29 21
f 21 29 30
f 21 30 22
f 22 30 31
f 22 31 32
f 22 32 23
f 23 32 33
f 23 33 34
f 23 34 24
f 24 34 30
f 24 30 29
f 24 29 25
f 25 29 26
f 26 29 35
f 26 35 36
f 26 36 16
f 26 16 27
f 27 16 15
f 27 15 14
f 27 14 28
f 28 14 36
f 28 36 35
f 28 35 29
f 37 38 39
f 37 39 40
f 40 39 41
f 41 39 33
f 41 33 42
f 42 33 32
f 42 32 37
f 37 32 38
f 38 32 31
f 38 31 34
f 38 34 39
f 39 34 33
f 13 36 14
f 36 13 17
f 36 17 16
f 30 34 31
f 43 44 45
f 43 45 46
f 46 45 47
f 47 45 48
f 47 48 49
f 49 48 50
f 49 50 43
f 43 50 51
f 43 51 52
f 43 52 53
f 43 53 44
f 44 53 54
f 44 54 55
f 44 55 48
f 44 48 45
f 50 48 55
f 50 55 51
f 51 55 54
f 51 54 56
f 51 56 52
f 52 56 57
f 52 57 58
f 52 58 53
f 53 58 59
f 53 59 54
f 54 59 60
f 54 60 56
f 56 60 57
f 57 60 61
f 57 61 62
f 57 62 58
f 58 62 59
f 59 62 63
f 59 63 60
f 60 63 64
f 60 64 61
f 61 64 65
f 61 65 66
f 61 66 67
f 61 67 62
f 62 67 63
f 63 67 68
f 63 68 65
f 63 65 64
f 69 70 68
f 69 68 67
f 69 67 71
f 69 71 72
f 69 72 73
f 69 73 70
f 70 73 74
f 70 74 65
f 70 65 68
f 65 74 71
f 65 71 66
f 66 71 67
f 74 73 75
f 74 75 76
f 74 76 71
f 71 76 72
f 72 76 77
f 72 77 78
f 72 78 73
f 73 78 75
f 75 78 79
f 75 79 76
f 76 79 80
f 76 80 77
f 77 80 81
f 77 81 82
f 77 82 78
f 78 82 83
f 78 83 79
f 79 83 80
f 80 83 84
f 80 84 81
