# RS2 Model 21954
# Vertices: 64
# Faces: 122

v -2 -5 8
v -2 -1 0
v 16 -1 0
v 16 -5 8
v 5 3 11
v -4 -1 10
v -4 3 2
v 5 7 4
v 14 3 2
v 20 6 5
v 25 5 4
v 25 2 9
v 14 -1 10
v 5 9 17
v -3 7 13
v -3 10 6
v -6 25 12
v -11 25 19
v -4 17 19
v -4 20 13
v 10 22 11
v 6 19 13
v 10 17 23
v 5 14 9
v -16 -23 11
v -16 -19 4
v 2 -19 4
v 2 -23 11
v -9 -15 15
v -18 -18 14
v -18 -14 6
v -9 -11 9
v 0 -14 6
v 6 -12 10
v 11 -14 9
v 11 -16 14
v 0 -18 14
v -9 -3 11
v -9 -7 18
v -17 -11 17
v -17 -8 11
v -6 19 24
v 6 17 18
v 6 -15 15
v 7 -11 17
v 7 -8 12
v 8 -5 15
v 8 -7 18
v -4 6 13
v -20 8 15
v -25 8 22
v -18 0 22
v -18 3 16
v -8 2 16
v -4 0 24
v -20 3 25
v -8 -1 21
v 20 3 11
v 22 11 13
v 21 7 12
v 21 10 7
v 22 13 10
v 14 8 9
v 0 -11 14

f 1 2 3
f 1 3 4
f 1 4 5
f 1 5 6
f 1 6 2
f 2 6 7
f 2 7 8
f 2 8 3
f 3 8 9
f 3 9 10
f 3 10 11
f 3 11 4
f 4 11 12
f 4 12 13
f 4 13 5
f 5 13 9
f 5 9 8
f 5 8 14
f 5 14 6
f 6 14 15
f 6 15 7
f 7 15 16
f 16 15 17
f 16 17 15
f 15 17 18
f 15 18 17
f 17 18 19
f 17 19 20
f 17 20 21
f 21 20 22
f 21 22 23
f 21 23 24
f 24 23 14
f 24 14 8
f 25 26 27
f 25 27 28
f 25 28 29
f 25 29 30
f 25 30 31
f 25 31 26
f 26 31 32
f 26 32 27
f 27 32 33
f 27 33 34
f 27 34 35
f 27 35 28
f 28 35 36
f 28 36 37
f 28 37 29
f 29 37 32
f 29 32 38
f 29 38 39
f 29 39 30
f 30 39 40
f 30 40 41
f 30 41 31
f 24 16 7
f 24 7 8
f 14 23 42
f 14 42 15
f 15 42 18
f 15 18 42
f 24 17 16
f 17 24 21
f 22 43 23
f 23 43 42
f 42 43 19
f 42 19 18
f 32 37 33
f 33 37 44
f 33 44 34
f 34 44 45
f 34 45 46
f 34 46 35
f 35 46 47
f 35 47 36
f 36 47 48
f 36 48 44
f 36 44 37
f 38 41 31
f 38 31 32
f 38 49 50
f 38 50 41
f 41 50 51
f 41 51 50
f 50 51 52
f 50 52 53
f 50 53 49
f 49 53 54
f 49 54 55
f 49 55 39
f 49 39 38
f 39 56 40
f 40 56 41
f 40 41 56
f 56 41 51
f 56 51 41
f 51 56 52
f 52 56 57
f 57 56 55
f 57 55 54
f 56 39 55
f 58 10 9
f 58 9 13
f 58 13 12
f 58 12 59
f 58 59 60
f 58 60 10
f 10 60 61
f 10 61 11
f 11 61 62
f 11 62 12
f 12 62 59
f 59 62 63
f 59 63 60
f 60 63 61
f 61 63 62
f 48 45 44
f 45 48 64
f 45 64 46
f 46 64 47
f 47 64 48
