# RS2 Model 21991
# Vertices: 295
# Faces: 470

v -102 -58 42
v -122 -58 42
v -122 -58 22
v -102 -58 22
v -102 -38 42
v -102 -38 44
v -102 -58 44
v -122 -58 44
v -122 -38 42
v -122 -38 22
v -122 -38 20
v -122 -58 20
v -102 -58 20
v -102 -38 22
v -122 -38 44
v -122 -38 64
v -102 -38 64
v -102 -58 64
v -122 -58 64
v -102 -38 20
v -102 -38 0
v -122 -38 0
v -122 -58 0
v -102 -58 0
v -122 -58 66
v -122 -38 66
v -102 -38 66
v -102 -58 66
v -102 -58 86
v -122 -58 86
v -122 -38 86
v -102 -38 86
v 102 -38 42
v 122 -38 42
v 122 -38 22
v 102 -38 22
v 102 -58 42
v 102 -58 44
v 102 -38 44
v 122 -38 44
v 122 -58 42
v 122 -58 22
v 122 -58 20
v 122 -38 20
v 102 -38 20
v 102 -58 22
v 122 -58 44
v 122 -58 64
v 102 -58 64
v 102 -38 64
v 122 -38 64
v 102 -58 20
v 102 -58 0
v 122 -58 0
v 122 -38 0
v 102 -38 0
v 122 -38 66
v 122 -58 66
v 102 -58 66
v 102 -38 66
v 102 -38 86
v 122 -38 86
v 122 -58 86
v 102 -58 86
v 102 22 42
v 122 22 42
v 122 22 22
v 102 22 22
v 102 2 42
v 102 2 44
v 102 22 44
v 122 22 44
v 122 2 42
v 122 2 22
v 122 2 20
v 122 22 20
v 102 22 20
v 102 2 22
v 122 2 44
v 122 2 64
v 102 2 64
v 102 22 64
v 122 22 64
v 102 2 20
v 102 2 0
v 122 2 0
v 122 22 0
v 102 22 0
v 122 22 66
v 122 2 66
v 102 2 66
v 102 22 66
v 102 22 86
v 122 22 86
v 122 2 86
v 102 2 86
v -5 -24 98
v -9 -24 98
v -10 -25 96
v -5 -25 96
v 7 -17 96
v 6 -16 98
v -10 -20 98
v -11 -20 96
v 17 -4 96
v 16 -3 98
v 20 6 96
v 19 7 98
v 20 11 98
v 26 9 98
v 27 9 96
v 21 12 96
v 17 17 98
v 16 10 98
v -5 -7 98
v -6 -6 96
v 7 5 98
v 6 5 96
v 15 10 96
v 17 18 96
v -102 2 42
v -122 2 42
v -122 2 22
v -102 2 22
v -102 22 42
v -102 22 44
v -102 2 44
v -122 2 44
v -122 22 42
v -122 22 22
v -122 22 20
v -122 2 20
v -102 2 20
v -102 22 22
v -122 22 44
v -122 22 64
v -102 22 64
v -102 2 64
v -122 2 64
v -102 22 20
v -102 22 0
v -122 22 0
v -122 2 0
v -102 2 0
v -122 2 66
v -122 22 66
v -102 22 66
v -102 2 66
v -102 2 86
v -122 2 86
v -122 22 86
v -102 22 86
v 128 -64 96
v -128 -64 96
v -128 -64 88
v 128 -64 88
v 128 28 96
v 122 22 96
v 122 -58 96
v -122 -58 96
v -128 28 96
v -128 28 88
v 128 28 88
v -122 22 96
v -16 -5 123
v -18 -5 123
v -18 -5 110
v -16 -5 110
v -16 -1 123
v -18 -1 123
v -18 -1 110
v -19 0 110
v -19 -6 110
v -15 -6 110
v -16 -1 110
v -15 0 110
v -15 0 109
v -19 0 109
v -19 -6 109
v -15 -6 109
v -17 -1 96
v -18 -1 109
v -16 -1 109
v -17 -3 96
v -18 -5 109
v -16 -5 109
v -64 -41 98
v -86 -38 98
v -86 -39 96
v -64 -42 96
v -42 -38 96
v -42 -37 98
v -64 -15 98
v -86 -18 98
v -100 -24 98
v -103 -28 98
v -100 -32 98
v -101 -33 96
v -104 -28 96
v -101 -23 96
v -86 -17 96
v -64 -14 96
v -42 -19 98
v -42 -18 96
v -30 -25 98
v -30 -24 96
v -21 -20 98
v -20 -19 96
v -23 -28 96
v -24 -28 98
v -20 -37 96
v -21 -36 98
v -30 -31 98
v -30 -32 96
v 21 -26 97
v 21 -26 99
v 31 -18 99
v 31 -18 97
v 23 -29 97
v 23 -29 99
v 33 -21 99
v 34 -22 100
v 30 -17 100
v 30 -17 96
v 33 -21 97
v 34 -22 96
v 35 -21 96
v 35 -21 100
v 31 -16 100
v 31 -16 96
v 51 -8 98
v 34 -20 99
v 34 -20 97
v 32 -17 97
v 32 -17 99
v 90 -6 97
v 87 -12 97
v 87 -12 96
v 90 -6 96
v 90 5 96
v 90 5 97
v 82 -6 97
v 85 -12 97
v 85 -12 96
v 82 -6 96
v 82 5 97
v 82 5 96
v 85 13 97
v 85 13 96
v 82 16 97
v 82 16 96
v 90 16 96
v 90 16 97
v 87 13 97
v 87 13 96
v 45 -41 97
v 41 -37 97
v 41 -37 96
v 45 -41 96
v 56 -44 96
v 56 -44 97
v 48 -34 97
v 40 -35 97
v 40 -35 96
v 48 -34 96
v 58 -37 97
v 58 -37 96
v 65 -42 97
v 65 -42 96
v 68 -40 97
v 68 -40 96
v 66 -47 96
v 66 -47 97
v 65 -43 97
v 65 -43 96
v 71 -23 97
v 67 -19 97
v 67 -19 96
v 71 -23 96
v 82 -26 96
v 82 -26 97
v 74 -16 97
v 66 -17 97
v 66 -17 96
v 74 -16 96
v 84 -19 97
v 84 -19 96
v 91 -24 97
v 91 -24 96
v 94 -22 97
v 94 -22 96
v 92 -29 96
v 92 -29 97
v 91 -25 97
v 91 -25 96

f 1 2 3
f 1 3 4
f 1 4 5
f 1 5 6
f 1 6 7
f 1 7 2
f 2 7 8
f 2 8 9
f 2 9 10
f 2 10 3
f 3 10 11
f 3 11 12
f 3 12 4
f 4 12 13
f 4 13 14
f 4 14 5
f 5 14 9
f 5 9 15
f 5 15 6
f 6 15 16
f 6 16 17
f 6 17 7
f 7 17 18
f 7 18 8
f 8 18 19
f 8 19 15
f 8 15 9
f 9 14 10
f 10 14 20
f 10 20 11
f 11 20 21
f 11 21 22
f 11 22 12
f 12 22 23
f 12 23 13
f 13 23 24
f 13 24 20
f 13 20 14
f 20 24 21
f 19 16 15
f 16 19 25
f 16 25 26
f 16 26 17
f 17 26 27
f 17 27 18
f 18 27 28
f 18 28 19
f 19 28 25
f 25 28 29
f 25 29 30
f 25 30 26
f 26 30 31
f 26 31 27
f 27 31 32
f 27 32 28
f 28 32 29
f 33 34 35
f 33 35 36
f 33 36 37
f 33 37 38
f 33 38 39
f 33 39 34
f 34 39 40
f 34 40 41
f 34 41 42
f 34 42 35
f 35 42 43
f 35 43 44
f 35 44 36
f 36 44 45
f 36 45 46
f 36 46 37
f 37 46 41
f 37 41 47
f 37 47 38
f 38 47 48
f 38 48 49
f 38 49 39
f 39 49 50
f 39 50 40
f 40 50 51
f 40 51 47
f 40 47 41
f 41 46 42
f 42 46 52
f 42 52 43
f 43 52 53
f 43 53 54
f 43 54 44
f 44 54 55
f 44 55 45
f 45 55 56
f 45 56 52
f 45 52 46
f 52 56 53
f 51 48 47
f 48 51 57
f 48 57 58
f 48 58 49
f 49 58 59
f 49 59 50
f 50 59 60
f 50 60 51
f 51 60 57
f 57 60 61
f 57 61 62
f 57 62 58
f 58 62 63
f 58 63 59
f 59 63 64
f 59 64 60
f 60 64 61
f 65 66 67
f 65 67 68
f 65 68 69
f 65 69 70
f 65 70 71
f 65 71 66
f 66 71 72
f 66 72 73
f 66 73 74
f 66 74 67
f 67 74 75
f 67 75 76
f 67 76 68
f 68 76 77
f 68 77 78
f 68 78 69
f 69 78 73
f 69 73 79
f 69 79 70
f 70 79 80
f 70 80 81
f 70 81 71
f 71 81 82
f 71 82 72
f 72 82 83
f 72 83 79
f 72 79 73
f 73 78 74
f 74 78 84
f 74 84 75
f 75 84 85
f 75 85 86
f 75 86 76
f 76 86 87
f 76 87 77
f 77 87 88
f 77 88 84
f 77 84 78
f 84 88 85
f 83 80 79
f 80 83 89
f 80 89 90
f 80 90 81
f 81 90 91
f 81 91 82
f 82 91 92
f 82 92 83
f 83 92 89
f 89 92 93
f 89 93 94
f 89 94 90
f 90 94 95
f 90 95 91
f 91 95 96
f 91 96 92
f 92 96 93
f 97 98 99
f 97 99 100
f 97 100 101
f 97 101 102
f 97 102 98
f 98 102 103
f 98 103 104
f 98 104 99
f 105 106 102
f 105 102 101
f 107 108 106
f 107 106 105
f 109 110 111
f 109 111 112
f 109 112 113
f 109 113 114
f 109 114 108
f 109 108 110
f 110 108 111
f 111 108 107
f 103 102 115
f 103 115 104
f 104 115 116
f 116 115 117
f 116 117 118
f 118 117 114
f 118 114 119
f 119 114 113
f 119 113 120
f 120 113 112
f 106 117 115
f 106 115 102
f 108 114 117
f 108 117 106
f 121 122 123
f 121 123 124
f 121 124 125
f 121 125 126
f 121 126 127
f 121 127 122
f 122 127 128
f 122 128 129
f 122 129 130
f 122 130 123
f 123 130 131
f 123 131 132
f 123 132 124
f 124 132 133
f 124 133 134
f 124 134 125
f 125 134 129
f 125 129 135
f 125 135 126
f 126 135 136
f 126 136 137
f 126 137 127
f 127 137 138
f 127 138 128
f 128 138 139
f 128 139 135
f 128 135 129
f 129 134 130
f 130 134 140
f 130 140 131
f 131 140 141
f 131 141 142
f 131 142 132
f 132 142 143
f 132 143 133
f 133 143 144
f 133 144 140
f 133 140 134
f 140 144 141
f 139 136 135
f 136 139 145
f 136 145 146
f 136 146 137
f 137 146 147
f 137 147 138
f 138 147 148
f 138 148 139
f 139 148 145
f 145 148 149
f 145 149 150
f 145 150 146
f 146 150 151
f 146 151 147
f 147 151 152
f 147 152 148
f 148 152 149
f 153 154 155
f 153 155 156
f 153 156 157
f 153 157 158
f 153 158 159
f 153 159 154
f 154 159 160
f 154 160 161
f 154 161 162
f 154 162 155
f 161 157 163
f 161 163 162
f 157 156 163
f 161 160 164
f 161 164 157
f 157 164 158
f 158 164 159
f 159 164 160
f 165 166 167
f 165 167 168
f 165 168 169
f 165 169 166
f 166 169 170
f 166 170 171
f 166 171 167
f 167 171 172
f 167 172 173
f 167 173 168
f 168 173 174
f 168 174 175
f 168 175 169
f 169 175 170
f 170 175 171
f 171 175 176
f 171 176 172
f 172 176 177
f 172 177 178
f 172 178 173
f 173 178 179
f 173 179 174
f 174 179 180
f 174 180 176
f 174 176 175
f 181 182 183
f 181 183 184
f 181 184 185
f 181 185 182
f 184 183 186
f 184 186 185
f 180 177 176
f 187 188 189
f 187 189 190
f 187 190 191
f 187 191 192
f 187 192 193
f 187 193 188
f 188 193 194
f 188 194 195
f 188 195 196
f 188 196 197
f 188 197 189
f 189 197 198
f 198 197 199
f 199 197 196
f 199 196 200
f 200 196 195
f 200 195 194
f 200 194 201
f 201 194 202
f 202 194 193
f 202 193 203
f 202 203 204
f 204 203 205
f 204 205 206
f 206 205 207
f 206 207 208
f 208 207 209
f 209 207 210
f 209 210 211
f 211 210 212
f 211 212 213
f 211 213 214
f 214 213 192
f 214 192 191
f 212 210 213
f 213 210 205
f 213 205 203
f 213 203 192
f 192 203 193
f 210 207 205
f 215 216 217
f 215 217 218
f 215 218 219
f 215 219 216
f 216 219 220
f 216 220 221
f 216 221 217
f 217 221 222
f 217 222 223
f 217 223 218
f 218 223 224
f 218 224 225
f 218 225 219
f 219 225 220
f 220 225 221
f 221 225 226
f 221 226 222
f 222 226 227
f 222 227 228
f 222 228 223
f 223 228 229
f 223 229 224
f 224 229 230
f 224 230 226
f 224 226 225
f 231 232 233
f 231 233 234
f 231 234 235
f 231 235 232
f 232 235 229
f 232 229 228
f 232 228 233
f 233 228 227
f 233 227 234
f 234 227 230
f 234 230 235
f 235 230 229
f 230 227 226
f 236 237 238
f 236 238 239
f 236 239 240
f 236 240 241
f 236 241 242
f 236 242 237
f 237 242 243
f 237 243 244
f 237 244 238
f 243 242 245
f 243 245 244
f 241 246 242
f 242 246 245
f 245 246 247
f 247 246 248
f 247 248 249
f 249 248 250
f 249 250 251
f 251 250 252
f 252 250 253
f 252 253 254
f 252 254 255
f 255 254 241
f 255 241 240
f 254 248 246
f 254 246 241
f 253 250 248
f 253 248 254
f 256 257 258
f 256 258 259
f 256 259 260
f 256 260 261
f 256 261 262
f 256 262 257
f 257 262 263
f 257 263 264
f 257 264 258
f 263 262 265
f 263 265 264
f 261 266 262
f 262 266 265
f 265 266 267
f 267 266 268
f 267 268 269
f 269 268 270
f 269 270 271
f 271 270 272
f 272 270 273
f 272 273 274
f 272 274 275
f 275 274 261
f 275 261 260
f 274 268 266
f 274 266 261
f 273 270 268
f 273 268 274
f 276 277 278
f 276 278 279
f 276 279 280
f 276 280 281
f 276 281 282
f 276 282 277
f 277 282 283
f 277 283 284
f 277 284 278
f 283 282 285
f 283 285 284
f 281 286 282
f 282 286 285
f 285 286 287
f 287 286 288
f 287 288 289
f 289 288 290
f 289 290 291
f 291 290 292
f 292 290 293
f 292 293 294
f 292 294 295
f 295 294 281
f 295 281 280
f 294 288 286
f 294 286 281
f 293 290 288
f 293 288 294
