# RS2 Model 21999
# Vertices: 278
# Faces: 476

v 11 -11 64
v 2 -11 64
v 2 -11 38
v 11 -11 38
v 11 -2 64
v 11 -2 38
v 2 -2 64
v 2 -2 38
v 0 0 38
v 0 -13 38
v 13 -13 38
v 13 0 38
v 13 0 0
v 0 0 0
v 0 -13 0
v 13 -13 0
v 0 98 -97
v 0 98 -98
v 0 22 -98
v 0 22 -97
v 0 98 -68
v -79 41 -97
v -79 41 -68
v 0 22 -68
v -18 10 -97
v -18 10 -68
v -79 41 -41
v -79 -41 -68
v -79 -41 -41
v -56 6 -41
v -56 17 -41
v -62 32 -41
v -62 32 -68
v -56 17 -68
v -56 6 -68
v -44 22 -41
v -44 22 -68
v -18 10 -41
v -18 -10 -68
v -18 -10 -41
v -79 -41 -12
v 0 -99 -41
v 0 -99 -12
v 0 0 -12
v -18 -10 -12
v 0 0 -41
v 19 10 0
v 0 22 0
v 19 0 0
v 19 0 -14
v 19 10 -14
v 0 22 -14
v -18 10 0
v -18 -10 0
v -18 -10 -14
v 0 0 -14
v 0 -113 0
v 57 -85 0
v 85 -56 0
v 113 0 0
v 113 0 -14
v -18 10 -14
v -18 10 -28
v -18 -10 -28
v -18 10 -42
v -18 -10 -42
v -18 10 -56
v -18 -10 -56
v -18 10 -69
v -18 -10 -69
v -18 10 -98
v -18 -10 -98
v 0 22 -28
v 0 22 -42
v 0 22 -56
v 0 22 -69
v 19 10 -28
v 19 10 -42
v 19 10 -56
v 19 10 -69
v 19 10 -98
v 19 0 -28
v 19 0 -42
v 19 0 -56
v 19 0 -69
v 19 0 -98
v -56 92 -98
v 0 113 -98
v 0 113 -84
v -56 92 -84
v -93 55 -98
v 0 0 -98
v 113 0 -98
v 94 55 -98
v 57 92 -98
v 57 92 -84
v 57 92 -69
v 0 113 -69
v -56 92 -69
v -93 55 -84
v -112 0 -98
v 0 -113 -98
v 0 -113 -84
v 0 0 -84
v 0 -113 -69
v 0 0 -69
v 0 -113 -56
v 0 0 -56
v 0 -113 -42
v 0 0 -42
v 0 -113 -28
v 0 0 -28
v 0 -113 -14
v -56 -93 0
v -55 -95 20
v -1 -114 20
v 1 -114 20
v 56 -87 20
v 60 -84 20
v 86 -57 20
v 87 -55 20
v 114 -1 20
v 114 1 20
v 94 55 0
v 94 55 -14
v 94 55 -28
v 113 0 -28
v -112 0 -84
v -93 -56 -98
v -56 -93 -98
v -56 -93 -84
v -56 -93 -69
v -56 -93 -56
v -56 -93 -42
v -56 -93 -28
v -56 -93 -14
v -93 -56 0
v -92 -59 20
v -57 -94 20
v -55 -138 20
v -1 -136 20
v 1 -136 20
v 56 -138 20
v 58 -138 20
v 58 -86 20
v 133 -84 20
v 135 -57 20
v 135 -55 20
v 136 -1 20
v 136 1 20
v 95 54 20
v 93 58 20
v 57 92 0
v 57 92 -14
v 57 92 -28
v 57 92 -42
v 94 55 -42
v 113 0 -42
v 113 0 -84
v 94 55 -84
v 94 55 -69
v 94 55 -56
v 57 92 -56
v 0 113 -56
v -56 92 -56
v -93 55 -69
v -112 0 -69
v -93 -56 -84
v -93 -56 -69
v -93 -56 -56
v -93 -56 -42
v -93 -56 -28
v -93 -56 -14
v -112 0 0
v -113 -1 20
v -94 -55 20
v -94 -57 20
v -92 -135 20
v -57 -138 20
v -56 -139 0
v 0 -137 0
v 57 -139 0
v 132 -141 20
v 133 -86 20
v 134 -85 0
v 136 -56 0
v 137 0 0
v 134 54 20
v 134 56 20
v 95 56 20
v 93 128 20
v 60 129 20
v 58 93 20
v 56 94 20
v 0 113 0
v 0 113 -14
v 0 113 -28
v 0 113 -42
v 113 0 -56
v 113 0 -69
v -112 0 -56
v -112 0 -42
v -112 0 -28
v -112 0 -14
v -93 55 0
v -95 54 20
v -113 1 20
v -130 -1 20
v -133 -55 20
v -133 -57 20
v -94 -135 20
v -93 -136 0
v -93 55 -56
v -93 55 -42
v -93 55 -28
v -93 55 -14
v -56 92 0
v -59 91 20
v -94 56 20
v -130 54 20
v -130 1 20
v -131 0 0
v -134 -56 0
v -131 -135 20
v -132 -136 0
v -56 92 -42
v -56 92 -28
v -56 92 -14
v -1 114 20
v -55 93 20
v -57 93 20
v -130 91 20
v -130 56 20
v -131 55 0
v 139 130 20
v 135 55 0
v 140 131 0
v 95 128 20
v 94 129 0
v 59 130 0
v 58 129 20
v 1 130 20
v 1 114 20
v -1 130 20
v -55 128 20
v -57 128 20
v -130 93 20
v -131 92 0
v 0 131 0
v 133 -142 0
v -128 126 20
v -56 129 0
v -129 127 0
v 19 0 -84
v 94 -11 80
v 85 -11 80
v 85 -11 48
v 94 -11 48
v 94 -2 80
v 94 -2 48
v 85 -2 80
v 85 -2 48
v 83 0 48
v 83 -13 48
v 96 -13 48
v 96 0 48
v 96 0 0
v 83 0 0
v 83 -13 0
v 96 -13 0
v 99 -16 85
v -3 -16 67
v -3 -16 62
v 99 -16 80
v 99 4 85
v -3 4 67
v -3 4 62
v 99 4 80

f 1 2 3
f 1 3 4
f 1 4 5
f 5 4 6
f 5 6 7
f 7 6 8
f 7 8 2
f 2 8 3
f 3 8 9
f 3 9 10
f 3 10 4
f 4 10 11
f 4 11 6
f 6 11 12
f 6 12 8
f 8 12 9
f 9 12 13
f 9 13 14
f 9 14 10
f 10 14 15
f 10 15 11
f 11 15 16
f 11 16 12
f 12 16 13
f 17 18 19
f 17 19 20
f 21 17 22
f 21 22 23
f 21 23 24
f 21 24 17
f 17 24 20
f 23 22 25
f 23 25 26
f 23 26 24
f 27 23 28
f 27 28 29
f 27 29 30
f 27 30 31
f 27 31 32
f 27 32 23
f 23 32 33
f 33 32 31
f 33 31 34
f 34 31 30
f 34 30 35
f 35 30 36
f 35 36 37
f 37 36 38
f 37 38 26
f 29 28 39
f 29 39 40
f 29 40 30
f 30 40 36
f 36 40 38
f 41 29 42
f 41 42 43
f 41 43 44
f 41 44 45
f 41 45 29
f 29 45 40
f 46 44 43
f 46 43 42
f 47 48 49
f 47 49 50
f 47 50 51
f 47 51 48
f 48 51 52
f 48 52 53
f 48 53 14
f 48 14 49
f 53 54 14
f 14 54 55
f 14 55 56
f 14 56 57
f 14 57 58
f 14 58 59
f 14 59 60
f 14 60 61
f 14 61 56
f 54 53 62
f 54 62 55
f 55 62 63
f 55 63 64
f 64 63 65
f 64 65 66
f 66 65 67
f 66 67 68
f 68 67 69
f 68 69 70
f 70 69 71
f 70 71 72
f 53 52 62
f 62 52 73
f 62 73 63
f 63 73 74
f 63 74 65
f 65 74 75
f 65 75 67
f 67 75 76
f 67 76 69
f 69 76 19
f 69 19 71
f 52 51 77
f 52 77 73
f 73 77 78
f 73 78 74
f 74 78 79
f 74 79 75
f 75 79 80
f 75 80 76
f 76 80 81
f 76 81 19
f 51 50 82
f 51 82 77
f 77 82 83
f 77 83 78
f 78 83 84
f 78 84 79
f 79 84 85
f 79 85 80
f 80 85 86
f 80 86 81
f 87 88 89
f 87 89 90
f 87 90 91
f 87 91 92
f 87 92 88
f 88 92 93
f 88 93 94
f 88 94 95
f 88 95 96
f 88 96 89
f 89 96 97
f 89 97 98
f 89 98 90
f 90 98 99
f 90 99 100
f 90 100 91
f 91 100 101
f 91 101 102
f 91 102 92
f 92 102 103
f 92 103 104
f 104 103 105
f 104 105 106
f 106 105 107
f 106 107 108
f 108 107 109
f 108 109 110
f 110 109 111
f 110 111 112
f 112 111 113
f 112 113 56
f 56 113 57
f 57 113 114
f 57 114 115
f 57 115 116
f 57 116 117
f 57 117 58
f 58 117 118
f 58 118 119
f 58 119 59
f 59 119 120
f 59 120 121
f 59 121 60
f 60 121 122
f 60 122 123
f 60 123 124
f 60 124 125
f 60 125 61
f 61 125 126
f 61 126 127
f 61 127 82
f 61 82 50
f 101 100 128
f 101 128 129
f 101 129 102
f 102 129 130
f 102 130 131
f 102 131 103
f 103 131 132
f 103 132 105
f 105 132 133
f 105 133 107
f 107 133 134
f 107 134 109
f 109 134 135
f 109 135 111
f 111 135 136
f 111 136 113
f 113 136 114
f 114 136 137
f 114 137 138
f 114 138 139
f 114 139 115
f 115 139 140
f 115 140 141
f 115 141 116
f 116 141 142
f 116 142 117
f 117 142 118
f 118 142 143
f 118 143 144
f 118 144 145
f 118 145 119
f 119 145 146
f 119 146 147
f 119 147 120
f 120 147 148
f 120 148 121
f 121 148 149
f 121 149 122
f 122 149 150
f 122 150 123
f 123 150 151
f 123 151 124
f 124 151 152
f 124 152 153
f 124 153 154
f 124 154 125
f 125 154 155
f 125 155 126
f 126 155 156
f 126 156 157
f 126 157 127
f 127 157 158
f 127 158 83
f 127 83 82
f 94 93 159
f 94 159 160
f 94 160 95
f 95 160 96
f 96 160 161
f 96 161 97
f 97 161 162
f 97 162 163
f 97 163 98
f 98 163 164
f 98 164 99
f 99 164 165
f 99 165 166
f 99 166 100
f 100 166 128
f 128 166 167
f 128 167 168
f 128 168 129
f 129 168 130
f 130 168 131
f 131 168 169
f 131 169 132
f 132 169 170
f 132 170 133
f 133 170 171
f 133 171 134
f 134 171 172
f 134 172 135
f 135 172 173
f 135 173 136
f 136 173 137
f 137 173 174
f 137 174 175
f 137 175 176
f 137 176 138
f 138 176 177
f 138 177 178
f 138 178 179
f 138 179 139
f 139 179 140
f 140 179 180
f 140 180 141
f 141 180 181
f 141 181 142
f 142 181 143
f 143 181 182
f 143 182 144
f 144 182 183
f 144 183 184
f 144 184 145
f 145 184 146
f 146 184 185
f 146 185 147
f 147 185 186
f 147 186 148
f 148 186 149
f 149 186 187
f 149 187 150
f 150 187 188
f 150 188 151
f 151 188 189
f 151 189 190
f 151 190 152
f 152 190 191
f 152 191 192
f 152 192 193
f 152 193 153
f 153 193 194
f 153 194 195
f 153 195 196
f 153 196 154
f 154 196 197
f 154 197 155
f 155 197 198
f 155 198 156
f 156 198 164
f 156 164 163
f 156 163 157
f 157 163 162
f 157 162 158
f 158 162 199
f 158 199 84
f 158 84 83
f 160 159 200
f 160 200 161
f 161 200 199
f 161 199 162
f 168 167 169
f 169 167 201
f 169 201 170
f 170 201 202
f 170 202 171
f 171 202 203
f 171 203 172
f 172 203 204
f 172 204 173
f 173 204 174
f 174 204 205
f 174 205 206
f 174 206 207
f 174 207 175
f 175 207 208
f 175 208 176
f 176 208 209
f 176 209 210
f 176 210 177
f 177 210 211
f 177 211 178
f 178 211 212
f 178 212 179
f 179 212 180
f 166 165 213
f 166 213 167
f 167 213 201
f 201 213 214
f 201 214 202
f 202 214 215
f 202 215 203
f 203 215 216
f 203 216 204
f 204 216 205
f 205 216 217
f 205 217 218
f 205 218 219
f 205 219 206
f 206 219 220
f 206 220 221
f 206 221 207
f 207 221 208
f 208 221 222
f 208 222 209
f 209 222 223
f 209 223 210
f 210 223 224
f 210 224 211
f 211 224 225
f 211 225 212
f 165 164 198
f 165 198 226
f 165 226 213
f 213 226 214
f 214 226 227
f 214 227 215
f 215 227 228
f 215 228 216
f 216 228 217
f 217 228 195
f 217 195 229
f 217 229 230
f 217 230 218
f 218 230 231
f 218 231 232
f 218 232 233
f 218 233 219
f 219 233 220
f 220 233 234
f 220 234 221
f 221 234 222
f 226 198 197
f 226 197 227
f 227 197 196
f 227 196 228
f 228 196 195
f 235 189 236
f 235 236 237
f 235 237 238
f 235 238 189
f 189 238 190
f 190 238 191
f 191 238 239
f 191 239 192
f 192 239 240
f 192 240 241
f 192 241 193
f 193 241 194
f 194 241 242
f 194 242 243
f 194 243 195
f 195 243 229
f 229 243 244
f 229 244 230
f 230 244 245
f 230 245 246
f 230 246 231
f 231 246 247
f 231 247 232
f 232 247 248
f 232 248 233
f 233 248 234
f 238 237 239
f 188 187 236
f 188 236 189
f 242 241 240
f 242 240 249
f 242 249 244
f 242 244 243
f 224 223 225
f 183 182 250
f 183 250 184
f 184 250 185
f 251 246 252
f 251 252 253
f 251 253 247
f 251 247 246
f 247 253 248
f 245 244 249
f 245 249 252
f 245 252 246
f 159 93 86
f 159 86 254
f 159 254 200
f 200 254 85
f 200 85 199
f 199 85 84
f 255 256 257
f 255 257 258
f 255 258 259
f 259 258 260
f 259 260 261
f 261 260 262
f 261 262 256
f 256 262 257
f 257 262 263
f 257 263 264
f 257 264 258
f 258 264 265
f 258 265 260
f 260 265 266
f 260 266 262
f 262 266 263
f 263 266 267
f 263 267 268
f 263 268 264
f 264 268 269
f 264 269 265
f 265 269 270
f 265 270 266
f 266 270 267
f 271 272 273
f 271 273 274
f 271 274 275
f 271 275 272
f 272 275 276
f 272 276 277
f 272 277 273
f 276 275 278
f 276 278 277
f 275 274 278
