# RS2 Model 22059
# Vertices: 171
# Faces: 236

v -6 64 85
v -6 44 85
v 9 46 112
v 7 64 123
v 9 50 162
v 8 64 169
v -5 52 220
v -6 64 214
v -5 50 240
v -3 64 240
v 64 64 240
v -4 27 240
v -3 8 240
v 64 -64 240
v 64 -64 -160
v 64 64 -160
v -18 23 78
v 14 27 120
v 2 22 174
v -15 31 213
v -14 8 85
v -3 6 123
v -5 6 169
v -19 4 214
v -14 -6 85
v -8 -36 92
v -1 -29 129
v -3 -6 123
v -20 -6 123
v -23 -6 85
v -8 -7 57
v 0 -31 60
v -15 -47 92
v 7 -48 131
v -5 -53 157
v -3 -29 161
v -3 -8 169
v -20 -7 169
v -19 5 123
v -23 8 85
v -23 8 57
v -23 -7 57
v -23 -7 33
v -3 -7 33
v -15 -17 33
v -13 -23 33
v -10 -28 32
v -6 -47 64
v -6 -64 85
v 7 -64 123
v 8 -64 169
v -6 -64 214
v -23 -40 222
v -17 -19 220
v -13 -9 214
v -21 -9 214
v -20 4 169
v -8 8 57
v -23 8 33
v -23 5 36
v -23 5 52
v -23 -5 52
v -23 -5 36
v -23 8 17
v -23 -7 17
v -3 -7 17
v -25 -18 17
v -33 -26 17
v -29 -35 20
v -14 -38 38
v -1 -64 54
v -1 -28 240
v -3 -7 240
v -23 -7 240
v -22 4 214
v -5 -47 240
v -23 8 240
v -3 -64 240
v -1 64 54
v -1 47 58
v -14 28 51
v -25 31 31
v -19 20 33
v -11 12 33
v -3 8 33
v -3 8 17
v -3 8 0
v -23 8 0
v -23 -7 0
v -3 -7 0
v -27 -12 0
v -41 -26 0
v -40 -35 0
v -36 -48 20
v -13 -64 35
v -13 64 27
v -13 44 27
v -30 50 12
v -43 37 10
v -36 25 17
v -29 16 17
v -30 12 0
v -30 64 14
v -38 64 0
v -39 51 0
v -50 37 0
v -46 23 0
v -46 -47 0
v -33 -54 0
v -24 -56 15
v -4 -64 28
v -5 -64 12
v -12 -64 0
v -50 -5 17
v -38 -5 17
v -50 5 17
v -64 5 0
v -64 -5 0
v -52 -5 0
v -38 5 17
v -52 5 0
v -29 -9 147
v -29 11 150
v -29 11 139
v -29 -9 136
v -29 -34 139
v -29 -34 151
v -22 -9 148
v -22 13 152
v -22 11 139
v -22 -34 151
v -29 -54 152
v -22 -54 152
v -29 -64 152
v -22 -64 152
v -29 -54 141
v -29 -64 139
v -29 -11 196
v -29 9 195
v -29 9 184
v -29 -11 185
v -29 -34 184
v -29 -34 196
v -22 -11 197
v -22 11 197
v -22 9 184
v -22 -34 196
v -29 -54 197
v -22 -54 197
v -29 -64 197
v -22 -64 197
v -29 -54 186
v -29 -64 184
v -42 5 201
v -13 13 209
v -31 3 169
v 65 64 240
v -81 64 240
v 65 -64 240
v -60 -31 78
v -85 -29 -27
v 44 -81 54
v -42 28 240
v -42 -27 240
v 16 28 240
v -47 6 156
v -9 16 166
v -35 3 119
v 30 -66 244
v 22 64 244
v -32 -66 -4

f 1 2 3
f 1 3 4
f 4 3 5
f 4 5 6
f 6 5 7
f 6 7 8
f 8 7 9
f 8 9 10
f 10 9 11
f 11 9 12
f 11 12 13
f 11 13 14
f 11 14 15
f 11 15 16
f 2 17 18
f 2 18 3
f 3 18 19
f 3 19 5
f 5 19 20
f 5 20 7
f 7 20 12
f 7 12 9
f 17 21 22
f 17 22 18
f 18 22 23
f 18 23 19
f 19 23 24
f 19 24 20
f 20 24 13
f 20 13 12
f 25 26 27
f 25 27 28
f 25 28 29
f 25 29 30
f 25 30 31
f 25 31 26
f 26 31 32
f 26 32 33
f 26 33 34
f 26 34 27
f 27 34 35
f 27 35 36
f 27 36 28
f 28 36 37
f 28 37 29
f 29 37 38
f 29 38 39
f 29 39 40
f 29 40 30
f 30 40 41
f 30 41 42
f 30 42 31
f 31 42 43
f 31 43 44
f 31 44 45
f 31 45 46
f 31 46 32
f 32 46 47
f 32 47 48
f 32 48 33
f 33 48 49
f 33 49 50
f 33 50 34
f 34 50 51
f 34 51 35
f 35 51 52
f 35 52 53
f 35 53 36
f 36 53 54
f 36 54 37
f 37 54 55
f 37 55 56
f 37 56 38
f 38 56 57
f 38 57 39
f 39 57 23
f 39 23 22
f 39 22 21
f 39 21 40
f 40 21 41
f 41 21 58
f 41 58 59
f 41 59 60
f 41 60 61
f 41 61 42
f 42 61 62
f 42 62 43
f 43 62 63
f 43 63 59
f 43 59 64
f 43 64 65
f 43 65 44
f 44 65 66
f 44 66 45
f 45 66 67
f 45 67 68
f 45 68 46
f 46 68 47
f 47 68 69
f 47 69 70
f 47 70 48
f 48 70 71
f 48 71 49
f 55 54 72
f 55 72 73
f 55 73 74
f 55 74 56
f 56 74 75
f 56 75 57
f 57 75 24
f 57 24 23
f 54 53 76
f 54 76 72
f 72 76 14
f 72 14 73
f 73 14 13
f 73 13 77
f 73 77 74
f 74 77 75
f 75 77 13
f 75 13 24
f 53 52 78
f 53 78 76
f 76 78 14
f 2 1 79
f 2 79 80
f 2 80 17
f 17 80 81
f 17 81 21
f 21 81 58
f 58 81 82
f 58 82 83
f 58 83 84
f 58 84 85
f 58 85 59
f 59 85 86
f 59 86 64
f 64 86 87
f 64 87 88
f 64 88 65
f 65 88 89
f 65 89 66
f 66 89 90
f 66 90 67
f 67 90 91
f 67 91 92
f 67 92 68
f 68 92 69
f 69 92 93
f 69 93 94
f 69 94 70
f 70 94 95
f 70 95 71
f 80 79 96
f 80 96 97
f 80 97 81
f 81 97 82
f 82 97 98
f 82 98 99
f 82 99 83
f 83 99 100
f 83 100 101
f 83 101 84
f 84 101 85
f 85 101 86
f 86 101 102
f 86 102 87
f 97 96 103
f 97 103 98
f 98 103 104
f 98 104 105
f 98 105 99
f 99 105 106
f 99 106 100
f 100 106 107
f 100 107 102
f 100 102 101
f 94 93 108
f 94 108 109
f 94 109 110
f 94 110 95
f 95 110 111
f 111 110 112
f 112 110 113
f 113 110 109
f 114 115 63
f 114 63 62
f 114 62 116
f 114 116 117
f 114 117 118
f 114 118 115
f 115 118 119
f 116 62 61
f 116 61 120
f 116 120 121
f 116 121 117
f 120 61 60
f 63 60 59
f 122 123 124
f 122 124 125
f 122 125 126
f 122 126 127
f 122 127 128
f 122 128 123
f 123 128 129
f 123 129 130
f 123 130 124
f 128 127 131
f 131 127 132
f 131 132 133
f 133 132 134
f 133 134 135
f 127 126 136
f 127 136 132
f 132 136 137
f 132 137 134
f 138 139 140
f 138 140 141
f 138 141 142
f 138 142 143
f 138 143 144
f 138 144 139
f 139 144 145
f 139 145 146
f 139 146 140
f 144 143 147
f 147 143 148
f 147 148 149
f 149 148 150
f 149 150 151
f 143 142 152
f 143 152 148
f 148 152 153
f 148 153 150
f 154 155 156
f 157 158 159
