# RS2 Model 22051
# Vertices: 20
# Faces: 34

v 3 -2 72
v 0 22 58
v -13 10 0
v -14 -13 0
v 27 -4 65
v 30 4 99
v 7 7 102
v 9 33 95
v 23 21 48
v 11 13 0
v 14 -16 0
v 31 30 91
v 42 42 153
v 49 16 177
v 20 16 171
v 19 42 157
v 29 56 240
v 53 59 240
v 56 30 240
v 28 33 240

f 1 2 3
f 1 3 4
f 1 4 5
f 1 5 6
f 1 6 7
f 1 7 2
f 2 7 8
f 2 8 9
f 2 9 10
f 2 10 3
f 9 5 11
f 9 11 10
f 5 4 11
f 5 9 12
f 5 12 6
f 6 12 13
f 6 13 14
f 6 14 7
f 7 14 15
f 7 15 8
f 8 15 16
f 8 16 12
f 8 12 9
f 12 16 13
f 13 16 17
f 13 17 18
f 13 18 14
f 14 18 19
f 14 19 15
f 15 19 20
f 15 20 16
f 16 20 17
f 17 20 19
f 17 19 18
