# RS2 Model 22069
# Vertices: 104
# Faces: 176

v -63 -64 240
v -63 0 240
v -64 0 240
v -64 -64 240
v -63 -64 203
v -33 -64 192
v -33 -64 240
v -33 0 240
v -63 0 203
v -64 0 203
v -64 -64 203
v -63 -64 64
v -63 0 64
v -64 0 64
v -64 -64 64
v -63 -64 27
v -33 -64 16
v -33 -64 64
v -33 0 64
v -63 0 27
v -64 0 27
v -64 -64 27
v -33 0 192
v -31 0 192
v -31 -64 192
v -31 -64 240
v -31 0 240
v -2 0 240
v -2 0 176
v -2 -64 176
v -2 -64 240
v 0 -64 240
v 0 0 240
v 0 0 176
v 0 2 240
v 0 2 176
v 0 31 240
v 0 31 192
v 64 2 176
v 64 31 192
v 64 2 240
v 64 0 240
v 64 0 176
v 64 -64 176
v 64 -64 240
v 0 -64 176
v -33 0 16
v -31 0 16
v -31 -64 16
v -31 -64 64
v -31 0 64
v -2 0 64
v -2 0 0
v -2 -64 0
v -2 -64 64
v 0 -64 64
v 0 0 64
v 0 0 0
v 0 2 64
v 0 2 0
v 0 31 64
v 0 31 16
v 64 2 0
v 64 31 16
v 64 2 64
v 64 0 64
v 64 0 0
v 64 -64 0
v 64 -64 64
v 0 -64 0
v 64 63 64
v 0 63 64
v 0 32 64
v 64 32 64
v 64 63 27
v 64 64 27
v 64 64 64
v 0 64 64
v 0 63 27
v 0 32 16
v 64 31 64
v 64 32 16
v 0 64 27
v 64 63 240
v 0 63 240
v 0 32 240
v 64 32 240
v 64 63 203
v 64 64 203
v 64 64 240
v 0 64 240
v 0 63 203
v 0 32 192
v 64 31 240
v 64 32 192
v 0 64 203
v 56 -56 176
v 8 -56 176
v 8 -56 64
v 56 -56 64
v 56 -8 176
v 8 -8 176
v 8 -8 64
v 56 -8 64

f 1 2 3
f 1 3 4
f 1 4 5
f 1 5 6
f 1 6 7
f 1 7 2
f 2 7 8
f 2 8 9
f 2 9 10
f 2 10 3
f 9 5 11
f 9 11 10
f 5 4 11
f 12 13 14
f 12 14 15
f 12 15 16
f 12 16 17
f 12 17 18
f 12 18 13
f 13 18 19
f 13 19 20
f 13 20 21
f 13 21 14
f 20 16 22
f 20 22 21
f 16 15 22
f 9 8 23
f 9 23 5
f 5 23 6
f 6 23 24
f 6 24 25
f 6 25 7
f 7 25 26
f 7 26 8
f 8 26 27
f 8 27 23
f 23 27 24
f 24 27 28
f 24 28 29
f 24 29 25
f 25 29 30
f 25 30 26
f 26 30 31
f 26 31 27
f 27 31 28
f 28 31 32
f 28 32 33
f 28 33 29
f 29 33 34
f 34 33 35
f 34 35 36
f 36 35 37
f 36 37 38
f 36 38 39
f 39 38 40
f 39 40 41
f 39 41 42
f 39 42 43
f 43 42 44
f 44 42 45
f 44 45 46
f 46 45 32
f 46 32 31
f 46 31 30
f 20 19 47
f 20 47 16
f 16 47 17
f 17 47 48
f 17 48 49
f 17 49 18
f 18 49 50
f 18 50 19
f 19 50 51
f 19 51 47
f 47 51 48
f 48 51 52
f 48 52 53
f 48 53 49
f 49 53 54
f 49 54 50
f 50 54 55
f 50 55 51
f 51 55 52
f 52 55 56
f 52 56 57
f 52 57 53
f 53 57 58
f 58 57 59
f 58 59 60
f 60 59 61
f 60 61 62
f 60 62 63
f 63 62 64
f 63 64 65
f 63 65 66
f 63 66 67
f 67 66 68
f 68 66 69
f 68 69 70
f 70 69 56
f 70 56 55
f 70 55 54
f 71 72 73
f 71 73 74
f 71 74 75
f 71 75 76
f 71 76 77
f 71 77 72
f 72 77 78
f 72 78 79
f 72 79 80
f 72 80 73
f 73 80 62
f 73 62 61
f 73 61 74
f 74 61 81
f 74 81 82
f 74 82 75
f 75 82 79
f 75 79 83
f 75 83 76
f 79 82 80
f 79 78 83
f 84 85 86
f 84 86 87
f 84 87 88
f 84 88 89
f 84 89 90
f 84 90 85
f 85 90 91
f 85 91 92
f 85 92 93
f 85 93 86
f 86 93 38
f 86 38 37
f 86 37 87
f 87 37 94
f 87 94 95
f 87 95 88
f 88 95 92
f 88 92 96
f 88 96 89
f 92 95 93
f 92 91 96
f 97 98 99
f 97 99 100
f 97 100 101
f 97 101 98
f 98 101 102
f 98 102 103
f 98 103 99
f 99 103 57
f 99 57 56
f 99 56 100
f 100 56 69
f 100 69 104
f 100 104 101
f 101 104 102
f 102 104 103
f 103 104 66
f 103 66 57
f 57 66 65
f 57 65 59
f 59 65 81
f 59 81 61
f 69 66 104
f 64 81 65
f 81 64 82
f 94 37 35
f 94 35 41
f 94 41 40
f 94 40 95
f 33 42 41
f 33 41 35
f 42 33 32
f 42 32 45
