# RS2 Model 22079
# Vertices: 67
# Faces: 62

v -62 38 0
v -48 24 0
v -43 29 29
v -57 40 28
v -42 61 0
v -46 57 29
v -25 46 0
v -28 44 34
v -33 42 42
v -49 26 42
v -60 36 42
v -49 52 42
v -52 35 42
v -58 23 83
v -52 32 42
v -55 32 42
v -55 35 42
v -49 32 42
v -49 17 83
v -48 29 42
v -51 29 42
v -51 32 42
v -42 47 42
v -20 70 65
v -42 44 42
v -45 44 42
v -45 47 42
v -39 40 42
v -13 57 74
v -38 38 42
v -41 37 42
v -42 40 42
v -47 48 42
v -39 67 100
v -47 45 42
v -50 44 42
v -50 47 42
v -44 36 42
v -33 30 83
v -44 33 42
v -47 33 42
v -47 36 42
v -55 38 42
v -69 31 94
v -55 36 42
v -57 35 42
v -58 38 42
v -50 45 42
v -51 62 102
v -50 42 42
v -53 42 42
v -53 45 42
v -44 44 42
v -24 71 73
v -44 41 42
v -46 41 42
v -47 43 42
v -51 39 42
v -61 53 87
v -50 36 42
v -53 36 42
v -53 38 42
v -46 40 42
v -34 47 97
v -45 37 42
v -48 37 42
v -49 40 42

f 1 2 3
f 1 3 4
f 1 4 5
f 5 4 6
f 5 6 7
f 7 6 8
f 7 8 2
f 2 8 3
f 3 8 9
f 3 9 10
f 3 10 4
f 4 10 11
f 4 11 6
f 6 11 12
f 6 12 8
f 8 12 9
f 9 12 11
f 9 11 10
f 13 14 15
f 15 14 16
f 16 14 17
f 17 14 13
f 18 19 20
f 20 19 21
f 21 19 22
f 22 19 18
f 23 24 25
f 25 24 26
f 26 24 27
f 27 24 23
f 28 29 30
f 30 29 31
f 31 29 32
f 32 29 28
f 33 34 35
f 35 34 36
f 36 34 37
f 37 34 33
f 38 39 40
f 40 39 41
f 41 39 42
f 42 39 38
f 43 44 45
f 45 44 46
f 46 44 47
f 47 44 43
f 48 49 50
f 50 49 51
f 51 49 52
f 52 49 48
f 53 54 55
f 55 54 56
f 56 54 57
f 57 54 53
f 58 59 60
f 60 59 61
f 61 59 62
f 62 59 58
f 63 64 65
f 65 64 66
f 66 64 67
f 67 64 63
