# RS2 Model 22103
# Vertices: 236
# Faces: 412

v -49 64 -6
v -45 64 -6
v -45 64 -8
v -49 64 -8
v -49 52 -6
v -45 52 -6
v -45 51 -8
v -50 52 -8
v -51 48 -2
v -50 48 -1
v -46 48 -1
v -45 47 -2
v 17 56 -8
v 16 52 -2
v 45 61 -8
v 45 57 -2
v 46 62 -6
v 47 64 -8
v 47 64 -6
v 51 64 -8
v 51 64 -6
v 51 60 -8
v 50 61 -6
v 50 57 -1
v 51 56 -2
v 64 60 -8
v 64 56 -2
v 64 45 -2
v 64 41 -8
v 50 41 -8
v 50 45 -2
v 49 45 -1
v 49 40 -6
v 50 37 -6
v 51 34 -8
v 51 30 -2
v 64 35 -8
v 64 31 -2
v 64 14 -8
v 64 19 -2
v 52 13 -8
v 52 18 -2
v 51 12 -6
v 50 6 -6
v 51 4 -8
v 50 1 -1
v 51 0 -2
v 64 4 -8
v 64 0 -2
v 64 -17 -8
v 64 -12 -2
v 52 -17 -8
v 52 -12 -2
v 51 -13 -1
v 51 -19 -6
v 52 -29 -6
v 53 -31 -8
v 53 -35 -2
v 64 -31 -8
v 64 -35 -2
v 64 -46 -2
v 64 -50 -8
v 53 -50 -8
v 53 -46 -2
v 52 -51 -6
v 51 -64 -8
v 51 -64 -6
v 47 -64 -8
v 47 -64 -6
v 47 -50 -8
v 48 -51 -6
v 48 -47 -1
v 47 -46 -2
v -26 -55 -6
v -25 -51 -2
v -47 -60 -8
v -47 -56 -2
v -48 -61 -6
v -45 -64 -8
v -45 -64 -6
v -49 -64 -8
v -49 -64 -6
v -53 -60 -8
v -52 -61 -6
v -52 -57 -1
v -53 -56 -2
v -64 -60 -8
v -64 -56 -2
v -64 -45 -2
v -64 -41 -8
v -53 -41 -8
v -53 -45 -2
v -52 -44 -1
v -52 -39 -6
v -53 -36 -6
v -54 -33 -8
v -54 -29 -2
v -64 -35 -8
v -64 -31 -2
v -64 -14 -8
v -64 -19 -2
v -55 -12 -8
v -55 -17 -2
v -54 -11 -6
v -52 -4 -6
v -53 -2 -8
v -52 1 -1
v -53 2 -2
v -64 -4 -8
v -64 1 -2
v -64 17 -8
v -64 12 -2
v -54 19 -8
v -54 14 -2
v -53 15 -1
v -53 21 -6
v -52 31 -6
v -52 33 -8
v -52 37 -2
v -64 31 -8
v -64 35 -2
v -64 46 -2
v -64 50 -8
v -64 40 0
v -51 42 0
v -50 42 1
v -47 41 1
v -46 41 0
v 15 46 0
v 45 51 0
v 46 51 1
v 46 58 -1
v -48 -33 -8
v 22 -21 -8
v 23 -16 -2
v -48 -29 -2
v -49 -30 -1
v -49 -36 -6
v -48 -39 -6
v -47 -41 -8
v -47 -45 -2
v -23 -37 -8
v -24 -41 -2
v 47 -31 -8
v 47 -35 -2
v 48 -34 -1
v 48 -29 -6
v 47 -20 -6
v 46 -18 -8
v 46 -13 -2
v 46 -8 0
v 22 -12 0
v -48 -23 0
v -49 -23 1
v -53 -30 -1
v -48 -44 -1
v -47 -50 0
v -24 -45 0
v 47 -40 0
v 48 -40 1
v 52 -34 -1
v 47 -14 -1
v 47 -8 1
v 45 -1 -2
v 23 -5 -2
v -49 -17 -2
v -50 -16 -1
v -53 -23 1
v -54 -23 0
v 24 -1 -8
v -49 -12 -8
v -50 -11 -6
v -54 -16 -1
v -64 -25 0
v 64 -7 0
v 51 -7 0
v 50 -7 1
v 46 0 -1
v 46 4 -6
v 45 3 -8
v 45 34 -8
v -23 26 -8
v -24 21 -2
v 45 30 -2
v 46 31 -1
v 46 37 -6
v 45 40 -6
v 44 42 -8
v 44 46 -2
v 14 38 -8
v 15 42 -2
v -46 32 -8
v -46 36 -2
v -47 35 -1
v -48 30 -6
v -49 22 -6
v -48 20 -8
v -48 15 -2
v -48 10 0
v -23 17 0
v 45 24 0
v 46 24 1
v 50 31 -1
v 45 45 -1
v -51 36 -1
v -49 16 -1
v -49 10 1
v -47 3 -2
v -24 10 -2
v 46 18 -2
v 47 17 -1
v 50 24 1
v 51 24 0
v -25 6 -8
v 46 13 -8
v 47 12 -6
v 51 17 -1
v 64 25 0
v -64 7 0
v -53 9 0
v -52 9 1
v -48 2 -1
v -48 -2 -6
v -47 -1 -8
v 64 50 0
v 50 50 0
v 50 51 1
v 52 -40 1
v 53 -40 0
v 64 -40 0
v 52 -47 -1
v -64 -50 0
v -53 -50 0
v -52 -50 1
v -48 -50 1
v -48 -57 -1

f 1 2 3
f 1 3 4
f 1 4 5
f 1 5 2
f 2 5 6
f 2 6 7
f 2 7 3
f 5 4 8
f 5 8 9
f 5 9 10
f 5 10 6
f 6 10 11
f 6 11 7
f 7 11 12
f 7 12 13
f 13 12 14
f 13 14 15
f 15 14 16
f 15 16 17
f 15 17 18
f 18 17 19
f 18 19 20
f 20 19 21
f 20 21 22
f 22 21 23
f 22 23 24
f 22 24 25
f 22 25 26
f 26 25 27
f 26 27 28
f 26 28 29
f 29 28 30
f 30 28 31
f 30 31 32
f 30 32 33
f 30 33 34
f 30 34 35
f 35 34 36
f 35 36 37
f 37 36 38
f 37 38 39
f 39 38 40
f 39 40 41
f 41 40 42
f 41 42 43
f 41 43 44
f 41 44 45
f 45 44 46
f 45 46 47
f 45 47 48
f 48 47 49
f 48 49 50
f 50 49 51
f 50 51 52
f 52 51 53
f 52 53 54
f 52 54 55
f 52 55 56
f 52 56 57
f 57 56 58
f 57 58 59
f 59 58 60
f 59 60 61
f 59 61 62
f 62 61 63
f 63 61 64
f 63 64 65
f 63 65 66
f 66 65 67
f 66 67 68
f 68 67 69
f 68 69 70
f 70 69 71
f 70 71 72
f 70 72 73
f 70 73 74
f 74 73 75
f 74 75 76
f 76 75 77
f 76 77 78
f 76 78 79
f 79 78 80
f 79 80 81
f 81 80 82
f 81 82 83
f 83 82 84
f 83 84 85
f 83 85 86
f 83 86 87
f 87 86 88
f 87 88 89
f 87 89 90
f 90 89 91
f 91 89 92
f 91 92 93
f 91 93 94
f 91 94 95
f 91 95 96
f 96 95 97
f 96 97 98
f 98 97 99
f 98 99 100
f 100 99 101
f 100 101 102
f 102 101 103
f 102 103 104
f 102 104 105
f 102 105 106
f 106 105 107
f 106 107 108
f 106 108 109
f 109 108 110
f 109 110 111
f 111 110 112
f 111 112 113
f 113 112 114
f 113 114 115
f 113 115 116
f 113 116 117
f 113 117 118
f 118 117 119
f 118 119 120
f 120 119 121
f 120 121 122
f 120 122 123
f 123 122 8
f 8 122 9
f 9 122 124
f 9 124 125
f 9 125 126
f 9 126 10
f 10 126 11
f 11 126 127
f 11 127 128
f 11 128 12
f 12 128 14
f 14 128 129
f 14 129 16
f 16 129 130
f 16 130 131
f 16 131 132
f 16 132 17
f 17 132 23
f 17 23 21
f 17 21 19
f 133 134 135
f 133 135 136
f 133 136 137
f 133 137 138
f 133 138 139
f 133 139 140
f 140 139 141
f 140 141 142
f 142 141 143
f 142 143 144
f 144 143 145
f 144 145 146
f 144 146 147
f 144 147 148
f 144 148 149
f 149 148 150
f 149 150 134
f 134 150 135
f 135 150 151
f 135 151 152
f 135 152 136
f 136 152 153
f 136 153 154
f 136 154 137
f 137 154 155
f 137 155 95
f 137 95 138
f 138 95 94
f 138 94 139
f 139 94 93
f 139 93 156
f 139 156 141
f 141 156 157
f 141 157 143
f 143 157 158
f 143 158 145
f 145 158 159
f 145 159 160
f 145 160 146
f 146 160 161
f 146 161 56
f 146 56 147
f 147 56 55
f 147 55 148
f 148 55 54
f 148 54 162
f 148 162 150
f 150 162 151
f 151 162 163
f 151 163 164
f 151 164 152
f 152 164 165
f 152 165 153
f 153 165 166
f 153 166 167
f 153 167 154
f 154 167 168
f 154 168 155
f 155 168 169
f 155 169 97
f 155 97 95
f 166 165 170
f 166 170 171
f 166 171 167
f 167 171 172
f 167 172 173
f 167 173 168
f 168 173 103
f 168 103 169
f 169 103 174
f 169 174 99
f 169 99 97
f 174 103 101
f 174 101 99
f 172 104 173
f 173 104 103
f 53 51 175
f 53 175 176
f 53 176 177
f 53 177 54
f 54 177 162
f 162 177 163
f 163 177 46
f 163 46 178
f 163 178 164
f 164 178 179
f 164 179 180
f 164 180 165
f 165 180 170
f 176 175 49
f 176 49 47
f 176 47 46
f 176 46 177
f 44 179 178
f 44 178 46
f 49 175 51
f 181 182 183
f 181 183 184
f 181 184 185
f 181 185 186
f 181 186 187
f 181 187 188
f 188 187 189
f 188 189 190
f 190 189 191
f 190 191 192
f 192 191 193
f 192 193 194
f 192 194 195
f 192 195 196
f 192 196 197
f 197 196 198
f 197 198 182
f 182 198 183
f 183 198 199
f 183 199 200
f 183 200 184
f 184 200 201
f 184 201 202
f 184 202 185
f 185 202 203
f 185 203 34
f 185 34 186
f 186 34 33
f 186 33 187
f 187 33 32
f 187 32 204
f 187 204 189
f 189 204 130
f 189 130 191
f 191 130 129
f 191 129 193
f 193 129 128
f 193 128 127
f 193 127 194
f 194 127 205
f 194 205 117
f 194 117 195
f 195 117 116
f 195 116 196
f 196 116 115
f 196 115 206
f 196 206 198
f 198 206 199
f 199 206 207
f 199 207 208
f 199 208 200
f 200 208 209
f 200 209 201
f 201 209 210
f 201 210 211
f 201 211 202
f 202 211 212
f 202 212 203
f 203 212 213
f 203 213 36
f 203 36 34
f 210 209 214
f 210 214 215
f 210 215 211
f 211 215 216
f 211 216 217
f 211 217 212
f 212 217 42
f 212 42 213
f 213 42 218
f 213 218 38
f 213 38 36
f 218 42 40
f 218 40 38
f 216 43 217
f 217 43 42
f 114 112 219
f 114 219 220
f 114 220 221
f 114 221 115
f 115 221 206
f 206 221 207
f 207 221 107
f 207 107 222
f 207 222 208
f 208 222 223
f 208 223 224
f 208 224 209
f 209 224 214
f 220 219 110
f 220 110 108
f 220 108 107
f 220 107 221
f 105 223 222
f 105 222 107
f 110 219 112
f 121 119 125
f 121 125 124
f 121 124 122
f 205 127 126
f 205 126 125
f 205 125 119
f 205 119 117
f 31 28 225
f 31 225 226
f 31 226 227
f 31 227 32
f 32 227 204
f 204 227 131
f 204 131 130
f 226 225 27
f 226 27 25
f 226 25 24
f 226 24 227
f 227 24 131
f 131 24 132
f 132 24 23
f 27 225 28
f 159 158 75
f 159 75 73
f 159 73 72
f 159 72 160
f 160 72 228
f 160 228 161
f 161 228 229
f 161 229 58
f 161 58 56
f 60 58 229
f 60 229 230
f 60 230 61
f 61 230 64
f 64 230 229
f 64 229 228
f 64 228 231
f 64 231 65
f 65 231 71
f 65 71 69
f 65 69 67
f 71 231 72
f 72 231 228
f 92 89 232
f 92 232 233
f 92 233 234
f 92 234 93
f 93 234 156
f 156 234 235
f 156 235 157
f 157 235 77
f 157 77 158
f 158 77 75
f 233 232 88
f 233 88 86
f 233 86 85
f 233 85 234
f 234 85 235
f 235 85 236
f 235 236 77
f 77 236 78
f 78 236 84
f 78 84 82
f 78 82 80
f 84 236 85
f 88 232 89
f 180 179 216
f 180 216 215
f 224 223 172
f 224 172 171
f 43 216 179
f 43 179 44
f 223 105 104
f 223 104 172
