# RS2 Model 22161
# Vertices: 270
# Faces: 450

v -135 102 27
v -121 104 26
v -130 101 16
v -147 100 10
v -157 100 27
v -152 102 38
v -143 103 38
v -139 103 44
v -124 104 49
v -117 104 40
v -113 101 38
v -118 101 25
v -128 100 14
v -148 97 8
v -163 98 14
v -169 99 36
v -154 102 43
v -152 106 43
v -150 106 40
v -145 107 40
v -143 107 44
v -145 102 49
v -147 102 67
v -129 103 70
v -119 104 59
v -116 101 61
v -178 96 44
v -173 96 63
v -163 99 55
v -175 96 29
v -177 93 25
v -181 92 47
v -175 93 65
v -163 97 72
v -152 102 48
v -151 106 47
v -147 108 44
v -147 106 48
v -126 100 72
v -140 101 73
v -137 99 76
v -165 95 12
v -150 100 75
v -151 96 78
v -166 94 72
v -22 113 30
v -11 113 21
v -19 112 12
v -28 111 23
v -32 112 41
v -9 113 53
v -1 114 42
v -6 114 34
v -4 114 31
v 3 114 30
v 10 113 16
v -6 112 6
v -8 109 4
v -21 109 10
v -30 109 21
v -34 109 42
v -26 112 56
v -10 111 66
v 5 111 67
v 14 113 51
v 6 114 40
v 5 118 39
v 0 118 40
v -3 118 35
v -2 118 33
v 3 118 33
v 8 114 35
v 24 113 35
v 30 112 25
v 25 112 15
v 13 112 6
v 15 109 4
v 24 111 60
v 6 118 37
v 2 120 36
v 27 109 13
v 32 109 23
v -28 109 58
v -14 108 69
v 9 108 70
v 26 108 62
v 31 111 49
v 33 112 36
v 36 108 37
v 32 108 52
v 136 104 46
v 146 103 30
v 139 103 19
v 129 104 29
v 122 106 46
v 125 106 62
v 147 103 68
v 154 103 53
v 150 103 50
v 150 103 42
v 157 102 38
v 162 100 23
v 153 101 16
v 151 98 13
v 137 101 17
v 126 102 27
v 120 104 47
v 122 103 63
v 140 102 74
v 153 100 78
v 166 100 63
v 160 102 51
v 159 106 50
v 156 107 51
v 153 107 49
v 153 107 44
v 157 106 42
v 163 101 44
v 174 98 41
v 181 96 29
v 171 98 19
v 173 95 17
v 173 96 74
v 160 106 46
v 157 108 47
v 184 93 28
v 185 95 40
v 187 92 38
v 134 100 76
v 157 96 81
v 175 93 76
v 182 95 64
v 186 95 51
v 188 91 53
v 181 92 67
v -141 -103 23
v -131 -102 16
v -122 -105 26
v -131 -104 57
v -144 -104 38
v -158 -101 27
v -164 -99 14
v -148 -101 10
v -149 -98 8
v -129 -101 14
v -119 -102 25
v -118 -105 40
v -120 -105 59
v -130 -104 70
v -150 -102 66
v -148 -103 50
v -140 -104 44
v -146 -108 40
v -153 -103 38
v -170 -100 36
v -176 -97 29
v -178 -94 25
v -166 -96 12
v -174 -97 63
v -179 -97 44
v -164 -100 55
v -164 -98 72
v -167 -95 72
v -176 -94 65
v -182 -93 47
v -155 -103 43
v -153 -103 48
v -151 -101 75
v -152 -97 78
v -144 -108 44
v -148 -107 48
v -148 -109 44
v -152 -107 47
v -153 -107 43
v -151 -107 40
v -117 -102 61
v -127 -101 72
v -141 -102 73
v -138 -100 76
v -114 -102 38
v -12 -114 21
v -23 -114 30
v -29 -112 23
v -20 -113 12
v 10 -114 17
v -2 -115 29
v -7 -115 34
v -13 -114 53
v -27 -113 56
v -33 -113 41
v -35 -110 42
v -31 -110 21
v -22 -110 10
v -7 -113 6
v 12 -113 6
v 24 -113 15
v 23 -114 35
v 6 -115 33
v 3 -119 34
v -1 -119 32
v -4 -119 35
v -5 -115 41
v 0 -115 43
v 13 -114 51
v 23 -112 60
v 4 -112 67
v -11 -112 66
v -15 -109 69
v -29 -110 58
v 5 -115 40
v 30 -112 49
v 31 -109 52
v 25 -109 62
v 8 -109 70
v 1 -121 36
v -3 -119 39
v 0 -119 41
v 4 -119 39
v 14 -110 4
v 26 -110 13
v 29 -113 25
v 32 -113 36
v 35 -109 37
v 31 -110 23
v -9 -110 4
v 145 -104 30
v 132 -105 45
v 128 -105 29
v 138 -104 19
v 161 -101 23
v 149 -104 42
v 149 -104 50
v 146 -104 68
v 139 -103 74
v 124 -107 62
v 121 -107 46
v 119 -105 47
v 125 -103 27
v 136 -102 17
v 152 -102 16
v 170 -99 19
v 176 -99 40
v 160 -103 43
v 156 -103 38
v 152 -108 44
v 152 -108 49
v 153 -104 53
v 165 -101 63
v 172 -97 74
v 152 -101 78
v 156 -97 81
v 133 -101 76
v 121 -104 63
v 162 -102 50
v 160 -107 49
v 159 -107 45
v 156 -107 42
v 156 -109 46
v 155 -108 51
v 181 -96 64
v 180 -93 67
v 174 -94 76
v 180 -97 29
v 172 -96 17
v 183 -94 28
v 184 -96 40
v 186 -93 38
v 185 -96 51
v 187 -92 53
v 150 -99 13

f 1 2 3
f 1 3 4
f 1 4 5
f 1 5 6
f 1 6 7
f 1 7 8
f 1 8 9
f 1 9 10
f 1 10 2
f 2 10 11
f 2 11 12
f 2 12 3
f 3 12 13
f 3 13 4
f 4 13 14
f 4 14 15
f 4 15 5
f 5 15 16
f 5 16 17
f 5 17 6
f 6 17 18
f 6 18 19
f 6 19 7
f 7 19 20
f 7 20 21
f 7 21 8
f 8 21 22
f 8 22 23
f 8 23 9
f 9 23 24
f 9 24 25
f 9 25 10
f 10 25 26
f 10 26 11
f 27 28 29
f 27 29 16
f 27 16 30
f 27 30 31
f 27 31 32
f 27 32 28
f 28 32 33
f 28 33 34
f 28 34 23
f 28 23 29
f 29 23 22
f 29 22 35
f 29 35 16
f 16 35 17
f 17 35 36
f 17 36 18
f 18 36 19
f 19 36 37
f 19 37 20
f 20 37 38
f 20 38 21
f 21 38 22
f 22 38 35
f 35 38 36
f 36 38 37
f 25 24 39
f 25 39 26
f 24 40 41
f 24 41 39
f 15 14 42
f 15 42 30
f 15 30 16
f 30 42 31
f 40 43 44
f 40 44 41
f 43 34 45
f 43 45 44
f 34 33 45
f 23 34 43
f 23 43 40
f 23 40 24
f 46 47 48
f 46 48 49
f 46 49 50
f 46 50 51
f 46 51 52
f 46 52 53
f 46 53 47
f 47 53 54
f 47 54 55
f 47 55 56
f 47 56 57
f 47 57 48
f 48 57 58
f 48 58 59
f 48 59 49
f 49 59 60
f 49 60 50
f 50 60 61
f 50 61 62
f 50 62 51
f 51 62 63
f 51 63 64
f 51 64 65
f 51 65 66
f 51 66 52
f 52 66 67
f 52 67 68
f 52 68 53
f 53 68 69
f 53 69 54
f 54 69 70
f 54 70 71
f 54 71 55
f 55 71 72
f 55 72 73
f 55 73 56
f 56 73 74
f 56 74 75
f 56 75 76
f 56 76 57
f 57 76 77
f 57 77 58
f 64 78 65
f 65 78 73
f 65 73 66
f 66 73 72
f 66 72 79
f 66 79 67
f 67 79 80
f 67 80 68
f 68 80 69
f 69 80 70
f 70 80 71
f 71 80 79
f 71 79 72
f 76 75 81
f 76 81 77
f 75 74 82
f 75 82 81
f 62 61 83
f 62 83 63
f 63 83 84
f 63 84 64
f 64 84 85
f 64 85 78
f 78 85 86
f 78 86 87
f 78 87 73
f 73 87 88
f 73 88 74
f 74 88 89
f 74 89 82
f 88 87 90
f 88 90 89
f 87 86 90
f 91 92 93
f 91 93 94
f 91 94 95
f 91 95 96
f 91 96 97
f 91 97 98
f 91 98 99
f 91 99 100
f 91 100 92
f 92 100 101
f 92 101 102
f 92 102 103
f 92 103 93
f 93 103 104
f 93 104 105
f 93 105 94
f 94 105 106
f 94 106 95
f 95 106 107
f 95 107 96
f 96 107 108
f 96 108 109
f 96 109 97
f 97 109 110
f 97 110 111
f 97 111 112
f 97 112 98
f 98 112 113
f 98 113 114
f 98 114 99
f 99 114 115
f 99 115 100
f 100 115 116
f 100 116 117
f 100 117 101
f 101 117 118
f 101 118 119
f 101 119 102
f 102 119 120
f 102 120 121
f 102 121 103
f 103 121 122
f 103 122 104
f 110 123 111
f 111 123 119
f 111 119 112
f 112 119 118
f 112 118 124
f 112 124 113
f 113 124 125
f 113 125 115
f 113 115 114
f 124 117 116
f 124 116 125
f 125 116 115
f 118 117 124
f 121 120 126
f 121 126 122
f 120 127 128
f 120 128 126
f 109 108 129
f 109 129 110
f 110 129 130
f 110 130 123
f 123 130 131
f 123 131 132
f 123 132 119
f 119 132 133
f 119 133 127
f 119 127 120
f 127 133 134
f 127 134 128
f 133 132 135
f 133 135 134
f 132 131 135
f 136 137 138
f 136 138 139
f 136 139 140
f 136 140 141
f 136 141 142
f 136 142 143
f 136 143 137
f 137 143 144
f 137 144 145
f 137 145 138
f 138 145 146
f 138 146 147
f 138 147 139
f 139 147 148
f 139 148 149
f 139 149 150
f 139 150 151
f 139 151 152
f 139 152 140
f 140 152 153
f 140 153 154
f 140 154 141
f 141 154 155
f 141 155 156
f 141 156 142
f 142 156 157
f 142 157 158
f 142 158 143
f 143 158 144
f 159 160 155
f 159 155 161
f 159 161 162
f 159 162 163
f 159 163 164
f 159 164 160
f 160 164 165
f 160 165 156
f 160 156 155
f 155 154 166
f 155 166 161
f 161 166 167
f 161 167 151
f 161 151 150
f 161 150 162
f 162 150 168
f 162 168 169
f 162 169 163
f 170 171 172
f 170 172 153
f 170 153 152
f 170 152 171
f 171 152 151
f 171 151 173
f 171 173 172
f 172 173 174
f 172 174 175
f 172 175 153
f 153 175 154
f 154 175 166
f 166 175 174
f 166 174 167
f 167 174 173
f 167 173 151
f 149 148 176
f 149 176 177
f 149 177 178
f 149 178 150
f 150 178 168
f 168 178 179
f 168 179 169
f 178 177 179
f 156 165 157
f 148 147 180
f 148 180 176
f 147 146 180
f 181 182 183
f 181 183 184
f 181 184 185
f 181 185 186
f 181 186 182
f 182 186 187
f 182 187 188
f 182 188 189
f 182 189 190
f 182 190 183
f 183 190 191
f 183 191 192
f 183 192 184
f 184 192 193
f 184 193 194
f 184 194 185
f 185 194 195
f 185 195 196
f 185 196 197
f 185 197 198
f 185 198 186
f 186 198 199
f 186 199 200
f 186 200 187
f 187 200 201
f 187 201 202
f 187 202 188
f 188 202 203
f 188 203 204
f 188 204 205
f 188 205 206
f 188 206 207
f 188 207 189
f 189 207 208
f 189 208 209
f 189 209 190
f 190 209 191
f 204 203 210
f 204 210 198
f 204 198 197
f 204 197 211
f 204 211 205
f 205 211 212
f 205 212 213
f 205 213 206
f 206 213 214
f 206 214 207
f 207 214 208
f 200 199 215
f 200 215 216
f 200 216 201
f 201 216 202
f 202 216 203
f 203 216 217
f 203 217 210
f 210 217 218
f 210 218 198
f 198 218 199
f 199 218 215
f 215 218 217
f 215 217 216
f 196 195 219
f 196 219 220
f 196 220 221
f 196 221 197
f 197 221 222
f 197 222 211
f 211 222 223
f 211 223 212
f 221 220 224
f 221 224 222
f 222 224 223
f 195 194 225
f 195 225 219
f 194 193 225
f 226 227 228
f 226 228 229
f 226 229 230
f 226 230 231
f 226 231 227
f 227 231 232
f 227 232 233
f 227 233 234
f 227 234 235
f 227 235 236
f 227 236 228
f 228 236 237
f 228 237 238
f 228 238 229
f 229 238 239
f 229 239 240
f 229 240 230
f 230 240 241
f 230 241 242
f 230 242 243
f 230 243 244
f 230 244 231
f 231 244 245
f 231 245 232
f 232 245 246
f 232 246 247
f 232 247 233
f 233 247 248
f 233 248 249
f 233 249 250
f 233 250 234
f 234 250 251
f 234 251 252
f 234 252 235
f 235 252 253
f 235 253 236
f 236 253 237
f 242 254 243
f 243 254 255
f 243 255 256
f 243 256 244
f 244 256 257
f 244 257 245
f 245 257 258
f 245 258 246
f 246 258 259
f 246 259 247
f 247 259 254
f 247 254 248
f 248 254 242
f 248 242 260
f 248 260 249
f 249 260 261
f 249 261 262
f 249 262 250
f 250 262 251
f 257 256 258
f 258 256 255
f 258 255 259
f 259 255 254
f 263 241 264
f 263 264 265
f 263 265 266
f 263 266 242
f 263 242 241
f 266 265 267
f 266 267 268
f 266 268 242
f 242 268 260
f 260 268 269
f 260 269 261
f 268 267 269
f 241 240 270
f 241 270 264
f 240 239 270
