# RS2 Model 22178
# Vertices: 201
# Faces: 289

v 102 -7 97
v 100 15 97
v 88 33 97
v 68 42 97
v 46 40 97
v 28 27 97
v 21 8 97
v 22 -15 97
v 34 -32 97
v 53 -42 97
v 76 -39 97
v 94 -27 97
v 107 -38 100
v 118 -12 100
v 115 21 100
v 99 46 100
v 73 57 100
v 40 54 100
v 15 39 100
v 4 12 100
v 7 -21 100
v 22 -45 100
v 50 -57 100
v 82 -54 100
v 83 -32 99
v 81 -32 108
v 77 -16 107
v 78 -16 101
v 77 -5 101
v 77 -15 114
v 77 -4 110
v 78 6 102
v 77 7 108
v 82 -1 113
v 80 9 110
v 88 0 113
v 84 9 107
v 91 -1 110
v 92 -1 102
v 85 8 102
v 92 -30 97
v 92 -28 108
v 89 -27 120
v 82 -31 118
v 84 -11 116
v 97 -23 121
v 94 -7 116
v 79 5 103
v 78 4 105
v 71 26 103
v 71 26 102
v 65 27 103
v 65 27 101
v 66 32 103
v 66 32 101
v 68 35 99
v 67 36 105
v 71 31 106
v 72 30 100
v 71 36 105
v 72 35 99
v 76 36 101
v 76 36 103
v 78 33 102
v 78 33 100
v 77 28 103
v 77 28 102
v 85 7 105
v 84 8 103
v 78 6 107
v 74 27 105
v 81 7 108
v 99 -8 101
v 102 -7 107
v 108 -21 108
v 107 -24 100
v 102 -27 99
v 98 -28 106
v 94 -28 115
v 98 -27 115
v 104 -23 118
v 98 -7 114
v 83 8 107
v 21 -45 99
v 19 -44 108
v 19 -28 107
v 20 -28 101
v 22 -17 101
v 19 -27 114
v 22 -16 110
v 25 -7 102
v 24 -5 108
v 27 -14 113
v 28 -4 110
v 33 -15 113
v 32 -5 107
v 36 -16 110
v 37 -17 102
v 32 -6 102
v 31 -45 97
v 31 -43 108
v 28 -41 120
v 21 -44 118
v 27 -25 116
v 37 -39 121
v 38 -23 116
v 26 -8 103
v 25 -9 105
v 23 14 103
v 23 14 102
v 17 17 103
v 17 17 101
v 19 21 103
v 19 21 101
v 22 24 99
v 21 25 105
v 24 19 106
v 25 18 100
v 25 24 105
v 26 23 99
v 30 23 101
v 30 23 103
v 31 20 102
v 31 20 100
v 29 15 103
v 29 15 102
v 32 -7 105
v 31 -6 103
v 25 -7 107
v 26 15 105
v 28 -6 108
v 42 -25 101
v 45 -25 107
v 48 -40 108
v 46 -42 100
v 41 -44 99
v 37 -44 106
v 33 -43 115
v 37 -43 115
v 44 -41 118
v 42 -24 114
v 30 -6 107
v 56 34 99
v 58 34 108
v 63 18 107
v 62 18 101
v 63 7 101
v 63 17 114
v 63 6 110
v 63 -3 102
v 65 -5 108
v 59 3 113
v 61 -7 110
v 53 2 113
v 57 -7 107
v 50 2 110
v 49 3 102
v 57 -7 102
v 46 31 97
v 47 29 108
v 50 28 120
v 56 33 118
v 56 13 116
v 42 24 121
v 46 8 116
v 62 -3 103
v 63 -2 105
v 71 -23 103
v 71 -23 102
v 78 -24 103
v 78 -24 101
v 77 -28 103
v 77 -28 101
v 75 -32 99
v 77 -33 105
v 72 -28 106
v 71 -27 100
v 72 -33 105
v 71 -32 99
v 67 -34 101
v 67 -34 103
v 66 -31 102
v 66 -31 100
v 66 -26 103
v 66 -26 102
v 57 -6 105
v 58 -6 103
v 63 -3 107
v 69 -25 105
v 61 -5 108
v 42 9 101
v 39 8 107
v 31 21 108
v 33 24 100
v 37 27 99
v 41 28 106
v 45 29 115
v 41 27 115
v 35 23 118
v 42 8 114
v 59 -6 107

f 1 2 3
f 1 3 4
f 1 4 5
f 1 5 6
f 1 6 7
f 1 7 8
f 1 8 9
f 1 9 10
f 1 10 11
f 1 11 12
f 1 12 13
f 1 13 14
f 1 14 2
f 2 14 15
f 2 15 3
f 3 15 16
f 3 16 4
f 4 16 17
f 4 17 5
f 5 17 18
f 5 18 6
f 6 18 19
f 6 19 7
f 7 19 20
f 7 20 8
f 8 20 21
f 8 21 9
f 9 21 22
f 9 22 10
f 10 22 23
f 10 23 11
f 11 23 24
f 11 24 12
f 12 24 13
f 25 26 27
f 25 27 28
f 28 27 29
f 29 27 30
f 29 30 31
f 29 31 32
f 32 31 33
f 33 31 34
f 33 34 35
f 35 34 36
f 35 36 37
f 37 36 38
f 37 38 39
f 37 39 40
f 25 41 42
f 25 42 26
f 26 42 43
f 26 43 44
f 26 44 30
f 26 30 27
f 45 30 44
f 45 44 43
f 45 43 46
f 45 46 47
f 45 47 34
f 45 34 30
f 30 34 31
f 48 49 50
f 48 50 51
f 51 50 52
f 51 52 53
f 53 52 54
f 53 54 55
f 55 54 56
f 56 54 57
f 56 57 58
f 56 58 59
f 59 58 60
f 59 60 61
f 61 60 62
f 62 60 63
f 62 63 64
f 62 64 65
f 65 64 66
f 65 66 67
f 67 66 68
f 67 68 69
f 70 50 49
f 50 70 71
f 50 71 58
f 50 58 52
f 52 58 57
f 52 57 54
f 70 72 71
f 71 72 66
f 71 66 64
f 71 64 58
f 58 64 63
f 58 63 60
f 73 74 75
f 73 75 76
f 76 75 77
f 77 75 78
f 77 78 41
f 41 78 42
f 42 78 79
f 42 79 43
f 43 79 80
f 43 80 81
f 43 81 46
f 46 81 82
f 46 82 47
f 47 82 36
f 47 36 34
f 81 75 74
f 81 74 82
f 82 74 38
f 82 38 36
f 81 78 75
f 78 81 80
f 78 80 79
f 68 66 83
f 83 66 72
f 38 74 39
f 39 74 73
f 84 85 86
f 84 86 87
f 87 86 88
f 88 86 89
f 88 89 90
f 88 90 91
f 91 90 92
f 92 90 93
f 92 93 94
f 94 93 95
f 94 95 96
f 96 95 97
f 96 97 98
f 96 98 99
f 84 100 101
f 84 101 85
f 85 101 102
f 85 102 103
f 85 103 89
f 85 89 86
f 104 89 103
f 104 103 102
f 104 102 105
f 104 105 106
f 104 106 93
f 104 93 89
f 89 93 90
f 107 108 109
f 107 109 110
f 110 109 111
f 110 111 112
f 112 111 113
f 112 113 114
f 114 113 115
f 115 113 116
f 115 116 117
f 115 117 118
f 118 117 119
f 118 119 120
f 120 119 121
f 121 119 122
f 121 122 123
f 121 123 124
f 124 123 125
f 124 125 126
f 126 125 127
f 126 127 128
f 129 109 108
f 109 129 130
f 109 130 117
f 109 117 111
f 111 117 116
f 111 116 113
f 129 131 130
f 130 131 125
f 130 125 123
f 130 123 117
f 117 123 122
f 117 122 119
f 132 133 134
f 132 134 135
f 135 134 136
f 136 134 137
f 136 137 100
f 100 137 101
f 101 137 138
f 101 138 102
f 102 138 139
f 102 139 140
f 102 140 105
f 105 140 141
f 105 141 106
f 106 141 95
f 106 95 93
f 140 134 133
f 140 133 141
f 141 133 97
f 141 97 95
f 140 137 134
f 137 140 139
f 137 139 138
f 127 125 142
f 142 125 131
f 97 133 98
f 98 133 132
f 143 144 145
f 143 145 146
f 146 145 147
f 147 145 148
f 147 148 149
f 147 149 150
f 150 149 151
f 151 149 152
f 151 152 153
f 153 152 154
f 153 154 155
f 155 154 156
f 155 156 157
f 155 157 158
f 143 159 160
f 143 160 144
f 144 160 161
f 144 161 162
f 144 162 148
f 144 148 145
f 163 148 162
f 163 162 161
f 163 161 164
f 163 164 165
f 163 165 152
f 163 152 148
f 148 152 149
f 166 167 168
f 166 168 169
f 169 168 170
f 169 170 171
f 171 170 172
f 171 172 173
f 173 172 174
f 174 172 175
f 174 175 176
f 174 176 177
f 177 176 178
f 177 178 179
f 179 178 180
f 180 178 181
f 180 181 182
f 180 182 183
f 183 182 184
f 183 184 185
f 185 184 186
f 185 186 187
f 188 168 167
f 168 188 189
f 168 189 176
f 168 176 170
f 170 176 175
f 170 175 172
f 188 190 189
f 189 190 184
f 189 184 182
f 189 182 176
f 176 182 181
f 176 181 178
f 191 192 193
f 191 193 194
f 194 193 195
f 195 193 196
f 195 196 159
f 159 196 160
f 160 196 197
f 160 197 161
f 161 197 198
f 161 198 199
f 161 199 164
f 164 199 200
f 164 200 165
f 165 200 154
f 165 154 152
f 199 193 192
f 199 192 200
f 200 192 156
f 200 156 154
f 199 196 193
f 196 199 198
f 196 198 197
f 186 184 201
f 201 184 190
f 156 192 157
f 157 192 191
