# RS2 Model 22189
# Vertices: 283
# Faces: 472

v 101 -33 97
v 108 -30 104
v 104 -35 111
v 98 -39 105
v 95 -27 98
v 101 -23 104
v 93 -32 106
v 98 -28 111
v 86 -29 113
v 94 -31 107
v 91 -27 99
v 84 -24 104
v 82 -35 112
v 88 -39 107
v 78 -31 103
v 85 -34 99
v -15 -13 102
v -15 -23 102
v -6 -19 125
v -6 -17 125
v -5 -2 102
v -1 -5 97
v -13 -17 97
v -13 -19 97
v -5 -34 102
v -1 -24 125
v -5 -26 131
v -9 -22 131
v -9 -16 131
v -1 -12 125
v 5 -2 102
v 1 -5 97
v 5 -34 102
v 1 -24 125
v 5 -26 131
v -4 -24 131
v -7 -21 131
v -7 -17 131
v -4 -8 132
v -5 -6 132
v 1 -12 125
v 15 -13 102
v 13 -17 97
v 15 -23 102
v 6 -19 125
v 9 -22 131
v 4 -24 131
v 0 -24 127
v -6 -18 127
v 0 -12 127
v 4 -8 132
v 5 -6 132
v 6 -17 125
v 13 -19 97
v 9 -16 131
v 7 -21 131
v 6 -18 127
v 7 -17 131
v -1 -31 97
v 1 -31 97
v -2 -34 119
v -2 -29 113
v -2 -30 110
v -2 -37 119
v -2 -30 123
v -2 -30 125
v -2 -26 120
v -2 -25 123
v 2 -30 125
v 2 -25 123
v 2 -30 123
v 2 -26 120
v 2 -37 119
v 2 -30 110
v 2 -29 113
v 2 -34 119
v 87 -9 97
v 92 -27 97
v 99 -9 97
v 85 -4 101
v 75 -10 101
v 79 -14 97
v 74 -22 97
v 74 -34 97
v 79 -42 97
v 87 -47 97
v 99 -47 97
v 107 -42 97
v 112 -34 97
v 112 -22 97
v 107 -14 97
v 111 -10 101
v 101 -4 101
v 87 -8 97
v 78 -13 97
v 69 -20 101
v 73 -22 97
v 73 -34 97
v 69 -36 101
v 75 -46 101
v 85 -52 101
v 101 -52 101
v 111 -46 101
v 117 -36 101
v 117 -20 101
v 78 -43 97
v 87 -48 97
v 99 -48 97
v 108 -43 97
v 113 -34 97
v 113 -22 97
v 108 -13 97
v 99 -8 97
v -64 -9 109
v -64 -8 124
v -64 -9 126
v -64 -12 108
v -64 -4 107
v -68 -9 109
v -68 -8 124
v -68 -4 122
v -64 -4 122
v -64 -3 126
v -68 -9 126
v -68 -12 108
v -68 -5 104
v -64 -5 104
v -68 -3 126
v -68 -4 107
v -65 8 99
v -67 8 99
v -70 15 104
v -62 15 104
v -63 6 99
v -56 9 104
v -63 4 99
v -56 1 104
v -65 2 99
v -62 -5 104
v -67 2 99
v -70 -5 104
v -69 4 99
v -76 1 104
v -69 6 99
v -76 9 104
v -74 8 127
v -69 13 127
v -63 13 127
v -58 8 127
v -58 2 127
v -63 -3 127
v -69 -3 127
v -74 2 127
v -66 5 98
v -72 4 98
v -67 -1 98
v -65 -1 98
v -60 4 98
v -60 6 98
v -65 11 98
v -67 11 98
v -72 6 98
v -78 10 99
v -78 0 99
v -71 -7 99
v -61 -7 99
v -54 0 99
v -54 10 99
v -61 17 99
v -71 17 99
v -78 0 97
v -71 -7 97
v -78 10 97
v -71 17 97
v -61 17 97
v -54 10 97
v -54 0 97
v -61 -7 97
v -122 50 97
v -117 32 97
v -110 50 97
v -124 55 101
v -134 49 101
v -130 45 97
v -135 37 97
v -135 25 97
v -130 17 97
v -122 12 97
v -110 12 97
v -102 17 97
v -97 25 97
v -97 37 97
v -102 45 97
v -98 49 101
v -108 55 101
v -122 51 97
v -131 46 97
v -140 39 101
v -136 37 97
v -136 25 97
v -140 23 101
v -134 13 101
v -124 7 101
v -108 7 101
v -98 13 101
v -92 23 101
v -92 39 101
v -131 16 97
v -122 11 97
v -110 11 97
v -101 16 97
v -96 25 97
v -96 37 97
v -101 46 97
v -110 51 97
v 54 38 109
v 54 37 124
v 54 38 126
v 56 40 108
v 52 33 107
v 58 35 109
v 57 35 124
v 55 31 122
v 52 33 122
v 51 33 126
v 58 35 126
v 59 38 108
v 56 32 104
v 52 34 104
v 54 30 126
v 55 31 107
v 46 23 99
v 48 22 99
v 46 14 104
v 40 19 104
v 45 26 99
v 38 27 104
v 46 27 99
v 42 34 104
v 49 28 99
v 51 35 104
v 51 27 99
v 57 31 104
v 51 24 99
v 59 23 104
v 50 22 99
v 54 16 104
v 53 18 127
v 46 17 127
v 41 20 127
v 40 27 127
v 43 32 127
v 50 33 127
v 55 30 127
v 57 23 127
v 48 25 98
v 54 22 98
v 53 29 98
v 51 30 98
v 44 29 98
v 43 27 98
v 44 20 98
v 46 19 98
v 53 21 98
v 56 14 99
v 61 22 99
v 59 32 99
v 51 38 99
v 41 36 99
v 36 27 99
v 38 18 99
v 46 12 99
v 61 22 97
v 59 32 97
v 56 14 97
v 46 12 97
v 38 18 97
v 36 27 97
v 41 36 97
v 51 38 97
v -2 -11 111
v 12 -25 111
v 51 46 111

f 1 2 3
f 1 3 4
f 1 4 5
f 1 5 2
f 2 5 6
f 6 5 7
f 6 7 8
f 8 7 4
f 8 4 3
f 5 4 7
f 9 10 11
f 9 11 12
f 9 12 13
f 9 13 10
f 10 13 14
f 14 13 15
f 14 15 16
f 16 15 12
f 16 12 11
f 13 12 15
f 17 18 19
f 17 19 20
f 17 20 21
f 17 21 22
f 17 22 23
f 17 23 18
f 18 23 24
f 18 24 25
f 18 25 26
f 18 26 19
f 19 26 27
f 19 27 28
f 19 28 20
f 20 28 29
f 20 29 30
f 20 30 21
f 21 30 31
f 21 31 32
f 21 32 22
f 25 33 34
f 25 34 26
f 26 34 35
f 26 35 27
f 27 35 36
f 27 36 37
f 27 37 28
f 28 37 38
f 28 38 29
f 29 38 39
f 29 39 40
f 29 40 30
f 30 40 41
f 30 41 31
f 31 41 42
f 31 42 43
f 31 43 32
f 33 44 45
f 33 45 34
f 34 45 46
f 34 46 35
f 35 46 47
f 35 47 36
f 36 47 48
f 36 48 37
f 37 48 49
f 37 49 38
f 38 49 39
f 39 49 50
f 39 50 51
f 39 51 52
f 39 52 40
f 40 52 41
f 41 52 53
f 41 53 42
f 42 53 44
f 42 44 54
f 42 54 43
f 44 53 45
f 45 53 55
f 45 55 46
f 46 55 56
f 46 56 47
f 47 56 57
f 47 57 48
f 48 57 50
f 48 50 49
f 53 52 55
f 55 52 58
f 55 58 56
f 56 58 57
f 57 58 50
f 50 58 51
f 51 58 52
f 24 59 25
f 25 59 33
f 33 59 60
f 33 60 44
f 44 60 54
f 61 62 63
f 61 63 64
f 61 64 65
f 65 64 66
f 65 66 67
f 67 66 68
f 68 66 69
f 68 69 70
f 70 69 71
f 70 71 72
f 73 74 75
f 73 75 76
f 73 76 69
f 73 69 66
f 73 66 64
f 73 64 74
f 74 64 63
f 69 76 71
f 77 78 79
f 77 79 80
f 77 80 81
f 77 81 82
f 77 82 78
f 78 82 83
f 78 83 84
f 78 84 85
f 78 85 86
f 78 86 87
f 78 87 88
f 78 88 89
f 78 89 90
f 78 90 91
f 78 91 79
f 79 91 92
f 79 92 93
f 79 93 80
f 80 93 94
f 80 94 95
f 80 95 81
f 81 95 96
f 81 96 83
f 81 83 82
f 96 95 97
f 96 97 98
f 96 98 99
f 96 99 83
f 83 99 84
f 84 99 100
f 84 100 85
f 85 100 86
f 86 100 101
f 86 101 102
f 86 102 87
f 87 102 103
f 87 103 88
f 88 103 89
f 89 103 104
f 89 104 105
f 89 105 90
f 90 105 92
f 90 92 91
f 106 100 99
f 106 99 98
f 101 100 106
f 101 106 107
f 101 107 108
f 101 108 102
f 102 108 109
f 102 109 103
f 103 109 104
f 104 109 110
f 104 110 111
f 104 111 105
f 105 111 112
f 105 112 92
f 92 112 93
f 93 112 113
f 93 113 94
f 114 115 116
f 114 116 117
f 114 117 118
f 114 118 119
f 114 119 120
f 114 120 115
f 115 120 121
f 115 121 122
f 115 122 123
f 115 123 116
f 116 123 124
f 116 124 125
f 116 125 117
f 117 125 126
f 117 126 127
f 117 127 118
f 120 119 125
f 120 125 124
f 120 124 121
f 121 124 128
f 128 124 123
f 119 129 126
f 119 126 125
f 119 118 129
f 130 131 132
f 130 132 133
f 130 133 134
f 134 133 135
f 134 135 136
f 136 135 137
f 136 137 138
f 138 137 139
f 138 139 140
f 140 139 141
f 140 141 142
f 142 141 143
f 142 143 144
f 144 143 145
f 144 145 131
f 131 145 132
f 132 145 146
f 132 146 147
f 132 147 133
f 132 133 148
f 132 148 147
f 132 147 145
f 132 145 135
f 132 135 133
f 133 135 149
f 133 149 148
f 133 148 135
f 135 148 149
f 135 149 137
f 135 137 150
f 135 150 149
f 149 150 137
f 137 150 139
f 137 139 151
f 137 151 150
f 150 151 139
f 139 151 141
f 139 141 152
f 139 152 151
f 151 152 141
f 141 152 143
f 141 143 153
f 141 153 152
f 152 153 143
f 143 153 145
f 143 145 146
f 143 146 153
f 153 146 145
f 133 147 148
f 135 145 143
f 135 143 141
f 135 141 139
f 135 139 137
f 147 146 145
f 154 155 156
f 154 156 157
f 154 157 158
f 154 158 159
f 154 159 160
f 154 160 161
f 154 161 162
f 154 162 155
f 155 162 163
f 155 163 164
f 155 164 165
f 155 165 156
f 156 165 166
f 156 166 157
f 157 166 167
f 157 167 158
f 158 167 168
f 158 168 159
f 159 168 169
f 159 169 160
f 160 169 170
f 160 170 161
f 161 170 163
f 161 163 162
f 171 172 165
f 171 165 164
f 171 164 173
f 173 164 163
f 173 163 174
f 174 163 170
f 174 170 175
f 175 170 169
f 175 169 176
f 176 169 168
f 176 168 177
f 177 168 167
f 177 167 178
f 178 167 166
f 178 166 172
f 172 166 165
f 179 180 181
f 179 181 182
f 179 182 183
f 179 183 184
f 179 184 180
f 180 184 185
f 180 185 186
f 180 186 187
f 180 187 188
f 180 188 189
f 180 189 190
f 180 190 191
f 180 191 192
f 180 192 193
f 180 193 181
f 181 193 194
f 181 194 195
f 181 195 182
f 182 195 196
f 182 196 197
f 182 197 183
f 183 197 198
f 183 198 185
f 183 185 184
f 198 197 199
f 198 199 200
f 198 200 201
f 198 201 185
f 185 201 186
f 186 201 202
f 186 202 187
f 187 202 188
f 188 202 203
f 188 203 204
f 188 204 189
f 189 204 205
f 189 205 190
f 190 205 191
f 191 205 206
f 191 206 207
f 191 207 192
f 192 207 194
f 192 194 193
f 208 202 201
f 208 201 200
f 203 202 208
f 203 208 209
f 203 209 210
f 203 210 204
f 204 210 211
f 204 211 205
f 205 211 206
f 206 211 212
f 206 212 213
f 206 213 207
f 207 213 214
f 207 214 194
f 194 214 195
f 195 214 215
f 195 215 196
f 216 217 218
f 216 218 219
f 216 219 220
f 216 220 221
f 216 221 222
f 216 222 217
f 217 222 223
f 217 223 224
f 217 224 225
f 217 225 218
f 218 225 226
f 218 226 227
f 218 227 219
f 219 227 228
f 219 228 229
f 219 229 220
f 222 221 227
f 222 227 226
f 222 226 223
f 223 226 230
f 230 226 225
f 221 231 228
f 221 228 227
f 221 220 231
f 232 233 234
f 232 234 235
f 232 235 236
f 236 235 237
f 236 237 238
f 238 237 239
f 238 239 240
f 240 239 241
f 240 241 242
f 242 241 243
f 242 243 244
f 244 243 245
f 244 245 246
f 246 245 247
f 246 247 233
f 233 247 234
f 234 247 248
f 234 248 249
f 234 249 235
f 234 235 250
f 234 250 249
f 234 249 247
f 234 247 237
f 234 237 235
f 235 237 251
f 235 251 250
f 235 250 237
f 237 250 251
f 237 251 239
f 237 239 252
f 237 252 251
f 251 252 239
f 239 252 241
f 239 241 253
f 239 253 252
f 252 253 241
f 241 253 243
f 241 243 254
f 241 254 253
f 253 254 243
f 243 254 245
f 243 245 255
f 243 255 254
f 254 255 245
f 245 255 247
f 245 247 248
f 245 248 255
f 255 248 247
f 235 249 250
f 237 247 245
f 237 245 243
f 237 243 241
f 237 241 239
f 249 248 247
f 256 257 258
f 256 258 259
f 256 259 260
f 256 260 261
f 256 261 262
f 256 262 263
f 256 263 264
f 256 264 257
f 257 264 265
f 257 265 266
f 257 266 267
f 257 267 258
f 258 267 268
f 258 268 259
f 259 268 269
f 259 269 260
f 260 269 270
f 260 270 261
f 261 270 271
f 261 271 262
f 262 271 272
f 262 272 263
f 263 272 265
f 263 265 264
f 273 274 267
f 273 267 266
f 273 266 275
f 275 266 265
f 275 265 276
f 276 265 272
f 276 272 277
f 277 272 271
f 277 271 278
f 278 271 270
f 278 270 279
f 279 270 269
f 279 269 280
f 280 269 268
f 280 268 274
f 274 268 267
