# RS2 Model 22193
# Vertices: 118
# Faces: 198

v -24 -56 184
v -64 -56 184
v -64 -56 176
v -24 -56 176
v -30 -18 180
v -64 -9 181
v -24 56 184
v -64 56 184
v -24 56 176
v -64 56 176
v -28 -8 173
v -52 -48 176
v -64 -48 160
v -64 -52 160
v -52 -52 176
v -64 -52 150
v -44 -52 176
v -64 -48 150
v -44 -48 176
v -52 52 176
v -64 52 160
v -64 48 160
v -52 48 176
v -64 48 150
v -44 48 176
v -64 52 150
v -44 52 176
v -38 -19 186
v -29 -29 187
v -29 -29 182
v -38 -19 181
v -48 -18 186
v -49 -15 191
v -36 -16 191
v -27 -28 192
v -31 -43 188
v -31 -43 183
v -48 -18 181
v -58 -25 187
v -60 -23 192
v -58 -25 192
v -60 -22 197
v -49 -15 203
v -38 -18 191
v -27 -27 204
v -30 -41 193
v -28 -44 193
v -39 -50 189
v -39 -50 184
v -59 -38 188
v -58 -25 182
v -59 -38 183
v -51 -49 189
v -52 -51 194
v -61 -38 193
v -62 -37 205
v -60 -25 197
v -61 -24 204
v -61 -21 208
v -51 -12 207
v -37 -17 203
v -36 -13 207
v -25 -26 208
v -27 -41 205
v -30 -41 198
v -28 -44 198
v -38 -51 194
v -51 -49 184
v -51 -48 194
v -53 -48 199
v -52 -50 206
v -53 -51 210
v -64 -37 209
v -27 -43 218
v -39 -51 219
v -38 -52 210
v -27 -43 209
v -25 -44 218
v -25 -26 217
v -28 -30 223
v -29 -36 224
v -30 -38 218
v -39 -47 219
v -51 -46 218
v -52 -51 219
v -38 -54 210
v -38 -51 206
v -26 -26 208
v -36 -13 216
v -51 -12 216
v -48 -17 216
v -37 -18 216
v -30 -30 217
v -49 -13 207
v -63 -19 217
v -61 -21 217
v -58 -26 217
v -55 -33 187
v -43 -23 187
v -34 -34 188
v -45 -43 188
v -58 -35 218
v -54 -49 219
v -63 -37 218
v -62 -37 209
v -60 -32 224
v -59 -26 223
v -50 -51 199
v -36 -33 232
v -33 -33 233
v -44 -32 237
v -44 -26 236
v -55 -27 232
v -55 -31 232
v -53 -30 232
v -53 -26 231
v -35 -29 232
v -37 -30 231

f 1 2 3
f 1 3 4
f 1 4 5
f 1 5 2
f 2 5 6
f 6 5 7
f 6 7 8
f 8 7 9
f 8 9 10
f 5 4 11
f 5 11 7
f 7 11 9
f 12 13 14
f 12 14 15
f 15 14 16
f 15 16 17
f 17 16 18
f 17 18 19
f 19 18 13
f 19 13 12
f 20 21 22
f 20 22 23
f 23 22 24
f 23 24 25
f 25 24 26
f 25 26 27
f 27 26 21
f 27 21 20
f 28 29 30
f 28 30 31
f 28 31 32
f 28 32 33
f 28 33 34
f 28 34 29
f 29 34 35
f 29 35 36
f 29 36 37
f 29 37 30
f 32 31 38
f 32 38 39
f 32 39 40
f 32 40 33
f 33 40 41
f 33 41 42
f 33 42 43
f 33 43 44
f 33 44 34
f 34 44 35
f 35 44 45
f 35 45 46
f 35 46 47
f 35 47 36
f 36 47 48
f 36 48 49
f 36 49 37
f 50 39 51
f 50 51 52
f 50 52 53
f 50 53 54
f 50 54 55
f 50 55 39
f 39 55 40
f 40 55 41
f 41 55 56
f 41 56 57
f 41 57 42
f 42 57 58
f 42 58 43
f 43 58 59
f 43 59 60
f 43 60 61
f 43 61 44
f 44 61 45
f 45 61 62
f 45 62 63
f 45 63 64
f 45 64 65
f 45 65 46
f 46 65 66
f 46 66 67
f 46 67 47
f 47 67 48
f 48 67 53
f 48 53 68
f 48 68 49
f 39 38 51
f 53 52 68
f 67 54 53
f 54 67 69
f 54 69 55
f 55 69 70
f 55 70 56
f 56 70 71
f 56 71 72
f 56 72 73
f 56 73 58
f 56 58 57
f 74 75 76
f 74 76 77
f 74 77 78
f 74 78 79
f 74 79 80
f 74 80 81
f 74 81 82
f 74 82 75
f 75 82 83
f 75 83 84
f 75 84 85
f 75 85 72
f 75 72 76
f 76 72 86
f 76 86 77
f 77 86 87
f 77 87 64
f 77 64 63
f 77 63 88
f 77 88 79
f 77 79 78
f 89 79 88
f 89 88 62
f 89 62 90
f 89 90 91
f 89 91 92
f 89 92 79
f 79 92 93
f 79 93 80
f 80 93 81
f 81 93 82
f 82 93 74
f 90 62 94
f 90 94 95
f 90 95 96
f 90 96 97
f 90 97 91
f 91 97 98
f 91 98 99
f 91 99 92
f 92 99 93
f 93 99 100
f 93 100 82
f 82 100 83
f 83 100 101
f 83 101 84
f 84 101 102
f 84 102 103
f 84 103 72
f 84 72 85
f 104 96 59
f 104 59 105
f 104 105 103
f 104 103 102
f 104 102 106
f 104 106 96
f 96 106 107
f 96 107 97
f 96 97 102
f 102 97 107
f 102 107 106
f 60 62 61
f 62 60 94
f 94 60 59
f 94 59 95
f 95 59 96
f 73 59 58
f 59 73 105
f 105 73 72
f 105 72 103
f 86 72 71
f 86 71 87
f 87 71 108
f 87 108 67
f 87 67 64
f 64 67 66
f 64 66 65
f 63 62 88
f 69 108 70
f 70 108 71
f 67 108 69
f 109 81 110
f 109 110 111
f 111 110 112
f 111 112 113
f 111 113 114
f 111 114 115
f 115 114 106
f 106 114 107
f 107 114 113
f 107 113 116
f 116 113 112
f 117 110 81
f 117 81 80
f 117 80 118
f 117 118 112
f 117 112 110
f 102 101 98
f 102 98 97
f 98 100 99
f 100 98 101
