# RS2 Model 22201
# Vertices: 195
# Faces: 208

v -48 -74 215
v -39 -82 215
v -36 -72 213
v -39 -70 213
v -35 -69 211
v -37 -68 211
v -39 -67 213
v -36 -64 213
v -40 -55 215
v -48 -64 215
v -43 -52 215
v -49 -60 215
v -30 -81 215
v -22 -71 215
v -32 -68 213
v -35 -71 213
v -34 -68 211
v -22 -62 215
v -32 -55 215
v -35 -64 213
v -32 -67 213
v -35 -66 211
v -48 -77 215
v -43 -82 215
v -25 -81 215
v -20 -75 215
v -22 -56 215
v -27 -54 215
v 99 58 246
v 107 54 242
v 107 62 241
v 103 63 242
v 106 65 239
v 105 66 240
v 103 67 242
v 105 70 241
v 100 76 246
v 97 67 246
v 98 77 246
v 95 69 247
v 114 57 240
v 118 66 239
v 109 67 240
v 107 64 240
v 108 67 239
v 116 75 240
v 107 77 243
v 106 70 241
v 110 68 239
v 106 69 239
v 100 55 245
v 104 53 243
v 117 59 239
v 120 64 239
v 115 79 240
v 111 80 242
v -105 -67 169
v -109 -75 169
v -100 -76 169
v -99 -72 169
v -97 -76 168
v -96 -74 167
v -96 -71 169
v -93 -73 170
v -88 -67 173
v -96 -64 171
v -87 -64 173
v -94 -62 171
v -106 -83 170
v -96 -87 172
v -95 -78 170
v -99 -76 169
v -95 -77 168
v -89 -84 174
v -85 -75 174
v -92 -74 170
v -94 -78 170
v -94 -75 168
v -107 -68 169
v -110 -73 169
v -104 -86 171
v -98 -89 172
v -84 -82 175
v -83 -78 174
v -48 63 247
v -41 57 251
v -38 63 246
v -41 65 244
v -36 65 242
v -38 65 242
v -40 67 243
v -37 70 241
v -42 77 239
v -48 70 242
v -43 78 237
v -49 73 240
v -33 59 252
v -26 66 248
v -34 67 244
v -37 64 245
v -35 65 242
v -26 72 244
v -34 77 240
v -36 70 241
v -34 67 243
v -36 67 241
v -48 60 248
v -44 57 251
v -29 59 252
v -25 63 250
v -26 77 241
v -30 78 239
v 44 25 240
v 34 23 238
v 39 20 233
v 43 20 233
v 41 19 228
v 43 20 230
v 44 19 232
v 46 17 228
v 55 15 230
v 51 22 236
v 57 16 229
v 55 21 236
v 30 17 234
v 34 10 226
v 40 15 228
v 40 19 231
v 40 18 228
v 40 8 223
v 50 10 226
v 45 16 228
v 41 16 228
v 43 18 228
v 41 26 241
v 35 25 240
v 28 15 231
v 30 11 227
v 45 5 221
v 49 8 222
v 7 108 273
v 5 96 277
v 11 98 271
v 13 101 269
v 15 99 266
v 14 101 267
v 15 102 269
v 18 102 266
v 22 111 264
v 12 111 267
v 21 112 262
v 13 114 266
v 12 91 277
v 22 91 271
v 17 97 269
v 13 98 269
v 15 96 268
v 26 94 269
v 26 104 265
v 18 101 266
v 17 98 268
v 16 99 267
v 4 105 275
v 4 99 277
v 14 88 277
v 20 88 274
v 30 97 265
v 28 101 263
v -81 -24 226
v -80 -33 235
v -72 -30 232
v -72 -27 229
v -67 -28 229
v -70 -28 227
v -70 -25 228
v -66 -25 227
v -65 -17 221
v -74 -22 220
v -64 -18 220
v -74 -19 218
v -73 -31 241
v -63 -28 239
v -66 -28 232
v -70 -30 231
v -68 -29 232
v -60 -24 237
v -61 -19 228
v -66 -26 229
v -67 -27 231
v -82 -27 227
v -83 -31 233
v -72 -33 243
v -65 -29 242
v -56 -21 234
v -56 -20 229

f 1 2 3
f 1 3 4
f 4 3 5
f 4 5 6
f 4 6 7
f 7 6 8
f 7 8 9
f 7 9 10
f 10 9 11
f 10 11 12
f 13 14 15
f 13 15 16
f 16 15 17
f 16 17 5
f 16 5 3
f 18 19 20
f 18 20 21
f 21 20 22
f 21 22 17
f 21 17 15
f 22 6 5
f 22 5 17
f 8 22 20
f 22 8 6
f 23 24 2
f 23 2 1
f 25 26 14
f 25 14 13
f 27 28 19
f 27 19 18
f 29 30 31
f 29 31 32
f 32 31 33
f 32 33 34
f 32 34 35
f 35 34 36
f 35 36 37
f 35 37 38
f 38 37 39
f 38 39 40
f 41 42 43
f 41 43 44
f 44 43 45
f 44 45 33
f 44 33 31
f 46 47 48
f 46 48 49
f 49 48 50
f 49 50 45
f 49 45 43
f 50 34 33
f 50 33 45
f 36 50 48
f 50 36 34
f 51 52 30
f 51 30 29
f 53 54 42
f 53 42 41
f 55 56 47
f 55 47 46
f 57 58 59
f 57 59 60
f 60 59 61
f 60 61 62
f 60 62 63
f 63 62 64
f 63 64 65
f 63 65 66
f 66 65 67
f 66 67 68
f 69 70 71
f 69 71 72
f 72 71 73
f 72 73 61
f 72 61 59
f 74 75 76
f 74 76 77
f 77 76 78
f 77 78 73
f 77 73 71
f 78 62 61
f 78 61 73
f 64 78 76
f 78 64 62
f 79 80 58
f 79 58 57
f 81 82 70
f 81 70 69
f 83 84 75
f 83 75 74
f 85 86 87
f 85 87 88
f 88 87 89
f 88 89 90
f 88 90 91
f 91 90 92
f 91 92 93
f 91 93 94
f 94 93 95
f 94 95 96
f 97 98 99
f 97 99 100
f 100 99 101
f 100 101 89
f 100 89 87
f 102 103 104
f 102 104 105
f 105 104 106
f 105 106 101
f 105 101 99
f 106 90 89
f 106 89 101
f 92 106 104
f 106 92 90
f 107 108 86
f 107 86 85
f 109 110 98
f 109 98 97
f 111 112 103
f 111 103 102
f 113 114 115
f 113 115 116
f 116 115 117
f 116 117 118
f 116 118 119
f 119 118 120
f 119 120 121
f 119 121 122
f 122 121 123
f 122 123 124
f 125 126 127
f 125 127 128
f 128 127 129
f 128 129 117
f 128 117 115
f 130 131 132
f 130 132 133
f 133 132 134
f 133 134 129
f 133 129 127
f 134 118 117
f 134 117 129
f 120 134 132
f 134 120 118
f 135 136 114
f 135 114 113
f 137 138 126
f 137 126 125
f 139 140 131
f 139 131 130
f 141 142 143
f 141 143 144
f 144 143 145
f 144 145 146
f 144 146 147
f 147 146 148
f 147 148 149
f 147 149 150
f 150 149 151
f 150 151 152
f 153 154 155
f 153 155 156
f 156 155 157
f 156 157 145
f 156 145 143
f 158 159 160
f 158 160 161
f 161 160 162
f 161 162 157
f 161 157 155
f 162 146 145
f 162 145 157
f 148 162 160
f 162 148 146
f 163 164 142
f 163 142 141
f 165 166 154
f 165 154 153
f 167 168 159
f 167 159 158
f 169 170 171
f 169 171 172
f 172 171 173
f 172 173 174
f 172 174 175
f 175 174 176
f 175 176 177
f 175 177 178
f 178 177 179
f 178 179 180
f 181 182 183
f 181 183 184
f 184 183 185
f 184 185 173
f 184 173 171
f 186 187 188
f 186 188 189
f 189 188 173
f 189 173 185
f 189 185 183
f 176 173 188
f 173 176 174
f 190 191 170
f 190 170 169
f 192 193 182
f 192 182 181
f 194 195 187
f 194 187 186
