# RS2 Model 22254
# Vertices: 298
# Faces: 399

v 4 -64 195
v 4 -63 266
v 4 16 222
v 4 64 195
v 4 64 180
v 4 -64 180
v 4 64 0
v 4 -64 0
v -64 64 0
v -64 -64 0
v 44 -64 183
v 44 64 183
v 56 -64 208
v 56 64 208
v 63 64 213
v 63 -64 213
v 64 64 224
v 64 -64 224
v 56 64 224
v 56 40 224
v 56 24 224
v 56 2 224
v 56 -34 224
v 56 -64 224
v 28 -34 261
v 28 -64 269
v 1 -34 266
v 1 -64 274
v -14 -34 268
v -14 -64 276
v -21 -34 272
v -21 -64 280
v -29 -34 272
v -29 -64 280
v -29 -34 268
v -29 -64 276
v -61 -64 276
v -61 -34 268
v -61 -64 251
v -61 -36 244
v -61 2 243
v -61 -12 224
v -29 -12 224
v -29 -36 244
v -2 10 21
v 5 10 26
v 5 51 26
v -2 51 21
v -2 10 0
v -2 3 0
v -2 3 16
v 5 3 21
v -2 -3 21
v 5 -3 26
v -2 -18 21
v 5 -18 26
v -19 -23 52
v 5 -18 52
v 5 -18 74
v -19 -23 74
v -19 -23 91
v 5 -17 87
v -19 -1 106
v 5 2 104
v -19 7 128
v 5 12 128
v -19 7 154
v 5 12 154
v -19 -2 180
v 5 3 180
v -19 -21 201
v 5 -19 204
v -19 -47 208
v 5 -47 212
v -19 -51 214
v 5 -51 218
v -19 -64 214
v 5 -64 218
v -2 51 0
v -2 57 16
v -2 57 0
v -2 64 21
v -2 64 0
v -19 -36 52
v -19 -23 21
v -19 -37 21
v 5 -40 52
v 5 -40 74
v -19 -36 74
v -19 -34 99
v -19 -13 111
v -19 -5 129
v -19 -3 151
v -19 -12 173
v -19 -34 185
v -19 -51 188
v -19 -55 185
v -19 -64 185
v -2 -40 21
v 5 -40 26
v -2 -64 21
v 5 -64 26
v 5 -38 102
v 5 -17 113
v 5 -9 130
v 5 -7 149
v 5 -15 171
v 5 -34 182
v -19 -41 0
v -2 -45 0
v -2 -64 0
v -19 -17 0
v -2 -12 0
v -2 -3 0
v -61 8 207
v -61 40 207
v -57 38 186
v -57 10 186
v -29 8 207
v -61 24 224
v -61 40 239
v -61 57 220
v -29 57 220
v -29 40 207
v -29 38 186
v -32 35 179
v -54 35 179
v -54 13 179
v -29 10 186
v -42 8 30
v -42 7 0
v -28 16 0
v -29 16 30
v -33 19 37
v -42 13 37
v -55 17 30
v -56 17 0
v -55 32 30
v -56 32 0
v -42 40 30
v -42 41 0
v -29 31 30
v -28 31 0
v -33 29 37
v -33 29 64
v -33 19 64
v -42 13 64
v -51 19 37
v -51 29 37
v -42 35 37
v -42 35 64
v -42 33 83
v -35 28 83
v -35 20 83
v -42 15 83
v -51 19 64
v -51 29 64
v -49 28 83
v -49 28 141
v -42 33 141
v -35 28 141
v -35 20 141
v -42 15 141
v -49 20 83
v -49 20 141
v -51 19 158
v -51 29 158
v -42 35 158
v -33 29 158
v -33 19 158
v -42 13 158
v -29 24 224
v -29 40 239
v -29 2 243
v -29 2 247
v -29 24 228
v -29 40 243
v -29 64 251
v -21 2 247
v -21 24 228
v -21 40 243
v -29 64 255
v -61 64 251
v -61 64 222
v -42 13 179
v -51 19 179
v -51 29 179
v -42 35 179
v -33 29 179
v -33 19 179
v -32 13 179
v 1 40 237
v 1 24 224
v 28 24 224
v 28 40 232
v 1 64 249
v -14 64 251
v -14 40 239
v -14 24 224
v 1 2 241
v 28 2 236
v 28 64 244
v -14 2 243
v -21 64 255
v 5 57 21
v 5 64 26
v 3 64 104
v 3 14 104
v 3 21 126
v 3 23 144
v 3 64 177
v 3 22 161
v 3 14 177
v 4 8 181
v 4 64 181
v 4 64 101
v 4 9 101
v 4 17 125
v 4 20 143
v 4 18 160
v 3 -64 105
v 3 -64 176
v 3 -54 106
v 4 -53 104
v 4 -64 104
v 3 -29 120
v 4 -26 118
v 3 -33 171
v 3 -20 144
v 4 -16 144
v 4 -30 173
v 3 64 35
v 3 -9 35
v 3 -9 77
v 3 64 77
v 4 -15 79
v 4 64 79
v 4 64 32
v 4 -14 32
v 3 -52 78
v 3 -52 36
v 3 -64 36
v 3 -64 78
v 4 -64 80
v 4 -46 80
v 4 -47 33
v 4 -64 33
v 4 -4 94
v 3 64 92
v 3 -1 92
v 4 -11 86
v 3 -2 89
v 4 64 86
v 3 64 89
v 3 -53 93
v 3 -52 90
v 3 -64 90
v 3 -64 93
v 4 -64 95
v 4 -48 95
v 4 -47 87
v 4 -64 87
v 4 64 94
v 43 -64 154
v 43 64 154
v 43 -64 0
v 43 64 0
v 4 64 224
v 44 64 57
v 44 14 56
v 44 21 41
v 44 23 27
v 44 64 3
v 44 22 14
v 44 14 2
v 43 8 0
v 43 64 59
v 43 9 58
v 43 17 41
v 43 20 28
v 43 18 15
v 44 -64 57
v 44 -64 3
v 44 -54 56
v 43 -53 58
v 43 -64 59
v 44 -29 45
v 43 -26 47
v 44 -33 7
v 44 -20 27
v 43 -16 27
v 43 -30 5
v -37 -34 257
v 75 -39 220
v -43 81 247
v 49 -127 0
v 49 1 0
v -69 -127 0

f 1 2 3
f 1 3 4
f 1 4 5
f 1 5 6
f 6 5 7
f 6 7 8
f 8 7 9
f 8 9 10
f 11 12 13
f 13 12 14
f 13 14 15
f 13 15 16
f 16 15 17
f 16 17 18
f 18 17 19
f 18 19 20
f 18 20 21
f 18 21 22
f 18 22 23
f 18 23 24
f 24 23 25
f 24 25 26
f 26 25 27
f 26 27 28
f 28 27 29
f 28 29 30
f 30 29 31
f 30 31 32
f 32 31 33
f 32 33 34
f 34 33 35
f 34 35 36
f 36 35 37
f 37 35 38
f 37 38 39
f 39 38 40
f 40 38 41
f 40 41 42
f 40 42 43
f 40 43 44
f 45 46 47
f 45 47 48
f 45 48 49
f 45 49 50
f 45 50 51
f 45 51 46
f 46 51 52
f 52 51 53
f 52 53 54
f 54 53 55
f 54 55 56
f 56 55 57
f 56 57 58
f 58 57 59
f 59 57 60
f 59 60 61
f 59 61 62
f 62 61 63
f 62 63 64
f 64 63 65
f 64 65 66
f 66 65 67
f 66 67 68
f 68 67 69
f 68 69 70
f 70 69 71
f 70 71 72
f 72 71 73
f 72 73 74
f 74 73 75
f 74 75 76
f 76 75 77
f 76 77 78
f 49 48 79
f 79 48 80
f 79 80 81
f 81 80 82
f 81 82 83
f 84 57 85
f 84 85 86
f 84 86 87
f 84 87 88
f 84 88 89
f 84 89 57
f 57 89 60
f 60 89 90
f 60 90 61
f 61 90 91
f 61 91 63
f 63 91 92
f 63 92 65
f 65 92 93
f 65 93 67
f 67 93 94
f 67 94 69
f 69 94 95
f 69 95 71
f 71 95 96
f 71 96 73
f 73 96 97
f 73 97 75
f 75 97 98
f 75 98 77
f 87 86 99
f 87 99 100
f 100 99 101
f 100 101 102
f 89 88 103
f 89 103 90
f 90 103 104
f 90 104 91
f 91 104 105
f 91 105 92
f 92 105 106
f 92 106 93
f 93 106 107
f 93 107 94
f 94 107 108
f 94 108 95
f 99 109 110
f 99 110 111
f 99 111 101
f 112 109 86
f 112 86 85
f 112 85 55
f 112 55 113
f 113 55 53
f 113 53 114
f 114 53 51
f 114 51 50
f 115 116 117
f 115 117 118
f 115 118 119
f 115 119 43
f 115 43 42
f 115 42 120
f 115 120 116
f 116 120 121
f 116 121 122
f 116 122 123
f 116 123 124
f 116 124 125
f 116 125 117
f 117 125 126
f 117 126 127
f 117 127 118
f 118 127 128
f 118 128 129
f 118 129 119
f 130 131 132
f 130 132 133
f 130 133 134
f 130 134 135
f 130 135 136
f 130 136 131
f 131 136 137
f 137 136 138
f 137 138 139
f 139 138 140
f 139 140 141
f 141 140 142
f 141 142 143
f 143 142 133
f 143 133 132
f 133 142 144
f 133 144 134
f 134 144 145
f 134 145 146
f 134 146 135
f 135 146 147
f 135 147 148
f 135 148 136
f 136 148 138
f 138 148 149
f 138 149 140
f 140 149 150
f 140 150 142
f 142 150 144
f 144 150 151
f 144 151 145
f 145 151 152
f 145 152 153
f 145 153 146
f 146 153 154
f 146 154 147
f 147 154 155
f 147 155 156
f 147 156 148
f 148 156 149
f 149 156 157
f 149 157 150
f 150 157 151
f 151 157 158
f 151 158 152
f 152 158 159
f 152 159 160
f 152 160 153
f 153 160 161
f 153 161 154
f 154 161 162
f 154 162 155
f 155 162 163
f 155 163 164
f 155 164 156
f 156 164 157
f 157 164 158
f 158 164 165
f 158 165 159
f 159 165 166
f 159 166 167
f 159 167 160
f 160 167 168
f 160 168 161
f 161 168 169
f 161 169 162
f 162 169 170
f 162 170 163
f 163 170 171
f 163 171 165
f 163 165 164
f 172 173 120
f 172 120 41
f 172 41 174
f 172 174 175
f 172 175 176
f 172 176 173
f 173 176 177
f 173 177 178
f 173 178 121
f 173 121 120
f 120 42 41
f 174 41 38
f 174 38 35
f 174 35 33
f 174 33 175
f 175 33 31
f 175 31 179
f 175 179 176
f 176 179 180
f 176 180 177
f 177 180 181
f 177 181 182
f 177 182 178
f 122 121 183
f 122 183 184
f 121 178 183
f 165 171 166
f 166 171 185
f 166 185 186
f 166 186 167
f 167 186 187
f 167 187 168
f 168 187 188
f 168 188 169
f 169 188 189
f 169 189 170
f 170 189 190
f 170 190 171
f 171 190 185
f 129 128 191
f 192 193 194
f 192 194 195
f 192 195 196
f 192 196 197
f 192 197 198
f 192 198 193
f 193 198 199
f 193 199 200
f 193 200 201
f 193 201 194
f 194 201 22
f 194 22 21
f 194 21 195
f 195 21 20
f 195 20 202
f 195 202 196
f 200 27 25
f 200 25 201
f 201 25 23
f 201 23 22
f 202 20 19
f 199 203 200
f 200 203 27
f 27 203 29
f 29 203 179
f 29 179 31
f 199 198 181
f 199 181 180
f 199 180 203
f 203 180 179
f 198 197 204
f 198 204 181
f 181 204 182
f 57 55 85
f 109 99 86
f 48 47 205
f 48 205 80
f 80 205 206
f 80 206 82
f 207 208 209
f 207 209 210
f 207 210 211
f 211 210 212
f 211 212 213
f 211 213 214
f 211 214 215
f 216 217 208
f 216 208 207
f 217 218 209
f 217 209 208
f 212 219 220
f 212 220 213
f 213 220 214
f 218 219 210
f 218 210 209
f 219 212 210
f 221 222 223
f 221 223 224
f 221 224 225
f 222 226 223
f 223 226 227
f 223 227 224
f 222 228 229
f 222 229 226
f 226 229 230
f 226 230 227
f 228 222 6
f 228 6 231
f 228 231 229
f 229 231 230
f 232 233 234
f 232 234 235
f 235 234 236
f 235 236 237
f 238 239 233
f 238 233 232
f 239 236 234
f 239 234 233
f 240 241 242
f 240 242 243
f 240 243 244
f 240 244 245
f 240 245 241
f 241 245 246
f 241 246 242
f 242 246 247
f 248 249 250
f 248 250 251
f 251 250 252
f 251 252 253
f 253 252 254
f 254 252 250
f 254 250 249
f 255 256 257
f 255 257 258
f 255 258 259
f 255 259 260
f 255 260 256
f 256 260 261
f 256 261 257
f 257 261 262
f 248 263 249
f 12 11 264
f 12 264 265
f 265 264 266
f 265 266 267
f 3 268 4
f 269 270 271
f 269 271 272
f 269 272 273
f 273 272 274
f 273 274 275
f 273 275 276
f 273 276 267
f 277 278 270
f 277 270 269
f 278 279 271
f 278 271 270
f 274 280 281
f 274 281 275
f 275 281 276
f 279 280 272
f 279 272 271
f 280 274 272
f 282 283 284
f 282 284 285
f 282 285 286
f 283 287 284
f 284 287 288
f 284 288 285
f 283 289 290
f 283 290 287
f 287 290 291
f 287 291 288
f 289 283 266
f 289 266 292
f 289 292 290
f 290 292 291
f 293 294 295
