# RS2 Model 22305
# Vertices: 54
# Faces: 76

v -56 10 155
v -58 4 151
v -60 11 145
v -58 15 148
v -60 18 150
v -58 15 159
v -58 9 165
v -56 4 162
v -58 0 159
v -64 3 150
v -64 10 143
v -64 20 137
v -62 21 138
v -61 22 138
v -62 23 139
v -64 21 152
v -64 17 160
v -64 11 167
v -64 11 173
v -56 8 170
v -53 2 165
v -56 -5 161
v -64 -3 157
v -64 -9 152
v -64 -3 145
v -64 22 138
v -64 24 140
v -64 -8 158
v -60 1 162
v -64 0 161
v -56 -8 167
v -64 -11 164
v -56 -13 174
v -64 -17 171
v -59 -17 179
v -64 -20 177
v -64 -14 185
v -56 -12 182
v -59 -7 185
v -64 -5 187
v -56 -2 181
v -64 0 185
v -56 4 174
v -64 5 178
v -60 6 164
v -64 6 166
v -60 4 163
v -53 -3 171
v -53 -8 178
v -64 23 164
v -64 18 172
v -79 41 303
v -79 -135 171
v -54 130 175

f 1 2 3
f 1 3 4
f 1 4 5
f 1 5 6
f 1 6 7
f 1 7 8
f 1 8 2
f 2 8 9
f 2 9 10
f 2 10 3
f 3 10 11
f 3 11 12
f 3 12 13
f 3 13 4
f 4 13 14
f 4 14 5
f 5 14 15
f 5 15 16
f 5 16 6
f 6 16 17
f 6 17 18
f 6 18 7
f 7 18 19
f 7 19 20
f 7 20 8
f 8 20 21
f 8 21 9
f 9 21 22
f 9 22 23
f 9 23 10
f 10 23 24
f 10 24 25
f 14 13 12
f 14 12 26
f 14 26 27
f 14 27 15
f 15 27 16
f 22 28 23
f 28 22 29
f 28 29 30
f 30 29 31
f 30 31 32
f 32 31 33
f 32 33 34
f 34 33 35
f 34 35 36
f 36 35 37
f 37 35 38
f 37 38 39
f 37 39 40
f 40 39 41
f 40 41 42
f 42 41 43
f 42 43 44
f 44 43 45
f 44 45 46
f 46 45 20
f 46 20 19
f 47 29 22
f 47 22 21
f 47 21 45
f 47 45 43
f 47 43 48
f 47 48 29
f 29 48 31
f 31 48 49
f 31 49 33
f 33 49 38
f 33 38 35
f 45 21 20
f 41 49 48
f 41 48 43
f 39 38 49
f 39 49 41
f 18 17 50
f 18 50 51
