# RS2 Model 2231
# Vertices: 294
# Faces: 324

v 15 -5 22
v 19 -15 22
v 22 -6 29
v 23 3 29
v 16 4 22
v 15 -5 12
v 19 -15 12
v 30 -16 22
v 32 -8 29
v 33 2 29
v 24 11 22
v 24 11 12
v 16 4 12
v 22 -6 5
v 32 -8 5
v 30 -16 12
v 48 -9 18
v 49 -6 18
v 34 11 22
v 34 11 12
v 23 3 5
v 33 2 5
v 48 -9 16
v 49 -9 18
v 50 -7 18
v 50 -7 16
v 49 -6 16
v 49 -9 16
v 53 -11 19
v 54 -5 19
v 54 -5 15
v 53 -11 15
v 8 56 18
v -1 58 18
v 3 53 25
v 8 44 25
v 15 47 18
v 8 56 8
v -1 58 8
v -11 53 18
v -5 47 25
v 0 37 25
v 14 38 18
v 14 38 8
v 15 47 8
v 3 53 1
v -5 47 1
v -11 53 8
v -18 36 14
v -15 34 14
v 3 31 18
v 3 31 8
v 8 44 1
v 0 37 1
v -18 36 12
v -20 32 14
v -19 32 14
v -19 32 12
v -15 34 12
v -20 32 12
v -22 35 15
v -18 29 15
v -18 29 11
v -22 35 11
v -14 -38 18
v -14 -28 18
v -18 -33 25
v -25 -42 25
v -21 -45 18
v -14 -38 8
v -14 -28 8
v -19 -20 18
v -26 -26 25
v -34 -33 25
v -31 -46 18
v -31 -46 8
v -21 -45 8
v -18 -33 1
v -26 -26 1
v -19 -20 8
v -40 -16 14
v -41 -18 14
v -38 -38 18
v -38 -38 8
v -25 -42 1
v -34 -33 1
v -40 -16 12
v -43 -16 14
v -41 -16 14
v -41 -16 12
v -41 -18 12
v -43 -16 12
v -42 -12 15
v -44 -15 15
v -44 -15 11
v -42 -12 11
v -3 42 15
v -14 35 13
v -14 35 17
v 16 55 17
v 16 55 13
v 5 48 15
v 2 45 10
v 3 47 -2
v 0 44 -2
v 0 44 32
v 3 47 32
v 2 45 20
v -1 44 19
v -10 38 26
v -8 41 29
v 13 52 5
v 10 51 2
v 5 48 12
v -1 44 12
v -8 41 2
v -10 38 5
v 10 51 29
v 13 52 26
v 5 48 19
v -14 38 15
v -12 34 15
v 17 54 15
v 15 57 15
v -2 49 15
v -5 61 15
v -10 59 15
v 8 29 15
v 12 32 15
v 4 41 15
v 1 40 15
v -4 30 15
v 0 28 15
v 8 62 15
v 5 61 15
v 3 51 15
v -3 47 15
v -14 49 15
v -16 46 15
v 17 39 15
v 18 44 15
v 6 44 15
v -7 60 13
v -7 60 17
v 12 31 17
v 12 31 13
v 2 44 -2
v 0 47 -2
v 0 47 32
v 2 44 32
v 0 48 19
v -5 56 26
v -4 53 29
v 8 33 5
v 7 36 2
v 4 42 12
v 0 48 12
v -4 53 2
v -5 56 5
v 7 36 29
v 8 33 26
v 4 42 19
v 23 -4 15
v 13 -12 13
v 13 -12 17
v 42 7 17
v 42 7 13
v 32 -1 15
v 28 -2 10
v 30 -2 -2
v 27 -4 -2
v 27 -4 32
v 30 -2 32
v 28 -2 20
v 24 -4 19
v 17 -11 26
v 19 -9 29
v 39 5 5
v 38 4 2
v 30 0 12
v 24 -4 12
v 19 -9 2
v 17 -11 5
v 38 4 29
v 39 5 26
v 30 0 19
v 13 -11 15
v 14 -12 15
v 43 4 15
v 40 7 15
v 26 1 15
v 20 11 15
v 17 9 15
v 35 -18 15
v 39 -17 15
v 30 -8 15
v 26 -7 15
v 21 -18 15
v 26 -19 15
v 34 13 15
v 30 12 15
v 30 2 15
v 23 -1 15
v 13 4 15
v 12 0 15
v 44 -10 15
v 46 -6 15
v 33 -3 15
v 19 10 13
v 19 10 17
v 37 -17 17
v 37 -17 13
v 29 -6 -2
v 27 -2 -2
v 27 -2 32
v 29 -6 32
v 26 0 19
v 22 8 26
v 22 7 29
v 35 -16 5
v 34 -13 2
v 29 -6 12
v 26 0 12
v 22 7 2
v 22 8 5
v 34 -13 29
v 35 -16 26
v 29 -6 19
v -29 -35 15
v -40 -40 13
v -40 -40 17
v -12 -24 17
v -12 -24 13
v -22 -32 15
v -25 -31 10
v -23 -33 -2
v -28 -34 -2
v -28 -34 32
v -23 -33 32
v -25 -31 20
v -28 -35 19
v -37 -39 26
v -35 -38 29
v -13 -26 5
v -17 -26 2
v -22 -32 12
v -28 -35 12
v -35 -38 2
v -37 -39 5
v -17 -26 29
v -13 -26 26
v -22 -32 19
v -40 -40 15
v -39 -43 15
v -10 -26 15
v -11 -21 15
v -28 -29 15
v -33 -17 15
v -35 -19 15
v -19 -47 15
v -16 -46 15
v -24 -36 15
v -28 -38 15
v -31 -48 15
v -27 -50 15
v -18 -18 15
v -23 -15 15
v -25 -26 15
v -29 -33 15
v -40 -26 15
v -43 -31 15
v -10 -41 15
v -7 -35 15
v -19 -34 15
v -35 -17 13
v -35 -17 17
v -17 -47 17
v -17 -47 13
v -25 -34 -2
v -26 -30 -2
v -26 -30 32
v -25 -34 32
v -26 -29 19
v -32 -22 26
v -30 -25 29
v -18 -45 5
v -21 -43 2
v -24 -36 12
v -26 -29 12
v -30 -25 2
v -32 -22 5
v -21 -43 29
v -18 -45 26
v -24 -36 19

f 1 2 3
f 1 3 4
f 1 4 5
f 1 5 6
f 1 6 2
f 2 6 7
f 2 7 8
f 2 8 3
f 3 8 9
f 3 9 10
f 3 10 4
f 4 10 11
f 4 11 5
f 5 11 12
f 5 12 13
f 5 13 6
f 6 13 14
f 6 14 7
f 7 14 15
f 7 15 16
f 7 16 8
f 8 16 17
f 8 17 9
f 9 17 18
f 9 18 10
f 10 18 19
f 10 19 11
f 11 19 20
f 11 20 12
f 12 20 21
f 12 21 13
f 13 21 14
f 14 21 15
f 15 21 22
f 15 22 23
f 15 23 16
f 16 23 17
f 17 23 24
f 17 24 25
f 17 25 18
f 18 25 26
f 18 26 27
f 18 27 19
f 19 27 20
f 20 27 22
f 20 22 21
f 22 27 23
f 23 27 28
f 23 28 24
f 24 28 29
f 24 29 30
f 24 30 25
f 25 30 31
f 25 31 26
f 26 31 32
f 26 32 28
f 26 28 27
f 28 32 29
f 29 32 30
f 30 32 31
f 33 34 35
f 33 35 36
f 33 36 37
f 33 37 38
f 33 38 34
f 34 38 39
f 34 39 40
f 34 40 35
f 35 40 41
f 35 41 42
f 35 42 36
f 36 42 43
f 36 43 37
f 37 43 44
f 37 44 45
f 37 45 38
f 38 45 46
f 38 46 39
f 39 46 47
f 39 47 48
f 39 48 40
f 40 48 49
f 40 49 41
f 41 49 50
f 41 50 42
f 42 50 51
f 42 51 43
f 43 51 52
f 43 52 44
f 44 52 53
f 44 53 45
f 45 53 46
f 46 53 47
f 47 53 54
f 47 54 55
f 47 55 48
f 48 55 49
f 49 55 56
f 49 56 57
f 49 57 50
f 50 57 58
f 50 58 59
f 50 59 51
f 51 59 52
f 52 59 54
f 52 54 53
f 54 59 55
f 55 59 60
f 55 60 56
f 56 60 61
f 56 61 62
f 56 62 57
f 57 62 63
f 57 63 58
f 58 63 64
f 58 64 60
f 58 60 59
f 60 64 61
f 61 64 62
f 62 64 63
f 65 66 67
f 65 67 68
f 65 68 69
f 65 69 70
f 65 70 66
f 66 70 71
f 66 71 72
f 66 72 67
f 67 72 73
f 67 73 74
f 67 74 68
f 68 74 75
f 68 75 69
f 69 75 76
f 69 76 77
f 69 77 70
f 70 77 78
f 70 78 71
f 71 78 79
f 71 79 80
f 71 80 72
f 72 80 81
f 72 81 73
f 73 81 82
f 73 82 74
f 74 82 83
f 74 83 75
f 75 83 84
f 75 84 76
f 76 84 85
f 76 85 77
f 77 85 78
f 78 85 79
f 79 85 86
f 79 86 87
f 79 87 80
f 80 87 81
f 81 87 88
f 81 88 89
f 81 89 82
f 82 89 90
f 82 90 91
f 82 91 83
f 83 91 84
f 84 91 86
f 84 86 85
f 86 91 87
f 87 91 92
f 87 92 88
f 88 92 93
f 88 93 94
f 88 94 89
f 89 94 95
f 89 95 90
f 90 95 96
f 90 96 92
f 90 92 91
f 92 96 93
f 93 96 94
f 94 96 95
f 97 98 99
f 97 99 98
f 100 101 102
f 100 102 101
f 103 104 105
f 103 105 104
f 106 107 108
f 106 108 107
f 109 110 111
f 109 111 110
f 112 113 114
f 112 114 113
f 115 116 117
f 115 117 116
f 118 119 120
f 118 120 119
f 97 121 122
f 97 122 121
f 123 124 102
f 123 102 124
f 125 126 127
f 125 127 126
f 128 129 130
f 128 130 129
f 131 132 133
f 131 133 132
f 134 135 136
f 134 136 135
f 137 138 139
f 137 139 138
f 140 141 142
f 140 142 141
f 125 143 144
f 125 144 143
f 145 146 130
f 145 130 146
f 103 147 148
f 103 148 147
f 149 150 108
f 149 108 150
f 151 152 153
f 151 153 152
f 154 155 156
f 154 156 155
f 157 158 159
f 157 159 158
f 160 161 162
f 160 162 161
f 163 164 165
f 163 165 164
f 166 167 168
f 166 168 167
f 169 170 171
f 169 171 170
f 172 173 174
f 172 174 173
f 175 176 177
f 175 177 176
f 178 179 180
f 178 180 179
f 181 182 183
f 181 183 182
f 184 185 186
f 184 186 185
f 163 187 188
f 163 188 187
f 189 190 168
f 189 168 190
f 191 192 193
f 191 193 192
f 194 195 196
f 194 196 195
f 197 198 199
f 197 199 198
f 200 201 202
f 200 202 201
f 203 204 205
f 203 205 204
f 206 207 208
f 206 208 207
f 191 209 210
f 191 210 209
f 211 212 196
f 211 196 212
f 169 213 214
f 169 214 213
f 215 216 174
f 215 174 216
f 217 218 219
f 217 219 218
f 220 221 222
f 220 222 221
f 223 224 225
f 223 225 224
f 226 227 228
f 226 228 227
f 229 230 231
f 229 231 230
f 232 233 234
f 232 234 233
f 235 236 237
f 235 237 236
f 238 239 240
f 238 240 239
f 241 242 243
f 241 243 242
f 244 245 246
f 244 246 245
f 247 248 249
f 247 249 248
f 250 251 252
f 250 252 251
f 229 253 254
f 229 254 253
f 255 256 234
f 255 234 256
f 257 258 259
f 257 259 258
f 260 261 262
f 260 262 261
f 263 264 265
f 263 265 264
f 266 267 268
f 266 268 267
f 269 270 271
f 269 271 270
f 272 273 274
f 272 274 273
f 257 275 276
f 257 276 275
f 277 278 262
f 277 262 278
f 235 279 280
f 235 280 279
f 281 282 240
f 281 240 282
f 283 284 285
f 283 285 284
f 286 287 288
f 286 288 287
f 289 290 291
f 289 291 290
f 292 293 294
f 292 294 293
