# RS2 Model 22324
# Vertices: 70
# Faces: 132

v -9 -61 4
v -1 -62 0
v 6 -65 3
v -1 -65 10
v -9 -64 17
v -6 -31 26
v -6 -30 16
v 0 -31 12
v 8 -61 4
v 8 -64 16
v -1 -64 19
v -6 -57 21
v -4 -49 24
v 0 -34 29
v -2 -30 29
v -8 -25 26
v -8 -22 11
v 0 -22 7
v 8 -22 11
v 6 -30 16
v 6 -31 26
v 5 -56 22
v 0 -49 25
v 5 -30 27
v 4 -24 28
v 0 -25 30
v 0 -20 26
v 1 -6 21
v -5 -8 19
v -3 8 14
v -3 6 10
v 1 5 8
v 4 6 10
v 5 8 14
v 7 -8 19
v 8 -25 26
v 1 8 17
v -3 0 17
v 1 15 15
v -3 14 12
v -3 11 9
v 1 13 6
v 6 11 9
v 5 14 12
v 4 -7 20
v 6 27 2
v 1 24 0
v -6 42 15
v -2 42 15
v 1 40 15
v 5 40 15
v 7 40 14
v 6 26 12
v 6 23 4
v 1 20 4
v -4 23 4
v -6 27 2
v -5 39 20
v -1 40 20
v 2 38 19
v 5 38 19
v 7 38 18
v 1 26 14
v 5 20 11
v 6 18 8
v 1 17 6
v -3 18 8
v -4 26 12
v -3 20 11
v 1 19 14

f 1 2 3
f 1 3 4
f 1 4 5
f 1 5 6
f 1 6 7
f 1 7 8
f 1 8 2
f 2 8 9
f 2 9 3
f 3 9 10
f 3 10 4
f 4 10 11
f 4 11 5
f 5 11 12
f 5 12 6
f 6 12 13
f 6 13 14
f 6 14 15
f 6 15 16
f 6 16 7
f 7 16 17
f 7 17 18
f 7 18 8
f 8 18 19
f 8 19 20
f 8 20 9
f 9 20 21
f 9 21 10
f 10 21 22
f 10 22 11
f 11 22 12
f 12 22 13
f 13 22 23
f 13 23 14
f 14 23 21
f 14 21 24
f 14 24 25
f 14 25 15
f 15 25 26
f 15 26 16
f 16 26 27
f 16 27 28
f 16 28 29
f 16 29 17
f 17 29 30
f 17 30 31
f 17 31 32
f 17 32 18
f 18 32 19
f 19 32 33
f 19 33 34
f 19 34 35
f 19 35 36
f 19 36 20
f 20 36 21
f 21 36 24
f 24 36 25
f 25 36 27
f 25 27 26
f 28 37 38
f 28 38 29
f 29 38 30
f 30 38 37
f 30 37 39
f 30 39 40
f 30 40 31
f 31 40 41
f 31 41 32
f 32 41 42
f 32 42 43
f 32 43 33
f 33 43 44
f 33 44 34
f 34 44 37
f 34 37 45
f 34 45 35
f 35 45 36
f 36 45 28
f 36 28 27
f 46 47 48
f 46 48 49
f 46 49 50
f 46 50 51
f 46 51 52
f 46 52 53
f 46 53 54
f 46 54 47
f 47 54 55
f 47 55 56
f 47 56 57
f 47 57 48
f 48 57 58
f 48 58 59
f 48 59 49
f 49 59 50
f 50 59 60
f 50 60 51
f 51 60 61
f 51 61 52
f 52 61 62
f 52 62 53
f 53 62 61
f 53 61 60
f 53 60 63
f 53 63 64
f 53 64 65
f 53 65 54
f 54 65 66
f 54 66 55
f 55 66 56
f 56 66 67
f 56 67 68
f 56 68 57
f 57 68 58
f 58 68 59
f 59 68 60
f 60 68 63
f 63 68 69
f 63 69 70
f 63 70 64
f 64 70 39
f 64 39 44
f 64 44 43
f 64 43 65
f 37 44 39
f 68 67 69
f 69 67 40
f 69 40 70
f 70 40 39
f 21 23 22
f 45 37 28
f 40 67 41
