# RS2 Model 2258
# Vertices: 125
# Faces: 228

v -58 10 153
v -58 10 228
v -58 -11 228
v -58 -11 153
v -64 -11 228
v -64 -11 153
v -64 10 228
v -64 10 153
v -58 -2 185
v -43 -2 214
v -43 2 214
v -58 2 185
v -58 2 176
v -37 2 214
v -37 -2 214
v -58 -2 176
v 2 4 214
v -3 4 223
v -3 -5 223
v 2 -5 214
v -58 -5 223
v -58 -5 214
v -58 4 223
v -58 4 214
v -17 7 224
v -23 7 224
v -23 -7 224
v -17 -7 224
v -24 1 201
v -8 -5 177
v -11 -2 181
v -24 1 197
v -14 21 185
v -18 17 187
v -25 1 197
v -41 15 183
v -38 11 185
v -25 0 196
v -35 -10 176
v -31 -8 179
v -24 0 196
v -13 -6 180
v -14 -2 178
v -32 -5 177
v -24 1 196
v -14 16 187
v -17 15 183
v -35 -6 180
v -35 13 182
v -36 15 186
v -13 -3 178
v -11 -5 177
v -12 -3 96
v -2 -21 74
v -3 -15 77
v -11 -4 91
v 5 6 74
v 1 6 77
v -11 -2 91
v -21 14 74
v -20 9 77
v -13 -3 91
v -30 -12 74
v -24 -12 77
v -12 -4 91
v -7 -17 77
v -6 -15 74
v -23 -10 74
v -12 -3 90
v 2 2 77
v -1 2 74
v -26 -8 77
v -18 8 74
v -17 11 77
v -33 -7 136
v -37 -27 114
v -34 -22 117
v -33 -8 131
v -14 -11 114
v -18 -8 117
v -32 -7 131
v -29 12 114
v -32 8 117
v -34 -6 131
v -53 -3 114
v -48 -6 117
v -34 -8 131
v -38 -21 117
v -36 -20 114
v -46 -5 114
v -33 -7 130
v -19 -12 117
v -21 -10 114
v -47 -2 117
v -31 5 114
v -28 7 117
v -33 -5 177
v -33 -8 177
v -16 18 177
v 3 22 155
v -2 23 158
v -15 19 172
v -20 37 155
v -21 32 158
v -17 18 172
v -35 14 155
v -30 13 158
v -17 17 172
v -12 -2 155
v -11 4 158
v -15 17 172
v -1 18 158
v -4 20 155
v -14 5 155
v -16 18 171
v -17 33 158
v -19 30 155
v -15 3 158
v -29 15 155
v -31 17 158
v -16 19 185
v -16 16 185
v -24 -1 200
v -17 -8 224
v -23 -8 224

f 1 2 3
f 1 3 4
f 4 3 5
f 4 5 6
f 7 5 3
f 7 3 2
f 7 2 8
f 8 2 1
f 9 10 11
f 9 11 12
f 12 11 13
f 13 11 14
f 13 14 15
f 13 15 16
f 16 15 9
f 9 15 10
f 17 18 19
f 17 19 20
f 20 19 21
f 20 21 22
f 23 21 19
f 23 19 18
f 23 18 24
f 24 18 17
f 25 26 27
f 25 27 28
f 29 30 31
f 29 31 32
f 29 32 33
f 29 33 34
f 29 34 35
f 29 35 36
f 29 36 37
f 29 37 38
f 29 38 39
f 29 39 40
f 29 40 41
f 29 41 30
f 30 41 42
f 30 42 39
f 39 42 40
f 40 42 43
f 40 43 44
f 40 44 45
f 40 45 41
f 41 45 43
f 41 43 42
f 32 46 33
f 33 46 30
f 30 46 31
f 31 46 47
f 31 47 43
f 31 43 45
f 31 45 32
f 32 45 47
f 32 47 46
f 38 48 39
f 39 48 36
f 36 48 37
f 37 48 44
f 37 44 49
f 37 49 45
f 37 45 38
f 38 45 44
f 38 44 48
f 35 50 36
f 36 50 33
f 33 50 34
f 34 50 49
f 34 49 47
f 34 47 45
f 34 45 35
f 35 45 49
f 35 49 50
f 26 25 29
f 26 29 25
f 51 52 53
f 51 53 52
f 53 54 55
f 53 55 56
f 53 56 57
f 53 57 58
f 53 58 59
f 53 59 60
f 53 60 61
f 53 61 62
f 53 62 63
f 53 63 64
f 53 64 65
f 53 65 54
f 54 65 66
f 54 66 63
f 63 66 64
f 64 66 67
f 64 67 68
f 64 68 69
f 64 69 65
f 65 69 67
f 65 67 66
f 56 70 57
f 57 70 54
f 54 70 55
f 55 70 71
f 55 71 67
f 55 67 69
f 55 69 56
f 56 69 71
f 56 71 70
f 62 72 63
f 63 72 60
f 60 72 61
f 61 72 68
f 61 68 73
f 61 73 69
f 61 69 62
f 62 69 68
f 62 68 72
f 59 74 60
f 60 74 57
f 57 74 58
f 58 74 73
f 58 73 71
f 58 71 69
f 58 69 59
f 59 69 73
f 59 73 74
f 75 76 77
f 75 77 78
f 75 78 79
f 75 79 80
f 75 80 81
f 75 81 82
f 75 82 83
f 75 83 84
f 75 84 85
f 75 85 86
f 75 86 87
f 75 87 76
f 76 87 88
f 76 88 85
f 85 88 86
f 86 88 89
f 86 89 90
f 86 90 91
f 86 91 87
f 87 91 89
f 87 89 88
f 78 92 79
f 79 92 76
f 76 92 77
f 77 92 93
f 77 93 89
f 77 89 91
f 77 91 78
f 78 91 93
f 78 93 92
f 84 94 85
f 85 94 82
f 82 94 83
f 83 94 90
f 83 90 95
f 83 95 91
f 83 91 84
f 84 91 90
f 84 90 94
f 81 96 82
f 82 96 79
f 79 96 80
f 80 96 95
f 80 95 93
f 80 93 91
f 80 91 81
f 81 91 95
f 81 95 96
f 97 98 75
f 97 75 98
f 99 100 101
f 99 101 102
f 99 102 103
f 99 103 104
f 99 104 105
f 99 105 106
f 99 106 107
f 99 107 108
f 99 108 109
f 99 109 110
f 99 110 111
f 99 111 100
f 100 111 112
f 100 112 109
f 109 112 110
f 110 112 113
f 110 113 114
f 110 114 115
f 110 115 111
f 111 115 113
f 111 113 112
f 102 116 103
f 103 116 100
f 100 116 101
f 101 116 117
f 101 117 113
f 101 113 115
f 101 115 102
f 102 115 117
f 102 117 116
f 108 118 109
f 109 118 106
f 106 118 107
f 107 118 114
f 107 114 119
f 107 119 115
f 107 115 108
f 108 115 114
f 108 114 118
f 105 120 106
f 106 120 103
f 103 120 104
f 104 120 119
f 104 119 117
f 104 117 115
f 104 115 105
f 105 115 119
f 105 119 120
f 121 122 99
f 121 99 122
f 123 124 125
f 123 125 124
