# RS2 Model 22684
# Vertices: 146
# Faces: 236

v -115 -55 279
v -115 -58 282
v -6 -58 282
v -9 -55 279
v -115 -54 273
v -117 -51 273
v -117 -52 281
v -117 -56 285
v -115 -64 283
v 0 -64 283
v 0 10 283
v -6 9 282
v -9 6 279
v -10 -54 273
v -115 -55 267
v -117 -52 265
v -126 -52 265
v -126 -51 273
v -126 -52 281
v -126 -56 285
v -117 -64 286
v -115 -70 282
v 6 -70 282
v 6 9 282
v 6 9 171
v 0 10 171
v -6 9 171
v -9 6 171
v -10 0 273
v -9 -55 267
v -115 -58 264
v -117 -56 261
v -126 -56 261
v -128 -58 264
v -128 -55 267
v -128 -54 273
v -128 -55 279
v -128 -58 282
v -126 -64 286
v -117 -72 285
v -115 -73 279
v 9 -73 279
v 9 6 279
v 9 6 171
v -115 -73 267
v -115 -70 264
v 6 -70 264
v 9 -73 267
v -115 -74 273
v -117 -77 273
v -117 -76 265
v -117 -72 261
v -115 -64 263
v 0 -64 263
v 0 -10 263
v 6 -9 264
v 9 -6 267
v 10 -74 273
v -117 -76 281
v -126 -76 281
v -126 -77 273
v -126 -76 265
v -126 -72 261
v -117 -64 260
v -6 -58 264
v -6 -9 264
v -6 -9 171
v 0 -10 171
v 6 -9 171
v 9 -6 171
v 10 0 273
v -9 -6 267
v -9 -6 171
v 10 0 171
v -10 0 171
v -4 -60 266
v -7 -57 269
v -7 -4 269
v -4 -7 266
v 0 -64 265
v -128 -64 265
v -128 -60 266
v -128 -57 269
v -8 -56 273
v -8 0 273
v -8 0 171
v -7 -4 171
v -4 -7 171
v 0 -8 265
v 4 -68 266
v -128 -68 266
v -7 -57 277
v -4 -60 280
v -4 7 280
v -7 4 277
v -128 -56 273
v -128 -57 277
v -128 -60 280
v 0 -64 281
v 0 8 281
v 0 8 171
v -4 7 171
v -7 4 171
v 4 -68 280
v 7 -71 277
v 7 4 277
v 4 7 280
v -128 -64 281
v -128 -68 280
v -128 -71 277
v 8 -72 273
v 8 0 273
v 8 0 171
v 7 4 171
v 4 7 171
v 7 -71 269
v 4 -7 266
v 7 -4 269
v -128 -72 273
v -128 -71 269
v 7 -4 171
v 0 -8 171
v 4 -7 171
v -126 -72 285
v -128 -70 282
v -128 -73 279
v -128 -74 273
v -128 -73 267
v -128 -70 264
v -126 -64 260
v -128 -64 263
v -128 -64 283
v -123 -62 296
v -123 -64 286
v -123 -66 285
v -123 -66 296
v -125 -68 297
v -125 -60 297
v -119 -62 296
v -119 -62 285
v -123 -62 285
v -119 -64 286
v -119 -66 285
v -119 -66 296
v -117 -68 297
v -117 -60 297

f 1 2 3
f 1 3 4
f 1 4 5
f 1 5 6
f 1 6 7
f 1 7 2
f 2 7 8
f 2 8 9
f 2 9 10
f 2 10 3
f 3 10 11
f 3 11 12
f 3 12 4
f 4 12 13
f 4 13 14
f 4 14 5
f 5 14 15
f 5 15 16
f 5 16 6
f 6 16 17
f 6 17 18
f 6 18 7
f 7 18 19
f 7 19 8
f 8 19 20
f 8 20 21
f 8 21 9
f 9 21 22
f 9 22 23
f 9 23 10
f 10 23 24
f 10 24 11
f 11 24 25
f 11 25 26
f 11 26 12
f 12 26 27
f 12 27 13
f 13 27 28
f 13 28 29
f 13 29 14
f 14 29 30
f 14 30 15
f 15 30 31
f 15 31 32
f 15 32 16
f 16 32 33
f 16 33 17
f 17 33 34
f 17 34 35
f 17 35 18
f 18 35 36
f 18 36 19
f 19 36 37
f 19 37 20
f 20 37 38
f 20 38 39
f 20 39 21
f 21 39 40
f 21 40 22
f 22 40 41
f 22 41 42
f 22 42 23
f 23 42 43
f 23 43 24
f 24 43 44
f 24 44 25
f 45 46 47
f 45 47 48
f 45 48 49
f 45 49 50
f 45 50 51
f 45 51 46
f 46 51 52
f 46 52 53
f 46 53 54
f 46 54 47
f 47 54 55
f 47 55 56
f 47 56 48
f 48 56 57
f 48 57 58
f 48 58 49
f 49 58 41
f 49 41 59
f 49 59 50
f 50 59 60
f 50 60 61
f 50 61 51
f 51 61 62
f 51 62 52
f 52 62 63
f 52 63 64
f 52 64 53
f 53 64 31
f 53 31 65
f 53 65 54
f 54 65 66
f 54 66 55
f 55 66 67
f 55 67 68
f 55 68 56
f 56 68 69
f 56 69 57
f 57 69 70
f 57 70 71
f 57 71 58
f 58 71 42
f 58 42 41
f 31 30 65
f 65 30 72
f 65 72 66
f 66 72 73
f 66 73 67
f 42 71 43
f 43 71 74
f 43 74 44
f 30 29 72
f 72 29 75
f 72 75 73
f 70 74 71
f 28 75 29
f 76 77 78
f 76 78 79
f 76 79 80
f 76 80 81
f 76 81 82
f 76 82 77
f 77 82 83
f 77 83 84
f 77 84 85
f 77 85 78
f 78 85 86
f 78 86 87
f 78 87 79
f 79 87 88
f 79 88 89
f 79 89 80
f 80 89 90
f 80 90 91
f 80 91 81
f 92 93 94
f 92 94 95
f 92 95 84
f 92 84 96
f 92 96 97
f 92 97 93
f 93 97 98
f 93 98 99
f 93 99 100
f 93 100 94
f 94 100 101
f 94 101 102
f 94 102 95
f 95 102 103
f 95 103 85
f 95 85 84
f 104 105 106
f 104 106 107
f 104 107 99
f 104 99 108
f 104 108 109
f 104 109 105
f 105 109 110
f 105 110 111
f 105 111 112
f 105 112 106
f 106 112 113
f 106 113 114
f 106 114 107
f 107 114 115
f 107 115 100
f 107 100 99
f 116 90 117
f 116 117 118
f 116 118 111
f 116 111 119
f 116 119 120
f 116 120 90
f 90 120 91
f 111 118 112
f 112 118 121
f 112 121 113
f 90 89 117
f 117 89 122
f 117 122 123
f 117 123 118
f 118 123 121
f 88 122 89
f 103 86 85
f 115 101 100
f 83 96 84
f 98 108 99
f 110 119 111
f 41 40 59
f 59 40 124
f 59 124 60
f 60 124 125
f 60 125 126
f 60 126 61
f 61 126 127
f 61 127 62
f 62 127 128
f 62 128 63
f 63 128 129
f 63 129 130
f 63 130 64
f 64 130 32
f 64 32 31
f 32 130 33
f 33 130 131
f 33 131 34
f 40 39 124
f 124 39 132
f 124 132 125
f 130 129 131
f 39 38 132
f 133 134 135
f 133 135 136
f 133 136 137
f 133 137 138
f 133 138 139
f 133 139 140
f 133 140 141
f 133 141 134
f 139 142 140
f 142 139 143
f 143 139 144
f 143 144 135
f 135 144 136
f 136 144 145
f 136 145 137
f 137 145 138
f 138 145 146
f 138 146 139
f 139 146 144
f 144 146 145
