# RS2 Model 227
# Vertices: 140
# Faces: 280

v 5 -14 182
v 2 -15 180
v 5 -14 179
v 8 -11 180
v 9 -12 183
v 5 -14 183
v 0 -16 182
v 0 -17 181
v 3 -16 175
v 8 -13 178
v 9 -9 181
v 10 -6 183
v 8 -8 188
v 6 -14 185
v 0 -17 185
v -6 -14 185
v -5 -14 183
v -5 -14 182
v -2 -15 180
v -3 -16 175
v 0 -20 175
v 0 -17 174
v 4 -15 173
v 7 -10 174
v 9 -7 177
v 10 -4 178
v 11 -5 185
v 9 -7 191
v 5 -14 190
v 5 -13 188
v 0 -16 187
v -5 -13 188
v -8 -8 188
v -9 -12 183
v -8 -11 180
v -5 -14 179
v -8 -13 178
v -4 -15 173
v 8 1 173
v 9 -1 175
v 7 -2 170
v 0 6 173
v 9 3 176
v 11 3 176
v 9 1 178
v 10 -2 178
v 8 -4 172
v 7 -8 169
v 0 -6 165
v 8 1 165
v 0 9 165
v -8 1 165
v -7 -2 170
v -8 1 173
v -9 3 176
v -6 8 179
v 0 10 178
v 6 8 179
v 9 5 179
v 11 5 180
v 12 4 180
v 12 1 182
v 10 -2 180
v 11 1 183
v 10 0 188
v 8 -2 193
v 0 -10 194
v 0 -17 189
v -5 -14 190
v -9 -7 191
v -10 -6 183
v -9 -9 181
v 0 -6 160
v 17 -11 170
v 15 1 173
v 8 10 176
v 10 11 172
v 13 6 170
v 15 -5 166
v 10 -19 165
v 24 -21 166
v 22 -1 174
v 19 5 177
v 12 14 181
v 0 17 183
v 0 13 177
v -8 10 176
v -10 11 172
v -6 15 172
v 0 16 173
v 6 15 172
v 7 6 188
v 0 6 193
v 0 -1 196
v -8 -2 193
v 0 10 186
v -7 6 188
v 5 -12 168
v 0 -15 166
v -5 -12 168
v -7 -8 169
v -17 -11 170
v -10 -19 165
v -15 -5 166
v -13 6 170
v -12 14 181
v 3 -15 171
v 3 -15 170
v 2 -15 168
v 0 -16 169
v -2 -15 168
v -3 -15 170
v -3 -15 171
v -7 -10 174
v -8 -4 172
v -9 -1 175
v -11 3 176
v -11 5 180
v -9 5 179
v -11 1 183
v -10 0 188
v -11 -5 185
v -10 -4 178
v -9 -7 177
v 2 -17 171
v 3 -16 170
v 2 -16 170
v 0 -17 171
v -2 -16 170
v -3 -16 170
v -2 -17 171
v -9 1 178
v -12 4 180
v -12 1 182
v -10 -2 180
v -10 -2 178
v -15 1 173
v -24 -21 166
v -22 -1 174
v -19 5 177

f 1 2 3
f 1 3 4
f 1 4 5
f 1 5 6
f 1 6 7
f 1 7 2
f 2 7 8
f 2 8 9
f 2 9 3
f 3 9 10
f 3 10 4
f 4 10 11
f 4 11 5
f 5 11 12
f 5 12 13
f 5 13 14
f 5 14 6
f 6 14 7
f 7 14 15
f 7 15 16
f 7 16 17
f 7 17 18
f 7 18 19
f 7 19 8
f 8 19 20
f 8 20 21
f 8 21 9
f 9 21 22
f 9 22 23
f 9 23 10
f 10 23 24
f 10 24 25
f 10 25 11
f 11 25 26
f 11 26 12
f 12 26 27
f 12 27 28
f 12 28 13
f 13 28 29
f 13 29 30
f 13 30 14
f 14 30 31
f 14 31 15
f 15 31 16
f 16 31 32
f 16 32 33
f 16 33 34
f 16 34 17
f 17 34 18
f 18 34 35
f 18 35 36
f 18 36 19
f 19 36 20
f 20 36 37
f 20 37 38
f 20 38 22
f 20 22 21
f 39 40 41
f 39 41 42
f 39 42 43
f 39 43 44
f 39 44 40
f 40 44 45
f 40 45 46
f 40 46 26
f 40 26 25
f 40 25 47
f 40 47 41
f 41 47 48
f 41 48 49
f 41 49 50
f 41 50 42
f 42 50 51
f 42 51 52
f 42 52 53
f 42 53 54
f 42 54 55
f 42 55 56
f 42 56 57
f 42 57 58
f 42 58 43
f 43 58 59
f 43 59 60
f 43 60 44
f 44 60 61
f 44 61 45
f 45 61 62
f 45 62 63
f 45 63 46
f 46 63 26
f 26 63 27
f 27 63 64
f 27 64 65
f 27 65 28
f 28 65 66
f 28 66 67
f 28 67 29
f 29 67 68
f 29 68 30
f 30 68 31
f 31 68 32
f 32 68 69
f 32 69 33
f 33 69 70
f 33 70 71
f 33 71 34
f 34 71 72
f 34 72 35
f 35 72 37
f 35 37 36
f 62 61 60
f 62 60 64
f 62 64 63
f 49 73 50
f 50 73 74
f 50 74 75
f 50 75 76
f 50 76 51
f 50 51 77
f 50 77 78
f 50 78 79
f 50 79 80
f 50 80 73
f 73 80 74
f 74 80 81
f 74 81 75
f 75 81 82
f 75 82 83
f 75 83 84
f 75 84 76
f 76 84 85
f 76 85 86
f 76 86 51
f 51 86 87
f 51 87 52
f 51 52 88
f 51 88 89
f 51 89 90
f 51 90 91
f 51 91 77
f 77 91 84
f 77 84 78
f 78 84 83
f 78 83 82
f 78 82 79
f 79 82 81
f 79 81 80
f 59 64 60
f 64 59 92
f 64 92 65
f 65 92 66
f 66 92 93
f 66 93 94
f 66 94 67
f 67 94 95
f 67 95 70
f 67 70 69
f 67 69 68
f 96 93 92
f 96 92 58
f 96 58 57
f 96 57 56
f 96 56 97
f 96 97 93
f 93 97 95
f 93 95 94
f 59 58 92
f 25 24 47
f 47 24 48
f 48 24 98
f 48 98 49
f 49 98 99
f 49 99 100
f 49 100 101
f 49 101 53
f 49 53 52
f 49 52 73
f 73 52 102
f 73 102 103
f 73 103 52
f 52 103 104
f 52 104 105
f 52 105 88
f 88 105 106
f 88 106 89
f 89 106 85
f 89 85 90
f 90 85 91
f 91 85 84
f 23 98 24
f 98 23 107
f 98 107 108
f 98 108 109
f 98 109 99
f 99 109 110
f 99 110 111
f 99 111 100
f 100 111 112
f 100 112 113
f 100 113 38
f 100 38 114
f 100 114 101
f 101 114 115
f 101 115 53
f 53 115 116
f 53 116 54
f 54 116 117
f 54 117 55
f 55 117 118
f 55 118 119
f 55 119 56
f 56 119 97
f 97 119 120
f 97 120 121
f 97 121 95
f 95 121 70
f 70 121 122
f 70 122 71
f 71 122 123
f 71 123 72
f 72 123 124
f 72 124 37
f 37 124 114
f 37 114 38
f 22 107 23
f 107 22 125
f 107 125 126
f 107 126 108
f 108 126 109
f 109 126 127
f 109 127 110
f 110 127 128
f 110 128 129
f 110 129 111
f 111 129 130
f 111 130 112
f 112 130 113
f 113 130 131
f 113 131 22
f 113 22 38
f 126 125 127
f 127 125 128
f 128 125 22
f 128 22 131
f 128 131 129
f 129 131 130
f 116 132 117
f 117 132 133
f 117 133 118
f 118 133 134
f 118 134 120
f 118 120 119
f 133 132 134
f 134 132 135
f 134 135 120
f 120 135 122
f 120 122 121
f 132 116 136
f 132 136 135
f 135 136 123
f 135 123 122
f 124 115 114
f 115 124 116
f 116 124 123
f 116 123 136
f 52 87 137
f 52 137 102
f 102 137 138
f 102 138 103
f 103 138 104
f 104 138 139
f 104 139 105
f 105 139 140
f 105 140 106
f 106 140 137
f 106 137 87
f 106 87 85
f 85 87 86
f 137 140 139
f 137 139 138
