# RS2 Model 22722
# Vertices: 100
# Faces: 150

v -41 -64 5
v -41 -44 5
v -48 -44 5
v -48 -64 5
v -48 -44 0
v -48 -64 0
v -41 44 5
v -41 64 5
v -48 64 5
v -48 44 5
v -41 20 5
v 0 20 5
v 0 44 5
v 0 64 5
v 57 44 5
v 57 64 5
v 64 -64 5
v 64 64 5
v -48 64 0
v -48 44 0
v -48 36 0
v -48 36 2
v -48 28 2
v -48 20 5
v -41 15 7
v 0 15 5
v 57 15 5
v 57 20 5
v 57 0 5
v 57 -15 5
v 57 -20 5
v 57 -44 5
v 57 -64 5
v 0 -44 5
v 0 -64 5
v -64 28 0
v -64 -28 0
v -26 -28 0
v -26 28 0
v -60 36 2
v -60 28 2
v -60 36 0
v -60 44 2
v -60 36 6
v -60 28 6
v -60 15 7
v -48 15 7
v -48 0 8
v -41 0 8
v 0 0 6
v -64 36 2
v -64 28 2
v -64 28 6
v -64 36 6
v -64 44 2
v -64 44 0
v -64 36 0
v -60 44 0
v -60 -28 2
v -60 -36 2
v -48 -36 2
v -48 -28 2
v -60 -28 0
v -64 -28 2
v -64 -36 2
v -64 -36 6
v -64 -28 6
v -64 -15 7
v -64 -15 11
v -64 0 8
v -64 0 12
v -64 15 7
v -64 15 11
v -60 15 11
v -60 0 8
v -60 -28 6
v -60 -36 6
v -60 -44 2
v -60 -44 0
v -60 -36 0
v -48 -36 0
v -48 -20 5
v -60 -15 7
v -60 -15 11
v -64 -44 2
v -64 -44 0
v -64 -36 0
v -60 0 12
v -48 -15 7
v -41 -15 7
v 0 -15 5
v 0 -20 5
v -41 -20 5
v -60 28 0
v 11 -28 5
v 11 28 5
v -114 -28 5
v -64 28 0
v -64 -28 0
v -26 28 0

f 1 2 3
f 1 3 4
f 4 3 5
f 4 5 6
f 7 8 9
f 7 9 10
f 7 10 11
f 7 11 12
f 7 12 13
f 7 13 8
f 8 13 14
f 14 13 15
f 14 15 16
f 16 15 17
f 16 17 18
f 10 9 19
f 10 19 20
f 10 20 21
f 10 21 22
f 10 22 23
f 10 23 24
f 10 24 11
f 11 24 25
f 11 25 26
f 11 26 12
f 12 26 27
f 12 27 28
f 12 28 13
f 13 28 15
f 15 28 17
f 17 28 27
f 17 27 29
f 17 29 30
f 17 30 31
f 17 31 32
f 17 32 33
f 33 32 34
f 33 34 35
f 35 34 2
f 35 2 1
f 36 37 38
f 36 38 39
f 40 41 23
f 40 23 22
f 40 22 21
f 40 21 42
f 40 42 43
f 40 43 44
f 40 44 41
f 41 44 45
f 41 45 46
f 41 46 23
f 23 46 24
f 24 46 47
f 24 47 25
f 25 47 48
f 25 48 49
f 25 49 50
f 25 50 26
f 26 50 29
f 26 29 27
f 51 52 53
f 51 53 54
f 51 54 55
f 51 55 56
f 51 56 57
f 54 53 45
f 54 45 44
f 54 44 43
f 54 43 55
f 55 43 58
f 55 58 56
f 59 60 61
f 59 61 62
f 59 62 38
f 59 38 63
f 64 65 66
f 64 66 67
f 64 67 68
f 68 67 69
f 68 69 70
f 70 69 71
f 70 71 72
f 72 71 73
f 72 73 52
f 52 73 53
f 53 73 45
f 45 73 74
f 45 74 46
f 46 74 75
f 46 75 48
f 46 48 47
f 60 59 76
f 60 76 77
f 60 77 78
f 60 78 79
f 60 79 80
f 60 80 61
f 61 80 81
f 61 81 5
f 61 5 3
f 61 3 82
f 61 82 62
f 62 82 59
f 59 82 83
f 59 83 84
f 59 84 76
f 76 84 67
f 76 67 77
f 77 67 66
f 77 66 85
f 77 85 78
f 78 85 86
f 78 86 79
f 85 66 65
f 85 65 87
f 85 87 86
f 67 84 69
f 69 84 88
f 69 88 71
f 71 88 74
f 71 74 73
f 88 84 83
f 88 83 75
f 88 75 74
f 43 42 58
f 75 83 89
f 75 89 48
f 48 89 90
f 48 90 49
f 49 90 91
f 49 91 50
f 50 91 29
f 29 91 30
f 30 91 31
f 31 91 92
f 31 92 32
f 32 92 34
f 34 92 2
f 2 92 93
f 2 93 82
f 2 82 3
f 94 39 23
f 94 23 41
f 82 93 90
f 82 90 89
f 82 89 83
f 91 90 93
f 91 93 92
f 36 37 39
