# RS2 Model 22732
# Vertices: 459
# Faces: 505

v -46 59 38
v -46 17 41
v -38 15 43
v -38 63 40
v -46 59 3
v -46 11 3
v -46 11 35
v -38 8 37
v -38 64 0
v -38 8 1
v -46 -12 41
v -46 -14 3
v -38 -16 1
v -38 -13 43
v -46 6 40
v -46 5 3
v -38 6 1
v -38 7 42
v -46 -22 39
v -46 -60 36
v -38 -63 39
v -38 -20 42
v -46 -18 35
v -46 -60 4
v -38 -63 1
v -38 -15 37
v -46 -21 4
v -38 -18 1
v -46 -16 119
v -46 -59 119
v -38 -63 121
v -38 -14 121
v -46 -10 113
v -46 -59 90
v -38 -63 87
v -46 -10 87
v -38 -7 85
v -38 -7 115
v -46 17 86
v -46 15 120
v -38 16 122
v -38 19 84
v -46 -4 87
v -46 -5 119
v -38 -6 121
v -38 -5 85
v -46 60 121
v -46 26 121
v -38 24 124
v -38 63 124
v -46 60 88
v -46 23 87
v -46 23 115
v -38 20 117
v -38 63 85
v -38 20 84
v -46 19 256
v -46 58 256
v -38 62 254
v -38 17 254
v -46 13 262
v -46 58 288
v -38 62 291
v -46 13 288
v -38 10 290
v -38 10 260
v -46 -16 288
v -46 -14 255
v -38 -15 253
v -38 -18 290
v -46 7 288
v -46 8 256
v -38 9 254
v -38 8 290
v -46 -60 254
v -46 -25 250
v -38 -23 247
v -38 -63 251
v -46 -60 287
v -46 -23 287
v -46 -20 257
v -38 -17 255
v -38 -63 290
v -38 -20 290
v -46 41 207
v -46 -15 208
v -46 -13 249
v -46 39 249
v -38 44 252
v -38 46 204
v -38 -20 205
v -38 -18 252
v -46 -40 80
v -46 17 79
v -46 15 47
v -46 -38 47
v -38 -43 44
v -38 -45 83
v -38 22 82
v -38 20 44
v -46 52 208
v -46 64 209
v -38 64 205
v -38 51 205
v -46 50 213
v -46 64 246
v -46 49 248
v -38 46 252
v -38 64 250
v -38 47 211
v -46 -25 242
v -46 -64 246
v -38 -64 250
v -38 -21 245
v -46 -25 208
v -46 -64 209
v -38 -22 205
v -38 -64 205
v -46 -52 80
v -46 -64 79
v -38 -64 83
v -38 -51 83
v -46 -50 75
v -46 -64 45
v -46 -48 54
v -38 -45 50
v -38 -64 41
v -38 -47 77
v -46 27 49
v -46 64 45
v -38 64 41
v -38 23 46
v -46 26 79
v -46 64 79
v -38 23 82
v -38 64 83
v -46 -59 163
v -46 -42 163
v -38 -40 161
v -38 -63 161
v -46 -59 201
v -46 -36 201
v -46 -36 169
v -38 -33 167
v -38 -63 204
v -38 -33 203
v -46 24 163
v -46 26 201
v -38 28 203
v -38 25 161
v -46 -31 164
v -46 -30 201
v -38 -31 203
v -38 -32 162
v -46 34 165
v -46 60 165
v -38 63 162
v -38 32 162
v -46 30 169
v -46 60 200
v -38 63 203
v -38 27 167
v -46 33 200
v -38 30 203
v -38 -64 0
v -38 -64 293
v -38 64 293
v -25 -64 293
v -25 64 293
v -8 -7 293
v 0 64 293
v 32 -64 293
v 41 16 293
v 32 64 293
v 64 64 293
v 64 -64 293
v 64 -64 0
v 64 64 0
v -64 64 0
v -64 -64 0
v 0 -64 293
v -64 64 134
v -64 53 134
v -38 53 134
v -38 64 134
v -64 53 138
v -64 43 138
v -47 53 138
v -64 -43 138
v -64 -53 138
v -47 -53 138
v -47 -53 156
v -47 53 156
v -38 53 156
v -38 53 138
v -38 -53 156
v -64 -53 134
v -64 -64 134
v -38 -64 134
v -38 -53 134
v -38 -53 138
v -49 20 281
v -49 24 275
v -49 7 241
v -49 3 240
v -49 8 237
v -49 11 239
v -49 14 235
v -49 12 230
v -49 39 246
v -49 39 240
v -49 44 223
v -49 41 223
v -49 41 209
v -49 39 212
v -49 31 194
v -49 29 196
v -49 17 185
v -49 15 187
v -49 2 181
v -49 2 184
v -49 -17 185
v -49 -15 187
v -49 -31 194
v -49 -28 196
v -49 -40 209
v -49 -38 212
v -49 -44 223
v -49 -40 223
v -49 -41 233
v -49 -44 236
v -49 -40 248
v -49 -38 243
v -49 -17 237
v -49 -19 235
v -49 16 240
v -49 13 243
v -49 34 263
v -49 35 257
v -49 46 246
v -49 43 244
v -49 50 223
v -49 46 223
v -49 47 209
v -49 43 209
v -49 36 192
v -49 34 194
v -49 19 179
v -49 18 183
v -49 2 175
v -49 2 178
v -49 -17 179
v -49 -16 183
v -49 -36 192
v -49 -34 194
v -49 -47 209
v -49 -43 209
v -49 -50 223
v -49 -47 223
v -49 -49 238
v -49 -47 237
v -49 -44 252
v -49 -40 252
v -49 -33 268
v -49 -34 261
v -49 -8 237
v -49 -13 235
v -49 -11 230
v -49 -13 233
v -49 -36 230
v -49 -38 233
v -49 -37 223
v -49 -35 223
v -49 -33 213
v -49 -36 211
v -49 -23 198
v -49 -26 198
v -49 -11 191
v -49 -12 189
v -49 2 189
v -49 2 186
v -49 10 191
v -49 12 189
v -49 23 198
v -49 26 198
v -49 33 213
v -49 36 211
v -49 35 223
v -49 38 223
v -49 39 229
v -49 7 224
v -49 7 229
v -49 3 233
v -49 2 223
v -49 2 233
v -49 -3 233
v -49 -27 274
v -49 -25 280
v -49 -36 268
v -49 -38 270
v -49 -47 252
v -49 -49 254
v -49 -53 237
v -49 -56 237
v -49 -53 223
v -49 -56 223
v -49 -50 213
v -49 -53 213
v -49 -41 196
v -49 -45 195
v -49 -30 183
v -49 -32 181
v -49 -9 173
v -49 -9 170
v -49 2 173
v -49 2 169
v -49 12 173
v -49 12 170
v -49 32 184
v -49 34 182
v -49 43 196
v -49 46 195
v -49 51 213
v -49 53 213
v -49 52 223
v -49 55 223
v -49 51 235
v -49 53 235
v -49 45 252
v -49 49 254
v -49 35 266
v -49 37 269
v -49 6 223
v -49 5 223
v -49 2 221
v -49 -3 222
v -49 -5 223
v -49 -5 232
v -49 -6 229
v -49 -6 225
v -49 -30 223
v -49 -34 228
v -49 -34 223
v -49 -25 210
v -49 -28 209
v -49 -16 202
v -49 -19 199
v -49 -6 196
v -49 -8 194
v -49 2 195
v -49 2 192
v -49 8 196
v -49 10 194
v -49 18 202
v -49 20 199
v -49 26 210
v -49 29 209
v -49 27 218
v -49 32 221
v -49 14 221
v -49 12 223
v -49 13 219
v -49 8 219
v -49 17 212
v -49 13 212
v -49 9 206
v -49 5 207
v -49 2 203
v -49 2 207
v -49 -6 204
v -49 -2 207
v -49 -13 209
v -49 -9 209
v -49 -9 216
v -49 -6 214
v -49 -4 277
v -49 -2 277
v -49 -1 274
v -49 -2 271
v -49 -4 271
v -49 -6 274
v -49 -3 265
v -49 -2 269
v -49 -2 265
v -49 1 260
v -49 -2 260
v -49 -4 269
v -49 -8 265
v -49 -8 268
v -49 -4 265
v -49 -5 260
v -49 -8 260
v -49 1 268
v -49 1 265
v -49 10 212
v -49 5 213
v -49 2 210
v -49 2 213
v -49 -1 209
v -49 -1 214
v -49 2 218
v -49 -5 216
v -49 -2 219
v -49 -10 220
v -49 -9 223
v -49 -23 217
v -49 -27 221
v -49 -21 213
v -49 -24 213
v -49 -15 207
v -49 -19 206
v -49 -7 202
v -49 -7 198
v -49 2 201
v -49 2 198
v -49 10 203
v -49 10 199
v -49 17 208
v -49 20 206
v -49 21 213
v -49 25 214
v -49 16 216
v -49 18 219
v -58 -55 280
v -58 -50 284
v -58 -46 279
v -58 -51 275
v -48 -53 279
v -48 -50 282
v -48 -48 279
v -48 -51 277
v -47 38 282
v -47 57 287
v -48 58 260
v -48 38 263
v -48 -1 258
v -47 -1 287
v -48 -37 263
v -47 -37 282
v -48 -58 260
v -47 -57 287
v -47 57 221
v -47 38 224
v -47 -1 219
v -47 -37 224
v -47 -57 221
v -48 -37 167
v -48 -58 164
v -48 58 164
v -48 38 167
v -48 -1 162
v -58 48 281
v -58 53 285
v -58 57 280
v -58 52 276
v -48 50 280
v -48 53 283
v -48 55 280
v -48 52 278

f 1 2 3
f 1 3 4
f 1 4 5
f 1 5 6
f 1 6 7
f 1 7 2
f 2 7 8
f 2 8 3
f 5 4 9
f 5 9 6
f 6 9 10
f 6 10 7
f 7 10 8
f 11 12 13
f 11 13 14
f 11 14 15
f 11 15 12
f 12 15 16
f 12 16 17
f 12 17 13
f 15 14 18
f 15 18 16
f 16 18 17
f 19 20 21
f 19 21 22
f 19 22 23
f 19 23 20
f 20 23 24
f 20 24 25
f 20 25 21
f 23 22 26
f 23 26 27
f 23 27 24
f 24 27 28
f 24 28 25
f 27 26 28
f 29 30 31
f 29 31 32
f 29 32 33
f 29 33 30
f 30 33 34
f 30 34 35
f 30 35 31
f 34 36 37
f 34 37 35
f 36 33 38
f 36 38 37
f 33 32 38
f 39 40 41
f 39 41 42
f 39 42 43
f 39 43 40
f 40 43 44
f 40 44 45
f 40 45 41
f 44 43 46
f 44 46 45
f 43 42 46
f 47 48 49
f 47 49 50
f 47 50 51
f 47 51 52
f 47 52 53
f 47 53 48
f 48 53 54
f 48 54 49
f 51 50 55
f 51 55 52
f 52 55 56
f 52 56 53
f 53 56 54
f 33 36 34
f 57 58 59
f 57 59 60
f 57 60 61
f 57 61 58
f 58 61 62
f 58 62 63
f 58 63 59
f 62 64 65
f 62 65 63
f 64 61 66
f 64 66 65
f 61 60 66
f 67 68 69
f 67 69 70
f 67 70 71
f 67 71 68
f 68 71 72
f 68 72 73
f 68 73 69
f 72 71 74
f 72 74 73
f 71 70 74
f 75 76 77
f 75 77 78
f 75 78 79
f 75 79 80
f 75 80 81
f 75 81 76
f 76 81 82
f 76 82 77
f 79 78 83
f 79 83 80
f 80 83 84
f 80 84 81
f 81 84 82
f 61 64 62
f 85 86 87
f 85 87 88
f 85 88 89
f 85 89 90
f 85 90 86
f 86 90 91
f 86 91 87
f 87 91 92
f 87 92 88
f 88 92 89
f 93 94 95
f 93 95 96
f 93 96 97
f 93 97 98
f 93 98 94
f 94 98 99
f 94 99 95
f 95 99 100
f 95 100 96
f 96 100 97
f 101 102 103
f 101 103 104
f 101 104 105
f 101 105 102
f 102 105 106
f 106 105 107
f 106 107 108
f 106 108 109
f 105 104 110
f 105 110 107
f 107 110 108
f 111 112 113
f 111 113 114
f 111 114 115
f 111 115 116
f 111 116 112
f 115 114 117
f 115 117 116
f 116 117 118
f 119 120 121
f 119 121 122
f 119 122 123
f 119 123 120
f 120 123 124
f 124 123 125
f 124 125 126
f 124 126 127
f 123 122 128
f 123 128 125
f 125 128 126
f 129 130 131
f 129 131 132
f 129 132 133
f 129 133 134
f 129 134 130
f 133 132 135
f 133 135 134
f 134 135 136
f 137 138 139
f 137 139 140
f 137 140 141
f 137 141 142
f 137 142 143
f 137 143 138
f 138 143 144
f 138 144 139
f 141 140 145
f 141 145 142
f 142 145 146
f 142 146 143
f 143 146 144
f 147 148 149
f 147 149 150
f 147 150 151
f 147 151 148
f 148 151 152
f 148 152 153
f 148 153 149
f 151 150 154
f 151 154 152
f 152 154 153
f 155 156 157
f 155 157 158
f 155 158 159
f 155 159 156
f 156 159 160
f 156 160 161
f 156 161 157
f 159 158 162
f 159 162 163
f 159 163 160
f 160 163 164
f 160 164 161
f 163 162 164
f 9 165 166
f 9 166 167
f 167 166 168
f 167 168 169
f 169 168 170
f 169 170 171
f 171 170 172
f 171 172 173
f 171 173 174
f 174 173 175
f 175 173 176
f 175 176 177
f 175 177 178
f 9 179 180
f 9 180 165
f 170 168 181
f 170 181 172
f 173 172 176
f 182 183 184
f 182 184 185
f 186 187 188
f 186 188 184
f 186 184 183
f 189 190 191
f 189 191 187
f 187 191 188
f 188 191 192
f 188 192 193
f 188 193 194
f 188 194 195
f 188 195 184
f 193 192 196
f 193 196 194
f 197 198 199
f 197 199 200
f 197 200 191
f 197 191 190
f 200 201 191
f 191 201 192
f 192 201 196
f 202 203 204
f 202 204 205
f 205 204 206
f 206 204 207
f 206 207 208
f 206 208 209
f 209 208 210
f 209 210 211
f 211 210 212
f 211 212 213
f 213 212 214
f 213 214 215
f 215 214 216
f 215 216 217
f 217 216 218
f 217 218 219
f 219 218 220
f 219 220 221
f 221 220 222
f 221 222 223
f 223 222 224
f 223 224 225
f 225 224 226
f 225 226 227
f 227 226 228
f 227 228 229
f 229 228 230
f 230 228 231
f 230 231 232
f 230 232 233
f 233 232 234
f 233 234 235
f 236 237 238
f 236 238 239
f 239 238 240
f 239 240 241
f 241 240 242
f 241 242 243
f 243 242 244
f 243 244 245
f 245 244 246
f 245 246 247
f 247 246 248
f 247 248 249
f 249 248 250
f 249 250 251
f 251 250 252
f 251 252 253
f 253 252 254
f 253 254 255
f 255 254 256
f 255 256 257
f 257 256 258
f 257 258 259
f 259 258 260
f 259 260 261
f 261 260 262
f 261 262 263
f 263 262 264
f 263 264 265
f 265 264 266
f 265 266 267
f 267 266 268
f 267 268 269
f 269 268 270
f 269 270 271
f 271 270 272
f 272 270 273
f 272 273 274
f 272 274 275
f 275 274 276
f 275 276 277
f 277 276 278
f 277 278 279
f 279 278 280
f 279 280 281
f 281 280 282
f 281 282 283
f 283 282 284
f 283 284 285
f 285 284 286
f 285 286 287
f 287 286 288
f 287 288 289
f 289 288 290
f 290 288 291
f 290 291 292
f 292 291 293
f 293 291 294
f 293 294 295
f 295 294 296
f 295 296 297
f 295 297 298
f 298 297 299
f 298 299 300
f 300 299 301
f 300 301 302
f 302 301 303
f 302 303 304
f 304 303 305
f 304 305 306
f 306 305 307
f 306 307 308
f 308 307 309
f 308 309 310
f 310 309 311
f 310 311 312
f 312 311 313
f 312 313 314
f 314 313 315
f 314 315 316
f 316 315 317
f 316 317 318
f 318 317 319
f 318 319 320
f 320 319 321
f 320 321 322
f 322 321 323
f 322 323 324
f 324 323 325
f 324 325 326
f 326 325 327
f 326 327 328
f 328 327 329
f 328 329 330
f 330 329 331
f 330 331 332
f 332 331 203
f 332 203 202
f 291 333 294
f 294 333 334
f 294 334 335
f 294 335 336
f 294 336 337
f 294 337 296
f 296 337 338
f 338 337 339
f 339 337 340
f 339 340 341
f 339 341 342
f 342 341 343
f 343 341 344
f 343 344 345
f 345 344 346
f 345 346 347
f 347 346 348
f 347 348 349
f 349 348 350
f 349 350 351
f 351 350 352
f 351 352 353
f 353 352 354
f 353 354 355
f 355 354 356
f 355 356 357
f 357 356 358
f 357 358 359
f 359 358 360
f 359 360 361
f 361 360 362
f 361 362 363
f 363 362 364
f 363 364 365
f 365 364 366
f 365 366 367
f 367 366 368
f 367 368 369
f 369 368 370
f 369 370 371
f 371 370 372
f 371 372 373
f 373 372 374
f 373 374 375
f 376 377 378
f 376 378 379
f 376 379 380
f 376 380 381
f 382 380 379
f 382 379 383
f 382 383 384
f 382 384 385
f 382 385 386
f 380 382 387
f 380 387 388
f 380 388 389
f 390 382 391
f 390 391 392
f 387 382 390
f 383 379 393
f 383 393 394
f 395 396 335
f 395 335 334
f 396 395 397
f 396 397 398
f 398 397 399
f 398 399 400
f 398 400 401
f 401 400 402
f 401 402 403
f 403 402 404
f 403 404 405
f 405 404 406
f 405 406 407
f 407 406 408
f 407 408 409
f 409 408 410
f 409 410 411
f 411 410 412
f 411 412 413
f 413 412 414
f 413 414 415
f 415 414 416
f 415 416 417
f 417 416 418
f 417 418 419
f 419 418 420
f 419 420 421
f 421 420 422
f 421 422 423
f 424 425 426
f 424 426 427
f 424 427 428
f 424 428 425
f 425 428 429
f 425 429 426
f 426 429 430
f 426 430 427
f 427 430 431
f 427 431 428
f 432 433 434
f 432 434 435
f 432 435 436
f 432 436 437
f 437 436 438
f 437 438 439
f 439 438 440
f 439 440 441
f 435 434 442
f 435 442 443
f 435 443 436
f 436 443 444
f 436 444 438
f 438 444 445
f 438 445 440
f 440 445 446
f 446 445 447
f 446 447 448
f 443 442 449
f 443 449 450
f 443 450 444
f 444 450 451
f 444 451 445
f 445 451 447
f 452 453 454
f 452 454 455
f 452 455 456
f 452 456 453
f 453 456 457
f 453 457 454
f 454 457 458
f 454 458 455
f 455 458 459
f 455 459 456
