# RS2 Model 22786
# Vertices: 64
# Faces: 118

v -53 -26 80
v -37 -24 73
v -36 -25 74
v -35 -24 75
v -51 -25 81
v -48 -9 90
v -49 -7 91
v -53 -25 79
v -33 -6 83
v -32 -13 80
v -33 -20 77
v -34 -25 74
v -33 -26 75
v -21 -31 80
v -21 -29 80
v -35 -25 77
v -32 -9 84
v -37 -25 77
v -51 -26 82
v -48 -10 91
v -34 -10 86
v -33 -7 85
v -50 -5 90
v -29 -6 84
v -30 -6 84
v -28 -9 83
v -29 -17 79
v -32 -24 75
v -27 -28 75
v -20 -32 79
v -19 -22 85
v -18 -14 89
v -19 -14 90
v -22 -29 81
v -33 -26 78
v -32 -9 86
v -50 -26 83
v -46 -26 82
v -43 -11 91
v -47 -10 92
v -24 -8 86
v -24 -12 84
v -26 -17 81
v -26 -18 80
v -27 -19 80
v -27 -24 77
v -25 -19 80
v -22 -28 78
v -19 -25 82
v -18 -19 86
v -17 -13 90
v -16 -12 90
v -19 -12 87
v -24 -17 82
v -21 -20 82
v -22 -30 81
v -25 -29 81
v -22 -13 90
v -30 -10 87
v -37 -25 78
v -34 -10 87
v -6 -1 94
v -51 -1 102
v -14 -34 67

f 1 2 3
f 1 3 4
f 1 4 5
f 1 5 6
f 1 6 7
f 1 7 8
f 1 8 2
f 2 8 9
f 2 9 10
f 2 10 11
f 2 11 12
f 2 12 3
f 3 12 13
f 3 13 4
f 4 13 14
f 4 14 15
f 4 15 16
f 4 16 17
f 4 17 18
f 4 18 5
f 5 18 19
f 5 19 20
f 5 20 6
f 6 20 21
f 6 21 17
f 6 17 7
f 7 17 22
f 7 22 23
f 7 23 8
f 8 23 9
f 9 23 22
f 9 22 24
f 9 24 25
f 9 25 10
f 10 25 26
f 10 26 27
f 10 27 11
f 11 27 28
f 11 28 12
f 12 28 29
f 12 29 13
f 13 29 14
f 14 29 30
f 14 30 31
f 14 31 15
f 15 31 32
f 15 32 33
f 15 33 34
f 15 34 16
f 16 34 35
f 16 35 36
f 16 36 17
f 17 36 32
f 17 32 24
f 17 24 22
f 37 19 38
f 37 38 39
f 37 39 40
f 37 40 20
f 37 20 19
f 26 25 41
f 26 41 42
f 26 42 43
f 26 43 27
f 27 43 44
f 27 44 45
f 27 45 28
f 28 45 29
f 29 45 46
f 29 46 47
f 29 47 48
f 29 48 30
f 30 48 49
f 30 49 31
f 31 49 50
f 31 50 51
f 31 51 32
f 32 51 24
f 24 51 25
f 25 51 41
f 41 51 52
f 41 52 53
f 41 53 42
f 42 53 54
f 42 54 44
f 42 44 43
f 53 52 50
f 53 50 55
f 53 55 54
f 54 55 44
f 44 55 47
f 44 47 46
f 44 46 45
f 50 52 51
f 34 33 56
f 34 56 57
f 34 57 35
f 35 57 58
f 35 58 59
f 35 59 36
f 36 59 58
f 36 58 33
f 36 33 32
f 60 18 21
f 60 21 61
f 60 61 39
f 60 39 38
f 60 38 19
f 60 19 18
f 55 49 48
f 55 48 47
f 55 50 49
f 20 61 21
f 61 20 39
f 39 20 40
f 18 17 21
f 33 58 56
f 56 58 57
