# RS2 Model 22791
# Vertices: 278
# Faces: 548

v 18 -9 42
v 24 -1 40
v 23 2 46
v 16 -9 44
v 6 2 40
v 9 -1 37
v 19 -9 36
v 25 -4 36
v 26 -1 40
v 25 1 46
v 25 4 46
v 26 2 40
v 24 2 40
v 25 5 36
v 16 14 43
v 21 19 55
v 22 -10 57
v 0 -13 57
v 0 -11 50
v 0 22 48
v 12 5 34
v 9 2 37
v 5 4 39
v 5 1 39
v 8 -1 36
v 11 -4 33
v 12 -4 34
v 20 -4 30
v 26 -1 32
v 27 -4 36
v 28 -1 32
v 28 2 21
v 30 2 19
v 28 2 32
v 27 5 36
v 26 2 32
v 20 11 32
v 30 5 20
v 28 5 22
v 22 10 23
v 19 5 22
v 16 2 30
v 11 5 33
v 8 2 36
v 14 2 29
v 14 -1 29
v 16 -1 30
v 22 -2 21
v 31 4 15
v 31 7 15
v 28 5 19
v 22 10 20
v 19 5 19
v 17 5 20
v 17 2 19
v 19 2 21
v 19 2 18
v 22 -2 18
v 28 2 18
v 29 6 14
v 24 11 15
v 20 6 14
v 18 7 15
v 18 4 15
v 24 0 13
v 0 26 56
v 18 18 70
v 24 8 69
v 18 -9 65
v 0 -13 63
v -19 -9 65
v -22 -10 57
v -16 -10 39
v -11 4 35
v -17 11 37
v -21 19 55
v -19 18 70
v 0 21 69
v -25 8 69
v -21 -10 78
v -26 6 78
v -25 4 38
v -18 -12 32
v -23 -8 17
v -10 4 19
v -23 17 23
v 34 -1 11
v 33 17 8
v 17 -4 11
v 23 -18 6
v 35 -18 6
v 39 -1 0
v 36 16 0
v 15 17 8
v 15 16 0
v 16 -4 0
v 22 -18 0
v 31 -26 4
v 30 -23 7
v 37 -18 0
v -34 4 21
v -29 6 14
v -24 0 13
v -20 6 14
v -24 11 15
v -33 17 8
v -34 -1 11
v -17 -4 11
v -15 17 8
v -15 16 0
v -36 16 0
v -39 -1 0
v -35 -18 6
v -23 -18 6
v -16 -4 0
v -22 -18 0
v -37 -18 0
v -32 -25 4
v -31 -22 7
v 0 -18 47
v 19 -14 49
v 0 -18 40
v 17 -14 42
v -20 -14 49
v -18 -14 42
v 43 15 66
v 52 13 72
v 49 15 70
v 52 17 72
v 52 24 72
v 57 22 62
v 50 15 59
v 52 6 72
v 58 15 77
v 55 15 74
v 50 12 75
v 46 15 73
v 50 18 75
v 53 15 77
v 65 15 65
v 60 18 63
v 55 15 61
v 57 7 62
v 60 12 63
v 62 9 57
v 67 21 60
v 52 15 53
v 60 11 47
v 68 20 51
v 60 20 47
v 58 15 81
v 50 8 75
v 40 14 70
v 50 22 75
v 41 21 87
v 47 15 91
v 41 9 87
v 34 15 82
v 34 14 87
v 39 19 90
v 42 15 92
v 39 11 90
v 36 9 93
v 30 14 88
v 36 21 93
v 42 15 97
v 23 15 111
v 22 10 105
v 20 14 98
v 22 21 105
v 15 16 110
v 14 4 100
v 24 7 85
v 18 22 91
v 15 23 107
v -1 24 113
v 11 14 113
v 9 6 106
v 7 -3 97
v 19 -7 88
v 20 -10 78
v 25 6 78
v 19 20 79
v -1 23 88
v -1 28 93
v -1 26 109
v -17 16 110
v -1 20 115
v 6 15 118
v 6 8 114
v -1 3 103
v -1 -7 95
v -1 -13 88
v -1 -16 76
v -1 21 69
v -1 25 76
v -19 22 91
v -17 23 107
v -26 15 111
v -24 10 105
v -16 4 100
v -13 14 113
v -8 15 118
v 10 16 123
v 12 9 119
v 13 2 120
v 8 -6 110
v -1 4 109
v -11 6 106
v -9 -3 97
v -20 -7 88
v -1 -19 141
v -1 -17 152
v -15 -5 155
v -17 -6 140
v -1 -17 138
v 13 -5 136
v 15 -6 140
v 13 -5 155
v -14 16 158
v -14 21 134
v -15 -5 136
v -1 -18 132
v -1 -16 126
v 14 -5 130
v 13 6 127
v 9 18 131
v 12 21 134
v 12 16 158
v -1 22 157
v -1 25 145
v -11 18 131
v -15 6 127
v -16 -5 130
v -15 -3 122
v -5 -19 118
v -1 -20 120
v 3 -19 118
v 13 -3 122
v 11 10 125
v -12 16 123
v -13 10 125
v -15 2 120
v -8 -16 111
v -1 -14 109
v -1 -22 105
v -8 -24 107
v -8 -28 116
v -8 -20 120
v -5 -17 114
v -1 -16 112
v 6 -16 111
v 6 -24 107
v -1 -30 119
v -1 -22 123
v -10 -6 110
v -1 -6 105
v 3 -17 114
v 6 -20 120
v 6 -28 116
v -8 8 114
v -14 9 119
v -20 20 79
v -25 7 85
v -22 14 98
v -24 21 105
v -31 16 102
v -31 14 102
v -30 9 87
v -30 21 87
v -38 9 91
v -38 21 91
v -32 15 94
v -34 9 101
v -34 21 101
v -37 21 102
v -36 15 104
v -37 9 102

f 1 2 3
f 1 3 4
f 1 4 5
f 1 5 6
f 1 6 7
f 1 7 8
f 1 8 2
f 2 8 9
f 2 9 10
f 2 10 3
f 3 10 11
f 3 11 12
f 3 12 13
f 3 13 14
f 3 14 15
f 3 15 16
f 3 16 17
f 3 17 4
f 4 17 18
f 4 18 19
f 4 19 5
f 5 19 20
f 5 20 15
f 5 15 21
f 5 21 22
f 5 22 23
f 5 23 24
f 5 24 25
f 5 25 6
f 6 25 26
f 6 26 27
f 6 27 7
f 7 27 28
f 7 28 29
f 7 29 8
f 8 29 30
f 8 30 9
f 9 30 31
f 9 31 12
f 9 12 11
f 9 11 10
f 31 29 32
f 31 32 33
f 31 33 34
f 31 34 12
f 12 34 35
f 12 35 13
f 13 35 14
f 14 35 34
f 14 34 36
f 14 36 37
f 14 37 21
f 14 21 15
f 36 34 38
f 36 38 39
f 36 39 37
f 37 39 40
f 37 40 41
f 37 41 42
f 37 42 21
f 21 42 43
f 21 43 44
f 21 44 22
f 22 44 23
f 23 44 24
f 24 44 25
f 25 44 45
f 25 45 46
f 25 46 26
f 26 46 27
f 27 46 47
f 27 47 28
f 28 47 48
f 28 48 32
f 28 32 29
f 34 33 38
f 38 33 49
f 38 49 50
f 38 50 51
f 38 51 39
f 39 51 40
f 40 51 52
f 40 52 41
f 41 52 53
f 41 53 54
f 41 54 45
f 41 45 42
f 42 45 43
f 43 45 44
f 29 31 30
f 47 46 55
f 47 55 56
f 47 56 48
f 48 56 57
f 48 57 58
f 48 58 32
f 32 58 59
f 32 59 33
f 33 59 60
f 33 60 49
f 49 60 50
f 50 60 51
f 51 60 52
f 52 60 61
f 52 61 53
f 53 61 62
f 53 62 54
f 54 62 63
f 54 63 55
f 54 55 46
f 54 46 45
f 56 55 57
f 57 55 64
f 57 64 62
f 57 62 58
f 58 62 65
f 58 65 60
f 58 60 59
f 55 63 64
f 64 63 62
f 15 20 16
f 16 20 66
f 16 66 67
f 16 67 68
f 16 68 17
f 17 68 69
f 17 69 18
f 18 69 70
f 18 70 71
f 18 71 72
f 18 72 73
f 18 73 19
f 19 73 74
f 19 74 20
f 20 74 75
f 20 75 76
f 20 76 66
f 66 76 77
f 66 77 78
f 66 78 67
f 79 72 71
f 79 71 80
f 79 80 81
f 79 81 77
f 79 77 76
f 79 76 72
f 72 76 82
f 72 82 73
f 73 82 83
f 73 83 74
f 74 83 84
f 74 84 85
f 74 85 75
f 75 85 86
f 75 86 82
f 75 82 76
f 87 88 60
f 87 60 65
f 87 65 89
f 87 89 90
f 87 90 91
f 87 91 92
f 87 92 88
f 88 92 93
f 88 93 94
f 88 94 61
f 88 61 60
f 94 93 95
f 94 95 89
f 94 89 62
f 94 62 61
f 89 95 96
f 89 96 90
f 90 96 97
f 90 97 98
f 90 98 99
f 90 99 91
f 91 99 100
f 91 100 92
f 92 100 96
f 92 96 95
f 92 95 93
f 96 100 97
f 97 100 98
f 98 100 99
f 89 65 62
f 82 86 101
f 82 101 83
f 83 101 84
f 84 101 102
f 84 102 103
f 84 103 85
f 85 103 104
f 85 104 86
f 86 104 105
f 86 105 101
f 101 105 102
f 102 105 106
f 102 106 107
f 102 107 103
f 103 107 108
f 103 108 104
f 104 108 109
f 104 109 105
f 105 109 106
f 106 109 110
f 106 110 111
f 106 111 107
f 107 111 112
f 107 112 113
f 107 113 108
f 108 113 114
f 108 114 115
f 108 115 109
f 109 115 110
f 110 115 111
f 111 115 112
f 112 115 116
f 112 116 117
f 112 117 113
f 113 117 118
f 113 118 119
f 113 119 114
f 114 119 116
f 114 116 115
f 116 118 117
f 118 116 119
f 69 70 120
f 69 120 121
f 121 120 122
f 121 122 123
f 70 71 124
f 70 124 120
f 120 124 125
f 120 125 122
f 126 127 128
f 126 128 129
f 126 129 130
f 126 130 131
f 126 131 132
f 126 132 133
f 126 133 127
f 127 133 134
f 127 134 135
f 127 135 136
f 127 136 137
f 127 137 128
f 128 137 138
f 128 138 129
f 129 138 139
f 129 139 135
f 129 135 134
f 129 134 130
f 130 134 140
f 130 140 131
f 131 140 141
f 131 141 142
f 131 142 132
f 132 142 143
f 132 143 133
f 133 143 134
f 134 143 140
f 140 143 144
f 140 144 141
f 141 144 145
f 141 145 146
f 141 146 142
f 142 146 147
f 142 147 144
f 142 144 143
f 147 148 145
f 147 145 144
f 146 145 148
f 146 148 149
f 146 149 147
f 147 149 150
f 147 150 148
f 148 150 149
f 135 139 136
f 136 139 151
f 136 151 152
f 136 152 137
f 137 152 153
f 137 153 154
f 137 154 138
f 138 154 139
f 139 154 151
f 151 154 155
f 151 155 156
f 151 156 152
f 152 156 157
f 152 157 153
f 153 157 158
f 153 158 154
f 154 158 155
f 155 158 159
f 155 159 160
f 155 160 156
f 156 160 161
f 156 161 157
f 157 161 162
f 157 162 158
f 158 162 159
f 159 162 163
f 159 163 164
f 159 164 160
f 160 164 165
f 160 165 161
f 161 165 166
f 161 166 162
f 162 166 163
f 163 166 167
f 163 167 168
f 163 168 169
f 163 169 164
f 164 169 165
f 165 169 170
f 165 170 166
f 166 170 167
f 167 170 171
f 167 171 168
f 168 171 172
f 168 172 169
f 169 172 173
f 169 173 174
f 169 174 170
f 170 174 175
f 170 175 171
f 171 175 176
f 171 176 177
f 171 177 178
f 171 178 172
f 172 178 179
f 172 179 180
f 172 180 173
f 173 180 181
f 173 181 182
f 173 182 183
f 173 183 174
f 174 183 184
f 174 184 185
f 174 185 186
f 174 186 175
f 175 186 176
f 176 186 187
f 176 187 188
f 176 188 177
f 177 188 189
f 177 189 190
f 177 190 178
f 178 190 191
f 178 191 192
f 178 192 179
f 179 192 193
f 179 193 180
f 180 193 194
f 180 194 181
f 181 194 70
f 181 70 69
f 181 69 182
f 182 69 68
f 182 68 67
f 182 67 183
f 183 67 195
f 183 195 196
f 183 196 184
f 184 196 197
f 184 197 185
f 185 197 198
f 185 198 186
f 186 198 187
f 187 198 199
f 187 199 200
f 187 200 201
f 187 201 202
f 187 202 188
f 188 202 203
f 188 203 189
f 189 203 204
f 189 204 205
f 189 205 190
f 190 205 206
f 190 206 207
f 190 207 208
f 190 208 191
f 191 208 209
f 191 209 210
f 191 210 192
f 192 210 193
f 193 210 211
f 193 211 80
f 193 80 194
f 194 80 71
f 194 71 70
f 212 213 214
f 212 214 215
f 212 215 216
f 212 216 217
f 212 217 218
f 212 218 213
f 213 218 219
f 213 219 214
f 214 219 220
f 214 220 215
f 215 220 221
f 215 221 222
f 215 222 216
f 216 222 223
f 216 223 217
f 217 223 224
f 217 224 225
f 217 225 226
f 217 226 227
f 217 227 218
f 218 227 228
f 218 228 219
f 219 228 229
f 219 229 220
f 220 229 230
f 220 230 231
f 220 231 221
f 221 231 228
f 221 228 227
f 221 227 232
f 221 232 222
f 222 232 233
f 222 233 234
f 222 234 223
f 223 234 224
f 224 234 235
f 224 235 236
f 224 236 237
f 224 237 238
f 224 238 239
f 224 239 225
f 225 239 226
f 226 239 206
f 226 206 240
f 226 240 227
f 227 240 204
f 227 204 232
f 232 204 241
f 232 241 242
f 232 242 233
f 233 242 243
f 233 243 235
f 233 235 234
f 244 245 246
f 244 246 247
f 244 247 248
f 244 248 249
f 244 249 236
f 244 236 250
f 244 250 251
f 244 251 245
f 245 251 252
f 245 252 253
f 245 253 246
f 246 253 254
f 246 254 247
f 247 254 248
f 248 254 255
f 248 255 249
f 249 255 237
f 249 237 236
f 243 256 235
f 235 256 236
f 236 256 250
f 250 256 251
f 251 256 257
f 251 257 207
f 251 207 258
f 251 258 252
f 252 258 259
f 252 259 253
f 253 259 260
f 253 260 254
f 254 260 259
f 254 259 255
f 255 259 237
f 237 259 238
f 238 259 258
f 238 258 239
f 239 258 207
f 239 207 206
f 243 261 256
f 256 261 208
f 256 208 257
f 257 208 207
f 262 261 243
f 262 243 242
f 262 242 241
f 262 241 261
f 261 241 203
f 261 203 202
f 261 202 209
f 261 209 208
f 228 231 229
f 229 231 230
f 204 240 205
f 205 240 206
f 204 203 241
f 263 77 81
f 263 81 264
f 263 264 197
f 263 197 196
f 263 196 77
f 77 196 195
f 81 80 211
f 81 211 264
f 264 211 201
f 264 201 265
f 264 265 197
f 197 265 266
f 197 266 198
f 198 266 199
f 199 266 267
f 199 267 268
f 199 268 200
f 200 268 269
f 200 269 265
f 200 265 201
f 201 211 210
f 201 210 209
f 201 209 202
f 270 266 265
f 270 265 269
f 270 269 271
f 270 271 272
f 270 272 273
f 270 273 267
f 270 267 266
f 273 271 269
f 273 269 268
f 273 268 271
f 271 268 274
f 271 274 275
f 271 275 272
f 272 275 273
f 273 275 267
f 267 275 276
f 267 276 277
f 267 277 268
f 268 277 274
f 274 277 278
f 274 278 275
f 275 278 276
f 276 278 277
