# RS2 Model 22850
# Vertices: 120
# Faces: 198

v -48 -19 25
v -40 -27 25
v -40 -26 49
v -51 -15 49
v -40 -11 25
v -40 -14 17
v -46 -20 17
v -40 -26 17
v -32 -19 25
v -29 -15 49
v -29 -12 66
v -40 -23 66
v -51 -12 66
v -40 -4 49
v -34 -20 17
v -40 -1 66
v -40 0 88
v -32 -8 88
v -40 -16 88
v -48 -8 88
v -40 -12 97
v -46 -6 97
v -40 0 97
v -34 -6 97
v -48 -51 25
v -40 -59 25
v -40 -58 49
v -51 -47 49
v -40 -43 25
v -40 -46 17
v -46 -52 17
v -40 -58 17
v -32 -51 25
v -29 -47 49
v -29 -44 66
v -40 -55 66
v -51 -44 66
v -40 -36 49
v -34 -52 17
v -40 -33 66
v -40 -32 88
v -32 -40 88
v -40 -48 88
v -48 -40 88
v -40 -44 97
v -46 -38 97
v -40 -32 97
v -34 -38 97
v -48 13 25
v -40 5 25
v -40 6 49
v -51 17 49
v -40 21 25
v -40 18 17
v -46 12 17
v -40 6 17
v -32 13 25
v -29 17 49
v -29 20 66
v -40 9 66
v -51 20 66
v -40 28 49
v -34 12 17
v -40 31 66
v -40 32 88
v -32 24 88
v -40 16 88
v -48 24 88
v -40 20 97
v -46 26 97
v -40 32 97
v -34 26 97
v -48 45 25
v -40 37 25
v -40 38 49
v -51 49 49
v -40 53 25
v -40 50 17
v -46 44 17
v -40 38 17
v -32 45 25
v -29 49 49
v -29 52 66
v -40 41 66
v -51 52 66
v -40 60 49
v -34 44 17
v -40 63 66
v -40 64 88
v -32 56 88
v -40 48 88
v -48 56 88
v -40 52 97
v -46 58 97
v -40 64 97
v -34 58 97
v -32 64 113
v -48 64 113
v -48 -64 113
v -32 -64 113
v -32 -64 103
v -32 64 103
v -48 64 103
v -48 -64 103
v -46 -64 97
v -34 -64 97
v -34 64 97
v -46 64 97
v -32 -64 1
v -32 64 1
v -32 64 11
v -32 -64 11
v -48 -64 1
v -48 -64 11
v -48 64 1
v -48 64 11
v -46 64 17
v -34 64 17
v -34 -64 17
v -46 -64 17

f 1 2 3
f 1 3 4
f 1 4 5
f 1 5 6
f 1 6 7
f 1 7 2
f 2 7 8
f 2 8 9
f 2 9 10
f 2 10 3
f 3 10 11
f 3 11 12
f 3 12 4
f 4 12 13
f 4 13 14
f 4 14 5
f 5 14 9
f 5 9 15
f 5 15 6
f 9 14 10
f 10 14 16
f 10 16 11
f 11 16 17
f 11 17 18
f 11 18 12
f 12 18 19
f 12 19 13
f 13 19 20
f 13 20 16
f 13 16 14
f 9 8 15
f 20 19 21
f 20 21 22
f 20 22 17
f 20 17 16
f 18 17 23
f 18 23 24
f 18 24 19
f 19 24 21
f 17 22 23
f 25 26 27
f 25 27 28
f 25 28 29
f 25 29 30
f 25 30 31
f 25 31 26
f 26 31 32
f 26 32 33
f 26 33 34
f 26 34 27
f 27 34 35
f 27 35 36
f 27 36 28
f 28 36 37
f 28 37 38
f 28 38 29
f 29 38 33
f 29 33 39
f 29 39 30
f 33 38 34
f 34 38 40
f 34 40 35
f 35 40 41
f 35 41 42
f 35 42 36
f 36 42 43
f 36 43 37
f 37 43 44
f 37 44 40
f 37 40 38
f 33 32 39
f 44 43 45
f 44 45 46
f 44 46 41
f 44 41 40
f 42 41 47
f 42 47 48
f 42 48 43
f 43 48 45
f 41 46 47
f 49 50 51
f 49 51 52
f 49 52 53
f 49 53 54
f 49 54 55
f 49 55 50
f 50 55 56
f 50 56 57
f 50 57 58
f 50 58 51
f 51 58 59
f 51 59 60
f 51 60 52
f 52 60 61
f 52 61 62
f 52 62 53
f 53 62 57
f 53 57 63
f 53 63 54
f 57 62 58
f 58 62 64
f 58 64 59
f 59 64 65
f 59 65 66
f 59 66 60
f 60 66 67
f 60 67 61
f 61 67 68
f 61 68 64
f 61 64 62
f 57 56 63
f 68 67 69
f 68 69 70
f 68 70 65
f 68 65 64
f 66 65 71
f 66 71 72
f 66 72 67
f 67 72 69
f 65 70 71
f 73 74 75
f 73 75 76
f 73 76 77
f 73 77 78
f 73 78 79
f 73 79 74
f 74 79 80
f 74 80 81
f 74 81 82
f 74 82 75
f 75 82 83
f 75 83 84
f 75 84 76
f 76 84 85
f 76 85 86
f 76 86 77
f 77 86 81
f 77 81 87
f 77 87 78
f 81 86 82
f 82 86 88
f 82 88 83
f 83 88 89
f 83 89 90
f 83 90 84
f 84 90 91
f 84 91 85
f 85 91 92
f 85 92 88
f 85 88 86
f 81 80 87
f 92 91 93
f 92 93 94
f 92 94 89
f 92 89 88
f 90 89 95
f 90 95 96
f 90 96 91
f 91 96 93
f 89 94 95
f 97 98 99
f 97 99 100
f 97 100 101
f 97 101 102
f 97 102 98
f 98 102 103
f 98 103 99
f 99 103 104
f 99 104 100
f 100 104 101
f 101 104 105
f 101 105 106
f 101 106 102
f 102 106 107
f 102 107 103
f 103 107 108
f 103 108 104
f 104 108 105
f 105 108 106
f 106 108 107
f 109 110 111
f 109 111 112
f 109 112 113
f 113 112 114
f 113 114 115
f 115 114 116
f 115 116 110
f 110 116 111
f 111 116 117
f 111 117 118
f 111 118 112
f 112 118 119
f 112 119 114
f 114 119 120
f 114 120 116
f 116 120 117
f 117 120 118
f 118 120 119
