# RS2 Model 22897
# Vertices: 117
# Faces: 188

v -32 -30 16
v -64 -30 16
v -64 -64 16
v -32 -64 16
v -32 -64 48
v -32 -28 48
v -32 -22 48
v -32 -24 28
v -58 -24 28
v -64 8 16
v -64 -64 0
v -32 64 16
v -64 64 16
v -32 8 16
v -32 10 48
v -32 64 48
v -32 64 96
v -32 13 96
v -32 64 144
v -32 17 144
v -32 64 204
v -32 21 204
v -32 23 224
v -32 64 224
v -64 64 224
v -64 23 224
v -64 64 240
v -64 -15 224
v -64 -64 240
v -16 -64 240
v -16 64 240
v -12 -64 224
v -12 64 224
v 64 -64 224
v 64 64 224
v -64 64 0
v -58 2 28
v -32 2 28
v -48 -19 28
v -48 -3 28
v -32 -3 28
v -32 4 48
v -32 -15 224
v -64 -17 204
v -32 -17 204
v -32 -64 224
v -64 -64 224
v -64 21 204
v -58 15 192
v -58 -11 192
v -32 -11 192
v -32 -21 144
v -32 -50 144
v -32 -64 204
v -32 15 192
v -32 10 192
v -48 10 192
v -48 -6 192
v -32 -6 192
v -32 -15 144
v -32 -25 96
v -32 -36 127
v -32 -44 140
v -39 -44 140
v -39 -56 148
v -32 -56 148
v -32 -64 148
v -39 -64 148
v -39 -58 142
v -39 -64 142
v -35 -59 140
v -35 -64 140
v -35 -64 120
v -35 -49 135
v -35 -44 125
v -35 -44 115
v -35 -49 105
v -35 -59 100
v -35 -64 100
v -39 -58 98
v -39 -64 98
v -39 -56 92
v -39 -64 92
v -32 -56 92
v -32 -64 92
v -32 -50 96
v -32 -19 96
v -32 -14 96
v -32 -17 48
v -32 -19 28
v -48 -17 48
v -48 -1 48
v -32 -1 48
v -32 7 96
v -48 2 96
v -32 2 96
v -32 11 144
v -48 -14 96
v -48 -10 144
v -48 6 144
v -32 6 144
v -32 -10 144
v -39 -42 126
v -39 -42 114
v -39 -48 104
v -39 -44 100
v -39 -48 136
v -39 -36 127
v -39 -36 113
v -32 -36 113
v -32 -44 100
v -35 -44 151
v -35 -44 88
v -35 -91 151
v 90 65 224
v 0 66 224
v 90 -6 224

f 1 2 3
f 1 3 4
f 1 4 5
f 1 5 6
f 1 6 7
f 1 7 8
f 1 8 2
f 2 8 9
f 2 9 10
f 2 10 11
f 2 11 3
f 12 13 10
f 12 10 14
f 12 14 15
f 12 15 16
f 16 15 17
f 17 15 18
f 17 18 19
f 19 18 20
f 19 20 21
f 21 20 22
f 21 22 23
f 21 23 24
f 24 23 25
f 25 23 26
f 25 26 27
f 27 26 28
f 27 28 29
f 27 29 30
f 27 30 31
f 31 30 32
f 31 32 33
f 33 32 34
f 33 34 35
f 10 13 36
f 10 36 11
f 37 38 14
f 37 14 10
f 37 10 9
f 37 9 39
f 37 39 40
f 37 40 38
f 38 40 41
f 38 41 42
f 38 42 15
f 38 15 14
f 43 28 44
f 43 44 45
f 43 45 46
f 43 46 28
f 28 46 47
f 28 47 29
f 26 23 22
f 26 22 48
f 26 48 28
f 28 48 44
f 44 48 49
f 44 49 50
f 44 50 45
f 45 50 51
f 45 51 52
f 45 52 53
f 45 53 54
f 45 54 46
f 48 22 55
f 48 55 49
f 49 55 56
f 49 56 57
f 49 57 50
f 50 57 58
f 50 58 51
f 51 58 59
f 51 59 60
f 51 60 52
f 52 60 61
f 52 61 62
f 52 62 63
f 52 63 53
f 53 63 64
f 53 64 65
f 53 65 66
f 53 66 54
f 54 66 67
f 67 66 65
f 67 65 68
f 68 65 69
f 68 69 70
f 70 69 71
f 70 71 72
f 72 71 73
f 73 71 74
f 73 74 75
f 73 75 76
f 73 76 77
f 73 77 78
f 73 78 79
f 79 78 80
f 79 80 81
f 81 80 82
f 81 82 83
f 83 82 84
f 83 84 85
f 85 84 5
f 5 84 86
f 5 86 6
f 6 86 61
f 6 61 87
f 6 87 7
f 7 87 88
f 7 88 89
f 7 89 8
f 8 89 90
f 8 90 9
f 9 90 39
f 39 90 89
f 39 89 91
f 39 91 40
f 40 91 92
f 40 92 41
f 41 92 93
f 41 93 42
f 42 93 94
f 42 94 18
f 42 18 15
f 93 92 95
f 93 95 96
f 93 96 94
f 94 96 97
f 94 97 20
f 94 20 18
f 92 91 98
f 92 98 95
f 95 98 99
f 95 99 100
f 95 100 96
f 96 100 101
f 96 101 97
f 97 101 55
f 97 55 22
f 97 22 20
f 91 89 88
f 91 88 98
f 98 88 102
f 98 102 99
f 99 102 59
f 99 59 58
f 99 58 100
f 100 58 57
f 100 57 101
f 101 57 56
f 101 56 55
f 102 88 87
f 102 87 60
f 102 60 59
f 60 87 61
f 76 75 103
f 76 103 104
f 76 104 77
f 77 104 105
f 77 105 78
f 78 105 80
f 80 105 106
f 80 106 82
f 82 106 86
f 82 86 84
f 75 74 107
f 75 107 103
f 103 107 64
f 103 64 108
f 103 108 104
f 104 108 109
f 104 109 105
f 105 109 106
f 106 109 110
f 106 110 111
f 106 111 86
f 86 111 61
f 61 111 110
f 61 110 62
f 62 110 109
f 62 109 108
f 62 108 63
f 63 108 64
f 74 71 69
f 74 69 107
f 107 69 65
f 107 65 64
f 112 113 114
