# RS2 Model 22912
# Vertices: 443
# Faces: 870

v 61 0 -10
v 61 -73 -10
v 64 -76 -16
v 64 0 -16
v 35 -73 -10
v 35 0 -10
v 32 0 -16
v 32 -76 -16
v 29 0 -10
v 29 -73 -10
v 3 -73 -10
v 3 0 -10
v 0 0 -16
v 0 -76 -16
v -3 0 -10
v -3 -73 -10
v -29 -73 -10
v -29 0 -10
v -32 0 -16
v -32 -76 -16
v -35 0 -10
v -35 -73 -10
v -61 -73 -10
v -61 0 -10
v -64 0 -16
v -64 -76 -16
v -64 -96 112
v -64 -112 112
v -48 -112 112
v -48 -96 112
v -48 -96 102
v -64 -96 102
v -48 -98 96
v -64 -98 96
v -64 -110 96
v -48 -110 96
v -48 -112 102
v -64 -112 102
v -48 -96 0
v -64 -96 0
v -64 -96 10
v -48 -96 10
v -48 -112 0
v -48 -112 10
v -64 -112 0
v -64 -112 10
v -48 -110 16
v -64 -110 16
v -64 -98 16
v -48 -98 16
v -64 -128 0
v 64 -128 0
v 64 -80 0
v -64 -80 0
v -64 -128 -16
v 64 -128 -16
v 64 -112 112
v 64 -96 112
v 48 -96 112
v 48 -112 112
v 48 -112 102
v 64 -112 102
v 48 -110 96
v 64 -110 96
v 64 -98 96
v 48 -98 96
v 48 -96 102
v 64 -96 102
v 64 -96 0
v 48 -96 0
v 48 -96 10
v 64 -96 10
v 48 -98 16
v 64 -98 16
v 64 -110 16
v 48 -110 16
v 48 -112 10
v 64 -112 10
v 48 -112 0
v 64 -112 0
v 8 -28 66
v -8 -28 66
v -11 -36 74
v 10 -36 74
v 16 -28 62
v 24 -20 65
v 10 -20 74
v -11 -20 74
v -24 -20 65
v -16 -28 62
v -24 -36 65
v -8 -92 66
v 5 -92 66
v 4 -92 64
v 4 -36 64
v 24 -36 65
v 16 -28 46
v 24 -20 44
v 4 -4 50
v 4 -4 54
v -4 -4 54
v -24 -20 44
v -16 -28 46
v -24 -36 44
v -16 -92 46
v -16 -92 62
v -11 -100 74
v 5 -100 74
v 5 -108 66
v 4 -108 64
v -4 -4 50
v 11 -20 34
v -11 -20 34
v 24 -36 44
v 11 -36 34
v 11 -28 34
v -11 -28 34
v -11 -36 34
v -8 -92 42
v -11 -100 34
v -24 -100 44
v -24 -100 65
v -16 -108 62
v -8 -108 66
v -11 -116 74
v 5 -116 74
v 5 -124 66
v 4 -120 64
v -4 -120 64
v -8 -124 66
v -10 -120 58
v -10 -108 58
v -4 -108 64
v -10 -92 58
v -4 -92 64
v -10 -36 54
v -4 -36 64
v 10 -36 54
v 10 -92 54
v 16 -92 54
v 16 -92 46
v 8 -92 42
v -24 -36 26
v 24 -36 26
v 24 -36 34
v 24 -28 34
v 24 -28 26
v -8 -108 42
v 8 -108 42
v 11 -116 34
v -11 -116 34
v -16 -108 46
v 11 -100 34
v 16 -108 46
v 24 -116 44
v 16 -124 46
v 8 -124 42
v -8 -124 42
v -16 -124 46
v -24 -116 44
v 4 -120 44
v -4 -120 44
v -10 -120 50
v -16 -124 62
v -24 -116 65
v 10 -120 52
v 10 -120 50
v 16 -124 52
v 16 -108 52
v 10 -108 52
v 10 -108 50
v 24 -116 53
v 24 -100 44
v 24 -100 53
v 10 -92 50
v 4 -108 44
v -4 -108 44
v -10 -108 50
v -10 -92 50
v -4 -36 44
v 4 -36 44
v 4 -92 44
v -4 -92 44
v 38 -60 9
v 38 -42 25
v 34 -42 25
v 34 -60 9
v 28 -67 16
v 44 -67 16
v 38 -55 4
v 38 -38 20
v 40 -43 26
v 32 -43 26
v 34 -38 20
v 34 -55 4
v 28 -47 -4
v 28 -74 13
v 28 -67 44
v 34 -67 33
v 34 -67 27
v 38 -67 27
v 44 -67 44
v 44 -74 47
v 44 -74 13
v 44 -50 -10
v 44 -47 -4
v 32 -37 19
v 40 -37 19
v 40 -21 26
v 40 -43 34
v 38 -43 33
v 38 -43 27
v 34 -43 27
v 32 -43 34
v 32 -42 30
v 32 -38 24
v 40 -21 34
v 40 -27 41
v 40 -37 41
v 38 -42 35
v 34 -43 33
v 38 -67 33
v 40 -27 19
v 38 -22 25
v 32 -21 26
v 34 -21 27
v 38 -21 27
v 38 -21 33
v 32 -21 34
v 34 -22 35
v 38 -22 35
v 38 -26 40
v 32 -27 41
v 34 -29 41
v 38 -29 41
v 38 -35 41
v 32 -37 41
v 34 -38 40
v 38 -38 40
v 38 -59 52
v 34 -59 52
v 34 -42 35
v 32 -38 36
v 24 -38 30
v 32 -32 21
v 32 -27 19
v 34 -29 19
v 34 -35 19
v 38 -35 19
v 38 -29 19
v 34 -26 20
v 38 -26 20
v 38 -4 9
v 34 -4 9
v 34 -22 25
v 32 -26 24
v 32 -22 30
v 34 -21 33
v 34 3 27
v 38 3 27
v 38 3 33
v 34 3 33
v 38 -54 57
v 34 -54 57
v 28 -47 64
v 44 -47 64
v 38 -35 64
v 34 -35 64
v 34 -35 41
v 32 -32 39
v 24 -32 36
v 32 -26 36
v 24 -26 30
v 24 -32 24
v -24 -28 26
v 24 -28 14
v 8 38 -10
v 8 38 -4
v -8 38 -4
v -24 -28 34
v -24 -36 34
v -24 -38 30
v -32 -42 30
v -32 -38 24
v -24 -32 24
v -32 -32 21
v -32 -26 24
v -24 -26 30
v -32 -22 30
v -32 -26 36
v -24 -32 36
v -32 -32 39
v -32 -38 36
v -32 -43 34
v -32 -43 26
v -32 -37 19
v 38 -29 64
v 34 -29 64
v 28 -17 64
v 44 -17 64
v 38 -9 56
v 34 -9 56
v 34 -26 40
v 38 -4 51
v 34 -4 51
v 28 3 44
v 44 3 44
v 28 10 47
v 28 10 13
v 28 3 16
v 44 3 16
v 44 10 47
v 44 -14 70
v 38 -9 4
v 34 -9 4
v 28 -17 -4
v 44 -17 -4
v 28 -14 -10
v 28 -50 -10
v 34 -35 -4
v 34 -29 -4
v 38 -29 -4
v 44 -14 -10
v 38 -35 -4
v 44 -50 70
v 28 -14 70
v 44 10 13
v 28 -50 70
v 28 -74 47
v -24 -28 14
v -8 38 -10
v -38 -42 25
v -38 -60 9
v -34 -60 9
v -34 -42 25
v -40 -43 26
v -40 -37 19
v -38 -38 20
v -38 -55 4
v -44 -47 -4
v -44 -67 16
v -28 -67 16
v -34 -55 4
v -34 -38 20
v -28 -47 -4
v -34 -35 -4
v -38 -35 -4
v -44 -17 -4
v -44 -50 -10
v -44 -74 13
v -44 -67 44
v -38 -67 33
v -38 -67 27
v -34 -67 27
v -28 -67 44
v -28 -74 47
v -28 -74 13
v -28 -50 -10
v -40 -21 26
v -40 -27 41
v -40 -21 34
v -38 -21 33
v -38 -21 27
v -32 -21 26
v -34 -22 25
v -38 -22 25
v -38 -26 20
v -40 -27 19
v -40 -43 34
v -40 -37 41
v -38 -35 41
v -38 -29 41
v -32 -27 41
v -34 -26 40
v -38 -26 40
v -38 -22 35
v -32 -21 34
v -34 -21 33
v -38 3 33
v -38 3 27
v -34 3 27
v -34 -21 27
v -32 -27 19
v -34 -26 20
v -34 -4 9
v -38 -4 9
v -38 -9 4
v -34 -9 4
v -34 -29 19
v -38 -29 19
v -38 -35 19
v -38 -43 33
v -34 -67 33
v -34 -43 33
v -38 -43 27
v -34 -43 27
v -38 -59 52
v -34 -59 52
v -28 -47 64
v -28 -50 70
v -44 -50 70
v -44 -74 47
v -38 -42 35
v -34 -42 35
v -34 -38 40
v -34 -54 57
v -44 -47 64
v -38 -35 64
v -34 -35 64
v -28 -17 64
v -28 -14 70
v -44 -14 70
v -38 -38 40
v -38 -54 57
v -32 -37 41
v -34 -35 41
v -34 -29 41
v -34 -29 64
v -44 -17 64
v -38 -9 56
v -34 -9 56
v -28 3 44
v -28 10 47
v -44 10 47
v -38 -29 64
v -34 -22 35
v -34 -4 51
v -38 -4 51
v -34 3 33
v -44 3 44
v -44 3 16
v -28 3 16
v -28 -17 -4
v -38 -29 -4
v -34 -29 -4
v -28 -14 -10
v -28 10 13
v -34 -35 19
v -44 -14 -10
v -44 10 13
v 60 -131 0
v 60 -57 0
v -64 -130 0

f 1 2 3
f 1 3 4
f 5 6 7
f 5 7 8
f 5 8 2
f 5 2 6
f 6 2 1
f 2 8 3
f 9 10 8
f 9 8 7
f 11 12 13
f 11 13 14
f 11 14 10
f 11 10 12
f 12 10 9
f 10 14 8
f 15 16 14
f 15 14 13
f 17 18 19
f 17 19 20
f 17 20 16
f 17 16 18
f 18 16 15
f 16 20 14
f 21 22 20
f 21 20 19
f 23 24 25
f 23 25 26
f 23 26 22
f 23 22 24
f 24 22 21
f 22 26 20
f 27 28 29
f 27 29 30
f 27 30 31
f 27 31 32
f 32 31 33
f 32 33 34
f 34 33 35
f 35 33 36
f 35 36 37
f 35 37 38
f 38 37 29
f 38 29 28
f 39 40 41
f 39 41 42
f 39 42 43
f 43 42 44
f 43 44 45
f 45 44 46
f 46 44 47
f 46 47 48
f 48 47 49
f 49 47 50
f 49 50 42
f 49 42 41
f 51 52 53
f 51 53 54
f 54 53 3
f 54 3 26
f 26 3 4
f 26 4 25
f 52 51 55
f 52 55 56
f 30 29 37
f 30 37 31
f 31 37 36
f 31 36 33
f 50 47 44
f 50 44 42
f 57 58 59
f 57 59 60
f 57 60 61
f 57 61 62
f 62 61 63
f 62 63 64
f 64 63 65
f 65 63 66
f 65 66 67
f 65 67 68
f 68 67 59
f 68 59 58
f 69 70 71
f 69 71 72
f 72 71 73
f 72 73 74
f 74 73 75
f 75 73 76
f 75 76 77
f 75 77 78
f 78 77 79
f 78 79 80
f 60 59 67
f 60 67 61
f 61 67 66
f 61 66 63
f 76 73 71
f 76 71 77
f 77 71 70
f 77 70 79
f 81 82 83
f 81 83 84
f 81 84 85
f 81 85 86
f 81 86 87
f 81 87 88
f 81 88 82
f 82 88 89
f 82 89 90
f 82 90 83
f 83 90 91
f 83 91 92
f 83 92 84
f 84 92 93
f 84 93 94
f 84 94 95
f 84 95 96
f 84 96 85
f 85 96 97
f 85 97 86
f 86 97 98
f 86 98 99
f 86 99 100
f 86 100 87
f 87 100 88
f 88 100 101
f 88 101 89
f 89 101 102
f 89 102 90
f 90 102 103
f 90 103 104
f 90 104 91
f 91 104 105
f 91 105 106
f 91 106 92
f 92 106 107
f 92 107 93
f 93 107 108
f 93 108 109
f 93 109 110
f 93 110 94
f 111 99 112
f 111 112 113
f 111 113 102
f 111 102 101
f 111 101 100
f 111 100 99
f 97 96 114
f 97 114 115
f 97 115 116
f 97 116 98
f 98 116 112
f 98 112 99
f 103 117 118
f 103 118 104
f 104 118 119
f 104 119 105
f 105 119 120
f 105 120 121
f 105 121 106
f 106 121 122
f 106 122 107
f 107 122 123
f 107 123 124
f 107 124 108
f 108 124 109
f 109 124 125
f 109 125 126
f 109 126 127
f 109 127 110
f 110 127 128
f 128 127 129
f 129 127 130
f 129 130 131
f 129 131 132
f 129 132 133
f 133 132 134
f 133 134 135
f 135 134 136
f 135 136 137
f 137 136 95
f 95 136 138
f 95 138 96
f 96 138 139
f 96 139 140
f 96 140 114
f 114 140 141
f 114 141 142
f 114 142 115
f 115 142 119
f 115 119 118
f 115 118 143
f 115 143 144
f 115 144 145
f 115 145 116
f 116 145 146
f 116 146 147
f 116 147 117
f 116 117 113
f 116 113 112
f 102 113 117
f 102 117 103
f 148 149 150
f 148 150 151
f 148 151 152
f 148 152 120
f 148 120 153
f 148 153 149
f 149 153 154
f 149 154 150
f 150 154 155
f 150 155 156
f 150 156 157
f 150 157 151
f 151 157 158
f 151 158 159
f 151 159 160
f 151 160 152
f 152 160 123
f 152 123 122
f 152 122 121
f 152 121 120
f 119 142 153
f 119 153 120
f 158 157 161
f 158 161 162
f 158 162 159
f 159 162 163
f 159 163 164
f 159 164 165
f 159 165 160
f 160 165 123
f 123 165 125
f 123 125 124
f 166 167 156
f 166 156 168
f 166 168 169
f 166 169 170
f 166 170 167
f 167 170 171
f 167 171 161
f 167 161 157
f 167 157 156
f 164 163 131
f 164 131 130
f 164 130 125
f 164 125 165
f 130 127 126
f 130 126 125
f 168 156 155
f 168 155 172
f 168 172 169
f 169 172 154
f 169 154 173
f 169 173 174
f 169 174 140
f 169 140 139
f 169 139 170
f 170 139 171
f 171 139 175
f 171 175 176
f 171 176 161
f 161 176 162
f 162 176 177
f 162 177 163
f 163 177 178
f 163 178 131
f 131 178 132
f 132 178 179
f 132 179 134
f 134 179 136
f 136 179 180
f 136 180 181
f 136 181 138
f 138 181 182
f 138 182 175
f 138 175 139
f 172 155 154
f 141 140 174
f 141 174 173
f 141 173 153
f 141 153 142
f 153 173 154
f 177 176 182
f 177 182 183
f 177 183 178
f 178 183 179
f 179 183 180
f 180 183 181
f 181 183 182
f 176 175 182
f 184 185 186
f 184 186 187
f 184 187 188
f 184 188 189
f 184 189 190
f 184 190 191
f 184 191 185
f 185 191 192
f 185 192 186
f 186 192 193
f 186 193 194
f 186 194 195
f 186 195 187
f 187 195 196
f 187 196 188
f 188 196 197
f 188 197 198
f 188 198 199
f 188 199 200
f 188 200 189
f 189 200 201
f 189 201 202
f 189 202 203
f 189 203 204
f 189 204 205
f 189 205 206
f 189 206 190
f 190 206 195
f 190 195 191
f 191 195 194
f 191 194 207
f 191 207 208
f 191 208 192
f 192 208 209
f 192 209 210
f 192 210 211
f 192 211 212
f 192 212 193
f 193 212 213
f 193 213 214
f 193 214 215
f 193 215 216
f 193 216 207
f 193 207 194
f 209 217 218
f 209 218 219
f 209 219 210
f 210 219 220
f 210 220 214
f 210 214 221
f 210 221 211
f 211 221 222
f 211 222 201
f 211 201 212
f 212 201 200
f 212 200 213
f 213 200 199
f 213 199 221
f 213 221 214
f 209 208 223
f 209 223 224
f 209 224 225
f 209 225 226
f 209 226 227
f 209 227 217
f 217 227 228
f 217 228 229
f 217 229 230
f 217 230 231
f 217 231 218
f 218 231 232
f 218 232 233
f 218 233 234
f 218 234 235
f 218 235 219
f 219 235 236
f 219 236 237
f 219 237 238
f 219 238 239
f 219 239 220
f 220 239 240
f 220 240 241
f 220 241 242
f 220 242 214
f 214 242 238
f 214 238 237
f 214 237 243
f 214 243 215
f 215 243 145
f 215 145 244
f 215 244 216
f 216 244 144
f 216 144 245
f 216 245 207
f 207 245 246
f 207 246 247
f 207 247 248
f 207 248 208
f 208 248 249
f 208 249 223
f 223 249 250
f 223 250 246
f 223 246 251
f 223 251 252
f 223 252 224
f 224 252 253
f 224 253 254
f 224 254 255
f 224 255 225
f 225 255 251
f 225 251 246
f 225 246 256
f 225 256 257
f 225 257 229
f 225 229 258
f 225 258 226
f 226 258 259
f 226 259 260
f 226 260 227
f 227 260 261
f 227 261 228
f 228 261 262
f 228 262 258
f 228 258 229
f 222 221 199
f 222 199 198
f 222 198 202
f 222 202 201
f 263 239 238
f 263 238 264
f 263 264 265
f 263 265 266
f 263 266 240
f 263 240 239
f 242 241 264
f 242 264 238
f 236 267 268
f 236 268 269
f 236 269 237
f 237 269 233
f 237 233 270
f 237 270 243
f 243 270 271
f 243 271 145
f 145 271 146
f 146 271 270
f 146 270 272
f 146 272 273
f 146 273 147
f 147 273 257
f 147 257 256
f 147 256 274
f 147 274 144
f 147 144 143
f 147 143 275
f 147 275 276
f 147 276 277
f 147 277 278
f 147 278 279
f 147 279 275
f 147 275 117
f 117 275 280
f 117 280 118
f 118 280 281
f 118 281 143
f 143 281 282
f 143 282 283
f 143 283 284
f 143 284 285
f 143 285 275
f 275 285 286
f 275 286 287
f 275 287 288
f 275 288 280
f 280 288 289
f 280 289 290
f 280 290 291
f 280 291 281
f 281 291 292
f 281 292 293
f 281 293 282
f 282 293 283
f 283 293 294
f 283 294 295
f 283 295 284
f 284 295 296
f 284 296 286
f 284 286 285
f 297 235 234
f 297 234 298
f 297 298 299
f 297 299 300
f 297 300 267
f 297 267 235
f 235 267 236
f 269 268 298
f 269 298 234
f 269 234 233
f 232 301 302
f 232 302 303
f 232 303 233
f 233 303 229
f 233 229 272
f 233 272 270
f 304 231 230
f 304 230 305
f 304 305 306
f 304 306 307
f 304 307 301
f 304 301 232
f 304 232 231
f 230 303 302
f 230 302 305
f 305 302 299
f 305 299 306
f 306 299 308
f 306 308 309
f 306 309 310
f 306 310 259
f 306 259 262
f 306 262 307
f 307 262 261
f 307 261 311
f 307 311 312
f 307 312 313
f 307 313 300
f 307 300 301
f 301 300 302
f 302 300 299
f 258 262 259
f 314 252 251
f 314 251 315
f 314 315 316
f 314 316 317
f 314 317 253
f 314 253 252
f 315 251 255
f 315 255 254
f 315 254 310
f 315 310 316
f 316 310 309
f 316 309 318
f 316 318 319
f 316 319 196
f 316 196 320
f 316 320 321
f 316 321 317
f 317 321 322
f 317 322 206
f 317 206 323
f 317 323 311
f 317 311 253
f 253 311 254
f 254 311 310
f 310 311 260
f 310 260 259
f 324 249 248
f 324 248 320
f 324 320 196
f 324 196 206
f 324 206 322
f 324 322 249
f 249 322 250
f 250 322 321
f 250 321 247
f 250 247 246
f 320 248 247
f 320 247 321
f 323 206 205
f 300 313 325
f 300 325 266
f 300 266 267
f 267 266 268
f 268 266 265
f 268 265 298
f 298 265 299
f 299 265 326
f 299 326 308
f 308 326 313
f 308 313 312
f 308 312 309
f 309 312 327
f 309 327 318
f 318 327 323
f 323 327 311
f 311 327 312
f 266 325 203
f 266 203 202
f 266 202 240
f 240 202 241
f 241 202 198
f 241 198 264
f 264 198 265
f 265 198 328
f 265 328 326
f 326 328 325
f 326 325 313
f 197 196 319
f 197 319 205
f 197 205 204
f 197 204 329
f 197 329 198
f 198 329 328
f 328 329 203
f 328 203 325
f 204 203 329
f 272 257 273
f 257 272 229
f 256 245 274
f 274 245 144
f 275 330 276
f 276 330 331
f 276 331 277
f 277 331 278
f 278 331 279
f 279 331 330
f 279 330 275
f 244 145 144
f 245 256 246
f 261 260 311
f 206 196 195
f 303 230 229
f 332 333 334
f 332 334 335
f 332 335 295
f 332 295 336
f 332 336 337
f 332 337 338
f 332 338 339
f 332 339 333
f 333 339 340
f 333 340 341
f 333 341 334
f 334 341 342
f 334 342 343
f 334 343 344
f 334 344 335
f 335 344 296
f 335 296 295
f 339 338 344
f 339 344 343
f 339 343 345
f 339 345 340
f 340 345 346
f 340 346 347
f 340 347 348
f 340 348 349
f 340 349 350
f 340 350 341
f 341 350 351
f 341 351 352
f 341 352 353
f 341 353 342
f 342 353 354
f 342 354 355
f 342 355 356
f 342 356 357
f 342 357 358
f 342 358 345
f 342 345 343
f 359 360 361
f 359 361 362
f 359 362 363
f 359 363 364
f 359 364 365
f 359 365 366
f 359 366 367
f 359 367 368
f 359 368 337
f 359 337 336
f 359 336 369
f 359 369 370
f 359 370 360
f 360 370 371
f 360 371 372
f 360 372 373
f 360 373 374
f 360 374 375
f 360 375 361
f 361 375 376
f 361 376 377
f 361 377 378
f 361 378 362
f 362 378 379
f 362 379 380
f 362 380 363
f 363 380 381
f 363 381 382
f 363 382 364
f 364 382 377
f 364 377 289
f 364 289 287
f 364 287 383
f 364 383 365
f 365 383 384
f 365 384 385
f 365 385 386
f 365 386 366
f 366 386 387
f 366 387 367
f 367 387 388
f 367 388 384
f 367 384 383
f 367 383 368
f 368 383 389
f 368 389 390
f 368 390 337
f 337 390 391
f 337 391 296
f 337 296 344
f 337 344 338
f 392 352 393
f 392 393 394
f 392 394 294
f 392 294 369
f 392 369 395
f 392 395 352
f 352 395 353
f 353 395 396
f 353 396 354
f 354 396 394
f 354 394 393
f 354 393 355
f 355 393 351
f 355 351 397
f 355 397 398
f 355 398 399
f 355 399 356
f 356 399 400
f 356 400 401
f 356 401 402
f 356 402 357
f 357 402 350
f 357 350 358
f 358 350 349
f 397 403 404
f 397 404 398
f 398 404 405
f 398 405 406
f 398 406 399
f 399 406 407
f 399 407 408
f 399 408 409
f 399 409 410
f 399 410 400
f 400 410 411
f 400 411 412
f 400 412 401
f 401 412 407
f 401 407 351
f 401 351 402
f 402 351 350
f 413 414 406
f 413 406 405
f 413 405 415
f 413 415 370
f 413 370 369
f 413 369 403
f 413 403 414
f 414 403 397
f 414 397 351
f 414 351 407
f 414 407 406
f 408 371 416
f 408 416 409
f 409 416 417
f 409 417 418
f 409 418 410
f 410 418 419
f 410 419 420
f 410 420 421
f 410 421 422
f 410 422 411
f 411 422 423
f 411 423 424
f 411 424 412
f 412 424 419
f 412 419 407
f 407 419 425
f 407 425 408
f 408 425 371
f 371 425 372
f 372 425 418
f 372 418 417
f 372 417 373
f 373 417 415
f 373 415 292
f 373 292 290
f 373 290 377
f 373 377 426
f 373 426 374
f 374 426 427
f 374 427 421
f 374 421 420
f 374 420 375
f 375 420 376
f 376 420 428
f 376 428 427
f 376 427 426
f 376 426 377
f 379 378 429
f 379 429 422
f 379 422 430
f 379 430 380
f 380 430 431
f 380 431 381
f 381 431 432
f 381 432 429
f 381 429 382
f 382 429 378
f 382 378 377
f 384 388 385
f 385 388 433
f 385 433 432
f 385 432 386
f 386 432 431
f 386 431 387
f 387 431 348
f 387 348 388
f 388 348 433
f 433 348 434
f 433 434 435
f 433 435 345
f 433 345 436
f 433 436 432
f 432 436 437
f 432 437 423
f 432 423 422
f 432 422 429
f 391 347 346
f 391 346 438
f 391 438 296
f 296 438 383
f 296 383 286
f 286 383 287
f 434 390 389
f 434 389 435
f 435 389 438
f 435 438 346
f 435 346 345
f 390 434 347
f 390 347 391
f 348 439 349
f 439 348 440
f 439 440 437
f 439 437 436
f 424 430 419
f 419 430 428
f 419 428 420
f 440 431 430
f 440 430 424
f 440 424 423
f 440 423 437
f 440 348 431
f 345 358 436
f 290 292 291
f 287 289 288
f 289 377 290
f 292 415 293
f 293 415 294
f 294 415 404
f 294 404 369
f 369 404 403
f 348 347 434
f 427 428 430
f 427 430 422
f 427 422 421
f 418 425 419
f 393 352 351
f 415 405 404
f 369 336 395
f 395 336 396
f 396 336 295
f 396 295 394
f 394 295 294
f 383 438 389
f 416 371 370
f 416 370 415
f 416 415 417
