# RS2 Model 2292
# Vertices: 387
# Faces: 786

v 116 113 317
v 116 120 317
v 121 120 317
v 121 113 317
v 116 113 328
v 114 112 330
v 114 112 315
v 116 117 315
v 114 121 315
v 114 121 330
v 116 120 328
v 121 120 328
v 121 113 328
v 112 120 328
v 112 113 328
v 112 113 317
v 112 117 315
v 114 115 312
v 114 119 305
v 116 121 305
v 114 119 313
v 112 120 317
v 108 129 305
v 108 126 305
v 112 126 305
v 112 129 305
v 108 129 300
v 108 133 306
v 108 111 306
v 108 118 305
v 108 126 300
v 112 126 300
v 115 125 300
v 115 125 305
v 117 128 305
v 112 129 300
v 108 122 293
v 108 133 280
v 86 133 306
v 89 130 308
v 105 130 308
v 105 113 308
v 97 105 306
v 97 105 280
v 108 111 280
v 108 115 300
v 108 115 305
v 112 115 305
v 112 118 305
v 108 118 300
v 107 111 277
v 107 132 277
v 86 133 280
v 86 111 306
v 89 113 308
v 97 109 308
v 86 111 280
v 87 111 277
v 97 106 277
v 97 106 24
v 107 111 24
v 107 132 24
v 87 132 24
v 87 132 277
v 112 118 300
v 112 115 300
v 117 116 300
v 117 116 305
v 115 119 305
v 115 119 300
v 116 122 300
v 119 122 300
v 119 122 305
v 116 122 305
v 117 128 300
v 50 113 328
v 50 113 317
v 90 113 317
v 83 113 328
v 56 120 328
v 45 120 328
v -50 120 328
v -55 113 328
v -55 113 317
v 45 120 317
v 56 120 317
v 90 120 317
v 94 121 315
v 94 112 315
v 85 112 330
v 83 120 328
v 56 127 323
v 56 127 328
v 56 127 364
v 56 120 353
v 45 120 353
v 45 127 323
v 45 127 276
v 45 127 230
v -50 120 317
v -50 127 328
v -50 127 364
v -50 127 374
v -50 127 410
v -50 120 413
v -61 120 328
v -76 120 328
v -76 113 328
v -76 113 317
v -61 120 317
v 85 121 330
v 89 120 328
v 96 120 317
v 96 113 317
v 89 113 328
v 82 115 22
v 82 110 12
v 82 115 2
v 82 130 2
v 82 130 22
v 56 120 22
v 51 115 22
v -56 115 22
v -87 110 12
v -87 115 2
v -87 130 2
v 40 130 22
v 61 130 22
v 58 127 22
v 57 127 25
v 56 120 52
v 51 115 52
v 45 120 22
v -50 120 22
v -56 115 52
v -61 120 22
v -87 115 22
v -87 130 22
v -66 130 22
v -45 130 22
v 43 127 22
v 44 127 25
v 49 127 25
v 56 127 52
v 56 127 69
v 56 120 69
v 45 120 52
v -48 127 22
v -49 127 25
v -50 120 52
v -61 120 52
v -61 127 25
v -62 127 22
v -61 120 419
v -50 120 419
v -61 127 419
v -61 127 410
v -61 120 413
v -50 127 419
v -97 132 410
v -97 127 410
v -61 127 374
v -81 132 25
v 45 127 61
v -50 127 61
v -50 127 69
v -50 120 69
v -61 120 69
v -61 127 61
v -85 127 61
v -81 127 25
v -85 132 61
v 49 132 25
v 49 127 61
v 45 127 69
v 50 132 69
v 70 127 69
v 56 127 116
v 56 120 116
v 45 120 69
v 45 120 419
v 56 120 419
v 45 127 419
v 45 127 410
v 45 120 413
v 56 120 413
v 56 127 419
v 56 127 410
v 67 132 410
v 45 127 374
v -61 127 69
v 49 132 61
v -55 132 69
v 45 127 116
v -50 127 116
v -50 120 116
v -61 120 116
v -61 127 116
v -86 127 116
v -90 127 69
v -90 132 69
v -55 132 116
v 45 120 116
v 45 120 132
v 45 127 132
v 50 132 116
v -61 127 132
v -50 127 132
v -50 120 132
v -61 120 132
v -61 120 175
v -61 127 175
v -94 127 175
v -92 127 132
v -92 132 132
v -55 132 132
v 45 127 175
v -50 127 175
v -50 120 175
v -50 120 183
v -61 120 183
v -61 127 183
v -55 132 175
v -94 132 175
v 50 132 132
v 56 127 132
v 56 120 132
v 56 120 175
v 45 120 175
v 45 120 183
v 45 127 183
v 56 127 175
v 50 132 175
v 61 132 175
v 61 132 132
v 61 127 132
v 56 127 183
v 56 120 183
v -50 127 183
v -55 132 183
v 56 132 183
v -50 127 230
v -50 127 236
v -50 120 236
v -61 120 236
v -61 127 230
v -85 127 230
v -92 127 183
v -92 132 183
v 56 127 230
v 56 127 276
v 77 127 295
v 63 127 323
v 63 132 323
v 50 132 323
v 45 127 328
v 58 132 328
v 58 127 328
v 58 127 364
v 58 132 364
v 45 127 364
v 56 127 374
v 64 127 374
v 67 127 410
v 64 132 374
v 50 132 276
v 82 127 276
v 82 127 293
v 82 132 293
v 77 132 295
v -25 132 276
v -30 132 323
v -30 127 323
v -25 127 276
v -61 127 236
v -55 132 230
v -85 132 230
v 56 132 230
v -61 127 272
v -79 127 272
v -85 127 255
v -86 127 239
v -85 131 240
v -55 132 236
v -50 127 272
v -60 127 328
v -60 132 328
v -60 132 364
v 2 132 365
v 8 132 355
v 12 132 365
v -61 127 328
v -55 132 272
v -79 132 272
v -95 132 274
v -95 127 274
v -91 127 256
v -85 132 255
v 0 132 272
v 5 132 254
v -7 132 248
v 11 132 236
v 11 127 236
v -7 127 248
v 0 127 272
v -61 127 364
v -60 127 364
v 2 127 365
v 8 127 355
v 12 127 365
v -88 132 374
v 8 127 245
v 8 132 245
v 5 127 254
v -91 132 256
v -88 127 374
v 61 127 175
v 75 127 116
v 75 132 116
v -86 132 116
v 70 132 69
v 82 132 276
v 87 111 24
v 83 135 24
v 83 109 24
v 97 102 24
v 111 109 24
v 111 135 24
v 111 135 0
v 83 135 0
v 83 109 0
v 97 102 0
v 111 109 0
v -76 120 317
v 91 112 330
v 91 121 330
v 100 121 315
v 100 112 315
v 102 113 317
v 95 113 328
v 95 120 328
v 102 120 317
v 104 120 315
v 104 113 315
v 110 113 330
v 107 113 328
v 107 120 328
v 110 120 330
v 108 120 317
v 108 113 317
v -127 113 308
v -119 109 308
v -111 113 308
v -111 130 308
v -127 130 308
v -130 133 306
v -130 111 306
v -119 105 306
v -108 111 306
v -108 133 306
v -108 133 280
v -130 133 280
v -130 111 280
v -119 105 280
v -108 111 280
v -109 111 277
v -109 132 277
v -129 132 277
v -129 111 277
v -119 106 277
v -119 106 24
v -109 111 24
v -109 132 24
v -129 132 24
v -129 111 24
v -119 102 24
v -89 109 24
v -89 135 24
v -133 135 24
v -133 109 24
v -133 109 0
v -119 102 0
v -89 109 0
v -89 135 0
v -133 135 0
v 114 123 305
v 112 121 305

f 1 2 3
f 1 3 4
f 1 4 5
f 1 5 6
f 1 6 7
f 1 7 8
f 1 8 2
f 2 8 9
f 2 9 10
f 2 10 11
f 2 11 12
f 2 12 3
f 3 12 4
f 4 12 13
f 4 13 5
f 5 13 11
f 5 11 10
f 5 10 6
f 6 10 14
f 6 14 15
f 6 15 7
f 7 15 16
f 7 16 17
f 7 17 18
f 7 18 8
f 8 18 19
f 8 19 20
f 8 20 21
f 8 21 9
f 9 21 17
f 9 17 22
f 9 22 14
f 9 14 10
f 11 13 12
f 23 24 25
f 23 25 26
f 23 26 27
f 23 27 28
f 23 28 24
f 24 28 29
f 24 29 30
f 24 30 31
f 24 31 32
f 24 32 25
f 25 32 33
f 25 33 34
f 25 34 26
f 26 34 35
f 26 35 36
f 26 36 27
f 27 36 31
f 27 31 37
f 27 37 38
f 27 38 28
f 28 38 39
f 28 39 40
f 28 40 41
f 28 41 29
f 29 41 42
f 29 42 43
f 29 43 44
f 29 44 45
f 29 45 46
f 29 46 47
f 29 47 30
f 30 47 48
f 30 48 49
f 30 49 50
f 30 50 31
f 31 50 37
f 37 50 46
f 37 46 45
f 37 45 38
f 38 45 51
f 38 51 52
f 38 52 53
f 38 53 39
f 39 53 54
f 39 54 55
f 39 55 40
f 40 55 41
f 41 55 42
f 42 55 56
f 42 56 43
f 43 56 54
f 43 54 57
f 43 57 44
f 44 57 58
f 44 58 59
f 44 59 45
f 45 59 51
f 51 59 60
f 51 60 61
f 51 61 62
f 51 62 52
f 52 62 63
f 52 63 64
f 52 64 53
f 53 64 57
f 53 57 54
f 50 49 65
f 50 65 46
f 46 65 66
f 46 66 47
f 47 66 48
f 48 66 67
f 48 67 68
f 48 68 49
f 49 68 69
f 49 69 65
f 65 69 70
f 65 70 66
f 66 70 67
f 67 70 71
f 67 71 72
f 67 72 68
f 68 72 73
f 68 73 69
f 69 73 74
f 69 74 70
f 70 74 71
f 71 74 34
f 71 34 33
f 71 33 72
f 72 33 75
f 72 75 73
f 73 75 35
f 73 35 74
f 74 35 34
f 31 36 32
f 32 36 75
f 32 75 33
f 36 35 75
f 76 77 78
f 76 78 79
f 76 79 80
f 76 80 81
f 76 81 82
f 76 82 83
f 76 83 77
f 77 83 84
f 77 84 85
f 77 85 86
f 77 86 87
f 77 87 78
f 78 87 88
f 78 88 89
f 78 89 79
f 79 89 90
f 79 90 91
f 79 91 80
f 80 91 86
f 80 86 92
f 80 92 93
f 80 93 94
f 80 94 95
f 80 95 81
f 81 95 96
f 81 96 97
f 81 97 98
f 81 98 99
f 81 99 85
f 81 85 100
f 81 100 82
f 82 100 101
f 82 101 102
f 82 102 103
f 82 103 104
f 82 104 105
f 82 105 106
f 82 106 83
f 83 106 107
f 83 107 108
f 83 108 84
f 84 108 109
f 84 109 110
f 84 110 100
f 84 100 85
f 86 91 87
f 87 91 88
f 88 91 111
f 88 111 112
f 88 112 113
f 88 113 89
f 89 113 114
f 89 114 90
f 90 114 115
f 90 115 111
f 90 111 91
f 116 117 118
f 116 118 119
f 116 119 120
f 116 120 121
f 116 121 122
f 116 122 117
f 117 122 123
f 117 123 124
f 117 124 118
f 118 124 125
f 118 125 119
f 119 125 126
f 119 126 127
f 119 127 128
f 119 128 120
f 120 128 129
f 120 129 121
f 121 129 130
f 121 130 131
f 121 131 132
f 121 132 122
f 122 132 133
f 122 133 134
f 122 134 123
f 123 134 135
f 123 135 136
f 123 136 137
f 123 137 124
f 124 137 125
f 125 137 126
f 126 137 138
f 126 138 139
f 126 139 140
f 126 140 127
f 127 140 141
f 127 141 128
f 128 141 129
f 129 141 142
f 129 142 143
f 129 143 130
f 130 143 144
f 130 144 131
f 131 144 145
f 131 145 146
f 131 146 147
f 131 147 132
f 132 147 133
f 133 147 142
f 133 142 141
f 133 141 140
f 133 140 148
f 133 148 134
f 134 148 149
f 134 149 150
f 134 150 135
f 135 150 151
f 135 151 136
f 136 151 152
f 136 152 153
f 136 153 138
f 136 138 137
f 154 155 156
f 154 156 157
f 154 157 158
f 154 158 155
f 155 158 105
f 155 105 159
f 155 159 156
f 156 159 104
f 156 104 157
f 157 104 160
f 157 160 161
f 157 161 162
f 157 162 158
f 158 162 106
f 158 106 105
f 153 139 138
f 139 153 140
f 140 153 148
f 148 153 152
f 148 152 149
f 149 152 163
f 149 163 142
f 149 142 164
f 149 164 165
f 149 165 150
f 150 165 166
f 150 166 167
f 150 167 151
f 151 167 168
f 151 168 169
f 151 169 152
f 152 169 170
f 152 170 171
f 152 171 163
f 163 171 172
f 163 172 173
f 163 173 142
f 142 173 143
f 143 173 174
f 143 174 144
f 144 174 175
f 144 175 145
f 145 175 176
f 145 176 177
f 145 177 178
f 145 178 146
f 146 178 179
f 146 179 180
f 146 180 147
f 147 180 164
f 147 164 142
f 181 182 183
f 181 183 184
f 181 184 185
f 181 185 182
f 182 185 186
f 182 186 187
f 182 187 183
f 183 187 188
f 183 188 184
f 184 188 189
f 184 189 104
f 184 104 103
f 184 103 190
f 184 190 185
f 185 190 96
f 185 96 186
f 186 96 95
f 186 95 188
f 186 188 187
f 169 168 191
f 169 191 165
f 169 165 172
f 169 172 170
f 170 172 171
f 164 180 175
f 164 175 174
f 164 174 192
f 164 192 165
f 165 192 172
f 172 192 173
f 173 192 174
f 165 191 166
f 166 191 193
f 166 193 175
f 166 175 194
f 166 194 195
f 166 195 167
f 167 195 196
f 167 196 168
f 168 196 197
f 168 197 191
f 191 197 198
f 191 198 199
f 191 199 200
f 191 200 201
f 191 201 193
f 193 201 202
f 193 202 176
f 193 176 175
f 180 179 203
f 180 203 175
f 175 203 194
f 194 203 204
f 194 204 205
f 194 205 178
f 194 178 206
f 194 206 195
f 195 206 202
f 195 202 198
f 195 198 207
f 195 207 208
f 195 208 196
f 196 208 209
f 196 209 197
f 197 209 210
f 197 210 198
f 198 210 207
f 207 210 211
f 207 211 212
f 207 212 213
f 207 213 214
f 207 214 215
f 207 215 216
f 207 216 208
f 208 216 205
f 208 205 217
f 208 217 218
f 208 218 209
f 209 218 219
f 209 219 210
f 210 219 211
f 211 219 220
f 211 220 221
f 211 221 212
f 212 221 222
f 212 222 218
f 212 218 223
f 212 223 213
f 213 223 224
f 213 224 214
f 214 224 215
f 215 224 223
f 215 223 216
f 216 223 225
f 216 225 205
f 205 225 226
f 205 226 178
f 178 226 179
f 179 226 227
f 179 227 203
f 203 227 204
f 204 227 228
f 204 228 229
f 204 229 205
f 205 229 217
f 217 229 230
f 217 230 231
f 217 231 232
f 217 232 233
f 217 233 218
f 218 233 223
f 223 233 225
f 225 233 234
f 225 234 235
f 225 235 236
f 225 236 226
f 226 236 232
f 226 232 227
f 227 232 228
f 228 232 237
f 228 237 238
f 228 238 229
f 229 238 230
f 230 238 86
f 230 86 85
f 230 85 231
f 231 85 99
f 231 99 239
f 231 239 240
f 231 240 241
f 231 241 237
f 231 237 232
f 219 218 239
f 219 239 220
f 220 239 242
f 220 242 243
f 220 243 244
f 220 244 221
f 221 244 245
f 221 245 222
f 222 245 246
f 222 246 247
f 222 247 248
f 222 248 249
f 222 249 240
f 222 240 239
f 222 239 218
f 238 237 250
f 238 250 86
f 86 250 251
f 86 251 92
f 92 251 252
f 92 252 253
f 92 253 254
f 92 254 255
f 92 255 97
f 92 97 256
f 92 256 93
f 93 256 257
f 93 257 258
f 93 258 94
f 94 258 259
f 94 259 260
f 94 260 261
f 94 261 190
f 94 190 262
f 94 262 95
f 95 262 188
f 188 262 263
f 188 263 264
f 188 264 189
f 189 264 265
f 189 265 160
f 189 160 104
f 250 99 98
f 250 98 251
f 251 98 266
f 251 266 267
f 251 267 252
f 252 267 268
f 252 268 269
f 252 269 270
f 252 270 253
f 253 270 254
f 254 270 255
f 255 270 266
f 255 266 271
f 255 271 272
f 255 272 273
f 255 273 97
f 97 273 98
f 98 273 274
f 98 274 271
f 98 271 266
f 245 244 100
f 245 100 110
f 245 110 275
f 245 275 246
f 246 275 242
f 246 242 276
f 246 276 247
f 247 276 277
f 247 277 248
f 248 277 249
f 249 277 276
f 249 276 240
f 240 276 241
f 241 276 278
f 241 278 250
f 241 250 237
f 275 110 279
f 275 279 280
f 275 280 281
f 275 281 282
f 275 282 283
f 275 283 284
f 275 284 243
f 275 243 242
f 244 243 285
f 244 285 100
f 100 285 101
f 101 285 286
f 101 286 287
f 287 286 288
f 287 288 289
f 287 289 290
f 287 290 257
f 257 290 291
f 257 291 260
f 257 260 259
f 257 259 258
f 279 110 106
f 279 106 292
f 279 292 285
f 279 285 293
f 279 293 280
f 280 293 294
f 280 294 295
f 280 295 296
f 280 296 281
f 281 296 297
f 281 297 298
f 281 298 282
f 282 298 283
f 283 298 293
f 283 293 284
f 284 293 299
f 284 299 300
f 284 300 301
f 284 301 302
f 284 302 303
f 284 303 243
f 243 303 304
f 243 304 285
f 285 304 305
f 285 305 299
f 285 299 293
f 285 292 286
f 286 292 306
f 286 306 307
f 286 307 288
f 288 307 102
f 288 102 289
f 289 102 308
f 289 308 290
f 290 308 309
f 290 309 291
f 291 309 310
f 291 310 260
f 260 310 261
f 261 310 256
f 261 256 96
f 261 96 190
f 292 106 306
f 306 106 162
f 306 162 307
f 307 162 102
f 102 162 103
f 103 162 311
f 103 311 190
f 190 311 265
f 190 265 262
f 262 265 263
f 263 265 264
f 97 96 256
f 105 104 159
f 303 312 304
f 304 312 313
f 304 313 301
f 304 301 314
f 304 314 305
f 305 314 300
f 305 300 299
f 315 297 295
f 315 295 294
f 315 294 298
f 315 298 297
f 300 314 301
f 162 161 316
f 162 316 311
f 311 316 160
f 311 160 265
f 316 161 160
f 101 256 309
f 101 309 308
f 101 308 102
f 101 256 257
f 101 257 287
f 232 236 317
f 232 317 234
f 232 234 233
f 178 177 318
f 178 318 319
f 178 319 206
f 206 319 176
f 206 176 202
f 99 242 239
f 242 99 278
f 242 278 276
f 99 250 278
f 317 236 235
f 317 235 234
f 199 198 202
f 199 202 320
f 199 320 200
f 200 320 201
f 201 320 202
f 177 176 321
f 177 321 318
f 318 321 319
f 319 321 176
f 267 266 322
f 267 322 268
f 268 322 269
f 269 322 266
f 269 266 270
f 274 273 272
f 274 272 271
f 323 60 59
f 323 59 58
f 323 58 63
f 323 63 324
f 323 324 325
f 323 325 60
f 60 325 326
f 60 326 61
f 61 326 327
f 61 327 62
f 62 327 328
f 62 328 63
f 63 328 324
f 324 328 329
f 324 329 330
f 324 330 325
f 325 330 331
f 325 331 326
f 326 331 332
f 326 332 327
f 327 332 333
f 327 333 328
f 328 333 329
f 63 58 64
f 64 58 57
f 54 56 55
f 313 312 302
f 313 302 301
f 312 303 302
f 297 296 295
f 298 294 293
f 256 310 309
f 110 109 334
f 110 334 106
f 106 334 107
f 107 334 109
f 107 109 108
f 111 115 112
f 112 115 335
f 112 335 336
f 112 336 337
f 112 337 113
f 113 337 114
f 114 337 338
f 114 338 115
f 115 338 335
f 335 338 339
f 335 339 340
f 335 340 336
f 336 340 341
f 336 341 337
f 337 341 342
f 337 342 338
f 338 342 339
f 339 342 343
f 339 343 344
f 339 344 345
f 339 345 346
f 339 346 340
f 340 346 341
f 341 346 347
f 341 347 342
f 342 347 348
f 342 348 343
f 343 348 14
f 343 14 349
f 343 349 344
f 344 349 350
f 344 350 15
f 344 15 345
f 345 15 348
f 345 348 347
f 345 347 346
f 351 352 353
f 351 353 354
f 351 354 355
f 351 355 356
f 351 356 357
f 351 357 352
f 352 357 358
f 352 358 353
f 353 358 359
f 353 359 354
f 354 359 360
f 354 360 355
f 355 360 356
f 356 360 361
f 356 361 362
f 356 362 357
f 357 362 363
f 357 363 358
f 358 363 364
f 358 364 359
f 359 364 365
f 359 365 360
f 360 365 361
f 361 365 366
f 361 366 367
f 361 367 362
f 362 367 368
f 362 368 363
f 363 368 369
f 363 369 364
f 364 369 370
f 364 370 365
f 365 370 366
f 366 370 371
f 366 371 372
f 366 372 367
f 367 372 373
f 367 373 368
f 368 373 374
f 368 374 369
f 369 374 375
f 369 375 371
f 369 371 370
f 372 371 376
f 372 376 377
f 372 377 373
f 373 377 378
f 373 378 374
f 374 378 379
f 374 379 375
f 375 379 380
f 375 380 371
f 371 380 376
f 376 380 381
f 376 381 382
f 376 382 377
f 377 382 383
f 377 383 378
f 378 383 384
f 378 384 379
f 379 384 385
f 379 385 380
f 380 385 381
f 348 15 14
f 350 349 22
f 350 22 16
f 350 16 15
f 22 349 14
f 17 16 22
f 17 21 386
f 17 386 387
f 17 387 18
f 18 387 19
f 21 20 386
