# RS2 Model 23008
# Vertices: 25
# Faces: 40

v -4 60 6
v -60 60 6
v -4 4 6
v 0 0 0
v 0 64 0
v -64 64 0
v -60 4 6
v -64 0 0
v -60 -4 6
v -4 -4 6
v 0 -64 0
v 4 -60 6
v 4 -4 6
v 64 0 0
v 60 4 6
v 4 4 6
v 4 60 6
v 64 64 0
v 60 60 6
v -4 -60 6
v -64 -64 0
v -60 -60 6
v 60 -4 6
v 60 -60 6
v 64 -64 0

f 1 2 3
f 1 3 4
f 1 4 5
f 1 5 2
f 2 5 6
f 2 6 7
f 2 7 3
f 3 7 8
f 3 8 4
f 4 8 9
f 4 9 10
f 4 10 11
f 4 11 12
f 4 12 13
f 4 13 14
f 4 14 15
f 4 15 16
f 4 16 5
f 5 16 17
f 5 17 18
f 18 17 19
f 18 19 14
f 14 19 15
f 15 19 17
f 15 17 16
f 7 6 8
f 10 9 20
f 10 20 11
f 11 20 21
f 21 20 22
f 21 22 8
f 8 22 9
f 9 22 20
f 23 13 24
f 23 24 25
f 23 25 14
f 23 14 13
f 12 24 13
f 24 12 11
f 24 11 25
