# RS2 Model 23043
# Vertices: 151
# Faces: 246

v -19 -24 112
v -19 -64 112
v -19 -64 154
v -19 -24 154
v -19 20 112
v -32 -3 112
v -32 -43 112
v -32 -64 112
v -37 -64 109
v -37 -48 109
v -37 -64 76
v -37 -48 76
v -32 -64 73
v -32 -43 73
v -32 -64 71
v -32 -43 71
v -37 -59 68
v -37 -59 35
v -32 -64 32
v -37 -29 35
v -32 -25 32
v -48 -24 16
v -48 -64 16
v -48 -24 0
v -48 -64 0
v -19 20 154
v -19 64 112
v -32 43 112
v -32 -1 112
v -32 -3 73
v -37 -7 109
v -37 -39 109
v -37 -39 76
v -19 64 154
v -19 20 240
v -19 64 240
v 48 32 240
v 48 56 240
v 64 64 240
v 64 56 240
v 64 56 211
v 64 64 211
v 64 56 192
v 64 64 192
v 64 56 160
v 64 64 160
v 64 56 128
v 64 64 128
v 64 56 96
v 64 64 96
v 64 56 64
v 64 64 64
v 64 56 32
v 64 64 32
v 64 56 16
v 64 64 16
v 64 56 0
v 64 64 0
v -19 -64 240
v -19 -24 240
v 48 -16 240
v 48 16 240
v 64 32 240
v 48 56 211
v -37 60 68
v -32 64 71
v -32 64 32
v -37 60 35
v -37 26 35
v -37 26 68
v -32 44 71
v -32 45 73
v -32 64 73
v -37 64 76
v -37 50 76
v -37 64 109
v -37 50 109
v -32 64 112
v -32 45 112
v -32 43 73
v -37 39 109
v -37 3 109
v -37 3 76
v -32 -1 73
v -32 -2 71
v -32 -24 73
v -37 -7 76
v -32 -25 71
v -37 -43 68
v -37 -29 68
v -32 -23 71
v -32 -23 32
v -32 19 32
v -48 20 16
v -48 20 0
v -48 64 16
v -48 64 0
v -37 39 76
v -32 20 73
v -32 19 71
v -37 16 68
v -37 -19 68
v -32 21 71
v -37 16 35
v -37 -19 35
v -32 21 32
v 48 -56 96
v 64 -56 96
v 64 -56 64
v 48 -56 64
v 48 56 64
v 48 56 96
v 48 -56 128
v 64 -56 128
v 64 -64 96
v 64 -64 64
v 64 -64 32
v 64 -56 32
v 48 -56 32
v 48 56 32
v 48 56 128
v 48 -56 160
v 64 -56 160
v 64 -64 128
v 64 -64 160
v 64 -56 192
v 64 -64 192
v 64 -56 211
v 64 -64 211
v 64 -56 240
v 64 -64 240
v 48 -56 240
v 48 -32 240
v 64 -16 240
v 48 -56 192
v 48 56 192
v 64 16 240
v 48 -56 211
v 64 -32 240
v 48 56 160
v 48 56 16
v 48 56 0
v 64 -56 16
v 48 -56 16
v 48 -56 0
v 64 -64 16
v 64 -64 0
v 64 -56 0
v 81 -53 240
v 81 52 240
v -1 -53 240

f 1 2 3
f 1 3 4
f 1 4 5
f 1 5 6
f 1 6 7
f 1 7 2
f 2 7 8
f 8 7 9
f 9 7 10
f 9 10 11
f 11 10 12
f 11 12 13
f 13 12 14
f 13 14 15
f 15 14 16
f 15 16 17
f 15 17 18
f 15 18 19
f 19 18 20
f 19 20 21
f 19 21 22
f 19 22 23
f 23 22 24
f 23 24 25
f 5 4 26
f 5 26 27
f 5 27 28
f 5 28 29
f 5 29 6
f 6 29 30
f 6 30 31
f 6 31 32
f 6 32 7
f 7 32 33
f 7 33 14
f 7 14 10
f 10 14 12
f 27 26 34
f 34 26 35
f 34 35 36
f 36 35 37
f 36 37 38
f 36 38 39
f 39 38 40
f 39 40 41
f 39 41 42
f 42 41 43
f 42 43 44
f 44 43 45
f 44 45 46
f 46 45 47
f 46 47 48
f 48 47 49
f 48 49 50
f 50 49 51
f 50 51 52
f 52 51 53
f 52 53 54
f 54 53 55
f 54 55 56
f 56 55 57
f 56 57 58
f 4 3 59
f 4 59 60
f 4 60 26
f 26 60 35
f 35 60 61
f 35 61 62
f 35 62 37
f 37 62 63
f 37 63 41
f 37 41 64
f 37 64 38
f 38 64 40
f 40 64 41
f 65 66 67
f 65 67 68
f 65 68 69
f 65 69 70
f 65 70 71
f 65 71 66
f 66 71 72
f 66 72 73
f 73 72 74
f 74 72 75
f 74 75 76
f 76 75 77
f 76 77 78
f 78 77 79
f 78 79 27
f 27 79 28
f 28 79 80
f 28 80 81
f 28 81 82
f 28 82 29
f 29 82 83
f 29 83 84
f 29 84 30
f 30 84 85
f 30 85 86
f 30 86 87
f 30 87 31
f 31 87 33
f 31 33 32
f 14 33 86
f 14 86 88
f 14 88 16
f 16 88 89
f 16 89 17
f 17 89 18
f 18 89 20
f 20 89 90
f 20 90 21
f 21 90 88
f 21 88 91
f 21 91 92
f 21 92 22
f 22 92 93
f 22 93 94
f 22 94 24
f 24 94 95
f 95 94 96
f 95 96 97
f 86 33 87
f 81 80 98
f 81 98 83
f 81 83 82
f 84 83 99
f 84 99 100
f 84 100 85
f 85 100 101
f 85 101 102
f 85 102 91
f 85 91 86
f 86 91 88
f 99 83 98
f 99 98 80
f 99 80 71
f 99 71 103
f 99 103 100
f 100 103 93
f 100 93 101
f 101 93 104
f 101 104 105
f 101 105 102
f 102 105 91
f 91 105 92
f 92 105 104
f 92 104 93
f 89 88 90
f 103 70 69
f 103 69 106
f 103 106 93
f 93 106 94
f 94 106 67
f 94 67 96
f 70 103 71
f 106 69 68
f 106 68 67
f 79 77 75
f 79 75 72
f 79 72 80
f 80 72 71
f 107 108 109
f 107 109 110
f 107 110 111
f 107 111 112
f 107 112 113
f 107 113 108
f 108 113 114
f 108 114 115
f 108 115 116
f 108 116 109
f 109 116 117
f 109 117 118
f 109 118 110
f 110 118 119
f 110 119 111
f 111 119 120
f 111 120 51
f 111 51 49
f 111 49 112
f 112 49 47
f 112 47 121
f 112 121 113
f 113 121 122
f 113 122 114
f 114 122 123
f 114 123 124
f 114 124 115
f 124 123 125
f 125 123 126
f 125 126 127
f 127 126 128
f 127 128 129
f 129 128 130
f 129 130 131
f 131 130 132
f 131 132 59
f 59 132 60
f 60 132 133
f 60 133 61
f 61 133 134
f 61 134 126
f 61 126 135
f 61 135 136
f 61 136 62
f 62 136 137
f 62 137 63
f 63 137 43
f 63 43 41
f 123 122 135
f 123 135 126
f 128 138 132
f 128 132 130
f 134 133 139
f 134 139 128
f 134 128 126
f 138 128 139
f 138 139 133
f 138 133 132
f 121 47 45
f 121 45 140
f 121 140 122
f 122 140 135
f 135 140 136
f 136 140 43
f 136 43 137
f 140 45 43
f 51 120 53
f 53 120 141
f 53 141 55
f 55 141 142
f 55 142 57
f 119 118 143
f 119 143 144
f 119 144 120
f 120 144 141
f 141 144 145
f 141 145 142
f 118 117 146
f 118 146 143
f 143 146 147
f 143 147 148
f 143 148 144
f 144 148 145
