# RS2 Model 23078
# Vertices: 44
# Faces: 65

v -43 1 0
v -30 2 70
v -40 25 70
v -57 30 0
v -44 64 66
v -61 64 0
v -17 13 120
v -26 32 122
v -30 64 125
v -4 30 183
v -6 45 184
v 0 64 187
v 17 53 252
v 21 64 249
v 24 39 255
v 33 39 255
v 29 64 249
v 64 64 249
v 64 47 253
v 19 14 181
v 46 20 182
v 64 28 182
v 64 22 182
v 64 28 121
v 39 25 121
v 47 12 119
v 64 15 119
v 49 8 70
v 64 11 70
v 64 5 0
v 55 4 0
v 40 18 70
v 46 14 0
v 25 0 71
v 31 -4 0
v 2 -4 71
v -1 -10 0
v -13 2 70
v -26 1 0
v 3 14 181
v 21 8 119
v 12 8 119
v -1 13 120
v 31 11 180

f 1 2 3
f 1 3 4
f 4 3 5
f 4 5 6
f 3 2 7
f 3 7 8
f 3 8 5
f 5 8 9
f 9 8 10
f 9 10 11
f 9 11 12
f 12 11 13
f 12 13 14
f 14 13 15
f 14 15 16
f 14 16 17
f 17 16 18
f 18 16 19
f 19 16 20
f 19 20 21
f 19 21 22
f 22 21 23
f 23 21 24
f 24 21 25
f 24 25 26
f 24 26 27
f 27 26 28
f 27 28 29
f 29 28 30
f 30 28 31
f 31 28 32
f 31 32 33
f 33 32 34
f 33 34 35
f 35 34 36
f 35 36 37
f 37 36 38
f 37 38 39
f 39 38 2
f 39 2 1
f 8 7 40
f 8 40 10
f 10 40 15
f 10 15 13
f 10 13 11
f 34 32 25
f 34 25 41
f 34 41 36
f 36 41 42
f 36 42 38
f 38 42 43
f 38 43 7
f 38 7 2
f 41 25 21
f 41 21 44
f 41 44 42
f 42 44 43
f 43 44 20
f 43 20 7
f 7 20 40
f 40 20 16
f 40 16 15
f 28 26 25
f 28 25 32
f 20 44 21
