# RS2 Model 23077
# Vertices: 43
# Faces: 65

v 44 -51 66
v 26 -55 127
v 35 -51 66
v 58 -45 0
v 62 -16 0
v 47 -28 66
v 29 -36 130
v 3 -59 188
v 17 -64 126
v 35 -64 66
v 49 -45 0
v -17 -64 249
v -17 -57 248
v -26 -49 246
v -44 -48 246
v -64 -64 249
v -64 -43 245
v -33 -38 190
v -45 -29 191
v -64 -28 192
v -34 12 136
v -64 17 136
v -26 30 62
v -64 36 60
v -21 57 0
v -64 63 0
v 49 -64 0
v 1 -64 187
v 2 -54 188
v -9 -42 190
v -15 -40 190
v -1 42 0
v 9 16 63
v 15 42 0
v 28 8 63
v 35 33 0
v 41 -9 64
v 51 13 0
v -7 16 63
v -2 1 134
v 13 -6 133
v 24 -20 131
v -18 1 134

f 1 2 3
f 1 3 4
f 1 4 5
f 1 5 6
f 1 6 7
f 1 7 2
f 2 7 8
f 2 8 9
f 2 9 3
f 3 9 10
f 3 10 11
f 3 11 4
f 12 13 14
f 12 14 15
f 12 15 16
f 16 15 17
f 17 15 18
f 17 18 19
f 17 19 20
f 20 19 21
f 20 21 22
f 22 21 23
f 22 23 24
f 24 23 25
f 24 25 26
f 27 11 10
f 13 12 28
f 13 28 8
f 13 8 29
f 13 29 14
f 14 29 30
f 14 30 31
f 14 31 18
f 14 18 15
f 8 28 9
f 32 33 34
f 34 33 35
f 34 35 36
f 36 35 37
f 36 37 38
f 38 37 6
f 38 6 5
f 32 39 33
f 33 39 40
f 33 40 35
f 35 40 41
f 35 41 37
f 37 41 42
f 37 42 6
f 6 42 7
f 7 42 29
f 7 29 8
f 39 43 40
f 40 43 31
f 40 31 41
f 41 31 30
f 41 30 42
f 42 30 29
f 43 18 31
f 18 43 21
f 18 21 19
f 39 21 43
f 21 39 23
f 23 39 25
f 25 39 32
