# RS2 Model 23094
# Vertices: 62
# Faces: 89

v 33 8 0
v 64 13 0
v 34 -10 58
v 20 0 58
v 20 17 0
v 1 -20 56
v 0 -2 0
v -64 -17 56
v -64 -2 0
v 64 7 130
v 34 1 126
v 20 11 126
v 4 -7 124
v -46 -8 123
v -64 7 124
v -33 -19 186
v -64 6 192
v -17 -12 253
v -44 9 257
v -64 26 218
v -51 26 260
v -64 18 271
v -23 11 338
v -41 4 337
v -64 19 305
v -54 12 342
v -64 22 321
v -51 26 344
v -64 42 312
v -38 40 344
v -64 59 295
v -64 64 305
v -42 47 346
v -51 64 327
v -43 64 338
v -33 64 352
v 7 1 419
v 9 10 422
v -17 64 363
v 40 20 424
v 13 64 375
v 25 64 385
v 33 64 385
v 64 29 424
v 64 64 394
v 64 -7 187
v 36 -13 187
v 22 -5 189
v 10 -19 187
v 13 -11 253
v 9 48 263
v 21 30 341
v 9 48 346
v 25 0 255
v 64 64 264
v 64 51 343
v 64 64 351
v 42 15 422
v 64 -5 58
v 64 12 190
v 64 16 258
v 64 23 423

f 1 2 3
f 1 3 4
f 1 4 5
f 5 4 6
f 5 6 7
f 7 6 8
f 7 8 9
f 3 10 11
f 3 11 12
f 3 12 4
f 4 12 6
f 6 12 13
f 6 13 8
f 8 13 14
f 8 14 15
f 15 14 16
f 15 16 17
f 17 16 18
f 17 18 19
f 17 19 20
f 20 19 21
f 20 21 22
f 22 21 23
f 22 23 24
f 22 24 25
f 25 24 26
f 25 26 27
f 27 26 28
f 27 28 29
f 29 28 30
f 29 30 31
f 31 30 32
f 32 30 33
f 32 33 34
f 34 33 35
f 35 33 36
f 36 33 37
f 36 37 38
f 36 38 39
f 39 38 40
f 39 40 41
f 41 40 42
f 42 40 43
f 43 40 44
f 43 44 45
f 11 10 46
f 11 46 47
f 11 47 48
f 11 48 12
f 12 48 13
f 13 48 49
f 13 49 14
f 14 49 16
f 16 49 50
f 16 50 18
f 18 50 51
f 18 51 19
f 19 51 21
f 21 51 52
f 21 52 23
f 23 52 53
f 23 53 30
f 23 30 28
f 23 28 24
f 24 28 26
f 49 48 54
f 49 54 50
f 50 54 51
f 51 54 55
f 51 55 56
f 51 56 52
f 52 56 57
f 52 57 53
f 53 57 58
f 53 58 37
f 53 37 30
f 30 37 33
f 58 40 38
f 58 38 37
f 59 3 2
f 3 59 10
f 60 47 46
f 47 60 48
f 48 60 54
f 54 60 61
f 54 61 55
f 44 40 62
f 62 40 58
f 62 58 57
