# RS2 Model 23110
# Vertices: 322
# Faces: 568

v 58 108 85
v 91 66 78
v 88 71 64
v 61 111 82
v 20 111 74
v 27 112 84
v 63 113 102
v 87 74 89
v 85 36 52
v 86 32 25
v 56 37 0
v 32 53 0
v 11 76 0
v 20 114 65
v 3 106 57
v 2 96 59
v 20 112 92
v 56 103 103
v 90 62 92
v 73 28 54
v 83 -20 26
v 88 -10 0
v 106 -12 0
v 69 44 0
v 39 63 0
v 14 90 0
v -13 90 0
v 2 109 33
v -13 99 47
v -10 86 47
v -16 92 60
v -2 104 75
v 10 114 94
v 31 117 107
v 60 110 119
v 86 64 100
v 77 12 55
v 59 -40 11
v 61 -50 0
v 73 -60 0
v 79 -65 0
v 115 -13 0
v 75 47 0
v 42 68 0
v 15 97 0
v -16 106 0
v -60 73 0
v -17 70 37
v -36 80 37
v -85 86 0
v -85 64 0
v -18 72 52
v -4 95 74
v -7 80 74
v 10 98 92
v 27 103 104
v 55 98 116
v 73 63 100
v 65 22 70
v 77 25 70
v 73 -42 25
v 56 -70 0
v 68 -84 0
v 74 -91 0
v 80 -98 0
v 85 -70 0
v 124 -14 0
v 81 50 0
v 45 73 0
v 16 104 0
v -17 115 0
v -71 95 0
v 59 -47 28
v 37 -78 0
v 46 -93 0
v 50 -101 0
v 54 -109 0
v 36 88 100
v 27 95 100
v 23 104 112
v 38 97 116
v 59 104 130
v 80 67 116
v 58 34 76
v 68 37 92
v 74 20 80
v 55 -44 34
v 12 75 78
v -15 61 51
v -5 66 74
v 4 78 85
v 17 93 101
v 30 81 101
v 46 78 110
v 52 88 118
v 57 90 121
v 67 76 116
v 73 83 136
v 81 63 127
v 68 41 95
v 72 39 92
v 73 37 87
v 71 36 88
v 70 33 92
v 67 34 96
v 72 38 98
v 68 37 98
v 58 30 84
v 72 -33 59
v -28 68 50
v -74 38 0
v -28 56 51
v -6 55 60
v 3 59 72
v 5 54 74
v 12 49 81
v -3 76 98
v 10 88 110
v 20 72 90
v 24 78 114
v 36 89 122
v 49 84 125
v 57 88 133
v 57 87 121
v -95 71 0
v -89 45 0
v -89 29 0
v -31 53 62
v 1 56 73
v -2 59 74
v 1 58 74
v 3 53 83
v 5 54 82
v 6 53 83
v -1 53 83
v 1 52 82
v -2 54 82
v -1 57 74
v -4 60 81
v -3 59 82
v -3 61 88
v -2 62 88
v -4 60 88
v 66 -10 74
v 52 -33 54
v 32 -97 0
v 36 -107 0
v 39 -116 0
v 42 -125 0
v 4 -87 0
v 10 -102 0
v 10 -111 0
v 10 -120 0
v 62 69 122
v 50 61 116
v 70 47 116
v 41 63 108
v 49 50 102
v 64 38 102
v 25 25 83
v 54 -20 78
v 40 -55 46
v -26 -67 0
v -30 -79 0
v -32 -86 0
v -34 -93 0
v -3 -32 41
v -12 8 56
v -59 -37 0
v -69 -43 0
v -75 -47 0
v -81 -51 0
v 33 51 97
v 20 37 83
v -103 35 0
v -112 37 0
v -121 39 0
v 25 66 100
v 6 52 86
v 4 52 87
v 6 53 84
v 5 53 89
v 5 52 89
v 5 53 90
v -7 52 83
v -6 52 84
v -4 52 83
v -8 49 85
v 51 91 124
v 51 89 123
v 55 89 122
v 49 88 121
v 45 88 127
v 47 90 129
v 48 89 129
v 52 87 122
v 52 88 124
v 55 85 126
v 54 87 127
v 56 88 126
v 57 86 130
v 56 83 130
v 55 86 131
v 57 82 137
v 59 84 137
v 45 88 132
v 45 87 132
v 52 87 125
v 50 87 129
v 50 86 129
v 48 86 127
v 47 83 130
v 49 84 133
v 68 40 101
v 67 37 105
v 67 39 109
v 71 38 105
v 69 41 112
v 66 39 112
v 65 43 116
v 71 35 96
v 73 30 95
v 73 32 99
v 74 31 94
v 73 29 101
v 70 28 101
v 72 30 105
v 68 29 110
v 70 27 106
v 67 25 107
v 68 31 103
v 68 30 100
v 66 30 103
v 63 30 111
v 66 31 111
v 65 30 108
v -97 48 0
v -104 51 0
v -95 100 0
v -77 103 0
v -103 108 0
v -103 77 0
v -111 83 0
v -18 124 0
v -83 111 0
v -111 116 0
v 71 50 14
v 35 87 14
v 28 85 1
v 69 44 1
v 105 19 1
v 103 28 14
v 95 46 23
v 74 62 23
v 48 87 23
v 10 123 14
v 0 127 1
v 15 127 1
v 23 123 14
v 48 123 14
v 43 127 1
v 77 123 14
v 75 127 1
v 114 122 14
v 118 126 1
v 125 110 1
v 120 108 14
v 121 80 14
v 126 78 1
v 119 55 14
v 123 50 1
v 112 38 14
v 116 30 1
v 101 53 23
v 84 72 34
v 63 98 34
v 40 111 23
v 31 111 23
v 58 111 23
v 79 114 22
v 103 111 23
v 106 100 23
v 107 82 23
v 105 65 23
v 96 87 34
v 81 100 34
v 89 57 157
v 87 56 152
v 91 56 152
v 89 60 152
v 74 89 163
v 69 87 151
v 79 87 151
v 74 96 151
v 27 2 80
v 19 -18 67
v 23 -30 64
v 38 -26 73
v 48 -13 82
v 48 11 93
v 35 10 86
v 52 4 91
v -49 67 38
v -65 61 22
v -68 55 16
v -55 51 25
v -40 54 37
v -27 65 52
v -38 68 45
v -29 62 48
v -48 31 38
v -64 21 23
v -67 10 17
v -53 3 26
v -38 7 37
v -26 24 52
v -37 32 45
v -26 18 48
v 39 100 163
v 33 94 150
v 45 94 150
v 39 106 150

f 1 2 3
f 1 3 4
f 1 4 5
f 1 5 6
f 1 6 7
f 1 7 2
f 2 7 8
f 2 8 9
f 2 9 10
f 2 10 3
f 3 10 11
f 3 11 12
f 3 12 4
f 4 12 13
f 4 13 14
f 4 14 5
f 5 14 15
f 5 15 16
f 5 16 6
f 6 16 17
f 6 17 7
f 7 17 18
f 7 18 8
f 8 18 19
f 8 19 20
f 8 20 21
f 8 21 9
f 9 21 22
f 9 22 10
f 10 22 11
f 11 22 23
f 11 23 24
f 11 24 12
f 12 24 25
f 12 25 13
f 13 25 26
f 13 26 27
f 13 27 14
f 14 27 28
f 14 28 29
f 14 29 15
f 15 29 30
f 15 30 16
f 16 30 31
f 16 31 32
f 16 32 17
f 17 32 33
f 17 33 34
f 17 34 18
f 18 34 35
f 18 35 19
f 19 35 36
f 19 36 37
f 19 37 20
f 20 37 38
f 20 38 21
f 21 38 39
f 21 39 22
f 22 39 40
f 22 40 23
f 23 40 41
f 23 41 42
f 23 42 24
f 24 42 43
f 24 43 25
f 25 43 44
f 25 44 26
f 26 44 45
f 26 45 46
f 26 46 27
f 27 46 47
f 27 47 48
f 27 48 30
f 27 30 29
f 27 29 28
f 49 31 30
f 49 30 48
f 49 48 50
f 49 50 51
f 49 51 52
f 49 52 31
f 31 52 53
f 31 53 32
f 32 53 33
f 33 53 54
f 33 54 55
f 33 55 34
f 34 55 56
f 34 56 35
f 35 56 57
f 35 57 36
f 36 57 58
f 36 58 59
f 36 59 60
f 36 60 37
f 37 60 61
f 37 61 38
f 38 61 39
f 39 61 62
f 39 62 63
f 39 63 40
f 40 63 64
f 40 64 41
f 41 64 65
f 41 65 66
f 41 66 42
f 42 66 67
f 42 67 43
f 43 67 68
f 43 68 44
f 44 68 69
f 44 69 45
f 45 69 70
f 45 70 71
f 45 71 46
f 46 71 72
f 46 72 47
f 47 72 50
f 47 50 48
f 60 73 61
f 61 73 62
f 62 73 74
f 62 74 75
f 62 75 63
f 63 75 76
f 63 76 64
f 64 76 77
f 64 77 65
f 78 57 56
f 78 56 79
f 78 79 80
f 78 80 81
f 78 81 57
f 57 81 82
f 57 82 58
f 58 82 83
f 58 83 84
f 58 84 59
f 59 84 85
f 59 85 86
f 59 86 87
f 59 87 73
f 59 73 60
f 88 79 55
f 88 55 54
f 88 54 89
f 88 89 90
f 88 90 91
f 88 91 79
f 79 91 92
f 79 92 80
f 80 92 93
f 80 93 81
f 81 93 94
f 81 94 95
f 81 95 82
f 82 95 96
f 82 96 97
f 82 97 83
f 83 97 98
f 83 98 99
f 83 99 100
f 83 100 84
f 84 100 101
f 84 101 102
f 84 102 103
f 84 103 85
f 85 103 104
f 85 104 105
f 85 105 101
f 85 101 106
f 85 106 107
f 85 107 100
f 85 100 86
f 86 100 108
f 86 108 109
f 86 109 87
f 87 109 74
f 87 74 73
f 89 54 110
f 89 110 111
f 89 111 112
f 89 112 90
f 90 112 113
f 90 113 114
f 90 114 115
f 90 115 116
f 90 116 117
f 90 117 91
f 91 117 118
f 91 118 119
f 91 119 92
f 92 119 93
f 93 119 120
f 93 120 121
f 93 121 94
f 94 121 122
f 94 122 95
f 95 122 123
f 95 123 97
f 95 97 96
f 96 97 124
f 79 56 55
f 111 110 51
f 111 51 125
f 111 125 126
f 111 126 127
f 111 127 112
f 112 127 128
f 112 128 113
f 113 128 116
f 113 116 115
f 113 115 129
f 113 129 114
f 114 129 130
f 114 130 131
f 114 131 132
f 114 132 133
f 114 133 115
f 115 133 134
f 115 134 131
f 115 131 135
f 115 135 136
f 115 136 129
f 129 136 137
f 129 137 131
f 129 131 138
f 129 138 130
f 130 138 131
f 138 130 139
f 138 139 140
f 138 140 130
f 130 140 139
f 139 140 141
f 139 141 142
f 139 142 143
f 139 143 140
f 140 143 141
f 110 54 53
f 110 53 52
f 110 52 51
f 108 144 109
f 109 144 145
f 109 145 146
f 109 146 74
f 74 146 147
f 74 147 75
f 75 147 148
f 75 148 76
f 76 148 149
f 76 149 77
f 145 150 146
f 146 150 151
f 146 151 147
f 147 151 152
f 147 152 148
f 148 152 153
f 148 153 149
f 154 155 156
f 154 156 99
f 154 99 98
f 154 98 123
f 154 123 122
f 154 122 155
f 155 122 157
f 155 157 158
f 155 158 156
f 156 158 159
f 156 159 108
f 156 108 100
f 156 100 99
f 159 158 160
f 159 160 161
f 159 161 108
f 108 161 144
f 144 161 145
f 145 161 162
f 145 162 150
f 150 162 163
f 150 163 164
f 150 164 151
f 151 164 165
f 151 165 152
f 152 165 166
f 152 166 153
f 161 160 167
f 161 167 162
f 162 167 163
f 163 167 168
f 163 168 169
f 163 169 170
f 163 170 164
f 164 170 171
f 164 171 165
f 165 171 172
f 165 172 166
f 158 157 173
f 158 173 160
f 160 173 174
f 160 174 167
f 167 174 168
f 168 174 116
f 168 116 169
f 169 116 128
f 169 128 127
f 169 127 175
f 169 175 170
f 170 175 176
f 170 176 171
f 171 176 177
f 171 177 172
f 157 122 121
f 157 121 120
f 157 120 173
f 173 120 178
f 173 178 174
f 174 178 116
f 116 178 118
f 116 118 117
f 178 120 118
f 118 120 119
f 123 98 97
f 134 132 131
f 132 134 179
f 132 179 180
f 132 180 133
f 133 180 181
f 133 181 134
f 134 181 179
f 179 181 182
f 179 182 183
f 179 183 180
f 180 183 184
f 180 184 181
f 181 184 182
f 182 184 183
f 137 135 131
f 135 137 185
f 135 185 186
f 135 186 136
f 136 186 187
f 136 187 137
f 137 187 185
f 185 187 188
f 185 188 186
f 186 188 187
f 142 143 141
f 124 95 97
f 189 190 191
f 189 191 96
f 189 96 192
f 189 192 193
f 189 193 194
f 189 194 190
f 190 194 195
f 190 195 192
f 190 192 95
f 190 95 191
f 191 95 196
f 191 196 197
f 191 197 124
f 191 124 198
f 191 198 199
f 191 199 96
f 96 199 200
f 96 200 124
f 124 200 198
f 198 200 201
f 198 201 202
f 198 202 199
f 199 202 203
f 199 203 200
f 200 203 201
f 201 203 204
f 201 204 205
f 201 205 202
f 202 205 204
f 202 204 203
f 192 96 95
f 195 193 192
f 193 195 206
f 193 206 207
f 193 207 194
f 194 207 206
f 194 206 195
f 197 208 124
f 208 197 209
f 208 209 210
f 208 210 196
f 196 210 211
f 196 211 197
f 197 211 209
f 209 211 212
f 209 212 213
f 209 213 210
f 210 213 211
f 211 213 212
f 214 106 101
f 214 101 100
f 214 100 107
f 214 107 215
f 214 215 216
f 214 216 106
f 106 216 217
f 106 217 107
f 107 217 215
f 215 217 218
f 215 218 219
f 215 219 216
f 216 219 220
f 216 220 217
f 217 220 218
f 218 220 219
f 105 221 101
f 101 221 103
f 101 103 222
f 101 222 223
f 101 223 102
f 102 223 224
f 102 224 103
f 103 224 222
f 222 224 225
f 222 225 226
f 222 226 223
f 223 226 227
f 223 227 224
f 224 227 225
f 225 227 228
f 225 228 229
f 225 229 226
f 226 229 230
f 226 230 227
f 227 230 228
f 228 230 229
f 221 104 103
f 104 221 231
f 104 231 232
f 104 232 105
f 105 232 233
f 105 233 221
f 221 233 231
f 231 233 234
f 231 234 235
f 231 235 232
f 232 235 236
f 232 236 233
f 233 236 234
f 234 236 235
f 126 175 127
f 175 126 237
f 175 237 176
f 176 237 238
f 176 238 177
f 239 125 51
f 239 51 50
f 239 50 72
f 239 72 240
f 239 240 241
f 239 241 125
f 125 241 242
f 125 242 126
f 126 242 237
f 237 242 243
f 237 243 238
f 71 240 72
f 240 71 244
f 240 244 245
f 240 245 241
f 241 245 246
f 241 246 242
f 242 246 243
f 71 70 244
f 247 248 249
f 247 249 250
f 247 250 251
f 247 251 252
f 247 252 253
f 247 253 254
f 247 254 248
f 248 254 255
f 248 255 256
f 248 256 249
f 249 256 257
f 257 256 258
f 258 256 259
f 258 259 260
f 258 260 261
f 261 260 262
f 261 262 263
f 263 262 264
f 263 264 265
f 265 264 266
f 266 264 267
f 266 267 268
f 266 268 269
f 269 268 270
f 269 270 271
f 271 270 272
f 271 272 273
f 273 272 251
f 251 272 252
f 252 272 274
f 252 274 253
f 253 274 275
f 253 275 254
f 254 275 255
f 255 275 276
f 255 276 277
f 255 277 278
f 255 278 256
f 256 278 259
f 259 278 277
f 259 277 260
f 260 277 279
f 260 279 262
f 262 279 280
f 262 280 264
f 264 280 281
f 264 281 267
f 267 281 282
f 267 282 268
f 268 282 283
f 268 283 270
f 270 283 284
f 270 284 272
f 272 284 274
f 274 284 275
f 275 284 285
f 275 285 276
f 276 285 286
f 276 286 277
f 277 286 279
f 279 286 281
f 279 281 280
f 282 281 286
f 282 286 285
f 282 285 283
f 283 285 284
f 287 288 289
f 287 289 290
f 287 290 288
f 288 290 289
f 291 292 293
f 291 293 294
f 291 294 292
f 292 294 293
f 295 296 297
f 295 297 298
f 295 298 299
f 295 299 300
f 295 300 301
f 300 299 302
f 303 304 305
f 303 305 306
f 303 306 307
f 303 307 308
f 303 308 309
f 308 307 310
f 311 312 313
f 311 313 314
f 311 314 315
f 311 315 316
f 311 316 317
f 316 315 318
f 319 320 321
f 319 321 322
f 319 322 320
f 320 322 321
