# RS2 Model 23201
# Vertices: 666
# Faces: 1133

v 6 -12 177
v 3 -14 177
v 0 -19 175
v 3 -16 173
v 3 -9 175
v 10 -9 184
v 8 -15 185
v 2 -17 183
v 0 -18 183
v 0 -19 181
v 0 -17 180
v 0 -18 176
v -3 -14 177
v -6 -12 177
v -3 -16 173
v 0 -18 172
v 9 6 191
v -9 6 191
v -8 4 193
v 8 4 193
v 12 -6 196
v 13 -5 189
v 13 -4 187
v 10 -2 180
v 6 4 179
v -6 4 179
v -10 -2 180
v -13 -4 187
v -13 -5 189
v -12 -6 196
v -10 -6 198
v -5 -4 202
v 0 2 198
v 5 -4 202
v 10 -6 198
v 7 -15 196
v 9 -14 195
v 13 -12 190
v 13 -8 188
v 10 -8 188
v 10 -5 189
v 10 -4 187
v 8 -2 180
v 5 2 179
v -5 2 179
v -8 -2 180
v -10 -4 187
v -10 -5 189
v -13 -8 188
v -13 -12 190
v -9 -14 194
v -7 -15 196
v 0 -16 198
v 10 -12 190
v 8 -17 192
v 6 -17 189
v 10 -10 186
v 10 -8 186
v 11 -8 188
v 11 -5 189
v 11 -4 187
v 10 -7 183
v 7 4 171
v -7 4 171
v -3 -9 175
v -10 -7 183
v -11 -4 187
v -11 -5 189
v -11 -8 188
v -10 -8 188
v -10 -12 190
v -8 -17 192
v -3 -19 193
v 0 -17 196
v 4 -17 187
v 4 -17 189
v 3 -17 189
v 1 -17 189
v 4 -17 186
v 0 -20 184
v 0 -19 188
v -1 -17 189
v -2 -17 183
v -4 -17 186
v -8 -15 185
v 3 -17 191
v 3 -17 192
v 0 -18 192
v -3 -17 192
v -3 -17 191
v -3 -17 189
v -4 -17 187
v -6 -17 189
v -10 -10 186
v -10 -9 184
v -4 -17 189
v 3 -19 193
v -10 -8 186
v 7 -8 170
v -7 -8 170
v 0 -12 159
v 7 -14 159
v 17 -4 169
v 17 4 169
v 12 5 165
v 18 8 150
v 6 9 161
v 0 9 164
v 0 7 168
v -6 9 161
v -18 8 150
v -12 5 165
v -17 4 169
v 6 -2 0
v -6 -2 0
v 0 6 0
v 3 5 0
v 15 5 0
v 15 -16 0
v 3 -16 0
v 6 -3 8
v 5 8 5
v 15 8 5
v 15 -3 8
v 15 -18 5
v 5 -18 5
v 6 -3 16
v 6 4 10
v 15 4 10
v 12 -3 16
v 6 -4 24
v 6 6 25
v 12 6 25
v 12 -4 24
v 3 -6 54
v 3 8 52
v 15 8 52
v 15 -6 54
v -15 5 0
v -3 5 0
v -3 -11 0
v -15 -9 0
v -15 -3 8
v -15 8 5
v -5 8 5
v -6 -3 8
v -5 -13 5
v -7 -18 5
v -5 -16 0
v -13 -16 0
v -15 -11 5
v -6 -3 16
v -12 -3 16
v -15 4 10
v -6 4 10
v -6 6 25
v -6 -4 24
v -12 6 25
v -15 8 52
v -3 8 52
v -3 -6 54
v -12 -4 24
v -15 -6 54
v -13 -18 5
v 36 7 90
v 34 2 98
v 36 2 98
v 36 0 97
v 34 0 97
v 33 -1 102
v 33 3 101
v 36 3 102
v 35 -1 102
v 29 -1 108
v 30 -1 102
v 31 0 96
v 32 0 96
v 32 2 98
v 30 3 102
v 31 2 98
v 31 6 90
v 26 2 98
v 29 2 98
v 27 7 89
v 26 0 97
v 28 -1 102
v 27 3 102
v 30 3 101
v 29 0 97
v 29 3 108
v 33 3 108
v 33 -1 108
v 33 -2 120
v 26 -2 120
v 26 4 120
v 33 4 120
v 40 12 112
v 40 -10 114
v 23 -10 114
v 23 12 112
v 38 9 123
v 38 -8 123
v 23 -8 123
v 23 9 123
v 22 9 136
v 35 9 136
v 35 -8 136
v 22 -8 136
v 32 6 151
v 32 -5 151
v 18 -8 150
v 18 9 144
v 10 11 147
v 8 11 144
v 0 11 144
v -3 11 142
v -11 11 147
v -17 5 143
v -18 -8 150
v -22 -8 136
v -22 9 136
v -35 9 136
v -32 6 151
v -17 6 159
v -31 5 158
v -29 4 165
v -17 -4 169
v -6 -14 159
v 0 -13 141
v 3 -13 141
v 13 -12 144
v 13 -12 159
v 17 -6 159
v 31 -4 158
v 29 -4 165
v 29 4 165
v 31 5 158
v 17 6 159
v 18 -10 141
v 19 -2 147
v 20 -2 133
v 19 9 130
v 10 12 133
v 8 12 130
v 0 12 130
v -3 12 128
v -12 12 133
v -19 9 130
v -17 -7 142
v -13 -12 159
v -17 -6 159
v -31 -4 158
v -32 -5 151
v -35 -8 136
v -38 -8 123
v -23 -8 123
v -23 9 123
v -38 9 123
v -26 4 120
v -26 -2 120
v -29 -1 108
v -29 3 108
v -33 4 120
v -40 12 112
v -23 12 112
v -23 -10 114
v -33 -2 120
v -33 -1 108
v -35 -1 102
v -33 -1 102
v -30 -1 102
v -28 -1 102
v -27 3 102
v -30 3 101
v -33 3 101
v -36 3 102
v -33 3 108
v -40 -10 114
v -36 2 98
v -36 0 97
v -34 0 97
v -32 2 98
v -32 0 96
v -31 0 96
v -30 3 102
v -31 2 98
v -31 6 90
v -36 7 90
v -34 2 98
v -26 2 98
v -27 7 89
v -29 2 98
v -26 0 97
v -29 0 97
v 11 5 134
v 8 -8 134
v 11 -8 120
v 13 8 120
v -11 5 134
v -13 8 120
v -8 -8 134
v -11 -8 120
v 14 -13 130
v 19 -10 127
v -4 -12 137
v -4 -13 123
v 0 -14 127
v 3 -14 127
v -11 -13 143
v -12 -14 129
v -29 -4 165
v -18 -12 127
v 13 -8 120
v 13 8 116
v -13 -8 120
v -13 -8 116
v 13 -8 116
v 15 13 103
v -13 8 116
v -15 13 103
v -17 -8 103
v 0 -9 103
v 17 -9 103
v 17 9 98
v 0 9 98
v -17 9 98
v -14 7 64
v -14 -9 67
v -2 -9 67
v 3 7 64
v 3 -9 67
v 15 -9 67
v 15 7 64
v -2 7 64
v 0 2 53
v 0 9 52
v -5 9 52
v -10 9 52
v -16 9 52
v -16 6 52
v -16 -2 53
v -16 -9 54
v -11 -9 54
v -5 -9 54
v 0 -9 54
v 0 -2 44
v 1 -9 54
v 4 -9 47
v 6 -9 54
v 1 2 53
v 1 -2 44
v 9 -9 45
v 12 -9 54
v 14 -9 51
v 17 -9 54
v 17 -2 53
v 17 6 52
v 17 9 52
v 11 9 52
v 6 9 52
v 1 9 52
v 17 -6 45
v 17 1 45
v 13 9 42
v 8 9 42
v 4 9 45
v 1 5 44
v 6 8 90
v 14 8 85
v 9 8 76
v 4 8 80
v 5 -9 91
v 6 -9 81
v 11 -9 77
v 11 -9 85
v 15 -4 83
v 15 1 83
v 15 6 88
v 15 1 87
v 15 -4 89
v 15 0 89
v 15 4 91
v 15 0 91
v -10 7 77
v -4 7 78
v -8 7 73
v -14 7 73
v -16 5 75
v -16 0 71
v -16 -5 80
v -16 0 79
v -12 -6 37
v -9 -6 37
v -4 -7 42
v -9 -7 41
v -12 -7 43
v -10 -7 43
v -6 -7 45
v -10 -7 45
v -7 -9 55
v -5 -9 61
v -15 -9 63
v -12 -9 59
v 3 -9 58
v 8 -9 54
v 13 -9 63
v 8 -9 62
v -3 -9 47
v -8 -9 45
v -13 -9 51
v -16 -6 45
v -16 1 45
v -12 9 42
v -7 9 42
v -3 9 45
v 0 5 44
v 10 -4 30
v 12 -4 31
v 10 -5 34
v 7 -5 35
v 30 -12 300
v 18 -12 304
v 18 -21 294
v 18 -48 272
v 34 -48 272
v 30 -4 294
v 18 0 296
v 0 2 304
v 0 -5 308
v 11 -22 307
v 13 -36 299
v 11 -35 288
v 6 -29 287
v 10 -12 281
v 18 -6 285
v 18 -32 248
v 10 -80 260
v 18 -80 272
v 34 -80 272
v 42 -80 260
v 34 -32 248
v 10 17 267
v 10 23 276
v 0 25 282
v -18 0 296
v -18 -12 304
v -11 -22 307
v 0 -26 315
v 6 -38 321
v 13 -41 313
v 13 -38 307
v 18 -38 310
v 15 -36 299
v 13 -41 292
v 10 -40 279
v 0 -55 272
v -6 -29 287
v -10 -12 281
v -10 17 267
v 26 -72 235
v 18 -75 245
v 22 -75 248
v 18 -80 262
v 21 -80 268
v 31 -80 268
v 34 -80 262
v 34 -75 245
v 31 -75 248
v 26 -75 245
v 24 -76 262
v 24 -76 264
v 29 -76 264
v 29 -76 262
v -10 23 276
v -16 34 271
v -12 38 237
v 12 38 237
v 16 34 271
v 13 40 276
v 0 42 278
v -13 40 276
v -11 52 253
v -7 70 233
v 7 70 233
v 11 52 253
v -18 -6 285
v -30 -4 294
v -30 -12 300
v -18 -21 294
v -13 -36 299
v -13 -38 307
v -13 -41 313
v -6 -38 321
v 0 -56 315
v 9 -57 312
v 13 -50 303
v 13 -44 300
v 15 -44 300
v 13 -44 297
v 13 -44 294
v 8 -48 280
v 7 -53 278
v 6 -52 273
v 0 -58 275
v -7 -53 278
v -6 -52 273
v -10 -40 279
v -11 -35 288
v -18 -32 248
v -34 -32 248
v -34 -48 272
v -18 -48 272
v -10 -80 260
v -18 -75 245
v -26 -72 235
v -34 -75 245
v -42 -80 260
v -34 -80 272
v -18 -80 272
v -21 -80 268
v -18 -80 262
v -22 -75 248
v -26 -75 245
v -30 -75 248
v -34 -80 262
v -31 -80 268
v -29 -76 264
v -24 -76 264
v -24 -76 262
v -29 -76 262
v 36 -113 253
v 32 -97 262
v 37 -97 262
v 37 -100 266
v 33 -100 266
v 30 -89 266
v 30 -90 260
v 36 -88 260
v 35 -88 266
v 24 -89 266
v 25 -101 266
v 29 -101 266
v 29 -98 262
v 24 -89 260
v 25 -98 262
v 27 -114 254
v 16 -97 262
v 21 -97 262
v 17 -115 253
v 16 -100 266
v 19 -88 266
v 18 -88 260
v 24 -90 260
v 21 -100 266
v 24 -76 260
v 29 -76 260
v -37 -97 262
v -32 -97 262
v -36 -113 253
v -37 -100 266
v -35 -88 266
v -36 -88 260
v -30 -90 260
v -33 -100 266
v -30 -89 266
v -29 -76 260
v -24 -76 260
v -24 -90 260
v -18 -88 260
v -16 -97 262
v -21 -97 262
v -24 -89 266
v -21 -100 266
v -19 -88 266
v -29 -101 266
v -25 -101 266
v -24 -89 260
v -25 -98 262
v -29 -98 262
v -27 -114 254
v -17 -115 253
v -16 -100 266
v 4 98 261
v 4 95 253
v 0 116 250
v -4 98 261
v -6 80 260
v 6 80 260
v 6 81 249
v -4 95 253
v -6 81 249
v -7 65 250
v 7 65 250
v -13 -44 294
v -13 -41 292
v -8 -48 280
v -6 -55 278
v 6 -55 278
v 4 -57 278
v 2 -58 278
v 0 -58 278
v -2 -58 278
v -4 -57 278
v -7 -54 281
v -3 -57 282
v -1 -58 282
v -5 -56 282
v 3 -57 282
v 1 -58 282
v 5 -56 282
v 7 -54 281
v -15 -36 299
v -18 -38 310
v -15 -44 300
v -13 -44 300
v -13 -50 303
v -9 -57 312
v 0 -57 312
v 4 -60 308
v 11 -57 306
v 10 -54 303
v 11 -54 296
v 13 -47 297
v -13 -44 297
v -13 -47 297
v -8 -50 289
v -11 -54 296
v 8 -50 289
v 9 -48 289
v 8 -49 285
v -2 -57 293
v -8 -56 299
v -10 -54 303
v -11 -57 306
v -4 -60 308
v 0 -59 306
v 4 -57 306
v 7 -56 303
v 8 -56 299
v 2 -57 293
v 1 -57 302
v 0 -60 300
v 0 -64 295
v 5 -57 302
v -1 -57 302
v -5 -57 302
v -4 -57 306
v -7 -56 303
v 0 -56 288
v 1 -56 283
v 2 -56 288
v 0 -57 293
v -2 -56 288
v -1 -56 283
v 3 -55 283
v 4 -54 288
v 6 -52 288
v 5 -53 283
v 7 -51 284
v -4 -54 288
v -3 -55 283
v -6 -52 288
v -5 -53 283
v -7 -51 284
v -9 -48 289
v -8 -49 285

f 1 2 3
f 1 3 4
f 1 4 5
f 1 5 6
f 1 6 7
f 1 7 8
f 1 8 9
f 1 9 10
f 1 10 2
f 2 10 11
f 2 11 12
f 2 12 3
f 3 12 13
f 3 13 14
f 3 14 15
f 3 15 16
f 3 16 4
f 4 16 5
f 17 18 19
f 17 19 20
f 17 20 21
f 17 21 22
f 17 22 23
f 17 23 24
f 17 24 25
f 17 25 18
f 18 25 26
f 18 26 27
f 18 27 28
f 18 28 29
f 18 29 30
f 18 30 19
f 19 30 31
f 19 31 32
f 19 32 33
f 19 33 20
f 20 33 34
f 20 34 35
f 20 35 21
f 21 35 36
f 21 36 37
f 21 37 38
f 21 38 39
f 21 39 22
f 22 39 40
f 22 40 41
f 22 41 23
f 23 41 42
f 23 42 43
f 23 43 24
f 24 43 44
f 24 44 25
f 25 44 45
f 25 45 26
f 26 45 27
f 27 45 46
f 27 46 47
f 27 47 28
f 28 47 29
f 29 47 48
f 29 48 49
f 29 49 30
f 30 49 50
f 30 50 51
f 30 51 52
f 30 52 31
f 31 52 32
f 32 52 53
f 32 53 34
f 32 34 33
f 54 40 39
f 54 39 38
f 54 38 36
f 54 36 55
f 54 55 56
f 54 56 7
f 54 7 57
f 54 57 40
f 40 57 58
f 40 58 59
f 40 59 41
f 41 59 60
f 41 60 42
f 42 60 61
f 42 61 62
f 42 62 43
f 43 62 5
f 43 5 44
f 44 5 63
f 44 63 64
f 44 64 45
f 45 64 65
f 45 65 46
f 46 65 66
f 46 66 47
f 47 66 67
f 47 67 68
f 47 68 48
f 48 68 69
f 48 69 70
f 48 70 49
f 49 70 50
f 50 70 71
f 50 71 51
f 51 71 52
f 52 71 72
f 52 72 73
f 52 73 74
f 52 74 53
f 53 74 36
f 53 36 34
f 34 36 35
f 36 38 37
f 75 56 76
f 75 76 77
f 75 77 78
f 75 78 79
f 75 79 56
f 56 79 7
f 7 79 8
f 8 79 78
f 8 78 80
f 80 78 81
f 80 81 82
f 80 82 83
f 83 82 84
f 83 84 85
f 83 85 14
f 83 14 9
f 9 14 10
f 10 14 13
f 10 13 11
f 11 13 12
f 86 78 77
f 86 77 76
f 86 76 56
f 86 56 87
f 86 87 78
f 78 87 88
f 78 88 81
f 81 88 82
f 82 88 89
f 82 89 90
f 82 90 91
f 82 91 92
f 82 92 84
f 84 92 93
f 84 93 85
f 85 93 71
f 85 71 94
f 85 94 95
f 85 95 14
f 14 95 65
f 14 65 15
f 15 65 16
f 90 93 96
f 90 96 91
f 91 96 92
f 92 96 93
f 97 55 36
f 97 36 74
f 97 74 88
f 97 88 87
f 97 87 55
f 55 87 56
f 74 73 88
f 88 73 89
f 89 73 72
f 89 72 93
f 89 93 90
f 94 98 95
f 95 98 67
f 95 67 66
f 95 66 65
f 6 58 57
f 6 57 7
f 71 93 72
f 59 61 60
f 61 59 58
f 61 58 6
f 61 6 62
f 62 6 5
f 68 67 69
f 69 67 98
f 69 98 70
f 70 98 94
f 70 94 71
f 99 63 5
f 99 5 100
f 99 100 101
f 99 101 102
f 99 102 103
f 99 103 63
f 63 103 104
f 63 104 105
f 63 105 106
f 63 106 107
f 63 107 108
f 63 108 109
f 63 109 64
f 64 109 108
f 64 108 110
f 64 110 111
f 64 111 112
f 64 112 113
f 64 113 100
f 64 100 65
f 65 100 5
f 114 115 116
f 117 118 119
f 117 119 120
f 117 120 121
f 117 121 122
f 117 122 118
f 118 122 123
f 118 123 124
f 118 124 119
f 119 124 125
f 119 125 126
f 119 126 120
f 120 126 121
f 121 126 125
f 121 125 124
f 121 124 127
f 121 127 122
f 122 127 128
f 122 128 123
f 123 128 129
f 123 129 130
f 123 130 124
f 124 130 127
f 127 130 131
f 127 131 132
f 127 132 128
f 128 132 133
f 128 133 129
f 129 133 130
f 130 133 134
f 130 134 131
f 131 134 135
f 131 135 132
f 132 135 136
f 132 136 137
f 132 137 133
f 133 137 134
f 134 137 138
f 134 138 135
f 139 140 141
f 139 141 142
f 139 142 143
f 139 143 144
f 139 144 145
f 139 145 140
f 140 145 146
f 140 146 141
f 141 146 147
f 141 147 148
f 141 148 149
f 141 149 142
f 142 149 150
f 142 150 151
f 142 151 143
f 143 151 146
f 143 146 152
f 143 152 153
f 143 153 144
f 144 153 154
f 144 154 155
f 144 155 145
f 145 155 152
f 145 152 146
f 156 157 152
f 156 152 155
f 156 155 158
f 156 158 159
f 156 159 160
f 156 160 161
f 156 161 157
f 157 161 162
f 157 162 153
f 157 153 152
f 153 158 154
f 154 158 155
f 158 153 162
f 158 162 159
f 159 162 163
f 163 162 161
f 146 151 147
f 147 151 164
f 147 164 148
f 148 164 150
f 148 150 149
f 151 150 164
f 165 166 167
f 165 167 168
f 165 168 169
f 165 169 166
f 166 169 170
f 166 170 171
f 166 171 167
f 167 171 172
f 167 172 168
f 168 172 173
f 168 173 169
f 169 173 170
f 170 173 174
f 170 174 175
f 170 175 176
f 170 176 177
f 170 177 171
f 171 177 178
f 171 178 179
f 179 178 180
f 179 180 175
f 175 180 176
f 176 180 181
f 176 181 177
f 177 181 178
f 178 181 180
f 182 183 184
f 182 184 185
f 182 185 186
f 182 186 187
f 182 187 183
f 183 187 188
f 183 188 189
f 183 189 184
f 184 189 185
f 185 189 175
f 185 175 186
f 186 175 174
f 186 174 190
f 186 190 187
f 187 190 188
f 188 190 171
f 171 190 172
f 172 190 191
f 172 191 173
f 173 191 192
f 173 192 174
f 174 192 193
f 174 193 194
f 174 194 190
f 190 194 195
f 190 195 191
f 191 195 196
f 191 196 192
f 192 196 193
f 193 196 197
f 193 197 198
f 193 198 194
f 194 198 199
f 194 199 195
f 195 199 200
f 195 200 196
f 196 200 197
f 197 200 201
f 197 201 198
f 198 201 202
f 198 202 203
f 198 203 199
f 199 203 200
f 200 203 204
f 200 204 201
f 201 204 205
f 201 205 206
f 201 206 202
f 202 206 207
f 202 207 203
f 203 207 208
f 203 208 204
f 204 208 205
f 205 208 106
f 205 106 206
f 206 106 209
f 206 209 210
f 206 210 207
f 207 210 208
f 208 210 211
f 208 211 106
f 106 211 212
f 106 212 213
f 106 213 107
f 107 213 214
f 107 214 215
f 107 215 108
f 108 215 110
f 110 215 216
f 110 216 217
f 110 217 111
f 111 217 218
f 111 218 219
f 111 219 220
f 111 220 221
f 111 221 222
f 111 222 223
f 111 223 224
f 111 224 112
f 112 224 113
f 113 224 225
f 113 225 226
f 113 226 227
f 113 227 100
f 100 227 228
f 100 228 101
f 101 228 229
f 101 229 102
f 102 229 230
f 102 230 231
f 102 231 232
f 102 232 103
f 103 232 233
f 103 233 234
f 103 234 235
f 103 235 236
f 103 236 104
f 104 236 237
f 104 237 238
f 104 238 105
f 105 238 106
f 106 238 209
f 209 238 237
f 209 237 234
f 209 234 210
f 210 234 211
f 211 234 233
f 211 233 232
f 211 232 239
f 211 239 240
f 211 240 212
f 212 240 241
f 212 241 242
f 212 242 213
f 213 242 243
f 213 243 214
f 214 243 244
f 214 244 215
f 215 244 245
f 215 245 216
f 216 245 246
f 216 246 217
f 217 246 247
f 217 247 218
f 218 247 248
f 218 248 249
f 218 249 219
f 219 249 250
f 219 250 251
f 219 251 252
f 219 252 253
f 219 253 220
f 220 253 254
f 220 254 255
f 220 255 256
f 220 256 221
f 221 256 257
f 221 257 222
f 222 257 258
f 222 258 254
f 222 254 253
f 222 253 223
f 223 253 252
f 223 252 225
f 223 225 224
f 188 175 189
f 259 260 261
f 259 261 262
f 259 262 263
f 259 263 264
f 259 264 265
f 259 265 260
f 260 265 266
f 260 266 267
f 260 267 268
f 260 268 261
f 261 268 269
f 261 269 270
f 261 270 271
f 261 271 272
f 261 272 262
f 262 272 273
f 262 273 274
f 262 274 275
f 262 275 276
f 262 276 277
f 262 277 263
f 263 277 267
f 263 267 278
f 263 278 264
f 264 278 258
f 264 258 265
f 265 258 257
f 265 257 256
f 265 256 266
f 266 256 278
f 266 278 267
f 267 277 268
f 268 277 269
f 269 277 276
f 269 276 279
f 269 279 280
f 269 280 270
f 270 280 281
f 270 281 275
f 270 275 282
f 270 282 283
f 270 283 271
f 271 283 284
f 271 284 285
f 285 284 286
f 285 286 275
f 275 286 282
f 282 286 287
f 282 287 283
f 283 287 284
f 284 287 286
f 288 279 289
f 288 289 281
f 288 281 280
f 288 280 279
f 290 291 292
f 290 292 274
f 290 274 273
f 290 273 293
f 290 293 291
f 291 293 294
f 291 294 292
f 292 294 271
f 292 271 274
f 273 272 293
f 293 272 294
f 294 272 271
f 281 289 275
f 275 289 276
f 276 289 279
f 295 296 297
f 295 297 298
f 295 298 299
f 299 298 300
f 299 300 301
f 301 300 302
f 301 302 296
f 296 302 297
f 231 239 232
f 239 231 303
f 239 303 304
f 239 304 240
f 240 304 241
f 228 305 229
f 229 305 306
f 229 306 307
f 229 307 230
f 230 307 308
f 230 308 231
f 231 308 303
f 228 309 305
f 305 309 310
f 305 310 306
f 250 249 309
f 250 309 228
f 250 228 227
f 250 227 251
f 251 227 252
f 252 227 311
f 252 311 225
f 225 311 226
f 226 311 227
f 309 249 312
f 309 312 310
f 249 248 312
f 237 236 235
f 237 235 234
f 256 255 278
f 278 255 258
f 258 255 254
f 313 314 298
f 313 298 300
f 313 300 315
f 313 315 316
f 313 316 317
f 313 317 314
f 314 317 318
f 314 318 319
f 314 319 298
f 298 319 300
f 300 319 315
f 315 319 316
f 316 319 320
f 316 320 321
f 316 321 322
f 316 322 317
f 317 322 323
f 317 323 318
f 318 323 324
f 318 324 325
f 318 325 320
f 318 320 319
f 325 326 320
f 320 326 321
f 321 326 327
f 321 327 328
f 321 328 329
f 321 329 322
f 322 329 325
f 322 325 330
f 322 330 331
f 322 331 332
f 322 332 323
f 323 332 324
f 324 332 333
f 324 333 330
f 324 330 325
f 325 334 327
f 325 327 326
f 329 334 325
f 334 329 335
f 334 335 336
f 334 336 337
f 334 337 338
f 334 338 327
f 327 338 339
f 327 339 340
f 327 340 341
f 327 341 328
f 328 341 342
f 328 342 343
f 328 343 344
f 328 344 329
f 329 344 345
f 329 345 335
f 335 345 346
f 347 348 349
f 347 349 331
f 347 331 350
f 347 350 351
f 349 352 353
f 349 353 332
f 349 332 331
f 353 354 355
f 353 355 332
f 332 355 356
f 332 356 333
f 333 356 357
f 333 357 358
f 333 358 359
f 333 359 360
f 333 360 330
f 330 360 361
f 330 361 350
f 330 350 331
f 355 362 356
f 356 363 357
f 358 364 359
f 359 365 360
f 360 366 361
f 361 367 350
f 368 369 370
f 368 370 371
f 372 373 374
f 372 374 375
f 376 377 378
f 376 378 379
f 380 381 382
f 380 382 383
f 384 385 386
f 384 386 387
f 388 389 390
f 388 390 391
f 392 393 394
f 392 394 395
f 396 397 398
f 396 398 399
f 400 401 402
f 400 402 403
f 404 405 406
f 404 406 407
f 344 408 345
f 343 409 344
f 342 410 343
f 341 411 342
f 340 412 341
f 338 413 339
f 337 414 338
f 336 415 337
f 335 416 336
f 417 418 419
f 417 419 420
f 421 422 423
f 421 423 424
f 421 424 425
f 421 425 426
f 421 426 427
f 421 427 422
f 422 427 428
f 422 428 429
f 422 429 430
f 422 430 423
f 423 430 431
f 423 431 432
f 423 432 433
f 423 433 434
f 423 434 435
f 423 435 436
f 423 436 424
f 424 436 437
f 424 437 438
f 424 438 425
f 425 438 439
f 425 439 440
f 425 440 441
f 425 441 426
f 426 441 435
f 426 435 427
f 427 435 442
f 427 442 443
f 427 443 444
f 427 444 428
f 428 444 445
f 428 445 446
f 428 446 429
f 429 446 447
f 429 447 448
f 429 448 430
f 430 448 449
f 430 449 450
f 430 450 451
f 430 451 431
f 431 451 452
f 431 452 453
f 431 453 454
f 431 454 432
f 432 454 455
f 432 455 433
f 433 455 456
f 433 456 457
f 433 457 458
f 433 458 434
f 434 458 459
f 434 459 442
f 434 442 435
f 441 436 435
f 436 441 460
f 436 460 461
f 436 461 437
f 437 461 462
f 437 462 463
f 437 463 438
f 438 463 464
f 438 464 439
f 439 464 465
f 439 465 440
f 440 465 466
f 440 466 467
f 440 467 441
f 441 467 460
f 460 467 468
f 460 468 469
f 460 469 461
f 461 469 462
f 462 469 470
f 462 470 463
f 463 470 464
f 464 470 471
f 464 471 465
f 465 471 472
f 465 472 466
f 466 472 473
f 466 473 468
f 466 468 467
f 474 459 445
f 474 445 444
f 474 444 475
f 474 475 459
f 459 475 476
f 459 476 442
f 442 476 477
f 442 477 478
f 442 478 443
f 443 478 444
f 444 478 479
f 444 479 480
f 444 480 481
f 444 481 475
f 475 481 482
f 475 482 476
f 476 482 483
f 476 483 477
f 477 483 484
f 477 484 485
f 477 485 478
f 478 485 479
f 479 485 480
f 480 485 482
f 480 482 481
f 459 486 445
f 445 486 487
f 445 487 446
f 446 487 488
f 446 488 489
f 446 489 447
f 447 489 490
f 447 490 491
f 447 491 492
f 447 492 493
f 447 493 448
f 448 493 449
f 449 493 494
f 449 494 495
f 449 495 450
f 450 495 496
f 450 496 497
f 450 497 451
f 451 497 498
f 451 498 452
f 452 498 453
f 453 498 499
f 453 499 500
f 453 500 454
f 454 500 455
f 455 500 501
f 455 501 502
f 455 502 503
f 455 503 456
f 456 503 502
f 456 502 504
f 456 504 505
f 456 505 506
f 456 506 457
f 457 506 507
f 457 507 508
f 457 508 489
f 457 489 458
f 458 489 486
f 458 486 459
f 486 509 510
f 486 510 487
f 487 510 488
f 488 510 511
f 488 511 512
f 488 512 489
f 489 512 486
f 486 512 509
f 509 512 513
f 509 513 514
f 509 514 515
f 509 515 510
f 510 515 516
f 510 516 517
f 510 517 511
f 511 517 518
f 511 518 512
f 512 518 519
f 512 519 513
f 513 519 520
f 513 520 521
f 513 521 514
f 514 521 522
f 514 522 515
f 515 522 523
f 515 523 516
f 516 523 524
f 516 524 517
f 517 524 525
f 517 525 518
f 518 525 526
f 518 526 519
f 519 526 520
f 520 526 527
f 520 527 528
f 520 528 521
f 521 528 529
f 521 529 522
f 522 529 523
f 523 529 530
f 523 530 524
f 524 530 525
f 525 530 526
f 526 530 527
f 531 532 533
f 531 533 534
f 531 534 535
f 531 535 532
f 532 535 536
f 532 536 537
f 532 537 533
f 533 537 538
f 533 538 534
f 534 538 539
f 534 539 535
f 535 539 536
f 536 539 471
f 536 471 540
f 536 540 541
f 536 541 542
f 536 542 537
f 537 542 543
f 537 543 544
f 544 543 545
f 544 545 540
f 540 545 541
f 541 545 546
f 541 546 542
f 542 546 543
f 543 546 545
f 547 548 549
f 547 549 550
f 547 550 551
f 547 551 552
f 547 552 548
f 548 552 553
f 548 553 554
f 548 554 549
f 549 554 550
f 550 554 540
f 550 540 551
f 551 540 471
f 551 471 555
f 551 555 552
f 552 555 553
f 553 555 537
f 537 555 538
f 538 555 556
f 538 556 539
f 539 556 472
f 539 472 471
f 553 540 554
f 557 558 559
f 557 559 560
f 557 560 561
f 557 561 562
f 557 562 558
f 558 562 563
f 558 563 564
f 558 564 559
f 559 564 560
f 560 564 565
f 560 565 561
f 561 565 528
f 561 528 527
f 561 527 566
f 561 566 562
f 562 566 567
f 562 567 563
f 563 567 568
f 568 567 569
f 568 569 570
f 568 570 571
f 568 571 572
f 572 571 573
f 572 573 574
f 572 574 528
f 572 528 565
f 572 565 575
f 572 575 576
f 572 576 577
f 577 576 578
f 577 578 563
f 563 578 579
f 563 579 565
f 563 565 564
f 579 578 580
f 579 580 575
f 579 575 565
f 578 576 580
f 580 576 575
f 581 571 570
f 581 570 582
f 581 582 573
f 581 573 571
f 582 570 569
f 582 569 574
f 582 574 573
f 574 567 528
f 567 574 569
f 583 584 585
f 583 585 586
f 583 586 587
f 583 587 588
f 583 588 589
f 583 589 584
f 584 589 590
f 584 590 585
f 585 590 586
f 586 590 591
f 586 591 587
f 587 591 592
f 587 592 588
f 588 592 593
f 588 593 589
f 589 593 484
f 589 484 591
f 589 591 590
f 484 483 591
f 591 483 592
f 592 483 482
f 592 482 593
f 593 482 485
f 593 485 484
f 473 470 469
f 473 469 468
f 594 595 507
f 594 507 596
f 594 596 500
f 500 596 501
f 501 596 505
f 501 505 502
f 502 505 597
f 502 597 598
f 502 598 504
f 504 598 599
f 504 599 600
f 504 600 601
f 504 601 602
f 504 602 603
f 504 603 597
f 504 597 505
f 505 597 604
f 505 596 507
f 505 507 506
f 602 605 603
f 601 606 602
f 603 607 597
f 599 608 600
f 600 609 601
f 598 610 599
f 502 611 598
f 597 603 602
f 597 602 601
f 597 601 600
f 597 600 599
f 597 599 598
f 489 508 490
f 490 508 595
f 490 595 612
f 490 612 613
f 490 613 491
f 491 613 614
f 491 614 615
f 491 615 492
f 492 615 616
f 492 616 617
f 492 617 493
f 493 617 494
f 494 617 618
f 494 618 495
f 495 618 619
f 495 619 620
f 495 620 496
f 496 620 621
f 496 621 622
f 496 622 623
f 496 623 497
f 497 623 499
f 497 499 498
f 624 625 615
f 624 615 614
f 624 614 612
f 624 612 594
f 624 594 625
f 625 594 626
f 625 626 627
f 625 627 616
f 625 616 615
f 500 499 623
f 500 623 628
f 500 628 629
f 629 628 630
f 626 631 627
f 627 631 632
f 627 632 633
f 627 633 616
f 616 633 634
f 616 634 617
f 617 634 635
f 617 635 618
f 618 635 636
f 618 636 619
f 619 636 637
f 619 637 620
f 620 637 621
f 621 637 638
f 621 638 639
f 621 639 622
f 622 639 640
f 622 640 628
f 622 628 623
f 641 636 642
f 641 642 643
f 641 643 640
f 641 640 639
f 641 639 644
f 641 644 637
f 641 637 636
f 642 636 645
f 642 645 643
f 643 645 631
f 643 631 640
f 632 631 645
f 632 645 646
f 632 646 647
f 632 647 648
f 632 648 633
f 633 648 647
f 633 647 634
f 634 647 635
f 635 647 636
f 636 647 645
f 645 647 646
f 595 508 507
f 639 638 637
f 639 637 644
f 649 650 651
f 649 651 652
f 649 652 653
f 649 653 654
f 651 655 656
f 651 656 652
f 652 656 657
f 652 657 628
f 652 628 640
f 656 658 657
f 659 628 657
f 660 661 653
f 660 653 652
f 660 652 662
f 660 662 663
f 662 626 664
f 626 662 652
f 626 652 631
f 665 666 626
f 665 626 594
f 613 612 614
f 612 595 594
