# RS2 Model 2327
# Vertices: 83
# Faces: 152

v -35 -4 13
v -39 -4 12
v -38 -7 41
v -32 -7 10
v -25 -4 0
v -33 5 0
v -39 5 0
v -42 -7 11
v -41 -8 9
v -38 -12 7
v -33 -17 5
v -30 -8 9
v -25 -8 0
v -15 -26 0
v -24 7 0
v -25 14 0
v -29 22 0
v -38 29 0
v -56 56 0
v -49 1 0
v -48 -9 0
v -39 -18 0
v -32 -21 0
v -30 -30 0
v -22 -23 0
v -21 -26 8
v -17 -30 11
v -7 -33 0
v -15 1 0
v -14 5 15
v -17 8 18
v -18 9 22
v -15 17 0
v -20 30 0
v -26 22 0
v -28 29 13
v -29 27 11
v -35 30 7
v -36 36 0
v -30 45 0
v -23 46 0
v 0 48 0
v 0 56 0
v 64 64 0
v -64 64 0
v -64 -64 0
v -56 -56 0
v -31 -33 0
v -23 -32 16
v -25 -31 14
v -17 -34 62
v -14 -33 14
v -8 -40 0
v 0 -48 0
v -8 -1 0
v -9 2 11
v -14 9 76
v -15 11 24
v -9 17 0
v -20 36 0
v -26 36 15
v -26 32 16
v -28 35 48
v -32 35 9
v -29 38 11
v -28 39 14
v -1 11 0
v -1 8 0
v 64 48 0
v -11 11 25
v -8 9 21
v -6 8 18
v -21 -35 20
v -17 -36 19
v -24 -41 0
v -18 -42 0
v -14 -34 18
v 0 -56 0
v 64 -64 0
v 64 -48 0
v 34 -50 0
v 33 51 0
v -67 -50 0

f 1 2 3
f 1 3 4
f 1 4 5
f 1 5 6
f 1 6 2
f 2 6 7
f 2 7 8
f 2 8 3
f 3 8 9
f 3 9 10
f 3 10 11
f 3 11 12
f 3 12 4
f 4 12 13
f 4 13 5
f 5 13 14
f 5 14 15
f 5 15 6
f 6 15 16
f 6 16 7
f 7 16 17
f 7 17 18
f 7 18 19
f 7 19 20
f 7 20 8
f 8 20 9
f 9 20 21
f 9 21 10
f 10 21 22
f 10 22 11
f 11 22 23
f 11 23 12
f 12 23 13
f 13 23 24
f 13 24 25
f 13 25 14
f 14 25 26
f 14 26 27
f 14 27 28
f 14 28 29
f 14 29 15
f 15 29 30
f 15 30 31
f 15 31 16
f 16 31 32
f 16 32 33
f 16 33 34
f 16 34 35
f 16 35 17
f 17 35 36
f 17 36 37
f 17 37 18
f 18 37 38
f 18 38 39
f 18 39 19
f 19 39 40
f 19 40 41
f 19 41 42
f 19 42 43
f 19 43 44
f 19 44 45
f 19 45 46
f 19 46 47
f 19 47 20
f 20 47 21
f 21 47 22
f 22 47 23
f 23 47 48
f 23 48 24
f 24 48 49
f 24 49 50
f 24 50 25
f 25 50 26
f 26 50 51
f 26 51 27
f 27 51 52
f 27 52 28
f 28 52 53
f 28 53 54
f 28 54 55
f 28 55 29
f 29 55 56
f 29 56 30
f 30 56 57
f 30 57 31
f 31 57 32
f 32 57 58
f 32 58 33
f 33 58 59
f 33 59 60
f 33 60 34
f 34 60 61
f 34 61 62
f 34 62 35
f 35 62 36
f 36 62 63
f 36 63 37
f 37 63 38
f 38 63 64
f 38 64 39
f 39 64 40
f 40 64 65
f 40 65 41
f 41 65 66
f 41 66 60
f 41 60 42
f 42 60 59
f 42 59 67
f 42 67 68
f 42 68 54
f 42 54 69
f 42 69 43
f 43 69 44
f 70 58 57
f 70 57 71
f 70 71 67
f 70 67 59
f 70 59 58
f 56 72 57
f 57 72 71
f 71 72 68
f 71 68 67
f 55 68 72
f 55 72 56
f 62 61 63
f 63 61 66
f 63 66 65
f 63 65 64
f 60 66 61
f 73 74 51
f 73 51 49
f 73 49 48
f 73 48 75
f 73 75 74
f 74 75 76
f 74 76 77
f 74 77 51
f 51 77 52
f 52 77 53
f 53 77 76
f 53 76 54
f 54 76 47
f 54 47 78
f 54 78 79
f 54 79 80
f 54 80 69
f 50 49 51
f 48 47 75
f 75 47 76
f 54 68 55
f 78 47 46
f 78 46 79
