# RS2 Model 23317
# Vertices: 161
# Faces: 271

v 18 -52 77
v 26 -4 77
v 3 -21 109
v 2 -31 109
v -23 -52 77
v -18 -52 70
v 12 -52 70
v 12 -52 15
v 18 -52 9
v 26 -4 9
v 11 5 9
v 15 2 52
v 12 5 58
v 11 5 77
v -4 -19 109
v -7 -22 372
v 0 -22 372
v 0 -29 372
v -9 -31 109
v -34 -4 77
v -34 -4 9
v -23 -52 9
v -18 -52 15
v -18 -55 15
v -18 -55 70
v 12 -55 70
v 12 -55 15
v -4 15 77
v -19 5 77
v -10 -24 109
v 7 8 55
v -4 15 43
v -16 8 52
v -19 7 58
v -24 3 55
v -7 -29 372
v 0 -29 382
v -7 -29 382
v -7 -22 382
v -7 2 419
v -7 7 414
v 0 -22 382
v 0 2 419
v 0 26 449
v -7 26 449
v -7 33 446
v 0 7 414
v 0 -22 467
v 0 -29 467
v -7 -29 467
v -7 -22 467
v 22 -56 0
v 31 -3 0
v -4 15 9
v 7 8 49
v 12 5 46
v 17 6 52
v 14 8 58
v 10 11 55
v -4 20 0
v -20 6 9
v -19 7 46
v -18 12 52
v -21 10 58
v -26 7 55
v -26 7 49
v -24 3 49
v -39 -3 0
v -27 -56 0
v 14 8 46
v 13 9 49
v 15 7 52
v 13 9 55
v 11 10 53
v 10 11 49
v 11 10 51
v 21 24 51
v 24 23 49
v 25 21 52
v 23 23 55
v 21 24 53
v 31 26 56
v 26 20 56
v 26 20 48
v 31 26 48
v 25 31 56
v 20 25 56
v 20 25 48
v 25 31 48
v 21 29 0
v 21 29 4
v 28 31 4
v 28 31 0
v 31 25 4
v 31 25 0
v 28 20 4
v 28 20 0
v 21 21 4
v 21 21 0
v 23 27 4
v 27 28 4
v 28 25 4
v 26 24 4
v 24 23 4
v 24 23 48
v 23 27 48
v 27 28 48
v 28 25 48
v 26 24 48
v -21 10 46
v -23 9 49
v -20 10 52
v -23 9 55
v -24 8 53
v -24 8 51
v -34 22 51
v -32 24 49
v -29 25 52
v -32 24 55
v -34 22 53
v -32 32 56
v -28 25 56
v -28 25 48
v -32 32 48
v -39 28 56
v -35 22 56
v -35 22 48
v -39 28 48
v -38 24 0
v -38 24 4
v -37 31 4
v -37 31 0
v -31 32 4
v -31 32 0
v -27 27 4
v -27 27 0
v -31 21 4
v -31 21 0
v -36 25 4
v -35 29 4
v -32 29 4
v -32 27 4
v -32 24 4
v -32 24 48
v -36 25 48
v -35 29 48
v -32 29 48
v -32 27 48
v -11 -33 467
v 5 -33 467
v 5 -33 474
v -11 -33 474
v -11 64 474
v -11 64 467
v 5 64 474
v 5 64 467
v 0 33 446
v 0 60 467
v 0 52 467
v -7 52 467
v -7 60 467

f 1 2 3
f 1 3 4
f 1 4 5
f 1 5 6
f 1 6 7
f 1 7 8
f 1 8 9
f 1 9 2
f 2 9 10
f 2 10 11
f 2 11 12
f 2 12 13
f 2 13 14
f 2 14 15
f 2 15 3
f 3 15 16
f 3 16 17
f 3 17 4
f 4 17 18
f 4 18 19
f 4 19 5
f 5 19 20
f 5 20 21
f 5 21 22
f 5 22 6
f 6 22 23
f 6 23 24
f 6 24 25
f 6 25 7
f 7 25 26
f 7 26 8
f 8 26 27
f 27 26 24
f 24 26 25
f 28 29 30
f 28 30 15
f 28 15 14
f 28 14 31
f 28 31 32
f 28 32 33
f 28 33 34
f 28 34 29
f 29 34 35
f 29 35 20
f 29 20 30
f 30 20 19
f 30 19 36
f 30 36 16
f 30 16 15
f 19 18 36
f 36 18 37
f 36 37 38
f 36 38 16
f 16 38 39
f 16 39 40
f 16 40 41
f 16 41 17
f 16 17 42
f 16 42 39
f 39 42 43
f 39 43 40
f 40 43 44
f 40 44 45
f 40 45 41
f 41 45 46
f 41 46 47
f 41 47 17
f 17 47 42
f 17 42 18
f 18 42 37
f 37 42 48
f 37 48 49
f 37 49 38
f 38 49 50
f 38 50 39
f 39 50 51
f 39 51 42
f 42 51 48
f 10 9 52
f 10 52 53
f 10 53 11
f 11 53 54
f 11 54 32
f 11 32 55
f 11 55 56
f 11 56 12
f 12 56 57
f 12 57 58
f 12 58 13
f 13 58 59
f 13 59 31
f 13 31 14
f 54 53 60
f 54 60 61
f 54 61 32
f 32 61 33
f 33 61 62
f 33 62 63
f 33 63 64
f 33 64 34
f 34 64 65
f 34 65 35
f 35 65 66
f 35 66 67
f 35 67 20
f 20 67 21
f 21 67 61
f 21 61 60
f 21 60 68
f 21 68 22
f 22 68 69
f 22 69 9
f 22 9 8
f 22 8 23
f 9 69 52
f 57 56 70
f 57 70 71
f 57 71 72
f 57 72 58
f 58 72 73
f 58 73 59
f 59 73 74
f 59 74 75
f 59 75 31
f 31 75 55
f 31 55 32
f 70 56 55
f 70 55 75
f 70 75 76
f 70 76 71
f 71 76 77
f 71 77 78
f 71 78 72
f 72 78 79
f 72 79 73
f 73 79 80
f 73 80 74
f 74 80 81
f 74 81 76
f 74 76 75
f 76 81 77
f 82 83 84
f 82 84 85
f 82 85 86
f 82 86 83
f 83 86 87
f 83 87 88
f 83 88 84
f 84 88 85
f 85 88 89
f 85 89 86
f 86 89 87
f 87 89 88
f 90 91 92
f 90 92 93
f 93 92 94
f 93 94 95
f 95 94 96
f 95 96 97
f 97 96 98
f 97 98 99
f 99 98 91
f 99 91 90
f 92 91 100
f 92 100 101
f 92 101 94
f 94 101 102
f 94 102 96
f 96 102 103
f 96 103 98
f 98 103 104
f 98 104 91
f 91 104 100
f 100 104 105
f 100 105 106
f 100 106 101
f 101 106 107
f 101 107 102
f 102 107 108
f 102 108 103
f 103 108 109
f 103 109 104
f 104 109 105
f 63 62 110
f 63 110 111
f 63 111 112
f 63 112 64
f 64 112 113
f 64 113 65
f 65 113 114
f 65 114 66
f 66 114 115
f 66 115 110
f 66 110 67
f 67 110 62
f 67 62 61
f 110 115 111
f 111 115 116
f 111 116 117
f 111 117 112
f 112 117 118
f 112 118 113
f 113 118 119
f 113 119 114
f 114 119 120
f 114 120 115
f 115 120 116
f 121 122 123
f 121 123 124
f 121 124 125
f 121 125 122
f 122 125 126
f 122 126 127
f 122 127 123
f 123 127 124
f 124 127 128
f 124 128 125
f 125 128 126
f 126 128 127
f 129 130 131
f 129 131 132
f 132 131 133
f 132 133 134
f 134 133 135
f 134 135 136
f 136 135 137
f 136 137 138
f 138 137 130
f 138 130 129
f 131 130 139
f 131 139 140
f 131 140 133
f 133 140 141
f 133 141 135
f 135 141 142
f 135 142 137
f 137 142 143
f 137 143 130
f 130 143 139
f 139 143 144
f 139 144 145
f 139 145 140
f 140 145 146
f 140 146 141
f 141 146 147
f 141 147 142
f 142 147 148
f 142 148 143
f 143 148 144
f 149 150 151
f 149 151 152
f 149 152 153
f 149 153 154
f 152 151 155
f 152 155 153
f 151 150 156
f 151 156 155
f 42 47 43
f 43 47 157
f 43 157 44
f 44 157 158
f 44 158 159
f 44 159 45
f 45 159 160
f 45 160 46
f 46 160 161
f 46 161 157
f 46 157 47
f 159 160 161
f 159 161 158
f 157 161 158
