# RS2 Model 23327
# Vertices: 142
# Faces: 247

v 0 21 27
v 11 -31 27
v 35 20 27
v 35 25 0
v 0 26 0
v -35 20 27
v -11 -31 27
v 11 -31 0
v 11 -46 27
v 15 -36 63
v 45 -31 27
v 50 16 27
v 50 21 0
v 56 11 27
v 56 16 0
v 60 -31 0
v 60 -31 27
v 60 -46 27
v 60 -46 0
v 45 -46 27
v 11 -46 0
v 39 -59 161
v 18 -59 161
v 18 -57 151
v 39 -57 151
v 39 -50 161
v 38 -55 194
v 38 -64 194
v 18 -64 194
v 18 -50 161
v 18 -47 151
v 17 -42 106
v 17 -52 106
v 40 -52 106
v 39 -47 151
v 18 -55 194
v 40 -42 106
v 41 -36 63
v 15 -48 62
v 41 -48 62
v 27 -6 161
v 20 -20 161
v 31 -20 161
v 49 -8 161
v 27 -4 152
v 0 -2 152
v 0 -4 161
v 5 -20 161
v 5 -20 155
v 20 -20 155
v 23 -31 161
v 28 -31 161
v 28 -31 155
v 31 -20 155
v 46 -20 161
v 53 -12 161
v 49 -6 152
v 46 -43 161
v 31 -43 161
v 20 -43 161
v 5 -43 161
v 0 -50 161
v 0 -47 151
v -15 -50 161
v -17 -47 151
v -17 -57 151
v -17 -52 106
v -17 -42 106
v -39 -47 151
v -38 -50 161
v -36 -55 194
v -16 -55 194
v -15 -59 161
v -39 -57 151
v -40 -52 106
v -41 -48 62
v -15 -48 62
v -15 -36 63
v -40 -42 106
v -38 -59 161
v -55 -50 161
v -55 -47 152
v -53 -10 152
v -53 -12 161
v -49 -8 161
v -49 -6 152
v -27 -6 161
v -27 -4 152
v 49 -31 161
v 55 -50 161
v 55 -47 152
v 53 -10 152
v 49 -31 155
v 46 -43 155
v 31 -43 155
v 23 -31 155
v 20 -43 155
v 5 -43 155
v 2 -31 161
v -2 -31 161
v -5 -43 161
v -20 -43 161
v -31 -43 161
v -46 -43 161
v -49 -31 161
v -46 -20 161
v -31 -20 161
v -20 -20 161
v -5 -20 161
v 2 -31 155
v 46 -20 155
v -35 25 0
v -50 21 0
v -50 16 27
v -45 -31 27
v -41 -36 63
v -11 -46 27
v -11 -46 0
v -11 -31 0
v -45 -46 27
v -60 -46 0
v -56 11 27
v -60 -31 27
v -56 16 0
v -60 -31 0
v -60 -46 27
v -16 -64 194
v -36 -64 194
v -28 -31 161
v -23 -31 161
v -31 -20 155
v -28 -31 155
v -20 -43 155
v -23 -31 155
v -20 -20 155
v -5 -20 155
v -31 -43 155
v -46 -43 155
v -49 -31 155
v -46 -20 155
v -5 -43 155
v -2 -31 155

f 1 2 3
f 1 3 4
f 1 4 5
f 1 5 6
f 1 6 7
f 1 7 2
f 2 7 8
f 2 8 9
f 2 9 10
f 2 10 11
f 2 11 3
f 3 11 12
f 3 12 4
f 4 12 13
f 13 12 14
f 13 14 15
f 15 14 16
f 16 14 17
f 16 17 18
f 16 18 19
f 19 18 20
f 19 20 21
f 21 20 9
f 21 9 8
f 12 11 17
f 12 17 14
f 22 23 24
f 22 24 25
f 22 25 26
f 22 26 27
f 22 27 28
f 22 28 23
f 23 28 29
f 23 29 30
f 23 30 31
f 23 31 24
f 24 31 32
f 24 32 33
f 24 33 25
f 25 33 34
f 25 34 35
f 25 35 26
f 26 35 30
f 26 30 36
f 26 36 27
f 27 36 29
f 27 29 28
f 30 35 31
f 31 35 37
f 31 37 32
f 32 37 38
f 32 38 10
f 32 10 33
f 33 10 39
f 33 39 34
f 34 39 40
f 34 40 37
f 34 37 35
f 41 42 43
f 41 43 44
f 41 44 45
f 41 45 46
f 41 46 47
f 41 47 42
f 42 47 48
f 42 48 49
f 42 49 50
f 42 50 51
f 42 51 52
f 42 52 43
f 43 52 53
f 43 53 54
f 43 54 55
f 43 55 44
f 44 55 56
f 44 56 57
f 44 57 45
f 26 58 59
f 26 59 30
f 30 59 60
f 30 60 61
f 30 61 62
f 30 62 31
f 31 62 63
f 63 62 64
f 63 64 65
f 65 64 66
f 65 66 67
f 65 67 68
f 65 68 69
f 65 69 70
f 65 70 64
f 64 70 71
f 64 71 72
f 64 72 73
f 64 73 66
f 66 73 74
f 66 74 75
f 66 75 67
f 67 75 76
f 67 76 77
f 67 77 68
f 68 77 78
f 68 78 79
f 68 79 69
f 69 79 74
f 69 74 80
f 69 80 70
f 69 70 81
f 69 81 82
f 82 81 83
f 83 81 84
f 83 84 85
f 83 85 86
f 86 85 87
f 86 87 88
f 88 87 47
f 88 47 46
f 56 55 89
f 56 89 90
f 56 90 91
f 56 91 92
f 56 92 57
f 26 35 90
f 26 90 58
f 58 90 89
f 58 89 93
f 58 93 94
f 58 94 59
f 59 94 95
f 59 95 52
f 59 52 51
f 59 51 60
f 60 51 96
f 60 96 97
f 60 97 61
f 61 97 98
f 61 98 99
f 61 99 100
f 61 100 101
f 61 101 62
f 62 101 102
f 62 102 64
f 64 102 103
f 64 103 104
f 64 104 70
f 70 104 81
f 81 104 105
f 81 105 84
f 84 105 85
f 85 105 106
f 85 106 107
f 85 107 87
f 87 107 108
f 87 108 47
f 47 108 109
f 47 109 48
f 48 109 99
f 48 99 110
f 48 110 49
f 30 29 36
f 89 55 111
f 89 111 93
f 51 50 96
f 55 54 111
f 52 95 53
f 99 98 110
f 91 90 35
f 6 5 112
f 6 112 113
f 6 113 114
f 6 114 7
f 7 114 115
f 7 115 116
f 7 116 78
f 7 78 77
f 7 77 117
f 7 117 118
f 7 118 119
f 7 119 8
f 117 120 121
f 117 121 118
f 115 114 122
f 115 122 123
f 115 123 120
f 115 120 76
f 115 76 116
f 116 76 75
f 116 75 79
f 116 79 78
f 114 113 124
f 114 124 122
f 122 124 123
f 123 124 125
f 123 125 126
f 123 126 120
f 120 126 121
f 121 126 125
f 73 80 74
f 80 73 127
f 80 127 128
f 80 128 70
f 70 128 71
f 71 128 72
f 72 128 127
f 72 127 73
f 129 130 108
f 129 108 107
f 129 107 131
f 129 131 132
f 129 132 103
f 129 103 130
f 130 103 102
f 130 102 133
f 130 133 134
f 130 134 108
f 108 134 135
f 108 135 109
f 109 135 136
f 109 136 100
f 109 100 99
f 104 103 137
f 104 137 138
f 104 138 105
f 105 138 139
f 105 139 106
f 106 139 140
f 106 140 107
f 107 140 131
f 102 101 141
f 102 141 133
f 103 132 137
f 100 136 142
f 100 142 101
f 101 142 141
f 20 18 17
f 20 17 11
f 20 11 38
f 20 38 40
f 20 40 9
f 9 40 39
f 9 39 10
f 10 38 11
f 40 38 37
f 79 75 74
f 77 76 120
f 77 120 117
