# RS2 Model 23337
# Vertices: 112
# Faces: 182

v -12 10 11
v 12 10 11
v 21 21 6
v -21 21 6
v -28 13 6
v -18 4 11
v -12 10 95
v -8 10 87
v -8 10 84
v -8 10 82
v -8 10 69
v 8 10 69
v 8 10 74
v 12 10 95
v 18 4 95
v 18 4 11
v 28 13 6
v 21 21 0
v -21 21 0
v -28 13 0
v -28 -12 6
v -18 -3 11
v -18 -3 95
v -18 4 95
v -12 10 106
v 12 10 106
v 12 10 100
v -12 10 100
v -18 4 100
v -18 4 106
v -18 -3 106
v -18 -3 100
v -12 -9 100
v -12 -9 106
v 12 -9 106
v 12 -9 100
v 18 -3 100
v 18 -3 106
v 18 4 106
v 18 4 100
v 23 21 106
v -23 21 106
v -28 26 115
v 28 26 115
v 37 18 115
v 32 13 106
v 32 -12 106
v 37 -17 115
v 28 -25 115
v 23 -20 106
v -23 -20 106
v -28 -25 115
v -37 -17 115
v -32 -12 106
v -32 13 106
v -37 18 115
v 16 14 100
v -16 14 100
v 22 8 100
v 16 14 95
v -16 14 95
v -22 8 95
v -22 8 100
v -22 -7 100
v -16 -13 100
v 16 -13 100
v 22 -7 100
v 22 -7 95
v 22 8 95
v 8 12 74
v 6 12 74
v 6 12 84
v 8 12 87
v 8 10 87
v 6 10 74
v 6 10 84
v -8 12 84
v -8 12 87
v -3 12 82
v 3 12 82
v 3 12 74
v -3 12 74
v -3 10 74
v -3 10 82
v 3 10 82
v 3 10 74
v 8 10 72
v -6 10 72
v -6 10 82
v 8 12 69
v 8 12 72
v -6 12 72
v -6 12 82
v -8 12 82
v -8 12 69
v 18 -3 11
v 18 -3 95
v 12 -9 95
v 12 -9 11
v 28 -12 6
v 28 -12 0
v 28 13 0
v -22 -7 95
v -16 -13 95
v 16 -13 95
v -28 -12 0
v -21 -20 0
v -21 -20 6
v -12 -9 11
v -12 -9 95
v 21 -20 6
v 21 -20 0

f 1 2 3
f 1 3 4
f 1 4 5
f 1 5 6
f 1 6 7
f 1 7 8
f 1 8 9
f 1 9 10
f 1 10 11
f 1 11 2
f 2 11 12
f 2 12 13
f 2 13 14
f 2 14 15
f 2 15 16
f 2 16 3
f 3 16 17
f 3 17 18
f 3 18 4
f 4 18 19
f 4 19 20
f 4 20 5
f 5 20 21
f 5 21 22
f 5 22 6
f 6 22 23
f 6 23 24
f 6 24 7
f 25 26 27
f 25 27 28
f 25 28 29
f 25 29 30
f 30 29 31
f 31 29 32
f 31 32 33
f 31 33 34
f 34 33 35
f 35 33 36
f 35 36 37
f 35 37 38
f 38 37 39
f 39 37 40
f 39 40 27
f 39 27 26
f 41 42 43
f 41 43 44
f 41 44 45
f 41 45 46
f 46 45 47
f 47 45 48
f 47 48 49
f 47 49 50
f 50 49 51
f 51 49 52
f 51 52 53
f 51 53 54
f 54 53 55
f 55 53 56
f 55 56 43
f 55 43 42
f 57 58 28
f 57 28 27
f 57 27 40
f 57 40 59
f 57 59 60
f 57 60 58
f 58 60 61
f 58 61 62
f 58 62 63
f 58 63 28
f 28 63 29
f 29 63 32
f 32 63 64
f 32 64 65
f 32 65 33
f 33 65 36
f 36 65 66
f 36 66 67
f 36 67 37
f 37 67 40
f 40 67 59
f 59 67 68
f 59 68 69
f 59 69 60
f 70 71 72
f 70 72 73
f 70 73 74
f 70 74 13
f 70 13 71
f 71 13 75
f 71 75 72
f 72 75 76
f 72 76 77
f 72 77 73
f 73 77 78
f 73 78 8
f 73 8 74
f 74 8 7
f 74 7 14
f 74 14 13
f 77 76 9
f 77 9 78
f 78 9 8
f 79 80 81
f 79 81 82
f 79 82 83
f 79 83 84
f 79 84 80
f 80 84 85
f 80 85 81
f 81 85 86
f 81 86 82
f 82 86 83
f 83 86 87
f 83 87 88
f 83 88 84
f 84 88 89
f 84 89 9
f 84 9 85
f 85 9 76
f 85 76 86
f 86 76 75
f 86 75 87
f 87 75 13
f 87 13 12
f 87 12 90
f 87 90 91
f 87 91 88
f 88 91 92
f 88 92 89
f 89 92 93
f 89 93 10
f 89 10 9
f 94 93 92
f 94 92 95
f 94 95 11
f 94 11 10
f 94 10 93
f 95 92 91
f 95 91 90
f 95 90 12
f 95 12 11
f 96 16 15
f 96 15 97
f 96 97 98
f 96 98 99
f 96 99 100
f 96 100 16
f 16 100 17
f 17 100 101
f 17 101 102
f 17 102 18
f 64 63 62
f 64 62 103
f 64 103 104
f 64 104 65
f 65 104 66
f 66 104 105
f 66 105 68
f 66 68 67
f 53 48 45
f 53 45 56
f 56 45 44
f 56 44 43
f 21 20 106
f 21 106 107
f 21 107 108
f 21 108 22
f 22 108 109
f 22 109 23
f 23 109 110
f 110 109 98
f 98 109 99
f 99 109 108
f 99 108 111
f 99 111 100
f 100 111 101
f 101 111 112
f 112 111 107
f 107 111 108
f 48 53 52
f 48 52 49
