# RS2 Model 23383
# Vertices: 220
# Faces: 348

v -15 25 191
v -17 36 191
v -18 36 194
v -16 25 194
v -9 12 191
v -15 25 185
v -17 36 185
v -20 52 185
v -20 52 191
v -21 51 194
v -25 46 194
v -22 40 194
v -19 36 194
v -17 26 194
v -16 20 194
v -15 17 194
v -10 12 194
v -23 5 194
v -23 5 191
v -26 4 194
v -26 4 191
v -40 5 194
v -40 5 191
v -41 13 191
v -41 13 194
v -48 30 194
v -48 30 191
v -51 43 191
v -51 43 194
v -38 49 194
v -38 49 191
v -33 50 194
v -33 50 191
v -9 12 185
v -10 12 182
v -16 25 182
v -18 36 182
v -21 51 182
v -33 50 182
v -33 50 185
v -38 49 182
v -38 49 185
v -48 41 185
v -21 48 185
v -21 51 185
v -26 42 194
v -43 34 194
v -44 28 194
v -41 18 194
v -37 14 194
v -35 12 194
v -17 17 194
v -22 13 194
v -36 8 194
v -31 10 194
v -45 38 194
v -42 37 194
v -30 44 194
v -40 41 194
v -11 12 191
v -11 12 185
v -11 14 185
v -11 14 191
v -38 6 185
v -26 4 185
v -23 5 185
v -10 12 185
v -23 5 182
v -26 4 182
v -40 5 185
v -40 5 182
v -41 13 182
v -41 13 185
v -48 30 185
v -48 30 182
v -51 43 182
v -51 43 185
v -22 51 185
v -22 51 191
v -21 48 191
v -48 41 191
v -38 6 191
v -39 43 185
v -30 9 185
v -19 -12 139
v -22 -12 136
v -27 -4 136
v -26 -2 139
v -26 0 149
v -17 -12 149
v -26 -22 139
v -27 -20 136
v -38 -22 139
v -36 -20 136
v -45 -12 139
v -41 -12 136
v -38 -2 139
v -36 -4 136
v -38 0 149
v -35 -7 137
v -29 -7 137
v -26 -12 137
v -26 -24 149
v -38 -24 149
v -47 -12 149
v -38 -12 137
v -32 -12 137
v -29 -17 137
v -35 -17 137
v -30 -5 101
v -27 -10 101
v -27 -10 86
v -30 -5 86
v -36 -5 101
v -34 -9 105
v -32 -9 105
v -31 -10 105
v -30 -15 101
v -30 -15 86
v -36 -5 86
v -39 -10 101
v -35 -10 105
v -34 -9 109
v -32 -9 109
v -32 -11 109
v -32 -11 105
v -36 -15 101
v -36 -15 86
v -39 -10 86
v -34 -11 105
v -34 -11 109
v -33 -10 109
v -32 -21 196
v -25 -24 196
v -24 -22 182
v -32 -19 182
v -39 -24 196
v -36 -31 206
v -32 -27 202
v -28 -31 206
v -21 -30 196
v -19 -30 182
v -25 -37 196
v -24 -39 182
v -32 -42 182
v -32 -40 196
v -40 -39 182
v -39 -37 196
v -43 -30 196
v -45 -30 182
v -40 -22 182
v -32 -35 202
v -32 -28 208
v -29 -31 208
v -32 -34 208
v -35 -31 208
v -35 -31 213
v -32 -28 213
v -29 -31 213
v -32 -34 213
v -28 -31 213
v -32 -27 213
v -32 -27 215
v -28 -31 215
v -32 -35 213
v -32 -35 215
v -36 -31 213
v -36 -31 215
v -32 -34 215
v -35 -31 215
v -29 -31 215
v -29 -31 219
v -32 -34 219
v -35 -31 219
v -32 -28 215
v -32 -28 219
v -34 -1 197
v -32 -8 197
v -30 -8 183
v -33 0 183
v -41 2 197
v -44 -5 207
v -39 -5 203
v -39 -11 207
v -33 -15 197
v -32 -17 183
v -41 -17 197
v -42 -19 183
v -50 -16 183
v -48 -14 197
v -53 -8 183
v -51 -7 197
v -48 1 197
v -50 2 183
v -41 4 183
v -45 -11 203
v -39 -6 209
v -40 -10 209
v -44 -10 209
v -44 -6 209
v -44 -6 214
v -39 -6 214
v -40 -10 214
v -44 -10 214
v -39 -11 214
v -39 -5 214
v -39 -5 216
v -39 -11 216
v -45 -11 214
v -45 -11 216
v -44 -5 214
v -44 -5 216
v -44 -10 216
v -44 -6 216
v -40 -10 216
v -40 -10 220
v -44 -10 220
v -44 -6 220
v -39 -6 216
v -39 -6 220

f 1 2 3
f 1 3 4
f 1 4 5
f 1 5 6
f 1 6 7
f 1 7 2
f 2 7 8
f 2 8 9
f 2 9 10
f 2 10 3
f 3 10 11
f 3 11 12
f 3 12 13
f 3 13 14
f 3 14 4
f 4 14 15
f 4 15 16
f 4 16 17
f 4 17 5
f 5 17 18
f 5 18 19
f 19 18 20
f 19 20 21
f 21 20 22
f 21 22 23
f 23 22 24
f 24 22 25
f 24 25 26
f 24 26 27
f 27 26 28
f 28 26 29
f 28 29 30
f 28 30 31
f 31 30 32
f 31 32 33
f 33 32 10
f 33 10 9
f 6 5 34
f 6 34 35
f 6 35 36
f 6 36 7
f 7 36 37
f 7 37 8
f 8 37 38
f 8 38 39
f 8 39 40
f 40 39 41
f 40 41 42
f 40 42 43
f 40 43 44
f 40 44 45
f 11 10 32
f 11 32 46
f 11 46 12
f 12 46 47
f 12 47 48
f 12 48 13
f 13 48 49
f 13 49 14
f 14 49 50
f 14 50 15
f 15 50 51
f 15 51 52
f 15 52 16
f 16 52 53
f 16 53 18
f 16 18 17
f 54 22 20
f 54 20 55
f 54 55 51
f 54 51 50
f 54 50 25
f 54 25 22
f 56 29 26
f 56 26 47
f 56 47 57
f 56 57 30
f 56 30 29
f 46 57 47
f 57 46 58
f 57 58 59
f 57 59 30
f 30 59 58
f 30 58 32
f 32 58 46
f 52 55 53
f 53 55 18
f 18 55 20
f 52 51 55
f 25 50 49
f 25 49 48
f 25 48 26
f 26 48 47
f 60 34 5
f 34 60 61
f 61 60 62
f 62 60 63
f 62 63 64
f 62 64 65
f 62 65 66
f 62 66 67
f 66 35 34
f 35 66 68
f 68 66 65
f 68 65 69
f 69 65 70
f 69 70 71
f 71 70 72
f 72 70 73
f 72 73 74
f 72 74 75
f 75 74 76
f 76 74 77
f 76 77 42
f 76 42 41
f 9 8 78
f 9 78 79
f 79 78 80
f 80 78 44
f 80 44 81
f 81 44 43
f 81 43 82
f 82 43 64
f 82 64 63
f 83 42 77
f 83 77 43
f 43 77 74
f 43 74 73
f 43 73 64
f 64 73 70
f 64 70 65
f 64 65 84
f 85 86 87
f 85 87 88
f 85 88 89
f 85 89 90
f 85 90 91
f 85 91 86
f 86 91 92
f 92 91 93
f 92 93 94
f 94 93 95
f 94 95 96
f 96 95 97
f 96 97 98
f 98 97 88
f 98 88 87
f 88 97 99
f 88 99 89
f 89 99 100
f 89 100 101
f 89 101 90
f 90 101 102
f 90 102 103
f 90 103 91
f 91 103 93
f 93 103 104
f 93 104 95
f 95 104 105
f 95 105 97
f 97 105 99
f 99 105 106
f 99 106 100
f 100 106 107
f 100 107 101
f 101 107 102
f 102 107 108
f 102 108 103
f 103 108 104
f 104 108 109
f 104 109 105
f 105 109 106
f 106 109 107
f 107 109 108
f 110 111 112
f 110 112 113
f 110 113 114
f 110 114 115
f 110 115 116
f 110 116 111
f 111 116 117
f 111 117 118
f 111 118 119
f 111 119 112
f 114 113 120
f 114 120 121
f 114 121 122
f 114 122 115
f 115 122 123
f 115 123 116
f 116 123 124
f 116 124 117
f 117 124 125
f 117 125 126
f 117 126 118
f 118 126 127
f 118 127 128
f 118 128 119
f 121 120 129
f 121 129 127
f 121 127 130
f 121 130 122
f 122 130 131
f 122 131 123
f 123 131 132
f 123 132 124
f 124 132 125
f 125 132 131
f 125 131 130
f 125 130 126
f 126 130 127
f 127 129 128
f 133 134 135
f 133 135 136
f 133 136 137
f 133 137 138
f 133 138 139
f 133 139 134
f 134 139 140
f 134 140 141
f 134 141 135
f 135 141 142
f 142 141 143
f 142 143 144
f 144 143 145
f 145 143 146
f 145 146 147
f 147 146 148
f 147 148 149
f 147 149 150
f 150 149 137
f 150 137 151
f 151 137 136
f 146 143 140
f 146 140 152
f 146 152 148
f 148 152 138
f 148 138 149
f 149 138 137
f 140 143 141
f 140 139 153
f 140 153 154
f 140 154 152
f 152 154 155
f 152 155 138
f 138 155 156
f 138 156 139
f 139 156 153
f 153 156 157
f 153 157 158
f 153 158 154
f 154 158 159
f 154 159 155
f 155 159 160
f 155 160 156
f 156 160 157
f 161 162 163
f 161 163 164
f 161 164 165
f 165 164 166
f 165 166 167
f 167 166 168
f 167 168 162
f 162 168 163
f 169 170 168
f 169 168 166
f 169 166 171
f 169 171 172
f 169 172 173
f 169 173 170
f 170 173 174
f 170 174 175
f 175 174 176
f 175 176 171
f 175 171 164
f 175 164 163
f 171 166 164
f 173 172 176
f 173 176 174
f 171 176 172
f 177 178 179
f 177 179 180
f 177 180 181
f 177 181 182
f 177 182 183
f 177 183 178
f 178 183 184
f 178 184 185
f 178 185 179
f 179 185 186
f 186 185 187
f 186 187 188
f 188 187 189
f 189 187 190
f 189 190 191
f 191 190 192
f 191 192 193
f 191 193 194
f 194 193 181
f 194 181 195
f 195 181 180
f 190 187 184
f 190 184 196
f 190 196 192
f 192 196 182
f 192 182 193
f 193 182 181
f 184 187 185
f 184 183 197
f 184 197 198
f 184 198 196
f 196 198 199
f 196 199 182
f 182 199 200
f 182 200 183
f 183 200 197
f 197 200 201
f 197 201 202
f 197 202 198
f 198 202 203
f 198 203 199
f 199 203 204
f 199 204 200
f 200 204 201
f 205 206 207
f 205 207 208
f 205 208 209
f 209 208 210
f 209 210 211
f 211 210 212
f 211 212 206
f 206 212 207
f 213 214 212
f 213 212 210
f 213 210 215
f 213 215 216
f 213 216 217
f 213 217 214
f 214 217 218
f 214 218 219
f 219 218 220
f 219 220 215
f 219 215 208
f 219 208 207
f 215 210 208
f 217 216 220
f 217 220 218
f 215 220 216
