# RS2 Model 23422
# Vertices: 363
# Faces: 467

v 10 -113 96
v 6 -114 96
v -7 -103 99
v -5 -102 100
v 8 -115 101
v 6 -116 98
v -8 -103 102
v -15 -97 106
v -13 -95 105
v -12 -94 106
v -5 -103 103
v -12 -95 108
v -20 -85 110
v -21 -87 109
v -21 -83 106
v -17 -81 108
v -12 -80 114
v -18 -88 120
v -26 -93 112
v -27 -90 103
v -21 -83 99
v -14 -77 105
v -13 -74 105
v -12 -78 117
v -20 -86 122
v -30 -94 114
v -30 -90 102
v -21 -80 99
v -27 -75 101
v -20 -69 109
v -19 -72 118
v -26 -79 123
v -33 -86 115
v -34 -83 105
v -37 -74 110
v -33 -69 108
v -28 -66 111
v -28 -68 116
v -33 -71 119
v -36 -75 115
v -36 -68 115
v -36 -68 112
v -35 -67 112
v -34 -65 114
v -34 -67 115
v 12 34 102
v 10 35 102
v 6 29 102
v 9 29 102
v 8 23 102
v 10 24 102
v 10 20 102
v 13 21 102
v 14 37 102
v 12 38 102
v 14 41 102
v 11 41 102
v 11 45 102
v 10 43 102
v 6 46 102
v 5 43 102
v 3 47 102
v 1 45 102
v 1 52 102
v -2 52 102
v 4 54 102
v 3 56 102
v 5 57 102
v 4 59 102
v 10 60 102
v 8 60 102
v 11 66 102
v 9 66 102
v 23 76 102
v 21 76 102
v 24 80 102
v 22 79 102
v 19 82 102
v 19 80 102
v 17 84 102
v 16 83 102
v 15 85 102
v 13 84 102
v 14 82 102
v 13 83 102
v 13 79 102
v 15 78 102
v 10 76 102
v 11 76 102
v 10 75 102
v 10 73 102
v 6 75 102
v 6 72 102
v 1 81 102
v 0 81 102
v -1 87 102
v -2 87 102
v -4 91 102
v -5 89 102
v -12 94 102
v -11 92 102
v -18 98 102
v -20 96 102
v -20 50 103
v -18 50 103
v -13 54 103
v -15 54 103
v -10 58 103
v -12 59 103
v -4 62 104
v -6 62 104
v -5 64 104
v -7 64 104
v -16 65 104
v -15 63 104
v -24 64 104
v -24 63 104
v -28 60 104
v -27 59 103
v -33 60 104
v -32 59 103
v 2 65 104
v 26 42 102
v 25 36 102
v 27 37 102
v 28 41 102
v 30 46 102
v 31 45 102
v 36 45 102
v 35 44 102
v 40 42 102
v 38 41 102
v 39 36 102
v 38 37 102
v 36 32 102
v 35 33 102
v 30 32 102
v 31 34 102
v 24 34 102
v 42 42 102
v 42 44 102
v 23 36 102
v 22 34 102
v 29 47 102
v 36 29 102
v 38 30 102
v 30 48 102
v 29 48 102
v 44 43 102
v 37 29 102
v 27 21 101
v 40 30 101
v 4 15 101
v 7 13 101
v 14 8 101
v 8 8 101
v 51 30 101
v 48 38 102
v 43 62 101
v 36 62 101
v 30 61 101
v -26 35 101
v 0 14 101
v -2 12 101
v -15 22 101
v -13 20 101
v -11 16 101
v -12 9 101
v -3 8 101
v -2 5 101
v -9 6 101
v 27 67 101
v 23 74 101
v -31 45 102
v -37 53 102
v -39 58 103
v -47 96 101
v -42 83 102
v -42 73 103
v -46 86 102
v -44 82 102
v -44 79 102
v -48 78 103
v -50 82 102
v -46 80 102
v -48 83 102
v -52 92 101
v 28 74 101
v 17 111 101
v 13 116 101
v 6 116 101
v -19 104 101
v -25 101 101
v -31 100 101
v -35 97 101
v 38 69 101
v 32 74 101
v 33 69 101
v 35 68 101
v 36 65 101
v 34 64 101
v 32 65 101
v 29 67 101
v 29 69 101
v 30 71 101
v -20 20 101
v -14 17 101
v -16 20 101
v -12 14 101
v 41 28 101
v 44 28 101
v 46 27 101
v 51 25 101
v 47 24 101
v 46 20 101
v 44 21 101
v 38 18 101
v 38 21 101
v 35 21 101
v 37 26 101
v -47 86 102
v 36 -66 104
v 28 -63 104
v 21 -84 98
v 30 -87 98
v 39 -60 104
v 32 -79 98
v 32 -56 104
v 25 -75 98
v 23 -53 110
v 33 -45 105
v 32 -57 98
v 26 -61 100
v 27 -63 117
v 28 -67 105
v 37 -67 117
v 34 -68 105
v 47 -61 110
v 40 -65 100
v 44 -48 105
v 38 -59 98
v 31 -43 102
v 18 -52 109
v 21 -52 111
v 32 -43 105
v 48 -48 102
v 46 -48 105
v 52 -61 109
v 49 -61 111
v 39 -71 118
v 39 -67 119
v 22 -65 118
v 25 -63 119
v 25 -53 111
v 34 -46 106
v 43 -49 106
v 46 -61 111
v 38 -64 117
v 28 -61 117
v 32 -61 107
v 32 -58 106
v 34 -57 106
v 36 -58 106
v 38 -61 106
v 34 -61 107
v -5 1 103
v -10 5 103
v -24 -5 103
v -19 -8 103
v -19 -8 98
v -5 1 98
v 17 3 98
v 17 3 103
v 17 8 103
v -10 5 98
v -24 -5 98
v -45 -11 98
v -45 -11 103
v -42 -16 103
v -42 -16 98
v -64 -16 102
v -63 -16 97
v -75 -16 87
v -71 -16 85
v -66 -11 96
v -72 -11 82
v -67 -11 101
v 17 8 98
v 36 -3 103
v 36 -3 98
v 42 -21 103
v 42 -21 98
v 38 -38 103
v 38 -38 98
v 27 -60 103
v 27 -60 98
v 5 -64 103
v 5 -64 98
v -17 -58 103
v -17 -58 98
v -30 -42 103
v -30 -42 98
v -22 -22 103
v -22 -22 98
v -4 -8 103
v -4 -8 98
v 16 -9 103
v 16 -9 98
v 29 -23 103
v 29 -23 98
v 24 -39 103
v 24 -39 98
v 15 -54 103
v 15 -54 98
v -3 -53 103
v -3 -53 98
v -18 -41 103
v -18 -41 98
v -9 -24 103
v -9 -24 98
v -4 -24 98
v -4 -24 103
v -13 -40 103
v -13 -40 98
v -2 -48 103
v -2 -48 98
v 12 -49 103
v 12 -49 98
v 18 -37 103
v 18 -37 98
v 23 -24 103
v 23 -24 98
v 14 -14 103
v 14 -14 98
v -2 -13 103
v -2 -13 98
v -17 -24 103
v -17 -24 98
v -25 -40 103
v -25 -40 98
v -15 -53 103
v -15 -53 98
v 4 -59 103
v 4 -59 98
v 23 -56 103
v 23 -56 98
v 32 -37 103
v 32 -37 98
v 36 -20 103
v 36 -20 98
v 31 -5 103
v 31 -5 98
v -76 -11 84
v -80 -11 64
v -80 -16 67
v -76 -16 66
v -76 -11 63
v -31 -96 111
v -27 -84 93
v -13 -83 124
v 48 -73 118
v 55 -49 102
v 14 -63 117

f 1 2 3
f 1 3 4
f 1 4 5
f 1 5 6
f 1 6 2
f 2 6 7
f 2 7 3
f 3 7 8
f 3 8 9
f 3 9 4
f 4 9 10
f 4 10 11
f 4 11 5
f 5 11 6
f 6 11 7
f 7 11 12
f 7 12 8
f 8 12 13
f 8 13 14
f 8 14 9
f 9 14 15
f 9 15 10
f 10 15 16
f 10 16 12
f 10 12 11
f 12 16 13
f 13 16 17
f 13 17 18
f 13 18 14
f 14 18 19
f 14 19 15
f 15 19 20
f 15 20 21
f 15 21 16
f 16 21 22
f 16 22 17
f 17 22 23
f 17 23 24
f 17 24 18
f 18 24 25
f 18 25 19
f 19 25 26
f 19 26 20
f 20 26 27
f 20 27 21
f 21 27 28
f 21 28 22
f 22 28 23
f 23 28 29
f 23 29 30
f 23 30 24
f 24 30 31
f 24 31 25
f 25 31 32
f 25 32 26
f 26 32 33
f 26 33 27
f 27 33 34
f 27 34 28
f 28 34 29
f 29 34 35
f 29 35 36
f 29 36 30
f 30 36 37
f 30 37 31
f 31 37 38
f 31 38 32
f 32 38 39
f 32 39 33
f 33 39 40
f 33 40 34
f 34 40 35
f 35 40 41
f 35 41 42
f 35 42 36
f 36 42 43
f 36 43 37
f 37 43 44
f 37 44 38
f 38 44 45
f 38 45 39
f 39 45 40
f 40 45 41
f 41 45 42
f 42 45 44
f 42 44 43
f 46 47 48
f 46 48 49
f 49 48 50
f 49 50 51
f 51 50 52
f 51 52 53
f 47 46 54
f 47 54 55
f 55 54 56
f 55 56 57
f 57 56 58
f 57 58 59
f 59 58 60
f 59 60 61
f 61 60 62
f 61 62 63
f 63 62 64
f 63 64 65
f 65 64 66
f 65 66 67
f 67 66 68
f 67 68 69
f 69 68 70
f 69 70 71
f 71 70 72
f 71 72 73
f 73 72 74
f 73 74 75
f 75 74 76
f 75 76 77
f 77 76 78
f 77 78 79
f 79 78 80
f 79 80 81
f 81 80 82
f 81 82 83
f 81 83 84
f 84 83 85
f 84 85 86
f 84 86 87
f 87 86 88
f 87 88 89
f 89 88 90
f 89 90 91
f 91 90 92
f 91 92 93
f 93 92 94
f 93 94 95
f 95 94 96
f 95 96 97
f 97 96 98
f 97 98 99
f 99 98 100
f 99 100 101
f 101 100 102
f 101 102 103
f 104 105 106
f 104 106 107
f 107 106 108
f 107 108 109
f 109 108 110
f 109 110 111
f 111 110 112
f 111 112 113
f 111 113 114
f 111 114 115
f 115 114 116
f 115 116 117
f 117 116 118
f 117 118 119
f 119 118 120
f 119 120 121
f 112 110 122
f 123 124 125
f 123 125 126
f 123 126 127
f 127 126 128
f 127 128 129
f 129 128 130
f 129 130 131
f 131 130 132
f 131 132 133
f 133 132 134
f 133 134 135
f 135 134 136
f 135 136 137
f 137 136 138
f 137 138 124
f 124 138 125
f 139 140 141
f 139 141 142
f 139 142 143
f 144 145 146
f 144 146 147
f 144 147 148
f 141 140 149
f 146 145 150
f 151 152 153
f 151 153 154
f 151 154 155
f 155 154 156
f 152 157 158
f 152 158 159
f 152 159 160
f 152 160 161
f 152 161 153
f 153 161 162
f 153 162 163
f 163 162 164
f 164 162 165
f 164 165 166
f 164 166 167
f 164 167 168
f 164 168 169
f 169 168 170
f 170 168 171
f 162 161 172
f 162 172 173
f 162 173 174
f 174 173 175
f 175 173 176
f 176 173 177
f 176 177 178
f 176 178 179
f 179 178 180
f 179 180 181
f 179 181 182
f 179 182 183
f 183 182 184
f 184 182 185
f 184 185 186
f 184 186 177
f 184 177 187
f 173 188 189
f 173 189 190
f 173 190 191
f 173 191 192
f 173 192 193
f 173 193 194
f 173 194 195
f 173 195 177
f 196 197 198
f 196 198 199
f 196 199 159
f 159 199 200
f 159 200 160
f 160 200 201
f 160 201 161
f 161 201 202
f 161 202 172
f 172 202 203
f 172 203 173
f 173 203 204
f 173 204 188
f 188 204 205
f 188 205 197
f 188 197 189
f 197 205 198
f 162 206 207
f 162 207 208
f 162 208 165
f 168 167 209
f 168 209 207
f 168 207 206
f 157 152 210
f 157 210 211
f 157 211 212
f 157 212 213
f 213 212 214
f 213 214 215
f 215 214 216
f 215 216 217
f 217 216 218
f 217 218 151
f 151 218 219
f 151 219 152
f 152 219 220
f 152 220 210
f 177 186 221
f 177 221 180
f 177 180 178
f 222 223 224
f 222 224 225
f 222 225 226
f 226 225 227
f 226 227 228
f 228 227 229
f 228 229 223
f 223 229 224
f 230 231 232
f 230 232 233
f 230 233 234
f 234 233 235
f 234 235 236
f 236 235 237
f 236 237 238
f 238 237 239
f 238 239 240
f 240 239 241
f 240 241 231
f 231 241 232
f 242 243 244
f 242 244 245
f 242 245 246
f 246 245 247
f 246 247 248
f 248 247 249
f 248 249 250
f 250 249 251
f 250 251 252
f 252 251 253
f 252 253 243
f 243 253 244
f 244 253 254
f 244 254 245
f 245 254 255
f 245 255 247
f 247 255 256
f 247 256 249
f 249 256 257
f 249 257 258
f 249 258 251
f 251 258 259
f 251 259 253
f 253 259 254
f 254 259 260
f 254 260 261
f 254 261 255
f 255 261 262
f 255 262 256
f 256 262 263
f 256 263 257
f 257 263 264
f 257 264 258
f 258 264 265
f 258 265 259
f 259 265 260
f 260 265 264
f 260 264 263
f 260 263 262
f 260 262 261
f 266 267 268
f 266 268 269
f 266 269 270
f 266 270 271
f 266 271 272
f 266 272 273
f 266 273 267
f 267 273 274
f 267 274 275
f 267 275 268
f 268 275 276
f 268 276 277
f 268 277 278
f 268 278 269
f 269 278 279
f 269 279 270
f 270 279 280
f 280 279 281
f 280 281 282
f 282 281 283
f 282 283 284
f 282 284 285
f 285 284 286
f 285 286 287
f 285 287 278
f 285 278 277
f 275 274 288
f 288 274 289
f 288 289 290
f 290 289 291
f 290 291 292
f 292 291 293
f 292 293 294
f 294 293 295
f 294 295 296
f 296 295 297
f 296 297 298
f 298 297 299
f 298 299 300
f 300 299 301
f 300 301 302
f 302 301 303
f 302 303 304
f 304 303 305
f 304 305 306
f 306 305 307
f 306 307 308
f 308 307 309
f 308 309 310
f 310 309 311
f 310 311 312
f 312 311 313
f 312 313 314
f 314 313 315
f 314 315 316
f 316 315 317
f 316 317 318
f 318 317 319
f 318 319 320
f 320 319 321
f 321 319 322
f 321 322 323
f 321 323 324
f 324 323 325
f 324 325 326
f 326 325 327
f 326 327 328
f 328 327 329
f 328 329 330
f 330 329 331
f 330 331 332
f 332 331 333
f 332 333 334
f 334 333 335
f 334 335 336
f 336 335 337
f 336 337 338
f 338 337 339
f 338 339 340
f 340 339 341
f 340 341 342
f 342 341 343
f 342 343 344
f 344 343 345
f 344 345 346
f 346 345 347
f 346 347 348
f 348 347 349
f 348 349 350
f 350 349 351
f 350 351 352
f 352 351 273
f 352 273 272
f 274 273 351
f 274 351 289
f 289 351 349
f 289 349 291
f 291 349 347
f 291 347 293
f 293 347 345
f 293 345 295
f 295 345 343
f 295 343 297
f 297 343 341
f 297 341 299
f 299 341 339
f 299 339 301
f 301 339 337
f 301 337 303
f 303 337 335
f 303 335 305
f 305 335 333
f 305 333 307
f 307 333 331
f 307 331 309
f 309 331 329
f 309 329 311
f 311 329 327
f 311 327 313
f 313 327 325
f 313 325 315
f 315 325 323
f 315 323 317
f 317 323 322
f 317 322 319
f 279 278 287
f 279 287 281
f 281 287 353
f 281 353 283
f 283 353 354
f 283 354 355
f 283 355 284
f 284 355 356
f 284 356 286
f 286 356 357
f 286 357 353
f 286 353 287
f 356 357 354
f 356 354 355
f 357 354 353
