# RS2 Model 23420
# Vertices: 272
# Faces: 455

v -28 -31 159
v -64 -31 159
v -64 -29 139
v -44 -29 139
v -28 -18 159
v -44 -20 139
v -64 -18 159
v -64 -20 139
v -28 19 159
v -64 19 159
v -64 21 139
v -44 21 139
v -28 32 159
v -44 30 139
v -64 32 159
v -64 30 139
v -23 48 165
v -23 26 165
v -23 26 159
v -23 48 159
v -27 54 159
v -27 54 165
v -28 43 165
v -28 29 165
v -23 26 176
v -28 23 176
v -28 23 165
v -21 -12 165
v -21 -12 159
v -22 -42 165
v -22 -42 159
v -26 -50 165
v -26 -50 159
v -64 -50 159
v -64 -50 165
v -45 -46 165
v -64 -46 165
v -45 -46 176
v -64 -46 176
v -23 48 176
v -24 44 181
v -22 -42 182
v -21 -12 176
v -22 -42 176
v -27 -48 181
v -26 -50 176
v -64 -50 176
v -64 -48 181
v -64 -12 182
v -28 52 181
v -64 52 181
v -27 54 176
v -64 54 176
v -28 29 176
v -28 -8 176
v -28 -8 165
v -28 -15 176
v -28 -15 165
v -27 -39 165
v -31 -46 165
v -31 -46 176
v -27 -39 176
v -32 50 165
v -45 50 165
v -45 50 176
v -32 50 176
v -64 50 165
v -64 50 176
v -64 54 165
v -64 54 159
v -57 33 187
v -56 33 186
v -56 33 188
v -56 34 188
v -57 34 187
v -58 34 186
v -57 32 185
v -55 33 187
v -56 33 187
v -55 34 187
v -55 35 188
v -56 35 187
v -59 35 186
v -60 35 186
v -59 34 185
v -56 33 184
v -55 32 184
v -54 31 186
v -52 31 186
v -52 33 187
v -55 35 187
v -55 35 186
v -57 35 186
v -56 36 185
v -58 36 185
v -60 35 185
v -59 35 184
v -58 34 184
v -56 34 184
v -53 33 184
v -53 31 184
v -51 30 184
v -51 31 185
v -47 29 186
v -48 30 187
v -47 32 188
v -51 35 186
v -53 35 186
v -51 31 184
v -52 30 184
v -52 29 184
v -51 30 183
v -49 32 182
v -44 30 184
v -46 29 184
v -50 35 184
v -48 34 184
v -45 33 184
v -44 32 184
v -44 31 183
v -42 30 184
v -41 30 184
v -44 29 184
v -45 29 184
v -45 29 185
v -44 29 186
v -43 30 186
v -44 31 187
v -47 33 187
v -50 35 185
v -54 36 184
v -55 35 184
v -41 30 185
v -43 31 186
v -46 33 186
v -49 34 184
v -52 35 184
v -43 32 186
v -49 34 183
v -50 36 184
v -51 37 182
v -52 36 183
v -49 35 183
v -52 36 182
v -44 29 185
v -41 28 185
v -43 28 183
v -44 28 185
v -38 26 184
v -40 27 183
v -44 28 184
v -41 25 183
v -40 24 184
v -38 24 184
v -38 25 184
v -38 25 183
v -37 24 184
v -37 24 183
v -36 24 184
v -35 24 183
v -32 23 184
v -31 23 183
v -31 23 184
v -30 22 184
v -26 22 183
v -27 23 183
v -29 20 184
v -27 20 184
v -31 17 184
v -30 16 184
v -31 22 184
v -32 22 183
v -33 22 184
v -36 23 184
v -35 23 183
v -38 24 183
v -32 22 184
v -51 29 183
v -54 30 182
v -54 30 183
v -53 29 182
v -57 31 182
v -57 29 182
v -54 29 182
v -44 33 185
v -44 33 184
v -43 32 185
v -42 33 185
v -42 33 184
v -42 32 183
v -43 32 184
v -40 32 185
v -37 34 184
v -38 34 183
v -39 31 183
v -38 32 184
v -35 32 184
v -35 33 184
v -35 33 183
v -34 33 184
v -34 33 183
v -33 33 184
v -32 33 183
v -31 31 184
v -30 31 183
v -30 31 184
v -29 30 184
v -24 30 184
v -25 32 184
v -28 29 184
v -26 28 184
v -28 25 183
v -29 25 183
v -29 29 184
v -31 30 183
v -32 31 184
v -33 32 184
v -33 32 183
v -34 32 184
v -34 32 183
v -35 32 183
v -31 30 184
v -55 37 182
v -54 39 182
v -15 -37 179
v -19 -38 179
v -32 -27 182
v -30 -26 183
v -17 -39 184
v -19 -40 181
v -33 -27 185
v -40 -21 189
v -38 -19 188
v -37 -18 189
v -30 -27 186
v -37 -19 191
v -45 -9 193
v -46 -11 192
v -46 -7 189
v -42 -5 191
v -37 -4 197
v -43 -12 203
v -51 -17 195
v -52 -14 186
v -46 -7 182
v -39 -1 188
v -38 2 188
v -37 -2 200
v -45 -10 205
v -55 -18 197
v -55 -14 185
v -46 -4 182
v -52 1 184
v -45 7 192
v -44 4 201
v -51 -3 206
v -58 -10 198
v -59 -7 188
v -62 2 193
v -58 7 191
v -53 10 194
v -53 8 199
v -58 5 202
v -61 1 198
v -61 8 198
v -61 8 195
v -60 9 195
v -59 11 197
v -59 9 198
v -56 -20 194
v -52 -8 176
v -38 -7 207

f 1 2 3
f 1 3 4
f 1 4 5
f 5 4 6
f 5 6 7
f 7 6 8
f 9 10 11
f 9 11 12
f 9 12 13
f 13 12 14
f 13 14 15
f 15 14 16
f 17 18 19
f 17 19 20
f 17 20 21
f 17 21 22
f 17 22 23
f 17 23 18
f 18 23 24
f 18 24 25
f 18 25 26
f 18 26 27
f 18 27 28
f 18 28 19
f 19 28 29
f 29 28 30
f 29 30 31
f 31 30 32
f 31 32 33
f 33 32 34
f 34 32 35
f 35 32 36
f 35 36 37
f 37 36 38
f 37 38 39
f 25 40 41
f 25 41 42
f 25 42 43
f 43 42 44
f 44 42 45
f 44 45 46
f 46 45 47
f 47 45 48
f 48 45 49
f 49 45 50
f 49 50 51
f 51 50 52
f 51 52 53
f 24 23 50
f 24 50 54
f 24 54 25
f 27 26 55
f 27 55 56
f 27 56 28
f 28 56 43
f 28 43 57
f 28 57 58
f 28 58 30
f 30 58 59
f 30 59 60
f 30 60 32
f 32 60 36
f 36 60 61
f 36 61 38
f 58 57 62
f 58 62 59
f 59 62 61
f 59 61 60
f 56 55 43
f 63 64 65
f 63 65 66
f 63 66 50
f 63 50 23
f 63 23 22
f 63 22 64
f 64 22 67
f 64 67 68
f 64 68 65
f 41 40 52
f 41 52 50
f 41 50 42
f 42 50 45
f 69 22 21
f 69 21 70
f 67 22 69
f 71 72 73
f 71 73 74
f 71 74 75
f 71 75 76
f 71 76 72
f 72 76 77
f 72 77 78
f 72 78 79
f 72 79 73
f 73 79 78
f 73 78 74
f 74 78 80
f 74 80 81
f 74 81 82
f 74 82 75
f 74 75 76
f 74 76 75
f 76 74 80
f 76 80 74
f 76 83 84
f 76 84 77
f 77 84 85
f 77 85 86
f 77 86 87
f 77 87 88
f 77 88 78
f 78 88 89
f 78 89 90
f 78 90 80
f 80 90 91
f 80 91 81
f 81 91 92
f 81 92 82
f 82 92 93
f 82 93 75
f 75 93 76
f 76 93 83
f 83 93 84
f 84 93 94
f 84 94 95
f 84 95 96
f 84 96 85
f 85 96 97
f 85 97 86
f 86 97 98
f 86 98 99
f 86 99 100
f 86 100 101
f 86 101 87
f 87 101 102
f 87 102 103
f 87 103 88
f 88 103 89
f 89 103 104
f 89 104 105
f 89 105 90
f 90 105 106
f 90 106 107
f 90 107 108
f 90 108 91
f 91 108 94
f 91 94 92
f 92 94 93
f 100 109 101
f 101 109 110
f 101 110 102
f 102 110 111
f 102 111 112
f 102 112 109
f 102 109 113
f 102 113 114
f 102 114 115
f 102 115 104
f 102 104 103
f 113 109 100
f 113 100 116
f 113 116 117
f 113 117 118
f 113 118 119
f 113 119 120
f 113 120 114
f 114 120 121
f 114 121 122
f 114 122 123
f 114 123 124
f 114 124 115
f 115 124 125
f 115 125 126
f 115 126 104
f 104 126 127
f 104 127 105
f 105 127 106
f 106 127 128
f 106 128 129
f 106 129 107
f 107 129 130
f 107 130 131
f 107 131 108
f 108 131 94
f 94 131 132
f 94 132 95
f 95 132 97
f 95 97 96
f 127 133 128
f 128 133 134
f 128 134 129
f 129 134 135
f 129 135 130
f 130 135 136
f 130 136 137
f 130 137 131
f 131 137 132
f 132 137 116
f 132 116 100
f 132 100 99
f 132 99 97
f 97 99 98
f 126 133 127
f 133 126 122
f 133 122 121
f 133 121 122
f 133 122 138
f 133 138 134
f 134 138 118
f 134 118 135
f 135 118 117
f 135 117 136
f 136 117 139
f 136 139 140
f 136 140 137
f 137 140 116
f 116 140 141
f 116 141 142
f 116 142 143
f 143 142 144
f 143 144 140
f 143 140 139
f 125 145 126
f 126 145 123
f 126 123 122
f 146 147 123
f 146 123 145
f 146 145 125
f 146 125 148
f 146 148 149
f 146 149 147
f 147 149 150
f 147 150 151
f 147 151 123
f 123 151 124
f 124 151 125
f 125 151 148
f 148 151 152
f 148 152 153
f 148 153 149
f 149 153 154
f 149 154 155
f 149 155 150
f 150 155 156
f 156 155 157
f 156 157 158
f 158 157 159
f 158 159 160
f 160 159 161
f 160 161 162
f 162 161 163
f 162 163 164
f 162 164 165
f 162 165 166
f 166 165 167
f 167 165 168
f 167 168 169
f 169 168 170
f 169 170 171
f 169 171 172
f 172 171 173
f 172 173 174
f 172 174 175
f 175 174 157
f 175 157 158
f 158 157 154
f 158 154 176
f 176 154 153
f 176 153 152
f 150 152 151
f 174 159 157
f 159 174 173
f 159 173 161
f 161 173 177
f 161 177 163
f 163 177 171
f 163 171 164
f 164 171 168
f 164 168 165
f 155 154 157
f 171 177 173
f 171 170 168
f 111 178 112
f 112 178 109
f 109 178 179
f 109 179 180
f 109 180 110
f 110 180 111
f 111 180 181
f 111 181 178
f 178 181 179
f 179 182 180
f 180 182 183
f 180 183 181
f 181 183 184
f 120 119 122
f 120 122 121
f 185 186 119
f 185 119 118
f 185 118 187
f 185 187 188
f 185 188 186
f 186 188 189
f 186 189 190
f 186 190 191
f 186 191 122
f 186 122 119
f 187 118 138
f 187 138 122
f 187 122 191
f 187 191 190
f 187 190 192
f 187 192 188
f 188 192 193
f 188 193 189
f 189 193 194
f 189 194 190
f 190 194 195
f 190 195 192
f 192 195 196
f 192 196 193
f 193 196 197
f 193 197 198
f 193 198 194
f 194 198 199
f 199 198 200
f 199 200 201
f 201 200 202
f 201 202 203
f 203 202 204
f 203 204 205
f 205 204 206
f 205 206 207
f 205 207 208
f 205 208 209
f 209 208 210
f 210 208 211
f 210 211 212
f 210 212 213
f 213 212 214
f 213 214 215
f 215 214 216
f 215 216 217
f 215 217 218
f 218 217 219
f 218 219 220
f 220 219 197
f 220 197 221
f 221 197 196
f 221 196 195
f 217 202 200
f 217 200 219
f 219 200 198
f 219 198 197
f 216 204 202
f 216 202 217
f 214 207 206
f 214 206 222
f 214 222 216
f 216 222 204
f 204 222 206
f 207 214 212
f 207 212 211
f 207 211 208
f 116 139 117
f 144 141 140
f 223 144 142
f 223 142 224
f 224 142 141
f 225 226 227
f 225 227 228
f 225 228 229
f 225 229 230
f 225 230 226
f 226 230 231
f 226 231 227
f 227 231 232
f 227 232 233
f 227 233 228
f 228 233 234
f 228 234 235
f 228 235 229
f 229 235 230
f 230 235 231
f 231 235 236
f 231 236 232
f 232 236 237
f 232 237 238
f 232 238 233
f 233 238 239
f 233 239 234
f 234 239 240
f 234 240 236
f 234 236 235
f 236 240 237
f 237 240 241
f 237 241 242
f 237 242 238
f 238 242 243
f 238 243 239
f 239 243 244
f 239 244 245
f 239 245 240
f 240 245 246
f 240 246 241
f 241 246 247
f 241 247 248
f 241 248 242
f 242 248 249
f 242 249 243
f 243 249 250
f 243 250 244
f 244 250 251
f 244 251 245
f 245 251 252
f 245 252 246
f 246 252 247
f 247 252 253
f 247 253 254
f 247 254 248
f 248 254 255
f 248 255 249
f 249 255 256
f 249 256 250
f 250 256 257
f 250 257 251
f 251 257 258
f 251 258 252
f 252 258 253
f 253 258 259
f 253 259 260
f 253 260 254
f 254 260 261
f 254 261 255
f 255 261 262
f 255 262 256
f 256 262 263
f 256 263 257
f 257 263 264
f 257 264 258
f 258 264 259
f 259 264 265
f 259 265 266
f 259 266 260
f 260 266 267
f 260 267 261
f 261 267 268
f 261 268 262
f 262 268 269
f 262 269 263
f 263 269 264
f 264 269 265
f 265 269 266
f 266 269 268
f 266 268 267
