# RS2 Model 2342
# Vertices: 28
# Faces: 33

v -3 -31 2
v -3 -31 4
v -11 -36 5
v -11 -36 1
v -17 -42 3
v -18 -36 3
v -20 -38 3
v -12 -28 1
v -12 -28 5
v -4 -27 4
v -4 -27 2
v -6 23 6
v -11 22 6
v -6 17 5
v -6 23 0
v -11 22 0
v -9 17 5
v 6 -32 6
v -6 17 1
v -9 17 1
v -3 -34 6
v -3 -34 0
v 6 -32 0
v -12 -32 5
v -19 -31 3
v -12 -32 1
v -21 -24 3
v -23 -30 3

f 1 2 3
f 1 3 4
f 4 3 5
f 5 3 6
f 5 6 7
f 8 9 10
f 8 10 11
f 12 13 14
f 12 14 15
f 12 15 16
f 12 16 13
f 13 16 17
f 13 17 14
f 14 17 18
f 14 18 19
f 14 19 15
f 16 20 17
f 17 20 21
f 17 21 18
f 18 21 22
f 18 22 23
f 18 23 19
f 20 22 21
f 24 3 2
f 24 2 9
f 24 9 25
f 24 25 26
f 24 26 6
f 24 6 3
f 9 2 10
f 9 8 27
f 9 27 25
f 25 27 28
