# RS2 Model 23634
# Vertices: 114
# Faces: 214

v 36 -16 64
v 35 -21 58
v 39 -21 59
v 41 -17 56
v 36 -12 64
v 37 -17 66
v 32 -17 66
v 32 -16 64
v 37 -17 55
v 38 -22 51
v 41 -22 51
v 42 -19 52
v 38 -19 52
v 42 -15 46
v 42 -6 46
v 41 -6 52
v 38 -7 60
v 34 -7 59
v 32 -12 64
v 32 -11 66
v 37 -11 66
v 39 -19 82
v 29 -19 81
v 37 -6 51
v 39 -15 46
v 40 -15 37
v 42 -15 37
v 42 -7 37
v 39 -6 46
v 34 -9 83
v 36 -12 92
v 40 -9 86
v 40 -9 85
v 34 -9 81
v 29 -19 84
v 30 -12 92
v 37 -10 99
v 37 -17 99
v 36 -16 92
v 39 -19 86
v 39 -19 85
v 40 -9 82
v 34 -9 80
v 29 -19 82
v 30 -16 92
v 28 -18 94
v 28 -10 94
v 40 -7 37
v 41 -16 29
v 41 -8 29
v 38 -20 49
v 38 -21 49
v 41 -21 49
v 42 -20 49
v 39 -21 49
v 39 -22 51
v 40 -8 29
v -37 -16 64
v -40 -21 59
v -36 -21 58
v -33 -16 64
v -33 -17 66
v -38 -17 66
v -37 -12 64
v -42 -17 56
v -43 -19 52
v -42 -22 51
v -39 -22 51
v -38 -17 55
v -38 -6 51
v -33 -12 64
v -33 -11 66
v -30 -19 81
v -40 -19 82
v -38 -11 66
v -35 -7 59
v -39 -7 60
v -42 -6 52
v -43 -6 46
v -43 -15 46
v -39 -19 52
v -39 -20 49
v -43 -20 49
v -42 -21 49
v -39 -21 49
v -40 -6 46
v -43 -7 37
v -43 -15 37
v -41 -15 37
v -40 -15 46
v -41 -7 37
v -41 -8 29
v -42 -8 29
v -42 -16 29
v -35 -9 83
v -41 -9 86
v -37 -12 92
v -31 -12 92
v -30 -19 84
v -30 -19 82
v -35 -9 81
v -41 -9 85
v -40 -19 86
v -37 -16 92
v -38 -17 99
v -38 -10 99
v -29 -10 94
v -31 -16 92
v -40 -19 85
v -35 -9 80
v -41 -9 82
v -29 -18 94
v -40 -22 51
v -40 -21 49

f 1 2 3
f 1 3 4
f 1 4 5
f 1 5 6
f 1 6 7
f 1 7 8
f 1 8 2
f 2 8 9
f 2 9 10
f 2 10 11
f 2 11 3
f 3 11 12
f 3 12 4
f 4 12 13
f 4 13 9
f 4 9 14
f 4 14 15
f 4 15 16
f 4 16 5
f 5 16 17
f 5 17 18
f 5 18 19
f 5 19 20
f 5 20 21
f 5 21 6
f 6 21 22
f 6 22 7
f 7 22 23
f 7 23 20
f 7 20 8
f 8 20 19
f 8 19 24
f 8 24 9
f 9 24 25
f 9 25 14
f 14 25 26
f 14 26 27
f 14 27 28
f 14 28 15
f 15 28 29
f 15 29 16
f 16 29 24
f 16 24 18
f 16 18 17
f 18 24 19
f 30 31 32
f 30 32 33
f 30 33 34
f 30 34 35
f 30 35 36
f 30 36 31
f 31 36 37
f 31 37 38
f 31 38 39
f 31 39 32
f 32 39 40
f 32 40 41
f 32 41 33
f 33 41 22
f 33 22 42
f 33 42 34
f 34 42 43
f 34 43 44
f 34 44 35
f 35 44 40
f 35 40 45
f 35 45 36
f 36 45 46
f 36 46 47
f 36 47 37
f 40 39 45
f 45 39 38
f 45 38 46
f 25 24 29
f 25 29 48
f 25 48 26
f 26 48 49
f 26 49 27
f 27 49 28
f 28 49 50
f 28 50 48
f 28 48 29
f 9 13 10
f 10 13 51
f 10 51 52
f 10 52 11
f 11 52 53
f 11 53 12
f 12 53 54
f 12 54 13
f 13 54 51
f 51 54 55
f 51 55 52
f 52 55 53
f 53 55 54
f 56 11 10
f 49 57 50
f 50 57 48
f 48 57 49
f 20 23 43
f 20 43 21
f 21 43 42
f 21 42 22
f 23 22 41
f 23 41 44
f 23 44 43
f 44 41 40
f 58 59 60
f 58 60 61
f 58 61 62
f 58 62 63
f 58 63 64
f 58 64 65
f 58 65 59
f 59 65 66
f 59 66 67
f 59 67 60
f 60 67 68
f 60 68 69
f 60 69 61
f 61 69 70
f 61 70 71
f 61 71 72
f 61 72 62
f 62 72 73
f 62 73 74
f 62 74 63
f 63 74 75
f 63 75 64
f 64 75 72
f 64 72 71
f 64 71 76
f 64 76 77
f 64 77 78
f 64 78 65
f 65 78 79
f 65 79 80
f 65 80 69
f 65 69 81
f 65 81 66
f 66 81 82
f 66 82 83
f 66 83 67
f 67 83 84
f 67 84 68
f 68 84 85
f 68 85 81
f 68 81 69
f 76 71 70
f 76 70 77
f 77 70 78
f 78 70 86
f 78 86 79
f 79 86 87
f 79 87 80
f 80 87 88
f 80 88 89
f 80 89 90
f 80 90 69
f 69 90 70
f 70 90 86
f 86 90 91
f 86 91 87
f 87 91 92
f 87 92 93
f 87 93 94
f 87 94 88
f 88 94 89
f 89 94 91
f 89 91 90
f 95 96 97
f 95 97 98
f 95 98 99
f 95 99 100
f 95 100 101
f 95 101 96
f 96 101 102
f 96 102 103
f 96 103 104
f 96 104 97
f 97 104 105
f 97 105 106
f 97 106 98
f 98 106 107
f 98 107 108
f 98 108 99
f 99 108 103
f 99 103 109
f 99 109 100
f 100 109 74
f 100 74 73
f 100 73 101
f 101 73 110
f 101 110 102
f 102 110 111
f 102 111 109
f 102 109 103
f 103 108 104
f 104 108 105
f 105 108 112
f 112 108 107
f 113 68 67
f 114 85 84
f 114 84 83
f 114 83 82
f 114 82 85
f 85 82 81
f 94 93 92
f 94 92 91
f 72 110 73
f 110 72 75
f 110 75 111
f 111 75 74
f 111 74 109
