# RS2 Model 23632
# Vertices: 106
# Faces: 198

v 36 -16 64
v 35 -21 58
v 39 -21 59
v 41 -17 56
v 36 -12 64
v 37 -17 66
v 32 -17 66
v 32 -16 64
v 37 -17 55
v 38 -22 51
v 41 -22 51
v 42 -19 52
v 38 -19 52
v 42 -15 46
v 42 -6 46
v 41 -6 52
v 38 -7 60
v 34 -7 59
v 32 -12 64
v 32 -11 66
v 37 -11 66
v 39 -19 82
v 29 -19 81
v 37 -6 51
v 39 -15 46
v 40 -15 37
v 42 -15 37
v 42 -7 37
v 39 -6 46
v 34 -9 83
v 36 -12 92
v 40 -9 86
v 40 -9 85
v 34 -9 81
v 29 -19 84
v 30 -12 92
v 39 -19 86
v 30 -16 92
v 29 -19 82
v 39 -19 85
v 36 -16 92
v 40 -7 37
v 41 -16 29
v 41 -8 29
v 38 -20 49
v 38 -21 49
v 41 -21 49
v 42 -20 49
v 39 -21 49
v 39 -22 51
v 40 -8 29
v 34 -9 80
v 40 -9 82
v -37 -16 64
v -40 -21 59
v -36 -21 58
v -33 -16 64
v -33 -17 66
v -38 -17 66
v -37 -12 64
v -42 -17 56
v -43 -19 52
v -42 -22 51
v -39 -22 51
v -38 -17 55
v -38 -6 51
v -33 -12 64
v -33 -11 66
v -30 -19 81
v -40 -19 82
v -38 -11 66
v -35 -7 59
v -39 -7 60
v -42 -6 52
v -43 -6 46
v -43 -15 46
v -39 -19 52
v -39 -20 49
v -43 -20 49
v -42 -21 49
v -39 -21 49
v -40 -6 46
v -43 -7 37
v -43 -15 37
v -41 -15 37
v -40 -15 46
v -41 -7 37
v -41 -8 29
v -42 -8 29
v -42 -16 29
v -35 -9 83
v -41 -9 86
v -37 -12 92
v -31 -12 92
v -30 -19 84
v -30 -19 82
v -35 -9 81
v -41 -9 85
v -40 -19 86
v -37 -16 92
v -31 -16 92
v -40 -22 51
v -40 -21 49
v -35 -9 80
v -40 -19 85
v -41 -9 82

f 1 2 3
f 1 3 4
f 1 4 5
f 1 5 6
f 1 6 7
f 1 7 8
f 1 8 2
f 2 8 9
f 2 9 10
f 2 10 11
f 2 11 3
f 3 11 12
f 3 12 4
f 4 12 13
f 4 13 9
f 4 9 14
f 4 14 15
f 4 15 16
f 4 16 5
f 5 16 17
f 5 17 18
f 5 18 19
f 5 19 20
f 5 20 21
f 5 21 6
f 6 21 22
f 6 22 7
f 7 22 23
f 7 23 20
f 7 20 8
f 8 20 19
f 8 19 24
f 8 24 9
f 9 24 25
f 9 25 14
f 14 25 26
f 14 26 27
f 14 27 28
f 14 28 15
f 15 28 29
f 15 29 16
f 16 29 24
f 16 24 18
f 16 18 17
f 18 24 19
f 30 31 32
f 30 32 33
f 30 33 34
f 30 34 35
f 30 35 36
f 30 36 31
f 37 38 35
f 37 35 39
f 37 39 40
f 37 40 32
f 37 32 41
f 37 41 38
f 35 38 36
f 32 31 41
f 25 24 29
f 25 29 42
f 25 42 26
f 26 42 43
f 26 43 27
f 27 43 28
f 28 43 44
f 28 44 42
f 28 42 29
f 9 13 10
f 10 13 45
f 10 45 46
f 10 46 11
f 11 46 47
f 11 47 12
f 12 47 48
f 12 48 13
f 13 48 45
f 45 48 49
f 45 49 46
f 46 49 47
f 47 49 48
f 50 11 10
f 43 51 44
f 44 51 42
f 42 51 43
f 20 23 52
f 20 52 21
f 21 52 53
f 21 53 22
f 22 53 33
f 22 33 40
f 22 40 23
f 23 40 39
f 23 39 52
f 52 39 34
f 52 34 53
f 53 34 33
f 34 39 35
f 40 33 32
f 54 55 56
f 54 56 57
f 54 57 58
f 54 58 59
f 54 59 60
f 54 60 61
f 54 61 55
f 55 61 62
f 55 62 63
f 55 63 56
f 56 63 64
f 56 64 65
f 56 65 57
f 57 65 66
f 57 66 67
f 57 67 68
f 57 68 58
f 58 68 69
f 58 69 70
f 58 70 59
f 59 70 71
f 59 71 60
f 60 71 68
f 60 68 67
f 60 67 72
f 60 72 73
f 60 73 74
f 60 74 61
f 61 74 75
f 61 75 76
f 61 76 65
f 61 65 77
f 61 77 62
f 62 77 78
f 62 78 79
f 62 79 63
f 63 79 80
f 63 80 64
f 64 80 81
f 64 81 77
f 64 77 65
f 72 67 66
f 72 66 73
f 73 66 74
f 74 66 82
f 74 82 75
f 75 82 83
f 75 83 76
f 76 83 84
f 76 84 85
f 76 85 86
f 76 86 65
f 65 86 66
f 66 86 82
f 82 86 87
f 82 87 83
f 83 87 88
f 83 88 89
f 83 89 90
f 83 90 84
f 84 90 85
f 85 90 87
f 85 87 86
f 91 92 93
f 91 93 94
f 91 94 95
f 91 95 96
f 91 96 97
f 91 97 92
f 92 97 98
f 92 98 99
f 92 99 100
f 92 100 93
f 99 95 101
f 99 101 100
f 95 94 101
f 102 64 63
f 103 81 80
f 103 80 79
f 103 79 78
f 103 78 81
f 81 78 77
f 90 89 88
f 90 88 87
f 68 104 69
f 69 104 97
f 69 97 96
f 69 96 70
f 70 96 105
f 70 105 106
f 70 106 71
f 71 106 104
f 71 104 68
f 106 105 98
f 106 98 104
f 104 98 97
f 105 96 95
f 105 95 99
f 105 99 98
