# RS2 Model 23684
# Vertices: 123
# Faces: 221

v -3 -43 155
v -8 -42 158
v -9 -41 155
v -8 -42 153
v -4 -43 153
v -3 -42 151
v -1 -42 155
v -4 -42 158
v -3 -40 161
v -8 -40 161
v -11 -38 155
v -8 -42 151
v -8 -42 150
v -3 -42 150
v 0 -42 155
v 9 -41 155
v 7 -42 158
v 3 -43 155
v 8 -42 153
v 8 -42 151
v 11 -38 155
v 8 -40 161
v 4 -42 158
v 3 -40 161
v 1 -42 155
v 3 -42 151
v 4 -43 153
v 3 -42 150
v 8 -42 150
v 12 -38 155
v 8 -40 162
v -3 -40 162
v -8 -40 162
v -12 -38 155
v -9 -36 145
v -7 -39 145
v -5 -40 144
v -3 -42 147
v -2 -44 146
v -1 -45 148
v 0 -45 150
v 1 -45 148
v 3 -40 162
v 6 -37 163
v -6 -37 163
v -13 -31 162
v -13 -33 156
v -12 -31 153
v -9 -24 146
v -6 -27 139
v -2 -36 137
v -3 -39 139
v -3 -41 142
v 5 -40 144
v 3 -42 147
v 2 -44 146
v 0 -46 147
v 7 -39 145
v 9 -36 145
v 12 -31 153
v 13 -33 156
v 13 -31 162
v 0 -40 136
v 3 -39 139
v 2 -41 139
v -2 -41 139
v 2 -36 137
v 3 -41 142
v 6 -27 139
v -15 -24 167
v -20 -19 171
v -16 -24 167
v -13 -23 159
v -15 -20 166
v -20 -18 172
v -14 -31 161
v -14 -33 156
v -17 -20 166
v -16 -23 159
v -14 -29 157
v -13 -31 152
v -15 -26 153
v -12 -26 153
v -5 -15 150
v -5 -17 165
v 5 -15 150
v 5 -17 165
v 13 -23 159
v 12 -26 153
v 9 -24 146
v -18 -29 154
v 8 -34 171
v 8 -20 172
v 2 -25 175
v 2 -31 174
v -8 -34 171
v -8 -20 172
v -2 -25 175
v 0 -28 185
v -2 -31 174
v 15 -24 167
v 16 -24 167
v 20 -19 171
v 20 -18 172
v 15 -20 166
v 14 -31 161
v 17 -20 166
v 16 -23 159
v 15 -26 153
v 13 -31 152
v 14 -33 156
v 14 -29 157
v 18 -29 154
v -7 -40 164
v -11 -40 163
v 11 -40 163
v 5 -40 164
v 3 -42 156
v -6 -38 163
v -4 -42 147
v 7 -39 164
v -1 -42 158
v 11 -39 152

f 1 2 3
f 1 3 4
f 1 4 5
f 1 5 6
f 1 6 7
f 1 7 8
f 1 8 2
f 2 8 9
f 2 9 10
f 2 10 3
f 3 10 11
f 3 11 4
f 4 11 12
f 4 12 5
f 5 12 6
f 6 12 13
f 6 13 14
f 6 14 7
f 7 14 15
f 7 15 9
f 7 9 8
f 16 17 18
f 16 18 19
f 16 19 20
f 16 20 21
f 16 21 17
f 17 21 22
f 17 22 23
f 17 23 18
f 18 23 24
f 18 24 25
f 18 25 26
f 18 26 27
f 18 27 19
f 19 27 26
f 19 26 20
f 20 26 28
f 20 28 29
f 20 29 21
f 21 29 30
f 21 30 22
f 22 30 31
f 22 31 24
f 22 24 23
f 9 15 32
f 9 32 10
f 10 32 33
f 10 33 34
f 10 34 11
f 11 34 12
f 12 34 13
f 13 34 35
f 13 35 36
f 13 36 37
f 13 37 14
f 14 37 38
f 14 38 39
f 14 39 40
f 14 40 15
f 15 40 41
f 15 41 42
f 15 42 28
f 15 28 26
f 15 26 25
f 15 25 43
f 15 43 32
f 32 43 44
f 32 44 45
f 32 45 33
f 33 45 46
f 33 46 47
f 33 47 34
f 34 47 48
f 34 48 35
f 35 48 49
f 35 49 50
f 35 50 51
f 35 51 52
f 35 52 53
f 35 53 36
f 36 53 37
f 37 53 54
f 37 54 38
f 38 54 55
f 38 55 39
f 39 55 56
f 39 56 57
f 39 57 40
f 40 57 41
f 41 57 42
f 42 57 56
f 42 56 55
f 42 55 28
f 28 55 54
f 28 54 29
f 29 54 58
f 29 58 59
f 29 59 30
f 30 59 60
f 30 60 61
f 30 61 31
f 31 61 62
f 31 62 44
f 31 44 43
f 31 43 24
f 24 43 25
f 63 64 65
f 63 65 66
f 63 66 52
f 63 52 51
f 63 51 67
f 63 67 64
f 64 67 59
f 64 59 68
f 64 68 65
f 65 68 66
f 66 68 53
f 66 53 52
f 69 59 67
f 69 67 50
f 50 67 51
f 70 71 72
f 70 72 46
f 70 46 73
f 70 73 74
f 70 74 75
f 70 75 71
f 76 77 47
f 76 47 46
f 76 46 72
f 76 72 78
f 76 78 79
f 76 79 77
f 77 79 80
f 77 80 81
f 77 81 48
f 77 48 47
f 81 82 83
f 81 83 48
f 48 83 49
f 49 83 84
f 84 83 73
f 84 73 85
f 84 85 86
f 86 85 87
f 86 87 88
f 86 88 89
f 86 89 90
f 90 89 60
f 90 60 59
f 90 59 69
f 82 79 73
f 82 73 83
f 79 78 73
f 73 78 74
f 74 78 75
f 79 82 80
f 80 82 91
f 80 91 81
f 81 91 82
f 92 45 44
f 92 44 62
f 92 62 93
f 92 93 94
f 92 94 95
f 92 95 96
f 92 96 45
f 45 96 46
f 46 96 97
f 46 97 85
f 46 85 73
f 62 88 87
f 62 87 93
f 93 87 97
f 93 97 98
f 93 98 94
f 94 98 99
f 94 99 95
f 95 99 100
f 95 100 96
f 96 100 97
f 97 100 98
f 98 100 99
f 68 54 53
f 54 68 58
f 58 68 59
f 78 72 71
f 101 102 103
f 101 103 104
f 101 104 105
f 101 105 88
f 101 88 62
f 101 62 102
f 102 62 106
f 102 106 107
f 102 107 103
f 103 107 104
f 104 107 105
f 105 107 88
f 88 107 108
f 88 108 109
f 88 109 89
f 89 109 110
f 89 110 60
f 60 110 111
f 60 111 61
f 61 111 106
f 61 106 62
f 108 112 109
f 109 112 113
f 109 113 110
f 110 113 112
f 110 112 111
f 111 112 108
f 111 108 106
f 106 108 107
f 87 85 97
f 114 115 33
f 114 33 32
f 116 117 43
f 116 43 31
