# RS2 Model 23717
# Vertices: 103
# Faces: 148

v -74 -68 0
v -80 0 0
v -74 -68 10
v 22 -128 0
v 28 -86 0
v 28 -54 0
v 61 -32 0
v 64 15 0
v 59 33 0
v 28 42 0
v -74 60 0
v -74 60 10
v -80 0 10
v -85 0 17
v -79 -64 15
v -79 -68 13
v -79 -72 15
v 22 -128 10
v 28 -86 10
v 28 -54 10
v 61 -32 10
v 64 15 10
v 59 33 10
v 28 42 10
v -79 56 15
v -90 56 15
v -96 0 17
v -90 -64 15
v -90 -68 13
v -90 -72 15
v 17 -128 17
v 64 -128 10
v 59 -95 10
v -94 -64 0
v -102 0 0
v -94 56 0
v -90 60 13
v -94 60 0
v -90 64 15
v -94 64 0
v 0 128 0
v 6 128 17
v -79 64 15
v 17 128 17
v 22 128 10
v 28 74 10
v 61 96 10
v 64 128 10
v -94 -72 0
v 6 -128 17
v -94 -68 0
v 0 -128 0
v 64 -128 0
v 59 -95 0
v 28 74 0
v 22 128 0
v -79 60 13
v 61 96 0
v 64 128 0
v -24 -47 13
v -19 -45 13
v -24 -44 11
v -27 -43 11
v -28 -45 13
v -24 -49 11
v -18 -47 11
v -13 -38 11
v -21 -43 11
v -30 -47 11
v -34 -37 11
v -23 32 13
v -28 30 13
v -23 29 11
v -20 28 11
v -19 30 13
v -23 34 11
v -29 32 11
v -34 23 11
v -26 28 11
v -17 32 11
v -13 22 11
v -37 37 13
v -44 26 13
v -35 35 11
v -28 38 11
v -28 40 13
v -39 38 11
v -46 27 11
v -43 7 11
v -41 26 11
v -28 43 11
v -13 38 11
v -40 -53 13
v -29 -60 13
v -38 -51 11
v -41 -44 11
v -43 -44 13
v -41 -55 11
v -30 -62 11
v -10 -59 11
v -29 -57 11
v -46 -44 11
v -41 -29 11

f 1 2 3
f 1 3 4
f 1 4 5
f 1 5 6
f 1 6 2
f 2 6 7
f 2 7 8
f 2 8 9
f 2 9 10
f 2 10 11
f 2 11 12
f 2 12 13
f 2 13 3
f 3 13 14
f 3 14 15
f 3 15 16
f 3 16 17
f 3 17 18
f 3 18 19
f 3 19 20
f 3 20 13
f 13 20 21
f 13 21 22
f 13 22 23
f 13 23 24
f 13 24 12
f 13 12 25
f 13 25 14
f 14 25 26
f 14 26 27
f 14 27 15
f 15 27 28
f 15 28 29
f 15 29 16
f 16 29 30
f 16 30 17
f 17 30 31
f 17 31 18
f 18 32 33
f 18 33 19
f 34 28 35
f 35 28 27
f 35 27 36
f 36 27 26
f 36 26 37
f 36 37 38
f 38 37 39
f 38 39 40
f 40 39 41
f 41 39 42
f 42 39 43
f 42 43 44
f 44 43 12
f 44 12 45
f 45 12 46
f 45 46 47
f 45 47 48
f 49 50 30
f 49 30 29
f 49 29 51
f 51 29 28
f 51 28 34
f 31 30 50
f 50 49 52
f 4 53 54
f 4 54 5
f 5 54 33
f 5 33 19
f 5 19 6
f 6 19 20
f 6 20 7
f 7 20 21
f 7 21 8
f 8 21 22
f 8 22 9
f 9 22 23
f 9 23 10
f 10 23 24
f 10 24 55
f 10 55 11
f 11 55 56
f 11 56 12
f 12 56 45
f 54 53 32
f 54 32 33
f 4 3 18
f 24 46 12
f 25 12 57
f 25 57 26
f 26 57 37
f 37 57 43
f 37 43 39
f 57 12 43
f 58 59 56
f 58 56 55
f 58 55 46
f 58 46 47
f 58 47 59
f 59 47 48
f 55 24 46
f 60 61 62
f 60 62 63
f 60 63 64
f 60 64 65
f 60 65 66
f 60 66 61
f 61 66 67
f 61 67 68
f 61 68 62
f 69 64 70
f 70 64 63
f 64 69 65
f 71 72 73
f 71 73 74
f 71 74 75
f 71 75 76
f 71 76 77
f 71 77 72
f 72 77 78
f 72 78 79
f 72 79 73
f 80 75 81
f 81 75 74
f 75 80 76
f 82 83 84
f 82 84 85
f 82 85 86
f 82 86 87
f 82 87 88
f 82 88 83
f 83 88 89
f 83 89 90
f 83 90 84
f 91 86 92
f 92 86 85
f 86 91 87
f 93 94 95
f 93 95 96
f 93 96 97
f 93 97 98
f 93 98 99
f 93 99 94
f 94 99 100
f 94 100 101
f 94 101 95
f 102 97 103
f 103 97 96
f 97 102 98
