# RS2 Model 23713
# Vertices: 178
# Faces: 319

v 0 11 10
v 4 10 11
v 4 6 8
v 0 6 7
v -4 6 8
v -4 10 11
v 0 13 12
v 4 12 18
v 6 8 13
v 7 6 12
v 8 0 11
v 4 0 7
v 0 0 6
v -4 0 7
v -8 0 11
v -7 6 12
v -6 8 13
v -4 12 18
v -2 13 18
v 0 15 13
v 2 13 18
v 0 13 22
v 4 10 24
v 6 9 21
v 8 6 17
v 9 -1 17
v 5 -8 14
v 8 -8 9
v 8 -2 7
v 6 -2 6
v 4 -8 10
v 0 -9 9
v -4 -8 10
v -6 -2 6
v -8 -2 7
v -8 -8 9
v -5 -8 14
v -9 -1 17
v -8 6 17
v -6 9 21
v -4 10 24
v 0 15 21
v -2 15 17
v -2 18 13
v 0 18 10
v 2 18 13
v 2 15 17
v 0 11 25
v 4 6 26
v 7 6 23
v 8 -1 23
v 5 -9 19
v 5 -11 17
v 5 -12 14
v 4 -12 12
v 6 -8 8
v 7 -8 6
v 9 -8 7
v 9 -2 5
v 7 -3 4
v 1 6 27
v 1 -1 29
v 4 -2 28
v 4 -8 27
v 5 -8 22
v 5 -11 21
v 7 -10 22
v 7 -8 19
v 7 -10 16
v 7 -12 16
v 5 -13 19
v 4 -16 14
v 3 -19 8
v 0 -12 11
v 0 -8 28
v 0 -16 22
v 4 -15 22
v 7 -12 22
v 9 -11 20
v 9 -11 18
v 7 -14 19
v 0 -20 14
v 3 -19 14
v 2 -20 4
v 0 -18 8
v -3 -19 8
v -4 -12 12
v -6 -8 8
v -7 -3 4
v -9 -2 5
v -9 -8 7
v -7 -8 6
v -9 -5 2
v -9 -7 3
v 0 -21 4
v 0 -20 2
v -2 -20 4
v -3 -19 14
v -4 -16 14
v -5 -12 14
v -5 -11 17
v -5 -9 19
v -8 -1 23
v -7 6 23
v -4 6 26
v 0 7 27
v 0 7 29
v 1 6 29
v 1 1 31
v 0 -2 29
v -1 -1 29
v -4 -2 28
v -4 -8 27
v -4 -15 22
v 0 0 31
v -1 1 31
v -1 6 29
v -1 6 27
v -5 -8 22
v -5 -11 21
v -5 -13 19
v -7 -12 16
v -7 -10 16
v -7 -8 19
v -7 -10 22
v 1 8 31
v 1 4 33
v 1 -1 33
v 0 -2 32
v -1 -1 33
v -1 4 33
v -1 8 31
v 0 9 30
v 0 10 31
v 1 10 32
v 1 9 33
v 0 9 34
v 0 4 34
v 1 1 37
v 1 -4 35
v 0 -6 35
v -1 -4 35
v -1 1 37
v -1 9 33
v -1 10 32
v 0 1 38
v 0 17 17
v 0 19 18
v 2 18 21
v 0 18 24
v -2 18 21
v 0 18 15
v 0 23 12
v 0 24 19
v 9 -5 2
v 9 -7 3
v -9 -11 18
v -9 -11 20
v -7 -12 22
v -7 -14 19
v -12 -43 5
v 11 -34 45
v -17 32 -4
v 1 7 24
v 1 5 9
v 0 26 21
v 1 -9 22
v 0 3 15
v 1 3 47
v 25 27 -10
v -14 37 43
v 20 -39 -1
v -1 8 10
v -1 9 24
v 0 24 8
v 0 5 17
v -1 -7 25
v 1 13 36

f 1 2 3
f 1 3 4
f 1 4 5
f 1 5 6
f 1 6 7
f 1 7 2
f 2 7 8
f 2 8 9
f 2 9 10
f 2 10 3
f 3 10 11
f 3 11 12
f 3 12 4
f 4 12 13
f 4 13 14
f 4 14 5
f 5 14 15
f 5 15 16
f 5 16 6
f 6 16 17
f 6 17 18
f 6 18 7
f 7 18 19
f 7 19 20
f 7 20 21
f 7 21 8
f 8 21 22
f 8 22 23
f 8 23 24
f 8 24 25
f 8 25 9
f 9 25 10
f 10 25 26
f 10 26 11
f 11 26 27
f 11 27 28
f 11 28 29
f 11 29 30
f 11 30 12
f 12 30 31
f 12 31 13
f 13 31 32
f 13 32 33
f 13 33 14
f 14 33 34
f 14 34 15
f 15 34 35
f 15 35 36
f 15 36 37
f 15 37 38
f 15 38 16
f 16 38 39
f 16 39 17
f 17 39 18
f 18 39 40
f 18 40 41
f 18 41 22
f 18 22 19
f 19 22 42
f 19 42 43
f 19 43 20
f 20 43 44
f 20 44 45
f 20 45 46
f 20 46 47
f 20 47 21
f 21 47 42
f 21 42 22
f 22 48 23
f 23 48 49
f 23 49 50
f 23 50 24
f 24 50 25
f 25 50 26
f 26 50 51
f 26 51 52
f 26 52 27
f 27 52 53
f 27 53 54
f 27 54 55
f 27 55 31
f 27 31 28
f 28 31 56
f 28 56 57
f 28 57 58
f 28 58 29
f 29 58 59
f 29 59 30
f 30 59 60
f 30 60 56
f 30 56 31
f 49 48 61
f 49 61 62
f 49 62 63
f 49 63 50
f 50 63 51
f 51 63 64
f 51 64 65
f 51 65 52
f 52 65 66
f 52 66 67
f 52 67 68
f 52 68 69
f 52 69 53
f 53 69 70
f 53 70 71
f 53 71 54
f 54 71 72
f 54 72 73
f 54 73 55
f 55 73 74
f 55 74 32
f 55 32 31
f 64 75 76
f 64 76 77
f 64 77 65
f 65 77 66
f 66 77 71
f 66 71 78
f 66 78 67
f 67 78 79
f 67 79 68
f 68 79 80
f 68 80 69
f 69 80 70
f 70 80 81
f 70 81 71
f 71 81 78
f 78 81 79
f 79 81 80
f 63 62 75
f 63 75 64
f 77 76 82
f 77 82 83
f 77 83 71
f 71 83 72
f 72 83 73
f 73 83 84
f 73 84 85
f 73 85 74
f 74 85 86
f 74 86 87
f 74 87 32
f 32 87 33
f 33 87 37
f 33 37 36
f 33 36 88
f 33 88 34
f 34 88 89
f 34 89 90
f 34 90 35
f 35 90 91
f 35 91 36
f 36 91 92
f 36 92 88
f 88 92 89
f 89 92 93
f 89 93 90
f 90 93 94
f 90 94 91
f 91 94 92
f 92 94 93
f 83 82 95
f 83 95 84
f 84 95 96
f 84 96 85
f 85 96 97
f 85 97 86
f 86 97 98
f 86 98 99
f 86 99 100
f 86 100 87
f 87 100 37
f 37 100 101
f 37 101 102
f 37 102 38
f 38 102 103
f 38 103 104
f 38 104 39
f 39 104 40
f 40 104 41
f 41 104 105
f 41 105 48
f 41 48 22
f 61 48 106
f 61 106 107
f 61 107 108
f 61 108 62
f 62 108 109
f 62 109 110
f 62 110 75
f 75 110 111
f 75 111 112
f 75 112 113
f 75 113 76
f 76 113 114
f 76 114 82
f 82 114 98
f 82 98 95
f 95 98 97
f 95 97 96
f 110 109 115
f 110 115 116
f 110 116 111
f 111 116 117
f 111 117 118
f 111 118 105
f 111 105 112
f 112 105 104
f 112 104 103
f 112 103 113
f 113 103 119
f 113 119 114
f 114 119 120
f 114 120 121
f 114 121 98
f 98 121 99
f 99 121 100
f 100 121 101
f 101 121 122
f 101 122 123
f 101 123 102
f 102 123 124
f 102 124 125
f 102 125 120
f 102 120 119
f 102 119 103
f 109 108 126
f 109 126 127
f 109 127 128
f 109 128 115
f 115 128 129
f 115 129 130
f 115 130 116
f 116 130 131
f 116 131 132
f 116 132 117
f 117 132 133
f 117 133 107
f 117 107 118
f 118 107 106
f 118 106 48
f 118 48 105
f 108 107 133
f 108 133 126
f 126 133 134
f 126 134 135
f 126 135 127
f 127 135 136
f 127 136 137
f 127 137 138
f 127 138 139
f 127 139 128
f 128 139 140
f 128 140 129
f 129 140 141
f 129 141 142
f 129 142 130
f 130 142 143
f 130 143 131
f 131 143 138
f 131 138 137
f 131 137 144
f 131 144 145
f 131 145 132
f 132 145 134
f 132 134 133
f 139 138 146
f 139 146 140
f 140 146 141
f 141 146 142
f 142 146 143
f 143 146 138
f 136 135 134
f 136 134 137
f 137 134 144
f 144 134 145
f 47 147 148
f 47 148 149
f 47 149 42
f 42 149 150
f 42 150 151
f 42 151 43
f 43 151 148
f 43 148 147
f 43 147 152
f 43 152 44
f 44 152 153
f 44 153 45
f 45 153 46
f 46 153 152
f 46 152 47
f 47 152 147
f 149 148 154
f 149 154 150
f 150 154 151
f 151 154 148
f 56 60 57
f 57 60 155
f 57 155 156
f 57 156 58
f 58 156 59
f 59 156 155
f 59 155 60
f 123 122 157
f 123 157 124
f 124 157 158
f 124 158 125
f 125 158 159
f 125 159 120
f 120 159 121
f 121 159 160
f 121 160 122
f 122 160 157
f 157 160 158
f 158 160 159
f 161 162 163
f 164 165 166
f 167 168 169
