# RS2 Model 23797
# Vertices: 130
# Faces: 176

v 1 -8 0
v 64 42 0
v 1 -8 10
v -42 -64 0
v 18 -41 0
v 39 -10 0
v 53 1 0
v 64 0 0
v 53 1 10
v 64 0 10
v 64 -6 58
v 44 -14 52
v 64 3 164
v 46 -16 164
v 29 -3 200
v 64 19 203
v 30 -1 226
v 64 21 226
v -42 -64 10
v 0 -64 10
v 18 -51 10
v 18 -41 10
v -5 -9 15
v -47 -64 17
v -15 -3 15
v -58 -64 17
v -18 -1 0
v -64 -64 0
v 39 -10 10
v 64 42 10
v 21 -48 52
v -1 -2 15
v 64 47 17
v 64 58 17
v -10 4 15
v -13 0 13
v -3 -5 13
v -16 3 0
v -14 6 0
v 64 64 0
v 6 -64 58
v 18 -51 0
v 0 -64 0
v 24 -50 171
v -3 -64 164
v -19 -64 203
v 6 -39 197
v 5 -34 226
v 24 -3 226
v -21 -64 226
v 4 -42 226
v 28 -4 173
v 44 12 170
v 28 -4 172
v 5 -37 173
v 5 -37 175
v 28 -4 175
v 44 12 171
v 64 17 171
v 64 17 172
v 44 12 173
v 64 17 174
v -2 -44 173
v 5 -37 171
v -2 -44 171
v -17 -64 172
v -17 -64 174
v -2 -44 175
v -17 -64 171
v 34 -3 163
v 54 8 158
v 34 -3 162
v 14 -30 161
v 14 -30 163
v 34 -3 165
v 54 8 159
v 64 12 158
v 64 12 162
v 54 8 161
v 64 12 164
v -5 -49 162
v 14 -30 159
v -5 -49 160
v -12 -64 162
v -12 -64 164
v -5 -49 164
v -12 -64 158
v 30 -28 236
v 34 -64 236
v 47 -46 236
v 64 -10 236
v 64 -7 240
v 28 -26 240
v 10 -64 236
v 64 60 240
v 64 64 236
v -17 18 240
v -15 17 236
v 64 55 236
v 27 -25 236
v 64 -4 236
v 4 -64 236
v 7 -64 240
v -19 21 236
v -58 -64 240
v -55 -64 236
v 64 64 217
v -19 21 217
v -64 -64 236
v 51 -50 237
v 42 -64 237
v 58 -58 237
v 64 -52 237
v 64 -42 237
v 64 -38 241
v 49 -48 241
v 38 -64 241
v 47 -46 226
v 34 -64 226
v 30 -28 226
v 10 -64 226
v 52 -64 237
v 60 -64 244
v 62 -62 244
v 64 -60 244
v 64 -64 240
v 64 -34 236
v 64 -10 226
v 64 -34 226
v -64 -64 217

f 1 2 3
f 1 3 4
f 1 4 5
f 1 5 6
f 1 6 2
f 2 6 7
f 2 7 8
f 8 7 9
f 8 9 10
f 10 9 11
f 11 9 12
f 11 12 13
f 13 12 14
f 13 14 15
f 13 15 16
f 16 15 17
f 16 17 18
f 19 20 21
f 19 21 22
f 19 22 3
f 19 3 23
f 19 23 24
f 24 23 25
f 24 25 26
f 26 25 27
f 26 27 28
f 29 30 3
f 29 3 22
f 29 22 31
f 29 31 12
f 29 12 9
f 29 9 30
f 30 9 10
f 32 3 33
f 32 33 34
f 32 34 35
f 32 35 36
f 32 36 37
f 32 37 3
f 3 37 23
f 23 37 25
f 25 37 36
f 25 36 27
f 27 36 38
f 38 36 35
f 38 35 39
f 39 35 40
f 40 35 34
f 20 41 31
f 20 31 21
f 20 21 42
f 20 42 43
f 43 42 4
f 4 42 5
f 5 42 21
f 5 21 22
f 5 22 6
f 6 22 29
f 6 29 7
f 7 29 9
f 3 30 33
f 30 3 2
f 31 22 21
f 4 3 19
f 44 12 31
f 44 31 45
f 44 45 46
f 44 46 47
f 44 47 14
f 44 14 12
f 14 47 15
f 15 47 48
f 15 48 49
f 15 49 17
f 45 31 41
f 47 46 50
f 47 50 51
f 47 51 48
f 52 53 54
f 52 54 55
f 52 55 56
f 52 56 57
f 52 57 58
f 52 58 53
f 53 58 59
f 59 58 60
f 60 58 61
f 60 61 62
f 63 64 65
f 63 65 66
f 63 66 67
f 63 67 68
f 63 68 55
f 63 55 64
f 64 55 54
f 66 65 69
f 58 57 61
f 55 68 56
f 70 71 72
f 70 72 73
f 70 73 74
f 70 74 75
f 70 75 76
f 70 76 71
f 71 76 77
f 77 76 78
f 78 76 79
f 78 79 80
f 81 82 83
f 81 83 84
f 81 84 85
f 81 85 86
f 81 86 73
f 81 73 82
f 82 73 72
f 84 83 87
f 76 75 79
f 73 86 74
f 88 89 90
f 88 90 91
f 88 91 92
f 88 92 93
f 88 93 94
f 88 94 89
f 95 96 97
f 95 97 98
f 95 98 99
f 99 98 100
f 99 100 101
f 101 100 92
f 92 100 93
f 93 100 102
f 93 102 103
f 93 103 94
f 97 96 104
f 97 104 105
f 97 105 106
f 97 106 98
f 98 106 102
f 98 102 100
f 96 107 104
f 104 107 108
f 104 108 109
f 104 109 105
f 110 111 112
f 110 112 113
f 110 113 114
f 110 114 115
f 110 115 116
f 110 116 111
f 111 116 117
f 117 116 90
f 117 90 89
f 89 90 118
f 89 118 119
f 119 118 120
f 119 120 121
f 121 120 88
f 121 88 94
f 122 112 111
f 112 122 123
f 112 123 113
f 113 123 124
f 113 124 125
f 125 124 126
f 126 124 123
f 90 116 127
f 90 127 91
f 118 128 120
f 120 128 91
f 120 91 88
f 90 129 118
f 118 129 128
f 109 108 130
f 129 90 127
f 116 115 127
