# RS2 Model 23846
# Vertices: 23
# Faces: 29

v -39 5 0
v -42 64 0
v -39 5 10
v -42 -64 0
v -42 -64 10
v -45 0 15
v -47 -64 17
v -54 -1 15
v -58 -64 17
v -59 -1 0
v -64 -64 0
v 64 -64 10
v -42 64 10
v -47 64 17
v -45 8 15
v -44 5 13
v -53 4 13
v -58 3 0
v -55 7 15
v -60 8 0
v -64 64 0
v -58 64 17
v 64 64 10

f 1 2 3
f 1 3 4
f 4 3 5
f 5 3 6
f 5 6 7
f 7 6 8
f 7 8 9
f 9 8 10
f 9 10 11
f 3 5 12
f 3 12 13
f 3 13 14
f 3 14 15
f 3 15 16
f 3 16 6
f 6 16 8
f 8 16 17
f 8 17 10
f 10 17 18
f 18 17 19
f 18 19 20
f 20 19 21
f 21 19 22
f 22 19 15
f 22 15 14
f 17 16 15
f 17 15 19
f 3 2 13
f 13 12 23
