# RS2 Model 23859
# Vertices: 86
# Faces: 121

v 0 -64 240
v 64 64 240
v 0 64 0
v -64 0 0
v -64 -64 0
v 64 -64 240
v 64 -64 0
v 64 64 0
v -27 53 14
v -38 61 3
v -39 55 3
v -34 48 3
v -30 48 3
v -24 52 3
v -26 65 3
v -26 65 0
v -38 63 0
v -43 53 0
v -37 47 0
v -32 42 0
v -20 51 0
v -15 -31 194
v -5 -31 197
v -6 -31 192
v -9 -33 188
v -12 -37 190
v -13 -39 194
v -8 -37 203
v -7 -38 203
v -2 -32 198
v -2 -30 190
v -7 -33 187
v -12 -37 185
v -14 -43 194
v 20 27 125
v 12 4 159
v 20 0 161
v 28 27 124
v 15 31 100
v -5 20 102
v 3 17 127
v -1 6 143
v -4 -24 161
v 10 24 87
v -4 8 93
v 23 31 100
v -19 10 97
v -10 6 124
v -15 -3 131
v -16 -9 142
v -19 -9 134
v -15 -23 140
v -24 -4 121
v -30 -33 127
v -30 -7 111
v -33 -23 97
v -27 5 98
v -20 -2 80
v -25 7 90
v -22 8 103
v 18 26 147
v 19 21 160
v 21 22 163
v 23 29 153
v 28 34 152
v 29 35 149
v 38 37 167
v 37 37 167
v 30 27 176
v 32 25 185
v 23 22 171
v 18 16 171
v 25 32 168
v -24 19 35
v -23 14 48
v -21 15 51
v -19 22 41
v -14 27 40
v -13 28 37
v -4 30 55
v -5 30 55
v -12 20 64
v -10 18 73
v -19 15 59
v -24 9 59
v -17 25 56

f 1 2 3
f 1 3 4
f 1 4 5
f 1 5 6
f 1 6 2
f 2 6 7
f 2 7 8
f 2 8 3
f 9 10 11
f 9 11 12
f 9 12 13
f 9 13 14
f 9 14 15
f 9 15 10
f 10 15 16
f 10 16 17
f 10 17 18
f 10 18 11
f 11 18 12
f 12 18 19
f 12 19 20
f 12 20 13
f 13 20 21
f 13 21 14
f 14 21 16
f 14 16 15
f 22 23 24
f 22 24 25
f 22 25 26
f 22 26 27
f 22 27 28
f 22 28 23
f 23 28 29
f 23 29 30
f 23 30 31
f 23 31 24
f 24 31 25
f 25 31 32
f 25 32 33
f 25 33 26
f 26 33 34
f 26 34 27
f 27 34 29
f 27 29 28
f 35 36 37
f 35 37 38
f 35 38 39
f 35 39 40
f 35 40 41
f 35 41 42
f 35 42 36
f 36 42 43
f 36 43 37
f 44 45 40
f 44 40 39
f 44 39 46
f 46 39 38
f 45 47 40
f 40 47 48
f 40 48 41
f 41 48 42
f 42 48 49
f 42 49 50
f 42 50 43
f 43 50 51
f 43 51 52
f 52 51 53
f 52 53 54
f 54 53 55
f 54 55 56
f 56 55 57
f 56 57 58
f 58 57 59
f 58 59 45
f 45 59 47
f 47 59 60
f 47 60 48
f 48 60 49
f 49 60 53
f 49 53 51
f 49 51 50
f 53 60 57
f 53 57 55
f 60 59 57
f 61 62 63
f 61 63 64
f 61 64 65
f 61 65 66
f 66 65 67
f 67 65 68
f 67 68 69
f 67 69 70
f 70 69 71
f 70 71 72
f 72 71 63
f 72 63 62
f 73 65 64
f 73 64 63
f 73 63 71
f 73 71 69
f 73 69 68
f 73 68 65
f 74 75 76
f 74 76 77
f 74 77 78
f 74 78 79
f 79 78 80
f 80 78 81
f 80 81 82
f 80 82 83
f 83 82 84
f 83 84 85
f 85 84 76
f 85 76 75
f 86 78 77
f 86 77 76
f 86 76 84
f 86 84 82
f 86 82 81
f 86 81 78
f 5 7 6
