# RS2 Model 23874
# Vertices: 122
# Faces: 228

v 2 7 145
v 2 7 141
v -2 7 141
v -2 7 145
v -2 6 150
v 2 6 150
v 7 2 151
v 9 3 146
v 9 3 142
v 2 6 137
v -2 6 137
v -10 2 138
v -9 3 142
v -9 3 146
v -7 2 151
v -2 3 155
v 2 3 155
v 4 1 155
v 6 -3 157
v 11 -4 152
v 13 -5 148
v 13 -6 144
v 13 -6 140
v 10 1 138
v 2 8 135
v -2 8 135
v -12 3 136
v -13 -6 140
v -13 -6 144
v -13 -5 148
v -11 -4 152
v -4 1 155
v -2 -2 159
v 2 -2 159
v 6 -7 158
v 11 -8 153
v 13 -9 148
v 12 -12 145
v 13 -10 142
v 15 -5 138
v 12 2 136
v -3 -20 149
v -2 -20 146
v 2 -20 146
v 3 -20 149
v -2 -18 153
v -8 -14 153
v -9 -16 149
v -9 -17 146
v -13 -9 148
v -12 -12 145
v -13 -10 142
v -12 -10 142
v -12 -7 144
v -12 -7 140
v -8 2 142
v -9 1 138
v -1 5 137
v -1 6 141
v 1 5 137
v 1 6 141
v 9 0 138
v 8 2 142
v 12 -7 144
v 12 -7 140
v 12 -10 142
v 15 -10 139
v 14 -6 138
v 14 -10 139
v 11 1 136
v 1 7 135
v -1 7 135
v -11 2 136
v -14 -6 138
v -14 -10 139
v -15 -5 138
v -15 -10 139
v 2 -18 153
v 2 -12 158
v -2 -12 158
v -6 -10 158
v -6 -7 158
v -11 -8 153
v -6 -3 157
v -2 -6 160
v 2 -6 160
v 6 -10 158
v 8 -14 153
v 9 -16 149
v 9 -17 146
v 3 -24 157
v -3 -24 157
v 6 -24 154
v 6 -24 148
v 7 -31 155
v 4 -31 158
v -4 -31 158
v -6 -24 154
v -6 -24 148
v -3 -24 145
v 3 -24 145
v 6 -45 142
v 9 -45 145
v 8 -38 146
v 5 -38 143
v -6 -45 142
v -5 -38 143
v -9 -45 145
v -8 -38 146
v -9 -45 157
v -8 -38 156
v -6 -45 160
v -5 -38 159
v 6 -45 160
v 5 -38 159
v 9 -45 157
v 8 -38 156
v 7 -31 147
v 4 -31 144
v -4 -31 144
v -7 -31 147
v -7 -31 155

f 1 2 3
f 1 3 4
f 1 4 5
f 1 5 6
f 1 6 7
f 1 7 8
f 1 8 2
f 2 8 9
f 2 9 10
f 2 10 11
f 2 11 3
f 3 11 12
f 3 12 13
f 3 13 4
f 4 13 14
f 4 14 5
f 5 14 15
f 5 15 16
f 5 16 6
f 6 16 17
f 6 17 18
f 6 18 7
f 7 18 19
f 7 19 20
f 7 20 8
f 8 20 21
f 8 21 9
f 9 21 22
f 9 22 23
f 9 23 24
f 9 24 10
f 10 24 25
f 10 25 26
f 10 26 11
f 11 26 27
f 11 27 12
f 12 27 28
f 12 28 29
f 12 29 13
f 13 29 14
f 14 29 30
f 14 30 15
f 15 30 31
f 15 31 32
f 15 32 16
f 16 32 33
f 16 33 17
f 17 33 34
f 17 34 18
f 18 34 19
f 19 34 35
f 19 35 36
f 19 36 20
f 20 36 37
f 20 37 21
f 21 37 22
f 22 37 38
f 22 38 39
f 22 39 23
f 23 39 40
f 23 40 24
f 24 40 41
f 24 41 25
f 42 43 44
f 42 44 45
f 42 45 46
f 42 46 47
f 42 47 48
f 42 48 43
f 43 48 49
f 49 48 50
f 49 50 51
f 51 50 30
f 51 30 29
f 51 29 28
f 51 28 52
f 51 52 53
f 51 53 54
f 54 53 55
f 54 55 56
f 56 55 57
f 56 57 58
f 56 58 59
f 59 58 60
f 59 60 61
f 61 60 62
f 61 62 63
f 63 62 64
f 64 62 65
f 64 65 38
f 38 65 66
f 38 66 39
f 39 66 67
f 39 67 40
f 40 67 68
f 68 67 69
f 68 69 65
f 68 65 70
f 70 65 62
f 70 62 60
f 70 60 71
f 71 60 58
f 71 58 72
f 72 58 57
f 72 57 73
f 73 57 74
f 74 57 55
f 74 55 53
f 74 53 75
f 74 75 76
f 76 75 77
f 76 77 28
f 76 28 27
f 46 78 79
f 46 79 80
f 46 80 81
f 46 81 47
f 47 81 82
f 47 82 83
f 47 83 48
f 48 83 50
f 50 83 30
f 30 83 31
f 31 83 82
f 31 82 84
f 31 84 32
f 32 84 33
f 33 84 85
f 33 85 86
f 33 86 34
f 34 86 35
f 35 86 87
f 35 87 36
f 36 87 88
f 36 88 37
f 37 88 89
f 37 89 38
f 38 89 90
f 90 89 45
f 90 45 44
f 85 80 79
f 85 79 86
f 86 79 87
f 87 79 88
f 88 79 78
f 88 78 89
f 89 78 45
f 45 78 46
f 46 78 91
f 46 91 92
f 46 92 78
f 78 92 91
f 78 91 93
f 78 93 45
f 78 45 94
f 78 94 93
f 78 93 91
f 91 93 95
f 91 95 96
f 91 96 92
f 92 96 97
f 92 97 98
f 92 98 46
f 92 46 98
f 98 46 99
f 98 99 42
f 98 42 46
f 46 42 99
f 99 42 100
f 99 100 42
f 42 100 45
f 42 45 101
f 42 101 100
f 100 101 45
f 45 101 94
f 45 94 101
f 94 45 93
f 84 82 85
f 85 82 81
f 85 81 80
f 28 77 52
f 52 77 75
f 52 75 53
f 65 69 66
f 66 69 67
f 102 103 104
f 102 104 105
f 102 105 106
f 106 105 107
f 106 107 108
f 108 107 109
f 108 109 110
f 110 109 111
f 110 111 112
f 112 111 113
f 112 113 114
f 114 113 115
f 114 115 116
f 116 115 117
f 116 117 103
f 103 117 104
f 104 117 95
f 104 95 118
f 104 118 105
f 105 118 119
f 105 119 107
f 107 119 120
f 107 120 109
f 109 120 121
f 109 121 111
f 111 121 122
f 111 122 113
f 113 122 97
f 113 97 115
f 115 97 96
f 115 96 117
f 117 96 95
f 93 94 118
f 93 118 95
f 94 101 119
f 94 119 118
f 101 100 120
f 101 120 119
f 100 99 121
f 100 121 120
f 99 98 122
f 99 122 121
f 98 97 122
