# RS2 Model 23918
# Vertices: 184
# Faces: 356

v 17 -9 153
v 22 -8 153
v 28 2 156
v 19 2 160
v 19 10 155
v 22 10 154
v 18 2 142
v 25 11 144
v 20 1 136
v 26 -6 137
v 25 -8 146
v 32 1 138
v 33 1 147
v 27 -6 129
v 35 1 129
v 26 9 130
v 26 9 137
v 22 1 125
v 29 -5 124
v 36 1 120
v 27 7 125
v 31 -5 113
v 37 2 114
v 28 8 119
v 25 1 119
v 31 8 113
v 25 0 112
v 22 -7 111
v 32 -10 113
v 40 -1 115
v 39 6 114
v 31 12 113
v 22 5 111
v 22 5 106
v 22 -7 106
v 32 -10 107
v 40 -2 107
v 40 7 108
v 31 12 108
v 32 10 100
v 26 4 98
v 26 -5 98
v 27 -7 101
v 26 -8 104
v 30 -10 105
v 33 -8 99
v 38 -1 99
v 38 6 100
v 41 8 93
v 34 13 93
v 23 5 91
v 23 -9 91
v 27 -9 94
v 28 -7 96
v 30 -9 102
v 29 -10 102
v 26 -10 102
v 26 -10 103
v 29 -11 104
v 35 -11 92
v 42 -2 92
v 40 1 88
v 40 4 89
v 34 10 90
v 25 4 88
v 25 -7 88
v 32 -11 94
v 30 -11 95
v 28 -10 95
v 28 -9 97
v 32 -9 98
v 30 -10 98
v 35 -8 88
v 34 -5 89
v 39 3 89
v 33 7 89
v 27 3 88
v 27 -5 88
v 27 -4 82
v 35 -5 83
v 40 1 83
v 39 5 83
v 35 8 84
v 27 4 83
v 29 4 78
v 30 -2 78
v 36 -3 78
v 40 2 79
v 39 5 79
v 35 9 79
v 38 5 77
v 34 -1 76
v -17 -9 153
v -19 2 160
v -28 2 156
v -22 -8 153
v -18 2 142
v -25 -8 146
v -26 -6 137
v -20 1 136
v -25 11 144
v -22 10 154
v -19 10 155
v -32 1 138
v -33 1 147
v -26 9 137
v -26 9 130
v -35 1 129
v -27 -6 129
v -22 1 125
v -36 1 120
v -29 -5 124
v -25 1 119
v -27 7 125
v -28 8 119
v -37 2 114
v -31 -5 113
v -25 0 112
v -31 8 113
v -39 6 114
v -40 -1 115
v -32 -10 113
v -22 -7 111
v -22 5 111
v -31 12 113
v -40 7 108
v -40 -2 107
v -32 -10 107
v -22 -7 106
v -22 5 106
v -31 12 108
v -38 6 100
v -38 -1 99
v -33 -8 99
v -30 -10 105
v -26 -8 104
v -27 -7 101
v -26 -5 98
v -26 4 98
v -32 10 100
v -41 8 93
v -42 -2 92
v -35 -11 92
v -32 -9 98
v -28 -7 96
v -30 -9 102
v -29 -11 104
v -26 -10 103
v -26 -10 102
v -29 -10 102
v -34 13 93
v -40 4 89
v -40 1 88
v -35 -8 88
v -25 -7 88
v -23 -9 91
v -32 -11 94
v -30 -10 98
v -28 -9 97
v -28 -10 95
v -27 -9 94
v -23 5 91
v -34 10 90
v -39 3 89
v -34 -5 89
v -27 -5 88
v -27 3 88
v -25 4 88
v -30 -11 95
v -33 7 89
v -35 8 84
v -39 5 83
v -40 1 83
v -35 -5 83
v -27 -4 82
v -27 4 83
v -40 2 79
v -36 -3 78
v -30 -2 78
v -29 4 78
v -35 9 79
v -39 5 79
v -38 5 77
v -34 -1 76

f 1 2 3
f 1 3 4
f 4 3 5
f 5 3 6
f 5 6 7
f 7 6 8
f 7 8 9
f 7 9 10
f 7 10 11
f 7 11 2
f 7 2 1
f 12 13 11
f 12 11 10
f 12 10 14
f 12 14 15
f 12 15 16
f 12 16 17
f 12 17 8
f 12 8 13
f 13 8 6
f 13 6 3
f 13 3 2
f 13 2 11
f 9 8 17
f 9 17 18
f 9 18 14
f 9 14 10
f 15 19 20
f 15 20 21
f 15 21 16
f 16 21 18
f 16 18 17
f 14 18 19
f 14 19 15
f 20 22 23
f 20 23 24
f 20 24 21
f 21 24 25
f 21 25 18
f 18 25 19
f 19 25 22
f 19 22 20
f 24 23 26
f 24 26 25
f 25 26 27
f 25 27 22
f 22 27 28
f 22 28 29
f 22 29 23
f 23 29 30
f 23 30 31
f 23 31 26
f 26 31 32
f 26 32 27
f 27 32 33
f 27 33 28
f 28 33 34
f 28 34 35
f 28 35 29
f 29 35 36
f 29 36 30
f 30 36 37
f 30 37 31
f 31 37 38
f 31 38 32
f 32 38 39
f 32 39 33
f 33 39 34
f 34 39 40
f 34 40 41
f 34 41 35
f 35 41 42
f 35 42 43
f 35 43 44
f 35 44 36
f 36 44 45
f 36 45 46
f 36 46 37
f 37 46 47
f 37 47 38
f 38 47 48
f 38 48 39
f 39 48 40
f 40 48 49
f 40 49 50
f 40 50 41
f 41 50 51
f 41 51 42
f 42 51 52
f 42 52 53
f 42 53 54
f 42 54 46
f 42 46 55
f 42 55 43
f 43 55 56
f 43 56 57
f 43 57 44
f 44 57 58
f 44 58 45
f 45 58 59
f 45 59 55
f 45 55 46
f 47 46 60
f 47 60 61
f 47 61 48
f 48 61 49
f 49 61 62
f 49 62 63
f 49 63 50
f 50 63 64
f 50 64 51
f 51 64 65
f 51 65 52
f 52 65 66
f 52 66 60
f 52 60 67
f 52 67 53
f 53 67 68
f 53 68 69
f 53 69 54
f 54 69 70
f 54 70 71
f 54 71 46
f 46 71 60
f 60 71 67
f 67 71 72
f 67 72 68
f 68 72 69
f 69 72 70
f 70 72 71
f 61 60 73
f 61 73 62
f 62 73 74
f 62 74 75
f 62 75 63
f 63 75 64
f 64 75 76
f 64 76 65
f 65 76 77
f 65 77 66
f 66 77 78
f 66 78 73
f 66 73 60
f 59 58 57
f 59 57 56
f 59 56 55
f 73 78 74
f 74 78 79
f 74 79 80
f 74 80 75
f 75 80 81
f 75 81 82
f 75 82 83
f 75 83 76
f 76 83 77
f 77 83 84
f 77 84 78
f 78 84 79
f 79 84 85
f 79 85 86
f 79 86 80
f 80 86 87
f 80 87 81
f 81 87 88
f 81 88 89
f 81 89 82
f 82 89 90
f 82 90 83
f 83 90 84
f 84 90 85
f 85 90 91
f 85 91 92
f 85 92 86
f 86 92 87
f 87 92 88
f 88 92 91
f 88 91 89
f 89 91 90
f 93 94 95
f 93 95 96
f 93 96 97
f 97 96 98
f 97 98 99
f 97 99 100
f 97 100 101
f 97 101 102
f 97 102 103
f 103 102 95
f 103 95 94
f 104 99 98
f 104 98 105
f 104 105 101
f 104 101 106
f 104 106 107
f 104 107 108
f 104 108 109
f 104 109 99
f 99 109 100
f 100 109 110
f 100 110 106
f 100 106 101
f 108 111 112
f 108 112 109
f 109 112 110
f 110 112 113
f 110 113 114
f 110 114 107
f 110 107 106
f 107 114 108
f 108 114 111
f 111 114 115
f 111 115 116
f 111 116 117
f 111 117 112
f 112 117 113
f 113 117 118
f 113 118 119
f 113 119 115
f 113 115 114
f 115 119 116
f 116 119 120
f 116 120 121
f 116 121 122
f 116 122 117
f 117 122 123
f 117 123 118
f 118 123 124
f 118 124 125
f 118 125 119
f 119 125 120
f 120 125 126
f 120 126 127
f 120 127 121
f 121 127 128
f 121 128 122
f 122 128 129
f 122 129 123
f 123 129 130
f 123 130 124
f 124 130 131
f 124 131 125
f 125 131 126
f 126 131 132
f 126 132 133
f 126 133 127
f 127 133 134
f 127 134 128
f 128 134 135
f 128 135 136
f 128 136 129
f 129 136 137
f 129 137 138
f 129 138 139
f 129 139 130
f 130 139 140
f 130 140 131
f 131 140 132
f 132 140 141
f 132 141 142
f 132 142 133
f 133 142 143
f 133 143 134
f 134 143 144
f 134 144 145
f 134 145 138
f 134 138 146
f 134 146 135
f 135 146 147
f 135 147 148
f 135 148 136
f 136 148 149
f 136 149 137
f 137 149 150
f 137 150 146
f 137 146 138
f 140 151 141
f 141 151 152
f 141 152 153
f 141 153 142
f 142 153 154
f 142 154 143
f 143 154 155
f 143 155 156
f 143 156 157
f 143 157 144
f 144 157 158
f 144 158 159
f 144 159 145
f 145 159 160
f 145 160 161
f 145 161 138
f 138 161 156
f 138 156 162
f 138 162 139
f 139 162 151
f 139 151 140
f 151 163 152
f 152 163 164
f 152 164 153
f 153 164 165
f 153 165 154
f 154 165 166
f 154 166 155
f 155 166 167
f 155 167 168
f 155 168 156
f 156 168 162
f 162 168 163
f 162 163 151
f 156 161 157
f 157 161 169
f 157 169 158
f 158 169 160
f 158 160 159
f 161 160 169
f 147 150 149
f 147 149 148
f 146 150 147
f 168 167 170
f 168 170 163
f 163 170 164
f 164 170 171
f 164 171 172
f 164 172 173
f 164 173 174
f 164 174 165
f 165 174 175
f 165 175 166
f 166 175 176
f 166 176 167
f 167 176 171
f 167 171 170
f 173 177 178
f 173 178 174
f 174 178 179
f 174 179 175
f 175 179 180
f 175 180 176
f 176 180 181
f 176 181 171
f 171 181 172
f 172 181 182
f 172 182 173
f 173 182 177
f 177 182 183
f 177 183 184
f 177 184 178
f 178 184 179
f 179 184 180
f 180 184 183
f 180 183 181
f 181 183 182
f 105 98 96
f 105 96 95
f 105 95 102
f 105 102 101
