# RS2 Model 23913
# Vertices: 58
# Faces: 100

v -21 45 41
v -1 54 41
v -10 54 19
v -46 33 32
v -37 29 49
v -10 45 65
v 12 45 65
v 23 45 41
v 12 54 19
v 20 36 7
v -18 36 7
v -34 13 15
v -49 29 44
v -43 13 68
v -21 22 89
v -1 37 85
v 23 22 89
v 40 29 49
v 48 33 32
v 52 13 15
v 44 3 24
v 56 -17 32
v 44 -11 27
v 40 -28 35
v 32 -48 41
v 32 -34 50
v 40 -14 44
v 52 9 38
v 48 -20 52
v 32 -53 44
v 12 -56 44
v 12 -42 53
v 44 6 61
v 23 -8 89
v -30 -53 44
v -1 -56 49
v -13 -53 65
v -46 -5 68
v -46 -17 32
v -37 -28 35
v -30 -48 41
v -10 -56 44
v 16 -53 65
v -1 -24 85
v -21 -8 89
v -62 22 41
v -62 0 61
v -62 -8 35
v -43 3 24
v -43 -11 27
v -1 6 93
v -62 9 24
v -34 13 -4
v -46 -5 -17
v -46 9 -34
v -34 29 -21
v -34 37 -29
v -46 33 -40

f 1 2 3
f 1 3 4
f 1 4 5
f 1 5 6
f 1 6 2
f 2 6 7
f 2 7 8
f 2 8 9
f 2 9 3
f 3 9 10
f 3 10 11
f 3 11 4
f 4 11 12
f 4 12 13
f 4 13 5
f 5 13 14
f 5 14 15
f 5 15 6
f 6 15 16
f 6 16 7
f 7 16 17
f 7 17 18
f 7 18 8
f 8 18 19
f 8 19 9
f 9 19 10
f 10 19 20
f 10 20 21
f 21 20 22
f 21 22 23
f 23 22 24
f 24 22 25
f 24 25 26
f 24 26 27
f 20 19 28
f 20 28 22
f 22 28 29
f 22 29 30
f 22 30 25
f 25 30 31
f 25 31 32
f 25 32 26
f 33 28 18
f 33 18 17
f 33 17 34
f 33 34 29
f 33 29 28
f 28 19 18
f 35 36 37
f 35 37 38
f 35 38 39
f 35 39 40
f 35 40 41
f 35 41 42
f 35 42 36
f 36 42 31
f 36 31 30
f 36 30 43
f 36 43 37
f 37 43 44
f 37 44 45
f 37 45 38
f 38 45 14
f 38 14 13
f 38 13 46
f 38 46 47
f 38 47 39
f 39 47 48
f 39 48 12
f 39 12 49
f 39 49 50
f 39 50 40
f 44 43 34
f 44 34 51
f 44 51 45
f 45 51 15
f 45 15 14
f 30 29 43
f 43 29 34
f 16 51 17
f 17 51 34
f 16 15 51
f 12 11 49
f 52 48 46
f 52 46 13
f 52 13 12
f 52 12 48
f 46 48 47
f 39 12 53
f 39 53 54
f 39 54 12
f 12 54 53
f 53 54 55
f 53 55 56
f 53 56 54
f 54 56 55
f 55 56 57
f 55 57 58
f 55 58 56
f 56 58 57
