# RS2 Model 23938
# Vertices: 154
# Faces: 264

v 11 -9 79
v 1 -1 72
v 8 0 95
v 10 0 95
v 14 -10 88
v 15 13 97
v 18 -12 67
v 16 -13 67
v 17 -15 57
v 20 -14 57
v 28 0 57
v 26 1 69
v 24 1 82
v 16 -11 77
v 15 -11 77
v 1 -16 67
v 2 -18 57
v -1 23 71
v 1 23 71
v 2 24 58
v -2 24 58
v -17 19 71
v -16 17 84
v 0 21 84
v 1 21 84
v 17 19 71
v 19 20 58
v 18 18 71
v 21 19 58
v 12 -12 106
v 18 1 106
v 18 0 111
v 13 -12 111
v 4 -15 110
v 4 -14 106
v 11 -10 105
v 16 1 105
v 11 7 106
v 12 8 107
v 10 9 112
v 16 0 112
v 12 -11 112
v 0 -14 111
v 0 -15 110
v 0 -14 106
v 0 -13 105
v 0 -13 100
v 12 -10 100
v 18 1 101
v 13 10 101
v 0 10 106
v 0 11 107
v 0 11 112
v 9 8 113
v 20 -3 77
v 10 8 56
v 12 9 72
v 1 -3 58
v 9 -11 57
v 17 -2 57
v 16 -2 46
v 8 7 47
v 3 -2 47
v 8 -9 46
v 8 9 32
v 17 -2 32
v 9 8 15
v 2 -2 34
v 8 -10 32
v 9 -8 15
v 16 -2 14
v 4 -2 14
v -11 -9 79
v -10 0 95
v -8 0 95
v -1 -1 72
v -15 13 97
v -17 17 84
v -21 1 94
v -18 1 100
v -13 10 102
v 0 17 97
v -25 1 82
v -16 -11 77
v -14 -10 88
v -13 -10 96
v -16 1 105
v -11 7 106
v 0 13 102
v 16 17 84
v -18 0 111
v -18 1 106
v -12 -12 106
v -11 -12 111
v -16 0 112
v -10 9 112
v -12 8 107
v -11 -10 105
v -4 -14 106
v -4 -15 110
v -10 -11 112
v 21 1 94
v -20 -3 77
v -12 9 72
v -10 8 56
v -17 -2 57
v -9 -11 57
v -1 -3 58
v -3 -2 47
v -8 9 47
v -16 -2 46
v -8 -9 46
v -8 9 32
v -2 -2 34
v -9 8 15
v -17 -2 32
v -8 -10 32
v -16 -2 14
v -9 -8 15
v -4 -2 14
v 0 10 113
v -9 8 113
v -6 -13 105
v -16 -13 67
v -17 -15 57
v -2 -18 57
v -1 -16 67
v -15 -11 77
v -18 -12 67
v -20 -14 57
v -28 0 57
v -27 1 69
v -21 19 58
v -18 18 71
v -19 20 58
v 0 -14 88
v 0 -15 77
v 1 -15 77
v -2 -13 102
v -4 -12 97
v -7 -12 93
v -12 -11 93
v -13 -13 97
v -10 -11 92
v -10 -15 96
v -9 -16 100
v -12 -12 102
v -12 -10 100
v -8 -15 103
v -6 -15 97
v -4 -15 102
v 2 -14 99
v -9 -11 110
v -7 -10 87

f 1 2 3
f 1 3 4
f 4 3 5
f 3 4 6
f 7 8 9
f 7 9 10
f 7 10 11
f 7 11 12
f 7 12 13
f 7 13 14
f 7 14 15
f 7 15 8
f 8 15 16
f 8 16 17
f 8 17 9
f 18 19 20
f 18 20 21
f 18 21 22
f 18 22 23
f 18 23 24
f 18 24 25
f 18 25 19
f 19 25 26
f 19 26 20
f 20 26 27
f 27 26 28
f 27 28 29
f 29 28 12
f 29 12 11
f 30 31 32
f 30 32 33
f 30 33 34
f 30 34 35
f 30 35 36
f 30 36 31
f 31 36 37
f 31 37 38
f 31 38 39
f 31 39 32
f 32 39 40
f 32 40 41
f 32 41 33
f 33 41 42
f 33 42 34
f 34 42 43
f 34 43 44
f 34 44 35
f 35 44 45
f 35 45 36
f 36 45 46
f 36 46 47
f 36 47 48
f 36 48 37
f 37 48 49
f 37 49 38
f 38 49 50
f 38 50 51
f 38 51 39
f 39 51 52
f 39 52 40
f 40 52 53
f 40 53 54
f 40 54 41
f 55 56 57
f 57 56 58
f 57 58 2
f 2 58 59
f 2 59 1
f 1 59 55
f 55 59 60
f 55 60 56
f 56 60 61
f 56 61 62
f 56 62 63
f 56 63 58
f 58 63 59
f 59 63 64
f 59 64 61
f 59 61 60
f 65 62 61
f 65 61 66
f 65 66 67
f 65 67 68
f 65 68 62
f 62 68 63
f 63 68 69
f 63 69 64
f 64 69 61
f 61 69 66
f 66 69 70
f 66 70 71
f 66 71 67
f 67 72 68
f 68 72 69
f 69 72 70
f 73 74 75
f 73 75 76
f 77 23 78
f 77 78 79
f 77 79 80
f 77 80 81
f 77 81 82
f 77 82 24
f 77 24 23
f 78 83 79
f 79 83 84
f 79 84 85
f 79 85 80
f 80 85 86
f 80 86 87
f 80 87 81
f 81 87 88
f 81 88 89
f 81 89 82
f 82 89 6
f 82 6 90
f 82 90 25
f 82 25 24
f 74 85 75
f 74 75 77
f 91 92 93
f 91 93 94
f 91 94 95
f 91 95 96
f 91 96 97
f 91 97 92
f 92 97 88
f 92 88 87
f 92 87 98
f 92 98 93
f 93 98 99
f 93 99 94
f 94 99 100
f 94 100 101
f 94 101 95
f 96 53 52
f 96 52 97
f 97 52 51
f 97 51 88
f 88 51 89
f 89 51 50
f 89 50 6
f 6 50 102
f 6 102 90
f 90 102 13
f 90 13 28
f 90 28 26
f 90 26 25
f 99 45 44
f 99 44 100
f 100 44 43
f 100 43 101
f 103 104 105
f 103 105 106
f 103 106 107
f 103 107 73
f 73 107 76
f 76 107 108
f 76 108 104
f 104 108 105
f 105 108 109
f 105 109 110
f 105 110 111
f 105 111 106
f 106 111 107
f 107 111 112
f 107 112 109
f 107 109 108
f 113 111 110
f 113 110 114
f 113 114 115
f 113 115 116
f 113 116 111
f 111 116 117
f 111 117 112
f 112 117 109
f 109 117 114
f 109 114 110
f 116 115 118
f 116 118 119
f 116 119 117
f 117 119 120
f 117 120 114
f 114 120 115
f 54 53 121
f 121 53 122
f 122 53 96
f 122 96 95
f 99 123 46
f 99 46 45
f 124 125 126
f 124 126 127
f 124 127 128
f 124 128 84
f 124 84 129
f 124 129 125
f 125 129 130
f 130 129 131
f 131 129 132
f 131 132 133
f 133 132 134
f 133 134 22
f 133 22 135
f 135 22 21
f 136 137 138
f 136 138 5
f 136 5 48
f 136 48 47
f 136 47 139
f 136 139 140
f 136 140 141
f 136 141 85
f 136 85 137
f 137 85 128
f 137 128 127
f 137 127 16
f 137 16 138
f 138 16 15
f 138 15 5
f 5 15 14
f 5 14 102
f 5 102 49
f 5 49 48
f 142 143 86
f 142 86 85
f 142 85 144
f 142 144 143
f 143 144 145
f 143 145 146
f 143 146 147
f 143 147 86
f 86 147 148
f 86 148 87
f 87 148 98
f 98 148 147
f 98 147 149
f 98 149 123
f 98 123 99
f 145 144 141
f 145 141 150
f 145 150 146
f 146 150 149
f 146 149 147
f 149 150 151
f 149 151 123
f 123 151 46
f 46 151 139
f 46 139 47
f 141 140 150
f 150 140 151
f 151 140 139
f 13 12 28
f 127 126 17
f 127 17 16
f 23 22 134
f 23 134 78
f 78 134 83
f 83 134 132
f 83 132 129
f 83 129 84
f 102 14 13
f 85 84 128
f 85 141 144
f 50 49 102
