# RS2 Model 23993
# Vertices: 48
# Faces: 40

v -12 -33 25
v -14 -64 0
v -8 -56 22
v 64 -59 25
v 64 -33 25
v 64 -63 0
v -64 -63 0
v -17 -64 0
v -18 -60 24
v -64 -59 25
v -64 -33 25
v -18 -32 25
v 39 -32 25
v 37 -1 54
v 38 -33 55
v -64 -32 25
v -64 -33 54
v -64 0 54
v 42 -32 25
v 64 -32 25
v 64 -33 54
v 42 -31 49
v 42 0 54
v 64 0 54
v -15 30 80
v -15 0 54
v -10 4 74
v 64 5 79
v 64 30 80
v 64 1 54
v -64 1 54
v -18 1 54
v -19 4 78
v -64 5 79
v -64 30 80
v -19 30 80
v 31 31 80
v 33 62 108
v 29 36 106
v -64 31 80
v -64 34 108
v -64 62 108
v 38 62 108
v 36 32 80
v 38 37 105
v 64 34 108
v 64 62 108
v 64 31 80

f 1 2 3
f 1 3 4
f 1 4 5
f 2 6 4
f 2 4 3
f 7 8 9
f 7 9 10
f 10 9 11
f 11 9 12
f 12 9 8
f 13 14 15
f 13 15 16
f 16 15 17
f 17 15 18
f 18 15 14
f 19 20 21
f 19 21 22
f 19 22 23
f 23 22 21
f 23 21 24
f 25 26 27
f 25 27 28
f 25 28 29
f 26 30 28
f 26 28 27
f 31 32 33
f 31 33 34
f 34 33 35
f 35 33 36
f 36 33 32
f 37 38 39
f 37 39 40
f 40 39 41
f 41 39 42
f 42 39 38
f 43 44 45
f 43 45 46
f 43 46 47
f 44 48 46
f 44 46 45
