# RS2 Model 24027
# Vertices: 143
# Faces: 167

v -7 -19 25
v -2 -19 25
v -6 -18 28
v 10 -12 33
v 8 -12 34
v 3 -19 25
v 8 -19 25
v -7 -18 24
v 8 -18 24
v 17 8 24
v 8 18 24
v 8 18 13
v -7 -17 13
v 8 -17 13
v 17 -7 24
v 18 -7 13
v 18 8 13
v 15 6 4
v 6 14 5
v -5 -13 5
v 6 -13 4
v 0 0 1
v 15 -5 4
v -5 -12 34
v -8 -17 24
v 7 18 13
v 7 18 24
v 4 13 34
v -5 13 34
v -12 -5 34
v -17 -7 24
v -18 -7 13
v -8 -17 13
v 5 14 4
v -8 18 13
v -8 18 24
v -6 -13 4
v -1 0 1
v -6 14 4
v -18 8 13
v -17 8 24
v -12 6 34
v -14 6 4
v -14 -5 4
v 0 20 18
v 3 20 18
v 4 20 14
v -1 20 13
v -2 20 18
v -5 20 18
v -7 20 21
v -3 20 23
v -9 19 26
v -5 19 27
v -11 13 32
v -9 13 33
v 1 20 23
v 5 20 21
v 5 17 30
v 6 19 26
v 0 18 9
v -2 18 9
v -6 20 14
v -10 -16 26
v -9 -15 29
v -13 -10 33
v -12 -10 32
v -20 1 18
v -20 4 18
v -20 5 14
v -20 0 13
v -20 -1 18
v -20 -4 18
v -20 -6 21
v -20 -2 23
v -19 -8 26
v -19 -4 27
v -13 -8 33
v -20 2 23
v -20 6 21
v -19 4 27
v -19 8 26
v -13 10 33
v -13 10 32
v -18 1 9
v -18 -1 9
v -20 -5 14
v -4 -12 35
v 5 13 35
v 8 18 25
v -7 -17 25
v 5 -12 35
v 0 0 43
v -11 -5 35
v -4 13 35
v 12 6 35
v 17 8 25
v 8 -17 25
v 12 -5 35
v 17 -7 25
v -11 6 35
v 8 18 26
v 7 16 30
v 9 12 33
v 9 12 32
v -1 -19 18
v -4 -19 18
v -5 -19 14
v 0 -19 13
v 1 -19 18
v 4 -19 18
v 6 -19 21
v 2 -19 24
v 8 -19 24
v -2 -19 24
v -6 -19 21
v -7 -19 24
v -1 -17 9
v 1 -17 9
v 5 -19 14
v 19 0 18
v 19 -3 18
v 19 -4 14
v 19 1 13
v 19 2 18
v 19 5 18
v 19 7 21
v 18 4 24
v 18 8 24
v 18 -1 24
v 19 -5 21
v 18 -7 24
v 17 0 9
v 17 2 9
v 19 6 14
v 19 -7 25
v 19 -2 25
v 13 -9 34
v 13 -9 33
v 13 11 33
v 13 9 34
v 19 4 25
v 19 8 25

f 1 2 3
f 4 5 6
f 4 6 7
f 8 9 10
f 8 10 11
f 8 11 12
f 8 12 13
f 8 13 9
f 9 13 14
f 9 14 15
f 9 15 10
f 10 15 16
f 10 16 17
f 10 17 11
f 11 17 12
f 12 17 18
f 12 18 19
f 12 19 13
f 13 19 20
f 13 20 14
f 14 20 21
f 14 21 16
f 14 16 15
f 22 20 19
f 22 19 18
f 22 18 23
f 22 23 21
f 22 21 20
f 24 25 26
f 24 26 27
f 24 27 28
f 24 28 29
f 24 29 30
f 24 30 31
f 24 31 25
f 25 31 32
f 25 32 33
f 25 33 34
f 25 34 26
f 26 34 35
f 26 35 36
f 26 36 27
f 27 36 29
f 27 29 28
f 34 33 37
f 34 37 38
f 34 38 39
f 34 39 35
f 35 39 40
f 35 40 41
f 35 41 36
f 36 41 42
f 36 42 29
f 29 42 30
f 30 42 41
f 30 41 31
f 31 41 40
f 31 40 32
f 32 40 43
f 32 43 44
f 32 44 33
f 33 44 37
f 37 44 38
f 38 44 43
f 38 43 39
f 39 43 40
f 45 46 47
f 45 47 48
f 45 48 49
f 49 48 50
f 49 50 51
f 49 51 52
f 52 51 53
f 52 53 54
f 54 53 55
f 54 55 56
f 46 45 57
f 46 57 58
f 58 57 59
f 58 59 60
f 48 47 61
f 48 61 62
f 48 62 63
f 48 63 50
f 64 65 66
f 64 66 67
f 68 69 70
f 68 70 71
f 68 71 72
f 72 71 73
f 72 73 74
f 72 74 75
f 75 74 76
f 75 76 77
f 77 76 67
f 77 67 78
f 69 68 79
f 69 79 80
f 80 79 81
f 80 81 82
f 82 81 83
f 82 83 84
f 71 70 85
f 71 85 86
f 71 86 87
f 71 87 73
f 88 89 90
f 88 90 91
f 88 91 92
f 88 92 93
f 88 93 94
f 88 94 89
f 89 94 95
f 89 95 93
f 89 93 96
f 89 96 97
f 89 97 90
f 90 97 98
f 90 98 91
f 91 98 92
f 92 98 99
f 92 99 93
f 93 99 96
f 96 99 100
f 96 100 97
f 97 100 98
f 98 100 99
f 94 101 95
f 95 101 93
f 93 101 94
f 102 103 104
f 102 104 105
f 21 23 16
f 16 23 17
f 17 23 18
f 106 107 108
f 106 108 109
f 106 109 110
f 110 109 111
f 110 111 112
f 110 112 113
f 113 112 114
f 107 106 115
f 107 115 116
f 116 115 117
f 109 108 118
f 109 118 119
f 109 119 120
f 109 120 111
f 121 122 123
f 121 123 124
f 121 124 125
f 125 124 126
f 125 126 127
f 125 127 128
f 128 127 129
f 122 121 130
f 122 130 131
f 131 130 132
f 124 123 133
f 124 133 134
f 124 134 135
f 124 135 126
f 136 137 138
f 136 138 139
f 140 141 142
f 140 142 143
