# RS2 Model 24022
# Vertices: 78
# Faces: 140

v 41 2 38
v 32 -2 38
v 32 -6 38
v 41 -1 38
v 32 -3 35
v 29 3 38
v 30 -3 41
v 30 -6 40
v 26 -6 38
v 26 -3 35
v 26 -2 38
v 28 -3 41
v 28 -6 40
v 17 2 38
v 17 -1 38
v 29 -7 40
v 28 -7 38
v 28 -10 38
v 29 -10 41
v 30 -7 38
v 30 -10 38
v 29 -11 38
v 27 8 42
v 31 8 42
v -16 1 38
v -25 -3 38
v -25 -7 38
v -16 -2 38
v -25 -4 35
v -28 2 38
v -27 -4 41
v -27 -7 40
v -31 -7 38
v -31 -4 35
v -31 -3 38
v -29 -4 41
v -29 -7 40
v -40 1 38
v -40 -2 38
v -28 -8 40
v -29 -8 38
v -29 -11 38
v -28 -11 41
v -27 -8 38
v -27 -11 38
v -28 -12 38
v -30 7 42
v -26 7 42
v 3 -30 39
v -1 -30 39
v -2 -30 35
v 4 -30 35
v 10 -29 39
v 3 -28 39
v 1 -29 45
v -1 -28 39
v -8 -29 39
v -2 -28 35
v -4 -29 29
v 1 -30 32
v 6 -29 29
v 4 -28 35
v 1 -28 32
v 3 22 39
v -1 22 39
v -2 22 35
v 4 22 35
v 10 23 39
v 3 24 39
v 1 23 45
v -1 24 39
v -8 23 39
v -2 24 35
v -4 23 29
v 1 22 32
v 6 23 29
v 4 24 35
v 1 24 32

f 1 2 3
f 1 3 4
f 1 4 2
f 2 4 3
f 2 3 5
f 2 5 6
f 2 6 7
f 2 7 8
f 2 8 3
f 3 8 9
f 3 9 10
f 3 10 5
f 5 10 6
f 6 10 11
f 6 11 12
f 6 12 7
f 7 12 13
f 7 13 8
f 8 13 9
f 9 13 12
f 9 12 11
f 9 11 10
f 11 9 14
f 11 14 15
f 11 15 9
f 9 15 14
f 16 8 13
f 16 13 17
f 16 17 18
f 16 18 19
f 16 19 20
f 16 20 3
f 16 3 8
f 17 13 9
f 17 9 20
f 17 20 21
f 17 21 18
f 18 21 22
f 18 22 19
f 19 22 21
f 19 21 20
f 20 9 3
f 6 23 24
f 6 24 23
f 25 26 27
f 25 27 28
f 25 28 26
f 26 28 27
f 26 27 29
f 26 29 30
f 26 30 31
f 26 31 32
f 26 32 27
f 27 32 33
f 27 33 34
f 27 34 29
f 29 34 30
f 30 34 35
f 30 35 36
f 30 36 31
f 31 36 37
f 31 37 32
f 32 37 33
f 33 37 36
f 33 36 35
f 33 35 34
f 35 33 38
f 35 38 39
f 35 39 33
f 33 39 38
f 40 32 37
f 40 37 41
f 40 41 42
f 40 42 43
f 40 43 44
f 40 44 27
f 40 27 32
f 41 37 33
f 41 33 44
f 41 44 45
f 41 45 42
f 42 45 46
f 42 46 43
f 43 46 45
f 43 45 44
f 44 33 27
f 30 47 48
f 30 48 47
f 49 50 51
f 49 51 52
f 49 52 53
f 49 53 54
f 49 54 55
f 49 55 50
f 50 55 56
f 50 56 57
f 50 57 51
f 51 57 58
f 51 58 59
f 51 59 60
f 51 60 52
f 52 60 61
f 52 61 62
f 52 62 53
f 53 62 54
f 54 62 56
f 54 56 55
f 62 58 56
f 56 58 57
f 63 58 62
f 63 62 61
f 63 61 60
f 63 60 59
f 63 59 58
f 64 65 66
f 64 66 67
f 64 67 68
f 64 68 69
f 64 69 70
f 64 70 65
f 65 70 71
f 65 71 72
f 65 72 66
f 66 72 73
f 66 73 74
f 66 74 75
f 66 75 67
f 67 75 76
f 67 76 77
f 67 77 68
f 68 77 69
f 69 77 71
f 69 71 70
f 77 73 71
f 71 73 72
f 78 73 77
f 78 77 76
f 78 76 75
f 78 75 74
f 78 74 73
