# RS2 Model 24078
# Vertices: 187
# Faces: 331

v -53 27 129
v -53 22 127
v -53 20 122
v -53 32 127
v -53 34 122
v -53 32 117
v -53 27 115
v -53 22 117
v -53 2 115
v -53 16 115
v -53 9 129
v -53 -35 115
v -53 -21 115
v -53 -21 129
v -53 -35 129
v -53 48 126
v -53 46 129
v -53 44 126
v -53 42 122
v -53 50 122
v -53 53 126
v -53 44 118
v -53 48 118
v -53 39 118
v -53 46 115
v -53 39 126
v -53 53 118
v -54 59 58
v -58 59 58
v -58 60 0
v -54 60 0
v -54 63 58
v -54 63 62
v -54 59 62
v -54 46 61
v -54 46 57
v -58 46 57
v -58 59 62
v -58 63 58
v -58 64 0
v -54 64 0
v -58 63 62
v -58 61 106
v -54 61 106
v -54 57 106
v -58 46 61
v -54 29 62
v -54 29 58
v -58 29 58
v -58 57 106
v -58 57 138
v -58 61 138
v -54 61 138
v -54 57 138
v -54 30 138
v -54 30 106
v -54 26 138
v -54 26 106
v -54 25 62
v -58 30 106
v -58 29 62
v -58 26 106
v -58 30 138
v -54 25 58
v -58 25 58
v -58 25 0
v -54 25 0
v -54 3 63
v -54 3 59
v -58 3 59
v -58 25 62
v -58 29 0
v -54 29 0
v -54 -10 58
v -58 -10 58
v -58 -12 0
v -54 -12 0
v -54 -6 58
v -54 -6 62
v -54 -10 62
v -54 -41 62
v -54 -41 58
v -58 -41 58
v -58 -10 62
v -58 -6 58
v -58 -8 0
v -54 -8 0
v -58 -6 62
v -58 3 63
v -58 -7 106
v -54 -7 106
v -54 -11 106
v -58 -41 62
v -58 -40 106
v -54 -40 106
v -54 -45 62
v -54 -45 58
v -54 -44 0
v -54 -40 0
v -58 -40 0
v -58 -45 58
v -58 -45 62
v -58 -44 0
v -54 -44 106
v -58 -44 106
v -58 -44 138
v -58 -40 138
v -58 -11 138
v -58 -11 106
v -58 -7 138
v -54 -40 138
v -54 -44 138
v -54 -45 196
v -58 -45 196
v -58 -41 196
v -54 -11 138
v -54 -10 196
v -58 -10 196
v -58 -6 196
v -54 -7 138
v -58 26 138
v -58 25 196
v -58 29 196
v -54 59 196
v -58 59 196
v -58 63 196
v -54 63 196
v -54 63 200
v -54 59 200
v -54 46 199
v -54 46 195
v -58 46 195
v -58 59 200
v -58 63 200
v -58 61 222
v -54 61 222
v -54 57 222
v -58 46 199
v -54 29 200
v -54 29 196
v -54 25 196
v -54 25 200
v -54 3 201
v -54 3 197
v -58 3 197
v -58 25 200
v -58 29 200
v -58 30 222
v -54 30 222
v -54 26 222
v -58 3 201
v -54 -6 200
v -54 -6 196
v -54 -10 200
v -54 -41 200
v -54 -41 196
v -58 -10 200
v -58 -6 200
v -58 -7 222
v -54 -7 222
v -54 -11 222
v -58 -41 200
v -58 -40 222
v -54 -40 222
v -54 -45 200
v -58 -45 200
v -58 57 222
v -56 59 229
v -58 26 222
v -56 28 229
v -58 -11 222
v -56 -9 229
v -54 -44 222
v -58 -44 222
v -56 -42 229
v -53 -11 124
v -53 -7 124
v -53 -7 129
v -53 -11 129
v -53 -11 115
v -53 -7 115
v -53 -7 120
v -53 -11 120
v -53 -16 124
v -53 -16 120
v -53 -2 120
v -53 -2 124

f 1 2 3
f 1 3 4
f 4 3 5
f 5 3 6
f 6 3 7
f 7 3 8
f 9 10 11
f 12 13 14
f 12 14 15
f 16 17 18
f 16 18 19
f 16 19 20
f 16 20 21
f 22 23 20
f 22 20 19
f 22 19 24
f 25 23 22
f 26 19 18
f 27 20 23
f 28 29 30
f 28 30 31
f 28 31 32
f 28 32 33
f 28 33 34
f 28 34 35
f 28 35 36
f 28 36 29
f 29 36 37
f 29 37 38
f 29 38 39
f 29 39 40
f 29 40 30
f 39 32 41
f 39 41 40
f 32 31 41
f 32 39 42
f 32 42 33
f 33 42 43
f 33 43 44
f 33 44 34
f 34 44 45
f 34 45 38
f 34 38 35
f 35 38 46
f 35 46 47
f 35 47 36
f 36 47 48
f 36 48 37
f 37 48 49
f 37 49 46
f 37 46 38
f 39 38 42
f 42 38 50
f 42 50 43
f 43 50 51
f 43 51 52
f 43 52 44
f 44 52 53
f 44 53 45
f 45 53 54
f 45 54 55
f 45 55 56
f 56 55 57
f 56 57 58
f 56 58 59
f 56 59 47
f 56 47 60
f 60 47 61
f 60 61 62
f 60 62 63
f 60 63 51
f 60 51 50
f 64 65 66
f 64 66 67
f 64 67 48
f 64 48 47
f 64 47 59
f 64 59 68
f 64 68 69
f 64 69 65
f 65 69 70
f 65 70 71
f 65 71 49
f 65 49 72
f 65 72 66
f 49 48 73
f 49 73 72
f 48 67 73
f 49 71 61
f 49 61 46
f 46 61 47
f 74 75 76
f 74 76 77
f 74 77 78
f 74 78 79
f 74 79 80
f 74 80 81
f 74 81 82
f 74 82 75
f 75 82 83
f 75 83 84
f 75 84 85
f 75 85 86
f 75 86 76
f 85 78 87
f 85 87 86
f 78 77 87
f 85 84 88
f 85 88 89
f 85 89 70
f 85 70 78
f 78 70 69
f 78 69 79
f 79 69 68
f 79 68 89
f 79 89 88
f 79 88 90
f 79 90 91
f 79 91 80
f 80 91 92
f 80 92 84
f 80 84 81
f 81 84 93
f 81 93 94
f 81 94 95
f 81 95 96
f 81 96 97
f 81 97 82
f 82 97 98
f 82 98 99
f 82 99 83
f 83 99 100
f 83 100 101
f 83 101 102
f 83 102 93
f 83 93 84
f 97 101 103
f 97 103 98
f 101 100 103
f 101 97 96
f 101 96 102
f 102 96 104
f 102 104 105
f 102 105 93
f 93 105 94
f 94 105 106
f 94 106 107
f 94 107 108
f 94 108 109
f 109 108 110
f 109 110 90
f 109 90 88
f 109 88 84
f 109 84 92
f 71 70 89
f 71 89 68
f 71 68 59
f 71 59 58
f 71 58 62
f 71 62 61
f 96 95 104
f 104 95 111
f 104 111 112
f 104 112 105
f 105 112 106
f 106 112 113
f 106 113 114
f 106 114 107
f 107 114 115
f 107 115 111
f 107 111 116
f 107 116 108
f 108 116 117
f 108 117 118
f 108 118 110
f 110 118 119
f 110 119 120
f 110 120 57
f 110 57 121
f 110 121 90
f 90 121 62
f 62 121 63
f 63 121 122
f 63 122 123
f 63 123 55
f 63 55 54
f 63 54 51
f 51 54 124
f 51 124 125
f 51 125 52
f 52 125 126
f 52 126 53
f 53 126 127
f 53 127 54
f 54 127 124
f 124 127 128
f 124 128 129
f 124 129 130
f 124 130 131
f 124 131 125
f 125 131 132
f 125 132 133
f 125 133 126
f 126 133 134
f 126 134 127
f 127 134 128
f 128 134 135
f 128 135 136
f 128 136 129
f 129 136 137
f 129 137 133
f 129 133 130
f 130 133 138
f 130 138 139
f 130 139 131
f 131 139 140
f 131 140 132
f 132 140 123
f 132 123 138
f 132 138 133
f 45 50 38
f 58 57 120
f 58 120 91
f 91 120 116
f 91 116 92
f 92 116 111
f 92 111 95
f 141 122 121
f 141 121 57
f 141 57 140
f 141 140 139
f 141 139 142
f 141 142 143
f 141 143 144
f 141 144 122
f 122 144 145
f 122 145 146
f 122 146 123
f 123 146 147
f 123 147 138
f 138 147 139
f 139 147 148
f 139 148 149
f 139 149 142
f 142 149 150
f 142 150 146
f 142 146 143
f 143 146 151
f 143 151 152
f 143 152 144
f 144 152 153
f 144 153 145
f 145 153 119
f 145 119 151
f 145 151 146
f 123 140 55
f 55 140 57
f 119 153 120
f 120 153 116
f 116 153 117
f 117 153 152
f 117 152 154
f 117 154 155
f 117 155 156
f 117 156 118
f 118 156 115
f 118 115 157
f 118 157 119
f 119 157 158
f 119 158 151
f 151 158 152
f 152 158 159
f 152 159 160
f 152 160 154
f 154 160 161
f 154 161 157
f 154 157 155
f 155 157 162
f 155 162 163
f 155 163 164
f 155 164 165
f 155 165 113
f 155 113 156
f 156 113 112
f 156 112 111
f 156 111 115
f 114 113 165
f 114 165 166
f 114 166 115
f 115 166 162
f 115 162 157
f 134 133 167
f 134 167 135
f 135 167 168
f 135 168 136
f 136 168 137
f 137 168 167
f 137 167 133
f 147 146 169
f 147 169 148
f 148 169 170
f 148 170 149
f 149 170 150
f 150 170 169
f 150 169 146
f 158 157 171
f 158 171 159
f 159 171 172
f 159 172 160
f 160 172 161
f 161 172 171
f 161 171 157
f 166 165 173
f 166 173 174
f 166 174 162
f 162 174 163
f 163 174 175
f 163 175 164
f 164 175 173
f 164 173 165
f 174 173 175
f 176 177 178
f 176 178 179
f 180 181 182
f 180 182 183
f 183 182 176
f 183 176 184
f 183 184 185
f 186 187 177
f 186 177 182
f 182 177 176
