# RS2 Model 24082
# Vertices: 40
# Faces: 60

v -30 37 10
v 2 37 10
v 2 24 0
v -30 24 0
v -46 27 22
v -46 10 47
v 18 27 22
v 18 15 13
v -46 15 13
v -46 -3 38
v -30 0 60
v 2 0 60
v 18 10 47
v 18 -3 38
v 2 -12 52
v -30 -12 52
v -36 5 27
v -29 5 27
v -38 -46 0
v -54 -46 0
v -36 1 33
v -54 -54 12
v -29 1 33
v -38 -54 12
v 2 -3 38
v -6 -3 38
v 2 -58 18
v 18 -58 18
v 2 2 31
v 18 -49 5
v -6 2 31
v 2 -49 5
v 19 -27 7
v 25 -32 7
v 63 12 15
v 50 22 15
v 18 -28 0
v 25 -33 0
v 62 10 0
v 49 20 0

f 1 2 3
f 1 3 4
f 1 4 5
f 1 5 6
f 1 6 2
f 2 6 7
f 2 7 8
f 2 8 3
f 3 8 4
f 4 8 9
f 4 9 5
f 5 9 6
f 6 9 10
f 6 10 11
f 6 11 12
f 6 12 13
f 6 13 7
f 7 13 14
f 7 14 8
f 8 14 10
f 8 10 9
f 13 12 15
f 13 15 14
f 14 15 16
f 14 16 10
f 10 16 11
f 11 16 12
f 12 16 15
f 17 18 19
f 17 19 20
f 17 20 21
f 21 20 22
f 21 22 23
f 23 22 24
f 23 24 18
f 18 24 19
f 19 24 20
f 20 24 22
f 25 26 27
f 25 27 28
f 25 28 29
f 29 28 30
f 29 30 31
f 31 30 32
f 31 32 26
f 26 32 27
f 27 32 28
f 28 32 30
f 33 34 35
f 33 35 36
f 33 36 37
f 33 37 38
f 33 38 34
f 34 38 39
f 34 39 35
f 35 39 36
f 36 39 40
f 36 40 37
f 37 40 38
f 38 40 39
