# RS2 Model 24118
# Vertices: 123
# Faces: 214

v -1 -28 4
v -16 -14 8
v -16 -14 4
v -1 -28 0
v 8 -20 4
v -6 -5 8
v -6 -5 4
v 8 -20 0
v 9 45 4
v 9 45 0
v -38 51 0
v -38 51 4
v 10 35 4
v 10 35 0
v -37 37 4
v -37 37 0
v -56 33 4
v -56 33 0
v -56 37 4
v -56 37 0
v -51 42 4
v -51 42 0
v -57 47 4
v -57 47 0
v -34 -22 4
v -28 -28 4
v -28 -28 0
v -34 -22 0
v -48 -59 4
v -48 -59 8
v -35 -56 8
v -35 -56 4
v -26 -2 95
v -38 -2 90
v -50 16 163
v -37 16 163
v -26 -18 95
v 28 -18 30
v 28 -2 30
v 8 -2 51
v -18 -2 82
v -25 -2 91
v -28 -2 89
v -21 -2 79
v -15 -2 71
v 28 -2 15
v -38 -18 90
v -50 0 163
v -37 0 163
v -28 -18 89
v -25 -18 91
v -18 -18 82
v 8 -18 51
v 15 -18 42
v 28 -18 15
v 46 -18 0
v 64 -18 0
v 64 -2 0
v 12 -2 39
v 15 -2 42
v 5 18 49
v 1 18 46
v 5 -2 49
v -8 -2 62
v -5 -2 65
v -12 -2 73
v -21 36 78
v -29 36 89
v -33 36 86
v -24 36 75
v -25 64 80
v -22 64 82
v -28 64 88
v -31 64 85
v -8 -18 62
v -15 -18 71
v -21 -18 79
v -32 -38 86
v -28 -38 89
v -20 -38 78
v -23 -38 75
v -12 -18 73
v -5 -18 65
v 5 -18 49
v 5 -38 49
v 13 -38 38
v 10 -38 35
v 12 -18 39
v -8 -38 62
v -14 -38 69
v -11 -38 72
v -5 -38 65
v -10 -64 52
v -14 -64 49
v -19 -64 55
v -16 -64 57
v -25 -64 80
v -31 -64 85
v -28 -64 88
v -22 -64 82
v 1 -38 46
v 9 -57 45
v 12 -57 48
v 16 -60 42
v 13 -60 40
v -8 31 62
v -5 31 65
v -11 31 72
v -14 31 69
v 10 18 35
v 13 18 38
v 16 40 42
v 12 37 48
v 9 37 45
v -19 64 55
v -14 64 49
v -16 64 57
v -10 64 52
v 13 40 40
v 46 -2 0
v -57 -5 163
v -29 -5 163
v -57 21 163

f 1 2 3
f 1 3 4
f 1 4 5
f 1 5 2
f 2 5 6
f 2 6 3
f 3 6 7
f 7 6 8
f 8 6 5
f 8 5 4
f 9 10 11
f 9 11 12
f 9 12 13
f 9 13 10
f 10 13 14
f 14 13 15
f 14 15 16
f 16 15 17
f 16 17 18
f 18 17 19
f 18 19 20
f 20 19 21
f 20 21 22
f 22 21 23
f 22 23 24
f 24 23 12
f 24 12 11
f 13 12 15
f 15 12 23
f 15 23 21
f 15 21 17
f 17 21 19
f 25 26 27
f 25 27 28
f 25 28 29
f 25 29 30
f 25 30 26
f 26 30 31
f 26 31 27
f 27 31 32
f 32 31 30
f 32 30 29
f 33 34 35
f 33 35 36
f 33 36 37
f 33 37 38
f 33 38 39
f 33 39 40
f 33 40 41
f 33 41 42
f 33 42 34
f 34 42 43
f 34 43 44
f 34 44 45
f 34 45 46
f 34 46 47
f 34 47 48
f 34 48 35
f 35 48 36
f 36 48 49
f 36 49 37
f 37 49 47
f 37 47 50
f 37 50 51
f 37 51 52
f 37 52 38
f 38 52 53
f 38 53 54
f 38 54 55
f 38 55 56
f 38 56 57
f 38 57 39
f 39 57 58
f 39 58 46
f 39 46 59
f 39 59 60
f 39 60 40
f 40 60 61
f 40 61 62
f 40 62 63
f 40 63 64
f 40 64 65
f 40 65 66
f 40 66 41
f 41 66 44
f 41 44 67
f 41 67 68
f 41 68 42
f 42 68 69
f 42 69 43
f 43 69 70
f 43 70 44
f 44 70 67
f 67 70 71
f 67 71 72
f 67 72 68
f 68 72 73
f 68 73 69
f 69 73 74
f 69 74 70
f 70 74 71
f 71 74 73
f 71 73 72
f 47 49 48
f 46 55 47
f 47 55 75
f 47 75 76
f 47 76 77
f 47 77 50
f 50 77 78
f 50 78 79
f 50 79 51
f 51 79 80
f 51 80 52
f 52 80 81
f 52 81 77
f 52 77 76
f 52 76 82
f 52 82 83
f 52 83 53
f 53 83 84
f 53 84 85
f 53 85 86
f 53 86 54
f 54 86 87
f 54 87 88
f 54 88 55
f 55 88 75
f 75 88 84
f 75 84 83
f 75 83 89
f 75 89 90
f 75 90 76
f 76 90 91
f 76 91 82
f 82 91 92
f 82 92 83
f 83 92 89
f 89 92 93
f 89 93 94
f 89 94 90
f 90 94 95
f 90 95 91
f 91 95 96
f 91 96 92
f 92 96 93
f 93 96 95
f 93 95 94
f 78 77 81
f 78 81 97
f 78 97 98
f 78 98 79
f 79 98 99
f 79 99 80
f 80 99 100
f 80 100 81
f 81 100 97
f 97 100 98
f 98 100 99
f 84 101 85
f 85 101 102
f 85 102 103
f 85 103 86
f 86 103 104
f 86 104 87
f 87 104 105
f 87 105 101
f 87 101 88
f 88 101 84
f 105 102 101
f 102 105 104
f 102 104 103
f 64 106 107
f 64 107 65
f 65 107 108
f 65 108 66
f 66 108 109
f 66 109 45
f 66 45 44
f 45 109 106
f 45 106 64
f 45 64 46
f 46 64 63
f 46 63 59
f 59 63 110
f 59 110 111
f 59 111 60
f 60 111 61
f 61 111 112
f 61 112 113
f 61 113 62
f 62 113 114
f 62 114 110
f 62 110 63
f 115 116 106
f 115 106 109
f 115 109 117
f 115 117 116
f 116 117 118
f 116 118 107
f 116 107 106
f 117 109 108
f 117 108 118
f 118 108 107
f 114 119 110
f 110 119 111
f 111 119 112
f 112 119 113
f 113 119 114
f 58 120 46
f 46 120 55
f 55 120 56
f 56 120 57
f 57 120 58
