# RS2 Model 24125
# Vertices: 549
# Faces: 533

v 250 238 0
v 10 226 0
v -225 -243 0
v 244 9 0
v 273 53 -2
v 296 -33 1
v 260 249 0
v 200 252 0
v 267 260 14
v 189 242 0
v 129 246 13
v 59 246 0
v -250 -65 -6
v -251 -132 -10
v -243 -228 -11
v -236 -254 0
v 280 -216 0
v 292 -226 10
v 281 -109 -5
v -241 -15 0
v -259 21 -1
v -274 -10 -4
v -273 211 0
v -286 220 25
v -287 171 9
v -293 111 6
v -282 5 2
v -263 -263 -15
v -112 -267 -14
v -136 -257 -13
v -94 -249 -2
v 28 -240 5
v -1 -250 -9
v -68 -267 -13
v 304 -235 -11
v 99 -40 0
v 95 -45 0
v 102 -45 0
v 170 -163 0
v 178 -154 0
v 173 -156 0
v -173 222 0
v -158 231 0
v -92 246 0
v -13 244 -6
v 44 251 0
v -299 230 13
v -137 243 0
v 165 249 31
v 146 247 31
v 199 242 0
v -269 -45 -8
v -261 -233 -9
v 50 -149 20
v 24 -157 20
v 25 -162 20
v 52 -154 20
v -85 47 12
v -112 58 12
v -112 53 12
v -85 42 12
v -131 41 12
v -131 37 12
v -149 54 12
v -149 49 12
v -173 40 12
v -173 35 12
v -197 55 12
v -197 50 12
v 233 -44 22
v 222 -38 22
v 200 -60 22
v 204 -62 22
v 196 -62 22
v 201 -66 22
v 222 -90 22
v 229 -81 22
v 169 -81 22
v 179 -87 22
v 179 -35 22
v 173 -44 22
v -133 23 12
v -158 9 12
v -157 5 12
v -132 18 12
v -110 5 12
v -111 9 12
v -91 19 12
v -92 24 12
v -65 6 12
v -66 11 12
v -43 25 12
v -43 29 12
v -71 -32 12
v -110 -22 12
v -110 -27 12
v -71 -37 12
v -139 -38 12
v -139 -43 12
v -167 -26 12
v -167 -31 12
v -202 -42 12
v -202 -47 12
v -237 -27 12
v -237 -32 12
v -234 112 12
v -260 98 12
v -259 93 12
v -234 107 12
v -212 92 12
v -212 97 12
v -193 107 12
v -193 112 12
v -167 95 12
v -167 100 12
v -144 113 12
v -145 118 12
v -143 170 12
v -166 180 12
v -165 175 12
v -142 165 12
v -181 164 12
v -181 159 12
v -198 177 12
v -198 172 12
v -218 163 12
v -218 158 12
v -239 179 12
v -239 174 12
v 225 106 9
v 202 115 9
v 202 111 9
v 225 102 9
v 185 101 9
v 185 97 9
v 168 112 9
v 169 108 9
v 147 99 9
v 147 95 9
v 125 112 9
v 125 108 9
v 188 50 9
v 165 58 9
v 165 54 9
v 188 46 9
v 147 45 9
v 147 41 9
v 131 55 9
v 132 51 9
v 110 43 9
v 110 39 9
v 88 56 9
v 88 51 9
v 3 -158 20
v -25 -162 20
v -24 -167 20
v 3 -163 20
v -60 -182 20
v -86 -193 20
v -83 -198 20
v -58 -187 20
v 80 -124 12
v 64 -145 12
v 68 -147 12
v 85 -128 12
v 96 -96 12
v 84 -108 12
v 88 -111 12
v 99 -99 12
v 129 -113 12
v 117 -103 12
v 114 -105 12
v 126 -116 12
v 168 -124 20
v 147 -124 20
v 147 -128 20
v 169 -130 20
v 190 -95 22
v 182 -112 22
v 188 -113 22
v 197 -96 22
v 93 -31 3
v 79 -29 19
v 81 -56 3
v 99 -40 3
v 102 -45 3
v 119 -30 3
v 121 -35 3
v 154 -2 3
v 151 1 3
v 164 16 3
v 162 21 3
v 190 28 3
v 189 33 3
v 200 46 3
v 199 51 3
v 222 61 3
v 221 66 3
v 240 92 3
v 235 94 3
v 239 126 3
v 234 128 3
v 223 149 3
v 219 147 3
v 224 178 3
v 221 175 3
v 235 213 3
v 231 211 3
v 235 238 3
v 231 238 3
v 99 -5 3
v 82 -5 19
v 66 -22 3
v 56 -61 3
v 37 -73 3
v 50 -79 19
v 92 -61 3
v 83 20 3
v 66 18 3
v 67 -3 3
v 69 28 3
v 41 46 19
v 48 16 3
v 80 43 3
v 50 61 3
v 61 79 3
v 36 94 19
v 17 61 3
v 11 47 3
v 16 35 3
v 87 84 3
v 88 96 3
v 104 110 3
v 122 122 3
v 16 125 19
v -40 99 3
v 10 80 3
v 98 71 3
v 114 66 3
v 123 84 3
v 105 96 3
v 138 143 3
v 159 147 3
v 22 201 19
v -112 124 3
v -87 100 3
v 161 170 3
v 155 187 3
v 166 203 3
v 181 216 3
v 170 228 3
v 178 235 3
v 10 226 3
v -154 209 3
v -130 199 3
v -123 170 3
v -103 158 3
v -115 140 3
v 67 -80 3
v 33 -92 3
v 66 -116 3
v -50 -179 19
v 55 -125 3
v 58 -132 3
v 78 -144 3
v 62 -131 3
v 80 -129 3
v 72 -116 3
v 97 -91 3
v 86 -79 3
v 107 -77 3
v 114 -102 3
v 119 -91 3
v 137 -123 3
v 141 -107 3
v 208 -128 19
v 149 -108 3
v 206 -83 24
v 160 -93 3
v 192 -61 19
v 144 -81 3
v 198 -44 19
v 143 -59 3
v 162 -43 3
v 163 -31 3
v 177 -16 3
v 198 -18 3
v 200 -24 3
v 212 -15 3
v 235 -13 3
v 227 -12 3
v 226 -8 3
v 241 -40 3
v 251 -70 3
v 241 -105 3
v 192 -187 19
v 237 -151 3
v 245 -187 3
v 229 -215 3
v 191 -218 3
v 156 -203 3
v 147 -185 3
v 157 -171 3
v 170 -163 3
v 173 -156 3
v 151 -153 3
v 131 -136 3
v 111 -112 3
v 101 -111 3
v 92 -138 3
v 99 -152 3
v 104 -204 3
v -225 -243 3
v -55 -234 3
v 113 -225 3
v -197 -95 3
v -218 -67 3
v -237 -65 3
v -168 -159 24
v -174 -111 3
v -151 -101 3
v -123 -76 3
v -89 -90 3
v -65 -92 3
v -55 -76 3
v -32 -61 3
v 5 -65 3
v -161 217 3
v 93 -31 1
v 87 -33 1
v 95 -45 1
v 99 -40 1
v 99 -5 1
v 93 -7 1
v 83 20 1
v 77 18 1
v 69 28 1
v 63 28 1
v 80 43 1
v 73 41 1
v 50 61 1
v 44 60 1
v 61 79 1
v 58 83 1
v 87 84 1
v 89 90 1
v 98 71 1
v 101 74 1
v 114 66 1
v 111 72 1
v 123 84 1
v 118 82 1
v 105 96 1
v 101 93 1
v 104 110 1
v 99 110 1
v 122 122 1
v 119 125 1
v 138 143 1
v 133 147 1
v 159 147 1
v 154 151 1
v 161 170 1
v 155 170 1
v 155 187 1
v 149 188 1
v 166 203 1
v 161 207 1
v 181 216 1
v 174 218 1
v 170 228 1
v 163 230 1
v 178 235 1
v 172 234 1
v 119 -30 1
v 102 -45 1
v 121 -35 1
v 154 -2 1
v 151 1 1
v 164 16 1
v 162 21 1
v 190 28 1
v 189 33 1
v 200 46 1
v 199 51 1
v 222 61 1
v 221 66 1
v 240 92 1
v 235 94 1
v 239 126 1
v 234 128 1
v 223 149 1
v 219 147 1
v 224 178 1
v 221 175 1
v 235 213 1
v 231 211 1
v 235 238 1
v 231 238 1
v 87 -58 1
v 92 -61 1
v 62 -78 1
v 67 -80 1
v 61 -114 1
v 66 -116 1
v 49 -128 1
v 55 -125 1
v 57 -137 1
v 58 -132 1
v 65 -134 1
v 62 -131 1
v 75 -120 1
v 72 -116 1
v 89 -83 1
v 86 -79 1
v 104 -81 1
v 107 -77 1
v 117 -95 1
v 119 -91 1
v 139 -112 1
v 141 -107 1
v 153 -111 1
v 149 -108 1
v 164 -92 1
v 160 -93 1
v 148 -80 1
v 144 -81 1
v 147 -61 1
v 143 -59 1
v 166 -45 1
v 162 -43 1
v 167 -33 1
v 163 -31 1
v 178 -20 1
v 177 -16 1
v 194 -21 1
v 198 -18 1
v 200 -28 1
v 200 -24 1
v 213 -19 1
v 212 -15 1
v 227 -12 1
v 226 -8 1
v 232 -16 1
v 235 -13 1
v 237 -42 1
v 241 -40 1
v 247 -73 1
v 251 -70 1
v 236 -104 1
v 241 -105 1
v 233 -150 1
v 237 -151 1
v 241 -188 1
v 245 -187 1
v 225 -212 1
v 229 -215 1
v 189 -215 1
v 191 -218 1
v 160 -200 1
v 156 -203 1
v 153 -185 1
v 147 -185 1
v 163 -170 1
v 157 -171 1
v 173 -167 1
v 170 -163 1
v 178 -154 1
v 173 -156 1
v 155 -151 1
v 151 -153 1
v 134 -134 1
v 131 -136 1
v 112 -108 1
v 111 -112 1
v 99 -107 1
v 101 -111 1
v 87 -139 1
v 92 -138 1
v 93 -154 1
v 99 -152 1
v 99 -205 1
v 104 -204 1
v 108 -225 1
v 113 -225 1
v -218 -67 1
v -237 -65 1
v -237 -73 1
v -221 -74 1
v -200 -102 1
v -197 -95 1
v -176 -118 1
v -174 -111 1
v -154 -109 1
v -151 -101 1
v -123 -83 1
v -123 -76 1
v -92 -98 1
v -89 -90 1
v -64 -98 1
v -65 -92 1
v -49 -79 1
v -55 -76 1
v -28 -64 1
v -32 -61 1
v 4 -69 1
v 5 -65 1
v 38 -80 1
v 37 -73 1
v 61 -65 1
v 56 -61 1
v 72 -25 1
v 66 -22 1
v 72 -3 1
v 67 -3 1
v 54 18 1
v 48 16 1
v 22 37 1
v 16 35 1
v 19 50 1
v 11 47 1
v 24 63 1
v 17 61 1
v 17 83 1
v 10 80 1
v -38 103 1
v -40 99 1
v -85 104 1
v -87 100 1
v -104 127 1
v -112 124 1
v -108 139 1
v -115 140 1
v -96 159 1
v -103 158 1
v -115 173 1
v -123 170 1
v -123 202 1
v -130 199 1
v -146 212 1
v -154 209 1
v -154 217 1
v -161 217 1
v 300 -83 3
v 289 95 2
v 110 -95 4
v 108 -83 -18
v 98 86 6
v -86 -96 -16

f 1 2 3
f 1 3 4
f 1 4 5
f 1 5 6
f 1 6 7
f 1 7 8
f 8 7 9
f 9 7 6
f 2 1 10
f 2 10 11
f 2 11 12
f 3 13 14
f 3 14 15
f 3 15 16
f 3 16 17
f 3 17 4
f 4 17 18
f 4 18 19
f 4 19 5
f 20 21 22
f 20 22 13
f 20 13 3
f 20 3 2
f 20 2 23
f 20 23 24
f 20 24 21
f 21 24 25
f 21 25 26
f 21 26 27
f 16 28 29
f 16 29 30
f 16 30 31
f 16 31 17
f 17 31 32
f 17 32 18
f 18 32 31
f 18 31 33
f 18 33 34
f 18 34 35
f 18 35 19
f 36 37 38
f 39 40 41
f 42 43 23
f 42 23 2
f 42 2 44
f 44 2 45
f 45 2 46
f 23 43 24
f 24 43 47
f 24 47 25
f 43 48 47
f 49 50 10
f 49 10 51
f 49 51 1
f 1 51 10
f 14 13 52
f 14 52 53
f 16 15 28
f 54 55 56
f 54 56 57
f 58 59 60
f 58 60 61
f 60 59 62
f 60 62 63
f 63 62 64
f 63 64 65
f 65 64 66
f 65 66 67
f 67 66 68
f 67 68 69
f 70 71 72
f 70 72 73
f 73 72 74
f 73 74 75
f 73 75 76
f 73 76 77
f 78 79 75
f 78 75 74
f 80 81 74
f 80 74 72
f 82 83 84
f 82 84 85
f 82 85 86
f 82 86 87
f 87 86 88
f 87 88 89
f 89 88 90
f 89 90 91
f 91 90 92
f 91 92 93
f 94 95 96
f 94 96 97
f 96 95 98
f 96 98 99
f 99 98 100
f 99 100 101
f 101 100 102
f 101 102 103
f 103 102 104
f 103 104 105
f 106 107 108
f 106 108 109
f 106 109 110
f 106 110 111
f 111 110 112
f 111 112 113
f 113 112 114
f 113 114 115
f 115 114 116
f 115 116 117
f 118 119 120
f 118 120 121
f 120 119 122
f 120 122 123
f 123 122 124
f 123 124 125
f 125 124 126
f 125 126 127
f 127 126 128
f 127 128 129
f 130 131 132
f 130 132 133
f 132 131 134
f 132 134 135
f 135 134 136
f 135 136 137
f 137 136 138
f 137 138 139
f 139 138 140
f 139 140 141
f 142 143 144
f 142 144 145
f 144 143 146
f 144 146 147
f 147 146 148
f 147 148 149
f 149 148 150
f 149 150 151
f 151 150 152
f 151 152 153
f 154 155 156
f 154 156 157
f 158 159 160
f 158 160 161
f 162 163 164
f 162 164 165
f 166 167 168
f 166 168 169
f 170 171 172
f 170 172 173
f 174 175 176
f 174 176 177
f 178 179 180
f 178 180 181
f 182 183 184
f 182 184 185
f 185 184 186
f 185 186 187
f 187 186 188
f 187 188 189
f 187 189 190
f 190 189 191
f 190 191 192
f 192 191 193
f 192 193 194
f 194 193 195
f 194 195 196
f 196 195 197
f 196 197 198
f 198 197 199
f 198 199 200
f 200 199 201
f 200 201 202
f 202 201 203
f 202 203 204
f 204 203 205
f 204 205 206
f 206 205 207
f 206 207 208
f 208 207 209
f 208 209 210
f 183 182 211
f 183 211 212
f 183 212 213
f 183 213 214
f 183 214 184
f 184 214 215
f 184 215 216
f 184 216 217
f 184 217 186
f 212 211 218
f 212 218 219
f 212 219 220
f 212 220 213
f 219 218 221
f 219 221 222
f 219 222 223
f 219 223 220
f 222 221 224
f 222 224 225
f 222 225 226
f 222 226 227
f 222 227 228
f 222 228 229
f 222 229 230
f 222 230 223
f 227 226 231
f 227 231 232
f 227 232 233
f 227 233 234
f 227 234 235
f 227 235 236
f 227 236 237
f 227 237 228
f 232 231 238
f 232 238 239
f 232 239 240
f 232 240 241
f 232 241 233
f 235 234 242
f 235 242 243
f 235 243 244
f 235 244 245
f 235 245 246
f 235 246 236
f 244 243 247
f 244 247 248
f 244 248 249
f 244 249 250
f 244 250 251
f 244 251 252
f 244 252 253
f 244 253 254
f 244 254 255
f 244 255 256
f 244 256 257
f 244 257 258
f 244 258 245
f 217 216 259
f 259 216 260
f 259 260 261
f 261 260 262
f 261 262 263
f 263 262 264
f 264 262 265
f 264 265 266
f 266 265 267
f 266 267 268
f 268 267 269
f 268 269 270
f 270 269 271
f 271 269 272
f 271 272 273
f 273 272 274
f 273 274 275
f 275 274 276
f 275 276 277
f 277 276 278
f 277 278 279
f 279 278 280
f 279 280 281
f 281 280 282
f 281 282 283
f 283 282 284
f 284 282 285
f 285 282 286
f 286 282 287
f 287 282 288
f 288 282 289
f 289 282 290
f 289 290 291
f 289 291 292
f 292 291 290
f 290 282 280
f 290 280 293
f 293 280 278
f 293 278 294
f 294 278 276
f 294 276 295
f 295 276 296
f 295 296 297
f 297 296 298
f 298 296 299
f 299 296 300
f 300 296 301
f 301 296 302
f 302 296 303
f 303 296 304
f 304 296 276
f 304 276 305
f 305 276 306
f 306 276 274
f 306 274 307
f 307 274 272
f 307 272 308
f 308 272 269
f 308 269 309
f 309 269 267
f 309 267 310
f 310 267 265
f 310 265 311
f 311 265 262
f 311 262 312
f 312 262 313
f 312 313 314
f 312 314 315
f 316 317 318
f 316 318 313
f 316 313 319
f 316 319 320
f 320 319 321
f 321 319 322
f 322 319 262
f 322 262 323
f 323 262 324
f 324 262 325
f 325 262 326
f 326 262 260
f 326 260 327
f 327 260 216
f 327 216 215
f 254 253 328
f 319 313 262
f 329 330 331
f 329 331 332
f 330 329 333
f 330 333 334
f 334 333 335
f 334 335 336
f 336 335 337
f 336 337 338
f 338 337 339
f 338 339 340
f 340 339 341
f 340 341 342
f 342 341 343
f 342 343 344
f 344 343 345
f 344 345 346
f 346 345 347
f 346 347 348
f 348 347 349
f 348 349 350
f 350 349 351
f 350 351 352
f 352 351 353
f 352 353 354
f 354 353 355
f 354 355 356
f 356 355 357
f 356 357 358
f 358 357 359
f 358 359 360
f 360 359 361
f 360 361 362
f 362 361 363
f 362 363 364
f 364 363 365
f 364 365 366
f 366 365 367
f 366 367 368
f 368 367 369
f 368 369 370
f 370 369 371
f 370 371 372
f 372 371 373
f 372 373 374
f 375 332 376
f 375 376 377
f 375 377 378
f 375 378 379
f 379 378 380
f 379 380 381
f 381 380 382
f 381 382 383
f 383 382 384
f 383 384 385
f 385 384 386
f 385 386 387
f 387 386 388
f 387 388 389
f 389 388 390
f 389 390 391
f 391 390 392
f 391 392 393
f 393 392 394
f 393 394 395
f 395 394 396
f 395 396 397
f 397 396 398
f 397 398 399
f 376 331 400
f 376 400 401
f 401 400 402
f 401 402 403
f 403 402 404
f 403 404 405
f 405 404 406
f 405 406 407
f 407 406 408
f 407 408 409
f 409 408 410
f 409 410 411
f 411 410 412
f 411 412 413
f 413 412 414
f 413 414 415
f 415 414 416
f 415 416 417
f 417 416 418
f 417 418 419
f 419 418 420
f 419 420 421
f 421 420 422
f 421 422 423
f 423 422 424
f 423 424 425
f 425 424 426
f 425 426 427
f 427 426 428
f 427 428 429
f 429 428 430
f 429 430 431
f 431 430 432
f 431 432 433
f 433 432 434
f 433 434 435
f 435 434 436
f 435 436 437
f 437 436 438
f 437 438 439
f 439 438 440
f 439 440 441
f 441 440 442
f 441 442 443
f 443 442 444
f 443 444 445
f 445 444 446
f 445 446 447
f 447 446 448
f 447 448 449
f 449 448 450
f 449 450 451
f 451 450 452
f 451 452 453
f 453 452 454
f 453 454 455
f 455 454 456
f 455 456 457
f 457 456 458
f 457 458 459
f 459 458 460
f 459 460 461
f 461 460 462
f 461 462 463
f 463 462 464
f 463 464 465
f 465 464 466
f 465 466 467
f 467 466 468
f 469 468 470
f 469 470 471
f 471 470 472
f 471 472 473
f 473 472 474
f 473 474 475
f 475 474 476
f 475 476 477
f 477 476 478
f 477 478 479
f 479 478 480
f 479 480 481
f 481 480 482
f 481 482 483
f 483 482 484
f 483 484 485
f 486 487 488
f 486 488 489
f 486 489 490
f 486 490 491
f 491 490 492
f 491 492 493
f 493 492 494
f 493 494 495
f 495 494 496
f 495 496 497
f 497 496 498
f 497 498 499
f 499 498 500
f 499 500 501
f 501 500 502
f 501 502 503
f 503 502 504
f 503 504 505
f 505 504 506
f 505 506 507
f 507 506 508
f 507 508 509
f 509 508 510
f 509 510 511
f 511 510 512
f 511 512 513
f 513 512 514
f 513 514 515
f 515 514 516
f 515 516 517
f 517 516 518
f 517 518 519
f 519 518 520
f 519 520 521
f 521 520 522
f 521 522 523
f 523 522 524
f 523 524 525
f 525 524 526
f 525 526 527
f 527 526 528
f 527 528 529
f 529 528 530
f 529 530 531
f 531 530 532
f 531 532 533
f 533 532 534
f 533 534 535
f 535 534 536
f 535 536 537
f 537 536 538
f 537 538 539
f 539 538 540
f 539 540 541
f 541 540 542
f 541 542 543
f 544 545 546
