# RS2 Model 24249
# Vertices: 257
# Faces: 293

v 46 -19 4
v 43 -20 4
v 43 -23 4
v 46 -24 4
v 49 -23 4
v 52 -23 0
v 49 -16 0
v 41 -16 0
v 39 -25 0
v 46 -31 0
v 43 32 6
v 38 30 6
v 40 26 6
v 45 25 6
v 50 28 6
v 55 29 0
v 45 38 0
v 33 36 0
v 33 23 0
v 45 17 0
v -45 7 4
v -47 4 4
v -44 2 4
v -41 2 4
v -40 7 4
v -38 9 0
v -45 11 0
v -51 6 0
v -46 -2 0
v -37 -1 0
v 13 -51 6
v 11 -47 6
v 7 -48 6
v 5 -52 6
v 9 -58 6
v 10 -63 0
v 19 -54 0
v 17 -42 0
v 4 -42 0
v -2 -54 0
v -52 -36 6
v -48 -34 6
v -49 -30 6
v -53 -28 6
v -59 -32 6
v -64 -33 0
v -55 -42 0
v -43 -40 0
v -43 -27 0
v -55 -21 0
v 23 51 6
v 26 47 6
v 29 51 6
v 29 55 6
v 25 58 6
v 23 64 0
v 14 53 0
v 23 42 0
v 36 47 0
v 39 62 0
v -52 -52 4
v -53 -49 4
v -56 -49 4
v -58 -52 4
v -56 -56 4
v -56 -59 0
v -49 -55 0
v -48 -47 0
v -57 -45 0
v -63 -52 0
v -53 15 4
v -50 16 4
v -50 19 4
v -53 21 4
v -57 19 4
v -60 19 0
v -56 12 0
v -48 11 0
v -46 20 0
v -53 26 0
v -13 56 4
v -16 59 4
v -19 56 4
v -18 53 4
v -14 52 4
v -12 50 0
v -10 57 0
v -15 63 0
v -23 58 0
v -22 49 0
v -30 -55 4
v -33 -53 4
v -35 -56 4
v -34 -60 4
v -30 -60 4
v -28 -62 0
v -26 -55 0
v -31 -49 0
v -39 -54 0
v -38 -63 0
v 55 -56 4
v 54 -53 4
v 51 -53 4
v 48 -56 4
v 51 -60 4
v 51 -63 0
v 58 -59 0
v 59 -51 0
v 50 -49 0
v 44 -56 0
v -15 -45 4
v -18 -46 4
v -18 -49 4
v -15 -50 4
v -11 -49 4
v -8 -49 0
v -12 -42 0
v -20 -41 0
v -22 -50 0
v -15 -56 0
v 56 4 4
v 59 6 4
v 57 10 4
v 53 10 4
v 52 6 4
v 46 3 0
v 54 -2 0
v 64 3 0
v 61 12 0
v 50 14 0
v 51 56 4
v 49 59 4
v 45 58 4
v 44 54 4
v 48 52 4
v 49 46 0
v 56 52 0
v 53 63 0
v 44 62 0
v 40 52 0
v 35 -42 6
v 30 -44 6
v 32 -48 6
v 37 -49 6
v 42 -46 6
v 47 -45 0
v 37 -36 0
v 25 -38 0
v 25 -51 0
v 37 -57 0
v -44 53 6
v -49 51 6
v -47 47 6
v -42 46 6
v -37 49 6
v -32 50 0
v -42 59 0
v -54 57 0
v -54 44 0
v -42 38 0
v -30 1 0
v -35 -9 0
v -29 -17 8
v -25 -2 8
v -24 11 8
v -28 10 0
v -21 26 8
v -26 29 0
v -7 39 8
v -9 47 0
v 9 37 8
v 13 44 0
v 19 26 8
v 24 30 0
v 25 11 8
v 31 11 0
v 23 -4 8
v 29 -4 0
v 22 -12 8
v 28 -19 0
v 9 -21 8
v 12 -29 0
v -19 -32 0
v -14 -25 8
v -35 -22 0
v -23 -12 5
v -20 0 5
v -19 9 5
v -16 21 5
v -5 31 5
v 6 30 5
v 14 21 5
v 19 9 5
v 18 -2 5
v 17 -8 5
v 6 -15 5
v -11 -18 5
v -6 -6 0
v -11 1 0
v -8 13 0
v -3 18 0
v 2 17 0
v 6 13 0
v 9 7 0
v 8 0 0
v 2 -5 0
v 37 -28 1
v 49 -30 2
v 41 -13 1
v -14 -57 2
v -5 -47 2
v -24 -47 1
v -64 -52 2
v -54 -61 2
v -54 -42 1
v -44 -4 1
v -34 1 2
v -52 7 1
v -38 35 2
v -29 52 3
v -58 46 2
v 10 57 3
v 17 38 2
v 35 67 3
v 48 14 2
v 57 31 3
v 28 25 2
v 38 37 4
v -23 52 2
v 20 -41 3
v 40 -59 2
v 49 -42 3
v 20 -48 2
v 42 -56 2
v 52 -65 2
v 51 -46 1
v -4 -56 3
v 12 -65 4
v 5 -37 1
v -41 -55 2
v -35 -65 2
v -29 -47 1
v -57 -18 3
v -66 -35 4
v -38 -28 1
v -53 27 2
v -62 17 2
v -43 17 1
v -25 56 2
v -18 46 2
v -13 64 1
v 57 60 2
v 44 66 1
v 51 44 2
v 62 -2 2
v 65 12 1
v 45 0 2

f 1 2 3
f 1 3 4
f 1 4 5
f 1 5 6
f 1 6 7
f 1 7 2
f 2 7 8
f 2 8 3
f 3 8 9
f 3 9 4
f 4 9 10
f 4 10 5
f 5 10 6
f 11 12 13
f 11 13 14
f 11 14 15
f 11 15 16
f 11 16 17
f 11 17 12
f 12 17 18
f 12 18 13
f 13 18 19
f 13 19 14
f 14 19 20
f 14 20 15
f 15 20 16
f 21 22 23
f 21 23 24
f 21 24 25
f 21 25 26
f 21 26 27
f 21 27 22
f 22 27 28
f 22 28 23
f 23 28 29
f 23 29 24
f 24 29 30
f 24 30 25
f 25 30 26
f 31 32 33
f 31 33 34
f 31 34 35
f 31 35 36
f 31 36 37
f 31 37 32
f 32 37 38
f 32 38 33
f 33 38 39
f 33 39 34
f 34 39 40
f 34 40 35
f 35 40 36
f 41 42 43
f 41 43 44
f 41 44 45
f 41 45 46
f 41 46 47
f 41 47 42
f 42 47 48
f 42 48 43
f 43 48 49
f 43 49 44
f 44 49 50
f 44 50 45
f 45 50 46
f 51 52 53
f 51 53 54
f 51 54 55
f 51 55 56
f 51 56 57
f 51 57 52
f 52 57 58
f 52 58 53
f 53 58 59
f 53 59 54
f 54 59 60
f 54 60 55
f 55 60 56
f 61 62 63
f 61 63 64
f 61 64 65
f 61 65 66
f 61 66 67
f 61 67 62
f 62 67 68
f 62 68 63
f 63 68 69
f 63 69 64
f 64 69 70
f 64 70 65
f 65 70 66
f 71 72 73
f 71 73 74
f 71 74 75
f 71 75 76
f 71 76 77
f 71 77 72
f 72 77 78
f 72 78 73
f 73 78 79
f 73 79 74
f 74 79 80
f 74 80 75
f 75 80 76
f 81 82 83
f 81 83 84
f 81 84 85
f 81 85 86
f 81 86 87
f 81 87 82
f 82 87 88
f 82 88 83
f 83 88 89
f 83 89 84
f 84 89 90
f 84 90 85
f 85 90 86
f 91 92 93
f 91 93 94
f 91 94 95
f 91 95 96
f 91 96 97
f 91 97 92
f 92 97 98
f 92 98 93
f 93 98 99
f 93 99 94
f 94 99 100
f 94 100 95
f 95 100 96
f 101 102 103
f 101 103 104
f 101 104 105
f 101 105 106
f 101 106 107
f 101 107 102
f 102 107 108
f 102 108 103
f 103 108 109
f 103 109 104
f 104 109 110
f 104 110 105
f 105 110 106
f 111 112 113
f 111 113 114
f 111 114 115
f 111 115 116
f 111 116 117
f 111 117 112
f 112 117 118
f 112 118 113
f 113 118 119
f 113 119 114
f 114 119 120
f 114 120 115
f 115 120 116
f 121 122 123
f 121 123 124
f 121 124 125
f 121 125 126
f 121 126 127
f 121 127 122
f 122 127 128
f 122 128 123
f 123 128 129
f 123 129 124
f 124 129 130
f 124 130 125
f 125 130 126
f 131 132 133
f 131 133 134
f 131 134 135
f 131 135 136
f 131 136 137
f 131 137 132
f 132 137 138
f 132 138 133
f 133 138 139
f 133 139 134
f 134 139 140
f 134 140 135
f 135 140 136
f 141 142 143
f 141 143 144
f 141 144 145
f 141 145 146
f 141 146 147
f 141 147 142
f 142 147 148
f 142 148 143
f 143 148 149
f 143 149 144
f 144 149 150
f 144 150 145
f 145 150 146
f 151 152 153
f 151 153 154
f 151 154 155
f 151 155 156
f 151 156 157
f 151 157 152
f 152 157 158
f 152 158 153
f 153 158 159
f 153 159 154
f 154 159 160
f 154 160 155
f 155 160 156
f 161 162 163
f 161 163 164
f 161 164 165
f 161 165 166
f 166 165 167
f 166 167 168
f 168 167 169
f 168 169 170
f 170 169 171
f 170 171 172
f 172 171 173
f 172 173 174
f 174 173 175
f 174 175 176
f 176 175 177
f 176 177 178
f 178 177 179
f 178 179 180
f 180 179 181
f 180 181 182
f 182 181 183
f 183 181 184
f 183 184 185
f 185 184 163
f 185 163 162
f 164 163 186
f 164 186 187
f 164 187 165
f 165 187 188
f 165 188 167
f 167 188 189
f 167 189 169
f 169 189 190
f 169 190 171
f 171 190 191
f 171 191 173
f 173 191 192
f 173 192 175
f 175 192 193
f 175 193 177
f 177 193 194
f 177 194 179
f 179 194 195
f 179 195 181
f 181 195 196
f 181 196 184
f 184 196 197
f 184 197 163
f 163 197 186
f 186 197 198
f 186 198 199
f 186 199 187
f 187 199 188
f 188 199 189
f 189 199 200
f 189 200 190
f 190 200 201
f 190 201 191
f 191 201 202
f 191 202 192
f 192 202 203
f 192 203 193
f 193 203 204
f 193 204 194
f 194 204 205
f 194 205 195
f 195 205 196
f 196 205 206
f 196 206 197
f 197 206 198
f 198 206 204
f 198 204 203
f 198 203 199
f 199 203 202
f 199 202 200
f 200 202 201
f 205 204 206
f 207 208 209
f 210 211 212
f 213 214 215
f 216 217 218
f 219 220 221
f 222 223 224
f 225 226 227
f 228 229 230
