# RS2 Model 24294
# Vertices: 44
# Faces: 40

v 56 15 4
v -56 15 4
v -56 12 0
v 56 12 0
v -56 31 4
v 56 31 4
v 56 34 0
v -56 34 0
v 56 -7 4
v -56 -7 4
v -56 -10 0
v 56 -10 0
v -56 7 4
v 56 7 4
v 56 10 0
v -56 10 0
v 56 -29 4
v -56 -29 4
v -56 -32 0
v 56 -32 0
v -56 -15 4
v 56 -15 4
v 56 -12 0
v -56 -12 0
v 56 -51 4
v -56 -51 4
v -56 -54 0
v 56 -54 0
v -56 -37 4
v 56 -37 4
v 56 -34 0
v -56 -34 0
v 56 36 5
v -56 36 5
v -56 36 0
v 56 36 0
v 56 -56 5
v 64 -64 5
v 64 44 5
v -64 44 5
v -56 -56 5
v -56 -56 0
v 56 -56 0
v -64 -64 5

f 1 2 3
f 1 3 4
f 5 6 7
f 5 7 8
f 6 5 2
f 6 2 1
f 9 10 11
f 9 11 12
f 13 14 15
f 13 15 16
f 14 13 10
f 14 10 9
f 17 18 19
f 17 19 20
f 21 22 23
f 21 23 24
f 22 21 18
f 22 18 17
f 25 26 27
f 25 27 28
f 29 30 31
f 29 31 32
f 30 29 26
f 30 26 25
f 33 34 35
f 33 35 36
f 33 36 37
f 33 37 38
f 33 38 39
f 33 39 34
f 34 39 40
f 34 40 41
f 34 41 42
f 34 42 35
f 41 37 43
f 41 43 42
f 37 41 44
f 37 44 38
f 37 36 43
f 40 44 41
