# RS2 Model 24378
# Vertices: 161
# Faces: 261

v -54 24 136
v -54 24 160
v -54 0 160
v -54 0 136
v -54 -24 160
v -54 -24 136
v -54 -28 151
v -54 -28 148
v -54 -30 146
v -54 -48 136
v -54 -33 146
v -54 -35 148
v -54 -48 160
v -48 -48 160
v -44 -48 97
v -61 -48 93
v -63 -48 138
v -54 -32 95
v -56 -24 138
v -52 -24 95
v -54 -16 95
v -63 0 138
v -61 0 93
v -54 16 95
v -56 24 138
v -52 24 95
v -54 32 95
v -63 48 138
v -61 48 93
v -54 48 136
v -44 48 97
v -48 48 160
v -54 48 160
v -54 36 151
v -54 36 148
v -54 34 146
v -54 31 146
v -54 29 148
v -54 29 151
v -54 31 153
v -63 48 160
v -56 24 160
v -63 0 160
v -56 -24 160
v -63 -48 160
v -54 -33 153
v -54 -30 153
v -51 -28 151
v -51 -28 148
v -51 -30 146
v -51 -33 146
v -51 -35 148
v -54 -35 151
v -51 -33 153
v -51 -30 153
v -51 -35 151
v -44 64 97
v -48 64 160
v -44 64 199
v -44 48 199
v -61 48 203
v -54 32 201
v -52 24 201
v -54 16 201
v -61 0 203
v -54 -16 201
v -52 -24 201
v -54 -32 201
v -61 -48 203
v -44 -48 199
v -48 -64 160
v -44 -64 97
v -27 -64 32
v -27 -48 32
v -41 -48 23
v -33 -32 28
v -30 -24 30
v -33 -16 28
v -45 0 20
v -33 16 28
v -30 24 30
v -33 32 28
v -45 48 20
v -27 48 32
v -27 64 32
v 1 48 0
v 1 64 0
v -51 34 146
v -51 34 153
v -51 31 153
v -51 31 146
v -51 36 148
v -51 36 151
v -54 34 153
v -51 29 151
v -51 29 148
v -21 48 0
v -10 32 0
v -6 24 0
v -10 16 0
v -27 0 0
v -10 -16 0
v -6 -24 0
v -10 -32 0
v -21 -48 0
v 1 -48 0
v 1 -64 0
v 82 -64 374
v 90 -48 358
v 90 48 358
v 82 64 374
v -128 64 374
v -128 -64 374
v -128 64 0
v -128 -64 0
v -27 64 264
v -27 48 264
v -45 48 276
v -33 32 268
v -30 24 266
v -33 16 268
v -45 0 276
v -33 -16 268
v -30 -24 266
v -33 -32 268
v -41 -48 273
v -27 -48 264
v -44 -64 199
v 28 64 328
v 28 48 328
v 19 48 341
v 23 32 336
v 24 24 334
v 23 16 336
v 16 0 345
v 23 -16 336
v 24 -24 334
v 23 -32 336
v 19 -48 341
v 28 -48 328
v -27 -64 264
v 92 64 354
v 92 48 354
v 68 48 349
v 64 48 359
v 67 32 352
v 64 0 359
v 67 -32 352
v 64 -48 359
v 68 -48 349
v 92 -48 354
v 28 -64 328
v 92 -64 354
v 90 -64 358
v 90 64 358
v 82 63 374
v -127 65 374
v 81 -65 374
v -32 50 160
v -80 44 160
v -32 -44 160

f 1 2 3
f 1 3 4
f 4 3 5
f 4 5 6
f 6 5 7
f 6 7 8
f 6 8 9
f 6 9 10
f 10 9 11
f 10 11 12
f 10 12 13
f 10 13 14
f 10 14 15
f 10 15 16
f 10 16 17
f 17 16 18
f 17 18 19
f 19 18 20
f 19 20 21
f 19 21 22
f 22 21 23
f 22 23 24
f 22 24 25
f 25 24 26
f 25 26 27
f 25 27 28
f 28 27 29
f 28 29 30
f 30 29 31
f 30 31 32
f 30 32 33
f 30 33 34
f 30 34 35
f 30 35 36
f 30 36 1
f 1 36 37
f 1 37 38
f 1 38 2
f 2 38 39
f 2 39 40
f 2 40 33
f 2 33 41
f 2 41 42
f 2 42 43
f 2 43 3
f 3 43 44
f 3 44 5
f 5 44 45
f 5 45 13
f 5 13 46
f 5 46 47
f 5 47 7
f 7 47 48
f 7 48 8
f 8 48 49
f 8 49 50
f 8 50 9
f 9 50 11
f 11 50 51
f 11 51 52
f 11 52 12
f 12 52 53
f 12 53 13
f 13 53 46
f 46 53 54
f 46 54 47
f 47 54 55
f 47 55 48
f 48 55 49
f 49 55 50
f 50 55 54
f 50 54 51
f 51 54 56
f 51 56 52
f 52 56 53
f 53 56 54
f 31 57 58
f 31 58 32
f 32 58 59
f 32 59 60
f 32 60 33
f 33 60 61
f 33 61 41
f 41 61 62
f 41 62 42
f 42 62 63
f 42 63 64
f 42 64 43
f 43 64 65
f 43 65 66
f 43 66 44
f 44 66 67
f 44 67 68
f 44 68 45
f 45 68 69
f 45 69 13
f 13 69 70
f 13 70 14
f 14 70 71
f 14 71 72
f 14 72 15
f 15 72 73
f 15 73 74
f 15 74 75
f 15 75 16
f 16 75 18
f 18 75 76
f 18 76 20
f 20 76 77
f 20 77 21
f 21 77 78
f 21 78 23
f 23 78 79
f 23 79 24
f 24 79 80
f 24 80 26
f 26 80 81
f 26 81 27
f 27 81 82
f 27 82 29
f 29 82 83
f 29 83 84
f 29 84 31
f 31 84 57
f 57 84 85
f 85 84 86
f 85 86 87
f 88 89 90
f 88 90 91
f 88 91 37
f 88 37 36
f 88 36 35
f 88 35 92
f 88 92 89
f 89 92 93
f 89 93 94
f 89 94 90
f 90 94 40
f 90 40 39
f 90 39 95
f 90 95 91
f 91 95 96
f 91 96 37
f 37 96 38
f 38 96 39
f 39 96 95
f 93 92 35
f 93 35 34
f 93 34 94
f 94 34 33
f 94 33 40
f 86 84 83
f 86 83 97
f 97 83 82
f 97 82 98
f 98 82 81
f 98 81 99
f 99 81 80
f 99 80 100
f 100 80 79
f 100 79 101
f 101 79 78
f 101 78 102
f 102 78 77
f 102 77 103
f 103 77 76
f 103 76 104
f 104 76 75
f 104 75 105
f 105 75 74
f 105 74 106
f 106 74 107
f 107 74 73
f 108 109 110
f 108 110 111
f 108 111 112
f 108 112 113
f 113 112 114
f 113 114 115
f 60 59 116
f 60 116 117
f 60 117 118
f 60 118 61
f 61 118 62
f 62 118 119
f 62 119 63
f 63 119 120
f 63 120 64
f 64 120 121
f 64 121 65
f 65 121 122
f 65 122 66
f 66 122 123
f 66 123 67
f 67 123 124
f 67 124 68
f 68 124 125
f 68 125 69
f 69 125 126
f 69 126 127
f 69 127 70
f 70 127 128
f 70 128 71
f 117 116 129
f 117 129 130
f 117 130 131
f 117 131 118
f 118 131 132
f 118 132 119
f 119 132 133
f 119 133 120
f 120 133 134
f 120 134 121
f 121 134 135
f 121 135 122
f 122 135 136
f 122 136 123
f 123 136 137
f 123 137 124
f 124 137 138
f 124 138 125
f 125 138 139
f 125 139 126
f 126 139 140
f 126 140 127
f 127 140 141
f 127 141 128
f 130 129 142
f 130 142 143
f 130 143 144
f 130 144 131
f 131 144 145
f 131 145 132
f 132 145 146
f 132 146 133
f 133 146 134
f 134 146 147
f 134 147 135
f 135 147 136
f 136 147 148
f 136 148 137
f 137 148 138
f 138 148 149
f 138 149 139
f 139 149 150
f 139 150 140
f 140 150 151
f 140 151 152
f 140 152 141
f 152 151 153
f 153 151 109
f 153 109 154
f 154 109 108
f 109 151 150
f 109 150 110
f 110 150 144
f 110 144 143
f 110 143 155
f 110 155 111
f 143 142 155
f 156 157 158
