# RS2 Model 24389
# Vertices: 65
# Faces: 68

v -64 38 110
v -64 38 113
v -46 46 113
v -46 46 110
v -38 64 113
v -38 64 110
v -64 32 113
v -64 32 110
v -41 41 110
v -41 41 113
v -32 64 113
v -32 64 110
v -41 41 332
v 0 41 272
v 0 0 272
v -41 0 272
v -41 0 332
v 0 41 332
v -57 64 35
v -57 64 6
v -57 57 6
v -57 57 35
v -64 64 6
v -64 64 35
v -64 57 6
v -64 57 35
v -57 64 42
v -64 64 42
v -57 57 42
v 0 64 42
v 0 0 42
v 0 64 64
v 0 0 64
v 0 64 112
v 0 0 112
v 0 64 256
v 0 0 256
v 0 64 305
v 0 0 305
v 0 64 332
v 0 0 332
v -64 0 305
v -64 0 332
v -57 64 339
v -64 64 339
v -57 57 339
v -57 64 367
v -57 57 367
v -64 57 339
v -64 57 367
v -57 64 374
v -64 64 374
v -57 57 374
v 64 64 374
v 64 -64 374
v 64 -64 0
v 64 64 0
v -64 57 42
v -64 0 42
v -64 0 64
v -64 0 112
v -64 0 256
v -64 57 374
v -64 -64 374
v -64 -64 0

f 1 2 3
f 1 3 4
f 4 3 5
f 4 5 6
f 7 8 9
f 7 9 10
f 7 10 2
f 2 10 3
f 3 10 11
f 3 11 5
f 12 11 10
f 12 10 9
f 13 14 15
f 13 15 16
f 13 16 17
f 13 18 14
f 19 20 21
f 19 21 22
f 22 21 23
f 22 23 24
f 22 24 21
f 22 21 25
f 22 25 26
f 20 23 21
f 21 23 25
f 23 21 24
f 27 28 29
f 27 29 30
f 30 29 31
f 30 31 32
f 32 31 33
f 32 33 34
f 34 33 35
f 34 35 36
f 36 35 37
f 36 37 38
f 38 37 39
f 38 39 40
f 40 39 41
f 41 39 42
f 41 42 43
f 44 45 46
f 44 46 47
f 47 46 48
f 48 46 49
f 48 49 50
f 51 52 53
f 51 53 54
f 54 53 55
f 54 55 56
f 54 56 57
f 58 29 28
f 29 58 31
f 31 58 59
f 31 59 33
f 33 59 60
f 33 60 35
f 35 60 61
f 35 61 37
f 37 61 62
f 37 62 39
f 39 62 42
f 49 46 45
f 63 53 52
f 53 63 64
f 53 64 55
f 55 64 65
f 55 65 56
