# RS2 Model 24418
# Vertices: 484
# Faces: 775

v -84 -28 58
v -66 -17 58
v -64 -19 66
v -83 -30 66
v -92 -30 66
v -102 -28 58
v -103 -30 58
v -83 -30 58
v -65 -18 58
v -62 0 58
v -60 0 66
v -61 0 78
v -65 -18 78
v -84 -29 78
v -86 -30 72
v -88 -30 68
v -89 -32 69
v -92 -32 68
v -96 -30 68
v -102 -30 66
v -117 -17 58
v -119 -18 58
v -117 -17 55
v -102 -28 55
v -84 -28 55
v -67 -17 55
v -60 0 58
v -121 0 58
v -119 -19 66
v -124 0 66
v -118 -18 78
v -123 0 78
v -114 -15 87
v -117 0 87
v -102 -7 93
v -104 0 93
v -80 0 93
v -96 -12 93
v -89 -12 93
v -81 -7 93
v -70 -15 87
v -66 0 87
v -102 -29 78
v -100 -24 87
v -85 -24 87
v -92 -29 78
v -87 -29 76
v -89 -31 75
v -87 -32 72
v -87 -38 73
v -89 -38 70
v -92 -39 69
v -95 -32 69
v -98 -30 72
v -96 -29 76
v -62 0 55
v -67 -17 44
v -62 0 44
v -67 -17 28
v -62 0 28
v -67 -17 10
v -62 0 10
v -69 -16 5
v -66 0 5
v -122 0 55
v -124 0 58
v -92 -38 73
v -89 -38 76
v -92 -38 77
v -95 -38 76
v -96 -38 73
v -95 -38 70
v -92 -31 77
v -95 -31 75
v -96 -32 72
v -4 -16 58
v 0 0 58
v 3 0 64
v -2 -18 64
v -9 -22 64
v -20 -26 58
v -19 -28 58
v -2 -18 58
v 3 0 58
v -2 -17 55
v 2 0 55
v -2 -17 44
v 2 0 44
v -2 -17 28
v 2 0 28
v -2 -17 10
v 2 0 10
v -5 -16 5
v -1 0 5
v -52 -16 58
v -37 -26 58
v -37 -28 64
v -54 -18 64
v -56 0 58
v -58 0 58
v -53 -18 58
v -37 -28 58
v -19 -28 64
v -20 -27 76
v -37 -27 76
v -53 -17 76
v -59 0 64
v 1 0 76
v -3 -17 76
v -4 -18 70
v -5 -20 66
v -5 -22 67
v -8 -24 66
v -12 -25 66
v -4 0 82
v -7 -14 82
v -9 -21 76
v -6 -19 74
v -6 -21 73
v -4 -21 70
v -1 -26 71
v -2 -27 68
v -4 -29 67
v -10 -26 67
v -14 -25 70
v -13 -24 74
v -21 -22 82
v -35 -22 82
v -49 -15 82
v -57 0 76
v -15 0 85
v -18 -7 85
v -32 -12 85
v -37 -7 85
v -52 0 82
v -24 -12 85
v -40 0 85
v -57 0 55
v -52 -17 55
v -37 -28 55
v -19 -28 55
v -4 -29 71
v -2 -27 74
v -4 -28 75
v -7 -30 74
v -8 -31 71
v -6 -31 68
v -8 -23 75
v -11 -25 73
v -11 -26 70
v 44 -28 58
v 61 -17 58
v 63 -19 65
v 44 -30 65
v 36 -30 65
v 26 -28 58
v 25 -30 58
v 44 -30 58
v 63 -18 58
v 65 0 58
v 68 0 65
v 67 0 77
v 62 -18 77
v 44 -29 77
v 42 -30 71
v 40 -30 67
v 39 -32 68
v 36 -32 67
v 32 -30 67
v 25 -30 65
v 11 -17 58
v 9 -18 58
v 11 -17 55
v 26 -28 55
v 43 -28 55
v 61 -17 55
v 68 0 58
v 6 0 58
v 9 -19 65
v 4 0 65
v 10 -18 77
v 5 0 77
v 14 -15 84
v 10 0 84
v 26 -7 89
v 24 0 89
v 48 0 89
v 32 -12 89
v 39 -12 89
v 46 -7 89
v 58 -15 84
v 62 0 84
v 26 -29 77
v 27 -24 84
v 42 -24 84
v 36 -29 77
v 40 -29 75
v 39 -31 74
v 40 -32 71
v 40 -38 72
v 39 -38 69
v 36 -39 68
v 33 -32 69
v 30 -30 71
v 32 -29 76
v 65 0 55
v 61 -17 44
v 65 0 44
v 61 -17 28
v 65 0 28
v 61 -17 10
v 65 0 10
v 58 -16 5
v 62 0 5
v 6 0 55
v 4 0 58
v 36 -38 72
v 39 -38 75
v 36 -38 77
v 33 -38 75
v 32 -38 72
v 33 -38 69
v 36 -31 76
v 33 -31 74
v 32 -32 71
v -84 -28 44
v -84 -28 28
v -84 -27 10
v -85 -25 5
v -122 0 44
v -117 -17 44
v -102 -28 44
v -102 -28 28
v -102 -27 10
v -101 -25 5
v -122 0 28
v -117 -17 28
v -117 -17 10
v -114 -16 5
v -121 0 10
v -118 0 5
v -104 -33 43
v -104 -33 45
v -122 -21 45
v -122 -21 43
v -103 -32 43
v -100 -32 43
v -100 -33 43
v -100 -33 45
v -103 -32 46
v -121 -20 46
v -126 0 46
v -127 -1 45
v -127 -1 43
v -121 -20 43
v -92 -34 45
v -100 -34 45
v -100 -34 43
v -92 -34 43
v -84 -34 45
v -84 -32 46
v -92 -32 46
v -100 -32 46
v -92 -32 43
v -84 -34 43
v -84 -33 43
v -84 -33 45
v -35 -33 45
v -35 -32 46
v -35 -34 45
v -27 -32 46
v -27 -34 45
v -19 -32 46
v -19 -34 45
v -19 -33 45
v 28 -33 45
v 28 -32 46
v 28 -34 45
v 36 -32 46
v 36 -34 45
v 43 -32 46
v 43 -34 45
v 43 -33 45
v 79 -33 45
v 79 -32 46
v -84 -32 43
v -35 -32 43
v -35 -33 43
v -35 -34 43
v -27 -34 43
v -19 -34 43
v -19 -33 43
v 28 -33 43
v 28 -34 43
v 36 -34 43
v 43 -34 43
v 43 -33 43
v 79 -33 43
v -126 0 43
v 79 -26 5
v 79 0 5
v -101 0 5
v -101 -26 5
v -101 -26 3
v 79 -26 3
v -101 -26 2
v 79 -26 2
v -101 -26 0
v 79 -26 0
v -111 -22 5
v -111 -22 3
v -111 -22 2
v -111 -22 0
v -120 -13 5
v -120 -13 3
v -120 -13 2
v -120 -13 0
v -123 0 5
v -123 0 3
v -123 0 2
v -123 0 0
v -120 13 5
v -111 22 5
v -101 26 5
v 79 26 5
v -19 -28 44
v -19 -28 28
v -19 -27 10
v -20 -25 5
v -57 0 44
v -52 -17 44
v -37 -28 44
v -37 -28 28
v -37 -27 10
v -36 -25 5
v -57 0 28
v -52 -17 28
v -52 -17 10
v -50 -16 5
v -56 0 10
v -53 0 5
v -27 -32 43
v -19 -32 43
v 28 -32 43
v 36 -32 43
v 43 -32 43
v 79 -32 43
v -123 -25 15
v -122 -25 13
v -112 -28 13
v -113 -28 15
v -110 -25 15
v -120 -21 15
v -125 -23 15
v -124 -23 13
v -123 -23 10
v -121 -25 10
v -112 -28 10
v -111 -29 13
v -111 -29 15
v -110 -25 13
v -110 -29 10
v -110 -25 0
v -110 -29 0
v -112 -28 0
v -121 -25 0
v -123 -23 0
v -130 -15 10
v -131 -15 0
v -132 -12 0
v -130 -12 10
v -132 -1 10
v -134 -1 0
v -134 0 0
v -133 0 10
v -134 -1 13
v -134 0 13
v -135 0 15
v -135 -1 15
v -129 0 15
v -127 -11 15
v -133 -12 15
v -132 -15 15
v -132 -12 13
v -131 -15 13
v 43 -28 44
v 43 -28 28
v 43 -27 10
v 42 -25 5
v 11 -17 44
v 26 -28 44
v 26 -28 28
v 26 -27 10
v 27 -25 5
v 11 -17 28
v 11 -17 10
v 13 -16 5
v 6 0 28
v 7 0 10
v 9 0 5
v 6 0 44
v 104 0 86
v 79 0 86
v 79 -20 81
v 104 -20 81
v 104 20 81
v 104 33 68
v 104 -33 68
v 104 39 53
v 104 -39 53
v 104 35 48
v 104 -35 48
v 104 35 42
v 104 -35 42
v 104 35 26
v 104 -35 26
v 104 31 23
v 104 31 22
v 104 35 16
v 104 -29 22
v 104 -35 16
v 104 35 8
v 104 -35 8
v 104 35 7
v 104 -35 7
v 104 -29 3
v 104 29 3
v 104 32 3
v 104 35 0
v 104 32 0
v 79 -33 68
v 79 -39 53
v 79 -35 48
v 79 -35 42
v 79 -35 26
v 79 -35 16
v 104 -30 22
v 104 -29 23
v 104 30 22
v 124 31 23
v 124 31 22
v 124 -29 22
v 79 -35 0
v 104 -35 0
v 79 -35 7
v 79 35 7
v 79 35 0
v 79 -35 8
v 79 35 8
v 79 35 16
v 127 -32 3
v 121 -29 3
v 104 -32 3
v 104 -32 0
v 127 -32 0
v 127 32 3
v 125 -26 3
v 126 -29 21
v 126 -29 3
v 125 -29 3
v 125 -29 21
v 124 -29 23
v 125 -30 21
v 125 -30 3
v 124 -30 22
v 125 26 3
v 121 29 3
v 127 32 0
v 79 20 81
v 79 33 68
v 79 39 53
v 79 35 48
v 79 35 42
v 79 35 26
v 126 31 21
v 126 31 3
v 125 31 3
v 125 31 21
v 125 30 21
v 125 30 3
v 124 30 22
v 0 -30 34
v 0 -34 49
v -51 -30 34

f 1 2 3
f 1 3 4
f 1 4 5
f 1 5 6
f 1 6 7
f 1 7 8
f 1 8 2
f 2 8 9
f 2 9 10
f 2 10 11
f 2 11 3
f 3 11 12
f 3 12 13
f 3 13 4
f 4 13 14
f 4 14 15
f 4 15 16
f 4 16 5
f 5 16 17
f 5 17 18
f 5 18 19
f 5 19 20
f 5 20 6
f 6 20 21
f 6 21 22
f 6 22 7
f 7 22 23
f 7 23 24
f 7 24 8
f 8 24 25
f 8 25 9
f 9 25 26
f 9 26 27
f 9 27 10
f 28 21 29
f 28 29 30
f 30 29 31
f 30 31 32
f 32 31 33
f 32 33 34
f 34 33 35
f 34 35 36
f 36 35 37
f 37 35 38
f 37 38 39
f 37 39 40
f 37 40 41
f 37 41 42
f 42 41 13
f 42 13 12
f 21 20 29
f 29 20 43
f 29 43 31
f 31 43 44
f 31 44 33
f 33 44 38
f 33 38 35
f 14 13 41
f 14 41 45
f 14 45 46
f 14 46 47
f 14 47 15
f 15 47 48
f 15 48 49
f 15 49 16
f 16 49 17
f 17 49 50
f 17 50 51
f 17 51 18
f 18 51 52
f 18 52 53
f 18 53 19
f 19 53 54
f 19 54 20
f 20 54 43
f 43 54 55
f 43 55 46
f 43 46 44
f 44 46 45
f 44 45 39
f 44 39 38
f 45 41 40
f 45 40 39
f 26 56 27
f 56 26 57
f 56 57 58
f 58 57 59
f 58 59 60
f 60 59 61
f 60 61 62
f 62 61 63
f 62 63 64
f 65 23 22
f 65 22 66
f 66 22 21
f 66 21 28
f 67 68 69
f 67 69 70
f 67 70 71
f 67 71 72
f 67 72 52
f 67 52 51
f 67 51 50
f 67 50 68
f 68 50 49
f 68 49 48
f 68 48 69
f 69 48 73
f 69 73 70
f 70 73 74
f 70 74 71
f 71 74 75
f 71 75 72
f 72 75 53
f 72 53 52
f 73 48 47
f 73 47 46
f 73 46 74
f 74 46 55
f 74 55 75
f 75 55 54
f 75 54 53
f 76 77 78
f 76 78 79
f 76 79 80
f 76 80 81
f 76 81 82
f 76 82 83
f 76 83 77
f 77 83 84
f 84 83 85
f 84 85 86
f 86 85 87
f 86 87 88
f 88 87 89
f 88 89 90
f 90 89 91
f 90 91 92
f 92 91 93
f 92 93 94
f 95 96 97
f 95 97 98
f 95 98 99
f 95 99 100
f 95 100 101
f 95 101 96
f 96 101 102
f 96 102 81
f 96 81 103
f 96 103 97
f 97 103 104
f 97 104 105
f 97 105 98
f 98 105 106
f 98 106 107
f 98 107 99
f 79 78 108
f 79 108 109
f 79 109 110
f 79 110 111
f 79 111 80
f 80 111 112
f 80 112 113
f 80 113 114
f 80 114 103
f 80 103 81
f 109 108 115
f 109 115 116
f 109 116 117
f 109 117 118
f 109 118 110
f 110 118 119
f 110 119 120
f 110 120 111
f 111 120 112
f 112 120 121
f 112 121 122
f 112 122 113
f 113 122 123
f 113 123 124
f 113 124 114
f 114 124 125
f 114 125 103
f 103 125 104
f 104 125 126
f 104 126 117
f 104 117 127
f 104 127 105
f 105 127 128
f 105 128 106
f 106 128 129
f 106 129 130
f 106 130 107
f 116 115 131
f 116 131 132
f 116 132 127
f 116 127 117
f 129 128 133
f 129 133 134
f 129 134 135
f 129 135 130
f 128 127 136
f 128 136 133
f 133 136 131
f 133 131 134
f 134 131 137
f 134 137 135
f 127 132 136
f 136 132 131
f 138 139 101
f 138 101 100
f 139 140 102
f 139 102 101
f 140 141 82
f 140 82 102
f 102 82 81
f 141 85 83
f 141 83 82
f 142 143 144
f 142 144 145
f 142 145 146
f 142 146 147
f 142 147 123
f 142 123 122
f 142 122 121
f 142 121 143
f 143 121 120
f 143 120 119
f 143 119 144
f 144 119 148
f 144 148 145
f 145 148 149
f 145 149 146
f 146 149 150
f 146 150 147
f 147 150 124
f 147 124 123
f 148 119 118
f 148 118 117
f 148 117 149
f 149 117 126
f 149 126 150
f 150 126 125
f 150 125 124
f 151 152 153
f 151 153 154
f 151 154 155
f 151 155 156
f 151 156 157
f 151 157 158
f 151 158 152
f 152 158 159
f 152 159 160
f 152 160 161
f 152 161 153
f 153 161 162
f 153 162 163
f 153 163 154
f 154 163 164
f 154 164 165
f 154 165 166
f 154 166 155
f 155 166 167
f 155 167 168
f 155 168 169
f 155 169 170
f 155 170 156
f 156 170 171
f 156 171 172
f 156 172 157
f 157 172 173
f 157 173 174
f 157 174 158
f 158 174 175
f 158 175 159
f 159 175 176
f 159 176 177
f 159 177 160
f 178 171 179
f 178 179 180
f 180 179 181
f 180 181 182
f 182 181 183
f 182 183 184
f 184 183 185
f 184 185 186
f 186 185 187
f 187 185 188
f 187 188 189
f 187 189 190
f 187 190 191
f 187 191 192
f 192 191 163
f 192 163 162
f 171 170 179
f 179 170 193
f 179 193 181
f 181 193 194
f 181 194 183
f 183 194 188
f 183 188 185
f 164 163 191
f 164 191 195
f 164 195 196
f 164 196 197
f 164 197 165
f 165 197 198
f 165 198 199
f 165 199 166
f 166 199 167
f 167 199 200
f 167 200 201
f 167 201 168
f 168 201 202
f 168 202 203
f 168 203 169
f 169 203 204
f 169 204 170
f 170 204 193
f 193 204 205
f 193 205 196
f 193 196 194
f 194 196 195
f 194 195 189
f 194 189 188
f 195 191 190
f 195 190 189
f 176 206 177
f 206 176 207
f 206 207 208
f 208 207 209
f 208 209 210
f 210 209 211
f 210 211 212
f 212 211 213
f 212 213 214
f 215 173 172
f 215 172 216
f 216 172 171
f 216 171 178
f 217 218 219
f 217 219 220
f 217 220 221
f 217 221 222
f 217 222 202
f 217 202 201
f 217 201 200
f 217 200 218
f 218 200 199
f 218 199 198
f 218 198 219
f 219 198 223
f 219 223 220
f 220 223 224
f 220 224 221
f 221 224 225
f 221 225 222
f 222 225 203
f 222 203 202
f 223 198 197
f 223 197 196
f 223 196 224
f 224 196 205
f 224 205 225
f 225 205 204
f 225 204 203
f 26 25 226
f 26 226 57
f 57 226 59
f 59 226 227
f 59 227 228
f 59 228 61
f 61 228 229
f 61 229 63
f 23 65 230
f 23 230 231
f 23 231 24
f 24 231 232
f 24 232 25
f 25 232 226
f 226 232 233
f 226 233 227
f 227 233 234
f 227 234 228
f 228 234 235
f 228 235 229
f 231 230 236
f 231 236 237
f 231 237 232
f 232 237 233
f 233 237 238
f 233 238 234
f 234 238 239
f 234 239 235
f 237 236 240
f 237 240 238
f 238 240 241
f 238 241 239
f 242 243 244
f 242 244 245
f 242 245 246
f 242 246 247
f 242 247 248
f 242 248 243
f 243 248 249
f 243 249 250
f 243 250 251
f 243 251 244
f 244 251 252
f 244 252 253
f 244 253 245
f 245 253 254
f 245 254 255
f 245 255 246
f 256 257 258
f 256 258 259
f 256 259 260
f 256 260 261
f 256 261 262
f 256 262 257
f 257 262 263
f 257 263 249
f 257 249 258
f 258 249 248
f 258 248 247
f 258 247 259
f 259 247 264
f 259 264 265
f 259 265 260
f 260 265 266
f 260 266 267
f 260 267 261
f 261 267 268
f 261 268 269
f 269 268 270
f 269 270 271
f 271 270 272
f 271 272 273
f 273 272 274
f 273 274 275
f 273 275 276
f 273 276 277
f 277 276 278
f 277 278 279
f 279 278 280
f 279 280 281
f 281 280 282
f 281 282 283
f 281 283 284
f 281 284 285
f 265 264 286
f 265 286 266
f 266 286 287
f 266 287 288
f 266 288 267
f 267 288 268
f 268 288 289
f 268 289 270
f 270 289 272
f 272 289 290
f 272 290 274
f 274 290 291
f 274 291 292
f 274 292 275
f 275 292 293
f 275 293 276
f 276 293 294
f 276 294 278
f 278 294 280
f 280 294 295
f 280 295 282
f 282 295 296
f 282 296 297
f 282 297 283
f 283 297 298
f 283 298 284
f 250 249 263
f 255 254 299
f 300 301 302
f 300 302 303
f 300 303 304
f 300 304 305
f 305 304 306
f 305 306 307
f 307 306 308
f 307 308 309
f 304 303 310
f 304 310 311
f 304 311 312
f 304 312 306
f 306 312 313
f 306 313 308
f 311 310 314
f 311 314 315
f 311 315 316
f 311 316 312
f 312 316 317
f 312 317 313
f 315 314 318
f 315 318 319
f 315 319 320
f 315 320 316
f 316 320 321
f 316 321 317
f 318 314 302
f 318 302 322
f 322 302 323
f 323 302 324
f 324 302 301
f 324 301 325
f 314 310 302
f 302 310 303
f 85 141 326
f 85 326 87
f 87 326 89
f 89 326 327
f 89 327 328
f 89 328 91
f 91 328 329
f 91 329 93
f 139 138 330
f 139 330 331
f 139 331 140
f 140 331 332
f 140 332 141
f 141 332 326
f 326 332 327
f 327 332 333
f 327 333 334
f 327 334 328
f 328 334 335
f 328 335 329
f 331 330 336
f 331 336 337
f 331 337 332
f 332 337 333
f 333 337 338
f 333 338 334
f 334 338 339
f 334 339 335
f 337 336 340
f 337 340 338
f 338 340 341
f 338 341 339
f 290 289 287
f 290 287 342
f 290 342 291
f 291 342 343
f 291 343 292
f 292 343 344
f 292 344 293
f 293 344 294
f 294 344 295
f 295 344 345
f 295 345 296
f 296 345 346
f 296 346 297
f 297 346 347
f 297 347 298
f 287 289 288
f 348 349 350
f 348 350 351
f 348 351 352
f 348 352 353
f 348 353 354
f 348 354 349
f 349 354 355
f 349 355 356
f 349 356 357
f 349 357 358
f 349 358 350
f 350 358 359
f 350 359 351
f 351 359 360
f 351 360 352
f 352 360 361
f 361 360 359
f 361 359 362
f 361 362 363
f 363 362 364
f 364 362 365
f 365 362 358
f 365 358 357
f 365 357 366
f 366 357 367
f 367 357 356
f 367 356 368
f 367 368 369
f 369 368 370
f 370 368 371
f 370 371 372
f 370 372 373
f 373 372 374
f 374 372 375
f 375 372 376
f 375 376 377
f 377 376 378
f 378 376 379
f 378 379 380
f 380 379 381
f 381 379 382
f 381 382 383
f 381 383 354
f 381 354 353
f 359 358 362
f 382 379 376
f 382 376 384
f 382 384 385
f 382 385 383
f 383 385 354
f 354 385 355
f 355 385 368
f 355 368 356
f 385 384 371
f 385 371 368
f 376 372 371
f 376 371 384
f 176 175 386
f 176 386 207
f 207 386 209
f 209 386 387
f 209 387 388
f 209 388 211
f 211 388 389
f 211 389 213
f 174 173 390
f 174 390 391
f 174 391 175
f 175 391 386
f 386 391 392
f 386 392 387
f 387 392 393
f 387 393 388
f 388 393 394
f 388 394 389
f 391 390 395
f 391 395 392
f 392 395 396
f 392 396 393
f 393 396 397
f 393 397 394
f 395 398 399
f 395 399 396
f 396 399 400
f 396 400 397
f 398 395 390
f 398 390 401
f 401 390 173
f 401 173 215
f 402 403 404
f 402 404 405
f 402 405 406
f 406 405 407
f 407 405 408
f 407 408 409
f 409 408 410
f 409 410 411
f 411 410 412
f 411 412 413
f 413 412 414
f 413 414 415
f 415 414 416
f 415 416 417
f 415 417 418
f 415 418 419
f 419 418 420
f 419 420 421
f 419 421 422
f 422 421 423
f 422 423 424
f 424 423 425
f 424 425 426
f 424 426 427
f 424 427 428
f 424 428 429
f 429 428 430
f 405 404 431
f 405 431 408
f 408 431 432
f 408 432 410
f 410 432 433
f 410 433 412
f 412 433 434
f 412 434 414
f 414 434 435
f 414 435 416
f 416 435 436
f 416 436 421
f 416 421 437
f 416 437 438
f 416 438 417
f 417 438 439
f 417 439 440
f 417 440 441
f 417 441 418
f 418 441 439
f 418 439 420
f 420 439 438
f 420 438 442
f 420 442 437
f 420 437 421
f 443 444 425
f 443 425 445
f 443 445 446
f 443 446 447
f 445 425 423
f 445 423 448
f 445 448 449
f 445 449 446
f 448 423 421
f 448 421 436
f 448 436 450
f 448 450 449
f 451 452 426
f 451 426 453
f 451 453 454
f 451 454 455
f 451 455 456
f 451 456 457
f 451 457 452
f 452 457 427
f 452 427 426
f 458 459 460
f 458 460 461
f 458 461 442
f 458 442 462
f 458 462 463
f 458 463 459
f 459 463 464
f 464 463 460
f 460 463 461
f 461 463 465
f 461 465 442
f 442 465 437
f 437 465 462
f 437 462 438
f 438 462 442
f 462 465 463
f 457 456 466
f 457 466 427
f 427 466 467
f 427 467 428
f 428 467 456
f 456 467 466
f 456 455 468
f 404 403 469
f 404 469 431
f 431 469 470
f 431 470 432
f 432 470 471
f 432 471 433
f 433 471 472
f 433 472 434
f 434 472 473
f 434 473 435
f 435 473 474
f 435 474 436
f 436 474 450
f 475 476 477
f 475 477 478
f 475 478 441
f 475 441 440
f 475 440 479
f 475 479 476
f 476 479 480
f 480 479 477
f 477 479 478
f 478 479 481
f 478 481 441
f 441 481 439
f 439 481 440
f 440 481 479
f 453 426 425
f 453 425 444
f 453 444 454
