# RS2 Model 24448
# Vertices: 88
# Faces: 158

v 76 -12 95
v 72 -16 95
v 75 -18 88
v 79 -13 89
v 72 -9 95
v 72 -6 93
v 78 -13 97
v 72 -20 94
v 69 -14 94
v 71 -16 87
v 73 -15 80
v 75 -17 80
v 75 -13 89
v 77 -9 84
v 77 -19 83
v 81 -14 83
v 75 -9 89
v 69 -12 94
v 66 -13 92
v 65 -10 96
v 68 -7 98
v 71 -11 100
v 68 -15 98
v 66 -17 92
v 71 -13 88
v 75 -15 80
v 81 -16 76
v 79 -12 77
v 79 -19 78
v 67 -10 108
v 64 -16 104
v 64 -3 104
v 63 -5 103
v 65 -10 106
v 63 -14 103
v 61 -16 101
v 65 -13 96
v 61 -3 100
v 62 -5 100
v 59 -13 97
v 59 -7 97
v 61 -8 98
v 62 -14 101
v 61 -12 98
v -72 -16 95
v -76 -12 95
v -79 -13 89
v -75 -18 88
v -69 -14 94
v -66 -17 92
v -72 -20 94
v -78 -13 97
v -72 -9 95
v -75 -9 89
v -77 -9 84
v -81 -14 83
v -77 -19 83
v -75 -13 89
v -75 -15 80
v -75 -17 80
v -71 -16 87
v -69 -12 94
v -66 -13 92
v -65 -13 96
v -68 -15 98
v -71 -11 100
v -68 -7 98
v -72 -6 93
v -71 -13 88
v -79 -19 78
v -79 -12 77
v -81 -16 76
v -73 -15 80
v -67 -10 108
v -64 -16 104
v -63 -14 103
v -65 -10 106
v -64 -3 104
v -61 -16 101
v -62 -14 101
v -61 -3 100
v -59 -7 97
v -65 -10 96
v -59 -13 97
v -61 -12 98
v -61 -8 98
v -63 -5 103
v -62 -5 100

f 1 2 3
f 1 3 4
f 1 4 5
f 1 5 6
f 1 6 7
f 1 7 2
f 2 7 8
f 2 8 9
f 2 9 10
f 2 10 3
f 3 10 11
f 3 11 12
f 3 12 13
f 3 13 14
f 3 14 15
f 3 15 4
f 4 15 16
f 4 16 17
f 4 17 5
f 5 17 18
f 5 18 19
f 5 19 6
f 6 19 20
f 6 20 21
f 6 21 7
f 7 21 22
f 7 22 8
f 8 22 23
f 8 23 24
f 8 24 9
f 9 24 18
f 9 18 25
f 9 25 10
f 10 25 11
f 11 25 26
f 11 26 12
f 12 26 13
f 13 26 25
f 13 25 17
f 13 17 14
f 14 17 16
f 14 16 27
f 14 27 28
f 14 28 15
f 15 28 29
f 15 29 16
f 16 29 27
f 27 29 28
f 18 17 25
f 30 31 23
f 30 23 22
f 30 22 32
f 30 32 33
f 30 33 34
f 30 34 31
f 31 34 35
f 31 35 36
f 31 36 23
f 23 36 37
f 23 37 24
f 24 37 19
f 24 19 18
f 21 32 22
f 32 21 38
f 32 38 39
f 32 39 33
f 36 40 37
f 37 40 20
f 37 20 19
f 40 41 20
f 20 41 21
f 21 41 38
f 38 41 42
f 38 42 39
f 35 43 36
f 36 43 40
f 40 43 44
f 40 44 41
f 41 44 42
f 45 46 47
f 45 47 48
f 45 48 49
f 45 49 50
f 45 50 51
f 45 51 46
f 46 51 52
f 46 52 53
f 46 53 54
f 46 54 47
f 47 54 55
f 47 55 56
f 47 56 48
f 48 56 57
f 48 57 58
f 48 58 59
f 48 59 60
f 48 60 61
f 48 61 49
f 49 61 62
f 49 62 63
f 49 63 50
f 50 63 64
f 50 64 65
f 50 65 51
f 51 65 66
f 51 66 52
f 52 66 67
f 52 67 68
f 52 68 53
f 53 68 62
f 53 62 69
f 53 69 54
f 54 69 58
f 54 58 55
f 55 58 57
f 55 57 70
f 55 70 71
f 55 71 56
f 56 71 72
f 56 72 57
f 57 72 70
f 70 72 71
f 62 61 69
f 69 61 73
f 69 73 58
f 58 73 59
f 59 73 60
f 60 73 61
f 74 65 75
f 74 75 76
f 74 76 77
f 74 77 78
f 74 78 66
f 74 66 65
f 75 65 79
f 75 79 80
f 75 80 76
f 67 66 78
f 67 78 81
f 67 81 82
f 67 82 83
f 67 83 68
f 68 83 63
f 68 63 62
f 79 64 84
f 79 84 85
f 79 85 80
f 65 64 79
f 84 83 82
f 84 82 86
f 84 86 85
f 64 83 84
f 83 64 63
f 77 87 78
f 78 87 81
f 81 87 88
f 81 88 82
f 82 88 86
