# RS2 Model 24463
# Vertices: 144
# Faces: 277

v 4 -25 133
v 0 -29 135
v 0 -31 134
v 4 -26 130
v 8 -19 136
v 3 -26 138
v 0 -29 137
v -4 -25 133
v 0 -29 132
v 0 -31 128
v 2 -28 128
v 2 -27 125
v 5 -18 130
v 8 -12 136
v 8 -13 138
v 10 -20 142
v 5 -25 141
v 2 -26 142
v 2 -27 140
v 1 -34 137
v 0 -33 136
v -1 -34 137
v -3 -26 138
v -8 -19 136
v -5 -18 130
v -4 -26 130
v -2 -28 128
v 0 -30 125
v 7 -21 142
v 5 -25 143
v 2 -29 145
v 2 -32 144
v 0 -31 141
v 5 -29 151
v 2 -33 145
v 7 -26 147
v 9 -21 147
v 9 -19 151
v 1 -25 155
v 1 -30 151
v -2 -33 145
v -1 -32 141
v 1 -32 141
v 6 -25 146
v 8 -21 147
v 11 -20 142
v 11 -15 142
v 10 -13 147
v 10 -16 151
v 7 -16 154
v 1 -18 157
v -1 -25 155
v -1 -30 151
v -5 -29 151
v -7 -26 147
v -2 -29 145
v -2 -32 144
v -2 -26 142
v -2 -27 140
v -5 -25 141
v -7 -21 142
v -10 -20 142
v -8 -13 138
v -8 -12 136
v -7 -12 127
v 0 -18 130
v -2 -27 125
v 10 -13 151
v 10 -4 147
v 9 -4 151
v 0 0 147
v 6 -2 144
v 0 -1 143
v -6 -2 144
v -10 -4 147
v -9 -4 151
v -1 -1 151
v 1 -1 151
v 1 -6 155
v 1 -16 157
v -1 -18 157
v -9 -19 151
v 9 -6 146
v 9 -13 147
v 10 -8 146
v 5 -5 142
v 0 -4 141
v 11 -20 138
v 12 -20 138
v 13 -20 134
v 12 -14 136
v 10 -15 142
v 13 -12 147
v 13 -8 148
v 10 -6 143
v 5 -5 140
v 8 -2 135
v 0 0 137
v -5 -5 140
v -5 -5 142
v 8 -28 140
v 9 -29 140
v 8 -30 136
v -5 -25 143
v -6 -25 146
v -9 -21 147
v -8 -21 147
v -10 -16 151
v -10 -13 147
v -11 -15 142
v -11 -20 142
v -10 -13 151
v -9 -13 147
v -10 -15 142
v -12 -14 136
v -12 -20 138
v -11 -20 138
v -13 -12 147
v -12 -12 144
v -13 -6 144
v -10 -6 143
v -12 -6 133
v -9 -6 146
v -10 -8 146
v -13 -8 148
v -17 -5 153
v -17 -8 153
v -16 -5 150
v -13 -20 134
v -9 -29 140
v -8 -28 140
v -8 -30 136
v -1 -16 157
v -7 -16 154
v -1 -6 155
v 12 -12 144
v 17 -8 153
v 17 -5 153
v 13 -6 144
v 12 -6 133
v 0 -13 125
v 7 -12 127
v 16 -5 150
v -8 -2 135

f 1 2 3
f 1 3 4
f 1 4 5
f 1 5 6
f 1 6 2
f 2 6 7
f 2 7 8
f 2 8 3
f 3 8 9
f 3 9 4
f 4 9 10
f 4 10 11
f 4 11 12
f 4 12 13
f 4 13 5
f 5 13 14
f 5 14 15
f 5 15 16
f 5 16 6
f 6 16 17
f 6 17 18
f 6 18 19
f 6 19 20
f 6 20 21
f 6 21 7
f 7 21 22
f 7 22 23
f 7 23 8
f 8 23 24
f 8 24 25
f 8 25 26
f 8 26 9
f 9 26 27
f 9 27 10
f 10 27 28
f 10 28 12
f 10 12 11
f 17 29 30
f 17 30 18
f 18 30 31
f 18 31 32
f 18 32 19
f 19 32 33
f 19 33 20
f 20 33 22
f 20 22 21
f 34 35 36
f 34 36 37
f 34 37 38
f 34 38 39
f 34 39 40
f 34 40 35
f 35 40 41
f 35 41 42
f 35 42 43
f 35 43 33
f 35 33 32
f 35 32 31
f 35 31 36
f 36 31 44
f 36 44 37
f 37 44 45
f 37 45 46
f 37 46 47
f 37 47 48
f 37 48 49
f 37 49 38
f 38 49 50
f 38 50 51
f 38 51 39
f 39 51 52
f 39 52 53
f 39 53 40
f 40 53 41
f 41 53 54
f 41 54 55
f 41 55 56
f 41 56 57
f 41 57 42
f 42 57 33
f 33 57 58
f 33 58 59
f 33 59 22
f 22 59 23
f 23 59 58
f 23 58 60
f 23 60 61
f 23 61 62
f 23 62 24
f 24 62 63
f 24 63 25
f 25 63 64
f 25 64 65
f 25 65 66
f 25 66 28
f 25 28 67
f 25 67 27
f 25 27 26
f 68 48 69
f 68 69 70
f 68 70 50
f 68 50 49
f 68 49 48
f 71 70 69
f 71 69 72
f 71 72 73
f 71 73 74
f 71 74 75
f 71 75 76
f 71 76 77
f 71 77 78
f 71 78 70
f 70 78 79
f 70 79 50
f 50 79 80
f 50 80 51
f 51 80 81
f 51 81 52
f 52 81 82
f 52 82 54
f 52 54 53
f 83 69 48
f 83 48 84
f 83 84 85
f 83 85 86
f 83 86 72
f 83 72 69
f 86 87 73
f 86 73 72
f 45 16 46
f 46 16 88
f 46 88 89
f 46 89 47
f 47 89 90
f 47 90 91
f 47 91 92
f 47 92 48
f 48 92 84
f 84 92 85
f 85 92 93
f 85 93 94
f 85 94 95
f 85 95 86
f 86 95 96
f 86 96 87
f 87 96 97
f 87 97 98
f 87 98 99
f 87 99 100
f 87 100 74
f 87 74 73
f 16 92 91
f 16 91 88
f 88 91 90
f 88 90 101
f 88 101 102
f 88 102 89
f 89 102 90
f 90 102 103
f 90 103 101
f 101 103 102
f 104 61 60
f 104 60 58
f 104 58 56
f 104 56 105
f 104 105 62
f 104 62 61
f 55 54 82
f 55 82 106
f 55 106 107
f 55 107 105
f 55 105 56
f 106 82 108
f 106 108 109
f 106 109 110
f 106 110 111
f 106 111 62
f 106 62 107
f 107 62 105
f 109 112 76
f 109 76 75
f 109 75 113
f 109 113 110
f 110 113 114
f 110 114 115
f 110 115 111
f 111 115 116
f 111 116 62
f 62 116 117
f 62 117 114
f 62 114 63
f 63 114 118
f 63 118 119
f 63 119 120
f 63 120 64
f 64 120 121
f 64 121 99
f 64 99 122
f 64 122 65
f 75 123 113
f 113 123 124
f 113 124 114
f 114 124 125
f 114 125 118
f 118 125 126
f 118 126 127
f 118 127 119
f 119 127 128
f 119 128 120
f 120 128 125
f 120 125 124
f 120 124 121
f 121 124 123
f 121 123 100
f 121 100 99
f 100 123 75
f 100 75 74
f 114 129 115
f 115 129 116
f 116 129 130
f 116 130 117
f 117 130 131
f 117 131 132
f 117 132 129
f 117 129 114
f 81 80 133
f 81 133 134
f 81 134 82
f 82 134 108
f 108 134 112
f 108 112 109
f 133 80 79
f 133 79 135
f 133 135 134
f 134 135 76
f 134 76 112
f 135 79 77
f 135 77 76
f 130 129 132
f 130 132 131
f 79 78 77
f 44 30 29
f 44 29 16
f 44 16 45
f 17 16 29
f 66 13 12
f 66 12 28
f 16 15 92
f 92 15 136
f 92 136 93
f 93 136 137
f 93 137 94
f 94 137 138
f 94 138 139
f 94 139 95
f 95 139 14
f 95 14 96
f 96 14 140
f 96 140 97
f 141 142 13
f 141 13 66
f 141 66 65
f 13 142 140
f 13 140 14
f 136 15 14
f 136 14 139
f 136 139 137
f 137 139 143
f 137 143 138
f 138 143 139
f 31 30 44
f 58 57 56
f 27 67 28
f 99 98 144
f 99 144 122
f 125 128 126
f 126 128 127
