# RS2 Model 24462
# Vertices: 114
# Faces: 218

v -7 -12 127
v 0 -13 125
v 0 -18 130
v -5 -18 130
v -8 -12 136
v -12 -6 133
v -6 -7 137
v -8 -2 135
v 0 -6 139
v 0 0 137
v 8 -2 135
v 6 -7 137
v 12 -6 133
v 8 -12 136
v 7 -12 127
v 5 -18 130
v 4 -21 126
v 3 -27 124
v -4 -21 126
v 9 -18 131
v 7 -23 128
v 6 -26 130
v 3 -30 127
v 3 -31 126
v 3 -28 121
v -3 -28 121
v -3 -27 124
v -7 -23 128
v -9 -18 131
v -2 -26 142
v 0 -30 144
v -6 -25 144
v -5 -25 143
v -5 -25 141
v -2 -27 140
v 0 -30 141
v 2 -26 142
v 6 -25 144
v 7 -29 147
v 0 -32 148
v -7 -29 147
v -10 -19 142
v -7 -21 142
v -7 -25 133
v -3 -26 138
v -1 -33 137
v -1 -34 138
v 0 -34 138
v 2 -27 140
v 5 -25 141
v 5 -25 143
v 10 -19 142
v 9 -20 145
v 7 -26 152
v 0 -31 151
v -7 -26 152
v -9 -20 145
v -10 -15 142
v -11 -19 136
v -6 -26 130
v -5 -25 133
v 0 -29 137
v 0 -33 136
v 1 -34 138
v 1 -33 137
v 3 -26 138
v 7 -25 133
v 7 -21 142
v 0 -29 135
v 5 -25 133
v 0 -31 134
v 0 -29 132
v -3 -30 127
v 0 -30 130
v 0 -31 130
v 0 -34 125
v 3 -31 124
v 2 -30 119
v -2 -30 119
v -3 -31 124
v -3 -31 126
v -8 -13 138
v -13 -6 144
v -10 -6 143
v -6 -2 143
v 6 -2 143
v 10 -6 143
v 13 -6 144
v 8 -13 138
v 11 -19 136
v -13 -12 147
v -12 -12 144
v -16 -5 150
v -13 -8 148
v -10 -8 146
v -7 -6 151
v 0 -2 149
v 7 -6 151
v 10 -8 146
v 13 -8 148
v 16 -5 150
v 12 -12 144
v 13 -12 147
v 10 -15 142
v 0 -27 155
v 0 -20 157
v -7 -17 153
v -17 -5 153
v -17 -8 153
v 0 -5 153
v 0 -14 157
v 7 -17 153
v 17 -5 153
v 17 -8 153

f 1 2 3
f 1 3 4
f 1 4 5
f 1 5 6
f 6 5 7
f 6 7 8
f 8 7 9
f 8 9 10
f 10 9 11
f 11 9 12
f 11 12 13
f 13 12 14
f 13 14 15
f 15 14 16
f 15 16 3
f 15 3 2
f 17 18 19
f 17 19 3
f 17 3 16
f 17 16 20
f 17 20 21
f 17 21 18
f 18 21 22
f 18 22 23
f 18 23 24
f 18 24 25
f 18 25 26
f 18 26 27
f 18 27 19
f 19 27 28
f 19 28 29
f 19 29 4
f 19 4 3
f 30 31 32
f 30 32 33
f 30 33 34
f 30 34 35
f 30 35 36
f 30 36 31
f 31 36 37
f 31 37 38
f 31 38 39
f 31 39 40
f 31 40 41
f 31 41 32
f 32 41 42
f 32 42 33
f 33 42 43
f 33 43 34
f 34 43 42
f 34 42 44
f 34 44 45
f 34 45 35
f 35 45 46
f 35 46 47
f 35 47 48
f 35 48 36
f 36 48 49
f 36 49 37
f 37 49 50
f 37 50 51
f 37 51 38
f 38 51 52
f 38 52 39
f 39 52 53
f 39 53 54
f 39 54 55
f 39 55 40
f 40 55 41
f 41 55 56
f 41 56 57
f 41 57 42
f 42 57 58
f 42 58 59
f 42 59 44
f 44 59 60
f 44 60 61
f 44 61 45
f 45 61 62
f 45 62 46
f 46 62 63
f 46 63 47
f 47 63 48
f 48 63 64
f 48 64 49
f 49 64 65
f 49 65 66
f 49 66 50
f 50 66 67
f 50 67 52
f 50 52 68
f 50 68 51
f 51 68 52
f 61 69 62
f 62 69 70
f 62 70 66
f 62 66 65
f 62 65 63
f 63 65 64
f 71 61 60
f 71 60 72
f 71 72 22
f 71 22 70
f 71 70 69
f 71 69 61
f 29 28 59
f 29 59 5
f 29 5 4
f 60 27 73
f 60 73 74
f 60 74 72
f 72 74 22
f 22 74 23
f 23 74 24
f 24 74 75
f 24 75 76
f 24 76 77
f 24 77 25
f 25 77 78
f 25 78 79
f 25 79 26
f 26 79 80
f 26 80 81
f 26 81 27
f 27 81 73
f 73 81 74
f 74 81 75
f 75 81 76
f 76 81 80
f 76 80 79
f 76 79 78
f 76 78 77
f 59 82 5
f 5 82 83
f 5 83 84
f 5 84 7
f 7 84 85
f 7 85 9
f 9 85 86
f 9 86 12
f 12 86 87
f 12 87 14
f 14 87 88
f 14 88 89
f 14 89 90
f 14 90 20
f 14 20 16
f 58 82 59
f 82 58 91
f 82 91 92
f 82 92 83
f 83 92 93
f 83 93 94
f 83 94 95
f 83 95 84
f 84 95 96
f 84 96 85
f 85 96 97
f 85 97 86
f 86 97 98
f 86 98 87
f 87 98 99
f 87 99 88
f 88 99 100
f 88 100 101
f 88 101 102
f 88 102 89
f 89 102 103
f 89 103 104
f 89 104 90
f 90 104 52
f 90 52 67
f 90 67 22
f 90 22 21
f 90 21 20
f 56 105 106
f 56 106 107
f 56 107 57
f 57 107 58
f 58 107 96
f 58 96 95
f 58 95 94
f 58 94 91
f 91 94 108
f 91 108 109
f 91 109 92
f 92 109 93
f 93 109 108
f 93 108 94
f 96 110 97
f 97 110 98
f 98 110 111
f 98 111 112
f 98 112 104
f 98 104 99
f 99 104 100
f 100 104 103
f 100 103 113
f 100 113 101
f 101 113 114
f 101 114 102
f 102 114 103
f 103 114 113
f 60 28 27
f 28 60 59
f 55 105 56
f 105 55 54
f 105 54 106
f 106 54 112
f 106 112 111
f 106 111 107
f 107 111 96
f 96 111 110
f 66 70 67
f 67 70 22
f 112 53 104
f 104 53 52
f 53 112 54
