# RS2 Model 2446
# Vertices: 139
# Faces: 189

v -5 23 12
v -5 21 12
v -3 24 12
v -4 26 12
v -12 19 12
v -13 21 12
v -15 20 12
v -15 22 12
v -3 16 12
v -2 14 12
v -1 16 12
v -1 18 12
v -9 11 12
v -10 13 12
v -12 12 12
v -13 14 12
v 2 3 12
v 3 1 12
v 4 3 12
v 3 5 12
v -5 -2 12
v -5 0 12
v -7 -1 12
v -8 1 12
v -1 10 12
v 0 8 12
v 1 11 12
v 1 13 12
v -7 6 12
v -8 7 12
v -10 7 12
v -11 9 12
v 7 -12 12
v 8 -13 12
v 9 -11 12
v 8 -9 12
v 0 -16 12
v 0 -14 12
v -2 -15 12
v -3 -13 12
v 4 -4 12
v 5 -6 12
v 6 -3 12
v 6 -1 12
v -2 -9 12
v -3 -7 12
v -5 -7 12
v -6 -5 12
v -6 35 4
v -19 30 4
v -14 35 3
v -6 38 5
v -4 39 7
v -6 34 10
v -21 32 5
v -23 32 7
v -19 29 10
v -19 33 11
v -13 34 12
v -8 37 11
v -28 25 8
v -28 25 4
v -23 6 2
v -23 6 10
v -23 21 12
v -36 18 4
v -36 18 8
v -20 -7 8
v -20 -7 2
v -21 -19 4
v -21 -19 8
v -18 -22 10
v -18 -22 1
v -16 -33 7
v -16 -33 4
v -14 -41 8
v -15 -40 4
v -16 -45 7
v -16 -44 5
v -19 -45 7
v -19 -44 5
v -22 -44 8
v -22 -42 4
v -24 -35 7
v -24 -35 4
v -29 -27 10
v -29 -27 1
v -26 -21 8
v -26 -21 3
v -32 -12 2
v -32 -12 8
v -34 3 8
v -34 3 3
v 11 19 10
v 11 19 2
v 4 36 4
v 4 36 8
v 2 30 12
v 22 -32 9
v 26 -24 9
v 28 -23 5
v 18 6 8
v 22 24 8
v 15 36 8
v -10 26 12
v 5 31 1
v -10 26 1
v -25 20 1
v 1 -41 -2
v -8 -37 2
v -10 -35 5
v -7 -36 9
v 0 -36 8
v 27 -27 2
v 30 10 8
v 32 -1 8
v 30 10 2
v 21 24 4
v 15 36 4
v 18 6 2
v 26 -3 4
v 26 -3 8
v 26 -7 10
v 37 -3 10
v 32 -1 3
v 26 -7 1
v 31 -16 4
v 31 -16 7
v 38 -13 7
v 37 -3 1
v 42 -21 8
v 35 -24 8
v 41 -24 7
v 42 -19 4
v 38 -13 4
v 34 -22 4
v 38 -25 5
v 39 -26 7
v 41 -23 5

f 1 2 3
f 1 3 4
f 5 2 1
f 5 1 6
f 5 6 7
f 7 6 8
f 9 10 11
f 9 11 12
f 13 10 9
f 13 9 14
f 13 14 15
f 15 14 16
f 17 18 19
f 17 19 20
f 21 18 17
f 21 17 22
f 21 22 23
f 23 22 24
f 25 26 27
f 25 27 28
f 29 26 25
f 29 25 30
f 29 30 31
f 31 30 32
f 33 34 35
f 33 35 36
f 37 34 33
f 37 33 38
f 37 38 39
f 39 38 40
f 41 42 43
f 41 43 44
f 45 42 41
f 45 41 46
f 45 46 47
f 47 46 48
f 49 50 51
f 49 51 52
f 49 52 53
f 49 53 54
f 49 54 53
f 49 53 52
f 49 52 51
f 49 51 50
f 50 51 55
f 50 55 51
f 55 50 56
f 55 56 50
f 50 56 57
f 50 57 56
f 56 57 58
f 56 58 57
f 57 58 59
f 57 59 58
f 59 57 54
f 59 54 60
f 59 60 54
f 59 54 57
f 54 53 60
f 54 60 53
f 61 62 63
f 61 63 64
f 61 64 65
f 61 65 50
f 61 50 62
f 61 62 66
f 61 66 67
f 61 67 64
f 61 64 62
f 62 64 63
f 63 64 68
f 63 68 69
f 69 68 70
f 70 68 71
f 70 71 72
f 70 72 73
f 73 72 74
f 73 74 75
f 75 74 76
f 75 76 77
f 77 76 78
f 77 78 79
f 79 78 80
f 79 80 81
f 81 80 82
f 81 82 83
f 83 82 84
f 83 84 85
f 85 84 86
f 85 86 87
f 87 86 88
f 87 88 89
f 89 88 90
f 90 88 91
f 90 91 92
f 90 92 93
f 93 92 67
f 93 67 66
f 94 95 96
f 94 96 97
f 94 97 98
f 94 98 99
f 94 99 100
f 94 100 101
f 94 101 95
f 94 95 102
f 94 102 103
f 94 103 104
f 94 104 97
f 94 97 96
f 94 96 95
f 54 57 105
f 54 105 98
f 54 98 49
f 49 98 97
f 49 97 96
f 49 96 106
f 49 106 107
f 49 107 50
f 50 107 108
f 50 108 62
f 62 108 63
f 63 108 109
f 63 109 110
f 63 110 111
f 63 111 64
f 64 111 112
f 64 112 113
f 64 113 65
f 65 113 105
f 65 105 57
f 65 57 50
f 113 99 105
f 105 99 98
f 95 101 114
f 95 106 96
f 115 103 102
f 115 102 116
f 115 116 117
f 115 117 103
f 103 117 118
f 103 118 104
f 104 118 119
f 104 119 97
f 97 119 96
f 95 120 102
f 102 120 121
f 102 121 122
f 102 122 116
f 116 122 123
f 116 123 124
f 116 124 125
f 116 125 117
f 122 121 126
f 122 126 123
f 123 126 127
f 123 127 128
f 123 128 124
f 124 128 129
f 124 129 130
f 124 130 125
f 131 129 128
f 131 128 132
f 131 132 133
f 131 133 134
f 131 134 135
f 131 135 129
f 129 135 130
f 128 127 136
f 128 136 132
f 132 136 137
f 132 137 138
f 132 138 133
f 133 138 139
f 133 139 134
f 139 138 137
f 76 74 84
f 76 84 82
f 76 82 78
f 78 82 80
f 88 71 68
f 88 68 91
f 91 68 92
f 92 68 64
f 92 64 67
f 71 88 86
f 71 86 72
f 72 86 84
f 72 84 74
