# RS2 Model 24470
# Vertices: 112
# Faces: 214

v 0 -13 125
v 7 -12 127
v 5 -18 130
v 0 -18 130
v -7 -12 127
v -5 -18 130
v -8 -12 136
v -12 -6 133
v -8 -2 135
v -6 -7 137
v 0 0 137
v 0 -6 139
v 8 -2 135
v 6 -7 137
v 12 -6 133
v 8 -12 136
v 4 -28 144
v 0 -30 144
v 2 -26 142
v 4 -25 143
v 5 -26 144
v 4 -30 146
v 4 -28 149
v 0 -31 146
v -6 -27 149
v -6 -29 146
v -6 -25 144
v -2 -26 142
v 0 -30 141
v 2 -27 140
v 3 -26 138
v 4 -25 142
v 5 -24 143
v 6 -25 144
v 6 -29 146
v 5 -28 146
v 6 -26 152
v 5 -27 153
v 2 -28 154
v -2 -28 154
v -7 -26 152
v -10 -15 142
v -10 -19 142
v -5 -25 143
v -5 -25 141
v -3 -26 138
v -2 -27 140
v 0 -34 138
v 1 -34 138
v 1 -33 137
v 0 -29 137
v 0 -29 135
v 4 -25 133
v 5 -24 137
v 5 -24 142
v 6 -24 142
v 6 -24 143
v 7 -21 142
v 10 -19 142
v 7 -27 149
v 7 -26 152
v 6 -17 155
v 2 -22 157
v -2 -22 157
v -2 -10 158
v -7 -9 154
v -10 -8 146
v -13 -8 148
v -13 -12 147
v -8 -13 138
v -8 -19 136
v -7 -21 142
v 7 -22 141
v 8 -19 136
v 8 -13 138
v 4 -26 130
v 12 -12 144
v 10 -15 142
v 10 -8 146
v 7 -9 154
v 2 -10 158
v 0 -2 153
v -6 -4 149
v -10 -6 143
v -13 -6 144
v -16 -5 150
v -17 -5 153
v -17 -8 153
v -12 -12 144
v -4 -26 130
v -4 -25 133
v -7 -22 136
v -1 -33 137
v -1 -34 138
v 0 -33 136
v 0 -31 134
v 0 -29 132
v 2 -28 128
v 2 -27 126
v 0 -30 125
v -2 -27 126
v -2 -28 128
v 0 -30 130
v 0 -31 128
v 6 -4 149
v 10 -6 143
v 13 -6 144
v 17 -8 153
v 13 -12 147
v 13 -8 148
v 17 -5 153
v 16 -5 150

f 1 2 3
f 1 3 4
f 1 4 5
f 5 4 6
f 5 6 7
f 5 7 8
f 8 7 9
f 9 7 10
f 9 10 11
f 11 10 12
f 11 12 13
f 13 12 14
f 13 14 15
f 15 14 16
f 15 16 3
f 15 3 2
f 17 18 19
f 17 19 20
f 17 20 21
f 17 21 22
f 17 22 18
f 18 22 23
f 18 23 24
f 18 24 25
f 18 25 26
f 18 26 27
f 18 27 28
f 18 28 29
f 18 29 30
f 18 30 19
f 19 30 31
f 19 31 32
f 19 32 20
f 20 32 33
f 20 33 21
f 21 33 34
f 21 34 35
f 21 35 36
f 21 36 22
f 22 36 23
f 23 36 37
f 23 37 38
f 23 38 39
f 23 39 24
f 24 39 40
f 24 40 25
f 25 40 41
f 25 41 42
f 25 42 43
f 25 43 26
f 26 43 27
f 27 43 44
f 27 44 28
f 28 44 45
f 28 45 46
f 28 46 47
f 28 47 29
f 29 47 48
f 29 48 49
f 29 49 30
f 30 49 31
f 31 49 50
f 31 50 51
f 31 51 52
f 31 52 53
f 31 53 54
f 31 54 32
f 32 54 55
f 32 55 33
f 33 55 56
f 33 56 57
f 33 57 34
f 34 57 58
f 34 58 59
f 34 59 35
f 35 59 60
f 35 60 36
f 36 60 61
f 36 61 37
f 37 61 62
f 37 62 38
f 38 62 39
f 39 62 63
f 39 63 40
f 40 63 64
f 40 64 41
f 41 64 65
f 41 65 66
f 41 66 67
f 41 67 42
f 42 67 68
f 42 68 69
f 42 69 70
f 42 70 43
f 43 70 71
f 43 71 45
f 43 45 72
f 43 72 44
f 44 72 45
f 56 55 54
f 56 54 73
f 56 73 58
f 56 58 57
f 74 75 59
f 74 59 73
f 74 73 54
f 74 54 53
f 74 53 76
f 74 76 3
f 74 3 75
f 75 3 16
f 75 16 77
f 75 77 78
f 75 78 59
f 59 78 60
f 60 78 61
f 61 78 79
f 61 79 62
f 62 79 80
f 62 80 81
f 62 81 63
f 63 81 64
f 64 81 65
f 65 81 82
f 65 82 83
f 65 83 66
f 66 83 67
f 67 83 84
f 67 84 85
f 67 85 68
f 68 85 86
f 68 86 87
f 68 87 69
f 69 87 88
f 69 88 89
f 69 89 70
f 70 89 85
f 70 85 7
f 70 7 6
f 70 6 71
f 71 6 90
f 71 90 91
f 71 91 92
f 71 92 45
f 45 92 46
f 46 92 91
f 46 91 51
f 46 51 93
f 46 93 47
f 47 93 94
f 47 94 48
f 48 94 95
f 48 95 49
f 49 95 50
f 50 95 51
f 51 95 93
f 93 95 94
f 76 53 96
f 76 96 97
f 76 97 98
f 76 98 99
f 76 99 3
f 3 99 4
f 4 99 100
f 4 100 6
f 6 100 101
f 6 101 102
f 6 102 90
f 90 102 97
f 90 97 96
f 90 96 91
f 91 96 52
f 91 52 51
f 98 97 103
f 98 103 104
f 98 104 99
f 99 104 100
f 100 104 102
f 100 102 101
f 82 81 80
f 82 80 105
f 82 105 14
f 82 14 12
f 82 12 83
f 83 12 10
f 83 10 84
f 84 10 7
f 84 7 85
f 105 80 79
f 105 79 106
f 105 106 14
f 14 106 16
f 16 106 107
f 16 107 77
f 77 107 108
f 77 108 109
f 77 109 78
f 78 109 79
f 79 109 110
f 79 110 106
f 106 110 107
f 107 110 111
f 107 111 112
f 107 112 108
f 108 112 111
f 108 111 110
f 108 110 109
f 53 52 96
f 97 102 103
f 103 102 104
f 89 88 86
f 89 86 85
f 86 88 87
f 73 59 58
