# RS2 Model 24494
# Vertices: 68
# Faces: 132

v -78 -21 86
v -74 -17 86
v -74 -13 86
v -78 -17 86
v -78 -21 82
v -78 -28 82
v -78 -28 86
v -74 -28 86
v -74 -17 82
v -74 -13 82
v -74 -9 82
v -74 -9 86
v -78 -13 86
v -78 -17 82
v -74 -28 82
v -72 -30 80
v -80 -30 80
v -80 -30 88
v -72 -30 88
v -78 -13 82
v -78 -8 82
v -74 -4 82
v -74 -4 86
v -78 -8 86
v -78 -4 86
v -78 -4 82
v -74 0 82
v -74 0 86
v -78 7 86
v -78 7 82
v -74 7 82
v -74 7 86
v -72 -50 88
v -72 -50 80
v -75 -47 79
v -75 -33 79
v -77 -33 79
v -80 -50 80
v -80 -50 88
v -77 -44 89
v -77 -36 89
v -75 -36 89
v -75 -44 89
v -78 -52 86
v -74 -52 86
v -74 -52 82
v -77 -47 79
v -77 -48 72
v -75 -48 72
v -75 -29 70
v -77 -29 70
v -78 -52 82
v -78 -56 82
v -78 -56 86
v -74 -56 86
v -74 -56 82
v -77 -49 64
v -75 -49 64
v -75 -22 64
v -77 -22 64
v -77 -27 56
v -77 -52 56
v -75 -52 56
v -75 -27 56
v -76 -39 48
v -77 -58 50
v -75 -58 50
v -76 -40 97

f 1 2 3
f 1 3 4
f 1 4 5
f 1 5 6
f 1 6 7
f 1 7 2
f 2 7 8
f 2 8 9
f 2 9 10
f 2 10 3
f 3 10 11
f 3 11 12
f 3 12 4
f 4 12 13
f 4 13 14
f 4 14 5
f 5 14 9
f 5 9 15
f 5 15 6
f 6 15 16
f 6 16 17
f 6 17 7
f 7 17 18
f 7 18 8
f 8 18 19
f 8 19 15
f 8 15 9
f 9 14 10
f 10 14 20
f 10 20 11
f 11 20 21
f 11 21 22
f 11 22 12
f 12 22 23
f 12 23 13
f 13 23 24
f 13 24 20
f 13 20 14
f 20 24 21
f 21 24 25
f 21 25 26
f 21 26 22
f 22 26 27
f 22 27 23
f 23 27 28
f 23 28 25
f 23 25 24
f 26 25 29
f 26 29 30
f 26 30 27
f 27 30 31
f 27 31 28
f 28 31 32
f 28 32 25
f 25 32 29
f 29 32 30
f 30 32 31
f 15 19 16
f 16 19 33
f 16 33 34
f 16 34 35
f 16 35 36
f 16 36 17
f 17 36 37
f 17 37 38
f 17 38 18
f 18 38 39
f 18 39 40
f 18 40 41
f 18 41 19
f 19 41 42
f 19 42 33
f 33 42 43
f 33 43 39
f 33 39 44
f 33 44 45
f 33 45 34
f 34 45 46
f 34 46 38
f 34 38 47
f 34 47 35
f 35 47 48
f 35 48 49
f 35 49 36
f 36 49 50
f 36 50 37
f 37 50 51
f 37 51 47
f 37 47 38
f 39 38 52
f 39 52 44
f 44 52 53
f 44 53 54
f 44 54 45
f 45 54 55
f 45 55 46
f 46 55 56
f 46 56 52
f 46 52 38
f 52 56 53
f 53 56 55
f 53 55 54
f 47 51 48
f 48 51 57
f 48 57 49
f 49 57 58
f 49 58 50
f 50 58 59
f 50 59 51
f 51 59 60
f 51 60 57
f 57 60 61
f 57 61 62
f 57 62 63
f 57 63 58
f 58 63 64
f 58 64 59
f 59 64 60
f 60 64 61
f 61 64 65
f 61 65 66
f 61 66 62
f 62 66 63
f 63 66 67
f 63 67 65
f 63 65 64
f 66 67 65
f 43 40 39
f 40 43 68
f 40 68 41
f 41 68 42
f 42 68 43
