# RS2 Model 24559
# Vertices: 98
# Faces: 184

v 28 1 105
v 25 4 105
v 25 4 103
v 28 1 103
v 31 4 103
v 31 4 105
v 31 4 106
v 30 2 106
v 28 1 106
v 25 4 106
v 28 8 106
v 28 8 105
v 28 8 103
v 27 11 98
v 23 6 97
v 23 1 99
v 26 -1 98
v 31 -1 98
v 32 3 99
v 31 11 98
v 30 6 106
v 30 4 114
v 28 2 114
v 29 1 114
v 31 1 106
v 28 -1 106
v 23 4 106
v 28 10 106
v 31 7 106
v 29 7 114
v 30 4 115
v 26 0 115
v 26 0 114
v 26 -1 114
v 23 4 114
v 23 4 113
v 22 4 113
v 26 10 115
v 26 10 114
v 26 11 114
v 30 8 114
v -28 1 105
v -28 1 103
v -25 4 103
v -25 4 105
v -28 1 106
v -30 2 106
v -31 4 105
v -31 4 103
v -31 -1 98
v -26 -1 98
v -23 1 99
v -23 6 97
v -27 11 98
v -28 8 103
v -28 8 105
v -28 8 106
v -25 4 106
v -28 -1 106
v -31 1 106
v -29 1 114
v -28 2 114
v -30 4 114
v -31 4 106
v -30 6 106
v -31 11 98
v -32 3 99
v -32 1 93
v -31 -1 93
v -26 -1 93
v -25 1 90
v -25 8 90
v -27 11 93
v -28 10 106
v -23 4 106
v -26 -1 114
v -26 0 114
v -23 4 113
v -23 4 114
v -26 0 115
v -22 4 113
v -26 11 114
v -26 10 114
v -26 10 115
v -29 7 114
v -30 4 115
v -30 8 114
v -31 7 106
v -31 11 93
v -31 8 93
v 25 1 90
v 26 -1 93
v 31 -1 93
v 32 1 93
v 31 8 93
v 31 11 93
v 27 11 93
v 25 8 90

f 1 2 3
f 1 3 4
f 1 4 5
f 1 5 6
f 1 6 7
f 1 7 8
f 1 8 9
f 1 9 2
f 2 9 10
f 2 10 11
f 2 11 12
f 2 12 13
f 2 13 3
f 3 13 14
f 3 14 15
f 3 15 16
f 3 16 4
f 4 16 17
f 4 17 18
f 4 18 5
f 5 18 19
f 5 19 20
f 5 20 13
f 5 13 12
f 5 12 6
f 6 12 11
f 6 11 21
f 6 21 7
f 7 21 22
f 7 22 8
f 8 22 23
f 8 23 24
f 8 24 25
f 8 25 9
f 9 25 26
f 9 26 10
f 10 26 27
f 10 27 11
f 11 27 28
f 11 28 21
f 21 28 29
f 21 29 30
f 21 30 22
f 22 30 31
f 22 31 23
f 23 31 32
f 23 32 33
f 23 33 34
f 23 34 24
f 24 34 26
f 24 26 25
f 33 32 35
f 33 35 36
f 33 36 37
f 33 37 34
f 34 37 27
f 34 27 26
f 38 30 39
f 38 39 35
f 35 39 36
f 36 39 40
f 36 40 37
f 37 40 28
f 37 28 27
f 41 29 28
f 41 28 40
f 41 40 39
f 41 39 30
f 41 30 29
f 38 31 30
f 42 43 44
f 42 44 45
f 42 45 46
f 42 46 47
f 42 47 48
f 42 48 49
f 42 49 43
f 43 49 50
f 43 50 51
f 43 51 52
f 43 52 44
f 44 52 53
f 44 53 54
f 44 54 55
f 44 55 45
f 45 55 56
f 45 56 57
f 45 57 58
f 45 58 46
f 46 58 59
f 46 59 60
f 46 60 47
f 47 60 61
f 47 61 62
f 47 62 63
f 47 63 64
f 47 64 48
f 48 64 65
f 48 65 56
f 48 56 49
f 49 56 55
f 49 55 66
f 49 66 67
f 49 67 50
f 50 67 68
f 50 68 69
f 50 69 51
f 51 69 70
f 51 70 52
f 52 70 71
f 52 71 53
f 53 71 72
f 53 72 73
f 53 73 54
f 54 73 66
f 54 66 55
f 56 65 57
f 57 65 74
f 57 74 75
f 57 75 58
f 58 75 59
f 59 75 76
f 59 76 61
f 59 61 60
f 77 78 79
f 77 79 80
f 77 80 62
f 77 62 76
f 77 76 81
f 77 81 78
f 78 81 82
f 78 82 83
f 78 83 79
f 79 83 84
f 84 83 85
f 84 85 86
f 86 85 63
f 86 63 62
f 86 62 80
f 75 81 76
f 81 75 74
f 81 74 82
f 82 74 87
f 82 87 83
f 83 87 85
f 85 87 88
f 85 88 65
f 85 65 63
f 63 65 64
f 74 88 87
f 88 74 65
f 62 61 76
f 72 89 73
f 73 89 66
f 66 89 90
f 66 90 67
f 67 90 68
f 68 90 72
f 68 72 71
f 68 71 69
f 69 71 70
f 90 89 72
f 16 91 92
f 16 92 17
f 17 92 93
f 17 93 18
f 18 93 94
f 18 94 19
f 19 94 95
f 19 95 20
f 20 95 96
f 20 96 97
f 20 97 14
f 20 14 13
f 91 16 15
f 91 15 98
f 91 98 94
f 91 94 93
f 91 93 92
f 98 97 96
f 98 96 95
f 98 95 94
f 14 97 15
f 15 97 98
