# RS2 Model 24603
# Vertices: 593
# Faces: 906

v -18 -151 168
v -21 -132 180
v -41 -152 152
v -22 -159 163
v -18 -141 155
v -11 -139 157
v -11 -149 170
v -4 -141 182
v -22 -150 149
v -17 -162 155
v -17 -154 146
v -25 -159 141
v -25 -167 150
v -21 -178 140
v -21 -168 133
v -9 -178 134
v -9 -169 130
v -12 -188 128
v -6 -207 106
v -29 -181 128
v 1 -125 167
v -11 -116 176
v -18 -141 208
v -14 -135 193
v -11 -149 192
v -23 -175 193
v -11 -169 208
v -6 -167 215
v -23 -159 231
v -18 -130 230
v -14 -124 208
v -14 -108 230
v -6 -130 230
v -4 -110 231
v -8 -141 208
v -7 -124 208
v -14 -133 192
v -11 -171 186
v -23 -196 162
v -16 -186 185
v -31 -205 186
v -23 -198 193
v -23 -211 180
v -23 -226 183
v -31 -186 237
v -23 -194 231
v -23 -212 261
v -23 -179 243
v -16 -151 247
v -18 -131 238
v -11 -131 238
v -18 -120 258
v -11 -120 258
v -16 -145 258
v -23 -139 267
v -16 -133 275
v -16 -101 284
v -18 -58 284
v -11 -58 284
v -23 -154 273
v -31 -148 277
v -23 -144 281
v -23 -155 294
v -16 -83 294
v -16 -71 293
v -23 -32 333
v -23 -97 299
v -31 -91 293
v -23 -82 312
v -11 -172 132
v 8 -172 132
v -1 -192 124
v -8 -202 129
v -16 -198 141
v -16 -176 148
v -5 -169 140
v -1 -165 148
v 11 -176 140
v 13 -198 141
v 5 -196 134
v -1 -202 129
v -1 -209 139
v -11 -199 156
v -1 -183 160
v 13 -176 148
v 8 -199 156
v -4 -172 158
v -7 -171 165
v -7 -173 157
v 0 -182 155
v -3 -182 155
v 0 -192 141
v -4 -190 142
v -3 -192 139
v 3 -196 131
v 6 -193 132
v 14 -195 121
v -25 -186 134
v -17 -169 175
v 16 -153 157
v 9 -170 149
v 12 -165 155
v 6 -168 149
v 2 -178 152
v 0 -175 153
v -13 -183 147
v -13 -179 147
v -16 -181 146
v -21 -190 141
v -17 -192 139
v -32 -193 129
v -21 -163 161
v 16 -153 163
v 27 -181 135
v -18 -177 135
v -20 -182 133
v -14 -177 136
v -10 -174 142
v -9 -175 138
v 11 -169 145
v 8 -170 147
v 8 -171 143
v 17 -179 141
v 19 -179 141
v 24 -190 127
v 13 -165 160
v 9 -163 161
v 24 -152 161
v -25 -190 128
v -36 -164 149
v -8 -176 134
v 6 -176 134
v -1 -191 128
v -6 -198 132
v -12 -195 141
v -12 -179 146
v -4 -174 140
v -1 -171 146
v 8 -179 140
v 10 -195 141
v 4 -194 135
v -1 -198 132
v -1 -203 139
v -8 -196 152
v -1 -184 155
v 10 -179 146
v 6 -196 152
v 18 -151 168
v 41 -152 152
v 21 -132 180
v 4 -141 182
v 11 -149 170
v 11 -139 157
v 18 -141 155
v 22 -159 163
v 25 -167 150
v 29 -181 128
v 21 -178 140
v 12 -188 128
v 6 -207 106
v 9 -169 130
v 9 -178 134
v 21 -168 133
v 25 -159 141
v 17 -162 155
v 17 -154 146
v 22 -150 149
v -1 -125 167
v 11 -116 176
v 18 -141 208
v 11 -149 192
v 14 -135 193
v 14 -124 208
v 18 -130 230
v 23 -159 231
v 6 -167 215
v 11 -169 208
v 23 -175 193
v 11 -171 186
v 8 -141 208
v 14 -133 192
v 7 -124 208
v 4 -110 231
v 6 -130 230
v 14 -108 230
v 16 -186 185
v 23 -196 162
v 31 -205 186
v 23 -211 180
v 23 -198 193
v 23 -226 183
v 31 -186 237
v 23 -194 231
v 23 -179 243
v 23 -212 261
v 16 -151 247
v 11 -131 238
v 18 -131 238
v 18 -120 258
v 16 -145 258
v 11 -120 258
v 11 -58 284
v 18 -58 284
v 16 -101 284
v 16 -133 275
v 23 -139 267
v 31 -148 277
v 23 -154 273
v 16 -83 294
v 16 -71 293
v 23 -32 333
v 31 -91 293
v 23 -97 299
v 23 -82 312
v 23 -144 281
v 23 -155 294
v 7 -45 319
v 20 -39 325
v 6 -42 322
v 0 -55 306
v 0 -53 310
v -6 -42 322
v -7 -44 320
v -22 -35 330
v -21 -38 325
v 22 -35 329
v 14 -124 264
v 14 -124 265
v 11 -122 268
v 9 -121 269
v 9 -122 267
v 1 -120 267
v 1 -119 267
v -3 -123 265
v -4 -122 267
v -6 -125 266
v -9 -128 263
v -8 -129 263
v -9 -129 263
v -9 -133 256
v -17 -127 265
v -18 -126 265
v 16 -120 268
v -16 -148 278
v 7 -74 290
v 4 -74 289
v 5 -76 289
v 14 -83 286
v 15 -81 287
v 4 -64 296
v 1 -78 287
v 1 -81 287
v -6 -75 289
v -9 -76 288
v -9 -74 289
v -14 -72 289
v -14 -74 289
v -3 -57 302
v 2 -44 316
v -16 -49 306
v 4 -47 312
v 15 -43 318
v 12 -41 320
v -15 -51 302
v -3 -49 310
v 7 -52 300
v 7 -49 301
v 11 -51 304
v 17 -46 310
v 15 -50 305
v 6 -59 294
v 9 -59 296
v 13 -66 286
v 13 -63 289
v 6 -171 223
v 18 -175 224
v 8 -170 225
v -5 -170 231
v -12 -172 233
v -7 -170 233
v -12 -171 235
v -26 -195 244
v 18 -170 231
v 16 -167 235
v -2 -149 245
v -2 -146 247
v -9 -144 245
v -10 -141 246
v -16 -147 242
v 5 -144 246
v 4 -142 248
v 18 -148 238
v 18 -152 237
v -8 -203 182
v -8 -202 185
v -23 -207 185
v -24 -204 188
v 8 -203 188
v 7 -203 186
v 24 -200 187
v 24 -203 185
v 7 -176 189
v 20 -176 197
v 8 -174 191
v -6 -172 195
v -6 -173 194
v -20 -171 190
v -19 -175 190
v 20 -171 197
v -6 -148 201
v -7 -147 202
v -12 -148 204
v -13 -146 206
v 12 -142 201
v -18 -85 304
v -18 -88 300
v -14 -92 287
v -12 -93 286
v -7 -94 290
v -8 -97 290
v -3 -99 286
v -1 -97 286
v 1 -100 284
v 7 -100 286
v 7 -102 283
v 8 -101 286
v 10 -91 295
v 9 -90 296
v 12 -90 295
v 19 -87 300
v 17 -86 302
v 12 -110 275
v 12 -112 273
v 16 -111 274
v -18 -92 297
v -18 -94 296
v 21 -94 291
v 21 -92 294
v -5 -99 287
v 9 -126 274
v 10 -54 207
v 10 -50 215
v 10 -57 218
v 10 -61 210
v 0 -58 195
v 31 -54 193
v 35 -51 205
v 35 -47 214
v 0 -39 226
v 0 -51 223
v 0 -54 224
v 16 -61 224
v 17 -69 217
v 18 -76 208
v 0 -64 204
v -10 -61 210
v -10 -54 207
v -31 -54 193
v 0 -54 180
v 28 -41 181
v 44 -37 203
v 33 -37 223
v 20 -29 228
v 0 -31 232
v -20 -29 228
v -33 -37 223
v -35 -47 214
v -10 -50 215
v -10 -57 218
v -16 -61 224
v -14 -54 234
v -7 -32 256
v 0 -34 250
v 7 -32 256
v 14 -54 234
v 18 -79 200
v -18 -79 200
v -18 -76 208
v -17 -69 217
v -35 -51 205
v -44 -37 203
v -28 -41 181
v 0 -43 174
v 0 -34 174
v 8 -26 183
v 31 -23 189
v 37 -23 201
v 33 -26 220
v 34 -24 225
v 17 -29 234
v 0 -32 237
v -17 -29 234
v -34 -24 225
v -33 -26 220
v 42 -20 199
v 29 -23 173
v 37 -16 174
v 42 6 190
v 44 -19 201
v 40 -21 216
v 42 -20 216
v 35 -23 227
v 17 -29 236
v 0 -32 239
v -17 -29 236
v -35 -23 227
v -42 -20 216
v -40 -21 216
v -37 -23 201
v -31 -23 189
v -8 -26 183
v 0 -28 178
v 0 -28 171
v 18 -20 243
v 40 -13 232
v 18 -9 251
v 0 -14 256
v 0 -25 248
v -18 -20 243
v -40 -13 232
v -48 -7 218
v -44 -19 201
v -42 -20 199
v -29 -23 173
v 51 -1 201
v 48 -7 218
v 45 1 193
v 45 12 190
v 54 10 201
v 54 10 205
v 51 5 220
v 51 5 223
v 43 -2 237
v 38 20 231
v 18 11 243
v 0 -7 264
v -18 11 243
v -18 -9 251
v 26 -14 157
v 19 -1 154
v 32 1 160
v 37 3 170
v 18 -23 158
v 0 -13 148
v 0 -4 146
v 0 3 151
v 18 4 157
v 27 5 161
v 34 6 169
v 0 -25 155
v -18 -23 158
v -26 -14 157
v -19 -1 154
v -18 4 157
v -19 9 153
v 0 8 144
v 19 9 153
v 32 9 159
v 37 9 169
v 34 26 184
v 37 28 185
v 45 28 202
v 42 26 217
v -37 -16 174
v -37 3 170
v -32 1 160
v -27 5 161
v -32 9 159
v -18 20 152
v 0 22 143
v 18 20 152
v 31 22 166
v 20 31 164
v 15 35 185
v 24 35 201
v 20 31 217
v 27 22 231
v 0 11 243
v 5 8 280
v 0 0 305
v -5 8 280
v -27 22 231
v -38 20 231
v -43 -2 237
v -51 -1 201
v -45 1 193
v -42 6 190
v -34 6 169
v 17 60 146
v 17 71 134
v 34 73 153
v 27 63 162
v 0 54 174
v 0 53 162
v 0 58 141
v 0 71 127
v 17 78 138
v 35 76 160
v 39 76 170
v 25 65 181
v 0 58 189
v -25 65 181
v -27 63 162
v -17 60 146
v 0 53 155
v 0 78 135
v 17 91 124
v 35 91 147
v 45 91 175
v 47 91 178
v 41 76 173
v 27 65 184
v 6 59 192
v 13 53 188
v 10 49 177
v 0 51 176
v -10 49 177
v -13 53 188
v -6 59 192
v -27 65 184
v -41 76 173
v -39 76 170
v -34 73 153
v -17 71 134
v -17 78 138
v -17 91 124
v 0 91 121
v 30 72 197
v 35 92 214
v 17 73 221
v 10 62 207
v 10 61 199
v 48 62 188
v 0 71 225
v 0 62 210
v 0 92 239
v -17 73 221
v -10 62 207
v -14 59 212
v 0 62 226
v 14 59 212
v 16 57 200
v 19 92 235
v -35 76 160
v -35 91 147
v -45 91 175
v -47 91 178
v -30 72 197
v -35 92 214
v -19 92 235
v -10 61 199
v -16 57 200
v -25 48 201
v -21 51 213
v -10 56 226
v 0 63 249
v 10 56 226
v 21 51 213
v 25 48 201
v 26 46 190
v -48 62 188
v -26 46 190
v -24 38 201
v 0 33 213
v 0 39 220
v 0 47 229
v 24 38 201
v 20 45 179
v 13 43 251
v 0 26 258
v -13 43 251
v -20 31 217
v -42 26 217
v -51 5 223
v 0 31 213
v 0 41 284
v 0 27 151
v 0 32 164
v 0 38 174
v 0 45 171
v -20 45 179
v -20 31 164
v -15 35 185
v -24 35 201
v -37 28 185
v -54 10 201
v -45 28 202
v -34 26 184
v -45 12 190
v -54 10 205
v -51 5 220
v -37 9 169
v -31 22 166

f 1 2 3
f 1 3 4
f 1 4 5
f 1 5 6
f 1 6 7
f 1 7 8
f 1 8 2
f 4 9 5
f 9 4 10
f 9 10 11
f 11 10 12
f 12 10 13
f 12 13 14
f 12 14 15
f 15 14 16
f 15 16 17
f 17 16 18
f 17 18 19
f 19 18 20
f 20 18 14
f 20 14 13
f 20 13 3
f 3 13 4
f 4 13 10
f 6 21 7
f 7 21 8
f 18 16 14
f 22 3 2
f 23 24 25
f 23 25 26
f 23 26 27
f 23 27 28
f 23 28 29
f 23 29 30
f 23 30 31
f 23 31 24
f 31 30 32
f 32 30 33
f 32 33 34
f 34 33 35
f 34 35 36
f 36 35 37
f 37 35 25
f 25 35 27
f 25 27 38
f 25 38 26
f 26 38 39
f 26 39 40
f 26 40 41
f 26 41 42
f 26 42 27
f 27 42 40
f 27 40 38
f 38 40 39
f 41 40 43
f 41 43 44
f 41 44 42
f 42 44 43
f 42 43 40
f 45 28 46
f 45 46 47
f 45 47 48
f 45 48 29
f 45 29 28
f 48 49 29
f 29 49 50
f 29 50 30
f 30 50 51
f 30 51 33
f 33 51 49
f 33 49 48
f 33 48 46
f 33 46 28
f 33 28 35
f 35 28 27
f 49 52 50
f 50 52 53
f 50 53 51
f 51 53 49
f 49 53 54
f 49 54 52
f 52 54 55
f 52 55 56
f 52 56 57
f 52 57 58
f 52 58 59
f 52 59 53
f 53 59 57
f 53 57 56
f 53 56 54
f 54 56 60
f 54 60 61
f 54 61 55
f 55 61 56
f 56 61 62
f 56 62 60
f 60 62 63
f 60 63 61
f 61 63 62
f 58 64 65
f 58 65 66
f 58 66 59
f 59 66 65
f 59 65 64
f 59 64 57
f 57 64 67
f 57 67 68
f 57 68 58
f 58 68 64
f 64 68 69
f 64 69 67
f 67 69 68
f 46 48 47
f 70 71 72
f 70 72 73
f 70 73 74
f 70 74 75
f 70 75 76
f 70 76 71
f 71 76 77
f 71 77 78
f 71 78 79
f 71 79 80
f 71 80 72
f 72 80 81
f 72 81 73
f 73 81 82
f 73 82 74
f 74 82 83
f 74 83 75
f 75 83 84
f 75 84 77
f 75 77 76
f 79 85 86
f 79 86 82
f 79 82 81
f 79 81 80
f 82 86 83
f 83 86 84
f 84 86 85
f 84 85 77
f 77 85 78
f 78 85 79
f 87 88 89
f 87 89 90
f 90 89 91
f 90 91 92
f 92 91 93
f 92 93 94
f 92 94 95
f 92 95 96
f 96 95 97
f 93 98 94
f 88 99 89
f 88 87 100
f 101 102 103
f 101 103 104
f 104 103 105
f 104 105 106
f 106 105 107
f 106 107 108
f 106 108 109
f 106 109 110
f 110 109 111
f 107 112 108
f 102 113 103
f 102 101 114
f 115 116 117
f 115 117 118
f 118 117 119
f 120 121 122
f 120 122 123
f 120 123 124
f 124 123 125
f 121 120 126
f 121 126 127
f 127 126 128
f 116 129 117
f 116 115 130
f 131 132 133
f 131 133 134
f 131 134 135
f 131 135 136
f 131 136 137
f 131 137 132
f 132 137 138
f 132 138 139
f 132 139 140
f 132 140 141
f 132 141 133
f 133 141 142
f 133 142 134
f 134 142 143
f 134 143 135
f 135 143 144
f 135 144 136
f 136 144 145
f 136 145 138
f 136 138 137
f 140 146 147
f 140 147 143
f 140 143 142
f 140 142 141
f 143 147 144
f 144 147 145
f 145 147 146
f 145 146 138
f 138 146 139
f 139 146 140
f 148 149 150
f 148 150 151
f 148 151 152
f 148 152 153
f 148 153 154
f 148 154 155
f 148 155 149
f 149 155 156
f 149 156 157
f 157 156 158
f 157 158 159
f 157 159 160
f 160 159 161
f 161 159 162
f 161 162 163
f 163 162 158
f 163 158 164
f 164 158 156
f 164 156 165
f 164 165 166
f 166 165 167
f 167 165 155
f 167 155 154
f 153 152 168
f 168 152 151
f 155 165 156
f 159 158 162
f 169 150 149
f 170 171 172
f 170 172 173
f 170 173 174
f 170 174 175
f 170 175 176
f 170 176 177
f 170 177 178
f 170 178 171
f 171 178 179
f 171 179 177
f 171 177 180
f 171 180 181
f 181 180 182
f 182 180 183
f 183 180 184
f 183 184 185
f 185 184 174
f 185 174 173
f 186 187 178
f 186 178 188
f 186 188 189
f 186 189 190
f 186 190 177
f 186 177 179
f 186 179 187
f 187 179 178
f 191 189 188
f 191 188 190
f 191 190 189
f 190 188 178
f 190 178 177
f 192 193 176
f 192 176 175
f 192 175 194
f 192 194 195
f 192 195 193
f 193 195 194
f 193 194 184
f 193 184 176
f 176 184 180
f 176 180 177
f 194 175 196
f 194 196 184
f 184 196 197
f 184 197 174
f 174 197 198
f 174 198 175
f 175 198 196
f 196 198 199
f 196 199 200
f 196 200 201
f 196 201 197
f 197 201 198
f 198 201 199
f 199 201 202
f 199 202 203
f 199 203 204
f 199 204 205
f 199 205 206
f 199 206 200
f 200 206 207
f 200 207 208
f 200 208 205
f 200 205 201
f 201 205 204
f 201 204 202
f 202 204 209
f 202 209 210
f 202 210 211
f 202 211 203
f 203 211 210
f 203 210 209
f 203 209 212
f 203 212 204
f 204 212 213
f 204 213 209
f 209 213 214
f 209 214 212
f 212 214 213
f 205 215 207
f 205 207 206
f 216 208 207
f 216 207 215
f 216 215 208
f 208 215 205
f 217 218 219
f 217 219 220
f 220 219 221
f 220 221 222
f 220 222 223
f 223 222 224
f 223 224 225
f 226 219 218
f 227 228 229
f 227 229 230
f 227 230 231
f 231 230 232
f 232 230 233
f 232 233 234
f 234 233 235
f 234 235 236
f 234 236 237
f 234 237 238
f 238 237 239
f 238 239 240
f 241 236 242
f 242 236 235
f 230 229 243
f 239 237 244
f 245 246 247
f 245 247 248
f 245 248 249
f 246 245 250
f 247 246 251
f 247 251 252
f 252 251 253
f 252 253 254
f 254 253 255
f 254 255 256
f 254 256 257
f 255 253 258
f 259 260 261
f 259 261 262
f 259 262 263
f 264 265 260
f 260 265 261
f 261 265 266
f 261 266 267
f 267 266 268
f 267 268 269
f 269 268 270
f 268 266 271
f 268 271 272
f 272 271 273
f 272 273 274
f 275 276 277
f 275 277 278
f 275 278 279
f 279 278 280
f 279 280 281
f 279 281 282
f 280 278 283
f 280 283 284
f 285 286 287
f 287 286 288
f 287 288 289
f 286 290 291
f 291 290 292
f 292 290 293
f 290 286 285
f 294 295 296
f 296 295 297
f 295 294 298
f 298 294 299
f 298 299 300
f 300 299 301
f 302 303 304
f 302 304 305
f 302 305 306
f 306 305 307
f 306 307 308
f 303 309 304
f 310 311 312
f 312 311 313
f 311 310 314
f 315 316 317
f 315 317 318
f 315 318 319
f 319 318 320
f 319 320 321
f 319 321 322
f 322 321 323
f 322 323 324
f 324 323 325
f 324 325 326
f 324 326 327
f 324 327 328
f 328 327 329
f 328 329 330
f 328 330 331
f 332 326 333
f 332 333 334
f 318 317 335
f 318 335 336
f 329 327 337
f 329 337 338
f 321 320 339
f 321 339 340
f 325 333 326
f 341 342 343
f 341 343 344
f 341 344 345
f 341 345 346
f 341 346 347
f 341 347 342
f 342 347 348
f 342 348 349
f 342 349 350
f 342 350 343
f 343 350 351
f 343 351 352
f 343 352 353
f 343 353 344
f 344 353 354
f 344 354 355
f 344 355 345
f 345 355 356
f 345 356 357
f 345 357 358
f 345 358 359
f 345 359 346
f 346 359 360
f 346 360 361
f 346 361 347
f 347 361 348
f 348 361 362
f 348 362 349
f 349 362 363
f 349 363 364
f 349 364 365
f 349 365 366
f 349 366 367
f 349 367 368
f 349 368 350
f 350 368 369
f 350 369 351
f 351 369 370
f 351 370 371
f 351 371 372
f 351 372 373
f 351 373 374
f 351 374 375
f 351 375 352
f 374 373 372
f 355 354 376
f 355 376 377
f 355 377 378
f 355 378 356
f 356 378 379
f 356 379 369
f 356 369 357
f 357 369 368
f 357 368 380
f 357 380 358
f 358 380 381
f 358 381 382
f 358 382 359
f 359 382 383
f 359 383 360
f 360 383 384
f 360 384 385
f 360 385 386
f 360 386 361
f 361 386 387
f 361 387 388
f 361 388 362
f 362 388 363
f 363 388 389
f 363 389 390
f 363 390 391
f 363 391 364
f 364 391 365
f 365 391 392
f 365 392 393
f 365 393 394
f 365 394 366
f 366 394 381
f 366 381 367
f 367 381 380
f 367 380 368
f 379 370 369
f 395 387 386
f 395 386 396
f 395 396 397
f 395 397 398
f 395 398 399
f 395 399 400
f 395 400 387
f 387 400 388
f 388 400 389
f 389 400 401
f 389 401 402
f 389 402 390
f 390 402 403
f 390 403 391
f 391 403 404
f 391 404 405
f 391 405 392
f 392 405 406
f 392 406 393
f 393 406 407
f 393 407 408
f 393 408 394
f 394 408 409
f 394 409 381
f 381 409 410
f 381 410 382
f 382 410 411
f 382 411 384
f 382 384 383
f 384 412 385
f 385 412 413
f 385 413 396
f 385 396 386
f 414 403 402
f 414 402 415
f 414 415 416
f 414 416 417
f 414 417 418
f 414 418 403
f 403 418 404
f 404 418 405
f 405 418 419
f 405 419 406
f 406 419 420
f 406 420 407
f 407 420 421
f 407 421 422
f 407 422 408
f 408 422 423
f 408 423 409
f 409 423 410
f 410 423 424
f 410 424 411
f 411 424 413
f 411 413 412
f 411 412 384
f 399 425 426
f 399 426 401
f 399 401 400
f 401 426 415
f 401 415 402
f 427 425 399
f 427 399 398
f 427 398 428
f 427 428 425
f 425 428 429
f 425 429 430
f 425 430 431
f 425 431 426
f 426 431 432
f 426 432 433
f 426 433 415
f 415 433 416
f 416 433 434
f 416 434 435
f 416 435 417
f 417 435 436
f 417 436 437
f 417 437 438
f 417 438 419
f 417 419 418
f 439 440 441
f 439 441 442
f 439 442 397
f 439 397 396
f 439 396 443
f 439 443 444
f 439 444 440
f 440 444 445
f 440 445 446
f 440 446 447
f 440 447 448
f 440 448 441
f 441 448 442
f 442 448 449
f 442 449 398
f 442 398 397
f 444 443 450
f 444 450 451
f 444 451 452
f 444 452 453
f 444 453 445
f 445 453 446
f 446 453 454
f 446 454 455
f 446 455 456
f 446 456 457
f 446 457 447
f 447 457 458
f 447 458 448
f 448 458 459
f 448 459 449
f 449 459 398
f 398 459 460
f 398 460 428
f 428 460 461
f 428 461 429
f 429 461 462
f 429 462 430
f 430 462 431
f 431 462 463
f 431 463 432
f 432 463 434
f 432 434 433
f 443 396 413
f 443 413 450
f 450 413 451
f 451 413 424
f 451 424 452
f 452 424 464
f 452 464 465
f 452 465 466
f 452 466 453
f 453 466 467
f 453 467 454
f 454 467 468
f 454 468 455
f 455 468 469
f 455 469 456
f 456 469 470
f 456 470 471
f 456 471 457
f 457 471 458
f 458 471 459
f 459 471 472
f 459 472 460
f 460 472 473
f 460 473 474
f 460 474 461
f 461 474 462
f 462 474 475
f 462 475 463
f 463 475 476
f 463 476 434
f 434 476 477
f 434 477 435
f 435 477 478
f 435 478 479
f 435 479 436
f 436 479 480
f 436 480 481
f 436 481 437
f 437 481 478
f 437 478 482
f 437 482 483
f 437 483 438
f 438 483 484
f 438 484 420
f 438 420 419
f 422 421 485
f 422 485 486
f 422 486 487
f 422 487 423
f 423 487 464
f 423 464 424
f 464 487 465
f 465 487 488
f 465 488 467
f 465 467 466
f 489 490 491
f 489 491 492
f 489 492 493
f 489 493 494
f 489 494 495
f 489 495 490
f 490 495 496
f 490 496 497
f 490 497 491
f 491 497 498
f 491 498 499
f 491 499 492
f 492 499 500
f 492 500 493
f 493 500 501
f 493 501 502
f 493 502 503
f 493 503 504
f 493 504 494
f 494 504 495
f 494 495 505
f 494 505 495
f 496 506 497
f 497 506 507
f 497 507 508
f 497 508 498
f 498 508 509
f 498 509 499
f 499 509 510
f 499 510 511
f 499 511 500
f 500 511 512
f 500 512 501
f 501 512 513
f 501 513 514
f 501 514 515
f 501 515 516
f 501 516 517
f 501 517 518
f 501 518 519
f 501 519 520
f 501 520 502
f 502 520 521
f 502 521 522
f 502 522 503
f 503 522 523
f 503 523 504
f 504 523 524
f 504 524 495
f 495 524 496
f 496 524 525
f 496 525 506
f 506 525 526
f 506 526 527
f 506 527 507
f 528 511 510
f 528 510 529
f 528 529 530
f 528 530 531
f 528 531 532
f 528 532 512
f 528 512 533
f 528 533 511
f 511 533 512
f 534 535 531
f 534 531 530
f 534 530 536
f 534 536 537
f 534 537 538
f 534 538 535
f 535 538 539
f 535 539 540
f 535 540 541
f 535 541 531
f 531 541 532
f 532 541 542
f 532 542 513
f 532 513 512
f 529 543 530
f 530 543 536
f 524 523 525
f 525 523 544
f 525 544 545
f 525 545 526
f 523 522 544
f 544 522 546
f 544 546 545
f 522 547 546
f 547 522 521
f 547 521 548
f 547 548 549
f 549 548 537
f 549 537 550
f 550 537 536
f 548 538 537
f 538 548 551
f 538 551 539
f 539 551 552
f 539 552 553
f 539 553 554
f 539 554 555
f 539 555 540
f 540 555 556
f 540 556 557
f 540 557 541
f 541 557 558
f 541 558 559
f 541 559 542
f 542 559 560
f 542 560 514
f 542 514 513
f 548 561 520
f 548 520 551
f 551 520 519
f 551 519 552
f 552 519 518
f 552 518 562
f 552 562 553
f 553 562 563
f 553 563 554
f 554 563 564
f 554 564 565
f 554 565 555
f 555 565 566
f 555 566 556
f 556 566 557
f 557 566 565
f 557 565 558
f 558 565 564
f 558 564 567
f 558 567 559
f 559 567 560
f 560 567 474
f 560 474 568
f 560 568 515
f 560 515 514
f 520 561 521
f 521 561 548
f 476 569 477
f 477 569 570
f 477 570 478
f 478 570 482
f 482 570 571
f 482 571 572
f 482 572 483
f 483 572 573
f 483 573 574
f 483 574 484
f 484 574 421
f 484 421 420
f 569 476 575
f 569 575 571
f 569 571 576
f 569 576 570
f 570 576 571
f 471 473 472
f 473 471 577
f 473 577 578
f 473 578 579
f 473 579 474
f 474 579 568
f 568 579 580
f 568 580 515
f 515 580 516
f 516 580 517
f 517 580 581
f 517 581 562
f 517 562 518
f 471 470 577
f 577 470 469
f 577 469 582
f 577 582 578
f 578 582 579
f 579 582 583
f 579 583 581
f 579 581 580
f 481 479 478
f 479 481 480
f 475 575 476
f 575 475 567
f 575 567 564
f 575 564 563
f 575 563 584
f 575 584 572
f 575 572 571
f 474 567 475
f 585 586 587
f 585 587 583
f 585 583 588
f 585 588 589
f 585 589 586
f 586 589 485
f 586 485 590
f 586 590 587
f 587 590 591
f 587 591 573
f 587 573 584
f 587 584 583
f 583 584 563
f 583 563 562
f 583 562 581
f 591 485 421
f 591 421 574
f 591 574 573
f 589 487 486
f 589 486 485
f 588 487 589
f 487 588 592
f 487 592 488
f 488 592 467
f 467 592 468
f 468 592 469
f 469 592 593
f 469 593 582
f 582 593 588
f 582 588 583
f 584 573 572
f 592 588 593
f 591 590 485
