# RS2 Model 24675
# Vertices: 87
# Faces: 74

v -39 64 293
v -39 -64 293
v -39 -64 0
v -39 64 0
v -36 17 194
v -36 -40 194
v -36 -40 151
v -36 17 151
v -39 17 197
v -39 -42 197
v -39 -42 149
v -36 -46 194
v -36 -64 194
v -36 -64 151
v -36 -46 151
v -39 -44 149
v -39 -44 197
v -39 -64 197
v -36 -64 200
v -36 -24 200
v -36 -24 244
v -36 -64 244
v -39 -64 246
v -39 -22 246
v -39 -22 199
v -36 -18 200
v -36 17 200
v -36 17 244
v -36 -18 244
v -39 -20 246
v -39 -20 199
v -39 17 246
v -36 -64 101
v -36 -24 101
v -36 -24 145
v -36 -64 145
v -39 -64 146
v -39 -22 146
v -39 -22 100
v -36 -18 101
v -36 17 101
v -36 17 145
v -36 -18 145
v -39 -20 146
v -39 -20 100
v -39 17 146
v -36 17 95
v -36 -40 95
v -36 -40 50
v -36 17 50
v -39 17 97
v -39 -42 97
v -39 -42 49
v -36 -46 95
v -36 -64 95
v -36 -64 50
v -36 -46 50
v -39 -44 49
v -39 -44 97
v -39 -64 97
v -36 -64 1
v -36 -24 1
v -36 -24 46
v -36 -64 46
v -39 -64 47
v -39 -22 47
v -39 -22 0
v -36 -18 1
v -36 17 1
v -36 17 46
v -36 -18 46
v -39 -20 47
v -39 -20 0
v -39 17 47
v -36 17 292
v -36 -40 292
v -36 -40 250
v -36 17 250
v -39 17 293
v -39 -42 293
v -39 -42 248
v -36 -46 292
v -36 -64 292
v -36 -64 250
v -36 -46 250
v -39 -44 248
v -39 -44 293

f 1 2 3
f 1 3 4
f 5 6 7
f 5 7 8
f 6 5 9
f 6 9 10
f 6 10 7
f 7 10 11
f 12 13 14
f 12 14 15
f 12 15 16
f 12 16 17
f 12 17 13
f 13 17 18
f 19 20 21
f 19 21 22
f 22 21 23
f 23 21 24
f 24 21 25
f 25 21 20
f 26 27 28
f 26 28 29
f 26 29 30
f 26 30 31
f 30 29 28
f 30 28 32
f 33 34 35
f 33 35 36
f 36 35 37
f 37 35 38
f 38 35 39
f 39 35 34
f 40 41 42
f 40 42 43
f 40 43 44
f 40 44 45
f 44 43 42
f 44 42 46
f 47 48 49
f 47 49 50
f 48 47 51
f 48 51 52
f 48 52 49
f 49 52 53
f 54 55 56
f 54 56 57
f 54 57 58
f 54 58 59
f 54 59 55
f 55 59 60
f 61 62 63
f 61 63 64
f 64 63 65
f 65 63 66
f 66 63 67
f 67 63 62
f 68 69 70
f 68 70 71
f 68 71 72
f 68 72 73
f 72 71 70
f 72 70 74
f 75 76 77
f 75 77 78
f 76 75 79
f 76 79 80
f 76 80 77
f 77 80 81
f 82 83 84
f 82 84 85
f 82 85 86
f 82 86 87
f 82 87 83
f 83 87 2
