# RS2 Model 24676
# Vertices: 196
# Faces: 178

v -36 64 208
v -36 19 208
v -36 19 170
v -36 64 170
v -39 64 210
v -39 17 210
v -39 17 169
v -36 -19 208
v -36 -40 208
v -36 -40 170
v -36 -19 170
v -39 -17 169
v -39 -17 210
v -39 -42 210
v -39 -42 169
v -36 -46 208
v -36 -64 208
v -36 -64 170
v -36 -46 170
v -39 -44 169
v -39 -44 210
v -39 -64 210
v -36 46 213
v -36 64 213
v -36 64 251
v -36 46 251
v -39 44 252
v -39 44 212
v -39 64 252
v -36 -64 213
v -36 -19 213
v -36 -19 239
v -36 -64 251
v -36 -11 251
v -39 -64 252
v -39 -9 252
v -39 -17 241
v -39 -17 212
v -36 19 213
v -36 40 213
v -36 40 251
v -36 19 239
v -39 17 241
v -39 17 212
v -39 42 212
v -39 42 252
v -39 9 252
v -36 11 251
v -36 46 128
v -36 64 128
v -36 64 166
v -36 46 166
v -39 44 167
v -39 64 167
v -39 44 127
v -36 64 123
v -36 24 123
v -36 24 85
v -36 64 85
v -39 64 125
v -39 22 125
v -39 22 84
v -36 18 123
v -36 -40 123
v -36 -40 85
v -36 18 85
v -39 20 84
v -39 20 125
v -39 -42 125
v -39 -42 84
v -36 -46 123
v -36 -64 123
v -36 -64 85
v -36 -46 85
v -39 -44 84
v -39 -44 125
v -39 -64 125
v -36 46 43
v -36 64 43
v -36 64 81
v -36 46 81
v -39 44 82
v -39 44 41
v -39 64 82
v -36 -64 43
v -36 -24 43
v -36 -24 81
v -36 -64 81
v -39 -64 82
v -39 -22 82
v -39 -22 41
v -36 -18 43
v -36 40 43
v -36 40 81
v -36 -18 81
v -39 -20 82
v -39 -20 41
v -39 42 41
v -39 42 82
v -36 64 38
v -36 24 38
v -36 24 1
v -36 64 1
v -39 64 40
v -39 22 40
v -39 22 0
v -36 18 38
v -36 -40 38
v -36 -40 1
v -36 18 1
v -39 20 0
v -39 20 40
v -39 -42 40
v -39 -42 0
v -36 -46 38
v -36 -64 38
v -36 -64 1
v -36 -46 1
v -39 -44 0
v -39 -44 40
v -39 -64 40
v -36 64 292
v -36 24 292
v -36 24 256
v -36 64 256
v -39 64 293
v -39 22 293
v -39 22 254
v -36 18 292
v -36 -40 292
v -36 -40 256
v -36 18 256
v -39 20 254
v -39 20 293
v -39 -42 293
v -39 -42 254
v -36 -46 292
v -36 -64 292
v -36 -64 256
v -36 -46 256
v -39 -44 293
v -39 -64 293
v -39 -44 254
v -39 -20 167
v -36 -18 166
v -36 40 166
v -39 42 167
v -36 40 128
v -39 42 127
v -39 -20 127
v -36 -18 128
v -36 -24 166
v -39 -22 167
v -39 -64 167
v -36 -64 166
v -36 -64 128
v -36 -24 128
v -39 -22 127
v -39 -64 292
v -39 -7 252
v -39 7 252
v -39 64 292
v -39 15 241
v -39 15 169
v -39 64 169
v -39 64 0
v -39 -15 169
v -39 -64 0
v -39 -64 169
v -39 -15 241
v -64 -29 0
v -64 29 0
v -64 29 288
v -64 -29 288
v -34 11 241
v -58 11 241
v -58 11 174
v -34 11 174
v -34 15 241
v -34 7 252
v -34 7 246
v -34 -7 252
v -34 -7 246
v -34 -15 241
v -34 -11 241
v -34 -15 169
v -34 -11 174
v -58 -11 241
v -58 -11 174
v -34 15 169
v -39 -63 59
v -39 65 60
v -39 -65 233
v -34 -30 238
v -34 -2 230
v -34 -18 254

f 1 2 3
f 1 3 4
f 2 1 5
f 2 5 6
f 2 6 3
f 3 6 7
f 8 9 10
f 8 10 11
f 8 11 12
f 8 12 13
f 8 13 9
f 9 13 14
f 9 14 10
f 10 14 15
f 16 17 18
f 16 18 19
f 16 19 20
f 16 20 21
f 16 21 17
f 17 21 22
f 23 24 25
f 23 25 26
f 23 26 27
f 23 27 28
f 27 26 25
f 27 25 29
f 30 31 32
f 30 32 33
f 33 32 34
f 33 34 35
f 35 34 36
f 36 34 32
f 36 32 37
f 37 32 38
f 38 32 31
f 39 40 41
f 39 41 42
f 39 42 43
f 39 43 44
f 41 40 45
f 41 45 46
f 41 46 47
f 41 47 48
f 41 48 42
f 42 48 43
f 43 48 47
f 49 50 51
f 49 51 52
f 52 51 53
f 53 51 54
f 55 53 52
f 55 52 49
f 56 57 58
f 56 58 59
f 57 56 60
f 57 60 61
f 57 61 58
f 58 61 62
f 63 64 65
f 63 65 66
f 63 66 67
f 63 67 68
f 63 68 64
f 64 68 69
f 64 69 65
f 65 69 70
f 71 72 73
f 71 73 74
f 71 74 75
f 71 75 76
f 71 76 72
f 72 76 77
f 78 79 80
f 78 80 81
f 78 81 82
f 78 82 83
f 82 81 80
f 82 80 84
f 85 86 87
f 85 87 88
f 88 87 89
f 89 87 90
f 90 87 91
f 91 87 86
f 92 93 94
f 92 94 95
f 92 95 96
f 92 96 97
f 94 93 98
f 94 98 99
f 94 99 96
f 94 96 95
f 100 101 102
f 100 102 103
f 101 100 104
f 101 104 105
f 101 105 102
f 102 105 106
f 107 108 109
f 107 109 110
f 107 110 111
f 107 111 112
f 107 112 108
f 108 112 113
f 108 113 109
f 109 113 114
f 115 116 117
f 115 117 118
f 115 118 119
f 115 119 120
f 115 120 116
f 116 120 121
f 122 123 124
f 122 124 125
f 123 122 126
f 123 126 127
f 123 127 124
f 124 127 128
f 129 130 131
f 129 131 132
f 129 132 133
f 129 133 134
f 129 134 130
f 130 134 135
f 130 135 131
f 131 135 136
f 137 138 139
f 137 139 140
f 138 137 141
f 138 141 142
f 141 143 140
f 141 140 137
f 144 145 146
f 144 146 147
f 147 146 148
f 147 148 149
f 145 144 150
f 145 150 151
f 145 151 146
f 146 151 148
f 152 153 154
f 152 154 155
f 152 155 156
f 152 156 157
f 152 157 153
f 153 157 158
f 159 160 161
f 159 161 162
f 162 161 163
f 162 163 164
f 162 164 165
f 165 164 166
f 166 164 167
f 166 167 168
f 168 167 169
f 169 167 170
f 169 170 159
f 159 170 160
f 171 172 173
f 171 173 174
f 175 176 177
f 175 177 178
f 175 178 179
f 175 179 180
f 175 180 181
f 181 180 182
f 181 182 183
f 183 182 184
f 183 184 185
f 185 184 186
f 185 186 187
f 185 187 188
f 188 187 189
f 189 187 178
f 189 178 177
f 179 178 190
f 190 178 187
f 190 187 186
