# RS2 Model 24745
# Vertices: 226
# Faces: 237

v -49 64 240
v -49 -64 240
v -49 -64 219
v -49 -22 199
v -49 64 207
v -49 6 166
v -49 64 82
v -49 23 89
v -49 64 0
v -49 33 0
v -61 23 89
v -61 33 0
v -61 64 0
v -61 64 82
v -61 6 166
v -61 64 207
v -61 -22 199
v -61 64 240
v -61 -64 240
v -61 -64 219
v -63 5 158
v -63 29 158
v -63 44 124
v -63 12 124
v -61 10 123
v -61 3 159
v -61 31 159
v -61 46 123
v -63 50 82
v -63 22 82
v -63 13 120
v -63 44 120
v -61 46 121
v -61 52 81
v -61 11 121
v -61 20 81
v -49 20 81
v -49 11 121
v -47 22 82
v -47 13 120
v -49 46 121
v -47 44 120
v -49 52 81
v -47 50 82
v -63 22 78
v -63 50 78
v -63 52 44
v -63 26 44
v -61 24 43
v -61 20 79
v -61 52 79
v -61 54 43
v -63 53 3
v -63 30 3
v -63 27 40
v -63 52 40
v -61 54 41
v -61 55 2
v -61 25 41
v -61 28 2
v -49 28 2
v -49 25 41
v -47 30 3
v -47 27 40
v -49 54 41
v -47 52 40
v -49 55 2
v -47 53 3
v -63 18 206
v -63 6 208
v -63 -53 239
v -63 18 239
v -61 -59 240
v -61 20 240
v -61 4 207
v -61 20 205
v -47 12 124
v -47 44 124
v -47 29 158
v -47 5 158
v -49 3 159
v -49 10 123
v -49 46 123
v -49 31 159
v -47 26 44
v -47 52 44
v -47 50 78
v -47 22 78
v -49 20 79
v -49 24 43
v -49 54 43
v -49 52 79
v -47 18 239
v -47 -53 239
v -47 6 208
v -47 18 206
v -49 20 205
v -49 20 240
v -49 -59 240
v -49 4 207
v -47 2 200
v -47 -24 197
v -47 2 163
v -47 26 163
v -49 28 162
v -49 5 203
v -49 -29 199
v -49 0 162
v -61 -29 199
v -61 0 162
v -63 -24 197
v -63 2 163
v -63 26 163
v -63 2 200
v -61 5 203
v -61 28 162
v -47 -37 226
v -47 -52 215
v -47 -29 201
v -47 -3 206
v -49 -1 206
v -49 -37 228
v -49 -55 214
v -49 -31 200
v -61 -55 214
v -61 -31 200
v -63 -52 215
v -63 -29 201
v -63 -3 206
v -63 -37 226
v -61 -37 228
v -61 -1 206
v -63 64 164
v -63 37 164
v -63 10 202
v -63 64 202
v -61 8 203
v -61 64 203
v -61 35 163
v -63 38 160
v -63 64 160
v -63 64 125
v -63 52 125
v -61 50 124
v -61 36 161
v -61 64 161
v -63 64 83
v -63 57 83
v -63 52 121
v -63 64 121
v -61 50 122
v -61 64 122
v -61 55 82
v -63 57 79
v -63 64 79
v -63 64 44
v -63 58 44
v -61 56 43
v -61 55 80
v -61 64 80
v -63 64 3
v -63 59 3
v -63 58 40
v -63 64 40
v -61 56 41
v -61 64 41
v -61 57 2
v -63 64 206
v -63 24 206
v -63 24 239
v -63 64 239
v -61 22 240
v -61 22 205
v -47 64 202
v -47 10 202
v -47 37 164
v -47 64 164
v -49 64 161
v -49 64 203
v -49 8 203
v -49 35 163
v -47 52 125
v -47 64 125
v -47 64 160
v -47 38 160
v -49 36 161
v -49 50 124
v -47 64 121
v -47 52 121
v -47 57 83
v -47 64 83
v -49 64 80
v -49 64 122
v -49 50 122
v -49 55 82
v -47 58 44
v -47 64 44
v -47 64 79
v -47 57 79
v -49 55 80
v -49 56 43
v -47 64 40
v -47 58 40
v -47 59 3
v -47 64 3
v -49 64 41
v -49 56 41
v -49 57 2
v -47 64 239
v -47 24 239
v -47 24 206
v -47 64 206
v -49 22 240
v -49 22 205
v -47 -64 238
v -47 -64 218
v -47 -59 217
v -47 -43 229
v -49 -39 229
v -49 -59 216
v -63 -43 229
v -63 -59 217
v -63 -64 218
v -63 -64 238
v -61 -39 229
v -61 -59 216

f 1 2 3
f 1 3 4
f 1 4 5
f 5 4 6
f 5 6 7
f 7 6 8
f 7 8 9
f 9 8 10
f 10 8 11
f 10 11 12
f 12 11 13
f 13 11 14
f 14 11 15
f 14 15 16
f 16 15 17
f 16 17 18
f 18 17 19
f 18 19 2
f 18 2 1
f 17 20 19
f 8 6 15
f 8 15 11
f 17 15 6
f 17 6 4
f 21 22 23
f 21 23 24
f 21 24 25
f 21 25 26
f 21 26 27
f 21 27 22
f 22 27 23
f 23 27 28
f 29 30 31
f 29 31 32
f 29 32 33
f 29 33 34
f 35 33 32
f 35 32 31
f 35 31 36
f 35 36 37
f 35 37 38
f 38 37 39
f 38 39 40
f 38 40 41
f 41 40 42
f 41 42 43
f 43 42 44
f 44 42 39
f 39 42 40
f 36 31 30
f 45 46 47
f 45 47 48
f 45 48 49
f 45 49 50
f 45 50 51
f 45 51 46
f 46 51 47
f 47 51 52
f 53 54 55
f 53 55 56
f 53 56 57
f 53 57 58
f 59 57 56
f 59 56 55
f 59 55 60
f 59 60 61
f 59 61 62
f 62 61 63
f 62 63 64
f 62 64 65
f 65 64 66
f 65 66 67
f 67 66 68
f 68 66 63
f 63 66 64
f 60 55 54
f 69 70 71
f 69 71 72
f 72 71 73
f 72 73 74
f 75 73 71
f 75 71 70
f 72 69 76
f 72 76 74
f 77 78 79
f 77 79 80
f 77 80 81
f 77 81 82
f 82 81 26
f 82 26 25
f 79 78 83
f 79 83 84
f 79 84 81
f 79 81 80
f 85 86 87
f 85 87 88
f 85 88 89
f 85 89 90
f 90 89 50
f 90 50 49
f 87 86 91
f 87 91 92
f 87 92 89
f 87 89 88
f 93 94 95
f 93 95 96
f 93 96 97
f 93 97 98
f 93 98 94
f 94 98 99
f 94 99 95
f 95 99 100
f 101 102 103
f 101 103 104
f 101 104 105
f 101 105 106
f 101 106 102
f 102 106 107
f 102 107 103
f 103 107 108
f 108 107 109
f 108 109 110
f 110 109 111
f 110 111 112
f 112 111 113
f 113 111 114
f 113 114 115
f 113 115 116
f 109 115 114
f 109 114 111
f 117 118 119
f 117 119 120
f 117 120 121
f 117 121 122
f 117 122 118
f 118 122 123
f 118 123 119
f 119 123 124
f 124 123 125
f 124 125 126
f 126 125 127
f 126 127 128
f 128 127 129
f 129 127 130
f 129 130 131
f 129 131 132
f 125 131 130
f 125 130 127
f 133 134 135
f 133 135 136
f 136 135 137
f 136 137 138
f 139 137 135
f 139 135 134
f 140 141 142
f 140 142 143
f 140 143 144
f 140 144 145
f 140 145 146
f 140 146 141
f 147 148 149
f 147 149 150
f 150 149 151
f 150 151 152
f 153 151 149
f 153 149 148
f 154 155 156
f 154 156 157
f 154 157 158
f 154 158 159
f 154 159 160
f 154 160 155
f 161 162 163
f 161 163 164
f 164 163 165
f 164 165 166
f 167 165 163
f 167 163 162
f 168 169 170
f 168 170 171
f 171 170 172
f 171 172 18
f 173 172 170
f 173 170 169
f 174 175 176
f 174 176 177
f 174 177 178
f 175 174 179
f 175 179 180
f 175 180 176
f 176 180 181
f 182 183 184
f 182 184 185
f 182 185 186
f 182 186 187
f 186 185 184
f 186 184 178
f 188 189 190
f 188 190 191
f 188 191 192
f 189 188 193
f 189 193 194
f 189 194 190
f 190 194 195
f 196 197 198
f 196 198 199
f 199 198 200
f 200 198 192
f 201 200 199
f 201 199 196
f 202 203 204
f 202 204 205
f 203 202 206
f 203 206 207
f 208 207 203
f 208 203 204
f 209 210 211
f 209 211 212
f 209 212 5
f 210 209 1
f 210 1 213
f 210 213 211
f 211 213 214
f 193 184 183
f 206 198 197
f 215 216 217
f 215 217 218
f 215 218 219
f 215 219 2
f 220 219 218
f 220 218 217
f 221 222 223
f 221 223 224
f 221 224 19
f 221 19 225
f 221 225 222
f 222 225 226
