# RS2 Model 24759
# Vertices: 441
# Faces: 480

v 49 -64 240
v 49 48 240
v 49 48 161
v 49 -64 161
v 49 48 80
v 49 -64 80
v 49 48 36
v 49 -64 36
v 49 48 0
v 49 -64 0
v 49 60 240
v 50 60 203
v 49 62 206
v 49 62 239
v 44 60 240
v 44 60 205
v 50 60 161
v 49 62 164
v 49 62 202
v 22 60 203
v 24 62 202
v 22 60 163
v 24 62 164
v 50 60 122
v 49 62 125
v 49 62 160
v 44 60 161
v 44 60 124
v 49 48 203
v 47 46 239
v 47 46 206
v 44 48 240
v 44 48 205
v 47 46 202
v 47 46 164
v 24 46 164
v 24 46 202
v 22 48 203
v 22 48 163
v 49 48 122
v 47 46 160
v 47 46 125
v 44 48 161
v 44 48 124
v 47 -64 202
v 47 -24 202
v 47 -24 164
v 47 -64 164
v 49 -64 203
v 49 -22 203
v 49 -22 163
v 47 -18 202
v 47 40 202
v 47 40 164
v 47 -18 164
v 49 -20 163
v 49 -20 203
v 49 42 203
v 49 42 163
v 47 45 202
v 47 45 164
v 49 44 163
v 49 44 203
v 47 -46 206
v 47 -64 206
v 47 -64 239
v 47 -46 239
v 49 -44 240
v 49 -44 205
v 47 24 206
v 47 24 239
v 49 22 205
v 49 22 240
v 47 18 206
v 47 -40 206
v 47 -40 239
v 47 18 239
v 49 20 240
v 49 20 205
v 49 -42 205
v 49 -42 240
v 47 -46 125
v 47 -64 125
v 47 -64 160
v 47 -46 160
v 49 -44 161
v 49 -44 124
v 47 24 125
v 47 24 160
v 49 22 124
v 49 22 161
v 47 18 125
v 47 -40 125
v 47 -40 160
v 47 18 160
v 49 20 161
v 49 20 124
v 49 -42 124
v 49 -42 161
v 47 -64 121
v 47 -24 121
v 47 -24 83
v 47 -64 83
v 49 -64 122
v 49 -22 122
v 49 -22 82
v 47 -18 121
v 47 40 121
v 47 40 83
v 47 -18 83
v 49 -20 82
v 49 -20 122
v 49 42 122
v 49 42 82
v 47 45 121
v 47 46 121
v 47 46 83
v 47 45 83
v 49 44 82
v 49 44 122
v 24 46 121
v 24 46 83
v 47 -46 44
v 47 -64 44
v 47 -64 79
v 47 -46 79
v 49 -44 80
v 49 -44 43
v 47 46 44
v 47 24 44
v 47 24 79
v 47 46 79
v 44 48 80
v 44 48 43
v 49 22 43
v 49 22 80
v 49 48 41
v 47 18 44
v 47 -40 44
v 47 -40 79
v 47 18 79
v 49 20 80
v 49 20 43
v 49 -42 43
v 49 -42 80
v 47 -64 40
v 47 -24 40
v 47 -24 3
v 47 -64 3
v 49 -64 41
v 49 -22 41
v 49 -22 2
v 47 45 40
v 47 46 40
v 47 46 3
v 47 45 3
v 49 44 2
v 49 44 41
v 24 46 40
v 24 46 3
v 54 0 121
v 61 64 240
v 61 -64 240
v 54 -64 120
v 54 -64 108
v 54 0 109
v 54 32 111
v 54 64 120
v 48 64 120
v 48 64 240
v 54 32 97
v 54 64 108
v 48 64 108
v 48 60 83
v 48 60 120
v 48 60 240
v 61 64 30
v 61 32 27
v 61 -64 16
v 61 64 16
v 48 64 0
v 48 64 30
v 48 60 30
v 61 -64 30
v 61 0 27
v 61 64 11
v 61 -64 11
v 61 -64 0
v 61 64 0
v 24 62 121
v 49 62 121
v 49 62 83
v 24 62 83
v 22 60 82
v 22 60 122
v 50 60 80
v 49 62 79
v 49 62 44
v 44 60 43
v 44 60 80
v 50 60 41
v 24 62 40
v 49 62 40
v 49 62 3
v 24 62 3
v 22 60 2
v 22 60 41
v 50 60 36
v 50 60 0
v 49 62 35
v 22 48 122
v 22 48 82
v 22 48 41
v 22 48 2
v -40 62 202
v 18 62 202
v 18 62 164
v -40 62 164
v -42 60 163
v -42 60 203
v 20 60 203
v 20 60 163
v -64 62 202
v -46 62 202
v -46 62 164
v -64 62 164
v -64 60 203
v -44 60 203
v -44 60 163
v -24 62 206
v -64 62 206
v -64 62 239
v -24 62 239
v -22 60 240
v -22 60 205
v -64 60 240
v 40 62 206
v -18 62 206
v -18 62 239
v 40 62 239
v 42 60 240
v 42 60 205
v -20 60 205
v -20 60 240
v -24 62 125
v -64 62 125
v -64 62 160
v -24 62 160
v -22 60 161
v -22 60 124
v -64 60 161
v 40 62 125
v -18 62 125
v -18 62 160
v 40 62 160
v 42 60 161
v 42 60 124
v -20 60 124
v -20 60 161
v -40 62 121
v 18 62 121
v 18 62 83
v -40 62 83
v -42 60 82
v -42 60 122
v 20 60 122
v 20 60 82
v -64 62 121
v -46 62 121
v -46 62 83
v -64 62 83
v -64 60 122
v -44 60 122
v -44 60 82
v -24 62 44
v -64 62 44
v -64 62 79
v -24 62 79
v -22 60 80
v -22 60 43
v -64 60 80
v 40 62 44
v -18 62 44
v -18 62 79
v 40 62 79
v 42 60 80
v 42 60 43
v -20 60 43
v -20 60 80
v -64 62 40
v -46 62 40
v -46 62 3
v -64 62 3
v -64 60 41
v -44 60 41
v -44 60 2
v 49 60 161
v 49 60 80
v 49 60 36
v -64 60 36
v 49 60 0
v -64 60 0
v 18 46 202
v -40 46 202
v -40 46 164
v 18 46 164
v 20 48 163
v 20 48 203
v -42 48 203
v -42 48 163
v -46 46 202
v -64 46 202
v -64 46 164
v -46 46 164
v -44 48 163
v -44 48 203
v -64 48 203
v -64 46 206
v -24 46 206
v -24 46 239
v -64 46 239
v -64 48 240
v -22 48 240
v -22 48 205
v -18 46 206
v 40 46 206
v 40 46 239
v -18 46 239
v -20 48 240
v -20 48 205
v 42 48 205
v 42 48 240
v -64 46 125
v -24 46 125
v -24 46 160
v -64 46 160
v -64 48 161
v -22 48 161
v -22 48 124
v -18 46 125
v 40 46 125
v 40 46 160
v -18 46 160
v -20 48 161
v -20 48 124
v 42 48 124
v 42 48 161
v 18 46 121
v -40 46 121
v -40 46 83
v 18 46 83
v 20 48 82
v 20 48 122
v -42 48 122
v -42 48 82
v -46 46 121
v -64 46 121
v -64 46 83
v -46 46 83
v -44 48 82
v -44 48 122
v -64 48 122
v -64 46 44
v -24 46 44
v -24 46 79
v -64 46 79
v -64 48 80
v -22 48 80
v -22 48 43
v -18 46 44
v 40 46 44
v 40 46 79
v -18 46 79
v -20 48 80
v -20 48 43
v 42 48 43
v 42 48 80
v -46 46 40
v -64 46 40
v -64 46 3
v -46 46 3
v -44 48 2
v -44 48 41
v -64 48 41
v -64 48 36
v -64 48 0
v 4 15 171
v -6 28 170
v 1 14 137
v 9 3 142
v 17 2 137
v 21 28 193
v 7 33 208
v -3 47 208
v 25 45 197
v 24 22 146
v 20 -66 6
v 23 -51 1
v 10 -60 8
v 4 -49 0
v -39 5 144
v -41 18 142
v -45 6 107
v -36 -5 114
v -27 8 135
v -19 34 206
v -32 28 201
v -41 40 195
v -11 45 202
v -16 26 154
v -22 -20 68
v -27 -45 7
v -18 -35 -4
v -39 -48 7
v -50 -37 -1
v -21 -20 67
v 47 -18 40
v 47 40 40
v 47 40 3
v 47 -18 3
v 49 -20 2
v 49 -20 41
v 49 42 41
v 49 42 2
v 48 60 0
v -40 62 40
v 18 62 40
v 18 62 3
v -40 62 3
v -42 60 2
v -42 60 41
v 20 60 41
v 20 60 2
v 18 46 40
v -40 46 40
v -40 46 3
v 18 46 3
v 20 48 2
v 20 48 41
v -42 48 41
v -42 48 2

f 1 2 3
f 1 3 4
f 4 3 5
f 4 5 6
f 6 5 7
f 6 7 8
f 8 7 9
f 8 9 10
f 11 12 13
f 11 13 14
f 11 14 15
f 15 14 16
f 16 14 13
f 12 17 18
f 12 18 19
f 12 19 20
f 20 19 21
f 20 21 22
f 22 21 23
f 23 21 18
f 18 21 19
f 17 24 25
f 17 25 26
f 17 26 27
f 27 26 28
f 28 26 25
f 29 2 30
f 29 30 31
f 31 30 32
f 31 32 33
f 3 29 34
f 3 34 35
f 35 34 36
f 36 34 37
f 36 37 38
f 36 38 39
f 40 3 41
f 40 41 42
f 42 41 43
f 42 43 44
f 45 46 47
f 45 47 48
f 46 45 49
f 46 49 50
f 46 50 47
f 47 50 51
f 52 53 54
f 52 54 55
f 52 55 56
f 52 56 57
f 52 57 53
f 53 57 58
f 53 58 54
f 54 58 59
f 60 34 35
f 60 35 61
f 60 61 62
f 60 62 63
f 60 63 34
f 34 63 29
f 34 29 37
f 37 29 38
f 64 65 66
f 64 66 67
f 64 67 68
f 64 68 69
f 68 67 66
f 68 66 1
f 31 70 71
f 31 71 30
f 30 71 2
f 30 2 32
f 71 70 72
f 71 72 73
f 71 73 2
f 74 75 76
f 74 76 77
f 74 77 78
f 74 78 79
f 76 75 80
f 76 80 81
f 76 81 78
f 76 78 77
f 82 83 84
f 82 84 85
f 82 85 86
f 82 86 87
f 86 85 84
f 86 84 4
f 42 88 89
f 42 89 41
f 41 89 3
f 41 3 43
f 89 88 90
f 89 90 91
f 89 91 3
f 92 93 94
f 92 94 95
f 92 95 96
f 92 96 97
f 94 93 98
f 94 98 99
f 94 99 96
f 94 96 95
f 100 101 102
f 100 102 103
f 101 100 104
f 101 104 105
f 101 105 102
f 102 105 106
f 107 108 109
f 107 109 110
f 107 110 111
f 107 111 112
f 107 112 108
f 108 112 113
f 108 113 109
f 109 113 114
f 115 116 117
f 115 117 118
f 115 118 119
f 115 119 120
f 115 120 116
f 116 120 40
f 116 40 121
f 116 121 122
f 116 122 117
f 116 117 5
f 116 5 40
f 123 124 125
f 123 125 126
f 123 126 127
f 123 127 128
f 127 126 125
f 127 125 6
f 129 130 131
f 129 131 132
f 129 132 133
f 129 133 134
f 131 130 135
f 131 135 136
f 131 136 5
f 131 5 132
f 132 5 133
f 5 132 137
f 137 132 129
f 138 139 140
f 138 140 141
f 138 141 142
f 138 142 143
f 140 139 144
f 140 144 145
f 140 145 142
f 140 142 141
f 146 147 148
f 146 148 149
f 147 146 150
f 147 150 151
f 147 151 148
f 148 151 152
f 153 154 155
f 153 155 156
f 153 156 157
f 153 157 158
f 153 158 154
f 154 158 137
f 154 137 159
f 154 159 160
f 154 160 155
f 154 155 7
f 154 7 137
f 161 162 163
f 161 163 164
f 161 164 165
f 161 165 166
f 161 166 167
f 161 167 162
f 162 167 168
f 162 168 169
f 162 169 170
f 162 170 11
f 162 11 2
f 162 2 163
f 163 2 1
f 166 171 167
f 167 171 172
f 167 172 168
f 168 172 173
f 168 173 169
f 169 173 174
f 169 174 175
f 169 175 170
f 170 175 176
f 170 176 11
f 177 172 171
f 177 171 178
f 177 178 179
f 177 179 180
f 177 180 181
f 177 181 182
f 177 182 172
f 172 182 173
f 173 182 183
f 173 183 174
f 166 165 184
f 166 184 185
f 166 185 171
f 171 185 178
f 178 185 179
f 179 185 184
f 186 187 188
f 186 188 189
f 187 186 180
f 187 180 179
f 190 191 192
f 190 192 193
f 190 193 194
f 190 194 195
f 190 195 191
f 191 195 24
f 191 24 192
f 192 24 196
f 197 198 199
f 197 199 200
f 197 200 196
f 197 196 198
f 198 196 201
f 202 203 204
f 202 204 205
f 202 205 206
f 202 206 207
f 202 207 203
f 203 207 201
f 203 201 204
f 204 201 208
f 204 208 209
f 208 204 210
f 121 40 211
f 121 211 122
f 122 211 212
f 159 137 213
f 159 213 160
f 160 213 214
f 215 216 217
f 215 217 218
f 215 218 219
f 215 219 220
f 215 220 216
f 216 220 221
f 216 221 217
f 217 221 222
f 223 224 225
f 223 225 226
f 224 223 227
f 224 227 228
f 224 228 225
f 225 228 229
f 230 231 232
f 230 232 233
f 230 233 234
f 230 234 235
f 234 233 232
f 234 232 236
f 237 238 239
f 237 239 240
f 237 240 241
f 237 241 242
f 239 238 243
f 239 243 244
f 239 244 241
f 239 241 240
f 245 246 247
f 245 247 248
f 245 248 249
f 245 249 250
f 249 248 247
f 249 247 251
f 252 253 254
f 252 254 255
f 252 255 256
f 252 256 257
f 254 253 258
f 254 258 259
f 254 259 256
f 254 256 255
f 260 261 262
f 260 262 263
f 260 263 264
f 260 264 265
f 260 265 261
f 261 265 266
f 261 266 262
f 262 266 267
f 268 269 270
f 268 270 271
f 269 268 272
f 269 272 273
f 269 273 270
f 270 273 274
f 275 276 277
f 275 277 278
f 275 278 279
f 275 279 280
f 279 278 277
f 279 277 281
f 282 283 284
f 282 284 285
f 282 285 286
f 282 286 287
f 284 283 288
f 284 288 289
f 284 289 286
f 284 286 285
f 290 291 292
f 290 292 293
f 291 290 294
f 291 294 295
f 291 295 292
f 292 295 296
f 236 11 297
f 236 297 251
f 251 297 298
f 251 298 281
f 281 298 299
f 281 299 300
f 300 299 301
f 300 301 302
f 303 304 305
f 303 305 306
f 303 306 307
f 303 307 308
f 303 308 304
f 304 308 309
f 304 309 305
f 305 309 310
f 311 312 313
f 311 313 314
f 311 314 315
f 311 315 316
f 311 316 312
f 312 316 317
f 318 319 320
f 318 320 321
f 321 320 322
f 322 320 323
f 323 320 324
f 324 320 319
f 325 326 327
f 325 327 328
f 325 328 329
f 325 329 330
f 327 326 331
f 327 331 332
f 327 332 329
f 327 329 328
f 333 334 335
f 333 335 336
f 336 335 337
f 337 335 338
f 338 335 339
f 339 335 334
f 340 341 342
f 340 342 343
f 340 343 344
f 340 344 345
f 342 341 346
f 342 346 347
f 342 347 344
f 342 344 343
f 348 349 350
f 348 350 351
f 348 351 352
f 348 352 353
f 348 353 349
f 349 353 354
f 349 354 350
f 350 354 355
f 356 357 358
f 356 358 359
f 356 359 360
f 356 360 361
f 356 361 357
f 357 361 362
f 363 364 365
f 363 365 366
f 366 365 367
f 367 365 368
f 368 365 369
f 369 365 364
f 370 371 372
f 370 372 373
f 370 373 374
f 370 374 375
f 372 371 376
f 372 376 377
f 372 377 374
f 372 374 373
f 378 379 380
f 378 380 381
f 378 381 382
f 378 382 383
f 378 383 379
f 379 383 384
f 2 322 337
f 2 337 3
f 3 337 367
f 3 367 5
f 5 367 385
f 5 385 7
f 7 385 386
f 7 386 9
f 11 236 322
f 11 322 2
f 387 388 389
f 387 389 390
f 387 390 391
f 387 391 392
f 387 392 393
f 387 393 388
f 388 393 394
f 394 393 392
f 394 392 395
f 395 392 391
f 395 391 396
f 396 391 397
f 396 397 398
f 391 399 397
f 399 391 390
f 399 390 400
f 400 390 389
f 401 402 403
f 401 403 404
f 401 404 405
f 401 405 406
f 401 406 407
f 401 407 402
f 402 407 408
f 408 407 406
f 408 406 409
f 409 406 405
f 409 405 410
f 410 405 411
f 410 411 412
f 410 412 413
f 413 412 414
f 413 414 415
f 415 414 404
f 415 404 403
f 405 414 416
f 405 416 411
f 411 416 412
f 412 416 414
f 405 404 414
f 417 418 419
f 417 419 420
f 417 420 421
f 417 421 422
f 417 422 418
f 418 422 423
f 418 423 419
f 419 423 424
f 182 181 425
f 182 425 183
f 426 427 428
f 426 428 429
f 426 429 430
f 426 430 431
f 426 431 427
f 427 431 432
f 427 432 428
f 428 432 433
f 434 435 436
f 434 436 437
f 434 437 438
f 434 438 439
f 434 439 435
f 435 439 440
f 435 440 436
f 436 440 441
f 181 180 189
