# RS2 Model 24773
# Vertices: 74
# Faces: 68

v -58 64 59
v -58 -64 59
v -61 -64 121
v -61 64 121
v -49 -64 121
v -49 64 121
v -49 -64 0
v -49 64 0
v -47 64 41
v -47 24 41
v -47 24 3
v -47 64 3
v -49 64 42
v -49 22 42
v -49 22 2
v -47 18 41
v -47 -40 41
v -47 -40 3
v -47 18 3
v -49 20 2
v -49 20 42
v -49 -42 42
v -49 -42 2
v -47 -46 41
v -47 -64 41
v -47 -64 3
v -47 -46 3
v -49 -44 2
v -49 -44 42
v -49 -64 42
v -47 46 45
v -47 64 45
v -47 64 78
v -47 46 78
v -49 44 79
v -49 44 44
v -49 64 79
v -47 -64 45
v -47 -24 45
v -47 -24 78
v -47 -64 78
v -49 -64 79
v -49 -22 79
v -49 -22 44
v -47 -18 45
v -47 40 45
v -47 40 78
v -47 -18 78
v -49 -20 79
v -49 -20 44
v -49 42 44
v -49 42 79
v -47 64 120
v -47 24 120
v -47 24 82
v -47 64 82
v -49 22 121
v -49 22 81
v -47 18 120
v -47 -40 120
v -47 -40 82
v -47 18 82
v -49 20 81
v -49 20 121
v -49 -42 121
v -49 -42 81
v -47 -46 120
v -47 -64 120
v -47 -64 82
v -47 -46 82
v -49 -44 81
v -49 -44 121
v -61 64 0
v -61 -64 0

f 1 2 3
f 1 3 4
f 4 3 5
f 4 5 6
f 6 5 7
f 6 7 8
f 9 10 11
f 9 11 12
f 10 9 13
f 10 13 14
f 10 14 11
f 11 14 15
f 16 17 18
f 16 18 19
f 16 19 20
f 16 20 21
f 16 21 17
f 17 21 22
f 17 22 18
f 18 22 23
f 24 25 26
f 24 26 27
f 24 27 28
f 24 28 29
f 24 29 25
f 25 29 30
f 31 32 33
f 31 33 34
f 31 34 35
f 31 35 36
f 35 34 33
f 35 33 37
f 38 39 40
f 38 40 41
f 41 40 42
f 42 40 43
f 43 40 44
f 44 40 39
f 45 46 47
f 45 47 48
f 45 48 49
f 45 49 50
f 47 46 51
f 47 51 52
f 47 52 49
f 47 49 48
f 53 54 55
f 53 55 56
f 54 53 6
f 54 6 57
f 54 57 55
f 55 57 58
f 59 60 61
f 59 61 62
f 59 62 63
f 59 63 64
f 59 64 60
f 60 64 65
f 60 65 61
f 61 65 66
f 67 68 69
f 67 69 70
f 67 70 71
f 67 71 72
f 67 72 68
f 68 72 5
f 2 1 73
f 2 73 74
