# RS2 Model 24794
# Vertices: 83
# Faces: 156

v -27 -4 0
v -37 -4 10
v -40 46 10
v -30 46 0
v -37 46 10
v -29 46 2
v -18 46 0
v -28 46 3
v -19 46 5
v -16 46 11
v -12 46 10
v -18 40 0
v 11 44 0
v 5 38 0
v 16 -4 0
v 12 -5 0
v 30 -51 0
v 24 -45 0
v -18 -54 0
v -18 -48 0
v -12 -54 10
v -16 -54 11
v -19 -54 5
v -28 -54 3
v -29 -54 2
v -30 -54 0
v -40 -54 10
v -33 -4 27
v -36 46 27
v -33 46 23
v -32 46 22
v -36 46 10
v -33 46 10
v -26 46 5
v -19 46 8
v -17 46 12
v -19 46 20
v -17 46 24
v -14 -4 24
v -9 -4 10
v -15 -4 0
v -17 36 0
v 2 35 0
v 10 -6 0
v 21 -42 0
v -17 -44 0
v -17 -54 24
v -19 -54 20
v -20 -54 19
v -17 -54 12
v -19 -54 8
v -26 -54 5
v -36 -54 10
v -37 -54 10
v -36 -54 27
v -20 46 19
v -21 46 18
v -30 46 19
v -31 46 11
v -25 46 7
v -20 46 10
v -22 46 17
v -29 51 18
v -22 51 17
v -25 51 7
v -31 51 11
v -29 46 18
v -20 51 10
v -33 -54 23
v -32 -54 22
v -30 -54 19
v -21 -54 18
v -22 -54 17
v -20 -54 10
v -25 -54 7
v -33 -54 10
v -31 -54 11
v -29 -54 18
v -29 -59 18
v -22 -59 17
v -20 -59 10
v -25 -59 7
v -31 -59 11

f 1 2 3
f 1 3 4
f 4 3 5
f 4 5 6
f 4 6 7
f 7 6 8
f 7 8 9
f 7 9 10
f 7 10 11
f 7 11 12
f 7 12 13
f 13 12 14
f 13 14 15
f 15 14 16
f 15 16 17
f 17 16 18
f 17 18 19
f 19 18 20
f 19 20 21
f 19 21 22
f 19 22 23
f 19 23 24
f 19 24 25
f 19 25 26
f 26 25 27
f 26 27 2
f 26 2 1
f 2 28 29
f 2 29 3
f 3 29 30
f 3 30 5
f 5 30 31
f 5 31 32
f 5 32 6
f 6 32 8
f 8 32 33
f 8 33 34
f 8 34 9
f 9 34 35
f 9 35 36
f 9 36 10
f 10 36 37
f 10 37 38
f 10 38 11
f 11 38 39
f 11 39 40
f 11 40 41
f 11 41 42
f 11 42 12
f 12 42 14
f 14 42 43
f 14 43 16
f 16 43 44
f 16 44 18
f 18 44 45
f 18 45 20
f 20 45 46
f 20 46 21
f 21 46 40
f 21 40 47
f 21 47 48
f 21 48 22
f 22 48 49
f 22 49 50
f 22 50 51
f 22 51 23
f 23 51 24
f 24 51 52
f 24 52 53
f 24 53 54
f 24 54 25
f 25 54 27
f 27 54 55
f 27 55 28
f 27 28 2
f 28 39 38
f 28 38 29
f 29 38 37
f 29 37 30
f 30 37 56
f 30 56 31
f 31 56 57
f 31 57 58
f 31 58 32
f 32 58 33
f 33 58 59
f 33 59 60
f 33 60 34
f 34 60 61
f 34 61 35
f 35 61 62
f 35 62 57
f 35 57 56
f 35 56 36
f 36 56 37
f 41 44 43
f 41 43 42
f 63 64 65
f 63 65 66
f 63 66 59
f 63 59 67
f 63 67 64
f 64 67 62
f 64 62 68
f 64 68 65
f 65 68 61
f 65 61 60
f 65 60 66
f 66 60 59
f 62 61 68
f 58 67 59
f 67 58 57
f 67 57 62
f 39 28 55
f 39 55 47
f 39 47 40
f 55 54 69
f 55 69 47
f 47 69 48
f 48 69 70
f 48 70 49
f 49 70 71
f 49 71 72
f 49 72 50
f 50 72 51
f 51 72 73
f 51 73 74
f 51 74 52
f 52 74 75
f 52 75 76
f 52 76 53
f 53 76 70
f 53 70 69
f 53 69 54
f 70 76 71
f 71 76 77
f 71 77 78
f 71 78 72
f 72 78 73
f 73 78 79
f 73 79 80
f 73 80 74
f 74 80 81
f 74 81 75
f 75 81 82
f 75 82 77
f 75 77 76
f 44 41 46
f 44 46 45
f 40 46 41
f 80 79 83
f 80 83 82
f 80 82 81
f 77 82 83
f 77 83 78
f 78 83 79
