# RS2 Model 248
# Vertices: 47
# Faces: 76

v 7 -2 170
v 10 -1 175
v 9 -5 173
v 7 -8 168
v 0 -6 165
v 3 -10 164
v 0 -11 163
v -3 -10 164
v -7 -8 168
v -7 -2 170
v -9 -5 173
v -10 -1 175
v -9 -1 175
v -10 -2 180
v -11 -2 179
v -9 -7 177
v -10 -7 177
v -7 -10 174
v -8 -9 174
v -5 -11 169
v -4 -15 173
v -4 -12 168
v -2 -15 169
v -1 -16 170
v 0 -17 174
v -3 -16 175
v 4 -15 173
v 3 -16 175
v 1 -16 170
v 2 -15 169
v 4 -12 168
v 5 -11 169
v 7 -10 174
v 5 -10 169
v 8 -9 174
v 9 -7 177
v 10 -7 177
v 10 -2 180
v 11 -2 179
v 9 -1 175
v -5 -10 169
v -4 -12 167
v -2 -15 168
v 0 -17 167
v 0 -15 165
v 2 -15 168
v 4 -12 167

f 1 2 3
f 1 3 4
f 1 4 5
f 5 4 6
f 5 6 7
f 5 7 8
f 5 8 9
f 5 9 10
f 10 9 11
f 10 11 12
f 10 12 13
f 13 12 14
f 14 12 15
f 14 15 16
f 16 15 17
f 16 17 18
f 18 17 19
f 18 19 20
f 18 20 21
f 21 20 22
f 21 22 23
f 21 23 24
f 21 24 25
f 21 25 26
f 27 28 25
f 27 25 29
f 27 29 30
f 27 30 31
f 27 31 32
f 27 32 33
f 33 32 34
f 33 34 35
f 33 35 36
f 36 35 37
f 36 37 38
f 38 37 39
f 38 39 40
f 40 39 2
f 40 2 1
f 37 35 3
f 37 3 39
f 39 3 2
f 35 34 4
f 35 4 3
f 17 11 19
f 19 11 9
f 19 9 41
f 19 41 20
f 20 41 22
f 22 41 42
f 22 42 23
f 23 42 43
f 23 43 24
f 24 43 44
f 24 44 29
f 24 29 25
f 42 41 9
f 42 9 8
f 42 8 45
f 42 45 43
f 43 45 44
f 44 45 46
f 44 46 29
f 29 46 30
f 30 46 31
f 31 46 47
f 31 47 32
f 32 47 34
f 34 47 4
f 4 47 6
f 6 47 45
f 6 45 7
f 7 45 8
f 11 17 15
f 11 15 12
f 47 46 45
