# RS2 Model 2481
# Vertices: 92
# Faces: 94

v -1 -4 17
v -1 0 17
v -3 0 17
v -3 -4 17
v 3 -4 17
v 3 0 17
v 1 0 17
v 1 -4 17
v -20 -6 8
v -15 -15 8
v -12 -12 16
v -15 -5 16
v -20 6 8
v -20 6 0
v -20 -6 0
v -15 -15 0
v -6 -20 8
v -5 -15 16
v 5 -15 16
v 13 -11 16
v 16 -5 16
v 16 5 16
v 12 12 16
v 5 15 16
v -5 15 16
v -12 12 16
v -15 5 16
v -15 15 8
v -15 15 0
v 6 -20 8
v 16 -14 8
v 20 -6 8
v 20 6 8
v 15 15 8
v 6 20 8
v -6 20 8
v -6 -20 0
v 6 -20 0
v 16 -14 0
v 20 -6 0
v 20 6 0
v 15 15 0
v 6 20 0
v -6 20 0
v -3 -9 17
v 3 -9 17
v 3 -6 17
v -3 -6 17
v -8 -4 17
v -5 -4 17
v -8 4 17
v -5 4 17
v -1 9 17
v -1 6 17
v 1 6 17
v 1 9 17
v 8 4 17
v 5 4 17
v 8 -4 17
v 5 -4 17
v -2 -15 17
v 2 -15 17
v 1 -11 17
v -1 -11 17
v 15 -2 17
v 15 1 17
v 10 1 17
v 10 -2 17
v -10 1 17
v -15 1 17
v -15 -2 17
v -10 -2 17
v 1 11 17
v 2 15 17
v -2 15 17
v -1 11 17
v 8 6 17
v 12 9 17
v 10 11 17
v 6 8 17
v -6 8 17
v -10 11 17
v -12 9 17
v -8 6 17
v -8 -8 17
v -12 -11 17
v -10 -13 17
v -6 -9 17
v 6 -9 17
v 10 -13 17
v 12 -11 17
v 8 -8 17

f 1 2 3
f 1 3 4
f 5 6 7
f 5 7 8
f 9 10 11
f 9 11 12
f 9 12 13
f 9 13 14
f 9 14 15
f 9 15 10
f 10 15 16
f 10 16 17
f 10 17 18
f 10 18 11
f 11 18 12
f 12 18 19
f 12 19 20
f 12 20 21
f 12 21 22
f 12 22 23
f 12 23 24
f 12 24 25
f 12 25 26
f 12 26 27
f 12 27 13
f 13 27 28
f 13 28 29
f 13 29 14
f 17 30 19
f 17 19 18
f 30 31 20
f 30 20 19
f 31 32 21
f 31 21 20
f 32 33 22
f 32 22 21
f 33 34 23
f 33 23 22
f 34 35 24
f 34 24 23
f 35 36 25
f 35 25 24
f 36 28 26
f 36 26 25
f 28 27 26
f 16 37 17
f 17 37 30
f 30 37 38
f 30 38 31
f 31 38 39
f 31 39 32
f 32 39 40
f 32 40 33
f 33 40 41
f 33 41 34
f 34 41 42
f 34 42 35
f 35 42 43
f 35 43 36
f 36 43 44
f 36 44 28
f 28 44 29
f 45 46 47
f 45 47 48
f 45 48 49
f 49 48 50
f 49 50 51
f 51 50 52
f 51 52 53
f 53 52 54
f 53 54 55
f 53 55 56
f 56 55 57
f 57 55 58
f 57 58 59
f 59 58 60
f 59 60 46
f 46 60 47
f 61 62 63
f 61 63 64
f 65 66 67
f 65 67 68
f 69 70 71
f 69 71 72
f 73 74 75
f 73 75 76
f 77 78 79
f 77 79 80
f 81 82 83
f 81 83 84
f 85 86 87
f 85 87 88
f 89 90 91
f 89 91 92
