# RS2 Model 24820
# Vertices: 82
# Faces: 60

v -11 63 1
v -14 60 1
v -10 58 1
v -7 62 1
v -16 55 1
v -12 54 1
v -15 50 1
v -12 51 1
v -8 46 1
v -22 27 1
v -20 23 1
v -17 26 1
v -20 30 1
v -23 32 1
v -25 28 1
v -29 32 1
v -28 28 1
v -32 28 1
v -30 27 1
v -33 26 1
v -16 20 1
v -14 23 1
v -11 19 1
v -10 23 1
v -6 21 1
v -6 23 1
v -3 22 1
v 60 56 1
v 61 60 1
v 57 61 1
v 57 57 1
v 52 59 1
v 54 56 1
v 49 54 1
v -55 12 1
v -51 12 1
v -53 17 1
v -56 15 1
v -58 20 1
v -26 1 1
v -24 -2 1
v -22 2 1
v -24 2 1
v -22 5 1
v 11 8 1
v 7 7 1
v 9 3 1
v 12 5 1
v 13 0 1
v 15 3 1
v 18 0 1
v 16 2 1
v 20 2 1
v 22 -30 1
v 25 -33 1
v 27 -29 1
v 24 -27 1
v 27 -23 1
v -21 -39 1
v -17 -41 1
v -16 -37 1
v -20 -36 1
v -19 -31 1
v -55 -24 1
v -54 -29 1
v -50 -28 1
v -52 -24 1
v -47 -22 1
v 56 -59 1
v 60 -60 1
v 61 -56 1
v 57 -56 1
v 57 -51 1
v 54 -54 1
v 53 -51 1
v 53 -53 1
v 50 -51 1
v 56 -3 1
v 58 -6 1
v 61 -2 1
v 58 0 1
v 61 4 1

f 1 2 3
f 1 3 4
f 3 2 5
f 3 5 6
f 6 5 7
f 6 7 8
f 8 7 9
f 10 11 12
f 10 12 13
f 10 13 14
f 10 14 15
f 15 14 16
f 15 16 17
f 17 16 18
f 17 18 19
f 19 18 20
f 12 11 21
f 12 21 22
f 22 21 23
f 22 23 24
f 24 23 25
f 24 25 26
f 26 25 27
f 28 29 30
f 28 30 31
f 31 30 32
f 31 32 33
f 33 32 34
f 35 36 37
f 35 37 38
f 38 37 39
f 40 41 42
f 40 42 43
f 43 42 44
f 45 46 47
f 45 47 48
f 48 47 49
f 48 49 50
f 50 49 51
f 50 51 52
f 52 51 53
f 54 55 56
f 54 56 57
f 57 56 58
f 59 60 61
f 59 61 62
f 62 61 63
f 64 65 66
f 64 66 67
f 67 66 68
f 69 70 71
f 69 71 72
f 72 71 73
f 72 73 74
f 74 73 75
f 74 75 76
f 76 75 77
f 78 79 80
f 78 80 81
f 81 80 82
