# RS2 Model 24828
# Vertices: 84
# Faces: 124

v -59 -31 38
v -57 -17 32
v -62 -17 30
v -64 -31 36
v -62 -46 29
v -57 -46 31
v -48 -31 20
v -53 -11 19
v -57 -11 17
v -49 -18 8
v -47 -31 2
v -51 -31 0
v -54 -18 7
v -53 -50 19
v -49 -45 8
v -54 -45 7
v -57 -50 17
v -59 8 109
v -59 17 113
v -64 17 112
v -64 8 108
v -54 8 90
v -54 20 90
v -58 20 89
v -58 8 89
v -57 9 88
v -54 9 89
v -54 19 89
v -57 19 88
v -46 10 49
v -43 10 50
v -43 17 51
v -46 17 50
v -32 20 3
v -33 20 3
v -35 13 12
v -34 13 12
v -59 50 123
v -60 33 123
v -54 33 100
v -54 50 101
v -58 50 100
v -64 50 121
v -64 33 120
v -58 33 99
v -58 34 98
v -54 34 99
v -54 49 100
v -58 49 99
v -45 36 54
v -45 49 55
v -48 49 54
v -36 45 13
v -37 45 12
v -33 38 1
v -48 36 53
v -58 36 48
v -55 43 35
v -60 43 33
v -63 36 47
v -59 26 53
v -49 30 39
v -45 30 19
v -52 43 21
v -57 43 20
v -49 36 5
v -54 36 4
v -53 26 0
v -48 26 1
v -48 9 1
v -53 9 0
v -49 1 5
v -54 1 4
v -52 -7 21
v -57 -7 20
v -55 -7 35
v -60 -7 33
v -63 1 47
v -58 1 48
v -59 9 53
v -64 9 52
v -64 26 52
v -49 5 39
v -45 5 19

f 1 2 3
f 1 3 4
f 1 4 5
f 1 5 6
f 1 6 7
f 1 7 2
f 2 7 8
f 2 8 9
f 2 9 3
f 10 11 12
f 10 12 13
f 10 13 9
f 10 9 8
f 10 8 11
f 11 8 7
f 11 7 14
f 11 14 15
f 11 15 12
f 12 15 16
f 16 15 14
f 16 14 17
f 17 14 5
f 5 14 6
f 6 14 7
f 18 19 20
f 18 20 21
f 18 21 22
f 18 22 19
f 19 22 23
f 19 23 24
f 19 24 20
f 22 21 25
f 22 25 26
f 22 26 27
f 22 27 23
f 23 27 28
f 23 28 24
f 24 28 29
f 24 29 25
f 25 29 26
f 27 26 30
f 27 30 31
f 27 31 28
f 28 31 32
f 28 32 29
f 29 32 33
f 33 32 34
f 33 34 35
f 35 34 36
f 36 34 37
f 36 37 31
f 36 31 30
f 32 31 37
f 32 37 34
f 38 39 40
f 38 40 41
f 38 41 42
f 38 42 43
f 38 43 39
f 39 43 44
f 39 44 40
f 40 44 45
f 40 45 46
f 40 46 47
f 40 47 41
f 41 47 48
f 41 48 42
f 42 48 49
f 42 49 45
f 45 49 46
f 48 47 50
f 48 50 51
f 48 51 49
f 49 51 52
f 52 51 53
f 52 53 54
f 54 53 55
f 55 53 51
f 55 51 50
f 55 50 56
f 56 50 47
f 56 47 46
f 57 58 59
f 57 59 60
f 57 60 61
f 57 61 58
f 58 61 62
f 58 62 63
f 58 63 64
f 58 64 59
f 59 64 65
f 65 64 66
f 65 66 67
f 67 66 68
f 68 66 69
f 68 69 70
f 68 70 71
f 71 70 72
f 71 72 73
f 73 72 74
f 73 74 75
f 75 74 76
f 75 76 77
f 77 76 78
f 78 76 79
f 78 79 80
f 78 80 81
f 81 80 61
f 81 61 82
f 82 61 60
f 64 63 69
f 64 69 66
f 62 61 80
f 62 80 83
f 62 83 63
f 63 83 84
f 63 84 69
f 69 84 70
f 70 84 74
f 70 74 72
f 83 80 79
f 83 79 76
f 83 76 84
f 84 76 74
