# RS2 Model 24937
# Vertices: 133
# Faces: 145

v -56 64 240
v -64 64 240
v -64 56 240
v -56 56 240
v -56 56 103
v -56 64 109
v -64 64 109
v -64 56 103
v -46 9 72
v -46 -36 75
v -46 -44 38
v -46 18 39
v -49 20 38
v -49 11 73
v -49 -38 76
v -49 -46 37
v -46 -18 0
v -46 40 0
v -46 37 34
v -46 -20 33
v -49 -22 34
v -49 -20 0
v -49 42 0
v -49 39 35
v -46 39 81
v -46 64 76
v -46 64 108
v -46 45 93
v -49 43 94
v -49 37 80
v -64 44 94
v -64 38 80
v -49 13 78
v -49 -64 0
v -49 64 0
v -49 64 109
v -64 64 22
v -64 -21 66
v -64 13 78
v -49 -15 84
v -49 -24 100
v -49 -64 109
v -64 -25 100
v -64 -64 109
v -64 -64 22
v -64 64 16
v -64 -64 16
v -64 64 0
v -64 -64 0
v -46 -64 76
v -46 -17 85
v -46 -26 99
v -46 -64 108
v -64 -16 84
v -46 64 72
v -46 26 69
v -46 24 39
v -46 64 39
v -49 64 73
v -49 24 70
v -49 22 38
v -46 -46 72
v -46 -64 72
v -46 -64 39
v -46 -50 38
v -49 -48 37
v -49 -44 73
v -49 -64 73
v -46 46 0
v -46 64 0
v -46 64 35
v -46 46 35
v -49 44 36
v -49 44 0
v -49 64 36
v -46 -64 0
v -46 -24 0
v -46 -27 35
v -46 -64 35
v -49 -64 36
v -49 -25 36
v -49 -22 0
v -64 -56 240
v -56 -56 240
v -56 -55 107
v -64 -55 107
v -64 -64 240
v -56 -64 240
v -56 -64 109
v -53 -63 186
v -56 -63 237
v -50 0 233
v -50 62 186
v -54 62 237
v -44 62 187
v -47 62 238
v -45 0 233
v -47 -63 187
v -50 -63 238
v -53 -59 113
v -56 -58 182
v -50 1 178
v -50 62 113
v -54 61 182
v -44 62 114
v -47 61 183
v -45 1 178
v -47 -59 114
v -50 -58 183
v -56 56 236
v -64 56 236
v -64 -44 104
v -56 -44 104
v -56 56 208
v -56 -27 100
v -64 56 208
v -64 -27 100
v -43 -59 211
v -43 -61 211
v -43 -61 209
v -43 -59 209
v -43 60 210
v -43 58 210
v -43 58 208
v -43 60 208
v -43 59 150
v -43 57 150
v -43 57 148
v -43 59 148
v -43 -55 147
v -43 -57 147
v -43 -57 145
v -43 -55 145

f 1 2 3
f 1 3 4
f 1 4 5
f 1 5 6
f 3 2 7
f 3 7 8
f 9 10 11
f 9 11 12
f 9 12 13
f 9 13 14
f 9 14 10
f 10 14 15
f 10 15 11
f 11 15 16
f 17 18 19
f 17 19 20
f 17 20 21
f 17 21 22
f 19 18 23
f 19 23 24
f 19 24 21
f 19 21 20
f 25 26 27
f 25 27 28
f 25 28 29
f 25 29 30
f 30 29 31
f 30 31 32
f 30 32 33
f 30 33 34
f 30 34 35
f 30 35 36
f 29 28 27
f 29 27 36
f 29 36 7
f 29 7 31
f 31 7 32
f 32 7 37
f 32 37 38
f 32 38 39
f 32 39 33
f 33 39 40
f 33 40 34
f 34 40 41
f 34 41 42
f 42 41 43
f 42 43 44
f 44 43 38
f 44 38 45
f 45 38 37
f 45 37 46
f 45 46 47
f 47 46 48
f 47 48 49
f 50 51 52
f 50 52 53
f 53 52 42
f 42 52 41
f 41 52 40
f 41 40 54
f 41 54 43
f 43 54 38
f 38 54 39
f 39 54 40
f 52 51 40
f 55 56 57
f 55 57 58
f 56 55 59
f 56 59 60
f 56 60 57
f 57 60 61
f 62 63 64
f 62 64 65
f 62 65 66
f 62 66 67
f 62 67 63
f 63 67 68
f 69 70 71
f 69 71 72
f 69 72 73
f 69 73 74
f 73 72 71
f 73 71 75
f 76 77 78
f 76 78 79
f 79 78 80
f 80 78 81
f 81 78 82
f 82 78 77
f 83 84 85
f 83 85 86
f 83 86 87
f 83 87 84
f 84 87 88
f 84 88 89
f 84 89 85
f 87 86 44
f 90 91 92
f 90 92 93
f 93 92 94
f 93 94 95
f 95 94 96
f 95 96 97
f 95 97 98
f 98 97 99
f 98 99 90
f 90 99 91
f 91 99 97
f 91 97 92
f 92 97 94
f 94 97 96
f 100 101 102
f 100 102 103
f 103 102 104
f 103 104 105
f 105 104 106
f 105 106 107
f 105 107 108
f 108 107 109
f 108 109 100
f 100 109 101
f 101 109 107
f 101 107 102
f 102 107 104
f 104 107 106
f 110 111 112
f 110 112 113
f 110 113 114
f 114 113 115
f 114 115 116
f 114 116 8
f 114 8 5
f 116 115 117
f 116 117 111
f 111 117 112
f 4 3 111
f 4 111 110
f 118 119 120
f 118 120 121
f 122 123 124
f 122 124 125
f 126 127 128
f 126 128 129
f 130 131 132
f 130 132 133
