# RS2 Model 24930
# Vertices: 54
# Faces: 61

v -16 57 0
v -28 30 0
v 19 30 0
v 19 58 0
v 18 60 -3
v -12 58 -3
v -64 61 -3
v -64 60 0
v -64 29 0
v -64 28 -3
v -29 29 -3
v 20 28 -3
v 37 30 0
v 64 60 0
v 64 61 -3
v -12 -30 0
v -32 -58 0
v 39 -59 0
v 31 -30 0
v 32 -28 -3
v -10 -29 -3
v -64 -29 0
v -64 -59 0
v -64 -60 -3
v -33 -59 -3
v 41 -60 -3
v 64 -59 0
v 64 -29 0
v 64 -28 -3
v 64 29 0
v 35 29 -3
v 64 28 -3
v 3 16 0
v -19 -19 0
v 64 -21 0
v 64 17 0
v 64 19 -3
v 3 17 -3
v -64 17 0
v -64 -21 0
v -64 -22 -3
v -16 -21 -3
v 64 -22 -3
v 64 -60 -3
v -64 19 -3
v -64 -28 -3
v 8 64 -3
v -8 64 -3
v -8 -64 -3
v 8 -64 -3
v 8 -64 -7
v 8 64 -7
v -8 64 -7
v -8 -64 -7

f 1 2 3
f 1 3 4
f 1 4 5
f 1 5 6
f 1 6 7
f 1 7 8
f 1 8 2
f 2 8 9
f 2 9 10
f 2 10 11
f 2 11 3
f 3 11 12
f 3 12 13
f 3 13 4
f 4 13 14
f 4 14 15
f 4 15 5
f 16 17 18
f 16 18 19
f 16 19 20
f 16 20 21
f 16 21 22
f 16 22 17
f 17 22 23
f 17 23 24
f 17 24 25
f 17 25 26
f 17 26 18
f 18 26 27
f 18 27 19
f 19 27 28
f 19 28 29
f 19 29 20
f 14 13 30
f 30 13 31
f 30 31 32
f 33 34 35
f 33 35 36
f 33 36 37
f 33 37 38
f 33 38 39
f 33 39 34
f 34 39 40
f 34 40 41
f 34 41 42
f 34 42 43
f 34 43 35
f 27 26 44
f 39 38 45
f 13 12 31
f 22 21 46
f 47 48 49
f 47 49 50
f 47 50 51
f 47 51 52
f 47 52 48
f 48 52 53
f 48 53 49
f 49 53 54
f 49 54 50
f 50 54 51
