# RS2 Model 24931
# Vertices: 60
# Faces: 73

v -9 59 0
v -5 29 0
v 20 29 0
v 18 58 0
v 18 60 -3
v -9 61 -3
v -64 61 -3
v -64 60 0
v -9 59 1
v -5 30 1
v -64 29 0
v -64 28 -3
v -5 28 -3
v 20 28 -3
v 35 30 0
v 64 60 0
v 64 61 -3
v -10 -31 1
v -13 -58 1
v 41 -59 0
v 32 -30 0
v 32 -28 -3
v -10 -31 0
v -13 -59 0
v 41 -60 -3
v 64 -59 0
v 64 -29 0
v 64 -28 -3
v -64 -29 0
v -64 -59 0
v -10 -29 -3
v -64 -28 -3
v 64 29 0
v 35 29 -3
v 64 28 -3
v -41 17 0
v -36 -20 0
v -36 -21 1
v -41 18 1
v 64 19 -3
v -41 19 -3
v -64 17 0
v -64 -21 0
v -64 -22 -3
v -36 -22 -3
v 64 -22 -3
v 64 -21 0
v 64 17 0
v -64 -60 -3
v -13 -61 -3
v 64 -60 -3
v -64 19 -3
v 8 64 -3
v -8 64 -3
v -8 -64 -3
v 8 -64 -3
v 8 -64 -7
v 8 64 -7
v -8 64 -7
v -8 -64 -7

f 1 2 3
f 1 3 4
f 1 4 5
f 1 5 6
f 1 6 7
f 1 7 8
f 1 8 9
f 1 9 2
f 2 9 10
f 2 10 11
f 2 11 12
f 2 12 13
f 2 13 3
f 3 13 14
f 3 14 15
f 3 15 4
f 4 15 16
f 4 16 17
f 4 17 5
f 18 19 20
f 18 20 21
f 18 21 22
f 18 22 23
f 18 23 19
f 19 23 24
f 19 24 20
f 20 24 25
f 20 25 26
f 20 26 21
f 21 26 27
f 21 27 28
f 21 28 22
f 29 30 24
f 29 24 23
f 29 23 31
f 29 31 32
f 8 11 10
f 8 10 9
f 16 15 33
f 33 15 34
f 33 34 35
f 36 37 38
f 36 38 39
f 36 39 40
f 36 40 41
f 36 41 42
f 36 42 37
f 37 42 43
f 37 43 44
f 37 44 45
f 37 45 46
f 37 46 47
f 37 47 38
f 38 47 39
f 39 47 48
f 39 48 40
f 24 30 49
f 24 49 50
f 24 50 25
f 26 25 51
f 42 41 52
f 15 14 34
f 23 22 31
f 53 54 55
f 53 55 56
f 53 56 57
f 53 57 58
f 53 58 54
f 54 58 59
f 54 59 55
f 55 59 60
f 55 60 56
f 56 60 57
