# RS2 Model 25009
# Vertices: 482
# Faces: 787

v -17 7 281
v -25 7 281
v -25 7 289
v -17 7 289
v -10 0 281
v -17 0 274
v -25 0 274
v -32 0 281
v -32 0 289
v -25 0 296
v -17 0 296
v -10 0 289
v -10 -8 281
v -17 -8 274
v -25 -8 274
v -32 -8 281
v -32 -8 289
v -25 -8 296
v -17 -8 296
v -10 -8 289
v -17 -15 281
v -25 -15 281
v -25 -15 289
v -17 -15 289
v -18 13 236
v 5 14 249
v 0 20 236
v 0 32 236
v -20 25 229
v -34 6 236
v -8 -6 236
v 10 -5 236
v 23 11 236
v 17 27 236
v 25 29 236
v 6 41 247
v -9 43 236
v -25 46 229
v -36 31 242
v -35 15 229
v -35 15 217
v -34 6 224
v -51 -3 236
v -34 -14 248
v -16 -7 236
v -14 -23 229
v 1 -13 229
v 8 -25 229
v 33 -5 236
v 27 20 236
v 42 20 236
v 42 20 224
v 25 29 224
v 20 41 236
v 8 55 236
v -3 47 236
v -3 47 224
v -9 43 224
v -25 46 217
v -38 38 229
v -43 33 229
v -42 27 229
v -42 27 217
v -36 31 204
v -20 25 217
v -38 38 217
v -43 33 217
v -50 -19 236
v -51 -3 224
v -50 -19 224
v -35 -31 236
v -21 -26 236
v -9 -44 229
v 2 -29 242
v 20 -32 229
v 20 -32 217
v 33 -5 224
v 56 0 236
v 42 6 251
v 54 23 236
v 54 23 224
v 42 6 209
v 27 20 224
v 56 0 224
v 60 9 236
v 60 9 224
v 10 -49 229
v -9 -44 217
v 10 -49 217
v -18 13 224
v 0 20 224
v 5 14 211
v -8 -6 224
v 10 -5 224
v 23 11 224
v 17 27 224
v 8 55 224
v 6 41 213
v 0 32 224
v 20 41 224
v -16 -7 224
v -34 -14 212
v -35 -31 224
v -21 -26 224
v -14 -23 217
v 2 -29 204
v 1 -13 217
v 8 -25 217
v 11 39 282
v 9 48 284
v 7 51 298
v 13 45 296
v 21 44 288
v 16 37 272
v -6 47 270
v -7 59 285
v -7 59 299
v -6 44 310
v -2 30 309
v 3 25 295
v 10 21 300
v 29 21 304
v 28 43 289
v 28 43 273
v 14 10 285
v 14 12 270
v 29 25 261
v 33 11 259
v 42 -8 269
v 52 1 270
v 52 -1 286
v 42 -10 285
v 35 -20 284
v 25 -21 271
v 27 -37 270
v 16 -24 271
v 8 -40 276
v -5 -28 279
v -4 -14 275
v -18 -35 273
v -20 -19 259
v -7 0 277
v -24 4 262
v -26 14 277
v -42 12 277
v -42 12 291
v -26 14 291
v -28 27 296
v -28 27 277
v -29 40 283
v -17 44 270
v -13 31 269
v -11 16 280
v 1 19 281
v -2 33 269
v -20 53 284
v -20 53 298
v -17 41 310
v -13 28 309
v -5 23 300
v 6 16 311
v 21 4 310
v 25 11 298
v 33 8 302
v 43 26 305
v 43 44 289
v 43 44 273
v 43 30 262
v -29 40 296
v -18 13 297
v -13 -2 311
v -4 13 311
v 0 1 320
v 8 2 320
v 26 -2 311
v 27 3 304
v 29 -4 290
v 48 12 303
v 64 15 286
v 61 28 288
v 61 30 272
v 48 15 260
v 64 17 270
v 1 -10 319
v 12 -9 319
v 12 -20 308
v 25 -11 298
v -12 -12 309
v 4 -20 308
v 16 -27 309
v 25 -24 309
v 39 -25 296
v 39 -34 283
v 39 -34 295
v 29 -50 281
v 2 -44 294
v 17 -52 281
v 17 -51 293
v 14 -42 307
v 3 -24 296
v -4 -33 291
v -18 -36 287
v -31 -35 273
v -34 -21 259
v -36 1 264
v -54 -10 276
v -54 -10 290
v -36 -9 307
v -24 -6 307
v -7 0 291
v 29 -49 293
v 27 -40 308
v -10 -21 296
v -20 -19 305
v -31 -36 287
v -50 -23 274
v -50 -25 288
v -34 -21 305
v -18 9 282
v -24 9 282
v -24 9 288
v -18 9 288
v -8 -1 282
v -18 -1 272
v -24 -1 272
v -34 -1 282
v -34 -1 288
v -24 -1 298
v -18 -1 298
v -8 -1 288
v -8 -7 282
v -18 -7 272
v -24 -7 272
v -34 -7 282
v -34 -7 288
v -24 -7 298
v -18 -7 298
v -8 -7 288
v -18 -17 282
v -24 -17 282
v -24 -17 288
v -18 -17 288
v 40 30 281
v 32 30 281
v 32 30 289
v 40 30 289
v 47 23 281
v 40 23 274
v 32 23 274
v 25 23 281
v 25 23 289
v 32 23 296
v 40 23 296
v 47 23 289
v 47 15 281
v 40 15 274
v 32 15 274
v 25 15 281
v 25 15 289
v 32 15 296
v 40 15 296
v 47 15 289
v 40 8 281
v 32 8 281
v 32 8 289
v 40 8 289
v 39 32 282
v 33 32 282
v 33 32 288
v 39 32 288
v 49 22 282
v 39 22 272
v 33 22 272
v 23 22 282
v 23 22 288
v 33 22 298
v 39 22 298
v 49 22 288
v 49 16 282
v 39 16 272
v 33 16 272
v 23 16 282
v 23 16 288
v 33 16 298
v 39 16 298
v 49 16 288
v 39 6 282
v 33 6 282
v 33 6 288
v 39 6 288
v -18 13 173
v 0 20 173
v 5 14 160
v -8 -6 173
v 5 14 186
v 17 27 173
v 23 11 173
v 10 -5 173
v -35 15 166
v -42 27 166
v -36 31 153
v -20 25 166
v -36 31 179
v -46 34 166
v -38 38 166
v -25 46 166
v -3 47 173
v 8 55 173
v 6 41 162
v -9 43 173
v 6 41 184
v 20 41 173
v 25 29 173
v 0 32 173
v -34 6 173
v -16 -7 173
v -34 -14 161
v -51 -3 173
v -34 -14 185
v -21 -26 173
v -35 -31 173
v -50 -19 173
v 1 -13 166
v 8 -25 166
v 2 -29 153
v -14 -23 166
v 2 -29 179
v 20 -32 166
v 10 -49 166
v -9 -44 166
v 54 23 173
v 60 9 173
v 42 6 158
v 42 20 173
v 42 6 188
v 56 0 173
v 33 -5 173
v 27 20 173
v -37 5 131
v -40 2 121
v -34 2 121
v -34 8 121
v -40 8 121
v -37 5 117
v -46 5 131
v -49 2 121
v -43 2 121
v -43 8 121
v -49 8 121
v -46 5 117
v -19 5 131
v -22 2 121
v -16 2 121
v -16 8 121
v -22 8 121
v -19 5 117
v -28 5 131
v -31 2 121
v -25 2 121
v -25 8 121
v -31 8 121
v -28 5 117
v -1 5 131
v -4 2 121
v 2 2 121
v 2 8 121
v -4 8 121
v -1 5 117
v -10 5 131
v -13 2 121
v -7 2 121
v -7 8 121
v -13 8 121
v -10 5 117
v 17 5 131
v 14 2 121
v 20 2 121
v 20 8 121
v 14 8 121
v 17 5 117
v 8 5 131
v 5 2 121
v 11 2 121
v 11 8 121
v 5 8 121
v 8 5 117
v 35 5 131
v 32 2 121
v 38 2 121
v 38 8 121
v 32 8 121
v 35 5 117
v 26 5 131
v 23 2 121
v 29 2 121
v 29 8 121
v 23 8 121
v 26 5 117
v 53 5 131
v 50 2 121
v 56 2 121
v 56 8 121
v 50 8 121
v 53 5 117
v 44 5 131
v 41 2 121
v 47 2 121
v 47 8 121
v 41 8 121
v 44 5 117
v -37 5 115
v -40 2 105
v -34 2 105
v -34 8 105
v -40 8 105
v -37 5 101
v -46 5 115
v -49 2 105
v -43 2 105
v -43 8 105
v -49 8 105
v -46 5 101
v -19 5 115
v -22 2 105
v -16 2 105
v -16 8 105
v -22 8 105
v -19 5 101
v -28 5 115
v -31 2 105
v -25 2 105
v -25 8 105
v -31 8 105
v -28 5 101
v -1 5 115
v -4 2 105
v 2 2 105
v 2 8 105
v -4 8 105
v -1 5 101
v -10 5 115
v -13 2 105
v -7 2 105
v -7 8 105
v -13 8 105
v -10 5 101
v 17 5 115
v 14 2 105
v 20 2 105
v 20 8 105
v 14 8 105
v 17 5 101
v 8 5 115
v 5 2 105
v 11 2 105
v 11 8 105
v 5 8 105
v 8 5 101
v 35 5 115
v 32 2 105
v 38 2 105
v 38 8 105
v 32 8 105
v 35 5 101
v 26 5 115
v 23 2 105
v 29 2 105
v 29 8 105
v 23 8 105
v 26 5 101
v 53 5 115
v 50 2 105
v 56 2 105
v 56 8 105
v 50 8 105
v 53 5 101
v 44 5 115
v 41 2 105
v 47 2 105
v 47 8 105
v 41 8 105
v 44 5 101

f 1 2 3
f 1 3 4
f 1 4 5
f 1 5 6
f 1 6 2
f 2 6 7
f 2 7 8
f 2 8 9
f 2 9 3
f 3 9 10
f 3 10 4
f 4 10 11
f 4 11 12
f 4 12 5
f 5 12 13
f 5 13 14
f 5 14 6
f 6 14 15
f 6 15 7
f 7 15 16
f 7 16 8
f 8 16 17
f 8 17 9
f 9 17 18
f 9 18 10
f 10 18 19
f 10 19 11
f 11 19 20
f 11 20 12
f 12 20 13
f 13 20 21
f 13 21 14
f 14 21 15
f 15 21 22
f 15 22 16
f 16 22 23
f 16 23 17
f 17 23 18
f 18 23 19
f 19 23 24
f 19 24 20
f 20 24 21
f 21 24 22
f 22 24 23
f 25 26 27
f 25 27 28
f 25 28 29
f 25 29 30
f 25 30 31
f 25 31 26
f 26 31 32
f 26 32 33
f 26 33 34
f 26 34 27
f 27 34 28
f 28 34 35
f 28 35 36
f 28 36 37
f 28 37 29
f 29 37 38
f 29 38 39
f 29 39 40
f 29 40 30
f 30 40 41
f 30 41 42
f 30 42 43
f 30 43 44
f 30 44 45
f 30 45 31
f 31 45 46
f 31 46 47
f 31 47 32
f 32 47 48
f 32 48 49
f 32 49 33
f 33 49 50
f 33 50 34
f 34 50 35
f 35 50 51
f 35 51 52
f 35 52 53
f 35 53 54
f 35 54 36
f 36 54 55
f 36 55 56
f 36 56 37
f 37 56 57
f 37 57 58
f 37 58 38
f 38 58 59
f 38 59 60
f 38 60 39
f 39 60 61
f 39 61 62
f 39 62 40
f 40 62 63
f 40 63 41
f 41 63 64
f 41 64 65
f 65 64 59
f 59 64 66
f 59 66 60
f 60 66 61
f 61 66 67
f 61 67 62
f 62 67 63
f 63 67 64
f 64 67 66
f 68 44 43
f 68 43 69
f 68 69 70
f 68 70 71
f 68 71 44
f 44 71 72
f 44 72 45
f 45 72 46
f 46 72 73
f 46 73 74
f 46 74 47
f 47 74 48
f 48 74 75
f 48 75 49
f 49 75 76
f 49 76 77
f 49 77 78
f 49 78 79
f 49 79 50
f 50 79 51
f 51 79 80
f 51 80 81
f 51 81 52
f 52 81 82
f 52 82 83
f 83 82 77
f 77 82 84
f 77 84 78
f 78 84 85
f 78 85 79
f 79 85 80
f 80 85 86
f 80 86 81
f 81 86 82
f 82 86 84
f 84 86 85
f 87 74 73
f 87 73 88
f 87 88 89
f 87 89 75
f 87 75 74
f 90 91 92
f 90 92 93
f 93 92 94
f 94 92 95
f 95 92 96
f 96 92 91
f 57 97 98
f 57 98 58
f 58 98 99
f 99 98 53
f 53 98 100
f 53 100 54
f 54 100 55
f 55 100 97
f 55 97 56
f 56 97 57
f 97 100 98
f 42 101 102
f 42 102 69
f 42 69 43
f 70 69 102
f 70 102 103
f 70 103 71
f 71 103 72
f 72 103 104
f 72 104 73
f 73 104 88
f 88 104 105
f 88 105 106
f 88 106 89
f 89 106 76
f 89 76 75
f 104 103 102
f 104 102 101
f 107 108 106
f 107 106 105
f 108 76 106
f 109 110 111
f 109 111 112
f 109 112 113
f 109 113 114
f 109 114 110
f 110 114 115
f 110 115 116
f 110 116 117
f 110 117 111
f 111 117 118
f 111 118 112
f 112 118 119
f 112 119 120
f 112 120 121
f 112 121 113
f 113 121 122
f 113 122 123
f 113 123 124
f 113 124 114
f 113 114 125
f 125 114 126
f 126 114 127
f 126 127 128
f 126 128 129
f 129 128 130
f 129 130 131
f 129 131 132
f 129 132 133
f 129 133 134
f 134 133 135
f 134 135 136
f 136 135 137
f 136 137 138
f 136 138 139
f 139 138 140
f 139 140 141
f 139 141 142
f 142 141 143
f 142 143 144
f 144 143 145
f 144 145 146
f 144 146 147
f 144 147 148
f 144 148 149
f 149 148 150
f 149 150 151
f 149 151 152
f 149 152 153
f 153 152 154
f 154 152 155
f 154 155 109
f 116 156 157
f 116 157 117
f 117 157 158
f 117 158 118
f 118 158 159
f 118 159 119
f 119 159 160
f 119 160 120
f 120 160 121
f 121 160 161
f 121 161 162
f 121 162 163
f 121 163 122
f 122 163 164
f 122 164 165
f 122 165 123
f 123 165 166
f 123 166 167
f 123 167 124
f 124 167 168
f 124 168 127
f 124 127 114
f 156 150 169
f 156 169 157
f 157 169 158
f 158 169 159
f 159 169 148
f 159 148 170
f 159 170 160
f 160 170 171
f 160 171 172
f 160 172 161
f 161 172 173
f 161 173 174
f 161 174 162
f 162 174 175
f 162 175 176
f 162 176 163
f 163 176 164
f 164 176 177
f 164 177 132
f 164 132 178
f 164 178 165
f 165 178 179
f 165 179 180
f 165 180 166
f 166 180 181
f 166 181 167
f 167 181 168
f 168 181 182
f 168 182 127
f 127 182 128
f 128 182 130
f 130 182 183
f 130 183 179
f 130 179 131
f 131 179 178
f 131 178 132
f 150 148 169
f 151 115 155
f 151 155 152
f 115 151 156
f 115 156 116
f 151 150 156
f 183 181 180
f 183 180 179
f 182 181 183
f 174 173 184
f 174 184 185
f 174 185 175
f 175 185 186
f 175 186 187
f 175 187 177
f 175 177 176
f 173 172 171
f 173 171 184
f 184 171 188
f 184 188 189
f 184 189 185
f 185 189 186
f 186 189 190
f 186 190 191
f 186 191 187
f 187 191 192
f 187 192 177
f 177 192 133
f 177 133 132
f 193 133 192
f 193 192 194
f 193 194 195
f 193 195 135
f 193 135 133
f 196 137 197
f 196 197 198
f 196 198 199
f 196 199 200
f 196 200 201
f 196 201 137
f 137 201 138
f 138 201 202
f 138 202 140
f 140 202 203
f 140 203 204
f 140 204 141
f 141 204 205
f 141 205 143
f 143 205 145
f 145 205 206
f 145 206 207
f 145 207 146
f 146 207 208
f 146 208 147
f 147 208 209
f 147 209 210
f 197 195 211
f 197 211 198
f 198 211 212
f 198 212 199
f 199 212 191
f 199 191 190
f 199 190 200
f 200 190 189
f 200 189 213
f 200 213 201
f 201 213 202
f 202 213 214
f 202 214 215
f 202 215 203
f 203 215 216
f 203 216 204
f 204 216 206
f 204 206 205
f 195 194 211
f 211 194 212
f 212 194 192
f 212 192 191
f 197 137 135
f 197 135 195
f 206 216 217
f 206 217 207
f 207 217 218
f 207 218 208
f 208 218 209
f 209 218 214
f 209 214 188
f 209 188 171
f 209 171 170
f 209 170 147
f 147 170 148
f 216 215 217
f 217 215 218
f 218 215 214
f 213 188 214
f 188 213 189
f 219 220 221
f 219 221 222
f 219 222 223
f 219 223 224
f 219 224 220
f 220 224 225
f 220 225 226
f 220 226 227
f 220 227 221
f 221 227 228
f 221 228 222
f 222 228 229
f 222 229 230
f 222 230 223
f 223 230 231
f 223 231 232
f 223 232 224
f 224 232 233
f 224 233 225
f 225 233 234
f 225 234 226
f 226 234 235
f 226 235 227
f 227 235 236
f 227 236 228
f 228 236 237
f 228 237 229
f 229 237 238
f 229 238 230
f 230 238 231
f 231 238 239
f 231 239 232
f 232 239 233
f 233 239 240
f 233 240 234
f 234 240 241
f 234 241 235
f 235 241 236
f 236 241 237
f 237 241 242
f 237 242 238
f 238 242 239
f 239 242 240
f 240 242 241
f 243 244 245
f 243 245 246
f 243 246 247
f 243 247 248
f 243 248 244
f 244 248 249
f 244 249 250
f 244 250 251
f 244 251 245
f 245 251 252
f 245 252 246
f 246 252 253
f 246 253 254
f 246 254 247
f 247 254 255
f 247 255 256
f 247 256 248
f 248 256 257
f 248 257 249
f 249 257 258
f 249 258 250
f 250 258 259
f 250 259 251
f 251 259 260
f 251 260 252
f 252 260 261
f 252 261 253
f 253 261 262
f 253 262 254
f 254 262 255
f 255 262 263
f 255 263 256
f 256 263 257
f 257 263 264
f 257 264 258
f 258 264 265
f 258 265 259
f 259 265 260
f 260 265 261
f 261 265 266
f 261 266 262
f 262 266 263
f 263 266 264
f 264 266 265
f 267 268 269
f 267 269 270
f 267 270 271
f 267 271 272
f 267 272 268
f 268 272 273
f 268 273 274
f 268 274 275
f 268 275 269
f 269 275 276
f 269 276 270
f 270 276 277
f 270 277 278
f 270 278 271
f 271 278 279
f 271 279 280
f 271 280 272
f 272 280 281
f 272 281 273
f 273 281 282
f 273 282 274
f 274 282 283
f 274 283 275
f 275 283 284
f 275 284 276
f 276 284 285
f 276 285 277
f 277 285 286
f 277 286 278
f 278 286 279
f 279 286 287
f 279 287 280
f 280 287 281
f 281 287 288
f 281 288 282
f 282 288 289
f 282 289 283
f 283 289 284
f 284 289 285
f 285 289 290
f 285 290 286
f 286 290 287
f 287 290 288
f 288 290 289
f 291 292 293
f 291 293 294
f 291 294 295
f 291 295 292
f 292 295 296
f 292 296 293
f 293 296 297
f 293 297 298
f 293 298 294
f 294 298 295
f 295 298 297
f 295 297 296
f 299 300 301
f 299 301 302
f 299 302 303
f 299 303 300
f 300 303 304
f 300 304 301
f 301 304 305
f 301 305 306
f 301 306 302
f 302 306 303
f 303 306 305
f 303 305 304
f 307 308 309
f 307 309 310
f 307 310 311
f 307 311 308
f 308 311 312
f 308 312 309
f 309 312 313
f 309 313 314
f 309 314 310
f 310 314 311
f 311 314 313
f 311 313 312
f 315 316 317
f 315 317 318
f 315 318 319
f 315 319 316
f 316 319 320
f 316 320 317
f 317 320 321
f 317 321 322
f 317 322 318
f 318 322 319
f 319 322 321
f 319 321 320
f 323 324 325
f 323 325 326
f 323 326 327
f 323 327 324
f 324 327 328
f 324 328 325
f 325 328 329
f 325 329 330
f 325 330 326
f 326 330 327
f 327 330 329
f 327 329 328
f 331 332 333
f 331 333 334
f 331 334 335
f 331 335 332
f 332 335 336
f 332 336 333
f 333 336 337
f 333 337 338
f 333 338 334
f 334 338 335
f 335 338 337
f 335 337 336
f 339 340 341
f 339 341 342
f 339 342 343
f 339 343 340
f 340 343 344
f 340 344 341
f 341 344 342
f 342 344 343
f 345 346 347
f 345 347 348
f 345 348 349
f 345 349 346
f 346 349 350
f 346 350 347
f 347 350 348
f 348 350 349
f 351 352 353
f 351 353 354
f 351 354 355
f 351 355 352
f 352 355 356
f 352 356 353
f 353 356 354
f 354 356 355
f 357 358 359
f 357 359 360
f 357 360 361
f 357 361 358
f 358 361 362
f 358 362 359
f 359 362 360
f 360 362 361
f 363 364 365
f 363 365 366
f 363 366 367
f 363 367 364
f 364 367 368
f 364 368 365
f 365 368 366
f 366 368 367
f 369 370 371
f 369 371 372
f 369 372 373
f 369 373 370
f 370 373 374
f 370 374 371
f 371 374 372
f 372 374 373
f 375 376 377
f 375 377 378
f 375 378 379
f 375 379 376
f 376 379 380
f 376 380 377
f 377 380 378
f 378 380 379
f 381 382 383
f 381 383 384
f 381 384 385
f 381 385 382
f 382 385 386
f 382 386 383
f 383 386 384
f 384 386 385
f 387 388 389
f 387 389 390
f 387 390 391
f 387 391 388
f 388 391 392
f 388 392 389
f 389 392 390
f 390 392 391
f 393 394 395
f 393 395 396
f 393 396 397
f 393 397 394
f 394 397 398
f 394 398 395
f 395 398 396
f 396 398 397
f 399 400 401
f 399 401 402
f 399 402 403
f 399 403 400
f 400 403 404
f 400 404 401
f 401 404 402
f 402 404 403
f 405 406 407
f 405 407 408
f 405 408 409
f 405 409 406
f 406 409 410
f 406 410 407
f 407 410 408
f 408 410 409
f 411 412 413
f 411 413 414
f 411 414 415
f 411 415 412
f 412 415 416
f 412 416 413
f 413 416 414
f 414 416 415
f 417 418 419
f 417 419 420
f 417 420 421
f 417 421 418
f 418 421 422
f 418 422 419
f 419 422 420
f 420 422 421
f 423 424 425
f 423 425 426
f 423 426 427
f 423 427 424
f 424 427 428
f 424 428 425
f 425 428 426
f 426 428 427
f 429 430 431
f 429 431 432
f 429 432 433
f 429 433 430
f 430 433 434
f 430 434 431
f 431 434 432
f 432 434 433
f 435 436 437
f 435 437 438
f 435 438 439
f 435 439 436
f 436 439 440
f 436 440 437
f 437 440 438
f 438 440 439
f 441 442 443
f 441 443 444
f 441 444 445
f 441 445 442
f 442 445 446
f 442 446 443
f 443 446 444
f 444 446 445
f 447 448 449
f 447 449 450
f 447 450 451
f 447 451 448
f 448 451 452
f 448 452 449
f 449 452 450
f 450 452 451
f 453 454 455
f 453 455 456
f 453 456 457
f 453 457 454
f 454 457 458
f 454 458 455
f 455 458 456
f 456 458 457
f 459 460 461
f 459 461 462
f 459 462 463
f 459 463 460
f 460 463 464
f 460 464 461
f 461 464 462
f 462 464 463
f 465 466 467
f 465 467 468
f 465 468 469
f 465 469 466
f 466 469 470
f 466 470 467
f 467 470 468
f 468 470 469
f 471 472 473
f 471 473 474
f 471 474 475
f 471 475 472
f 472 475 476
f 472 476 473
f 473 476 474
f 474 476 475
f 477 478 479
f 477 479 480
f 477 480 481
f 477 481 478
f 478 481 482
f 478 482 479
f 479 482 480
f 480 482 481
