# RS2 Model 25014
# Vertices: 95
# Faces: 176

v 25 -59 374
v 25 -69 368
v 34 -56 358
v 25 -45 368
v 19 -42 371
v 16 -59 375
v 16 -69 369
v 20 -83 372
v 23 -81 363
v 24 -88 356
v 23 -90 364
v 23 -98 363
v 0 -103 355
v 20 -104 372
v 8 -104 376
v 0 -104 371
v -8 -104 376
v -20 -104 372
v -23 -98 363
v -24 -88 356
v -23 -90 364
v -23 -81 363
v -34 -56 358
v -25 -69 368
v -25 -59 374
v -25 -45 368
v -38 -39 371
v -51 -33 344
v -30 -29 351
v -22 -21 362
v -17 -9 354
v -26 2 350
v -39 2 347
v -44 7 326
v -39 11 339
v -26 13 333
v 0 2 317
v 0 13 339
v 26 13 333
v 44 7 326
v 39 11 339
v 39 2 347
v 30 -29 351
v 26 2 350
v 17 -9 354
v 22 -21 362
v 38 -39 371
v 51 -33 344
v 22 -30 370
v 10 -39 379
v 13 -45 383
v 13 -59 389
v 13 -69 383
v 9 -75 373
v 8 -83 376
v 20 -90 376
v 8 -90 380
v 0 -90 375
v -8 -90 380
v -20 -90 376
v -20 -83 372
v -16 -69 369
v -16 -59 375
v -19 -42 371
v -22 -30 370
v -10 -21 368
v 0 -20 357
v 0 -7 354
v -13 2 361
v -13 11 353
v -26 11 342
v -13 13 344
v 0 11 348
v 13 11 353
v 13 13 344
v 26 11 342
v 13 2 361
v 10 -21 368
v 0 -45 388
v 0 -59 394
v 0 -69 388
v 0 -76 375
v 0 -83 371
v -8 -83 376
v -9 -75 373
v -13 -69 383
v -13 -59 389
v -13 -45 383
v -10 -39 379
v -10 -30 376
v 0 -21 366
v 10 -30 376
v 0 -39 377
v 0 -30 374
v 0 2 356

f 1 2 3
f 1 3 4
f 1 4 5
f 1 5 6
f 1 6 2
f 2 6 7
f 2 7 8
f 2 8 9
f 2 9 3
f 3 9 10
f 10 9 11
f 10 11 12
f 10 12 13
f 13 12 14
f 13 14 15
f 13 15 16
f 13 16 17
f 13 17 18
f 13 18 19
f 13 19 20
f 20 19 21
f 20 21 22
f 20 22 23
f 23 22 24
f 23 24 25
f 23 25 26
f 23 26 27
f 23 27 28
f 28 27 29
f 29 27 30
f 29 30 31
f 29 31 32
f 29 32 33
f 29 33 34
f 34 33 35
f 34 35 36
f 34 36 37
f 37 36 38
f 37 38 39
f 37 39 40
f 40 39 41
f 40 41 42
f 40 42 43
f 43 42 44
f 43 44 45
f 43 45 46
f 43 46 47
f 43 47 48
f 48 47 3
f 3 47 4
f 4 47 49
f 4 49 5
f 5 49 50
f 5 50 51
f 5 51 6
f 6 51 52
f 6 52 7
f 7 52 53
f 7 53 54
f 7 54 8
f 8 54 55
f 8 55 56
f 8 56 9
f 9 56 11
f 11 56 12
f 12 56 14
f 14 56 57
f 14 57 15
f 15 57 58
f 15 58 16
f 16 58 17
f 17 58 59
f 17 59 18
f 18 59 60
f 18 60 19
f 19 60 21
f 21 60 22
f 22 60 61
f 22 61 24
f 24 61 62
f 24 62 63
f 24 63 25
f 25 63 64
f 25 64 26
f 26 64 65
f 26 65 27
f 27 65 30
f 30 65 66
f 30 66 67
f 30 67 31
f 31 67 68
f 31 68 69
f 31 69 32
f 32 69 70
f 32 70 71
f 32 71 33
f 33 71 35
f 35 71 36
f 36 71 72
f 36 72 38
f 38 72 70
f 38 70 73
f 38 73 74
f 38 74 75
f 38 75 39
f 39 75 76
f 39 76 41
f 41 76 42
f 42 76 44
f 44 76 74
f 44 74 77
f 44 77 45
f 45 77 68
f 45 68 67
f 45 67 46
f 46 67 78
f 46 78 49
f 46 49 47
f 52 51 79
f 52 79 80
f 52 80 53
f 53 80 81
f 53 81 54
f 54 81 82
f 54 82 83
f 54 83 55
f 55 83 57
f 55 57 56
f 57 83 58
f 58 83 59
f 59 83 84
f 59 84 60
f 60 84 61
f 61 84 85
f 61 85 62
f 62 85 86
f 62 86 87
f 62 87 63
f 63 87 88
f 63 88 64
f 64 88 89
f 64 89 65
f 65 89 90
f 65 90 66
f 66 90 91
f 66 91 67
f 67 91 78
f 78 91 92
f 78 92 49
f 49 92 50
f 50 92 93
f 50 93 79
f 50 79 51
f 93 92 94
f 93 94 90
f 93 90 89
f 93 89 79
f 79 89 88
f 79 88 87
f 79 87 80
f 80 87 86
f 80 86 81
f 81 86 85
f 81 85 82
f 82 85 83
f 83 85 84
f 92 91 94
f 94 91 90
f 76 75 74
f 77 74 73
f 77 73 95
f 77 95 68
f 68 95 69
f 69 95 73
f 69 73 70
f 71 70 72
