# RS2 Model 25050
# Vertices: 576
# Faces: 836

v 84 -152 24
v -84 -152 24
v -84 -152 17
v 84 -152 17
v 84 -120 24
v -84 -120 24
v 84 -120 48
v -84 -120 48
v -84 -120 41
v 84 -120 41
v 84 -88 48
v -84 -88 48
v 84 -88 73
v -84 -88 73
v -84 -88 66
v 84 -88 66
v 84 -56 73
v -84 -56 73
v 84 -56 97
v -84 -56 97
v -84 -56 90
v 84 -56 90
v 84 -24 97
v -84 -24 97
v 84 -24 122
v -84 -24 122
v -84 -24 115
v 84 -24 115
v 84 8 122
v -84 8 122
v 84 8 146
v -84 8 146
v -84 8 139
v 84 8 139
v 84 40 146
v -84 40 146
v 84 40 171
v -84 40 171
v -84 40 163
v 84 40 163
v 84 72 171
v -84 72 171
v 84 72 195
v -84 72 195
v -84 72 188
v 84 72 188
v 84 104 195
v -84 104 195
v 84 101 221
v -84 101 221
v -84 101 213
v 84 101 213
v -84 140 221
v 84 140 221
v 84 140 213
v -84 140 213
v 84 128 250
v -84 128 250
v -84 128 244
v 84 128 244
v 84 160 250
v -84 160 250
v -93 77 291
v -82 70 241
v -85 77 291
v -82 85 253
v -85 83 295
v -96 85 253
v -93 83 295
v -96 70 241
v -85 74 239
v -85 82 245
v -93 82 245
v -93 74 239
v -82 71 229
v -82 86 241
v -96 86 241
v -96 71 229
v -84 73 224
v -84 84 233
v -94 84 230
v -94 73 224
v -94 123 296
v -94 134 296
v -96 121 268
v -82 121 268
v -83 123 296
v -82 135 275
v -83 134 296
v -96 135 275
v -93 132 270
v -93 125 266
v -85 125 266
v -85 132 270
v -82 136 267
v -96 136 267
v -96 122 258
v -82 122 258
v -84 124 254
v -84 134 260
v -94 134 260
v -94 124 254
v -82 167 296
v -94 167 296
v -93 171 290
v -85 171 290
v -85 179 296
v -82 168 284
v -82 182 293
v -93 179 296
v -94 182 293
v -94 168 284
v -94 169 281
v -84 169 281
v -84 179 287
v -94 179 287
v -93 -151 138
v -82 -154 87
v -85 -151 138
v -82 -140 98
v -85 -145 143
v -96 -140 98
v -93 -145 143
v -96 -154 87
v -85 -150 85
v -85 -143 90
v -93 -143 90
v -93 -150 85
v -82 -153 75
v -82 -139 86
v -96 -139 86
v -96 -153 75
v -84 -151 70
v -84 -141 78
v -94 -141 78
v -94 -151 70
v -93 -104 170
v -82 -107 120
v -85 -104 170
v -82 -93 131
v -85 -98 174
v -96 -93 131
v -93 -98 174
v -96 -107 120
v -85 -103 117
v -85 -96 122
v -93 -96 122
v -93 -103 117
v -82 -106 108
v -82 -92 119
v -96 -92 119
v -96 -106 108
v -84 -104 103
v -84 -94 110
v -94 -94 110
v -94 -104 103
v -93 -57 200
v -82 -60 154
v -85 -57 200
v -82 -46 165
v -85 -51 205
v -96 -46 165
v -94 -51 205
v -96 -60 154
v -85 -56 151
v -85 -49 156
v -93 -49 156
v -93 -56 151
v -82 -59 141
v -82 -45 152
v -96 -45 152
v -96 -59 141
v -84 -57 136
v -84 -47 142
v -94 -47 142
v -94 -57 136
v -93 -11 231
v -82 -15 185
v -85 -11 231
v -82 -1 196
v -85 -5 236
v -96 -1 196
v -93 -5 236
v -96 -15 185
v -85 -11 183
v -85 -4 188
v -93 -4 188
v -93 -11 183
v -82 -14 173
v -82 0 184
v -96 0 184
v -96 -14 173
v -84 -12 167
v -84 -2 174
v -94 -2 174
v -94 -12 167
v -93 32 260
v -82 30 215
v -85 32 258
v -82 44 226
v -85 38 265
v -96 44 226
v -93 38 265
v -96 30 215
v -85 34 213
v -85 41 218
v -93 41 218
v -93 34 213
v -82 31 203
v -82 45 214
v -96 45 214
v -96 31 203
v -84 33 198
v -84 43 205
v -94 43 205
v -94 33 198
v -89 -190 116
v -84 -181 118
v -86 -185 123
v -84 -190 129
v -94 -190 129
v -92 -185 123
v -94 -181 118
v -94 85 296
v -92 70 296
v -86 70 296
v -84 85 296
v -84 61 296
v -94 61 296
v 93 77 291
v 85 77 291
v 82 70 241
v 96 70 241
v 93 83 295
v 96 85 253
v 85 83 295
v 82 85 253
v 85 82 245
v 85 74 239
v 93 74 239
v 93 82 245
v 96 86 241
v 82 86 241
v 82 71 229
v 96 71 229
v 94 73 224
v 94 84 230
v 84 84 233
v 84 73 224
v 94 123 296
v 96 121 268
v 94 134 296
v 96 135 275
v 83 134 296
v 82 135 275
v 83 123 296
v 82 121 268
v 85 125 266
v 93 125 266
v 93 132 270
v 85 132 270
v 82 136 267
v 82 122 258
v 96 122 258
v 96 136 267
v 94 134 260
v 84 134 260
v 84 124 254
v 94 124 254
v 94 167 296
v 82 167 296
v 85 171 290
v 93 171 290
v 93 179 296
v 94 182 293
v 85 179 296
v 82 182 293
v 82 168 284
v 94 168 284
v 84 169 281
v 94 169 281
v 84 179 287
v 94 179 287
v 93 -151 138
v 85 -151 138
v 82 -154 87
v 96 -154 87
v 93 -145 143
v 96 -140 98
v 85 -145 143
v 82 -140 98
v 85 -143 90
v 85 -150 85
v 93 -150 85
v 93 -143 90
v 96 -139 86
v 82 -139 86
v 82 -153 75
v 96 -153 75
v 94 -151 70
v 94 -141 78
v 84 -141 78
v 84 -151 70
v 93 -104 170
v 85 -104 170
v 82 -107 120
v 96 -107 120
v 93 -98 174
v 96 -93 131
v 85 -98 174
v 82 -93 131
v 85 -96 122
v 85 -103 117
v 93 -103 117
v 93 -96 122
v 96 -92 119
v 82 -92 119
v 82 -106 108
v 96 -106 108
v 94 -104 103
v 94 -94 110
v 84 -94 110
v 84 -104 103
v 93 -57 200
v 85 -57 200
v 82 -60 154
v 96 -60 154
v 94 -51 205
v 96 -46 165
v 85 -51 205
v 82 -46 165
v 85 -49 156
v 85 -56 151
v 93 -56 151
v 93 -49 156
v 96 -45 152
v 82 -45 152
v 82 -59 141
v 96 -59 141
v 94 -57 136
v 94 -47 142
v 84 -47 142
v 84 -57 136
v 93 -11 231
v 85 -11 231
v 82 -15 185
v 96 -15 185
v 93 -5 236
v 96 -1 196
v 85 -5 236
v 82 -1 196
v 85 -4 188
v 85 -11 183
v 93 -11 183
v 93 -4 188
v 96 0 184
v 82 0 184
v 82 -14 173
v 96 -14 173
v 94 -12 167
v 94 -2 174
v 84 -2 174
v 84 -12 167
v 93 32 260
v 85 32 258
v 82 30 215
v 96 30 215
v 93 38 265
v 96 44 226
v 85 38 265
v 82 44 226
v 85 41 218
v 85 34 213
v 93 34 213
v 93 41 218
v 96 45 214
v 82 45 214
v 82 31 203
v 96 31 203
v 94 33 198
v 94 43 205
v 84 43 205
v 84 33 198
v 89 -190 116
v 86 -185 123
v 84 -181 118
v 86 70 296
v 84 85 296
v 94 85 296
v 92 70 296
v 92 -185 123
v 94 -181 118
v 94 -190 129
v 84 -190 129
v 84 61 296
v 94 61 296
v 0 167 16
v -94 167 16
v -94 167 0
v 0 167 0
v 94 167 16
v 94 167 21
v 0 167 21
v -94 167 21
v -128 167 16
v -128 167 0
v 0 167 153
v -94 167 153
v -94 167 137
v 0 167 137
v 94 167 153
v 94 167 158
v 0 167 158
v -94 167 158
v -128 167 153
v -128 167 137
v -128 167 132
v -94 167 132
v 0 167 132
v 94 167 137
v 128 167 153
v 128 167 158
v 94 167 232
v 0 167 232
v -94 167 232
v -128 167 158
v 0 192 0
v -94 192 0
v -94 192 16
v 0 192 16
v 94 192 0
v 94 192 16
v 128 192 0
v 128 192 16
v 94 192 21
v 128 192 21
v 94 192 132
v 128 192 132
v 94 192 137
v 128 192 137
v 94 192 153
v 128 192 153
v 94 192 158
v 128 192 158
v 94 192 250
v 128 192 293
v 94 192 293
v 94 167 293
v 128 167 293
v -94 192 21
v 0 192 21
v 0 192 132
v 0 192 137
v 0 192 153
v 0 192 158
v 0 192 250
v 84 192 250
v -94 192 137
v -94 192 153
v -94 192 158
v -84 192 250
v 0 192 293
v -84 192 293
v 84 192 293
v -94 192 132
v -94 192 250
v -128 192 158
v -128 192 293
v -94 192 293
v 94 167 132
v 128 167 137
v -128 192 0
v -128 192 16
v -128 192 21
v -128 192 132
v -128 192 137
v -128 192 153
v -128 167 21
v -128 167 293
v -94 167 293
v 84 158 268
v -84 158 268
v -84 158 262
v 84 158 262
v 84 192 268
v -84 192 268
v -84 21 191
v -94 68 221
v -94 21 191
v -84 -24 158
v -84 78 195
v -84 68 221
v -94 167 280
v -94 167 256
v -94 78 195
v -94 -22 126
v -94 -24 158
v -84 -73 125
v -84 -22 126
v -84 79 171
v -84 167 280
v -84 192 296
v -94 192 296
v -94 -73 125
v -84 -171 59
v -84 -142 50
v -84 -20 102
v -94 -171 59
v -84 -192 32
v -84 -164 29
v -84 -20 0
v -94 -20 0
v -94 -20 102
v -94 -192 32
v -94 -192 0
v -84 -192 0
v -84 -164 0
v -94 -142 50
v -94 -164 29
v -94 -164 0
v -94 79 171
v 94 167 0
v 128 167 16
v 128 167 21
v 128 167 132
v 128 167 0
v 84 21 191
v 94 21 191
v 94 68 221
v 84 68 221
v 84 78 195
v 84 -24 158
v 94 -24 158
v 94 -22 126
v 94 78 195
v 94 167 256
v 94 167 280
v 84 167 280
v 84 79 171
v 84 -22 126
v 84 -73 125
v 94 -73 125
v 94 -142 50
v 94 -20 102
v 94 79 171
v 84 -171 59
v 94 -171 59
v 84 -142 50
v 84 -164 29
v 84 -192 32
v 94 -192 32
v 94 -164 29
v 94 -20 0
v 84 -20 0
v 84 -20 102
v 84 -164 0
v 84 -192 0
v 94 -192 0
v 94 -164 0
v 94 192 296
v 84 192 296
v 0 192 222
v 84 192 223
v -2 192 294
v -80 192 137
v 80 192 137
v -80 192 21
v 84 167 137
v -84 167 137
v 84 167 21
v -128 167 153
v 128 167 153
v -128 167 293
v 88 192 157
v -87 192 156
v 87 192 294

f 1 2 3
f 1 3 4
f 5 6 2
f 5 2 1
f 7 8 9
f 7 9 10
f 11 12 8
f 11 8 7
f 13 14 15
f 13 15 16
f 17 18 14
f 17 14 13
f 19 20 21
f 19 21 22
f 23 24 20
f 23 20 19
f 25 26 27
f 25 27 28
f 29 30 26
f 29 26 25
f 31 32 33
f 31 33 34
f 35 36 32
f 35 32 31
f 37 38 39
f 37 39 40
f 41 42 38
f 41 38 37
f 43 44 45
f 43 45 46
f 47 48 44
f 47 44 43
f 49 50 51
f 49 51 52
f 53 54 55
f 53 55 56
f 54 53 50
f 54 50 49
f 57 58 59
f 57 59 60
f 61 62 58
f 61 58 57
f 63 64 65
f 65 64 66
f 65 66 67
f 67 66 68
f 67 68 69
f 69 68 70
f 69 70 63
f 63 70 64
f 64 70 71
f 64 71 72
f 64 72 66
f 66 72 73
f 66 73 68
f 68 73 74
f 68 74 70
f 70 74 71
f 71 74 75
f 71 75 76
f 71 76 72
f 72 76 77
f 72 77 73
f 73 77 78
f 73 78 74
f 74 78 75
f 75 78 79
f 75 79 80
f 75 80 76
f 76 80 81
f 76 81 77
f 77 81 82
f 77 82 78
f 78 82 79
f 83 84 85
f 83 85 86
f 83 86 87
f 87 86 88
f 87 88 89
f 89 88 90
f 89 90 84
f 84 90 85
f 85 90 91
f 85 91 92
f 85 92 86
f 86 92 93
f 86 93 88
f 88 93 94
f 88 94 90
f 90 94 91
f 91 94 95
f 91 95 96
f 91 96 92
f 92 96 97
f 92 97 93
f 93 97 98
f 93 98 94
f 94 98 95
f 95 98 99
f 95 99 100
f 95 100 96
f 96 100 101
f 96 101 97
f 97 101 102
f 97 102 98
f 98 102 99
f 103 104 105
f 103 105 106
f 103 106 107
f 107 106 108
f 107 108 109
f 107 109 110
f 110 109 111
f 110 111 105
f 110 105 104
f 106 105 112
f 106 112 108
f 108 112 113
f 108 113 114
f 108 114 109
f 109 114 115
f 109 115 111
f 111 115 116
f 117 118 119
f 119 118 120
f 119 120 121
f 121 120 122
f 121 122 123
f 123 122 124
f 123 124 117
f 117 124 118
f 118 124 125
f 118 125 126
f 118 126 120
f 120 126 127
f 120 127 122
f 122 127 128
f 122 128 124
f 124 128 125
f 125 128 129
f 125 129 130
f 125 130 126
f 126 130 131
f 126 131 127
f 127 131 132
f 127 132 128
f 128 132 129
f 129 132 133
f 129 133 134
f 129 134 130
f 130 134 135
f 130 135 131
f 131 135 136
f 131 136 132
f 132 136 133
f 137 138 139
f 139 138 140
f 139 140 141
f 141 140 142
f 141 142 143
f 143 142 144
f 143 144 137
f 137 144 138
f 138 144 145
f 138 145 146
f 138 146 140
f 140 146 147
f 140 147 142
f 142 147 148
f 142 148 144
f 144 148 145
f 145 148 149
f 145 149 150
f 145 150 146
f 146 150 151
f 146 151 147
f 147 151 152
f 147 152 148
f 148 152 149
f 149 152 153
f 149 153 154
f 149 154 150
f 150 154 155
f 150 155 151
f 151 155 156
f 151 156 152
f 152 156 153
f 157 158 159
f 159 158 160
f 159 160 161
f 161 160 162
f 161 162 163
f 163 162 164
f 163 164 157
f 157 164 158
f 158 164 165
f 158 165 166
f 158 166 160
f 160 166 167
f 160 167 162
f 162 167 168
f 162 168 164
f 164 168 165
f 165 168 169
f 165 169 170
f 165 170 166
f 166 170 171
f 166 171 167
f 167 171 172
f 167 172 168
f 168 172 169
f 169 172 173
f 169 173 174
f 169 174 170
f 170 174 175
f 170 175 171
f 171 175 176
f 171 176 172
f 172 176 173
f 177 178 179
f 179 178 180
f 179 180 181
f 181 180 182
f 181 182 183
f 183 182 184
f 183 184 177
f 177 184 178
f 178 184 185
f 178 185 186
f 178 186 180
f 180 186 187
f 180 187 182
f 182 187 188
f 182 188 184
f 184 188 185
f 185 188 189
f 185 189 190
f 185 190 186
f 186 190 191
f 186 191 187
f 187 191 192
f 187 192 188
f 188 192 189
f 189 192 193
f 189 193 194
f 189 194 190
f 190 194 195
f 190 195 191
f 191 195 196
f 191 196 192
f 192 196 193
f 197 198 199
f 199 198 200
f 199 200 201
f 201 200 202
f 201 202 203
f 203 202 204
f 203 204 197
f 197 204 198
f 198 204 205
f 198 205 206
f 198 206 200
f 200 206 207
f 200 207 202
f 202 207 208
f 202 208 204
f 204 208 205
f 205 208 209
f 205 209 210
f 205 210 206
f 206 210 211
f 206 211 207
f 207 211 212
f 207 212 208
f 208 212 209
f 209 212 213
f 209 213 214
f 209 214 210
f 210 214 215
f 210 215 211
f 211 215 216
f 211 216 212
f 212 216 213
f 217 218 219
f 217 219 220
f 217 220 221
f 217 221 222
f 217 222 223
f 223 222 224
f 224 222 225
f 224 225 226
f 224 226 227
f 227 226 218
f 218 226 219
f 219 226 228
f 219 228 220
f 220 228 229
f 220 229 221
f 221 229 225
f 221 225 222
f 225 228 226
f 228 225 229
f 230 231 232
f 230 232 233
f 230 233 234
f 234 233 235
f 234 235 236
f 236 235 237
f 236 237 231
f 231 237 232
f 232 237 238
f 232 238 239
f 232 239 233
f 233 239 240
f 233 240 235
f 235 240 241
f 235 241 237
f 237 241 238
f 238 241 242
f 238 242 243
f 238 243 239
f 239 243 244
f 239 244 240
f 240 244 245
f 240 245 241
f 241 245 242
f 242 245 246
f 242 246 247
f 242 247 243
f 243 247 248
f 243 248 244
f 244 248 249
f 244 249 245
f 245 249 246
f 250 251 252
f 252 251 253
f 252 253 254
f 254 253 255
f 254 255 256
f 256 255 257
f 256 257 250
f 250 257 251
f 251 257 258
f 251 258 259
f 251 259 253
f 253 259 260
f 253 260 255
f 255 260 261
f 255 261 257
f 257 261 258
f 258 261 262
f 258 262 263
f 258 263 259
f 259 263 264
f 259 264 260
f 260 264 265
f 260 265 261
f 261 265 262
f 262 265 266
f 262 266 267
f 262 267 263
f 263 267 268
f 263 268 264
f 264 268 269
f 264 269 265
f 265 269 266
f 270 271 272
f 270 272 273
f 270 273 274
f 274 273 275
f 274 275 276
f 276 275 277
f 276 277 272
f 276 272 271
f 273 272 278
f 273 278 279
f 279 278 280
f 279 280 281
f 272 277 278
f 278 277 282
f 278 282 280
f 277 275 283
f 277 283 282
f 284 285 286
f 284 286 287
f 284 287 288
f 288 287 289
f 288 289 290
f 290 289 291
f 290 291 285
f 285 291 286
f 286 291 292
f 286 292 293
f 286 293 287
f 287 293 294
f 287 294 289
f 289 294 295
f 289 295 291
f 291 295 292
f 292 295 296
f 292 296 297
f 292 297 293
f 293 297 298
f 293 298 294
f 294 298 299
f 294 299 295
f 295 299 296
f 296 299 300
f 296 300 301
f 296 301 297
f 297 301 302
f 297 302 298
f 298 302 303
f 298 303 299
f 299 303 300
f 304 305 306
f 304 306 307
f 304 307 308
f 308 307 309
f 308 309 310
f 310 309 311
f 310 311 305
f 305 311 306
f 306 311 312
f 306 312 313
f 306 313 307
f 307 313 314
f 307 314 309
f 309 314 315
f 309 315 311
f 311 315 312
f 312 315 316
f 312 316 317
f 312 317 313
f 313 317 318
f 313 318 314
f 314 318 319
f 314 319 315
f 315 319 316
f 316 319 320
f 316 320 321
f 316 321 317
f 317 321 322
f 317 322 318
f 318 322 323
f 318 323 319
f 319 323 320
f 324 325 326
f 324 326 327
f 324 327 328
f 328 327 329
f 328 329 330
f 330 329 331
f 330 331 325
f 325 331 326
f 326 331 332
f 326 332 333
f 326 333 327
f 327 333 334
f 327 334 329
f 329 334 335
f 329 335 331
f 331 335 332
f 332 335 336
f 332 336 337
f 332 337 333
f 333 337 338
f 333 338 334
f 334 338 339
f 334 339 335
f 335 339 336
f 336 339 340
f 336 340 341
f 336 341 337
f 337 341 342
f 337 342 338
f 338 342 343
f 338 343 339
f 339 343 340
f 344 345 346
f 344 346 347
f 344 347 348
f 348 347 349
f 348 349 350
f 350 349 351
f 350 351 345
f 345 351 346
f 346 351 352
f 346 352 353
f 346 353 347
f 347 353 354
f 347 354 349
f 349 354 355
f 349 355 351
f 351 355 352
f 352 355 356
f 352 356 357
f 352 357 353
f 353 357 358
f 353 358 354
f 354 358 359
f 354 359 355
f 355 359 356
f 356 359 360
f 356 360 361
f 356 361 357
f 357 361 362
f 357 362 358
f 358 362 363
f 358 363 359
f 359 363 360
f 364 365 366
f 364 366 367
f 364 367 368
f 368 367 369
f 368 369 370
f 370 369 371
f 370 371 365
f 365 371 366
f 366 371 372
f 366 372 373
f 366 373 367
f 367 373 374
f 367 374 369
f 369 374 375
f 369 375 371
f 371 375 372
f 372 375 376
f 372 376 377
f 372 377 373
f 373 377 378
f 373 378 374
f 374 378 379
f 374 379 375
f 375 379 376
f 376 379 380
f 376 380 381
f 376 381 377
f 377 381 382
f 377 382 378
f 378 382 383
f 378 383 379
f 379 383 380
f 384 385 386
f 386 385 387
f 386 387 388
f 388 387 389
f 389 387 390
f 389 390 391
f 389 391 392
f 392 391 384
f 384 391 393
f 384 393 394
f 384 394 385
f 385 394 395
f 385 395 387
f 387 395 390
f 390 395 396
f 390 396 393
f 390 393 391
f 394 393 396
f 394 396 395
f 397 398 399
f 397 399 400
f 397 400 401
f 397 401 402
f 397 402 403
f 397 403 398
f 398 403 404
f 398 404 405
f 398 405 406
f 398 406 399
f 407 408 409
f 407 409 410
f 407 410 411
f 407 411 412
f 407 412 413
f 407 413 408
f 408 413 414
f 408 414 415
f 408 415 416
f 408 416 409
f 409 416 417
f 409 417 418
f 409 418 410
f 410 418 419
f 410 419 420
f 410 420 411
f 411 420 421
f 411 421 422
f 411 422 412
f 412 422 423
f 412 423 413
f 413 423 424
f 413 424 414
f 414 424 425
f 414 425 426
f 414 426 415
f 427 428 429
f 427 429 430
f 427 430 431
f 431 430 432
f 431 432 433
f 433 432 434
f 434 432 435
f 434 435 436
f 436 435 437
f 436 437 438
f 438 437 439
f 438 439 440
f 440 439 441
f 440 441 442
f 442 441 443
f 442 443 444
f 444 443 445
f 444 445 446
f 446 445 447
f 446 447 448
f 446 448 449
f 449 448 423
f 449 423 422
f 430 429 450
f 430 450 451
f 430 451 432
f 432 451 435
f 435 451 452
f 435 452 437
f 437 452 453
f 437 453 439
f 439 453 454
f 439 454 441
f 441 454 455
f 441 455 443
f 443 455 456
f 443 456 457
f 443 457 445
f 445 457 423
f 445 423 448
f 445 448 447
f 453 458 459
f 453 459 454
f 454 459 460
f 454 460 455
f 455 460 456
f 456 460 461
f 456 461 462
f 456 462 463
f 456 463 461
f 456 461 425
f 456 425 424
f 456 424 457
f 456 457 464
f 456 464 462
f 456 462 457
f 457 462 464
f 452 465 458
f 452 458 453
f 466 461 460
f 466 460 467
f 466 467 468
f 466 468 469
f 466 469 425
f 466 425 461
f 419 418 404
f 419 404 403
f 419 403 470
f 419 470 420
f 420 470 471
f 420 471 421
f 451 450 465
f 451 465 452
f 428 472 473
f 428 473 429
f 429 473 474
f 429 474 450
f 450 474 475
f 450 475 465
f 465 475 476
f 465 476 458
f 458 476 477
f 458 477 459
f 459 477 467
f 459 467 460
f 404 478 405
f 478 404 418
f 478 418 417
f 425 479 426
f 479 425 480
f 479 480 469
f 479 469 468
f 469 480 425
f 481 482 483
f 481 483 484
f 485 486 482
f 485 482 481
f 487 488 489
f 487 489 490
f 487 490 491
f 487 491 492
f 487 492 488
f 488 492 493
f 488 493 494
f 488 494 495
f 488 495 489
f 489 495 496
f 489 496 497
f 489 497 490
f 490 497 498
f 490 498 499
f 490 499 491
f 491 499 500
f 491 500 461
f 491 461 486
f 491 486 501
f 491 501 492
f 492 501 493
f 493 501 502
f 493 502 503
f 498 497 504
f 498 504 505
f 498 505 499
f 499 505 506
f 499 506 507
f 499 507 500
f 505 504 508
f 505 508 509
f 505 509 510
f 505 510 506
f 506 510 507
f 507 510 511
f 507 511 512
f 507 512 513
f 507 513 511
f 511 513 512
f 508 514 509
f 509 514 515
f 509 515 516
f 509 516 510
f 510 516 517
f 510 517 511
f 497 496 504
f 504 496 518
f 504 518 508
f 508 518 519
f 508 519 514
f 514 519 520
f 514 520 515
f 495 513 496
f 496 513 518
f 518 513 519
f 519 513 512
f 519 512 520
f 495 521 513
f 521 495 494
f 521 494 425
f 486 502 501
f 463 462 461
f 486 466 469
f 486 469 463
f 461 466 486
f 401 400 522
f 401 522 523
f 401 523 524
f 401 524 402
f 402 524 525
f 402 525 470
f 402 470 403
f 457 424 423
f 523 522 526
f 471 470 525
f 527 528 529
f 527 529 530
f 527 530 531
f 527 531 532
f 527 532 528
f 528 532 533
f 528 533 534
f 528 534 535
f 528 535 529
f 529 535 536
f 529 536 537
f 529 537 530
f 530 537 538
f 530 538 485
f 530 485 531
f 531 485 457
f 531 457 539
f 531 539 540
f 531 540 532
f 532 540 541
f 532 541 533
f 533 541 542
f 533 542 534
f 534 542 543
f 534 543 544
f 534 544 535
f 535 544 545
f 535 545 536
f 536 545 423
f 546 547 542
f 546 542 541
f 546 541 540
f 546 540 548
f 546 548 549
f 546 549 550
f 546 550 547
f 547 550 551
f 547 551 552
f 547 552 543
f 547 543 542
f 544 552 553
f 544 553 554
f 544 554 555
f 544 555 553
f 553 555 554
f 540 539 555
f 540 555 548
f 548 555 549
f 549 555 554
f 549 554 556
f 549 556 550
f 550 556 557
f 550 557 551
f 551 557 558
f 551 558 552
f 552 558 559
f 552 559 553
f 560 561 538
f 560 538 537
f 485 538 561
f 544 543 552
f 485 447 445
f 485 445 457
f 485 464 447
f 562 563 564
f 565 566 567
