# RS2 Model 25072
# Vertices: 432
# Faces: 610

v 84 -152 19
v -84 -152 19
v -84 -152 13
v 84 -152 13
v 84 -120 19
v -84 -120 19
v 84 -120 39
v -84 -120 39
v -84 -120 33
v 84 -120 33
v 84 -88 39
v -84 -88 39
v 84 -88 59
v -84 -88 59
v -84 -88 53
v 84 -88 53
v 84 -56 59
v -84 -56 59
v 84 -56 79
v -84 -56 79
v -84 -56 73
v 84 -56 73
v 84 -24 79
v -84 -24 79
v 84 -24 99
v -84 -24 99
v -84 -24 93
v 84 -24 93
v 84 8 99
v -84 8 99
v 84 8 119
v -84 8 119
v -84 8 113
v 84 8 113
v 84 40 119
v -84 40 119
v 84 40 139
v -84 40 139
v -84 40 132
v 84 40 132
v 84 72 139
v -84 72 139
v 84 72 159
v -84 72 159
v -84 72 153
v 84 72 153
v 84 104 159
v -84 104 159
v 84 106 180
v -84 106 180
v -84 106 173
v 84 106 173
v -84 143 180
v 84 143 180
v 84 143 173
v -84 143 173
v 84 128 203
v -84 128 203
v -84 128 199
v 84 128 199
v 84 160 203
v -84 160 203
v 84 158 218
v -84 158 218
v -84 158 213
v 84 158 213
v -84 191 218
v 84 191 218
v 84 191 213
v -84 191 213
v 89 -183 75
v 86 -178 80
v 84 -174 76
v 86 70 241
v 84 85 241
v 94 85 241
v 92 70 241
v 92 -178 80
v 94 -174 76
v 94 -183 85
v 84 -183 85
v 84 61 241
v 94 61 241
v -89 -183 75
v -92 -178 80
v -94 -174 76
v -92 70 241
v -94 85 241
v -84 85 241
v -86 70 241
v -86 -178 80
v -84 -174 76
v -84 -183 85
v -94 -183 85
v -94 61 241
v -84 61 241
v 84 191 224
v 84 191 240
v 94 191 240
v 94 191 224
v 94 191 203
v 84 191 203
v 84 -158 0
v 84 -192 0
v 94 -192 0
v 94 -158 0
v 94 -122 0
v 94 -157 0
v 84 -157 0
v 84 -122 0
v -94 191 224
v -94 191 240
v -84 191 240
v -84 191 224
v -84 191 203
v -94 191 203
v -94 -158 0
v -94 -192 0
v -84 -192 0
v -84 -158 0
v -84 -122 0
v -84 -157 0
v -94 -157 0
v -94 -122 0
v -82 166 228
v -96 166 228
v -94 167 226
v -84 167 226
v -82 180 235
v -85 179 241
v -85 169 235
v -93 169 235
v -96 180 235
v -94 177 231
v 96 166 228
v 82 166 228
v 84 167 226
v 94 167 226
v 96 180 235
v 93 179 241
v 93 169 235
v 85 169 235
v 82 180 235
v 84 177 231
v 93 -151 91
v 85 -151 91
v 82 -154 39
v 96 -154 39
v 93 -145 95
v 96 -140 48
v 85 -145 95
v 82 -140 48
v 85 -143 41
v 85 -150 37
v 93 -150 37
v 93 -143 41
v 96 -139 38
v 82 -139 38
v 82 -153 29
v 96 -153 29
v 94 -151 25
v 94 -141 31
v 84 -141 31
v 84 -151 25
v 93 -104 120
v 85 -104 120
v 82 -107 68
v 96 -107 68
v 93 -98 123
v 96 -93 77
v 85 -98 123
v 82 -93 77
v 85 -96 70
v 85 -103 66
v 93 -103 66
v 93 -96 70
v 96 -92 67
v 82 -92 67
v 82 -106 58
v 96 -106 58
v 94 -104 54
v 94 -94 60
v 84 -94 60
v 84 -104 54
v 93 -57 150
v 85 -57 150
v 82 -61 99
v 96 -61 99
v 94 -51 154
v 96 -47 108
v 85 -51 154
v 82 -47 108
v 85 -50 101
v 85 -57 97
v 93 -57 97
v 93 -50 101
v 96 -46 97
v 82 -46 97
v 82 -60 88
v 96 -60 88
v 94 -58 84
v 94 -48 91
v 84 -48 91
v 84 -58 84
v 93 -11 179
v 85 -11 179
v 82 -15 127
v 96 -15 127
v 93 -5 183
v 96 -1 136
v 85 -5 183
v 82 -1 136
v 85 -4 129
v 85 -11 125
v 93 -11 125
v 93 -4 129
v 96 0 126
v 82 0 126
v 82 -14 117
v 96 -14 117
v 94 -12 113
v 94 -2 119
v 84 -2 119
v 84 -12 113
v 93 32 207
v 85 32 207
v 82 28 154
v 96 28 154
v 93 38 211
v 96 42 163
v 85 38 211
v 82 42 163
v 85 39 156
v 85 32 152
v 93 32 152
v 93 39 156
v 96 43 153
v 82 43 153
v 82 29 144
v 96 29 144
v 94 31 140
v 94 41 146
v 84 41 146
v 84 31 140
v 93 76 235
v 85 76 235
v 82 70 181
v 96 70 181
v 93 82 239
v 96 85 191
v 85 82 239
v 82 85 191
v 85 82 184
v 85 74 180
v 93 74 180
v 93 82 184
v 96 86 181
v 82 86 181
v 82 71 171
v 96 71 171
v 94 73 167
v 94 84 174
v 84 84 174
v 84 73 167
v -85 -151 91
v -93 -151 91
v -96 -154 39
v -82 -154 39
v -85 -145 95
v -82 -140 48
v -93 -145 95
v -96 -140 48
v -93 -143 41
v -93 -150 37
v -85 -150 37
v -85 -143 41
v -82 -139 38
v -96 -139 38
v -96 -153 29
v -82 -153 29
v -84 -151 25
v -84 -141 31
v -94 -141 31
v -94 -151 25
v -85 -104 120
v -93 -104 120
v -96 -107 68
v -82 -107 68
v -85 -98 123
v -82 -93 77
v -93 -98 123
v -96 -93 77
v -93 -96 70
v -93 -103 66
v -85 -103 66
v -85 -96 70
v -82 -92 67
v -96 -92 67
v -96 -106 58
v -82 -106 58
v -84 -104 54
v -84 -94 60
v -94 -94 60
v -94 -104 54
v -85 -57 150
v -93 -57 150
v -96 -61 99
v -82 -61 99
v -84 -51 154
v -82 -47 108
v -93 -51 154
v -96 -47 108
v -93 -50 101
v -93 -57 97
v -85 -57 97
v -85 -50 101
v -82 -46 97
v -96 -46 97
v -96 -60 88
v -82 -60 88
v -84 -58 84
v -84 -48 91
v -94 -48 91
v -94 -58 84
v -85 -11 179
v -93 -11 179
v -96 -15 127
v -82 -15 127
v -85 -5 183
v -82 -1 136
v -93 -5 183
v -96 -1 136
v -93 -4 129
v -93 -11 125
v -85 -11 125
v -85 -4 129
v -82 0 126
v -96 0 126
v -96 -14 117
v -82 -14 117
v -84 -12 113
v -84 -2 119
v -94 -2 119
v -94 -12 113
v -85 32 207
v -93 32 207
v -96 28 154
v -82 28 154
v -85 38 211
v -82 42 163
v -93 38 211
v -96 42 163
v -93 39 156
v -93 32 152
v -85 32 152
v -85 39 156
v -82 43 153
v -96 43 153
v -96 29 144
v -82 29 144
v -84 31 140
v -84 41 146
v -94 41 146
v -94 31 140
v -85 76 235
v -93 76 235
v -96 70 181
v -82 70 181
v -85 82 239
v -82 85 191
v -93 82 239
v -96 85 191
v -93 82 184
v -93 74 180
v -85 74 180
v -85 82 184
v -82 86 181
v -96 86 181
v -96 71 171
v -82 71 171
v -84 73 167
v -84 84 174
v -94 84 174
v -94 73 167
v -82 121 210
v -96 121 210
v -93 125 208
v -85 125 208
v -82 135 218
v -83 134 241
v -83 123 241
v -94 123 241
v -96 135 218
v -93 132 213
v -96 136 210
v -96 122 202
v -82 122 202
v -85 132 213
v -94 134 241
v -82 136 210
v -84 134 205
v -94 134 205
v -94 124 199
v -84 124 199
v -82 167 241
v -96 167 241
v -93 179 241
v -84 177 231
v 94 123 241
v 96 121 210
v 94 134 241
v 96 135 218
v 83 134 241
v 82 135 218
v 83 123 241
v 82 121 210
v 85 125 208
v 93 125 208
v 93 132 213
v 85 132 213
v 82 136 210
v 82 122 202
v 96 122 202
v 96 136 210
v 94 134 205
v 84 134 205
v 84 124 199
v 94 124 199
v 96 167 241
v 82 167 241
v 85 179 241
v 94 177 231

f 1 2 3
f 1 3 4
f 5 6 2
f 5 2 1
f 7 8 9
f 7 9 10
f 11 12 8
f 11 8 7
f 13 14 15
f 13 15 16
f 17 18 14
f 17 14 13
f 19 20 21
f 19 21 22
f 23 24 20
f 23 20 19
f 25 26 27
f 25 27 28
f 29 30 26
f 29 26 25
f 31 32 33
f 31 33 34
f 35 36 32
f 35 32 31
f 37 38 39
f 37 39 40
f 41 42 38
f 41 38 37
f 43 44 45
f 43 45 46
f 47 48 44
f 47 44 43
f 49 50 51
f 49 51 52
f 53 54 55
f 53 55 56
f 54 53 50
f 54 50 49
f 57 58 59
f 57 59 60
f 61 62 58
f 61 58 57
f 63 64 65
f 63 65 66
f 67 68 69
f 67 69 70
f 68 67 64
f 68 64 63
f 71 72 73
f 73 72 74
f 73 74 75
f 75 74 76
f 76 74 77
f 76 77 78
f 76 78 79
f 79 78 71
f 71 78 80
f 71 80 81
f 71 81 72
f 72 81 82
f 72 82 74
f 74 82 77
f 77 82 83
f 77 83 80
f 77 80 78
f 81 80 83
f 81 83 82
f 84 85 86
f 86 85 87
f 86 87 88
f 88 87 89
f 89 87 90
f 89 90 91
f 89 91 92
f 92 91 84
f 84 91 93
f 84 93 94
f 84 94 85
f 85 94 95
f 85 95 87
f 87 95 90
f 90 95 96
f 90 96 93
f 90 93 91
f 94 93 96
f 94 96 95
f 97 98 99
f 97 99 100
f 97 100 101
f 97 101 102
f 97 102 103
f 97 103 104
f 97 104 98
f 98 104 99
f 99 104 105
f 99 105 100
f 100 105 106
f 100 106 107
f 100 107 101
f 105 108 106
f 106 108 107
f 103 109 104
f 109 103 110
f 110 103 102
f 111 112 113
f 111 113 114
f 111 114 115
f 111 115 116
f 111 116 117
f 111 117 118
f 111 118 112
f 112 118 113
f 113 118 119
f 113 119 114
f 114 119 120
f 114 120 121
f 114 121 115
f 119 122 120
f 120 122 121
f 117 123 118
f 123 117 124
f 124 117 116
f 125 126 127
f 125 127 128
f 125 128 129
f 125 129 130
f 125 130 131
f 125 131 126
f 126 131 132
f 126 132 133
f 126 133 134
f 126 134 127
f 135 136 137
f 135 137 138
f 135 138 139
f 135 139 140
f 135 140 141
f 135 141 136
f 136 141 142
f 136 142 143
f 136 143 144
f 136 144 137
f 145 146 147
f 145 147 148
f 145 148 149
f 149 148 150
f 149 150 151
f 151 150 152
f 151 152 146
f 146 152 147
f 147 152 153
f 147 153 154
f 147 154 148
f 148 154 155
f 148 155 150
f 150 155 156
f 150 156 152
f 152 156 153
f 153 156 157
f 153 157 158
f 153 158 154
f 154 158 159
f 154 159 155
f 155 159 160
f 155 160 156
f 156 160 157
f 157 160 161
f 157 161 162
f 157 162 158
f 158 162 163
f 158 163 159
f 159 163 164
f 159 164 160
f 160 164 161
f 165 166 167
f 165 167 168
f 165 168 169
f 169 168 170
f 169 170 171
f 171 170 172
f 171 172 166
f 166 172 167
f 167 172 173
f 167 173 174
f 167 174 168
f 168 174 175
f 168 175 170
f 170 175 176
f 170 176 172
f 172 176 173
f 173 176 177
f 173 177 178
f 173 178 174
f 174 178 179
f 174 179 175
f 175 179 180
f 175 180 176
f 176 180 177
f 177 180 181
f 177 181 182
f 177 182 178
f 178 182 183
f 178 183 179
f 179 183 184
f 179 184 180
f 180 184 181
f 185 186 187
f 185 187 188
f 185 188 189
f 189 188 190
f 189 190 191
f 191 190 192
f 191 192 186
f 186 192 187
f 187 192 193
f 187 193 194
f 187 194 188
f 188 194 195
f 188 195 190
f 190 195 196
f 190 196 192
f 192 196 193
f 193 196 197
f 193 197 198
f 193 198 194
f 194 198 199
f 194 199 195
f 195 199 200
f 195 200 196
f 196 200 197
f 197 200 201
f 197 201 202
f 197 202 198
f 198 202 203
f 198 203 199
f 199 203 204
f 199 204 200
f 200 204 201
f 205 206 207
f 205 207 208
f 205 208 209
f 209 208 210
f 209 210 211
f 211 210 212
f 211 212 206
f 206 212 207
f 207 212 213
f 207 213 214
f 207 214 208
f 208 214 215
f 208 215 210
f 210 215 216
f 210 216 212
f 212 216 213
f 213 216 217
f 213 217 218
f 213 218 214
f 214 218 219
f 214 219 215
f 215 219 220
f 215 220 216
f 216 220 217
f 217 220 221
f 217 221 222
f 217 222 218
f 218 222 223
f 218 223 219
f 219 223 224
f 219 224 220
f 220 224 221
f 225 226 227
f 225 227 228
f 225 228 229
f 229 228 230
f 229 230 231
f 231 230 232
f 231 232 226
f 226 232 227
f 227 232 233
f 227 233 234
f 227 234 228
f 228 234 235
f 228 235 230
f 230 235 236
f 230 236 232
f 232 236 233
f 233 236 237
f 233 237 238
f 233 238 234
f 234 238 239
f 234 239 235
f 235 239 240
f 235 240 236
f 236 240 237
f 237 240 241
f 237 241 242
f 237 242 238
f 238 242 243
f 238 243 239
f 239 243 244
f 239 244 240
f 240 244 241
f 245 246 247
f 245 247 248
f 245 248 249
f 249 248 250
f 249 250 251
f 251 250 252
f 251 252 246
f 246 252 247
f 247 252 253
f 247 253 254
f 247 254 248
f 248 254 255
f 248 255 250
f 250 255 256
f 250 256 252
f 252 256 253
f 253 256 257
f 253 257 258
f 253 258 254
f 254 258 259
f 254 259 255
f 255 259 260
f 255 260 256
f 256 260 257
f 257 260 261
f 257 261 262
f 257 262 258
f 258 262 263
f 258 263 259
f 259 263 264
f 259 264 260
f 260 264 261
f 265 266 267
f 265 267 268
f 265 268 269
f 269 268 270
f 269 270 271
f 271 270 272
f 271 272 266
f 266 272 267
f 267 272 273
f 267 273 274
f 267 274 268
f 268 274 275
f 268 275 270
f 270 275 276
f 270 276 272
f 272 276 273
f 273 276 277
f 273 277 278
f 273 278 274
f 274 278 279
f 274 279 275
f 275 279 280
f 275 280 276
f 276 280 277
f 277 280 281
f 277 281 282
f 277 282 278
f 278 282 283
f 278 283 279
f 279 283 284
f 279 284 280
f 280 284 281
f 285 286 287
f 285 287 288
f 285 288 289
f 289 288 290
f 289 290 291
f 291 290 292
f 291 292 286
f 286 292 287
f 287 292 293
f 287 293 294
f 287 294 288
f 288 294 295
f 288 295 290
f 290 295 296
f 290 296 292
f 292 296 293
f 293 296 297
f 293 297 298
f 293 298 294
f 294 298 299
f 294 299 295
f 295 299 300
f 295 300 296
f 296 300 297
f 297 300 301
f 297 301 302
f 297 302 298
f 298 302 303
f 298 303 299
f 299 303 304
f 299 304 300
f 300 304 301
f 305 306 307
f 305 307 308
f 305 308 309
f 309 308 310
f 309 310 311
f 311 310 312
f 311 312 306
f 306 312 307
f 307 312 313
f 307 313 314
f 307 314 308
f 308 314 315
f 308 315 310
f 310 315 316
f 310 316 312
f 312 316 313
f 313 316 317
f 313 317 318
f 313 318 314
f 314 318 319
f 314 319 315
f 315 319 320
f 315 320 316
f 316 320 317
f 317 320 321
f 317 321 322
f 317 322 318
f 318 322 323
f 318 323 319
f 319 323 324
f 319 324 320
f 320 324 321
f 325 326 327
f 325 327 328
f 325 328 329
f 329 328 330
f 329 330 331
f 331 330 332
f 331 332 326
f 326 332 327
f 327 332 333
f 327 333 334
f 327 334 328
f 328 334 335
f 328 335 330
f 330 335 336
f 330 336 332
f 332 336 333
f 333 336 337
f 333 337 338
f 333 338 334
f 334 338 339
f 334 339 335
f 335 339 340
f 335 340 336
f 336 340 337
f 337 340 341
f 337 341 342
f 337 342 338
f 338 342 343
f 338 343 339
f 339 343 344
f 339 344 340
f 340 344 341
f 345 346 347
f 345 347 348
f 345 348 349
f 349 348 350
f 349 350 351
f 351 350 352
f 351 352 346
f 346 352 347
f 347 352 353
f 347 353 354
f 347 354 348
f 348 354 355
f 348 355 350
f 350 355 356
f 350 356 352
f 352 356 353
f 353 356 357
f 353 357 358
f 353 358 354
f 354 358 359
f 354 359 355
f 355 359 360
f 355 360 356
f 356 360 357
f 357 360 361
f 357 361 362
f 357 362 358
f 358 362 363
f 358 363 359
f 359 363 364
f 359 364 360
f 360 364 361
f 365 366 367
f 365 367 368
f 365 368 369
f 369 368 370
f 369 370 371
f 371 370 372
f 371 372 366
f 366 372 367
f 367 372 373
f 367 373 374
f 367 374 368
f 368 374 375
f 368 375 370
f 370 375 376
f 370 376 372
f 372 376 373
f 373 376 377
f 373 377 378
f 373 378 374
f 374 378 379
f 374 379 375
f 375 379 380
f 375 380 376
f 376 380 377
f 377 380 381
f 377 381 382
f 377 382 378
f 378 382 383
f 378 383 379
f 379 383 384
f 379 384 380
f 380 384 381
f 385 386 387
f 385 387 388
f 385 388 389
f 385 389 390
f 385 390 391
f 385 391 386
f 386 391 392
f 386 392 393
f 386 393 394
f 386 394 387
f 387 394 395
f 387 395 396
f 387 396 388
f 388 396 397
f 388 397 398
f 388 398 389
f 389 398 393
f 389 393 399
f 389 399 390
f 393 398 394
f 394 398 400
f 394 400 395
f 395 400 401
f 395 401 402
f 395 402 396
f 396 402 403
f 396 403 397
f 397 403 404
f 397 404 400
f 397 400 398
f 400 404 401
f 405 406 132
f 405 132 131
f 405 131 130
f 406 407 132
f 132 407 133
f 133 407 129
f 133 129 408
f 133 408 134
f 407 130 129
f 129 128 408
f 409 410 411
f 411 410 412
f 411 412 413
f 413 412 414
f 413 414 415
f 415 414 416
f 415 416 409
f 409 416 410
f 410 416 417
f 410 417 418
f 410 418 412
f 412 418 419
f 412 419 414
f 414 419 420
f 414 420 416
f 416 420 417
f 417 420 421
f 417 421 422
f 417 422 418
f 418 422 423
f 418 423 419
f 419 423 424
f 419 424 420
f 420 424 421
f 421 424 425
f 421 425 426
f 421 426 422
f 422 426 427
f 422 427 423
f 423 427 428
f 423 428 424
f 424 428 425
f 429 430 142
f 429 142 141
f 429 141 140
f 430 431 142
f 142 431 143
f 143 431 139
f 143 139 432
f 143 432 144
f 431 140 139
f 139 138 432
f 399 393 392
