# RS2 Model 25074
# Vertices: 90
# Faces: 124

v -85 61 25
v -93 61 25
v -94 59 0
v -83 59 0
v -85 67 29
v -83 70 0
v -93 67 29
v -94 70 0
v -96 117 8
v -82 117 8
v -85 115 0
v -93 115 0
v -96 103 0
v -93 106 51
v -93 112 55
v -84 112 55
v -82 103 0
v -94 -3 0
v -84 -3 0
v -84 120 74
v -94 120 74
v -92 6 0
v -92 123 70
v -94 21 0
v -95 128 65
v -98 124 71
v -96 127 73
v -92 128 73
v -84 128 65
v -82 128 65
v -80 124 71
v -86 123 70
v -86 6 0
v -84 21 0
v -82 121 77
v -96 121 77
v -94 126 80
v -94 128 79
v -86 128 73
v -82 127 73
v -84 126 80
v -84 128 79
v 93 61 25
v 85 61 25
v 83 59 0
v 94 59 0
v 93 67 29
v 94 70 0
v 85 67 29
v 83 70 0
v 82 117 8
v 96 117 8
v 93 115 0
v 85 115 0
v 82 103 0
v 84 106 51
v 84 112 55
v 93 112 55
v 96 103 0
v 84 -3 0
v 94 -3 0
v 94 120 74
v 84 120 74
v 86 6 0
v 86 123 70
v 84 21 0
v 83 128 65
v 80 124 71
v 82 127 73
v 86 128 73
v 94 128 65
v 96 128 65
v 98 124 71
v 92 123 70
v 92 6 0
v 94 21 0
v 96 121 77
v 82 121 77
v 84 126 80
v 84 128 79
v 92 128 73
v 96 127 73
v 94 126 80
v 94 128 79
v -84 106 51
v 93 106 51
v 128 -128 0
v -128 -128 0
v -128 128 0
v 128 128 0

f 1 2 3
f 1 3 4
f 1 4 5
f 5 4 6
f 5 6 7
f 7 6 8
f 7 8 2
f 2 8 3
f 9 10 11
f 9 11 12
f 9 12 13
f 9 13 14
f 9 14 15
f 9 15 10
f 10 15 16
f 10 16 17
f 10 17 11
f 18 19 20
f 18 20 21
f 18 21 22
f 22 21 23
f 22 23 24
f 24 23 25
f 25 23 26
f 25 26 27
f 25 27 28
f 25 28 29
f 25 29 30
f 30 29 31
f 30 31 32
f 30 32 29
f 29 32 33
f 29 33 34
f 19 33 32
f 19 32 20
f 20 32 31
f 20 31 35
f 20 35 21
f 21 35 36
f 21 36 23
f 23 36 26
f 26 36 37
f 26 37 27
f 27 37 38
f 27 38 28
f 28 38 39
f 28 39 29
f 29 39 40
f 29 40 31
f 31 40 35
f 35 40 41
f 35 41 36
f 36 41 37
f 37 41 42
f 37 42 38
f 38 42 39
f 39 42 41
f 39 41 40
f 43 44 45
f 43 45 46
f 43 46 47
f 47 46 48
f 47 48 49
f 49 48 50
f 49 50 44
f 44 50 45
f 51 52 53
f 51 53 54
f 51 54 55
f 51 55 56
f 51 56 57
f 51 57 52
f 52 57 58
f 52 58 59
f 52 59 53
f 60 61 62
f 60 62 63
f 60 63 64
f 64 63 65
f 64 65 66
f 66 65 67
f 67 65 68
f 67 68 69
f 67 69 70
f 67 70 71
f 67 71 72
f 72 71 73
f 72 73 74
f 72 74 71
f 71 74 75
f 71 75 76
f 61 75 74
f 61 74 62
f 62 74 73
f 62 73 77
f 62 77 63
f 63 77 78
f 63 78 65
f 65 78 68
f 68 78 79
f 68 79 69
f 69 79 80
f 69 80 70
f 70 80 81
f 70 81 71
f 71 81 82
f 71 82 73
f 73 82 77
f 77 82 83
f 77 83 78
f 78 83 79
f 79 83 84
f 79 84 80
f 80 84 81
f 81 84 83
f 81 83 82
f 14 13 85
f 85 13 17
f 85 17 16
f 56 55 86
f 86 55 59
f 86 59 58
f 87 88 89
f 87 89 90
