# RS2 Model 25181
# Vertices: 74
# Faces: 103

v -44 -64 184
v -64 -64 184
v -64 -64 136
v -44 -64 136
v -44 -59 141
v -44 -59 179
v -44 64 184
v -64 64 184
v -64 64 136
v -44 64 136
v -44 59 179
v -44 59 141
v -61 59 141
v -61 -59 141
v -61 -59 179
v -61 59 179
v -45 59 179
v -45 -59 179
v -45 -59 141
v -45 59 141
v -47 42 167
v -55 42 167
v -54 41 166
v -48 41 166
v -48 41 159
v -47 42 158
v -48 43 159
v -48 43 166
v -54 43 166
v -48 55 166
v -54 55 166
v -47 56 167
v -55 56 167
v -48 57 166
v -54 57 166
v -48 57 159
v -54 57 159
v -47 56 158
v -55 56 158
v -48 55 159
v -54 55 159
v -54 43 159
v -55 42 158
v -54 41 159
v -50 41 160
v -52 41 160
v -52 41 165
v -50 41 165
v -50 21 163
v -50 21 151
v -50 -56 157
v -50 -44 167
v -52 -44 167
v -50 -46 173
v -52 -46 173
v -50 -32 170
v -52 -32 170
v -50 -15 165
v -52 -15 165
v -50 4 163
v -52 4 163
v -52 21 163
v -50 -38 152
v -50 -35 155
v -50 -34 151
v -50 -18 148
v -50 -16 152
v -50 -14 148
v -50 1 148
v -50 3 150
v -50 5 148
v -52 -16 152
v -52 3 150
v -52 -35 155

f 1 2 3
f 1 3 4
f 1 4 5
f 1 5 6
f 1 6 7
f 1 7 2
f 2 7 8
f 2 8 3
f 3 8 9
f 9 8 10
f 10 8 7
f 10 7 11
f 10 11 12
f 10 12 4
f 4 12 5
f 5 12 13
f 5 13 14
f 5 14 6
f 6 14 15
f 15 14 16
f 16 14 13
f 16 13 12
f 16 12 11
f 6 11 7
f 17 18 19
f 17 19 20
f 21 22 23
f 21 23 24
f 21 24 25
f 21 25 26
f 21 26 27
f 21 27 28
f 21 28 22
f 22 28 29
f 29 28 30
f 29 30 31
f 31 30 32
f 31 32 33
f 33 32 34
f 33 34 35
f 35 34 36
f 35 36 37
f 37 36 38
f 37 38 39
f 39 38 40
f 39 40 41
f 41 40 27
f 41 27 42
f 42 27 26
f 42 26 43
f 43 26 25
f 43 25 44
f 44 25 45
f 44 45 46
f 44 46 23
f 23 46 47
f 23 47 24
f 24 47 48
f 24 48 25
f 25 48 45
f 45 48 49
f 45 49 50
f 45 50 46
f 40 30 28
f 40 28 27
f 38 32 30
f 38 30 40
f 36 34 32
f 36 32 38
f 51 52 53
f 53 52 54
f 53 54 55
f 55 54 56
f 55 56 57
f 57 56 58
f 57 58 59
f 59 58 60
f 59 60 61
f 61 60 49
f 61 49 62
f 62 49 48
f 62 48 47
f 54 52 56
f 56 52 63
f 56 63 64
f 56 64 65
f 56 65 66
f 56 66 58
f 58 66 67
f 58 67 68
f 58 68 69
f 58 69 60
f 60 69 70
f 60 70 71
f 60 71 50
f 60 50 49
f 68 67 72
f 72 67 66
f 71 70 73
f 73 70 69
f 65 64 74
f 74 64 63
f 63 52 51
