# RS2 Model 25270
# Vertices: 120
# Faces: 196

v -26 -24 161
v -26 -64 161
v -10 -64 159
v -10 -26 159
v -13 -24 157
v -10 -22 159
v -10 20 144
v -26 22 152
v -44 -25 154
v -44 -64 159
v -58 -28 139
v -58 -64 136
v -60 -26 142
v -60 -64 139
v -62 -64 139
v -62 -26 142
v -64 -64 136
v -64 0 139
v -62 35 142
v -62 64 139
v -64 64 136
v -1 -64 151
v -1 -26 151
v -4 -24 149
v -1 -22 151
v -1 20 131
v -3 22 129
v -12 22 142
v -10 24 144
v -10 43 126
v -28 43 135
v -44 22 150
v -58 33 139
v -58 -24 139
v -56 -26 136
v -60 35 142
v -60 64 139
v 4 -64 140
v 4 -26 140
v 1 -24 138
v 4 -22 140
v 4 20 119
v 2 22 117
v -1 24 131
v 7 -64 140
v 7 -24 140
v 10 -64 138
v 10 -24 138
v 10 22 117
v 7 22 119
v 4 24 119
v 0 43 107
v -3 43 115
v -5 64 98
v -12 64 111
v -28 64 124
v -44 35 140
v -56 35 136
v -58 37 139
v -58 64 136
v 11 -64 135
v 11 -26 135
v 11 -22 135
v 11 20 114
v 11 24 114
v 7 43 102
v 6 43 105
v 3 43 107
v 1 64 91
v -2 64 91
v 23 -64 135
v 23 -26 134
v 13 -24 132
v 23 -22 134
v 23 20 113
v 23 22 110
v 13 22 111
v 23 24 113
v 21 43 101
v 19 64 84
v 5 64 86
v 4 64 89
v 42 -64 127
v 42 -24 125
v 23 -24 132
v 42 22 104
v 39 43 92
v 38 64 76
v 64 43 61
v 62 43 60
v 62 22 76
v 64 22 77
v 62 -24 97
v 64 -24 98
v 62 -64 97
v 64 -64 98
v 55 -64 115
v 55 -24 115
v 55 22 94
v 52 43 80
v 52 64 65
v 60 -64 108
v 60 -26 108
v 58 -24 107
v 60 -22 108
v 60 20 87
v 58 22 86
v 60 24 87
v 60 43 69
v 60 64 53
v 62 -64 99
v 62 -26 99
v 62 -22 99
v 62 20 78
v 62 24 78
v 62 43 62
v 62 64 46
v -46 64 134
v 64 64 45
v 62 64 44

f 1 2 3
f 1 3 4
f 1 4 5
f 1 5 6
f 1 6 7
f 1 7 8
f 1 8 9
f 1 9 2
f 2 9 10
f 10 9 11
f 10 11 12
f 12 11 13
f 12 13 14
f 14 13 15
f 15 13 16
f 15 16 17
f 17 16 18
f 18 16 19
f 18 19 20
f 18 20 21
f 4 3 22
f 4 22 23
f 4 23 24
f 4 24 5
f 5 24 6
f 6 24 25
f 6 25 26
f 6 26 7
f 7 26 27
f 7 27 28
f 7 28 8
f 8 28 29
f 8 29 30
f 8 30 31
f 8 31 32
f 8 32 9
f 9 32 33
f 9 33 34
f 9 34 35
f 9 35 11
f 11 35 34
f 11 34 13
f 13 34 33
f 13 33 36
f 13 36 16
f 16 36 19
f 19 36 37
f 19 37 20
f 23 22 38
f 23 38 39
f 23 39 40
f 23 40 24
f 24 40 25
f 25 40 41
f 25 41 42
f 25 42 26
f 26 42 43
f 26 43 27
f 27 43 44
f 27 44 29
f 27 29 28
f 39 38 45
f 39 45 46
f 39 46 41
f 39 41 40
f 46 45 47
f 46 47 48
f 46 48 49
f 46 49 50
f 46 50 41
f 41 50 42
f 42 50 51
f 42 51 43
f 43 51 44
f 44 51 52
f 44 52 53
f 44 53 29
f 29 53 30
f 30 53 54
f 30 54 55
f 30 55 31
f 31 55 56
f 31 56 57
f 31 57 32
f 32 57 33
f 33 57 58
f 33 58 59
f 33 59 36
f 36 59 60
f 36 60 37
f 48 47 61
f 48 61 62
f 48 62 63
f 48 63 64
f 48 64 49
f 49 64 65
f 49 65 66
f 49 66 67
f 49 67 50
f 50 67 68
f 50 68 51
f 51 68 52
f 52 68 69
f 52 69 70
f 52 70 53
f 53 70 54
f 62 61 71
f 62 71 72
f 62 72 73
f 62 73 63
f 63 73 74
f 63 74 75
f 63 75 64
f 64 75 76
f 64 76 77
f 64 77 65
f 65 77 76
f 65 76 78
f 65 78 79
f 65 79 66
f 66 79 80
f 66 80 81
f 66 81 67
f 67 81 82
f 67 82 68
f 68 82 69
f 72 71 83
f 72 83 84
f 72 84 85
f 72 85 73
f 73 85 74
f 74 85 84
f 74 84 86
f 74 86 75
f 75 86 76
f 76 86 78
f 78 86 87
f 78 87 79
f 79 87 88
f 79 88 80
f 89 90 91
f 89 91 92
f 92 91 93
f 92 93 94
f 94 93 95
f 94 95 96
f 84 83 97
f 84 97 98
f 84 98 99
f 84 99 86
f 86 99 100
f 86 100 87
f 87 100 101
f 87 101 88
f 98 97 102
f 98 102 103
f 98 103 104
f 98 104 105
f 98 105 106
f 98 106 99
f 99 106 107
f 99 107 108
f 99 108 109
f 99 109 100
f 100 109 110
f 100 110 101
f 103 102 111
f 103 111 112
f 103 112 104
f 104 112 93
f 104 93 113
f 104 113 105
f 105 113 114
f 105 114 106
f 106 114 91
f 106 91 107
f 107 91 108
f 108 91 115
f 108 115 116
f 108 116 109
f 109 116 117
f 109 117 110
f 90 116 115
f 90 115 91
f 91 114 113
f 91 113 93
f 95 93 112
f 95 112 111
f 57 56 118
f 57 118 59
f 57 59 58
f 90 89 119
f 90 119 120
f 90 120 116
f 116 120 117
f 118 60 59
