# RS2 Model 25300
# Vertices: 188
# Faces: 257

v -6 -14 36
v -8 -14 36
v -8 -14 18
v -6 -14 18
v -9 -15 56
v -6 -15 56
v -5 -18 65
v -11 -15 65
v -9 -23 67
v -12 -23 67
v -10 -31 72
v -5 -12 65
v -11 -15 80
v -5 -12 80
v -5 -18 80
v -8 -15 89
v -8 -13 0
v -5 -13 0
v -12 -22 67
v -9 -22 67
v -6 -5 68
v -9 -6 68
v -7 7 71
v 42 49 18
v 43 50 18
v 43 50 36
v 42 49 36
v 43 49 0
v 41 48 0
v 44 50 45
v 42 49 45
v 41 52 54
v 47 49 54
v 43 40 60
v 40 40 60
v 41 32 63
v 41 46 54
v 41 46 69
v 41 52 69
v 47 49 69
v 44 49 78
v -51 45 18
v -53 45 18
v -53 45 36
v -51 45 36
v -53 46 0
v -50 46 0
v -54 45 45
v -51 45 45
v -49 54 60
v -52 54 60
v -50 65 65
v -50 48 54
v -50 42 54
v -52 55 60
v -49 55 60
v -50 66 65
v -56 45 54
v -56 45 69
v -50 42 69
v -53 45 78
v 52 -43 42
v 54 -44 42
v 53 -48 51
v 50 -42 51
v 57 -43 51
v 53 -43 33
v 59 -37 57
v 61 -38 57
v 69 -32 63
v 50 -42 66
v 57 -43 66
v 53 -48 66
v 53 -43 75
v 55 -44 18
v 53 -43 18
v 53 -43 0
v 56 -43 0
v 55 -44 33
v 45 -47 53
v 48 -49 53
v 48 -50 53
v 45 -48 53
v 40 -57 58
v 50 1 63
v 49 -1 63
v 50 -3 75
v 47 3 75
v 53 3 75
v 49 -2 38
v 50 0 38
v 57 -4 74
v 57 -1 74
v 67 -2 80
v 50 -2 87
v 48 2 87
v 52 2 87
v 50 0 91
v -4 55 36
v -4 53 36
v -4 53 18
v -4 55 18
v -4 52 45
v -4 55 45
v -1 56 54
v -4 50 54
v 4 52 56
v 4 49 56
v 13 50 58
v -7 56 54
v -4 50 69
v -7 56 69
v -1 56 69
v -4 53 78
v -5 53 0
v -5 56 0
v 3 49 56
v 3 52 56
v -14 51 56
v -13 48 56
v -22 46 59
v 14 19 85
v 19 17 94
v 13 17 94
v 16 23 94
v 17 18 85
v 15 20 54
v 12 21 54
v 21 30 96
v 24 27 96
v 31 38 97
v 16 23 109
v 19 17 109
v 13 17 109
v 16 20 118
v 7 24 96
v 7 21 96
v -4 22 100
v 49 0 18
v 50 1 18
v 48 0 0
v 49 2 0
v 58 -4 74
v 40 1 78
v 40 4 78
v 30 2 81
v 58 -1 74
v 68 -2 80
v 41 4 78
v 41 1 78
v 31 2 81
v 59 -36 57
v 61 -37 57
v 69 -31 63
v 40 -56 58
v 48 54 60
v 50 52 60
v 53 58 63
v 53 59 63
v 50 53 60
v 48 55 60
v 43 39 60
v 40 39 60
v 41 31 63
v 14 19 18
v 17 18 18
v 18 17 0
v 15 18 0
v 24 26 96
v 21 29 96
v 31 37 97
v 6 21 96
v 6 24 96
v -5 22 100
v -10 -30 72
v -9 -5 68
v -6 -4 68
v -7 8 71
v -54 37 59
v -51 38 59
v -51 37 59
v -54 36 59
v -52 27 62
v -52 28 62
v 12 50 58
v -14 48 56
v -15 51 56
v -23 46 59

f 1 2 3
f 1 3 4
f 1 4 2
f 1 2 5
f 1 5 6
f 1 6 2
f 2 6 5
f 5 6 7
f 5 7 8
f 5 8 6
f 5 6 9
f 5 9 10
f 10 9 11
f 12 8 13
f 12 13 14
f 12 14 7
f 12 7 6
f 12 6 8
f 7 14 15
f 7 15 8
f 8 15 13
f 13 15 16
f 13 16 14
f 14 16 15
f 17 18 4
f 17 4 3
f 17 3 18
f 18 3 4
f 4 3 2
f 19 20 6
f 19 6 5
f 5 6 21
f 5 21 22
f 22 21 23
f 24 25 26
f 24 26 27
f 24 27 25
f 24 25 28
f 24 28 29
f 24 29 25
f 25 29 28
f 30 31 27
f 30 27 26
f 30 26 31
f 30 31 32
f 30 32 33
f 30 33 31
f 30 31 34
f 34 31 35
f 34 35 36
f 31 33 37
f 31 37 32
f 32 37 38
f 32 38 39
f 32 39 33
f 33 39 40
f 33 40 37
f 37 40 38
f 38 40 41
f 38 41 39
f 39 41 40
f 42 43 44
f 42 44 45
f 42 45 43
f 42 43 46
f 42 46 47
f 42 47 43
f 43 47 46
f 48 49 45
f 48 45 44
f 48 44 49
f 48 49 50
f 48 50 51
f 51 50 52
f 49 53 54
f 49 54 48
f 49 48 55
f 49 55 56
f 56 55 57
f 53 58 59
f 59 58 60
f 59 60 61
f 58 54 60
f 54 58 48
f 48 58 53
f 62 63 64
f 62 64 65
f 62 65 66
f 62 66 63
f 62 63 67
f 62 67 63
f 62 63 68
f 68 63 69
f 68 69 70
f 66 65 71
f 66 71 72
f 66 72 64
f 66 64 63
f 64 72 73
f 64 73 65
f 65 73 71
f 71 73 74
f 71 74 72
f 72 74 73
f 75 76 77
f 75 77 78
f 75 78 77
f 75 77 76
f 75 76 79
f 75 79 76
f 76 79 67
f 76 67 79
f 79 67 63
f 79 63 67
f 80 81 63
f 80 63 62
f 62 63 82
f 62 82 83
f 83 82 84
f 85 86 87
f 85 87 88
f 85 88 89
f 85 89 87
f 85 87 86
f 85 86 90
f 85 90 91
f 85 91 86
f 85 86 92
f 85 92 93
f 93 92 94
f 88 87 95
f 88 95 96
f 88 96 89
f 89 96 97
f 89 97 87
f 87 97 95
f 95 97 98
f 95 98 96
f 96 98 97
f 99 100 101
f 99 101 102
f 99 102 100
f 99 100 103
f 99 103 104
f 99 104 100
f 100 104 103
f 103 104 105
f 103 105 106
f 103 106 104
f 103 104 107
f 103 107 108
f 108 107 109
f 110 106 111
f 110 111 112
f 110 112 105
f 110 105 104
f 110 104 106
f 105 112 113
f 105 113 106
f 106 113 111
f 111 113 114
f 111 114 112
f 112 114 113
f 115 116 102
f 115 102 101
f 115 101 116
f 116 101 102
f 102 101 100
f 117 118 104
f 117 104 103
f 103 104 119
f 103 119 120
f 120 119 121
f 122 123 124
f 122 124 125
f 122 125 123
f 122 123 126
f 122 126 127
f 122 127 128
f 122 128 127
f 122 127 126
f 122 126 123
f 126 122 129
f 126 129 130
f 130 129 131
f 123 125 132
f 123 132 133
f 123 133 124
f 124 133 134
f 124 134 125
f 125 134 132
f 132 134 135
f 132 135 133
f 133 135 134
f 136 137 122
f 137 136 138
f 91 90 139
f 91 139 140
f 91 140 90
f 91 90 86
f 140 139 141
f 140 141 142
f 140 142 139
f 140 139 90
f 139 142 141
f 85 143 86
f 85 86 144
f 85 144 145
f 145 144 146
f 147 143 85
f 143 147 148
f 86 85 149
f 86 149 150
f 150 149 151
f 62 152 63
f 63 152 153
f 153 152 154
f 81 80 155
f 27 26 25
f 26 27 31
f 156 157 158
f 157 156 30
f 159 160 161
f 161 160 30
f 30 162 163
f 30 163 31
f 164 163 162
f 165 166 167
f 165 167 168
f 165 168 167
f 165 167 166
f 165 166 128
f 165 128 166
f 166 128 127
f 166 127 128
f 122 126 169
f 122 169 170
f 170 169 171
f 122 172 173
f 173 172 174
f 20 19 175
f 176 177 6
f 176 6 5
f 178 177 176
f 45 44 43
f 44 45 49
f 179 180 49
f 179 49 48
f 48 49 181
f 48 181 182
f 182 181 183
f 180 179 184
f 48 49 53
f 118 117 185
f 104 103 186
f 104 186 187
f 187 186 188
