# RS2 Model 25325
# Vertices: 75
# Faces: 130

v -64 42 233
v -64 -55 233
v -64 -64 240
v -64 48 240
v -64 48 96
v -64 42 101
v -59 42 233
v -59 42 101
v -64 30 202
v -64 -30 202
v -59 -55 233
v -64 -30 130
v -59 -55 101
v -64 -55 101
v -64 -64 96
v -64 -55 88
v -64 -55 25
v -64 -64 0
v -64 48 0
v -64 42 25
v -64 42 88
v -64 30 130
v -64 -26 68
v -64 26 68
v -64 26 42
v -64 -26 42
v -59 -55 25
v -59 -55 88
v -59 42 88
v -59 42 25
v -48 64 240
v -48 -64 240
v -48 -55 233
v -48 55 233
v -48 55 101
v -48 64 96
v -48 55 88
v -48 55 25
v -48 64 0
v -48 23 25
v -48 -55 25
v -48 -64 0
v -48 -55 88
v -48 -64 96
v -48 -55 101
v -48 -55 156
v -48 -55 189
v -53 -55 233
v -53 -55 189
v -53 27 185
v -53 55 233
v -53 55 101
v -53 -55 25
v -53 -55 88
v -53 23 25
v -53 5 88
v -48 5 88
v -48 38 88
v -48 34 101
v -48 0 101
v -53 55 88
v -53 55 25
v -53 38 88
v -53 -55 156
v -53 -55 101
v -53 -32 144
v -53 -11 122
v -48 -11 122
v -48 -32 144
v -48 -18 170
v -48 11 143
v -53 11 143
v -53 -18 170
v -53 34 101
v -53 0 101

f 1 2 3
f 1 3 4
f 1 4 5
f 1 5 6
f 1 6 7
f 7 6 8
f 7 8 9
f 7 9 10
f 7 10 11
f 11 10 12
f 11 12 13
f 11 13 14
f 11 14 2
f 2 14 3
f 3 14 15
f 15 14 16
f 15 16 17
f 15 17 18
f 18 17 19
f 19 17 20
f 19 20 21
f 19 21 5
f 5 21 6
f 6 21 16
f 6 16 14
f 6 14 8
f 8 14 13
f 8 13 22
f 8 22 9
f 9 22 10
f 10 22 12
f 12 22 13
f 23 24 25
f 23 25 26
f 23 26 27
f 23 27 28
f 23 28 24
f 24 28 29
f 24 29 25
f 25 29 30
f 25 30 26
f 26 30 27
f 27 30 17
f 27 17 28
f 28 17 16
f 30 20 17
f 20 30 21
f 21 30 29
f 31 32 33
f 31 33 34
f 31 34 35
f 31 35 36
f 36 35 37
f 36 37 38
f 36 38 39
f 39 38 40
f 39 40 41
f 39 41 42
f 42 41 43
f 42 43 44
f 44 43 45
f 44 45 46
f 44 46 47
f 44 47 32
f 32 47 33
f 33 47 48
f 48 47 49
f 48 49 50
f 48 50 51
f 51 50 52
f 51 52 35
f 51 35 34
f 4 3 32
f 4 32 31
f 43 41 53
f 43 53 54
f 54 53 55
f 54 55 56
f 56 55 40
f 56 40 57
f 57 40 58
f 57 58 59
f 57 59 60
f 57 60 45
f 57 45 43
f 61 62 38
f 61 38 37
f 61 37 58
f 61 58 63
f 61 63 62
f 62 63 58
f 62 58 38
f 38 58 40
f 64 46 45
f 64 45 65
f 64 65 66
f 66 65 67
f 66 67 68
f 66 68 69
f 69 68 70
f 69 70 47
f 69 47 46
f 70 68 71
f 70 71 72
f 70 72 73
f 70 73 47
f 47 73 49
f 49 73 50
f 50 73 72
f 50 72 74
f 50 74 52
f 52 74 35
f 35 74 59
f 35 59 37
f 37 59 58
f 71 68 60
f 71 60 59
f 71 59 74
f 71 74 72
f 60 68 67
f 60 67 75
f 60 75 65
f 60 65 45
f 60 45 75
f 75 45 65
f 40 55 53
f 40 53 41
f 40 41 55
f 55 41 53
f 75 67 65
