# RS2 Model 25373
# Vertices: 25
# Faces: 30

v 64 -64 310
v 64 -48 310
v 48 -48 310
v 48 -64 310
v 32 -32 310
v 32 -64 310
v 16 -16 310
v 16 -64 310
v 0 0 310
v 0 -64 310
v -16 16 310
v -16 -64 310
v -32 32 310
v -32 -64 310
v -48 48 310
v -48 -64 310
v -64 64 310
v -64 -64 310
v 64 -32 310
v 64 -16 310
v 64 0 310
v 64 16 310
v 64 32 310
v 64 48 310
v 64 64 310

f 1 2 3
f 1 3 4
f 4 3 5
f 4 5 6
f 6 5 7
f 6 7 8
f 8 7 9
f 8 9 10
f 10 9 11
f 10 11 12
f 12 11 13
f 12 13 14
f 14 13 15
f 14 15 16
f 16 15 17
f 16 17 18
f 3 2 19
f 3 19 5
f 5 19 20
f 5 20 7
f 7 20 21
f 7 21 9
f 9 21 22
f 9 22 11
f 11 22 23
f 11 23 13
f 13 23 24
f 13 24 15
f 15 24 25
f 15 25 17
