# RS2 Model 25381
# Vertices: 201
# Faces: 331

v 0 164 345
v 0 192 346
v -111 192 346
v -111 164 345
v 0 162 346
v -111 162 346
v 0 160 341
v -111 160 341
v 0 160 317
v -111 160 317
v 0 132 316
v -111 132 316
v 0 130 317
v -111 130 317
v 0 128 312
v -111 128 312
v 0 128 291
v -111 128 291
v 0 100 286
v -111 100 286
v 0 98 287
v -111 98 287
v 0 96 282
v -111 96 282
v 0 96 257
v -111 96 257
v 0 68 256
v -111 68 256
v 0 66 257
v -111 66 257
v 0 64 252
v -111 64 252
v 0 64 226
v -111 64 226
v 0 36 225
v -111 36 225
v 0 34 226
v -111 34 226
v 0 32 221
v -111 32 221
v 0 32 195
v -111 32 195
v 0 4 194
v -111 4 194
v 0 2 195
v -111 2 195
v 0 0 190
v -111 0 190
v 0 0 165
v -111 0 165
v 0 -28 164
v -111 -28 164
v 0 -30 165
v -111 -30 165
v 0 -32 160
v -111 -32 160
v 0 -32 135
v -111 -32 135
v 0 -60 134
v -111 -60 134
v 0 -62 135
v -111 -62 135
v 0 -64 130
v -111 -64 130
v 0 -64 104
v -111 -64 104
v 0 -92 103
v -111 -92 103
v 0 -94 104
v -111 -94 104
v 0 -96 99
v -111 -96 99
v 0 -96 75
v -111 -96 75
v 0 -124 74
v -111 -124 74
v 0 -126 75
v -111 -126 75
v 0 -128 70
v -111 -128 70
v 0 -128 45
v -111 -128 45
v 0 -156 44
v -111 -156 44
v 0 -158 45
v -111 -158 45
v 0 -160 40
v -111 -160 40
v 0 -160 26
v -111 -160 26
v 0 -188 25
v -111 -188 25
v 0 -190 26
v -111 -190 26
v 0 -192 21
v -111 -192 21
v 0 -192 0
v -111 -192 0
v -135 -192 21
v -135 -192 0
v -156 -192 21
v -159 -192 0
v -159 -160 26
v -153 -190 26
v -149 -184 26
v -135 -184 26
v -135 -160 26
v -157 -160 40
v -159 -128 45
v -154 -158 45
v -150 -152 45
v -135 -152 45
v -135 -128 45
v -157 -128 70
v -159 -96 75
v -155 -126 75
v -152 -120 75
v -135 -120 75
v -135 -96 75
v -157 -96 99
v -159 -64 104
v -155 -94 104
v -152 -88 104
v -135 -88 104
v -135 -64 104
v -156 -64 130
v -159 -32 135
v -153 -62 135
v -149 -56 135
v -135 -56 135
v -135 -32 135
v -157 -32 160
v -159 0 165
v -154 -30 165
v -150 -24 165
v -135 -24 165
v -135 0 165
v -157 0 190
v -159 32 195
v -155 2 195
v -152 8 195
v -135 8 195
v -135 32 195
v -157 32 221
v -159 64 226
v -155 34 226
v -152 40 226
v -135 40 226
v -135 64 226
v -156 64 252
v -159 96 257
v -153 66 257
v -149 72 257
v -135 72 257
v -135 96 257
v -157 96 282
v -159 128 291
v -154 98 287
v -150 104 287
v -135 104 287
v -135 128 291
v -157 128 312
v -159 160 317
v -155 130 317
v -152 136 317
v -135 136 317
v -135 160 317
v -157 160 341
v -159 192 346
v -155 162 346
v -152 168 346
v -135 168 346
v -135 192 346
v -135 192 376
v -159 192 376
v -135 160 341
v -135 162 346
v -111 192 376
v -135 128 312
v -135 130 317
v -135 96 282
v -135 98 287
v -135 64 252
v -135 66 257
v -135 34 226
v -135 32 221
v -135 2 195
v -135 0 190
v -135 -30 165
v -135 -32 160
v -135 -62 135
v -135 -64 130
v -135 -94 104
v -135 -96 99
v -135 -126 75
v -135 -128 70
v -135 -158 45
v -135 -160 40
v -135 -190 26
v -64 192 376
v 0 192 376

f 1 2 3
f 1 3 4
f 1 4 5
f 5 4 6
f 5 6 7
f 7 6 8
f 7 8 9
f 9 8 10
f 9 10 11
f 11 10 12
f 11 12 13
f 13 12 14
f 13 14 15
f 15 14 16
f 15 16 17
f 17 16 18
f 17 18 19
f 19 18 20
f 19 20 21
f 21 20 22
f 21 22 23
f 23 22 24
f 23 24 25
f 25 24 26
f 25 26 27
f 27 26 28
f 27 28 29
f 29 28 30
f 29 30 31
f 31 30 32
f 31 32 33
f 33 32 34
f 33 34 35
f 35 34 36
f 35 36 37
f 37 36 38
f 37 38 39
f 39 38 40
f 39 40 41
f 41 40 42
f 41 42 43
f 43 42 44
f 43 44 45
f 45 44 46
f 45 46 47
f 47 46 48
f 47 48 49
f 49 48 50
f 49 50 51
f 51 50 52
f 51 52 53
f 53 52 54
f 53 54 55
f 55 54 56
f 55 56 57
f 57 56 58
f 57 58 59
f 59 58 60
f 59 60 61
f 61 60 62
f 61 62 63
f 63 62 64
f 63 64 65
f 65 64 66
f 65 66 67
f 67 66 68
f 67 68 69
f 69 68 70
f 69 70 71
f 71 70 72
f 71 72 73
f 73 72 74
f 73 74 75
f 75 74 76
f 75 76 77
f 77 76 78
f 77 78 79
f 79 78 80
f 79 80 81
f 81 80 82
f 81 82 83
f 83 82 84
f 83 84 85
f 85 84 86
f 85 86 87
f 87 86 88
f 87 88 89
f 89 88 90
f 89 90 91
f 91 90 92
f 91 92 93
f 93 92 94
f 93 94 95
f 95 94 96
f 95 96 97
f 97 96 98
f 98 96 99
f 98 99 100
f 100 99 101
f 100 101 102
f 102 101 103
f 103 101 104
f 103 104 105
f 103 105 106
f 103 106 107
f 103 107 108
f 103 108 109
f 109 108 110
f 109 110 111
f 109 111 112
f 109 112 113
f 109 113 114
f 109 114 115
f 115 114 116
f 115 116 117
f 115 117 118
f 115 118 119
f 115 119 120
f 115 120 121
f 121 120 122
f 121 122 123
f 121 123 124
f 121 124 125
f 121 125 126
f 121 126 127
f 127 126 128
f 127 128 129
f 127 129 130
f 127 130 131
f 127 131 132
f 127 132 133
f 133 132 134
f 133 134 135
f 133 135 136
f 133 136 137
f 133 137 138
f 133 138 139
f 139 138 140
f 139 140 141
f 139 141 142
f 139 142 143
f 139 143 144
f 139 144 145
f 145 144 146
f 145 146 147
f 145 147 148
f 145 148 149
f 145 149 150
f 145 150 151
f 151 150 152
f 151 152 153
f 151 153 154
f 151 154 155
f 151 155 156
f 151 156 157
f 157 156 158
f 157 158 159
f 157 159 160
f 157 160 161
f 157 161 162
f 157 162 163
f 163 162 164
f 163 164 165
f 163 165 166
f 163 166 167
f 163 167 168
f 163 168 169
f 169 168 170
f 169 170 171
f 169 171 172
f 169 172 173
f 169 173 174
f 169 174 175
f 167 176 168
f 168 176 170
f 170 176 177
f 170 177 171
f 171 177 172
f 172 177 6
f 172 6 4
f 172 4 173
f 173 4 3
f 173 3 178
f 173 178 174
f 161 179 162
f 162 179 164
f 164 179 180
f 164 180 165
f 165 180 166
f 166 180 14
f 166 14 12
f 166 12 167
f 167 12 10
f 167 10 176
f 176 10 8
f 176 8 177
f 177 8 6
f 155 181 156
f 156 181 158
f 158 181 182
f 158 182 159
f 159 182 160
f 160 182 22
f 160 22 20
f 160 20 161
f 161 20 18
f 161 18 179
f 179 18 16
f 179 16 180
f 180 16 14
f 149 183 150
f 150 183 152
f 152 183 184
f 152 184 153
f 153 184 154
f 154 184 30
f 154 30 28
f 154 28 155
f 155 28 26
f 155 26 181
f 181 26 24
f 181 24 182
f 182 24 22
f 34 32 183
f 34 183 149
f 34 149 36
f 36 149 148
f 36 148 38
f 38 148 185
f 38 185 40
f 40 185 186
f 40 186 42
f 42 186 143
f 42 143 44
f 44 143 142
f 44 142 46
f 46 142 187
f 46 187 48
f 48 187 188
f 48 188 50
f 50 188 137
f 50 137 52
f 52 137 136
f 52 136 54
f 54 136 189
f 54 189 56
f 56 189 190
f 56 190 58
f 58 190 131
f 58 131 60
f 60 131 130
f 60 130 62
f 62 130 191
f 62 191 64
f 64 191 192
f 64 192 66
f 66 192 125
f 66 125 68
f 68 125 124
f 68 124 70
f 70 124 193
f 70 193 72
f 72 193 194
f 72 194 74
f 74 194 119
f 74 119 76
f 76 119 118
f 76 118 78
f 78 118 195
f 78 195 80
f 80 195 196
f 80 196 82
f 82 196 113
f 82 113 84
f 84 113 112
f 84 112 86
f 86 112 197
f 86 197 88
f 88 197 198
f 88 198 90
f 90 198 107
f 90 107 92
f 92 107 106
f 92 106 94
f 94 106 199
f 94 199 96
f 96 199 99
f 99 199 104
f 99 104 101
f 32 30 184
f 32 184 183
f 3 2 200
f 3 200 178
f 119 194 120
f 120 194 122
f 122 194 193
f 122 193 123
f 123 193 124
f 113 196 114
f 114 196 116
f 116 196 195
f 116 195 117
f 117 195 118
f 107 198 108
f 108 198 110
f 110 198 197
f 110 197 111
f 111 197 112
f 105 104 199
f 105 199 106
f 143 186 144
f 144 186 146
f 146 186 185
f 146 185 147
f 147 185 148
f 137 188 138
f 138 188 140
f 140 188 187
f 140 187 141
f 141 187 142
f 131 190 132
f 132 190 134
f 134 190 189
f 134 189 135
f 135 189 136
f 125 192 126
f 126 192 128
f 128 192 191
f 128 191 129
f 129 191 130
f 201 200 2
