# RS2 Model 25400
# Vertices: 117
# Faces: 209

v -100 44 94
v 10 44 94
v -100 44 0
v -32 0 6
v -32 -32 6
v -32 -32 0
v -32 0 0
v -32 44 6
v -39 32 11
v -39 0 11
v -39 -32 11
v -32 -64 6
v -32 -64 0
v -58 -32 6
v -58 0 6
v -58 0 0
v -58 -32 0
v -58 -64 6
v -51 -64 11
v -51 -32 11
v -51 0 11
v -58 44 6
v -58 44 0
v -39 -6 28
v -39 -6 64
v -51 -6 64
v -51 -6 28
v -39 -10 23
v -39 0 82
v -39 -10 69
v -51 -10 69
v -51 0 82
v -51 -10 23
v -39 -16 21
v -39 -22 23
v -39 -26 28
v -39 -32 82
v -39 -38 64
v -39 -38 28
v -39 -42 23
v -39 -48 21
v -39 -64 11
v -39 -26 64
v -51 -26 28
v -51 -26 64
v -39 -22 69
v -51 -22 69
v -39 -16 71
v -32 0 87
v -32 -32 87
v -39 -64 82
v -39 -48 71
v -39 -42 69
v -51 -42 69
v -51 -38 64
v -51 -38 28
v -51 -42 23
v -51 -48 21
v -39 -54 23
v -39 -58 28
v -39 -58 64
v -39 -54 69
v -51 -54 69
v -51 -48 71
v -51 -32 82
v -51 -54 23
v -51 -58 28
v -51 -58 64
v -51 -64 82
v -58 -64 87
v -58 -32 87
v -51 -16 71
v -51 -22 23
v -51 -16 21
v -32 0 93
v -32 -32 93
v -32 -64 87
v -58 0 87
v -58 -32 93
v -58 0 93
v -58 44 87
v -51 32 82
v -58 -64 0
v -32 -64 93
v -58 -64 93
v -32 44 0
v -51 32 11
v -39 32 82
v -39 26 64
v -39 26 28
v -39 22 23
v -39 16 21
v -39 10 23
v -39 6 28
v -39 6 64
v -39 10 69
v -39 16 71
v -32 44 87
v -32 44 93
v -51 16 21
v -51 22 23
v -51 26 28
v -51 26 64
v -51 22 69
v -51 16 71
v -51 10 69
v -51 6 64
v -51 6 28
v -51 10 23
v -39 22 69
v -58 44 93
v -53 -64 94
v -53 44 94
v -53 -64 0
v -36 44 94
v -36 -64 94
v -36 44 0

f 1 2 3
f 4 5 6
f 4 6 7
f 4 7 8
f 4 8 9
f 4 9 10
f 4 10 5
f 5 10 11
f 5 11 12
f 5 12 13
f 5 13 6
f 14 15 16
f 14 16 17
f 14 17 18
f 14 18 19
f 14 19 20
f 14 20 15
f 15 20 21
f 15 21 22
f 15 22 23
f 15 23 16
f 24 25 26
f 24 26 27
f 24 27 28
f 24 28 10
f 24 10 25
f 25 10 29
f 25 29 30
f 25 30 31
f 25 31 26
f 26 31 32
f 26 32 27
f 27 32 21
f 27 21 33
f 27 33 28
f 28 33 34
f 28 34 10
f 10 34 11
f 11 34 35
f 11 35 36
f 11 36 37
f 11 37 38
f 11 38 39
f 11 39 40
f 11 40 41
f 11 41 42
f 11 42 12
f 43 36 44
f 43 44 45
f 43 45 46
f 43 46 37
f 43 37 36
f 46 45 47
f 46 47 48
f 46 48 37
f 37 48 29
f 37 29 49
f 37 49 50
f 37 50 51
f 37 51 52
f 37 52 53
f 37 53 38
f 38 53 54
f 38 54 55
f 38 55 39
f 39 55 56
f 39 56 40
f 40 56 57
f 40 57 41
f 41 57 58
f 41 58 59
f 41 59 42
f 42 59 60
f 42 60 51
f 51 60 61
f 51 61 62
f 51 62 52
f 52 62 63
f 52 63 64
f 52 64 53
f 53 64 54
f 54 64 65
f 54 65 55
f 55 65 56
f 56 65 20
f 56 20 57
f 57 20 58
f 58 20 19
f 58 19 66
f 58 66 59
f 59 66 60
f 60 66 67
f 60 67 61
f 61 67 68
f 61 68 62
f 62 68 63
f 63 68 69
f 63 69 64
f 64 69 65
f 65 69 70
f 65 70 71
f 65 71 32
f 65 32 72
f 65 72 47
f 65 47 45
f 65 45 20
f 20 45 44
f 20 44 73
f 20 73 74
f 20 74 21
f 21 74 33
f 33 74 34
f 34 74 35
f 35 74 73
f 35 73 36
f 36 73 44
f 48 47 72
f 48 72 30
f 48 30 29
f 30 72 31
f 31 72 32
f 50 49 75
f 50 75 76
f 50 76 77
f 50 77 51
f 78 71 79
f 78 79 80
f 78 80 81
f 78 81 82
f 78 82 32
f 78 32 71
f 18 17 83
f 19 67 66
f 67 19 68
f 68 19 69
f 77 76 84
f 84 76 85
f 85 76 79
f 85 79 71
f 85 71 70
f 8 7 86
f 8 86 22
f 8 22 87
f 8 87 9
f 9 87 82
f 9 82 88
f 9 88 89
f 9 89 90
f 9 90 91
f 9 91 92
f 9 92 10
f 10 92 93
f 10 93 94
f 10 94 29
f 29 94 95
f 29 95 96
f 29 96 97
f 29 97 88
f 29 88 98
f 29 98 49
f 49 98 99
f 49 99 75
f 75 99 80
f 75 80 79
f 75 79 76
f 22 21 87
f 87 21 100
f 87 100 101
f 87 101 102
f 87 102 82
f 82 102 103
f 82 103 104
f 82 104 105
f 82 105 32
f 32 105 106
f 32 106 107
f 32 107 21
f 21 107 108
f 21 108 109
f 21 109 100
f 100 109 93
f 100 93 92
f 100 92 101
f 101 92 91
f 101 91 102
f 102 91 90
f 102 90 103
f 103 90 89
f 103 89 104
f 104 89 110
f 104 110 105
f 105 110 97
f 105 97 106
f 106 97 96
f 106 96 107
f 107 96 95
f 107 95 108
f 108 95 94
f 108 94 109
f 109 94 93
f 97 110 88
f 88 110 89
f 81 80 111
f 81 111 98
f 81 98 88
f 81 88 82
f 99 111 80
f 111 99 98
f 86 23 22
