# RS2 Model 25425
# Vertices: 27
# Faces: 35

v 0 64 0
v -64 64 0
v -64 0 0
v -25 10 0
v 43 29 0
v 43 64 0
v 64 9 0
v 64 64 0
v -64 -64 0
v -47 -64 0
v -26 -64 0
v -14 -14 0
v 43 15 0
v 64 -5 0
v 18 -64 0
v 32 -22 0
v 3 -23 0
v -7 -64 0
v -47 -64 6
v 64 9 6
v 43 -14 0
v 43 -64 0
v 64 -64 0
v 64 -34 0
v 43 1 0
v 64 -64 12
v 64 -19 0

f 1 2 3
f 1 3 4
f 1 4 5
f 1 5 6
f 6 5 7
f 6 7 8
f 4 3 9
f 4 9 10
f 4 10 11
f 4 11 12
f 4 12 5
f 5 12 13
f 5 13 14
f 5 14 7
f 15 16 17
f 15 17 18
f 18 17 12
f 18 12 11
f 19 4 10
f 4 19 5
f 5 19 20
f 5 20 7
f 21 16 15
f 21 15 22
f 21 22 23
f 21 23 24
f 21 24 25
f 21 25 16
f 16 25 17
f 17 25 13
f 17 13 12
f 26 20 19
f 25 24 27
f 25 27 13
f 13 27 14
