# RS2 Model 25431
# Vertices: 196
# Faces: 330

v -23 -54 0
v -23 -54 6
v -31 -39 6
v -31 -39 0
v -18 -30 0
v -18 -30 6
v -10 -46 6
v -10 -46 0
v -5 -54 6
v -5 -54 0
v -19 -62 0
v -19 -62 6
v -23 -54 12
v -26 -57 12
v -26 -57 6
v -34 -42 6
v -34 -42 12
v -31 -39 12
v -18 -30 12
v -27 -16 6
v -40 -26 6
v -40 -26 0
v -43 -20 6
v -43 -20 0
v -52 -6 6
v -52 -6 0
v -62 13 6
v -62 13 0
v -49 22 0
v -49 22 6
v -38 5 6
v -38 5 0
v -30 -10 6
v -30 -10 0
v -27 -16 0
v -5 -42 0
v -5 -42 6
v -14 -27 6
v -14 -27 0
v 1 -18 0
v 1 -18 6
v 8 -33 6
v 8 -33 0
v 13 -41 6
v 13 -41 0
v -1 -50 0
v -1 -50 6
v -5 -42 12
v -10 -46 12
v 12 -31 0
v 12 -31 6
v 3 -17 6
v 3 -17 0
v 16 -9 0
v 16 -9 6
v 25 -24 6
v 25 -24 0
v 31 -33 6
v 31 -33 0
v 17 -41 0
v 17 -41 6
v 12 -31 12
v 8 -33 12
v -14 -27 12
v 27 -23 0
v 27 -23 6
v 18 -7 6
v 18 -7 0
v 32 2 0
v 32 2 6
v 40 -13 6
v 40 -13 0
v 46 -25 6
v 46 -25 0
v 32 -32 0
v 32 -32 6
v 27 -23 12
v 25 -24 12
v 3 -17 12
v 1 -18 12
v 42 -12 0
v 42 -12 6
v 33 3 6
v 33 3 0
v 47 13 0
v 47 13 6
v 55 -4 6
v 55 -4 0
v 63 -16 6
v 63 -16 0
v 48 -25 0
v 48 -25 6
v 42 -12 12
v 40 -13 12
v 18 -7 12
v 16 -9 12
v -8 -6 6
v -21 -16 6
v -21 -16 0
v -27 -9 6
v -27 -9 0
v -37 5 6
v -37 5 0
v -51 25 6
v -51 25 0
v -37 34 0
v -37 34 6
v -24 16 6
v -24 16 0
v -15 2 6
v -15 2 0
v -8 -6 0
v 49 14 12
v 60 0 12
v 60 0 6
v 49 14 6
v 47 13 12
v 55 -4 12
v 33 3 12
v 32 2 12
v 8 2 6
v -7 -5 6
v -7 -5 0
v -12 3 6
v -12 3 0
v -23 17 6
v -23 17 0
v -30 28 6
v -30 28 0
v -18 36 0
v -18 36 6
v -11 26 6
v -11 26 0
v -1 12 6
v -1 12 0
v 8 2 0
v 40 24 6
v 27 15 6
v 27 15 0
v 19 28 6
v 19 28 0
v 8 43 6
v 8 43 0
v 3 51 6
v 3 51 0
v 17 60 0
v 17 60 6
v 22 52 6
v 22 52 0
v 31 39 6
v 31 39 0
v 40 24 0
v 22 13 6
v 9 4 6
v 9 4 0
v 1 15 6
v 1 15 0
v -9 29 6
v -9 29 0
v -15 35 6
v -15 35 0
v -1 45 0
v -1 45 6
v 4 38 6
v 4 38 0
v 16 25 6
v 16 25 0
v 22 13 0
v 22 52 12
v 26 56 12
v 26 56 6
v 36 42 6
v 36 42 12
v 31 39 12
v 19 28 12
v 4 38 12
v 8 43 12
v -11 26 12
v -9 29 12
v 16 25 12
v -24 16 12
v -23 17 12
v -1 12 12
v 1 15 12
v -38 5 12
v -37 5 12
v -15 2 12
v -12 3 12
v -44 -21 12
v -56 -9 12
v -56 -9 6
v -44 -21 6
v -43 -20 12
v -52 -6 12
v -30 -10 12
v -27 -9 12

f 1 2 3
f 1 3 4
f 4 3 5
f 5 3 6
f 5 6 7
f 5 7 8
f 8 7 9
f 8 9 10
f 10 9 11
f 11 9 12
f 11 12 2
f 11 2 1
f 12 9 7
f 12 7 2
f 2 7 13
f 2 13 14
f 2 14 15
f 15 14 16
f 16 14 17
f 16 17 18
f 16 18 3
f 3 18 19
f 3 19 6
f 3 6 20
f 3 20 21
f 3 21 4
f 4 21 22
f 22 21 23
f 22 23 24
f 24 23 25
f 24 25 26
f 26 25 27
f 26 27 28
f 28 27 29
f 29 27 30
f 29 30 31
f 29 31 32
f 32 31 33
f 32 33 34
f 34 33 20
f 34 20 35
f 35 20 6
f 35 6 5
f 36 37 38
f 36 38 39
f 39 38 40
f 40 38 41
f 40 41 42
f 40 42 43
f 43 42 44
f 43 44 45
f 45 44 46
f 46 44 47
f 46 47 37
f 46 37 36
f 47 44 42
f 47 42 37
f 37 42 48
f 37 48 49
f 37 49 7
f 7 49 13
f 13 49 18
f 13 18 17
f 13 17 14
f 50 51 52
f 50 52 53
f 53 52 54
f 54 52 55
f 54 55 56
f 54 56 57
f 57 56 58
f 57 58 59
f 59 58 60
f 60 58 61
f 60 61 51
f 60 51 50
f 61 58 56
f 61 56 51
f 51 56 62
f 51 62 63
f 51 63 42
f 42 63 48
f 48 63 64
f 48 64 19
f 48 19 49
f 49 19 18
f 65 66 67
f 65 67 68
f 68 67 69
f 69 67 70
f 69 70 71
f 69 71 72
f 72 71 73
f 72 73 74
f 74 73 75
f 75 73 76
f 75 76 66
f 75 66 65
f 76 73 71
f 76 71 66
f 66 71 77
f 66 77 78
f 66 78 56
f 56 78 62
f 62 78 79
f 62 79 80
f 62 80 63
f 63 80 64
f 64 80 38
f 64 38 6
f 64 6 19
f 81 82 83
f 81 83 84
f 84 83 85
f 85 83 86
f 85 86 87
f 85 87 88
f 88 87 89
f 88 89 90
f 90 89 91
f 91 89 92
f 91 92 82
f 91 82 81
f 92 89 87
f 92 87 82
f 82 87 93
f 82 93 94
f 82 94 71
f 71 94 77
f 77 94 95
f 77 95 96
f 77 96 78
f 78 96 79
f 79 96 52
f 79 52 41
f 79 41 80
f 80 41 38
f 38 41 97
f 38 97 98
f 38 98 39
f 39 98 99
f 99 98 100
f 99 100 101
f 101 100 102
f 101 102 103
f 103 102 104
f 103 104 105
f 105 104 106
f 106 104 107
f 106 107 108
f 106 108 109
f 109 108 110
f 109 110 111
f 111 110 97
f 111 97 112
f 112 97 41
f 112 41 40
f 113 114 115
f 113 115 116
f 114 113 117
f 114 117 118
f 114 118 87
f 114 87 115
f 86 116 113
f 86 113 117
f 119 93 118
f 119 118 117
f 119 117 83
f 119 83 70
f 119 70 120
f 119 120 93
f 93 120 94
f 94 120 95
f 95 120 67
f 95 67 55
f 95 55 96
f 96 55 52
f 52 55 121
f 52 121 122
f 52 122 53
f 53 122 123
f 123 122 124
f 123 124 125
f 125 124 126
f 125 126 127
f 127 126 128
f 127 128 129
f 129 128 130
f 130 128 131
f 130 131 132
f 130 132 133
f 133 132 134
f 133 134 135
f 135 134 121
f 135 121 136
f 136 121 55
f 136 55 54
f 83 117 86
f 83 86 137
f 83 137 138
f 83 138 84
f 84 138 139
f 139 138 140
f 139 140 141
f 141 140 142
f 141 142 143
f 143 142 144
f 143 144 145
f 145 144 146
f 146 144 147
f 146 147 148
f 146 148 149
f 149 148 150
f 149 150 151
f 151 150 137
f 151 137 152
f 152 137 86
f 152 86 85
f 93 87 118
f 67 120 70
f 67 70 153
f 67 153 154
f 67 154 68
f 68 154 155
f 155 154 156
f 155 156 157
f 157 156 158
f 157 158 159
f 159 158 160
f 159 160 161
f 161 160 162
f 162 160 163
f 162 163 164
f 162 164 165
f 165 164 166
f 165 166 167
f 167 166 153
f 167 153 168
f 168 153 70
f 168 70 69
f 147 144 142
f 147 142 148
f 148 142 169
f 148 169 170
f 148 170 171
f 171 170 172
f 172 170 173
f 172 173 174
f 172 174 150
f 150 174 175
f 150 175 140
f 150 140 138
f 150 138 137
f 163 160 158
f 163 158 164
f 164 158 176
f 164 176 177
f 164 177 142
f 142 177 169
f 169 177 174
f 169 174 173
f 169 173 170
f 131 128 126
f 131 126 132
f 132 126 178
f 132 178 179
f 132 179 158
f 158 179 176
f 176 179 180
f 176 180 175
f 176 175 177
f 177 175 174
f 107 104 102
f 107 102 108
f 108 102 181
f 108 181 182
f 108 182 126
f 126 182 178
f 178 182 183
f 178 183 184
f 178 184 179
f 179 184 180
f 180 184 166
f 180 166 140
f 180 140 175
f 30 27 25
f 30 25 31
f 31 25 185
f 31 185 186
f 31 186 102
f 102 186 181
f 181 186 187
f 181 187 188
f 181 188 182
f 182 188 183
f 183 188 134
f 183 134 156
f 183 156 184
f 184 156 166
f 166 156 154
f 166 154 153
f 189 190 191
f 189 191 192
f 189 192 193
f 189 193 190
f 190 193 194
f 190 194 25
f 190 25 191
f 193 192 23
f 193 23 33
f 193 33 195
f 193 195 194
f 194 195 185
f 194 185 25
f 196 186 185
f 196 185 195
f 196 195 100
f 196 100 110
f 196 110 187
f 196 187 186
f 100 195 33
f 124 188 187
f 124 187 110
f 134 188 124
f 134 124 122
f 134 122 121
f 98 97 110
f 98 110 100
f 21 20 33
f 21 33 23
