# RS2 Model 25524
# Vertices: 320
# Faces: 484

v 51 51 100
v -51 51 100
v -51 -51 100
v 51 -51 100
v 64 -64 97
v 64 64 97
v -64 64 97
v -51 -51 190
v -51 51 190
v -47 51 100
v -47 51 190
v -47 -51 100
v -47 -51 190
v 51 51 190
v 51 -51 190
v -51 -51 194
v -51 51 194
v 51 51 194
v 47 51 190
v 47 -51 190
v 47 -51 100
v 62 -62 92
v 62 62 92
v -62 62 92
v -64 -64 97
v -62 -62 92
v -62 -62 89
v 62 -62 89
v 62 62 89
v -62 62 89
v 64 64 8
v -64 64 8
v -64 -64 8
v 64 -64 8
v 64 -64 0
v 64 64 0
v -64 64 0
v -64 -64 0
v -55 -47 89
v -55 47 89
v -55 47 79
v -55 -47 79
v -57 -47 79
v -57 -47 89
v -57 -57 79
v -57 -57 89
v -47 -57 79
v -47 -57 89
v -47 -55 79
v -47 -55 89
v 47 -55 89
v -50 -55 64
v 47 -55 79
v 47 -57 79
v 47 -57 89
v 57 -57 79
v 57 -57 89
v 57 -47 79
v 57 -47 89
v 55 -47 79
v 55 -47 89
v 55 47 89
v 55 47 79
v 57 47 79
v 57 47 89
v 57 57 79
v 57 57 89
v 47 57 79
v 47 57 89
v 47 55 79
v 47 55 89
v -47 55 89
v 50 55 64
v -47 55 79
v -47 57 79
v -47 57 89
v -57 57 79
v -57 57 89
v -57 47 79
v -57 47 89
v -54 16 39
v -54 0 23
v -54 0 54
v -54 0 60
v -54 22 39
v -54 0 18
v -54 -16 39
v -54 -22 39
v -55 -24 39
v -55 0 62
v -55 24 39
v -55 0 15
v -55 50 64
v -55 55 67
v -51 51 64
v -51 51 15
v -55 50 15
v -55 55 79
v -50 55 64
v -50 55 15
v -55 55 12
v -55 55 8
v -55 -55 79
v -55 -50 64
v -55 -55 67
v -55 -50 15
v -51 -51 64
v -51 -51 15
v -50 -55 15
v 50 -55 64
v 55 -55 79
v 55 -55 67
v 55 -50 64
v 55 0 62
v 55 55 79
v 55 50 64
v 55 55 67
v -55 -55 12
v -55 -55 8
v 55 -55 8
v 50 -55 15
v 51 -51 64
v 51 -51 15
v 55 -50 15
v 55 -24 39
v 54 -22 39
v 54 0 60
v 55 24 39
v 55 50 15
v 51 51 64
v 51 51 15
v 50 55 15
v 55 -55 12
v 55 0 15
v 54 0 18
v 54 0 23
v 54 -16 39
v 54 0 54
v 54 22 39
v 55 55 8
v 55 55 12
v 54 16 39
v 51 -51 194
v 47 51 100
v 47 -47 190
v -47 47 190
v 47 47 190
v 47 47 100
v -47 -47 190
v 47 -47 100
v -47 -47 100
v -47 47 100
v -38 39 101
v -33 24 104
v -30 27 102
v -30 27 100
v -31 22 102
v -31 22 100
v -28 15 102
v -28 15 100
v -30 14 100
v -30 14 102
v -33 21 102
v -33 21 100
v -38 25 102
v -38 25 100
v -12 43 101
v -12 27 104
v -8 29 102
v -8 29 100
v -11 24 102
v -11 24 100
v -11 19 102
v -11 19 100
v -13 19 100
v -13 19 102
v -13 24 102
v -13 24 100
v -16 29 102
v -16 29 100
v 29 36 101
v 16 25 104
v 20 24 102
v 20 24 100
v 15 23 102
v 15 23 100
v 10 18 102
v 10 18 100
v 8 20 100
v 8 20 102
v 13 24 102
v 13 24 100
v 15 30 102
v 15 30 100
v 41 43 101
v 32 29 104
v 37 29 102
v 37 29 100
v 32 26 102
v 32 26 100
v 29 20 102
v 29 20 100
v 27 22 100
v 27 22 102
v 30 27 102
v 30 27 100
v 30 33 102
v 30 33 100
v 35 -45 101
v 30 -30 104
v 27 -33 102
v 27 -33 100
v 28 -28 102
v 28 -28 100
v 25 -21 102
v 25 -21 100
v 27 -20 100
v 27 -20 102
v 30 -27 102
v 30 -27 100
v 35 -31 102
v 35 -31 100
v 9 -44 101
v 9 -28 104
v 5 -30 102
v 5 -30 100
v 8 -25 102
v 8 -25 100
v 8 -20 102
v 8 -20 100
v 10 -20 100
v 10 -20 102
v 10 -25 102
v 10 -25 100
v 13 -30 102
v 13 -30 100
v -25 -21 101
v -14 -34 104
v -13 -30 102
v -13 -30 100
v -12 -35 102
v -12 -35 100
v -7 -40 102
v -7 -40 100
v -9 -42 100
v -9 -42 102
v -13 -37 102
v -13 -37 100
v -19 -35 102
v -19 -35 100
v -44 -44 101
v -35 -30 104
v -40 -30 102
v -40 -30 100
v -35 -27 102
v -35 -27 100
v -32 -21 102
v -32 -21 100
v -30 -23 100
v -30 -23 102
v -33 -28 102
v -33 -28 100
v -33 -34 102
v -33 -34 100
v 12 -5 101
v 27 0 104
v 24 3 102
v 24 3 100
v 29 2 102
v 29 2 100
v 36 5 102
v 36 5 100
v 37 3 100
v 37 3 102
v 30 0 102
v 30 0 100
v 26 -5 102
v 26 -5 100
v -11 -14 101
v 5 -14 104
v 3 -10 102
v 3 -10 100
v 8 -13 102
v 8 -13 100
v 13 -13 102
v 13 -13 100
v 13 -15 100
v 13 -15 102
v 8 -15 102
v 8 -15 100
v 3 -18 102
v 3 -18 100
v -3 -6 101
v -14 7 104
v -15 3 102
v -15 3 100
v -16 8 102
v -16 8 100
v -21 13 102
v -21 13 100
v -19 15 100
v -19 15 102
v -15 10 102
v -15 10 100
v -9 8 102
v -9 8 100
v -45 -19 101
v -36 -5 104
v -41 -5 102
v -41 -5 100
v -36 -2 102
v -36 -2 100
v -33 4 102
v -33 4 100
v -31 2 100
v -31 2 102
v -34 -3 102
v -34 -3 100
v -34 -9 102
v -34 -9 100

f 1 2 3
f 1 3 4
f 1 4 5
f 1 5 6
f 1 6 2
f 2 6 7
f 2 7 3
f 2 3 8
f 2 8 9
f 2 9 10
f 10 9 11
f 10 11 12
f 12 11 13
f 12 13 3
f 3 13 8
f 8 13 9
f 8 9 14
f 8 14 15
f 8 15 16
f 8 16 9
f 9 16 17
f 9 17 18
f 9 18 14
f 14 18 15
f 14 15 4
f 14 4 1
f 14 1 19
f 14 19 15
f 15 19 20
f 15 20 21
f 15 21 4
f 6 5 22
f 6 22 23
f 6 23 7
f 7 23 24
f 7 24 25
f 7 25 3
f 3 25 4
f 4 25 5
f 5 25 26
f 5 26 22
f 22 26 27
f 22 27 28
f 22 28 23
f 23 28 29
f 23 29 24
f 24 29 30
f 24 30 26
f 24 26 25
f 31 32 33
f 31 33 34
f 31 34 35
f 31 35 36
f 31 36 32
f 32 36 37
f 32 37 33
f 33 37 38
f 33 38 34
f 34 38 35
f 26 30 27
f 39 40 41
f 39 41 42
f 39 42 43
f 39 43 44
f 44 43 45
f 44 45 46
f 46 45 47
f 46 47 48
f 48 47 49
f 48 49 50
f 50 49 51
f 51 49 52
f 51 52 53
f 51 53 54
f 51 54 55
f 55 54 56
f 55 56 57
f 57 56 58
f 57 58 59
f 59 58 60
f 59 60 61
f 61 60 62
f 62 60 63
f 62 63 64
f 62 64 65
f 65 64 66
f 65 66 67
f 67 66 68
f 67 68 69
f 69 68 70
f 69 70 71
f 71 70 72
f 72 70 73
f 72 73 74
f 72 74 75
f 72 75 76
f 76 75 77
f 76 77 78
f 78 77 79
f 78 79 80
f 80 79 41
f 80 41 40
f 81 82 83
f 81 83 84
f 81 84 85
f 81 85 82
f 82 85 86
f 82 86 87
f 82 87 83
f 83 87 88
f 83 88 84
f 84 88 89
f 84 89 90
f 84 90 85
f 85 90 91
f 85 91 86
f 86 91 92
f 86 92 88
f 86 88 87
f 93 94 95
f 93 95 96
f 93 96 97
f 93 97 91
f 93 91 90
f 93 90 98
f 93 98 94
f 94 98 99
f 94 99 95
f 95 99 100
f 95 100 96
f 96 100 101
f 96 101 97
f 97 101 102
f 97 102 92
f 97 92 91
f 41 90 42
f 42 90 103
f 103 90 104
f 103 104 105
f 103 105 52
f 103 52 49
f 41 98 90
f 88 92 89
f 89 92 106
f 89 106 104
f 89 104 90
f 104 107 105
f 105 107 52
f 52 107 108
f 52 108 109
f 52 109 110
f 52 110 53
f 53 110 111
f 111 110 112
f 111 112 113
f 111 113 114
f 111 114 60
f 60 114 63
f 63 114 115
f 115 114 116
f 115 116 117
f 115 117 73
f 115 73 70
f 108 106 118
f 108 118 109
f 109 118 119
f 109 119 120
f 109 120 121
f 109 121 110
f 110 121 122
f 110 122 112
f 112 122 113
f 113 122 123
f 113 123 124
f 113 124 125
f 113 125 114
f 114 125 126
f 114 126 127
f 114 127 128
f 114 128 116
f 116 128 129
f 116 129 130
f 116 130 117
f 117 130 73
f 73 130 131
f 73 131 132
f 73 132 99
f 73 99 74
f 74 99 98
f 106 108 107
f 106 107 104
f 118 106 119
f 119 106 92
f 119 92 102
f 123 121 133
f 123 133 124
f 124 133 120
f 124 120 134
f 124 134 125
f 125 134 135
f 125 135 126
f 126 135 136
f 126 136 137
f 126 137 127
f 127 137 138
f 127 138 139
f 127 139 128
f 128 139 134
f 128 134 129
f 129 134 140
f 129 140 141
f 129 141 131
f 129 131 130
f 121 123 122
f 133 121 120
f 137 136 138
f 138 136 142
f 138 142 139
f 139 142 135
f 139 135 134
f 142 136 135
f 120 140 134
f 101 100 102
f 102 100 132
f 102 132 140
f 140 132 141
f 141 132 131
f 132 100 99
f 143 18 17
f 143 17 16
f 143 16 15
f 143 15 18
f 20 19 144
f 20 144 21
f 20 21 145
f 20 145 13
f 20 13 12
f 20 12 21
f 19 1 144
f 19 144 11
f 19 11 146
f 19 146 147
f 19 147 148
f 19 148 144
f 13 11 9
f 149 145 150
f 149 150 151
f 149 151 13
f 149 13 145
f 145 21 150
f 13 151 12
f 11 144 10
f 11 10 146
f 146 10 152
f 146 152 147
f 147 152 148
f 153 154 155
f 153 155 156
f 156 155 157
f 156 157 158
f 158 157 159
f 158 159 160
f 160 159 161
f 161 159 162
f 161 162 163
f 161 163 164
f 164 163 165
f 164 165 166
f 166 165 153
f 153 165 154
f 154 165 163
f 154 163 157
f 154 157 155
f 162 159 157
f 162 157 163
f 167 168 169
f 167 169 170
f 170 169 171
f 170 171 172
f 172 171 173
f 172 173 174
f 174 173 175
f 175 173 176
f 175 176 177
f 175 177 178
f 178 177 179
f 178 179 180
f 180 179 167
f 167 179 168
f 168 179 177
f 168 177 171
f 168 171 169
f 176 173 171
f 176 171 177
f 181 182 183
f 181 183 184
f 184 183 185
f 184 185 186
f 186 185 187
f 186 187 188
f 188 187 189
f 189 187 190
f 189 190 191
f 189 191 192
f 192 191 193
f 192 193 194
f 194 193 181
f 181 193 182
f 182 193 191
f 182 191 185
f 182 185 183
f 190 187 185
f 190 185 191
f 195 196 197
f 195 197 198
f 198 197 199
f 198 199 200
f 200 199 201
f 200 201 202
f 202 201 203
f 203 201 204
f 203 204 205
f 203 205 206
f 206 205 207
f 206 207 208
f 208 207 195
f 195 207 196
f 196 207 205
f 196 205 199
f 196 199 197
f 204 201 199
f 204 199 205
f 209 210 211
f 209 211 212
f 212 211 213
f 212 213 214
f 214 213 215
f 214 215 216
f 216 215 217
f 217 215 218
f 217 218 219
f 217 219 220
f 220 219 221
f 220 221 222
f 222 221 209
f 209 221 210
f 210 221 219
f 210 219 213
f 210 213 211
f 218 215 213
f 218 213 219
f 223 224 225
f 223 225 226
f 226 225 227
f 226 227 228
f 228 227 229
f 228 229 230
f 230 229 231
f 231 229 232
f 231 232 233
f 231 233 234
f 234 233 235
f 234 235 236
f 236 235 223
f 223 235 224
f 224 235 233
f 224 233 227
f 224 227 225
f 232 229 227
f 232 227 233
f 237 238 239
f 237 239 240
f 240 239 241
f 240 241 242
f 242 241 243
f 242 243 244
f 244 243 245
f 245 243 246
f 245 246 247
f 245 247 248
f 248 247 249
f 248 249 250
f 250 249 237
f 237 249 238
f 238 249 247
f 238 247 241
f 238 241 239
f 246 243 241
f 246 241 247
f 251 252 253
f 251 253 254
f 254 253 255
f 254 255 256
f 256 255 257
f 256 257 258
f 258 257 259
f 259 257 260
f 259 260 261
f 259 261 262
f 262 261 263
f 262 263 264
f 264 263 251
f 251 263 252
f 252 263 261
f 252 261 255
f 252 255 253
f 260 257 255
f 260 255 261
f 265 266 267
f 265 267 268
f 268 267 269
f 268 269 270
f 270 269 271
f 270 271 272
f 272 271 273
f 273 271 274
f 273 274 275
f 273 275 276
f 276 275 277
f 276 277 278
f 278 277 265
f 265 277 266
f 266 277 275
f 266 275 269
f 266 269 267
f 274 271 269
f 274 269 275
f 279 280 281
f 279 281 282
f 282 281 283
f 282 283 284
f 284 283 285
f 284 285 286
f 286 285 287
f 287 285 288
f 287 288 289
f 287 289 290
f 290 289 291
f 290 291 292
f 292 291 279
f 279 291 280
f 280 291 289
f 280 289 283
f 280 283 281
f 288 285 283
f 288 283 289
f 293 294 295
f 293 295 296
f 296 295 297
f 296 297 298
f 298 297 299
f 298 299 300
f 300 299 301
f 301 299 302
f 301 302 303
f 301 303 304
f 304 303 305
f 304 305 306
f 306 305 293
f 293 305 294
f 294 305 303
f 294 303 297
f 294 297 295
f 302 299 297
f 302 297 303
f 307 308 309
f 307 309 310
f 310 309 311
f 310 311 312
f 312 311 313
f 312 313 314
f 314 313 315
f 315 313 316
f 315 316 317
f 315 317 318
f 318 317 319
f 318 319 320
f 320 319 307
f 307 319 308
f 308 319 317
f 308 317 311
f 308 311 309
f 316 313 311
f 316 311 317
