# RS2 Model 25561
# Vertices: 830
# Faces: 1338

v -63 -110 117
v -63 -108 131
v -68 -108 129
v -68 -110 117
v -63 -93 117
v -57 -93 117
v -57 -110 117
v -57 -108 129
v -63 -95 131
v -68 -95 129
v -74 -97 131
v -74 -106 131
v -74 -108 117
v -68 -93 117
v -57 -95 129
v -55 -97 126
v -55 -97 124
v -54 -97 124
v -51 -99 120
v -51 -105 120
v -54 -107 124
v -55 -107 124
v -55 -107 126
v -54 -107 126
v -51 -105 126
v -51 -103 126
v -74 -95 117
v -80 -97 117
v -80 -99 129
v -80 -104 129
v -80 -106 117
v -88 -101 124
v -46 -100 125
v -46 -100 121
v -49 -99 122
v -49 -99 126
v -49 -101 126
v -46 -104 125
v -46 -104 121
v -49 -105 120
v -49 -99 120
v -44 -92 125
v -44 -93 127
v -51 -99 122
v -51 -99 126
v -47 -99 137
v -45 -99 136
v -45 -101 136
v -51 -101 126
v -49 -103 126
v -49 -105 126
v -49 -105 122
v -44 -110 127
v -44 -111 125
v -46 -91 125
v -43 -86 122
v -42 -87 122
v -42 -88 124
v -46 -92 127
v -54 -97 126
v -47 -101 137
v -47 -101 139
v -47 -98 139
v -43 -98 138
v -43 -101 138
v -56 -103 136
v -54 -103 137
v -54 -105 137
v -51 -105 122
v -46 -111 127
v -43 -116 125
v -42 -115 124
v -42 -116 122
v -46 -112 125
v -53 -114 130
v -53 -114 128
v -56 -113 128
v -56 -113 130
v -55 -118 127
v -54 -118 127
v -54 -119 125
v -55 -119 125
v -56 -123 131
v -56 -122 133
v -54 -122 133
v -54 -123 131
v -54 -128 131
v -53 -89 130
v -56 -90 130
v -56 -90 128
v -53 -89 128
v -54 -84 125
v -54 -85 127
v -55 -85 127
v -55 -84 125
v -56 -80 131
v -54 -80 131
v -54 -81 133
v -56 -81 133
v -54 -75 131
v -46 -103 125
v -46 -103 123
v -46 -102 123
v -46 -102 125
v -37 -122 129
v -39 -118 128
v -39 -117 130
v -41 -118 131
v -41 -119 129
v -43 -117 123
v -43 -87 124
v -41 -85 130
v -41 -84 128
v -39 -85 128
v -39 -86 130
v -37 -81 128
v -45 -101 141
v -44 -101 140
v -44 -99 140
v -45 -99 141
v -57 -105 140
v -56 -105 141
v -56 -103 141
v -57 -103 140
v -58 -102 138
v -58 -106 138
v -54 -106 139
v -54 -102 139
v -56 -105 136
v 94 107 117
v 94 105 131
v 100 104 129
v 100 106 117
v 91 90 117
v 85 91 117
v 88 108 117
v 88 106 129
v 91 92 131
v 97 91 129
v 104 92 131
v 105 101 131
v 106 103 117
v 97 89 117
v 85 93 129
v 84 95 126
v 84 95 124
v 83 95 124
v 80 98 120
v 81 105 120
v 85 106 124
v 86 106 124
v 86 106 126
v 85 106 126
v 81 105 126
v 81 103 126
v 103 90 117
v 109 91 117
v 110 92 129
v 111 98 129
v 111 100 117
v 118 94 124
v 75 99 125
v 75 99 121
v 78 98 122
v 78 98 126
v 79 100 126
v 76 104 125
v 76 104 121
v 79 105 120
v 78 98 120
v 73 93 126
v 73 93 127
v 80 98 122
v 80 98 126
v 84 97 136
v 83 97 137
v 84 99 137
v 81 100 126
v 79 103 126
v 79 105 126
v 79 105 122
v 76 113 125
v 76 113 124
v 75 91 125
v 70 87 123
v 70 88 124
v 70 88 125
v 75 91 127
v 83 95 126
v 85 99 136
v 87 100 137
v 86 96 137
v 83 96 139
v 84 100 139
v 75 104 137
v 73 104 136
v 74 106 136
v 81 105 122
v 78 113 126
v 76 119 122
v 75 118 122
v 75 118 120
v 78 113 124
v 85 114 130
v 85 114 128
v 88 113 128
v 88 113 130
v 88 118 127
v 87 118 127
v 87 119 125
v 88 119 125
v 90 122 131
v 89 121 133
v 87 122 133
v 88 123 131
v 89 128 131
v 81 88 130
v 84 89 130
v 84 89 128
v 81 88 128
v 81 83 126
v 81 84 127
v 82 84 127
v 82 83 126
v 82 79 132
v 80 79 132
v 80 80 134
v 82 80 134
v 79 74 132
v 76 101 125
v 76 101 123
v 76 100 123
v 76 100 125
v 76 103 125
v 76 103 123
v 76 102 123
v 76 102 125
v 71 126 125
v 72 121 126
v 72 121 128
v 74 122 128
v 74 122 126
v 76 119 120
v 70 87 125
v 70 84 130
v 70 84 129
v 68 86 129
v 69 85 131
v 65 82 129
v 87 99 139
v 85 99 140
v 84 97 140
v 86 97 139
v 74 106 140
v 72 106 139
v 71 104 139
v 73 104 140
v 75 103 139
v 76 107 139
v 72 107 137
v 71 103 137
v 76 106 137
v 134 29 184
v 134 29 181
v 134 12 184
v 134 12 187
v 138 29 184
v 137 48 182
v 133 48 182
v 133 48 179
v 132 66 182
v 132 66 179
v 131 84 183
v 131 84 180
v 130 104 187
v 130 104 184
v 129 121 192
v 129 121 189
v 123 130 189
v 123 130 192
v 131 140 189
v 131 140 192
v 139 135 189
v 139 135 192
v 139 126 189
v 139 126 192
v 133 121 189
v 133 121 192
v 134 104 187
v 134 104 184
v 135 84 183
v 135 84 180
v 136 66 182
v 136 66 179
v 137 48 179
v 138 29 181
v 138 12 187
v 138 12 184
v 144 7 184
v 144 7 187
v 144 -2 184
v 144 -2 187
v 136 -7 184
v 136 -7 187
v 123 2 184
v 123 2 187
v 131 2 188
v 136 8 188
v 131 125 193
v 126 128 193
v 126 133 193
v 131 136 193
v 136 133 193
v 136 128 193
v 139 127 203
v 131 122 203
v 123 127 203
v 123 134 203
v 131 139 203
v 139 134 203
v -4 143 184
v -9 137 184
v -9 137 187
v -4 143 187
v 5 143 184
v 5 143 187
v 10 135 184
v 10 135 187
v 1 127 184
v 1 127 187
v -9 133 184
v -9 133 187
v -26 133 184
v -26 133 181
v -45 132 182
v -45 132 179
v -64 131 182
v -64 131 179
v -86 130 183
v -86 130 180
v -106 129 187
v -106 129 184
v -123 128 192
v -123 128 189
v -132 122 189
v -132 122 192
v -142 130 189
v -142 130 192
v -137 138 189
v -137 138 192
v -128 138 189
v -128 138 192
v -123 132 189
v -123 132 192
v -106 133 187
v -106 133 184
v -86 134 183
v -86 134 180
v -64 135 182
v -64 135 179
v -45 136 182
v -45 136 179
v -26 137 184
v -26 137 181
v -5 135 188
v -2 140 188
v 3 140 188
v 6 135 188
v 1 130 188
v -127 130 193
v -130 125 193
v -135 125 193
v -138 130 193
v -135 135 193
v -130 135 193
v -129 138 203
v -124 130 203
v -129 122 203
v -136 122 203
v -141 130 203
v -136 138 203
v 6 128 118
v 3 133 118
v 3 140 184
v 6 135 184
v 1 123 118
v 1 130 184
v -5 128 118
v -5 135 184
v -2 133 118
v -2 140 184
v 6 135 193
v 3 140 193
v 4 143 203
v 9 135 203
v 3 130 193
v 1 127 192
v 10 133 192
v 10 137 192
v 5 143 192
v -2 140 193
v -3 143 203
v -3 127 203
v 4 127 203
v -2 130 193
v -9 135 192
v -9 135 189
v 1 127 189
v 10 133 189
v 24 133 184
v 24 133 187
v 24 137 187
v 10 137 189
v 5 143 189
v -4 143 192
v -5 135 193
v -8 135 203
v -4 143 189
v 24 137 184
v 45 136 183
v 45 136 180
v 70 135 182
v 70 135 179
v 89 134 183
v 89 134 180
v 108 133 185
v 108 133 182
v 122 132 187
v 122 132 184
v 127 138 184
v 127 138 187
v 136 138 184
v 136 138 187
v 141 130 184
v 141 130 187
v 132 122 184
v 132 122 187
v 122 128 184
v 122 128 187
v 108 129 185
v 108 129 182
v 89 130 183
v 89 130 180
v 70 131 182
v 70 131 179
v 45 132 183
v 45 132 180
v 126 130 188
v 129 135 188
v 134 135 188
v 137 130 188
v 132 125 188
v 137 123 118
v 134 128 118
v 134 135 184
v 137 130 184
v 132 118 118
v 132 125 184
v 126 123 118
v 126 130 184
v 129 128 118
v 129 135 184
v -139 23 187
v -139 23 184
v -139 9 189
v -139 9 192
v -135 23 187
v -134 44 183
v -138 44 183
v -138 44 180
v -137 69 182
v -137 69 179
v -136 88 183
v -136 88 180
v -135 107 185
v -135 107 182
v -134 121 187
v -134 121 184
v -140 126 184
v -140 126 187
v -140 135 184
v -140 135 187
v -132 140 184
v -132 140 187
v -124 131 184
v -124 131 187
v -130 121 184
v -130 121 187
v -131 107 185
v -131 107 182
v -132 88 183
v -132 88 180
v -133 69 182
v -133 69 179
v -134 44 180
v -135 23 184
v -135 9 192
v -135 9 189
v -129 0 189
v -129 0 192
v -137 -10 189
v -137 -10 192
v -145 -5 189
v -145 -5 192
v -145 4 189
v -145 4 192
v -142 2 193
v -137 5 193
v -132 125 188
v -137 128 188
v -137 133 188
v -132 136 188
v -127 131 188
v -125 136 118
v -130 133 118
v -137 133 184
v -132 136 184
v -120 131 118
v -127 131 184
v -125 125 118
v -132 125 184
v -130 128 118
v -137 128 184
v 3 -141 184
v 8 -135 184
v 8 -135 187
v 3 -141 187
v -6 -141 184
v -6 -141 187
v -11 -133 184
v -11 -133 187
v -2 -125 184
v -2 -125 187
v 8 -131 184
v 8 -131 187
v 25 -131 184
v 25 -131 181
v 44 -130 182
v 44 -130 179
v 63 -129 182
v 63 -129 179
v 85 -128 183
v 85 -128 180
v 105 -127 187
v 105 -127 184
v 122 -126 192
v 122 -126 189
v 131 -120 189
v 131 -120 192
v 141 -128 189
v 141 -128 192
v 136 -136 189
v 136 -136 192
v 127 -136 189
v 127 -136 192
v 122 -130 189
v 122 -130 192
v 105 -131 187
v 105 -131 184
v 85 -132 183
v 85 -132 180
v 63 -133 182
v 63 -133 179
v 44 -134 182
v 44 -134 179
v 25 -135 184
v 25 -135 181
v 4 -133 188
v 1 -138 188
v -4 -138 188
v -7 -133 188
v -2 -128 188
v 126 -128 193
v 129 -123 193
v 134 -123 193
v 137 -128 193
v 134 -133 193
v 129 -133 193
v 128 -136 203
v 123 -128 203
v 128 -120 203
v 135 -120 203
v 140 -128 203
v 135 -136 203
v -7 -126 118
v -4 -131 118
v -4 -138 184
v -7 -133 184
v -2 -121 118
v -2 -128 184
v 4 -126 118
v 4 -133 184
v 1 -131 118
v 1 -138 184
v -7 -133 193
v -4 -138 193
v -5 -141 203
v -10 -133 203
v -4 -128 193
v -2 -125 192
v -11 -131 192
v -11 -135 192
v -6 -141 192
v 1 -138 193
v 2 -141 203
v 2 -125 203
v -5 -125 203
v 1 -128 193
v 8 -133 192
v 8 -133 189
v -2 -125 189
v -11 -131 189
v -25 -131 184
v -25 -131 187
v -25 -135 187
v -11 -135 189
v -6 -141 189
v 3 -141 192
v 4 -133 193
v 7 -133 203
v 3 -141 189
v -25 -135 184
v -46 -134 183
v -46 -134 180
v -71 -133 182
v -71 -133 179
v -90 -132 183
v -90 -132 180
v -109 -131 185
v -109 -131 182
v -123 -130 187
v -123 -130 184
v -128 -136 184
v -128 -136 187
v -137 -136 184
v -137 -136 187
v -142 -128 184
v -142 -128 187
v -133 -120 184
v -133 -120 187
v -123 -126 184
v -123 -126 187
v -109 -127 185
v -109 -127 182
v -90 -128 183
v -90 -128 180
v -71 -129 182
v -71 -129 179
v -46 -130 183
v -46 -130 180
v -127 -128 188
v -130 -133 188
v -135 -133 188
v -138 -128 188
v -133 -123 188
v -138 -121 118
v -135 -126 118
v -135 -133 184
v -138 -128 184
v -133 -116 118
v -133 -123 184
v -127 -121 118
v -127 -128 184
v -130 -126 118
v -130 -133 184
v -132 -123 193
v -137 -126 193
v -140 -125 203
v -132 -120 203
v -127 -126 193
v -124 -128 192
v -130 -119 192
v -134 -119 192
v -140 -124 192
v -137 -131 193
v -140 -132 203
v -124 -132 203
v -124 -125 203
v -127 -131 193
v -132 -138 192
v -132 -138 189
v -124 -128 189
v -130 -119 189
v -131 -102 184
v -131 -102 187
v -135 -102 187
v -134 -119 189
v -140 -124 189
v -140 -133 192
v -132 -134 193
v -132 -137 203
v -140 -133 189
v -135 -102 184
v -136 -82 183
v -136 -82 180
v -137 -64 182
v -137 -64 179
v -138 -46 182
v -138 -46 179
v -139 -27 184
v -139 -27 181
v -139 -10 187
v -139 -10 184
v -145 -5 184
v -145 -5 187
v -145 4 184
v -145 4 187
v -137 9 184
v -137 9 187
v -129 0 184
v -129 0 187
v -135 -10 184
v -135 -10 187
v -135 -27 184
v -135 -27 181
v -134 -46 182
v -134 -46 179
v -133 -64 182
v -133 -64 179
v -132 -82 183
v -132 -82 180
v -137 -6 188
v -142 -3 188
v -142 2 188
v -137 5 188
v -132 0 188
v 141 5 188
v 141 0 188
v 136 -3 188
v 124 -3 118
v 134 0 118
v 141 0 184
v 136 -3 184
v 119 2 118
v 131 2 184
v 124 8 118
v 136 8 184
v 134 5 118
v 141 5 184
v 136 -3 193
v 141 0 193
v 144 -1 203
v 136 -6 203
v 131 0 193
v 123 2 192
v 134 -7 192
v 138 -7 192
v 144 -2 192
v 141 5 193
v 144 6 203
v 123 6 203
v 123 -1 203
v 131 5 193
v 136 12 192
v 136 12 189
v 123 2 189
v 134 -7 189
v 134 -21 184
v 134 -21 187
v 138 -21 187
v 138 -7 189
v 144 -2 189
v 144 7 192
v 136 8 193
v 136 11 203
v 144 7 189
v 138 -21 184
v 137 -42 183
v 137 -42 180
v 136 -67 182
v 136 -67 179
v 135 -86 183
v 135 -86 180
v 134 -105 185
v 134 -105 182
v 133 -119 187
v 133 -119 184
v 139 -124 184
v 139 -124 187
v 139 -133 184
v 139 -133 187
v 131 -138 184
v 131 -138 187
v 123 -129 184
v 123 -129 187
v 129 -119 184
v 129 -119 187
v 130 -105 185
v 130 -105 182
v 131 -86 183
v 131 -86 180
v 132 -67 182
v 132 -67 179
v 133 -42 183
v 133 -42 180
v 131 -123 188
v 136 -126 188
v 136 -131 188
v 131 -134 188
v 126 -129 188
v 124 -134 118
v 129 -131 118
v 136 -131 184
v 131 -134 184
v 119 -129 118
v 126 -129 184
v 124 -123 118
v 131 -123 184
v 129 -126 118
v 136 -126 184
v -130 5 118
v -135 2 118
v -142 2 184
v -137 5 184
v -125 0 118
v -132 0 184
v -130 -6 118
v -137 -6 184
v -135 -3 118
v -142 -3 184
v -145 3 203
v -137 8 203
v -132 2 193
v -142 -3 193
v -145 -4 203
v -129 -4 203
v -129 3 203
v -132 -3 193
v -137 -6 193
v -137 -9 203

f 1 2 3
f 1 3 4
f 1 4 5
f 1 5 6
f 1 6 7
f 1 7 2
f 2 7 8
f 2 8 9
f 2 9 10
f 2 10 3
f 3 10 11
f 3 11 12
f 3 12 4
f 4 12 13
f 4 13 14
f 4 14 5
f 5 14 9
f 5 9 15
f 5 15 6
f 6 15 16
f 6 16 17
f 6 17 18
f 6 18 19
f 6 19 7
f 7 19 20
f 7 20 21
f 7 21 22
f 7 22 23
f 7 23 8
f 8 23 24
f 8 24 25
f 8 25 26
f 8 26 15
f 8 15 9
f 9 14 10
f 10 14 27
f 10 27 11
f 11 27 28
f 11 28 29
f 11 29 12
f 12 29 30
f 12 30 13
f 13 30 31
f 13 31 27
f 13 27 14
f 30 29 32
f 30 32 31
f 31 32 28
f 31 28 27
f 29 28 32
f 33 34 35
f 33 35 36
f 33 36 37
f 33 37 38
f 33 38 39
f 33 39 34
f 34 39 40
f 34 40 41
f 34 41 35
f 35 41 42
f 35 42 43
f 35 43 44
f 35 44 36
f 36 44 45
f 36 45 46
f 36 46 47
f 36 47 37
f 37 47 48
f 37 48 49
f 37 49 50
f 37 50 38
f 38 50 51
f 38 51 39
f 39 51 52
f 39 52 40
f 40 52 53
f 40 53 54
f 40 54 20
f 40 20 41
f 41 20 19
f 41 19 55
f 41 55 42
f 42 55 56
f 42 56 57
f 42 57 43
f 43 57 58
f 43 58 59
f 43 59 44
f 44 59 19
f 44 19 18
f 44 18 45
f 45 18 60
f 45 60 15
f 45 15 49
f 45 49 61
f 45 61 46
f 46 61 62
f 46 62 63
f 46 63 47
f 47 63 64
f 47 64 48
f 48 64 65
f 48 65 61
f 48 61 49
f 50 49 26
f 50 26 66
f 50 66 67
f 50 67 51
f 51 67 68
f 51 68 25
f 51 25 69
f 51 69 52
f 52 69 70
f 52 70 53
f 53 70 71
f 53 71 72
f 53 72 54
f 54 72 73
f 54 73 74
f 54 74 20
f 20 74 69
f 20 69 21
f 21 69 25
f 21 25 24
f 21 24 75
f 21 75 76
f 21 76 22
f 22 76 77
f 22 77 23
f 23 77 78
f 23 78 24
f 24 78 75
f 75 78 79
f 75 79 80
f 75 80 76
f 76 80 81
f 76 81 77
f 77 81 82
f 77 82 78
f 78 82 79
f 79 82 83
f 79 83 84
f 79 84 80
f 80 84 85
f 80 85 81
f 81 85 86
f 81 86 82
f 82 86 83
f 83 86 87
f 83 87 84
f 84 87 85
f 85 87 86
f 26 49 15
f 60 16 15
f 16 60 88
f 16 88 89
f 16 89 17
f 17 89 90
f 17 90 18
f 18 90 91
f 18 91 60
f 60 91 88
f 88 91 92
f 88 92 93
f 88 93 89
f 89 93 94
f 89 94 90
f 90 94 95
f 90 95 91
f 91 95 92
f 92 95 96
f 92 96 97
f 92 97 93
f 93 97 98
f 93 98 94
f 94 98 99
f 94 99 95
f 95 99 96
f 96 99 100
f 96 100 97
f 97 100 98
f 98 100 99
f 101 102 103
f 101 103 104
f 105 106 107
f 105 107 108
f 105 108 109
f 105 109 106
f 106 109 110
f 106 110 73
f 106 73 107
f 107 73 72
f 107 72 108
f 108 72 71
f 108 71 109
f 109 71 110
f 110 71 70
f 110 70 74
f 110 74 73
f 69 74 70
f 59 55 19
f 55 59 111
f 55 111 56
f 56 111 112
f 56 112 113
f 56 113 57
f 57 113 114
f 57 114 58
f 58 114 115
f 58 115 111
f 58 111 59
f 115 112 111
f 112 115 116
f 112 116 113
f 113 116 114
f 114 116 115
f 117 118 119
f 117 119 120
f 117 120 63
f 117 63 62
f 117 62 118
f 118 62 65
f 118 65 119
f 119 65 64
f 119 64 120
f 120 64 63
f 61 65 62
f 121 122 123
f 121 123 124
f 121 124 125
f 121 125 126
f 121 126 122
f 122 126 127
f 122 127 123
f 123 127 128
f 123 128 124
f 124 128 125
f 125 128 67
f 125 67 66
f 125 66 126
f 126 66 129
f 126 129 127
f 127 129 68
f 127 68 128
f 128 68 67
f 25 68 129
f 25 129 26
f 26 129 66
f 130 131 132
f 130 132 133
f 130 133 134
f 130 134 135
f 130 135 136
f 130 136 131
f 131 136 137
f 131 137 138
f 131 138 139
f 131 139 132
f 132 139 140
f 132 140 141
f 132 141 133
f 133 141 142
f 133 142 143
f 133 143 134
f 134 143 138
f 134 138 144
f 134 144 135
f 135 144 145
f 135 145 146
f 135 146 147
f 135 147 148
f 135 148 136
f 136 148 149
f 136 149 150
f 136 150 151
f 136 151 152
f 136 152 137
f 137 152 153
f 137 153 154
f 137 154 155
f 137 155 144
f 137 144 138
f 138 143 139
f 139 143 156
f 139 156 140
f 140 156 157
f 140 157 158
f 140 158 141
f 141 158 159
f 141 159 142
f 142 159 160
f 142 160 156
f 142 156 143
f 159 158 161
f 159 161 160
f 160 161 157
f 160 157 156
f 158 157 161
f 162 163 164
f 162 164 165
f 162 165 166
f 162 166 167
f 162 167 168
f 162 168 163
f 163 168 169
f 163 169 170
f 163 170 164
f 164 170 171
f 164 171 172
f 164 172 173
f 164 173 165
f 165 173 174
f 165 174 175
f 165 175 176
f 165 176 166
f 166 176 177
f 166 177 178
f 166 178 179
f 166 179 167
f 167 179 180
f 167 180 168
f 168 180 181
f 168 181 169
f 169 181 182
f 169 182 183
f 169 183 149
f 169 149 170
f 170 149 148
f 170 148 184
f 170 184 171
f 171 184 185
f 171 185 186
f 171 186 172
f 172 186 187
f 172 187 188
f 172 188 173
f 173 188 148
f 173 148 147
f 173 147 174
f 174 147 189
f 174 189 144
f 174 144 178
f 174 178 190
f 174 190 175
f 175 190 191
f 175 191 192
f 175 192 176
f 176 192 193
f 176 193 177
f 177 193 194
f 177 194 190
f 177 190 178
f 179 178 155
f 179 155 195
f 179 195 196
f 179 196 180
f 180 196 197
f 180 197 154
f 180 154 198
f 180 198 181
f 181 198 199
f 181 199 182
f 182 199 200
f 182 200 201
f 182 201 183
f 183 201 202
f 183 202 203
f 183 203 149
f 149 203 198
f 149 198 150
f 150 198 154
f 150 154 153
f 150 153 204
f 150 204 205
f 150 205 151
f 151 205 206
f 151 206 152
f 152 206 207
f 152 207 153
f 153 207 204
f 204 207 208
f 204 208 209
f 204 209 205
f 205 209 210
f 205 210 206
f 206 210 211
f 206 211 207
f 207 211 208
f 208 211 212
f 208 212 213
f 208 213 209
f 209 213 214
f 209 214 210
f 210 214 215
f 210 215 211
f 211 215 212
f 212 215 216
f 212 216 213
f 213 216 214
f 214 216 215
f 155 178 144
f 189 145 144
f 145 189 217
f 145 217 218
f 145 218 146
f 146 218 219
f 146 219 147
f 147 219 220
f 147 220 189
f 189 220 217
f 217 220 221
f 217 221 222
f 217 222 218
f 218 222 223
f 218 223 219
f 219 223 224
f 219 224 220
f 220 224 221
f 221 224 225
f 221 225 226
f 221 226 222
f 222 226 227
f 222 227 223
f 223 227 228
f 223 228 224
f 224 228 225
f 225 228 229
f 225 229 226
f 226 229 227
f 227 229 228
f 230 231 232
f 230 232 233
f 234 235 236
f 234 236 237
f 238 239 240
f 238 240 241
f 238 241 242
f 238 242 239
f 239 242 243
f 239 243 202
f 239 202 240
f 240 202 201
f 240 201 241
f 241 201 200
f 241 200 242
f 242 200 243
f 243 200 199
f 243 199 203
f 243 203 202
f 198 203 199
f 188 184 148
f 184 188 244
f 184 244 185
f 185 244 245
f 185 245 246
f 185 246 186
f 186 246 247
f 186 247 187
f 187 247 248
f 187 248 244
f 187 244 188
f 248 245 244
f 245 248 249
f 245 249 246
f 246 249 247
f 247 249 248
f 250 251 252
f 250 252 253
f 250 253 192
f 250 192 191
f 250 191 251
f 251 191 194
f 251 194 252
f 252 194 193
f 252 193 253
f 253 193 192
f 190 194 191
f 254 255 256
f 254 256 257
f 254 257 258
f 254 258 259
f 254 259 255
f 255 259 260
f 255 260 256
f 256 260 261
f 256 261 257
f 257 261 258
f 258 261 196
f 258 196 195
f 258 195 259
f 259 195 262
f 259 262 260
f 260 262 197
f 260 197 261
f 261 197 196
f 154 197 262
f 154 262 155
f 155 262 195
f 263 264 265
f 263 265 266
f 263 266 267
f 263 267 268
f 263 268 269
f 263 269 264
f 264 269 270
f 270 269 271
f 270 271 272
f 272 271 273
f 272 273 274
f 274 273 275
f 274 275 276
f 276 275 277
f 276 277 278
f 278 277 279
f 279 277 280
f 279 280 281
f 281 280 282
f 281 282 283
f 283 282 284
f 283 284 285
f 285 284 286
f 285 286 287
f 287 286 288
f 287 288 289
f 287 289 290
f 290 289 291
f 290 291 292
f 292 291 293
f 292 293 294
f 294 293 268
f 294 268 295
f 295 268 267
f 295 267 296
f 296 267 297
f 296 297 298
f 298 297 299
f 299 297 300
f 299 300 301
f 301 300 302
f 301 302 303
f 303 302 304
f 303 304 305
f 305 304 306
f 305 306 265
f 265 306 266
f 266 306 307
f 266 307 308
f 266 308 297
f 266 297 267
f 269 268 293
f 269 293 271
f 271 293 291
f 271 291 273
f 273 291 289
f 273 289 275
f 275 289 288
f 275 288 277
f 277 288 309
f 277 309 280
f 280 309 310
f 280 310 311
f 280 311 282
f 282 311 312
f 282 312 284
f 284 312 313
f 284 313 286
f 286 313 314
f 286 314 288
f 288 314 309
f 309 314 315
f 309 315 316
f 309 316 310
f 310 316 317
f 310 317 311
f 311 317 318
f 311 318 312
f 312 318 319
f 312 319 313
f 313 319 320
f 313 320 314
f 314 320 315
f 315 320 318
f 315 318 317
f 315 317 316
f 321 322 323
f 321 323 324
f 321 324 325
f 325 324 326
f 325 326 327
f 327 326 328
f 327 328 329
f 329 328 330
f 329 330 331
f 331 330 332
f 331 332 333
f 331 333 334
f 334 333 335
f 334 335 336
f 336 335 337
f 336 337 338
f 338 337 339
f 338 339 340
f 340 339 341
f 340 341 342
f 342 341 343
f 342 343 344
f 344 343 345
f 345 343 346
f 345 346 347
f 347 346 348
f 347 348 349
f 349 348 350
f 349 350 351
f 351 350 352
f 351 352 353
f 353 352 354
f 353 354 355
f 353 355 356
f 356 355 357
f 356 357 358
f 358 357 359
f 358 359 360
f 360 359 361
f 360 361 362
f 362 361 363
f 362 363 364
f 364 363 323
f 364 323 322
f 324 323 365
f 324 365 366
f 324 366 326
f 326 366 367
f 326 367 328
f 328 367 368
f 328 368 330
f 330 368 369
f 330 369 332
f 332 369 365
f 332 365 323
f 332 323 363
f 332 363 333
f 333 363 361
f 333 361 335
f 335 361 359
f 335 359 337
f 337 359 357
f 337 357 339
f 339 357 355
f 339 355 341
f 341 355 354
f 341 354 343
f 343 354 370
f 343 370 346
f 346 370 371
f 346 371 372
f 346 372 348
f 348 372 373
f 348 373 350
f 350 373 374
f 350 374 352
f 352 374 375
f 352 375 354
f 354 375 370
f 370 375 376
f 370 376 377
f 370 377 371
f 371 377 378
f 371 378 372
f 372 378 379
f 372 379 373
f 373 379 380
f 373 380 374
f 374 380 381
f 374 381 375
f 375 381 376
f 376 381 379
f 376 379 378
f 376 378 377
f 382 383 384
f 382 384 385
f 382 385 386
f 386 385 387
f 386 387 388
f 388 387 389
f 388 389 390
f 390 389 391
f 390 391 383
f 383 391 384
f 392 393 394
f 392 394 395
f 392 395 396
f 392 396 397
f 392 397 398
f 392 398 399
f 392 399 393
f 393 399 400
f 393 400 401
f 393 401 402
f 393 402 394
f 394 402 403
f 394 403 404
f 394 404 395
f 395 404 396
f 396 404 405
f 396 405 397
f 397 405 406
f 397 406 407
f 397 407 408
f 397 408 398
f 398 408 409
f 398 409 410
f 398 410 411
f 398 411 399
f 399 411 412
f 399 412 413
f 399 413 400
f 400 413 414
f 400 414 415
f 400 415 401
f 401 415 416
f 401 416 417
f 401 417 402
f 402 417 403
f 403 417 416
f 403 416 405
f 403 405 404
f 414 418 415
f 415 418 406
f 415 406 416
f 416 406 405
f 418 407 406
f 412 419 413
f 419 412 420
f 419 420 421
f 421 420 422
f 421 422 423
f 423 422 424
f 423 424 425
f 425 424 426
f 425 426 427
f 427 426 428
f 427 428 429
f 429 428 430
f 430 428 431
f 430 431 432
f 432 431 433
f 432 433 434
f 434 433 435
f 434 435 436
f 436 435 437
f 436 437 438
f 438 437 439
f 438 439 440
f 438 440 441
f 441 440 442
f 441 442 443
f 443 442 444
f 443 444 445
f 445 444 446
f 445 446 447
f 447 446 411
f 447 411 410
f 412 411 446
f 412 446 420
f 420 446 444
f 420 444 422
f 422 444 442
f 422 442 424
f 424 442 440
f 424 440 426
f 426 440 439
f 426 439 428
f 428 439 448
f 428 448 431
f 431 448 449
f 431 449 433
f 433 449 450
f 433 450 435
f 435 450 451
f 435 451 437
f 437 451 452
f 437 452 439
f 439 452 448
f 453 454 455
f 453 455 456
f 453 456 457
f 457 456 458
f 457 458 459
f 459 458 460
f 459 460 461
f 461 460 462
f 461 462 454
f 454 462 455
f 320 319 318
f 463 464 465
f 463 465 466
f 463 466 467
f 463 467 468
f 463 468 469
f 463 469 464
f 464 469 470
f 470 469 471
f 470 471 472
f 472 471 473
f 472 473 474
f 474 473 475
f 474 475 476
f 476 475 477
f 476 477 478
f 478 477 479
f 479 477 480
f 479 480 481
f 481 480 482
f 481 482 483
f 483 482 484
f 483 484 485
f 485 484 486
f 485 486 487
f 487 486 488
f 487 488 489
f 487 489 490
f 490 489 491
f 490 491 492
f 492 491 493
f 492 493 494
f 494 493 468
f 494 468 495
f 495 468 467
f 495 467 496
f 496 467 497
f 496 497 498
f 498 497 499
f 499 497 500
f 499 500 501
f 501 500 502
f 501 502 503
f 503 502 504
f 503 504 505
f 505 504 506
f 505 506 465
f 465 506 466
f 466 506 507
f 466 507 508
f 466 508 497
f 466 497 467
f 469 468 493
f 469 493 471
f 471 493 491
f 471 491 473
f 473 491 489
f 473 489 475
f 475 489 488
f 475 488 477
f 477 488 509
f 477 509 480
f 480 509 510
f 480 510 482
f 482 510 511
f 482 511 484
f 484 511 512
f 484 512 486
f 486 512 513
f 486 513 488
f 488 513 509
f 514 515 516
f 514 516 517
f 514 517 518
f 518 517 519
f 518 519 520
f 520 519 521
f 520 521 522
f 522 521 523
f 522 523 515
f 515 523 516
f 381 380 379
f 524 525 526
f 524 526 527
f 524 527 528
f 528 527 529
f 528 529 530
f 530 529 531
f 530 531 532
f 532 531 533
f 532 533 534
f 534 533 535
f 534 535 536
f 534 536 537
f 537 536 538
f 537 538 539
f 539 538 540
f 539 540 541
f 541 540 542
f 541 542 543
f 543 542 544
f 543 544 545
f 545 544 546
f 545 546 547
f 547 546 548
f 548 546 549
f 548 549 550
f 550 549 551
f 550 551 552
f 552 551 553
f 552 553 554
f 554 553 555
f 554 555 556
f 556 555 557
f 556 557 558
f 556 558 559
f 559 558 560
f 559 560 561
f 561 560 562
f 561 562 563
f 563 562 564
f 563 564 565
f 565 564 566
f 565 566 567
f 567 566 526
f 567 526 525
f 527 526 568
f 527 568 569
f 527 569 529
f 529 569 570
f 529 570 531
f 531 570 571
f 531 571 533
f 533 571 572
f 533 572 535
f 535 572 568
f 535 568 526
f 535 526 566
f 535 566 536
f 536 566 564
f 536 564 538
f 538 564 562
f 538 562 540
f 540 562 560
f 540 560 542
f 542 560 558
f 542 558 544
f 544 558 557
f 544 557 546
f 546 557 573
f 546 573 549
f 549 573 574
f 549 574 575
f 549 575 551
f 551 575 576
f 551 576 553
f 553 576 577
f 553 577 555
f 555 577 578
f 555 578 557
f 557 578 573
f 573 578 579
f 573 579 580
f 573 580 574
f 574 580 581
f 574 581 575
f 575 581 582
f 575 582 576
f 576 582 583
f 576 583 577
f 577 583 584
f 577 584 578
f 578 584 579
f 579 584 582
f 579 582 581
f 579 581 580
f 585 586 587
f 585 587 588
f 585 588 589
f 589 588 590
f 589 590 591
f 591 590 592
f 591 592 593
f 593 592 594
f 593 594 586
f 586 594 587
f 595 596 597
f 595 597 598
f 595 598 599
f 595 599 600
f 595 600 601
f 595 601 602
f 595 602 596
f 596 602 603
f 596 603 604
f 596 604 605
f 596 605 597
f 597 605 606
f 597 606 607
f 597 607 598
f 598 607 599
f 599 607 608
f 599 608 600
f 600 608 609
f 600 609 610
f 600 610 611
f 600 611 601
f 601 611 612
f 601 612 613
f 601 613 614
f 601 614 602
f 602 614 615
f 602 615 616
f 602 616 603
f 603 616 617
f 603 617 618
f 603 618 604
f 604 618 619
f 604 619 620
f 604 620 605
f 605 620 606
f 606 620 619
f 606 619 608
f 606 608 607
f 617 621 618
f 618 621 609
f 618 609 619
f 619 609 608
f 621 610 609
f 615 622 616
f 622 615 623
f 622 623 624
f 624 623 625
f 624 625 626
f 626 625 627
f 626 627 628
f 628 627 629
f 628 629 630
f 630 629 631
f 630 631 632
f 632 631 633
f 633 631 634
f 633 634 635
f 635 634 636
f 635 636 637
f 637 636 638
f 637 638 639
f 639 638 640
f 639 640 641
f 641 640 642
f 641 642 643
f 641 643 644
f 644 643 645
f 644 645 646
f 646 645 647
f 646 647 648
f 648 647 649
f 648 649 650
f 650 649 614
f 650 614 613
f 615 614 649
f 615 649 623
f 623 649 647
f 623 647 625
f 625 647 645
f 625 645 627
f 627 645 643
f 627 643 629
f 629 643 642
f 629 642 631
f 631 642 651
f 631 651 634
f 634 651 652
f 634 652 636
f 636 652 653
f 636 653 638
f 638 653 654
f 638 654 640
f 640 654 655
f 640 655 642
f 642 655 651
f 656 657 658
f 656 658 659
f 656 659 660
f 660 659 661
f 660 661 662
f 662 661 663
f 662 663 664
f 664 663 665
f 664 665 657
f 657 665 658
f 666 667 668
f 666 668 669
f 666 669 670
f 666 670 671
f 666 671 672
f 666 672 673
f 666 673 667
f 667 673 674
f 667 674 675
f 667 675 676
f 667 676 668
f 668 676 677
f 668 677 678
f 668 678 669
f 669 678 670
f 670 678 679
f 670 679 671
f 671 679 680
f 671 680 681
f 671 681 682
f 671 682 672
f 672 682 683
f 672 683 684
f 672 684 685
f 672 685 673
f 673 685 686
f 673 686 687
f 673 687 674
f 674 687 688
f 674 688 689
f 674 689 675
f 675 689 690
f 675 690 691
f 675 691 676
f 676 691 677
f 677 691 690
f 677 690 679
f 677 679 678
f 688 692 689
f 689 692 680
f 689 680 690
f 690 680 679
f 692 681 680
f 686 693 687
f 693 686 694
f 693 694 695
f 695 694 696
f 695 696 697
f 697 696 698
f 697 698 699
f 699 698 700
f 699 700 701
f 701 700 702
f 701 702 703
f 703 702 704
f 704 702 705
f 704 705 706
f 706 705 707
f 706 707 708
f 708 707 709
f 708 709 710
f 710 709 711
f 710 711 712
f 712 711 713
f 712 713 714
f 712 714 715
f 715 714 716
f 715 716 717
f 717 716 718
f 717 718 719
f 719 718 720
f 719 720 721
f 721 720 685
f 721 685 684
f 686 685 720
f 686 720 694
f 694 720 718
f 694 718 696
f 696 718 716
f 696 716 698
f 698 716 714
f 698 714 700
f 700 714 713
f 700 713 702
f 702 713 722
f 702 722 705
f 705 722 723
f 705 723 707
f 707 723 724
f 707 724 709
f 709 724 725
f 709 725 711
f 711 725 726
f 711 726 713
f 713 726 722
f 300 297 308
f 300 308 727
f 300 727 302
f 302 727 728
f 302 728 304
f 304 728 729
f 304 729 306
f 306 729 307
f 730 731 732
f 730 732 733
f 730 733 734
f 734 733 735
f 734 735 736
f 736 735 737
f 736 737 738
f 738 737 739
f 738 739 731
f 731 739 732
f 740 741 742
f 740 742 743
f 740 743 744
f 740 744 745
f 740 745 746
f 740 746 747
f 740 747 741
f 741 747 748
f 741 748 749
f 741 749 750
f 741 750 742
f 742 750 751
f 742 751 752
f 742 752 743
f 743 752 744
f 744 752 753
f 744 753 745
f 745 753 754
f 745 754 755
f 745 755 756
f 745 756 746
f 746 756 757
f 746 757 758
f 746 758 759
f 746 759 747
f 747 759 760
f 747 760 761
f 747 761 748
f 748 761 762
f 748 762 763
f 748 763 749
f 749 763 764
f 749 764 765
f 749 765 750
f 750 765 751
f 751 765 764
f 751 764 753
f 751 753 752
f 762 766 763
f 763 766 754
f 763 754 764
f 764 754 753
f 766 755 754
f 760 767 761
f 767 760 768
f 767 768 769
f 769 768 770
f 769 770 771
f 771 770 772
f 771 772 773
f 773 772 774
f 773 774 775
f 775 774 776
f 775 776 777
f 777 776 778
f 778 776 779
f 778 779 780
f 780 779 781
f 780 781 782
f 782 781 783
f 782 783 784
f 784 783 785
f 784 785 786
f 786 785 787
f 786 787 788
f 786 788 789
f 789 788 790
f 789 790 791
f 791 790 792
f 791 792 793
f 793 792 794
f 793 794 795
f 795 794 759
f 795 759 758
f 760 759 794
f 760 794 768
f 768 794 792
f 768 792 770
f 770 792 790
f 770 790 772
f 772 790 788
f 772 788 774
f 774 788 787
f 774 787 776
f 776 787 796
f 776 796 779
f 779 796 797
f 779 797 781
f 781 797 798
f 781 798 783
f 783 798 799
f 783 799 785
f 785 799 800
f 785 800 787
f 787 800 796
f 801 802 803
f 801 803 804
f 801 804 805
f 805 804 806
f 805 806 807
f 807 806 808
f 807 808 809
f 809 808 810
f 809 810 802
f 802 810 803
f 584 583 582
f 811 812 813
f 811 813 814
f 811 814 815
f 815 814 816
f 815 816 817
f 817 816 818
f 817 818 819
f 819 818 820
f 819 820 812
f 812 820 813
f 508 507 821
f 508 821 822
f 508 822 823
f 508 823 500
f 508 500 497
f 507 824 825
f 507 825 821
f 821 825 826
f 821 826 827
f 821 827 822
f 822 827 823
f 823 827 828
f 823 828 500
f 500 828 502
f 502 828 829
f 502 829 504
f 504 829 824
f 504 824 506
f 506 824 507
f 824 829 830
f 824 830 825
f 825 830 826
f 826 830 829
f 826 829 828
f 826 828 827
