# RS2 Model 25574
# Vertices: 672
# Faces: 1038

v 51 -51 194
v 51 51 194
v -51 51 194
v -51 -51 194
v 51 -51 190
v 51 51 190
v -51 51 190
v -51 -51 190
v 47 51 190
v 47 -51 190
v 47 -51 100
v 51 -51 100
v 51 51 100
v 47 51 100
v 47 -47 190
v -47 -51 190
v -47 -51 100
v -47 51 190
v -47 51 100
v -51 51 100
v -51 -51 100
v -47 47 190
v -47 -47 190
v 47 -47 100
v -47 -47 100
v 47 47 190
v -47 47 100
v 47 47 100
v -29 25 121
v -34 21 122
v -34 19 118
v -28 25 117
v -32 28 121
v -32 29 117
v -37 24 122
v -38 24 118
v -37 24 112
v -34 21 112
v -30 24 112
v -33 27 112
v -34 28 103
v -38 24 103
v -34 19 103
v -29 23 103
v -31 23 100
v -34 26 100
v -37 23 100
v -34 20 100
v -36 27 127
v -29 32 126
v -29 32 121
v -36 27 121
v -37 22 122
v -37 22 126
v -29 22 127
v -25 28 126
v -19 32 127
v -24 38 127
v -24 38 121
v -20 40 126
v -20 40 122
v -16 36 122
v -16 36 126
v -19 32 121
v -25 28 121
v -29 22 121
v -34 19 126
v -34 19 122
v -25 35 121
v -20 39 122
v -20 40 118
v -26 35 117
v -22 32 121
v -22 30 117
v -18 36 122
v -16 36 118
v -18 36 112
v -20 39 112
v -24 35 112
v -21 32 112
v -21 32 103
v -16 36 103
v -20 40 103
v -25 36 103
v -23 36 100
v -21 33 100
v -17 37 100
v -20 39 100
v 25 -33 121
v 21 -38 122
v 21 -39 118
v 27 -33 117
v 23 -31 121
v 23 -29 117
v 18 -35 122
v 17 -35 118
v 18 -35 112
v 21 -38 112
v 25 -34 112
v 22 -31 112
v 21 -30 103
v 17 -35 103
v 21 -39 103
v 25 -35 103
v 24 -35 100
v 21 -32 100
v 18 -35 100
v 20 -38 100
v 20 -32 127
v 26 -26 126
v 26 -26 121
v 20 -32 121
v 18 -37 122
v 18 -37 126
v 26 -37 127
v 30 -31 126
v 37 -27 127
v 31 -21 127
v 31 -21 121
v 34 -18 126
v 34 -18 122
v 39 -22 122
v 39 -22 126
v 37 -27 121
v 30 -31 121
v 26 -37 121
v 22 -40 126
v 22 -40 122
v 30 -24 121
v 34 -20 122
v 34 -18 118
v 29 -24 117
v 33 -27 121
v 33 -28 117
v 37 -22 122
v 38 -23 118
v 37 -22 112
v 34 -20 112
v 31 -23 112
v 33 -26 112
v 34 -27 103
v 38 -23 103
v 34 -18 103
v 30 -22 103
v 31 -22 100
v 34 -25 100
v 38 -22 100
v 35 -19 100
v -24 -30 121
v -20 -35 122
v -19 -36 118
v -25 -30 117
v -27 -33 121
v -28 -33 117
v -23 -38 122
v -23 -39 118
v -23 -38 112
v -20 -35 112
v -23 -31 112
v -26 -34 112
v -27 -35 103
v -23 -39 103
v -19 -36 103
v -23 -31 103
v -23 -32 100
v -26 -35 100
v -22 -38 100
v -19 -36 100
v -26 -37 127
v -31 -30 126
v -31 -30 121
v -26 -37 121
v -21 -39 122
v -21 -39 126
v -21 -31 127
v -27 -26 126
v -31 -20 127
v -37 -25 127
v -37 -25 121
v -39 -22 126
v -39 -22 122
v -36 -17 122
v -36 -17 126
v -31 -20 121
v -27 -26 121
v -21 -31 121
v -19 -35 126
v -19 -35 122
v -34 -26 121
v -38 -22 122
v -39 -22 118
v -34 -27 117
v -31 -23 121
v -30 -24 117
v -35 -19 122
v -36 -18 118
v -35 -19 112
v -38 -22 112
v -34 -25 112
v -32 -22 112
v -32 -22 103
v -36 -18 103
v -39 -22 103
v -35 -26 103
v -35 -24 100
v -32 -22 100
v -36 -18 100
v -39 -21 100
v 36 26 121
v 40 21 122
v 41 21 118
v 36 27 117
v 33 23 121
v 31 23 117
v 37 19 122
v 37 17 118
v 37 19 112
v 40 21 112
v 36 25 112
v 33 22 112
v 33 22 103
v 37 17 103
v 41 21 103
v 37 26 103
v 37 24 100
v 34 21 100
v 38 18 100
v 41 21 100
v 33 19 127
v 29 26 126
v 29 26 121
v 33 19 121
v 39 18 122
v 39 18 126
v 39 26 127
v 33 30 126
v 28 37 127
v 22 31 127
v 22 31 121
v 20 35 126
v 20 35 122
v 24 39 122
v 24 39 126
v 28 37 121
v 33 30 121
v 39 26 121
v 41 21 126
v 41 21 122
v 26 30 121
v 22 35 122
v 20 35 118
v 26 29 117
v 29 33 121
v 30 33 117
v 25 37 122
v 25 39 118
v 25 37 112
v 22 35 112
v 25 31 112
v 28 34 112
v 29 34 103
v 25 39 103
v 20 35 103
v 25 30 103
v 25 32 100
v 27 34 100
v 24 38 100
v 21 35 100
v 4 -7 112
v -4 -7 112
v -5 -8 108
v 5 -8 108
v 10 -5 108
v 9 -4 112
v 4 9 112
v -4 9 112
v -9 6 112
v -9 -4 112
v -10 -5 108
v -10 7 108
v -5 10 108
v 5 10 108
v 9 6 112
v 10 7 108
v 2 4 108
v -2 4 108
v -3 3 100
v 3 3 100
v 2 8 108
v 3 9 100
v -2 8 108
v -3 9 100
v -3 -5 108
v -7 -5 108
v -8 -6 100
v -2 -6 100
v -3 -1 108
v -2 0 100
v -7 -1 108
v -8 0 100
v 7 -5 108
v 3 -5 108
v 2 -6 100
v 8 -6 100
v 7 -1 108
v 8 0 100
v 3 -1 108
v 2 0 100
v -39 -5 121
v -39 -11 122
v -38 -12 118
v -38 -4 117
v -43 -5 121
v -44 -4 117
v -43 -11 122
v -44 -12 118
v -43 -11 112
v -39 -11 112
v -39 -6 112
v -43 -6 112
v -44 -6 103
v -44 -12 103
v -38 -12 103
v -38 -6 103
v -39 -7 100
v -43 -7 100
v -43 -12 100
v -39 -12 100
v -45 -8 127
v -44 0 126
v -44 0 121
v -45 -8 121
v -42 -13 122
v -42 -13 126
v -37 -7 127
v -38 0 126
v -37 8 127
v -45 8 127
v -45 8 121
v -44 12 126
v -44 12 122
v -38 13 122
v -38 13 126
v -37 8 121
v -38 0 121
v -37 -7 121
v -38 -12 126
v -38 -12 122
v -43 5 121
v -43 11 122
v -44 12 118
v -44 4 117
v -39 5 121
v -38 4 117
v -39 11 122
v -38 12 118
v -39 11 112
v -43 11 112
v -43 6 112
v -39 6 112
v -38 6 103
v -38 12 103
v -44 12 103
v -44 6 103
v -43 7 100
v -39 7 100
v -39 12 100
v -43 12 100
v 41 -5 121
v 41 -11 122
v 42 -12 118
v 42 -4 117
v 37 -5 121
v 36 -4 117
v 37 -11 122
v 36 -12 118
v 37 -11 112
v 41 -11 112
v 41 -6 112
v 37 -6 112
v 36 -6 103
v 36 -12 103
v 42 -12 103
v 42 -6 103
v 41 -7 100
v 37 -7 100
v 37 -12 100
v 41 -12 100
v 36 -8 127
v 36 0 126
v 36 0 121
v 36 -8 121
v 38 -13 122
v 38 -13 126
v 44 -7 127
v 43 0 126
v 44 8 127
v 36 8 127
v 36 8 121
v 36 12 126
v 36 12 122
v 42 13 122
v 42 13 126
v 44 8 121
v 43 0 121
v 44 -7 121
v 43 -12 126
v 43 -12 122
v 37 5 121
v 37 11 122
v 36 12 118
v 36 4 117
v 41 5 121
v 42 4 117
v 41 11 122
v 42 12 118
v 41 11 112
v 37 11 112
v 37 6 112
v 41 6 112
v 42 6 103
v 42 12 103
v 36 12 103
v 36 6 103
v 37 7 100
v 41 7 100
v 41 12 100
v 37 12 100
v 5 -39 121
v 11 -39 122
v 12 -39 118
v 4 -39 117
v 5 -43 121
v 4 -44 117
v 11 -43 122
v 12 -44 118
v 11 -43 112
v 11 -39 112
v 6 -39 112
v 6 -43 112
v 6 -44 103
v 12 -44 103
v 12 -39 103
v 6 -39 103
v 7 -39 100
v 7 -43 100
v 12 -43 100
v 12 -39 100
v 8 -45 127
v 0 -44 126
v 0 -44 121
v 8 -45 121
v 13 -43 122
v 13 -43 126
v 7 -37 127
v 0 -38 126
v -8 -37 127
v -8 -45 127
v -8 -45 121
v -12 -44 126
v -12 -44 122
v -13 -39 122
v -13 -39 126
v -8 -37 121
v 0 -38 121
v 7 -37 121
v 12 -38 126
v 12 -38 122
v -5 -43 121
v -11 -43 122
v -12 -44 118
v -4 -44 117
v -5 -39 121
v -4 -39 117
v -11 -39 122
v -12 -39 118
v -11 -39 112
v -11 -43 112
v -6 -43 112
v -6 -39 112
v -6 -39 103
v -12 -39 103
v -12 -44 103
v -6 -44 103
v -7 -43 100
v -7 -39 100
v -12 -39 100
v -12 -43 100
v 5 43 121
v 11 43 122
v 12 44 118
v 4 44 117
v 5 39 121
v 4 38 117
v 11 39 122
v 12 38 118
v 11 39 112
v 11 43 112
v 6 43 112
v 6 39 112
v 6 38 103
v 12 38 103
v 12 44 103
v 6 44 103
v 7 43 100
v 7 39 100
v 12 39 100
v 12 43 100
v 8 37 127
v 0 38 126
v 0 38 121
v 8 37 121
v 13 40 122
v 13 40 126
v 7 45 127
v 0 44 126
v -8 45 127
v -8 37 127
v -8 37 121
v -12 38 126
v -12 38 122
v -13 44 122
v -13 44 126
v -8 45 121
v 0 44 121
v 7 45 121
v 12 44 126
v 12 44 122
v -5 39 121
v -11 39 122
v -12 38 118
v -4 38 117
v -5 43 121
v -4 44 117
v -11 43 122
v -12 44 118
v -11 43 112
v -11 39 112
v -6 39 112
v -6 43 112
v -6 44 103
v -12 44 103
v -12 38 103
v -6 38 103
v -7 39 100
v -7 43 100
v -12 43 100
v -12 39 100
v 64 -64 97
v 64 64 97
v -64 64 97
v -64 -64 97
v -62 -62 92
v 62 -62 92
v 62 62 92
v -62 62 92
v -62 62 89
v -62 -62 89
v 62 -62 89
v 62 62 89
v 64 64 8
v -64 64 8
v -64 -64 8
v 64 -64 8
v 64 -64 0
v 64 64 0
v -64 64 0
v -64 -64 0
v -55 -47 89
v -55 47 89
v -55 47 79
v -55 -47 79
v -57 -47 79
v -57 -47 89
v -57 -57 79
v -57 -57 89
v -47 -57 79
v -47 -57 89
v -47 -55 79
v -47 -55 89
v 47 -55 89
v -50 -55 64
v 47 -55 79
v 47 -57 79
v 47 -57 89
v 57 -57 79
v 57 -57 89
v 57 -47 79
v 57 -47 89
v 55 -47 79
v 55 -47 89
v 55 47 89
v 55 47 79
v 57 47 79
v 57 47 89
v 57 57 79
v 57 57 89
v 47 57 79
v 47 57 89
v 47 55 79
v 47 55 89
v -47 55 89
v 50 55 64
v -47 55 79
v -47 57 79
v -47 57 89
v -57 57 79
v -57 57 89
v -57 47 79
v -57 47 89
v -54 16 39
v -54 0 23
v -54 0 54
v -54 0 60
v -54 22 39
v -54 0 18
v -54 -16 39
v -54 -22 39
v -55 -24 39
v -55 0 62
v -55 24 39
v -55 0 15
v -55 50 64
v -55 55 67
v -51 51 64
v -51 51 15
v -55 50 15
v -55 55 79
v -50 55 64
v -50 55 15
v -55 55 12
v -55 55 8
v -55 -55 79
v -55 -50 64
v -55 -55 67
v -55 -50 15
v -51 -51 64
v -51 -51 15
v -50 -55 15
v 50 -55 64
v 55 -55 79
v 55 -55 67
v 55 -50 64
v 55 0 62
v 55 55 79
v 55 50 64
v 55 55 67
v -55 -55 12
v -55 -55 8
v 55 -55 8
v 50 -55 15
v 51 -51 64
v 51 -51 15
v 55 -50 15
v 55 -24 39
v 54 -22 39
v 54 0 60
v 55 24 39
v 55 50 15
v 51 51 64
v 51 51 15
v 50 55 15
v 55 -55 12
v 55 0 15
v 54 0 18
v 54 0 23
v 54 -16 39
v 54 0 54
v 54 22 39
v 55 55 8
v 55 55 12
v 54 16 39

f 1 2 3
f 1 3 4
f 1 4 5
f 1 5 2
f 2 5 6
f 2 6 7
f 2 7 3
f 3 7 4
f 4 7 8
f 4 8 5
f 5 8 6
f 5 6 9
f 5 9 10
f 5 10 11
f 5 11 12
f 5 12 6
f 6 12 13
f 6 13 9
f 9 13 14
f 9 14 10
f 10 14 11
f 10 11 15
f 10 15 16
f 10 16 17
f 10 17 11
f 6 8 7
f 7 8 16
f 7 16 18
f 7 18 19
f 7 19 20
f 7 20 8
f 8 20 21
f 8 21 16
f 16 21 17
f 16 17 18
f 18 17 19
f 18 19 22
f 18 22 9
f 18 9 14
f 18 14 19
f 23 15 24
f 23 24 25
f 23 25 16
f 23 16 15
f 15 11 24
f 16 25 17
f 26 22 27
f 26 27 28
f 26 28 9
f 26 9 22
f 9 28 14
f 22 19 27
f 29 30 31
f 29 31 32
f 29 32 33
f 33 32 34
f 33 34 35
f 35 34 36
f 35 36 30
f 30 36 31
f 31 36 37
f 31 37 38
f 31 38 32
f 32 38 39
f 32 39 34
f 34 39 40
f 34 40 36
f 36 40 37
f 37 40 41
f 37 41 42
f 37 42 38
f 38 42 43
f 38 43 39
f 39 43 44
f 39 44 40
f 40 44 41
f 41 44 45
f 41 45 46
f 41 46 42
f 42 46 47
f 42 47 43
f 43 47 48
f 43 48 44
f 44 48 45
f 49 50 51
f 49 51 52
f 49 52 53
f 49 53 54
f 49 54 55
f 49 55 50
f 50 55 56
f 50 56 57
f 50 57 58
f 50 58 51
f 51 58 59
f 59 58 60
f 59 60 61
f 61 60 62
f 62 60 63
f 62 63 57
f 62 57 64
f 64 57 56
f 64 56 65
f 65 56 66
f 66 56 55
f 66 55 67
f 66 67 68
f 68 67 53
f 53 67 54
f 54 67 55
f 58 57 63
f 58 63 60
f 69 70 71
f 69 71 72
f 69 72 73
f 73 72 74
f 73 74 75
f 75 74 76
f 75 76 70
f 70 76 71
f 71 76 77
f 71 77 78
f 71 78 72
f 72 78 79
f 72 79 74
f 74 79 80
f 74 80 76
f 76 80 77
f 77 80 81
f 77 81 82
f 77 82 78
f 78 82 83
f 78 83 79
f 79 83 84
f 79 84 80
f 80 84 81
f 81 84 85
f 81 85 86
f 81 86 82
f 82 86 87
f 82 87 83
f 83 87 88
f 83 88 84
f 84 88 85
f 89 90 91
f 89 91 92
f 89 92 93
f 93 92 94
f 93 94 95
f 95 94 96
f 95 96 90
f 90 96 91
f 91 96 97
f 91 97 98
f 91 98 92
f 92 98 99
f 92 99 94
f 94 99 100
f 94 100 96
f 96 100 97
f 97 100 101
f 97 101 102
f 97 102 98
f 98 102 103
f 98 103 99
f 99 103 104
f 99 104 100
f 100 104 101
f 101 104 105
f 101 105 106
f 101 106 102
f 102 106 107
f 102 107 103
f 103 107 108
f 103 108 104
f 104 108 105
f 109 110 111
f 109 111 112
f 109 112 113
f 109 113 114
f 109 114 115
f 109 115 110
f 110 115 116
f 110 116 117
f 110 117 118
f 110 118 111
f 111 118 119
f 119 118 120
f 119 120 121
f 121 120 122
f 122 120 123
f 122 123 117
f 122 117 124
f 124 117 116
f 124 116 125
f 125 116 126
f 126 116 115
f 126 115 127
f 126 127 128
f 128 127 113
f 113 127 114
f 114 127 115
f 118 117 123
f 118 123 120
f 129 130 131
f 129 131 132
f 129 132 133
f 133 132 134
f 133 134 135
f 135 134 136
f 135 136 130
f 130 136 131
f 131 136 137
f 131 137 138
f 131 138 132
f 132 138 139
f 132 139 134
f 134 139 140
f 134 140 136
f 136 140 137
f 137 140 141
f 137 141 142
f 137 142 138
f 138 142 143
f 138 143 139
f 139 143 144
f 139 144 140
f 140 144 141
f 141 144 145
f 141 145 146
f 141 146 142
f 142 146 147
f 142 147 143
f 143 147 148
f 143 148 144
f 144 148 145
f 149 150 151
f 149 151 152
f 149 152 153
f 153 152 154
f 153 154 155
f 155 154 156
f 155 156 150
f 150 156 151
f 151 156 157
f 151 157 158
f 151 158 152
f 152 158 159
f 152 159 154
f 154 159 160
f 154 160 156
f 156 160 157
f 157 160 161
f 157 161 162
f 157 162 158
f 158 162 163
f 158 163 159
f 159 163 164
f 159 164 160
f 160 164 161
f 161 164 165
f 161 165 166
f 161 166 162
f 162 166 167
f 162 167 163
f 163 167 168
f 163 168 164
f 164 168 165
f 169 170 171
f 169 171 172
f 169 172 173
f 169 173 174
f 169 174 175
f 169 175 170
f 170 175 176
f 170 176 177
f 170 177 178
f 170 178 171
f 171 178 179
f 179 178 180
f 179 180 181
f 181 180 182
f 182 180 183
f 182 183 177
f 182 177 184
f 184 177 176
f 184 176 185
f 185 176 186
f 186 176 175
f 186 175 187
f 186 187 188
f 188 187 173
f 173 187 174
f 174 187 175
f 178 177 183
f 178 183 180
f 189 190 191
f 189 191 192
f 189 192 193
f 193 192 194
f 193 194 195
f 195 194 196
f 195 196 190
f 190 196 191
f 191 196 197
f 191 197 198
f 191 198 192
f 192 198 199
f 192 199 194
f 194 199 200
f 194 200 196
f 196 200 197
f 197 200 201
f 197 201 202
f 197 202 198
f 198 202 203
f 198 203 199
f 199 203 204
f 199 204 200
f 200 204 201
f 201 204 205
f 201 205 206
f 201 206 202
f 202 206 207
f 202 207 203
f 203 207 208
f 203 208 204
f 204 208 205
f 209 210 211
f 209 211 212
f 209 212 213
f 213 212 214
f 213 214 215
f 215 214 216
f 215 216 210
f 210 216 211
f 211 216 217
f 211 217 218
f 211 218 212
f 212 218 219
f 212 219 214
f 214 219 220
f 214 220 216
f 216 220 217
f 217 220 221
f 217 221 222
f 217 222 218
f 218 222 223
f 218 223 219
f 219 223 224
f 219 224 220
f 220 224 221
f 221 224 225
f 221 225 226
f 221 226 222
f 222 226 227
f 222 227 223
f 223 227 228
f 223 228 224
f 224 228 225
f 229 230 231
f 229 231 232
f 229 232 233
f 229 233 234
f 229 234 235
f 229 235 230
f 230 235 236
f 230 236 237
f 230 237 238
f 230 238 231
f 231 238 239
f 239 238 240
f 239 240 241
f 241 240 242
f 242 240 243
f 242 243 237
f 242 237 244
f 244 237 236
f 244 236 245
f 245 236 246
f 246 236 235
f 246 235 247
f 246 247 248
f 248 247 233
f 233 247 234
f 234 247 235
f 238 237 243
f 238 243 240
f 249 250 251
f 249 251 252
f 249 252 253
f 253 252 254
f 253 254 255
f 255 254 256
f 255 256 250
f 250 256 251
f 251 256 257
f 251 257 258
f 251 258 252
f 252 258 259
f 252 259 254
f 254 259 260
f 254 260 256
f 256 260 257
f 257 260 261
f 257 261 262
f 257 262 258
f 258 262 263
f 258 263 259
f 259 263 264
f 259 264 260
f 260 264 261
f 261 264 265
f 261 265 266
f 261 266 262
f 262 266 267
f 262 267 263
f 263 267 268
f 263 268 264
f 264 268 265
f 269 270 271
f 269 271 272
f 269 272 273
f 269 273 274
f 269 274 275
f 269 275 270
f 270 275 276
f 270 276 277
f 270 277 278
f 270 278 271
f 271 278 279
f 279 278 280
f 280 278 277
f 280 277 276
f 280 276 281
f 281 276 282
f 282 276 275
f 282 275 283
f 282 283 284
f 284 283 273
f 273 283 274
f 274 283 275
f 285 286 287
f 285 287 288
f 285 288 289
f 289 288 290
f 289 290 291
f 291 290 292
f 291 292 286
f 286 292 287
f 293 294 295
f 293 295 296
f 293 296 297
f 297 296 298
f 297 298 299
f 299 298 300
f 299 300 294
f 294 300 295
f 301 302 303
f 301 303 304
f 301 304 305
f 305 304 306
f 305 306 307
f 307 306 308
f 307 308 302
f 302 308 303
f 309 310 311
f 309 311 312
f 309 312 313
f 313 312 314
f 313 314 315
f 315 314 316
f 315 316 310
f 310 316 311
f 311 316 317
f 311 317 318
f 311 318 312
f 312 318 319
f 312 319 314
f 314 319 320
f 314 320 316
f 316 320 317
f 317 320 321
f 317 321 322
f 317 322 318
f 318 322 323
f 318 323 319
f 319 323 324
f 319 324 320
f 320 324 321
f 321 324 325
f 321 325 326
f 321 326 322
f 322 326 327
f 322 327 323
f 323 327 328
f 323 328 324
f 324 328 325
f 329 330 331
f 329 331 332
f 329 332 333
f 329 333 334
f 329 334 335
f 329 335 330
f 330 335 336
f 330 336 337
f 330 337 338
f 330 338 331
f 331 338 339
f 339 338 340
f 339 340 341
f 341 340 342
f 342 340 343
f 342 343 337
f 342 337 344
f 344 337 336
f 344 336 345
f 345 336 346
f 346 336 335
f 346 335 347
f 346 347 348
f 348 347 333
f 333 347 334
f 334 347 335
f 338 337 343
f 338 343 340
f 349 350 351
f 349 351 352
f 349 352 353
f 353 352 354
f 353 354 355
f 355 354 356
f 355 356 350
f 350 356 351
f 351 356 357
f 351 357 358
f 351 358 352
f 352 358 359
f 352 359 354
f 354 359 360
f 354 360 356
f 356 360 357
f 357 360 361
f 357 361 362
f 357 362 358
f 358 362 363
f 358 363 359
f 359 363 364
f 359 364 360
f 360 364 361
f 361 364 365
f 361 365 366
f 361 366 362
f 362 366 367
f 362 367 363
f 363 367 368
f 363 368 364
f 364 368 365
f 369 370 371
f 369 371 372
f 369 372 373
f 373 372 374
f 373 374 375
f 375 374 376
f 375 376 370
f 370 376 371
f 371 376 377
f 371 377 378
f 371 378 372
f 372 378 379
f 372 379 374
f 374 379 380
f 374 380 376
f 376 380 377
f 377 380 381
f 377 381 382
f 377 382 378
f 378 382 383
f 378 383 379
f 379 383 384
f 379 384 380
f 380 384 381
f 381 384 385
f 381 385 386
f 381 386 382
f 382 386 387
f 382 387 383
f 383 387 388
f 383 388 384
f 384 388 385
f 389 390 391
f 389 391 392
f 389 392 393
f 389 393 394
f 389 394 395
f 389 395 390
f 390 395 396
f 390 396 397
f 390 397 398
f 390 398 391
f 391 398 399
f 399 398 400
f 399 400 401
f 401 400 402
f 402 400 403
f 402 403 397
f 402 397 404
f 404 397 396
f 404 396 405
f 405 396 406
f 406 396 395
f 406 395 407
f 406 407 408
f 408 407 393
f 393 407 394
f 394 407 395
f 398 397 403
f 398 403 400
f 409 410 411
f 409 411 412
f 409 412 413
f 413 412 414
f 413 414 415
f 415 414 416
f 415 416 410
f 410 416 411
f 411 416 417
f 411 417 418
f 411 418 412
f 412 418 419
f 412 419 414
f 414 419 420
f 414 420 416
f 416 420 417
f 417 420 421
f 417 421 422
f 417 422 418
f 418 422 423
f 418 423 419
f 419 423 424
f 419 424 420
f 420 424 421
f 421 424 425
f 421 425 426
f 421 426 422
f 422 426 427
f 422 427 423
f 423 427 428
f 423 428 424
f 424 428 425
f 429 430 431
f 429 431 432
f 429 432 433
f 433 432 434
f 433 434 435
f 435 434 436
f 435 436 430
f 430 436 431
f 431 436 437
f 431 437 438
f 431 438 432
f 432 438 439
f 432 439 434
f 434 439 440
f 434 440 436
f 436 440 437
f 437 440 441
f 437 441 442
f 437 442 438
f 438 442 443
f 438 443 439
f 439 443 444
f 439 444 440
f 440 444 441
f 441 444 445
f 441 445 446
f 441 446 442
f 442 446 447
f 442 447 443
f 443 447 448
f 443 448 444
f 444 448 445
f 449 450 451
f 449 451 452
f 449 452 453
f 449 453 454
f 449 454 455
f 449 455 450
f 450 455 456
f 450 456 457
f 450 457 458
f 450 458 451
f 451 458 459
f 459 458 460
f 459 460 461
f 461 460 462
f 462 460 463
f 462 463 457
f 462 457 464
f 464 457 456
f 464 456 465
f 465 456 466
f 466 456 455
f 466 455 467
f 466 467 468
f 468 467 453
f 453 467 454
f 454 467 455
f 458 457 463
f 458 463 460
f 469 470 471
f 469 471 472
f 469 472 473
f 473 472 474
f 473 474 475
f 475 474 476
f 475 476 470
f 470 476 471
f 471 476 477
f 471 477 478
f 471 478 472
f 472 478 479
f 472 479 474
f 474 479 480
f 474 480 476
f 476 480 477
f 477 480 481
f 477 481 482
f 477 482 478
f 478 482 483
f 478 483 479
f 479 483 484
f 479 484 480
f 480 484 481
f 481 484 485
f 481 485 486
f 481 486 482
f 482 486 487
f 482 487 483
f 483 487 488
f 483 488 484
f 484 488 485
f 489 490 491
f 489 491 492
f 489 492 493
f 493 492 494
f 493 494 495
f 495 494 496
f 495 496 490
f 490 496 491
f 491 496 497
f 491 497 498
f 491 498 492
f 492 498 499
f 492 499 494
f 494 499 500
f 494 500 496
f 496 500 497
f 497 500 501
f 497 501 502
f 497 502 498
f 498 502 503
f 498 503 499
f 499 503 504
f 499 504 500
f 500 504 501
f 501 504 505
f 501 505 506
f 501 506 502
f 502 506 507
f 502 507 503
f 503 507 508
f 503 508 504
f 504 508 505
f 509 510 511
f 509 511 512
f 509 512 513
f 509 513 514
f 509 514 515
f 509 515 510
f 510 515 516
f 510 516 517
f 510 517 518
f 510 518 511
f 511 518 519
f 519 518 520
f 519 520 521
f 521 520 522
f 522 520 523
f 522 523 517
f 522 517 524
f 524 517 516
f 524 516 525
f 525 516 526
f 526 516 515
f 526 515 527
f 526 527 528
f 528 527 513
f 513 527 514
f 514 527 515
f 518 517 523
f 518 523 520
f 529 530 531
f 529 531 532
f 529 532 533
f 533 532 534
f 533 534 535
f 535 534 536
f 535 536 530
f 530 536 531
f 531 536 537
f 531 537 538
f 531 538 532
f 532 538 539
f 532 539 534
f 534 539 540
f 534 540 536
f 536 540 537
f 537 540 541
f 537 541 542
f 537 542 538
f 538 542 543
f 538 543 539
f 539 543 544
f 539 544 540
f 540 544 541
f 541 544 545
f 541 545 546
f 541 546 542
f 542 546 547
f 542 547 543
f 543 547 548
f 543 548 544
f 544 548 545
f 13 20 21
f 13 21 12
f 13 12 549
f 13 549 550
f 13 550 20
f 20 550 551
f 20 551 21
f 21 551 552
f 21 552 12
f 12 552 549
f 549 552 553
f 549 553 554
f 549 554 550
f 550 554 555
f 550 555 551
f 551 555 556
f 551 556 552
f 552 556 553
f 553 556 557
f 553 557 558
f 553 558 554
f 554 558 559
f 554 559 555
f 555 559 560
f 555 560 556
f 556 560 557
f 561 562 563
f 561 563 564
f 561 564 565
f 561 565 566
f 561 566 562
f 562 566 567
f 562 567 563
f 563 567 568
f 563 568 564
f 564 568 565
f 569 570 571
f 569 571 572
f 569 572 573
f 569 573 574
f 574 573 575
f 574 575 576
f 576 575 577
f 576 577 578
f 578 577 579
f 578 579 580
f 580 579 581
f 581 579 582
f 581 582 583
f 581 583 584
f 581 584 585
f 585 584 586
f 585 586 587
f 587 586 588
f 587 588 589
f 589 588 590
f 589 590 591
f 591 590 592
f 592 590 593
f 592 593 594
f 592 594 595
f 595 594 596
f 595 596 597
f 597 596 598
f 597 598 599
f 599 598 600
f 599 600 601
f 601 600 602
f 602 600 603
f 602 603 604
f 602 604 605
f 602 605 606
f 606 605 607
f 606 607 608
f 608 607 609
f 608 609 610
f 610 609 571
f 610 571 570
f 611 612 613
f 611 613 614
f 611 614 615
f 611 615 612
f 612 615 616
f 612 616 617
f 612 617 613
f 613 617 618
f 613 618 614
f 614 618 619
f 614 619 620
f 614 620 615
f 615 620 621
f 615 621 616
f 616 621 622
f 616 622 618
f 616 618 617
f 623 624 625
f 623 625 626
f 623 626 627
f 623 627 621
f 623 621 620
f 623 620 628
f 623 628 624
f 624 628 629
f 624 629 625
f 625 629 630
f 625 630 626
f 626 630 631
f 626 631 627
f 627 631 632
f 627 632 622
f 627 622 621
f 571 620 572
f 572 620 633
f 633 620 634
f 633 634 635
f 633 635 582
f 633 582 579
f 571 628 620
f 618 622 619
f 619 622 636
f 619 636 634
f 619 634 620
f 634 637 635
f 635 637 582
f 582 637 638
f 582 638 639
f 582 639 640
f 582 640 583
f 583 640 641
f 641 640 642
f 641 642 643
f 641 643 644
f 641 644 590
f 590 644 593
f 593 644 645
f 645 644 646
f 645 646 647
f 645 647 603
f 645 603 600
f 638 636 648
f 638 648 639
f 639 648 649
f 639 649 650
f 639 650 651
f 639 651 640
f 640 651 652
f 640 652 642
f 642 652 643
f 643 652 653
f 643 653 654
f 643 654 655
f 643 655 644
f 644 655 656
f 644 656 657
f 644 657 658
f 644 658 646
f 646 658 659
f 646 659 660
f 646 660 647
f 647 660 603
f 603 660 661
f 603 661 662
f 603 662 629
f 603 629 604
f 604 629 628
f 636 638 637
f 636 637 634
f 648 636 649
f 649 636 622
f 649 622 632
f 653 651 663
f 653 663 654
f 654 663 650
f 654 650 664
f 654 664 655
f 655 664 665
f 655 665 656
f 656 665 666
f 656 666 667
f 656 667 657
f 657 667 668
f 657 668 669
f 657 669 658
f 658 669 664
f 658 664 659
f 659 664 670
f 659 670 671
f 659 671 661
f 659 661 660
f 651 653 652
f 663 651 650
f 667 666 668
f 668 666 672
f 668 672 669
f 669 672 665
f 669 665 664
f 672 666 665
f 650 670 664
f 631 630 632
f 632 630 662
f 632 662 670
f 670 662 671
f 671 662 661
f 662 630 629
