# RS2 Model 25599
# Vertices: 330
# Faces: 546

v 10 31 101
v -37 -21 101
v -8 -45 101
v 38 8 101
v 27 26 101
v 10 31 100
v -14 31 100
v -14 31 101
v -37 2 101
v -37 -21 100
v -26 -39 100
v -26 -39 101
v -8 -45 100
v 15 -44 100
v 15 -44 101
v 38 -15 101
v 38 8 100
v 27 26 100
v -31 21 101
v -37 2 100
v 34 -33 101
v 38 -15 100
v -31 21 100
v 34 -33 100
v -9 24 144
v -14 26 137
v -16 25 141
v -13 23 144
v -11 18 146
v -5 13 140
v -3 19 139
v -8 21 132
v 4 12 131
v -1 15 124
v 9 8 126
v 6 10 119
v 14 4 122
v 9 7 114
v 13 4 112
v 17 2 118
v 9 -7 115
v 9 0 111
v 4 3 113
v 5 -4 119
v 0 0 124
v 1 6 118
v -5 5 128
v -5 11 124
v -12 10 136
v -12 17 132
v -18 15 141
v -18 22 136
v -10 20 138
v 16 -4 119
v 12 -1 123
v 7 3 127
v 2 7 132
v -21 45 140
v -28 43 135
v -26 41 141
v -20 41 143
v -19 41 146
v -19 47 140
v -29 43 134
v -31 33 140
v -29 35 140
v -26 36 143
v -22 38 145
v -25 32 147
v -18 27 140
v -11 35 139
v -12 42 134
v -22 37 127
v -25 26 134
v 11 23 112
v 15 19 108
v 5 14 101
v 0 19 106
v -5 23 112
v 5 27 117
v 12 16 117
v 15 13 112
v 3 3 108
v -2 7 112
v -7 12 117
v -15 18 124
v -12 29 117
v -2 33 124
v 5 21 123
v 5 8 118
v 9 5 113
v -1 13 124
v -8 19 130
v -1 27 129
v 0 -3 137
v 15 -15 133
v 11 -13 123
v 0 -3 113
v -11 5 124
v -14 8 132
v -3 -6 137
v 12 -19 133
v 25 -29 114
v 28 -26 114
v 18 -18 112
v 31 -29 101
v 8 -10 101
v 8 -10 112
v 5 -13 112
v 16 -21 112
v 6 -13 101
v 28 -32 101
v 9 -16 123
v -3 -6 113
v -8 -13 113
v 0 -19 112
v 1 -20 101
v -9 -17 101
v -13 -8 112
v -15 -7 101
v -8 -2 112
v -10 -1 101
v -21 8 113
v -31 17 101
v -28 14 116
v -29 20 101
v -26 17 116
v -18 11 113
v -7 2 101
v -6 1 112
v -2 6 112
v -3 7 101
v 9 11 101
v 13 7 108
v 16 4 101
v 11 -5 112
v 12 -6 101
v -17 5 132
v 4 1 113
v -13 2 124
v -4 -8 112
v -7 -8 112
v -7 -8 143
v -4 -8 143
v -5 -11 112
v -5 -11 143
v -1 -6 145
v 0 -7 145
v 9 2 119
v 8 3 120
v -5 -5 145
v -4 -4 145
v -9 16 133
v -11 15 133
v -3 -13 143
v -1 -9 143
v -3 -14 145
v -9 -12 143
v -9 -11 145
v -6 -7 143
v -6 -6 145
v -2 -6 143
v -6 -7 145
v -3 -7 145
v -3 -9 148
v -4 -9 145
v -4 -11 145
v -6 -12 145
v -8 -10 145
v -7 -9 148
v -2 -11 148
v -4 -7 148
v -4 -7 151
v -2 -11 151
v -6 -12 148
v -7 -9 151
v -5 -10 153
v -6 -12 151
v 51 -51 194
v 51 51 194
v -51 51 194
v -51 -51 194
v 51 -51 190
v 51 51 190
v -51 51 190
v -51 -51 190
v 47 51 190
v 47 -51 190
v 47 -51 100
v 51 -51 100
v 51 51 100
v 47 51 100
v 47 -47 190
v -47 -51 190
v -47 -51 100
v -47 51 190
v -47 51 100
v -51 51 100
v -51 -51 100
v -47 47 190
v -47 -47 190
v 47 -47 100
v -47 -47 100
v 47 47 190
v -47 47 100
v 47 47 100
v 64 -64 97
v 64 64 97
v -64 64 97
v -64 -64 97
v -62 -62 92
v 62 -62 92
v 62 62 92
v -62 62 92
v -62 62 89
v -62 -62 89
v 62 -62 89
v 62 62 89
v -55 -47 89
v -55 47 89
v -55 47 79
v -55 -47 79
v -57 -47 79
v -57 -47 89
v -57 -57 79
v -57 -57 89
v -47 -57 79
v -47 -57 89
v -47 -55 79
v -47 -55 89
v 47 -55 89
v -50 -55 64
v 47 -55 79
v 47 -57 79
v 47 -57 89
v 57 -57 79
v 57 -57 89
v 57 -47 79
v 57 -47 89
v 55 -47 79
v 55 -47 89
v 55 47 89
v 55 47 79
v 57 47 79
v 57 47 89
v 57 57 79
v 57 57 89
v 47 57 79
v 47 57 89
v 47 55 79
v 47 55 89
v -47 55 89
v 50 55 64
v -47 55 79
v -47 57 79
v -47 57 89
v -57 57 79
v -57 57 89
v -57 47 79
v -57 47 89
v -54 16 39
v -54 0 23
v -54 0 54
v -54 0 60
v -54 22 39
v -54 0 18
v -54 -16 39
v -54 -22 39
v -55 -24 39
v -55 0 62
v -55 24 39
v -55 0 15
v -55 50 64
v -55 55 67
v -51 51 64
v -51 51 15
v -55 50 15
v -55 55 79
v -50 55 64
v -50 55 15
v -55 55 12
v -55 55 8
v -55 -55 79
v -55 -50 64
v -55 -55 67
v -55 -50 15
v -51 -51 64
v -51 -51 15
v -50 -55 15
v 50 -55 64
v 55 -55 79
v 55 -55 67
v 55 -50 64
v 55 0 62
v 55 55 79
v 55 50 64
v 55 55 67
v -55 -55 12
v -55 -55 8
v 55 -55 8
v 50 -55 15
v 51 -51 64
v 51 -51 15
v 55 -50 15
v 55 -24 39
v 54 -22 39
v 54 0 60
v 55 24 39
v 55 50 15
v 51 51 64
v 51 51 15
v 50 55 15
v 55 -55 12
v 55 0 15
v 54 0 18
v 54 0 23
v 54 -16 39
v 54 0 54
v 54 22 39
v 55 55 8
v 55 55 12
v 54 16 39
v 64 64 8
v -64 64 8
v -64 -64 8
v 64 -64 8
v 64 -64 0
v 64 64 0
v -64 64 0
v -64 -64 0

f 1 2 3
f 1 3 4
f 1 4 5
f 1 5 6
f 1 6 7
f 1 7 8
f 1 8 2
f 2 8 9
f 2 9 10
f 2 10 11
f 2 11 12
f 2 12 3
f 3 12 13
f 3 13 14
f 3 14 15
f 3 15 16
f 3 16 4
f 4 16 17
f 4 17 18
f 4 18 5
f 5 18 6
f 9 8 19
f 9 19 20
f 9 20 10
f 16 15 21
f 16 21 22
f 16 22 17
f 8 7 23
f 8 23 19
f 19 23 20
f 12 11 13
f 15 14 24
f 15 24 21
f 21 24 22
f 25 26 27
f 25 27 28
f 25 28 29
f 25 29 30
f 25 30 31
f 25 31 26
f 26 31 32
f 32 31 33
f 32 33 34
f 34 33 35
f 34 35 36
f 36 35 37
f 36 37 38
f 38 37 39
f 39 37 40
f 39 40 41
f 39 41 42
f 42 41 43
f 43 41 44
f 43 44 45
f 43 45 46
f 46 45 47
f 46 47 48
f 48 47 49
f 48 49 50
f 50 49 51
f 50 51 52
f 52 51 27
f 52 27 26
f 51 29 28
f 51 28 27
f 27 28 53
f 27 53 28
f 44 41 54
f 44 54 55
f 44 55 56
f 44 56 45
f 45 56 57
f 45 57 47
f 47 57 30
f 47 30 49
f 49 30 29
f 49 29 51
f 55 54 40
f 55 40 37
f 55 37 35
f 55 35 56
f 56 35 33
f 56 33 57
f 57 33 31
f 57 31 30
f 40 54 41
f 58 59 60
f 58 60 61
f 58 61 62
f 58 62 63
f 58 63 64
f 58 64 59
f 59 64 65
f 59 65 66
f 59 66 60
f 60 66 67
f 60 67 68
f 60 68 61
f 61 68 62
f 62 68 69
f 62 69 70
f 62 70 71
f 62 71 63
f 63 71 72
f 63 72 64
f 64 72 73
f 64 73 65
f 65 73 74
f 65 74 69
f 65 69 67
f 65 67 66
f 69 68 67
f 75 76 77
f 75 77 78
f 75 78 79
f 75 79 80
f 75 80 81
f 75 81 76
f 76 81 82
f 76 82 77
f 77 82 83
f 77 83 78
f 78 83 84
f 78 84 85
f 78 85 79
f 79 85 86
f 79 86 87
f 79 87 80
f 80 87 88
f 80 88 89
f 80 89 81
f 81 89 90
f 81 90 82
f 82 90 91
f 82 91 83
f 83 91 84
f 84 91 90
f 84 90 92
f 84 92 85
f 85 92 93
f 85 93 86
f 86 93 70
f 86 70 74
f 86 74 87
f 87 74 73
f 87 73 88
f 88 73 72
f 88 72 94
f 88 94 89
f 89 94 92
f 89 92 90
f 92 94 93
f 93 94 71
f 93 71 70
f 71 94 72
f 74 70 69
f 95 96 97
f 95 97 98
f 95 98 99
f 95 99 100
f 95 100 101
f 95 101 102
f 95 102 96
f 96 102 103
f 96 103 104
f 96 104 97
f 97 104 105
f 105 104 106
f 105 106 107
f 105 107 108
f 105 108 109
f 105 109 110
f 110 109 111
f 110 111 112
f 110 112 103
f 110 103 113
f 113 103 102
f 113 102 101
f 113 101 114
f 113 114 109
f 109 114 115
f 109 115 116
f 109 116 111
f 111 116 117
f 117 116 118
f 118 116 115
f 118 115 119
f 118 119 120
f 120 119 121
f 120 121 122
f 122 121 123
f 122 123 124
f 124 123 125
f 124 125 126
f 126 125 127
f 126 127 128
f 126 128 129
f 129 128 130
f 129 130 131
f 129 131 132
f 132 131 133
f 133 131 134
f 133 134 135
f 135 134 136
f 135 136 137
f 137 136 108
f 137 108 107
f 127 125 138
f 127 138 100
f 127 100 128
f 128 100 99
f 104 103 112
f 104 112 106
f 98 130 99
f 130 98 139
f 130 139 131
f 131 139 134
f 134 139 136
f 136 139 98
f 136 98 108
f 108 98 97
f 138 101 100
f 101 138 140
f 101 140 114
f 114 140 121
f 114 121 119
f 114 119 115
f 130 128 123
f 130 123 121
f 140 138 123
f 123 138 125
f 141 142 143
f 141 143 144
f 141 144 145
f 145 144 146
f 145 146 142
f 142 146 143
f 147 148 149
f 147 149 150
f 147 150 148
f 148 150 149
f 151 152 153
f 151 153 152
f 153 151 154
f 153 154 151
f 155 156 148
f 155 148 157
f 155 157 158
f 158 157 159
f 158 159 160
f 160 159 161
f 160 161 162
f 162 161 147
f 147 161 163
f 147 163 164
f 147 164 148
f 148 164 165
f 148 165 166
f 148 166 157
f 157 166 167
f 157 167 168
f 157 168 159
f 159 168 169
f 159 169 161
f 161 169 163
f 163 169 170
f 163 170 165
f 163 165 164
f 171 172 173
f 171 173 174
f 171 174 175
f 171 175 168
f 171 168 167
f 171 167 165
f 165 167 166
f 172 170 176
f 172 176 173
f 173 176 177
f 173 177 174
f 174 177 178
f 174 178 175
f 175 178 170
f 175 170 169
f 175 169 168
f 170 178 176
f 176 178 177
f 170 172 165
f 165 172 151
f 151 172 152
f 152 172 165
f 179 180 181
f 179 181 182
f 179 182 183
f 179 183 180
f 180 183 184
f 180 184 185
f 180 185 181
f 181 185 182
f 182 185 186
f 182 186 183
f 183 186 184
f 183 184 187
f 183 187 188
f 183 188 189
f 183 189 190
f 183 190 184
f 184 190 191
f 184 191 187
f 187 191 192
f 187 192 188
f 188 192 189
f 188 189 193
f 188 193 194
f 188 194 195
f 188 195 189
f 184 186 185
f 185 186 194
f 185 194 196
f 185 196 197
f 185 197 198
f 185 198 186
f 186 198 199
f 186 199 194
f 194 199 195
f 194 195 196
f 196 195 197
f 196 197 200
f 196 200 187
f 196 187 192
f 196 192 197
f 201 193 202
f 201 202 203
f 201 203 194
f 201 194 193
f 193 189 202
f 194 203 195
f 204 200 205
f 204 205 206
f 204 206 187
f 204 187 200
f 187 206 192
f 200 197 205
f 191 198 199
f 191 199 190
f 191 190 207
f 191 207 208
f 191 208 198
f 198 208 209
f 198 209 199
f 199 209 210
f 199 210 190
f 190 210 207
f 207 210 211
f 207 211 212
f 207 212 208
f 208 212 213
f 208 213 209
f 209 213 214
f 209 214 210
f 210 214 211
f 211 214 215
f 211 215 216
f 211 216 212
f 212 216 217
f 212 217 213
f 213 217 218
f 213 218 214
f 214 218 215
f 219 220 221
f 219 221 222
f 219 222 223
f 219 223 224
f 224 223 225
f 224 225 226
f 226 225 227
f 226 227 228
f 228 227 229
f 228 229 230
f 230 229 231
f 231 229 232
f 231 232 233
f 231 233 234
f 231 234 235
f 235 234 236
f 235 236 237
f 237 236 238
f 237 238 239
f 239 238 240
f 239 240 241
f 241 240 242
f 242 240 243
f 242 243 244
f 242 244 245
f 245 244 246
f 245 246 247
f 247 246 248
f 247 248 249
f 249 248 250
f 249 250 251
f 251 250 252
f 252 250 253
f 252 253 254
f 252 254 255
f 252 255 256
f 256 255 257
f 256 257 258
f 258 257 259
f 258 259 260
f 260 259 221
f 260 221 220
f 261 262 263
f 261 263 264
f 261 264 265
f 261 265 262
f 262 265 266
f 262 266 267
f 262 267 263
f 263 267 268
f 263 268 264
f 264 268 269
f 264 269 270
f 264 270 265
f 265 270 271
f 265 271 266
f 266 271 272
f 266 272 268
f 266 268 267
f 273 274 275
f 273 275 276
f 273 276 277
f 273 277 271
f 273 271 270
f 273 270 278
f 273 278 274
f 274 278 279
f 274 279 275
f 275 279 280
f 275 280 276
f 276 280 281
f 276 281 277
f 277 281 282
f 277 282 272
f 277 272 271
f 221 270 222
f 222 270 283
f 283 270 284
f 283 284 285
f 283 285 232
f 283 232 229
f 221 278 270
f 268 272 269
f 269 272 286
f 269 286 284
f 269 284 270
f 284 287 285
f 285 287 232
f 232 287 288
f 232 288 289
f 232 289 290
f 232 290 233
f 233 290 291
f 291 290 292
f 291 292 293
f 291 293 294
f 291 294 240
f 240 294 243
f 243 294 295
f 295 294 296
f 295 296 297
f 295 297 253
f 295 253 250
f 288 286 298
f 288 298 289
f 289 298 299
f 289 299 300
f 289 300 301
f 289 301 290
f 290 301 302
f 290 302 292
f 292 302 293
f 293 302 303
f 293 303 304
f 293 304 305
f 293 305 294
f 294 305 306
f 294 306 307
f 294 307 308
f 294 308 296
f 296 308 309
f 296 309 310
f 296 310 297
f 297 310 253
f 253 310 311
f 253 311 312
f 253 312 279
f 253 279 254
f 254 279 278
f 286 288 287
f 286 287 284
f 298 286 299
f 299 286 272
f 299 272 282
f 303 301 313
f 303 313 304
f 304 313 300
f 304 300 314
f 304 314 305
f 305 314 315
f 305 315 306
f 306 315 316
f 306 316 317
f 306 317 307
f 307 317 318
f 307 318 319
f 307 319 308
f 308 319 314
f 308 314 309
f 309 314 320
f 309 320 321
f 309 321 311
f 309 311 310
f 301 303 302
f 313 301 300
f 317 316 318
f 318 316 322
f 318 322 319
f 319 322 315
f 319 315 314
f 322 316 315
f 300 320 314
f 281 280 282
f 282 280 312
f 282 312 320
f 320 312 321
f 321 312 311
f 312 280 279
f 323 324 325
f 323 325 326
f 323 326 327
f 323 327 328
f 323 328 324
f 324 328 329
f 324 329 325
f 325 329 330
f 325 330 326
f 326 330 327
