# RS2 Model 25709
# Vertices: 189
# Faces: 362

v 14 2 119
v 8 -7 117
v 9 -7 112
v 16 3 115
v 8 10 119
v 9 12 116
v 0 12 119
v 0 14 116
v -9 12 116
v -8 10 119
v -16 3 115
v -14 2 119
v -9 -7 112
v -8 -7 117
v 0 -9 111
v 0 -9 116
v 0 -10 105
v 10 -9 105
v 19 0 105
v 10 15 107
v 0 17 107
v -10 15 107
v -19 0 105
v -10 -9 105
v 3 -7 99
v 10 -11 92
v 20 1 96
v 12 10 90
v 0 13 97
v -12 10 90
v -20 1 96
v -10 -11 92
v -3 -7 99
v 0 -7 99
v 0 0 95
v 2 -6 90
v 9 -11 75
v 18 0 73
v 10 10 71
v -10 10 71
v -18 0 73
v -9 -11 75
v -2 -6 90
v 1 1 72
v 8 -10 52
v 11 -8 52
v 16 0 53
v 8 7 55
v 3 1 54
v 5 -8 52
v 4 -11 52
v 5 -12 55
v 8 -12 56
v 13 -12 55
v 14 -11 52
v 15 -8 44
v 17 1 44
v 8 9 46
v 2 1 44
v 4 -9 44
v 9 -14 51
v 5 -4 31
v 9 -10 44
v 11 -13 58
v 9 -13 60
v 7 -13 58
v 10 -2 19
v 10 -6 31
v 6 -1 19
v 10 -2 13
v 13 1 19
v 14 -4 31
v 15 2 31
v 4 2 31
v 6 4 19
v 6 3 14
v 6 0 13
v 5 -1 9
v 10 -4 9
v 14 1 13
v 14 3 14
v 14 3 19
v 6 -12 -4
v 6 -7 -3
v 15 -6 -3
v 14 -12 -4
v 12 -16 -3
v 8 -17 -3
v 6 -14 1
v 5 -8 3
v 5 -2 3
v 6 -2 -1
v 15 -2 -1
v 15 -2 3
v 15 -7 2
v 14 -14 -1
v 12 -17 0
v 10 -18 -2
v 10 -19 0
v 8 -18 0
v 10 -13 2
v 10 -9 5
v 5 4 7
v 6 5 0
v 14 5 0
v 14 4 6
v 14 -1 8
v 10 11 4
v 13 5 -4
v 10 9 -4
v 10 8 14
v 10 7 20
v 9 8 32
v 7 5 -4
v 6 1 -4
v 0 1 -4
v 0 9 -4
v -6 1 -4
v -1 1 72
v -3 1 54
v -8 7 55
v -16 0 53
v -11 -8 52
v -8 -10 52
v -5 -8 52
v -2 1 44
v -8 9 46
v -17 1 44
v -15 -8 44
v -14 -11 52
v -13 -12 55
v -8 -12 56
v -5 -12 55
v -4 -11 52
v -4 -9 44
v -5 -4 31
v -4 2 31
v -9 8 32
v -15 2 31
v -14 -4 31
v -10 -6 31
v -9 -10 44
v -9 -14 51
v -11 -13 58
v -9 -13 60
v -7 -13 58
v -10 -2 19
v -6 -1 19
v -6 4 19
v -10 7 20
v -14 3 19
v -13 1 19
v -6 -12 -4
v -14 -12 -4
v -15 -6 -3
v -6 -7 -3
v -5 -8 3
v -6 -14 1
v -8 -17 -3
v -12 -16 -3
v -12 -17 0
v -14 -14 -1
v -15 -7 2
v -15 -2 3
v -15 -2 -1
v -6 -2 -1
v -5 -2 3
v -5 -1 9
v -10 -4 9
v -10 -9 5
v -10 -13 2
v -8 -18 0
v -10 -19 0
v -10 -18 -2
v -14 -1 8
v -14 4 6
v -14 5 0
v -6 5 0
v -5 4 7
v -6 3 14
v -6 0 13
v -10 -2 13
v -14 1 13
v -14 3 14
v -10 8 14
v -10 11 4
v -13 5 -4
v -7 5 -4
v -10 9 -4

f 1 2 3
f 1 3 4
f 1 4 5
f 5 4 6
f 5 6 7
f 7 6 8
f 7 8 9
f 7 9 10
f 10 9 11
f 10 11 12
f 12 11 13
f 12 13 14
f 14 13 15
f 14 15 16
f 16 15 2
f 2 15 3
f 3 15 17
f 3 17 18
f 3 18 4
f 4 18 19
f 4 19 6
f 6 19 20
f 6 20 21
f 6 21 8
f 8 21 9
f 9 21 22
f 9 22 23
f 9 23 11
f 11 23 24
f 11 24 13
f 13 24 17
f 13 17 15
f 18 17 25
f 18 25 26
f 18 26 19
f 19 26 27
f 19 27 20
f 20 27 28
f 20 28 29
f 20 29 21
f 21 29 22
f 22 29 30
f 22 30 31
f 22 31 23
f 23 31 32
f 23 32 24
f 24 32 33
f 24 33 17
f 17 33 34
f 17 34 25
f 25 34 35
f 25 35 36
f 25 36 26
f 26 36 37
f 26 37 38
f 26 38 27
f 27 38 28
f 28 38 39
f 28 39 35
f 28 35 29
f 29 35 30
f 30 35 40
f 30 40 41
f 30 41 31
f 31 41 32
f 32 41 42
f 32 42 43
f 32 43 33
f 33 43 35
f 33 35 34
f 36 44 37
f 37 44 45
f 37 45 38
f 38 45 46
f 38 46 47
f 38 47 48
f 38 48 39
f 39 48 49
f 39 49 44
f 39 44 35
f 35 44 36
f 44 50 45
f 45 50 51
f 45 51 52
f 45 52 53
f 45 53 54
f 45 54 55
f 45 55 46
f 46 55 56
f 46 56 57
f 46 57 47
f 47 57 48
f 48 57 58
f 48 58 59
f 48 59 49
f 49 59 50
f 49 50 44
f 60 61 51
f 60 51 50
f 60 50 59
f 60 59 62
f 60 62 63
f 60 63 61
f 61 63 56
f 61 56 55
f 61 55 54
f 61 54 64
f 61 64 65
f 61 65 66
f 61 66 52
f 61 52 51
f 67 68 62
f 67 62 69
f 67 69 70
f 67 70 71
f 67 71 72
f 67 72 68
f 68 72 56
f 68 56 63
f 68 63 62
f 72 73 57
f 72 57 56
f 69 62 74
f 69 74 75
f 69 75 76
f 69 76 77
f 69 77 70
f 70 77 78
f 70 78 79
f 70 79 80
f 70 80 71
f 71 80 81
f 71 81 82
f 71 82 73
f 71 73 72
f 83 84 85
f 83 85 86
f 83 86 87
f 83 87 88
f 83 88 89
f 83 89 90
f 83 90 84
f 84 90 91
f 84 91 92
f 84 92 85
f 85 92 93
f 85 93 94
f 85 94 95
f 85 95 96
f 85 96 86
f 86 96 97
f 86 97 87
f 87 97 98
f 87 98 88
f 88 98 99
f 88 99 100
f 88 100 89
f 89 100 101
f 89 101 102
f 89 102 90
f 90 102 79
f 90 79 78
f 90 78 91
f 91 78 103
f 91 103 104
f 91 104 92
f 92 104 105
f 92 105 93
f 93 105 94
f 94 105 106
f 94 106 107
f 94 107 95
f 95 107 79
f 95 79 102
f 95 102 96
f 96 102 101
f 96 101 97
f 97 101 99
f 97 99 98
f 108 106 105
f 108 105 109
f 108 109 110
f 108 110 104
f 108 104 103
f 108 103 111
f 108 111 106
f 106 111 81
f 106 81 80
f 106 80 107
f 107 80 79
f 78 77 76
f 78 76 103
f 103 76 111
f 111 76 112
f 111 112 81
f 81 112 82
f 82 112 73
f 73 112 113
f 73 113 58
f 73 58 57
f 110 114 104
f 104 114 105
f 105 114 109
f 109 114 110
f 115 116 117
f 117 116 118
f 58 113 74
f 58 74 59
f 59 74 62
f 53 66 65
f 53 65 64
f 53 64 54
f 101 100 99
f 75 112 76
f 112 75 74
f 112 74 113
f 53 52 66
f 43 42 119
f 43 119 35
f 35 119 40
f 40 119 120
f 40 120 121
f 40 121 41
f 41 121 122
f 41 122 123
f 41 123 124
f 41 124 42
f 42 124 119
f 119 124 125
f 119 125 120
f 120 125 126
f 120 126 121
f 121 126 127
f 121 127 128
f 121 128 122
f 122 128 123
f 123 128 129
f 123 129 130
f 123 130 124
f 124 130 131
f 124 131 132
f 124 132 133
f 124 133 134
f 124 134 125
f 125 134 135
f 125 135 126
f 126 135 136
f 126 136 137
f 126 137 127
f 127 137 138
f 127 138 139
f 127 139 128
f 128 139 140
f 128 140 129
f 129 140 141
f 129 141 142
f 129 142 143
f 129 143 130
f 130 143 131
f 131 143 144
f 131 144 132
f 132 144 145
f 132 145 146
f 132 146 133
f 133 146 143
f 133 143 134
f 134 143 135
f 135 143 142
f 135 142 136
f 136 142 141
f 136 141 147
f 136 147 148
f 136 148 137
f 137 148 149
f 137 149 150
f 137 150 138
f 138 150 139
f 139 150 151
f 139 151 152
f 139 152 140
f 140 152 147
f 140 147 141
f 153 154 155
f 153 155 156
f 153 156 157
f 153 157 158
f 153 158 159
f 153 159 160
f 153 160 154
f 154 160 161
f 154 161 162
f 154 162 155
f 155 162 163
f 155 163 164
f 155 164 165
f 155 165 166
f 155 166 156
f 156 166 167
f 156 167 157
f 157 167 168
f 157 168 169
f 157 169 170
f 157 170 158
f 158 170 171
f 158 171 172
f 158 172 159
f 159 172 173
f 159 173 174
f 159 174 160
f 160 174 161
f 161 174 173
f 161 173 171
f 161 171 162
f 162 171 170
f 162 170 163
f 163 170 169
f 163 169 175
f 163 175 164
f 164 175 176
f 164 176 177
f 164 177 165
f 165 177 166
f 166 177 178
f 166 178 167
f 167 178 179
f 167 179 168
f 168 179 180
f 168 180 181
f 168 181 182
f 168 182 169
f 169 182 183
f 169 183 175
f 175 183 176
f 176 183 184
f 176 184 185
f 176 185 186
f 176 186 177
f 177 186 187
f 177 187 188
f 177 188 178
f 178 188 189
f 178 189 186
f 178 186 179
f 179 186 185
f 179 185 180
f 180 185 150
f 180 150 149
f 180 149 148
f 180 148 181
f 181 148 182
f 182 148 147
f 182 147 152
f 182 152 183
f 183 152 184
f 184 152 151
f 184 151 150
f 184 150 185
f 143 145 144
f 145 143 146
f 187 186 189
f 187 189 188
f 171 173 172
