# RS2 Model 25701
# Vertices: 105
# Faces: 193

v 18 1 46
v 17 0 55
v 8 -10 55
v 9 -8 45
v 9 -5 30
v 16 2 30
v 9 12 45
v 8 9 55
v 1 2 44
v 2 1 55
v 8 12 30
v 3 2 30
v 13 2 19
v 8 9 19
v 5 2 19
v 8 -2 19
v 8 -12 65
v 13 -8 62
v 8 -9 55
v 4 -6 63
v 12 2 14
v 8 8 15
v 6 2 14
v 8 -2 14
v 11 -1 10
v 12 2 10
v 8 8 11
v 6 2 10
v 6 -2 10
v 5 -6 3
v 8 -7 4
v 11 -6 3
v 13 -3 -2
v 13 3 5
v 8 9 6
v 5 3 5
v 4 -4 -2
v 9 -15 -3
v 5 -13 -3
v 5 -13 -4
v 9 -15 -4
v 12 -12 -4
v 12 -12 -3
v 13 -3 -4
v 12 2 2
v 8 7 2
v 6 2 2
v 5 -3 -4
v 10 2 -4
v 8 6 -4
v 7 2 -4
v -17 0 55
v -18 1 46
v -8 -10 55
v -13 -8 62
v -8 -9 55
v -8 -12 65
v -4 -6 63
v -2 1 55
v -1 2 44
v -8 9 55
v -9 12 45
v -9 -8 45
v -9 -5 30
v -3 2 30
v -8 12 30
v -16 2 30
v -13 2 19
v -8 9 19
v -12 2 14
v -8 -2 19
v -5 2 19
v -6 2 14
v -8 8 15
v -8 8 11
v -12 2 10
v -11 -1 10
v -8 -2 14
v -13 -3 -2
v -13 3 5
v -12 2 2
v -13 -3 -4
v -12 -12 -3
v -11 -6 3
v -8 -7 4
v -5 -6 3
v -6 -2 10
v -6 2 10
v -4 -4 -2
v -5 3 5
v -8 9 6
v -8 7 2
v -8 6 -4
v -10 2 -4
v -6 2 2
v -5 -3 -4
v -12 -12 -4
v -9 -15 -3
v -5 -13 -3
v -9 -15 -4
v -5 -13 -4
v -7 2 -4
v -6 -2 -4
v 0 6 -4
v 6 -2 -4

f 1 2 3
f 1 3 4
f 1 4 5
f 1 5 6
f 1 6 7
f 1 7 8
f 1 8 2
f 9 4 3
f 9 3 10
f 9 10 8
f 9 8 7
f 9 7 11
f 9 11 12
f 9 12 5
f 9 5 4
f 7 6 11
f 11 6 13
f 11 13 14
f 11 14 15
f 11 15 12
f 12 15 5
f 5 15 16
f 5 16 13
f 5 13 6
f 17 3 18
f 17 18 19
f 17 19 20
f 17 20 3
f 3 20 10
f 10 20 19
f 3 2 18
f 18 2 19
f 16 21 13
f 13 21 14
f 14 21 22
f 14 22 23
f 14 23 15
f 15 23 16
f 16 23 24
f 16 24 21
f 21 24 25
f 21 25 26
f 21 26 27
f 21 27 22
f 22 27 23
f 23 27 28
f 23 28 29
f 23 29 24
f 24 29 30
f 24 30 31
f 24 31 32
f 24 32 25
f 25 32 26
f 26 32 33
f 26 33 34
f 26 34 35
f 26 35 27
f 27 35 28
f 28 35 36
f 28 36 37
f 28 37 30
f 28 30 29
f 38 32 31
f 38 31 30
f 38 30 39
f 38 39 40
f 38 40 41
f 38 41 42
f 38 42 43
f 38 43 32
f 32 43 33
f 33 43 44
f 33 44 45
f 33 45 34
f 34 45 46
f 34 46 35
f 35 46 36
f 36 46 47
f 36 47 48
f 36 48 37
f 37 48 40
f 37 40 39
f 37 39 30
f 48 41 40
f 41 48 42
f 42 48 44
f 42 44 43
f 48 45 44
f 45 48 47
f 45 47 49
f 45 49 50
f 45 50 46
f 46 50 51
f 46 51 47
f 47 51 49
f 49 51 50
f 52 53 54
f 52 54 55
f 52 55 56
f 56 55 57
f 56 57 58
f 56 58 59
f 59 58 54
f 59 54 60
f 59 60 61
f 61 60 62
f 61 62 53
f 61 53 52
f 53 63 54
f 54 63 60
f 60 63 64
f 60 64 65
f 60 65 66
f 60 66 62
f 62 66 67
f 62 67 53
f 53 67 64
f 53 64 63
f 68 66 69
f 68 69 70
f 68 70 71
f 68 71 64
f 68 64 67
f 68 67 66
f 69 66 72
f 69 72 73
f 69 73 74
f 69 74 70
f 70 74 75
f 70 75 76
f 70 76 77
f 70 77 78
f 70 78 71
f 71 78 73
f 71 73 72
f 71 72 64
f 64 72 65
f 65 72 66
f 54 57 55
f 57 54 58
f 79 76 80
f 79 80 81
f 79 81 82
f 79 82 83
f 79 83 84
f 79 84 76
f 76 84 77
f 77 84 78
f 78 84 85
f 78 85 86
f 78 86 87
f 78 87 73
f 73 87 88
f 73 88 75
f 73 75 74
f 88 89 90
f 88 90 91
f 88 91 75
f 75 91 76
f 76 91 80
f 80 91 92
f 80 92 81
f 81 92 93
f 81 93 94
f 81 94 95
f 81 95 96
f 81 96 82
f 82 96 97
f 82 97 83
f 83 97 98
f 83 98 84
f 84 98 85
f 85 98 86
f 86 98 99
f 86 99 89
f 86 89 88
f 86 88 87
f 100 96 101
f 100 101 98
f 100 98 97
f 100 97 96
f 95 94 102
f 95 102 92
f 95 92 90
f 95 90 96
f 96 90 89
f 96 89 101
f 101 89 99
f 101 99 98
f 92 102 93
f 93 102 94
f 90 92 91
f 103 104 105
