# RS2 Model 25705
# Vertices: 80
# Faces: 146

v 0 14 200
v 4 14 199
v 0 19 194
v -4 14 199
v 0 8 198
v 5 8 197
v 7 15 196
v 8 16 194
v 8 19 188
v 0 21 184
v -8 19 188
v -8 16 194
v -7 15 196
v -5 8 197
v 0 4 197
v 5 4 196
v 9 5 192
v 9 9 193
v 10 11 190
v 10 13 187
v 10 15 184
v 9 15 183
v 0 16 181
v -8 15 184
v -9 15 184
v -10 11 190
v -9 9 193
v -9 5 192
v -5 4 196
v 0 -16 198
v 6 -16 197
v 11 -14 192
v 13 -12 188
v 11 7 189
v 10 12 187
v 11 9 186
v 12 11 185
v 12 13 186
v 13 13 184
v 10 12 183
v 10 14 180
v 10 17 171
v 10 20 172
v 9 20 172
v 9 17 171
v 9 14 180
v 9 12 183
v 0 13 180
v -8 12 183
v -9 12 183
v -11 7 189
v -13 -12 188
v -11 -14 192
v -6 -16 197
v 0 -16 197
v 6 -16 196
v 10 -14 192
v 12 -12 188
v 14 -8 183
v -14 -8 183
v -12 -12 188
v -10 -14 192
v -6 -16 196
v -4 4 196
v 0 4 196
v 4 4 196
v 8 5 192
v 10 7 189
v 13 -8 183
v 13 -1 179
v -12 -1 179
v -10 7 189
v -13 -8 183
v -13 -1 179
v -8 5 192
v 10 10 175
v 10 12 172
v 9 10 175
v 9 12 172
v 12 -1 179

f 1 2 3
f 1 3 4
f 1 4 5
f 1 5 2
f 2 5 6
f 2 6 7
f 2 7 3
f 3 7 8
f 3 8 9
f 3 9 10
f 3 10 11
f 3 11 12
f 3 12 13
f 3 13 4
f 4 13 14
f 4 14 5
f 5 14 15
f 5 15 16
f 5 16 6
f 6 16 17
f 6 17 18
f 6 18 7
f 7 18 8
f 8 18 19
f 8 19 9
f 9 19 20
f 9 20 21
f 9 21 10
f 10 21 22
f 10 22 23
f 10 23 11
f 11 23 24
f 11 24 25
f 11 25 12
f 12 25 26
f 12 26 27
f 12 27 13
f 13 27 14
f 14 27 28
f 14 28 29
f 14 29 15
f 15 29 30
f 15 30 16
f 16 30 31
f 16 31 32
f 16 32 17
f 17 32 33
f 17 33 34
f 17 34 18
f 18 34 19
f 19 34 20
f 20 34 35
f 20 35 36
f 20 36 37
f 20 37 38
f 20 38 21
f 21 38 39
f 21 39 40
f 21 40 41
f 21 41 42
f 21 42 43
f 21 43 44
f 21 44 22
f 22 44 45
f 22 45 46
f 22 46 47
f 22 47 48
f 22 48 23
f 23 48 49
f 23 49 24
f 24 49 50
f 24 50 25
f 25 50 26
f 26 50 51
f 26 51 27
f 27 51 28
f 28 51 52
f 28 52 53
f 28 53 29
f 29 53 54
f 29 54 30
f 30 54 55
f 30 55 56
f 30 56 31
f 31 56 32
f 32 56 57
f 32 57 58
f 32 58 33
f 33 58 59
f 33 59 36
f 33 36 34
f 34 36 35
f 51 60 52
f 52 60 61
f 52 61 53
f 53 61 62
f 53 62 63
f 53 63 54
f 54 63 55
f 55 63 64
f 55 64 65
f 55 65 66
f 55 66 56
f 56 66 57
f 57 66 67
f 57 67 58
f 58 67 68
f 58 68 69
f 58 69 59
f 59 69 70
f 59 70 36
f 36 70 40
f 36 40 37
f 37 40 39
f 37 39 38
f 71 49 72
f 71 72 73
f 71 73 74
f 71 74 49
f 49 74 50
f 50 74 51
f 51 74 60
f 60 74 73
f 60 73 61
f 61 73 72
f 61 72 75
f 61 75 62
f 62 75 64
f 62 64 63
f 76 77 41
f 76 41 40
f 76 40 47
f 76 47 78
f 76 78 77
f 77 78 79
f 77 79 41
f 41 79 46
f 41 46 42
f 42 46 45
f 47 46 79
f 47 79 78
f 40 70 80
f 40 80 47
f 47 80 68
f 68 80 69
f 69 80 70
