# RS2 Model 25753
# Vertices: 457
# Faces: 907

v -23 -71 272
v -25 -72 277
v -22 -78 273
v -17 -89 267
v -15 -84 265
v -29 -74 271
v -39 -60 280
v -35 -56 277
v -29 -68 278
v -29 -70 280
v -35 -79 279
v -32 -78 281
v -30 -82 279
v -20 -87 261
v -16 -95 250
v -13 -97 256
v -12 -93 253
v -34 -94 287
v -36 -92 289
v -33 -90 287
v -36 -96 294
v -33 -69 277
v -33 -58 280
v -39 -55 283
v -42 -57 283
v -41 -57 277
v -42 -45 279
v -40 -43 278
v -35 -54 280
v -29 -72 286
v -34 -70 286
v -30 -69 285
v -30 -71 295
v -42 -55 282
v -42 -55 286
v -38 -43 281
v -40 -33 287
v -7 -78 218
v -15 -83 205
v -11 -100 231
v 0 -84 229
v 0 -78 220
v 0 -58 204
v -9 -65 199
v -22 -73 180
v -19 -87 176
v -15 -100 186
v -15 -105 212
v -16 -111 222
v -11 -105 232
v -12 -102 238
v -12 -94 236
v -7 -103 234
v 0 -93 235
v 11 -100 231
v 7 -78 218
v 11 -65 199
v 17 -56 186
v 0 -45 198
v -17 -56 186
v -29 -58 155
v -16 -87 153
v 0 -101 140
v 0 -104 157
v 0 -112 161
v 0 -113 174
v -14 -110 189
v -12 -130 206
v -12 -120 215
v -12 -121 220
v -13 -122 223
v -16 -123 227
v -11 -113 233
v -5 -107 236
v -7 -100 239
v -14 -99 244
v -18 -100 239
v -15 -90 236
v -5 -116 233
v -9 -116 243
v -14 -113 242
v -9 -110 245
v 0 -107 237
v -12 -113 250
v -14 -125 260
v -12 -128 259
v -15 -128 257
v -13 -128 268
v -16 -101 247
v -11 -98 249
v -13 -103 254
v -20 -102 263
v -21 -104 262
v -22 -101 261
v -22 -102 268
v -5 -135 211
v -11 -126 219
v 0 -126 230
v 0 -119 234
v -10 -130 194
v 0 -120 183
v 0 -129 188
v 0 -141 187
v -8 -143 191
v -10 -147 200
v -8 -152 191
v -8 -157 196
v -8 -156 200
v -6 -149 204
v -6 -158 190
v 0 -151 183
v 6 -158 190
v 0 -159 196
v 9 -143 191
v 8 -152 191
v 8 -157 196
v 4 -157 197
v 0 -159 198
v -4 -157 197
v 0 -158 204
v 0 -151 208
v 0 -140 214
v 0 -137 216
v 0 -132 221
v 11 -126 219
v 16 -123 227
v 5 -116 233
v 14 -110 189
v 10 -130 194
v 12 -130 206
v 11 -147 200
v 8 -156 200
v 6 -149 204
v 5 -135 211
v 12 -120 215
v 12 -121 220
v 13 -122 223
v 16 -111 222
v 11 -113 233
v 11 -114 244
v 6 -117 245
v 5 -107 236
v 7 -103 234
v 7 -100 239
v 11 -94 235
v 11 -105 232
v 15 -105 212
v 15 -83 205
v 22 -73 180
v 29 -58 155
v 17 -43 183
v 0 -33 191
v -17 -43 183
v -19 -35 178
v -32 -44 155
v -34 -48 133
v -32 -58 105
v -27 -69 138
v -16 -66 107
v 0 -85 113
v 0 -91 108
v 16 -87 153
v 19 -87 176
v 15 -100 186
v -20 -84 244
v -22 -92 251
v -22 -96 246
v -22 -86 248
v 27 -69 138
v 32 -58 105
v 34 -48 133
v 32 -44 155
v 19 -35 178
v 0 -16 187
v 6 -111 247
v 7 -99 251
v 13 -102 249
v 9 -114 253
v 10 -123 254
v 11 -124 250
v 9 -125 251
v 9 -131 256
v 10 -129 258
v 11 -130 255
v 10 -134 265
v 10 -102 257
v 10 -96 259
v 9 -94 255
v 13 -96 253
v 18 -85 267
v 21 -89 263
v 15 -100 263
v 18 -99 261
v 16 -102 262
v 18 -100 268
v 19 -90 269
v 24 -83 281
v 25 -78 280
v 30 -78 279
v 38 -81 286
v 33 -85 286
v 27 -77 284
v 28 -74 287
v 28 -72 285
v 28 -58 292
v 31 -52 289
v 36 -57 290
v 32 -71 284
v 34 -81 289
v 40 -85 298
v 43 -85 301
v 41 -87 299
v 45 -87 306
v 34 -66 294
v 30 -69 294
v 30 -66 293
v 31 -67 303
v 34 -56 297
v 31 -56 297
v 36 -53 292
v 29 -54 294
v 25 -45 301
v 27 -42 299
v 34 -54 297
v 33 -56 302
v 30 -45 301
v 22 -40 313
v 11 -102 237
v 16 -101 242
v 12 -100 246
v 13 -91 238
v 18 -85 246
v 20 -97 248
v 20 -93 254
v 20 -87 250
v -12 -27 174
v -26 -30 162
v -28 -33 162
v 0 0 184
v -16 2 178
v -27 4 159
v -26 5 134
v -27 -28 130
v -32 -35 132
v -14 5 107
v -17 -18 103
v -14 -28 93
v -28 -42 107
v -20 28 113
v 0 28 109
v 0 5 104
v 0 0 89
v 0 -7 87
v -25 27 128
v -23 29 155
v -31 35 154
v -32 35 126
v -13 34 96
v 0 38 113
v 13 34 96
v 20 28 113
v 14 5 107
v 14 -28 93
v 0 -17 64
v -17 -34 89
v 9 -46 84
v 0 -60 92
v -9 -46 84
v 0 -33 82
v 17 -34 89
v 11 -45 75
v 16 -58 82
v 14 -60 92
v 0 -65 76
v -14 -60 92
v -16 -58 82
v -11 -45 75
v 28 -42 107
v 27 -51 83
v 26 -45 74
v 17 -35 73
v 8 -45 65
v 16 -55 66
v 17 -54 77
v 16 -66 107
v -27 -51 83
v -17 -54 77
v -16 -55 66
v -8 -45 65
v -17 -35 73
v -26 -45 74
v 12 -27 174
v 28 -33 162
v 26 -30 162
v 16 2 178
v 32 -35 132
v 27 -28 130
v 26 5 134
v 27 4 159
v 23 29 155
v 12 31 175
v 0 32 184
v -12 31 175
v 25 27 128
v 31 35 154
v 9 69 173
v 0 58 187
v -9 69 173
v -18 88 165
v -33 76 150
v -38 83 117
v -34 58 75
v -17 57 71
v 0 67 112
v 17 57 71
v 34 58 75
v 32 35 126
v 33 76 150
v 18 88 165
v 9 81 175
v 0 80 181
v -9 81 175
v 0 93 171
v -3 93 159
v -7 95 152
v -19 90 153
v -23 93 130
v -26 95 111
v -18 88 70
v -28 84 50
v -21 72 45
v -12 78 68
v -7 93 98
v 0 97 116
v 7 93 98
v 12 78 68
v 21 72 45
v 28 84 50
v 18 88 70
v 26 95 111
v 38 83 117
v 23 93 130
v 19 90 153
v 7 95 152
v 3 93 159
v 17 -18 103
v 0 100 136
v 0 96 157
v -21 88 50
v -23 90 30
v -29 84 28
v -21 73 31
v -19 83 26
v -16 83 50
v -19 89 18
v -23 94 20
v -28 89 18
v -33 82 20
v -21 69 18
v -16 82 20
v -21 82 14
v -24 98 10
v -26 91 4
v -28 85 9
v -31 80 14
v -21 72 14
v -18 79 -1
v -28 87 -1
v 21 88 50
v 23 90 30
v 16 83 50
v 19 83 26
v 21 73 31
v 29 84 28
v 23 94 20
v 19 89 18
v -27 -45 65
v -23 -46 52
v -16 -50 52
v -11 -45 52
v -16 -36 53
v -17 -34 66
v -22 -47 29
v -14 -52 29
v -13 -47 28
v -16 -27 33
v -17 -34 30
v -26 -47 22
v -16 -54 24
v -11 -47 22
v -34 77 -1
v -23 61 -1
v 0 102 167
v -5 101 161
v -18 -31 13
v -17 -27 18
v -22 -49 16
v -13 -53 16
v -13 -47 16
v -18 -36 10
v -27 -52 0
v -16 -62 0
v -11 -50 0
v -19 -36 0
v 23 -46 52
v 27 -45 65
v 16 -50 52
v 22 -47 29
v 16 -36 53
v 17 -34 66
v 11 -45 52
v 14 -52 29
v 26 -47 22
v 17 -34 30
v 16 -27 33
v 13 -47 28
v 28 85 9
v 31 80 14
v 34 77 -1
v 28 87 -1
v 21 82 14
v 26 91 4
v 28 89 18
v 33 82 20
v 21 69 18
v 21 72 14
v 23 61 -1
v 18 79 -1
v 16 82 20
v 24 98 10
v 5 101 161
v 8 113 141
v 0 115 147
v -10 113 141
v 0 104 138
v 11 -47 22
v 17 -27 18
v 18 -31 13
v 13 -47 16
v 13 -53 16
v 16 -54 24
v 22 -49 16
v 18 -36 10
v 19 -36 0
v 11 -50 0
v 16 -62 0
v 27 -52 0
v 0 116 121
v 4 118 122
v 0 119 128
v -4 118 122
v 14 49 -19
v 8 127 168
v 6 -170 71
v -2 111 177
v -13 36 -10
v 0 -81 253

f 1 2 3
f 1 3 4
f 1 4 5
f 1 5 6
f 1 6 7
f 1 7 8
f 1 8 9
f 1 9 2
f 2 9 10
f 2 10 6
f 2 6 11
f 2 11 12
f 2 12 3
f 3 12 13
f 3 13 6
f 3 6 14
f 3 14 4
f 4 14 15
f 4 15 16
f 4 16 5
f 5 16 17
f 5 17 14
f 5 14 6
f 6 13 11
f 11 13 18
f 11 18 19
f 11 19 12
f 12 19 20
f 12 20 13
f 13 20 18
f 18 20 21
f 18 21 19
f 19 21 20
f 6 22 9
f 6 9 23
f 6 23 7
f 7 23 24
f 7 24 25
f 7 25 26
f 7 26 8
f 8 26 27
f 8 27 28
f 8 28 29
f 8 29 23
f 8 23 9
f 6 10 22
f 22 10 30
f 22 30 31
f 22 31 9
f 9 31 32
f 9 32 10
f 10 32 30
f 30 32 33
f 30 33 31
f 31 33 32
f 23 29 26
f 23 26 34
f 23 34 24
f 24 34 35
f 24 35 25
f 25 35 34
f 25 34 26
f 26 29 36
f 26 36 27
f 27 36 37
f 27 37 28
f 28 37 36
f 28 36 29
f 38 39 40
f 38 40 41
f 38 41 42
f 38 42 43
f 38 43 44
f 38 44 39
f 39 44 45
f 39 45 46
f 39 46 47
f 39 47 48
f 39 48 40
f 40 48 49
f 40 49 50
f 40 50 51
f 40 51 52
f 40 52 53
f 40 53 54
f 40 54 41
f 41 54 55
f 41 55 56
f 41 56 42
f 42 56 57
f 42 57 43
f 43 57 58
f 43 58 59
f 43 59 60
f 43 60 44
f 44 60 45
f 45 60 61
f 45 61 62
f 45 62 46
f 46 62 63
f 46 63 64
f 46 64 65
f 46 65 66
f 46 66 47
f 47 66 67
f 47 67 48
f 48 67 68
f 48 68 69
f 48 69 49
f 49 69 70
f 49 70 71
f 49 71 72
f 49 72 73
f 49 73 50
f 50 73 74
f 50 74 53
f 50 53 75
f 50 75 51
f 51 75 76
f 51 76 77
f 51 77 52
f 52 77 78
f 52 78 75
f 52 75 53
f 73 79 80
f 73 80 81
f 73 81 74
f 74 81 82
f 74 82 79
f 74 79 83
f 74 83 54
f 74 54 53
f 79 82 80
f 80 82 84
f 80 84 85
f 80 85 86
f 80 86 81
f 81 86 87
f 81 87 84
f 81 84 85
f 81 85 87
f 87 85 84
f 85 87 88
f 85 88 86
f 86 88 87
f 82 81 89
f 82 89 90
f 82 90 84
f 82 84 91
f 82 91 90
f 90 91 84
f 84 91 81
f 81 91 89
f 89 91 15
f 89 15 90
f 90 15 17
f 90 17 91
f 91 17 16
f 91 16 92
f 91 92 93
f 91 93 15
f 15 93 94
f 15 94 16
f 16 94 92
f 92 94 95
f 92 95 93
f 93 95 94
f 17 15 14
f 68 96 97
f 68 97 69
f 69 97 70
f 70 97 71
f 71 97 72
f 72 97 98
f 72 98 99
f 72 99 79
f 72 79 73
f 100 67 101
f 100 101 102
f 100 102 103
f 100 103 104
f 100 104 68
f 100 68 67
f 105 104 106
f 105 106 107
f 105 107 108
f 105 108 109
f 105 109 96
f 105 96 68
f 105 68 104
f 110 111 112
f 110 112 113
f 110 113 107
f 110 107 106
f 110 106 111
f 111 106 104
f 111 104 103
f 111 103 114
f 111 114 115
f 111 115 112
f 112 115 116
f 112 116 113
f 113 116 117
f 113 117 118
f 113 118 119
f 113 119 107
f 107 119 108
f 108 119 118
f 108 118 120
f 108 120 121
f 108 121 109
f 109 121 122
f 109 122 96
f 96 122 123
f 96 123 124
f 96 124 97
f 97 124 98
f 98 124 125
f 98 125 126
f 98 126 99
f 99 126 127
f 99 127 83
f 99 83 79
f 66 101 67
f 101 66 128
f 101 128 129
f 101 129 102
f 102 129 103
f 103 129 114
f 114 129 130
f 114 130 131
f 114 131 115
f 115 131 116
f 116 131 132
f 116 132 117
f 117 132 118
f 118 132 120
f 120 132 121
f 121 132 133
f 121 133 122
f 122 133 134
f 122 134 123
f 123 134 124
f 124 134 125
f 125 134 130
f 125 130 135
f 125 135 136
f 125 136 137
f 125 137 126
f 126 137 138
f 126 138 139
f 126 139 127
f 127 139 140
f 127 140 141
f 127 141 142
f 127 142 83
f 83 142 54
f 54 142 143
f 54 143 55
f 55 143 144
f 55 144 145
f 55 145 146
f 55 146 138
f 55 138 147
f 55 147 148
f 55 148 56
f 56 148 149
f 56 149 57
f 57 149 58
f 58 149 150
f 58 150 151
f 58 151 59
f 59 151 152
f 59 152 153
f 59 153 60
f 60 153 61
f 61 153 154
f 61 154 155
f 61 155 156
f 61 156 157
f 61 157 158
f 61 158 62
f 62 158 159
f 62 159 160
f 62 160 161
f 62 161 63
f 63 161 162
f 63 162 163
f 63 163 64
f 64 163 65
f 65 163 66
f 66 163 164
f 66 164 128
f 128 164 147
f 128 147 130
f 128 130 129
f 75 78 76
f 76 78 165
f 76 165 166
f 76 166 77
f 77 166 167
f 77 167 78
f 78 167 165
f 165 167 168
f 165 168 166
f 166 168 167
f 149 148 163
f 149 163 162
f 149 162 150
f 150 162 169
f 150 169 170
f 150 170 171
f 150 171 172
f 150 172 173
f 150 173 151
f 151 173 152
f 152 173 174
f 152 174 154
f 152 154 153
f 139 142 175
f 139 175 140
f 140 175 176
f 140 176 177
f 140 177 178
f 140 178 179
f 140 179 180
f 140 180 141
f 141 180 181
f 141 181 178
f 141 178 175
f 141 175 142
f 178 140 180
f 178 180 179
f 178 181 179
f 179 181 182
f 179 182 183
f 179 183 180
f 180 183 184
f 180 184 181
f 181 184 182
f 182 184 185
f 182 185 183
f 183 185 184
f 178 175 176
f 178 176 186
f 178 186 175
f 175 186 176
f 176 186 187
f 176 187 188
f 176 188 177
f 177 188 189
f 177 189 186
f 177 186 178
f 189 188 190
f 189 190 191
f 189 191 187
f 189 187 192
f 189 192 193
f 189 193 186
f 186 193 194
f 186 194 187
f 187 194 192
f 192 194 195
f 192 195 193
f 193 195 194
f 188 187 196
f 188 196 190
f 190 196 197
f 190 197 198
f 190 198 191
f 191 198 199
f 191 199 196
f 191 196 187
f 196 199 197
f 197 199 200
f 197 200 201
f 197 201 202
f 197 202 198
f 198 202 203
f 198 203 204
f 198 204 205
f 198 205 206
f 198 206 199
f 199 206 207
f 199 207 204
f 199 204 208
f 199 208 202
f 199 202 209
f 199 209 200
f 200 209 210
f 200 210 211
f 200 211 201
f 201 211 212
f 201 212 209
f 201 209 202
f 209 212 210
f 210 212 213
f 210 213 211
f 211 213 212
f 202 208 203
f 203 208 214
f 203 214 215
f 203 215 204
f 204 215 216
f 204 216 208
f 208 216 214
f 214 216 217
f 214 217 215
f 215 217 216
f 204 207 205
f 205 207 218
f 205 218 219
f 205 219 220
f 205 220 221
f 205 221 206
f 206 221 222
f 206 222 223
f 206 223 220
f 206 220 207
f 207 220 224
f 207 224 218
f 218 224 225
f 218 225 219
f 219 225 224
f 219 224 220
f 220 223 226
f 220 226 221
f 221 226 222
f 222 226 227
f 222 227 223
f 223 227 226
f 148 147 164
f 148 164 163
f 133 132 131
f 133 131 134
f 134 131 130
f 138 136 135
f 138 135 147
f 147 135 130
f 138 137 136
f 142 139 146
f 142 146 143
f 143 146 228
f 143 228 144
f 144 228 229
f 144 229 230
f 144 230 145
f 145 230 231
f 145 231 228
f 145 228 146
f 146 139 138
f 228 231 229
f 229 231 232
f 229 232 233
f 229 233 230
f 230 233 234
f 230 234 231
f 231 234 232
f 232 234 235
f 232 235 233
f 233 235 234
f 236 237 238
f 236 238 154
f 236 154 174
f 236 174 239
f 236 239 240
f 236 240 237
f 237 240 241
f 237 241 242
f 237 242 243
f 237 243 244
f 237 244 238
f 238 244 155
f 238 155 154
f 243 242 245
f 243 245 246
f 243 246 247
f 243 247 244
f 244 247 248
f 244 248 156
f 244 156 155
f 245 249 250
f 245 250 251
f 245 251 252
f 245 252 253
f 245 253 247
f 245 247 246
f 254 249 242
f 254 242 241
f 254 241 255
f 254 255 256
f 254 256 257
f 254 257 249
f 249 257 258
f 249 258 250
f 250 258 259
f 250 259 260
f 250 260 261
f 250 261 262
f 250 262 251
f 251 262 252
f 252 262 253
f 253 262 263
f 253 263 264
f 253 264 247
f 247 264 265
f 247 265 248
f 248 265 157
f 248 157 156
f 245 242 249
f 266 267 268
f 266 268 269
f 266 269 270
f 266 270 271
f 266 271 272
f 266 272 273
f 266 273 267
f 267 273 274
f 267 274 275
f 267 275 268
f 268 275 276
f 268 276 277
f 268 277 265
f 268 265 269
f 269 265 264
f 269 264 270
f 270 264 263
f 270 263 278
f 270 278 170
f 270 170 279
f 270 279 280
f 270 280 281
f 270 281 271
f 271 281 282
f 271 282 283
f 271 283 284
f 271 284 272
f 272 284 279
f 272 279 170
f 272 170 273
f 273 170 285
f 273 285 274
f 274 285 160
f 274 160 159
f 274 159 275
f 275 159 157
f 275 157 276
f 276 157 286
f 276 286 287
f 276 287 277
f 277 287 288
f 277 288 289
f 277 289 290
f 277 290 265
f 265 290 291
f 265 291 286
f 265 286 157
f 292 293 294
f 292 294 295
f 292 295 239
f 292 239 174
f 292 174 173
f 292 173 293
f 293 173 172
f 293 172 296
f 293 296 294
f 294 296 297
f 294 297 298
f 294 298 299
f 294 299 295
f 295 299 300
f 295 300 301
f 295 301 239
f 239 301 302
f 239 302 303
f 239 303 240
f 240 303 255
f 240 255 241
f 297 262 298
f 298 262 261
f 298 261 304
f 298 304 299
f 299 304 300
f 300 304 305
f 300 305 306
f 300 306 301
f 301 306 307
f 301 307 302
f 302 307 303
f 303 307 308
f 303 308 255
f 255 308 256
f 256 308 309
f 256 309 310
f 256 310 257
f 257 310 311
f 257 311 312
f 257 312 258
f 258 312 313
f 258 313 314
f 258 314 259
f 259 314 260
f 260 314 315
f 260 315 316
f 260 316 317
f 260 317 261
f 261 317 304
f 304 317 305
f 305 317 318
f 305 318 319
f 305 319 306
f 306 319 320
f 306 320 307
f 307 320 321
f 307 321 322
f 307 322 308
f 308 322 309
f 309 322 323
f 309 323 324
f 309 324 325
f 309 325 326
f 309 326 310
f 310 326 327
f 310 327 311
f 311 327 328
f 311 328 312
f 312 328 329
f 312 329 330
f 312 330 331
f 312 331 313
f 313 331 332
f 313 332 314
f 314 332 333
f 314 333 334
f 314 334 335
f 314 335 336
f 314 336 315
f 315 336 337
f 315 337 316
f 316 337 338
f 316 338 339
f 316 339 340
f 316 340 341
f 316 341 317
f 317 341 318
f 318 341 342
f 318 342 343
f 318 343 319
f 319 343 344
f 319 344 345
f 319 345 323
f 319 323 320
f 320 323 321
f 321 323 322
f 262 297 346
f 262 346 263
f 263 346 297
f 263 297 296
f 263 296 278
f 278 296 171
f 278 171 170
f 172 171 296
f 347 327 325
f 347 325 348
f 347 348 344
f 347 344 342
f 347 342 334
f 347 334 327
f 327 334 328
f 328 334 333
f 328 333 329
f 329 333 332
f 329 332 349
f 329 349 330
f 330 349 350
f 330 350 351
f 330 351 331
f 331 351 352
f 331 352 353
f 331 353 354
f 331 354 332
f 332 354 349
f 349 354 350
f 350 354 353
f 350 353 355
f 350 355 356
f 350 356 351
f 351 356 357
f 351 357 358
f 351 358 352
f 352 358 359
f 352 359 353
f 353 359 360
f 353 360 355
f 355 360 361
f 355 361 362
f 355 362 356
f 356 362 357
f 357 362 363
f 357 363 364
f 357 364 365
f 357 365 358
f 358 365 359
f 359 365 366
f 359 366 360
f 360 366 361
f 361 366 367
f 361 367 368
f 361 368 364
f 361 364 363
f 361 363 362
f 325 327 326
f 344 343 342
f 369 336 339
f 369 339 338
f 369 338 370
f 369 370 371
f 369 371 336
f 336 371 337
f 337 371 372
f 337 372 373
f 337 373 374
f 337 374 338
f 338 374 370
f 370 374 375
f 370 375 376
f 370 376 372
f 370 372 371
f 339 336 335
f 339 335 340
f 340 335 334
f 340 334 342
f 340 342 341
f 288 377 378
f 288 378 379
f 288 379 380
f 288 380 289
f 289 380 381
f 289 381 382
f 289 382 290
f 290 382 377
f 290 377 291
f 291 377 287
f 291 287 286
f 377 382 381
f 377 381 378
f 378 381 383
f 378 383 379
f 379 383 384
f 379 384 380
f 380 384 385
f 380 385 381
f 381 385 386
f 381 386 383
f 383 386 387
f 383 387 388
f 383 388 384
f 384 388 389
f 384 389 385
f 385 389 390
f 385 390 387
f 385 387 386
f 364 391 365
f 365 391 392
f 365 392 366
f 366 392 367
f 367 392 391
f 367 391 368
f 368 391 364
f 324 323 393
f 324 393 394
f 324 394 348
f 324 348 325
f 390 395 396
f 390 396 387
f 387 396 388
f 388 396 395
f 388 395 397
f 388 397 389
f 389 397 398
f 389 398 390
f 390 398 399
f 390 399 395
f 395 399 400
f 395 400 397
f 397 400 401
f 397 401 402
f 397 402 398
f 398 402 403
f 398 403 399
f 399 403 404
f 399 404 400
f 400 404 401
f 401 404 403
f 401 403 402
f 283 405 406
f 283 406 284
f 284 406 280
f 284 280 279
f 283 407 405
f 405 407 408
f 405 408 409
f 405 409 406
f 406 409 410
f 406 410 281
f 406 281 280
f 283 411 407
f 407 411 412
f 407 412 408
f 408 412 413
f 408 413 414
f 408 414 415
f 408 415 409
f 409 415 416
f 409 416 411
f 409 411 282
f 409 282 410
f 410 282 281
f 417 418 419
f 417 419 420
f 417 420 421
f 417 421 422
f 417 422 423
f 417 423 418
f 418 423 424
f 418 424 425
f 418 425 426
f 418 426 427
f 418 427 419
f 419 427 428
f 419 428 420
f 420 428 421
f 421 428 426
f 421 426 429
f 421 429 376
f 421 376 430
f 421 430 422
f 422 430 423
f 423 430 375
f 423 375 374
f 423 374 424
f 424 374 373
f 424 373 425
f 425 373 372
f 425 372 429
f 425 429 426
f 427 426 428
f 283 282 411
f 345 393 323
f 393 345 431
f 393 431 432
f 393 432 433
f 393 433 394
f 394 433 434
f 394 434 348
f 348 434 435
f 348 435 431
f 348 431 345
f 348 345 344
f 436 437 438
f 436 438 439
f 436 439 440
f 436 440 441
f 436 441 416
f 436 416 414
f 436 414 437
f 437 414 413
f 437 413 438
f 438 413 442
f 438 442 443
f 438 443 439
f 439 443 444
f 439 444 445
f 439 445 440
f 440 445 446
f 440 446 442
f 440 442 441
f 441 442 413
f 441 413 412
f 441 412 416
f 416 412 411
f 415 414 416
f 376 375 430
f 372 376 429
f 443 442 447
f 443 447 444
f 444 447 445
f 445 447 446
f 446 447 442
f 159 158 157
f 285 170 169
f 285 169 162
f 285 162 160
f 160 162 161
f 287 377 288
f 431 435 432
f 432 435 448
f 432 448 449
f 432 449 433
f 433 449 450
f 433 450 434
f 434 450 451
f 434 451 435
f 435 451 448
f 448 451 449
f 449 451 450
f 452 453 454
