# RS2 Model 25767
# Vertices: 377
# Faces: 497

v 224 -224 48
v -224 -224 48
v -240 -240 64
v 240 -240 64
v 224 224 48
v -224 224 48
v -240 240 64
v -256 256 64
v -256 -256 64
v 256 -256 64
v 240 240 64
v 256 256 64
v 256 256 32
v -256 256 32
v -256 -256 32
v 256 -256 32
v -240 240 16
v -240 -240 16
v 240 -240 16
v -240 240 0
v -240 -240 0
v 240 -240 0
v 240 240 16
v 240 240 0
v -126 44 50
v -128 42 50
v -126 38 50
v -124 38 50
v -122 42 50
v -118 44 48
v -125 49 48
v -132 44 48
v -128 36 48
v -120 34 48
v 155 -162 52
v 158 -161 52
v 158 -158 52
v 155 -157 52
v 152 -158 52
v 149 -158 48
v 152 -165 48
v 160 -165 48
v 162 -156 48
v 155 -150 48
v 151 62 53
v 154 63 53
v 154 66 53
v 151 68 53
v 148 65 53
v 142 66 48
v 146 57 48
v 158 57 48
v 160 69 48
v 151 75 48
v -156 -160 51
v -160 -160 51
v -161 -162 51
v -159 -164 51
v -155 -163 51
v -151 -165 48
v -154 -157 48
v -163 -156 48
v -167 -164 48
v -159 -169 48
v 177 -117 52
v 178 -120 52
v 181 -120 52
v 183 -117 52
v 181 -113 52
v 181 -110 48
v 174 -114 48
v 173 -122 48
v 182 -124 48
v 188 -117 48
v 80 -18 52
v 77 -19 52
v 77 -22 52
v 80 -24 52
v 84 -22 52
v 87 -22 48
v 83 -15 48
v 75 -14 48
v 73 -23 48
v 80 -29 48
v 129 -33 52
v 126 -35 52
v 128 -39 52
v 132 -39 52
v 133 -35 52
v 139 -32 48
v 131 -27 48
v 121 -32 48
v 124 -41 48
v 135 -43 48
v 174 -192 52
v 171 -194 52
v 172 -198 52
v 176 -199 52
v 178 -195 52
v 184 -194 48
v 178 -187 48
v 167 -190 48
v 168 -199 48
v 178 -203 48
v -82 161 50
v -84 159 50
v -82 155 50
v -80 155 50
v -78 159 50
v -74 161 48
v -81 166 48
v -88 161 48
v -84 153 48
v -76 151 48
v 91 -151 53
v 94 -150 53
v 94 -147 53
v 91 -145 53
v 88 -148 53
v 82 -147 48
v 86 -156 48
v 98 -156 48
v 100 -144 48
v 91 -138 48
v 81 -198 51
v 77 -198 51
v 76 -200 51
v 78 -202 51
v 82 -201 51
v 86 -203 48
v 83 -195 48
v 74 -194 48
v 70 -202 48
v 78 -207 48
v 103 76 52
v 104 73 52
v 107 73 52
v 109 76 52
v 107 80 52
v 107 83 48
v 100 79 48
v 99 71 48
v 108 69 48
v 114 76 48
v -117 101 52
v -120 100 52
v -120 97 52
v -117 94 52
v -113 97 52
v -110 97 48
v -114 104 48
v -122 105 48
v -124 96 48
v -117 90 48
v -175 52 52
v -178 50 52
v -177 46 52
v -173 45 52
v -171 49 52
v -165 50 48
v -171 57 48
v -182 54 48
v -181 45 48
v -171 41 48
v -85 204 50
v -87 202 50
v -85 198 50
v -83 198 50
v -81 202 50
v -77 204 48
v -84 209 48
v -91 204 48
v -87 196 48
v -79 194 48
v 109 6 52
v 112 7 52
v 112 10 52
v 109 11 52
v 106 10 52
v 103 10 48
v 106 3 48
v 114 3 48
v 116 12 48
v 109 18 48
v 189 153 53
v 192 154 53
v 192 157 53
v 189 159 53
v 186 156 53
v 180 157 48
v 184 148 48
v 196 148 48
v 198 160 48
v 189 166 48
v 131 159 51
v 127 159 51
v 126 157 51
v 128 155 51
v 132 156 51
v 136 154 48
v 133 162 48
v 124 163 48
v 120 155 48
v 128 150 48
v 180 55 52
v 181 52 52
v 184 52 52
v 186 55 52
v 184 59 52
v 184 62 48
v 177 58 48
v 176 50 48
v 185 48 48
v 191 55 48
v 175 1 52
v 172 0 52
v 172 -3 52
v 175 -5 52
v 179 -3 52
v 182 -3 48
v 178 4 48
v 170 5 48
v 168 -4 48
v 175 -10 48
v 108 191 52
v 105 190 52
v 105 187 52
v 108 184 52
v 112 187 52
v 115 187 48
v 111 194 48
v 103 195 48
v 101 186 48
v 108 180 48
v 109 116 52
v 106 114 52
v 108 110 52
v 112 110 52
v 113 114 52
v 119 117 48
v 111 122 48
v 101 117 48
v 104 108 48
v 115 106 48
v -119 -15 52
v -122 -17 52
v -121 -21 52
v -117 -22 52
v -115 -18 52
v -109 -17 48
v -115 -10 48
v -126 -13 48
v -125 -22 48
v -115 -26 48
v -194 202 50
v -196 200 50
v -194 196 50
v -192 196 50
v -190 200 50
v -186 202 48
v -193 207 48
v -200 202 48
v -196 194 48
v -188 192 48
v -87 -126 52
v -84 -125 52
v -84 -122 52
v -87 -121 52
v -90 -122 52
v -93 -122 48
v -90 -129 48
v -82 -129 48
v -80 -120 48
v -87 -114 48
v -129 -69 53
v -126 -68 53
v -126 -65 53
v -129 -63 53
v -132 -66 53
v -138 -65 48
v -134 -74 48
v -122 -74 48
v -120 -62 48
v -129 -56 48
v -190 -97 51
v -194 -97 51
v -195 -99 51
v -193 -101 51
v -189 -100 51
v -185 -102 48
v -188 -94 48
v -197 -93 48
v -201 -101 48
v -193 -106 48
v -171 -33 52
v -170 -36 52
v -167 -36 52
v -165 -33 52
v -167 -29 52
v -167 -26 48
v -174 -30 48
v -175 -38 48
v -166 -40 48
v -160 -33 48
v -192 29 52
v -195 28 52
v -195 25 52
v -192 23 52
v -188 25 52
v -185 25 48
v -189 32 48
v -197 33 48
v -199 24 48
v -192 18 48
v -182 -193 52
v -185 -194 52
v -185 -197 52
v -182 -200 52
v -178 -197 52
v -175 -197 48
v -179 -190 48
v -187 -189 48
v -189 -198 48
v -182 -204 48
v -52 105 52
v -55 103 52
v -53 99 52
v -49 99 52
v -48 103 52
v -42 106 48
v -50 111 48
v -60 106 48
v -57 97 48
v -46 95 48
v -81 -189 52
v -84 -191 52
v -83 -195 52
v -79 -196 52
v -77 -192 52
v -71 -191 48
v -77 -184 48
v -88 -187 48
v -87 -196 48
v -77 -200 48
v 56 118 52
v 53 116 52
v 55 112 52
v 59 112 52
v 60 116 52
v 66 119 48
v 58 124 48
v 48 119 48
v 51 110 48
v 62 108 48
v 25 -192 52
v 22 -194 52
v 24 -198 52
v 28 -198 52
v 29 -194 52
v 35 -191 48
v 27 -186 48
v 17 -191 48
v 20 -200 48
v 31 -202 48
v 196 -70 52
v 193 -72 52
v 195 -76 52
v 199 -76 52
v 200 -72 52
v 206 -69 48
v 198 -64 48
v 188 -69 48
v 191 -78 48
v 202 -80 48
v -215 218 49
v -216 -230 39
v 233 217 59

f 1 2 3
f 1 3 4
f 1 4 5
f 1 5 2
f 2 5 6
f 2 6 7
f 2 7 3
f 3 7 8
f 3 8 9
f 3 9 4
f 4 9 10
f 4 10 11
f 4 11 5
f 5 11 6
f 6 11 7
f 7 11 12
f 7 12 8
f 8 12 13
f 8 13 14
f 8 14 9
f 9 14 15
f 9 15 10
f 10 15 16
f 10 16 12
f 10 12 11
f 15 14 17
f 15 17 18
f 15 18 16
f 16 18 19
f 16 19 13
f 16 13 12
f 18 17 20
f 18 20 21
f 18 21 19
f 19 21 22
f 19 22 23
f 19 23 13
f 13 23 14
f 14 23 17
f 17 23 24
f 17 24 20
f 23 22 24
f 25 26 27
f 25 27 28
f 25 28 29
f 25 29 30
f 25 30 31
f 25 31 26
f 26 31 32
f 26 32 27
f 27 32 33
f 27 33 28
f 28 33 34
f 28 34 29
f 29 34 30
f 35 36 37
f 35 37 38
f 35 38 39
f 35 39 40
f 35 40 41
f 35 41 36
f 36 41 42
f 36 42 37
f 37 42 43
f 37 43 38
f 38 43 44
f 38 44 39
f 39 44 40
f 45 46 47
f 45 47 48
f 45 48 49
f 45 49 50
f 45 50 51
f 45 51 46
f 46 51 52
f 46 52 47
f 47 52 53
f 47 53 48
f 48 53 54
f 48 54 49
f 49 54 50
f 55 56 57
f 55 57 58
f 55 58 59
f 55 59 60
f 55 60 61
f 55 61 56
f 56 61 62
f 56 62 57
f 57 62 63
f 57 63 58
f 58 63 64
f 58 64 59
f 59 64 60
f 65 66 67
f 65 67 68
f 65 68 69
f 65 69 70
f 65 70 71
f 65 71 66
f 66 71 72
f 66 72 67
f 67 72 73
f 67 73 68
f 68 73 74
f 68 74 69
f 69 74 70
f 75 76 77
f 75 77 78
f 75 78 79
f 75 79 80
f 75 80 81
f 75 81 76
f 76 81 82
f 76 82 77
f 77 82 83
f 77 83 78
f 78 83 84
f 78 84 79
f 79 84 80
f 85 86 87
f 85 87 88
f 85 88 89
f 85 89 90
f 85 90 91
f 85 91 86
f 86 91 92
f 86 92 87
f 87 92 93
f 87 93 88
f 88 93 94
f 88 94 89
f 89 94 90
f 95 96 97
f 95 97 98
f 95 98 99
f 95 99 100
f 95 100 101
f 95 101 96
f 96 101 102
f 96 102 97
f 97 102 103
f 97 103 98
f 98 103 104
f 98 104 99
f 99 104 100
f 105 106 107
f 105 107 108
f 105 108 109
f 105 109 110
f 105 110 111
f 105 111 106
f 106 111 112
f 106 112 107
f 107 112 113
f 107 113 108
f 108 113 114
f 108 114 109
f 109 114 110
f 115 116 117
f 115 117 118
f 115 118 119
f 115 119 120
f 115 120 121
f 115 121 116
f 116 121 122
f 116 122 117
f 117 122 123
f 117 123 118
f 118 123 124
f 118 124 119
f 119 124 120
f 125 126 127
f 125 127 128
f 125 128 129
f 125 129 130
f 125 130 131
f 125 131 126
f 126 131 132
f 126 132 127
f 127 132 133
f 127 133 128
f 128 133 134
f 128 134 129
f 129 134 130
f 135 136 137
f 135 137 138
f 135 138 139
f 135 139 140
f 135 140 141
f 135 141 136
f 136 141 142
f 136 142 137
f 137 142 143
f 137 143 138
f 138 143 144
f 138 144 139
f 139 144 140
f 145 146 147
f 145 147 148
f 145 148 149
f 145 149 150
f 145 150 151
f 145 151 146
f 146 151 152
f 146 152 147
f 147 152 153
f 147 153 148
f 148 153 154
f 148 154 149
f 149 154 150
f 155 156 157
f 155 157 158
f 155 158 159
f 155 159 160
f 155 160 161
f 155 161 156
f 156 161 162
f 156 162 157
f 157 162 163
f 157 163 158
f 158 163 164
f 158 164 159
f 159 164 160
f 165 166 167
f 165 167 168
f 165 168 169
f 165 169 170
f 165 170 171
f 165 171 166
f 166 171 172
f 166 172 167
f 167 172 173
f 167 173 168
f 168 173 174
f 168 174 169
f 169 174 170
f 175 176 177
f 175 177 178
f 175 178 179
f 175 179 180
f 175 180 181
f 175 181 176
f 176 181 182
f 176 182 177
f 177 182 183
f 177 183 178
f 178 183 184
f 178 184 179
f 179 184 180
f 185 186 187
f 185 187 188
f 185 188 189
f 185 189 190
f 185 190 191
f 185 191 186
f 186 191 192
f 186 192 187
f 187 192 193
f 187 193 188
f 188 193 194
f 188 194 189
f 189 194 190
f 195 196 197
f 195 197 198
f 195 198 199
f 195 199 200
f 195 200 201
f 195 201 196
f 196 201 202
f 196 202 197
f 197 202 203
f 197 203 198
f 198 203 204
f 198 204 199
f 199 204 200
f 205 206 207
f 205 207 208
f 205 208 209
f 205 209 210
f 205 210 211
f 205 211 206
f 206 211 212
f 206 212 207
f 207 212 213
f 207 213 208
f 208 213 214
f 208 214 209
f 209 214 210
f 215 216 217
f 215 217 218
f 215 218 219
f 215 219 220
f 215 220 221
f 215 221 216
f 216 221 222
f 216 222 217
f 217 222 223
f 217 223 218
f 218 223 224
f 218 224 219
f 219 224 220
f 225 226 227
f 225 227 228
f 225 228 229
f 225 229 230
f 225 230 231
f 225 231 226
f 226 231 232
f 226 232 227
f 227 232 233
f 227 233 228
f 228 233 234
f 228 234 229
f 229 234 230
f 235 236 237
f 235 237 238
f 235 238 239
f 235 239 240
f 235 240 241
f 235 241 236
f 236 241 242
f 236 242 237
f 237 242 243
f 237 243 238
f 238 243 244
f 238 244 239
f 239 244 240
f 245 246 247
f 245 247 248
f 245 248 249
f 245 249 250
f 245 250 251
f 245 251 246
f 246 251 252
f 246 252 247
f 247 252 253
f 247 253 248
f 248 253 254
f 248 254 249
f 249 254 250
f 255 256 257
f 255 257 258
f 255 258 259
f 255 259 260
f 255 260 261
f 255 261 256
f 256 261 262
f 256 262 257
f 257 262 263
f 257 263 258
f 258 263 264
f 258 264 259
f 259 264 260
f 265 266 267
f 265 267 268
f 265 268 269
f 265 269 270
f 265 270 271
f 265 271 266
f 266 271 272
f 266 272 267
f 267 272 273
f 267 273 268
f 268 273 274
f 268 274 269
f 269 274 270
f 275 276 277
f 275 277 278
f 275 278 279
f 275 279 280
f 275 280 281
f 275 281 276
f 276 281 282
f 276 282 277
f 277 282 283
f 277 283 278
f 278 283 284
f 278 284 279
f 279 284 280
f 285 286 287
f 285 287 288
f 285 288 289
f 285 289 290
f 285 290 291
f 285 291 286
f 286 291 292
f 286 292 287
f 287 292 293
f 287 293 288
f 288 293 294
f 288 294 289
f 289 294 290
f 295 296 297
f 295 297 298
f 295 298 299
f 295 299 300
f 295 300 301
f 295 301 296
f 296 301 302
f 296 302 297
f 297 302 303
f 297 303 298
f 298 303 304
f 298 304 299
f 299 304 300
f 305 306 307
f 305 307 308
f 305 308 309
f 305 309 310
f 305 310 311
f 305 311 306
f 306 311 312
f 306 312 307
f 307 312 313
f 307 313 308
f 308 313 314
f 308 314 309
f 309 314 310
f 315 316 317
f 315 317 318
f 315 318 319
f 315 319 320
f 315 320 321
f 315 321 316
f 316 321 322
f 316 322 317
f 317 322 323
f 317 323 318
f 318 323 324
f 318 324 319
f 319 324 320
f 325 326 327
f 325 327 328
f 325 328 329
f 325 329 330
f 325 330 331
f 325 331 326
f 326 331 332
f 326 332 327
f 327 332 333
f 327 333 328
f 328 333 334
f 328 334 329
f 329 334 330
f 335 336 337
f 335 337 338
f 335 338 339
f 335 339 340
f 335 340 341
f 335 341 336
f 336 341 342
f 336 342 337
f 337 342 343
f 337 343 338
f 338 343 344
f 338 344 339
f 339 344 340
f 345 346 347
f 345 347 348
f 345 348 349
f 345 349 350
f 345 350 351
f 345 351 346
f 346 351 352
f 346 352 347
f 347 352 353
f 347 353 348
f 348 353 354
f 348 354 349
f 349 354 350
f 355 356 357
f 355 357 358
f 355 358 359
f 355 359 360
f 355 360 361
f 355 361 356
f 356 361 362
f 356 362 357
f 357 362 363
f 357 363 358
f 358 363 364
f 358 364 359
f 359 364 360
f 365 366 367
f 365 367 368
f 365 368 369
f 365 369 370
f 365 370 371
f 365 371 366
f 366 371 372
f 366 372 367
f 367 372 373
f 367 373 368
f 368 373 374
f 368 374 369
f 369 374 370
