# RS2 Model 25809
# Vertices: 364
# Faces: 698

v 5 -14 185
v 2 -15 183
v 5 -14 182
v 8 -11 183
v 7 -15 187
v 0 -18 186
v 0 -17 184
v 3 -16 178
v 8 -13 181
v 9 -9 184
v 10 -7 186
v 8 -12 190
v 6 -14 191
v 3 -17 188
v 0 -18 189
v -3 -17 188
v -7 -15 187
v -5 -14 185
v -2 -15 183
v -3 -16 178
v 0 -20 178
v 0 -17 177
v 4 -15 176
v 7 -10 177
v 9 -7 180
v 10 -2 183
v 12 -2 183
v 12 -7 186
v 7 -10 193
v 0 -15 193
v 8 5 176
v 9 -1 178
v 7 -2 173
v 0 6 175
v 0 7 175
v 8 6 176
v 8 5 179
v 11 3 179
v 9 1 181
v 8 -4 175
v 7 -8 172
v 0 -6 168
v 8 1 168
v 0 9 168
v -8 1 168
v -7 -2 173
v -8 5 176
v -8 6 176
v -5 9 178
v 0 12 181
v 5 9 178
v 9 6 179
v 9 5 182
v 11 5 183
v 12 4 183
v 12 1 185
v 11 1 186
v 13 1 186
v 13 -1 193
v 10 -9 192
v 10 -2 194
v 7 -2 196
v 0 -10 198
v -7 -10 193
v -6 -14 191
v -8 -12 190
v -10 -7 186
v -9 -9 184
v -8 -11 183
v -5 -14 182
v -8 -13 181
v -4 -15 176
v 11 6 182
v 9 9 189
v 7 7 189
v 0 -6 163
v 13 -5 162
v 13 1 166
v 13 6 165
v 12 11 159
v 0 13 159
v -12 11 159
v -13 6 165
v -13 1 166
v -13 -5 162
v -7 -8 172
v -8 -4 175
v -9 -1 178
v -11 3 179
v -8 5 179
v -9 6 179
v -8 10 182
v 0 12 188
v 8 10 182
v 0 -3 199
v -7 -2 196
v -10 -2 194
v -10 -9 192
v -12 -7 186
v 0 9 194
v 0 4 197
v 0 11 188
v -9 9 189
v -7 7 189
v -9 -7 180
v -7 -10 177
v -5 -12 171
v -3 -15 172
v 0 -16 172
v 3 -15 172
v 5 -12 171
v -9 1 181
v -12 4 183
v -11 5 183
v -9 5 182
v -11 6 182
v -12 1 185
v -11 1 186
v -13 1 186
v -13 -1 193
v -10 -2 183
v -12 -2 183
v -4 -10 170
v 0 -13 169
v 4 -10 170
v -27 -6 132
v -28 -5 126
v -22 1 128
v -20 1 139
v -26 -6 140
v -32 1 141
v -34 1 132
v -34 1 123
v -36 0 112
v -32 -5 112
v -25 0 112
v -25 1 122
v -27 7 128
v -26 9 133
v -26 9 140
v -18 2 145
v -25 -8 149
v -32 1 150
v -25 11 147
v -28 8 122
v -32 7 113
v -36 1 101
v -32 -4 103
v -28 0 102
v -32 5 102
v -22 -8 156
v -27 2 160
v -22 10 157
v -19 2 163
v -17 -9 156
v -17 -4 161
v -19 2 164
v -19 7 162
v -19 11 158
v -19 10 158
v -15 -11 147
v -15 -9 157
v -17 -4 162
v -13 1 167
v -13 6 166
v -12 12 159
v -11 13 150
v -17 11 149
v -16 10 149
v 28 -5 126
v 27 -6 132
v 22 1 128
v 25 1 122
v 25 0 112
v 32 -5 112
v 36 0 112
v 34 1 123
v 34 1 132
v 32 1 141
v 26 -6 140
v 20 1 139
v 26 9 133
v 27 7 128
v 28 8 122
v 32 7 113
v 32 5 102
v 28 0 102
v 32 -4 103
v 36 1 101
v 26 9 140
v 25 11 147
v 32 1 150
v 25 -8 149
v 18 2 145
v 22 -8 156
v 27 2 160
v 19 2 163
v 17 -9 156
v 15 -11 147
v 16 -12 147
v 15 -10 132
v 18 1 131
v 15 8 130
v 17 10 149
v 16 10 149
v 19 10 158
v 22 10 157
v 19 11 158
v 19 7 162
v 19 2 164
v 17 -4 161
v 15 -10 157
v 15 -11 157
v 13 -14 148
v 13 -13 142
v 12 -14 140
v 8 -15 133
v 9 -15 123
v 15 -10 122
v 18 1 122
v 15 8 122
v 15 9 130
v 17 11 149
v 11 13 150
v 12 12 159
v 13 6 166
v 13 1 167
v 17 -4 162
v 13 -5 163
v 11 -11 158
v 5 -15 149
v 10 -14 144
v 12 -14 144
v 12 -15 144
v 13 -14 142
v 12 -15 140
v 10 -15 140
v 9 -15 142
v 0 -16 133
v 0 -16 123
v 0 -17 113
v 12 -16 113
v 17 -12 113
v 19 0 114
v 15 8 113
v 9 11 121
v 9 12 128
v 9 11 128
v 11 12 150
v -32 -4 97
v -29 -1 96
v -32 4 96
v -36 0 96
v -32 -4 95
v -29 -1 94
v -32 4 94
v -36 0 94
v -29 -7 85
v -29 -6 81
v -26 -7 89
v -29 -7 90
v -34 -7 85
v -38 -6 83
v -29 3 81
v -26 1 87
v -34 -7 90
v -37 -4 89
v -37 3 83
v -34 5 85
v -29 5 85
v -29 5 90
v -34 5 90
v 32 -4 97
v 29 -1 96
v 32 -4 95
v 36 0 96
v 32 4 96
v 32 4 94
v 29 -1 94
v 26 -7 89
v 29 -7 90
v 34 -7 90
v 37 -4 89
v 36 0 94
v 29 -6 81
v 29 -7 85
v 26 1 87
v 29 3 81
v 38 -6 83
v 34 -7 85
v 29 5 85
v 34 5 85
v 29 5 90
v 34 5 90
v 37 3 83
v 0 -11 158
v 5 -14 149
v 11 -10 158
v -11 -10 158
v -5 -14 149
v 0 -15 149
v 12 5 127
v 10 -2 126
v 16 0 115
v 9 8 116
v 0 10 116
v 0 5 127
v -12 5 127
v -9 8 116
v -16 0 115
v -10 -2 126
v -8 -8 126
v -10 -11 115
v 0 -14 114
v 0 -8 126
v 8 -8 126
v 12 -11 115
v 0 14 150
v -11 12 150
v -13 -5 163
v -11 -11 158
v 0 -16 149
v -5 -15 149
v -8 -15 133
v -9 -15 123
v -12 -16 113
v -15 -10 122
v -17 -12 113
v -19 0 114
v -18 1 122
v -15 8 122
v -15 8 113
v -9 11 121
v -10 12 113
v 0 14 113
v 0 13 121
v 10 12 113
v 10 -16 140
v 10 -15 144
v 9 -16 142
v 0 14 128
v 0 13 128
v -18 1 131
v -15 8 130
v -15 9 130
v -9 12 128
v -9 11 128
v -17 10 149
v -15 -10 132
v -16 -12 147
v -15 -10 157
v -13 -14 148
v -12 -14 140
v -13 -13 142
v -12 -14 144
v -10 -14 144
v -9 -15 142
v -10 -15 140
v -12 -15 140
v -13 -14 142
v -12 -15 144
v -10 -15 144
v -9 -16 142
v -10 -16 140

f 1 2 3
f 1 3 4
f 1 4 5
f 1 5 6
f 1 6 2
f 2 6 7
f 2 7 8
f 2 8 3
f 3 8 9
f 3 9 4
f 4 9 10
f 4 10 5
f 5 10 11
f 5 11 12
f 5 12 13
f 5 13 14
f 5 14 6
f 6 14 15
f 6 15 16
f 6 16 17
f 6 17 18
f 6 18 19
f 6 19 7
f 7 19 20
f 7 20 21
f 7 21 8
f 8 21 22
f 8 22 23
f 8 23 9
f 9 23 24
f 9 24 25
f 9 25 10
f 10 25 26
f 10 26 11
f 11 26 27
f 11 27 28
f 11 28 29
f 11 29 12
f 12 29 13
f 13 29 30
f 13 30 15
f 13 15 14
f 31 32 33
f 31 33 34
f 31 34 35
f 31 35 36
f 31 36 37
f 31 37 38
f 31 38 32
f 32 38 39
f 32 39 26
f 32 26 25
f 32 25 40
f 32 40 33
f 33 40 41
f 33 41 42
f 33 42 43
f 33 43 34
f 34 43 44
f 34 44 45
f 34 45 46
f 34 46 47
f 34 47 35
f 35 47 48
f 35 48 49
f 35 49 50
f 35 50 51
f 35 51 36
f 36 51 52
f 36 52 37
f 37 52 53
f 37 53 54
f 37 54 38
f 38 54 55
f 38 55 39
f 39 55 56
f 39 56 26
f 26 56 57
f 26 57 58
f 26 58 27
f 27 58 28
f 28 58 59
f 28 59 60
f 28 60 29
f 29 60 61
f 29 61 62
f 29 62 63
f 29 63 30
f 30 63 64
f 30 64 65
f 30 65 15
f 15 65 16
f 16 65 17
f 17 65 66
f 17 66 67
f 17 67 68
f 17 68 69
f 17 69 18
f 18 69 70
f 18 70 19
f 19 70 20
f 20 70 71
f 20 71 72
f 20 72 22
f 20 22 21
f 56 55 54
f 56 54 57
f 57 54 53
f 57 53 73
f 57 73 58
f 58 73 74
f 58 74 59
f 59 74 75
f 59 75 61
f 59 61 60
f 42 76 43
f 43 76 77
f 43 77 78
f 43 78 79
f 43 79 44
f 44 79 80
f 44 80 81
f 44 81 82
f 44 82 83
f 44 83 45
f 45 83 84
f 45 84 85
f 45 85 76
f 45 76 42
f 45 42 46
f 46 42 86
f 46 86 87
f 46 87 88
f 46 88 47
f 47 88 89
f 47 89 90
f 47 90 48
f 48 90 91
f 48 91 49
f 49 91 92
f 49 92 50
f 50 92 93
f 50 93 94
f 50 94 51
f 51 94 52
f 52 94 73
f 52 73 53
f 63 62 95
f 63 95 96
f 63 96 64
f 64 96 97
f 64 97 98
f 64 98 99
f 64 99 67
f 64 67 66
f 64 66 65
f 75 100 101
f 75 101 62
f 75 62 61
f 102 100 75
f 102 75 74
f 102 74 93
f 102 93 103
f 102 103 104
f 102 104 100
f 100 104 101
f 101 104 96
f 101 96 95
f 101 95 62
f 93 74 94
f 94 74 73
f 71 69 68
f 71 68 105
f 71 105 106
f 71 106 72
f 72 106 107
f 72 107 108
f 72 108 22
f 22 108 109
f 22 109 110
f 22 110 23
f 23 110 111
f 23 111 24
f 24 111 41
f 24 41 40
f 24 40 25
f 88 112 89
f 89 112 113
f 89 113 114
f 89 114 90
f 90 114 115
f 90 115 91
f 91 115 116
f 91 116 92
f 92 116 103
f 92 103 93
f 113 112 117
f 113 117 114
f 114 117 118
f 114 118 115
f 115 118 116
f 116 118 119
f 116 119 103
f 103 119 120
f 103 120 104
f 104 120 97
f 104 97 96
f 117 112 121
f 117 121 118
f 118 121 119
f 119 121 122
f 119 122 99
f 119 99 120
f 120 99 98
f 120 98 97
f 112 88 121
f 121 88 105
f 121 105 68
f 121 68 67
f 121 67 122
f 122 67 99
f 71 70 69
f 123 124 107
f 123 107 86
f 123 86 42
f 123 42 124
f 124 42 125
f 124 125 111
f 124 111 110
f 124 110 109
f 124 109 108
f 124 108 107
f 111 125 41
f 41 125 42
f 106 86 107
f 86 106 87
f 87 106 105
f 87 105 88
f 126 127 128
f 126 128 129
f 126 129 130
f 126 130 131
f 126 131 132
f 126 132 127
f 127 132 133
f 127 133 134
f 127 134 135
f 127 135 136
f 127 136 137
f 127 137 128
f 128 137 138
f 128 138 139
f 128 139 129
f 129 139 140
f 129 140 141
f 129 141 130
f 130 141 142
f 130 142 131
f 131 142 143
f 131 143 144
f 131 144 140
f 131 140 132
f 132 140 139
f 132 139 138
f 132 138 133
f 133 138 145
f 133 145 146
f 133 146 134
f 134 146 147
f 134 147 148
f 134 148 135
f 135 148 136
f 136 148 149
f 136 149 150
f 136 150 146
f 136 146 145
f 136 145 137
f 137 145 138
f 141 151 142
f 142 151 143
f 143 151 152
f 143 152 144
f 144 152 153
f 144 153 141
f 144 141 140
f 154 151 155
f 154 155 156
f 154 156 157
f 154 157 158
f 154 158 159
f 154 159 160
f 154 160 153
f 154 153 152
f 154 152 151
f 141 155 151
f 155 141 161
f 155 161 162
f 155 162 156
f 156 162 163
f 156 163 157
f 157 163 164
f 157 164 165
f 157 165 158
f 158 165 166
f 158 166 159
f 159 166 167
f 159 167 168
f 159 168 160
f 160 168 169
f 160 169 141
f 160 141 153
f 170 171 172
f 170 172 173
f 170 173 174
f 170 174 175
f 170 175 176
f 170 176 177
f 170 177 178
f 170 178 171
f 171 178 179
f 171 179 180
f 171 180 181
f 171 181 172
f 172 181 182
f 172 182 183
f 172 183 173
f 173 183 184
f 173 184 174
f 174 184 185
f 174 185 186
f 174 186 187
f 174 187 188
f 174 188 175
f 175 188 176
f 176 188 189
f 176 189 185
f 176 185 177
f 177 185 184
f 177 184 183
f 177 183 178
f 178 183 182
f 178 182 190
f 178 190 179
f 179 190 191
f 179 191 192
f 179 192 193
f 179 193 180
f 180 193 194
f 180 194 181
f 181 194 190
f 181 190 182
f 195 194 193
f 195 193 192
f 195 192 196
f 195 196 197
f 195 197 198
f 195 198 194
f 194 198 199
f 194 199 200
f 194 200 201
f 194 201 202
f 194 202 203
f 194 203 204
f 194 204 205
f 194 205 206
f 194 206 207
f 194 207 191
f 194 191 190
f 196 192 191
f 196 191 207
f 196 207 197
f 197 207 206
f 197 206 208
f 197 208 209
f 197 209 210
f 197 210 211
f 197 211 198
f 198 211 212
f 198 212 199
f 199 212 213
f 199 213 200
f 200 213 214
f 200 214 215
f 200 215 201
f 201 215 216
f 201 216 217
f 201 217 218
f 201 218 219
f 201 219 220
f 201 220 202
f 202 220 203
f 203 220 221
f 203 221 222
f 203 222 204
f 204 222 223
f 204 223 205
f 205 223 206
f 206 223 208
f 208 223 224
f 208 224 225
f 208 225 209
f 209 225 226
f 209 226 210
f 210 226 227
f 210 227 228
f 210 228 211
f 211 228 212
f 212 228 213
f 213 228 229
f 213 229 230
f 213 230 214
f 214 230 231
f 214 231 232
f 214 232 233
f 214 233 215
f 215 233 234
f 215 234 235
f 215 235 216
f 216 235 236
f 216 236 237
f 216 237 217
f 217 237 238
f 217 238 231
f 217 231 239
f 217 239 240
f 217 240 218
f 218 240 241
f 218 241 242
f 218 242 219
f 219 242 243
f 219 243 244
f 219 244 220
f 220 244 221
f 221 244 245
f 221 245 246
f 221 246 247
f 221 247 222
f 222 247 223
f 223 247 224
f 224 247 248
f 224 248 249
f 224 249 225
f 225 249 80
f 225 80 226
f 226 80 79
f 226 79 227
f 227 79 78
f 227 78 229
f 227 229 228
f 148 250 251
f 148 251 149
f 149 251 252
f 149 252 150
f 150 252 253
f 150 253 147
f 150 147 146
f 147 253 250
f 147 250 148
f 251 250 254
f 251 254 255
f 251 255 256
f 251 256 252
f 252 256 253
f 253 256 257
f 253 257 254
f 253 254 250
f 258 259 260
f 258 260 261
f 258 261 262
f 258 262 259
f 259 262 263
f 259 263 264
f 259 264 265
f 259 265 260
f 260 265 255
f 260 255 254
f 260 254 261
f 261 254 266
f 261 266 262
f 262 266 263
f 263 266 267
f 263 267 268
f 263 268 264
f 264 268 269
f 264 269 270
f 264 270 265
f 265 270 271
f 265 271 255
f 255 271 256
f 256 271 272
f 256 272 257
f 257 272 268
f 257 268 267
f 257 267 254
f 254 267 266
f 272 269 268
f 269 272 270
f 270 272 271
f 273 188 274
f 273 274 275
f 273 275 276
f 273 276 189
f 273 189 188
f 188 187 274
f 274 187 277
f 274 277 278
f 274 278 279
f 274 279 275
f 275 279 280
f 275 280 281
f 275 281 282
f 275 282 283
f 275 283 284
f 275 284 276
f 276 284 278
f 276 278 277
f 276 277 186
f 276 186 189
f 189 186 185
f 187 186 277
f 285 286 280
f 285 280 287
f 285 287 288
f 285 288 289
f 285 289 290
f 285 290 286
f 286 290 281
f 286 281 280
f 291 292 288
f 291 288 287
f 291 287 293
f 291 293 294
f 291 294 292
f 292 294 295
f 292 295 288
f 288 295 289
f 289 295 283
f 289 283 282
f 289 282 290
f 290 282 281
f 283 295 284
f 284 295 294
f 284 294 278
f 278 294 293
f 278 293 279
f 279 293 287
f 279 287 280
f 296 297 298
f 296 298 76
f 296 76 299
f 296 299 300
f 296 300 301
f 296 301 297
f 297 301 231
f 297 231 298
f 298 231 230
f 298 230 77
f 298 77 76
f 302 303 304
f 302 304 305
f 302 305 306
f 302 306 307
f 307 306 308
f 308 306 309
f 308 309 310
f 308 310 311
f 311 310 312
f 312 310 313
f 312 313 314
f 312 314 315
f 315 314 316
f 316 314 317
f 316 317 304
f 316 304 303
f 81 80 249
f 81 249 318
f 81 318 319
f 81 319 82
f 82 319 166
f 82 166 165
f 82 165 83
f 83 165 164
f 83 164 84
f 84 164 320
f 84 320 85
f 85 320 321
f 85 321 299
f 85 299 76
f 239 231 322
f 239 322 323
f 239 323 324
f 239 324 240
f 240 324 325
f 240 325 241
f 241 325 326
f 326 325 327
f 326 327 328
f 328 327 329
f 329 327 330
f 329 330 331
f 329 331 332
f 332 331 333
f 332 333 334
f 334 333 335
f 335 333 336
f 335 336 246
f 335 246 337
f 337 246 245
f 234 338 236
f 234 236 235
f 339 340 338
f 339 338 234
f 339 234 233
f 339 233 232
f 339 232 340
f 340 232 238
f 340 238 338
f 338 238 237
f 338 237 236
f 231 238 232
f 336 341 247
f 336 247 246
f 248 342 318
f 248 318 249
f 229 78 77
f 229 77 230
f 247 341 342
f 247 342 248
f 299 323 300
f 300 323 322
f 300 322 301
f 301 322 231
f 330 343 344
f 330 344 331
f 331 344 345
f 331 345 346
f 331 346 333
f 333 346 336
f 336 346 341
f 341 346 342
f 342 346 347
f 342 347 318
f 318 347 319
f 319 347 167
f 319 167 166
f 168 167 346
f 168 346 345
f 168 345 348
f 168 348 169
f 169 348 141
f 141 348 344
f 141 344 343
f 141 343 349
f 141 349 350
f 141 350 161
f 161 350 351
f 161 351 162
f 162 351 163
f 163 351 320
f 163 320 164
f 351 350 352
f 351 352 321
f 351 321 320
f 352 323 321
f 321 323 299
f 349 327 325
f 349 325 324
f 349 324 353
f 349 353 354
f 349 354 350
f 350 354 352
f 352 354 355
f 352 355 356
f 352 356 323
f 323 356 357
f 323 357 324
f 324 357 358
f 324 358 353
f 353 358 359
f 353 359 360
f 353 360 354
f 354 360 361
f 354 361 355
f 355 361 362
f 355 362 356
f 356 362 363
f 356 363 357
f 357 363 364
f 357 364 358
f 358 364 359
f 359 364 361
f 359 361 360
f 349 343 330
f 349 330 327
f 362 361 364
f 362 364 363
f 345 344 348
f 167 347 346
