# RS2 Model 25815
# Vertices: 343
# Faces: 676

v -32 -4 103
v -32 -4 97
v -29 -1 96
v -28 0 102
v -24 0 112
v -32 -6 112
v -37 0 112
v -36 1 101
v -36 0 96
v -32 -4 95
v -29 -1 94
v -32 4 94
v -32 4 96
v -32 5 102
v -32 8 113
v -28 8 122
v -24 1 122
v -28 -5 126
v -35 1 123
v -36 0 94
v -37 -4 89
v -34 -7 90
v -29 -7 90
v -26 -7 89
v -26 1 87
v -29 5 90
v -34 5 90
v -37 3 83
v -38 -6 83
v -34 -7 85
v -29 -7 85
v -29 -6 81
v -29 3 81
v -29 5 85
v -34 5 85
v 32 -4 97
v 32 -4 103
v 29 -1 96
v 32 -4 95
v 36 0 96
v 36 1 101
v 37 0 112
v 32 -6 112
v 24 0 112
v 28 0 102
v 32 4 96
v 32 4 94
v 29 -1 94
v 26 -7 89
v 29 -7 90
v 34 -7 90
v 37 -4 89
v 36 0 94
v 32 5 102
v 32 8 113
v 35 1 123
v 28 -5 126
v 24 1 122
v 28 8 122
v 29 -6 81
v 29 -7 85
v 26 1 87
v 29 3 81
v 38 -6 83
v 34 -7 85
v 29 5 85
v 34 5 85
v 29 5 90
v 34 5 90
v 37 3 83
v 9 -1 178
v 8 -4 175
v 7 -2 173
v 8 1 176
v 12 3 179
v 9 1 181
v 10 -2 183
v 9 -7 180
v 9 -13 169
v 8 -9 168
v 0 -6 168
v 8 1 168
v 0 9 174
v 7 6 178
v 8 4 179
v 12 5 183
v 13 4 183
v 13 1 185
v 12 1 186
v 11 -7 188
v 10 -9 184
v 8 -13 181
v 7 -10 177
v 7 -14 172
v 7 -17 163
v 6 -13 162
v 0 -10 162
v -6 -13 162
v -8 -9 168
v -7 -2 173
v -8 1 168
v 0 -6 163
v 11 -6 164
v 13 1 166
v 0 9 168
v -7 6 178
v 0 11 181
v 6 9 182
v 9 5 182
v 4 -15 176
v 0 -19 175
v 0 -17 174
v 0 -18 172
v 0 -20 163
v 3 -18 156
v 3 -16 156
v 0 -14 156
v -3 -16 156
v -4 -18 156
v -7 -17 163
v -9 -13 169
v -8 -4 175
v -9 -1 178
v -8 1 176
v -8 4 179
v -6 9 182
v 0 11 188
v 7 6 191
v 11 0 192
v 7 -9 197
v 8 -12 190
v 8 -15 187
v 8 -11 183
v 5 -14 182
v 3 -16 178
v 0 -19 157
v 0 -19 150
v -7 -14 172
v -7 -10 177
v -9 -7 180
v -10 -2 183
v -9 1 181
v -12 3 179
v -12 5 183
v -9 5 182
v -7 6 191
v 0 9 194
v 0 4 198
v 7 -2 198
v 0 -10 199
v 0 -15 195
v 6 -14 191
v 3 -17 188
v 0 -18 186
v 5 -14 185
v 2 -15 183
v 0 -17 184
v 0 -20 178
v 0 -17 177
v -4 -15 176
v -8 -13 181
v -10 -9 184
v -11 -7 188
v -12 1 186
v -13 1 185
v -13 4 183
v -11 0 192
v -7 -2 198
v -3 -16 178
v -5 -14 182
v -8 -11 183
v -8 -15 187
v -8 -12 190
v -7 -9 197
v -2 -15 183
v 0 -18 189
v -6 -14 191
v -3 -17 188
v 0 -3 200
v -5 -14 185
v -10 -9 161
v 0 -10 161
v -11 -6 164
v -11 -6 165
v -10 -10 161
v -10 -15 150
v -5 -16 149
v 0 -16 149
v 5 -16 149
v 10 -9 161
v 11 -6 165
v 13 1 167
v 13 8 165
v 13 8 164
v 12 12 161
v 0 14 161
v -12 12 161
v -13 8 164
v -13 1 166
v -9 -22 132
v -9 -22 125
v 0 -24 125
v 0 -23 132
v -9 -20 140
v -18 -8 149
v -18 -13 134
v -17 -13 117
v -11 -18 117
v 0 -21 117
v 9 -22 125
v 9 -22 132
v 9 -20 140
v 0 -21 140
v -7 -17 146
v -10 -18 144
v -12 -16 145
v -16 -11 152
v -17 -9 156
v -18 2 145
v -18 2 134
v -19 0 118
v -16 0 115
v -10 -11 115
v 0 -14 114
v 11 -18 117
v 17 -13 117
v 18 -13 134
v 18 -8 149
v 12 -16 145
v 10 -18 144
v 7 -17 146
v -16 -8 160
v -18 -4 162
v -12 -15 149
v -16 -9 160
v -18 -4 163
v -19 2 163
v -22 -8 156
v -25 -8 149
v -26 -6 140
v -20 1 139
v -26 9 140
v -24 11 149
v -22 10 157
v -19 10 158
v -17 10 148
v -16 8 134
v -17 9 119
v -9 8 116
v 0 15 149
v -10 13 149
v -10 14 149
v -12 13 161
v -13 8 165
v -13 1 167
v -11 -17 148
v -10 -17 149
v -8 -16 149
v -9 -18 148
v -8 -19 146
v -10 -19 145
v -12 -18 146
v -13 -15 147
v -12 -17 147
v -17 11 148
v -19 11 158
v -18 6 163
v -19 2 164
v -18 6 162
v -27 2 160
v -33 1 152
v -35 1 145
v -34 1 141
v -27 -6 132
v -22 1 128
v -26 9 133
v -36 1 132
v -11 13 119
v 0 15 119
v 0 10 116
v 9 8 116
v 11 13 119
v 17 9 119
v 19 0 118
v 16 0 115
v 12 -11 115
v -8 13 127
v 0 14 127
v -9 13 135
v -9 12 135
v 0 14 135
v 8 13 127
v 16 8 134
v 18 2 134
v 18 2 145
v 16 -8 160
v 17 -9 156
v 18 -4 162
v 16 -9 160
v 12 -15 149
v 16 -11 152
v 22 -8 156
v 19 2 163
v 18 -4 163
v 10 -10 161
v 10 -15 150
v 11 -17 148
v 12 -17 147
v 13 -15 147
v 10 13 149
v 9 12 135
v 9 13 135
v 17 11 148
v 17 10 148
v 12 13 161
v 19 11 158
v 10 14 149
v 18 6 163
v 19 10 158
v 19 2 164
v 18 6 162
v 22 10 157
v 8 -16 149
v 10 -17 149
v 9 -18 148
v 8 -19 146
v 12 -18 146
v 10 -19 145
v 27 -6 132
v 22 1 128
v 36 1 132
v 34 1 141
v 26 -6 140
v 20 1 139
v 26 9 133
v 27 7 128
v 26 9 140
v 35 1 145
v 25 -8 149
v 33 1 152
v 27 2 160
v 24 11 149
v -27 7 128

f 1 2 3
f 1 3 4
f 1 4 5
f 1 5 6
f 1 6 7
f 1 7 8
f 1 8 2
f 2 8 9
f 2 9 10
f 2 10 3
f 3 10 11
f 3 11 12
f 3 12 13
f 3 13 4
f 4 13 14
f 4 14 5
f 5 14 15
f 5 15 16
f 5 16 17
f 5 17 18
f 5 18 6
f 6 18 7
f 7 18 19
f 7 19 15
f 7 15 8
f 8 15 14
f 8 14 9
f 9 14 13
f 9 13 12
f 9 12 20
f 9 20 10
f 10 20 21
f 10 21 22
f 10 22 23
f 10 23 24
f 10 24 11
f 11 24 25
f 11 25 26
f 11 26 12
f 12 26 27
f 12 27 20
f 20 27 28
f 20 28 21
f 21 28 29
f 21 29 22
f 22 29 30
f 22 30 23
f 23 30 31
f 23 31 24
f 24 31 32
f 24 32 25
f 25 32 33
f 25 33 34
f 25 34 26
f 26 34 27
f 27 34 35
f 27 35 28
f 28 35 33
f 28 33 29
f 29 33 32
f 29 32 30
f 30 32 31
f 35 34 33
f 36 37 38
f 36 38 39
f 36 39 40
f 36 40 41
f 36 41 37
f 37 41 42
f 37 42 43
f 37 43 44
f 37 44 45
f 37 45 38
f 38 45 46
f 38 46 47
f 38 47 48
f 38 48 39
f 39 48 49
f 39 49 50
f 39 50 51
f 39 51 52
f 39 52 53
f 39 53 40
f 40 53 47
f 40 47 46
f 40 46 54
f 40 54 41
f 41 54 55
f 41 55 42
f 42 55 56
f 42 56 57
f 42 57 43
f 43 57 44
f 44 57 58
f 44 58 59
f 44 59 55
f 44 55 54
f 44 54 45
f 45 54 46
f 60 61 49
f 60 49 62
f 60 62 63
f 60 63 64
f 60 64 65
f 60 65 61
f 61 65 50
f 61 50 49
f 66 67 63
f 66 63 62
f 66 62 68
f 66 68 69
f 66 69 67
f 67 69 70
f 67 70 63
f 63 70 64
f 64 70 52
f 64 52 51
f 64 51 65
f 65 51 50
f 52 70 53
f 53 70 69
f 53 69 47
f 47 69 68
f 47 68 48
f 48 68 62
f 48 62 49
f 71 72 73
f 71 73 74
f 71 74 75
f 71 75 76
f 71 76 77
f 71 77 78
f 71 78 72
f 72 78 79
f 72 79 73
f 73 79 80
f 73 80 81
f 73 81 82
f 73 82 83
f 73 83 84
f 73 84 74
f 74 84 85
f 74 85 75
f 75 85 86
f 75 86 87
f 75 87 76
f 76 87 88
f 76 88 77
f 77 88 89
f 77 89 90
f 77 90 91
f 77 91 78
f 78 91 92
f 78 92 93
f 78 93 79
f 79 93 94
f 79 94 95
f 79 95 96
f 79 96 80
f 80 96 81
f 81 96 97
f 81 97 98
f 81 98 99
f 81 99 100
f 81 100 101
f 81 101 102
f 81 102 82
f 82 102 103
f 82 103 104
f 82 104 105
f 82 105 83
f 83 105 101
f 83 101 100
f 83 100 106
f 83 106 107
f 83 107 84
f 84 107 108
f 84 108 85
f 85 108 109
f 85 109 86
f 86 109 89
f 86 89 88
f 86 88 87
f 93 110 94
f 94 110 111
f 94 111 112
f 94 112 113
f 94 113 95
f 95 113 114
f 95 114 115
f 95 115 96
f 96 115 116
f 96 116 117
f 96 117 97
f 97 117 98
f 98 117 118
f 98 118 119
f 98 119 120
f 98 120 121
f 98 121 99
f 99 121 100
f 100 121 122
f 100 122 123
f 100 123 124
f 100 124 106
f 106 124 125
f 106 125 126
f 106 126 107
f 107 126 127
f 107 127 108
f 108 127 128
f 108 128 109
f 109 128 89
f 89 128 129
f 89 129 90
f 90 129 130
f 90 130 131
f 90 131 132
f 90 132 91
f 91 132 133
f 91 133 92
f 92 133 134
f 92 134 135
f 92 135 110
f 92 110 93
f 115 136 137
f 115 137 116
f 116 137 117
f 117 137 118
f 118 137 119
f 119 137 136
f 119 136 114
f 119 114 120
f 120 114 113
f 120 113 138
f 120 138 121
f 121 138 139
f 121 139 140
f 121 140 122
f 122 140 123
f 123 140 141
f 123 141 142
f 123 142 143
f 123 143 124
f 124 143 125
f 125 143 144
f 125 144 145
f 125 145 126
f 126 145 146
f 126 146 127
f 127 146 147
f 127 147 128
f 128 147 148
f 128 148 149
f 128 149 129
f 129 149 130
f 130 149 150
f 130 150 151
f 130 151 152
f 130 152 131
f 131 152 132
f 132 152 153
f 132 153 154
f 132 154 155
f 132 155 133
f 133 155 134
f 134 155 156
f 134 156 135
f 135 156 157
f 135 157 158
f 135 158 159
f 135 159 110
f 110 159 111
f 111 159 160
f 111 160 138
f 111 138 112
f 112 138 113
f 114 136 115
f 160 139 138
f 139 160 161
f 139 161 140
f 140 161 162
f 140 162 141
f 141 162 163
f 141 163 164
f 141 164 165
f 141 165 142
f 142 165 166
f 142 166 143
f 143 166 144
f 144 166 165
f 144 165 164
f 144 164 145
f 145 164 146
f 146 164 167
f 146 167 168
f 146 168 148
f 146 148 147
f 160 159 169
f 160 169 161
f 161 169 170
f 161 170 171
f 161 171 162
f 162 171 172
f 162 172 163
f 163 172 173
f 163 173 174
f 163 174 167
f 163 167 164
f 154 156 155
f 156 154 157
f 157 154 175
f 157 175 169
f 157 169 158
f 158 169 159
f 176 153 152
f 176 152 151
f 176 151 177
f 176 177 178
f 176 178 154
f 176 154 153
f 150 149 179
f 150 179 168
f 150 168 174
f 150 174 151
f 151 174 177
f 177 174 173
f 177 173 172
f 177 172 178
f 178 172 154
f 154 172 180
f 154 180 175
f 175 180 170
f 175 170 169
f 148 179 149
f 179 148 168
f 180 171 170
f 171 180 172
f 174 168 167
f 181 182 102
f 181 102 183
f 181 183 184
f 181 184 185
f 181 185 186
f 181 186 187
f 181 187 182
f 182 187 188
f 182 188 189
f 182 189 190
f 182 190 102
f 102 190 103
f 103 190 191
f 103 191 192
f 103 192 104
f 104 192 193
f 104 193 194
f 104 194 105
f 105 194 195
f 105 195 196
f 105 196 197
f 105 197 198
f 105 198 199
f 105 199 101
f 101 199 183
f 101 183 102
f 200 201 202
f 200 202 203
f 200 203 204
f 200 204 205
f 200 205 206
f 200 206 201
f 201 206 207
f 201 207 208
f 201 208 209
f 201 209 202
f 202 209 210
f 202 210 211
f 202 211 203
f 203 211 212
f 203 212 213
f 203 213 204
f 204 213 187
f 204 187 214
f 204 214 215
f 204 215 216
f 204 216 205
f 205 216 217
f 205 217 218
f 205 218 219
f 205 219 220
f 205 220 206
f 206 220 221
f 206 221 207
f 207 221 222
f 207 222 223
f 207 223 208
f 208 223 224
f 208 224 209
f 209 224 225
f 209 225 210
f 210 225 226
f 210 226 227
f 210 227 211
f 211 227 228
f 211 228 212
f 212 228 229
f 212 229 230
f 212 230 231
f 212 231 189
f 212 189 213
f 213 189 188
f 213 188 187
f 232 233 218
f 232 218 217
f 232 217 234
f 232 234 235
f 232 235 233
f 233 235 236
f 233 236 237
f 233 237 218
f 218 237 238
f 218 238 219
f 219 238 239
f 219 239 240
f 219 240 241
f 219 241 242
f 219 242 243
f 219 243 244
f 219 244 245
f 219 245 246
f 219 246 247
f 219 247 220
f 220 247 221
f 221 247 248
f 221 248 249
f 221 249 222
f 196 250 251
f 196 251 197
f 197 251 252
f 197 252 253
f 197 253 198
f 198 253 254
f 198 254 199
f 199 254 255
f 199 255 183
f 183 255 184
f 184 255 236
f 184 236 185
f 185 236 235
f 185 235 186
f 186 235 234
f 186 234 256
f 186 256 257
f 186 257 258
f 186 258 187
f 187 258 214
f 214 258 259
f 214 259 260
f 214 260 215
f 215 260 261
f 215 261 216
f 216 261 262
f 216 262 263
f 216 263 217
f 217 263 234
f 234 263 264
f 234 264 256
f 256 264 262
f 256 262 260
f 256 260 259
f 256 259 257
f 257 259 258
f 253 252 265
f 253 265 266
f 253 266 267
f 253 267 254
f 254 267 268
f 254 268 255
f 255 268 236
f 236 268 237
f 237 268 269
f 237 269 245
f 237 245 244
f 237 244 270
f 237 270 238
f 238 270 271
f 238 271 239
f 239 271 272
f 239 272 240
f 240 272 273
f 240 273 274
f 240 274 241
f 241 274 275
f 241 275 276
f 241 276 242
f 242 276 277
f 242 277 273
f 242 273 272
f 242 272 243
f 243 272 271
f 243 271 270
f 243 270 244
f 249 278 279
f 249 279 280
f 280 279 281
f 281 279 282
f 281 282 283
f 281 283 284
f 281 284 285
f 285 284 226
f 285 226 286
f 286 226 225
f 286 225 224
f 287 288 279
f 287 279 278
f 287 278 248
f 287 248 247
f 287 247 289
f 287 289 290
f 287 290 291
f 287 291 288
f 288 291 292
f 288 292 279
f 279 292 282
f 282 292 283
f 283 292 293
f 283 293 284
f 284 293 294
f 284 294 227
f 284 227 226
f 248 278 249
f 250 291 290
f 250 290 251
f 251 290 289
f 251 289 252
f 252 289 265
f 265 289 247
f 265 247 246
f 265 246 266
f 266 246 245
f 266 245 267
f 267 245 269
f 267 269 268
f 261 260 262
f 263 262 264
f 294 295 228
f 294 228 227
f 296 297 298
f 296 298 299
f 296 299 300
f 296 300 301
f 296 301 297
f 297 301 228
f 297 228 295
f 297 295 302
f 297 302 303
f 297 303 298
f 298 303 304
f 298 304 299
f 299 304 305
f 299 305 306
f 299 306 300
f 300 306 307
f 300 307 308
f 300 308 309
f 300 309 301
f 301 309 229
f 301 229 228
f 196 195 310
f 196 310 250
f 250 310 311
f 250 311 291
f 291 311 292
f 292 311 312
f 292 312 293
f 293 312 313
f 293 313 314
f 293 314 295
f 293 295 294
f 315 316 313
f 315 313 317
f 315 317 195
f 315 195 194
f 315 194 193
f 315 193 318
f 315 318 316
f 316 318 319
f 316 319 314
f 316 314 313
f 192 191 304
f 192 304 320
f 192 320 193
f 193 320 318
f 318 320 321
f 318 321 319
f 319 321 303
f 319 303 322
f 319 322 295
f 319 295 314
f 304 191 305
f 305 191 190
f 305 190 306
f 306 190 189
f 306 189 323
f 306 323 324
f 306 324 307
f 307 324 325
f 307 325 326
f 307 326 327
f 307 327 308
f 308 327 309
f 309 327 229
f 229 327 328
f 229 328 230
f 230 328 326
f 230 326 231
f 231 326 325
f 231 325 323
f 231 323 189
f 312 317 313
f 317 312 310
f 317 310 195
f 321 320 303
f 303 320 304
f 310 312 311
f 328 327 326
f 323 325 324
f 329 330 57
f 329 57 331
f 329 331 332
f 329 332 333
f 329 333 334
f 329 334 330
f 330 334 335
f 330 335 336
f 330 336 58
f 330 58 57
f 336 331 56
f 336 56 59
f 336 59 58
f 55 59 56
f 331 57 56
f 331 336 335
f 331 335 337
f 331 337 332
f 332 337 338
f 332 338 333
f 333 338 339
f 333 339 295
f 333 295 334
f 334 295 337
f 334 337 335
f 295 339 302
f 302 339 340
f 302 340 341
f 302 341 303
f 303 341 322
f 322 341 342
f 322 342 295
f 295 342 337
f 337 342 338
f 338 342 340
f 338 340 339
f 341 340 342
f 274 18 275
f 275 18 17
f 275 17 343
f 275 343 276
f 276 343 277
f 277 343 19
f 277 19 18
f 277 18 274
f 277 274 273
f 15 19 16
f 16 19 343
f 16 343 17
