# RS2 Model 25840
# Vertices: 151
# Faces: 221

v 13 -8 117
v 13 8 113
v 13 8 117
v -13 8 117
v -13 -8 117
v -13 -8 113
v 13 -8 113
v 15 13 100
v -13 8 113
v -15 13 100
v -17 -8 100
v 0 -9 100
v 17 -9 100
v 17 9 95
v 0 9 95
v -17 9 95
v -15 7 61
v -15 -9 64
v -3 -9 64
v 3 7 61
v 3 -9 64
v 15 -9 64
v 15 7 61
v 17 9 49
v 12 6 22
v 6 6 22
v 1 9 49
v 17 -9 51
v 12 -4 21
v 14 8 25
v 4 8 25
v 4 -6 25
v 6 -4 21
v 1 -9 51
v 14 -6 25
v 16 -8 24
v 16 10 24
v 2 10 24
v 2 -8 24
v 4 -6 17
v 14 -6 17
v 14 8 19
v 4 8 19
v -1 9 49
v -6 6 22
v -12 6 22
v -17 9 49
v -3 7 61
v -1 -9 51
v -6 -4 21
v -4 8 25
v -14 8 25
v -14 -6 25
v -12 -4 21
v -17 -9 51
v -4 -6 25
v -2 -8 24
v -2 10 24
v -16 10 24
v -16 -8 24
v -14 -6 17
v -4 -6 17
v -4 8 19
v -14 8 19
v 15 -6 7
v 15 -20 -3
v 15 10 -3
v 15 9 2
v 14 -3 12
v 5 -3 12
v 5 -6 7
v 15 -18 2
v 4 -18 2
v 4 -20 -3
v 5 -19 -5
v 14 -19 -5
v 14 9 -5
v 4 10 -3
v 4 9 2
v 5 7 9
v 15 7 9
v 12 -11 5
v 14 -9 6
v 12 -8 7
v 11 -9 6
v 12 -6 8
v 14 -5 9
v 12 -4 11
v 11 -5 9
v 12 -3 12
v 14 -4 14
v 12 -4 16
v 11 -4 14
v 8 -9 6
v 7 -8 7
v 5 -9 6
v 7 -11 5
v 8 -5 9
v 7 -4 11
v 5 -5 9
v 7 -6 8
v 8 -4 14
v 7 -4 16
v 5 -4 14
v 7 -3 12
v 5 9 -5
v -15 10 -3
v -15 -20 -3
v -15 -6 7
v -15 9 2
v -4 9 2
v -4 10 -3
v -5 9 -5
v -14 9 -5
v -14 -19 -5
v -4 -20 -3
v -4 -18 2
v -15 -18 2
v -5 -6 7
v -5 -3 12
v -14 -3 12
v -15 7 9
v -5 7 9
v -5 -19 -5
v -11 -9 6
v -12 -8 7
v -14 -9 6
v -12 -11 5
v -11 -5 9
v -12 -4 11
v -14 -5 9
v -12 -6 8
v -11 -4 14
v -12 -4 16
v -14 -4 14
v -12 -3 12
v -7 -11 5
v -5 -9 6
v -7 -8 7
v -8 -9 6
v -7 -6 8
v -5 -5 9
v -7 -4 11
v -8 -5 9
v -7 -3 12
v -5 -4 14
v -7 -4 16
v -8 -4 14
v 1 -1 0
v -3 -1 0
v 1 3 0

f 1 2 3
f 1 3 4
f 1 4 5
f 1 5 6
f 1 6 7
f 1 7 2
f 2 7 8
f 2 8 9
f 2 9 3
f 3 9 4
f 4 9 5
f 5 9 6
f 6 9 10
f 6 10 11
f 6 11 12
f 6 12 7
f 7 12 13
f 7 13 8
f 8 13 14
f 8 14 15
f 8 15 10
f 8 10 9
f 15 16 10
f 10 16 11
f 11 16 17
f 11 17 18
f 11 18 19
f 11 19 12
f 12 19 15
f 12 15 20
f 12 20 21
f 12 21 22
f 12 22 13
f 13 22 14
f 14 22 23
f 14 23 20
f 14 20 15
f 24 25 26
f 24 26 27
f 24 27 23
f 24 23 28
f 24 28 29
f 24 29 25
f 25 29 30
f 25 30 26
f 26 30 31
f 26 31 32
f 26 32 33
f 26 33 34
f 26 34 27
f 27 34 21
f 27 21 20
f 27 20 23
f 29 28 34
f 29 34 33
f 29 33 32
f 29 32 35
f 29 35 30
f 30 35 36
f 30 36 37
f 30 37 31
f 31 37 38
f 31 38 32
f 32 38 39
f 32 39 35
f 35 39 36
f 36 39 40
f 36 40 41
f 36 41 37
f 37 41 42
f 37 42 38
f 38 42 43
f 38 43 39
f 39 43 40
f 28 21 34
f 21 28 22
f 22 28 23
f 44 45 46
f 44 46 47
f 44 47 48
f 44 48 49
f 44 49 50
f 44 50 45
f 45 50 51
f 45 51 46
f 46 51 52
f 46 52 53
f 46 53 54
f 46 54 55
f 46 55 47
f 47 55 18
f 47 18 17
f 47 17 48
f 48 17 15
f 48 15 19
f 48 19 49
f 49 19 18
f 49 18 55
f 49 55 50
f 50 55 54
f 50 54 53
f 50 53 56
f 50 56 51
f 51 56 57
f 51 57 58
f 51 58 52
f 52 58 59
f 52 59 53
f 53 59 60
f 53 60 56
f 56 60 57
f 57 60 61
f 57 61 62
f 57 62 58
f 58 62 63
f 58 63 59
f 59 63 64
f 59 64 60
f 60 64 61
f 15 17 16
f 65 66 67
f 65 67 68
f 65 68 69
f 65 69 70
f 65 70 71
f 65 71 72
f 65 72 66
f 66 72 73
f 66 73 74
f 66 74 75
f 66 75 76
f 66 76 67
f 67 76 77
f 67 77 78
f 67 78 79
f 67 79 68
f 68 79 80
f 68 80 81
f 68 81 69
f 69 81 25
f 69 25 29
f 69 29 70
f 70 29 33
f 70 33 80
f 70 80 79
f 70 79 71
f 71 79 78
f 71 78 74
f 71 74 73
f 71 73 72
f 33 26 80
f 80 26 81
f 81 26 25
f 82 83 84
f 82 84 85
f 86 87 88
f 86 88 89
f 90 91 92
f 90 92 93
f 94 95 96
f 94 96 97
f 98 99 100
f 98 100 101
f 102 103 104
f 102 104 105
f 106 75 74
f 106 74 78
f 106 78 77
f 106 77 76
f 106 76 75
f 107 108 109
f 107 109 110
f 107 110 111
f 107 111 112
f 107 112 113
f 107 113 114
f 107 114 108
f 108 114 115
f 108 115 116
f 108 116 117
f 108 117 118
f 108 118 109
f 109 118 119
f 109 119 120
f 109 120 121
f 109 121 110
f 110 121 122
f 110 122 123
f 110 123 111
f 111 123 120
f 111 120 119
f 111 119 112
f 112 119 116
f 112 116 124
f 112 124 113
f 113 124 114
f 114 124 115
f 115 124 116
f 119 117 116
f 117 119 118
f 54 46 122
f 54 122 121
f 54 121 50
f 50 121 120
f 50 120 45
f 45 120 123
f 45 123 46
f 46 123 122
f 125 126 127
f 125 127 128
f 129 130 131
f 129 131 132
f 133 134 135
f 133 135 136
f 137 138 139
f 137 139 140
f 141 142 143
f 141 143 144
f 145 146 147
f 145 147 148
f 149 150 151
