# RS2 Model 25941
# Vertices: 52
# Faces: 41

v -64 22 208
v -64 -3 204
v -64 1 197
v -64 20 200
v -64 25 197
v -64 -11 190
v -64 -7 173
v -64 -21 186
v -64 -19 168
v -64 -24 169
v -64 -27 174
v -64 -29 216
v -64 -35 213
v -64 -35 219
v -64 -30 223
v -64 -18 218
v -64 -17 225
v -64 -5 209
v -64 27 195
v -64 24 166
v -64 30 166
v -64 29 164
v -64 25 164
v -64 25 154
v -64 29 154
v -64 32 156
v -64 32 162
v -64 22 162
v -64 22 156
v -64 -4 151
v -64 -9 167
v -64 -20 163
v -64 -13 147
v -64 -29 157
v -64 -21 140
v -64 3 152
v -64 2 166
v -64 10 150
v -64 13 160
v -64 16 147
v -64 20 154
v -64 22 144
v -64 24 151
v -64 28 143
v -64 27 150
v -64 33 146
v -64 31 151
v -64 36 150
v -64 34 153
v -64 -16 122
v -64 44 133
v -64 -32 209

f 1 2 3
f 1 3 4
f 1 4 5
f 3 2 6
f 3 6 7
f 7 6 8
f 7 8 9
f 9 8 10
f 10 8 11
f 11 8 12
f 11 12 13
f 13 12 14
f 14 12 15
f 15 12 16
f 15 16 17
f 17 16 18
f 19 20 21
f 22 23 24
f 22 24 25
f 22 25 26
f 22 26 27
f 24 23 28
f 24 28 29
f 30 31 32
f 30 32 33
f 33 32 34
f 33 34 35
f 31 30 36
f 31 36 37
f 37 36 38
f 37 38 39
f 39 38 40
f 39 40 41
f 41 40 42
f 41 42 43
f 43 42 44
f 43 44 45
f 45 44 46
f 45 46 47
f 47 46 48
f 47 48 49
