# RS2 Model 25951
# Vertices: 494
# Faces: 965

v 439 -30 2
v 462 -32 11
v 460 -39 13
v 434 -35 0
v 416 -29 -3
v 416 -31 13
v 452 -33 18
v 454 -34 17
v 458 -34 14
v 461 -37 15
v 445 -39 18
v 416 -36 13
v 414 -34 -4
v 397 -28 -9
v 400 -30 3
v 400 -34 6
v 453 -37 19
v 475 -35 23
v 462 -35 22
v 468 -32 18
v 484 -33 20
v 399 -31 -10
v 371 -30 -12
v 371 -29 -12
v 372 -30 -6
v 381 -30 -2
v 381 -32 -2
v 374 -31 -8
v 358 -30 -16
v 499 -28 17
v 480 -34 31
v 445 -33 26
v 463 -28 13
v 485 -26 12
v 516 -17 18
v 492 -21 29
v 459 -33 32
v 450 -29 30
v 429 -20 33
v 445 -20 18
v 501 -13 7
v 530 -6 16
v 548 -8 18
v 548 -15 20
v 550 -18 23
v 557 -24 35
v 547 -20 41
v 538 -16 50
v 472 -17 38
v 458 -22 38
v 454 -31 36
v 446 -29 42
v 433 -17 52
v 414 -8 41
v 372 -23 33
v 370 -21 19
v 367 -12 9
v 443 -4 8
v 448 -11 12
v 479 -5 13
v 517 3 9
v 536 2 22
v 550 1 23
v 550 -4 21
v 590 -13 19
v 574 -20 26
v 548 -24 33
v 583 -33 38
v 575 -33 46
v 569 -25 56
v 548 -18 51
v 547 -15 53
v 545 -3 58
v 521 2 46
v 465 -5 40
v 461 -10 39
v 464 -16 44
v 511 33 45
v 529 23 40
v 537 29 39
v 518 37 43
v 495 33 45
v 493 32 31
v 520 22 33
v 525 23 33
v 531 24 38
v 532 26 37
v 527 28 29
v 499 35 27
v 493 37 44
v 481 33 48
v 480 31 36
v 479 36 34
v 529 26 32
v 540 18 34
v 529 19 35
v 536 20 39
v 545 19 38
v 479 36 46
v 442 30 44
v 463 31 34
v 463 33 35
v 366 31 29
v 390 25 23
v 392 31 20
v 366 35 28
v 347 31 31
v 344 25 18
v 381 22 15
v 386 24 18
v 389 26 19
v 390 27 18
v 382 27 12
v 347 29 15
v 343 34 29
v 328 31 32
v 329 26 22
v 331 29 21
v 386 27 17
v 406 21 14
v 393 20 13
v 400 23 18
v 409 22 18
v 326 32 31
v 290 30 35
v 313 27 26
v 315 29 24
v 412 -26 51
v 440 -18 55
v 439 -19 61
v 411 -27 55
v 392 -27 52
v 386 -22 53
v 404 -19 53
v 395 -11 55
v 431 -10 57
v 435 -12 56
v 437 -16 55
v 435 -16 58
v 429 -11 62
v 397 -12 61
v 388 -28 56
v 373 -30 54
v 375 -24 54
v 379 -17 53
v 375 -30 56
v 337 -31 53
v 361 -20 56
v 364 -20 57
v 380 -17 57
v 432 -13 59
v 451 -10 53
v 441 -10 54
v 444 -14 52
v 459 -14 52
v 377 15 11
v 367 13 10
v 394 13 30
v 394 25 24
v 413 17 11
v 394 14 3
v 367 9 3
v 352 7 3
v 345 10 17
v 371 10 22
v 372 0 38
v 405 5 39
v 405 23 34
v 420 20 20
v 420 10 18
v 435 14 28
v 442 8 12
v 381 3 6
v 368 1 7
v 340 -13 10
v 326 -4 3
v 323 3 7
v 287 0 22
v 287 4 32
v 363 -2 41
v 434 6 50
v 422 16 46
v 444 7 37
v 469 5 40
v 467 9 33
v 467 13 29
v 460 9 18
v 458 7 13
v 455 3 13
v 319 -23 28
v 319 -23 11
v 310 -11 4
v 301 -6 12
v 279 -13 13
v 241 -5 13
v 254 7 26
v 268 2 44
v 287 1 47
v 284 -12 46
v 302 -22 42
v 451 -3 38
v 465 -1 40
v 506 12 33
v 500 7 19
v 449 -4 10
v 429 -5 50
v 459 -5 50
v 547 2 27
v 584 -1 26
v 621 -7 19
v 599 -21 18
v 613 -24 37
v 588 -20 47
v 581 -14 51
v 557 -14 61
v 527 13 18
v 540 6 26
v 549 5 29
v 583 4 36
v 621 5 38
v 620 2 34
v 621 0 30
v 621 -3 27
v 622 -6 24
v 624 -7 21
v 624 -13 21
v 622 -15 25
v 624 -15 25
v 619 -22 36
v 619 -24 36
v 621 -21 46
v 620 -19 51
v 619 -15 52
v 619 -11 54
v 619 -7 53
v 619 0 52
v 582 -2 51
v 573 -6 50
v 547 -3 58
v 517 18 27
v 543 15 29
v 544 8 33
v 548 7 32
v 549 8 38
v 623 3 44
v 679 8 41
v 679 3 33
v 679 -7 24
v 638 -9 21
v 624 -15 24
v 680 -17 28
v 679 -24 39
v 678 -18 51
v 678 -9 55
v 678 3 53
v 679 -1 48
v 679 1 41
v 678 -1 36
v 678 -8 31
v 524 17 45
v 547 16 41
v 532 11 52
v 548 6 51
v 562 3 50
v 545 -2 58
v 679 -8 49
v 679 -7 41
v 679 -13 33
v 679 -17 40
v 680 -13 46
v 19 16 89
v 34 23 93
v 35 20 70
v 29 11 62
v 23 3 71
v 11 2 86
v 24 4 91
v 28 10 91
v 37 14 93
v 48 20 97
v 49 19 70
v 55 14 25
v 61 10 21
v 68 0 18
v 35 -8 63
v 26 -12 91
v 33 -4 93
v 38 4 95
v 43 12 94
v 59 12 98
v 64 10 83
v 50 -8 31
v 49 9 29
v 49 14 29
v 110 8 31
v 89 12 22
v 68 1 9
v 67 -10 18
v 47 -9 77
v 50 -17 97
v 45 -7 95
v 53 0 97
v 49 8 96
v 64 -4 97
v 67 4 81
v 46 -13 33
v 83 -24 34
v 134 -8 27
v 140 2 34
v 140 11 34
v 138 17 34
v 106 25 20
v 84 14 5
v 72 -1 -1
v 75 -20 15
v 55 -17 78
v 67 -10 75
v 61 -24 24
v 61 -21 24
v 53 -12 29
v 44 -14 34
v 89 -23 17
v 121 -17 9
v 127 -21 16
v 147 -20 21
v 157 -28 35
v 151 -16 41
v 135 1 42
v 156 4 32
v 129 13 15
v 109 4 5
v 98 -9 5
v 73 -29 13
v -3 -17 76
v -23 -17 76
v -3 3 76
v 119 -2 2
v 123 7 5
v 153 -3 0
v 166 -20 12
v 172 -33 13
v 164 -33 22
v 181 -32 40
v 179 -31 48
v 182 -25 41
v 180 -16 32
v 151 13 15
v 153 9 4
v 183 -5 6
v 197 -18 3
v 213 -20 20
v 195 -32 26
v 191 -32 38
v 175 -39 41
v 177 -37 40
v 175 -36 42
v 187 -31 46
v 181 -16 33
v 217 -1 40
v 216 8 33
v 245 -35 66
v 257 -25 56
v 270 -23 62
v 257 -32 69
v 232 -36 69
v 226 -30 72
v 237 -27 68
v 228 -19 68
v 249 -17 58
v 254 -18 59
v 257 -21 60
v 262 -21 60
v 261 -16 64
v 239 -18 71
v 238 -35 74
v 217 -38 68
v 216 -32 69
v 220 -25 71
v 216 -38 71
v 180 -40 70
v 205 -28 70
v 205 -28 72
v 227 -25 76
v 260 -17 61
v 265 -13 56
v 256 -13 56
v 258 -18 54
v 270 -18 55
v 279 -20 52
v 269 -7 57
v 247 -9 54
v 253 -23 49
v 279 -28 44
v 251 2 53
v 246 13 50
v 227 2 45
v 215 -15 42
v 269 -21 24
v 278 -26 33
v 288 -31 40
v 266 -37 10
v 297 -37 15
v 292 -43 17
v 263 -42 12
v 241 -37 11
v 251 -33 26
v 290 -35 25
v 293 -37 23
v 294 -38 19
v 290 -41 21
v 282 -40 27
v 252 -37 28
v 241 -42 11
v 222 -38 11
v 230 -34 22
v 231 -38 24
v 289 -39 24
v 313 -32 25
v 304 -34 25
v 309 -31 18
v 315 -29 18
v 222 -40 12
v 182 -33 12
v 212 -34 21
v 212 -37 21
v 213 -7 5
v 242 4 6
v 246 13 17
v 223 18 23
v 235 17 37
v 214 14 11
v 215 13 27
v 226 9 37
v 290 -36 29
v 316 -32 31
v 291 -29 14
v 297 -20 5
v 277 -25 23
v 200 -9 -1
v 212 -3 3
v 212 4 2
v 224 10 7
v 232 10 7
v 235 12 10
v 226 13 7
v 213 7 3
v 209 4 0
v 200 8 13
v 218 14 4
v 218 13 6
v 216 11 3
v 216 10 -2
v 218 17 4
v 215 13 9
v 217 10 3
v 215 7 3
v 182 8 -7
v 184 20 6
v 183 18 8
v 181 5 -4
v 147 -37 37
v 176 -36 36
v 175 -42 38
v 146 -43 38
v 125 -36 42
v 140 -33 53
v 174 -33 45
v 174 -39 47
v 140 -37 56
v 124 -42 43
v 106 -38 45
v 119 -34 53
v 118 -37 55
v 173 -38 44
v 104 -41 46
v 68 -38 54
v 101 -35 54
v 101 -37 57
v 162 15 6
v 159 18 2
v 145 15 4
v 160 7 -3
v 144 17 0
v 107 13 -1
v 143 7 -4
v 141 9 -6
v 159 9 -6
v 22 3 73
v 23 4 73
v 24 3 73
v 23 2 73
v 677 31 52
v 675 -12 82
v 681 -2 -2

f 1 2 3
f 1 3 4
f 1 4 5
f 1 5 6
f 1 6 2
f 2 6 7
f 2 7 8
f 2 8 9
f 2 9 3
f 3 9 10
f 3 10 11
f 3 11 4
f 4 11 12
f 4 12 13
f 4 13 5
f 5 13 14
f 5 14 15
f 5 15 6
f 6 15 16
f 6 16 12
f 6 12 7
f 7 12 11
f 7 11 17
f 7 17 8
f 8 17 18
f 8 18 19
f 8 19 9
f 9 19 20
f 9 20 10
f 10 20 21
f 10 21 17
f 10 17 11
f 14 13 22
f 14 22 23
f 14 23 24
f 14 24 25
f 14 25 26
f 14 26 15
f 15 26 27
f 15 27 16
f 16 27 13
f 16 13 12
f 27 22 13
f 22 27 23
f 23 27 28
f 23 28 29
f 23 29 24
f 24 29 25
f 25 29 28
f 25 28 26
f 26 28 27
f 17 21 18
f 18 21 30
f 18 30 31
f 18 31 19
f 19 31 32
f 19 32 20
f 20 32 33
f 20 33 21
f 21 33 30
f 30 33 34
f 30 34 35
f 30 35 36
f 30 36 31
f 31 36 37
f 31 37 32
f 32 37 38
f 32 38 39
f 32 39 40
f 32 40 33
f 33 40 34
f 34 40 41
f 34 41 35
f 35 41 42
f 35 42 43
f 35 43 44
f 35 44 45
f 35 45 46
f 35 46 36
f 36 46 47
f 36 47 48
f 36 48 49
f 36 49 37
f 37 49 50
f 37 50 51
f 37 51 38
f 38 51 52
f 38 52 39
f 39 52 53
f 39 53 54
f 39 54 55
f 39 55 40
f 40 55 56
f 40 56 57
f 40 57 58
f 40 58 59
f 40 59 60
f 40 60 41
f 41 60 61
f 41 61 42
f 42 61 62
f 42 62 63
f 42 63 64
f 42 64 43
f 43 64 65
f 43 65 44
f 44 65 45
f 45 65 66
f 45 66 67
f 67 66 68
f 67 68 69
f 67 69 70
f 67 70 71
f 67 71 47
f 47 71 48
f 48 71 72
f 48 72 73
f 48 73 74
f 48 74 75
f 48 75 49
f 49 75 76
f 49 76 77
f 49 77 50
f 50 77 52
f 50 52 51
f 78 79 80
f 78 80 81
f 78 81 82
f 78 82 83
f 78 83 79
f 79 83 84
f 79 84 85
f 79 85 86
f 79 86 80
f 80 86 87
f 80 87 88
f 80 88 81
f 81 88 89
f 81 89 90
f 81 90 82
f 82 90 91
f 82 91 92
f 82 92 83
f 83 92 93
f 83 93 89
f 83 89 84
f 84 89 88
f 84 88 94
f 84 94 85
f 85 94 95
f 85 95 96
f 85 96 86
f 86 96 97
f 86 97 87
f 87 97 98
f 87 98 94
f 87 94 88
f 91 90 99
f 91 99 100
f 91 100 101
f 91 101 92
f 92 101 102
f 92 102 93
f 93 102 90
f 93 90 89
f 102 99 90
f 99 102 100
f 100 102 101
f 103 104 105
f 103 105 106
f 103 106 107
f 103 107 108
f 103 108 104
f 104 108 109
f 104 109 110
f 104 110 111
f 104 111 105
f 105 111 112
f 105 112 113
f 105 113 106
f 106 113 114
f 106 114 115
f 106 115 107
f 107 115 116
f 107 116 117
f 107 117 108
f 108 117 118
f 108 118 114
f 108 114 109
f 109 114 113
f 109 113 119
f 109 119 110
f 110 119 120
f 110 120 121
f 110 121 111
f 111 121 122
f 111 122 112
f 112 122 123
f 112 123 119
f 112 119 113
f 116 115 124
f 116 124 125
f 116 125 126
f 116 126 117
f 117 126 127
f 117 127 118
f 118 127 115
f 118 115 114
f 127 124 115
f 124 127 125
f 125 127 126
f 128 129 130
f 128 130 131
f 128 131 132
f 128 132 133
f 128 133 134
f 128 134 129
f 129 134 135
f 129 135 136
f 129 136 137
f 129 137 138
f 129 138 130
f 130 138 139
f 130 139 140
f 130 140 131
f 131 140 141
f 131 141 142
f 131 142 132
f 132 142 143
f 132 143 133
f 133 143 144
f 133 144 145
f 133 145 135
f 133 135 134
f 143 142 146
f 143 146 147
f 143 147 144
f 144 147 148
f 144 148 145
f 145 148 149
f 145 149 150
f 145 150 135
f 135 150 141
f 135 141 136
f 136 141 140
f 136 140 151
f 136 151 137
f 137 151 152
f 137 152 153
f 137 153 138
f 138 153 154
f 138 154 139
f 139 154 155
f 139 155 151
f 139 151 140
f 149 146 142
f 149 142 150
f 150 142 141
f 147 146 149
f 147 149 148
f 156 157 158
f 156 158 159
f 156 159 122
f 156 122 121
f 156 121 160
f 156 160 161
f 156 161 162
f 156 162 157
f 157 162 163
f 157 163 164
f 157 164 165
f 157 165 158
f 158 165 166
f 158 166 167
f 158 167 168
f 158 168 159
f 159 168 169
f 159 169 123
f 159 123 122
f 170 160 169
f 170 169 171
f 170 171 172
f 170 172 173
f 170 173 160
f 160 173 161
f 161 173 174
f 161 174 162
f 162 174 163
f 163 174 175
f 163 175 176
f 163 176 177
f 163 177 164
f 164 177 178
f 164 178 165
f 165 178 179
f 165 179 180
f 165 180 166
f 166 180 55
f 166 55 54
f 166 54 167
f 167 54 181
f 167 181 182
f 167 182 168
f 168 182 171
f 168 171 169
f 171 182 183
f 171 183 184
f 171 184 185
f 171 185 186
f 171 186 172
f 172 186 187
f 172 187 188
f 172 188 189
f 172 189 58
f 172 58 173
f 173 58 57
f 173 57 174
f 174 57 175
f 175 57 56
f 175 56 190
f 175 190 191
f 175 191 192
f 175 192 176
f 176 192 193
f 176 193 177
f 177 193 178
f 178 193 194
f 178 194 195
f 178 195 196
f 178 196 179
f 179 196 197
f 179 197 198
f 179 198 180
f 180 198 199
f 180 199 200
f 180 200 55
f 55 200 190
f 55 190 56
f 183 182 181
f 183 181 201
f 183 201 184
f 184 201 202
f 184 202 74
f 184 74 185
f 185 74 203
f 185 203 186
f 186 203 187
f 187 203 204
f 187 204 188
f 188 204 189
f 189 204 60
f 189 60 205
f 189 205 58
f 58 205 59
f 59 205 60
f 181 206 207
f 181 207 201
f 201 207 77
f 201 77 76
f 201 76 75
f 201 75 202
f 202 75 74
f 181 54 206
f 206 54 53
f 206 53 154
f 206 154 153
f 206 153 207
f 207 153 152
f 207 152 77
f 77 152 155
f 77 155 53
f 77 53 52
f 62 208 63
f 63 208 209
f 63 209 64
f 64 209 65
f 65 209 210
f 65 210 211
f 65 211 66
f 66 211 68
f 68 211 212
f 68 212 213
f 68 213 69
f 69 213 70
f 70 213 214
f 70 214 215
f 70 215 72
f 70 72 71
f 61 60 204
f 61 204 216
f 61 216 62
f 62 216 217
f 62 217 218
f 62 218 208
f 208 218 219
f 208 219 209
f 209 219 220
f 209 220 221
f 209 221 222
f 209 222 223
f 209 223 224
f 209 224 225
f 209 225 210
f 210 225 211
f 211 225 226
f 211 226 227
f 211 227 212
f 212 227 228
f 212 228 229
f 212 229 230
f 212 230 213
f 213 230 231
f 213 231 232
f 213 232 233
f 213 233 234
f 213 234 214
f 214 234 235
f 214 235 236
f 214 236 237
f 214 237 238
f 214 238 215
f 215 238 239
f 215 239 73
f 215 73 72
f 216 240 241
f 216 241 217
f 217 241 242
f 217 242 218
f 218 242 243
f 218 243 219
f 219 243 244
f 219 244 237
f 219 237 236
f 219 236 245
f 219 245 220
f 220 245 246
f 220 246 221
f 221 246 247
f 221 247 222
f 222 247 248
f 222 248 223
f 223 248 224
f 224 248 249
f 224 249 225
f 225 249 226
f 226 249 227
f 227 249 250
f 227 250 228
f 228 250 251
f 228 251 229
f 229 251 252
f 229 252 230
f 230 252 231
f 231 252 253
f 231 253 232
f 232 253 233
f 233 253 254
f 233 254 234
f 234 254 235
f 235 254 255
f 235 255 236
f 236 255 245
f 245 255 246
f 246 255 256
f 246 256 257
f 246 257 247
f 247 257 258
f 247 258 248
f 248 258 259
f 248 259 251
f 248 251 249
f 249 251 250
f 216 204 203
f 216 203 240
f 240 203 74
f 240 74 260
f 240 260 97
f 240 97 96
f 240 96 241
f 241 96 95
f 241 95 261
f 241 261 242
f 242 261 244
f 242 244 243
f 261 260 262
f 261 262 244
f 244 262 263
f 244 263 264
f 244 264 237
f 237 264 238
f 238 264 239
f 239 264 263
f 239 263 265
f 239 265 74
f 239 74 73
f 260 74 262
f 262 74 265
f 262 265 263
f 155 154 53
f 151 155 152
f 121 120 160
f 160 120 169
f 169 120 123
f 123 120 119
f 98 97 260
f 98 260 261
f 98 261 95
f 98 95 94
f 255 254 266
f 255 266 256
f 256 266 267
f 256 267 257
f 257 267 258
f 258 267 259
f 259 267 268
f 259 268 251
f 251 268 252
f 252 268 269
f 252 269 253
f 253 269 270
f 253 270 254
f 254 270 266
f 266 270 267
f 267 270 269
f 267 269 268
f 271 272 273
f 271 273 274
f 271 274 275
f 271 275 276
f 271 276 277
f 271 277 278
f 271 278 272
f 272 278 279
f 272 279 280
f 272 280 273
f 273 280 281
f 273 281 282
f 273 282 274
f 274 282 283
f 274 283 275
f 275 283 284
f 275 284 285
f 275 285 286
f 275 286 276
f 276 286 287
f 276 287 277
f 277 287 288
f 277 288 278
f 278 288 279
f 279 288 289
f 279 289 280
f 280 289 290
f 280 290 291
f 280 291 281
f 281 291 292
f 281 292 293
f 281 293 294
f 281 294 282
f 282 294 295
f 282 295 283
f 283 295 296
f 283 296 284
f 284 296 297
f 284 297 298
f 284 298 285
f 285 298 299
f 285 299 300
f 285 300 286
f 286 300 301
f 286 301 287
f 287 301 288
f 288 301 302
f 288 302 303
f 288 303 289
f 289 303 290
f 290 303 304
f 290 304 291
f 291 304 305
f 291 305 306
f 291 306 292
f 292 306 307
f 292 307 293
f 293 307 308
f 293 308 294
f 294 308 295
f 295 308 309
f 295 309 310
f 295 310 311
f 295 311 312
f 295 312 296
f 296 312 313
f 296 313 297
f 297 313 314
f 297 314 315
f 297 315 298
f 298 315 316
f 298 316 299
f 299 316 300
f 300 316 304
f 300 304 302
f 300 302 301
f 304 316 317
f 304 317 305
f 305 317 318
f 305 318 319
f 305 319 320
f 305 320 321
f 305 321 306
f 306 321 307
f 307 321 322
f 307 322 323
f 307 323 324
f 307 324 308
f 308 324 325
f 308 325 326
f 308 326 327
f 308 327 328
f 308 328 309
f 309 328 310
f 310 328 329
f 310 329 311
f 311 329 330
f 311 330 312
f 312 330 331
f 312 331 313
f 313 331 314
f 314 331 332
f 314 332 315
f 315 332 322
f 315 322 333
f 315 333 318
f 315 318 317
f 315 317 316
f 334 335 336
f 332 331 337
f 332 337 323
f 332 323 322
f 331 338 337
f 337 338 339
f 337 339 323
f 323 339 340
f 323 340 324
f 324 340 325
f 325 340 341
f 325 341 342
f 325 342 326
f 326 342 343
f 326 343 344
f 326 344 345
f 326 345 327
f 327 345 346
f 327 346 329
f 327 329 328
f 322 321 320
f 322 320 319
f 322 319 333
f 333 319 318
f 331 330 338
f 338 330 347
f 338 347 348
f 338 348 339
f 339 348 349
f 339 349 340
f 340 349 341
f 341 349 350
f 341 350 351
f 341 351 352
f 341 352 342
f 342 352 353
f 342 353 343
f 343 353 354
f 343 354 355
f 343 355 344
f 344 355 356
f 344 356 357
f 344 357 345
f 345 357 352
f 345 352 346
f 346 352 351
f 346 351 358
f 346 358 329
f 329 358 359
f 329 359 360
f 329 360 347
f 329 347 330
f 361 362 363
f 361 363 364
f 361 364 365
f 361 365 366
f 361 366 367
f 361 367 362
f 362 367 368
f 362 368 369
f 362 369 370
f 362 370 371
f 362 371 363
f 363 371 372
f 363 372 373
f 363 373 364
f 364 373 374
f 364 374 375
f 364 375 365
f 365 375 376
f 365 376 366
f 366 376 377
f 366 377 378
f 366 378 368
f 366 368 367
f 376 375 379
f 376 379 380
f 376 380 377
f 377 380 381
f 377 381 378
f 378 381 382
f 378 382 383
f 378 383 368
f 368 383 374
f 368 374 369
f 369 374 373
f 369 373 384
f 369 384 370
f 370 384 385
f 370 385 386
f 370 386 371
f 371 386 387
f 371 387 372
f 372 387 388
f 372 388 384
f 372 384 373
f 382 379 375
f 382 375 383
f 383 375 374
f 380 379 382
f 380 382 381
f 384 388 385
f 385 388 389
f 385 389 390
f 385 390 386
f 386 390 391
f 386 391 387
f 387 391 392
f 387 392 388
f 388 392 389
f 389 392 393
f 389 393 199
f 389 199 390
f 390 199 394
f 390 394 391
f 391 394 395
f 391 395 396
f 391 396 397
f 391 397 392
f 392 397 351
f 392 351 398
f 392 398 393
f 393 398 399
f 393 399 400
f 393 400 200
f 393 200 199
f 401 402 403
f 401 403 404
f 401 404 405
f 401 405 406
f 401 406 402
f 402 406 407
f 402 407 408
f 402 408 409
f 402 409 403
f 403 409 410
f 403 410 411
f 403 411 404
f 404 411 412
f 404 412 413
f 404 413 405
f 405 413 414
f 405 414 415
f 405 415 406
f 406 415 416
f 406 416 412
f 406 412 407
f 407 412 411
f 407 411 417
f 407 417 408
f 408 417 418
f 408 418 419
f 408 419 409
f 409 419 420
f 409 420 410
f 410 420 421
f 410 421 417
f 410 417 411
f 414 413 422
f 414 422 423
f 414 423 424
f 414 424 415
f 415 424 425
f 415 425 416
f 416 425 413
f 416 413 412
f 425 422 413
f 422 425 423
f 423 425 424
f 195 426 427
f 195 427 196
f 196 427 428
f 196 428 429
f 196 429 430
f 196 430 395
f 196 395 197
f 197 395 394
f 197 394 199
f 197 199 198
f 428 431 429
f 429 431 432
f 429 432 433
f 429 433 430
f 430 433 396
f 430 396 395
f 400 434 435
f 400 435 200
f 200 435 190
f 190 435 191
f 191 435 418
f 191 418 421
f 191 421 436
f 191 436 437
f 191 437 192
f 192 437 193
f 193 437 194
f 194 437 436
f 194 436 438
f 194 438 398
f 194 398 351
f 194 351 195
f 195 351 426
f 426 351 439
f 426 439 440
f 426 440 427
f 427 440 441
f 427 441 442
f 427 442 443
f 427 443 428
f 428 443 444
f 428 444 431
f 431 444 445
f 431 445 446
f 431 446 447
f 431 447 448
f 431 448 432
f 432 448 348
f 432 348 347
f 432 347 360
f 432 360 433
f 433 360 396
f 396 360 359
f 396 359 397
f 397 359 358
f 397 358 351
f 400 399 434
f 434 399 438
f 434 438 436
f 434 436 420
f 434 420 419
f 434 419 435
f 435 419 418
f 421 420 436
f 417 421 418
f 445 442 446
f 446 442 441
f 446 441 447
f 447 441 439
f 447 439 349
f 447 349 448
f 448 349 348
f 449 450 445
f 449 445 444
f 449 444 451
f 449 451 452
f 449 452 453
f 449 453 450
f 450 453 454
f 450 454 455
f 450 455 442
f 450 442 445
f 451 444 443
f 451 443 455
f 451 455 456
f 451 456 452
f 452 456 457
f 452 457 458
f 452 458 453
f 453 458 459
f 453 459 454
f 454 459 460
f 454 460 456
f 454 456 455
f 455 443 442
f 461 462 463
f 461 463 464
f 461 464 465
f 461 465 466
f 461 466 462
f 462 466 467
f 462 467 356
f 462 356 355
f 462 355 463
f 463 355 354
f 463 354 468
f 463 468 464
f 464 468 469
f 464 469 470
f 464 470 465
f 465 470 471
f 465 471 472
f 465 472 466
f 466 472 473
f 466 473 469
f 466 469 467
f 467 469 468
f 467 468 474
f 467 474 356
f 356 474 357
f 357 474 353
f 357 353 352
f 471 470 475
f 471 475 476
f 471 476 477
f 471 477 472
f 472 477 478
f 472 478 473
f 473 478 470
f 473 470 469
f 478 475 470
f 475 478 476
f 476 478 477
f 354 474 468
f 474 354 353
f 350 349 439
f 350 439 351
f 479 459 458
f 479 458 480
f 479 480 481
f 479 481 482
f 479 482 460
f 479 460 459
f 481 480 483
f 481 483 484
f 481 484 485
f 481 485 482
f 482 485 486
f 482 486 487
f 482 487 460
f 460 487 457
f 460 457 456
f 486 483 480
f 486 480 487
f 487 480 457
f 457 480 458
f 484 483 486
f 484 486 485
f 439 441 440
f 488 489 490
f 488 490 491
f 304 303 302
f 399 398 438
