# RS2 Model 25965
# Vertices: 53
# Faces: 65

v -5 64 182
v -8 64 141
v 9 19 135
v 3 17 180
v -5 64 195
v 31 -27 185
v 33 0 195
v 30 0 212
v -5 64 215
v 33 0 226
v -5 64 226
v 0 64 240
v 64 -64 240
v 64 -64 226
v 64 -64 215
v 64 -64 195
v 64 -64 182
v 64 -56 141
v 30 -17 133
v 64 -43 122
v 36 -9 116
v 64 -32 98
v 45 2 83
v 64 16 45
v 57 18 43
v 64 8 43
v 51 12 41
v 64 18 29
v 47 27 28
v 49 27 12
v 64 21 14
v 52 27 0
v 64 21 0
v -1 64 122
v 30 40 111
v 8 64 99
v 43 40 77
v 51 64 45
v 56 47 40
v 44 43 37
v 43 64 43
v 47 44 28
v 53 64 29
v 56 64 14
v 49 44 16
v 52 44 0
v 56 64 0
v -8 63 28
v 14 -25 22
v 90 89 56
v 17 92 0
v 80 -39 -4
v 0 78 219

f 1 2 3
f 1 3 4
f 1 4 5
f 5 4 6
f 5 6 7
f 5 7 8
f 5 8 9
f 9 8 10
f 9 10 11
f 11 10 12
f 12 10 13
f 13 10 14
f 14 10 8
f 14 8 15
f 15 8 7
f 15 7 16
f 16 7 6
f 16 6 17
f 17 6 18
f 18 6 19
f 18 19 20
f 20 19 21
f 20 21 22
f 22 21 23
f 22 23 24
f 24 23 25
f 24 25 26
f 26 25 27
f 26 27 28
f 28 27 29
f 28 29 30
f 28 30 31
f 31 30 32
f 31 32 33
f 2 34 35
f 2 35 3
f 3 35 21
f 3 21 19
f 3 19 4
f 4 19 6
f 34 36 37
f 34 37 35
f 35 37 23
f 35 23 21
f 36 38 39
f 36 39 37
f 37 39 25
f 37 25 23
f 40 41 42
f 40 42 29
f 40 29 27
f 40 27 39
f 40 39 38
f 40 38 41
f 41 43 42
f 42 43 44
f 42 44 45
f 42 45 29
f 29 45 30
f 30 45 46
f 30 46 32
f 45 44 47
f 45 47 46
f 48 49 50
f 39 27 25
