# RS2 Model 25985
# Vertices: 243
# Faces: 459

v 41 34 144
v 41 39 144
v 55 39 144
v 55 34 144
v 55 34 150
v 41 34 150
v 40 35 149
v 40 35 145
v 40 39 145
v 41 39 150
v 55 39 150
v 56 39 149
v 56 39 145
v 56 35 145
v 56 35 149
v 40 39 149
v 37 38 148
v 37 35 148
v 38 35 146
v 38 38 146
v -8 42 150
v -15 32 150
v -15 32 153
v -8 42 153
v 2 45 150
v 2 45 153
v 11 42 150
v 11 42 153
v 18 32 150
v 18 32 153
v 18 22 150
v 18 22 153
v 11 13 151
v 11 13 154
v 2 9 150
v 2 9 153
v -8 13 150
v -8 13 153
v -15 22 150
v -15 22 153
v 0 27 153
v 1 28 153
v 2 28 153
v 3 27 153
v 3 25 153
v 1 25 153
v 2 27 157
v 17 35 136
v 17 38 136
v 30 38 136
v 30 35 136
v 30 35 139
v 17 35 139
v 17 38 139
v 30 38 139
v 25 51 128
v 25 3 128
v 25 3 119
v 25 51 119
v -23 51 128
v -15 49 130
v 17 49 130
v 23 49 130
v 23 43 130
v 23 11 130
v 23 5 130
v 17 5 130
v -23 3 128
v -23 3 119
v -23 51 119
v -21 5 130
v -15 5 130
v -15 5 143
v -21 5 143
v -21 11 130
v -21 43 130
v -21 49 130
v -21 49 143
v -15 49 143
v -15 43 130
v 17 43 130
v 17 43 143
v 17 49 143
v 23 49 143
v 23 43 143
v 17 11 130
v 17 11 143
v 23 11 143
v 23 5 143
v 17 5 143
v -15 11 130
v 10 11 139
v 10 11 132
v -8 11 132
v -15 11 143
v 17 39 140
v 17 39 135
v 17 34 135
v 17 34 140
v -21 11 143
v -15 43 143
v -21 43 143
v -23 51 145
v 25 51 145
v 25 3 145
v -23 3 145
v -21 5 148
v -21 49 148
v 23 49 148
v 23 5 148
v -8 11 139
v 33 38 137
v 33 35 137
v 32 35 140
v 32 38 140
v 33 38 141
v 35 38 140
v 35 35 140
v 33 35 141
v 34 35 145
v 34 38 145
v 36 38 144
v 36 35 144
v -14 22 211
v -12 12 207
v -33 1 208
v -39 20 215
v -12 27 215
v -7 28 210
v -8 23 207
v -7 16 203
v -8 8 207
v -20 -13 208
v -26 -23 207
v -44 -5 207
v -51 19 217
v -33 33 227
v -6 29 220
v -2 28 213
v 3 31 204
v -1 31 202
v -2 27 199
v -1 22 196
v -4 14 203
v 2 6 211
v -1 -18 215
v -2 -30 217
v -3 -31 219
v -27 -24 210
v -45 -7 210
v -52 18 219
v -43 37 232
v -19 39 238
v 3 27 224
v 6 28 216
v 9 30 207
v 13 35 195
v 8 35 192
v 6 35 190
v 6 32 189
v 6 27 187
v 1 19 196
v 3 12 207
v 6 8 215
v 12 -12 227
v 16 -22 232
v 15 -23 234
v 10 -14 229
v -3 -19 217
v -22 -14 210
v -35 0 210
v -40 18 217
v -44 36 234
v -24 45 247
v 0 34 246
v 7 24 224
v 8 25 216
v 10 28 207
v 14 34 195
v 22 43 175
v 18 43 175
v 16 44 174
v 16 41 173
v 16 37 172
v 7 26 187
v 6 18 199
v 8 13 210
v 9 14 220
v 18 2 238
v 24 -3 247
v 23 -4 249
v 16 1 241
v 8 9 228
v 6 0 222
v -2 -2 216
v -13 0 210
v -21 8 210
v -23 19 216
v -35 32 229
v -26 44 249
v 0 38 257
v 13 21 246
v 8 18 213
v 11 23 204
v 15 28 192
v 24 39 175
v 23 39 148
v 23 42 148
v 20 43 148
v 17 43 148
v 16 40 148
v 16 37 148
v 21 35 173
v 12 25 189
v 11 19 202
v 17 22 257
v 16 21 259
v 11 20 248
v 6 20 233
v 4 22 224
v 6 14 220
v 5 9 216
v -1 8 213
v -8 9 209
v -12 13 209
v -14 20 213
v -21 27 222
v -20 38 241
v -1 37 259
v -1 32 248
v -1 27 233
v 0 25 224
v -1 19 213
v -12 25 216
v -12 29 228
v -7 26 220
v 15 26 190
v 24 36 175
v 23 36 148
v 20 36 148
v 4 29 119
v 0 25 119
v 4 25 119

f 1 2 3
f 1 3 4
f 1 4 5
f 1 5 6
f 1 6 7
f 1 7 8
f 1 8 2
f 2 8 9
f 2 9 10
f 2 10 3
f 3 10 11
f 3 11 12
f 3 12 13
f 3 13 4
f 4 13 14
f 4 14 5
f 5 14 15
f 5 15 11
f 5 11 10
f 5 10 6
f 6 10 16
f 6 16 7
f 7 16 17
f 7 17 18
f 7 18 8
f 8 18 19
f 8 19 9
f 9 19 20
f 9 20 16
f 9 16 10
f 11 15 12
f 12 15 14
f 12 14 13
f 21 22 23
f 21 23 24
f 21 24 25
f 25 24 26
f 25 26 27
f 27 26 28
f 27 28 29
f 29 28 30
f 29 30 31
f 31 30 32
f 31 32 33
f 33 32 34
f 33 34 35
f 35 34 36
f 35 36 37
f 37 36 38
f 37 38 39
f 39 38 40
f 39 40 22
f 22 40 23
f 23 40 41
f 23 41 24
f 24 41 42
f 24 42 26
f 26 42 43
f 26 43 28
f 28 43 30
f 30 43 44
f 30 44 32
f 32 44 34
f 34 44 45
f 34 45 36
f 36 45 46
f 36 46 38
f 38 46 40
f 40 46 41
f 41 46 47
f 41 47 42
f 42 47 43
f 43 47 44
f 44 47 45
f 45 47 46
f 48 49 50
f 48 50 51
f 48 51 52
f 48 52 53
f 53 52 54
f 54 52 55
f 54 55 50
f 54 50 49
f 56 57 58
f 56 58 59
f 56 59 60
f 56 60 61
f 56 61 62
f 56 62 63
f 56 63 64
f 56 64 57
f 57 64 65
f 57 65 66
f 57 66 67
f 57 67 68
f 57 68 69
f 57 69 58
f 68 60 70
f 68 70 69
f 71 68 72
f 71 72 73
f 71 73 74
f 71 74 75
f 71 75 68
f 68 75 60
f 60 75 76
f 60 76 77
f 60 77 61
f 61 77 78
f 61 78 79
f 61 79 80
f 61 80 81
f 61 81 62
f 62 81 82
f 62 82 83
f 62 83 63
f 63 83 84
f 63 84 64
f 64 84 85
f 64 85 81
f 64 81 86
f 64 86 65
f 65 86 87
f 65 87 88
f 65 88 66
f 66 88 89
f 66 89 67
f 67 89 90
f 67 90 86
f 67 86 91
f 67 91 72
f 67 72 68
f 90 87 86
f 86 87 92
f 86 92 93
f 86 93 91
f 91 93 94
f 91 94 95
f 91 95 72
f 72 95 73
f 85 82 81
f 81 82 96
f 81 96 97
f 81 97 86
f 86 97 98
f 86 98 87
f 87 98 99
f 87 99 82
f 82 99 96
f 96 99 98
f 96 98 97
f 74 100 75
f 75 100 91
f 75 91 80
f 75 80 76
f 76 80 101
f 76 101 102
f 76 102 77
f 77 102 78
f 78 102 103
f 78 103 79
f 79 103 83
f 83 103 104
f 83 104 84
f 84 104 85
f 85 104 88
f 88 104 105
f 88 105 89
f 89 105 90
f 90 105 73
f 73 105 106
f 73 106 74
f 74 106 100
f 100 106 102
f 102 106 103
f 103 106 107
f 103 107 108
f 103 108 104
f 104 108 109
f 104 109 105
f 105 109 110
f 105 110 106
f 106 110 107
f 107 110 108
f 108 110 109
f 100 95 91
f 91 95 80
f 80 95 101
f 80 101 81
f 81 101 82
f 79 101 80
f 86 81 80
f 86 80 91
f 92 111 94
f 92 94 93
f 111 92 87
f 111 87 95
f 111 95 94
f 51 50 112
f 51 112 113
f 51 113 52
f 52 113 114
f 52 114 55
f 55 114 115
f 55 115 50
f 50 115 112
f 112 115 116
f 112 116 117
f 112 117 113
f 113 117 118
f 113 118 114
f 114 118 119
f 114 119 115
f 115 119 116
f 116 119 120
f 116 120 121
f 116 121 117
f 117 121 122
f 117 122 118
f 118 122 123
f 118 123 119
f 119 123 120
f 120 123 19
f 120 19 18
f 120 18 121
f 121 18 17
f 121 17 122
f 122 17 20
f 122 20 123
f 123 20 19
f 20 17 16
f 124 125 126
f 124 126 127
f 124 127 128
f 124 128 129
f 124 129 130
f 124 130 125
f 125 130 131
f 125 131 132
f 125 132 133
f 125 133 126
f 126 133 134
f 126 134 135
f 126 135 127
f 127 135 136
f 127 136 137
f 127 137 128
f 128 137 138
f 128 138 139
f 128 139 129
f 129 139 140
f 129 140 141
f 129 141 130
f 130 141 142
f 130 142 131
f 131 142 143
f 131 143 144
f 131 144 132
f 132 144 145
f 132 145 146
f 132 146 133
f 133 146 147
f 133 147 134
f 134 147 148
f 134 148 149
f 134 149 135
f 135 149 150
f 135 150 136
f 136 150 151
f 136 151 152
f 136 152 137
f 137 152 153
f 137 153 138
f 138 153 154
f 138 154 155
f 138 155 139
f 139 155 156
f 139 156 140
f 140 156 157
f 140 157 158
f 140 158 141
f 141 158 159
f 141 159 142
f 142 159 160
f 142 160 143
f 143 160 161
f 143 161 162
f 143 162 144
f 144 162 163
f 144 163 145
f 145 163 164
f 145 164 165
f 145 165 146
f 146 165 166
f 146 166 147
f 147 166 167
f 147 167 148
f 148 167 168
f 148 168 169
f 148 169 149
f 149 169 170
f 149 170 150
f 150 170 171
f 150 171 151
f 151 171 172
f 151 172 173
f 151 173 152
f 152 173 174
f 152 174 153
f 153 174 175
f 153 175 154
f 154 175 176
f 154 176 177
f 154 177 155
f 155 177 178
f 155 178 156
f 156 178 179
f 156 179 157
f 157 179 180
f 157 180 158
f 158 180 181
f 158 181 159
f 159 181 182
f 159 182 160
f 160 182 183
f 160 183 161
f 161 183 184
f 161 184 185
f 161 185 162
f 162 185 186
f 162 186 163
f 163 186 187
f 163 187 164
f 164 187 188
f 164 188 189
f 164 189 165
f 165 189 190
f 165 190 166
f 166 190 191
f 166 191 167
f 167 191 192
f 167 192 168
f 168 192 193
f 168 193 194
f 168 194 169
f 169 194 195
f 169 195 170
f 170 195 196
f 170 196 171
f 171 196 197
f 171 197 172
f 172 197 198
f 172 198 199
f 172 199 173
f 173 199 200
f 173 200 174
f 174 200 201
f 174 201 175
f 175 201 202
f 175 202 176
f 176 202 188
f 176 188 203
f 176 203 177
f 177 203 204
f 177 204 178
f 178 204 205
f 178 205 179
f 179 205 206
f 179 206 180
f 180 206 207
f 180 207 208
f 180 208 181
f 181 208 209
f 181 209 182
f 182 209 210
f 182 210 183
f 183 210 211
f 183 211 184
f 184 211 212
f 184 212 213
f 184 213 214
f 184 214 185
f 185 214 186
f 186 214 215
f 186 215 187
f 187 215 203
f 187 203 188
f 188 202 189
f 189 202 216
f 189 216 190
f 190 216 217
f 190 217 191
f 191 217 218
f 191 218 192
f 192 218 219
f 192 219 193
f 193 219 220
f 193 220 221
f 193 221 194
f 194 221 222
f 194 222 195
f 195 222 223
f 195 223 196
f 196 223 224
f 196 224 197
f 197 224 225
f 197 225 198
f 198 225 226
f 198 226 227
f 198 227 199
f 199 227 228
f 199 228 200
f 200 228 229
f 200 229 201
f 201 229 216
f 201 216 202
f 218 230 231
f 218 231 219
f 219 231 232
f 219 232 220
f 220 232 233
f 220 233 221
f 221 233 222
f 222 233 223
f 223 233 224
f 224 233 225
f 225 233 226
f 226 233 234
f 226 234 227
f 227 234 235
f 227 235 228
f 228 235 230
f 228 230 229
f 229 230 217
f 229 217 216
f 230 235 231
f 231 235 236
f 231 236 232
f 232 236 233
f 233 236 234
f 234 236 235
f 217 230 218
f 203 215 204
f 204 215 237
f 204 237 205
f 205 237 238
f 205 238 206
f 206 238 239
f 206 239 207
f 215 214 237
f 237 214 213
f 237 213 238
f 238 213 240
f 238 240 239
f 213 212 240
f 60 59 70
f 48 49 54
f 48 54 53
f 241 242 243
