# RS2 Model 26009
# Vertices: 124
# Faces: 210

v 20 34 0
v 20 34 119
v 28 34 119
v 28 34 0
v 34 29 110
v 34 29 0
v 36 22 99
v 36 22 0
v 34 15 87
v 34 15 0
v 28 10 64
v 28 10 0
v 20 10 64
v 20 10 0
v 14 15 87
v 14 15 0
v 12 22 99
v 12 22 0
v 14 29 110
v 14 29 0
v -27 -16 186
v -29 0 187
v -31 0 140
v -29 -16 143
v -25 -19 145
v -23 -22 181
v -25 -32 187
v -33 -32 191
v -31 -16 190
v -33 -7 196
v -24 -3 218
v -16 0 219
v -25 0 191
v -30 13 189
v -28 16 167
v -27 18 153
v -28 9 136
v -40 -16 113
v -36 -20 120
v -20 -32 154
v -45 -33 27
v -52 -35 0
v -56 -48 0
v -52 -48 15
v -49 -48 19
v -46 -38 29
v -40 -31 48
v -37 -23 44
v -42 -25 24
v -49 -27 0
v -21 -8 20
v -21 -10 0
v 0 1 19
v 0 -1 0
v 48 1 19
v 48 -1 0
v 54 15 16
v 54 13 0
v 54 64 0
v 54 16 29
v 54 27 73
v 54 44 100
v 54 64 115
v 48 34 119
v 48 64 144
v 0 64 144
v 0 34 119
v -21 27 125
v -21 59 150
v -21 64 154
v -26 52 174
v -28 64 180
v -29 50 186
v -30 64 194
v -23 48 226
v -23 64 224
v -17 64 240
v -18 48 240
v 64 64 240
v -13 32 240
v -8 16 240
v -12 0 240
v 64 -64 240
v 64 -64 0
v 64 64 0
v -54 -64 0
v -49 -64 16
v -42 -64 48
v -47 -48 54
v -45 -36 50
v -39 -32 106
v -37 -9 106
v -21 6 92
v -21 -6 37
v 0 3 35
v 48 3 35
v -11 16 228
v -26 16 194
v -23 28 184
v -26 40 181
v -25 46 172
v -13 30 232
v -30 -64 191
v -26 -48 190
v -23 -48 148
v -27 -64 143
v -34 -48 113
v -39 -64 96
v -43 -48 110
v -35 -32 108
v -44 -37 104
v -23 -48 220
v -23 -64 224
v -17 -64 240
v -16 -48 240
v -16 -32 240
v -26 -32 214
v -34 -48 194
v -16 -16 240
v -28 -16 211
v -20 33 232
v -33 34 191
v 0 15 87
v 48 15 87

f 1 2 3
f 1 3 4
f 4 3 5
f 4 5 6
f 6 5 7
f 6 7 8
f 8 7 9
f 8 9 10
f 10 9 11
f 10 11 12
f 12 11 13
f 12 13 14
f 14 13 15
f 14 15 16
f 16 15 17
f 16 17 18
f 18 17 19
f 18 19 20
f 20 19 2
f 20 2 1
f 21 22 23
f 21 23 24
f 21 24 25
f 21 25 26
f 21 26 27
f 21 27 28
f 21 28 29
f 21 29 22
f 22 29 30
f 22 30 31
f 22 31 32
f 22 32 33
f 22 33 34
f 22 34 35
f 22 35 23
f 23 35 36
f 23 36 37
f 23 37 38
f 23 38 24
f 24 38 25
f 25 38 39
f 25 39 40
f 25 40 27
f 25 27 26
f 41 42 43
f 41 43 44
f 41 44 45
f 41 45 46
f 41 46 47
f 41 47 48
f 41 48 49
f 41 49 42
f 42 49 50
f 50 49 51
f 50 51 52
f 52 51 53
f 52 53 54
f 54 53 55
f 54 55 56
f 56 55 57
f 56 57 58
f 58 57 59
f 59 57 60
f 59 60 61
f 59 61 62
f 59 62 63
f 63 62 64
f 63 64 65
f 65 64 3
f 65 3 66
f 66 3 2
f 66 2 67
f 66 67 68
f 66 68 69
f 66 69 70
f 70 69 71
f 70 71 72
f 72 71 73
f 72 73 74
f 74 73 75
f 74 75 76
f 76 75 77
f 77 75 78
f 77 78 79
f 79 78 80
f 79 80 81
f 79 81 82
f 79 82 83
f 79 83 84
f 79 84 85
f 44 43 86
f 44 86 87
f 44 87 45
f 45 87 88
f 45 88 89
f 45 89 46
f 46 89 90
f 46 90 47
f 47 90 91
f 47 91 38
f 47 38 92
f 47 92 48
f 48 92 93
f 48 93 94
f 48 94 49
f 49 94 51
f 51 94 95
f 51 95 53
f 53 95 96
f 53 96 55
f 55 96 60
f 55 60 57
f 32 82 81
f 32 81 97
f 32 97 98
f 32 98 33
f 33 98 34
f 34 98 35
f 35 98 99
f 35 99 100
f 35 100 101
f 35 101 36
f 36 101 69
f 36 69 68
f 36 68 37
f 37 68 92
f 37 92 38
f 97 81 80
f 97 80 102
f 97 102 99
f 97 99 98
f 103 104 105
f 103 105 106
f 106 105 107
f 106 107 108
f 108 107 109
f 108 109 89
f 108 89 88
f 104 27 40
f 104 40 105
f 105 40 110
f 105 110 107
f 107 110 91
f 107 91 109
f 109 91 111
f 109 111 90
f 109 90 89
f 40 39 110
f 110 39 38
f 110 38 91
f 112 113 114
f 112 114 115
f 112 115 116
f 112 116 117
f 112 117 28
f 112 28 118
f 112 118 113
f 113 118 103
f 103 118 104
f 104 118 27
f 27 118 28
f 117 116 119
f 117 119 120
f 117 120 29
f 117 29 28
f 120 119 82
f 120 82 31
f 120 31 30
f 120 30 29
f 121 80 78
f 121 78 75
f 121 75 73
f 121 73 122
f 121 122 102
f 121 102 80
f 31 82 32
f 102 122 99
f 99 122 100
f 100 122 73
f 100 73 71
f 100 71 101
f 101 71 69
f 90 111 91
f 83 115 114
f 115 83 116
f 116 83 119
f 119 83 82
f 92 68 93
f 93 68 67
f 93 67 123
f 93 123 94
f 94 123 95
f 95 123 13
f 95 13 96
f 96 13 11
f 96 11 124
f 96 124 61
f 96 61 60
f 124 64 62
f 124 62 61
f 2 19 67
f 67 19 17
f 67 17 123
f 123 17 15
f 123 15 13
f 64 5 3
f 5 64 7
f 7 64 124
f 7 124 9
f 9 124 11
