# RS2 Model 26012
# Vertices: 104
# Faces: 178

v -27 -16 186
v -29 0 187
v -31 0 140
v -29 -16 143
v -25 -19 145
v -23 -22 181
v -25 -32 187
v -33 -32 191
v -31 -16 190
v -33 -7 196
v -24 -3 218
v -16 0 219
v -25 0 191
v -30 13 189
v -28 16 167
v -27 18 153
v -28 9 136
v -40 -16 113
v -36 -20 120
v -20 -32 154
v -45 -33 27
v -52 -35 0
v -56 -48 0
v -52 -48 15
v -49 -48 19
v -46 -38 29
v -40 -31 48
v -37 -23 44
v -42 -25 24
v -49 -27 0
v -21 -8 20
v -21 -10 0
v 0 1 19
v 0 -1 0
v 48 1 19
v 48 -1 0
v 54 15 16
v 54 13 0
v 54 64 0
v 54 16 29
v 54 27 73
v 54 44 100
v 54 64 115
v 48 34 119
v 48 64 144
v 0 34 119
v 0 64 144
v -21 27 125
v -21 59 150
v -21 64 154
v -26 52 174
v -28 64 180
v -29 50 186
v -30 64 194
v -23 48 226
v -23 64 224
v -17 64 240
v -18 48 240
v 64 64 240
v -13 32 240
v -8 16 240
v -12 0 240
v 64 -64 240
v 64 -64 0
v 64 64 0
v -54 -64 0
v -49 -64 16
v -42 -64 48
v -47 -48 54
v -45 -36 50
v -39 -32 106
v -37 -9 106
v -21 6 92
v -21 -6 37
v 0 3 35
v 48 3 35
v -11 16 228
v -26 16 194
v -23 28 184
v -26 40 181
v -25 46 172
v -13 30 232
v -30 -64 191
v -26 -48 190
v -23 -48 148
v -27 -64 143
v -34 -48 113
v -39 -64 96
v -43 -48 110
v -35 -32 108
v -44 -37 104
v -23 -48 220
v -23 -64 224
v -17 -64 240
v -16 -48 240
v -16 -32 240
v -26 -32 214
v -34 -48 194
v -16 -16 240
v -28 -16 211
v -20 33 232
v -33 34 191
v 0 15 87
v 48 15 87

f 1 2 3
f 1 3 4
f 1 4 5
f 1 5 6
f 1 6 7
f 1 7 8
f 1 8 9
f 1 9 2
f 2 9 10
f 2 10 11
f 2 11 12
f 2 12 13
f 2 13 14
f 2 14 15
f 2 15 3
f 3 15 16
f 3 16 17
f 3 17 18
f 3 18 4
f 4 18 5
f 5 18 19
f 5 19 20
f 5 20 7
f 5 7 6
f 21 22 23
f 21 23 24
f 21 24 25
f 21 25 26
f 21 26 27
f 21 27 28
f 21 28 29
f 21 29 22
f 22 29 30
f 30 29 31
f 30 31 32
f 32 31 33
f 32 33 34
f 34 33 35
f 34 35 36
f 36 35 37
f 36 37 38
f 38 37 39
f 39 37 40
f 39 40 41
f 39 41 42
f 39 42 43
f 43 42 44
f 43 44 45
f 45 44 46
f 45 46 47
f 47 46 48
f 47 48 49
f 47 49 50
f 50 49 51
f 50 51 52
f 52 51 53
f 52 53 54
f 54 53 55
f 54 55 56
f 56 55 57
f 57 55 58
f 57 58 59
f 59 58 60
f 59 60 61
f 59 61 62
f 59 62 63
f 59 63 64
f 59 64 65
f 24 23 66
f 24 66 67
f 24 67 25
f 25 67 68
f 25 68 69
f 25 69 26
f 26 69 70
f 26 70 27
f 27 70 71
f 27 71 18
f 27 18 72
f 27 72 28
f 28 72 73
f 28 73 74
f 28 74 29
f 29 74 31
f 31 74 75
f 31 75 33
f 33 75 76
f 33 76 35
f 35 76 40
f 35 40 37
f 12 62 61
f 12 61 77
f 12 77 78
f 12 78 13
f 13 78 14
f 14 78 15
f 15 78 79
f 15 79 80
f 15 80 81
f 15 81 16
f 16 81 49
f 16 49 48
f 16 48 17
f 17 48 72
f 17 72 18
f 77 61 60
f 77 60 82
f 77 82 79
f 77 79 78
f 83 84 85
f 83 85 86
f 86 85 87
f 86 87 88
f 88 87 89
f 88 89 69
f 88 69 68
f 84 7 20
f 84 20 85
f 85 20 90
f 85 90 87
f 87 90 71
f 87 71 89
f 89 71 91
f 89 91 70
f 89 70 69
f 20 19 90
f 90 19 18
f 90 18 71
f 92 93 94
f 92 94 95
f 92 95 96
f 92 96 97
f 92 97 8
f 92 8 98
f 92 98 93
f 93 98 83
f 83 98 84
f 84 98 7
f 7 98 8
f 97 96 99
f 97 99 100
f 97 100 9
f 97 9 8
f 100 99 62
f 100 62 11
f 100 11 10
f 100 10 9
f 101 60 58
f 101 58 55
f 101 55 53
f 101 53 102
f 101 102 82
f 101 82 60
f 11 62 12
f 82 102 79
f 79 102 80
f 80 102 53
f 80 53 51
f 80 51 81
f 81 51 49
f 70 91 71
f 63 95 94
f 95 63 96
f 96 63 99
f 99 63 62
f 72 48 73
f 73 48 46
f 73 46 103
f 73 103 74
f 74 103 75
f 75 103 76
f 76 103 104
f 76 104 41
f 76 41 40
f 104 44 42
f 104 42 41
f 46 44 104
f 46 104 103
