# RS2 Model 26010
# Vertices: 103
# Faces: 176

v -27 -16 186
v -29 0 187
v -31 0 139
v -27 -16 167
v -23 -22 181
v -25 -32 187
v -33 -32 191
v -31 -16 190
v -33 -7 196
v -24 -3 218
v -16 0 219
v -25 0 191
v -30 13 189
v -29 11 140
v -39 16 113
v -36 8 105
v -28 -11 136
v -26 -20 152
v -22 -48 185
v -34 -48 189
v -23 -48 220
v -26 -32 214
v -28 -16 211
v -12 0 240
v -8 16 240
v -11 16 228
v -26 16 194
v -25 16 143
v -33 32 128
v -40 32 110
v -35 18 107
v -34 8 101
v -21 -7 89
v -21 -28 125
v -23 -59 177
v -30 -64 194
v -23 -64 224
v -17 -64 240
v -16 -48 240
v -16 -32 240
v -16 -16 240
v 64 -64 240
v 64 64 240
v -13 32 240
v -13 30 232
v -23 28 184
v -29 32 135
v -34 52 127
v -41 48 93
v -37 48 84
v -36 32 103
v -39 31 48
v -37 21 44
v -21 4 37
v 0 -5 35
v 0 -16 84
v 0 -35 119
v -21 -64 153
v -25 -64 180
v -26 50 181
v -30 64 191
v -27 64 143
v -30 43 138
v -22 43 176
v -33 33 187
v -32 48 184
v -23 48 226
v -23 64 224
v -17 64 240
v -18 48 240
v -20 33 232
v -39 64 96
v -42 64 48
v -35 48 41
v -45 48 39
v -50 48 19
v -51 34 15
v -48 24 13
v -21 7 10
v 0 -2 10
v 48 -2 10
v 48 -5 35
v 48 -16 84
v 48 -35 119
v 0 -64 143
v -49 64 16
v -54 64 0
v -54 48 0
v -54 35 0
v -51 25 0
v -21 8 0
v 0 -1 0
v 48 -1 0
v 54 -15 0
v 54 -16 8
v 54 -18 29
v 54 -27 70
v 54 -45 100
v 48 -64 143
v 64 -64 0
v 64 64 0
v 54 -64 117
v 54 -64 0

f 1 2 3
f 1 3 4
f 1 4 5
f 1 5 6
f 1 6 7
f 1 7 8
f 1 8 2
f 2 8 9
f 2 9 10
f 2 10 11
f 2 11 12
f 2 12 13
f 2 13 14
f 2 14 3
f 3 14 15
f 3 15 16
f 3 16 17
f 3 17 4
f 4 17 18
f 4 18 19
f 4 19 5
f 5 19 6
f 6 19 20
f 6 20 7
f 7 20 21
f 7 21 22
f 7 22 8
f 8 22 23
f 8 23 9
f 9 23 10
f 10 23 24
f 10 24 11
f 11 24 25
f 11 25 26
f 11 26 27
f 11 27 12
f 12 27 13
f 13 27 14
f 14 27 28
f 14 28 29
f 14 29 30
f 14 30 15
f 15 30 31
f 15 31 32
f 15 32 16
f 16 32 33
f 16 33 17
f 17 33 34
f 17 34 18
f 18 34 35
f 18 35 19
f 19 35 36
f 19 36 20
f 20 36 37
f 20 37 21
f 21 37 38
f 21 38 39
f 21 39 40
f 21 40 22
f 22 40 41
f 22 41 23
f 23 41 24
f 24 41 42
f 24 42 43
f 24 43 25
f 25 43 44
f 25 44 26
f 26 44 45
f 26 45 46
f 26 46 27
f 27 46 47
f 27 47 28
f 28 47 29
f 29 47 48
f 29 48 49
f 29 49 30
f 30 49 50
f 30 50 51
f 30 51 31
f 31 51 52
f 31 52 53
f 31 53 32
f 32 53 54
f 32 54 33
f 33 54 55
f 33 55 56
f 33 56 34
f 34 56 57
f 34 57 58
f 34 58 35
f 35 58 59
f 35 59 36
f 60 61 62
f 60 62 48
f 60 48 63
f 60 63 64
f 60 64 65
f 60 65 66
f 60 66 61
f 61 66 67
f 61 67 68
f 68 67 69
f 69 67 70
f 69 70 43
f 43 70 44
f 44 70 71
f 44 71 45
f 45 71 65
f 45 65 46
f 46 65 64
f 46 64 63
f 46 63 47
f 47 63 48
f 48 62 72
f 48 72 49
f 49 72 50
f 50 72 73
f 50 73 74
f 50 74 51
f 51 74 52
f 52 74 75
f 52 75 76
f 52 76 77
f 52 77 78
f 52 78 53
f 53 78 79
f 53 79 54
f 54 79 80
f 54 80 55
f 55 80 81
f 55 81 82
f 55 82 83
f 55 83 56
f 56 83 84
f 56 84 57
f 57 84 85
f 57 85 58
f 76 86 87
f 76 87 88
f 76 88 89
f 76 89 77
f 77 89 90
f 77 90 78
f 78 90 91
f 78 91 79
f 79 91 92
f 79 92 80
f 80 92 93
f 80 93 81
f 81 93 94
f 81 94 95
f 81 95 82
f 82 95 96
f 82 96 83
f 83 96 97
f 83 97 84
f 84 97 98
f 84 98 99
f 84 99 85
f 86 76 75
f 86 75 73
f 73 75 74
f 71 70 67
f 71 67 66
f 71 66 65
f 42 39 38
f 39 42 40
f 40 42 41
f 43 42 100
f 43 100 101
f 99 98 102
f 102 98 103
f 103 98 97
f 103 97 96
f 103 96 95
f 103 95 94
