# RS2 Model 26046
# Vertices: 116
# Faces: 196

v -38 -22 74
v -38 6 64
v -38 -9 86
v -25 -13 87
v -25 -25 78
v -38 -53 77
v -38 -50 58
v -20 -46 54
v -20 -23 69
v -20 0 60
v -38 14 22
v -38 20 52
v -38 43 62
v -25 38 67
v -25 9 68
v -25 -2 84
v -38 2 104
v -48 2 104
v -48 -9 86
v -38 -10 106
v -25 -14 104
v -25 -57 103
v -25 -50 81
v -38 -64 90
v -38 -64 42
v -38 -64 12
v -20 -57 14
v -2 -26 18
v -5 -25 54
v -20 7 21
v -38 6 0
v -38 20 0
v -21 24 0
v -23 19 22
v -21 24 48
v -21 42 57
v -38 64 42
v -38 54 82
v -25 47 83
v -25 7 99
v -38 23 111
v -48 23 111
v -61 24 104
v -61 7 99
v -61 -2 84
v -48 6 64
v -48 -22 74
v -61 -25 78
v -61 -13 87
v -48 -10 106
v -38 -36 120
v -25 -36 114
v -38 -61 106
v -25 -59 91
v -48 -61 106
v -48 -64 90
v -61 -57 103
v -61 -59 91
v -48 -53 77
v -48 -64 42
v -48 -50 58
v -48 -64 12
v -64 -46 54
v -64 -57 14
v -48 -58 0
v -48 -64 0
v -38 -64 0
v -38 -58 0
v -20 -51 0
v -7 -25 0
v -20 0 0
v -38 60 0
v -38 64 0
v -38 64 12
v -21 60 12
v -21 56 0
v -12 40 17
v -16 40 0
v -38 44 102
v -25 40 99
v -25 24 104
v -48 44 102
v -61 40 99
v -61 47 83
v -61 38 67
v -61 9 68
v -48 43 62
v -48 20 52
v -48 14 22
v -64 7 21
v -64 0 60
v -64 -23 69
v -61 -50 81
v -61 -14 104
v -48 -36 120
v -61 -36 114
v -48 6 0
v -48 20 0
v -64 19 22
v -64 24 0
v -64 60 12
v -64 56 0
v -48 64 12
v -48 60 0
v -48 64 0
v -48 64 42
v -48 54 82
v -48 64 90
v -38 64 90
v -64 0 0
v -64 -51 0
v -64 24 48
v -64 59 40
v -64 42 57
v -21 59 40
v -14 40 46

f 1 2 3
f 1 3 4
f 1 4 5
f 1 5 6
f 1 6 7
f 1 7 8
f 1 8 9
f 1 9 2
f 2 9 10
f 2 10 11
f 2 11 12
f 2 12 13
f 2 13 14
f 2 14 15
f 2 15 3
f 3 15 16
f 3 16 17
f 3 17 18
f 3 18 19
f 3 19 20
f 3 20 21
f 3 21 4
f 4 21 22
f 4 22 5
f 5 22 23
f 5 23 6
f 6 23 24
f 6 24 25
f 6 25 7
f 7 25 26
f 7 26 27
f 7 27 8
f 8 27 28
f 8 28 29
f 8 29 9
f 9 29 10
f 10 29 30
f 10 30 11
f 11 30 31
f 11 31 32
f 11 32 33
f 11 33 34
f 11 34 12
f 12 34 35
f 12 35 13
f 13 35 36
f 13 36 37
f 13 37 38
f 13 38 39
f 13 39 14
f 14 39 40
f 14 40 15
f 15 40 16
f 16 40 17
f 17 40 41
f 17 41 42
f 17 42 18
f 18 42 43
f 18 43 44
f 18 44 19
f 19 44 45
f 19 45 46
f 19 46 47
f 19 47 48
f 19 48 49
f 19 49 50
f 19 50 20
f 20 50 51
f 20 51 52
f 20 52 21
f 21 52 22
f 22 52 51
f 22 51 53
f 22 53 54
f 22 54 23
f 23 54 24
f 24 54 53
f 24 53 55
f 24 55 56
f 56 55 57
f 56 57 58
f 56 58 59
f 56 59 60
f 60 59 61
f 60 61 62
f 62 61 63
f 62 63 64
f 62 64 65
f 62 65 66
f 67 68 26
f 26 68 69
f 26 69 27
f 27 69 70
f 27 70 28
f 28 70 71
f 28 71 30
f 28 30 29
f 72 73 74
f 72 74 75
f 72 75 76
f 76 75 77
f 76 77 78
f 78 77 34
f 78 34 33
f 38 79 80
f 38 80 39
f 39 80 40
f 40 80 81
f 40 81 41
f 41 81 79
f 41 79 82
f 41 82 42
f 42 82 83
f 42 83 43
f 43 83 44
f 44 83 84
f 44 84 85
f 44 85 86
f 44 86 45
f 45 86 46
f 46 86 87
f 46 87 88
f 46 88 89
f 46 89 90
f 46 90 91
f 46 91 47
f 47 91 92
f 47 92 61
f 47 61 59
f 47 59 93
f 47 93 48
f 48 93 57
f 48 57 49
f 49 57 94
f 49 94 50
f 50 94 95
f 50 95 51
f 51 95 53
f 53 95 55
f 55 95 96
f 55 96 57
f 57 96 94
f 94 96 95
f 79 81 80
f 97 89 98
f 98 89 99
f 98 99 100
f 100 99 101
f 100 101 102
f 102 101 103
f 102 103 104
f 104 103 105
f 106 87 107
f 106 107 108
f 108 107 109
f 109 107 38
f 109 38 37
f 89 97 110
f 89 110 90
f 90 110 111
f 90 111 64
f 90 64 91
f 91 64 63
f 91 63 92
f 92 63 61
f 65 64 111
f 89 88 112
f 89 112 99
f 99 112 113
f 99 113 101
f 101 113 106
f 101 106 103
f 88 87 114
f 88 114 112
f 112 114 113
f 113 114 87
f 113 87 106
f 82 107 84
f 82 84 83
f 87 86 85
f 87 85 107
f 107 85 84
f 59 58 93
f 93 58 57
f 31 30 71
f 74 37 115
f 74 115 75
f 75 115 116
f 75 116 77
f 77 116 35
f 77 35 34
f 37 36 115
f 115 36 116
f 116 36 35
f 79 38 107
f 79 107 82
