# RS2 Model 26066
# Vertices: 52
# Faces: 94

v -56 56 8
v -48 56 8
v -48 56 113
v -56 56 113
v -56 -48 8
v -48 -48 8
v -48 -64 0
v -48 64 0
v -48 64 128
v -48 56 128
v -48 48 120
v -56 -56 16
v -48 -56 16
v -56 48 120
v -56 -56 120
v -48 -56 120
v -56 -56 128
v -48 -56 128
v -56 56 128
v -56 -56 232
v -48 -56 232
v -48 -64 128
v -48 56 232
v -56 56 232
v -48 64 240
v -48 -64 240
v -64 -64 137
v -64 -64 132
v -64 -64 116
v -64 -64 111
v -64 -64 87
v -64 -64 240
v -64 64 240
v -64 64 16
v -64 64 0
v -64 -64 0
v -64 -64 16
v -64 -64 21
v -64 64 21
v -64 64 38
v -64 64 87
v -64 64 111
v -64 64 116
v -64 64 132
v -64 64 137
v -64 -64 38
v -64 -32 35
v -64 0 43
v -64 32 41
v -64 32 90
v -64 0 91
v -64 -32 78

f 1 2 3
f 1 3 4
f 1 4 5
f 1 5 6
f 1 6 2
f 2 6 7
f 2 7 8
f 2 8 3
f 3 8 9
f 3 9 10
f 3 10 11
f 3 11 6
f 3 6 5
f 3 5 4
f 12 13 11
f 12 11 14
f 12 14 15
f 12 15 13
f 13 15 16
f 13 16 7
f 13 7 6
f 13 6 11
f 17 18 10
f 17 10 19
f 17 19 20
f 17 20 18
f 18 20 21
f 18 21 22
f 18 22 16
f 18 16 10
f 10 16 11
f 23 24 19
f 23 19 10
f 23 10 9
f 23 9 25
f 23 25 26
f 23 26 21
f 21 26 22
f 22 26 27
f 22 27 28
f 22 28 29
f 22 29 30
f 22 30 31
f 22 31 7
f 22 7 16
f 32 26 25
f 32 25 33
f 32 33 27
f 32 27 26
f 20 19 24
f 34 8 35
f 34 35 36
f 34 36 37
f 34 37 38
f 34 38 39
f 34 39 8
f 8 39 40
f 8 40 9
f 9 40 41
f 9 41 42
f 9 42 43
f 9 43 44
f 9 44 45
f 9 45 33
f 9 33 25
f 36 7 37
f 37 7 38
f 38 7 46
f 38 46 47
f 38 47 39
f 39 47 48
f 39 48 49
f 39 49 40
f 40 49 50
f 40 50 41
f 41 50 42
f 42 50 51
f 42 51 30
f 42 30 43
f 43 30 29
f 43 29 44
f 44 29 28
f 44 28 45
f 45 28 27
f 45 27 33
f 50 49 48
f 50 48 51
f 51 48 47
f 51 47 52
f 51 52 30
f 30 52 31
f 31 52 46
f 31 46 7
f 52 47 46
