# RS2 Model 26072
# Vertices: 128
# Faces: 200

v -56 56 8
v -48 56 8
v -48 56 113
v -56 56 113
v -56 -48 8
v -48 -48 8
v -48 -64 0
v -48 64 0
v -48 64 128
v -48 56 128
v -48 48 120
v -56 -56 16
v -48 -56 16
v -56 48 120
v -56 -56 120
v -48 -56 120
v -56 -56 128
v -48 -56 128
v -56 56 128
v -48 32 141
v -48 -32 141
v -56 -56 232
v -48 -56 232
v -48 -64 128
v -48 56 232
v -56 56 232
v -48 64 240
v -48 -64 240
v -64 -64 137
v -64 -64 132
v -64 -64 116
v -64 -64 111
v -64 -64 87
v -64 -64 240
v -64 64 240
v -64 32 228
v -64 -32 228
v -64 64 16
v -64 64 0
v -64 -64 0
v -64 -64 16
v -64 -64 21
v -64 64 21
v -64 64 38
v -64 64 87
v -64 64 111
v -64 64 116
v -64 64 132
v -64 64 137
v -64 -64 38
v -64 -32 35
v -64 0 43
v -64 32 41
v -64 32 90
v -64 0 91
v -64 -32 141
v -64 32 141
v -64 24 220
v -64 -24 220
v -64 -24 149
v -64 -32 78
v -52 -2 187
v -52 -2 183
v -52 2 183
v -52 2 187
v -52 2 220
v -52 -2 220
v -56 -2 220
v -56 -2 187
v -52 -24 187
v -52 -24 183
v -44 -24 220
v -44 -24 149
v -56 -24 183
v -56 -24 187
v -56 -2 183
v -56 2 187
v -56 2 183
v -56 2 149
v -56 -2 149
v -52 -2 149
v -52 2 149
v -52 24 183
v -52 24 187
v -56 24 187
v -56 2 220
v -48 32 228
v -44 32 228
v -44 32 141
v -44 24 149
v -44 -32 141
v -44 -32 228
v -48 -32 228
v -44 24 220
v -56 24 183
v -64 24 149
v -55 2 183
v -55 24 183
v -55 24 149
v -55 2 149
v -55 -24 183
v -55 -2 183
v -55 -2 149
v -55 -24 149
v -55 2 220
v -55 24 220
v -55 24 187
v -55 2 187
v -55 -24 220
v -55 -2 220
v -55 -2 187
v -55 -24 187
v -53 2 149
v -53 24 149
v -53 24 183
v -53 2 183
v -53 -24 149
v -53 -2 149
v -53 -2 183
v -53 -24 183
v -53 2 187
v -53 24 187
v -53 24 220
v -53 2 220
v -53 -24 187
v -53 -2 187
v -53 -2 220
v -53 -24 220

f 1 2 3
f 1 3 4
f 1 4 5
f 1 5 6
f 1 6 2
f 2 6 7
f 2 7 8
f 2 8 3
f 3 8 9
f 3 9 10
f 3 10 11
f 3 11 6
f 3 6 5
f 3 5 4
f 12 13 11
f 12 11 14
f 12 14 15
f 12 15 13
f 13 15 16
f 13 16 7
f 13 7 6
f 13 6 11
f 17 18 10
f 17 10 19
f 17 19 20
f 17 20 21
f 17 21 22
f 17 22 18
f 18 22 23
f 18 23 24
f 18 24 16
f 18 16 10
f 10 16 11
f 25 26 19
f 25 19 10
f 25 10 9
f 25 9 27
f 25 27 28
f 25 28 23
f 23 28 24
f 24 28 29
f 24 29 30
f 24 30 31
f 24 31 32
f 24 32 33
f 24 33 7
f 24 7 16
f 34 28 27
f 34 27 35
f 34 35 36
f 34 36 37
f 34 37 29
f 34 29 28
f 38 8 39
f 38 39 40
f 38 40 41
f 38 41 42
f 38 42 43
f 38 43 8
f 8 43 44
f 8 44 9
f 9 44 45
f 9 45 46
f 9 46 47
f 9 47 48
f 9 48 49
f 9 49 35
f 9 35 27
f 40 7 41
f 41 7 42
f 42 7 50
f 42 50 51
f 42 51 43
f 43 51 52
f 43 52 53
f 43 53 44
f 44 53 54
f 44 54 45
f 45 54 46
f 46 54 55
f 46 55 32
f 46 32 47
f 47 32 31
f 47 31 48
f 48 31 30
f 48 30 49
f 49 30 29
f 49 29 56
f 49 56 57
f 49 57 35
f 35 57 36
f 36 57 58
f 36 58 37
f 37 58 59
f 37 59 60
f 37 60 56
f 37 56 29
f 54 53 52
f 54 52 55
f 55 52 51
f 55 51 61
f 55 61 32
f 32 61 33
f 33 61 50
f 33 50 7
f 61 51 50
f 62 63 64
f 62 64 65
f 62 65 66
f 62 66 67
f 62 67 68
f 62 68 69
f 62 69 70
f 62 70 63
f 63 70 71
f 71 70 72
f 71 72 73
f 71 73 60
f 71 60 74
f 74 60 75
f 74 75 69
f 74 69 76
f 76 69 77
f 76 77 78
f 76 78 79
f 76 79 80
f 76 80 81
f 76 81 63
f 63 81 64
f 64 81 82
f 64 82 79
f 64 79 78
f 65 64 83
f 65 83 84
f 65 84 85
f 65 85 77
f 65 77 66
f 66 77 86
f 86 77 68
f 68 77 69
f 20 87 88
f 20 88 89
f 89 88 90
f 89 90 91
f 91 90 73
f 91 73 72
f 91 72 92
f 91 92 93
f 91 93 21
f 21 93 22
f 22 93 26
f 26 93 87
f 26 87 19
f 19 87 20
f 93 92 88
f 93 88 87
f 90 88 94
f 90 94 84
f 90 84 83
f 90 83 95
f 90 95 96
f 90 96 82
f 90 82 73
f 73 82 81
f 73 81 80
f 73 80 60
f 60 80 96
f 60 96 57
f 60 57 56
f 72 94 88
f 72 88 92
f 70 69 75
f 70 75 72
f 72 75 59
f 59 75 60
f 82 96 79
f 79 96 80
f 84 94 58
f 84 58 85
f 85 58 95
f 85 95 78
f 85 78 77
f 57 96 58
f 58 96 95
f 97 98 99
f 97 99 100
f 101 102 103
f 101 103 104
f 105 106 107
f 105 107 108
f 109 110 111
f 109 111 112
f 113 114 115
f 113 115 116
f 117 118 119
f 117 119 120
f 121 122 123
f 121 123 124
f 125 126 127
f 125 127 128
