# RS2 Model 26102
# Vertices: 98
# Faces: 180

v 5 -6 125
v 13 -1 126
v 13 -1 135
v 5 -8 135
v 0 -9 125
v 7 -7 120
v 13 0 123
v 7 8 122
v 6 7 126
v 6 9 135
v 14 0 141
v 14 -4 141
v 8 -9 139
v 0 -10 139
v -5 -8 135
v -5 -6 125
v -7 -7 120
v 0 -9 120
v 0 -9 116
v 8 -7 117
v 14 2 119
v 8 10 119
v 0 12 119
v 0 10 122
v 0 9 125
v 0 10 135
v 7 7 140
v 15 2 146
v 14 -5 146
v 11 -11 147
v 3 -13 147
v 0 -13 145
v -3 -14 147
v -8 -9 139
v -13 -1 135
v -13 -1 127
v -13 0 123
v -8 -7 117
v 0 0 163
v 6 -8 155
v 12 -5 157
v 4 5 166
v 12 4 163
v 11 7 162
v 7 11 161
v 0 10 167
v 0 13 161
v -7 11 161
v -4 5 166
v -12 4 163
v -12 -3 158
v -6 -8 155
v -2 -9 155
v 0 -4 160
v 2 -9 155
v 1 -10 154
v 8 -10 152
v 13 -7 154
v 15 -2 157
v 14 4 163
v 15 11 157
v 10 13 157
v 0 14 157
v -10 13 157
v -11 7 162
v -14 4 163
v -15 -2 157
v -13 -7 154
v -8 -10 152
v -5 -12 150
v -1 -10 154
v 0 -9 155
v 0 -11 152
v 0 -13 149
v 6 -12 150
v 15 4 147
v 9 9 147
v 9 12 149
v 8 13 152
v 0 14 149
v -8 13 151
v -15 11 157
v 0 14 147
v 0 11 140
v -7 7 140
v -9 9 147
v -9 12 149
v -6 7 126
v -6 9 135
v -14 0 141
v -15 2 146
v -15 4 147
v -7 8 122
v -8 10 119
v -14 2 119
v -14 -4 141
v -11 -11 147
v -14 -5 146

f 1 2 3
f 1 3 4
f 1 4 5
f 1 5 6
f 1 6 2
f 2 6 7
f 2 7 8
f 2 8 9
f 2 9 10
f 2 10 3
f 3 10 11
f 3 11 12
f 3 12 13
f 3 13 4
f 4 13 14
f 4 14 5
f 5 14 15
f 5 15 16
f 5 16 17
f 5 17 18
f 5 18 6
f 6 18 19
f 6 19 20
f 6 20 7
f 7 20 21
f 7 21 22
f 7 22 8
f 8 22 23
f 8 23 24
f 8 24 25
f 8 25 9
f 9 25 10
f 10 25 26
f 10 26 27
f 10 27 11
f 11 27 28
f 11 28 29
f 11 29 12
f 12 29 30
f 12 30 13
f 13 30 31
f 13 31 14
f 14 31 32
f 14 32 33
f 14 33 34
f 14 34 15
f 15 34 35
f 15 35 16
f 16 35 36
f 16 36 17
f 17 36 37
f 17 37 38
f 17 38 19
f 17 19 18
f 39 40 41
f 39 41 42
f 42 41 43
f 42 43 44
f 42 44 45
f 42 45 46
f 46 45 47
f 46 47 48
f 46 48 49
f 49 48 50
f 49 50 51
f 49 51 39
f 39 51 52
f 39 52 53
f 39 53 54
f 39 54 55
f 39 55 40
f 40 55 56
f 40 56 57
f 40 57 41
f 41 57 58
f 41 58 59
f 41 59 60
f 41 60 43
f 43 60 44
f 44 60 61
f 44 61 62
f 44 62 45
f 45 62 47
f 47 62 63
f 47 63 48
f 48 63 64
f 48 64 65
f 48 65 50
f 50 65 66
f 50 66 51
f 51 66 67
f 51 67 68
f 51 68 52
f 52 68 69
f 52 69 70
f 52 70 71
f 52 71 53
f 53 71 72
f 53 72 54
f 54 72 55
f 55 72 56
f 56 72 73
f 56 73 74
f 56 74 75
f 56 75 57
f 57 75 30
f 57 30 58
f 58 30 29
f 58 29 28
f 58 28 59
f 59 28 76
f 76 28 77
f 76 77 61
f 61 77 78
f 61 78 79
f 61 79 62
f 62 79 63
f 63 79 80
f 63 80 81
f 63 81 64
f 64 81 82
f 64 82 65
f 65 82 66
f 78 83 80
f 78 80 79
f 27 84 83
f 27 83 77
f 27 77 28
f 26 84 27
f 84 26 85
f 84 85 83
f 83 85 86
f 83 86 87
f 83 87 81
f 83 81 80
f 25 88 89
f 25 89 26
f 26 89 85
f 85 89 90
f 85 90 91
f 85 91 86
f 86 91 92
f 86 92 87
f 87 92 82
f 87 82 81
f 36 35 89
f 36 89 88
f 36 88 93
f 36 93 37
f 37 93 94
f 37 94 95
f 37 95 38
f 96 34 97
f 96 97 98
f 96 98 90
f 96 90 35
f 96 35 34
f 91 67 92
f 67 91 68
f 68 91 98
f 68 98 97
f 68 97 69
f 69 97 70
f 70 97 33
f 70 33 74
f 70 74 73
f 70 73 71
f 71 73 72
f 98 91 90
f 93 88 25
f 93 25 24
f 93 24 23
f 93 23 94
f 89 35 90
f 74 32 31
f 74 31 75
f 75 31 30
f 33 32 74
f 33 97 34
f 78 77 83
