# RS2 Model 26115
# Vertices: 118
# Faces: 224

v 29 -8 121
v 27 -6 129
v 22 1 125
v 21 1 118
v 23 0 109
v 31 -9 109
v 40 0 109
v 40 0 115
v 37 1 120
v 34 1 129
v 34 1 133
v 33 1 138
v 26 -8 137
v 20 1 136
v 27 9 129
v 28 8 125
v 29 11 117
v 31 11 109
v 32 9 99
v 25 0 102
v 32 -7 100
v 38 1 101
v 26 9 137
v 34 1 142
v 25 -8 146
v 18 2 142
v 40 1 98
v 24 0 98
v 25 -1 94
v 32 -8 94
v 39 0 93
v 32 10 94
v 32 4 91
v 29 -1 91
v 32 -4 92
v 36 0 91
v 22 -9 153
v 31 1 152
v 27 2 157
v 19 2 160
v 17 -9 153
v 25 10 146
v 22 10 154
v 19 10 155
v 29 -7 82
v 26 -7 86
v 29 -6 78
v 34 -7 82
v 29 -7 87
v 26 1 84
v 29 3 78
v 38 -6 80
v 34 -7 87
v 37 -4 86
v 37 3 80
v 34 5 87
v 29 5 87
v 29 5 82
v 34 5 82
v -27 -6 129
v -29 -8 121
v -22 1 125
v -20 1 136
v -26 -8 137
v -33 1 138
v -34 1 133
v -34 1 129
v -37 1 120
v -40 0 115
v -40 0 109
v -31 -9 109
v -23 0 109
v -21 1 118
v -28 8 125
v -27 9 129
v -26 9 137
v -18 2 142
v -25 -8 146
v -34 1 142
v -29 11 117
v -31 11 109
v -38 1 101
v -32 -7 100
v -25 0 102
v -32 9 99
v -40 1 98
v -32 -8 94
v -25 -1 94
v -24 0 98
v -32 10 94
v -39 0 93
v -21 -9 153
v -31 1 152
v -25 10 146
v -22 10 154
v -19 10 155
v -19 2 160
v -27 2 157
v -17 -9 153
v -32 -4 92
v -29 -1 91
v -32 4 91
v -36 0 91
v -37 -4 86
v -34 -7 87
v -29 -7 87
v -26 -7 86
v -26 1 84
v -29 5 87
v -34 5 87
v -37 3 80
v -38 -6 80
v -34 -7 82
v -29 -7 82
v -29 -6 78
v -29 3 78
v -29 5 82
v -34 5 82

f 1 2 3
f 1 3 4
f 1 4 5
f 1 5 6
f 1 6 7
f 1 7 8
f 1 8 9
f 1 9 10
f 1 10 2
f 2 10 11
f 2 11 12
f 2 12 13
f 2 13 14
f 2 14 3
f 3 14 15
f 3 15 16
f 3 16 4
f 4 16 17
f 4 17 5
f 5 17 18
f 5 18 19
f 5 19 20
f 5 20 21
f 5 21 6
f 6 21 7
f 7 21 22
f 7 22 18
f 7 18 8
f 8 18 17
f 8 17 9
f 9 17 16
f 9 16 10
f 10 16 15
f 10 15 11
f 11 15 23
f 11 23 12
f 12 23 24
f 12 24 13
f 13 24 25
f 13 25 26
f 13 26 14
f 14 26 23
f 14 23 15
f 22 21 27
f 22 27 19
f 22 19 18
f 20 19 28
f 20 28 21
f 21 28 29
f 21 29 30
f 21 30 27
f 27 30 31
f 27 31 19
f 19 31 32
f 19 32 28
f 28 32 29
f 29 32 33
f 29 33 34
f 29 34 35
f 29 35 30
f 30 35 31
f 31 35 36
f 31 36 33
f 31 33 32
f 37 26 25
f 37 25 38
f 37 38 39
f 37 39 40
f 37 40 41
f 37 41 26
f 39 42 43
f 39 43 40
f 40 43 44
f 44 43 26
f 26 43 42
f 26 42 23
f 23 42 24
f 24 42 38
f 24 38 25
f 38 42 39
f 45 46 47
f 45 47 48
f 45 48 49
f 45 49 46
f 46 49 35
f 46 35 34
f 46 34 50
f 46 50 47
f 47 50 51
f 47 51 52
f 47 52 48
f 48 52 53
f 48 53 49
f 49 53 35
f 35 53 54
f 35 54 36
f 36 54 55
f 36 55 56
f 36 56 33
f 33 56 57
f 33 57 34
f 34 57 50
f 50 57 58
f 50 58 51
f 51 58 59
f 51 59 55
f 51 55 52
f 52 55 54
f 52 54 53
f 59 56 55
f 56 59 58
f 56 58 57
f 60 61 62
f 60 62 63
f 60 63 64
f 60 64 65
f 60 65 66
f 60 66 67
f 60 67 61
f 61 67 68
f 61 68 69
f 61 69 70
f 61 70 71
f 61 71 72
f 61 72 73
f 61 73 62
f 62 73 74
f 62 74 75
f 62 75 63
f 63 75 76
f 63 76 77
f 63 77 64
f 64 77 78
f 64 78 79
f 64 79 65
f 65 79 76
f 65 76 66
f 66 76 75
f 66 75 67
f 67 75 74
f 67 74 68
f 68 74 80
f 68 80 69
f 69 80 81
f 69 81 70
f 70 81 82
f 70 82 83
f 70 83 71
f 71 83 72
f 72 83 84
f 72 84 85
f 72 85 81
f 72 81 80
f 72 80 73
f 73 80 74
f 83 82 86
f 83 86 87
f 83 87 88
f 83 88 89
f 83 89 84
f 84 89 85
f 85 89 90
f 85 90 91
f 85 91 86
f 85 86 82
f 85 82 81
f 77 92 78
f 78 92 93
f 78 93 79
f 79 93 94
f 79 94 76
f 76 94 77
f 77 94 95
f 77 95 96
f 96 95 97
f 97 95 98
f 97 98 92
f 97 92 99
f 99 92 77
f 92 98 93
f 93 98 94
f 94 98 95
f 87 86 91
f 87 91 100
f 87 100 88
f 88 100 101
f 88 101 102
f 88 102 90
f 88 90 89
f 102 91 90
f 91 102 103
f 91 103 100
f 100 103 104
f 100 104 105
f 100 105 106
f 100 106 107
f 100 107 101
f 101 107 108
f 101 108 109
f 101 109 102
f 102 109 110
f 102 110 103
f 103 110 111
f 103 111 104
f 104 111 112
f 104 112 105
f 105 112 113
f 105 113 106
f 106 113 114
f 106 114 107
f 107 114 115
f 107 115 108
f 108 115 116
f 108 116 117
f 108 117 109
f 109 117 110
f 110 117 118
f 110 118 111
f 111 118 116
f 111 116 112
f 112 116 115
f 112 115 113
f 113 115 114
f 116 118 117
