# RS2 Model 26136
# Vertices: 114
# Faces: 216

v 15 4 147
v 20 -1 150
v 18 -1 157
v 15 -2 157
v 14 4 163
v 22 4 160
v 15 11 157
v 17 11 154
v 19 11 149
v 15 5 144
v 21 -2 144
v 27 4 145
v 25 4 154
v 20 12 144
v 17 4 135
v 22 -2 137
v 30 4 137
v 23 12 137
v 24 14 128
v 17 4 127
v 24 -4 128
v 31 4 128
v 24 0 130
v 20 4 129
v 20 4 124
v 25 1 125
v 28 4 130
v 24 10 130
v 25 9 125
v 26 10 115
v 23 4 114
v 26 0 115
v 30 4 126
v 30 4 115
v 28 1 103
v 28 1 105
v 25 4 105
v 25 4 103
v 23 0 99
v 26 -1 99
v 31 -1 99
v 31 4 103
v 31 4 105
v 28 8 105
v 28 8 103
v 26 9 99
v 23 5 97
v 25 0 90
v 26 -1 94
v 31 -1 94
v 32 0 93
v 32 2 99
v 31 9 99
v 25 7 90
v 26 9 94
v 31 9 94
v 31 7 93
v -15 4 147
v -18 -1 157
v -20 -1 150
v -21 -2 144
v -15 5 144
v -19 11 149
v -17 11 154
v -15 11 157
v -22 4 160
v -14 4 163
v -15 -2 157
v -25 4 154
v -27 4 145
v -22 -2 137
v -17 4 135
v -20 12 144
v -24 0 130
v -20 4 124
v -20 4 129
v -17 4 127
v -24 -4 128
v -31 4 128
v -28 4 130
v -25 1 125
v -23 4 114
v -26 10 115
v -25 9 125
v -24 10 130
v -24 14 128
v -30 4 137
v -30 4 126
v -26 0 115
v -25 4 105
v -28 8 105
v -31 4 105
v -30 4 115
v -28 1 105
v -28 1 103
v -25 4 103
v -28 8 103
v -31 4 103
v -23 12 137
v -23 0 99
v -26 -1 94
v -25 0 90
v -23 5 97
v -26 -1 99
v -31 -1 94
v -32 0 93
v -25 7 90
v -26 9 94
v -26 9 99
v -31 9 99
v -32 2 99
v -31 -1 99
v -31 7 93
v -31 9 94

f 1 2 3
f 1 3 4
f 4 3 5
f 5 3 6
f 5 6 7
f 7 6 8
f 7 8 1
f 1 8 9
f 1 9 10
f 1 10 11
f 1 11 2
f 2 11 12
f 2 12 13
f 2 13 6
f 2 6 3
f 8 13 9
f 9 13 12
f 9 12 14
f 9 14 10
f 10 14 15
f 10 15 11
f 11 15 16
f 11 16 12
f 12 16 17
f 12 17 18
f 12 18 14
f 14 18 15
f 15 18 19
f 15 19 20
f 15 20 21
f 15 21 16
f 16 21 17
f 17 21 22
f 17 22 19
f 17 19 18
f 13 8 6
f 23 24 25
f 23 25 26
f 23 26 27
f 23 27 22
f 23 22 21
f 23 21 20
f 23 20 24
f 24 20 28
f 24 28 29
f 24 29 25
f 25 29 30
f 25 30 31
f 25 31 26
f 26 31 32
f 26 32 33
f 26 33 27
f 27 33 29
f 27 29 28
f 27 28 22
f 22 28 19
f 19 28 20
f 33 32 34
f 33 34 30
f 33 30 29
f 35 36 37
f 35 37 38
f 35 38 39
f 35 39 40
f 35 40 41
f 35 41 42
f 35 42 43
f 35 43 36
f 36 43 32
f 36 32 37
f 37 32 31
f 37 31 44
f 37 44 45
f 37 45 38
f 38 45 46
f 38 46 47
f 38 47 39
f 39 47 48
f 39 48 49
f 39 49 40
f 40 49 50
f 40 50 41
f 41 50 51
f 41 51 52
f 41 52 42
f 42 52 53
f 42 53 45
f 42 45 43
f 43 45 44
f 43 44 30
f 43 30 34
f 43 34 32
f 48 47 54
f 48 54 51
f 48 51 50
f 48 50 49
f 54 55 56
f 54 56 57
f 54 57 51
f 51 57 52
f 52 57 53
f 53 57 56
f 53 56 55
f 53 55 46
f 53 46 45
f 46 55 47
f 47 55 54
f 31 30 44
f 58 59 60
f 58 60 61
f 58 61 62
f 58 62 63
f 58 63 64
f 58 64 65
f 65 64 66
f 65 66 67
f 67 66 59
f 67 59 68
f 68 59 58
f 60 66 69
f 60 69 70
f 60 70 61
f 61 70 71
f 61 71 72
f 61 72 62
f 62 72 73
f 62 73 63
f 63 73 70
f 63 70 69
f 63 69 64
f 64 69 66
f 60 59 66
f 74 75 76
f 74 76 77
f 74 77 78
f 74 78 79
f 74 79 80
f 74 80 81
f 74 81 75
f 75 81 82
f 75 82 83
f 75 83 84
f 75 84 76
f 76 84 85
f 76 85 77
f 77 85 86
f 77 86 72
f 77 72 78
f 78 72 71
f 78 71 87
f 78 87 79
f 79 87 86
f 79 86 85
f 79 85 80
f 80 85 84
f 80 84 88
f 80 88 81
f 81 88 89
f 81 89 82
f 82 89 90
f 82 90 91
f 82 91 83
f 83 91 92
f 83 92 93
f 83 93 88
f 83 88 84
f 88 93 89
f 89 93 92
f 89 92 94
f 89 94 90
f 90 94 95
f 90 95 96
f 90 96 97
f 90 97 91
f 91 97 92
f 92 97 98
f 92 98 95
f 92 95 94
f 86 87 99
f 86 99 72
f 72 99 73
f 73 99 70
f 70 99 87
f 70 87 71
f 100 101 102
f 100 102 103
f 100 103 96
f 100 96 95
f 100 95 104
f 100 104 101
f 101 104 105
f 101 105 102
f 102 105 106
f 102 106 107
f 102 107 103
f 103 107 108
f 103 108 109
f 103 109 96
f 96 109 97
f 97 109 110
f 97 110 98
f 98 110 111
f 98 111 112
f 98 112 95
f 95 112 104
f 104 112 105
f 105 112 106
f 106 112 111
f 106 111 113
f 106 113 107
f 107 113 114
f 107 114 108
f 108 114 110
f 108 110 109
f 113 110 114
f 110 113 111
