# RS2 Model 26192
# Vertices: 474
# Faces: 928

v 12 -18 187
v 17 -16 186
v 18 -18 195
v 16 -20 195
v 12 -23 189
v 11 -22 184
v 12 -20 180
v 15 -17 174
v 19 -9 182
v 8 -14 188
v 5 -31 182
v 10 -30 180
v 8 -35 178
v 10 -29 174
v 11 -24 166
v 13 -20 164
v 20 -11 171
v 22 -2 178
v 10 5 181
v 5 5 186
v 0 -16 190
v 0 -33 183
v 0 -37 180
v 4 -36 179
v 7 -33 173
v 8 -33 177
v 5 -35 175
v 4 -35 173
v 3 -37 172
v 4 -40 170
v 8 -30 170
v 3 -39 176
v 2 -38 173
v 0 -42 173
v 0 -46 170
v 4 -46 168
v 6 -38 166
v 7 -28 164
v 0 -40 177
v 0 -39 174
v -2 -38 173
v -3 -37 172
v -4 -40 170
v -4 -46 168
v 0 -50 167
v 0 -47 164
v 3 -43 163
v 0 -46 163
v -3 -43 163
v -6 -38 166
v -8 -30 170
v -7 -28 164
v -11 -24 166
v -9 -24 161
v -6 -35 161
v -5 -31 162
v 0 -28 164
v -2 -39 158
v 0 -43 156
v 2 -39 158
v 5 -31 162
v 6 -35 161
v 9 -24 161
v 9 -20 156
v 12 -12 152
v 19 -13 162
v 25 -7 160
v 25 -6 169
v 26 5 175
v 18 5 178
v 13 17 171
v 5 20 175
v 0 5 188
v -5 5 186
v -8 -14 188
v -5 -31 182
v -4 -36 179
v 4 -38 155
v 6 -32 158
v 3 -43 156
v 0 -42 154
v 0 -35 154
v 0 -30 156
v 2 -45 160
v 4 -37 162
v 0 -23 157
v 4 -16 143
v 10 -10 145
v 16 -4 148
v 20 5 148
v 24 5 154
v 31 -7 157
v 33 -3 169
v 34 5 177
v 33 13 169
v 25 15 169
v -9 -20 156
v -4 -16 143
v 0 -18 143
v 0 -15 140
v 7 -7 141
v 7 -5 133
v 14 5 137
v 11 18 148
v 21 13 154
v 31 15 158
v 30 5 156
v 31 -5 158
v 38 -3 165
v 38 5 173
v 41 5 175
v 38 13 165
v 25 17 160
v 13 19 162
v 7 21 163
v 0 30 159
v 0 21 176
v -5 20 175
v -10 5 181
v -19 -9 182
v -17 -16 186
v -18 -18 195
v -16 -20 195
v -12 -23 189
v -11 -22 184
v -10 -30 180
v -8 -35 178
v -3 -39 176
v -5 -35 175
v -4 -35 173
v -7 -33 173
v -10 -29 174
v -15 -17 174
v -13 -20 164
v -16 -4 148
v -7 -7 141
v -3 -43 156
v -4 -38 155
v -6 -32 158
v -4 -37 162
v -12 -18 187
v -12 -20 180
v -8 -33 177
v -25 -6 169
v -25 -7 160
v -24 5 154
v -20 5 148
v -14 5 137
v -7 -5 133
v 0 -12 132
v 8 -7 130
v 13 5 135
v 7 11 137
v 0 17 139
v 0 25 150
v -2 -45 160
v -11 18 148
v -21 13 154
v -25 17 160
v -16 19 162
v -16 6 137
v -8 -6 132
v -7 -6 130
v -8 -7 127
v -3 -10 127
v 0 -12 127
v 3 -10 127
v 8 -7 127
v 21 -1 126
v 14 5 132
v 13 5 132
v 0 13 129
v -14 5 129
v -15 6 135
v -17 6 126
v 73 -1 98
v 64 -1 104
v 64 5 104
v 67 5 94
v 72 1 94
v 79 5 95
v 80 5 102
v 72 -1 112
v 80 -6 104
v 79 -6 97
v 72 -3 94
v 67 -6 96
v 64 -6 104
v 63 -8 105
v 53 7 111
v 64 11 104
v 73 11 98
v 72 9 93
v 78 2 79
v 84 5 80
v 78 8 79
v 72 11 112
v 68 5 120
v 59 -5 118
v 69 -8 110
v 73 -11 100
v 72 -10 95
v 78 -10 81
v 84 -7 82
v 78 -5 79
v 66 -10 108
v 63 -20 97
v 62 -13 110
v 63 -10 113
v 46 5 113
v 59 14 116
v 69 19 108
v 64 16 104
v 67 16 95
v 72 13 93
v 79 16 96
v 80 16 103
v 69 5 125
v 57 -6 120
v 50 -2 136
v 41 5 133
v 50 12 136
v 57 16 120
v 58 5 135
v 39 -3 154
v 44 5 155
v 45 5 167
v 39 13 154
v 32 5 151
v 39 5 139
v 46 -2 141
v 50 5 145
v 46 12 141
v 55 5 143
v -7 21 163
v 17 6 125
v 14 5 129
v 8 -7 126
v 17 6 124
v 0 13 128
v -14 6 126
v -17 6 124
v -8 -7 126
v -3 -10 126
v 0 -12 126
v 3 -10 126
v 4 -11 110
v 10 -8 111
v 19 6 112
v 12 15 110
v 6 16 116
v 0 20 119
v -6 16 116
v -12 15 110
v -19 6 112
v -10 -8 111
v -4 -11 110
v 0 -15 118
v 0 -14 95
v 5 -10 95
v 17 -6 97
v 26 6 97
v 13 16 98
v 0 19 107
v 4 20 111
v 0 22 113
v -4 20 111
v -13 16 98
v -26 6 97
v -17 -6 97
v -5 -10 95
v 0 -15 75
v 7 -9 79
v 19 -7 78
v 27 6 82
v 15 20 78
v 0 22 99
v -15 20 78
v -27 6 82
v -19 -7 78
v -7 -9 79
v 80 5 65
v 78 14 79
v 84 17 81
v 72 20 94
v 78 19 80
v 80 17 66
v 73 21 99
v 80 -8 66
v -73 -1 98
v -64 5 104
v -64 -1 104
v -64 -6 104
v -67 -6 96
v -72 -3 94
v -79 -6 97
v -80 -6 104
v -72 -1 112
v -80 5 102
v -79 5 95
v -72 1 94
v -67 5 94
v -73 11 98
v -64 11 104
v -53 7 111
v -63 -8 105
v -66 -10 108
v -69 -8 110
v -73 -11 100
v -72 -10 95
v -78 -10 81
v -78 -5 79
v -84 -7 82
v -59 -5 118
v -68 5 120
v -72 11 112
v -72 9 93
v -78 8 79
v -84 5 80
v -78 2 79
v -64 16 104
v -69 19 108
v -59 14 116
v -46 5 113
v -63 -10 113
v -62 -13 110
v -63 -20 97
v -26 5 175
v -33 -3 169
v -31 -5 158
v -30 5 156
v -31 15 158
v -13 17 171
v -25 15 169
v -33 13 169
v -34 5 177
v -41 5 175
v -38 5 173
v -38 -3 165
v -39 -3 154
v -32 5 151
v -39 13 154
v -38 13 165
v -44 5 155
v -45 5 167
v -50 5 145
v -39 5 139
v -46 12 141
v -55 5 143
v -46 -2 141
v -50 -2 136
v -41 5 133
v -50 12 136
v -58 5 135
v -69 5 125
v -57 16 120
v -57 -6 120
v -80 5 65
v -78 14 79
v -79 16 96
v -84 17 81
v -80 17 66
v -78 19 80
v -72 20 94
v -72 13 93
v -80 16 103
v -73 21 99
v -67 16 95
v -80 -8 66
v 24 -9 53
v 30 0 57
v 31 6 63
v 17 17 80
v 19 13 68
v 8 3 80
v 11 3 61
v 16 -2 56
v 23 -3 55
v 32 4 56
v 35 6 54
v 21 15 60
v 10 3 53
v 13 2 55
v 23 -2 43
v 32 10 46
v 22 12 59
v 5 28 105
v 0 30 107
v -5 28 105
v 0 25 99
v 0 33 100
v 0 38 106
v 0 25 76
v 13 8 45
v 10 6 22
v 23 -4 23
v 40 8 22
v 22 34 21
v 22 20 49
v 23 23 20
v 19 11 20
v 23 4 20
v 34 12 20
v 27 24 13
v 18 5 13
v 29 1 15
v 38 5 11
v 38 6 0
v 18 6 0
v 15 -6 0
v 18 -6 10
v 23 -6 12
v 27 -6 9
v 31 -6 12
v 35 -6 5
v 38 -6 8
v 43 -6 0
v 35 -6 0
v 27 -6 0
v 23 -20 0
v 23 -15 12
v 31 -20 0
v 31 -15 12
v 38 -16 0
v 38 -11 8
v -30 0 57
v -24 -9 53
v -16 -2 56
v -11 3 61
v -8 3 80
v -19 13 68
v -17 17 80
v -31 6 63
v -35 6 54
v -32 4 56
v -23 -3 55
v -13 2 55
v -10 3 53
v -21 15 60
v -22 12 59
v -32 10 46
v -23 -2 43
v -13 8 45
v -22 20 49
v -22 34 21
v -40 8 22
v -23 -4 23
v -10 6 22
v -23 4 20
v -19 11 20
v -23 23 20
v -34 12 20
v -29 1 15
v -18 5 13
v -27 24 13
v -38 5 11
v -31 -6 12
v -27 -6 9
v -23 -6 12
v -18 -6 10
v -15 -6 0
v -18 6 0
v -38 6 0
v -43 -6 0
v -38 -6 8
v -35 -6 5
v -31 -15 12
v -31 -20 0
v -27 -6 0
v -23 -20 0
v -23 -15 12
v -35 -6 0
v -38 -16 0
v -38 -11 8

f 1 2 3
f 1 3 4
f 1 4 5
f 1 5 6
f 1 6 7
f 1 7 2
f 2 7 8
f 2 8 9
f 2 9 10
f 2 10 3
f 3 10 4
f 4 10 5
f 5 10 6
f 6 10 11
f 6 11 12
f 6 12 7
f 7 12 13
f 7 13 14
f 7 14 8
f 8 14 15
f 8 15 16
f 8 16 17
f 8 17 18
f 8 18 9
f 9 18 19
f 9 19 20
f 9 20 10
f 10 20 21
f 10 21 11
f 11 21 22
f 11 22 23
f 11 23 24
f 11 24 13
f 11 13 12
f 25 26 27
f 25 27 28
f 25 28 29
f 25 29 30
f 25 30 31
f 25 31 14
f 25 14 26
f 26 14 13
f 26 13 32
f 26 32 27
f 27 32 33
f 27 33 28
f 28 33 29
f 29 33 34
f 29 34 30
f 30 34 35
f 30 35 36
f 30 36 37
f 30 37 31
f 31 37 38
f 31 38 15
f 31 15 14
f 24 32 13
f 32 24 39
f 32 39 40
f 32 40 33
f 33 40 34
f 34 40 41
f 34 41 42
f 34 42 43
f 34 43 35
f 35 43 44
f 35 44 45
f 35 45 36
f 36 45 46
f 36 46 47
f 36 47 37
f 46 48 47
f 48 46 49
f 49 46 44
f 49 44 50
f 50 44 43
f 50 43 51
f 50 51 52
f 52 51 53
f 52 53 54
f 52 54 55
f 52 55 56
f 52 56 57
f 57 56 58
f 57 58 59
f 57 59 60
f 57 60 61
f 57 61 38
f 38 61 62
f 38 62 63
f 38 63 15
f 15 63 16
f 16 63 64
f 16 64 65
f 16 65 66
f 16 66 17
f 17 66 67
f 17 67 68
f 17 68 18
f 18 68 69
f 18 69 70
f 18 70 19
f 19 70 71
f 19 71 72
f 19 72 20
f 20 72 73
f 20 73 21
f 21 73 74
f 21 74 75
f 21 75 76
f 21 76 22
f 22 76 23
f 23 76 77
f 23 77 39
f 23 39 24
f 78 79 62
f 78 62 80
f 78 80 81
f 78 81 82
f 78 82 83
f 78 83 79
f 79 83 63
f 79 63 62
f 60 84 80
f 60 80 62
f 60 62 85
f 60 85 61
f 61 85 62
f 63 86 64
f 64 86 87
f 64 87 88
f 64 88 65
f 65 88 89
f 65 89 66
f 66 89 67
f 67 89 90
f 67 90 91
f 67 91 92
f 67 92 68
f 68 92 93
f 68 93 69
f 69 93 94
f 69 94 95
f 69 95 96
f 69 96 71
f 69 71 70
f 63 83 86
f 86 83 54
f 86 54 97
f 86 97 98
f 86 98 99
f 86 99 87
f 87 99 100
f 87 100 101
f 87 101 88
f 88 101 89
f 89 101 102
f 89 102 103
f 89 103 90
f 90 103 104
f 90 104 105
f 90 105 91
f 91 105 106
f 91 106 107
f 91 107 92
f 92 107 108
f 92 108 93
f 93 108 109
f 93 109 110
f 93 110 111
f 93 111 94
f 94 111 95
f 95 111 110
f 95 110 112
f 95 112 106
f 95 106 113
f 95 113 96
f 96 113 114
f 96 114 71
f 71 114 115
f 71 115 72
f 72 115 116
f 72 116 117
f 72 117 73
f 73 117 118
f 73 118 74
f 74 118 119
f 74 119 120
f 74 120 75
f 75 120 121
f 75 121 122
f 75 122 123
f 75 123 124
f 75 124 125
f 75 125 76
f 76 125 126
f 76 126 127
f 76 127 77
f 77 127 128
f 77 128 39
f 39 128 40
f 40 128 41
f 41 128 129
f 41 129 130
f 41 130 42
f 42 130 131
f 42 131 43
f 43 131 51
f 51 131 132
f 51 132 53
f 53 132 133
f 53 133 134
f 53 134 54
f 54 134 97
f 97 134 135
f 97 135 98
f 98 135 136
f 98 136 100
f 98 100 99
f 80 59 81
f 81 59 137
f 81 137 138
f 81 138 82
f 82 138 83
f 83 138 139
f 83 139 54
f 54 139 55
f 55 139 138
f 55 138 137
f 55 137 58
f 55 58 140
f 55 140 56
f 56 140 58
f 80 84 59
f 59 84 60
f 141 122 121
f 141 121 142
f 141 142 125
f 141 125 124
f 141 124 123
f 141 123 122
f 131 129 143
f 131 143 132
f 132 143 127
f 132 127 142
f 132 142 133
f 133 142 121
f 133 121 120
f 133 120 144
f 133 144 145
f 133 145 134
f 134 145 135
f 135 145 146
f 135 146 147
f 135 147 148
f 135 148 149
f 135 149 136
f 136 149 100
f 100 149 150
f 100 150 101
f 101 150 102
f 102 150 151
f 102 151 103
f 103 151 152
f 103 152 153
f 103 153 104
f 104 153 154
f 104 154 155
f 104 155 114
f 104 114 105
f 105 114 113
f 105 113 106
f 131 130 129
f 128 143 129
f 143 128 127
f 45 44 46
f 142 127 126
f 142 126 125
f 137 59 156
f 137 156 58
f 58 156 59
f 157 148 147
f 157 147 158
f 157 158 159
f 157 159 160
f 157 160 155
f 157 155 154
f 157 154 148
f 148 154 161
f 148 161 149
f 149 161 162
f 149 162 150
f 150 162 163
f 150 163 164
f 150 164 165
f 150 165 166
f 150 166 167
f 150 167 168
f 150 168 151
f 151 168 169
f 151 169 170
f 151 170 171
f 151 171 152
f 152 171 153
f 153 171 170
f 153 170 172
f 153 172 154
f 154 172 173
f 154 173 174
f 154 174 161
f 161 174 162
f 162 174 163
f 163 174 173
f 163 173 164
f 164 173 175
f 175 173 172
f 176 177 178
f 176 178 179
f 176 179 180
f 176 180 181
f 176 181 182
f 176 182 183
f 176 183 184
f 176 184 185
f 176 185 186
f 176 186 187
f 176 187 188
f 176 188 177
f 177 188 189
f 177 189 190
f 177 190 178
f 178 190 191
f 178 191 192
f 178 192 179
f 179 192 193
f 179 193 180
f 180 193 194
f 180 194 181
f 181 194 195
f 181 195 196
f 181 196 193
f 181 193 192
f 181 192 182
f 182 192 197
f 182 197 183
f 183 197 198
f 183 198 199
f 183 199 200
f 183 200 184
f 184 200 201
f 184 201 185
f 185 201 202
f 185 202 203
f 185 203 204
f 185 204 205
f 185 205 186
f 186 205 203
f 186 203 202
f 186 202 187
f 187 202 201
f 187 201 188
f 188 201 200
f 188 200 206
f 188 206 189
f 189 206 207
f 189 207 208
f 189 208 209
f 189 209 199
f 189 199 190
f 190 199 210
f 190 210 211
f 190 211 212
f 190 212 213
f 190 213 191
f 191 213 192
f 192 213 214
f 192 214 215
f 192 215 216
f 192 216 217
f 192 217 197
f 197 217 212
f 197 212 211
f 197 211 198
f 198 211 218
f 198 218 199
f 199 218 219
f 199 219 210
f 210 219 220
f 210 220 221
f 210 221 222
f 210 222 223
f 210 223 211
f 211 223 218
f 218 223 222
f 218 222 224
f 218 224 220
f 218 220 219
f 108 225 109
f 109 225 226
f 109 226 227
f 109 227 110
f 110 227 112
f 112 227 226
f 112 226 228
f 112 228 106
f 106 228 229
f 106 229 107
f 107 229 108
f 108 229 225
f 225 229 230
f 225 230 231
f 225 231 232
f 225 232 226
f 226 232 228
f 228 232 233
f 228 233 230
f 228 230 229
f 234 232 231
f 234 231 220
f 234 220 224
f 234 224 222
f 234 222 233
f 234 233 232
f 220 231 230
f 220 230 221
f 221 230 222
f 222 230 233
f 115 155 116
f 116 155 235
f 116 235 118
f 116 118 117
f 155 115 114
f 236 172 237
f 236 237 169
f 236 169 168
f 236 168 238
f 236 238 239
f 236 239 172
f 172 239 240
f 172 240 241
f 241 240 242
f 241 242 164
f 164 242 243
f 164 243 165
f 165 243 244
f 165 244 166
f 166 244 245
f 166 245 167
f 167 245 246
f 167 246 168
f 168 246 238
f 238 246 247
f 238 247 248
f 238 248 249
f 238 249 239
f 239 249 250
f 239 250 251
f 239 251 240
f 240 251 252
f 240 252 253
f 240 253 242
f 242 253 254
f 242 254 255
f 242 255 243
f 243 255 256
f 243 256 257
f 243 257 244
f 244 257 258
f 244 258 245
f 245 258 246
f 246 258 247
f 247 258 257
f 247 257 259
f 247 259 260
f 247 260 248
f 248 260 261
f 248 261 249
f 249 261 262
f 249 262 263
f 249 263 250
f 250 263 264
f 250 264 265
f 250 265 251
f 251 265 252
f 252 265 266
f 252 266 267
f 252 267 253
f 253 267 254
f 254 267 264
f 254 264 268
f 254 268 255
f 255 268 269
f 255 269 270
f 255 270 256
f 256 270 271
f 256 271 257
f 257 271 259
f 259 271 272
f 259 272 260
f 260 272 273
f 260 273 274
f 260 274 261
f 261 274 275
f 261 275 262
f 262 275 263
f 263 275 276
f 263 276 277
f 263 277 264
f 264 277 268
f 268 277 278
f 268 278 279
f 268 279 269
f 269 279 270
f 270 279 280
f 270 280 271
f 271 280 281
f 271 281 272
f 194 282 195
f 195 282 196
f 196 282 194
f 196 194 193
f 283 284 216
f 283 216 215
f 283 215 285
f 283 285 286
f 283 286 287
f 283 287 284
f 284 287 286
f 284 286 216
f 216 286 285
f 216 285 288
f 216 288 217
f 217 288 212
f 212 288 213
f 213 288 214
f 214 288 285
f 214 285 215
f 205 204 289
f 205 289 203
f 203 289 204
f 200 199 209
f 200 209 206
f 206 209 208
f 206 208 207
f 290 291 292
f 290 292 293
f 290 293 294
f 290 294 295
f 290 295 296
f 290 296 297
f 290 297 298
f 290 298 299
f 290 299 300
f 290 300 301
f 290 301 302
f 290 302 291
f 291 302 303
f 291 303 304
f 291 304 305
f 291 305 292
f 292 305 306
f 292 306 293
f 293 306 307
f 293 307 308
f 293 308 309
f 293 309 294
f 294 309 310
f 294 310 295
f 295 310 311
f 295 311 312
f 295 312 296
f 296 312 313
f 296 313 311
f 296 311 310
f 296 310 309
f 296 309 297
f 297 309 308
f 297 308 298
f 298 308 314
f 298 314 315
f 298 315 316
f 298 316 299
f 299 316 303
f 299 303 300
f 300 303 317
f 300 317 318
f 300 318 319
f 300 319 320
f 300 320 301
f 301 320 317
f 301 317 302
f 302 317 303
f 303 321 304
f 304 321 305
f 305 321 322
f 305 322 323
f 305 323 324
f 305 324 314
f 305 314 306
f 306 314 325
f 306 325 326
f 306 326 327
f 306 327 307
f 307 327 326
f 307 326 325
f 307 325 308
f 308 325 314
f 144 120 328
f 144 328 329
f 144 329 145
f 145 329 330
f 145 330 146
f 146 330 331
f 146 331 332
f 146 332 158
f 146 158 147
f 119 328 120
f 328 119 333
f 328 333 334
f 328 334 335
f 328 335 336
f 328 336 329
f 329 336 337
f 329 337 338
f 329 338 339
f 329 339 330
f 330 339 340
f 330 340 341
f 330 341 331
f 331 341 332
f 332 341 342
f 332 342 343
f 332 343 335
f 332 335 159
f 332 159 158
f 344 339 345
f 344 345 343
f 344 343 342
f 344 342 346
f 344 346 340
f 344 340 339
f 338 345 339
f 345 338 343
f 343 338 335
f 335 338 337
f 335 337 336
f 340 347 341
f 341 347 342
f 342 347 348
f 342 348 346
f 346 348 349
f 346 349 350
f 346 350 340
f 340 350 347
f 347 350 351
f 347 351 352
f 347 352 353
f 347 353 348
f 348 353 349
f 349 353 354
f 349 354 351
f 349 351 350
f 355 351 354
f 355 354 353
f 355 353 356
f 355 356 323
f 355 323 315
f 355 315 314
f 355 314 357
f 355 357 351
f 351 357 324
f 351 324 352
f 352 324 353
f 353 324 356
f 356 324 323
f 314 324 357
f 335 334 159
f 159 334 160
f 160 334 333
f 160 333 235
f 160 235 155
f 119 118 333
f 333 118 235
f 320 319 358
f 320 358 318
f 320 318 317
f 318 358 319
f 359 360 361
f 359 361 362
f 359 362 363
f 359 363 364
f 359 364 365
f 359 365 360
f 360 365 303
f 360 303 366
f 360 366 367
f 360 367 364
f 360 364 363
f 360 363 361
f 361 363 362
f 303 365 368
f 303 368 321
f 321 368 367
f 321 367 322
f 322 367 366
f 322 366 316
f 322 316 323
f 323 316 315
f 316 366 303
f 367 368 364
f 364 368 365
f 312 369 313
f 313 369 311
f 311 369 312
f 237 172 170
f 237 170 169
f 274 370 371
f 274 371 275
f 275 371 372
f 275 372 373
f 275 373 276
f 372 374 373
f 373 374 375
f 375 374 376
f 375 376 273
f 273 376 274
f 274 376 377
f 274 377 370
f 370 377 378
f 370 378 371
f 371 378 379
f 371 379 380
f 371 380 372
f 372 380 381
f 372 381 374
f 374 381 376
f 376 381 382
f 376 382 377
f 377 382 383
f 377 383 378
f 378 383 384
f 378 384 379
f 379 384 385
f 379 385 386
f 379 386 381
f 379 381 380
f 265 387 388
f 265 388 266
f 266 388 267
f 267 388 389
f 267 389 390
f 267 390 264
f 264 390 265
f 265 390 387
f 387 390 391
f 387 391 392
f 387 392 388
f 388 392 389
f 389 392 391
f 389 391 390
f 277 276 393
f 277 393 278
f 382 381 386
f 382 386 383
f 383 386 394
f 383 394 384
f 384 394 395
f 384 395 396
f 384 396 397
f 384 397 385
f 385 397 398
f 385 398 399
f 385 399 386
f 386 399 394
f 394 399 398
f 394 398 395
f 395 398 400
f 395 400 401
f 395 401 402
f 395 402 396
f 396 402 397
f 397 402 403
f 397 403 398
f 398 403 400
f 400 403 404
f 400 404 405
f 400 405 401
f 401 405 402
f 402 405 406
f 402 406 403
f 403 406 407
f 403 407 404
f 404 407 408
f 404 408 409
f 404 409 405
f 405 409 410
f 405 410 411
f 405 411 412
f 405 412 406
f 406 412 413
f 406 413 414
f 406 414 407
f 407 414 415
f 407 415 416
f 407 416 417
f 407 417 408
f 408 417 418
f 408 418 419
f 408 419 409
f 409 419 410
f 410 419 420
f 410 420 411
f 411 420 421
f 411 421 412
f 412 421 413
f 413 421 420
f 413 420 419
f 413 419 422
f 413 422 423
f 413 423 414
f 414 423 415
f 415 423 422
f 415 422 418
f 415 418 424
f 415 424 425
f 415 425 416
f 416 425 417
f 417 425 424
f 417 424 418
f 280 426 427
f 280 427 428
f 280 428 429
f 280 429 281
f 281 429 430
f 430 429 431
f 430 431 432
f 432 431 433
f 432 433 279
f 432 279 278
f 426 279 433
f 426 433 434
f 426 434 435
f 426 435 436
f 426 436 427
f 427 436 428
f 428 436 437
f 428 437 438
f 428 438 429
f 429 438 439
f 429 439 431
f 431 439 433
f 433 439 434
f 434 439 435
f 435 439 440
f 435 440 441
f 435 441 442
f 435 442 436
f 436 442 437
f 437 442 443
f 437 443 440
f 437 440 438
f 438 440 439
f 426 280 279
f 440 444 441
f 441 444 445
f 441 445 446
f 441 446 442
f 442 446 447
f 442 447 448
f 442 448 443
f 443 448 445
f 443 445 444
f 443 444 440
f 446 449 447
f 447 449 448
f 448 449 450
f 448 450 451
f 448 451 445
f 445 451 452
f 445 452 446
f 446 452 449
f 449 452 453
f 449 453 454
f 449 454 450
f 450 454 451
f 451 454 455
f 451 455 452
f 452 455 456
f 452 456 453
f 453 456 457
f 453 457 458
f 453 458 459
f 453 459 454
f 454 459 460
f 454 460 461
f 454 461 462
f 454 462 455
f 455 462 463
f 455 463 456
f 456 463 464
f 456 464 465
f 456 465 466
f 456 466 457
f 457 466 467
f 457 467 458
f 458 467 468
f 458 468 469
f 458 469 470
f 458 470 471
f 458 471 459
f 459 471 460
f 460 471 470
f 460 470 461
f 461 470 469
f 461 469 462
f 462 469 472
f 462 472 463
f 463 472 464
f 464 472 473
f 464 473 474
f 464 474 465
f 465 474 466
f 466 474 473
f 466 473 472
f 466 472 468
f 466 468 467
f 419 418 422
f 469 468 472
