# RS2 Model 26219
# Vertices: 107
# Faces: 154

v -64 64 240
v -64 -47 216
v -64 -47 240
v -47 64 240
v -64 64 216
v -64 48 216
v -62 -47 83
v -62 48 83
v -62 22 44
v -62 -23 56
v -62 -47 53
v -64 -49 53
v -64 -49 83
v -62 -47 23
v -62 -33 22
v -62 -47 13
v -64 -49 13
v -64 -49 23
v -62 -47 100
v -62 48 100
v -64 48 100
v -64 -47 100
v -64 -49 100
v -62 -47 158
v -62 -21 168
v -62 19 119
v -62 48 145
v -64 64 0
v -64 48 83
v -64 -47 83
v -62 -47 216
v -62 -5 206
v -62 48 23
v -62 48 13
v -62 18 39
v -62 48 53
v -62 -18 37
v -64 48 13
v -64 -47 13
v -64 -47 0
v -62 -47 0
v -62 48 216
v -47 -47 240
v -47 -47 216
v -47 48 216
v -47 64 216
v -47 64 0
v -47 48 100
v -47 48 83
v -47 48 13
v -47 -47 13
v -47 -47 0
v -47 -64 13
v -47 -64 0
v -64 -64 13
v -64 -64 0
v -49 -47 83
v -49 22 44
v -49 48 83
v -49 48 53
v -49 18 39
v -49 48 23
v -49 48 13
v -49 -18 37
v -49 -33 22
v -49 -47 13
v -49 -47 23
v -49 -47 53
v -49 -62 53
v -49 -62 23
v -49 -47 100
v -49 48 100
v -49 19 119
v -49 -21 168
v -49 -47 158
v -49 -62 158
v -49 -62 100
v -47 -47 100
v -47 -47 83
v -47 -64 100
v -47 -64 83
v -64 -64 100
v -64 -64 83
v -49 -47 216
v -49 -62 216
v -64 -62 216
v -64 -62 158
v -64 -62 100
v -49 -23 56
v -49 -62 83
v -64 -62 83
v -64 -62 53
v -64 -62 23
v -49 -62 13
v -49 -5 206
v -49 48 145
v -49 48 216
v -47 -64 240
v -47 -64 216
v -64 -64 240
v -64 -64 216
v -64 -49 158
v -64 -49 216
v -64 -62 13
v -14 48 240
v -94 48 240
v -15 -79 240

f 1 2 3
f 1 3 4
f 1 4 5
f 1 5 6
f 1 6 2
f 7 8 9
f 7 9 10
f 7 10 11
f 7 11 12
f 7 12 13
f 14 11 15
f 14 15 16
f 14 16 17
f 14 17 18
f 14 18 11
f 11 18 12
f 19 20 21
f 19 21 22
f 19 22 23
f 19 23 24
f 19 24 25
f 19 25 26
f 19 26 20
f 20 26 27
f 20 27 6
f 20 6 21
f 21 6 5
f 21 5 28
f 21 28 29
f 21 29 22
f 22 29 30
f 25 24 31
f 25 31 32
f 25 32 27
f 25 27 26
f 33 34 35
f 33 35 36
f 36 35 9
f 36 9 8
f 37 10 9
f 37 9 35
f 37 35 34
f 37 34 15
f 37 15 10
f 10 15 11
f 38 16 34
f 38 34 8
f 38 8 29
f 38 29 28
f 38 28 39
f 38 39 16
f 16 39 17
f 39 16 40
f 40 16 41
f 39 28 40
f 15 34 16
f 32 31 42
f 32 42 27
f 27 42 6
f 4 43 44
f 4 44 45
f 4 45 46
f 4 46 5
f 5 46 28
f 28 46 47
f 47 46 48
f 47 48 49
f 47 49 50
f 47 50 51
f 47 51 52
f 52 51 53
f 52 53 54
f 54 53 55
f 54 55 56
f 57 58 59
f 59 58 60
f 60 58 61
f 60 61 62
f 62 61 63
f 63 61 64
f 63 64 65
f 63 65 66
f 63 66 50
f 63 50 49
f 63 49 59
f 67 65 68
f 67 68 69
f 67 69 70
f 67 70 66
f 67 66 65
f 71 48 72
f 71 72 73
f 71 73 74
f 71 74 75
f 71 75 76
f 71 76 77
f 71 77 78
f 71 78 48
f 48 78 49
f 49 78 79
f 79 78 80
f 79 80 81
f 81 80 82
f 81 82 83
f 74 84 75
f 75 84 85
f 75 85 76
f 76 85 86
f 76 86 87
f 76 87 77
f 77 87 88
f 77 88 80
f 77 80 78
f 68 89 57
f 68 57 90
f 68 90 69
f 69 90 91
f 69 91 92
f 69 92 70
f 70 92 93
f 70 93 94
f 70 94 66
f 66 94 51
f 66 51 50
f 64 58 89
f 64 89 65
f 65 89 68
f 58 64 61
f 89 58 57
f 95 74 96
f 95 96 97
f 95 97 84
f 95 84 74
f 73 96 74
f 96 73 72
f 96 72 48
f 96 48 45
f 96 45 97
f 46 45 48
f 4 3 43
f 43 3 98
f 43 98 44
f 44 98 99
f 99 98 100
f 99 100 101
f 102 103 31
f 102 31 24
f 102 24 23
f 88 82 80
f 93 104 94
f 94 104 53
f 94 53 51
f 104 55 53
f 100 98 3
