# RS2 Model 26214
# Vertices: 71
# Faces: 74

v -62 -64 83
v -62 64 83
v -62 -1 56
v -62 -64 53
v -62 -50 22
v -62 -64 23
v -62 -64 13
v -62 64 13
v -64 64 13
v -64 -64 13
v -64 64 0
v -64 -64 0
v -62 -64 100
v -62 64 100
v -64 64 100
v -64 -64 100
v -64 64 83
v -64 -64 83
v -62 -43 159
v -62 -64 158
v -62 -64 216
v -62 35 163
v -62 24 151
v -62 -15 147
v -62 64 23
v -62 22 27
v -62 64 53
v -62 64 158
v -62 64 216
v -62 -5 206
v -64 64 240
v -64 -64 216
v -64 -64 240
v -47 64 240
v -47 -64 240
v -47 -64 216
v -47 64 216
v -64 64 216
v -49 -64 83
v -49 -1 56
v -49 64 83
v -49 64 53
v -49 64 23
v -49 22 27
v -49 64 13
v -49 -50 22
v -49 -64 13
v -47 -64 13
v -47 64 13
v -47 -64 0
v -47 64 0
v -49 -64 23
v -49 -64 53
v -49 -64 100
v -47 64 100
v -49 64 100
v -49 -15 147
v -49 -43 159
v -49 -64 158
v -49 -64 216
v -49 35 163
v -49 -5 206
v -49 64 216
v -49 64 158
v -49 24 151
v -47 -64 100
v -47 64 83
v -47 -64 83
v -15 65 240
v -95 61 240
v -14 -63 240

f 1 2 3
f 1 3 4
f 4 3 5
f 4 5 6
f 6 5 7
f 7 5 8
f 7 8 9
f 7 9 10
f 10 9 11
f 10 11 12
f 13 14 15
f 13 15 16
f 16 15 17
f 16 17 18
f 19 20 21
f 19 21 22
f 19 22 23
f 19 23 24
f 19 24 13
f 19 13 20
f 25 8 26
f 25 26 3
f 25 3 27
f 27 3 2
f 22 28 14
f 22 14 23
f 23 14 24
f 24 14 13
f 3 26 5
f 5 26 8
f 22 29 28
f 29 22 30
f 29 30 21
f 21 30 22
f 31 32 33
f 31 33 34
f 34 33 35
f 34 35 36
f 34 36 37
f 38 32 31
f 39 40 41
f 41 40 42
f 42 40 43
f 43 40 44
f 43 44 45
f 45 44 46
f 45 46 47
f 45 47 48
f 45 48 49
f 49 48 50
f 49 50 51
f 52 46 53
f 53 46 40
f 53 40 39
f 54 55 56
f 54 56 57
f 54 57 58
f 54 58 59
f 59 58 60
f 60 58 61
f 60 61 62
f 60 62 63
f 63 62 61
f 63 61 64
f 64 61 56
f 56 61 65
f 56 65 57
f 57 65 58
f 58 65 61
f 54 66 55
f 55 66 67
f 67 66 68
f 47 46 52
f 40 46 44
