# RS2 Model 26211
# Vertices: 55
# Faces: 53

v -64 64 240
v -64 47 240
v -50 50 240
v -47 64 240
v -49 50 26
v -49 50 6
v -50 50 0
v -47 64 0
v -64 62 100
v -64 62 158
v -62 64 158
v -62 64 100
v -64 64 100
v -64 62 216
v -62 64 216
v -64 62 13
v -64 62 23
v -62 64 23
v -62 64 13
v -64 64 13
v -64 62 53
v -62 64 53
v -64 62 83
v -62 64 83
v -64 47 0
v -60 -64 95
v -60 -64 0
v -46 -64 0
v -46 -64 95
v -46 -53 95
v -49 -53 0
v -57 -53 0
v -60 -53 95
v -57 16 95
v -57 49 26
v -57 49 6
v -57 5 95
v -57 -53 20
v -57 -16 95
v -57 -6 95
v -49 16 95
v -49 5 95
v -49 -16 95
v -49 -53 20
v -49 -6 95
v -50 50 103
v -64 -64 103
v -42 -64 103
v -42 50 103
v -42 50 95
v -50 50 95
v -64 38 103
v -64 38 95
v -64 -64 95
v -42 -64 95

f 1 2 3
f 1 3 4
f 4 3 5
f 4 5 6
f 4 6 7
f 4 7 8
f 9 10 11
f 9 11 12
f 9 12 13
f 10 14 15
f 10 15 11
f 16 17 18
f 16 18 19
f 16 19 20
f 17 21 22
f 17 22 18
f 21 23 24
f 21 24 22
f 25 7 6
f 25 6 5
f 25 5 3
f 25 3 2
f 26 27 28
f 26 28 29
f 29 28 30
f 30 28 31
f 30 31 32
f 30 32 33
f 33 32 26
f 26 32 27
f 34 35 36
f 34 36 37
f 38 39 40
f 38 40 32
f 41 35 34
f 35 41 5
f 5 41 42
f 5 42 6
f 43 39 44
f 43 44 31
f 43 31 45
f 39 38 44
f 46 47 48
f 46 48 49
f 46 49 50
f 46 50 51
f 46 51 52
f 46 52 47
f 47 52 53
f 47 53 54
f 49 48 55
f 49 55 50
f 52 51 53
