# RS2 Model 26216
# Vertices: 67
# Faces: 96

v -64 64 240
v -64 -64 216
v -64 -64 240
v -47 64 240
v -64 64 216
v -64 48 216
v -62 -62 83
v -62 48 83
v -62 22 44
v -62 -40 56
v -62 -62 53
v -62 -50 22
v -62 -62 23
v -62 -62 13
v -62 48 13
v -64 48 13
v -64 -64 13
v -64 64 0
v -64 -64 0
v -62 -62 100
v -62 48 100
v -64 48 100
v -64 -64 100
v -64 48 83
v -64 -64 83
v -62 -21 168
v -62 -62 158
v -62 -62 216
v -62 -5 206
v -62 48 145
v -62 19 119
v -62 48 23
v -62 18 39
v -62 48 53
v -62 -18 37
v -62 48 216
v -47 -47 240
v -47 -47 216
v -47 48 216
v -47 64 216
v -47 64 0
v -47 48 100
v -47 48 83
v -47 48 13
v -49 -49 13
v -49 -49 0
v -49 -49 83
v -49 22 44
v -49 48 83
v -49 48 53
v -49 18 39
v -49 48 23
v -49 48 13
v -49 -18 37
v -49 -37 22
v -49 -49 23
v -49 -49 53
v -49 -40 56
v -49 -49 100
v -49 48 100
v -49 19 119
v -49 -21 168
v -49 -49 158
v -49 -49 216
v -49 -5 206
v -49 48 216
v -49 48 145

f 1 2 3
f 1 3 4
f 1 4 5
f 1 5 6
f 1 6 2
f 7 8 9
f 7 9 10
f 7 10 11
f 11 10 12
f 11 12 13
f 13 12 14
f 14 12 15
f 14 15 16
f 14 16 17
f 17 16 18
f 17 18 19
f 20 21 22
f 20 22 23
f 23 22 24
f 23 24 25
f 26 27 28
f 26 28 29
f 26 29 30
f 26 30 31
f 26 31 20
f 26 20 27
f 32 15 33
f 32 33 34
f 34 33 9
f 34 9 8
f 35 10 9
f 35 9 33
f 35 33 15
f 35 15 12
f 35 12 10
f 21 20 31
f 21 31 30
f 21 30 6
f 21 6 22
f 22 6 5
f 22 5 18
f 22 18 24
f 24 18 16
f 24 16 8
f 8 16 15
f 29 28 36
f 29 36 30
f 30 36 6
f 4 37 38
f 4 38 39
f 4 39 40
f 4 40 5
f 5 40 18
f 18 40 41
f 41 40 42
f 41 42 43
f 41 43 44
f 41 44 45
f 41 45 46
f 47 48 49
f 49 48 50
f 50 48 51
f 50 51 52
f 52 51 53
f 53 51 54
f 53 54 55
f 53 55 45
f 53 45 44
f 53 44 43
f 53 43 49
f 56 55 57
f 57 55 58
f 57 58 47
f 47 58 48
f 48 58 54
f 48 54 51
f 59 42 60
f 59 60 61
f 59 61 62
f 59 62 63
f 63 62 64
f 64 62 65
f 64 65 66
f 66 65 67
f 66 67 39
f 39 67 42
f 39 42 40
f 59 43 42
f 43 59 47
f 45 55 56
f 58 55 54
f 65 62 67
f 67 62 61
f 67 61 60
f 67 60 42
f 4 3 37
