# RS2 Model 26277
# Vertices: 174
# Faces: 361

v 12 -43 19
v 18 -39 20
v 12 -41 22
v 6 -38 21
v 5 -38 19
v 1 -38 19
v 14 -38 12
v 13 -38 16
v 11 -33 27
v 0 -36 29
v 0 -42 17
v 0 -45 9
v 5 -41 4
v 5 -38 4
v 10 -38 1
v 10 -38 -1
v 28 -31 5
v 19 -38 18
v 24 -33 27
v 14 -32 33
v 6 -32 33
v 22 -35 19
v -10 -67 -40
v -7 -40 -15
v -28 -28 -12
v -24 -10 -30
v 24 -10 -30
v 7 -67 -40
v 0 -42 -16
v 0 -40 -15
v -7 -35 -14
v -11 -35 -12
v -8 -35 -13
v -10 -38 -1
v -28 -31 5
v -14 -38 12
v -19 -38 18
v -23 -35 19
v -18 -38 20
v -24 -33 27
v -11 -33 27
v -14 -32 33
v -22 -34 31
v 7 -40 -15
v 28 -28 -12
v 11 -35 -12
v 7 -35 -14
v -35 -10 1
v -35 -3 -1
v 35 -3 -1
v 35 -10 1
v -2 -38 -11
v -2 -38 -9
v -3 -38 -1
v -10 -41 -1
v -10 -41 1
v -10 -38 1
v -5 -38 4
v -1 -38 19
v -5 -38 19
v -13 -38 16
v -12 -41 22
v -6 -38 21
v -6 -32 33
v 8 -36 -12
v 2 -38 -11
v 2 -38 -9
v 3 -38 -1
v 0 -42 -1
v 10 -41 -1
v 10 -41 1
v 10 -45 -2
v 0 -51 -3
v 2 -52 -3
v -2 -52 -3
v -10 -45 -2
v -10 -43 1
v 0 -51 1
v -5 -41 4
v -12 -43 19
v 22 -34 31
v 10 -43 1
v 22 27 -44
v 17 24 -16
v 19 1 -47
v 2 -12 -47
v -2 -12 -47
v -18 1 -47
v -22 27 -44
v -17 24 -16
v -5 35 -43
v 5 35 -43
v -11 -40 21
v -13 -40 21
v -14 -40 20
v -14 -40 18
v -13 -40 17
v -11 -40 17
v -10 -40 18
v -10 -40 20
v -9 -40 20
v -11 -40 22
v -13 -40 22
v -15 -40 20
v -15 -40 18
v -13 -40 16
v -11 -40 16
v -9 -40 18
v 10 -40 20
v 10 -40 18
v 11 -40 17
v 13 -40 17
v 14 -40 18
v 14 -40 20
v 13 -40 21
v 11 -40 21
v 11 -40 22
v 9 -40 20
v 9 -40 18
v 11 -40 16
v 13 -40 16
v 15 -40 18
v 15 -40 20
v 13 -40 22
v -36 -16 20
v -40 -20 4
v -34 -40 20
v -32 8 40
v -28 -29 41
v -44 0 16
v -32 20 0
v -24 28 56
v -44 -8 0
v -56 24 -48
v -42 -16 -4
v -56 -8 -48
v -56 -32 -48
v -48 -48 -96
v -32 -44 -12
v -24 -48 16
v -20 -12 80
v 0 -44 44
v 0 -48 24
v -8 24 108
v 0 -12 84
v 0 24 108
v 8 24 108
v 20 -12 80
v -16 40 132
v 12 48 104
v 24 28 56
v 28 -29 41
v -12 48 104
v 0 48 76
v 0 48 12
v -4 32 -12
v 4 32 -12
v 0 44 -52
v 32 20 0
v 56 24 -48
v 44 -8 0
v 42 -16 -4
v 56 -8 -48
v 44 0 16
v 32 8 40
v -32 -48 -104
v 34 -40 20
v 41 -20 4
v 36 -16 20
v 32 -44 -12
v 48 -48 -96
v 56 -32 -48
v 32 -48 -104
v 24 -48 16

f 1 2 3
f 1 3 4
f 1 4 5
f 5 4 6
f 5 6 7
f 5 7 8
f 5 8 4
f 4 8 3
f 4 3 9
f 4 9 10
f 4 10 6
f 6 10 11
f 6 11 12
f 6 12 13
f 6 13 14
f 6 14 7
f 7 14 15
f 7 15 16
f 7 16 17
f 7 17 18
f 7 18 8
f 8 18 3
f 3 18 2
f 3 2 9
f 9 2 19
f 9 19 20
f 9 20 21
f 9 21 10
f 1 18 2
f 2 18 22
f 2 22 19
f 23 24 25
f 23 25 26
f 23 26 27
f 23 27 28
f 23 28 29
f 23 29 24
f 24 29 30
f 24 30 31
f 24 31 32
f 24 32 25
f 25 32 33
f 25 33 34
f 25 34 35
f 35 34 36
f 35 36 37
f 35 37 38
f 38 37 39
f 38 39 40
f 40 39 41
f 40 41 42
f 40 42 43
f 44 29 28
f 44 28 45
f 44 45 46
f 44 46 47
f 44 47 30
f 44 30 29
f 48 49 26
f 48 26 25
f 27 50 51
f 27 51 45
f 27 45 28
f 33 31 30
f 33 30 52
f 33 52 53
f 33 53 34
f 34 53 54
f 34 54 55
f 34 55 56
f 34 56 57
f 34 57 36
f 36 57 58
f 36 58 59
f 36 59 60
f 36 60 61
f 36 61 37
f 37 61 39
f 39 61 62
f 39 62 41
f 41 62 63
f 41 63 10
f 41 10 64
f 41 64 42
f 31 33 32
f 30 47 65
f 30 65 66
f 30 66 52
f 52 66 67
f 52 67 53
f 53 67 68
f 53 68 54
f 54 68 69
f 46 65 47
f 65 46 45
f 65 45 16
f 65 16 67
f 65 67 66
f 16 68 67
f 68 16 70
f 70 16 15
f 70 15 71
f 70 71 72
f 70 72 73
f 73 72 74
f 73 74 75
f 73 75 76
f 73 76 55
f 55 76 56
f 56 76 77
f 56 77 78
f 56 78 79
f 56 79 57
f 57 79 58
f 58 79 59
f 59 79 12
f 59 12 11
f 59 11 10
f 59 10 63
f 59 63 60
f 60 63 80
f 80 63 62
f 80 62 39
f 80 39 37
f 20 19 81
f 75 74 78
f 75 78 77
f 75 77 76
f 14 13 71
f 14 71 15
f 71 82 72
f 72 82 74
f 74 82 78
f 78 82 13
f 78 13 12
f 78 12 79
f 13 82 71
f 17 22 18
f 17 16 45
f 83 84 27
f 83 27 85
f 85 27 86
f 86 27 87
f 87 27 26
f 87 26 88
f 88 26 89
f 89 26 90
f 89 90 91
f 91 90 84
f 91 84 92
f 92 84 83
f 93 94 95
f 93 95 96
f 93 96 97
f 93 97 98
f 93 98 99
f 93 99 100
f 93 100 101
f 93 101 102
f 93 102 94
f 94 102 103
f 94 103 95
f 95 103 104
f 95 104 96
f 96 104 105
f 96 105 97
f 97 105 106
f 97 106 98
f 98 106 107
f 98 107 99
f 99 107 108
f 99 108 100
f 100 108 101
f 109 110 111
f 109 111 112
f 109 112 113
f 109 113 114
f 109 114 115
f 109 115 116
f 109 116 117
f 109 117 118
f 109 118 110
f 110 118 119
f 110 119 111
f 111 119 120
f 111 120 112
f 112 120 121
f 112 121 113
f 113 121 122
f 113 122 114
f 114 122 123
f 114 123 115
f 115 123 124
f 115 124 116
f 116 124 117
f 125 126 127
f 125 127 126
f 125 126 128
f 125 128 129
f 125 129 127
f 125 127 129
f 125 129 128
f 125 128 126
f 126 128 130
f 126 130 128
f 128 130 131
f 128 131 132
f 128 132 129
f 128 129 132
f 128 132 131
f 128 131 130
f 130 131 133
f 130 133 131
f 131 133 134
f 131 134 133
f 133 134 135
f 133 135 134
f 134 135 136
f 134 136 135
f 135 136 137
f 135 137 138
f 135 138 139
f 135 139 126
f 135 126 139
f 135 139 138
f 135 138 137
f 135 137 136
f 139 127 126
f 139 126 127
f 139 127 140
f 139 140 127
f 127 140 129
f 127 129 140
f 140 129 141
f 140 141 142
f 140 142 143
f 140 143 142
f 140 142 141
f 140 141 129
f 129 141 144
f 129 144 141
f 141 144 145
f 141 145 142
f 141 142 145
f 141 145 144
f 144 145 146
f 144 146 145
f 145 146 147
f 145 147 148
f 145 148 142
f 145 142 148
f 145 148 147
f 145 147 146
f 146 147 149
f 146 149 147
f 147 149 150
f 147 150 151
f 147 151 152
f 147 152 148
f 147 148 152
f 147 152 151
f 147 151 150
f 147 150 149
f 149 150 153
f 149 153 150
f 150 153 154
f 150 154 151
f 150 151 154
f 150 154 153
f 153 154 132
f 153 132 154
f 154 132 155
f 154 155 151
f 154 151 155
f 154 155 132
f 132 155 156
f 132 156 155
f 155 156 157
f 155 157 151
f 155 151 157
f 155 157 156
f 156 157 158
f 156 158 131
f 156 131 158
f 156 158 157
f 157 158 159
f 157 159 158
f 158 159 160
f 158 160 159
f 159 160 161
f 159 161 160
f 160 161 162
f 160 162 163
f 160 163 162
f 160 162 161
f 161 162 164
f 161 164 159
f 161 159 164
f 161 164 162
f 162 164 165
f 162 165 164
f 164 165 159
f 164 159 165
f 165 159 151
f 165 151 159
f 159 151 157
f 159 157 151
f 131 158 134
f 131 134 158
f 138 166 139
f 138 139 166
f 167 168 169
f 167 169 168
f 167 168 170
f 167 170 168
f 168 170 162
f 168 162 170
f 170 162 171
f 170 171 162
f 162 171 172
f 162 172 163
f 162 163 172
f 162 172 171
f 170 173 171
f 170 171 173
f 131 156 132
f 131 132 156
f 153 144 132
f 153 132 144
f 153 144 149
f 153 149 144
f 144 149 146
f 144 146 149
f 152 165 169
f 152 169 167
f 152 167 174
f 152 174 148
f 152 148 174
f 152 174 167
f 152 167 169
f 152 169 165
f 152 165 151
f 152 151 165
f 174 143 142
f 174 142 148
f 174 148 142
f 174 142 143
f 167 170 174
f 167 174 170
f 144 129 132
f 144 132 129
f 133 130 126
f 133 126 135
f 133 135 126
f 133 126 130
f 169 165 162
f 169 162 168
f 169 168 162
f 169 162 165
f 62 61 60
f 62 60 63
