# RS2 Model 26281
# Vertices: 82
# Faces: 230

v -38 -67 121
v -41 -72 124
v -38 -68 129
v -36 -64 128
v -32 -64 120
v -41 -69 107
v -44 -76 112
v -38 -76 127
v -41 -82 115
v -36 -70 131
v -32 -63 134
v -33 -72 133
v -29 -70 132
v -27 -68 129
v -26 -76 128
v -23 -72 124
v -29 -64 127
v -20 -76 112
v -23 -68 107
v -26 -66 120
v -17 -68 100
v -32 -61 100
v -32 -66 105
v -32 -59 92
v -48 -68 92
v -46 -70 100
v -48 -69 89
v -32 -60 88
v -16 -67 92
v -30 -55 91
v -34 -55 91
v -52 -64 92
v -59 -83 94
v -53 -83 94
v -53 -84 90
v -52 -65 88
v -34 -56 87
v -30 -56 87
v -13 -65 88
v -16 -68 88
v -11 -83 94
v -13 -80 106
v -13 -64 92
v -29 -7 87
v -34 -7 82
v -29 -7 82
v -33 -62 127
v -32 -79 129
v -32 -86 119
v -24 -83 116
v -32 -98 112
v -19 -90 108
v -45 -88 109
v -17 -98 97
v -32 -105 98
v -48 -97 97
v -51 -80 105
v -34 -7 87
v -59 -84 90
v -52 -102 98
v -48 -98 93
v -6 -84 91
v -11 -84 90
v -6 -83 95
v -13 -102 93
v -17 -99 93
v -13 -102 97
v -32 -110 95
v -32 -105 94
v -32 -110 99
v -52 -102 94
v -34 13 86
v -29 13 86
v -29 13 80
v -34 13 80
v -34 5 86
v -29 5 86
v -29 5 81
v -34 5 81
v -40 13 92
v -22 13 92
v -40 13 75

f 1 2 3
f 1 3 4
f 1 4 5
f 1 5 6
f 1 6 7
f 1 7 2
f 1 2 7
f 1 7 6
f 1 6 5
f 1 5 4
f 1 4 3
f 1 3 2
f 2 3 8
f 2 8 9
f 2 9 8
f 2 8 3
f 3 8 10
f 3 10 11
f 3 11 4
f 3 4 11
f 3 11 10
f 3 10 8
f 8 10 12
f 8 12 10
f 10 12 11
f 10 11 12
f 12 11 13
f 12 13 11
f 11 13 14
f 11 14 13
f 13 14 15
f 13 15 14
f 14 15 16
f 14 16 17
f 14 17 11
f 14 11 17
f 14 17 16
f 14 16 15
f 15 16 18
f 15 18 16
f 16 18 19
f 16 19 20
f 16 20 17
f 16 17 20
f 16 20 19
f 16 19 18
f 18 19 21
f 18 21 19
f 19 21 22
f 19 22 23
f 19 23 20
f 19 20 23
f 19 23 22
f 19 22 21
f 21 22 24
f 21 24 22
f 22 24 25
f 22 25 26
f 22 26 23
f 22 23 26
f 22 26 25
f 22 25 24
f 24 25 27
f 24 27 28
f 24 28 29
f 24 29 21
f 24 21 29
f 24 29 30
f 24 30 31
f 24 31 32
f 24 32 25
f 25 32 33
f 25 33 34
f 25 34 26
f 25 26 34
f 25 34 35
f 25 35 27
f 27 35 36
f 27 36 37
f 27 37 28
f 28 37 38
f 28 38 39
f 28 39 40
f 28 40 29
f 29 40 41
f 29 41 42
f 29 42 41
f 29 41 43
f 29 43 30
f 30 43 39
f 30 39 38
f 30 38 44
f 30 44 31
f 30 31 37
f 30 37 38
f 38 37 45
f 38 45 46
f 38 46 44
f 5 47 17
f 5 17 20
f 5 20 23
f 5 23 6
f 5 6 23
f 5 23 20
f 5 20 17
f 5 17 47
f 5 47 4
f 5 4 47
f 47 4 11
f 47 11 4
f 11 47 17
f 11 17 47
f 48 15 13
f 48 13 12
f 48 12 8
f 48 8 49
f 48 49 50
f 48 50 15
f 48 15 50
f 48 50 49
f 48 49 8
f 48 8 12
f 48 12 15
f 15 12 13
f 15 50 18
f 15 18 50
f 50 18 42
f 50 42 18
f 18 42 21
f 18 21 42
f 42 21 29
f 42 29 21
f 49 8 9
f 49 9 51
f 49 51 52
f 49 52 50
f 49 50 52
f 49 52 51
f 49 51 9
f 49 9 8
f 9 2 7
f 9 7 53
f 9 53 51
f 9 51 53
f 9 53 7
f 9 7 2
f 50 52 42
f 50 42 52
f 52 42 41
f 52 41 42
f 41 52 54
f 41 54 52
f 52 54 51
f 52 51 54
f 54 51 55
f 54 55 51
f 51 55 53
f 51 53 55
f 55 53 56
f 55 56 53
f 53 56 57
f 53 57 56
f 56 57 34
f 56 34 57
f 57 34 26
f 57 26 34
f 26 57 6
f 26 6 23
f 26 23 6
f 26 6 57
f 57 6 7
f 57 7 6
f 7 57 53
f 7 53 57
f 31 58 45
f 31 45 37
f 31 37 32
f 32 37 36
f 32 36 33
f 33 36 59
f 33 59 60
f 33 60 34
f 34 60 56
f 34 56 61
f 34 61 35
f 35 61 59
f 35 59 36
f 31 44 58
f 40 39 62
f 40 62 63
f 40 63 41
f 41 63 54
f 41 54 64
f 41 64 43
f 43 64 62
f 43 62 39
f 63 62 65
f 63 65 66
f 63 66 54
f 54 66 55
f 54 55 67
f 54 67 64
f 64 67 65
f 64 65 62
f 66 65 68
f 66 68 69
f 66 69 55
f 55 69 56
f 55 56 70
f 55 70 67
f 67 70 68
f 67 68 65
f 61 71 59
f 59 71 60
f 60 71 70
f 60 70 56
f 69 68 71
f 69 71 61
f 69 61 56
f 71 68 70
f 72 73 74
f 72 74 75
f 72 75 76
f 72 76 73
f 73 76 77
f 73 77 78
f 73 78 74
f 74 78 75
f 75 78 79
f 75 79 76
