# RS2 Model 26300
# Vertices: 17
# Faces: 30

v -30 23 -3
v -32 -6 8
v -29 -5 9
v -28 -7 4
v -31 -7 3
v -31 -20 7
v -31 -18 10
v -32 -8 13
v -29 -8 14
v -29 -19 21
v -29 -18 11
v -28 -19 8
v -28 -12 1
v -31 -12 0
v -31 -25 1
v -28 -25 2
v -32 -20 20

f 1 2 3
f 1 3 4
f 1 4 5
f 1 5 2
f 2 5 6
f 2 6 7
f 2 7 8
f 2 8 9
f 2 9 3
f 3 9 10
f 3 10 11
f 3 11 4
f 4 11 12
f 4 12 13
f 4 13 14
f 4 14 5
f 5 14 15
f 5 15 6
f 6 15 16
f 6 16 12
f 6 12 11
f 6 11 7
f 7 11 17
f 7 17 8
f 8 17 9
f 9 17 10
f 10 17 11
f 14 13 16
f 14 16 15
f 12 16 13
