# RS2 Model 26435
# Vertices: 125
# Faces: 235

v 14 2 119
v 8 -7 117
v 9 -7 112
v 16 3 115
v 8 10 119
v 9 12 116
v 0 12 119
v 0 14 116
v -8 10 119
v -9 12 116
v -14 2 119
v -16 3 115
v -8 -7 117
v -9 -7 112
v 0 -9 116
v 0 -9 111
v 0 -8 105
v 9 -6 106
v 17 4 111
v 9 13 112
v 0 15 112
v -9 13 112
v -17 4 111
v -9 -6 106
v -10 -6 101
v 0 -8 93
v 10 -6 101
v 18 6 107
v 10 15 109
v 0 17 109
v -10 15 109
v -18 6 107
v -10 -5 94
v -2 -8 85
v 2 -8 85
v 10 -5 94
v 19 6 96
v 12 16 99
v 0 20 100
v -12 16 99
v -19 6 96
v -11 -5 86
v -3 -9 69
v 3 -9 69
v 11 -5 86
v 19 6 88
v 18 10 91
v 12 15 90
v 0 18 92
v -12 15 90
v -19 6 88
v -19 4 72
v -12 -6 70
v -13 -6 59
v -4 -9 59
v 4 -9 59
v 12 -6 66
v 13 -4 70
v 14 -3 78
v 17 2 78
v 19 4 72
v 17 9 72
v 12 11 72
v 2 15 72
v -2 15 72
v -12 11 72
v 19 4 60
v 12 12 59
v 3 16 58
v -3 16 58
v -12 12 59
v -19 4 60
v 13 -6 59
v 14 -6 45
v 21 4 46
v 13 12 45
v 4 16 45
v -4 16 45
v -13 12 45
v -16 8 51
v -17 7 58
v -19 4 48
v -16 -2 54
v -13 -6 53
v -14 -6 45
v -5 -9 45
v 5 -9 45
v 16 -6 30
v 23 3 29
v 14 15 28
v 5 17 28
v -5 17 28
v -15 13 28
v -22 3 29
v -20 4 46
v 6 -13 35
v 23 -11 5
v 24 0 12
v 23 3 12
v 17 9 2
v 11 15 12
v 6 19 11
v 0 22 6
v -6 19 11
v -16 18 2
v -22 -1 15
v -17 -11 7
v -16 -6 30
v 13 -15 12
v 8 -2 19
v 13 2 19
v 8 9 19
v -8 9 19
v -13 3 19
v -13 3 18
v -17 5 10
v -17 1 4
v -13 2 19
v -8 -2 19
v -7 -17 3
v -6 -11 29
v -1 -16 11
v 11 -16 3
v 5 2 19
v -5 2 19

f 1 2 3
f 1 3 4
f 1 4 5
f 5 4 6
f 5 6 7
f 7 6 8
f 7 8 9
f 9 8 10
f 9 10 11
f 11 10 12
f 11 12 13
f 13 12 14
f 13 14 15
f 15 14 16
f 15 16 2
f 2 16 3
f 3 16 17
f 3 17 18
f 3 18 4
f 4 18 19
f 4 19 6
f 6 19 20
f 6 20 8
f 8 20 21
f 8 21 10
f 10 21 22
f 10 22 12
f 12 22 23
f 12 23 14
f 14 23 24
f 14 24 16
f 16 24 17
f 17 24 25
f 17 25 26
f 17 26 18
f 18 26 27
f 18 27 19
f 19 27 28
f 19 28 20
f 20 28 29
f 20 29 21
f 21 29 30
f 21 30 22
f 22 30 31
f 22 31 23
f 23 31 32
f 23 32 24
f 24 32 25
f 25 32 33
f 25 33 26
f 26 33 34
f 26 34 35
f 26 35 36
f 26 36 27
f 27 36 37
f 27 37 28
f 28 37 29
f 29 37 38
f 29 38 39
f 29 39 30
f 30 39 31
f 31 39 40
f 31 40 41
f 31 41 32
f 32 41 33
f 33 41 42
f 33 42 34
f 34 42 43
f 34 43 35
f 35 43 44
f 35 44 45
f 35 45 36
f 36 45 37
f 37 45 46
f 37 46 47
f 37 47 38
f 38 47 48
f 38 48 39
f 39 48 49
f 39 49 50
f 39 50 40
f 40 50 41
f 41 50 51
f 41 51 42
f 42 51 52
f 42 52 53
f 42 53 43
f 43 53 54
f 43 54 55
f 43 55 56
f 43 56 44
f 44 56 57
f 44 57 58
f 44 58 59
f 44 59 45
f 45 59 60
f 45 60 46
f 46 60 61
f 46 61 47
f 47 61 48
f 48 61 62
f 48 62 63
f 48 63 64
f 48 64 49
f 49 64 65
f 49 65 50
f 50 65 66
f 50 66 52
f 50 52 51
f 58 57 61
f 58 61 59
f 59 61 60
f 63 62 67
f 63 67 68
f 63 68 64
f 64 68 69
f 64 69 65
f 65 69 70
f 65 70 71
f 65 71 66
f 66 71 72
f 66 72 52
f 52 72 54
f 52 54 53
f 73 57 56
f 73 56 74
f 73 74 67
f 73 67 61
f 73 61 57
f 67 74 75
f 67 75 76
f 67 76 68
f 68 76 77
f 68 77 69
f 69 77 70
f 70 77 78
f 70 78 71
f 71 78 79
f 71 79 80
f 71 80 81
f 71 81 72
f 72 81 82
f 72 82 83
f 72 83 54
f 54 83 84
f 54 84 55
f 55 84 85
f 55 85 86
f 55 86 87
f 55 87 56
f 56 87 74
f 74 87 88
f 74 88 75
f 75 88 89
f 75 89 76
f 76 89 90
f 76 90 91
f 76 91 77
f 77 91 78
f 78 91 92
f 78 92 79
f 79 92 93
f 79 93 94
f 79 94 95
f 79 95 80
f 80 95 82
f 80 82 81
f 87 96 88
f 88 96 97
f 88 97 89
f 89 97 98
f 89 98 90
f 90 98 99
f 90 99 100
f 90 100 101
f 90 101 102
f 90 102 91
f 91 102 92
f 92 102 103
f 92 103 104
f 92 104 93
f 93 104 105
f 93 105 106
f 93 106 94
f 94 106 107
f 94 107 108
f 94 108 95
f 95 108 85
f 95 85 84
f 95 84 82
f 82 84 83
f 97 96 109
f 97 109 110
f 97 110 98
f 98 110 111
f 98 111 99
f 99 111 100
f 100 111 112
f 100 112 101
f 101 112 102
f 102 112 103
f 103 112 113
f 103 113 104
f 104 113 105
f 105 113 114
f 105 114 115
f 105 115 116
f 105 116 106
f 106 116 117
f 106 117 107
f 107 117 118
f 107 118 119
f 107 119 120
f 107 120 108
f 108 120 121
f 108 121 86
f 108 86 85
f 96 87 86
f 96 86 121
f 96 121 120
f 96 120 122
f 96 122 123
f 96 123 109
f 109 123 110
f 110 123 122
f 110 122 120
f 110 120 119
f 110 119 124
f 124 119 125
f 124 125 112
f 112 125 113
f 114 118 115
f 115 118 117
f 115 117 116
f 62 61 67
