# RS2 Model 26433
# Vertices: 138
# Faces: 274

v 0 -10 183
v 4 -9 184
v 1 -9 186
v 0 -9 188
v -1 -9 186
v -4 -9 184
v -2 -8 182
v 0 -9 182
v 2 -8 182
v 5 -7 183
v 7 -6 184
v 6 -6 187
v 4 -8 187
v 4 -7 189
v 4 -5 192
v 0 -7 192
v -4 -5 192
v -4 -7 189
v -4 -8 187
v -6 -6 187
v -7 -6 184
v -5 -7 183
v -5 -7 180
v -2 -8 180
v -1 -9 178
v 0 -12 177
v 1 -9 178
v 2 -8 180
v 5 -7 180
v 7 -5 182
v 8 -1 183
v 8 -4 185
v 6 -5 189
v 7 -4 177
v 5 -7 178
v 3 -8 177
v 5 -7 177
v 3 -8 173
v 5 -2 172
v 7 -1 176
v 8 -1 179
v 9 0 183
v 8 -1 190
v 0 -3 169
v 0 0 163
v 4 5 166
v 2 0 170
v 2 -6 169
v 0 -10 169
v -2 -6 169
v -2 0 170
v -4 5 166
v 6 0 170
v 9 3 171
v 7 4 176
v 7 1 164
v 11 4 166
v 11 8 164
v 8 8 169
v 9 7 175
v 8 6 179
v 10 6 179
v 9 4 176
v 7 2 176
v 0 -10 173
v -3 -8 173
v -5 -2 172
v -7 4 176
v -6 0 170
v -7 1 164
v -13 4 163
v -11 8 164
v -8 13 163
v 0 10 167
v 0 18 161
v 8 13 163
v 13 4 163
v 0 -10 175
v 2 -9 176
v -2 -9 176
v -5 -7 177
v -7 -4 177
v -7 -1 176
v -7 1 176
v 7 1 176
v 9 4 179
v 8 2 179
v 10 6 181
v 10 4 182
v 9 2 181
v 5 6 194
v 9 6 188
v 6 12 190
v 0 7 196
v 0 0 195
v 4 -1 193
v -4 -1 193
v -8 -1 190
v -6 -5 189
v 9 4 182
v 9 6 181
v 9 9 181
v 6 14 182
v 0 14 190
v -6 12 190
v -5 6 194
v -9 6 188
v -9 0 183
v -8 -4 185
v -8 -1 183
v -7 -5 182
v -5 -7 178
v -3 -8 177
v 7 12 175
v 0 15 183
v -6 14 182
v 7 12 169
v 0 14 174
v 0 15 169
v -7 12 169
v -7 12 175
v -8 -1 179
v -8 2 179
v -7 2 176
v -9 4 176
v -10 6 179
v -8 6 179
v -9 7 175
v -9 3 171
v -11 4 166
v -8 8 169
v -9 4 179
v -9 2 181
v -10 4 182
v -10 6 181
v -9 4 182
v -9 6 181
v -9 9 181

f 1 2 3
f 1 3 4
f 1 4 5
f 1 5 6
f 1 6 7
f 1 7 8
f 1 8 9
f 1 9 2
f 2 9 10
f 2 10 11
f 2 11 12
f 2 12 13
f 2 13 3
f 3 13 4
f 4 13 14
f 4 14 15
f 4 15 16
f 4 16 17
f 4 17 18
f 4 18 19
f 4 19 5
f 5 19 6
f 6 19 20
f 6 20 21
f 6 21 22
f 6 22 7
f 7 22 23
f 7 23 24
f 7 24 8
f 8 24 25
f 8 25 26
f 8 26 27
f 8 27 28
f 8 28 9
f 9 28 29
f 9 29 10
f 10 29 30
f 10 30 11
f 11 30 31
f 11 31 32
f 11 32 12
f 12 32 33
f 12 33 14
f 12 14 13
f 34 31 30
f 34 30 29
f 34 29 35
f 34 35 36
f 34 36 37
f 34 37 38
f 34 38 39
f 34 39 40
f 34 40 41
f 34 41 31
f 31 41 42
f 31 42 32
f 32 42 43
f 32 43 33
f 33 43 15
f 33 15 14
f 44 45 46
f 44 46 47
f 44 47 48
f 44 48 49
f 44 49 50
f 44 50 51
f 44 51 52
f 44 52 45
f 53 54 55
f 53 55 47
f 53 47 56
f 53 56 57
f 53 57 54
f 54 57 58
f 54 58 59
f 54 59 60
f 54 60 55
f 55 60 61
f 55 61 62
f 55 62 63
f 55 63 64
f 55 64 39
f 55 39 47
f 47 39 48
f 48 39 38
f 48 38 49
f 49 38 65
f 49 65 66
f 49 66 50
f 50 66 67
f 50 67 51
f 51 67 68
f 51 68 69
f 51 69 70
f 51 70 52
f 52 70 71
f 52 71 72
f 52 72 73
f 52 73 74
f 74 73 75
f 74 75 76
f 74 76 46
f 46 76 58
f 46 58 77
f 46 77 56
f 46 56 47
f 26 78 79
f 26 79 27
f 27 79 36
f 27 36 28
f 28 36 35
f 28 35 29
f 65 79 78
f 65 78 80
f 65 80 66
f 66 80 81
f 66 81 82
f 66 82 67
f 67 82 83
f 67 83 84
f 67 84 67
f 67 67 82
f 79 65 38
f 79 38 37
f 79 37 36
f 39 85 39
f 39 39 34
f 86 87 64
f 86 64 63
f 86 63 62
f 86 62 88
f 86 88 89
f 86 89 90
f 86 90 87
f 87 90 42
f 87 42 41
f 87 41 40
f 87 40 85
f 87 85 64
f 64 85 39
f 39 85 40
f 91 43 92
f 91 92 93
f 91 93 94
f 91 94 95
f 91 95 96
f 91 96 43
f 43 96 15
f 15 96 16
f 16 96 95
f 16 95 97
f 16 97 17
f 17 97 98
f 17 98 99
f 17 99 18
f 18 99 20
f 18 20 19
f 90 89 100
f 90 100 42
f 42 100 92
f 42 92 43
f 89 88 101
f 89 101 100
f 100 101 92
f 92 101 102
f 92 102 103
f 92 103 93
f 93 103 104
f 93 104 94
f 94 104 105
f 94 105 106
f 94 106 95
f 95 106 97
f 97 106 98
f 98 106 107
f 98 107 108
f 98 108 109
f 98 109 99
f 99 109 20
f 20 109 21
f 21 109 110
f 21 110 111
f 21 111 22
f 22 111 23
f 23 111 82
f 23 82 112
f 23 112 24
f 24 112 113
f 24 113 25
f 25 113 80
f 25 80 26
f 26 80 78
f 88 62 61
f 88 61 101
f 101 61 102
f 102 61 60
f 102 60 103
f 103 60 114
f 103 114 115
f 103 115 104
f 104 115 116
f 104 116 105
f 105 116 107
f 105 107 106
f 75 117 76
f 76 117 59
f 76 59 58
f 117 118 114
f 117 114 60
f 117 60 59
f 119 118 117
f 119 117 75
f 119 75 120
f 119 120 118
f 118 120 121
f 118 121 115
f 118 115 114
f 56 77 57
f 57 77 58
f 82 111 110
f 82 110 122
f 82 122 83
f 83 122 123
f 83 123 84
f 84 123 124
f 84 124 67
f 67 124 68
f 68 124 125
f 68 125 126
f 68 126 127
f 68 127 128
f 68 128 129
f 68 129 69
f 69 129 130
f 69 130 70
f 70 130 71
f 71 130 72
f 72 130 129
f 72 129 131
f 72 131 73
f 73 131 120
f 73 120 75
f 132 124 123
f 132 123 133
f 132 133 134
f 132 134 135
f 132 135 126
f 132 126 125
f 132 125 124
f 133 136 134
f 134 136 137
f 134 137 135
f 135 137 127
f 135 127 126
f 107 136 108
f 108 136 133
f 108 133 123
f 108 123 122
f 108 122 110
f 108 110 109
f 107 137 136
f 137 107 138
f 137 138 127
f 127 138 128
f 128 138 116
f 128 116 121
f 128 121 120
f 128 120 131
f 128 131 129
f 116 115 121
f 138 107 116
f 113 82 81
f 113 81 80
f 82 113 112
