# RS2 Model 26447
# Vertices: 97
# Faces: 165

v 12 -56 11
v 15 -61 8
v 28 9 14
v 20 -15 13
v 13 -42 11
v -1 -46 13
v -6 -55 14
v -25 -52 14
v -23 -50 14
v -40 -50 8
v -36 -46 7
v -32 -28 9
v -25 5 11
v -29 11 9
v -18 39 14
v -20 45 11
v -4 36 20
v 6 39 20
v 12 33 20
v 12 39 19
v 18 34 18
v 34 33 15
v 28 28 16
v 30 14 13
v 19 -8 13
v 19 -15 13
v 13 -36 12
v 6 -41 13
v 0 -43 14
v -13 -48 16
v -13 -44 16
v -23 -41 15
v -31 -37 11
v -28 -24 12
v -28 -17 11
v -24 -8 13
v -10 8 20
v -13 14 19
v -16 24 15
v 0 30 20
v 10 27 21
v 6 3 20
v 18 13 17
v 21 7 14
v 14 -12 15
v 2 -26 15
v 3 -27 15
v 5 -25 15
v 5 -29 14
v 7 -31 13
v -3 -41 14
v -4 -38 15
v -6 -37 16
v -9 -37 17
v -12 -38 17
v -20 -42 17
v -21 -32 16
v -23 -31 13
v -25 -22 14
v -17 -25 16
v -12 -21 16
v -4 7 19
v 2 17 20
v 1 5 19
v -4 -12 18
v 3 0 18
v 6 1 17
v -1 -14 18
v 9 -8 15
v 10 -11 15
v 7 -16 15
v 1 -23 16
v -5 -30 16
v 27 5 12
v 26 6 11
v 27 6 10
v 28 7 13
v 28 5 11
v -9 -19 18
v -11 -24 15
v -5 -16 16
v 1 -8 17
v -18 -32 18
v -11 -27 17
v -6 -23 18
v -10 -34 16
v -12 -35 16
v -12 -33 17
v 0 -21 17
v -5 -27 16
v -8 -30 17
v 15 -12 12
v -1 -1 16
v -1 -38 12
v 35 29 18
v -20 40 15
v 16 -66 14

f 1 2 3
f 1 3 4
f 1 4 5
f 1 5 6
f 1 6 7
f 1 7 2
f 2 7 8
f 8 7 9
f 8 9 10
f 10 9 11
f 10 11 12
f 10 12 13
f 10 13 14
f 14 13 15
f 14 15 16
f 16 15 17
f 16 17 18
f 18 17 19
f 18 19 20
f 20 19 21
f 21 19 22
f 22 19 23
f 22 23 3
f 22 3 24
f 23 4 3
f 4 23 25
f 4 25 26
f 4 26 27
f 4 27 5
f 5 27 28
f 5 28 6
f 6 28 29
f 6 29 30
f 6 30 7
f 7 30 31
f 7 31 9
f 9 31 32
f 9 32 11
f 11 32 33
f 11 33 12
f 12 33 34
f 12 34 35
f 12 35 13
f 13 35 36
f 13 36 37
f 13 37 38
f 13 38 39
f 13 39 15
f 15 39 17
f 17 39 38
f 17 38 40
f 17 40 19
f 19 40 41
f 19 41 42
f 19 42 23
f 23 42 43
f 23 43 44
f 23 44 25
f 25 44 45
f 25 45 46
f 25 46 47
f 25 47 48
f 25 48 26
f 26 48 49
f 26 49 50
f 26 50 27
f 27 50 28
f 28 50 29
f 29 50 49
f 29 49 51
f 29 51 30
f 30 51 52
f 30 52 31
f 31 52 53
f 31 53 54
f 31 54 55
f 31 55 56
f 31 56 32
f 32 56 57
f 32 57 58
f 32 58 33
f 33 58 34
f 34 58 59
f 34 59 35
f 35 59 36
f 36 59 37
f 37 59 60
f 37 60 61
f 37 61 62
f 37 62 63
f 37 63 38
f 38 63 40
f 40 63 41
f 41 63 42
f 42 63 64
f 42 64 65
f 42 65 66
f 42 66 43
f 43 66 67
f 43 67 68
f 43 68 69
f 43 69 44
f 44 69 70
f 44 70 45
f 45 70 71
f 45 71 46
f 46 71 72
f 46 72 73
f 46 73 54
f 46 54 53
f 46 53 47
f 47 53 52
f 47 52 48
f 48 52 51
f 48 51 49
f 3 2 74
f 3 74 75
f 75 74 76
f 76 74 77
f 76 77 78
f 74 2 77
f 64 63 62
f 64 62 65
f 65 62 79
f 65 79 80
f 65 80 81
f 65 81 82
f 65 82 67
f 65 67 66
f 61 60 79
f 61 79 62
f 60 59 58
f 60 58 57
f 60 57 83
f 60 83 79
f 79 83 80
f 80 83 84
f 80 84 81
f 81 84 85
f 81 85 82
f 82 85 68
f 82 68 67
f 54 73 86
f 54 86 87
f 54 87 55
f 55 87 56
f 56 87 88
f 56 88 83
f 56 83 57
f 89 69 68
f 89 68 90
f 89 90 73
f 89 73 72
f 89 72 71
f 89 71 69
f 69 71 70
f 85 91 90
f 85 90 68
f 83 88 84
f 84 88 85
f 85 88 91
f 91 88 86
f 91 86 90
f 90 86 73
f 86 88 87
