# RS2 Model 26489
# Vertices: 404
# Faces: 288

v 20 74 333
v 31 81 332
v 9 80 330
v 16 98 331
v 33 96 320
v 6 90 332
v 26 105 325
v 35 109 321
v 16 108 322
v 22 123 314
v 35 116 304
v 14 117 320
v 11 43 325
v 23 51 330
v -1 51 323
v 6 71 335
v 28 74 328
v 11 -7 104
v 27 -6 133
v 11 -6 133
v -1 -7 104
v 5 -13 1
v 37 -13 1
v 11 14 104
v 27 13 133
v 11 9 208
v 11 -1 208
v -1 -1 202
v 11 13 133
v -1 14 104
v 5 21 1
v -14 0 265
v -21 0 260
v -1 9 202
v 37 21 1
v -14 5 304
v -21 6 260
v -14 6 265
v 11 5 208
v 11 0 208
v 21 0 242
v 21 5 242
v 43 0 264
v 43 3 264
v 76 3 282
v 76 0 282
v 112 3 280
v 112 0 280
v 124 2 269
v 124 3 269
v -15 6 286
v -14 2 286
v -7 9 320
v -9 13 320
v 8 24 342
v 6 27 342
v 29 50 360
v 31 48 360
v 55 76 358
v 57 73 358
v 66 82 347
v 65 83 347
v -17 2 257
v -15 5 257
v -23 11 291
v -26 9 291
v -40 26 313
v -42 23 313
v -69 42 331
v -67 45 331
v -98 64 329
v -96 67 329
v -107 72 318
v -108 71 318
v 1 7 179
v 3 9 179
v -3 17 214
v -6 14 214
v -16 34 235
v -18 32 235
v -40 56 253
v -38 58 253
v -64 83 251
v -62 85 251
v -72 93 240
v -72 92 240
v -14 2 257
v -17 5 257
v -21 -4 291
v -17 -6 291
v -29 -25 313
v -26 -26 313
v -37 -57 331
v -40 -57 331
v -49 -91 329
v -52 -91 329
v -54 -103 318
v -53 -103 318
v -17 6 257
v -14 5 257
v -12 13 291
v -15 14 291
v -6 34 313
v -9 35 313
v 1 66 331
v 4 66 331
v 11 101 329
v 14 101 329
v 16 113 318
v 15 113 318
v -19 2 257
v -19 6 257
v -28 5 291
v -28 0 291
v -50 0 313
v -49 -3 313
v -81 -11 331
v -82 -8 331
v -116 -20 329
v -117 -17 329
v -128 -22 318
v -128 -23 318
v 8 6 188
v 5 5 188
v 8 -4 222
v 13 -1 222
v 21 -22 244
v 24 -21 244
v 42 -48 262
v 40 -50 262
v 62 -78 260
v 60 -80 260
v 68 -89 249
v 69 -88 249
v -124 2 320
v -97 -11 330
v -108 7 332
v -98 1 333
v -116 -15 331
v -104 -19 332
v -141 -6 304
v -125 -19 322
v -135 -4 321
v -127 -9 325
v -140 -22 314
v -131 -26 320
v -125 -38 313
v -112 -19 327
v -130 -24 323
v -123 -17 327
v -116 -37 327
v -109 -28 331
v -103 -36 323
v -85 -12 330
v -104 -18 333
v -95 -10 333
v -86 -33 333
v -79 -23 333
v -74 -30 319
v -52 -3 315
v -73 -9 327
v -61 0 322
v -52 -25 320
v -44 -14 315
v -102 9 328
v -67 -4 323
v -79 15 330
v -67 9 325
v -88 -9 335
v -74 -13 331
v -72 -86 320
v -46 -71 330
v -67 -70 332
v -57 -65 333
v -53 -89 331
v -43 -81 332
v -75 -104 304
v -55 -98 322
v -73 -98 321
v -65 -94 325
v -61 -113 314
v -53 -107 320
v -39 -109 313
v -48 -88 327
v -54 -105 323
v -56 -96 327
v -35 -101 327
v -39 -90 331
v -29 -90 323
v -39 -61 330
v -44 -80 333
v -46 -68 333
v -22 -74 333
v -26 -62 333
v -18 -62 319
v -28 -29 315
v -35 -50 327
v -35 -35 322
v -10 -41 320
v -14 -28 315
v -66 -64 328
v -35 -42 323
v -58 -41 330
v -46 -35 325
v -43 -62 335
v -32 -53 331
v -86 84 320
v -79 55 330
v -72 75 332
v -70 63 333
v -94 67 331
v -89 55 332
v -103 92 304
v -103 71 322
v -97 89 321
v -96 79 325
v -115 81 314
v -112 72 320
v -117 59 313
v -94 61 327
v -110 72 323
v -100 71 327
v -111 53 327
v -100 53 331
v -102 44 323
v -72 45 330
v -89 56 333
v -77 54 333
v -89 32 333
v -77 33 333
v -79 25 319
v -44 25 315
v -62 38 327
v -47 34 322
v -61 11 320
v -47 12 315
v -66 71 328
v -54 36 323
v -47 57 330
v -44 44 325
v -72 49 335
v -66 36 331
v -1 118 313
v 10 97 327
v 15 115 323
v 17 105 327
v -4 109 327
v 0 99 331
v -10 98 323
v 2 70 330
v 7 90 333
v 8 78 333
v -16 82 333
v -11 71 333
v -19 71 319
v -7 38 315
v -2 59 327
v 0 44 322
v -27 49 320
v -21 37 315
v -49 100 242
v -47 70 252
v -37 89 254
v -37 77 255
v -60 86 253
v -58 73 254
v -64 111 226
v -67 91 244
v -59 107 243
v -60 98 247
v -77 103 236
v -77 94 242
v -85 82 235
v -62 80 249
v -75 93 245
v -65 90 249
v -80 75 249
v -68 73 253
v -72 64 245
v -43 59 252
v -57 73 255
v -46 69 255
v -62 50 255
v -50 49 255
v -54 41 241
v -19 35 237
v -35 50 249
v -21 44 244
v -39 24 242
v -26 22 237
v -32 84 250
v -28 47 245
v -16 66 252
v -16 53 247
v -41 63 257
v -39 49 253
v 114 -20 271
v 91 -1 281
v 98 -21 283
v 111 -2 282
v 100 5 283
v 133 -16 255
v 120 0 273
v 126 -17 272
v 120 -10 276
v 136 -1 265
v 125 19 264
v 108 3 278
v 127 4 274
v 118 -1 278
v 116 20 278
v 107 13 282
v 89 -1 284
v 100 4 284
v 80 3 281
v 86 23 284
v 103 22 274
v 77 15 284
v 74 23 270
v 46 2 266
v 68 3 278
v 54 -3 273
v 51 24 271
v 41 15 266
v 57 -13 276
v 67 -22 281
v 61 0 274
v 82 -1 286
v 91 -21 279
v 70 7 282
v 56 -92 256
v 53 -101 252
v 64 -86 253
v 72 -100 245
v 58 -106 235
v 73 -90 251
v 83 -80 244
v 60 -75 258
v 71 -90 254
v 62 -85 258
v 78 -72 258
v 68 -68 262
v 73 -60 254
v 44 -51 261
v 56 -68 264
v 46 -61 264
v 64 -45 264
v 53 -42 264
v 58 -35 250
v 25 -24 246
v 38 -41 258
v 46 -16 251
v 47 -63 261
v 57 -80 262
v 57 -67 263
v 44 -92 251
v 34 -80 263
v 36 -68 264
v 42 -55 266
v 31 -37 254
v 30 -74 259
v 16 -55 261
v 42 -41 262
v 30 81 361
v 39 61 359
v 42 90 349
v 52 76 360
v 50 64 361
v 29 68 362
v 61 80 351
v 52 98 350
v 54 88 354
v 59 101 333
v 71 93 343
v 70 83 349
v 54 70 356
v 67 83 352
v 57 80 356
v 77 71 342
v 71 64 356
v 61 62 360
v 49 64 362
v 34 50 359
v 64 53 352
v 38 59 362
v 41 40 362
v 53 40 362
v 10 28 344
v 26 41 356
v 12 36 351
v 44 32 348
v 29 15 349
v 7 60 359
v 19 39 352
v 25 75 357
v 33 55 364
v 31 40 360
v 6 46 354
v -151 122 292
v -134 -107 294
v 122 142 303
v -15 -20 311
v -39 -29 313
v -3 -49 322

f 1 2 3
f 4 3 5
f 3 4 6
f 7 8 9
f 10 9 11
f 9 10 12
f 13 14 15
f 16 15 17
f 18 19 20
f 18 20 21
f 18 21 22
f 18 22 23
f 18 23 24
f 18 24 25
f 18 25 19
f 19 25 26
f 19 26 27
f 19 27 20
f 20 27 28
f 20 28 29
f 20 29 30
f 20 30 21
f 21 30 31
f 21 31 22
f 27 32 33
f 27 33 28
f 28 33 34
f 28 34 29
f 29 34 25
f 29 25 30
f 30 25 24
f 30 24 35
f 30 35 31
f 32 36 33
f 33 36 37
f 33 37 34
f 34 37 38
f 34 38 26
f 34 26 25
f 37 36 38
f 38 36 32
f 38 32 27
f 38 27 26
f 23 35 24
f 39 40 41
f 39 41 42
f 42 41 43
f 42 43 44
f 44 43 45
f 45 43 46
f 45 46 47
f 47 46 48
f 47 48 49
f 47 49 50
f 51 52 53
f 51 53 54
f 54 53 55
f 54 55 56
f 56 55 57
f 57 55 58
f 57 58 59
f 59 58 60
f 59 60 61
f 59 61 62
f 63 64 65
f 63 65 66
f 66 65 67
f 66 67 68
f 68 67 69
f 69 67 70
f 69 70 71
f 71 70 72
f 71 72 73
f 71 73 74
f 75 76 77
f 75 77 78
f 78 77 79
f 78 79 80
f 80 79 81
f 81 79 82
f 81 82 83
f 83 82 84
f 83 84 85
f 83 85 86
f 87 88 89
f 87 89 90
f 90 89 91
f 90 91 92
f 92 91 93
f 93 91 94
f 93 94 95
f 95 94 96
f 95 96 97
f 95 97 98
f 99 100 101
f 99 101 102
f 102 101 103
f 102 103 104
f 104 103 105
f 105 103 106
f 105 106 107
f 107 106 108
f 107 108 109
f 107 109 110
f 111 112 113
f 111 113 114
f 114 113 115
f 114 115 116
f 116 115 117
f 117 115 118
f 117 118 119
f 119 118 120
f 119 120 121
f 119 121 122
f 123 124 125
f 123 125 126
f 126 125 127
f 126 127 128
f 128 127 129
f 129 127 130
f 129 130 131
f 131 130 132
f 131 132 133
f 131 133 134
f 135 136 137
f 137 136 138
f 139 136 135
f 136 139 140
f 141 142 143
f 143 142 144
f 145 142 141
f 142 145 146
f 147 148 149
f 149 148 150
f 151 148 147
f 148 151 152
f 153 154 155
f 155 154 156
f 157 154 153
f 154 157 158
f 159 160 161
f 161 160 162
f 163 160 159
f 160 163 164
f 165 166 167
f 167 166 168
f 169 166 165
f 166 169 170
f 171 172 173
f 173 172 174
f 175 172 171
f 172 175 176
f 177 178 179
f 179 178 180
f 181 178 177
f 178 181 182
f 183 184 185
f 185 184 186
f 187 184 183
f 184 187 188
f 189 190 191
f 191 190 192
f 193 190 189
f 190 193 194
f 195 196 197
f 197 196 198
f 199 196 195
f 196 199 200
f 201 202 203
f 203 202 204
f 205 202 201
f 202 205 206
f 207 208 209
f 209 208 210
f 211 208 207
f 208 211 212
f 213 214 215
f 215 214 216
f 217 214 213
f 214 217 218
f 219 220 221
f 221 220 222
f 223 220 219
f 220 223 224
f 225 226 227
f 227 226 228
f 229 226 225
f 226 229 230
f 231 232 233
f 233 232 234
f 235 232 231
f 232 235 236
f 237 238 239
f 239 238 240
f 241 238 237
f 238 241 242
f 243 244 245
f 245 244 246
f 247 244 243
f 244 247 248
f 249 250 251
f 251 250 252
f 253 250 249
f 250 253 254
f 255 256 257
f 257 256 258
f 259 256 255
f 256 259 260
f 261 262 263
f 263 262 264
f 265 262 261
f 262 265 266
f 267 268 269
f 269 268 270
f 271 268 267
f 268 271 272
f 273 274 275
f 275 274 276
f 277 274 273
f 274 277 278
f 279 280 281
f 281 280 282
f 283 280 279
f 280 283 284
f 285 286 287
f 287 286 288
f 289 286 285
f 286 289 290
f 291 292 293
f 293 292 294
f 295 292 291
f 292 295 296
f 297 298 299
f 298 297 300
f 298 300 301
f 302 303 304
f 304 303 305
f 306 303 302
f 307 308 309
f 309 308 310
f 308 311 312
f 313 314 315
f 316 315 317
f 315 316 318
f 319 320 321
f 321 320 322
f 320 323 324
f 325 326 327
f 328 327 329
f 327 328 330
f 331 332 333
f 334 333 335
f 333 334 336
f 337 338 339
f 339 338 340
f 341 338 337
f 338 341 342
f 343 344 345
f 345 344 346
f 344 347 348
f 349 350 351
f 350 349 352
f 353 354 355
f 356 353 357
f 357 353 358
f 359 360 361
f 361 360 362
f 360 359 363
f 364 365 366
f 366 365 367
f 367 365 368
f 365 364 369
f 370 371 372
f 373 370 374
f 374 370 375
f 376 377 378
f 379 376 380
f 380 376 381
f 382 383 384
f 383 382 385
f 386 387 383
f 388 389 390
f 391 388 392
f 393 394 395
f 395 394 396
f 396 394 397
f 394 393 398
f 399 400 401
