# RS2 Model 26499
# Vertices: 184
# Faces: 340

v -33 33 330
v -30 36 321
v -35 37 321
v -38 32 321
v -34 28 321
v -29 31 321
v -29 39 293
v -39 41 289
v -44 32 289
v -36 24 291
v -27 29 293
v -30 30 263
v -32 39 263
v -40 40 260
v -45 32 258
v -38 25 260
v -38 17 212
v -22 26 206
v -25 45 208
v -43 48 214
v -52 31 215
v -51 33 169
v -38 20 166
v -23 28 162
v -26 45 162
v -43 48 167
v -43 52 112
v -55 29 114
v -36 10 127
v -13 23 132
v -17 49 123
v -16 49 92
v -40 54 84
v -52 32 75
v -34 14 75
v -12 25 86
v -8 25 46
v -13 56 44
v -44 61 36
v -59 33 33
v -36 10 38
v -5 20 0
v -11 55 0
v -46 61 0
v -62 30 0
v -36 4 0
v 30 32 256
v 33 29 248
v 34 34 248
v 29 37 248
v 25 33 248
v 28 28 248
v 36 28 226
v 38 38 224
v 29 43 224
v 21 35 225
v 26 26 226
v 27 29 204
v 36 31 204
v 37 39 201
v 29 44 199
v 22 37 201
v 14 37 163
v 23 21 160
v 42 24 161
v 45 42 164
v 28 51 167
v 30 50 131
v 17 37 128
v 25 22 125
v 42 25 125
v 45 42 129
v 49 42 86
v 26 54 88
v 7 35 98
v 20 12 102
v 46 16 94
v 46 15 71
v 51 39 65
v 29 51 57
v 11 33 57
v 22 11 66
v 22 7 35
v 53 12 33
v 58 43 28
v 30 58 24
v 7 35 29
v 17 4 0
v 52 10 0
v 58 45 0
v 27 61 0
v 1 35 0
v 33 -30 282
v 36 -27 274
v 31 -26 274
v 28 -31 274
v 32 -35 274
v 37 -32 274
v 37 -24 250
v 27 -22 247
v 22 -31 247
v 30 -39 248
v 39 -34 250
v 36 -33 224
v 34 -24 224
v 26 -23 222
v 21 -31 220
v 28 -38 222
v 28 -46 181
v 44 -37 176
v 41 -18 177
v 23 -15 182
v 14 -32 183
v 15 -30 144
v 28 -43 141
v 43 -35 138
v 40 -18 138
v 23 -15 142
v 23 -11 95
v 11 -34 97
v 30 -53 108
v 53 -40 112
v 49 -14 105
v 50 -14 78
v 26 -9 71
v 14 -31 64
v 32 -49 64
v 54 -38 73
v 58 -38 39
v 53 -7 37
v 22 -2 30
v 7 -30 28
v 30 -53 32
v 61 -43 0
v 55 -8 0
v 20 -2 0
v 4 -33 0
v 30 -59 0
v -29 -30 227
v -26 -27 221
v -31 -26 221
v -34 -31 221
v -30 -35 221
v -25 -32 221
v -25 -24 201
v -35 -22 199
v -40 -31 199
v -32 -39 200
v -23 -34 201
v -26 -33 180
v -28 -24 180
v -36 -23 179
v -41 -31 177
v -34 -38 179
v -34 -46 146
v -18 -37 142
v -21 -18 142
v -39 -15 146
v -48 -32 147
v -47 -30 116
v -34 -43 113
v -19 -35 111
v -22 -18 111
v -39 -15 114
v -39 -11 76
v -51 -34 78
v -32 -53 87
v -9 -40 90
v -13 -14 84
v -12 -14 62
v -36 -9 57
v -48 -31 51
v -30 -49 51
v -8 -38 58
v -4 -38 31
v -9 -7 29
v -40 -2 24
v -55 -30 22
v -32 -53 25
v -1 -43 0
v -7 -8 0
v -42 -2 0
v -58 -33 0
v -32 -59 0

f 1 2 3
f 1 3 4
f 1 4 5
f 1 5 6
f 1 6 2
f 2 6 7
f 2 7 8
f 2 8 3
f 3 8 9
f 3 9 4
f 4 9 10
f 4 10 5
f 5 10 11
f 5 11 6
f 6 11 7
f 7 11 12
f 7 12 13
f 7 13 8
f 8 13 14
f 8 14 9
f 9 14 15
f 9 15 10
f 10 15 16
f 10 16 11
f 11 16 12
f 12 16 17
f 12 17 18
f 12 18 13
f 13 18 19
f 13 19 14
f 14 19 20
f 14 20 15
f 15 20 21
f 15 21 16
f 16 21 17
f 17 21 22
f 17 22 23
f 17 23 18
f 18 23 24
f 18 24 19
f 19 24 25
f 19 25 20
f 20 25 26
f 20 26 21
f 21 26 22
f 22 26 27
f 22 27 28
f 22 28 23
f 23 28 29
f 23 29 24
f 24 29 30
f 24 30 25
f 25 30 31
f 25 31 26
f 26 31 27
f 27 31 32
f 27 32 33
f 27 33 28
f 28 33 34
f 28 34 29
f 29 34 35
f 29 35 30
f 30 35 36
f 30 36 31
f 31 36 32
f 32 36 37
f 32 37 38
f 32 38 33
f 33 38 39
f 33 39 34
f 34 39 40
f 34 40 35
f 35 40 41
f 35 41 36
f 36 41 37
f 37 41 42
f 37 42 43
f 37 43 38
f 38 43 44
f 38 44 39
f 39 44 45
f 39 45 40
f 40 45 46
f 40 46 41
f 41 46 42
f 47 48 49
f 47 49 50
f 47 50 51
f 47 51 52
f 47 52 48
f 48 52 53
f 48 53 54
f 48 54 49
f 49 54 55
f 49 55 50
f 50 55 56
f 50 56 51
f 51 56 57
f 51 57 52
f 52 57 53
f 53 57 58
f 53 58 59
f 53 59 54
f 54 59 60
f 54 60 55
f 55 60 61
f 55 61 56
f 56 61 62
f 56 62 57
f 57 62 58
f 58 62 63
f 58 63 64
f 58 64 59
f 59 64 65
f 59 65 60
f 60 65 66
f 60 66 61
f 61 66 67
f 61 67 62
f 62 67 63
f 63 67 68
f 63 68 69
f 63 69 64
f 64 69 70
f 64 70 65
f 65 70 71
f 65 71 66
f 66 71 72
f 66 72 67
f 67 72 68
f 68 72 73
f 68 73 74
f 68 74 69
f 69 74 75
f 69 75 70
f 70 75 76
f 70 76 71
f 71 76 77
f 71 77 72
f 72 77 73
f 73 77 78
f 73 78 79
f 73 79 74
f 74 79 80
f 74 80 75
f 75 80 81
f 75 81 76
f 76 81 82
f 76 82 77
f 77 82 78
f 78 82 83
f 78 83 84
f 78 84 79
f 79 84 85
f 79 85 80
f 80 85 86
f 80 86 81
f 81 86 87
f 81 87 82
f 82 87 83
f 83 87 88
f 83 88 89
f 83 89 84
f 84 89 90
f 84 90 85
f 85 90 91
f 85 91 86
f 86 91 92
f 86 92 87
f 87 92 88
f 93 94 95
f 93 95 96
f 93 96 97
f 93 97 98
f 93 98 94
f 94 98 99
f 94 99 100
f 94 100 95
f 95 100 101
f 95 101 96
f 96 101 102
f 96 102 97
f 97 102 103
f 97 103 98
f 98 103 99
f 99 103 104
f 99 104 105
f 99 105 100
f 100 105 106
f 100 106 101
f 101 106 107
f 101 107 102
f 102 107 108
f 102 108 103
f 103 108 104
f 104 108 109
f 104 109 110
f 104 110 105
f 105 110 111
f 105 111 106
f 106 111 112
f 106 112 107
f 107 112 113
f 107 113 108
f 108 113 109
f 109 113 114
f 109 114 115
f 109 115 110
f 110 115 116
f 110 116 111
f 111 116 117
f 111 117 112
f 112 117 118
f 112 118 113
f 113 118 114
f 114 118 119
f 114 119 120
f 114 120 115
f 115 120 121
f 115 121 116
f 116 121 122
f 116 122 117
f 117 122 123
f 117 123 118
f 118 123 119
f 119 123 124
f 119 124 125
f 119 125 120
f 120 125 126
f 120 126 121
f 121 126 127
f 121 127 122
f 122 127 128
f 122 128 123
f 123 128 124
f 124 128 129
f 124 129 130
f 124 130 125
f 125 130 131
f 125 131 126
f 126 131 132
f 126 132 127
f 127 132 133
f 127 133 128
f 128 133 129
f 129 133 134
f 129 134 135
f 129 135 130
f 130 135 136
f 130 136 131
f 131 136 137
f 131 137 132
f 132 137 138
f 132 138 133
f 133 138 134
f 139 140 141
f 139 141 142
f 139 142 143
f 139 143 144
f 139 144 140
f 140 144 145
f 140 145 146
f 140 146 141
f 141 146 147
f 141 147 142
f 142 147 148
f 142 148 143
f 143 148 149
f 143 149 144
f 144 149 145
f 145 149 150
f 145 150 151
f 145 151 146
f 146 151 152
f 146 152 147
f 147 152 153
f 147 153 148
f 148 153 154
f 148 154 149
f 149 154 150
f 150 154 155
f 150 155 156
f 150 156 151
f 151 156 157
f 151 157 152
f 152 157 158
f 152 158 153
f 153 158 159
f 153 159 154
f 154 159 155
f 155 159 160
f 155 160 161
f 155 161 156
f 156 161 162
f 156 162 157
f 157 162 163
f 157 163 158
f 158 163 164
f 158 164 159
f 159 164 160
f 160 164 165
f 160 165 166
f 160 166 161
f 161 166 167
f 161 167 162
f 162 167 168
f 162 168 163
f 163 168 169
f 163 169 164
f 164 169 165
f 165 169 170
f 165 170 171
f 165 171 166
f 166 171 172
f 166 172 167
f 167 172 173
f 167 173 168
f 168 173 174
f 168 174 169
f 169 174 170
f 170 174 175
f 170 175 176
f 170 176 171
f 171 176 177
f 171 177 172
f 172 177 178
f 172 178 173
f 173 178 179
f 173 179 174
f 174 179 175
f 175 179 180
f 175 180 181
f 175 181 176
f 176 181 182
f 176 182 177
f 177 182 183
f 177 183 178
f 178 183 184
f 178 184 179
f 179 184 180
