# RS2 Model 26539
# Vertices: 51
# Faces: 41

v -64 64 -56
v -64 64 -64
v 64 -64 -64
v 64 -64 -56
v -64 64 -48
v 64 -64 -48
v -64 64 -40
v 64 -64 -40
v -64 64 -32
v 64 -64 -32
v -64 64 -24
v 64 -64 -24
v -64 64 -16
v 64 -64 -16
v -64 64 -8
v 64 -64 -8
v -64 64 0
v 64 -64 0
v 64 64 0
v -64 64 -72
v 64 -64 -72
v -64 64 -88
v -64 64 -96
v 64 -64 -96
v 64 -64 -88
v -64 64 -80
v 64 -64 -80
v -64 64 -104
v -64 64 -112
v 64 -64 -112
v 64 -64 -104
v -64 64 -120
v -64 64 -128
v 64 -64 -128
v 64 -64 -120
v -64 64 -136
v -64 64 -144
v 64 -64 -144
v 64 -64 -136
v -64 64 -152
v 64 -64 -152
v -64 -64 -152
v -251 79 -152
v -252 -70 -152
v -103 80 -152
v -113 118 105
v -115 121 -256
v 115 -121 107
v -35 18 0
v 112 -64 0
v 77 222 0

f 1 2 3
f 1 3 4
f 1 4 5
f 5 4 6
f 5 6 7
f 7 6 8
f 7 8 9
f 9 8 10
f 9 10 11
f 11 10 12
f 11 12 13
f 13 12 14
f 13 14 15
f 15 14 16
f 15 16 17
f 17 16 18
f 17 18 19
f 2 20 21
f 2 21 3
f 22 23 24
f 22 24 25
f 22 25 26
f 26 25 27
f 26 27 20
f 20 27 21
f 28 29 30
f 28 30 31
f 28 31 23
f 23 31 24
f 32 33 34
f 32 34 35
f 32 35 29
f 29 35 30
f 36 37 38
f 36 38 39
f 36 39 33
f 33 39 34
f 37 40 41
f 37 41 38
f 40 42 41
f 43 44 45
