# RS2 Model 26537
# Vertices: 52
# Faces: 42

v 0 64 -56
v 0 64 -64
v -64 -64 -64
v -64 -64 -56
v 0 64 -48
v -64 -64 -48
v 0 64 -40
v -64 -64 -40
v 0 64 -32
v -64 -64 -32
v 0 64 -24
v -64 -64 -24
v 0 64 -16
v -64 -64 -16
v 0 64 -8
v -64 -64 -8
v 0 64 0
v -64 -64 0
v 64 -64 0
v 64 64 0
v 0 64 -72
v -64 -64 -72
v 0 64 -88
v 0 64 -96
v -64 -64 -96
v -64 -64 -88
v 0 64 -80
v -64 -64 -80
v 0 64 -104
v 0 64 -112
v -64 -64 -112
v -64 -64 -104
v 0 64 -120
v 0 64 -128
v -64 -64 -128
v -64 -64 -120
v 0 64 -136
v 0 64 -144
v -64 -64 -144
v -64 -64 -136
v 0 64 -152
v -64 -64 -152
v -64 64 -152
v 29 121 -209
v -94 -121 -207
v 32 121 47
v 169 64 0
v -59 176 0
v 59 -176 0
v -63 -104 -150
v 84 -105 -150
v -62 43 -152

f 1 2 3
f 1 3 4
f 1 4 5
f 5 4 6
f 5 6 7
f 7 6 8
f 7 8 9
f 9 8 10
f 9 10 11
f 11 10 12
f 11 12 13
f 13 12 14
f 13 14 15
f 15 14 16
f 15 16 17
f 17 16 18
f 17 18 19
f 17 19 20
f 2 21 22
f 2 22 3
f 23 24 25
f 23 25 26
f 23 26 27
f 27 26 28
f 27 28 21
f 21 28 22
f 29 30 31
f 29 31 32
f 29 32 24
f 24 32 25
f 33 34 35
f 33 35 36
f 33 36 30
f 30 36 31
f 37 38 39
f 37 39 40
f 37 40 34
f 34 40 35
f 38 41 42
f 38 42 39
f 43 42 41
f 44 45 46
