# RS2 Model 26591
# Vertices: 452
# Faces: 404

v 158 41 1
v 157 51 1
v 154 53 1
v 154 58 1
v 146 57 1
v 148 68 1
v 143 67 1
v 149 77 1
v 146 77 1
v 149 80 1
v 146 80 1
v 144 86 1
v 142 84 1
v 138 90 1
v 136 88 1
v 134 97 1
v 132 95 1
v 129 104 1
v 129 101 1
v 127 107 1
v 127 104 1
v 118 105 1
v 120 101 1
v 114 97 1
v 117 96 1
v 114 85 1
v 115 86 1
v 146 171 0
v 140 153 0
v 138 135 0
v 265 114 0
v 201 164 0
v 245 173 0
v 142 125 0
v 148 120 0
v 143 109 0
v 145 102 0
v 152 96 0
v 159 82 0
v 162 64 0
v 172 40 0
v 188 25 0
v 258 -4 0
v 181 14 0
v 172 1 0
v 170 -10 0
v 166 -26 0
v 166 -39 0
v 170 -54 0
v 178 -61 0
v 170 -75 0
v 266 -119 0
v 161 -85 0
v 169 -95 0
v 174 -112 0
v 172 -134 0
v 166 -147 0
v 169 -166 0
v 180 -179 0
v 186 -196 0
v 228 -200 0
v 269 -184 0
v 170 30 0
v 168 19 0
v 155 10 0
v 162 39 0
v 160 28 0
v 150 24 0
v 156 57 0
v 149 53 0
v 143 47 0
v 149 71 0
v 143 65 0
v 135 53 0
v 151 79 0
v 146 85 0
v 138 72 0
v 133 61 0
v 139 91 0
v 136 74 0
v 123 70 0
v 134 99 0
v 127 108 0
v 117 106 0
v 113 99 0
v 113 85 0
v 116 77 0
v -236 -204 0
v -229 -115 0
v -243 -170 0
v -236 -112 0
v -222 -121 0
v -218 -135 0
v -207 -138 0
v -199 -131 0
v -190 -123 0
v -174 -117 0
v -158 -123 0
v -144 -134 0
v -131 -140 0
v -119 -144 0
v -106 -154 0
v -175 -196 0
v -92 -205 0
v -31 -199 0
v 29 -205 0
v -88 -144 0
v -79 -132 0
v -70 -129 0
v -62 -122 0
v -50 -123 0
v -41 -131 0
v -32 -131 0
v -22 -138 0
v -6 -150 0
v 6 -154 0
v 13 -162 0
v 22 -166 0
v 30 -179 0
v 41 -186 0
v 54 -203 0
v 165 66 1
v 171 55 1
v 179 62 1
v 176 73 1
v 177 84 1
v 164 79 1
v 180 96 1
v 162 97 1
v 168 119 1
v 150 110 1
v 163 122 1
v 154 120 1
v 157 133 1
v 148 131 1
v 155 146 1
v 145 148 1
v 159 154 1
v 154 165 1
v 176 45 1
v 186 54 1
v 186 33 1
v 198 43 1
v 193 28 1
v 202 28 1
v 191 19 1
v 205 18 1
v 181 10 1
v 211 7 1
v 175 1 1
v 212 -1 1
v 172 -11 1
v 213 -16 1
v 173 -31 1
v 206 -34 1
v 182 -56 1
v 194 -48 1
v 172 -80 1
v 165 -85 1
v 170 -90 1
v 179 -88 1
v 182 -75 1
v 180 -65 1
v 173 -98 1
v 182 -94 1
v 175 -109 1
v 183 -103 1
v 175 -124 1
v 180 -114 1
v 169 30 1
v 170 26 1
v 181 22 1
v 182 25 1
v 164 36 1
v 163 34 1
v 161 39 1
v 217 -82 1
v 195 -93 1
v 191 -102 1
v 227 -101 1
v 190 -111 1
v 231 -119 1
v 194 -126 1
v 211 -126 1
v 210 -76 1
v 200 -79 1
v 184 -157 1
v 174 -166 1
v 180 -174 1
v 189 -165 1
v 186 -185 1
v 211 -180 1
v 188 -191 1
v 206 -194 1
v 230 -197 1
v 222 -182 1
v 213 -37 1
v 204 -45 1
v 202 -56 1
v 213 -65 1
v 244 -66 1
v 230 -30 1
v 255 -47 1
v 250 -33 1
v 197 88 1
v 189 81 1
v 185 72 1
v 200 72 1
v 210 73 1
v 210 92 1
v 222 69 1
v 232 88 1
v 230 64 1
v 245 75 1
v 232 57 1
v 243 62 1
v 234 49 1
v 246 49 1
v 242 44 1
v 253 42 1
v 199 99 1
v 200 113 1
v 214 99 1
v 215 113 1
v 233 94 1
v 234 108 1
v 247 82 1
v 258 87 1
v 249 71 1
v 260 76 1
v 247 62 1
v 258 67 1
v 252 49 1
v 259 64 1
v 190 93 0
v -82 -150 1
v -90 -157 1
v -37 -198 2
v -75 -140 1
v -67 -135 1
v -59 -128 1
v -50 -129 1
v -42 -137 1
v -31 -141 1
v -20 -149 1
v -15 -159 1
v -8 -179 1
v -4 -194 1
v 0 -201 1
v -100 -169 1
v -105 -187 1
v -101 -204 1
v -91 -205 1
v -68 -165 2
v -73 -171 2
v -65 -157 2
v -58 -151 2
v -52 -147 2
v -47 -148 2
v -37 -156 2
v -33 -161 2
v -26 -166 2
v -22 -173 2
v -17 -186 2
v -15 -196 2
v -12 -200 2
v -79 -179 2
v -82 -191 2
v -79 -203 2
v -72 -203 2
v -54 -162 3
v -53 -163 3
v -51 -156 3
v -52 -156 3
v -56 -164 3
v -53 -166 3
v -51 -168 3
v -51 -165 3
v -50 -169 3
v -50 -166 3
v -48 -162 3
v -49 -161 3
v -53 -173 3
v -51 -173 3
v -49 -172 3
v -50 -175 3
v -48 -174 3
v -48 -178 3
v -43 -175 3
v -47 -181 3
v -42 -177 3
v -46 -183 3
v -39 -178 3
v -46 -187 3
v -35 -179 3
v -47 -192 3
v -31 -183 3
v -45 -195 3
v -30 -186 3
v -29 -183 3
v -29 -181 3
v -26 -183 3
v -26 -182 3
v -27 -181 3
v -24 -180 3
v -24 -179 3
v -54 -175 3
v -56 -177 3
v -56 -180 3
v -58 -183 3
v -58 -187 3
v -59 -191 3
v -59 -198 3
v -55 -201 3
v -48 -199 3
v -43 -199 3
v -35 -198 3
v -32 -194 3
v -29 -192 3
v -23 -183 3
v -51 -183 4
v -48 -183 4
v -50 -182 4
v -52 -185 4
v -48 -187 4
v -50 -188 4
v -40 -189 4
v -39 -192 4
v -38 -191 4
v -38 -189 4
v -41 -188 4
v -42 -191 4
v -43 -189 4
v -104 -157 1
v -122 -150 1
v -128 -157 1
v -116 -159 1
v -132 -146 1
v -141 -153 1
v -149 -139 1
v -152 -151 1
v -156 -132 1
v -159 -145 1
v -174 -120 1
v -169 -139 1
v -190 -124 1
v -186 -139 1
v -207 -139 1
v -207 -152 1
v -220 -136 1
v -232 -142 1
v -224 -121 1
v -235 -116 1
v -235 -184 1
v -224 -184 1
v -226 -173 1
v -240 -174 1
v -220 -185 1
v -219 -171 1
v -209 -184 1
v -211 -167 1
v -198 -183 1
v -197 -163 1
v -190 -182 1
v -190 -170 1
v -178 -187 1
v -180 -178 1
v -166 -187 1
v -161 -181 1
v -155 -189 1
v -149 -187 1
v -139 -182 1
v -143 -175 1
v -172 -191 1
v -160 -191 1
v -13 -148 1
v -12 -153 1
v -5 -160 1
v 6 -155 1
v -3 -167 1
v 12 -163 1
v 5 -175 1
v 21 -170 1
v 17 -184 1
v 29 -180 1
v 27 -186 1
v 39 -185 1
v 245 139 1
v 238 130 1
v 259 127 1
v 256 139 1
v 233 159 1
v 220 151 1
v 218 168 1
v 207 164 1
v 168 137 1
v 172 139 1
v 170 143 1
v 165 142 1
v 179 127 1
v 183 129 1
v 181 133 1
v 176 132 1
v 182 144 1
v 186 146 1
v 184 150 1
v 179 149 1
v 171 156 1
v 175 158 1
v 173 162 1
v 168 161 1
v -171 -151 1
v -167 -149 1
v -169 -145 1
v -174 -146 1
v -146 -162 1
v -142 -160 1
v -144 -156 1
v -149 -157 1
v -217 -160 1
v -213 -158 1
v -215 -154 1
v -220 -155 1
v 184 -136 1
v 188 -134 1
v 186 -130 1
v 181 -131 1
v 193 -151 1
v 197 -149 1
v 195 -145 1
v 190 -146 1
v 175 -152 1
v 179 -150 1
v 177 -146 1
v 172 -147 1
v 210 -153 1
v 214 -151 1
v 212 -147 1
v 207 -148 1
v -180 -119 0
v -174 -119 0
v -180 -109 0
v -180 -103 0
v -204 -103 0
v -210 -109 0
v -204 -75 0
v -210 -75 0
v -174 -91 0
v -180 -91 0
v -47 84 1
v -46 -212 1
v 155 84 1

f 1 2 3
f 3 2 4
f 3 4 5
f 5 4 6
f 5 6 7
f 7 6 8
f 7 8 9
f 9 8 10
f 9 10 11
f 11 10 12
f 11 12 13
f 13 12 14
f 13 14 15
f 15 14 16
f 15 16 17
f 17 16 18
f 17 18 19
f 19 18 20
f 19 20 21
f 21 20 22
f 21 22 23
f 23 22 24
f 23 24 25
f 25 24 26
f 25 26 27
f 28 29 30
f 28 30 31
f 28 31 32
f 32 31 33
f 31 30 34
f 31 34 35
f 31 35 36
f 31 36 37
f 31 37 38
f 31 38 39
f 31 39 40
f 31 40 41
f 31 41 42
f 31 42 43
f 43 42 44
f 43 44 45
f 43 45 46
f 43 46 47
f 43 47 48
f 43 48 49
f 43 49 50
f 43 50 51
f 43 51 52
f 52 51 53
f 52 53 54
f 52 54 55
f 52 55 56
f 52 56 57
f 52 57 58
f 52 58 59
f 52 59 60
f 52 60 61
f 52 61 62
f 44 42 63
f 44 63 64
f 44 64 65
f 44 65 45
f 64 63 66
f 64 66 67
f 64 67 68
f 64 68 65
f 67 66 69
f 67 69 70
f 67 70 71
f 67 71 68
f 70 69 72
f 70 72 73
f 70 73 74
f 70 74 71
f 73 72 75
f 73 75 76
f 73 76 77
f 73 77 78
f 73 78 74
f 77 76 79
f 77 79 80
f 77 80 81
f 77 81 78
f 80 79 82
f 80 82 83
f 80 83 84
f 80 84 85
f 80 85 86
f 80 86 87
f 80 87 81
f 88 89 90
f 90 89 91
f 89 88 92
f 92 88 93
f 93 88 94
f 94 88 95
f 95 88 96
f 96 88 97
f 97 88 98
f 98 88 99
f 99 88 100
f 100 88 101
f 101 88 102
f 102 88 103
f 102 103 104
f 102 104 105
f 102 105 106
f 102 106 107
f 107 106 108
f 108 106 109
f 109 106 110
f 110 106 111
f 111 106 112
f 112 106 113
f 113 106 114
f 114 106 115
f 115 106 116
f 116 106 117
f 117 106 118
f 118 106 119
f 119 106 120
f 120 106 121
f 122 123 124
f 122 124 125
f 122 125 126
f 122 126 127
f 127 126 128
f 127 128 129
f 129 128 130
f 129 130 131
f 131 130 132
f 131 132 133
f 133 132 134
f 133 134 135
f 135 134 136
f 135 136 137
f 137 136 138
f 137 138 139
f 124 123 140
f 124 140 141
f 141 140 142
f 141 142 143
f 143 142 144
f 143 144 145
f 145 144 146
f 145 146 147
f 147 146 148
f 147 148 149
f 149 148 150
f 149 150 151
f 151 150 152
f 151 152 153
f 153 152 154
f 153 154 155
f 155 154 156
f 155 156 157
f 158 159 160
f 158 160 161
f 158 161 162
f 158 162 163
f 161 160 164
f 161 164 165
f 165 164 166
f 165 166 167
f 167 166 168
f 167 168 169
f 170 171 172
f 170 172 173
f 171 170 174
f 171 174 175
f 175 174 176
f 175 176 1
f 1 176 2
f 177 178 179
f 177 179 180
f 180 179 181
f 180 181 182
f 182 181 183
f 182 183 184
f 178 177 185
f 178 185 186
f 187 188 189
f 187 189 190
f 190 189 191
f 190 191 192
f 192 191 193
f 192 193 194
f 192 194 195
f 192 195 196
f 197 198 199
f 197 199 200
f 197 200 201
f 197 201 202
f 202 201 203
f 202 203 204
f 205 206 207
f 205 207 208
f 205 208 209
f 205 209 210
f 210 209 211
f 210 211 212
f 212 211 213
f 212 213 214
f 214 213 215
f 214 215 216
f 216 215 217
f 216 217 218
f 218 217 219
f 218 219 220
f 130 128 221
f 130 221 222
f 222 221 223
f 222 223 224
f 224 223 225
f 224 225 226
f 226 225 227
f 226 227 228
f 228 227 229
f 228 229 230
f 230 229 231
f 230 231 232
f 232 231 233
f 232 233 234
f 128 235 221
f 236 237 238
f 236 238 239
f 239 238 240
f 240 238 241
f 241 238 242
f 242 238 243
f 243 238 244
f 244 238 245
f 245 238 246
f 246 238 247
f 247 238 248
f 248 238 249
f 238 237 250
f 238 250 251
f 238 251 252
f 238 252 253
f 254 255 238
f 254 238 256
f 256 238 257
f 257 238 258
f 258 238 259
f 259 238 260
f 260 238 261
f 261 238 262
f 262 238 263
f 263 238 264
f 264 238 265
f 265 238 266
f 238 255 267
f 238 267 268
f 238 268 269
f 238 269 270
f 271 272 273
f 271 273 274
f 272 271 275
f 272 275 276
f 272 276 277
f 272 277 278
f 278 277 279
f 278 279 280
f 278 280 281
f 278 281 282
f 277 276 283
f 277 283 284
f 277 284 279
f 279 284 285
f 285 284 286
f 285 286 287
f 287 286 288
f 287 288 289
f 289 288 290
f 289 290 291
f 291 290 292
f 291 292 293
f 293 292 294
f 293 294 295
f 295 294 296
f 295 296 297
f 297 296 298
f 297 298 299
f 297 299 300
f 297 300 301
f 301 300 302
f 301 302 303
f 301 303 304
f 304 303 305
f 304 305 306
f 284 283 307
f 284 307 286
f 286 307 308
f 286 308 288
f 288 308 309
f 288 309 290
f 290 309 310
f 290 310 292
f 292 310 311
f 292 311 294
f 294 311 312
f 294 312 296
f 296 312 313
f 296 313 314
f 296 314 315
f 299 298 316
f 299 316 317
f 299 317 318
f 299 318 319
f 303 302 320
f 321 322 323
f 322 321 324
f 322 324 325
f 325 324 326
f 327 328 329
f 327 329 330
f 328 327 331
f 328 331 332
f 332 331 333
f 334 335 336
f 334 336 337
f 336 335 338
f 336 338 339
f 339 338 340
f 339 340 341
f 341 340 342
f 341 342 343
f 343 342 344
f 343 344 345
f 345 344 346
f 345 346 347
f 347 346 348
f 347 348 349
f 349 348 350
f 349 350 351
f 351 350 352
f 351 352 353
f 354 355 356
f 354 356 357
f 356 355 358
f 356 358 359
f 359 358 360
f 359 360 361
f 361 360 362
f 361 362 363
f 363 362 364
f 363 364 365
f 365 364 366
f 365 366 367
f 367 366 368
f 367 368 369
f 369 368 370
f 369 370 371
f 369 371 372
f 369 372 373
f 370 368 374
f 370 374 375
f 376 377 378
f 376 378 379
f 379 378 380
f 379 380 381
f 381 380 382
f 381 382 383
f 383 382 384
f 383 384 385
f 385 384 386
f 385 386 387
f 388 389 390
f 388 390 391
f 389 388 392
f 389 392 393
f 393 392 394
f 393 394 395
f 396 397 398
f 396 398 399
f 400 401 402
f 400 402 403
f 404 405 406
f 404 406 407
f 408 409 410
f 408 410 411
f 412 413 414
f 412 414 415
f 416 417 418
f 416 418 419
f 420 421 422
f 420 422 423
f 424 425 426
f 424 426 427
f 428 429 430
f 428 430 431
f 432 433 434
f 432 434 435
f 436 437 438
f 436 438 439
f 440 441 442
f 442 441 443
f 442 443 444
f 442 444 445
f 445 444 446
f 445 446 447
f 443 441 448
f 443 448 449
