# RS2 Model 2662
# Vertices: 33
# Faces: 66

v 11 35 2
v 14 35 2
v 4 -26 -1
v -3 -25 -1
v 11 35 6
v 14 35 6
v 12 44 7
v 12 44 1
v 16 43 1
v 16 43 7
v 4 -26 9
v 5 -31 9
v 5 -31 -1
v -5 -29 -1
v -3 -25 9
v -5 -29 9
v -6 -35 9
v 4 -37 9
v 4 -37 4
v 23 -32 4
v 22 -28 7
v 22 -28 1
v 4 -37 -1
v -6 -35 -1
v -6 -35 4
v -21 -20 4
v -18 -17 1
v -18 -17 7
v -30 -19 4
v -6 -40 7
v 1 -42 7
v 1 -42 1
v -6 -40 1

f 1 2 3
f 1 3 4
f 1 4 5
f 1 5 2
f 1 2 6
f 1 6 5
f 1 5 7
f 1 7 8
f 1 8 9
f 1 9 2
f 2 9 10
f 2 10 6
f 2 6 11
f 2 11 3
f 3 11 12
f 3 12 13
f 3 13 4
f 4 13 14
f 4 14 15
f 4 15 5
f 5 15 6
f 5 6 2
f 6 15 11
f 11 15 16
f 11 16 12
f 12 16 17
f 12 17 18
f 12 18 19
f 12 19 20
f 12 20 21
f 12 21 13
f 13 21 22
f 13 22 20
f 13 20 19
f 13 19 23
f 13 23 14
f 14 23 24
f 14 24 25
f 14 25 26
f 14 26 27
f 14 27 16
f 14 16 15
f 7 5 6
f 7 6 10
f 7 10 8
f 8 10 9
f 26 25 16
f 26 16 28
f 26 28 29
f 26 29 27
f 27 29 28
f 27 28 16
f 16 25 17
f 17 25 30
f 17 30 18
f 18 30 31
f 18 31 19
f 19 31 32
f 19 32 23
f 23 32 24
f 24 32 33
f 24 33 25
f 25 33 30
f 30 33 32
f 30 32 31
f 20 22 21
