# RS2 Model 26653
# Vertices: 98
# Faces: 184

v -32 -131 149
v -27 -100 135
v -30 -95 134
v -32 -98 139
v -34 -95 134
v -37 -100 135
v -34 -97 131
v -32 -102 129
v -30 -97 131
v -29 -79 125
v -29 -79 127
v -31 -79 127
v -32 -79 128
v -32 -94 134
v -33 -79 127
v -35 -79 127
v -35 -79 125
v -32 -97 130
v -32 -83 122
v -29 -82 123
v -29 -80 123
v -19 -79 124
v -19 -77 123
v -29 -75 123
v -29 -74 124
v -31 -74 124
v -32 -73 134
v -32 -75 135
v -35 -76 120
v -32 -77 119
v -35 -82 123
v -35 -80 123
v -35 -76 121
v -35 -65 114
v -32 -65 113
v -29 -65 114
v -29 -76 120
v -29 -76 121
v -32 -12 86
v -30 -12 87
v -29 -63 118
v -34 -11 90
v -34 -12 87
v -35 -63 118
v -32 -62 119
v -32 -10 91
v -32 -8 91
v -35 -9 90
v -35 -10 85
v -32 -10 84
v -30 -11 90
v -29 -10 85
v -29 -9 90
v -29 -7 84
v -29 -6 88
v -34 -6 88
v -34 -7 84
v -29 3 80
v -32 3 78
v -29 4 79
v -29 5 84
v -29 6 84
v -32 6 85
v -34 5 84
v -35 6 84
v -34 3 80
v -35 4 79
v -32 8 77
v -30 8 78
v -30 9 81
v -32 9 82
v -34 9 81
v -34 8 78
v -32 64 49
v -30 64 50
v -30 65 53
v -32 66 54
v -34 65 53
v -34 64 50
v -32 66 47
v -29 66 48
v -29 68 53
v -32 69 54
v -35 68 53
v -35 66 48
v -32 87 39
v -30 87 40
v -30 88 42
v -32 89 42
v -34 88 42
v -34 87 40
v -32 91 39
v -45 -77 123
v -45 -79 124
v -35 -75 123
v -35 -74 124
v -33 -74 124
v -32 -73 125

f 1 2 3
f 1 3 4
f 1 4 5
f 1 5 6
f 1 6 7
f 1 7 8
f 1 8 9
f 1 9 2
f 2 9 3
f 3 9 10
f 3 10 11
f 3 11 12
f 3 12 13
f 3 13 14
f 3 14 4
f 4 14 5
f 5 14 15
f 5 15 16
f 5 16 17
f 5 17 7
f 5 7 6
f 9 8 18
f 9 18 19
f 9 19 20
f 9 20 21
f 9 21 10
f 10 21 22
f 10 22 23
f 10 23 24
f 10 24 25
f 10 25 11
f 11 25 12
f 12 25 26
f 12 26 27
f 12 27 28
f 12 28 13
f 13 28 15
f 13 15 14
f 29 30 19
f 29 19 31
f 29 31 32
f 29 32 33
f 29 33 34
f 29 34 30
f 30 34 35
f 30 35 36
f 30 36 37
f 30 37 19
f 19 37 20
f 20 37 21
f 21 37 38
f 21 38 23
f 21 23 22
f 35 39 40
f 35 40 36
f 36 40 41
f 36 41 38
f 36 38 37
f 42 43 34
f 42 34 44
f 42 44 45
f 42 45 46
f 42 46 47
f 42 47 48
f 42 48 43
f 43 48 49
f 43 49 50
f 43 50 39
f 43 39 34
f 34 39 35
f 40 51 41
f 41 51 46
f 41 46 45
f 41 45 26
f 41 26 25
f 41 25 24
f 41 24 38
f 38 24 23
f 40 39 50
f 40 50 52
f 40 52 51
f 51 52 53
f 51 53 47
f 51 47 46
f 52 50 54
f 52 54 53
f 53 54 55
f 53 55 47
f 47 55 56
f 47 56 48
f 48 56 49
f 49 56 57
f 49 57 50
f 50 57 54
f 58 59 60
f 58 60 61
f 61 60 62
f 61 62 63
f 61 63 64
f 64 63 65
f 64 65 66
f 66 65 67
f 66 67 59
f 66 59 58
f 59 68 69
f 59 69 60
f 60 69 62
f 62 69 70
f 62 70 63
f 63 70 71
f 63 71 72
f 63 72 65
f 65 72 67
f 67 72 73
f 67 73 59
f 59 73 68
f 68 73 74
f 68 74 75
f 68 75 69
f 69 75 70
f 70 75 76
f 70 76 77
f 70 77 71
f 71 77 78
f 71 78 72
f 72 78 73
f 73 78 79
f 73 79 74
f 74 79 80
f 74 80 75
f 75 80 81
f 75 81 76
f 76 81 82
f 76 82 83
f 76 83 77
f 77 83 78
f 78 83 84
f 78 84 79
f 79 84 85
f 79 85 80
f 80 85 86
f 80 86 87
f 80 87 81
f 81 87 82
f 82 87 88
f 82 88 89
f 82 89 83
f 83 89 90
f 83 90 84
f 84 90 85
f 85 90 91
f 85 91 86
f 86 91 92
f 86 92 87
f 87 92 88
f 88 92 89
f 89 92 90
f 90 92 91
f 93 94 17
f 93 17 95
f 93 95 33
f 93 33 32
f 93 32 94
f 94 32 17
f 17 32 7
f 7 32 31
f 7 31 19
f 7 19 18
f 7 18 8
f 95 44 33
f 33 44 34
f 95 17 96
f 95 96 44
f 44 96 97
f 44 97 45
f 45 97 98
f 45 98 26
f 26 98 27
f 27 98 97
f 27 97 15
f 27 15 28
f 16 15 97
f 16 97 96
f 16 96 17
