# RS2 Model 26650
# Vertices: 62
# Faces: 109

v -46 -48 69
v -44 -55 68
v -46 -55 67
v -49 -48 66
v -46 -36 71
v -49 -51 73
v -46 -57 70
v -46 -61 69
v -44 -60 66
v -46 -59 65
v -48 -60 66
v -48 -55 68
v -52 -50 69
v -54 -36 72
v -50 -35 67
v -41 -21 76
v -50 -39 78
v -48 -67 68
v -45 -65 63
v -48 -64 61
v -51 -64 64
v -50 -78 66
v -46 -75 59
v -50 -74 55
v -54 -75 59
v -45 -92 60
v -42 -89 56
v -45 -89 53
v -47 -91 56
v -35 -109 56
v -32 -110 54
v -32 -108 50
v -34 -107 49
v -37 -107 52
v -38 -116 52
v -37 -117 50
v -29 -7 82
v -29 -7 87
v -43 -18 75
v -34 -7 82
v -44 -18 79
v -34 -7 87
v -43 -21 82
v -32 -9 86
v -37 -115 48
v -38 -114 47
v -39 -114 50
v -44 -121 47
v -37 14 91
v -31 10 88
v -34 10 88
v -34 9 89
v -33 9 90
v -31 10 89
v -29 5 88
v -29 5 85
v -34 5 85
v -34 5 88
v -32 5 89
v -35 -86 74
v -35 -78 47
v -35 -21 94

f 1 2 3
f 1 3 4
f 1 4 5
f 1 5 6
f 1 6 2
f 2 6 7
f 2 7 8
f 2 8 9
f 2 9 10
f 2 10 3
f 3 10 11
f 3 11 12
f 3 12 13
f 3 13 4
f 4 13 14
f 4 14 15
f 4 15 5
f 5 15 16
f 5 16 17
f 5 17 6
f 6 17 13
f 6 13 12
f 6 12 7
f 7 12 11
f 7 11 8
f 8 11 18
f 8 18 19
f 8 19 9
f 9 19 10
f 10 19 20
f 10 20 11
f 11 20 21
f 11 21 18
f 18 21 22
f 18 22 23
f 18 23 19
f 19 23 20
f 20 23 24
f 20 24 21
f 21 24 25
f 21 25 22
f 22 25 26
f 22 26 23
f 23 26 27
f 23 27 24
f 24 27 28
f 24 28 25
f 25 28 29
f 25 29 26
f 26 29 30
f 26 30 27
f 27 30 31
f 27 31 32
f 27 32 33
f 27 33 28
f 28 33 34
f 28 34 29
f 29 34 30
f 30 34 35
f 30 35 36
f 30 36 31
f 31 36 32
f 31 32 37
f 31 37 38
f 31 38 32
f 32 38 37
f 37 38 16
f 37 16 39
f 37 39 40
f 40 39 41
f 40 41 42
f 42 41 43
f 42 43 44
f 42 44 38
f 38 44 16
f 16 44 43
f 16 43 17
f 17 43 41
f 17 41 14
f 17 14 13
f 15 39 16
f 39 15 14
f 39 14 41
f 36 45 32
f 32 45 46
f 32 46 33
f 33 46 47
f 33 47 34
f 34 47 35
f 35 47 48
f 35 48 36
f 36 48 45
f 45 48 46
f 46 48 47
f 49 50 51
f 49 51 52
f 49 52 53
f 49 53 54
f 49 54 50
f 50 54 55
f 50 55 56
f 50 56 57
f 50 57 51
f 51 57 58
f 51 58 52
f 52 58 53
f 53 58 59
f 53 59 55
f 53 55 54
