# RS2 Model 26697
# Vertices: 102
# Faces: 152

v -176 -12 98
v -176 -44 98
v -183 -28 71
v -183 -1 82
v -183 -1 114
v -183 -28 125
v -183 -55 114
v -183 -55 82
v -190 -44 98
v -190 -12 98
v -176 52 98
v -176 20 98
v -183 36 71
v -183 63 82
v -183 63 114
v -183 36 125
v -183 9 114
v -183 9 82
v -190 20 98
v -190 52 98
v -176 -12 159
v -176 -44 159
v -183 -28 132
v -183 -1 143
v -183 -1 175
v -183 -28 186
v -183 -55 175
v -183 -55 143
v -190 -44 159
v -190 -12 159
v -176 52 159
v -176 20 159
v -183 36 132
v -183 63 143
v -183 63 175
v -183 36 186
v -183 9 175
v -183 9 143
v -190 20 159
v -190 52 159
v -127 -47 46
v -127 -79 44
v -123 -81 34
v -123 -47 34
v -123 -12 34
v -127 -12 46
v -133 -12 51
v -135 -45 53
v -142 -72 52
v -142 -41 60
v -149 -45 53
v -157 -47 46
v -157 -79 44
v -161 -47 34
v -161 -81 34
v -123 21 34
v -127 21 45
v -135 21 53
v -142 23 59
v -142 -12 55
v -151 -12 51
v -157 -12 46
v -161 -12 34
v -157 21 45
v -161 21 34
v -157 62 46
v -161 60 34
v -123 60 34
v -129 62 45
v -142 55 53
v -149 21 53
v -123 -47 46
v -127 -86 45
v -121 -88 34
v -121 -47 34
v -121 -12 34
v -123 -12 46
v -129 -12 53
v -131 -45 53
v -142 -79 53
v -142 -49 65
v -153 -45 53
v -161 -47 46
v -157 -86 45
v -163 -47 34
v -163 -88 34
v -121 21 34
v -123 21 45
v -131 16 53
v -142 27 65
v -142 -12 57
v -155 -12 53
v -161 -12 46
v -163 -12 34
v -161 21 45
v -163 21 34
v -157 70 46
v -163 68 34
v -121 68 34
v -127 70 46
v -142 62 53
v -153 16 53

f 1 2 3
f 1 3 4
f 1 4 5
f 1 5 6
f 1 6 2
f 2 6 7
f 2 7 8
f 2 8 3
f 3 8 9
f 3 9 10
f 3 10 4
f 4 10 5
f 5 10 6
f 6 10 9
f 6 9 7
f 7 9 8
f 11 12 13
f 11 13 14
f 11 14 15
f 11 15 16
f 11 16 12
f 12 16 17
f 12 17 18
f 12 18 13
f 13 18 19
f 13 19 20
f 13 20 14
f 14 20 15
f 15 20 16
f 16 20 19
f 16 19 17
f 17 19 18
f 21 22 23
f 21 23 24
f 21 24 25
f 21 25 26
f 21 26 22
f 22 26 27
f 22 27 28
f 22 28 23
f 23 28 29
f 23 29 30
f 23 30 24
f 24 30 25
f 25 30 26
f 26 30 29
f 26 29 27
f 27 29 28
f 31 32 33
f 31 33 34
f 31 34 35
f 31 35 36
f 31 36 32
f 32 36 37
f 32 37 38
f 32 38 33
f 33 38 39
f 33 39 40
f 33 40 34
f 34 40 35
f 35 40 36
f 36 40 39
f 36 39 37
f 37 39 38
f 41 42 43
f 41 43 44
f 41 44 45
f 41 45 46
f 41 46 47
f 41 47 48
f 41 48 42
f 42 48 49
f 49 48 50
f 49 50 51
f 49 51 52
f 49 52 53
f 53 52 54
f 53 54 55
f 46 45 56
f 46 56 57
f 46 57 58
f 46 58 47
f 47 58 59
f 47 59 60
f 47 60 48
f 48 60 50
f 50 60 61
f 50 61 51
f 51 61 62
f 51 62 52
f 52 62 54
f 54 62 63
f 63 62 64
f 63 64 65
f 65 64 66
f 65 66 67
f 57 56 68
f 57 68 69
f 57 69 70
f 57 70 58
f 58 70 59
f 59 70 71
f 59 71 60
f 60 71 61
f 61 71 64
f 61 64 62
f 72 73 74
f 72 74 75
f 72 75 76
f 72 76 77
f 72 77 78
f 72 78 79
f 72 79 73
f 73 79 80
f 80 79 81
f 80 81 82
f 80 82 83
f 80 83 84
f 84 83 85
f 84 85 86
f 77 76 87
f 77 87 88
f 77 88 89
f 77 89 78
f 78 89 90
f 78 90 91
f 78 91 79
f 79 91 81
f 81 91 92
f 81 92 82
f 82 92 93
f 82 93 83
f 83 93 85
f 85 93 94
f 94 93 95
f 94 95 96
f 96 95 97
f 96 97 98
f 88 87 99
f 88 99 100
f 88 100 101
f 88 101 89
f 89 101 90
f 90 101 102
f 90 102 91
f 91 102 92
f 92 102 95
f 92 95 93
f 66 64 71
f 66 71 70
f 97 95 102
f 97 102 101
