# RS2 Model 26714
# Vertices: 81
# Faces: 132

v 30 -31 7
v 0 -21 9
v 0 -47 1
v 20 -47 1
v 45 -23 5
v 29 48 6
v -51 67 24
v -45 -23 5
v -44 -37 1
v -48 -22 -27
v 0 -46 -9
v 9 -51 -13
v 39 -68 1
v 66 -20 7
v 128 74 25
v 128 83 12
v -4 82 19
v -45 128 12
v -54 128 25
v -84 128 25
v -100 89 5
v -95 51 13
v -63 47 17
v -58 -6 19
v -94 -14 7
v -100 -22 1
v -72 -29 1
v -68 -13 -26
v -79 -44 -54
v -65 -41 -57
v -90 -4 -37
v -84 -35 -72
v -101 66 -24
v -121 13 1
v -105 92 -20
v -108 84 1
v -108 128 -10
v -101 128 0
v 57 -66 1
v 79 -15 6
v 100 -12 8
v 128 44 25
v 125 -30 16
v 128 27 0
v 121 -54 -12
v 128 20 -10
v 75 -60 1
v 104 -54 1
v 113 -28 6
v 111 -43 3
v 114 -48 -9
v 96 -48 -15
v 73 -68 -11
v 53 -69 -14
v 31 -75 -10
v -4 112 13
v -15 128 6
v 0 128 0
v 128 128 0
v 128 113 6
v -114 18 5
v -90 0 16
v -103 12 13
v -101 36 46
v -80 51 41
v -52 7 49
v -63 -45 -103
v -53 -54 -92
v -43 -53 -96
v -31 -86 -136
v -39 -76 -136
v -39 -84 -136
v -35 -86 -136
v -93 -1 51
v -88 30 72
v -78 44 69
v -49 27 74
v -73 -7 49
v -57 14 74
v -69 9 75
v -71 14 108

f 1 2 3
f 1 3 4
f 1 4 5
f 1 5 2
f 2 5 6
f 2 6 7
f 2 7 8
f 2 8 9
f 2 9 3
f 3 9 10
f 3 10 11
f 3 11 4
f 4 11 12
f 4 12 13
f 4 13 5
f 5 13 14
f 5 14 6
f 6 14 15
f 6 15 16
f 6 16 17
f 6 17 7
f 7 17 18
f 7 18 19
f 7 19 20
f 7 20 21
f 7 21 22
f 7 22 23
f 7 23 8
f 8 23 24
f 8 24 25
f 8 25 26
f 8 26 27
f 8 27 9
f 9 27 10
f 10 27 28
f 10 28 29
f 10 29 30
f 10 30 31
f 31 30 32
f 31 32 28
f 31 28 26
f 31 26 33
f 33 26 34
f 33 34 35
f 35 34 36
f 35 36 37
f 37 36 38
f 38 36 21
f 38 21 20
f 14 13 39
f 14 39 40
f 14 40 15
f 15 40 41
f 15 41 42
f 42 41 43
f 42 43 44
f 44 43 45
f 44 45 46
f 40 39 47
f 40 47 41
f 41 47 48
f 41 48 49
f 41 49 43
f 43 49 45
f 45 49 50
f 45 50 51
f 51 50 48
f 51 48 52
f 52 48 53
f 53 48 54
f 54 48 47
f 54 47 55
f 55 47 39
f 55 39 13
f 55 13 12
f 49 48 50
f 16 56 17
f 17 56 18
f 18 56 57
f 57 56 58
f 58 56 59
f 59 56 60
f 60 56 16
f 61 21 36
f 61 36 34
f 61 34 25
f 61 25 62
f 61 62 63
f 61 63 21
f 21 63 22
f 22 63 64
f 22 64 65
f 22 65 23
f 23 65 24
f 24 65 66
f 24 66 62
f 24 62 25
f 25 34 26
f 28 27 26
f 28 32 29
f 29 32 67
f 29 67 68
f 29 68 30
f 30 68 69
f 30 69 32
f 32 69 67
f 67 69 70
f 67 70 71
f 67 71 68
f 68 71 72
f 68 72 73
f 68 73 69
f 69 73 70
f 64 63 74
f 64 74 75
f 64 75 65
f 65 75 76
f 65 76 66
f 66 76 77
f 66 77 78
f 66 78 62
f 62 78 63
f 63 78 74
f 74 78 79
f 74 79 80
f 74 80 75
f 75 80 81
f 75 81 76
f 76 81 77
f 77 81 79
f 77 79 78
f 80 79 81
