# RS2 Model 26843
# Vertices: 124
# Faces: 191

v 8 -8 -2
v -8 -8 -2
v 0 8 -2
v -4 6 56
v 2 3 56
v 2 3 0
v -4 6 0
v -10 3 56
v -8 1 128
v -4 3 128
v 0 1 128
v 5 -4 48
v 5 -4 0
v -10 3 0
v -13 -4 56
v -10 -4 128
v -7 -4 143
v -6 -2 143
v -3 -2 143
v -2 -4 143
v 1 -2 128
v 2 -4 125
v 2 -11 56
v 2 -11 0
v -4 -14 56
v -10 -11 56
v -10 -11 0
v -4 -14 0
v 0 -9 128
v -4 -11 128
v -8 -9 128
v -13 -4 0
v -6 -6 143
v -4 -7 143
v 1 -4 132
v 1 -6 128
v 41 -4 130
v 41 -2 133
v 41 -4 134
v 41 -6 132
v 2 -6 128
v 3 -4 125
v 2 -2 128
v 2 -4 132
v -23 -14 29
v -21 -14 29
v -20 -14 35
v -22 -14 35
v -25 -13 36
v -26 -13 30
v -27 -7 25
v -24 -8 22
v -22 -8 22
v -17 -13 28
v -16 -13 34
v -15 -7 39
v -18 -8 41
v -20 -8 42
v -24 -7 40
v -27 -8 34
v -27 -8 32
v -28 -5 29
v -27 -1 25
v -24 0 22
v -22 0 22
v -18 -7 23
v -15 -8 30
v -14 -8 31
v -14 -5 34
v -15 -1 39
v -18 0 41
v -20 0 42
v -24 -1 40
v -26 -5 37
v -29 -4 33
v -28 -3 29
v -27 0 32
v -26 5 30
v -23 6 29
v -21 6 29
v -18 -1 23
v -15 -5 27
v -14 -4 30
v -14 -3 34
v -14 0 31
v -16 5 34
v -20 6 35
v -22 6 35
v -25 5 36
v -26 -3 37
v -27 0 34
v -17 5 28
v -15 -3 27
v -15 0 30
v -18 -5 41
v -18 -3 41
v -10 -3 126
v -10 -5 126
v 9 -2 134
v 1 -2 133
v 1 -6 133
v 9 -6 134
v 10 -3 134
v 11 -1 134
v 10 0 134
v 13 1 134
v 13 0 134
v 26 1 134
v 26 0 134
v 29 0 134
v 28 -1 134
v 29 -3 134
v 30 -2 134
v 30 -6 134
v 29 -5 134
v 28 -7 134
v 29 -8 134
v 26 -8 134
v 26 -9 134
v 13 -9 134
v 13 -8 134
v 10 -8 134
v 11 -7 134
v 10 -5 134

f 1 2 3
f 4 5 6
f 4 6 7
f 4 7 8
f 4 8 9
f 4 9 10
f 4 10 5
f 5 10 11
f 5 11 12
f 5 12 13
f 5 13 6
f 8 7 14
f 8 14 15
f 8 15 16
f 8 16 9
f 9 16 17
f 9 17 18
f 9 18 10
f 10 18 19
f 10 19 11
f 11 19 20
f 11 20 21
f 11 21 22
f 11 22 12
f 12 22 23
f 12 23 24
f 12 24 13
f 25 26 27
f 25 27 28
f 25 28 23
f 25 23 29
f 25 29 30
f 25 30 26
f 26 30 31
f 26 31 15
f 26 15 32
f 26 32 27
f 15 14 32
f 23 28 24
f 31 16 15
f 16 31 33
f 16 33 17
f 17 33 20
f 17 20 18
f 18 20 19
f 20 34 30
f 20 30 29
f 20 29 35
f 20 35 21
f 34 33 31
f 34 31 30
f 22 29 23
f 29 22 36
f 29 36 35
f 20 33 34
f 37 38 39
f 37 39 40
f 37 40 41
f 37 41 42
f 37 42 38
f 38 42 43
f 38 43 39
f 39 43 44
f 39 44 40
f 40 44 41
f 45 46 47
f 45 47 48
f 45 48 49
f 45 49 50
f 45 50 51
f 45 51 52
f 45 52 46
f 46 52 53
f 46 53 54
f 46 54 47
f 47 54 55
f 47 55 56
f 47 56 57
f 47 57 48
f 48 57 58
f 48 58 49
f 49 58 59
f 49 59 60
f 49 60 50
f 50 60 61
f 50 61 62
f 50 62 51
f 51 62 63
f 51 63 64
f 51 64 52
f 52 64 53
f 53 64 65
f 53 65 66
f 53 66 54
f 54 66 67
f 54 67 55
f 55 67 68
f 55 68 69
f 55 69 56
f 56 69 70
f 56 70 71
f 56 71 57
f 57 71 58
f 58 71 72
f 58 72 59
f 59 72 73
f 59 73 74
f 59 74 60
f 60 74 75
f 60 75 61
f 61 75 62
f 62 75 76
f 62 76 63
f 63 76 77
f 63 77 78
f 63 78 64
f 64 78 79
f 64 79 65
f 65 79 80
f 65 80 81
f 65 81 66
f 66 81 82
f 66 82 67
f 67 82 83
f 67 83 68
f 68 83 69
f 69 83 84
f 69 84 70
f 70 84 85
f 70 85 86
f 70 86 71
f 71 86 87
f 71 87 72
f 72 87 88
f 72 88 73
f 73 88 89
f 73 89 90
f 73 90 74
f 74 90 75
f 75 90 91
f 75 91 77
f 75 77 76
f 88 87 80
f 88 80 79
f 88 79 89
f 89 79 78
f 89 78 91
f 89 91 90
f 81 80 92
f 81 92 93
f 81 93 82
f 82 93 83
f 83 93 94
f 83 94 85
f 83 85 84
f 92 80 87
f 92 87 86
f 92 86 94
f 92 94 93
f 94 86 85
f 91 78 77
f 95 96 97
f 95 97 98
f 95 98 96
f 96 98 97
f 99 100 101
f 99 101 102
f 99 102 103
f 99 103 104
f 99 104 105
f 105 104 106
f 106 104 107
f 106 107 108
f 108 107 109
f 108 109 110
f 110 109 111
f 110 111 112
f 110 112 113
f 113 112 114
f 114 112 115
f 114 115 116
f 114 116 117
f 117 116 118
f 117 118 119
f 119 118 120
f 120 118 121
f 120 121 122
f 122 121 123
f 122 123 102
f 102 123 124
f 102 124 103
