# RS2 Model 26861
# Vertices: 261
# Faces: 506

v 0 -16 77
v -4 -14 81
v 4 -14 81
v 5 -18 76
v 5 -20 70
v 0 -17 72
v -5 -20 70
v -5 -18 76
v -7 -16 81
v 0 -10 84
v 7 -16 81
v 10 -22 75
v 5 -24 69
v 5 -20 64
v 0 -17 65
v -5 -20 64
v -5 -24 69
v -10 -22 75
v -10 -21 79
v -10 -24 83
v -6 -19 86
v 0 -16 88
v 6 -19 86
v 10 -24 83
v 10 -21 79
v 11 -25 80
v 9 -28 77
v 6 -28 75
v 0 -27 69
v 0 -29 60
v 5 -26 62
v 10 -17 59
v 0 -14 62
v -10 -17 59
v -5 -26 62
v -6 -28 75
v -9 -28 77
v -11 -25 80
v -7 -31 83
v -7 -30 87
v -6 -26 90
v 0 -23 91
v 6 -26 90
v 7 -30 87
v 7 -31 83
v 19 5 19
v 25 13 12
v 25 11 20
v 26 4 20
v 21 -1 22
v 13 4 22
v 13 15 21
v 17 10 19
v 19 13 12
v 24 5 6
v 30 7 4
v 22 18 7
v 23 18 13
v 21 13 20
v 24 23 33
v 31 8 31
v 28 -2 27
v 22 -4 26
v 15 -2 27
v 9 -1 21
v 0 6 18
v 0 15 19
v 0 28 16
v 9 27 20
v 12 33 27
v 17 26 34
v 16 7 3
v 21 -2 7
v 24 -3 3
v 26 0 6
v 33 0 3
v 30 8 0
v 19 8 0
v 17 -2 0
v 17 -4 2
v 24 -1 0
v 33 0 0
v 25 22 10
v 21 21 6
v 27 21 6
v 24 24 4
v 6 -32 88
v 0 -31 92
v 0 -33 89
v 0 -35 86
v 5 -33 85
v 5 -34 83
v 5 -32 80
v 5 -40 76
v 0 -37 72
v 0 -30 72
v -5 -40 76
v -5 -42 80
v -5 -32 80
v -6 -32 88
v -5 -33 85
v -5 -34 83
v 0 -40 86
v 4 -41 83
v 5 -42 80
v 6 -46 74
v 7 -46 82
v 0 -52 77
v 0 -50 70
v -6 -46 74
v -7 -46 82
v 4 -46 86
v 0 -52 81
v -4 -46 86
v -4 -41 83
v 0 -45 89
v 0 -50 85
v 0 -42 70
v -5 -46 74
v 0 -47 73
v 5 -46 74
v 14 -9 57
v 0 -8 62
v 19 -10 54
v 19 -7 50
v 15 -9 52
v 18 -4 51
v 0 -3 59
v -14 -9 57
v -19 -10 54
v -16 -16 57
v -11 -18 54
v -7 -27 49
v 0 -30 47
v 7 -27 49
v 11 -18 54
v 16 -16 57
v 24 -19 51
v 26 -16 45
v 18 -12 50
v 15 -18 53
v 18 -3 36
v 14 5 50
v 0 7 58
v -14 5 50
v -18 -4 51
v -15 -9 52
v -19 -7 50
v -26 -16 45
v -24 -19 51
v -20 -22 53
v -15 -18 53
v -18 -3 36
v -11 -10 32
v 0 -15 29
v 11 -10 32
v 24 -9 37
v 21 -4 45
v 25 5 47
v 13 12 51
v 0 19 55
v -13 12 51
v -25 5 47
v -21 -4 45
v 0 -1 20
v -9 -1 21
v -13 15 21
v -9 27 20
v -12 33 27
v 0 36 23
v 0 26 49
v 9 35 36
v 0 33 41
v -9 35 36
v -17 26 34
v -14 20 46
v 14 20 46
v 0 38 30
v 0 38 40
v 8 41 43
v 0 38 47
v 6 42 49
v 4 40 52
v 0 38 71
v 10 45 67
v -8 41 43
v -12 46 38
v -21 13 20
v -24 23 33
v -25 15 43
v -29 -4 39
v -24 -9 37
v -22 -4 26
v -15 -2 27
v 25 15 43
v 29 -4 39
v 20 -22 53
v 30 -19 48
v 33 -17 43
v 34 -19 42
v 30 -21 44
v 24 -20 47
v 19 -24 49
v 34 -19 45
v 12 46 38
v 18 50 55
v 11 46 44
v -19 5 19
v -25 11 20
v -25 13 12
v -19 13 12
v -17 10 19
v -13 4 22
v -21 -1 22
v -26 4 20
v -31 8 31
v -23 18 13
v -22 18 7
v -30 7 4
v -24 5 6
v -16 7 3
v -30 8 0
v -33 0 3
v -26 0 6
v -24 -3 3
v -21 -2 7
v -17 -4 2
v -17 -2 0
v -19 8 0
v -24 -1 0
v -33 0 0
v -25 22 10
v -27 21 6
v -21 21 6
v -24 24 4
v -28 -2 27
v -18 -12 50
v -24 -20 47
v -30 -21 44
v -34 -19 42
v -33 -17 43
v -30 -19 48
v -19 -24 49
v -34 -19 45
v -6 42 49
v -10 45 67
v -4 40 52
v -11 46 44
v -18 50 55
v -12 41 45
v 11 40 46
v -13 26 15
v 14 -12 39
v 31 -6 35
v 8 7 52
v 34 -2 43
v 18 -4 48
v 24 2 15
v 0 -52 87
v 0 -53 68
v 4 -27 87

f 1 2 3
f 1 3 4
f 1 4 5
f 1 5 6
f 1 6 7
f 1 7 8
f 1 8 2
f 2 8 9
f 2 9 10
f 2 10 3
f 3 10 11
f 3 11 4
f 4 11 12
f 4 12 5
f 5 12 13
f 5 13 14
f 5 14 15
f 5 15 6
f 6 15 7
f 7 15 16
f 7 16 17
f 7 17 18
f 7 18 8
f 8 18 9
f 9 18 19
f 9 19 20
f 9 20 21
f 9 21 10
f 10 21 22
f 10 22 23
f 10 23 11
f 11 23 24
f 11 24 25
f 11 25 12
f 12 25 26
f 12 26 27
f 12 27 28
f 12 28 13
f 13 28 29
f 13 29 30
f 13 30 31
f 13 31 14
f 14 31 32
f 14 32 33
f 14 33 15
f 15 33 16
f 16 33 34
f 16 34 35
f 16 35 17
f 17 35 30
f 17 30 29
f 17 29 36
f 17 36 18
f 18 36 37
f 18 37 38
f 18 38 19
f 19 38 20
f 20 38 39
f 20 39 40
f 20 40 41
f 20 41 21
f 21 41 42
f 21 42 22
f 22 42 23
f 23 42 43
f 23 43 24
f 24 43 44
f 24 44 45
f 24 45 26
f 24 26 25
f 46 47 48
f 46 48 49
f 46 49 50
f 46 50 51
f 46 51 52
f 46 52 53
f 46 53 54
f 46 54 47
f 47 54 55
f 47 55 56
f 47 56 57
f 47 57 58
f 47 58 48
f 48 58 59
f 48 59 60
f 48 60 61
f 48 61 49
f 49 61 62
f 49 62 50
f 50 62 63
f 50 63 64
f 50 64 51
f 51 64 65
f 51 65 52
f 52 65 66
f 52 66 67
f 52 67 68
f 52 68 69
f 52 69 70
f 52 70 71
f 52 71 59
f 52 59 53
f 53 59 58
f 53 58 54
f 54 58 57
f 54 57 72
f 54 72 55
f 55 72 73
f 55 73 74
f 55 74 75
f 55 75 56
f 56 75 76
f 56 76 77
f 56 77 57
f 57 77 78
f 57 78 72
f 72 78 79
f 72 79 80
f 72 80 73
f 73 80 74
f 74 80 79
f 74 79 81
f 74 81 82
f 74 82 76
f 74 76 75
f 57 83 58
f 57 58 84
f 57 84 85
f 57 85 83
f 83 85 86
f 83 86 84
f 83 84 58
f 84 86 85
f 76 82 77
f 77 82 81
f 77 81 78
f 78 81 79
f 87 43 88
f 87 88 89
f 87 89 90
f 87 90 91
f 87 91 44
f 87 44 43
f 90 92 91
f 91 92 45
f 91 45 44
f 92 93 45
f 45 93 27
f 45 27 26
f 27 94 28
f 28 94 95
f 28 95 96
f 28 96 29
f 29 96 36
f 36 96 95
f 36 95 97
f 36 97 37
f 37 97 98
f 37 98 99
f 37 99 39
f 37 39 38
f 88 43 42
f 88 42 41
f 88 41 100
f 88 100 89
f 89 100 90
f 90 100 101
f 90 101 102
f 90 102 103
f 90 103 92
f 92 103 104
f 92 104 105
f 92 105 93
f 93 105 27
f 27 105 94
f 94 105 106
f 106 105 107
f 106 107 108
f 106 108 109
f 109 108 110
f 110 108 111
f 110 111 98
f 110 98 97
f 103 112 104
f 104 112 105
f 105 112 107
f 107 112 113
f 107 113 108
f 108 113 111
f 111 113 114
f 111 114 98
f 98 114 115
f 98 115 102
f 98 102 99
f 99 102 39
f 39 102 101
f 39 101 40
f 40 101 100
f 40 100 41
f 103 116 112
f 112 116 117
f 112 117 113
f 113 117 114
f 114 117 116
f 114 116 103
f 114 103 115
f 115 103 102
f 94 118 95
f 95 118 97
f 97 118 119
f 119 118 120
f 120 118 121
f 121 118 94
f 122 123 33
f 122 33 32
f 122 32 124
f 122 124 125
f 122 125 126
f 122 126 127
f 122 127 128
f 122 128 123
f 123 128 129
f 123 129 33
f 33 129 34
f 34 129 130
f 34 130 131
f 34 131 132
f 34 132 35
f 35 132 133
f 35 133 30
f 30 133 134
f 30 134 135
f 30 135 31
f 31 135 136
f 31 136 32
f 32 136 137
f 32 137 124
f 124 137 138
f 124 138 139
f 124 139 125
f 125 139 140
f 125 140 126
f 126 140 141
f 126 141 136
f 126 136 135
f 126 135 142
f 126 142 127
f 127 142 143
f 127 143 128
f 128 143 144
f 128 144 145
f 128 145 146
f 128 146 129
f 129 146 147
f 129 147 148
f 129 148 130
f 130 148 149
f 130 149 150
f 130 150 131
f 131 150 151
f 131 151 152
f 131 152 132
f 132 152 147
f 132 147 133
f 133 147 153
f 133 153 154
f 133 154 155
f 133 155 134
f 134 155 135
f 135 155 156
f 135 156 142
f 142 156 64
f 142 64 63
f 142 63 157
f 142 157 158
f 142 158 143
f 143 158 159
f 143 159 160
f 143 160 144
f 144 160 161
f 144 161 162
f 144 162 145
f 145 162 163
f 145 163 164
f 145 164 153
f 145 153 146
f 146 153 147
f 65 156 155
f 65 155 165
f 65 165 66
f 66 165 166
f 66 166 167
f 66 167 67
f 67 167 68
f 68 167 168
f 68 168 169
f 68 169 170
f 68 170 70
f 68 70 69
f 171 172 173
f 171 173 174
f 171 174 175
f 171 175 176
f 171 176 162
f 171 162 161
f 171 161 160
f 171 160 177
f 171 177 71
f 171 71 172
f 172 71 70
f 172 70 178
f 172 178 179
f 172 179 173
f 172 173 180
f 172 180 173
f 173 180 181
f 173 181 180
f 180 181 182
f 180 182 181
f 181 182 183
f 181 183 184
f 181 184 183
f 181 183 182
f 182 183 185
f 182 185 183
f 185 182 180
f 185 180 182
f 70 170 178
f 178 170 169
f 178 169 174
f 178 174 179
f 179 174 173
f 173 174 186
f 173 186 174
f 174 186 187
f 174 187 169
f 174 169 175
f 175 169 167
f 175 167 188
f 175 188 189
f 175 189 190
f 175 190 176
f 176 190 162
f 162 190 163
f 163 190 191
f 163 191 164
f 164 191 192
f 164 192 153
f 153 192 193
f 153 193 194
f 153 194 154
f 154 194 166
f 154 166 155
f 155 166 165
f 159 195 160
f 160 195 177
f 177 195 71
f 71 195 60
f 71 60 59
f 196 158 157
f 196 157 62
f 196 62 61
f 196 61 195
f 196 195 159
f 196 159 158
f 195 61 60
f 62 157 63
f 136 141 137
f 137 141 197
f 137 197 138
f 138 197 198
f 138 198 139
f 139 198 199
f 139 199 200
f 139 200 201
f 139 201 202
f 139 202 140
f 140 202 141
f 141 202 203
f 141 203 197
f 197 203 201
f 197 201 198
f 198 201 204
f 198 204 199
f 199 204 200
f 200 204 201
f 202 201 203
f 172 205 180
f 172 180 205
f 172 205 70
f 172 70 205
f 205 206 207
f 205 207 180
f 205 180 207
f 205 207 206
f 206 207 180
f 206 180 207
f 156 65 64
f 208 209 210
f 208 210 211
f 208 211 212
f 208 212 167
f 208 167 213
f 208 213 214
f 208 214 215
f 208 215 209
f 209 215 216
f 209 216 189
f 209 189 188
f 209 188 217
f 209 217 210
f 210 217 218
f 210 218 219
f 210 219 220
f 210 220 211
f 211 220 221
f 211 221 218
f 211 218 217
f 211 217 212
f 212 217 188
f 212 188 167
f 219 218 222
f 219 222 223
f 219 223 224
f 219 224 220
f 220 224 225
f 220 225 226
f 220 226 221
f 221 226 227
f 221 227 228
f 221 228 229
f 221 229 218
f 218 229 222
f 222 229 230
f 222 230 231
f 222 231 223
f 223 231 225
f 223 225 224
f 218 217 232
f 218 232 233
f 218 233 234
f 218 234 217
f 217 234 232
f 232 234 235
f 232 235 233
f 233 235 234
f 225 231 230
f 225 230 228
f 225 228 227
f 225 227 226
f 229 228 230
f 166 213 167
f 213 166 194
f 213 194 214
f 214 194 193
f 214 193 236
f 214 236 215
f 215 236 216
f 216 236 191
f 216 191 190
f 216 190 189
f 169 168 167
f 236 193 192
f 236 192 191
f 148 147 237
f 148 237 149
f 149 237 238
f 149 238 239
f 149 239 240
f 149 240 241
f 149 241 242
f 149 242 150
f 150 242 151
f 151 242 239
f 151 239 243
f 151 243 152
f 152 243 238
f 152 238 237
f 152 237 147
f 238 243 239
f 242 241 244
f 242 244 239
f 239 244 240
f 240 244 241
f 186 173 181
f 186 181 245
f 186 245 246
f 186 246 245
f 186 245 181
f 186 181 173
f 247 246 245
f 247 245 181
f 247 181 184
f 247 184 181
f 247 181 245
f 247 245 246
f 187 248 249
f 187 249 248
f 187 248 186
f 187 186 248
f 248 186 249
f 248 249 186
f 187 186 174
f 187 174 169
f 250 251 252
f 253 254 255
