# RS2 Model 26878
# Vertices: 49
# Faces: 94

v -28 -33 96
v -8 -34 100
v -17 -21 96
v -17 -21 94
v -28 -33 94
v -31 -51 96
v -13 -40 100
v -16 -49 100
v 0 -47 102
v 8 -32 100
v 0 -30 100
v -3 -16 96
v -3 -16 94
v -8 -34 97
v -13 -40 97
v -16 -49 97
v -31 -51 94
v -25 -65 96
v 26 -30 96
v 17 -46 100
v 32 -44 96
v 32 -44 94
v 26 -30 94
v 14 -19 96
v 15 -37 100
v 9 -61 100
v 14 -55 100
v 29 -60 96
v 29 -60 94
v 17 -46 97
v 15 -37 97
v 8 -32 97
v 14 -19 94
v 0 -30 97
v 18 -72 96
v 18 -72 94
v 9 -61 97
v 14 -55 97
v -7 -63 97
v -14 -58 97
v -25 -65 94
v -13 -76 96
v -14 -58 100
v -7 -63 100
v 1 -65 100
v 4 -79 96
v 4 -79 94
v 1 -65 97
v -13 -76 94

f 1 2 3
f 1 3 4
f 1 4 5
f 1 5 6
f 1 6 7
f 1 7 2
f 2 7 8
f 2 8 9
f 2 9 10
f 2 10 11
f 2 11 3
f 3 11 12
f 3 12 13
f 3 13 4
f 4 13 14
f 4 14 5
f 5 14 15
f 5 15 16
f 5 16 17
f 5 17 6
f 6 17 18
f 6 18 8
f 6 8 7
f 19 20 21
f 19 21 22
f 19 22 23
f 19 23 24
f 19 24 25
f 19 25 20
f 20 25 10
f 20 10 9
f 20 9 26
f 20 26 27
f 20 27 21
f 21 27 28
f 21 28 29
f 21 29 22
f 22 29 30
f 22 30 31
f 22 31 23
f 23 31 32
f 23 32 33
f 23 33 24
f 24 33 12
f 24 12 11
f 24 11 10
f 24 10 25
f 33 13 12
f 13 33 32
f 13 32 34
f 13 34 14
f 14 34 32
f 14 32 30
f 14 30 16
f 14 16 15
f 32 31 30
f 28 26 35
f 28 35 36
f 28 36 29
f 29 36 37
f 29 37 38
f 29 38 30
f 30 38 37
f 30 37 16
f 16 37 39
f 16 39 40
f 16 40 17
f 17 40 41
f 17 41 18
f 18 41 42
f 18 42 43
f 18 43 8
f 8 43 44
f 8 44 9
f 9 44 26
f 26 44 45
f 26 45 35
f 35 45 46
f 35 46 47
f 35 47 36
f 36 47 37
f 37 47 48
f 37 48 39
f 39 48 47
f 39 47 49
f 39 49 41
f 39 41 40
f 44 42 45
f 45 42 46
f 46 42 49
f 46 49 47
f 26 28 27
f 43 42 44
f 41 49 42
