# RS2 Model 26917
# Vertices: 100
# Faces: 89

v -20 -11 108
v -24 -7 108
v -24 -15 108
v -16 -18 108
v -22 -20 108
v -14 -22 108
v -15 -12 108
v -12 -7 108
v -19 -11 108
v -7 -19 108
v -2 -16 108
v -10 -16 108
v -9 18 108
v -14 16 108
v -6 13 108
v 2 13 108
v 0 19 108
v -2 11 108
v -11 6 108
v -8 10 108
v -15 8 108
v 6 5 108
v 2 9 108
v 3 1 108
v 12 21 100
v -19 21 100
v 23 9 100
v -31 10 100
v 28 -4 100
v -36 -6 100
v 28 -9 100
v -31 -21 100
v 23 -22 100
v 11 -33 100
v -20 -33 100
v -4 -38 100
v -4 26 100
v 6 19 101
v -4 23 101
v -9 18 105
v 5 12 105
v 10 9 101
v 1 2 105
v 6 -1 101
v -4 -4 101
v -14 -1 101
v -14 7 105
v -18 9 101
v -14 19 101
v -4 9 108
v -5 -6 101
v -15 -2 101
v -20 -7 105
v -6 -13 105
v -1 -16 101
v -10 -23 105
v -5 -26 101
v -15 -29 101
v -25 -26 101
v -25 -18 105
v -29 -16 101
v -25 -6 101
v -15 -16 108
v 21 -4 102
v 12 0 102
v 10 -5 105
v 19 -9 105
v 25 -11 102
v 16 -17 105
v 21 -20 102
v 12 -23 102
v 5 -20 102
v 6 -14 105
v 1 -11 102
v 5 -4 102
v 12 -11 107
v 9 -13 108
v 7 -18 108
v 15 -15 108
v 21 -18 108
v 20 -13 108
v 16 -19 108
v 7 -12 108
v 6 -7 108
v 1 -13 108
v 17 -7 108
v 13 -3 108
v 13 -11 108
v -15 -15 102
v -17 -15 102
v -17 -17 102
v -15 -17 102
v -3 13 102
v -5 13 102
v -5 11 102
v -3 11 102
v 16 -10 102
v 14 -10 102
v 14 -12 102
v 16 -12 102

f 1 2 3
f 1 3 2
f 4 5 6
f 4 6 5
f 7 8 9
f 7 9 8
f 10 11 12
f 10 12 11
f 13 14 15
f 13 15 14
f 16 17 18
f 16 18 17
f 19 20 21
f 19 21 20
f 22 23 24
f 22 24 23
f 25 26 27
f 27 26 28
f 27 28 29
f 29 28 30
f 29 30 31
f 31 30 32
f 31 32 33
f 33 32 34
f 34 32 35
f 34 35 36
f 26 25 37
f 38 39 40
f 38 40 41
f 38 41 42
f 42 41 43
f 42 43 44
f 44 43 45
f 45 43 46
f 46 43 47
f 46 47 48
f 48 47 40
f 48 40 49
f 49 40 39
f 43 41 50
f 43 50 47
f 47 50 40
f 40 50 41
f 51 52 53
f 51 53 54
f 51 54 55
f 55 54 56
f 55 56 57
f 57 56 58
f 58 56 59
f 59 56 60
f 59 60 61
f 61 60 53
f 61 53 62
f 62 53 52
f 56 54 63
f 56 63 60
f 60 63 53
f 53 63 54
f 64 65 66
f 64 66 67
f 64 67 68
f 68 67 69
f 68 69 70
f 70 69 71
f 71 69 72
f 72 69 73
f 72 73 74
f 74 73 66
f 74 66 75
f 75 66 65
f 69 67 76
f 69 76 73
f 73 76 66
f 66 76 67
f 77 78 79
f 77 79 78
f 80 81 82
f 80 82 81
f 83 84 85
f 83 85 84
f 86 87 88
f 86 88 87
f 89 90 91
f 89 91 92
f 93 94 95
f 93 95 96
f 97 98 99
f 97 99 100
