# RS2 Model 26921
# Vertices: 38
# Faces: 41

v 31 18 151
v -50 -64 151
v -50 -64 176
v 31 18 194
v 64 -11 151
v 64 -11 105
v 31 18 105
v -50 -64 105
v 31 33 105
v -64 -64 105
v -33 -33 25
v -53 -53 25
v -64 -64 0
v -64 -43 25
v -64 -2 25
v -64 2 14
v -32 -31 14
v -31 -30 14
v -28 -27 25
v -64 5 14
v -64 8 25
v 30 32 25
v -2 64 25
v -64 64 25
v 64 -11 219
v 64 -64 179
v 31 33 14
v 1 64 14
v 64 5 14
v 64 8 25
v 8 64 25
v 5 64 14
v 64 64 25
v 64 2 105
v 64 2 25
v 31 33 25
v 64 2 -11
v 31 33 -11

f 1 2 3
f 1 3 4
f 1 4 5
f 1 5 6
f 1 6 7
f 1 7 2
f 2 7 8
f 8 7 9
f 8 9 10
f 10 9 11
f 10 11 12
f 10 12 13
f 13 12 14
f 14 12 11
f 14 11 15
f 15 11 16
f 16 11 17
f 17 11 18
f 18 11 19
f 18 19 20
f 20 19 21
f 21 19 22
f 21 22 23
f 21 23 24
f 5 4 25
f 25 4 26
f 26 4 3
f 23 22 27
f 23 27 28
f 29 30 31
f 29 31 32
f 31 30 33
f 9 34 35
f 9 35 36
f 36 35 37
f 36 37 38
f 34 9 7
f 34 7 6
f 11 9 22
f 11 22 19
f 9 27 22
