# RS2 Model 26955
# Vertices: 165
# Faces: 195

v -62 -64 81
v -62 64 81
v -62 -1 56
v -62 -64 53
v -62 -50 22
v -62 -64 23
v -62 -64 13
v -62 64 13
v -64 64 13
v -64 -64 13
v -64 64 0
v -64 -64 0
v -62 -64 100
v -62 64 100
v -64 64 100
v -64 -64 100
v -64 64 83
v -64 -64 83
v -62 -45 196
v -62 -64 158
v -62 -64 216
v -62 -5 206
v -62 45 196
v -62 64 216
v -62 64 158
v -62 45 105
v -62 -45 105
v -62 64 23
v -62 22 27
v -62 64 53
v -64 64 240
v -64 -64 216
v -64 -64 240
v -47 64 240
v -47 -64 240
v -47 -56 216
v -47 56 216
v -47 56 8
v -47 64 0
v -47 -56 8
v -47 -64 0
v -50 -56 216
v -50 -56 8
v -52 -45 196
v -50 56 216
v -52 45 196
v -50 56 8
v -64 64 216
v -62 45 104
v -62 -45 104
v -62 -45 108
v -62 45 108
v -57 3 108
v -57 38 108
v -57 38 190
v -62 -1 196
v -57 3 190
v -57 -5 190
v -57 -39 190
v -57 -39 108
v -57 -3 108
v -53 3 108
v -53 38 108
v -53 38 190
v -47 56 212
v -47 -56 212
v -50 -56 196
v -50 -45 196
v -50 45 196
v -50 56 196
v -47 45 193
v -47 56 193
v -50 45 178
v -50 56 178
v -47 45 174
v -47 56 174
v -50 45 159
v -50 56 159
v -47 45 155
v -47 56 155
v -50 45 140
v -50 56 140
v -47 45 136
v -47 56 136
v -50 45 121
v -50 56 121
v -47 45 117
v -47 56 117
v -50 45 103
v -50 56 103
v -47 56 99
v -50 -45 103
v -47 -56 99
v -50 -56 84
v -50 56 84
v -47 -56 80
v -47 56 80
v -50 -56 65
v -50 56 65
v -47 -56 61
v -47 56 61
v -50 -56 46
v -50 56 46
v -47 -56 42
v -47 56 42
v -50 -56 27
v -50 56 27
v -47 -56 23
v -47 56 23
v -57 -3 190
v -53 -3 190
v -53 -3 108
v -53 3 190
v -52 0 196
v -53 -39 190
v -49 -45 108
v -53 -39 108
v -49 45 108
v -50 -56 103
v -47 -56 117
v -47 -45 117
v -50 -56 121
v -50 -45 121
v -47 -56 136
v -47 -45 136
v -50 -56 140
v -50 -45 140
v -47 -56 155
v -47 -45 155
v -50 -56 159
v -50 -45 159
v -47 -56 174
v -47 -45 174
v -50 -56 178
v -50 -45 178
v -47 -56 193
v -47 -45 193
v -47 -56 57
v -47 -56 38
v -47 -32 8
v -47 -16 8
v -49 -16 8
v -49 -56 57
v -47 56 38
v -47 56 57
v -47 16 8
v -47 32 8
v -49 56 57
v -49 16 8
v -54 45 105
v -54 -45 105
v -49 -45 104
v -49 45 104
v -57 62 77
v -57 62 -35
v -57 -62 76
v -24 44 108
v -82 44 108
v -24 -45 108
v -61 -64 219
v -61 67 217
v -61 -66 11
v -47 -76 -2
v -47 74 -3
v -47 -74 235

f 1 2 3
f 1 3 4
f 4 3 5
f 4 5 6
f 6 5 7
f 7 5 8
f 7 8 9
f 7 9 10
f 10 9 11
f 10 11 12
f 13 14 15
f 13 15 16
f 16 15 17
f 16 17 18
f 19 20 21
f 19 21 22
f 19 22 23
f 23 22 24
f 23 24 25
f 23 25 14
f 23 14 26
f 26 14 27
f 27 14 13
f 27 13 19
f 19 13 20
f 28 8 29
f 28 29 3
f 28 3 30
f 30 3 2
f 3 29 5
f 5 29 8
f 22 21 24
f 31 32 33
f 31 33 34
f 34 33 35
f 34 35 36
f 34 36 37
f 34 37 38
f 34 38 39
f 39 38 40
f 39 40 41
f 41 40 35
f 35 40 36
f 36 40 42
f 42 40 43
f 42 43 44
f 42 44 45
f 45 44 46
f 45 46 47
f 45 47 38
f 45 38 37
f 48 32 31
f 49 50 51
f 49 51 52
f 52 51 53
f 52 53 54
f 52 54 55
f 52 55 23
f 23 55 56
f 56 55 57
f 56 57 58
f 56 58 19
f 19 58 59
f 19 59 60
f 19 60 51
f 51 60 61
f 51 61 53
f 53 61 57
f 53 57 62
f 53 62 54
f 54 62 63
f 54 63 64
f 54 64 55
f 65 66 67
f 65 67 68
f 65 68 69
f 65 69 70
f 70 69 71
f 70 71 72
f 72 71 73
f 72 73 74
f 74 73 75
f 74 75 76
f 76 75 77
f 76 77 78
f 78 77 79
f 78 79 80
f 80 79 81
f 80 81 82
f 82 81 83
f 82 83 84
f 84 83 85
f 84 85 86
f 86 85 87
f 86 87 88
f 88 87 89
f 88 89 90
f 90 89 91
f 91 89 92
f 91 92 93
f 91 93 94
f 91 94 95
f 95 94 96
f 95 96 97
f 97 96 98
f 97 98 99
f 99 98 100
f 99 100 101
f 101 100 102
f 101 102 103
f 103 102 104
f 103 104 105
f 105 104 106
f 105 106 107
f 107 106 108
f 107 108 109
f 109 108 43
f 109 43 47
f 47 43 40
f 47 40 38
f 66 65 45
f 66 45 42
f 57 61 110
f 110 61 111
f 111 61 112
f 111 112 113
f 111 113 114
f 111 114 115
f 115 114 44
f 115 44 116
f 115 116 117
f 115 117 59
f 59 117 60
f 60 117 112
f 60 112 61
f 61 112 110
f 110 112 111
f 63 118 46
f 63 46 64
f 64 46 113
f 113 46 114
f 112 62 113
f 113 62 57
f 93 92 119
f 119 92 120
f 120 92 121
f 120 121 122
f 122 121 123
f 122 123 124
f 124 123 125
f 124 125 126
f 126 125 127
f 126 127 128
f 128 127 129
f 128 129 130
f 130 129 131
f 130 131 132
f 132 131 133
f 132 133 134
f 134 133 135
f 134 135 136
f 136 135 137
f 136 137 67
f 67 137 68
f 67 68 66
f 138 139 140
f 138 140 141
f 138 141 142
f 138 142 143
f 144 145 146
f 144 146 147
f 146 145 148
f 146 148 149
f 43 47 150
f 43 150 151
f 43 151 44
f 118 116 152
f 118 152 153
f 150 47 46
f 139 141 138
f 138 141 143
f 143 141 142
f 139 140 141
f 117 60 115
f 117 115 44
f 117 44 116
f 117 116 112
f 112 116 118
f 112 118 62
f 62 118 63
f 111 44 115
f 44 111 114
f 115 60 59
f 154 155 156
f 157 158 159
