# RS2 Model 26993
# Vertices: 87
# Faces: 108

v 7 -7 0
v 11 -64 0
v 11 -20 0
v 16 -15 0
v 54 -15 0
v 59 -7 0
v 64 -2 -4
v 2 -2 -4
v 7 -64 0
v 59 -64 0
v 59 -20 0
v 54 -25 0
v 54 -59 0
v 54 -64 -8
v 16 -59 0
v 16 -64 -8
v 16 -25 0
v 16 -20 -8
v 54 -20 -8
v 64 -11 -4
v 64 -7 0
v 2 -64 -4
v 64 -64 -4
v 12 20 0
v 8 7 0
v 17 15 0
v 17 20 -8
v 17 25 0
v 12 64 0
v 8 64 0
v 3 64 -4
v 3 2 -4
v 64 7 0
v 64 15 0
v 64 20 -8
v 64 25 0
v 17 59 0
v 17 64 -8
v 64 64 -8
v 64 59 0
v 64 2 -4
v -16 -15 0
v -7 -7 0
v -64 -7 0
v -64 -15 0
v -16 -20 -8
v -11 -20 0
v -11 -64 0
v -7 -64 0
v -2 -64 -4
v -2 -2 -4
v -64 -2 -4
v -16 -25 0
v -16 -59 0
v -16 -64 -8
v -64 -59 0
v -64 -64 -8
v -64 -25 0
v -64 -20 -8
v -64 7 0
v -16 15 0
v -64 15 0
v -16 20 -8
v -64 20 -8
v -16 25 0
v -64 25 0
v -43 59 0
v -48 64 0
v -64 44 0
v -52 64 0
v -57 64 -4
v -64 53 -4
v -11 64 0
v -11 20 0
v -7 7 0
v -7 64 0
v -2 2 -4
v -2 64 -4
v -16 59 0
v -16 64 -8
v -43 64 -8
v -64 2 -4
v -64 64 0
v -64 59 0
v -61 64 0
v -64 59 -8
v -61 64 -8

f 1 2 3
f 1 3 4
f 1 4 5
f 1 5 6
f 1 6 7
f 1 7 8
f 1 8 9
f 1 9 2
f 10 11 12
f 10 12 13
f 10 13 14
f 14 13 15
f 14 15 16
f 16 15 2
f 2 15 3
f 3 15 17
f 3 17 18
f 3 18 4
f 4 18 19
f 4 19 5
f 5 19 11
f 5 11 6
f 6 11 20
f 6 20 21
f 6 21 7
f 13 12 17
f 13 17 15
f 22 9 8
f 17 12 18
f 18 12 19
f 19 12 11
f 11 10 20
f 20 10 23
f 24 25 26
f 24 26 27
f 24 27 28
f 24 28 29
f 24 29 25
f 25 29 30
f 25 30 31
f 25 31 32
f 25 32 33
f 25 33 26
f 26 33 34
f 26 34 35
f 26 35 27
f 27 35 36
f 27 36 28
f 28 36 37
f 28 37 29
f 29 37 38
f 38 37 39
f 39 37 40
f 40 37 36
f 41 33 32
f 42 43 44
f 42 44 45
f 42 45 46
f 42 46 47
f 42 47 43
f 43 47 48
f 43 48 49
f 43 49 50
f 43 50 51
f 43 51 44
f 44 51 52
f 48 47 53
f 48 53 54
f 48 54 55
f 55 54 56
f 55 56 57
f 54 53 58
f 54 58 56
f 58 53 59
f 59 53 46
f 59 46 45
f 53 47 46
f 60 61 62
f 62 61 63
f 62 63 64
f 64 63 65
f 64 65 66
f 66 65 67
f 66 67 68
f 66 68 69
f 69 68 70
f 69 70 71
f 69 71 72
f 73 74 75
f 73 75 76
f 76 75 77
f 76 77 78
f 61 75 74
f 61 74 63
f 63 74 65
f 65 74 79
f 65 79 67
f 67 79 80
f 67 80 81
f 67 81 68
f 74 73 79
f 79 73 80
f 82 75 60
f 60 75 61
f 83 84 85
f 85 84 86
f 85 86 87
f 75 82 77
