# RS2 Model 27032
# Vertices: 107
# Faces: 136

v -15 -9 0
v 29 -64 0
v 29 64 0
v -29 25 0
v -29 0 0
v -15 -9 73
v -15 -55 73
v -15 -55 0
v -29 -64 0
v -29 -64 73
v -29 -64 167
v -15 -55 167
v -15 -64 175
v -15 -9 167
v -15 0 175
v -15 0 207
v -15 -64 207
v -29 -64 240
v -29 64 240
v -38 64 240
v -38 -64 240
v -38 64 232
v -38 -64 232
v -51 64 232
v -51 -64 232
v -51 64 240
v -51 -64 240
v -64 64 240
v -64 -64 240
v -64 9 210
v -64 -64 210
v -64 -56 197
v -54 -64 197
v -54 -64 175
v -54 -64 167
v -54 -64 73
v -64 -58 0
v -54 -64 49
v -54 -64 0
v -54 49 73
v -54 9 49
v -54 25 73
v -29 25 73
v -29 49 73
v -54 49 167
v -54 64 167
v -54 64 73
v -54 64 49
v -54 64 0
v -54 9 0
v -64 0 0
v -54 9 73
v -54 25 167
v -29 25 167
v -29 0 73
v -29 64 0
v -29 64 73
v -29 64 167
v -29 49 167
v -54 37 175
v -54 9 175
v -54 9 187
v -54 64 197
v -54 64 175
v -54 9 197
v -64 0 197
v -54 9 167
v -64 64 210
v -15 37 175
v -15 64 175
v -15 64 208
v -29 0 167
v 29 -64 28
v 29 64 28
v 46 -64 38
v 46 54 38
v 39 64 34
v 39 64 81
v 46 54 81
v 53 54 89
v 39 64 89
v 39 64 121
v 53 54 121
v 59 64 81
v 59 64 121
v 64 64 28
v 64 -64 0
v 64 64 0
v 64 -64 28
v 59 64 38
v 59 -64 38
v 59 -64 81
v 53 -64 89
v 46 -64 81
v 62 64 117
v 50 46 126
v 50 50 117
v 34 64 126
v 37 64 117
v 65 64 126
v 50 49 140
v 39 64 140
v 50 64 147
v 62 64 140
v -54 -25 196
v -54 92 199
v -54 -24 -4

f 1 2 3
f 1 3 4
f 1 4 5
f 1 5 6
f 1 6 7
f 1 7 8
f 1 8 2
f 2 8 9
f 9 8 10
f 10 8 7
f 10 7 11
f 11 7 12
f 11 12 13
f 13 12 14
f 13 14 15
f 13 15 16
f 13 16 17
f 17 16 18
f 18 16 19
f 18 19 20
f 18 20 21
f 21 20 22
f 21 22 23
f 23 22 24
f 23 24 25
f 25 24 26
f 25 26 27
f 27 26 28
f 27 28 29
f 29 28 30
f 29 30 31
f 31 30 32
f 31 32 33
f 33 32 34
f 34 32 35
f 35 32 36
f 36 32 37
f 36 37 38
f 38 37 39
f 40 41 42
f 40 42 43
f 40 43 44
f 40 44 45
f 40 45 46
f 40 46 47
f 40 47 48
f 40 48 41
f 41 48 49
f 41 49 50
f 41 50 51
f 41 51 52
f 41 52 42
f 42 52 53
f 42 53 54
f 42 54 43
f 43 54 55
f 43 55 5
f 43 5 4
f 43 4 44
f 44 4 56
f 44 56 57
f 44 57 58
f 44 58 59
f 44 59 45
f 60 53 61
f 60 61 62
f 60 62 63
f 60 63 64
f 60 64 46
f 60 46 45
f 65 30 63
f 65 63 62
f 65 62 66
f 65 66 30
f 30 66 32
f 32 66 37
f 37 66 51
f 51 66 52
f 52 66 67
f 52 67 53
f 53 67 61
f 61 67 66
f 61 66 62
f 30 28 68
f 30 68 63
f 69 59 58
f 69 58 70
f 69 70 71
f 69 71 16
f 69 16 15
f 69 15 72
f 69 72 54
f 54 72 55
f 55 72 14
f 55 14 6
f 55 6 5
f 15 14 72
f 16 71 19
f 12 7 6
f 12 6 14
f 4 3 56
f 3 73 74
f 74 73 75
f 74 75 76
f 74 76 77
f 77 76 78
f 78 76 79
f 78 79 80
f 78 80 81
f 81 80 82
f 82 80 83
f 83 80 84
f 83 84 85
f 86 87 88
f 87 86 89
f 89 86 90
f 89 90 91
f 91 90 84
f 91 84 92
f 92 84 80
f 92 80 93
f 93 80 94
f 94 80 79
f 94 79 75
f 75 79 76
f 2 73 3
f 95 96 97
f 97 96 98
f 97 98 99
f 95 100 96
f 96 100 101
f 96 101 98
f 98 101 102
f 102 101 103
f 103 101 104
f 104 101 100
