# RS2 Model 27040
# Vertices: 447
# Faces: 751

v 64 -16 192
v 129 128 224
v -15 64 192
v -51 -52 144
v 64 -144 144
v 192 -192 144
v 192 -64 192
v 240 72 224
v 181 96 224
v 129 128 233
v 97 180 233
v 97 180 224
v 72 240 224
v -64 192 192
v -144 64 144
v -144 -64 80
v -64 -144 80
v 64 -208 80
v 192 -272 80
v 320 -192 144
v 320 -64 192
v 320 64 224
v 320 64 233
v 240 72 233
v 181 96 233
v 140 139 246
v 110 186 246
v 88 240 246
v 72 240 233
v 64 320 224
v -64 320 192
v -192 320 144
v -192 192 144
v -208 64 80
v -168 -64 40
v -64 -168 40
v 64 -232 40
v 192 -296 40
v 320 -272 80
v 136 240 232
v 175 176 236
v 224 224 240
v 128 320 232
v 96 320 228
v 104 240 228
v 124 192 228
v 152 151 228
v 192 124 228
v 240 104 228
v 240 136 232
v 320 192 240
v 320 320 240
v 192 320 240
v 104 240 233
v 124 192 233
v 96 320 233
v 80 320 246
v 64 320 233
v 152 151 233
v 192 124 233
v 240 104 233
v 320 96 228
v 320 128 232
v 320 80 246
v 240 88 246
v 186 110 246
v 320 96 233
v 64 -232 32
v 192 -296 32
v 320 -296 40
v 192 -316 40
v 192 -304 40
v 64 -252 40
v 128 -288 37
v 160 -304 37
v 192 -320 37
v 224 -320 37
v 256 -320 37
v 320 -316 40
v 320 -304 40
v 320 -304 32
v 192 -304 32
v 64 -240 40
v -64 -188 40
v 0 -224 37
v 32 -240 37
v 64 -256 37
v 96 -272 37
v 124 -286 32
v 128 -288 0
v 132 -290 4
v 132 -290 32
v 156 -302 32
v 160 -304 0
v 164 -306 4
v 164 -306 32
v 188 -318 32
v 192 -320 0
v 196 -320 4
v 196 -320 32
v 220 -320 32
v 224 -320 0
v 228 -320 4
v 228 -320 32
v 252 -320 32
v 256 -320 0
v 260 -320 4
v 260 -320 32
v 284 -320 32
v 288 -320 37
v 320 -320 37
v 316 -320 32
v 320 -320 0
v 316 -320 4
v 292 -320 4
v 288 -320 0
v 284 -320 4
v 64 -256 0
v 68 -258 4
v 68 -258 32
v 92 -270 32
v 96 -272 0
v 100 -274 4
v 100 -274 32
v 64 -240 32
v 320 -296 32
v -64 -176 40
v 147 -286 14
v 135 -287 5
v 155 -298 5
v 155 -298 31
v 135 -287 31
v 156 -302 4
v 116 -273 22
v 124 -281 31
v 103 -271 31
v 103 -271 5
v 124 -281 5
v 124 -286 4
v 174 -300 25
v 187 -314 31
v 167 -303 31
v 167 -303 5
v 187 -314 5
v 188 -318 4
v 76 -252 18
v 71 -255 5
v 93 -267 5
v 93 -267 31
v 71 -255 31
v 92 -270 4
v -232 64 40
v -272 192 80
v -296 192 40
v -232 64 32
v -168 -64 32
v -64 -168 32
v -64 -176 32
v -252 64 40
v -187 -64 40
v -240 64 40
v -304 192 40
v -316 192 40
v -288 128 37
v -272 96 37
v -256 64 37
v -240 32 37
v -224 0 37
v -208 -32 37
v -192 -64 37
v -194 -60 32
v -192 -64 32
v -175 -81 37
v -176 -80 32
v -175 -81 0
v -172 -84 4
v -172 -84 32
v -153 -103 37
v -156 -100 32
v -153 -103 0
v -150 -106 4
v -150 -106 32
v -130 -126 37
v -150 -100 40
v -186 -64 40
v -192 -64 4
v -194 -60 4
v -192 -64 0
v -176 -80 4
v -187 -64 5
v -240 32 0
v -238 28 32
v -226 4 32
v -226 4 4
v -224 0 0
v -222 -4 32
v -210 -28 32
v -210 -28 4
v -208 -32 0
v -206 -36 32
v -177 -64 40
v -240 64 32
v -304 192 32
v -304 320 40
v -316 320 40
v -320 256 37
v -320 224 37
v -320 192 37
v -304 160 37
v -302 156 32
v -290 132 32
v -290 132 4
v -288 128 0
v -286 124 32
v -274 100 32
v -274 100 4
v -272 96 0
v -270 92 32
v -258 68 32
v -258 68 4
v -256 64 0
v -254 60 32
v -242 36 32
v -242 36 4
v -254 60 4
v -250 59 31
v -250 59 5
v -236 46 25
v -239 39 31
v -239 39 5
v -177 -64 32
v -64 -177 32
v -64 -177 40
v -108 -148 37
v -87 -169 37
v -64 -192 37
v -32 -208 37
v -4 -222 32
v 0 -224 0
v 4 -226 4
v 4 -226 32
v 28 -238 32
v 32 -240 0
v 36 -242 4
v 36 -242 32
v 60 -254 32
v 60 -254 4
v -296 192 32
v -304 320 32
v -222 19 14
v -234 27 5
v -223 7 5
v -223 7 31
v -234 27 31
v -238 28 4
v -209 -12 22
v -207 -25 31
v -217 -4 31
v -217 -4 5
v -207 -25 5
v -222 -4 4
v -188 -52 18
v -203 -35 5
v -191 -57 5
v -191 -57 31
v -203 -35 31
v -206 -36 4
v -64 -192 0
v -60 -194 4
v -60 -194 32
v -36 -206 32
v -32 -208 0
v -28 -210 4
v -28 -210 32
v 19 -222 14
v 7 -223 5
v 27 -234 5
v 27 -234 31
v 7 -223 31
v 28 -238 4
v -12 -209 22
v -4 -217 31
v -25 -207 31
v -25 -207 5
v -4 -217 5
v -4 -222 4
v 46 -236 25
v 59 -250 31
v 39 -239 31
v 39 -239 5
v 59 -250 5
v -52 -188 18
v -57 -191 5
v -35 -203 5
v -35 -203 31
v -57 -191 31
v -36 -206 4
v -89 -166 32
v -87 -169 0
v -84 -172 4
v -84 -172 32
v -67 -189 32
v -67 -189 4
v -130 -126 0
v -127 -129 4
v -133 -123 32
v -133 -123 4
v -111 -145 32
v -108 -148 0
v -105 -151 4
v -105 -151 32
v -92 -154 14
v -102 -149 5
v -87 -162 5
v -87 -162 31
v -102 -149 31
v -89 -166 4
v -111 -135 22
v -109 -142 31
v -124 -126 31
v -124 -126 5
v -109 -142 5
v -111 -145 4
v -73 -173 25
v -65 -186 31
v -80 -170 31
v -80 -170 5
v -65 -186 5
v -141 -105 18
v -146 -104 5
v -131 -119 5
v -131 -119 31
v -146 -104 31
v -127 -129 32
v -163 -83 18
v -168 -82 5
v -154 -96 5
v -154 -96 31
v -168 -82 31
v -156 -100 4
v -182 -65 18
v -174 -76 5
v -174 -76 31
v -187 -64 31
v -272 320 80
v -296 320 40
v -296 320 32
v -304 160 0
v -302 156 4
v -298 155 31
v -298 155 5
v -286 147 14
v -287 135 31
v -287 135 5
v -306 164 4
v -320 192 0
v -318 188 4
v -318 188 32
v -320 196 32
v -320 196 4
v -320 220 4
v -320 224 0
v -320 228 32
v -320 228 4
v -320 252 4
v -320 256 0
v -320 260 32
v -320 260 4
v -320 284 4
v -320 288 0
v -320 288 37
v -320 292 32
v -320 292 4
v -320 316 4
v -320 320 0
v -320 320 37
v -320 316 32
v -320 284 32
v -316 283 5
v -316 283 31
v -313 268 22
v -316 261 31
v -316 261 5
v -273 116 22
v -271 103 31
v -281 124 31
v -281 124 5
v -271 103 5
v -286 124 4
v -300 174 25
v -303 167 31
v -314 187 31
v -314 187 5
v -303 167 5
v -306 164 32
v -252 76 18
v -267 93 5
v -255 71 5
v -255 71 31
v -267 93 31
v -270 92 4
v 273 -313 14
v 261 -316 5
v 283 -316 5
v 283 -316 31
v 261 -316 31
v 244 -313 22
v 251 -316 31
v 229 -316 31
v 229 -316 5
v 251 -316 5
v 252 -320 4
v 300 -313 25
v 315 -316 31
v 293 -316 31
v 293 -316 5
v 315 -316 5
v 202 -313 18
v 197 -316 5
v 219 -316 5
v 219 -316 31
v 197 -316 31
v 220 -320 4
v 292 -320 32
v -313 239 14
v -316 251 5
v -316 229 5
v -316 229 31
v -316 251 31
v -320 252 32
v -313 212 25
v -316 197 31
v -316 219 31
v -316 219 5
v -316 197 5
v -313 310 18
v -316 315 5
v -316 293 5
v -316 293 31
v -316 315 31
v -320 220 32
v 312 94 231
v 312 310 247
v 95 96 214
v 5 149 184
v -113 33 75
v 150 3 183

f 1 2 3
f 1 3 4
f 1 4 5
f 1 5 6
f 1 6 7
f 1 7 8
f 1 8 9
f 1 9 2
f 2 9 10
f 2 10 11
f 2 11 12
f 2 12 3
f 3 12 13
f 3 13 14
f 3 14 15
f 3 15 4
f 4 15 16
f 4 16 17
f 4 17 5
f 5 17 18
f 5 18 6
f 6 18 19
f 6 19 20
f 6 20 7
f 7 20 21
f 7 21 8
f 8 21 22
f 8 22 23
f 8 23 24
f 8 24 25
f 8 25 9
f 9 25 10
f 10 25 26
f 10 26 27
f 10 27 11
f 11 27 28
f 11 28 29
f 11 29 12
f 12 29 13
f 13 29 30
f 13 30 31
f 13 31 14
f 14 31 32
f 14 32 33
f 14 33 15
f 15 33 34
f 15 34 16
f 16 34 35
f 16 35 17
f 17 35 36
f 17 36 18
f 18 36 37
f 18 37 19
f 19 37 38
f 19 38 39
f 19 39 20
f 40 41 42
f 40 42 43
f 40 43 44
f 40 44 45
f 40 45 46
f 40 46 47
f 40 47 41
f 41 47 48
f 41 48 49
f 41 49 50
f 41 50 42
f 42 50 51
f 42 51 52
f 42 52 53
f 42 53 43
f 54 28 27
f 54 27 55
f 54 55 45
f 54 45 56
f 54 56 57
f 54 57 28
f 28 57 58
f 28 58 29
f 29 58 30
f 46 45 55
f 46 55 59
f 46 59 47
f 47 59 60
f 47 60 48
f 48 60 61
f 48 61 49
f 49 61 62
f 49 62 63
f 49 63 50
f 50 63 51
f 23 64 24
f 24 64 65
f 24 65 66
f 24 66 25
f 25 66 26
f 26 66 59
f 26 59 55
f 26 55 27
f 61 65 67
f 61 67 62
f 64 67 65
f 44 56 45
f 65 61 60
f 65 60 66
f 66 60 59
f 37 68 38
f 38 68 69
f 38 69 70
f 38 70 39
f 71 72 73
f 71 73 74
f 71 74 75
f 71 75 76
f 71 76 77
f 71 77 78
f 71 78 79
f 71 79 80
f 71 80 72
f 72 80 81
f 72 81 82
f 72 82 83
f 72 83 73
f 73 83 84
f 73 84 85
f 73 85 86
f 73 86 87
f 73 87 88
f 73 88 74
f 74 88 89
f 74 89 90
f 74 90 91
f 74 91 92
f 74 92 93
f 74 93 75
f 75 93 94
f 75 94 95
f 75 95 96
f 75 96 97
f 75 97 76
f 76 97 98
f 76 98 99
f 76 99 100
f 76 100 77
f 77 100 101
f 77 101 102
f 77 102 103
f 77 103 104
f 77 104 105
f 77 105 78
f 78 105 106
f 78 106 107
f 78 107 108
f 78 108 109
f 78 109 110
f 78 110 79
f 79 110 111
f 111 110 112
f 111 112 113
f 113 112 114
f 113 114 115
f 113 115 116
f 116 115 110
f 116 110 109
f 116 109 117
f 116 117 107
f 116 107 106
f 87 118 119
f 87 119 120
f 87 120 88
f 88 120 121
f 88 121 122
f 88 122 123
f 88 123 124
f 88 124 89
f 68 125 69
f 69 125 82
f 69 82 126
f 69 126 70
f 125 83 82
f 83 125 127
f 83 127 84
f 128 129 130
f 128 130 131
f 128 131 132
f 128 132 129
f 129 132 92
f 129 92 91
f 129 91 133
f 129 133 130
f 130 133 131
f 131 133 93
f 93 133 94
f 94 133 91
f 94 91 90
f 134 135 136
f 134 136 137
f 134 137 138
f 134 138 135
f 135 138 139
f 135 139 89
f 89 139 90
f 90 139 123
f 90 123 122
f 140 141 142
f 140 142 143
f 140 143 144
f 140 144 141
f 141 144 145
f 141 145 97
f 97 145 98
f 98 145 95
f 98 95 94
f 146 147 148
f 146 148 149
f 146 149 150
f 146 150 147
f 147 150 120
f 147 120 119
f 147 119 151
f 147 151 148
f 148 151 149
f 149 151 121
f 121 151 122
f 122 151 119
f 122 119 118
f 123 137 124
f 124 137 136
f 95 143 96
f 96 143 142
f 137 123 139
f 137 139 138
f 143 95 145
f 143 145 144
f 152 35 34
f 152 34 153
f 152 153 154
f 152 154 155
f 152 155 156
f 152 156 35
f 35 156 36
f 36 156 157
f 36 157 37
f 37 157 68
f 68 157 158
f 68 158 125
f 125 158 127
f 159 160 161
f 159 161 162
f 159 162 163
f 159 163 164
f 159 164 165
f 159 165 166
f 159 166 167
f 159 167 168
f 159 168 160
f 160 168 169
f 160 169 170
f 170 169 171
f 170 171 172
f 170 172 173
f 173 172 174
f 173 174 175
f 173 175 176
f 173 176 177
f 173 177 178
f 178 177 179
f 178 179 180
f 178 180 181
f 178 181 182
f 178 182 183
f 178 183 184
f 178 184 185
f 178 185 170
f 186 172 171
f 186 171 187
f 186 187 188
f 186 188 175
f 186 175 189
f 186 189 190
f 186 190 172
f 186 172 170
f 186 170 188
f 167 191 192
f 167 192 168
f 168 192 193
f 168 193 194
f 168 194 195
f 168 195 196
f 168 196 169
f 169 196 197
f 169 197 198
f 169 198 199
f 169 199 200
f 169 200 171
f 201 161 160
f 161 201 202
f 161 202 203
f 161 203 162
f 162 203 204
f 162 204 205
f 162 205 163
f 163 205 206
f 163 206 207
f 163 207 208
f 163 208 209
f 163 209 164
f 164 209 210
f 164 210 211
f 164 211 212
f 164 212 213
f 164 213 214
f 164 214 165
f 165 214 215
f 165 215 216
f 165 216 217
f 165 217 218
f 165 218 219
f 165 219 166
f 166 219 220
f 166 220 221
f 166 221 222
f 166 222 167
f 167 222 223
f 167 223 224
f 167 224 191
f 191 224 221
f 221 224 225
f 221 225 222
f 222 225 226
f 226 225 227
f 226 227 228
f 226 228 229
f 229 228 230
f 229 230 223
f 223 230 224
f 224 230 225
f 225 230 227
f 227 230 228
f 156 155 231
f 156 231 157
f 157 231 232
f 232 231 201
f 232 201 233
f 233 201 184
f 233 184 84
f 84 184 234
f 84 234 235
f 84 235 236
f 84 236 237
f 84 237 85
f 85 237 238
f 85 238 239
f 85 239 240
f 85 240 241
f 85 241 242
f 85 242 86
f 86 242 243
f 86 243 244
f 86 244 245
f 86 245 246
f 86 246 87
f 87 246 118
f 118 246 247
f 118 247 244
f 118 244 243
f 202 231 155
f 202 155 248
f 202 248 203
f 203 248 249
f 203 249 204
f 231 202 201
f 250 251 252
f 250 252 253
f 250 253 254
f 250 254 251
f 251 254 255
f 251 255 252
f 252 255 194
f 252 194 193
f 252 193 253
f 256 257 258
f 256 258 259
f 256 259 260
f 256 260 257
f 257 260 197
f 197 260 198
f 198 260 261
f 198 261 195
f 198 195 199
f 262 263 264
f 262 264 265
f 262 265 266
f 262 266 263
f 263 266 267
f 263 267 264
f 264 267 187
f 264 187 171
f 264 171 265
f 192 255 254
f 255 192 191
f 255 191 194
f 194 191 195
f 200 267 266
f 267 200 199
f 267 199 187
f 187 199 188
f 196 261 258
f 258 261 259
f 259 261 260
f 196 195 261
f 236 268 269
f 236 269 270
f 236 270 237
f 237 270 271
f 237 271 272
f 237 272 273
f 237 273 274
f 237 274 238
f 275 276 277
f 275 277 278
f 275 278 279
f 275 279 276
f 276 279 241
f 276 241 240
f 276 240 280
f 276 280 277
f 277 280 278
f 278 280 242
f 242 280 243
f 243 280 240
f 243 240 239
f 281 282 283
f 281 283 284
f 281 284 285
f 281 285 282
f 282 285 286
f 282 286 238
f 238 286 239
f 239 286 273
f 239 273 272
f 287 288 289
f 287 289 290
f 287 290 291
f 287 291 288
f 288 291 247
f 288 247 246
f 292 293 294
f 292 294 295
f 292 295 296
f 292 296 293
f 293 296 270
f 293 270 269
f 293 269 297
f 293 297 294
f 294 297 295
f 295 297 271
f 271 297 272
f 272 297 269
f 272 269 268
f 273 284 274
f 274 284 283
f 244 290 245
f 245 290 289
f 284 273 286
f 284 286 285
f 290 244 247
f 290 247 291
f 235 298 299
f 235 299 300
f 235 300 301
f 235 301 302
f 235 302 236
f 236 302 268
f 268 302 303
f 268 303 300
f 268 300 299
f 201 185 184
f 304 305 183
f 304 183 306
f 304 306 307
f 304 307 181
f 304 181 180
f 184 183 234
f 234 183 308
f 234 308 309
f 234 309 310
f 234 310 311
f 234 311 298
f 234 298 235
f 312 313 314
f 312 314 315
f 312 315 316
f 312 316 313
f 313 316 311
f 313 311 310
f 313 310 317
f 313 317 314
f 314 317 315
f 315 317 298
f 298 317 299
f 299 317 310
f 299 310 309
f 318 319 320
f 318 320 321
f 318 321 322
f 318 322 319
f 319 322 323
f 319 323 308
f 308 323 309
f 309 323 305
f 309 305 304
f 324 325 326
f 324 326 327
f 324 327 328
f 324 328 325
f 325 328 303
f 325 303 302
f 329 330 331
f 329 331 332
f 329 332 333
f 329 333 330
f 330 333 182
f 330 182 181
f 330 181 307
f 330 307 331
f 331 307 332
f 332 307 306
f 305 321 334
f 305 334 183
f 183 334 308
f 300 327 301
f 301 327 326
f 182 306 183
f 321 305 323
f 321 323 322
f 327 300 303
f 327 303 328
f 321 320 334
f 335 336 337
f 335 337 338
f 335 338 339
f 335 339 336
f 336 339 177
f 336 177 176
f 336 176 340
f 336 340 337
f 337 340 338
f 338 340 179
f 179 340 180
f 180 340 176
f 180 176 175
f 341 190 342
f 341 342 343
f 341 343 344
f 341 344 190
f 190 344 172
f 174 343 189
f 174 189 175
f 190 189 342
f 342 189 343
f 153 34 33
f 153 33 345
f 153 345 346
f 153 346 154
f 154 346 347
f 154 347 248
f 154 248 155
f 209 348 210
f 210 348 349
f 210 349 350
f 350 349 351
f 350 351 352
f 350 352 353
f 353 352 354
f 353 354 211
f 211 354 212
f 212 354 349
f 212 349 348
f 212 348 213
f 348 209 355
f 348 355 356
f 356 355 357
f 356 357 358
f 356 358 208
f 356 208 359
f 356 359 360
f 356 360 361
f 356 361 362
f 362 361 207
f 362 207 363
f 362 363 364
f 362 364 365
f 362 365 366
f 366 365 206
f 366 206 367
f 366 367 368
f 366 368 369
f 366 369 370
f 370 369 371
f 370 371 372
f 370 372 373
f 370 373 374
f 370 374 375
f 375 374 376
f 376 374 377
f 376 377 371
f 376 371 205
f 205 371 206
f 206 371 367
f 367 371 378
f 378 371 369
f 378 369 379
f 378 379 380
f 380 379 381
f 380 381 382
f 382 381 383
f 382 383 368
f 382 368 367
f 352 351 354
f 354 351 349
f 384 385 386
f 384 386 387
f 384 387 388
f 384 388 385
f 385 388 215
f 215 388 216
f 216 388 389
f 216 389 213
f 216 213 217
f 390 391 392
f 390 392 393
f 390 393 394
f 390 394 391
f 391 394 395
f 395 394 355
f 395 355 209
f 395 209 358
f 358 209 208
f 396 397 398
f 396 398 399
f 396 399 400
f 396 400 397
f 397 400 401
f 397 401 398
f 398 401 220
f 398 220 219
f 398 219 399
f 218 401 400
f 401 218 217
f 401 217 220
f 220 217 221
f 214 389 386
f 386 389 387
f 387 389 388
f 214 213 389
f 358 357 392
f 392 357 393
f 393 357 394
f 394 357 355
f 81 126 82
f 402 403 404
f 402 404 405
f 402 405 406
f 402 406 403
f 403 406 108
f 403 108 107
f 403 107 117
f 403 117 404
f 404 117 405
f 405 117 109
f 407 408 409
f 407 409 410
f 407 410 411
f 407 411 408
f 408 411 412
f 408 412 105
f 105 412 106
f 106 412 103
f 106 103 102
f 413 414 415
f 413 415 416
f 413 416 417
f 413 417 414
f 414 417 114
f 414 114 112
f 418 419 420
f 418 420 421
f 418 421 422
f 418 422 419
f 419 422 100
f 419 100 99
f 419 99 423
f 419 423 420
f 420 423 421
f 421 423 101
f 101 423 102
f 102 423 99
f 102 99 98
f 103 410 104
f 104 410 409
f 115 416 424
f 115 424 110
f 110 424 112
f 410 103 412
f 410 412 411
f 416 115 114
f 416 114 417
f 416 415 424
f 33 32 345
f 347 249 248
f 425 426 427
f 425 427 428
f 425 428 429
f 425 429 426
f 426 429 430
f 426 430 365
f 426 365 364
f 426 364 427
f 427 364 428
f 428 364 363
f 431 432 433
f 431 433 434
f 431 434 435
f 431 435 432
f 432 435 360
f 432 360 359
f 436 437 438
f 436 438 439
f 436 439 440
f 436 440 437
f 437 440 377
f 437 377 374
f 437 374 373
f 437 373 438
f 438 373 439
f 439 373 372
f 381 379 383
f 383 379 368
f 368 379 369
f 361 434 441
f 361 441 207
f 207 441 359
f 207 359 208
f 365 430 206
f 206 430 363
f 206 363 207
f 377 372 371
f 434 361 360
f 434 360 435
f 434 433 441
