# RS2 Model 27047
# Vertices: 68
# Faces: 94

v -6 0 49
v -2 8 73
v -14 -16 73
v -39 -64 49
v -39 -64 0
v 27 64 0
v 27 64 49
v 27 64 73
v 27 64 167
v -2 8 167
v -22 17 73
v -34 -7 73
v -34 -7 167
v -14 -16 167
v -39 -64 73
v -39 -64 175
v -8 -4 175
v -39 -64 187
v -5 2 197
v -39 -64 197
v -29 -64 210
v 4 0 210
v 2 -5 240
v -29 -64 240
v -64 -64 240
v -28 4 240
v -25 11 232
v -25 10 218
v -64 -64 207
v -26 9 208
v -28 5 175
v -64 -64 175
v -64 -64 167
v -64 -64 73
v -46 -29 36
v -64 -64 0
v -10 41 28
v 2 64 0
v 2 64 73
v 2 64 167
v -22 17 167
v 2 64 175
v 2 64 208
v 2 64 210
v -25 11 210
v -5 2 210
v 27 64 210
v 27 64 197
v 27 64 175
v 6 4 223
v 19 31 234
v 37 64 237
v 37 64 240
v 2 64 240
v 2 64 237
v -8 44 234
v -23 16 225
v -23 15 221
v 3 2 210
v 5 6 221
v 19 33 232
v 35 64 234
v -8 44 232
v 2 64 235
v -39 -64 167
v -65 -66 241
v 3 65 241
v -65 -66 -2

f 1 2 3
f 1 3 4
f 1 4 5
f 1 5 6
f 1 6 7
f 1 7 2
f 2 7 8
f 2 8 9
f 2 9 10
f 2 10 11
f 2 11 12
f 2 12 3
f 3 12 13
f 3 13 14
f 3 14 15
f 3 15 4
f 16 14 17
f 16 17 18
f 18 17 19
f 18 19 20
f 20 19 21
f 21 19 22
f 21 22 23
f 21 23 24
f 24 23 25
f 25 23 26
f 25 26 27
f 25 27 28
f 25 28 29
f 29 28 30
f 29 30 31
f 29 31 32
f 32 31 13
f 32 13 33
f 33 13 12
f 33 12 34
f 34 12 35
f 34 35 36
f 36 35 37
f 36 37 38
f 38 37 39
f 39 37 11
f 39 11 40
f 40 11 41
f 40 41 31
f 40 31 42
f 42 31 43
f 43 31 30
f 43 30 44
f 44 30 45
f 44 45 46
f 44 46 47
f 47 46 48
f 48 46 19
f 48 19 17
f 48 17 49
f 49 17 9
f 9 17 10
f 22 50 23
f 23 50 51
f 23 51 52
f 23 52 53
f 23 53 26
f 26 53 54
f 26 54 55
f 26 55 56
f 26 56 27
f 27 56 57
f 27 57 28
f 28 57 58
f 28 58 45
f 28 45 30
f 19 59 22
f 22 59 50
f 50 59 60
f 50 60 61
f 50 61 51
f 51 61 52
f 52 61 62
f 63 56 64
f 64 56 55
f 57 56 63
f 57 63 58
f 58 63 60
f 58 60 46
f 58 46 45
f 61 60 63
f 35 12 11
f 35 11 37
f 10 41 11
f 60 59 46
f 46 59 19
f 15 14 65
f 65 14 16
