# RS2 Model 27088
# Vertices: 50
# Faces: 61

v 32 -48 0
v 48 -48 0
v 48 -32 0
v 32 -32 0
v 0 -48 0
v 2 -57 0
v 16 -60 0
v 26 -57 0
v 36 -57 0
v 49 -61 0
v 60 -54 0
v 58 -45 0
v 59 -36 0
v 57 -27 0
v 62 -16 0
v 48 0 0
v 32 0 0
v 0 -32 0
v -32 -48 0
v -25 -60 0
v -12 -60 0
v 48 32 0
v 32 32 0
v 0 0 0
v -32 -32 0
v -64 -48 0
v -51 -61 0
v -36 -58 0
v 48 64 0
v 32 64 0
v 0 32 0
v -32 0 0
v -64 -32 0
v 0 64 0
v -32 32 0
v -64 0 0
v -32 64 0
v -64 32 0
v -64 64 0
v -64 -61 0
v 58 -7 0
v 58 8 0
v 56 29 0
v 59 38 0
v 58 53 0
v 61 64 0
v 60 18 0
v 64 64 0
v -64 64 0
v 64 -64 0

f 1 2 3
f 1 3 4
f 1 4 5
f 1 5 6
f 1 6 7
f 1 7 8
f 1 8 9
f 1 9 2
f 2 9 10
f 2 10 11
f 2 11 12
f 2 12 3
f 3 12 13
f 3 13 14
f 3 14 15
f 3 15 16
f 3 16 4
f 4 16 17
f 4 17 18
f 4 18 5
f 5 18 19
f 5 19 20
f 5 20 21
f 5 21 6
f 17 16 22
f 17 22 23
f 17 23 24
f 17 24 18
f 18 24 25
f 18 25 19
f 19 25 26
f 19 26 27
f 19 27 28
f 19 28 20
f 23 22 29
f 23 29 30
f 23 30 31
f 23 31 24
f 24 31 32
f 24 32 25
f 25 32 33
f 25 33 26
f 31 30 34
f 31 34 35
f 31 35 32
f 32 35 36
f 32 36 33
f 35 34 37
f 35 37 38
f 35 38 36
f 38 37 39
f 40 27 26
f 15 41 16
f 16 41 42
f 16 42 22
f 22 42 43
f 22 43 44
f 22 44 45
f 22 45 29
f 29 45 46
f 42 47 43
