# RS2 Model 27154
# Vertices: 193
# Faces: 334

v 7 -11 196
v 3 -17 189
v 8 -11 192
v 7 -4 197
v 3 -6 196
v 3 -11 194
v 0 -11 196
v 0 -19 191
v 0 -18 184
v 8 -15 184
v 10 -10 191
v 8 -2 194
v 7 3 196
v 3 -2 196
v 0 -4 198
v 7 9 192
v 8 5 191
v 6 12 188
v 3 7 191
v 11 -1 191
v 9 5 189
v 5 12 183
v 4 14 182
v 2 13 183
v 3 10 188
v 0 11 189
v 0 8 192
v 3 3 194
v 0 4 195
v -3 -2 196
v -3 -6 196
v -3 -11 194
v -3 -17 189
v -8 -15 184
v -9 -15 182
v -1 -18 181
v 0 -20 178
v 1 -18 181
v 9 -15 182
v 12 -9 184
v 11 -9 185
v 0 14 170
v 0 14 184
v -3 10 188
v -3 7 191
v -3 3 194
v 12 -1 185
v 12 -9 182
v 14 2 181
v 3 -18 175
v 7 -16 176
v 2 -17 179
v 1 -17 181
v 11 -10 179
v 11 -8 178
v 11 -3 179
v 11 -4 171
v 12 6 168
v 10 9 181
v 8 11 167
v 0 13 167
v -8 11 167
v -5 12 183
v -4 14 182
v -2 13 183
v -6 12 188
v -7 9 192
v -7 3 196
v 11 -11 176
v 7 -11 169
v 10 -8 178
v 7 -12 170
v 10 -11 176
v 8 -12 170
v 3 -14 165
v 7 -10 167
v 11 -1 168
v 10 -4 171
v 3 -15 167
v 9 -15 179
v 8 -14 179
v 10 6 166
v 3 -13 164
v 8 6 165
v 5 9 165
v 0 11 166
v -5 9 165
v -8 6 165
v -10 6 166
v -12 6 168
v -10 9 181
v -9 5 189
v -8 5 191
v 8 -1 165
v 10 -3 179
v 5 5 182
v 0 8 185
v -5 5 182
v -10 -3 179
v -10 -4 171
v -11 -1 168
v -8 -1 165
v -11 -4 171
v -14 2 181
v -12 -1 185
v -11 -1 191
v -8 -2 194
v 5 -14 182
v 2 -15 180
v 5 -14 179
v 8 -11 180
v 7 -15 184
v 0 -18 183
v 0 -17 181
v 3 -16 175
v 8 -13 178
v 9 -9 181
v 8 -11 185
v 0 -16 187
v 0 -17 185
v -7 -15 184
v -5 -14 182
v -2 -15 180
v -3 -16 175
v 0 -20 175
v 0 -17 174
v 8 1 173
v 9 -1 175
v 7 -2 170
v 0 6 173
v 8 1 165
v 0 9 165
v -8 1 165
v -7 -2 170
v -8 1 173
v -9 -1 175
v -11 3 176
v -9 4 176
v -11 5 180
v -9 5 179
v -11 1 183
v -12 1 182
v -10 -2 180
v -8 -11 185
v -9 -9 181
v 11 3 176
v 9 1 178
v 10 -2 180
v 12 1 182
v 11 1 183
v 9 -7 177
v 7 -10 174
v 4 -15 173
v 12 4 180
v 11 5 180
v 9 5 179
v 9 4 176
v 0 -6 165
v 0 -6 160
v -7 -11 196
v -8 -11 192
v -7 -4 197
v -10 -10 191
v -11 -9 185
v -12 -9 184
v -12 -9 182
v -11 -10 179
v -9 -15 179
v -8 -14 179
v -2 -17 179
v -7 -16 176
v -3 -18 175
v -1 -17 181
v -11 -8 178
v -11 -11 176
v -7 -11 169
v -10 -8 178
v -7 -12 170
v -3 -15 167
v -7 -10 167
v -3 -14 165
v -8 -12 170
v -10 -11 176
v -11 -3 179
v -3 -13 164
v -5 -14 179
v -8 -13 178
v -4 -15 173
v -7 -10 174
v -9 -7 177
v -8 -11 180
v -9 1 178
v -12 4 180

f 1 2 3
f 1 3 4
f 1 4 5
f 1 5 6
f 1 6 2
f 2 6 7
f 2 7 8
f 2 8 9
f 2 9 10
f 2 10 11
f 2 11 3
f 3 11 12
f 3 12 4
f 4 12 13
f 4 13 14
f 4 14 5
f 5 14 15
f 5 15 7
f 5 7 6
f 16 17 18
f 16 18 19
f 16 19 13
f 16 13 17
f 17 13 12
f 17 12 20
f 17 20 21
f 17 21 22
f 17 22 18
f 18 22 23
f 18 23 24
f 18 24 25
f 18 25 19
f 19 25 26
f 19 26 27
f 19 27 28
f 19 28 13
f 13 28 14
f 14 28 29
f 14 29 15
f 15 29 30
f 15 30 31
f 15 31 7
f 7 31 32
f 7 32 33
f 7 33 8
f 8 33 9
f 9 33 34
f 9 34 35
f 9 35 36
f 9 36 37
f 9 37 38
f 9 38 39
f 9 39 10
f 10 39 40
f 10 40 41
f 10 41 11
f 11 41 20
f 11 20 12
f 23 22 42
f 23 42 24
f 24 42 43
f 24 43 25
f 25 43 26
f 26 43 44
f 26 44 45
f 26 45 27
f 27 45 46
f 27 46 29
f 27 29 28
f 47 20 41
f 47 41 40
f 47 40 48
f 47 48 49
f 47 49 21
f 47 21 20
f 50 51 52
f 50 52 37
f 37 52 38
f 38 52 53
f 48 54 49
f 49 54 55
f 49 55 56
f 49 56 57
f 49 57 58
f 49 58 59
f 49 59 21
f 21 59 22
f 22 59 60
f 22 60 42
f 42 60 61
f 42 61 62
f 42 62 63
f 42 63 64
f 42 64 65
f 42 65 43
f 43 65 44
f 44 65 66
f 44 66 45
f 45 66 67
f 45 67 68
f 45 68 46
f 46 68 30
f 46 30 29
f 54 69 55
f 55 69 70
f 55 70 71
f 71 70 72
f 71 72 73
f 73 72 74
f 73 74 69
f 69 74 70
f 70 74 75
f 70 75 76
f 70 76 77
f 70 77 57
f 70 57 78
f 70 78 77
f 70 77 76
f 70 76 79
f 70 79 72
f 72 79 74
f 74 79 75
f 80 52 51
f 80 51 69
f 80 69 54
f 80 54 39
f 80 39 81
f 80 81 52
f 48 40 39
f 48 39 54
f 77 58 57
f 58 77 82
f 58 82 60
f 58 60 59
f 76 75 83
f 76 83 79
f 60 82 84
f 60 84 85
f 60 85 61
f 61 85 86
f 61 86 87
f 61 87 62
f 62 87 88
f 62 88 89
f 62 89 90
f 62 90 91
f 62 91 63
f 63 91 92
f 63 92 93
f 63 93 66
f 63 66 64
f 64 66 65
f 84 82 94
f 84 94 77
f 84 77 78
f 84 78 85
f 85 78 95
f 85 95 96
f 85 96 97
f 85 97 86
f 86 97 87
f 87 97 98
f 87 98 99
f 87 99 100
f 87 100 88
f 88 100 101
f 88 101 102
f 88 102 89
f 89 102 101
f 89 101 90
f 90 101 103
f 90 103 104
f 90 104 91
f 91 104 92
f 92 104 105
f 92 105 106
f 92 106 93
f 93 106 107
f 93 107 68
f 93 68 67
f 93 67 66
f 57 56 95
f 57 95 78
f 82 77 94
f 108 109 110
f 108 110 111
f 108 111 112
f 108 112 113
f 108 113 109
f 109 113 114
f 109 114 115
f 109 115 110
f 110 115 116
f 110 116 111
f 111 116 117
f 111 117 112
f 112 117 118
f 112 118 119
f 112 119 120
f 112 120 113
f 113 120 121
f 113 121 122
f 113 122 123
f 113 123 114
f 114 123 124
f 114 124 125
f 114 125 115
f 115 125 126
f 126 125 124
f 127 128 129
f 127 129 130
f 130 129 131
f 130 131 132
f 130 132 133
f 130 133 134
f 130 134 135
f 135 134 136
f 135 136 137
f 135 137 138
f 138 137 139
f 138 139 140
f 140 139 141
f 141 139 142
f 141 142 143
f 141 143 144
f 144 143 145
f 144 145 121
f 144 121 119
f 119 121 120
f 128 146 147
f 128 147 148
f 148 147 149
f 148 149 150
f 148 150 118
f 148 118 117
f 148 117 151
f 151 117 116
f 151 116 152
f 152 116 153
f 153 116 115
f 146 154 147
f 147 154 149
f 149 154 155
f 149 155 150
f 150 155 156
f 156 155 157
f 157 155 146
f 157 146 127
f 127 146 128
f 155 154 146
f 158 131 129
f 131 158 159
f 159 158 133
f 133 158 134
f 160 161 33
f 160 33 32
f 160 32 31
f 160 31 162
f 160 162 161
f 161 162 107
f 161 107 163
f 161 163 33
f 33 163 34
f 34 163 164
f 34 164 165
f 34 165 35
f 35 165 166
f 35 166 167
f 35 167 168
f 35 168 169
f 169 168 170
f 170 168 171
f 170 171 172
f 170 172 37
f 170 37 36
f 170 36 173
f 162 68 107
f 68 162 30
f 30 162 31
f 105 164 106
f 106 164 163
f 106 163 107
f 105 166 165
f 105 165 164
f 104 166 105
f 166 104 167
f 167 104 174
f 167 174 175
f 167 175 168
f 168 175 171
f 176 175 174
f 176 174 177
f 176 177 178
f 176 178 179
f 176 179 180
f 176 180 181
f 176 181 182
f 176 182 175
f 175 182 183
f 183 182 178
f 183 178 177
f 182 181 179
f 182 179 178
f 104 184 174
f 184 104 103
f 184 103 99
f 99 103 100
f 100 103 176
f 100 176 101
f 101 176 103
f 176 101 180
f 176 180 101
f 180 185 181
f 185 180 179
f 122 186 123
f 123 186 124
f 124 186 187
f 124 187 188
f 188 187 189
f 189 187 190
f 190 187 145
f 190 145 143
f 122 191 186
f 186 191 187
f 187 191 145
f 145 191 121
f 121 191 122
f 136 192 137
f 137 192 193
f 137 193 139
f 139 193 142
f 142 193 192
f 142 192 143
f 143 192 136
