# RS2 Model 27179
# Vertices: 240
# Faces: 476

v 25 109 219
v 25 122 194
v -8 111 221
v -8 90 244
v 25 88 242
v 67 94 213
v 67 105 191
v 25 130 154
v -8 132 154
v -8 124 196
v -33 120 194
v -33 107 219
v -33 86 242
v -8 65 265
v 25 63 263
v 67 75 236
v 90 78 202
v 90 86 185
v 65 111 154
v 25 128 121
v -8 130 121
v -33 128 154
v 25 33 282
v -8 33 284
v 25 12 284
v 65 12 265
v 67 33 263
v 67 56 253
v 90 65 221
v 111 59 187
v 111 65 154
v 90 90 154
v 67 109 121
v 25 109 91
v -8 111 89
v -33 126 121
v -65 111 154
v -67 105 191
v -67 94 213
v -67 75 236
v -33 63 263
v -33 33 280
v -33 12 282
v -8 12 286
v 25 -12 284
v 67 -12 265
v 90 -12 244
v 90 12 244
v 90 31 242
v 90 46 236
v 111 29 213
v 128 12 187
v 128 33 154
v 111 59 125
v 90 88 123
v 67 99 98
v 67 82 79
v 25 88 66
v -8 90 64
v -33 88 68
v -33 109 91
v -67 109 121
v -90 90 154
v -90 86 185
v -90 78 202
v -90 65 221
v -67 56 253
v -67 33 263
v -65 12 265
v -67 -12 265
v -33 -12 282
v -8 -12 286
v 25 -40 276
v 67 -37 259
v 90 -31 240
v 111 -12 219
v 111 12 219
v 128 -12 187
v 132 0 170
v 132 12 166
v 132 16 154
v 132 12 142
v 128 12 121
v 111 33 95
v 90 67 89
v 90 82 108
v 90 48 76
v 67 59 60
v 25 65 45
v -8 67 43
v -33 65 47
v -67 59 60
v -67 82 79
v -67 99 98
v -90 88 123
v -111 59 125
v -111 65 154
v -111 59 187
v -111 29 213
v -90 46 236
v -90 31 242
v -90 12 244
v -90 -12 244
v -90 -31 240
v -67 -37 259
v -33 -40 274
v -8 -42 278
v -8 -67 265
v 25 -65 263
v 67 -59 248
v 90 -48 232
v 111 -33 213
v 111 -59 183
v 128 -33 154
v 132 -12 166
v 135 0 154
v 132 0 138
v 128 -12 121
v 111 12 89
v 90 31 68
v 25 -88 242
v -8 -90 244
v -8 -111 219
v 25 -109 217
v 67 -82 229
v 25 -128 187
v -8 -130 187
v 25 -130 154
v 65 -111 154
v 67 -109 187
v 67 -99 210
v 90 -67 219
v -8 -132 154
v 25 -122 114
v 67 -105 117
v 90 -86 123
v 90 -90 154
v 90 -88 185
v 90 -82 200
v -33 -65 261
v -33 -88 240
v -33 -109 217
v -33 -126 187
v -33 -128 154
v -33 -120 114
v -8 -124 112
v -8 -111 87
v 25 -109 89
v 67 -94 95
v 90 -78 106
v 111 -59 121
v 111 -65 154
v 132 -12 142
v 132 -16 154
v 111 -29 95
v 111 -12 89
v 90 -12 64
v 90 12 64
v 67 12 43
v 67 37 49
v 25 -88 66
v -8 -90 64
v -8 -65 43
v 25 -63 45
v 67 -75 72
v 25 -33 26
v -8 -33 24
v 25 -12 24
v 65 -12 43
v 67 -33 45
v 67 -56 55
v 90 -65 87
v -8 -12 22
v 25 12 24
v 90 -31 66
v 90 -46 72
v -33 -107 89
v -33 -86 66
v -33 -63 45
v -33 -33 28
v -33 -12 26
v -33 12 26
v -8 12 22
v 25 40 32
v -8 42 30
v -33 40 34
v -67 37 49
v -90 31 68
v -90 48 76
v -90 67 89
v -90 82 108
v -111 33 95
v -128 12 121
v -128 33 154
v -128 12 187
v -111 12 219
v -67 12 43
v -90 12 64
v -111 12 89
v -128 -33 154
v -132 -16 154
v -132 -12 142
v -128 -12 121
v -111 -59 121
v -111 -65 154
v -111 -59 183
v -128 -12 187
v -132 -12 166
v -135 0 154
v -132 0 138
v -111 -12 89
v -111 -29 95
v -90 -65 87
v -90 -78 106
v -90 -86 123
v -90 -90 154
v -90 -88 185
v -90 -82 200
v -90 -67 219
v -111 -33 213
v -111 -12 219
v -132 0 170
v -132 12 166
v -132 16 154
v -132 12 142
v -90 -48 232
v -67 -59 248
v -67 -82 229
v -67 -99 210
v -67 -109 187
v -65 -111 154
v -90 -46 72
v -67 -56 55
v -67 -75 72
v -67 -94 95
v -67 -105 117
v -90 -31 66
v -67 -33 45
v -90 -12 64
v -65 -12 43

f 1 2 3
f 1 3 4
f 1 4 5
f 1 5 6
f 1 6 7
f 1 7 2
f 2 7 8
f 2 8 9
f 2 9 10
f 2 10 3
f 3 10 11
f 3 11 12
f 3 12 4
f 4 12 13
f 4 13 14
f 4 14 5
f 5 14 15
f 5 15 16
f 5 16 6
f 6 16 17
f 6 17 18
f 6 18 7
f 7 18 19
f 7 19 8
f 8 19 20
f 8 20 21
f 8 21 9
f 9 21 22
f 9 22 11
f 9 11 10
f 23 15 14
f 23 14 24
f 23 24 25
f 23 25 26
f 23 26 27
f 23 27 15
f 15 27 28
f 15 28 16
f 16 28 29
f 16 29 17
f 17 29 30
f 17 30 18
f 18 30 31
f 18 31 32
f 18 32 19
f 19 32 33
f 19 33 20
f 20 33 34
f 20 34 35
f 20 35 21
f 21 35 36
f 21 36 22
f 22 36 37
f 22 37 38
f 22 38 11
f 11 38 12
f 12 38 39
f 12 39 13
f 13 39 40
f 13 40 41
f 13 41 14
f 14 41 42
f 14 42 24
f 24 42 43
f 24 43 44
f 24 44 25
f 25 44 45
f 25 45 46
f 25 46 26
f 26 46 47
f 26 47 48
f 26 48 27
f 27 48 49
f 27 49 28
f 28 49 50
f 28 50 29
f 29 50 51
f 29 51 30
f 30 51 52
f 30 52 53
f 30 53 31
f 31 53 54
f 31 54 32
f 32 54 55
f 32 55 33
f 33 55 56
f 33 56 34
f 34 56 57
f 34 57 58
f 34 58 35
f 35 58 59
f 35 59 60
f 35 60 61
f 35 61 36
f 36 61 62
f 36 62 37
f 37 62 63
f 37 63 64
f 37 64 38
f 38 64 39
f 39 64 65
f 39 65 40
f 40 65 66
f 40 66 67
f 40 67 41
f 41 67 68
f 41 68 42
f 42 68 69
f 42 69 43
f 43 69 70
f 43 70 71
f 43 71 44
f 44 71 72
f 44 72 45
f 45 72 73
f 45 73 74
f 45 74 46
f 46 74 75
f 46 75 47
f 47 75 76
f 47 76 48
f 48 76 77
f 48 77 51
f 48 51 49
f 49 51 50
f 77 52 51
f 52 77 76
f 52 76 78
f 52 78 79
f 52 79 80
f 52 80 53
f 53 80 81
f 53 81 82
f 53 82 83
f 53 83 54
f 54 83 84
f 54 84 85
f 54 85 86
f 54 86 55
f 55 86 56
f 56 86 85
f 56 85 57
f 57 85 87
f 57 87 88
f 57 88 58
f 58 88 89
f 58 89 59
f 59 89 90
f 59 90 91
f 59 91 60
f 60 91 92
f 60 92 93
f 60 93 61
f 61 93 94
f 61 94 62
f 62 94 95
f 62 95 63
f 63 95 96
f 63 96 97
f 63 97 64
f 64 97 98
f 64 98 65
f 65 98 66
f 66 98 99
f 66 99 100
f 66 100 67
f 67 100 101
f 67 101 68
f 68 101 102
f 68 102 69
f 69 102 103
f 69 103 70
f 70 103 104
f 70 104 105
f 70 105 71
f 71 105 106
f 71 106 72
f 72 106 107
f 72 107 73
f 73 107 108
f 73 108 109
f 73 109 74
f 74 109 110
f 74 110 75
f 75 110 111
f 75 111 112
f 75 112 76
f 76 112 78
f 78 112 113
f 78 113 114
f 78 114 115
f 78 115 79
f 79 115 116
f 79 116 80
f 80 116 81
f 81 116 82
f 82 116 117
f 82 117 83
f 83 117 118
f 83 118 119
f 83 119 84
f 84 119 120
f 84 120 87
f 84 87 85
f 121 109 122
f 121 122 123
f 121 123 124
f 121 124 125
f 121 125 110
f 121 110 109
f 126 124 123
f 126 123 127
f 126 127 128
f 126 128 129
f 126 129 130
f 126 130 124
f 124 130 131
f 124 131 125
f 125 131 132
f 125 132 111
f 125 111 110
f 128 127 133
f 128 133 134
f 128 134 135
f 128 135 129
f 129 135 136
f 129 136 137
f 129 137 130
f 130 137 138
f 130 138 131
f 131 138 139
f 131 139 132
f 132 139 113
f 132 113 112
f 132 112 111
f 122 109 108
f 122 108 140
f 122 140 141
f 122 141 123
f 123 141 142
f 123 142 143
f 123 143 127
f 127 143 144
f 127 144 133
f 133 144 145
f 133 145 146
f 133 146 134
f 134 146 147
f 134 147 148
f 134 148 135
f 135 148 149
f 135 149 136
f 136 149 150
f 136 150 151
f 136 151 152
f 136 152 137
f 137 152 113
f 137 113 138
f 138 113 139
f 114 153 154
f 114 154 115
f 115 154 116
f 116 154 153
f 116 153 117
f 117 153 118
f 118 153 114
f 118 114 151
f 118 151 155
f 118 155 156
f 118 156 119
f 119 156 157
f 119 157 158
f 119 158 120
f 120 158 159
f 120 159 160
f 120 160 88
f 120 88 87
f 152 114 113
f 114 152 151
f 161 148 162
f 161 162 163
f 161 163 164
f 161 164 165
f 161 165 149
f 161 149 148
f 166 164 163
f 166 163 167
f 166 167 168
f 166 168 169
f 166 169 170
f 166 170 164
f 164 170 171
f 164 171 165
f 165 171 172
f 165 172 150
f 165 150 149
f 168 167 173
f 168 173 174
f 168 174 159
f 168 159 169
f 169 159 158
f 169 158 157
f 169 157 170
f 170 157 175
f 170 175 171
f 171 175 176
f 171 176 172
f 172 176 155
f 172 155 151
f 172 151 150
f 162 148 147
f 162 147 177
f 162 177 178
f 162 178 163
f 163 178 179
f 163 179 180
f 163 180 167
f 167 180 181
f 167 181 173
f 173 181 182
f 173 182 183
f 173 183 174
f 174 183 184
f 174 184 160
f 174 160 159
f 176 175 155
f 155 175 157
f 155 157 156
f 89 184 90
f 90 184 185
f 90 185 186
f 90 186 91
f 91 186 187
f 91 187 92
f 92 187 188
f 92 188 189
f 92 189 93
f 93 189 190
f 93 190 94
f 94 190 191
f 94 191 95
f 95 191 96
f 96 191 190
f 96 190 192
f 96 192 193
f 96 193 194
f 96 194 97
f 97 194 98
f 98 194 195
f 98 195 99
f 99 195 196
f 99 196 102
f 99 102 101
f 99 101 100
f 183 185 184
f 185 183 186
f 186 183 182
f 186 182 187
f 187 182 197
f 187 197 188
f 188 197 198
f 188 198 199
f 188 199 192
f 188 192 189
f 189 192 190
f 88 160 89
f 89 160 184
f 200 201 202
f 200 202 203
f 200 203 204
f 200 204 205
f 200 205 206
f 200 206 207
f 200 207 208
f 200 208 201
f 201 208 209
f 201 209 202
f 202 209 210
f 202 210 203
f 203 210 193
f 203 193 199
f 203 199 211
f 203 211 212
f 203 212 204
f 204 212 213
f 204 213 214
f 204 214 215
f 204 215 205
f 205 215 216
f 205 216 206
f 206 216 217
f 206 217 218
f 206 218 219
f 206 219 220
f 206 220 207
f 207 220 221
f 207 221 195
f 207 195 222
f 207 222 208
f 208 222 209
f 209 222 223
f 209 223 224
f 209 224 225
f 209 225 210
f 210 225 193
f 193 225 194
f 194 225 224
f 194 224 223
f 194 223 195
f 195 223 222
f 103 102 221
f 103 221 104
f 104 221 220
f 104 220 226
f 104 226 227
f 104 227 105
f 105 227 140
f 105 140 106
f 106 140 108
f 106 108 107
f 102 196 221
f 221 196 195
f 220 219 226
f 226 219 228
f 226 228 227
f 227 228 141
f 227 141 140
f 229 228 219
f 229 219 218
f 229 218 217
f 229 217 230
f 229 230 142
f 229 142 228
f 228 142 141
f 216 231 230
f 216 230 217
f 231 144 143
f 231 143 230
f 230 143 142
f 213 212 232
f 213 232 233
f 213 233 234
f 213 234 214
f 214 234 235
f 214 235 215
f 215 235 236
f 215 236 231
f 215 231 216
f 232 212 237
f 232 237 233
f 233 237 238
f 233 238 179
f 233 179 234
f 234 179 178
f 234 178 235
f 235 178 177
f 235 177 236
f 236 177 145
f 236 145 144
f 236 144 231
f 237 212 239
f 237 239 238
f 238 239 240
f 238 240 180
f 238 180 179
f 212 211 239
f 239 211 199
f 239 199 198
f 239 198 240
f 240 198 197
f 240 197 181
f 240 181 180
f 177 147 145
f 145 147 146
f 181 197 182
f 192 199 193
