# RS2 Model 27205
# Vertices: 22
# Faces: 22

v -22 -32 -21
v 0 -52 -10
v 0 -48 -2
v -8 -44 -2
v 0 -44 -14
v 22 -32 -21
v 8 -44 -2
v 0 -48 -22
v 0 -44 -17
v 0 -48 -50
v -29 -7 -28
v -22 -27 -38
v -30 -18 -11
v -34 -2 -14
v -37 -16 10
v -37 -8 10
v 29 -7 -28
v 22 -27 -38
v 34 -2 -14
v 30 -18 -11
v 37 -8 10
v 37 -16 10

f 1 2 3
f 1 3 4
f 2 1 5
f 2 5 6
f 2 6 3
f 3 6 7
f 8 9 1
f 8 1 10
f 8 10 6
f 8 6 9
f 11 12 1
f 11 1 13
f 11 13 14
f 14 13 15
f 14 15 16
f 12 10 1
f 17 6 18
f 18 6 10
f 6 17 19
f 6 19 20
f 20 19 21
f 20 21 22
