# RS2 Model 27292
# Vertices: 106
# Faces: 185

v -48 -27 14
v -48 -48 14
v -48 -48 0
v -48 -27 0
v -48 64 14
v -48 64 19
v -48 -27 19
v -48 -48 19
v -48 -27 106
v -48 -48 106
v -49 -27 112
v -49 -49 112
v -49 -48 219
v -49 -49 219
v -48 -48 224
v -48 64 224
v -49 64 229
v -49 -48 229
v -49 -49 229
v -49 -48 278
v -49 -49 278
v -48 -48 293
v -48 64 293
v -64 -48 293
v -64 -64 293
v -64 -49 278
v -64 -63 278
v -64 -64 278
v -64 -64 229
v -64 -63 229
v -64 -64 224
v -64 -48 224
v -64 -49 219
v -64 -63 219
v -64 -64 219
v -64 -64 112
v -64 -63 112
v -64 -64 106
v -64 -48 106
v -64 -48 19
v -64 -64 19
v -64 -48 14
v -64 -64 14
v -64 -48 0
v -64 -64 0
v -64 -49 112
v -63 -48 219
v -63 -27 112
v -64 -27 106
v -64 -27 19
v -64 -27 14
v -64 -27 0
v -64 64 0
v -64 64 14
v -48 64 0
v -64 -49 229
v -63 -48 278
v -63 -48 229
v -64 64 224
v -63 64 219
v -64 64 19
v -48 64 106
v -49 61 100
v -49 61 25
v -49 58 25
v -49 18 25
v -49 15 25
v -49 -24 25
v -49 -24 100
v -49 15 100
v -49 18 100
v -49 64 112
v -49 64 219
v -63 64 229
v -63 64 278
v -49 64 278
v -64 64 293
v -64 64 106
v -63 64 112
v -63 61 25
v -63 61 100
v -63 58 100
v -63 18 100
v -63 15 100
v -63 -24 100
v -63 -24 25
v -63 15 25
v -63 18 25
v -63 58 25
v -61 53 35
v -61 53 90
v -61 23 90
v -61 10 35
v -61 10 90
v -61 -19 90
v -61 -19 35
v -61 23 35
v -51 10 90
v -51 -19 90
v -51 -19 35
v -51 10 35
v -51 53 90
v -51 23 90
v -51 23 35
v -51 53 35
v -49 58 100

f 1 2 3
f 1 3 4
f 1 4 5
f 1 5 6
f 1 6 7
f 1 7 2
f 2 7 8
f 8 7 9
f 8 9 10
f 10 9 11
f 10 11 12
f 12 11 13
f 12 13 14
f 14 13 15
f 15 13 16
f 15 16 17
f 15 17 18
f 15 18 19
f 19 18 20
f 19 20 21
f 21 20 22
f 22 20 23
f 22 23 24
f 22 24 25
f 25 24 26
f 25 26 27
f 25 27 28
f 28 27 29
f 29 27 30
f 29 30 31
f 31 30 32
f 31 32 33
f 31 33 34
f 31 34 35
f 35 34 36
f 36 34 37
f 36 37 38
f 38 37 39
f 38 39 40
f 38 40 41
f 41 40 42
f 41 42 43
f 43 42 44
f 43 44 45
f 46 39 37
f 46 37 34
f 46 34 33
f 46 33 47
f 46 47 48
f 46 48 39
f 39 48 49
f 39 49 40
f 40 49 50
f 40 50 42
f 42 50 51
f 42 51 44
f 44 51 52
f 52 51 53
f 53 51 54
f 53 54 5
f 53 5 55
f 55 5 4
f 56 32 30
f 56 30 27
f 56 27 26
f 56 26 57
f 56 57 58
f 56 58 32
f 32 58 59
f 32 59 60
f 32 60 47
f 32 47 33
f 54 51 50
f 54 50 61
f 54 61 5
f 5 61 6
f 6 61 62
f 6 62 63
f 6 63 64
f 6 64 65
f 6 65 66
f 6 66 7
f 7 66 67
f 7 67 68
f 7 68 9
f 9 68 69
f 9 69 70
f 9 70 71
f 9 71 62
f 9 62 72
f 9 72 11
f 11 72 73
f 11 73 13
f 13 73 16
f 16 73 59
f 16 59 74
f 16 74 17
f 17 74 75
f 17 75 76
f 17 76 18
f 18 76 20
f 20 76 23
f 23 76 77
f 23 77 24
f 24 77 75
f 24 75 57
f 24 57 26
f 78 49 48
f 78 48 79
f 78 79 72
f 78 72 62
f 78 62 61
f 78 61 80
f 78 80 81
f 78 81 82
f 78 82 83
f 78 83 49
f 49 83 84
f 49 84 85
f 49 85 50
f 50 85 86
f 50 86 87
f 50 87 88
f 50 88 61
f 61 88 89
f 61 89 80
f 80 89 81
f 81 89 82
f 82 89 90
f 82 90 91
f 82 91 83
f 83 91 92
f 83 92 88
f 83 88 87
f 83 87 84
f 84 87 93
f 84 93 94
f 84 94 85
f 85 94 95
f 85 95 86
f 86 95 96
f 86 96 87
f 87 96 93
f 93 96 95
f 93 95 94
f 79 48 47
f 79 47 60
f 79 60 72
f 72 60 73
f 73 60 59
f 59 58 74
f 74 58 57
f 74 57 75
f 90 97 92
f 90 92 91
f 97 90 89
f 97 89 88
f 97 88 92
f 98 99 100
f 98 100 101
f 98 101 67
f 98 67 70
f 98 70 99
f 99 70 69
f 99 69 100
f 100 69 68
f 100 68 101
f 101 68 67
f 102 103 104
f 102 104 105
f 102 105 65
f 102 65 106
f 102 106 103
f 103 106 71
f 103 71 104
f 104 71 66
f 104 66 105
f 105 66 65
f 70 67 66
f 70 66 71
f 106 65 64
f 106 64 63
f 106 63 62
f 106 62 71
f 77 76 75
