# RS2 Model 2729
# Vertices: 65
# Faces: 121

v 6 12 2
v 7 13 2
v 0 16 2
v 1 14 2
v 1 14 4
v 6 12 4
v 8 7 4
v 8 7 2
v 9 8 2
v 7 13 4
v 0 16 4
v -7 13 2
v -1 14 2
v -1 14 4
v -6 12 4
v -8 7 4
v 8 1 4
v 8 1 2
v 9 0 2
v 9 0 4
v 9 8 4
v 14 19 4
v -13 19 4
v -7 13 4
v -9 8 4
v -9 8 2
v -6 12 2
v -8 1 2
v -9 0 2
v -7 -6 2
v -6 -5 2
v -6 -5 4
v -8 1 4
v -8 7 2
v -9 0 4
v -7 -6 4
v -6 -15 2
v -2 -9 2
v -2 -9 4
v 6 -5 4
v 6 -5 2
v 7 -6 2
v 2 -9 2
v 6 -15 2
v 6 -15 4
v 7 -6 4
v 17 0 4
v 17 0 0
v 14 19 0
v -13 19 0
v -17 0 4
v -2 -21 2
v 2 -21 2
v 0 -15 2
v -6 -15 4
v -2 -21 4
v 2 -21 4
v -14 -22 4
v 0 -25 4
v 14 -22 4
v 2 -9 4
v 14 -22 0
v -17 0 0
v -14 -22 0
v 0 -25 0

f 1 2 3
f 1 3 4
f 1 4 5
f 1 5 6
f 1 6 7
f 1 7 8
f 1 8 2
f 2 8 9
f 2 9 10
f 2 10 3
f 3 10 11
f 3 11 12
f 3 12 13
f 3 13 4
f 4 13 5
f 5 13 14
f 5 14 6
f 6 14 15
f 6 15 16
f 6 16 7
f 7 16 17
f 7 17 18
f 7 18 8
f 8 18 9
f 9 18 19
f 9 19 20
f 9 20 21
f 9 21 10
f 10 21 22
f 10 22 11
f 11 22 23
f 11 23 24
f 11 24 12
f 12 24 25
f 12 25 26
f 12 26 27
f 12 27 13
f 13 27 15
f 13 15 14
f 28 29 30
f 28 30 31
f 28 31 32
f 28 32 33
f 28 33 34
f 28 34 29
f 29 34 26
f 29 26 25
f 29 25 35
f 29 35 30
f 30 35 36
f 30 36 37
f 30 37 31
f 31 37 38
f 31 38 39
f 31 39 32
f 32 39 40
f 32 40 33
f 33 40 17
f 33 17 16
f 33 16 34
f 34 16 15
f 34 15 27
f 34 27 26
f 41 42 19
f 41 19 18
f 41 18 17
f 41 17 40
f 41 40 43
f 41 43 42
f 42 43 44
f 42 44 45
f 42 45 46
f 42 46 19
f 19 46 20
f 20 46 47
f 20 47 21
f 21 47 22
f 22 47 48
f 22 48 49
f 22 49 23
f 23 49 50
f 23 50 51
f 23 51 25
f 23 25 24
f 52 53 54
f 52 54 37
f 52 37 55
f 52 55 56
f 52 56 53
f 53 56 57
f 53 57 44
f 53 44 54
f 54 44 43
f 54 43 38
f 54 38 37
f 36 55 37
f 55 36 58
f 55 58 56
f 56 58 59
f 56 59 57
f 57 59 60
f 57 60 45
f 57 45 44
f 40 61 43
f 43 61 38
f 38 61 39
f 39 61 40
f 60 46 45
f 46 60 47
f 47 60 62
f 47 62 48
f 51 58 36
f 51 36 35
f 51 35 25
f 58 51 63
f 58 63 64
f 58 64 59
f 59 64 65
f 59 65 60
f 60 65 62
f 51 50 63
