# RS2 Model 27298
# Vertices: 244
# Faces: 326

v -48 -64 103
v -48 -23 103
v -48 -23 137
v -48 -64 137
v -50 -43 139
v -50 -64 139
v -50 -21 139
v -50 -21 103
v -48 -19 103
v -48 -19 137
v -50 21 139
v -48 41 137
v -50 43 139
v -50 43 103
v -48 45 103
v -48 45 137
v -50 64 139
v -48 64 137
v -48 64 103
v -48 41 103
v -48 -45 173
v -48 -64 173
v -48 -64 139
v -48 -45 139
v -50 -43 175
v -50 -64 175
v -48 64 173
v -48 23 173
v -48 23 139
v -48 64 139
v -50 21 175
v -50 43 175
v -50 64 175
v -48 19 173
v -48 -41 173
v -48 -41 139
v -48 19 139
v -50 -21 175
v -48 -45 101
v -48 -64 101
v -48 -64 67
v -48 -45 67
v -50 -43 67
v -50 -43 103
v -50 -64 103
v -48 64 101
v -48 23 101
v -48 23 67
v -48 64 67
v -50 21 103
v -50 21 67
v -50 64 103
v -48 19 101
v -48 -41 101
v -48 -41 67
v -48 19 67
v -48 -64 32
v -48 -23 32
v -48 -23 65
v -48 -64 65
v -50 -64 67
v -50 -21 67
v -50 -21 32
v -48 -19 32
v -48 -19 65
v -48 41 65
v -50 43 67
v -50 43 32
v -48 45 32
v -48 45 65
v -50 64 67
v -48 64 65
v -48 64 32
v -48 41 32
v -48 -45 31
v -48 -64 31
v -48 -64 0
v -48 -45 0
v -50 -43 0
v -50 -43 32
v -50 -64 32
v -48 64 31
v -48 23 31
v -48 23 0
v -48 64 0
v -50 21 32
v -50 21 0
v -50 64 32
v -48 19 31
v -48 -41 31
v -48 -41 0
v -48 19 0
v -48 -64 175
v -48 -23 175
v -48 -23 203
v -48 -64 203
v -50 -43 205
v -50 -64 205
v -50 -21 205
v -48 -19 175
v -48 -19 203
v -50 21 205
v -48 41 203
v -50 43 205
v -48 45 175
v -48 45 203
v -50 64 205
v -48 64 203
v -48 64 175
v -48 41 175
v -48 -45 238
v -48 -64 238
v -48 -64 205
v -48 -45 205
v -50 -43 240
v -50 -64 240
v -48 64 238
v -48 23 238
v -48 23 205
v -48 64 205
v -50 21 240
v -50 64 240
v -64 64 240
v -64 -64 240
v -48 19 238
v -48 19 205
v -48 -41 205
v -48 -41 238
v -64 -64 10
v -64 64 10
v -64 64 0
v -64 -64 0
v -64 -64 14
v -64 64 14
v -63 19 19
v -63 22 19
v -63 61 19
v -64 64 86
v -63 61 81
v -63 22 81
v -63 19 81
v -64 -64 86
v -63 -64 91
v -63 64 91
v -63 -64 179
v -63 64 179
v -64 -64 183
v -64 64 183
v -63 -64 187
v -63 64 187
v -63 -64 227
v -63 64 227
v -61 -56 73
v -61 -27 73
v -61 -27 27
v -61 -56 27
v -63 -61 19
v -63 -61 81
v -63 -22 81
v -63 -22 19
v -63 -19 81
v -63 -19 19
v -61 -14 27
v -61 14 27
v -61 27 73
v -61 27 27
v -61 56 27
v -61 56 73
v -61 -14 73
v -61 14 73
v -24 -56 16
v -24 -64 0
v 64 -64 0
v 64 -56 16
v 64 -56 0
v 64 -48 0
v 64 -48 16
v 64 -56 32
v 64 -64 16
v -24 -56 32
v -24 -64 16
v -24 -64 32
v -48 -64 16
v 64 -40 0
v -24 -40 0
v -24 -48 16
v -24 -40 16
v -48 -40 16
v -48 -40 32
v -24 -40 32
v -24 -48 32
v 64 -48 32
v 64 -40 16
v 64 -56 48
v 64 -64 32
v -24 -56 48
v -24 -64 48
v -48 -40 0
v 64 -48 48
v 64 -40 32
v -24 -48 48
v -24 -40 48
v -48 -40 48
v -48 -40 64
v -24 -40 64
v -24 -48 64
v 64 -48 64
v 64 -40 48
v 64 -56 64
v -48 -64 48
v -24 -64 64
v -48 -64 64
v -24 -64 80
v -48 -64 80
v -24 -64 96
v -48 -64 96
v -24 -64 125
v -48 -64 125
v -24 -40 125
v -48 -40 125
v -24 -40 96
v -48 -40 96
v -24 -40 80
v -48 -40 80
v -24 -56 64
v 64 -64 48
v -24 -56 80
v 64 -64 64
v 64 -56 80
v 64 -48 80
v 64 -56 96
v 64 -64 80
v -24 -56 96
v 64 -40 64
v -24 -48 80
v 64 -48 96
v 64 -40 80
v -24 -48 96
v 64 -56 112
v 64 -64 96
v -24 -56 112
v -24 -48 112
v 64 -48 112
v 64 -40 96

f 1 2 3
f 1 3 4
f 4 3 5
f 4 5 6
f 3 7 5
f 7 3 8
f 7 8 9
f 7 9 10
f 7 10 11
f 11 10 12
f 11 12 13
f 13 12 14
f 13 14 15
f 13 15 16
f 13 16 17
f 17 16 18
f 18 16 15
f 18 15 19
f 8 3 2
f 9 20 12
f 9 12 10
f 14 12 20
f 21 22 23
f 21 23 24
f 21 24 5
f 21 5 25
f 21 25 26
f 21 26 22
f 27 28 29
f 27 29 30
f 31 11 29
f 31 29 28
f 31 28 32
f 32 28 27
f 32 27 33
f 34 35 36
f 34 36 37
f 34 37 11
f 34 11 31
f 34 31 38
f 34 38 35
f 35 38 25
f 35 25 36
f 36 25 5
f 39 40 41
f 39 41 42
f 39 42 43
f 39 43 44
f 39 44 45
f 39 45 40
f 46 47 48
f 46 48 49
f 50 51 48
f 50 48 47
f 50 47 14
f 14 47 46
f 14 46 52
f 53 54 55
f 53 55 56
f 53 56 51
f 53 51 50
f 53 50 8
f 53 8 54
f 54 8 44
f 54 44 55
f 55 44 43
f 57 58 59
f 57 59 60
f 60 59 43
f 60 43 61
f 59 62 43
f 62 59 63
f 62 63 64
f 62 64 65
f 62 65 51
f 51 65 66
f 51 66 67
f 67 66 68
f 67 68 69
f 67 69 70
f 67 70 71
f 71 70 72
f 72 70 69
f 72 69 73
f 63 59 58
f 64 74 66
f 64 66 65
f 68 66 74
f 75 76 77
f 75 77 78
f 75 78 79
f 75 79 80
f 75 80 81
f 75 81 76
f 82 83 84
f 82 84 85
f 86 87 84
f 86 84 83
f 86 83 68
f 68 83 82
f 68 82 88
f 89 90 91
f 89 91 92
f 89 92 87
f 89 87 86
f 89 86 63
f 89 63 90
f 90 63 80
f 90 80 91
f 91 80 79
f 93 94 95
f 93 95 96
f 96 95 97
f 96 97 98
f 95 99 97
f 99 95 38
f 99 38 100
f 99 100 101
f 99 101 102
f 102 101 103
f 102 103 104
f 104 103 32
f 104 32 105
f 104 105 106
f 104 106 107
f 107 106 108
f 108 106 105
f 108 105 109
f 38 95 94
f 100 110 103
f 100 103 101
f 32 103 110
f 111 112 113
f 111 113 114
f 111 114 97
f 111 97 115
f 111 115 116
f 111 116 112
f 117 118 119
f 117 119 120
f 121 102 119
f 121 119 118
f 121 118 117
f 121 117 122
f 121 122 123
f 121 123 124
f 121 124 115
f 121 115 125
f 121 125 102
f 102 125 126
f 126 125 127
f 127 125 128
f 127 128 115
f 127 115 97
f 115 128 125
f 129 130 131
f 129 131 132
f 130 129 133
f 130 133 134
f 134 133 135
f 134 135 136
f 134 136 137
f 134 137 138
f 138 137 139
f 138 139 140
f 138 140 141
f 138 141 142
f 138 142 143
f 138 143 144
f 144 143 145
f 144 145 146
f 146 145 147
f 146 147 148
f 148 147 149
f 148 149 150
f 150 149 151
f 150 151 152
f 152 151 124
f 152 124 123
f 153 154 155
f 153 155 156
f 153 156 157
f 153 157 158
f 153 158 154
f 154 158 159
f 154 159 155
f 155 159 160
f 155 160 156
f 156 160 157
f 157 160 133
f 157 133 158
f 158 133 142
f 158 142 159
f 159 142 161
f 159 161 160
f 160 161 162
f 160 162 133
f 133 162 135
f 135 162 163
f 135 163 164
f 135 164 141
f 135 141 140
f 135 140 136
f 136 140 165
f 136 165 166
f 136 166 137
f 137 166 167
f 137 167 139
f 139 167 168
f 139 168 140
f 140 168 165
f 165 168 167
f 165 167 166
f 169 170 164
f 169 164 163
f 169 163 162
f 169 162 161
f 169 161 170
f 170 161 141
f 170 141 164
f 142 141 161
f 115 124 116
f 171 172 173
f 171 173 174
f 174 173 175
f 174 175 176
f 174 176 177
f 174 177 178
f 174 178 179
f 179 178 180
f 179 180 181
f 181 180 182
f 181 182 183
f 181 183 77
f 181 77 172
f 181 172 171
f 177 176 184
f 177 184 185
f 177 185 186
f 186 185 187
f 187 185 188
f 187 188 189
f 187 189 190
f 187 190 191
f 187 191 192
f 187 192 193
f 193 192 177
f 177 192 178
f 178 192 194
f 178 194 195
f 195 194 196
f 195 196 182
f 182 196 197
f 182 197 57
f 182 57 183
f 188 185 198
f 199 192 200
f 199 200 190
f 199 190 201
f 201 190 202
f 202 190 203
f 202 203 204
f 202 204 205
f 202 205 206
f 202 206 207
f 202 207 208
f 208 207 199
f 199 207 209
f 199 209 194
f 199 194 192
f 197 210 57
f 210 197 211
f 210 211 212
f 212 211 213
f 212 213 214
f 214 213 215
f 214 215 216
f 216 215 217
f 216 217 218
f 218 217 219
f 218 219 220
f 220 219 221
f 220 221 222
f 222 221 223
f 222 223 224
f 224 223 205
f 224 205 204
f 203 190 189
f 225 197 226
f 225 226 209
f 209 226 194
f 211 197 225
f 227 211 228
f 227 228 229
f 229 228 209
f 229 209 207
f 229 207 230
f 229 230 231
f 229 231 232
f 232 231 233
f 232 233 213
f 213 233 215
f 230 207 234
f 230 234 205
f 230 205 235
f 235 205 223
f 213 211 227
f 236 230 237
f 236 237 223
f 236 223 238
f 238 223 221
f 231 230 236
f 231 236 239
f 231 239 240
f 240 239 241
f 240 241 215
f 215 241 217
f 217 241 219
f 219 241 242
f 219 242 221
f 221 242 243
f 221 243 244
f 244 243 236
f 236 243 239
f 239 243 241
f 241 243 242
