# RS2 Model 27326
# Vertices: 45
# Faces: 50

v -48 64 224
v -48 64 240
v -48 48 240
v -48 48 224
v -50 66 220
v -50 50 220
v -50 66 182
v -50 50 182
v -50 50 144
v -50 66 144
v -50 50 118
v -50 66 118
v -50 50 59
v -50 66 59
v -50 50 16
v -50 66 16
v -48 64 12
v -48 48 12
v -48 64 0
v -48 48 0
v -64 48 12
v -64 48 0
v -64 64 240
v -64 48 240
v -64 48 224
v -64 50 220
v -64 50 182
v -64 50 144
v -64 50 118
v -64 50 59
v -64 50 16
v -64 64 224
v -62 66 220
v -64 62 220
v -64 62 182
v -62 66 182
v -62 66 144
v -64 62 144
v -62 66 118
v -64 62 118
v -62 66 59
v -64 62 59
v -62 66 16
v -64 62 16
v -64 64 12

f 1 2 3
f 1 3 4
f 1 4 5
f 5 4 6
f 5 6 7
f 7 6 8
f 7 8 9
f 7 9 10
f 10 9 11
f 10 11 12
f 12 11 13
f 12 13 14
f 14 13 15
f 14 15 16
f 16 15 17
f 17 15 18
f 17 18 19
f 19 18 20
f 20 18 21
f 20 21 22
f 2 23 3
f 3 23 24
f 3 24 4
f 4 24 25
f 4 25 6
f 6 25 26
f 6 26 8
f 8 26 27
f 8 27 28
f 8 28 9
f 9 28 29
f 9 29 11
f 11 29 30
f 11 30 13
f 13 30 31
f 13 31 15
f 15 31 18
f 18 31 21
f 32 33 34
f 34 33 35
f 35 33 36
f 35 36 37
f 35 37 38
f 38 37 39
f 38 39 40
f 40 39 41
f 40 41 42
f 42 41 43
f 42 43 44
f 44 43 45
