# RS2 Model 27336
# Vertices: 125
# Faces: 169

v -64 -64 240
v -64 64 240
v -64 64 224
v -64 -64 224
v -62 64 220
v -62 -62 220
v -62 64 16
v -62 -62 16
v -64 64 12
v -64 -64 12
v -64 64 0
v -64 -64 0
v -48 19 201
v -48 -41 201
v -48 -41 162
v -48 19 162
v -50 21 162
v -50 21 203
v -50 -21 203
v -50 -43 203
v -50 -43 162
v -48 -45 201
v -48 -45 162
v -48 -48 162
v -48 -48 201
v -50 -50 203
v -48 -45 119
v -48 -48 119
v -48 -48 79
v -48 -45 79
v -50 -43 79
v -50 -43 121
v -50 -50 121
v -48 64 119
v -48 23 119
v -48 23 79
v -48 64 79
v -50 64 79
v -50 64 121
v -50 43 121
v -50 21 121
v -50 21 79
v -48 19 119
v -48 19 79
v -48 -41 79
v -48 -41 119
v -48 -45 37
v -48 -48 37
v -48 -48 0
v -48 -45 0
v -50 -43 0
v -50 -43 39
v -50 -50 39
v -48 64 37
v -48 23 37
v -48 23 0
v -48 64 0
v -50 64 0
v -50 64 39
v -50 43 39
v -50 21 39
v -50 21 0
v -48 19 37
v -48 19 0
v -48 -41 0
v -48 -41 37
v -48 -48 203
v -48 -23 203
v -48 -23 238
v -48 -48 238
v -50 -50 240
v -50 -21 240
v -50 43 240
v -50 64 240
v -50 64 203
v -50 64 162
v -48 45 203
v -48 64 203
v -48 64 238
v -48 45 238
v -50 43 203
v -48 41 238
v -48 41 203
v -48 -19 203
v -48 -19 238
v -48 -48 121
v -48 -23 121
v -48 -23 160
v -48 -48 160
v -50 -50 162
v -50 -21 162
v -50 -21 121
v -48 -19 121
v -48 -19 160
v -48 41 160
v -50 43 162
v -48 45 121
v -48 45 160
v -48 64 160
v -48 64 121
v -48 41 121
v -48 -48 39
v -48 -23 39
v -48 -23 77
v -48 -48 77
v -50 -50 79
v -50 -21 79
v -50 -21 39
v -48 -19 39
v -48 -19 77
v -48 41 77
v -50 43 79
v -48 45 39
v -48 45 77
v -48 64 77
v -48 64 39
v -48 64 201
v -48 23 201
v -48 23 162
v -48 64 162
v -48 41 39
v -56 64 220
v -56 -56 220
v -56 -56 0
v -56 64 0

f 1 2 3
f 1 3 4
f 4 3 5
f 4 5 6
f 6 5 7
f 6 7 8
f 8 7 9
f 8 9 10
f 10 9 11
f 10 11 12
f 13 14 15
f 13 15 16
f 13 16 17
f 13 17 18
f 13 18 19
f 13 19 14
f 14 19 20
f 14 20 15
f 15 20 21
f 21 20 22
f 21 22 23
f 23 22 24
f 24 22 25
f 25 22 26
f 26 22 20
f 27 28 29
f 27 29 30
f 27 30 31
f 27 31 32
f 27 32 33
f 27 33 28
f 34 35 36
f 34 36 37
f 34 37 38
f 34 38 39
f 34 39 40
f 34 40 35
f 35 40 41
f 35 41 36
f 36 41 42
f 42 41 43
f 42 43 44
f 44 43 45
f 45 43 46
f 45 46 32
f 45 32 31
f 47 48 49
f 47 49 50
f 47 50 51
f 47 51 52
f 47 52 53
f 47 53 48
f 54 55 56
f 54 56 57
f 54 57 58
f 54 58 59
f 54 59 60
f 54 60 55
f 55 60 61
f 55 61 56
f 56 61 62
f 62 61 63
f 62 63 64
f 64 63 65
f 65 63 66
f 65 66 52
f 65 52 51
f 67 68 69
f 67 69 70
f 70 69 71
f 71 69 72
f 71 72 1
f 1 72 2
f 2 72 73
f 2 73 74
f 2 74 3
f 3 74 5
f 5 74 75
f 5 75 76
f 5 76 39
f 5 39 7
f 7 39 38
f 7 38 59
f 7 59 58
f 7 58 9
f 9 58 11
f 19 72 69
f 19 69 68
f 77 78 79
f 77 79 80
f 77 80 73
f 77 73 81
f 81 73 82
f 81 82 83
f 83 82 84
f 84 82 85
f 84 85 72
f 84 72 19
f 74 73 80
f 74 80 79
f 74 79 78
f 74 78 75
f 86 87 88
f 86 88 89
f 89 88 21
f 89 21 90
f 88 91 21
f 91 88 92
f 91 92 93
f 91 93 94
f 91 94 17
f 17 94 95
f 17 95 96
f 96 95 40
f 96 40 97
f 96 97 98
f 96 98 76
f 76 98 99
f 76 99 100
f 76 100 39
f 92 88 87
f 93 101 95
f 93 95 94
f 40 95 101
f 97 100 99
f 97 99 98
f 92 32 46
f 92 46 43
f 92 43 41
f 102 103 104
f 102 104 105
f 105 104 31
f 105 31 106
f 104 107 31
f 107 104 108
f 107 108 109
f 107 109 110
f 107 110 42
f 42 110 111
f 42 111 112
f 112 111 60
f 112 60 113
f 112 113 114
f 112 114 38
f 38 114 115
f 38 115 116
f 38 116 59
f 108 104 103
f 113 116 115
f 113 115 114
f 108 52 66
f 108 66 63
f 108 63 61
f 82 73 72
f 82 72 85
f 117 118 119
f 117 119 120
f 117 120 75
f 117 75 81
f 117 81 118
f 118 81 18
f 118 18 119
f 119 18 17
f 109 121 111
f 109 111 110
f 60 111 121
f 75 120 76
f 122 123 124
f 122 124 125
