# RS2 Model 27386
# Vertices: 258
# Faces: 368

v 28 -55 39
v 28 -52 63
v 10 -46 63
v 7 -49 39
v 7 -49 33
v 28 -55 33
v 28 -52 9
v 10 -46 9
v 14 -42 0
v 28 -46 0
v 7 -8 39
v 10 -10 63
v 28 -4 63
v 28 -1 39
v 28 -1 33
v 7 -8 33
v 1 -28 39
v 4 -28 63
v 10 -28 72
v 14 -15 72
v 28 -10 72
v 1 -28 33
v 4 -28 9
v 10 -28 0
v 10 -10 9
v 28 -4 9
v 28 -10 0
v 14 -15 0
v 28 -46 72
v 14 -42 72
v 42 -43 70
v 47 -28 70
v 42 -14 70
v 28 -9 70
v 13 -14 70
v 8 -28 70
v 13 -43 70
v 28 -48 70
v 28 1 39
v 28 4 63
v 10 10 63
v 7 7 39
v 7 7 33
v 28 1 33
v 28 4 9
v 10 10 9
v 14 14 0
v 28 10 0
v 7 48 39
v 10 46 63
v 28 52 63
v 28 55 39
v 28 55 33
v 7 48 33
v 1 28 39
v 4 28 63
v 10 28 72
v 14 41 72
v 28 46 72
v 1 28 33
v 4 28 9
v 10 28 0
v 10 46 9
v 28 52 9
v 28 46 0
v 14 41 0
v 28 10 72
v 14 14 72
v 42 13 70
v 47 28 70
v 42 42 70
v 28 47 70
v 13 42 70
v 8 28 70
v 13 13 70
v 28 8 70
v 56 48 16
v 56 48 80
v 56 -48 80
v 56 -48 16
v 64 48 16
v 64 48 80
v 0 -56 80
v 0 -56 0
v 0 -64 0
v 0 -64 80
v 64 -64 0
v 64 -64 80
v 0 -64 96
v 0 64 96
v 0 64 80
v 64 64 80
v 0 64 0
v 0 56 0
v 0 56 80
v 56 56 0
v 56 56 80
v 56 -56 80
v 56 -56 0
v -24 -64 64
v -24 64 64
v -24 64 56
v -24 -64 56
v 0 -64 64
v 0 64 64
v 0 64 56
v 0 -64 56
v 64 -48 16
v 64 64 0
v 64 -48 80
v 64 -64 96
v 64 64 96
v 4 -40 142
v 4 -24 142
v 8 -28 130
v 8 -36 130
v 20 -40 142
v 20 -40 166
v 4 -40 166
v 4 -24 166
v 20 -24 142
v 16 -28 130
v 16 -28 106
v 8 -28 106
v 8 -36 106
v 16 -36 130
v 20 -24 166
v 12 -32 174
v 16 -36 106
v 8 -44 118
v 16 -44 118
v 16 -36 118
v 8 -36 118
v 0 -44 106
v 24 -44 106
v 24 -36 106
v 0 -36 106
v -16 -36 88
v -16 -36 104
v -16 -28 104
v -16 -28 88
v -8 -28 96
v -8 -28 88
v -8 -36 88
v -8 -36 96
v 0 -36 96
v 0 -36 104
v 0 -28 104
v 0 -28 96
v 24 -20 106
v 0 -20 106
v 0 -20 96
v 0 -44 96
v 24 -44 96
v 24 -20 96
v 16 -20 118
v 16 -28 118
v 24 -28 106
v 8 -28 118
v 0 -28 106
v 8 -20 118
v 25 -26 148
v 25 -23 154
v 25 -26 160
v 25 -32 163
v 25 -38 160
v 25 -41 154
v 25 -38 148
v 25 -32 145
v 25 -24 146
v 25 -20 154
v 25 -24 162
v 25 -32 166
v 25 -40 162
v 25 -44 154
v 25 -40 146
v 25 -32 142
v 21 -32 142
v 21 -24 146
v 21 -20 154
v 21 -24 162
v 21 -32 166
v 21 -40 162
v 21 -44 154
v 21 -40 146
v 4 24 142
v 4 40 142
v 8 36 130
v 8 28 130
v 20 24 142
v 20 24 166
v 4 24 166
v 4 40 166
v 20 40 142
v 16 36 130
v 16 36 106
v 8 36 106
v 8 28 106
v 16 28 130
v 20 40 166
v 12 32 174
v 16 28 106
v 8 20 118
v 16 20 118
v 16 28 118
v 8 28 118
v 0 20 106
v 24 20 106
v 24 28 106
v 0 28 106
v -16 28 88
v -16 28 104
v -16 36 104
v -16 36 88
v -8 36 96
v -8 36 88
v -8 28 88
v -8 28 96
v 0 28 96
v 0 28 104
v 0 36 104
v 0 36 96
v 24 44 106
v 0 44 106
v 0 44 96
v 0 20 96
v 24 20 96
v 24 44 96
v 16 44 118
v 16 36 118
v 24 36 106
v 8 36 118
v 0 36 106
v 8 44 118
v 25 38 148
v 25 41 154
v 25 38 160
v 25 32 163
v 25 26 160
v 25 23 154
v 25 26 148
v 25 32 145
v 25 40 146
v 25 44 154
v 25 40 162
v 25 32 166
v 25 24 162
v 25 20 154
v 25 24 146
v 25 32 142
v 21 32 142
v 21 40 146
v 21 44 154
v 21 40 162
v 21 32 166
v 21 24 162
v 21 20 154
v 21 24 146

f 1 2 3
f 1 3 4
f 1 4 5
f 1 5 6
f 6 5 7
f 7 5 8
f 7 8 9
f 7 9 10
f 11 12 13
f 11 13 14
f 11 14 15
f 11 15 16
f 11 16 17
f 11 17 12
f 12 17 18
f 12 18 19
f 12 19 20
f 12 20 13
f 13 20 21
f 4 3 18
f 4 18 17
f 4 17 22
f 4 22 5
f 5 22 8
f 8 22 23
f 8 23 24
f 8 24 9
f 25 16 15
f 25 15 26
f 25 26 27
f 25 27 28
f 25 28 23
f 25 23 16
f 16 23 22
f 16 22 17
f 23 28 24
f 29 30 3
f 29 3 2
f 30 19 18
f 30 18 3
f 31 32 33
f 31 33 34
f 31 34 35
f 31 35 36
f 31 36 37
f 31 37 38
f 39 40 41
f 39 41 42
f 39 42 43
f 39 43 44
f 44 43 45
f 45 43 46
f 45 46 47
f 45 47 48
f 49 50 51
f 49 51 52
f 49 52 53
f 49 53 54
f 49 54 55
f 49 55 50
f 50 55 56
f 50 56 57
f 50 57 58
f 50 58 51
f 51 58 59
f 42 41 56
f 42 56 55
f 42 55 60
f 42 60 43
f 43 60 46
f 46 60 61
f 46 61 62
f 46 62 47
f 63 54 53
f 63 53 64
f 63 64 65
f 63 65 66
f 63 66 61
f 63 61 54
f 54 61 60
f 54 60 55
f 61 66 62
f 67 68 41
f 67 41 40
f 68 57 56
f 68 56 41
f 69 70 71
f 69 71 72
f 69 72 73
f 69 73 74
f 69 74 75
f 69 75 76
f 77 78 79
f 77 79 80
f 77 80 81
f 77 81 82
f 77 82 78
f 83 84 85
f 83 85 86
f 86 85 87
f 86 87 88
f 86 88 89
f 86 89 90
f 86 90 91
f 91 90 92
f 91 92 93
f 91 93 94
f 91 94 95
f 95 94 96
f 95 96 97
f 84 83 98
f 84 98 99
f 100 101 102
f 100 102 103
f 100 103 104
f 100 104 105
f 100 105 101
f 101 105 106
f 101 106 102
f 104 103 107
f 81 80 108
f 81 108 109
f 81 109 92
f 81 92 82
f 79 110 108
f 79 108 80
f 89 111 112
f 89 112 90
f 90 112 92
f 92 112 111
f 92 111 88
f 88 111 89
f 92 109 93
f 113 114 115
f 113 115 116
f 113 116 117
f 113 117 118
f 113 118 119
f 113 119 114
f 114 119 120
f 114 120 121
f 114 121 122
f 114 122 115
f 115 122 123
f 115 123 124
f 115 124 116
f 116 124 125
f 116 125 126
f 116 126 117
f 117 126 121
f 117 121 127
f 117 127 118
f 118 127 128
f 118 128 119
f 119 128 120
f 120 128 127
f 120 127 121
f 121 126 122
f 122 126 129
f 122 129 123
f 126 125 129
f 130 131 132
f 130 132 133
f 130 133 134
f 130 134 135
f 130 135 131
f 131 135 136
f 131 136 132
f 132 136 137
f 132 137 133
f 133 137 134
f 138 139 140
f 138 140 141
f 141 140 142
f 141 142 143
f 143 142 144
f 144 142 145
f 144 145 139
f 144 139 138
f 145 146 147
f 145 147 139
f 139 147 140
f 140 147 148
f 140 148 142
f 142 148 149
f 134 135 150
f 134 150 151
f 134 151 152
f 134 152 153
f 134 153 135
f 135 153 154
f 135 154 150
f 150 154 155
f 150 155 151
f 150 151 156
f 150 156 157
f 150 157 158
f 158 157 159
f 158 159 160
f 160 159 161
f 160 161 151
f 151 161 156
f 156 161 159
f 156 159 157
f 151 155 152
f 162 163 164
f 162 164 165
f 162 165 166
f 162 166 167
f 162 167 168
f 162 168 169
f 162 169 170
f 162 170 163
f 163 170 171
f 163 171 172
f 163 172 164
f 164 172 173
f 164 173 165
f 165 173 174
f 165 174 166
f 166 174 175
f 166 175 167
f 167 175 176
f 167 176 168
f 168 176 177
f 168 177 169
f 169 177 170
f 170 177 178
f 170 178 179
f 170 179 171
f 171 179 180
f 171 180 172
f 172 180 181
f 172 181 173
f 173 181 182
f 173 182 174
f 174 182 183
f 174 183 175
f 175 183 184
f 175 184 176
f 176 184 185
f 176 185 177
f 177 185 178
f 178 185 184
f 178 184 183
f 178 183 182
f 178 182 181
f 178 181 180
f 178 180 179
f 186 187 188
f 186 188 189
f 186 189 190
f 186 190 191
f 186 191 192
f 186 192 187
f 187 192 193
f 187 193 194
f 187 194 195
f 187 195 188
f 188 195 196
f 188 196 197
f 188 197 189
f 189 197 198
f 189 198 199
f 189 199 190
f 190 199 194
f 190 194 200
f 190 200 191
f 191 200 201
f 191 201 192
f 192 201 193
f 193 201 200
f 193 200 194
f 194 199 195
f 195 199 202
f 195 202 196
f 199 198 202
f 203 204 205
f 203 205 206
f 203 206 207
f 203 207 208
f 203 208 204
f 204 208 209
f 204 209 205
f 205 209 210
f 205 210 206
f 206 210 207
f 211 212 213
f 211 213 214
f 214 213 215
f 214 215 216
f 216 215 217
f 217 215 218
f 217 218 212
f 217 212 211
f 218 219 220
f 218 220 212
f 212 220 213
f 213 220 221
f 213 221 215
f 215 221 222
f 207 208 223
f 207 223 224
f 207 224 225
f 207 225 226
f 207 226 208
f 208 226 227
f 208 227 223
f 223 227 228
f 223 228 224
f 223 224 229
f 223 229 230
f 223 230 231
f 231 230 232
f 231 232 233
f 233 232 234
f 233 234 224
f 224 234 229
f 229 234 232
f 229 232 230
f 224 228 225
f 235 236 237
f 235 237 238
f 235 238 239
f 235 239 240
f 235 240 241
f 235 241 242
f 235 242 243
f 235 243 236
f 236 243 244
f 236 244 245
f 236 245 237
f 237 245 246
f 237 246 238
f 238 246 247
f 238 247 239
f 239 247 248
f 239 248 240
f 240 248 249
f 240 249 241
f 241 249 250
f 241 250 242
f 242 250 243
f 243 250 251
f 243 251 252
f 243 252 244
f 244 252 253
f 244 253 245
f 245 253 254
f 245 254 246
f 246 254 255
f 246 255 247
f 247 255 256
f 247 256 248
f 248 256 257
f 248 257 249
f 249 257 258
f 249 258 250
f 250 258 251
f 251 258 257
f 251 257 256
f 251 256 255
f 251 255 254
f 251 254 253
f 251 253 252
f 109 108 87
f 87 108 110
f 87 110 88
