# RS2 Model 27434
# Vertices: 80
# Faces: 98

v -32 20 79
v -32 64 79
v -32 64 114
v -32 20 114
v -35 19 115
v -35 19 78
v -61 19 115
v -61 19 78
v -64 20 114
v -64 20 79
v -64 64 79
v -64 64 114
v -61 64 115
v -35 64 115
v -32 -64 79
v -32 -44 79
v -32 -44 114
v -32 -64 114
v -64 -64 79
v -64 -64 114
v -64 -44 79
v -64 -44 114
v -61 -43 115
v -61 -43 78
v -35 -43 115
v -35 -43 78
v -35 -64 115
v -61 -64 115
v -64 64 1
v -64 20 1
v -64 20 36
v -64 64 36
v -61 64 37
v -61 64 0
v -64 -39 36
v -64 15 36
v -64 15 1
v -64 -39 1
v -61 -40 37
v -61 16 37
v -61 16 0
v -64 -44 1
v -64 -64 1
v -64 -64 36
v -64 -44 36
v -61 -43 37
v -61 -43 0
v -64 -12 77
v -64 -12 40
v -64 -64 40
v -64 -64 77
v -61 -11 78
v -61 -11 39
v -64 47 40
v -64 -8 40
v -64 -8 77
v -64 47 77
v -61 48 78
v -61 48 39
v -64 51 40
v -64 51 77
v -64 64 77
v -64 64 40
v -61 64 78
v -61 64 39
v -61 19 0
v -61 19 37
v -61 50 78
v -61 -9 39
v -61 -9 78
v -61 -64 78
v -61 -64 39
v -61 -64 37
v -61 -40 0
v -61 50 39
v -32 -64 78
v -32 64 78
v -61 -64 0
v -32 -64 0
v -32 64 0

f 1 2 3
f 1 3 4
f 1 4 5
f 1 5 6
f 6 5 7
f 6 7 8
f 8 7 9
f 8 9 10
f 10 9 11
f 11 9 12
f 11 12 2
f 2 12 3
f 3 12 13
f 3 13 14
f 3 14 4
f 4 14 5
f 5 14 13
f 5 13 7
f 7 13 12
f 7 12 9
f 15 16 17
f 15 17 18
f 15 18 19
f 19 18 20
f 19 20 21
f 21 20 22
f 21 22 23
f 21 23 24
f 24 23 25
f 24 25 26
f 26 25 17
f 26 17 16
f 18 17 25
f 18 25 27
f 18 27 20
f 20 27 28
f 20 28 22
f 22 28 23
f 23 28 27
f 23 27 25
f 29 30 31
f 29 31 32
f 29 32 33
f 29 33 34
f 35 36 37
f 35 37 38
f 35 38 39
f 35 39 40
f 35 40 36
f 36 40 37
f 37 40 41
f 42 43 44
f 42 44 45
f 42 45 46
f 42 46 47
f 48 49 50
f 48 50 51
f 48 51 52
f 48 52 53
f 48 53 49
f 54 55 56
f 54 56 57
f 54 57 58
f 54 58 59
f 60 61 62
f 60 62 63
f 63 62 64
f 63 64 65
f 66 67 31
f 66 31 30
f 32 31 67
f 32 67 33
f 62 61 68
f 62 68 64
f 69 70 56
f 69 56 55
f 52 51 71
f 71 51 50
f 71 50 72
f 57 56 70
f 57 70 58
f 45 44 73
f 45 73 46
f 38 74 39
f 61 60 75
f 61 75 68
f 76 77 64
f 76 64 71
f 76 71 78
f 76 78 79
f 76 79 77
f 77 79 80
f 77 80 64
f 64 80 34
f 64 34 78
f 64 78 71
f 44 43 78
f 44 78 73
