# RS2 Model 27498
# Vertices: 48
# Faces: 86

v -46 -64 20
v -46 64 20
v -46 61 23
v -46 -61 23
v -46 -64 112
v -60 -64 112
v -60 -64 20
v -43 -64 16
v -43 64 16
v -63 64 16
v -60 64 20
v -46 64 112
v -46 61 108
v -52 51 104
v -52 51 27
v -52 -51 27
v -46 -61 108
v -52 -51 104
v -48 -49 102
v -48 49 102
v -48 49 29
v -48 -49 29
v -63 -64 16
v -63 64 0
v -63 -64 0
v -60 -61 23
v -60 61 23
v -60 64 112
v -42 64 128
v -42 64 112
v -42 -64 112
v -42 -64 128
v -64 -64 128
v -64 -64 112
v -64 64 112
v -64 64 128
v -43 -64 0
v -43 64 0
v -60 -61 108
v -54 -51 104
v -54 -51 27
v -54 51 27
v -60 61 108
v -54 51 104
v -58 49 102
v -58 -49 102
v -58 -49 29
v -58 49 29

f 1 2 3
f 1 3 4
f 1 4 5
f 1 5 6
f 1 6 7
f 1 7 8
f 1 8 2
f 2 8 9
f 2 9 10
f 2 10 11
f 2 11 12
f 2 12 13
f 2 13 3
f 3 13 14
f 3 14 15
f 3 15 4
f 4 15 16
f 4 16 17
f 4 17 5
f 5 17 12
f 12 17 13
f 13 17 18
f 13 18 14
f 14 18 19
f 14 19 20
f 14 20 15
f 15 20 21
f 15 21 16
f 16 21 22
f 16 22 18
f 16 18 17
f 20 19 22
f 20 22 21
f 18 22 19
f 23 10 24
f 23 24 25
f 23 25 8
f 23 8 7
f 23 7 10
f 10 7 11
f 11 7 26
f 11 26 27
f 11 27 28
f 11 28 12
f 12 28 29
f 12 29 30
f 30 29 31
f 31 29 32
f 31 32 5
f 5 32 33
f 5 33 6
f 6 33 34
f 34 33 35
f 35 33 36
f 35 36 28
f 28 36 29
f 29 36 33
f 29 33 32
f 9 8 37
f 9 37 38
f 9 38 10
f 10 38 24
f 7 6 39
f 7 39 26
f 26 39 40
f 26 40 41
f 26 41 27
f 27 41 42
f 27 42 43
f 27 43 28
f 28 43 6
f 6 43 39
f 39 43 44
f 39 44 40
f 40 44 45
f 40 45 46
f 40 46 41
f 41 46 47
f 41 47 42
f 42 47 48
f 42 48 44
f 42 44 43
f 46 45 48
f 46 48 47
f 44 48 45
f 8 25 37
