# RS2 Model 27548
# Vertices: 1141
# Faces: 2093

v 9 30 185
v 9 35 184
v 9 34 186
v 8 34 186
v 8 30 185
v 8 29 183
v 8 28 181
v 8 32 180
v 8 35 184
v 6 40 190
v 8 33 192
v 8 27 187
v 6 24 182
v 4 26 175
v 1 29 174
v 7 38 178
v 5 39 168
v 0 42 164
v -6 40 190
v 0 39 194
v 3 35 198
v 5 21 192
v 6 21 189
v 6 21 186
v 3 21 184
v 1 21 180
v 0 22 173
v -1 29 174
v -4 31 167
v 4 31 167
v 13 33 165
v -9 34 186
v -9 35 184
v -9 30 185
v -8 34 186
v -8 35 184
v -8 32 180
v -8 28 181
v -8 29 183
v -8 30 185
v -8 33 192
v -7 38 178
v -4 26 175
v -6 24 182
v -8 29 188
v -8 30 189
v -6 27 192
v -3 35 198
v 0 23 194
v 0 21 192
v 1 20 190
v 2 21 189
v 2 21 188
v 0 21 186
v 3 21 185
v 0 19 181
v -1 21 180
v -3 21 184
v -5 39 168
v -13 33 165
v -6 21 186
v -3 21 185
v -5 25 191
v -2 21 188
v -2 21 189
v -1 20 190
v 0 20 189
v 0 20 185
v -5 19 186
v -2 18 157
v -2 16 153
v -2 15 155
v -2 16 157
v 1 18 157
v 1 16 157
v 1 16 153
v 1 15 155
v -10 17 161
v -8 16 155
v -10 12 152
v 9 11 153
v 7 14 156
v 9 16 161
v 11 38 135
v 8 26 136
v 8 27 127
v 11 38 127
v -12 38 135
v -12 38 127
v -9 26 136
v -9 28 127
v -9 27 123
v 8 27 123
v 12 43 123
v -13 43 123
v -16 47 113
v -15 30 113
v 0 25 108
v 15 30 113
v 16 47 113
v 12 39 128
v 12 42 125
v 0 43 125
v 0 40 128
v -13 42 125
v -13 40 128
v -13 32 127
v -12 34 135
v -11 22 146
v -11 39 135
v -14 29 147
v -15 41 147
v 0 42 132
v 0 43 149
v 14 41 146
v 11 39 135
v 15 29 147
v 11 22 146
v 11 34 135
v 12 32 127
v 10 26 122
v 10 26 126
v 6 25 121
v 6 25 118
v 7 25 100
v 11 25 95
v 0 23 95
v 0 23 100
v -11 25 95
v -7 25 100
v -10 26 122
v -6 25 118
v -10 26 126
v -14 30 166
v -14 38 166
v -15 26 159
v -13 24 162
v -11 29 166
v -11 38 167
v -21 38 163
v -21 30 163
v -23 31 147
v -17 31 147
v -17 37 147
v -23 37 147
v -25 40 143
v -25 29 143
v -16 29 143
v -16 40 143
v -19 39 130
v -26 39 131
v -26 31 132
v -19 31 131
v -20 32 125
v -20 38 125
v -26 38 125
v -26 32 125
v -26 34 116
v -21 34 116
v -21 38 116
v -26 38 116
v -27 37 104
v -27 35 104
v -24 35 104
v -24 37 104
v 14 38 166
v 14 30 166
v 15 26 159
v 11 16 152
v 0 22 146
v 0 19 158
v 8 24 162
v 11 29 166
v 11 38 167
v 9 41 166
v -9 41 166
v -8 24 162
v -12 20 159
v 0 16 151
v 12 20 159
v 13 24 162
v 0 44 163
v -11 16 152
v 0 26 126
v 0 25 121
v 0 25 118
v -6 25 121
v -18 43 101
v -11 26 63
v -3 26 63
v 0 47 109
v 4 37 66
v 4 26 63
v 12 26 63
v 18 43 101
v -11 37 66
v -13 42 51
v -13 26 53
v -2 26 53
v -3 37 66
v -2 42 51
v -11 37 24
v -11 31 23
v -6 31 23
v 12 37 66
v 3 42 51
v 3 26 53
v 14 26 53
v 14 42 51
v 7 37 24
v 7 31 23
v 12 31 23
v 12 37 24
v 13 38 16
v 6 38 16
v 5 29 7
v 12 29 7
v -6 37 24
v -12 38 16
v -11 29 7
v -4 29 7
v -5 38 16
v 13 29 0
v 11 35 8
v 11 38 10
v 6 38 10
v 3 29 0
v 5 17 0
v 11 17 0
v 5 35 8
v 8 37 0
v -12 29 0
v -10 17 0
v -4 17 0
v -2 29 0
v -4 35 8
v -5 38 10
v -10 35 8
v -7 37 0
v -10 38 10
v 6 32 0
v -6 32 0
v 0 40 0
v 21 38 163
v 17 31 147
v 23 31 147
v 21 30 163
v 23 38 147
v 17 38 147
v 16 40 143
v 16 29 143
v 25 29 143
v 26 38 116
v 21 38 116
v 20 38 125
v 26 38 125
v 26 34 116
v 27 35 104
v 27 37 104
v 24 37 104
v 21 34 116
v 20 32 125
v 19 31 131
v 19 39 130
v 26 39 131
v 26 32 125
v 24 35 104
v 26 31 132
v 25 40 143
v 23 32 98
v 24 37 103
v 23 38 98
v 24 33 92
v 30 32 98
v 27 35 103
v 24 35 103
v 27 37 103
v 30 38 98
v 28 37 93
v 24 37 93
v 29 33 92
v -27 37 103
v -24 37 103
v -24 38 98
v -31 38 98
v -27 35 103
v -24 35 103
v -24 32 98
v -25 33 92
v -25 37 93
v -30 37 93
v -31 32 98
v -30 33 92
v -103 15 188
v -100 15 189
v -107 15 189
v -103 15 187
v -100 17 185
v -98 20 190
v -100 15 192
v -105 15 192
v -105 15 190
v -108 14 192
v -108 13 188
v -108 12 184
v -106 15 183
v -102 19 178
v -98 22 186
v -98 24 188
v -98 26 197
v -101 15 196
v -105 13 193
v -108 15 196
v -111 13 193
v -111 15 192
v -109 15 189
v -110 15 183
v -113 15 187
v -116 17 185
v -114 19 178
v -108 16 175
v -105 23 175
v -98 23 184
v -98 24 186
v -97 24 188
v -98 27 189
v -100 36 193
v -103 28 202
v -105 13 203
v -116 15 189
v -113 15 188
v -118 20 190
v -118 22 186
v -118 23 184
v -111 23 175
v -115 24 170
v -101 24 170
v -101 36 171
v -103 34 179
v -100 30 180
v -98 25 183
v -97 28 187
v -97 27 189
v -98 28 187
v -113 34 179
v -116 36 193
v -108 34 198
v -113 28 202
v -115 15 196
v -116 15 192
v -111 15 190
v -119 27 189
v -119 28 187
v -119 24 188
v -118 27 189
v -118 28 187
v -118 25 183
v -118 24 186
v -118 24 188
v -118 26 197
v -116 30 180
v -115 36 171
v -120 26 169
v -114 21 164
v -102 21 164
v -96 26 169
v -96 36 170
v -105 39 168
v -111 39 168
v -120 36 170
v -125 28 169
v -119 20 160
v -108 20 158
v -95 20 160
v -91 28 169
v -91 36 169
v -92 42 164
v -108 42 165
v -124 42 164
v -125 36 169
v -126 40 150
v -126 24 150
v -119 20 120
v -108 20 125
v -97 20 120
v -90 24 150
v -90 40 150
v -97 43 120
v -119 43 120
v -105 19 152
v -111 19 152
v -111 19 148
v -105 19 148
v -111 56 59
v -121 52 62
v -126 47 98
v -108 50 97
v -119 43 117
v -97 43 117
v -90 47 98
v -105 56 59
v -95 52 62
v -86 41 99
v -93 39 119
v -85 34 99
v -91 32 120
v -93 25 119
v -87 26 98
v -97 20 117
v -91 22 100
v -102 18 109
v -106 20 119
v -107 21 125
v -98 20 121
v -94 26 123
v -92 32 124
v -94 38 123
v -98 42 121
v -118 42 121
v -123 39 119
v -122 38 123
v -125 32 120
v -124 32 124
v -123 25 119
v -122 26 123
v -119 20 117
v -118 20 121
v -110 20 119
v -109 21 125
v -130 41 99
v -131 34 99
v -129 26 98
v -125 22 100
v -114 18 109
v -97 37 129
v -100 24 129
v -97 24 120
v -95 40 120
v -119 37 129
v -121 40 120
v -116 24 129
v -119 24 120
v -125 32 123
v -123 25 122
v -91 32 123
v -93 25 122
v -93 39 122
v -123 39 122
v -105 19 144
v -111 19 144
v -111 19 140
v -105 19 140
v -136 31 108
v -136 35 108
v -132 39 108
v -132 26 108
v -140 31 108
v -135 28 100
v -135 37 102
v -143 37 102
v -140 35 108
v -146 36 108
v -143 38 117
v -133 38 117
v -133 28 117
v -146 28 108
v -143 28 100
v -138 30 97
v -138 35 98
v -141 35 99
v -141 30 98
v -143 28 117
v -140 27 128
v -140 38 128
v -132 38 128
v -132 27 128
v -125 27 160
v -136 23 158
v -137 26 151
v -139 27 141
v -128 26 140
v -126 39 150
v -128 38 140
v -137 38 151
v -124 41 164
v -135 41 160
v -133 36 166
v -133 28 166
v -139 37 141
v -140 38 132
v -140 27 132
v -131 27 132
v -131 38 132
v -80 31 108
v -84 39 108
v -80 35 108
v -81 37 102
v -81 28 100
v -73 28 100
v -76 31 108
v -84 26 108
v -83 38 117
v -73 38 117
v -70 36 108
v -76 35 108
v -73 37 102
v -78 35 98
v -78 30 97
v -75 30 98
v -70 28 108
v -83 28 117
v -84 38 128
v -76 38 128
v -76 27 128
v -73 28 117
v -80 23 158
v -91 27 160
v -83 28 166
v -83 36 166
v -81 41 160
v -92 41 164
v -79 38 151
v -90 39 150
v -88 38 140
v -88 26 140
v -77 27 141
v -79 26 151
v -77 37 141
v -85 38 132
v -85 27 132
v -76 27 132
v -76 38 132
v -84 27 128
v -75 35 99
v -108 41 98
v -111 40 75
v -123 40 75
v -125 41 98
v -123 45 103
v -93 45 103
v -91 41 98
v -93 40 75
v -105 40 75
v -105 23 77
v -108 23 103
v -111 23 77
v -110 21 77
v -110 42 75
v -124 42 75
v -123 23 77
v -125 24 103
v -121 24 116
v -121 40 116
v -95 40 116
v -95 24 116
v -91 23 103
v -93 23 77
v -92 21 77
v -92 42 75
v -106 42 75
v -106 21 77
v -124 21 77
v -123 23 67
v -111 23 67
v -111 39 64
v -123 39 64
v -95 24 120
v -121 24 120
v -110 41 52
v -112 38 38
v -122 38 38
v -124 41 52
v -110 23 54
v -112 26 36
v -114 28 24
v -114 38 25
v -120 38 25
v -122 26 36
v -124 23 54
v -113 23 63
v -113 23 58
v -121 24 49
v -113 24 49
v -113 25 44
v -120 28 24
v -121 29 16
v -114 29 16
v -114 38 11
v -123 38 11
v -121 23 63
v -121 21 63
v -113 21 63
v -113 21 58
v -121 23 58
v -121 21 58
v -121 25 44
v -121 23 44
v -121 22 49
v -113 22 49
v -113 23 44
v -106 41 52
v -94 38 38
v -104 38 38
v -104 26 36
v -106 23 54
v -105 39 64
v -92 41 52
v -92 23 54
v -94 26 36
v -96 28 24
v -96 38 25
v -102 38 25
v -102 28 24
v -95 25 44
v -103 25 44
v -103 24 49
v -95 23 58
v -103 23 58
v -105 23 67
v -93 39 64
v -93 23 67
v -95 23 63
v -95 21 63
v -95 21 58
v -103 21 58
v -103 23 63
v -103 21 63
v -95 29 16
v -93 38 11
v -102 38 11
v -102 29 16
v -93 28 9
v -93 40 5
v -103 40 5
v -102 28 9
v -93 16 5
v -91 14 0
v -91 37 0
v -105 37 0
v -105 14 0
v -103 16 5
v -95 24 49
v -95 22 49
v -95 23 44
v -103 23 44
v -103 22 49
v -102 30 0
v -114 30 0
v -108 38 0
v -125 37 0
v -111 37 0
v -111 14 0
v -125 14 0
v -123 28 9
v -123 40 5
v -113 40 5
v -114 28 9
v -113 16 5
v -123 16 5
v -53 -47 191
v -58 -58 191
v -58 -58 201
v -53 -47 200
v -40 -47 191
v -39 -44 192
v -54 -44 192
v -63 -58 192
v -54 -71 194
v -54 -70 201
v -56 -58 205
v -53 -48 203
v -43 -48 203
v -42 -47 200
v -37 -58 191
v -34 -58 192
v -31 -58 194
v -38 -42 194
v -56 -42 194
v -67 -58 194
v -57 -73 195
v -43 -71 194
v -44 -70 201
v -53 -67 205
v -48 -58 207
v -39 -58 205
v -37 -58 201
v -42 -73 195
v -40 -76 196
v -42 -70 192
v -38 -58 190
v -39 -44 190
v -54 -44 190
v -58 -58 190
v -58 -76 196
v -44 -67 205
v -57 -70 192
v -43 -69 188
v -40 -69 189
v -47 -69 189
v -43 -69 187
v -40 -67 185
v -38 -64 190
v -40 -69 192
v -45 -69 192
v -45 -69 190
v -48 -70 192
v -48 -71 188
v -48 -72 184
v -46 -69 183
v -42 -65 178
v -38 -62 186
v -38 -60 188
v -38 -58 197
v -41 -69 196
v -45 -71 193
v -48 -69 196
v -51 -71 193
v -51 -69 192
v -49 -69 189
v -50 -69 183
v -53 -69 187
v -56 -67 185
v -54 -65 178
v -55 -68 176
v -48 -70 183
v -48 -71 181
v -41 -68 176
v -56 -69 189
v -53 -69 188
v -58 -64 190
v -58 -62 186
v -58 -61 184
v -51 -61 175
v -54 -66 171
v -54 -68 175
v -48 -73 172
v -48 -70 178
v -48 -69 180
v -42 -68 175
v -42 -66 171
v -45 -61 175
v -38 -61 184
v -38 -60 186
v -37 -60 188
v -38 -57 189
v -40 -48 193
v -43 -56 202
v -48 -68 198
v -51 -69 190
v -56 -69 192
v -55 -69 196
v -58 -58 197
v -58 -60 188
v -58 -60 186
v -59 -56 187
v -58 -59 183
v -54 -61 173
v -56 -54 180
v -53 -50 179
v -55 -48 171
v -55 -60 170
v -41 -60 170
v -41 -48 171
v -43 -50 179
v -40 -54 180
v -38 -59 183
v -42 -61 173
v -37 -56 187
v -37 -57 189
v -38 -56 187
v -56 -48 193
v -48 -50 198
v -53 -56 202
v -59 -57 189
v -59 -60 188
v -58 -57 189
v -58 -56 187
v -51 -64 172
v -51 -75 170
v -45 -64 172
v -45 -75 170
v -47 -71 143
v -43 -67 153
v -47 -69 149
v -48 -69 149
v -48 -71 143
v -48 -71 140
v -47 -71 141
v -37 -67 145
v -35 -64 164
v -39 -64 164
v -40 -63 164
v -44 -66 153
v -48 -68 150
v -53 -67 153
v -51 -71 143
v -51 -71 140
v -51 -71 136
v -48 -71 136
v -47 -71 136
v -45 -71 137
v -45 -71 140
v -37 -66 141
v -31 -59 143
v -30 -60 149
v -31 -62 160
v -31 -58 170
v -38 -59 170
v -44 -62 168
v -48 -63 164
v -48 -42 143
v -62 -42 143
v -64 -42 164
v -48 -42 164
v -47 -42 158
v -44 -42 148
v -34 -42 143
v -34 -42 140
v -48 -42 140
v -62 -42 140
v -65 -45 143
v -66 -44 149
v -65 -42 162
v -65 -46 170
v -58 -48 171
v -48 -46 169
v -38 -48 171
v -32 -42 164
v -39 -42 161
v -36 -42 150
v -31 -42 162
v -30 -44 149
v -31 -45 143
v -32 -45 140
v -33 -45 136
v -34 -42 136
v -48 -42 136
v -62 -42 136
v -64 -45 140
v -65 -59 143
v -66 -60 149
v -66 -45 150
v -64 -43 162
v -65 -48 169
v -65 -56 169
v -65 -58 170
v -58 -59 170
v -30 -45 150
v -30 -59 150
v -31 -61 160
v -31 -56 169
v -31 -46 170
v -59 -67 145
v -59 -66 141
v -58 -67 140
v -52 -71 139
v -52 -71 137
v -59 -66 137
v -51 -71 133
v -48 -71 133
v -47 -71 133
v -37 -66 135
v -38 -67 137
v -38 -67 140
v -32 -59 140
v -33 -59 136
v -33 -58 129
v -33 -46 129
v -35 -44 129
v -48 -43 128
v -61 -44 129
v -63 -45 136
v -64 -59 140
v -59 -66 147
v -64 -63 150
v -61 -64 164
v -65 -62 160
v -66 -59 150
v -63 -59 136
v -58 -67 138
v -63 -46 129
v -63 -58 129
v -59 -62 125
v -48 -70 130
v -47 -70 130
v -37 -62 125
v -31 -48 169
v -32 -43 162
v -57 -64 164
v -52 -66 153
v -56 -63 164
v -52 -62 168
v -42 -64 165
v -40 -62 167
v -38 -66 162
v -61 -44 120
v -61 -60 120
v -35 -60 120
v -35 -44 120
v -47 -66 161
v -43 -65 164
v -44 -70 153
v -41 -69 156
v -23 -48 166
v -21 -43 160
v -32 -43 164
v -19 -46 151
v -28 -46 140
v -28 -58 140
v -30 -60 150
v -17 -57 141
v -19 -58 151
v -20 -61 158
v -23 -56 166
v -17 -47 141
v -25 -46 132
v -26 -52 132
v -25 -55 132
v -25 -57 132
v -16 -57 132
v -16 -46 132
v -65 -61 160
v -76 -61 158
v -66 -60 150
v -77 -58 151
v -79 -57 141
v -68 -58 140
v -68 -46 140
v -77 -46 151
v -64 -43 164
v -75 -43 160
v -73 -48 166
v -73 -56 166
v -79 -47 141
v -80 -46 132
v -80 -57 132
v -71 -57 132
v -71 -55 132
v -70 -52 132
v -71 -46 132
v -56 -62 167
v -54 -64 166
v -57 -64 165
v -56 -66 162
v -53 -65 164
v -51 -66 161
v -50 -67 157
v -46 -67 157
v -49 -71 151
v -47 -71 149
v -56 -69 155
v -55 -67 152
v -60 -64 160
v -70 -45 132
v -81 -45 132
v -81 -58 132
v -70 -58 132
v -70 -55 132
v -72 -53 128
v -73 -53 128
v -69 -51 132
v -72 -46 128
v -80 -46 128
v -80 -56 128
v -72 -56 128
v -80 -47 117
v -80 -54 117
v -74 -54 117
v -74 -47 117
v -76 -49 108
v -80 -49 108
v -80 -53 108
v -76 -53 108
v -75 -56 100
v -75 -47 102
v -83 -47 102
v -83 -56 100
v -78 -49 98
v -81 -49 99
v -81 -54 98
v -78 -54 97
v -15 -45 132
v -26 -45 132
v -27 -51 132
v -24 -53 128
v -23 -53 128
v -26 -55 132
v -26 -58 132
v -15 -58 132
v -16 -46 128
v -24 -46 128
v -16 -56 128
v -16 -47 117
v -24 -56 128
v -16 -54 117
v -16 -49 108
v -20 -49 108
v -22 -47 117
v -22 -54 117
v -16 -53 108
v -13 -56 100
v -13 -47 102
v -21 -47 102
v -20 -53 108
v -21 -56 100
v -15 -54 98
v -15 -49 99
v -18 -49 98
v -18 -54 97
v -35 -44 116
v -50 -61 120
v -46 -62 120
v -35 -60 116
v -33 -39 103
v -61 -44 116
v -61 -60 116
v -50 -61 116
v -46 -61 120
v -46 -61 116
v -48 -61 103
v -31 -61 103
v -31 -43 98
v -48 -43 98
v -63 -39 103
v -65 -60 103
v -50 -60 71
v -45 -46 71
v -45 -60 71
v -42 -61 77
v -44 -61 97
v -34 -61 97
v -30 -62 73
v -30 -44 74
v -65 -43 98
v -67 -44 74
v -67 -62 73
v -67 -62 68
v -65 -62 65
v -51 -62 65
v -50 -44 64
v -50 -46 71
v -39 -69 8
v -43 -73 4
v -35 -73 4
v -33 -63 4
v -36 -60 9
v -40 -62 9
v -46 -63 4
v -46 -62 2
v -43 -74 2
v -35 -74 2
v -33 -62 2
v -34 -44 4
v -36 -56 12
v -38 -58 10
v -42 -58 10
v -44 -60 9
v -43 -56 12
v -44 -44 4
v -44 -44 2
v -43 -46 13
v -39 -43 8
v -34 -44 2
v -36 -46 13
v -36 -46 25
v -36 -56 24
v -42 -56 24
v -42 -46 25
v -31 -43 49
v -31 -61 51
v -46 -61 51
v -50 -43 52
v -63 -43 52
v -66 -44 64
v -67 -46 68
v -63 -61 54
v -50 -61 54
v -49 -63 51
v -49 -41 49
v -65 -41 49
v -65 -63 51
v -54 -56 24
v -54 -46 25
v -60 -46 25
v -60 -56 24
v -60 -56 12
v -53 -56 12
v -53 -46 13
v -60 -46 13
v -62 -44 4
v -63 -63 4
v -60 -60 9
v -58 -58 10
v -54 -58 10
v -50 -63 4
v -52 -44 4
v -57 -43 8
v -52 -44 2
v -62 -44 2
v -63 -62 2
v -61 -73 4
v -57 -69 8
v -56 -62 9
v -52 -60 9
v -53 -73 4
v -53 -74 2
v -50 -62 2
v -61 -74 2
v -30 -44 64
v -32 -43 52
v -45 -43 52
v -45 -44 64
v -30 -46 68
v -31 -62 65
v -32 -61 54
v -46 -43 49
v -45 -61 54
v -44 -62 65
v -30 -62 68
v -34 -61 79
v -42 -54 0
v -54 -54 0
v -48 -46 0
v -54 -62 116
v -52 -62 115
v -55 -62 113
v -53 -62 113
v -54 -63 106
v -52 -63 106
v -44 -62 115
v -42 -62 116
v -43 -62 113
v -41 -62 113
v -44 -63 105
v -42 -63 105
v -15 45 118
v -15 35 133
v 15 45 118
v -59 -56 168
v -56 -70 144
v -34 -53 171

f 1 2 3
f 1 3 4
f 1 4 5
f 1 5 6
f 1 6 2
f 2 6 7
f 2 7 8
f 2 8 9
f 2 9 3
f 3 9 4
f 4 9 10
f 4 10 11
f 4 11 5
f 5 11 12
f 5 12 6
f 6 12 13
f 6 13 7
f 7 13 14
f 7 14 15
f 7 15 8
f 8 15 16
f 8 16 9
f 9 16 10
f 10 16 17
f 10 17 18
f 10 18 19
f 10 19 20
f 10 20 21
f 10 21 11
f 11 21 22
f 11 22 12
f 12 22 23
f 12 23 24
f 12 24 13
f 13 24 25
f 13 25 26
f 13 26 14
f 14 26 27
f 14 27 15
f 15 27 28
f 15 28 29
f 15 29 30
f 15 30 16
f 16 30 31
f 16 31 17
f 32 33 34
f 32 34 35
f 32 35 36
f 32 36 33
f 33 36 37
f 33 37 38
f 33 38 39
f 33 39 34
f 34 39 40
f 34 40 35
f 35 40 41
f 35 41 19
f 35 19 36
f 36 19 42
f 36 42 37
f 37 42 28
f 37 28 38
f 38 28 43
f 38 43 44
f 38 44 39
f 39 44 45
f 39 45 40
f 40 45 46
f 40 46 41
f 41 46 47
f 41 47 48
f 41 48 19
f 19 48 20
f 20 48 21
f 21 48 49
f 21 49 22
f 22 49 50
f 22 50 51
f 22 51 23
f 23 51 52
f 23 52 24
f 24 52 53
f 24 53 54
f 24 54 55
f 24 55 25
f 25 55 54
f 25 54 26
f 26 54 56
f 56 54 57
f 57 54 58
f 57 58 44
f 57 44 43
f 57 43 27
f 57 27 26
f 59 60 42
f 59 42 19
f 59 19 18
f 28 42 29
f 29 42 60
f 28 27 43
f 54 61 62
f 54 62 58
f 58 62 61
f 58 61 44
f 44 61 45
f 45 61 63
f 45 63 47
f 45 47 46
f 54 64 61
f 61 64 65
f 61 65 66
f 61 66 63
f 63 66 50
f 63 50 49
f 63 49 48
f 63 48 47
f 54 65 64
f 65 54 67
f 65 67 66
f 66 67 50
f 50 67 51
f 51 67 52
f 52 67 54
f 52 54 53
f 68 67 54
f 68 54 56
f 68 56 54
f 68 54 67
f 66 61 69
f 70 71 72
f 70 72 73
f 70 73 74
f 74 73 75
f 74 75 76
f 76 75 77
f 76 77 71
f 71 77 72
f 72 77 73
f 72 73 78
f 72 78 79
f 72 79 80
f 77 75 73
f 75 77 81
f 75 81 82
f 75 82 83
f 84 85 86
f 84 86 87
f 84 87 88
f 88 87 89
f 88 89 90
f 90 89 91
f 90 91 85
f 85 91 86
f 86 91 92
f 86 92 93
f 86 93 94
f 86 94 87
f 86 87 89
f 86 89 91
f 91 89 95
f 91 95 92
f 92 95 96
f 92 96 97
f 92 97 98
f 92 98 93
f 93 98 99
f 93 99 100
f 93 100 94
f 94 100 95
f 94 95 87
f 87 95 89
f 101 102 103
f 101 103 104
f 104 103 105
f 104 105 106
f 106 105 107
f 106 107 108
f 108 107 109
f 108 109 110
f 110 109 111
f 110 111 112
f 110 112 113
f 113 112 114
f 113 114 115
f 113 115 116
f 116 115 117
f 116 117 118
f 116 118 119
f 119 118 120
f 119 120 101
f 101 120 102
f 102 120 121
f 121 120 122
f 121 122 123
f 121 123 124
f 121 124 125
f 121 125 126
f 126 125 127
f 127 125 128
f 127 128 129
f 129 128 130
f 129 130 131
f 131 130 132
f 131 132 133
f 131 133 107
f 131 107 105
f 134 135 112
f 134 112 111
f 134 111 136
f 134 136 137
f 134 137 138
f 134 138 139
f 134 139 135
f 134 135 140
f 134 140 141
f 134 141 142
f 134 142 143
f 134 143 135
f 135 143 144
f 135 144 145
f 135 145 140
f 140 145 141
f 141 145 142
f 142 145 146
f 142 146 147
f 142 147 143
f 143 147 148
f 143 148 144
f 144 148 149
f 144 149 145
f 145 149 146
f 146 149 150
f 146 150 151
f 146 151 147
f 147 151 152
f 147 152 148
f 148 152 153
f 148 153 149
f 149 153 150
f 150 153 154
f 150 154 155
f 150 155 151
f 151 155 156
f 151 156 152
f 152 156 157
f 152 157 153
f 153 157 154
f 154 157 158
f 154 158 159
f 154 159 155
f 155 159 160
f 155 160 156
f 156 160 161
f 156 161 157
f 157 161 158
f 158 161 162
f 158 162 163
f 158 163 159
f 159 163 164
f 159 164 165
f 159 165 160
f 160 165 161
f 161 165 162
f 162 165 163
f 163 165 164
f 117 115 166
f 117 166 167
f 117 167 168
f 117 168 118
f 118 168 169
f 118 169 170
f 118 170 122
f 118 122 120
f 30 29 171
f 30 171 172
f 30 172 173
f 30 173 17
f 17 173 174
f 17 174 175
f 17 175 176
f 17 176 59
f 59 176 139
f 59 139 138
f 59 138 29
f 29 138 177
f 29 177 171
f 171 177 178
f 171 178 179
f 171 179 169
f 171 169 180
f 171 180 172
f 172 180 181
f 172 181 173
f 173 181 167
f 173 167 174
f 174 167 166
f 174 166 175
f 175 166 115
f 175 115 182
f 175 182 176
f 176 182 112
f 176 112 135
f 176 135 139
f 182 115 114
f 182 114 112
f 111 109 136
f 136 109 183
f 136 183 178
f 136 178 137
f 137 178 177
f 137 177 138
f 179 170 169
f 170 179 109
f 170 109 133
f 170 133 184
f 170 184 122
f 122 184 185
f 122 185 123
f 123 185 186
f 123 186 124
f 124 186 128
f 124 128 125
f 183 109 179
f 183 179 178
f 168 180 169
f 180 168 181
f 181 168 167
f 107 133 109
f 130 128 186
f 130 186 132
f 132 186 185
f 132 185 187
f 132 187 133
f 133 187 184
f 184 187 185
f 96 188 97
f 97 188 189
f 97 189 190
f 97 190 98
f 98 190 191
f 98 191 192
f 98 192 193
f 98 193 99
f 99 193 194
f 99 194 195
f 99 195 100
f 100 195 191
f 100 191 96
f 100 96 95
f 191 188 96
f 188 191 196
f 188 196 189
f 189 196 197
f 189 197 198
f 189 198 199
f 189 199 190
f 190 199 200
f 190 200 191
f 191 200 196
f 196 200 197
f 197 200 201
f 197 201 202
f 197 202 198
f 198 202 203
f 198 203 204
f 198 204 199
f 199 204 201
f 199 201 200
f 195 192 191
f 192 195 205
f 192 205 206
f 192 206 193
f 193 206 207
f 193 207 208
f 193 208 194
f 194 208 205
f 194 205 195
f 205 209 206
f 206 209 210
f 206 210 207
f 207 210 211
f 207 211 212
f 207 212 208
f 208 212 209
f 208 209 205
f 209 213 210
f 210 213 214
f 210 214 215
f 210 215 211
f 211 215 216
f 211 216 217
f 211 217 212
f 212 217 214
f 212 214 213
f 212 213 209
f 201 218 202
f 202 218 219
f 202 219 203
f 203 219 220
f 203 220 204
f 204 220 221
f 204 221 222
f 204 222 218
f 204 218 201
f 217 223 214
f 214 223 224
f 214 224 225
f 214 225 215
f 215 225 226
f 215 226 227
f 215 227 216
f 216 227 228
f 216 228 229
f 216 229 217
f 217 229 223
f 223 229 227
f 223 227 230
f 223 230 224
f 224 230 231
f 224 231 225
f 225 231 226
f 226 231 230
f 226 230 227
f 227 229 228
f 219 232 220
f 220 232 233
f 220 233 221
f 221 233 234
f 221 234 235
f 221 235 222
f 222 235 236
f 222 236 237
f 222 237 219
f 222 219 218
f 234 233 235
f 235 233 232
f 235 232 238
f 235 238 236
f 236 238 239
f 236 239 237
f 237 239 240
f 237 240 219
f 219 240 232
f 232 240 238
f 238 240 239
f 241 242 243
f 167 244 166
f 167 166 245
f 167 245 246
f 167 246 247
f 167 247 244
f 244 247 248
f 244 248 166
f 166 248 249
f 166 249 245
f 245 249 250
f 245 250 251
f 245 251 246
f 246 251 252
f 246 252 248
f 246 248 247
f 253 254 255
f 253 255 256
f 253 256 257
f 253 257 258
f 253 258 259
f 253 259 254
f 254 259 260
f 254 260 261
f 254 261 262
f 254 262 255
f 255 262 263
f 255 263 264
f 255 264 256
f 256 264 265
f 256 265 266
f 256 266 257
f 257 266 261
f 257 261 267
f 257 267 258
f 258 267 260
f 258 260 259
f 261 266 262
f 262 266 268
f 262 268 263
f 263 268 252
f 263 252 251
f 263 251 264
f 264 251 250
f 264 250 265
f 265 250 269
f 265 269 268
f 265 268 266
f 269 252 268
f 252 269 248
f 248 269 249
f 249 269 250
f 261 260 267
f 270 271 272
f 270 272 273
f 270 273 274
f 270 274 275
f 270 275 276
f 270 276 271
f 271 276 277
f 271 277 272
f 272 277 278
f 272 278 279
f 272 279 280
f 272 280 273
f 273 280 281
f 273 281 274
f 274 281 279
f 274 279 278
f 274 278 275
f 275 278 277
f 275 277 276
f 280 279 281
f 282 283 284
f 282 284 285
f 282 285 286
f 282 286 287
f 282 287 283
f 283 287 288
f 283 288 284
f 284 288 289
f 284 289 290
f 284 290 291
f 284 291 285
f 285 291 292
f 285 292 286
f 286 292 288
f 286 288 287
f 289 288 292
f 289 292 293
f 289 293 290
f 290 293 291
f 291 293 292
f 294 295 296
f 294 296 297
f 294 297 295
f 295 297 298
f 295 298 299
f 295 299 300
f 295 300 301
f 295 301 302
f 295 302 296
f 296 302 301
f 296 301 303
f 296 303 304
f 296 304 305
f 296 305 306
f 296 306 297
f 297 306 298
f 298 306 307
f 298 307 308
f 298 308 299
f 299 308 309
f 299 309 310
f 299 310 311
f 299 311 300
f 300 311 312
f 300 312 301
f 301 312 303
f 303 312 313
f 303 313 314
f 303 314 315
f 303 315 316
f 303 316 304
f 304 316 305
f 305 316 317
f 317 316 318
f 317 318 319
f 317 319 320
f 317 320 321
f 317 321 306
f 306 321 307
f 307 321 322
f 307 322 323
f 307 323 308
f 308 323 324
f 308 324 309
f 309 324 325
f 309 325 326
f 309 326 310
f 310 326 327
f 310 327 328
f 310 328 311
f 311 328 329
f 311 329 313
f 311 313 312
f 316 330 331
f 316 331 318
f 318 331 330
f 318 330 319
f 319 330 332
f 319 332 333
f 319 333 320
f 320 333 334
f 320 334 335
f 320 335 321
f 321 335 322
f 322 335 336
f 322 336 337
f 322 337 338
f 322 338 339
f 322 339 340
f 322 340 341
f 322 341 323
f 323 341 342
f 323 342 324
f 324 342 325
f 325 342 343
f 325 343 326
f 326 343 344
f 326 344 327
f 327 344 340
f 327 340 339
f 327 339 345
f 327 345 346
f 327 346 347
f 327 347 328
f 328 347 348
f 328 348 329
f 329 348 349
f 329 349 313
f 313 349 314
f 314 349 350
f 314 350 315
f 315 350 330
f 315 330 351
f 315 351 316
f 316 351 330
f 341 344 342
f 342 344 343
f 352 353 354
f 352 354 355
f 352 355 356
f 352 356 353
f 353 356 357
f 353 357 334
f 353 334 358
f 353 358 354
f 354 358 359
f 354 359 355
f 355 359 360
f 355 360 346
f 355 346 356
f 356 346 361
f 356 361 357
f 357 361 335
f 357 335 334
f 350 349 332
f 350 332 330
f 333 358 334
f 358 333 359
f 359 333 332
f 359 332 360
f 360 332 349
f 360 349 348
f 360 348 346
f 346 348 347
f 345 335 361
f 345 361 346
f 341 340 344
f 339 338 362
f 339 362 345
f 345 362 335
f 335 362 336
f 336 362 363
f 336 363 364
f 336 364 337
f 337 364 365
f 337 365 366
f 337 366 338
f 338 366 367
f 338 367 368
f 338 368 369
f 338 369 362
f 362 369 370
f 362 370 363
f 363 370 371
f 363 371 372
f 363 372 364
f 364 372 373
f 364 373 365
f 365 373 374
f 365 374 366
f 366 374 375
f 366 375 367
f 367 375 376
f 367 376 377
f 367 377 368
f 368 377 378
f 368 378 369
f 369 378 379
f 369 379 370
f 370 379 380
f 370 380 371
f 371 380 381
f 371 381 382
f 371 382 372
f 372 382 383
f 372 383 373
f 373 383 384
f 373 384 385
f 373 385 374
f 374 385 386
f 374 386 375
f 375 386 376
f 376 386 387
f 376 387 377
f 377 387 388
f 377 388 378
f 378 388 389
f 378 389 379
f 379 389 381
f 379 381 380
f 390 391 392
f 390 392 393
f 394 395 396
f 394 396 397
f 397 396 398
f 397 398 399
f 397 399 400
f 397 400 401
f 401 400 402
f 402 400 403
f 403 400 404
f 403 404 405
f 405 404 406
f 405 406 407
f 405 407 408
f 408 407 409
f 408 409 410
f 410 409 411
f 411 409 412
f 412 409 413
f 413 409 414
f 414 409 407
f 414 407 415
f 415 407 406
f 415 406 416
f 416 406 404
f 416 404 417
f 417 404 399
f 417 399 418
f 418 399 398
f 418 398 419
f 419 398 420
f 419 420 421
f 421 420 422
f 421 422 423
f 423 422 424
f 423 424 425
f 425 424 426
f 425 426 427
f 427 426 428
f 427 428 429
f 396 395 430
f 396 430 398
f 398 430 420
f 420 430 431
f 420 431 422
f 422 431 424
f 424 431 432
f 424 432 426
f 426 432 433
f 426 433 434
f 426 434 428
f 400 399 404
f 435 436 437
f 435 437 438
f 435 438 439
f 439 438 440
f 439 440 441
f 441 440 442
f 441 442 436
f 436 442 437
f 382 381 443
f 382 443 444
f 382 444 383
f 445 387 386
f 445 386 446
f 446 386 385
f 447 388 387
f 447 387 445
f 381 389 448
f 381 448 443
f 449 450 451
f 449 451 452
f 453 454 455
f 453 455 456
f 453 456 457
f 453 457 458
f 453 458 454
f 454 458 459
f 454 459 460
f 454 460 461
f 454 461 462
f 454 462 455
f 455 462 463
f 455 463 464
f 455 464 456
f 456 464 465
f 456 465 466
f 456 466 457
f 457 466 461
f 457 461 460
f 457 460 467
f 457 467 458
f 458 467 468
f 458 468 459
f 459 468 469
f 459 469 470
f 459 470 460
f 460 470 467
f 467 470 471
f 467 471 468
f 468 471 469
f 469 471 470
f 461 466 462
f 462 466 472
f 462 472 463
f 463 472 473
f 463 473 474
f 463 474 464
f 464 474 475
f 464 475 465
f 465 475 476
f 465 476 472
f 465 472 466
f 382 477 478
f 382 478 479
f 382 479 480
f 382 480 481
f 382 481 482
f 482 481 483
f 482 483 484
f 482 484 485
f 485 484 486
f 485 486 380
f 380 486 487
f 380 487 371
f 371 487 488
f 371 488 478
f 371 478 477
f 479 484 489
f 479 489 480
f 480 489 490
f 480 490 491
f 480 491 492
f 480 492 481
f 481 492 483
f 483 492 493
f 483 493 489
f 483 489 484
f 484 479 478
f 484 478 486
f 486 478 487
f 487 478 488
f 493 490 489
f 490 493 475
f 490 475 474
f 490 474 491
f 491 474 473
f 491 473 492
f 492 473 476
f 492 476 493
f 493 476 475
f 476 473 472
f 494 495 496
f 494 496 497
f 494 497 498
f 494 498 499
f 494 499 500
f 494 500 501
f 494 501 495
f 495 501 502
f 495 502 503
f 495 503 504
f 495 504 496
f 496 504 505
f 496 505 497
f 497 505 506
f 497 506 507
f 497 507 498
f 498 507 508
f 498 508 509
f 498 509 499
f 499 509 506
f 499 506 505
f 499 505 500
f 500 505 510
f 500 510 501
f 501 510 511
f 501 511 502
f 502 511 512
f 502 512 513
f 502 513 503
f 503 513 514
f 503 514 515
f 503 515 504
f 504 515 510
f 504 510 505
f 386 516 517
f 517 516 375
f 375 516 518
f 375 518 519
f 375 519 376
f 376 519 520
f 376 520 521
f 521 520 522
f 521 522 523
f 523 522 524
f 523 524 525
f 523 525 386
f 386 525 526
f 386 526 527
f 386 527 516
f 516 527 522
f 516 522 520
f 516 520 519
f 516 519 518
f 527 528 522
f 522 528 524
f 524 528 529
f 524 529 530
f 524 530 525
f 525 530 526
f 526 530 531
f 526 531 532
f 526 532 528
f 526 528 527
f 529 528 532
f 529 532 512
f 529 512 533
f 529 533 530
f 530 533 514
f 530 514 531
f 531 514 513
f 531 513 532
f 532 513 512
f 512 511 533
f 533 511 515
f 533 515 514
f 511 510 515
f 507 506 534
f 507 534 508
f 508 534 509
f 509 534 506
f 535 536 537
f 535 537 538
f 535 538 539
f 535 539 540
f 535 540 541
f 535 541 542
f 535 542 543
f 535 543 544
f 535 544 545
f 535 545 546
f 535 546 536
f 536 546 547
f 536 547 548
f 536 548 537
f 537 548 549
f 537 549 550
f 537 550 551
f 537 551 538
f 538 551 539
f 539 551 552
f 539 552 553
f 539 553 540
f 540 553 554
f 540 554 555
f 540 555 556
f 540 556 541
f 541 556 542
f 542 556 557
f 542 557 558
f 542 558 559
f 542 559 543
f 543 559 560
f 543 560 544
f 544 560 561
f 544 561 557
f 544 557 556
f 544 556 545
f 545 556 555
f 545 555 552
f 545 552 551
f 545 551 546
f 546 551 550
f 546 550 562
f 546 562 547
f 547 562 563
f 547 563 564
f 547 564 548
f 548 564 565
f 548 565 549
f 549 565 566
f 549 566 562
f 549 562 550
f 567 554 438
f 567 438 440
f 567 440 568
f 567 568 552
f 567 552 555
f 567 555 554
f 553 440 438
f 553 438 554
f 553 552 568
f 553 568 440
f 569 570 571
f 569 571 572
f 569 572 565
f 569 565 573
f 569 573 574
f 569 574 570
f 570 574 575
f 570 575 576
f 570 576 571
f 571 576 577
f 571 577 578
f 571 578 579
f 571 579 572
f 572 579 563
f 572 563 566
f 572 566 565
f 573 565 564
f 573 564 580
f 573 580 581
f 573 581 579
f 573 579 582
f 573 582 583
f 573 583 574
f 574 583 584
f 574 584 578
f 574 578 585
f 574 585 575
f 575 585 586
f 575 586 587
f 575 587 576
f 576 587 588
f 576 588 577
f 577 588 589
f 577 589 586
f 577 586 585
f 577 585 578
f 562 566 563
f 564 563 590
f 564 590 580
f 580 590 591
f 580 591 592
f 580 592 581
f 581 592 593
f 581 593 594
f 581 594 579
f 579 594 563
f 563 594 590
f 590 594 595
f 590 595 591
f 591 595 593
f 591 593 592
f 594 593 595
f 579 578 596
f 579 596 582
f 582 596 597
f 582 597 598
f 582 598 583
f 583 598 599
f 583 599 584
f 584 599 600
f 584 600 596
f 584 596 578
f 600 599 598
f 600 598 597
f 600 597 596
f 601 602 603
f 601 603 604
f 601 604 605
f 601 605 606
f 601 606 607
f 601 607 602
f 602 607 608
f 602 608 609
f 602 609 610
f 602 610 611
f 602 611 603
f 603 611 612
f 603 612 604
f 604 612 613
f 604 613 609
f 604 609 614
f 604 614 615
f 604 615 605
f 605 615 616
f 605 616 608
f 605 608 617
f 605 617 618
f 605 618 619
f 605 619 606
f 606 619 561
f 606 561 560
f 606 560 620
f 606 620 607
f 607 620 621
f 607 621 608
f 608 621 622
f 608 622 617
f 617 622 623
f 617 623 624
f 617 624 618
f 618 624 625
f 618 625 626
f 618 626 619
f 619 626 621
f 619 621 558
f 619 558 561
f 561 558 557
f 560 559 620
f 620 559 621
f 621 559 558
f 621 626 622
f 622 626 627
f 622 627 623
f 623 627 625
f 623 625 624
f 626 625 627
f 609 613 610
f 610 613 628
f 610 628 611
f 611 628 629
f 611 629 630
f 611 630 612
f 612 630 631
f 612 631 613
f 613 631 628
f 628 631 632
f 628 632 633
f 628 633 629
f 629 633 630
f 630 633 634
f 630 634 631
f 631 634 635
f 631 635 632
f 632 635 636
f 632 636 637
f 632 637 638
f 632 638 633
f 633 638 634
f 634 638 639
f 634 639 635
f 635 639 640
f 635 640 641
f 635 641 636
f 636 641 637
f 637 641 640
f 637 640 639
f 637 639 638
f 608 616 642
f 608 642 609
f 609 642 614
f 614 642 643
f 614 643 644
f 614 644 615
f 615 644 645
f 615 645 616
f 616 645 646
f 616 646 642
f 642 646 643
f 643 646 645
f 643 645 644
f 647 648 649
f 650 651 652
f 650 652 653
f 650 653 654
f 650 654 655
f 650 655 656
f 650 656 651
f 651 656 657
f 651 657 652
f 652 657 658
f 652 658 653
f 653 658 659
f 653 659 654
f 654 659 657
f 654 657 587
f 654 587 586
f 654 586 655
f 655 586 589
f 655 589 588
f 655 588 656
f 656 588 587
f 656 587 657
f 657 659 658
f 660 661 662
f 660 662 663
f 660 663 664
f 660 664 665
f 660 665 666
f 660 666 661
f 661 666 667
f 661 667 668
f 661 668 669
f 661 669 662
f 662 669 670
f 662 670 663
f 663 670 671
f 663 671 672
f 663 672 673
f 663 673 664
f 664 673 674
f 664 674 675
f 664 675 665
f 665 675 676
f 665 676 677
f 665 677 666
f 666 677 678
f 666 678 667
f 667 678 679
f 667 679 680
f 667 680 668
f 668 680 681
f 668 681 682
f 668 682 669
f 669 682 683
f 669 683 670
f 670 683 684
f 670 684 671
f 671 684 672
f 672 684 685
f 672 685 686
f 672 686 673
f 673 686 674
f 674 686 681
f 674 681 687
f 674 687 675
f 675 687 688
f 675 688 676
f 676 688 689
f 676 689 690
f 676 690 677
f 677 690 691
f 677 691 678
f 678 691 692
f 678 692 679
f 679 692 693
f 679 693 694
f 679 694 680
f 680 694 687
f 680 687 681
f 685 684 695
f 685 695 682
f 685 682 686
f 686 682 681
f 695 684 683
f 695 683 682
f 687 694 688
f 688 694 696
f 688 696 689
f 694 693 696
f 697 698 699
f 697 699 700
f 697 700 698
f 698 700 701
f 698 701 702
f 698 702 703
f 698 703 704
f 698 704 705
f 698 705 699
f 699 705 704
f 699 704 706
f 699 706 707
f 699 707 708
f 699 708 709
f 699 709 700
f 700 709 701
f 701 709 710
f 701 710 711
f 701 711 702
f 702 711 712
f 702 712 713
f 702 713 714
f 702 714 703
f 703 714 715
f 703 715 704
f 704 715 706
f 706 715 716
f 706 716 717
f 706 717 718
f 706 718 719
f 706 719 707
f 707 719 708
f 708 719 720
f 720 719 721
f 720 721 722
f 720 722 723
f 720 723 724
f 720 724 725
f 725 724 723
f 725 723 726
f 725 726 710
f 725 710 727
f 725 727 709
f 709 727 710
f 719 728 729
f 719 729 721
f 721 729 728
f 721 728 722
f 722 728 730
f 722 730 731
f 722 731 723
f 723 731 732
f 723 732 733
f 723 733 734
f 723 734 735
f 723 735 736
f 723 736 737
f 723 737 738
f 723 738 726
f 726 738 710
f 710 738 737
f 710 737 736
f 710 736 739
f 710 739 740
f 710 740 741
f 710 741 742
f 710 742 711
f 711 742 743
f 711 743 712
f 712 743 744
f 712 744 745
f 712 745 713
f 713 745 746
f 713 746 747
f 713 747 714
f 714 747 748
f 714 748 716
f 714 716 715
f 719 749 728
f 728 749 718
f 728 718 750
f 728 750 730
f 730 750 751
f 730 751 752
f 730 752 753
f 730 753 731
f 731 753 754
f 731 754 732
f 732 754 755
f 732 755 756
f 732 756 757
f 732 757 733
f 733 757 756
f 733 756 758
f 733 758 759
f 733 759 760
f 733 760 761
f 733 761 741
f 741 761 762
f 741 762 763
f 741 763 764
f 741 764 765
f 741 765 766
f 741 766 767
f 741 767 742
f 742 767 766
f 742 766 768
f 742 768 743
f 743 768 744
f 744 768 769
f 744 769 745
f 745 769 770
f 745 770 746
f 746 770 765
f 746 765 764
f 746 764 759
f 746 759 771
f 746 771 772
f 746 772 747
f 747 772 773
f 747 773 748
f 748 773 751
f 748 751 716
f 716 751 717
f 717 751 750
f 717 750 718
f 766 770 768
f 768 770 769
f 774 755 775
f 774 775 776
f 774 776 777
f 774 777 755
f 755 777 756
f 756 777 758
f 758 777 771
f 758 771 759
f 754 775 755
f 775 754 753
f 775 753 776
f 776 753 752
f 776 752 771
f 776 771 777
f 771 773 772
f 773 771 752
f 773 752 751
f 766 765 770
f 719 718 749
f 764 763 760
f 764 760 759
f 778 736 733
f 778 733 734
f 736 779 778
f 778 779 735
f 778 735 734
f 736 735 779
f 741 736 780
f 741 780 740
f 780 781 736
f 736 781 739
f 739 781 780
f 739 780 740
f 782 783 784
f 782 784 785
f 782 785 786
f 782 786 787
f 782 787 788
f 782 788 789
f 782 789 783
f 783 789 790
f 783 790 791
f 783 791 792
f 783 792 793
f 783 793 784
f 784 793 794
f 784 794 785
f 785 794 795
f 785 795 786
f 786 795 796
f 786 796 797
f 786 797 787
f 787 797 798
f 787 798 799
f 787 799 788
f 788 799 800
f 788 800 801
f 788 801 802
f 788 802 803
f 788 803 789
f 789 803 804
f 789 804 805
f 789 805 790
f 790 805 806
f 790 806 807
f 790 807 808
f 790 808 791
f 791 808 792
f 792 808 762
f 792 762 809
f 792 809 810
f 792 810 794
f 792 794 793
f 811 812 813
f 811 813 814
f 811 814 815
f 811 815 816
f 811 816 817
f 811 817 818
f 811 818 819
f 811 819 812
f 812 819 820
f 812 820 821
f 812 821 822
f 812 822 823
f 812 823 813
f 813 823 824
f 813 824 825
f 813 825 814
f 814 825 826
f 814 826 763
f 814 763 827
f 814 827 828
f 814 828 829
f 814 829 815
f 815 829 830
f 815 830 816
f 816 830 817
f 817 830 828
f 817 828 831
f 817 831 832
f 817 832 833
f 817 833 834
f 817 834 818
f 818 834 835
f 818 835 836
f 818 836 819
f 819 836 837
f 819 837 820
f 820 837 838
f 820 838 839
f 820 839 821
f 821 839 840
f 821 840 822
f 822 840 841
f 822 841 842
f 822 842 843
f 822 843 823
f 823 843 844
f 823 844 824
f 824 844 845
f 824 845 846
f 824 846 825
f 825 846 847
f 825 847 760
f 825 760 826
f 826 760 763
f 804 833 832
f 804 832 805
f 805 832 848
f 805 848 849
f 805 849 806
f 806 849 850
f 806 850 807
f 807 850 851
f 807 851 852
f 807 852 827
f 807 827 808
f 808 827 763
f 808 763 762
f 796 795 853
f 796 853 854
f 796 854 797
f 797 854 855
f 797 855 856
f 797 856 798
f 798 856 857
f 798 857 858
f 798 858 859
f 798 859 799
f 799 859 860
f 799 860 800
f 800 860 861
f 800 861 862
f 800 862 801
f 801 862 863
f 801 863 864
f 801 864 802
f 802 864 803
f 803 864 862
f 803 862 865
f 803 865 804
f 804 865 833
f 833 865 834
f 834 865 866
f 834 866 835
f 835 866 867
f 835 867 868
f 835 868 836
f 836 868 869
f 836 869 870
f 836 870 837
f 837 870 838
f 838 870 871
f 838 871 872
f 838 872 839
f 839 872 873
f 839 873 840
f 840 873 853
f 840 853 841
f 841 853 874
f 841 874 875
f 841 875 876
f 841 876 877
f 841 877 878
f 841 878 842
f 853 873 854
f 854 873 879
f 854 879 858
f 854 858 880
f 854 880 855
f 855 880 856
f 856 880 857
f 857 880 858
f 873 872 879
f 879 872 881
f 879 881 882
f 879 882 858
f 858 882 883
f 858 883 859
f 859 883 884
f 859 884 860
f 860 884 861
f 861 884 885
f 861 885 886
f 861 886 862
f 862 886 866
f 862 866 865
f 827 852 828
f 828 852 831
f 831 852 887
f 831 887 888
f 831 888 832
f 832 888 848
f 889 847 876
f 889 876 795
f 889 795 890
f 889 890 891
f 889 891 847
f 847 891 761
f 847 761 760
f 795 794 890
f 890 794 891
f 891 794 810
f 891 810 892
f 891 892 761
f 761 892 762
f 762 892 809
f 762 809 893
f 762 893 894
f 894 893 895
f 872 871 881
f 881 871 896
f 881 896 882
f 882 896 897
f 882 897 883
f 883 897 898
f 883 898 884
f 884 898 886
f 884 886 885
f 866 886 867
f 867 886 898
f 867 898 899
f 867 899 868
f 868 899 869
f 869 899 870
f 870 899 896
f 870 896 871
f 809 892 810
f 809 810 900
f 809 900 901
f 901 900 902
f 901 902 903
f 852 851 887
f 887 851 904
f 887 904 905
f 887 905 906
f 906 905 848
f 848 905 907
f 848 907 908
f 848 908 909
f 848 909 910
f 910 909 911
f 910 911 912
f 910 912 913
f 910 913 850
f 850 913 851
f 851 913 914
f 851 914 904
f 904 914 913
f 904 913 905
f 905 913 907
f 907 913 912
f 907 912 915
f 907 915 908
f 908 915 916
f 908 916 917
f 908 917 909
f 909 917 918
f 909 918 919
f 909 919 911
f 911 919 920
f 911 920 921
f 911 921 915
f 911 915 912
f 846 876 847
f 876 846 877
f 877 846 922
f 877 922 878
f 846 845 922
f 922 845 923
f 922 923 924
f 924 923 925
f 924 925 926
f 924 926 927
f 924 927 842
f 842 927 928
f 842 928 929
f 842 929 930
f 930 929 931
f 930 931 844
f 844 931 932
f 844 932 845
f 845 932 933
f 845 933 923
f 923 933 932
f 923 932 931
f 923 931 929
f 923 929 925
f 925 929 934
f 925 934 926
f 926 934 935
f 926 935 936
f 926 936 937
f 926 937 927
f 927 937 938
f 927 938 939
f 927 939 928
f 928 939 940
f 928 940 934
f 928 934 929
f 862 864 863
f 892 761 941
f 892 941 942
f 942 941 943
f 942 943 944
f 810 892 945
f 810 945 946
f 810 946 900
f 900 946 947
f 900 947 948
f 948 947 949
f 948 949 950
f 946 945 951
f 952 953 875
f 952 875 874
f 952 874 853
f 952 853 795
f 952 795 953
f 953 795 876
f 953 876 875
f 828 830 829
f 940 935 934
f 935 940 954
f 935 954 955
f 935 955 936
f 936 955 956
f 936 956 937
f 937 956 957
f 937 957 958
f 937 958 938
f 938 958 959
f 938 959 960
f 938 960 939
f 939 960 961
f 939 961 940
f 940 961 954
f 954 961 959
f 954 959 962
f 954 962 955
f 955 962 963
f 955 963 956
f 956 963 964
f 956 964 957
f 957 964 965
f 957 965 959
f 957 959 958
f 964 963 966
f 964 966 967
f 964 967 965
f 965 967 968
f 965 968 959
f 959 968 969
f 959 969 962
f 962 969 963
f 963 969 966
f 966 969 970
f 966 970 971
f 966 971 967
f 967 971 972
f 967 972 968
f 968 972 973
f 968 973 969
f 969 973 970
f 970 973 974
f 970 974 975
f 970 975 976
f 970 976 971
f 971 976 972
f 972 976 977
f 972 977 974
f 972 974 973
f 975 978 979
f 975 979 976
f 976 979 977
f 977 979 980
f 977 980 981
f 977 981 974
f 974 981 975
f 975 981 978
f 978 981 980
f 978 980 979
f 961 960 959
f 916 915 921
f 916 921 982
f 916 982 983
f 916 983 917
f 917 983 984
f 917 984 985
f 917 985 986
f 917 986 918
f 918 986 987
f 918 987 988
f 918 988 919
f 919 988 920
f 920 988 989
f 920 989 921
f 921 989 982
f 982 989 990
f 982 990 991
f 982 991 983
f 983 991 985
f 983 985 984
f 992 993 990
f 992 990 989
f 992 989 988
f 992 988 994
f 992 994 995
f 992 995 993
f 993 995 996
f 993 996 997
f 993 997 998
f 993 998 990
f 990 998 991
f 991 998 985
f 985 998 999
f 985 999 994
f 985 994 988
f 985 988 987
f 985 987 986
f 994 999 995
f 995 999 1000
f 995 1000 996
f 996 1000 1001
f 996 1001 1002
f 996 1002 1003
f 996 1003 997
f 997 1003 1004
f 997 1004 998
f 998 1004 999
f 999 1004 1000
f 1000 1004 1001
f 1001 1004 1005
f 1001 1005 1006
f 1001 1006 1002
f 1002 1006 1007
f 1002 1007 1008
f 1002 1008 1003
f 1003 1008 1005
f 1003 1005 1004
f 1009 1008 1007
f 1009 1007 1006
f 1009 1006 1005
f 1009 1005 1008
f 898 1010 899
f 898 899 896
f 898 896 897
f 898 897 1011
f 898 1011 1012
f 898 1012 1013
f 898 1013 1010
f 1010 1013 1014
f 1010 1014 1015
f 1010 1015 899
f 899 1015 896
f 896 1015 897
f 897 1015 1016
f 897 1016 1017
f 897 1017 1011
f 1011 1017 1018
f 1011 1018 1012
f 1012 1018 1019
f 1012 1019 1013
f 1013 1019 1016
f 1013 1016 1020
f 1013 1020 1021
f 1013 1021 1014
f 1014 1021 1022
f 1014 1022 1023
f 1014 1023 1024
f 1014 1024 1015
f 1015 1024 1016
f 1016 1024 1025
f 1016 1025 1020
f 1020 1025 1026
f 1020 1026 1023
f 1020 1023 1027
f 1020 1027 1028
f 1020 1028 1029
f 1020 1029 1030
f 1020 1030 1021
f 1021 1030 1031
f 1021 1031 1032
f 1021 1032 1022
f 1022 1032 1033
f 1022 1033 1027
f 1022 1027 1023
f 1023 1034 1024
f 1024 1034 1025
f 1025 1034 1035
f 1025 1035 1036
f 1025 1036 1026
f 1026 1036 1037
f 1026 1037 1038
f 1026 1038 1039
f 1026 1039 1040
f 1026 1040 1041
f 1026 1041 1023
f 1023 1041 1035
f 1023 1035 1034
f 1042 1043 1044
f 1042 1044 1045
f 1042 1045 1046
f 1042 1046 1047
f 1042 1047 1048
f 1042 1048 1043
f 1043 1048 1049
f 1043 1049 1050
f 1043 1050 1044
f 1044 1050 1051
f 1044 1051 1045
f 1045 1051 1052
f 1045 1052 1053
f 1045 1053 1054
f 1045 1054 1055
f 1045 1055 1046
f 1046 1055 1047
f 1047 1055 1056
f 1047 1056 1057
f 1047 1057 1048
f 1048 1057 1058
f 1048 1058 1059
f 1048 1059 1060
f 1048 1060 1049
f 1049 1060 1052
f 1049 1052 1051
f 1049 1051 1050
f 1059 1061 1062
f 1059 1062 1053
f 1059 1053 1063
f 1059 1063 1060
f 1060 1063 1052
f 1052 1063 1053
f 1061 1064 1062
f 1062 1064 1053
f 1053 1064 1054
f 1054 1064 1065
f 1054 1065 1066
f 1054 1066 1058
f 1054 1058 1056
f 1054 1056 1055
f 1058 1061 1059
f 1061 1058 1067
f 1061 1067 1068
f 1061 1068 1064
f 1064 1068 1065
f 1065 1068 1069
f 1065 1069 1066
f 1066 1069 1070
f 1066 1070 1071
f 1066 1071 1067
f 1066 1067 1058
f 1040 1072 1073
f 1040 1073 1074
f 1040 1074 1075
f 1040 1075 1041
f 1041 1075 1035
f 1035 1075 1036
f 1036 1075 1037
f 1037 1075 1038
f 1038 1075 1074
f 1038 1074 1073
f 1038 1073 1076
f 1038 1076 1077
f 1038 1077 1039
f 1039 1077 1040
f 1040 1077 1072
f 1072 1077 1078
f 1072 1078 1079
f 1072 1079 1073
f 1073 1079 1080
f 1073 1080 1076
f 1076 1080 1081
f 1076 1081 1077
f 1077 1081 1078
f 1078 1081 1082
f 1078 1082 1079
f 1079 1082 1083
f 1079 1083 1084
f 1079 1084 1080
f 1080 1084 1081
f 1081 1084 1085
f 1081 1085 1082
f 1082 1085 1086
f 1082 1086 1087
f 1082 1087 1083
f 1083 1087 1088
f 1083 1088 1084
f 1084 1088 1089
f 1084 1089 1085
f 1085 1089 1086
f 1086 1089 1090
f 1086 1090 1091
f 1086 1091 1092
f 1086 1092 1093
f 1086 1093 1087
f 1087 1093 1094
f 1087 1094 1095
f 1087 1095 1096
f 1087 1096 1088
f 1088 1096 1097
f 1088 1097 1089
f 1089 1097 1090
f 1090 1097 1096
f 1090 1096 1098
f 1090 1098 1099
f 1090 1099 1091
f 1091 1099 1100
f 1091 1100 1101
f 1091 1101 1102
f 1091 1102 1103
f 1091 1103 1092
f 1092 1103 1093
f 1093 1103 1094
f 1094 1103 1104
f 1094 1104 1095
f 1095 1104 1102
f 1095 1102 1105
f 1095 1105 1106
f 1095 1106 1107
f 1095 1107 1096
f 1096 1107 1098
f 1098 1107 1099
f 1099 1107 1100
f 1100 1107 1106
f 1100 1106 1108
f 1100 1108 1101
f 1101 1108 1105
f 1101 1105 1102
f 1109 1110 1111
f 1109 1111 1112
f 1109 1112 1027
f 1109 1027 1113
f 1109 1113 1114
f 1109 1114 1115
f 1109 1115 1110
f 1110 1115 1070
f 1110 1070 1069
f 1110 1069 1111
f 1111 1069 1116
f 1111 1116 1117
f 1111 1117 1118
f 1111 1118 1112
f 1112 1118 1028
f 1112 1028 1027
f 1115 1118 1117
f 1115 1117 1071
f 1115 1071 1070
f 1115 1114 1118
f 1118 1114 1119
f 1118 1119 1028
f 1028 1119 1032
f 1028 1032 1029
f 1029 1032 1120
f 1029 1120 1030
f 1030 1120 1031
f 1031 1120 1032
f 1114 1113 1119
f 1119 1113 1033
f 1119 1033 1032
f 1027 1033 1113
f 1121 1122 1123
f 1069 1068 1116
f 1116 1068 1071
f 1116 1071 1117
f 1071 1068 1067
f 1058 1057 1056
f 1105 1108 1106
f 1102 1104 1103
f 1016 1019 1017
f 1017 1019 1018
f 1017 1011 1124
f 1017 1124 1125
f 1125 1124 1126
f 1125 1126 1127
f 1127 1126 1128
f 1127 1128 1129
f 1012 1019 1130
f 1012 1130 1131
f 1131 1130 1132
f 1131 1132 1133
f 1133 1132 1134
f 1133 1134 1135
