# RS2 Model 27573
# Vertices: 112
# Faces: 130

v -33 64 128
v -33 45 128
v -33 45 99
v -33 64 99
v -36 64 129
v -36 44 129
v -36 44 98
v -61 44 129
v -61 44 98
v -61 64 98
v -54 64 80
v -61 40 98
v -61 -14 98
v -61 -14 105
v -61 40 105
v -36 40 105
v -36 40 98
v -33 39 99
v -33 39 104
v -33 -13 99
v -33 -13 104
v -36 -14 105
v -36 -14 98
v -33 -20 128
v -33 -64 128
v -33 -64 99
v -33 -20 99
v -36 -19 129
v -36 -64 129
v -61 -19 129
v -61 -64 129
v -61 -19 98
v -61 -64 98
v -54 -64 80
v -54 64 21
v -54 -64 21
v -64 64 16
v -64 -64 16
v -64 64 0
v -64 -64 0
v -33 14 68
v -33 64 68
v -33 64 93
v -33 14 93
v -36 13 94
v -36 13 67
v -33 8 93
v -33 -44 93
v -33 -44 68
v -33 8 68
v -36 9 67
v -36 9 94
v -36 -45 94
v -36 -45 67
v -33 -51 93
v -33 -64 93
v -33 -64 68
v -33 -51 68
v -36 -50 94
v -36 -64 94
v -33 -64 63
v -33 -64 34
v -33 -20 34
v -33 -20 63
v -36 -64 64
v -36 -64 30
v -33 39 63
v -33 -13 63
v -33 -13 34
v -33 39 34
v -36 40 33
v -36 40 64
v -36 -14 64
v -36 -14 33
v -33 64 63
v -33 45 63
v -33 45 34
v -33 64 34
v -33 14 29
v -33 14 0
v -33 64 0
v -33 64 29
v -36 13 30
v -36 13 0
v -33 8 29
v -33 -44 29
v -33 -44 0
v -33 8 0
v -36 9 0
v -36 9 30
v -36 -45 30
v -36 -45 0
v -33 -51 0
v -33 -51 29
v -33 -64 29
v -33 -64 0
v -36 -19 64
v -36 -19 33
v -36 64 30
v -36 64 0
v -36 -50 30
v -36 -19 98
v -36 64 94
v -36 64 64
v -36 44 64
v -36 -50 67
v -36 -50 0
v -36 44 33
v -36 64 99
v -36 -64 99
v -36 -64 0
v -61 64 129

f 1 2 3
f 1 3 4
f 1 4 5
f 1 5 2
f 2 5 6
f 2 6 3
f 3 6 7
f 7 6 8
f 7 8 9
f 9 8 10
f 9 10 11
f 9 11 12
f 12 11 13
f 12 13 14
f 12 14 15
f 12 15 16
f 12 16 17
f 17 16 18
f 18 16 19
f 18 19 20
f 20 19 21
f 20 21 22
f 20 22 23
f 23 22 14
f 23 14 13
f 24 25 26
f 24 26 27
f 24 27 28
f 24 28 25
f 25 28 29
f 29 28 30
f 29 30 31
f 31 30 32
f 31 32 33
f 33 32 34
f 34 32 13
f 34 13 11
f 34 11 35
f 34 35 36
f 36 35 37
f 36 37 38
f 38 37 39
f 38 39 40
f 41 42 43
f 41 43 44
f 41 44 45
f 41 45 46
f 47 48 49
f 47 49 50
f 47 50 51
f 47 51 52
f 47 52 48
f 48 52 53
f 48 53 54
f 48 54 49
f 55 56 57
f 55 57 58
f 55 58 59
f 55 59 56
f 56 59 60
f 61 62 63
f 61 63 64
f 61 64 65
f 61 65 62
f 62 65 66
f 67 68 69
f 67 69 70
f 67 70 71
f 67 71 72
f 67 72 73
f 67 73 68
f 68 73 69
f 69 73 74
f 75 76 77
f 75 77 78
f 79 80 81
f 79 81 82
f 79 82 83
f 79 83 84
f 79 84 80
f 85 86 87
f 85 87 88
f 85 88 89
f 85 89 90
f 85 90 86
f 86 90 91
f 86 91 92
f 86 92 87
f 93 94 95
f 93 95 96
f 97 65 64
f 97 64 63
f 97 63 98
f 82 99 83
f 99 82 81
f 99 81 100
f 95 94 101
f 95 101 66
f 22 21 19
f 22 19 16
f 22 16 15
f 22 15 14
f 27 102 28
f 28 102 32
f 28 32 30
f 44 43 103
f 44 103 45
f 104 105 76
f 104 76 75
f 58 106 59
f 93 107 101
f 93 101 94
f 105 108 77
f 105 77 76
f 43 42 104
f 43 104 103
f 100 109 110
f 100 110 111
f 112 8 6
f 112 6 5
f 112 5 10
f 112 10 8
f 110 109 10
f 110 10 33
f 4 10 5
f 10 4 11
f 11 4 100
f 11 100 35
f 35 100 37
f 37 100 39
