# RS2 Model 27639
# Vertices: 90
# Faces: 164

v 30 -5 120
v 27 -6 129
v 20 1 127
v 23 1 119
v 31 -5 113
v 36 1 121
v 36 1 130
v 33 1 138
v 26 -6 137
v 20 1 136
v 26 9 130
v 27 9 125
v 29 8 119
v 31 7 112
v 25 0 111
v 23 0 109
v 32 -6 111
v 36 0 112
v 26 9 137
v 25 11 144
v 33 1 148
v 25 -8 146
v 18 2 142
v 32 -4 100
v 32 -6 102
v 26 0 101
v 28 0 99
v 32 5 99
v 32 7 101
v 38 1 100
v 36 1 98
v 38 0 111
v 32 9 111
v 25 -8 151
v 29 2 159
v 32 2 162
v 24 -12 152
v 18 -13 153
v 17 -9 153
v 19 2 160
v 20 2 164
v 19 10 155
v 19 14 156
v 23 14 154
v 24 10 153
v -30 -5 120
v -20 1 127
v -27 -6 129
v -36 1 130
v -36 1 121
v -31 -5 113
v -23 1 119
v -27 9 125
v -26 9 130
v -20 1 136
v -26 -6 137
v -33 1 138
v -26 9 137
v -29 8 119
v -31 7 112
v -36 0 112
v -32 -6 111
v -23 0 109
v -25 0 111
v -32 -4 100
v -28 0 99
v -26 0 101
v -32 -6 102
v -38 1 100
v -36 1 98
v -32 5 99
v -32 7 101
v -38 0 111
v -32 9 111
v -25 -8 151
v -25 -8 146
v -18 2 142
v -24 -12 152
v -32 2 162
v -29 2 159
v -33 1 148
v -25 11 144
v -24 10 153
v -23 14 154
v -19 14 156
v -19 10 155
v -20 2 164
v -19 2 160
v -18 -13 153
v -17 -9 153

f 1 2 3
f 1 3 4
f 1 4 5
f 1 5 6
f 1 6 7
f 1 7 2
f 2 7 8
f 2 8 9
f 2 9 10
f 2 10 3
f 3 10 11
f 3 11 12
f 3 12 4
f 4 12 13
f 4 13 14
f 4 14 15
f 4 15 5
f 5 15 16
f 5 16 17
f 5 17 18
f 5 18 6
f 6 18 14
f 6 14 13
f 6 13 12
f 6 12 7
f 7 12 11
f 7 11 19
f 7 19 8
f 8 19 20
f 8 20 21
f 8 21 22
f 8 22 9
f 9 22 23
f 9 23 10
f 10 23 19
f 10 19 11
f 24 25 26
f 24 26 27
f 27 26 28
f 28 26 29
f 28 29 30
f 28 30 31
f 31 30 24
f 24 30 25
f 25 30 32
f 25 32 17
f 25 17 16
f 25 16 26
f 26 16 29
f 29 16 33
f 29 33 32
f 29 32 30
f 34 23 22
f 34 22 21
f 34 21 35
f 34 35 36
f 34 36 37
f 34 37 23
f 23 37 38
f 23 38 39
f 39 38 40
f 40 38 41
f 40 41 42
f 42 41 43
f 42 43 23
f 23 43 44
f 23 44 45
f 23 45 20
f 23 20 19
f 20 45 35
f 20 35 21
f 37 41 38
f 41 37 36
f 41 36 44
f 41 44 43
f 35 45 44
f 35 44 36
f 17 32 18
f 18 32 33
f 18 33 14
f 14 33 15
f 15 33 16
f 46 47 48
f 46 48 49
f 46 49 50
f 46 50 51
f 46 51 52
f 46 52 47
f 47 52 53
f 47 53 54
f 47 54 55
f 47 55 48
f 48 55 56
f 48 56 57
f 48 57 49
f 49 57 58
f 49 58 54
f 49 54 53
f 49 53 50
f 50 53 59
f 50 59 60
f 50 60 61
f 50 61 51
f 51 61 62
f 51 62 63
f 51 63 64
f 51 64 52
f 52 64 60
f 52 60 59
f 52 59 53
f 65 66 67
f 65 67 68
f 65 68 69
f 65 69 70
f 70 69 71
f 71 69 72
f 71 72 67
f 71 67 66
f 73 69 68
f 73 68 62
f 73 62 61
f 73 61 74
f 73 74 72
f 73 72 69
f 63 67 72
f 63 72 74
f 63 74 64
f 64 74 60
f 60 74 61
f 75 76 77
f 75 77 78
f 75 78 79
f 75 79 80
f 75 80 81
f 75 81 76
f 76 81 57
f 76 57 56
f 76 56 77
f 77 56 55
f 77 55 58
f 77 58 82
f 77 82 83
f 77 83 84
f 77 84 85
f 77 85 86
f 86 85 87
f 86 87 88
f 88 87 89
f 88 89 90
f 90 89 77
f 77 89 78
f 78 89 87
f 78 87 79
f 79 87 84
f 79 84 80
f 80 84 83
f 80 83 82
f 80 82 81
f 81 82 57
f 57 82 58
f 85 84 87
f 54 58 55
f 68 67 63
f 68 63 62
