# RS2 Model 27631
# Vertices: 109
# Faces: 198

v 5 -14 182
v 2 -15 180
v 5 -14 179
v 8 -11 180
v 7 -15 184
v 0 -18 183
v 0 -17 181
v 3 -16 175
v 8 -13 178
v 9 -9 181
v 10 -7 185
v 8 -14 185
v 6 -15 189
v 1 -19 187
v -3 -17 184
v -5 -14 182
v -2 -15 180
v -3 -16 175
v 0 -20 175
v 0 -17 174
v 9 1 173
v 9 -1 175
v 7 -2 170
v 0 6 173
v 7 4 169
v 8 -3 168
v 8 -11 168
v 11 -11 169
v 11 -12 174
v 12 -12 179
v 10 -2 180
v 9 -7 177
v 7 -10 174
v 4 -15 173
v 0 -6 165
v 8 1 165
v 0 9 165
v -8 1 165
v -7 -2 170
v -9 1 173
v -6 4 169
v 0 11 171
v 0 13 173
v 7 11 172
v 14 4 170
v 15 -4 169
v 16 -5 175
v 13 -5 180
v 13 -8 188
v 9 -13 186
v 8 -13 191
v 2 -14 198
v 3 -17 194
v 2 -18 191
v 0 -18 191
v -3 -17 188
v -7 -15 184
v -8 -11 180
v -5 -14 179
v -8 -13 178
v -4 -15 173
v -7 -10 174
v -9 -7 177
v -9 -9 181
v -10 -2 180
v -9 -7 184
v -12 -10 179
v -9 -1 175
v -13 -12 174
v -11 -11 170
v 0 -6 160
v -8 -12 185
v -10 -12 186
v -13 -8 188
v -13 -5 179
v -15 -5 174
v -13 -4 170
v -8 -3 168
v -8 -11 168
v -13 5 171
v -6 13 172
v -6 13 177
v 0 14 177
v 8 12 176
v 15 4 174
v 13 2 182
v 13 2 187
v 9 3 194
v 11 -5 195
v 10 -10 193
v -6 -13 194
v -9 -7 196
v -12 3 187
v -12 3 181
v -14 5 176
v -6 10 182
v 0 11 184
v 8 9 183
v 0 -15 197
v 2 -8 200
v 0 -8 199
v 2 3 198
v 0 3 197
v -5 -7 199
v -5 3 197
v 0 11 191
v -9 1 194
v -6 10 189
v 8 9 188

f 1 2 3
f 1 3 4
f 1 4 5
f 1 5 6
f 1 6 2
f 2 6 7
f 2 7 8
f 2 8 3
f 3 8 9
f 3 9 4
f 4 9 10
f 4 10 5
f 5 10 11
f 5 11 12
f 5 12 13
f 5 13 14
f 5 14 6
f 6 14 15
f 6 15 16
f 6 16 17
f 6 17 7
f 7 17 18
f 7 18 19
f 7 19 8
f 8 19 20
f 20 19 18
f 21 22 23
f 21 23 24
f 21 24 25
f 21 25 26
f 21 26 27
f 21 27 28
f 21 28 22
f 22 28 29
f 22 29 30
f 22 30 31
f 31 30 11
f 31 11 10
f 31 10 32
f 32 10 9
f 32 9 33
f 33 9 34
f 34 9 8
f 35 36 23
f 23 36 24
f 24 36 37
f 24 37 38
f 24 38 39
f 24 39 40
f 24 40 41
f 24 41 42
f 24 42 25
f 25 42 43
f 25 43 44
f 25 44 45
f 25 45 26
f 26 45 46
f 26 46 27
f 27 46 28
f 28 46 29
f 29 46 47
f 29 47 30
f 30 47 48
f 30 48 49
f 30 49 50
f 30 50 11
f 11 50 12
f 12 50 13
f 13 50 51
f 13 51 52
f 13 52 53
f 13 53 54
f 13 54 14
f 14 54 55
f 14 55 56
f 14 56 15
f 15 56 57
f 15 57 16
f 16 57 58
f 16 58 59
f 16 59 17
f 17 59 18
f 18 59 60
f 18 60 61
f 61 60 62
f 62 60 63
f 63 60 64
f 63 64 65
f 65 64 66
f 65 66 67
f 65 67 68
f 68 67 69
f 68 69 70
f 68 70 40
f 68 40 39
f 35 71 36
f 71 35 38
f 38 35 39
f 57 64 58
f 58 64 60
f 58 60 59
f 64 57 72
f 64 72 66
f 66 72 67
f 67 72 73
f 67 73 74
f 67 74 75
f 67 75 69
f 69 75 76
f 69 76 77
f 69 77 70
f 70 77 78
f 70 78 79
f 70 79 40
f 40 79 78
f 40 78 41
f 41 78 77
f 41 77 80
f 41 80 81
f 41 81 42
f 42 81 43
f 43 81 82
f 43 82 83
f 43 83 84
f 43 84 44
f 44 84 85
f 44 85 45
f 45 85 46
f 46 85 47
f 47 85 48
f 48 85 86
f 48 86 49
f 49 86 87
f 49 87 88
f 49 88 89
f 49 89 90
f 49 90 51
f 49 51 50
f 56 72 57
f 72 56 91
f 72 91 73
f 73 91 74
f 74 91 92
f 74 92 93
f 74 93 75
f 75 93 94
f 75 94 76
f 76 94 95
f 76 95 77
f 77 95 80
f 80 95 81
f 81 95 82
f 82 95 94
f 82 94 96
f 82 96 83
f 83 96 97
f 83 97 98
f 83 98 84
f 84 98 86
f 84 86 85
f 52 99 53
f 53 99 55
f 53 55 54
f 100 101 99
f 100 99 52
f 100 52 90
f 100 90 89
f 100 89 102
f 100 102 101
f 101 102 103
f 101 103 104
f 101 104 99
f 99 104 91
f 99 91 56
f 99 56 55
f 52 51 90
f 103 105 104
f 104 105 92
f 104 92 91
f 89 88 102
f 102 88 106
f 102 106 103
f 103 106 105
f 105 106 107
f 105 107 92
f 92 107 93
f 93 107 108
f 93 108 96
f 93 96 94
f 88 109 106
f 106 109 97
f 106 97 108
f 106 108 107
f 97 109 98
f 98 109 87
f 98 87 86
f 108 97 96
f 88 87 109
