# RS2 Model 27652
# Vertices: 149
# Faces: 284

v 14 2 119
v 8 -7 117
v 9 -7 112
v 16 3 115
v 8 10 119
v 9 12 116
v 0 12 119
v 0 14 116
v -8 10 119
v -9 12 116
v -14 2 119
v -16 3 115
v -8 -7 117
v -9 -7 112
v 0 -9 116
v 0 -9 111
v 0 -10 105
v 12 -8 105
v 18 0 105
v 10 15 107
v 0 17 107
v -10 15 107
v -18 0 105
v -12 -8 105
v 19 1 96
v 10 -11 92
v 18 0 76
v 16 6 77
v 16 8 95
v 12 15 94
v 0 17 94
v -12 15 94
v -19 1 96
v -10 -11 92
v 0 -13 92
v 0 -13 85
v 4 -12 78
v 9 -11 78
v 9 -11 70
v 19 0 61
v 9 11 62
v 9 11 70
v 10 12 78
v 5 13 78
v 0 15 86
v -5 13 78
v -10 12 78
v -18 0 76
v -9 -11 78
v -4 -12 78
v -9 11 49
v -19 5 41
v -20 0 49
v -9 11 56
v -4 12 56
v -4 12 49
v -4 12 43
v -9 12 43
v -16 7 38
v -16 1 37
v -22 0 38
v -15 -9 49
v -19 0 61
v -10 11 62
v -5 12 62
v 0 13 62
v 0 13 56
v 0 13 49
v 0 13 43
v 0 14 36
v -4 13 37
v -9 13 37
v -8 9 36
v -15 2 30
v -8 -6 30
v -8 -6 36
v -14 -2 49
v -8 10 30
v -8 9 19
v -13 2 19
v -8 -2 19
v -3 2 30
v -2 2 36
v -4 -12 36
v -9 -11 36
v -9 -11 43
v -9 -11 49
v -9 -11 56
v -9 -11 62
v -9 -11 70
v -10 11 70
v -5 12 70
v 0 13 70
v 4 12 62
v 4 12 56
v 4 12 49
v 4 12 43
v 4 13 37
v 2 2 36
v 0 2 36
v 17 -4 42
v 20 0 49
v 9 -11 49
v 9 -11 43
v 16 -5 37
v 9 -5 36
v 19 -3 37
v 22 0 38
v 17 6 43
v 9 11 49
v 9 11 56
v 9 -11 56
v 4 -12 49
v 4 -12 43
v 4 -12 36
v 9 -11 36
v 3 2 30
v 8 -6 30
v 16 1 37
v 18 4 38
v 16 1 41
v 9 13 37
v 9 12 43
v 8 9 36
v 15 2 30
v 8 10 30
v 13 2 19
v 8 -2 19
v 5 2 19
v 8 9 19
v -5 2 19
v 0 -13 78
v 0 -13 70
v 4 -12 70
v 4 -12 62
v 9 -11 62
v 4 -12 56
v 0 -13 49
v 0 -13 43
v 0 -13 36
v -4 -12 43
v 0 14 78
v 4 12 70
v 0 -13 62
v 0 -13 56
v -4 -12 56
v -4 -12 49
v -4 -12 62
v -4 -12 70

f 1 2 3
f 1 3 4
f 1 4 5
f 5 4 6
f 5 6 7
f 7 6 8
f 7 8 9
f 9 8 10
f 9 10 11
f 11 10 12
f 11 12 13
f 13 12 14
f 13 14 15
f 15 14 16
f 15 16 2
f 2 16 3
f 3 16 17
f 3 17 18
f 3 18 4
f 4 18 19
f 4 19 20
f 4 20 6
f 6 20 21
f 6 21 8
f 8 21 10
f 10 21 22
f 10 22 12
f 12 22 23
f 12 23 24
f 12 24 14
f 14 24 17
f 14 17 16
f 25 19 18
f 25 18 26
f 25 26 27
f 25 27 28
f 25 28 29
f 25 29 20
f 25 20 19
f 20 29 30
f 20 30 31
f 20 31 21
f 21 31 22
f 22 31 32
f 22 32 33
f 22 33 23
f 23 33 34
f 23 34 24
f 24 34 35
f 24 35 17
f 17 35 18
f 18 35 26
f 26 35 36
f 26 36 37
f 26 37 38
f 26 38 27
f 27 38 39
f 27 39 40
f 27 40 41
f 27 41 28
f 28 41 42
f 28 42 43
f 28 43 29
f 29 43 30
f 30 43 44
f 30 44 45
f 30 45 31
f 31 45 32
f 32 45 46
f 32 46 47
f 32 47 48
f 32 48 33
f 33 48 34
f 34 48 49
f 34 49 50
f 34 50 36
f 34 36 35
f 51 52 53
f 51 53 54
f 51 54 55
f 51 55 56
f 51 56 57
f 51 57 58
f 51 58 59
f 51 59 52
f 52 59 60
f 52 60 61
f 52 61 53
f 53 61 62
f 53 62 63
f 53 63 54
f 54 63 64
f 54 64 65
f 54 65 55
f 55 65 66
f 55 66 67
f 55 67 56
f 56 67 68
f 56 68 69
f 56 69 57
f 57 69 70
f 57 70 71
f 57 71 58
f 58 71 72
f 58 72 59
f 59 72 60
f 60 72 73
f 60 73 74
f 60 74 75
f 60 75 76
f 60 76 77
f 60 77 62
f 60 62 61
f 74 73 78
f 74 78 79
f 74 79 80
f 74 80 75
f 75 80 81
f 75 81 82
f 75 82 83
f 75 83 76
f 76 83 84
f 76 84 85
f 76 85 77
f 77 85 62
f 62 85 86
f 62 86 87
f 62 87 88
f 62 88 63
f 63 88 89
f 63 89 90
f 63 90 48
f 63 48 91
f 63 91 64
f 64 91 92
f 64 92 65
f 65 92 93
f 65 93 66
f 66 93 94
f 66 94 95
f 66 95 67
f 67 95 96
f 67 96 68
f 68 96 69
f 69 96 97
f 69 97 70
f 70 97 98
f 70 98 99
f 70 99 100
f 70 100 83
f 70 83 71
f 71 83 73
f 71 73 72
f 101 102 103
f 101 103 104
f 101 104 105
f 101 105 106
f 101 106 107
f 101 107 108
f 101 108 102
f 102 108 109
f 102 109 110
f 102 110 111
f 102 111 40
f 102 40 112
f 102 112 103
f 103 112 113
f 103 113 114
f 103 114 104
f 104 114 115
f 104 115 116
f 104 116 105
f 105 116 106
f 106 116 115
f 106 115 99
f 106 99 117
f 106 117 118
f 106 118 119
f 106 119 107
f 107 119 108
f 108 119 120
f 108 120 109
f 109 120 119
f 109 119 121
f 109 121 122
f 109 122 123
f 109 123 110
f 110 123 97
f 110 97 96
f 110 96 95
f 110 95 111
f 111 95 94
f 111 94 41
f 111 41 40
f 124 119 125
f 124 125 126
f 124 126 117
f 124 117 99
f 124 99 98
f 124 98 122
f 124 122 121
f 124 121 119
f 127 125 118
f 127 118 128
f 128 118 117
f 128 117 129
f 129 117 126
f 129 126 130
f 130 126 125
f 130 125 127
f 119 118 125
f 81 131 82
f 82 131 78
f 82 78 73
f 82 73 83
f 131 79 78
f 36 50 132
f 36 132 37
f 37 132 133
f 37 133 134
f 37 134 38
f 38 134 39
f 39 134 135
f 39 135 136
f 39 136 40
f 40 136 112
f 112 136 137
f 112 137 113
f 113 137 138
f 113 138 139
f 113 139 114
f 114 139 140
f 114 140 115
f 115 140 99
f 99 140 100
f 100 140 83
f 83 140 84
f 84 140 141
f 84 141 86
f 84 86 85
f 46 45 142
f 46 142 92
f 46 92 91
f 46 91 47
f 47 91 48
f 44 43 42
f 44 42 143
f 44 143 142
f 44 142 45
f 143 42 41
f 143 41 94
f 143 94 93
f 143 93 142
f 142 93 92
f 98 97 123
f 98 123 122
f 135 144 145
f 135 145 137
f 135 137 136
f 137 145 138
f 138 145 146
f 138 146 147
f 138 147 139
f 139 147 141
f 139 141 140
f 141 147 87
f 141 87 86
f 145 144 148
f 145 148 146
f 146 148 89
f 146 89 88
f 146 88 147
f 147 88 87
f 134 133 144
f 134 144 135
f 50 49 90
f 50 90 149
f 50 149 132
f 132 149 133
f 133 149 148
f 133 148 144
f 149 90 89
f 149 89 148
f 90 49 48
