# RS2 Model 27674
# Vertices: 140
# Faces: 238

v -11 -3 125
v -12 -1 125
v -14 -1 120
v -13 -5 120
v -8 -5 125
v -8 -3 132
v -12 2 131
v -13 2 125
v -16 3 120
v -16 3 116
v -14 -1 116
v -13 -5 116
v -9 -8 120
v -3 -7 125
v 0 -4 132
v 0 -5 139
v -8 -3 139
v -12 3 139
v -9 10 138
v -9 8 131
v -11 5 125
v -14 7 120
v -14 7 116
v -4 -9 120
v 0 -7 125
v 3 -7 125
v 8 -5 125
v 8 -3 132
v 8 -3 139
v 0 -8 144
v -8 -10 145
v -12 -9 146
v -15 4 147
v -9 13 147
v 0 14 147
v 0 11 138
v 0 10 131
v 0 11 125
v -9 10 125
v -12 10 120
v -12 10 116
v 0 15 120
v -7 13 120
v -7 13 116
v 0 -11 120
v 4 -9 120
v 9 -8 120
v 13 -5 120
v 11 -2 125
v 12 2 131
v 12 3 139
v 8 -11 145
v 0 -11 149
v -9 -11 149
v -12 -9 148
v -12 -7 153
v -13 -4 155
v -15 -2 157
v -14 4 163
v -12 4 163
v -15 11 157
v -13 12 157
v -7 14 155
v 0 14 155
v 7 14 155
v 9 13 147
v 9 10 138
v 9 8 131
v 9 10 125
v 7 14 120
v 0 15 116
v -7 -7 155
v -7 4 165
v -3 -2 161
v -4 5 166
v 0 11 164
v -10 4 164
v -4 -6 156
v 0 -7 155
v 0 -2 161
v 0 0 163
v 0 -10 152
v 4 -6 156
v 3 -2 161
v 4 5 166
v 7 4 165
v 0 10 167
v -10 -4 156
v -5 13 160
v 0 13 160
v 5 13 160
v 13 12 157
v 15 4 147
v 11 5 125
v 16 9 120
v 12 12 120
v 7 14 116
v -4 -9 153
v 4 -9 153
v 7 -7 155
v 10 4 164
v -9 -8 116
v -4 -9 116
v 0 -11 116
v 4 -9 116
v 9 -8 116
v 13 -5 116
v 14 -1 116
v 14 -1 120
v 13 1 125
v 16 3 120
v 16 9 116
v 12 12 116
v 12 4 163
v 15 11 157
v 16 3 116
v 9 -12 149
v 12 -7 153
v 12 -10 148
v 13 -4 155
v 10 -4 156
v 14 4 163
v 15 -2 157
v 11 -9 146
v 13 0 123
v 7 -7 120
v 8 -7 117
v 14 2 119
v 8 10 119
v 7 8 122
v 0 12 119
v 0 10 122
v -7 8 122
v -8 10 119
v -13 0 123
v -14 2 119
v -8 -7 117
v -7 -7 120
v 0 -9 116
v 0 -9 120

f 1 2 3
f 1 3 4
f 1 4 5
f 1 5 6
f 1 6 7
f 1 7 2
f 2 7 8
f 2 8 9
f 2 9 3
f 3 9 10
f 3 10 11
f 3 11 4
f 4 11 12
f 4 12 13
f 4 13 5
f 5 13 14
f 5 14 15
f 5 15 6
f 6 15 16
f 6 16 17
f 6 17 7
f 7 17 18
f 7 18 19
f 7 19 20
f 7 20 21
f 7 21 8
f 8 21 22
f 8 22 9
f 9 22 23
f 9 23 10
f 14 13 24
f 14 24 25
f 14 25 15
f 15 25 26
f 15 26 27
f 15 27 28
f 15 28 16
f 16 28 29
f 16 29 30
f 16 30 17
f 17 30 31
f 17 31 18
f 18 31 32
f 18 32 33
f 18 33 34
f 18 34 19
f 19 34 35
f 19 35 36
f 19 36 37
f 19 37 20
f 20 37 38
f 20 38 39
f 20 39 21
f 21 39 22
f 22 39 40
f 22 40 41
f 22 41 23
f 38 42 43
f 38 43 39
f 39 43 40
f 40 43 44
f 40 44 41
f 25 24 45
f 25 45 46
f 25 46 26
f 26 46 47
f 26 47 27
f 27 47 48
f 27 48 49
f 27 49 28
f 28 49 50
f 28 50 29
f 29 50 51
f 29 51 52
f 29 52 30
f 30 52 53
f 30 53 31
f 31 53 54
f 31 54 32
f 32 54 55
f 32 55 33
f 33 55 56
f 33 56 57
f 33 57 58
f 58 57 59
f 59 57 60
f 59 60 61
f 61 60 62
f 61 62 33
f 33 62 34
f 34 62 63
f 34 63 35
f 35 63 64
f 35 64 65
f 35 65 66
f 35 66 67
f 35 67 36
f 36 67 37
f 37 67 68
f 37 68 38
f 38 68 69
f 38 69 70
f 38 70 42
f 42 70 71
f 42 71 43
f 43 71 44
f 54 72 56
f 54 56 55
f 73 74 75
f 73 75 76
f 73 76 77
f 73 77 78
f 73 78 74
f 74 78 79
f 74 79 80
f 74 80 81
f 74 81 75
f 78 72 82
f 78 82 79
f 79 82 83
f 79 83 84
f 79 84 80
f 80 84 81
f 81 84 85
f 85 84 86
f 85 86 76
f 85 76 87
f 87 76 75
f 78 77 72
f 72 77 88
f 72 88 56
f 56 88 57
f 57 88 77
f 57 77 60
f 60 77 62
f 62 77 89
f 62 89 63
f 63 89 64
f 64 89 90
f 64 90 91
f 64 91 65
f 65 91 92
f 65 92 66
f 66 92 93
f 66 93 51
f 66 51 67
f 67 51 50
f 67 50 68
f 68 50 94
f 68 94 69
f 69 94 95
f 69 95 96
f 69 96 70
f 70 96 97
f 70 97 71
f 82 72 98
f 82 98 53
f 82 53 99
f 82 99 100
f 82 100 83
f 83 100 101
f 83 101 86
f 83 86 84
f 24 13 102
f 24 102 103
f 24 103 45
f 45 103 104
f 45 104 105
f 45 105 46
f 46 105 106
f 46 106 47
f 47 106 107
f 47 107 48
f 48 107 108
f 48 108 109
f 48 109 49
f 49 109 110
f 49 110 50
f 50 110 94
f 94 110 95
f 95 110 111
f 95 111 112
f 95 112 113
f 95 113 96
f 96 113 97
f 13 12 102
f 90 89 76
f 90 76 91
f 91 76 101
f 91 101 92
f 92 101 114
f 92 114 115
f 92 115 93
f 89 77 76
f 54 53 98
f 54 98 72
f 111 110 109
f 111 109 116
f 111 116 112
f 117 118 100
f 117 100 99
f 117 99 53
f 117 53 52
f 117 52 119
f 117 119 118
f 118 119 93
f 118 93 120
f 118 120 121
f 118 121 100
f 100 121 101
f 101 121 120
f 101 120 114
f 114 120 122
f 114 122 115
f 120 123 122
f 123 120 93
f 93 119 124
f 93 124 51
f 51 124 52
f 52 124 119
f 109 108 116
f 101 76 86
f 125 126 127
f 125 127 128
f 125 128 129
f 125 129 130
f 130 129 131
f 130 131 132
f 132 131 133
f 133 131 134
f 133 134 135
f 135 134 136
f 135 136 137
f 135 137 138
f 138 137 139
f 138 139 140
f 140 139 126
f 126 139 127
