# RS2 Model 27699
# Vertices: 232
# Faces: 464

v -14 11 21
v -10 7 23
v -20 -3 22
v -24 1 20
v -17 14 13
v -13 18 13
v -11 15 21
v -6 10 23
v -5 1 21
v -16 -8 19
v -30 -14 20
v -34 -10 18
v -26 4 12
v -24 2 4
v -14 12 3
v -11 16 3
v -14 19 1
v -17 22 13
v -13 17 25
v -6 10 26
v 1 3 23
v -2 5 21
v -3 0 11
v -14 -9 11
v -27 -17 18
v -43 -26 19
v -46 -22 17
v -37 -6 12
v -34 -9 4
v -30 -13 2
v -20 -2 2
v -9 8 1
v -6 11 1
v -7 12 -2
v -10 9 -2
v -18 15 1
v -21 19 13
v -17 13 24
v -10 7 26
v -3 -1 23
v 5 0 11
v 1 4 12
v -5 2 3
v -16 -7 3
v -27 -16 4
v -25 -19 11
v -40 -27 16
v -43 -30 16
v -45 -29 18
v -48 -24 17
v -49 -18 11
v -46 -22 5
v -43 -25 3
v -2 6 3
v 0 5 0
v -4 1 -1
v -17 3 -1
v -21 7 5
v -26 13 13
v -21 6 19
v -16 1 25
v -10 -4 18
v -5 -9 11
v 2 -4 11
v -45 -29 21
v -51 -23 20
v -41 -33 19
v -38 -30 19
v -43 -26 22
v -48 -20 20
v -54 -19 11
v -51 -21 11
v -48 -24 5
v -45 -28 3
v -40 -27 4
v -37 -30 10
v -41 -33 10
v -51 -16 11
v -51 -22 2
v -46 -26 0
v -43 -30 4
v -38 -36 10
v -35 -33 10
v -28 -28 10
v -34 -22 17
v -37 -20 22
v -40 -16 17
v -46 -9 12
v -48 -19 2
v -44 -24 0
v -41 -32 1
v -38 -29 1
v -34 -22 5
v -25 -20 1
v -23 -25 10
v -20 -15 21
v -25 -21 21
v -32 -16 23
v -32 -3 22
v -38 -8 22
v -43 -5 12
v -32 -2 2
v -38 -7 2
v -40 -15 5
v -38 -18 0
v -30 8 12
v -28 2 22
v -20 -3 25
v -15 -11 21
v -9 -13 11
v -20 -14 1
v -15 -10 1
v -10 -3 4
v -28 3 2
v -21 -1 -1
v -33 -13 -1
v 8 14 21
v 12 19 23
v 23 8 21
v 18 5 19
v 6 13 12
v 2 17 12
v 4 18 21
v 10 22 24
v 18 24 21
v 27 13 20
v 33 -1 20
v 30 -5 17
v 16 4 11
v 18 6 3
v 8 15 3
v 4 19 3
v 1 18 0
v -2 12 12
v 2 16 24
v 10 22 26
v 16 30 25
v 14 27 22
v 20 27 13
v 29 16 12
v 36 1 18
v 45 -14 18
v 42 -16 15
v 27 -7 10
v 30 -4 3
v 33 0 2
v 23 9 1
v 13 20 1
v 10 23 2
v 9 24 -1
v 12 21 -2
v 5 14 0
v 2 9 12
v 6 12 24
v 12 19 26
v 20 26 24
v 21 35 13
v 16 31 13
v 18 25 3
v 27 14 4
v 36 2 4
v 39 5 11
v 47 -11 16
v 50 -14 15
v 48 -17 17
v 45 -18 15
v 39 -19 9
v 42 -16 3
v 45 -13 2
v 14 28 4
v 15 32 1
v 19 28 1
v 17 15 -1
v 14 9 5
v 7 4 11
v 14 8 19
v 18 13 25
v 23 18 19
v 29 25 12
v 24 31 13
v 48 -17 20
v 42 -22 18
v 52 -12 19
v 49 -10 19
v 45 -14 21
v 40 -19 18
v 39 -24 9
v 41 -21 9
v 45 -18 3
v 48 -16 1
v 47 -11 4
v 51 -8 10
v 53 -11 10
v 36 -22 9
v 42 -21 0
v 47 -15 -2
v 50 -14 3
v 57 -8 10
v 54 -5 10
v 48 1 10
v 43 -4 16
v 39 -8 21
v 35 -11 16
v 30 -16 10
v 40 -18 0
v 44 -12 -1
v 52 -11 1
v 49 -9 1
v 43 -4 4
v 40 5 1
v 46 7 11
v 35 8 21
v 40 4 21
v 35 -4 22
v 23 -4 21
v 27 -9 20
v 25 -13 10
v 23 -3 1
v 27 -8 0
v 35 -11 4
v 39 -6 -1
v 12 -1 11
v 17 1 21
v 23 8 24
v 30 14 22
v 34 21 12
v 35 9 1
v 30 15 2
v 24 19 5
v 17 2 1
v 22 10 -2
v 34 -2 -2

f 1 2 3
f 1 3 4
f 1 4 5
f 1 5 6
f 1 6 7
f 1 7 2
f 2 7 8
f 2 8 9
f 2 9 3
f 3 9 10
f 3 10 11
f 3 11 4
f 4 11 12
f 4 12 13
f 4 13 5
f 5 13 14
f 5 14 15
f 5 15 16
f 5 16 6
f 6 16 17
f 6 17 18
f 6 18 19
f 6 19 7
f 7 19 8
f 8 19 20
f 8 20 21
f 8 21 22
f 8 22 9
f 9 22 23
f 9 23 10
f 10 23 24
f 10 24 25
f 10 25 11
f 11 25 26
f 11 26 12
f 12 26 27
f 12 27 28
f 12 28 13
f 13 28 29
f 13 29 14
f 14 29 30
f 14 30 31
f 14 31 15
f 15 31 32
f 15 32 33
f 15 33 16
f 16 33 17
f 17 33 34
f 17 34 35
f 17 35 36
f 17 36 18
f 18 36 37
f 18 37 19
f 19 37 38
f 19 38 20
f 20 38 39
f 20 39 21
f 21 39 40
f 21 40 41
f 21 41 42
f 21 42 22
f 22 42 23
f 23 42 43
f 23 43 44
f 23 44 24
f 24 44 45
f 24 45 46
f 24 46 25
f 25 46 47
f 25 47 26
f 26 47 48
f 26 48 49
f 26 49 27
f 27 49 50
f 27 50 51
f 27 51 28
f 28 51 52
f 28 52 29
f 29 52 53
f 29 53 30
f 30 53 45
f 30 45 44
f 30 44 31
f 31 44 43
f 31 43 32
f 32 43 54
f 32 54 33
f 33 54 55
f 33 55 34
f 34 55 56
f 34 56 35
f 35 56 57
f 35 57 36
f 36 57 58
f 36 58 59
f 36 59 37
f 37 59 38
f 38 59 60
f 38 60 61
f 38 61 39
f 39 61 40
f 40 61 62
f 40 62 63
f 40 63 64
f 40 64 41
f 41 64 55
f 41 55 42
f 42 55 54
f 42 54 43
f 65 66 50
f 65 50 49
f 65 49 67
f 65 67 68
f 65 68 69
f 65 69 66
f 66 69 70
f 66 70 71
f 66 71 50
f 50 71 72
f 50 72 51
f 51 72 52
f 52 72 73
f 52 73 53
f 53 73 74
f 53 74 75
f 53 75 45
f 45 75 46
f 46 75 76
f 46 76 47
f 47 76 77
f 47 77 48
f 48 77 67
f 48 67 49
f 71 70 78
f 71 78 79
f 71 79 72
f 72 79 73
f 73 79 74
f 74 79 80
f 74 80 81
f 74 81 75
f 75 81 76
f 76 81 77
f 77 81 82
f 77 82 67
f 67 82 83
f 67 83 68
f 68 83 84
f 68 84 85
f 68 85 86
f 68 86 69
f 69 86 70
f 70 86 87
f 70 87 88
f 70 88 78
f 78 88 89
f 78 89 79
f 79 89 80
f 80 89 90
f 80 90 91
f 80 91 81
f 81 91 82
f 82 91 92
f 82 92 83
f 83 92 84
f 84 92 93
f 84 93 94
f 84 94 95
f 84 95 96
f 84 96 97
f 84 97 85
f 85 97 86
f 86 97 98
f 86 98 99
f 86 99 100
f 86 100 87
f 87 100 88
f 88 100 101
f 88 101 102
f 88 102 103
f 88 103 104
f 88 104 89
f 89 104 105
f 89 105 90
f 90 105 92
f 90 92 91
f 59 106 99
f 59 99 107
f 59 107 60
f 60 107 61
f 61 107 108
f 61 108 96
f 61 96 109
f 61 109 62
f 62 109 63
f 63 109 110
f 63 110 111
f 63 111 112
f 63 112 113
f 63 113 56
f 63 56 64
f 64 56 55
f 100 99 101
f 101 99 106
f 101 106 102
f 102 106 114
f 102 114 57
f 102 57 115
f 102 115 116
f 102 116 103
f 103 116 105
f 103 105 104
f 108 107 99
f 108 99 98
f 108 98 96
f 96 98 97
f 110 109 96
f 110 96 95
f 110 95 111
f 111 95 94
f 111 94 105
f 111 105 116
f 111 116 115
f 111 115 112
f 112 115 57
f 112 57 113
f 113 57 56
f 105 94 93
f 105 93 92
f 106 59 114
f 114 59 58
f 114 58 57
f 117 118 119
f 117 119 120
f 117 120 121
f 117 121 122
f 117 122 123
f 117 123 118
f 118 123 124
f 118 124 125
f 118 125 119
f 119 125 126
f 119 126 127
f 119 127 120
f 120 127 128
f 120 128 129
f 120 129 121
f 121 129 130
f 121 130 131
f 121 131 132
f 121 132 122
f 122 132 133
f 122 133 134
f 122 134 135
f 122 135 123
f 123 135 124
f 124 135 136
f 124 136 137
f 124 137 138
f 124 138 125
f 125 138 139
f 125 139 126
f 126 139 140
f 126 140 141
f 126 141 127
f 127 141 142
f 127 142 128
f 128 142 143
f 128 143 144
f 128 144 129
f 129 144 145
f 129 145 130
f 130 145 146
f 130 146 147
f 130 147 131
f 131 147 148
f 131 148 149
f 131 149 132
f 132 149 133
f 133 149 150
f 133 150 151
f 133 151 152
f 133 152 134
f 134 152 153
f 134 153 135
f 135 153 154
f 135 154 136
f 136 154 155
f 136 155 137
f 137 155 156
f 137 156 157
f 137 157 158
f 137 158 138
f 138 158 139
f 139 158 159
f 139 159 160
f 139 160 140
f 140 160 161
f 140 161 162
f 140 162 141
f 141 162 163
f 141 163 142
f 142 163 164
f 142 164 165
f 142 165 143
f 143 165 166
f 143 166 167
f 143 167 144
f 144 167 168
f 144 168 145
f 145 168 169
f 145 169 146
f 146 169 161
f 146 161 160
f 146 160 147
f 147 160 159
f 147 159 148
f 148 159 170
f 148 170 149
f 149 170 171
f 149 171 150
f 150 171 172
f 150 172 151
f 151 172 173
f 151 173 152
f 152 173 174
f 152 174 175
f 152 175 153
f 153 175 154
f 154 175 176
f 154 176 177
f 154 177 155
f 155 177 156
f 156 177 178
f 156 178 179
f 156 179 180
f 156 180 157
f 157 180 171
f 157 171 158
f 158 171 170
f 158 170 159
f 181 182 166
f 181 166 165
f 181 165 183
f 181 183 184
f 181 184 185
f 181 185 182
f 182 185 186
f 182 186 187
f 182 187 166
f 166 187 188
f 166 188 167
f 167 188 168
f 168 188 189
f 168 189 169
f 169 189 190
f 169 190 191
f 169 191 161
f 161 191 162
f 162 191 192
f 162 192 163
f 163 192 193
f 163 193 164
f 164 193 183
f 164 183 165
f 187 186 194
f 187 194 195
f 187 195 188
f 188 195 189
f 189 195 190
f 190 195 196
f 190 196 197
f 190 197 191
f 191 197 192
f 192 197 193
f 193 197 198
f 193 198 183
f 183 198 199
f 183 199 184
f 184 199 200
f 184 200 201
f 184 201 202
f 184 202 185
f 185 202 186
f 186 202 203
f 186 203 204
f 186 204 194
f 194 204 205
f 194 205 195
f 195 205 196
f 196 205 206
f 196 206 207
f 196 207 197
f 197 207 198
f 198 207 208
f 198 208 199
f 199 208 200
f 200 208 209
f 200 209 210
f 200 210 211
f 200 211 212
f 200 212 213
f 200 213 201
f 201 213 202
f 202 213 214
f 202 214 215
f 202 215 216
f 202 216 203
f 203 216 204
f 204 216 217
f 204 217 218
f 204 218 219
f 204 219 220
f 204 220 205
f 205 220 221
f 205 221 206
f 206 221 208
f 206 208 207
f 175 222 215
f 175 215 223
f 175 223 176
f 176 223 177
f 177 223 224
f 177 224 212
f 177 212 225
f 177 225 178
f 178 225 179
f 179 225 226
f 179 226 227
f 179 227 228
f 179 228 229
f 179 229 172
f 179 172 180
f 180 172 171
f 216 215 217
f 217 215 222
f 217 222 218
f 218 222 230
f 218 230 173
f 218 173 231
f 218 231 232
f 218 232 219
f 219 232 221
f 219 221 220
f 224 223 215
f 224 215 214
f 224 214 212
f 212 214 213
f 226 225 212
f 226 212 211
f 226 211 227
f 227 211 210
f 227 210 221
f 227 221 232
f 227 232 231
f 227 231 228
f 228 231 173
f 228 173 229
f 229 173 172
f 221 210 209
f 221 209 208
f 222 175 230
f 230 175 174
f 230 174 173
