# RS2 Model 27706
# Vertices: 106
# Faces: 212

v 14 20 27
v 19 26 17
v 16 23 17
v 12 19 24
v 7 12 29
v 12 7 27
v 21 8 25
v 42 -10 19
v 36 2 18
v 24 14 21
v 23 21 16
v 15 25 6
v 13 23 9
v 40 -9 6
v 43 -9 10
v 41 -11 15
v 6 13 26
v 0 7 26
v 11 -2 24
v 21 -3 30
v 30 -3 23
v 35 -17 20
v 36 -16 16
v 45 -6 10
v 40 1 11
v 35 13 14
v 25 16 9
v 41 -7 3
v 7 19 -1
v 7 19 3
v 37 -12 1
v 37 -11 -2
v 2 9 23
v -1 8 14
v -4 5 14
v 0 2 13
v 6 -4 19
v 29 -22 16
v 22 -11 21
v 31 -12 21
v 31 -20 14
v -1 11 3
v 1 12 6
v 29 -19 -1
v 5 -3 6
v 9 -11 10
v 19 -15 16
v 26 -23 7
v 29 -21 7
v 31 -17 1
v 22 -18 8
v 19 -12 3
v 35 5 7
v -3 -4 24
v 2 -7 12
v -1 -4 13
v -4 -3 22
v -9 2 28
v -14 -3 27
v -15 -11 24
v -33 -33 19
v -22 -25 17
v -9 -14 18
v -4 -12 12
v -2 -2 2
v -4 -1 6
v -36 -28 7
v -33 -32 10
v -35 -30 17
v -9 3 25
v -15 10 27
v -25 -2 26
v -24 -12 31
v -26 -21 23
v -40 -26 23
v -40 -25 19
v -30 -34 10
v -24 -29 10
v -12 -24 10
v -10 -14 6
v -34 -29 4
v -8 5 -2
v -8 5 2
v -39 -25 4
v -39 -24 1
v -14 8 24
v -17 13 16
v -20 16 16
v -23 11 16
v -27 4 22
v -46 -20 21
v -34 -12 24
v -35 -21 23
v -44 -21 18
v -17 13 5
v -15 11 7
v -47 -18 3
v -29 6 9
v -36 3 15
v -39 -8 21
v -48 -16 13
v -46 -19 12
v -44 -20 5
v -43 -12 13
v -39 -7 8
v -22 -23 6

f 1 2 3
f 1 3 4
f 1 4 5
f 1 5 6
f 1 6 7
f 1 7 8
f 1 8 9
f 1 9 10
f 1 10 2
f 2 10 11
f 2 11 12
f 2 12 3
f 3 12 13
f 3 13 14
f 3 14 15
f 3 15 4
f 4 15 16
f 4 16 17
f 4 17 5
f 5 17 18
f 5 18 19
f 5 19 6
f 6 19 20
f 6 20 7
f 7 20 21
f 7 21 8
f 8 21 22
f 8 22 23
f 8 23 16
f 8 16 24
f 8 24 25
f 8 25 9
f 9 25 26
f 9 26 10
f 10 26 11
f 11 26 27
f 11 27 12
f 12 27 28
f 12 28 29
f 12 29 30
f 12 30 13
f 13 30 31
f 13 31 14
f 14 31 32
f 14 32 28
f 14 28 24
f 14 24 15
f 15 24 16
f 18 17 33
f 18 33 34
f 18 34 35
f 18 35 36
f 18 36 37
f 18 37 38
f 18 38 39
f 18 39 19
f 19 39 20
f 20 39 40
f 20 40 21
f 21 40 22
f 22 40 38
f 22 38 41
f 22 41 23
f 23 41 33
f 23 33 17
f 23 17 16
f 42 35 34
f 42 34 43
f 42 43 30
f 42 30 29
f 42 29 44
f 42 44 45
f 42 45 35
f 35 45 36
f 36 45 46
f 36 46 37
f 37 46 47
f 37 47 38
f 38 47 48
f 38 48 41
f 41 48 49
f 41 49 34
f 41 34 33
f 50 49 48
f 50 48 44
f 50 44 32
f 50 32 31
f 50 31 30
f 50 30 43
f 50 43 49
f 49 43 34
f 28 32 29
f 29 32 44
f 38 40 39
f 44 48 51
f 44 51 52
f 44 52 45
f 45 52 46
f 46 52 51
f 46 51 47
f 47 51 48
f 24 28 53
f 24 53 25
f 25 53 26
f 26 53 27
f 27 53 28
f 54 55 56
f 54 56 57
f 54 57 58
f 54 58 59
f 54 59 60
f 54 60 61
f 54 61 62
f 54 62 63
f 54 63 55
f 55 63 64
f 55 64 65
f 55 65 56
f 56 65 66
f 56 66 67
f 56 67 68
f 56 68 57
f 57 68 69
f 57 69 70
f 57 70 58
f 58 70 71
f 58 71 72
f 58 72 59
f 59 72 73
f 59 73 60
f 60 73 74
f 60 74 61
f 61 74 75
f 61 75 76
f 61 76 69
f 61 69 77
f 61 77 78
f 61 78 62
f 62 78 79
f 62 79 63
f 63 79 64
f 64 79 80
f 64 80 65
f 65 80 81
f 65 81 82
f 65 82 83
f 65 83 66
f 66 83 84
f 66 84 67
f 67 84 85
f 67 85 81
f 67 81 77
f 67 77 68
f 68 77 69
f 71 70 86
f 71 86 87
f 71 87 88
f 71 88 89
f 71 89 90
f 71 90 91
f 71 91 92
f 71 92 72
f 72 92 73
f 73 92 93
f 73 93 74
f 74 93 75
f 75 93 91
f 75 91 94
f 75 94 76
f 76 94 86
f 76 86 70
f 76 70 69
f 95 88 87
f 95 87 96
f 95 96 83
f 95 83 82
f 95 82 97
f 95 97 98
f 95 98 88
f 88 98 89
f 89 98 99
f 89 99 90
f 90 99 100
f 90 100 91
f 91 100 101
f 91 101 94
f 94 101 102
f 94 102 87
f 94 87 86
f 103 102 101
f 103 101 97
f 103 97 85
f 103 85 84
f 103 84 83
f 103 83 96
f 103 96 102
f 102 96 87
f 81 85 82
f 82 85 97
f 91 93 92
f 97 101 104
f 97 104 105
f 97 105 98
f 98 105 99
f 99 105 104
f 99 104 100
f 100 104 101
f 77 81 106
f 77 106 78
f 78 106 79
f 79 106 80
f 80 106 81
