# RS2 Model 27733
# Vertices: 247
# Faces: 429

v 18 8 144
v 33 -8 145
v 19 -8 144
v 16 -4 129
v 14 7 130
v 17 0 114
v 13 8 114
v 9 8 113
v 16 0 112
v 12 -11 112
v 13 -13 114
v 0 -14 111
v 0 -14 113
v -10 -11 112
v -13 -11 114
v -16 -3 112
v -15 -3 114
v -14 8 114
v -13 8 114
v -14 7 130
v -16 -4 129
v -18 8 144
v -18 -8 144
v -17 -4 163
v -17 4 163
v -8 1 165
v -16 7 158
v 0 9 165
v 0 9 155
v 16 7 158
v 8 1 165
v 17 4 163
v 17 -4 163
v 10 -8 162
v 13 -13 156
v 23 -4 159
v 33 5 145
v -10 -8 165
v -8 6 165
v -22 7 162
v -23 -7 162
v -18 -11 159
v -10 -14 159
v -6 -14 159
v -5 -16 157
v 5 -13 161
v 6 -14 160
v 11 -7 164
v 12 -8 164
v 8 6 165
v 15 -6 164
v 22 7 163
v 10 16 159
v 0 11 165
v 0 17 159
v -10 16 159
v -14 20 145
v -31 6 145
v -33 -9 145
v -23 -15 145
v -9 -18 145
v -3 -16 156
v 8 -13 159
v -33 6 132
v -36 -9 128
v -23 -15 126
v -9 -17 128
v 0 -19 127
v 0 -17 144
v -8 -16 143
v -9 -13 157
v -16 18 131
v -16 23 112
v -40 6 113
v -40 -11 108
v -23 -13 117
v -8 -18 117
v 0 -17 117
v -8 -16 127
v -32 20 98
v -38 4 95
v -38 -9 94
v -21 -14 97
v -7 -17 97
v 1 -16 98
v -7 -16 118
v 0 20 145
v 0 18 131
v 0 23 112
v 1 21 94
v -17 20 96
v -17 18 83
v -31 11 78
v -28 11 109
v -35 5 120
v -35 -10 119
v -33 -8 106
v -19 -13 109
v -20 -12 87
v -6 -16 109
v -6 -15 86
v 1 20 79
v -21 -12 118
v -17 15 67
v -15 17 95
v -15 17 108
v -15 16 118
v 1 18 63
v -1 20 92
v -1 18 106
v -1 16 118
v 15 17 108
v 6 16 118
v 28 17 109
v 34 5 120
v 9 17 130
v 31 5 131
v 32 5 143
v 14 17 143
v 9 13 157
v 20 6 160
v 35 -8 144
v 22 -6 162
v 34 6 145
v 15 20 145
v 43 -3 127
v 42 6 132
v 22 18 131
v 38 -2 118
v 40 6 119
v 22 23 112
v 33 20 98
v 22 20 96
v 18 18 83
v 18 15 67
v 15 19 95
v 36 11 78
v 39 0 109
v 45 4 95
v -8 -9 161
v 0 -8 160
v 0 -6 160
v 1 -8 160
v 2 -13 160
v 2 -15 154
v 2 -15 146
v 13 -10 136
v -2 -15 122
v -13 -10 136
v -13 -13 156
v -2 -15 146
v -2 -15 154
v -2 -13 160
v 0 -15 136
v 0 -15 140
v -2 -14 138
v 0 -15 132
v 2 -14 138
v 0 -16 144
v -2 -14 130
v 0 -15 128
v 2 -14 130
v 0 -16 120
v 0 -16 124
v 2 -15 122
v 0 -16 152
v 0 -16 156
v 0 -16 148
v 32 -8 95
v 32 -10 101
v 27 -7 100
v 28 -5 94
v 32 -4 92
v 38 -4 94
v 38 -6 100
v 32 -5 109
v 25 0 109
v 23 -1 99
v 27 -2 93
v 29 -1 91
v 26 -7 86
v 29 -7 87
v 34 -7 87
v 37 -4 86
v 36 0 91
v 39 0 93
v 41 1 97
v 36 0 109
v 28 -5 123
v 25 1 119
v 28 8 119
v 32 7 110
v 32 11 99
v 32 7 93
v 32 4 91
v 29 5 87
v 26 1 84
v 29 -6 78
v 29 -7 82
v 34 -7 82
v 38 -6 80
v 37 3 80
v 34 5 87
v 34 1 120
v 34 1 129
v 27 -6 129
v 22 1 125
v 27 7 125
v 29 3 78
v 29 5 82
v 34 5 82
v -29 -1 93
v -32 -4 100
v -32 -4 94
v -32 -4 92
v -29 -1 91
v -32 4 91
v -32 4 93
v -28 0 99
v -36 1 98
v -36 0 93
v -36 0 91
v -37 -4 86
v -34 -7 87
v -29 -7 87
v -26 -7 86
v -26 1 84
v -29 5 87
v -34 5 87
v -32 5 99
v -29 -7 82
v -29 -6 78
v -29 3 78
v -29 5 82
v -34 5 82
v -37 3 80
v -38 -6 80
v -34 -7 82
v 26 9 130
v 26 9 137
v 32 1 138
v 26 -6 137
v 20 1 136
v 24 10 146
v 30 1 149
v 25 -6 146
v 18 2 145

f 1 2 3
f 1 3 4
f 1 4 5
f 5 4 6
f 5 6 7
f 7 6 8
f 8 6 9
f 9 6 10
f 10 6 11
f 10 11 12
f 12 11 13
f 12 13 14
f 14 13 15
f 14 15 16
f 16 15 17
f 16 17 18
f 18 17 19
f 19 17 20
f 20 17 21
f 20 21 22
f 22 21 23
f 22 23 24
f 22 24 25
f 25 24 26
f 25 26 27
f 27 26 28
f 27 28 29
f 29 28 30
f 30 28 31
f 30 31 32
f 32 31 33
f 33 31 34
f 33 34 35
f 33 35 3
f 33 3 36
f 36 3 2
f 1 37 2
f 38 39 40
f 38 40 41
f 38 41 42
f 38 42 43
f 38 43 44
f 44 43 45
f 44 45 46
f 46 45 47
f 46 47 48
f 48 47 49
f 48 49 50
f 50 49 51
f 50 51 52
f 50 52 53
f 50 53 54
f 54 53 55
f 54 55 56
f 54 56 39
f 39 56 40
f 40 56 57
f 40 57 58
f 40 58 41
f 41 58 59
f 41 59 60
f 41 60 42
f 42 60 61
f 42 61 43
f 43 61 62
f 43 62 45
f 45 62 47
f 47 62 63
f 47 63 49
f 49 63 51
f 59 58 64
f 59 64 65
f 59 65 60
f 60 65 66
f 60 66 67
f 60 67 61
f 61 67 68
f 61 68 69
f 61 69 62
f 62 69 70
f 62 70 71
f 58 57 72
f 58 72 64
f 64 72 73
f 64 73 74
f 64 74 65
f 65 74 75
f 65 75 76
f 65 76 66
f 66 76 77
f 66 77 67
f 67 77 78
f 67 78 68
f 68 78 79
f 68 79 70
f 68 70 69
f 74 73 80
f 74 80 81
f 74 81 75
f 75 81 82
f 75 82 83
f 75 83 76
f 76 83 84
f 76 84 77
f 77 84 85
f 77 85 78
f 78 85 86
f 78 86 79
f 57 56 55
f 57 55 87
f 57 87 72
f 72 87 88
f 72 88 73
f 73 88 89
f 73 89 90
f 73 90 91
f 73 91 80
f 80 91 92
f 80 92 93
f 80 93 81
f 81 93 94
f 81 94 95
f 81 95 96
f 81 96 97
f 97 96 98
f 97 98 99
f 99 98 100
f 99 100 101
f 99 101 84
f 99 84 83
f 99 83 82
f 90 102 92
f 90 92 91
f 85 84 101
f 85 101 100
f 85 100 86
f 86 100 103
f 103 100 98
f 103 98 96
f 93 92 104
f 93 104 105
f 93 105 94
f 94 105 106
f 94 106 107
f 94 107 95
f 92 102 108
f 92 108 104
f 104 108 105
f 105 108 109
f 105 109 110
f 105 110 106
f 106 110 107
f 107 110 111
f 111 110 112
f 111 112 113
f 113 112 114
f 113 114 115
f 113 115 116
f 116 115 117
f 116 117 118
f 116 118 119
f 119 118 120
f 120 118 121
f 121 118 122
f 121 122 123
f 123 122 52
f 123 52 51
f 52 122 124
f 52 124 53
f 53 124 125
f 53 125 87
f 53 87 55
f 124 122 126
f 124 126 127
f 124 127 128
f 124 128 125
f 125 128 88
f 125 88 87
f 127 129 130
f 127 130 128
f 128 130 131
f 128 131 89
f 128 89 88
f 130 132 131
f 131 132 133
f 131 133 89
f 89 133 90
f 90 133 102
f 102 133 134
f 102 134 135
f 102 135 108
f 108 135 109
f 109 135 136
f 109 136 112
f 109 112 110
f 133 132 137
f 133 137 134
f 134 137 135
f 135 137 136
f 136 137 114
f 136 114 112
f 130 129 138
f 130 138 139
f 130 139 132
f 132 139 137
f 137 139 114
f 114 139 115
f 115 139 138
f 115 138 129
f 115 129 117
f 117 129 126
f 117 126 118
f 118 126 122
f 129 127 126
f 26 140 141
f 26 141 142
f 142 141 143
f 142 143 31
f 31 143 34
f 34 143 144
f 34 144 35
f 35 144 145
f 35 145 146
f 35 146 147
f 35 147 3
f 3 147 4
f 4 147 11
f 4 11 6
f 13 148 15
f 15 148 149
f 15 149 21
f 15 21 17
f 150 149 151
f 150 151 152
f 150 152 153
f 150 153 140
f 150 140 24
f 150 24 23
f 150 23 149
f 149 23 21
f 154 155 156
f 154 156 157
f 154 157 158
f 154 158 155
f 155 158 146
f 155 146 159
f 155 159 151
f 155 151 156
f 156 151 149
f 156 149 160
f 156 160 157
f 157 160 161
f 157 161 162
f 157 162 158
f 158 162 147
f 158 147 146
f 163 164 148
f 163 148 13
f 163 13 165
f 163 165 164
f 164 165 162
f 164 162 161
f 164 161 160
f 164 160 148
f 148 160 149
f 166 167 152
f 166 152 168
f 166 168 145
f 166 145 167
f 167 145 144
f 167 144 143
f 167 143 141
f 167 141 153
f 167 153 152
f 159 168 151
f 151 168 152
f 11 165 13
f 165 11 147
f 165 147 162
f 159 146 168
f 168 146 145
f 169 170 171
f 169 171 172
f 169 172 173
f 169 173 174
f 169 174 175
f 169 175 170
f 170 175 176
f 170 176 171
f 171 176 177
f 171 177 178
f 171 178 172
f 172 178 179
f 172 179 180
f 172 180 173
f 173 180 181
f 173 181 182
f 173 182 183
f 173 183 184
f 173 184 185
f 173 185 174
f 174 185 186
f 174 186 187
f 174 187 175
f 175 187 188
f 175 188 176
f 176 188 189
f 176 189 177
f 177 189 190
f 177 190 191
f 177 191 192
f 177 192 193
f 177 193 178
f 178 193 194
f 178 194 179
f 179 194 195
f 179 195 180
f 180 195 196
f 180 196 197
f 180 197 181
f 181 197 198
f 181 198 199
f 181 199 182
f 182 199 200
f 182 200 183
f 183 200 201
f 183 201 184
f 184 201 202
f 184 202 185
f 185 202 203
f 185 203 195
f 185 195 186
f 186 195 194
f 186 194 193
f 186 193 187
f 187 193 192
f 187 192 188
f 188 192 204
f 188 204 189
f 189 204 205
f 189 205 206
f 189 206 207
f 189 207 190
f 190 207 208
f 190 208 191
f 191 208 204
f 191 204 192
f 198 197 209
f 198 209 201
f 198 201 200
f 198 200 199
f 209 210 211
f 209 211 202
f 209 202 201
f 202 211 203
f 203 211 210
f 203 210 196
f 203 196 195
f 196 210 197
f 197 210 209
f 212 213 214
f 212 214 215
f 212 215 216
f 212 216 217
f 212 217 218
f 212 218 219
f 212 219 213
f 214 220 221
f 214 221 215
f 215 221 222
f 215 222 223
f 215 223 224
f 215 224 225
f 215 225 226
f 215 226 216
f 216 226 227
f 216 227 228
f 216 228 217
f 217 228 229
f 217 229 222
f 217 222 221
f 217 221 218
f 218 221 230
f 218 230 219
f 214 213 220
f 221 220 230
f 226 231 232
f 226 232 227
f 227 232 233
f 227 233 234
f 227 234 228
f 228 234 229
f 229 234 235
f 229 235 236
f 229 236 222
f 222 236 223
f 223 236 237
f 223 237 224
f 224 237 238
f 224 238 225
f 225 238 231
f 225 231 226
f 233 235 234
f 235 233 236
f 236 233 237
f 237 233 232
f 237 232 238
f 238 232 231
f 208 205 204
f 205 208 239
f 205 239 240
f 205 240 241
f 205 241 206
f 206 241 242
f 206 242 243
f 206 243 207
f 207 243 239
f 207 239 208
f 241 240 244
f 241 244 245
f 241 245 246
f 241 246 242
f 242 246 247
f 242 247 243
f 243 247 240
f 243 240 239
f 247 244 240
f 153 141 140
f 26 24 140
