# RS2 Model 27735
# Vertices: 211
# Faces: 410

v 12 -54 161
v 11 -54 161
v 10 -54 162
v 11 -54 160
v 11 -44 158
v 11 -44 159
v 9 -44 159
v 10 -45 157
v 7 -16 149
v 6 -16 150
v 5 -16 149
v 6 -16 148
v 13 -15 149
v 8 -14 155
v 0 -16 153
v 0 -18 147
v 12 -14 138
v 17 -9 146
v 29 -2 156
v 22 -3 164
v 13 -2 164
v 2 -7 159
v 0 -9 158
v -8 -14 155
v -13 -15 149
v -14 -14 138
v 0 -17 138
v 0 -16 136
v 13 -13 136
v 15 -9 136
v 17 1 146
v 18 0 142
v 24 -8 143
v 32 -1 147
v 28 5 160
v 22 6 163
v 13 5 164
v 8 1 165
v 0 -6 160
v -2 -8 159
v -13 -2 164
v -21 -3 164
v -18 -6 158
v -17 -9 156
v -21 -9 156
v -23 -9 153
v -17 -9 146
v -14 -13 136
v 12 -47 163
v 12 -52 165
v 9 -49 156
v 10 -55 157
v 14 -48 158
v 16 -54 160
v 7 -48 161
v 6 -54 163
v 7 -15 123
v 9 -14 118
v 14 -9 131
v 3 -15 128
v 5 -15 122
v 0 -15 112
v 12 -11 113
v 17 -2 114
v 16 0 120
v 16 1 130
v 17 1 135
v 0 -14 132
v -14 -9 131
v -11 -12 113
v -10 -11 112
v 0 -14 111
v 12 -11 112
v 16 0 112
v 17 2 114
v 13 10 131
v 13 10 137
v 0 9 165
v 0 14 159
v -13 5 164
v -8 1 165
v 10 16 153
v 0 17 153
v -10 16 153
v -21 6 163
v -28 5 160
v -29 -2 156
v -21 -7 159
v -24 -9 150
v -24 -8 143
v -18 0 142
v -17 0 146
v -16 -9 137
v 17 10 146
v 0 16 140
v 22 11 147
v 0 14 130
v -13 10 131
v -15 10 137
v -17 10 146
v 9 9 114
v 0 11 115
v -9 9 114
v -15 2 113
v -16 -1 113
v -16 2 131
v -17 1 137
v -22 11 147
v 9 8 113
v 0 10 113
v -9 8 113
v -16 0 112
v -36 0 112
v -30 -7 112
v -27 -6 117
v -35 -3 118
v -32 6 113
v -31 7 112
v -38 0 111
v -30 -7 111
v -25 -2 112
v -25 0 119
v -22 -1 125
v -28 -7 128
v -34 -1 129
v -28 6 122
v -24 -1 111
v -29 -1 93
v -32 4 93
v -36 0 93
v -32 -4 94
v -27 7 129
v -34 -2 138
v -27 9 137
v -26 -8 137
v -19 -1 136
v -32 -1 147
v -30 7 147
v -32 -4 92
v -29 -1 91
v -32 4 91
v -36 0 91
v -26 -7 86
v -29 -7 82
v -29 -6 78
v -26 1 84
v -29 -7 87
v -34 -7 82
v -35 -6 79
v -35 3 79
v -29 3 78
v -29 5 82
v -29 5 87
v -34 5 87
v -39 2 85
v -40 -3 85
v -34 -7 87
v -34 5 82
v -39 3 80
v -40 -6 80
v -38 3 76
v -38 -6 76
v 36 0 112
v 27 -6 117
v 30 -7 112
v 38 0 111
v 31 7 112
v 32 6 113
v 35 -1 118
v 28 -7 128
v 22 -1 125
v 25 -2 119
v 25 -2 112
v 30 -7 111
v 36 0 93
v 32 4 93
v 29 -1 93
v 24 -1 111
v 28 6 122
v 34 -1 129
v 34 -2 138
v 26 -8 137
v 19 -1 136
v 27 7 137
v 28 6 129
v 29 7 147
v 32 -4 94
v 32 -4 92
v 36 0 91
v 32 4 91
v 29 -1 91
v 26 -7 86
v 29 -6 78
v 29 -7 82
v 29 -7 87
v 26 1 84
v 29 3 78
v 35 3 79
v 35 -6 79
v 34 -7 82
v 34 -7 87
v 29 5 82
v 34 5 82
v 39 3 80
v 38 3 76
v 38 -6 76
v 40 -6 80
v 40 -3 85
v 39 2 85
v 34 5 87
v 29 5 87

f 1 2 3
f 1 3 4
f 1 4 5
f 1 5 2
f 2 5 6
f 2 6 7
f 2 7 3
f 3 7 4
f 4 7 8
f 4 8 5
f 5 8 9
f 5 9 6
f 6 9 10
f 6 10 11
f 6 11 7
f 7 11 8
f 8 11 12
f 8 12 9
f 9 12 13
f 9 13 10
f 10 13 14
f 10 14 15
f 10 15 11
f 11 15 16
f 11 16 12
f 12 16 17
f 12 17 13
f 13 17 18
f 13 18 19
f 13 19 20
f 13 20 14
f 14 20 21
f 14 21 22
f 14 22 23
f 14 23 15
f 15 23 24
f 15 24 25
f 15 25 16
f 16 25 26
f 16 26 27
f 16 27 17
f 17 27 28
f 17 28 29
f 17 29 18
f 18 29 30
f 18 30 31
f 18 31 32
f 18 32 33
f 18 33 19
f 19 33 34
f 19 34 35
f 19 35 36
f 19 36 20
f 20 36 37
f 20 37 21
f 21 37 38
f 21 38 22
f 22 38 39
f 22 39 23
f 23 39 40
f 23 40 24
f 24 40 41
f 24 41 42
f 24 42 43
f 24 43 44
f 24 44 25
f 25 44 45
f 25 45 46
f 25 46 47
f 25 47 26
f 26 47 48
f 26 48 28
f 26 28 27
f 2 6 49
f 2 49 50
f 2 50 49
f 2 49 6
f 4 51 8
f 4 8 51
f 4 51 52
f 4 52 51
f 1 5 53
f 1 53 54
f 1 54 53
f 1 53 5
f 3 55 7
f 3 7 55
f 3 55 56
f 3 56 55
f 57 58 59
f 57 59 60
f 57 60 61
f 57 61 58
f 58 61 62
f 58 62 63
f 58 63 59
f 59 63 64
f 59 64 65
f 59 65 66
f 59 66 67
f 59 67 30
f 59 30 29
f 59 29 28
f 59 28 68
f 59 68 60
f 60 68 61
f 61 68 62
f 62 68 69
f 62 69 70
f 62 70 71
f 62 71 72
f 62 72 73
f 62 73 63
f 63 73 64
f 64 73 74
f 64 74 75
f 64 75 65
f 65 75 76
f 65 76 66
f 66 76 67
f 67 76 77
f 67 77 31
f 67 31 30
f 38 37 78
f 78 37 79
f 78 79 80
f 78 80 81
f 81 80 41
f 81 41 40
f 81 40 39
f 79 37 36
f 79 36 82
f 79 82 83
f 79 83 84
f 79 84 85
f 79 85 80
f 80 85 41
f 41 85 42
f 42 85 86
f 42 86 87
f 42 87 88
f 42 88 43
f 43 88 44
f 44 88 45
f 45 88 87
f 45 87 46
f 46 87 89
f 46 89 47
f 47 89 90
f 47 90 91
f 47 91 92
f 47 92 93
f 47 93 48
f 48 93 69
f 48 69 28
f 28 69 68
f 94 77 95
f 94 95 82
f 94 82 36
f 94 36 35
f 94 35 96
f 94 96 32
f 94 32 31
f 94 31 77
f 95 76 97
f 95 97 98
f 95 98 99
f 95 99 100
f 95 100 84
f 95 84 83
f 95 83 82
f 76 101 102
f 76 102 97
f 97 102 98
f 98 102 103
f 98 103 104
f 98 104 105
f 98 105 106
f 98 106 99
f 99 106 107
f 99 107 100
f 100 107 92
f 100 92 91
f 100 91 108
f 100 108 86
f 100 86 84
f 84 86 85
f 101 76 75
f 101 75 109
f 101 109 110
f 101 110 102
f 102 110 103
f 103 110 111
f 103 111 112
f 103 112 104
f 104 112 105
f 105 112 71
f 105 71 70
f 105 70 69
f 105 69 106
f 106 69 107
f 107 69 93
f 107 93 92
f 113 114 115
f 113 115 116
f 113 116 117
f 113 117 118
f 113 118 119
f 113 119 114
f 114 119 120
f 114 120 121
f 114 121 115
f 115 121 122
f 115 122 123
f 115 123 124
f 115 124 116
f 116 124 125
f 116 125 126
f 116 126 117
f 117 126 121
f 117 121 127
f 117 127 118
f 118 127 128
f 118 128 129
f 118 129 119
f 119 129 130
f 119 130 120
f 120 130 131
f 120 131 127
f 120 127 121
f 132 126 125
f 132 125 133
f 132 133 134
f 132 134 123
f 132 123 126
f 126 123 122
f 126 122 121
f 135 133 124
f 135 124 123
f 135 123 136
f 135 136 90
f 135 90 133
f 133 90 137
f 133 137 138
f 133 138 134
f 134 138 108
f 134 108 136
f 134 136 123
f 133 125 124
f 127 131 128
f 128 131 139
f 128 139 140
f 128 140 141
f 128 141 129
f 129 141 130
f 130 141 142
f 130 142 139
f 130 139 131
f 86 138 137
f 86 137 87
f 87 137 90
f 87 90 89
f 108 138 86
f 109 75 74
f 77 76 95
f 90 136 91
f 91 136 108
f 143 144 145
f 143 145 146
f 143 146 140
f 143 140 147
f 143 147 144
f 144 147 148
f 144 148 145
f 145 148 149
f 145 149 150
f 145 150 151
f 145 151 146
f 146 151 152
f 146 152 153
f 146 153 140
f 140 153 141
f 141 153 154
f 141 154 142
f 142 154 155
f 142 155 156
f 142 156 157
f 142 157 139
f 139 157 147
f 139 147 140
f 151 158 152
f 152 158 154
f 152 154 153
f 159 160 156
f 159 156 155
f 159 155 154
f 159 154 158
f 159 158 150
f 159 150 161
f 159 161 160
f 160 161 162
f 160 162 149
f 160 149 148
f 160 148 157
f 160 157 156
f 158 151 150
f 148 147 157
f 150 149 162
f 150 162 161
f 163 164 165
f 163 165 166
f 163 166 167
f 163 167 168
f 163 168 169
f 163 169 164
f 164 169 170
f 164 170 171
f 164 171 172
f 164 172 173
f 164 173 165
f 165 173 174
f 165 174 166
f 166 174 175
f 166 175 176
f 166 176 167
f 167 176 177
f 167 177 178
f 167 178 168
f 168 178 173
f 168 173 179
f 168 179 169
f 169 179 180
f 169 180 170
f 170 180 181
f 170 181 182
f 170 182 171
f 171 182 183
f 171 183 184
f 171 184 185
f 171 185 179
f 171 179 172
f 172 179 173
f 185 180 179
f 180 185 181
f 181 185 184
f 181 184 186
f 181 186 34
f 181 34 33
f 181 33 182
f 182 33 183
f 183 33 32
f 183 32 96
f 183 96 184
f 184 96 186
f 186 96 35
f 186 35 34
f 173 178 174
f 174 178 187
f 174 187 175
f 175 187 188
f 175 188 189
f 175 189 190
f 175 190 176
f 176 190 177
f 177 190 191
f 177 191 188
f 177 188 187
f 177 187 178
f 192 193 194
f 192 194 195
f 192 195 191
f 192 191 196
f 192 196 193
f 193 196 197
f 193 197 198
f 193 198 199
f 193 199 200
f 193 200 194
f 194 200 195
f 195 200 201
f 195 201 188
f 195 188 191
f 197 202 203
f 197 203 198
f 198 203 204
f 198 204 205
f 198 205 206
f 198 206 199
f 199 206 207
f 199 207 200
f 200 207 201
f 201 207 208
f 201 208 189
f 201 189 188
f 209 189 208
f 209 208 204
f 209 204 210
f 209 210 189
f 189 210 190
f 190 210 211
f 190 211 191
f 191 211 196
f 196 211 202
f 196 202 197
f 210 204 203
f 210 203 202
f 210 202 211
f 207 206 205
f 207 205 204
f 207 204 208
