# RS2 Model 27738
# Vertices: 97
# Faces: 177

v 16 -2 14
v 19 -2 13
v 9 8 15
v 9 3 14
v 13 -2 14
v 9 -5 14
v 9 -8 15
v 9 -9 13
v 9 -8 8
v 18 -2 8
v 8 10 8
v 8 10 13
v 1 -1 13
v 4 -2 14
v 6 -2 13
v 1 -2 8
v 9 -7 6
v 15 -2 6
v 12 5 6
v 9 7 6
v 6 5 6
v 9 -7 4
v 15 -4 3
v 13 5 3
v 9 7 3
v 4 3 2
v 3 -2 3
v 4 -2 6
v 4 -15 2
v 9 -13 2
v 11 -13 3
v 15 -13 1
v 16 1 -6
v 9 8 0
v 3 1 -6
v 3 -14 -6
v 4 -24 1
v 7 -14 3
v 10 -18 10
v 12 -15 2
v 15 -23 1
v 16 -12 -6
v 9 7 -6
v 14 -21 -6
v 5 -21 -6
v 7 -17 2
v 10 -19 2
v -16 -2 14
v -9 8 15
v -19 -2 13
v -9 -8 15
v -9 -5 14
v -13 -2 14
v -9 3 14
v -4 -2 14
v -1 -1 13
v -8 10 13
v -8 10 8
v -18 -2 8
v -9 -8 8
v -9 -9 13
v -6 -2 13
v -1 -2 8
v -9 -7 6
v -4 -2 6
v -6 5 6
v -9 7 6
v -12 5 6
v -15 -2 6
v -9 -7 4
v -3 -2 3
v -4 3 2
v -9 7 3
v -13 5 3
v -15 -4 3
v -15 -13 1
v -11 -13 3
v -9 -13 2
v -4 -15 2
v -3 1 -6
v -9 8 0
v -16 1 -6
v -16 -12 -6
v -15 -23 1
v -12 -15 2
v -10 -18 10
v -7 -14 3
v -4 -24 1
v -3 -14 -6
v -9 7 -6
v -14 -21 -6
v -5 -21 -6
v -7 -17 2
v -10 -19 2
v 6 -2 -6
v -6 -2 -6
v 0 6 -6

f 1 2 3
f 1 3 4
f 1 4 5
f 1 5 6
f 1 6 7
f 1 7 2
f 2 7 8
f 2 8 9
f 2 9 10
f 2 10 11
f 2 11 12
f 2 12 3
f 3 12 13
f 3 13 14
f 3 14 4
f 4 14 15
f 15 14 6
f 6 14 7
f 7 14 13
f 7 13 8
f 8 13 9
f 9 13 16
f 9 16 17
f 9 17 18
f 9 18 10
f 10 18 19
f 10 19 11
f 11 19 20
f 11 20 21
f 11 21 16
f 11 16 13
f 11 13 12
f 18 17 22
f 18 22 23
f 18 23 24
f 18 24 19
f 19 24 25
f 19 25 20
f 20 25 21
f 21 25 26
f 21 26 27
f 21 27 28
f 21 28 16
f 16 28 17
f 17 28 27
f 17 27 22
f 22 27 29
f 22 29 30
f 22 30 31
f 22 31 32
f 22 32 23
f 23 32 33
f 23 33 24
f 24 33 34
f 24 34 25
f 25 34 26
f 26 34 35
f 26 35 27
f 27 35 29
f 29 35 36
f 29 36 37
f 29 37 38
f 29 38 30
f 30 38 39
f 30 39 31
f 31 39 40
f 31 40 32
f 32 40 41
f 32 41 42
f 32 42 33
f 33 42 36
f 33 36 35
f 33 35 43
f 33 43 34
f 34 43 35
f 44 45 36
f 44 36 42
f 44 42 41
f 44 41 37
f 44 37 45
f 45 37 36
f 37 46 38
f 38 46 39
f 39 46 47
f 39 47 40
f 40 47 41
f 41 47 37
f 37 47 46
f 48 49 50
f 48 50 51
f 48 51 52
f 48 52 53
f 48 53 54
f 48 54 49
f 49 54 55
f 49 55 56
f 49 56 57
f 49 57 50
f 50 57 58
f 50 58 59
f 50 59 60
f 50 60 61
f 50 61 51
f 51 61 56
f 51 56 55
f 51 55 52
f 52 55 62
f 62 55 54
f 63 58 56
f 63 56 60
f 63 60 64
f 63 64 65
f 63 65 66
f 63 66 58
f 58 66 67
f 58 67 68
f 58 68 59
f 59 68 69
f 59 69 60
f 60 69 64
f 64 69 70
f 64 70 71
f 64 71 65
f 65 71 66
f 66 71 72
f 66 72 73
f 66 73 67
f 67 73 68
f 68 73 74
f 68 74 69
f 69 74 75
f 69 75 70
f 70 75 76
f 70 76 77
f 70 77 78
f 70 78 79
f 70 79 71
f 71 79 80
f 71 80 72
f 72 80 81
f 72 81 73
f 73 81 74
f 74 81 82
f 74 82 75
f 75 82 76
f 76 82 83
f 76 83 84
f 76 84 85
f 76 85 77
f 77 85 86
f 77 86 78
f 78 86 87
f 78 87 79
f 79 87 88
f 79 88 89
f 79 89 80
f 80 89 82
f 80 82 90
f 80 90 81
f 81 90 82
f 91 83 89
f 91 89 92
f 91 92 88
f 91 88 84
f 91 84 83
f 89 83 82
f 89 88 92
f 57 56 58
f 56 61 60
f 88 87 93
f 88 93 94
f 88 94 84
f 84 94 85
f 85 94 86
f 86 94 93
f 86 93 87
f 95 96 97
