# RS2 Model 27754
# Vertices: 81
# Faces: 145

v -13 3 10
v -8 8 11
v -8 8 5
v -14 2 4
v -9 -1 6
v -8 -1 11
v -15 2 13
v -8 10 14
v -4 2 13
v -5 3 10
v -4 2 4
v -8 10 -1
v -16 3 -4
v -15 -3 1
v -10 -4 2
v -5 -5 1
v -8 -3 14
v -16 2 18
v -8 11 18
v -3 2 18
v -8 -4 18
v -13 2 19
v -8 9 19
v -5 2 19
v -8 -2 19
v -16 -10 -4
v -12 -15 -4
v -11 -14 -1
v -15 -9 -1
v -16 -3 -4
v -4 -5 -4
v -6 -14 -4
v -7 -13 -1
v -10 -10 0
v -12 -8 1
v -3 3 -4
v -8 9 -4
v -8 -8 1
v -10 -10 7
v 13 3 10
v 14 2 4
v 8 8 5
v 8 8 11
v 15 2 13
v 8 -1 11
v 9 -1 6
v 15 -3 1
v 16 3 -4
v 8 10 -1
v 4 2 4
v 5 3 10
v 4 2 13
v 8 10 14
v 8 11 18
v 16 2 18
v 8 -3 14
v 5 -5 1
v 10 -4 2
v 12 -8 1
v 15 -9 -1
v 16 -3 -4
v 3 3 -4
v 8 9 -4
v 4 -5 -4
v 7 -13 -1
v 8 -8 1
v 10 -10 7
v 10 -10 0
v 11 -14 -1
v 16 -10 -4
v 12 -15 -4
v 6 -14 -4
v 8 9 19
v 13 2 19
v 8 -4 18
v 3 2 18
v 5 2 19
v 8 -2 19
v 6 -2 -4
v -3 -2 -4
v 0 6 -4

f 1 2 3
f 1 3 4
f 1 4 5
f 1 5 6
f 1 6 7
f 1 7 2
f 2 7 8
f 2 8 9
f 2 9 10
f 2 10 11
f 2 11 3
f 3 11 12
f 3 12 4
f 4 12 13
f 4 13 14
f 4 14 5
f 5 14 15
f 5 15 16
f 5 16 11
f 5 11 10
f 5 10 6
f 6 10 9
f 6 9 17
f 6 17 7
f 7 17 18
f 7 18 19
f 7 19 8
f 8 19 20
f 8 20 9
f 9 20 17
f 17 20 21
f 17 21 18
f 18 21 22
f 18 22 19
f 19 22 23
f 19 23 24
f 19 24 20
f 20 24 21
f 21 24 25
f 21 25 22
f 26 27 28
f 26 28 29
f 26 29 30
f 26 30 31
f 26 31 32
f 26 32 27
f 27 32 28
f 28 32 33
f 28 33 34
f 28 34 29
f 29 34 35
f 29 35 14
f 29 14 30
f 30 14 13
f 30 13 36
f 30 36 31
f 31 36 16
f 31 16 33
f 31 33 32
f 11 16 36
f 11 36 12
f 12 36 37
f 12 37 13
f 13 37 36
f 33 16 38
f 33 38 34
f 34 38 39
f 34 39 35
f 35 39 15
f 35 15 14
f 16 15 38
f 38 15 39
f 40 41 42
f 40 42 43
f 40 43 44
f 40 44 45
f 40 45 46
f 40 46 41
f 41 46 47
f 41 47 48
f 41 48 49
f 41 49 42
f 42 49 50
f 42 50 43
f 43 50 51
f 43 51 52
f 43 52 53
f 43 53 44
f 44 53 54
f 44 54 55
f 44 55 56
f 44 56 45
f 45 56 52
f 45 52 51
f 45 51 46
f 46 51 50
f 46 50 57
f 46 57 58
f 46 58 47
f 47 58 59
f 47 59 60
f 47 60 61
f 47 61 48
f 48 61 62
f 48 62 63
f 48 63 49
f 49 63 62
f 49 62 50
f 50 62 57
f 57 62 64
f 57 64 65
f 57 65 66
f 57 66 58
f 58 66 67
f 58 67 59
f 59 67 68
f 59 68 60
f 60 68 69
f 60 69 70
f 60 70 61
f 61 70 64
f 61 64 62
f 70 69 71
f 70 71 72
f 70 72 64
f 64 72 65
f 65 72 69
f 65 69 68
f 65 68 66
f 66 68 67
f 72 71 69
f 54 73 74
f 54 74 55
f 55 74 75
f 55 75 56
f 56 75 76
f 56 76 52
f 52 76 53
f 53 76 54
f 54 76 77
f 54 77 73
f 74 78 75
f 75 78 77
f 75 77 76
f 79 80 81
