# RS2 Model 27793
# Vertices: 640
# Faces: 1275

v -5 7 89
v -8 -10 99
v -13 -13 89
v -5 2 84
v -5 20 89
v 0 3 88
v 0 -10 96
v 0 -11 110
v -8 -7 110
v -18 0 111
v -29 -4 94
v -32 -11 73
v -16 -16 70
v -7 -8 70
v -5 17 86
v -13 19 86
v -8 24 100
v 0 23 92
v 4 20 89
v 4 7 89
v 7 -10 99
v 7 -7 110
v 0 -12 117
v -9 -10 117
v -18 0 117
v -17 18 112
v -23 13 92
v -25 4 70
v -25 0 64
v -30 -11 65
v -17 -17 64
v -6 -8 64
v -6 6 69
v -17 11 68
v -8 23 112
v 0 24 112
v 7 24 100
v 12 19 86
v 4 17 86
v 4 2 84
v 12 -13 89
v 28 -4 94
v 17 0 111
v 18 0 117
v 7 -10 117
v 0 -12 118
v 0 -11 118
v -8 -7 118
v -16 0 118
v -17 20 118
v -9 25 118
v 0 26 118
v 7 23 112
v 16 18 112
v 22 13 92
v 16 11 68
v 5 6 69
v 6 -8 70
v 15 -16 70
v 31 -11 73
v 24 4 70
v 17 20 118
v 15 18 121
v 16 0 118
v 7 -7 118
v 8 -12 125
v 3 -17 134
v 0 -16 134
v -3 -17 134
v -8 -12 125
v -19 0 126
v -21 15 129
v -15 18 121
v -8 23 121
v 0 24 121
v 9 25 118
v -17 6 64
v -17 7 58
v -24 2 58
v -29 -7 59
v -17 -16 57
v -7 -7 59
v -6 1 64
v -7 2 59
v -7 4 56
v -17 8 56
v -25 4 56
v -29 -6 56
v -17 -15 55
v -7 -5 56
v 18 6 64
v 10 0 64
v 5 -11 64
v 16 -17 64
v 29 -8 64
v 29 1 64
v 28 2 59
v 18 7 58
v 11 2 58
v 6 -7 59
v 18 -16 57
v 28 -7 59
v 28 -5 56
v 28 4 56
v 18 8 56
v 10 4 56
v 6 -6 56
v 18 -15 55
v 19 -19 53
v 31 4 54
v 19 15 55
v 7 6 55
v 3 -4 55
v 4 -4 48
v 20 -19 48
v 29 -4 46
v 31 9 49
v 21 19 49
v 9 9 49
v 7 -6 36
v 21 -17 45
v 21 -14 36
v 28 -3 37
v 29 7 38
v 22 16 38
v 10 5 36
v 11 2 23
v 12 -8 24
v -42 22 153
v -31 24 162
v -29 25 151
v -47 26 139
v -51 24 149
v -54 20 151
v -42 18 156
v -29 20 166
v -27 21 149
v -47 22 136
v -51 17 148
v -59 3 159
v -59 7 161
v -54 19 156
v -42 17 161
v -31 19 169
v -34 3 177
v -27 3 164
v -27 17 159
v -27 18 149
v -29 16 140
v -44 16 137
v -57 6 137
v -54 5 152
v -55 -7 151
v -54 -6 158
v -56 0 162
v -47 3 165
v -47 7 167
v -36 7 177
v -48 0 168
v -36 -1 177
v -29 -7 169
v -27 -5 160
v -23 -5 161
v -24 -1 165
v -23 3 168
v -25 8 167
v -20 23 161
v -20 24 144
v -25 13 132
v -30 -1 140
v -33 14 138
v -36 10 125
v -49 14 125
v -57 5 126
v -55 -3 126
v -55 -4 137
v -52 -4 148
v -47 -16 141
v -47 -16 145
v -52 -12 153
v -43 -8 160
v -45 -7 163
v -31 -17 149
v -32 -12 168
v -42 -12 161
v -27 -16 148
v -26 -1 131
v -27 -7 147
v -33 -12 144
v -34 -6 138
v -38 -5 124
v -42 -3 117
v -42 7 117
v -53 10 117
v -55 4 117
v -53 -2 117
v -43 -10 125
v -46 -12 142
v -23 -7 143
v -21 -11 160
v -9 -13 165
v -9 -10 166
v -15 -6 172
v -15 1 174
v -14 5 171
v -16 19 168
v -13 28 163
v -13 27 151
v -15 25 145
v -18 23 135
v -16 -6 132
v -17 -12 140
v -17 -13 142
v -13 -16 163
v -4 -18 161
v 0 -13 165
v -7 -15 168
v -10 -9 174
v -10 -4 175
v -8 -1 175
v 0 6 177
v 0 21 172
v -3 30 161
v -10 27 161
v -11 26 150
v -3 26 135
v 25 -5 163
v 27 3 164
v 24 -1 165
v 9 -10 166
v 9 -13 165
v 23 -11 162
v 23 -7 143
v 27 -5 160
v 34 3 177
v 29 20 166
v 27 17 159
v 25 8 167
v 23 3 168
v 15 -6 172
v 10 -9 174
v 7 -15 168
v 4 -18 161
v 13 -16 163
v 17 -13 142
v 17 -12 140
v 16 -6 132
v 26 -1 131
v 27 -7 147
v 29 -7 169
v 47 3 162
v 42 18 156
v 27 21 149
v 27 18 149
v 20 23 161
v 16 19 168
v 14 5 171
v 15 1 174
v 10 -4 175
v 10 -3 181
v 15 -2 180
v 10 -10 176
v 10 -16 174
v 6 -22 171
v 7 -23 168
v 3 -20 162
v 0 -15 168
v -3 -20 162
v -6 -23 168
v -6 -22 171
v -10 -16 174
v -10 -10 176
v -15 -2 180
v -10 -3 181
v 0 7 183
v 8 -1 175
v 3 30 161
v 0 28 161
v -5 30 165
v 25 13 132
v 30 -1 140
v 19 0 126
v 21 15 129
v 18 23 135
v 20 24 144
v 29 16 140
v 33 14 138
v 34 -6 138
v 33 -12 144
v 27 -16 148
v 47 22 136
v 44 16 137
v 36 10 125
v 38 -5 124
v 37 -14 137
v 46 -12 142
v 47 -16 141
v 55 -7 151
v 40 -7 156
v 13 27 151
v 13 28 163
v 10 27 161
v 11 26 150
v 3 26 135
v 0 25 135
v 2 -23 180
v 6 -22 182
v 0 -27 182
v 2 -24 178
v 5 -22 179
v 5 -22 181
v 10 -16 180
v 6 -26 184
v 0 -28 183
v -6 -26 184
v -6 -22 182
v -2 -23 180
v -2 -24 178
v 0 -27 179
v 2 -26 176
v 3 -23 176
v 7 -18 180
v 10 -12 180
v 7 -28 189
v 0 -32 186
v -7 -28 189
v -10 -16 180
v -5 -22 181
v -5 -22 179
v -3 -23 176
v -2 -26 176
v -1 -27 176
v -1 -31 176
v 1 -31 176
v 1 -27 176
v 0 -26 175
v 0 -26 173
v 3 -25 172
v 0 -26 170
v 0 -28 166
v 2 -24 164
v 5 -23 164
v 7 -23 160
v 5 -22 157
v 2 -23 160
v -2 -23 160
v 0 -29 161
v 5 -24 158
v 6 -28 152
v 8 -27 153
v 6 -26 152
v -2 -24 164
v 0 -30 191
v 1 -19 196
v 1 -22 199
v 0 -33 196
v -1 -22 199
v -1 -19 196
v 7 -19 195
v 7 -6 192
v 1 -6 194
v 1 -6 197
v 3 -7 204
v 3 -17 203
v 1 -23 200
v 1 -32 203
v 0 -39 202
v -1 -32 203
v -1 -23 200
v -3 -17 203
v -3 -7 204
v -1 -6 197
v -1 -6 194
v -7 -19 195
v -10 -12 180
v -7 -18 180
v 10 -5 184
v 6 -1 187
v 1 -2 192
v 1 -2 195
v 3 2 200
v 3 5 205
v 3 -5 210
v 3 -10 206
v 3 -19 208
v -3 -19 208
v 3 -32 203
v 3 -28 210
v -3 -28 210
v 3 -11 211
v 3 -32 216
v 0 -48 207
v -3 -32 216
v -3 -11 211
v 1 1 188
v 0 2 189
v 1 3 192
v 1 7 195
v 2 13 198
v -2 13 198
v -3 5 205
v -3 -5 210
v -3 -10 206
v 0 7 186
v 13 -9 185
v 13 -5 186
v 12 -9 182
v 17 -5 191
v 17 -2 191
v 16 -2 188
v 1 -30 174
v -1 -30 174
v 0 -28 174
v -3 -25 172
v 0 -29 171
v -5 -23 164
v -4 -24 158
v -4 -22 157
v -6 -23 160
v -7 -6 192
v -10 -5 184
v -13 -5 186
v -13 -9 185
v -12 -9 182
v -16 -2 188
v -6 -1 187
v -1 1 188
v 0 11 186
v 0 15 185
v 0 23 181
v -1 7 195
v -3 2 200
v -1 -2 192
v 0 3 192
v -17 -5 191
v -17 -2 191
v -1 -2 195
v -41 7 101
v -38 0 100
v -41 11 101
v -58 14 104
v -56 9 104
v -56 14 112
v -37 10 112
v -42 -5 101
v -42 -9 101
v -44 -10 88
v -41 -1 88
v -43 9 88
v -60 13 90
v -60 3 104
v -57 3 104
v -60 5 112
v -38 -7 111
v -54 -4 104
v -58 -6 104
v -60 -7 90
v -50 -7 89
v -46 -2 89
v -46 7 89
v -59 7 89
v -62 2 90
v -56 -5 112
v -58 -5 89
v -48 -7 83
v -40 -2 83
v -40 9 78
v -48 8 83
v -54 8 80
v -60 9 75
v -59 -7 76
v -54 -7 80
v 0 -16 160
v 3 -20 143
v 4 -18 141
v 14 -14 134
v -3 -20 143
v 0 -18 144
v 0 -17 142
v -4 -18 141
v -14 -14 134
v 8 23 121
v 15 25 145
v -37 -14 137
v 55 -4 137
v 54 5 152
v 52 -4 148
v 55 -3 126
v 57 6 137
v 51 17 148
v 59 3 159
v 49 14 125
v 54 20 151
v 42 7 117
v 42 -3 117
v 43 -10 125
v 53 -2 117
v 57 5 126
v 53 10 117
v 37 10 112
v 38 -7 111
v 56 -5 112
v 55 4 117
v 56 14 112
v 40 9 101
v 41 -7 101
v 57 -5 104
v 59 3 104
v 60 5 112
v 57 11 104
v 55 5 89
v 46 5 89
v 46 -1 89
v 49 -5 89
v 54 -3 89
v 38 -2 83
v 46 -7 83
v 52 -7 80
v 57 -7 76
v 58 9 75
v 52 8 80
v 46 8 83
v 40 9 80
v 39 -2 78
v 44 -7 77
v 49 -7 75
v 54 -7 71
v 55 9 70
v 49 8 75
v 46 8 79
v 42 9 77
v 43 -1 76
v 47 -7 69
v 48 9 68
v -57 9 70
v -56 -7 71
v -51 8 75
v -50 9 68
v -49 -7 69
v -51 -7 75
v -46 8 77
v -45 -1 76
v -46 -7 77
v -41 -2 78
v 10 -33 147
v -33 -8 171
v -7 -27 153
v -5 -28 152
v -5 -26 152
v -9 -33 147
v 9 -25 21
v 12 -28 20
v 14 -25 23
v 8 -27 18
v 5 -28 22
v 6 -28 14
v 17 -29 20
v 17 -30 24
v 20 -25 22
v 19 -12 25
v 25 -7 23
v 26 4 23
v 22 12 24
v 21 14 14
v 10 5 12
v 10 -5 9
v 9 -15 12
v 9 -15 0
v 6 -28 7
v 26 -33 14
v 26 -31 18
v 22 -29 21
v -9 -33 7
v -9 -33 0
v -6 -15 0
v -6 -15 12
v -9 -33 14
v -29 -28 7
v -29 -28 0
v -26 -15 0
v -5 5 0
v -5 5 7
v -5 5 12
v -10 -7 23
v -9 -27 21
v -9 -31 18
v -18 -29 20
v -29 -28 14
v -23 -28 20
v -27 -27 18
v -21 -25 23
v -26 -25 21
v -30 -28 22
v -23 -8 24
v -26 -15 12
v -25 5 0
v -14 14 0
v -14 14 7
v -14 14 14
v -13 12 24
v -9 4 23
v -7 -3 37
v -14 -14 36
v -16 -12 25
v -15 -25 22
v -13 -29 21
v -11 -31 23
v -18 -30 24
v 26 -33 7
v 26 -33 0
v 29 -15 0
v 29 -15 12
v 6 -28 0
v 30 5 0
v 30 5 7
v 30 5 12
v 26 -27 21
v -25 5 12
v -24 2 23
v -25 5 36
v -13 16 38
v -6 7 38
v -4 9 49
v -6 -4 46
v -14 -17 45
v -28 -6 36
v -25 -5 9
v -26 9 49
v -14 19 49
v -16 15 55
v -4 4 54
v -15 -19 48
v -31 -4 48
v -32 -4 55
v -28 6 55
v -16 -19 53
v 24 -31 23
v 21 14 7
v 21 14 0
v 10 5 0

f 1 2 3
f 1 3 4
f 1 4 5
f 1 5 6
f 1 6 7
f 1 7 2
f 2 7 8
f 2 8 9
f 2 9 10
f 2 10 11
f 2 11 3
f 3 11 12
f 3 12 13
f 3 13 4
f 4 13 14
f 4 14 15
f 4 15 5
f 5 15 16
f 5 16 17
f 5 17 18
f 5 18 6
f 6 18 19
f 6 19 20
f 6 20 21
f 6 21 7
f 7 21 22
f 7 22 8
f 8 22 23
f 8 23 9
f 9 23 24
f 9 24 10
f 10 24 25
f 10 25 26
f 10 26 27
f 10 27 11
f 11 27 28
f 11 28 12
f 12 28 29
f 12 29 30
f 12 30 13
f 13 30 31
f 13 31 14
f 14 31 32
f 14 32 33
f 14 33 15
f 15 33 16
f 16 33 34
f 16 34 27
f 16 27 26
f 16 26 17
f 17 26 35
f 17 35 36
f 17 36 37
f 17 37 18
f 18 37 19
f 19 37 38
f 19 38 39
f 19 39 40
f 19 40 20
f 20 40 41
f 20 41 21
f 21 41 42
f 21 42 43
f 21 43 22
f 22 43 44
f 22 44 45
f 22 45 23
f 23 45 46
f 23 46 24
f 24 46 47
f 24 47 48
f 24 48 25
f 25 48 49
f 25 49 50
f 25 50 26
f 26 50 35
f 35 50 51
f 35 51 52
f 35 52 36
f 36 52 53
f 36 53 37
f 37 53 54
f 37 54 38
f 38 54 55
f 38 55 56
f 38 56 57
f 38 57 39
f 39 57 58
f 39 58 40
f 40 58 59
f 40 59 41
f 41 59 60
f 41 60 42
f 42 60 61
f 42 61 55
f 42 55 43
f 43 55 54
f 43 54 62
f 43 62 44
f 44 62 63
f 44 63 64
f 44 64 45
f 45 64 65
f 45 65 46
f 46 65 47
f 47 65 66
f 47 66 67
f 47 67 68
f 47 68 69
f 47 69 70
f 47 70 48
f 48 70 71
f 48 71 49
f 49 71 72
f 49 72 73
f 49 73 50
f 50 73 51
f 51 73 74
f 51 74 52
f 52 74 75
f 52 75 76
f 52 76 53
f 53 76 62
f 53 62 54
f 27 34 28
f 28 34 77
f 28 77 29
f 29 77 78
f 29 78 79
f 29 79 30
f 30 79 80
f 30 80 31
f 31 80 81
f 31 81 32
f 32 81 82
f 32 82 83
f 32 83 33
f 33 83 34
f 34 83 77
f 77 83 84
f 77 84 78
f 78 84 85
f 78 85 86
f 78 86 79
f 79 86 87
f 79 87 80
f 80 87 88
f 80 88 81
f 81 88 89
f 81 89 82
f 82 89 90
f 82 90 84
f 82 84 83
f 55 61 56
f 56 61 91
f 56 91 92
f 56 92 57
f 57 92 93
f 57 93 58
f 58 93 94
f 58 94 59
f 59 94 95
f 59 95 60
f 60 95 96
f 60 96 61
f 61 96 91
f 91 96 97
f 91 97 98
f 91 98 92
f 92 98 99
f 92 99 93
f 93 99 100
f 93 100 94
f 94 100 101
f 94 101 95
f 95 101 102
f 95 102 96
f 96 102 97
f 97 102 103
f 97 103 104
f 97 104 98
f 98 104 105
f 98 105 99
f 99 105 106
f 99 106 100
f 100 106 107
f 100 107 101
f 101 107 108
f 101 108 102
f 102 108 103
f 103 108 109
f 103 109 110
f 103 110 104
f 104 110 105
f 105 110 111
f 105 111 106
f 106 111 112
f 106 112 107
f 107 112 113
f 107 113 108
f 108 113 109
f 109 113 114
f 109 114 115
f 109 115 110
f 110 115 116
f 110 116 117
f 110 117 111
f 111 117 118
f 111 118 112
f 112 118 119
f 112 119 113
f 113 119 114
f 114 119 120
f 114 120 121
f 114 121 115
f 115 121 116
f 116 121 122
f 116 122 123
f 116 123 117
f 117 123 124
f 117 124 118
f 118 124 125
f 118 125 119
f 119 125 126
f 119 126 120
f 120 126 127
f 120 127 128
f 120 128 122
f 120 122 121
f 129 130 131
f 129 131 132
f 129 132 133
f 129 133 134
f 129 134 135
f 129 135 130
f 130 135 136
f 130 136 131
f 131 136 137
f 131 137 132
f 132 137 138
f 132 138 133
f 133 138 134
f 134 138 139
f 134 139 140
f 134 140 141
f 134 141 142
f 134 142 135
f 135 142 143
f 135 143 136
f 136 143 144
f 136 144 145
f 136 145 146
f 136 146 147
f 136 147 137
f 137 147 148
f 137 148 149
f 137 149 138
f 138 149 150
f 138 150 139
f 139 150 151
f 139 151 152
f 139 152 140
f 140 152 153
f 140 153 154
f 140 154 155
f 140 155 156
f 140 156 157
f 140 157 141
f 141 157 142
f 142 157 143
f 143 157 158
f 143 158 144
f 144 158 145
f 145 158 156
f 145 156 159
f 145 159 160
f 145 160 161
f 145 161 162
f 145 162 146
f 146 162 163
f 146 163 164
f 146 164 165
f 146 165 166
f 146 166 147
f 147 166 167
f 147 167 148
f 148 167 168
f 148 168 149
f 149 168 169
f 149 169 170
f 149 170 171
f 149 171 150
f 150 171 172
f 150 172 173
f 150 173 151
f 151 173 174
f 151 174 175
f 151 175 176
f 151 176 152
f 152 176 177
f 152 177 153
f 153 177 178
f 153 178 179
f 153 179 180
f 153 180 181
f 153 181 182
f 153 182 154
f 154 182 159
f 154 159 155
f 155 159 156
f 183 184 185
f 183 185 180
f 183 180 179
f 183 179 178
f 183 178 186
f 183 186 184
f 184 186 161
f 184 161 185
f 185 161 181
f 185 181 180
f 169 187 170
f 170 187 188
f 170 188 186
f 170 186 189
f 170 189 190
f 170 190 171
f 171 190 172
f 172 190 191
f 172 191 192
f 172 192 193
f 172 193 173
f 173 193 194
f 173 194 174
f 174 194 195
f 174 195 196
f 174 196 175
f 175 196 197
f 175 197 198
f 175 198 176
f 176 198 177
f 177 198 178
f 178 198 189
f 178 189 186
f 187 199 188
f 188 199 162
f 188 162 161
f 188 161 186
f 199 163 162
f 163 199 200
f 163 200 201
f 163 201 202
f 163 202 164
f 164 202 203
f 164 203 165
f 165 203 204
f 165 204 205
f 165 205 206
f 165 206 166
f 166 206 167
f 167 206 207
f 167 207 208
f 167 208 168
f 168 208 209
f 168 209 210
f 168 210 169
f 169 210 72
f 169 72 71
f 169 71 187
f 187 71 211
f 187 211 199
f 199 211 212
f 199 212 213
f 199 213 200
f 200 213 214
f 200 214 201
f 201 214 215
f 201 215 216
f 201 216 202
f 202 216 217
f 202 217 218
f 202 218 203
f 203 218 219
f 203 219 204
f 204 219 220
f 204 220 205
f 205 220 221
f 205 221 222
f 205 222 206
f 206 222 223
f 206 223 224
f 206 224 207
f 207 224 225
f 207 225 208
f 208 225 209
f 209 225 226
f 209 226 210
f 210 226 75
f 210 75 74
f 210 74 73
f 210 73 72
f 227 228 229
f 227 229 230
f 227 230 231
f 227 231 232
f 227 232 233
f 227 233 234
f 227 234 228
f 228 234 235
f 228 235 236
f 228 236 237
f 228 237 238
f 228 238 239
f 228 239 229
f 229 239 240
f 229 240 230
f 230 240 241
f 230 241 242
f 230 242 216
f 230 216 231
f 231 216 243
f 231 243 244
f 231 244 232
f 232 244 245
f 232 245 233
f 233 245 246
f 233 246 247
f 233 247 248
f 233 248 249
f 233 249 234
f 234 249 250
f 234 250 235
f 235 250 251
f 235 251 252
f 235 252 236
f 236 252 253
f 236 253 237
f 237 253 254
f 237 254 255
f 237 255 238
f 238 255 256
f 238 256 239
f 239 256 257
f 239 257 258
f 239 258 240
f 240 258 259
f 240 259 241
f 241 259 260
f 241 260 261
f 241 261 262
f 241 262 242
f 242 262 263
f 242 263 264
f 242 264 265
f 242 265 266
f 242 266 267
f 242 267 216
f 216 267 217
f 217 267 268
f 217 268 269
f 217 269 270
f 217 270 271
f 217 271 272
f 217 272 218
f 218 272 273
f 218 273 274
f 218 274 219
f 219 274 220
f 220 274 275
f 220 275 221
f 221 275 276
f 221 276 257
f 221 257 222
f 222 257 256
f 222 256 277
f 222 277 278
f 222 278 223
f 222 223 279
f 280 281 248
f 280 248 282
f 280 282 283
f 280 283 284
f 280 284 285
f 280 285 286
f 280 286 281
f 281 286 287
f 281 287 288
f 281 288 289
f 281 289 290
f 281 290 249
f 281 249 248
f 285 254 286
f 286 254 253
f 286 253 291
f 286 291 292
f 286 292 287
f 287 292 293
f 287 293 288
f 288 293 294
f 288 294 295
f 288 295 289
f 289 295 296
f 289 296 290
f 290 296 297
f 290 297 298
f 290 298 299
f 290 299 250
f 290 250 249
f 255 254 285
f 255 285 300
f 255 300 301
f 255 301 256
f 256 301 302
f 256 302 277
f 277 302 303
f 277 303 304
f 277 304 305
f 277 305 278
f 278 305 223
f 223 305 226
f 223 226 225
f 223 225 224
f 306 307 308
f 306 308 309
f 306 309 310
f 306 310 311
f 306 311 307
f 307 311 312
f 307 312 313
f 307 313 308
f 308 313 314
f 308 314 315
f 308 315 316
f 308 316 317
f 308 317 318
f 308 318 319
f 308 319 309
f 309 319 320
f 309 320 321
f 309 321 310
f 310 321 312
f 310 312 322
f 310 322 311
f 311 322 312
f 321 264 263
f 321 263 312
f 312 263 262
f 312 262 323
f 312 323 324
f 312 324 313
f 313 324 325
f 313 325 314
f 314 325 315
f 315 325 326
f 315 326 327
f 315 327 316
f 316 327 328
f 316 328 317
f 317 328 329
f 317 329 318
f 318 329 330
f 318 330 331
f 318 331 319
f 319 331 332
f 319 332 333
f 319 333 334
f 319 334 335
f 319 335 320
f 320 335 336
f 320 336 321
f 321 336 264
f 264 336 337
f 264 337 338
f 264 338 265
f 265 338 339
f 265 339 340
f 265 340 341
f 265 341 342
f 265 342 266
f 266 342 343
f 266 343 344
f 266 344 345
f 266 345 346
f 266 346 268
f 266 268 267
f 341 347 345
f 341 345 348
f 341 348 342
f 342 348 343
f 343 348 349
f 343 349 350
f 343 350 344
f 344 350 351
f 344 351 348
f 344 348 345
f 341 340 347
f 347 340 352
f 347 352 346
f 347 346 345
f 353 324 354
f 353 354 355
f 353 355 356
f 353 356 357
f 353 357 358
f 353 358 326
f 353 326 325
f 353 325 324
f 359 354 324
f 359 324 323
f 359 323 360
f 359 360 361
f 359 361 354
f 354 361 362
f 354 362 355
f 355 362 363
f 355 363 364
f 355 364 365
f 355 365 356
f 356 365 366
f 356 366 367
f 356 367 368
f 356 368 369
f 356 369 357
f 357 369 370
f 357 370 371
f 357 371 372
f 357 372 358
f 358 372 373
f 358 373 374
f 358 374 326
f 326 374 375
f 326 375 327
f 327 375 272
f 327 272 271
f 327 271 330
f 327 330 329
f 327 329 376
f 327 376 328
f 328 376 329
f 323 377 360
f 360 377 378
f 360 378 379
f 360 379 361
f 361 379 380
f 361 380 362
f 362 380 381
f 362 381 363
f 363 381 382
f 363 382 383
f 363 383 384
f 363 384 385
f 363 385 364
f 364 385 386
f 364 386 370
f 364 370 365
f 365 370 369
f 365 369 387
f 387 369 368
f 387 368 388
f 388 368 389
f 388 389 385
f 388 385 390
f 388 390 391
f 388 391 366
f 366 391 367
f 367 391 392
f 367 392 393
f 367 393 368
f 368 393 389
f 389 393 394
f 389 394 386
f 389 386 385
f 377 260 378
f 378 260 395
f 378 395 379
f 379 395 396
f 379 396 397
f 379 397 380
f 380 397 398
f 380 398 381
f 381 398 399
f 381 399 382
f 382 399 400
f 382 400 401
f 382 401 383
f 383 401 402
f 383 402 384
f 384 402 403
f 384 403 390
f 384 390 385
f 275 404 395
f 275 395 260
f 275 260 276
f 276 260 259
f 276 259 258
f 276 258 257
f 262 405 323
f 323 405 406
f 323 406 377
f 377 406 261
f 377 261 260
f 262 407 405
f 405 407 408
f 405 408 409
f 405 409 406
f 406 409 410
f 406 410 261
f 261 410 407
f 261 407 262
f 407 410 408
f 408 410 409
f 411 336 335
f 411 335 334
f 411 334 412
f 411 412 413
f 411 413 336
f 336 413 412
f 336 412 332
f 336 332 331
f 336 331 330
f 336 330 270
f 336 270 337
f 337 270 414
f 337 414 415
f 337 415 338
f 338 415 339
f 339 415 414
f 339 414 269
f 339 269 340
f 340 269 352
f 352 269 416
f 352 416 417
f 352 417 346
f 346 417 418
f 346 418 268
f 268 418 419
f 268 419 416
f 268 416 269
f 330 271 270
f 375 420 421
f 375 421 422
f 375 422 423
f 375 423 272
f 272 423 424
f 272 424 273
f 273 424 425
f 273 425 422
f 273 422 421
f 273 421 274
f 274 421 426
f 274 426 427
f 274 427 275
f 275 427 404
f 404 427 396
f 404 396 395
f 396 404 428
f 396 428 397
f 397 428 429
f 397 429 398
f 398 429 430
f 398 430 399
f 399 430 400
f 400 430 431
f 400 431 432
f 400 432 401
f 401 432 371
f 401 371 402
f 402 371 403
f 403 371 386
f 403 386 394
f 403 394 390
f 390 394 391
f 391 394 393
f 391 393 392
f 421 420 426
f 426 420 433
f 426 433 427
f 427 433 396
f 396 433 434
f 396 434 428
f 396 428 404
f 423 435 424
f 424 435 425
f 425 435 436
f 425 436 422
f 422 436 423
f 423 436 435
f 332 412 333
f 333 412 334
f 375 374 420
f 420 374 373
f 420 373 433
f 433 373 437
f 433 437 434
f 434 437 431
f 434 431 429
f 434 429 428
f 438 439 440
f 438 440 441
f 438 441 442
f 438 442 443
f 438 443 444
f 438 444 445
f 438 445 446
f 438 446 439
f 439 446 447
f 439 447 448
f 439 448 440
f 440 448 449
f 440 449 441
f 441 449 450
f 441 450 451
f 441 451 452
f 441 452 442
f 442 452 453
f 442 453 443
f 443 453 195
f 443 195 194
f 443 194 444
f 444 194 193
f 444 193 454
f 444 454 445
f 445 454 455
f 445 455 456
f 445 456 446
f 446 456 457
f 446 457 447
f 447 457 458
f 447 458 448
f 448 458 459
f 448 459 449
f 449 459 460
f 449 460 450
f 450 460 461
f 450 461 462
f 450 462 451
f 451 462 456
f 451 456 455
f 451 455 452
f 452 455 463
f 452 463 453
f 453 463 196
f 453 196 195
f 456 462 457
f 457 462 461
f 457 461 464
f 457 464 458
f 458 464 465
f 458 465 459
f 459 465 466
f 459 466 460
f 460 466 467
f 460 467 468
f 460 468 461
f 461 468 469
f 461 469 470
f 461 470 464
f 464 470 471
f 464 471 472
f 464 472 465
f 216 215 473
f 216 473 243
f 243 473 474
f 243 474 244
f 244 474 245
f 245 474 475
f 245 475 246
f 246 475 67
f 246 67 476
f 246 476 247
f 247 476 66
f 247 66 282
f 247 282 248
f 473 215 477
f 473 477 478
f 473 478 474
f 474 478 479
f 474 479 475
f 475 479 67
f 67 479 68
f 68 479 69
f 69 479 480
f 69 480 212
f 69 212 481
f 69 481 70
f 70 481 211
f 70 211 71
f 478 477 479
f 479 477 480
f 480 477 213
f 480 213 212
f 213 477 214
f 214 477 215
f 211 481 212
f 226 305 75
f 75 305 304
f 75 304 284
f 75 284 482
f 75 482 76
f 76 482 62
f 62 482 63
f 63 482 284
f 63 284 283
f 63 283 64
f 64 283 282
f 64 282 65
f 65 282 66
f 284 483 285
f 285 483 300
f 300 483 303
f 300 303 301
f 301 303 302
f 66 476 67
f 304 483 284
f 483 304 303
f 189 198 484
f 189 484 190
f 190 484 191
f 191 484 197
f 191 197 192
f 192 197 196
f 192 196 463
f 192 463 454
f 192 454 193
f 454 463 455
f 197 484 198
f 485 486 487
f 485 487 296
f 485 296 488
f 485 488 489
f 485 489 486
f 486 489 490
f 486 490 491
f 486 491 298
f 486 298 487
f 487 298 297
f 487 297 296
f 489 492 292
f 489 292 490
f 490 292 291
f 490 291 493
f 490 493 491
f 491 493 251
f 491 251 299
f 491 299 298
f 292 492 293
f 293 492 494
f 293 494 495
f 293 495 294
f 294 495 496
f 294 496 295
f 295 496 296
f 296 496 488
f 488 496 497
f 488 497 498
f 488 498 489
f 489 498 492
f 492 498 499
f 492 499 494
f 494 499 500
f 494 500 501
f 494 501 495
f 495 501 502
f 495 502 497
f 495 497 496
f 498 497 503
f 498 503 499
f 499 503 504
f 499 504 500
f 500 504 505
f 500 505 506
f 500 506 501
f 501 506 507
f 501 507 502
f 502 507 508
f 502 508 509
f 502 509 497
f 497 509 503
f 503 509 504
f 504 509 510
f 504 510 505
f 505 510 511
f 505 511 512
f 505 512 506
f 506 512 513
f 506 513 514
f 506 514 507
f 507 514 515
f 507 515 508
f 508 515 511
f 508 511 510
f 508 510 509
f 299 251 250
f 252 291 253
f 291 252 493
f 493 252 251
f 512 516 513
f 513 516 517
f 513 517 514
f 514 517 515
f 515 517 518
f 515 518 519
f 515 519 520
f 515 520 511
f 511 520 521
f 511 521 522
f 511 522 512
f 512 522 523
f 512 523 516
f 516 523 524
f 516 524 525
f 516 525 517
f 517 525 518
f 518 525 526
f 518 526 519
f 519 526 527
f 519 527 528
f 519 528 520
f 520 528 529
f 520 529 521
f 521 529 522
f 522 529 530
f 522 530 523
f 523 530 531
f 523 531 532
f 523 532 524
f 524 532 525
f 525 532 533
f 525 533 526
f 526 533 527
f 527 533 534
f 527 534 528
f 528 534 529
f 529 534 531
f 529 531 530
f 534 533 532
f 534 532 531
f 535 536 471
f 535 471 470
f 535 470 537
f 535 537 538
f 535 538 536
f 536 538 539
f 536 539 540
f 536 540 471
f 471 540 472
f 539 538 541
f 539 541 542
f 539 542 543
f 539 543 540
f 466 544 467
f 467 544 542
f 467 542 541
f 467 541 468
f 543 542 544
f 543 544 466
f 543 466 465
f 470 469 537
f 537 541 538
f 348 351 349
f 349 351 545
f 349 545 350
f 350 545 351
f 437 432 431
f 432 437 372
f 432 372 371
f 386 371 370
f 431 430 429
f 161 160 546
f 161 546 181
f 181 546 182
f 182 546 160
f 182 160 159
f 156 158 157
f 373 372 437
f 418 547 419
f 419 547 548
f 419 548 417
f 419 417 416
f 418 549 547
f 547 549 550
f 547 550 548
f 548 550 549
f 548 549 417
f 417 549 418
f 414 270 269
f 551 552 553
f 551 553 128
f 551 128 554
f 551 554 555
f 551 555 552
f 552 555 554
f 552 554 556
f 552 556 557
f 552 557 553
f 553 557 558
f 553 558 559
f 553 559 560
f 553 560 128
f 128 560 122
f 122 560 561
f 122 561 123
f 123 561 562
f 123 562 124
f 124 562 125
f 125 562 563
f 125 563 126
f 126 563 127
f 127 563 564
f 127 564 565
f 127 565 566
f 127 566 128
f 128 566 567
f 128 567 554
f 554 567 556
f 556 567 568
f 556 568 569
f 556 569 570
f 556 570 557
f 557 570 571
f 557 571 572
f 557 572 559
f 557 559 558
f 573 574 575
f 573 575 576
f 573 576 577
f 573 577 578
f 573 578 579
f 573 579 574
f 574 579 575
f 575 579 580
f 575 580 581
f 575 581 582
f 575 582 583
f 575 583 576
f 576 583 584
f 576 584 585
f 576 585 586
f 576 586 577
f 577 586 587
f 577 587 588
f 577 588 578
f 578 588 580
f 578 580 579
f 589 590 588
f 589 588 587
f 589 587 591
f 589 591 592
f 589 592 593
f 589 593 590
f 590 593 592
f 590 592 594
f 590 594 595
f 590 595 588
f 588 595 580
f 580 595 596
f 580 596 581
f 581 596 597
f 581 597 598
f 581 598 582
f 582 598 599
f 582 599 583
f 583 599 600
f 583 600 601
f 583 601 584
f 584 601 602
f 584 602 603
f 584 603 604
f 584 604 605
f 584 605 606
f 584 606 585
f 585 606 607
f 585 607 586
f 586 607 606
f 586 606 587
f 587 606 605
f 587 605 608
f 587 608 591
f 591 608 605
f 591 605 604
f 591 604 594
f 591 594 592
f 609 610 611
f 609 611 612
f 609 612 570
f 609 570 569
f 609 569 613
f 609 613 610
f 610 613 611
f 611 613 568
f 611 568 614
f 611 614 615
f 611 615 616
f 611 616 612
f 612 616 561
f 612 561 617
f 612 617 571
f 612 571 570
f 569 568 613
f 598 597 596
f 598 596 618
f 598 618 599
f 599 618 619
f 599 619 600
f 600 619 620
f 600 620 621
f 600 621 601
f 601 621 622
f 601 622 602
f 602 622 623
f 602 623 624
f 602 624 603
f 603 624 625
f 603 625 626
f 603 626 594
f 603 594 604
f 595 627 596
f 596 627 618
f 618 627 619
f 619 627 594
f 619 594 626
f 619 626 620
f 620 626 628
f 620 628 621
f 621 628 629
f 621 629 622
f 622 629 623
f 623 629 630
f 623 630 631
f 623 631 624
f 624 631 632
f 624 632 625
f 625 632 633
f 625 633 626
f 626 633 628
f 628 633 634
f 628 634 635
f 628 635 629
f 629 635 630
f 630 635 87
f 630 87 86
f 630 86 631
f 631 86 85
f 631 85 90
f 631 90 636
f 631 636 632
f 632 636 633
f 633 636 634
f 634 636 89
f 634 89 88
f 634 88 635
f 635 88 87
f 627 595 594
f 571 617 637
f 571 637 572
f 572 637 617
f 572 617 561
f 572 561 559
f 559 561 560
f 638 614 639
f 638 639 640
f 638 640 565
f 638 565 564
f 638 564 615
f 638 615 614
f 567 566 640
f 567 640 568
f 568 640 614
f 614 640 639
f 564 616 615
f 616 564 563
f 616 563 562
f 616 562 561
f 566 565 640
f 84 90 85
f 90 89 636
