# RS2 Model 27805
# Vertices: 58
# Faces: 98

v 65 -10 106
v 63 -14 103
v 72 -16 95
v 76 -12 95
v 63 -5 103
v 72 -9 95
v 62 -5 100
v 61 -8 98
v 69 -12 94
v 61 -12 98
v 69 -14 94
v 62 -14 101
v -63 -14 103
v -72 -16 95
v -62 -14 101
v -61 -12 98
v -69 -14 94
v -61 -8 98
v -69 -12 94
v -62 -5 100
v -72 -9 95
v -63 -5 103
v -73 -9 97
v -65 -10 106
v -77 -12 97
v -73 -16 97
v -76 -12 95
v -79 -13 89
v -75 -18 88
v -71 -16 87
v -71 -13 88
v -75 -9 89
v -64 -10 104
v 75 -18 88
v 79 -13 89
v 75 -9 89
v 71 -13 88
v 71 -16 87
v 73 -15 80
v 75 -17 80
v 75 -13 89
v 77 -9 84
v 77 -19 83
v 81 -14 83
v 75 -15 80
v 79 -12 77
v 81 -16 76
v 79 -19 78
v -77 -9 84
v -81 -14 83
v -77 -19 83
v -75 -13 89
v -75 -15 80
v -75 -17 80
v -73 -15 80
v -79 -19 78
v -79 -12 77
v -81 -16 76

f 1 2 3
f 1 3 4
f 1 4 5
f 5 4 6
f 5 6 7
f 7 6 8
f 8 6 9
f 8 9 10
f 10 9 11
f 10 11 12
f 12 11 3
f 12 3 2
f 13 14 15
f 15 14 16
f 16 14 17
f 16 17 18
f 18 17 19
f 18 19 20
f 20 19 21
f 20 21 22
f 22 21 23
f 22 23 24
f 24 23 25
f 24 25 13
f 13 25 26
f 13 26 14
f 14 26 27
f 14 27 28
f 14 28 29
f 14 29 17
f 17 29 30
f 17 30 19
f 19 30 31
f 19 31 21
f 21 31 32
f 21 32 27
f 21 27 25
f 21 25 23
f 21 23 33
f 33 23 24
f 4 3 34
f 4 34 35
f 4 35 6
f 6 35 36
f 6 36 9
f 9 36 37
f 9 37 11
f 11 37 38
f 11 38 3
f 3 38 34
f 34 38 39
f 34 39 40
f 34 40 41
f 34 41 42
f 34 42 43
f 34 43 35
f 35 43 44
f 35 44 36
f 36 44 42
f 36 42 41
f 36 41 37
f 37 41 45
f 37 45 39
f 37 39 38
f 46 47 48
f 46 48 43
f 46 43 42
f 46 42 47
f 47 42 44
f 47 44 48
f 48 44 43
f 41 40 45
f 45 40 39
f 27 32 28
f 28 32 49
f 28 49 50
f 28 50 29
f 29 50 51
f 29 51 52
f 29 52 53
f 29 53 54
f 29 54 30
f 30 54 55
f 30 55 31
f 31 55 52
f 31 52 32
f 32 52 49
f 49 52 51
f 49 51 56
f 49 56 57
f 49 57 50
f 50 57 58
f 50 58 51
f 51 58 56
f 56 58 57
f 52 55 53
f 53 55 54
f 26 25 27
