# RS2 Model 2841
# Vertices: 53
# Faces: 98

v -5 -22 0
v -5 -20 0
v 0 -20 0
v 0 -22 0
v -5 -34 0
v -6 -20 3
v -5 -20 3
v 0 -20 3
v 1 -20 3
v 0 -34 0
v 0 -36 0
v -5 -36 0
v -7 -36 3
v -5 -22 6
v -5 -20 6
v 0 -20 6
v 0 -22 6
v 2 -36 3
v 1 -38 3
v -6 -38 3
v -5 -36 6
v -5 -34 6
v 0 -34 6
v 0 -36 6
v -8 -11 2
v -2 -11 2
v -1 -20 2
v -4 -20 2
v -10 -11 3
v -12 4 2
v -4 5 2
v -1 6 3
v 0 -11 3
v -1 -20 4
v -2 -11 4
v -4 -20 4
v -8 -11 4
v -6 22 2
v 0 21 2
v -14 3 3
v -8 23 3
v 0 32 3
v 1 31 2
v 6 30 2
v 7 30 3
v 2 21 3
v -4 5 4
v 13 36 3
v 1 31 4
v 6 30 4
v -12 4 4
v -6 22 4
v 0 21 4

f 1 2 3
f 1 3 4
f 1 4 5
f 1 5 6
f 1 6 2
f 2 6 7
f 2 7 8
f 2 8 3
f 3 8 4
f 4 8 9
f 4 9 10
f 4 10 5
f 5 10 11
f 5 11 12
f 5 12 13
f 5 13 6
f 6 13 14
f 6 14 15
f 6 15 7
f 7 15 8
f 8 15 16
f 8 16 9
f 9 16 17
f 9 17 18
f 9 18 10
f 10 18 11
f 11 18 19
f 11 19 12
f 12 19 20
f 12 20 13
f 13 20 21
f 13 21 22
f 13 22 14
f 14 22 23
f 14 23 17
f 14 17 16
f 14 16 15
f 22 21 24
f 22 24 23
f 23 24 19
f 23 19 18
f 23 18 17
f 21 20 19
f 21 19 24
f 25 26 27
f 25 27 28
f 25 28 29
f 25 29 30
f 25 30 26
f 26 30 31
f 26 31 32
f 26 32 33
f 26 33 27
f 27 33 8
f 8 33 34
f 34 33 35
f 34 35 36
f 36 35 37
f 36 37 29
f 36 29 7
f 7 29 28
f 38 39 31
f 38 31 30
f 38 30 40
f 38 40 41
f 38 41 42
f 38 42 43
f 38 43 39
f 39 43 44
f 39 44 45
f 39 45 46
f 39 46 31
f 31 46 32
f 32 46 47
f 32 47 35
f 32 35 33
f 48 44 43
f 48 43 42
f 48 42 49
f 48 49 50
f 48 50 45
f 48 45 44
f 40 30 29
f 40 29 51
f 40 51 52
f 40 52 41
f 41 52 42
f 42 52 49
f 49 52 50
f 50 52 53
f 50 53 45
f 45 53 46
f 46 53 47
f 47 53 51
f 47 51 37
f 47 37 35
f 51 53 52
f 29 37 51
