# RS2 Model 28838
# Vertices: 70
# Faces: 124

v -9 -4 157
v -13 3 162
v -14 -3 155
v -7 -11 151
v -3 -8 155
v -2 -7 155
v -8 -4 157
v 0 -6 156
v 0 -2 161
v -6 3 164
v 0 11 163
v -15 12 158
v 0 14 158
v 0 15 147
v -8 13 147
v -15 4 149
v -8 14 146
v -7 9 135
v -11 2 136
v -14 -8 146
v -13 -6 147
v -10 -13 147
v 0 -11 151
v 2 -7 155
v 0 -13 148
v 10 -13 147
v 7 -11 151
v 3 -8 155
v 9 -4 157
v 8 -4 157
v 13 3 162
v 6 3 164
v 15 12 158
v 8 13 147
v 8 14 146
v 0 16 146
v 0 12 135
v -8 7 126
v -10 0 126
v -7 -8 135
v -11 -7 138
v -10 -14 146
v 14 -3 155
v 13 -6 147
v 15 4 149
v 14 -8 146
v 11 2 136
v 7 9 135
v 0 -9 136
v -8 -5 126
v 0 -8 126
v 8 -5 126
v 7 -8 135
v 8 -12 139
v 0 -11 139
v -8 -12 139
v 0 -14 147
v -10 -6 120
v 0 -9 120
v 10 -6 120
v 10 0 126
v 11 -7 138
v 10 -14 146
v 0 9 126
v -10 6 120
v -11 1 120
v 0 8 120
v 10 6 120
v 8 7 126
v 11 1 120

f 1 2 3
f 1 3 4
f 1 4 5
f 1 5 6
f 1 6 7
f 1 7 2
f 2 7 8
f 2 8 9
f 2 9 10
f 2 10 11
f 2 11 12
f 12 11 13
f 12 13 14
f 12 14 15
f 12 15 16
f 16 15 17
f 16 17 18
f 16 18 19
f 16 19 20
f 16 20 21
f 16 21 3
f 3 21 22
f 3 22 4
f 4 22 23
f 4 23 5
f 5 23 6
f 6 23 24
f 6 24 8
f 6 8 7
f 23 22 25
f 23 25 26
f 23 26 27
f 23 27 28
f 23 28 24
f 24 28 29
f 24 29 30
f 24 30 8
f 8 30 31
f 8 31 9
f 9 31 32
f 32 31 11
f 11 31 33
f 11 33 13
f 13 33 14
f 14 33 34
f 14 34 35
f 14 35 36
f 14 36 15
f 15 36 17
f 17 36 37
f 17 37 18
f 18 37 38
f 18 38 19
f 19 38 39
f 19 39 40
f 19 40 41
f 19 41 20
f 20 41 42
f 20 42 22
f 20 22 21
f 29 43 31
f 29 31 30
f 29 27 43
f 43 27 26
f 43 26 44
f 43 44 45
f 45 44 46
f 45 46 47
f 45 47 48
f 45 48 35
f 45 35 34
f 45 34 33
f 28 27 29
f 49 40 50
f 49 50 51
f 49 51 52
f 49 52 53
f 49 53 54
f 49 54 55
f 49 55 56
f 49 56 40
f 40 56 41
f 41 56 42
f 42 56 57
f 42 57 25
f 42 25 22
f 40 39 50
f 50 39 58
f 50 58 59
f 50 59 51
f 51 59 52
f 52 59 60
f 52 60 61
f 52 61 53
f 53 61 47
f 53 47 62
f 53 62 54
f 54 62 63
f 54 63 57
f 54 57 55
f 55 57 56
f 38 37 64
f 38 64 65
f 38 65 66
f 38 66 39
f 39 66 58
f 64 67 65
f 67 64 68
f 68 64 69
f 68 69 70
f 70 69 61
f 70 61 60
f 69 47 61
f 47 69 48
f 48 69 37
f 48 37 35
f 35 37 36
f 69 64 37
f 46 62 47
f 62 46 63
f 63 46 44
f 63 44 26
f 63 26 57
f 57 26 25
