# RS2 Model 28846
# Vertices: 58
# Faces: 104

v 15 0 23
v 11 7 12
v 10 6 23
v 6 0 13
v 6 0 22
v 11 -5 13
v 10 -4 23
v 16 0 13
v 12 8 4
v 6 0 4
v 5 -14 8
v 15 -18 10
v 19 -12 9
v 18 0 4
v 19 1 4
v 12 10 4
v 5 1 4
v 5 -15 4
v 14 -20 4
v 20 -13 4
v 21 -13 4
v 21 -13 0
v 19 1 0
v 12 10 0
v 5 1 0
v 4 -16 4
v 14 -21 4
v 14 -21 0
v 4 -16 0
v -15 0 23
v -10 6 23
v -11 7 12
v -16 0 13
v -11 -5 13
v -10 -4 23
v -6 0 22
v -6 0 13
v -12 8 4
v -18 0 4
v -19 -12 9
v -15 -18 10
v -5 -14 8
v -6 0 4
v -12 10 4
v -19 1 4
v -21 -13 4
v -20 -13 4
v -14 -20 4
v -5 -15 4
v -5 1 4
v -12 10 0
v -19 1 0
v -21 -13 0
v -14 -21 0
v -14 -21 4
v -4 -16 4
v -5 1 0
v -4 -16 0

f 1 2 3
f 3 2 4
f 3 4 5
f 5 4 6
f 5 6 7
f 7 6 1
f 1 6 8
f 1 8 2
f 2 8 9
f 2 9 4
f 4 9 10
f 4 10 11
f 4 11 6
f 6 11 12
f 6 12 13
f 6 13 8
f 8 13 14
f 8 14 9
f 9 14 15
f 9 15 16
f 9 16 10
f 10 16 17
f 10 17 18
f 10 18 11
f 11 18 19
f 11 19 12
f 12 19 20
f 12 20 13
f 13 20 14
f 14 20 21
f 14 21 15
f 15 21 22
f 15 22 23
f 15 23 16
f 16 23 24
f 16 24 17
f 17 24 25
f 17 25 26
f 17 26 18
f 18 26 19
f 19 26 27
f 19 27 20
f 20 27 21
f 21 27 28
f 21 28 22
f 22 28 23
f 23 28 25
f 23 25 24
f 25 28 29
f 25 29 26
f 26 29 27
f 27 29 28
f 30 31 32
f 30 32 33
f 30 33 34
f 30 34 35
f 35 34 36
f 36 34 37
f 36 37 31
f 31 37 32
f 32 37 38
f 32 38 33
f 33 38 39
f 33 39 40
f 33 40 34
f 34 40 41
f 34 41 42
f 34 42 37
f 37 42 43
f 37 43 38
f 38 43 44
f 38 44 45
f 38 45 39
f 39 45 46
f 39 46 47
f 39 47 40
f 40 47 41
f 41 47 48
f 41 48 42
f 42 48 49
f 42 49 43
f 43 49 50
f 43 50 44
f 44 50 51
f 44 51 52
f 44 52 45
f 45 52 53
f 45 53 46
f 46 53 54
f 46 54 55
f 46 55 47
f 47 55 48
f 48 55 56
f 48 56 49
f 49 56 50
f 50 56 57
f 50 57 51
f 51 57 52
f 52 57 54
f 52 54 53
f 57 58 54
f 54 58 55
f 55 58 56
f 56 58 57
