# RS2 Model 28868
# Vertices: 159
# Faces: 296

v 52 0 98
v 52 7 98
v 54 6 93
v 54 0 92
v 61 0 94
v 62 0 98
v 65 -10 98
v 49 -6 98
v 49 10 98
v 65 13 98
v 62 7 98
v 61 6 94
v 64 13 66
v 64 -10 66
v 64 -30 81
v 64 -30 124
v 65 -10 104
v 49 -6 104
v 49 9 104
v 65 13 104
v 64 34 124
v 64 33 80
v 65 39 75
v 65 14 59
v 65 -12 59
v 65 -37 77
v 64 -38 102
v 65 -46 102
v 65 -37 129
v 64 -10 138
v 61 7 104
v 61 0 104
v 52 0 104
v 52 7 104
v 54 9 110
v 57 6 110
v 58 0 110
v 55 -1 109
v 52 0 107
v 52 6 107
v 70 -37 102
v 70 -30 82
v 70 -30 124
v 71 -31 124
v 71 -39 102
v 71 -31 81
v 70 -10 67
v 70 -8 96
v 70 -10 102
v 70 -10 137
v 71 -10 139
v 70 -12 145
v 70 -37 129
v 70 -46 102
v 70 -37 77
v 71 -10 65
v 70 13 67
v 70 4 92
v 70 -1 92
v 75 1 96
v 75 -4 98
v 75 -6 102
v 70 -8 108
v 70 1 112
v 70 13 137
v 71 13 139
v 70 14 145
v 65 14 145
v 65 -12 145
v 70 -12 59
v 71 13 65
v 70 32 80
v 70 13 102
v 70 11 96
v 75 7 98
v 70 41 102
v 70 33 124
v 70 11 108
v 75 7 106
v 75 8 102
v 75 1 108
v 75 -4 106
v 71 35 125
v 70 40 129
v 65 40 129
v 64 13 138
v 64 41 102
v 65 49 102
v 70 49 102
v 70 39 75
v 70 14 59
v 71 34 80
v 71 42 102
v -52 6 107
v -52 0 107
v -53 0 99
v -53 7 102
v -55 9 103
v -54 9 108
v -59 9 103
v -57 6 110
v -61 7 103
v -58 0 110
v -61 0 103
v -59 -2 103
v -55 -1 109
v -55 -2 103
v -55 -2 99
v -57 0 94
v -57 6 95
v -55 9 99
v -56 28 100
v -56 28 102
v -58 28 102
v -59 9 99
v -61 6 98
v -61 0 98
v -59 -2 99
v -59 -9 99
v -59 -9 103
v -55 -9 103
v -55 -9 99
v -58 28 100
v -58 30 98
v -56 30 98
v -56 30 104
v -58 30 104
v -54 -10 89
v -60 -10 89
v -60 -10 113
v -54 -10 113
v -54 -11 113
v -54 -11 89
v -60 -11 89
v -60 -11 113
v -57 -12 105
v -56 -12 101
v -57 -12 97
v -58 -12 101
v -58 -56 101
v -57 -56 106
v -56 -56 101
v -57 -56 96
v -57 -97 97
v -58 -97 101
v -57 -97 105
v -56 -97 101
v -57 -120 101
v -58 32 104
v -58 32 98
v -56 32 98
v -56 32 104
v -56 34 102
v -58 34 102
v -58 34 100
v -56 34 100
v 72 10 111
v 71 -8 111
v 71 10 91

f 1 2 3
f 1 3 4
f 1 4 5
f 1 5 6
f 1 6 7
f 1 7 8
f 1 8 2
f 2 8 9
f 2 9 10
f 2 10 11
f 2 11 12
f 2 12 3
f 3 12 4
f 4 12 5
f 5 12 11
f 5 11 6
f 6 11 10
f 6 10 7
f 7 10 13
f 7 13 14
f 7 14 15
f 7 15 16
f 7 16 17
f 7 17 18
f 7 18 8
f 8 18 9
f 9 18 19
f 9 19 20
f 9 20 10
f 10 20 21
f 10 21 22
f 10 22 13
f 13 22 23
f 13 23 24
f 13 24 14
f 14 24 25
f 14 25 15
f 15 25 26
f 15 26 27
f 15 27 16
f 16 27 28
f 16 28 29
f 16 29 30
f 16 30 17
f 17 30 20
f 17 20 31
f 17 31 32
f 17 32 33
f 17 33 18
f 18 33 19
f 19 33 34
f 19 34 20
f 20 34 31
f 31 34 35
f 31 35 36
f 31 36 32
f 32 36 37
f 32 37 38
f 32 38 33
f 33 38 39
f 33 39 34
f 34 39 40
f 34 40 35
f 41 42 43
f 41 43 44
f 41 44 45
f 41 45 42
f 42 45 46
f 42 46 47
f 42 47 48
f 42 48 49
f 42 49 43
f 43 49 50
f 43 50 51
f 43 51 44
f 44 51 52
f 44 52 53
f 44 53 45
f 45 53 54
f 45 54 46
f 46 54 55
f 46 55 56
f 46 56 47
f 47 56 57
f 47 57 58
f 47 58 59
f 47 59 48
f 48 59 60
f 48 60 61
f 48 61 49
f 49 61 62
f 49 62 63
f 49 63 50
f 50 63 64
f 50 64 65
f 50 65 66
f 50 66 51
f 51 66 67
f 51 67 52
f 52 67 68
f 52 68 69
f 52 69 53
f 53 69 29
f 53 29 54
f 54 29 28
f 54 28 55
f 55 28 26
f 55 26 70
f 55 70 56
f 56 70 71
f 56 71 57
f 57 71 72
f 57 72 73
f 57 73 74
f 57 74 58
f 58 74 75
f 58 75 60
f 58 60 59
f 72 76 77
f 72 77 73
f 73 77 78
f 73 78 79
f 73 79 80
f 73 80 74
f 74 80 75
f 75 80 79
f 75 79 60
f 60 79 81
f 60 81 61
f 61 81 82
f 61 82 62
f 62 82 63
f 63 82 64
f 64 82 81
f 64 81 78
f 64 78 65
f 65 78 77
f 65 77 83
f 65 83 66
f 66 83 84
f 66 84 67
f 67 84 85
f 67 85 68
f 68 85 21
f 68 21 86
f 68 86 69
f 69 86 30
f 69 30 29
f 20 86 21
f 86 20 30
f 21 87 22
f 22 87 88
f 22 88 23
f 23 88 89
f 23 89 90
f 23 90 24
f 24 90 91
f 24 91 25
f 25 91 70
f 25 70 26
f 76 72 92
f 76 92 93
f 76 93 77
f 77 93 83
f 83 93 89
f 83 89 84
f 84 89 88
f 84 88 85
f 85 88 87
f 85 87 21
f 72 71 92
f 92 71 91
f 92 91 90
f 92 90 93
f 93 90 89
f 27 26 28
f 71 70 91
f 78 81 79
f 94 95 96
f 94 96 97
f 94 97 98
f 94 98 99
f 99 98 100
f 99 100 101
f 101 100 102
f 101 102 103
f 103 102 104
f 103 104 105
f 103 105 106
f 106 105 107
f 106 107 95
f 95 107 108
f 95 108 96
f 96 108 109
f 96 109 97
f 97 109 110
f 97 110 111
f 97 111 98
f 98 111 112
f 98 112 113
f 98 113 100
f 100 113 114
f 100 114 115
f 100 115 102
f 102 115 116
f 102 116 104
f 104 116 117
f 104 117 118
f 104 118 105
f 105 118 119
f 105 119 120
f 105 120 107
f 107 120 121
f 107 121 108
f 108 121 122
f 108 122 118
f 108 118 109
f 109 118 117
f 109 117 110
f 110 117 116
f 110 116 115
f 110 115 111
f 111 115 123
f 111 123 112
f 112 123 124
f 112 124 125
f 112 125 113
f 113 125 126
f 113 126 114
f 114 126 127
f 114 127 123
f 114 123 115
f 118 122 119
f 119 122 128
f 119 128 129
f 119 129 120
f 120 129 130
f 120 130 121
f 121 130 131
f 121 131 122
f 122 131 128
f 128 131 132
f 128 132 133
f 128 133 129
f 129 133 134
f 129 134 130
f 130 134 135
f 130 135 131
f 131 135 132
f 132 135 136
f 132 136 137
f 132 137 133
f 133 137 138
f 133 138 134
f 134 138 139
f 134 139 135
f 135 139 136
f 136 139 140
f 136 140 141
f 136 141 137
f 137 141 142
f 137 142 138
f 138 142 143
f 138 143 139
f 139 143 140
f 140 143 144
f 140 144 145
f 140 145 141
f 141 145 146
f 141 146 142
f 142 146 147
f 142 147 143
f 143 147 144
f 144 147 148
f 144 148 145
f 145 148 146
f 146 148 147
f 123 127 124
f 124 127 149
f 124 149 150
f 124 150 125
f 125 150 151
f 125 151 126
f 126 151 152
f 126 152 127
f 127 152 149
f 149 152 153
f 149 153 154
f 149 154 150
f 150 154 155
f 150 155 151
f 151 155 156
f 151 156 152
f 152 156 153
f 153 156 154
f 154 156 155
