# RS2 Model 2905
# Vertices: 132
# Faces: 191

v 12 -5 119
v 12 -3 120
v 12 -1 124
v 12 1 130
v 12 -5 125
v 12 -6 121
v 6 -8 132
v 0 -6 133
v 0 -8 132
v -6 -8 132
v -4 4 132
v -9 2 129
v -9 -5 125
v -9 -3 121
v -9 -5 122
v 4 4 132
v 0 8 127
v -6 9 122
v -9 -1 122
v 6 9 122
v -4 3 113
v -7 -1 115
v -9 -1 121
v 9 2 129
v 9 -1 122
v 9 -1 121
v 7 -1 115
v 4 3 113
v -6 3 110
v -9 -5 112
v -9 -4 120
v 9 -3 121
v 9 -5 125
v 9 -5 122
v 6 3 110
v 9 -5 112
v 6 -6 109
v 16 -10 106
v 16 -6 108
v 16 6 108
v 15 9 107
v 0 9 107
v -6 -6 109
v 0 -10 106
v 10 -10 76
v 15 -7 77
v 17 0 77
v 15 8 77
v 10 10 76
v -10 10 76
v -15 9 107
v -16 6 108
v -16 -6 108
v -16 -10 106
v -10 -10 76
v 9 -4 120
v 7 -9 110
v 7 -5 120
v 5 -9 116
v 2 -19 110
v 0 -13 116
v -2 -19 110
v -5 -9 116
v -7 -9 110
v -9 -5 120
v 0 -12 120
v -1 -12 120
v -4 -12 122
v -6 -12 124
v -4 -12 123
v 0 -12 124
v -3 -12 125
v -2 -12 126
v 1 -12 120
v 9 -5 120
v 4 -12 122
v 0 -15 120
v 0 -12 116
v 4 -12 123
v 6 -12 124
v 3 -12 125
v 2 -12 126
v 1 10 130
v -1 10 130
v -2 3 137
v 2 3 137
v 7 10 128
v 7 9 122
v 0 10 122
v -7 9 128
v -7 3 135
v -7 -11 132
v -1 -11 134
v 1 -11 134
v 7 3 135
v 9 6 124
v -1 -14 126
v 1 -14 126
v 7 -11 132
v 11 -9 128
v 10 2 132
v 11 0 124
v 13 5 113
v 13 -5 110
v 11 -7 124
v 7 -14 124
v 7 -14 122
v 9 -13 112
v -1 -14 124
v 1 -14 124
v 7 -14 126
v -7 -14 126
v -7 -14 124
v -7 9 122
v -9 6 124
v -10 2 132
v -11 -9 128
v -11 -7 124
v -7 -14 122
v -13 -5 110
v -9 -13 112
v -11 0 124
v -13 5 113
v -15 -7 77
v -17 0 77
v -15 8 77
v -12 -6 121
v -12 -5 125
v -12 1 130
v -12 -1 124
v -12 -3 120
v -12 -5 119

f 1 2 3
f 1 3 4
f 1 4 5
f 1 5 6
f 7 8 9
f 9 8 10
f 10 8 11
f 10 11 12
f 10 12 13
f 13 12 14
f 13 14 15
f 8 7 16
f 8 16 11
f 11 16 17
f 11 17 18
f 11 18 12
f 12 18 19
f 12 19 14
f 17 20 18
f 18 20 21
f 18 21 22
f 18 22 23
f 18 23 19
f 17 16 20
f 20 16 24
f 20 24 25
f 20 25 26
f 20 26 27
f 20 27 28
f 20 28 21
f 21 28 29
f 21 29 30
f 21 30 22
f 22 30 31
f 22 31 23
f 24 32 25
f 32 24 33
f 32 33 34
f 24 7 33
f 7 24 16
f 35 28 36
f 35 36 37
f 35 37 38
f 35 38 39
f 35 39 40
f 35 40 41
f 35 41 42
f 35 42 29
f 35 29 28
f 30 29 43
f 30 43 36
f 36 43 37
f 37 43 44
f 37 44 38
f 38 44 45
f 38 45 46
f 38 46 39
f 39 46 47
f 39 47 40
f 40 47 48
f 40 48 41
f 41 48 49
f 41 49 42
f 42 49 50
f 42 50 51
f 42 51 29
f 29 51 52
f 29 52 53
f 29 53 54
f 29 54 43
f 43 54 44
f 44 54 55
f 44 55 45
f 27 36 28
f 36 27 56
f 36 56 57
f 57 56 58
f 57 58 59
f 57 59 60
f 60 59 61
f 60 61 62
f 62 61 63
f 62 63 64
f 64 63 65
f 64 65 30
f 30 65 31
f 56 27 26
f 63 61 66
f 63 66 67
f 63 67 65
f 65 67 68
f 65 68 69
f 69 68 70
f 69 70 71
f 69 71 72
f 69 72 73
f 73 72 71
f 66 59 74
f 74 59 75
f 74 75 76
f 74 76 71
f 74 71 77
f 77 71 67
f 67 71 68
f 68 71 70
f 66 61 59
f 59 61 78
f 59 78 61
f 61 78 63
f 61 63 78
f 79 80 81
f 79 81 71
f 79 71 76
f 79 76 80
f 80 76 75
f 82 81 80
f 81 82 71
f 83 84 85
f 83 85 86
f 83 86 87
f 83 87 88
f 83 88 89
f 83 89 84
f 84 89 90
f 84 90 91
f 84 91 85
f 85 91 92
f 85 92 93
f 85 93 86
f 86 93 94
f 86 94 95
f 86 95 87
f 87 95 96
f 87 96 88
f 94 93 97
f 94 97 98
f 94 98 99
f 94 99 95
f 95 99 100
f 95 100 101
f 95 101 96
f 96 101 102
f 96 102 103
f 103 102 104
f 104 102 105
f 104 105 106
f 104 106 107
f 104 107 108
f 97 109 110
f 97 110 98
f 98 110 111
f 98 111 99
f 99 111 100
f 100 111 105
f 100 105 102
f 100 102 101
f 110 106 111
f 111 106 105
f 97 112 113
f 97 113 109
f 93 92 112
f 93 112 97
f 89 114 90
f 90 114 115
f 90 115 91
f 91 115 116
f 91 116 92
f 92 116 117
f 92 117 112
f 112 117 113
f 113 117 118
f 113 118 119
f 119 118 120
f 119 120 121
f 115 122 116
f 116 122 117
f 117 122 118
f 118 122 120
f 120 122 123
f 123 122 115
f 124 54 53
f 124 53 125
f 125 53 52
f 125 52 126
f 126 52 51
f 126 51 50
f 124 55 54
f 127 128 129
f 127 129 130
f 127 130 131
f 127 131 132
