# RS2 Model 2979
# Vertices: 62
# Faces: 116

v 18 2 93
v 18 5 86
v 18 -4 93
v 16 -7 100
v 12 2 111
v 12 6 111
v 24 2 94
v 25 5 87
v 20 2 74
v 20 -4 74
v 17 -6 84
v 27 -6 85
v 24 -4 94
v 24 -7 101
v 24 -8 111
v 12 -10 111
v 12 2 121
v 24 6 111
v 24 2 111
v 27 -4 74
v 27 2 74
v 24 6 67
v 19 -1 67
v 24 -8 66
v 21 1 118
v 12 -6 121
v 21 -5 118
v 30 -8 66
v 29 -1 62
v 30 6 67
v 24 -1 62
v -29 -1 62
v -30 -8 66
v -27 -4 74
v -30 6 67
v -24 -1 62
v -24 -8 66
v -20 -4 74
v -17 -6 84
v -27 -6 85
v -24 -4 94
v -25 5 87
v -27 2 74
v -24 6 67
v -19 -1 67
v -20 2 74
v -18 -4 93
v -24 -7 101
v -24 -8 111
v -24 2 111
v -24 2 94
v -18 2 93
v -18 5 86
v -12 -6 121
v -12 2 121
v -21 1 118
v -21 -5 118
v -12 -10 111
v -12 2 111
v -12 6 111
v -24 6 111
v -16 -7 100

f 1 2 3
f 1 3 4
f 1 4 5
f 1 5 6
f 1 6 7
f 1 7 8
f 1 8 2
f 2 8 9
f 2 9 3
f 3 9 10
f 3 10 11
f 3 11 12
f 3 12 13
f 3 13 14
f 3 14 4
f 4 14 15
f 4 15 16
f 4 16 5
f 5 16 17
f 5 17 6
f 6 17 18
f 6 18 7
f 7 18 19
f 7 19 13
f 7 13 8
f 8 13 20
f 8 20 21
f 8 21 9
f 9 21 22
f 9 22 23
f 9 23 10
f 10 23 24
f 10 24 20
f 10 20 11
f 11 20 12
f 12 20 13
f 25 17 26
f 25 26 27
f 25 27 15
f 25 15 19
f 25 19 18
f 25 18 17
f 27 26 16
f 27 16 15
f 26 17 16
f 15 14 13
f 15 13 19
f 20 28 29
f 20 29 30
f 20 30 21
f 21 30 22
f 22 30 29
f 22 29 31
f 22 31 23
f 23 31 24
f 24 31 28
f 24 28 20
f 28 31 29
f 32 33 34
f 32 34 35
f 32 35 36
f 32 36 37
f 32 37 33
f 33 37 34
f 34 37 38
f 34 38 39
f 34 39 40
f 34 40 41
f 34 41 42
f 34 42 43
f 34 43 35
f 35 43 44
f 35 44 36
f 36 44 45
f 36 45 37
f 37 45 38
f 38 45 46
f 38 46 47
f 38 47 39
f 39 47 40
f 40 47 41
f 41 47 48
f 41 48 49
f 41 49 50
f 41 50 51
f 41 51 42
f 42 51 52
f 42 52 53
f 42 53 46
f 42 46 43
f 43 46 44
f 44 46 45
f 54 55 56
f 54 56 57
f 54 57 58
f 54 58 55
f 55 58 59
f 55 59 60
f 55 60 61
f 55 61 56
f 56 61 50
f 56 50 49
f 56 49 57
f 57 49 58
f 58 49 62
f 58 62 59
f 59 62 52
f 59 52 60
f 60 52 51
f 60 51 61
f 61 51 50
f 49 48 62
f 62 48 47
f 62 47 52
f 52 47 53
f 53 47 46
