# RS2 Model 29796
# Vertices: 177
# Faces: 275

v -62 -13 191
v -46 -14 192
v -46 -13 191
v -62 -13 117
v -63 -14 117
v -63 -14 191
v -62 -14 192
v -63 -32 129
v -63 -33 191
v -62 -33 192
v -63 -34 117
v -45 -39 141
v -45 -14 191
v -45 -38 191
v -45 -41 187
v -44 -39 141
v -44 -19 91
v -45 -29 117
v -45 -14 117
v -46 -37 192
v -46 -13 117
v -63 23 171
v -63 27 128
v -63 13 171
v -62 13 172
v -62 23 172
v -62 12 171
v -46 12 128
v -46 12 171
v -44 13 172
v -63 13 128
v -62 12 128
v -63 13 172
v -63 14 192
v -63 23 172
v -63 27 195
v -64 27 195
v -64 23 172
v -63 27 127
v -62 27 128
v -62 13 128
v -63 13 127
v -62 12 127
v -45 13 128
v -46 12 127
v -46 13 96
v -45 13 127
v -46 13 128
v -46 39 128
v -45 39 127
v -45 39 128
v -44 39 127
v -45 31 172
v -45 27 195
v -45 14 192
v -45 13 172
v -46 13 192
v -46 12 172
v -62 13 192
v -62 12 172
v -62 10 201
v -63 11 202
v -63 21 213
v -64 21 215
v -64 28 195
v -64 24 172
v -64 28 127
v -64 27 127
v -63 14 95
v -62 13 96
v -46 -13 96
v -45 0 95
v -45 14 95
v -44 14 95
v -44 40 127
v -44 27 195
v -44 21 215
v -45 21 213
v -45 11 202
v -46 10 201
v -64 -40 83
v -64 -64 64
v -64 -64 128
v -64 -33 129
v -64 -32 129
v -64 -39 84
v -64 0 94
v -64 0 55
v -64 -64 24
v -64 64 24
v -64 64 0
v -64 -64 0
v -64 64 64
v -64 15 94
v -64 59 87
v -64 64 128
v -64 64 200
v -64 22 216
v -64 64 240
v -64 -64 240
v -44 -64 240
v -44 64 240
v -44 -21 216
v -44 64 192
v -44 64 128
v -44 64 87
v -44 15 94
v -44 -20 90
v -44 64 48
v -44 -64 48
v -44 64 0
v -44 -64 0
v -64 -34 191
v -64 -33 191
v -64 -64 200
v -64 -35 206
v -64 -34 206
v -63 -34 206
v -63 -33 192
v -46 -9 202
v -46 -13 192
v -62 -13 192
v -62 -9 202
v -63 -14 192
v -63 -10 203
v -62 0 205
v -63 0 206
v -62 8 203
v -63 9 204
v -61 10 203
v -62 11 204
v -47 10 203
v -46 11 204
v -45 9 204
v -46 8 203
v -45 0 206
v -46 0 205
v -45 -10 203
v -45 -14 192
v -46 -13 116
v -62 -13 96
v -62 -13 116
v -62 -14 117
v -46 -14 117
v -45 -14 116
v -45 -14 95
v -45 -19 91
v -44 0 95
v -63 0 95
v -63 -14 95
v -63 -14 116
v -63 -34 116
v -62 -34 117
v -64 -20 215
v -64 14 95
v -64 0 95
v -63 21 215
v -63 -20 215
v -62 21 214
v -63 -39 84
v -45 31 171
v -45 13 171
v -46 13 172
v -46 31 172
v -44 -40 141
v -44 -64 87
v -44 -64 128
v -44 -41 187
v -44 -65 192
v -44 -42 189
v -44 -20 215
v -45 21 215
v -45 -20 215
v -46 21 214
v -45 -29 116
v -46 -29 117
v -45 -37 192

f 1 2 3
f 1 3 4
f 1 4 5
f 1 5 6
f 1 6 7
f 1 7 2
f 5 8 6
f 6 8 9
f 6 9 10
f 6 10 7
f 11 8 5
f 12 13 14
f 12 14 15
f 12 15 16
f 12 16 17
f 12 17 18
f 12 18 19
f 12 19 13
f 13 19 3
f 13 3 2
f 13 2 14
f 14 2 20
f 19 21 3
f 3 21 4
f 22 23 24
f 22 24 25
f 22 25 26
f 27 28 29
f 27 29 30
f 27 30 25
f 27 25 24
f 27 24 31
f 27 31 32
f 27 32 28
f 24 23 31
f 33 34 35
f 35 34 36
f 35 36 37
f 35 37 38
f 35 38 39
f 35 39 23
f 23 39 40
f 40 39 41
f 41 39 42
f 41 42 43
f 41 43 44
f 44 43 45
f 45 43 46
f 45 46 47
f 45 47 48
f 48 47 49
f 49 47 50
f 49 50 51
f 51 50 52
f 51 52 53
f 53 52 54
f 53 54 55
f 53 55 56
f 56 55 57
f 56 57 58
f 58 57 59
f 58 59 60
f 60 59 33
f 33 59 34
f 34 59 61
f 34 61 62
f 34 62 36
f 36 62 63
f 36 63 64
f 36 64 37
f 37 64 65
f 37 65 66
f 37 66 38
f 38 66 67
f 38 67 68
f 38 68 39
f 39 68 69
f 39 69 42
f 42 69 70
f 42 70 43
f 43 70 46
f 46 70 71
f 46 71 72
f 46 72 73
f 46 73 47
f 47 73 50
f 50 73 52
f 52 73 74
f 52 74 75
f 52 75 76
f 52 76 54
f 54 76 77
f 54 77 78
f 54 78 79
f 54 79 55
f 55 79 80
f 55 80 57
f 57 80 61
f 57 61 59
f 81 82 83
f 81 83 84
f 81 84 85
f 81 85 86
f 81 86 87
f 81 87 88
f 81 88 82
f 82 88 89
f 89 88 90
f 89 90 91
f 89 91 92
f 93 90 88
f 93 88 87
f 93 87 94
f 93 94 95
f 93 95 96
f 96 95 67
f 96 67 66
f 96 66 97
f 97 66 65
f 97 65 98
f 97 98 99
f 99 98 100
f 99 100 101
f 99 101 102
f 102 101 103
f 102 103 77
f 102 77 104
f 104 77 76
f 104 76 105
f 105 76 75
f 105 75 106
f 106 75 107
f 106 107 108
f 106 108 109
f 109 108 110
f 109 110 111
f 111 110 112
f 113 114 84
f 113 84 83
f 113 83 115
f 113 115 116
f 113 116 117
f 113 117 114
f 114 117 118
f 114 118 119
f 114 119 10
f 114 10 9
f 114 9 8
f 114 8 85
f 114 85 84
f 120 121 122
f 120 122 123
f 123 122 124
f 123 124 125
f 123 125 126
f 126 125 127
f 126 127 128
f 128 127 129
f 128 129 130
f 130 129 131
f 130 131 62
f 130 62 61
f 130 61 80
f 130 80 132
f 132 80 79
f 132 79 133
f 132 133 134
f 132 134 135
f 135 134 136
f 135 136 137
f 137 136 138
f 137 138 120
f 120 138 139
f 120 139 121
f 140 71 141
f 140 141 142
f 140 142 143
f 140 143 144
f 140 144 145
f 140 145 71
f 71 145 146
f 71 146 72
f 72 146 147
f 72 147 148
f 72 148 74
f 72 74 73
f 71 70 141
f 141 70 69
f 141 69 149
f 141 149 150
f 141 150 151
f 141 151 142
f 142 151 143
f 143 151 152
f 143 152 153
f 117 116 154
f 154 116 100
f 154 100 98
f 154 98 64
f 64 98 65
f 155 68 67
f 155 67 94
f 155 94 156
f 155 156 149
f 155 149 69
f 155 69 68
f 157 127 158
f 158 127 125
f 158 125 118
f 118 125 124
f 118 124 119
f 63 62 131
f 63 131 159
f 63 159 64
f 64 159 157
f 157 159 131
f 157 131 129
f 157 129 127
f 151 150 152
f 152 150 160
f 152 160 86
f 152 86 8
f 8 86 85
f 160 150 149
f 160 149 156
f 160 156 86
f 86 156 87
f 87 156 94
f 161 162 51
f 51 162 44
f 44 162 29
f 44 29 28
f 162 163 29
f 163 162 164
f 164 162 161
f 108 16 165
f 108 165 166
f 108 166 110
f 167 168 169
f 169 168 170
f 169 170 101
f 101 170 103
f 103 170 168
f 103 168 171
f 103 171 77
f 16 168 165
f 165 168 167
f 165 167 166
f 107 74 148
f 107 148 108
f 108 148 17
f 108 17 16
f 75 74 107
f 172 173 136
f 172 136 134
f 172 134 133
f 172 133 174
f 172 174 77
f 77 174 78
f 78 174 133
f 78 133 79
f 175 146 145
f 175 145 176
f 175 176 18
f 175 18 17
f 175 17 147
f 175 147 146
f 15 168 16
f 139 138 177
f 177 138 173
f 173 138 136
f 147 17 148
f 145 144 176
f 94 67 95
f 116 115 100
