# RS2 Model 29863
# Vertices: 28
# Faces: 36

v -7 23 -10
v -6 23 -11
v -6 44 -9
v -7 44 -8
v -62 23 13
v -62 2 10
v -7 2 -13
v -6 2 -14
v -7 -21 -14
v -6 -21 -15
v -7 -43 -14
v -6 -43 -15
v -7 -64 -15
v -6 -64 -16
v -62 44 15
v -62 44 12
v -62 23 10
v -62 2 7
v -62 -21 9
v -62 -43 9
v -62 -64 8
v -6 64 -7
v -7 64 -6
v -62 64 17
v -62 64 14
v -62 -21 6
v -62 -43 6
v -62 -64 5

f 1 2 3
f 1 3 4
f 1 4 5
f 1 5 6
f 1 6 7
f 1 7 2
f 2 7 8
f 8 7 9
f 8 9 10
f 10 9 11
f 10 11 12
f 12 11 13
f 12 13 14
f 5 4 15
f 5 15 16
f 5 16 17
f 5 17 6
f 6 17 18
f 6 18 19
f 6 19 7
f 7 19 9
f 9 19 20
f 9 20 11
f 11 20 21
f 11 21 13
f 22 23 4
f 22 4 3
f 23 24 15
f 23 15 4
f 15 24 25
f 15 25 16
f 19 18 26
f 19 26 20
f 20 26 27
f 20 27 21
f 21 27 28
