# RS2 Model 2992
# Vertices: 44
# Faces: 72

v -26 -5 44
v -18 -5 44
v -18 -17 48
v -26 -17 48
v -32 -3 49
v -32 -16 53
v -30 6 48
v -24 4 44
v -20 4 44
v -12 -3 49
v -12 -16 53
v -12 0 57
v -18 2 63
v -26 2 63
v -32 0 57
v -32 -14 61
v -30 8 52
v -24 10 58
v -20 10 58
v -14 8 52
v -14 6 48
v -12 -14 61
v -18 -12 67
v -26 -12 67
v -20 6 61
v -24 6 61
v -24 5 70
v -20 5 70
v -20 4 66
v -20 4 61
v -24 4 61
v -24 4 66
v -20 -9 66
v -20 -7 68
v -20 -6 71
v -20 -11 66
v -24 -11 66
v -24 -6 71
v -30 -8 30
v 16 -8 30
v -30 5 71
v -3 3 64
v -3 0 23
v -45 4 64

f 1 2 3
f 1 3 4
f 1 4 5
f 1 5 6
f 1 6 4
f 1 4 2
f 1 2 5
f 1 5 7
f 1 7 8
f 1 8 2
f 2 8 9
f 2 9 10
f 2 10 11
f 2 11 3
f 2 3 10
f 2 10 12
f 2 12 13
f 2 13 14
f 2 14 15
f 2 15 5
f 5 15 16
f 5 16 6
f 5 6 15
f 5 15 17
f 5 17 7
f 7 17 8
f 8 17 18
f 8 18 19
f 8 19 20
f 8 20 21
f 8 21 9
f 9 21 10
f 10 21 12
f 10 12 22
f 10 22 11
f 10 11 12
f 12 11 22
f 12 22 13
f 12 13 23
f 12 23 22
f 22 23 13
f 13 23 14
f 13 14 24
f 13 24 23
f 23 24 14
f 14 24 15
f 14 15 16
f 14 16 24
f 24 16 15
f 15 6 16
f 5 4 6
f 4 3 2
f 3 11 10
f 21 20 12
f 12 20 13
f 13 20 19
f 13 19 14
f 14 19 18
f 14 18 15
f 15 18 17
f 25 26 27
f 25 27 28
f 25 28 29
f 25 29 30
f 30 29 31
f 31 29 32
f 31 32 27
f 31 27 26
f 33 34 35
f 33 35 36
f 36 35 37
f 37 35 38
