# RS2 Model 30228
# Vertices: 85
# Faces: 80

v 48 7 81
v 48 -9 81
v 48 -9 0
v 48 7 0
v -48 7 80
v 45 7 96
v 45 -9 96
v 27 -9 78
v 27 -9 64
v -48 -9 0
v 0 -9 0
v -48 -9 80
v -45 -9 96
v -45 7 96
v -32 7 112
v 32 7 112
v 32 -9 112
v -27 -9 78
v -25 -11 77
v 25 -11 77
v 25 -11 65
v -27 -9 64
v -48 7 0
v -32 -9 112
v -9 -9 119
v -9 7 119
v 9 7 119
v 9 -9 119
v -25 -11 65
v -11 -10 48
v -39 -10 48
v -39 -10 46
v -11 -10 46
v 4 -10 48
v -8 -10 48
v -8 -10 46
v 4 -10 46
v 23 -10 48
v 6 -10 48
v 6 -10 46
v 23 -10 46
v 39 -10 48
v 39 -10 46
v -21 -10 44
v -39 -10 44
v -39 -10 42
v -21 -10 42
v -1 -10 44
v -18 -10 44
v -18 -10 42
v -1 -10 42
v 18 -10 44
v 1 -10 44
v 1 -10 42
v 18 -10 42
v 26 -10 42
v 25 -10 44
v 21 -10 42
v 21 -10 44
v -31 -10 40
v -39 -10 40
v -39 -10 38
v -31 -10 38
v -4 -10 40
v -28 -10 40
v -28 -10 38
v -4 -10 38
v 21 -10 40
v -2 -10 40
v -2 -10 38
v 21 -10 38
v 28 -10 38
v 27 -10 40
v 24 -10 38
v 24 -10 40
v 39 -10 44
v 39 -10 42
v 39 -10 40
v 39 -10 38
v 25 -11 85
v -25 -11 85
v 25 -11 56
v -9 -7 24
v -13 -73 9
v 67 -7 21

f 1 2 3
f 1 3 4
f 1 4 5
f 1 5 6
f 1 6 2
f 2 6 7
f 2 7 8
f 2 8 9
f 2 9 3
f 3 9 10
f 3 10 11
f 5 12 13
f 5 13 14
f 5 14 6
f 6 14 15
f 6 15 16
f 6 16 7
f 7 16 17
f 7 17 8
f 8 17 18
f 8 18 19
f 8 19 20
f 8 20 21
f 8 21 9
f 9 21 22
f 9 22 10
f 10 22 12
f 10 12 23
f 23 12 5
f 23 5 4
f 14 13 24
f 14 24 15
f 15 24 25
f 15 25 26
f 15 26 27
f 15 27 16
f 16 27 17
f 17 27 28
f 17 28 25
f 17 25 24
f 17 24 18
f 18 24 13
f 18 13 12
f 18 12 22
f 18 22 19
f 19 22 29
f 19 29 20
f 20 29 21
f 21 29 22
f 27 26 25
f 27 25 28
f 30 31 32
f 30 32 33
f 34 35 36
f 34 36 37
f 38 39 40
f 38 40 41
f 38 41 42
f 42 41 43
f 44 45 46
f 44 46 47
f 48 49 50
f 48 50 51
f 52 53 54
f 52 54 55
f 56 57 58
f 58 57 59
f 60 61 62
f 60 62 63
f 64 65 66
f 64 66 67
f 68 69 70
f 68 70 71
f 72 73 74
f 74 73 75
f 56 76 57
f 76 56 77
f 72 78 73
f 78 72 79
f 80 81 82
