# RS2 Model 3083
# Vertices: 24
# Faces: 44

v -1 -28 26
v -5 -32 26
v -1 -32 30
v 1 -32 30
v 1 -28 26
v -1 -28 24
v -5 -32 24
v -5 -34 26
v -1 -34 30
v 1 -34 30
v 5 -32 26
v 5 -32 24
v 1 -28 24
v -1 -32 20
v -1 -34 20
v -5 -34 24
v -1 -38 26
v 1 -38 26
v 5 -34 26
v 5 -34 24
v 1 -32 20
v 1 -34 20
v -1 -38 24
v 1 -38 24

f 1 2 3
f 1 3 4
f 1 4 5
f 1 5 6
f 1 6 2
f 2 6 7
f 2 7 8
f 2 8 3
f 3 8 9
f 3 9 10
f 3 10 4
f 4 10 11
f 4 11 5
f 5 11 12
f 5 12 13
f 5 13 6
f 6 13 14
f 6 14 7
f 7 14 15
f 7 15 16
f 7 16 8
f 8 16 17
f 8 17 9
f 9 17 18
f 9 18 10
f 10 18 19
f 10 19 11
f 11 19 20
f 11 20 12
f 12 20 21
f 12 21 13
f 13 21 14
f 14 21 15
f 15 21 22
f 15 22 23
f 15 23 16
f 16 23 17
f 17 23 24
f 17 24 18
f 18 24 19
f 19 24 20
f 20 24 22
f 20 22 21
f 22 24 23
