# RS2 Model 3123
# Vertices: 1152
# Faces: 1152

v 58 -32 -14
v 58 -30 -16
v 58 -44 -30
v 58 -46 -28
v 58 -30 -28
v 58 -32 -30
v 58 -46 -16
v 58 -44 -14
v 58 -27 -21
v 58 -27 -23
v 58 -49 -23
v 58 -49 -21
v 58 -37 -33
v 58 -39 -33
v 58 -39 -11
v 58 -37 -11
v 52 -38 -14
v 50 -38 -16
v 64 -38 -30
v 66 -38 -28
v 50 -38 -28
v 52 -38 -30
v 66 -38 -16
v 64 -38 -14
v 47 -38 -21
v 47 -38 -23
v 69 -38 -23
v 69 -38 -21
v 57 -38 -33
v 59 -38 -33
v 59 -38 -11
v 57 -38 -11
v 52 -46 -22
v 50 -44 -22
v 64 -30 -22
v 66 -32 -22
v 50 -32 -22
v 52 -30 -22
v 66 -44 -22
v 64 -46 -22
v 47 -39 -22
v 47 -37 -22
v 69 -37 -22
v 69 -39 -22
v 57 -27 -22
v 59 -27 -22
v 59 -49 -22
v 57 -49 -22
v 84 -32 34
v 86 -30 34
v 100 -44 34
v 98 -46 34
v 98 -30 34
v 100 -32 34
v 86 -46 34
v 84 -44 34
v 91 -27 34
v 93 -27 34
v 93 -49 34
v 91 -49 34
v 103 -37 34
v 103 -39 34
v 81 -39 34
v 81 -37 34
v 84 -38 40
v 86 -38 42
v 100 -38 28
v 98 -38 26
v 98 -38 42
v 100 -38 40
v 86 -38 26
v 84 -38 28
v 91 -38 45
v 93 -38 45
v 93 -38 23
v 91 -38 23
v 103 -38 35
v 103 -38 33
v 81 -38 33
v 81 -38 35
v 92 -46 40
v 92 -44 42
v 92 -30 28
v 92 -32 26
v 92 -32 42
v 92 -30 40
v 92 -44 26
v 92 -46 28
v 92 -39 45
v 92 -37 45
v 92 -37 23
v 92 -39 23
v 92 -27 35
v 92 -27 33
v 92 -49 33
v 92 -49 35
v 58 -32 82
v 58 -30 84
v 58 -44 98
v 58 -46 96
v 58 -30 96
v 58 -32 98
v 58 -46 84
v 58 -44 82
v 58 -27 89
v 58 -27 91
v 58 -49 91
v 58 -49 89
v 58 -37 101
v 58 -39 101
v 58 -39 79
v 58 -37 79
v 52 -38 82
v 50 -38 84
v 64 -38 98
v 66 -38 96
v 50 -38 96
v 52 -38 98
v 66 -38 84
v 64 -38 82
v 47 -38 89
v 47 -38 91
v 69 -38 91
v 69 -38 89
v 57 -38 101
v 59 -38 101
v 59 -38 79
v 57 -38 79
v 52 -46 90
v 50 -44 90
v 64 -30 90
v 66 -32 90
v 50 -32 90
v 52 -30 90
v 66 -44 90
v 64 -46 90
v 47 -39 90
v 47 -37 90
v 69 -37 90
v 69 -39 90
v 57 -27 90
v 59 -27 90
v 59 -49 90
v 57 -49 90
v 0 -32 116
v 0 -30 118
v 0 -44 132
v 0 -46 130
v 0 -30 130
v 0 -32 132
v 0 -46 118
v 0 -44 116
v 0 -27 123
v 0 -27 125
v 0 -49 125
v 0 -49 123
v 0 -37 135
v 0 -39 135
v 0 -39 113
v 0 -37 113
v -6 -38 116
v -8 -38 118
v 6 -38 132
v 8 -38 130
v -8 -38 130
v -6 -38 132
v 8 -38 118
v 6 -38 116
v -11 -38 123
v -11 -38 125
v 11 -38 125
v 11 -38 123
v -1 -38 135
v 1 -38 135
v 1 -38 113
v -1 -38 113
v -6 -46 124
v -8 -44 124
v 6 -30 124
v 8 -32 124
v -8 -32 124
v -6 -30 124
v 8 -44 124
v 6 -46 124
v -11 -39 124
v -11 -37 124
v 11 -37 124
v 11 -39 124
v -1 -27 124
v 1 -27 124
v 1 -49 124
v -1 -49 124
v -62 -32 82
v -62 -30 84
v -62 -44 98
v -62 -46 96
v -62 -30 96
v -62 -32 98
v -62 -46 84
v -62 -44 82
v -62 -27 89
v -62 -27 91
v -62 -49 91
v -62 -49 89
v -62 -37 101
v -62 -39 101
v -62 -39 79
v -62 -37 79
v -56 -38 82
v -54 -38 84
v -68 -38 98
v -70 -38 96
v -54 -38 96
v -56 -38 98
v -70 -38 84
v -68 -38 82
v -51 -38 89
v -51 -38 91
v -73 -38 91
v -73 -38 89
v -61 -38 101
v -63 -38 101
v -63 -38 79
v -61 -38 79
v -56 -46 90
v -54 -44 90
v -68 -30 90
v -70 -32 90
v -54 -32 90
v -56 -30 90
v -70 -44 90
v -68 -46 90
v -51 -39 90
v -51 -37 90
v -73 -37 90
v -73 -39 90
v -61 -27 90
v -63 -27 90
v -63 -49 90
v -61 -49 90
v -88 -32 34
v -90 -30 34
v -104 -44 34
v -102 -46 34
v -102 -30 34
v -104 -32 34
v -90 -46 34
v -88 -44 34
v -95 -27 34
v -97 -27 34
v -97 -49 34
v -95 -49 34
v -107 -37 34
v -107 -39 34
v -85 -39 34
v -85 -37 34
v -88 -38 28
v -90 -38 26
v -104 -38 40
v -102 -38 42
v -102 -38 26
v -104 -38 28
v -90 -38 42
v -88 -38 40
v -95 -38 23
v -97 -38 23
v -97 -38 45
v -95 -38 45
v -107 -38 33
v -107 -38 35
v -85 -38 35
v -85 -38 33
v -96 -46 28
v -96 -44 26
v -96 -30 40
v -96 -32 42
v -96 -32 26
v -96 -30 28
v -96 -44 42
v -96 -46 40
v -96 -39 23
v -96 -37 23
v -96 -37 45
v -96 -39 45
v -96 -27 33
v -96 -27 35
v -96 -49 35
v -96 -49 33
v -62 -32 -14
v -62 -30 -16
v -62 -44 -30
v -62 -46 -28
v -62 -30 -28
v -62 -32 -30
v -62 -46 -16
v -62 -44 -14
v -62 -27 -21
v -62 -27 -23
v -62 -49 -23
v -62 -49 -21
v -62 -37 -33
v -62 -39 -33
v -62 -39 -11
v -62 -37 -11
v -56 -38 -14
v -54 -38 -16
v -68 -38 -30
v -70 -38 -28
v -54 -38 -28
v -56 -38 -30
v -70 -38 -16
v -68 -38 -14
v -51 -38 -21
v -51 -38 -23
v -73 -38 -23
v -73 -38 -21
v -61 -38 -33
v -63 -38 -33
v -63 -38 -11
v -61 -38 -11
v -56 -46 -22
v -54 -44 -22
v -68 -30 -22
v -70 -32 -22
v -54 -32 -22
v -56 -30 -22
v -70 -44 -22
v -68 -46 -22
v -51 -39 -22
v -51 -37 -22
v -73 -37 -22
v -73 -39 -22
v -61 -27 -22
v -63 -27 -22
v -63 -49 -22
v -61 -49 -22
v 0 -32 -48
v 0 -30 -50
v 0 -44 -64
v 0 -46 -62
v 0 -30 -62
v 0 -32 -64
v 0 -46 -50
v 0 -44 -48
v 0 -27 -55
v 0 -27 -57
v 0 -49 -57
v 0 -49 -55
v 0 -37 -67
v 0 -39 -67
v 0 -39 -45
v 0 -37 -45
v 6 -38 -48
v 8 -38 -50
v -6 -38 -64
v -8 -38 -62
v 8 -38 -62
v 6 -38 -64
v -8 -38 -50
v -6 -38 -48
v 11 -38 -55
v 11 -38 -57
v -11 -38 -57
v -11 -38 -55
v 1 -38 -67
v -1 -38 -67
v -1 -38 -45
v 1 -38 -45
v 6 -46 -56
v 8 -44 -56
v -6 -30 -56
v -8 -32 -56
v 8 -32 -56
v 6 -30 -56
v -8 -44 -56
v -6 -46 -56
v 11 -39 -56
v 11 -37 -56
v -11 -37 -56
v -11 -39 -56
v 1 -27 -56
v -1 -27 -56
v -1 -49 -56
v 1 -49 -56
v 0 -31 -21
v 0 -29 -23
v 0 -45 -39
v 0 -47 -37
v 0 -29 -37
v 0 -31 -39
v 0 -47 -23
v 0 -45 -21
v 0 -25 -29
v 0 -25 -31
v 0 -51 -31
v 0 -51 -29
v 0 -37 -43
v 0 -39 -43
v 0 -39 -17
v 0 -37 -17
v 7 -38 -21
v 9 -38 -23
v -7 -38 -39
v -9 -38 -37
v 9 -38 -37
v 7 -38 -39
v -9 -38 -23
v -7 -38 -21
v 13 -38 -29
v 13 -38 -31
v -13 -38 -31
v -13 -38 -29
v 1 -38 -43
v -1 -38 -43
v -1 -38 -17
v 1 -38 -17
v 7 -47 -30
v 9 -45 -30
v -7 -29 -30
v -9 -31 -30
v 9 -31 -30
v 7 -29 -30
v -9 -45 -30
v -7 -47 -30
v 13 -39 -30
v 13 -37 -30
v -13 -37 -30
v -13 -39 -30
v 1 -25 -30
v -1 -25 -30
v -1 -51 -30
v 1 -51 -30
v 42 -31 3
v 42 -29 1
v 42 -45 -15
v 42 -47 -13
v 42 -29 -13
v 42 -31 -15
v 42 -47 1
v 42 -45 3
v 42 -25 -5
v 42 -25 -7
v 42 -51 -7
v 42 -51 -5
v 42 -37 -19
v 42 -39 -19
v 42 -39 7
v 42 -37 7
v 35 -38 3
v 33 -38 1
v 49 -38 -15
v 51 -38 -13
v 33 -38 -13
v 35 -38 -15
v 51 -38 1
v 49 -38 3
v 29 -38 -5
v 29 -38 -7
v 55 -38 -7
v 55 -38 -5
v 41 -38 -19
v 43 -38 -19
v 43 -38 7
v 41 -38 7
v 35 -47 -6
v 33 -45 -6
v 49 -29 -6
v 51 -31 -6
v 33 -31 -6
v 35 -29 -6
v 51 -45 -6
v 49 -47 -6
v 29 -39 -6
v 29 -37 -6
v 55 -37 -6
v 55 -39 -6
v 41 -25 -6
v 43 -25 -6
v 43 -51 -6
v 41 -51 -6
v 57 -31 34
v 59 -29 34
v 75 -45 34
v 73 -47 34
v 73 -29 34
v 75 -31 34
v 59 -47 34
v 57 -45 34
v 65 -25 34
v 67 -25 34
v 67 -51 34
v 65 -51 34
v 79 -37 34
v 79 -39 34
v 53 -39 34
v 53 -37 34
v 57 -38 41
v 59 -38 43
v 75 -38 27
v 73 -38 25
v 73 -38 43
v 75 -38 41
v 59 -38 25
v 57 -38 27
v 65 -38 47
v 67 -38 47
v 67 -38 21
v 65 -38 21
v 79 -38 35
v 79 -38 33
v 53 -38 33
v 53 -38 35
v 66 -47 41
v 66 -45 43
v 66 -29 27
v 66 -31 25
v 66 -31 43
v 66 -29 41
v 66 -45 25
v 66 -47 27
v 66 -39 47
v 66 -37 47
v 66 -37 21
v 66 -39 21
v 66 -25 35
v 66 -25 33
v 66 -51 33
v 66 -51 35
v 42 -31 65
v 42 -29 67
v 42 -45 83
v 42 -47 81
v 42 -29 81
v 42 -31 83
v 42 -47 67
v 42 -45 65
v 42 -25 73
v 42 -25 75
v 42 -51 75
v 42 -51 73
v 42 -37 87
v 42 -39 87
v 42 -39 61
v 42 -37 61
v 35 -38 65
v 33 -38 67
v 49 -38 83
v 51 -38 81
v 33 -38 81
v 35 -38 83
v 51 -38 67
v 49 -38 65
v 29 -38 73
v 29 -38 75
v 55 -38 75
v 55 -38 73
v 41 -38 87
v 43 -38 87
v 43 -38 61
v 41 -38 61
v 35 -47 74
v 33 -45 74
v 49 -29 74
v 51 -31 74
v 33 -31 74
v 35 -29 74
v 51 -45 74
v 49 -47 74
v 29 -39 74
v 29 -37 74
v 55 -37 74
v 55 -39 74
v 41 -25 74
v 43 -25 74
v 43 -51 74
v 41 -51 74
v 0 -31 89
v 0 -29 91
v 0 -45 107
v 0 -47 105
v 0 -29 105
v 0 -31 107
v 0 -47 91
v 0 -45 89
v 0 -25 97
v 0 -25 99
v 0 -51 99
v 0 -51 97
v 0 -37 111
v 0 -39 111
v 0 -39 85
v 0 -37 85
v -7 -38 89
v -9 -38 91
v 7 -38 107
v 9 -38 105
v -9 -38 105
v -7 -38 107
v 9 -38 91
v 7 -38 89
v -13 -38 97
v -13 -38 99
v 13 -38 99
v 13 -38 97
v -1 -38 111
v 1 -38 111
v 1 -38 85
v -1 -38 85
v -7 -47 98
v -9 -45 98
v 7 -29 98
v 9 -31 98
v -9 -31 98
v -7 -29 98
v 9 -45 98
v 7 -47 98
v -13 -39 98
v -13 -37 98
v 13 -37 98
v 13 -39 98
v -1 -25 98
v 1 -25 98
v 1 -51 98
v -1 -51 98
v -46 -31 65
v -46 -29 67
v -46 -45 83
v -46 -47 81
v -46 -29 81
v -46 -31 83
v -46 -47 67
v -46 -45 65
v -46 -25 73
v -46 -25 75
v -46 -51 75
v -46 -51 73
v -46 -37 87
v -46 -39 87
v -46 -39 61
v -46 -37 61
v -39 -38 65
v -37 -38 67
v -53 -38 83
v -55 -38 81
v -37 -38 81
v -39 -38 83
v -55 -38 67
v -53 -38 65
v -33 -38 73
v -33 -38 75
v -59 -38 75
v -59 -38 73
v -45 -38 87
v -47 -38 87
v -47 -38 61
v -45 -38 61
v -39 -47 74
v -37 -45 74
v -53 -29 74
v -55 -31 74
v -37 -31 74
v -39 -29 74
v -55 -45 74
v -53 -47 74
v -33 -39 74
v -33 -37 74
v -59 -37 74
v -59 -39 74
v -45 -25 74
v -47 -25 74
v -47 -51 74
v -45 -51 74
v -61 -31 34
v -63 -29 34
v -79 -45 34
v -77 -47 34
v -77 -29 34
v -79 -31 34
v -63 -47 34
v -61 -45 34
v -69 -25 34
v -71 -25 34
v -71 -51 34
v -69 -51 34
v -83 -37 34
v -83 -39 34
v -57 -39 34
v -57 -37 34
v -61 -38 27
v -63 -38 25
v -79 -38 41
v -77 -38 43
v -77 -38 25
v -79 -38 27
v -63 -38 43
v -61 -38 41
v -69 -38 21
v -71 -38 21
v -71 -38 47
v -69 -38 47
v -83 -38 33
v -83 -38 35
v -57 -38 35
v -57 -38 33
v -70 -47 27
v -70 -45 25
v -70 -29 41
v -70 -31 43
v -70 -31 25
v -70 -29 27
v -70 -45 43
v -70 -47 41
v -70 -39 21
v -70 -37 21
v -70 -37 47
v -70 -39 47
v -70 -25 33
v -70 -25 35
v -70 -51 35
v -70 -51 33
v -46 -31 3
v -46 -29 1
v -46 -45 -15
v -46 -47 -13
v -46 -29 -13
v -46 -31 -15
v -46 -47 1
v -46 -45 3
v -46 -25 -5
v -46 -25 -7
v -46 -51 -7
v -46 -51 -5
v -46 -37 -19
v -46 -39 -19
v -46 -39 7
v -46 -37 7
v -39 -38 3
v -37 -38 1
v -53 -38 -15
v -55 -38 -13
v -37 -38 -13
v -39 -38 -15
v -55 -38 1
v -53 -38 3
v -33 -38 -5
v -33 -38 -7
v -59 -38 -7
v -59 -38 -5
v -45 -38 -19
v -47 -38 -19
v -47 -38 7
v -45 -38 7
v -39 -47 -6
v -37 -45 -6
v -53 -29 -6
v -55 -31 -6
v -37 -31 -6
v -39 -29 -6
v -55 -45 -6
v -53 -47 -6
v -33 -39 -6
v -33 -37 -6
v -59 -37 -6
v -59 -39 -6
v -45 -25 -6
v -47 -25 -6
v -47 -51 -6
v -45 -51 -6
v -30 -30 20
v -30 -28 18
v -30 -46 0
v -30 -48 2
v -30 -28 2
v -30 -30 0
v -30 -48 18
v -30 -46 20
v -30 -24 11
v -30 -24 9
v -30 -52 9
v -30 -52 11
v -30 -37 -4
v -30 -39 -4
v -30 -39 24
v -30 -37 24
v -22 -38 20
v -20 -38 18
v -38 -38 0
v -40 -38 2
v -20 -38 2
v -22 -38 0
v -40 -38 18
v -38 -38 20
v -16 -38 11
v -16 -38 9
v -44 -38 9
v -44 -38 11
v -29 -38 -4
v -31 -38 -4
v -31 -38 24
v -29 -38 24
v -22 -48 10
v -20 -46 10
v -38 -28 10
v -40 -30 10
v -20 -30 10
v -22 -28 10
v -40 -46 10
v -38 -48 10
v -16 -39 10
v -16 -37 10
v -44 -37 10
v -44 -39 10
v -29 -24 10
v -31 -24 10
v -31 -52 10
v -29 -52 10
v 0 -30 6
v 0 -28 4
v 0 -46 -14
v 0 -48 -12
v 0 -28 -12
v 0 -30 -14
v 0 -48 4
v 0 -46 6
v 0 -24 -3
v 0 -24 -5
v 0 -52 -5
v 0 -52 -3
v 0 -37 -18
v 0 -39 -18
v 0 -39 10
v 0 -37 10
v 8 -38 6
v 10 -38 4
v -8 -38 -14
v -10 -38 -12
v 10 -38 -12
v 8 -38 -14
v -10 -38 4
v -8 -38 6
v 14 -38 -3
v 14 -38 -5
v -14 -38 -5
v -14 -38 -3
v 1 -38 -18
v -1 -38 -18
v -1 -38 10
v 1 -38 10
v 8 -48 -4
v 10 -46 -4
v -8 -28 -4
v -10 -30 -4
v 10 -30 -4
v 8 -28 -4
v -10 -46 -4
v -8 -48 -4
v 14 -39 -4
v 14 -37 -4
v -14 -37 -4
v -14 -39 -4
v 1 -24 -4
v -1 -24 -4
v -1 -52 -4
v 1 -52 -4
v 26 -30 20
v 26 -28 18
v 26 -46 0
v 26 -48 2
v 26 -28 2
v 26 -30 0
v 26 -48 18
v 26 -46 20
v 26 -24 11
v 26 -24 9
v 26 -52 9
v 26 -52 11
v 26 -37 -4
v 26 -39 -4
v 26 -39 24
v 26 -37 24
v 18 -38 20
v 16 -38 18
v 34 -38 0
v 36 -38 2
v 16 -38 2
v 18 -38 0
v 36 -38 18
v 34 -38 20
v 12 -38 11
v 12 -38 9
v 40 -38 9
v 40 -38 11
v 25 -38 -4
v 27 -38 -4
v 27 -38 24
v 25 -38 24
v 18 -48 10
v 16 -46 10
v 34 -28 10
v 36 -30 10
v 16 -30 10
v 18 -28 10
v 36 -46 10
v 34 -48 10
v 12 -39 10
v 12 -37 10
v 40 -37 10
v 40 -39 10
v 25 -24 10
v 27 -24 10
v 27 -52 10
v 25 -52 10
v 30 -30 34
v 32 -28 34
v 50 -46 34
v 48 -48 34
v 48 -28 34
v 50 -30 34
v 32 -48 34
v 30 -46 34
v 39 -24 34
v 41 -24 34
v 41 -52 34
v 39 -52 34
v 54 -37 34
v 54 -39 34
v 26 -39 34
v 26 -37 34
v 30 -38 42
v 32 -38 44
v 50 -38 26
v 48 -38 24
v 48 -38 44
v 50 -38 42
v 32 -38 24
v 30 -38 26
v 39 -38 48
v 41 -38 48
v 41 -38 20
v 39 -38 20
v 54 -38 35
v 54 -38 33
v 26 -38 33
v 26 -38 35
v 40 -48 42
v 40 -46 44
v 40 -28 26
v 40 -30 24
v 40 -30 44
v 40 -28 42
v 40 -46 24
v 40 -48 26
v 40 -39 48
v 40 -37 48
v 40 -37 20
v 40 -39 20
v 40 -24 35
v 40 -24 33
v 40 -52 33
v 40 -52 35
v 26 -30 48
v 26 -28 50
v 26 -46 68
v 26 -48 66
v 26 -28 66
v 26 -30 68
v 26 -48 50
v 26 -46 48
v 26 -24 57
v 26 -24 59
v 26 -52 59
v 26 -52 57
v 26 -37 72
v 26 -39 72
v 26 -39 44
v 26 -37 44
v 18 -38 48
v 16 -38 50
v 34 -38 68
v 36 -38 66
v 16 -38 66
v 18 -38 68
v 36 -38 50
v 34 -38 48
v 12 -38 57
v 12 -38 59
v 40 -38 59
v 40 -38 57
v 25 -38 72
v 27 -38 72
v 27 -38 44
v 25 -38 44
v 18 -48 58
v 16 -46 58
v 34 -28 58
v 36 -30 58
v 16 -30 58
v 18 -28 58
v 36 -46 58
v 34 -48 58
v 12 -39 58
v 12 -37 58
v 40 -37 58
v 40 -39 58
v 25 -24 58
v 27 -24 58
v 27 -52 58
v 25 -52 58
v 0 -30 62
v 0 -28 64
v 0 -46 82
v 0 -48 80
v 0 -28 80
v 0 -30 82
v 0 -48 64
v 0 -46 62
v 0 -24 71
v 0 -24 73
v 0 -52 73
v 0 -52 71
v 0 -37 86
v 0 -39 86
v 0 -39 58
v 0 -37 58
v -8 -38 62
v -10 -38 64
v 8 -38 82
v 10 -38 80
v -10 -38 80
v -8 -38 82
v 10 -38 64
v 8 -38 62
v -14 -38 71
v -14 -38 73
v 14 -38 73
v 14 -38 71
v -1 -38 86
v 1 -38 86
v 1 -38 58
v -1 -38 58
v -8 -48 72
v -10 -46 72
v 8 -28 72
v 10 -30 72
v -10 -30 72
v -8 -28 72
v 10 -46 72
v 8 -48 72
v -14 -39 72
v -14 -37 72
v 14 -37 72
v 14 -39 72
v -1 -24 72
v 1 -24 72
v 1 -52 72
v -1 -52 72
v -30 -30 48
v -30 -28 50
v -30 -46 68
v -30 -48 66
v -30 -28 66
v -30 -30 68
v -30 -48 50
v -30 -46 48
v -30 -24 57
v -30 -24 59
v -30 -52 59
v -30 -52 57
v -30 -37 72
v -30 -39 72
v -30 -39 44
v -30 -37 44
v -22 -38 48
v -20 -38 50
v -38 -38 68
v -40 -38 66
v -20 -38 66
v -22 -38 68
v -40 -38 50
v -38 -38 48
v -16 -38 57
v -16 -38 59
v -44 -38 59
v -44 -38 57
v -29 -38 72
v -31 -38 72
v -31 -38 44
v -29 -38 44
v -22 -48 58
v -20 -46 58
v -38 -28 58
v -40 -30 58
v -20 -30 58
v -22 -28 58
v -40 -46 58
v -38 -48 58
v -16 -39 58
v -16 -37 58
v -44 -37 58
v -44 -39 58
v -29 -24 58
v -31 -24 58
v -31 -52 58
v -29 -52 58
v -34 -30 34
v -36 -28 34
v -54 -46 34
v -52 -48 34
v -52 -28 34
v -54 -30 34
v -36 -48 34
v -34 -46 34
v -43 -24 34
v -45 -24 34
v -45 -52 34
v -43 -52 34
v -58 -37 34
v -58 -39 34
v -30 -39 34
v -30 -37 34
v -34 -38 26
v -36 -38 24
v -54 -38 42
v -52 -38 44
v -52 -38 24
v -54 -38 26
v -36 -38 44
v -34 -38 42
v -43 -38 20
v -45 -38 20
v -45 -38 48
v -43 -38 48
v -58 -38 33
v -58 -38 35
v -30 -38 35
v -30 -38 33
v -44 -48 26
v -44 -46 24
v -44 -28 42
v -44 -30 44
v -44 -30 24
v -44 -28 26
v -44 -46 44
v -44 -48 42
v -44 -39 20
v -44 -37 20
v -44 -37 48
v -44 -39 48
v -44 -24 33
v -44 -24 35
v -44 -52 35
v -44 -52 33

f 1 2 3
f 1 3 4
f 1 4 2
f 2 4 3
f 5 6 7
f 5 7 8
f 5 8 6
f 6 8 7
f 9 10 11
f 9 11 12
f 9 12 10
f 10 12 11
f 13 14 15
f 13 15 16
f 13 16 14
f 14 16 15
f 17 18 19
f 17 19 20
f 17 20 18
f 18 20 19
f 21 22 23
f 21 23 24
f 21 24 22
f 22 24 23
f 25 26 27
f 25 27 28
f 25 28 26
f 26 28 27
f 29 30 31
f 29 31 32
f 29 32 30
f 30 32 31
f 33 34 35
f 33 35 36
f 33 36 34
f 34 36 35
f 37 38 39
f 37 39 40
f 37 40 38
f 38 40 39
f 41 42 43
f 41 43 44
f 41 44 42
f 42 44 43
f 45 46 47
f 45 47 48
f 45 48 46
f 46 48 47
f 49 50 51
f 49 51 52
f 49 52 50
f 50 52 51
f 53 54 55
f 53 55 56
f 53 56 54
f 54 56 55
f 57 58 59
f 57 59 60
f 57 60 58
f 58 60 59
f 61 62 63
f 61 63 64
f 61 64 62
f 62 64 63
f 65 66 67
f 65 67 68
f 65 68 66
f 66 68 67
f 69 70 71
f 69 71 72
f 69 72 70
f 70 72 71
f 73 74 75
f 73 75 76
f 73 76 74
f 74 76 75
f 77 78 79
f 77 79 80
f 77 80 78
f 78 80 79
f 81 82 83
f 81 83 84
f 81 84 82
f 82 84 83
f 85 86 87
f 85 87 88
f 85 88 86
f 86 88 87
f 89 90 91
f 89 91 92
f 89 92 90
f 90 92 91
f 93 94 95
f 93 95 96
f 93 96 94
f 94 96 95
f 97 98 99
f 97 99 100
f 97 100 98
f 98 100 99
f 101 102 103
f 101 103 104
f 101 104 102
f 102 104 103
f 105 106 107
f 105 107 108
f 105 108 106
f 106 108 107
f 109 110 111
f 109 111 112
f 109 112 110
f 110 112 111
f 113 114 115
f 113 115 116
f 113 116 114
f 114 116 115
f 117 118 119
f 117 119 120
f 117 120 118
f 118 120 119
f 121 122 123
f 121 123 124
f 121 124 122
f 122 124 123
f 125 126 127
f 125 127 128
f 125 128 126
f 126 128 127
f 129 130 131
f 129 131 132
f 129 132 130
f 130 132 131
f 133 134 135
f 133 135 136
f 133 136 134
f 134 136 135
f 137 138 139
f 137 139 140
f 137 140 138
f 138 140 139
f 141 142 143
f 141 143 144
f 141 144 142
f 142 144 143
f 145 146 147
f 145 147 148
f 145 148 146
f 146 148 147
f 149 150 151
f 149 151 152
f 149 152 150
f 150 152 151
f 153 154 155
f 153 155 156
f 153 156 154
f 154 156 155
f 157 158 159
f 157 159 160
f 157 160 158
f 158 160 159
f 161 162 163
f 161 163 164
f 161 164 162
f 162 164 163
f 165 166 167
f 165 167 168
f 165 168 166
f 166 168 167
f 169 170 171
f 169 171 172
f 169 172 170
f 170 172 171
f 173 174 175
f 173 175 176
f 173 176 174
f 174 176 175
f 177 178 179
f 177 179 180
f 177 180 178
f 178 180 179
f 181 182 183
f 181 183 184
f 181 184 182
f 182 184 183
f 185 186 187
f 185 187 188
f 185 188 186
f 186 188 187
f 189 190 191
f 189 191 192
f 189 192 190
f 190 192 191
f 193 194 195
f 193 195 196
f 193 196 194
f 194 196 195
f 197 198 199
f 197 199 200
f 197 200 198
f 198 200 199
f 201 202 203
f 201 203 204
f 201 204 202
f 202 204 203
f 205 206 207
f 205 207 208
f 205 208 206
f 206 208 207
f 209 210 211
f 209 211 212
f 209 212 210
f 210 212 211
f 213 214 215
f 213 215 216
f 213 216 214
f 214 216 215
f 217 218 219
f 217 219 220
f 217 220 218
f 218 220 219
f 221 222 223
f 221 223 224
f 221 224 222
f 222 224 223
f 225 226 227
f 225 227 228
f 225 228 226
f 226 228 227
f 229 230 231
f 229 231 232
f 229 232 230
f 230 232 231
f 233 234 235
f 233 235 236
f 233 236 234
f 234 236 235
f 237 238 239
f 237 239 240
f 237 240 238
f 238 240 239
f 241 242 243
f 241 243 244
f 241 244 242
f 242 244 243
f 245 246 247
f 245 247 248
f 245 248 246
f 246 248 247
f 249 250 251
f 249 251 252
f 249 252 250
f 250 252 251
f 253 254 255
f 253 255 256
f 253 256 254
f 254 256 255
f 257 258 259
f 257 259 260
f 257 260 258
f 258 260 259
f 261 262 263
f 261 263 264
f 261 264 262
f 262 264 263
f 265 266 267
f 265 267 268
f 265 268 266
f 266 268 267
f 269 270 271
f 269 271 272
f 269 272 270
f 270 272 271
f 273 274 275
f 273 275 276
f 273 276 274
f 274 276 275
f 277 278 279
f 277 279 280
f 277 280 278
f 278 280 279
f 281 282 283
f 281 283 284
f 281 284 282
f 282 284 283
f 285 286 287
f 285 287 288
f 285 288 286
f 286 288 287
f 289 290 291
f 289 291 292
f 289 292 290
f 290 292 291
f 293 294 295
f 293 295 296
f 293 296 294
f 294 296 295
f 297 298 299
f 297 299 300
f 297 300 298
f 298 300 299
f 301 302 303
f 301 303 304
f 301 304 302
f 302 304 303
f 305 306 307
f 305 307 308
f 305 308 306
f 306 308 307
f 309 310 311
f 309 311 312
f 309 312 310
f 310 312 311
f 313 314 315
f 313 315 316
f 313 316 314
f 314 316 315
f 317 318 319
f 317 319 320
f 317 320 318
f 318 320 319
f 321 322 323
f 321 323 324
f 321 324 322
f 322 324 323
f 325 326 327
f 325 327 328
f 325 328 326
f 326 328 327
f 329 330 331
f 329 331 332
f 329 332 330
f 330 332 331
f 333 334 335
f 333 335 336
f 333 336 334
f 334 336 335
f 337 338 339
f 337 339 340
f 337 340 338
f 338 340 339
f 341 342 343
f 341 343 344
f 341 344 342
f 342 344 343
f 345 346 347
f 345 347 348
f 345 348 346
f 346 348 347
f 349 350 351
f 349 351 352
f 349 352 350
f 350 352 351
f 353 354 355
f 353 355 356
f 353 356 354
f 354 356 355
f 357 358 359
f 357 359 360
f 357 360 358
f 358 360 359
f 361 362 363
f 361 363 364
f 361 364 362
f 362 364 363
f 365 366 367
f 365 367 368
f 365 368 366
f 366 368 367
f 369 370 371
f 369 371 372
f 369 372 370
f 370 372 371
f 373 374 375
f 373 375 376
f 373 376 374
f 374 376 375
f 377 378 379
f 377 379 380
f 377 380 378
f 378 380 379
f 381 382 383
f 381 383 384
f 381 384 382
f 382 384 383
f 385 386 387
f 385 387 388
f 385 388 386
f 386 388 387
f 389 390 391
f 389 391 392
f 389 392 390
f 390 392 391
f 393 394 395
f 393 395 396
f 393 396 394
f 394 396 395
f 397 398 399
f 397 399 400
f 397 400 398
f 398 400 399
f 401 402 403
f 401 403 404
f 401 404 402
f 402 404 403
f 405 406 407
f 405 407 408
f 405 408 406
f 406 408 407
f 409 410 411
f 409 411 412
f 409 412 410
f 410 412 411
f 413 414 415
f 413 415 416
f 413 416 414
f 414 416 415
f 417 418 419
f 417 419 420
f 417 420 418
f 418 420 419
f 421 422 423
f 421 423 424
f 421 424 422
f 422 424 423
f 425 426 427
f 425 427 428
f 425 428 426
f 426 428 427
f 429 430 431
f 429 431 432
f 429 432 430
f 430 432 431
f 433 434 435
f 433 435 436
f 433 436 434
f 434 436 435
f 437 438 439
f 437 439 440
f 437 440 438
f 438 440 439
f 441 442 443
f 441 443 444
f 441 444 442
f 442 444 443
f 445 446 447
f 445 447 448
f 445 448 446
f 446 448 447
f 449 450 451
f 449 451 452
f 449 452 450
f 450 452 451
f 453 454 455
f 453 455 456
f 453 456 454
f 454 456 455
f 457 458 459
f 457 459 460
f 457 460 458
f 458 460 459
f 461 462 463
f 461 463 464
f 461 464 462
f 462 464 463
f 465 466 467
f 465 467 468
f 465 468 466
f 466 468 467
f 469 470 471
f 469 471 472
f 469 472 470
f 470 472 471
f 473 474 475
f 473 475 476
f 473 476 474
f 474 476 475
f 477 478 479
f 477 479 480
f 477 480 478
f 478 480 479
f 481 482 483
f 481 483 484
f 481 484 482
f 482 484 483
f 485 486 487
f 485 487 488
f 485 488 486
f 486 488 487
f 489 490 491
f 489 491 492
f 489 492 490
f 490 492 491
f 493 494 495
f 493 495 496
f 493 496 494
f 494 496 495
f 497 498 499
f 497 499 500
f 497 500 498
f 498 500 499
f 501 502 503
f 501 503 504
f 501 504 502
f 502 504 503
f 505 506 507
f 505 507 508
f 505 508 506
f 506 508 507
f 509 510 511
f 509 511 512
f 509 512 510
f 510 512 511
f 513 514 515
f 513 515 516
f 513 516 514
f 514 516 515
f 517 518 519
f 517 519 520
f 517 520 518
f 518 520 519
f 521 522 523
f 521 523 524
f 521 524 522
f 522 524 523
f 525 526 527
f 525 527 528
f 525 528 526
f 526 528 527
f 529 530 531
f 529 531 532
f 529 532 530
f 530 532 531
f 533 534 535
f 533 535 536
f 533 536 534
f 534 536 535
f 537 538 539
f 537 539 540
f 537 540 538
f 538 540 539
f 541 542 543
f 541 543 544
f 541 544 542
f 542 544 543
f 545 546 547
f 545 547 548
f 545 548 546
f 546 548 547
f 549 550 551
f 549 551 552
f 549 552 550
f 550 552 551
f 553 554 555
f 553 555 556
f 553 556 554
f 554 556 555
f 557 558 559
f 557 559 560
f 557 560 558
f 558 560 559
f 561 562 563
f 561 563 564
f 561 564 562
f 562 564 563
f 565 566 567
f 565 567 568
f 565 568 566
f 566 568 567
f 569 570 571
f 569 571 572
f 569 572 570
f 570 572 571
f 573 574 575
f 573 575 576
f 573 576 574
f 574 576 575
f 577 578 579
f 577 579 580
f 577 580 578
f 578 580 579
f 581 582 583
f 581 583 584
f 581 584 582
f 582 584 583
f 585 586 587
f 585 587 588
f 585 588 586
f 586 588 587
f 589 590 591
f 589 591 592
f 589 592 590
f 590 592 591
f 593 594 595
f 593 595 596
f 593 596 594
f 594 596 595
f 597 598 599
f 597 599 600
f 597 600 598
f 598 600 599
f 601 602 603
f 601 603 604
f 601 604 602
f 602 604 603
f 605 606 607
f 605 607 608
f 605 608 606
f 606 608 607
f 609 610 611
f 609 611 612
f 609 612 610
f 610 612 611
f 613 614 615
f 613 615 616
f 613 616 614
f 614 616 615
f 617 618 619
f 617 619 620
f 617 620 618
f 618 620 619
f 621 622 623
f 621 623 624
f 621 624 622
f 622 624 623
f 625 626 627
f 625 627 628
f 625 628 626
f 626 628 627
f 629 630 631
f 629 631 632
f 629 632 630
f 630 632 631
f 633 634 635
f 633 635 636
f 633 636 634
f 634 636 635
f 637 638 639
f 637 639 640
f 637 640 638
f 638 640 639
f 641 642 643
f 641 643 644
f 641 644 642
f 642 644 643
f 645 646 647
f 645 647 648
f 645 648 646
f 646 648 647
f 649 650 651
f 649 651 652
f 649 652 650
f 650 652 651
f 653 654 655
f 653 655 656
f 653 656 654
f 654 656 655
f 657 658 659
f 657 659 660
f 657 660 658
f 658 660 659
f 661 662 663
f 661 663 664
f 661 664 662
f 662 664 663
f 665 666 667
f 665 667 668
f 665 668 666
f 666 668 667
f 669 670 671
f 669 671 672
f 669 672 670
f 670 672 671
f 673 674 675
f 673 675 676
f 673 676 674
f 674 676 675
f 677 678 679
f 677 679 680
f 677 680 678
f 678 680 679
f 681 682 683
f 681 683 684
f 681 684 682
f 682 684 683
f 685 686 687
f 685 687 688
f 685 688 686
f 686 688 687
f 689 690 691
f 689 691 692
f 689 692 690
f 690 692 691
f 693 694 695
f 693 695 696
f 693 696 694
f 694 696 695
f 697 698 699
f 697 699 700
f 697 700 698
f 698 700 699
f 701 702 703
f 701 703 704
f 701 704 702
f 702 704 703
f 705 706 707
f 705 707 708
f 705 708 706
f 706 708 707
f 709 710 711
f 709 711 712
f 709 712 710
f 710 712 711
f 713 714 715
f 713 715 716
f 713 716 714
f 714 716 715
f 717 718 719
f 717 719 720
f 717 720 718
f 718 720 719
f 721 722 723
f 721 723 724
f 721 724 722
f 722 724 723
f 725 726 727
f 725 727 728
f 725 728 726
f 726 728 727
f 729 730 731
f 729 731 732
f 729 732 730
f 730 732 731
f 733 734 735
f 733 735 736
f 733 736 734
f 734 736 735
f 737 738 739
f 737 739 740
f 737 740 738
f 738 740 739
f 741 742 743
f 741 743 744
f 741 744 742
f 742 744 743
f 745 746 747
f 745 747 748
f 745 748 746
f 746 748 747
f 749 750 751
f 749 751 752
f 749 752 750
f 750 752 751
f 753 754 755
f 753 755 756
f 753 756 754
f 754 756 755
f 757 758 759
f 757 759 760
f 757 760 758
f 758 760 759
f 761 762 763
f 761 763 764
f 761 764 762
f 762 764 763
f 765 766 767
f 765 767 768
f 765 768 766
f 766 768 767
f 769 770 771
f 769 771 772
f 769 772 770
f 770 772 771
f 773 774 775
f 773 775 776
f 773 776 774
f 774 776 775
f 777 778 779
f 777 779 780
f 777 780 778
f 778 780 779
f 781 782 783
f 781 783 784
f 781 784 782
f 782 784 783
f 785 786 787
f 785 787 788
f 785 788 786
f 786 788 787
f 789 790 791
f 789 791 792
f 789 792 790
f 790 792 791
f 793 794 795
f 793 795 796
f 793 796 794
f 794 796 795
f 797 798 799
f 797 799 800
f 797 800 798
f 798 800 799
f 801 802 803
f 801 803 804
f 801 804 802
f 802 804 803
f 805 806 807
f 805 807 808
f 805 808 806
f 806 808 807
f 809 810 811
f 809 811 812
f 809 812 810
f 810 812 811
f 813 814 815
f 813 815 816
f 813 816 814
f 814 816 815
f 817 818 819
f 817 819 820
f 817 820 818
f 818 820 819
f 821 822 823
f 821 823 824
f 821 824 822
f 822 824 823
f 825 826 827
f 825 827 828
f 825 828 826
f 826 828 827
f 829 830 831
f 829 831 832
f 829 832 830
f 830 832 831
f 833 834 835
f 833 835 836
f 833 836 834
f 834 836 835
f 837 838 839
f 837 839 840
f 837 840 838
f 838 840 839
f 841 842 843
f 841 843 844
f 841 844 842
f 842 844 843
f 845 846 847
f 845 847 848
f 845 848 846
f 846 848 847
f 849 850 851
f 849 851 852
f 849 852 850
f 850 852 851
f 853 854 855
f 853 855 856
f 853 856 854
f 854 856 855
f 857 858 859
f 857 859 860
f 857 860 858
f 858 860 859
f 861 862 863
f 861 863 864
f 861 864 862
f 862 864 863
f 865 866 867
f 865 867 868
f 865 868 866
f 866 868 867
f 869 870 871
f 869 871 872
f 869 872 870
f 870 872 871
f 873 874 875
f 873 875 876
f 873 876 874
f 874 876 875
f 877 878 879
f 877 879 880
f 877 880 878
f 878 880 879
f 881 882 883
f 881 883 884
f 881 884 882
f 882 884 883
f 885 886 887
f 885 887 888
f 885 888 886
f 886 888 887
f 889 890 891
f 889 891 892
f 889 892 890
f 890 892 891
f 893 894 895
f 893 895 896
f 893 896 894
f 894 896 895
f 897 898 899
f 897 899 900
f 897 900 898
f 898 900 899
f 901 902 903
f 901 903 904
f 901 904 902
f 902 904 903
f 905 906 907
f 905 907 908
f 905 908 906
f 906 908 907
f 909 910 911
f 909 911 912
f 909 912 910
f 910 912 911
f 913 914 915
f 913 915 916
f 913 916 914
f 914 916 915
f 917 918 919
f 917 919 920
f 917 920 918
f 918 920 919
f 921 922 923
f 921 923 924
f 921 924 922
f 922 924 923
f 925 926 927
f 925 927 928
f 925 928 926
f 926 928 927
f 929 930 931
f 929 931 932
f 929 932 930
f 930 932 931
f 933 934 935
f 933 935 936
f 933 936 934
f 934 936 935
f 937 938 939
f 937 939 940
f 937 940 938
f 938 940 939
f 941 942 943
f 941 943 944
f 941 944 942
f 942 944 943
f 945 946 947
f 945 947 948
f 945 948 946
f 946 948 947
f 949 950 951
f 949 951 952
f 949 952 950
f 950 952 951
f 953 954 955
f 953 955 956
f 953 956 954
f 954 956 955
f 957 958 959
f 957 959 960
f 957 960 958
f 958 960 959
f 961 962 963
f 961 963 964
f 961 964 962
f 962 964 963
f 965 966 967
f 965 967 968
f 965 968 966
f 966 968 967
f 969 970 971
f 969 971 972
f 969 972 970
f 970 972 971
f 973 974 975
f 973 975 976
f 973 976 974
f 974 976 975
f 977 978 979
f 977 979 980
f 977 980 978
f 978 980 979
f 981 982 983
f 981 983 984
f 981 984 982
f 982 984 983
f 985 986 987
f 985 987 988
f 985 988 986
f 986 988 987
f 989 990 991
f 989 991 992
f 989 992 990
f 990 992 991
f 993 994 995
f 993 995 996
f 993 996 994
f 994 996 995
f 997 998 999
f 997 999 1000
f 997 1000 998
f 998 1000 999
f 1001 1002 1003
f 1001 1003 1004
f 1001 1004 1002
f 1002 1004 1003
f 1005 1006 1007
f 1005 1007 1008
f 1005 1008 1006
f 1006 1008 1007
f 1009 1010 1011
f 1009 1011 1012
f 1009 1012 1010
f 1010 1012 1011
f 1013 1014 1015
f 1013 1015 1016
f 1013 1016 1014
f 1014 1016 1015
f 1017 1018 1019
f 1017 1019 1020
f 1017 1020 1018
f 1018 1020 1019
f 1021 1022 1023
f 1021 1023 1024
f 1021 1024 1022
f 1022 1024 1023
f 1025 1026 1027
f 1025 1027 1028
f 1025 1028 1026
f 1026 1028 1027
f 1029 1030 1031
f 1029 1031 1032
f 1029 1032 1030
f 1030 1032 1031
f 1033 1034 1035
f 1033 1035 1036
f 1033 1036 1034
f 1034 1036 1035
f 1037 1038 1039
f 1037 1039 1040
f 1037 1040 1038
f 1038 1040 1039
f 1041 1042 1043
f 1041 1043 1044
f 1041 1044 1042
f 1042 1044 1043
f 1045 1046 1047
f 1045 1047 1048
f 1045 1048 1046
f 1046 1048 1047
f 1049 1050 1051
f 1049 1051 1052
f 1049 1052 1050
f 1050 1052 1051
f 1053 1054 1055
f 1053 1055 1056
f 1053 1056 1054
f 1054 1056 1055
f 1057 1058 1059
f 1057 1059 1060
f 1057 1060 1058
f 1058 1060 1059
f 1061 1062 1063
f 1061 1063 1064
f 1061 1064 1062
f 1062 1064 1063
f 1065 1066 1067
f 1065 1067 1068
f 1065 1068 1066
f 1066 1068 1067
f 1069 1070 1071
f 1069 1071 1072
f 1069 1072 1070
f 1070 1072 1071
f 1073 1074 1075
f 1073 1075 1076
f 1073 1076 1074
f 1074 1076 1075
f 1077 1078 1079
f 1077 1079 1080
f 1077 1080 1078
f 1078 1080 1079
f 1081 1082 1083
f 1081 1083 1084
f 1081 1084 1082
f 1082 1084 1083
f 1085 1086 1087
f 1085 1087 1088
f 1085 1088 1086
f 1086 1088 1087
f 1089 1090 1091
f 1089 1091 1092
f 1089 1092 1090
f 1090 1092 1091
f 1093 1094 1095
f 1093 1095 1096
f 1093 1096 1094
f 1094 1096 1095
f 1097 1098 1099
f 1097 1099 1100
f 1097 1100 1098
f 1098 1100 1099
f 1101 1102 1103
f 1101 1103 1104
f 1101 1104 1102
f 1102 1104 1103
f 1105 1106 1107
f 1105 1107 1108
f 1105 1108 1106
f 1106 1108 1107
f 1109 1110 1111
f 1109 1111 1112
f 1109 1112 1110
f 1110 1112 1111
f 1113 1114 1115
f 1113 1115 1116
f 1113 1116 1114
f 1114 1116 1115
f 1117 1118 1119
f 1117 1119 1120
f 1117 1120 1118
f 1118 1120 1119
f 1121 1122 1123
f 1121 1123 1124
f 1121 1124 1122
f 1122 1124 1123
f 1125 1126 1127
f 1125 1127 1128
f 1125 1128 1126
f 1126 1128 1127
f 1129 1130 1131
f 1129 1131 1132
f 1129 1132 1130
f 1130 1132 1131
f 1133 1134 1135
f 1133 1135 1136
f 1133 1136 1134
f 1134 1136 1135
f 1137 1138 1139
f 1137 1139 1140
f 1137 1140 1138
f 1138 1140 1139
f 1141 1142 1143
f 1141 1143 1144
f 1141 1144 1142
f 1142 1144 1143
f 1145 1146 1147
f 1145 1147 1148
f 1145 1148 1146
f 1146 1148 1147
f 1149 1150 1151
f 1149 1151 1152
f 1149 1152 1150
f 1150 1152 1151
