# RS2 Model 31565
# Vertices: 279
# Faces: 360

v -5 -7 189
v -7 -7 197
v -9 -2 195
v -8 -3 188
v -9 2 193
v -10 1 187
v -10 5 187
v -9 6 191
v -6 10 190
v -6 10 186
v -3 13 189
v -3 13 186
v 2 14 189
v 2 13 186
v 6 10 186
v 6 10 190
v 9 6 186
v 9 6 191
v 10 1 187
v 9 2 193
v 8 -3 188
v 9 -2 195
v 6 -7 189
v 7 -7 197
v 2 -9 198
v 0 -9 190
v -3 -9 198
v -2 -4 194
v -6 -2 193
v -8 1 191
v -8 3 191
v -8 6 189
v -5 10 188
v -3 12 188
v 0 13 188
v 4 12 188
v 6 10 188
v 8 6 189
v 8 3 191
v 8 1 191
v 6 -2 193
v 1 -4 194
v 8 -9 191
v 8 -7 191
v 8 -8 194
v 9 -1 191
v 8 -8 188
v 10 -5 191
v 9 -5 193
v 9 -5 195
v 9 -2 194
v 9 -3 191
v 9 -2 188
v 9 -5 186
v 9 -6 186
v 10 -5 187
v 10 -5 189
v 9 -4 186
v 9 -4 184
v 9 -6 184
v 10 -3 180
v 10 -8 180
v 11 -5 180
v 10 -2 176
v 10 -8 176
v 11 -5 176
v 9 -3 172
v 9 -8 171
v 10 -5 171
v 9 -3 168
v 9 -1 165
v 9 -7 167
v -8 -9 191
v -8 -8 194
v -8 -7 191
v -8 -8 188
v -9 -1 191
v -9 -2 194
v -9 -5 195
v -9 -5 193
v -10 -5 191
v -10 -5 189
v -10 -5 187
v -9 -6 186
v -9 -5 186
v -9 -2 188
v -9 -3 191
v -9 -4 186
v -9 -4 184
v -10 -3 180
v -9 -6 184
v -11 -5 180
v -10 -8 180
v -10 -2 176
v -11 -5 176
v -10 -8 176
v -9 -3 172
v -10 -5 171
v -9 -8 171
v -9 -3 168
v -9 -1 165
v -9 -7 167
v -4 -6 194
v -4 -1 198
v -6 -1 200
v -6 -3 198
v -6 -6 194
v -4 -5 194
v -6 12 201
v -7 5 202
v -9 10 201
v -12 12 199
v -4 15 199
v -7 18 202
v -8 17 205
v -11 18 202
v -13 19 200
v -5 22 200
v -8 26 202
v -6 29 200
v -9 32 202
v -8 36 199
v -11 35 203
v -13 30 202
v -12 25 202
v -14 26 200
v -14 49 196
v 2 -6 194
v 4 -1 200
v 2 -1 198
v 2 -5 194
v 5 5 202
v 4 12 201
v 2 15 199
v 6 18 205
v 5 18 202
v 3 22 200
v 6 26 202
v 7 32 202
v 6 36 199
v 4 29 200
v 9 35 203
v 12 49 196
v 11 30 202
v 10 25 202
v 13 33 199
v 4 -3 198
v 7 10 201
v 9 18 202
v 12 26 200
v 4 -6 194
v 10 12 199
v 11 19 200
v -6 -4 195
v -6 0 195
v -8 0 197
v -8 -1 196
v -8 -4 195
v -6 -3 194
v -8 9 195
v -9 5 198
v -11 8 195
v -14 9 193
v -6 10 193
v -9 13 195
v -11 16 197
v -13 13 195
v -15 14 193
v -7 16 192
v -10 19 193
v -8 20 190
v -11 23 192
v -10 25 188
v -13 25 192
v -15 22 192
v -14 18 193
v -16 18 191
v -17 23 188
v 0 -4 195
v 2 0 197
v 0 0 195
v 0 -3 194
v 3 5 198
v 2 9 195
v 0 10 193
v 4 16 196
v 3 13 195
v 1 16 192
v 4 19 193
v 5 23 192
v 4 25 188
v 2 20 190
v 7 25 192
v 10 32 182
v 9 22 192
v 8 18 193
v 11 23 188
v 2 -1 196
v 5 8 195
v 7 13 195
v 10 18 191
v 2 -4 195
v 8 9 193
v 9 14 193
v -2 -5 194
v -2 -2 198
v -4 -3 200
v -4 -3 199
v -4 6 203
v -5 1 204
v -7 5 203
v -2 7 202
v -5 9 206
v -7 9 207
v -9 9 206
v -11 11 205
v -3 13 205
v -6 15 207
v -4 17 205
v -7 19 209
v -6 23 207
v -9 20 210
v -11 18 208
v -10 14 207
v -12 15 205
v -12 32 206
v -13 21 205
v 0 -6 196
v 1 -3 200
v 0 -2 203
v -1 -3 200
v -1 -5 195
v 1 -5 195
v 2 5 206
v 0 1 205
v -2 5 206
v -4 7 205
v 4 7 205
v 2 10 208
v 0 7 209
v -2 10 208
v -4 12 207
v 4 12 207
v 2 16 209
v 4 17 208
v 2 21 210
v 4 22 208
v 0 22 212
v -2 21 210
v -2 16 209
v -4 17 208
v 0 34 208
v -4 22 208
v 4 -5 194
v 6 -3 200
v 4 -2 198
v 4 -4 194
v 7 3 205
v 6 6 203
v 4 7 202
v 7 9 206
v 5 13 205
v 8 15 207
v 9 12 209
v 9 19 209
v 8 23 207
v 6 17 205
v 11 20 210
v 14 32 206
v 13 18 208
v 12 14 207
v 15 21 205
v 6 -3 199
v 9 5 203
v 11 9 206
v 6 -5 194
v 12 7 202
v 13 11 205
v 14 15 205

f 1 2 3
f 1 3 4
f 4 3 5
f 4 5 6
f 6 5 7
f 7 5 8
f 7 8 9
f 7 9 10
f 10 9 11
f 10 11 12
f 12 11 13
f 12 13 14
f 14 13 15
f 15 13 16
f 15 16 17
f 17 16 18
f 17 18 19
f 19 18 20
f 19 20 21
f 21 20 22
f 21 22 23
f 23 22 24
f 23 24 25
f 23 25 26
f 26 25 27
f 26 27 1
f 1 27 2
f 2 27 28
f 2 28 29
f 2 29 3
f 3 29 30
f 3 30 31
f 3 31 5
f 5 31 32
f 5 32 8
f 8 32 33
f 8 33 9
f 9 33 34
f 9 34 11
f 11 34 35
f 11 35 13
f 13 35 36
f 13 36 16
f 16 36 37
f 16 37 38
f 16 38 18
f 18 38 20
f 20 38 39
f 20 39 40
f 20 40 22
f 22 40 41
f 22 41 24
f 24 41 25
f 25 41 42
f 25 42 27
f 27 42 28
f 43 44 45
f 43 45 46
f 43 46 47
f 43 47 44
f 44 47 48
f 44 48 45
f 45 48 49
f 45 49 50
f 45 50 51
f 45 51 46
f 46 51 52
f 46 52 53
f 46 53 47
f 47 53 54
f 47 54 55
f 47 55 56
f 47 56 57
f 47 57 48
f 48 57 53
f 48 53 52
f 48 52 51
f 48 51 49
f 49 51 50
f 56 53 57
f 53 56 58
f 53 58 54
f 54 58 55
f 55 58 56
f 58 55 59
f 58 59 55
f 55 59 60
f 55 60 61
f 55 61 59
f 59 61 60
f 60 61 62
f 60 62 63
f 60 63 61
f 61 63 64
f 61 64 62
f 62 64 65
f 62 65 66
f 62 66 63
f 63 66 64
f 64 66 67
f 64 67 65
f 65 67 68
f 65 68 69
f 65 69 66
f 66 69 67
f 67 69 70
f 67 70 68
f 68 70 71
f 68 71 69
f 69 71 70
f 71 68 72
f 71 72 68
f 73 74 75
f 73 75 76
f 73 76 77
f 73 77 74
f 74 77 78
f 74 78 79
f 74 79 80
f 74 80 81
f 74 81 75
f 75 81 76
f 76 81 82
f 76 82 83
f 76 83 84
f 76 84 85
f 76 85 86
f 76 86 77
f 77 86 87
f 77 87 78
f 78 87 81
f 78 81 80
f 78 80 79
f 83 82 86
f 83 86 88
f 83 88 84
f 84 88 85
f 85 88 86
f 81 87 86
f 81 86 82
f 84 88 89
f 84 89 90
f 84 90 91
f 84 91 89
f 84 89 88
f 90 92 91
f 90 91 93
f 90 93 94
f 90 94 92
f 92 94 95
f 92 95 93
f 92 93 91
f 95 96 93
f 93 96 94
f 94 96 97
f 94 97 95
f 95 97 98
f 95 98 96
f 96 98 99
f 96 99 97
f 97 99 100
f 97 100 98
f 98 100 101
f 98 101 99
f 99 101 102
f 99 102 101
f 91 90 89
f 103 104 105
f 103 105 106
f 103 106 107
f 103 108 104
f 105 109 110
f 105 110 111
f 105 111 106
f 106 111 112
f 104 113 109
f 104 109 105
f 110 114 115
f 110 115 116
f 110 116 111
f 111 116 117
f 110 109 114
f 114 109 118
f 119 115 114
f 119 114 120
f 121 115 119
f 121 119 122
f 121 123 115
f 115 123 124
f 115 124 125
f 115 125 116
f 116 125 126
f 121 127 123
f 123 127 124
f 128 129 130
f 128 130 131
f 129 132 133
f 129 133 130
f 130 133 134
f 132 135 136
f 132 136 133
f 133 136 137
f 138 136 135
f 138 135 139
f 138 139 140
f 138 141 136
f 139 135 142
f 139 142 143
f 143 142 144
f 144 142 135
f 144 135 145
f 144 145 146
f 128 147 129
f 129 147 148
f 129 148 132
f 132 148 149
f 132 149 135
f 135 149 145
f 145 149 150
f 128 151 147
f 147 152 148
f 149 148 153
f 154 155 156
f 154 156 157
f 154 157 158
f 154 159 155
f 156 160 161
f 156 161 162
f 156 162 157
f 157 162 163
f 155 164 160
f 155 160 156
f 161 165 166
f 161 166 167
f 161 167 162
f 162 167 168
f 161 160 165
f 165 160 169
f 170 166 165
f 170 165 171
f 172 166 170
f 172 170 173
f 172 174 166
f 166 174 175
f 166 175 176
f 166 176 167
f 167 176 177
f 175 178 176
f 179 180 181
f 179 181 182
f 180 183 184
f 180 184 181
f 181 184 185
f 183 186 187
f 183 187 184
f 184 187 188
f 189 187 186
f 189 186 190
f 189 190 191
f 189 191 190
f 189 192 187
f 190 186 193
f 190 193 194
f 194 193 195
f 195 193 186
f 195 186 196
f 195 196 197
f 179 198 180
f 180 198 199
f 180 199 183
f 183 199 200
f 183 200 186
f 186 200 196
f 196 200 201
f 179 202 198
f 198 203 199
f 200 199 204
f 205 206 207
f 205 207 208
f 205 208 108
f 205 28 206
f 207 209 210
f 207 210 211
f 207 211 208
f 206 212 209
f 206 209 207
f 210 213 214
f 210 214 215
f 210 215 211
f 211 215 216
f 210 209 213
f 213 209 217
f 218 214 213
f 218 213 219
f 220 214 218
f 220 218 221
f 220 222 214
f 214 222 223
f 214 223 224
f 214 224 215
f 215 224 225
f 220 226 222
f 222 226 223
f 223 227 224
f 228 229 230
f 228 230 231
f 228 231 232
f 228 233 229
f 230 234 235
f 230 235 236
f 230 236 231
f 231 236 237
f 229 238 234
f 229 234 230
f 235 239 240
f 235 240 241
f 235 241 236
f 236 241 242
f 235 234 239
f 239 234 243
f 244 240 239
f 244 239 245
f 246 240 244
f 246 244 247
f 246 248 240
f 240 248 249
f 240 249 250
f 240 250 241
f 241 250 251
f 246 252 248
f 248 252 249
f 249 253 250
f 254 255 256
f 254 256 257
f 255 258 259
f 255 259 256
f 256 259 260
f 258 261 259
f 259 261 262
f 263 261 258
f 263 258 264
f 263 264 265
f 263 265 266
f 263 267 261
f 265 264 268
f 265 268 269
f 269 268 270
f 270 268 264
f 270 264 271
f 270 271 272
f 254 273 255
f 255 273 274
f 255 274 258
f 258 274 275
f 258 275 271
f 258 271 264
f 254 276 273
f 273 277 274
f 275 274 278
f 271 275 279
