# RS2 Model 3231
# Vertices: 32
# Faces: 36

v -63 -49 -3
v -63 -62 -3
v 64 -64 200
v 64 -51 200
v -54 -49 -3
v 64 -51 186
v -51 -60 -3
v 64 -62 184
v -48 -51 442
v -42 -50 444
v -42 -42 444
v -48 -40 442
v 64 -38 235
v 64 -49 229
v 64 -49 246
v 64 -38 246
v -63 63 -3
v -63 50 -3
v 64 48 200
v 64 61 200
v -54 63 -3
v 64 61 186
v -51 52 -3
v 64 50 184
v -48 29 442
v -42 30 444
v -42 38 444
v -48 40 442
v 64 42 235
v 64 31 229
v 64 31 246
v 64 42 246

f 1 2 3
f 1 3 4
f 1 4 5
f 5 4 6
f 5 6 7
f 7 6 8
f 7 8 2
f 2 8 3
f 9 10 11
f 9 11 12
f 9 12 13
f 9 13 14
f 9 14 10
f 10 14 15
f 10 15 11
f 11 15 16
f 11 16 12
f 12 16 13
f 17 18 19
f 17 19 20
f 17 20 21
f 21 20 22
f 21 22 23
f 23 22 24
f 23 24 18
f 18 24 19
f 25 26 27
f 25 27 28
f 25 28 29
f 25 29 30
f 25 30 26
f 26 30 31
f 26 31 27
f 27 31 32
f 27 32 28
f 28 32 29
