# RS2 Model 32718
# Vertices: 134
# Faces: 312

v -15 24 41
v -28 14 2
v -29 8 34
v -30 4 67
v -21 20 61
v 2 28 1
v 6 28 51
v 20 19 26
v -27 15 89
v -26 16 119
v -9 22 109
v -5 26 86
v -34 -2 148
v -28 14 147
v -32 1 107
v -26 10 165
v -18 22 183
v 3 30 183
v 5 27 200
v -4 28 200
v 14 26 219
v 32 13 219
v 3 28 242
v 8 27 247
v -15 20 265
v -8 23 284
v 17 25 283
v 18 26 262
v -29 7 287
v -26 16 322
v -34 -1 305
v -32 3 341
v -22 16 352
v 0 26 364
v 6 25 355
v 6 28 349
v -37 -31 295
v -36 -29 331
v -20 -51 308
v -30 -40 338
v -17 -48 344
v -3 -57 316
v -9 -59 277
v 16 -56 284
v 22 -54 265
v 36 -40 287
v 33 -50 322
v 36 10 388
v 37 8 376
v -31 2 87
v 8 27 99
v 23 18 89
v 20 22 102
v 38 3 102
v 46 -21 95
v 40 -6 88
v -36 -8 220
v -22 19 224
v -28 11 201
v 25 16 158
v 35 14 138
v 41 -2 152
v 42 -2 135
v 45 -22 147
v 45 -24 131
v 35 -48 147
v 33 -50 119
v 44 -25 98
v 28 16 62
v 38 9 51
v 40 -2 79
v 44 -6 68
v 22 -58 41
v 35 -48 2
v 39 -37 34
v 44 -26 66
v 28 -54 61
v 5 -62 1
v 1 -62 51
v -13 -52 26
v 34 -49 89
v 16 -56 109
v 12 -60 86
v 25 -56 183
v 2 -61 200
v 4 -63 183
v 11 -62 200
v -8 -60 219
v -25 -47 219
v 4 -62 242
v 0 -63 247
v -29 -44 388
v -30 -42 376
v 1 -62 349
v 1 -59 355
v 7 -60 364
v -1 -61 99
v -11 -57 83
v -13 -56 102
v -34 -34 102
v -30 -37 93
v -33 -36 90
v -37 -15 103
v -37 -16 95
v -38 -15 85
v -37 -28 68
v -33 -32 79
v 44 -25 220
v 29 -52 224
v 33 -48 210
v 35 -45 201
v 46 -28 198
v 41 -8 203
v 42 -30 262
v 43 -32 283
v 41 -33 305
v 42 -11 283
v 41 -12 304
v 42 9 290
v 41 8 310
v 32 14 268
v 32 15 289
v 38 -37 341
v -10 -58 164
v -33 -38 151
v -23 -47 126
v -5 -59 131
v -30 -37 167
v -36 -14 172
v -38 -14 157
v -21 -50 62
v -32 -43 51
v 23 16 190
v 40 3 185

f 1 2 3
f 1 3 4
f 1 4 5
f 1 5 4
f 1 4 3
f 1 3 2
f 1 2 6
f 1 6 2
f 6 1 7
f 6 7 8
f 6 8 7
f 6 7 1
f 9 5 4
f 9 4 10
f 9 10 11
f 9 11 12
f 9 12 11
f 9 11 10
f 9 10 4
f 9 4 5
f 13 14 15
f 13 15 14
f 13 14 16
f 13 16 14
f 14 16 17
f 14 17 18
f 14 18 17
f 14 17 16
f 17 19 18
f 17 18 19
f 17 19 20
f 17 20 19
f 19 20 21
f 19 21 22
f 19 22 18
f 19 18 22
f 19 22 21
f 19 21 20
f 23 24 22
f 23 22 21
f 23 21 22
f 23 22 24
f 23 24 25
f 23 25 24
f 24 25 26
f 24 26 27
f 24 27 28
f 24 28 27
f 24 27 26
f 24 26 25
f 25 26 29
f 25 29 26
f 26 29 30
f 26 30 29
f 29 30 31
f 29 31 30
f 30 31 32
f 30 32 33
f 30 33 34
f 30 34 35
f 30 35 36
f 30 36 35
f 30 35 34
f 30 34 33
f 30 33 32
f 30 32 31
f 31 32 37
f 31 37 32
f 32 37 38
f 32 38 37
f 37 38 39
f 37 39 38
f 38 39 40
f 38 40 39
f 39 40 41
f 39 41 40
f 41 39 42
f 41 42 39
f 39 42 43
f 39 43 42
f 42 43 44
f 42 44 43
f 43 44 45
f 43 45 44
f 44 45 46
f 44 46 47
f 44 47 46
f 44 46 45
f 48 49 36
f 48 36 35
f 48 35 34
f 48 34 35
f 48 35 36
f 48 36 49
f 14 10 4
f 14 4 50
f 14 50 15
f 14 15 50
f 14 50 4
f 14 4 10
f 51 52 12
f 51 12 11
f 51 11 12
f 51 12 52
f 51 52 53
f 51 53 52
f 52 53 54
f 52 54 55
f 52 55 56
f 52 56 55
f 52 55 54
f 52 54 53
f 57 58 20
f 57 20 59
f 57 59 20
f 57 20 58
f 57 58 29
f 57 29 58
f 29 57 31
f 29 31 57
f 60 61 53
f 60 53 51
f 60 51 53
f 60 53 61
f 60 61 62
f 60 62 61
f 61 62 63
f 61 63 62
f 62 63 64
f 62 64 63
f 63 64 65
f 63 65 64
f 64 65 66
f 64 66 65
f 65 66 67
f 65 67 68
f 65 68 67
f 65 67 66
f 69 70 8
f 69 8 7
f 69 7 8
f 69 8 70
f 69 70 71
f 69 71 70
f 70 71 56
f 70 56 72
f 70 72 56
f 70 56 71
f 56 55 72
f 56 72 55
f 59 20 17
f 59 17 20
f 73 74 75
f 73 75 76
f 73 76 77
f 73 77 76
f 73 76 75
f 73 75 74
f 73 74 78
f 73 78 74
f 78 73 79
f 78 79 80
f 78 80 79
f 78 79 73
f 81 77 76
f 81 76 67
f 81 67 82
f 81 82 83
f 81 83 82
f 81 82 67
f 81 67 76
f 81 76 77
f 84 85 86
f 84 86 66
f 84 66 64
f 84 64 66
f 84 66 86
f 84 86 85
f 84 85 87
f 84 87 85
f 85 87 88
f 85 88 89
f 85 89 86
f 85 86 89
f 85 89 88
f 85 88 87
f 90 91 89
f 90 89 88
f 90 88 89
f 90 89 91
f 90 91 45
f 90 45 91
f 91 45 43
f 91 43 45
f 92 93 94
f 92 94 95
f 92 95 96
f 92 96 95
f 92 95 94
f 92 94 93
f 97 98 83
f 97 83 82
f 97 82 83
f 97 83 98
f 97 98 99
f 97 99 98
f 98 99 100
f 98 100 101
f 98 101 102
f 98 102 101
f 98 101 100
f 98 100 99
f 103 104 102
f 103 102 101
f 103 101 100
f 103 100 101
f 103 101 102
f 103 102 104
f 103 104 15
f 103 15 104
f 104 15 105
f 104 105 106
f 104 106 107
f 104 107 106
f 104 106 105
f 104 105 15
f 15 105 50
f 15 50 105
f 108 109 110
f 108 110 111
f 108 111 112
f 108 112 113
f 108 113 112
f 108 112 111
f 108 111 110
f 108 110 109
f 108 109 114
f 108 114 109
f 109 114 115
f 109 115 116
f 109 116 46
f 109 46 116
f 109 116 115
f 109 115 114
f 114 115 117
f 114 117 115
f 115 117 118
f 115 118 117
f 117 118 119
f 117 119 118
f 118 119 120
f 118 120 119
f 119 120 121
f 119 121 120
f 120 121 122
f 120 122 121
f 121 122 28
f 121 28 122
f 122 28 27
f 122 27 28
f 116 47 46
f 116 46 47
f 116 47 123
f 116 123 47
f 47 123 96
f 47 96 95
f 47 95 94
f 47 94 95
f 47 95 96
f 47 96 123
f 124 125 126
f 124 126 127
f 124 127 126
f 124 126 125
f 124 125 128
f 124 128 125
f 125 128 129
f 125 129 130
f 125 130 129
f 125 129 128
f 97 127 126
f 97 126 99
f 97 99 126
f 97 126 127
f 79 131 132
f 79 132 80
f 79 80 132
f 79 132 131
f 131 132 106
f 131 106 132
f 106 131 107
f 106 107 131
f 111 87 84
f 111 84 87
f 111 87 110
f 111 110 87
f 87 110 109
f 87 109 110
f 16 13 130
f 16 130 129
f 16 129 130
f 16 130 13
f 62 60 133
f 62 133 134
f 62 134 133
f 62 133 60
f 134 133 113
f 134 113 112
f 134 112 113
f 134 113 133
f 68 67 76
f 68 76 67
