# RS2 Model 33232
# Vertices: 150
# Faces: 294

v 45 -8 98
v 49 -9 104
v 49 -21 95
v 43 -17 90
v 43 -13 91
v 45 -7 95
v 43 3 90
v 48 7 102
v 45 -7 108
v 49 -18 115
v 49 -21 110
v 49 -14 104
v 49 -22 100
v 49 -27 106
v 48 -38 107
v 45 -39 96
v 42 -39 86
v 42 -8 82
v 43 -9 85
v 47 -11 91
v 49 -7 94
v 48 -3 90
v 43 -3 90
v 41 0 81
v 47 20 90
v 47 22 95
v 47 16 101
v 47 23 110
v 43 6 114
v 43 0 116
v 45 -6 111
v 43 -14 118
v 42 -34 128
v 45 -36 117
v 53 -21 109
v 54 -16 104
v 53 -22 100
v 52 -26 105
v 57 -22 109
v 60 -19 105
v 57 -23 101
v 56 -25 105
v 62 -25 105
v 63 -23 107
v 64 -22 105
v 63 -24 103
v 69 -26 106
v 40 37 77
v 47 33 99
v 47 29 99
v 51 28 99
v 50 23 95
v 51 18 100
v 47 23 105
v 40 42 119
v 41 5 123
v 42 -3 124
v 43 -4 121
v 48 -3 120
v 48 1 116
v 49 -4 112
v 47 -7 116
v 43 -10 117
v 44 -37 130
v 47 -40 118
v 50 -42 108
v 47 -42 95
v 44 -42 84
v 42 0 79
v 41 39 75
v 46 39 98
v 48 41 98
v 41 44 120
v 42 5 125
v 40 6 128
v 41 -38 134
v 45 -42 121
v 50 -45 108
v 45 -45 94
v 41 -44 80
v 40 -1 76
v 39 41 73
v 48 43 97
v 36 -42 121
v 38 -45 108
v 36 -45 94
v 35 -44 80
v 33 -1 76
v 32 40 73
v 37 43 97
v 32 46 122
v 37 46 122
v 37 13 99
v 37 -9 101
v 37 -9 107
v 37 14 103
v 28 10 99
v 27 12 99
v 37 14 99
v 36 -11 101
v 29 -8 101
v 29 -7 107
v 28 -9 107
v 36 -11 107
v 33 6 128
v 37 15 103
v 28 10 104
v 23 4 100
v 22 5 100
v 27 12 104
v 55 19 100
v 54 22 96
v 60 20 98
v 61 19 100
v 54 23 104
v 56 26 99
v 61 23 99
v 67 17 100
v 60 21 102
v 50 24 104
v 48 -8 85
v 51 -10 91
v 53 -8 93
v 54 -4 90
v 53 -8 86
v 58 -9 88
v 57 -10 91
v 58 -9 92
v 58 -7 90
v 35 -38 134
v 51 -7 116
v 53 -4 120
v 54 -1 116
v 53 -5 113
v 57 -7 116
v 58 -5 118
v 58 -4 116
v 58 -6 115
v 23 -5 107
v 22 6 106
v 23 -5 101
v 24 -4 107
v 23 5 106
v 63 -12 91
v 63 -9 117
v 28 -9 101
v 24 -5 101
v 45 -31 136
v 45 -39 78
v 43 33 127

f 1 2 3
f 1 3 4
f 1 4 5
f 1 5 6
f 1 6 7
f 1 7 8
f 1 8 2
f 2 8 9
f 2 9 10
f 2 10 11
f 2 11 12
f 2 12 3
f 3 12 13
f 3 13 14
f 3 14 15
f 3 15 16
f 3 16 17
f 3 17 4
f 4 17 18
f 4 18 19
f 4 19 5
f 5 19 20
f 5 20 6
f 6 20 21
f 6 21 22
f 6 22 23
f 6 23 7
f 7 23 18
f 7 18 24
f 7 24 25
f 7 25 8
f 8 25 26
f 8 26 27
f 8 27 28
f 8 28 29
f 8 29 9
f 9 29 30
f 9 30 31
f 9 31 32
f 9 32 10
f 10 32 33
f 10 33 34
f 10 34 15
f 10 15 11
f 11 15 14
f 11 14 35
f 11 35 36
f 11 36 12
f 12 36 13
f 13 36 37
f 13 37 38
f 13 38 14
f 14 38 35
f 35 38 39
f 35 39 36
f 36 39 40
f 36 40 41
f 36 41 37
f 37 41 42
f 37 42 38
f 38 42 39
f 39 42 43
f 39 43 44
f 39 44 45
f 39 45 40
f 40 45 46
f 40 46 41
f 41 46 42
f 42 46 43
f 43 46 47
f 43 47 44
f 44 47 45
f 45 47 46
f 24 48 25
f 25 48 49
f 25 49 50
f 25 50 26
f 26 50 51
f 26 51 52
f 26 52 53
f 26 53 27
f 27 53 54
f 27 54 28
f 28 54 49
f 28 49 55
f 28 55 56
f 28 56 29
f 29 56 57
f 29 57 58
f 29 58 30
f 30 58 59
f 30 59 60
f 30 60 31
f 31 60 61
f 31 61 62
f 31 62 63
f 31 63 32
f 32 63 57
f 32 57 33
f 33 57 64
f 33 64 65
f 33 65 34
f 34 65 15
f 15 65 66
f 15 66 16
f 16 66 67
f 16 67 17
f 17 67 68
f 17 68 18
f 18 68 69
f 18 69 24
f 24 69 48
f 48 69 70
f 48 70 71
f 48 71 49
f 49 71 55
f 55 71 72
f 55 72 73
f 55 73 56
f 56 73 74
f 56 74 57
f 57 74 64
f 64 74 75
f 64 75 76
f 64 76 77
f 64 77 65
f 65 77 78
f 65 78 66
f 66 78 67
f 67 78 79
f 67 79 68
f 68 79 80
f 68 80 81
f 68 81 69
f 69 81 70
f 70 81 82
f 70 82 83
f 70 83 72
f 70 72 71
f 77 84 85
f 77 85 78
f 78 85 79
f 79 85 86
f 79 86 80
f 80 86 87
f 80 87 88
f 80 88 81
f 81 88 89
f 81 89 82
f 82 89 90
f 82 90 83
f 83 90 91
f 83 91 92
f 83 92 73
f 83 73 72
f 93 94 95
f 93 95 96
f 93 96 97
f 93 97 98
f 93 98 99
f 93 99 88
f 93 88 94
f 94 88 100
f 94 100 101
f 94 101 102
f 94 102 95
f 95 102 103
f 95 103 104
f 95 104 105
f 95 105 96
f 96 105 106
f 96 106 107
f 96 107 97
f 97 107 108
f 97 108 109
f 97 109 98
f 98 109 110
f 98 110 106
f 98 106 99
f 99 106 90
f 99 90 89
f 99 89 88
f 111 112 113
f 111 113 114
f 111 114 115
f 111 115 53
f 111 53 112
f 112 53 52
f 112 52 51
f 112 51 116
f 112 116 113
f 113 116 117
f 113 117 118
f 113 118 114
f 114 118 119
f 114 119 115
f 115 119 117
f 115 117 116
f 115 116 51
f 115 51 120
f 115 120 53
f 53 120 54
f 54 120 51
f 54 51 50
f 54 50 49
f 19 121 20
f 20 121 122
f 20 122 21
f 21 122 123
f 21 123 22
f 22 123 124
f 22 124 125
f 22 125 121
f 22 121 23
f 23 121 19
f 23 19 18
f 122 125 126
f 122 126 127
f 122 127 123
f 123 127 128
f 123 128 129
f 123 129 124
f 124 129 126
f 124 126 125
f 130 76 75
f 130 75 105
f 130 105 104
f 130 104 84
f 130 84 76
f 76 84 77
f 105 75 92
f 105 92 91
f 105 91 106
f 106 91 90
f 75 74 73
f 75 73 92
f 58 63 62
f 58 62 59
f 59 62 131
f 59 131 132
f 59 132 60
f 60 132 133
f 60 133 134
f 60 134 61
f 61 134 131
f 61 131 62
f 132 131 135
f 132 135 136
f 132 136 133
f 133 136 137
f 133 137 134
f 134 137 138
f 134 138 135
f 134 135 131
f 63 58 57
f 139 140 109
f 139 109 141
f 139 141 103
f 139 103 102
f 139 102 142
f 139 142 140
f 140 142 143
f 140 143 110
f 140 110 109
f 121 125 122
f 126 144 127
f 127 144 128
f 128 144 129
f 129 144 126
f 135 145 136
f 136 145 137
f 137 145 138
f 138 145 135
f 119 118 117
f 86 85 84
f 86 84 104
f 86 104 100
f 86 100 87
f 87 100 88
f 141 146 103
f 103 146 104
f 104 146 100
f 100 146 101
f 101 146 147
f 101 147 142
f 101 142 102
f 143 107 110
f 110 107 106
f 108 147 141
f 108 141 109
f 147 146 141
f 143 142 147
f 143 147 108
f 143 108 107
