# RS2 Model 3412
# Vertices: 129
# Faces: 208

v 129 53 43
v 129 67 33
v 134 67 33
v 134 53 43
v 134 53 56
v 129 53 56
v 126 54 44
v 129 67 67
v 126 67 64
v 126 54 55
v 73 54 44
v 126 67 36
v 129 80 43
v 134 80 43
v 134 80 56
v 134 67 67
v 129 80 56
v 126 77 55
v 126 77 44
v 73 77 55
v 73 67 64
v 73 54 55
v 72 48 41
v 73 67 36
v 73 77 44
v 72 85 58
v 11 48 58
v 11 67 71
v 6 67 71
v 6 48 58
v 6 48 41
v 11 48 41
v 12 50 57
v 12 67 69
v 11 85 58
v 6 85 58
v 6 85 41
v 6 67 29
v 11 67 29
v 12 67 31
v 12 50 42
v 65 50 57
v 65 67 69
v 12 83 57
v 12 83 42
v 11 85 41
v 65 83 42
v 65 67 31
v 65 50 42
v 66 48 58
v 66 67 71
v 65 83 57
v 66 85 41
v 66 67 29
v 66 85 58
v 72 85 41
v 72 67 29
v 66 48 41
v 72 48 58
v 72 67 71
v -4 124 36
v -15 126 36
v -15 126 21
v -4 124 21
v 7 126 36
v -4 153 46
v -24 132 36
v -24 132 21
v 7 126 21
v 16 132 36
v 22 142 36
v 23 153 36
v 22 164 36
v 17 173 36
v 7 180 36
v -4 182 36
v -15 180 36
v -24 174 36
v -30 164 36
v -31 153 36
v -30 142 36
v -30 142 21
v 7 180 21
v -4 182 21
v -15 180 21
v -24 174 21
v -30 164 21
v -31 153 21
v 16 132 21
v 22 142 21
v 23 153 21
v 22 164 21
v 17 173 21
v -119 -32 32
v -125 -40 32
v -97 -55 32
v -93 -46 32
v -70 -66 32
v -67 -56 32
v -37 -73 32
v -36 -62 32
v -12 -75 32
v -12 -64 32
v 8 -75 32
v 7 -64 32
v 30 -73 32
v 26 -63 32
v 55 -67 32
v 50 -58 32
v 77 -60 32
v 71 -51 32
v 101 -50 32
v 94 -42 32
v 131 -30 32
v 124 -23 32
v -134 -53 29
v -105 -70 29
v -75 -82 29
v -42 -90 29
v -18 -93 29
v 8 -94 29
v 37 -90 29
v 63 -85 29
v 86 -77 29
v 112 -65 29
v 143 -44 29
v 64 238 36
v -85 227 36
v 77 74 36

f 1 2 3
f 1 3 4
f 1 4 5
f 1 5 6
f 1 6 7
f 1 7 2
f 1 2 8
f 1 8 6
f 6 8 9
f 6 9 10
f 6 10 7
f 7 10 11
f 7 11 12
f 7 12 2
f 2 12 13
f 2 13 14
f 2 14 3
f 3 14 15
f 3 15 16
f 3 16 4
f 4 16 5
f 5 16 8
f 5 8 6
f 17 8 16
f 17 16 15
f 17 15 14
f 17 14 13
f 17 13 18
f 17 18 8
f 17 8 2
f 17 2 13
f 13 12 19
f 13 19 18
f 18 19 20
f 18 20 9
f 18 9 8
f 10 9 21
f 10 21 22
f 10 22 11
f 11 22 23
f 11 23 24
f 11 24 12
f 12 24 19
f 19 24 25
f 19 25 20
f 20 25 26
f 20 26 21
f 20 21 9
f 27 28 29
f 27 29 30
f 27 30 31
f 27 31 32
f 27 32 33
f 27 33 28
f 28 33 34
f 28 34 35
f 28 35 36
f 28 36 29
f 29 36 37
f 29 37 38
f 29 38 30
f 30 38 31
f 31 38 39
f 31 39 32
f 32 39 40
f 32 40 41
f 32 41 33
f 33 41 42
f 33 42 34
f 34 42 43
f 34 43 44
f 34 44 35
f 35 44 45
f 35 45 46
f 35 46 36
f 36 46 37
f 37 46 38
f 38 46 39
f 39 46 45
f 39 45 40
f 40 45 47
f 40 47 48
f 40 48 41
f 41 48 49
f 41 49 42
f 42 49 50
f 42 50 43
f 43 50 51
f 43 51 52
f 43 52 44
f 44 52 47
f 44 47 45
f 53 54 48
f 53 48 47
f 53 47 52
f 53 52 55
f 53 55 56
f 53 56 54
f 54 56 57
f 54 57 58
f 54 58 49
f 54 49 48
f 49 58 50
f 50 58 59
f 50 59 51
f 51 59 60
f 51 60 55
f 51 55 52
f 58 23 59
f 59 23 22
f 59 22 60
f 60 22 21
f 60 21 26
f 60 26 55
f 55 26 56
f 56 26 25
f 56 25 57
f 57 25 24
f 57 24 23
f 57 23 58
f 61 62 63
f 61 63 64
f 61 64 65
f 61 65 66
f 61 66 62
f 62 66 67
f 62 67 68
f 62 68 63
f 64 69 65
f 65 69 70
f 65 70 66
f 66 70 71
f 66 71 72
f 66 72 73
f 66 73 74
f 66 74 75
f 66 75 76
f 66 76 77
f 66 77 78
f 66 78 79
f 66 79 80
f 66 80 81
f 66 81 67
f 67 81 82
f 67 82 68
f 76 75 83
f 76 83 84
f 76 84 77
f 77 84 85
f 77 85 78
f 78 85 86
f 78 86 79
f 79 86 87
f 79 87 80
f 80 87 88
f 80 88 81
f 81 88 82
f 70 69 89
f 70 89 71
f 71 89 90
f 71 90 72
f 72 90 91
f 72 91 73
f 73 91 92
f 73 92 74
f 74 92 93
f 74 93 75
f 75 93 83
f 94 95 96
f 94 96 97
f 97 96 98
f 97 98 99
f 99 98 100
f 99 100 101
f 101 100 102
f 101 102 103
f 103 102 104
f 103 104 105
f 105 104 106
f 105 106 107
f 107 106 108
f 107 108 109
f 109 108 110
f 109 110 111
f 111 110 112
f 111 112 113
f 113 112 114
f 113 114 115
f 95 116 117
f 95 117 96
f 96 117 118
f 96 118 98
f 98 118 119
f 98 119 100
f 100 119 120
f 100 120 102
f 102 120 121
f 102 121 104
f 104 121 122
f 104 122 106
f 106 122 123
f 106 123 108
f 108 123 124
f 108 124 110
f 110 124 125
f 110 125 112
f 112 125 126
f 112 126 114
