# RS2 Model 344
# Vertices: 62
# Faces: 108

v 22 -1 137
v 18 4 135
v 24 0 130
v 26 4 137
v 25 4 144
v 21 -1 143
v 16 4 143
v 23 10 137
v 21 7 132
v 20 4 129
v 20 4 124
v 25 1 125
v 30 4 126
v 28 4 130
v 26 7 133
v 21 10 143
v 24 9 133
v 27 8 132
v 24 11 132
v 20 8 131
v 25 9 125
v 26 8 128
v 30 4 115
v 26 10 115
v 22 7 127
v 25 9 127
v 27 9 129
v 26 0 115
v 23 4 114
v 22 9 128
v 25 10 128
v -22 -1 137
v -24 0 130
v -18 4 135
v -16 4 143
v -21 -1 143
v -25 4 144
v -26 4 137
v -28 4 130
v -30 4 126
v -25 1 125
v -20 4 124
v -20 4 129
v -21 7 132
v -23 10 137
v -21 10 143
v -24 9 133
v -26 7 133
v -20 8 131
v -24 11 132
v -27 8 132
v -25 9 125
v -26 8 128
v -25 9 127
v -22 7 127
v -26 10 115
v -30 4 115
v -26 0 115
v -23 4 114
v -27 9 129
v -22 9 128
v -25 10 128

f 1 2 3
f 1 3 4
f 1 4 5
f 1 5 6
f 1 6 7
f 1 7 2
f 2 7 8
f 2 8 9
f 2 9 10
f 2 10 3
f 3 10 11
f 3 11 12
f 3 12 13
f 3 13 14
f 3 14 4
f 4 14 15
f 4 15 8
f 4 8 16
f 4 16 5
f 17 8 15
f 17 15 18
f 17 18 19
f 17 19 20
f 17 20 9
f 17 9 8
f 21 22 13
f 21 13 23
f 21 23 24
f 21 24 11
f 21 11 25
f 21 25 26
f 21 26 22
f 22 26 27
f 22 27 14
f 22 14 13
f 28 11 29
f 29 11 24
f 11 28 12
f 12 28 13
f 13 28 23
f 8 7 16
f 30 31 26
f 30 26 25
f 30 25 10
f 30 10 20
f 30 20 19
f 30 19 31
f 31 19 27
f 31 27 26
f 18 27 19
f 27 18 14
f 14 18 15
f 10 9 20
f 11 10 25
f 32 33 34
f 32 34 35
f 32 35 36
f 32 36 37
f 32 37 38
f 32 38 33
f 33 38 39
f 33 39 40
f 33 40 41
f 33 41 42
f 33 42 43
f 33 43 34
f 34 43 44
f 34 44 45
f 34 45 35
f 35 45 46
f 46 45 38
f 46 38 37
f 47 48 45
f 47 45 44
f 47 44 49
f 47 49 50
f 47 50 51
f 47 51 48
f 48 51 39
f 48 39 38
f 48 38 45
f 52 40 53
f 52 53 54
f 52 54 55
f 52 55 42
f 52 42 56
f 52 56 57
f 52 57 40
f 40 57 58
f 40 58 41
f 41 58 42
f 42 58 59
f 42 59 56
f 39 60 53
f 39 53 40
f 61 55 54
f 61 54 62
f 61 62 50
f 61 50 49
f 61 49 43
f 61 43 55
f 55 43 42
f 51 50 60
f 51 60 39
f 43 49 44
f 54 53 60
f 54 60 62
f 62 60 50
