# RS2 Model 3452
# Vertices: 216
# Faces: 283

v -114 24 103
v -109 24 100
v -112 24 98
v -113 4 91
v -118 -6 91
v -105 1 91
v -106 0 54
v -112 3 53
v -117 -4 54
v -111 -8 91
v -110 -27 104
v -113 -26 105
v -108 -24 107
v -107 -8 91
v -107 -11 54
v -99 -15 0
v -95 8 0
v -114 10 0
v -120 -6 0
v -111 -11 54
v -108 -27 104
v -113 -17 0
v 118 -31 103
v 113 -31 100
v 116 -31 98
v 117 -11 91
v 122 -1 91
v 109 -8 91
v 110 -7 54
v 116 -10 53
v 122 -3 54
v 115 1 91
v 114 20 104
v 117 19 105
v 112 17 107
v 111 1 91
v 111 4 54
v 103 8 0
v 101 -13 0
v 118 -17 0
v 129 -1 0
v 115 4 54
v 112 20 104
v 117 10 0
v -9 14 127
v -17 17 115
v -9 10 115
v -4 21 115
v -28 -7 141
v -22 -6 132
v -30 -7 132
v -28 -13 132
v 1 -7 158
v 0 -7 154
v 1 -13 154
v 6 -3 154
v -28 -7 200
v -33 -6 188
v -25 -14 188
v -22 -1 188
v 4 -6 215
v 6 -3 208
v 0 -6 208
v 4 -10 208
v -6 14 234
v -12 14 227
v -6 13 227
v -4 19 227
v 0 -32 12
v -12 -23 18
v -30 -48 18
v -17 -56 12
v 0 -32 0
v -25 -14 0
v -25 -14 12
v -43 -42 12
v -17 -56 0
v -43 -42 0
v 17 -59 12
v 30 -49 18
v 12 -23 18
v 17 -59 0
v 43 -42 0
v 43 -42 12
v 25 -14 12
v 25 -14 0
v 61 -14 12
v 61 0 18
v -61 0 18
v -61 -14 12
v 61 -14 0
v 61 14 0
v 61 14 12
v -61 14 12
v -61 -14 0
v -61 14 0
v 43 39 12
v 30 48 18
v 14 23 18
v 25 14 12
v 43 39 0
v 17 56 0
v 17 56 12
v 0 30 12
v 25 14 0
v 0 30 0
v -25 14 12
v -14 23 18
v -30 49 18
v -43 42 12
v -25 14 0
v 0 32 0
v 0 32 12
v -17 59 12
v -43 42 0
v -17 59 0
v -14 -3 55
v -22 1 15
v -30 -17 15
v -4 -21 15
v 0 0 15
v -4 19 49
v 14 14 15
v 0 30 15
v -14 17 15
v 9 -14 42
v 22 0 15
v 1 -23 15
v 30 -17 15
v 12 -10 61
v 6 -7 50
v 14 -14 50
v 17 -3 50
v 0 14 77
v 1 14 67
v -1 14 67
v 0 10 67
v -14 -10 93
v -17 -10 87
v -14 -14 87
v -9 -6 87
v -14 -9 42
v 0 -22 15
v -24 -1 15
v -17 -30 15
v 18 2 49
v 13 -14 15
v 29 0 15
v 16 13 15
v -4 13 55
v 0 21 15
v -17 28 15
v -21 2 15
v -57 -28 9
v -54 -34 9
v -46 -37 0
v -54 -20 0
v -67 -30 9
v -62 -37 9
v -65 -48 0
v -66 -33 9
v -77 -39 0
v -73 -25 0
v 58 34 9
v 60 33 9
v 64 31 0
v 60 38 0
v 54 34 9
v 56 31 9
v 54 26 0
v 54 33 9
v 49 30 0
v 51 36 0
v -59 26 9
v -64 31 9
v -70 32 0
v -61 22 0
v -53 29 9
v -59 35 9
v -63 39 0
v -55 32 9
v -52 33 0
v -48 26 0
v 55 -29 5
v 55 -33 5
v 58 -39 0
v 64 -27 0
v 52 -24 5
v 50 -29 5
v 40 -32 0
v 50 -25 5
v 42 -21 0
v 52 -18 0
v 67 -6 97
v 68 -6 101
v 2 -8 104
v 2 -8 95
v 67 0 97
v 130 2 96
v 130 -8 96
v 130 -8 102
v 68 0 101
v 1 2 104
v -56 -1 103
v -56 -5 103
v -56 -5 97
v 2 2 95
v 130 2 102
v -56 -1 97
v -124 2 94
v -124 2 105
v -124 -8 105
v -124 -8 94
v -49 35 0
v -43 -41 4
v 36 42 1

f 1 2 3
f 1 3 4
f 1 4 5
f 1 5 2
f 2 5 6
f 2 6 3
f 3 6 4
f 4 6 7
f 4 7 8
f 4 8 5
f 5 8 9
f 5 9 10
f 5 10 11
f 5 11 12
f 5 12 6
f 6 12 13
f 6 13 14
f 6 14 15
f 6 15 7
f 7 15 16
f 7 16 17
f 7 17 8
f 8 17 18
f 8 18 9
f 9 18 19
f 9 19 20
f 9 20 10
f 10 20 14
f 10 14 21
f 10 21 11
f 11 21 13
f 11 13 12
f 13 21 14
f 20 15 14
f 15 20 22
f 15 22 16
f 19 22 20
f 23 24 25
f 23 25 26
f 23 26 27
f 23 27 24
f 24 27 28
f 24 28 25
f 25 28 26
f 26 28 29
f 26 29 30
f 26 30 27
f 27 30 31
f 27 31 32
f 27 32 33
f 27 33 34
f 27 34 28
f 28 34 35
f 28 35 36
f 28 36 37
f 28 37 29
f 29 37 38
f 29 38 39
f 29 39 30
f 30 39 40
f 30 40 31
f 31 40 41
f 31 41 42
f 31 42 32
f 32 42 36
f 32 36 43
f 32 43 33
f 33 43 35
f 33 35 34
f 35 43 36
f 42 37 36
f 37 42 44
f 37 44 38
f 41 44 42
f 45 46 47
f 45 47 48
f 45 48 46
f 49 50 51
f 49 51 52
f 49 52 50
f 53 54 55
f 53 55 56
f 53 56 54
f 57 58 59
f 57 59 60
f 57 60 58
f 61 62 63
f 61 63 64
f 61 64 62
f 65 66 67
f 65 67 68
f 65 68 66
f 69 70 71
f 69 71 72
f 69 72 73
f 69 73 74
f 69 74 70
f 70 74 75
f 70 75 76
f 70 76 71
f 71 76 77
f 71 77 72
f 72 77 73
f 75 74 78
f 75 78 76
f 76 78 77
f 79 80 81
f 79 81 69
f 79 69 82
f 79 82 83
f 79 83 80
f 80 83 84
f 80 84 85
f 80 85 81
f 81 85 73
f 81 73 69
f 69 73 82
f 84 83 86
f 84 86 85
f 85 86 73
f 87 88 89
f 87 89 90
f 87 90 91
f 87 91 92
f 87 92 88
f 88 92 93
f 88 93 94
f 88 94 89
f 89 94 95
f 89 95 90
f 90 95 91
f 93 92 96
f 93 96 94
f 94 96 95
f 97 98 99
f 97 99 100
f 97 100 101
f 97 101 102
f 97 102 98
f 98 102 103
f 98 103 104
f 98 104 99
f 99 104 105
f 99 105 100
f 100 105 101
f 103 102 106
f 103 106 104
f 104 106 105
f 107 108 109
f 107 109 110
f 107 110 111
f 107 111 112
f 107 112 108
f 108 112 113
f 108 113 114
f 108 114 109
f 109 114 115
f 109 115 110
f 110 115 111
f 113 112 116
f 113 116 114
f 114 116 115
f 117 118 119
f 117 119 120
f 117 120 121
f 117 121 118
f 122 121 123
f 122 123 124
f 122 124 125
f 122 125 121
f 126 127 121
f 126 121 128
f 126 128 129
f 126 129 127
f 130 131 132
f 130 132 133
f 130 133 131
f 134 135 136
f 134 136 137
f 134 137 135
f 138 139 140
f 138 140 141
f 138 141 139
f 142 143 121
f 142 121 144
f 142 144 145
f 142 145 143
f 146 121 147
f 146 147 148
f 146 148 149
f 146 149 121
f 150 151 152
f 150 152 153
f 150 153 121
f 150 121 151
f 154 155 156
f 154 156 157
f 154 157 158
f 154 158 155
f 155 158 159
f 155 159 160
f 155 160 156
f 159 161 162
f 159 162 160
f 161 158 163
f 161 163 162
f 158 157 163
f 158 161 159
f 164 165 166
f 164 166 167
f 164 167 168
f 164 168 165
f 165 168 169
f 165 169 170
f 165 170 166
f 169 171 172
f 169 172 170
f 171 168 173
f 171 173 172
f 168 167 173
f 168 171 169
f 174 175 176
f 174 176 177
f 174 177 178
f 174 178 175
f 175 178 179
f 175 179 180
f 175 180 176
f 179 181 182
f 179 182 180
f 181 178 183
f 181 183 182
f 178 177 183
f 178 181 179
f 184 185 186
f 184 186 187
f 184 187 188
f 184 188 185
f 185 188 189
f 185 189 190
f 185 190 186
f 189 191 192
f 189 192 190
f 191 188 193
f 191 193 192
f 188 187 193
f 188 191 189
f 194 195 196
f 194 196 197
f 194 197 198
f 194 198 199
f 194 199 200
f 194 200 195
f 195 200 201
f 195 201 202
f 195 202 203
f 195 203 196
f 196 203 204
f 196 204 205
f 196 205 197
f 197 205 206
f 197 206 207
f 197 207 198
f 198 207 202
f 198 202 208
f 198 208 199
f 199 208 201
f 199 201 200
f 202 207 203
f 203 207 209
f 203 209 204
f 204 209 210
f 204 210 211
f 204 211 205
f 205 211 212
f 205 212 206
f 206 212 213
f 206 213 209
f 206 209 207
f 201 208 202
f 213 210 209
f 210 213 211
f 211 213 212
