# RS2 Model 3511
# Vertices: 111
# Faces: 182

v -60 8 192
v -60 4 216
v -60 -4 216
v -60 -8 192
v -64 -8 192
v -64 8 192
v -60 8 224
v -60 4 224
v -42 2 224
v -42 2 220
v -42 -2 220
v -60 -4 224
v -60 -8 224
v -64 -8 224
v -64 8 224
v -42 -2 224
v -42 0 219
v -42 12 210
v -43 2 220
v -43 12 210
v -43 10 210
v -43 0 219
v -43 -2 220
v -43 -12 210
v -42 -12 210
v -42 -10 210
v -50 -12 206
v -50 -12 182
v -50 -8 182
v -50 -8 206
v -54 -8 182
v -54 -8 206
v -54 -12 178
v -54 -12 210
v -54 8 206
v -54 12 210
v -54 8 182
v -50 8 182
v -50 8 206
v -50 12 182
v -50 12 206
v -54 12 178
v -34 12 206
v -30 12 210
v -34 12 182
v -34 8 182
v -34 8 206
v -30 8 182
v -30 8 206
v -30 12 178
v -30 -8 206
v -30 -12 210
v -30 -8 182
v -34 -8 182
v -34 -8 206
v -34 -12 182
v -34 -12 206
v -30 -12 178
v -50 8 210
v -50 -8 210
v -34 8 210
v -34 -8 210
v -42 10 210
v -43 -10 210
v -44 5 182
v -47 2 182
v -49 3 186
v -45 7 186
v -40 5 182
v -39 7 186
v -37 2 182
v -35 3 186
v -37 -2 182
v -35 -3 186
v -40 -5 182
v -39 -7 186
v -44 -5 182
v -45 -7 186
v -47 -2 182
v -49 -3 186
v -42 0 210
v -43 4 184
v -46 1 184
v -47 2 186
v -44 5 186
v -41 4 184
v -40 5 186
v -38 1 184
v -37 2 186
v -38 -1 184
v -37 -2 186
v -41 -4 184
v -40 -5 186
v -43 -4 184
v -44 -5 186
v -46 -1 184
v -47 -2 186
v -42 0 201
v -42 2 185
v -44 0 185
v -45 1 186
v -43 3 186
v -41 3 186
v -40 0 185
v -39 1 186
v -39 -1 186
v -42 -2 185
v -41 -3 186
v -43 -3 186
v -45 -1 186
v -42 0 196

f 1 2 3
f 1 3 4
f 1 4 5
f 1 5 6
f 1 6 7
f 1 7 2
f 2 7 8
f 2 8 9
f 2 9 10
f 2 10 3
f 3 10 11
f 3 11 12
f 3 12 4
f 4 12 13
f 4 13 14
f 4 14 5
f 6 15 7
f 7 15 8
f 8 15 12
f 8 12 16
f 8 16 9
f 9 16 10
f 10 16 11
f 10 11 17
f 10 17 18
f 10 18 19
f 19 18 20
f 19 20 21
f 19 21 22
f 19 22 23
f 23 22 24
f 23 24 11
f 11 24 25
f 11 25 26
f 11 26 17
f 11 16 12
f 15 14 12
f 12 14 13
f 27 28 29
f 27 29 30
f 30 29 31
f 30 31 32
f 32 31 33
f 32 33 34
f 32 34 35
f 35 34 36
f 35 36 37
f 35 37 38
f 35 38 39
f 39 38 40
f 39 40 41
f 41 40 42
f 41 42 36
f 41 36 43
f 43 36 44
f 43 44 45
f 43 45 46
f 43 46 47
f 47 46 48
f 47 48 49
f 49 48 50
f 49 50 44
f 49 44 51
f 51 44 52
f 51 52 53
f 51 53 54
f 51 54 55
f 55 54 56
f 55 56 57
f 57 56 58
f 57 58 52
f 57 52 27
f 27 52 34
f 27 34 28
f 28 34 33
f 28 33 56
f 28 56 29
f 29 56 54
f 29 54 38
f 29 38 37
f 29 37 31
f 31 37 42
f 31 42 33
f 59 60 30
f 59 30 39
f 59 39 61
f 59 61 44
f 59 44 36
f 59 36 60
f 60 36 34
f 60 34 62
f 60 62 55
f 60 55 30
f 47 55 62
f 47 62 61
f 47 61 39
f 53 48 46
f 53 46 54
f 54 46 38
f 38 46 40
f 40 46 45
f 40 45 50
f 40 50 42
f 61 62 52
f 61 52 44
f 62 34 52
f 52 58 53
f 53 58 48
f 48 58 50
f 44 50 45
f 56 33 58
f 36 42 37
f 17 63 18
f 22 64 24
f 65 66 67
f 65 67 68
f 65 68 69
f 69 68 70
f 69 70 71
f 71 70 72
f 71 72 73
f 73 72 74
f 73 74 75
f 75 74 76
f 75 76 77
f 77 76 78
f 77 78 79
f 79 78 80
f 79 80 66
f 66 80 67
f 67 80 81
f 67 81 68
f 68 81 70
f 70 81 72
f 72 81 74
f 74 81 76
f 76 81 78
f 78 81 80
f 82 83 84
f 82 84 85
f 82 85 86
f 86 85 87
f 86 87 88
f 88 87 89
f 88 89 90
f 90 89 91
f 90 91 92
f 92 91 93
f 92 93 94
f 94 93 95
f 94 95 96
f 96 95 97
f 96 97 83
f 83 97 84
f 84 97 98
f 84 98 85
f 85 98 87
f 87 98 89
f 89 98 91
f 91 98 93
f 93 98 95
f 95 98 97
f 99 100 101
f 99 101 102
f 99 102 103
f 99 103 104
f 104 103 105
f 104 105 106
f 104 106 107
f 107 106 108
f 107 108 109
f 107 109 100
f 100 109 110
f 100 110 101
f 101 110 111
f 101 111 102
f 102 111 103
f 103 111 105
f 105 111 106
f 106 111 108
f 108 111 109
f 109 111 110
