# RS2 Model 3537
# Vertices: 269
# Faces: 484

v -61 -14 154
v -61 -12 148
v -61 -4 150
v -64 -14 154
v -64 -12 148
v -61 -39 148
v -61 -39 144
v -61 -14 144
v -61 -10 144
v -61 -6 144
v -61 12 148
v -61 4 150
v -61 -2 160
v -64 -2 160
v -64 -4 150
v -64 12 148
v -64 6 144
v -64 -6 144
v -64 -10 144
v -64 -14 144
v -64 -39 148
v -64 -41 166
v -61 -41 166
v -61 -43 148
v -61 -43 144
v -61 -39 86
v -64 -39 144
v -64 -39 86
v -64 -43 86
v -64 -43 144
v -61 14 154
v -64 4 150
v -61 2 160
v -61 -2 178
v -64 -2 178
v -64 2 178
v -64 2 160
v -64 14 154
v -64 39 148
v -64 39 144
v -64 14 144
v -64 10 144
v -64 6 140
v -64 2 140
v -61 6 144
v -61 2 140
v -61 6 140
v -61 10 144
v -61 4 182
v -61 0 222
v -61 -4 182
v -61 2 178
v -61 12 174
v -61 12 180
v -64 4 182
v -64 0 222
v -64 -4 182
v -64 -12 180
v -61 -12 180
v -61 -12 174
v -64 -12 174
v -64 12 174
v -64 12 180
v -61 -2 80
v -61 -2 70
v -61 2 70
v -61 2 80
v -61 -2 88
v -61 -10 82
v -61 -10 86
v -61 -39 82
v -61 -43 86
v -61 -43 82
v -61 -39 4
v -64 -39 82
v -64 -39 4
v -64 -43 4
v -64 -43 82
v -64 -10 82
v -64 -10 86
v -64 -2 80
v -64 -2 88
v -64 2 88
v -64 2 80
v -64 -2 70
v -64 -6 70
v -61 -6 70
v -61 -2 66
v -61 2 66
v -61 6 70
v -64 2 70
v -61 -2 20
v -61 2 20
v -64 2 66
v -64 6 70
v -64 -2 66
v -61 2 88
v -61 2 98
v -61 -2 98
v -61 10 82
v -61 10 86
v -64 2 98
v -61 -2 102
v -61 -6 98
v -64 -6 98
v -64 -2 102
v -64 -2 98
v -64 2 102
v -61 2 102
v -61 6 98
v -64 2 132
v -61 2 132
v -61 -2 132
v -64 -2 132
v -61 -2 140
v -64 -2 140
v -61 14 144
v -61 39 148
v -61 41 166
v -64 41 166
v -64 43 148
v -64 43 144
v -64 39 86
v -61 39 144
v -61 39 86
v -61 43 86
v -61 43 144
v -61 -2 16
v -61 2 16
v -61 6 16
v -64 2 20
v -64 -2 20
v -61 -6 16
v -61 -6 8
v -61 -10 8
v -61 -10 4
v -61 -14 4
v -61 -12 0
v -61 -2 6
v -64 -10 4
v -64 -2 6
v -64 -12 0
v -64 -14 4
v -64 -10 8
v -64 -6 8
v -64 -6 16
v -64 -2 16
v -64 2 16
v -64 2 6
v -64 12 0
v -64 10 4
v -64 14 4
v -64 39 0
v -64 39 4
v -64 43 4
v -64 56 4
v -64 56 0
v -61 2 6
v -61 12 0
v -61 10 4
v -61 -14 8
v -61 -18 8
v -64 -14 8
v -64 -18 8
v -64 -18 12
v -64 -14 12
v -64 -14 16
v -64 -10 12
v -64 -10 16
v -61 -10 12
v -61 -10 16
v -61 -14 16
v -61 -14 12
v -61 -18 12
v -61 6 8
v -61 10 8
v -64 10 8
v -64 6 16
v -64 6 8
v -64 14 8
v -64 18 8
v -64 18 12
v -61 18 8
v -61 18 12
v -61 14 8
v -61 14 4
v -61 39 4
v -61 39 82
v -64 39 82
v -64 43 82
v -61 43 82
v -61 43 4
v -61 56 4
v -61 56 82
v -64 56 82
v -61 14 16
v -61 14 12
v -61 10 12
v -61 10 16
v -64 10 12
v -64 10 16
v -64 14 16
v -64 14 12
v -61 39 0
v -64 10 86
v -64 10 82
v -64 43 86
v -64 56 86
v -61 56 86
v -64 56 144
v -61 56 144
v -56 56 152
v -61 56 148
v -61 43 148
v -64 56 148
v -61 56 0
v -56 56 0
v -61 -39 0
v -64 -64 86
v -61 -64 86
v -61 -64 82
v -61 -43 4
v -61 -64 4
v -61 -64 0
v -61 -64 144
v -61 -64 148
v -64 -64 148
v -64 -43 148
v -64 -64 144
v -64 -64 4
v -64 -6 140
v -61 -6 140
v -64 6 98
v -64 -39 0
v -64 -64 0
v -64 -64 82
v -61 10 140
v -64 10 140
v -64 10 136
v -61 10 136
v -61 14 136
v -61 14 140
v -64 6 136
v -61 6 136
v -61 10 132
v -64 14 136
v -64 14 140
v -64 10 132
v -64 6 132
v -61 6 132
v -64 -10 140
v -64 -14 140
v -61 -14 140
v -61 -10 140
v -64 -14 136
v -61 -14 136
v -61 -10 136
v -64 -10 136
v -64 -10 132
v -61 -10 132
v -61 -6 136
v -64 -6 136
v -64 -6 132
v -61 -6 132
v -64 64 152
v -64 64 0
v -64 56 152
v -56 64 152
v -56 64 0

f 1 2 3
f 1 3 4
f 1 4 2
f 2 4 5
f 2 5 6
f 2 6 7
f 2 7 8
f 2 8 9
f 2 9 10
f 2 10 11
f 2 11 12
f 2 12 3
f 3 12 13
f 3 13 14
f 3 14 15
f 3 15 4
f 4 15 5
f 5 15 16
f 5 16 17
f 5 17 18
f 5 18 19
f 5 19 20
f 5 20 21
f 5 21 6
f 6 21 22
f 6 22 23
f 6 23 24
f 6 24 7
f 7 24 25
f 7 25 26
f 7 26 27
f 27 26 28
f 27 28 29
f 27 29 30
f 27 30 21
f 27 21 20
f 12 11 31
f 12 31 32
f 12 32 33
f 12 33 13
f 13 33 34
f 13 34 14
f 14 34 35
f 14 35 36
f 14 36 37
f 14 37 15
f 15 37 32
f 15 32 16
f 16 32 38
f 16 38 31
f 16 31 11
f 16 11 39
f 16 39 40
f 16 40 41
f 16 41 42
f 16 42 17
f 17 42 43
f 17 43 44
f 17 44 45
f 45 44 46
f 45 46 47
f 45 47 48
f 45 48 11
f 45 11 10
f 49 50 51
f 49 51 52
f 49 52 53
f 49 53 54
f 49 54 55
f 49 55 56
f 49 56 50
f 50 56 57
f 50 57 51
f 51 57 58
f 51 58 59
f 51 59 34
f 51 34 52
f 52 34 33
f 52 33 36
f 36 33 37
f 37 33 32
f 59 60 34
f 60 59 61
f 61 59 58
f 61 58 35
f 35 58 57
f 35 57 55
f 35 55 36
f 36 55 62
f 62 55 63
f 62 63 53
f 53 63 54
f 54 63 55
f 64 65 66
f 64 66 67
f 64 67 68
f 64 68 69
f 69 68 70
f 69 70 71
f 71 70 26
f 71 26 72
f 71 72 73
f 71 73 74
f 71 74 75
f 75 74 76
f 75 76 77
f 75 77 78
f 75 78 28
f 75 28 79
f 79 28 80
f 79 80 81
f 81 80 82
f 81 82 83
f 81 83 84
f 81 84 85
f 81 85 64
f 64 85 65
f 65 85 86
f 65 86 87
f 65 87 88
f 65 88 89
f 65 89 66
f 66 89 90
f 66 90 91
f 66 91 84
f 66 84 67
f 88 92 93
f 88 93 89
f 89 93 94
f 89 94 95
f 89 95 90
f 90 95 91
f 91 95 94
f 91 94 96
f 91 96 85
f 91 85 84
f 97 98 99
f 97 99 68
f 97 68 67
f 97 67 100
f 97 100 101
f 97 101 83
f 97 83 102
f 97 102 98
f 99 103 104
f 104 103 105
f 105 103 106
f 105 106 107
f 107 106 108
f 107 108 102
f 107 102 82
f 107 82 99
f 99 82 68
f 68 82 80
f 68 80 70
f 70 80 28
f 70 28 26
f 98 109 103
f 98 103 99
f 110 109 98
f 109 110 108
f 109 108 111
f 109 111 112
f 109 112 113
f 109 113 103
f 103 113 106
f 106 113 114
f 106 114 111
f 106 111 108
f 115 113 112
f 115 112 46
f 115 46 116
f 115 116 114
f 115 114 113
f 11 48 117
f 11 117 118
f 11 118 39
f 39 118 119
f 39 119 120
f 39 120 121
f 39 121 40
f 40 121 122
f 40 122 123
f 40 123 124
f 124 123 125
f 124 125 126
f 124 126 127
f 124 127 118
f 124 118 117
f 92 128 129
f 92 129 93
f 93 129 130
f 93 130 131
f 93 131 94
f 94 131 132
f 94 132 96
f 96 132 88
f 96 88 87
f 96 87 86
f 96 86 85
f 128 92 133
f 128 133 134
f 134 133 135
f 134 135 136
f 136 135 137
f 136 137 138
f 136 138 139
f 136 139 140
f 140 139 141
f 140 141 142
f 140 142 143
f 140 143 144
f 140 144 145
f 145 144 146
f 145 146 147
f 147 146 132
f 147 132 131
f 147 131 148
f 147 148 141
f 141 148 149
f 141 149 142
f 142 149 150
f 150 149 151
f 150 151 152
f 150 152 153
f 153 152 154
f 153 154 155
f 153 155 156
f 153 156 157
f 158 129 128
f 158 128 139
f 158 139 159
f 158 159 160
f 158 160 149
f 149 160 151
f 161 162 137
f 161 137 135
f 161 135 163
f 163 135 144
f 163 144 143
f 163 143 164
f 163 164 165
f 163 165 166
f 166 165 167
f 166 167 168
f 168 167 169
f 168 169 170
f 170 169 171
f 170 171 172
f 170 172 173
f 173 172 174
f 173 174 161
f 161 174 162
f 162 174 164
f 164 174 165
f 165 174 167
f 167 174 172
f 167 172 171
f 167 171 169
f 129 175 130
f 130 175 176
f 130 176 177
f 130 177 178
f 130 178 131
f 131 178 148
f 148 178 179
f 179 178 177
f 179 177 151
f 151 177 152
f 152 177 180
f 152 180 181
f 181 180 182
f 181 182 183
f 183 182 184
f 183 184 185
f 183 185 186
f 186 185 176
f 186 176 160
f 186 160 159
f 186 159 187
f 186 187 152
f 152 187 154
f 154 187 188
f 154 188 189
f 154 189 190
f 154 190 155
f 155 190 191
f 155 191 192
f 155 192 193
f 155 193 156
f 156 193 194
f 156 194 195
f 175 160 176
f 184 196 197
f 184 197 185
f 196 198 197
f 198 196 199
f 198 199 200
f 200 199 201
f 200 201 202
f 200 202 203
f 203 202 182
f 203 182 180
f 159 139 138
f 159 204 187
f 187 204 192
f 187 192 188
f 188 192 191
f 188 191 125
f 188 125 100
f 100 125 101
f 101 125 205
f 101 205 83
f 83 205 84
f 84 205 206
f 206 205 189
f 189 205 123
f 189 123 207
f 189 207 190
f 190 207 195
f 195 207 208
f 208 207 209
f 208 209 210
f 210 209 211
f 211 209 212
f 211 212 213
f 211 213 127
f 127 213 214
f 127 214 118
f 118 214 119
f 119 214 120
f 120 214 121
f 121 214 213
f 121 213 215
f 121 215 210
f 121 210 122
f 192 204 216
f 192 216 193
f 193 216 217
f 193 217 212
f 193 212 194
f 194 212 209
f 194 209 191
f 191 209 126
f 191 126 125
f 137 74 218
f 137 218 138
f 25 72 26
f 72 25 30
f 72 30 29
f 72 29 219
f 72 219 220
f 72 220 221
f 72 221 73
f 73 222 74
f 74 222 218
f 218 222 223
f 218 223 224
f 225 25 24
f 225 24 226
f 226 24 227
f 227 24 228
f 227 228 30
f 227 30 229
f 222 77 230
f 222 230 223
f 137 143 76
f 137 76 74
f 146 144 135
f 146 135 133
f 146 133 92
f 146 92 132
f 132 92 88
f 196 184 182
f 196 182 202
f 196 202 201
f 196 201 199
f 185 180 177
f 185 177 176
f 78 77 222
f 78 222 73
f 125 123 205
f 209 207 126
f 126 207 127
f 127 207 122
f 122 207 123
f 112 111 44
f 112 44 46
f 46 44 116
f 116 44 114
f 116 114 231
f 116 231 18
f 116 18 115
f 115 18 10
f 115 10 232
f 115 232 113
f 113 232 114
f 114 232 231
f 110 233 108
f 108 233 102
f 23 22 228
f 23 228 24
f 31 38 32
f 57 56 55
f 82 102 83
f 44 111 114
f 111 44 43
f 111 43 112
f 112 43 47
f 112 47 46
f 142 234 76
f 142 76 143
f 77 234 235
f 77 235 230
f 228 22 21
f 228 21 30
f 28 78 29
f 29 78 219
f 219 78 236
f 76 234 77
f 237 238 239
f 237 239 240
f 237 240 241
f 237 241 242
f 237 242 48
f 237 48 47
f 240 239 243
f 240 243 244
f 240 244 245
f 240 245 241
f 241 245 246
f 241 246 247
f 241 247 242
f 242 247 42
f 242 42 48
f 247 246 238
f 247 238 42
f 42 238 43
f 246 239 238
f 239 246 248
f 239 248 243
f 243 248 249
f 243 249 244
f 244 249 250
f 244 250 245
f 246 245 248
f 231 19 18
f 19 231 251
f 19 251 252
f 19 252 9
f 9 252 253
f 9 253 254
f 9 254 232
f 9 232 10
f 251 255 252
f 252 255 253
f 253 255 256
f 253 256 254
f 254 256 257
f 254 257 251
f 251 257 258
f 251 258 255
f 255 258 259
f 255 259 256
f 256 259 260
f 256 260 257
f 257 260 261
f 257 261 258
f 258 261 262
f 258 262 259
f 259 262 263
f 263 262 264
f 264 262 261
f 264 261 260
f 265 266 157
f 265 157 267
f 265 267 268
f 265 268 266
f 266 268 269
f 269 268 212
f 269 212 217
f 268 267 212
f 212 267 213
f 213 267 215
