# RS2 Model 361
# Vertices: 71
# Faces: 113

v 14 3 10
v 8 8 5
v 8 9 11
v 17 3 19
v 9 -2 11
v 9 -2 5
v 14 2 4
v 8 10 -1
v 4 2 4
v 4 3 10
v 2 2 19
v 8 12 20
v 13 2 19
v 9 -6 20
v 5 -5 1
v 10 -7 1
v 15 -5 1
v 15 3 -4
v 8 9 -4
v 3 3 -4
v 4 -5 -4
v 6 -12 -1
v 11 -14 -1
v 15 -9 0
v 16 -5 -4
v 12 -15 -4
v 16 -10 -4
v 6 -13 -4
v 8 9 19
v 5 2 19
v 8 -2 19
v -14 3 10
v -8 9 11
v -8 8 5
v -14 2 4
v -9 -2 5
v -9 -2 11
v -17 3 19
v -8 12 20
v -2 2 19
v -4 3 10
v -4 2 4
v -8 10 -1
v -15 3 -4
v -15 -5 1
v -10 -7 1
v -5 -5 1
v -9 -6 20
v -13 2 19
v -8 9 19
v -5 2 19
v -8 -2 19
v -11 -14 -1
v -16 -10 -4
v -12 -15 -4
v -6 -13 -4
v -6 -12 -1
v -15 -9 0
v -16 -5 -4
v -4 -5 -4
v -3 3 -4
v -8 9 -4
v 4 -3 -4
v -4 -3 -4
v 0 3 -4
v 23 22 18
v -7 22 18
v 23 -18 -3
v 4 17 16
v -18 17 16
v 1 -16 -3

f 1 2 3
f 1 3 4
f 1 4 5
f 1 5 6
f 1 6 7
f 1 7 2
f 2 7 8
f 2 8 9
f 2 9 3
f 3 9 10
f 3 10 11
f 3 11 12
f 3 12 4
f 4 12 13
f 4 13 14
f 4 14 5
f 5 14 11
f 5 11 10
f 5 10 6
f 6 10 9
f 6 9 15
f 6 15 16
f 6 16 17
f 6 17 7
f 7 17 18
f 7 18 8
f 8 18 19
f 8 19 20
f 8 20 9
f 9 20 15
f 15 20 21
f 15 21 22
f 15 22 16
f 16 22 23
f 16 23 24
f 16 24 17
f 17 24 25
f 17 25 18
f 18 25 20
f 18 20 19
f 23 26 27
f 23 27 24
f 24 27 25
f 25 27 21
f 25 21 20
f 23 22 28
f 23 28 26
f 26 28 27
f 27 28 21
f 21 28 22
f 12 29 13
f 29 12 30
f 30 12 11
f 30 11 14
f 30 14 31
f 31 14 13
f 32 33 34
f 32 34 35
f 32 35 36
f 32 36 37
f 32 37 38
f 32 38 33
f 33 38 39
f 33 39 40
f 33 40 41
f 33 41 42
f 33 42 34
f 34 42 43
f 34 43 35
f 35 43 44
f 35 44 45
f 35 45 36
f 36 45 46
f 36 46 47
f 36 47 42
f 36 42 41
f 36 41 37
f 37 41 40
f 37 40 48
f 37 48 38
f 38 48 49
f 38 49 39
f 39 49 50
f 39 50 51
f 39 51 40
f 40 51 48
f 48 51 52
f 48 52 49
f 53 54 55
f 53 55 56
f 53 56 57
f 53 57 46
f 53 46 58
f 53 58 54
f 54 58 59
f 54 59 60
f 54 60 56
f 54 56 55
f 47 46 57
f 47 57 60
f 47 60 61
f 47 61 42
f 42 61 43
f 43 61 62
f 43 62 44
f 44 62 61
f 44 61 59
f 44 59 45
f 45 59 58
f 45 58 46
f 60 59 61
f 60 57 56
f 63 64 65
