# RS2 Model 36143
# Vertices: 34
# Faces: 43

v -38 -40 41
v -55 -40 31
v -55 -64 31
v -38 -64 41
v -38 -40 8
v -56 -40 8
v -56 -64 0
v -56 -23 8
v -56 24 8
v -56 64 0
v -64 -64 0
v -64 64 0
v -64 64 -14
v -64 -64 -14
v -55 40 31
v -38 40 41
v -38 64 41
v -55 64 31
v -56 40 8
v -38 40 8
v -38 64 -14
v -38 24 8
v -38 -64 -14
v -38 -23 8
v -55 -22 31
v -38 -22 41
v -38 23 41
v -55 23 31
v 39 -63 5
v 40 64 5
v -66 -64 5
v -94 64 6
v -95 -63 5
v 5 64 63

f 1 2 3
f 1 3 4
f 1 4 5
f 1 5 6
f 1 6 2
f 2 6 3
f 3 6 7
f 7 6 8
f 7 8 9
f 7 9 10
f 7 10 11
f 11 10 12
f 11 12 13
f 11 13 14
f 15 16 17
f 15 17 18
f 15 18 19
f 15 19 20
f 15 20 16
f 16 20 17
f 17 20 21
f 21 20 22
f 21 22 23
f 23 22 24
f 23 24 5
f 23 5 4
f 25 26 27
f 25 27 28
f 25 28 9
f 25 9 8
f 25 8 24
f 25 24 26
f 26 24 27
f 27 24 22
f 27 22 9
f 27 9 28
f 18 10 19
f 19 10 9
f 19 9 22
f 19 22 20
f 5 24 8
f 5 8 6
f 29 30 31
