# RS2 Model 3615
# Vertices: 81
# Faces: 131

v -7 -12 192
v -10 -4 192
v -12 -4 190
v -9 -14 190
v 0 -17 192
v 0 -19 190
v 10 -13 190
v 8 -12 192
v 12 -4 190
v 9 -4 192
v 10 5 190
v 8 3 192
v 0 12 190
v 0 9 192
v -9 8 190
v -7 5 192
v 1 -19 186
v -1 -19 186
v -1 -19 192
v 1 -18 192
v 0 -20 186
v 0 -19 192
v 0 -19 193
v -2 -19 193
v 2 -18 193
v 3 -20 200
v 0 -21 200
v -3 -20 200
v -3 -19 206
v 3 -19 206
v 0 -20 206
v 0 -20 212
v 2 -19 212
v 0 -17 222
v -2 -19 212
v 6 -16 187
v 4 -17 187
v 5 -17 192
v 6 -16 192
v 5 -18 187
v 6 -17 192
v 6 -17 193
v 4 -16 194
v 8 -16 193
v 10 -17 197
v 7 -18 199
v 5 -17 200
v 11 -17 202
v 8 -18 203
v 6 -17 204
v 11 -16 207
v 9 -17 208
v 8 -16 209
v 10 -14 215
v -6 -16 192
v -4 -17 192
v -3 -17 187
v -5 -16 187
v -5 -17 192
v -6 -17 193
v -8 -16 193
v -4 -16 194
v -4 -17 187
v -7 -18 199
v -9 -17 197
v -4 -17 200
v -8 -18 203
v -10 -17 202
v -5 -17 204
v -9 -17 208
v -10 -16 207
v -7 -16 209
v -9 -14 215
v -11 -4 189
v -8 -14 189
v -8 7 189
v 0 10 189
v 9 4 189
v 11 -4 189
v 9 -14 189
v 0 -19 189

f 1 2 3
f 1 3 4
f 1 4 5
f 5 4 6
f 5 6 7
f 5 7 8
f 8 7 9
f 8 9 10
f 10 9 11
f 10 11 12
f 12 11 13
f 12 13 14
f 14 13 15
f 14 15 16
f 16 15 3
f 16 3 2
f 17 18 19
f 17 19 20
f 17 20 21
f 21 20 22
f 21 22 18
f 18 22 19
f 19 22 23
f 19 23 24
f 19 24 20
f 20 24 25
f 20 25 22
f 22 25 23
f 23 25 26
f 23 26 27
f 23 27 24
f 24 27 28
f 24 28 25
f 25 28 26
f 26 28 29
f 26 29 30
f 26 30 27
f 27 30 31
f 27 31 29
f 27 29 28
f 32 31 30
f 32 30 33
f 32 33 34
f 32 34 35
f 32 35 31
f 31 35 29
f 29 35 33
f 29 33 30
f 34 33 35
f 36 37 38
f 36 38 39
f 36 39 40
f 40 39 41
f 40 41 37
f 37 41 38
f 38 41 42
f 38 42 43
f 38 43 39
f 39 43 44
f 39 44 41
f 41 44 42
f 42 44 45
f 42 45 46
f 42 46 43
f 43 46 47
f 43 47 44
f 44 47 45
f 45 47 48
f 45 48 46
f 46 48 49
f 46 49 47
f 47 49 50
f 47 50 48
f 48 50 51
f 48 51 49
f 49 51 52
f 49 52 50
f 50 52 53
f 50 53 51
f 51 53 54
f 51 54 52
f 52 54 53
f 55 56 57
f 55 57 58
f 55 58 59
f 55 59 60
f 55 60 61
f 55 61 56
f 56 61 62
f 56 62 59
f 56 59 63
f 56 63 57
f 59 58 63
f 64 65 61
f 64 61 60
f 64 60 66
f 64 66 67
f 64 67 68
f 64 68 65
f 65 68 66
f 65 66 62
f 65 62 61
f 66 60 62
f 62 60 59
f 66 69 67
f 67 69 70
f 67 70 71
f 67 71 68
f 68 71 69
f 68 69 66
f 72 71 73
f 72 73 70
f 72 70 69
f 72 69 71
f 71 70 73
f 74 75 4
f 74 4 3
f 74 3 76
f 76 3 15
f 76 15 77
f 77 15 13
f 77 13 78
f 78 13 11
f 78 11 79
f 79 11 9
f 79 9 7
f 79 7 80
f 80 7 6
f 80 6 81
f 81 6 75
f 75 6 4
