# RS2 Model 36232
# Vertices: 83
# Faces: 98

v -64 -1 9
v -53 -4 9
v -48 -1 9
v -64 3 9
v -53 -20 9
v -64 -23 9
v -64 -27 9
v -48 -23 9
v -48 -19 9
v -61 -12 9
v -64 -14 9
v -64 -10 9
v -48 -5 9
v -43 -4 9
v -32 3 9
v -32 -1 9
v -16 -1 9
v -22 -4 9
v -16 -5 9
v -11 -4 9
v 0 3 9
v 0 -1 9
v 16 -1 9
v 11 -4 9
v 3 -12 9
v 16 -5 9
v 21 -4 9
v 32 3 9
v 32 -1 9
v 48 -1 9
v 42 -4 9
v 48 -5 9
v 53 -4 9
v 64 3 9
v 64 -1 9
v -43 -20 9
v -32 -27 9
v -32 -23 9
v -22 -20 9
v -16 -23 9
v -16 -19 9
v -29 -12 9
v -32 -14 9
v -32 -10 9
v -35 -12 9
v 0 -10 9
v -3 -12 9
v 0 -14 9
v -11 -20 9
v 0 -27 9
v 0 -23 9
v 11 -20 9
v 16 -23 9
v 16 -19 9
v -64 20 0
v -64 20 8
v 64 20 8
v 64 20 0
v -64 -44 8
v 64 -44 8
v 64 -44 1
v 64 20 1
v 21 -20 9
v 32 -27 9
v 32 -23 9
v 42 -20 9
v 48 -23 9
v 48 -19 9
v 35 -12 9
v 32 -14 9
v 32 -10 9
v 29 -12 9
v 64 -10 9
v 61 -12 9
v 64 -14 9
v 53 -20 9
v 64 -27 9
v 64 -23 9
v -64 20 1
v -64 -44 1
v -64 20 9
v -64 -45 9
v 64 21 9

f 1 2 3
f 1 3 4
f 5 6 7
f 5 7 8
f 5 8 9
f 5 9 10
f 5 10 11
f 11 10 12
f 12 10 2
f 2 10 3
f 3 10 13
f 3 13 14
f 3 14 15
f 15 14 16
f 15 16 17
f 17 16 18
f 17 18 19
f 17 19 20
f 17 20 21
f 21 20 22
f 21 22 23
f 23 22 24
f 23 24 25
f 23 25 26
f 23 26 27
f 23 27 28
f 28 27 29
f 28 29 30
f 30 29 31
f 30 31 32
f 30 32 33
f 30 33 34
f 34 33 35
f 36 8 37
f 36 37 38
f 38 37 39
f 39 37 40
f 39 40 41
f 39 41 42
f 39 42 43
f 43 42 44
f 43 44 45
f 43 45 36
f 36 45 8
f 8 45 9
f 44 14 45
f 45 14 13
f 18 44 42
f 18 42 19
f 46 47 48
f 46 48 25
f 46 25 24
f 49 48 47
f 49 47 40
f 49 40 50
f 49 50 51
f 51 50 52
f 52 50 53
f 52 53 54
f 52 54 25
f 52 25 48
f 46 20 47
f 47 20 19
f 40 47 41
f 55 56 57
f 55 57 58
f 56 59 60
f 56 60 57
f 57 60 61
f 57 61 62
f 63 53 64
f 63 64 65
f 65 64 66
f 66 64 67
f 66 67 68
f 66 68 69
f 66 69 70
f 70 69 71
f 70 71 72
f 70 72 63
f 63 72 53
f 53 72 54
f 71 27 72
f 72 27 26
f 31 71 69
f 31 69 32
f 73 74 75
f 75 74 76
f 76 74 67
f 76 67 77
f 76 77 78
f 73 33 74
f 74 33 32
f 67 74 68
f 59 56 79
f 59 79 80
f 59 80 60
f 60 80 61
