# RS2 Model 36499
# Vertices: 408
# Faces: 792

v 35 -40 0
v 42 -49 65
v 41 -51 65
v 39 -50 66
v 33 -39 0
v 35 -37 0
v 41 -48 66
v 36 -38 0
v 42 -55 87
v 40 -53 88
v 42 -51 88
v 44 -53 87
v 44 -58 102
v 38 -56 106
v 44 -54 102
v 50 -56 105
v 46 -57 109
v 45 -60 116
v 42 -57 110
v 45 -56 117
v 49 -58 117
v 47 -63 144
v 41 -59 118
v 4 -21 110
v 2 -22 108
v 4 -20 108
v 6 -19 109
v 6 -20 111
v 5 -22 111
v 1 -23 109
v 1 -23 106
v 5 -21 106
v 7 -17 108
v 7 -19 111
v 6 -19 113
v 5 -22 114
v 2 -24 110
v 1 -24 109
v 0 -24 107
v 2 -24 104
v 5 -21 103
v 7 -15 104
v 8 -15 104
v 11 -12 110
v 9 -16 117
v 6 -20 118
v 3 -22 118
v 0 -24 116
v 0 -24 109
v -1 -24 109
v -1 -23 109
v -1 -23 106
v -2 -24 104
v 0 -26 104
v 0 -24 103
v 1 -25 102
v 3 -22 102
v 2 -22 96
v 5 -17 98
v 8 -16 95
v 11 -12 97
v 10 -12 102
v 8 -3 101
v 8 -5 109
v 8 -5 115
v 9 -11 116
v 9 -15 120
v 7 -21 121
v 4 -23 122
v 2 -23 122
v -2 -23 122
v -3 -22 118
v -5 -22 114
v -2 -24 110
v -1 -25 102
v -1 -24 101
v 1 -24 101
v 0 -24 100
v -2 -22 96
v 0 -17 97
v 4 -13 95
v 4 -12 92
v 8 -12 88
v 10 -17 89
v 12 -11 92
v 11 -3 91
v 8 -2 95
v -3 -22 102
v -5 -21 103
v -5 -17 98
v -4 -13 95
v 0 -15 94
v 0 -14 91
v 0 -15 88
v 5 -13 88
v 5 -16 84
v 9 -14 84
v 11 -18 84
v 13 -13 84
v 14 -11 90
v 14 -3 90
v 7 1 89
v 0 2 94
v 0 1 100
v 0 -1 108
v 0 -2 115
v 8 -4 118
v 9 -10 119
v 11 -12 126
v 7 -15 120
v 5 -19 121
v 2 -21 121
v 0 -23 130
v 0 -25 131
v -2 -21 121
v -4 -23 122
v -6 -20 118
v -9 -16 117
v -6 -19 113
v -6 -20 111
v -5 -22 111
v 0 4 85
v -7 1 89
v -8 -2 95
v -8 -3 101
v -8 -5 109
v -8 -5 115
v -8 -4 118
v -2 -1 118
v 2 -1 118
v 2 -4 118
v 5 -6 118
v 7 -10 119
v 4 -14 122
v 3 -19 122
v 0 -18 122
v -3 -19 122
v 0 -18 84
v 0 -23 77
v 3 -22 77
v 7 -22 78
v 12 -18 77
v 17 -9 78
v 19 -13 83
v 21 -11 88
v 21 -3 88
v 13 -2 84
v 7 2 84
v 7 2 77
v 0 4 76
v -7 2 84
v -14 -3 90
v -11 -3 91
v -11 -12 97
v -10 -12 102
v -11 -12 110
v -9 -11 116
v -9 -10 119
v -7 -10 119
v -5 -6 118
v -2 -4 118
v 0 2 125
v 2 -6 120
v 0 -14 122
v 0 -25 70
v 3 -26 73
v 9 -27 74
v 12 -22 75
v 14 -17 71
v 15 -8 74
v 14 -2 79
v 19 -2 83
v 21 -3 77
v 24 -6 64
v 20 -11 66
v 21 -12 79
v 25 -11 82
v 25 -3 80
v 5 -28 70
v 4 -25 66
v 9 -24 64
v 9 -28 69
v 12 -25 71
v 13 -19 67
v 0 -24 63
v 6 -23 60
v 12 -15 62
v 14 -9 70
v 11 -4 71
v 13 -3 71
v 11 -11 62
v 9 -4 62
v 8 -3 56
v 7 0 70
v 0 2 69
v -7 2 77
v -14 -2 79
v -13 -2 84
v -19 -2 83
v -21 -3 88
v -14 -11 90
v -12 -11 92
v -8 -16 95
v -8 -15 104
v -7 -17 108
v -7 -19 111
v -9 -15 120
v -12 -12 126
v -7 -15 120
v -4 -14 122
v -2 -6 120
v 0 -6 120
v 0 -23 53
v 7 -21 52
v 10 -13 53
v 9 -7 54
v 8 -4 55
v 6 3 48
v 6 6 48
v 7 1 57
v 0 6 56
v -7 0 70
v -13 -3 71
v -11 -4 71
v -15 -8 74
v -17 -9 79
v -21 -3 79
v -25 -4 82
v -21 -11 88
v -19 -13 83
v -13 -13 84
v -10 -17 89
v -8 -12 88
v -4 -12 92
v -7 -15 104
v -5 -21 106
v -6 -19 109
v 0 -20 45
v 7 -19 48
v 12 -12 49
v 11 -3 49
v 0 -18 41
v 5 -17 44
v 16 -9 42
v 15 1 43
v 4 6 43
v 4 11 38
v 5 10 41
v 0 12 49
v 6 -15 39
v 6 -13 34
v 18 -7 34
v 16 3 34
v 7 9 34
v 0 11 34
v 4 13 33
v 0 15 39
v -6 6 48
v -7 1 57
v -8 -3 56
v -9 -4 62
v -11 -11 62
v -14 -9 70
v -14 -17 71
v -12 -18 77
v -21 -13 80
v -24 -15 67
v -20 -9 66
v -24 -4 66
v -28 -6 67
v -25 -12 83
v 0 -17 37
v 0 -15 33
v 7 -13 16
v 16 -6 16
v 17 1 15
v 16 1 30
v 7 5 25
v 0 8 25
v -7 9 34
v -4 6 43
v -4 11 38
v -4 13 33
v 0 16 30
v -5 10 41
v -6 3 48
v -8 -4 55
v 0 -15 15
v 7 -11 0
v 15 -5 0
v 15 1 0
v 7 6 13
v 0 -12 0
v -7 -11 0
v -7 -13 16
v -15 -5 0
v -16 -6 16
v -15 1 0
v -17 1 15
v -7 6 0
v -7 6 13
v 0 8 0
v 0 8 14
v 7 6 0
v -4 -21 110
v -4 -20 108
v -2 -22 108
v -5 -13 88
v -5 -16 84
v -3 -22 77
v -3 -26 73
v -4 -25 66
v -6 -23 60
v -7 -21 52
v -7 -19 48
v -5 -17 44
v -6 -15 39
v -6 -13 34
v -9 -14 84
v -7 -22 78
v -9 -27 74
v -5 -28 70
v -9 -28 69
v -9 -24 64
v -12 -15 62
v -10 -13 53
v -12 -12 49
v -16 -9 42
v -18 -7 34
v -16 1 30
v -7 5 25
v -11 -18 84
v -12 -22 75
v -12 -25 71
v -13 -19 67
v -9 -7 54
v -11 -3 49
v -15 1 43
v -16 3 34
v -28 -12 68
v -28 -8 56
v -28 -13 58
v -26 -16 57
v -23 -13 56
v -26 -8 55
v -26 -10 47
v -30 -10 48
v -30 -16 50
v -26 -18 50
v -23 -14 48
v -28 -18 33
v -29 -16 31
v -31 -16 32
v -31 -19 34
v -29 -22 33
v -28 -27 28
v -27 -26 29
v -30 -21 25
v -31 -17 23
v -32 -17 23
v -32 -22 25
v -31 -26 26
v -29 -26 26
v -27 -28 24
v -26 -26 25
v -28 -24 26
v -32 -28 15
v -32 -25 14
v -32 -21 13
v -27 -27 24
v 28 -8 66
v 29 -13 52
v 27 -12 51
v 25 -18 53
v 24 -17 67
v 28 -13 67
v 30 -18 56
v 35 -21 49
v 34 -16 45
v 30 -17 44
v 28 -22 46
v 29 -19 55
v 32 -25 49
v 37 -33 40
v 39 -32 38
v 38 -30 34
v 36 -33 34
v 36 -31 37
v 36 -40 38
v 37 -40 38
v 38 -42 36
v 40 -42 36
v 41 -41 33
v 40 -39 27
v 39 -39 27
v 38 -40 32
v 37 -40 36
v 36 -45 37
v 35 -44 37
v 36 -45 38
v 41 -51 28
v 42 -53 33
v 41 -50 24
v -7 -21 121
v -5 -19 121
v 12 -24 116
v -10 -24 116
v 10 -17 95

f 1 2 3
f 1 3 4
f 1 4 5
f 5 4 6
f 6 4 7
f 6 7 2
f 6 2 8
f 8 2 1
f 2 9 3
f 3 9 4
f 4 9 10
f 4 10 11
f 4 11 7
f 7 11 2
f 2 11 12
f 2 12 9
f 9 12 13
f 9 13 10
f 10 13 14
f 10 14 15
f 10 15 11
f 11 15 12
f 12 15 16
f 12 16 13
f 13 16 17
f 13 17 18
f 13 18 19
f 13 19 14
f 14 19 15
f 15 19 20
f 15 20 17
f 15 17 16
f 18 17 21
f 18 21 22
f 18 22 23
f 18 23 19
f 19 23 20
f 20 23 22
f 20 22 21
f 20 21 17
f 24 25 26
f 24 26 27
f 24 27 28
f 24 28 29
f 24 29 30
f 24 30 25
f 25 30 31
f 25 31 32
f 25 32 26
f 26 32 27
f 27 32 33
f 27 33 34
f 27 34 28
f 28 34 35
f 28 35 29
f 29 35 36
f 29 36 37
f 29 37 30
f 30 37 38
f 30 38 31
f 31 38 39
f 31 39 40
f 31 40 32
f 32 40 41
f 32 41 42
f 32 42 33
f 33 42 43
f 33 43 44
f 33 44 34
f 34 44 45
f 34 45 35
f 35 45 36
f 36 45 46
f 36 46 47
f 36 47 48
f 36 48 37
f 37 48 38
f 38 48 49
f 38 49 39
f 39 49 50
f 39 50 51
f 39 51 52
f 39 52 53
f 39 53 54
f 39 54 40
f 40 54 55
f 40 55 56
f 40 56 57
f 40 57 41
f 41 57 58
f 41 58 59
f 41 59 42
f 42 59 60
f 42 60 43
f 43 60 61
f 43 61 62
f 43 62 44
f 44 62 63
f 44 63 64
f 44 64 65
f 44 65 66
f 44 66 45
f 45 66 67
f 45 67 68
f 45 68 46
f 46 68 69
f 46 69 47
f 47 69 70
f 47 70 71
f 47 71 72
f 47 72 48
f 48 72 73
f 48 73 74
f 48 74 50
f 48 50 49
f 56 55 75
f 56 75 76
f 56 76 77
f 56 77 57
f 57 77 78
f 57 78 58
f 58 78 79
f 58 79 80
f 58 80 59
f 59 80 81
f 59 81 60
f 60 81 82
f 60 82 83
f 60 83 84
f 60 84 61
f 61 84 85
f 61 85 86
f 61 86 87
f 61 87 63
f 61 63 62
f 78 77 76
f 78 76 88
f 78 88 79
f 79 88 89
f 79 89 90
f 79 90 80
f 80 90 91
f 80 91 92
f 80 92 81
f 81 92 93
f 81 93 82
f 82 93 94
f 82 94 95
f 82 95 83
f 83 95 96
f 83 96 97
f 83 97 84
f 84 97 98
f 84 98 99
f 84 99 100
f 84 100 85
f 85 100 101
f 85 101 86
f 86 101 102
f 86 102 87
f 87 102 103
f 87 103 104
f 87 104 63
f 63 104 105
f 63 105 64
f 64 105 65
f 65 105 106
f 65 106 107
f 65 107 108
f 65 108 66
f 66 108 67
f 67 108 109
f 67 109 110
f 67 110 68
f 68 110 111
f 68 111 112
f 68 112 69
f 69 112 70
f 70 112 113
f 70 113 114
f 70 114 71
f 71 114 115
f 71 115 116
f 71 116 72
f 72 116 117
f 72 117 73
f 73 117 118
f 73 118 119
f 73 119 120
f 73 120 121
f 73 121 74
f 74 121 51
f 74 51 50
f 103 102 122
f 103 122 123
f 103 123 124
f 103 124 125
f 103 125 104
f 104 125 126
f 104 126 105
f 105 126 106
f 106 126 127
f 106 127 128
f 106 128 129
f 106 129 130
f 106 130 107
f 107 130 131
f 107 131 132
f 107 132 133
f 107 133 108
f 108 133 109
f 109 133 110
f 110 133 132
f 110 132 134
f 110 134 111
f 111 134 135
f 111 135 112
f 112 135 136
f 112 136 137
f 112 137 115
f 112 115 113
f 113 115 114
f 95 94 138
f 95 138 96
f 96 138 139
f 96 139 140
f 96 140 141
f 96 141 97
f 97 141 142
f 97 142 98
f 98 142 99
f 99 142 143
f 99 143 144
f 99 144 145
f 99 145 100
f 100 145 101
f 101 145 146
f 101 146 147
f 101 147 102
f 102 147 148
f 102 148 122
f 122 148 149
f 122 149 150
f 122 150 151
f 122 151 123
f 123 151 152
f 123 152 153
f 123 153 124
f 124 153 154
f 124 154 155
f 124 155 125
f 125 155 156
f 125 156 126
f 126 156 157
f 126 157 127
f 127 157 158
f 127 158 128
f 128 158 159
f 128 159 160
f 128 160 161
f 128 161 129
f 129 161 162
f 129 162 130
f 130 162 131
f 131 162 161
f 131 161 163
f 131 163 132
f 132 163 134
f 134 163 164
f 134 164 136
f 134 136 135
f 140 139 165
f 140 165 166
f 140 166 141
f 141 166 167
f 141 167 168
f 141 168 142
f 142 168 169
f 142 169 143
f 143 169 170
f 143 170 171
f 143 171 147
f 143 147 172
f 143 172 173
f 143 173 174
f 143 174 175
f 143 175 176
f 143 176 144
f 144 176 177
f 144 177 145
f 145 177 146
f 146 177 178
f 146 178 172
f 146 172 147
f 179 166 165
f 179 165 180
f 179 180 181
f 179 181 182
f 179 182 167
f 179 167 166
f 183 182 181
f 183 181 184
f 183 184 169
f 183 169 168
f 183 168 167
f 183 167 182
f 180 165 185
f 180 185 186
f 180 186 181
f 181 186 187
f 181 187 184
f 184 187 169
f 169 187 188
f 169 188 170
f 170 188 171
f 171 188 189
f 171 189 190
f 171 190 149
f 171 149 148
f 171 148 147
f 188 187 191
f 188 191 192
f 188 192 189
f 189 192 190
f 190 192 193
f 190 193 194
f 190 194 149
f 149 194 150
f 150 194 195
f 150 195 196
f 150 196 151
f 151 196 197
f 151 197 198
f 151 198 152
f 152 198 199
f 152 199 200
f 152 200 201
f 152 201 202
f 152 202 153
f 153 202 154
f 154 202 203
f 154 203 155
f 155 203 204
f 155 204 156
f 156 204 205
f 156 205 206
f 156 206 118
f 156 118 157
f 157 118 158
f 158 118 207
f 158 207 208
f 158 208 159
f 159 208 209
f 159 209 210
f 159 210 211
f 159 211 160
f 160 211 161
f 161 211 212
f 161 212 163
f 163 212 164
f 164 212 210
f 164 210 137
f 164 137 136
f 186 185 213
f 186 213 214
f 186 214 187
f 187 214 215
f 187 215 216
f 187 216 191
f 191 216 192
f 192 216 217
f 192 217 193
f 193 217 218
f 193 218 219
f 193 219 220
f 193 220 194
f 194 220 195
f 195 220 221
f 195 221 222
f 195 222 196
f 196 222 223
f 196 223 197
f 197 223 224
f 197 224 225
f 197 225 198
f 198 225 226
f 198 226 199
f 199 226 227
f 199 227 200
f 200 227 228
f 200 228 229
f 200 229 201
f 201 229 230
f 201 230 231
f 201 231 232
f 201 232 202
f 202 232 203
f 203 232 233
f 203 233 234
f 203 234 91
f 203 91 90
f 203 90 204
f 204 90 235
f 204 235 205
f 205 235 236
f 205 236 237
f 205 237 206
f 206 237 120
f 206 120 119
f 206 119 118
f 214 213 238
f 214 238 239
f 214 239 215
f 215 239 240
f 215 240 216
f 216 240 241
f 216 241 218
f 216 218 217
f 239 238 242
f 239 242 243
f 239 243 240
f 240 243 244
f 240 244 241
f 241 244 245
f 241 245 218
f 218 245 246
f 218 246 219
f 219 246 247
f 219 247 248
f 219 248 249
f 219 249 221
f 219 221 220
f 244 243 250
f 244 250 251
f 244 251 252
f 244 252 245
f 245 252 253
f 245 253 246
f 246 253 254
f 246 254 255
f 246 255 247
f 247 255 256
f 247 256 248
f 248 256 257
f 248 257 249
f 249 257 258
f 249 258 259
f 249 259 221
f 221 259 222
f 222 259 223
f 223 259 260
f 223 260 224
f 224 260 261
f 224 261 262
f 224 262 263
f 224 263 225
f 225 263 264
f 225 264 226
f 226 264 265
f 226 265 231
f 226 231 230
f 226 230 266
f 226 266 267
f 226 267 268
f 226 268 227
f 227 268 269
f 227 269 270
f 227 270 228
f 228 270 271
f 228 271 229
f 229 271 266
f 229 266 230
f 243 242 272
f 243 272 250
f 250 272 273
f 250 273 251
f 251 273 274
f 251 274 252
f 252 274 275
f 252 275 276
f 252 276 277
f 252 277 253
f 253 277 254
f 254 277 278
f 254 278 255
f 255 278 279
f 255 279 280
f 255 280 281
f 255 281 282
f 255 282 283
f 255 283 256
f 256 283 284
f 256 284 257
f 257 284 285
f 257 285 258
f 258 285 283
f 258 283 282
f 258 282 281
f 258 281 286
f 258 286 287
f 258 287 260
f 258 260 259
f 274 273 288
f 274 288 289
f 274 289 275
f 275 289 290
f 275 290 276
f 276 290 291
f 276 291 292
f 276 292 278
f 276 278 277
f 293 289 288
f 293 288 294
f 294 288 295
f 294 295 296
f 296 295 297
f 296 297 298
f 298 297 299
f 298 299 300
f 300 299 301
f 300 301 302
f 302 301 303
f 302 303 304
f 304 303 292
f 304 292 291
f 305 306 307
f 305 307 51
f 305 51 121
f 305 121 120
f 305 120 237
f 305 237 306
f 306 237 236
f 306 236 307
f 307 236 52
f 307 52 51
f 53 236 89
f 53 89 88
f 53 88 75
f 53 75 55
f 53 55 54
f 53 52 236
f 235 89 236
f 89 235 90
f 88 76 75
f 93 92 91
f 93 91 234
f 93 234 94
f 94 234 308
f 94 308 309
f 94 309 138
f 138 309 310
f 138 310 139
f 139 310 165
f 165 310 311
f 165 311 312
f 165 312 185
f 185 312 313
f 185 313 213
f 213 313 314
f 213 314 238
f 238 314 315
f 238 315 242
f 242 315 316
f 242 316 272
f 272 316 317
f 272 317 318
f 272 318 273
f 273 318 295
f 273 295 288
f 234 233 308
f 308 233 319
f 308 319 309
f 309 319 320
f 309 320 310
f 310 320 311
f 311 320 321
f 311 321 322
f 311 322 312
f 312 322 323
f 312 323 324
f 312 324 313
f 313 324 325
f 313 325 314
f 314 325 326
f 314 326 327
f 314 327 315
f 315 327 316
f 316 327 328
f 316 328 317
f 317 328 318
f 318 328 329
f 318 329 295
f 295 329 297
f 297 329 299
f 299 329 330
f 299 330 301
f 301 330 331
f 301 331 279
f 301 279 303
f 303 279 292
f 292 279 278
f 233 232 332
f 233 332 319
f 319 332 265
f 319 265 320
f 320 265 333
f 320 333 321
f 321 333 334
f 321 334 323
f 321 323 322
f 231 332 232
f 332 231 265
f 323 334 335
f 323 335 324
f 324 335 325
f 325 335 264
f 325 264 263
f 325 263 262
f 325 262 336
f 325 336 326
f 326 336 337
f 326 337 327
f 327 337 338
f 327 338 328
f 328 338 339
f 328 339 329
f 329 339 330
f 330 339 331
f 331 339 280
f 331 280 279
f 334 264 335
f 264 334 333
f 264 333 265
f 336 262 261
f 336 261 287
f 336 287 286
f 336 286 337
f 337 286 281
f 337 281 338
f 338 281 280
f 338 280 339
f 261 260 287
f 271 270 340
f 271 340 267
f 271 267 266
f 340 270 341
f 340 341 342
f 340 342 267
f 267 342 343
f 267 343 268
f 268 343 344
f 268 344 269
f 269 344 345
f 269 345 270
f 270 345 341
f 341 345 346
f 341 346 347
f 341 347 342
f 342 347 348
f 342 348 343
f 343 348 349
f 343 349 344
f 344 349 350
f 344 350 345
f 345 350 346
f 346 350 351
f 346 351 352
f 346 352 347
f 347 352 353
f 347 353 348
f 348 353 354
f 348 354 349
f 349 354 355
f 349 355 350
f 350 355 351
f 351 355 356
f 351 356 357
f 351 357 358
f 351 358 352
f 352 358 359
f 352 359 353
f 353 359 360
f 353 360 354
f 354 360 361
f 354 361 355
f 355 361 362
f 355 362 356
f 356 362 363
f 356 363 364
f 356 364 357
f 357 364 365
f 357 365 366
f 357 366 358
f 358 366 362
f 358 362 367
f 358 367 368
f 358 368 359
f 359 368 369
f 359 369 360
f 360 369 361
f 361 369 368
f 361 368 362
f 362 368 367
f 362 366 363
f 363 366 370
f 363 370 364
f 364 370 365
f 365 370 366
f 172 178 173
f 173 178 174
f 174 178 371
f 174 371 372
f 174 372 373
f 174 373 175
f 175 373 374
f 175 374 375
f 175 375 176
f 176 375 376
f 176 376 177
f 177 376 178
f 178 376 371
f 371 376 377
f 371 377 372
f 372 377 378
f 372 378 379
f 372 379 373
f 373 379 380
f 373 380 374
f 374 380 381
f 374 381 382
f 374 382 375
f 375 382 376
f 376 382 377
f 377 382 383
f 377 383 378
f 378 383 384
f 378 384 385
f 378 385 379
f 379 385 386
f 379 386 380
f 380 386 387
f 380 387 381
f 381 387 388
f 381 388 383
f 381 383 382
f 383 388 384
f 384 388 389
f 384 389 390
f 384 390 391
f 384 391 392
f 384 392 385
f 385 392 393
f 385 393 386
f 386 393 394
f 386 394 387
f 387 394 395
f 387 395 388
f 388 395 396
f 388 396 397
f 388 397 389
f 389 397 398
f 389 398 399
f 389 399 390
f 390 399 400
f 390 400 391
f 391 400 397
f 391 397 396
f 391 396 392
f 392 396 401
f 392 401 402
f 392 402 393
f 393 402 401
f 393 401 394
f 394 401 403
f 394 403 395
f 395 403 396
f 396 403 401
f 400 399 398
f 400 398 397
f 118 117 404
f 118 404 207
f 207 404 209
f 207 209 208
f 116 404 117
f 404 116 115
f 404 115 405
f 404 405 209
f 209 405 210
f 210 405 115
f 210 115 137
f 212 211 210
f 285 284 283
