# RS2 Model 36541
# Vertices: 206
# Faces: 406

v -10 0 248
v 32 0 248
v 32 4 245
v -60 4 245
v -14 0 248
v 32 -4 245
v 32 -7 250
v 32 7 250
v 32 4 241
v -60 4 241
v -60 7 239
v -60 7 247
v -60 0 248
v -60 -4 245
v 32 -4 241
v 32 -7 236
v 46 -7 250
v 41 -4 250
v 37 -4 250
v 34 0 250
v 37 4 250
v 46 7 250
v 46 7 236
v 32 7 236
v 32 0 238
v 21 0 238
v -53 0 238
v -60 0 238
v -60 0 234
v -64 0 234
v -64 7 239
v -64 7 247
v -60 0 252
v -60 -7 247
v -60 -4 241
v 34 0 236
v 37 -4 236
v 46 -7 236
v 44 0 250
v 44 0 558
v 41 -4 558
v 37 -4 558
v 34 0 558
v 37 4 558
v 41 4 250
v 41 4 558
v 43 7 566
v 48 0 566
v 43 -7 566
v 35 -7 566
v 30 0 566
v 35 7 566
v 58 -3 65
v 49 -3 61
v 49 -3 51
v 58 -3 47
v 64 -3 56
v 61 0 60
v 58 0 65
v 58 3 65
v 64 3 56
v 58 3 47
v 49 3 51
v 49 3 61
v 64 0 56
v 49 0 80
v 43 -8 80
v 43 -8 3
v 49 0 3
v 43 8 3
v 43 8 80
v 41 4 95
v 44 0 95
v 41 -4 95
v 35 -8 80
v 35 -8 3
v 29 -16 3
v 64 -32 3
v 64 32 3
v 29 27 3
v 35 8 3
v 35 8 80
v 37 4 95
v 37 4 236
v 41 4 236
v 44 0 236
v 41 -4 236
v 37 -4 95
v 29 0 80
v 29 0 3
v -23 -16 3
v -3 -16 37
v 9 -16 37
v 9 -27 37
v 29 -27 3
v -34 -32 3
v -34 -32 0
v 64 -32 0
v 64 32 0
v -34 32 3
v -23 27 3
v -3 27 37
v 9 27 37
v 9 16 37
v 29 16 3
v -23 16 3
v 34 0 95
v 37 4 574
v 41 4 574
v 44 0 574
v 41 -4 574
v 37 -4 574
v 34 0 574
v -34 32 0
v -3 16 37
v -3 27 59
v 9 27 59
v 9 16 59
v -3 16 59
v -23 -27 3
v -3 -27 37
v 9 -27 59
v -3 -27 59
v -3 -16 59
v -16 -16 59
v -16 -16 49
v -16 -5 49
v -3 -5 37
v 9 -5 37
v 22 -16 49
v 22 -16 59
v 9 -16 71
v -3 -16 71
v -3 -5 71
v -16 -5 59
v 22 -5 49
v 22 -5 59
v 9 -5 71
v 9 -16 59
v -53 0 114
v 21 0 106
v 21 0 114
v -53 0 131
v -53 0 106
v 21 0 131
v 21 0 148
v 1 0 148
v -16 0 167
v -35 0 148
v -53 0 167
v -53 0 148
v 21 0 167
v 21 0 188
v 1 0 188
v -16 0 188
v -16 0 210
v -35 0 188
v -53 0 188
v -53 0 210
v 21 0 210
v 21 0 231
v -53 0 231
v -60 -7 239
v -64 -7 239
v -64 -7 247
v -64 0 252
v -16 16 59
v -16 16 49
v -16 6 49
v -16 6 59
v -3 16 71
v -3 6 37
v 9 6 37
v 22 6 49
v 22 6 59
v 9 6 71
v -3 6 71
v 9 16 71
v 22 16 59
v 22 16 49
v -3 6 59
v -3 6 49
v -3 -5 49
v -3 -5 59
v 9 6 59
v 9 -5 59
v 9 6 49
v 9 -5 49
v 3 41 58
v -1 46 54
v -3 27 54
v 3 27 59
v 7 41 54
v 33 42 82
v 30 41 87
v 26 47 83
v 3 46 51
v 3 27 49
v 8 27 54
v 30 47 87
v 30 64 87
v 26 64 83
v 29 47 79
v 33 47 82
v 33 64 82
v 29 64 79

f 1 2 3
f 1 3 4
f 1 4 5
f 1 5 6
f 1 6 2
f 2 6 7
f 2 7 8
f 2 8 3
f 3 8 9
f 3 9 10
f 3 10 4
f 4 10 11
f 4 11 12
f 4 12 13
f 4 13 5
f 5 13 14
f 5 14 6
f 6 14 15
f 6 15 16
f 6 16 7
f 7 16 17
f 7 17 18
f 7 18 19
f 7 19 20
f 7 20 8
f 8 20 21
f 8 21 22
f 8 22 23
f 8 23 24
f 8 24 9
f 9 24 25
f 9 25 26
f 9 26 27
f 9 27 28
f 9 28 10
f 10 28 29
f 10 29 11
f 11 29 30
f 11 30 31
f 11 31 12
f 12 31 32
f 12 32 33
f 12 33 13
f 13 33 14
f 14 33 34
f 14 34 35
f 14 35 15
f 15 35 25
f 15 25 16
f 16 25 24
f 16 24 36
f 16 36 37
f 16 37 38
f 16 38 17
f 17 38 22
f 17 22 39
f 17 39 18
f 18 39 40
f 18 40 41
f 18 41 19
f 19 41 42
f 19 42 20
f 20 42 43
f 20 43 21
f 21 43 44
f 21 44 45
f 21 45 22
f 22 45 39
f 39 45 46
f 39 46 40
f 40 46 47
f 40 47 48
f 40 48 41
f 41 48 49
f 41 49 42
f 42 49 50
f 42 50 43
f 43 50 51
f 43 51 44
f 44 51 52
f 44 52 46
f 44 46 45
f 5 1 43
f 5 43 1
f 53 54 55
f 53 55 56
f 53 56 57
f 53 57 58
f 53 58 59
f 59 58 60
f 60 58 61
f 60 61 62
f 60 62 63
f 60 63 64
f 60 64 54
f 60 54 53
f 57 65 58
f 58 65 61
f 65 58 40
f 65 40 58
f 62 61 57
f 62 57 56
f 54 64 66
f 54 66 67
f 54 67 55
f 55 67 68
f 55 68 69
f 55 69 63
f 63 69 70
f 63 70 71
f 63 71 64
f 64 71 66
f 66 71 72
f 66 72 73
f 66 73 67
f 67 73 74
f 67 74 75
f 67 75 68
f 68 75 76
f 68 76 77
f 68 77 78
f 68 78 69
f 69 78 79
f 69 79 70
f 70 79 80
f 70 80 81
f 70 81 71
f 71 81 82
f 71 82 83
f 71 83 72
f 72 83 84
f 72 84 85
f 72 85 73
f 73 85 86
f 73 86 74
f 74 86 87
f 74 87 88
f 74 88 75
f 75 88 89
f 75 89 76
f 76 89 90
f 76 90 91
f 76 91 77
f 77 91 92
f 77 92 93
f 77 93 94
f 77 94 95
f 77 95 78
f 78 95 96
f 78 96 97
f 78 97 98
f 78 98 79
f 79 98 99
f 79 99 100
f 79 100 101
f 79 101 80
f 80 101 102
f 80 102 103
f 80 103 104
f 80 104 105
f 80 105 81
f 81 105 106
f 81 106 90
f 81 90 82
f 82 90 89
f 82 89 107
f 82 107 83
f 83 107 36
f 83 36 84
f 84 36 24
f 84 24 85
f 85 24 23
f 85 23 86
f 86 23 38
f 86 38 87
f 87 38 37
f 87 37 88
f 88 37 107
f 88 107 89
f 46 52 47
f 47 52 108
f 47 108 109
f 47 109 48
f 48 109 110
f 48 110 49
f 49 110 111
f 49 111 50
f 50 111 112
f 50 112 51
f 51 112 113
f 51 113 52
f 52 113 108
f 108 113 110
f 108 110 109
f 113 112 111
f 113 111 110
f 107 37 36
f 100 99 114
f 100 114 96
f 100 96 91
f 100 91 106
f 100 106 101
f 101 106 102
f 102 106 115
f 102 115 116
f 102 116 103
f 103 116 117
f 103 117 118
f 103 118 104
f 104 118 119
f 104 119 115
f 104 115 106
f 104 106 105
f 96 114 97
f 120 121 92
f 120 92 91
f 120 91 96
f 120 96 95
f 120 95 94
f 120 94 121
f 121 94 122
f 121 122 123
f 121 123 124
f 121 124 92
f 92 124 93
f 92 93 125
f 92 125 126
f 92 126 127
f 92 127 128
f 92 128 93
f 93 128 129
f 93 129 130
f 93 130 125
f 125 130 131
f 125 131 132
f 125 132 133
f 125 133 134
f 125 134 135
f 125 135 126
f 126 135 127
f 127 135 134
f 127 134 128
f 128 134 129
f 129 134 136
f 129 136 130
f 130 136 131
f 131 136 137
f 131 137 132
f 132 137 138
f 132 138 133
f 133 138 134
f 134 138 137
f 134 137 136
f 123 122 139
f 123 139 124
f 124 139 93
f 93 139 122
f 93 122 94
f 115 119 116
f 116 119 117
f 117 119 118
f 106 91 90
f 140 141 142
f 140 142 143
f 140 143 142
f 140 142 141
f 140 141 144
f 140 144 141
f 145 146 147
f 145 147 143
f 145 143 142
f 145 142 143
f 145 143 147
f 145 147 146
f 146 147 148
f 146 148 147
f 147 148 149
f 147 149 143
f 147 143 149
f 147 149 148
f 148 149 150
f 148 150 149
f 149 150 151
f 149 151 143
f 149 143 151
f 149 151 150
f 152 153 154
f 152 154 155
f 152 155 148
f 152 148 146
f 152 146 148
f 152 148 155
f 152 155 154
f 152 154 153
f 153 154 156
f 153 156 154
f 154 156 155
f 154 155 156
f 156 155 157
f 156 157 155
f 155 157 150
f 155 150 148
f 155 148 150
f 155 150 157
f 157 150 158
f 157 158 150
f 158 157 156
f 158 156 159
f 158 159 156
f 158 156 157
f 156 160 161
f 156 161 162
f 156 162 159
f 156 159 162
f 156 162 161
f 156 161 160
f 156 160 153
f 156 153 160
f 162 161 27
f 162 27 161
f 161 27 26
f 161 26 27
f 27 26 35
f 27 35 28
f 28 35 163
f 28 163 29
f 29 163 164
f 29 164 30
f 30 164 165
f 30 165 166
f 30 166 31
f 31 166 32
f 32 166 33
f 33 166 34
f 34 166 165
f 34 165 163
f 34 163 35
f 38 23 22
f 25 35 26
f 163 165 164
f 167 168 169
f 167 169 170
f 167 170 171
f 167 171 168
f 168 171 115
f 168 115 172
f 168 172 169
f 169 172 170
f 170 172 173
f 170 173 174
f 170 174 175
f 170 175 176
f 170 176 177
f 170 177 171
f 171 177 178
f 171 178 179
f 171 179 180
f 171 180 104
f 171 104 115
f 115 104 173
f 115 173 172
f 104 180 174
f 104 174 173
f 180 179 175
f 180 175 174
f 179 178 176
f 179 176 175
f 178 177 176
f 181 182 183
f 181 183 184
f 181 184 185
f 185 184 186
f 185 186 187
f 187 186 188
f 187 188 182
f 182 188 183
f 189 190 191
f 189 191 192
f 189 192 193
f 189 193 194
f 189 194 195
f 189 195 190
f 190 195 196
f 190 196 197
f 190 197 198
f 190 198 191
f 197 193 199
f 197 199 198
f 193 192 199
f 195 200 196
f 196 200 201
f 196 201 202
f 196 202 203
f 196 203 197
f 197 203 193
f 193 203 204
f 193 204 194
f 194 204 195
f 195 204 200
f 200 204 205
f 200 205 201
f 201 205 206
f 201 206 202
f 202 206 203
f 203 206 204
f 204 206 205
