# RS2 Model 36548
# Vertices: 83
# Faces: 83

v -64 -64 16
v -32 -64 16
v -64 -32 16
v -64 -32 0
v -32 -64 0
v -62 -64 162
v -62 -64 197
v -64 -62 197
v -64 -62 162
v -59 -64 161
v -64 -59 161
v -59 -64 124
v -64 -59 124
v -59 -64 198
v -64 -59 198
v -34 -64 197
v -34 -64 162
v -64 -34 162
v -64 -34 197
v -37 -64 198
v -64 -37 198
v -37 -64 161
v -64 -37 161
v -55 -64 54
v -55 -64 88
v -61 -58 88
v -61 -58 54
v -55 -61 53
v -52 -64 53
v -55 -64 52
v -55 -64 17
v -55 -61 16
v -52 -64 16
v -52 -64 89
v -61 -55 89
v -61 -55 53
v -58 -61 52
v -58 -61 17
v -64 -55 17
v -64 -52 16
v -64 -55 52
v -64 -52 53
v -64 -55 54
v -64 -55 88
v -64 -52 89
v -34 -64 88
v -34 -64 54
v -61 -37 54
v -61 -37 88
v -37 -64 89
v -64 -37 89
v -64 -37 53
v -64 -34 54
v -64 -34 88
v -37 -64 53
v -32 -64 124
v -32 -64 88
v -64 -32 88
v -64 -32 124
v -64 -64 124
v -62 -64 110
v -62 -64 115
v -64 -62 115
v -64 -62 110
v -57 -64 88
v -57 -64 110
v -64 -57 110
v -64 -57 88
v -64 -64 120
v -38 -60 125
v -61 -37 125
v -61 -37 160
v -38 -60 160
v -37 -64 124
v -64 -37 124
v -37 -61 17
v -37 -61 52
v -37 -64 16
v -64 -37 16
v -64 -34 17
v -64 -34 52
v -34 -64 52
v -34 -64 17

f 1 2 3
f 3 2 4
f 4 2 5
f 6 7 8
f 6 8 9
f 6 9 10
f 10 9 11
f 10 11 12
f 12 11 13
f 7 14 15
f 7 15 8
f 16 17 18
f 16 18 19
f 16 19 20
f 20 19 21
f 20 21 14
f 14 21 15
f 17 22 23
f 17 23 18
f 24 25 26
f 24 26 27
f 24 27 28
f 24 28 29
f 29 28 30
f 30 28 31
f 31 28 32
f 31 32 33
f 25 34 35
f 25 35 26
f 26 35 27
f 27 35 36
f 27 36 28
f 28 36 37
f 28 37 32
f 32 37 38
f 32 38 39
f 32 39 40
f 38 37 41
f 38 41 39
f 37 36 41
f 41 36 42
f 42 36 43
f 43 36 44
f 44 36 35
f 44 35 45
f 46 47 48
f 46 48 49
f 46 49 50
f 50 49 51
f 51 49 52
f 51 52 53
f 51 53 54
f 47 55 52
f 47 52 48
f 48 52 49
f 56 57 58
f 56 58 59
f 56 59 60
f 61 62 63
f 61 63 64
f 65 66 67
f 65 67 68
f 62 69 63
f 70 71 72
f 70 72 73
f 70 73 22
f 70 22 74
f 70 74 71
f 71 74 75
f 71 75 72
f 72 75 23
f 72 23 22
f 72 22 73
f 76 77 55
f 76 55 78
f 76 78 79
f 76 79 80
f 76 80 77
f 77 80 81
f 77 81 55
f 55 81 52
f 82 83 78
f 82 78 55
