# RS2 Model 36546
# Vertices: 236
# Faces: 380

v -55 -64 88
v -55 -23 88
v -55 -23 54
v -55 -64 54
v -52 -43 53
v -52 -64 53
v -55 -64 52
v -55 -45 52
v -55 -45 17
v -55 -64 17
v -52 -64 16
v -52 -43 16
v -55 -41 52
v -55 -41 17
v -52 -21 16
v -55 19 17
v -52 21 16
v -52 21 53
v -55 23 52
v -55 23 17
v -52 43 16
v -55 64 17
v -52 64 16
v -52 -21 89
v -52 -21 53
v -55 19 52
v -55 45 88
v -55 64 88
v -55 64 54
v -55 45 54
v -52 43 53
v -52 43 89
v -52 64 89
v -55 -19 88
v -55 41 88
v -55 41 54
v -55 -19 54
v -52 21 89
v -52 64 53
v -55 64 52
v -52 -43 89
v -52 -64 89
v -34 -23 88
v -34 -64 88
v -34 -64 54
v -34 -23 54
v -37 -21 53
v -37 -21 89
v -37 -43 89
v -37 -64 89
v -34 64 88
v -34 45 88
v -34 45 54
v -34 64 54
v -37 64 53
v -37 43 53
v -34 64 52
v -34 23 52
v -34 23 17
v -34 64 17
v -37 43 16
v -37 64 16
v -37 64 89
v -37 43 89
v -34 41 88
v -34 41 54
v -37 21 53
v -37 21 16
v -34 -19 88
v -34 -19 54
v -34 19 52
v -34 19 17
v -37 -21 16
v -34 -41 17
v -37 -43 16
v -37 -43 53
v -34 -45 52
v -34 -45 17
v -34 -64 17
v -37 -64 16
v -37 21 89
v -34 -64 52
v -37 -64 53
v -34 -41 52
v -62 -34 162
v -62 -64 162
v -62 -64 197
v -62 -34 197
v -59 -32 198
v -59 -32 161
v -59 -64 161
v -59 -64 198
v -34 -64 162
v -34 -34 162
v -34 -34 197
v -34 -64 197
v -37 -64 198
v -37 -32 198
v -34 -62 199
v -37 -64 240
v -34 -62 239
v -34 -2 239
v -37 0 240
v -59 0 240
v -59 -64 240
v -62 -2 239
v -62 -62 239
v -62 -62 199
v -62 -6 199
v -59 -5 198
v -62 -30 197
v -62 -30 162
v -59 -5 161
v -62 -6 160
v -62 -62 160
v -59 -64 124
v -62 -62 125
v -62 -2 125
v -59 0 124
v -59 0 145
v -62 2 146
v -62 2 125
v -59 64 124
v -62 62 125
v -59 64 161
v -62 62 160
v -59 32 161
v -62 34 162
v -62 64 162
v -62 34 197
v -62 64 197
v -59 64 198
v -59 32 198
v -62 62 199
v -59 64 240
v -62 62 239
v -62 2 239
v -37 64 240
v -34 2 239
v -34 62 239
v -37 64 198
v -34 62 199
v -37 32 198
v -34 34 197
v -34 64 197
v -34 34 162
v -34 64 162
v -37 64 161
v -37 32 161
v -34 62 160
v -37 64 124
v -34 62 125
v -34 2 125
v -37 0 124
v -37 0 145
v -34 -2 146
v -34 -2 125
v -37 -64 124
v -34 -62 125
v -37 -64 161
v -34 -62 160
v -37 -32 161
v -34 -30 162
v -34 -30 197
v -37 -5 198
v -34 -6 199
v -34 -8 205
v -34 -7 211
v -34 -2 214
v -37 0 215
v -34 2 214
v -34 7 211
v -34 8 205
v -34 6 199
v -37 5 198
v -34 30 197
v -62 30 162
v -62 30 197
v -59 5 198
v -62 6 199
v -62 8 205
v -62 7 211
v -62 2 214
v -59 0 215
v -62 -2 214
v -62 -7 211
v -62 -8 205
v -62 -5 197
v -62 -3 186
v -62 -3 174
v -62 -5 162
v -34 -5 162
v -37 -5 161
v -34 -6 160
v -62 -8 155
v -62 -7 149
v -62 -2 146
v -34 2 146
v -62 7 149
v -64 -64 16
v -32 -64 16
v -32 64 16
v -64 64 16
v -64 64 0
v -64 -64 0
v -32 -64 0
v -32 64 0
v -64 64 124
v -64 64 88
v -64 -64 124
v -32 -64 124
v -32 64 124
v -32 64 88
v -32 -64 88
v -64 -64 88
v -62 3 186
v -62 3 174
v -34 3 174
v -34 3 186
v -62 5 197
v -62 5 162
v -34 5 162
v -34 30 162
v -34 5 197
v -59 5 161
v -37 5 161
v -34 -5 197
v -34 -3 186
v -34 -3 174
v -34 -8 155
v -34 -7 149
v -62 6 160
v -34 6 160
v -34 8 155
v -34 7 149
v -62 8 155

f 1 2 3
f 1 3 4
f 4 3 5
f 4 5 6
f 6 5 7
f 7 5 8
f 7 8 9
f 7 9 10
f 10 9 11
f 11 9 12
f 12 9 5
f 12 5 13
f 12 13 14
f 12 14 15
f 15 14 16
f 15 16 17
f 17 16 18
f 17 18 19
f 17 19 20
f 17 20 21
f 21 20 22
f 21 22 23
f 3 2 24
f 3 24 25
f 3 25 5
f 5 25 13
f 13 25 26
f 13 26 16
f 13 16 14
f 27 28 29
f 27 29 30
f 27 30 31
f 27 31 32
f 27 32 28
f 28 32 33
f 34 35 36
f 34 36 37
f 34 37 25
f 34 25 24
f 34 24 38
f 34 38 35
f 35 38 32
f 35 32 36
f 36 32 31
f 36 31 18
f 36 18 37
f 37 18 25
f 25 18 26
f 26 18 16
f 31 30 29
f 31 29 39
f 31 39 40
f 31 40 19
f 31 19 18
f 41 2 1
f 41 1 42
f 2 41 24
f 43 44 45
f 43 45 46
f 43 46 47
f 43 47 48
f 43 48 49
f 43 49 44
f 44 49 50
f 51 52 53
f 51 53 54
f 54 53 55
f 55 53 56
f 55 56 57
f 57 56 58
f 57 58 59
f 57 59 60
f 60 59 61
f 60 61 62
f 52 51 63
f 52 63 64
f 52 64 53
f 53 64 56
f 56 64 65
f 56 65 66
f 56 66 67
f 56 67 58
f 58 67 59
f 59 67 68
f 59 68 61
f 65 69 70
f 65 70 66
f 66 70 67
f 67 70 47
f 67 47 71
f 67 71 68
f 68 71 72
f 68 72 73
f 73 72 74
f 73 74 75
f 75 74 76
f 75 76 77
f 75 77 78
f 75 78 79
f 75 79 80
f 70 69 48
f 70 48 47
f 81 69 65
f 81 65 64
f 81 48 69
f 9 8 5
f 22 20 19
f 22 19 40
f 79 78 77
f 79 77 82
f 82 77 83
f 83 77 76
f 83 76 45
f 45 76 46
f 46 76 47
f 47 76 84
f 47 84 71
f 71 84 74
f 71 74 72
f 74 84 76
f 85 86 87
f 85 87 88
f 85 88 89
f 85 89 90
f 85 90 91
f 85 91 86
f 92 89 88
f 92 88 87
f 93 94 95
f 93 95 96
f 96 95 97
f 97 95 98
f 97 98 99
f 97 99 100
f 100 99 101
f 100 101 102
f 100 102 103
f 100 103 104
f 100 104 105
f 105 104 106
f 105 106 107
f 105 107 92
f 92 107 108
f 92 108 89
f 89 108 109
f 89 109 110
f 89 110 111
f 89 111 90
f 90 111 112
f 90 112 113
f 90 113 114
f 90 114 115
f 90 115 91
f 91 115 116
f 116 115 117
f 116 117 118
f 116 118 119
f 119 118 120
f 119 120 121
f 119 121 122
f 119 122 123
f 123 122 124
f 123 124 125
f 125 124 126
f 125 126 127
f 125 127 128
f 125 128 129
f 129 128 130
f 129 130 131
f 131 130 132
f 132 130 133
f 132 133 134
f 132 134 135
f 135 134 136
f 135 136 137
f 135 137 104
f 135 104 103
f 135 103 138
f 138 103 139
f 138 139 140
f 138 140 141
f 141 140 142
f 141 142 143
f 141 143 144
f 141 144 145
f 145 144 146
f 145 146 147
f 147 146 148
f 148 146 149
f 148 149 150
f 148 150 151
f 151 150 152
f 151 152 153
f 151 153 154
f 154 153 155
f 154 155 156
f 154 156 157
f 154 157 158
f 158 157 159
f 158 159 160
f 160 159 161
f 160 161 162
f 160 162 94
f 160 94 93
f 95 94 162
f 95 162 98
f 98 162 163
f 98 163 164
f 98 164 165
f 98 165 166
f 98 166 99
f 99 166 167
f 99 167 168
f 99 168 101
f 101 168 102
f 102 168 169
f 102 169 170
f 102 170 103
f 103 170 171
f 103 171 139
f 139 171 172
f 139 172 140
f 140 172 142
f 142 172 173
f 142 173 174
f 142 174 143
f 143 174 175
f 143 175 176
f 143 176 149
f 143 149 146
f 143 146 144
f 130 128 127
f 130 127 133
f 133 127 177
f 133 177 178
f 133 178 179
f 133 179 180
f 133 180 134
f 134 180 181
f 134 181 182
f 134 182 136
f 136 182 137
f 137 182 183
f 137 183 184
f 137 184 104
f 104 184 185
f 104 185 106
f 106 185 186
f 106 186 107
f 107 186 108
f 108 186 187
f 108 187 109
f 109 187 167
f 109 167 166
f 109 166 110
f 110 166 165
f 110 165 188
f 110 188 111
f 111 188 189
f 111 189 190
f 111 190 112
f 112 190 191
f 112 191 113
f 113 191 192
f 113 192 193
f 113 193 114
f 114 193 194
f 114 194 195
f 114 195 115
f 115 195 196
f 115 196 117
f 117 196 197
f 117 197 118
f 118 197 120
f 120 197 156
f 120 156 155
f 120 155 121
f 121 155 198
f 121 198 199
f 121 199 124
f 121 124 122
f 200 201 202
f 200 202 203
f 200 203 204
f 200 204 205
f 202 201 206
f 202 206 207
f 208 209 210
f 208 210 211
f 208 211 212
f 212 211 213
f 213 211 214
f 210 209 215
f 216 217 218
f 216 218 219
f 216 219 220
f 216 220 178
f 216 178 217
f 217 178 177
f 217 177 221
f 217 221 222
f 217 222 218
f 218 222 223
f 218 223 176
f 218 176 219
f 219 176 224
f 219 224 220
f 220 224 179
f 220 179 178
f 221 225 226
f 221 226 222
f 222 226 223
f 223 226 149
f 223 149 176
f 179 224 175
f 179 175 180
f 180 175 174
f 180 174 181
f 181 174 173
f 181 173 182
f 182 173 172
f 182 172 183
f 183 172 171
f 183 171 184
f 184 171 170
f 184 170 185
f 185 170 169
f 185 169 186
f 186 169 168
f 186 168 187
f 187 168 167
f 189 188 227
f 189 227 228
f 189 228 190
f 190 228 229
f 190 229 191
f 191 229 192
f 192 229 163
f 192 163 193
f 193 163 162
f 193 162 194
f 194 162 161
f 194 161 230
f 194 230 195
f 195 230 196
f 196 230 231
f 196 231 197
f 197 231 156
f 156 231 159
f 156 159 157
f 188 165 227
f 227 165 164
f 227 164 228
f 228 164 229
f 229 164 163
f 225 232 233
f 225 233 226
f 226 233 149
f 149 233 150
f 150 233 234
f 150 234 235
f 150 235 152
f 152 235 198
f 152 198 153
f 153 198 155
f 232 236 234
f 232 234 233
f 236 199 235
f 236 235 234
f 225 221 177
f 225 177 127
f 225 127 232
f 232 127 126
f 232 126 236
f 236 126 199
f 199 126 124
f 176 175 224
f 231 161 159
f 161 231 230
f 199 198 235
