# RS2 Model 36624
# Vertices: 107
# Faces: 156

v -64 64 224
v -64 64 220
v -64 -64 220
v -64 -64 224
v -64 64 240
v -64 -64 240
v -48 64 240
v -48 -64 240
v -48 -64 220
v -48 64 220
v -64 0 203
v -64 -64 208
v -64 64 208
v -64 64 192
v -64 -64 192
v -64 0 164
v -64 -64 169
v -64 64 169
v -64 64 128
v -64 16 123
v -64 -64 128
v -64 64 20
v -64 -16 21
v -64 -64 20
v -64 64 16
v -64 -16 14
v -64 -64 16
v -64 -64 0
v -64 64 0
v -48 64 0
v -48 0 20
v -48 -64 0
v -48 -64 20
v -50 -8 20
v -50 -56 20
v -50 -64 20
v -50 -64 220
v -50 -56 220
v -52 -56 160
v -52 -56 169
v -56 -56 220
v -56 -56 169
v -56 -8 220
v -56 -8 169
v -52 -8 169
v -50 -8 220
v -52 -8 160
v -50 8 20
v -50 8 220
v -52 8 160
v -52 8 169
v -56 8 220
v -56 8 169
v -56 56 220
v -56 56 169
v -52 56 169
v -50 56 220
v -52 56 160
v -50 56 80
v -50 64 220
v -50 64 20
v -50 56 71
v -50 56 20
v -48 64 20
v -56 -56 20
v -56 -8 20
v -56 -8 48
v -56 -56 48
v -56 -56 80
v -56 -56 128
v -56 -56 160
v -56 -8 160
v -56 -8 128
v -56 -8 80
v -50 18 20
v -50 20 36
v -50 11 39
v -56 8 20
v -56 8 48
v -56 8 80
v -56 8 128
v -56 8 160
v -56 56 160
v -56 56 128
v -56 56 80
v -56 36 77
v -50 36 77
v -50 41 68
v -56 41 68
v -56 56 71
v -56 56 48
v -56 56 20
v -56 19 62
v -50 19 62
v -50 27 54
v -56 27 54
v -56 14 48
v -56 25 48
v -56 20 36
v -56 18 20
v -56 11 39
v -52 47 20
v -83 42 20
v -52 -40 20
v -53 64 240
v -96 64 240
v -53 -64 240

f 1 2 3
f 1 3 4
f 1 4 5
f 5 4 6
f 5 6 7
f 7 6 8
f 7 8 9
f 7 9 10
f 11 12 3
f 11 3 2
f 11 2 13
f 11 13 14
f 11 14 15
f 11 15 12
f 16 17 15
f 16 15 14
f 16 14 18
f 16 18 19
f 16 19 20
f 16 20 21
f 16 21 17
f 22 20 19
f 20 22 23
f 20 23 24
f 20 24 21
f 25 23 22
f 23 25 26
f 23 26 24
f 24 26 27
f 27 26 28
f 28 26 29
f 29 26 25
f 30 31 32
f 32 31 33
f 33 31 34
f 33 34 35
f 33 35 36
f 36 35 37
f 37 35 38
f 38 35 39
f 38 39 40
f 38 40 41
f 41 40 42
f 41 42 43
f 43 42 44
f 43 44 45
f 43 45 46
f 46 45 47
f 46 47 34
f 46 34 48
f 46 48 49
f 49 48 50
f 49 50 51
f 49 51 52
f 52 51 53
f 52 53 54
f 54 53 55
f 54 55 56
f 54 56 57
f 57 56 58
f 57 58 59
f 57 59 60
f 60 59 61
f 61 59 62
f 61 62 63
f 61 63 64
f 64 63 31
f 64 31 30
f 65 35 34
f 65 34 66
f 65 66 67
f 65 67 68
f 65 68 35
f 35 68 69
f 35 69 70
f 35 70 39
f 39 70 71
f 71 70 72
f 72 70 73
f 72 73 47
f 47 73 34
f 34 73 74
f 34 74 67
f 34 67 66
f 42 40 45
f 42 45 44
f 45 40 39
f 45 39 47
f 31 48 34
f 48 31 75
f 48 75 76
f 48 76 77
f 48 77 78
f 48 78 79
f 48 79 80
f 48 80 81
f 48 81 50
f 50 81 82
f 82 81 83
f 83 81 84
f 83 84 58
f 58 84 59
f 59 84 85
f 59 85 86
f 59 86 87
f 59 87 88
f 59 88 62
f 62 88 89
f 62 89 90
f 62 90 91
f 62 91 63
f 63 91 92
f 63 92 75
f 63 75 48
f 68 67 74
f 68 74 69
f 69 74 73
f 69 73 70
f 56 55 53
f 56 53 51
f 56 51 50
f 56 50 58
f 80 85 84
f 80 84 81
f 87 86 93
f 87 93 94
f 87 94 88
f 88 94 95
f 88 95 96
f 88 96 89
f 89 96 91
f 89 91 90
f 94 93 97
f 94 97 77
f 94 77 95
f 95 77 76
f 95 76 98
f 95 98 96
f 96 98 91
f 91 98 92
f 92 98 99
f 92 99 100
f 92 100 75
f 75 100 76
f 76 100 99
f 76 99 98
f 77 101 78
f 78 101 79
f 79 101 97
f 79 97 93
f 79 93 80
f 80 93 86
f 80 86 85
f 97 101 77
f 31 63 75
f 102 103 104
