# RS2 Model 36636
# Vertices: 82
# Faces: 116

v 64 64 224
v 64 64 220
v -64 -64 220
v -64 -64 224
v 64 64 240
v -64 -64 240
v 64 48 240
v -48 -64 240
v -48 -64 220
v 64 48 220
v -7 -7 203
v -64 -64 208
v 64 64 208
v 64 64 192
v -64 -64 192
v -7 -7 164
v -64 -64 169
v 64 64 169
v 64 64 128
v 15 15 123
v -64 -64 128
v 64 64 20
v -19 -19 21
v -64 -64 20
v 64 64 16
v -19 -19 14
v -64 -64 16
v -64 -64 0
v 64 64 0
v 64 48 0
v 8 -8 20
v -48 -64 0
v -48 -64 20
v 1 -12 20
v -43 -57 20
v -50 -64 20
v -50 -64 220
v -43 -57 220
v -45 -55 160
v -45 -55 169
v -47 -53 220
v -47 -53 169
v -3 -8 220
v -3 -8 169
v -1 -10 169
v 1 -12 220
v -1 -10 160
v 12 -1 20
v 12 -1 220
v 10 1 160
v 10 1 169
v 8 3 220
v 8 3 169
v 52 49 220
v 52 49 169
v 54 47 169
v 56 44 220
v 54 47 160
v 56 44 20
v 64 50 20
v 64 50 220
v -47 -53 20
v -3 -8 20
v -3 -8 48
v -47 -53 48
v -47 -53 80
v -47 -53 128
v -47 -53 160
v -3 -8 160
v -3 -8 128
v -3 -8 80
v 64 48 20
v 8 3 20
v 8 3 48
v 8 3 80
v 8 3 128
v 8 3 160
v 52 49 160
v 52 49 128
v 52 49 80
v 52 49 48
v 52 49 20

f 1 2 3
f 1 3 4
f 1 4 5
f 5 4 6
f 5 6 7
f 7 6 8
f 7 8 9
f 7 9 10
f 11 12 3
f 11 3 2
f 11 2 13
f 11 13 14
f 11 14 15
f 11 15 12
f 16 17 15
f 16 15 14
f 16 14 18
f 16 18 19
f 16 19 20
f 16 20 21
f 16 21 17
f 22 20 19
f 20 22 23
f 20 23 24
f 20 24 21
f 25 23 22
f 23 25 26
f 23 26 24
f 24 26 27
f 27 26 28
f 28 26 29
f 29 26 25
f 30 31 32
f 32 31 33
f 33 31 34
f 33 34 35
f 33 35 36
f 36 35 37
f 37 35 38
f 38 35 39
f 38 39 40
f 38 40 41
f 41 40 42
f 41 42 43
f 43 42 44
f 43 44 45
f 43 45 46
f 46 45 47
f 46 47 34
f 46 34 48
f 46 48 49
f 49 48 50
f 49 50 51
f 49 51 52
f 52 51 53
f 52 53 54
f 54 53 55
f 54 55 56
f 54 56 57
f 57 56 58
f 57 58 59
f 57 59 60
f 57 60 61
f 62 35 34
f 62 34 63
f 62 63 64
f 62 64 65
f 62 65 35
f 35 65 66
f 35 66 67
f 35 67 39
f 39 67 68
f 68 67 69
f 69 67 70
f 69 70 47
f 47 70 34
f 34 70 71
f 34 71 64
f 34 64 63
f 42 40 45
f 42 45 44
f 45 40 39
f 45 39 47
f 31 48 34
f 48 31 72
f 48 72 59
f 48 59 73
f 48 73 74
f 48 74 75
f 48 75 76
f 48 76 50
f 50 76 77
f 77 76 78
f 78 76 79
f 78 79 58
f 58 79 59
f 59 79 80
f 59 80 81
f 59 81 82
f 59 82 73
f 73 82 81
f 73 81 74
f 74 81 80
f 74 80 75
f 75 80 79
f 75 79 76
f 65 64 71
f 65 71 66
f 66 71 70
f 66 70 67
f 31 30 72
f 56 55 53
f 56 53 51
f 56 51 50
f 56 50 58
f 59 72 60
