# RS2 Model 36634
# Vertices: 31
# Faces: 38

v -48 64 240
v -64 64 240
v -48 48 240
v -48 64 224
v -48 48 224
v -48 64 220
v -48 48 220
v -48 64 112
v -48 48 112
v -48 64 71
v -48 48 71
v -48 64 48
v -48 48 48
v -48 64 32
v -48 48 32
v -48 64 20
v -48 48 20
v -48 64 16
v -48 48 16
v -48 64 0
v -48 48 0
v -64 48 16
v -64 48 0
v -64 48 240
v -64 48 224
v -64 48 220
v -64 48 112
v -64 48 71
v -64 48 48
v -64 48 32
v -64 48 20

f 1 2 3
f 1 3 4
f 4 3 5
f 4 5 6
f 6 5 7
f 6 7 8
f 8 7 9
f 8 9 10
f 10 9 11
f 10 11 12
f 12 11 13
f 12 13 14
f 14 13 15
f 14 15 16
f 16 15 17
f 16 17 18
f 18 17 19
f 18 19 20
f 20 19 21
f 21 19 22
f 21 22 23
f 24 3 2
f 3 24 5
f 5 24 25
f 5 25 7
f 7 25 26
f 7 26 9
f 9 26 27
f 9 27 11
f 11 27 28
f 11 28 13
f 13 28 29
f 13 29 15
f 15 29 30
f 15 30 17
f 17 30 31
f 17 31 19
f 19 31 22
