# RS2 Model 36640
# Vertices: 55
# Faces: 62

v -48 64 240
v -64 64 240
v -64 -64 240
v -48 -48 240
v -48 -16 226
v -48 64 224
v -48 -16 219
v -48 64 220
v -48 0 117
v -48 32 117
v -48 64 112
v -48 0 76
v -48 64 71
v -48 64 48
v -48 -48 48
v -48 0 37
v -48 64 32
v -48 64 20
v -48 -48 20
v -48 64 16
v -48 -48 16
v -48 64 0
v -48 -48 0
v -64 -64 16
v -64 -64 20
v -64 64 20
v -64 64 16
v -64 -64 0
v -64 64 0
v -64 -64 32
v -64 0 37
v -64 64 32
v -64 64 48
v -64 -64 48
v -64 -64 71
v -64 0 76
v -64 64 71
v -64 64 112
v -64 32 117
v -64 64 220
v -64 0 117
v -64 -16 219
v -64 64 224
v -64 -16 226
v -64 -64 224
v -64 -64 220
v -64 -64 112
v -48 -48 32
v -48 -48 71
v -48 -48 112
v -48 -48 220
v -48 -48 224
v -54 66 240
v -97 62 240
v -53 -56 240

f 1 2 3
f 1 3 4
f 1 4 5
f 1 5 6
f 6 5 7
f 6 7 8
f 8 7 9
f 8 9 10
f 8 10 11
f 11 10 12
f 11 12 13
f 13 12 14
f 14 12 15
f 14 15 16
f 14 16 17
f 17 16 18
f 18 16 19
f 18 19 20
f 20 19 21
f 20 21 22
f 22 21 23
f 24 25 26
f 24 26 27
f 24 27 28
f 28 27 29
f 26 25 30
f 26 30 31
f 26 31 32
f 32 31 33
f 33 31 34
f 33 34 35
f 33 35 36
f 33 36 37
f 37 36 38
f 38 36 39
f 38 39 40
f 40 39 41
f 40 41 42
f 40 42 43
f 43 42 44
f 43 44 2
f 2 44 3
f 3 44 45
f 45 44 46
f 46 44 42
f 46 42 41
f 46 41 47
f 47 41 36
f 47 36 35
f 31 30 34
f 39 36 41
f 16 48 19
f 48 16 15
f 12 49 15
f 49 12 50
f 50 12 9
f 50 9 51
f 51 9 7
f 51 7 5
f 51 5 52
f 52 5 4
f 9 12 10
