# RS2 Model 36692
# Vertices: 195
# Faces: 307

v -18 34 166
v -18 64 166
v -18 64 201
v -18 34 201
v -21 32 202
v -21 32 165
v -21 64 165
v -21 64 202
v -62 64 166
v -62 34 166
v -62 34 201
v -62 64 201
v -59 64 202
v -59 32 202
v -59 32 165
v -59 64 165
v -62 62 164
v -62 2 164
v -59 0 165
v -21 0 165
v -18 2 164
v -18 62 164
v -21 64 128
v -18 62 129
v -18 2 129
v -21 0 128
v -24 16 123
v -24 64 123
v -24 40 118
v -24 56 118
v -24 64 118
v -18 -64 166
v -18 -34 166
v -18 -34 201
v -18 -64 201
v -21 -64 202
v -21 -32 202
v -59 -32 202
v -59 -64 202
v -62 -34 201
v -62 -64 201
v -62 -34 166
v -62 -64 166
v -59 -64 165
v -59 -32 165
v -62 -62 164
v -59 -64 128
v -62 -62 129
v -62 -2 129
v -59 0 128
v -64 -64 128
v -64 64 128
v -64 64 0
v -64 -64 0
v -21 -32 165
v -21 -64 165
v -18 -62 164
v -18 -2 164
v -62 -2 164
v -18 -62 129
v -18 -2 129
v -21 -64 128
v -62 2 129
v -59 64 128
v -62 62 129
v -35 -40 118
v -35 -40 107
v -35 -24 107
v -35 -24 118
v -24 -24 107
v -24 -24 118
v -24 -8 107
v -24 -8 118
v -24 -16 123
v -24 -40 118
v -24 -64 123
v -24 -56 118
v -24 -40 107
v -24 -56 107
v -35 -56 118
v -35 -56 107
v -35 -64 118
v -35 -64 96
v -35 -16 96
v -35 -8 107
v -35 8 107
v -35 -8 118
v -35 8 118
v -24 8 107
v -24 8 118
v -24 24 107
v -24 24 118
v -35 24 107
v -35 24 118
v -35 40 107
v -35 40 118
v -24 40 107
v -24 56 107
v -35 56 107
v -35 56 118
v -35 64 118
v -35 64 96
v -35 16 96
v -24 -64 118
v -30 -3 0
v -31 -3 9
v -31 -61 9
v -30 -61 0
v -33 -64 0
v -34 -64 8
v -38 -61 14
v -38 -64 11
v -38 -64 14
v -35 -62 16
v -38 -64 32
v -35 -62 30
v -38 -32 32
v -44 -43 32
v -44 -64 32
v -41 -64 34
v -41 -45 34
v -41 -45 62
v -41 -64 62
v -44 -64 64
v -44 -43 64
v -39 -62 66
v -44 -64 96
v -39 -62 94
v -39 -23 94
v -44 -21 96
v -44 -21 64
v -41 -19 66
v -41 -19 94
v -41 20 94
v -44 22 96
v -44 22 64
v -41 24 66
v -41 24 94
v -41 62 94
v -44 64 96
v -44 64 64
v -41 62 66
v -44 43 64
v -41 64 62
v -41 45 62
v -41 45 34
v -41 64 34
v -44 64 32
v -44 43 32
v -38 64 32
v -38 32 32
v -35 62 30
v -38 64 14
v -35 62 16
v -38 61 14
v -38 64 11
v -31 61 9
v -34 64 8
v -30 61 0
v -33 64 0
v -38 -32 14
v -38 -3 14
v -35 -30 16
v -35 -34 30
v -35 -34 16
v -31 3 9
v -30 3 0
v -38 32 14
v -35 34 16
v -35 30 30
v -35 30 16
v -38 3 14
v -34 0 8
v -33 0 0
v -35 34 30
v -35 -2 16
v -35 -2 30
v -35 -30 30
v -38 0 32
v -44 0 32
v -41 -2 34
v -41 -41 34
v -38 0 14
v -35 2 16
v -35 2 30
v -39 2 34
v -44 0 64
v -41 -2 62
v -41 -41 62
v -39 -23 66
v -39 41 62
v -39 41 34
v -39 2 62
v -41 20 66
v -38 0 11

f 1 2 3
f 1 3 4
f 1 4 5
f 1 5 6
f 1 6 7
f 1 7 2
f 8 5 4
f 8 4 3
f 9 10 11
f 9 11 12
f 12 11 13
f 13 11 14
f 13 14 5
f 13 5 8
f 11 10 15
f 11 15 14
f 14 15 6
f 14 6 5
f 16 10 9
f 10 16 15
f 15 16 17
f 15 17 18
f 15 18 19
f 15 19 20
f 15 20 6
f 6 20 21
f 6 21 22
f 6 22 7
f 7 22 23
f 23 22 24
f 23 24 25
f 23 25 26
f 23 26 27
f 23 27 28
f 28 27 29
f 28 29 30
f 28 30 31
f 32 33 34
f 32 34 35
f 35 34 36
f 36 34 37
f 36 37 38
f 36 38 39
f 39 38 40
f 39 40 41
f 41 40 42
f 41 42 43
f 43 42 44
f 44 42 45
f 44 45 46
f 44 46 47
f 47 46 48
f 47 48 49
f 47 49 50
f 47 50 51
f 51 50 52
f 51 52 53
f 51 53 54
f 34 33 55
f 34 55 37
f 37 55 45
f 37 45 38
f 38 45 42
f 38 42 40
f 55 33 56
f 55 56 57
f 55 57 58
f 55 58 20
f 55 20 19
f 55 19 45
f 45 19 59
f 45 59 46
f 46 59 49
f 46 49 48
f 56 33 32
f 60 61 58
f 60 58 57
f 60 57 56
f 60 56 62
f 60 62 61
f 61 62 26
f 61 26 58
f 58 26 20
f 20 26 25
f 20 25 21
f 21 25 22
f 22 25 24
f 49 59 19
f 49 19 50
f 50 19 18
f 50 18 63
f 50 63 64
f 50 64 52
f 65 63 18
f 65 18 17
f 65 17 16
f 65 16 64
f 65 64 63
f 66 67 68
f 66 68 69
f 69 68 70
f 69 70 71
f 71 70 72
f 71 72 73
f 71 73 74
f 71 74 75
f 75 74 76
f 75 76 77
f 75 77 78
f 75 78 67
f 75 67 66
f 77 79 78
f 79 77 80
f 79 80 81
f 81 80 82
f 81 82 83
f 81 83 67
f 67 83 84
f 67 84 68
f 68 84 85
f 85 84 86
f 85 86 87
f 85 87 73
f 85 73 72
f 87 86 88
f 88 86 89
f 88 89 90
f 90 89 91
f 90 91 92
f 90 92 27
f 90 27 73
f 73 27 74
f 74 27 26
f 74 26 62
f 74 62 76
f 92 91 93
f 92 93 94
f 94 93 95
f 94 95 96
f 96 95 97
f 96 97 29
f 29 97 98
f 29 98 30
f 30 98 99
f 30 99 100
f 100 99 101
f 101 99 102
f 102 99 95
f 102 95 103
f 103 95 93
f 103 93 86
f 103 86 84
f 76 104 77
f 29 27 92
f 105 106 107
f 105 107 108
f 108 107 109
f 109 107 110
f 110 107 111
f 110 111 112
f 112 111 113
f 113 111 114
f 113 114 115
f 115 114 116
f 115 116 117
f 115 117 118
f 115 118 119
f 119 118 120
f 120 118 121
f 120 121 122
f 120 122 123
f 123 122 124
f 124 122 125
f 124 125 126
f 124 126 127
f 127 126 128
f 127 128 129
f 127 129 130
f 130 129 131
f 130 131 132
f 130 132 133
f 130 133 134
f 130 134 135
f 135 134 136
f 135 136 137
f 135 137 138
f 135 138 139
f 135 139 140
f 140 139 141
f 141 139 142
f 141 142 143
f 141 143 144
f 144 143 145
f 144 145 146
f 144 146 147
f 147 146 148
f 148 146 149
f 148 149 150
f 150 149 151
f 150 151 152
f 150 152 153
f 153 152 154
f 153 154 155
f 153 155 156
f 156 155 157
f 156 157 158
f 158 157 159
f 158 159 160
f 161 107 106
f 161 106 162
f 161 162 163
f 161 163 117
f 161 117 164
f 161 164 165
f 161 165 111
f 161 111 107
f 157 166 167
f 157 167 159
f 168 166 157
f 168 157 155
f 168 155 169
f 168 169 151
f 168 151 170
f 168 170 171
f 168 171 172
f 168 172 166
f 166 172 173
f 166 173 174
f 166 174 167
f 114 165 164
f 114 164 116
f 116 164 117
f 111 165 114
f 169 154 152
f 169 152 175
f 169 175 151
f 151 175 152
f 155 154 169
f 163 176 177
f 163 177 178
f 163 178 117
f 117 178 177
f 117 177 179
f 117 179 180
f 117 180 118
f 118 180 181
f 118 181 182
f 118 182 125
f 118 125 122
f 118 122 121
f 177 176 183
f 177 183 179
f 179 183 184
f 179 184 185
f 179 185 170
f 179 170 151
f 179 151 149
f 179 149 180
f 180 149 186
f 180 186 187
f 180 187 188
f 180 188 181
f 181 188 182
f 182 188 189
f 182 189 125
f 125 189 131
f 125 131 190
f 125 190 126
f 126 190 129
f 126 129 128
f 162 183 176
f 162 176 163
f 184 171 170
f 184 170 185
f 146 145 143
f 146 143 149
f 149 143 191
f 149 191 192
f 149 192 186
f 186 192 191
f 186 191 193
f 186 193 187
f 187 193 136
f 187 136 194
f 187 194 132
f 187 132 131
f 187 131 188
f 188 131 189
f 129 190 131
f 132 194 134
f 132 134 133
f 134 194 136
f 137 142 139
f 137 139 138
f 143 142 137
f 143 137 136
f 143 136 191
f 191 136 193
f 173 172 195
f 173 195 106
f 173 106 105
f 173 105 174
f 172 183 195
f 195 183 162
f 195 162 106
f 172 171 184
f 172 184 183
