# RS2 Model 36696
# Vertices: 32
# Faces: 41

v 64 35 2
v 64 61 2
v -52 61 2
v -52 35 2
v 64 32 0
v -50 32 0
v 64 29 2
v -52 29 2
v 64 3 2
v -52 3 2
v 64 0 0
v -50 0 0
v 64 -3 2
v -52 -3 2
v 64 -29 2
v -52 -29 2
v 64 -32 0
v -50 -32 0
v 64 -35 2
v -52 -35 2
v 64 -61 2
v -52 -61 2
v 64 -64 0
v -50 -64 0
v -54 -64 4
v -54 64 4
v -64 -64 4
v -64 64 4
v -64 64 0
v -64 -64 0
v 64 64 0
v -50 64 0

f 1 2 3
f 1 3 4
f 1 4 5
f 5 4 6
f 5 6 7
f 7 6 8
f 7 8 9
f 9 8 10
f 9 10 11
f 11 10 12
f 11 12 13
f 13 12 14
f 13 14 15
f 15 14 16
f 15 16 17
f 17 16 18
f 17 18 19
f 19 18 20
f 19 20 21
f 21 20 22
f 21 22 23
f 23 22 24
f 24 22 25
f 25 22 20
f 25 20 16
f 25 16 14
f 25 14 10
f 25 10 26
f 25 26 27
f 27 26 28
f 27 28 29
f 27 29 30
f 2 31 32
f 2 32 3
f 3 32 26
f 3 26 4
f 4 26 8
f 4 8 6
f 14 12 10
f 16 20 18
f 10 8 26
