# RS2 Model 3671
# Vertices: 46
# Faces: 67

v -56 -38 192
v -56 -16 226
v -56 -34 226
v -48 -34 226
v -48 -38 192
v -48 -16 226
v -48 -40 176
v -48 -2 226
v -48 -48 240
v -48 -42 116
v -56 -40 176
v -56 -2 226
v -56 50 226
v -56 32 226
v -56 54 192
v -48 54 192
v -48 50 226
v -48 64 226
v -48 64 240
v -48 32 226
v -48 18 226
v -56 18 226
v -56 -42 116
v -56 -38 24
v -56 -32 0
v -56 48 0
v -56 54 24
v -56 58 116
v -56 54 176
v -48 54 176
v -48 58 116
v -48 64 0
v -64 64 16
v -64 64 240
v -64 -64 16
v -64 -64 240
v -64 64 0
v -64 -64 0
v -48 54 24
v -48 48 0
v -48 -48 0
v -48 -38 24
v -48 -32 0
v -56 64 0
v -56 64 240
v -56 -64 0

f 1 2 3
f 1 3 4
f 1 4 5
f 1 5 2
f 2 5 6
f 6 5 7
f 6 7 8
f 6 8 9
f 6 9 4
f 4 9 5
f 5 9 7
f 7 9 10
f 7 10 11
f 7 11 12
f 7 12 8
f 13 14 15
f 13 15 16
f 13 16 17
f 17 16 18
f 17 18 19
f 17 19 20
f 20 19 21
f 20 21 16
f 20 16 15
f 20 15 14
f 22 12 11
f 22 11 23
f 22 23 24
f 22 24 25
f 22 25 26
f 22 26 27
f 22 27 28
f 22 28 29
f 22 29 21
f 21 29 30
f 21 30 16
f 16 30 18
f 18 30 31
f 18 31 32
f 18 32 33
f 18 33 34
f 18 34 19
f 19 34 9
f 19 9 21
f 21 9 8
f 35 36 34
f 35 34 33
f 35 33 37
f 35 37 38
f 34 36 9
f 31 39 32
f 32 39 40
f 40 39 27
f 40 27 26
f 41 10 9
f 10 41 42
f 10 42 23
f 10 23 11
f 41 43 42
f 42 43 25
f 42 25 24
f 42 24 23
f 31 28 27
f 31 27 39
f 30 29 28
f 30 28 31
f 32 37 33
