# RS2 Model 36727
# Vertices: 227
# Faces: 363

v -43 -41 82
v -43 -2 82
v -43 -2 110
v -43 -41 110
v -48 -43 112
v -48 -43 80
v -48 0 80
v -48 0 112
v -48 -21 112
v -45 -23 114
v -45 -62 114
v -48 -64 112
v -45 -45 110
v -45 -45 82
v -45 -64 82
v -48 -64 80
v -42 -64 80
v -42 -32 80
v -42 0 80
v -48 42 80
v -45 2 82
v -45 2 110
v -48 22 112
v -45 20 114
v -45 -19 114
v -48 -21 144
v -45 -23 142
v -45 -62 142
v -48 -64 144
v -45 -64 110
v -45 40 82
v -45 40 110
v -48 42 112
v -45 24 114
v -48 22 144
v -45 20 142
v -45 -19 142
v -48 0 144
v -43 -2 146
v -43 -41 146
v -48 -43 144
v -45 -64 146
v -45 -45 146
v -45 -45 174
v -45 -64 174
v -48 -64 176
v -48 -43 176
v -43 -62 178
v -48 -64 208
v -43 -62 206
v -48 -43 208
v -45 -64 210
v -45 -45 210
v -45 -45 238
v -45 -64 238
v -48 -64 240
v -48 -43 240
v -64 -64 240
v -48 0 240
v -64 64 240
v -64 64 230
v -64 -64 230
v -60 64 226
v -60 -64 226
v -60 64 179
v -60 -64 179
v -60 64 138
v -60 -64 138
v -60 64 115
v -60 -64 115
v -60 64 99
v -60 -64 99
v -60 64 85
v -60 -64 85
v -64 64 85
v -64 -64 85
v -64 -64 75
v -64 64 75
v -62 -3 73
v -62 -29 73
v -62 -35 73
v -62 -61 73
v -60 -64 71
v -62 -61 12
v -60 -64 14
v -64 -64 10
v -62 -35 12
v -62 -29 12
v -62 -3 12
v -62 3 12
v -64 64 10
v -64 64 0
v -64 -64 0
v -45 44 82
v -45 44 110
v -45 64 110
v -48 64 112
v -45 64 114
v -45 64 142
v -45 24 142
v -48 42 144
v -45 40 146
v -45 2 146
v -45 64 82
v -45 64 93
v -48 64 80
v -42 64 80
v -42 32 80
v -39 62 78
v -42 64 62
v -39 62 64
v -42 61 62
v -42 64 59
v -33 61 57
v -36 64 56
v -32 61 48
v -35 64 48
v -48 64 144
v -45 44 146
v -48 42 176
v -45 40 174
v -45 2 174
v -48 0 176
v -43 -2 174
v -43 -41 174
v -45 64 146
v -45 64 174
v -45 44 174
v -48 64 176
v -45 64 178
v -45 24 178
v -48 22 176
v -45 20 178
v -45 -19 178
v -48 -21 176
v -43 -23 178
v -43 -23 206
v -48 -21 208
v -43 -41 210
v -45 20 206
v -45 -19 206
v -48 22 208
v -48 0 208
v -43 -2 210
v -43 -2 238
v -43 -41 238
v -43 2 210
v -43 2 238
v -43 40 238
v -48 42 240
v -48 64 240
v -45 64 238
v -45 44 238
v -45 44 210
v -45 64 210
v -48 64 208
v -48 42 208
v -45 64 206
v -45 24 206
v -43 40 210
v -38 32 48
v -35 29 45
v -35 29 0
v -38 32 0
v -35 35 45
v -35 64 45
v -38 64 48
v -35 -29 45
v -38 -32 48
v -38 -32 0
v -35 -29 0
v -32 0 0
v -36 0 56
v -33 -3 57
v -32 -3 48
v -35 0 48
v -33 3 57
v -42 3 62
v -42 0 59
v -42 -3 62
v -42 -32 62
v -33 -61 57
v -32 -61 48
v -36 -64 56
v -35 -64 48
v -42 -61 62
v -42 -64 59
v -42 -64 62
v -39 -62 64
v -39 -62 78
v -39 -34 78
v -39 -30 64
v -39 -30 78
v -39 -2 78
v -42 0 62
v -39 2 64
v -39 2 78
v -39 30 78
v -32 3 48
v -42 32 62
v -39 30 64
v -39 -2 64
v -39 34 64
v -35 -35 45
v -35 -35 0
v -38 -64 48
v -35 -64 45
v -32 -64 0
v -35 35 0
v -32 64 0
v -39 -34 64
v -39 34 78
v -62 35 73
v -62 61 73
v -62 61 12
v -62 35 12
v -60 32 71
v -62 29 73
v -60 64 71
v -60 64 14
v -62 29 12
v -60 32 14
v -62 3 73
v -60 0 71
v -60 0 14
v -60 -32 71
v -60 -32 14

f 1 2 3
f 1 3 4
f 1 4 5
f 1 5 6
f 1 6 2
f 2 6 7
f 2 7 3
f 3 7 8
f 3 8 9
f 3 9 4
f 4 9 5
f 5 9 10
f 5 10 11
f 5 11 12
f 5 12 13
f 5 13 6
f 6 13 14
f 6 14 15
f 6 15 16
f 6 16 17
f 6 17 18
f 6 18 7
f 7 18 19
f 7 19 20
f 7 20 21
f 7 21 8
f 8 21 22
f 8 22 23
f 8 23 24
f 8 24 25
f 8 25 9
f 9 25 26
f 9 26 27
f 9 27 10
f 10 27 11
f 11 27 28
f 11 28 29
f 11 29 12
f 15 14 13
f 15 13 30
f 30 13 12
f 21 31 32
f 21 32 22
f 22 32 23
f 23 32 33
f 23 33 34
f 23 34 35
f 23 35 36
f 23 36 24
f 24 36 25
f 25 36 37
f 25 37 26
f 26 37 38
f 26 38 39
f 26 39 40
f 26 40 41
f 26 41 27
f 27 41 28
f 28 41 29
f 29 41 42
f 42 41 43
f 42 43 44
f 42 44 45
f 45 44 46
f 46 44 47
f 46 47 48
f 46 48 49
f 49 48 50
f 49 50 51
f 49 51 52
f 52 51 53
f 52 53 54
f 52 54 55
f 55 54 56
f 56 54 57
f 56 57 58
f 58 57 59
f 58 59 60
f 58 60 61
f 58 61 62
f 62 61 63
f 62 63 64
f 64 63 65
f 64 65 66
f 66 65 67
f 66 67 68
f 68 67 69
f 68 69 70
f 70 69 71
f 70 71 72
f 72 71 73
f 72 73 74
f 74 73 75
f 74 75 76
f 76 75 77
f 77 75 78
f 77 78 79
f 77 79 80
f 77 80 81
f 77 81 82
f 77 82 83
f 83 82 84
f 83 84 85
f 85 84 86
f 86 84 87
f 86 87 88
f 86 88 89
f 86 89 90
f 86 90 91
f 86 91 92
f 86 92 93
f 32 31 20
f 32 20 33
f 33 20 94
f 33 94 95
f 33 95 96
f 33 96 97
f 33 97 98
f 33 98 34
f 34 98 99
f 34 99 100
f 34 100 35
f 35 100 101
f 35 101 102
f 35 102 103
f 35 103 38
f 35 38 36
f 36 38 37
f 20 31 21
f 94 104 105
f 94 105 95
f 95 105 96
f 106 104 94
f 106 94 20
f 106 20 107
f 107 20 108
f 107 108 109
f 107 109 110
f 110 109 111
f 110 111 112
f 110 112 113
f 113 112 114
f 113 114 115
f 115 114 116
f 115 116 117
f 101 100 99
f 101 99 118
f 101 118 119
f 101 119 120
f 101 120 121
f 101 121 102
f 102 121 103
f 103 121 122
f 103 122 123
f 103 123 38
f 38 123 124
f 38 124 39
f 39 124 40
f 40 124 125
f 40 125 47
f 40 47 41
f 41 47 44
f 41 44 43
f 119 126 127
f 119 127 128
f 119 128 120
f 120 128 127
f 120 127 129
f 120 129 130
f 120 130 131
f 120 131 132
f 120 132 121
f 121 132 122
f 122 132 123
f 123 132 133
f 123 133 134
f 123 134 135
f 123 135 124
f 124 135 125
f 125 135 47
f 47 135 136
f 47 136 48
f 48 136 137
f 48 137 50
f 50 137 51
f 51 137 138
f 51 138 139
f 51 139 57
f 51 57 54
f 51 54 53
f 118 126 119
f 134 133 140
f 134 140 141
f 134 141 138
f 134 138 135
f 135 138 137
f 135 137 136
f 140 133 132
f 140 132 142
f 140 142 143
f 140 143 141
f 141 143 138
f 138 143 144
f 138 144 139
f 139 144 145
f 139 145 146
f 139 146 57
f 57 146 145
f 57 145 59
f 59 145 143
f 59 143 147
f 59 147 148
f 59 148 149
f 59 149 150
f 59 150 60
f 60 150 151
f 151 150 152
f 152 150 153
f 152 153 154
f 152 154 155
f 155 154 156
f 156 154 157
f 156 157 158
f 158 157 159
f 158 159 131
f 158 131 130
f 131 159 142
f 131 142 132
f 157 142 159
f 142 157 160
f 142 160 147
f 142 147 143
f 145 144 143
f 147 160 149
f 147 149 148
f 149 160 157
f 149 157 150
f 150 157 154
f 150 154 153
f 161 162 163
f 161 163 164
f 161 164 165
f 161 165 166
f 161 166 167
f 168 169 170
f 168 170 171
f 168 171 172
f 168 172 162
f 168 162 169
f 169 162 161
f 172 163 162
f 173 174 175
f 173 175 176
f 173 176 177
f 173 177 178
f 173 178 179
f 173 179 174
f 174 179 180
f 174 180 181
f 174 181 182
f 174 182 183
f 174 183 175
f 182 184 185
f 182 185 183
f 184 182 186
f 184 186 187
f 187 186 188
f 188 186 189
f 188 189 17
f 17 189 190
f 17 190 18
f 18 190 191
f 18 191 181
f 18 181 192
f 18 192 193
f 18 193 194
f 18 194 19
f 19 194 195
f 19 195 196
f 19 196 197
f 19 197 198
f 19 198 108
f 19 108 20
f 177 176 199
f 177 199 114
f 177 114 200
f 177 200 178
f 178 200 201
f 178 201 196
f 178 196 195
f 178 195 179
f 179 195 180
f 180 195 202
f 180 202 192
f 180 192 181
f 114 199 116
f 200 114 112
f 200 112 203
f 200 203 108
f 200 108 198
f 200 198 201
f 201 198 196
f 196 198 197
f 169 204 205
f 169 205 170
f 206 207 204
f 206 204 169
f 204 207 208
f 204 208 205
f 165 164 209
f 165 209 210
f 165 210 166
f 182 181 186
f 186 181 211
f 186 211 189
f 189 211 191
f 189 191 190
f 192 202 194
f 192 194 193
f 194 202 195
f 191 211 181
f 203 111 109
f 203 109 212
f 203 212 108
f 108 212 109
f 112 111 203
f 213 214 215
f 213 215 216
f 213 216 217
f 213 217 218
f 213 218 78
f 213 78 214
f 214 78 219
f 214 219 220
f 214 220 215
f 215 220 91
f 215 91 216
f 216 91 221
f 216 221 222
f 216 222 217
f 217 222 218
f 218 222 221
f 218 221 223
f 218 223 78
f 78 223 79
f 79 223 224
f 79 224 225
f 79 225 89
f 79 89 80
f 80 89 88
f 80 88 226
f 80 226 81
f 81 226 227
f 81 227 87
f 81 87 82
f 82 87 84
f 223 221 90
f 223 90 224
f 224 90 225
f 225 90 89
f 226 88 227
f 227 88 87
f 90 221 91
