# RS2 Model 36721
# Vertices: 38
# Faces: 36

v 64 46 7
v -64 46 7
v -64 43 0
v 64 43 0
v -64 40 7
v 64 40 7
v -64 25 7
v 64 25 7
v -64 22 0
v 64 22 0
v -64 19 7
v 64 19 7
v -64 3 7
v 64 3 7
v -64 0 0
v 64 0 0
v -64 -3 7
v 64 -3 7
v -64 -17 7
v 64 -17 7
v -64 -20 0
v 64 -20 0
v -64 -23 7
v 64 -23 7
v -64 -39 7
v 64 -39 7
v -64 -42 0
v 64 -42 0
v -64 -45 7
v 64 -45 7
v -64 -61 7
v 64 -61 7
v -64 -64 0
v 64 -64 0
v -64 61 7
v 64 61 7
v 64 64 0
v -64 64 0

f 1 2 3
f 1 3 4
f 4 3 5
f 4 5 6
f 6 5 7
f 6 7 8
f 8 7 9
f 8 9 10
f 10 9 11
f 10 11 12
f 12 11 13
f 12 13 14
f 14 13 15
f 14 15 16
f 16 15 17
f 16 17 18
f 18 17 19
f 18 19 20
f 20 19 21
f 20 21 22
f 22 21 23
f 22 23 24
f 24 23 25
f 24 25 26
f 26 25 27
f 26 27 28
f 28 27 29
f 28 29 30
f 30 29 31
f 30 31 32
f 32 31 33
f 32 33 34
f 35 36 37
f 35 37 38
f 36 35 2
f 36 2 1
