# RS2 Model 36741
# Vertices: 117
# Faces: 164

v -24 56 107
v -24 56 118
v -24 40 118
v -24 40 107
v -35 40 118
v -35 40 107
v -35 35 118
v -35 35 96
v -35 64 96
v -35 56 107
v -35 64 118
v -35 56 118
v -24 64 123
v -24 24 123
v -24 24 118
v -40 24 118
v -64 24 123
v -56 24 118
v -40 24 107
v -40 35 107
v -40 35 118
v -56 35 107
v -64 35 96
v -64 35 118
v -56 35 118
v -56 24 107
v -24 64 118
v -64 24 118
v -61 31 9
v -64 34 8
v -64 33 0
v -61 30 0
v -30 30 0
v -31 31 9
v -38 38 14
v -61 38 14
v -64 38 11
v -64 38 14
v -62 35 16
v -64 38 32
v -62 35 30
v -35 35 30
v -38 38 32
v -44 44 32
v -64 44 32
v -64 41 34
v -46 41 34
v -46 41 62
v -64 41 62
v -64 44 64
v -44 44 64
v -62 41 66
v -64 44 96
v -62 41 94
v -44 44 96
v -41 41 94
v -41 62 94
v -44 64 96
v -44 64 64
v -41 62 66
v -41 64 62
v -41 46 62
v -41 46 34
v -41 64 34
v -44 64 32
v -38 64 32
v -35 62 30
v -38 64 14
v -35 62 16
v -38 61 14
v -38 64 11
v -31 61 9
v -34 64 8
v -30 61 0
v -33 64 0
v -35 35 16
v -41 41 66
v -64 21 128
v -21 21 128
v -62 18 129
v -64 21 165
v -62 18 164
v -21 21 165
v -64 18 166
v -18 18 166
v -64 18 201
v -18 18 201
v -64 21 202
v -21 21 202
v -64 59 202
v -59 59 202
v -64 62 201
v -62 62 201
v -64 62 166
v -62 62 166
v -64 59 165
v -59 59 165
v -59 64 165
v -62 64 164
v -64 62 164
v -64 62 129
v -64 59 128
v -59 64 128
v -64 64 128
v -21 64 128
v -18 62 129
v -18 18 129
v -18 18 164
v -18 62 164
v -21 64 165
v -18 64 166
v -18 64 201
v -21 64 202
v -59 64 202
v -62 64 201
v -62 64 166
v -62 64 129

f 1 2 3
f 1 3 4
f 4 3 5
f 4 5 6
f 6 5 7
f 6 7 8
f 6 8 9
f 6 9 10
f 10 9 11
f 10 11 12
f 10 12 2
f 10 2 1
f 3 13 14
f 3 14 15
f 15 14 16
f 16 14 17
f 16 17 18
f 16 18 19
f 16 19 20
f 16 20 21
f 21 20 7
f 7 20 8
f 8 20 22
f 8 22 23
f 23 22 24
f 24 22 25
f 25 22 26
f 25 26 18
f 18 26 19
f 13 3 2
f 13 2 27
f 17 28 18
f 29 30 31
f 29 31 32
f 29 32 33
f 29 33 34
f 29 34 35
f 29 35 36
f 29 36 30
f 30 36 37
f 37 36 38
f 38 36 39
f 38 39 40
f 40 39 41
f 40 41 42
f 40 42 43
f 40 43 44
f 40 44 45
f 45 44 46
f 46 44 47
f 46 47 48
f 46 48 49
f 49 48 50
f 50 48 51
f 50 51 52
f 50 52 53
f 53 52 54
f 53 54 55
f 55 54 56
f 55 56 57
f 55 57 58
f 58 57 59
f 59 57 60
f 59 60 51
f 59 51 61
f 61 51 62
f 61 62 63
f 61 63 64
f 64 63 65
f 65 63 44
f 65 44 66
f 66 44 43
f 66 43 67
f 66 67 68
f 68 67 69
f 68 69 70
f 68 70 71
f 71 70 72
f 71 72 73
f 73 72 74
f 73 74 75
f 39 76 42
f 39 42 41
f 36 76 39
f 76 36 35
f 76 35 70
f 76 70 69
f 76 69 67
f 76 67 42
f 42 67 43
f 48 47 44
f 48 44 51
f 51 44 63
f 51 63 62
f 52 77 56
f 52 56 54
f 51 77 52
f 77 51 60
f 77 60 57
f 77 57 56
f 72 34 33
f 72 33 74
f 35 34 72
f 35 72 70
f 78 17 14
f 78 14 79
f 78 79 80
f 78 80 81
f 81 80 82
f 81 82 83
f 81 83 84
f 84 83 85
f 84 85 86
f 86 85 87
f 86 87 88
f 88 87 89
f 88 89 90
f 90 89 91
f 90 91 92
f 92 91 93
f 92 93 94
f 94 93 95
f 94 95 96
f 96 95 97
f 96 97 98
f 96 98 99
f 96 99 100
f 96 100 101
f 96 101 102
f 102 101 103
f 102 103 104
f 79 14 13
f 79 13 105
f 79 105 106
f 79 106 107
f 79 107 80
f 80 107 108
f 80 108 82
f 82 108 83
f 83 108 109
f 83 109 110
f 83 110 85
f 85 110 111
f 85 111 87
f 87 111 112
f 87 112 89
f 89 112 113
f 89 113 91
f 91 113 114
f 91 114 93
f 93 114 115
f 93 115 95
f 95 115 116
f 95 116 97
f 97 116 98
f 107 106 109
f 107 109 108
f 109 106 105
f 109 105 110
f 99 98 103
f 99 103 117
f 99 117 100
f 100 117 101
f 101 117 103
