# RS2 Model 36782
# Vertices: 28
# Faces: 50

v -54 48 96
v -58 48 96
v -58 48 14
v -54 48 14
v -48 48 96
v -48 48 102
v -64 48 102
v -64 48 96
v -64 48 14
v -64 48 7
v -48 48 7
v -48 48 14
v -48 64 96
v -48 64 102
v -48 64 108
v -48 48 108
v -64 48 108
v -64 64 102
v -64 58 96
v -64 54 96
v -64 54 14
v -64 64 7
v -64 58 14
v -64 64 14
v -48 64 14
v -48 64 7
v -64 64 96
v -64 64 108

f 1 2 3
f 1 3 4
f 1 4 5
f 1 5 6
f 1 6 2
f 2 6 7
f 2 7 8
f 2 8 3
f 3 8 9
f 3 9 10
f 3 10 4
f 4 10 11
f 4 11 12
f 4 12 5
f 5 12 13
f 5 13 6
f 6 13 14
f 6 14 15
f 6 15 16
f 6 16 7
f 7 16 17
f 7 17 18
f 7 18 19
f 7 19 20
f 7 20 8
f 8 20 21
f 8 21 9
f 9 21 10
f 10 21 22
f 22 21 23
f 22 23 24
f 22 24 25
f 22 25 26
f 26 25 12
f 26 12 11
f 12 25 13
f 13 25 27
f 13 27 14
f 14 27 18
f 14 18 28
f 14 28 15
f 15 28 16
f 16 28 17
f 17 28 18
f 25 24 27
f 27 24 19
f 27 19 18
f 20 19 23
f 20 23 21
f 24 23 19
