# RS2 Model 3772
# Vertices: 36
# Faces: 56

v 1 -27 219
v -6 -26 217
v -7 -29 203
v 0 -29 203
v 8 -25 215
v 6 -28 222
v -4 -28 223
v -10 -20 222
v -9 -15 217
v -10 -18 202
v -7 -8 214
v -8 -8 199
v 1 -6 213
v 0 -8 199
v 10 -8 212
v 7 -9 198
v 9 -16 214
v 10 -18 200
v 6 -29 202
v 16 -14 223
v 3 -13 226
v 13 -25 225
v 17 -23 221
v 17 -8 214
v 15 -4 221
v 2 -4 222
v -6 -4 223
v -8 -14 224
v -5 -24 227
v 2 -26 224
v 6 -2 216
v -4 -2 217
v -10 -9 220
v -8 -32 225
v 15 -32 222
v -8 4 221

f 1 2 3
f 1 3 4
f 1 4 5
f 1 5 6
f 1 6 7
f 1 7 2
f 2 7 8
f 2 8 9
f 2 9 3
f 3 9 10
f 10 9 11
f 10 11 12
f 12 11 13
f 12 13 14
f 14 13 15
f 14 15 16
f 16 15 17
f 16 17 18
f 18 17 5
f 18 5 19
f 19 5 4
f 20 21 22
f 20 22 23
f 20 23 24
f 20 24 25
f 20 25 21
f 21 25 26
f 21 26 27
f 21 27 28
f 21 28 29
f 21 29 30
f 21 30 22
f 22 30 6
f 22 6 23
f 23 6 5
f 23 5 17
f 23 17 24
f 24 17 15
f 24 15 31
f 24 31 25
f 25 31 26
f 26 31 32
f 26 32 27
f 27 32 33
f 27 33 28
f 28 33 8
f 28 8 29
f 29 8 7
f 29 7 30
f 30 7 6
f 11 33 32
f 11 32 13
f 13 32 31
f 13 31 15
f 9 33 11
f 33 9 8
