# RS2 Model 3810
# Vertices: 237
# Faces: 394

v -11 19 96
v -17 10 96
v -17 -2 96
v -11 -11 96
v -5 -14 96
v 7 -14 96
v 13 -11 96
v 19 -2 96
v 19 10 96
v 13 19 96
v 7 22 96
v -5 22 96
v -5 28 85
v -17 22 85
v -20 10 101
v -14 20 101
v -5 22 101
v -11 19 101
v -17 10 101
v -20 -2 101
v -17 -2 101
v -5 25 101
v 7 28 85
v 7 22 69
v -5 22 69
v -11 19 69
v -23 10 85
v -23 -2 85
v -14 -12 101
v -11 -11 101
v 0 -25 10
v -9 -18 15
v -23 -37 15
v -13 -43 10
v 0 -25 0
v -19 -11 0
v -19 -11 10
v -32 -32 10
v -13 -43 0
v -32 -32 0
v 13 -45 10
v 23 -38 15
v 9 -18 15
v 13 -45 0
v 32 -32 0
v 32 -32 10
v 19 -11 10
v 19 -11 0
v 46 -11 10
v 46 0 15
v -46 0 15
v -46 -11 10
v 46 -11 0
v 46 11 0
v 46 11 10
v -46 11 10
v -46 -11 0
v -46 11 0
v 32 30 10
v 23 37 15
v 11 18 15
v 19 11 10
v 32 30 0
v 13 43 0
v 13 43 10
v 0 23 10
v 19 11 0
v 0 23 0
v -19 11 10
v -11 18 15
v -23 38 15
v -32 32 10
v -19 11 0
v 0 25 0
v 0 25 10
v -13 45 10
v -32 32 0
v -13 45 0
v -17 10 69
v -17 -2 69
v -17 -14 85
v -5 -17 101
v -5 -14 101
v -5 -14 69
v 7 -14 69
v 7 -20 85
v -5 -20 85
v -11 -11 69
v 19 -14 85
v 13 -11 69
v 25 -2 85
v 19 -2 69
v 25 10 85
v 22 10 101
v 22 -2 101
v 13 -11 101
v 19 -2 101
v 19 10 101
v 16 20 101
v 13 19 101
v 16 -12 101
v 7 -14 101
v 7 -17 101
v 19 10 69
v 13 19 69
v 19 22 85
v 7 22 101
v 7 25 101
v 27 -12 367
v -63 60 -1
v -66 57 -1
v 26 -14 367
v 29 -13 366
v -62 58 -2
v -64 56 -2
v 27 -15 366
v 6 42 367
v -29 -59 -1
v -27 -60 -1
v 8 41 367
v 7 44 366
v -28 -57 -2
v -26 -58 -2
v 9 43 366
v -48 -5 367
v 68 37 -1
v 67 40 -1
v -49 -3 367
v -50 -6 366
v 66 36 -2
v 65 39 -2
v -51 -4 366
v 27 -25 0
v 25 -21 16
v 0 -33 14
v 4 -31 0
v -23 -25 0
v -27 -19 22
v -25 2 22
v -32 0 0
v -23 25 0
v -18 22 20
v 0 26 22
v 3 35 0
v 27 25 0
v 22 19 22
v 29 0 13
v 37 0 0
v 14 -4 27
v 3 -14 27
v 3 0 37
v -10 3 28
v 14 -14 0
v 9 -10 20
v -1 -12 22
v 0 -18 0
v -13 -13 0
v -11 1 19
v -19 2 0
v -15 15 0
v -10 6 19
v -2 10 16
v -1 19 0
v 10 9 0
v 12 0 20
v 19 1 0
v 10 -1 38
v 0 -10 33
v -7 -7 38
v -7 1 27
v -3 3 40
v 3 8 40
v 0 0 58
v 91 -14 0
v 86 -10 20
v 76 -12 22
v 77 -18 0
v 64 -13 0
v 66 1 19
v 58 2 0
v 62 15 0
v 67 6 19
v 75 10 16
v 76 19 0
v 87 9 0
v 89 0 20
v 96 1 0
v 87 -1 38
v 77 -10 33
v 70 -7 38
v 70 1 27
v 74 3 40
v 80 8 40
v 77 0 58
v 17 8 80
v 49 8 80
v 33 1 53
v 6 1 64
v 6 1 96
v 33 1 107
v 60 1 96
v 60 1 64
v 49 -6 80
v 17 -6 80
v -47 8 80
v -15 8 80
v -31 1 53
v -58 1 64
v -58 1 96
v -31 1 107
v -4 1 96
v -4 1 64
v -15 -6 80
v -47 -6 80
v 17 8 141
v 49 8 141
v 33 1 114
v 6 1 125
v 6 1 157
v 33 1 168
v 60 1 157
v 60 1 125
v 49 -6 141
v 17 -6 141
v -47 8 141
v -15 8 141
v -31 1 114
v -58 1 125
v -58 1 157
v -31 1 168
v -4 1 157
v -4 1 125
v -15 -6 141
v -47 -6 141
v -22 -16 96
v 22 -19 96
v -20 27 96

f 1 2 3
f 1 3 4
f 1 4 5
f 1 5 6
f 1 6 7
f 1 7 8
f 1 8 9
f 1 9 10
f 1 10 11
f 1 11 12
f 1 12 13
f 1 13 14
f 1 14 2
f 1 2 15
f 1 15 16
f 1 16 12
f 1 12 17
f 1 17 18
f 1 18 2
f 2 18 19
f 2 19 3
f 2 3 20
f 2 20 15
f 15 20 21
f 15 21 19
f 15 19 16
f 16 19 18
f 16 18 22
f 16 22 12
f 12 22 11
f 12 11 23
f 12 23 13
f 13 23 24
f 13 24 25
f 13 25 14
f 14 25 26
f 14 26 27
f 14 27 2
f 2 27 3
f 3 27 28
f 3 28 4
f 3 4 29
f 3 29 20
f 20 29 30
f 20 30 21
f 21 30 4
f 21 4 3
f 21 3 19
f 31 32 33
f 31 33 34
f 31 34 35
f 31 35 36
f 31 36 32
f 32 36 37
f 32 37 38
f 32 38 33
f 33 38 39
f 33 39 34
f 34 39 35
f 37 36 40
f 37 40 38
f 38 40 39
f 41 42 43
f 41 43 31
f 41 31 44
f 41 44 45
f 41 45 42
f 42 45 46
f 42 46 47
f 42 47 43
f 43 47 35
f 43 35 31
f 31 35 44
f 46 45 48
f 46 48 47
f 47 48 35
f 49 50 51
f 49 51 52
f 49 52 53
f 49 53 54
f 49 54 50
f 50 54 55
f 50 55 56
f 50 56 51
f 51 56 57
f 51 57 52
f 52 57 53
f 55 54 58
f 55 58 56
f 56 58 57
f 59 60 61
f 59 61 62
f 59 62 63
f 59 63 64
f 59 64 60
f 60 64 65
f 60 65 66
f 60 66 61
f 61 66 67
f 61 67 62
f 62 67 63
f 65 64 68
f 65 68 66
f 66 68 67
f 69 70 71
f 69 71 72
f 69 72 73
f 69 73 74
f 69 74 70
f 70 74 75
f 70 75 76
f 70 76 71
f 71 76 77
f 71 77 72
f 72 77 73
f 75 74 78
f 75 78 76
f 76 78 77
f 27 26 79
f 27 79 28
f 28 79 80
f 28 80 81
f 28 81 4
f 4 81 5
f 4 5 82
f 4 82 29
f 29 82 83
f 29 83 30
f 30 83 5
f 30 5 4
f 84 85 86
f 84 86 87
f 84 87 88
f 88 87 81
f 88 81 80
f 89 86 85
f 89 85 90
f 89 90 91
f 89 91 8
f 89 8 7
f 89 7 86
f 86 7 6
f 86 6 87
f 87 6 5
f 87 5 81
f 91 90 92
f 91 92 93
f 91 93 9
f 91 9 8
f 8 9 94
f 8 94 95
f 8 95 7
f 8 7 96
f 8 96 97
f 8 97 9
f 9 97 98
f 9 98 10
f 9 10 99
f 9 99 94
f 94 99 100
f 94 100 98
f 94 98 95
f 95 98 97
f 95 97 101
f 95 101 7
f 7 101 6
f 7 6 102
f 7 102 96
f 96 102 103
f 96 103 101
f 96 101 97
f 104 105 106
f 104 106 93
f 104 93 92
f 105 24 23
f 105 23 106
f 106 23 11
f 106 11 10
f 106 10 93
f 93 10 9
f 12 11 107
f 12 107 17
f 17 107 108
f 17 108 22
f 17 22 18
f 83 102 6
f 83 6 5
f 5 6 103
f 5 103 82
f 82 103 102
f 82 102 83
f 98 100 10
f 10 100 11
f 10 11 108
f 10 108 99
f 99 108 107
f 99 107 100
f 100 107 11
f 22 108 11
f 101 103 6
f 109 110 111
f 109 111 112
f 109 112 113
f 109 113 110
f 110 113 114
f 110 114 115
f 110 115 111
f 111 115 112
f 112 115 116
f 112 116 113
f 113 116 114
f 114 116 115
f 117 118 119
f 117 119 120
f 117 120 121
f 117 121 118
f 118 121 122
f 118 122 123
f 118 123 119
f 119 123 120
f 120 123 124
f 120 124 121
f 121 124 122
f 122 124 123
f 125 126 127
f 125 127 128
f 125 128 129
f 125 129 126
f 126 129 130
f 126 130 131
f 126 131 127
f 127 131 128
f 128 131 132
f 128 132 129
f 129 132 130
f 130 132 131
f 133 134 135
f 133 135 136
f 136 135 137
f 137 135 138
f 137 138 139
f 137 139 140
f 140 139 141
f 141 139 142
f 141 142 143
f 141 143 144
f 144 143 145
f 145 143 146
f 145 146 147
f 145 147 148
f 148 147 133
f 133 147 134
f 134 147 149
f 134 149 135
f 135 149 150
f 135 150 138
f 138 150 151
f 138 151 152
f 138 152 139
f 139 152 142
f 142 152 143
f 143 152 151
f 143 151 146
f 146 151 149
f 146 149 147
f 149 151 150
f 153 154 155
f 153 155 156
f 156 155 157
f 157 155 158
f 157 158 159
f 159 158 160
f 160 158 161
f 160 161 162
f 160 162 163
f 163 162 164
f 164 162 165
f 164 165 166
f 166 165 153
f 153 165 154
f 154 165 167
f 154 167 155
f 155 167 168
f 155 168 169
f 155 169 158
f 158 169 170
f 158 170 161
f 161 170 171
f 161 171 162
f 162 171 172
f 162 172 165
f 165 172 167
f 167 172 173
f 167 173 169
f 167 169 168
f 172 171 173
f 173 171 169
f 169 171 170
f 174 175 176
f 174 176 177
f 177 176 178
f 178 176 179
f 178 179 180
f 180 179 181
f 181 179 182
f 181 182 183
f 181 183 184
f 184 183 185
f 185 183 186
f 185 186 187
f 187 186 174
f 174 186 175
f 175 186 188
f 175 188 176
f 176 188 189
f 176 189 190
f 176 190 179
f 179 190 191
f 179 191 182
f 182 191 192
f 182 192 183
f 183 192 193
f 183 193 186
f 186 193 188
f 188 193 194
f 188 194 190
f 188 190 189
f 193 192 194
f 194 192 190
f 190 192 191
f 195 196 197
f 195 197 198
f 195 198 199
f 195 199 200
f 195 200 196
f 196 200 201
f 196 201 202
f 196 202 197
f 197 202 203
f 197 203 204
f 197 204 198
f 198 204 199
f 199 204 200
f 200 204 203
f 200 203 201
f 201 203 202
f 205 206 207
f 205 207 208
f 205 208 209
f 205 209 210
f 205 210 206
f 206 210 211
f 206 211 212
f 206 212 207
f 207 212 213
f 207 213 214
f 207 214 208
f 208 214 209
f 209 214 210
f 210 214 213
f 210 213 211
f 211 213 212
f 215 216 217
f 215 217 218
f 215 218 219
f 215 219 220
f 215 220 216
f 216 220 221
f 216 221 222
f 216 222 217
f 217 222 223
f 217 223 224
f 217 224 218
f 218 224 219
f 219 224 220
f 220 224 223
f 220 223 221
f 221 223 222
f 225 226 227
f 225 227 228
f 225 228 229
f 225 229 230
f 225 230 226
f 226 230 231
f 226 231 232
f 226 232 227
f 227 232 233
f 227 233 234
f 227 234 228
f 228 234 229
f 229 234 230
f 230 234 233
f 230 233 231
f 231 233 232
