# RS2 Model 3886
# Vertices: 81
# Faces: 127

v -48 43 3
v -47 44 3
v -46 49 4
v -47 49 4
v -45 52 4
v -45 51 4
v -42 53 4
v -49 35 2
v -33 33 4
v -32 32 4
v -30 37 4
v -34 27 2
v -18 35 4
v -16 28 2
v -12 24 2
v -12 24 4
v -15 36 4
v -24 42 4
v -26 31 2
v -37 31 2
v -32 48 4
v -40 34 2
v -45 34 2
v -49 56 4
v -51 44 2
v -55 52 2
v -58 57 2
v -58 57 4
v -62 56 2
v -58 57 0
v -49 56 0
v -18 35 0
v -12 24 0
v -41 55 0
v -41 55 4
v -32 50 4
v -32 50 0
v -23 43 4
v -23 43 0
v -15 36 0
v -10 28 4
v -10 28 0
v -8 31 4
v -8 31 0
v -6 29 0
v -6 26 0
v 50 -50 -1
v 50 -50 5
v 54 -46 5
v -6 26 4
v -48 59 0
v -48 59 4
v -58 59 4
v -58 59 0
v 0 32 1
v 2 31 1
v 2 27 1
v 0 30 1
v -2 31 0
v -2 33 0
v -2 33 4
v 0 32 3
v 2 32 1
v 2 31 3
v 2 27 3
v 1 27 1
v 1 27 3
v 0 30 3
v -2 31 4
v -5 31 0
v -5 32 0
v -5 32 4
v 2 32 3
v -5 31 4
v -6 29 4
v 54 -46 -1
v 62 -61 2
v 47 -55 -1
v 47 -55 5
v 59 -42 5
v 59 -42 -1

f 1 2 3
f 1 3 4
f 4 3 5
f 4 5 6
f 6 5 7
f 8 2 1
f 9 10 11
f 10 9 12
f 13 14 15
f 13 15 16
f 13 16 17
f 13 17 18
f 13 18 19
f 13 19 14
f 18 12 19
f 12 18 20
f 20 18 21
f 20 21 22
f 22 21 7
f 22 7 23
f 23 7 8
f 8 7 24
f 8 24 25
f 25 24 26
f 26 24 27
f 27 24 28
f 27 28 29
f 27 29 30
f 27 30 31
f 15 32 33
f 34 35 36
f 34 36 37
f 37 36 38
f 37 38 39
f 39 38 17
f 39 17 40
f 40 17 41
f 40 41 42
f 42 41 43
f 42 43 44
f 42 44 45
f 42 45 46
f 42 46 33
f 33 46 47
f 33 47 48
f 33 48 16
f 16 48 49
f 16 49 50
f 16 50 41
f 16 41 17
f 51 52 35
f 51 35 34
f 53 52 51
f 53 51 54
f 53 54 29
f 53 29 28
f 53 28 52
f 52 28 24
f 52 24 7
f 52 7 35
f 35 7 21
f 35 21 36
f 36 21 18
f 36 18 38
f 38 18 17
f 29 54 30
f 55 56 57
f 55 57 58
f 55 58 59
f 55 59 60
f 55 60 61
f 55 61 62
f 55 62 63
f 55 63 56
f 56 63 64
f 56 64 57
f 57 64 65
f 57 65 66
f 57 66 58
f 58 66 67
f 58 67 68
f 58 68 59
f 59 68 69
f 59 69 70
f 59 70 60
f 60 70 71
f 60 71 72
f 60 72 61
f 61 72 69
f 61 69 68
f 61 68 62
f 62 68 67
f 62 67 65
f 62 65 64
f 62 64 73
f 62 73 63
f 63 73 64
f 71 70 45
f 71 45 44
f 71 44 43
f 71 43 72
f 72 43 74
f 72 74 69
f 69 74 70
f 70 74 45
f 45 74 75
f 45 75 46
f 46 75 50
f 46 50 49
f 46 49 76
f 46 76 47
f 47 76 77
f 47 77 78
f 47 78 48
f 48 78 79
f 48 79 77
f 48 77 49
f 49 77 80
f 49 80 76
f 76 80 81
f 76 81 77
f 77 81 80
f 41 50 75
f 41 75 43
f 43 75 74
f 65 67 66
f 77 79 78
