# RS2 Model 3903
# Vertices: 211
# Faces: 298

v -25 -4 120
v -1 -4 114
v -1 40 114
v -25 40 120
v -29 -4 118
v -31 -4 114
v -33 -6 114
v 31 -6 114
v 29 -4 114
v 27 -4 118
v 23 -4 120
v 23 40 120
v 29 40 114
v 31 42 114
v -33 42 114
v -31 40 114
v -29 40 118
v -33 42 110
v -33 -6 110
v 31 -6 110
v 27 40 118
v 31 42 110
v -5 -34 118
v 3 -34 118
v 1 -24 134
v -3 -24 134
v -5 -26 118
v -13 -34 110
v -5 -42 110
v 3 -42 110
v 11 -34 110
v 3 -26 118
v 1 -20 134
v 3 -24 146
v 3 -28 146
v -3 -20 134
v -5 -24 146
v -5 -24 150
v 3 -24 150
v 19 -30 150
v 19 -30 146
v 25 -44 150
v 25 -44 146
v 19 -44 146
v 19 -44 150
v 15 -34 150
v 15 -34 146
v 3 -28 150
v -5 -28 146
v 3 -18 110
v -5 -18 110
v -13 -26 110
v 11 -26 110
v -5 -28 150
v -21 -30 150
v -17 -34 150
v -17 -34 146
v -27 -44 150
v -21 -44 150
v -21 -44 146
v -27 -44 146
v -21 -30 146
v -1 -40 168
v 4 -40 152
v -1 -36 148
v -6 -40 152
v -1 -44 148
v 19 -40 148
v 4 -40 144
v -1 -40 128
v -6 -40 144
v -21 -40 148
v 87 -36 148
v 91 -40 148
v 99 -40 148
v 103 -36 148
v 103 -28 148
v 99 -24 148
v 91 -24 148
v 87 -28 148
v 93 -34 136
v 97 -34 136
v 99 -36 148
v 91 -36 148
v 93 -30 136
v 91 -28 114
v 91 -36 114
v 99 -36 114
v 99 -28 114
v 97 -30 136
v 99 -28 148
v 97 -30 176
v 97 -34 176
v 93 -34 174
v 93 -30 174
v 91 -28 148
v 99 -20 110
v 91 -20 110
v 83 -28 110
v 83 -36 110
v 91 -44 110
v 99 -44 110
v 107 -36 110
v 107 -28 110
v -95 -34 136
v -99 -34 136
v -101 -36 114
v -93 -36 114
v -95 -30 136
v -93 -28 148
v -93 -36 148
v -101 -36 148
v -101 -28 148
v -99 -30 136
v -101 -28 114
v -109 -28 110
v -109 -36 110
v -101 -44 110
v -93 -44 110
v -85 -36 110
v -85 -28 110
v -93 -28 114
v -95 -30 174
v -95 -34 174
v -99 -34 176
v -99 -30 176
v -89 -28 148
v -93 -24 148
v -101 -24 148
v -105 -28 148
v -105 -36 148
v -101 -40 148
v -93 -40 148
v -89 -36 148
v -93 -20 110
v -101 -20 110
v 127 -56 36
v 112 -64 37
v 119 -56 1
v 119 -50 36
v 119 -56 106
v 111 -56 102
v 127 56 36
v 119 58 36
v 121 60 -1
v 120 69 36
v 119 56 106
v 116 61 102
v -121 56 106
v -113 48 109
v 111 48 109
v -129 56 36
v -121 64 36
v -129 56 -1
v -121 32 36
v -110 61 102
v -129 -56 36
v -121 -51 36
v -126 -57 -1
v -121 -64 36
v -121 -56 106
v -113 -56 102
v -113 -48 109
v 111 -48 109
v 15 56 102
v 103 48 106
v 95 -8 109
v 119 -24 102
v -113 -24 102
v -97 -8 109
v -101 48 109
v 15 -8 102
v 79 -40 106
v 15 -55 106
v -105 -48 109
v -121 -52 102
v -116 56 85
v -121 56 36
v -112 51 34
v -116 -53 82
v -121 -56 36
v 119 -56 36
v 115 -56 70
v 113 59 0
v 113 59 58
v 113 -50 58
v 113 -53 0
v -120 -53 0
v -120 -53 58
v -120 56 58
v -120 59 0
v 16 48 88
v 117 61 103
v 118 54 53
v 16 54 45
v -115 56 77
v -109 61 103
v 16 56 104
v 8 48 0
v -120 56 0
v 118 56 -2
v -120 -52 104
v 16 -48 72
v 17 -55 106
v 114 -52 107
v 116 -56 54
v 16 -55 49
v 8 -48 0
v 120 -56 0
v -115 -53 72
v -120 -56 0

f 1 2 3
f 1 3 4
f 1 4 5
f 1 5 2
f 2 5 6
f 2 6 7
f 2 7 8
f 2 8 9
f 2 9 10
f 2 10 11
f 2 11 12
f 2 12 3
f 3 12 13
f 3 13 14
f 3 14 15
f 3 15 16
f 3 16 4
f 4 16 17
f 4 17 5
f 5 17 6
f 6 17 16
f 6 16 15
f 6 15 7
f 7 15 18
f 7 18 19
f 7 19 8
f 8 19 20
f 8 20 14
f 8 14 13
f 8 13 9
f 9 13 10
f 10 13 21
f 10 21 11
f 11 21 12
f 12 21 13
f 15 14 22
f 15 22 18
f 14 20 22
f 23 24 25
f 23 25 26
f 23 26 27
f 23 27 28
f 23 28 29
f 23 29 24
f 24 29 30
f 24 30 31
f 24 31 32
f 24 32 25
f 25 32 33
f 25 33 34
f 25 34 35
f 25 35 26
f 25 26 33
f 33 26 36
f 33 36 37
f 33 37 34
f 34 37 38
f 34 38 39
f 34 39 40
f 34 40 41
f 41 40 42
f 41 42 43
f 43 42 44
f 44 42 45
f 44 45 46
f 44 46 47
f 47 46 35
f 35 46 48
f 35 48 49
f 35 49 26
f 26 49 36
f 26 36 27
f 27 36 33
f 27 33 32
f 27 32 50
f 27 50 51
f 27 51 52
f 27 52 28
f 31 53 32
f 32 53 50
f 36 49 37
f 54 48 39
f 54 39 38
f 54 38 55
f 54 55 56
f 54 56 57
f 54 57 49
f 54 49 48
f 39 48 46
f 39 46 40
f 40 46 45
f 40 45 42
f 56 55 58
f 56 58 59
f 56 59 57
f 57 59 60
f 60 59 58
f 60 58 61
f 61 58 55
f 61 55 62
f 62 55 38
f 62 38 37
f 63 64 65
f 63 65 66
f 63 66 67
f 63 67 64
f 64 67 68
f 64 68 65
f 65 68 69
f 65 69 70
f 65 70 71
f 65 71 72
f 65 72 66
f 66 72 67
f 67 72 71
f 67 71 70
f 67 70 69
f 67 69 68
f 73 74 75
f 73 75 76
f 73 76 77
f 73 77 78
f 73 78 79
f 73 79 80
f 81 82 83
f 81 83 84
f 81 84 85
f 81 85 86
f 81 86 87
f 81 87 82
f 82 87 88
f 82 88 89
f 82 89 90
f 82 90 83
f 83 90 91
f 83 91 92
f 83 92 93
f 83 93 84
f 84 93 94
f 84 94 95
f 84 95 96
f 84 96 85
f 85 96 91
f 85 91 90
f 85 90 86
f 86 90 89
f 86 89 97
f 86 97 98
f 86 98 99
f 86 99 100
f 86 100 87
f 87 100 101
f 87 101 88
f 88 101 102
f 88 102 103
f 88 103 89
f 89 103 104
f 89 104 97
f 96 95 92
f 96 92 91
f 94 93 92
f 94 92 95
f 105 106 107
f 105 107 108
f 105 108 109
f 105 109 110
f 105 110 111
f 105 111 106
f 106 111 112
f 106 112 113
f 106 113 114
f 106 114 107
f 107 114 115
f 107 115 116
f 107 116 117
f 107 117 118
f 107 118 108
f 108 118 119
f 108 119 120
f 108 120 121
f 108 121 122
f 108 122 109
f 109 122 115
f 109 115 114
f 109 114 110
f 110 114 113
f 110 113 123
f 110 123 124
f 110 124 111
f 111 124 112
f 112 124 125
f 112 125 113
f 113 125 126
f 113 126 123
f 123 126 125
f 123 125 124
f 127 128 129
f 127 129 130
f 127 130 131
f 127 131 132
f 127 132 133
f 127 133 134
f 122 121 135
f 122 135 115
f 115 135 136
f 115 136 116
f 137 138 139
f 137 139 140
f 137 140 141
f 137 141 140
f 141 137 138
f 141 138 142
f 141 142 138
f 141 138 137
f 143 144 145
f 143 145 146
f 143 146 147
f 143 147 146
f 146 147 148
f 146 148 147
f 147 148 149
f 147 149 150
f 147 150 151
f 147 151 141
f 147 141 144
f 147 144 143
f 147 143 144
f 152 153 154
f 152 154 155
f 152 155 149
f 152 149 153
f 152 153 149
f 149 153 156
f 149 156 153
f 156 149 148
f 157 158 159
f 157 159 160
f 157 160 161
f 157 161 160
f 160 161 162
f 160 162 161
f 161 162 141
f 161 141 163
f 161 163 149
f 161 149 158
f 161 158 157
f 161 157 158
f 164 151 150
f 164 150 163
f 164 163 141
f 164 141 151
f 149 163 150
f 162 142 141
f 144 141 140
f 158 149 155
f 165 166 148
f 148 166 167
f 148 167 168
f 156 169 170
f 156 170 171
f 171 170 172
f 171 172 165
f 165 172 166
f 166 172 167
f 167 172 173
f 173 172 174
f 174 172 175
f 174 175 176
f 176 175 169
f 169 175 170
f 170 175 172
f 177 178 179
f 180 169 181
f 182 168 183
f 184 185 186
f 184 186 187
f 188 189 190
f 188 190 191
f 192 193 194
f 192 194 195
f 192 195 196
f 192 196 197
f 192 197 198
f 192 198 193
f 194 199 195
f 195 199 196
f 196 199 200
f 199 194 201
f 202 203 204
f 204 203 205
f 205 203 206
f 206 203 207
f 206 207 208
f 206 208 209
f 210 207 203
f 210 203 202
f 210 208 207
f 208 210 211
