# RS2 Model 3943
# Vertices: 290
# Faces: 486

v -143 99 -1
v -138 106 -1
v -145 106 -23
v -146 104 -23
v -131 96 21
v -138 118 -2
v -140 126 -2
v -144 122 -24
v -144 120 -24
v -127 124 20
v -140 109 6
v -138 116 6
v -145 114 -25
v -144 112 -25
v -128 110 36
v -186 94 54
v -182 132 54
v -240 98 54
v -205 87 54
v -204 82 50
v -179 90 50
v -178 133 50
v -203 150 54
v -233 142 54
v -250 122 54
v -255 120 50
v -245 95 50
v -248 92 46
v -203 78 46
v -174 87 46
v -175 133 46
v -202 154 50
v -236 145 50
v -239 148 46
v -260 121 46
v -263 120 42
v -251 90 42
v -201 75 42
v -169 84 42
v -170 134 42
v -202 157 46
v -202 159 42
v -241 152 42
v -251 169 9
v -280 117 9
v -275 75 9
v -195 43 9
v -153 78 9
v -142 136 9
v -202 174 9
v -205 154 -24
v -244 150 -24
v -267 114 -24
v -258 86 -24
v -200 57 -24
v -167 82 -24
v -161 126 -24
v -287 105 -3
v -292 99 -3
v -285 98 -25
v -284 100 -25
v -299 108 19
v -292 86 -4
v -291 78 -4
v -286 83 -26
v -286 85 -26
v -303 81 18
v -290 95 4
v -292 88 4
v -285 90 -27
v -286 93 -27
v -302 94 34
v -272 -52 4
v -277 -35 41
v -284 -9 41
v -295 26 6
v -295 26 -21
v -272 -52 -23
v -305 -104 -18
v -305 -104 -2
v -247 -63 4
v -257 -30 41
v -299 -23 86
v -301 -26 81
v -307 -11 81
v -265 -4 41
v -276 32 6
v -327 51 1
v -330 38 1
v -330 38 -15
v -276 32 -21
v -327 51 -15
v -249 20 -22
v -249 20 4
v -184 24 -5
v -184 24 -22
v -122 38 -7
v -121 38 -22
v -25 65 -13
v -25 65 -22
v -8 69 -13
v -8 69 -22
v 174 123 -15
v 174 123 -22
v 190 128 -15
v 190 128 -22
v 372 184 -20
v 372 184 -23
v 373 180 -17
v 374 178 -17
v 374 175 -20
v 374 175 -23
v 193 119 -15
v 193 119 -22
v 177 114 -15
v 177 114 -22
v -4 56 -13
v -4 56 -22
v -20 50 -13
v -20 50 -22
v -115 16 -7
v -115 16 -22
v -174 -8 -5
v -174 -8 -22
v -232 -38 4
v -232 -38 -22
v -247 -63 -23
v -293 -107 -2
v -293 -107 -18
v -303 -149 -15
v -309 -154 -15
v -309 -154 -6
v -285 -9 -39
v -276 -38 -36
v -237 -21 22
v -244 3 22
v -303 -6 86
v -344 -37 114
v -340 -46 114
v -341 -47 109
v -344 -38 109
v -181 15 5
v -120 31 -1
v -24 61 -8
v 10 101 53
v 6 104 46
v 11 102 43
v -7 65 -8
v 175 119 -10
v 191 124 -10
v -364 80 -2
v -364 80 -11
v -377 118 -2
v -370 79 -2
v -370 79 -11
v -303 -149 -6
v -286 -187 -15
v -177 2 5
v -118 22 -1
v -22 55 -8
v -6 60 -8
v 13 99 50
v 18 105 58
v 14 105 60
v 12 112 55
v 12 144 59
v 8 141 56
v 10 139 51
v 17 110 51
v 176 117 -10
v 192 121 -10
v -381 -43 112
v 34 96 97
v 11 142 56
v 18 163 60
v 228 100 44
v 225 96 46
v 228 103 50
v 235 101 56
v 235 96 51
v 251 81 52
v 248 77 52
v 248 81 59
v 233 96 54
v 227 101 53
v 233 98 60
v 252 86 55
v 258 58 46
v 246 108 100
v 14 33 1
v 4 34 1
v 8 28 -21
v 10 28 -21
v 12 45 23
v -11 29 0
v -20 25 0
v -12 22 -22
v -9 23 -22
v -24 37 22
v 1 32 8
v -8 30 8
v -1 25 -23
v 1 27 -23
v -7 42 38
v -66 -149 3
v -67 -157 3
v -59 -154 -19
v -59 -152 -19
v -81 -152 25
v -59 -168 2
v -53 -174 2
v -50 -168 -20
v -51 -166 -20
v -68 -178 24
v -63 -159 10
v -60 -166 10
v -54 -161 -21
v -56 -159 -21
v -76 -166 40
v 168 -170 7
v 58 -180 7
v 63 -158 -20
v 155 -150 -20
v 255 -39 7
v 233 -30 38
v 168 -129 38
v 58 -152 38
v -53 -151 7
v -12 -134 -20
v -93 -63 7
v -42 -62 -20
v -18 17 7
v 10 4 -20
v 33 22 7
v 45 8 -20
v 108 70 7
v 107 48 -20
v 172 70 7
v 159 48 -20
v 227 -42 -20
v 197 -149 11
v 202 -143 11
v 195 -142 -20
v 193 -144 -20
v 212 -153 41
v 205 -141 3
v 208 -134 3
v 200 -135 -19
v 199 -137 -19
v 221 -141 25
v 188 -156 4
v 197 -152 4
v 189 -149 -18
v 187 -150 -18
v 200 -164 26
v 168 -114 50
v 58 -131 50
v 58 -141 44
v 168 -122 44
v 204 -29 50
v 129 -65 53
v 60 -60 53
v -35 -99 50
v -39 -104 44
v -45 -111 38
v 212 -29 44
v 164 32 50
v 145 -30 53
v 129 -36 65
v 117 -54 65
v 72 -51 65
v 59 -17 54
v 73 -28 65
v 105 -3 53
v 107 -20 65
v 108 35 50
v 33 6 50
v 59 -18 53
v -9 0 50
v -53 -45 50
v -62 -47 44
v -70 -49 38
v -9 1 44
v -9 3 38
v 33 7 44
v 33 9 38
v 108 38 44
v 108 41 38
v 172 38 44
v 172 41 38

f 1 2 3
f 1 3 4
f 1 4 2
f 1 2 5
f 1 5 2
f 4 3 2
f 6 7 8
f 6 8 9
f 6 9 7
f 6 7 10
f 6 10 7
f 9 8 7
f 11 12 13
f 11 13 14
f 11 14 12
f 11 12 15
f 11 15 12
f 14 13 12
f 16 17 18
f 16 18 19
f 16 19 20
f 16 20 21
f 16 21 17
f 17 21 22
f 17 22 23
f 17 23 18
f 18 23 24
f 18 24 25
f 18 25 26
f 18 26 27
f 18 27 19
f 19 27 20
f 20 27 28
f 20 28 29
f 20 29 21
f 21 29 30
f 21 30 22
f 22 30 31
f 22 31 32
f 22 32 23
f 23 32 24
f 24 32 33
f 24 33 25
f 25 33 26
f 26 33 34
f 26 34 35
f 26 35 27
f 27 35 28
f 28 35 36
f 28 36 37
f 28 37 29
f 29 37 38
f 29 38 30
f 30 38 39
f 30 39 31
f 31 39 40
f 31 40 41
f 31 41 32
f 32 41 33
f 33 41 34
f 34 41 42
f 34 42 43
f 34 43 35
f 35 43 36
f 36 43 44
f 36 44 45
f 36 45 37
f 37 45 46
f 37 46 38
f 38 46 47
f 38 47 39
f 39 47 48
f 39 48 40
f 40 48 49
f 40 49 42
f 40 42 41
f 43 42 50
f 43 50 44
f 44 50 51
f 44 51 52
f 44 52 45
f 45 52 53
f 45 53 46
f 46 53 54
f 46 54 47
f 47 54 55
f 47 55 48
f 48 55 56
f 48 56 49
f 49 56 57
f 49 57 50
f 49 50 42
f 50 57 51
f 58 59 60
f 58 60 61
f 58 61 59
f 58 59 62
f 58 62 59
f 61 60 59
f 63 64 65
f 63 65 66
f 63 66 64
f 63 64 67
f 63 67 64
f 66 65 64
f 68 69 70
f 68 70 71
f 68 71 69
f 68 69 72
f 68 72 69
f 71 70 69
f 73 74 75
f 73 75 76
f 73 76 77
f 73 77 78
f 73 78 79
f 73 79 80
f 73 80 81
f 73 81 74
f 74 81 82
f 74 82 83
f 74 83 84
f 74 84 75
f 75 84 85
f 75 85 86
f 75 86 76
f 76 86 87
f 76 87 88
f 76 88 89
f 76 89 77
f 77 89 90
f 77 90 91
f 91 90 92
f 91 92 87
f 91 87 93
f 93 87 94
f 93 94 95
f 93 95 96
f 96 95 97
f 96 97 98
f 98 97 99
f 98 99 100
f 100 99 101
f 100 101 102
f 102 101 103
f 102 103 104
f 104 103 105
f 104 105 106
f 106 105 107
f 106 107 108
f 108 107 109
f 108 109 110
f 108 110 111
f 108 111 112
f 112 111 113
f 112 113 114
f 114 113 115
f 114 115 116
f 116 115 117
f 116 117 118
f 118 117 119
f 118 119 120
f 120 119 121
f 120 121 122
f 122 121 123
f 122 123 124
f 124 123 125
f 124 125 126
f 126 125 127
f 127 125 81
f 127 81 128
f 127 128 129
f 127 129 78
f 78 129 79
f 79 129 130
f 79 130 131
f 79 131 80
f 80 131 132
f 80 132 128
f 80 128 81
f 78 77 133
f 78 133 134
f 125 135 82
f 125 82 81
f 82 135 136
f 82 136 86
f 82 86 137
f 82 137 83
f 83 137 138
f 83 138 139
f 83 139 84
f 84 139 140
f 84 140 85
f 85 140 141
f 85 141 137
f 85 137 86
f 87 86 136
f 87 136 94
f 94 136 142
f 94 142 95
f 95 142 143
f 95 143 97
f 97 143 144
f 97 144 99
f 99 144 145
f 99 145 146
f 99 146 101
f 101 146 147
f 101 147 148
f 101 148 149
f 101 149 103
f 103 149 150
f 103 150 105
f 105 150 109
f 105 109 107
f 151 152 153
f 151 153 154
f 151 154 152
f 152 154 155
f 152 155 153
f 153 155 154
f 154 155 90
f 154 90 89
f 154 89 151
f 151 89 88
f 151 88 152
f 152 88 92
f 152 92 155
f 155 92 90
f 87 92 88
f 131 130 156
f 131 156 132
f 132 156 128
f 128 156 129
f 129 156 130
f 130 156 157
f 130 157 131
f 131 157 132
f 132 157 156
f 136 135 158
f 136 158 142
f 142 158 159
f 142 159 143
f 143 159 160
f 143 160 144
f 144 160 161
f 144 161 148
f 144 148 162
f 144 162 145
f 145 162 163
f 145 163 164
f 145 164 146
f 146 164 165
f 146 165 166
f 146 166 167
f 146 167 147
f 147 167 168
f 147 168 169
f 147 169 162
f 147 162 148
f 135 125 123
f 135 123 158
f 158 123 121
f 158 121 159
f 159 121 119
f 159 119 160
f 160 119 117
f 160 117 161
f 161 117 115
f 161 115 170
f 161 170 148
f 148 170 149
f 149 170 171
f 149 171 150
f 150 171 110
f 150 110 109
f 137 141 138
f 138 141 172
f 138 172 139
f 138 139 140
f 138 140 141
f 141 140 172
f 172 140 139
f 169 165 164
f 169 164 163
f 169 163 162
f 162 163 173
f 162 173 145
f 162 145 163
f 163 145 164
f 163 164 173
f 173 164 145
f 165 169 174
f 165 174 166
f 166 174 175
f 166 175 167
f 167 175 168
f 168 175 174
f 168 174 169
f 171 113 111
f 171 111 110
f 176 177 115
f 176 115 113
f 176 113 178
f 176 178 179
f 176 179 180
f 176 180 181
f 176 181 182
f 176 182 177
f 177 182 183
f 177 183 184
f 177 184 185
f 177 185 170
f 177 170 115
f 185 178 171
f 185 171 170
f 178 113 171
f 179 186 184
f 179 184 180
f 180 184 187
f 180 187 181
f 181 187 188
f 181 188 182
f 182 188 183
f 183 188 187
f 183 187 184
f 184 186 185
f 185 186 189
f 185 189 178
f 185 178 179
f 185 179 186
f 186 179 189
f 189 179 178
f 190 191 192
f 190 192 193
f 190 193 191
f 190 191 194
f 190 194 191
f 193 192 191
f 195 196 197
f 195 197 198
f 195 198 196
f 195 196 199
f 195 199 196
f 198 197 196
f 200 201 202
f 200 202 203
f 200 203 201
f 200 201 204
f 200 204 201
f 203 202 201
f 205 206 207
f 205 207 208
f 205 208 206
f 205 206 209
f 205 209 206
f 208 207 206
f 210 211 212
f 210 212 213
f 210 213 211
f 210 211 214
f 210 214 211
f 213 212 211
f 215 216 217
f 215 217 218
f 215 218 216
f 215 216 219
f 215 219 216
f 218 217 216
f 220 221 222
f 220 222 223
f 220 223 224
f 220 224 225
f 220 225 226
f 220 226 221
f 221 226 227
f 221 227 228
f 221 228 229
f 221 229 222
f 228 230 231
f 228 231 229
f 230 232 233
f 230 233 231
f 232 234 235
f 232 235 233
f 234 236 237
f 234 237 235
f 236 238 239
f 236 239 237
f 238 224 240
f 238 240 239
f 224 223 240
f 241 242 243
f 241 243 244
f 241 244 242
f 241 242 245
f 241 245 242
f 244 243 242
f 246 247 248
f 246 248 249
f 246 249 247
f 246 247 250
f 246 250 247
f 249 248 247
f 251 252 253
f 251 253 254
f 251 254 252
f 251 252 255
f 251 255 252
f 254 253 252
f 256 257 258
f 256 258 259
f 256 259 260
f 256 260 261
f 256 261 262
f 256 262 257
f 257 262 263
f 257 263 264
f 257 264 258
f 258 264 265
f 258 265 227
f 258 227 259
f 259 227 226
f 259 226 266
f 259 266 260
f 260 266 267
f 260 267 268
f 260 268 261
f 261 268 269
f 261 269 270
f 261 270 262
f 262 270 271
f 262 271 272
f 272 271 273
f 272 273 274
f 274 273 275
f 274 275 268
f 274 268 267
f 274 267 276
f 274 276 277
f 274 277 278
f 278 277 279
f 278 279 262
f 262 279 280
f 262 280 263
f 263 280 281
f 263 281 264
f 264 281 282
f 264 282 265
f 265 282 230
f 265 230 228
f 265 228 227
f 280 279 283
f 280 283 281
f 281 283 284
f 281 284 282
f 282 284 232
f 282 232 230
f 279 277 285
f 279 285 283
f 283 285 286
f 283 286 284
f 284 286 234
f 284 234 232
f 277 276 287
f 277 287 285
f 285 287 288
f 285 288 286
f 286 288 236
f 286 236 234
f 276 267 289
f 276 289 287
f 287 289 290
f 287 290 288
f 288 290 238
f 288 238 236
f 267 266 289
f 289 266 225
f 289 225 290
f 290 225 224
f 290 224 238
f 266 226 225
f 275 269 268
f 269 275 271
f 269 271 270
f 271 275 273
