# RS2 Model 3946
# Vertices: 97
# Faces: 138

v 32 -37 43
v 27 -31 43
v 22 -35 2
v 27 -41 2
v 52 -14 85
v 39 -49 52
v 34 -43 52
v 29 -47 2
v 34 -53 2
v 59 -26 104
v -43 38 28
v -51 33 28
v -47 28 1
v -41 32 1
v -61 61 56
v 32 -7 52
v 29 -2 52
v 23 -5 3
v 27 -12 3
v 55 13 103
v 22 -52 52
v 14 -50 52
v 12 -57 3
v 21 -59 3
v 22 -23 103
v 43 -58 0
v 40 -58 10
v 44 -1 8
v 46 -1 2
v 54 -1 11
v 58 -1 2
v 56 -58 14
v 62 -58 0
v -38 53 0
v -38 56 10
v 4 53 8
v 4 51 2
v 4 46 11
v 4 43 2
v -38 44 14
v -38 40 0
v 7 -42 5
v 7 -48 5
v 8 -48 2
v 8 -42 2
v -23 -35 3
v -25 -33 7
v -27 -39 10
v -26 -40 4
v -32 -34 10
v -31 -35 4
v -57 -23 19
v -30 -30 8
v -28 -32 3
v -33 -14 -1
v -19 20 28
v -27 17 28
v -25 10 1
v -17 13 1
v -32 45 56
v 39 31 28
v 31 35 28
v 27 30 1
v 34 26 1
v 52 56 56
v -17 -60 49
v -6 -26 31
v -10 -24 29
v -8 -24 23
v -5 -26 25
v 0 -21 24
v -1 -21 30
v -7 -20 27
v -29 -18 14
v -5 -19 22
v 2 8 14
v 8 11 13
v 8 14 16
v 0 11 19
v -33 11 22
v -32 11 18
v 1 14 9
v 9 17 6
v 54 48 8
v 54 37 14
v 51 43 22
v 7 19 16
v -1 15 19
v -34 14 22
v -64 6 28
v -31 13 12
v 1 19 14
v 7 21 13
v 51 56 14
v -33 17 18
v 49 52 22
v 54 47 8

f 1 2 3
f 1 3 4
f 1 4 2
f 1 2 5
f 1 5 2
f 4 3 2
f 6 7 8
f 6 8 9
f 6 9 7
f 6 7 10
f 6 10 7
f 9 8 7
f 11 12 13
f 11 13 14
f 11 14 12
f 11 12 15
f 11 15 12
f 14 13 12
f 16 17 18
f 16 18 19
f 16 19 17
f 16 17 20
f 16 20 17
f 19 18 17
f 21 22 23
f 21 23 24
f 21 24 22
f 21 22 25
f 21 25 22
f 24 23 22
f 26 27 28
f 26 28 29
f 29 28 30
f 29 30 31
f 31 30 32
f 31 32 33
f 33 32 27
f 33 27 26
f 27 32 30
f 27 30 28
f 34 35 36
f 34 36 37
f 37 36 38
f 37 38 39
f 39 38 40
f 39 40 41
f 41 40 35
f 41 35 34
f 35 40 38
f 35 38 36
f 42 43 44
f 42 44 45
f 42 45 46
f 42 46 47
f 42 47 43
f 43 47 48
f 43 48 44
f 44 48 49
f 49 48 50
f 49 50 51
f 51 50 52
f 52 50 53
f 52 53 54
f 54 53 55
f 55 53 47
f 55 47 46
f 53 50 48
f 53 48 47
f 56 57 58
f 56 58 59
f 56 59 57
f 56 57 60
f 56 60 57
f 59 58 57
f 61 62 63
f 61 63 64
f 61 64 62
f 61 62 65
f 61 65 62
f 64 63 62
f 66 67 68
f 66 68 69
f 66 69 70
f 66 70 67
f 67 70 71
f 67 71 72
f 67 72 68
f 68 72 73
f 68 73 74
f 68 74 69
f 69 74 75
f 69 75 70
f 70 75 71
f 71 75 76
f 71 76 77
f 71 77 72
f 72 77 78
f 72 78 73
f 73 78 79
f 73 79 75
f 73 75 74
f 75 79 76
f 76 79 80
f 76 80 81
f 76 81 82
f 76 82 83
f 76 83 77
f 77 83 84
f 77 84 85
f 77 85 78
f 78 85 86
f 78 86 87
f 78 87 88
f 78 88 79
f 79 88 89
f 79 89 80
f 80 89 90
f 80 90 81
f 81 90 91
f 81 91 82
f 82 91 92
f 82 92 93
f 82 93 83
f 83 93 94
f 83 94 84
f 95 89 88
f 95 88 92
f 95 92 91
f 95 91 90
f 95 90 89
f 93 87 96
f 93 96 94
f 94 96 97
f 97 96 86
f 97 86 85
f 87 86 96
f 92 88 87
f 92 87 93
