# RS2 Model 3954
# Vertices: 252
# Faces: 240

v -29 -11 67
v -31 -17 53
v -26 -8 53
v -34 -5 53
v -47 -24 87
v -47 -23 75
v -47 -25 75
v -44 -24 75
v -29 -40 109
v -29 -43 101
v -26 -40 101
v -32 -34 101
v -50 48 153
v -48 27 2
v -37 42 2
v -48 60 2
v -58 45 2
v -23 -47 153
v -21 -64 2
v -10 -53 2
v -21 -35 2
v -31 -50 2
v -41 -24 153
v -56 -28 2
v -45 -44 2
v -34 -28 2
v -43 -12 2
v -20 -30 119
v -9 -45 2
v -9 -20 2
v -27 -21 2
v -22 -54 2
v -15 -13 153
v -17 7 2
v -28 -7 2
v -17 -25 2
v -7 -10 2
v -35 -56 180
v -29 -60 2
v -23 -41 2
v -42 -36 2
v -44 -60 2
v -49 -48 180
v -53 -57 2
v -40 -64 2
v -36 -36 2
v -52 -32 2
v -36 -12 143
v -45 -28 0
v -29 -28 0
v -30 0 0
v -51 -8 0
v -20 -24 153
v -5 -20 2
v -16 -4 2
v -28 -20 2
v -18 -36 2
v -41 -18 119
v -52 -3 2
v -52 -28 2
v -35 -27 2
v -39 5 2
v -26 19 119
v -16 35 2
v -33 35 2
v -32 8 2
v -10 16 2
v -46 27 180
v -52 31 2
v -58 12 2
v -38 7 2
v -36 31 2
v -27 7 180
v -33 11 2
v -38 -7 2
v -19 -12 2
v -17 11 2
v -39 15 119
v -49 0 2
v -33 0 2
v -34 26 2
v -55 18 2
v -19 7 180
v -13 3 2
v -7 22 2
v -27 27 2
v -29 3 2
v -30 47 143
v -20 63 0
v -36 63 0
v -36 35 0
v -14 43 0
v -16 47 180
v -12 56 2
v -25 63 2
v -29 35 2
v -13 31 2
v -42 46 153
v -44 63 2
v -55 52 2
v -44 34 2
v -35 49 2
v -40 14 67
v -38 20 53
v -43 11 53
v -36 8 53
v -22 27 87
v -22 26 75
v -22 28 75
v -25 27 75
v -40 43 109
v -40 46 101
v -43 43 101
v -37 37 101
v -22 37 153
v -20 46 137
v -25 37 137
v -17 31 137
v -38 58 171
v -37 52 159
v -38 61 159
v -42 58 159
v -38 26 193
v -38 27 187
v -42 26 187
v -36 20 187
v -38 58 248
v -37 64 232
v -43 55 232
v -34 52 232
v -37 23 267
v -36 20 257
v -37 27 257
v -40 23 257
v -22 34 292
v -22 40 282
v -23 34 282
v -18 31 282
v -57 3 75
v -51 1 56
v -60 6 56
v -63 -1 56
v -44 -15 105
v -45 -15 87
v -43 -15 87
v -44 -12 87
v -29 3 135
v -26 3 125
v -29 6 125
v -35 0 125
v -35 -15 196
v -26 -17 175
v -35 -12 175
v -40 -20 175
v -14 1 223
v -20 0 205
v -11 1 205
v -14 5 205
v -45 1 254
v -44 1 246
v -45 5 246
v -51 -1 246
v -47 -34 153
v -49 -43 137
v -44 -34 137
v -52 -28 137
v -31 -55 171
v -32 -49 159
v -31 -58 159
v -27 -55 159
v -31 -23 193
v -31 -24 187
v -27 -23 187
v -34 -17 187
v -31 -55 248
v -32 -61 232
v -26 -52 232
v -36 -49 232
v -32 -20 267
v -34 -17 257
v -32 -24 257
v -29 -20 257
v -47 -31 292
v -47 -37 282
v -46 -31 282
v -51 -28 282
v -14 1 330
v -8 0 309
v -17 6 309
v -20 -3 309
v -48 0 357
v -51 -1 344
v -44 0 344
v -48 3 344
v -37 -15 392
v -32 -15 379
v -37 -14 379
v -40 -19 379
v -64 -64 0
v -64 -56 0
v -64 -56 240
v -64 -64 240
v -72 -64 0
v -72 -56 0
v -72 -56 240
v -72 -64 240
v -64 64 240
v -64 56 240
v -64 56 0
v -64 64 0
v -72 64 240
v -72 56 240
v -72 56 0
v -72 64 0
v -62 16 240
v -62 49 215
v -62 -49 204
v -62 -16 240
v -62 64 240
v -62 64 208
v -62 53 169
v -40 64 112
v -42 54 129
v -32 64 32
v -42 64 112
v -64 53 169
v -49 -50 104
v -42 -63 113
v -41 -56 27
v -61 -23 196
v -63 -38 181
v -63 -46 181
v -61 -4 199
v -61 -17 190
v -61 -10 190
v -63 -43 148
v -61 -13 158
v -61 12 196
v -61 9 191
v -61 -1 193
v -61 34 202
v -61 16 190
v -61 27 190
v -61 3 173
v -61 20 142
v -61 47 181
v -61 43 181
v -62 34 202
v -61 45 116
v -62 -64 208
v -62 -64 240
v -40 -63 113

f 1 2 3
f 1 3 4
f 1 4 2
f 5 6 7
f 5 7 8
f 5 8 6
f 9 10 11
f 9 11 12
f 9 12 10
f 13 14 15
f 13 15 16
f 13 16 17
f 13 17 14
f 18 19 20
f 18 20 21
f 18 21 22
f 18 22 19
f 23 24 25
f 23 25 26
f 23 26 27
f 23 27 24
f 28 29 30
f 28 30 31
f 28 31 32
f 28 32 29
f 33 34 35
f 33 35 36
f 33 36 37
f 33 37 34
f 38 39 40
f 38 40 41
f 38 41 42
f 38 42 39
f 43 44 45
f 43 45 46
f 43 46 47
f 43 47 44
f 48 49 50
f 48 50 51
f 48 51 52
f 48 52 49
f 53 54 55
f 53 55 56
f 53 56 57
f 53 57 54
f 58 59 60
f 58 60 61
f 58 61 62
f 58 62 59
f 63 64 65
f 63 65 66
f 63 66 67
f 63 67 64
f 68 69 70
f 68 70 71
f 68 71 72
f 68 72 69
f 73 74 75
f 73 75 76
f 73 76 77
f 73 77 74
f 78 79 80
f 78 80 81
f 78 81 82
f 78 82 79
f 83 84 85
f 83 85 86
f 83 86 87
f 83 87 84
f 88 89 90
f 88 90 91
f 88 91 92
f 88 92 89
f 93 94 95
f 93 95 96
f 93 96 97
f 93 97 94
f 98 99 100
f 98 100 101
f 98 101 102
f 98 102 99
f 103 104 105
f 103 105 106
f 103 106 104
f 107 108 109
f 107 109 110
f 107 110 108
f 111 112 113
f 111 113 114
f 111 114 112
f 115 116 117
f 115 117 118
f 115 118 116
f 119 120 121
f 119 121 122
f 119 122 120
f 123 124 125
f 123 125 126
f 123 126 124
f 127 128 129
f 127 129 130
f 127 130 128
f 131 132 133
f 131 133 134
f 131 134 132
f 135 136 137
f 135 137 138
f 135 138 136
f 139 140 141
f 139 141 142
f 139 142 140
f 143 144 145
f 143 145 146
f 143 146 144
f 147 148 149
f 147 149 150
f 147 150 148
f 151 152 153
f 151 153 154
f 151 154 152
f 155 156 157
f 155 157 158
f 155 158 156
f 159 160 161
f 159 161 162
f 159 162 160
f 163 164 165
f 163 165 166
f 163 166 164
f 167 168 169
f 167 169 170
f 167 170 168
f 171 172 173
f 171 173 174
f 171 174 172
f 175 176 177
f 175 177 178
f 175 178 176
f 179 180 181
f 179 181 182
f 179 182 180
f 183 184 185
f 183 185 186
f 183 186 184
f 187 188 189
f 187 189 190
f 187 190 188
f 191 192 193
f 191 193 194
f 191 194 192
f 195 196 197
f 195 197 198
f 195 198 196
f 199 200 201
f 199 201 202
f 199 202 203
f 199 203 200
f 200 203 204
f 200 204 205
f 200 205 201
f 201 205 202
f 202 205 206
f 202 206 203
f 203 206 204
f 204 206 205
f 207 208 209
f 207 209 210
f 207 210 211
f 207 211 208
f 208 211 212
f 208 212 213
f 208 213 209
f 209 213 210
f 210 213 214
f 210 214 211
f 211 214 212
f 212 214 213
f 215 216 217
f 215 217 218
f 215 218 217
f 215 217 216
f 215 216 219
f 215 219 216
f 216 219 220
f 216 220 219
f 220 216 221
f 220 221 216
f 221 220 222
f 221 222 220
f 223 224 225
f 223 225 226
f 223 226 225
f 223 225 224
f 217 227 228
f 217 228 227
f 227 228 229
f 230 231 232
f 230 232 217
f 230 217 233
f 230 233 234
f 230 234 235
f 230 235 233
f 230 233 217
f 230 217 232
f 230 232 231
f 231 232 236
f 231 236 232
f 233 235 234
f 234 235 237
f 234 237 235
f 238 239 240
f 238 240 233
f 238 233 241
f 238 241 242
f 238 242 243
f 238 243 241
f 238 241 233
f 238 233 239
f 239 233 240
f 239 240 244
f 239 244 240
f 241 243 242
f 242 243 245
f 242 245 243
f 246 247 248
f 246 248 216
f 246 216 248
f 246 248 247
f 246 247 249
f 246 249 247
f 217 216 233
f 217 233 216
f 216 233 241
f 216 241 233
f 218 217 250
f 218 250 251
f 218 251 250
f 218 250 217
f 217 250 252
f 217 252 250
