# RS2 Model 3990
# Vertices: 70
# Faces: 93

v -49 34 43
v -49 -35 43
v -49 -35 0
v -49 34 0
v -49 49 0
v -49 49 43
v -49 34 65
v -64 34 65
v -64 34 43
v -64 -35 43
v -49 -35 65
v -49 -50 65
v -49 -50 43
v -49 -50 0
v -49 -64 0
v -49 -64 43
v -64 -50 43
v -64 -64 43
v -64 -64 0
v -64 -50 0
v -64 -35 0
v -64 34 0
v -64 49 0
v -64 49 43
v -64 64 43
v -64 64 0
v -49 64 43
v -49 64 0
v -49 49 79
v -49 49 101
v -49 34 101
v -49 34 79
v -49 49 65
v -49 64 79
v -64 64 79
v -64 49 79
v -64 49 101
v -64 34 79
v -64 34 101
v -49 -35 79
v -49 -35 101
v -49 -50 101
v -49 -50 79
v -64 -35 79
v -64 -35 101
v -64 -50 79
v -64 -50 101
v -64 49 65
v -64 -50 65
v -64 -35 65
v -49 -64 65
v -49 -64 79
v -64 -64 79
v -64 -64 65
v -49 64 65
v -64 64 65
v -64 64 114
v -64 -64 114
v -49 -64 114
v -49 64 114
v -49 -64 100
v -49 64 100
v -64 -64 100
v -64 64 100
v -64 -64 224
v -49 -64 224
v -49 64 224
v 40 64 43
v 40 -64 43
v -184 64 43

f 1 2 3
f 1 3 4
f 1 4 5
f 1 5 6
f 1 6 7
f 1 7 8
f 1 8 9
f 1 9 2
f 2 9 10
f 2 10 11
f 2 11 12
f 2 12 13
f 2 13 3
f 3 13 14
f 14 13 15
f 15 13 16
f 16 13 17
f 16 17 18
f 18 17 19
f 19 17 20
f 20 17 21
f 21 17 10
f 21 10 9
f 21 9 22
f 22 9 23
f 23 9 24
f 23 24 25
f 23 25 26
f 27 6 5
f 27 5 28
f 25 24 6
f 25 6 27
f 29 30 31
f 29 31 32
f 29 32 33
f 29 33 34
f 29 34 35
f 29 35 36
f 29 36 30
f 30 36 37
f 37 36 38
f 37 38 39
f 39 38 32
f 39 32 31
f 40 41 42
f 40 42 43
f 40 43 11
f 40 11 32
f 40 32 38
f 40 38 44
f 40 44 41
f 41 44 45
f 45 44 46
f 45 46 47
f 47 46 43
f 47 43 42
f 8 38 36
f 8 36 48
f 8 48 9
f 9 48 24
f 24 48 33
f 24 33 6
f 6 33 7
f 7 33 32
f 7 32 11
f 49 46 44
f 49 44 50
f 49 50 17
f 49 17 13
f 49 13 12
f 11 43 12
f 12 43 51
f 51 43 52
f 52 43 46
f 52 46 53
f 53 46 49
f 53 49 54
f 8 50 44
f 8 44 38
f 34 33 55
f 56 48 36
f 56 36 35
f 17 50 10
f 10 50 11
f 57 58 59
f 57 59 60
f 60 59 61
f 60 61 62
f 62 61 63
f 62 63 64
f 64 63 58
f 64 58 57
f 19 65 26
