# RS2 Model 40230
# Vertices: 167
# Faces: 314

v 10 -2 180
v 12 1 183
v 14 -2 181
v 15 -3 177
v 13 -5 181
v 10 -6 184
v 9 -9 181
v 9 -7 177
v 8 -13 178
v 7 -10 174
v 4 -15 173
v 3 -16 175
v 5 -14 179
v 2 -15 180
v 0 -17 181
v 0 -20 175
v 0 -17 174
v -3 -16 175
v -2 -15 180
v -5 -14 179
v -8 -13 178
v -4 -15 173
v -7 -10 174
v -9 -7 177
v -9 -9 181
v -10 -2 180
v -10 -6 184
v -13 -5 181
v -15 -3 177
v -14 -2 181
v -12 1 183
v -12 1 182
v -9 1 178
v -9 -1 175
v -11 3 176
v -8 1 173
v -7 -2 170
v 0 6 173
v -8 1 165
v 0 -6 165
v 0 -6 160
v 8 1 165
v 7 -2 170
v 8 1 173
v 9 -1 175
v 11 3 176
v 9 1 178
v 12 1 182
v 11 5 180
v 11 -1 186
v 12 -2 185
v 14 -1 181
v 13 -5 184
v 16 -3 180
v 14 -9 179
v 11 -12 183
v 8 -14 188
v 8 -15 184
v 8 -11 180
v 5 -14 182
v 0 -18 183
v -5 -14 182
v -8 -11 180
v -8 -15 184
v -8 -14 188
v -12 -12 184
v -16 -9 177
v -14 -3 185
v -11 -1 186
v -15 -2 183
v -13 -5 184
v 10 -9 186
v 11 -7 185
v 16 4 183
v 21 1 177
v 14 8 184
v 8 6 186
v 12 1 186
v 14 4 181
v 13 8 182
v 7 8 186
v 0 3 194
v 7 0 194
v 19 6 177
v 19 11 176
v 15 13 180
v 11 12 176
v 13 19 179
v 8 19 177
v 5 17 182
v 0 11 186
v -5 9 186
v -7 6 186
v -7 0 194
v 0 0 195
v 0 -9 195
v 6 -9 194
v 5 -14 193
v 12 -9 184
v 24 5 169
v 17 4 176
v 17 6 171
v 17 11 172
v 11 7 173
v 10 10 169
v 14 13 172
v 16 19 173
v 11 18 170
v 5 14 171
v 5 21 172
v 4 20 178
v 0 17 182
v -5 17 182
v -8 19 177
v -13 19 179
v -11 12 176
v -15 13 180
v -13 8 182
v -15 9 183
v -16 7 183
v -13 2 184
v -6 -9 194
v 14 13 167
v 20 17 164
v 3 23 173
v 0 26 162
v 0 24 173
v 0 21 178
v -4 20 178
v -5 21 172
v -5 14 171
v -11 18 170
v -16 19 173
v -14 13 172
v -10 10 169
v -11 7 173
v -17 11 172
v -19 11 176
v -19 6 177
v -11 5 180
v -14 4 181
v -20 1 176
v -14 -1 183
v -16 -4 178
v 4 -15 190
v 0 -18 186
v 3 18 168
v 0 7 172
v 0 17 168
v 9 4 176
v 0 -15 193
v 0 -17 189
v -6 -13 193
v -4 -15 190
v 12 4 180
v 0 9 165
v -11 -9 186
v -24 5 169
v -17 4 176
v -17 6 171
v -3 18 168
v -3 23 173
v -14 -9 184
v -20 17 164
v -14 13 167
v -9 4 176
v -12 4 180

f 1 2 3
f 1 3 4
f 1 4 5
f 1 5 6
f 1 6 7
f 1 7 8
f 8 7 9
f 8 9 10
f 10 9 11
f 11 9 12
f 12 9 13
f 12 13 14
f 12 14 15
f 12 15 16
f 12 16 17
f 17 16 18
f 18 16 15
f 18 15 19
f 18 19 20
f 18 20 21
f 18 21 22
f 22 21 23
f 23 21 24
f 24 21 25
f 24 25 26
f 26 25 27
f 26 27 28
f 26 28 29
f 26 29 30
f 26 30 31
f 26 31 32
f 26 32 33
f 26 33 34
f 34 33 35
f 34 35 36
f 34 36 37
f 37 36 38
f 37 38 39
f 37 39 40
f 40 39 41
f 40 41 42
f 40 42 43
f 43 42 38
f 43 38 44
f 43 44 45
f 45 44 46
f 45 46 47
f 45 47 1
f 1 47 48
f 1 48 2
f 2 48 49
f 2 49 50
f 2 50 51
f 2 51 52
f 2 52 53
f 2 53 6
f 2 6 5
f 2 5 3
f 3 5 4
f 54 51 53
f 54 53 52
f 54 52 51
f 6 55 56
f 6 56 57
f 6 57 58
f 6 58 7
f 7 58 59
f 7 59 9
f 9 59 13
f 13 59 60
f 13 60 14
f 14 60 61
f 14 61 15
f 15 61 19
f 19 61 62
f 19 62 20
f 20 62 63
f 20 63 21
f 21 63 25
f 25 63 64
f 25 64 27
f 27 64 65
f 27 65 66
f 27 66 67
f 27 67 68
f 27 68 69
f 27 69 70
f 27 70 71
f 27 71 31
f 27 31 28
f 28 31 30
f 28 30 29
f 50 72 73
f 50 73 6
f 50 6 51
f 51 6 53
f 74 75 76
f 74 76 77
f 74 77 78
f 74 78 75
f 75 78 79
f 75 79 80
f 75 80 76
f 76 80 81
f 76 81 77
f 77 81 82
f 77 82 83
f 77 83 50
f 77 50 78
f 78 50 49
f 78 49 79
f 79 49 80
f 80 49 84
f 80 84 85
f 80 85 86
f 80 86 81
f 81 86 87
f 81 87 88
f 81 88 89
f 81 89 90
f 81 90 91
f 81 91 82
f 82 91 92
f 82 92 93
f 82 93 94
f 82 94 95
f 82 95 83
f 83 95 96
f 83 96 97
f 83 97 50
f 50 97 72
f 72 97 98
f 72 98 57
f 72 57 99
f 72 99 73
f 73 99 55
f 73 55 6
f 100 84 101
f 100 101 102
f 100 102 103
f 100 103 85
f 100 85 84
f 87 103 104
f 87 104 38
f 87 38 105
f 87 105 106
f 87 106 88
f 88 106 107
f 88 107 108
f 88 108 89
f 89 108 109
f 89 109 110
f 89 110 111
f 89 111 90
f 90 111 112
f 90 112 91
f 91 112 113
f 91 113 92
f 92 113 114
f 92 114 115
f 92 115 116
f 92 116 117
f 92 117 118
f 92 118 119
f 92 119 93
f 93 119 120
f 93 120 121
f 93 121 69
f 93 69 94
f 94 69 122
f 94 122 96
f 94 96 95
f 105 38 109
f 105 109 123
f 105 123 106
f 106 123 124
f 106 124 107
f 107 124 108
f 108 124 123
f 108 123 109
f 125 111 110
f 125 110 126
f 125 126 127
f 125 127 128
f 125 128 111
f 111 128 112
f 112 128 129
f 112 129 113
f 113 129 114
f 114 129 130
f 114 130 131
f 114 131 132
f 114 132 115
f 115 132 133
f 115 133 134
f 115 134 116
f 116 134 135
f 116 135 38
f 116 38 136
f 116 136 137
f 116 137 138
f 116 138 117
f 117 138 118
f 118 138 139
f 118 139 140
f 118 140 141
f 118 141 142
f 118 142 119
f 119 142 120
f 120 142 121
f 121 142 141
f 121 141 140
f 121 140 69
f 69 140 31
f 69 31 70
f 70 31 143
f 70 143 144
f 70 144 71
f 71 144 143
f 71 143 31
f 98 145 57
f 57 145 146
f 57 146 58
f 58 146 61
f 58 61 60
f 58 60 59
f 147 38 148
f 147 148 149
f 147 149 126
f 147 126 110
f 147 110 109
f 147 109 38
f 85 103 87
f 85 87 86
f 57 56 99
f 99 56 55
f 101 49 104
f 101 104 102
f 102 104 103
f 49 101 84
f 150 38 104
f 150 104 49
f 150 49 46
f 150 46 44
f 150 44 38
f 151 152 145
f 151 145 98
f 151 98 96
f 151 96 153
f 151 153 154
f 151 154 152
f 152 154 146
f 152 146 145
f 46 155 47
f 47 155 48
f 48 155 49
f 49 155 46
f 42 156 38
f 38 156 39
f 98 97 96
f 69 68 157
f 69 157 122
f 122 157 153
f 122 153 96
f 158 159 139
f 158 139 138
f 158 138 137
f 158 137 160
f 158 160 159
f 159 160 136
f 159 136 140
f 159 140 139
f 135 131 38
f 38 131 161
f 38 161 148
f 148 161 149
f 149 161 126
f 126 161 130
f 126 130 162
f 126 162 127
f 127 162 128
f 128 162 129
f 129 162 130
f 157 163 66
f 157 66 65
f 157 65 154
f 157 154 153
f 164 134 133
f 164 133 132
f 164 132 165
f 164 165 134
f 134 165 135
f 135 165 131
f 131 165 132
f 157 68 163
f 163 68 67
f 163 67 66
f 131 130 161
f 166 136 38
f 166 38 36
f 166 36 35
f 166 35 140
f 166 140 136
f 61 64 62
f 62 64 63
f 35 33 167
f 35 167 140
f 140 167 32
f 140 32 31
f 167 33 32
f 61 146 64
f 64 146 65
f 65 146 154
f 160 137 136
