# RS2 Model 4030
# Vertices: 135
# Faces: 264

v 0 -9 188
v 0 -10 184
v 4 -9 184
v 4 -8 187
v 4 -7 189
v 4 -5 191
v 0 -7 192
v -4 -5 191
v -4 -7 189
v -4 -8 187
v -4 -9 184
v -2 -8 182
v 0 -9 182
v 2 -8 182
v 5 -7 183
v 7 -6 184
v 6 -6 187
v 6 -5 189
v 7 -3 190
v 4 -1 193
v 0 0 195
v -4 -1 193
v -7 -3 190
v -6 -5 189
v -6 -6 187
v -7 -6 184
v -5 -7 183
v -5 -7 180
v -2 -9 176
v 0 -12 177
v 2 -9 176
v 5 -7 180
v 7 -5 182
v 8 -1 183
v 8 -4 185
v 9 0 185
v 8 1 191
v 5 6 194
v 0 7 196
v -5 6 194
v -8 1 191
v -9 0 185
v -8 -4 185
v -8 -1 183
v -7 -5 182
v -7 -5 178
v -3 -8 173
v 0 -10 173
v 0 -10 175
v 3 -8 173
v 7 -5 178
v 8 -1 179
v 9 1 182
v 0 -3 169
v 0 0 163
v 4 5 166
v 4 4 171
v 3 0 171
v 2 -6 169
v 0 -10 169
v -2 -6 169
v -3 0 171
v -4 4 171
v -4 5 166
v 7 4 176
v 5 -2 172
v -5 -2 172
v -7 4 176
v -5 9 178
v -2 11 177
v 0 7 171
v 0 10 167
v 7 -1 176
v 7 2 176
v 8 1 178
v 10 1 181
v 17 12 191
v 10 4 185
v 9 3 186
v 9 7 188
v 6 11 190
v 0 13 190
v -6 11 190
v -9 7 188
v -10 3 186
v -9 1 182
v 8 4 179
v 10 8 179
v 8 8 179
v 9 6 184
v 8 4 176
v 5 9 178
v 6 11 182
v 0 14 183
v -6 11 182
v -9 6 184
v -9 4 185
v -17 12 191
v -10 1 181
v -8 1 178
v -8 -1 179
v 1 11 177
v 0 10 175
v 0 11 173
v 2 13 175
v 0 13 179
v 0 15 178
v -3 13 175
v -8 8 179
v 0 12 174
v 1 13 175
v 0 14 177
v -2 13 175
v 2 17 173
v 0 20 176
v -2 17 174
v 0 16 171
v 0 17 168
v 3 20 169
v 0 24 171
v -3 20 169
v 2 21 166
v 0 24 167
v -2 21 166
v 0 18 165
v 2 22 162
v 0 25 163
v -2 22 162
v 0 21 161
v 0 30 156
v -7 -1 176
v -7 2 176
v -8 4 176
v -10 8 179
v -8 4 179

f 1 2 3
f 1 3 4
f 1 4 5
f 1 5 6
f 1 6 7
f 1 7 8
f 1 8 9
f 1 9 10
f 1 10 11
f 1 11 2
f 2 11 12
f 2 12 13
f 2 13 14
f 2 14 3
f 3 14 15
f 3 15 16
f 3 16 17
f 3 17 4
f 4 17 5
f 5 17 18
f 5 18 6
f 6 18 19
f 6 19 20
f 6 20 7
f 7 20 21
f 7 21 22
f 7 22 8
f 8 22 23
f 8 23 24
f 8 24 9
f 9 24 25
f 9 25 10
f 10 25 11
f 11 25 26
f 11 26 27
f 11 27 12
f 12 27 28
f 12 28 29
f 12 29 13
f 13 29 30
f 13 30 31
f 13 31 14
f 14 31 32
f 14 32 15
f 15 32 33
f 15 33 16
f 16 33 34
f 16 34 35
f 16 35 17
f 17 35 18
f 18 35 19
f 19 35 36
f 19 36 37
f 19 37 20
f 20 37 38
f 20 38 21
f 21 38 39
f 21 39 40
f 21 40 22
f 22 40 41
f 22 41 23
f 23 41 42
f 23 42 43
f 23 43 24
f 24 43 25
f 25 43 26
f 26 43 44
f 26 44 45
f 26 45 27
f 27 45 28
f 28 45 46
f 28 46 29
f 29 46 47
f 29 47 48
f 29 48 49
f 29 49 30
f 30 49 31
f 31 49 48
f 31 48 50
f 31 50 51
f 31 51 32
f 32 51 33
f 33 51 34
f 34 51 52
f 34 52 53
f 34 53 36
f 34 36 35
f 54 55 56
f 54 56 57
f 54 57 58
f 54 58 59
f 54 59 60
f 54 60 61
f 54 61 62
f 54 62 63
f 54 63 64
f 54 64 55
f 58 57 65
f 58 65 66
f 58 66 59
f 59 66 50
f 59 50 60
f 60 50 48
f 60 48 47
f 60 47 61
f 61 47 67
f 61 67 62
f 62 67 68
f 62 68 63
f 63 68 69
f 63 69 70
f 63 70 71
f 63 71 72
f 63 72 64
f 51 50 66
f 51 66 73
f 51 73 52
f 52 73 74
f 52 74 75
f 52 75 53
f 53 75 76
f 53 76 77
f 53 77 78
f 53 78 79
f 53 79 36
f 36 79 37
f 37 79 80
f 37 80 38
f 38 80 81
f 38 81 39
f 39 81 82
f 39 82 83
f 39 83 40
f 40 83 84
f 40 84 41
f 41 84 85
f 41 85 42
f 42 85 86
f 42 86 44
f 42 44 43
f 65 74 66
f 66 74 73
f 76 75 74
f 76 74 87
f 76 87 77
f 77 87 88
f 77 88 89
f 77 89 90
f 77 90 78
f 78 90 80
f 78 80 79
f 88 91 65
f 88 65 89
f 89 65 92
f 89 92 93
f 89 93 90
f 90 93 80
f 80 93 81
f 81 93 82
f 82 93 94
f 82 94 95
f 82 95 83
f 83 95 84
f 84 95 96
f 84 96 97
f 84 97 85
f 85 97 86
f 86 97 98
f 86 98 99
f 86 99 100
f 86 100 101
f 86 101 44
f 44 101 46
f 44 46 45
f 91 74 65
f 74 91 87
f 87 91 88
f 72 71 57
f 72 57 56
f 57 102 92
f 57 92 65
f 57 71 102
f 102 71 103
f 102 103 104
f 102 104 105
f 102 105 106
f 102 106 92
f 92 106 94
f 92 94 93
f 106 105 107
f 106 107 108
f 106 108 70
f 106 70 69
f 106 69 94
f 94 69 95
f 95 69 96
f 96 69 109
f 96 109 98
f 96 98 97
f 105 110 111
f 105 111 107
f 107 111 112
f 107 112 113
f 107 113 108
f 108 113 110
f 108 110 104
f 108 104 70
f 70 104 103
f 70 103 71
f 111 110 114
f 111 114 115
f 111 115 112
f 112 115 113
f 113 115 116
f 113 116 110
f 110 116 117
f 110 117 114
f 114 117 118
f 114 118 119
f 114 119 120
f 114 120 115
f 115 120 116
f 116 120 121
f 116 121 118
f 116 118 117
f 118 122 119
f 119 122 123
f 119 123 120
f 120 123 121
f 121 123 124
f 121 124 118
f 118 124 125
f 118 125 122
f 122 125 126
f 122 126 127
f 122 127 123
f 123 127 124
f 124 127 128
f 124 128 125
f 125 128 129
f 125 129 126
f 126 129 130
f 126 130 127
f 127 130 128
f 128 130 129
f 46 67 47
f 67 46 131
f 67 131 132
f 67 132 68
f 68 132 133
f 68 133 134
f 68 134 109
f 68 109 69
f 99 132 100
f 100 132 101
f 101 132 131
f 101 131 46
f 99 135 132
f 132 135 133
f 133 135 134
f 134 135 98
f 134 98 109
f 99 98 135
f 105 104 110
