# RS2 Model 40308
# Vertices: 120
# Faces: 222

v -14 12 131
v -3 14 131
v 0 17 130
v -14 15 130
v -18 3 129
v -17 3 130
v -17 -7 128
v -16 -7 129
v -4 -15 127
v -4 -14 129
v 4 -15 127
v 4 -14 129
v 16 -7 129
v 17 -7 128
v 18 3 129
v 17 3 130
v 14 15 130
v 14 12 131
v 3 14 131
v -4 -12 120
v -15 -7 120
v -17 -4 108
v -5 -12 105
v 0 -13 120
v -17 2 121
v -19 8 107
v -22 8 97
v -19 -1 93
v -7 -12 92
v 0 -13 104
v 8 -11 120
v 0 21 111
v -14 16 122
v 0 18 122
v 14 16 122
v 14 18 109
v 15 18 101
v 0 21 101
v -14 18 109
v 17 2 121
v 19 8 107
v 22 8 97
v 17 17 70
v 5 18 70
v -5 18 70
v -15 18 101
v -22 -1 67
v -10 -13 64
v 1 -12 92
v 2 -12 104
v 9 -11 108
v 15 -7 120
v -24 8 69
v -24 0 52
v -12 -13 50
v -5 -14 63
v 3 -12 81
v 10 -11 95
v 15 -8 110
v 17 -4 108
v 19 -1 93
v 22 -1 67
v 24 8 69
v 17 17 52
v 6 18 52
v -6 18 52
v -17 17 70
v -25 12 53
v -24 14 32
v -23 2 32
v -15 -10 29
v -5 -14 48
v 5 -14 48
v 5 -14 63
v 10 -12 75
v 10 -11 84
v 15 -6 88
v 15 -7 99
v 17 -5 74
v 10 -13 64
v 24 0 52
v 25 12 53
v 18 19 32
v 10 21 31
v -10 21 31
v -17 17 52
v -6 -12 27
v 6 -12 27
v 12 -13 50
v -18 19 32
v -25 15 23
v -24 2 23
v -15 -11 21
v -7 -13 20
v 7 -13 20
v 15 -10 29
v -19 20 23
v -27 16 15
v -25 3 15
v -16 -13 13
v -9 -14 14
v 9 -14 14
v 15 -11 21
v 24 2 23
v 23 2 32
v 24 14 32
v 25 15 23
v 19 20 23
v 11 21 22
v -11 21 22
v -20 21 14
v -12 22 14
v 12 22 14
v 16 -13 13
v 25 3 15
v 27 16 15
v 20 21 14
v -46 -40 14
v -44 53 14
v 44 -42 12

f 1 2 3
f 1 3 4
f 1 4 5
f 1 5 6
f 6 5 7
f 6 7 8
f 8 7 9
f 8 9 10
f 10 9 11
f 10 11 12
f 12 11 13
f 13 11 14
f 13 14 15
f 13 15 16
f 16 15 17
f 16 17 18
f 18 17 19
f 19 17 3
f 19 3 2
f 20 21 22
f 20 22 23
f 20 23 24
f 20 24 9
f 20 9 21
f 21 9 7
f 21 7 5
f 21 5 25
f 21 25 26
f 21 26 22
f 22 26 27
f 22 27 28
f 22 28 29
f 22 29 23
f 23 29 30
f 23 30 24
f 24 30 31
f 24 31 11
f 24 11 9
f 32 33 34
f 32 34 35
f 32 35 36
f 32 36 37
f 32 37 38
f 32 38 39
f 32 39 33
f 33 39 25
f 33 25 5
f 33 5 4
f 33 4 34
f 34 4 3
f 34 3 35
f 35 3 17
f 35 17 40
f 35 40 36
f 36 40 41
f 36 41 37
f 37 41 42
f 37 42 43
f 37 43 38
f 38 43 44
f 38 44 45
f 38 45 46
f 38 46 39
f 39 46 27
f 39 27 26
f 39 26 25
f 29 28 47
f 29 47 48
f 29 48 49
f 29 49 30
f 30 49 50
f 30 50 31
f 31 50 51
f 31 51 52
f 31 52 11
f 11 52 14
f 14 52 40
f 14 40 15
f 15 40 17
f 28 27 53
f 28 53 47
f 47 53 54
f 47 54 48
f 48 54 55
f 48 55 56
f 48 56 49
f 49 56 57
f 49 57 58
f 49 58 50
f 50 58 51
f 51 58 59
f 51 59 52
f 52 59 60
f 52 60 40
f 40 60 41
f 41 60 61
f 41 61 42
f 42 61 62
f 42 62 63
f 42 63 43
f 43 63 64
f 43 64 44
f 44 64 65
f 44 65 66
f 44 66 45
f 45 66 67
f 45 67 46
f 46 67 53
f 46 53 27
f 54 53 68
f 54 68 69
f 54 69 70
f 54 70 71
f 54 71 55
f 55 71 72
f 55 72 56
f 56 72 73
f 56 73 74
f 56 74 57
f 57 74 75
f 57 75 76
f 57 76 58
f 58 76 77
f 58 77 78
f 58 78 59
f 59 78 60
f 60 78 61
f 61 78 77
f 61 77 79
f 61 79 62
f 62 79 80
f 62 80 81
f 62 81 82
f 62 82 63
f 63 82 64
f 64 82 83
f 64 83 84
f 64 84 65
f 65 84 85
f 65 85 66
f 66 85 86
f 66 86 67
f 67 86 68
f 67 68 53
f 72 71 87
f 72 87 88
f 72 88 73
f 73 88 89
f 73 89 80
f 73 80 74
f 74 80 75
f 75 80 79
f 75 79 76
f 76 79 77
f 69 68 86
f 69 86 90
f 69 90 91
f 69 91 70
f 70 91 92
f 70 92 93
f 70 93 71
f 71 93 87
f 87 93 94
f 87 94 95
f 87 95 88
f 88 95 96
f 88 96 89
f 89 96 81
f 89 81 80
f 86 85 90
f 90 85 97
f 90 97 91
f 91 97 98
f 91 98 92
f 92 98 99
f 92 99 100
f 92 100 93
f 93 100 94
f 94 100 101
f 94 101 102
f 94 102 95
f 95 102 103
f 95 103 96
f 96 103 104
f 96 104 105
f 96 105 81
f 81 105 82
f 82 105 106
f 82 106 83
f 83 106 107
f 83 107 108
f 83 108 84
f 84 108 109
f 84 109 110
f 84 110 85
f 85 110 97
f 97 110 111
f 97 111 98
f 98 111 99
f 99 111 100
f 100 111 101
f 101 111 112
f 101 112 102
f 102 112 113
f 102 113 114
f 102 114 103
f 103 114 115
f 103 115 104
f 104 115 107
f 104 107 106
f 104 106 105
f 109 112 110
f 110 112 111
f 116 115 117
f 116 117 108
f 116 108 107
f 116 107 115
f 115 114 113
f 115 113 117
f 117 113 109
f 117 109 108
f 109 113 112
