# RS2 Model 40349
# Vertices: 67
# Faces: 118

v 0 -14 135
v 10 -13 128
v 11 -12 138
v 0 -16 149
v -12 -12 148
v -10 -10 137
v -10 -11 127
v 0 -15 127
v 0 -14 122
v 11 -9 122
v 17 3 122
v 16 2 126
v 16 3 136
v 19 4 151
v 11 -12 149
v 10 -9 164
v 3 -12 160
v 2 -11 160
v -3 -11 161
v -4 -12 161
v -9 -11 162
v -19 -7 161
v -19 4 151
v -16 3 136
v -16 2 126
v -17 3 122
v -11 -9 122
v 0 15 152
v 0 13 135
v -8 10 136
v -10 14 150
v 0 15 165
v 9 14 152
v 10 10 139
v 9 8 128
v 0 10 127
v -9 8 127
v -18 12 163
v -8 15 165
v 0 11 173
v 18 12 163
v 11 8 123
v 0 11 123
v -11 8 123
v -13 1 120
v -9 -8 120
v 0 -11 120
v 9 -8 120
v 13 1 120
v 19 -7 161
v 21 3 169
v 12 3 171
v 10 -12 166
v 4 -7 167
v 3 -6 167
v -3 -6 167
v -4 -7 167
v -8 -12 165
v -12 3 171
v -21 3 169
v -9 6 120
v 0 8 120
v 9 6 120
v 0 -4 168
v -8 3 171
v 8 3 171
v -11 11 170

f 1 2 3
f 1 3 4
f 1 4 5
f 1 5 6
f 1 6 7
f 1 7 8
f 1 8 2
f 2 8 9
f 2 9 10
f 2 10 11
f 2 11 12
f 2 12 13
f 2 13 3
f 3 13 14
f 3 14 15
f 3 15 4
f 4 15 16
f 4 16 17
f 4 17 18
f 4 18 19
f 4 19 20
f 4 20 21
f 4 21 5
f 5 21 22
f 5 22 23
f 5 23 24
f 5 24 6
f 6 24 7
f 7 24 25
f 7 25 26
f 7 26 27
f 7 27 9
f 7 9 8
f 28 29 30
f 28 30 31
f 28 31 32
f 28 32 33
f 28 33 34
f 28 34 29
f 29 34 35
f 29 35 36
f 29 36 37
f 29 37 30
f 30 37 25
f 30 25 24
f 30 24 31
f 31 24 23
f 31 23 38
f 31 38 39
f 31 39 32
f 32 39 40
f 32 40 41
f 32 41 33
f 33 41 14
f 33 14 13
f 33 13 34
f 34 13 12
f 34 12 35
f 35 12 42
f 35 42 36
f 36 42 43
f 36 43 44
f 36 44 37
f 37 44 25
f 25 44 26
f 26 44 45
f 26 45 46
f 26 46 27
f 27 46 47
f 27 47 9
f 9 47 10
f 10 47 48
f 10 48 11
f 11 48 49
f 11 49 42
f 11 42 12
f 16 15 50
f 16 50 51
f 16 51 52
f 16 52 53
f 16 53 54
f 16 54 17
f 17 54 55
f 17 55 18
f 18 55 56
f 18 56 19
f 19 56 57
f 19 57 20
f 20 57 21
f 21 57 58
f 21 58 59
f 21 59 60
f 21 60 22
f 43 61 44
f 44 61 45
f 43 62 61
f 62 43 63
f 63 43 42
f 63 42 49
f 56 55 64
f 56 64 65
f 56 65 57
f 57 65 59
f 57 59 58
f 55 66 64
f 66 55 54
f 66 54 53
f 66 53 52
f 66 52 40
f 40 52 51
f 40 51 41
f 65 40 59
f 59 40 67
f 59 67 60
f 60 67 38
f 38 67 39
f 39 67 40
f 50 15 14
