# RS2 Model 4044
# Vertices: 109
# Faces: 208

v -34 -11 87
v -34 -12 83
v -36 -42 95
v -36 -35 94
v -28 -29 91
v -30 -11 87
v -30 -10 89
v -36 -8 90
v -36 -7 88
v -36 -10 80
v -36 -12 79
v -34 -13 81
v -30 -12 83
v -28 -32 89
v -28 -53 102
v -35 -55 106
v -36 -47 103
v -28 -47 105
v -28 -10 80
v -28 -7 88
v -28 -8 90
v -34 -8 87
v -34 -9 82
v -28 -12 79
v -30 -13 81
v -34 -64 113
v -34 -61 114
v -30 -65 116
v -34 -66 122
v -34 -64 122
v -30 -61 116
v -36 44 66
v -34 7 76
v -34 8 79
v -36 38 71
v -34 60 64
v -28 51 66
v -28 27 69
v -30 7 76
v -34 7 74
v -36 5 73
v -36 4 75
v -36 6 83
v -36 9 84
v -34 9 82
v -30 8 79
v -28 26 72
v -35 50 69
v -34 67 67
v -30 70 68
v -30 67 71
v -28 57 69
v -28 4 75
v -30 7 74
v -28 5 73
v -34 4 76
v -34 6 82
v -29 6 82
v -28 6 83
v -28 9 84
v -30 9 82
v -30 4 76
v -30 2 78
v -34 2 79
v -34 3 79
v -34 5 82
v -29 5 82
v -30 3 78
v -34 65 69
v -34 76 72
v -34 78 70
v -31 80 71
v -31 77 73
v -31 -66 131
v -31 -67 127
v -31 -65 127
v -31 -65 131
v -32 -66 133
v -32 -67 133
v -33 -66 131
v -34 -67 126
v -31 -67 123
v -31 -64 123
v -34 -65 126
v -33 -65 131
v -33 -66 133
v -32 -67 135
v -33 -67 133
v -31 85 78
v -31 82 75
v -31 85 73
v -31 87 76
v -32 89 78
v -32 88 79
v -33 85 78
v -34 82 75
v -34 84 73
v -33 87 76
v -33 89 78
v -32 90 81
v -33 88 79
v -32 7 107
v -32 7 106
v -30 -8 87
v -30 -7 87
v -34 -7 87
v -34 -7 82
v -30 -9 82
v -30 -7 82

f 1 2 3
f 1 3 4
f 1 4 5
f 1 5 6
f 1 6 7
f 1 7 8
f 1 8 9
f 1 9 2
f 2 9 10
f 2 10 11
f 2 11 12
f 2 12 13
f 2 13 14
f 2 14 3
f 3 14 15
f 3 15 16
f 3 16 4
f 4 16 17
f 4 17 5
f 5 17 18
f 5 18 14
f 5 14 13
f 5 13 6
f 6 13 19
f 6 19 20
f 6 20 7
f 7 20 21
f 7 21 8
f 8 21 9
f 9 21 20
f 9 20 22
f 9 22 23
f 9 23 10
f 10 23 19
f 10 19 24
f 10 24 11
f 11 24 25
f 11 25 12
f 12 25 13
f 13 25 19
f 19 25 24
f 26 27 17
f 26 17 16
f 26 16 28
f 26 28 29
f 26 29 27
f 27 29 30
f 27 30 31
f 27 31 18
f 27 18 17
f 31 28 15
f 31 15 18
f 18 15 14
f 28 16 15
f 32 33 34
f 32 34 35
f 32 35 36
f 32 36 37
f 32 37 38
f 32 38 33
f 33 38 39
f 33 39 40
f 33 40 41
f 33 41 42
f 33 42 43
f 33 43 34
f 34 43 44
f 34 44 45
f 34 45 46
f 34 46 47
f 34 47 35
f 35 47 48
f 35 48 36
f 36 48 49
f 36 49 50
f 36 50 37
f 37 50 51
f 37 51 52
f 37 52 38
f 38 52 47
f 38 47 39
f 39 47 46
f 39 46 53
f 39 53 54
f 39 54 40
f 40 54 41
f 41 54 55
f 41 55 42
f 42 55 53
f 42 53 56
f 42 56 57
f 42 57 43
f 43 57 58
f 43 58 59
f 43 59 60
f 43 60 44
f 44 60 61
f 44 61 45
f 45 61 46
f 46 61 59
f 46 59 53
f 53 59 58
f 53 58 62
f 53 62 56
f 56 62 63
f 56 63 64
f 56 64 65
f 56 65 57
f 57 65 66
f 57 66 58
f 58 66 67
f 58 67 68
f 58 68 62
f 62 68 63
f 59 61 60
f 53 55 54
f 48 69 49
f 49 69 70
f 49 70 71
f 49 71 50
f 50 71 72
f 50 72 73
f 50 73 51
f 51 73 70
f 51 70 69
f 51 69 52
f 52 69 48
f 52 48 47
f 74 75 76
f 74 76 77
f 74 77 78
f 74 78 79
f 74 79 80
f 74 80 75
f 75 80 81
f 75 81 82
f 75 82 76
f 76 82 83
f 76 83 84
f 76 84 85
f 76 85 77
f 77 85 78
f 78 85 86
f 78 86 87
f 78 87 79
f 79 87 88
f 79 88 80
f 80 88 86
f 80 86 85
f 80 85 81
f 81 85 84
f 81 84 29
f 81 29 82
f 82 29 28
f 82 28 83
f 83 28 31
f 83 31 30
f 83 30 84
f 84 30 29
f 89 90 91
f 89 91 92
f 89 92 93
f 89 93 94
f 89 94 95
f 89 95 90
f 90 95 96
f 90 96 73
f 90 73 72
f 90 72 91
f 91 72 97
f 91 97 98
f 91 98 92
f 92 98 93
f 93 98 99
f 93 99 100
f 93 100 94
f 94 100 101
f 94 101 95
f 95 101 98
f 95 98 97
f 95 97 96
f 96 97 71
f 96 71 70
f 96 70 73
f 101 99 98
f 99 101 100
f 77 102 103
f 77 103 85
f 77 85 102
f 102 85 103
f 102 103 89
f 102 89 103
f 103 89 95
f 103 95 89
f 22 20 104
f 22 104 105
f 22 105 106
f 22 106 23
f 23 106 107
f 23 107 108
f 23 108 19
f 19 108 104
f 19 104 20
f 109 105 104
f 109 104 108
f 109 108 107
f 88 87 86
f 72 71 97
