# RS2 Model 4071
# Vertices: 200
# Faces: 298

v -29 -29 200
v -28 -28 200
v -29 -26 199
v -30 -27 198
v -29 -31 199
v -27 -28 198
v -29 -26 197
v -31 -28 197
v -29 -32 196
v -26 -29 195
v -28 -27 194
v -30 -29 194
v -26 -33 190
v -25 -32 190
v -27 -30 189
v -28 -31 189
v -44 -43 200
v -43 -42 200
v -45 -40 199
v -46 -41 199
v -45 -45 198
v -43 -42 198
v -44 -40 197
v -47 -42 197
v -44 -45 195
v -42 -42 195
v -44 -40 194
v -46 -42 194
v -41 -45 189
v -40 -44 190
v -42 -42 189
v -43 -43 188
v 10 6 202
v 11 7 203
v 9 10 202
v 8 9 202
v 9 5 201
v 11 8 202
v 9 10 201
v 7 8 201
v 10 5 197
v 12 8 199
v 10 11 197
v 8 8 198
v 12 6 193
v 13 7 193
v 11 10 192
v 11 9 191
v 30 28 207
v 31 29 209
v 29 32 207
v 28 31 208
v 29 27 206
v 31 30 206
v 29 32 206
v 27 30 207
v 30 27 202
v 31 30 203
v 30 33 202
v 27 30 203
v 31 28 197
v 32 29 197
v 30 32 198
v 29 31 197
v 10 8 175
v 8 7 161
v -1 -2 160
v 2 -1 175
v 11 7 194
v 12 5 174
v 11 4 160
v 7 7 136
v -4 -5 136
v 3 -9 137
v 3 -6 160
v 4 -3 175
v 6 -1 189
v 4 0 189
v 12 5 194
v 12 3 139
v 8 3 145
v 7 3 145
v 3 -2 144
v 4 -2 144
v 42 39 147
v 46 45 147
v 54 48 141
v 43 37 141
v 41 40 147
v 38 41 138
v 46 46 147
v 50 52 139
v 45 47 164
v 48 45 163
v 40 35 163
v 36 39 162
v 35 36 177
v 42 45 178
v 45 42 178
v 38 33 176
v 42 42 192
v 34 34 196
v 35 33 195
v 43 40 192
v 13 7 194
v 11 8 194
v 11 9 175
v 13 6 175
v 18 8 189
v 17 15 197
v 11 10 189
v 15 15 145
v 14 12 146
v 14 9 147
v 17 9 147
v 21 10 145
v 26 17 190
v 19 13 195
v 38 32 176
v 35 35 177
v 34 33 196
v 35 32 195
v 34 27 190
v 35 27 146
v 36 31 148
v 36 34 149
v 33 34 149
v 31 31 146
v 30 33 190
v 27 26 197
v 29 24 197
v 21 23 190
v 64 59 219
v 64 64 218
v 40 40 206
v 44 37 207
v 64 59 216
v 45 37 204
v 23 14 198
v 23 14 195
v 0 -9 194
v 1 -9 191
v -25 -33 191
v -24 -33 189
v -59 -64 191
v -59 -64 188
v -28 -30 191
v -64 -64 191
v -3 -7 193
v 21 17 198
v 64 64 215
v 41 40 203
v 21 17 195
v -2 -7 190
v -28 -30 188
v -64 -64 188
v -26 -33 171
v -27 -35 171
v -19 -30 171
v -23 -26 165
v -45 -53 171
v -39 -46 171
v -41 -47 171
v -49 -49 165
v -22 -33 188
v -26 -29 184
v -26 -29 188
v -45 -47 188
v -42 -50 188
v -42 -50 184
v -22 -33 184
v -25 -27 171
v -45 -47 184
v -47 -47 171
v -32 -42 171
v -36 -37 165
v -55 -53 131
v -48 -58 136
v -31 -43 135
v -14 -27 136
v -19 -20 131
v -37 -36 131
v -22 -35 92
v -10 -22 92
v -13 -26 122
v -31 -43 92
v -31 -43 122
v -50 -59 122
v -40 -51 92
v -54 -62 92
v -61 -64 94
v -57 -53 119
v -59 -54 93
v -51 -46 93
v -38 -35 119
v -40 -33 93
v -26 -23 93
v -18 -18 119
v -17 -16 93
v -7 -15 94

f 1 2 3
f 1 3 4
f 1 4 5
f 1 5 2
f 2 5 6
f 2 6 7
f 2 7 3
f 3 7 8
f 3 8 4
f 4 8 5
f 5 8 9
f 5 9 10
f 5 10 6
f 6 10 11
f 6 11 7
f 7 11 8
f 8 11 12
f 8 12 9
f 9 13 14
f 9 14 10
f 15 16 12
f 15 12 11
f 17 18 19
f 17 19 20
f 17 20 21
f 17 21 18
f 18 21 22
f 18 22 23
f 18 23 19
f 19 23 24
f 19 24 20
f 20 24 21
f 21 24 25
f 21 25 26
f 21 26 22
f 22 26 27
f 22 27 23
f 23 27 24
f 24 27 28
f 24 28 25
f 25 29 30
f 25 30 26
f 31 32 28
f 31 28 27
f 33 34 35
f 33 35 36
f 33 36 37
f 33 37 34
f 34 37 38
f 34 38 39
f 34 39 35
f 35 39 40
f 35 40 36
f 36 40 37
f 37 40 41
f 37 41 42
f 37 42 38
f 38 42 43
f 38 43 39
f 39 43 40
f 40 43 44
f 40 44 41
f 41 45 46
f 41 46 42
f 47 48 44
f 47 44 43
f 49 50 51
f 49 51 52
f 49 52 53
f 49 53 50
f 50 53 54
f 50 54 55
f 50 55 51
f 51 55 56
f 51 56 52
f 52 56 53
f 53 56 57
f 53 57 58
f 53 58 54
f 54 58 59
f 54 59 55
f 55 59 56
f 56 59 60
f 56 60 57
f 57 61 62
f 57 62 58
f 63 64 60
f 63 60 59
f 65 66 67
f 65 67 68
f 65 68 69
f 65 69 70
f 65 70 71
f 65 71 66
f 66 71 72
f 66 72 67
f 67 72 73
f 67 73 74
f 67 74 75
f 67 75 76
f 67 76 68
f 68 76 77
f 68 77 78
f 68 78 69
f 69 78 79
f 69 79 70
f 70 79 77
f 70 77 76
f 70 76 71
f 71 76 75
f 71 75 74
f 71 74 80
f 71 80 72
f 72 80 81
f 72 81 82
f 72 82 73
f 73 82 83
f 73 83 74
f 74 83 84
f 74 84 80
f 80 84 81
f 79 78 77
f 85 86 87
f 85 87 88
f 85 88 89
f 89 88 90
f 89 90 91
f 91 90 92
f 91 92 86
f 86 92 87
f 87 92 93
f 87 93 94
f 87 94 95
f 87 95 88
f 88 95 90
f 90 95 96
f 90 96 93
f 90 93 92
f 93 96 97
f 93 97 98
f 93 98 99
f 93 99 94
f 94 99 95
f 95 99 100
f 95 100 97
f 95 97 96
f 101 102 103
f 101 103 104
f 101 104 98
f 101 98 102
f 102 98 97
f 102 97 100
f 102 100 103
f 103 100 104
f 104 100 99
f 104 99 98
f 105 106 107
f 105 107 108
f 105 108 109
f 105 109 110
f 105 110 106
f 106 110 111
f 106 111 107
f 107 111 112
f 107 112 113
f 107 113 114
f 107 114 108
f 108 114 115
f 108 115 116
f 108 116 109
f 109 116 117
f 109 117 118
f 109 118 110
f 119 120 121
f 119 121 122
f 119 122 123
f 119 123 124
f 119 124 125
f 119 125 126
f 119 126 120
f 120 126 127
f 120 127 128
f 120 128 129
f 120 129 121
f 121 129 130
f 121 130 122
f 122 130 123
f 123 130 131
f 123 131 117
f 123 117 124
f 124 117 116
f 131 118 117
f 128 112 132
f 128 132 129
f 129 132 130
f 130 132 110
f 110 132 111
f 111 132 112
f 133 134 135
f 133 135 136
f 133 136 137
f 137 136 138
f 138 136 139
f 138 139 140
f 140 139 141
f 140 141 142
f 142 141 143
f 142 143 144
f 144 143 145
f 144 145 146
f 143 147 148
f 143 148 145
f 141 149 147
f 141 147 143
f 139 150 149
f 139 149 141
f 136 135 150
f 136 150 139
f 134 151 152
f 134 152 135
f 135 152 153
f 135 153 150
f 150 153 154
f 150 154 149
f 149 154 155
f 149 155 147
f 147 155 156
f 147 156 148
f 157 158 159
f 158 157 160
f 161 162 163
f 163 162 164
f 165 166 167
f 165 167 168
f 165 168 169
f 165 169 170
f 165 170 171
f 165 171 166
f 166 171 172
f 166 172 173
f 166 173 167
f 167 173 168
f 168 173 169
f 169 173 170
f 170 173 174
f 170 174 161
f 170 161 175
f 170 175 171
f 171 175 159
f 171 159 172
f 172 159 160
f 172 160 176
f 172 176 174
f 172 174 173
f 176 164 174
f 174 164 161
f 161 164 177
f 161 177 178
f 161 178 179
f 161 179 175
f 175 179 159
f 159 179 180
f 159 180 181
f 159 181 160
f 160 181 176
f 176 181 182
f 176 182 177
f 176 177 164
f 183 184 185
f 183 185 186
f 186 185 187
f 186 187 188
f 186 188 189
f 189 188 190
f 190 188 191
f 191 188 192
f 191 192 193
f 193 192 194
f 194 192 195
f 194 195 196
f 196 195 197
f 197 195 198
f 197 198 199
f 199 198 200
f 200 198 185
f 200 185 184
f 178 177 192
f 178 192 188
f 178 188 187
f 178 187 179
f 179 187 180
f 180 187 185
f 180 185 198
f 180 198 181
f 181 198 182
f 182 198 195
f 182 195 192
f 182 192 177
