# RS2 Model 40848
# Vertices: 55
# Faces: 75

v -4 -15 130
v 0 -15 130
v 0 -14 134
v -3 -14 133
v -3 -13 133
v -4 -14 130
v -6 -14 128
v 0 -14 127
v 4 -14 128
v 5 -14 130
v 4 -14 134
v 2 -14 136
v 1 -14 137
v -3 -14 134
v -3 -13 134
v -1 -14 152
v 0 -10 159
v -2 -14 151
v 0 -15 149
v 0 -14 149
v -1 -13 152
v 0 -15 146
v 2 -15 148
v -2 -15 148
v -2 -14 148
v 0 -14 146
v 0 -15 145
v 4 -14 144
v 3 -15 147
v 3 -14 147
v 2 -14 148
v -4 -14 141
v -5 -14 139
v 0 -14 139
v -1 -15 142
v -1 -14 142
v -4 -13 141
v -5 -13 139
v -5 -14 136
v 1 -13 137
v 0 -13 139
v 2 -14 140
v 4 -14 142
v 0 -14 145
v -2 -13 151
v 4 -13 142
v 4 -13 144
v -5 -13 136
v 5 -13 130
v 4 -13 134
v 2 -13 136
v 2 -13 140
v -10 -16 126
v 9 -16 124
v -8 -10 154

f 1 2 3
f 1 3 4
f 1 4 5
f 1 5 6
f 1 6 7
f 1 7 8
f 1 8 2
f 2 8 9
f 2 9 10
f 2 10 11
f 2 11 3
f 3 11 12
f 3 12 13
f 3 13 4
f 4 13 14
f 4 14 15
f 4 15 5
f 16 17 18
f 16 18 19
f 16 19 20
f 16 20 21
f 16 21 17
f 22 23 19
f 22 19 24
f 22 24 25
f 22 25 26
f 22 26 27
f 22 27 28
f 22 28 29
f 22 29 23
f 23 29 30
f 23 30 31
f 23 31 19
f 19 31 20
f 32 33 34
f 32 34 35
f 32 35 36
f 32 36 37
f 32 37 33
f 33 37 38
f 33 38 39
f 33 39 34
f 34 39 13
f 34 13 40
f 34 40 41
f 34 41 42
f 34 42 35
f 35 42 43
f 35 43 27
f 35 27 44
f 35 44 36
f 18 24 19
f 24 18 45
f 24 45 25
f 43 28 27
f 28 43 46
f 28 46 47
f 28 47 29
f 29 47 30
f 13 39 14
f 14 39 48
f 14 48 15
f 9 49 10
f 10 49 11
f 11 49 50
f 11 50 12
f 12 50 51
f 12 51 13
f 13 51 40
f 42 41 52
f 42 52 43
f 43 52 46
f 17 45 18
f 27 26 44
f 39 38 48
