# RS2 Model 413
# Vertices: 26
# Faces: 42

v -14 -9 206
v -11 -8 202
v -9 -8 203
v -9 -7 202
v -7 -5 199
v -9 -7 199
v -7 -7 201
v -5 -6 198
v -8 -6 196
v -4 -4 195
v -6 -4 196
v -7 -4 192
v -6 -2 193
v 14 -9 206
v 9 -8 203
v 11 -8 202
v 9 -7 202
v 7 -5 199
v 7 -7 201
v 9 -7 199
v 5 -6 198
v 8 -6 196
v 6 -4 196
v 4 -4 195
v 7 -4 192
v 6 -2 193

f 1 2 3
f 1 3 4
f 1 4 2
f 2 4 5
f 2 5 6
f 2 6 3
f 3 6 7
f 3 7 5
f 3 5 4
f 8 7 6
f 8 6 9
f 8 9 10
f 8 10 11
f 8 11 5
f 8 5 7
f 9 6 5
f 9 5 11
f 9 11 12
f 9 12 10
f 12 11 13
f 13 11 10
f 14 15 16
f 14 16 17
f 14 17 15
f 15 17 18
f 15 18 19
f 15 19 20
f 15 20 16
f 16 20 18
f 16 18 17
f 21 22 20
f 21 20 19
f 21 19 18
f 21 18 23
f 21 23 24
f 21 24 22
f 22 24 25
f 22 25 23
f 22 23 18
f 22 18 20
f 25 26 23
f 23 26 24
