# RS2 Model 4140
# Vertices: 292
# Faces: 501

v -18 17 146
v -18 13 145
v -18 12 161
v -14 19 158
v -12 21 150
v -18 16 142
v -27 13 154
v -28 14 158
v -32 7 164
v -18 4 161
v -16 8 162
v -15 14 160
v -5 19 164
v 0 22 153
v 0 24 145
v -13 21 139
v -13 5 112
v -11 1 112
v -13 -6 136
v -18 0 142
v -18 1 146
v -18 -2 146
v -15 0 160
v -12 6 164
v -12 13 164
v -5 16 177
v 5 19 164
v 14 19 158
v 12 21 150
v 13 21 139
v 0 18 114
v -10 16 112
v -13 17 108
v -13 0 108
v 11 1 112
v 0 -2 128
v 0 -3 137
v 0 -8 142
v -15 -8 142
v -28 0 157
v -27 4 156
v -27 10 156
v 18 12 161
v 18 13 145
v 18 17 146
v 15 14 160
v 16 8 162
v 18 4 161
v 18 1 146
v 18 0 142
v 18 16 142
v 27 13 154
v 28 14 158
v 27 10 156
v 32 7 164
v 27 4 156
v 28 0 157
v 18 -2 146
v 15 -8 142
v 13 -6 136
v 13 5 112
v 10 16 112
v 15 0 160
v 10 -6 152
v -10 -6 152
v -10 -4 163
v -9 -2 174
v -11 6 174
v -11 11 174
v -10 6 184
v -5 11 188
v 5 16 177
v 12 13 164
v 5 0 160
v -5 0 160
v -9 -4 163
v -8 -2 174
v -9 -2 179
v 13 17 108
v 0 23 98
v -16 19 98
v -16 5 97
v -16 0 98
v 0 -3 93
v 13 0 108
v 12 6 164
v 10 -4 163
v 9 -4 163
v 5 -2 165
v -5 -2 165
v -6 -2 169
v -4 -2 170
v -2 -7 170
v -7 -2 177
v -8 -2 179
v -9 -3 184
v -5 -5 188
v -5 5 191
v 5 11 188
v 10 6 184
v 11 11 174
v 9 -2 174
v 8 -2 174
v 6 -2 169
v 3 -6 164
v 3 -7 168
v -3 -7 168
v -3 -6 164
v 11 6 174
v 9 -2 179
v 8 -2 179
v 7 -2 177
v 2 -7 170
v 4 -2 170
v 9 -3 184
v 8 -3 183
v 7 -7 181
v 7 -4 180
v 0 -7 178
v 1 -3 176
v 2 -7 173
v -2 -7 173
v -1 -3 176
v -7 -4 180
v -7 -7 181
v -8 -3 183
v -4 -5 187
v 4 -5 187
v 5 -5 188
v 5 5 191
v 4 -9 184
v 21 7 115
v 20 5 130
v 20 10 130
v 21 8 107
v 19 5 99
v 25 5 99
v 24 7 115
v 25 5 130
v 25 10 130
v 24 8 107
v 19 9 99
v 25 9 99
v 23 7 146
v 26 5 157
v 18 5 158
v 21 7 139
v 26 5 131
v 26 10 131
v 23 9 146
v 26 11 158
v 18 11 158
v 21 9 139
v 19 5 131
v 19 10 131
v -18 5 158
v -26 5 157
v -23 7 146
v -21 7 139
v -21 9 139
v -18 11 158
v -26 11 158
v -23 9 146
v -26 10 131
v -26 5 131
v -19 5 131
v -19 10 131
v -20 10 130
v -20 5 130
v -21 7 115
v -21 8 107
v -24 8 107
v -25 10 130
v -25 5 130
v -24 7 115
v -25 5 99
v -19 5 99
v -19 9 99
v -25 9 99
v 16 0 98
v 16 5 97
v 16 19 98
v 20 28 46
v 0 31 46
v -21 28 46
v -29 9 46
v -22 -5 62
v 0 -9 62
v 22 -5 62
v 29 9 46
v 25 16 37
v 22 21 29
v 21 24 17
v 10 35 13
v 4 31 41
v 15 31 41
v 16 29 25
v 0 33 30
v -6 33 22
v -9 31 37
v -16 31 37
v -23 25 37
v -25 18 41
v -28 13 33
v -30 11 13
v -13 33 20
v 32 11 9
v 24 18 21
v -19 27 22
v -24 21 9
v -26 16 25
v 16 -10 37
v 18 -8 29
v 20 -6 37
v 8 -13 37
v 12 -12 22
v 22 -3 9
v 24 -1 41
v 27 3 33
v 30 6 13
v 25 1 25
v -5 -13 41
v 1 -13 23
v -13 -12 17
v -16 -10 41
v -26 1 37
v -23 -3 29
v -21 -6 17
v -34 6 9
v -28 7 85
v -24 7 85
v -27 13 74
v -28 4 83
v -26 4 91
v -27 8 91
v -23 8 90
v -25 4 83
v -23 4 90
v -20 5 98
v -24 5 98
v -24 9 98
v -20 9 98
v -20 8 90
v -20 7 84
v -22 7 84
v -22 12 73
v -22 4 82
v -20 4 90
v -16 4 91
v -20 4 82
v -18 7 85
v -18 4 83
v -14 4 83
v -16 8 91
v -14 7 85
v -15 13 72
v 20 5 98
v 24 5 98
v 24 9 98
v 20 9 98
v 16 4 91
v 20 4 90
v 23 4 90
v 26 4 91
v 27 8 91
v 23 8 90
v 20 8 90
v 16 8 91
v 14 7 85
v 14 4 83
v 18 4 83
v 20 7 84
v 20 4 82
v 22 4 82
v 24 7 85
v 25 4 83
v 28 4 83
v 28 7 85
v 27 13 74
v 22 12 73
v 22 7 84
v 18 7 85
v 15 13 72
v -4 -9 184
v 0 -8 176
v 0 -8 0
v -6 4 0
v 6 4 0
v -24 -1 21
v -7 -7 179
v -6 -2 175
v 6 -7 179

f 1 2 3
f 1 3 4
f 1 4 5
f 1 5 6
f 1 6 2
f 1 2 7
f 1 7 8
f 1 8 3
f 3 8 9
f 3 9 10
f 3 10 11
f 3 11 12
f 3 12 4
f 4 12 13
f 4 13 14
f 4 14 15
f 4 15 5
f 5 15 16
f 5 16 6
f 6 16 17
f 6 17 18
f 6 18 19
f 6 19 20
f 6 20 21
f 6 21 2
f 2 21 10
f 2 10 3
f 21 22 10
f 10 22 23
f 10 23 11
f 11 23 24
f 11 24 25
f 11 25 12
f 12 25 13
f 13 25 26
f 13 26 27
f 13 27 14
f 14 27 28
f 14 28 15
f 15 28 29
f 15 29 30
f 15 30 31
f 15 31 16
f 16 31 32
f 16 32 17
f 17 32 33
f 17 33 34
f 17 34 18
f 18 34 35
f 18 35 36
f 18 36 19
f 19 36 37
f 19 37 38
f 19 38 39
f 19 39 20
f 20 39 22
f 20 22 21
f 21 22 40
f 21 40 41
f 41 40 9
f 41 9 42
f 42 9 8
f 42 8 7
f 43 44 45
f 43 45 28
f 43 28 46
f 43 46 47
f 43 47 48
f 43 48 49
f 43 49 44
f 44 49 50
f 44 50 51
f 44 51 45
f 44 45 52
f 52 45 53
f 52 53 54
f 54 53 55
f 54 55 56
f 56 55 57
f 56 57 49
f 49 57 58
f 49 58 50
f 50 58 59
f 50 59 60
f 50 60 51
f 51 60 35
f 51 35 61
f 51 61 62
f 51 62 30
f 51 30 29
f 51 29 45
f 45 29 28
f 48 58 49
f 58 48 63
f 58 63 64
f 58 64 59
f 59 64 38
f 59 38 60
f 60 38 37
f 60 37 36
f 60 36 35
f 23 22 65
f 23 65 66
f 23 66 24
f 24 66 67
f 24 67 68
f 24 68 25
f 25 68 69
f 25 69 26
f 26 69 70
f 26 70 71
f 26 71 72
f 26 72 27
f 27 72 73
f 27 73 46
f 27 46 28
f 39 65 22
f 65 39 38
f 65 38 64
f 65 64 74
f 65 74 75
f 65 75 76
f 65 76 66
f 66 76 77
f 66 77 67
f 67 77 78
f 67 78 68
f 68 78 70
f 68 70 69
f 30 62 31
f 31 62 32
f 32 62 33
f 33 62 79
f 33 79 80
f 33 80 81
f 33 81 82
f 33 82 34
f 34 82 83
f 34 83 84
f 34 84 85
f 34 85 35
f 35 85 61
f 61 85 79
f 61 79 62
f 63 48 47
f 63 47 86
f 63 86 87
f 63 87 64
f 64 87 88
f 64 88 74
f 74 88 89
f 74 89 75
f 75 89 90
f 75 90 76
f 76 90 91
f 76 91 77
f 77 91 92
f 77 92 93
f 77 93 94
f 77 94 95
f 77 95 78
f 78 95 96
f 78 96 70
f 70 96 97
f 70 97 98
f 70 98 71
f 71 98 99
f 71 99 72
f 72 99 100
f 72 100 101
f 72 101 73
f 73 101 86
f 73 86 47
f 73 47 46
f 22 10 40
f 40 10 9
f 87 86 102
f 87 102 103
f 87 103 88
f 88 103 104
f 88 104 89
f 89 104 105
f 105 104 106
f 105 106 107
f 105 107 108
f 108 107 91
f 108 91 90
f 86 109 102
f 102 109 110
f 102 110 103
f 103 110 111
f 103 111 112
f 103 112 113
f 103 113 114
f 103 114 104
f 104 114 92
f 104 92 91
f 104 91 107
f 104 107 106
f 109 100 110
f 110 100 115
f 110 115 111
f 111 115 116
f 111 116 117
f 111 117 118
f 111 118 112
f 112 118 119
f 112 119 120
f 112 120 121
f 112 121 113
f 113 121 93
f 93 121 122
f 93 122 94
f 94 122 123
f 94 123 119
f 94 119 124
f 94 124 95
f 95 124 125
f 95 125 126
f 95 126 96
f 96 126 127
f 96 127 97
f 97 127 128
f 97 128 129
f 97 129 130
f 97 130 98
f 98 130 99
f 99 130 100
f 100 130 129
f 100 129 115
f 115 129 128
f 115 128 116
f 116 128 131
f 116 131 117
f 117 131 119
f 117 119 118
f 100 109 101
f 101 109 86
f 57 48 58
f 48 57 55
f 48 55 43
f 43 55 53
f 43 53 45
f 132 133 134
f 132 134 135
f 132 135 136
f 132 136 137
f 132 137 138
f 132 138 139
f 132 139 133
f 133 139 134
f 134 139 140
f 134 140 141
f 134 141 135
f 135 141 142
f 135 142 136
f 136 142 137
f 137 142 143
f 137 143 141
f 137 141 138
f 138 141 140
f 138 140 139
f 141 143 142
f 144 145 146
f 144 146 147
f 144 147 148
f 144 148 149
f 144 149 150
f 144 150 151
f 144 151 145
f 145 151 146
f 146 151 152
f 146 152 153
f 146 153 147
f 147 153 154
f 147 154 148
f 148 154 149
f 149 154 155
f 149 155 153
f 149 153 150
f 150 153 152
f 150 152 151
f 153 155 154
f 156 157 158
f 156 158 159
f 156 159 160
f 156 160 161
f 156 161 162
f 156 162 157
f 157 162 158
f 158 162 163
f 158 163 164
f 158 164 165
f 158 165 159
f 159 165 166
f 159 166 160
f 160 166 167
f 160 167 164
f 160 164 163
f 160 163 161
f 161 163 162
f 166 165 164
f 166 164 167
f 168 169 170
f 168 170 171
f 168 171 172
f 168 172 173
f 168 173 174
f 168 174 169
f 169 174 170
f 170 174 175
f 170 175 176
f 170 176 177
f 170 177 171
f 171 177 178
f 171 178 172
f 172 178 179
f 172 179 176
f 172 176 175
f 172 175 173
f 173 175 174
f 178 177 176
f 178 176 179
f 85 84 180
f 85 180 181
f 85 181 79
f 79 181 182
f 79 182 80
f 80 182 183
f 80 183 184
f 80 184 81
f 81 184 185
f 81 185 186
f 81 186 82
f 82 186 187
f 82 187 83
f 83 187 84
f 84 187 188
f 84 188 180
f 180 188 189
f 180 189 190
f 180 190 181
f 181 190 182
f 182 190 183
f 183 190 191
f 183 191 192
f 183 192 193
f 194 195 196
f 196 195 183
f 196 183 197
f 195 198 184
f 195 184 183
f 184 199 200
f 184 200 185
f 185 200 201
f 185 201 202
f 185 202 203
f 185 203 186
f 186 203 204
f 186 204 205
f 200 206 201
f 190 207 191
f 191 208 192
f 201 209 202
f 202 210 203
f 203 211 204
f 212 213 214
f 212 214 188
f 212 188 215
f 212 215 216
f 214 217 218
f 214 218 189
f 214 189 188
f 219 220 190
f 219 190 189
f 219 189 218
f 219 218 221
f 188 222 215
f 215 222 223
f 224 222 225
f 225 222 188
f 225 188 187
f 225 187 226
f 225 226 227
f 225 227 228
f 186 226 187
f 226 186 229
f 230 231 232
f 230 232 233
f 230 233 234
f 230 234 235
f 230 235 231
f 231 235 236
f 231 236 237
f 231 237 232
f 232 237 233
f 233 237 238
f 233 238 234
f 234 238 239
f 234 239 240
f 234 240 241
f 234 241 235
f 235 241 242
f 235 242 236
f 236 242 243
f 236 243 244
f 236 244 245
f 236 245 238
f 236 238 237
f 245 244 246
f 245 246 247
f 245 247 238
f 238 247 248
f 238 248 239
f 239 248 249
f 239 249 242
f 239 242 240
f 240 242 241
f 244 250 246
f 246 250 247
f 247 250 248
f 248 250 243
f 248 243 251
f 248 251 252
f 248 252 249
f 249 252 253
f 249 253 254
f 249 254 242
f 242 254 243
f 243 254 255
f 243 255 251
f 251 255 256
f 251 256 252
f 252 256 253
f 253 256 255
f 253 255 254
f 243 250 244
f 257 258 259
f 257 259 260
f 257 260 261
f 257 261 262
f 257 262 263
f 257 263 264
f 257 264 258
f 258 264 259
f 259 264 265
f 259 265 260
f 260 265 266
f 260 266 267
f 260 267 268
f 260 268 261
f 261 268 269
f 261 269 270
f 261 270 262
f 262 270 271
f 262 271 267
f 262 267 272
f 262 272 273
f 262 273 263
f 263 273 274
f 263 274 266
f 263 266 275
f 263 275 276
f 263 276 264
f 264 276 277
f 264 277 265
f 265 277 278
f 265 278 266
f 266 278 275
f 275 278 279
f 275 279 276
f 276 279 277
f 277 279 278
f 280 272 281
f 280 281 274
f 280 274 273
f 280 273 272
f 269 282 283
f 269 283 270
f 270 283 271
f 271 283 282
f 271 282 267
f 267 282 268
f 268 282 269
f 274 281 266
f 266 281 267
f 267 281 272
f 125 124 119
f 125 119 284
f 125 284 126
f 126 284 127
f 127 284 128
f 128 284 131
f 131 284 119
f 285 122 121
f 285 121 120
f 285 120 119
f 285 119 123
f 285 123 122
f 286 287 288
f 226 289 227
