# RS2 Model 415
# Vertices: 52
# Faces: 90

v 16 2 180
v 10 1 176
v 11 1 183
v 13 2 184
v 18 2 185
v 20 -1 185
v 17 -1 179
v 10 -1 175
v 16 -4 180
v 10 -4 176
v 11 -4 183
v 13 -4 184
v 14 2 186
v 14 2 190
v 18 2 191
v 20 -1 191
v 18 -4 191
v 18 -4 185
v 14 0 196
v 13 0 195
v 9 -1 202
v 16 -1 197
v 14 -4 190
v 13 -3 195
v 15 -3 196
v 14 -4 186
v -16 2 180
v -13 2 184
v -11 1 183
v -10 1 176
v -17 -1 179
v -20 -1 185
v -18 2 185
v -14 2 186
v -13 -4 184
v -11 -4 183
v -16 -4 180
v -10 -4 176
v -10 -1 175
v -13 0 195
v -14 0 196
v -9 -1 202
v -13 -3 195
v -14 -4 190
v -14 2 190
v -18 2 191
v -20 -1 191
v -16 -1 197
v -15 -3 196
v -18 -4 191
v -18 -4 185
v -14 -4 186

f 1 2 3
f 1 3 4
f 1 4 5
f 1 5 6
f 1 6 7
f 1 7 2
f 2 7 8
f 8 7 9
f 8 9 10
f 10 9 11
f 11 9 12
f 11 12 3
f 3 12 4
f 4 12 13
f 4 13 5
f 5 13 14
f 5 14 15
f 5 15 6
f 6 15 16
f 6 16 17
f 6 17 18
f 6 18 9
f 6 9 7
f 19 20 21
f 19 21 22
f 19 22 16
f 19 16 15
f 19 15 20
f 20 15 14
f 20 14 23
f 20 23 24
f 20 24 21
f 21 24 25
f 21 25 22
f 22 25 16
f 16 25 17
f 17 25 24
f 17 24 23
f 17 23 18
f 18 23 26
f 18 26 12
f 18 12 9
f 12 26 13
f 13 26 14
f 14 26 23
f 27 28 29
f 27 29 30
f 27 30 31
f 27 31 32
f 27 32 33
f 27 33 28
f 28 33 34
f 28 34 35
f 28 35 29
f 29 35 36
f 36 35 37
f 36 37 38
f 38 37 39
f 39 37 31
f 39 31 30
f 40 41 42
f 40 42 43
f 40 43 44
f 40 44 45
f 40 45 46
f 40 46 41
f 41 46 47
f 41 47 48
f 41 48 42
f 42 48 49
f 42 49 43
f 43 49 50
f 43 50 44
f 44 50 51
f 44 51 52
f 44 52 45
f 45 52 34
f 45 34 33
f 45 33 46
f 46 33 32
f 46 32 47
f 47 32 50
f 47 50 49
f 47 49 48
f 32 31 37
f 32 37 51
f 32 51 50
f 35 34 52
f 35 52 51
f 35 51 37
