# RS2 Model 4269
# Vertices: 92
# Faces: 176

v -8 2 0
v -9 18 0
v -9 18 4
v -8 2 4
v -11 -10 0
v -18 -16 0
v -13 2 0
v -12 17 0
v -12 27 0
v -12 27 4
v -14 25 4
v -12 17 4
v -13 2 4
v -11 -10 4
v -6 -12 0
v -9 -23 0
v -17 -26 0
v -17 -26 5
v -18 -16 5
v -14 25 0
v -19 35 0
v -19 35 4
v -20 32 4
v -20 32 0
v -6 -12 4
v -1 -8 0
v -1 -20 0
v -2 -34 0
v -8 -33 0
v -8 -33 5
v -9 -23 5
v -1 -8 4
v 0 -4 0
v 5 -8 0
v 5 -20 0
v 6 -34 0
v 6 -34 5
v -2 -34 5
v -2 -28 5
v 0 -4 4
v 0 23 3
v 0 23 1
v 4 -4 0
v 4 -4 4
v 5 -8 4
v 10 -12 0
v 13 -23 0
v 12 -33 0
v 12 -33 5
v 21 -26 5
v 13 -23 5
v 6 -28 5
v 4 23 3
v 4 25 3
v 0 25 3
v -11 23 3
v -11 23 1
v -11 25 1
v 0 25 1
v 4 23 1
v 14 23 3
v 15 25 3
v 15 25 1
v 4 25 1
v 4 26 3
v 1 26 3
v 1 26 1
v -11 25 3
v 10 -12 4
v 15 -10 0
v 22 -16 0
v 21 -26 0
v 15 -10 4
v 11 2 0
v 16 2 0
v 16 2 4
v 22 -16 5
v 11 2 4
v 13 18 0
v 16 17 0
v 16 17 4
v 13 18 4
v 16 27 0
v 18 25 0
v 18 25 4
v 16 27 4
v 22 35 4
v 24 32 4
v 24 32 0
v 22 35 0
v 4 26 1
v 14 23 1

f 1 2 3
f 1 3 4
f 1 4 5
f 1 5 6
f 1 6 7
f 1 7 8
f 1 8 2
f 2 8 9
f 2 9 10
f 2 10 3
f 3 10 11
f 3 11 12
f 3 12 13
f 3 13 4
f 4 13 14
f 4 14 5
f 5 14 15
f 5 15 16
f 5 16 17
f 5 17 6
f 6 17 18
f 6 18 19
f 6 19 7
f 7 19 13
f 7 13 8
f 8 13 12
f 8 12 20
f 8 20 9
f 9 20 21
f 9 21 22
f 9 22 10
f 10 22 23
f 10 23 11
f 11 23 24
f 11 24 20
f 11 20 12
f 14 25 15
f 15 25 26
f 15 26 27
f 15 27 16
f 16 27 28
f 16 28 17
f 17 28 29
f 17 29 30
f 17 30 18
f 18 30 31
f 18 31 19
f 19 31 14
f 19 14 13
f 25 32 26
f 26 32 33
f 26 33 34
f 26 34 27
f 27 34 35
f 27 35 36
f 27 36 28
f 28 36 37
f 28 37 38
f 28 38 29
f 29 38 30
f 30 38 31
f 31 38 39
f 31 39 32
f 31 32 25
f 31 25 14
f 32 40 33
f 33 40 41
f 33 41 42
f 33 42 43
f 33 43 34
f 34 43 44
f 34 44 45
f 34 45 46
f 34 46 47
f 34 47 35
f 35 47 36
f 36 47 48
f 36 48 49
f 36 49 37
f 37 49 50
f 37 50 51
f 37 51 52
f 37 52 38
f 38 52 39
f 39 52 32
f 32 52 45
f 32 45 44
f 32 44 40
f 40 44 53
f 40 53 41
f 41 53 54
f 41 54 55
f 41 55 56
f 41 56 57
f 41 57 42
f 42 57 58
f 42 58 59
f 42 59 60
f 42 60 43
f 43 60 44
f 44 60 53
f 53 60 61
f 53 61 54
f 54 61 62
f 54 62 63
f 54 63 64
f 54 64 65
f 54 65 55
f 55 65 66
f 55 66 67
f 55 67 59
f 55 59 68
f 55 68 56
f 45 69 46
f 46 69 70
f 46 70 47
f 47 70 71
f 47 71 72
f 47 72 48
f 48 72 50
f 48 50 49
f 69 73 70
f 70 73 74
f 70 74 75
f 70 75 71
f 71 75 76
f 71 76 77
f 71 77 72
f 72 77 50
f 50 77 73
f 50 73 51
f 51 73 69
f 51 69 52
f 52 69 45
f 73 78 74
f 74 78 79
f 74 79 75
f 75 79 80
f 75 80 81
f 75 81 76
f 76 81 78
f 76 78 77
f 77 78 73
f 78 82 79
f 79 82 83
f 79 83 84
f 79 84 80
f 80 84 85
f 80 85 81
f 81 85 86
f 81 86 82
f 81 82 78
f 87 88 89
f 87 89 90
f 87 90 86
f 87 86 85
f 87 85 88
f 88 85 84
f 88 84 89
f 89 84 83
f 89 83 90
f 90 83 86
f 86 83 82
f 23 22 21
f 23 21 24
f 24 21 20
f 67 91 64
f 67 64 59
f 59 64 60
f 60 64 63
f 60 63 92
f 60 92 61
f 68 59 58
f 64 91 65
f 65 91 66
f 66 91 67
