# RS2 Model 4324
# Vertices: 140
# Faces: 236

v 48 64 248
v 48 64 232
v -64 64 224
v -64 64 240
v 48 48 248
v 48 48 232
v -64 48 224
v -64 48 240
v 37 54 198
v 33 54 200
v 33 58 200
v 37 58 198
v 39 54 194
v 40 52 202
v 21 54 184
v 27 54 179
v 27 58 179
v 37 60 204
v 40 60 202
v 43 60 197
v 39 58 194
v 43 52 197
v 40 56 205
v 37 52 204
v 32 52 207
v 29 54 202
v 29 58 202
v 21 58 184
v 32 60 207
v 27 54 174
v 30 54 177
v 16 54 186
v 14 54 182
v 14 58 182
v 27 58 174
v 30 54 170
v 33 54 172
v 33 58 172
v 30 58 177
v 16 58 186
v 11 54 186
v 11 54 182
v 11 58 182
v 30 58 170
v 31 54 164
v 34 54 166
v 34 58 166
v 31 58 164
v 6 54 185
v 6 54 181
v 6 58 181
v 11 58 186
v 6 58 185
v -41 56 86
v -29 58 104
v -29 56 99
v -29 54 104
v -33 56 101
v -3 56 148
v -1 58 145
v 2 56 144
v -1 54 145
v 14 54 169
v 12 56 172
v 14 58 169
v 19 56 168
v 24 56 175
v 21 54 178
v 16 56 181
v 21 58 178
v -45 50 201
v -49 50 198
v -49 54 198
v -45 54 201
v -41 50 202
v -48 48 206
v -36 50 181
v -30 50 186
v -30 54 186
v -51 56 203
v -48 56 206
v -43 56 207
v -41 54 202
v -43 48 207
v -51 52 206
v -51 48 203
v -56 48 199
v -51 50 195
v -51 54 195
v -36 54 181
v -56 56 199
v -25 50 184
v -27 50 189
v -40 50 178
v -37 50 174
v -37 54 174
v -25 54 184
v -21 50 187
v -21 50 190
v -21 54 190
v -27 54 189
v -40 54 178
v -41 50 173
v -37 50 171
v -37 54 171
v -21 54 187
v -15 50 185
v -15 50 189
v -15 54 189
v -15 54 185
v -42 50 168
v -38 50 166
v -38 54 166
v -41 54 173
v -42 54 168
v 40 52 95
v 25 54 111
v 30 52 110
v 25 50 111
v 28 52 106
v -9 52 149
v -5 54 149
v -4 52 152
v -5 50 149
v -24 50 171
v -27 52 169
v -24 54 171
v -22 52 175
v -27 52 182
v -30 50 180
v -35 52 176
v -30 54 180
v 38 54 232
v 38 54 204
v 39 54 204
v 39 54 232
v -50 54 226
v -50 54 206
v -49 54 206
v -49 54 226

f 1 2 3
f 1 3 4
f 1 4 5
f 1 5 2
f 2 5 6
f 6 5 7
f 7 5 8
f 8 5 4
f 9 10 11
f 9 11 12
f 9 12 13
f 9 13 14
f 9 14 10
f 9 10 15
f 9 15 16
f 9 16 12
f 12 16 17
f 12 17 11
f 12 11 18
f 12 18 19
f 12 19 20
f 12 20 21
f 12 21 13
f 13 21 22
f 13 22 14
f 14 22 20
f 14 20 19
f 14 19 23
f 14 23 24
f 14 24 10
f 10 24 25
f 10 25 26
f 10 26 27
f 10 27 11
f 10 11 28
f 10 28 15
f 22 21 20
f 18 24 23
f 18 23 19
f 11 17 28
f 27 29 18
f 27 18 11
f 26 25 29
f 26 29 27
f 18 29 25
f 18 25 24
f 30 31 32
f 30 32 33
f 30 33 34
f 30 34 35
f 30 35 36
f 30 36 31
f 31 36 37
f 31 37 38
f 31 38 39
f 31 39 32
f 32 39 40
f 32 40 41
f 32 41 33
f 33 41 42
f 33 42 43
f 33 43 34
f 34 43 40
f 34 40 39
f 34 39 35
f 35 39 38
f 35 38 44
f 35 44 36
f 36 44 45
f 36 45 37
f 37 45 46
f 37 46 47
f 37 47 38
f 38 47 44
f 44 47 48
f 44 48 45
f 45 48 46
f 46 48 47
f 42 41 49
f 42 49 50
f 42 50 51
f 42 51 43
f 43 51 52
f 43 52 40
f 40 52 41
f 41 52 49
f 49 52 53
f 49 53 50
f 50 53 51
f 51 53 52
f 54 55 56
f 54 56 57
f 54 57 58
f 54 58 55
f 55 58 59
f 55 59 60
f 55 60 56
f 56 60 61
f 56 61 57
f 57 61 62
f 57 62 58
f 58 62 59
f 59 62 63
f 59 63 64
f 59 64 60
f 60 64 65
f 60 65 61
f 61 65 66
f 61 66 62
f 62 66 63
f 63 66 67
f 63 67 68
f 63 68 64
f 64 68 69
f 64 69 65
f 65 69 70
f 65 70 66
f 66 70 67
f 71 72 73
f 71 73 74
f 71 74 75
f 71 75 76
f 71 76 72
f 71 72 77
f 71 77 78
f 71 78 74
f 74 78 79
f 74 79 73
f 74 73 80
f 74 80 81
f 74 81 82
f 74 82 83
f 74 83 75
f 75 83 84
f 75 84 76
f 76 84 82
f 76 82 81
f 76 81 85
f 76 85 86
f 76 86 72
f 72 86 87
f 72 87 88
f 72 88 89
f 72 89 73
f 72 73 90
f 72 90 77
f 84 83 82
f 80 86 85
f 80 85 81
f 73 79 90
f 89 91 80
f 89 80 73
f 88 87 91
f 88 91 89
f 80 91 87
f 80 87 86
f 92 93 94
f 92 94 95
f 92 95 96
f 92 96 97
f 92 97 98
f 92 98 93
f 93 98 99
f 93 99 100
f 93 100 101
f 93 101 94
f 94 101 102
f 94 102 103
f 94 103 95
f 95 103 104
f 95 104 105
f 95 105 96
f 96 105 102
f 96 102 101
f 96 101 97
f 97 101 100
f 97 100 106
f 97 106 98
f 98 106 107
f 98 107 99
f 99 107 108
f 99 108 109
f 99 109 100
f 100 109 106
f 106 109 110
f 106 110 107
f 107 110 108
f 108 110 109
f 104 103 111
f 104 111 112
f 104 112 113
f 104 113 105
f 105 113 114
f 105 114 102
f 102 114 103
f 103 114 111
f 111 114 115
f 111 115 112
f 112 115 113
f 113 115 114
f 116 117 118
f 116 118 119
f 116 119 120
f 116 120 117
f 117 120 121
f 117 121 122
f 117 122 118
f 118 122 123
f 118 123 119
f 119 123 124
f 119 124 120
f 120 124 121
f 121 124 125
f 121 125 126
f 121 126 122
f 122 126 127
f 122 127 123
f 123 127 128
f 123 128 124
f 124 128 125
f 125 128 129
f 125 129 130
f 125 130 126
f 126 130 131
f 126 131 127
f 127 131 132
f 127 132 128
f 128 132 129
f 133 134 135
f 133 135 136
f 133 136 134
f 134 136 135
f 137 138 139
f 137 139 140
f 137 140 138
f 138 140 139
