# RS2 Model 4325
# Vertices: 144
# Faces: 224

v -56 -82 114
v -48 -119 114
v -14 -124 114
v -17 -92 114
v -58 72 114
v -60 70 104
v -59 -83 104
v -48 -120 104
v -16 -126 104
v -17 -92 104
v -22 69 114
v -50 119 114
v -53 119 104
v -14 123 114
v -17 124 104
v -23 69 104
v -13 123 114
v 18 124 114
v 16 127 104
v -12 125 104
v -19 68 114
v 19 72 114
v 19 72 104
v 17 -73 114
v 17 -73 104
v -19 68 104
v -14 -92 114
v -14 -92 104
v -12 -124 114
v 20 -124 114
v 19 -125 104
v -12 -126 104
v 19 124 114
v 48 119 114
v 51 121 104
v 19 127 104
v 22 72 114
v 62 82 114
v 59 80 104
v 59 -46 114
v 61 -47 104
v 22 72 104
v 19 -74 114
v 19 -74 104
v 22 -123 114
v 53 -118 114
v 53 -118 104
v 23 -124 104
v 7 -115 32
v 23 -115 0
v 37 -115 17
v 20 -115 49
v 8 -115 40
v 1 -115 33
v -1 -115 43
v -12 -115 49
v -29 -115 18
v -20 -115 0
v -20 -105 0
v 1 -105 33
v -12 -105 49
v -1 -105 43
v 7 -105 32
v 8 -105 40
v 20 -105 49
v 23 -105 0
v 6 -115 67
v 35 -115 104
v 22 -115 104
v 22 -105 104
v 6 -105 67
v 2 -115 68
v 0 -115 61
v 7 -115 61
v 7 -117 61
v 8 -117 40
v 0 -117 61
v -1 -117 43
v -17 -115 104
v -34 -115 104
v -34 -105 104
v -29 -105 18
v -37 -115 0
v 44 -115 0
v 44 -105 0
v 37 -105 17
v 35 -105 104
v 7 -105 61
v 2 -105 68
v -17 -105 104
v 0 -105 61
v 0 -64 68
v -1 -64 48
v 0 61 59
v -1 63 40
v 0 103 61
v -1 103 43
v -12 103 49
v 1 103 33
v 8 103 40
v 7 103 32
v 20 103 49
v 7 103 61
v 7 63 60
v 8 63 36
v 7 -64 67
v 8 -64 44
v -37 -105 0
v 6 103 67
v 2 103 68
v -17 103 104
v -34 103 104
v -34 113 104
v -12 113 49
v -29 103 18
v -20 103 0
v -20 113 0
v 1 113 33
v -1 113 43
v 7 113 32
v 8 113 40
v 20 113 49
v 23 113 0
v 23 103 0
v 37 103 17
v 37 113 17
v 35 103 104
v -37 103 0
v -29 113 18
v -37 113 0
v 22 103 104
v 22 113 104
v 6 113 67
v 2 113 68
v -17 113 104
v 0 113 61
v 0 115 61
v -1 115 43
v 7 115 61
v 8 115 40
v 7 113 61
v 35 113 104
v 44 103 0
v 44 113 0

f 1 2 3
f 1 3 4
f 1 4 5
f 1 5 6
f 1 6 7
f 1 7 2
f 2 7 8
f 2 8 3
f 3 8 9
f 3 9 4
f 4 9 10
f 4 10 11
f 4 11 5
f 5 11 12
f 5 12 13
f 5 13 6
f 12 11 14
f 12 14 15
f 12 15 13
f 14 11 16
f 14 16 15
f 11 10 16
f 17 18 19
f 17 19 20
f 17 20 21
f 17 21 22
f 17 22 18
f 18 22 23
f 18 23 19
f 22 24 25
f 22 25 23
f 20 26 21
f 21 26 27
f 21 27 24
f 21 24 22
f 26 28 27
f 27 28 29
f 27 29 30
f 27 30 24
f 24 30 31
f 24 31 25
f 29 28 32
f 29 32 30
f 30 32 31
f 33 34 35
f 33 35 36
f 33 36 37
f 33 37 38
f 33 38 34
f 34 38 39
f 34 39 35
f 38 40 41
f 38 41 39
f 36 42 37
f 37 42 43
f 37 43 40
f 37 40 38
f 42 44 43
f 43 44 45
f 43 45 46
f 43 46 40
f 40 46 47
f 40 47 41
f 45 44 48
f 45 48 46
f 46 48 47
f 49 50 51
f 49 51 52
f 49 52 53
f 49 53 54
f 54 53 55
f 54 55 56
f 54 56 57
f 54 57 58
f 54 58 59
f 54 59 60
f 60 59 61
f 60 61 62
f 60 62 63
f 63 62 64
f 63 64 65
f 63 65 66
f 63 66 50
f 63 50 49
f 67 52 68
f 67 68 69
f 67 69 70
f 67 70 71
f 67 71 72
f 67 72 73
f 67 73 74
f 67 74 52
f 52 74 53
f 53 74 75
f 53 75 76
f 76 75 77
f 76 77 78
f 78 77 73
f 78 73 55
f 55 73 56
f 56 73 72
f 56 72 79
f 56 79 80
f 56 80 81
f 56 81 61
f 56 61 57
f 57 61 82
f 57 82 83
f 57 83 58
f 51 50 84
f 51 84 85
f 51 85 86
f 51 86 52
f 52 86 65
f 52 65 68
f 68 65 87
f 87 65 70
f 70 65 71
f 71 65 88
f 71 88 89
f 71 89 72
f 72 89 79
f 79 89 90
f 90 89 81
f 81 89 61
f 61 89 91
f 61 91 62
f 62 91 92
f 62 92 93
f 93 92 94
f 93 94 95
f 95 94 96
f 95 96 97
f 97 96 98
f 97 98 99
f 97 99 100
f 100 99 101
f 100 101 102
f 100 102 103
f 100 103 104
f 100 104 105
f 105 104 106
f 105 106 107
f 107 106 88
f 107 88 64
f 64 88 65
f 65 86 66
f 66 86 85
f 61 59 82
f 82 59 108
f 82 108 83
f 89 88 91
f 91 88 106
f 91 106 92
f 92 106 104
f 92 104 94
f 94 104 103
f 94 103 96
f 96 103 109
f 96 109 110
f 96 110 98
f 98 110 111
f 98 111 112
f 98 112 113
f 98 113 114
f 98 114 115
f 98 115 99
f 99 115 116
f 99 116 117
f 99 117 118
f 118 117 114
f 118 114 119
f 118 119 120
f 120 119 121
f 120 121 122
f 120 122 123
f 120 123 124
f 120 124 101
f 101 124 125
f 101 125 102
f 102 125 126
f 102 126 122
f 102 122 127
f 102 127 109
f 102 109 103
f 77 75 74
f 77 74 73
f 128 115 129
f 128 129 130
f 130 129 117
f 117 129 114
f 114 129 115
f 109 131 132
f 109 132 133
f 109 133 110
f 110 133 134
f 110 134 111
f 111 134 135
f 135 134 113
f 113 134 114
f 114 134 136
f 114 136 119
f 119 136 137
f 119 137 138
f 138 137 139
f 138 139 140
f 140 139 141
f 140 141 121
f 121 141 122
f 122 141 133
f 122 133 132
f 122 132 142
f 122 142 127
f 125 143 144
f 125 144 126
f 126 144 123
f 126 123 122
f 136 141 139
f 136 139 137
f 134 133 141
f 134 141 136
f 109 127 131
f 125 124 143
f 116 115 128
