# RS2 Model 4334
# Vertices: 64
# Faces: 104

v -45 -64 232
v -45 -64 32
v -45 -37 84
v -45 -24 216
v -45 -64 264
v -61 -64 264
v -61 -64 232
v -61 -64 32
v -45 -64 0
v -45 -27 0
v -61 -26 0
v -61 -37 85
v -61 -24 216
v -45 -32 264
v -61 -32 264
v -61 -64 0
v -48 -29 264
v -48 -18 219
v -48 0 222
v -48 2 264
v -64 2 264
v -64 -29 264
v -64 -17 222
v -48 -31 76
v -48 -3 82
v -64 0 84
v -64 1 216
v -48 -24 0
v -48 5 0
v -64 5 0
v -64 -24 0
v -64 -29 73
v -45 4 264
v -45 6 183
v -45 40 224
v -45 30 264
v -61 30 264
v -61 4 264
v -61 6 186
v -45 6 78
v -45 35 69
v -61 35 67
v -61 41 222
v -45 7 0
v -45 35 0
v -61 35 0
v -61 7 0
v -61 7 77
v -48 32 264
v -48 48 219
v -48 63 187
v -48 64 264
v -64 64 264
v -64 32 264
v -64 47 212
v -48 41 72
v -48 64 56
v -64 64 56
v -64 63 187
v -48 37 0
v -48 64 0
v -64 64 0
v -64 37 0
v -64 41 72

f 1 2 3
f 1 3 4
f 1 4 5
f 1 5 6
f 1 6 7
f 1 7 2
f 2 7 8
f 2 8 9
f 2 9 10
f 2 10 3
f 3 10 11
f 3 11 12
f 3 12 4
f 4 12 13
f 4 13 14
f 4 14 5
f 5 14 15
f 5 15 6
f 6 15 7
f 7 15 13
f 7 13 8
f 8 13 12
f 8 12 16
f 8 16 9
f 17 18 19
f 17 19 20
f 17 20 21
f 17 21 22
f 17 22 18
f 18 22 23
f 18 23 24
f 18 24 25
f 18 25 19
f 19 25 26
f 19 26 27
f 19 27 20
f 20 27 21
f 21 27 23
f 21 23 22
f 24 28 29
f 24 29 25
f 25 29 30
f 25 30 26
f 26 30 31
f 26 31 32
f 26 32 27
f 27 32 23
f 23 32 24
f 24 32 28
f 28 32 31
f 33 34 35
f 33 35 36
f 33 36 37
f 33 37 38
f 33 38 34
f 34 38 39
f 34 39 40
f 34 40 41
f 34 41 35
f 35 41 42
f 35 42 43
f 35 43 36
f 36 43 37
f 37 43 39
f 37 39 38
f 40 44 45
f 40 45 41
f 41 45 46
f 41 46 42
f 42 46 47
f 42 47 48
f 42 48 43
f 43 48 39
f 39 48 40
f 40 48 44
f 44 48 47
f 49 50 51
f 49 51 52
f 49 52 53
f 49 53 54
f 49 54 50
f 50 54 55
f 50 55 56
f 50 56 57
f 50 57 51
f 51 57 58
f 51 58 59
f 51 59 52
f 52 59 53
f 53 59 55
f 53 55 54
f 56 60 61
f 56 61 57
f 57 61 62
f 57 62 58
f 58 62 63
f 58 63 64
f 58 64 59
f 59 64 55
f 55 64 56
f 56 64 60
f 60 64 63
f 12 11 16
f 14 13 15
