# RS2 Model 443
# Vertices: 118
# Faces: 210

v 18 0 78
v 10 -6 55
v 16 0 55
v 8 7 55
v 10 9 76
v 12 10 90
v 20 1 96
v 10 -9 79
v 2 2 77
v 3 1 55
v 10 -5 45
v 17 1 46
v 9 10 45
v 2 2 45
v 0 0 95
v 0 13 97
v 10 14 107
v 19 0 105
v 10 -11 92
v 2 -6 90
v 3 -7 99
v -3 -7 99
v -2 -6 90
v -2 2 77
v -10 9 76
v -12 10 90
v -10 14 107
v 0 16 107
v 9 12 116
v 16 3 115
v 10 -9 105
v 4 2 32
v 9 -4 32
v 15 2 31
v 8 11 34
v 8 9 19
v 5 2 19
v 8 -2 19
v 13 2 19
v -18 0 78
v -16 0 55
v -10 -6 55
v -10 -9 79
v -20 1 96
v -8 7 55
v -17 1 46
v -10 -5 45
v -3 1 55
v -10 -11 92
v -19 0 105
v -2 2 45
v -9 10 45
v -15 2 31
v -9 -4 32
v -4 2 32
v -8 11 34
v -8 9 19
v -13 2 19
v -8 -2 19
v -5 2 19
v -10 -9 105
v 0 -10 105
v -11 -7 112
v -16 3 115
v 14 2 119
v 8 -7 117
v 10 -8 116
v 16 2 118
v 8 10 119
v 9 11 118
v 0 13 118
v 0 12 119
v -9 11 118
v -8 10 119
v -16 2 118
v -14 2 119
v -10 -8 116
v -8 -7 117
v 0 -10 115
v 0 -9 116
v 11 -8 113
v 17 3 116
v 9 12 117
v 0 14 117
v -9 12 117
v -17 3 116
v -11 -8 113
v 0 -10 112
v 0 -9 111
v 11 -7 112
v 0 14 116
v -9 12 116
v 11 -10 107
v 5 -13 107
v 8 -10 100
v 4 -13 100
v 6 -13 94
v 0 -12 99
v 0 -15 93
v -5 -14 94
v -3 -13 99
v -7 -10 99
v -5 -13 107
v -11 -10 107
v 0 -12 107
v 4 18 108
v 0 17 108
v -4 18 108
v -10 15 108
v -8 15 102
v -4 18 101
v -5 18 96
v 0 17 101
v 0 19 95
v 5 18 96
v 4 18 102
v 7 15 102
v 10 15 108

f 1 2 3
f 1 3 4
f 1 4 5
f 1 5 6
f 1 6 7
f 1 7 8
f 1 8 2
f 2 8 9
f 2 9 10
f 2 10 11
f 2 11 12
f 2 12 3
f 3 12 4
f 4 12 13
f 4 13 14
f 4 14 10
f 4 10 5
f 5 10 9
f 5 9 15
f 5 15 6
f 6 15 16
f 6 16 17
f 6 17 7
f 7 17 18
f 7 18 19
f 7 19 8
f 8 19 20
f 8 20 9
f 9 20 15
f 15 20 21
f 15 21 22
f 15 22 23
f 15 23 24
f 15 24 25
f 15 25 26
f 15 26 16
f 16 26 27
f 16 27 28
f 16 28 17
f 17 28 29
f 17 29 18
f 18 29 30
f 18 30 31
f 18 31 19
f 19 31 21
f 19 21 20
f 10 14 11
f 11 14 32
f 11 32 33
f 11 33 12
f 12 33 34
f 12 34 13
f 13 34 35
f 13 35 14
f 14 35 32
f 32 35 36
f 32 36 37
f 32 37 33
f 33 37 38
f 33 38 34
f 34 38 39
f 34 39 35
f 35 39 36
f 40 41 42
f 40 42 43
f 40 43 44
f 40 44 26
f 40 26 25
f 40 25 45
f 40 45 41
f 41 45 46
f 41 46 42
f 42 46 47
f 42 47 48
f 42 48 24
f 42 24 43
f 43 24 23
f 43 23 49
f 43 49 44
f 44 49 50
f 44 50 27
f 44 27 26
f 25 24 48
f 25 48 45
f 45 48 51
f 45 51 52
f 45 52 46
f 46 52 53
f 46 53 54
f 46 54 47
f 47 54 55
f 47 55 51
f 47 51 48
f 56 53 52
f 56 52 51
f 56 51 55
f 56 55 57
f 56 57 58
f 56 58 53
f 53 58 59
f 53 59 54
f 54 59 60
f 54 60 55
f 55 60 57
f 61 22 62
f 61 62 63
f 61 63 64
f 61 64 50
f 61 50 49
f 61 49 22
f 22 49 23
f 65 66 67
f 65 67 68
f 65 68 69
f 69 68 70
f 69 70 71
f 69 71 72
f 72 71 73
f 72 73 74
f 74 73 75
f 74 75 76
f 76 75 77
f 76 77 78
f 78 77 79
f 78 79 80
f 80 79 66
f 66 79 67
f 67 79 81
f 67 81 82
f 67 82 68
f 68 82 83
f 68 83 70
f 70 83 84
f 70 84 71
f 71 84 85
f 71 85 73
f 73 85 86
f 73 86 75
f 75 86 87
f 75 87 77
f 77 87 88
f 77 88 79
f 79 88 81
f 81 88 89
f 81 89 90
f 81 90 82
f 82 90 30
f 82 30 83
f 83 30 29
f 83 29 84
f 84 29 91
f 84 91 85
f 85 91 92
f 85 92 86
f 86 92 64
f 86 64 63
f 86 63 87
f 87 63 89
f 87 89 88
f 31 30 90
f 31 90 62
f 31 62 21
f 21 62 22
f 62 90 89
f 62 89 63
f 28 91 29
f 91 28 92
f 92 28 27
f 92 27 50
f 92 50 64
f 93 90 94
f 93 94 95
f 95 94 96
f 95 96 97
f 97 96 98
f 97 98 99
f 99 98 100
f 100 98 101
f 100 101 102
f 102 101 103
f 102 103 104
f 104 103 63
f 63 103 89
f 89 103 105
f 89 105 94
f 89 94 90
f 91 29 106
f 91 106 107
f 91 107 108
f 91 108 92
f 92 108 109
f 109 108 110
f 110 108 111
f 110 111 112
f 112 111 113
f 112 113 114
f 114 113 115
f 115 113 116
f 115 116 117
f 117 116 106
f 117 106 118
f 118 106 29
f 116 113 107
f 116 107 106
f 105 103 101
f 105 101 98
f 105 98 96
f 105 96 94
f 107 113 111
f 107 111 108
