# RS2 Model 4431
# Vertices: 24
# Faces: 32

v -64 -64 112
v 64 -32 112
v -64 -32 112
v -64 -32 80
v -64 -64 0
v -64 0 48
v -64 32 16
v -64 64 0
v -64 64 16
v 64 64 0
v 64 64 16
v 64 32 16
v 64 -64 0
v 64 0 48
v 64 -32 80
v 64 -64 112
v 64 0 80
v -64 0 80
v 64 32 48
v -64 32 48
v -64 -320 0
v -64 -320 240
v 64 64 240
v 64 -320 0

f 1 2 3
f 1 3 4
f 1 4 5
f 5 4 6
f 5 6 7
f 5 7 8
f 8 7 9
f 8 9 10
f 10 9 11
f 10 11 12
f 10 12 13
f 13 12 14
f 13 14 15
f 13 15 16
f 16 15 2
f 16 2 1
f 4 15 17
f 4 17 18
f 4 18 6
f 6 18 14
f 6 14 19
f 6 19 20
f 6 20 7
f 7 20 12
f 7 12 11
f 7 11 9
f 18 17 14
f 14 17 15
f 3 2 15
f 3 15 4
f 20 19 12
f 12 19 14
