# RS2 Model 4435
# Vertices: 57
# Faces: 116

v -58 -53 236
v -58 -53 230
v -58 56 230
v -58 56 236
v -63 -53 236
v -63 -53 230
v -63 56 230
v -63 56 236
v -56 -53 116
v -56 -53 110
v -56 56 110
v -56 56 116
v -61 -53 116
v -61 -53 110
v -61 56 110
v -61 56 116
v -61 -16 210
v -61 -19 225
v -61 -40 230
v -61 -37 214
v -54 -15 185
v -54 2 191
v -61 3 209
v -61 2 224
v -54 -35 175
v -61 25 214
v -61 24 226
v -54 24 192
v -55 40 192
v -61 43 216
v -61 45 229
v -54 2 155
v -54 23 158
v -54 39 155
v -59 3 125
v -59 25 124
v -59 45 117
v -55 -15 148
v -59 -34 132
v -59 -14 123
v -59 -38 116
v -52 21 168
v -52 30 163
v -52 27 171
v -53 15 196
v -52 18 158
v -52 18 166
v -52 6 168
v -52 9 176
v -52 -2 176
v -52 1 168
v -52 -11 166
v -52 -11 158
v -52 -23 163
v -52 -14 168
v -52 -20 171
v -53 -8 196

f 1 2 3
f 1 3 4
f 1 4 5
f 1 5 2
f 2 5 6
f 2 6 7
f 2 7 3
f 3 7 4
f 4 7 8
f 4 8 5
f 5 8 6
f 6 8 7
f 9 10 11
f 9 11 12
f 9 12 13
f 9 13 10
f 10 13 14
f 10 14 15
f 10 15 11
f 11 15 12
f 12 15 16
f 12 16 13
f 13 16 14
f 14 16 15
f 17 18 19
f 17 19 20
f 17 20 21
f 17 21 22
f 17 22 23
f 17 23 18
f 17 18 24
f 17 24 23
f 17 23 21
f 17 21 25
f 17 25 20
f 17 20 18
f 18 20 19
f 23 24 18
f 24 23 26
f 24 26 27
f 24 27 23
f 23 27 26
f 23 26 22
f 23 22 28
f 23 28 26
f 26 28 29
f 26 29 30
f 26 30 27
f 26 27 31
f 26 31 30
f 26 30 28
f 26 28 22
f 22 28 32
f 22 32 33
f 22 33 28
f 28 33 34
f 28 34 29
f 28 29 33
f 28 33 32
f 32 33 35
f 32 35 36
f 32 36 33
f 33 36 37
f 33 37 34
f 33 34 36
f 33 36 35
f 27 30 31
f 21 20 25
f 21 25 38
f 21 38 32
f 21 32 22
f 21 22 38
f 21 38 39
f 21 39 25
f 25 39 38
f 38 39 40
f 38 40 35
f 38 35 32
f 38 32 40
f 38 40 41
f 38 41 39
f 39 41 40
f 42 43 44
f 42 44 45
f 42 45 44
f 42 44 43
f 42 43 46
f 42 46 47
f 42 47 43
f 43 47 46
f 46 47 48
f 46 48 49
f 46 49 47
f 47 49 48
f 48 49 50
f 48 50 51
f 48 51 49
f 49 51 50
f 50 51 52
f 50 52 53
f 50 53 51
f 51 53 52
f 52 53 54
f 52 54 55
f 52 55 53
f 53 55 54
f 54 55 56
f 54 56 55
f 55 56 57
f 55 57 56
f 21 23 22
f 30 29 28
f 38 22 32
f 29 34 33
f 40 32 35
f 34 37 36
