# RS2 Model 4439
# Vertices: 128
# Faces: 173

v -61 -56 216
v -61 -56 136
v -61 56 136
v -61 56 216
v -58 56 136
v -58 56 216
v -58 64 224
v -58 -64 224
v -58 -56 216
v -58 -64 128
v -58 -56 136
v -58 64 128
v -64 64 128
v -64 64 224
v -64 -64 224
v -64 -64 128
v -59 -28 189
v -59 -25 187
v -59 -26 190
v -59 -29 198
v -59 -28 188
v -59 -28 186
v -59 -31 191
v -59 -32 189
v -59 -35 191
v -59 -34 189
v -59 -37 186
v -59 -37 188
v -59 -38 189
v -59 -41 187
v -59 -40 190
v -59 -37 198
v -81 -66 180
v -37 -59 180
v -81 59 180
v -60 28 201
v -60 27 206
v -60 20 207
v -60 21 202
v -60 28 193
v -60 33 195
v -59 33 201
v -60 33 205
v -60 26 208
v -60 18 209
v -60 19 203
v -60 20 189
v -60 22 190
v -60 28 183
v -60 33 185
v -60 39 186
v -60 40 195
v -60 40 202
v -60 40 206
v -60 40 208
v -60 33 207
v -60 46 203
v -60 46 207
v -60 48 209
v -60 45 195
v -60 47 203
v -60 22 178
v -60 28 175
v -60 33 175
v -60 40 175
v -60 46 173
v -60 44 185
v -60 46 195
v -60 21 173
v -60 28 173
v -60 33 174
v -60 40 173
v -60 48 170
v -60 46 184
v -59 33 182
v -59 35 189
v -59 33 191
v -59 31 189
v -59 26 191
v -59 31 194
v -59 35 194
v -59 41 191
v -60 19 170
v -60 20 177
v -60 -45 173
v -60 -47 170
v -60 -38 173
v -60 -38 175
v -60 -44 178
v -60 -46 177
v -60 -45 191
v -60 -46 189
v -60 -45 203
v -60 -47 204
v -60 -46 208
v -60 -47 209
v -60 -40 207
v -60 -41 208
v -60 -33 206
v -60 -33 208
v -60 -26 208
v -60 -27 207
v -60 -18 209
v -60 -20 208
v -60 -21 204
v -60 -20 203
v -60 -22 196
v -60 -20 196
v -60 -22 185
v -60 -20 184
v -60 -20 173
v -60 -18 170
v -60 -26 175
v -60 -26 173
v -60 -33 176
v -60 -33 174
v -60 -39 202
v -60 -39 194
v -60 -33 196
v -60 -33 202
v -60 -26 203
v -60 -27 196
v -60 -39 183
v -60 -33 185
v -60 -27 186
v -59 -37 143
v -59 36 143
v -59 -37 203

f 1 2 3
f 1 3 4
f 4 3 5
f 4 5 6
f 6 5 7
f 6 7 8
f 6 8 9
f 9 8 10
f 9 10 11
f 9 11 2
f 9 2 1
f 10 12 5
f 10 5 11
f 11 5 3
f 11 3 2
f 5 12 7
f 7 12 13
f 7 13 14
f 7 14 8
f 8 14 15
f 8 15 10
f 10 15 16
f 17 18 19
f 17 19 20
f 21 22 18
f 21 18 17
f 21 23 24
f 21 24 22
f 25 26 24
f 25 24 23
f 27 26 25
f 27 25 28
f 27 28 29
f 27 29 30
f 30 29 31
f 31 29 32
f 33 34 35
f 36 37 38
f 36 38 39
f 36 39 40
f 36 40 41
f 36 41 42
f 36 42 37
f 37 42 43
f 37 43 44
f 37 44 45
f 37 45 38
f 38 45 46
f 38 46 39
f 39 46 47
f 39 47 48
f 39 48 40
f 40 48 49
f 40 49 50
f 40 50 41
f 41 50 51
f 41 51 52
f 41 52 42
f 42 52 53
f 42 53 43
f 43 53 54
f 43 54 55
f 43 55 56
f 43 56 44
f 54 53 57
f 54 57 58
f 54 58 59
f 54 59 55
f 53 52 60
f 53 60 57
f 57 60 61
f 57 61 59
f 57 59 58
f 49 48 62
f 49 62 63
f 49 63 64
f 49 64 50
f 50 64 65
f 50 65 51
f 51 65 66
f 51 66 67
f 51 67 52
f 52 67 60
f 60 67 68
f 60 68 61
f 63 62 69
f 63 69 70
f 63 70 71
f 63 71 64
f 64 71 72
f 64 72 65
f 65 72 73
f 65 73 66
f 66 73 74
f 66 74 67
f 67 74 68
f 75 76 77
f 75 77 78
f 78 77 79
f 79 77 80
f 80 77 42
f 42 77 81
f 81 77 76
f 81 76 82
f 69 83 70
f 83 69 62
f 83 62 84
f 84 62 48
f 84 48 47
f 85 86 87
f 85 87 88
f 85 88 89
f 85 89 86
f 86 89 90
f 90 89 91
f 90 91 92
f 92 91 93
f 92 93 94
f 94 93 95
f 94 95 96
f 96 95 97
f 96 97 98
f 98 97 99
f 98 99 100
f 100 99 101
f 101 99 102
f 101 102 103
f 103 102 104
f 103 104 105
f 103 105 106
f 106 105 107
f 106 107 108
f 108 107 109
f 108 109 110
f 110 109 111
f 110 111 112
f 112 111 113
f 112 113 114
f 114 113 115
f 114 115 116
f 116 115 88
f 116 88 87
f 117 97 95
f 117 95 93
f 117 93 118
f 117 118 119
f 117 119 120
f 117 120 97
f 97 120 99
f 99 120 121
f 99 121 102
f 102 121 105
f 102 105 104
f 121 122 107
f 121 107 105
f 120 119 122
f 120 122 121
f 118 93 91
f 118 91 123
f 118 123 124
f 118 124 119
f 119 124 125
f 119 125 122
f 122 125 109
f 122 109 107
f 123 91 89
f 123 89 88
f 123 88 115
f 123 115 124
f 124 115 113
f 124 113 125
f 125 113 111
f 125 111 109
