# RS2 Model 4494
# Vertices: 141
# Faces: 168

v -2 -38 32
v -8 -31 32
v -13 -36 0
v -8 -43 0
v 3 -27 67
v -23 33 38
v -32 33 38
v -32 26 0
v -23 26 0
v -28 51 81
v 6 30 30
v 0 32 30
v -3 26 0
v 5 23 0
v 5 42 62
v -24 -12 44
v -17 -18 44
v -12 -12 0
v -19 -6 0
v -29 -24 89
v -33 9 34
v -33 19 34
v -41 18 0
v -40 10 0
v -16 16 69
v 11 -14 23
v 15 -8 23
v 11 -4 0
v 5 -11 0
v 22 -18 46
v 12 -37 23
v 17 -31 23
v 12 -26 0
v 6 -33 0
v 23 -41 47
v 9 6 23
v 8 14 23
v 1 15 0
v 1 5 0
v 23 11 48
v 43 42 16
v 39 36 16
v 44 32 0
v 48 38 0
v 29 47 33
v -35 -42 36
v -30 -34 36
v -36 -30 0
v -42 -37 0
v -21 -47 73
v 38 -18 15
v 30 -18 15
v 29 -25 0
v 39 -25 0
v 33 -4 31
v 37 18 20
v 34 26 20
v 28 24 0
v 31 16 0
v 49 28 41
v 44 -43 18
v 47 -37 18
v 41 -33 0
v 37 -41 0
v 55 -45 36
v -29 -56 42
v -38 -53 42
v -41 -60 0
v -33 -63 0
v -30 -45 89
v 23 -56 21
v 30 -50 21
v 26 -45 0
v 20 -49 0
v 33 -62 44
v 50 -8 18
v 49 -2 18
v 42 -2 0
v 44 -11 0
v 60 -3 36
v -2 57 27
v 4 57 27
v 5 64 0
v -3 64 0
v 0 46 55
v -6 8 29
v -12 10 29
v -16 7 0
v -9 1 0
v -2 19 56
v 54 52 19
v 51 59 19
v 44 55 0
v 48 47 0
v 63 62 37
v 50 -60 21
v 54 -52 21
v 49 -48 0
v 44 -56 0
v 61 -61 44
v -1 -64 27
v 2 -57 27
v -5 -53 0
v -9 -62 0
v 11 -64 55
v 63 -25 18
v 57 -22 18
v 53 -29 0
v 62 -33 0
v 64 -13 36
v 61 36 18
v 54 35 18
v 55 27 0
v 64 29 0
v 54 46 36
v 26 53 18
v 24 59 18
v 16 57 0
v 20 49 0
v 35 61 36
v -31 56 36
v -31 63 36
v -39 63 0
v -38 54 0
v -20 62 73
v 59 11 18
v 54 14 18
v 49 10 0
v 57 5 0
v 63 22 36
v -34 -12 34
v -29 -6 34
v -35 -1 0
v -40 -7 0
v -23 -18 69
v -34 38 36
v -34 46 36
v -41 46 0
v -41 38 0
v -22 42 73
v -64 68 0

f 1 2 3
f 1 3 4
f 1 4 2
f 1 2 5
f 1 5 2
f 4 3 2
f 6 7 8
f 6 8 9
f 6 9 7
f 6 7 10
f 6 10 7
f 9 8 7
f 11 12 13
f 11 13 14
f 11 14 12
f 11 12 15
f 11 15 12
f 14 13 12
f 16 17 18
f 16 18 19
f 16 19 17
f 16 17 20
f 16 20 17
f 19 18 17
f 21 22 23
f 21 23 24
f 21 24 22
f 21 22 25
f 21 25 22
f 24 23 22
f 26 27 28
f 26 28 29
f 26 29 27
f 26 27 30
f 26 30 27
f 29 28 27
f 31 32 33
f 31 33 34
f 31 34 32
f 31 32 35
f 31 35 32
f 34 33 32
f 36 37 38
f 36 38 39
f 36 39 37
f 36 37 40
f 36 40 37
f 39 38 37
f 41 42 43
f 41 43 44
f 41 44 42
f 41 42 45
f 41 45 42
f 44 43 42
f 46 47 48
f 46 48 49
f 46 49 47
f 46 47 50
f 46 50 47
f 49 48 47
f 51 52 53
f 51 53 54
f 51 54 52
f 51 52 55
f 51 55 52
f 54 53 52
f 56 57 58
f 56 58 59
f 56 59 57
f 56 57 60
f 56 60 57
f 59 58 57
f 61 62 63
f 61 63 64
f 61 64 62
f 61 62 65
f 61 65 62
f 64 63 62
f 66 67 68
f 66 68 69
f 66 69 67
f 66 67 70
f 66 70 67
f 69 68 67
f 71 72 73
f 71 73 74
f 71 74 72
f 71 72 75
f 71 75 72
f 74 73 72
f 76 77 78
f 76 78 79
f 76 79 77
f 76 77 80
f 76 80 77
f 79 78 77
f 81 82 83
f 81 83 84
f 81 84 82
f 81 82 85
f 81 85 82
f 84 83 82
f 86 87 88
f 86 88 89
f 86 89 87
f 86 87 90
f 86 90 87
f 89 88 87
f 91 92 93
f 91 93 94
f 91 94 92
f 91 92 95
f 91 95 92
f 94 93 92
f 96 97 98
f 96 98 99
f 96 99 97
f 96 97 100
f 96 100 97
f 99 98 97
f 101 102 103
f 101 103 104
f 101 104 102
f 101 102 105
f 101 105 102
f 104 103 102
f 106 107 108
f 106 108 109
f 106 109 107
f 106 107 110
f 106 110 107
f 109 108 107
f 111 112 113
f 111 113 114
f 111 114 112
f 111 112 115
f 111 115 112
f 114 113 112
f 116 117 118
f 116 118 119
f 116 119 117
f 116 117 120
f 116 120 117
f 119 118 117
f 121 122 123
f 121 123 124
f 121 124 122
f 121 122 125
f 121 125 122
f 124 123 122
f 126 127 128
f 126 128 129
f 126 129 127
f 126 127 130
f 126 130 127
f 129 128 127
f 131 132 133
f 131 133 134
f 131 134 132
f 131 132 135
f 131 135 132
f 134 133 132
f 136 137 138
f 136 138 139
f 136 139 137
f 136 137 140
f 136 140 137
f 139 138 137
