# RS2 Model 44958
# Vertices: 127
# Faces: 248

v -8 14 170
v -10 10 167
v -7 8 173
v -6 11 173
v 0 13 174
v 0 16 172
v 0 10 167
v -4 5 166
v -4 4 171
v -7 4 176
v -8 6 179
v -7 12 184
v 0 16 184
v 6 11 173
v 8 14 170
v 10 10 167
v 4 5 166
v 4 4 171
v 0 -3 169
v 0 0 163
v -3 0 171
v -6 -2 172
v -7 2 176
v -9 4 176
v -10 6 179
v -9 6 181
v -9 4 182
v -11 3 186
v -9 11 188
v 0 15 189
v 9 11 188
v 7 12 184
v 7 8 173
v 7 4 176
v 3 0 171
v 2 -6 169
v 0 -8 169
v -2 -6 169
v -3 -8 173
v -7 -5 178
v -9 -2 177
v -8 1 177
v -9 2 181
v -9 4 179
v -10 6 181
v -10 4 182
v -11 0 186
v -8 2 192
v -7 9 193
v 0 12 193
v 7 9 193
v 8 2 192
v 11 3 186
v 9 4 182
v 9 6 181
v 8 6 179
v 9 4 176
v 7 2 176
v 6 -2 172
v 3 -8 173
v 0 -10 173
v -2 6 196
v -2 1 194
v 2 1 194
v 2 6 196
v -9 -4 182
v -10 -2 182
v -9 -6 187
v -8 -4 182
v -7 -4 185
v -6 -6 187
v -8 -10 185
v -6 -10 190
v -7 -6 193
v 0 -12 193
v 0 -7 195
v -2 -3 194
v -8 -2 192
v 2 -3 194
v 8 -2 192
v -3 -12 186
v 0 -14 187
v 3 -12 186
v 6 -10 190
v 7 -6 193
v -5 -12 185
v -5 -11 182
v -4 -8 186
v 0 -10 185
v 0 -12 183
v 4 -8 186
v 5 -11 182
v 5 -12 185
v 8 -10 185
v 9 -6 187
v 11 0 186
v -4 -9 184
v 0 -11 183
v 4 -9 184
v 6 -6 187
v -2 -8 182
v 0 -10 181
v 2 -8 182
v 5 -7 183
v 7 -6 184
v 7 -4 185
v -5 -7 183
v -5 -7 180
v -2 -9 176
v 0 -12 177
v 2 -9 176
v 5 -7 180
v 7 -5 182
v 8 -4 182
v 9 -4 182
v 10 -2 182
v 9 2 181
v -7 -5 182
v -7 -6 184
v 0 -10 175
v 7 -5 178
v 9 -2 177
v 8 1 177
v 9 4 179
v 10 4 182
v 10 6 181
v 10 6 179

f 1 2 3
f 1 3 4
f 1 4 5
f 1 5 6
f 1 6 7
f 1 7 2
f 2 7 8
f 2 8 9
f 2 9 3
f 3 9 10
f 3 10 11
f 3 11 12
f 3 12 4
f 4 12 13
f 4 13 5
f 5 13 14
f 5 14 15
f 5 15 6
f 6 15 7
f 7 15 16
f 7 16 17
f 17 16 18
f 17 18 19
f 17 19 20
f 20 19 8
f 8 19 9
f 9 19 21
f 9 21 10
f 10 21 22
f 10 22 23
f 10 23 24
f 10 24 11
f 11 24 25
f 11 25 26
f 11 26 12
f 12 26 27
f 12 27 28
f 12 28 29
f 12 29 13
f 13 29 30
f 13 30 31
f 13 31 32
f 13 32 14
f 14 32 33
f 14 33 15
f 15 33 16
f 16 33 18
f 18 33 34
f 18 34 35
f 18 35 19
f 19 35 36
f 19 36 37
f 19 37 38
f 19 38 21
f 21 38 22
f 22 38 39
f 22 39 40
f 22 40 41
f 22 41 42
f 22 42 23
f 23 42 43
f 23 43 44
f 23 44 24
f 24 44 25
f 25 44 45
f 25 45 26
f 26 45 27
f 27 45 46
f 27 46 43
f 27 43 28
f 28 43 47
f 28 47 48
f 28 48 29
f 29 48 49
f 29 49 30
f 30 49 50
f 30 50 51
f 30 51 31
f 31 51 52
f 31 52 53
f 31 53 32
f 32 53 54
f 32 54 55
f 32 55 56
f 32 56 33
f 33 56 34
f 34 56 57
f 34 57 58
f 34 58 59
f 34 59 35
f 35 59 36
f 36 59 60
f 36 60 37
f 37 60 61
f 37 61 39
f 37 39 38
f 62 48 63
f 62 63 64
f 62 64 65
f 62 65 50
f 62 50 49
f 62 49 48
f 41 66 67
f 41 67 43
f 41 43 42
f 68 67 66
f 68 66 69
f 68 69 70
f 68 70 71
f 68 71 72
f 68 72 73
f 68 73 74
f 68 74 47
f 68 47 67
f 67 47 43
f 74 73 75
f 74 75 76
f 74 76 77
f 74 77 78
f 74 78 47
f 47 78 48
f 48 78 63
f 63 78 77
f 63 77 64
f 64 77 79
f 64 79 80
f 64 80 52
f 64 52 65
f 65 52 51
f 65 51 50
f 75 81 82
f 75 82 83
f 75 83 84
f 75 84 85
f 75 85 76
f 76 85 79
f 76 79 77
f 73 81 75
f 81 73 86
f 81 86 87
f 81 87 88
f 81 88 89
f 81 89 90
f 81 90 82
f 82 90 83
f 83 90 89
f 83 89 91
f 83 91 92
f 83 92 93
f 83 93 84
f 84 93 94
f 84 94 95
f 84 95 85
f 85 95 96
f 85 96 80
f 85 80 79
f 89 97 98
f 89 98 99
f 89 99 91
f 91 99 100
f 91 100 94
f 91 94 92
f 92 94 93
f 97 101 98
f 98 101 102
f 98 102 103
f 98 103 99
f 99 103 104
f 99 104 105
f 99 105 100
f 100 105 106
f 100 106 95
f 100 95 94
f 97 107 101
f 101 107 108
f 101 108 109
f 101 109 102
f 102 109 110
f 102 110 111
f 102 111 103
f 103 111 112
f 103 112 104
f 104 112 113
f 104 113 105
f 105 113 114
f 105 114 106
f 106 114 95
f 95 114 115
f 95 115 116
f 95 116 96
f 96 116 117
f 96 117 53
f 96 53 52
f 96 52 80
f 118 107 119
f 118 119 69
f 118 69 40
f 118 40 108
f 118 108 107
f 108 40 109
f 109 40 39
f 109 39 61
f 109 61 120
f 109 120 110
f 110 120 111
f 111 120 61
f 111 61 60
f 111 60 121
f 111 121 112
f 112 121 113
f 113 121 114
f 114 121 115
f 115 121 122
f 115 122 116
f 116 122 117
f 117 122 123
f 117 123 58
f 117 58 124
f 117 124 125
f 117 125 54
f 117 54 53
f 88 97 89
f 97 88 71
f 97 71 119
f 97 119 107
f 70 119 71
f 119 70 69
f 46 44 43
f 44 46 45
f 66 41 40
f 66 40 69
f 87 72 88
f 88 72 71
f 73 72 86
f 86 72 87
f 121 60 59
f 121 59 122
f 122 59 123
f 123 59 58
f 126 125 124
f 126 124 127
f 126 127 55
f 126 55 54
f 126 54 125
f 57 127 124
f 57 124 58
f 57 56 127
f 127 56 55
