# RS2 Model 4586
# Vertices: 87
# Faces: 138

v 9 -64 142
v 22 -64 142
v -11 -31 142
v -17 -38 142
v 9 -64 137
v -17 -38 137
v -24 -39 142
v -24 -39 137
v -19 -35 132
v -11 -31 137
v -12 -30 132
v -12 -24 132
v -9 -24 137
v 22 -64 137
v 65 -65 0
v 64 -64 0
v 64 64 0
v 65 65 0
v -65 65 0
v -64 64 0
v -65 -65 0
v -64 -64 0
v -26 -20 151
v -29 -22 151
v -22 -24 153
v -22 -18 151
v -28 -14 147
v -34 -20 147
v -34 -26 147
v -30 -25 151
v -27 -29 151
v -24 -31 151
v -21 -30 151
v -17 -28 151
v -16 -25 151
v -19 -21 151
v -23 -14 147
v -29 -12 142
v -36 -19 142
v -37 -27 142
v -31 -33 147
v -15 -17 147
v -22 -11 142
v -29 -12 137
v -64 23 137
v -64 23 142
v -64 9 142
v -36 -19 137
v -37 -27 137
v -32 -34 137
v -32 -34 142
v -25 -36 147
v -14 -16 142
v -22 -11 137
v -28 -14 132
v -34 -20 132
v -34 -26 132
v -31 -33 132
v -25 -36 132
v -19 -35 147
v -12 -30 147
v -12 -24 147
v -14 -16 137
v -15 -17 132
v -23 -14 132
v -26 -20 128
v -29 -22 128
v -30 -25 128
v -27 -29 128
v -24 -31 128
v -21 -30 128
v -19 -21 128
v -22 -18 128
v -9 -24 142
v -16 -25 128
v -17 -28 128
v -31 -25 128
v -23 -18 128
v -23 -14 0
v -35 -25 0
v -29 -31 0
v -23 -33 128
v -23 -37 0
v -12 -25 0
v -20 -22 128
v -18 -20 0
v -64 9 137

f 1 2 3
f 1 3 4
f 1 4 5
f 5 4 6
f 6 4 7
f 6 7 8
f 6 8 9
f 6 9 10
f 10 9 11
f 10 11 12
f 10 12 13
f 10 13 3
f 10 3 2
f 10 2 14
f 15 16 17
f 15 17 18
f 18 17 19
f 19 17 20
f 19 20 21
f 21 20 22
f 21 22 15
f 15 22 16
f 23 24 25
f 23 25 26
f 23 26 27
f 23 27 24
f 24 27 28
f 24 28 29
f 24 29 30
f 24 30 25
f 25 30 31
f 25 31 32
f 25 32 33
f 25 33 34
f 25 34 35
f 25 35 36
f 25 36 26
f 26 36 37
f 26 37 27
f 27 37 38
f 27 38 28
f 28 38 39
f 28 39 40
f 28 40 29
f 29 40 41
f 29 41 31
f 29 31 30
f 36 42 37
f 37 42 43
f 37 43 38
f 38 43 44
f 38 44 45
f 38 45 46
f 38 46 39
f 39 46 47
f 39 47 48
f 39 48 49
f 39 49 40
f 40 49 50
f 40 50 51
f 40 51 41
f 41 51 52
f 41 52 32
f 41 32 31
f 42 53 43
f 43 53 54
f 43 54 44
f 44 54 55
f 44 55 48
f 48 55 56
f 48 56 57
f 48 57 49
f 49 57 58
f 49 58 50
f 50 58 59
f 50 59 8
f 50 8 51
f 51 8 7
f 51 7 52
f 52 7 4
f 52 4 60
f 52 60 32
f 32 60 33
f 33 60 34
f 34 60 61
f 34 61 62
f 34 62 35
f 35 62 42
f 35 42 36
f 53 63 54
f 54 63 64
f 54 64 65
f 54 65 55
f 55 65 66
f 55 66 56
f 56 66 67
f 56 67 68
f 56 68 57
f 57 68 69
f 57 69 58
f 58 69 70
f 58 70 59
f 59 70 71
f 59 71 9
f 59 9 8
f 65 64 72
f 65 72 73
f 65 73 66
f 61 3 74
f 61 74 62
f 62 74 53
f 62 53 42
f 61 60 4
f 61 4 3
f 3 13 74
f 74 13 63
f 74 63 53
f 12 64 63
f 12 63 13
f 75 72 64
f 75 64 12
f 75 12 11
f 75 11 76
f 76 11 71
f 71 11 9
f 77 78 79
f 77 79 80
f 77 80 69
f 69 80 81
f 69 81 82
f 82 81 83
f 82 83 75
f 75 83 84
f 75 84 85
f 85 84 86
f 85 86 78
f 78 86 79
f 47 87 48
