# RS2 Model 4595
# Vertices: 392
# Faces: 428

v -127 -160 -120
v -119 -160 -96
v -127 -8 0
v -127 32 0
v -127 160 100
v -127 160 80
v -127 192 100
v -127 192 0
v -127 160 0
v -95 160 80
v -95 160 0
v -95 192 100
v -95 160 100
v -95 32 0
v -95 -8 0
v -95 -160 -120
v -103 -160 -96
v -95 -192 -120
v -103 -184 -104
v -119 -184 -104
v -127 -192 -120
v 95 -160 -120
v 103 -160 -96
v 95 -8 0
v 95 32 0
v 95 160 100
v 95 160 80
v 95 192 100
v 95 192 0
v 95 160 0
v 127 160 80
v 127 160 0
v 127 192 100
v 127 160 100
v 127 32 0
v 127 -8 0
v 127 -160 -120
v 119 -160 -96
v 127 -192 -120
v 119 -184 -104
v 103 -184 -104
v 95 -192 -120
v 103 -72 -65
v 119 -72 -65
v 119 -72 -160
v 103 -72 -160
v 103 -88 -75
v 103 -88 -160
v 119 -88 -75
v 119 -88 -160
v 103 16 -10
v 119 16 -10
v 119 16 -100
v 103 16 -100
v 103 0 -20
v 103 0 -100
v 119 0 -20
v 119 0 -100
v 95 -168 -120
v 127 -168 -120
v 119 -160 -240
v 95 -162 -240
v 95 -184 -120
v 95 -192 -240
v 127 -184 -120
v 119 -184 -240
v -127 -168 -120
v -95 -168 -120
v -95 -168 -240
v -119 -168 -240
v -127 -184 -120
v -119 -184 -240
v -95 -184 -120
v -95 -192 -240
v -119 -72 -65
v -103 -72 -65
v -103 -72 -160
v -119 -72 -160
v -119 -88 -75
v -119 -88 -160
v -103 -88 -75
v -103 -88 -160
v -119 16 -10
v -103 16 -10
v -103 16 -100
v -119 16 -100
v -119 0 -20
v -119 0 -100
v -103 0 -20
v -103 0 -100
v 127 -160 -220
v 127 -128 -240
v 127 -128 -200
v 127 -160 -200
v 0 -160 -200
v 95 -160 -220
v 95 -160 -240
v 127 -160 -240
v 127 -96 -240
v 127 -96 -180
v 127 -128 -180
v 0 -128 -180
v 0 -128 -200
v -127 -160 -200
v 0 -160 -220
v 95 -192 -220
v 0 -192 -220
v 0 -192 -240
v -95 -192 -220
v -95 -160 -220
v -95 -160 -240
v -127 -160 -240
v 127 -64 -240
v 127 -64 -160
v 127 -96 -160
v 0 -96 -160
v 0 -96 -180
v 0 176 -60
v -127 176 -60
v -127 64 -60
v 0 64 -60
v 127 176 -60
v 127 64 -60
v 127 64 -80
v 127 96 -60
v 127 96 -140
v 127 128 -60
v 127 96 -40
v 0 96 -40
v 0 96 -60
v -127 96 -40
v -127 96 -60
v -127 128 -40
v -127 128 -60
v -127 128 -120
v -127 96 -140
v -127 64 -80
v 0 64 -80
v 0 32 -80
v 127 32 -80
v 127 32 -100
v 127 64 -160
v -127 32 -80
v -127 64 -160
v -127 32 -100
v 0 32 -100
v -127 0 -100
v 0 0 -100
v -127 32 -180
v -127 0 -120
v 0 0 -120
v 127 0 -120
v 127 0 -100
v -127 -32 -120
v 0 -32 -120
v -127 0 -200
v -127 -32 -140
v 0 -32 -140
v 127 -32 -140
v 127 -32 -120
v -127 -64 -140
v 0 -64 -140
v 127 -64 -140
v 127 -32 -220
v 127 0 -200
v -127 -96 -160
v 0 -64 -160
v -127 -64 -160
v -127 -64 -240
v -127 -96 -180
v -127 -32 -220
v -127 -128 -180
v -127 -128 -200
v -127 -128 -240
v -127 -160 -220
v 127 32 -180
v 127 160 -100
v 127 176 -90
v 127 160 -60
v 127 128 -120
v -127 -96 -240
v -127 176 -90
v -127 160 -100
v -127 160 -60
v -127 160 -20
v -127 192 -60
v -95 192 0
v -119 112 50
v -103 112 50
v -103 112 -40
v -119 112 -40
v -119 96 40
v -119 96 -40
v -103 96 40
v -103 96 -40
v 127 192 0
v 127 160 -20
v 127 192 -60
v 127 128 -40
v 0 128 -40
v -127 128 -20
v 0 160 -20
v 0 160 0
v 0 192 0
v 0 128 -20
v 127 128 -20
v 103 112 50
v 119 112 50
v 119 112 -40
v 103 112 -40
v 103 96 40
v 103 96 -40
v 119 96 40
v 119 96 -40
v -128 64 -60
v 0 160 -80
v -128 32 -80
v -128 128 -100
v -128 0 -100
v 0 128 -100
v 0 96 -120
v -128 -32 -120
v -128 64 -140
v -128 -64 -140
v 0 64 -140
v 0 32 -160
v -128 -96 -160
v -128 0 -180
v -128 -128 -180
v 0 0 -180
v 0 -32 -200
v -128 -160 -200
v -128 -64 -220
v -128 -192 -220
v 0 -64 -220
v 112 64 -240
v -112 -192 -240
v -112 -192 -112
v -112 64 -32
v -112 192 -160
v 128 64 -80
v 128 64 48
v 128 32 -100
v 128 32 28
v 0 0 8
v 128 0 8
v 128 -32 -140
v 128 -32 -12
v -128 -96 -52
v -128 -96 -180
v 0 -96 -52
v 128 -96 -180
v 128 -96 -52
v 0 -128 -72
v 128 -128 -72
v 0 -160 -112
v 0 -160 -240
v 128 -160 -112
v 128 -192 -240
v 128 -192 -112
v -112 224 64
v -112 224 -64
v -112 96 64
v 0 96 32
v 0 96 -96
v -128 96 32
v 0 128 64
v 0 128 -64
v -128 128 64
v 0 160 96
v 0 160 -32
v -128 160 96
v -128 224 -40
v -128 96 -40
v 0 224 -40
v 128 160 0
v 128 288 0
v 128 128 -20
v 128 256 -20
v -128 192 -79
v -128 -192 -79
v -128 -192 -240
v -128 192 -240
v 128 -192 -79
v 128 192 -79
v 128 192 -240
v -128 -192 -74
v 128 -192 -74
v 128 192 -74
v 128 -192 -70
v 128 192 -70
v 128 -192 -65
v 128 192 -65
v 128 -192 -61
v 128 192 -61
v 128 -192 -56
v 128 192 -56
v 128 -192 -52
v 128 192 -52
v 128 -192 -47
v 128 192 -47
v 128 -192 -43
v 128 192 -43
v 128 -192 -38
v 128 192 -38
v 128 -192 -34
v 128 192 -34
v 128 -192 -29
v 128 192 -29
v 128 -192 -25
v 128 192 -25
v 128 -192 -20
v 128 192 -20
v 128 -192 -16
v 128 192 -16
v -128 -192 -43
v -128 192 -43
v -128 192 -38
v -128 -192 -38
v -128 -192 -47
v -128 192 -47
v -128 -192 -52
v -128 192 -52
v -128 -192 -56
v -128 192 -56
v -128 -192 -61
v -128 192 -61
v -128 -192 -65
v -128 192 -65
v -128 -192 -70
v -128 192 -70
v -128 192 -74
v -128 192 -34
v -128 -192 -34
v -128 -192 -25
v -128 192 -25
v -128 192 -20
v -128 -192 -20
v -128 -192 -29
v -128 192 -29
v -128 192 -16
v -128 -192 -16
v 112 -64 -112
v 112 -192 -240
v 128 64 -60
v 128 178 -61
v 128 32 -80
v 128 160 -80
v 128 128 -100
v 128 -32 -120
v 128 96 -120
v 128 64 -140
v 128 -96 -160
v 128 32 -160
v 128 0 -180
v 128 -160 -200
v 128 -32 -200
v 128 -64 -220
v 112 64 -32
v 112 192 -32
v -112 -64 -80
v -112 64 -240
v -128 64 -80
v -128 64 48
v -128 32 28
v -128 32 -100
v 0 32 28
v -128 0 -120
v -128 -32 -12
v -128 -32 -140
v 0 -32 -12
v 0 -64 -32
v -128 -64 -160
v 128 -64 -32
v -128 -128 -200
v -128 -160 -112
v -128 -160 -240
v 0 -192 -112
v 112 96 64
v 112 96 -64
v 112 224 64
v 128 96 32
v 128 96 -96
v 128 128 64
v 128 128 -64
v 128 160 96
v 128 160 -32
v 128 224 -40
v 0 288 0
v -128 160 0
v 0 256 -20
v -128 128 -20

f 1 2 3
f 1 3 4
f 4 3 5
f 4 5 6
f 6 5 7
f 6 7 8
f 6 8 9
f 6 9 10
f 10 9 11
f 10 11 12
f 10 12 13
f 10 13 14
f 14 13 15
f 14 15 16
f 16 15 17
f 16 17 18
f 18 17 19
f 18 19 20
f 18 20 21
f 21 20 2
f 21 2 20
f 17 15 3
f 17 3 2
f 17 2 19
f 19 2 20
f 2 1 21
f 22 23 24
f 22 24 25
f 25 24 26
f 25 26 27
f 27 26 28
f 27 28 29
f 27 29 30
f 27 30 31
f 31 30 32
f 31 32 33
f 31 33 34
f 31 34 35
f 35 34 36
f 35 36 37
f 37 36 38
f 37 38 39
f 39 38 40
f 39 40 41
f 39 41 42
f 42 41 23
f 42 23 41
f 38 36 24
f 38 24 23
f 38 23 40
f 40 23 41
f 23 22 42
f 43 44 45
f 43 45 46
f 43 46 47
f 47 46 48
f 47 48 49
f 49 48 50
f 49 50 44
f 44 50 45
f 51 52 53
f 51 53 54
f 51 54 55
f 55 54 56
f 55 56 57
f 57 56 58
f 57 58 52
f 52 58 53
f 59 60 61
f 59 61 62
f 59 62 63
f 63 62 64
f 63 64 65
f 65 64 66
f 65 66 60
f 60 66 61
f 67 68 69
f 67 69 70
f 67 70 71
f 71 70 72
f 71 72 73
f 73 72 74
f 73 74 68
f 68 74 69
f 75 76 77
f 75 77 78
f 75 78 79
f 79 78 80
f 79 80 81
f 81 80 82
f 81 82 76
f 76 82 77
f 83 84 85
f 83 85 86
f 83 86 87
f 87 86 88
f 87 88 89
f 89 88 90
f 89 90 84
f 84 90 85
f 91 92 93
f 91 93 94
f 94 93 95
f 94 95 96
f 94 96 97
f 94 97 98
f 92 91 98
f 99 93 92
f 93 99 100
f 93 100 101
f 93 101 102
f 93 102 103
f 93 103 95
f 95 103 104
f 95 104 105
f 95 105 96
f 96 105 106
f 96 106 97
f 97 106 64
f 64 106 107
f 64 107 108
f 108 107 109
f 108 109 74
f 74 109 110
f 74 110 111
f 111 110 112
f 112 110 104
f 104 110 105
f 105 110 107
f 105 107 106
f 113 100 99
f 100 113 114
f 100 114 115
f 100 115 116
f 100 116 117
f 100 117 102
f 100 102 101
f 118 119 120
f 118 120 121
f 118 121 122
f 122 121 123
f 123 121 124
f 123 124 125
f 125 124 126
f 125 126 127
f 125 127 128
f 125 128 129
f 125 129 130
f 130 129 131
f 130 131 132
f 132 131 133
f 132 133 134
f 132 134 135
f 132 135 136
f 132 136 120
f 120 136 137
f 120 137 121
f 121 137 138
f 121 138 124
f 124 138 139
f 124 139 140
f 124 140 141
f 124 141 142
f 124 142 126
f 143 139 138
f 143 138 137
f 143 137 144
f 143 144 145
f 143 145 146
f 143 146 139
f 139 146 141
f 139 141 140
f 147 148 146
f 147 146 145
f 147 145 149
f 147 149 150
f 147 150 151
f 147 151 148
f 148 151 152
f 148 152 153
f 148 153 141
f 148 141 146
f 154 155 151
f 154 151 150
f 154 150 156
f 154 156 157
f 154 157 158
f 154 158 155
f 155 158 159
f 155 159 160
f 155 160 152
f 155 152 151
f 158 157 161
f 158 161 162
f 158 162 159
f 159 162 163
f 159 163 114
f 159 114 164
f 159 164 165
f 159 165 152
f 159 152 160
f 166 116 167
f 166 167 168
f 166 168 169
f 166 169 170
f 166 170 117
f 166 117 116
f 116 115 114
f 116 114 167
f 167 114 162
f 167 162 161
f 167 161 168
f 168 161 171
f 168 171 169
f 117 170 172
f 117 172 102
f 102 172 103
f 103 172 173
f 103 173 104
f 104 173 174
f 104 174 175
f 175 174 112
f 110 109 107
f 114 113 164
f 152 176 141
f 152 141 153
f 152 165 176
f 141 176 142
f 177 178 122
f 177 122 179
f 177 179 180
f 180 179 127
f 180 127 126
f 181 174 173
f 181 173 172
f 181 172 170
f 181 170 169
f 161 157 171
f 171 157 156
f 149 156 150
f 144 149 145
f 136 144 137
f 182 183 184
f 182 184 119
f 183 135 134
f 183 134 184
f 184 134 133
f 184 133 185
f 184 185 8
f 184 8 186
f 162 114 163
f 7 12 187
f 7 187 8
f 12 11 187
f 188 189 190
f 188 190 191
f 188 191 192
f 192 191 193
f 192 193 194
f 194 193 195
f 194 195 189
f 189 195 190
f 15 13 5
f 15 5 3
f 7 5 13
f 7 13 12
f 28 33 196
f 28 196 29
f 33 32 196
f 196 32 197
f 196 197 198
f 198 197 179
f 179 197 127
f 127 197 199
f 127 199 128
f 128 199 129
f 129 199 200
f 129 200 131
f 131 200 133
f 133 200 201
f 133 201 185
f 185 201 202
f 185 202 203
f 185 203 9
f 185 9 8
f 8 9 203
f 8 203 204
f 204 203 196
f 196 203 32
f 32 203 197
f 197 203 202
f 197 202 205
f 197 205 206
f 197 206 199
f 199 206 205
f 199 205 200
f 200 205 201
f 201 205 202
f 207 208 209
f 207 209 210
f 207 210 211
f 211 210 212
f 211 212 213
f 213 212 214
f 213 214 208
f 208 214 209
f 36 34 26
f 36 26 24
f 28 26 34
f 28 34 33
f 121 118 215
f 139 216 217
f 218 219 220
f 155 221 222
f 223 224 225
f 116 226 227
f 228 229 230
f 95 231 232
f 233 234 235
f 236 124 113
f 237 238 169
f 144 239 240
f 241 242 138
f 243 244 146
f 245 151 246
f 247 248 158
f 249 250 251
f 252 253 117
f 254 103 255
f 256 257 258
f 259 260 108
f 261 262 263
f 264 265 266
f 267 268 269
f 270 271 272
f 273 274 275
f 276 277 203
f 278 279 205
f 280 281 282
f 280 282 283
f 284 285 286
f 284 286 259
f 284 259 281
f 284 281 287
f 284 287 288
f 284 288 285
f 285 288 289
f 289 288 290
f 289 290 291
f 291 290 292
f 291 292 293
f 293 292 294
f 293 294 295
f 295 294 296
f 295 296 297
f 297 296 298
f 297 298 299
f 299 298 300
f 299 300 301
f 301 300 302
f 301 302 303
f 303 302 304
f 303 304 305
f 305 304 306
f 305 306 307
f 307 306 308
f 307 308 309
f 309 308 310
f 309 310 311
f 311 310 312
f 311 312 313
f 313 312 314
f 313 314 315
f 281 259 282
f 316 317 318
f 316 318 319
f 316 319 302
f 316 302 300
f 316 300 320
f 316 320 317
f 317 320 321
f 321 320 322
f 321 322 323
f 323 322 324
f 323 324 325
f 325 324 326
f 325 326 327
f 327 326 328
f 327 328 329
f 329 328 330
f 329 330 331
f 331 330 287
f 331 287 332
f 332 287 281
f 332 281 280
f 319 318 333
f 319 333 334
f 319 334 304
f 319 304 302
f 335 336 337
f 335 337 338
f 335 338 310
f 335 310 308
f 335 308 339
f 335 339 336
f 336 339 340
f 340 339 334
f 340 334 333
f 338 337 341
f 338 341 342
f 338 342 312
f 338 312 310
f 304 334 306
f 306 334 339
f 306 339 308
f 298 322 320
f 298 320 300
f 312 342 314
f 288 287 330
f 288 330 290
f 290 330 328
f 290 328 292
f 292 328 326
f 292 326 294
f 294 326 324
f 294 324 296
f 296 324 322
f 296 322 298
