# RS2 Model 4833
# Vertices: 36
# Faces: 61

v -38 -7 34
v -36 -7 34
v -37 -9 32
v -38 -9 33
v -38 -9 36
v -38 -6 36
v -38 -6 34
v -37 -6 32
v -36 -6 34
v -36 -6 36
v -36 -9 36
v -36 -9 33
v -36 -21 33
v -37 -22 32
v -38 -21 33
v -38 -19 37
v -36 -19 37
v -38 0 39
v -38 0 35
v -37 0 33
v -36 0 35
v -36 0 39
v -35 0 43
v -35 0 29
v -35 2 31
v -35 2 40
v -39 2 40
v -39 0 43
v -39 0 29
v -39 2 31
v -37 -32 35
v -38 -31 36
v -38 -27 40
v -36 -27 40
v -36 -31 36
v -37 -37 48

f 1 2 3
f 1 3 4
f 1 4 5
f 1 5 6
f 1 6 7
f 1 7 8
f 1 8 2
f 2 8 9
f 2 9 10
f 2 10 11
f 2 11 12
f 2 12 3
f 3 12 13
f 3 13 14
f 3 14 4
f 4 14 15
f 4 15 5
f 5 15 16
f 5 16 17
f 5 17 11
f 5 11 6
f 6 11 10
f 6 10 18
f 6 18 7
f 7 18 19
f 7 19 8
f 8 19 20
f 8 20 9
f 9 20 21
f 9 21 10
f 10 21 22
f 10 22 18
f 23 24 25
f 23 25 26
f 23 26 27
f 23 27 28
f 23 28 24
f 24 28 29
f 24 29 25
f 25 29 30
f 25 30 26
f 26 30 27
f 27 30 29
f 27 29 28
f 17 13 12
f 17 12 11
f 15 14 31
f 15 31 32
f 15 32 16
f 16 32 33
f 16 33 34
f 16 34 17
f 17 34 13
f 13 34 35
f 13 35 14
f 14 35 31
f 31 35 36
f 31 36 32
f 32 36 33
f 33 36 34
f 34 36 35
