# RS2 Model 487
# Vertices: 66
# Faces: 117

v -35 13 81
v -35 10 78
v -34 4 80
v -34 5 82
v -34 5 85
v -35 11 84
v -32 15 83
v -32 16 81
v -32 14 78
v -29 10 78
v -30 4 80
v -29 13 81
v -30 5 82
v -29 11 84
v -30 5 85
v -32 5 85
v -34 -11 85
v -34 -11 82
v -35 -45 87
v -36 -49 92
v -34 -11 88
v -34 -7 87
v -34 -7 82
v -29 -11 82
v -31 -45 87
v -33 -45 87
v -33 -49 88
v -35 -50 88
v -35 -53 93
v -35 -50 97
v -31 -12 89
v -29 -7 87
v -29 -11 88
v -29 -11 85
v -29 -7 82
v -29 -50 97
v -29 -53 93
v -28 -49 92
v -32 -52 98
v -32 -55 94
v -32 -54 88
v -30 -52 88
v -29 -50 88
v -29 -45 87
v -34 -52 88
v -31 -49 88
v -30 -53 79
v -30 -49 79
v -34 -53 79
v -31 -55 76
v -32 -53 72
v -33 -53 72
v -34 -49 79
v -32 -48 71
v -30 -45 78
v -34 -45 78
v -33 -44 75
v -33 -48 71
v -32 -46 67
v -31 -41 69
v -30 -44 75
v -32 -41 69
v -34 -55 76
v -32 -59 73
v -32 -55 69
v -33 -59 73

f 1 2 3
f 1 3 4
f 1 4 5
f 1 5 6
f 1 6 7
f 1 7 8
f 1 8 2
f 2 8 9
f 2 9 3
f 3 9 10
f 3 10 11
f 11 10 12
f 11 12 13
f 13 12 14
f 13 14 15
f 15 14 16
f 16 14 7
f 16 7 5
f 5 7 6
f 17 18 19
f 17 19 20
f 17 20 21
f 17 21 22
f 17 22 18
f 18 22 23
f 18 23 24
f 18 24 25
f 18 25 26
f 18 26 19
f 19 26 27
f 19 27 28
f 19 28 20
f 20 28 29
f 20 29 30
f 20 30 21
f 21 30 31
f 21 31 22
f 22 31 32
f 32 31 33
f 32 33 34
f 32 34 24
f 32 24 35
f 35 24 23
f 36 37 38
f 36 38 33
f 36 33 39
f 36 39 40
f 36 40 37
f 37 40 41
f 37 41 42
f 37 42 43
f 37 43 38
f 38 43 44
f 38 44 34
f 38 34 33
f 39 33 31
f 39 31 30
f 39 30 29
f 39 29 40
f 40 29 45
f 40 45 41
f 41 45 27
f 41 27 42
f 42 27 46
f 42 46 43
f 43 46 25
f 43 25 44
f 44 25 24
f 44 24 34
f 47 48 46
f 47 46 49
f 47 49 50
f 47 50 51
f 47 51 48
f 48 51 52
f 48 52 53
f 48 53 54
f 48 54 55
f 48 55 25
f 48 25 46
f 27 26 56
f 27 56 53
f 27 53 49
f 27 49 46
f 26 25 55
f 26 55 56
f 56 55 57
f 56 57 58
f 56 58 53
f 53 58 54
f 54 58 59
f 54 59 60
f 54 60 61
f 54 61 55
f 55 61 57
f 57 61 62
f 57 62 58
f 58 62 59
f 59 62 60
f 60 62 61
f 50 49 63
f 50 63 64
f 50 64 51
f 51 64 65
f 51 65 52
f 52 65 66
f 52 66 63
f 52 63 49
f 52 49 53
f 45 28 27
f 28 45 29
f 64 66 65
f 66 64 63
f 14 12 8
f 14 8 7
f 12 10 9
f 12 9 8
