# RS2 Model 4875
# Vertices: 62
# Faces: 120

v -44 -6 74
v -44 -8 72
v -44 -12 76
v -44 -10 78
v -47 -8 79
v -47 -5 76
v -47 -2 75
v -44 -2 73
v -44 -2 70
v -41 -10 69
v -41 -15 74
v -44 -14 82
v -44 -11 82
v -47 -9 82
v -49 -2 82
v -47 1 76
v -44 2 74
v -44 4 72
v -41 -2 67
v -38 -2 70
v -38 -8 72
v -38 -12 76
v -38 -14 82
v -41 -17 82
v -44 -12 89
v -44 -10 87
v -47 -8 86
v -47 -5 89
v -47 -2 90
v -47 1 89
v -47 4 86
v -47 5 82
v -47 4 79
v -44 6 78
v -44 8 76
v -41 6 69
v -38 4 72
v -38 -2 82
v -38 -12 89
v -41 -15 91
v -44 -8 93
v -44 -6 91
v -44 7 82
v -44 10 82
v -41 11 74
v -38 8 76
v -38 10 82
v -38 8 89
v -38 4 93
v -38 -2 95
v -38 -8 93
v -41 -10 96
v -41 -2 98
v -44 -2 95
v -44 -2 92
v -44 2 91
v -44 6 87
v -44 4 93
v -44 8 89
v -41 6 96
v -41 11 91
v -41 13 82

f 1 2 3
f 1 3 4
f 1 4 5
f 1 5 6
f 1 6 7
f 1 7 8
f 1 8 9
f 1 9 2
f 2 9 10
f 2 10 3
f 3 10 11
f 3 11 12
f 3 12 4
f 4 12 13
f 4 13 5
f 5 13 14
f 5 14 15
f 5 15 6
f 6 15 7
f 7 15 16
f 7 16 8
f 8 16 17
f 8 17 9
f 9 17 18
f 9 18 19
f 9 19 10
f 10 19 20
f 10 20 21
f 10 21 22
f 10 22 11
f 11 22 23
f 11 23 24
f 11 24 12
f 12 24 25
f 12 25 26
f 12 26 13
f 13 26 14
f 14 26 27
f 14 27 15
f 15 27 28
f 15 28 29
f 15 29 30
f 15 30 31
f 15 31 32
f 15 32 33
f 15 33 16
f 16 33 34
f 16 34 17
f 17 34 18
f 18 34 35
f 18 35 36
f 18 36 19
f 19 36 37
f 19 37 20
f 20 37 38
f 20 38 21
f 21 38 22
f 22 38 23
f 23 38 39
f 23 39 24
f 24 39 40
f 24 40 25
f 25 40 41
f 25 41 26
f 26 41 42
f 26 42 28
f 26 28 27
f 34 43 44
f 34 44 35
f 35 44 45
f 35 45 36
f 36 45 46
f 36 46 37
f 37 46 38
f 38 46 47
f 38 47 48
f 38 48 49
f 38 49 50
f 38 50 51
f 38 51 39
f 39 51 40
f 40 51 52
f 40 52 41
f 41 52 53
f 41 53 54
f 41 54 42
f 42 54 55
f 42 55 28
f 28 55 29
f 29 55 56
f 29 56 30
f 30 56 31
f 31 56 57
f 31 57 32
f 32 57 43
f 32 43 33
f 33 43 34
f 56 58 59
f 56 59 57
f 57 59 44
f 57 44 43
f 56 55 54
f 56 54 58
f 58 54 60
f 58 60 61
f 58 61 59
f 59 61 62
f 59 62 44
f 44 62 45
f 45 62 47
f 45 47 46
f 54 53 60
f 60 53 50
f 60 50 49
f 60 49 61
f 61 49 48
f 61 48 62
f 62 48 47
f 51 50 53
f 51 53 52
