# RS2 Model 4889
# Vertices: 50
# Faces: 60

v -11 56 28
v 1 49 0
v 7 50 0
v 5 44 0
v -20 28 36
v -26 20 36
v -25 22 46
v -15 19 36
v -1 25 0
v -6 36 0
v -12 27 0
v 17 -2 28
v 29 10 0
v 35 10 0
v 32 16 0
v 41 -21 36
v 41 -31 36
v 42 -31 46
v 51 -26 36
v 55 -8 0
v 45 -3 0
v 45 -13 0
v 64 2 46
v 63 0 36
v 63 10 36
v 53 5 36
v 41 20 0
v 51 15 0
v 51 25 0
v 57 27 74
v 61 25 58
v 61 39 58
v 45 32 58
v 45 52 0
v 61 45 0
v 61 59 0
v 30 62 46
v 23 64 36
v 25 54 36
v 33 61 36
v 22 53 0
v 12 56 0
v 14 46 0
v 13 26 46
v 12 33 36
v 14 23 36
v 22 30 36
v 34 41 0
v 24 44 0
v 26 34 0

f 1 2 3
f 1 3 4
f 1 4 2
f 5 6 7
f 5 7 8
f 5 8 9
f 5 9 10
f 5 10 6
f 6 10 11
f 6 11 8
f 6 8 7
f 11 9 8
f 12 13 14
f 12 14 15
f 12 15 13
f 16 17 18
f 16 18 19
f 16 19 20
f 16 20 21
f 16 21 17
f 17 21 22
f 17 22 19
f 17 19 18
f 22 20 19
f 23 24 25
f 23 25 26
f 23 26 24
f 24 26 27
f 24 27 28
f 24 28 25
f 25 28 29
f 25 29 26
f 26 29 27
f 30 31 32
f 30 32 33
f 30 33 31
f 31 33 34
f 31 34 35
f 31 35 32
f 32 35 36
f 32 36 33
f 33 36 34
f 37 38 39
f 37 39 40
f 37 40 38
f 38 40 41
f 38 41 42
f 38 42 39
f 39 42 43
f 39 43 40
f 40 43 41
f 44 45 46
f 44 46 47
f 44 47 45
f 45 47 48
f 45 48 49
f 45 49 46
f 46 49 50
f 46 50 47
f 47 50 48
