# RS2 Model 4936
# Vertices: 46
# Faces: 77

v -17 -52 45
v -58 -8 30
v -64 -18 1
v -15 -71 2
v 18 -56 26
v 26 -25 56
v -17 -22 49
v -42 0 49
v -55 38 0
v 43 -39 33
v 43 -15 42
v 43 -49 15
v 38 -45 16
v 36 -37 29
v 36 -17 33
v 43 3 16
v 43 8 68
v 36 -3 67
v -4 2 56
v -12 21 54
v -37 24 48
v -19 32 59
v -21 41 0
v 7 26 67
v 4 64 0
v 22 32 67
v 46 49 0
v 36 18 73
v 43 -28 7
v 49 -53 1
v 30 7 73
v 37 -2 16
v 39 -27 8
v 3 -32 2
v 2 -47 13
v 0 -38 24
v -3 -19 32
v 3 -6 10
v -12 -8 6
v -8 -32 2
v -15 -47 9
v -17 -38 16
v -18 -21 19
v 97 -55 62
v 102 61 90
v -92 -42 28

f 1 2 3
f 1 3 4
f 1 4 5
f 1 5 6
f 1 6 7
f 1 7 8
f 1 8 2
f 2 8 9
f 2 9 3
f 10 11 6
f 10 6 5
f 10 5 12
f 10 12 13
f 10 13 14
f 10 14 11
f 11 14 15
f 11 15 16
f 11 16 17
f 11 17 18
f 11 18 6
f 6 18 19
f 6 19 7
f 7 19 8
f 8 19 20
f 8 20 21
f 8 21 9
f 9 21 22
f 9 22 23
f 23 22 24
f 23 24 25
f 25 24 26
f 25 26 27
f 27 26 28
f 27 28 16
f 27 16 29
f 27 29 30
f 30 29 12
f 30 12 4
f 4 12 5
f 16 28 17
f 17 28 31
f 17 31 18
f 18 31 19
f 19 31 20
f 20 31 24
f 20 24 22
f 20 22 21
f 24 28 26
f 28 24 31
f 15 32 16
f 16 32 29
f 29 32 33
f 29 33 12
f 12 33 13
f 13 33 34
f 13 34 35
f 13 35 14
f 14 35 36
f 14 36 15
f 15 36 37
f 15 37 32
f 32 37 38
f 32 38 33
f 33 38 34
f 34 38 39
f 34 39 40
f 34 40 35
f 35 40 41
f 35 41 36
f 36 41 42
f 36 42 37
f 37 42 43
f 37 43 38
f 38 43 39
f 39 43 42
f 39 42 41
f 39 41 40
