# RS2 Model 4950
# Vertices: 42
# Faces: 66

v 45 -2 41
v 39 33 42
v 41 -2 62
v 33 -56 43
v 45 -30 31
v 41 -2 -12
v 41 13 37
v -38 -2 62
v -30 42 62
v -45 -2 43
v -30 -61 62
v -15 -31 99
v -30 50 88
v 0 42 62
v -41 42 39
v -41 13 37
v -45 -28 30
v -35 -56 43
v 0 -56 44
v 0 -61 62
v 22 -31 99
v 0 -6 113
v -19 8 127
v -11 13 148
v -15 42 158
v 34 50 88
v 30 42 62
v 0 50 44
v 30 -61 62
v 26 8 127
v 19 13 148
v 11 -2 179
v -3 -2 179
v -7 -6 193
v 22 42 158
v 15 -6 193
v 3 -52 169
v 41 -27 -1
v 41 -36 -22
v -41 -2 -12
v -41 -27 -1
v -41 -36 -22

f 1 2 3
f 1 3 4
f 1 4 5
f 1 5 6
f 1 6 7
f 1 7 2
f 8 9 10
f 8 10 11
f 8 11 12
f 8 12 13
f 8 13 9
f 9 13 14
f 9 14 15
f 9 15 10
f 10 15 16
f 10 16 17
f 10 17 18
f 10 18 11
f 11 18 19
f 11 19 20
f 11 20 12
f 12 20 21
f 12 21 22
f 12 22 13
f 13 22 23
f 13 23 24
f 13 24 25
f 13 25 26
f 13 26 14
f 14 26 27
f 14 27 2
f 14 2 28
f 14 28 15
f 4 20 19
f 20 4 29
f 20 29 21
f 21 29 3
f 21 3 26
f 21 26 22
f 22 26 30
f 22 30 23
f 23 30 31
f 23 31 24
f 24 31 32
f 24 32 33
f 24 33 25
f 25 33 34
f 25 34 35
f 25 35 26
f 26 35 30
f 30 35 31
f 31 35 36
f 31 36 32
f 32 36 37
f 32 37 33
f 33 37 34
f 34 37 36
f 34 36 35
f 29 4 3
f 27 3 2
f 3 27 26
f 5 38 6
f 6 38 39
f 16 40 17
f 17 40 41
f 41 40 42
