# RS2 Model 4951
# Vertices: 42
# Faces: 66

v 45 -2 37
v 39 33 38
v 40 -2 56
v 33 -56 38
v 45 -30 27
v 40 -2 -16
v 40 13 33
v -31 -2 56
v -24 42 56
v -40 -2 38
v -24 -61 56
v -10 -31 93
v -24 50 82
v 4 42 50
v -34 42 35
v -34 13 33
v -37 -28 26
v -28 -56 38
v 4 -56 38
v 4 -61 50
v 23 -31 93
v 4 -6 106
v -13 8 120
v -6 13 141
v -10 42 151
v 34 50 82
v 31 42 56
v 4 50 38
v 31 -61 56
v 27 8 120
v 20 13 141
v 13 -2 171
v 1 -2 171
v -2 -6 185
v 23 42 151
v 16 -6 185
v 6 -52 162
v 40 -27 -5
v 35 -36 -26
v -34 -2 -16
v -34 -27 -5
v -29 -36 -26

f 1 2 3
f 1 3 4
f 1 4 5
f 1 5 6
f 1 6 7
f 1 7 2
f 8 9 10
f 8 10 11
f 8 11 12
f 8 12 13
f 8 13 9
f 9 13 14
f 9 14 15
f 9 15 10
f 10 15 16
f 10 16 17
f 10 17 18
f 10 18 11
f 11 18 19
f 11 19 20
f 11 20 12
f 12 20 21
f 12 21 22
f 12 22 13
f 13 22 23
f 13 23 24
f 13 24 25
f 13 25 26
f 13 26 14
f 14 26 27
f 14 27 2
f 14 2 28
f 14 28 15
f 4 20 19
f 20 4 29
f 20 29 21
f 21 29 3
f 21 3 26
f 21 26 22
f 22 26 30
f 22 30 23
f 23 30 31
f 23 31 24
f 24 31 32
f 24 32 33
f 24 33 25
f 25 33 34
f 25 34 35
f 25 35 26
f 26 35 30
f 30 35 31
f 31 35 36
f 31 36 32
f 32 36 37
f 32 37 33
f 33 37 34
f 34 37 36
f 34 36 35
f 29 4 3
f 27 3 2
f 3 27 26
f 5 38 6
f 6 38 39
f 16 40 17
f 17 40 41
f 41 40 42
