# RS2 Model 4968
# Vertices: 139
# Faces: 255

v -61 -43 0
v -52 -38 0
v -52 38 0
v -61 43 0
v -64 64 0
v -64 -64 0
v -56 -40 26
v -48 -36 28
v -37 -36 27
v -37 -38 0
v -37 38 0
v -48 36 28
v -56 40 26
v -56 50 40
v -48 64 64
v -56 40 80
v -64 64 128
v -62 32 96
v -68 34 124
v -60 27 131
v -39 64 240
v -56 16 134
v -54 0 136
v -39 0 240
v 64 64 240
v -39 -64 240
v 64 -64 240
v 64 64 -160
v 64 -64 -160
v -8 -38 0
v -8 38 0
v -37 36 27
v -48 44 42
v -48 26 58
v -48 32 58
v -50 36 80
v -54 28 98
v -60 28 122
v -54 21 124
v -50 13 125
v -48 0 129
v -50 -13 125
v -56 -15 135
v 18 -38 0
v 18 38 0
v -8 36 27
v -37 44 40
v -37 26 58
v -36 36 80
v -37 28 96
v -36 28 122
v -36 21 120
v -36 12 121
v -36 0 124
v -36 -14 121
v -54 -23 126
v -60 -27 132
v -68 -33 125
v -64 -64 128
v -56 -40 80
v -48 -64 64
v -56 -50 40
v -48 -44 42
v -37 -44 40
v -8 -44 40
v -8 -36 27
v 18 -36 24
v 44 -36 21
v 44 -38 0
v 44 38 0
v 18 36 24
v -8 44 40
v -8 26 56
v -8 36 77
v -8 28 94
v -8 30 118
v -8 23 116
v -8 13 117
v -8 0 121
v -8 -14 117
v -36 -22 119
v -60 -29 123
v -54 -28 98
v -62 -32 96
v -50 -36 80
v -48 -32 58
v -48 -26 58
v -37 -26 58
v -8 -26 56
v 18 -26 51
v 18 -44 37
v 44 -44 32
v 44 0 105
v 44 0 101
v 44 -32 99
v 44 -23 103
v 44 -15 108
v 44 0 112
v 44 15 108
v 44 27 104
v 44 32 99
v 44 28 76
v 44 0 98
v 44 -28 76
v 44 0 69
v 44 -36 62
v 18 -36 70
v 18 -28 86
v 44 -32 100
v 18 -32 113
v 18 -24 108
v 18 -14 113
v 18 0 117
v 18 15 112
v 18 25 110
v 44 32 100
v 18 32 113
v 18 28 86
v 44 36 62
v 44 26 45
v 44 0 56
v 44 -26 45
v -8 -36 77
v -8 -28 94
v -8 -27 113
v -8 -22 114
v 18 36 70
v 18 26 51
v 44 44 32
v 44 0 34
v 44 0 19
v 44 -36 22
v 44 36 22
v 44 0 0
v -36 -36 80
v -37 -28 96
v -36 -27 120
v 18 44 37
v 44 36 21

f 1 2 3
f 1 3 4
f 1 4 5
f 1 5 6
f 1 6 7
f 1 7 2
f 2 7 8
f 2 8 9
f 2 9 10
f 2 10 11
f 2 11 3
f 3 11 12
f 3 12 4
f 4 12 13
f 4 13 14
f 4 14 5
f 5 14 15
f 15 14 16
f 15 16 17
f 17 16 18
f 17 18 19
f 17 19 20
f 17 20 21
f 21 20 22
f 21 22 23
f 21 23 24
f 21 24 25
f 25 24 26
f 25 26 27
f 25 27 28
f 28 27 29
f 10 30 31
f 10 31 11
f 11 31 32
f 11 32 12
f 12 32 33
f 12 33 13
f 13 33 14
f 14 33 34
f 14 34 35
f 14 35 16
f 16 35 34
f 16 34 36
f 16 36 18
f 18 36 37
f 18 37 38
f 18 38 19
f 19 38 39
f 19 39 20
f 20 39 40
f 20 40 22
f 22 40 41
f 22 41 23
f 23 41 42
f 23 42 43
f 23 43 26
f 23 26 24
f 30 44 45
f 30 45 31
f 31 45 46
f 31 46 32
f 32 46 47
f 32 47 33
f 33 47 34
f 34 47 48
f 34 48 36
f 36 48 49
f 36 49 37
f 37 49 50
f 37 50 38
f 38 50 51
f 38 51 39
f 39 51 52
f 39 52 40
f 40 52 53
f 40 53 54
f 40 54 41
f 41 54 55
f 41 55 42
f 42 55 56
f 42 56 43
f 43 56 57
f 43 57 26
f 26 57 58
f 26 58 59
f 59 58 60
f 59 60 61
f 61 60 62
f 61 62 6
f 6 62 7
f 7 62 8
f 8 62 63
f 8 63 64
f 8 64 9
f 9 64 65
f 9 65 66
f 9 66 10
f 10 66 30
f 30 66 67
f 30 67 44
f 44 67 68
f 44 68 69
f 44 69 70
f 44 70 45
f 45 70 71
f 45 71 46
f 46 71 72
f 46 72 47
f 47 72 48
f 48 72 73
f 48 73 49
f 49 73 74
f 49 74 50
f 50 74 75
f 50 75 51
f 51 75 76
f 51 76 52
f 52 76 77
f 52 77 53
f 53 77 78
f 53 78 54
f 54 78 79
f 54 79 55
f 55 79 80
f 55 80 81
f 55 81 56
f 56 81 82
f 56 82 57
f 57 82 58
f 58 82 83
f 58 83 84
f 58 84 60
f 60 84 83
f 60 83 85
f 60 85 86
f 60 86 62
f 62 86 63
f 63 86 87
f 63 87 88
f 63 88 64
f 64 88 89
f 64 89 65
f 65 89 90
f 65 90 91
f 65 91 66
f 66 91 67
f 67 91 92
f 67 92 68
f 93 94 95
f 93 95 96
f 93 96 97
f 93 97 98
f 93 98 99
f 93 99 100
f 93 100 94
f 94 100 101
f 94 101 102
f 94 102 103
f 94 103 95
f 95 103 104
f 104 103 105
f 104 105 106
f 104 106 107
f 104 107 108
f 104 108 109
f 109 108 110
f 109 110 96
f 96 110 111
f 96 111 97
f 97 111 112
f 97 112 98
f 98 112 113
f 98 113 99
f 99 113 114
f 99 114 100
f 100 114 115
f 100 115 116
f 116 115 117
f 116 117 102
f 102 117 118
f 102 118 119
f 102 119 103
f 103 119 105
f 105 119 120
f 105 120 121
f 105 121 106
f 106 121 122
f 106 122 90
f 106 90 107
f 107 90 89
f 107 89 123
f 107 123 108
f 108 123 124
f 108 124 110
f 110 124 125
f 110 125 111
f 111 125 126
f 111 126 112
f 112 126 80
f 112 80 113
f 113 80 79
f 113 79 114
f 114 79 78
f 114 78 115
f 115 78 77
f 115 77 117
f 117 77 76
f 117 76 118
f 118 76 75
f 118 75 127
f 118 127 119
f 119 127 120
f 120 127 128
f 120 128 129
f 120 129 121
f 121 129 130
f 121 130 122
f 122 130 92
f 122 92 91
f 122 91 90
f 131 132 92
f 131 92 130
f 131 130 133
f 131 133 70
f 131 70 134
f 131 134 132
f 132 134 69
f 130 129 133
f 123 89 88
f 123 88 135
f 123 135 124
f 124 135 136
f 124 136 125
f 125 136 137
f 125 137 126
f 126 137 81
f 126 81 80
f 86 85 87
f 87 85 135
f 87 135 88
f 136 135 85
f 136 85 83
f 136 83 137
f 137 83 82
f 137 82 81
f 72 71 138
f 72 138 73
f 73 138 128
f 73 128 74
f 74 128 127
f 74 127 75
f 71 70 139
f 71 139 138
f 138 139 129
f 138 129 128
