# RS2 Model 4971
# Vertices: 135
# Faces: 232

v -40 -52 0
v -16 -36 25
v -32 -32 25
v -52 -52 0
v -52 -40 0
v -44 -32 0
v -56 -24 0
v -52 -8 0
v -28 -8 25
v -44 8 0
v -28 8 25
v -32 24 25
v -44 24 0
v -44 40 0
v -24 32 25
v -36 44 0
v -20 44 0
v 0 28 25
v -8 44 0
v 0 52 0
v 16 52 0
v 20 28 25
v 24 44 0
v 32 40 0
v 40 44 0
v 52 40 0
v 28 20 25
v 60 36 0
v 56 28 0
v 28 8 25
v 52 16 0
v 28 -4 25
v 44 -8 0
v 36 -20 0
v 20 -28 25
v 40 -28 0
v 44 -40 0
v 36 -52 0
v 8 -32 25
v 24 -56 0
v 8 -48 0
v -12 -44 0
v -24 -48 0
v -20 -26 43
v -20 14 58
v 11 14 58
v 11 -26 43
v 13 15 132
v 13 -21 132
v -20 14 84
v -19 14 102
v -19 15 114
v -18 15 135
v -18 15 147
v -18 15 164
v -18 15 176
v 16 16 240
v 16 -16 240
v -18 -21 150
v -18 -21 138
v -19 -22 110
v -19 -23 98
v -20 -24 84
v -20 -24 72
v -20 14 72
v -20 20 72
v -20 20 84
v -24 20 84
v -24 14 84
v -23 -23 98
v -23 14 102
v -19 22 102
v -19 21 115
v -23 21 115
v -23 15 114
v -22 -21 138
v -22 15 135
v -18 21 134
v -18 22 146
v -22 22 146
v -22 15 147
v -17 15 164
v -17 -20 164
v -17 16 207
v -17 16 194
v -17 21 193
v -17 24 205
v -21 24 205
v -21 16 207
v -17 -17 213
v -16 16 240
v -18 -19 176
v -17 -18 201
v -21 -18 201
v -21 16 194
v -21 21 193
v -21 -17 213
v -17 -27 215
v -16 -16 240
v -17 -30 204
v -21 -30 204
v -21 -27 215
v -18 20 164
v -18 20 176
v -22 20 176
v -22 15 176
v -22 -19 176
v -18 -32 176
v -18 -20 164
v -18 -32 164
v -22 -32 164
v -22 -20 164
v -22 15 164
v -22 20 164
v -22 -32 176
v -18 -29 151
v -18 -31 139
v -22 -21 150
v -22 -29 151
v -22 -31 139
v -22 21 134
v -20 -32 84
v -20 -32 72
v -24 -24 84
v -24 -32 84
v -24 -32 72
v -24 -24 72
v -24 14 72
v -24 20 72
v -19 -30 110
v -19 -29 97
v -23 -22 110
v -23 -30 110
v -23 -29 97
v -23 22 102

f 1 2 3
f 1 3 4
f 4 3 5
f 5 3 6
f 6 3 7
f 7 3 8
f 8 3 9
f 8 9 10
f 10 9 11
f 10 11 12
f 10 12 13
f 13 12 14
f 14 12 15
f 14 15 16
f 16 15 17
f 17 15 18
f 17 18 19
f 19 18 20
f 20 18 21
f 21 18 22
f 21 22 23
f 23 22 24
f 24 22 25
f 25 22 26
f 26 22 27
f 26 27 28
f 28 27 29
f 29 27 30
f 29 30 31
f 31 30 32
f 31 32 33
f 33 32 34
f 34 32 35
f 34 35 36
f 36 35 37
f 37 35 38
f 38 35 39
f 38 39 40
f 40 39 41
f 41 39 42
f 42 39 2
f 42 2 43
f 43 2 1
f 9 44 45
f 9 45 11
f 11 45 12
f 12 45 15
f 15 45 18
f 18 45 46
f 18 46 22
f 22 46 27
f 27 46 30
f 30 46 32
f 32 46 47
f 32 47 35
f 35 47 39
f 39 47 2
f 2 47 44
f 2 44 3
f 3 44 9
f 48 49 47
f 48 47 46
f 48 46 50
f 48 50 51
f 48 51 52
f 48 52 53
f 48 53 54
f 48 54 55
f 48 55 56
f 48 56 57
f 48 57 49
f 49 57 58
f 49 58 59
f 49 59 60
f 49 60 61
f 49 61 62
f 49 62 47
f 47 62 63
f 47 63 64
f 47 64 44
f 44 64 45
f 45 64 65
f 45 65 46
f 46 65 50
f 50 65 66
f 50 66 67
f 50 67 68
f 50 68 69
f 50 69 63
f 50 63 51
f 51 63 62
f 51 62 70
f 51 70 71
f 51 71 72
f 51 72 52
f 52 72 73
f 52 73 74
f 52 74 75
f 52 75 61
f 52 61 53
f 53 61 60
f 53 60 76
f 53 76 77
f 53 77 78
f 53 78 54
f 54 78 79
f 54 79 80
f 54 80 81
f 54 81 59
f 54 59 82
f 82 59 83
f 84 85 86
f 84 86 87
f 84 87 88
f 84 88 89
f 84 89 90
f 84 90 91
f 84 91 57
f 84 57 85
f 85 57 56
f 85 56 92
f 85 92 93
f 85 93 94
f 85 94 95
f 85 95 86
f 86 95 96
f 86 96 87
f 87 96 88
f 88 96 95
f 88 95 89
f 89 95 94
f 89 94 97
f 89 97 90
f 90 97 98
f 90 98 93
f 90 93 58
f 90 58 99
f 90 99 91
f 98 100 93
f 93 100 101
f 93 101 94
f 94 101 97
f 97 101 102
f 97 102 98
f 98 102 100
f 100 102 101
f 56 55 103
f 56 103 104
f 56 104 105
f 56 105 106
f 56 106 92
f 92 106 107
f 92 107 108
f 92 108 109
f 92 109 58
f 92 58 93
f 108 110 109
f 109 110 111
f 109 111 112
f 109 112 55
f 55 112 113
f 55 113 103
f 103 113 114
f 103 114 104
f 104 114 105
f 105 114 113
f 105 113 106
f 106 113 112
f 106 112 107
f 107 112 111
f 107 111 115
f 107 115 108
f 108 115 110
f 110 115 111
f 116 117 60
f 116 60 59
f 116 59 118
f 116 118 119
f 116 119 117
f 117 119 120
f 117 120 60
f 60 120 76
f 76 120 118
f 76 118 81
f 76 81 77
f 77 81 80
f 77 80 121
f 77 121 78
f 78 121 79
f 79 121 80
f 118 120 119
f 81 118 59
f 122 123 64
f 122 64 63
f 122 63 124
f 122 124 125
f 122 125 123
f 123 125 126
f 123 126 64
f 64 126 127
f 64 127 65
f 65 127 128
f 65 128 66
f 66 128 129
f 66 129 67
f 67 129 68
f 68 129 128
f 68 128 69
f 69 128 127
f 69 127 124
f 69 124 63
f 124 127 126
f 124 126 125
f 130 131 62
f 130 62 61
f 130 61 132
f 130 132 133
f 130 133 131
f 131 133 134
f 131 134 62
f 62 134 70
f 70 134 132
f 70 132 75
f 70 75 71
f 71 75 74
f 71 74 135
f 71 135 72
f 72 135 73
f 73 135 74
f 132 134 133
f 75 132 61
f 58 109 59
