# RS2 Model 5005
# Vertices: 48
# Faces: 58

v -43 -18 20
v -59 -26 20
v -53 -34 44
v -37 -25 44
v -37 21 44
v -43 33 20
v -64 -64 0
v -59 -64 20
v -53 -64 44
v -48 -64 64
v -48 -45 64
v -32 -36 64
v -32 39 64
v -53 32 44
v -59 42 20
v -64 64 0
v -48 47 64
v -53 64 44
v -59 64 20
v -58 -28 104
v -42 -19 104
v -42 44 104
v -58 53 104
v -48 64 64
v -44 5 150
v -44 -43 150
v -24 5 240
v -59 10 150
v -59 -49 150
v -39 -23 240
v -24 -18 240
v -58 -64 104
v -59 -64 150
v -39 -64 240
v -58 64 104
v -59 64 150
v -39 10 240
v -39 64 240
v -32 -64 64
v -64 -64 189
v -32 64 64
v -44 -64 150
v -16 -64 276
v -44 64 150
v -17 -64 125
v -42 -64 104
v -48 -64 233
v -42 64 104

f 1 2 3
f 1 3 4
f 1 4 5
f 1 5 6
f 1 6 7
f 1 7 2
f 2 7 8
f 2 8 9
f 2 9 3
f 3 9 10
f 3 10 11
f 3 11 4
f 4 11 12
f 4 12 13
f 4 13 5
f 5 13 14
f 5 14 15
f 5 15 6
f 6 15 16
f 6 16 7
f 13 17 14
f 14 17 18
f 14 18 19
f 14 19 15
f 15 19 16
f 12 11 20
f 12 20 21
f 12 21 22
f 12 22 13
f 13 22 17
f 17 22 23
f 17 23 24
f 17 24 18
f 25 22 21
f 25 21 26
f 25 26 27
f 25 27 28
f 25 28 23
f 25 23 22
f 21 20 29
f 21 29 26
f 26 29 30
f 26 30 31
f 26 31 27
f 20 32 33
f 20 33 29
f 29 33 34
f 29 34 30
f 35 28 36
f 36 28 37
f 36 37 38
f 35 23 28
f 23 35 24
f 27 37 28
f 39 40 41
f 42 43 44
f 11 10 32
f 11 32 20
