# RS2 Model 515
# Vertices: 98
# Faces: 186

v -28 -7 88
v -26 -11 84
v -27 -11 79
v -28 -7 80
v -36 -7 80
v -36 -7 88
v -32 -10 90
v -27 -11 89
v -28 -15 87
v -28 -16 84
v -28 -15 81
v -32 -10 78
v -37 -11 79
v -38 -11 84
v -37 -11 89
v -36 -15 87
v -32 -15 88
v -32 -16 84
v -32 -15 80
v -36 -15 81
v -36 -16 84
v -28 13 88
v -26 9 89
v -25 9 84
v -27 13 84
v -29 13 86
v -31 14 88
v -31 10 90
v -27 6 88
v -27 5 84
v -27 6 80
v -26 9 79
v -28 13 80
v -29 13 82
v -28 93 82
v -28 93 86
v -33 13 86
v -34 13 88
v -36 9 89
v -35 6 88
v -31 6 88
v -29 5 87
v -29 5 82
v -30 5 80
v -32 10 78
v -32 14 80
v -34 13 80
v -33 13 82
v -32 93 82
v -33 93 80
v -31 94 80
v -27 93 80
v -26 93 83
v -27 93 88
v -30 94 88
v -32 93 86
v -35 13 83
v -37 9 83
v -36 5 84
v -35 5 87
v -27 101 88
v -25 97 89
v -24 97 84
v -26 101 84
v -28 101 84
v -28 101 86
v -30 102 88
v -30 98 90
v -25 97 79
v -27 101 80
v -28 101 82
v -28 110 84
v -28 109 86
v -30 111 86
v -30 102 86
v -33 101 88
v -35 97 89
v -34 101 84
v -36 97 84
v -33 93 88
v -34 93 84
v -33 101 80
v -30 102 80
v -30 98 78
v -35 97 79
v -32 101 84
v -32 101 82
v -31 102 82
v -32 101 86
v -32 109 86
v -32 110 84
v -32 109 82
v -30 111 82
v -30 112 84
v -28 109 82
v -35 5 82
v -35 6 80
v -36 9 79

f 1 2 3
f 1 3 4
f 1 4 5
f 1 5 6
f 1 6 7
f 1 7 8
f 1 8 2
f 2 8 9
f 2 9 10
f 2 10 11
f 2 11 3
f 3 11 12
f 3 12 4
f 4 12 13
f 4 13 5
f 5 13 14
f 5 14 6
f 6 14 15
f 6 15 7
f 7 15 16
f 7 16 17
f 7 17 9
f 7 9 8
f 11 10 18
f 11 18 19
f 11 19 12
f 12 19 20
f 12 20 13
f 13 20 14
f 14 20 21
f 14 21 16
f 14 16 15
f 22 23 24
f 22 24 25
f 22 25 26
f 22 26 27
f 22 27 28
f 22 28 23
f 23 28 29
f 23 29 24
f 24 29 30
f 24 30 31
f 24 31 32
f 24 32 33
f 24 33 25
f 25 33 26
f 26 33 34
f 26 34 35
f 26 35 36
f 26 36 37
f 26 37 27
f 27 37 38
f 27 38 28
f 28 38 39
f 28 39 40
f 28 40 41
f 28 41 29
f 29 41 42
f 29 42 30
f 30 42 43
f 30 43 31
f 31 43 44
f 31 44 32
f 32 44 45
f 32 45 33
f 33 45 46
f 33 46 34
f 34 46 47
f 34 47 48
f 34 48 49
f 34 49 35
f 35 49 50
f 35 50 51
f 35 51 52
f 35 52 53
f 35 53 36
f 36 53 54
f 36 54 55
f 36 55 56
f 36 56 37
f 37 56 48
f 37 48 57
f 37 57 38
f 38 57 58
f 38 58 39
f 39 58 40
f 40 58 59
f 40 59 60
f 40 60 42
f 40 42 41
f 61 62 63
f 61 63 64
f 61 64 65
f 61 65 66
f 61 66 67
f 61 67 68
f 61 68 62
f 62 68 54
f 62 54 63
f 63 54 53
f 63 53 52
f 63 52 69
f 63 69 70
f 63 70 64
f 64 70 65
f 65 70 71
f 65 71 72
f 65 72 73
f 65 73 66
f 66 73 74
f 66 74 75
f 66 75 67
f 67 75 76
f 67 76 68
f 68 76 77
f 68 77 55
f 68 55 54
f 76 78 79
f 76 79 77
f 77 79 80
f 77 80 55
f 55 80 56
f 56 80 81
f 56 81 49
f 56 49 48
f 82 83 84
f 82 84 85
f 82 85 79
f 82 79 78
f 82 78 86
f 82 86 87
f 82 87 88
f 82 88 83
f 83 88 71
f 83 71 70
f 83 70 84
f 84 70 69
f 84 69 52
f 84 52 51
f 84 51 50
f 84 50 85
f 85 50 79
f 79 50 81
f 79 81 80
f 76 75 89
f 76 89 86
f 76 86 78
f 90 89 75
f 90 75 74
f 90 74 91
f 90 91 86
f 90 86 89
f 92 93 88
f 92 88 87
f 92 87 91
f 92 91 94
f 92 94 93
f 93 94 72
f 93 72 95
f 93 95 71
f 93 71 88
f 91 74 94
f 94 74 73
f 94 73 72
f 71 95 72
f 91 87 86
f 21 20 19
f 21 19 18
f 21 18 16
f 16 18 17
f 17 18 10
f 17 10 9
f 96 97 44
f 96 44 43
f 97 98 45
f 97 45 44
f 45 98 47
f 45 47 46
f 48 47 57
f 57 47 58
f 58 47 98
f 58 98 97
f 58 97 59
f 59 97 96
f 59 96 60
f 81 50 49
