# RS2 Model 5152
# Vertices: 20
# Faces: 36

v 35 13 4
v 33 15 0
v 30 19 1
v 30 19 7
v 33 15 8
v -4 -14 7
v -2 -16 4
v -4 -14 1
v -6 -11 3
v -6 -11 5
v -9 -19 7
v -8 -20 4
v -9 -19 1
v -12 -16 3
v -12 -16 5
v -48 -51 8
v -46 -53 4
v -48 -51 0
v -51 -47 1
v -51 -47 7

f 1 2 3
f 1 3 4
f 1 4 5
f 1 5 6
f 1 6 7
f 1 7 2
f 2 7 8
f 2 8 3
f 3 8 9
f 3 9 4
f 4 9 10
f 4 10 5
f 5 10 6
f 6 10 11
f 6 11 12
f 6 12 7
f 7 12 13
f 7 13 8
f 8 13 14
f 8 14 9
f 9 14 15
f 9 15 10
f 10 15 11
f 11 15 16
f 11 16 17
f 11 17 12
f 12 17 18
f 12 18 13
f 13 18 19
f 13 19 14
f 14 19 20
f 14 20 15
f 15 20 16
f 16 20 17
f 17 20 19
f 17 19 18
