# RS2 Model 5176
# Vertices: 250
# Faces: 492

v 2 -73 162
v 0 -72 153
v 5 -68 157
v 7 -71 164
v 4 -73 167
v 1 -73 169
v 0 -75 163
v 0 -74 168
v -1 -73 169
v -2 -73 162
v -4 -73 167
v -7 -71 164
v -5 -68 157
v -2 -64 154
v 2 -64 154
v -9 -64 163
v -9 -61 162
v -8 -56 160
v -4 -53 158
v -6 -60 142
v 6 -60 142
v 4 -53 158
v 8 -56 160
v 9 -61 162
v 9 -64 163
v -7 -73 169
v -3 -73 171
v -3 -73 172
v -7 -73 172
v -9 -67 170
v -4 -73 168
v 0 -73 172
v -2 -74 173
v -6 -73 177
v -15 -60 172
v -9 -63 168
v -9 -65 166
v -9 -63 166
v -10 -58 167
v -9 -58 167
v -7 -51 173
v 7 -51 173
v 0 -39 143
v -13 -54 133
v 0 -58 129
v 13 -54 133
v 2 -73 172
v 2 -74 173
v 0 -73 177
v 0 -72 179
v -4 -58 183
v -9 -59 169
v -10 -63 168
v 3 -73 171
v 7 -73 169
v 8 -75 170
v 3 -75 178
v 6 -73 177
v 4 -58 183
v 0 -53 179
v 15 -60 172
v 9 -59 169
v 9 -58 167
v 4 -73 168
v 9 -65 166
v 9 -67 170
v 28 -64 166
v 27 -57 166
v 26 -57 177
v 27 -64 178
v 25 -61 143
v 21 -60 182
v 10 -63 168
v 10 -58 167
v 10 -59 169
v 9 -63 168
v 9 -63 166
v -10 -59 169
v -27 -64 178
v -26 -57 177
v -27 -57 166
v -28 -64 166
v -21 -60 182
v -25 -61 143
v -6 88 38
v -2 106 24
v 2 107 23
v 6 89 36
v 0 74 100
v -4 81 110
v -12 95 73
v 12 96 75
v 4 81 110
v 0 71 125
v -29 -22 63
v -29 -21 82
v 0 -17 67
v -16 -22 67
v -16 -27 45
v -29 -27 45
v -30 -35 62
v -34 -32 93
v -29 -27 113
v -26 -16 109
v -22 6 82
v 0 -6 67
v 29 -21 82
v 29 -22 63
v 16 -22 67
v 17 -40 82
v 0 -37 74
v -17 -40 82
v -18 -37 62
v -16 -37 50
v -17 -40 30
v -18 -35 23
v -26 -35 23
v -26 -40 30
v -29 -37 50
v -18 -39 94
v -29 -43 120
v -18 -32 136
v -16 -19 133
v -9 -11 127
v -26 -4 107
v -23 12 106
v -21 32 80
v 0 32 70
v 0 13 71
v 22 6 82
v 26 -16 109
v 29 -27 113
v 34 -32 93
v 30 -35 62
v 29 -27 45
v 16 -27 45
v 18 -37 62
v 18 -39 94
v 18 -60 105
v 0 -52 93
v -18 -60 105
v -16 -66 118
v 0 14 125
v -8 -3 124
v -5 12 121
v -30 29 106
v -26 36 82
v -20 39 49
v 0 65 66
v 20 39 49
v 21 32 80
v -29 -48 13
v -18 -47 12
v -18 -39 12
v -29 -39 12
v -34 -60 0
v -30 -41 0
v -18 -41 0
v -17 -60 0
v -18 -62 8
v -29 -62 8
v 29 -37 50
v 26 -40 30
v 26 -35 23
v 18 -35 23
v 17 -40 30
v 16 -37 50
v 29 -43 120
v 16 -66 118
v 7 -66 119
v -6 -66 119
v 18 -32 136
v 29 -39 12
v 29 -48 13
v 34 -60 0
v 30 -41 0
v 18 -39 12
v 18 -47 12
v 29 -62 8
v 18 -62 8
v 17 -59 0
v 18 -41 0
v -34 76 0
v -32 78 9
v -30 89 16
v -30 87 4
v -18 87 4
v -17 76 0
v -18 71 5
v -29 72 5
v -17 78 9
v -17 76 28
v -26 76 28
v -26 86 28
v -18 89 16
v -29 69 40
v -29 85 47
v -16 85 47
v -18 86 28
v -16 69 40
v 30 89 16
v 32 78 9
v 34 76 0
v 30 87 4
v 18 89 16
v 26 86 28
v 26 76 28
v 17 76 28
v 17 78 9
v 29 72 5
v 18 72 5
v 17 76 0
v 18 87 4
v 18 86 28
v 16 85 47
v 29 85 47
v 29 69 40
v 16 69 40
v 29 65 66
v 36 48 90
v 26 46 50
v 4 71 70
v 29 61 77
v 26 63 103
v 22 52 114
v 32 37 104
v 26 36 82
v -4 71 70
v -29 65 66
v -29 61 77
v -18 69 90
v 18 69 90
v 0 57 131
v 8 42 124
v 4 27 120
v 30 29 106
v -22 52 114
v -26 63 103
v -36 48 90
v -32 37 104
v -8 42 124
v -26 46 50
v -4 27 120
v 0 39 131
v 5 12 121
v 23 12 106
v 26 -4 107
v 9 -11 127
v 16 -19 133
v 8 -3 124

f 1 2 3
f 1 3 4
f 1 4 5
f 1 5 6
f 1 6 7
f 7 6 8
f 7 8 9
f 7 9 10
f 10 9 11
f 10 11 12
f 10 12 13
f 10 13 2
f 10 2 1
f 14 15 2
f 14 2 13
f 14 13 16
f 14 16 17
f 14 17 18
f 14 18 19
f 14 19 20
f 14 20 15
f 15 20 21
f 15 21 22
f 15 22 23
f 15 23 24
f 15 24 25
f 15 25 3
f 15 3 2
f 26 27 28
f 26 28 29
f 26 29 30
f 26 30 12
f 26 12 11
f 26 11 31
f 26 31 9
f 26 9 27
f 27 9 28
f 28 9 32
f 28 32 33
f 28 33 29
f 29 33 34
f 29 34 30
f 30 34 35
f 30 35 36
f 30 36 37
f 30 37 12
f 12 37 13
f 13 37 16
f 16 37 38
f 16 38 39
f 16 39 17
f 17 39 40
f 17 40 18
f 18 40 41
f 18 41 19
f 19 41 42
f 19 42 22
f 19 22 43
f 19 43 20
f 20 43 44
f 20 44 45
f 20 45 21
f 21 45 46
f 21 46 43
f 21 43 22
f 11 9 31
f 8 32 9
f 32 8 6
f 32 6 47
f 32 47 48
f 32 48 49
f 32 49 33
f 33 49 34
f 34 49 50
f 34 50 51
f 34 51 35
f 35 51 41
f 35 41 52
f 35 52 36
f 36 52 53
f 36 53 38
f 36 38 37
f 47 54 55
f 47 55 56
f 47 56 48
f 48 56 57
f 48 57 49
f 49 57 58
f 49 58 50
f 50 58 59
f 50 59 51
f 51 59 60
f 51 60 41
f 41 60 42
f 42 60 59
f 42 59 61
f 42 61 62
f 42 62 63
f 42 63 23
f 42 23 22
f 54 47 6
f 54 6 55
f 55 6 64
f 55 64 5
f 55 5 4
f 55 4 65
f 55 65 56
f 56 65 66
f 56 66 58
f 56 58 57
f 64 6 5
f 67 68 69
f 67 69 70
f 67 70 61
f 67 61 71
f 67 71 68
f 68 71 61
f 68 61 69
f 69 61 72
f 69 72 70
f 70 72 61
f 73 74 75
f 73 75 62
f 73 62 76
f 73 76 77
f 73 77 74
f 74 77 25
f 74 25 24
f 74 24 63
f 74 63 75
f 75 63 62
f 78 39 53
f 78 53 52
f 78 52 40
f 78 40 39
f 38 53 39
f 25 77 65
f 25 65 3
f 3 65 4
f 24 23 63
f 61 76 62
f 76 61 66
f 76 66 65
f 76 65 77
f 61 58 66
f 58 61 59
f 41 40 52
f 79 80 81
f 79 81 82
f 79 82 35
f 79 35 83
f 79 83 80
f 80 83 35
f 80 35 81
f 81 35 84
f 81 84 82
f 82 84 35
f 85 86 87
f 85 87 88
f 85 88 89
f 85 89 90
f 85 90 91
f 85 91 86
f 86 91 87
f 87 91 92
f 87 92 88
f 88 92 93
f 88 93 89
f 89 93 94
f 89 94 90
f 90 94 93
f 90 93 91
f 91 93 92
f 95 96 97
f 95 97 98
f 95 98 99
f 95 99 100
f 95 100 101
f 95 101 102
f 95 102 96
f 96 102 103
f 96 103 104
f 96 104 105
f 96 105 106
f 96 106 97
f 97 106 107
f 97 107 108
f 97 108 109
f 97 109 110
f 97 110 111
f 97 111 112
f 97 112 98
f 98 112 113
f 98 113 99
f 99 113 114
f 99 114 115
f 99 115 116
f 99 116 117
f 99 117 100
f 100 117 118
f 100 118 119
f 100 119 101
f 101 119 113
f 101 113 102
f 102 113 112
f 102 112 120
f 102 120 121
f 102 121 103
f 103 121 122
f 103 122 123
f 103 123 104
f 104 123 124
f 104 124 125
f 104 125 105
f 105 125 126
f 105 126 127
f 105 127 128
f 105 128 129
f 105 129 106
f 106 129 130
f 106 130 107
f 107 130 131
f 107 131 132
f 107 132 133
f 107 133 108
f 108 133 134
f 108 134 135
f 108 135 136
f 108 136 109
f 109 136 137
f 109 137 110
f 110 137 133
f 110 133 138
f 110 138 139
f 110 139 140
f 110 140 111
f 111 140 112
f 112 140 141
f 112 141 120
f 120 141 142
f 120 142 121
f 121 142 122
f 122 142 44
f 122 44 43
f 122 43 123
f 123 43 143
f 123 143 124
f 124 143 144
f 124 144 125
f 125 144 126
f 126 144 145
f 126 145 146
f 126 146 127
f 127 146 147
f 127 147 148
f 127 148 128
f 128 148 149
f 128 149 150
f 128 150 151
f 128 151 130
f 128 130 129
f 119 114 113
f 114 119 115
f 115 119 118
f 115 118 152
f 115 152 153
f 115 153 116
f 116 153 154
f 116 154 117
f 117 154 155
f 117 155 152
f 117 152 118
f 156 152 155
f 156 155 157
f 156 157 158
f 156 158 159
f 156 159 160
f 156 160 161
f 156 161 152
f 152 161 153
f 153 161 160
f 153 160 159
f 153 159 158
f 153 158 154
f 154 158 157
f 154 157 155
f 134 162 135
f 135 162 163
f 135 163 164
f 135 164 136
f 136 164 165
f 136 165 166
f 136 166 167
f 136 167 137
f 137 167 162
f 137 162 134
f 137 134 133
f 133 168 138
f 138 168 169
f 138 169 139
f 139 169 170
f 139 170 140
f 140 170 45
f 140 45 171
f 140 171 141
f 141 171 142
f 142 171 44
f 44 171 45
f 133 132 168
f 168 132 172
f 168 172 169
f 169 172 46
f 169 46 170
f 170 46 45
f 173 174 175
f 173 175 176
f 173 176 177
f 173 177 164
f 173 164 174
f 174 164 163
f 174 163 166
f 174 166 178
f 174 178 179
f 174 179 175
f 175 179 180
f 175 180 181
f 175 181 182
f 175 182 176
f 176 182 177
f 177 182 178
f 177 178 165
f 177 165 164
f 181 178 182
f 178 181 180
f 178 180 179
f 166 165 178
f 162 167 166
f 162 166 163
f 183 184 185
f 183 185 186
f 183 186 187
f 183 187 188
f 183 188 189
f 183 189 190
f 183 190 184
f 184 190 191
f 184 191 192
f 184 192 193
f 184 193 194
f 184 194 185
f 185 194 195
f 185 195 186
f 186 195 187
f 187 195 191
f 187 191 188
f 188 191 189
f 189 191 190
f 193 196 197
f 193 197 194
f 194 197 198
f 194 198 199
f 194 199 195
f 195 199 191
f 191 199 192
f 192 199 198
f 192 198 200
f 192 200 196
f 192 196 193
f 201 202 203
f 201 203 204
f 201 204 205
f 201 205 206
f 201 206 202
f 202 206 207
f 202 207 208
f 202 208 209
f 202 209 210
f 202 210 203
f 203 210 211
f 203 211 212
f 203 212 213
f 203 213 204
f 204 213 205
f 205 213 209
f 205 209 214
f 205 214 206
f 206 214 215
f 206 215 216
f 206 216 207
f 207 216 217
f 207 217 208
f 208 217 218
f 208 218 215
f 208 215 214
f 208 214 209
f 212 209 213
f 209 212 211
f 209 211 210
f 219 220 221
f 219 221 217
f 219 217 216
f 219 216 149
f 219 149 222
f 219 222 223
f 219 223 220
f 220 223 224
f 220 224 225
f 220 225 226
f 220 226 227
f 220 227 150
f 220 150 221
f 221 150 218
f 221 218 217
f 128 222 149
f 128 149 228
f 228 149 229
f 228 229 230
f 228 230 231
f 228 231 89
f 228 89 222
f 222 89 232
f 222 232 223
f 223 232 224
f 224 232 94
f 224 94 225
f 225 94 233
f 225 233 234
f 225 234 226
f 226 234 235
f 226 235 236
f 226 236 227
f 227 236 151
f 227 151 150
f 150 149 218
f 218 149 215
f 215 149 216
f 237 238 239
f 237 239 240
f 237 240 241
f 237 241 233
f 237 233 94
f 237 94 238
f 238 94 231
f 238 231 230
f 238 230 239
f 239 230 229
f 239 229 242
f 239 242 148
f 239 148 147
f 239 147 240
f 240 147 146
f 240 146 243
f 240 243 241
f 241 243 244
f 241 244 233
f 233 244 234
f 234 244 235
f 235 244 143
f 235 143 245
f 235 245 236
f 236 245 246
f 236 246 151
f 151 246 130
f 130 246 247
f 130 247 131
f 131 247 248
f 131 248 249
f 131 249 132
f 132 249 172
f 172 249 43
f 172 43 46
f 200 149 148
f 200 148 242
f 200 242 196
f 196 242 229
f 196 229 197
f 197 229 149
f 197 149 198
f 198 149 200
f 248 250 143
f 248 143 249
f 249 143 43
f 143 145 144
f 145 143 243
f 145 243 146
f 250 245 143
f 245 250 246
f 246 250 247
f 247 250 248
f 143 244 243
f 89 94 232
f 94 89 231
