# RS2 Model 5181
# Vertices: 68
# Faces: 113

v -32 -4 94
v -29 -1 93
v -27 -1 98
v -32 -6 99
v -38 1 97
v -36 0 93
v -32 -4 92
v -29 -1 91
v -32 4 91
v -32 4 93
v -32 7 98
v -28 0 99
v -32 -4 100
v -36 1 98
v -36 0 91
v -37 -4 86
v -34 -7 87
v -29 -7 87
v -26 -7 86
v -26 1 84
v -29 5 87
v -34 5 87
v -37 3 80
v -38 -6 80
v -34 -7 82
v -29 -7 82
v -29 -6 78
v -29 3 78
v -29 5 82
v -34 5 82
v -32 5 99
v 32 -4 94
v 32 -6 99
v 27 -1 98
v 29 -1 93
v 32 -4 92
v 36 0 93
v 38 1 97
v 36 1 98
v 32 -4 100
v 28 0 99
v 32 7 98
v 32 4 93
v 32 4 91
v 29 -1 91
v 26 -7 86
v 29 -7 87
v 34 -7 87
v 37 -4 86
v 36 0 91
v 32 5 99
v 29 -6 78
v 29 -7 82
v 34 -7 82
v 38 -6 80
v 37 3 80
v 34 5 87
v 29 5 87
v 26 1 84
v 29 3 78
v 29 5 82
v 34 5 82
v -23 11 77
v -23 -15 77
v -41 11 84
v 22 10 77
v 41 13 84
v 25 -16 78

f 1 2 3
f 1 3 4
f 1 4 5
f 1 5 6
f 1 6 7
f 1 7 2
f 2 7 8
f 2 8 9
f 2 9 10
f 2 10 3
f 3 10 11
f 3 11 12
f 3 12 4
f 4 12 13
f 4 13 14
f 4 14 5
f 5 14 11
f 5 11 10
f 5 10 6
f 6 10 9
f 6 9 15
f 6 15 7
f 7 15 16
f 7 16 17
f 7 17 18
f 7 18 19
f 7 19 8
f 8 19 20
f 8 20 21
f 8 21 9
f 9 21 22
f 9 22 15
f 15 22 23
f 15 23 16
f 16 23 24
f 16 24 17
f 17 24 25
f 17 25 18
f 18 25 26
f 18 26 19
f 19 26 27
f 19 27 20
f 20 27 28
f 20 28 29
f 20 29 21
f 21 29 22
f 22 29 30
f 22 30 23
f 23 30 28
f 23 28 24
f 24 28 27
f 24 27 25
f 25 27 26
f 28 30 29
f 11 14 31
f 11 31 12
f 32 33 34
f 32 34 35
f 32 35 36
f 32 36 37
f 32 37 38
f 32 38 33
f 33 38 39
f 33 39 40
f 33 40 41
f 33 41 34
f 34 41 42
f 34 42 43
f 34 43 35
f 35 43 44
f 35 44 45
f 35 45 36
f 36 45 46
f 36 46 47
f 36 47 48
f 36 48 49
f 36 49 50
f 36 50 37
f 37 50 44
f 37 44 43
f 37 43 38
f 38 43 42
f 38 42 39
f 39 42 51
f 51 42 41
f 46 52 53
f 46 53 47
f 47 53 54
f 47 54 48
f 48 54 55
f 48 55 49
f 49 55 56
f 49 56 50
f 50 56 57
f 50 57 44
f 44 57 58
f 44 58 45
f 45 58 59
f 45 59 46
f 46 59 52
f 52 59 60
f 52 60 55
f 52 55 54
f 52 54 53
f 60 61 62
f 60 62 56
f 60 56 55
f 58 61 59
f 59 61 60
f 57 56 62
f 57 62 61
f 57 61 58
f 63 64 65
