# RS2 Model 5188
# Vertices: 138
# Faces: 175

v 27 16 60
v 27 -32 66
v 52 -36 100
v 52 -3 50
v 23 38 30
v -27 16 60
v 0 -9 72
v 0 -41 66
v 18 -41 41
v 25 -39 37
v 34 -26 50
v -52 -3 50
v -27 -32 66
v -52 -36 100
v -23 38 30
v -54 -12 20
v -52 -23 25
v -34 -26 50
v -25 -39 38
v -18 -41 41
v -17 -70 -12
v 18 -70 -12
v 0 -78 -17
v -12 -85 -5
v -21 -58 15
v -19 -49 2
v 21 -49 2
v 21 -58 15
v 12 -85 -5
v 0 -93 1
v -12 -52 28
v -30 -36 28
v -27 -37 9
v 27 -37 9
v 52 -23 25
v 30 -36 28
v 12 -52 28
v 0 -54 29
v -8 -47 32
v -19 -38 29
v -26 -39 35
v 19 -38 29
v 26 -39 35
v 54 -12 20
v 40 6 -16
v 19 51 -6
v -19 51 -6
v 9 -46 36
v 8 -47 32
v -9 -46 36
v 17 -46 34
v -17 -46 34
v 14 -43 36
v 14 -43 33
v 17 -42 31
v 19 -41 31
v 22 -40 33
v 22 -40 36
v 19 -41 39
v 17 -42 39
v 15 -43 36
v 15 -43 33
v 17 -43 32
v 19 -43 32
v 21 -43 33
v 21 -42 36
v 19 -42 38
v 17 -43 38
v -17 -42 39
v -19 -41 39
v -22 -40 36
v -22 -40 33
v -19 -42 31
v -17 -43 31
v -14 -44 33
v -14 -44 36
v -17 -43 38
v -19 -42 38
v -21 -41 36
v -21 -41 33
v -19 -43 32
v -17 -43 32
v -15 -44 33
v -15 -44 36
v 9 -70 -15
v 9 -69 -14
v 7 -75 -8
v 6 -70 -17
v 6 -70 -15
v -7 -75 -8
v -9 -69 -14
v -9 -70 -15
v -6 -70 -17
v -6 -70 -15
v 11 -76 -10
v 11 -77 -11
v 9 -68 -17
v 7 -75 -7
v 7 -76 -10
v -9 -68 -17
v -11 -77 -11
v -11 -76 -10
v -7 -75 -7
v -7 -76 -10
v 13 -16 -53
v 40 24 -40
v 16 63 -35
v -16 63 -35
v -40 6 -16
v -14 -16 -53
v -18 -34 -11
v -18 -48 2
v 20 -48 2
v 19 -34 -11
v -10 -66 -24
v -14 -68 -12
v 15 -68 -12
v 11 -66 -24
v 0 -76 -17
v -40 24 -40
v -18 -44 -51
v 18 -44 -51
v -18 -75 -4
v 67 -19 94
v 46 -39 100
v 40 -6 42
v 17 -69 -12
v 17 -104 7
v -17 -69 -12
v 72 -50 64
v 70 27 60
v -70 -55 64
v 28 -128 -16
v -28 -128 -16
v 28 -81 -56
v -49 -66 94
v -84 -34 100
v -15 -22 53

f 1 2 3
f 1 3 4
f 1 4 5
f 1 5 6
f 1 6 7
f 1 7 2
f 2 7 8
f 2 8 9
f 2 9 10
f 2 10 11
f 2 11 4
f 2 4 3
f 12 13 14
f 12 14 6
f 12 6 15
f 12 15 16
f 12 16 17
f 12 17 18
f 12 18 13
f 13 18 19
f 13 19 20
f 13 20 8
f 13 8 7
f 13 7 6
f 13 6 14
f 21 22 23
f 21 23 24
f 21 24 25
f 21 25 26
f 21 26 27
f 21 27 22
f 22 27 28
f 22 28 29
f 22 29 23
f 23 29 24
f 24 29 30
f 24 30 31
f 24 31 25
f 25 31 32
f 25 32 17
f 25 17 33
f 25 33 26
f 26 33 34
f 26 34 27
f 27 34 28
f 28 34 35
f 28 35 36
f 28 36 37
f 28 37 29
f 29 37 30
f 30 37 38
f 30 38 31
f 31 38 39
f 31 39 40
f 31 40 32
f 32 40 41
f 32 41 18
f 32 18 17
f 9 42 43
f 9 43 10
f 10 43 11
f 11 43 36
f 11 36 35
f 11 35 4
f 4 35 44
f 4 44 5
f 5 44 45
f 5 45 46
f 5 46 47
f 5 47 15
f 5 15 6
f 48 49 42
f 48 42 9
f 48 9 8
f 48 8 50
f 48 50 39
f 48 39 49
f 48 49 51
f 48 51 9
f 9 51 10
f 10 51 43
f 19 41 40
f 19 40 20
f 20 40 39
f 20 39 50
f 20 50 8
f 50 20 52
f 50 52 39
f 53 54 55
f 53 55 56
f 53 56 57
f 53 57 58
f 53 58 59
f 53 59 60
f 61 62 63
f 61 63 64
f 61 64 65
f 61 65 66
f 61 66 67
f 61 67 68
f 69 70 71
f 69 71 72
f 69 72 73
f 69 73 74
f 69 74 75
f 69 75 76
f 77 78 79
f 77 79 80
f 77 80 81
f 77 81 82
f 77 82 83
f 77 83 84
f 20 19 52
f 52 19 41
f 41 19 18
f 85 86 87
f 85 87 88
f 88 87 89
f 89 87 86
f 90 91 92
f 90 92 93
f 90 93 94
f 90 94 91
f 95 96 97
f 95 97 98
f 98 97 99
f 99 97 96
f 100 101 102
f 100 102 103
f 100 103 104
f 100 104 101
f 37 49 38
f 38 49 39
f 44 34 45
f 45 34 105
f 45 105 106
f 45 106 107
f 45 107 46
f 46 107 47
f 47 107 108
f 47 108 109
f 47 109 15
f 15 109 16
f 16 109 33
f 16 33 17
f 42 49 37
f 42 37 36
f 42 36 43
f 44 35 34
f 33 109 110
f 33 110 111
f 33 111 112
f 33 112 34
f 34 112 113
f 34 113 114
f 34 114 105
f 105 114 110
f 110 114 111
f 111 114 115
f 111 115 116
f 111 116 112
f 112 116 113
f 113 116 117
f 113 117 114
f 114 117 118
f 114 118 115
f 115 118 119
f 115 119 116
f 116 119 117
f 117 119 118
f 120 110 109
f 120 109 108
f 121 122 123
f 124 125 126
f 127 128 129
