# RS2 Model 5232
# Vertices: 126
# Faces: 238

v -34 -7 87
v -34 -7 82
v -35 -44 99
v -35 -42 105
v -29 -7 87
v -29 -42 105
v -29 -44 98
v -29 -7 82
v -36 -80 116
v -36 -77 124
v -28 -77 124
v -28 -81 115
v -36 -84 109
v -36 -90 112
v -36 -86 120
v -36 -83 126
v -36 -74 131
v -28 -74 131
v -28 -79 133
v -28 -83 126
v -28 -86 120
v -28 -84 109
v -28 -90 112
v -36 -89 122
v -36 -87 127
v -28 -87 127
v -36 -79 133
v -35 56 60
v -36 108 37
v -36 105 31
v -35 54 54
v -34 5 82
v -30 5 82
v -29 56 60
v -28 108 37
v -28 105 31
v -29 54 54
v -30 3 79
v -34 3 79
v -28 -94 118
v -28 -91 124
v -28 -96 127
v -28 -101 117
v -36 -101 117
v -36 -94 118
v -28 -89 122
v -28 -89 128
v -28 -94 131
v -28 -101 131
v -36 -100 131
v -36 -96 127
v -28 -98 135
v -28 -112 123
v -28 -103 127
v -36 -103 127
v -36 -106 130
v -36 -98 135
v -36 -94 132
v -36 -89 128
v -36 -91 124
v -28 -108 147
v -28 -106 151
v -28 -116 152
v -36 -116 152
v -36 -108 147
v -28 -104 138
v -28 -100 144
v -36 -100 144
v -36 -106 151
v -36 -104 138
v -28 -106 130
v -36 -112 123
v -36 -87 133
v -28 -87 133
v -28 -90 140
v -36 -90 140
v -32 -114 155
v -34 -122 153
v -30 -122 153
v -24 -116 153
v -24 -112 153
v -30 -106 153
v -34 -106 153
v -40 -112 153
v -40 -116 153
v -37 -129 147
v -27 -129 147
v -16 -119 147
v -16 -109 147
v -27 -99 147
v -37 -99 147
v -48 -109 147
v -48 -119 147
v -39 -132 140
v -25 -132 140
v -13 -121 140
v -13 -107 140
v -25 -96 140
v -39 -96 140
v -51 -107 140
v -51 -121 140
v -39 -132 134
v -25 -132 134
v -13 -121 134
v -13 -107 134
v -25 -96 134
v -39 -96 134
v -51 -107 134
v -51 -121 134
v -37 -129 127
v -27 -129 127
v -16 -119 127
v -16 -109 127
v -27 -99 127
v -37 -99 127
v -48 -109 127
v -48 -119 127
v -34 -122 122
v -30 -122 122
v -24 -116 122
v -24 -112 122
v -30 -106 122
v -34 -106 122
v -40 -112 122
v -40 -116 122
v -32 -114 119

f 1 2 3
f 1 3 4
f 1 4 5
f 5 4 6
f 5 6 7
f 5 7 8
f 8 7 2
f 2 7 3
f 3 7 9
f 3 9 4
f 4 9 10
f 4 10 11
f 4 11 6
f 6 11 12
f 6 12 7
f 7 12 9
f 9 12 13
f 9 13 14
f 9 14 15
f 9 15 16
f 9 16 10
f 10 16 17
f 10 17 18
f 10 18 11
f 11 18 19
f 11 19 20
f 11 20 21
f 11 21 12
f 12 21 22
f 12 22 13
f 13 22 14
f 14 22 23
f 14 23 15
f 15 23 21
f 15 21 24
f 15 24 25
f 15 25 16
f 16 25 26
f 16 26 20
f 16 20 27
f 16 27 17
f 17 27 19
f 17 19 18
f 28 29 30
f 28 30 31
f 28 31 32
f 28 32 33
f 28 33 34
f 28 34 35
f 28 35 29
f 29 35 30
f 30 35 36
f 30 36 37
f 30 37 31
f 31 37 38
f 31 38 39
f 31 39 32
f 36 35 34
f 36 34 37
f 37 34 33
f 37 33 38
f 40 41 42
f 40 42 43
f 40 43 44
f 40 44 45
f 40 45 46
f 40 46 41
f 41 46 26
f 41 26 47
f 41 47 42
f 42 47 48
f 42 48 49
f 42 49 50
f 42 50 51
f 42 51 44
f 42 44 43
f 48 52 49
f 49 52 53
f 49 53 54
f 49 54 55
f 49 55 50
f 50 55 56
f 50 56 57
f 50 57 51
f 51 57 58
f 51 58 59
f 51 59 60
f 51 60 45
f 51 45 44
f 61 62 63
f 61 63 64
f 61 64 65
f 61 65 66
f 61 66 67
f 61 67 62
f 62 67 68
f 62 68 69
f 62 69 63
f 63 69 64
f 64 69 65
f 65 69 70
f 65 70 66
f 66 70 71
f 66 71 67
f 67 71 52
f 67 52 57
f 67 57 68
f 68 57 70
f 68 70 69
f 52 71 53
f 53 71 56
f 53 56 72
f 53 72 54
f 54 72 55
f 55 72 56
f 20 26 46
f 20 46 21
f 21 46 24
f 24 46 45
f 24 45 60
f 24 60 25
f 25 60 59
f 25 59 73
f 25 73 74
f 25 74 26
f 26 74 47
f 47 74 48
f 48 74 75
f 48 75 58
f 48 58 52
f 52 58 57
f 21 23 22
f 57 56 70
f 70 56 71
f 75 74 73
f 75 73 76
f 75 76 58
f 58 76 73
f 58 73 59
f 74 25 74
f 74 74 47
f 20 19 27
f 77 78 79
f 77 79 80
f 77 80 81
f 77 81 82
f 77 82 83
f 77 83 84
f 77 84 85
f 77 85 78
f 78 85 86
f 78 86 79
f 79 86 87
f 79 87 88
f 79 88 80
f 80 88 89
f 80 89 81
f 81 89 90
f 81 90 82
f 82 90 91
f 82 91 83
f 83 91 92
f 83 92 84
f 84 92 85
f 85 92 93
f 85 93 86
f 86 93 94
f 86 94 87
f 87 94 95
f 87 95 96
f 87 96 88
f 88 96 97
f 88 97 89
f 89 97 98
f 89 98 90
f 90 98 99
f 90 99 91
f 91 99 100
f 91 100 92
f 92 100 93
f 93 100 101
f 93 101 94
f 94 101 102
f 94 102 103
f 94 103 95
f 95 103 104
f 95 104 96
f 96 104 105
f 96 105 97
f 97 105 106
f 97 106 98
f 98 106 107
f 98 107 99
f 99 107 108
f 99 108 100
f 100 108 109
f 100 109 101
f 101 109 102
f 102 109 110
f 102 110 103
f 103 110 111
f 103 111 112
f 103 112 104
f 104 112 105
f 105 112 113
f 105 113 114
f 105 114 106
f 106 114 115
f 106 115 107
f 107 115 116
f 107 116 108
f 108 116 117
f 108 117 109
f 109 117 110
f 110 117 118
f 110 118 111
f 111 118 119
f 111 119 120
f 111 120 112
f 112 120 113
f 113 120 121
f 113 121 122
f 113 122 114
f 114 122 123
f 114 123 115
f 115 123 124
f 115 124 116
f 116 124 125
f 116 125 117
f 117 125 118
f 118 125 126
f 118 126 119
f 119 126 120
f 120 126 121
f 121 126 122
f 122 126 123
f 123 126 124
f 124 126 125
