# RS2 Model 5276
# Vertices: 167
# Faces: 236

v -56 -40 0
v -42 -48 0
v -50 -63 22
v -63 -55 22
v -27 5 40
v -34 -10 63
v -14 -3 40
v -21 -19 63
v -60 70 0
v -59 23 0
v -59 23 53
v -60 70 53
v -18 70 0
v -18 70 53
v -19 23 0
v -19 23 53
v -27 23 3
v -31 -17 3
v -31 -17 27
v -27 23 27
v -13 23 3
v -13 23 27
v -18 -18 3
v -18 -18 27
v 18 -2 8
v -30 17 42
v -34 2 44
v 13 -18 11
v -1 -18 -8
v 4 -2 -12
v -44 17 22
v -48 2 24
v -17 69 3
v -15 53 3
v -15 53 27
v -17 69 27
v -26 42 66
v -32 35 66
v -32 32 53
v -23 43 53
v -35 49 66
v -39 37 66
v -42 35 53
v -36 53 53
v 17 35 12
v 11 28 12
v 11 25 3
v 20 36 3
v 8 42 12
v 4 30 12
v 1 28 3
v 7 46 3
v 34 25 10
v 30 30 10
v 29 31 1
v 34 22 1
v 41 29 10
v 34 34 10
v 33 37 1
v 44 29 1
v 24 70 3
v -16 69 3
v -16 69 27
v 24 70 27
v 23 53 3
v 23 53 27
v -16 53 3
v -16 53 27
v -48 43 89
v -63 40 97
v -64 64 102
v -52 67 94
v 19 60 45
v 20 85 48
v 41 65 31
v 38 90 38
v 39 90 40
v 43 65 32
v 20 60 46
v 21 85 50
v -48 42 91
v -51 66 95
v -62 39 99
v -62 65 103
v 54 -26 13
v 58 -50 5
v 57 -49 4
v 52 -25 10
v 31 -38 24
v 32 -64 21
v 30 -38 22
v -27 -38 64
v -31 -75 61
v -28 -38 62
v -50 -51 78
v -48 -78 71
v -51 -51 77
v -49 -78 70
v -32 -75 60
v 31 -64 19
v 23 -47 29
v 29 -105 16
v 10 -112 28
v -2 -42 46
v 6 96 62
v 10 94 66
v 26 -48 35
v 32 -105 21
v 13 -113 33
v 1 -43 51
v -14 88 75
v 4 120 67
v 7 119 71
v -12 117 84
v -12 86 78
v -15 119 79
v -23 -72 56
v -22 -118 49
v -42 -122 61
v -46 -80 72
v -34 38 80
v -31 38 85
v -21 -74 60
v -21 -118 54
v -38 -123 66
v -44 -81 75
v -58 31 95
v -41 109 96
v -39 109 100
v -62 102 115
v -56 30 100
v -64 102 111
v -17 -87 57
v -13 -117 49
v 6 -113 37
v 1 -79 45
v -30 69 89
v -34 69 84
v -16 -86 50
v -16 -116 45
v 4 -113 32
v -1 -77 41
v -10 68 75
v -35 109 98
v -38 110 94
v -21 119 83
v -13 68 72
v -19 116 88
v 49 -33 14
v 56 -93 1
v 37 -103 11
v 24 -28 31
v 37 86 39
v 40 85 44
v 51 -34 19
v 59 -93 5
v 38 -105 17
v 27 -29 36
v 10 91 59
v 32 125 48
v 36 124 51
v 13 121 66
v 13 90 63
v 10 122 62
v -64 128 0
v -64 0 0
v -64 128 128

f 1 2 3
f 1 3 4
f 1 4 5
f 5 4 6
f 5 6 7
f 7 6 8
f 7 8 2
f 2 8 3
f 3 8 6
f 3 6 4
f 9 10 11
f 9 11 12
f 9 12 13
f 13 12 14
f 13 14 15
f 15 14 16
f 15 16 10
f 10 16 11
f 11 16 14
f 11 14 12
f 17 18 19
f 17 19 20
f 17 20 21
f 21 20 22
f 21 22 23
f 23 22 24
f 23 24 18
f 18 24 19
f 19 24 20
f 20 24 22
f 25 26 27
f 25 27 28
f 25 28 29
f 25 29 30
f 25 30 26
f 26 30 31
f 26 31 27
f 27 31 32
f 27 32 28
f 28 32 29
f 33 34 35
f 33 35 36
f 37 38 39
f 37 39 40
f 37 40 41
f 37 41 42
f 37 42 38
f 38 42 43
f 38 43 39
f 42 41 44
f 42 44 43
f 41 40 44
f 45 46 47
f 45 47 48
f 45 48 49
f 45 49 50
f 45 50 46
f 46 50 51
f 46 51 47
f 50 49 52
f 50 52 51
f 49 48 52
f 53 54 55
f 53 55 56
f 53 56 57
f 53 57 58
f 53 58 54
f 54 58 59
f 54 59 55
f 58 57 60
f 58 60 59
f 57 56 60
f 61 62 63
f 61 63 64
f 61 64 65
f 65 64 66
f 65 66 67
f 67 66 68
f 68 66 64
f 68 64 63
f 69 70 71
f 69 71 72
f 69 72 73
f 73 72 74
f 73 74 75
f 75 74 76
f 75 76 77
f 75 77 78
f 78 77 79
f 79 77 80
f 79 80 81
f 81 80 82
f 81 82 83
f 83 82 84
f 83 84 71
f 83 71 70
f 80 77 76
f 80 76 74
f 80 74 82
f 82 74 72
f 82 72 84
f 84 72 71
f 85 86 87
f 85 87 88
f 85 88 89
f 85 89 90
f 85 90 86
f 89 88 91
f 89 91 92
f 89 92 93
f 89 93 90
f 92 91 94
f 92 94 95
f 92 95 96
f 92 96 93
f 95 94 97
f 95 97 96
f 96 97 98
f 98 97 99
f 99 97 94
f 99 94 100
f 100 94 91
f 100 91 87
f 87 91 88
f 101 102 103
f 101 103 104
f 101 104 105
f 101 105 106
f 101 106 107
f 101 107 102
f 102 107 108
f 102 108 103
f 103 108 109
f 103 109 104
f 104 109 110
f 104 110 111
f 104 111 105
f 105 111 112
f 105 112 113
f 105 113 106
f 106 113 114
f 106 114 115
f 106 115 107
f 107 115 110
f 107 110 108
f 108 110 109
f 112 111 116
f 112 116 114
f 112 114 113
f 117 118 119
f 117 119 120
f 117 120 121
f 117 121 122
f 117 122 123
f 117 123 118
f 118 123 124
f 118 124 119
f 119 124 125
f 119 125 120
f 120 125 126
f 120 126 127
f 120 127 121
f 121 127 128
f 121 128 129
f 121 129 122
f 122 129 130
f 122 130 131
f 122 131 123
f 123 131 126
f 123 126 124
f 124 126 125
f 128 127 132
f 128 132 130
f 128 130 129
f 133 134 135
f 133 135 136
f 133 136 137
f 133 137 138
f 133 138 139
f 133 139 134
f 134 139 140
f 134 140 135
f 135 140 141
f 135 141 136
f 136 141 142
f 136 142 143
f 136 143 137
f 137 143 144
f 137 144 145
f 137 145 138
f 138 145 146
f 138 146 147
f 138 147 139
f 139 147 142
f 139 142 140
f 140 142 141
f 144 143 148
f 144 148 146
f 144 146 145
f 149 150 151
f 149 151 152
f 149 152 153
f 149 153 154
f 149 154 155
f 149 155 150
f 150 155 156
f 150 156 151
f 151 156 157
f 151 157 152
f 152 157 158
f 152 158 159
f 152 159 153
f 153 159 160
f 153 160 161
f 153 161 154
f 154 161 162
f 154 162 163
f 154 163 155
f 155 163 158
f 155 158 156
f 156 158 157
f 160 159 164
f 160 164 162
f 160 162 161
f 116 111 115
f 116 115 114
f 111 110 115
f 164 159 163
f 164 163 162
f 159 158 163
f 143 142 147
f 143 147 148
f 148 147 146
f 132 127 131
f 132 131 130
f 127 126 131
