# RS2 Model 5289
# Vertices: 242
# Faces: 269

v 128 64 128
v 0 -64 128
v 0 -64 240
v 128 64 240
v 128 43 240
v 21 -64 240
v 21 -64 128
v 128 43 128
v 128 19 64
v 59 -64 64
v 128 -64 0
v 128 -21 0
v 128 40 64
v 24 -64 64
v 64 -64 0
v 128 0 0
v 128 68 196
v 128 68 180
v 84 25 180
v 88 30 196
v 91 27 196
v 127 63 196
v 86 22 180
v 127 63 180
v 128 68 172
v 128 68 156
v 28 -30 156
v 24 -34 172
v 127 63 172
v 27 -37 172
v 31 -33 156
v 127 63 156
v 128 68 216
v 128 68 200
v 60 2 204
v 60 2 216
v 127 63 216
v 63 -1 216
v 63 -1 204
v 127 63 200
v 76 18 132
v 79 15 132
v 0 -64 132
v -4 -64 132
v 76 18 148
v 79 15 148
v -4 -64 148
v 0 -64 148
v 92 34 148
v 95 31 148
v 127 63 148
v 128 68 148
v 128 68 132
v 96 37 132
v 98 34 132
v 127 63 132
v 72 13 180
v 74 10 180
v 0 -64 180
v -4 -64 180
v 76 18 196
v 79 15 196
v -4 -64 196
v 0 -64 196
v 28 -30 232
v 31 -33 232
v 127 63 236
v 128 68 236
v 28 -30 220
v 31 -33 220
v 128 68 220
v 127 63 220
v 20 -38 220
v 23 -41 220
v 0 -64 220
v -4 -64 220
v 12 -46 236
v 15 -49 236
v -4 -64 236
v 0 -64 236
v 3 -64 108
v 29 -39 108
v 38 -40 94
v 10 -64 94
v 13 -64 95
v 41 -42 95
v 32 -42 110
v 7 -64 110
v 2 -64 112
v -4 -64 127
v 128 68 127
v 128 62 112
v 6 -64 114
v 128 58 114
v 54 -24 94
v 49 -19 108
v 128 61 108
v 128 54 94
v 56 -26 95
v 52 -22 110
v 128 57 110
v 128 51 95
v 25 -60 71
v 21 -56 85
v 100 24 85
v 108 23 71
v 27 -62 72
v 110 21 72
v 102 22 87
v 23 -58 87
v 64 -34 47
v 63 -24 60
v 128 45 62
v 127 36 49
v 70 -40 51
v 68 -30 64
v 128 32 51
v 27 -63 48
v 18 -63 62
v 51 -38 62
v 51 -47 47
v 57 -52 51
v 32 -64 51
v 56 -42 64
v 47 -62 29
v 40 -56 42
v 94 -5 39
v 99 -10 29
v 50 -64 31
v 102 -12 31
v 97 -8 42
v 43 -59 44
v 51 -64 15
v 42 -64 28
v 128 22 28
v 128 13 15
v 54 -64 18
v 128 10 18
v 128 19 31
v 45 -64 31
v 0 -64 200
v -4 -64 200
v -4 -64 216
v 0 -64 216
v 0 -64 156
v -4 -64 156
v -4 -64 172
v 0 -64 172
v -62 -64 145
v -30 -14 140
v -40 10 142
v -76 -64 145
v -62 -64 116
v -30 -16 121
v 20 8 135
v 20 26 135
v 14 34 110
v -40 10 121
v -76 -64 116
v 20 8 110
v 67 38 143
v 67 53 143
v 36 40 110
v 38 20 110
v 106 40 158
v 106 54 158
v 106 54 130
v 106 40 130
v 68 34 206
v 72 45 206
v 74 54 146
v 70 44 144
v 88 37 206
v 88 42 148
v 80 46 206
v 80 54 148
v 12 16 182
v 16 26 184
v 14 26 132
v 10 16 132
v 28 18 180
v 26 16 134
v 22 27 184
v 22 28 134
v -85 -58 231
v -84 -49 231
v -71 -49 144
v -73 -58 144
v -74 -55 232
v -61 -55 145
v -80 -48 232
v -67 -48 144
v 30 11 197
v 27 11 178
v 57 23 184
v 44 20 200
v 44 33 200
v 26 25 197
v -29 -15 231
v -26 -15 212
v 19 35 178
v -37 11 212
v 19 35 186
v 50 47 193
v 57 49 184
v 74 54 210
v 83 54 202
v 120 56 222
v 120 56 206
v 97 33 206
v 97 33 237
v 67 25 217
v 83 28 202
v 67 43 217
v 114 50 237
v -37 10 220
v -34 -2 231
v -83 -34 230
v -88 -38 236
v -88 -44 236
v -70 -52 239
v -67 -54 230
v -82 -59 234
v -74 -63 212
v -88 -64 220
v -96 -54 220
v -96 -54 228
v -90 -40 226
v -45 -17 222
v -44 -8 221
v -31 -3 135
v -33 -12 134
v -34 -14 222
v -21 -9 136
v -40 -7 222
v -27 -2 135
v -34 -8 128
v -62 -64 128
v 94 56 128
v -90 37 128
v -91 -29 128
v 133 23 128

f 1 2 3
f 1 3 4
f 4 3 5
f 5 3 6
f 5 6 7
f 5 7 8
f 8 7 9
f 9 7 10
f 9 10 11
f 9 11 12
f 2 1 13
f 2 13 14
f 14 13 15
f 15 13 16
f 17 18 19
f 17 19 20
f 17 20 21
f 17 21 22
f 19 23 21
f 19 21 20
f 18 24 23
f 18 23 19
f 25 26 27
f 25 27 28
f 25 28 29
f 29 28 30
f 30 28 27
f 30 27 31
f 31 27 26
f 31 26 32
f 33 34 35
f 33 35 36
f 33 36 37
f 37 36 38
f 38 36 35
f 38 35 39
f 39 35 34
f 39 34 40
f 41 42 43
f 41 43 44
f 41 44 45
f 41 45 42
f 42 45 46
f 46 45 47
f 46 47 48
f 49 50 51
f 49 51 52
f 49 52 53
f 49 53 54
f 49 54 50
f 50 54 55
f 55 54 53
f 55 53 56
f 57 58 59
f 57 59 60
f 57 60 61
f 57 61 58
f 58 61 62
f 62 61 63
f 62 63 64
f 65 66 67
f 65 67 68
f 65 68 69
f 65 69 66
f 66 69 70
f 70 69 71
f 70 71 72
f 73 74 75
f 73 75 76
f 73 76 77
f 73 77 74
f 74 77 78
f 78 77 79
f 78 79 80
f 68 71 69
f 61 60 63
f 45 44 47
f 77 76 79
f 81 82 83
f 81 83 84
f 84 83 85
f 85 83 86
f 86 83 82
f 86 82 87
f 87 82 81
f 87 81 88
f 89 90 91
f 89 91 92
f 89 92 93
f 93 92 94
f 94 92 91
f 94 91 1
f 1 91 90
f 1 90 2
f 95 96 97
f 95 97 98
f 95 98 99
f 95 99 100
f 95 100 96
f 96 100 101
f 96 101 97
f 98 102 99
f 103 104 105
f 103 105 106
f 103 106 107
f 107 106 108
f 108 106 105
f 108 105 109
f 109 105 104
f 109 104 110
f 111 112 113
f 111 113 114
f 111 114 115
f 111 115 116
f 111 116 112
f 112 116 13
f 112 13 113
f 114 117 115
f 118 119 120
f 118 120 121
f 118 121 122
f 118 122 123
f 120 124 122
f 120 122 121
f 119 14 124
f 119 124 120
f 125 126 127
f 125 127 128
f 125 128 129
f 129 128 130
f 130 128 127
f 130 127 131
f 131 127 126
f 131 126 132
f 133 134 135
f 133 135 136
f 133 136 137
f 137 136 138
f 138 136 135
f 138 135 139
f 139 135 134
f 139 134 140
f 141 142 143
f 141 143 144
f 145 146 147
f 145 147 148
f 149 150 151
f 149 151 152
f 149 152 153
f 149 153 150
f 150 153 154
f 150 154 155
f 150 155 156
f 150 156 151
f 151 156 157
f 151 157 158
f 151 158 152
f 152 158 159
f 152 159 153
f 155 154 160
f 155 160 161
f 155 161 162
f 155 162 156
f 156 162 163
f 156 163 157
f 161 160 164
f 161 164 165
f 161 165 166
f 161 166 162
f 162 166 167
f 162 167 163
f 167 166 165
f 167 165 168
f 168 165 164
f 169 170 171
f 169 171 172
f 169 172 173
f 173 172 174
f 173 174 175
f 175 174 176
f 175 176 170
f 170 176 171
f 177 178 179
f 177 179 180
f 177 180 181
f 181 180 182
f 181 182 183
f 183 182 184
f 183 184 178
f 178 184 179
f 185 186 187
f 185 187 188
f 185 188 189
f 189 188 190
f 189 190 191
f 191 190 192
f 191 192 186
f 186 192 187
f 193 194 195
f 193 195 196
f 193 196 197
f 193 197 198
f 193 198 199
f 193 199 194
f 194 199 200
f 194 200 201
f 201 200 202
f 201 202 203
f 201 203 204
f 201 204 205
f 205 204 206
f 205 206 207
f 207 206 208
f 207 208 209
f 209 208 210
f 210 208 211
f 210 211 212
f 210 212 213
f 213 212 196
f 213 196 195
f 203 198 197
f 203 197 204
f 204 197 214
f 204 214 206
f 206 214 215
f 206 215 208
f 208 215 211
f 211 215 212
f 212 215 214
f 212 214 196
f 196 214 197
f 216 217 198
f 216 198 203
f 216 203 202
f 216 202 218
f 216 218 219
f 216 219 217
f 217 219 220
f 217 220 221
f 217 221 199
f 217 199 198
f 222 218 202
f 222 202 200
f 222 200 221
f 222 221 223
f 222 223 224
f 224 223 225
f 225 223 226
f 226 223 227
f 226 227 220
f 226 220 219
f 226 219 228
f 228 219 218
f 221 200 199
f 220 227 223
f 220 223 221
f 212 206 213
f 213 206 207
f 229 230 231
f 229 231 232
f 229 232 233
f 233 232 234
f 233 234 235
f 235 234 236
f 235 236 230
f 230 236 231
f 237 238 2
f 237 2 239
f 239 2 1
