# RS2 Model 5321
# Vertices: 24
# Faces: 36

v -64 -64 0
v -48 -24 -3
v -48 24 -3
v -64 64 0
v -24 48 -3
v 24 48 -3
v 64 64 0
v 48 24 -3
v 48 -24 -3
v 64 -64 0
v 24 -48 -3
v -24 -48 -3
v -32 -16 -6
v -32 16 -6
v -16 32 -6
v 16 32 -6
v 32 16 -6
v 32 -16 -6
v 16 -32 -6
v -16 -32 -6
v 0 0 -10
v 63 64 -3
v -64 63 -3
v 64 -63 -3

f 1 2 3
f 1 3 4
f 4 3 5
f 4 5 6
f 4 6 7
f 7 6 8
f 7 8 9
f 7 9 10
f 10 9 11
f 10 11 12
f 10 12 1
f 1 12 2
f 2 12 13
f 2 13 3
f 3 13 14
f 3 14 15
f 3 15 5
f 5 15 6
f 6 15 16
f 6 16 17
f 6 17 8
f 8 17 9
f 9 17 18
f 9 18 19
f 9 19 11
f 11 19 12
f 12 19 20
f 12 20 13
f 13 20 21
f 13 21 14
f 14 21 15
f 15 21 16
f 16 21 17
f 17 21 18
f 18 21 19
f 19 21 20
