# RS2 Model 5352
# Vertices: 182
# Faces: 276

v 43 -58 59
v 43 -44 60
v 40 -44 56
v 40 -58 55
v 68 -57 47
v 68 -43 48
v 64 -43 44
v 64 -57 43
v 43 -42 58
v 43 -28 60
v 40 -28 56
v 40 -42 55
v 68 -41 47
v 68 -27 48
v 64 -26 44
v 64 -40 43
v 43 38 58
v 43 52 60
v 40 53 56
v 40 39 54
v 68 40 46
v 68 54 49
v 64 55 45
v 64 41 42
v 43 8 61
v 43 22 59
v 40 22 55
v 40 8 57
v 68 7 49
v 68 21 47
v 64 20 43
v 64 6 45
v 43 -7 61
v 43 7 59
v 40 6 55
v 40 -8 57
v 68 -9 49
v 68 5 47
v 64 4 43
v 64 -10 45
v 22 -49 75
v 22 -35 76
v 19 -35 72
v 19 -49 71
v 45 -48 63
v 45 -34 64
v 43 -34 61
v 43 -47 60
v 22 -17 75
v 22 -3 76
v 19 -3 72
v 19 -17 71
v 45 -16 63
v 45 -2 64
v 43 -2 61
v 43 -16 60
v 22 -64 76
v 22 -50 75
v 19 -50 71
v 19 -64 72
v 45 -65 64
v 45 -51 63
v 43 -51 60
v 43 -65 61
v -1 56 91
v -1 64 91
v -3 64 87
v -3 56 87
v 25 56 80
v 25 64 80
v 22 64 76
v 22 56 76
v -1 -41 92
v -1 -27 90
v -3 -27 86
v -3 -41 89
v 25 -42 82
v 25 -28 80
v 22 -29 76
v 22 -43 78
v -1 -64 91
v -1 -59 91
v -3 -59 87
v -3 -64 87
v 25 -64 80
v 25 -59 80
v 22 -59 76
v -21 -33 108
v -21 -19 109
v -23 -19 105
v -23 -33 104
v 5 -32 97
v 5 -18 98
v 2 -18 93
v 2 -32 92
v -21 -17 108
v -21 -3 109
v -23 -3 105
v -23 -17 104
v 5 -16 97
v 5 -2 98
v 2 -2 93
v 2 -16 92
v -62 48 139
v -62 62 140
v -64 62 137
v -64 48 136
v -38 49 129
v -38 63 131
v -41 64 127
v -41 50 125
v -62 33 140
v -62 47 139
v -64 47 136
v -64 33 137
v -38 32 130
v -38 46 129
v -41 46 125
v -41 32 126
v -41 -8 126
v -41 6 125
v -43 6 121
v -43 -8 122
v -17 -9 113
v -17 5 112
v -20 5 109
v -20 -9 110
v -21 31 107
v -21 45 109
v -23 46 105
v -23 32 103
v 5 33 96
v 5 47 98
v 2 47 93
v 2 34 91
v -21 2 110
v -21 16 107
v -23 15 103
v -23 1 106
v 5 0 99
v 5 14 97
v 2 13 92
v 2 -1 94
v -1 39 91
v -1 53 92
v -3 53 88
v -3 39 87
v 25 40 80
v 25 54 81
v 22 54 77
v 22 40 76
v -1 8 92
v -1 22 91
v -3 22 87
v -3 8 88
v 25 7 81
v 25 21 80
v 22 21 76
v 22 7 77
v -1 -9 90
v -1 5 92
v -3 5 88
v -3 -8 86
v 25 -8 79
v 25 6 81
v 22 -7 75
v 22 50 76
v 22 64 74
v 19 63 70
v 19 49 72
v 45 48 65
v 45 62 63
v 43 61 60
v 43 48 62
v 22 2 78
v 22 16 74
v 19 15 70
v 19 1 74
v 45 -1 66
v 45 13 62
v 43 12 59
v 43 -2 63

f 1 2 3
f 1 3 4
f 1 4 5
f 1 5 2
f 2 5 6
f 2 6 7
f 2 7 3
f 3 7 4
f 4 7 8
f 4 8 5
f 5 8 6
f 6 8 7
f 9 10 11
f 9 11 12
f 9 12 13
f 9 13 10
f 10 13 14
f 10 14 15
f 10 15 11
f 11 15 12
f 12 15 16
f 12 16 13
f 13 16 14
f 14 16 15
f 17 18 19
f 17 19 20
f 17 20 21
f 17 21 18
f 18 21 22
f 18 22 23
f 18 23 19
f 19 23 20
f 20 23 24
f 20 24 21
f 21 24 22
f 22 24 23
f 25 26 27
f 25 27 28
f 25 28 29
f 25 29 26
f 26 29 30
f 26 30 31
f 26 31 27
f 27 31 28
f 28 31 32
f 28 32 29
f 29 32 30
f 30 32 31
f 33 34 35
f 33 35 36
f 33 36 37
f 33 37 34
f 34 37 38
f 34 38 39
f 34 39 35
f 35 39 36
f 36 39 40
f 36 40 37
f 37 40 38
f 38 40 39
f 41 42 43
f 41 43 44
f 41 44 45
f 41 45 42
f 42 45 46
f 42 46 47
f 42 47 43
f 43 47 44
f 44 47 48
f 44 48 45
f 45 48 46
f 46 48 47
f 49 50 51
f 49 51 52
f 49 52 53
f 49 53 50
f 50 53 54
f 50 54 55
f 50 55 51
f 51 55 52
f 52 55 56
f 52 56 53
f 53 56 54
f 54 56 55
f 57 58 59
f 57 59 60
f 57 60 61
f 57 61 58
f 58 61 62
f 58 62 63
f 58 63 59
f 59 63 60
f 60 63 64
f 60 64 61
f 61 64 62
f 62 64 63
f 65 66 67
f 65 67 68
f 65 68 69
f 65 69 66
f 66 69 70
f 66 70 71
f 66 71 67
f 67 71 68
f 68 71 72
f 68 72 69
f 69 72 70
f 70 72 71
f 73 74 75
f 73 75 76
f 73 76 77
f 73 77 74
f 74 77 78
f 74 78 79
f 74 79 75
f 75 79 76
f 76 79 80
f 76 80 77
f 77 80 78
f 78 80 79
f 81 82 83
f 81 83 84
f 81 84 85
f 81 85 82
f 82 85 86
f 82 86 87
f 82 87 83
f 83 87 84
f 84 87 57
f 84 57 85
f 85 57 86
f 86 57 87
f 88 89 90
f 88 90 91
f 88 91 92
f 88 92 89
f 89 92 93
f 89 93 94
f 89 94 90
f 90 94 91
f 91 94 95
f 91 95 92
f 92 95 93
f 93 95 94
f 96 97 98
f 96 98 99
f 96 99 100
f 96 100 97
f 97 100 101
f 97 101 102
f 97 102 98
f 98 102 99
f 99 102 103
f 99 103 100
f 100 103 101
f 101 103 102
f 104 105 106
f 104 106 107
f 104 107 108
f 104 108 105
f 105 108 109
f 105 109 110
f 105 110 106
f 106 110 107
f 107 110 111
f 107 111 108
f 108 111 109
f 109 111 110
f 112 113 114
f 112 114 115
f 112 115 116
f 112 116 113
f 113 116 117
f 113 117 118
f 113 118 114
f 114 118 115
f 115 118 119
f 115 119 116
f 116 119 117
f 117 119 118
f 120 121 122
f 120 122 123
f 120 123 124
f 120 124 121
f 121 124 125
f 121 125 126
f 121 126 122
f 122 126 123
f 123 126 127
f 123 127 124
f 124 127 125
f 125 127 126
f 128 129 130
f 128 130 131
f 128 131 132
f 128 132 129
f 129 132 133
f 129 133 134
f 129 134 130
f 130 134 131
f 131 134 135
f 131 135 132
f 132 135 133
f 133 135 134
f 136 137 138
f 136 138 139
f 136 139 140
f 136 140 137
f 137 140 141
f 137 141 142
f 137 142 138
f 138 142 139
f 139 142 143
f 139 143 140
f 140 143 141
f 141 143 142
f 144 145 146
f 144 146 147
f 144 147 148
f 144 148 145
f 145 148 149
f 145 149 150
f 145 150 146
f 146 150 147
f 147 150 151
f 147 151 148
f 148 151 149
f 149 151 150
f 152 153 154
f 152 154 155
f 152 155 156
f 152 156 153
f 153 156 157
f 153 157 158
f 153 158 154
f 154 158 155
f 155 158 159
f 155 159 156
f 156 159 157
f 157 159 158
f 160 161 162
f 160 162 163
f 160 163 164
f 160 164 161
f 161 164 165
f 161 165 159
f 161 159 162
f 162 159 163
f 163 159 166
f 163 166 164
f 164 166 165
f 165 166 159
f 167 168 169
f 167 169 170
f 167 170 171
f 167 171 168
f 168 171 172
f 168 172 173
f 168 173 169
f 169 173 170
f 170 173 174
f 170 174 171
f 171 174 172
f 172 174 173
f 175 176 177
f 175 177 178
f 175 178 179
f 175 179 176
f 176 179 180
f 176 180 181
f 176 181 177
f 177 181 178
f 178 181 182
f 178 182 179
f 179 182 180
f 180 182 181
