# RS2 Model 5392
# Vertices: 179
# Faces: 316

v 52 -12 6
v 40 -8 18
v 40 -24 26
v 40 -16 10
v 40 -8 10
v 44 -8 18
v 40 4 22
v 40 0 54
v 64 -12 34
v 68 -36 22
v 28 -40 56
v 32 -44 30
v 26 -41 22
v 32 -36 6
v 28 -32 -12
v 40 -12 2
v 20 8 74
v -20 -12 94
v 0 -48 52
v 16 -52 38
v 26 -48 37
v 26 -48 35
v 16 -52 35
v 13 -44 30
v 21 -44 23
v 22 -44 21
v 16 -44 14
v 8 -44 -2
v 10 -42 -14
v 13 -41 -14
v 9 -42 -16
v 8 -36 -36
v 16 -12 -34
v 40 -4 -2
v 44 8 14
v 44 4 22
v 40 8 14
v 32 40 38
v 92 8 10
v 48 -20 70
v 104 12 -26
v 32 16 -14
v 100 52 -54
v 20 28 -19
v 0 100 -58
v -32 40 38
v 0 92 42
v -20 8 74
v -28 -40 56
v -16 -52 38
v -5 -52 41
v -4 -52 38
v 0 -48 34
v 4 -52 38
v 5 -52 41
v 26 31 -51
v 6 40 -50
v -6 40 -50
v -20 28 -19
v -100 52 -54
v -32 16 -14
v -104 12 -26
v -40 8 14
v -40 4 22
v -92 8 10
v -40 0 54
v -40 -24 26
v -40 -8 18
v -52 -12 6
v -40 -16 10
v -32 -36 6
v -27 -41 22
v -32 -44 30
v -68 -36 22
v -64 -12 34
v -44 -8 18
v -40 -8 10
v -40 -12 2
v -28 -32 -12
v -8 -44 -2
v -16 -44 14
v -22 -44 21
v -21 -44 23
v -13 -44 30
v -16 -52 35
v -26 -48 35
v -26 -48 37
v -7 -52 35
v -44 -12 78
v -40 -4 -2
v -44 8 14
v -44 4 22
v -16 -12 -34
v -12 -36 -36
v -9 -42 -16
v -13 -41 -14
v -10 -42 -14
v -3 -44 -11
v -4 -44 -2
v -7 -47 -2
v -9 -47 2
v -9 -44 2
v -6 -44 5
v -4 -44 22
v -6 -44 22
v -15 -46 19
v -14 -46 26
v -7 -44 24
v -9 -41 -15
v 0 -41 -16
v -3 -44 -13
v 3 -44 -11
v 4 -44 -2
v 1 -49 -2
v -1 -49 -2
v 1 -52 -2
v -1 -52 -2
v 3 -55 0
v -3 -55 0
v -8 -50 -2
v -9 -50 2
v -1 -55 5
v -6 -47 5
v 0 -52 11
v 0 -49 20
v -12 -48 22
v 0 -43 -17
v 9 -41 -15
v 3 -44 -13
v 8 -47 -2
v 9 -44 2
v 9 -47 2
v 8 -50 -2
v 9 -50 2
v 1 -55 5
v 7 -52 35
v 7 -44 24
v 14 -46 26
v 12 -48 22
v 22 2 -54
v 3 -14 -54
v -3 -14 -54
v -21 2 -54
v -26 31 -51
v 6 -44 22
v 4 -44 22
v 15 -46 19
v 6 -47 5
v 6 -44 5
v -13 -46 25
v -15 -46 25
v -17 -46 23
v -17 -46 21
v -13 -46 19
v -11 -46 21
v -11 -46 23
v 11 -46 23
v 11 -46 21
v 13 -46 19
v 17 -46 21
v 17 -46 23
v 15 -46 25
v 13 -46 25
v -13 -46 24
v -15 -46 24
v -16 -46 23
v -16 -46 21
v -15 -46 20
v -13 -46 20
v -12 -46 21
v -12 -46 23
v 12 -46 23
v 12 -46 21
v 13 -46 20
v 15 -46 20
v 16 -46 21
v 16 -46 23
v 15 -46 24
v 13 -46 24

f 1 2 3
f 1 3 4
f 1 4 5
f 1 5 2
f 2 5 6
f 2 6 7
f 2 7 8
f 2 8 9
f 2 9 3
f 3 9 8
f 3 8 10
f 3 10 11
f 3 11 12
f 3 12 13
f 3 13 14
f 3 14 4
f 4 14 15
f 4 15 16
f 4 16 5
f 4 5 2
f 8 11 10
f 11 8 17
f 11 17 18
f 11 18 19
f 11 19 20
f 11 20 21
f 11 21 12
f 12 21 22
f 12 22 23
f 12 23 24
f 12 24 25
f 12 25 13
f 13 25 26
f 13 26 14
f 14 26 27
f 14 27 28
f 14 28 15
f 15 28 29
f 15 29 30
f 15 30 31
f 15 31 32
f 15 32 33
f 15 33 16
f 16 33 34
f 16 34 35
f 16 35 5
f 5 35 6
f 6 35 36
f 6 36 7
f 7 36 37
f 7 37 38
f 7 38 39
f 7 39 8
f 8 39 38
f 8 38 17
f 8 17 40
f 8 40 11
f 11 40 17
f 41 38 37
f 41 37 42
f 41 42 38
f 38 42 43
f 38 43 44
f 38 44 45
f 38 45 46
f 38 46 47
f 38 47 17
f 17 47 48
f 17 48 18
f 18 48 49
f 18 49 19
f 19 49 50
f 19 50 51
f 19 51 52
f 19 52 53
f 19 53 54
f 19 54 55
f 19 55 20
f 20 55 23
f 20 23 22
f 20 22 21
f 43 42 44
f 44 42 33
f 44 33 56
f 44 56 57
f 44 57 58
f 44 58 59
f 44 59 45
f 45 59 46
f 46 59 60
f 46 60 61
f 46 61 62
f 46 62 63
f 46 63 64
f 46 64 65
f 46 65 66
f 46 66 48
f 46 48 47
f 67 68 69
f 67 69 70
f 67 70 71
f 67 71 72
f 67 72 73
f 67 73 49
f 67 49 74
f 67 74 66
f 67 66 75
f 67 75 68
f 68 75 66
f 68 66 64
f 68 64 76
f 68 76 77
f 68 77 69
f 69 77 70
f 70 77 78
f 70 78 79
f 70 79 71
f 71 79 80
f 71 80 81
f 71 81 82
f 71 82 72
f 72 82 83
f 72 83 73
f 73 83 84
f 73 84 85
f 73 85 86
f 73 86 87
f 73 87 49
f 49 87 50
f 50 87 85
f 50 85 88
f 50 88 52
f 50 52 51
f 74 49 66
f 66 49 89
f 66 89 48
f 66 48 49
f 49 48 89
f 64 66 65
f 61 63 62
f 63 61 90
f 63 90 91
f 63 91 92
f 63 92 64
f 64 92 76
f 76 92 91
f 76 91 77
f 77 91 78
f 78 91 90
f 78 90 93
f 78 93 79
f 79 93 94
f 79 94 95
f 79 95 96
f 79 96 97
f 79 97 80
f 80 97 98
f 80 98 99
f 80 99 100
f 80 100 101
f 80 101 102
f 80 102 81
f 81 102 103
f 81 103 104
f 81 104 105
f 81 105 106
f 81 106 82
f 82 106 83
f 83 106 107
f 83 107 84
f 84 107 108
f 84 108 53
f 84 53 88
f 84 88 85
f 59 61 60
f 61 59 93
f 61 93 90
f 77 70 68
f 97 109 110
f 97 110 111
f 97 111 98
f 98 111 112
f 98 112 113
f 98 113 99
f 99 113 114
f 99 114 115
f 115 114 116
f 115 116 117
f 117 116 118
f 117 118 119
f 117 119 120
f 117 120 100
f 100 120 101
f 101 120 121
f 101 121 122
f 101 122 123
f 101 123 102
f 102 123 103
f 103 123 104
f 104 123 124
f 104 124 125
f 104 125 53
f 104 53 108
f 104 108 105
f 105 108 126
f 126 108 107
f 126 107 83
f 126 83 82
f 109 97 96
f 109 96 95
f 109 95 110
f 110 95 127
f 110 127 31
f 110 31 128
f 110 128 29
f 110 29 129
f 110 129 111
f 111 129 112
f 112 129 29
f 112 29 28
f 112 28 113
f 113 28 130
f 130 28 131
f 130 131 132
f 130 132 133
f 130 133 116
f 116 133 118
f 118 133 134
f 118 134 135
f 118 135 119
f 119 135 122
f 119 122 121
f 119 121 120
f 30 29 128
f 30 128 31
f 34 42 37
f 34 37 35
f 35 37 36
f 33 42 34
f 55 54 136
f 55 136 23
f 23 136 24
f 24 136 53
f 24 53 137
f 24 137 138
f 24 138 25
f 25 138 139
f 25 139 26
f 87 86 85
f 53 52 88
f 53 136 54
f 140 56 33
f 140 33 141
f 141 33 142
f 142 33 93
f 142 93 143
f 143 93 144
f 144 93 59
f 144 59 58
f 139 138 137
f 139 137 145
f 145 137 146
f 145 146 27
f 145 27 147
f 145 147 137
f 137 147 138
f 138 147 26
f 138 26 25
f 147 27 26
f 146 53 125
f 146 125 124
f 146 124 148
f 146 148 149
f 146 149 27
f 27 149 131
f 27 131 28
f 149 148 132
f 149 132 131
f 132 134 133
f 134 132 148
f 134 148 135
f 135 148 124
f 135 124 122
f 122 124 123
f 137 53 146
f 94 127 95
f 127 94 32
f 127 32 31
f 93 33 94
f 94 33 32
f 150 151 152
f 150 152 153
f 150 153 106
f 150 106 154
f 150 154 155
f 150 155 156
f 157 158 159
f 157 159 147
f 157 147 160
f 157 160 161
f 157 161 162
f 157 162 163
f 164 165 166
f 164 166 167
f 164 167 168
f 164 168 169
f 164 169 170
f 164 170 171
f 172 173 174
f 172 174 175
f 172 175 176
f 172 176 177
f 172 177 178
f 172 178 179
f 107 106 105
f 107 105 108
