# RS2 Model 5400
# Vertices: 51
# Faces: 88

v 0 -136 43
v -99 -138 48
v -108 -145 16
v 0 -144 14
v 99 -138 48
v 0 -120 44
v -135 -115 48
v -144 -123 0
v -108 -145 0
v -45 -168 0
v -36 -160 16
v 0 -160 14
v 36 -160 16
v 108 -145 16
v 144 -123 0
v 135 -115 48
v 128 -115 72
v 0 -120 74
v -128 -115 72
v -162 -78 80
v -162 -78 0
v -189 192 0
v -160 -40 112
v -144 -18 144
v -144 12 176
v -162 192 176
v 0 192 176
v 0 192 0
v 189 192 0
v 162 192 176
v 144 12 176
v 144 -18 144
v 160 -40 112
v 162 -78 80
v 162 -78 0
v 0 -96 74
v 0 -88 106
v -153 -78 112
v 153 -78 112
v 0 -56 106
v 0 -56 140
v -144 -48 144
v 144 -48 144
v 0 -24 140
v 0 -24 176
v -136 -18 176
v 136 -18 176
v 0 12 176
v 0 -176 0
v 45 -168 0
v 108 -145 0

f 1 2 3
f 1 3 4
f 1 4 5
f 1 5 6
f 1 6 7
f 1 7 2
f 2 7 3
f 3 7 8
f 3 8 9
f 3 9 10
f 3 10 11
f 3 11 12
f 3 12 4
f 4 12 13
f 4 13 14
f 4 14 5
f 5 14 15
f 5 15 16
f 5 16 6
f 6 16 17
f 6 17 18
f 6 18 7
f 7 18 19
f 7 19 8
f 8 19 20
f 8 20 21
f 21 20 22
f 22 20 23
f 22 23 24
f 22 24 25
f 22 25 26
f 22 26 27
f 22 27 28
f 28 27 29
f 29 27 30
f 29 30 31
f 29 31 32
f 29 32 33
f 29 33 34
f 29 34 35
f 35 34 15
f 15 34 16
f 16 34 17
f 17 34 36
f 17 36 18
f 18 36 20
f 18 20 19
f 37 38 20
f 37 20 36
f 37 36 39
f 37 39 40
f 37 40 23
f 37 23 38
f 38 23 20
f 41 42 23
f 41 23 40
f 41 40 43
f 41 43 44
f 41 44 24
f 41 24 42
f 42 24 23
f 45 46 24
f 45 24 44
f 45 44 47
f 45 47 48
f 45 48 25
f 45 25 46
f 46 25 24
f 12 11 10
f 12 10 49
f 12 49 13
f 13 49 50
f 13 50 51
f 13 51 14
f 14 51 15
f 27 26 25
f 27 25 48
f 27 48 31
f 27 31 30
f 36 34 39
f 39 34 33
f 39 33 40
f 40 33 43
f 43 33 32
f 43 32 44
f 44 32 47
f 47 32 31
f 47 31 48
