# RS2 Model 5440
# Vertices: 286
# Faces: 487

v -61 -51 42
v -56 -60 43
v -56 -65 57
v -56 -41 57
v -56 -42 43
v -62 -16 37
v -56 -3 43
v -56 6 57
v -62 20 38
v -56 33 57
v -56 38 43
v -61 47 45
v -56 63 57
v -56 54 49
v -1 -81 57
v -8 -70 59
v 2 -59 57
v 26 -38 60
v 7 -27 57
v -24 -15 61
v 13 9 57
v 15 23 60
v 14 35 57
v 4 60 59
v 55 54 57
v 55 25 57
v 63 42 41
v 57 55 44
v 55 1 57
v 61 12 40
v 57 20 43
v 55 -46 57
v 63 -32 41
v 57 -15 38
v 57 6 38
v 55 -73 57
v 57 -57 41
v 59 -68 45
v 5 44 159
v -22 55 161
v -25 35 159
v 30 23 159
v -57 33 159
v -21 2 159
v 28 -3 159
v -38 -13 163
v -20 -26 159
v -5 -35 162
v 34 -37 159
v -19 -51 159
v 26 -62 159
v -25 -84 161
v -57 -82 159
v -57 -41 159
v -66 -54 142
v -64 -32 129
v -67 -17 131
v -61 5 133
v -57 6 159
v -67 17 130
v -61 33 132
v -66 48 140
v -57 63 159
v -61 61 149
v -17 64 157
v 9 58 157
v 24 66 167
v -29 78 167
v -42 78 157
v -43 96 157
v -30 93 170
v -36 106 157
v -23 104 170
v -7 109 157
v 19 103 157
v 30 92 170
v 42 89 157
v 46 76 157
v 32 79 170
v 36 61 157
v -49 -101 157
v -54 -96 157
v -57 -101 133
v -55 -105 133
v 51 -98 157
v -47 111 157
v -54 104 157
v -57 110 133
v -61 110 133
v -61 -101 133
v -63 -105 133
v -63 -109 133
v -61 -113 133
v -57 -113 133
v -55 -109 133
v -55 -105 125
v -57 -101 125
v -55 -105 56
v -57 -101 56
v -61 -101 125
v -61 -101 56
v -63 -105 125
v -61 110 125
v -63 114 125
v -63 114 56
v -61 110 56
v -57 110 125
v -57 110 56
v -55 114 125
v -55 114 133
v -57 122 133
v -63 114 133
v -63 118 125
v -63 118 56
v -63 118 32
v -63 114 32
v -61 110 32
v -57 110 32
v -55 114 56
v -55 118 125
v -55 118 56
v -57 122 125
v -55 118 133
v 55 118 125
v 55 118 133
v 57 122 125
v 57 122 56
v 55 118 56
v 55 114 125
v 55 114 56
v 57 110 125
v 57 110 133
v 55 114 133
v 61 122 133
v 46 111 157
v 54 104 157
v 57 -101 133
v 61 -101 133
v 61 110 133
v 63 114 133
v 63 118 133
v 63 118 125
v 61 122 125
v 57 122 133
v 61 122 56
v 61 122 32
v 57 122 32
v 55 118 32
v 55 114 32
v 57 110 56
v 61 110 125
v 61 110 56
v 63 114 125
v 61 -101 125
v 63 -105 125
v 63 -105 56
v 61 -101 56
v 57 -101 125
v 57 -101 56
v 55 -105 125
v 55 -105 133
v 55 -109 133
v 57 -113 133
v 61 -113 133
v 63 -109 133
v 63 -105 133
v 63 -109 125
v 63 -109 56
v 63 -109 32
v 63 -105 32
v 61 -101 32
v 57 -101 32
v 55 -105 56
v 55 -109 125
v 55 -109 56
v 57 -113 125
v -55 -109 125
v -57 -113 125
v -57 -113 56
v -55 -109 56
v -55 -109 32
v -55 -105 32
v -57 -101 32
v -61 -101 32
v -63 -105 56
v -63 -109 125
v 57 110 32
v 61 110 32
v 63 114 56
v 61 -113 56
v 61 -113 32
v 61 -113 24
v 63 -109 24
v 63 -105 24
v 61 -101 24
v 54 109 56
v 53 -101 56
v 55 -105 32
v 55 -109 32
v 57 -113 56
v 61 -113 125
v 57 -113 32
v -57 -113 32
v -57 -113 24
v -55 -109 24
v -52 -103 56
v -54 -99 56
v -61 110 24
v -61 -101 24
v -63 -105 32
v -63 -109 56
v -61 -113 125
v -61 -113 56
v -63 -109 32
v -61 -113 32
v -63 -105 24
v -63 -109 24
v -61 -113 24
v 57 -113 24
v 57 -113 0
v 61 -113 0
v 63 -109 0
v 63 -105 0
v 61 -101 0
v 57 -101 24
v 57 -101 0
v 55 -105 24
v 63 114 32
v 63 118 56
v 63 118 32
v 63 118 24
v 61 122 24
v 57 122 24
v 55 118 24
v -55 118 32
v -55 114 32
v -52 112 56
v 52 112 56
v 55 114 24
v 57 110 24
v 55 114 0
v 57 110 0
v 61 110 24
v 61 110 0
v 63 114 24
v -57 122 56
v -61 122 125
v -61 122 133
v -63 118 133
v -61 122 56
v -61 122 32
v -61 122 24
v -63 118 24
v -63 114 24
v -63 114 0
v -61 110 0
v -57 110 24
v -57 110 0
v -55 114 24
v -57 122 32
v 63 114 0
v 63 118 0
v 61 122 0
v 57 122 0
v 55 118 0
v -57 122 24
v -57 122 0
v -61 122 0
v -63 118 0
v -54 109 56
v 55 -109 24
v 55 -109 0
v 55 -105 0
v -61 -113 0
v -57 -113 0
v -55 -109 0
v -55 -105 24
v -55 -105 0
v -57 -101 24
v -61 -101 0
v -63 -105 0
v -63 -109 0
v -57 -101 0
v -55 118 24
v -55 118 0
v -55 114 0

f 1 2 3
f 1 3 4
f 1 4 5
f 5 4 6
f 6 4 7
f 7 4 8
f 7 8 9
f 9 8 10
f 9 10 11
f 11 10 12
f 12 10 13
f 12 13 14
f 3 15 16
f 3 16 17
f 3 17 4
f 4 17 18
f 4 18 19
f 4 19 20
f 4 20 8
f 8 20 21
f 8 21 10
f 10 21 22
f 10 22 23
f 10 23 13
f 13 23 24
f 24 23 25
f 25 23 26
f 25 26 27
f 25 27 28
f 26 23 22
f 26 22 21
f 26 21 29
f 26 29 30
f 26 30 31
f 26 31 27
f 21 20 29
f 29 20 19
f 29 19 18
f 29 18 32
f 29 32 33
f 29 33 34
f 29 34 35
f 29 35 30
f 32 18 17
f 32 17 36
f 32 36 37
f 32 37 33
f 36 17 16
f 36 16 15
f 38 37 36
f 39 40 41
f 39 41 42
f 42 41 43
f 42 43 44
f 42 44 45
f 45 44 46
f 45 46 47
f 45 47 48
f 45 48 49
f 49 48 50
f 49 50 51
f 51 50 52
f 52 50 53
f 53 50 54
f 53 54 55
f 55 54 56
f 56 54 57
f 57 54 58
f 58 54 59
f 58 59 60
f 60 59 43
f 60 43 61
f 61 43 62
f 62 43 63
f 62 63 64
f 50 48 54
f 54 48 47
f 54 47 46
f 54 46 59
f 59 46 44
f 59 44 43
f 63 43 41
f 63 41 40
f 65 66 67
f 65 67 68
f 65 68 69
f 69 68 70
f 70 68 71
f 70 71 72
f 72 71 73
f 72 73 74
f 74 73 75
f 75 73 76
f 75 76 77
f 77 76 78
f 78 76 79
f 78 79 80
f 80 79 67
f 80 67 66
f 79 76 73
f 79 73 71
f 79 71 68
f 79 68 67
f 81 82 83
f 81 83 84
f 81 84 85
f 81 85 86
f 81 86 82
f 82 86 87
f 82 87 88
f 82 88 83
f 83 88 89
f 83 89 90
f 83 90 91
f 83 91 92
f 83 92 93
f 83 93 94
f 83 94 95
f 83 95 84
f 83 84 96
f 83 96 97
f 97 96 98
f 97 98 99
f 97 99 100
f 100 99 101
f 100 101 102
f 100 102 91
f 100 91 90
f 100 90 103
f 103 90 89
f 103 89 104
f 103 104 105
f 103 105 106
f 103 106 107
f 107 106 108
f 107 108 109
f 107 109 110
f 107 110 88
f 88 110 111
f 88 111 89
f 89 111 112
f 89 112 104
f 104 112 113
f 104 113 114
f 104 114 105
f 105 114 115
f 105 115 116
f 105 116 106
f 106 116 117
f 106 117 108
f 108 117 118
f 108 118 119
f 108 119 109
f 109 119 120
f 120 119 121
f 120 121 122
f 120 122 111
f 120 111 123
f 120 123 124
f 124 123 125
f 124 125 126
f 124 126 127
f 124 127 128
f 124 128 129
f 129 128 130
f 129 130 131
f 129 131 132
f 129 132 133
f 133 132 134
f 133 134 125
f 133 125 110
f 133 110 86
f 133 86 135
f 133 135 132
f 132 135 136
f 132 136 137
f 132 137 138
f 132 138 139
f 132 139 134
f 134 139 140
f 134 140 141
f 134 141 142
f 134 142 143
f 134 143 144
f 134 144 125
f 125 144 126
f 126 144 143
f 126 143 145
f 126 145 127
f 127 145 146
f 127 146 147
f 127 147 128
f 128 147 148
f 128 148 130
f 130 148 149
f 130 149 150
f 130 150 131
f 131 150 151
f 151 150 152
f 151 152 153
f 151 153 140
f 151 140 139
f 151 139 154
f 154 139 138
f 154 138 155
f 154 155 156
f 154 156 157
f 154 157 158
f 158 157 159
f 158 159 160
f 158 160 161
f 158 161 137
f 137 161 138
f 138 161 162
f 138 162 163
f 138 163 164
f 138 164 165
f 138 165 166
f 138 166 155
f 155 166 167
f 155 167 168
f 155 168 156
f 156 168 169
f 156 169 170
f 156 170 157
f 157 170 171
f 157 171 159
f 159 171 172
f 159 172 173
f 159 173 160
f 160 173 174
f 174 173 175
f 174 175 176
f 174 176 163
f 174 163 162
f 174 162 177
f 177 162 95
f 177 95 178
f 177 178 179
f 177 179 180
f 177 180 96
f 96 180 98
f 98 180 181
f 98 181 182
f 98 182 99
f 99 182 183
f 99 183 101
f 101 183 184
f 101 184 185
f 101 185 102
f 102 185 186
f 102 186 92
f 102 92 91
f 85 84 161
f 85 161 137
f 85 137 136
f 85 136 86
f 86 136 135
f 87 86 110
f 87 110 88
f 152 150 187
f 152 187 188
f 152 188 189
f 152 189 153
f 153 189 142
f 153 142 141
f 153 141 140
f 168 190 191
f 168 191 169
f 169 191 192
f 169 192 193
f 169 193 170
f 170 193 194
f 170 194 171
f 171 194 195
f 171 195 188
f 171 188 187
f 171 187 172
f 172 187 196
f 172 196 197
f 172 197 198
f 172 198 173
f 173 198 175
f 175 198 199
f 175 199 200
f 175 200 176
f 176 200 201
f 176 201 164
f 176 164 163
f 200 199 202
f 200 202 190
f 200 190 201
f 201 190 167
f 201 167 165
f 201 165 164
f 180 179 203
f 180 203 181
f 181 203 204
f 181 204 205
f 181 205 199
f 181 199 198
f 181 198 182
f 182 198 197
f 182 197 206
f 182 206 183
f 183 206 207
f 183 207 118
f 183 118 117
f 183 117 184
f 184 117 208
f 184 208 209
f 184 209 210
f 184 210 185
f 185 210 211
f 185 211 186
f 186 211 212
f 186 212 93
f 186 93 92
f 213 211 214
f 213 214 215
f 213 215 179
f 213 179 178
f 213 178 212
f 213 212 211
f 211 210 214
f 214 210 216
f 214 216 217
f 214 217 215
f 215 217 218
f 215 218 203
f 215 203 179
f 190 202 191
f 191 202 219
f 191 219 192
f 192 219 220
f 192 220 221
f 192 221 193
f 193 221 222
f 193 222 194
f 194 222 223
f 194 223 195
f 195 223 224
f 195 224 225
f 225 224 226
f 225 226 227
f 225 227 198
f 225 198 172
f 189 188 228
f 189 228 229
f 189 229 142
f 142 229 143
f 143 229 145
f 145 229 230
f 145 230 146
f 146 230 231
f 146 231 232
f 146 232 147
f 147 232 233
f 147 233 148
f 148 233 234
f 148 234 235
f 148 235 236
f 148 236 149
f 149 236 237
f 149 237 238
f 149 238 187
f 149 187 150
f 187 149 239
f 187 239 240
f 240 239 241
f 240 241 242
f 240 242 243
f 243 242 244
f 243 244 245
f 243 245 228
f 243 228 188
f 243 188 195
f 119 118 236
f 119 236 121
f 121 236 235
f 121 235 246
f 121 246 122
f 122 246 247
f 122 247 248
f 122 248 111
f 111 248 249
f 111 249 112
f 112 249 113
f 113 249 247
f 113 247 250
f 113 250 114
f 114 250 251
f 114 251 115
f 115 251 252
f 115 252 253
f 115 253 116
f 116 253 254
f 116 254 117
f 117 254 208
f 208 254 255
f 208 255 256
f 208 256 257
f 257 256 258
f 257 258 259
f 257 259 236
f 257 236 118
f 246 235 260
f 246 260 250
f 246 250 247
f 229 228 230
f 230 228 245
f 230 245 231
f 231 245 261
f 231 261 262
f 231 262 232
f 232 262 263
f 232 263 233
f 233 263 264
f 233 264 234
f 234 264 265
f 234 265 239
f 239 265 241
f 250 260 251
f 251 260 266
f 251 266 252
f 252 266 267
f 252 267 268
f 252 268 253
f 253 268 269
f 253 269 254
f 254 269 255
f 167 190 168
f 207 270 118
f 118 270 236
f 236 270 237
f 237 270 207
f 237 207 206
f 237 206 197
f 237 197 196
f 237 196 238
f 238 196 187
f 202 199 271
f 202 271 219
f 219 271 272
f 219 272 220
f 271 227 273
f 271 273 272
f 227 226 273
f 203 218 204
f 204 218 274
f 204 274 275
f 204 275 205
f 205 275 276
f 205 276 277
f 277 276 278
f 277 278 279
f 277 279 183
f 277 183 182
f 210 209 216
f 216 209 280
f 216 280 281
f 216 281 217
f 217 281 282
f 217 282 218
f 218 282 274
f 209 279 283
f 209 283 280
f 279 278 283
f 260 235 284
f 260 284 266
f 266 284 285
f 266 285 267
f 284 259 286
f 284 286 285
f 259 258 286
f 245 244 261
f 199 205 271
f 235 234 284
f 111 110 123
f 123 110 125
f 161 84 95
f 161 95 162
f 249 248 247
f 94 93 212
f 94 212 178
f 94 178 95
f 166 165 167
