# RS2 Model 5477
# Vertices: 31
# Faces: 31

v -24 -64 88
v -24 64 40
v -64 64 40
v -64 -64 88
v -64 -64 80
v -64 64 32
v -64 -64 72
v -64 64 24
v -64 64 16
v -64 -64 60
v -64 -64 0
v -64 64 0
v -48 64 16
v -48 64 0
v -48 -64 0
v -48 -64 60
v -24 -64 60
v -24 64 16
v -24 64 24
v -24 -64 72
v -24 -64 80
v -24 64 32
v -64 -64 -64
v -64 -64 192
v -64 64 -64
v -24 64 -184
v -48 64 -64
v -48 64 192
v -48 -64 -64
v 64 -64 88
v 64 64 40

f 1 2 3
f 1 3 4
f 4 3 5
f 5 3 6
f 5 6 7
f 7 6 8
f 7 8 9
f 7 9 10
f 10 9 11
f 11 9 12
f 12 9 13
f 12 13 14
f 14 13 15
f 15 13 16
f 16 13 17
f 17 13 18
f 17 18 19
f 17 19 20
f 20 19 21
f 21 19 22
f 21 22 1
f 1 22 2
f 2 22 6
f 2 6 3
f 13 9 8
f 13 8 19
f 13 19 18
f 22 19 8
f 22 8 6
f 23 24 25
f 18 26 9
