# RS2 Model 5486
# Vertices: 369
# Faces: 450

v -5 -64 21
v -3 -61 39
v -56 -63 38
v -57 -64 21
v -3 12 38
v -6 10 19
v 34 -27 40
v 31 -28 19
v 33 -21 22
v 38 -20 39
v 2 17 39
v 1 13 21
v 52 51 21
v 54 53 39
v 63 5 38
v 62 4 21
v 22 -40 43
v 21 -39 54
v -18 1 54
v -18 -1 42
v 17 34 53
v 14 33 41
v 56 -4 53
v 54 -7 41
v 17 -42 55
v 18 -41 42
v -20 -4 42
v -20 -4 55
v -5 -64 53
v -5 -64 41
v 57 -2 50
v 64 5 53
v 64 58 53
v 19 35 50
v 57 -2 42
v 64 5 41
v 64 58 41
v 20 36 42
v -58 -64 53
v -58 -64 41
v -56 -64 111
v -56 -64 95
v -4 -63 94
v -4 -63 112
v -20 -3 112
v -19 0 96
v -13 5 110
v -13 6 95
v 26 -33 95
v 26 -36 113
v 58 55 112
v 57 53 94
v 62 2 112
v 66 3 94
v 19 -40 112
v 21 -38 94
v -37 -22 114
v -37 -21 126
v 0 -59 126
v 1 -58 113
v -5 -64 114
v -5 -64 126
v -58 -64 126
v -58 -64 114
v -34 -19 126
v 5 -54 114
v 4 -57 126
v -1 15 125
v -32 -17 114
v 1 17 114
v 39 -23 125
v 37 -19 114
v 2 18 124
v 4 21 114
v 40 -18 114
v 40 -19 125
v 64 58 126
v 64 58 114
v 64 5 114
v 64 5 126
v -18 -50 160
v -14 -46 160
v -35 -22 144
v -41 -28 144
v -7 -62 128
v -1 -56 128
v -35 -22 128
v -41 -28 128
v -18 -25 164
v -21 -28 164
v 2 -53 148
v 9 -46 148
v -25 -12 128
v -32 -19 128
v 2 -53 128
v 9 -46 128
v -1 -33 168
v 4 -28 166
v -17 -4 148
v -24 -11 148
v 10 -45 128
v 17 -38 128
v -17 -4 128
v -24 -11 128
v 3 -7 160
v -3 -13 160
v 19 -36 144
v 26 -29 144
v -8 5 128
v -15 -2 128
v 19 -36 128
v 26 -29 128
v 14 -15 159
v 21 -9 160
v 4 13 146
v -3 6 143
v 28 -21 128
v 34 -15 130
v 5 14 130
v -1 8 128
v 26 -7 168
v 31 -1 166
v 10 23 148
v 3 16 148
v 37 -18 128
v 44 -11 128
v 10 23 128
v 3 16 128
v 34 2 155
v 41 9 155
v 18 32 141
v 11 25 141
v 45 -9 128
v 52 -2 128
v 19 32 128
v 11 25 128
v 49 12 168
v 53 16 168
v 30 37 148
v 25 33 148
v 59 -1 128
v 65 5 128
v 30 37 128
v 25 33 128
v 61 10 128
v 54 26 168
v 51 23 168
v 32 39 148
v 33 40 128
v 44 47 128
v 46 46 148
v 62 11 128
v 62 14 129
v 60 35 169
v 56 36 169
v 47 45 149
v 48 46 129
v 61 52 129
v 61 52 149
v 63 15 129
v -11 -61 128
v -27 -55 168
v -27 -59 168
v -52 -61 148
v -52 -60 128
v -49 -47 128
v -47 -46 148
v -11 -60 128
v -13 -58 129
v -29 -44 169
v -33 -46 169
v -45 -46 149
v -45 -45 129
v -40 -32 129
v -40 -32 149
v -13 -56 129
v -44 -40 74
v -44 -38 91
v 2 -58 91
v 2 -58 74
v -5 -64 73
v -5 -64 92
v -58 -64 92
v -58 -64 73
v 12 -46 18
v -32 -20 2
v -32 -20 19
v -5 -64 18
v -5 -64 -1
v 12 -48 0
v -58 -64 18
v -58 -64 -1
v -58 -64 0
v 48 -12 19
v 64 58 18
v 16 28 19
v 48 -14 0
v 64 5 18
v 64 5 -1
v 64 58 -1
v 16 28 0
v 8 -51 70
v 8 -51 57
v -30 -14 57
v -30 -14 70
v -5 -64 72
v -5 -64 56
v 51 -8 56
v 49 -10 70
v 11 27 70
v 14 30 56
v 64 58 56
v 64 58 72
v 64 5 56
v 64 5 72
v 11 24 57
v 14 24 74
v 48 -10 73
v 48 -8 57
v 11 -48 74
v 8 -50 57
v -23 -14 74
v -20 -14 57
v 11 22 1
v 9 20 16
v 44 -14 16
v 44 -12 1
v 14 -46 16
v 14 -46 1
v -20 -11 16
v -23 -15 1
v 64 58 92
v 18 28 91
v 48 -14 91
v 64 5 92
v 64 5 73
v 64 58 73
v 18 28 75
v 46 -12 75
v -58 -64 72
v -58 -64 56
v 10 28 77
v 10 28 92
v 48 -16 92
v 46 -14 77
v 6 -56 92
v 6 -54 77
v -44 -34 92
v -42 -32 77
v -58 -64 74
v -64 64 0
v 64 64 0
v 64 -64 0
v -64 -64 0
v 43 61 32
v 43 52 32
v 49 52 0
v 51 61 0
v 32 57 67
v -41 -11 38
v -46 -20 38
v -40 -24 0
v -36 -15 0
v -60 -7 81
v -53 6 30
v -51 0 30
v -44 3 0
v -48 10 0
v -62 -4 62
v 9 36 44
v 8 46 44
v 0 44 0
v 0 35 0
v 21 41 89
v -15 18 34
v -23 12 34
v -16 6 0
v -12 13 0
v -32 25 69
v -3 26 23
v -9 20 23
v -6 15 0
v 1 22 0
v -13 31 46
v 16 56 23
v 8 54 23
v 8 47 0
v 18 49 0
v 11 66 47
v -44 25 23
v -50 19 23
v -45 13 0
v -37 20 0
v -58 31 48
v 32 51 36
v 22 49 36
v 24 42 0
v 33 42 0
v 26 65 73
v -26 8 20
v -30 0 20
v -25 -2 0
v -20 6 0
v -42 10 41
v -55 -36 27
v -59 -40 27
v -56 -46 0
v -49 -41 0
v -63 -29 55
v -30 35 29
v -30 29 29
v -26 26 0
v -23 34 0
v -41 36 56
v -2 34 34
v -7 27 34
v -1 22 0
v 4 28 0
v -12 40 69
v -51 -17 36
v -57 -22 36
v -52 -28 0
v -47 -22 0
v -63 -11 73
v -7 54 29
v -11 50 29
v -11 45 0
v -3 49 0
v -15 63 56
v 35 -42 34
v 43 -36 34
v 36 -30 0
v 32 -37 0
v 52 -49 69
v 55 -21 36
v 61 -16 36
v 56 -10 0
v 51 -16 0
v 67 -27 73
v 45 -30 38
v 51 -24 38
v 46 -19 0
v 41 -25 0
v 61 -39 81
v 22 -51 34
v 30 -50 34
v 29 -42 0
v 21 -43 0
v 25 -63 69
v 13 -54 44
v 14 -64 44
v 22 -62 0
v 22 -53 0
v 1 -59 89
v 38 -60 29
v 39 -54 29
v 36 -50 0
v 31 -58 0
v 49 -62 56
v 48 -44 20
v 52 -36 20
v 47 -34 0
v 42 -42 0
v 64 -46 41
v 48 -55 23
v 54 -49 23
v 49 -43 0
v 41 -50 0
v 62 -61 48

f 1 2 3
f 1 3 4
f 4 3 5
f 4 5 6
f 6 5 7
f 6 7 8
f 8 7 2
f 8 2 1
f 2 5 3
f 5 2 7
f 9 10 11
f 9 11 12
f 12 11 13
f 13 11 14
f 13 14 15
f 13 15 16
f 16 15 9
f 9 15 10
f 10 15 14
f 10 14 11
f 17 18 19
f 17 19 20
f 20 19 21
f 20 21 22
f 22 21 23
f 22 23 24
f 24 23 18
f 24 18 17
f 25 26 27
f 25 27 28
f 25 28 29
f 25 29 30
f 25 30 26
f 18 23 21
f 18 21 19
f 31 32 33
f 31 33 34
f 31 34 35
f 31 35 32
f 32 35 36
f 32 36 33
f 33 36 37
f 33 37 34
f 34 37 38
f 34 38 35
f 39 40 30
f 39 30 29
f 39 29 28
f 39 28 27
f 39 27 40
f 41 42 43
f 41 43 44
f 41 44 45
f 41 45 46
f 41 46 42
f 47 48 49
f 47 49 50
f 47 50 51
f 47 51 48
f 48 51 52
f 52 51 53
f 52 53 54
f 54 53 50
f 54 50 49
f 46 45 55
f 46 55 56
f 56 55 43
f 43 55 44
f 44 55 45
f 51 50 53
f 57 58 59
f 57 59 60
f 60 59 61
f 61 59 62
f 61 62 63
f 61 63 64
f 64 63 57
f 57 63 58
f 58 63 62
f 58 62 59
f 65 66 67
f 65 67 68
f 65 68 69
f 65 69 66
f 70 68 71
f 70 71 72
f 72 71 67
f 72 67 66
f 73 74 75
f 73 75 76
f 73 76 77
f 73 77 78
f 73 78 74
f 79 78 77
f 79 77 80
f 79 80 75
f 75 80 76
f 76 80 77
f 68 67 71
f 81 82 83
f 81 83 84
f 81 84 85
f 81 85 82
f 82 85 86
f 82 86 87
f 82 87 83
f 83 87 84
f 84 87 88
f 84 88 85
f 89 90 91
f 89 91 92
f 89 92 93
f 89 93 90
f 90 93 94
f 90 94 95
f 90 95 91
f 91 95 92
f 92 95 96
f 92 96 93
f 97 98 99
f 97 99 100
f 97 100 101
f 97 101 98
f 98 101 102
f 98 102 103
f 98 103 99
f 99 103 100
f 100 103 104
f 100 104 101
f 105 106 107
f 105 107 108
f 105 108 109
f 105 109 106
f 106 109 110
f 106 110 111
f 106 111 107
f 107 111 108
f 108 111 112
f 108 112 109
f 113 114 115
f 113 115 116
f 113 116 117
f 113 117 114
f 114 117 118
f 114 118 119
f 114 119 115
f 115 119 116
f 116 119 120
f 116 120 117
f 121 122 123
f 121 123 124
f 121 124 125
f 121 125 122
f 122 125 126
f 122 126 127
f 122 127 123
f 123 127 124
f 124 127 128
f 124 128 125
f 129 130 131
f 129 131 132
f 129 132 133
f 129 133 130
f 130 133 134
f 130 134 135
f 130 135 131
f 131 135 132
f 132 135 136
f 132 136 133
f 137 138 139
f 137 139 140
f 137 140 141
f 137 141 138
f 138 141 142
f 138 142 143
f 138 143 139
f 139 143 140
f 140 143 144
f 140 144 141
f 145 146 147
f 145 147 148
f 145 148 149
f 149 148 150
f 150 148 151
f 150 151 146
f 150 146 152
f 152 146 145
f 147 151 148
f 151 147 146
f 153 154 155
f 153 155 156
f 153 156 157
f 157 156 158
f 158 156 159
f 158 159 154
f 158 154 160
f 160 154 153
f 155 159 156
f 159 155 154
f 161 162 163
f 161 163 164
f 161 164 165
f 165 164 166
f 166 164 167
f 166 167 162
f 166 162 168
f 168 162 161
f 163 167 164
f 167 163 162
f 169 170 171
f 169 171 172
f 169 172 173
f 173 172 174
f 174 172 175
f 174 175 170
f 174 170 176
f 176 170 169
f 171 175 172
f 175 171 170
f 177 178 179
f 177 179 180
f 180 179 181
f 181 179 182
f 181 182 183
f 181 183 184
f 178 183 182
f 178 182 179
f 185 186 187
f 185 187 188
f 185 188 189
f 185 189 190
f 185 190 186
f 191 192 189
f 191 189 188
f 191 188 187
f 191 187 186
f 191 186 193
f 194 195 196
f 194 196 197
f 194 197 198
f 194 198 195
f 195 198 199
f 195 199 200
f 195 200 196
f 196 200 201
f 196 201 197
f 202 203 204
f 202 204 205
f 202 205 206
f 202 206 207
f 202 207 203
f 208 209 210
f 208 210 211
f 211 210 212
f 212 210 213
f 212 213 214
f 214 213 215
f 214 215 208
f 208 215 209
f 209 215 213
f 209 213 210
f 216 217 218
f 216 218 219
f 219 218 220
f 219 220 221
f 221 220 222
f 221 222 223
f 223 222 217
f 223 217 216
f 224 225 226
f 224 226 227
f 227 226 228
f 227 228 229
f 229 228 230
f 229 230 231
f 231 230 225
f 231 225 224
f 225 230 228
f 225 228 226
f 232 233 234
f 232 234 235
f 232 235 236
f 232 236 237
f 232 237 233
f 233 237 238
f 233 238 239
f 233 239 234
f 234 239 235
f 235 239 236
f 206 205 240
f 206 240 207
f 207 240 241
f 241 240 204
f 204 240 205
f 242 243 244
f 242 244 245
f 245 244 246
f 245 246 247
f 247 246 248
f 247 248 249
f 249 248 243
f 249 243 242
f 197 199 198
f 177 183 178
f 183 177 250
f 69 68 70
f 243 248 246
f 243 246 244
f 217 222 220
f 217 220 218
f 251 252 253
f 251 253 254
f 255 256 257
f 255 257 258
f 255 258 256
f 255 256 259
f 255 259 256
f 258 257 256
f 260 261 262
f 260 262 263
f 260 263 261
f 260 261 264
f 260 264 261
f 263 262 261
f 265 266 267
f 265 267 268
f 265 268 266
f 265 266 269
f 265 269 266
f 268 267 266
f 270 271 272
f 270 272 273
f 270 273 271
f 270 271 274
f 270 274 271
f 273 272 271
f 275 276 277
f 275 277 278
f 275 278 276
f 275 276 279
f 275 279 276
f 278 277 276
f 280 281 282
f 280 282 283
f 280 283 281
f 280 281 284
f 280 284 281
f 283 282 281
f 285 286 287
f 285 287 288
f 285 288 286
f 285 286 289
f 285 289 286
f 288 287 286
f 290 291 292
f 290 292 293
f 290 293 291
f 290 291 294
f 290 294 291
f 293 292 291
f 295 296 297
f 295 297 298
f 295 298 296
f 295 296 299
f 295 299 296
f 298 297 296
f 300 301 302
f 300 302 303
f 300 303 301
f 300 301 304
f 300 304 301
f 303 302 301
f 305 306 307
f 305 307 308
f 305 308 306
f 305 306 309
f 305 309 306
f 308 307 306
f 310 311 312
f 310 312 313
f 310 313 311
f 310 311 314
f 310 314 311
f 313 312 311
f 315 316 317
f 315 317 318
f 315 318 316
f 315 316 319
f 315 319 316
f 318 317 316
f 320 321 322
f 320 322 323
f 320 323 321
f 320 321 324
f 320 324 321
f 323 322 321
f 325 326 327
f 325 327 328
f 325 328 326
f 325 326 329
f 325 329 326
f 328 327 326
f 330 331 332
f 330 332 333
f 330 333 331
f 330 331 334
f 330 334 331
f 333 332 331
f 335 336 337
f 335 337 338
f 335 338 336
f 335 336 339
f 335 339 336
f 338 337 336
f 340 341 342
f 340 342 343
f 340 343 341
f 340 341 344
f 340 344 341
f 343 342 341
f 345 346 347
f 345 347 348
f 345 348 346
f 345 346 349
f 345 349 346
f 348 347 346
f 350 351 352
f 350 352 353
f 350 353 351
f 350 351 354
f 350 354 351
f 353 352 351
f 355 356 357
f 355 357 358
f 355 358 356
f 355 356 359
f 355 359 356
f 358 357 356
f 360 361 362
f 360 362 363
f 360 363 361
f 360 361 364
f 360 364 361
f 363 362 361
f 365 366 367
f 365 367 368
f 365 368 366
f 365 366 369
f 365 369 366
f 368 367 366
