# RS2 Model 5534
# Vertices: 25
# Faces: 36

v 28 -40 56
v 40 0 54
v 80 -24 54
v 65 -59 62
v 32 -80 62
v 0 -48 52
v 0 -88 64
v -32 -80 62
v -28 -40 56
v -65 -59 62
v -80 -24 54
v -40 0 54
v -80 24 38
v -32 40 38
v -52 64 25
v 0 75 19
v 32 40 38
v 52 64 25
v 80 24 38
v 40 8 79
v -40 8 79
v -28 -43 92
v 28 -43 92
v 32 40 74
v -32 40 74

f 1 2 3
f 1 3 4
f 1 4 5
f 1 5 6
f 6 5 7
f 6 7 8
f 6 8 9
f 9 8 10
f 9 10 11
f 9 11 12
f 12 11 13
f 12 13 14
f 14 13 15
f 14 15 16
f 14 16 17
f 17 16 18
f 17 18 19
f 17 19 2
f 2 19 3
f 20 21 22
f 20 22 23
f 20 23 2
f 20 2 24
f 20 24 21
f 21 24 25
f 21 25 12
f 21 12 22
f 22 12 9
f 22 9 6
f 22 6 23
f 23 6 1
f 23 1 2
f 25 14 12
f 14 25 17
f 17 25 24
f 17 24 2
