# RS2 Model 5561
# Vertices: 153
# Faces: 279

v -8 -57 57
v -2 -51 57
v -2 -45 57
v -8 -39 57
v -14 -39 57
v -20 -45 57
v -20 -51 57
v -14 -57 57
v -7 -60 57
v 1 -52 57
v 1 -44 57
v -7 -36 57
v -15 -36 57
v -23 -44 57
v -23 -52 57
v -15 -60 57
v -15 -60 0
v -7 -60 0
v 1 -52 0
v 1 -44 0
v -7 -36 0
v -15 -36 0
v -23 -44 0
v -23 -52 0
v -23 -14 3
v -18 -20 4
v -16 -26 4
v -23 -32 3
v -30 -31 1
v -35 -26 0
v -34 -20 0
v -29 -13 1
v -22 -11 3
v -14 -19 5
v -14 -27 5
v -23 -35 3
v -31 -34 1
v -38 -26 -1
v -37 -18 -1
v -30 -11 1
v -53 -9 98
v -45 -10 100
v -38 -18 102
v -38 -27 102
v -47 -34 100
v -54 -33 98
v -63 -25 96
v -62 -17 96
v -52 -12 98
v -47 -13 100
v -41 -19 101
v -41 -26 101
v -48 -30 100
v -54 -30 98
v -59 -24 97
v -59 -18 97
v -21 16 3
v -18 9 4
v -18 2 4
v -26 -2 3
v -32 1 1
v -36 7 0
v -34 13 0
v -27 18 1
v -20 18 3
v -14 9 5
v -16 1 5
v -27 -5 3
v -34 -2 1
v -39 8 -1
v -36 15 -1
v -28 20 1
v -49 28 98
v -42 25 100
v -37 15 102
v -39 7 102
v -50 2 100
v -56 5 98
v -63 15 96
v -60 22 96
v -49 25 98
v -44 23 100
v -40 15 101
v -42 8 101
v -50 6 100
v -55 8 98
v -59 15 97
v -57 21 97
v -29 60 3
v -22 56 4
v -18 51 4
v -22 43 3
v -29 41 1
v -36 44 0
v -37 50 0
v -35 58 1
v -29 63 3
v -19 58 5
v -16 51 5
v -21 40 3
v -29 38 1
v -38 43 -1
v -40 50 -1
v -37 60 1
v -59 53 98
v -51 55 100
v -41 50 102
v -38 42 102
v -44 32 100
v -50 30 98
v -62 34 96
v -64 42 96
v -57 50 98
v -52 51 100
v -44 48 101
v -41 42 101
v -46 35 100
v -52 33 98
v -59 37 97
v -61 42 97
v 47 -55 21
v 41 -57 15
v 41 -57 9
v 47 -55 3
v 51 -51 3
v 57 -47 9
v 57 -47 15
v 51 -51 21
v 46 -55 24
v 39 -60 16
v 39 -60 8
v 46 -55 0
v 52 -50 0
v 60 -46 8
v 60 -46 16
v 52 -50 24
v -5 32 24
v -12 27 24
v -18 23 16
v -18 23 8
v -12 27 0
v -5 32 0
v 1 36 8
v 1 36 16
v -6 32 21
v -12 27 21
v -16 24 15
v -16 24 9
v -12 27 3
v -6 32 3
v -1 34 9
v -1 34 15
v 40 45 0

f 1 2 3
f 1 3 4
f 1 4 5
f 1 5 6
f 1 6 7
f 1 7 8
f 1 8 9
f 1 9 10
f 1 10 2
f 2 10 11
f 2 11 3
f 3 11 12
f 3 12 4
f 4 12 13
f 4 13 5
f 5 13 14
f 5 14 6
f 6 14 15
f 6 15 7
f 7 15 16
f 7 16 8
f 8 16 9
f 9 16 17
f 9 17 18
f 9 18 10
f 10 18 19
f 10 19 11
f 11 19 20
f 11 20 12
f 12 20 21
f 12 21 13
f 13 21 22
f 13 22 14
f 14 22 23
f 14 23 15
f 15 23 24
f 15 24 16
f 16 24 17
f 25 26 27
f 25 27 28
f 25 28 29
f 25 29 30
f 25 30 31
f 25 31 32
f 25 32 33
f 25 33 34
f 25 34 26
f 26 34 35
f 26 35 27
f 27 35 36
f 27 36 28
f 28 36 37
f 28 37 29
f 29 37 38
f 29 38 30
f 30 38 39
f 30 39 31
f 31 39 40
f 31 40 32
f 32 40 33
f 33 40 41
f 33 41 42
f 33 42 34
f 34 42 43
f 34 43 35
f 35 43 44
f 35 44 36
f 36 44 45
f 36 45 37
f 37 45 46
f 37 46 38
f 38 46 47
f 38 47 39
f 39 47 48
f 39 48 40
f 40 48 41
f 41 48 49
f 41 49 50
f 41 50 42
f 42 50 51
f 42 51 43
f 43 51 52
f 43 52 44
f 44 52 53
f 44 53 45
f 45 53 54
f 45 54 46
f 46 54 55
f 46 55 47
f 47 55 56
f 47 56 48
f 48 56 49
f 49 56 55
f 49 55 54
f 49 54 53
f 49 53 52
f 49 52 51
f 49 51 50
f 57 58 59
f 57 59 60
f 57 60 61
f 57 61 62
f 57 62 63
f 57 63 64
f 57 64 65
f 57 65 66
f 57 66 58
f 58 66 67
f 58 67 59
f 59 67 68
f 59 68 60
f 60 68 69
f 60 69 61
f 61 69 70
f 61 70 62
f 62 70 71
f 62 71 63
f 63 71 72
f 63 72 64
f 64 72 65
f 65 72 73
f 65 73 74
f 65 74 66
f 66 74 75
f 66 75 67
f 67 75 76
f 67 76 68
f 68 76 77
f 68 77 69
f 69 77 78
f 69 78 70
f 70 78 79
f 70 79 71
f 71 79 80
f 71 80 72
f 72 80 73
f 73 80 81
f 73 81 82
f 73 82 74
f 74 82 83
f 74 83 75
f 75 83 84
f 75 84 76
f 76 84 85
f 76 85 77
f 77 85 86
f 77 86 78
f 78 86 87
f 78 87 79
f 79 87 88
f 79 88 80
f 80 88 81
f 81 88 87
f 81 87 86
f 81 86 85
f 81 85 84
f 81 84 83
f 81 83 82
f 89 90 91
f 89 91 92
f 89 92 93
f 89 93 94
f 89 94 95
f 89 95 96
f 89 96 97
f 89 97 98
f 89 98 90
f 90 98 99
f 90 99 91
f 91 99 100
f 91 100 92
f 92 100 101
f 92 101 93
f 93 101 102
f 93 102 94
f 94 102 103
f 94 103 95
f 95 103 104
f 95 104 96
f 96 104 97
f 97 104 105
f 97 105 106
f 97 106 98
f 98 106 107
f 98 107 99
f 99 107 108
f 99 108 100
f 100 108 109
f 100 109 101
f 101 109 110
f 101 110 102
f 102 110 111
f 102 111 103
f 103 111 112
f 103 112 104
f 104 112 105
f 105 112 113
f 105 113 114
f 105 114 106
f 106 114 115
f 106 115 107
f 107 115 116
f 107 116 108
f 108 116 117
f 108 117 109
f 109 117 118
f 109 118 110
f 110 118 119
f 110 119 111
f 111 119 120
f 111 120 112
f 112 120 113
f 113 120 119
f 113 119 118
f 113 118 117
f 113 117 116
f 113 116 115
f 113 115 114
f 121 122 123
f 121 123 124
f 121 124 125
f 121 125 126
f 121 126 127
f 121 127 128
f 121 128 129
f 121 129 130
f 121 130 122
f 122 130 131
f 122 131 123
f 123 131 132
f 123 132 124
f 124 132 133
f 124 133 125
f 125 133 134
f 125 134 126
f 126 134 135
f 126 135 127
f 127 135 136
f 127 136 128
f 128 136 129
f 129 136 137
f 129 137 138
f 129 138 130
f 130 138 139
f 130 139 131
f 131 139 140
f 131 140 132
f 132 140 141
f 132 141 133
f 133 141 142
f 133 142 134
f 134 142 143
f 134 143 135
f 135 143 144
f 135 144 136
f 136 144 137
f 137 144 145
f 137 145 146
f 137 146 138
f 138 146 147
f 138 147 139
f 139 147 148
f 139 148 140
f 140 148 149
f 140 149 141
f 141 149 150
f 141 150 142
f 142 150 151
f 142 151 143
f 143 151 152
f 143 152 144
f 144 152 145
f 145 152 151
f 145 151 150
f 145 150 149
f 145 149 148
f 145 148 147
f 145 147 146
f 133 153 142
