# RS2 Model 5657
# Vertices: 35
# Faces: 38

v 55 -11 49
v 51 -19 38
v 64 -19 38
v 64 -11 49
v 55 13 49
v -64 10 79
v -64 1 79
v -64 -9 79
v -64 -12 75
v -64 -16 69
v 45 -19 14
v 64 -19 14
v 41 -7 2
v 64 -7 2
v 64 13 49
v 51 25 38
v -64 22 69
v -64 17 73
v 64 25 38
v 45 25 14
v -64 22 44
v -64 22 55
v 41 13 2
v 64 25 14
v 64 13 2
v -64 -16 44
v -64 -16 58
v -64 -5 34
v -64 -11 39
v -64 10 34
v -64 2 34
v -64 15 39
v 0 25 14
v 21 25 14
v 0 13 2

f 1 2 3
f 1 3 4
f 1 4 5
f 1 5 6
f 1 6 7
f 1 7 8
f 1 8 2
f 2 8 9
f 2 9 10
f 2 10 11
f 2 11 12
f 2 12 3
f 11 13 14
f 11 14 12
f 5 4 15
f 5 15 16
f 5 16 17
f 5 17 18
f 5 18 6
f 16 15 19
f 16 19 20
f 16 20 21
f 16 21 22
f 16 22 17
f 23 20 24
f 23 24 25
f 20 19 24
f 26 13 11
f 26 11 27
f 27 11 10
f 28 23 13
f 28 13 29
f 29 13 26
f 30 20 23
f 30 23 31
f 31 23 28
f 30 32 20
f 20 32 21
