# RS2 Model 5670
# Vertices: 72
# Faces: 132

v 9 12 187
v 13 5 188
v 6 9 179
v 0 16 187
v 0 13 197
v 4 9 197
v 10 3 198
v 10 -3 198
v 15 -3 188
v 17 -3 182
v 17 3 177
v 11 5 180
v 8 -18 190
v 8 -16 186
v 10 -13 185
v 12 -12 189
v 10 -10 199
v 6 -16 199
v 3 -18 194
v 3 -20 191
v 0 -22 190
v 0 -20 186
v -8 -18 190
v -6 -17 186
v -4 -20 191
v -3 -19 194
v -5 -16 199
v -9 -10 199
v -12 -12 189
v -9 -13 185
v -12 5 188
v -8 12 187
v -6 9 179
v -11 5 180
v -17 3 178
v -17 -4 183
v -15 -4 189
v -10 -3 198
v -10 3 198
v -4 9 197
v 0 12 178
v 0 7 197
v 8 1 197
v 16 -10 178
v 18 -4 178
v 14 -4 175
v 13 3 177
v 14 -10 179
v 8 -8 197
v 0 -13 197
v 0 -17 199
v 0 -19 195
v 0 -21 196
v 3 -21 195
v 3 -22 192
v 0 -22 191
v 0 -21 191
v -3 -22 192
v -3 -21 195
v -8 -8 197
v -15 -10 177
v -13 -10 179
v -13 3 177
v -14 -4 175
v -18 -4 177
v -8 1 197
v -5 0 206
v 0 5 203
v 5 0 206
v 5 -7 205
v 0 -12 206
v -5 -7 205

f 1 2 3
f 1 3 4
f 1 4 5
f 1 5 6
f 1 6 7
f 1 7 2
f 2 7 8
f 2 8 9
f 2 9 10
f 2 10 11
f 2 11 12
f 2 12 3
f 13 14 15
f 13 15 16
f 13 16 17
f 13 17 18
f 13 18 19
f 13 19 20
f 13 20 21
f 13 21 22
f 13 22 14
f 23 24 22
f 23 22 21
f 23 21 25
f 23 25 26
f 23 26 27
f 23 27 28
f 23 28 29
f 23 29 30
f 23 30 24
f 31 32 33
f 31 33 34
f 31 34 35
f 31 35 36
f 31 36 37
f 31 37 38
f 31 38 39
f 31 39 40
f 31 40 32
f 32 40 5
f 32 5 4
f 32 4 33
f 33 4 41
f 41 4 3
f 7 6 42
f 7 42 43
f 7 43 8
f 8 43 17
f 8 17 16
f 8 16 9
f 9 16 10
f 10 16 44
f 10 44 45
f 10 45 11
f 11 45 46
f 11 46 47
f 11 47 12
f 12 47 48
f 12 48 15
f 15 48 16
f 16 48 44
f 44 48 46
f 44 46 45
f 17 43 49
f 17 49 50
f 17 50 18
f 18 50 51
f 18 51 52
f 18 52 19
f 19 52 53
f 19 53 54
f 19 54 55
f 19 55 20
f 20 55 56
f 20 56 57
f 20 57 21
f 21 57 25
f 25 57 56
f 25 56 58
f 25 58 26
f 26 58 59
f 26 59 53
f 26 53 52
f 26 52 27
f 27 52 51
f 27 51 50
f 27 50 28
f 28 50 60
f 28 60 38
f 28 38 29
f 29 38 37
f 29 37 36
f 29 36 61
f 29 61 62
f 29 62 30
f 30 62 34
f 34 62 63
f 34 63 35
f 35 63 64
f 35 64 65
f 35 65 36
f 36 65 61
f 61 65 64
f 61 64 62
f 62 64 63
f 42 40 39
f 42 39 66
f 42 66 67
f 42 67 68
f 42 68 43
f 43 68 69
f 43 69 49
f 49 69 70
f 49 70 50
f 50 70 71
f 50 71 60
f 60 71 72
f 60 72 66
f 60 66 39
f 60 39 38
f 72 71 70
f 72 70 69
f 72 69 67
f 72 67 66
f 46 48 47
f 53 58 56
f 53 56 55
f 53 55 54
f 53 59 58
f 6 5 42
f 42 5 40
f 69 68 67
