# RS2 Model 5702
# Vertices: 40
# Faces: 34

v 17 -38 6
v -10 -52 6
v -13 -61 0
v 23 -44 0
v 15 5 6
v -2 -23 8
v -22 -37 6
v -28 -41 0
v -22 3 6
v -29 3 0
v 21 4 0
v 20 37 3
v -31 43 4
v 7 55 3
v 9 61 0
v -36 47 0
v 25 42 0
v -8 30 4
v -8 20 14
v -8 -20 12
v -8 -31 4
v -64 -20 12
v -64 -31 4
v -64 20 14
v -64 30 4
v -71 57 3
v -65 -66 4
v 59 64 1
v -88 69 -33
v -88 -14 41
v 20 67 -33
v -8 30 -5
v -8 2 22
v -8 2 -7
v -90 50 14
v -90 -50 7
v 18 50 14
v -89 21 38
v -89 -65 -18
v 20 23 38

f 1 2 3
f 1 3 4
f 1 4 5
f 1 5 6
f 1 6 2
f 2 6 7
f 2 7 8
f 2 8 3
f 7 9 10
f 7 10 8
f 5 4 11
f 5 11 12
f 5 12 9
f 5 9 6
f 6 9 7
f 13 14 15
f 13 15 16
f 13 16 9
f 13 9 14
f 14 9 12
f 14 12 17
f 14 17 15
f 12 11 17
f 9 16 10
f 18 19 20
f 18 20 21
f 21 20 22
f 21 22 23
f 24 22 20
f 24 20 19
f 24 19 25
f 25 19 18
f 26 27 28
f 29 30 31
