# RS2 Model 5724
# Vertices: 243
# Faces: 450

v -16 -58 89
v -7 -65 85
v -7 -52 108
v -16 -48 97
v -20 -42 91
v -14 -42 79
v -7 -42 67
v 0 -71 85
v 0 -54 109
v 0 -30 109
v -7 -34 107
v -14 -36 97
v -16 -24 89
v -9 -17 89
v 0 -42 63
v 11 -67 85
v 11 -54 107
v 11 -30 107
v 0 -13 89
v 11 -42 67
v 21 -52 85
v 21 -46 97
v 21 -36 97
v 21 -30 91
v 11 -17 89
v 21 -42 77
v 25 -42 91
v 22 28 93
v 25 26 93
v 25 32 103
v 22 34 97
v 18 34 95
v 22 34 91
v 25 34 87
v 29 24 93
v 29 30 103
v 29 41 103
v 25 38 101
v 22 36 97
v 22 43 93
v 25 45 93
v 29 34 85
v 35 26 93
v 35 30 101
v 35 41 101
v 29 47 93
v 35 34 87
v 40 32 93
v 40 34 97
v 40 36 97
v 40 41 95
v 35 45 93
v 40 34 91
v 44 34 95
v 73 0 105
v 83 -7 101
v 83 6 123
v 73 10 111
v 70 16 107
v 75 16 95
v 83 16 83
v 90 -13 101
v 90 4 125
v 90 28 125
v 83 24 121
v 75 22 111
v 73 34 105
v 81 41 105
v 90 16 79
v 101 -9 101
v 101 4 121
v 101 28 121
v 90 45 105
v 101 16 83
v 110 6 101
v 110 12 111
v 110 22 111
v 110 28 107
v 101 41 105
v 110 16 93
v 116 16 107
v -25 -25 145
v -4 -42 133
v -4 -10 196
v -25 -2 171
v -36 14 149
v -23 14 121
v -4 16 89
v 18 -52 133
v 18 -19 204
v 18 49 204
v -4 39 194
v -23 26 171
v -25 60 145
v -6 77 145
v 18 18 81
v 49 -44 135
v 49 -17 194
v 49 47 194
v 18 85 145
v 49 18 89
v 73 -13 139
v 73 0 171
v 73 28 171
v 73 49 147
v 49 77 145
v 73 16 113
v 84 14 149
v -36 -5 119
v -20 -15 111
v -20 6 155
v -36 12 137
v -45 22 121
v -34 22 105
v -20 22 83
v -3 -23 111
v -3 0 161
v -3 45 161
v -20 38 153
v -34 30 137
v -36 53 119
v -21 64 119
v -3 24 77
v 18 -17 113
v 18 2 153
v 18 45 153
v -3 70 119
v 18 24 83
v 37 6 115
v 37 14 137
v 37 30 137
v 37 45 121
v 18 64 119
v 37 22 99
v 44 22 121
v -103 -13 113
v -82 -30 105
v -82 -2 155
v -103 6 135
v -112 20 117
v -101 20 95
v -82 22 69
v -66 -38 105
v -66 -9 161
v -66 47 161
v -82 38 153
v -101 28 135
v -103 55 113
v -84 70 113
v -66 24 63
v -38 -32 107
v -38 -7 153
v -38 45 153
v -66 76 113
v -38 24 69
v -16 -2 109
v -16 8 135
v -16 30 135
v -16 47 115
v -38 70 113
v -16 22 89
v -7 20 117
v -116 42 101
v -107 36 97
v -107 48 119
v -116 52 108
v -120 58 103
v -114 58 91
v -107 58 79
v -100 29 97
v -100 46 121
v -100 70 121
v -107 66 117
v -114 64 108
v -116 77 101
v -109 83 101
v -100 58 75
v -89 34 97
v -89 46 117
v -89 70 117
v -100 87 101
v -89 58 79
v -79 48 97
v -79 54 108
v -79 64 108
v -79 70 103
v -89 83 101
v -79 58 89
v -74 58 103
v -110 -48 123
v -101 -54 119
v -101 -42 143
v -110 -38 131
v -114 -32 125
v -108 -32 113
v -101 -32 103
v -94 -61 119
v -94 -44 145
v -94 -20 145
v -101 -24 141
v -108 -26 131
v -110 -13 123
v -103 -7 123
v -94 -32 99
v -83 -56 119
v -83 -44 141
v -83 -20 141
v -94 -3 123
v -83 -32 103
v -73 -42 119
v -73 -36 131
v -73 -26 131
v -73 -20 125
v -83 -7 123
v -73 -32 111
v -68 -32 125
v 35 50 95
v 48 42 89
v 48 58 123
v 35 60 108
v 29 72 99
v 37 72 83
v 48 72 65
v 59 33 89
v 59 56 127
v 59 89 127
v 48 83 121
v 37 81 107
v 35 97 95
v 44 106 95
v 59 72 59
v 72 38 89
v 72 56 121
v 72 89 121
v 59 112 95
v 72 72 65
v 85 58 89
v 85 66 107
v 85 81 107
v 85 89 99
v 72 106 95
v 85 72 81
v 92 72 99

f 1 2 3
f 1 3 4
f 1 4 5
f 1 5 6
f 1 6 2
f 2 6 7
f 2 7 8
f 2 8 3
f 3 8 9
f 3 9 10
f 3 10 11
f 3 11 4
f 4 11 12
f 4 12 5
f 5 12 13
f 5 13 6
f 6 13 7
f 7 13 14
f 7 14 15
f 7 15 8
f 8 15 16
f 8 16 17
f 8 17 9
f 9 17 18
f 9 18 10
f 10 18 19
f 10 19 11
f 11 19 14
f 11 14 12
f 12 14 13
f 15 14 19
f 15 19 20
f 15 20 16
f 16 20 21
f 16 21 22
f 16 22 17
f 17 22 23
f 17 23 18
f 18 23 24
f 18 24 25
f 18 25 19
f 19 25 20
f 20 25 26
f 20 26 21
f 21 26 27
f 21 27 22
f 22 27 23
f 23 27 24
f 24 27 26
f 24 26 25
f 28 29 30
f 28 30 31
f 28 31 32
f 28 32 33
f 28 33 29
f 29 33 34
f 29 34 35
f 29 35 30
f 30 35 36
f 30 36 37
f 30 37 38
f 30 38 31
f 31 38 39
f 31 39 32
f 32 39 40
f 32 40 33
f 33 40 34
f 34 40 41
f 34 41 42
f 34 42 35
f 35 42 43
f 35 43 44
f 35 44 36
f 36 44 45
f 36 45 37
f 37 45 46
f 37 46 38
f 38 46 41
f 38 41 39
f 39 41 40
f 42 41 46
f 42 46 47
f 42 47 43
f 43 47 48
f 43 48 49
f 43 49 44
f 44 49 50
f 44 50 45
f 45 50 51
f 45 51 52
f 45 52 46
f 46 52 47
f 47 52 53
f 47 53 48
f 48 53 54
f 48 54 49
f 49 54 50
f 50 54 51
f 51 54 53
f 51 53 52
f 55 56 57
f 55 57 58
f 55 58 59
f 55 59 60
f 55 60 56
f 56 60 61
f 56 61 62
f 56 62 57
f 57 62 63
f 57 63 64
f 57 64 65
f 57 65 58
f 58 65 66
f 58 66 59
f 59 66 67
f 59 67 60
f 60 67 61
f 61 67 68
f 61 68 69
f 61 69 62
f 62 69 70
f 62 70 71
f 62 71 63
f 63 71 72
f 63 72 64
f 64 72 73
f 64 73 65
f 65 73 68
f 65 68 66
f 66 68 67
f 69 68 73
f 69 73 74
f 69 74 70
f 70 74 75
f 70 75 76
f 70 76 71
f 71 76 77
f 71 77 72
f 72 77 78
f 72 78 79
f 72 79 73
f 73 79 74
f 74 79 80
f 74 80 75
f 75 80 81
f 75 81 76
f 76 81 77
f 77 81 78
f 78 81 80
f 78 80 79
f 82 83 84
f 82 84 85
f 82 85 86
f 82 86 87
f 82 87 83
f 83 87 88
f 83 88 89
f 83 89 84
f 84 89 90
f 84 90 91
f 84 91 92
f 84 92 85
f 85 92 93
f 85 93 86
f 86 93 94
f 86 94 87
f 87 94 88
f 88 94 95
f 88 95 96
f 88 96 89
f 89 96 97
f 89 97 98
f 89 98 90
f 90 98 99
f 90 99 91
f 91 99 100
f 91 100 92
f 92 100 95
f 92 95 93
f 93 95 94
f 96 95 100
f 96 100 101
f 96 101 97
f 97 101 102
f 97 102 103
f 97 103 98
f 98 103 104
f 98 104 99
f 99 104 105
f 99 105 106
f 99 106 100
f 100 106 101
f 101 106 107
f 101 107 102
f 102 107 108
f 102 108 103
f 103 108 104
f 104 108 105
f 105 108 107
f 105 107 106
f 109 110 111
f 109 111 112
f 109 112 113
f 109 113 114
f 109 114 110
f 110 114 115
f 110 115 116
f 110 116 111
f 111 116 117
f 111 117 118
f 111 118 119
f 111 119 112
f 112 119 120
f 112 120 113
f 113 120 121
f 113 121 114
f 114 121 115
f 115 121 122
f 115 122 123
f 115 123 116
f 116 123 124
f 116 124 125
f 116 125 117
f 117 125 126
f 117 126 118
f 118 126 127
f 118 127 119
f 119 127 122
f 119 122 120
f 120 122 121
f 123 122 127
f 123 127 128
f 123 128 124
f 124 128 129
f 124 129 130
f 124 130 125
f 125 130 131
f 125 131 126
f 126 131 132
f 126 132 133
f 126 133 127
f 127 133 128
f 128 133 134
f 128 134 129
f 129 134 135
f 129 135 130
f 130 135 131
f 131 135 132
f 132 135 134
f 132 134 133
f 136 137 138
f 136 138 139
f 136 139 140
f 136 140 141
f 136 141 137
f 137 141 142
f 137 142 143
f 137 143 138
f 138 143 144
f 138 144 145
f 138 145 146
f 138 146 139
f 139 146 147
f 139 147 140
f 140 147 148
f 140 148 141
f 141 148 142
f 142 148 149
f 142 149 150
f 142 150 143
f 143 150 151
f 143 151 152
f 143 152 144
f 144 152 153
f 144 153 145
f 145 153 154
f 145 154 146
f 146 154 149
f 146 149 147
f 147 149 148
f 150 149 154
f 150 154 155
f 150 155 151
f 151 155 156
f 151 156 157
f 151 157 152
f 152 157 158
f 152 158 153
f 153 158 159
f 153 159 160
f 153 160 154
f 154 160 155
f 155 160 161
f 155 161 156
f 156 161 162
f 156 162 157
f 157 162 158
f 158 162 159
f 159 162 161
f 159 161 160
f 163 164 165
f 163 165 166
f 163 166 167
f 163 167 168
f 163 168 164
f 164 168 169
f 164 169 170
f 164 170 165
f 165 170 171
f 165 171 172
f 165 172 173
f 165 173 166
f 166 173 174
f 166 174 167
f 167 174 175
f 167 175 168
f 168 175 169
f 169 175 176
f 169 176 177
f 169 177 170
f 170 177 178
f 170 178 179
f 170 179 171
f 171 179 180
f 171 180 172
f 172 180 181
f 172 181 173
f 173 181 176
f 173 176 174
f 174 176 175
f 177 176 181
f 177 181 182
f 177 182 178
f 178 182 183
f 178 183 184
f 178 184 179
f 179 184 185
f 179 185 180
f 180 185 186
f 180 186 187
f 180 187 181
f 181 187 182
f 182 187 188
f 182 188 183
f 183 188 189
f 183 189 184
f 184 189 185
f 185 189 186
f 186 189 188
f 186 188 187
f 190 191 192
f 190 192 193
f 190 193 194
f 190 194 195
f 190 195 191
f 191 195 196
f 191 196 197
f 191 197 192
f 192 197 198
f 192 198 199
f 192 199 200
f 192 200 193
f 193 200 201
f 193 201 194
f 194 201 202
f 194 202 195
f 195 202 196
f 196 202 203
f 196 203 204
f 196 204 197
f 197 204 205
f 197 205 206
f 197 206 198
f 198 206 207
f 198 207 199
f 199 207 208
f 199 208 200
f 200 208 203
f 200 203 201
f 201 203 202
f 204 203 208
f 204 208 209
f 204 209 205
f 205 209 210
f 205 210 211
f 205 211 206
f 206 211 212
f 206 212 207
f 207 212 213
f 207 213 214
f 207 214 208
f 208 214 209
f 209 214 215
f 209 215 210
f 210 215 216
f 210 216 211
f 211 216 212
f 212 216 213
f 213 216 215
f 213 215 214
f 217 218 219
f 217 219 220
f 217 220 221
f 217 221 222
f 217 222 218
f 218 222 223
f 218 223 224
f 218 224 219
f 219 224 225
f 219 225 226
f 219 226 227
f 219 227 220
f 220 227 228
f 220 228 221
f 221 228 229
f 221 229 222
f 222 229 223
f 223 229 230
f 223 230 231
f 223 231 224
f 224 231 232
f 224 232 233
f 224 233 225
f 225 233 234
f 225 234 226
f 226 234 235
f 226 235 227
f 227 235 230
f 227 230 228
f 228 230 229
f 231 230 235
f 231 235 236
f 231 236 232
f 232 236 237
f 232 237 238
f 232 238 233
f 233 238 239
f 233 239 234
f 234 239 240
f 234 240 241
f 234 241 235
f 235 241 236
f 236 241 242
f 236 242 237
f 237 242 243
f 237 243 238
f 238 243 239
f 239 243 240
f 240 243 242
f 240 242 241
