# RS2 Model 5762
# Vertices: 44
# Faces: 54

v -17 37 14
v -27 35 5
v -21 32 5
v -14 34 5
v -12 39 5
v -16 45 5
v -27 45 5
v -29 46 0
v -29 34 0
v -21 27 0
v -14 32 0
v -8 36 0
v -14 50 0
v -30 -8 20
v -42 -14 5
v -36 -17 5
v -29 -15 5
v -27 -10 5
v -31 -4 5
v -42 -4 5
v -44 -3 0
v -44 -15 0
v -36 -22 0
v -29 -17 0
v -23 -13 0
v -29 1 0
v -9 -41 8
v -19 -43 0
v -13 -46 0
v -6 -44 0
v -4 -39 0
v -8 -33 0
v -19 -33 0
v 5 11 20
v -12 15 5
v -11 6 5
v -3 0 5
v 1 1 5
v 0 -7 0
v -6 -3 0
v -16 2 0
v -15 17 0
v 0 28 0
v 1 24 5

f 1 2 3
f 1 3 4
f 1 4 5
f 1 5 6
f 1 6 7
f 1 7 2
f 2 7 8
f 2 8 9
f 2 9 10
f 2 10 3
f 3 10 4
f 4 10 11
f 4 11 12
f 4 12 5
f 5 12 13
f 5 13 6
f 6 13 8
f 6 8 7
f 14 15 16
f 14 16 17
f 14 17 18
f 14 18 19
f 14 19 20
f 14 20 15
f 15 20 21
f 15 21 22
f 15 22 23
f 15 23 16
f 16 23 17
f 17 23 24
f 17 24 25
f 17 25 18
f 18 25 26
f 18 26 19
f 19 26 21
f 19 21 20
f 27 28 29
f 27 29 30
f 27 30 31
f 27 31 32
f 27 32 33
f 27 33 28
f 34 35 36
f 34 36 37
f 34 37 38
f 38 37 39
f 39 37 40
f 40 37 41
f 41 37 36
f 41 36 35
f 41 35 42
f 42 35 43
f 43 35 44
f 44 35 34
