# RS2 Model 5797
# Vertices: 74
# Faces: 156

v -11 -12 10
v -11 -12 14
v -24 -17 12
v -12 -8 10
v -12 -8 14
v -13 -6 10
v -13 -6 14
v -28 -4 12
v -14 -2 10
v -14 -2 14
v -14 1 10
v -14 1 14
v -25 9 12
v -12 5 10
v -12 5 14
v -11 5 10
v -11 5 14
v -15 18 12
v -7 7 10
v -7 7 14
v -4 -8 22
v -10 -13 19
v -6 -13 20
v -3 -13 20
v 1 -11 20
v 0 -6 22
v -2 -4 22
v -11 -2 22
v -7 -15 15
v -10 -13 12
v -6 -14 12
v -12 -12 12
v -10 -13 5
v -7 -15 9
v -16 0 7
v -11 -2 2
v -4 -8 2
v -6 -13 4
v -7 8 4
v -3 -1 2
v -2 -4 2
v -1 0 2
v 6 2 4
v 3 -3 2
v 7 6 7
v 11 -5 9
v 0 -6 2
v 0 -4 2
v 2 -5 2
v 8 -9 6
v 1 -11 4
v 2 -5 22
v 0 -4 22
v 8 -9 18
v -16 0 17
v -7 8 20
v -12 6 12
v -3 -1 22
v -1 0 22
v 6 2 20
v 7 6 17
v -3 -13 4
v 11 -5 15
v 3 -3 22
v 3 -18 12
v 12 -15 12
v 11 -11 19
v -1 -18 15
v -1 -18 9
v 11 -11 5
v 1 -13 23
v 4 -4 23
v 1 -13 1
v 4 -4 1

f 1 2 3
f 1 3 4
f 4 3 5
f 5 3 2
f 6 7 8
f 6 8 9
f 9 8 10
f 10 8 7
f 11 12 13
f 11 13 14
f 14 13 15
f 15 13 12
f 16 17 18
f 16 18 19
f 19 18 20
f 20 18 17
f 21 22 23
f 21 23 24
f 21 24 25
f 21 25 26
f 21 26 27
f 21 27 28
f 21 28 22
f 21 22 28
f 21 28 27
f 21 27 26
f 21 26 25
f 21 25 24
f 21 24 23
f 21 23 22
f 22 23 29
f 22 29 23
f 29 22 30
f 29 30 31
f 29 31 30
f 29 30 22
f 22 30 32
f 22 32 30
f 30 32 33
f 30 33 34
f 30 34 31
f 30 31 34
f 30 34 33
f 30 33 32
f 32 33 35
f 32 35 33
f 33 35 36
f 33 36 37
f 33 37 38
f 33 38 34
f 33 34 38
f 33 38 37
f 33 37 36
f 33 36 35
f 35 36 39
f 35 39 36
f 36 39 40
f 36 40 41
f 36 41 37
f 36 37 41
f 36 41 40
f 36 40 39
f 39 40 42
f 39 42 40
f 42 39 43
f 42 43 44
f 42 44 43
f 42 43 39
f 39 43 45
f 39 45 43
f 43 45 46
f 43 46 44
f 43 44 46
f 43 46 45
f 47 48 49
f 47 49 50
f 47 50 51
f 47 51 37
f 47 37 41
f 47 41 48
f 47 48 41
f 47 41 37
f 47 37 51
f 47 51 50
f 47 50 49
f 47 49 48
f 52 53 26
f 52 26 54
f 52 54 26
f 52 26 53
f 53 26 27
f 53 27 26
f 32 22 55
f 32 55 35
f 32 35 55
f 32 55 22
f 22 55 28
f 22 28 55
f 55 28 56
f 55 56 57
f 55 57 35
f 55 35 57
f 55 57 56
f 55 56 28
f 28 56 58
f 28 58 56
f 56 58 59
f 56 59 60
f 56 60 61
f 56 61 45
f 56 45 39
f 56 39 57
f 56 57 39
f 56 39 45
f 56 45 61
f 56 61 60
f 56 60 59
f 56 59 58
f 39 35 57
f 39 57 35
f 28 27 58
f 28 58 27
f 37 62 38
f 37 38 62
f 37 62 51
f 37 51 62
f 25 54 26
f 25 26 54
f 60 63 61
f 60 61 63
f 60 63 64
f 60 64 63
f 64 60 59
f 64 59 60
f 65 66 67
f 65 67 68
f 65 68 69
f 65 69 70
f 65 70 66
f 65 66 70
f 65 70 69
f 65 69 68
f 65 68 67
f 65 67 66
f 71 68 67
f 71 67 72
f 71 72 67
f 71 67 68
f 70 69 73
f 70 73 74
f 70 74 43
f 70 43 74
f 70 74 73
f 70 73 69
f 72 67 60
f 72 60 67
