# RS2 Model 5798
# Vertices: 135
# Faces: 216

v 26 31 -51
v 25 18 -18
v 24 -12 -34
v 22 2 -54
v 3 -14 -54
v -3 -14 -54
v -24 -12 -34
v -21 2 -54
v -26 31 -51
v -25 18 -18
v -6 40 -50
v 6 40 -50
v 27 -50 14
v 21 -53 23
v 9 -56 14
v 24 -53 8
v 24 -53 2
v 36 -41 11
v 24 -47 27
v 12 -53 23
v 9 -47 27
v 3 -53 14
v 11 -53 2
v 12 -56 5
v 16 -44 -8
v 23 -39 -14
v 39 -20 5
v 39 -26 17
v 39 -20 35
v 28 -41 32
v 17 -47 32
v -9 -56 14
v -21 -53 23
v -27 -50 14
v -24 -53 8
v -12 -56 5
v -11 -53 2
v -3 -53 14
v -12 -53 23
v -9 -47 27
v -24 -47 27
v -36 -41 11
v -24 -53 2
v -16 -44 -8
v 0 -74 -16
v -9 -55 -28
v -13 -46 -16
v -23 -39 -14
v 0 -71 -49
v 9 -55 -28
v 0 -52 -18
v 0 -44 -16
v -13 -43 -15
v -18 -43 -14
v -14 -44 -14
v -39 -20 5
v -39 -5 8
v -15 22 14
v 15 22 14
v 39 -5 8
v 13 -46 -16
v 18 -43 -14
v 13 -43 -15
v -4 -48 -13
v -4 -47 -11
v -5 -47 -9
v 5 -47 -9
v 14 -44 -14
v 4 -48 -13
v 4 -47 -11
v -66 19 62
v -48 -20 35
v -39 -20 35
v -60 19 65
v -48 4 26
v -48 -26 17
v -39 -26 17
v -28 -41 32
v -28 -39 35
v -18 -42 41
v -15 -29 62
v -15 -2 62
v -18 22 44
v -39 4 26
v -48 -5 8
v -48 -20 5
v 18 22 44
v 39 4 26
v 48 4 26
v 48 -5 8
v 48 -20 5
v 48 -26 17
v 48 -20 35
v 60 19 65
v 15 -2 62
v 15 -29 62
v 18 -42 41
v 28 -39 35
v 17 -45 36
v 5 -44 39
v 7 -47 32
v -7 -47 32
v -17 -47 32
v -17 -45 36
v -5 -44 39
v 66 19 62
v 3 -45 36
v -3 -45 36
v 27 -51 14
v 21 -54 23
v 9 -57 14
v 24 -54 8
v 12 -57 5
v 12 -54 23
v -9 -57 14
v -21 -54 23
v -27 -51 14
v -24 -54 8
v -12 -57 5
v -12 -54 23
v -56 -11 92
v -56 46 64
v -46 -50 11
v -41 2 80
v -81 1 68
v -17 -18 6
v -38 -38 41
v -39 -50 -19
v 39 -38 40
v 56 42 58
v 56 -13 87
v 48 9 -12
v 87 3 76
v 39 3 90
v 60 -19 -8

f 1 2 3
f 1 3 4
f 4 3 5
f 5 3 6
f 6 3 7
f 6 7 8
f 8 7 9
f 9 7 10
f 9 10 11
f 11 10 2
f 11 2 12
f 12 2 1
f 13 14 15
f 13 15 16
f 13 16 17
f 13 17 18
f 13 18 14
f 14 18 19
f 14 19 20
f 14 20 15
f 15 20 21
f 15 21 22
f 15 22 23
f 15 23 24
f 15 24 16
f 16 24 23
f 16 23 17
f 17 23 25
f 17 25 26
f 17 26 18
f 18 26 27
f 18 27 28
f 18 28 19
f 19 28 29
f 19 29 30
f 19 30 31
f 19 31 21
f 19 21 20
f 32 33 34
f 32 34 35
f 32 35 36
f 32 36 37
f 32 37 38
f 32 38 39
f 32 39 33
f 33 39 40
f 33 40 41
f 33 41 34
f 34 41 42
f 34 42 35
f 35 42 43
f 35 43 36
f 36 43 37
f 37 43 44
f 37 44 45
f 37 45 38
f 38 45 22
f 38 22 21
f 38 21 40
f 38 40 39
f 46 47 48
f 46 48 7
f 46 7 49
f 46 49 50
f 46 50 51
f 46 51 47
f 47 51 52
f 47 52 53
f 47 53 54
f 47 54 48
f 48 54 55
f 48 55 44
f 48 44 43
f 48 43 42
f 48 42 56
f 48 56 7
f 7 56 57
f 7 57 10
f 10 57 58
f 10 58 2
f 2 58 59
f 2 59 60
f 2 60 3
f 3 60 27
f 3 27 26
f 3 26 50
f 3 50 49
f 3 49 7
f 61 51 50
f 61 50 26
f 61 26 62
f 61 62 63
f 61 63 52
f 61 52 51
f 55 53 52
f 55 52 64
f 55 64 65
f 55 65 44
f 44 65 66
f 44 66 45
f 45 66 67
f 45 67 25
f 45 25 23
f 45 23 22
f 53 55 54
f 52 63 68
f 52 68 69
f 52 69 64
f 64 69 70
f 64 70 65
f 65 70 67
f 65 67 66
f 62 68 63
f 68 62 26
f 68 26 25
f 68 25 70
f 68 70 69
f 25 67 70
f 71 72 73
f 71 73 74
f 71 74 75
f 71 75 72
f 72 75 76
f 72 76 77
f 72 77 73
f 73 77 41
f 73 41 78
f 73 78 79
f 73 79 80
f 73 80 81
f 73 81 82
f 73 82 83
f 73 83 84
f 73 84 74
f 74 84 75
f 75 84 85
f 75 85 86
f 75 86 76
f 76 86 56
f 76 56 77
f 77 56 42
f 77 42 41
f 86 85 57
f 86 57 56
f 85 84 57
f 57 84 58
f 58 84 83
f 58 83 59
f 59 83 87
f 59 87 88
f 59 88 60
f 60 88 89
f 60 89 90
f 60 90 27
f 27 90 91
f 27 91 28
f 28 91 92
f 28 92 29
f 29 92 93
f 29 93 94
f 29 94 88
f 29 88 87
f 29 87 95
f 29 95 96
f 29 96 97
f 29 97 98
f 29 98 30
f 30 98 99
f 30 99 31
f 31 99 100
f 31 100 101
f 31 101 21
f 21 101 40
f 40 101 102
f 40 102 103
f 40 103 41
f 41 103 78
f 78 103 79
f 79 103 104
f 79 104 80
f 80 104 105
f 80 105 97
f 80 97 96
f 80 96 81
f 81 96 95
f 81 95 82
f 82 95 87
f 82 87 83
f 94 93 106
f 94 106 88
f 88 106 89
f 89 106 93
f 89 93 92
f 89 92 91
f 89 91 90
f 102 101 107
f 102 107 108
f 102 108 104
f 102 104 103
f 107 100 105
f 107 105 108
f 108 105 104
f 97 105 100
f 97 100 99
f 97 99 98
f 100 107 101
f 109 110 111
f 109 111 112
f 112 111 113
f 111 110 114
f 115 116 117
f 115 117 118
f 115 118 119
f 120 116 115
f 121 122 123
f 124 125 126
