# RS2 Model 5821
# Vertices: 40
# Faces: 34

v 11 6 2
v 15 -3 2
v 19 7 2
v 17 12 2
v 14 20 2
v 9 16 2
v 1 24 2
v 1 18 2
v -11 21 2
v -8 16 2
v -21 12 2
v -15 9 2
v -22 0 2
v -16 -1 2
v -20 -14 2
v -12 -9 2
v -10 -22 2
v -5 -14 2
v 8 -22 2
v 4 -14 2
v 20 -14 2
v 9 -9 2
v 3 5 2
v 26 8 2
v -40 32 0
v -40 -32 0
v -32 -40 0
v 32 -40 0
v 40 -32 0
v 40 32 0
v 32 40 0
v -32 40 0
v -28 24 1
v -28 -24 1
v -24 -28 1
v 24 -28 1
v 28 -24 1
v 28 24 1
v 24 28 1
v -24 28 1

f 1 2 3
f 1 3 4
f 1 4 5
f 1 5 6
f 6 5 7
f 6 7 8
f 8 7 9
f 8 9 10
f 10 9 11
f 10 11 12
f 12 11 13
f 12 13 14
f 14 13 15
f 14 15 16
f 16 15 17
f 16 17 18
f 18 17 19
f 18 19 20
f 20 19 21
f 20 21 22
f 1 23 2
f 3 2 24
f 25 26 27
f 25 27 28
f 25 28 29
f 25 29 30
f 25 30 31
f 25 31 32
f 33 34 35
f 33 35 36
f 33 36 37
f 33 37 38
f 33 38 39
f 33 39 40
