# RS2 Model 5858
# Vertices: 48
# Faces: 55

v -32 0 192
v -32 -64 192
v -64 -64 192
v -64 0 192
v -56 48 184
v -40 64 152
v -54 40 144
v -32 -16 128
v -32 -64 128
v -48 4 96
v -48 -64 96
v -48 0 64
v -48 -64 64
v -40 8 32
v -48 -64 32
v -64 0 0
v -64 -64 0
v 64 -64 240
v 64 -64 -160
v 64 64 -160
v 64 64 240
v -64 0 240
v -64 -64 240
v -64 -30 192
v -32 -30 192
v -32 -30 144
v -32 -54 144
v -64 -54 192
v -32 -54 192
v -40 64 240
v -54 32 224
v -44 40 200
v -44 64 192
v -64 64 0
v -56 48 24
v -44 64 32
v -44 40 40
v -58 40 64
v -56 64 72
v -56 48 96
v -32 64 104
v -48 40 120
v -47 -64 121
v -45 64 121
v -49 -64 -2
v -32 -167 120
v -46 -53 120
v -32 -170 -3

f 1 2 3
f 1 3 4
f 1 4 5
f 1 5 6
f 1 6 7
f 1 7 8
f 1 8 2
f 2 8 9
f 9 8 10
f 9 10 11
f 11 10 12
f 11 12 13
f 13 12 14
f 13 14 15
f 15 14 16
f 15 16 17
f 18 19 20
f 18 20 21
f 18 21 22
f 18 22 23
f 23 22 4
f 23 4 3
f 24 25 26
f 24 26 27
f 24 27 28
f 28 27 29
f 22 21 30
f 22 30 31
f 22 31 4
f 4 31 32
f 4 32 5
f 5 32 33
f 5 33 6
f 34 14 35
f 34 35 36
f 36 35 37
f 36 37 38
f 36 38 39
f 39 38 10
f 39 10 40
f 39 40 41
f 41 40 42
f 41 42 7
f 41 7 6
f 35 14 12
f 35 12 37
f 37 12 38
f 38 12 10
f 40 10 8
f 40 8 42
f 42 8 7
f 31 30 33
f 31 33 32
f 34 16 14
f 43 44 45
