# RS2 Model 5935
# Vertices: 118
# Faces: 240

v 7 7 41
v 7 -7 41
v 11 -11 21
v 11 11 21
v -7 7 41
v -8 8 160
v 8 8 135
v 8 -8 135
v -7 -7 41
v -11 -11 21
v 26 -26 11
v 26 26 11
v -26 26 11
v -11 11 21
v -8 -8 182
v -8 8 167
v -6 29 166
v -6 32 162
v -4 41 174
v -4 45 173
v 6 32 162
v 4 45 173
v 6 29 166
v 8 8 167
v 8 8 160
v 8 -8 143
v 8 8 143
v 27 4 140
v 29 4 137
v 37 4 145
v 41 4 145
v 29 -4 137
v 41 -4 145
v 27 -4 140
v -26 -26 11
v -36 -5 198
v -36 5 198
v -39 2 207
v -39 -2 207
v -42 -5 198
v -32 -6 184
v -26 -6 189
v -26 6 189
v -42 5 198
v -32 6 184
v -9 9 192
v -8 8 182
v 9 9 221
v -9 -9 192
v 9 -9 221
v -9 -9 221
v -9 9 221
v -4 4 232
v 4 4 232
v 4 41 174
v 2 45 186
v -2 45 186
v 37 -4 145
v 40 -2 151
v 40 2 151
v 4 -4 232
v -4 -4 232
v -11 33 182
v -13 30 176
v -2 29 176
v 8 32 184
v 6 42 190
v -10 44 189
v -10 54 174
v -10 53 164
v 0 54 171
v 1 59 164
v -7 55 163
v 10 53 175
v 12 52 165
v -8 51 183
v 6 50 184
v 10 28 177
v 7 54 164
v 57 4 134
v 53 -11 135
v 44 -10 151
v 43 -2 152
v 43 6 154
v 50 16 141
v 48 12 135
v 50 -6 132
v 38 -10 148
v 40 -21 134
v 31 -23 147
v 24 -5 154
v 36 6 152
v 51 7 116
v 53 -10 120
v 49 20 126
v 27 13 155
v 35 21 144
v -55 -2 192
v -51 13 193
v -42 12 209
v -41 4 210
v -41 -4 212
v -48 -14 199
v -46 -10 193
v -48 8 190
v -36 12 206
v -38 23 192
v -29 25 205
v -22 7 212
v -34 -4 210
v -49 -5 174
v -51 12 178
v -47 -18 184
v -25 -11 213
v -33 -19 202
v -3 -4 232
v 4 -3 232
v -4 3 232

f 1 2 3
f 1 3 4
f 1 4 5
f 1 5 6
f 1 6 7
f 1 7 2
f 2 7 8
f 2 8 9
f 2 9 10
f 2 10 3
f 3 10 11
f 3 11 12
f 3 12 4
f 4 12 13
f 4 13 14
f 4 14 5
f 5 14 9
f 5 9 15
f 5 15 6
f 6 15 16
f 6 16 17
f 6 17 18
f 18 17 19
f 18 19 20
f 18 20 21
f 21 20 22
f 21 22 23
f 21 23 24
f 21 24 25
f 25 24 26
f 25 26 27
f 25 27 6
f 6 27 7
f 7 27 28
f 7 28 29
f 29 28 30
f 29 30 31
f 29 31 32
f 32 31 33
f 32 33 34
f 32 34 26
f 32 26 8
f 8 26 15
f 8 15 9
f 14 10 9
f 10 14 35
f 10 35 11
f 14 13 35
f 36 37 38
f 36 38 39
f 36 39 40
f 36 40 41
f 36 41 42
f 36 42 37
f 37 42 43
f 37 43 44
f 37 44 38
f 38 44 39
f 39 44 40
f 40 44 45
f 40 45 41
f 43 45 44
f 45 43 46
f 45 46 47
f 47 46 48
f 47 48 16
f 47 16 15
f 49 46 43
f 49 43 42
f 49 42 15
f 49 15 50
f 49 50 51
f 49 51 52
f 49 52 46
f 46 52 48
f 48 52 53
f 48 53 54
f 48 54 50
f 48 50 24
f 48 24 16
f 16 24 23
f 16 23 17
f 17 23 55
f 17 55 19
f 19 55 56
f 19 56 57
f 19 57 20
f 20 57 22
f 22 57 56
f 22 56 55
f 22 55 23
f 15 42 41
f 30 58 59
f 30 59 60
f 30 60 31
f 31 60 33
f 33 60 59
f 33 59 58
f 33 58 34
f 34 58 28
f 34 28 27
f 34 27 26
f 28 58 30
f 26 50 15
f 50 26 24
f 51 50 61
f 51 61 62
f 51 62 52
f 52 62 53
f 53 62 54
f 54 62 61
f 54 61 50
f 63 64 65
f 63 65 66
f 63 66 67
f 63 67 68
f 63 68 69
f 63 69 64
f 64 69 70
f 70 69 71
f 70 71 72
f 70 72 73
f 74 75 71
f 74 71 69
f 74 69 76
f 74 76 77
f 74 77 66
f 74 66 75
f 75 66 78
f 78 66 65
f 77 76 68
f 77 68 67
f 77 67 66
f 69 68 76
f 75 79 72
f 75 72 71
f 80 81 82
f 80 82 83
f 80 83 84
f 80 84 85
f 80 85 86
f 80 86 87
f 80 87 81
f 80 81 87
f 80 87 86
f 80 86 85
f 80 85 84
f 80 84 83
f 80 83 82
f 80 82 81
f 81 82 87
f 81 87 82
f 82 87 88
f 82 88 83
f 82 83 88
f 82 88 87
f 87 88 89
f 87 89 88
f 88 89 90
f 88 90 91
f 88 91 92
f 88 92 83
f 88 83 92
f 88 92 91
f 88 91 90
f 88 90 89
f 93 94 87
f 93 87 86
f 93 86 95
f 93 95 86
f 93 86 87
f 93 87 94
f 94 87 89
f 94 89 87
f 91 96 92
f 91 92 96
f 96 92 97
f 96 97 92
f 92 97 86
f 92 86 85
f 92 85 84
f 92 84 83
f 92 83 84
f 92 84 85
f 92 85 86
f 92 86 97
f 97 86 95
f 97 95 86
f 98 99 100
f 98 100 101
f 98 101 102
f 98 102 103
f 98 103 104
f 98 104 105
f 98 105 99
f 98 99 105
f 98 105 104
f 98 104 103
f 98 103 102
f 98 102 101
f 98 101 100
f 98 100 99
f 99 100 105
f 99 105 100
f 100 105 106
f 100 106 101
f 100 101 106
f 100 106 105
f 105 106 107
f 105 107 106
f 106 107 108
f 106 108 109
f 106 109 110
f 106 110 101
f 106 101 110
f 106 110 109
f 106 109 108
f 106 108 107
f 111 112 105
f 111 105 104
f 111 104 113
f 111 113 104
f 111 104 105
f 111 105 112
f 112 105 107
f 112 107 105
f 109 114 110
f 109 110 114
f 114 110 115
f 114 115 110
f 110 115 104
f 110 104 103
f 110 103 102
f 110 102 101
f 110 101 102
f 110 102 103
f 110 103 104
f 110 104 115
f 115 104 113
f 115 113 104
