# RS2 Model 5977
# Vertices: 72
# Faces: 88

v -64 0 32
v -64 32 204
v -64 -32 204
v -64 -32 56
v -64 32 56
v -56 32 208
v -56 -32 208
v -49 -42 204
v -64 -42 198
v -55 -50 207
v -64 -50 203
v -55 -50 216
v -64 -50 221
v -49 -42 219
v -64 -42 226
v -56 -32 216
v -64 -32 219
v -64 32 219
v -56 32 216
v -49 42 220
v -64 42 226
v -55 50 217
v -64 50 221
v -55 50 208
v -64 50 203
v -49 42 205
v -64 42 198
v -63 0 112
v -63 0 90
v -63 7 102
v -63 8 111
v -63 12 102
v -63 16 106
v -63 13 116
v -63 18 112
v -63 12 97
v -63 21 99
v -63 22 90
v -63 28 92
v -63 27 99
v -63 13 84
v -63 21 82
v -63 12 78
v -63 16 74
v -63 21 72
v -63 24 77
v -63 8 77
v -63 9 69
v -63 0 68
v -63 9 64
v -63 2 63
v -63 -8 111
v -63 -7 102
v -63 -8 117
v -63 -2 118
v -63 -16 106
v -63 -12 102
v -63 -21 99
v -63 -12 97
v -63 -22 90
v -63 -21 82
v -63 -12 83
v -63 -16 74
v -63 -12 78
v -63 -9 69
v -63 -7 78
v -63 -21 108
v -63 -25 104
v -63 -28 88
v -63 -26 82
v -63 -18 69
v -63 -13 65

f 1 2 3
f 1 3 4
f 1 4 3
f 1 3 2
f 1 2 5
f 1 5 2
f 3 2 6
f 3 6 7
f 3 7 8
f 3 8 9
f 9 8 10
f 9 10 11
f 11 10 12
f 11 12 13
f 13 12 14
f 13 14 15
f 15 14 16
f 15 16 17
f 17 16 18
f 18 16 19
f 18 19 20
f 18 20 21
f 21 20 22
f 21 22 23
f 23 22 24
f 23 24 25
f 25 24 26
f 25 26 27
f 27 26 6
f 27 6 2
f 7 6 19
f 7 19 16
f 7 16 14
f 7 14 8
f 8 14 12
f 8 12 10
f 19 6 26
f 19 26 20
f 20 26 24
f 20 24 22
f 28 29 30
f 28 30 31
f 31 30 32
f 31 32 33
f 31 33 34
f 34 33 35
f 36 37 33
f 36 33 32
f 37 36 29
f 37 29 38
f 37 38 39
f 37 39 40
f 38 29 41
f 38 41 42
f 42 41 43
f 42 43 44
f 42 44 45
f 42 45 46
f 47 48 44
f 47 44 43
f 48 47 29
f 48 29 49
f 48 49 50
f 50 49 51
f 52 53 29
f 52 29 28
f 52 28 54
f 54 28 55
f 56 57 53
f 56 53 52
f 57 56 58
f 57 58 59
f 59 58 60
f 59 60 29
f 29 60 61
f 29 61 62
f 62 61 63
f 62 63 64
f 64 63 65
f 64 65 66
f 66 65 49
f 66 49 29
f 56 67 68
f 56 68 58
f 60 69 70
f 60 70 61
f 63 71 72
f 63 72 65
