# RS2 Model 5979
# Vertices: 121
# Faces: 170

v -47 17 172
v -52 17 172
v -52 13 173
v -47 13 173
v -45 8 166
v -45 17 163
v -54 17 163
v -54 8 166
v -46 -3 131
v -46 5 128
v -53 5 128
v -53 -3 131
v -43 -16 152
v -43 -15 137
v -51 -15 137
v -50 -16 152
v -54 -25 104
v -54 -13 104
v -42 -13 104
v -42 -25 104
v -43 -23 137
v -51 -23 137
v -50 -22 152
v -43 -21 152
v -55 -42 152
v -56 -42 141
v -56 42 141
v -55 42 152
v -64 -42 152
v -64 -41 159
v -64 -51 159
v -56 -52 151
v -56 -52 138
v -62 -42 131
v -62 -52 131
v -64 42 152
v -64 41 159
v -64 51 159
v -56 52 151
v -62 52 131
v -56 52 138
v -62 42 131
v -52 -23 163
v -53 -14 152
v -53 -24 152
v -54 -40 150
v -54 -40 165
v -41 -40 165
v -40 -23 163
v -44 -22 163
v -42 -24 173
v -54 -24 173
v -52 -14 163
v -54 0 151
v -54 0 165
v -42 0 165
v -42 0 151
v -40 -13 163
v -40 -13 152
v -40 -23 152
v -41 -40 150
v -44 -15 163
v -42 -13 173
v -54 -13 173
v -48 -5 100
v -48 -8 101
v -50 -11 93
v -50 -6 91
v -51 -5 100
v -51 3 129
v -48 3 129
v -48 -1 130
v -51 -8 101
v -51 -1 130
v -44 23 134
v -48 27 142
v -48 22 146
v -44 18 137
v -44 18 124
v -45 23 107
v -45 25 109
v -54 23 134
v -52 25 109
v -54 25 166
v -54 23 170
v -48 23 170
v -48 25 167
v -44 22 159
v -54 22 159
v -54 18 157
v -44 18 157
v -54 22 153
v -48 22 153
v -54 27 152
v -48 27 152
v -48 32 152
v -54 32 152
v -54 32 146
v -48 32 146
v -54 35 137
v -44 35 137
v -44 36 123
v -54 36 123
v -52 31 107
v -45 31 107
v -44 30 134
v -45 29 109
v -54 30 134
v -52 29 109
v -54 18 124
v -52 23 107
v -54 18 137
v -54 22 146
v -44 31 159
v -54 31 159
v -54 36 157
v -44 36 157
v -54 30 169
v -48 30 170
v -48 28 167
v -54 28 166

f 1 2 3
f 1 3 4
f 1 4 5
f 1 5 6
f 1 6 2
f 2 6 7
f 2 7 3
f 3 7 8
f 3 8 4
f 4 8 5
f 5 8 9
f 5 9 10
f 5 10 6
f 6 10 11
f 6 11 7
f 7 11 12
f 7 12 8
f 8 12 9
f 13 14 15
f 13 15 16
f 17 18 19
f 17 19 20
f 17 20 21
f 17 21 22
f 22 21 23
f 23 21 24
f 24 21 14
f 24 14 13
f 14 21 20
f 14 20 19
f 14 19 15
f 15 19 18
f 25 26 27
f 25 27 28
f 25 28 29
f 25 29 30
f 25 30 31
f 25 31 32
f 25 32 33
f 25 33 26
f 26 33 34
f 34 33 35
f 35 33 32
f 35 32 31
f 28 36 29
f 36 28 37
f 37 28 38
f 38 28 39
f 38 39 40
f 40 39 41
f 40 41 42
f 42 41 27
f 27 41 28
f 28 41 39
f 43 44 45
f 43 45 46
f 43 46 47
f 43 47 48
f 43 48 49
f 43 49 50
f 43 50 51
f 43 51 52
f 43 52 53
f 43 53 44
f 44 53 54
f 54 53 55
f 54 55 56
f 54 56 57
f 57 56 58
f 57 58 59
f 59 58 60
f 60 58 49
f 60 49 61
f 61 49 48
f 61 48 47
f 61 47 46
f 49 58 62
f 49 62 50
f 50 62 63
f 50 63 51
f 51 63 64
f 51 64 52
f 52 64 53
f 53 64 62
f 53 62 58
f 53 58 56
f 53 56 55
f 62 64 63
f 65 66 67
f 65 67 68
f 65 68 69
f 65 69 70
f 65 70 71
f 65 71 66
f 66 71 72
f 66 72 73
f 66 73 67
f 72 74 73
f 75 76 77
f 75 77 78
f 75 78 79
f 75 79 80
f 75 80 81
f 75 81 82
f 82 81 83
f 84 85 86
f 84 86 87
f 84 87 88
f 84 88 89
f 84 89 85
f 85 89 90
f 85 90 86
f 86 90 91
f 86 91 88
f 86 88 87
f 92 93 91
f 92 91 90
f 92 90 94
f 94 90 89
f 94 89 95
f 94 95 96
f 94 96 97
f 97 96 98
f 98 96 99
f 98 99 100
f 100 99 101
f 100 101 102
f 100 102 103
f 103 102 104
f 104 102 105
f 105 102 106
f 105 106 107
f 107 106 108
f 107 108 109
f 93 95 88
f 93 88 91
f 95 89 88
f 79 110 111
f 79 111 80
f 79 78 112
f 79 112 110
f 77 113 112
f 77 112 78
f 99 96 95
f 99 95 76
f 99 76 106
f 99 106 101
f 101 106 102
f 77 93 92
f 77 92 113
f 77 76 95
f 77 95 93
f 95 114 115
f 95 115 94
f 94 115 116
f 94 116 97
f 97 116 117
f 97 117 96
f 96 117 114
f 96 114 95
f 116 118 119
f 116 119 117
f 117 119 114
f 114 119 120
f 114 120 121
f 114 121 115
f 115 121 118
f 115 118 116
f 121 120 119
f 121 119 118
