# RS2 Model 6019
# Vertices: 36
# Faces: 49

v -14 -5 145
v -24 -15 145
v -24 -14 148
v -24 -21 150
v -12 -33 151
v -6 -31 149
v 3 -21 147
v -4 -21 150
v -4 -19 156
v -12 -12 151
v -13 -2 145
v -11 -5 145
v -24 -21 146
v -12 -33 146
v -6 -31 146
v 8 -19 151
v 2 -18 146
v 8 -15 146
v 10 -8 145
v 15 -8 156
v 7 -18 159
v 9 -7 145
v 13 1 148
v 15 -2 155
v -4 -9 163
v 5 3 145
v 4 6 144
v 5 5 154
v -1 7 155
v -12 1 153
v 1 4 144
v -10 -1 145
v -4 4 144
v -7 -69 160
v 38 -19 135
v -56 -20 158

f 1 2 3
f 1 3 4
f 1 4 5
f 1 5 6
f 1 6 7
f 1 7 8
f 1 8 9
f 1 9 10
f 1 10 11
f 1 11 12
f 1 12 7
f 3 2 13
f 3 13 4
f 4 13 14
f 4 14 5
f 5 14 15
f 5 15 6
f 6 15 7
f 16 17 18
f 16 18 19
f 16 19 20
f 16 20 21
f 16 21 8
f 16 8 17
f 17 8 7
f 18 22 19
f 19 22 23
f 19 23 24
f 19 24 20
f 20 24 25
f 20 25 21
f 21 25 9
f 21 9 8
f 22 26 23
f 23 26 27
f 23 27 28
f 23 28 24
f 24 28 25
f 25 28 29
f 25 29 30
f 25 30 10
f 25 10 9
f 26 31 27
f 12 11 32
f 11 10 30
f 11 30 33
f 33 30 29
f 33 29 27
f 27 29 28
