# RS2 Model 6034
# Vertices: 270
# Faces: 464

v -10 -34 97
v 29 -17 97
v -30 16 97
v -34 13 98
v -18 -31 98
v 17 32 98
v 9 -3 62
v 11 -3 62
v 11 -3 107
v 9 -3 107
v 9 -1 62
v 7 -2 59
v 9 -6 57
v 11 -6 57
v 13 -2 59
v 11 -1 62
v 11 -1 107
v 11 -1 117
v 11 -3 117
v 11 -6 110
v 9 -6 110
v 9 -6 120
v 9 -3 117
v 9 -1 107
v 11 2 57
v 9 2 57
v 10 -2 43
v 11 2 110
v 11 2 120
v 9 2 120
v 9 -1 117
v 11 -6 120
v 9 2 110
v 5 9 59
v 7 9 59
v 12 11 103
v 10 11 104
v 5 11 59
v 3 10 56
v 5 5 55
v 7 5 55
v 9 10 56
v 7 11 59
v 12 13 103
v 13 13 113
v 13 11 113
v 12 8 106
v 10 8 107
v 11 9 117
v 11 11 114
v 10 13 104
v 7 13 54
v 5 13 54
v 5 9 40
v 12 16 106
v 13 16 116
v 11 17 117
v 11 13 114
v 13 8 116
v 10 16 107
v 1 -9 58
v 3 -9 57
v 7 -14 102
v 5 -14 102
v 1 -7 59
v -1 -8 56
v 0 -12 53
v 2 -12 52
v 5 -8 55
v 3 -7 58
v 7 -12 102
v 8 -13 112
v 8 -15 112
v 8 -17 105
v 6 -17 105
v 7 -18 115
v 6 -15 112
v 5 -12 102
v 2 -4 53
v 0 -4 54
v 0 -6 40
v 8 -9 106
v 8 -10 116
v 7 -10 116
v 6 -13 112
v 8 -18 115
v 6 -9 106
v -8 -7 101
v -9 -8 107
v -13 -8 106
v -12 -7 100
v -2 -5 73
v -2 2 75
v -8 -3 102
v -9 -5 108
v -11 -10 132
v -10 -18 131
v -18 -18 129
v -13 -5 107
v -12 -3 101
v -10 -5 72
v -2 25 31
v 2 25 31
v 2 29 32
v -10 2 74
v -18 -10 130
v -24 -5 181
v -20 -5 182
v -20 -8 180
v -24 -8 179
v -2 29 32
v 3 22 14
v -24 -18 193
v 24 -24 17
v 26 -26 27
v 0 -37 27
v 0 -36 17
v -26 -26 27
v -24 -24 17
v -38 0 27
v -36 0 17
v -26 26 27
v -24 24 17
v 0 37 27
v 0 36 17
v 26 26 27
v 24 24 17
v 37 0 27
v 36 0 17
v -37 0 69
v -36 0 78
v -24 24 78
v -26 26 69
v 0 36 78
v 0 37 69
v 24 24 78
v 26 26 69
v 36 0 78
v 37 0 69
v 24 -24 78
v 26 -26 69
v 0 -36 78
v 0 -37 69
v -24 -24 78
v -26 -26 69
v -11 11 36
v 0 15 36
v 0 24 93
v -17 17 93
v -15 0 36
v 0 0 30
v 11 11 36
v 17 17 93
v 1 24 97
v 0 33 78
v -1 28 97
v -1 24 97
v -17 17 97
v -24 0 93
v -11 -11 36
v 0 -15 36
v 11 -11 36
v 15 0 36
v 24 0 93
v 24 0 97
v 17 17 97
v 21 21 97
v 1 28 97
v 23 23 78
v -23 23 78
v -21 21 97
v 0 -24 93
v 17 -17 93
v -17 -17 93
v -16 -18 97
v 0 -24 97
v 16 -18 97
v 23 -23 78
v 21 -19 97
v 18 -15 97
v 33 0 78
v 30 0 97
v -33 0 78
v -30 0 97
v -30 0 99
v -20 20 99
v -17 17 99
v -24 0 97
v -18 -15 97
v -23 -23 78
v -19 -21 97
v 0 -30 97
v 18 -22 97
v 0 -33 78
v -22 -18 97
v -24 0 99
v -24 24 27
v 0 35 27
v 24 24 27
v 35 0 27
v 24 -24 27
v 0 -35 27
v -24 -24 27
v -35 0 27
v -27 24 48
v -22 21 48
v -24 27 48
v 0 37 48
v 26 26 48
v 36 0 48
v 32 0 48
v 36 -1 48
v 26 -26 48
v 1 -36 48
v 0 -32 48
v 0 -36 48
v -26 -26 48
v -37 0 48
v -35 0 63
v -24 24 63
v 0 35 64
v 24 24 64
v 35 0 64
v 24 -24 64
v 0 -35 64
v -24 -24 63
v 30 0 99
v 24 0 99
v 17 17 99
v 20 20 99
v -30 0 0
v -21 -21 0
v -23 -23 12
v -33 0 12
v -30 0 12
v -26 0 0
v -30 1 0
v -23 23 12
v -21 21 0
v 0 30 0
v 0 33 12
v 21 21 0
v 23 23 12
v 30 0 0
v 33 0 12
v 21 -21 0
v 23 -23 12
v 0 -30 0
v 0 -33 12
v -33 0 17
v 0 33 17
v 33 0 17
v 0 -33 17
v 24 24 69
v 34 0 69
v 24 -24 69
v 0 -34 69
v -24 -24 69
v -34 0 69
v -24 24 69
v 0 34 69
v -18 -8 35
v 8 -18 35
v -8 18 35
v -30 -16 97
v 12 -34 97
v -10 33 97
v 15 -36 98
v 36 16 98
v -35 -16 98

f 1 2 3
f 4 5 6
f 7 8 9
f 7 9 10
f 7 10 11
f 7 11 12
f 7 12 13
f 7 13 8
f 8 13 14
f 8 14 15
f 8 15 16
f 8 16 17
f 8 17 9
f 9 17 18
f 9 18 19
f 9 19 20
f 9 20 21
f 9 21 10
f 10 21 22
f 10 22 23
f 10 23 24
f 10 24 11
f 11 24 16
f 11 16 25
f 11 25 26
f 11 26 12
f 12 26 27
f 12 27 13
f 13 27 14
f 14 27 15
f 15 27 25
f 15 25 16
f 16 24 17
f 17 24 28
f 17 28 29
f 17 29 18
f 18 29 30
f 18 30 31
f 18 31 19
f 19 31 23
f 19 23 32
f 19 32 20
f 20 32 21
f 21 32 22
f 22 32 23
f 26 25 27
f 30 29 28
f 30 28 33
f 30 33 31
f 31 33 24
f 31 24 23
f 28 24 33
f 34 35 36
f 34 36 37
f 34 37 38
f 34 38 39
f 34 39 40
f 34 40 35
f 35 40 41
f 35 41 42
f 35 42 43
f 35 43 44
f 35 44 36
f 36 44 45
f 36 45 46
f 36 46 47
f 36 47 48
f 36 48 37
f 37 48 49
f 37 49 50
f 37 50 51
f 37 51 38
f 38 51 43
f 38 43 52
f 38 52 53
f 38 53 39
f 39 53 54
f 39 54 40
f 40 54 41
f 41 54 42
f 42 54 52
f 42 52 43
f 43 51 44
f 44 51 55
f 44 55 56
f 44 56 45
f 45 56 57
f 45 57 58
f 45 58 46
f 46 58 50
f 46 50 59
f 46 59 47
f 47 59 48
f 48 59 49
f 49 59 50
f 53 52 54
f 57 56 55
f 57 55 60
f 57 60 58
f 58 60 51
f 58 51 50
f 55 51 60
f 61 62 63
f 61 63 64
f 61 64 65
f 61 65 66
f 61 66 67
f 61 67 62
f 62 67 68
f 62 68 69
f 62 69 70
f 62 70 71
f 62 71 63
f 63 71 72
f 63 72 73
f 63 73 74
f 63 74 75
f 63 75 64
f 64 75 76
f 64 76 77
f 64 77 78
f 64 78 65
f 65 78 70
f 65 70 79
f 65 79 80
f 65 80 66
f 66 80 81
f 66 81 67
f 67 81 68
f 68 81 69
f 69 81 79
f 69 79 70
f 70 78 71
f 71 78 82
f 71 82 83
f 71 83 72
f 72 83 84
f 72 84 85
f 72 85 73
f 73 85 77
f 73 77 86
f 73 86 74
f 74 86 75
f 75 86 76
f 76 86 77
f 80 79 81
f 84 83 82
f 84 82 87
f 84 87 85
f 85 87 78
f 85 78 77
f 82 78 87
f 88 89 90
f 88 90 91
f 88 91 92
f 88 92 93
f 88 93 94
f 88 94 95
f 88 95 89
f 89 95 96
f 89 96 97
f 89 97 90
f 90 97 98
f 90 98 99
f 90 99 100
f 90 100 91
f 91 100 101
f 91 101 92
f 92 101 102
f 92 102 103
f 92 103 93
f 93 103 104
f 93 104 105
f 93 105 100
f 93 100 94
f 94 100 99
f 94 99 95
f 95 99 96
f 96 99 106
f 96 106 107
f 96 107 108
f 96 108 97
f 97 108 109
f 97 109 98
f 98 109 110
f 98 110 106
f 98 106 99
f 105 101 100
f 101 105 111
f 101 111 102
f 102 111 104
f 102 104 103
f 102 103 112
f 102 112 111
f 111 112 104
f 104 112 103
f 105 104 111
f 110 107 106
f 107 110 109
f 107 109 108
f 109 108 113
f 109 113 110
f 110 113 107
f 107 113 108
f 114 115 116
f 114 116 117
f 117 116 118
f 117 118 119
f 119 118 120
f 119 120 121
f 121 120 122
f 121 122 123
f 123 122 124
f 123 124 125
f 125 124 126
f 125 126 127
f 127 126 128
f 127 128 129
f 129 128 115
f 129 115 114
f 130 131 132
f 130 132 133
f 133 132 134
f 133 134 135
f 135 134 136
f 135 136 137
f 137 136 138
f 137 138 139
f 139 138 140
f 139 140 141
f 141 140 142
f 141 142 143
f 143 142 144
f 143 144 145
f 145 144 131
f 145 131 130
f 146 147 148
f 146 148 149
f 146 149 150
f 146 150 151
f 146 151 147
f 147 151 152
f 147 152 153
f 147 153 148
f 148 153 154
f 148 154 155
f 148 155 156
f 148 156 157
f 148 157 149
f 149 157 158
f 149 158 159
f 149 159 150
f 150 159 160
f 150 160 151
f 151 160 161
f 151 161 162
f 151 162 163
f 151 163 152
f 152 163 164
f 152 164 153
f 153 164 165
f 153 165 166
f 153 166 154
f 154 166 167
f 154 167 168
f 154 168 155
f 155 168 169
f 155 169 136
f 155 136 134
f 155 134 170
f 155 170 156
f 156 170 171
f 156 171 158
f 156 158 157
f 172 173 162
f 172 162 161
f 172 161 174
f 172 174 175
f 172 175 176
f 172 176 177
f 172 177 173
f 173 177 178
f 173 178 179
f 173 179 180
f 173 180 164
f 173 164 163
f 173 163 162
f 159 174 160
f 160 174 161
f 181 178 140
f 181 140 138
f 181 138 169
f 181 169 182
f 181 182 179
f 181 179 178
f 138 136 169
f 134 132 170
f 170 132 183
f 170 183 171
f 171 183 184
f 171 184 185
f 171 185 186
f 171 186 158
f 158 186 187
f 158 187 188
f 158 188 159
f 159 188 189
f 159 189 174
f 174 189 190
f 174 190 191
f 174 191 175
f 175 191 176
f 176 191 192
f 176 192 177
f 177 192 193
f 177 193 178
f 178 193 194
f 178 194 142
f 178 142 140
f 132 131 183
f 183 131 190
f 183 190 195
f 183 195 184
f 184 195 189
f 184 189 188
f 184 188 196
f 184 196 185
f 185 196 186
f 186 196 187
f 187 196 188
f 131 144 190
f 190 144 194
f 190 194 191
f 191 194 192
f 192 194 193
f 144 142 194
f 124 122 197
f 124 197 198
f 124 198 126
f 126 198 199
f 126 199 128
f 128 199 200
f 128 200 115
f 115 200 201
f 115 201 116
f 116 201 202
f 116 202 118
f 118 202 203
f 118 203 120
f 120 203 204
f 120 204 122
f 122 204 197
f 197 204 205
f 197 205 206
f 197 206 207
f 197 207 198
f 198 207 208
f 198 208 209
f 198 209 199
f 199 209 210
f 199 210 200
f 200 210 211
f 200 211 212
f 200 212 201
f 201 212 213
f 201 213 214
f 201 214 202
f 202 214 215
f 202 215 216
f 202 216 203
f 203 216 217
f 203 217 218
f 203 218 204
f 204 218 205
f 205 218 219
f 205 219 220
f 205 220 206
f 206 220 207
f 207 220 221
f 207 221 208
f 208 221 222
f 208 222 209
f 209 222 210
f 210 222 223
f 210 223 211
f 211 223 212
f 212 223 224
f 212 224 213
f 213 224 214
f 214 224 225
f 214 225 215
f 215 225 216
f 216 225 226
f 216 226 217
f 217 226 219
f 217 219 218
f 165 180 179
f 165 179 182
f 165 182 227
f 165 227 228
f 165 228 166
f 166 228 229
f 166 229 167
f 167 229 230
f 167 230 182
f 167 182 169
f 167 169 168
f 229 228 227
f 229 227 230
f 230 227 182
f 189 195 190
f 231 232 233
f 231 233 234
f 231 234 235
f 231 235 236
f 236 235 234
f 236 234 237
f 237 234 238
f 237 238 239
f 239 238 240
f 240 238 241
f 240 241 242
f 242 241 243
f 242 243 244
f 244 243 245
f 244 245 246
f 246 245 247
f 246 247 248
f 248 247 249
f 248 249 232
f 232 249 233
f 233 249 119
f 233 119 250
f 233 250 234
f 234 250 123
f 234 123 238
f 238 123 251
f 238 251 241
f 241 251 127
f 241 127 243
f 243 127 252
f 243 252 245
f 245 252 114
f 245 114 247
f 247 114 253
f 247 253 249
f 249 253 119
f 180 165 164
f 222 254 255
f 222 255 223
f 223 255 256
f 223 256 224
f 224 256 257
f 224 257 225
f 225 257 258
f 225 258 226
f 226 258 259
f 226 259 219
f 219 259 260
f 219 260 220
f 220 260 261
f 220 261 221
f 221 261 254
f 221 254 222
