# RS2 Model 6052
# Vertices: 78
# Faces: 139

v 5 1 5
v 9 8 6
v 10 7 8
v 2 2 0
v 12 -5 0
v 5 -13 5
v 0 -2 9
v -5 -13 5
v -1 -1 10
v -7 1 5
v 0 -2 12
v -1 0 12
v -3 2 12
v 1 2 12
v 9 11 9
v 9 11 8
v 9 14 6
v 9 15 7
v -10 6 8
v -11 7 6
v -11 12 9
v -11 12 8
v -11 13 6
v -10 15 7
v -10 15 4
v -10 13 4
v -4 1 0
v -12 -5 0
v 9 12 4
v 9 15 4
v 0 33 7
v -9 32 16
v 9 32 16
v 8 32 8
v 0 28 -1
v -9 27 0
v -8 32 8
v -13 25 15
v -9 22 25
v 0 27 22
v 9 22 25
v 13 25 15
v 9 27 0
v 9 23 -2
v -9 23 -2
v -13 17 5
v -15 20 7
v 15 20 7
v 15 17 9
v 13 15 9
v 13 17 5
v 15 17 15
v 13 13 13
v 10 14 14
v 10 15 9
v 10 17 5
v 10 17 26
v 0 18 27
v 8 15 24
v 6 14 20
v -15 17 9
v -13 15 9
v -13 13 13
v -15 17 15
v -10 17 26
v 0 23 25
v -8 15 24
v 0 15 25
v 0 16 21
v -7 14 20
v -10 14 14
v -10 15 9
v -10 17 5
v -5 21 -1
v 5 21 -1
v -12 4 11
v 12 6 13
v -11 -12 -3

f 1 2 3
f 1 3 2
f 1 2 4
f 1 4 2
f 4 1 5
f 4 5 1
f 1 5 6
f 1 6 5
f 6 1 7
f 6 7 8
f 6 8 7
f 6 7 1
f 1 7 9
f 1 9 7
f 7 9 10
f 7 10 8
f 7 8 10
f 7 10 9
f 9 10 11
f 9 11 10
f 10 11 12
f 10 12 13
f 10 13 12
f 10 12 11
f 11 12 1
f 11 1 12
f 12 1 14
f 12 14 1
f 15 3 2
f 15 2 16
f 15 16 17
f 15 17 18
f 15 18 16
f 15 16 3
f 3 16 2
f 19 20 10
f 19 10 20
f 19 20 21
f 19 21 22
f 19 22 20
f 20 22 21
f 21 22 23
f 21 23 24
f 21 24 22
f 22 24 23
f 23 24 25
f 23 25 26
f 23 26 24
f 24 26 25
f 20 27 10
f 20 10 27
f 27 10 28
f 27 28 10
f 10 28 8
f 10 8 28
f 29 30 18
f 29 18 17
f 29 17 30
f 30 17 18
f 18 17 16
f 9 1 11
f 9 11 1
f 31 32 33
f 31 33 34
f 31 34 35
f 31 35 36
f 31 36 37
f 31 37 32
f 32 37 38
f 32 38 39
f 32 39 40
f 32 40 33
f 33 40 41
f 33 41 42
f 33 42 34
f 34 42 43
f 34 43 35
f 35 43 44
f 35 44 45
f 35 45 36
f 36 45 46
f 36 46 47
f 36 47 38
f 36 38 37
f 48 42 49
f 48 49 50
f 48 50 51
f 48 51 43
f 48 43 42
f 42 52 49
f 49 52 53
f 49 53 50
f 50 53 54
f 50 54 55
f 50 55 51
f 51 55 56
f 51 56 44
f 51 44 43
f 57 52 42
f 57 42 41
f 57 41 58
f 57 58 59
f 57 59 52
f 52 59 53
f 53 59 60
f 53 60 54
f 61 38 47
f 61 47 62
f 61 62 63
f 61 63 64
f 61 64 38
f 38 64 65
f 38 65 39
f 39 65 58
f 39 58 66
f 39 66 40
f 40 66 41
f 41 66 58
f 64 63 67
f 64 67 65
f 65 67 58
f 58 67 68
f 58 68 59
f 59 68 60
f 60 68 69
f 69 68 70
f 70 68 67
f 70 67 71
f 71 67 63
f 71 63 72
f 72 63 62
f 72 62 73
f 73 62 46
f 73 46 74
f 74 46 45
f 74 45 44
f 74 44 75
f 75 44 56
f 47 46 62
