# RS2 Model 6086
# Vertices: 120
# Faces: 220

v -16 -1 184
v -16 -5 184
v -14 -6 192
v -12 2 192
v -8 9 190
v -14 4 184
v -14 3 182
v -14 -2 181
v -14 -5 181
v -13 -10 183
v -15 -10 186
v -9 -16 193
v -9 -11 197
v -9 -6 198
v -8 3 195
v 0 10 191
v 0 11 183
v -8 9 183
v -12 6 182
v -10 4 182
v -11 1 183
v -11 -2 183
v -11 -4 183
v -9 -8 184
v -6 -14 187
v -8 -16 189
v 0 -18 194
v 0 -13 198
v 0 -5 199
v 0 3 197
v 8 3 195
v 8 9 190
v 8 9 183
v 8 8 180
v 0 10 179
v -8 8 180
v -6 7 179
v -11 5 180
v -12 1 182
v -10 -2 180
v -9 -7 177
v -9 -9 181
v -7 -15 184
v 0 -18 187
v 0 -17 189
v 0 -18 190
v 8 -16 189
v 9 -16 193
v 9 -11 197
v 9 -6 198
v -5 -14 182
v -5 -14 179
v -2 -15 180
v 0 -18 183
v -8 -11 180
v -8 -13 178
v -3 -16 175
v 0 -17 181
v 2 -15 180
v 5 -14 182
v 7 -15 184
v -8 1 173
v -7 -2 170
v -9 -1 175
v -11 3 176
v -9 4 176
v -5 6 176
v 0 6 173
v -8 1 165
v 0 -6 165
v 0 -6 160
v 8 1 165
v 7 -2 170
v 8 1 173
v 9 -1 175
v 11 3 176
v 9 1 178
v 10 -2 180
v 12 1 182
v 11 1 183
v 11 -2 183
v 11 -4 183
v 9 -7 177
v 9 -9 181
v 8 -13 178
v 7 -10 174
v 4 -15 173
v 3 -16 175
v 5 -14 179
v 0 -20 175
v 0 -17 174
v -7 -10 174
v -4 -15 173
v -9 1 178
v -12 4 180
v -9 5 179
v 0 7 176
v 5 6 176
v 9 4 176
v 11 5 180
v 12 4 180
v 10 4 182
v 14 3 182
v 14 -2 181
v 14 -5 181
v 9 -8 184
v 8 -11 180
v 0 9 165
v 0 8 179
v 6 7 179
v 9 5 179
v 12 6 182
v 14 4 184
v 16 -1 184
v 16 -5 184
v 13 -10 183
v 6 -14 187
v 15 -10 186
v 14 -6 192
v 12 2 192

f 1 2 3
f 1 3 4
f 1 4 5
f 1 5 6
f 1 6 7
f 1 7 8
f 1 8 9
f 1 9 2
f 2 9 10
f 2 10 11
f 2 11 3
f 3 11 12
f 3 12 13
f 3 13 14
f 3 14 4
f 4 14 15
f 4 15 5
f 5 15 16
f 5 16 17
f 5 17 18
f 5 18 6
f 6 18 19
f 6 19 7
f 7 19 20
f 7 20 21
f 7 21 22
f 7 22 8
f 8 22 23
f 8 23 9
f 9 23 24
f 9 24 10
f 10 24 25
f 10 25 26
f 10 26 11
f 11 26 12
f 12 26 27
f 12 27 28
f 12 28 13
f 13 28 29
f 13 29 14
f 14 29 15
f 15 29 30
f 15 30 16
f 16 30 31
f 16 31 32
f 16 32 17
f 17 32 33
f 17 33 34
f 17 34 35
f 17 35 36
f 17 36 18
f 18 36 19
f 19 36 20
f 20 36 37
f 20 37 38
f 20 38 21
f 21 38 39
f 21 39 40
f 21 40 22
f 22 40 23
f 23 40 41
f 23 41 42
f 23 42 24
f 24 42 43
f 24 43 25
f 25 43 44
f 25 44 45
f 25 45 46
f 25 46 26
f 26 46 27
f 27 46 47
f 27 47 48
f 27 48 28
f 28 48 49
f 28 49 29
f 29 49 50
f 29 50 31
f 29 31 30
f 51 52 53
f 51 53 54
f 51 54 43
f 51 43 55
f 51 55 52
f 52 55 56
f 52 56 57
f 52 57 53
f 53 57 58
f 53 58 54
f 54 58 59
f 54 59 60
f 54 60 61
f 54 61 44
f 54 44 43
f 62 63 64
f 62 64 65
f 62 65 66
f 62 66 67
f 62 67 68
f 62 68 63
f 63 68 69
f 63 69 70
f 70 69 71
f 70 71 72
f 70 72 73
f 73 72 68
f 73 68 74
f 73 74 75
f 75 74 76
f 75 76 77
f 75 77 78
f 78 77 79
f 78 79 80
f 78 80 81
f 78 81 82
f 78 82 83
f 83 82 84
f 83 84 85
f 83 85 86
f 86 85 87
f 87 85 88
f 88 85 89
f 88 89 59
f 88 59 58
f 88 58 90
f 88 90 91
f 91 90 57
f 57 90 58
f 43 42 55
f 55 42 56
f 56 42 41
f 56 41 92
f 56 92 93
f 56 93 57
f 64 94 65
f 65 94 95
f 65 95 38
f 65 38 66
f 66 38 96
f 66 96 67
f 67 96 37
f 67 37 97
f 67 97 68
f 68 97 98
f 68 98 74
f 74 98 99
f 74 99 76
f 76 99 100
f 76 100 101
f 76 101 77
f 77 101 79
f 79 101 100
f 79 100 80
f 80 100 102
f 80 102 103
f 80 103 81
f 81 103 104
f 81 104 82
f 82 104 105
f 82 105 106
f 82 106 84
f 84 106 61
f 84 61 107
f 84 107 85
f 85 107 89
f 89 107 60
f 89 60 59
f 95 94 39
f 95 39 38
f 39 94 40
f 40 94 64
f 69 68 108
f 108 68 72
f 97 37 109
f 97 109 110
f 97 110 98
f 98 110 111
f 98 111 99
f 99 111 100
f 100 111 110
f 100 110 102
f 102 110 34
f 102 34 112
f 102 112 103
f 103 112 113
f 103 113 114
f 103 114 104
f 104 114 105
f 105 114 115
f 105 115 116
f 105 116 106
f 106 116 117
f 106 117 61
f 61 117 44
f 44 117 45
f 45 117 46
f 46 117 47
f 47 117 116
f 47 116 118
f 47 118 48
f 48 118 119
f 48 119 49
f 49 119 50
f 50 119 120
f 50 120 31
f 31 120 32
f 32 120 114
f 32 114 113
f 32 113 33
f 33 113 112
f 33 112 34
f 37 36 35
f 37 35 109
f 109 35 110
f 110 35 34
f 38 37 96
f 114 119 115
f 115 119 118
f 115 118 116
f 61 60 107
f 120 119 114
