# RS2 Model 6087
# Vertices: 43
# Faces: 68

v 0 -17 174
v -6 -13 170
v 0 -17 169
v 6 -13 170
v 4 -15 173
v 3 -16 175
v -3 -16 175
v -4 -15 173
v -7 -10 174
v -9 -11 169
v -5 -16 164
v 5 -16 164
v 9 -11 169
v 7 -10 174
v -8 -4 172
v -11 -9 165
v -10 -9 167
v -9 -7 177
v -9 -1 175
v -7 -2 170
v -9 -7 164
v -9 -12 160
v -10 -14 161
v -10 -15 163
v -4 -20 158
v -4 -20 161
v -3 -17 157
v 4 -20 158
v 4 -20 161
v 0 -6 165
v 3 -17 157
v 10 -11 161
v 10 -14 161
v 10 -15 163
v 10 -9 167
v 9 -7 177
v 8 -4 172
v 11 -9 165
v 7 -2 170
v 9 -1 175
v 10 -2 180
v 10 -8 165
v -10 -2 180

f 1 2 3
f 1 3 4
f 1 4 5
f 1 5 6
f 7 8 1
f 1 8 2
f 2 8 9
f 2 9 10
f 2 10 11
f 2 11 3
f 3 11 12
f 3 12 4
f 4 12 13
f 4 13 14
f 4 14 5
f 15 16 17
f 15 17 18
f 15 18 19
f 15 19 20
f 15 20 16
f 16 20 21
f 16 21 22
f 16 22 23
f 16 23 24
f 16 24 17
f 17 24 10
f 17 10 18
f 18 10 9
f 24 23 25
f 24 25 26
f 24 26 11
f 24 11 10
f 25 23 22
f 25 22 27
f 25 27 28
f 25 28 26
f 26 28 29
f 26 29 12
f 26 12 11
f 22 30 27
f 27 30 31
f 27 31 28
f 28 31 32
f 28 32 33
f 28 33 34
f 28 34 29
f 29 34 12
f 12 34 13
f 13 34 35
f 13 35 36
f 13 36 14
f 20 30 21
f 21 30 22
f 37 36 35
f 37 35 38
f 37 38 39
f 37 39 40
f 37 40 36
f 36 40 41
f 39 38 42
f 39 42 30
f 30 42 32
f 30 32 31
f 38 35 34
f 38 34 33
f 38 33 32
f 38 32 42
f 18 43 19
