# RS2 Model 6265
# Vertices: 331
# Faces: 496

v 256 -115 -58
v 250 -115 -30
v 250 -85 -30
v 256 -85 -58
v 250 -85 -18
v 262 -85 -7
v 296 -85 -18
v 262 -115 -7
v 296 -115 -18
v 250 -115 -18
v 3 -92 40
v 11 -83 48
v 17 -83 43
v 8 -92 34
v 3 -108 40
v 18 -83 55
v 24 -83 50
v 27 -92 64
v 32 -92 58
v 27 -108 64
v 32 -108 58
v 18 -117 55
v 24 -117 50
v 11 -117 48
v 17 -117 43
v 8 -108 34
v 52 -107 33
v 30 -107 55
v 14 -107 40
v 37 -107 17
v 92 -107 4
v 52 -93 33
v 30 -93 55
v 82 -107 -17
v 126 -107 -41
v 137 -107 -18
v 92 -93 4
v 37 -93 17
v 14 -93 40
v 177 -107 -58
v 182 -107 -30
v 137 -93 -18
v 126 -93 -41
v 82 -93 -17
v 228 -107 -63
v 228 -93 -63
v 256 -93 -58
v 256 -107 -58
v 222 -107 -35
v 182 -93 -30
v 177 -93 -58
v 250 -107 -30
v 222 -93 -35
v 250 -93 -30
v 256 87 -58
v 250 87 -30
v 250 117 -30
v 256 117 -58
v 250 117 -18
v 262 117 -7
v 296 117 -18
v 262 87 -7
v 296 87 -18
v 250 87 -18
v 3 110 40
v 11 119 48
v 17 119 43
v 8 110 34
v 3 94 40
v 18 119 55
v 24 119 50
v 27 110 64
v 32 110 58
v 27 94 64
v 32 94 58
v 18 85 55
v 24 85 50
v 11 85 48
v 17 85 43
v 8 94 34
v 52 95 33
v 30 95 55
v 14 95 40
v 37 95 17
v 92 95 4
v 52 109 33
v 30 109 55
v 82 95 -17
v 126 95 -41
v 137 95 -18
v 92 109 4
v 37 109 17
v 14 109 40
v 177 95 -58
v 182 95 -30
v 137 109 -18
v 126 109 -41
v 82 109 -17
v 228 95 -63
v 228 109 -63
v 256 109 -58
v 256 95 -58
v 222 95 -35
v 182 109 -30
v 177 109 -58
v 250 95 -30
v 222 109 -35
v 250 109 -30
v -64 128 0
v 192 128 256
v 202 128 246
v -44 128 0
v -64 -130 0
v 192 -130 256
v 202 -128 246
v -44 -128 0
v 80 50 148
v 88 42 157
v 84 42 161
v 76 50 153
v 88 58 157
v 94 42 162
v 88 6 157
v 84 6 161
v 98 2 175
v 90 42 167
v 84 58 161
v 102 2 171
v 77 -10 146
v 73 -10 150
v 84 -14 161
v 88 -14 157
v 80 -58 148
v 76 -58 153
v 81 -58 158
v 85 -58 154
v 64 -10 141
v 70 -58 147
v 74 -58 143
v 69 -10 137
v 76 10 153
v 70 10 147
v 61 -2 138
v 59 -10 136
v 53 -58 130
v 57 -58 126
v 63 -10 131
v 66 -2 134
v 80 10 148
v 76 38 153
v 70 38 147
v 61 14 138
v 66 14 134
v 74 10 143
v 56 10 133
v 50 10 127
v 53 -6 130
v 57 -6 126
v 74 38 143
v 80 38 148
v 61 58 138
v 61 46 138
v 66 46 134
v 61 30 138
v 66 30 134
v 66 58 134
v 53 42 130
v 57 38 134
v 61 38 130
v 57 42 126
v 47 30 124
v 47 18 124
v 60 10 129
v 54 10 123
v 52 30 120
v 16 30 93
v 16 22 93
v 20 22 89
v 52 18 120
v 47 2 124
v 25 -34 102
v 29 -34 97
v 23 -26 92
v 52 2 120
v 19 -26 96
v 25 -54 102
v 29 -54 97
v 23 -54 92
v 19 -54 96
v 20 30 89
v 85 120 157
v 62 120 132
v 65 8 135
v 83 10 155
v 91 122 156
v 91 8 155
v 68 6 132
v 65 122 129
v 184 60 255
v 136 64 208
v 136 0 208
v 184 0 256
v 189 63 253
v 137 66 201
v 137 0 201
v 137 -58 201
v 136 -56 208
v 180 -60 251
v 188 0 254
v 185 -62 249
v 189 0 254
v 95 32 167
v 89 0 161
v 132 0 204
v 133 32 205
v 137 33 201
v 96 34 160
v 92 0 156
v 133 -83 205
v 137 -86 201
v 95 -83 166
v 92 -87 164
v 90 0 162
v 132 128 204
v 90 128 162
v 95 45 166
v 133 45 205
v 137 128 201
v 137 42 201
v 92 41 164
v 92 128 156
v 136 128 208
v 136 72 208
v 180 68 251
v 184 128 256
v 188 128 254
v 185 66 249
v 137 70 201
v -43 120 29
v -66 120 4
v -63 8 7
v -45 10 27
v -37 122 28
v -37 8 27
v -60 6 4
v -63 122 1
v 56 60 127
v 8 64 80
v 8 0 80
v 56 0 128
v 61 63 125
v 9 66 73
v 9 0 73
v 9 -58 73
v 8 -56 80
v 52 -60 123
v 60 0 126
v 57 -62 121
v 61 0 126
v -38 33 34
v 4 33 76
v 9 33 73
v -36 33 28
v -36 -87 36
v -33 -82 38
v 5 -82 77
v 9 -86 73
v 4 128 76
v -38 128 34
v -33 45 39
v 5 45 77
v 9 128 73
v 9 42 73
v -36 41 36
v -36 128 28
v 8 128 80
v 8 72 80
v 52 68 123
v 56 128 128
v 60 128 126
v 57 66 121
v 9 70 73
v 85 -8 157
v 62 -8 132
v 65 -120 135
v 83 -118 155
v 91 -6 156
v 91 -120 155
v 68 -122 132
v 65 -6 129
v 184 -68 255
v 136 -64 208
v 136 -128 208
v 184 -128 256
v 189 -65 253
v 137 -62 201
v 137 -128 201
v 189 -128 254
v 95 -96 167
v 89 -128 161
v 132 -128 204
v 133 -96 205
v 137 -95 201
v 96 -94 160
v 92 -128 156
v -43 -8 29
v -66 -8 4
v -63 -120 7
v -45 -118 27
v -37 -6 28
v -37 -120 27
v -60 -122 4
v -63 -6 1
v 56 -68 127
v 8 -64 80
v 8 -128 80
v 56 -128 128
v 61 -65 125
v 9 -62 73
v 9 -128 73
v 61 -128 126
v -33 -96 39
v -39 -128 33
v 4 -128 76
v 5 -96 77
v 9 -95 73
v -32 -94 32
v -36 -128 28
v 194 -136 253
v 203 123 246
v -78 -133 13

f 1 2 3
f 1 3 4
f 4 3 5
f 4 5 6
f 4 6 7
f 7 6 8
f 7 8 9
f 9 8 10
f 9 10 2
f 9 2 1
f 2 10 5
f 2 5 3
f 10 8 6
f 10 6 5
f 11 12 13
f 11 13 14
f 11 14 15
f 11 15 12
f 12 15 16
f 12 16 17
f 12 17 13
f 16 18 19
f 16 19 17
f 18 20 21
f 18 21 19
f 20 22 23
f 20 23 21
f 22 24 25
f 22 25 23
f 24 15 26
f 24 26 25
f 15 14 26
f 15 24 22
f 15 22 20
f 15 20 18
f 15 18 16
f 27 28 29
f 27 29 30
f 27 30 31
f 27 31 32
f 27 32 33
f 27 33 28
f 30 34 31
f 31 34 35
f 31 35 36
f 31 36 37
f 31 37 32
f 32 37 38
f 32 38 39
f 32 39 33
f 36 35 40
f 36 40 41
f 36 41 42
f 36 42 37
f 37 42 43
f 37 43 44
f 37 44 38
f 38 44 30
f 38 30 29
f 38 29 39
f 45 41 40
f 45 40 46
f 45 46 47
f 45 47 48
f 45 48 49
f 45 49 41
f 41 49 50
f 41 50 42
f 42 50 51
f 42 51 43
f 43 51 35
f 43 35 34
f 43 34 44
f 44 34 30
f 48 52 49
f 49 52 53
f 49 53 50
f 50 53 46
f 50 46 51
f 51 46 40
f 51 40 35
f 46 53 47
f 47 53 54
f 54 53 52
f 55 56 57
f 55 57 58
f 58 57 59
f 58 59 60
f 58 60 61
f 61 60 62
f 61 62 63
f 63 62 64
f 63 64 56
f 63 56 55
f 56 64 59
f 56 59 57
f 64 62 60
f 64 60 59
f 65 66 67
f 65 67 68
f 65 68 69
f 65 69 66
f 66 69 70
f 66 70 71
f 66 71 67
f 70 72 73
f 70 73 71
f 72 74 75
f 72 75 73
f 74 76 77
f 74 77 75
f 76 78 79
f 76 79 77
f 78 69 80
f 78 80 79
f 69 68 80
f 69 78 76
f 69 76 74
f 69 74 72
f 69 72 70
f 81 82 83
f 81 83 84
f 81 84 85
f 81 85 86
f 81 86 87
f 81 87 82
f 84 88 85
f 85 88 89
f 85 89 90
f 85 90 91
f 85 91 86
f 86 91 92
f 86 92 93
f 86 93 87
f 90 89 94
f 90 94 95
f 90 95 96
f 90 96 91
f 91 96 97
f 91 97 98
f 91 98 92
f 92 98 84
f 92 84 83
f 92 83 93
f 99 95 94
f 99 94 100
f 99 100 101
f 99 101 102
f 99 102 103
f 99 103 95
f 95 103 104
f 95 104 96
f 96 104 105
f 96 105 97
f 97 105 89
f 97 89 88
f 97 88 98
f 98 88 84
f 102 106 103
f 103 106 107
f 103 107 104
f 104 107 100
f 104 100 105
f 105 100 94
f 105 94 89
f 100 107 101
f 101 107 108
f 108 107 106
f 109 110 111
f 109 111 112
f 109 112 113
f 109 113 110
f 110 113 114
f 110 114 115
f 110 115 111
f 111 115 112
f 112 115 116
f 112 116 113
f 113 116 114
f 114 116 115
f 117 118 119
f 117 119 120
f 117 120 121
f 117 121 118
f 118 121 122
f 118 122 123
f 118 123 124
f 118 124 119
f 119 124 125
f 119 125 126
f 119 126 120
f 120 126 127
f 120 127 121
f 121 127 122
f 122 127 126
f 122 126 128
f 122 128 123
f 123 128 129
f 123 129 130
f 123 130 124
f 124 130 131
f 124 131 125
f 125 131 132
f 125 132 128
f 125 128 126
f 128 132 129
f 129 132 133
f 129 133 134
f 129 134 130
f 130 134 135
f 130 135 131
f 131 135 136
f 131 136 132
f 132 136 133
f 133 136 134
f 134 136 135
f 137 138 139
f 137 139 140
f 137 140 141
f 137 141 142
f 137 142 143
f 137 143 144
f 137 144 138
f 138 144 145
f 138 145 146
f 138 146 139
f 139 146 140
f 140 146 147
f 140 147 148
f 140 148 149
f 140 149 141
f 141 149 150
f 141 150 142
f 142 150 151
f 142 151 152
f 142 152 153
f 142 153 154
f 142 154 143
f 143 154 148
f 143 148 155
f 143 155 156
f 143 156 144
f 144 156 157
f 144 157 158
f 144 158 147
f 144 147 145
f 145 147 146
f 148 154 149
f 149 154 159
f 149 159 160
f 149 160 150
f 150 160 161
f 150 161 151
f 151 161 162
f 151 162 163
f 151 163 159
f 151 159 164
f 151 164 152
f 152 164 165
f 152 165 153
f 153 165 154
f 154 165 159
f 159 165 164
f 161 160 166
f 161 166 167
f 161 167 168
f 161 168 162
f 162 168 169
f 162 169 163
f 163 169 170
f 163 170 166
f 163 166 160
f 163 160 159
f 167 166 170
f 167 170 171
f 167 171 172
f 167 172 156
f 167 156 155
f 167 155 168
f 168 155 173
f 168 173 169
f 169 173 174
f 169 174 170
f 170 174 175
f 170 175 171
f 171 175 176
f 171 176 177
f 171 177 172
f 172 177 178
f 172 178 179
f 172 179 156
f 156 179 174
f 156 174 180
f 156 180 157
f 157 180 181
f 157 181 182
f 157 182 158
f 158 182 183
f 158 183 184
f 158 184 147
f 147 184 174
f 147 174 173
f 147 173 148
f 148 173 155
f 180 174 184
f 180 184 185
f 180 185 181
f 181 185 186
f 181 186 187
f 181 187 182
f 182 187 188
f 182 188 183
f 183 188 189
f 183 189 185
f 183 185 184
f 156 144 147
f 156 147 174
f 186 189 188
f 186 188 187
f 185 189 186
f 177 176 190
f 177 190 178
f 178 190 179
f 179 190 175
f 179 175 174
f 176 175 190
f 191 192 193
f 191 193 194
f 191 194 195
f 191 195 192
f 191 192 194
f 194 192 193
f 194 193 196
f 194 196 195
f 197 193 192
f 197 192 198
f 198 192 195
f 196 193 197
f 199 200 201
f 199 201 202
f 199 202 203
f 199 203 200
f 200 203 204
f 200 204 205
f 200 205 201
f 201 205 206
f 201 206 207
f 201 207 208
f 201 208 202
f 202 208 209
f 209 208 210
f 210 208 207
f 210 207 206
f 203 202 211
f 212 213 214
f 212 214 215
f 212 215 216
f 212 216 217
f 212 217 218
f 212 218 213
f 216 215 214
f 216 214 205
f 205 214 219
f 205 219 220
f 220 219 221
f 220 221 222
f 222 221 223
f 222 223 218
f 224 225 226
f 224 226 227
f 224 227 228
f 228 227 229
f 229 227 226
f 229 226 230
f 230 226 225
f 230 225 231
f 232 233 234
f 232 234 235
f 235 234 236
f 236 234 237
f 237 234 233
f 237 233 238
f 238 233 232
f 238 232 228
f 239 240 241
f 239 241 242
f 239 242 243
f 239 243 240
f 239 240 242
f 242 240 241
f 242 241 244
f 242 244 243
f 245 241 240
f 245 240 246
f 246 240 243
f 244 241 245
f 247 248 249
f 247 249 250
f 247 250 251
f 247 251 248
f 248 251 252
f 248 252 253
f 248 253 249
f 249 253 254
f 249 254 255
f 249 255 256
f 249 256 250
f 250 256 257
f 257 256 258
f 258 256 255
f 258 255 254
f 251 250 259
f 260 261 262
f 260 262 263
f 260 263 264
f 260 264 265
f 260 265 261
f 261 265 266
f 261 266 262
f 262 266 267
f 267 266 265
f 267 265 264
f 268 269 270
f 268 270 271
f 268 271 272
f 272 271 273
f 273 271 270
f 273 270 274
f 274 270 269
f 274 269 275
f 276 277 278
f 276 278 279
f 279 278 280
f 280 278 281
f 281 278 277
f 281 277 282
f 282 277 276
f 282 276 272
f 283 284 285
f 283 285 286
f 283 286 287
f 283 287 284
f 283 284 286
f 286 284 285
f 286 285 288
f 286 288 287
f 289 285 284
f 289 284 290
f 290 284 287
f 288 285 289
f 291 292 293
f 291 293 294
f 291 294 295
f 291 295 292
f 292 295 296
f 292 296 297
f 292 297 293
f 295 294 298
f 299 300 301
f 299 301 302
f 299 302 303
f 299 303 304
f 299 304 305
f 299 305 300
f 303 302 301
f 303 301 297
f 214 223 221
f 214 221 219
f 306 307 308
f 306 308 309
f 306 309 310
f 306 310 307
f 306 307 309
f 309 307 308
f 309 308 311
f 309 311 310
f 312 308 307
f 312 307 313
f 313 307 310
f 311 308 312
f 314 315 316
f 314 316 317
f 314 317 318
f 314 318 315
f 315 318 319
f 315 319 320
f 315 320 316
f 318 317 321
f 322 323 324
f 322 324 325
f 322 325 326
f 322 326 327
f 322 327 328
f 322 328 323
f 326 325 324
f 326 324 320
