# RS2 Model 631
# Vertices: 89
# Faces: 103

v 64 64 40
v -64 64 136
v -64 -64 40
v -64 -64 32
v -64 64 128
v -64 -64 24
v -64 64 120
v -64 64 104
v -64 -64 16
v -64 64 0
v -64 -64 0
v 63 64 32
v 63 64 24
v 63 64 40
v 63 64 16
v 63 64 0
v -56 20 180
v -20 -12 180
v 12 20 180
v -20 56 180
v -60 20 100
v -20 -16 40
v 16 20 40
v -20 60 100
v -22 35 204
v -21 31 204
v -17 29 204
v -13 31 204
v -11 35 204
v -13 39 204
v -17 41 204
v -21 39 204
v -28 38 204
v -28 32 204
v -20 24 204
v -14 24 204
v -6 32 204
v -6 38 204
v -14 46 204
v -20 46 204
v -20 46 180
v -28 38 180
v -28 32 180
v -20 24 180
v -14 24 180
v -6 32 180
v -6 38 180
v -14 46 180
v -24 8 217
v -22 4 217
v -18 3 217
v -14 4 217
v -13 8 217
v -14 12 217
v -18 14 217
v -22 12 217
v -30 11 217
v -30 5 217
v -21 -3 217
v -15 -3 217
v -7 5 217
v -7 11 217
v -15 20 217
v -21 20 217
v -21 20 180
v -30 11 180
v -30 5 180
v -21 -3 180
v -15 -3 180
v -7 5 180
v -7 11 180
v -15 20 180
v -64 -64 -64
v -64 -64 192
v -64 64 -64
v -64 64 192
v 63 64 -64
v 41 45 31
v 40 48 288
v -49 -46 31
v -86 -8 31
v -85 -9 288
v 4 84 31
v -87 43 31
v -86 46 288
v 8 -42 31
v -44 86 31
v -46 84 288
v 42 -8 31

f 1 2 3
f 3 2 4
f 4 2 5
f 4 5 6
f 6 5 7
f 6 7 8
f 6 8 9
f 9 8 10
f 9 10 11
f 12 13 7
f 12 7 5
f 12 5 14
f 14 5 2
f 7 13 15
f 7 15 8
f 8 15 10
f 10 15 16
f 17 18 19
f 17 19 20
f 17 20 21
f 17 21 22
f 17 22 18
f 18 22 23
f 18 23 19
f 19 23 24
f 19 24 20
f 20 24 21
f 25 26 27
f 25 27 28
f 25 28 29
f 25 29 30
f 25 30 31
f 25 31 32
f 25 32 33
f 25 33 34
f 25 34 26
f 26 34 35
f 26 35 27
f 27 35 36
f 27 36 28
f 28 36 37
f 28 37 29
f 29 37 38
f 29 38 30
f 30 38 39
f 30 39 31
f 31 39 40
f 31 40 32
f 32 40 33
f 33 40 41
f 33 41 42
f 33 42 34
f 34 42 43
f 34 43 35
f 35 43 44
f 35 44 36
f 36 44 45
f 36 45 37
f 37 45 46
f 37 46 38
f 38 46 47
f 38 47 39
f 39 47 48
f 39 48 40
f 40 48 41
f 49 50 51
f 49 51 52
f 49 52 53
f 49 53 54
f 49 54 55
f 49 55 56
f 49 56 57
f 49 57 58
f 49 58 50
f 50 58 59
f 50 59 51
f 51 59 60
f 51 60 52
f 52 60 61
f 52 61 53
f 53 61 62
f 53 62 54
f 54 62 63
f 54 63 55
f 55 63 64
f 55 64 56
f 56 64 57
f 57 64 65
f 57 65 66
f 57 66 58
f 58 66 67
f 58 67 59
f 59 67 68
f 59 68 60
f 60 68 69
f 60 69 61
f 61 69 70
f 61 70 62
f 62 70 71
f 62 71 63
f 63 71 72
f 63 72 64
f 64 72 65
