# RS2 Model 633
# Vertices: 73
# Faces: 95

v -48 -64 240
v -48 -48 240
v -64 -48 240
v -64 -64 240
v -48 -64 160
v -48 -48 160
v -48 64 0
v -48 64 240
v -48 -48 0
v -48 -40 160
v -40 -40 160
v -40 -40 140
v -48 -40 140
v -40 -48 160
v -40 -56 140
v -40 -56 160
v -48 -56 160
v -48 -56 140
v -48 -64 140
v -48 -40 96
v -40 -40 96
v -40 -40 76
v -48 -40 76
v -40 -48 96
v -40 -56 76
v -40 -56 96
v -48 -56 96
v -48 -56 76
v -48 -48 96
v -48 -64 96
v -48 -64 76
v -64 -48 96
v -64 -48 76
v -64 -64 76
v -64 -64 96
v -64 -64 140
v -64 -48 140
v -64 64 240
v -64 64 0
v -64 -48 0
v -64 -64 0
v -48 -64 0
v -64 -64 160
v -64 -48 160
v -48 24 152
v -36 24 152
v -36 40 152
v -48 40 152
v -48 40 132
v -36 40 132
v -36 24 132
v -48 24 132
v -40 56 116
v -40 40 148
v -40 40 136
v -40 48 116
v -40 40 104
v -40 24 104
v -40 16 116
v -40 8 116
v -40 24 136
v -40 24 148
v -48 8 116
v -48 24 148
v -48 56 116
v -48 40 148
v -48 48 116
v -48 16 116
v -48 24 136
v -48 40 136
v -48 -48 140
v -48 -48 76
v -144 -64 0

f 1 2 3
f 1 3 4
f 1 4 5
f 1 5 2
f 2 5 6
f 7 8 2
f 7 2 9
f 10 11 12
f 10 12 13
f 11 14 15
f 11 15 12
f 16 17 18
f 16 18 15
f 16 15 14
f 16 14 17
f 17 14 6
f 6 14 11
f 6 11 10
f 17 5 19
f 17 19 18
f 20 21 22
f 20 22 23
f 21 24 25
f 21 25 22
f 26 27 28
f 26 28 25
f 26 25 24
f 26 24 27
f 27 24 29
f 29 24 21
f 29 21 20
f 27 30 31
f 27 31 28
f 32 33 34
f 32 34 35
f 32 35 36
f 32 36 37
f 32 37 38
f 32 38 39
f 32 39 33
f 33 39 40
f 33 40 34
f 34 40 41
f 34 41 42
f 34 42 31
f 34 31 30
f 34 30 35
f 35 30 36
f 36 30 19
f 36 19 5
f 36 5 43
f 36 43 37
f 37 43 44
f 37 44 38
f 38 44 3
f 38 3 2
f 38 2 8
f 38 8 39
f 39 8 7
f 45 46 47
f 45 47 48
f 48 47 49
f 49 47 50
f 49 50 51
f 49 51 52
f 52 51 45
f 45 51 46
f 46 51 50
f 46 50 47
f 53 54 55
f 53 55 56
f 53 56 57
f 57 56 58
f 58 56 59
f 58 59 60
f 60 59 61
f 60 61 62
f 60 62 63
f 63 62 64
f 53 65 66
f 53 66 54
f 56 67 68
f 56 68 59
f 59 68 69
f 59 69 61
f 67 56 55
f 67 55 70
f 30 29 71
f 30 71 19
f 42 9 72
f 42 72 31
f 5 4 43
f 43 4 44
f 44 4 3
f 40 3 39
