# RS2 Model 6370
# Vertices: 28
# Faces: 17

v -55 -36 126
v -60 -76 128
v -16 -39 147
v -78 -66 24
v -88 -64 98
v -68 -52 120
v -78 -76 108
v -38 -62 36
v -50 -52 132
v -28 -54 144
v -40 -72 140
v 6 -74 22
v -6 -66 164
v 20 -66 166
v 6 -86 170
v 50 -70 28
v 38 -62 156
v 60 -62 144
v 50 -80 160
v -108 -53 75
v -92 -99 88
v -61 -26 126
v -19 -48 157
v -19 -95 169
v 32 -48 162
v 15 -65 168
v 63 -98 162
v 32 -34 141

f 1 2 3
f 4 5 6
f 4 6 7
f 4 7 5
f 5 7 6
f 8 9 10
f 8 10 11
f 8 11 9
f 9 11 10
f 12 13 14
f 12 14 15
f 12 15 13
f 13 15 14
f 16 17 18
f 16 18 19
f 16 19 17
f 17 19 18
