# RS2 Model 6379
# Vertices: 99
# Faces: 186

v -12 -42 120
v -27 -42 120
v -29 -29 126
v -12 -29 126
v -12 -42 132
v -19 -55 126
v -27 -42 132
v -29 -29 135
v -23 -9 130
v -23 -9 122
v -14 -8 122
v -12 -29 135
v -14 -8 130
v -15 15 127
v -21 15 127
v -21 15 122
v -15 15 122
v -21 53 128
v -17 53 128
v -17 62 125
v -21 62 125
v -25 34 120
v -25 36 128
v -13 36 128
v -13 34 120
v 18 -55 126
v 23 -45 132
v 16 -39 134
v 16 -39 117
v 23 -45 120
v 22 -22 123
v 22 -22 134
v 10 -23 135
v 10 -23 121
v 16 -4 118
v 24 -5 118
v 24 -4 129
v 16 -5 130
v 20 13 132
v 20 13 123
v 26 16 124
v 26 16 134
v 24 34 130
v 16 33 129
v 16 35 117
v 24 34 118
v 26 60 128
v 26 61 131
v 20 52 128
v 20 52 124
v -2 65 99
v 2 52 100
v 2 53 97
v -2 65 97
v -8 36 93
v -8 36 103
v 6 32 103
v 6 34 93
v 2 14 93
v -6 15 93
v -6 16 101
v 2 13 100
v 4 -6 105
v 4 -7 98
v -1 -4 98
v -1 -4 105
v -5 -27 103
v 3 -23 102
v 3 -23 95
v -5 -29 95
v -7 -40 90
v -7 -40 107
v 7 -42 105
v 7 -42 93
v 0 -55 99
v -1 -27 124
v -1 -17 136
v -20 -17 116
v -8 -27 116
v -1 -8 124
v 7 -8 115
v 7 -27 115
v 19 -17 115
v -8 -8 116
v -1 -8 108
v -1 -17 96
v -1 -27 108
v -1 -61 122
v -1 -51 134
v -20 -51 114
v -8 -61 114
v -1 -42 122
v 7 -42 113
v 7 -61 113
v 19 -51 113
v -8 -42 114
v -1 -42 106
v -1 -51 94
v -1 -61 106

f 1 2 3
f 1 3 4
f 1 4 5
f 1 5 6
f 1 6 2
f 2 6 7
f 2 7 8
f 2 8 3
f 3 8 9
f 3 9 10
f 3 10 4
f 4 10 11
f 4 11 12
f 4 12 5
f 5 12 7
f 5 7 6
f 7 12 8
f 8 12 13
f 8 13 9
f 9 13 14
f 9 14 15
f 9 15 10
f 10 15 16
f 10 16 11
f 11 16 17
f 11 17 13
f 11 13 12
f 18 19 20
f 18 20 21
f 18 21 22
f 18 22 23
f 18 23 19
f 19 23 24
f 19 24 20
f 20 24 25
f 20 25 21
f 21 25 22
f 22 25 17
f 22 17 16
f 22 16 23
f 23 16 15
f 23 15 24
f 24 15 14
f 24 14 25
f 25 14 17
f 17 14 13
f 26 27 28
f 26 28 29
f 26 29 30
f 26 30 27
f 27 30 31
f 27 31 32
f 27 32 28
f 28 32 33
f 28 33 29
f 29 33 34
f 29 34 30
f 30 34 31
f 31 34 35
f 31 35 36
f 31 36 32
f 32 36 37
f 32 37 33
f 33 37 38
f 33 38 34
f 34 38 35
f 35 38 39
f 35 39 40
f 35 40 36
f 36 40 41
f 36 41 37
f 37 41 42
f 37 42 38
f 38 42 39
f 39 42 43
f 39 43 44
f 39 44 40
f 40 44 45
f 40 45 41
f 41 45 46
f 41 46 42
f 42 46 43
f 43 46 47
f 43 47 48
f 43 48 44
f 44 48 49
f 44 49 45
f 45 49 50
f 45 50 46
f 46 50 47
f 47 50 49
f 47 49 48
f 51 52 53
f 51 53 54
f 51 54 55
f 51 55 56
f 51 56 52
f 52 56 57
f 52 57 53
f 53 57 58
f 53 58 54
f 54 58 55
f 55 58 59
f 55 59 60
f 55 60 56
f 56 60 61
f 56 61 57
f 57 61 62
f 57 62 58
f 58 62 59
f 59 62 63
f 59 63 64
f 59 64 60
f 60 64 65
f 60 65 61
f 61 65 66
f 61 66 62
f 62 66 63
f 63 66 67
f 63 67 68
f 63 68 64
f 64 68 69
f 64 69 65
f 65 69 70
f 65 70 66
f 66 70 67
f 67 70 71
f 67 71 72
f 67 72 68
f 68 72 73
f 68 73 69
f 69 73 74
f 69 74 70
f 70 74 71
f 71 74 75
f 71 75 72
f 72 75 73
f 73 75 74
f 76 77 78
f 76 78 79
f 76 79 80
f 76 80 81
f 76 81 82
f 76 82 77
f 77 82 83
f 77 83 80
f 77 80 84
f 77 84 78
f 78 84 85
f 78 85 86
f 78 86 79
f 79 86 87
f 79 87 84
f 79 84 80
f 84 87 85
f 85 87 82
f 85 82 81
f 85 81 86
f 86 81 83
f 86 83 87
f 87 83 82
f 83 81 80
f 88 89 90
f 88 90 91
f 88 91 92
f 88 92 93
f 88 93 94
f 88 94 89
f 89 94 95
f 89 95 92
f 89 92 96
f 89 96 90
f 90 96 97
f 90 97 98
f 90 98 91
f 91 98 99
f 91 99 96
f 91 96 92
f 96 99 97
f 97 99 94
f 97 94 93
f 97 93 98
f 98 93 95
f 98 95 99
f 99 95 94
f 95 93 92
