# RS2 Model 6396
# Vertices: 220
# Faces: 164

v -3 -1 56
v -3 -3 56
v -5 -3 56
v -5 -1 56
v 31 21 66
v 31 16 58
v 34 23 58
v 27 23 58
v -31 35 92
v -31 31 86
v -28 37 86
v -35 38 86
v 25 11 104
v 25 6 98
v 28 13 98
v 21 13 98
v 13 36 36
v 13 32 30
v 17 38 30
v 10 39 30
v 6 -40 12
v 6 -44 6
v 10 -38 6
v 3 -37 6
v -40 24 22
v -34 20 22
v -36 24 26
v -34 28 22
v 0 30 50
v 6 26 50
v 4 30 56
v 6 34 50
v 32 4 60
v 38 2 62
v 36 4 66
v 38 8 62
v 26 -32 40
v 32 -36 40
v 30 -32 46
v 32 -28 40
v -22 -40 82
v -16 -44 82
v -18 -40 90
v -16 -36 82
v 18 -14 94
v 24 -18 94
v 22 -14 100
v 24 -10 94
v 53 -12 74
v 50 -16 66
v 57 -13 66
v 52 -8 66
v 16 45 100
v 13 41 94
v 20 45 94
v 15 50 94
v 42 -17 112
v 39 -21 106
v 46 -18 106
v 40 -12 106
v 50 14 44
v 47 10 38
v 54 13 38
v 49 20 38
v -5 -51 20
v -8 -56 14
v -1 -52 14
v -6 -46 14
v 24 26 14
v 22 22 10
v 28 26 10
v 22 30 10
v -16 32 44
v -18 28 38
v -12 32 38
v -18 36 38
v -48 6 54
v -50 4 48
v -44 6 48
v -50 10 48
v -42 -30 34
v -44 -34 28
v -38 -30 28
v -44 -26 28
v 6 -38 78
v 4 -42 70
v 10 -38 70
v 4 -34 70
v -34 -12 88
v -36 -16 82
v -30 -12 82
v -36 -8 82
v -28 16 78
v -23 17 70
v -30 19 70
v -30 12 70
v -33 -47 104
v -29 -47 98
v -35 -44 98
v -35 -51 98
v -17 12 116
v -13 12 110
v -19 15 110
v -19 8 110
v -40 -4 48
v -37 -3 42
v -43 0 42
v -43 -7 42
v 36 1 24
v 40 1 18
v 34 4 18
v 34 -3 18
v 1 -44 20
v -1 -40 16
v 0 -47 16
v 6 -44 16
v 24 -10 50
v 21 -7 44
v 22 -14 44
v 28 -10 44
v 14 30 60
v 13 33 56
v 12 26 54
v 18 30 56
v -21 40 40
v -24 43 34
v -23 36 34
v -17 40 34
v -49 0 84
v -52 4 76
v -51 -4 76
v -44 0 76
v -8 25 94
v -11 29 88
v -10 21 88
v -4 25 88
v 30 13 4
v 24 10 4
v 29 10 8
v 32 6 4
v 19 -25 32
v 13 -29 32
v 17 -29 38
v 20 -32 32
v -18 -43 42
v -23 -48 42
v -20 -47 48
v -17 -50 42
v -48 -22 22
v -55 -26 22
v -50 -26 28
v -47 -29 22
v -35 24 64
v -41 21 64
v -37 21 72
v -34 17 64
v -29 -23 76
v -35 -27 76
v -30 -26 82
v -28 -30 76
v -1 -36 64
v 1 -29 64
v -3 -33 72
v -7 -33 64
v -60 -14 92
v -60 -7 92
v -62 -11 98
v -66 -11 92
v 0 -24 104
v 0 -18 104
v -1 -21 110
v -6 -21 104
v -23 -40 36
v -24 -33 36
v -26 -35 42
v -30 -37 36
v 13 28 12
v 13 35 12
v 11 31 18
v 7 31 12
v 8 56 60
v 2 51 60
v 7 52 68
v 10 50 60
v 44 -2 88
v 38 -7 88
v 42 -6 94
v 47 -9 88
v -2 48 100
v -7 43 100
v -2 44 106
v 1 40 100
v 30 42 32
v 24 37 32
v 29 38 38
v 34 35 32
v -52 20 8
v -59 16 8
v -53 16 14
v -49 13 8
v 30 20 52
v 23 20 52
v 27 18 60
v 27 14 52
v 16 -42 80
v 10 -42 80
v 13 -44 86
v 14 -49 80
v 19 19 92
v 11 19 92
v 16 17 98
v 16 13 92
v 37 -2 24
v 29 -3 24
v 33 -4 30
v 35 -8 24
v -35 24 0
v -42 23 0
v -39 22 6
v -37 18 0

f 1 2 3
f 1 3 4
f 5 6 7
f 5 7 8
f 5 8 6
f 9 10 11
f 9 11 12
f 9 12 10
f 13 14 15
f 13 15 16
f 13 16 14
f 17 18 19
f 17 19 20
f 17 20 18
f 21 22 23
f 21 23 24
f 21 24 22
f 25 26 27
f 25 27 28
f 28 27 26
f 29 30 31
f 29 31 32
f 32 31 30
f 33 34 35
f 33 35 36
f 36 35 34
f 37 38 39
f 37 39 40
f 40 39 38
f 41 42 43
f 41 43 44
f 44 43 42
f 45 46 47
f 45 47 48
f 48 47 46
f 49 50 51
f 49 51 52
f 49 52 50
f 53 54 55
f 53 55 56
f 53 56 54
f 57 58 59
f 57 59 60
f 57 60 58
f 61 62 63
f 61 63 64
f 61 64 62
f 65 66 67
f 65 67 68
f 65 68 66
f 69 70 71
f 69 71 72
f 69 72 70
f 73 74 75
f 73 75 76
f 73 76 74
f 77 78 79
f 77 79 80
f 77 80 78
f 81 82 83
f 81 83 84
f 81 84 82
f 85 86 87
f 85 87 88
f 85 88 86
f 89 90 91
f 89 91 92
f 89 92 90
f 93 94 95
f 93 95 96
f 93 96 94
f 97 98 99
f 97 99 100
f 97 100 98
f 101 102 103
f 101 103 104
f 101 104 102
f 105 106 107
f 105 107 108
f 105 108 106
f 109 110 111
f 109 111 112
f 109 112 110
f 113 114 115
f 113 115 116
f 113 116 114
f 117 118 119
f 117 119 120
f 117 120 118
f 121 122 123
f 121 123 124
f 121 124 122
f 125 126 127
f 125 127 128
f 125 128 126
f 129 130 131
f 129 131 132
f 129 132 130
f 133 134 135
f 133 135 136
f 133 136 134
f 137 138 139
f 137 139 140
f 140 139 138
f 141 142 143
f 141 143 144
f 144 143 142
f 145 146 147
f 145 147 148
f 148 147 146
f 149 150 151
f 149 151 152
f 152 151 150
f 153 154 155
f 153 155 156
f 156 155 154
f 157 158 159
f 157 159 160
f 160 159 158
f 161 162 163
f 161 163 164
f 164 163 162
f 165 166 167
f 165 167 168
f 168 167 166
f 169 170 171
f 169 171 172
f 172 171 170
f 173 174 175
f 173 175 176
f 176 175 174
f 177 178 179
f 177 179 180
f 180 179 178
f 181 182 183
f 181 183 184
f 184 183 182
f 185 186 187
f 185 187 188
f 188 187 186
f 189 190 191
f 189 191 192
f 192 191 190
f 193 194 195
f 193 195 196
f 196 195 194
f 197 198 199
f 197 199 200
f 200 199 198
f 201 202 203
f 201 203 204
f 204 203 202
f 205 206 207
f 205 207 208
f 208 207 206
f 209 210 211
f 209 211 212
f 212 211 210
f 213 214 215
f 213 215 216
f 216 215 214
f 217 218 219
f 217 219 220
f 220 219 218
