# RS2 Model 6407
# Vertices: 170
# Faces: 111

v 64 48 0
v 64 64 0
v 0 56 0
v 8 40 0
v 64 48 240
v 8 40 240
v -40 -8 0
v -40 -8 240
v -48 -64 0
v -48 -64 240
v -56 0 0
v -64 -64 0
v 64 -64 0
v 64 -64 236
v -48 -64 236
v 64 48 236
v -40 -8 236
v 8 40 236
v -56 -64 240
v -46 -8 240
v -46 -8 198
v -56 -64 198
v 0 -64 240
v 6 -32 240
v -40 -8 198
v 8 46 240
v 64 56 240
v 64 56 198
v 8 46 198
v 30 -4 240
v 64 0 240
v -40 0 240
v 0 40 240
v 0 40 198
v -40 0 198
v -38 -6 236
v 8 -28 240
v 26 -8 240
v 4 36 236
v 4 36 198
v 62 -6 240
v 28 -18 240
v 50 -40 240
v 62 -36 240
v 38 -62 240
v 42 -44 240
v 20 -26 240
v 6 -62 240
v 64 -64 240
v 64 -40 240
v 48 -46 240
v 40 -64 240
v 0 40 64
v 4 36 64
v 4 36 16
v 0 40 16
v -46 -8 64
v -40 -8 64
v -56 -64 64
v -48 -64 64
v 8 40 198
v -38 -6 198
v 60 48 132
v 60 56 132
v 60 56 192
v 60 48 192
v 10 46 192
v 10 40 192
v 10 46 132
v 10 40 132
v 8 46 64
v 64 56 64
v 64 56 16
v 8 46 16
v 8 40 64
v 64 48 64
v -46 -8 16
v -56 -64 16
v 8 40 16
v -56 -64 128
v -46 -8 128
v -46 -8 68
v -56 -64 68
v -48 -64 128
v -40 -8 128
v -40 -8 68
v -36 4 128
v 8 46 128
v 8 46 68
v -36 4 68
v -32 0 128
v 8 40 128
v 64 48 128
v 64 56 128
v 64 56 68
v -32 0 68
v -44 -4 192
v -38 -6 192
v 4 36 192
v 0 40 192
v 0 40 132
v -44 -4 132
v -56 -58 192
v -48 -60 192
v -56 -58 132
v -48 -60 132
v 4 36 132
v 81 -71 240
v 81 -18 240
v 34 -71 240
v 77 5 240
v 17 -15 240
v 90 -34 240
v -38 1 240
v -1 38 240
v -38 1 198
v 35 51 65
v 86 60 66
v 41 47 11
v 59 54 128
v 130 66 128
v 59 54 62
v -59 -89 64
v -49 -33 65
v -60 -88 14
v -55 -60 195
v -65 -116 195
v -55 -60 237
v -38 33 240
v 110 53 240
v -38 33 0
v -53 -100 240
v -34 28 240
v -53 -100 0
v 67 58 239
v 8 58 239
v 67 -2 239
v -60 37 236
v -45 -72 236
v 64 53 236
v 42 -69 240
v 49 -34 240
v 9 -42 240
v -42 -2 192
v -1 38 192
v -42 -2 132
v -108 -71 66
v -65 -28 65
v -108 -71 18
v -4 33 128
v 44 79 128
v -4 33 61
v 125 67 195
v 69 57 195
v 125 67 237
v -68 -133 129
v -56 -69 129
v -68 -133 59
v -59 -60 240
v -62 -111 240
v 3 -62 240
v -71 -39 240
v 39 71 240
v -71 -39 0
v -76 -22 0
v -40 -58 0
v 22 76 0
v 7 45 192
v 62 56 192
v 7 45 132

f 1 2 3
f 1 3 4
f 1 4 5
f 5 4 6
f 6 4 7
f 6 7 8
f 8 7 9
f 8 9 10
f 9 7 11
f 9 11 12
f 7 4 3
f 7 3 11
f 9 13 14
f 9 14 15
f 15 14 16
f 15 16 17
f 17 16 18
f 13 1 16
f 13 16 14
f 19 20 21
f 19 21 22
f 19 23 24
f 19 24 20
f 20 24 17
f 20 17 25
f 20 25 21
f 26 27 28
f 26 28 29
f 26 29 18
f 26 18 30
f 26 30 31
f 26 31 27
f 32 33 34
f 32 34 35
f 32 35 36
f 32 36 37
f 32 37 38
f 32 38 33
f 33 38 39
f 33 39 40
f 33 40 34
f 41 42 43
f 41 43 44
f 45 46 47
f 45 47 48
f 49 50 51
f 49 51 52
f 53 54 55
f 53 55 56
f 53 56 57
f 53 57 54
f 54 57 58
f 58 57 59
f 58 59 60
f 29 61 18
f 35 62 36
f 63 64 65
f 63 65 66
f 66 65 67
f 66 67 68
f 68 67 69
f 68 69 70
f 71 72 73
f 71 73 74
f 71 74 75
f 71 75 76
f 71 76 72
f 57 56 77
f 57 77 59
f 59 77 78
f 75 74 79
f 80 81 82
f 80 82 83
f 80 84 85
f 80 85 81
f 81 85 86
f 81 86 82
f 87 88 89
f 87 89 90
f 87 90 91
f 87 91 92
f 87 92 88
f 88 92 93
f 88 93 94
f 88 94 95
f 88 95 89
f 91 90 96
f 67 65 64
f 67 64 69
f 97 98 99
f 97 99 100
f 97 100 101
f 97 101 102
f 97 102 103
f 97 103 98
f 98 103 104
f 104 103 105
f 104 105 106
f 100 99 107
f 100 107 101
f 103 102 105
f 108 109 110
f 111 112 113
f 114 115 116
f 117 118 119
f 120 121 122
f 123 124 125
f 126 127 128
f 129 130 131
f 132 133 134
f 135 136 137
