# RS2 Model 6411
# Vertices: 143
# Faces: 82

v 16 -36 240
v 60 -36 240
v 16 28 240
v -56 -251 34
v -56 -198 43
v -56 -243 -14
v -59 -61 240
v -60 -106 240
v 3 -61 240
v -56 42 65
v -56 87 68
v -56 46 14
v -56 -8 128
v -56 59 128
v -56 -5 62
v -30 66 51
v -75 22 51
v -31 68 147
v -82 -48 166
v -23 -48 202
v -82 47 167
v -48 -63 237
v -48 65 235
v -48 -65 0
v -56 20 240
v -56 64 240
v -56 64 198
v -56 25 203
v -48 20 203
v -48 20 236
v 0 20 240
v 0 64 240
v -56 -64 240
v -56 -52 240
v -56 -52 200
v -56 -64 198
v -52 -48 240
v -52 16 240
v -52 9 202
v -52 -41 203
v -48 -41 203
v -48 -48 236
v -4 -48 240
v -4 16 240
v -48 16 236
v -48 13 202
v -48 -64 0
v -48 -64 236
v -48 64 236
v -48 64 0
v -64 -64 0
v -64 64 0
v 64 -64 236
v 64 64 236
v 64 -64 -160
v 64 64 -160
v 0 -64 240
v 0 -52 240
v -48 -52 236
v -48 -52 200
v 4 64 240
v 4 -4 240
v 36 -4 240
v 36 64 240
v 36 -8 240
v 4 -8 240
v 4 -60 240
v 36 -60 240
v 64 60 240
v 40 60 240
v 40 16 240
v 64 16 240
v 64 12 240
v 40 12 240
v 40 -24 240
v 64 -24 240
v 64 -28 240
v 40 -28 240
v 40 -64 240
v 64 -64 240
v -48 54 192
v -48 52 9
v -60 39 15
v -60 42 183
v -60 -46 183
v -48 -52 190
v -48 -52 10
v -60 -41 14
v -48 -58 63
v -56 -58 64
v -56 -64 64
v -48 -64 64
v -48 64 64
v -56 64 64
v -56 56 61
v -48 57 61
v -48 59 17
v -56 59 17
v -56 64 16
v -56 -59 16
v -56 -64 16
v -48 -59 16
v -56 -58 128
v -56 -59 68
v -56 -64 68
v -56 -64 128
v -48 -59 127
v -48 -59 68
v -48 -64 128
v -48 64 128
v -56 58 127
v -48 59 127
v -48 58 68
v -56 58 68
v -56 64 128
v -56 64 68
v 64 63 236
v 64 -64 235
v 64 64 -159
v -90 -64 0
v -21 -64 0
v -90 64 0
v -56 -126 128
v -56 -68 128
v -56 -126 61
v -56 -61 195
v -56 -106 195
v -56 -62 237
v -60 121 241
v -59 68 241
v 1 119 236
v -56 68 153
v -56 16 153
v -56 68 195
v -74 -32 65
v -32 -61 65
v -73 -33 132
v -48 -63 236
v 63 -64 236
v -47 64 236
v -60 -32 141
v -60 32 141
v -60 -31 55

f 1 2 3
f 4 5 6
f 7 8 9
f 10 11 12
f 13 14 15
f 16 17 18
f 19 20 21
f 22 23 24
f 25 26 27
f 25 27 28
f 25 28 29
f 25 29 30
f 25 30 31
f 25 31 32
f 25 32 26
f 33 34 35
f 33 35 36
f 37 38 39
f 37 39 40
f 37 40 41
f 37 41 42
f 37 42 43
f 37 43 44
f 37 44 38
f 38 44 45
f 38 45 39
f 39 45 46
f 47 48 49
f 47 49 50
f 47 50 51
f 51 50 52
f 48 53 54
f 48 54 49
f 55 56 54
f 55 54 53
f 33 57 58
f 33 58 34
f 34 58 59
f 34 59 35
f 35 59 60
f 61 62 63
f 61 63 64
f 65 66 67
f 65 67 68
f 69 70 71
f 69 71 72
f 73 74 75
f 73 75 76
f 77 78 79
f 77 79 80
f 81 82 83
f 81 83 84
f 81 84 85
f 81 85 86
f 86 85 87
f 87 85 88
f 88 85 84
f 88 84 83
f 89 90 91
f 89 91 92
f 93 94 95
f 93 95 96
f 96 95 97
f 97 95 98
f 98 95 99
f 99 95 94
f 89 100 90
f 90 100 91
f 91 100 101
f 89 102 100
f 103 104 105
f 103 105 106
f 103 106 107
f 103 107 104
f 104 107 108
f 107 106 109
f 110 111 112
f 112 111 113
f 113 111 114
f 114 111 115
f 114 115 116
f 110 115 111
