# RS2 Model 6465
# Vertices: 237
# Faces: 474

v 8 1 165
v 5 5 177
v 12 -10 170
v 0 -6 160
v 0 -10 165
v -13 -10 170
v -8 1 165
v -5 5 177
v 0 9 165
v 0 7 178
v -10 -7 178
v -8 -4 187
v -1 -2 188
v 7 -4 187
v 9 -7 178
v 15 -15 182
v 14 -19 181
v 14 -21 179
v 10 -19 175
v 6 -16 172
v 0 -16 168
v -6 -16 172
v -10 -19 175
v -14 -21 179
v -14 -19 181
v -15 -15 182
v -12 -15 186
v -7 -14 191
v 0 -14 195
v 7 -14 191
v 12 -15 186
v 9 -31 191
v 9 -28 191
v 7 -30 192
v 5 -35 192
v 7 -33 190
v 9 -30 189
v 9 -27 190
v 7 -26 194
v 7 -28 195
v 4 -33 195
v 5 -39 195
v 7 -42 190
v 9 -33 189
v 13 -27 184
v 9 -25 190
v 7 -25 191
v 5 -25 190
v 5 -26 192
v 4 -28 195
v 2 -32 194
v 0 -35 192
v 0 -45 195
v 5 -45 194
v 7 -48 190
v 9 -42 187
v 11 -41 183
v 14 -35 182
v 13 -31 182
v 14 -27 182
v 15 -21 182
v 0 -28 194
v 0 -25 194
v -5 -26 192
v -4 -28 195
v -2 -32 194
v -5 -39 195
v -5 -45 194
v 0 -52 196
v 2 -52 195
v 5 -54 191
v 9 -51 189
v 7 -47 189
v 6 -44 187
v 7 -42 185
v 7 -42 182
v 7 -39 183
v 0 -23 182
v 13 -30 182
v 14 -31 179
v 13 -28 178
v 0 -22 195
v -5 -25 190
v 5 -56 192
v 0 -56 192
v 0 -61 195
v 5 -61 194
v 7 -61 191
v 7 -56 191
v 6 -57 185
v 5 -56 187
v 6 -49 189
v 6 -48 182
v 5 -47 189
v 0 -41 187
v 7 -41 183
v -7 -39 183
v -14 -35 182
v -13 -31 182
v -13 -30 182
v 0 -19 179
v 0 -40 173
v 10 -37 175
v 12 -40 175
v 12 -39 174
v 13 -32 175
v 7 -28 174
v 9 -23 175
v 4 -27 169
v 0 -26 168
v -4 -27 169
v -9 -23 175
v -13 -28 178
v -14 -27 182
v -15 -21 182
v -13 -27 184
v -9 -25 190
v 2 -66 189
v 6 -63 185
v 6 -61 185
v 0 -67 190
v 0 -63 187
v 2 -63 186
v 4 -63 185
v 4 -61 181
v 4 -58 185
v 2 -57 186
v 2 -54 182
v 2 -54 187
v 0 -51 187
v 7 -39 172
v 7 -33 172
v 9 -43 172
v 9 -42 175
v 7 -45 173
v 0 -45 169
v 4 -53 173
v 4 -51 170
v 0 -49 168
v -4 -51 170
v -7 -45 173
v -9 -43 172
v -7 -39 172
v -4 -39 169
v 0 -39 168
v 4 -39 169
v 4 -32 169
v 0 -32 168
v -4 -32 169
v -7 -33 172
v -7 -28 174
v -13 -32 175
v -14 -31 179
v 0 -56 169
v 0 -54 168
v 2 -53 172
v 0 -54 170
v 0 -58 173
v -2 -53 172
v 7 -45 177
v 6 -48 175
v 4 -49 174
v 0 -52 173
v -2 -52 195
v -5 -56 192
v -5 -61 194
v 0 -63 186
v 0 -62 189
v 0 -62 185
v 0 -65 182
v 0 -65 183
v -2 -63 186
v -2 -61 185
v -2 -57 186
v -1 -56 187
v 1 -56 187
v 2 -61 185
v 4 -51 180
v 4 -45 175
v 2 -48 175
v 0 -56 175
v 10 -41 179
v 9 -40 175
v 10 -42 175
v -2 -54 187
v -6 -49 189
v -5 -47 189
v -2 -66 189
v -4 -63 185
v -4 -61 181
v -4 -58 185
v -6 -57 185
v -5 -56 187
v -2 -54 182
v -9 -51 189
v -7 -47 189
v -6 -48 182
v -6 -44 187
v -7 -42 185
v -7 -41 183
v -7 -42 182
v -11 -41 183
v -9 -33 189
v 0 -53 172
v -2 -48 175
v -4 -49 174
v -4 -53 173
v -6 -48 175
v -7 -45 177
v -9 -42 175
v -12 -40 175
v -12 -39 174
v -10 -37 175
v -9 -31 191
v -7 -30 192
v -9 -28 191
v -9 -30 189
v -7 -33 190
v -5 -35 192
v -7 -28 195
v -7 -26 194
v -9 -27 190
v -7 -42 190
v -4 -33 195
v -7 -25 191
v -7 -48 190
v -5 -54 191
v -7 -56 191
v -7 -61 191
v -9 -42 187
v -6 -61 185
v -6 -63 185
v -4 -51 180
v -4 -45 175
v -10 -41 179
v -9 -40 175
v -10 -42 175

f 1 2 3
f 1 3 4
f 4 3 5
f 4 5 6
f 4 6 7
f 7 6 8
f 7 8 9
f 9 8 10
f 9 10 2
f 9 2 1
f 6 11 8
f 8 11 12
f 8 12 13
f 8 13 10
f 10 13 2
f 2 13 14
f 2 14 15
f 2 15 3
f 3 15 16
f 3 16 17
f 3 17 18
f 3 18 19
f 3 19 20
f 3 20 5
f 5 20 21
f 5 21 22
f 5 22 6
f 6 22 23
f 6 23 24
f 6 24 25
f 6 25 26
f 6 26 11
f 11 26 12
f 12 26 27
f 12 27 28
f 12 28 29
f 12 29 13
f 13 29 14
f 14 29 30
f 14 30 31
f 14 31 16
f 14 16 15
f 32 33 34
f 32 34 35
f 32 35 36
f 32 36 37
f 32 37 33
f 33 37 38
f 33 38 39
f 33 39 40
f 33 40 34
f 34 40 35
f 35 40 41
f 35 41 42
f 35 42 43
f 35 43 36
f 36 43 44
f 36 44 37
f 37 44 45
f 37 45 38
f 38 45 46
f 38 46 47
f 38 47 39
f 39 47 48
f 39 48 49
f 39 49 50
f 39 50 40
f 40 50 41
f 41 50 51
f 41 51 42
f 42 51 52
f 42 52 53
f 42 53 54
f 42 54 43
f 43 54 55
f 43 55 56
f 43 56 57
f 43 57 44
f 44 57 58
f 44 58 45
f 45 58 59
f 45 59 60
f 45 60 61
f 45 61 31
f 45 31 30
f 45 30 46
f 46 30 48
f 46 48 47
f 49 62 50
f 50 62 52
f 50 52 51
f 49 63 62
f 62 63 64
f 62 64 65
f 62 65 52
f 52 65 66
f 52 66 67
f 52 67 53
f 53 67 68
f 53 68 69
f 53 69 54
f 54 69 70
f 54 70 71
f 54 71 55
f 55 71 72
f 55 72 56
f 56 72 73
f 56 73 74
f 56 74 75
f 56 75 57
f 57 75 76
f 57 76 77
f 57 77 58
f 58 77 78
f 58 78 59
f 59 78 79
f 59 79 60
f 60 79 80
f 60 80 81
f 60 81 18
f 60 18 61
f 61 18 17
f 61 17 16
f 61 16 31
f 82 49 48
f 82 48 29
f 82 29 83
f 82 83 64
f 82 64 63
f 82 63 49
f 84 71 70
f 84 70 85
f 84 85 86
f 84 86 87
f 84 87 88
f 84 88 89
f 84 89 71
f 71 89 90
f 71 90 72
f 72 90 91
f 72 91 92
f 72 92 73
f 73 92 93
f 73 93 74
f 74 93 94
f 74 94 95
f 74 95 75
f 75 95 96
f 75 96 76
f 76 96 77
f 77 96 95
f 77 95 78
f 78 95 97
f 78 97 98
f 78 98 99
f 78 99 100
f 78 100 101
f 78 101 79
f 79 101 80
f 80 101 102
f 80 102 103
f 80 103 104
f 80 104 105
f 80 105 106
f 80 106 81
f 81 106 107
f 81 107 108
f 81 108 18
f 18 108 19
f 19 108 20
f 20 108 109
f 20 109 21
f 21 109 110
f 21 110 111
f 21 111 22
f 22 111 112
f 22 112 23
f 23 112 24
f 24 112 113
f 24 113 114
f 24 114 115
f 24 115 25
f 25 115 26
f 26 115 27
f 27 115 116
f 27 116 28
f 28 116 117
f 28 117 83
f 28 83 29
f 87 118 88
f 88 118 119
f 88 119 120
f 88 120 90
f 88 90 89
f 87 121 118
f 118 121 122
f 118 122 123
f 118 123 124
f 118 124 119
f 119 124 120
f 120 124 125
f 120 125 126
f 120 126 90
f 90 126 127
f 90 127 91
f 91 127 128
f 91 128 129
f 91 129 92
f 92 129 130
f 92 130 94
f 92 94 93
f 105 131 106
f 106 131 132
f 106 132 107
f 107 132 109
f 107 109 108
f 133 105 104
f 133 104 134
f 133 134 135
f 133 135 136
f 133 136 131
f 133 131 105
f 135 137 138
f 135 138 136
f 136 138 139
f 136 139 140
f 136 140 141
f 136 141 142
f 136 142 143
f 136 143 144
f 136 144 145
f 136 145 146
f 136 146 131
f 131 146 132
f 132 146 147
f 132 147 109
f 109 147 110
f 110 147 148
f 110 148 149
f 110 149 111
f 111 149 150
f 111 150 151
f 111 151 112
f 112 151 113
f 113 151 152
f 113 152 153
f 113 153 114
f 114 153 100
f 114 100 99
f 114 99 116
f 114 116 115
f 154 155 138
f 154 138 156
f 154 156 157
f 154 157 158
f 154 158 157
f 154 157 159
f 154 159 140
f 154 140 155
f 155 140 139
f 155 139 138
f 135 134 160
f 135 160 161
f 135 161 137
f 137 161 162
f 137 162 163
f 137 163 156
f 137 156 138
f 147 146 148
f 148 146 145
f 148 145 144
f 148 144 149
f 149 144 150
f 150 144 143
f 150 143 152
f 150 152 151
f 48 30 29
f 70 69 85
f 85 69 164
f 85 164 165
f 85 165 86
f 86 165 166
f 86 166 121
f 86 121 87
f 121 167 122
f 121 122 167
f 121 167 168
f 121 168 167
f 167 168 169
f 167 169 170
f 170 169 123
f 170 123 171
f 170 171 172
f 170 172 169
f 169 172 173
f 169 173 174
f 169 174 175
f 169 175 168
f 169 168 176
f 169 176 127
f 169 127 177
f 169 177 123
f 123 177 124
f 124 177 125
f 125 177 126
f 126 177 127
f 178 179 180
f 178 180 162
f 178 162 161
f 178 161 179
f 179 161 160
f 179 160 102
f 179 102 180
f 180 102 163
f 180 163 162
f 181 157 156
f 181 156 163
f 181 163 159
f 181 159 157
f 182 103 183
f 182 183 184
f 182 184 104
f 182 104 103
f 128 127 176
f 128 176 129
f 129 176 130
f 130 176 168
f 130 168 175
f 130 175 185
f 130 185 186
f 130 186 187
f 130 187 95
f 130 95 94
f 171 122 167
f 122 171 123
f 171 122 172
f 172 122 188
f 172 188 189
f 172 189 173
f 173 189 190
f 173 190 191
f 173 191 174
f 174 191 192
f 174 192 193
f 174 193 194
f 174 194 175
f 175 194 185
f 185 194 193
f 185 193 186
f 186 193 195
f 186 195 196
f 186 196 197
f 186 197 187
f 187 197 198
f 187 198 95
f 95 198 199
f 95 199 200
f 95 200 97
f 97 200 201
f 97 201 202
f 97 202 98
f 98 202 203
f 98 203 116
f 98 116 99
f 102 184 183
f 102 183 103
f 104 184 134
f 134 184 102
f 134 102 160
f 163 102 204
f 163 204 102
f 163 102 205
f 163 205 206
f 163 206 207
f 163 207 159
f 159 207 140
f 140 207 141
f 141 207 208
f 141 208 209
f 141 209 210
f 141 210 142
f 142 210 211
f 142 211 212
f 142 212 143
f 143 212 152
f 152 212 153
f 153 212 211
f 153 211 213
f 153 213 102
f 153 102 101
f 153 101 100
f 214 215 216
f 214 216 217
f 214 217 218
f 214 218 219
f 214 219 215
f 215 219 220
f 215 220 216
f 216 220 221
f 216 221 222
f 216 222 217
f 217 222 116
f 217 116 203
f 217 203 218
f 218 203 223
f 218 223 219
f 219 223 67
f 219 67 224
f 219 224 220
f 220 224 65
f 220 65 221
f 221 65 64
f 221 64 83
f 221 83 225
f 221 225 222
f 222 225 117
f 222 117 116
f 65 224 66
f 66 224 67
f 68 67 223
f 68 223 226
f 68 226 227
f 68 227 164
f 68 164 69
f 165 164 227
f 165 227 228
f 165 228 229
f 165 229 166
f 166 229 188
f 166 188 121
f 121 188 122
f 202 223 203
f 223 202 230
f 223 230 226
f 226 230 195
f 226 195 227
f 227 195 192
f 227 192 228
f 228 192 229
f 229 192 231
f 229 231 232
f 229 232 188
f 188 232 189
f 189 232 231
f 189 231 190
f 190 231 191
f 191 231 192
f 225 83 117
f 233 205 234
f 233 234 208
f 233 208 206
f 233 206 205
f 235 236 213
f 235 213 211
f 235 211 237
f 235 237 236
f 236 237 102
f 236 102 213
f 201 200 199
f 201 199 202
f 202 199 230
f 230 199 198
f 230 198 196
f 230 196 195
f 197 196 198
f 193 192 195
f 168 167 169
f 211 210 237
f 237 210 102
f 102 210 209
f 102 209 234
f 102 234 205
f 208 234 209
f 207 206 208
