# RS2 Model 6611
# Vertices: 77
# Faces: 93

v 32 0 0
v 64 64 0
v -64 64 0
v 0 -32 0
v -64 -64 0
v -37 62 20
v -58 62 2
v -63 55 1
v -59 39 13
v -57 33 -1
v -31 61 0
v -54 62 -22
v -62 56 -23
v -35 39 0
v -13 29 15
v -7 62 15
v -28 61 0
v -26 61 -20
v -36 37 -21
v -10 22 1
v -1 62 1
v -64 30 0
v -64 6 20
v -28 15 19
v -37 38 0
v -34 39 -21
v -64 26 -22
v -64 -2 1
v -26 11 1
v -30 -18 31
v -36 12 2
v -64 -4 1
v -62 -32 28
v -62 -32 0
v -24 -18 1
v -36 8 -20
v -64 -8 -22
v 34 62 31
v 1 63 1
v -6 35 1
v 11 26 16
v 17 23 1
v 35 62 1
v 7 63 -20
v -2 35 -21
v 10 6 -1
v 29 2 14
v 58 63 22
v 31 62 2
v 35 62 -24
v 9 1 -25
v 38 -8 0
v 62 62 0
v -64 -36 1
v -61 -59 20
v -24 -48 19
v -35 -24 -1
v -31 -26 -25
v -62 -39 -27
v -60 -63 -3
v -21 -54 0
v 14 19 31
v -6 29 1
v -28 8 1
v -24 -9 20
v -14 -18 1
v 15 17 1
v 0 27 -20
v -24 6 -21
v -25 -30 -1
v -11 -43 14
v 28 -10 22
v 11 7 2
v 17 0 -24
v -29 -33 -25
v -8 -56 0
v 34 -12 0

f 1 2 3
f 1 3 4
f 4 3 5
f 6 7 8
f 6 8 9
f 6 9 10
f 6 10 11
f 6 11 7
f 7 11 12
f 7 12 8
f 8 12 13
f 8 13 9
f 9 13 10
f 14 15 16
f 14 16 17
f 14 17 18
f 14 18 19
f 14 19 15
f 15 19 20
f 15 20 16
f 16 20 21
f 16 21 17
f 17 21 18
f 22 23 24
f 22 24 25
f 22 25 26
f 22 26 27
f 22 27 23
f 23 27 28
f 23 28 24
f 24 28 29
f 24 29 25
f 25 29 26
f 30 31 32
f 30 32 33
f 30 33 34
f 30 34 35
f 30 35 31
f 31 35 36
f 31 36 32
f 32 36 37
f 32 37 33
f 33 37 34
f 38 39 40
f 38 40 41
f 38 41 42
f 38 42 43
f 38 43 39
f 39 43 44
f 39 44 40
f 40 44 45
f 40 45 41
f 41 45 42
f 46 47 48
f 46 48 49
f 46 49 50
f 46 50 51
f 46 51 47
f 47 51 52
f 47 52 48
f 48 52 53
f 48 53 49
f 49 53 50
f 54 55 56
f 54 56 57
f 54 57 58
f 54 58 59
f 54 59 55
f 55 59 60
f 55 60 56
f 56 60 61
f 56 61 57
f 57 61 58
f 62 63 64
f 62 64 65
f 62 65 66
f 62 66 67
f 62 67 63
f 63 67 68
f 63 68 64
f 64 68 69
f 64 69 65
f 65 69 66
f 70 71 72
f 70 72 73
f 70 73 74
f 70 74 75
f 70 75 71
f 71 75 76
f 71 76 72
f 72 76 77
f 72 77 73
f 73 77 74
