# RS2 Model 6671
# Vertices: 131
# Faces: 246

v 18 2 142
v 26 -11 140
v 17 -9 153
v 15 -13 142
v 14 -13 138
v 18 1 134
v 13 14 135
v 16 14 142
v 19 10 155
v 24 14 138
v 18 1 137
v 20 1 136
v 26 -6 137
v 42 1 143
v 33 -7 153
v 24 -9 153
v 19 2 160
v 6 -8 158
v 0 -12 154
v 0 -16 146
v 0 -15 142
v 0 -15 140
v 13 -11 134
v 12 -12 125
v 16 3 125
v 10 12 125
v 0 12 125
v 0 14 137
v 0 14 146
v 0 13 155
v 8 7 163
v 26 0 162
v 25 12 154
v 33 10 152
v 26 9 137
v 32 1 138
v 40 0 150
v 34 0 159
v 0 11 119
v -9 10 119
v -10 12 125
v -13 14 135
v -16 14 142
v -19 10 155
v -7 7 163
v 0 11 161
v 0 9 165
v 8 1 165
v 0 -6 160
v -6 -8 158
v -17 -9 153
v -15 -13 142
v -14 -13 138
v -13 -11 134
v 0 -16 135
v 3 -16 131
v 0 -18 128
v 0 -18 125
v 3 -17 122
v 12 -13 119
v 16 2 119
v 9 10 119
v 10 10 114
v 0 12 114
v -12 10 114
v -16 2 119
v -16 3 125
v -18 3 134
v -18 2 142
v -19 13 144
v -23 13 156
v -18 8 162
v -19 2 160
v -8 1 165
v -19 2 113
v -12 -11 113
v -12 -13 119
v -16 0 112
v -10 -11 112
v 0 -14 111
v 0 -15 112
v 0 -19 117
v -3 -17 122
v -12 -12 125
v -9 8 113
v 0 10 113
v 9 8 113
v 16 0 112
v 19 2 113
v 12 -11 112
v 13 -11 113
v 0 -26 120
v -23 -13 147
v -25 -10 139
v -18 1 137
v -19 5 137
v -25 11 139
v -24 15 146
v -32 17 158
v -23 9 165
v -23 2 171
v -15 2 168
v -16 -6 161
v -3 -15 131
v 0 -22 135
v -45 -18 160
v -36 -11 163
v -45 -8 153
v -34 -17 150
v -32 -15 156
v -32 -9 167
v -41 -9 177
v -41 -4 168
v -48 2 150
v -41 2 141
v -23 -12 155
v -23 -8 164
v -33 -3 170
v -42 1 169
v -41 6 168
v -45 11 153
v -34 16 150
v -32 1 138
v -26 -6 137
v -20 1 136
v -26 9 137
v -36 13 163
v -45 21 160
v -32 10 168
v -33 5 170
v -41 14 177

f 1 2 3
f 1 3 4
f 1 4 5
f 1 5 6
f 1 6 7
f 1 7 8
f 1 8 9
f 1 9 10
f 1 10 11
f 1 11 2
f 2 11 12
f 2 12 13
f 2 13 14
f 2 14 15
f 2 15 16
f 2 16 3
f 3 16 17
f 3 17 18
f 3 18 19
f 3 19 20
f 3 20 4
f 4 20 21
f 4 21 22
f 4 22 5
f 5 22 23
f 5 23 6
f 6 23 24
f 6 24 25
f 6 25 7
f 7 25 26
f 7 26 27
f 7 27 28
f 7 28 29
f 7 29 8
f 8 29 30
f 8 30 9
f 9 30 31
f 9 31 17
f 9 17 32
f 9 32 33
f 9 33 10
f 10 33 34
f 10 34 14
f 10 14 35
f 10 35 12
f 10 12 11
f 13 36 14
f 14 36 35
f 34 37 14
f 14 37 15
f 15 37 38
f 15 38 32
f 15 32 16
f 16 32 17
f 38 37 34
f 38 34 32
f 32 34 33
f 27 39 40
f 27 40 41
f 27 41 42
f 27 42 28
f 28 42 29
f 29 42 43
f 29 43 30
f 30 43 44
f 30 44 45
f 30 45 46
f 30 46 31
f 31 46 47
f 31 47 48
f 31 48 17
f 17 48 18
f 18 48 49
f 18 49 19
f 19 49 50
f 19 50 51
f 19 51 20
f 20 51 52
f 20 52 21
f 21 52 22
f 22 52 53
f 22 53 54
f 22 54 55
f 22 55 23
f 23 55 56
f 23 56 24
f 24 56 57
f 24 57 58
f 24 58 59
f 24 59 60
f 24 60 25
f 25 60 61
f 25 61 26
f 26 61 62
f 26 62 27
f 27 62 39
f 39 62 63
f 39 63 64
f 39 64 65
f 39 65 40
f 40 65 66
f 40 66 41
f 41 66 67
f 41 67 42
f 42 67 68
f 42 68 69
f 42 69 43
f 43 69 44
f 44 69 70
f 44 70 71
f 44 71 72
f 44 72 73
f 44 73 45
f 45 73 74
f 45 74 47
f 45 47 46
f 75 76 77
f 75 77 66
f 75 66 65
f 75 65 78
f 75 78 79
f 75 79 76
f 76 79 80
f 76 80 81
f 76 81 77
f 77 81 82
f 77 82 83
f 77 83 58
f 77 58 84
f 77 84 67
f 77 67 66
f 85 65 64
f 85 64 86
f 86 64 87
f 87 64 63
f 87 63 88
f 88 63 89
f 88 89 90
f 90 89 91
f 90 91 80
f 80 91 81
f 81 91 60
f 81 60 82
f 82 60 59
f 82 59 92
f 82 92 83
f 83 92 58
f 58 92 59
f 78 65 85
f 60 91 89
f 60 89 61
f 61 89 63
f 61 63 62
f 68 67 84
f 68 84 54
f 68 54 53
f 68 53 69
f 69 53 52
f 69 52 51
f 69 51 93
f 69 93 94
f 69 94 95
f 69 95 70
f 70 95 96
f 70 96 97
f 70 97 98
f 70 98 71
f 71 98 99
f 71 99 100
f 71 100 72
f 72 100 101
f 72 101 102
f 72 102 73
f 73 102 103
f 73 103 51
f 73 51 50
f 73 50 74
f 74 50 49
f 84 104 55
f 84 55 54
f 104 84 58
f 104 58 57
f 104 57 105
f 104 105 55
f 55 105 56
f 56 105 57
f 106 107 108
f 106 108 109
f 106 109 110
f 106 110 107
f 107 110 111
f 107 111 112
f 107 112 113
f 107 113 108
f 108 113 114
f 108 114 115
f 108 115 109
f 109 115 94
f 109 94 93
f 109 93 116
f 109 116 110
f 110 116 117
f 110 117 111
f 111 117 101
f 111 101 118
f 111 118 112
f 112 118 113
f 113 118 119
f 113 119 114
f 114 119 120
f 114 120 121
f 114 121 115
f 115 121 122
f 115 122 97
f 115 97 123
f 115 123 94
f 94 123 124
f 94 124 95
f 95 124 125
f 95 125 96
f 96 125 126
f 96 126 97
f 97 126 123
f 121 127 128
f 121 128 122
f 122 128 99
f 122 99 98
f 122 98 97
f 127 99 128
f 99 127 129
f 99 129 100
f 100 129 101
f 101 129 130
f 101 130 119
f 101 119 118
f 120 130 131
f 120 131 127
f 120 127 121
f 129 127 131
f 129 131 130
f 51 116 93
f 116 51 103
f 116 103 117
f 117 103 101
f 101 103 102
f 119 130 120
