# RS2 Model 6695
# Vertices: 76
# Faces: 109

v 0 11 118
v -10 10 118
v 0 12 125
v 10 10 118
v 10 9 112
v 0 11 112
v -10 9 112
v -17 1 118
v -10 12 125
v -13 14 135
v 0 14 137
v 13 14 135
v 10 12 125
v 17 2 118
v 17 0 111
v 13 -12 111
v 12 -16 116
v 0 -15 110
v 0 -20 116
v -11 -12 111
v -12 -16 116
v -17 0 111
v 0 9 165
v -19 10 155
v -19 2 160
v -8 1 165
v -6 -8 158
v 0 -6 160
v 0 -12 154
v 6 -8 158
v 8 1 165
v 19 2 160
v 19 10 155
v 0 13 155
v -16 14 142
v -18 2 142
v -18 3 134
v -15 -13 142
v -17 -9 153
v 0 -17 142
v 0 -24 124
v 12 -20 124
v 0 -21 135
v -12 -20 124
v -16 3 125
v 0 14 146
v 16 14 142
v 18 1 134
v 16 3 125
v 13 -18 134
v -13 -18 134
v 18 2 142
v 15 -13 142
v 17 -9 153
v -15 1 119
v -10 -11 112
v -9 -8 119
v 0 -14 111
v 0 -11 119
v 10 -8 119
v 12 -11 112
v 14 1 119
v 16 0 112
v 8 8 120
v 9 8 113
v 0 9 120
v 0 10 113
v -9 8 113
v -9 8 120
v -16 0 112
v 0 -6 129
v 0 5 129
v 0 -6 115
v 7 0 137
v -7 0 137
v 7 -2 122

f 1 2 3
f 1 3 4
f 1 4 5
f 1 5 6
f 1 6 7
f 1 7 2
f 2 7 8
f 2 8 9
f 2 9 3
f 3 9 10
f 3 10 11
f 3 11 12
f 3 12 13
f 3 13 4
f 4 13 14
f 4 14 5
f 5 14 15
f 15 14 16
f 16 14 17
f 16 17 18
f 18 17 19
f 18 19 20
f 20 19 21
f 20 21 22
f 22 21 8
f 22 8 7
f 23 24 25
f 23 25 26
f 26 25 27
f 26 27 28
f 28 27 29
f 28 29 30
f 28 30 31
f 31 30 32
f 31 32 23
f 23 32 33
f 23 33 34
f 23 34 24
f 24 34 35
f 24 35 36
f 36 35 37
f 36 37 38
f 36 38 39
f 39 38 40
f 39 40 29
f 39 29 27
f 39 27 25
f 41 21 19
f 41 19 17
f 41 17 42
f 41 42 43
f 41 43 44
f 41 44 21
f 21 44 45
f 21 45 8
f 8 45 9
f 9 45 10
f 10 45 37
f 10 37 35
f 10 35 11
f 11 35 46
f 11 46 47
f 11 47 12
f 12 47 48
f 12 48 49
f 12 49 13
f 13 49 14
f 14 49 17
f 17 49 42
f 42 49 48
f 42 48 50
f 42 50 43
f 43 50 40
f 43 40 51
f 43 51 44
f 44 51 37
f 44 37 45
f 34 46 35
f 46 34 47
f 47 34 33
f 47 33 52
f 47 52 48
f 48 52 53
f 48 53 50
f 50 53 40
f 40 53 54
f 40 54 29
f 29 54 30
f 30 54 32
f 40 38 51
f 51 38 37
f 54 53 52
f 55 56 57
f 57 56 58
f 57 58 59
f 59 58 60
f 60 58 61
f 60 61 62
f 62 61 63
f 62 63 64
f 64 63 65
f 64 65 66
f 66 65 67
f 66 67 68
f 66 68 69
f 69 68 70
f 69 70 55
f 55 70 56
f 71 72 73
