# RS2 Model 6751
# Vertices: 138
# Faces: 196

v 44 218 96
v 60 218 96
v 60 218 80
v 44 218 80
v 44 90 176
v 44 90 192
v 60 90 192
v 60 90 176
v 60 -74 300
v 44 -74 300
v 60 -74 316
v 60 -162 316
v 60 -162 300
v 44 -142 300
v 44 -74 316
v 44 -142 316
v -48 -142 316
v -48 -162 316
v -48 -162 300
v -48 -142 300
v 64 122 72
v 64 122 96
v 64 90 96
v 64 90 72
v -48 90 72
v -48 90 96
v -48 122 72
v -48 122 96
v -48 154 72
v -48 154 48
v -48 122 48
v 64 122 48
v 64 154 72
v 64 154 48
v -48 186 48
v -48 186 24
v -48 154 24
v 64 154 24
v 64 186 48
v 64 186 24
v -48 218 24
v -48 218 0
v -48 186 0
v 64 186 0
v 64 218 24
v 64 218 0
v 56 198 24
v 56 206 24
v 56 206 92
v 56 198 96
v 48 198 24
v 48 198 96
v 48 206 24
v 48 206 92
v 56 102 96
v 56 110 96
v 56 110 164
v 56 102 168
v 48 102 96
v 48 102 168
v 48 110 96
v 48 110 164
v -48 90 120
v 64 90 120
v 64 58 96
v 64 58 120
v -48 58 96
v -48 58 120
v -48 -38 192
v -48 -6 192
v -48 -6 168
v -48 -38 168
v 64 -38 192
v 64 -6 192
v 64 -6 168
v -48 26 168
v -48 26 144
v -48 -6 144
v 64 -6 144
v 64 26 168
v 64 26 144
v -48 58 144
v -48 26 120
v 64 26 120
v 64 58 144
v 64 -38 168
v 56 6 168
v 56 14 168
v 56 14 236
v 56 6 240
v 48 6 168
v 48 6 240
v 48 14 168
v 48 14 236
v 56 -154 240
v 56 -146 240
v 56 -146 300
v 56 -154 300
v 48 -154 240
v 48 -154 300
v 48 -146 240
v 48 -146 300
v 60 -158 0
v 60 -142 0
v 60 -142 216
v 60 -158 216
v 44 -158 0
v 44 -158 216
v 44 -142 0
v 44 -142 216
v -44 -158 0
v -28 -158 0
v -28 -158 216
v -44 -158 216
v -44 -142 0
v -44 -142 216
v -28 -142 0
v -28 -142 216
v 56 -90 240
v 56 -82 240
v 56 -82 300
v 56 -90 300
v 48 -90 240
v 48 -90 300
v 48 -82 240
v 48 -82 300
v -48 -70 216
v -48 -38 216
v -48 -70 192
v 64 -70 216
v 64 -38 216
v 64 -70 192
v -48 -166 240
v -48 -70 240
v -48 -166 216
v 64 -166 240
v 64 -70 240
v 64 -166 216

f 1 2 3
f 1 3 4
f 1 4 5
f 1 5 6
f 1 6 2
f 2 6 7
f 2 7 3
f 3 7 8
f 3 8 4
f 4 8 5
f 5 8 9
f 5 9 10
f 5 10 6
f 5 6 8
f 5 8 7
f 5 7 6
f 6 7 8
f 8 7 11
f 8 11 9
f 9 11 12
f 9 12 13
f 9 13 10
f 10 13 14
f 10 14 15
f 10 15 6
f 6 15 7
f 7 15 11
f 11 15 16
f 11 16 12
f 12 16 17
f 12 17 18
f 12 18 13
f 13 18 19
f 13 19 14
f 14 19 20
f 14 20 16
f 14 16 15
f 21 22 23
f 21 23 24
f 24 23 25
f 25 23 26
f 25 26 27
f 27 26 28
f 27 28 22
f 27 22 21
f 27 21 29
f 27 29 30
f 27 30 31
f 27 31 21
f 21 31 32
f 21 32 33
f 21 33 29
f 29 33 34
f 29 34 30
f 30 34 35
f 30 35 36
f 30 36 37
f 30 37 34
f 34 37 38
f 34 38 39
f 34 39 35
f 35 39 40
f 35 40 36
f 36 40 41
f 36 41 42
f 36 42 43
f 36 43 40
f 40 43 44
f 40 44 45
f 40 45 41
f 41 45 46
f 41 46 42
f 33 32 34
f 39 38 40
f 45 44 46
f 47 48 49
f 47 49 50
f 47 50 51
f 51 50 52
f 51 52 53
f 53 52 54
f 53 54 48
f 48 54 49
f 55 56 57
f 55 57 58
f 55 58 59
f 59 58 60
f 59 60 61
f 61 60 62
f 61 62 56
f 56 62 57
f 23 22 28
f 23 28 26
f 23 26 63
f 23 63 64
f 23 64 65
f 65 64 66
f 65 66 67
f 67 66 68
f 67 68 26
f 26 68 63
f 63 68 66
f 63 66 64
f 69 70 71
f 69 71 72
f 69 72 73
f 69 73 70
f 70 73 74
f 70 74 75
f 70 75 71
f 71 75 76
f 71 76 77
f 71 77 78
f 71 78 75
f 75 78 79
f 75 79 80
f 75 80 76
f 76 80 81
f 76 81 77
f 77 81 82
f 77 82 68
f 77 68 83
f 77 83 81
f 81 83 84
f 81 84 85
f 81 85 82
f 82 85 66
f 82 66 68
f 74 73 86
f 74 86 75
f 87 88 89
f 87 89 90
f 87 90 91
f 91 90 92
f 91 92 93
f 93 92 94
f 93 94 88
f 88 94 89
f 73 72 86
f 80 79 81
f 85 84 66
f 95 96 97
f 95 97 98
f 95 98 99
f 99 98 100
f 99 100 101
f 101 100 102
f 101 102 96
f 96 102 97
f 103 104 105
f 103 105 106
f 103 106 107
f 107 106 108
f 107 108 109
f 109 108 110
f 109 110 104
f 104 110 105
f 111 112 113
f 111 113 114
f 111 114 115
f 115 114 116
f 115 116 117
f 117 116 118
f 117 118 112
f 112 118 113
f 20 17 16
f 17 20 19
f 17 19 18
f 119 120 121
f 119 121 122
f 119 122 123
f 123 122 124
f 123 124 125
f 125 124 126
f 125 126 120
f 120 126 121
f 127 128 69
f 127 69 129
f 127 129 130
f 127 130 128
f 128 130 131
f 128 131 73
f 128 73 69
f 131 130 132
f 131 132 73
f 130 129 132
f 133 134 127
f 133 127 135
f 133 135 136
f 133 136 134
f 134 136 137
f 134 137 130
f 134 130 127
f 137 136 138
f 137 138 130
f 136 135 138
