# RS2 Model 6788
# Vertices: 456
# Faces: 496

v -37 -5 105
v -37 -11 99
v -37 -22 110
v -37 -15 117
v -29 -3 107
v -29 -12 118
v -22 -5 105
v -22 -15 117
v -17 -14 113
v -17 -8 105
v -22 -11 99
v -17 -11 102
v -22 -22 110
v -42 -18 109
v -42 -11 102
v -42 -8 105
v -42 -14 113
v -17 -18 109
v 18 -18 109
v 18 -14 113
v 18 -8 105
v 18 -11 102
v 23 -11 99
v 23 -22 110
v 23 -15 117
v 23 -5 105
v -64 -8 105
v -64 -14 113
v -64 -18 109
v -64 -11 102
v 64 -14 113
v 64 -8 105
v 43 -8 105
v 43 -14 113
v 64 -18 109
v 43 -18 109
v 64 -11 102
v 43 -11 102
v 38 -11 99
v 38 -5 105
v 38 -15 117
v 38 -22 110
v 30 -12 118
v 30 -3 107
v -47 -42 39
v -56 -35 36
v -60 -36 17
v -47 -48 19
v -44 -42 39
v -32 -35 36
v -41 -19 34
v -49 -19 34
v -51 -12 19
v -43 -48 19
v -29 -36 17
v -39 -12 19
v -55 -38 6
v -50 -46 0
v -40 -46 0
v -33 -38 6
v -50 -44 17
v -47 -46 20
v -52 -44 24
v -55 -43 22
v -55 -43 18
v -39 -44 24
v -44 -46 20
v -41 -44 17
v -36 -43 22
v -36 -43 18
v -45 -50 18
v -47 -49 12
v -43 -49 12
v -44 -48 0
v -45 -48 5
v -46 -48 0
v -41 -48 0
v -42 -48 5
v -43 -48 0
v -47 -48 0
v -48 -48 5
v -49 -48 0
v -3 -16 33
v -12 -12 28
v -16 -23 11
v -3 -30 19
v 0 -16 33
v 12 -12 28
v 3 0 18
v -5 0 18
v -7 -3 2
v 1 -30 19
v 15 -23 11
v 5 -3 2
v -11 -31 4
v -6 -39 1
v 4 -39 1
v 11 -31 4
v -6 -30 14
v -3 -30 17
v -8 -26 20
v -11 -27 18
v -11 -29 14
v 5 -26 20
v 0 -30 17
v 3 -30 14
v 8 -27 18
v 8 -29 14
v -1 -33 17
v -3 -36 11
v 1 -36 11
v 0 -42 1
v -1 -39 5
v -2 -42 1
v 3 -42 1
v 2 -39 5
v 1 -42 1
v -3 -42 1
v -4 -39 5
v -5 -42 1
v -15 45 10
v -11 34 27
v -2 38 32
v -2 52 18
v -10 53 3
v -5 61 0
v 2 52 18
v 5 61 0
v 16 45 10
v 12 53 3
v 1 38 32
v 13 34 27
v 4 22 17
v 6 25 1
v -4 22 17
v -6 25 1
v -7 48 19
v -2 52 16
v -5 52 13
v -10 49 17
v -10 51 13
v 4 52 13
v 1 52 16
v 6 48 19
v 9 49 17
v 9 51 13
v 2 58 10
v -2 58 10
v 0 55 16
v -1 64 0
v 0 61 4
v 1 64 0
v 2 64 0
v 3 61 4
v 4 64 0
v -4 64 0
v -3 61 4
v -2 64 0
v -57 6 18
v -54 8 37
v -53 19 40
v -57 23 20
v -55 11 7
v -58 20 1
v -55 26 20
v -51 27 1
v -36 29 18
v -40 27 7
v -51 22 40
v -38 26 37
v -32 8 35
v -25 5 20
v -37 2 35
v -33 -4 20
v -58 18 25
v -56 23 21
v -57 19 18
v -59 15 23
v -59 15 19
v -51 26 18
v -54 25 21
v -49 27 25
v -47 29 23
v -47 29 19
v -55 27 13
v -58 24 13
v -57 26 19
v -56 24 1
v -55 25 6
v -55 25 1
v -54 26 1
v -53 27 6
v -53 27 1
v -58 22 1
v -57 22 6
v -57 23 1
v 64 -36 16
v 60 -35 35
v 51 -42 38
v 51 -48 18
v 59 -38 5
v 54 -46 -1
v 47 -48 18
v 44 -46 -1
v 33 -36 16
v 37 -38 5
v 48 -42 38
v 36 -35 35
v 45 -19 33
v 43 -12 18
v 53 -19 33
v 55 -12 18
v 56 -44 23
v 51 -46 19
v 54 -44 16
v 59 -43 21
v 59 -43 17
v 45 -44 16
v 48 -46 19
v 43 -44 23
v 40 -43 21
v 40 -43 17
v 47 -49 11
v 51 -49 11
v 49 -50 17
v 50 -48 -1
v 49 -48 4
v 48 -48 -1
v 47 -48 -1
v 46 -48 4
v 45 -48 -1
v 53 -48 -1
v 52 -48 4
v 51 -48 -1
v 57 19 39
v 58 8 36
v 61 6 17
v 61 23 19
v 55 22 39
v 42 26 36
v 36 8 34
v 41 2 34
v 37 -4 19
v 59 26 19
v 40 29 17
v 29 5 19
v 59 11 6
v 62 20 0
v 55 27 0
v 44 27 6
v 61 19 17
v 60 23 20
v 62 18 24
v 63 15 22
v 63 15 18
v 53 27 24
v 58 25 20
v 55 26 17
v 51 29 22
v 51 29 18
v 62 27 18
v 63 25 12
v 60 28 12
v 60 26 0
v 60 26 5
v 61 25 0
v 58 28 0
v 58 28 5
v 59 27 0
v 62 24 0
v 62 23 5
v 63 23 0
v 19 14 27
v 17 10 46
v 24 0 49
v 30 0 29
v 20 9 16
v 28 3 10
v 29 -4 29
v 27 -7 10
v 16 -17 27
v 19 -13 16
v 24 -3 49
v 16 -14 46
v 0 -4 44
v -7 -5 29
v 1 4 44
v -6 7 29
v 27 5 34
v 29 0 30
v 27 3 27
v 26 8 32
v 26 8 28
v 26 -6 27
v 29 -3 30
v 26 -8 34
v 25 -11 32
v 25 -11 28
v 31 -4 22
v 32 0 22
v 33 -2 28
v 31 -1 10
v 31 -2 15
v 31 -3 10
v 30 -4 10
v 30 -5 15
v 30 -6 10
v 31 2 10
v 31 1 15
v 31 0 10
v -14 -9 39
v -13 -4 58
v -22 3 61
v -28 2 41
v -16 -4 28
v -25 -1 22
v -28 6 41
v -27 9 22
v -19 22 39
v -21 17 28
v -23 6 61
v -18 19 58
v 0 14 56
v 6 16 41
v 1 6 56
v 9 5 41
v -23 -2 46
v -26 2 42
v -23 -1 39
v -21 -5 44
v -21 -5 40
v -25 8 39
v -27 5 42
v -25 10 46
v -25 13 44
v -25 13 40
v -29 5 34
v -29 1 34
v -31 3 40
v -28 2 22
v -29 3 27
v -29 4 22
v -28 5 22
v -28 6 27
v -29 7 22
v -28 -1 22
v -28 0 27
v -28 1 22
v 23 -31 50
v 25 -35 51
v 26 -24 93
v 24 -21 92
v 27 -28 49
v 27 -40 0
v 19 -48 0
v 25 -63 0
v 33 -35 51
v 31 -26 94
v 34 -28 103
v 25 -28 103
v 22 -17 96
v 28 -19 92
v 33 -31 50
v 38 -47 0
v 30 -22 93
v 33 -18 97
v 31 -16 104
v 31 -19 107
v 26 -20 108
v 24 -16 104
v 27 -12 94
v 27 -13 101
v 38 -59 0
v -27 13 74
v -24 -11 108
v -29 -14 105
v -33 10 71
v -21 36 25
v -25 41 30
v -31 17 77
v -27 -9 110
v -37 16 76
v -33 -10 109
v -41 12 73
v -36 -12 107
v -29 32 22
v -41 34 24
v -28 35 0
v -14 52 0
v -20 64 0
v -41 64 0
v -36 45 31
v -48 48 0
v -23 -21 92
v -25 -24 93
v -24 -35 51
v -22 -31 50
v -27 -19 92
v -26 -12 94
v -21 -17 96
v -24 -28 103
v -30 -26 94
v -32 -35 51
v -37 -59 0
v -24 -63 0
v -18 -48 0
v -26 -28 49
v -29 -22 93
v -32 -18 97
v -30 -16 104
v -26 -13 101
v -23 -16 104
v -25 -20 108
v -33 -28 103
v -32 -31 50
v -37 -47 0
v -26 -40 0
v -30 -19 107
v -27 -28 139
v -31 -28 139
v -28 -50 150
v -25 -31 135
v -27 -13 116
v -33 -15 116
v -34 -20 111
v -32 -32 136
v -24 -20 111
v 29 -50 150
v 32 -28 139
v 28 -28 139
v 26 -31 135
v 33 -32 136
v 35 -20 111
v 34 -15 116
v 28 -13 116
v 25 -20 111
v 30 -14 105
v 25 -11 108
v 28 13 74
v 34 10 71
v 37 -12 107
v 42 12 73
v 34 -10 109
v 38 16 76
v 28 -9 110
v 32 17 77
v 26 41 30
v 22 36 25
v 30 32 22
v 42 34 24
v 37 45 31
v 42 64 0
v 21 64 0
v 15 52 0
v 29 35 0
v 49 48 0

f 1 2 3
f 1 3 4
f 1 4 5
f 5 4 6
f 5 6 7
f 7 6 8
f 7 8 9
f 7 9 10
f 7 10 11
f 11 10 12
f 11 12 13
f 11 13 2
f 2 13 3
f 2 3 14
f 2 14 15
f 2 15 1
f 1 15 16
f 1 16 4
f 4 16 17
f 4 17 3
f 4 3 6
f 6 3 8
f 8 3 13
f 8 13 18
f 8 18 9
f 9 18 19
f 9 19 20
f 9 20 10
f 10 20 21
f 10 21 12
f 12 21 22
f 12 22 18
f 12 18 13
f 22 19 18
f 19 22 23
f 19 23 24
f 19 24 20
f 20 24 25
f 20 25 21
f 21 25 26
f 21 26 22
f 22 26 23
f 17 16 27
f 17 27 28
f 17 28 14
f 17 14 3
f 14 28 29
f 14 29 15
f 15 29 30
f 15 30 16
f 16 30 27
f 31 32 33
f 31 33 34
f 31 34 35
f 35 34 36
f 35 36 37
f 37 36 38
f 37 38 32
f 32 38 33
f 33 38 39
f 33 39 40
f 33 40 34
f 34 40 41
f 34 41 36
f 36 41 42
f 36 42 38
f 38 42 39
f 39 42 23
f 23 42 24
f 24 42 41
f 24 41 25
f 25 41 43
f 25 43 44
f 25 44 26
f 45 46 47
f 45 47 48
f 45 48 49
f 45 49 50
f 45 50 51
f 45 51 52
f 45 52 46
f 46 52 53
f 46 53 47
f 49 48 54
f 49 54 50
f 50 54 55
f 50 55 51
f 51 55 56
f 51 56 52
f 52 56 53
f 48 47 57
f 48 57 58
f 48 58 54
f 54 58 59
f 54 59 55
f 55 59 60
f 61 62 63
f 61 63 64
f 61 64 65
f 66 67 68
f 66 68 69
f 69 68 70
f 71 72 73
f 74 75 76
f 77 78 79
f 80 81 82
f 83 84 85
f 83 85 86
f 83 86 87
f 83 87 88
f 83 88 89
f 83 89 90
f 83 90 84
f 84 90 91
f 84 91 85
f 87 86 92
f 87 92 88
f 88 92 93
f 88 93 89
f 89 93 94
f 89 94 90
f 90 94 91
f 86 85 95
f 86 95 96
f 86 96 92
f 92 96 97
f 92 97 93
f 93 97 98
f 99 100 101
f 99 101 102
f 99 102 103
f 104 105 106
f 104 106 107
f 107 106 108
f 109 110 111
f 112 113 114
f 115 116 117
f 118 119 120
f 121 122 123
f 121 123 124
f 121 124 125
f 125 124 126
f 126 124 127
f 126 127 128
f 128 127 129
f 128 129 130
f 124 123 131
f 124 131 127
f 127 131 132
f 127 132 129
f 129 132 133
f 129 133 134
f 134 133 135
f 134 135 136
f 136 135 122
f 136 122 121
f 132 131 123
f 132 123 133
f 133 123 135
f 135 123 122
f 137 138 139
f 137 139 140
f 140 139 141
f 142 143 144
f 142 144 145
f 142 145 146
f 147 148 149
f 150 151 152
f 153 154 155
f 156 157 158
f 159 160 161
f 159 161 162
f 159 162 163
f 163 162 164
f 164 162 165
f 164 165 166
f 166 165 167
f 166 167 168
f 162 161 169
f 162 169 165
f 165 169 170
f 165 170 167
f 167 170 171
f 167 171 172
f 172 171 173
f 172 173 174
f 174 173 160
f 174 160 159
f 170 169 161
f 170 161 171
f 171 161 173
f 173 161 160
f 175 176 177
f 175 177 178
f 178 177 179
f 180 181 182
f 180 182 183
f 180 183 184
f 185 186 187
f 188 189 190
f 191 192 193
f 194 195 196
f 197 198 199
f 197 199 200
f 197 200 201
f 201 200 202
f 202 200 203
f 202 203 204
f 204 203 205
f 204 205 206
f 200 199 207
f 200 207 203
f 203 207 208
f 203 208 205
f 205 208 209
f 205 209 210
f 210 209 211
f 210 211 212
f 212 211 198
f 212 198 197
f 208 207 199
f 208 199 209
f 209 199 211
f 211 199 198
f 213 214 215
f 213 215 216
f 216 215 217
f 218 219 220
f 218 220 221
f 218 221 222
f 223 224 225
f 226 227 228
f 229 230 231
f 232 233 234
f 235 236 237
f 235 237 238
f 235 238 239
f 235 239 240
f 235 240 241
f 235 241 242
f 235 242 236
f 236 242 243
f 236 243 237
f 239 238 244
f 239 244 240
f 240 244 245
f 240 245 241
f 241 245 246
f 241 246 242
f 242 246 243
f 238 237 247
f 238 247 248
f 238 248 244
f 244 248 249
f 244 249 245
f 245 249 250
f 251 252 253
f 251 253 254
f 251 254 255
f 256 257 258
f 256 258 259
f 259 258 260
f 261 262 263
f 264 265 266
f 267 268 269
f 270 271 272
f 273 274 275
f 273 275 276
f 273 276 277
f 277 276 278
f 278 276 279
f 278 279 280
f 280 279 281
f 280 281 282
f 276 275 283
f 276 283 279
f 279 283 284
f 279 284 281
f 281 284 285
f 281 285 286
f 286 285 287
f 286 287 288
f 288 287 274
f 288 274 273
f 284 283 275
f 284 275 285
f 285 275 287
f 287 275 274
f 289 290 291
f 289 291 292
f 292 291 293
f 294 295 296
f 294 296 297
f 294 297 298
f 299 300 301
f 302 303 304
f 305 306 307
f 308 309 310
f 311 312 313
f 311 313 314
f 311 314 315
f 315 314 316
f 316 314 317
f 316 317 318
f 318 317 319
f 318 319 320
f 314 313 321
f 314 321 317
f 317 321 322
f 317 322 319
f 319 322 323
f 319 323 324
f 324 323 325
f 324 325 326
f 326 325 312
f 326 312 311
f 322 321 313
f 322 313 323
f 323 313 325
f 325 313 312
f 327 328 329
f 327 329 330
f 330 329 331
f 332 333 334
f 332 334 335
f 332 335 336
f 337 338 339
f 340 341 342
f 343 344 345
f 346 347 348
f 349 350 351
f 349 351 352
f 349 352 353
f 349 353 354
f 349 354 355
f 349 355 350
f 350 355 356
f 350 356 357
f 350 357 358
f 350 358 351
f 351 358 359
f 351 359 360
f 351 360 352
f 352 360 361
f 352 361 362
f 352 362 353
f 353 362 363
f 353 363 364
f 353 364 354
f 357 363 365
f 357 365 358
f 358 365 366
f 358 366 359
f 359 366 367
f 359 367 368
f 359 368 360
f 360 368 369
f 360 369 361
f 361 369 370
f 361 370 371
f 361 371 362
f 362 371 365
f 362 365 363
f 366 371 372
f 366 372 367
f 371 370 372
f 365 371 366
f 356 373 357
f 357 373 363
f 363 373 364
f 374 375 376
f 374 376 377
f 374 377 378
f 374 378 379
f 374 379 380
f 374 380 375
f 375 380 381
f 381 380 382
f 381 382 383
f 383 382 384
f 383 384 385
f 385 384 377
f 385 377 376
f 386 378 377
f 386 377 384
f 386 384 387
f 386 387 388
f 386 388 389
f 386 389 378
f 378 389 390
f 378 390 379
f 379 390 391
f 379 391 392
f 379 392 380
f 380 392 382
f 382 392 387
f 382 387 384
f 393 387 392
f 393 392 391
f 393 388 387
f 394 395 396
f 394 396 397
f 394 397 398
f 394 398 399
f 394 399 400
f 394 400 395
f 395 400 401
f 395 401 402
f 395 402 403
f 395 403 396
f 396 403 404
f 396 404 405
f 396 405 397
f 397 405 406
f 397 406 407
f 397 407 398
f 398 407 408
f 398 408 409
f 398 409 399
f 399 409 410
f 399 410 411
f 399 411 400
f 400 411 412
f 400 412 401
f 401 412 413
f 401 413 414
f 401 414 402
f 402 414 408
f 402 408 415
f 402 415 403
f 403 415 416
f 403 416 404
f 408 407 415
f 415 407 417
f 415 417 416
f 413 418 414
f 414 418 409
f 414 409 408
f 418 410 409
f 407 406 417
f 419 420 421
f 419 421 422
f 419 422 423
f 419 423 424
f 419 424 420
f 420 424 425
f 420 425 426
f 420 426 421
f 421 426 422
f 422 426 427
f 422 427 423
f 425 427 426
f 428 429 430
f 428 430 431
f 428 431 432
f 428 432 429
f 429 432 433
f 429 433 434
f 429 434 430
f 430 434 435
f 430 435 431
f 431 435 436
f 431 436 432
f 432 436 433
f 437 438 439
f 437 439 440
f 437 440 441
f 441 440 442
f 441 442 443
f 443 442 444
f 443 444 445
f 445 444 446
f 445 446 438
f 438 446 439
f 439 446 447
f 439 447 448
f 439 448 440
f 440 448 449
f 440 449 442
f 442 449 450
f 442 450 444
f 444 450 451
f 444 451 446
f 446 451 447
f 447 451 452
f 447 452 453
f 447 453 448
f 448 453 454
f 448 454 449
f 449 454 455
f 449 455 450
f 450 455 456
f 450 456 451
f 451 456 452
f 43 41 40
f 43 40 44
