# RS2 Model 6801
# Vertices: 186
# Faces: 160

v -30 11 28
v -36 17 24
v -42 12 11
v -34 1 17
v -29 11 28
v -17 11 24
v -22 23 17
v -27 25 17
v -29 25 3
v -32 0 17
v -18 3 11
v -20 21 3
v -40 5 4
v -39 -4 4
v -31 -7 4
v -23 -1 4
v -4 46 33
v -13 50 28
v -17 39 11
v -4 32 19
v -1 46 33
v 11 50 28
v 2 62 18
v -6 62 18
v -8 59 2
v 0 32 19
v 14 39 11
v 4 59 2
v -12 31 4
v -7 23 1
v 3 23 1
v 10 31 4
v -7 33 14
v -4 33 17
v -9 37 20
v -12 36 18
v -12 34 14
v 4 36 20
v -1 32 17
v 2 32 14
v 7 35 18
v 7 33 14
v -2 30 17
v -4 27 11
v 0 27 11
v -1 21 1
v -2 24 5
v -3 21 1
v 2 21 1
v 1 24 5
v 0 21 1
v -4 21 1
v -5 24 5
v -6 21 1
v -36 31 7
v -26 34 23
v -33 35 32
v -48 31 18
v -47 33 1
v -57 30 1
v -50 33 20
v -62 37 5
v -54 51 20
v -59 47 10
v -35 37 33
v -40 49 33
v -28 55 22
v -34 62 8
v -23 50 18
v -27 54 2
v -39 30 18
v -46 32 17
v -44 31 13
v -38 29 14
v -40 29 11
v -52 38 18
v -49 35 20
v -48 40 24
v -51 42 24
v -54 42 20
v -54 32 14
v -52 29 12
v -50 30 18
v -59 31 3
v -57 32 7
v -60 32 3
v -61 33 4
v -58 34 8
v -61 34 4
v -57 29 1
v -54 30 5
v -58 30 2
v 38 -11 6
v 35 -4 18
v 30 -9 23
v 32 -21 13
v 35 -18 -1
v 33 -27 1
v 29 -22 14
v 26 -28 2
v 15 -18 10
v 19 -24 3
v 28 -10 24
v 17 -10 21
v 19 1 12
v 15 -2 1
v 24 3 11
v 24 1 0
v 34 -15 14
v 31 -19 13
v 33 -18 9
v 36 -14 11
v 36 -16 8
v 26 -20 11
v 29 -20 13
v 24 -19 16
v 22 -20 14
v 22 -21 11
v 29 -25 9
v 32 -24 8
v 31 -23 12
v 31 -27 1
v 30 -26 4
v 29 -28 2
v 28 -28 5
v 27 -29 2
v 33 -26 4
v 32 -27 1
v 45 44 34
v 34 44 31
v 30 33 15
v 46 29 20
v 48 45 34
v 56 52 26
v 41 61 18
v 33 59 20
v 30 56 4
v 51 29 20
v 59 44 9
v 41 60 1
v 37 28 5
v 43 20 3
v 53 23 1
v 56 35 1
v 43 29 16
v 47 31 19
v 42 33 22
v 38 32 21
v 38 30 17
v 53 37 20
v 49 31 19
v 51 32 15
v 56 37 18
v 56 35 14
v 49 27 19
v 47 23 14
v 52 25 13
v 49 21 2
v 49 24 7
v 48 21 3
v 51 22 2
v 51 25 6
v 50 21 2
v 46 21 3
v 45 24 7
v 45 21 3
v -38 2 13
v -35 1 16
v -38 6 18
v -40 7 16
v -41 6 14
v -28 1 18
v -34 0 16
v -31 -1 13
v -26 1 16
v -27 0 14
v -36 -1 17
v -36 -3 12
v -35 -4 12
v -36 -5 4
v -36 -4 6
v -37 -5 4
v -33 -6 4
v -34 -5 6
v -35 -6 4
v -37 -4 6

f 1 2 3
f 1 3 4
f 1 4 5
f 1 5 6
f 1 6 7
f 1 7 8
f 1 8 2
f 2 8 9
f 2 9 3
f 5 4 10
f 5 10 6
f 6 10 11
f 6 11 7
f 7 11 12
f 7 12 8
f 8 12 9
f 4 3 13
f 4 13 14
f 4 14 10
f 10 14 15
f 10 15 11
f 11 15 16
f 17 18 19
f 17 19 20
f 17 20 21
f 17 21 22
f 17 22 23
f 17 23 24
f 17 24 18
f 18 24 25
f 18 25 19
f 21 20 26
f 21 26 22
f 22 26 27
f 22 27 23
f 23 27 28
f 23 28 24
f 24 28 25
f 20 19 29
f 20 29 30
f 20 30 26
f 26 30 31
f 26 31 27
f 27 31 32
f 33 34 35
f 33 35 36
f 33 36 37
f 38 39 40
f 38 40 41
f 41 40 42
f 43 44 45
f 46 47 48
f 49 50 51
f 52 53 54
f 55 56 57
f 55 57 58
f 55 58 59
f 59 58 60
f 60 58 61
f 60 61 62
f 62 61 63
f 62 63 64
f 58 57 65
f 58 65 61
f 61 65 66
f 61 66 63
f 63 66 67
f 63 67 68
f 68 67 69
f 68 69 70
f 70 69 56
f 70 56 55
f 66 65 57
f 66 57 67
f 67 57 69
f 69 57 56
f 71 72 73
f 71 73 74
f 74 73 75
f 76 77 78
f 76 78 79
f 76 79 80
f 81 82 83
f 84 85 86
f 87 88 89
f 90 91 92
f 93 94 95
f 93 95 96
f 93 96 97
f 97 96 98
f 98 96 99
f 98 99 100
f 100 99 101
f 100 101 102
f 96 95 103
f 96 103 99
f 99 103 104
f 99 104 101
f 101 104 105
f 101 105 106
f 106 105 107
f 106 107 108
f 108 107 94
f 108 94 93
f 104 103 95
f 104 95 105
f 105 95 107
f 107 95 94
f 109 110 111
f 109 111 112
f 112 111 113
f 114 115 116
f 114 116 117
f 114 117 118
f 119 120 121
f 122 123 124
f 124 125 126
f 98 127 128
f 129 130 131
f 129 131 132
f 129 132 133
f 129 133 134
f 129 134 135
f 129 135 136
f 129 136 130
f 130 136 137
f 130 137 131
f 133 132 138
f 133 138 134
f 134 138 139
f 134 139 135
f 135 139 140
f 135 140 136
f 136 140 137
f 132 131 141
f 132 141 142
f 132 142 138
f 138 142 143
f 138 143 139
f 139 143 144
f 145 146 147
f 145 147 148
f 145 148 149
f 150 151 152
f 150 152 153
f 153 152 154
f 155 156 157
f 158 159 160
f 161 162 163
f 164 165 166
f 167 168 169
f 167 169 170
f 167 170 171
f 172 173 174
f 172 174 175
f 175 174 176
f 177 178 179
f 180 181 182
f 183 184 185
f 182 186 14
