# RS2 Model 6833
# Vertices: 161
# Faces: 178

v -32 9 23
v -27 14 16
v -28 17 18
v -31 15 15
v -36 22 17
v -32 13 12
v -22 18 21
v -22 26 20
v -32 29 11
v -32 25 11
v -32 16 12
v -23 15 6
v -23 12 6
v -32 35 18
v -27 27 17
v -28 29 15
v -31 26 17
v -32 22 27
v -27 20 20
v -28 24 19
v -31 20 19
v -23 31 4
v -32 26 11
v -23 26 4
v -29 -5 10
v -31 -6 0
v -25 -7 1
v -26 -2 1
v -35 4 12
v -39 3 2
v -33 2 2
v -34 7 2
v 32 12 13
v 28 11 3
v 34 10 3
v 33 15 3
v -32 -14 12
v -34 -18 2
v -30 -14 2
v -35 -12 2
v -3 8 25
v -3 10 27
v -11 4 27
v 0 4 27
v 9 6 27
v -3 14 25
v -15 6 27
v -17 -4 23
v -13 -10 25
v 4 -10 18
v 11 -4 23
v 15 2 21
v 11 8 25
v 11 12 25
v 13 18 29
v 1 18 28
v -3 17 25
v -7 18 29
v -19 18 29
v -17 12 25
v -17 8 25
v -21 2 21
v -19 -6 21
v -20 -14 23
v -15 -17 26
v -3 -14 23
v 7 -23 26
v 14 -19 23
v 13 -6 21
v 13 2 9
v 15 10 21
v -19 2 9
v -19 -2 9
v -24 -16 13
v 13 -2 9
v 7 -2 3
v 7 2 3
v 15 10 5
v 14 29 9
v 14 29 17
v 17 18 23
v 13 26 22
v -4 20 25
v -19 26 22
v -23 18 23
v -21 10 21
v -10 30 21
v -20 29 17
v -21 10 5
v -10 31 9
v -20 29 9
v -17 23 1
v 1 22 21
v -24 -18 5
v 18 -16 13
v 18 -18 5
v 15 -11 23
v 9 -13 24
v 10 -8 25
v 13 4 23
v 8 2 26
v 9 7 25
v 0 11 25
v -5 11 25
v -3 15 25
v 11 20 27
v 6 20 28
v 8 23 27
v -20 4 33
v -13 2 26
v -14 7 25
v -18 4 23
v -17 24 35
v -11 20 28
v -13 23 27
v -16 20 27
v -15 -8 25
v -14 -13 24
v -20 -11 23
v 20 24 18
v 19 22 21
v 24 28 26
v 23 21 20
v 20 26 11
v 19 26 15
v 24 34 14
v 23 25 15
v 20 22 6
v 19 24 8
v 24 26 0
v 23 24 9
v -32 18 5
v -32 18 8
v -32 18 9
v 24 18 21
v 14 27 17
v 15 12 22
v 15 12 19
v 24 18 18
v 29 24 13
v 14 27 9
v 24 18 5
v 24 18 9
v 24 18 8
v 15 12 3
v 15 11 7
v 20 -11 1
v 30 -17 1
v 29 -11 9
v 24 -9 9
v 21 1 21
v 20 -11 23
v 30 -17 23
v 30 0 21
v 15 12 21
v 15 11 5
v 21 1 4
v 30 0 4
v 24 18 7
v 2 22 9
v -3 22 4

f 1 2 3
f 1 3 4
f 1 4 2
f 2 4 3
f 5 6 7
f 5 7 8
f 5 8 9
f 5 9 10
f 5 10 11
f 5 11 6
f 6 11 12
f 6 12 13
f 6 13 7
f 14 15 16
f 14 16 17
f 14 17 15
f 15 17 16
f 18 19 20
f 18 20 21
f 18 21 19
f 19 21 20
f 22 23 9
f 23 22 24
f 25 26 27
f 25 27 28
f 25 28 26
f 29 30 31
f 29 31 32
f 29 32 30
f 33 34 35
f 33 35 36
f 33 36 34
f 37 38 39
f 37 39 40
f 37 40 38
f 41 42 43
f 41 43 44
f 41 44 42
f 42 44 45
f 42 45 46
f 42 46 47
f 42 47 43
f 43 47 48
f 43 48 49
f 43 49 44
f 44 49 50
f 44 50 51
f 44 51 45
f 45 51 52
f 45 52 53
f 45 53 46
f 46 53 54
f 46 54 55
f 46 55 56
f 46 56 57
f 46 57 58
f 46 58 59
f 46 59 60
f 46 60 61
f 46 61 47
f 47 61 62
f 47 62 48
f 48 62 63
f 48 63 64
f 48 64 49
f 49 64 65
f 49 65 66
f 49 66 50
f 50 66 67
f 50 67 68
f 50 68 51
f 51 68 69
f 51 69 52
f 52 69 70
f 52 70 71
f 52 71 54
f 52 54 53
f 62 72 73
f 62 73 63
f 63 73 74
f 63 74 64
f 69 75 70
f 70 75 76
f 70 76 77
f 70 77 78
f 70 78 71
f 71 78 79
f 71 79 80
f 71 80 81
f 71 81 54
f 54 81 55
f 55 81 82
f 55 82 56
f 56 82 83
f 56 83 57
f 57 83 58
f 58 83 84
f 58 84 59
f 59 84 85
f 59 85 60
f 60 85 86
f 60 86 62
f 60 62 61
f 84 83 87
f 84 87 88
f 84 88 85
f 85 88 86
f 86 88 89
f 86 89 72
f 86 72 62
f 90 91 88
f 90 88 87
f 90 92 91
f 82 80 93
f 82 93 83
f 83 93 87
f 88 91 89
f 80 82 81
f 73 94 74
f 95 96 75
f 95 75 69
f 95 69 68
f 76 75 96
f 97 98 99
f 100 101 102
f 103 104 105
f 106 107 108
f 109 110 111
f 109 111 112
f 109 112 110
f 110 112 111
f 113 114 115
f 113 115 116
f 113 116 114
f 114 116 115
f 117 118 119
f 120 121 122
f 120 122 123
f 120 123 121
f 121 123 122
f 124 125 126
f 124 126 127
f 124 127 125
f 125 127 126
f 128 129 130
f 128 130 131
f 128 131 129
f 129 131 130
f 132 133 134
f 135 136 137
f 135 137 138
f 135 138 139
f 135 139 140
f 135 140 136
f 136 140 141
f 141 140 142
f 142 140 143
f 142 143 144
f 142 144 145
f 145 144 146
f 140 139 143
f 147 148 149
f 147 149 150
f 151 152 153
f 151 153 154
f 151 154 139
f 151 139 155
f 151 155 156
f 151 156 157
f 151 157 147
f 151 147 152
f 153 148 158
f 153 158 154
f 154 158 139
f 139 158 159
f 80 79 160
f 80 160 93
f 161 90 160
