# RS2 Model 6891
# Vertices: 46
# Faces: 80

v 40 2 17
v 41 9 17
v 39 12 21
v 37 9 26
v 37 2 26
v 38 -2 22
v 44 -2 24
v 47 1 20
v 47 10 19
v 44 14 25
v 42 9 30
v 42 1 30
v 44 -5 26
v 50 -5 15
v 57 27 0
v 46 29 23
v 31 21 48
v 40 13 34
v 40 2 33
v 37 -6 24
v 43 -7 15
v 49 -15 16
v 57 -29 0
v 64 -1 0
v 31 -1 36
v 38 -13 24
v 34 2 31
v 34 12 32
v 31 12 38
v 36 0 41
v 43 -15 28
v 43 -14 14
v 36 13 40
v 33 -1 55
v 30 -24 47
v 46 -30 24
v 0 -44 0
v 32 -44 0
v 11 -24 44
v -5 -30 19
v -7 -1 26
v 17 -5 56
v 12 24 43
v -5 29 19
v 0 43 0
v 31 43 0

f 1 2 3
f 1 3 4
f 1 4 5
f 1 5 6
f 1 6 7
f 1 7 8
f 1 8 2
f 2 8 9
f 2 9 3
f 3 9 10
f 3 10 4
f 4 10 11
f 4 11 5
f 5 11 12
f 5 12 6
f 6 12 7
f 7 12 13
f 7 13 8
f 8 13 14
f 8 14 9
f 9 14 15
f 9 15 10
f 10 15 16
f 10 16 17
f 10 17 18
f 10 18 11
f 11 18 19
f 11 19 12
f 12 19 13
f 13 19 20
f 13 20 21
f 13 21 14
f 14 21 22
f 14 22 23
f 14 23 24
f 14 24 15
f 25 26 20
f 25 20 27
f 25 27 28
f 25 28 29
f 25 29 30
f 25 30 31
f 25 31 26
f 26 31 22
f 26 22 32
f 26 32 21
f 26 21 20
f 30 29 33
f 30 33 17
f 30 17 34
f 30 34 35
f 30 35 31
f 31 35 36
f 31 36 23
f 31 23 22
f 22 21 32
f 20 19 27
f 27 19 18
f 27 18 28
f 28 18 33
f 28 33 29
f 37 38 35
f 37 35 39
f 37 39 40
f 40 39 41
f 41 39 42
f 41 42 43
f 41 43 44
f 44 43 45
f 45 43 46
f 46 43 17
f 46 17 16
f 46 16 15
f 38 23 36
f 38 36 35
f 35 34 42
f 35 42 39
f 17 43 42
f 17 42 34
f 17 33 18
