# RS2 Model 6952
# Vertices: 116
# Faces: 240

v 8 -48 72
v 0 -52 64
v -8 -48 72
v 0 -40 84
v 36 -28 92
v 8 -56 76
v 28 -68 64
v 28 -60 52
v 16 -64 48
v 0 -64 72
v -16 -72 56
v -16 -64 48
v -28 -60 52
v -8 -56 76
v -36 -40 100
v -36 -28 92
v -24 -24 100
v 0 -48 88
v 24 -36 104
v 24 -24 100
v 40 -20 104
v 56 -36 80
v 36 -40 100
v 16 -72 56
v 60 -12 112
v 72 -24 96
v 56 -48 92
v 72 -36 100
v 60 -24 120
v 40 -28 112
v 16 -24 116
v 16 -20 108
v 24 -4 124
v 40 -4 120
v -40 -20 104
v -40 -4 120
v -24 -4 124
v -16 -20 108
v -60 -12 112
v -40 -28 112
v -40 -20 128
v -24 -16 132
v -16 -24 116
v -24 -36 104
v -28 -68 64
v -56 -36 80
v -72 -24 96
v -60 -24 120
v -72 -36 100
v -56 -48 92
v -12 -48 112
v -4 -44 120
v 8 12 100
v -8 12 100
v -8 12 88
v 24 -16 132
v 40 -20 128
v -12 -48 104
v -4 -48 96
v 4 -48 96
v 12 -48 104
v 12 -48 112
v 4 -44 120
v 12 -64 136
v -12 -64 136
v -24 -64 100
v -24 -64 124
v -12 -64 88
v 12 -64 88
v 24 -64 100
v 24 -64 124
v 12 48 96
v -12 48 96
v -12 44 76
v 12 44 76
v 8 12 88
v 16 -52 68
v -16 -52 68
v -16 -56 52
v 16 -56 52
v 56 -20 60
v 40 -8 80
v 16 -32 84
v -16 -32 84
v -56 -20 60
v -56 -24 48
v -64 -28 36
v -28 -72 44
v -68 20 28
v -56 16 40
v -24 88 24
v -56 20 52
v -24 52 48
v -24 48 32
v 24 48 32
v 24 88 24
v 68 20 28
v 56 16 40
v 56 -24 48
v 64 -28 36
v 24 52 48
v 56 20 52
v 32 -72 44
v -32 -72 44
v 0 12 88
v 40 16 76
v 16 40 72
v -16 40 72
v -40 16 76
v -40 -8 80
v -55 55 59
v -56 -49 78
v 56 54 59
v 71 90 28
v -75 90 28
v 71 -100 44

f 1 2 3
f 1 3 4
f 1 4 5
f 1 5 6
f 1 6 7
f 1 7 8
f 1 8 9
f 1 9 2
f 2 9 10
f 2 10 11
f 2 11 12
f 2 12 13
f 2 13 3
f 3 13 14
f 3 14 15
f 3 15 16
f 3 16 17
f 3 17 4
f 4 17 18
f 4 18 19
f 4 19 20
f 4 20 5
f 5 20 21
f 5 21 22
f 5 22 23
f 5 23 6
f 6 23 19
f 6 19 18
f 6 18 10
f 6 10 7
f 7 10 24
f 7 24 8
f 8 24 9
f 9 24 10
f 21 25 26
f 21 26 22
f 22 26 27
f 22 27 23
f 23 27 28
f 23 28 29
f 23 29 30
f 23 30 19
f 19 30 31
f 19 31 20
f 20 31 32
f 20 32 33
f 20 33 34
f 20 34 21
f 21 34 30
f 21 30 29
f 21 29 25
f 25 29 28
f 25 28 26
f 26 28 27
f 35 36 37
f 35 37 38
f 35 38 17
f 35 17 16
f 35 16 39
f 35 39 40
f 35 40 41
f 35 41 36
f 36 41 42
f 36 42 37
f 37 42 43
f 37 43 38
f 38 43 44
f 38 44 17
f 17 44 18
f 18 44 15
f 18 15 14
f 18 14 10
f 10 14 11
f 11 14 45
f 11 45 12
f 12 45 13
f 13 45 14
f 16 46 47
f 16 47 39
f 39 47 48
f 39 48 40
f 40 48 49
f 40 49 50
f 40 50 15
f 40 15 44
f 40 44 41
f 41 44 42
f 42 44 43
f 43 44 51
f 43 51 52
f 43 52 31
f 43 31 32
f 43 32 38
f 38 32 53
f 38 53 54
f 38 54 55
f 38 55 17
f 47 49 48
f 49 47 46
f 49 46 50
f 50 46 16
f 50 16 15
f 32 31 56
f 32 56 33
f 33 56 57
f 33 57 34
f 34 57 30
f 30 57 56
f 30 56 31
f 52 51 58
f 52 58 59
f 52 59 60
f 52 60 61
f 52 61 62
f 52 62 63
f 52 63 64
f 52 64 65
f 52 65 63
f 52 63 31
f 31 63 62
f 31 62 19
f 19 62 61
f 19 61 60
f 19 60 18
f 18 60 59
f 18 59 44
f 44 59 58
f 44 58 51
f 51 58 66
f 51 66 67
f 51 67 52
f 51 52 65
f 51 65 67
f 51 67 58
f 58 67 66
f 58 66 59
f 58 59 68
f 58 68 66
f 66 68 59
f 59 68 60
f 59 60 69
f 59 69 68
f 68 69 60
f 60 69 61
f 60 61 70
f 60 70 69
f 69 70 61
f 61 70 62
f 61 62 71
f 61 71 70
f 70 71 62
f 62 71 63
f 62 63 64
f 62 64 71
f 71 64 63
f 52 67 65
f 63 65 64
f 53 72 73
f 53 73 54
f 54 73 55
f 55 73 74
f 74 73 75
f 75 73 72
f 75 72 53
f 75 53 76
f 76 53 32
f 76 32 20
f 77 78 79
f 77 79 80
f 77 80 81
f 77 81 82
f 77 82 83
f 77 83 78
f 78 83 84
f 78 84 85
f 78 85 86
f 78 86 79
f 79 86 87
f 79 87 88
f 79 88 87
f 79 87 86
f 86 87 89
f 86 89 87
f 89 86 90
f 89 90 91
f 89 91 90
f 89 90 86
f 85 92 90
f 85 90 86
f 92 93 94
f 92 94 90
f 90 94 91
f 90 91 94
f 94 91 95
f 94 95 96
f 94 96 91
f 91 96 95
f 95 96 97
f 95 97 96
f 97 95 98
f 97 98 99
f 97 99 100
f 97 100 99
f 97 99 98
f 97 98 95
f 93 101 95
f 93 95 94
f 101 102 98
f 101 98 95
f 102 81 99
f 102 99 98
f 81 80 99
f 99 80 103
f 99 103 100
f 99 100 103
f 99 103 80
f 80 103 79
f 80 79 104
f 80 104 103
f 103 104 79
f 105 84 83
f 105 83 82
f 105 82 106
f 105 106 107
f 105 107 108
f 105 108 109
f 105 109 110
f 105 110 84
f 84 110 85
f 85 110 92
f 92 110 109
f 92 109 93
f 93 109 108
f 93 108 101
f 101 108 107
f 101 107 102
f 102 107 106
f 102 106 81
f 81 106 82
f 111 112 113
