# RS2 Model 6953
# Vertices: 49
# Faces: 88

v 24 33 78
v 64 17 134
v 48 5 82
v 48 5 74
v 28 37 70
v 0 61 74
v 0 85 122
v 0 33 98
v 20 9 102
v 24 -19 90
v 28 -27 82
v 32 -31 70
v 48 1 62
v 32 37 58
v 0 57 66
v -24 33 78
v -20 9 102
v 0 17 142
v 0 -11 106
v 0 -59 170
v 0 -47 94
v 0 -47 86
v 0 -55 74
v 0 -59 62
v 40 -39 58
v 52 1 50
v 36 37 46
v 0 53 54
v -28 37 70
v -48 5 82
v -64 17 134
v -24 -19 90
v -48 5 74
v -28 -27 82
v -32 -31 70
v -40 -39 58
v -36 -35 46
v 0 -59 50
v 36 -35 46
v 48 -3 42
v 40 33 38
v 0 53 42
v -32 37 58
v -48 1 62
v -52 1 50
v -48 -3 42
v -36 37 46
v -40 33 38
v 0 49 34

f 1 2 3
f 1 3 4
f 1 4 5
f 1 5 6
f 1 6 7
f 1 7 8
f 1 8 9
f 1 9 2
f 2 9 10
f 2 10 3
f 3 10 11
f 3 11 4
f 4 11 12
f 4 12 13
f 4 13 5
f 5 13 14
f 5 14 15
f 5 15 6
f 6 15 16
f 6 16 7
f 7 16 8
f 8 16 17
f 8 17 18
f 8 18 9
f 9 18 19
f 9 19 10
f 10 19 20
f 10 20 21
f 10 21 22
f 10 22 11
f 11 22 23
f 11 23 12
f 12 23 24
f 12 24 25
f 12 25 13
f 13 25 26
f 13 26 14
f 14 26 27
f 14 27 28
f 14 28 15
f 15 28 29
f 15 29 16
f 16 29 30
f 16 30 31
f 16 31 17
f 17 31 32
f 17 32 19
f 17 19 18
f 32 31 30
f 32 30 33
f 32 33 34
f 32 34 21
f 32 21 20
f 32 20 19
f 22 34 35
f 22 35 23
f 23 35 36
f 23 36 24
f 24 36 37
f 24 37 38
f 24 38 25
f 25 38 39
f 25 39 26
f 26 39 40
f 26 40 27
f 27 40 41
f 27 41 42
f 27 42 28
f 28 42 43
f 28 43 29
f 29 43 33
f 29 33 30
f 34 33 44
f 34 44 35
f 35 44 45
f 35 45 36
f 36 45 46
f 36 46 37
f 33 43 44
f 44 43 47
f 44 47 45
f 45 47 48
f 45 48 46
f 49 48 47
f 49 47 42
f 49 42 41
f 43 42 47
f 21 34 22
