# RS2 Model 6955
# Vertices: 146
# Faces: 260

v 6 37 107
v 6 23 101
v 6 44 95
v 12 50 104
v 9 47 113
v -6 37 107
v 9 44 125
v 15 30 122
v 9 13 125
v -6 23 101
v 6 3 62
v 6 17 53
v -6 17 53
v -6 44 95
v -6 64 98
v 6 64 98
v 0 60 110
v -12 50 104
v -15 30 122
v -6 44 125
v 0 30 137
v -9 13 125
v -6 3 62
v -15 -4 65
v 15 -32 63
v 39 -20 35
v 15 -4 65
v -15 -32 63
v -18 -42 41
v 18 -42 41
v 28 -39 35
v 28 -41 32
v 24 -47 27
v 39 -26 17
v 48 -26 17
v 48 -20 35
v 60 19 65
v 39 4 26
v 15 23 47
v -39 -20 35
v -28 -39 35
v -17 -45 36
v -5 -44 39
v 5 -44 39
v 17 -45 36
v 17 -47 32
v 9 -47 27
v 12 -53 23
v 21 -53 23
v 36 -41 11
v 39 -20 5
v 48 -20 5
v 48 4 26
v 66 19 62
v 39 -5 8
v 15 22 14
v -15 23 47
v -39 4 26
v -60 19 65
v -66 19 62
v -48 -20 35
v -39 -26 17
v -24 -47 27
v -28 -41 32
v -17 -47 32
v -7 -47 32
v -3 -45 36
v 3 -45 36
v 7 -47 32
v -15 22 14
v -39 -5 8
v -48 -5 8
v -48 4 26
v -48 -26 17
v -39 -20 5
v -36 -41 11
v -27 -50 14
v -21 -53 23
v -9 -47 27
v 25 18 -18
v -25 18 -18
v -24 -12 -34
v -48 -20 5
v 26 31 -51
v 24 -12 -34
v 22 2 -54
v 3 -14 -54
v -3 -14 -54
v -21 2 -54
v -26 31 -51
v -6 40 -50
v 6 40 -50
v 27 -50 14
v 9 -56 14
v 24 -53 8
v 24 -53 2
v 12 -56 5
v 11 -53 2
v 16 -44 -8
v 23 -39 -14
v 48 -5 8
v 3 -53 14
v -9 -56 14
v -24 -53 8
v -12 -56 5
v -11 -53 2
v -3 -53 14
v -12 -53 23
v -24 -53 2
v -16 -44 -8
v 0 -74 -16
v -23 -39 -14
v -14 -44 -14
v -4 -47 -11
v -5 -47 -9
v 5 -47 -9
v -9 -55 -28
v -13 -46 -16
v 0 -71 -49
v 9 -55 -28
v 0 -52 -18
v 0 -44 -16
v -13 -43 -15
v -18 -43 -14
v -4 -48 -13
v 4 -47 -11
v 13 -46 -16
v 18 -43 -14
v 13 -43 -15
v 14 -44 -14
v 4 -48 -13
v 27 -51 14
v 21 -54 23
v 9 -57 14
v 24 -54 8
v 12 -57 5
v 12 -54 23
v -9 -57 14
v -21 -54 23
v -27 -51 14
v -24 -54 8
v -12 -57 5
v -12 -54 23
v 55 48 31
v -55 48 31
v 55 -45 82

f 1 2 3
f 1 3 4
f 1 4 5
f 1 5 6
f 1 6 7
f 1 7 8
f 1 8 2
f 2 8 9
f 2 9 10
f 2 10 11
f 2 11 12
f 2 12 3
f 3 12 13
f 3 13 14
f 3 14 15
f 3 15 16
f 3 16 4
f 4 16 17
f 4 17 5
f 5 17 6
f 6 17 18
f 6 18 14
f 6 14 10
f 6 10 19
f 6 19 20
f 6 20 7
f 7 20 21
f 7 21 8
f 8 21 9
f 9 21 22
f 9 22 10
f 10 22 19
f 19 22 21
f 19 21 20
f 17 16 15
f 17 15 18
f 18 15 14
f 23 10 14
f 23 14 13
f 23 13 24
f 23 24 11
f 23 11 10
f 25 26 27
f 25 27 28
f 25 28 29
f 25 29 30
f 25 30 26
f 26 30 31
f 26 31 32
f 26 32 33
f 26 33 34
f 26 34 35
f 26 35 36
f 26 36 37
f 26 37 38
f 26 38 39
f 26 39 27
f 27 39 11
f 27 11 24
f 27 24 28
f 28 24 40
f 28 40 29
f 29 40 41
f 29 41 42
f 29 42 43
f 29 43 30
f 30 43 44
f 30 44 45
f 30 45 31
f 31 45 32
f 32 45 46
f 32 46 33
f 33 46 47
f 33 47 48
f 33 48 49
f 33 49 50
f 33 50 34
f 34 50 51
f 34 51 52
f 34 52 35
f 35 52 53
f 35 53 36
f 36 53 54
f 36 54 37
f 37 54 38
f 38 54 53
f 38 53 55
f 38 55 56
f 38 56 39
f 39 56 57
f 39 57 13
f 39 13 12
f 39 12 11
f 24 57 40
f 40 57 58
f 40 58 59
f 40 59 60
f 40 60 61
f 40 61 62
f 40 62 63
f 40 63 64
f 40 64 41
f 41 64 65
f 41 65 42
f 42 65 66
f 42 66 67
f 42 67 43
f 43 67 68
f 43 68 44
f 44 68 69
f 44 69 46
f 44 46 45
f 24 13 57
f 58 57 70
f 58 70 71
f 58 71 72
f 58 72 73
f 58 73 59
f 59 73 60
f 60 73 61
f 61 73 74
f 61 74 62
f 62 74 75
f 62 75 76
f 62 76 63
f 63 76 77
f 63 77 78
f 63 78 79
f 63 79 65
f 63 65 64
f 56 70 57
f 70 56 80
f 70 80 81
f 70 81 71
f 71 81 82
f 71 82 75
f 71 75 83
f 71 83 72
f 72 83 73
f 73 83 74
f 74 83 75
f 84 80 85
f 84 85 86
f 86 85 87
f 87 85 88
f 88 85 82
f 88 82 89
f 89 82 90
f 90 82 81
f 90 81 91
f 91 81 80
f 91 80 92
f 92 80 84
f 93 49 94
f 93 94 95
f 93 95 96
f 93 96 50
f 93 50 49
f 94 97 95
f 95 97 98
f 95 98 96
f 96 98 99
f 96 99 100
f 96 100 50
f 50 100 51
f 51 100 85
f 51 85 55
f 51 55 101
f 51 101 52
f 52 101 53
f 53 101 55
f 94 49 48
f 94 48 47
f 94 47 102
f 94 102 98
f 94 98 97
f 103 78 77
f 103 77 104
f 103 104 105
f 103 105 106
f 103 106 107
f 103 107 108
f 103 108 78
f 78 108 79
f 79 108 107
f 79 107 47
f 79 47 69
f 79 69 66
f 79 66 65
f 105 104 109
f 105 109 106
f 106 109 110
f 106 110 111
f 106 111 107
f 107 111 102
f 107 102 47
f 104 77 76
f 104 76 109
f 109 76 112
f 109 112 110
f 110 112 113
f 110 113 114
f 110 114 115
f 110 115 111
f 111 115 116
f 111 116 99
f 111 99 98
f 111 98 102
f 117 118 112
f 117 112 82
f 117 82 119
f 117 119 120
f 117 120 121
f 117 121 118
f 118 121 122
f 118 122 123
f 118 123 124
f 118 124 112
f 112 124 113
f 113 124 123
f 113 123 122
f 113 122 125
f 113 125 114
f 114 125 126
f 114 126 116
f 114 116 115
f 127 121 120
f 127 120 100
f 127 100 128
f 127 128 129
f 127 129 122
f 127 122 121
f 112 75 82
f 75 112 76
f 100 120 85
f 85 120 119
f 85 119 82
f 122 129 130
f 122 130 131
f 122 131 125
f 125 131 126
f 126 131 130
f 126 130 99
f 126 99 116
f 128 130 129
f 130 128 100
f 130 100 99
f 85 80 55
f 55 80 56
f 46 69 47
f 66 69 68
f 66 68 67
f 132 133 134
f 132 134 135
f 135 134 136
f 134 133 137
f 138 139 140
f 138 140 141
f 138 141 142
f 143 139 138
