# RS2 Model 6981
# Vertices: 121
# Faces: 206

v 12 -6 130
v 14 2 132
v 13 2 136
v 11 -7 136
v 6 -8 136
v 5 -8 130
v 5 -8 125
v 13 -6 126
v 15 2 128
v 12 6 127
v 9 6 132
v 6 7 136
v 14 2 141
v 14 -4 141
v 12 -8 139
v 7 -13 147
v 0 -10 136
v 0 -10 130
v 0 -10 125
v 4 -10 119
v 14 -7 122
v 17 2 121
v 15 9 121
v 6 10 128
v 5 9 132
v 0 11 132
v 0 10 136
v 6 8 140
v 15 4 147
v 14 -5 146
v 13 -10 147
v 7 -9 154
v 0 -12 154
v 0 -15 147
v -7 -13 147
v -6 -8 136
v -5 -8 130
v -5 -8 125
v -4 -10 119
v 0 -12 119
v 0 0 163
v 4 -5 158
v 12 -5 157
v 4 5 166
v 12 4 163
v 11 7 162
v 7 11 161
v 0 10 167
v 0 13 161
v -7 11 161
v -4 5 166
v -11 7 162
v -12 4 163
v -12 -5 157
v -4 -5 158
v 0 -6 159
v 13 -7 154
v 15 -2 157
v 14 4 163
v 15 11 157
v 8 13 157
v 0 15 157
v -8 13 157
v -15 11 157
v -14 4 163
v -15 -2 157
v -13 -7 154
v -7 -9 154
v 6 10 148
v 0 14 147
v -6 10 148
v -15 4 147
v -6 8 140
v -14 2 141
v -14 -5 146
v 0 11 140
v 0 13 128
v 8 12 123
v 0 16 120
v -6 10 128
v -5 9 132
v -6 7 136
v -13 2 136
v -14 -4 141
v -13 -10 147
v -12 -6 130
v -11 -7 136
v -14 2 132
v -13 -6 126
v -12 -8 139
v -9 6 132
v -15 2 128
v -14 -7 122
v -12 6 127
v -17 2 121
v -15 9 121
v -8 12 123
v 11 0 130
v 5 -6 129
v 7 -7 120
v 13 0 123
v 7 8 122
v 6 7 130
v 0 9 130
v 0 10 122
v -7 8 122
v -6 7 130
v -11 0 130
v -13 0 123
v -7 -7 120
v -5 -6 129
v 0 -9 129
v 0 -9 120
v 8 -7 117
v 14 2 119
v 0 -9 116
v -8 -7 117
v -14 2 119
v -8 10 119
v 0 12 119
v 8 10 119

f 1 2 3
f 1 3 4
f 1 4 5
f 1 5 6
f 1 6 7
f 1 7 8
f 1 8 2
f 2 8 9
f 2 9 10
f 2 10 11
f 2 11 12
f 2 12 3
f 3 12 13
f 3 13 14
f 3 14 15
f 3 15 4
f 4 15 5
f 5 15 16
f 5 16 17
f 5 17 18
f 5 18 6
f 6 18 19
f 6 19 7
f 7 19 20
f 7 20 8
f 8 20 21
f 8 21 9
f 9 21 22
f 9 22 23
f 9 23 10
f 10 23 24
f 10 24 11
f 11 24 25
f 11 25 12
f 12 25 26
f 12 26 27
f 12 27 28
f 12 28 13
f 13 28 29
f 13 29 30
f 13 30 14
f 14 30 31
f 14 31 15
f 15 31 16
f 16 31 32
f 16 32 33
f 16 33 34
f 16 34 17
f 17 34 35
f 17 35 36
f 17 36 18
f 18 36 37
f 18 37 19
f 19 37 38
f 19 38 39
f 19 39 40
f 19 40 20
f 41 42 43
f 41 43 44
f 44 43 45
f 44 45 46
f 44 46 47
f 44 47 48
f 48 47 49
f 48 49 50
f 48 50 51
f 51 50 52
f 51 52 53
f 51 53 54
f 51 54 41
f 41 54 55
f 41 55 56
f 41 56 42
f 42 56 33
f 42 33 32
f 42 32 43
f 43 32 57
f 43 57 58
f 43 58 59
f 43 59 45
f 45 59 46
f 46 59 60
f 46 60 47
f 47 60 61
f 47 61 49
f 49 61 62
f 49 62 63
f 49 63 50
f 50 63 64
f 50 64 52
f 52 64 65
f 52 65 53
f 53 65 54
f 54 65 66
f 54 66 67
f 54 67 68
f 54 68 55
f 55 68 33
f 55 33 56
f 31 30 57
f 31 57 32
f 29 58 57
f 29 57 30
f 61 69 70
f 61 70 62
f 62 70 63
f 63 70 71
f 63 71 64
f 64 71 72
f 72 71 73
f 72 73 74
f 72 74 75
f 72 75 67
f 72 67 66
f 60 29 69
f 60 69 61
f 28 76 70
f 28 70 69
f 28 69 29
f 28 27 76
f 76 27 73
f 76 73 70
f 70 73 71
f 24 77 26
f 24 26 25
f 24 78 79
f 24 79 77
f 77 79 80
f 77 80 26
f 26 80 81
f 26 81 82
f 26 82 27
f 27 82 73
f 73 82 74
f 74 82 83
f 74 83 84
f 74 84 75
f 75 84 85
f 75 85 67
f 67 85 68
f 68 85 35
f 68 35 33
f 33 35 34
f 23 78 24
f 86 87 83
f 86 83 88
f 86 88 89
f 86 89 38
f 86 38 37
f 86 37 36
f 86 36 87
f 87 36 90
f 87 90 83
f 83 90 84
f 84 90 85
f 85 90 35
f 35 90 36
f 82 81 91
f 82 91 88
f 82 88 83
f 88 92 89
f 89 92 93
f 89 93 39
f 89 39 38
f 80 94 91
f 80 91 81
f 93 92 95
f 95 92 96
f 96 92 94
f 96 94 80
f 96 80 97
f 97 80 79
f 88 91 94
f 88 94 92
f 98 99 100
f 98 100 101
f 98 101 102
f 98 102 103
f 103 102 104
f 104 102 105
f 104 105 106
f 104 106 107
f 107 106 108
f 108 106 109
f 108 109 110
f 108 110 111
f 111 110 112
f 112 110 113
f 112 113 100
f 112 100 99
f 114 115 101
f 114 101 100
f 114 100 116
f 116 100 113
f 116 113 110
f 116 110 117
f 117 110 109
f 117 109 118
f 118 109 119
f 119 109 106
f 119 106 120
f 120 106 105
f 120 105 102
f 120 102 121
f 121 102 101
f 121 101 115
