# RS2 Model 700
# Vertices: 39
# Faces: 37

v -58 28 955
v 44 36 956
v 64 64 954
v -64 64 954
v -64 64 922
v -58 28 922
v -44 -28 952
v 60 -18 953
v 60 -18 922
v 44 36 922
v 64 64 922
v -44 -28 922
v -64 -64 954
v 64 -64 954
v 64 -64 922
v -64 -64 922
v -44 2 848
v -40 -6 924
v -50 2 924
v -40 10 924
v -52 52 860
v -50 46 924
v -60 52 924
v -50 58 924
v 62 -54 924
v 52 -60 924
v 54 -54 860
v 52 -48 924
v -28 -18 954
v -25 -8 954
v -28 -10 961
v -30 -15 961
v -39 -17 954
v -36 -15 961
v -32 -1 954
v -31 -5 961
v -62 -66 954
v 64 -65 955
v -64 64 951

f 1 2 3
f 1 3 4
f 1 4 5
f 1 5 6
f 1 6 7
f 1 7 2
f 2 7 8
f 2 8 9
f 2 9 10
f 2 10 3
f 3 10 11
f 7 6 12
f 7 12 13
f 7 13 8
f 8 13 14
f 8 14 15
f 8 15 9
f 13 12 16
f 17 18 19
f 17 19 20
f 17 20 18
f 21 22 23
f 21 23 24
f 21 24 22
f 25 26 27
f 25 27 28
f 28 27 26
f 29 30 31
f 29 31 32
f 29 32 33
f 33 32 34
f 33 34 35
f 35 34 36
f 35 36 30
f 30 36 31
f 31 36 34
f 31 34 32
