# RS2 Model 7018
# Vertices: 428
# Faces: 424

v -6 9 1
v 0 13 1
v -6 27 1
v 1 14 1
v 1 18 1
v 1 29 1
v -5 30 1
v 4 30 1
v -11 32 1
v -12 29 1
v -16 27 1
v -14 27 1
v -19 22 1
v -15 22 1
v -20 20 1
v -13 21 1
v -12 20 1
v -19 18 1
v -14 17 1
v -16 17 1
v -13 1 1
v 7 1 1
v 9 2 1
v -7 3 1
v 8 3 1
v -6 4 1
v 1 4 1
v 5 0 1
v -12 0 1
v 8 16 1
v 4 18 1
v 3 20 1
v 15 12 1
v 17 14 1
v 15 15 1
v 18 19 1
v 20 17 1
v 22 20 1
v 17 22 1
v 16 25 1
v 22 26 1
v 11 28 1
v 20 29 1
v 19 30 1
v 16 33 1
v -7 34 1
v 12 34 1
v -2 35 1
v 4 36 1
v 11 12 1
v 4 13 1
v 24 3 1
v 31 2 1
v 34 10 1
v 31 13 1
v 35 13 1
v 32 16 1
v 36 17 1
v 36 24 1
v 39 29 1
v 38 31 1
v 50 32 1
v 34 32 1
v 47 34 1
v 43 35 1
v 34 35 1
v 39 37 1
v 36 38 1
v 37 39 1
v 24 2 1
v 30 0 1
v 51 18 1
v 51 14 1
v 58 18 1
v 58 20 1
v 48 25 1
v 56 26 1
v 44 28 1
v 53 30 1
v 53 4 1
v 60 5 1
v 65 4 1
v 62 2 1
v 55 1 1
v 57 0 1
v 98 20 1
v 100 19 1
v 103 21 1
v 100 22 1
v 104 22 1
v 101 24 1
v 106 25 1
v 101 26 1
v 107 28 1
v 100 29 1
v 105 31 1
v 98 30 1
v 87 31 1
v 75 33 1
v 83 31 1
v 82 29 1
v 81 26 1
v 80 3 1
v 87 4 1
v 93 3 1
v 75 2 1
v 92 2 1
v 73 1 1
v 74 0 1
v 89 0 1
v 103 33 1
v 101 34 1
v 80 35 1
v 92 36 1
v 94 18 1
v 97 18 1
v 92 14 1
v 88 16 1
v 89 15 1
v 101 12 1
v 98 17 1
v 95 11 1
v 104 7 1
v 98 5 1
v 102 1 1
v 107 4 1
v 110 3 1
v 113 1 1
v 113 3 1
v 105 0 1
v 109 0 1
v 65 19 1
v 72 16 1
v 74 19 1
v 72 21 1
v 64 21 1
v 69 22 1
v 64 24 1
v 68 24 1
v 67 27 1
v 68 26 1
v 70 27 1
v 75 30 1
v 71 30 1
v 66 17 1
v 70 15 1
v 122 16 1
v 130 23 1
v 124 21 1
v 126 23 1
v 129 27 1
v 133 27 1
v 135 28 1
v 133 30 1
v 139 30 1
v 124 31 1
v 157 31 1
v 118 33 1
v 120 30 1
v 116 28 1
v 118 27 1
v 159 32 1
v 120 35 1
v 153 34 1
v 124 36 1
v 141 36 1
v 157 34 1
v 161 36 1
v 159 36 1
v 123 11 1
v 129 12 1
v 128 15 1
v 129 19 1
v 124 8 1
v 135 7 1
v 131 9 1
v 126 5 1
v 141 6 1
v 156 4 1
v 150 6 1
v 154 7 1
v 156 9 1
v 159 11 1
v 157 11 1
v 155 14 1
v 160 15 1
v 149 18 1
v 150 12 1
v 147 14 1
v 134 0 1
v 152 1 1
v 129 3 1
v 147 -1 1
v 141 -1 1
v 159 17 1
v 158 18 1
v 153 20 1
v 210 0 1
v 218 1 1
v 218 29 1
v 211 30 1
v 224 30 1
v 205 31 1
v 203 30 1
v 204 28 1
v 207 -1 1
v 225 -1 1
v 220 0 1
v 203 -3 1
v 226 -2 1
v 213 -3 1
v 223 -4 1
v 203 -4 1
v 219 -4 1
v 227 32 1
v 225 33 1
v 210 33 1
v 225 31 1
v -3 8 0
v 3 12 0
v -3 26 0
v 4 17 0
v 4 28 0
v -2 29 0
v 7 29 0
v -8 31 0
v -9 28 0
v -13 26 0
v -11 26 0
v -16 21 0
v -12 21 0
v -17 19 0
v -10 20 0
v -9 19 0
v -11 16 0
v -13 16 0
v -10 0 0
v 10 0 0
v 12 1 0
v -4 2 0
v 11 2 0
v -3 3 0
v 4 3 0
v 8 -1 0
v -9 -1 0
v 11 15 0
v 7 17 0
v 6 19 0
v 18 11 0
v 20 13 0
v 18 14 0
v 21 18 0
v 23 16 0
v 25 19 0
v 20 21 0
v 19 24 0
v 25 25 0
v 14 27 0
v 23 28 0
v 22 29 0
v 19 32 0
v -4 33 0
v 15 33 0
v 1 34 0
v 7 35 0
v 14 11 0
v 7 12 0
v 27 2 0
v 34 1 0
v 37 9 0
v 34 12 0
v 38 12 0
v 35 15 0
v 39 16 0
v 39 23 0
v 42 28 0
v 41 30 0
v 53 31 0
v 37 31 0
v 50 33 0
v 46 34 0
v 37 34 0
v 42 36 0
v 40 38 0
v 27 1 0
v 33 -1 0
v 54 17 0
v 54 13 0
v 61 17 0
v 61 19 0
v 51 24 0
v 59 25 0
v 47 27 0
v 56 29 0
v 56 3 0
v 63 4 0
v 68 3 0
v 65 1 0
v 58 0 0
v 60 -1 0
v 101 19 0
v 103 18 0
v 106 20 0
v 107 21 0
v 104 23 0
v 109 24 0
v 104 25 0
v 110 27 0
v 103 28 0
v 108 30 0
v 101 29 0
v 90 30 0
v 78 32 0
v 86 30 0
v 85 28 0
v 84 25 0
v 83 2 0
v 90 3 0
v 96 2 0
v 78 1 0
v 95 1 0
v 76 0 0
v 77 -1 0
v 92 -1 0
v 106 32 0
v 104 33 0
v 83 34 0
v 95 35 0
v 97 17 0
v 100 17 0
v 95 13 0
v 91 15 0
v 104 11 0
v 101 16 0
v 98 10 0
v 107 6 0
v 101 4 0
v 113 2 0
v 116 0 0
v 116 2 0
v 108 -1 0
v 112 -1 0
v 68 18 0
v 75 15 0
v 77 18 0
v 75 20 0
v 67 20 0
v 67 23 0
v 71 23 0
v 70 26 0
v 71 25 0
v 73 26 0
v 78 29 0
v 74 29 0
v 69 16 0
v 73 14 0
v 125 15 0
v 133 22 0
v 127 20 0
v 129 22 0
v 132 26 0
v 136 26 0
v 138 27 0
v 136 29 0
v 142 29 0
v 127 30 0
v 160 30 0
v 121 32 0
v 123 29 0
v 119 27 0
v 121 26 0
v 162 31 0
v 123 34 0
v 156 33 0
v 127 35 0
v 144 35 0
v 160 33 0
v 164 35 0
v 162 35 0
v 126 10 0
v 132 11 0
v 131 14 0
v 132 18 0
v 127 7 0
v 138 6 0
v 134 8 0
v 129 4 0
v 144 5 0
v 159 3 0
v 153 5 0
v 157 6 0
v 159 8 0
v 162 10 0
v 160 10 0
v 158 13 0
v 163 14 0
v 152 17 0
v 153 11 0
v 150 13 0
v 137 -1 0
v 155 0 0
v 132 2 0
v 150 -2 0
v 144 -2 0
v 162 16 0
v 161 17 0
v 156 19 0
v 213 -1 0
v 221 0 0
v 221 28 0
v 214 29 0
v 227 29 0
v 208 30 0
v 206 29 0
v 207 27 0
v 210 -2 0
v 228 -2 0
v 223 -1 0
v 206 -4 0
v 229 -3 0
v 216 -4 0
v 226 -5 0
v 206 -5 0
v 222 -5 0
v 230 31 0
v 228 32 0
v 213 32 0
v 228 30 0

f 1 2 3
f 3 2 4
f 3 4 5
f 3 5 6
f 3 6 7
f 7 6 8
f 7 8 9
f 7 9 10
f 10 9 11
f 10 11 12
f 12 11 13
f 12 13 14
f 14 13 15
f 14 15 16
f 16 15 17
f 17 15 18
f 17 18 19
f 19 18 20
f 21 22 23
f 21 23 24
f 24 23 25
f 24 25 26
f 26 25 27
f 26 27 2
f 26 2 1
f 28 22 29
f 29 22 21
f 5 30 31
f 5 31 32
f 5 4 30
f 30 4 33
f 30 33 34
f 30 34 35
f 35 34 36
f 36 34 37
f 36 37 38
f 36 38 39
f 39 38 40
f 40 38 41
f 40 41 42
f 42 41 43
f 42 43 8
f 8 43 44
f 8 44 9
f 9 44 45
f 9 45 46
f 46 45 47
f 46 47 48
f 48 47 49
f 4 50 33
f 50 4 51
f 52 53 54
f 52 54 55
f 55 54 56
f 55 56 57
f 57 56 58
f 57 58 59
f 59 58 60
f 59 60 61
f 61 60 62
f 61 62 63
f 63 62 64
f 63 64 65
f 63 65 66
f 66 65 67
f 66 67 68
f 68 67 69
f 70 53 52
f 53 70 71
f 58 56 72
f 72 56 73
f 72 73 74
f 72 74 75
f 72 75 76
f 76 75 77
f 76 77 78
f 78 77 79
f 78 79 60
f 60 79 62
f 80 74 73
f 74 80 81
f 81 80 82
f 82 80 83
f 83 80 84
f 83 84 85
f 86 87 88
f 86 88 89
f 89 88 90
f 89 90 91
f 91 90 92
f 91 92 93
f 93 92 94
f 93 94 95
f 95 94 96
f 95 96 97
f 97 96 98
f 98 96 99
f 98 99 100
f 98 100 101
f 98 101 102
f 98 102 103
f 98 103 104
f 104 103 105
f 105 103 106
f 105 106 107
f 107 106 108
f 107 108 109
f 107 109 110
f 99 111 112
f 99 112 113
f 113 112 114
f 99 96 111
f 115 116 87
f 115 87 86
f 117 115 118
f 117 118 119
f 117 120 121
f 117 121 115
f 115 121 116
f 122 120 117
f 120 122 123
f 123 122 124
f 123 124 125
f 123 125 126
f 126 125 127
f 127 125 128
f 127 128 129
f 130 131 128
f 130 128 125
f 132 133 134
f 132 134 135
f 132 135 136
f 136 135 137
f 136 137 138
f 138 137 139
f 138 139 140
f 140 139 141
f 140 141 142
f 140 142 143
f 140 143 144
f 144 143 100
f 144 100 99
f 132 145 133
f 133 145 146
f 147 148 149
f 149 148 150
f 150 148 151
f 151 148 152
f 151 152 153
f 151 153 154
f 154 153 155
f 154 155 156
f 156 155 157
f 156 157 158
f 156 158 159
f 159 158 160
f 159 160 161
f 158 157 162
f 158 162 163
f 163 162 164
f 163 164 165
f 165 164 166
f 164 162 167
f 167 162 168
f 167 168 169
f 170 171 147
f 147 171 172
f 147 172 173
f 147 173 148
f 174 175 176
f 174 176 170
f 170 176 171
f 174 177 175
f 175 177 178
f 178 177 179
f 178 179 180
f 180 179 181
f 181 179 182
f 182 179 183
f 182 183 184
f 184 183 185
f 185 183 186
f 185 186 187
f 185 187 188
f 188 187 189
f 190 191 179
f 190 179 192
f 192 179 177
f 190 193 191
f 193 190 194
f 187 186 195
f 187 195 196
f 187 196 197
f 198 199 200
f 198 200 201
f 201 200 202
f 201 202 203
f 201 203 204
f 201 204 205
f 206 207 208
f 206 208 198
f 198 208 199
f 209 210 206
f 206 210 207
f 211 212 210
f 211 210 209
f 211 209 213
f 214 212 211
f 203 215 216
f 203 216 217
f 203 218 215
f 218 203 202
f 219 220 221
f 221 220 51
f 221 51 222
f 221 222 223
f 221 223 224
f 224 223 225
f 224 225 226
f 224 226 227
f 227 226 228
f 227 228 229
f 229 228 230
f 229 230 231
f 231 230 232
f 231 232 233
f 233 232 234
f 234 232 20
f 234 20 235
f 235 20 236
f 237 238 239
f 237 239 240
f 240 239 241
f 240 241 242
f 242 241 243
f 242 243 220
f 242 220 219
f 244 238 245
f 245 238 237
f 222 246 247
f 222 247 248
f 222 51 246
f 246 51 249
f 246 249 250
f 246 250 251
f 251 250 252
f 252 250 253
f 252 253 254
f 252 254 255
f 255 254 256
f 256 254 257
f 256 257 258
f 258 257 259
f 258 259 225
f 225 259 260
f 225 260 226
f 226 260 261
f 226 261 262
f 262 261 263
f 262 263 264
f 264 263 265
f 51 266 249
f 266 51 267
f 268 269 270
f 268 270 271
f 271 270 272
f 271 272 273
f 273 272 274
f 273 274 275
f 275 274 276
f 275 276 277
f 277 276 278
f 277 278 279
f 279 278 280
f 279 280 281
f 279 281 282
f 282 281 283
f 282 283 67
f 67 283 284
f 285 269 268
f 269 285 286
f 274 272 287
f 287 272 288
f 287 288 289
f 287 289 290
f 287 290 291
f 291 290 292
f 291 292 293
f 293 292 294
f 293 294 276
f 276 294 278
f 295 289 288
f 289 295 296
f 296 295 297
f 297 295 298
f 298 295 299
f 298 299 300
f 301 302 303
f 301 303 88
f 88 303 304
f 88 304 305
f 305 304 306
f 305 306 307
f 307 306 308
f 307 308 309
f 309 308 310
f 309 310 311
f 311 310 312
f 312 310 313
f 312 313 314
f 312 314 315
f 312 315 316
f 312 316 317
f 312 317 318
f 318 317 319
f 319 317 320
f 319 320 321
f 321 320 322
f 321 322 323
f 321 323 324
f 313 325 326
f 313 326 327
f 327 326 328
f 313 310 325
f 329 330 302
f 329 302 301
f 331 329 332
f 331 332 117
f 331 333 334
f 331 334 329
f 329 334 330
f 335 333 331
f 333 335 336
f 336 335 337
f 336 337 130
f 336 130 127
f 127 130 338
f 338 130 339
f 338 339 340
f 341 342 339
f 341 339 130
f 343 344 345
f 343 345 346
f 343 346 347
f 347 346 135
f 347 135 348
f 348 135 349
f 348 349 350
f 350 349 351
f 350 351 352
f 350 352 353
f 350 353 354
f 354 353 314
f 354 314 313
f 343 355 344
f 344 355 356
f 357 358 359
f 359 358 360
f 360 358 361
f 361 358 362
f 361 362 363
f 361 363 364
f 364 363 365
f 364 365 366
f 366 365 367
f 366 367 368
f 366 368 369
f 369 368 370
f 369 370 371
f 368 367 372
f 368 372 373
f 373 372 374
f 373 374 375
f 375 374 376
f 374 372 377
f 377 372 378
f 377 378 379
f 380 381 357
f 357 381 382
f 357 382 383
f 357 383 358
f 384 385 386
f 384 386 380
f 380 386 381
f 384 387 385
f 385 387 388
f 388 387 389
f 388 389 390
f 390 389 391
f 391 389 392
f 392 389 393
f 392 393 394
f 394 393 395
f 395 393 396
f 395 396 397
f 395 397 398
f 398 397 399
f 400 401 389
f 400 389 402
f 402 389 387
f 400 403 401
f 403 400 404
f 397 396 405
f 397 405 406
f 397 406 407
f 408 409 410
f 408 410 411
f 411 410 412
f 411 412 413
f 411 413 414
f 411 414 415
f 416 417 418
f 416 418 408
f 408 418 409
f 419 420 416
f 416 420 417
f 421 422 420
f 421 420 419
f 421 419 423
f 424 422 421
f 413 425 426
f 413 426 427
f 413 428 425
f 428 413 412
