# RS2 Model 7050
# Vertices: 48
# Faces: 82

v 14 -7 121
v 14 3 121
v 7 4 123
v 7 -8 122
v 7 -18 108
v 14 -11 111
v 14 7 111
v 9 10 116
v -7 4 123
v -9 10 115
v -14 3 121
v -7 -8 122
v -14 -7 121
v -7 -18 108
v -7 -16 104
v 7 -16 104
v 14 -10 106
v 14 -2 104
v 9 8 102
v 5 10 102
v -5 10 102
v -9 8 102
v -14 7 111
v -14 -2 104
v -14 -11 111
v -14 -10 106
v -7 -14 91
v 0 -17 97
v 7 -14 91
v 11 -9 91
v 12 -2 92
v 11 5 91
v 9 8 91
v -9 8 91
v -11 5 91
v -12 -2 92
v -11 -9 91
v -7 -14 81
v 0 -14 84
v 7 -14 81
v 11 -9 81
v 14 -2 81
v 11 5 81
v 7 8 81
v -7 8 81
v -11 5 81
v -14 -2 81
v -11 -9 81

f 1 2 3
f 1 3 4
f 1 4 5
f 1 5 6
f 1 6 2
f 2 6 7
f 2 7 8
f 2 8 3
f 3 8 9
f 9 8 10
f 9 10 11
f 9 11 12
f 12 11 13
f 12 13 14
f 12 14 4
f 4 14 5
f 5 14 15
f 5 15 16
f 5 16 6
f 6 16 17
f 6 17 18
f 6 18 7
f 7 18 19
f 7 19 8
f 8 19 20
f 8 20 10
f 10 20 21
f 10 21 22
f 10 22 23
f 10 23 11
f 11 23 13
f 13 23 24
f 13 24 25
f 13 25 14
f 14 25 15
f 15 25 26
f 15 26 27
f 15 27 28
f 15 28 16
f 16 28 29
f 16 29 17
f 17 29 30
f 17 30 18
f 18 30 31
f 18 31 32
f 18 32 19
f 19 32 33
f 19 33 20
f 20 33 21
f 21 33 34
f 21 34 22
f 22 34 35
f 22 35 24
f 22 24 23
f 24 36 37
f 24 37 26
f 24 26 25
f 37 27 26
f 27 37 38
f 27 38 39
f 27 39 28
f 28 39 40
f 28 40 29
f 29 40 41
f 29 41 30
f 30 41 31
f 31 41 42
f 31 42 43
f 31 43 32
f 32 43 44
f 32 44 33
f 33 44 45
f 33 45 34
f 34 45 46
f 34 46 35
f 35 46 47
f 35 47 36
f 35 36 24
f 38 40 39
f 37 48 38
f 48 37 47
f 47 37 36
