# RS2 Model 7127
# Vertices: 113
# Faces: 214

v -33 100 38
v -36 81 43
v -37 82 46
v -32 82 47
v -33 80 44
v -26 58 59
v -34 57 57
v -32 61 63
v -26 62 62
v -27 53 66
v -27 49 63
v -35 48 61
v -33 52 67
v -25 -23 89
v -23 -20 94
v -30 -33 107
v -29 -36 102
v -30 -24 91
v -31 -18 86
v -26 -17 85
v -25 -16 90
v -32 -22 95
v -38 -32 106
v -36 -39 111
v -27 -40 110
v -28 -42 105
v -35 -41 105
v -35 -34 101
v -33 -18 91
v -34 -5 88
v -34 -7 84
v -29 -7 84
v -29 -5 88
v -34 -44 112
v -26 -44 110
v -28 -46 105
v -34 -46 105
v -33 -56 111
v -24 -56 109
v -27 -57 104
v -34 -58 105
v -35 -64 107
v -34 -62 114
v -25 -62 113
v -27 -64 107
v -26 -73 115
v -35 -73 115
v -35 -70 121
v -26 -70 121
v -25 -71 126
v -25 -77 114
v -37 -77 114
v -37 -71 126
v -34 -79 125
v -28 -79 125
v -28 -82 120
v -34 -82 120
v -34 -95 131
v -28 -95 131
v -28 -98 126
v -34 -98 126
v -34 -98 135
v -28 -98 135
v -28 -101 129
v -34 -101 129
v -34 -103 139
v -34 -99 141
v -28 -99 141
v -28 -103 139
v -28 -107 146
v -34 -107 146
v -34 -104 149
v -28 -104 149
v -28 -108 152
v -28 -109 148
v -34 -109 148
v -34 -108 152
v -28 -115 153
v -28 -113 148
v -34 -113 148
v -34 -115 153
v -34 -120 149
v -28 -120 149
v -28 -117 146
v -34 -117 146
v -28 -119 142
v -28 -123 143
v -28 -123 138
v -28 -120 138
v -34 -119 142
v -34 -123 143
v -28 -114 127
v -28 -113 130
v -28 -119 136
v -28 -122 133
v -34 -114 127
v -34 -113 130
v -34 -119 136
v -34 -123 138
v -34 -122 133
v -34 -120 138
v -32 27 63
v -32 31 68
v -31 25 70
v -31 21 65
v -37 20 65
v -38 26 63
v -38 30 69
v -37 24 71
v -34 5 84
v -28 5 84
v -28 1 81
v -34 1 81

f 1 2 3
f 1 3 4
f 1 4 5
f 1 5 2
f 2 5 6
f 2 6 7
f 2 7 3
f 3 7 8
f 3 8 4
f 4 8 9
f 4 9 5
f 5 9 6
f 6 9 10
f 6 10 11
f 6 11 7
f 7 11 12
f 7 12 13
f 7 13 8
f 8 13 10
f 8 10 9
f 14 15 16
f 14 16 17
f 14 17 18
f 14 18 19
f 14 19 20
f 14 20 15
f 15 20 21
f 15 21 22
f 15 22 23
f 15 23 16
f 16 23 24
f 16 24 25
f 16 25 17
f 17 25 26
f 17 26 27
f 17 27 28
f 17 28 18
f 18 28 22
f 18 22 19
f 19 22 29
f 19 29 30
f 19 30 31
f 19 31 32
f 19 32 20
f 20 32 33
f 20 33 21
f 21 33 29
f 21 29 22
f 22 28 23
f 23 28 24
f 24 28 27
f 24 27 34
f 24 34 25
f 25 34 35
f 25 35 26
f 26 35 36
f 26 36 37
f 26 37 27
f 27 37 34
f 34 37 38
f 34 38 35
f 35 38 39
f 35 39 36
f 36 39 40
f 36 40 37
f 37 40 41
f 37 41 38
f 38 41 42
f 38 42 43
f 38 43 44
f 38 44 39
f 39 44 45
f 39 45 40
f 40 45 41
f 41 45 42
f 42 45 46
f 42 46 47
f 42 47 43
f 43 47 48
f 43 48 49
f 43 49 44
f 44 49 46
f 44 46 45
f 46 49 50
f 46 50 51
f 46 51 47
f 47 51 52
f 47 52 48
f 48 52 53
f 48 53 49
f 49 53 50
f 50 53 54
f 50 54 55
f 50 55 51
f 51 55 56
f 51 56 52
f 52 56 57
f 52 57 53
f 53 57 54
f 54 57 58
f 54 58 55
f 55 58 59
f 55 59 56
f 56 59 60
f 56 60 57
f 57 60 61
f 57 61 58
f 58 61 62
f 58 62 63
f 58 63 59
f 59 63 60
f 60 63 64
f 60 64 65
f 60 65 61
f 61 65 62
f 62 65 66
f 62 66 67
f 62 67 63
f 63 67 68
f 63 68 64
f 64 68 69
f 64 69 65
f 65 69 66
f 66 69 70
f 66 70 71
f 66 71 67
f 67 71 72
f 67 72 68
f 68 72 73
f 68 73 69
f 69 73 70
f 70 73 74
f 70 74 75
f 70 75 71
f 71 75 76
f 71 76 77
f 71 77 72
f 72 77 73
f 73 77 74
f 74 77 78
f 74 78 79
f 74 79 75
f 75 79 80
f 75 80 76
f 76 80 77
f 77 80 81
f 77 81 78
f 78 81 82
f 78 82 83
f 78 83 79
f 79 83 84
f 79 84 80
f 80 84 85
f 80 85 82
f 80 82 81
f 86 84 83
f 86 83 87
f 86 87 88
f 86 88 89
f 86 89 90
f 86 90 84
f 84 90 85
f 85 90 82
f 82 90 91
f 82 91 87
f 82 87 83
f 92 93 94
f 92 94 95
f 92 95 96
f 92 96 97
f 92 97 93
f 93 97 98
f 93 98 94
f 94 98 89
f 94 89 88
f 94 88 95
f 95 88 99
f 95 99 100
f 95 100 96
f 96 100 97
f 97 100 98
f 98 100 99
f 98 99 101
f 98 101 89
f 89 101 90
f 90 101 91
f 91 101 99
f 91 99 87
f 87 99 88
f 33 30 29
f 102 103 104
f 102 104 105
f 102 105 106
f 102 106 107
f 102 107 12
f 102 12 11
f 102 11 103
f 103 11 10
f 103 10 13
f 103 13 108
f 103 108 104
f 104 108 109
f 104 109 110
f 104 110 111
f 104 111 105
f 105 111 112
f 105 112 113
f 105 113 106
f 106 113 110
f 106 110 109
f 106 109 107
f 107 109 108
f 107 108 12
f 12 108 13
