# RS2 Model 7382
# Vertices: 224
# Faces: 181

v 33 -31 2
v 33 -32 2
v 34 -32 2
v 34 -31 2
v 43 13 2
v 42 13 2
v 42 14 2
v -34 29 2
v -34 28 2
v -35 29 2
v -35 28 2
v -43 -16 2
v -44 -16 2
v -43 -17 2
v -40 -1 2
v -41 -2 2
v 36 -17 2
v 36 -16 2
v -37 15 2
v -37 14 2
v 39 -2 2
v 39 -1 2
v 27 16 2
v 19 -28 2
v 28 16 2
v -21 26 2
v -30 -19 2
v -29 -19 2
v -20 25 2
v -5 22 2
v -14 -22 2
v -13 -22 2
v -4 22 2
v 12 19 2
v 3 -25 2
v 4 -25 2
v 13 19 2
v 43 14 2
v -44 -17 2
v -25 22 3
v -26 21 3
v -24 19 3
v -24 20 3
v -28 20 3
v -28 19 3
v -31 22 3
v -31 21 3
v -34 21 3
v -34 22 3
v -6 -15 3
v -6 -14 3
v -8 -12 3
v -8 -13 3
v -4 -12 3
v -4 -11 3
v -1 -15 3
v -1 -14 3
v 2 -14 3
v 2 -15 3
v 30 4 3
v 30 5 3
v 29 8 3
v 28 7 3
v 33 7 3
v 33 8 3
v 35 4 3
v 35 5 3
v 38 6 3
v 38 5 3
v -1 14 3
v 0 15 3
v -2 18 3
v -2 17 3
v 2 17 3
v 2 18 3
v 5 14 3
v 5 15 3
v 8 16 3
v 8 15 3
v 5 12 1
v 5 11 1
v 7 9 1
v 7 10 1
v 3 10 1
v 2 9 1
v 0 12 1
v 0 11 1
v -3 11 1
v -3 12 1
v -32 8 3
v -30 5 3
v -30 6 3
v -32 9 3
v -35 8 3
v -36 7 3
v -27 6 3
v -26 7 3
v 26 -20 3
v 29 -24 3
v 29 -23 3
v 26 -19 3
v 23 -21 3
v 23 -22 3
v 32 -23 3
v 32 -22 3
v -19 -17 3
v -21 -13 3
v -22 -14 3
v -19 -18 3
v -16 -16 3
v -16 -15 3
v -25 -14 3
v -25 -15 3
v 16 -8 3
v 14 -5 3
v 14 -6 3
v 16 -9 3
v 19 -8 3
v 20 -7 3
v 11 -6 3
v 10 -7 3
v -33 -10 3
v -35 -6 3
v -35 -7 3
v -33 -11 3
v -30 -9 3
v -30 -8 3
v -39 -8 3
v -39 -9 3
v -34 -15 3
v -36 -11 3
v -36 -12 3
v -34 -16 3
v -31 -14 3
v -31 -13 3
v -40 -13 3
v -9 -17 3
v -9 -18 3
v 1 -20 3
v 1 -19 3
v 29 11 3
v 39 9 3
v 39 10 3
v -18 18 2
v -18 17 2
v -9 15 2
v -8 16 2
v -19 6 3
v -20 5 3
v -14 -3 3
v -13 -2 3
v -12 3 3
v -13 5 3
v -21 -1 3
v -20 -2 3
v 17 -18 3
v 16 -16 3
v 8 -22 3
v 8 -23 3
v 10 -15 3
v 9 -16 3
v 14 -24 3
v 15 -23 3
v 15 8 3
v 15 9 3
v 13 12 3
v 13 11 3
v 17 11 3
v 17 12 3
v 20 8 3
v 20 9 3
v 23 10 3
v 23 9 3
v -6 1 3
v -6 0 3
v 2 -5 3
v 2 -4 3
v 27 -3 2
v 26 -4 2
v 36 -6 2
v 36 -5 2
v 28 -8 3
v 30 -11 3
v 30 -10 3
v 28 -7 3
v 25 -8 3
v 24 -9 3
v 33 -10 3
v 34 -9 3
v -43 24 4
v -26 37 0
v -41 40 8
v -29 21 0
v -13 18 2
v -10 34 2
v 3 15 0
v 6 30 0
v 18 12 2
v 21 27 2
v 34 9 0
v 37 24 0
v 48 6 4
v 53 21 6
v -46 8 4
v -32 5 0
v -16 2 0
v -1 -1 0
v 15 -4 0
v 31 -7 0
v 43 -9 6
v -51 -7 4
v -35 -10 0
v -19 -13 2
v -4 -17 0
v 12 -20 0
v 28 -23 0
v 41 -26 4
v -52 -23 8
v -38 -26 0
v -22 -29 2
v -7 -32 0
v 9 -35 0
v 25 -39 0
v 40 -42 8

f 1 2 3
f 1 3 4
f 1 4 5
f 1 5 6
f 6 5 7
f 6 7 8
f 6 8 9
f 9 8 10
f 9 10 11
f 9 11 12
f 12 11 13
f 12 13 14
f 12 14 2
f 12 2 1
f 15 16 17
f 15 17 18
f 19 20 21
f 19 21 22
f 23 24 25
f 26 27 28
f 26 28 29
f 30 31 32
f 30 32 33
f 34 35 36
f 34 36 37
f 7 5 38
f 13 39 14
f 40 41 42
f 40 42 43
f 44 45 41
f 44 41 40
f 46 47 45
f 46 45 44
f 48 47 46
f 48 46 49
f 50 51 52
f 50 52 53
f 54 55 51
f 54 51 50
f 56 57 55
f 56 55 54
f 58 57 56
f 58 56 59
f 60 61 62
f 60 62 63
f 64 65 61
f 64 61 60
f 66 67 65
f 66 65 64
f 68 67 66
f 68 66 69
f 70 71 72
f 70 72 73
f 74 75 71
f 74 71 70
f 76 77 75
f 76 75 74
f 78 77 76
f 78 76 79
f 80 81 82
f 80 82 83
f 84 85 81
f 84 81 80
f 86 87 85
f 86 85 84
f 88 87 86
f 88 86 89
f 90 91 92
f 90 92 93
f 90 93 94
f 90 94 95
f 91 96 97
f 91 97 92
f 98 99 100
f 98 100 101
f 98 101 102
f 98 102 103
f 99 104 105
f 99 105 100
f 106 107 108
f 106 108 109
f 106 109 110
f 106 110 111
f 107 112 113
f 107 113 108
f 114 115 116
f 114 116 117
f 114 117 118
f 114 118 119
f 115 120 121
f 115 121 116
f 122 123 124
f 122 124 125
f 122 125 126
f 122 126 127
f 123 128 129
f 123 129 124
f 130 131 132
f 130 132 133
f 130 133 134
f 130 134 135
f 131 136 132
f 137 138 139
f 137 139 140
f 141 142 143
f 144 145 146
f 144 146 147
f 148 149 150
f 148 150 151
f 152 153 154
f 152 154 155
f 156 157 158
f 156 158 159
f 160 161 162
f 160 162 163
f 164 165 166
f 164 166 167
f 168 169 165
f 168 165 164
f 170 171 169
f 170 169 168
f 172 171 170
f 172 170 173
f 174 175 176
f 174 176 177
f 178 179 180
f 178 180 181
f 182 183 184
f 182 184 185
f 182 185 186
f 182 186 187
f 183 188 189
f 183 189 184
f 190 191 192
f 191 190 193
f 191 193 194
f 191 194 195
f 195 194 196
f 195 196 197
f 197 196 198
f 197 198 199
f 199 198 200
f 199 200 201
f 201 200 202
f 201 202 203
f 190 204 205
f 190 205 193
f 193 205 206
f 193 206 194
f 194 206 207
f 194 207 196
f 196 207 208
f 196 208 198
f 198 208 209
f 198 209 200
f 200 209 210
f 200 210 202
f 204 211 212
f 204 212 205
f 205 212 213
f 205 213 206
f 206 213 214
f 206 214 207
f 207 214 215
f 207 215 208
f 208 215 216
f 208 216 209
f 209 216 217
f 209 217 210
f 211 218 219
f 211 219 212
f 212 219 220
f 212 220 213
f 213 220 221
f 213 221 214
f 214 221 222
f 214 222 215
f 215 222 223
f 215 223 216
f 216 223 224
f 216 224 217
