# RS2 Model 7398
# Vertices: 178
# Faces: 334

v 12 35 60
v 2 37 63
v 10 34 77
v 25 25 75
v 27 27 58
v 21 23 44
v 7 32 47
v -3 34 49
v -13 36 69
v -4 33 83
v 2 28 90
v 21 23 84
v 30 11 84
v 33 13 75
v 35 14 58
v 29 10 44
v 11 16 33
v -3 24 36
v -18 24 42
v -18 33 56
v -29 25 61
v -24 28 75
v -16 24 89
v -9 20 96
v 12 17 97
v 21 5 97
v 27 -9 90
v 36 -3 77
v 36 -2 60
v 33 -5 47
v 19 3 33
v 2 10 29
v -16 15 34
v -28 8 40
v -30 15 47
v -37 2 53
v -31 -12 46
v -34 -14 56
v -38 1 69
v -36 12 66
v -29 25 60
v -32 14 81
v -22 12 94
v -12 0 102
v 0 9 103
v 12 12 98
v 15 6 98
v 9 -3 103
v 15 -17 96
v 28 -17 83
v 35 -12 63
v 30 -15 49
v 21 -12 36
v 10 -2 29
v -10 1 27
v -21 -6 33
v -13 -18 33
v -23 -24 46
v -26 -26 56
v -27 -27 72
v -36 -15 72
v -30 -12 87
v -33 4 84
v -20 -4 97
v -12 -17 97
v -3 -11 102
v 6 8 101
v 4 12 116
v 17 21 109
v 15 12 102
v 18 9 102
v 27 7 109
v 10 2 101
v 13 0 116
v 17 11 117
v 21 11 106
v 18 15 106
v 33 24 90
v 29 21 87
v 31 18 87
v 23 -29 56
v 27 -26 69
v 17 -33 75
v 12 -36 61
v 15 -26 42
v -3 -38 67
v 1 -35 81
v -13 -36 69
v -12 -35 53
v 3 -33 47
v 8 -21 34
v 17 -24 89
v 2 -25 94
v -2 -10 27
v -12 -3 30
v -17 -7 32
v -13 -13 32
v -3 -29 40
v -8 -33 84
v -22 -24 87
v -7 -9 30
v -8 -8 24
v -11 -4 24
v -15 0 15
v -25 -11 15
v -20 -19 15
v -6 -14 15
v -8 -8 18
v 9 3 24
v 6 7 24
v 8 8 18
v -11 -4 18
v 10 4 18
v 18 9 28
v 15 13 28
v 18 14 23
v 20 10 23
v 36 27 78
v 33 24 76
v 35 21 90
v 39 23 78
v 38 28 55
v 33 24 56
v 36 21 56
v 35 21 76
v 33 24 38
v 28 21 42
v 30 18 42
v 35 21 38
v 40 24 55
v -18 19 15
v -12 24 15
v -15 35 7
v -27 27 7
v -25 8 15
v 0 25 15
v 1 36 7
v 1 36 0
v -15 35 0
v -27 27 0
v -36 12 7
v -26 0 15
v -25 -12 15
v -20 -18 15
v -9 -25 15
v -1 -26 15
v 11 -25 15
v 18 -20 15
v 24 -9 15
v 25 -1 15
v 24 11 15
v 19 18 15
v 8 24 15
v 12 35 7
v 12 35 0
v 27 27 7
v 27 27 0
v 35 14 7
v 35 14 0
v 36 -2 7
v 36 -2 0
v 35 -12 7
v 35 -12 0
v 27 -27 7
v 27 -27 0
v 14 -36 7
v 14 -36 0
v -2 -37 7
v -2 -37 0
v -12 -36 7
v -12 -36 0
v -27 -27 7
v -27 -27 0
v -36 -15 7
v -36 -15 0
v -37 1 7
v -37 1 0
v -36 12 0

f 1 2 3
f 1 3 4
f 1 4 5
f 1 5 6
f 1 6 7
f 1 7 2
f 2 7 8
f 2 8 9
f 2 9 10
f 2 10 3
f 3 10 11
f 3 11 12
f 3 12 4
f 4 12 13
f 4 13 14
f 4 14 5
f 5 14 15
f 5 15 6
f 6 15 16
f 6 16 17
f 6 17 7
f 7 17 18
f 7 18 8
f 8 18 19
f 8 19 20
f 8 20 9
f 9 20 21
f 9 21 22
f 9 22 10
f 10 22 23
f 10 23 11
f 11 23 24
f 11 24 25
f 11 25 12
f 12 25 26
f 12 26 13
f 13 26 27
f 13 27 28
f 13 28 14
f 14 28 29
f 14 29 15
f 15 29 30
f 15 30 16
f 16 30 31
f 16 31 17
f 17 31 32
f 17 32 18
f 18 32 33
f 18 33 19
f 19 33 34
f 19 34 35
f 19 35 20
f 20 35 21
f 21 35 36
f 36 35 34
f 36 34 37
f 36 37 38
f 36 38 39
f 36 39 40
f 36 40 41
f 41 40 42
f 41 42 22
f 22 42 23
f 23 42 43
f 23 43 44
f 23 44 24
f 24 44 45
f 24 45 25
f 25 45 46
f 25 46 47
f 25 47 26
f 26 47 48
f 26 48 49
f 26 49 27
f 27 49 50
f 27 50 28
f 28 50 51
f 28 51 29
f 29 51 52
f 29 52 30
f 30 52 53
f 30 53 31
f 31 53 54
f 31 54 32
f 32 54 55
f 32 55 33
f 33 55 56
f 33 56 34
f 34 56 37
f 37 56 57
f 37 57 58
f 37 58 38
f 38 58 59
f 38 59 60
f 38 60 61
f 38 61 39
f 39 61 62
f 39 62 63
f 39 63 40
f 40 63 42
f 42 63 43
f 43 63 64
f 43 64 44
f 44 64 65
f 44 65 66
f 44 66 45
f 45 66 48
f 45 48 67
f 45 67 46
f 46 67 68
f 46 68 69
f 46 69 70
f 46 70 47
f 47 70 71
f 47 71 72
f 47 72 73
f 47 73 48
f 48 73 67
f 67 73 74
f 67 74 68
f 68 74 75
f 68 75 69
f 69 75 72
f 69 72 76
f 69 76 77
f 69 77 70
f 70 77 78
f 70 78 79
f 70 79 80
f 70 80 71
f 71 80 76
f 71 76 72
f 81 51 82
f 81 82 83
f 81 83 84
f 81 84 85
f 81 85 52
f 81 52 51
f 86 83 87
f 86 87 88
f 86 88 89
f 86 89 90
f 86 90 84
f 86 84 83
f 90 91 85
f 90 85 84
f 92 82 50
f 92 50 49
f 92 49 93
f 92 93 87
f 92 87 83
f 92 83 82
f 82 51 50
f 85 53 52
f 53 85 91
f 53 91 54
f 54 91 94
f 54 94 55
f 55 94 95
f 55 95 96
f 55 96 56
f 56 96 97
f 56 97 57
f 57 97 94
f 57 94 98
f 57 98 58
f 58 98 89
f 58 89 59
f 59 89 88
f 59 88 60
f 60 88 99
f 60 99 100
f 60 100 62
f 60 62 61
f 100 64 62
f 62 64 63
f 100 65 64
f 65 100 99
f 65 99 93
f 65 93 66
f 66 93 49
f 66 49 48
f 89 98 90
f 90 98 91
f 91 98 94
f 88 87 99
f 99 87 93
f 94 97 101
f 94 101 95
f 95 101 102
f 95 102 103
f 95 103 104
f 95 104 96
f 96 104 105
f 96 105 97
f 97 105 106
f 97 106 101
f 101 106 107
f 101 107 102
f 102 107 108
f 102 108 109
f 102 109 110
f 102 110 103
f 103 110 111
f 103 111 112
f 103 112 104
f 104 112 107
f 107 112 108
f 108 112 113
f 108 113 109
f 109 113 114
f 109 114 115
f 109 115 110
f 110 115 116
f 110 116 111
f 111 116 117
f 111 117 113
f 111 113 112
f 118 119 79
f 118 79 78
f 118 78 120
f 118 120 121
f 118 121 122
f 118 122 123
f 118 123 119
f 119 123 124
f 119 124 125
f 119 125 79
f 79 125 80
f 80 125 120
f 80 120 76
f 76 120 78
f 76 78 77
f 122 126 127
f 122 127 123
f 123 127 128
f 123 128 124
f 124 128 129
f 124 129 130
f 124 130 125
f 125 130 121
f 125 121 120
f 127 126 116
f 127 116 115
f 127 115 114
f 127 114 128
f 128 114 129
f 129 114 117
f 129 117 116
f 129 116 126
f 129 126 130
f 130 126 122
f 130 122 121
f 114 113 117
f 73 72 74
f 74 72 75
f 131 132 133
f 131 133 134
f 131 134 135
f 131 135 132
f 132 135 136
f 132 136 137
f 132 137 133
f 133 137 138
f 133 138 139
f 133 139 134
f 134 139 140
f 134 140 141
f 134 141 135
f 135 141 142
f 135 142 143
f 135 143 144
f 135 144 145
f 135 145 146
f 135 146 147
f 135 147 148
f 135 148 149
f 135 149 150
f 135 150 151
f 135 151 152
f 135 152 153
f 135 153 136
f 136 153 154
f 136 154 137
f 137 154 155
f 137 155 138
f 153 152 156
f 153 156 154
f 154 156 157
f 154 157 155
f 152 151 158
f 152 158 156
f 156 158 159
f 156 159 157
f 151 150 160
f 151 160 158
f 158 160 161
f 158 161 159
f 150 149 162
f 150 162 160
f 160 162 163
f 160 163 161
f 149 148 164
f 149 164 162
f 162 164 165
f 162 165 163
f 148 147 166
f 148 166 164
f 164 166 167
f 164 167 165
f 147 146 168
f 147 168 166
f 166 168 169
f 166 169 167
f 146 145 170
f 146 170 168
f 168 170 171
f 168 171 169
f 145 144 172
f 145 172 170
f 170 172 173
f 170 173 171
f 144 143 174
f 144 174 172
f 172 174 175
f 172 175 173
f 143 142 176
f 143 176 174
f 174 176 177
f 174 177 175
f 142 141 176
f 176 141 178
f 176 178 177
f 141 140 178
