# RS2 Model 7400
# Vertices: 276
# Faces: 479

v -4 32 8
v -4 24 8
v -4 24 120
v -4 32 128
v 4 32 8
v 4 32 128
v 4 24 8
v 4 24 120
v 4 12 116
v -4 12 116
v -4 24 128
v -4 24 184
v -4 32 192
v 4 32 192
v 4 24 128
v 4 8 124
v 4 24 184
v -4 8 124
v 4 0 184
v -4 0 184
v -4 0 188
v 4 0 188
v 0 -13 150
v 3 -17 158
v 0 -17 161
v -3 -17 158
v -11 -17 161
v -3 -17 164
v 0 -17 172
v 3 -17 164
v 11 -17 161
v 18 -8 180
v 18 4 181
v 13 5 183
v 13 -10 182
v 19 -15 167
v 28 -6 177
v 28 7 177
v 17 12 173
v 14 9 180
v 8 4 181
v 8 -8 180
v 16 -16 164
v 22 -13 160
v 25 -14 164
v 32 -11 162
v 34 -4 163
v 33 7 163
v 31 13 161
v 23 14 164
v 14 9 172
v 11 8 178
v 30 -9 158
v 34 -4 160
v 34 5 160
v 30 11 158
v 19 8 160
v 15 -1 139
v 12 -10 139
v 17 -8 132
v 21 1 133
v 15 3 139
v 18 8 160
v 18 -8 160
v 14 -11 149
v 0 -14 137
v 10 -14 130
v 11 -14 128
v 18 -8 130
v 21 1 131
v 18 10 130
v 17 10 132
v 12 10 138
v 14 10 149
v 0 14 158
v 11 11 167
v 13 9 172
v 15 -16 164
v 14 -14 159
v 14 -14 157
v 0 -14 157
v -14 -11 149
v -12 -10 139
v -10 -14 130
v 0 -17 127
v 0 -17 124
v 10 16 130
v 0 13 138
v -14 10 149
v -18 8 160
v -11 11 167
v 0 12 172
v 10 8 178
v 7 4 181
v 7 -8 180
v 0 -13 172
v 0 -16 162
v 0 -14 159
v 0 19 127
v -10 16 130
v -12 10 138
v -15 3 139
v -18 -8 160
v -13 9 172
v -10 8 178
v 0 8 179
v -7 4 181
v 5 2 189
v 3 -9 185
v -7 -8 180
v -15 -16 164
v -14 -14 159
v -14 -14 157
v 0 19 125
v -10 16 128
v -18 10 130
v -17 10 132
v -21 1 133
v -15 -1 139
v -17 -8 132
v -11 -14 128
v 10 16 128
v -21 1 131
v -18 -8 130
v -19 -15 167
v -16 -16 164
v -8 -8 180
v -13 -10 182
v -18 -8 180
v -28 -6 177
v -25 -14 164
v -22 -13 160
v -13 5 183
v -8 4 181
v -14 9 180
v -18 4 181
v -11 8 178
v -17 12 173
v -28 7 177
v -14 9 172
v -23 14 164
v -31 13 161
v -33 7 163
v -34 -4 163
v -32 -11 162
v -30 -9 158
v -34 -4 160
v -34 5 160
v -30 11 158
v -19 8 160
v -5 -19 57
v -5 -21 19
v 4 -20 18
v 3 -19 58
v -4 -18 68
v -29 -12 68
v -30 -12 57
v -30 -14 38
v 3 -18 68
v -1 -22 8
v 30 -6 33
v 26 -10 39
v -5 -18 107
v 4 -18 107
v 0 -16 111
v -34 -7 121
v -30 -11 110
v 29 -3 119
v 26 -7 111
v 25 -9 67
v 29 -6 66
v 25 -10 57
v -33 -9 68
v -33 -9 34
v 5 -4 212
v 0 2 208
v 0 0 215
v -5 -4 212
v 0 -16 208
v 7 -17 206
v 10 -6 207
v 8 4 203
v -8 4 203
v -10 -6 207
v -7 -17 206
v 0 -17 206
v 3 -20 203
v 8 -17 202
v 10 -8 198
v 10 -4 197
v 10 -2 190
v -5 2 189
v -2 3 225
v -2 12 226
v -2 6 216
v -2 9 216
v -2 17 222
v -2 17 213
v -2 8 214
v 2 9 216
v 2 8 214
v 2 17 213
v 2 17 222
v 2 12 226
v 2 6 216
v 2 3 225
v -2 13 209
v -2 7 213
v 2 7 213
v 2 13 209
v -2 11 207
v -2 6 211
v 2 6 211
v 2 11 207
v 1 17 199
v -1 17 199
v -2 8 204
v -2 6 207
v 2 6 207
v 2 8 204
v -28 -32 8
v 28 -32 8
v 28 32 8
v -28 32 8
v -32 -36 0
v 32 -36 0
v 32 32 0
v -32 32 0
v 10 -7 193
v 6 -13 188
v 0 -16 185
v -3 -9 185
v -10 -2 190
v -10 -4 197
v -10 -8 198
v -8 -17 202
v -3 -20 203
v 2 -19 193
v -10 -7 193
v -2 -19 193
v -6 -13 188
v -13 -8 126
v -15 -9 120
v -3 -11 109
v 3 -11 109
v 15 -9 120
v 13 -8 126
v 14 1 123
v 13 8 126
v 14 11 121
v 3 14 113
v -3 14 113
v -14 11 121
v -13 8 126
v -14 1 123
v -17 -9 113
v 0 9 110
v -17 9 108
v 17 9 108
v 17 -9 113
v -3 -21 203
v -3 -20 194
v -1 -20 194
v -1 -21 203
v -6 -21 203
v -6 -20 194
v -4 -20 194
v -4 -21 203
v 1 -21 203
v 1 -20 194
v 3 -20 194
v 3 -21 203
v 4 -21 203
v 4 -20 194
v 6 -20 194
v 6 -21 203

f 1 2 3
f 1 3 4
f 1 4 5
f 5 4 6
f 5 6 7
f 7 6 8
f 7 8 2
f 2 8 3
f 3 8 9
f 3 9 10
f 3 10 11
f 3 11 4
f 4 11 12
f 4 12 13
f 4 13 6
f 6 13 14
f 6 14 15
f 6 15 8
f 8 15 16
f 8 16 9
f 15 14 17
f 15 17 11
f 15 11 18
f 15 18 16
f 11 17 12
f 12 17 19
f 12 19 20
f 12 20 13
f 13 20 21
f 13 21 14
f 14 21 22
f 14 22 17
f 17 22 19
f 19 22 20
f 20 22 21
f 10 18 11
f 23 24 25
f 23 25 26
f 26 25 27
f 27 25 28
f 28 25 29
f 29 25 30
f 30 25 24
f 30 24 31
f 32 33 34
f 32 34 35
f 32 35 36
f 32 36 37
f 32 37 33
f 33 37 38
f 33 38 39
f 33 39 40
f 33 40 34
f 34 40 41
f 34 41 42
f 34 42 35
f 35 42 36
f 36 42 43
f 36 43 44
f 36 44 45
f 36 45 37
f 37 45 46
f 37 46 47
f 37 47 38
f 38 47 48
f 38 48 49
f 38 49 50
f 38 50 39
f 39 50 51
f 39 51 52
f 39 52 40
f 40 52 41
f 53 46 45
f 53 45 44
f 46 53 54
f 46 54 47
f 47 54 55
f 47 55 48
f 48 55 56
f 48 56 49
f 49 56 57
f 49 57 50
f 50 57 51
f 58 59 60
f 58 60 61
f 58 61 62
f 58 62 63
f 58 63 64
f 58 64 65
f 58 65 59
f 59 65 66
f 59 66 67
f 59 67 60
f 60 67 68
f 60 68 69
f 60 69 61
f 61 69 70
f 61 70 71
f 61 71 72
f 61 72 62
f 62 72 73
f 62 73 74
f 62 74 63
f 63 74 75
f 63 75 76
f 63 76 77
f 63 77 64
f 64 77 78
f 64 78 79
f 64 79 80
f 64 80 65
f 65 80 81
f 65 81 23
f 65 23 66
f 66 23 82
f 66 82 83
f 66 83 84
f 66 84 85
f 66 85 67
f 67 85 86
f 67 86 68
f 73 72 87
f 73 87 88
f 73 88 74
f 74 88 75
f 75 88 89
f 75 89 90
f 75 90 91
f 75 91 92
f 75 92 76
f 76 92 93
f 76 93 77
f 77 93 94
f 77 94 95
f 77 95 78
f 78 95 96
f 78 96 97
f 78 97 79
f 79 97 98
f 79 98 81
f 79 81 80
f 88 99 100
f 88 100 101
f 88 101 89
f 89 101 102
f 89 102 90
f 90 102 103
f 90 103 104
f 90 104 91
f 91 104 105
f 91 105 92
f 92 105 106
f 92 106 93
f 93 106 94
f 94 106 107
f 94 107 108
f 94 108 109
f 94 109 95
f 95 109 110
f 95 110 96
f 96 110 111
f 96 111 97
f 97 111 112
f 97 112 98
f 98 112 81
f 81 112 113
f 81 113 82
f 81 82 23
f 87 99 88
f 99 87 114
f 99 114 100
f 100 114 115
f 100 115 116
f 100 116 117
f 100 117 101
f 101 117 102
f 102 117 118
f 102 118 119
f 102 119 103
f 103 119 82
f 103 82 113
f 103 113 112
f 103 112 111
f 103 111 104
f 104 111 110
f 104 110 107
f 104 107 105
f 105 107 106
f 119 118 120
f 119 120 83
f 119 83 82
f 83 120 84
f 84 120 121
f 84 121 86
f 84 86 85
f 87 122 114
f 122 87 71
f 71 87 72
f 116 123 118
f 116 118 117
f 124 120 118
f 124 118 123
f 124 121 120
f 125 126 127
f 125 127 128
f 125 128 129
f 125 129 130
f 125 130 131
f 125 131 132
f 125 132 126
f 133 128 127
f 133 127 134
f 133 134 135
f 133 135 136
f 133 136 129
f 133 129 128
f 134 137 135
f 135 137 138
f 135 138 136
f 136 138 139
f 136 139 130
f 136 130 129
f 140 138 137
f 138 140 141
f 138 141 139
f 139 141 142
f 139 142 143
f 139 143 144
f 139 144 130
f 130 144 145
f 130 145 131
f 131 145 146
f 131 146 132
f 147 146 145
f 147 145 144
f 147 144 148
f 148 144 143
f 148 143 149
f 149 143 142
f 149 142 150
f 150 142 141
f 150 141 140
f 151 152 153
f 151 153 154
f 151 154 155
f 151 155 156
f 151 156 157
f 151 157 158
f 151 158 152
f 151 152 158
f 151 158 157
f 151 157 155
f 151 155 159
f 151 159 154
f 151 154 153
f 151 153 152
f 152 153 160
f 152 160 153
f 153 160 161
f 153 161 162
f 153 162 154
f 153 154 162
f 153 162 161
f 153 161 160
f 155 154 159
f 155 159 163
f 155 163 156
f 155 156 163
f 155 163 159
f 159 163 164
f 159 164 163
f 163 164 165
f 163 165 166
f 163 166 167
f 163 167 156
f 163 156 167
f 163 167 166
f 163 166 165
f 163 165 164
f 164 165 168
f 164 168 165
f 168 164 169
f 168 169 170
f 168 170 171
f 168 171 170
f 168 170 169
f 168 169 164
f 164 169 170
f 164 170 169
f 170 164 159
f 170 159 172
f 170 172 171
f 170 171 172
f 170 172 154
f 170 154 159
f 170 159 164
f 159 154 172
f 172 154 162
f 172 162 161
f 172 161 171
f 172 171 161
f 172 161 162
f 172 162 154
f 167 166 173
f 167 173 156
f 167 156 173
f 167 173 166
f 174 160 152
f 174 152 158
f 174 158 157
f 174 157 173
f 174 173 157
f 174 157 158
f 174 158 152
f 174 152 160
f 157 156 173
f 157 173 156
f 157 156 155
f 175 176 177
f 175 177 178
f 175 178 179
f 175 179 180
f 175 180 181
f 175 181 182
f 175 182 176
f 175 176 178
f 178 176 183
f 178 183 184
f 178 184 185
f 178 185 179
f 179 185 186
f 179 186 180
f 180 186 187
f 180 187 188
f 180 188 181
f 181 188 189
f 181 189 190
f 181 190 182
f 182 190 191
f 182 191 108
f 182 108 192
f 182 192 183
f 182 183 176
f 176 178 177
f 177 193 194
f 177 194 195
f 195 194 196
f 196 194 197
f 196 197 198
f 196 198 199
f 196 199 200
f 200 199 201
f 200 201 202
f 200 202 203
f 200 203 204
f 200 204 205
f 205 204 177
f 177 204 206
f 177 206 193
f 193 206 204
f 193 204 194
f 194 204 203
f 194 203 197
f 197 203 202
f 197 202 198
f 198 202 207
f 198 207 199
f 199 207 208
f 199 208 201
f 201 208 209
f 201 209 210
f 201 210 202
f 202 210 207
f 207 210 211
f 207 211 208
f 208 211 212
f 208 212 209
f 209 212 213
f 209 213 214
f 209 214 210
f 210 214 211
f 211 214 215
f 211 215 216
f 211 216 217
f 211 217 218
f 211 218 212
f 212 218 213
f 213 218 219
f 213 219 214
f 214 219 220
f 214 220 215
f 215 220 216
f 216 220 217
f 217 220 219
f 217 219 218
f 221 222 223
f 221 223 224
f 221 224 225
f 221 225 222
f 222 225 226
f 222 226 227
f 222 227 223
f 223 227 224
f 224 227 228
f 224 228 225
f 191 109 108
f 109 191 229
f 109 229 230
f 109 230 231
f 109 231 232
f 109 232 110
f 110 232 107
f 107 232 192
f 107 192 108
f 192 232 233
f 192 233 183
f 183 233 234
f 183 234 184
f 184 234 235
f 184 235 236
f 184 236 185
f 185 236 237
f 185 237 186
f 186 237 187
f 187 237 238
f 187 238 188
f 188 238 229
f 188 229 189
f 189 229 190
f 190 229 191
f 234 233 239
f 234 239 235
f 235 239 236
f 236 239 240
f 236 240 237
f 237 240 238
f 238 240 231
f 238 231 230
f 238 230 229
f 239 233 232
f 239 232 241
f 239 241 240
f 240 241 231
f 231 241 232
f 242 243 244
f 242 244 245
f 242 245 246
f 242 246 247
f 247 246 248
f 247 248 249
f 249 248 250
f 249 250 251
f 249 251 252
f 249 252 253
f 249 253 254
f 254 253 255
f 254 255 242
f 242 255 243
f 243 255 256
f 243 256 244
f 252 251 257
f 252 257 258
f 252 258 253
f 253 258 255
f 255 258 256
f 257 251 259
f 259 251 250
f 259 250 248
f 259 248 260
f 260 248 246
f 260 246 245
f 261 262 263
f 261 263 264
f 265 266 267
f 265 267 268
f 269 270 271
f 269 271 272
f 273 274 275
f 273 275 276
