# RS2 Model 7403
# Vertices: 36
# Faces: 46

v 56 -116 0
v 56 -108 0
v 56 -108 60
v 56 -116 60
v 48 -116 0
v 48 -116 60
v 48 -108 0
v 48 -108 60
v 60 -124 76
v 60 -124 60
v 60 -36 60
v 60 -36 76
v 44 -124 76
v 44 -124 60
v 44 -36 60
v 44 53 -7
v 60 53 -7
v 60 53 9
v 44 -36 76
v 44 53 9
v 56 -52 0
v 56 -44 0
v 56 -44 60
v 56 -52 60
v 48 -52 0
v 48 -52 60
v 48 -44 0
v 48 -44 60
v -64 -32 0
v 64 -32 0
v 64 -32 -24
v -64 -32 -24
v 64 -128 0
v 64 -128 -24
v -64 -128 0
v -64 -128 -24

f 1 2 3
f 1 3 4
f 1 4 5
f 5 4 6
f 5 6 7
f 7 6 8
f 7 8 2
f 2 8 3
f 9 10 11
f 9 11 12
f 9 12 13
f 9 13 10
f 10 13 14
f 10 14 15
f 10 15 11
f 11 15 16
f 11 16 17
f 11 17 12
f 12 17 18
f 12 18 19
f 12 19 13
f 13 19 14
f 14 19 15
f 15 19 20
f 15 20 16
f 16 20 17
f 16 17 18
f 16 18 20
f 20 18 17
f 18 20 19
f 21 22 23
f 21 23 24
f 21 24 25
f 25 24 26
f 25 26 27
f 27 26 28
f 27 28 22
f 22 28 23
f 29 30 31
f 29 31 32
f 30 33 34
f 30 34 31
f 33 35 36
f 33 36 34
f 29 35 33
f 29 33 30
