# RS2 Model 742
# Vertices: 256
# Faces: 492

v -138 36 192
v -105 74 192
v -108 76 183
v -140 39 183
v -137 -61 192
v -124 -58 202
v -126 32 202
v -101 61 202
v -38 121 192
v -38 124 183
v -40 114 136
v -106 69 136
v -136 34 136
v -138 -63 183
v -105 -96 192
v -103 -92 202
v -124 -72 280
v -156 -60 280
v -154 44 280
v -104 101 280
v -38 106 202
v 51 121 192
v 51 124 183
v 53 113 136
v 55 145 133
v -45 145 133
v -120 89 133
v -157 44 133
v -130 -59 136
v -105 -100 183
v -60 -126 192
v -63 -114 192
v -75 -90 280
v -80 -108 310
v -116 -88 310
v -148 -60 310
v -148 36 310
v -100 64 310
v -40 119 280
v 51 108 202
v 108 76 192
v 108 79 183
v 104 73 136
v 119 91 133
v 119 94 132
v 55 149 132
v -45 149 132
v -123 91 132
v -159 47 132
v -156 -71 133
v -102 -95 136
v -60 -131 183
v 54 -126 192
v 54 -114 202
v 76 -97 280
v 79 -116 310
v 56 -136 388
v -64 -120 388
v -84 -96 388
v -116 -60 388
v -116 20 388
v -76 36 388
v -40 88 310
v 64 124 280
v 101 65 202
v 128 39 192
v 132 39 183
v 119 39 136
v 141 47 133
v 146 47 132
v 136 47 117
v 117 93 117
v 55 146 117
v -45 146 117
v -117 92 117
v -156 45 117
v -158 -75 132
v -118 -116 133
v -64 -121 136
v 54 -131 183
v 99 -106 192
v 90 -101 202
v 101 -83 279
v 101 -100 306
v 80 -108 388
v 92 -108 406
v 64 -136 406
v -64 -120 406
v -80 -96 406
v -100 -60 406
v -100 20 406
v -72 38 406
v -36 48 388
v 64 92 310
v 116 109 280
v 110 39 202
v 129 -53 192
v 131 -56 183
v 122 -46 136
v 134 -56 133
v 145 -65 132
v 135 -65 117
v 152 -67 108
v 153 50 108
v 126 97 108
v 59 154 108
v -47 154 108
v -123 109 108
v -167 45 108
v -155 -75 117
v -119 -118 132
v -70 -149 133
v 54 -122 136
v 101 -108 183
v 110 -48 202
v 125 -24 279
v 128 -26 310
v 100 -24 388
v 116 -22 406
v 96 -14 484
v 76 -84 484
v 56 -108 484
v -64 -100 484
v -76 -68 484
v -88 -52 484
v -88 28 484
v -72 44 484
v -36 52 406
v 44 52 388
v 116 76 310
v 140 68 280
v 96 -101 136
v 103 -109 133
v 108 -121 132
v 106 -119 117
v 115 -132 108
v 118 -134 100
v 154 -69 100
v 155 52 100
v 126 100 100
v 59 158 100
v -47 158 100
v -124 112 100
v -169 45 100
v -165 -76 108
v -119 -119 117
v -70 -154 132
v 57 -143 133
v 58 -154 132
v 58 -147 117
v 61 -157 108
v 61 -163 100
v 62 -147 46
v 113 -123 46
v 139 -59 46
v 141 49 46
v 118 87 46
v 59 138 46
v -47 138 46
v -120 99 46
v -158 43 46
v -167 -78 100
v -124 -123 108
v -70 -147 117
v -74 -157 108
v -74 -163 100
v -74 -147 46
v -77 -183 40
v 76 -183 40
v 137 -146 40
v 141 -59 46
v 179 -73 40
v 139 49 46
v 181 55 40
v 154 110 40
v 74 177 40
v -46 177 40
v -120 98 46
v -138 123 40
v -184 48 40
v -155 -68 46
v -126 -125 100
v -122 -109 46
v -138 -135 40
v -142 -139 34
v -77 -190 34
v 76 -190 34
v 143 -151 34
v 183 -75 34
v 184 57 34
v 158 113 34
v 74 182 34
v -46 182 34
v -141 127 34
v -186 50 34
v -181 -85 40
v -130 113 -1
v -171 47 0
v -184 -89 34
v -46 158 -1
v 74 158 -1
v 141 99 -1
v 167 54 -1
v 165 -69 -1
v 133 -140 -1
v 77 -171 -1
v -77 -171 -1
v -132 -127 -1
v -170 -81 -1
v 140 50 310
v 116 28 388
v 132 28 406
v 104 36 484
v 84 36 502
v 80 -10 502
v 64 -52 502
v 44 -75 502
v -64 -68 502
v -88 -44 502
v -104 -32 502
v -104 28 502
v -84 44 502
v -36 56 484
v 52 56 406
v 88 42 388
v 104 44 406
v 88 48 484
v 72 48 502
v 28 28 742
v 40 12 742
v 36 -10 742
v 20 -40 742
v 4 -56 742
v -40 -48 742
v -56 -32 742
v -60 -28 742
v -60 0 742
v -48 24 742
v -35 47 502
v 52 60 484
v -20 36 742
v 0 40 742
v 36 60 502
v -76 64 940
v -24 104 940
v 12 108 940
v -14 -8 940
v -100 12 940
v -100 -60 940
v -84 -88 940
v -52 -104 940
v 32 -112 940
v 60 -92 940
v 76 -26 940
v 84 40 940
v 68 68 940

f 1 2 3
f 1 3 4
f 1 4 5
f 1 5 6
f 1 6 7
f 1 7 2
f 2 7 8
f 2 8 9
f 2 9 10
f 2 10 3
f 3 10 11
f 3 11 12
f 3 12 4
f 4 12 13
f 4 13 14
f 4 14 5
f 5 14 15
f 5 15 16
f 5 16 6
f 6 16 17
f 6 17 18
f 6 18 7
f 7 18 19
f 7 19 8
f 8 19 20
f 8 20 21
f 8 21 9
f 9 21 22
f 9 22 23
f 9 23 10
f 10 23 24
f 10 24 11
f 11 24 25
f 11 25 26
f 11 26 12
f 12 26 27
f 12 27 13
f 13 27 28
f 13 28 29
f 13 29 14
f 14 29 30
f 14 30 15
f 15 30 31
f 15 31 32
f 15 32 16
f 16 32 33
f 16 33 17
f 17 33 34
f 17 34 35
f 17 35 18
f 18 35 36
f 18 36 19
f 19 36 37
f 19 37 20
f 20 37 38
f 20 38 39
f 20 39 21
f 21 39 40
f 21 40 22
f 22 40 41
f 22 41 42
f 22 42 23
f 23 42 43
f 23 43 24
f 24 43 44
f 24 44 25
f 25 44 45
f 25 45 46
f 25 46 26
f 26 46 47
f 26 47 27
f 27 47 48
f 27 48 28
f 28 48 49
f 28 49 50
f 28 50 29
f 29 50 51
f 29 51 30
f 30 51 52
f 30 52 31
f 31 52 53
f 31 53 54
f 31 54 32
f 32 54 55
f 32 55 33
f 33 55 56
f 33 56 34
f 34 56 57
f 34 57 58
f 34 58 35
f 35 58 59
f 35 59 36
f 36 59 60
f 36 60 37
f 37 60 61
f 37 61 38
f 38 61 62
f 38 62 63
f 38 63 39
f 39 63 64
f 39 64 40
f 40 64 65
f 40 65 41
f 41 65 66
f 41 66 67
f 41 67 42
f 42 67 68
f 42 68 43
f 43 68 69
f 43 69 44
f 44 69 70
f 44 70 45
f 45 70 71
f 45 71 72
f 45 72 46
f 46 72 73
f 46 73 47
f 47 73 74
f 47 74 48
f 48 74 75
f 48 75 49
f 49 75 76
f 49 76 77
f 49 77 50
f 50 77 78
f 50 78 51
f 51 78 79
f 51 79 52
f 52 79 80
f 52 80 53
f 53 80 81
f 53 81 82
f 53 82 54
f 54 82 83
f 54 83 55
f 55 83 84
f 55 84 56
f 56 84 85
f 56 85 57
f 57 85 86
f 57 86 87
f 57 87 58
f 58 87 88
f 58 88 59
f 59 88 89
f 59 89 60
f 60 89 90
f 60 90 61
f 61 90 91
f 61 91 62
f 62 91 92
f 62 92 93
f 62 93 63
f 63 93 94
f 63 94 64
f 64 94 95
f 64 95 65
f 65 95 96
f 65 96 66
f 66 96 97
f 66 97 98
f 66 98 67
f 67 98 99
f 67 99 68
f 68 99 100
f 68 100 69
f 69 100 101
f 69 101 70
f 70 101 102
f 70 102 71
f 71 102 103
f 71 103 104
f 71 104 72
f 72 104 105
f 72 105 73
f 73 105 106
f 73 106 74
f 74 106 107
f 74 107 75
f 75 107 108
f 75 108 76
f 76 108 109
f 76 109 110
f 76 110 77
f 77 110 111
f 77 111 78
f 78 111 112
f 78 112 79
f 79 112 113
f 79 113 80
f 80 113 114
f 80 114 81
f 81 114 97
f 81 97 115
f 81 115 82
f 82 115 116
f 82 116 83
f 83 116 117
f 83 117 84
f 84 117 118
f 84 118 85
f 85 118 119
f 85 119 86
f 86 119 120
f 86 120 121
f 86 121 87
f 87 121 122
f 87 122 88
f 88 122 123
f 88 123 89
f 89 123 124
f 89 124 90
f 90 124 125
f 90 125 91
f 91 125 126
f 91 126 92
f 92 126 127
f 92 127 128
f 92 128 93
f 93 128 129
f 93 129 94
f 94 129 130
f 94 130 95
f 95 130 131
f 95 131 96
f 96 131 115
f 96 115 97
f 97 114 98
f 98 114 132
f 98 132 99
f 99 132 133
f 99 133 100
f 100 133 134
f 100 134 101
f 101 134 135
f 101 135 102
f 102 135 136
f 102 136 103
f 103 136 137
f 103 137 138
f 103 138 104
f 104 138 139
f 104 139 105
f 105 139 140
f 105 140 106
f 106 140 141
f 106 141 107
f 107 141 142
f 107 142 108
f 108 142 143
f 108 143 109
f 109 143 144
f 109 144 145
f 109 145 110
f 110 145 146
f 110 146 111
f 111 146 147
f 111 147 112
f 112 147 148
f 112 148 113
f 113 148 132
f 113 132 114
f 133 148 149
f 133 149 134
f 134 149 150
f 134 150 135
f 135 150 151
f 135 151 136
f 136 151 152
f 136 152 137
f 137 152 153
f 137 153 154
f 137 154 138
f 138 154 155
f 138 155 139
f 139 155 156
f 139 156 140
f 140 156 157
f 140 157 141
f 141 157 158
f 141 158 142
f 142 158 159
f 142 159 143
f 143 159 160
f 143 160 144
f 144 160 161
f 144 161 162
f 144 162 145
f 145 162 163
f 145 163 146
f 146 163 164
f 146 164 147
f 147 164 149
f 147 149 148
f 132 148 133
f 149 164 150
f 150 164 165
f 150 165 151
f 151 165 166
f 151 166 152
f 152 166 167
f 152 167 153
f 153 167 168
f 153 168 169
f 153 169 154
f 154 169 170
f 154 170 171
f 171 170 172
f 171 172 173
f 173 172 174
f 173 174 157
f 157 174 175
f 157 175 158
f 158 175 176
f 158 176 159
f 159 176 177
f 159 177 178
f 178 177 179
f 178 179 161
f 161 179 180
f 161 180 181
f 161 181 162
f 162 181 182
f 162 182 163
f 163 182 165
f 163 165 164
f 166 182 183
f 166 183 167
f 167 183 184
f 167 184 168
f 168 184 185
f 168 185 186
f 168 186 169
f 169 186 187
f 169 187 170
f 170 187 188
f 170 188 172
f 172 188 189
f 172 189 174
f 174 189 190
f 174 190 175
f 175 190 191
f 175 191 176
f 176 191 192
f 176 192 177
f 177 192 193
f 177 193 179
f 179 193 194
f 179 194 180
f 180 194 195
f 180 195 196
f 180 196 181
f 181 196 183
f 181 183 182
f 165 182 166
f 195 194 197
f 195 197 198
f 195 198 199
f 195 199 196
f 196 199 184
f 196 184 183
f 194 193 200
f 194 200 197
f 193 192 201
f 193 201 200
f 192 191 202
f 192 202 201
f 191 190 203
f 191 203 202
f 190 189 204
f 190 204 203
f 189 188 205
f 189 205 204
f 188 187 206
f 188 206 205
f 187 186 207
f 187 207 206
f 186 185 208
f 186 208 207
f 185 199 209
f 185 209 208
f 199 198 209
f 184 199 185
f 131 116 115
f 116 131 210
f 116 210 117
f 117 210 211
f 117 211 118
f 118 211 212
f 118 212 119
f 119 212 213
f 119 213 120
f 120 213 214
f 120 214 215
f 120 215 121
f 121 215 216
f 121 216 122
f 122 216 217
f 122 217 123
f 123 217 218
f 123 218 124
f 124 218 219
f 124 219 125
f 125 219 220
f 125 220 126
f 126 220 221
f 126 221 127
f 127 221 222
f 127 222 223
f 127 223 128
f 128 223 224
f 128 224 129
f 129 224 225
f 129 225 130
f 130 225 210
f 130 210 131
f 225 211 210
f 211 225 226
f 211 226 212
f 212 226 227
f 212 227 213
f 213 227 228
f 213 228 214
f 214 228 229
f 214 229 230
f 214 230 215
f 215 230 231
f 215 231 216
f 216 231 232
f 216 232 217
f 217 232 233
f 217 233 218
f 218 233 234
f 218 234 219
f 219 234 235
f 219 235 220
f 220 235 236
f 220 236 221
f 221 236 237
f 221 237 222
f 222 237 238
f 222 238 239
f 222 239 223
f 223 239 240
f 223 240 224
f 224 240 226
f 224 226 225
f 241 242 243
f 241 243 239
f 241 239 238
f 241 238 244
f 241 244 245
f 241 245 242
f 242 245 246
f 242 246 229
f 242 229 228
f 242 228 243
f 243 228 227
f 243 227 240
f 243 240 239
f 240 227 226
f 247 248 249
f 247 249 250
f 247 250 251
f 247 251 252
f 247 252 253
f 247 253 254
f 247 254 255
f 247 255 256
f 247 256 246
f 247 246 245
f 247 245 244
f 247 244 248
f 248 244 238
f 248 238 237
f 248 237 249
f 249 237 236
f 249 236 250
f 250 236 235
f 250 235 251
f 251 235 234
f 251 234 252
f 252 234 233
f 252 233 253
f 253 233 232
f 253 232 254
f 254 232 231
f 254 231 255
f 255 231 230
f 255 230 256
f 256 230 229
f 256 229 246
