# RS2 Model 7424
# Vertices: 81
# Faces: 98

v -109 9 12
v -100 -1 37
v -97 -5 39
v -106 4 12
v -128 15 0
v -125 10 0
v -128 5 0
v -109 -1 12
v -100 -9 38
v -109 -27 69
v -106 -23 69
v -93 -29 99
v -89 -25 101
v -81 -34 123
v -76 -33 125
v -81 -35 127
v -77 -34 129
v -81 -36 131
v -76 -34 131
v -77 -37 135
v -73 -35 134
v -76 -48 151
v -71 -46 151
v -69 -46 160
v -73 -47 159
v -69 -45 169
v -72 -45 160
v -74 -45 152
v -77 -34 134
v -78 -33 131
v -79 -32 130
v -78 -31 128
v -90 -24 106
v -86 -20 112
v -84 -19 109
v -95 -10 123
v -96 -11 124
v -97 -6 132
v -99 -7 133
v -97 -2 142
v -101 -6 131
v -100 -9 122
v -89 -17 107
v -93 -21 99
v -109 -20 69
v -100 -5 43
v -105 12 64
v -109 10 68
v -100 17 94
v -96 20 97
v -104 13 120
v -99 15 120
v -91 20 138
v -101 18 121
v -97 22 102
v -88 39 117
v -92 37 119
v -89 40 120
v -91 38 122
v -88 41 124
v -91 39 124
v -84 43 129
v -88 41 128
v -81 46 136
v -84 45 137
v -81 55 142
v -84 47 135
v -87 45 130
v -93 43 124
v -94 42 119
v -92 40 114
v -100 23 95
v -109 17 69
v -104 37 71
v -106 34 74
v -102 46 88
v -109 39 69
v -107 12 59
v -88 6 119
v -89 -12 114
v -93 13 92

f 1 2 3
f 1 3 4
f 1 4 5
f 5 4 6
f 6 4 7
f 7 4 8
f 8 4 3
f 8 3 9
f 9 3 10
f 10 3 11
f 10 11 12
f 12 11 13
f 12 13 14
f 14 13 15
f 14 15 16
f 16 15 17
f 16 17 18
f 18 17 19
f 18 19 20
f 20 19 21
f 20 21 22
f 22 21 23
f 22 23 24
f 22 24 25
f 25 24 26
f 26 24 27
f 27 24 23
f 27 23 28
f 28 23 21
f 28 21 29
f 29 21 19
f 29 19 30
f 30 19 17
f 30 17 31
f 31 17 15
f 31 15 32
f 32 15 13
f 32 13 33
f 33 13 34
f 34 13 35
f 34 35 36
f 34 36 37
f 37 36 38
f 37 38 39
f 39 38 40
f 40 38 41
f 41 38 42
f 42 38 36
f 42 36 35
f 42 35 43
f 43 35 13
f 43 13 44
f 44 13 11
f 44 11 45
f 45 11 3
f 45 3 46
f 46 3 47
f 46 47 48
f 48 47 49
f 49 47 50
f 49 50 51
f 51 50 52
f 51 52 53
f 53 52 54
f 54 52 50
f 54 50 55
f 55 50 56
f 55 56 57
f 57 56 58
f 57 58 59
f 59 58 60
f 59 60 61
f 61 60 62
f 61 62 63
f 63 62 64
f 63 64 65
f 65 64 66
f 66 64 67
f 67 64 68
f 68 64 62
f 68 62 69
f 69 62 60
f 69 60 70
f 70 60 58
f 70 58 71
f 71 58 56
f 71 56 50
f 71 50 72
f 72 50 47
f 72 47 73
f 73 47 74
f 73 74 75
f 75 74 76
f 76 74 77
f 77 74 47
f 77 47 78
f 78 47 3
f 78 3 2
