# RS2 Model 7459
# Vertices: 99
# Faces: 180

v -44 45 16
v -50 48 0
v -48 41 0
v -42 40 16
v -54 50 36
v -49 53 37
v -39 49 16
v -44 53 0
v -36 42 17
v -39 44 0
v -55 12 0
v -49 12 10
v -47 16 10
v -51 18 0
v -40 13 10
v -44 13 0
v -45 8 10
v -49 7 0
v 18 50 12
v 16 45 0
v 13 54 0
v 15 57 12
v 11 41 27
v 7 41 27
v 12 49 11
v 9 44 0
v 9 54 12
v 6 51 0
v -57 16 23
v -59 12 23
v -61 12 37
v -59 15 37
v -51 13 24
v -55 8 24
v -46 47 38
v -52 54 57
v -48 49 56
v -52 45 37
v -54 47 57
v -56 51 57
v -45 51 73
v -43 46 70
v -48 44 72
v 9 47 28
v 8 45 42
v 9 40 42
v 5 39 43
v 4 45 27
v -54 13 36
v -58 9 37
v -48 13 45
v -51 9 47
v -53 12 48
v 3 43 43
v 11 50 53
v 13 45 54
v 9 45 54
v 7 49 54
v -52 15 47
v -43 15 54
v -39 12 53
v -42 9 54
v -45 12 54
v -49 48 74
v -40 43 85
v -37 46 84
v -34 42 82
v -39 39 84
v -39 40 95
v -40 44 94
v -37 46 95
v -35 42 96
v -41 45 105
v -45 43 105
v -46 47 104
v -43 49 104
v -45 46 107
v 12 57 63
v 17 58 61
v 19 53 62
v 14 53 64
v 14 53 70
v 12 56 70
v 17 58 71
v 18 53 70
v 14 48 78
v 10 48 78
v 9 51 78
v 13 52 79
v 11 49 80
v -45 12 60
v -43 15 61
v -39 12 62
v -43 9 61
v -49 10 68
v -51 12 67
v -49 14 67
v -46 12 68
v -49 12 69

f 1 2 3
f 1 3 4
f 1 4 5
f 1 5 6
f 1 6 7
f 1 7 2
f 2 7 8
f 8 7 9
f 8 9 10
f 10 9 4
f 10 4 3
f 11 12 13
f 11 13 14
f 14 13 15
f 14 15 16
f 16 15 17
f 16 17 18
f 18 17 12
f 18 12 11
f 19 20 21
f 19 21 22
f 19 22 23
f 19 23 24
f 19 24 25
f 19 25 20
f 20 25 26
f 26 25 27
f 26 27 28
f 28 27 22
f 28 22 21
f 29 13 12
f 29 12 30
f 29 30 31
f 29 31 32
f 29 32 33
f 29 33 13
f 13 33 15
f 15 33 34
f 15 34 17
f 17 34 30
f 17 30 12
f 35 9 7
f 35 7 6
f 35 6 36
f 35 36 37
f 35 37 38
f 35 38 9
f 9 38 4
f 4 38 5
f 5 38 39
f 5 39 40
f 5 40 6
f 6 40 36
f 36 40 41
f 36 41 42
f 36 42 37
f 37 42 43
f 37 43 39
f 37 39 38
f 22 44 23
f 23 44 45
f 23 45 46
f 23 46 24
f 24 46 47
f 24 47 48
f 24 48 25
f 25 48 27
f 27 48 44
f 27 44 22
f 49 50 34
f 49 34 33
f 49 33 32
f 49 32 51
f 49 51 52
f 49 52 50
f 50 52 53
f 50 53 31
f 50 31 30
f 50 30 34
f 44 48 54
f 44 54 45
f 45 54 55
f 45 55 56
f 45 56 46
f 46 56 57
f 46 57 47
f 47 57 58
f 47 58 54
f 47 54 48
f 32 59 51
f 51 59 60
f 51 60 61
f 51 61 52
f 52 61 62
f 52 62 53
f 53 62 63
f 53 63 59
f 53 59 31
f 31 59 32
f 39 43 64
f 39 64 40
f 40 64 41
f 41 64 65
f 41 65 66
f 41 66 42
f 42 66 67
f 42 67 43
f 43 67 68
f 43 68 64
f 64 68 65
f 65 68 69
f 65 69 70
f 65 70 66
f 66 70 71
f 66 71 67
f 67 71 72
f 67 72 68
f 68 72 69
f 69 72 73
f 69 73 74
f 69 74 70
f 70 74 75
f 70 75 71
f 71 75 76
f 71 76 72
f 72 76 73
f 73 76 77
f 73 77 74
f 74 77 75
f 75 77 76
f 54 58 55
f 55 58 78
f 55 78 79
f 55 79 56
f 56 79 80
f 56 80 57
f 57 80 81
f 57 81 58
f 58 81 78
f 78 81 82
f 78 82 83
f 78 83 79
f 79 83 84
f 79 84 80
f 80 84 85
f 80 85 81
f 81 85 82
f 82 85 86
f 82 86 87
f 82 87 83
f 83 87 88
f 83 88 84
f 84 88 89
f 84 89 85
f 85 89 86
f 86 89 90
f 86 90 87
f 87 90 88
f 88 90 89
f 63 60 59
f 60 63 91
f 60 91 92
f 60 92 61
f 61 92 93
f 61 93 62
f 62 93 94
f 62 94 63
f 63 94 91
f 91 94 95
f 91 95 96
f 91 96 92
f 92 96 97
f 92 97 93
f 93 97 98
f 93 98 94
f 94 98 95
f 95 98 99
f 95 99 96
f 96 99 97
f 97 99 98
