# RS2 Model 7461
# Vertices: 255
# Faces: 484

v -6 -6 40
v -6 -15 62
v 16 -6 40
v 0 -20 25
v -5 -20 21
v 0 -30 29
v 5 -20 21
v 5 -13 25
v 0 -14 28
v -5 -13 25
v -5 -13 20
v -5 -21 17
v -3 -34 25
v -5 -30 30
v -5 -24 32
v 5 -24 32
v 5 -30 30
v 3 -34 25
v 5 -21 17
v 5 -13 20
v 13 -1 25
v 13 -3 35
v 0 -4 40
v -13 -3 35
v -13 -1 25
v 0 -2 12
v 0 -13 14
v 0 -23 10
v 0 -35 20
v -12 -37 21
v -2 -37 28
v -10 -37 33
v -13 -33 35
v -15 -26 37
v -15 -18 39
v -5 -16 34
v 5 -16 34
v 15 -26 37
v 13 -33 35
v 10 -37 33
v 2 -37 28
v 12 -37 21
v 22 8 24
v 16 10 39
v 0 5 46
v -16 10 39
v -22 8 24
v 0 10 7
v 0 21 6
v 19 18 22
v 13 20 36
v 0 16 47
v -13 20 36
v -19 18 22
v -5 -36 53
v 5 -36 53
v 5 -26 61
v -5 -26 61
v -15 -25 56
v -15 -35 51
v -5 -41 51
v 5 -41 51
v 15 -35 51
v 15 -25 56
v 11 -16 57
v 4 -18 61
v -4 -18 61
v -11 -16 57
v -14 -13 51
v -19 -21 48
v -19 -30 44
v -10 -39 47
v -6 -43 51
v -5 -43 48
v -3 -41 46
v 3 -41 46
v 5 -43 48
v 6 -43 51
v 10 -39 47
v 19 -30 44
v 19 -21 48
v 14 -13 51
v 8 -11 51
v 6 -12 55
v 2 -12 58
v -2 -12 58
v -6 -12 55
v -8 -11 51
v -6 -9 48
v -11 -11 44
v -16 -36 40
v -10 -41 43
v -9 -42 48
v 15 -18 39
v 11 -11 44
v 6 -9 48
v 0 -9 52
v -2 -8 46
v -4 -9 40
v 4 -9 40
v 2 -8 46
v 24 66 32
v 30 56 33
v 30 56 30
v 27 56 31
v 27 56 35
v 31 49 34
v 31 50 29
v 27 49 30
v 27 50 35
v 28 40 32
v 29 44 25
v 24 44 29
v 23 44 34
v 25 33 30
v 25 37 23
v 19 38 25
v 19 36 31
v 15 24 28
v 0 31 11
v 9 30 28
v -30 56 30
v -30 56 33
v -24 66 32
v -27 56 31
v -27 49 30
v -31 50 29
v -31 49 34
v -27 56 35
v -27 50 35
v -24 44 29
v -29 44 25
v -28 40 32
v -23 44 34
v -19 38 25
v -25 37 23
v -25 33 30
v -19 36 31
v -9 30 28
v -15 24 28
v 0 31 38
v 0 37 30
v -8 37 22
v 0 35 11
v 8 37 22
v 0 42 9
v 5 53 11
v 5 45 14
v -5 45 14
v -5 53 11
v 0 49 7
v 4 59 9
v 0 58 11
v 0 51 13
v 0 45 18
v -4 59 9
v 0 58 6
v 2 65 10
v 0 65 12
v -2 65 10
v 0 65 9
v 0 74 15
v 1 -40 25
v -1 -40 25
v -10 -36 17
v -24 -34 13
v -25 -38 11
v -11 -41 19
v -1 -39 33
v -5 -41 34
v -6 -42 37
v -12 -39 38
v 1 -39 33
v 0 -42 28
v 11 -41 19
v 25 -38 11
v 24 -34 13
v 10 -36 17
v 22 -34 10
v 28 -31 3
v 26 -39 5
v 31 -39 14
v 33 -31 13
v -1 -45 22
v 0 -45 25
v 1 -45 22
v 2 -48 26
v 3 -51 20
v -3 -51 20
v -2 -48 26
v 2 -51 28
v 0 -56 26
v -2 -51 28
v -2 -49 46
v 2 -49 46
v 0 -52 48
v -3 -53 50
v -3 -47 52
v 3 -47 52
v 3 -53 50
v -2 -60 51
v 0 -51 56
v 0 -59 57
v 2 -60 51
v -1 -69 50
v 33 -36 7
v 38 -48 4
v 27 -49 4
v 32 -49 12
v -22 -34 10
v -33 -31 13
v -31 -39 14
v -26 -39 5
v -28 -31 3
v -33 -36 7
v -32 -49 12
v -27 -49 4
v -38 -48 4
v 30 -62 10
v 33 -63 5
v 27 -62 5
v 25 -72 9
v -30 -62 10
v -27 -62 5
v -33 -63 5
v -25 -72 9
v 0 -70 53
v 1 -69 50
v 0 -76 46
v -4 6 0
v 4 6 0
v 0 0 0
v -5 -43 39
v -8 -44 39
v -11 -42 39
v -10 -43 41
v 0 -44 34
v -1 -44 40
v 1 -44 40
v 10 -41 43
v 9 -42 48
v 5 -41 34
v 6 -42 37
v 5 -43 39
v 12 -39 38
v 8 -44 39
v 16 -36 40
v 10 -43 41
v 11 -42 39
v -15 -35 27
v 7 -35 22
v -8 -44 53
v 7 43 16
v -10 42 17
v 10 28 35

f 1 2 3
f 4 5 6
f 4 6 7
f 4 7 8
f 4 8 9
f 4 9 10
f 4 10 5
f 5 10 11
f 5 11 12
f 5 12 13
f 5 13 6
f 6 13 14
f 6 14 15
f 6 15 16
f 6 16 17
f 6 17 18
f 6 18 19
f 6 19 7
f 7 19 20
f 7 20 8
f 8 20 21
f 8 21 22
f 8 22 9
f 9 22 23
f 9 23 24
f 9 24 10
f 10 24 25
f 10 25 11
f 11 25 26
f 11 26 27
f 11 27 12
f 12 27 28
f 12 28 29
f 12 29 13
f 13 29 30
f 13 30 31
f 13 31 32
f 13 32 33
f 13 33 14
f 14 33 34
f 14 34 15
f 15 34 35
f 15 35 36
f 15 36 16
f 16 36 37
f 16 37 38
f 16 38 39
f 16 39 17
f 17 39 40
f 17 40 18
f 18 40 41
f 18 41 42
f 18 42 29
f 18 29 28
f 18 28 19
f 19 28 27
f 19 27 20
f 20 27 26
f 20 26 21
f 21 26 43
f 21 43 22
f 22 43 44
f 22 44 45
f 22 45 23
f 23 45 24
f 24 45 46
f 24 46 47
f 24 47 25
f 25 47 26
f 26 47 48
f 26 48 43
f 43 48 49
f 43 49 50
f 43 50 51
f 43 51 44
f 44 51 52
f 44 52 45
f 45 52 46
f 46 52 53
f 46 53 47
f 47 53 54
f 47 54 49
f 47 49 48
f 55 56 57
f 55 57 58
f 55 58 59
f 55 59 60
f 55 60 61
f 55 61 56
f 56 61 62
f 56 62 63
f 56 63 64
f 56 64 57
f 57 64 65
f 57 65 66
f 57 66 58
f 58 66 67
f 58 67 68
f 58 68 59
f 59 68 69
f 59 69 70
f 59 70 60
f 60 70 71
f 60 71 72
f 60 72 61
f 61 72 73
f 61 73 74
f 61 74 75
f 61 75 62
f 62 75 76
f 62 76 77
f 62 77 78
f 62 78 79
f 62 79 63
f 63 79 80
f 63 80 81
f 63 81 64
f 64 81 82
f 64 82 65
f 65 82 83
f 65 83 84
f 65 84 66
f 66 84 85
f 66 85 67
f 67 85 86
f 67 86 87
f 67 87 68
f 68 87 88
f 68 88 69
f 69 88 89
f 69 89 90
f 69 90 70
f 70 90 35
f 70 35 71
f 71 35 34
f 71 34 91
f 71 91 72
f 72 91 92
f 72 92 75
f 72 75 74
f 72 74 93
f 72 93 73
f 73 93 74
f 80 38 94
f 80 94 81
f 81 94 95
f 81 95 82
f 82 95 96
f 82 96 83
f 83 96 97
f 83 97 84
f 84 97 85
f 85 97 86
f 86 97 87
f 87 97 88
f 88 97 89
f 89 97 98
f 89 98 99
f 89 99 90
f 90 99 36
f 90 36 35
f 37 94 38
f 94 37 100
f 94 100 95
f 95 100 101
f 95 101 96
f 96 101 97
f 97 101 98
f 98 101 100
f 98 100 99
f 99 100 37
f 99 37 36
f 102 103 104
f 102 104 105
f 102 105 106
f 102 106 103
f 103 106 107
f 103 107 104
f 104 107 108
f 104 108 109
f 104 109 105
f 105 109 106
f 106 109 110
f 106 110 107
f 107 110 111
f 107 111 108
f 108 111 112
f 108 112 113
f 108 113 109
f 109 113 110
f 110 113 114
f 110 114 111
f 111 114 115
f 111 115 112
f 112 115 116
f 112 116 117
f 112 117 113
f 113 117 114
f 114 117 118
f 114 118 115
f 115 118 119
f 115 119 50
f 115 50 116
f 116 50 49
f 116 49 120
f 116 120 117
f 117 120 121
f 117 121 118
f 118 121 119
f 119 121 51
f 119 51 50
f 122 123 124
f 122 124 125
f 122 125 126
f 122 126 127
f 122 127 128
f 122 128 123
f 123 128 129
f 123 129 124
f 124 129 125
f 125 129 126
f 126 129 130
f 126 130 131
f 126 131 127
f 127 131 132
f 127 132 133
f 127 133 128
f 128 133 130
f 128 130 129
f 130 134 131
f 131 134 135
f 131 135 132
f 132 135 136
f 132 136 137
f 132 137 133
f 133 137 134
f 133 134 130
f 134 138 135
f 135 138 139
f 135 139 120
f 135 120 136
f 136 120 49
f 136 49 54
f 136 54 137
f 137 54 140
f 137 140 138
f 137 138 134
f 139 138 140
f 139 140 53
f 139 53 141
f 139 141 142
f 139 142 143
f 139 143 120
f 120 143 144
f 120 144 145
f 120 145 121
f 121 145 142
f 121 142 141
f 121 141 51
f 51 141 52
f 52 141 53
f 53 140 54
f 146 147 148
f 146 148 144
f 146 144 149
f 146 149 150
f 146 150 151
f 146 151 147
f 147 151 152
f 147 152 153
f 147 153 154
f 147 154 148
f 148 154 155
f 148 155 145
f 148 145 144
f 149 155 154
f 149 154 150
f 150 154 153
f 150 153 156
f 150 156 151
f 151 156 157
f 151 157 152
f 152 157 158
f 152 158 159
f 152 159 153
f 153 159 156
f 156 159 160
f 156 160 157
f 157 160 161
f 157 161 158
f 158 161 162
f 158 162 159
f 159 162 160
f 160 162 161
f 155 142 145
f 142 155 143
f 143 155 149
f 143 149 144
f 29 163 164
f 29 164 165
f 29 165 30
f 30 165 166
f 30 166 167
f 30 167 168
f 30 168 31
f 31 168 164
f 31 164 169
f 31 169 170
f 31 170 32
f 32 170 171
f 32 171 172
f 32 172 33
f 33 172 91
f 33 91 34
f 41 173 174
f 41 174 163
f 41 163 175
f 41 175 42
f 42 175 176
f 42 176 177
f 42 177 178
f 42 178 29
f 29 178 163
f 163 178 175
f 175 178 179
f 175 179 176
f 176 179 180
f 176 180 181
f 176 181 182
f 176 182 177
f 177 182 183
f 177 183 179
f 177 179 178
f 174 173 169
f 174 169 164
f 174 164 184
f 174 184 185
f 174 185 163
f 163 185 186
f 163 186 184
f 163 184 164
f 186 187 188
f 186 188 189
f 186 189 184
f 184 189 185
f 185 189 190
f 185 190 187
f 185 187 186
f 191 192 188
f 191 188 187
f 191 187 193
f 191 193 194
f 191 194 195
f 191 195 192
f 192 195 196
f 192 196 193
f 192 193 190
f 192 190 189
f 192 189 188
f 187 190 193
f 196 194 193
f 194 196 197
f 194 197 198
f 194 198 195
f 195 198 199
f 195 199 196
f 196 199 200
f 196 200 197
f 197 200 201
f 197 201 202
f 197 202 198
f 198 202 199
f 199 202 200
f 200 202 203
f 200 203 204
f 200 204 201
f 201 204 205
f 201 205 203
f 201 203 202
f 183 180 179
f 180 183 206
f 180 206 181
f 181 206 207
f 181 207 208
f 181 208 209
f 181 209 182
f 182 209 206
f 182 206 183
f 164 168 165
f 165 168 210
f 165 210 166
f 166 210 211
f 166 211 212
f 166 212 167
f 167 212 213
f 167 213 214
f 167 214 210
f 167 210 168
f 210 214 211
f 211 214 215
f 211 215 212
f 212 215 216
f 212 216 213
f 213 216 217
f 213 217 218
f 213 218 215
f 213 215 214
f 209 207 206
f 207 209 219
f 207 219 220
f 207 220 208
f 208 220 221
f 208 221 219
f 208 219 209
f 222 219 221
f 222 221 220
f 222 220 219
f 215 218 216
f 216 218 223
f 216 223 217
f 217 223 224
f 217 224 225
f 217 225 218
f 218 225 223
f 223 225 226
f 223 226 224
f 224 226 225
f 227 228 204
f 227 204 203
f 227 203 205
f 227 205 229
f 227 229 228
f 228 229 205
f 228 205 204
f 230 231 232
f 172 171 233
f 172 233 234
f 172 234 235
f 172 235 236
f 172 236 92
f 172 92 91
f 233 171 237
f 233 237 238
f 233 238 92
f 233 92 234
f 234 92 236
f 234 236 235
f 238 75 92
f 75 238 76
f 76 238 239
f 76 239 240
f 76 240 79
f 76 79 77
f 77 79 241
f 77 241 78
f 78 241 79
f 171 170 237
f 237 170 169
f 237 169 173
f 237 173 242
f 237 242 243
f 237 243 244
f 237 244 239
f 237 239 238
f 244 243 245
f 244 245 246
f 244 246 240
f 244 240 239
f 240 245 247
f 240 247 79
f 79 247 80
f 80 247 38
f 38 247 39
f 39 247 245
f 39 245 40
f 40 245 243
f 40 243 242
f 40 242 41
f 41 242 173
f 246 248 240
f 240 248 245
f 245 248 249
f 245 249 246
f 246 249 248
