# RS2 Model 7481
# Vertices: 46
# Faces: 62

v 10 -2 190
v 9 -2 191
v 10 -3 192
v 10 -9 192
v 10 -9 189
v 10 -13 192
v 9 -12 189
v 8 -15 189
v 9 -16 192
v 4 -19 192
v 4 -18 189
v 0 -19 189
v 0 -20 192
v -4 -19 192
v -4 -18 189
v -8 -15 189
v -9 -16 192
v -10 -13 192
v -9 -12 189
v -10 -9 189
v -10 -9 192
v -10 -2 190
v -10 -3 192
v -9 -2 191
v -9 -9 192
v -8 -12 192
v -6 -14 192
v -4 -16 192
v -2 -17 198
v -2 -15 198
v 0 -16 192
v 0 -15 199
v 2 -15 198
v 4 -16 192
v 6 -14 192
v 8 -12 192
v 9 -9 192
v 0 -17 199
v 2 -17 198
v -2 -21 193
v 0 -21 191
v 2 -21 193
v 0 -18 197
v -2 -20 192
v 0 -20 191
v 2 -20 192

f 1 2 3
f 1 3 4
f 1 4 5
f 5 4 6
f 5 6 7
f 7 6 8
f 8 6 9
f 8 9 10
f 8 10 11
f 11 10 12
f 12 10 13
f 12 13 14
f 12 14 15
f 15 14 16
f 16 14 17
f 16 17 18
f 16 18 19
f 19 18 20
f 20 18 21
f 20 21 22
f 22 21 23
f 22 23 24
f 24 23 25
f 25 23 21
f 25 21 18
f 25 18 26
f 26 18 27
f 27 18 17
f 27 17 28
f 28 17 14
f 28 14 29
f 28 29 30
f 28 30 31
f 31 30 32
f 31 32 33
f 31 33 34
f 34 33 10
f 34 10 9
f 34 9 35
f 35 9 6
f 35 6 36
f 36 6 4
f 36 4 37
f 37 4 3
f 37 3 2
f 38 32 30
f 38 30 29
f 38 29 13
f 38 13 39
f 38 39 32
f 32 39 33
f 33 39 10
f 10 39 13
f 13 29 14
f 40 41 42
f 40 42 43
f 40 43 44
f 40 44 41
f 41 44 45
f 41 45 42
f 42 45 46
f 42 46 43
