# RS2 Model 7494
# Vertices: 84
# Faces: 130

v 3 -10 198
v 4 -11 195
v 4 -10 195
v 3 -9 198
v 0 -9 199
v 1 -10 198
v 3 -12 195
v 1 -12 192
v 4 -12 192
v 4 -10 192
v 0 -10 192
v 0 -10 196
v 0 -8 199
v -3 -9 198
v -3 -10 198
v -1 -10 198
v 1 -12 195
v 2 -12 195
v 2 -13 195
v 3 -13 195
v 0 -12 192
v 4 -11 189
v 6 -10 189
v 6 -10 191
v 5 -9 191
v 7 -9 191
v 6 -8 191
v 9 -7 191
v 8 -6 191
v 10 -5 191
v 9 -4 191
v 11 -2 191
v 10 -2 191
v 11 1 191
v 10 1 191
v 10 2 190
v 9 6 190
v 10 5 191
v 10 6 189
v 11 2 189
v 11 -2 189
v 10 -5 189
v 9 -7 189
v 7 -9 189
v 0 -10 190
v 4 -10 190
v -4 -10 195
v -4 -11 195
v -2 -11 197
v -1 -12 195
v 0 -12 195
v 0 -13 195
v 1 -13 195
v -1 -12 192
v -4 -12 192
v -4 -11 189
v -4 -10 190
v -4 -10 192
v -2 -12 195
v -2 -13 195
v -1 -13 195
v -3 -12 193
v -10 6 189
v -10 5 191
v -9 6 190
v -10 1 191
v -10 2 190
v -10 -2 191
v -11 1 191
v -11 -2 191
v -9 -4 191
v -10 -5 191
v -8 -6 191
v -9 -7 191
v -6 -8 191
v -7 -9 191
v -5 -9 191
v -6 -10 191
v -6 -10 189
v -11 -2 189
v -11 2 189
v -7 -9 189
v -9 -7 189
v -10 -5 189

f 1 2 3
f 1 3 4
f 1 4 5
f 1 5 6
f 1 6 7
f 1 7 2
f 2 7 8
f 2 8 9
f 2 9 10
f 2 10 3
f 3 10 11
f 3 11 12
f 3 12 4
f 4 12 13
f 4 13 5
f 5 13 14
f 5 14 15
f 5 15 16
f 5 16 6
f 6 16 17
f 6 17 18
f 6 18 19
f 6 19 20
f 6 20 7
f 7 20 8
f 8 20 19
f 8 19 18
f 8 18 21
f 8 21 9
f 9 21 22
f 9 22 23
f 9 23 24
f 9 24 10
f 10 24 25
f 25 24 26
f 25 26 27
f 27 26 28
f 27 28 29
f 29 28 30
f 29 30 31
f 31 30 32
f 31 32 33
f 33 32 34
f 33 34 35
f 33 35 36
f 36 35 37
f 37 35 38
f 37 38 39
f 39 38 40
f 40 38 34
f 40 34 41
f 41 34 32
f 41 32 30
f 41 30 42
f 42 30 43
f 43 30 28
f 43 28 44
f 44 28 26
f 44 26 23
f 23 26 24
f 22 21 45
f 22 45 46
f 15 14 47
f 15 47 48
f 15 48 49
f 15 49 16
f 16 49 50
f 16 50 51
f 16 51 52
f 16 52 53
f 16 53 17
f 17 53 54
f 17 54 18
f 18 54 21
f 21 54 55
f 21 55 56
f 21 56 57
f 21 57 45
f 11 58 47
f 11 47 12
f 12 47 14
f 12 14 13
f 49 48 59
f 49 59 60
f 49 60 61
f 49 61 50
f 50 61 62
f 50 62 54
f 50 54 51
f 51 54 52
f 52 54 53
f 48 47 58
f 48 58 55
f 48 55 62
f 48 62 59
f 59 62 60
f 60 62 61
f 62 55 54
f 63 64 65
f 65 64 66
f 65 66 67
f 67 66 68
f 68 66 69
f 68 69 70
f 68 70 71
f 71 70 72
f 71 72 73
f 73 72 74
f 73 74 75
f 75 74 76
f 75 76 77
f 77 76 78
f 77 78 58
f 58 78 55
f 55 78 79
f 55 79 56
f 80 70 69
f 80 69 81
f 81 69 64
f 81 64 63
f 79 78 76
f 79 76 82
f 82 76 74
f 82 74 83
f 83 74 72
f 83 72 84
f 84 72 80
f 80 72 70
f 69 66 64
f 34 38 35
