# RS2 Model 7549
# Vertices: 55
# Faces: 82

v -7 11 8
v -2 7 8
v -2 7 2
v -7 11 2
v -10 11 0
v -10 11 10
v -1 4 10
v -1 4 0
v -16 -7 10
v -15 -6 1
v -11 -1 3
v -11 -1 7
v -15 2 7
v -22 -2 10
v -20 -8 8
v -19 -7 3
v -22 -5 8
v -21 -4 3
v -21 -1 1
v -21 -1 2
v -18 1 3
v -15 2 3
v -18 1 7
v -20 0 5
v -20 1 7
v -21 -1 8
v -20 1 3
v -14 3 3
v -10 0 3
v -10 0 7
v -14 3 7
v 5 2 2
v 5 2 8
v 12 3 8
v 12 3 2
v 14 1 0
v 5 1 0
v 5 1 10
v 14 1 10
v 13 -8 7
v 13 -8 3
v 7 -8 3
v 7 -8 7
v 15 -17 10
v 13 -9 7
v 8 -9 7
v 7 -18 10
v 14 -19 8
v 15 -15 1
v 13 -9 3
v 8 -9 3
v 7 -16 1
v 11 -19 3
v 10 -20 8
v 14 -18 3

f 1 2 3
f 1 3 4
f 1 4 5
f 1 5 6
f 1 6 2
f 2 6 7
f 2 7 3
f 3 7 8
f 3 8 4
f 4 8 5
f 9 10 11
f 9 11 12
f 9 12 13
f 9 13 14
f 9 14 15
f 9 15 10
f 10 15 16
f 16 15 17
f 16 17 18
f 18 17 14
f 18 14 19
f 19 14 20
f 19 20 21
f 19 21 22
f 22 21 23
f 22 23 13
f 22 13 11
f 11 13 12
f 23 24 25
f 23 25 26
f 23 26 13
f 13 26 14
f 14 26 20
f 20 26 24
f 20 24 27
f 20 27 21
f 21 27 24
f 21 24 23
f 24 26 25
f 15 14 17
f 28 29 30
f 28 30 31
f 28 31 6
f 28 6 5
f 31 30 7
f 31 7 6
f 30 29 8
f 30 8 7
f 32 33 34
f 32 34 35
f 32 35 36
f 32 36 37
f 32 37 33
f 33 37 38
f 33 38 34
f 34 38 39
f 34 39 35
f 35 39 36
f 36 39 40
f 36 40 41
f 41 40 42
f 42 40 43
f 42 43 38
f 42 38 37
f 44 45 46
f 44 46 47
f 44 47 48
f 44 48 49
f 44 49 50
f 44 50 45
f 45 50 46
f 46 50 51
f 46 51 52
f 46 52 47
f 47 52 53
f 47 53 54
f 47 54 48
f 48 54 55
f 48 55 49
f 55 54 53
f 39 38 43
f 39 43 40
