# RS2 Model 7598
# Vertices: 184
# Faces: 180

v 64 -64 0
v 64 64 0
v 41 64 64
v 41 -64 64
v 56 64 128
v 56 -64 128
v 32 64 240
v 34 -64 240
v 0 -64 240
v 0 64 240
v -12 -64 240
v -12 64 240
v -25 -64 240
v -25 64 240
v -37 -64 240
v -37 64 240
v -52 -64 240
v -52 64 240
v -64 -64 240
v -64 64 240
v 60 64 35
v 61 -18 32
v 63 -13 7
v 64 64 1
v 51 64 0
v 47 64 33
v 48 -18 30
v 50 -13 6
v 61 -25 33
v 64 -64 1
v 64 -20 2
v 51 -20 1
v 48 -25 31
v 60 -64 35
v 47 -64 33
v 51 -64 0
v 51 -18 71
v 51 -62 69
v 57 -60 44
v 58 -13 43
v 47 -12 40
v 38 -18 69
v 38 -62 66
v 58 -60 43
v 47 -60 38
v 59 64 43
v 49 59 73
v 49 -9 73
v 60 -4 39
v 38 -9 71
v 48 -4 35
v 52 44 215
v 48 -14 235
v 51 -17 219
v 34 -15 233
v 39 -16 216
v 48 48 237
v 34 48 235
v 51 50 219
v 52 64 215
v 48 64 237
v 48 52 237
v 35 52 235
v 39 50 216
v 48 -19 233
v 48 -64 237
v 52 -64 215
v 51 -22 221
v 39 -21 216
v 35 -21 233
v 35 -64 235
v 39 -64 212
v 7 -10 248
v 28 -11 246
v 37 55 246
v 2 60 248
v 6 -12 238
v 33 -13 237
v 35 55 238
v 1 60 239
v 8 -19 248
v 5 -64 250
v 36 -64 247
v 34 -22 246
v 33 -22 238
v 3 -19 239
v 5 -64 238
v 39 44 212
v 35 64 235
v 64 -64 138
v 59 -64 174
v 46 -64 172
v 52 -64 136
v 52 64 136
v 46 64 172
v 59 64 174
v 64 64 138
v 64 35 140
v 59 35 174
v 47 31 173
v 51 30 139
v 39 64 212
v 59 -64 178
v 53 -59 212
v 39 -59 209
v 46 -64 176
v 47 60 176
v 40 60 209
v 54 60 212
v 60 60 181
v 59 32 182
v 53 26 211
v 40 24 205
v 46 30 176
v 61 -64 108
v 51 -64 139
v 49 -64 109
v 49 64 109
v 51 64 139
v 61 64 108
v 62 38 109
v 64 37 134
v 51 37 135
v 49 38 110
v 47 -64 74
v 59 -64 100
v 46 -64 104
v 36 -64 80
v 36 64 80
v 46 64 104
v 59 64 100
v 47 64 74
v 49 20 76
v 59 22 104
v 48 22 108
v 37 20 82
v 37 -52 82
v 44 -51 98
v 55 -51 93
v 49 -52 76
v 36 15 84
v 46 15 106
v 59 15 102
v 49 16 76
v 59 -48 100
v 47 -44 74
v 45 -48 104
v 35 -44 80
v 38 59 71
v 47 64 38
v 35 -64 238
v 58 -38 178
v 54 -30 206
v 45 -36 180
v 39 -27 212
v 59 -36 173
v 47 -37 170
v 64 -37 140
v 51 -35 139
v 64 -36 134
v 51 -36 135
v 61 -40 108
v 49 -40 109
v 64 23 128
v 64 13 110
v 56 13 110
v 56 23 128
v 64 23 176
v 46 23 176
v 64 16 207
v 46 16 207
v 64 -20 207
v 46 -20 207
v 64 -30 176
v 46 -30 176
v 64 -31 128
v 56 -31 128
v 64 -19 110
v 56 -19 110
v 35 62 240
v -79 64 240
v 28 65 236
v 28 -58 237
v 60 58 -24

f 1 2 3
f 1 3 4
f 4 3 5
f 4 5 6
f 6 5 7
f 6 7 8
f 8 7 9
f 9 7 10
f 9 10 11
f 11 10 12
f 11 12 13
f 13 12 14
f 13 14 15
f 15 14 16
f 15 16 17
f 17 16 18
f 17 18 19
f 19 18 20
f 21 22 23
f 21 23 24
f 21 24 25
f 21 25 26
f 21 26 22
f 22 26 27
f 22 27 23
f 23 27 28
f 29 30 31
f 29 31 32
f 29 32 33
f 29 33 34
f 29 34 30
f 30 34 35
f 30 35 36
f 37 38 39
f 37 39 40
f 37 40 41
f 37 41 42
f 37 42 38
f 38 42 43
f 38 43 44
f 44 43 45
f 46 47 48
f 46 48 49
f 49 48 50
f 49 50 51
f 52 53 54
f 54 53 55
f 54 55 56
f 52 57 53
f 53 57 58
f 53 58 55
f 59 60 61
f 59 61 62
f 59 62 63
f 59 63 64
f 65 66 67
f 65 67 68
f 65 68 69
f 65 69 70
f 65 70 66
f 66 70 71
f 66 71 67
f 67 71 72
f 73 74 75
f 73 75 76
f 73 76 77
f 73 77 74
f 74 77 78
f 74 78 75
f 75 78 79
f 75 79 76
f 76 79 80
f 76 80 77
f 81 82 83
f 81 83 84
f 81 84 85
f 81 85 86
f 81 86 87
f 81 87 82
f 57 52 88
f 57 88 58
f 62 61 89
f 62 89 63
f 90 91 92
f 90 92 93
f 94 95 96
f 94 96 97
f 97 96 98
f 98 96 99
f 98 99 100
f 98 100 101
f 102 89 61
f 102 61 60
f 103 104 105
f 103 105 106
f 107 108 109
f 107 109 110
f 110 109 111
f 111 109 112
f 111 112 113
f 111 113 114
f 115 90 116
f 115 116 117
f 118 119 97
f 118 97 120
f 120 97 121
f 121 97 122
f 121 122 123
f 121 123 124
f 125 126 127
f 125 127 128
f 129 130 131
f 129 131 132
f 132 131 133
f 133 131 134
f 133 134 135
f 133 135 136
f 137 138 139
f 137 139 140
f 140 139 125
f 125 139 126
f 126 139 138
f 126 138 127
f 141 142 143
f 141 143 144
f 144 143 145
f 144 145 146
f 146 145 147
f 146 147 148
f 142 147 145
f 142 145 143
f 130 135 134
f 130 134 131
f 149 48 47
f 149 47 150
f 150 47 46
f 149 50 48
f 33 35 34
f 9 151 83
f 9 83 82
f 84 151 85
f 151 84 83
f 152 153 104
f 152 104 103
f 153 152 154
f 153 154 155
f 153 155 104
f 104 155 105
f 112 109 108
f 112 108 113
f 99 96 95
f 99 95 100
f 90 156 91
f 91 156 157
f 91 157 92
f 90 158 156
f 156 158 159
f 156 159 157
f 115 160 90
f 90 160 161
f 90 161 116
f 115 162 160
f 160 162 163
f 160 163 161
f 119 122 97
f 122 119 123
f 164 165 166
f 164 166 167
f 164 167 168
f 168 167 169
f 168 169 170
f 170 169 171
f 170 171 172
f 172 171 173
f 172 173 174
f 174 173 175
f 174 175 176
f 176 175 177
f 176 177 178
f 178 177 179
