# RS2 Model 7705
# Vertices: 49
# Faces: 78

v -64 128 0
v 64 128 0
v 64 -128 0
v -64 -128 0
v 64 -129 0
v 64 -129 109
v 44 -127 109
v 44 -127 0
v 44 -116 99
v 44 -104 92
v 44 -64 0
v 44 -93 99
v 44 -1 109
v 44 -1 0
v 64 1 109
v 64 1 0
v 64 -64 0
v 64 -105 109
v 64 -129 240
v 44 -127 235
v 44 -117 120
v 44 -120 109
v 38 -113 109
v 38 -110 104
v 38 -104 101
v 38 -99 104
v 44 -89 109
v 44 -93 120
v 44 -64 235
v 44 -1 235
v 64 1 240
v 64 -64 240
v 44 -104 126
v 38 -104 118
v 38 -111 115
v 38 -107 112
v 38 -108 109
v 38 -107 107
v 38 -104 106
v 38 -102 107
v 38 -97 109
v 38 -99 114
v 58 -105 109
v 38 -101 109
v 38 -102 112
v 38 -104 113
v 40 -131 124
v 40 -75 127
v 40 -131 87

f 1 2 3
f 1 3 4
f 5 6 7
f 5 7 8
f 8 7 9
f 8 9 10
f 8 10 11
f 11 10 12
f 11 12 13
f 11 13 14
f 14 13 15
f 14 15 16
f 16 15 17
f 17 15 18
f 17 18 5
f 5 18 6
f 6 18 19
f 6 19 20
f 6 20 7
f 7 20 21
f 7 21 22
f 7 22 9
f 9 22 23
f 9 23 24
f 9 24 10
f 10 24 25
f 10 25 12
f 12 25 26
f 12 26 27
f 12 27 13
f 13 27 28
f 13 28 29
f 13 29 30
f 13 30 31
f 13 31 15
f 15 31 32
f 15 32 18
f 18 32 19
f 19 32 29
f 19 29 20
f 20 29 33
f 20 33 21
f 21 33 34
f 21 34 35
f 21 35 22
f 22 35 23
f 23 35 36
f 23 36 37
f 23 37 24
f 24 37 38
f 24 38 25
f 25 38 39
f 25 39 26
f 26 39 40
f 26 40 41
f 26 41 27
f 27 41 28
f 28 41 42
f 28 42 33
f 28 33 29
f 32 31 30
f 32 30 29
f 38 37 43
f 38 43 39
f 39 43 40
f 40 43 44
f 40 44 41
f 41 44 42
f 42 44 45
f 42 45 34
f 42 34 33
f 36 43 37
f 43 36 46
f 43 46 45
f 43 45 44
f 35 34 46
f 35 46 36
f 45 46 34
