# RS2 Model 7773
# Vertices: 181
# Faces: 125

v 44 -37 9
v 34 -43 1
v 51 -50 1
v 50 -25 1
v 34 18 13
v 44 -9 1
v 50 24 1
v 23 40 3
v 15 9 1
v -6 49 7
v 1 42 1
v -7 59 1
v -8 48 1
v -40 40 9
v -51 36 1
v -33 29 1
v -36 54 1
v -2 -48 9
v -13 -52 1
v 9 -56 1
v -2 -32 1
v -53 -48 7
v -62 -52 1
v -44 -58 1
v -47 -37 1
v -26 -25 9
v -24 -41 1
v -12 -20 1
v -28 -12 1
v -42 -27 1
v -5 6 9
v -24 3 1
v 3 2 1
v -2 27 1
v 51 48 7
v 41 52 1
v 54 38 1
v 54 49 1
v -64 64 0
v -64 -64 0
v 64 -64 0
v 64 64 0
v -51 19 1
v -51 17 1
v -47 19 1
v -32 -53 1
v -32 -50 1
v -34 -53 1
v -26 -37 3
v -28 -34 1
v -32 -37 1
v -31 -43 1
v -24 -43 1
v -21 -37 1
v -23 -34 1
v -51 -34 1
v -53 -34 1
v -51 -36 1
v -53 -27 3
v -56 -23 1
v -59 -27 1
v -57 -32 1
v -51 -32 1
v -47 -27 1
v -50 -23 1
v -55 -12 1
v -57 -12 1
v -55 -14 1
v -36 -21 1
v -38 -21 1
v -36 -24 1
v -17 -13 3
v -17 -10 1
v -19 -13 1
v -18 -16 1
v -14 -16 1
v -12 -13 1
v -13 -10 1
v -38 -3 1
v -42 -3 1
v -38 -6 1
v -21 19 3
v -37 24 1
v -37 7 1
v -19 1 1
v -4 10 1
v -4 29 1
v -17 36 1
v -56 5 1
v -56 3 1
v -53 5 1
v -57 2 3
v -57 4 1
v -61 2 1
v -59 -1 1
v -55 -1 1
v -52 2 1
v -53 4 1
v -44 46 3
v -47 50 1
v -52 42 1
v -51 38 1
v -40 38 1
v -36 46 1
v -38 50 1
v -31 52 1
v -31 49 1
v -27 52 1
v 3 50 3
v 3 53 1
v 0 50 1
v 1 47 1
v 5 47 1
v 9 50 1
v 6 53 1
v 19 49 1
v 16 49 1
v 19 47 1
v 50 40 3
v 48 46 1
v 44 40 1
v 47 35 1
v 53 35 1
v 56 40 1
v 54 46 1
v 49 17 1
v 47 17 1
v 49 14 1
v -1 20 1
v -1 18 1
v 1 20 1
v 22 26 3
v 11 18 1
v 24 12 1
v 35 14 1
v 35 32 1
v 22 39 1
v 11 34 1
v 23 27 1
v 20 27 1
v 23 25 1
v 3 -1 1
v 3 1 1
v 0 -1 1
v 16 -8 3
v 13 -3 1
v 11 -8 1
v 12 -13 1
v 19 -13 1
v 22 -8 1
v 20 -3 1
v 35 -6 1
v 32 -6 1
v 35 -9 1
v 50 -3 3
v 44 5 1
v 38 -6 1
v 41 -16 1
v 57 -16 1
v 63 -3 1
v 60 5 1
v 23 -36 1
v 23 -34 1
v 20 -36 1
v 0 -37 3
v -8 -45 1
v 3 -52 1
v 13 -49 1
v 13 -31 1
v 0 -24 1
v -8 -30 1
v 43 -45 3
v 43 -42 1
v 41 -45 1
v 42 -49 1
v 47 -49 1
v 49 -45 1
v 48 -42 1
v 1 -41 1
v 1 -37 1
v -1 -41 1

f 1 2 3
f 1 3 4
f 1 4 2
f 5 6 7
f 5 7 8
f 5 8 9
f 5 9 6
f 10 11 12
f 10 12 13
f 10 13 11
f 14 15 16
f 14 16 17
f 14 17 15
f 18 19 20
f 18 20 21
f 18 21 19
f 22 23 24
f 22 24 25
f 22 25 23
f 26 27 28
f 26 28 29
f 26 29 30
f 26 30 27
f 31 32 33
f 31 33 34
f 31 34 32
f 35 36 37
f 35 37 38
f 35 38 36
f 39 40 41
f 39 41 42
f 43 44 45
f 46 47 48
f 49 50 51
f 49 51 52
f 49 52 53
f 49 53 54
f 49 54 55
f 49 55 50
f 56 57 58
f 59 60 61
f 59 61 62
f 59 62 63
f 59 63 64
f 59 64 65
f 59 65 60
f 66 67 68
f 69 70 71
f 72 73 74
f 72 74 75
f 72 75 76
f 72 76 77
f 72 77 78
f 72 78 73
f 79 80 81
f 82 83 84
f 82 84 85
f 82 85 86
f 82 86 87
f 82 87 88
f 82 88 83
f 89 90 91
f 92 93 94
f 92 94 95
f 92 95 96
f 92 96 97
f 92 97 98
f 92 98 93
f 99 100 101
f 99 101 102
f 99 102 103
f 99 103 104
f 99 104 105
f 99 105 100
f 106 107 108
f 109 110 111
f 109 111 112
f 109 112 113
f 109 113 114
f 109 114 115
f 109 115 110
f 116 117 118
f 119 120 121
f 119 121 122
f 119 122 123
f 119 123 124
f 119 124 125
f 119 125 120
f 126 127 128
f 129 130 131
f 132 133 134
f 132 134 135
f 132 135 136
f 132 136 137
f 132 137 138
f 132 138 133
f 139 140 141
f 142 143 144
f 145 146 147
f 145 147 148
f 145 148 149
f 145 149 150
f 145 150 151
f 145 151 146
f 152 153 154
f 155 156 157
f 155 157 158
f 155 158 159
f 155 159 160
f 155 160 161
f 155 161 156
f 162 163 164
f 165 166 167
f 165 167 168
f 165 168 169
f 165 169 170
f 165 170 171
f 165 171 166
f 172 173 174
f 172 174 175
f 172 175 176
f 172 176 177
f 172 177 178
f 172 178 173
f 179 180 181
