# RS2 Model 7872
# Vertices: 248
# Faces: 432

v 11 18 22
v 11 21 19
v 9 13 12
v 7 10 17
v 10 13 11
v 12 19 18
v 18 25 22
v 14 22 16
v 12 16 8
v 8 6 2
v 7 4 5
v 8 2 8
v 9 4 5
v 9 0 2
v 1 0 27
v 0 2 27
v 0 0 18
v 0 -4 18
v 1 2 27
v 6 3 33
v 1 5 27
v 0 5 17
v 3 4 5
v 1 0 5
v 2 0 5
v 1 -3 6
v 5 0 0
v -13 5 22
v -16 3 21
v -12 4 13
v -9 6 15
v -12 5 13
v -15 4 21
v -19 7 27
v -19 3 20
v -16 3 11
v -12 7 2
v -9 7 3
v -7 9 5
v -9 9 4
v -9 12 0
v 0 19 20
v 0 16 21
v 0 12 14
v 1 16 12
v -1 12 14
v -1 21 27
v -1 15 23
v -4 9 16
v -7 6 6
v -5 8 5
v -5 11 3
v -6 9 5
v -10 8 2
v -25 0 14
v -19 0 7
v -16 0 11
v -23 0 17
v -29 -5 21
v -16 1 11
v -8 -3 4
v -10 -4 2
v -8 -4 4
v -5 -3 7
v -13 0 15
v -21 -1 20
v -5 -7 1
v -5 -3 25
v -8 0 17
v -4 -3 16
v -4 -4 25
v -4 -9 31
v -3 -3 25
v -3 -2 16
v -5 -4 5
v -8 -2 5
v -5 -5 5
v -3 -7 4
v 0 -5 16
v -1 -6 25
v -7 -6 0
v 0 -11 24
v -4 -7 16
v -1 -10 14
v 0 -13 22
v 0 -17 28
v 1 -12 22
v 0 -9 14
v -5 -8 3
v -8 -6 5
v -6 -9 4
v -3 -11 2
v 2 -13 12
v 2 -15 21
v -9 -10 0
v -16 -7 23
v -13 -8 24
v -9 -7 17
v -13 -6 16
v -9 -9 16
v -13 -9 24
v -17 -12 28
v -11 -11 24
v -6 -11 17
v -4 -12 7
v -5 -9 5
v -9 -7 4
v -6 -10 5
v -7 -12 1
v -4 5 23
v -1 7 15
v -5 4 15
v -6 5 23
v -9 7 28
v -6 4 22
v -4 3 15
v -5 5 4
v -2 7 5
v -6 6 4
v -9 5 4
v -8 2 14
v -9 3 22
v -6 8 0
v -22 4 18
v -15 5 14
v -18 6 9
v -24 4 15
v -30 6 19
v -24 3 15
v -18 4 10
v -10 7 4
v -9 9 7
v -12 9 4
v -12 8 1
v -21 6 6
v -27 4 13
v -9 11 1
v 9 -19 14
v 5 -14 7
v 3 -11 11
v 8 -17 17
v 15 -19 21
v 7 -17 17
v 2 -12 11
v 3 -2 5
v 1 0 7
v 2 -8 16
v 8 -15 20
v 5 1 1
v 4 -3 2
v 11 -7 25
v 8 -5 17
v 9 0 18
v 11 -4 26
v 17 -6 30
v 10 -4 26
v 7 -1 18
v 6 2 6
v 7 0 4
v 8 2 6
v 9 6 7
v 9 3 19
v 12 -1 27
v 10 3 1
v 4 -18 18
v 5 -19 15
v 1 -14 10
v 0 -12 14
v 0 -15 9
v 3 -20 15
v 5 -26 18
v 5 -22 13
v 1 -18 6
v -3 -11 1
v -4 -9 4
v -6 -9 7
v -4 -10 4
v -7 -9 1
v -18 -3 19
v -16 -2 20
v -12 -1 13
v -16 -1 11
v -12 -2 14
v -16 -3 20
v -19 -6 25
v -14 -3 22
v -8 -3 15
v -4 -5 6
v -6 -4 4
v -9 -5 3
v -7 -5 4
v -5 -8 1
v 5 19 12
v 3 15 6
v 2 12 9
v 3 18 14
v 2 24 17
v 4 17 14
v 3 12 9
v -3 7 4
v -3 9 1
v -4 8 4
v -5 5 6
v 0 10 13
v 2 16 17
v -7 7 1
v -4 16 20
v -4 13 14
v -7 11 15
v -6 14 21
v -7 19 25
v -6 13 21
v -7 10 15
v -9 8 5
v -7 10 3
v -9 9 5
v -12 7 6
v -11 9 15
v -9 14 22
v -11 10 1
v 9 -12 20
v 6 -11 12
v 4 -7 15
v 7 -10 22
v 12 -11 27
v 6 -11 22
v 3 -7 14
v 3 -1 5
v 5 -3 3
v 4 0 5
v 2 2 7
v 3 -3 17
v 6 -8 24
v 6 2 2
v 4 7 23
v 3 2 16
v 4 6 14
v 6 9 21
v 10 11 27
v 4 10 22
v 3 7 14
v 5 2 3
v 5 0 5
v 6 2 4
v 6 5 2
v 4 11 12
v 6 13 21
v 9 0 0

f 1 2 3
f 1 3 4
f 1 4 5
f 1 5 6
f 1 6 7
f 1 7 2
f 2 7 8
f 2 8 9
f 2 9 3
f 3 9 10
f 3 10 11
f 3 11 4
f 4 11 12
f 4 12 13
f 4 13 5
f 5 13 10
f 5 10 9
f 5 9 6
f 6 9 8
f 6 8 7
f 12 11 14
f 12 14 13
f 13 14 10
f 10 14 11
f 15 16 17
f 15 17 18
f 15 18 17
f 15 17 19
f 15 19 20
f 15 20 16
f 16 20 21
f 16 21 22
f 16 22 17
f 17 22 23
f 17 23 24
f 17 24 18
f 17 18 25
f 17 25 23
f 17 23 22
f 17 22 19
f 19 22 21
f 19 21 20
f 24 26 18
f 18 26 25
f 25 26 27
f 25 27 23
f 23 27 24
f 24 27 26
f 28 29 30
f 28 30 31
f 28 31 32
f 28 32 33
f 28 33 34
f 28 34 29
f 29 34 35
f 29 35 36
f 29 36 30
f 30 36 37
f 30 37 38
f 30 38 31
f 31 38 39
f 31 39 40
f 31 40 32
f 32 40 37
f 32 37 36
f 32 36 33
f 33 36 35
f 33 35 34
f 39 38 41
f 39 41 40
f 40 41 37
f 37 41 38
f 42 43 44
f 42 44 45
f 42 45 46
f 42 46 43
f 42 43 47
f 42 47 43
f 43 47 48
f 43 48 49
f 43 49 44
f 44 49 50
f 44 50 51
f 44 51 45
f 45 51 52
f 45 52 53
f 45 53 46
f 46 53 50
f 46 50 49
f 46 49 43
f 43 49 48
f 43 48 47
f 52 51 54
f 52 54 53
f 53 54 50
f 50 54 51
f 55 56 57
f 55 57 58
f 55 58 59
f 55 59 58
f 55 58 60
f 55 60 56
f 56 60 61
f 56 61 62
f 56 62 63
f 56 63 57
f 57 63 64
f 57 64 65
f 57 65 58
f 58 65 66
f 58 66 59
f 58 59 66
f 58 66 65
f 58 65 60
f 60 65 64
f 60 64 61
f 61 64 67
f 61 67 62
f 62 67 63
f 63 67 64
f 68 69 70
f 68 70 71
f 68 71 72
f 68 72 73
f 68 73 74
f 68 74 69
f 69 74 75
f 69 75 76
f 69 76 77
f 69 77 70
f 70 77 78
f 70 78 79
f 70 79 71
f 71 79 80
f 71 80 72
f 72 80 73
f 73 80 79
f 73 79 74
f 74 79 78
f 74 78 75
f 75 78 81
f 75 81 76
f 76 81 77
f 77 81 78
f 82 83 84
f 82 84 85
f 82 85 86
f 82 86 87
f 82 87 88
f 82 88 83
f 83 88 89
f 83 89 90
f 83 90 91
f 83 91 84
f 84 91 92
f 84 92 93
f 84 93 85
f 85 93 94
f 85 94 86
f 86 94 87
f 87 94 93
f 87 93 88
f 88 93 92
f 88 92 89
f 89 92 95
f 89 95 90
f 90 95 91
f 91 95 92
f 96 97 98
f 96 98 99
f 96 99 100
f 96 100 101
f 96 101 102
f 96 102 97
f 97 102 103
f 97 103 104
f 97 104 98
f 98 104 105
f 98 105 106
f 98 106 99
f 99 106 107
f 99 107 108
f 99 108 100
f 100 108 105
f 100 105 104
f 100 104 101
f 101 104 103
f 101 103 102
f 107 106 109
f 107 109 108
f 108 109 105
f 105 109 106
f 110 111 112
f 110 112 113
f 110 113 114
f 110 114 115
f 110 115 116
f 110 116 111
f 111 116 117
f 111 117 118
f 111 118 119
f 111 119 112
f 112 119 120
f 112 120 121
f 112 121 113
f 113 121 122
f 113 122 114
f 114 122 115
f 115 122 121
f 115 121 116
f 116 121 120
f 116 120 117
f 117 120 123
f 117 123 118
f 118 123 119
f 119 123 120
f 124 125 126
f 124 126 127
f 124 127 128
f 124 128 129
f 124 129 130
f 124 130 125
f 125 130 131
f 125 131 132
f 125 132 133
f 125 133 126
f 126 133 134
f 126 134 135
f 126 135 127
f 127 135 136
f 127 136 128
f 128 136 129
f 129 136 135
f 129 135 130
f 130 135 134
f 130 134 131
f 131 134 137
f 131 137 132
f 132 137 133
f 133 137 134
f 138 139 140
f 138 140 141
f 138 141 142
f 138 142 143
f 138 143 144
f 138 144 139
f 139 144 145
f 139 145 140
f 140 145 146
f 140 146 147
f 140 147 141
f 141 147 148
f 141 148 142
f 142 148 143
f 143 148 147
f 143 147 144
f 144 147 146
f 144 146 145
f 145 146 149
f 145 149 146
f 149 145 150
f 149 150 145
f 145 150 139
f 145 139 150
f 151 152 153
f 151 153 154
f 151 154 155
f 151 155 156
f 151 156 157
f 151 157 152
f 152 157 158
f 152 158 159
f 152 159 160
f 152 160 153
f 153 160 161
f 153 161 162
f 153 162 154
f 154 162 163
f 154 163 155
f 155 163 156
f 156 163 162
f 156 162 157
f 157 162 161
f 157 161 158
f 158 161 164
f 158 164 159
f 159 164 160
f 160 164 161
f 165 166 167
f 165 167 168
f 165 168 169
f 165 169 170
f 165 170 171
f 165 171 166
f 166 171 172
f 166 172 173
f 166 173 167
f 167 173 174
f 167 174 175
f 167 175 168
f 168 175 176
f 168 176 177
f 168 177 169
f 169 177 174
f 169 174 173
f 169 173 170
f 170 173 172
f 170 172 171
f 176 175 178
f 176 178 177
f 177 178 174
f 174 178 175
f 179 180 181
f 179 181 182
f 179 182 183
f 179 183 184
f 179 184 185
f 179 185 180
f 180 185 186
f 180 186 187
f 180 187 181
f 181 187 188
f 181 188 189
f 181 189 182
f 182 189 190
f 182 190 191
f 182 191 183
f 183 191 188
f 183 188 187
f 183 187 184
f 184 187 186
f 184 186 185
f 190 189 192
f 190 192 191
f 191 192 188
f 188 192 189
f 193 194 195
f 193 195 196
f 193 196 197
f 193 197 198
f 193 198 199
f 193 199 194
f 194 199 200
f 194 200 201
f 194 201 202
f 194 202 195
f 195 202 203
f 195 203 204
f 195 204 196
f 196 204 205
f 196 205 197
f 197 205 198
f 198 205 204
f 198 204 199
f 199 204 203
f 199 203 200
f 200 203 206
f 200 206 201
f 201 206 202
f 202 206 203
f 207 208 209
f 207 209 210
f 207 210 211
f 207 211 212
f 207 212 213
f 207 213 208
f 208 213 214
f 208 214 215
f 208 215 216
f 208 216 209
f 209 216 217
f 209 217 218
f 209 218 210
f 210 218 219
f 210 219 211
f 211 219 212
f 212 219 218
f 212 218 213
f 213 218 217
f 213 217 214
f 214 217 220
f 214 220 215
f 215 220 216
f 216 220 217
f 221 222 223
f 221 223 224
f 221 224 225
f 221 225 226
f 221 226 227
f 221 227 222
f 222 227 228
f 222 228 229
f 222 229 230
f 222 230 223
f 223 230 231
f 223 231 232
f 223 232 224
f 224 232 233
f 224 233 225
f 225 233 226
f 226 233 232
f 226 232 227
f 227 232 231
f 227 231 228
f 228 231 234
f 228 234 229
f 229 234 230
f 230 234 231
f 235 236 237
f 235 237 238
f 235 238 239
f 235 239 240
f 235 240 241
f 235 241 236
f 236 241 242
f 236 242 243
f 236 243 244
f 236 244 237
f 237 244 245
f 237 245 246
f 237 246 238
f 238 246 247
f 238 247 239
f 239 247 240
f 240 247 246
f 240 246 241
f 241 246 245
f 241 245 242
f 242 245 248
f 242 248 243
f 243 248 244
f 244 248 245
