# RS2 Model 7904
# Vertices: 225
# Faces: 376

v 0 0 133
v 0 0 140
v 2 0 133
v 0 -2 118
v 0 0 118
v -3 0 118
v -3 -2 118
v 0 -2 96
v 0 0 97
v -3 0 96
v -3 -2 96
v 2 0 75
v 2 0 76
v 0 0 75
v 6 0 53
v 6 3 53
v 3 3 53
v 3 0 53
v 6 0 29
v 6 3 29
v 2 3 29
v 2 0 30
v 2 -2 0
v 2 2 0
v -2 2 0
v -2 -2 0
v 0 -12 89
v 0 -8 90
v 3 -6 89
v 5 -10 86
v 0 -18 87
v -2 -19 87
v -5 -12 90
v -3 -6 91
v 0 -2 90
v 0 -8 92
v 0 -13 90
v 0 -20 87
v 3 -18 85
v 0 -23 82
v -3 0 106
v -8 0 107
v -6 5 106
v -1 3 103
v -4 4 107
v -7 9 106
v -13 5 106
v -8 9 104
v -2 9 101
v -16 11 103
v -16 17 97
v -11 13 102
v -11 15 102
v -8 14 99
v 0 0 134
v 2 -3 134
v 0 -3 137
v 0 -1 137
v 2 -3 137
v 0 -7 138
v 2 -9 134
v 0 -6 138
v -2 -4 139
v 0 -13 136
v -4 -17 138
v 0 -11 138
v 0 -13 138
v -3 -11 139
v -4 0 142
v -8 0 147
v -4 6 146
v -2 2 142
v 0 0 138
v 0 2 144
v -2 4 147
v -8 10 151
v -10 6 150
v -8 10 150
v -6 14 147
v 0 10 143
v 0 6 140
v -12 14 151
v -12 12 151
v -14 15 151
v -12 15 150
v 1 -3 54
v 3 2 55
v -1 0 56
v -6 -2 55
v -2 -7 52
v -12 -4 51
v -9 -9 49
v -16 -7 45
v -12 0 49
v -7 3 52
v -2 4 54
v -1 7 20
v 2 0 20
v 2 9 23
v 2 18 23
v -5 17 18
v 3 27 16
v -1 25 14
v 4 31 7
v 8 25 14
v 10 15 19
v 8 6 20
v 19 -5 26
v 12 0 28
v 12 -12 30
v 18 -18 25
v 21 -14 23
v 21 -23 16
v 12 -20 23
v 5 -14 26
v 3 -7 28
v 9 -5 31
v 5 0 29
v 10 11 70
v 5 6 71
v 14 4 73
v 23 8 70
v 19 11 67
v 27 9 63
v 23 2 67
v 15 -1 70
v 9 -1 71
v 9 2 73
v 2 0 71
v 4 0 46
v 8 0 44
v 10 1 49
v 6 -2 44
v 4 -7 48
v 3 -3 50
v 4 -4 45
v 3 0 43
v 12 3 47
v 13 0 50
v 10 0 53
v 11 0 46
v 15 -5 43
v 10 -6 42
v 9 -10 45
v 12 -10 48
v 9 -7 52
v 7 -5 54
v 5 -8 50
v 0 -5 49
v 1 0 52
v 2 0 49
v 6 2 51
v 13 0 54
v 11 -5 54
v 13 -2 52
v 16 -7 47
v 13 -9 44
v 7 -7 56
v 5 -1 54
v 4 0 53
v 7 0 54
v 2 -1 113
v 5 -1 108
v 7 0 112
v 2 0 115
v 1 -4 118
v -1 -6 115
v 5 -1 116
v 10 -2 110
v 8 -9 107
v 4 -7 105
v 8 -5 106
v 7 0 107
v 0 -1 107
v -1 0 111
v -2 -7 117
v 0 -11 116
v 0 -10 110
v 1 -8 118
v 9 -11 120
v 12 -5 119
v 16 -6 115
v 14 -12 112
v 2 -13 112
v 4 -12 108
v 5 -8 103
v 0 -4 104
v -1 -2 107
v -3 -4 111
v -1 -13 110
v -1 -7 108
v 0 2 73
v 5 4 78
v 4 6 73
v 0 1 70
v -2 6 71
v -4 3 76
v 0 6 71
v 6 8 76
v 3 11 82
v 2 6 83
v 6 8 81
v 8 5 77
v 2 1 79
v 0 0 77
v -7 3 75
v -6 8 78
v -3 6 82
v -5 8 75
v -3 16 72
v 0 14 70
v 4 16 73
v 2 17 78
v -3 11 81
v 0 10 84
v 3 7 85
v 2 1 83
v 0 0 80
v -2 1 78
v -4 7 83
v -2 1 82
v 14 -11 117
v 11 -15 116
v 0 18 73
v -2 17 77

f 1 2 3
f 1 3 2
f 3 1 4
f 3 4 5
f 3 5 6
f 3 6 1
f 1 6 7
f 1 7 4
f 4 7 8
f 4 8 9
f 4 9 5
f 5 9 10
f 5 10 6
f 6 10 11
f 6 11 7
f 7 11 8
f 8 11 12
f 8 12 13
f 8 13 9
f 9 13 14
f 9 14 10
f 10 14 11
f 11 14 12
f 12 14 15
f 12 15 16
f 12 16 13
f 13 16 17
f 13 17 14
f 14 17 18
f 14 18 15
f 15 18 19
f 15 19 20
f 15 20 16
f 16 20 21
f 16 21 17
f 17 21 22
f 17 22 18
f 18 22 19
f 19 22 23
f 19 23 24
f 19 24 20
f 20 24 25
f 20 25 21
f 21 25 26
f 21 26 22
f 22 26 23
f 27 28 29
f 27 29 30
f 27 30 31
f 27 31 32
f 27 32 33
f 27 33 28
f 28 33 34
f 28 34 35
f 28 35 29
f 29 35 36
f 29 36 37
f 29 37 30
f 30 37 38
f 30 38 39
f 30 39 31
f 31 39 40
f 31 40 32
f 32 40 38
f 32 38 33
f 33 38 37
f 33 37 34
f 34 37 36
f 34 36 35
f 41 42 43
f 41 43 44
f 41 44 45
f 41 45 42
f 42 45 46
f 42 46 47
f 42 47 48
f 42 48 43
f 43 48 49
f 43 49 44
f 44 49 46
f 44 46 45
f 50 51 52
f 50 52 47
f 50 47 53
f 50 53 51
f 51 53 54
f 51 54 52
f 52 54 48
f 52 48 47
f 54 49 48
f 49 54 53
f 49 53 46
f 46 53 47
f 55 56 57
f 55 57 58
f 55 58 59
f 55 59 56
f 56 59 60
f 56 60 61
f 56 61 62
f 56 62 57
f 57 62 63
f 57 63 58
f 58 63 60
f 58 60 59
f 64 65 66
f 64 66 61
f 64 61 67
f 64 67 65
f 65 67 68
f 65 68 66
f 66 68 62
f 66 62 61
f 68 63 62
f 63 68 67
f 63 67 60
f 60 67 61
f 69 70 71
f 69 71 72
f 69 72 73
f 69 73 74
f 69 74 75
f 69 75 70
f 70 75 76
f 70 76 77
f 70 77 78
f 70 78 71
f 71 78 79
f 71 79 80
f 71 80 72
f 72 80 81
f 72 81 73
f 73 81 74
f 74 81 75
f 75 81 80
f 75 80 76
f 76 80 79
f 76 79 82
f 76 82 77
f 77 82 83
f 77 83 78
f 78 83 84
f 78 84 85
f 78 85 79
f 79 85 82
f 82 85 84
f 82 84 83
f 86 87 88
f 86 88 89
f 86 89 90
f 90 89 91
f 90 91 92
f 92 91 93
f 93 91 94
f 94 91 95
f 95 91 89
f 95 89 96
f 96 89 88
f 96 88 87
f 39 38 40
f 97 98 99
f 97 99 100
f 97 100 101
f 101 100 102
f 101 102 103
f 103 102 104
f 104 102 105
f 105 102 106
f 106 102 100
f 106 100 107
f 107 100 99
f 107 99 98
f 108 109 110
f 108 110 111
f 108 111 112
f 112 111 113
f 113 111 114
f 114 111 115
f 115 111 110
f 115 110 116
f 116 110 117
f 116 117 118
f 118 117 109
f 109 117 110
f 119 120 121
f 119 121 122
f 119 122 123
f 123 122 124
f 124 122 125
f 125 122 126
f 126 122 121
f 126 121 127
f 127 121 128
f 127 128 129
f 129 128 120
f 120 128 121
f 130 131 132
f 130 132 133
f 130 133 134
f 130 134 135
f 130 135 136
f 130 136 137
f 130 137 131
f 131 137 138
f 131 138 132
f 132 138 139
f 132 139 140
f 132 140 141
f 132 141 133
f 133 141 142
f 133 142 143
f 133 143 134
f 134 143 144
f 134 144 145
f 134 145 146
f 134 146 135
f 135 146 147
f 135 147 148
f 135 148 149
f 135 149 136
f 136 149 137
f 137 149 150
f 137 150 151
f 137 151 138
f 138 151 152
f 138 152 153
f 138 153 139
f 139 153 140
f 140 153 154
f 140 154 147
f 140 147 155
f 140 155 141
f 141 155 142
f 142 155 156
f 142 156 157
f 142 157 143
f 143 157 144
f 144 157 145
f 145 157 156
f 145 156 155
f 145 155 146
f 146 155 147
f 147 158 148
f 148 158 149
f 149 158 159
f 149 159 150
f 150 159 160
f 150 160 151
f 151 160 152
f 152 160 161
f 152 161 153
f 153 161 158
f 153 158 154
f 154 158 147
f 161 160 159
f 161 159 158
f 162 163 164
f 162 164 165
f 162 165 166
f 162 166 167
f 162 167 168
f 162 168 169
f 162 169 163
f 163 169 170
f 163 170 171
f 163 171 172
f 163 172 173
f 163 173 164
f 164 173 165
f 165 173 174
f 165 174 175
f 165 175 176
f 165 176 166
f 166 176 167
f 167 176 177
f 167 177 178
f 167 178 179
f 167 179 168
f 168 179 180
f 168 180 181
f 168 181 182
f 168 182 169
f 169 182 170
f 170 182 183
f 170 183 184
f 170 184 171
f 171 184 178
f 171 178 185
f 171 185 186
f 171 186 172
f 172 186 173
f 173 186 187
f 173 187 174
f 174 187 188
f 174 188 175
f 175 188 189
f 175 189 176
f 176 189 190
f 176 190 177
f 177 190 178
f 178 190 185
f 185 190 186
f 186 190 191
f 186 191 187
f 187 191 188
f 188 191 189
f 189 191 190
f 192 193 194
f 192 194 195
f 192 195 196
f 192 196 197
f 192 197 198
f 192 198 199
f 192 199 193
f 193 199 200
f 193 200 201
f 193 201 202
f 193 202 203
f 193 203 194
f 194 203 195
f 195 203 204
f 195 204 205
f 195 205 206
f 195 206 196
f 196 206 197
f 197 206 207
f 197 207 208
f 197 208 209
f 197 209 198
f 198 209 210
f 198 210 211
f 198 211 199
f 199 211 212
f 199 212 213
f 199 213 200
f 200 213 214
f 200 214 201
f 201 214 208
f 201 208 215
f 201 215 216
f 201 216 202
f 202 216 203
f 203 216 217
f 203 217 204
f 204 217 218
f 204 218 205
f 205 218 219
f 205 219 206
f 206 219 220
f 206 220 207
f 207 220 208
f 208 220 215
f 215 220 216
f 216 220 221
f 216 221 217
f 217 221 218
f 218 221 219
f 219 221 220
f 180 222 181
f 181 222 182
f 182 222 183
f 183 222 223
f 183 223 184
f 184 223 180
f 184 180 179
f 184 179 178
f 223 222 180
f 212 211 224
f 212 224 213
f 213 224 225
f 213 225 214
f 214 225 210
f 214 210 209
f 214 209 208
f 211 210 224
f 224 210 225
