# RS2 Model 7923
# Vertices: 42
# Faces: 62

v 46 123 137
v 53 123 137
v 53 123 130
v 46 123 130
v 41 119 137
v 45 115 141
v 49 117 141
v 51 117 141
v 59 119 137
v 59 119 130
v 54 116 127
v 51 117 127
v 49 117 127
v 41 119 130
v 41 111 137
v 45 114 141
v 49 115 142
v 54 116 141
v 59 111 137
v 59 111 130
v 54 114 127
v 53 107 137
v 53 107 130
v 51 113 127
v 46 107 137
v 46 107 130
v 49 113 127
v 41 111 130
v 45 114 127
v 45 116 127
v 54 114 141
v 51 113 141
v 49 113 141
v 51 111 144
v 49 111 144
v 49 107 142
v 45 115 144
v 49 117 144
v 41 117 142
v 51 117 144
v 55 115 144
v 58 119 142

f 1 2 3
f 1 3 4
f 1 4 5
f 1 5 6
f 1 6 7
f 1 7 2
f 2 7 8
f 2 8 9
f 2 9 10
f 2 10 3
f 3 10 11
f 3 11 12
f 3 12 4
f 4 12 13
f 4 13 14
f 4 14 5
f 5 14 15
f 5 15 16
f 5 16 6
f 6 16 17
f 6 17 7
f 7 17 8
f 8 17 18
f 8 18 9
f 9 18 19
f 9 19 20
f 9 20 10
f 10 20 21
f 10 21 11
f 19 22 23
f 19 23 20
f 20 23 24
f 20 24 21
f 22 25 26
f 22 26 23
f 23 26 27
f 23 27 24
f 25 15 28
f 25 28 26
f 26 28 29
f 26 29 27
f 15 14 28
f 28 14 30
f 28 30 29
f 18 31 19
f 19 31 22
f 22 31 32
f 22 32 25
f 25 32 33
f 25 33 15
f 15 33 16
f 16 33 17
f 17 33 32
f 17 32 31
f 17 31 18
f 14 13 30
f 34 35 36
f 35 34 17
f 37 38 39
f 38 37 17
f 40 41 42
f 41 40 17
