# RS2 Model 7976
# Vertices: 41
# Faces: 43

v 57 -7 4
v 59 -7 37
v 42 -14 22
v 34 -27 4
v 34 3 41
v 33 0 5
v 14 15 21
v -9 23 4
v 16 23 21
v -8 27 4
v 40 25 4
v 42 25 41
v 46 51 3
v 65 28 41
v 54 52 2
v 60 40 3
v 65 27 4
v 75 25 23
v 78 27 4
v 91 30 3
v 96 21 3
v 79 14 25
v 85 14 4
v 78 5 41
v 77 4 4
v 74 -5 26
v 85 -18 4
v 76 -24 4
v 43 7 43
v 58 -1 39
v 69 7 43
v 60 19 43
v 48 17 43
v 39 4 42
v 58 -5 38
v 74 5 42
v 63 24 42
v 45 21 42
v 79 -3 39
v 75 29 43
v 35 -9 39

f 1 2 3
f 1 3 4
f 4 3 5
f 4 5 6
f 6 5 7
f 6 7 8
f 8 7 9
f 8 9 10
f 10 9 11
f 11 9 12
f 11 12 13
f 13 12 14
f 13 14 15
f 15 14 16
f 16 14 17
f 17 14 18
f 17 18 19
f 19 18 20
f 20 18 21
f 21 18 22
f 21 22 23
f 23 22 24
f 23 24 25
f 25 24 26
f 25 26 27
f 27 26 28
f 28 26 2
f 28 2 1
f 2 5 3
f 5 2 24
f 5 24 14
f 5 14 12
f 5 12 9
f 5 9 7
f 14 22 18
f 22 14 24
f 24 2 26
f 29 30 31
f 29 31 32
f 29 32 33
f 34 35 36
f 34 36 37
f 34 37 38
