# RS2 Model 7982
# Vertices: 265
# Faces: 438

v 11 1 305
v -3 -1 298
v 7 -15 298
v 25 -6 298
v 22 13 298
v 3 16 298
v 1 20 251
v -9 -3 251
v 6 -19 251
v 29 -9 240
v 25 14 248
v 39 40 257
v 10 47 256
v 1 22 219
v -12 -4 225
v -37 -31 240
v -27 -25 264
v -12 -45 264
v 5 -23 227
v 32 -9 222
v 42 1 229
v 39 1 243
v 36 16 242
v 26 17 222
v 43 62 241
v 36 88 277
v 33 73 282
v 18 77 281
v 14 69 238
v 11 6 165
v 1 -17 160
v 17 -38 169
v -18 -53 242
v -40 -69 264
v -50 -56 264
v -37 -43 276
v -27 -55 276
v -22 -72 279
v -5 -69 274
v 36 -12 42
v 26 28 30
v 25 23 78
v 32 -13 78
v -2 -37 35
v 11 -49 36
v 36 -31 38
v 37 -16 0
v 46 -4 0
v 46 -5 27
v 42 16 21
v 31 33 0
v 31 40 0
v 29 50 30
v -14 35 41
v -9 30 86
v 7 9 123
v 39 3 117
v 43 -6 113
v 0 -31 84
v -34 -4 33
v -18 -48 26
v -4 -42 0
v 8 -50 0
v 25 -65 0
v 24 -62 21
v 37 -51 23
v 50 -50 13
v 51 -38 13
v 39 -31 0
v -27 -5 89
v -38 39 38
v -51 5 30
v -41 -5 0
v -37 -30 25
v -39 -53 12
v -43 -77 8
v -34 -72 5
v -24 -50 0
v -4 -18 125
v 36 1 178
v 40 -25 181
v 15 -43 121
v 40 16 229
v 53 20 242
v 54 7 244
v 46 7 250
v 45 19 249
v 31 -72 17
v 45 -65 20
v 40 -55 0
v 51 -52 0
v 66 -55 0
v 66 -53 8
v 63 -43 5
v 52 -43 0
v 51 -69 0
v 58 -79 17
v 62 -84 0
v 71 -89 7
v 73 -91 0
v 79 -110 3
v 79 -111 0
v 74 -111 0
v 74 -111 3
v 62 -96 7
v 65 -99 0
v 51 -85 13
v 53 -91 0
v 33 -80 0
v 62 -43 0
v 74 -50 4
v 75 -50 0
v 88 -55 2
v 88 -56 0
v 96 -57 1
v 96 -57 0
v 96 -60 1
v 96 -62 0
v 88 -59 3
v 88 -59 0
v 75 -53 4
v 75 -55 0
v 72 -56 2
v 73 -57 0
v 73 -59 2
v 73 -60 0
v 75 -63 1
v 75 -63 0
v 73 -65 1
v 75 -65 0
v 71 -62 4
v 71 -63 0
v 5 62 36
v -15 40 0
v -39 43 0
v -60 41 0
v -59 39 17
v -63 13 17
v -66 13 0
v -57 5 0
v 4 62 0
v -2 84 13
v -1 87 0
v -1 101 6
v 0 101 0
v -2 113 4
v -2 114 0
v -4 122 1
v -4 122 0
v -3 122 1
v -3 123 0
v 1 108 5
v 1 109 0
v 4 113 4
v 4 114 0
v 7 122 1
v 7 122 0
v 7 120 2
v 7 120 0
v 5 107 4
v 5 107 0
v 1 101 8
v 2 102 0
v 3 90 19
v 3 94 0
v 16 72 25
v 15 74 0
v 27 87 10
v 29 88 0
v 51 106 4
v 51 106 0
v 59 115 3
v 59 116 0
v 58 103 0
v 63 114 0
v 56 103 4
v 43 86 11
v 44 86 0
v 46 84 8
v 49 84 0
v 53 87 4
v 53 88 0
v 63 89 2
v 63 89 0
v 61 84 3
v 62 86 0
v 55 82 3
v 55 82 0
v 46 77 6
v 46 77 0
v 37 70 13
v 40 73 0
v 62 114 3
v -75 36 13
v -79 19 13
v -80 16 0
v -106 14 4
v -107 14 0
v -127 29 3
v -127 28 0
v -128 35 0
v -127 34 3
v -101 23 4
v -103 26 0
v -77 39 0
v -54 -63 295
v -47 -70 295
v -32 -76 272
v -21 -82 278
v -14 -79 281
v -8 -80 277
v -12 -76 256
v -10 -88 271
v -5 -94 284
v -12 -88 286
v -9 -84 287
v -3 -88 286
v -56 -80 293
v -65 -72 292
v -69 -80 334
v -62 -71 335
v -56 -78 335
v -63 -85 334
v 22 92 275
v 22 109 316
v 33 106 314
v 29 96 315
v 21 98 316
v 54 23 264
v 58 23 264
v 58 17 264
v 55 17 265
v 43 20 0
v 55 14 8
v 55 13 0
v 69 10 5
v 69 10 0
v 83 2 3
v 83 2 0
v 83 1 4
v 83 1 0
v 72 2 7
v 71 1 0
v 56 3 12
v 56 1 0
v -61 -71 0
v -61 -70 1
v -62 -69 0
v -51 -56 3
v -51 -56 0
v -41 -45 11
v -41 -46 0
v -44 -25 0
v -51 -60 3
v -51 -60 0
v -39 -53 0
v -39 -106 1
v -40 -105 0
v -38 -106 0
v -41 -90 0
v -41 -90 2
v -44 -90 3
v -44 -89 0
v -44 -77 0
v -37 -72 0

f 1 2 3
f 1 3 4
f 1 4 5
f 1 5 6
f 1 6 2
f 2 6 7
f 2 7 8
f 2 8 3
f 3 8 9
f 3 9 4
f 4 9 10
f 4 10 5
f 5 10 11
f 5 11 6
f 6 11 7
f 7 11 12
f 7 12 13
f 7 13 14
f 7 14 8
f 8 14 15
f 8 15 16
f 8 16 17
f 8 17 9
f 9 17 18
f 9 18 19
f 9 19 10
f 10 19 20
f 10 20 21
f 10 21 22
f 10 22 11
f 11 22 23
f 11 23 24
f 11 24 25
f 11 25 12
f 12 25 26
f 12 26 27
f 12 27 13
f 13 27 28
f 13 28 29
f 13 29 14
f 14 29 24
f 14 24 30
f 14 30 31
f 14 31 15
f 15 31 32
f 15 32 19
f 15 19 33
f 15 33 16
f 16 33 34
f 16 34 35
f 16 35 17
f 17 35 36
f 17 36 18
f 18 36 37
f 18 37 38
f 18 38 39
f 18 39 33
f 18 33 19
f 40 41 42
f 40 42 43
f 40 43 44
f 40 44 45
f 40 45 46
f 40 46 47
f 40 47 48
f 40 48 49
f 40 49 41
f 41 49 50
f 41 50 51
f 41 51 52
f 41 52 53
f 41 53 54
f 41 54 55
f 41 55 42
f 42 55 56
f 42 56 57
f 42 57 43
f 43 57 58
f 43 58 59
f 43 59 44
f 44 59 60
f 44 60 61
f 44 61 62
f 44 62 63
f 44 63 45
f 45 63 64
f 45 64 65
f 45 65 46
f 46 65 66
f 46 66 67
f 46 67 68
f 46 68 69
f 46 69 47
f 59 70 60
f 60 70 54
f 60 54 71
f 60 71 72
f 60 72 73
f 60 73 74
f 60 74 61
f 61 74 75
f 61 75 76
f 61 76 77
f 61 77 78
f 61 78 62
f 70 55 54
f 55 70 79
f 55 79 56
f 56 79 31
f 56 31 30
f 56 30 57
f 57 30 80
f 57 80 58
f 58 80 81
f 58 81 82
f 58 82 59
f 59 82 70
f 70 82 79
f 79 82 32
f 79 32 31
f 81 32 82
f 32 81 19
f 19 81 20
f 20 81 80
f 20 80 24
f 20 24 83
f 20 83 21
f 21 83 84
f 21 84 85
f 21 85 22
f 22 85 86
f 22 86 23
f 23 86 87
f 23 87 83
f 23 83 24
f 66 65 88
f 66 88 89
f 66 89 90
f 66 90 91
f 66 91 67
f 67 91 92
f 67 92 93
f 67 93 68
f 68 93 94
f 68 94 95
f 68 95 69
f 89 96 90
f 96 89 97
f 96 97 98
f 98 97 99
f 98 99 100
f 100 99 101
f 100 101 102
f 102 101 103
f 103 101 104
f 103 104 105
f 103 105 106
f 106 105 107
f 106 107 108
f 108 107 88
f 108 88 109
f 109 88 65
f 109 65 64
f 89 88 107
f 89 107 97
f 97 107 105
f 97 105 99
f 99 105 104
f 99 104 101
f 94 110 95
f 110 94 111
f 110 111 112
f 112 111 113
f 112 113 114
f 114 113 115
f 114 115 116
f 116 115 117
f 116 117 118
f 118 117 119
f 118 119 120
f 120 119 121
f 120 121 122
f 122 121 123
f 122 123 124
f 124 123 125
f 124 125 126
f 126 125 127
f 126 127 128
f 128 127 129
f 128 129 130
f 130 129 131
f 130 131 132
f 132 131 93
f 132 93 92
f 94 93 121
f 94 121 111
f 111 121 119
f 111 119 113
f 113 119 117
f 113 117 115
f 121 93 123
f 123 93 131
f 123 131 125
f 125 131 129
f 125 129 127
f 53 133 54
f 54 133 134
f 54 134 135
f 54 135 71
f 71 135 136
f 71 136 137
f 71 137 72
f 72 137 138
f 72 138 139
f 72 139 140
f 72 140 73
f 133 141 134
f 141 133 142
f 141 142 143
f 143 142 144
f 143 144 145
f 145 144 146
f 145 146 147
f 147 146 148
f 147 148 149
f 149 148 150
f 149 150 151
f 151 150 152
f 151 152 153
f 153 152 154
f 153 154 155
f 155 154 156
f 155 156 157
f 157 156 158
f 157 158 159
f 159 158 160
f 159 160 161
f 161 160 162
f 161 162 163
f 163 162 164
f 163 164 165
f 165 164 166
f 165 166 167
f 167 166 168
f 167 168 169
f 169 168 170
f 169 170 171
f 171 170 172
f 171 172 173
f 171 173 174
f 174 173 175
f 174 175 176
f 174 176 177
f 174 177 178
f 178 177 179
f 178 179 180
f 180 179 181
f 180 181 182
f 182 181 183
f 182 183 184
f 184 183 185
f 184 185 186
f 186 185 187
f 186 187 188
f 188 187 189
f 188 189 190
f 190 189 191
f 190 191 192
f 192 191 53
f 192 53 52
f 133 53 191
f 133 191 166
f 133 166 164
f 133 164 142
f 142 164 162
f 142 162 144
f 144 162 152
f 144 152 146
f 146 152 150
f 146 150 148
f 166 191 177
f 166 177 168
f 168 177 176
f 168 176 170
f 170 176 193
f 170 193 172
f 172 193 175
f 172 175 173
f 152 162 160
f 152 160 154
f 154 160 158
f 154 158 156
f 177 191 189
f 177 189 179
f 179 189 187
f 179 187 181
f 181 187 185
f 181 185 183
f 138 137 194
f 138 194 195
f 138 195 139
f 139 195 196
f 196 195 197
f 196 197 198
f 198 197 199
f 198 199 200
f 200 199 201
f 201 199 202
f 201 202 203
f 201 203 204
f 204 203 194
f 204 194 205
f 205 194 137
f 205 137 136
f 195 194 203
f 195 203 197
f 197 203 202
f 197 202 199
f 24 80 30
f 37 36 206
f 37 206 207
f 37 207 34
f 37 34 208
f 37 208 38
f 38 208 209
f 38 209 210
f 38 210 39
f 39 210 211
f 39 211 212
f 39 212 33
f 33 212 34
f 34 212 208
f 208 212 213
f 208 213 209
f 209 213 214
f 209 214 215
f 209 215 210
f 210 215 216
f 210 216 211
f 211 216 217
f 211 217 213
f 211 213 212
f 207 218 34
f 34 218 35
f 35 218 219
f 35 219 36
f 36 219 206
f 206 219 220
f 206 220 221
f 206 221 207
f 207 221 222
f 207 222 218
f 218 222 223
f 218 223 219
f 219 223 220
f 220 223 222
f 220 222 221
f 29 25 24
f 25 29 224
f 25 224 26
f 26 224 225
f 26 225 226
f 26 226 27
f 27 226 227
f 27 227 28
f 28 227 228
f 28 228 224
f 28 224 29
f 228 225 224
f 225 228 226
f 226 228 227
f 217 214 213
f 214 217 216
f 214 216 215
f 175 193 176
f 87 84 83
f 84 87 229
f 84 229 230
f 84 230 85
f 85 230 231
f 85 231 86
f 86 231 232
f 86 232 87
f 87 232 229
f 229 232 231
f 229 231 230
f 50 233 51
f 233 50 234
f 233 234 235
f 235 234 236
f 235 236 237
f 237 236 238
f 237 238 239
f 239 238 240
f 239 240 241
f 241 240 242
f 241 242 243
f 243 242 244
f 243 244 245
f 245 244 49
f 245 49 48
f 50 49 244
f 50 244 234
f 234 244 242
f 234 242 236
f 236 242 240
f 236 240 238
f 246 247 248
f 248 247 249
f 248 249 250
f 250 249 251
f 250 251 252
f 252 251 253
f 253 251 74
f 253 74 73
f 254 249 247
f 254 247 255
f 254 255 256
f 254 256 75
f 254 75 249
f 249 75 251
f 251 75 74
f 247 246 255
f 257 258 259
f 257 259 260
f 257 260 261
f 257 261 262
f 257 262 258
f 258 262 263
f 263 262 76
f 263 76 264
f 264 76 75
f 264 75 256
f 77 76 262
f 77 262 261
f 77 261 265
f 77 265 78
f 261 260 265
