# RS2 Model 7993
# Vertices: 113
# Faces: 103

v -10 11 143
v -21 13 143
v -6 10 127
v -4 10 132
v -25 12 129
v -30 13 122
v -5 10 125
v -8 10 130
v 2 8 141
v -4 10 145
v -5 9 125
v 0 8 126
v 4 2 138
v 0 10 141
v 8 2 123
v 8 0 126
v 15 -9 132
v 12 -8 140
v 7 1 125
v 10 -1 123
v 15 -10 121
v 16 -14 127
v 6 2 122
v 8 0 119
v -17 41 125
v -2 11 162
v 5 10 90
v 6 2 123
v 9 0 127
v 7 2 122
v 18 -13 125
v 9 0 119
v -6 10 125
v -9 10 130
v -5 10 126
v -3 10 144
v 2 9 141
v 0 9 127
v 11 -8 107
v 7 -10 106
v 8 -10 94
v 12 -6 94
v 12 -6 106
v 3 -1 119
v 3 1 120
v 3 -4 117
v 2 -4 118
v 1 -2 118
v 8 -8 106
v 8 -8 93
v 6 -7 82
v 7 -9 82
v 11 -7 80
v 11 -6 93
v -4 8 129
v 2 1 120
v 5 0 122
v 7 1 122
v 8 1 122
v 6 0 122
v 10 -6 80
v 10 -2 67
v 6 -3 69
v 7 -7 70
v 6 -6 53
v 5 -2 52
v 1 0 54
v 0 -2 54
v -1 -3 39
v 5 -5 38
v 4 2 39
v 0 1 40
v -1 1 24
v -2 -3 24
v 5 -5 24
v 3 3 24
v 5 6 0
v -1 3 0
v -2 -4 0
v 7 -6 0
v 57 1 133
v 15 8 166
v 4 9 106
v 14 8 176
v -39 15 159
v 23 6 125
v 48 2 96
v 42 3 145
v -12 10 103
v 34 -42 121
v 17 -18 158
v 12 -1 100
v 21 -13 75
v 30 -34 116
v -1 18 110
v 1 17 73
v 24 -21 89
v -5 23 122
v 0 19 83
v -15 36 129
v 22 -20 103
v -14 35 148
v 9 -5 156
v -3 21 103
v -21 10 82
v -56 16 123
v 29 5 110
v 32 3 97
v -25 11 89
v 26 5 148
v -47 15 96
v -42 15 144
v 10 7 99

f 1 2 3
f 1 3 4
f 1 4 3
f 1 3 2
f 5 6 7
f 5 7 8
f 9 10 11
f 9 11 12
f 13 14 15
f 13 15 16
f 17 18 19
f 17 19 20
f 17 20 19
f 17 19 18
f 21 22 23
f 21 23 24
f 25 26 27
f 28 14 13
f 28 13 29
f 30 31 21
f 30 21 32
f 33 6 5
f 33 5 34
f 35 36 37
f 35 37 38
f 39 40 41
f 39 41 42
f 39 42 43
f 39 43 44
f 39 44 45
f 39 45 46
f 39 46 40
f 40 46 47
f 40 47 48
f 40 48 49
f 40 49 50
f 40 50 41
f 41 50 51
f 41 51 52
f 41 52 42
f 42 52 53
f 42 53 54
f 42 54 43
f 43 54 49
f 43 49 55
f 43 55 44
f 44 55 48
f 44 48 56
f 44 56 45
f 45 56 57
f 45 57 58
f 45 58 46
f 46 58 59
f 46 59 47
f 47 59 60
f 47 60 56
f 47 56 48
f 49 54 50
f 50 54 61
f 50 61 51
f 51 61 62
f 51 62 63
f 51 63 52
f 52 63 64
f 52 64 53
f 53 64 62
f 53 62 61
f 53 61 54
f 49 48 55
f 58 57 60
f 58 60 59
f 60 57 56
f 62 64 65
f 62 65 66
f 62 66 67
f 62 67 63
f 63 67 68
f 63 68 64
f 64 68 65
f 65 68 69
f 65 69 70
f 65 70 66
f 66 70 71
f 66 71 67
f 67 71 72
f 67 72 68
f 68 72 69
f 69 72 73
f 69 73 74
f 69 74 70
f 70 74 75
f 70 75 71
f 71 75 76
f 71 76 72
f 72 76 73
f 73 76 77
f 73 77 78
f 73 78 74
f 74 78 79
f 74 79 75
f 75 79 80
f 75 80 76
f 76 80 77
