# RS2 Model 8047
# Vertices: 121
# Faces: 199

v 5 -8 23
v 4 -2 20
v 3 -3 41
v 4 -8 41
v 0 -10 21
v 1 -12 16
v 5 -9 16
v 5 -8 0
v 7 -7 0
v 8 -7 13
v 7 -4 9
v 4 -2 0
v 4 1 0
v 4 1 14
v -2 0 23
v -1 -2 45
v 0 -6 63
v 5 -6 59
v 7 -7 57
v 0 -9 43
v -6 -7 20
v -3 -12 13
v 0 -10 0
v 0 -12 0
v 3 -14 0
v 3 -14 9
v 5 -13 10
v 7 -12 0
v 5 -9 0
v -3 -7 46
v -6 -2 10
v -9 -4 9
v -7 -7 0
v -6 -9 10
v -7 -13 4
v -7 -16 3
v -6 -17 3
v -3 -12 0
v 0 -8 63
v 0 -8 80
v 0 -6 82
v 5 -6 88
v 5 -8 88
v 1 -10 61
v 1 -10 84
v -1 -7 105
v 0 -3 100
v 3 -4 102
v 4 -7 102
v 0 -8 105
v 4 -16 4
v 7 -16 7
v 5 -12 0
v 7 -17 0
v 4 -17 0
v -1 -7 116
v -1 -2 116
v 3 -4 116
v 4 -7 110
v 0 -8 116
v -1 -10 118
v -2 -12 110
v 0 4 16
v -2 1 0
v -7 0 0
v -10 -2 0
v -9 -4 0
v 0 2 0
v 1 4 0
v 1 5 10
v 3 6 4
v 3 5 0
v 4 6 0
v 5 5 4
v 5 5 0
v 4 4 7
v 4 4 0
v -3 -8 118
v -5 -9 125
v -3 -12 125
v -2 -14 125
v 0 -14 124
v -1 -14 116
v -6 -14 118
v -5 -8 107
v -9 -12 118
v -10 -14 131
v -9 -13 132
v -7 -14 132
v -5 -14 124
v -2 -17 125
v -1 -16 128
v 0 -17 125
v 0 -17 123
v -9 -16 131
v -10 -17 149
v -12 -16 149
v -10 -14 149
v -9 -14 149
v 1 0 142
v 0 -18 128
v -1 -17 130
v 0 -17 130
v 7 -3 0
v 10 -4 3
v 10 -6 0
v 11 -4 3
v 10 -4 0
v 12 -6 0
v 11 -6 3
v 10 -7 0
v 10 -6 4
v 8 -7 0
v -7 -14 0
v -7 -16 0
v -6 -14 0
v -6 -12 0
v -7 -8 0
v 5 -8 23
v 5 -8 23
v 5 -8 23

f 1 2 3
f 1 3 4
f 1 4 5
f 1 5 6
f 1 6 7
f 1 7 8
f 1 8 9
f 1 9 10
f 1 10 2
f 2 10 11
f 2 11 12
f 2 12 13
f 2 13 14
f 2 14 15
f 2 15 16
f 2 16 3
f 3 16 17
f 3 17 18
f 3 18 4
f 4 18 19
f 4 19 20
f 4 20 5
f 5 20 21
f 5 21 22
f 5 22 23
f 5 23 24
f 5 24 6
f 6 24 25
f 6 25 26
f 6 26 7
f 7 26 27
f 7 27 28
f 7 28 29
f 7 29 8
f 20 30 21
f 21 30 15
f 21 15 31
f 21 31 32
f 21 32 33
f 21 33 34
f 21 34 22
f 22 34 35
f 22 35 36
f 22 36 37
f 22 37 38
f 22 38 23
f 30 16 15
f 16 30 39
f 16 39 17
f 17 39 40
f 17 40 41
f 17 41 18
f 18 41 42
f 18 42 19
f 19 42 43
f 19 43 44
f 19 44 20
f 20 44 30
f 30 44 39
f 39 44 45
f 39 45 40
f 40 45 46
f 40 46 47
f 40 47 41
f 41 47 48
f 41 48 42
f 42 48 49
f 42 49 43
f 43 49 50
f 43 50 45
f 43 45 44
f 27 26 51
f 27 51 52
f 27 52 53
f 27 53 28
f 52 54 53
f 54 52 51
f 54 51 55
f 55 51 26
f 55 26 25
f 47 46 56
f 47 56 57
f 47 57 48
f 48 57 58
f 48 58 49
f 49 58 59
f 49 59 50
f 50 59 60
f 50 60 61
f 50 61 62
f 50 62 46
f 50 46 45
f 14 63 15
f 15 63 64
f 15 64 65
f 15 65 31
f 31 65 66
f 31 66 32
f 32 66 67
f 32 67 33
f 63 68 64
f 68 63 69
f 69 63 70
f 69 70 71
f 69 71 72
f 72 71 73
f 73 71 74
f 73 74 75
f 75 74 76
f 75 76 77
f 77 76 14
f 77 14 13
f 63 14 76
f 63 76 70
f 70 76 74
f 70 74 71
f 60 56 78
f 60 78 61
f 61 78 79
f 61 79 80
f 61 80 81
f 61 81 82
f 61 82 62
f 62 82 83
f 62 83 84
f 62 84 85
f 62 85 46
f 46 85 56
f 56 85 78
f 78 85 86
f 78 86 79
f 79 86 87
f 79 87 88
f 79 88 80
f 80 88 89
f 80 89 84
f 80 84 90
f 80 90 81
f 81 90 91
f 81 91 92
f 81 92 82
f 82 92 93
f 82 93 83
f 83 93 94
f 83 94 90
f 83 90 84
f 84 86 85
f 86 84 95
f 86 95 87
f 87 95 96
f 87 96 97
f 87 97 88
f 88 97 98
f 88 98 89
f 89 98 99
f 89 99 95
f 89 95 84
f 59 58 100
f 59 100 60
f 60 100 56
f 56 100 57
f 57 100 58
f 94 91 90
f 91 94 101
f 91 101 102
f 91 102 92
f 92 102 103
f 92 103 93
f 93 103 94
f 94 103 101
f 101 103 102
f 99 96 95
f 96 99 97
f 97 99 98
f 11 104 12
f 104 11 105
f 104 105 106
f 106 105 107
f 106 107 108
f 108 107 109
f 109 107 110
f 109 110 111
f 111 110 112
f 111 112 113
f 113 112 10
f 113 10 9
f 11 10 112
f 11 112 105
f 105 112 110
f 105 110 107
f 36 114 115
f 36 115 37
f 37 115 116
f 37 116 38
f 35 117 114
f 35 114 36
f 33 118 34
f 34 118 35
f 35 118 117
