# RS2 Model 8057
# Vertices: 66
# Faces: 88

v 98 11 285
v 91 8 275
v 108 -1 275
v 106 8 285
v 96 18 285
v 90 23 275
v 97 19 264
v 97 10 264
v 106 8 264
v 120 15 275
v 110 15 285
v 105 22 285
v 107 31 275
v 105 22 264
v 111 16 264
v 108 12 287
v 117 10 289
v 115 18 288
v 110 18 286
v 104 15 284
v 121 13 285
v 103 14 288
v 102 16 288
v 102 16 284
v 103 14 284
v 104 15 288
v 95 7 286
v 101 12 287
v 97 17 286
v 92 13 285
v 90 7 283
v 103 15 284
v -70 -81 302
v -63 -79 303
v -65 -73 302
v -72 -75 301
v -75 -80 299
v -61 -76 300
v -66 -78 301
v -74 -81 291
v -61 -92 291
v -60 -83 301
v -67 -72 301
v -71 -65 291
v -66 -71 280
v -67 -79 280
v -60 -83 280
v -45 -80 291
v -53 -78 301
v -57 -70 301
v -52 -62 291
v -57 -70 280
v -53 -77 280
v -60 -77 304
v -61 -77 304
v -61 -77 300
v -60 -77 300
v -59 -77 304
v -61 -75 304
v -61 -75 300
v -59 -77 300
v -56 -81 303
v -49 -84 305
v -48 -77 304
v -54 -75 302
v -44 -82 301

f 1 2 3
f 1 3 4
f 1 4 5
f 1 5 2
f 2 5 6
f 2 6 7
f 2 7 8
f 2 8 3
f 3 8 9
f 3 9 10
f 3 10 4
f 4 10 11
f 4 11 12
f 4 12 5
f 5 12 6
f 6 12 13
f 6 13 14
f 6 14 7
f 7 14 8
f 8 14 15
f 8 15 9
f 9 15 10
f 10 15 13
f 10 13 11
f 11 13 12
f 13 15 14
f 16 17 18
f 16 18 19
f 16 19 20
f 17 21 18
f 22 23 24
f 22 24 25
f 22 25 26
f 22 26 23
f 23 26 20
f 23 20 24
f 24 20 25
f 25 20 26
f 27 28 29
f 27 29 30
f 27 30 31
f 28 32 29
f 33 34 35
f 33 35 36
f 33 36 37
f 34 38 35
f 39 40 41
f 39 41 42
f 39 42 43
f 39 43 40
f 40 43 44
f 40 44 45
f 40 45 46
f 40 46 41
f 41 46 47
f 41 47 48
f 41 48 42
f 42 48 49
f 42 49 50
f 42 50 43
f 43 50 44
f 44 50 51
f 44 51 52
f 44 52 45
f 45 52 46
f 46 52 53
f 46 53 47
f 47 53 48
f 48 53 51
f 48 51 49
f 49 51 50
f 51 53 52
f 54 55 56
f 54 56 57
f 54 57 58
f 54 58 55
f 55 58 59
f 55 59 60
f 55 60 56
f 56 60 57
f 57 60 61
f 57 61 58
f 58 61 59
f 59 61 60
f 62 63 64
f 62 64 65
f 62 65 61
f 63 66 64
