# RS2 Model 8076
# Vertices: 50
# Faces: 80

v 50 2 15
v 62 -2 28
v 76 6 1
v 58 8 0
v 36 2 0
v 36 -4 19
v 30 -2 21
v 48 10 17
v 64 4 35
v 54 -14 40
v 78 -18 38
v 84 -8 21
v 92 -10 1
v 92 -26 19
v 104 -38 1
v 94 -48 14
v 98 -62 1
v 78 -64 19
v 66 -78 1
v 58 -68 21
v 40 -76 0
v 40 -60 28
v 26 -52 12
v 22 -60 1
v 18 -34 1
v 22 -26 15
v 20 -12 0
v 38 -16 33
v 48 -40 43
v 54 -10 49
v 32 -14 40
v 30 -38 31
v 64 -54 36
v 68 -36 45
v 82 -42 33
v 28 -2 50
v 24 10 31
v 44 22 28
v 60 14 45
v 22 18 71
v 20 32 59
v 36 40 57
v 46 32 70
v 48 -2 59
v 40 20 77
v 22 32 61
v 24 21 71
v 39 22 76
v 44 32 70
v 35 39 59

f 1 2 3
f 1 3 4
f 1 4 5
f 1 5 6
f 1 6 7
f 1 7 8
f 1 8 2
f 2 8 9
f 2 9 10
f 2 10 11
f 2 11 12
f 2 12 3
f 3 12 13
f 13 12 14
f 13 14 15
f 15 14 16
f 15 16 17
f 17 16 18
f 17 18 19
f 19 18 20
f 19 20 21
f 21 20 22
f 21 22 23
f 21 23 24
f 24 23 25
f 25 23 26
f 25 26 27
f 27 26 6
f 27 6 5
f 28 29 10
f 28 10 30
f 28 30 31
f 28 31 6
f 28 6 26
f 28 26 32
f 28 32 29
f 29 32 22
f 29 22 33
f 29 33 34
f 29 34 10
f 10 34 11
f 11 34 35
f 11 35 14
f 11 14 12
f 32 23 22
f 23 32 26
f 16 14 35
f 16 35 18
f 18 35 33
f 18 33 20
f 20 33 22
f 34 33 35
f 7 31 36
f 7 36 37
f 7 37 8
f 8 37 38
f 8 38 9
f 9 38 39
f 9 39 30
f 9 30 10
f 37 36 40
f 37 40 41
f 37 41 38
f 38 41 42
f 38 42 39
f 39 42 43
f 39 43 44
f 39 44 30
f 30 44 31
f 31 44 36
f 36 44 45
f 36 45 40
f 40 45 41
f 41 45 43
f 41 43 42
f 44 43 45
f 6 31 7
f 46 47 48
f 46 48 49
f 46 49 50
