# RS2 Model 8118
# Vertices: 212
# Faces: 258

v 7 5 56
v 9 1 72
v 8 -7 60
v 8 8 14
v -7 8 14
v -7 8 55
v 8 8 81
v 8 3 72
v 14 4 82
v 12 3 83
v 9 1 80
v 10 -2 85
v 2 -6 89
v -2 -12 61
v 10 -5 14
v 18 -1 11
v 16 7 11
v 12 12 0
v 11 22 0
v 9 18 11
v 0 17 12
v -9 15 0
v -16 15 0
v -17 12 11
v -11 -1 14
v -13 -3 58
v -10 1 72
v -8 4 73
v -1 10 86
v 8 7 113
v 11 -2 106
v 9 4 77
v 14 5 82
v 14 3 85
v 13 3 86
v 14 5 87
v 12 5 83
v 15 5 85
v 18 0 93
v 18 0 94
v -4 -11 14
v 10 -19 12
v 15 -14 13
v 17 -8 0
v 24 -1 0
v 29 5 0
v 26 4 4
v 21 8 4
v 18 10 0
v -17 -11 12
v -12 -17 11
v -5 -20 0
v -1 -22 0
v 0 -20 7
v 6 -23 6
v 11 -24 0
v 20 -23 0
v 18 -20 5
v 24 -20 5
v 20 -13 0
v -7 0 87
v -8 1 82
v -10 7 86
v -13 7 86
v -13 9 86
v -7 6 80
v -5 -2 105
v 0 8 110
v 8 3 133
v 12 -1 119
v 3 -6 106
v 0 5 131
v 6 6 173
v -3 0 118
v 2 6 171
v 1 3 172
v 3 -3 126
v 3 0 175
v 7 2 175
v -11 -20 0
v -21 -24 0
v -19 -20 6
v -23 -23 4
v -23 -25 0
v -25 -20 0
v -24 -20 4
v -21 -17 5
v -20 -11 0
v -17 -3 0
v -19 4 11
v -20 3 0
v -25 9 7
v -26 9 0
v -28 14 2
v -29 14 0
v -26 16 2
v -25 17 0
v -22 12 7
v -21 15 0
v 27 -19 0
v 28 -24 3
v 30 -24 0
v 32 -28 1
v 33 -27 0
v 32 -31 0
v 31 -29 1
v 26 -25 3
v 26 -26 0
v -2 19 0
v 1 23 5
v 0 25 0
v 1 31 2
v 1 32 0
v 4 30 2
v 5 31 0
v 6 25 5
v 8 28 0
v 23 10 0
v 26 10 2
v 27 11 0
v 28 8 2
v 29 7 0
v 6 -26 0
v 2 -28 3
v 1 -29 0
v 0 -28 0
v 0 -27 2
v -10 9 86
v -12 7 89
v -14 3 107
v -14 4 108
v -12 8 89
v -38 -26 165
v -38 20 169
v -71 49 126
v -71 -42 118
v 6 -51 162
v 6 -84 115
v 50 -26 165
v 86 -42 118
v 50 20 169
v 86 49 126
v 6 48 172
v 6 95 130
v 59 -34 176
v 6 -60 174
v 6 -79 129
v 79 -41 132
v 59 24 182
v 6 -5 210
v -44 -34 176
v -65 -41 132
v -44 24 182
v -65 43 140
v 6 59 185
v 79 43 140
v 6 89 144
v 6 -34 176
v 49 36 206
v 79 37 139
v 49 -42 200
v -3 43 183
v 15 88 130
v 59 5 180
v -44 13 196
v -58 48 138
v 11 51 199
v 62 -18 176
v 82 -46 118
v -4 -53 173
v 17 -51 175
v 3 -82 115
v -44 -18 179
v 49 25 215
v 95 -48 158
v -38 -21 210
v -34 14 217
v 4 87 174
v 42 -28 209
v 8 -54 209
v -70 -45 160
v 7 35 218
v -30 31 184
v -74 36 124
v -30 -51 178
v -34 30 203
v -65 32 139
v -34 -49 198
v 42 36 185
v 87 42 126
v 42 -44 178
v 5 47 207
v 15 82 146
v 66 9 202
v -42 14 175
v -61 55 126
v 15 48 178
v 63 -23 198
v 79 -41 133
v -3 -60 195
v 13 -58 194
v 3 -76 127
v -47 -23 198
v 4 40 218
v 90 50 170
v 4 -56 209
v 54 -28 212
v 13 -103 153
v -28 16 217
v -28 -33 211
v -76 45 166
v 42 11 216

f 1 2 3
f 1 3 4
f 1 4 5
f 1 5 6
f 1 6 7
f 1 7 8
f 1 8 2
f 2 8 9
f 2 9 10
f 2 10 11
f 2 11 12
f 2 12 3
f 3 12 13
f 3 13 14
f 3 14 15
f 3 15 4
f 4 15 16
f 4 16 17
f 4 17 18
f 4 18 19
f 4 19 20
f 4 20 5
f 5 20 21
f 5 21 22
f 5 22 23
f 5 23 24
f 5 24 25
f 5 25 6
f 6 25 26
f 6 26 27
f 6 27 28
f 6 28 29
f 6 29 7
f 7 29 30
f 7 30 31
f 7 31 12
f 7 12 11
f 7 11 32
f 7 32 8
f 8 32 33
f 8 33 9
f 9 33 34
f 9 34 35
f 9 35 10
f 10 35 36
f 10 36 37
f 10 37 11
f 11 37 32
f 32 37 33
f 33 37 38
f 33 38 34
f 34 38 39
f 34 39 35
f 35 39 40
f 35 40 36
f 36 40 38
f 36 38 37
f 15 14 41
f 15 41 42
f 15 42 43
f 15 43 44
f 15 44 45
f 15 45 16
f 16 45 46
f 16 46 47
f 16 47 17
f 17 47 48
f 17 48 49
f 17 49 18
f 41 26 25
f 41 25 50
f 41 50 51
f 41 51 52
f 41 52 53
f 41 53 54
f 41 54 42
f 42 54 55
f 42 55 56
f 42 56 57
f 42 57 58
f 42 58 43
f 43 58 59
f 43 59 60
f 43 60 44
f 41 14 26
f 26 14 61
f 26 61 62
f 26 62 27
f 27 62 63
f 27 63 64
f 27 64 28
f 28 64 65
f 28 65 66
f 28 66 29
f 29 66 61
f 29 61 67
f 29 67 68
f 29 68 30
f 30 68 69
f 30 69 31
f 31 69 70
f 31 70 71
f 31 71 12
f 12 71 13
f 13 71 67
f 13 67 61
f 13 61 14
f 72 73 69
f 72 69 68
f 72 68 74
f 72 74 75
f 72 75 73
f 74 76 75
f 76 74 77
f 76 77 78
f 78 77 79
f 79 77 70
f 79 70 69
f 79 69 73
f 52 51 80
f 80 51 81
f 81 51 82
f 81 82 83
f 81 83 84
f 84 83 85
f 85 83 86
f 85 86 87
f 85 87 50
f 85 50 88
f 88 50 25
f 88 25 89
f 89 25 90
f 89 90 91
f 91 90 92
f 91 92 93
f 93 92 94
f 93 94 95
f 95 94 96
f 95 96 97
f 97 96 98
f 97 98 99
f 99 98 24
f 99 24 23
f 51 87 82
f 82 87 86
f 82 86 83
f 51 50 87
f 60 59 100
f 100 59 101
f 100 101 102
f 102 101 103
f 102 103 104
f 104 103 105
f 105 103 106
f 105 106 107
f 105 107 108
f 108 107 58
f 108 58 57
f 59 107 101
f 101 107 106
f 101 106 103
f 59 58 107
f 22 21 109
f 109 21 110
f 109 110 111
f 111 110 112
f 111 112 113
f 113 112 114
f 113 114 115
f 115 114 116
f 115 116 117
f 117 116 20
f 117 20 19
f 21 116 110
f 110 116 114
f 110 114 112
f 21 20 116
f 74 68 67
f 74 67 71
f 74 71 77
f 77 71 70
f 49 48 118
f 118 48 119
f 118 119 120
f 120 119 121
f 120 121 122
f 122 121 47
f 122 47 46
f 48 121 119
f 121 48 47
f 25 24 90
f 90 24 98
f 90 98 92
f 92 98 96
f 92 96 94
f 56 55 123
f 123 55 124
f 123 124 125
f 125 124 126
f 126 124 127
f 126 127 54
f 126 54 53
f 55 127 124
f 127 55 54
f 61 66 62
f 62 66 128
f 62 128 63
f 63 128 129
f 63 129 64
f 64 129 130
f 64 130 65
f 65 130 131
f 65 131 132
f 65 132 128
f 65 128 66
f 129 131 130
f 131 129 132
f 132 129 128
f 38 40 39
f 133 134 135
f 133 135 136
f 133 136 137
f 137 136 138
f 137 138 139
f 139 138 140
f 139 140 141
f 141 140 142
f 141 142 143
f 143 142 144
f 143 144 134
f 134 144 135
f 145 146 147
f 145 147 148
f 145 148 149
f 145 149 150
f 145 150 146
f 146 150 151
f 146 151 152
f 146 152 147
f 151 153 154
f 151 154 152
f 155 149 156
f 155 156 157
f 155 157 153
f 155 153 150
f 155 150 149
f 149 148 156
f 153 157 154
f 153 151 150
f 151 153 158
f 159 160 161
f 162 163 164
f 165 166 167
f 168 169 170
f 171 172 173
f 174 175 176
f 177 178 179
f 180 181 182
