# RS2 Model 8122
# Vertices: 255
# Faces: 332

v 13 11 69
v 17 -1 83
v 17 -16 74
v 17 20 23
v -18 19 23
v -15 16 68
v 16 17 100
v 16 4 83
v 31 3 100
v 24 5 103
v 19 -1 98
v 20 -7 105
v 3 -15 109
v -6 -28 76
v 23 -14 23
v 33 -2 19
v 29 13 19
v 23 24 0
v 20 42 0
v 17 35 18
v 0 32 20
v -17 30 0
v -30 29 0
v -32 24 18
v -26 -4 23
v -29 -8 72
v -22 2 85
v -19 8 85
v -3 21 106
v 16 13 139
v 23 -6 131
v 17 8 96
v 31 10 101
v 31 4 104
v 26 4 107
v 24 7 110
v 24 9 108
v 25 11 103
v 32 10 105
v 39 -1 114
v 38 0 116
v 28 10 107
v 25 9 109
v 25 8 112
v 24 8 113
v -10 -30 23
v 19 -36 20
v 28 -28 22
v 31 -15 0
v 44 -2 0
v 53 9 0
v 47 8 7
v 39 15 7
v 33 19 0
v -31 -20 20
v -23 -33 18
v -10 -38 0
v -2 -42 0
v 0 -39 12
v 11 -43 9
v 20 -45 0
v 28 -46 0
v 29 -44 4
v 33 -38 8
v 45 -38 9
v 37 -26 0
v -16 -3 107
v -17 1 102
v -22 11 106
v -29 11 105
v -29 18 105
v -14 12 99
v -12 0 128
v 1 16 136
v 16 6 164
v 23 -4 147
v 6 -14 130
v 20 -9 111
v 7 -15 114
v -2 -15 114
v 1 9 161
v 12 11 213
v -7 -1 145
v 5 11 211
v 1 5 213
v 6 -8 156
v 7 0 216
v 14 -10 155
v 13 4 217
v -20 -38 0
v -29 -41 7
v -28 -43 1
v -32 -42 8
v -36 -46 0
v -36 -39 10
v -38 -46 0
v -42 -44 6
v -42 -47 0
v -49 -50 4
v -51 -52 0
v -53 -48 0
v -50 -48 4
v -45 -38 6
v -45 -38 0
v -39 -33 9
v -36 -21 0
v -32 -5 0
v -35 8 18
v -38 6 0
v -45 18 11
v -47 17 0
v -52 27 4
v -53 27 0
v -54 33 2
v -56 34 0
v -54 37 0
v -53 35 2
v -47 31 4
v -46 32 0
v -41 24 11
v -39 28 0
v 49 -37 0
v 52 -46 6
v 55 -46 0
v 59 -53 2
v 61 -52 0
v 59 -58 0
v 57 -55 2
v 48 -47 6
v 48 -50 0
v 36 -43 0
v 33 -43 5
v 34 -45 0
v -3 37 0
v 2 44 8
v 0 48 0
v 3 59 4
v 2 62 0
v 3 67 2
v 3 70 0
v 6 66 0
v 8 57 4
v 9 60 0
v 12 48 8
v 16 53 0
v -11 -5 129
v 2 -14 131
v -15 -6 115
v -1 -16 117
v 2 -17 125
v 6 -18 125
v 6 -16 117
v 43 20 0
v 48 19 4
v 53 22 0
v 58 22 2
v 61 24 0
v 60 20 0
v 51 16 4
v 54 15 0
v 12 -50 0
v 4 -53 5
v 2 -56 0
v -1 -53 0
v 0 -52 4
v -21 14 110
v -19 15 110
v -17 15 114
v -18 16 114
v -21 16 110
v -26 17 109
v -25 11 109
v -22 18 106
v -30 8 133
v -29 6 133
v -37 -25 212
v -36 23 204
v -68 42 146
v -69 -55 163
v 9 -53 219
v 13 -103 182
v 56 -25 221
v 103 -55 182
v 57 23 213
v 104 42 165
v 11 54 204
v 17 93 147
v 65 -31 235
v 8 -58 234
v 12 -93 193
v 92 -51 196
v 66 31 225
v 6 8 257
v -45 -31 223
v -65 -51 179
v -44 31 214
v -63 40 164
v 10 71 213
v 95 40 182
v 15 91 164
v 8 -31 229
v 53 51 247
v 95 34 182
v 51 -32 263
v 1 52 214
v 26 87 150
v 66 10 229
v -46 23 232
v -54 44 162
v 13 64 231
v 70 -13 231
v 99 -60 183
v -2 -52 230
v 19 -48 234
v 11 -100 179
v -45 -12 222
v 52 41 260
v 107 -51 224
v -43 -7 256
v -37 30 255
v 10 97 196
v 43 -14 267
v 6 -43 270
v -74 -46 208
v 7 53 254
v -29 39 215
v -71 27 147
v -31 -48 232
v -35 43 235
v -63 27 166
v -37 -41 252
v 48 44 223
v 105 35 167
v 47 -41 238
v 6 63 240
v 24 84 169
v 72 21 252
v -42 19 210
v -56 49 145
v 19 55 210
v 67 -12 256
v 92 -49 196
v -3 -53 255
v 13 -51 256
v 9 -91 191
v -51 -12 244
v 4 59 253
v 104 55 211
v 2 -45 271
v 55 -14 272
v 16 -111 225
v -31 33 254
v -32 -20 262
v -79 49 190
v 43 26 264

f 1 2 3
f 1 3 4
f 1 4 5
f 1 5 6
f 1 6 7
f 1 7 8
f 1 8 2
f 2 8 9
f 2 9 10
f 2 10 11
f 2 11 12
f 2 12 3
f 3 12 13
f 3 13 14
f 3 14 15
f 3 15 4
f 4 15 16
f 4 16 17
f 4 17 18
f 4 18 19
f 4 19 20
f 4 20 5
f 5 20 21
f 5 21 22
f 5 22 23
f 5 23 24
f 5 24 25
f 5 25 6
f 6 25 26
f 6 26 27
f 6 27 28
f 6 28 29
f 6 29 7
f 7 29 30
f 7 30 31
f 7 31 12
f 7 12 11
f 7 11 32
f 7 32 8
f 8 32 33
f 8 33 9
f 9 33 34
f 9 34 35
f 9 35 10
f 10 35 36
f 10 36 37
f 10 37 38
f 10 38 11
f 11 38 32
f 32 38 33
f 33 38 39
f 33 39 34
f 34 39 40
f 34 40 35
f 35 40 41
f 35 41 42
f 35 42 36
f 36 42 43
f 36 43 44
f 36 44 45
f 36 45 37
f 37 45 44
f 37 44 43
f 37 43 38
f 38 43 42
f 38 42 39
f 39 42 41
f 39 41 40
f 15 14 46
f 15 46 47
f 15 47 48
f 15 48 49
f 15 49 50
f 15 50 16
f 16 50 51
f 16 51 52
f 16 52 17
f 17 52 53
f 17 53 54
f 17 54 18
f 46 26 25
f 46 25 55
f 46 55 56
f 46 56 57
f 46 57 58
f 46 58 59
f 46 59 47
f 47 59 60
f 47 60 61
f 47 61 62
f 47 62 63
f 47 63 64
f 47 64 48
f 48 64 65
f 48 65 66
f 48 66 49
f 46 14 26
f 26 14 67
f 26 67 68
f 26 68 27
f 27 68 69
f 27 69 70
f 27 70 28
f 28 70 71
f 28 71 72
f 28 72 29
f 29 72 67
f 29 67 73
f 29 73 74
f 29 74 30
f 30 74 75
f 30 75 31
f 31 75 76
f 31 76 77
f 31 77 78
f 31 78 12
f 12 78 13
f 13 78 79
f 13 79 80
f 13 80 67
f 13 67 14
f 81 82 75
f 81 75 74
f 81 74 83
f 81 83 84
f 81 84 82
f 83 85 84
f 85 83 86
f 85 86 87
f 87 86 88
f 87 88 89
f 89 88 76
f 89 76 75
f 89 75 82
f 57 56 90
f 90 56 91
f 90 91 92
f 92 91 93
f 92 93 94
f 94 93 95
f 94 95 96
f 96 95 97
f 96 97 98
f 98 97 99
f 98 99 100
f 100 99 101
f 101 99 102
f 101 102 103
f 101 103 104
f 104 103 105
f 104 105 55
f 104 55 106
f 106 55 25
f 106 25 107
f 107 25 108
f 107 108 109
f 109 108 110
f 109 110 111
f 111 110 112
f 111 112 113
f 113 112 114
f 113 114 115
f 115 114 116
f 116 114 117
f 116 117 118
f 116 118 119
f 119 118 120
f 119 120 121
f 121 120 24
f 121 24 23
f 56 105 95
f 56 95 93
f 56 93 91
f 56 55 105
f 95 103 97
f 97 103 102
f 97 102 99
f 95 105 103
f 66 65 122
f 122 65 123
f 122 123 124
f 124 123 125
f 124 125 126
f 126 125 127
f 127 125 128
f 127 128 129
f 127 129 130
f 130 129 64
f 130 64 131
f 131 64 132
f 131 132 133
f 133 132 63
f 133 63 62
f 65 129 123
f 123 129 128
f 123 128 125
f 65 64 129
f 22 21 134
f 134 21 135
f 134 135 136
f 136 135 137
f 136 137 138
f 138 137 139
f 138 139 140
f 140 139 141
f 141 139 142
f 141 142 143
f 143 142 144
f 143 144 145
f 145 144 20
f 145 20 19
f 21 144 135
f 135 144 142
f 135 142 137
f 137 142 139
f 21 20 144
f 64 63 132
f 83 74 73
f 83 73 146
f 83 146 147
f 83 147 86
f 86 147 77
f 86 77 88
f 88 77 76
f 67 146 73
f 146 67 148
f 146 148 147
f 147 148 80
f 147 80 149
f 147 149 150
f 147 150 151
f 147 151 77
f 77 151 79
f 77 79 78
f 67 80 148
f 79 151 152
f 79 152 149
f 79 149 80
f 54 53 153
f 153 53 154
f 153 154 155
f 155 154 156
f 155 156 157
f 157 156 158
f 158 156 159
f 158 159 160
f 160 159 52
f 160 52 51
f 53 159 154
f 154 159 156
f 53 52 159
f 25 24 108
f 108 24 120
f 108 120 110
f 110 120 118
f 110 118 112
f 112 118 117
f 112 117 114
f 61 60 161
f 161 60 162
f 161 162 163
f 163 162 164
f 164 162 165
f 164 165 59
f 164 59 58
f 60 165 162
f 165 60 59
f 166 167 168
f 166 168 169
f 166 169 170
f 166 170 171
f 166 171 172
f 166 172 167
f 167 172 69
f 167 69 173
f 167 173 170
f 167 170 169
f 167 169 168
f 173 171 170
f 171 173 71
f 171 71 174
f 171 174 172
f 172 174 175
f 172 175 70
f 172 70 69
f 67 72 68
f 68 72 173
f 68 173 69
f 72 71 173
f 71 175 174
f 175 71 70
f 151 150 149
f 151 149 152
f 176 177 178
f 176 178 179
f 176 179 180
f 180 179 181
f 180 181 182
f 182 181 183
f 182 183 184
f 184 183 185
f 184 185 186
f 186 185 187
f 186 187 177
f 177 187 178
f 188 189 190
f 188 190 191
f 188 191 192
f 188 192 193
f 188 193 189
f 189 193 194
f 189 194 195
f 189 195 190
f 194 196 197
f 194 197 195
f 198 192 199
f 198 199 200
f 198 200 196
f 198 196 193
f 198 193 192
f 192 191 199
f 196 200 197
f 196 194 193
f 194 196 201
f 202 203 204
f 205 206 207
f 208 209 210
f 211 212 213
f 214 215 216
f 217 218 219
f 220 221 222
f 223 224 225
