# RS2 Model 8134
# Vertices: 103
# Faces: 173

v 68 -21 196
v 70 -23 195
v 66 -24 193
v 67 -22 193
v 47 -20 197
v 46 -20 201
v 46 -21 201
v 47 -23 197
v 24 -16 181
v 25 -13 181
v 22 -11 187
v 22 -15 187
v 7 -15 173
v 10 -14 151
v 13 -5 152
v 13 -5 175
v 13 -7 183
v 7 -15 185
v 6 -13 128
v 7 0 132
v 6 3 185
v 12 -2 233
v 13 -10 240
v 10 -16 245
v -3 -16 185
v -10 -16 126
v -6 -13 72
v 6 -9 75
v 3 5 76
v -3 12 133
v -5 0 183
v 3 0 235
v 1 3 286
v 3 2 287
v 3 -3 293
v 0 -3 297
v 0 -10 243
v -18 0 130
v -18 -3 116
v -13 -11 116
v -14 -12 93
v -19 -3 73
v -20 -5 38
v -3 -16 40
v 12 -3 40
v 3 13 38
v -11 10 76
v -51 -42 143
v -54 -40 145
v -56 -40 142
v -54 -43 143
v -39 -33 138
v -36 -32 141
v -37 -30 140
v -40 -31 137
v -27 -19 120
v -23 -20 120
v -21 -18 128
v -24 -15 128
v -20 -4 93
v -12 13 38
v -37 0 -1
v -33 -11 -1
v -27 -19 -1
v -14 -21 21
v 6 -13 23
v 16 0 18
v 21 12 -1
v 12 27 -1
v 0 34 -1
v 30 0 13
v 21 -11 -1
v 30 -6 2
v 37 -5 -1
v 40 0 10
v 30 9 2
v 40 6 -1
v 45 -1 2
v 56 -7 -1
v 12 -23 -1
v -1 -29 -1
v -6 -30 -1
v -16 -37 2
v -24 -31 13
v -28 -40 10
v -23 -43 -1
v -30 -47 2
v -32 -61 -1
v -33 -31 -1
v -30 -28 1
v -4 37 -1
v -14 27 20
v -29 27 -1
v -33 16 -1
v -18 34 13
v -12 40 2
v -16 49 -1
v -24 43 10
v -27 31 2
v -29 38 -1
v -27 49 2
v -40 59 -1
v -1 -1 293

f 1 2 3
f 1 3 4
f 1 4 5
f 1 5 6
f 1 6 2
f 2 6 7
f 2 7 3
f 3 7 8
f 3 8 4
f 4 8 5
f 5 8 9
f 5 9 10
f 5 10 6
f 6 10 11
f 6 11 7
f 7 11 12
f 7 12 8
f 8 12 9
f 9 12 13
f 9 13 14
f 9 14 10
f 10 14 15
f 10 15 11
f 11 15 16
f 11 16 12
f 12 16 13
f 13 16 17
f 13 17 18
f 13 18 19
f 13 19 14
f 14 19 15
f 15 19 20
f 15 20 16
f 16 20 17
f 17 20 21
f 17 21 22
f 17 22 23
f 17 23 18
f 18 23 24
f 18 24 25
f 18 25 26
f 18 26 19
f 19 26 27
f 19 27 28
f 19 28 20
f 20 28 29
f 20 29 30
f 20 30 21
f 21 30 31
f 21 31 32
f 21 32 22
f 22 32 33
f 22 33 34
f 22 34 23
f 23 34 35
f 23 35 24
f 24 35 36
f 24 36 37
f 24 37 25
f 25 37 31
f 25 31 38
f 25 38 26
f 26 38 39
f 26 39 40
f 26 40 27
f 27 40 41
f 27 41 42
f 27 42 43
f 27 43 44
f 27 44 28
f 28 44 45
f 28 45 29
f 29 45 46
f 29 46 47
f 29 47 30
f 30 47 38
f 30 38 31
f 48 49 50
f 48 50 51
f 48 51 52
f 48 52 53
f 48 53 49
f 49 53 54
f 49 54 50
f 50 54 55
f 50 55 51
f 51 55 52
f 52 55 56
f 52 56 57
f 52 57 53
f 53 57 58
f 53 58 54
f 54 58 59
f 54 59 55
f 55 59 56
f 56 59 39
f 56 39 60
f 56 60 57
f 57 60 41
f 57 41 58
f 58 41 40
f 58 40 59
f 59 40 39
f 42 60 39
f 42 39 38
f 42 38 47
f 42 47 61
f 42 61 43
f 43 61 62
f 43 62 63
f 43 63 64
f 43 64 65
f 43 65 44
f 44 65 66
f 44 66 45
f 45 66 67
f 45 67 46
f 46 67 68
f 46 68 69
f 46 69 70
f 46 70 61
f 46 61 47
f 42 41 60
f 71 67 72
f 71 72 73
f 71 73 74
f 71 74 75
f 71 75 76
f 71 76 67
f 67 76 68
f 75 77 76
f 77 75 78
f 77 78 79
f 79 78 74
f 74 78 75
f 80 72 67
f 80 67 66
f 80 66 81
f 81 66 65
f 81 65 82
f 82 65 83
f 83 65 84
f 83 84 85
f 83 85 86
f 86 85 87
f 86 87 88
f 88 87 89
f 89 87 85
f 89 85 84
f 89 84 90
f 90 84 64
f 64 84 65
f 61 70 91
f 61 91 92
f 61 92 93
f 61 93 94
f 61 94 62
f 95 92 91
f 95 91 96
f 95 96 97
f 95 97 98
f 95 98 99
f 95 99 92
f 92 99 93
f 98 100 99
f 100 98 101
f 100 101 102
f 102 101 97
f 97 101 98
f 31 37 32
f 32 37 103
f 32 103 33
f 37 36 103
