# RS2 Model 8137
# Vertices: 271
# Faces: 283

v 49 35 483
v -71 134 454
v -31 -69 483
v 38 -39 486
v 100 110 454
v -63 1 483
v -22 -92 468
v 150 -82 425
v -27 72 501
v -72 1 495
v -30 -164 453
v 74 47 475
v -42 126 466
v -106 166 365
v -115 15 468
v -101 -28 469
v -190 -68 364
v -44 -124 465
v 98 -64 461
v 200 -44 355
v 88 59 472
v 69 -89 466
v 116 -168 371
v 163 4 435
v 90 81 466
v 112 165 362
v -30 118 468
v -10 50 483
v -150 -23 449
v 49 -58 481
v 82 -26 252
v 84 -29 251
v 79 -30 248
v 80 -27 249
v 57 -25 253
v 55 -24 258
v 55 -26 258
v 57 -28 253
v 30 -21 233
v 31 -16 233
v 27 -14 240
v 27 -19 241
v 10 -19 223
v 13 -18 194
v 16 -7 196
v 16 -7 224
v 17 -10 236
v 10 -19 237
v 9 -16 165
v 10 0 171
v 9 4 237
v 15 -3 300
v 17 -13 308
v 12 -20 315
v -5 -20 238
v -12 -20 162
v -9 -17 94
v 8 -11 97
v 4 7 98
v -4 15 172
v -7 -1 236
v 5 0 302
v 2 4 367
v 5 3 368
v 5 -4 376
v 0 -4 382
v 1 -12 312
v -22 -1 167
v -22 -4 150
v -16 -14 150
v -18 -15 121
v -23 -4 95
v -24 -7 50
v -5 -20 52
v 15 -5 52
v 5 17 51
v -14 12 98
v -62 -51 185
v -64 -48 186
v -67 -49 183
v -65 -52 184
v -47 -41 178
v -43 -39 181
v -44 -36 180
v -49 -38 176
v -32 -23 155
v -29 -25 155
v -26 -22 165
v -30 -19 166
v -24 -6 120
v -15 17 50
v -45 1 -3
v -40 -14 -3
v -33 -23 -3
v -18 -26 28
v 9 -16 31
v 21 1 25
v 26 15 -3
v 15 32 -3
v 0 42 -3
v 36 1 19
v 26 -14 -3
v 36 -9 4
v 45 -7 -3
v 48 1 14
v 36 11 4
v 49 8 -3
v 54 -2 4
v 67 -10 -3
v 15 -28 -3
v -2 -35 -3
v -9 -36 -3
v -21 -44 4
v -30 -38 19
v -34 -48 14
v -28 -53 -3
v -37 -57 4
v -39 -74 -3
v -40 -38 -3
v -36 -34 3
v -6 44 -3
v -18 33 27
v -35 32 -3
v -40 21 -3
v -22 42 19
v -15 48 4
v -21 59 -3
v -30 53 14
v -33 38 4
v -35 46 -3
v -33 59 4
v -49 71 -3
v -2 -2 376
v 110 35 461
v 195 60 365
v 132 160 365
v 73 94 461
v 1 -2 483
v 120 -45 444
v 195 -60 365
v 71 -102 450
v 119 -173 365
v 0 -112 461
v 2 -198 371
v -71 -94 461
v -131 -160 365
v -108 -35 461
v -185 -62 374
v -108 35 461
v -179 55 370
v -71 94 461
v -108 167 365
v 1 114 461
v -3 191 379
v 136 40 426
v 216 59 297
v 152 165 290
v 95 105 426
v 6 208 290
v 1 131 426
v -128 174 290
v -84 113 426
v -201 61 298
v -134 40 426
v -208 -63 290
v -134 -40 426
v -142 -165 290
v -93 -105 426
v 9 -206 300
v 1 -131 426
v 135 -177 290
v 86 -113 426
v 218 -63 290
v 136 -40 426
v 95 105 378
v 124 138 162
v 1 192 162
v 0 150 378
v -111 149 162
v -86 118 378
v -180 53 162
v -134 41 378
v -180 -53 162
v -132 -43 378
v -122 -138 162
v -95 -108 378
v 1 -192 162
v -1 -152 378
v 113 -149 162
v 84 -118 378
v 182 -53 162
v 136 -42 378
v 182 53 162
v 136 38 378
v -53 -100 258
v -53 -122 66
v 37 -122 66
v 37 -100 258
v 127 -35 66
v 104 -35 258
v 127 52 66
v 104 52 258
v 37 140 66
v 37 118 258
v -53 140 66
v -53 118 258
v -143 52 66
v -120 52 258
v -143 -35 66
v -120 -35 258
v -209 63 290
v 221 63 290
v -95 130 379
v -111 149 163
v -164 34 379
v -105 -119 380
v -122 -138 163
v 18 -173 380
v 1 -167 382
v 4 -191 163
v 113 -124 382
v 149 -56 384
v 181 -62 164
v 149 50 384
v 105 116 380
v 124 138 163
v -18 170 380
v 24 67 485
v -143 65 452
v 26 -66 485
v 67 -3 484
v 21 152 451
v -59 -42 484
v 13 -72 487
v 161 35 452
v -66 32 487
v -59 -41 493
v 84 -147 437
v 17 72 486
v -58 40 487
v -109 -113 452
v 71 -2 487
v -101 43 467
v -185 45 360
v -107 -70 470
v -91 -81 463
v -112 -166 360
v 39 -118 468
v 0 -107 466
v 2 -193 376
v 117 -89 451
v 97 25 477
v 211 59 348
v 63 96 466
v 5 102 473
v 1 199 370
v -108 76 458
v 5 -214 290
v -147 100 378
v -179 107 163
v -147 -6 378
v -147 -48 379
v -181 -53 163
v -89 -133 379
v 1 166 377
v 1 192 163
v -111 123 377
v 94 -128 376
v 114 -147 163
v 163 -32 376
v 92 127 378

f 1 2 3
f 4 5 6
f 7 8 9
f 10 11 12
f 13 14 15
f 16 17 18
f 19 20 21
f 22 23 24
f 25 26 27
f 28 29 30
f 31 32 33
f 31 33 34
f 31 34 35
f 31 35 36
f 31 36 32
f 32 36 37
f 32 37 33
f 33 37 38
f 33 38 34
f 34 38 35
f 35 38 39
f 35 39 40
f 35 40 36
f 36 40 41
f 36 41 37
f 37 41 42
f 37 42 38
f 38 42 39
f 39 42 43
f 39 43 44
f 39 44 40
f 40 44 45
f 40 45 41
f 41 45 46
f 41 46 42
f 42 46 43
f 43 46 47
f 43 47 48
f 43 48 49
f 43 49 44
f 44 49 45
f 45 49 50
f 45 50 46
f 46 50 47
f 47 50 51
f 47 51 52
f 47 52 53
f 47 53 48
f 48 53 54
f 48 54 55
f 48 55 56
f 48 56 49
f 49 56 57
f 49 57 58
f 49 58 50
f 50 58 59
f 50 59 60
f 50 60 51
f 51 60 61
f 51 61 62
f 51 62 52
f 52 62 63
f 52 63 64
f 52 64 53
f 53 64 65
f 53 65 54
f 54 65 66
f 54 66 67
f 54 67 55
f 55 67 61
f 55 61 68
f 55 68 56
f 56 68 69
f 56 69 70
f 56 70 57
f 57 70 71
f 57 71 72
f 57 72 73
f 57 73 74
f 57 74 58
f 58 74 75
f 58 75 59
f 59 75 76
f 59 76 77
f 59 77 60
f 60 77 68
f 60 68 61
f 78 79 80
f 78 80 81
f 78 81 82
f 78 82 83
f 78 83 79
f 79 83 84
f 79 84 80
f 80 84 85
f 80 85 81
f 81 85 82
f 82 85 86
f 82 86 87
f 82 87 83
f 83 87 88
f 83 88 84
f 84 88 89
f 84 89 85
f 85 89 86
f 86 89 69
f 86 69 90
f 86 90 87
f 87 90 71
f 87 71 88
f 88 71 70
f 88 70 89
f 89 70 69
f 72 90 69
f 72 69 68
f 72 68 77
f 72 77 91
f 72 91 73
f 73 91 92
f 73 92 93
f 73 93 94
f 73 94 95
f 73 95 74
f 74 95 96
f 74 96 75
f 75 96 97
f 75 97 76
f 76 97 98
f 76 98 99
f 76 99 100
f 76 100 91
f 76 91 77
f 72 71 90
f 101 97 102
f 101 102 103
f 101 103 104
f 101 104 105
f 101 105 106
f 101 106 97
f 97 106 98
f 105 107 106
f 107 105 108
f 107 108 109
f 109 108 104
f 104 108 105
f 110 102 97
f 110 97 96
f 110 96 111
f 111 96 95
f 111 95 112
f 112 95 113
f 113 95 114
f 113 114 115
f 113 115 116
f 116 115 117
f 116 117 118
f 118 117 119
f 119 117 115
f 119 115 114
f 119 114 120
f 120 114 94
f 94 114 95
f 91 100 121
f 91 121 122
f 91 122 123
f 91 123 124
f 91 124 92
f 125 122 121
f 125 121 126
f 125 126 127
f 125 127 128
f 125 128 129
f 125 129 122
f 122 129 123
f 128 130 129
f 130 128 131
f 130 131 132
f 132 131 127
f 127 131 128
f 61 67 62
f 62 67 133
f 62 133 63
f 67 66 133
f 134 135 136
f 134 136 137
f 134 137 138
f 134 138 139
f 134 139 135
f 135 139 140
f 140 139 141
f 140 141 142
f 142 141 143
f 142 143 144
f 144 143 145
f 144 145 146
f 146 145 147
f 146 147 148
f 148 147 149
f 148 149 150
f 150 149 151
f 150 151 152
f 152 151 153
f 152 153 154
f 154 153 137
f 154 137 136
f 155 156 157
f 155 157 158
f 158 157 159
f 158 159 160
f 160 159 161
f 160 161 162
f 162 161 163
f 162 163 164
f 164 163 165
f 164 165 166
f 166 165 167
f 166 167 168
f 168 167 169
f 168 169 170
f 170 169 171
f 170 171 172
f 172 171 173
f 172 173 174
f 174 173 156
f 174 156 155
f 175 176 177
f 175 177 178
f 178 177 179
f 178 179 180
f 180 179 181
f 180 181 182
f 182 181 183
f 182 183 184
f 184 183 185
f 184 185 186
f 186 185 187
f 186 187 188
f 188 187 189
f 188 189 190
f 190 189 191
f 190 191 192
f 192 191 193
f 192 193 194
f 194 193 176
f 194 176 175
f 195 196 197
f 195 197 198
f 198 197 199
f 198 199 200
f 200 199 201
f 200 201 202
f 202 201 203
f 202 203 204
f 204 203 205
f 204 205 206
f 206 205 207
f 206 207 208
f 208 207 209
f 208 209 210
f 210 209 196
f 210 196 195
f 195 196 198
f 139 138 141
f 141 138 143
f 143 138 145
f 145 138 147
f 147 138 149
f 149 138 151
f 151 138 153
f 153 138 137
f 164 211 166
f 160 159 162
f 155 212 158
f 172 171 174
f 168 167 170
f 200 199 202
f 204 203 206
f 208 207 210
f 213 214 215
f 216 217 218
f 219 220 221
f 222 223 224
f 225 226 227
