# RS2 Model 8138
# Vertices: 103
# Faces: 173

v 82 -26 252
v 84 -29 251
v 79 -30 248
v 80 -27 249
v 57 -25 253
v 55 -24 258
v 55 -26 258
v 57 -28 253
v 30 -21 233
v 31 -16 233
v 27 -14 240
v 27 -19 241
v 10 -19 223
v 13 -18 194
v 16 -7 196
v 16 -7 224
v 17 -10 236
v 10 -19 237
v 9 -16 165
v 10 0 171
v 9 4 237
v 15 -3 300
v 17 -13 308
v 12 -20 315
v -5 -20 238
v -12 -20 162
v -9 -17 94
v 8 -11 97
v 4 7 98
v -4 15 172
v -7 -1 236
v 5 0 302
v 2 4 367
v 5 3 368
v 5 -4 376
v 0 -4 382
v 1 -12 312
v -22 -1 167
v -22 -4 150
v -16 -14 150
v -18 -15 121
v -23 -4 95
v -24 -7 50
v -5 -20 52
v 15 -5 52
v 5 17 51
v -14 12 98
v -62 -51 185
v -64 -48 186
v -67 -49 183
v -65 -52 184
v -47 -41 178
v -43 -39 181
v -44 -36 180
v -49 -38 176
v -32 -23 155
v -29 -25 155
v -26 -22 165
v -30 -19 166
v -24 -6 120
v -15 17 50
v -45 1 -3
v -40 -14 -3
v -33 -23 -3
v -18 -26 28
v 9 -16 31
v 21 1 25
v 26 15 -3
v 15 32 -3
v 0 42 -3
v 36 1 19
v 26 -14 -3
v 36 -9 4
v 45 -7 -3
v 48 1 14
v 36 11 4
v 49 8 -3
v 54 -2 4
v 67 -10 -3
v 15 -28 -3
v -2 -35 -3
v -9 -36 -3
v -21 -44 4
v -30 -38 19
v -34 -48 14
v -28 -53 -3
v -37 -57 4
v -39 -74 -3
v -40 -38 -3
v -36 -34 3
v -6 44 -3
v -18 33 27
v -35 32 -3
v -40 21 -3
v -22 42 19
v -15 48 4
v -21 59 -3
v -30 53 14
v -33 38 4
v -35 46 -3
v -33 59 4
v -49 71 -3
v -2 -2 376

f 1 2 3
f 1 3 4
f 1 4 5
f 1 5 6
f 1 6 2
f 2 6 7
f 2 7 3
f 3 7 8
f 3 8 4
f 4 8 5
f 5 8 9
f 5 9 10
f 5 10 6
f 6 10 11
f 6 11 7
f 7 11 12
f 7 12 8
f 8 12 9
f 9 12 13
f 9 13 14
f 9 14 10
f 10 14 15
f 10 15 11
f 11 15 16
f 11 16 12
f 12 16 13
f 13 16 17
f 13 17 18
f 13 18 19
f 13 19 14
f 14 19 15
f 15 19 20
f 15 20 16
f 16 20 17
f 17 20 21
f 17 21 22
f 17 22 23
f 17 23 18
f 18 23 24
f 18 24 25
f 18 25 26
f 18 26 19
f 19 26 27
f 19 27 28
f 19 28 20
f 20 28 29
f 20 29 30
f 20 30 21
f 21 30 31
f 21 31 32
f 21 32 22
f 22 32 33
f 22 33 34
f 22 34 23
f 23 34 35
f 23 35 24
f 24 35 36
f 24 36 37
f 24 37 25
f 25 37 31
f 25 31 38
f 25 38 26
f 26 38 39
f 26 39 40
f 26 40 27
f 27 40 41
f 27 41 42
f 27 42 43
f 27 43 44
f 27 44 28
f 28 44 45
f 28 45 29
f 29 45 46
f 29 46 47
f 29 47 30
f 30 47 38
f 30 38 31
f 48 49 50
f 48 50 51
f 48 51 52
f 48 52 53
f 48 53 49
f 49 53 54
f 49 54 50
f 50 54 55
f 50 55 51
f 51 55 52
f 52 55 56
f 52 56 57
f 52 57 53
f 53 57 58
f 53 58 54
f 54 58 59
f 54 59 55
f 55 59 56
f 56 59 39
f 56 39 60
f 56 60 57
f 57 60 41
f 57 41 58
f 58 41 40
f 58 40 59
f 59 40 39
f 42 60 39
f 42 39 38
f 42 38 47
f 42 47 61
f 42 61 43
f 43 61 62
f 43 62 63
f 43 63 64
f 43 64 65
f 43 65 44
f 44 65 66
f 44 66 45
f 45 66 67
f 45 67 46
f 46 67 68
f 46 68 69
f 46 69 70
f 46 70 61
f 46 61 47
f 42 41 60
f 71 67 72
f 71 72 73
f 71 73 74
f 71 74 75
f 71 75 76
f 71 76 67
f 67 76 68
f 75 77 76
f 77 75 78
f 77 78 79
f 79 78 74
f 74 78 75
f 80 72 67
f 80 67 66
f 80 66 81
f 81 66 65
f 81 65 82
f 82 65 83
f 83 65 84
f 83 84 85
f 83 85 86
f 86 85 87
f 86 87 88
f 88 87 89
f 89 87 85
f 89 85 84
f 89 84 90
f 90 84 64
f 64 84 65
f 61 70 91
f 61 91 92
f 61 92 93
f 61 93 94
f 61 94 62
f 95 92 91
f 95 91 96
f 95 96 97
f 95 97 98
f 95 98 99
f 95 99 92
f 92 99 93
f 98 100 99
f 100 98 101
f 100 101 102
f 102 101 97
f 97 101 98
f 31 37 32
f 32 37 103
f 32 103 33
f 37 36 103
