# RS2 Model 8140
# Vertices: 72
# Faces: 114

v 27 0 11
v 15 0 15
v 19 -10 -1
v 27 -6 2
v 33 -5 -1
v 36 0 8
v 27 8 2
v 19 11 -1
v 3 12 31
v 11 -3 32
v 6 -12 19
v 11 -21 -1
v 36 6 -1
v 40 -1 2
v 50 -7 -1
v 11 24 -1
v 0 31 -1
v -11 12 31
v -9 9 31
v 1 9 31
v 8 -2 31
v -3 -15 32
v -13 -19 17
v -1 -26 -1
v -4 33 -1
v -13 24 16
v -26 24 -1
v -30 15 -1
v -33 0 -1
v -18 -5 31
v -15 -4 31
v -12 -3 31
v -8 6 31
v 0 6 31
v 5 -2 31
v -3 -12 31
v -24 -17 -1
v -22 -28 11
v -15 -33 2
v -6 -27 -1
v -30 -10 -1
v -27 -25 1
v -30 -28 -1
v -25 -36 8
v -21 -39 -1
v -27 -42 2
v -29 -55 -1
v -16 31 11
v -11 36 2
v -15 44 -1
v -22 39 8
v -24 28 2
v -26 34 -1
v -24 44 2
v -36 53 -1
v -3 -9 31
v -3 -7 31
v -9 -3 31
v -6 4 31
v 0 4 31
v 2 -2 31
v 0 -1 31
v -3 -5 31
v -7 -2 31
v -5 2 31
v -1 2 31
v -2 0 31
v -1 -1 31
v -3 -3 31
v -5 -2 31
v -4 0 31
v -3 -1 31

f 1 2 3
f 1 3 4
f 1 4 5
f 1 5 6
f 1 6 7
f 1 7 2
f 2 7 8
f 2 8 9
f 2 9 10
f 2 10 11
f 2 11 12
f 2 12 3
f 6 13 7
f 13 6 14
f 13 14 15
f 15 14 5
f 5 14 6
f 8 16 9
f 9 16 17
f 9 17 18
f 9 18 19
f 9 19 20
f 9 20 10
f 10 20 21
f 10 21 22
f 10 22 11
f 11 22 23
f 11 23 24
f 11 24 12
f 18 17 25
f 18 25 26
f 18 26 27
f 18 27 28
f 18 28 29
f 18 29 30
f 18 30 31
f 18 31 19
f 19 31 32
f 19 32 33
f 19 33 20
f 20 33 34
f 20 34 21
f 21 34 35
f 21 35 36
f 21 36 22
f 22 36 30
f 22 30 23
f 23 30 37
f 23 37 38
f 23 38 39
f 23 39 40
f 23 40 24
f 41 37 30
f 41 30 29
f 38 37 42
f 38 42 43
f 38 43 44
f 38 44 39
f 39 44 45
f 45 44 46
f 45 46 47
f 47 46 43
f 43 46 44
f 48 26 25
f 48 25 49
f 48 49 50
f 48 50 51
f 48 51 52
f 48 52 26
f 26 52 27
f 51 53 52
f 53 51 54
f 53 54 55
f 55 54 50
f 50 54 51
f 36 31 30
f 31 36 56
f 31 56 32
f 32 56 57
f 32 57 58
f 32 58 33
f 33 58 59
f 33 59 34
f 34 59 60
f 34 60 35
f 35 60 61
f 35 61 56
f 35 56 36
f 61 57 56
f 57 61 62
f 57 62 63
f 57 63 58
f 58 63 64
f 58 64 59
f 59 64 65
f 59 65 60
f 60 65 66
f 60 66 61
f 61 66 62
f 62 66 67
f 62 67 68
f 62 68 63
f 63 68 69
f 63 69 64
f 64 69 70
f 64 70 65
f 65 70 71
f 65 71 66
f 66 71 67
f 67 71 72
f 67 72 68
f 68 72 69
f 69 72 70
f 70 72 71
