# RS2 Model 8145
# Vertices: 231
# Faces: 226

v 7 -2 112
v 1 -2 107
v 1 -5 107
v 7 -5 110
v 8 -7 120
v 8 -2 117
v 10 -2 111
v 7 -4 102
v 2 -3 102
v -4 -2 104
v -4 -6 104
v 9 -6 113
v 13 -6 121
v 12 -5 136
v 7 -6 135
v 7 0 136
v 14 -2 118
v 10 0 115
v 13 2 114
v 16 1 110
v 17 2 114
v 13 -2 113
v 12 -6 112
v 14 -6 104
v 14 -2 102
v 8 -2 101
v 8 -7 104
v 10 -6 107
v 15 -14 109
v 18 -13 109
v 12 0 135
v 11 -1 143
v 11 -4 143
v 9 -5 139
v 7 -5 143
v 7 -1 143
v 6 -3 159
v 7 0 156
v 0 3 143
v 9 -1 139
v 7 0 135
v -3 -4 102
v -9 -3 103
v 25 9 111
v 20 5 110
v 17 5 112
v 22 5 112
v -2 7 143
v -6 7 141
v -9 10 144
v -4 7 143
v 3 3 143
v 1 3 140
v 1 -12 144
v 4 -12 144
v 8 -8 143
v 4 -7 143
v 6 -8 140
v 2 -12 142
v 1 -15 145
v 21 0 152
v 21 0 151
v 26 2 152
v 21 2 152
v 16 -1 154
v 16 0 151
v 10 -2 161
v 10 0 153
v 16 1 154
v 10 0 158
v 8 6 198
v 8 4 201
v 10 -2 156
v 6 5 198
v 21 -19 105
v 25 -18 104
v 30 -25 105
v 23 -19 107
v 19 -12 105
v 6 -5 77
v 12 -4 75
v 12 0 77
v 6 0 79
v 3 2 42
v 2 -4 40
v 10 -4 40
v 10 2 42
v 5 5 0
v -4 4 0
v -4 -2 0
v 4 -2 0
v 6 4 201
v 10 0 154
v -11 11 147
v -14 17 169
v -7 14 163
v -9 11 148
v -12 11 147
v -31 17 155
v -24 16 158
v -11 13 151
v -10 11 146
v -1 12 160
v 2 10 154
v -7 10 144
v 2 9 154
v -1 11 162
v -11 10 146
v -8 9 144
v -11 12 146
v -11 12 150
v 22 -24 123
v 18 -15 125
v 27 -24 108
v 27 -27 111
v 25 -24 108
v 33 -39 115
v 31 -37 124
v 26 -25 108
v 28 -29 108
v 34 -41 105
v 35 -45 111
v 25 -24 107
v 27 -27 104
v 26 -24 107
v 37 -44 110
v -2 24 109
v 15 -13 147
v 23 -15 76
v 35 11 165
v 30 5 172
v 26 -1 153
v 29 5 153
v 40 19 155
v 40 18 163
v 26 -1 152
v 28 3 150
v 19 -11 166
v 12 -20 164
v 26 0 153
v 27 1 156
v 27 2 156
v 27 0 153
v 40 18 161
v 29 5 150
v 40 -12 92
v 19 22 136
v -9 -26 72
v -7 -1 105
v -13 12 124
v -18 7 118
v -11 -1 105
v -6 -2 105
v 8 8 118
v 0 9 118
v -8 1 109
v -7 -2 105
v 40 6 114
v -4 22 137
v 10 -21 80
v -8 -2 104
v -23 4 113
v -23 0 107
v -11 -4 102
v -8 -41 53
v -46 -18 83
v 17 -8 97
v -23 -1 106
v -24 5 114
v -7 -2 104
v -10 -4 102
v -47 13 115
v -49 24 171
v 5 1 111
v 1 -1 99
v -45 15 123
v 23 3 147
v -57 21 142
v -29 22 181
v -14 6 113
v 13 -4 89
v 33 -1 137
v -29 13 129
v 38 -5 118
v 25 7 169
v -14 8 122
v 29 7 179
v -18 21 193
v 10 4 130
v 55 -80 105
v 36 -51 142
v 30 -30 85
v 40 -44 60
v 50 -70 102
v 16 -6 94
v 20 -6 56
v 44 -54 74
v 11 1 107
v 17 -4 69
v 1 17 112
v 42 -53 87
v 2 15 132
v 27 -34 140
v 13 -1 88
v 58 45 117
v 64 49 162
v 15 -13 133
v 27 8 100
v 60 47 133
v 6 -26 143
v 71 57 169
v 35 8 193
v 37 18 133
v 22 -3 111
v -10 -47 143
v 55 39 145
v -15 -55 160
v 22 -8 185
v 12 -15 126
v -14 -52 136
v 2 -35 183
v 28 7 120
v -1 -33 64
v 35 -8 97
v -40 -10 95
v -43 -30 67
v -51 4 112
v 6 -16 87
v -60 8 118
v -19 28 145
v -20 -17 85

f 1 2 3
f 1 3 4
f 1 4 5
f 1 5 6
f 1 6 7
f 1 7 8
f 1 8 2
f 2 8 9
f 2 9 10
f 2 10 3
f 3 10 11
f 3 11 9
f 3 9 8
f 3 8 4
f 4 8 12
f 4 12 5
f 5 12 13
f 5 13 14
f 5 14 15
f 5 15 6
f 6 15 16
f 6 16 17
f 6 17 18
f 6 18 7
f 7 18 19
f 7 19 20
f 7 20 21
f 7 21 22
f 7 22 23
f 7 23 24
f 7 24 25
f 7 25 26
f 7 26 8
f 8 26 27
f 8 27 12
f 12 27 28
f 12 28 29
f 12 29 30
f 12 30 23
f 12 23 13
f 13 23 17
f 13 17 31
f 13 31 14
f 14 31 32
f 14 32 33
f 14 33 34
f 14 34 15
f 15 34 35
f 15 35 16
f 16 35 36
f 36 35 37
f 36 37 38
f 36 38 32
f 36 32 39
f 36 39 40
f 36 40 41
f 10 42 43
f 10 43 11
f 11 43 42
f 11 42 9
f 9 42 10
f 21 19 18
f 21 18 22
f 22 18 17
f 22 17 23
f 44 45 46
f 44 46 47
f 44 47 45
f 45 47 20
f 45 20 46
f 46 20 19
f 46 19 21
f 46 21 47
f 47 21 20
f 48 49 50
f 48 50 51
f 48 51 39
f 48 39 52
f 48 52 53
f 48 53 49
f 49 53 51
f 49 51 50
f 52 32 40
f 52 40 53
f 53 40 39
f 53 39 51
f 32 52 39
f 54 55 56
f 54 56 57
f 54 57 58
f 54 58 59
f 54 59 60
f 54 60 55
f 55 60 59
f 55 59 58
f 55 58 56
f 56 58 34
f 56 34 33
f 56 33 35
f 56 35 57
f 57 35 34
f 57 34 58
f 61 62 63
f 61 63 64
f 61 64 65
f 61 65 66
f 61 66 62
f 62 66 64
f 62 64 63
f 65 67 68
f 65 68 66
f 66 68 69
f 66 69 64
f 64 69 65
f 65 69 70
f 65 70 67
f 67 70 71
f 67 71 72
f 67 72 37
f 67 37 73
f 67 73 68
f 68 70 69
f 70 68 38
f 70 38 74
f 70 74 71
f 75 76 77
f 75 77 78
f 75 78 30
f 75 30 29
f 75 29 79
f 75 79 76
f 76 79 78
f 76 78 77
f 79 29 28
f 79 28 30
f 79 30 78
f 28 23 30
f 23 28 24
f 24 28 27
f 24 27 80
f 24 80 81
f 24 81 25
f 25 81 82
f 25 82 26
f 26 82 83
f 26 83 27
f 27 83 80
f 80 83 84
f 80 84 85
f 80 85 81
f 81 85 86
f 81 86 82
f 82 86 87
f 82 87 83
f 83 87 84
f 84 87 88
f 84 88 89
f 84 89 85
f 85 89 90
f 85 90 86
f 86 90 91
f 86 91 87
f 87 91 88
f 37 72 92
f 37 92 38
f 38 92 74
f 35 33 73
f 35 73 37
f 32 38 93
f 32 93 33
f 33 93 73
f 17 16 31
f 31 16 40
f 31 40 32
f 94 95 96
f 94 96 97
f 94 97 96
f 94 96 95
f 98 99 100
f 98 100 101
f 102 103 104
f 102 104 105
f 106 107 108
f 106 108 109
f 100 99 110
f 100 110 111
f 112 113 114
f 112 114 115
f 112 115 116
f 112 116 113
f 117 118 119
f 117 119 120
f 117 120 119
f 117 119 118
f 121 122 123
f 121 123 124
f 121 124 125
f 121 125 126
f 127 128 129
f 130 131 132
f 130 132 133
f 130 133 132
f 130 132 131
f 134 135 136
f 134 136 137
f 138 139 140
f 138 140 141
f 132 139 138
f 132 138 142
f 143 144 134
f 143 134 145
f 146 147 148
f 149 150 151
f 149 151 152
f 149 152 151
f 149 151 150
f 153 154 155
f 153 155 156
f 156 155 157
f 157 155 154
f 158 159 160
f 161 162 163
f 161 163 164
f 165 166 167
f 168 169 170
f 168 170 171
