# RS2 Model 8156
# Vertices: 127
# Faces: 224

v -11 -18 37
v 7 -28 0
v 20 -10 33
v 3 -14 49
v -18 -3 47
v -29 -17 0
v -21 -25 26
v -11 -29 0
v 0 -29 0
v 26 -21 0
v 31 3 32
v 26 -1 49
v 28 -3 113
v 22 -11 114
v 9 -18 114
v -1 -8 112
v -8 -1 112
v 3 9 117
v -7 17 47
v -42 3 0
v -36 -9 0
v 13 16 47
v 24 6 117
v 32 -7 178
v 28 -12 175
v 16 -21 175
v 9 -14 175
v 0 -6 174
v 7 2 181
v 16 8 178
v 12 13 119
v 8 40 0
v 2 42 0
v -11 32 27
v -30 31 0
v -36 21 0
v 38 16 0
v 45 13 0
v 39 2 21
v 48 2 16
v 53 10 0
v 63 4 11
v 74 7 0
v 56 -5 0
v 45 -7 0
v 38 -9 0
v 26 32 0
v -30 -22 0
v -34 -32 0
v -24 -32 15
v -17 -37 0
v -28 -42 13
v -31 -53 0
v -15 40 21
v -4 44 0
v -13 50 0
v -18 44 16
v -25 34 0
v -26 43 0
v -21 51 11
v -30 59 0
v 26 2 177
v 35 -10 239
v 29 -18 238
v 24 -22 219
v 18 -25 238
v 8 -20 221
v 1 -9 223
v 1 -1 201
v 6 -1 227
v 12 6 238
v 21 3 223
v 30 -1 237
v 28 1 293
v 26 -4 310
v 25 -12 300
v 16 -19 281
v 55 -49 216
v 48 -48 203
v 43 -53 213
v 73 -77 209
v 77 -68 212
v 78 -75 203
v 47 42 218
v 36 45 218
v 39 45 203
v 60 82 205
v 50 82 208
v 64 114 223
v 56 82 195
v 92 -89 227
v -41 3 199
v -39 -10 200
v 4 2 281
v 9 6 264
v 15 7 281
v 21 4 309
v 52 7 295
v 53 3 284
v 56 -1 294
v 12 17 418
v 8 -17 278
v 2 -44 286
v 12 -18 264
v 1 -6 300
v -17 25 286
v -11 29 267
v -8 29 286
v -34 57 298
v -41 57 297
v -39 57 282
v -78 -1 202
v -78 -15 203
v -37 -2 185
v -84 -10 193
v -112 -17 235
v -5 -43 286
v -11 -64 302
v 0 -66 303
v 0 -45 268
v -14 -79 314
v -8 -69 293
v -52 78 311
v 77 14 299
v 77 11 288
v 78 6 295
v 98 20 310

f 1 2 3
f 1 3 4
f 1 4 5
f 1 5 6
f 1 6 7
f 1 7 8
f 1 8 9
f 1 9 2
f 2 10 3
f 3 10 11
f 3 11 12
f 3 12 4
f 4 12 13
f 4 13 14
f 4 14 15
f 4 15 16
f 4 16 5
f 5 16 17
f 5 17 18
f 5 18 19
f 5 19 20
f 5 20 21
f 5 21 6
f 11 22 12
f 12 22 23
f 12 23 13
f 13 23 24
f 13 24 25
f 13 25 14
f 14 25 26
f 14 26 15
f 15 26 27
f 15 27 16
f 16 27 28
f 16 28 17
f 17 28 29
f 17 29 18
f 18 29 30
f 18 30 31
f 18 31 19
f 19 31 22
f 19 22 32
f 19 32 33
f 19 33 34
f 19 34 35
f 19 35 36
f 19 36 20
f 37 22 11
f 37 11 38
f 38 11 39
f 38 39 40
f 38 40 41
f 41 40 42
f 41 42 43
f 43 42 44
f 44 42 40
f 44 40 39
f 44 39 45
f 45 39 46
f 46 39 11
f 46 11 10
f 37 47 22
f 22 47 32
f 7 6 48
f 7 48 49
f 7 49 50
f 7 50 8
f 8 50 51
f 51 50 52
f 51 52 53
f 53 52 49
f 49 52 50
f 54 34 33
f 54 33 55
f 54 55 56
f 54 56 57
f 54 57 58
f 54 58 34
f 34 58 35
f 57 59 58
f 59 57 60
f 59 60 61
f 61 60 56
f 56 60 57
f 22 31 23
f 23 31 62
f 23 62 24
f 24 62 63
f 24 63 64
f 24 64 25
f 25 64 65
f 25 65 26
f 26 65 66
f 26 66 67
f 26 67 27
f 27 67 68
f 27 68 28
f 28 68 69
f 28 69 29
f 29 69 70
f 29 70 71
f 29 71 30
f 30 71 72
f 30 72 62
f 30 62 31
f 62 72 73
f 62 73 63
f 63 73 74
f 63 74 75
f 63 75 76
f 63 76 64
f 64 76 77
f 64 77 66
f 64 66 78
f 64 78 65
f 65 78 79
f 65 79 80
f 65 80 66
f 66 80 78
f 78 80 81
f 78 81 82
f 78 82 79
f 79 82 83
f 79 83 81
f 79 81 80
f 84 85 71
f 84 71 73
f 84 73 72
f 84 72 86
f 84 86 87
f 84 87 88
f 84 88 85
f 85 88 86
f 85 86 72
f 85 72 71
f 87 89 88
f 88 89 90
f 88 90 86
f 86 90 87
f 87 90 89
f 81 91 82
f 82 91 83
f 83 91 81
f 70 92 93
f 70 93 68
f 70 68 94
f 70 94 95
f 70 95 71
f 71 95 96
f 71 96 97
f 71 97 73
f 73 97 74
f 74 97 98
f 74 98 99
f 74 99 100
f 74 100 75
f 75 100 97
f 75 97 101
f 75 101 76
f 76 101 77
f 77 101 102
f 77 102 103
f 77 103 104
f 77 104 66
f 66 104 67
f 67 104 102
f 67 102 105
f 67 105 68
f 68 105 94
f 94 105 101
f 94 101 96
f 94 96 106
f 94 106 95
f 95 106 107
f 95 107 108
f 95 108 96
f 96 108 106
f 106 108 109
f 106 109 110
f 106 110 107
f 107 110 111
f 107 111 109
f 107 109 108
f 112 113 93
f 112 93 92
f 112 92 114
f 112 114 115
f 112 115 116
f 112 116 113
f 113 116 115
f 113 115 114
f 113 114 93
f 93 114 69
f 93 69 68
f 92 70 69
f 92 69 114
f 102 117 103
f 103 117 118
f 103 118 119
f 103 119 120
f 103 120 104
f 104 120 117
f 104 117 102
f 118 121 119
f 119 121 122
f 119 122 120
f 120 122 118
f 120 118 117
f 118 122 121
f 109 123 110
f 110 123 111
f 111 123 109
f 100 98 97
f 98 100 124
f 98 124 99
f 99 124 125
f 99 125 126
f 99 126 100
f 100 126 124
f 124 126 127
f 124 127 125
f 125 127 126
f 97 96 101
f 105 102 101
