# RS2 Model 8246
# Vertices: 143
# Faces: 192

v -76 -28 85
v -123 -28 85
v -120 -58 85
v -48 -59 85
v 70 -31 85
v 70 -31 77
v -76 -28 77
v -124 -28 77
v -120 -58 77
v -49 -60 77
v 80 -62 85
v 120 -27 85
v 123 -27 77
v 117 -55 85
v 119 -58 77
v 123 2 85
v 65 2 85
v 70 -27 85
v 120 -26 85
v 123 -24 77
v 124 2 77
v 65 2 77
v -77 2 85
v -75 -26 85
v -75 -26 77
v 70 -27 77
v -122 2 85
v -124 -26 85
v -124 -24 77
v -95 28 85
v -125 2 85
v -75 4 85
v 65 32 85
v 65 32 77
v -95 28 77
v -125 27 85
v -128 27 77
v -127 3 77
v -75 4 77
v 67 2 85
v 122 28 85
v 123 27 77
v 120 3 85
v 123 4 77
v 117 57 85
v 70 59 85
v 66 34 85
v 122 31 77
v 117 58 77
v 67 60 77
v -85 57 85
v -95 31 85
v -95 31 77
v 66 35 77
v -123 55 85
v -125 28 85
v -128 30 77
v -86 59 77
v -124 55 77
v -77 2 77
v -123 2 77
v 77 -59 77
v 67 2 77
v -97 26 12
v -79 26 12
v -79 46 12
v -97 46 12
v -97 46 3
v -97 26 3
v -79 26 3
v -79 46 3
v -97 26 62
v -79 26 62
v -74 21 76
v -102 21 76
v -97 46 62
v -97 46 14
v -97 26 14
v -79 26 14
v -79 46 62
v -74 51 76
v -102 51 76
v -79 46 14
v -97 -47 12
v -79 -47 12
v -79 -27 12
v -97 -27 12
v -97 -27 3
v -97 -47 3
v -79 -47 3
v -79 -27 3
v -97 -47 62
v -79 -47 62
v -74 -52 76
v -102 -52 76
v -97 -27 62
v -97 -27 14
v -97 -47 14
v -79 -47 14
v -79 -27 62
v -74 -22 76
v -102 -22 76
v -79 -27 14
v 71 26 12
v 89 26 12
v 89 46 12
v 71 46 12
v 71 46 3
v 71 26 3
v 89 26 3
v 89 46 3
v 71 26 62
v 89 26 62
v 94 21 76
v 66 21 76
v 71 46 62
v 71 46 14
v 71 26 14
v 89 26 14
v 89 46 62
v 94 51 76
v 66 51 76
v 89 46 14
v 71 -47 12
v 89 -47 12
v 89 -27 12
v 71 -27 12
v 71 -27 3
v 71 -47 3
v 89 -47 3
v 89 -27 3
v 71 -47 62
v 89 -47 62
v 94 -52 76
v 66 -52 76
v 71 -27 62
v 71 -27 14
v 71 -47 14
v 89 -47 14
v 89 -27 62
v 94 -22 76
v 66 -22 76
v 89 -27 14

f 1 2 3
f 1 3 4
f 1 4 5
f 1 5 6
f 1 6 7
f 1 7 2
f 2 7 8
f 2 8 3
f 3 8 9
f 3 9 4
f 4 9 10
f 4 10 11
f 4 11 5
f 5 11 12
f 5 12 13
f 5 13 6
f 12 11 14
f 12 14 15
f 12 15 13
f 16 17 18
f 16 18 19
f 16 19 20
f 16 20 21
f 16 21 17
f 17 21 22
f 17 22 23
f 17 23 24
f 17 24 18
f 18 24 25
f 18 25 26
f 18 26 19
f 19 26 20
f 23 27 28
f 23 28 24
f 24 28 29
f 24 29 25
f 30 31 32
f 30 32 33
f 30 33 34
f 30 34 35
f 30 35 36
f 30 36 31
f 31 36 37
f 31 37 38
f 31 38 32
f 32 38 39
f 32 39 40
f 32 40 33
f 33 40 41
f 33 41 42
f 33 42 34
f 41 40 43
f 41 43 44
f 41 44 42
f 45 46 47
f 45 47 41
f 45 41 48
f 45 48 49
f 45 49 46
f 46 49 50
f 46 50 51
f 46 51 52
f 46 52 47
f 47 52 53
f 47 53 54
f 47 54 41
f 41 54 48
f 51 55 56
f 51 56 52
f 52 56 57
f 52 57 53
f 58 51 50
f 51 58 55
f 55 58 59
f 55 59 56
f 56 59 57
f 22 60 23
f 23 60 27
f 27 60 61
f 27 61 28
f 28 61 29
f 14 11 62
f 14 62 15
f 11 10 62
f 36 35 37
f 40 39 63
f 40 63 43
f 43 63 44
f 64 65 66
f 64 66 67
f 64 67 68
f 64 68 69
f 64 69 65
f 65 69 70
f 65 70 66
f 66 70 71
f 66 71 67
f 67 71 68
f 72 73 74
f 72 74 75
f 72 75 76
f 72 76 77
f 72 77 78
f 72 78 73
f 73 78 79
f 73 79 80
f 73 80 81
f 73 81 74
f 80 76 82
f 80 82 81
f 76 75 82
f 76 80 83
f 76 83 77
f 80 79 83
f 84 85 86
f 84 86 87
f 84 87 88
f 84 88 89
f 84 89 85
f 85 89 90
f 85 90 86
f 86 90 91
f 86 91 87
f 87 91 88
f 92 93 94
f 92 94 95
f 92 95 96
f 92 96 97
f 92 97 98
f 92 98 93
f 93 98 99
f 93 99 100
f 93 100 101
f 93 101 94
f 100 96 102
f 100 102 101
f 96 95 102
f 96 100 103
f 96 103 97
f 100 99 103
f 104 105 106
f 104 106 107
f 104 107 108
f 104 108 109
f 104 109 105
f 105 109 110
f 105 110 106
f 106 110 111
f 106 111 107
f 107 111 108
f 112 113 114
f 112 114 115
f 112 115 116
f 112 116 117
f 112 117 118
f 112 118 113
f 113 118 119
f 113 119 120
f 113 120 121
f 113 121 114
f 120 116 122
f 120 122 121
f 116 115 122
f 116 120 123
f 116 123 117
f 120 119 123
f 124 125 126
f 124 126 127
f 124 127 128
f 124 128 129
f 124 129 125
f 125 129 130
f 125 130 126
f 126 130 131
f 126 131 127
f 127 131 128
f 132 133 134
f 132 134 135
f 132 135 136
f 132 136 137
f 132 137 138
f 132 138 133
f 133 138 139
f 133 139 140
f 133 140 141
f 133 141 134
f 140 136 142
f 140 142 141
f 136 135 142
f 136 140 143
f 136 143 137
f 140 139 143
