# RS2 Model 8267
# Vertices: 149
# Faces: 282

v 12 -11 112
v 16 1 108
v 16 0 112
v 10 9 109
v 9 8 113
v 0 11 109
v 0 10 113
v -9 8 113
v -10 9 109
v -16 0 112
v -16 1 108
v -10 -11 112
v -10 -10 108
v 0 -14 111
v 0 -14 107
v 10 -10 108
v 11 -12 102
v 18 0 106
v 12 11 106
v 0 14 105
v -12 11 106
v -18 0 106
v -11 -12 102
v 0 -14 102
v 3 -14 93
v 11 -13 91
v 20 -3 93
v 14 12 97
v 0 14 96
v -14 12 97
v -20 -3 93
v -11 -13 91
v -3 -14 93
v 0 -5 88
v 1 -4 72
v 11 -14 79
v 20 -3 77
v 14 10 89
v 13 12 91
v 4 14 91
v 0 11 91
v -4 14 91
v -13 12 91
v -14 10 89
v -20 -3 77
v -11 -14 79
v -1 -4 72
v -5 12 88
v 5 12 88
v 12 12 72
v 11 13 59
v 1 -4 60
v 10 -15 63
v 22 -2 62
v 17 -2 57
v 10 8 56
v 3 -3 56
v 9 -13 57
v 17 -2 46
v 8 6 47
v 8 -12 46
v 8 -10 32
v 18 -2 32
v 8 7 36
v 1 -2 34
v 3 -2 47
v 3 -1 24
v 8 -8 24
v 16 -2 24
v 9 9 28
v 9 6 15
v 4 -2 14
v 8 -6 15
v 15 -2 14
v 8 6 10
v 4 -2 10
v 8 -5 10
v 15 -2 9
v 16 -2 2
v 9 6 3
v 3 -2 3
v 9 -6 4
v 9 -22 -1
v 10 -24 -6
v 18 -17 -6
v 17 -16 -2
v 9 -15 1
v 3 -20 -2
v 3 -21 -6
v 3 -14 -6
v 18 -12 -6
v 17 -13 -1
v 3 -15 0
v 3 1 -6
v 16 1 -6
v 9 6 -6
v 9 8 -1
v 6 -2 -6
v 0 -2 -6
v 0 5 -6
v -6 -2 -6
v -12 12 72
v -22 -2 62
v -10 -15 63
v -1 -4 60
v -11 13 59
v -17 -2 57
v -9 -13 57
v -3 -3 56
v -10 8 56
v -17 -2 46
v -8 -12 46
v -3 -2 47
v -8 6 47
v -8 7 36
v -18 -2 32
v -8 -10 32
v -1 -2 34
v -9 9 28
v -16 -2 24
v -8 -8 24
v -3 -1 24
v -9 6 15
v -15 -2 14
v -8 -6 15
v -4 -2 14
v -8 6 10
v -15 -2 9
v -8 -5 10
v -4 -2 10
v -3 -2 3
v -9 6 3
v -16 -2 2
v -9 -6 4
v -9 -22 -1
v -18 -17 -6
v -10 -24 -6
v -3 -21 -6
v -3 -20 -2
v -9 -15 1
v -17 -16 -2
v -18 -12 -6
v -3 -14 -6
v -3 -15 0
v -17 -13 -1
v -16 1 -6
v -3 1 -6
v -9 6 -6
v -9 8 -1

f 1 2 3
f 3 2 4
f 3 4 5
f 5 4 6
f 5 6 7
f 7 6 8
f 8 6 9
f 8 9 10
f 10 9 11
f 10 11 12
f 12 11 13
f 12 13 14
f 14 13 15
f 14 15 16
f 14 16 1
f 1 16 2
f 2 16 17
f 2 17 18
f 2 18 19
f 2 19 4
f 4 19 20
f 4 20 6
f 6 20 9
f 9 20 21
f 9 21 11
f 11 21 22
f 11 22 23
f 11 23 13
f 13 23 24
f 13 24 15
f 15 24 16
f 16 24 17
f 17 24 25
f 17 25 26
f 17 26 18
f 18 26 27
f 18 27 28
f 18 28 19
f 19 28 29
f 19 29 20
f 20 29 21
f 21 29 30
f 21 30 22
f 22 30 31
f 22 31 32
f 22 32 23
f 23 32 33
f 23 33 24
f 24 33 25
f 25 33 34
f 25 34 35
f 25 35 36
f 25 36 26
f 26 36 27
f 27 36 37
f 27 37 38
f 27 38 39
f 27 39 28
f 28 39 40
f 28 40 29
f 29 40 41
f 29 41 42
f 29 42 30
f 30 42 43
f 30 43 31
f 31 43 44
f 31 44 45
f 31 45 46
f 31 46 32
f 32 46 33
f 33 46 47
f 33 47 34
f 34 47 48
f 34 48 42
f 34 42 41
f 34 41 40
f 34 40 49
f 34 49 35
f 35 49 50
f 35 50 51
f 35 51 52
f 35 52 53
f 35 53 36
f 36 53 37
f 37 53 54
f 37 54 50
f 37 50 38
f 38 50 49
f 38 49 40
f 38 40 39
f 54 51 50
f 51 54 55
f 51 55 56
f 51 56 52
f 52 56 57
f 52 57 58
f 52 58 53
f 53 58 55
f 53 55 54
f 59 60 56
f 59 56 55
f 59 55 58
f 59 58 61
f 59 61 62
f 59 62 63
f 59 63 64
f 59 64 60
f 60 64 65
f 60 65 66
f 60 66 56
f 56 66 57
f 57 66 58
f 58 66 61
f 61 66 62
f 62 66 65
f 62 65 67
f 62 67 68
f 62 68 69
f 62 69 63
f 63 69 70
f 63 70 64
f 64 70 65
f 65 70 67
f 67 70 71
f 67 71 72
f 67 72 68
f 68 72 73
f 68 73 74
f 68 74 69
f 69 74 70
f 70 74 71
f 71 74 75
f 71 75 72
f 72 75 76
f 72 76 77
f 72 77 73
f 73 77 74
f 74 77 78
f 74 78 75
f 75 78 79
f 75 79 80
f 75 80 81
f 75 81 76
f 76 81 77
f 77 81 82
f 77 82 79
f 77 79 78
f 83 84 85
f 83 85 86
f 83 86 87
f 83 87 88
f 83 88 89
f 83 89 84
f 84 89 90
f 84 90 91
f 84 91 85
f 85 91 86
f 86 91 92
f 86 92 87
f 87 92 82
f 87 82 93
f 87 93 88
f 88 93 90
f 88 90 89
f 93 94 90
f 90 94 95
f 90 95 91
f 91 95 92
f 92 95 79
f 92 79 82
f 81 94 93
f 81 93 82
f 96 94 97
f 96 97 95
f 96 95 94
f 97 79 95
f 79 97 80
f 80 97 81
f 81 97 94
f 98 99 100
f 100 99 101
f 42 44 43
f 44 42 48
f 44 48 102
f 44 102 45
f 45 102 103
f 45 103 104
f 45 104 46
f 46 104 47
f 47 104 105
f 47 105 106
f 47 106 102
f 47 102 48
f 103 102 106
f 103 106 107
f 103 107 104
f 104 107 108
f 104 108 105
f 105 108 109
f 105 109 110
f 105 110 106
f 106 110 107
f 107 110 111
f 107 111 108
f 108 111 112
f 108 112 113
f 108 113 109
f 109 113 110
f 110 113 114
f 110 114 111
f 111 114 115
f 111 115 116
f 111 116 117
f 111 117 112
f 112 117 113
f 113 117 118
f 113 118 114
f 114 118 115
f 115 118 119
f 115 119 116
f 116 119 120
f 116 120 117
f 117 120 121
f 117 121 122
f 117 122 118
f 118 122 119
f 119 122 123
f 119 123 124
f 119 124 120
f 120 124 121
f 121 124 125
f 121 125 126
f 121 126 122
f 122 126 123
f 123 126 127
f 123 127 124
f 124 127 128
f 124 128 129
f 124 129 125
f 125 129 126
f 126 129 130
f 126 130 127
f 127 130 131
f 127 131 132
f 127 132 133
f 127 133 128
f 128 133 129
f 129 133 134
f 129 134 131
f 129 131 130
f 135 136 137
f 135 137 138
f 135 138 139
f 135 139 140
f 135 140 141
f 135 141 136
f 136 141 142
f 136 142 137
f 137 142 143
f 137 143 138
f 138 143 139
f 139 143 144
f 139 144 140
f 140 144 134
f 140 134 145
f 140 145 141
f 141 145 142
f 142 145 146
f 142 146 143
f 143 146 147
f 143 147 144
f 144 147 131
f 144 131 134
f 148 149 147
f 148 147 146
f 148 146 149
f 149 146 133
f 149 133 132
f 149 132 131
f 149 131 147
f 145 133 146
f 133 145 134
