# RS2 Model 8272
# Vertices: 48
# Faces: 96

v -25 -4 255
v -25 -29 193
v -19 -27 193
v -19 -2 254
v -20 -1 254
v -25 -3 255
v -30 -2 254
v -30 -27 193
v -29 -26 193
v -25 -28 193
v -20 -26 193
v -14 -20 193
v -14 4 252
v -15 4 252
v -15 -20 193
v -29 -1 254
v -34 4 252
v -34 -20 193
v -33 -20 193
v -36 12 249
v -34 19 246
v -34 -5 193
v -36 -12 193
v -33 4 252
v -35 12 249
v -33 19 246
v -30 24 244
v -30 1 193
v -29 0 193
v -33 -5 193
v -35 -12 193
v -25 26 243
v -25 3 193
v -29 23 244
v -25 25 243
v -19 24 244
v -19 1 193
v -20 0 193
v -25 2 193
v -14 19 246
v -14 -5 193
v -20 23 244
v -15 19 246
v -12 12 249
v -12 -12 193
v -13 -12 193
v -15 -5 193
v -13 12 249

f 1 2 3
f 1 3 4
f 1 4 5
f 1 5 6
f 1 6 7
f 1 7 2
f 2 7 8
f 2 8 9
f 2 9 10
f 2 10 3
f 3 10 11
f 3 11 12
f 3 12 4
f 4 12 13
f 4 13 14
f 4 14 5
f 5 14 15
f 5 15 11
f 5 11 6
f 6 11 10
f 6 10 16
f 6 16 7
f 7 16 17
f 7 17 18
f 7 18 8
f 8 18 19
f 8 19 9
f 9 19 16
f 9 16 10
f 20 21 22
f 20 22 23
f 20 23 17
f 20 17 24
f 20 24 25
f 20 25 21
f 21 25 26
f 21 26 27
f 21 27 28
f 21 28 22
f 22 28 29
f 22 29 30
f 22 30 23
f 23 30 31
f 23 31 18
f 23 18 17
f 32 33 28
f 32 28 27
f 32 27 34
f 32 34 35
f 32 35 36
f 32 36 33
f 33 36 37
f 33 37 38
f 33 38 39
f 33 39 28
f 28 39 29
f 29 39 35
f 29 35 34
f 29 34 26
f 29 26 30
f 30 26 25
f 30 25 31
f 31 25 24
f 31 24 19
f 31 19 18
f 40 41 37
f 40 37 36
f 40 36 42
f 40 42 43
f 40 43 44
f 40 44 41
f 41 44 45
f 41 45 46
f 41 46 47
f 41 47 37
f 37 47 38
f 38 47 43
f 38 43 42
f 38 42 39
f 39 42 35
f 35 42 36
f 13 12 45
f 13 45 44
f 13 44 48
f 13 48 14
f 14 48 46
f 14 46 15
f 15 46 45
f 15 45 12
f 15 12 11
f 16 19 24
f 16 24 17
f 48 43 47
f 48 47 46
f 44 43 48
f 27 26 34
