# RS2 Model 8308
# Vertices: 22
# Faces: 32

v -32 55 73
v -32 49 73
v -50 46 0
v -50 64 0
v -40 55 73
v -40 58 116
v -30 58 116
v -30 46 116
v -40 49 73
v -64 46 0
v -64 64 0
v -40 46 116
v -43 42 122
v -32 42 122
v -30 64 123
v -45 64 123
v -43 42 116
v -26 42 120
v -23 64 120
v -30 64 116
v -45 64 115
v -32 42 117

f 1 2 3
f 1 3 4
f 1 4 5
f 1 5 6
f 1 6 7
f 1 7 2
f 2 7 8
f 2 8 9
f 2 9 10
f 2 10 3
f 9 5 11
f 9 11 10
f 5 4 11
f 12 6 5
f 12 5 9
f 12 9 8
f 13 14 15
f 13 15 16
f 13 16 17
f 13 17 14
f 14 17 18
f 14 18 19
f 14 19 15
f 15 19 16
f 16 19 20
f 16 20 21
f 16 21 17
f 17 21 22
f 17 22 18
f 18 22 20
f 18 20 19
f 22 21 20
