# RS2 Model 8365
# Vertices: 63
# Faces: 160

v -41 -31 3
v -22 1 6
v -25 2 1
v -18 -3 4
v 5 30 6
v -1 33 6
v -5 37 1
v -15 -5 9
v 9 28 10
v 21 45 10
v 18 46 6
v 12 51 6
v 12 24 8
v 26 42 8
v 33 49 7
v 28 53 9
v 24 54 5
v 30 39 12
v 37 46 11
v 40 43 8
v 34 35 9
v 38 31 12
v 45 39 11
v 20 18 9
v 24 15 12
v 27 12 9
v 41 28 9
v 48 36 8
v -3 -15 10
v 0 -18 7
v 4 -21 9
v 33 6 10
v 47 23 11
v -28 -42 6
v -23 -47 6
v -6 -13 7
v -9 -10 9
v -32 -39 6
v -12 -8 6
v -36 -36 5
v 7 -25 5
v 37 3 6
v 50 20 6
v 57 27 5
v 54 31 9
v 16 22 12
v 9 54 1
v 15 62 0
v 18 59 5
v -37 -56 2
v -46 -48 2
v -50 -51 2
v -38 -60 2
v -26 -56 2
v -29 -54 2
v -22 -48 4
v -26 -45 4
v -21 -42 4
v -45 -40 2
v -48 -38 2
v -38 -35 4
v -42 -33 4
v -36 -30 4

f 1 2 3
f 1 3 2
f 1 2 4
f 1 4 2
f 2 4 5
f 2 5 6
f 2 6 7
f 2 7 3
f 2 3 7
f 2 7 6
f 2 6 5
f 2 5 4
f 4 5 8
f 4 8 5
f 5 8 9
f 5 9 10
f 5 10 11
f 5 11 12
f 5 12 6
f 5 6 12
f 5 12 11
f 5 11 10
f 5 10 9
f 5 9 8
f 8 9 13
f 8 13 9
f 9 13 10
f 9 10 13
f 13 10 14
f 13 14 10
f 10 14 15
f 10 15 16
f 10 16 17
f 10 17 11
f 10 11 17
f 10 17 16
f 10 16 15
f 10 15 14
f 14 15 18
f 14 18 15
f 15 18 19
f 15 19 18
f 18 19 20
f 18 20 19
f 20 18 21
f 20 21 22
f 20 22 23
f 20 23 22
f 20 22 21
f 20 21 18
f 18 21 24
f 18 24 21
f 21 24 22
f 21 22 24
f 24 22 25
f 24 25 22
f 22 25 26
f 22 26 27
f 22 27 28
f 22 28 23
f 22 23 28
f 22 28 27
f 22 27 26
f 22 26 25
f 25 26 29
f 25 29 26
f 26 29 30
f 26 30 31
f 26 31 32
f 26 32 33
f 26 33 27
f 26 27 33
f 26 33 32
f 26 32 31
f 26 31 30
f 26 30 29
f 29 30 34
f 29 34 30
f 30 34 35
f 30 35 31
f 30 31 35
f 30 35 34
f 36 37 38
f 36 38 34
f 36 34 29
f 36 29 24
f 36 24 37
f 36 37 24
f 36 24 29
f 36 29 34
f 36 34 38
f 36 38 37
f 37 38 39
f 37 39 38
f 38 39 40
f 38 40 39
f 39 40 8
f 39 8 40
f 40 8 4
f 40 4 1
f 40 1 4
f 40 4 8
f 41 31 35
f 41 35 31
f 41 31 42
f 41 42 31
f 31 42 32
f 31 32 42
f 42 32 33
f 42 33 32
f 33 42 43
f 33 43 44
f 33 44 45
f 33 45 28
f 33 28 27
f 33 27 28
f 33 28 45
f 33 45 44
f 33 44 43
f 33 43 42
f 29 25 24
f 29 24 25
f 24 46 37
f 24 37 46
f 24 46 18
f 24 18 46
f 46 18 13
f 46 13 37
f 46 37 13
f 46 13 18
f 18 13 14
f 18 14 13
f 13 39 37
f 13 37 39
f 13 39 8
f 13 8 39
f 7 6 12
f 7 12 47
f 7 47 12
f 7 12 6
f 48 12 49
f 48 49 12
f 48 12 47
f 48 47 12
f 49 12 17
f 49 17 12
f 12 17 11
f 12 11 17
f 50 51 52
f 50 52 53
f 50 53 54
f 50 54 55
f 55 54 56
f 55 56 57
f 57 56 58
f 59 60 52
f 59 52 51
f 60 59 61
f 60 61 62
f 62 61 63
