# RS2 Model 863
# Vertices: 347
# Faces: 498

v 210 -102 157
v 210 -113 157
v 388 -113 348
v 388 -102 348
v 209 -102 143
v 396 -102 348
v 209 -113 143
v 396 -113 348
v 218 23 157
v 221 13 157
v 390 69 348
v 387 79 348
v 217 23 143
v 395 82 348
v 220 13 143
v 398 71 348
v 182 161 157
v 192 151 157
v 259 212 288
v 252 220 288
v 182 160 143
v 259 226 288
v 193 152 143
v 266 217 288
v 1 242 157
v 12 237 157
v 49 326 275
v 39 330 275
v 0 243 143
v 43 339 275
v 14 238 143
v 53 334 275
v -277 -156 156
v -232 -124 1
v -124 -217 1
v -147 -267 156
v -171 -104 277
v -207 -8 273
v -314 -19 156
v -263 -15 1
v -248 124 1
v -284 160 156
v -139 232 1
v -166 292 156
v 0 248 1
v 0 312 156
v 124 217 1
v 130 273 145
v 232 124 1
v 222 156 189
v 263 0 1
v 226 0 149
v 194 -214 173
v 232 -170 1
v 148 -276 157
v 124 -232 1
v 0 -298 156
v 0 -248 1
v -118 -176 289
v 4 -222 324
v 202 -188 305
v 270 -112 341
v 324 -6 349
v 258 84 349
v 146 160 297
v 4 236 293
v -110 200 301
v -148 84 321
v 284 144 0
v 267 162 0
v 268 163 10
v 290 144 12
v 269 123 0
v 267 119 15
v 244 131 0
v 241 124 12
v 250 148 10
v 251 148 0
v 269 154 24
v 275 140 27
v 265 125 30
v 249 132 30
v 253 147 22
v 231 249 0
v 233 256 30
v 253 203 30
v 243 206 0
v 206 162 30
v 203 172 0
v 162 183 0
v 157 181 30
v 141 226 30
v 144 223 0
v 179 268 30
v 177 265 0
v 180 257 61
v 225 245 61
v 239 207 61
v 198 168 61
v 162 189 61
v 152 221 61
v 199 188 73
v 173 197 73
v 224 211 73
v 211 229 73
v 162 218 73
v 185 242 73
v 135 279 0
v 119 259 0
v 116 260 10
v 134 284 12
v 160 271 0
v 166 271 15
v 153 249 0
v 162 247 12
v 134 248 10
v 134 249 0
v 123 263 24
v 139 273 27
v 158 268 30
v 151 253 30
v 131 251 22
v 95 262 6
v 96 272 9
v 95 276 0
v 94 259 0
v 110 257 0
v 103 261 7
v 98 262 13
v 98 269 13
v 103 272 13
v 109 276 9
v 114 276 0
v 105 267 13
v -253 136 0
v -249 160 0
v -248 160 14
v -249 131 16
v -276 131 0
v -279 129 20
v -284 153 0
v -290 151 16
v -269 162 14
v -267 162 0
v -253 155 33
v -260 138 37
v -276 135 41
v -279 151 41
v -267 158 30
v -192 232 0
v -187 235 29
v -213 182 29
v -218 191 0
v -270 184 29
v -265 193 0
v -279 230 0
v -282 230 29
v -261 275 29
v -261 270 0
v -210 281 29
v -213 279 0
v -217 272 60
v -199 232 60
v -218 195 60
v -268 193 60
v -275 232 60
v -258 264 60
v -256 206 72
v -263 232 72
v -223 206 72
v -218 230 72
v -254 254 72
v -225 257 72
v -159 286 0
v -181 284 0
v -183 286 14
v -155 290 16
v -150 264 0
v -146 261 20
v -169 251 0
v -166 246 16
v -180 264 14
v -180 266 0
v -176 282 33
v -160 279 37
v -153 262 41
v -167 257 41
v -178 268 30
v -297 -165 0
v -278 -168 0
v -278 -170 7
v -302 -168 8
v -302 -146 0
v -303 -143 10
v -284 -139 0
v -286 -134 8
v -277 -152 7
v -277 -153 0
v -283 -165 16
v -296 -159 18
v -299 -146 20
v -286 -143 20
v -280 -153 15
v -238 -244 0
v -235 -248 20
v -278 -226 20
v -271 -222 0
v -277 -179 20
v -269 -183 0
v -240 -171 0
v -240 -168 20
v -203 -186 20
v -207 -186 0
v -198 -229 20
v -200 -226 0
v -206 -223 41
v -238 -238 41
v -268 -222 41
v -269 -180 41
v -238 -174 41
v -212 -189 41
v -258 -190 49
v -238 -184 49
v -258 -217 49
v -240 -222 49
v -220 -192 49
v -218 -216 49
v -141 -273 0
v -143 -253 0
v -141 -252 7
v -138 -276 8
v -159 -280 0
v -162 -283 10
v -169 -264 0
v -174 -267 8
v -159 -255 7
v -158 -255 0
v -144 -258 16
v -147 -271 18
v -160 -277 20
v -165 -265 20
v -156 -256 15
v -203 -250 4
v -194 -255 6
v -191 -255 0
v -205 -248 0
v -210 -258 0
v -206 -256 5
v -202 -253 9
v -197 -255 9
v -197 -259 9
v -196 -265 6
v -197 -267 0
v -203 -259 9
v 323 -115 0
v 295 -78 0
v 299 -75 23
v 337 -119 27
v 302 -159 0
v 299 -166 33
v 261 -145 0
v 254 -155 27
v 267 -108 23
v 271 -104 0
v 299 -93 54
v 313 -126 60
v 295 -155 67
v 267 -137 67
v 274 -108 50
v 268 -251 0
v 272 -247 30
v 244 -303 30
v 237 -295 0
v 181 -303 30
v 184 -292 0
v 170 -255 0
v 163 -255 30
v 188 -207 30
v 188 -211 0
v 247 -200 30
v 244 -203 0
v 237 -211 64
v 258 -251 64
v 237 -292 64
v 181 -292 64
v 174 -251 64
v 195 -218 64
v 195 -277 77
v 188 -251 77
v 230 -277 77
v 237 -255 77
v 198 -229 77
v 230 -225 77
v 293 -182 0
v 265 -186 0
v 261 -182 13
v 296 -175 13
v 307 -208 0
v 310 -215 16
v 282 -226 0
v 286 -234 13
v 265 -208 13
v 265 -208 0
v 272 -186 30
v 289 -193 33
v 300 -212 37
v 282 -219 37
v 268 -204 27
v 107 -252 13
v 128 -256 20
v 135 -252 0
v 100 -249 0
v 97 -278 0
v 104 -271 16
v 111 -260 30
v 121 -260 30
v 125 -267 30
v 135 -282 20
v 132 -285 0
v 114 -274 30
v 33 -275 13
v 51 -260 20
v 54 -253 0
v 26 -275 0
v 44 -301 0
v 44 -286 16
v 40 -275 30
v 47 -267 30
v 57 -271 30
v 71 -271 20
v 75 -278 0
v 54 -282 30
v -206 -243 49
v -192 -173 49
v -281 -229 49
v 339 -165 63
v 329 -75 46
v 253 -175 73
v -266 168 72
v -184 190 72
v -292 269 72
v 205 -317 77
v 279 -255 77
v 142 -244 77
v 155 284 73
v 111 198 73
v 272 227 73

f 1 2 3
f 1 3 4
f 1 4 5
f 5 4 6
f 5 6 7
f 7 6 8
f 7 8 2
f 2 8 3
f 9 10 11
f 9 11 12
f 9 12 13
f 13 12 14
f 13 14 15
f 15 14 16
f 15 16 10
f 10 16 11
f 17 18 19
f 17 19 20
f 17 20 21
f 21 20 22
f 21 22 23
f 23 22 24
f 23 24 18
f 18 24 19
f 25 26 27
f 25 27 28
f 25 28 29
f 29 28 30
f 29 30 31
f 31 30 32
f 31 32 26
f 26 32 27
f 33 34 35
f 33 35 36
f 33 36 37
f 33 37 38
f 33 38 39
f 33 39 34
f 34 39 40
f 40 39 41
f 41 39 42
f 41 42 43
f 43 42 44
f 43 44 45
f 45 44 46
f 45 46 47
f 47 46 48
f 47 48 49
f 49 48 50
f 49 50 51
f 51 50 52
f 51 52 53
f 51 53 54
f 54 53 55
f 54 55 56
f 56 55 57
f 56 57 58
f 58 57 36
f 58 36 35
f 37 36 59
f 59 36 57
f 59 57 60
f 60 57 55
f 60 55 61
f 61 55 53
f 61 53 62
f 62 53 52
f 62 52 63
f 63 52 64
f 64 52 50
f 64 50 65
f 65 50 48
f 65 48 66
f 66 48 46
f 66 46 67
f 67 46 44
f 67 44 68
f 68 44 42
f 68 42 38
f 38 42 39
f 69 70 71
f 69 71 72
f 69 72 73
f 73 72 74
f 73 74 75
f 75 74 76
f 75 76 77
f 75 77 78
f 78 77 71
f 78 71 70
f 72 71 79
f 72 79 80
f 72 80 81
f 72 81 74
f 74 81 76
f 76 81 82
f 76 82 83
f 76 83 77
f 77 83 71
f 71 83 79
f 79 83 82
f 79 82 80
f 80 82 81
f 84 85 86
f 84 86 87
f 87 86 88
f 87 88 89
f 89 88 90
f 90 88 91
f 90 91 92
f 90 92 93
f 93 92 94
f 93 94 95
f 95 94 84
f 84 94 85
f 85 94 96
f 85 96 97
f 85 97 98
f 85 98 86
f 86 98 88
f 88 98 99
f 88 99 100
f 88 100 91
f 91 100 101
f 91 101 92
f 92 101 96
f 92 96 94
f 102 103 100
f 102 100 99
f 102 99 98
f 102 98 104
f 102 104 105
f 102 105 103
f 103 105 106
f 103 106 101
f 103 101 100
f 98 97 105
f 98 105 104
f 96 101 106
f 96 106 107
f 96 107 97
f 97 107 105
f 105 107 106
f 108 109 110
f 108 110 111
f 108 111 112
f 112 111 113
f 112 113 114
f 114 113 115
f 114 115 116
f 114 116 117
f 117 116 110
f 117 110 109
f 111 110 118
f 111 118 119
f 111 119 120
f 111 120 113
f 113 120 115
f 115 120 121
f 115 121 122
f 115 122 116
f 116 122 110
f 110 122 118
f 118 122 121
f 118 121 119
f 119 121 120
f 123 124 125
f 123 125 126
f 123 126 127
f 123 127 128
f 123 128 129
f 123 129 130
f 123 130 124
f 124 130 131
f 124 131 132
f 124 132 133
f 124 133 125
f 130 129 134
f 130 134 131
f 131 134 132
f 132 134 128
f 132 128 133
f 133 128 127
f 129 128 134
f 135 136 137
f 135 137 138
f 135 138 139
f 139 138 140
f 139 140 141
f 141 140 142
f 141 142 143
f 141 143 144
f 144 143 137
f 144 137 136
f 138 137 145
f 138 145 146
f 138 146 147
f 138 147 140
f 140 147 142
f 142 147 148
f 142 148 149
f 142 149 143
f 143 149 137
f 137 149 145
f 145 149 148
f 145 148 146
f 146 148 147
f 150 151 152
f 150 152 153
f 153 152 154
f 153 154 155
f 155 154 156
f 156 154 157
f 156 157 158
f 156 158 159
f 159 158 160
f 159 160 161
f 161 160 150
f 150 160 151
f 151 160 162
f 151 162 163
f 151 163 164
f 151 164 152
f 152 164 154
f 154 164 165
f 154 165 166
f 154 166 157
f 157 166 167
f 157 167 158
f 158 167 162
f 158 162 160
f 168 169 166
f 168 166 165
f 168 165 164
f 168 164 170
f 168 170 171
f 168 171 169
f 169 171 172
f 169 172 167
f 169 167 166
f 164 163 171
f 164 171 170
f 162 167 172
f 162 172 173
f 162 173 163
f 163 173 171
f 171 173 172
f 174 175 176
f 174 176 177
f 174 177 178
f 178 177 179
f 178 179 180
f 180 179 181
f 180 181 182
f 180 182 183
f 183 182 176
f 183 176 175
f 177 176 184
f 177 184 185
f 177 185 186
f 177 186 179
f 179 186 181
f 181 186 187
f 181 187 188
f 181 188 182
f 182 188 176
f 176 188 184
f 184 188 187
f 184 187 185
f 185 187 186
f 189 190 191
f 189 191 192
f 189 192 193
f 193 192 194
f 193 194 195
f 195 194 196
f 195 196 197
f 195 197 198
f 198 197 191
f 198 191 190
f 192 191 199
f 192 199 200
f 192 200 201
f 192 201 194
f 194 201 196
f 196 201 202
f 196 202 203
f 196 203 197
f 197 203 191
f 191 203 199
f 199 203 202
f 199 202 200
f 200 202 201
f 204 205 206
f 204 206 207
f 207 206 208
f 207 208 209
f 209 208 210
f 210 208 211
f 210 211 212
f 210 212 213
f 213 212 214
f 213 214 215
f 215 214 204
f 204 214 205
f 205 214 216
f 205 216 217
f 205 217 218
f 205 218 206
f 206 218 208
f 208 218 219
f 208 219 220
f 208 220 211
f 211 220 221
f 211 221 212
f 212 221 216
f 212 216 214
f 222 223 220
f 222 220 219
f 222 219 218
f 222 218 224
f 222 224 225
f 222 225 223
f 223 225 226
f 223 226 221
f 223 221 220
f 218 217 225
f 218 225 224
f 216 221 226
f 216 226 227
f 216 227 217
f 217 227 225
f 225 227 226
f 228 229 230
f 228 230 231
f 228 231 232
f 232 231 233
f 232 233 234
f 234 233 235
f 234 235 236
f 234 236 237
f 237 236 230
f 237 230 229
f 231 230 238
f 231 238 239
f 231 239 240
f 231 240 233
f 233 240 235
f 235 240 241
f 235 241 242
f 235 242 236
f 236 242 230
f 230 242 238
f 238 242 241
f 238 241 239
f 239 241 240
f 243 244 245
f 243 245 246
f 243 246 247
f 243 247 248
f 243 248 249
f 243 249 250
f 243 250 244
f 244 250 251
f 244 251 252
f 244 252 253
f 244 253 245
f 250 249 254
f 250 254 251
f 251 254 252
f 252 254 248
f 252 248 253
f 253 248 247
f 249 248 254
f 255 256 257
f 255 257 258
f 255 258 259
f 259 258 260
f 259 260 261
f 261 260 262
f 261 262 263
f 261 263 264
f 264 263 257
f 264 257 256
f 258 257 265
f 258 265 266
f 258 266 267
f 258 267 260
f 260 267 262
f 262 267 268
f 262 268 269
f 262 269 263
f 263 269 257
f 257 269 265
f 265 269 268
f 265 268 266
f 266 268 267
f 270 271 272
f 270 272 273
f 273 272 274
f 273 274 275
f 275 274 276
f 276 274 277
f 276 277 278
f 276 278 279
f 279 278 280
f 279 280 281
f 281 280 270
f 270 280 271
f 271 280 282
f 271 282 283
f 271 283 284
f 271 284 272
f 272 284 274
f 274 284 285
f 274 285 286
f 274 286 277
f 277 286 287
f 277 287 278
f 278 287 282
f 278 282 280
f 288 289 286
f 288 286 285
f 288 285 284
f 288 284 290
f 288 290 291
f 288 291 289
f 289 291 292
f 289 292 287
f 289 287 286
f 284 283 291
f 284 291 290
f 282 287 292
f 282 292 293
f 282 293 283
f 283 293 291
f 291 293 292
f 294 295 296
f 294 296 297
f 294 297 298
f 298 297 299
f 298 299 300
f 300 299 301
f 300 301 302
f 300 302 303
f 303 302 296
f 303 296 295
f 297 296 304
f 297 304 305
f 297 305 306
f 297 306 299
f 299 306 301
f 301 306 307
f 301 307 308
f 301 308 302
f 302 308 296
f 296 308 304
f 304 308 307
f 304 307 305
f 305 307 306
f 309 310 311
f 309 311 312
f 309 312 313
f 309 313 314
f 309 314 315
f 309 315 316
f 309 316 310
f 310 316 317
f 310 317 318
f 310 318 319
f 310 319 311
f 316 315 320
f 316 320 317
f 317 320 318
f 318 320 314
f 318 314 319
f 319 314 313
f 315 314 320
f 321 322 323
f 321 323 324
f 321 324 325
f 321 325 326
f 321 326 327
f 321 327 328
f 321 328 322
f 322 328 329
f 322 329 330
f 322 330 331
f 322 331 323
f 328 327 332
f 328 332 329
f 329 332 330
f 330 332 326
f 330 326 331
f 331 326 325
f 327 326 332
f 333 334 335
f 336 337 338
