# RS2 Model 8643
# Vertices: 52
# Faces: 78

v 10 -21 68
v 16 -21 68
v 14 -22 72
v 11 -22 73
v 7 -22 75
v 3 -21 72
v 0 -21 76
v 5 -22 77
v 4 -18 83
v 0 -16 80
v -2 -17 75
v -2 -15 72
v 1 -5 82
v -1 -6 79
v -12 -13 64
v -8 -19 59
v 1 -18 68
v -4 -22 53
v 2 -20 66
v 14 -18 80
v 20 -18 75
v 21 -4 78
v 17 -4 83
v 11 -18 82
v 19 -16 69
v 20 -5 72
v 16 3 64
v 17 6 69
v 12 7 76
v 12 -4 86
v 13 7 62
v 6 10 64
v 9 7 78
v 6 -4 87
v 8 7 53
v 2 10 54
v 2 10 66
v -3 7 71
v 1 6 78
v -3 3 74
v -12 0 66
v -8 7 61
v -4 10 57
v 13 -15 63
v 16 -17 65
v 14 0 52
v 13 -13 51
v 18 -6 68
v 8 -18 64
v 6 -19 51
v 6 -20 64
v -1 -22 52

f 1 2 3
f 1 3 4
f 1 4 5
f 1 5 6
f 6 5 7
f 7 5 8
f 7 8 9
f 7 9 10
f 7 10 11
f 11 10 12
f 12 10 13
f 12 13 14
f 12 14 15
f 12 15 16
f 12 16 17
f 17 16 18
f 17 18 19
f 20 21 22
f 20 22 23
f 20 23 24
f 20 24 5
f 20 5 4
f 20 4 3
f 20 3 21
f 21 3 2
f 21 2 25
f 21 25 22
f 22 25 26
f 22 26 27
f 22 27 28
f 22 28 29
f 22 29 23
f 23 29 30
f 23 30 24
f 24 30 9
f 24 9 8
f 24 8 5
f 29 28 31
f 29 31 32
f 29 32 33
f 29 33 30
f 30 33 34
f 30 34 9
f 9 34 13
f 9 13 10
f 27 31 28
f 31 27 35
f 31 35 36
f 31 36 32
f 32 36 37
f 32 37 33
f 33 37 38
f 33 38 39
f 33 39 34
f 34 39 40
f 34 40 13
f 13 40 14
f 14 40 15
f 15 40 41
f 41 40 38
f 41 38 42
f 42 38 43
f 43 38 37
f 43 37 36
f 44 26 25
f 44 25 45
f 45 25 2
f 39 38 40
f 27 46 35
f 46 27 47
f 47 27 48
f 47 48 44
f 47 44 49
f 47 49 50
f 50 49 51
f 50 51 52
f 48 27 26
f 48 26 44
