# RS2 Model 865
# Vertices: 50
# Faces: 96

v 132 22 80
v 136 -34 80
v 36 -11 87
v 46 35 86
v 37 44 96
v 131 30 86
v 152 28 83
v 152 -28 83
v 136 -43 86
v 41 -25 95
v -54 -34 74
v -48 21 72
v -57 37 80
v -64 35 137
v 47 44 121
v 131 29 136
v 152 37 88
v 164 5 100
v 152 -36 88
v 156 -36 118
v 136 -43 136
v 48 -22 126
v -59 -43 87
v -129 -21 80
v -150 35 79
v -147 44 86
v -149 44 136
v -149 35 144
v -68 19 161
v 50 35 149
v 130 18 144
v 160 28 125
v 154 37 108
v 159 -28 126
v 136 -34 144
v 39 -13 148
v -65 -43 140
v -132 -31 96
v -152 -20 83
v -165 29 83
v -165 37 88
v -165 37 133
v -165 29 140
v -149 -24 140
v -130 -25 148
v -64 -26 164
v -133 -33 131
v -156 -27 88
v -168 -4 109
v -158 -27 133

f 1 2 3
f 1 3 4
f 1 4 5
f 1 5 6
f 1 6 7
f 1 7 8
f 1 8 2
f 2 8 9
f 2 9 10
f 2 10 3
f 3 10 11
f 3 11 12
f 3 12 4
f 4 12 5
f 5 12 13
f 5 13 14
f 5 14 15
f 5 15 16
f 5 16 6
f 6 16 17
f 6 17 7
f 7 17 18
f 7 18 8
f 8 18 19
f 8 19 9
f 9 19 20
f 9 20 21
f 9 21 22
f 9 22 10
f 10 22 23
f 10 23 11
f 11 23 24
f 11 24 25
f 11 25 12
f 12 25 13
f 13 25 26
f 13 26 27
f 13 27 14
f 14 27 28
f 14 28 29
f 14 29 15
f 15 29 30
f 15 30 31
f 15 31 16
f 16 31 32
f 16 32 33
f 16 33 17
f 17 33 18
f 18 33 32
f 18 32 34
f 18 34 20
f 18 20 19
f 35 31 30
f 35 30 36
f 35 36 22
f 35 22 21
f 35 21 34
f 35 34 32
f 35 32 31
f 23 22 37
f 23 37 38
f 23 38 24
f 24 38 39
f 24 39 40
f 24 40 25
f 25 40 26
f 26 40 41
f 26 41 42
f 26 42 27
f 27 42 43
f 27 43 28
f 28 43 44
f 28 44 45
f 28 45 29
f 29 45 46
f 29 46 30
f 30 46 36
f 36 46 22
f 22 46 37
f 37 46 45
f 37 45 47
f 37 47 38
f 38 47 48
f 38 48 39
f 39 48 49
f 39 49 40
f 40 49 41
f 41 49 42
f 42 49 43
f 43 49 44
f 44 49 50
f 44 50 47
f 44 47 45
f 48 47 50
f 48 50 49
f 21 20 34
