# RS2 Model 8684
# Vertices: 73
# Faces: 116

v -24 46 6
v -30 41 12
v -19 27 12
v -12 32 6
v -12 32 0
v -24 46 0
v -35 60 6
v -37 49 12
v -48 48 6
v -37 35 6
v -26 20 6
v -14 5 6
v -7 11 12
v -1 17 6
v -1 17 0
v -1 4 12
v 5 10 12
v 20 21 12
v 14 28 6
v 14 28 0
v 12 2 6
v 5 -4 12
v 17 -20 12
v 24 -14 6
v 24 -14 0
v 12 2 0
v 26 13 6
v -2 -10 6
v 10 -25 6
v 21 -39 6
v 29 -33 12
v 35 -28 6
v 35 -28 0
v 38 -46 12
v 49 -46 6
v 49 -46 0
v 34 32 12
v 28 39 6
v 28 39 0
v 44 39 12
v 44 50 6
v 44 50 0
v -8 -2 12
v -21 -15 12
v -15 -22 6
v -15 -22 0
v -2 -10 0
v 10 -25 0
v 21 -39 0
v 35 -58 6
v 35 -58 0
v -36 -30 12
v -30 -38 6
v -30 -38 0
v -49 -38 12
v -47 -52 6
v -47 -52 0
v -42 -22 6
v -58 -36 6
v -58 -36 0
v -27 -8 6
v 41 24 6
v 56 34 6
v 56 34 0
v -35 60 0
v -48 48 0
v -37 35 0
v -26 20 0
v -14 5 0
v -27 -8 0
v -42 -22 0
v 41 24 0
v 26 13 0

f 1 2 3
f 1 3 4
f 1 4 5
f 1 5 6
f 1 6 7
f 1 7 2
f 2 7 8
f 2 8 9
f 2 9 10
f 2 10 11
f 2 11 3
f 3 11 12
f 3 12 13
f 3 13 4
f 4 13 14
f 4 14 15
f 4 15 5
f 14 13 16
f 14 16 17
f 14 17 18
f 14 18 19
f 14 19 20
f 14 20 15
f 21 22 23
f 21 23 24
f 21 24 25
f 21 25 26
f 21 26 27
f 21 27 17
f 21 17 16
f 21 16 22
f 22 16 28
f 22 28 29
f 22 29 23
f 23 29 30
f 23 30 31
f 23 31 24
f 24 31 32
f 24 32 33
f 24 33 25
f 32 31 34
f 32 34 35
f 32 35 36
f 32 36 33
f 19 18 37
f 19 37 38
f 19 38 39
f 19 39 20
f 38 37 40
f 38 40 41
f 38 41 42
f 38 42 39
f 28 43 44
f 28 44 45
f 28 45 46
f 28 46 47
f 28 47 29
f 29 47 48
f 29 48 30
f 30 48 49
f 30 49 50
f 30 50 31
f 31 50 34
f 34 50 35
f 35 50 51
f 35 51 36
f 45 44 52
f 45 52 53
f 45 53 54
f 45 54 46
f 53 52 55
f 53 55 56
f 53 56 57
f 53 57 54
f 52 58 59
f 52 59 55
f 55 59 56
f 56 59 60
f 56 60 57
f 44 61 58
f 44 58 52
f 43 12 61
f 43 61 44
f 37 62 63
f 37 63 40
f 40 63 41
f 41 63 64
f 41 64 42
f 18 27 62
f 18 62 37
f 27 18 17
f 12 16 13
f 16 12 43
f 16 43 28
f 9 8 7
f 9 7 65
f 9 65 66
f 9 66 10
f 10 66 67
f 10 67 11
f 11 67 68
f 11 68 12
f 12 68 69
f 12 69 61
f 61 69 70
f 61 70 58
f 58 70 71
f 58 71 59
f 59 71 60
f 50 49 51
f 7 6 65
f 63 62 72
f 63 72 64
f 62 27 73
f 62 73 72
f 27 26 73
