# RS2 Model 8727
# Vertices: 75
# Faces: 133

v 6 -3 -6
v -6 -3 -6
v 0 5 -6
v 10 -5 9
v 15 -3 0
v 15 1 4
v 15 0 10
v 16 -2 14
v 9 -8 15
v 4 -2 14
v 6 0 10
v 6 1 4
v 6 -4 1
v 10 -6 4
v 15 -7 0
v 15 2 -6
v 15 2 -1
v 10 7 -1
v 9 5 4
v 9 6 10
v 9 8 15
v 5 2 -1
v 5 1 -6
v 5 -7 0
v 10 -9 3
v 10 -15 2
v 16 -13 -1
v 17 -11 -6
v 16 -1 -6
v 9 4 -6
v 5 -1 -6
v 5 -11 -6
v 5 -14 -1
v 10 -22 -1
v 10 -23 -6
v 16 -18 -6
v 15 -16 -2
v 5 -19 -2
v 5 -20 -6
v -10 -5 9
v -15 0 10
v -15 1 4
v -15 -3 0
v -10 -6 4
v -6 -4 1
v -6 1 4
v -6 0 10
v -4 -2 14
v -9 -8 15
v -16 -2 14
v -9 6 10
v -9 5 4
v -10 7 -1
v -15 2 -1
v -15 2 -6
v -15 -7 0
v -10 -9 3
v -5 -7 0
v -5 1 -6
v -5 2 -1
v -9 8 15
v -9 4 -6
v -16 -1 -6
v -17 -11 -6
v -16 -13 -1
v -10 -15 2
v -5 -14 -1
v -5 -11 -6
v -5 -1 -6
v -10 -22 -1
v -15 -16 -2
v -16 -18 -6
v -10 -23 -6
v -5 -19 -2
v -5 -20 -6

f 1 2 3
f 4 5 6
f 4 6 7
f 4 7 8
f 4 8 9
f 4 9 10
f 4 10 11
f 4 11 12
f 4 12 13
f 4 13 14
f 4 14 5
f 5 14 15
f 5 15 16
f 5 16 17
f 5 17 6
f 6 17 18
f 6 18 19
f 6 19 20
f 6 20 7
f 7 20 8
f 8 20 21
f 21 20 10
f 10 20 11
f 11 20 12
f 12 20 19
f 12 19 18
f 12 18 22
f 12 22 13
f 13 22 23
f 13 23 24
f 13 24 25
f 13 25 14
f 14 25 15
f 15 25 26
f 15 26 27
f 15 27 28
f 15 28 29
f 15 29 16
f 16 29 30
f 16 30 18
f 16 18 17
f 22 18 30
f 22 30 23
f 23 30 31
f 23 31 24
f 24 31 32
f 24 32 33
f 24 33 26
f 24 26 25
f 34 35 36
f 34 36 37
f 34 37 26
f 34 26 38
f 34 38 35
f 35 38 39
f 35 39 32
f 35 32 31
f 35 31 29
f 35 29 28
f 35 28 36
f 36 28 27
f 36 27 37
f 37 27 26
f 39 38 33
f 39 33 32
f 30 29 31
f 26 33 38
f 40 41 42
f 40 42 43
f 40 43 44
f 40 44 45
f 40 45 46
f 40 46 47
f 40 47 48
f 40 48 49
f 40 49 50
f 40 50 41
f 41 50 51
f 41 51 42
f 42 51 52
f 42 52 53
f 42 53 54
f 42 54 43
f 43 54 55
f 43 55 56
f 43 56 44
f 44 56 57
f 44 57 45
f 45 57 58
f 45 58 59
f 45 59 60
f 45 60 46
f 46 60 53
f 46 53 52
f 46 52 51
f 46 51 47
f 47 51 48
f 48 51 61
f 61 51 50
f 60 59 62
f 60 62 53
f 53 62 55
f 53 55 54
f 56 55 63
f 56 63 64
f 56 64 65
f 56 65 66
f 56 66 57
f 57 66 58
f 58 66 67
f 58 67 68
f 58 68 69
f 58 69 59
f 59 69 62
f 62 69 63
f 62 63 55
f 70 71 72
f 70 72 73
f 70 73 74
f 70 74 66
f 70 66 71
f 71 66 65
f 71 65 72
f 72 65 64
f 72 64 73
f 73 64 63
f 73 63 69
f 73 69 68
f 73 68 75
f 73 75 74
f 74 75 67
f 74 67 66
f 75 68 67
