# RS2 Model 8801
# Vertices: 270
# Faces: 476

v -64 64 0
v 64 64 0
v 64 -64 0
v -64 -64 0
v -18 -27 137
v -19 -27 142
v -17 -18 141
v -15 -23 133
v -11 -23 134
v -9 -26 138
v -10 -26 144
v -12 -18 142
v -14 -15 130
v -16 -19 128
v -12 -22 129
v -10 -18 131
v -6 -11 106
v -12 -18 113
v -5 -20 113
v -3 -14 107
v -7 -16 102
v -8 -29 103
v -2 -31 104
v 6 -31 108
v 12 -31 105
v 21 -20 98
v 5 -9 110
v -1 -16 103
v -5 -23 94
v -5 -30 94
v -4 -31 94
v 3 -35 102
v 9 -36 99
v 13 -31 96
v 24 -20 94
v 33 -23 107
v 34 -19 108
v 17 -12 95
v 12 -17 95
v 15 -10 104
v 4 0 101
v -5 -8 96
v -2 -23 93
v -3 -30 85
v -2 -37 86
v -1 -34 87
v 1 -30 91
v 8 -33 97
v 12 -41 96
v 9 -32 87
v 9 -30 86
v 17 -30 90
v 16 -17 89
v 19 -12 91
v 35 -24 103
v 36 -26 110
v 42 -21 114
v 45 -21 110
v 37 -19 104
v 9 -23 87
v 7 -23 87
v 12 -9 86
v 10 0 98
v 2 8 96
v -5 3 89
v -5 -17 82
v 1 -18 78
v 2 -30 82
v -2 -41 84
v -7 -41 94
v -7 -39 101
v -3 -32 97
v 5 -36 103
v 8 -44 103
v 10 -44 92
v 6 -46 89
v 38 -26 106
v 46 -29 108
v 42 -30 106
v 37 -29 114
v 41 -29 117
v 6 37 132
v 8 39 135
v 10 47 126
v 7 40 124
v 11 39 123
v 15 34 128
v 16 37 132
v 15 46 124
v 2 44 105
v 5 38 117
v 8 37 115
v 6 43 104
v -1 39 106
v 0 20 117
v 7 17 115
v 9 36 102
v 3 37 93
v -6 30 89
v -3 19 109
v 6 21 98
v 10 30 87
v 1 28 83
v -2 26 81
v -6 23 83
v -5 3 78
v 0 3 74
v 8 3 81
v 38 19 96
v 44 23 99
v 45 12 98
v 41 12 95
v 37 12 103
v 36 19 101
v 32 21 92
v 28 31 90
v 25 31 94
v 42 23 104
v 41 12 106
v 30 21 97
v 16 6 94
v 20 8 85
v 25 27 85
v 20 27 96
v -3 33 83
v 2 33 80
v 3 28 79
v -3 24 82
v 8 8 92
v -1 31 90
v 5 31 83
v 4 31 87
v 0 42 90
v -2 43 86
v 14 31 82
v 3 25 78
v 14 10 82
v 11 21 94
v 3 40 83
v 6 48 83
v 7 47 88
v 5 39 87
v 3 51 91
v 3 52 86
v 12 54 83
v 12 52 89
v 12 57 92
v 11 60 86
v 22 55 84
v 22 54 89
v 21 59 92
v 21 61 87
v 9 34 92
v 0 -3 75
v -3 3 75
v 3 3 75
v 2 -32 106
v 6 -37 108
v -1 -35 106
v -1 -35 112
v 2 -36 111
v 1 -38 112
v 3 -40 108
v 0 -37 114
v 1 -43 113
v 4 -41 109
v 3 -43 114
v 0 -40 115
v -3 -41 112
v -2 -45 108
v 0 -46 109
v 5 -48 104
v 9 -45 95
v 4 -46 89
v 2 -47 87
v -5 -45 91
v -10 -43 96
v -13 -39 91
v -8 -37 94
v -10 -38 98
v -8 -35 98
v -3 -34 106
v -7 -38 106
v -6 -40 106
v -5 -40 111
v -6 -35 110
v -5 -33 110
v -2 -35 113
v -3 -36 114
v -2 -38 113
v 2 -39 114
v -9 -46 98
v -9 -44 103
v -7 -42 106
v -8 -39 103
v -6 -43 106
v -5 -44 107
v 0 -47 106
v 2 -49 103
v 5 -49 98
v 2 -55 96
v -1 -51 98
v 0 -46 89
v -5 -50 99
v -5 -49 105
v -3 -46 107
v -55 0 32
v -38 31 41
v -36 34 0
v -54 0 0
v -40 -28 42
v -21 -23 75
v -34 0 73
v -17 23 75
v -14 40 36
v -18 34 0
v 19 50 30
v 0 51 0
v 41 28 28
v 36 34 0
v 59 0 19
v 54 0 0
v 38 -28 29
v 36 -34 0
v 22 -24 33
v 13 -30 0
v -14 -54 33
v -18 -51 0
v -36 -34 0
v 7 -48 18
v 14 -41 17
v 15 -37 0
v 3 -50 0
v 14 -58 17
v 23 -44 17
v 29 -41 0
v 23 -53 17
v 28 -57 0
v 13 -64 0
v 45 27 10
v 40 33 10
v 37 34 0
v 45 24 0
v 52 29 10
v 44 38 10
v 43 42 0
v 51 36 10
v 54 39 0
v 57 28 0
v 0 23 74
v 9 35 74
v 25 23 70
v 31 0 76
v 29 -23 71
v 16 -20 76
v -3 -35 72
v 0 0 85
v -46 27 10
v -53 22 10
v -54 20 0
v -43 27 0
v -48 34 10
v -58 26 10
v -63 26 0
v -56 32 10
v -59 36 0
v -47 38 0
v 141 -25 71
v 72 121 69
v -66 -120 74

f 1 2 3
f 1 3 4
f 5 6 7
f 5 7 8
f 5 8 9
f 5 9 10
f 5 10 11
f 5 11 6
f 6 11 7
f 7 11 12
f 7 12 13
f 7 13 8
f 8 13 14
f 8 14 15
f 8 15 9
f 9 15 12
f 9 12 11
f 9 11 10
f 15 16 12
f 12 16 13
f 13 16 17
f 13 17 18
f 13 18 14
f 14 18 19
f 14 19 15
f 15 19 20
f 15 20 16
f 16 20 17
f 17 20 21
f 17 21 18
f 18 21 22
f 18 22 23
f 18 23 19
f 19 23 24
f 19 24 25
f 19 25 26
f 19 26 27
f 19 27 28
f 19 28 20
f 20 28 21
f 21 28 29
f 21 29 30
f 21 30 22
f 22 30 23
f 23 30 31
f 23 31 32
f 23 32 24
f 24 32 33
f 24 33 25
f 25 33 34
f 25 34 26
f 26 34 35
f 26 35 36
f 26 36 37
f 26 37 38
f 26 38 39
f 26 39 40
f 26 40 27
f 27 40 41
f 27 41 28
f 28 41 42
f 28 42 43
f 28 43 29
f 29 43 30
f 30 43 31
f 31 43 44
f 31 44 45
f 31 45 46
f 31 46 47
f 31 47 32
f 32 47 48
f 32 48 33
f 33 48 49
f 33 49 50
f 33 50 34
f 34 50 51
f 34 51 52
f 34 52 35
f 35 52 53
f 35 53 54
f 35 54 55
f 35 55 36
f 36 55 56
f 36 56 37
f 37 56 57
f 37 57 58
f 37 58 59
f 37 59 38
f 38 59 54
f 38 54 53
f 38 53 39
f 39 53 60
f 39 60 61
f 39 61 62
f 39 62 63
f 39 63 40
f 40 63 41
f 41 63 64
f 41 64 65
f 41 65 42
f 42 65 66
f 42 66 43
f 43 66 44
f 44 66 67
f 44 67 68
f 44 68 69
f 44 69 45
f 45 69 70
f 45 70 46
f 46 70 71
f 46 71 72
f 46 72 47
f 47 72 73
f 47 73 48
f 48 73 49
f 49 73 74
f 49 74 75
f 49 75 50
f 50 75 76
f 50 76 68
f 50 68 61
f 50 61 51
f 51 61 60
f 51 60 53
f 51 53 52
f 77 58 78
f 77 78 79
f 77 79 80
f 77 80 56
f 77 56 55
f 77 55 58
f 58 55 59
f 59 55 54
f 80 81 57
f 80 57 56
f 78 58 57
f 78 57 81
f 78 81 80
f 78 80 79
f 82 83 84
f 82 84 85
f 82 85 86
f 82 86 87
f 82 87 83
f 83 87 88
f 83 88 84
f 84 88 89
f 84 89 90
f 84 90 91
f 84 91 85
f 85 91 92
f 85 92 86
f 86 92 93
f 86 93 89
f 86 89 88
f 86 88 87
f 89 93 90
f 90 93 94
f 90 94 91
f 91 94 95
f 91 95 96
f 91 96 92
f 92 96 97
f 92 97 93
f 93 97 94
f 94 97 98
f 94 98 99
f 94 99 100
f 94 100 95
f 95 100 96
f 96 100 64
f 96 64 97
f 97 64 101
f 97 101 102
f 97 102 98
f 98 102 103
f 98 103 104
f 98 104 99
f 99 104 105
f 99 105 100
f 100 105 64
f 64 105 65
f 65 105 106
f 65 106 66
f 66 106 107
f 66 107 67
f 67 107 108
f 67 108 62
f 67 62 61
f 67 61 68
f 109 110 111
f 109 111 112
f 109 112 113
f 109 113 114
f 109 114 115
f 109 115 116
f 109 116 110
f 110 116 117
f 110 117 118
f 110 118 111
f 111 118 119
f 111 119 112
f 112 119 113
f 113 119 118
f 113 118 114
f 114 118 120
f 114 120 115
f 115 120 121
f 115 121 122
f 115 122 123
f 115 123 116
f 116 123 117
f 117 123 124
f 117 124 120
f 117 120 118
f 104 125 126
f 104 126 127
f 104 127 105
f 105 127 128
f 105 128 106
f 106 128 107
f 107 128 108
f 108 128 129
f 108 129 63
f 108 63 62
f 130 103 131
f 130 131 132
f 130 132 133
f 130 133 134
f 130 134 125
f 130 125 103
f 103 125 104
f 127 126 132
f 127 132 131
f 127 131 135
f 127 135 136
f 127 136 128
f 128 136 137
f 128 137 129
f 129 137 121
f 129 121 124
f 129 124 138
f 129 138 64
f 129 64 63
f 139 126 125
f 139 125 134
f 139 134 140
f 139 140 141
f 139 141 142
f 139 142 126
f 126 142 132
f 132 142 133
f 133 142 143
f 133 143 144
f 133 144 134
f 134 144 140
f 140 144 145
f 140 145 146
f 140 146 141
f 141 146 147
f 141 147 143
f 141 143 142
f 145 144 148
f 145 148 149
f 145 149 150
f 145 150 146
f 146 150 151
f 146 151 147
f 147 151 152
f 147 152 148
f 147 148 143
f 143 148 144
f 149 148 152
f 149 152 151
f 149 151 150
f 64 138 101
f 101 138 102
f 102 138 153
f 102 153 131
f 102 131 103
f 120 124 121
f 122 121 137
f 122 137 123
f 123 137 136
f 123 136 135
f 123 135 124
f 124 135 153
f 124 153 138
f 135 131 153
f 154 155 156
f 157 158 73
f 157 73 72
f 157 72 159
f 157 159 160
f 157 160 161
f 157 161 158
f 158 161 162
f 158 162 163
f 158 163 74
f 158 74 73
f 161 160 162
f 162 160 164
f 165 166 167
f 165 167 168
f 165 168 169
f 165 169 166
f 166 169 170
f 166 170 171
f 166 171 172
f 166 172 74
f 74 172 173
f 74 173 75
f 75 173 174
f 75 174 76
f 76 174 175
f 76 175 68
f 68 175 69
f 69 175 176
f 69 176 70
f 70 176 177
f 70 177 178
f 70 178 179
f 70 179 71
f 71 179 180
f 71 180 181
f 71 181 72
f 72 181 182
f 182 181 183
f 182 183 184
f 182 184 185
f 182 185 186
f 182 186 187
f 182 187 188
f 188 187 189
f 188 189 190
f 190 189 185
f 190 185 169
f 190 169 168
f 190 168 191
f 191 168 167
f 191 167 166
f 187 186 189
f 189 186 185
f 178 177 179
f 179 177 180
f 180 177 192
f 180 192 193
f 180 193 194
f 180 194 195
f 180 195 181
f 181 195 183
f 183 195 184
f 184 195 196
f 184 196 185
f 185 196 197
f 185 197 169
f 169 197 170
f 170 197 198
f 170 198 171
f 171 198 172
f 172 198 199
f 172 199 173
f 173 199 200
f 173 200 174
f 174 200 201
f 174 201 202
f 174 202 203
f 174 203 175
f 175 203 176
f 176 203 204
f 176 204 192
f 176 192 177
f 200 202 201
f 202 200 199
f 202 199 204
f 202 204 203
f 204 199 205
f 204 205 192
f 192 205 193
f 193 205 206
f 193 206 194
f 194 206 197
f 194 197 196
f 194 196 195
f 197 206 198
f 198 206 199
f 199 206 205
f 207 208 209
f 207 209 210
f 207 210 211
f 207 211 212
f 207 212 213
f 207 213 208
f 208 213 214
f 208 214 215
f 208 215 216
f 208 216 209
f 215 217 218
f 215 218 216
f 217 219 220
f 217 220 218
f 219 221 222
f 219 222 220
f 221 223 224
f 221 224 222
f 223 225 226
f 223 226 224
f 225 227 228
f 225 228 226
f 227 211 229
f 227 229 228
f 211 210 229
f 230 231 232
f 230 232 233
f 230 233 234
f 230 234 231
f 231 234 235
f 231 235 236
f 231 236 232
f 235 237 238
f 235 238 236
f 237 234 239
f 237 239 238
f 234 233 239
f 234 237 235
f 240 241 242
f 240 242 243
f 240 243 244
f 240 244 241
f 241 244 245
f 241 245 246
f 241 246 242
f 245 247 248
f 245 248 246
f 247 244 249
f 247 249 248
f 244 243 249
f 244 247 245
f 214 250 215
f 215 250 217
f 217 250 251
f 217 251 219
f 219 251 252
f 219 252 221
f 221 252 253
f 221 253 223
f 223 253 254
f 223 254 225
f 225 254 255
f 225 255 227
f 227 255 256
f 227 256 211
f 211 256 212
f 212 256 257
f 212 257 213
f 213 257 214
f 214 257 250
f 250 257 251
f 251 257 252
f 252 257 253
f 253 257 254
f 254 257 255
f 255 257 256
f 258 259 260
f 258 260 261
f 258 261 262
f 258 262 259
f 259 262 263
f 259 263 264
f 259 264 260
f 263 265 266
f 263 266 264
f 265 262 267
f 265 267 266
f 262 261 267
f 262 265 263
