# RS2 Model 8866
# Vertices: 44
# Faces: 70

v -9 -7 4
v -7 -7 4
v -7 -4 1
v -11 -5 1
v -9 -10 1
v -9 -9 3
v -7 -12 6
v -7 -9 3
v -5 -9 1
v -2 -9 1
v -8 0 0
v -8 -4 4
v -10 -4 4
v -10 -2 5
v -12 -1 0
v -15 -1 -1
v -12 -12 -1
v -9 -11 1
v -8 -2 5
v -6 1 -1
v 0 -9 -1
v -8 -7 8
v 18 -11 1
v 16 -7 1
v 15 -9 4
v 16 -11 4
v 14 -12 3
v 14 -14 1
v 12 -10 1
v 9 -8 1
v 13 -14 1
v 13 -11 3
v 20 -5 0
v 9 -8 0
v 20 -4 0
v 22 -8 0
v 24 -10 0
v 15 -17 0
v 11 -13 6
v 19 -7 5
v 20 -8 5
v 19 -9 4
v 17 -8 4
v 16 -10 8

f 1 2 3
f 1 3 4
f 1 4 5
f 1 5 6
f 1 6 7
f 1 7 2
f 2 7 8
f 2 8 3
f 3 8 9
f 3 9 10
f 3 10 11
f 3 11 12
f 3 12 4
f 4 12 13
f 4 13 14
f 4 14 15
f 4 15 16
f 4 16 17
f 4 17 18
f 5 9 8
f 5 8 6
f 6 8 7
f 14 19 11
f 14 11 15
f 15 11 16
f 16 11 20
f 20 11 10
f 20 10 21
f 11 19 12
f 12 19 22
f 12 22 13
f 13 22 14
f 14 22 19
f 18 10 9
f 18 9 5
f 23 24 25
f 23 25 26
f 23 26 27
f 23 27 28
f 28 27 29
f 28 29 30
f 28 30 31
f 29 32 25
f 29 25 24
f 29 24 30
f 30 24 33
f 30 33 34
f 34 33 35
f 35 33 36
f 35 36 37
f 37 36 23
f 37 23 31
f 37 31 38
f 27 32 29
f 32 27 39
f 32 39 25
f 25 39 26
f 26 39 27
f 36 33 40
f 36 40 41
f 36 41 42
f 36 42 23
f 23 42 24
f 24 42 43
f 24 43 40
f 24 40 33
f 41 40 44
f 41 44 42
f 42 44 43
f 43 44 40
