# RS2 Model 8883
# Vertices: 119
# Faces: 201

v 33 -64 0
v 54 -64 17
v 44 -61 20
v 33 -42 0
v 47 -51 17
v 49 -42 0
v 54 -48 17
v 49 -64 0
v 16 25 0
v 23 29 17
v 30 25 13
v 30 25 0
v 30 16 13
v 30 9 0
v 23 19 17
v 16 9 0
v -30 -38 0
v -37 -42 20
v -47 -38 17
v -49 -38 0
v -47 -22 17
v -49 -16 0
v -37 -25 20
v -30 -16 0
v -40 48 0
v -47 62 24
v -47 51 17
v -56 48 0
v -56 51 17
v -56 61 0
v -56 62 24
v -41 57 0
v 12 -1 71
v 2 -14 73
v 3 -13 79
v 13 -3 78
v 28 -6 72
v 27 -5 63
v 12 -3 64
v 3 -13 65
v 12 -25 73
v 13 -22 80
v 14 -15 89
v 12 -11 89
v 15 -7 89
v 27 -6 77
v 26 -23 72
v 25 -24 63
v 19 -15 52
v 21 -7 53
v 11 -6 54
v 5 -11 54
v 11 -24 63
v 25 -21 79
v 20 -14 89
v 18 -10 91
v 23 -9 89
v 11 -17 53
v 11 -16 48
v 15 -14 47
v 17 -9 48
v 12 -7 48
v 8 -12 48
v 5 -8 38
v 6 -10 38
v 10 -11 37
v 10 -8 38
v 8 -7 39
v 12 3 28
v 6 -3 28
v 11 -7 28
v 18 -7 29
v 19 0 29
v 20 -1 16
v 9 2 16
v 0 -6 16
v 5 -13 16
v 18 -10 16
v 41 -3 22
v 37 -3 22
v 25 1 1
v 7 6 1
v -8 12 14
v -9 8 22
v -14 6 22
v -13 -7 1
v -17 -32 11
v -13 -28 19
v -9 -29 19
v 3 -18 1
v 23 -13 1
v 46 -3 14
v 47 15 11
v 46 16 16
v 44 15 16
v 35 2 14
v 39 14 11
v 37 14 1
v 51 18 1
v 43 27 2
v 38 29 2
v -22 7 14
v -22 20 10
v -12 21 10
v -13 23 15
v -18 23 15
v -10 34 1
v -24 23 1
v -7 24 1
v -7 33 1
v -5 -29 11
v -5 -39 10
v -13 -40 10
v -7 -43 11
v -6 -42 11
v 6 -42 1
v -3 -37 1
v -12 -44 1
v 6 -48 1

f 1 2 3
f 1 3 4
f 4 3 5
f 4 5 6
f 6 5 7
f 6 7 8
f 8 7 2
f 8 2 1
f 9 10 11
f 9 11 12
f 12 11 13
f 12 13 14
f 14 13 15
f 14 15 16
f 16 15 10
f 16 10 9
f 17 18 19
f 17 19 20
f 20 19 21
f 20 21 22
f 22 21 23
f 22 23 24
f 24 23 18
f 24 18 17
f 25 26 27
f 25 27 28
f 28 27 29
f 28 29 30
f 30 29 31
f 30 31 32
f 32 31 26
f 32 26 25
f 19 18 23
f 19 23 21
f 3 2 7
f 3 7 5
f 15 13 11
f 15 11 10
f 29 27 26
f 29 26 31
f 33 34 35
f 33 35 36
f 33 36 37
f 33 37 38
f 33 38 39
f 33 39 34
f 34 39 40
f 34 40 41
f 34 41 42
f 34 42 35
f 35 42 43
f 35 43 44
f 35 44 36
f 36 44 45
f 36 45 46
f 36 46 37
f 37 46 47
f 37 47 48
f 37 48 38
f 38 48 49
f 38 49 50
f 38 50 39
f 39 50 51
f 39 51 40
f 40 51 52
f 40 52 53
f 40 53 41
f 41 53 47
f 41 47 54
f 41 54 42
f 42 54 55
f 42 55 43
f 43 55 56
f 43 56 44
f 44 56 45
f 45 56 57
f 45 57 46
f 46 57 54
f 46 54 47
f 53 48 47
f 48 53 58
f 48 58 49
f 49 58 59
f 49 59 60
f 49 60 50
f 50 60 61
f 50 61 51
f 51 61 62
f 51 62 52
f 52 62 63
f 52 63 58
f 52 58 53
f 63 59 58
f 59 63 64
f 59 64 65
f 59 65 60
f 60 65 66
f 60 66 61
f 61 66 67
f 61 67 62
f 62 67 68
f 62 68 63
f 63 68 64
f 64 68 69
f 64 69 70
f 64 70 65
f 65 70 71
f 65 71 66
f 66 71 72
f 66 72 67
f 67 72 73
f 67 73 68
f 68 73 69
f 69 73 74
f 69 74 75
f 69 75 70
f 70 75 76
f 70 76 71
f 71 76 77
f 71 77 72
f 72 77 78
f 72 78 73
f 73 78 74
f 74 78 79
f 74 79 80
f 74 80 81
f 74 81 82
f 74 82 75
f 75 82 83
f 75 83 84
f 75 84 76
f 76 84 85
f 76 85 86
f 76 86 87
f 76 87 88
f 76 88 77
f 77 88 89
f 77 89 90
f 77 90 91
f 77 91 78
f 78 91 92
f 78 92 79
f 79 92 93
f 79 93 94
f 79 94 80
f 80 94 95
f 80 95 96
f 80 96 81
f 81 96 91
f 91 96 92
f 92 96 97
f 92 97 93
f 93 97 98
f 93 98 99
f 93 99 94
f 94 99 100
f 94 100 95
f 95 100 101
f 95 101 97
f 95 97 96
f 85 102 86
f 86 102 82
f 82 102 83
f 83 102 103
f 83 103 104
f 83 104 84
f 84 104 105
f 84 105 85
f 85 105 106
f 85 106 102
f 102 106 103
f 103 106 107
f 103 107 108
f 103 108 104
f 104 108 109
f 104 109 105
f 105 109 110
f 105 110 106
f 106 110 107
f 101 98 97
f 89 111 90
f 90 111 86
f 86 111 87
f 87 111 112
f 87 112 113
f 87 113 88
f 88 113 114
f 88 114 89
f 89 114 115
f 89 115 111
f 111 115 112
f 112 115 116
f 112 116 117
f 112 117 113
f 113 117 118
f 113 118 114
f 114 118 119
f 114 119 115
f 115 119 116
f 57 55 54
f 55 57 56
