# RS2 Model 8894
# Vertices: 29
# Faces: 51

v -43 46 8
v -43 53 8
v -46 53 39
v -43 49 39
v -54 46 8
v -39 46 0
v -36 59 0
v -54 62 0
v -54 59 8
v -54 56 39
v -51 60 71
v -46 59 69
v -46 52 69
v -54 49 39
v -57 52 8
v -54 38 0
v -54 53 69
v -54 49 113
v -51 56 113
v -46 53 113
v -46 49 113
v -51 49 69
v -46 56 143
v -51 53 143
v -54 56 143
v -54 62 143
v -46 60 143
v -51 52 174
v -64 52 0

f 1 2 3
f 1 3 4
f 1 4 5
f 1 5 6
f 1 6 7
f 1 7 2
f 2 7 8
f 2 8 9
f 2 9 10
f 2 10 3
f 3 10 11
f 3 11 12
f 3 12 4
f 4 12 13
f 4 13 14
f 4 14 5
f 5 14 15
f 5 15 16
f 5 16 6
f 9 15 14
f 9 14 10
f 10 14 17
f 10 17 11
f 11 17 18
f 11 18 19
f 11 19 12
f 12 19 20
f 12 20 13
f 13 20 21
f 13 21 22
f 13 22 14
f 14 22 17
f 17 22 18
f 18 22 21
f 18 21 23
f 18 23 24
f 18 24 25
f 18 25 19
f 19 25 26
f 19 26 20
f 20 26 27
f 20 27 21
f 21 27 23
f 23 27 28
f 23 28 24
f 24 28 25
f 25 28 26
f 26 28 27
f 15 29 16
f 29 15 9
f 29 9 8
