# RS2 Model 8911
# Vertices: 84
# Faces: 163

v -38 -29 -87
v -38 -62 -87
v -40 -60 -79
v -46 -57 -53
v -52 -23 -32
v 59 -23 -32
v 44 -29 -87
v 38 -35 -107
v -32 -35 -107
v -34 -62 -107
v -6 -80 -81
v -6 -83 -73
v -8 -83 -49
v -8 -86 -38
v -28 -65 -29
v -52 -60 -20
v -52 -57 -32
v -61 -54 41
v -55 -21 78
v 62 -21 78
v 64 -54 41
v 59 -54 -32
v 53 -57 -53
v 47 -60 -79
v 44 -62 -87
v 44 -65 -107
v 41 -65 -113
v 30 -71 -128
v 18 -35 -134
v 18 -65 -145
v 0 -51 -154
v 0 -29 -145
v -12 -65 -145
v -12 -35 -134
v -20 -62 -128
v -32 -62 -113
v -6 -77 -101
v 12 -80 -81
v 12 -83 -73
v 15 -83 -49
v 15 -86 -38
v 15 -83 -20
v -8 -86 -20
v -28 -65 -20
v -43 -62 -15
v -43 -62 9
v -52 -60 15
v -40 -65 35
v -34 -65 44
v -55 -54 78
v -14 -71 108
v -14 -38 108
v 18 -38 108
v 62 -54 78
v 47 -62 35
v 56 -60 15
v 56 -60 -20
v 36 -65 -29
v 12 -77 -101
v 12 -74 -110
v -6 -74 -110
v -20 -71 -15
v -20 -71 6
v -32 -68 15
v -32 -68 26
v -2 -86 32
v -8 -89 44
v -2 -86 52
v -2 -80 67
v -8 -86 15
v 15 -83 15
v 10 -86 32
v 15 -86 44
v 10 -86 52
v 10 -80 67
v 18 -71 108
v 41 -65 44
v 38 -65 26
v 50 -62 9
v 50 -62 -15
v 36 -65 -20
v 24 -71 -15
v 38 -65 15
v 24 -71 6

f 1 2 3
f 1 3 4
f 1 4 5
f 1 5 6
f 1 6 7
f 1 7 8
f 1 8 9
f 1 9 2
f 2 9 10
f 2 10 11
f 2 11 12
f 2 12 13
f 2 13 3
f 3 13 4
f 4 13 14
f 4 14 15
f 4 15 16
f 4 16 17
f 4 17 5
f 5 17 18
f 5 18 19
f 5 19 6
f 6 19 20
f 6 20 21
f 6 21 22
f 6 22 23
f 6 23 24
f 6 24 7
f 7 24 25
f 7 25 26
f 7 26 8
f 8 26 27
f 8 27 28
f 8 28 29
f 29 28 30
f 29 30 31
f 29 31 32
f 32 31 33
f 32 33 34
f 34 33 35
f 34 35 36
f 34 36 9
f 9 36 10
f 10 36 11
f 11 36 37
f 11 37 38
f 11 38 39
f 11 39 12
f 12 39 40
f 12 40 13
f 13 40 41
f 13 41 14
f 14 41 42
f 14 42 43
f 14 43 15
f 15 43 44
f 15 44 45
f 15 45 16
f 16 45 46
f 16 46 47
f 16 47 17
f 17 47 18
f 18 47 48
f 18 48 49
f 18 49 50
f 18 50 19
f 19 50 51
f 19 51 52
f 19 52 20
f 20 52 53
f 20 53 54
f 20 54 21
f 21 54 55
f 21 55 56
f 21 56 22
f 22 56 57
f 22 57 23
f 23 57 58
f 23 58 41
f 23 41 24
f 24 41 40
f 24 40 39
f 24 39 25
f 25 39 26
f 26 39 38
f 26 38 59
f 26 59 27
f 27 59 28
f 28 59 60
f 28 60 30
f 30 60 61
f 30 61 33
f 30 33 31
f 45 44 62
f 45 62 63
f 45 63 64
f 45 64 46
f 46 64 47
f 47 64 65
f 47 65 48
f 48 65 49
f 49 65 66
f 49 66 67
f 49 67 68
f 49 68 69
f 49 69 51
f 49 51 50
f 65 64 63
f 65 63 70
f 65 70 66
f 66 70 71
f 66 71 72
f 66 72 67
f 67 72 73
f 67 73 68
f 68 73 74
f 68 74 69
f 69 74 75
f 69 75 51
f 51 75 76
f 51 76 52
f 52 76 53
f 53 76 54
f 54 76 77
f 54 77 55
f 55 77 78
f 55 78 56
f 56 78 79
f 56 79 80
f 56 80 57
f 57 80 81
f 57 81 58
f 58 81 82
f 58 82 42
f 58 42 41
f 70 63 62
f 70 62 43
f 70 43 71
f 70 71 72
f 70 72 66
f 43 62 44
f 36 35 61
f 36 61 37
f 37 61 59
f 37 59 38
f 35 33 61
f 80 79 83
f 80 83 84
f 80 84 82
f 80 82 81
f 78 83 79
f 83 78 71
f 83 71 84
f 84 71 42
f 84 42 82
f 75 77 76
f 77 75 74
f 77 74 73
f 77 73 78
f 78 73 72
f 78 72 71
f 43 42 71
f 61 60 59
