# RS2 Model 8912
# Vertices: 26
# Faces: 34

v 49 -12 99
v 41 -12 41
v 31 38 99
v 49 -12 110
v 31 -57 110
v 31 -57 99
v 27 -50 41
v 27 31 41
v -31 38 99
v 31 38 110
v -49 -12 110
v -33 -57 110
v -33 -57 99
v -31 -50 41
v -25 31 41
v -49 -12 99
v -31 38 110
v -39 -12 41
v 8 -54 72
v -6 -54 72
v -16 -54 63
v 17 -54 63
v 8 -59 99
v 22 -59 99
v -22 -59 99
v -6 -59 99

f 1 2 3
f 1 3 4
f 1 4 5
f 1 5 6
f 1 6 7
f 1 7 2
f 3 2 8
f 3 8 9
f 3 9 10
f 3 10 4
f 4 10 11
f 4 11 5
f 5 11 12
f 5 12 6
f 6 12 13
f 6 13 14
f 6 14 7
f 9 8 15
f 9 15 16
f 9 16 17
f 9 17 10
f 10 17 11
f 11 17 16
f 11 16 13
f 11 13 12
f 16 15 18
f 16 18 13
f 13 18 14
f 19 20 21
f 19 21 22
f 19 22 23
f 23 22 24
f 25 21 20
f 25 20 26
