# RS2 Model 8924
# Vertices: 346
# Faces: 678

v 3 -14 93
v 0 -14 93
v 0 -5 88
v 4 -14 86
v 5 -14 88
v 7 -14 95
v 9 -12 102
v 0 -14 102
v -3 -14 93
v -4 -14 86
v -1 -4 72
v -4 10 87
v -5 14 91
v 0 11 91
v 5 14 91
v 4 10 87
v 1 -4 72
v 6 -9 68
v 6 -13 80
v 9 -14 86
v 7 -14 88
v 11 -13 88
v 11 -13 95
v 11 -12 102
v 10 -10 108
v 0 -14 107
v -10 -10 108
v -9 -12 102
v -7 -14 95
v -5 -14 88
v -9 -14 86
v -6 -13 80
v -6 -9 68
v -1 -3 59
v -10 10 56
v -6 9 67
v -9 12 72
v -6 11 82
v -9 14 91
v -10 13 96
v 0 14 96
v 10 13 96
v 9 14 91
v 6 11 82
v 9 12 72
v 6 9 67
v 10 10 56
v 1 -3 59
v 7 -10 61
v 10 -13 61
v 10 -13 68
v 8 -12 74
v 10 -13 79
v 7 -12 75
v 7 -13 80
v 8 -13 83
v 10 -13 82
v 12 -11 112
v 16 1 108
v 16 0 112
v 10 9 109
v 9 8 113
v 0 11 109
v 0 10 113
v -9 8 113
v -10 9 109
v -16 0 112
v -16 1 108
v -10 -11 112
v 0 -14 111
v 14 12 96
v 12 11 106
v 16 4 105
v 18 0 105
v 19 2 95
v 15 12 91
v 0 14 105
v 13 -11 102
v 15 -10 95
v 19 -2 94
v 19 -4 89
v 18 4 89
v 17 6 90
v 16 8 91
v 15 9 88
v 12 12 79
v -12 11 106
v -16 4 105
v -18 0 105
v -13 -11 102
v -11 -12 102
v -11 -13 95
v -11 -13 88
v -7 -14 88
v -10 -13 82
v -8 -13 83
v -7 -13 80
v -7 -12 75
v -10 -13 79
v -8 -12 74
v -10 -13 68
v -10 -13 61
v -7 -10 61
v -1 -3 56
v -8 9 50
v -11 8 50
v -16 3 57
v -15 9 68
v -11 12 67
v -12 12 72
v -12 12 79
v -15 12 91
v -14 12 96
v 12 -11 60
v 13 -10 68
v 11 -11 53
v 13 -9 60
v 16 -4 66
v 16 -5 70
v 16 -5 72
v 17 -7 80
v 14 -10 75
v 12 -12 79
v 11 -13 79
v 12 -12 74
v 13 6 43
v 14 6 34
v 12 8 35
v 10 9 36
v 9 9 44
v 11 8 50
v 14 4 43
v 15 3 39
v 17 2 33
v 14 6 32
v 12 9 33
v 12 9 27
v 7 8 31
v 7 7 34
v 6 6 44
v 8 9 50
v 16 3 57
v 15 3 47
v 16 0 42
v 16 0 40
v 16 -5 32
v 16 -2 24
v 1 -2 34
v 2 -2 45
v 6 6 34
v 5 5 31
v 3 -1 24
v 4 -7 33
v 4 -8 36
v 5 -9 45
v 2 -2 47
v 1 -3 56
v 8 -11 53
v 9 -12 46
v 13 -10 45
v 13 -10 50
v 13 -9 55
v 16 -6 59
v 17 -5 58
v 17 -2 65
v 17 0 65
v 19 1 70
v 18 -2 70
v 17 -3 74
v 19 -3 80
v 18 -6 84
v 15 -9 80
v 12 -12 83
v 10 -13 74
v 11 -9 36
v 8 -12 35
v 8 -12 32
v 10 -10 32
v 14 -6 32
v 13 -7 36
v 13 -7 38
v 14 -8 43
v 14 -9 44
v 5 -10 36
v 6 -10 33
v 6 -7 27
v 8 -10 24
v 12 -8 27
v 16 -3 40
v 16 -5 42
v 15 -7 46
v 15 -6 51
v 9 8 15
v 4 -2 14
v 6 7 26
v 16 -2 14
v 9 -8 15
v 15 -10 90
v 17 -8 90
v 18 -8 86
v 19 -4 84
v 20 0 77
v 18 4 83
v 17 6 83
v 17 7 86
v 15 9 84
v 14 10 82
v 13 11 79
v 15 11 75
v 12 12 72
v 14 -11 86
v 19 -1 73
v 19 1 73
v 18 3 74
v 19 2 79
v 17 7 79
v 17 5 70
v 17 5 72
v 15 9 68
v 16 9 79
v 15 9 82
v 11 12 67
v 17 3 65
v 17 -2 45
v 16 1 47
v 17 -3 42
v 16 -5 46
v 15 -7 55
v 14 -10 83
v -19 2 95
v -19 -2 94
v -15 -10 95
v -16 8 91
v -17 6 90
v -18 4 89
v -19 -4 89
v -17 -8 90
v -15 -10 90
v -13 -10 68
v -12 -11 60
v -12 -12 74
v -11 -13 79
v -12 -12 79
v -14 -10 75
v -17 -7 80
v -16 -5 72
v -16 -5 70
v -16 -4 66
v -13 -9 60
v -11 -11 53
v -8 -11 53
v -2 -2 47
v -6 6 44
v -9 9 44
v -13 6 43
v -14 4 43
v -15 3 47
v -16 1 47
v -17 -2 45
v -17 -5 58
v -17 -2 65
v -17 0 65
v -17 3 65
v -17 5 70
v -17 5 72
v -17 7 79
v -16 9 79
v -15 11 75
v -10 9 36
v -12 8 35
v -14 6 34
v -15 3 39
v -16 0 42
v -17 -3 42
v -16 -5 42
v -16 -5 46
v -15 -6 51
v -15 -7 55
v -16 -6 59
v -19 1 70
v -19 1 73
v -18 3 74
v -19 2 79
v -18 4 83
v -17 6 83
v -15 9 84
v -15 9 82
v -14 10 82
v -13 11 79
v -1 -2 34
v -6 6 34
v -2 -2 45
v -4 -8 36
v -4 -7 33
v -3 -1 24
v -5 5 31
v -7 8 31
v -7 7 34
v -11 -9 36
v -10 -10 32
v -8 -12 32
v -8 -12 35
v -13 -10 45
v -14 -9 44
v -14 -8 43
v -13 -7 38
v -13 -7 36
v -14 -6 32
v -12 -8 27
v -8 -10 24
v -6 -7 27
v -6 -10 33
v -5 -10 36
v -5 -9 45
v -9 -12 46
v -13 -10 50
v -15 -7 46
v -16 -3 40
v -16 -5 32
v -16 -2 24
v -9 -8 15
v -4 -2 14
v -9 8 15
v -12 9 27
v -6 7 26
v -16 -2 14
v -14 6 32
v -12 9 33
v -14 -11 86
v -14 -10 83
v -12 -12 83
v -18 -8 86
v -15 -9 80
v -18 -6 84
v -19 -4 84
v -19 -3 80
v -17 -3 74
v -18 -2 70
v -19 -1 73
v -20 0 77
v -17 7 86
v -15 9 88
v -17 2 33
v -16 0 40
v -10 -13 74
v -13 -9 55

f 1 2 3
f 1 3 4
f 1 4 5
f 1 5 6
f 1 6 7
f 1 7 8
f 1 8 2
f 2 8 9
f 2 9 3
f 3 9 10
f 3 10 11
f 3 11 12
f 3 12 13
f 3 13 14
f 3 14 15
f 3 15 16
f 3 16 17
f 3 17 4
f 4 17 18
f 4 18 19
f 4 19 20
f 4 20 5
f 5 20 21
f 5 21 6
f 6 21 22
f 6 22 23
f 6 23 7
f 7 23 24
f 7 24 25
f 7 25 8
f 8 25 26
f 8 26 27
f 8 27 28
f 8 28 9
f 9 28 29
f 9 29 30
f 9 30 10
f 10 30 31
f 10 31 32
f 10 32 33
f 10 33 11
f 11 33 34
f 11 34 35
f 11 35 36
f 11 36 37
f 11 37 38
f 11 38 12
f 12 38 13
f 13 38 39
f 13 39 40
f 13 40 41
f 13 41 14
f 14 41 15
f 15 41 42
f 15 42 43
f 15 43 44
f 15 44 16
f 16 44 17
f 17 44 45
f 17 45 46
f 17 46 47
f 17 47 48
f 17 48 18
f 18 48 49
f 18 49 50
f 18 50 51
f 18 51 52
f 18 52 53
f 18 53 54
f 18 54 19
f 19 54 55
f 19 55 56
f 19 56 20
f 20 56 57
f 20 57 22
f 20 22 21
f 58 25 59
f 58 59 60
f 60 59 61
f 60 61 62
f 62 61 63
f 62 63 64
f 64 63 65
f 65 63 66
f 65 66 67
f 67 66 68
f 67 68 69
f 69 68 27
f 69 27 70
f 70 27 26
f 70 26 25
f 70 25 58
f 71 72 73
f 71 73 74
f 71 74 75
f 71 75 76
f 71 76 42
f 71 42 72
f 72 42 77
f 72 77 61
f 72 61 59
f 72 59 73
f 73 59 74
f 74 59 78
f 74 78 79
f 74 79 80
f 74 80 75
f 75 80 81
f 75 81 82
f 75 82 83
f 75 83 84
f 75 84 76
f 76 84 85
f 76 85 86
f 76 86 43
f 76 43 42
f 61 77 63
f 63 77 66
f 66 77 87
f 66 87 68
f 68 87 88
f 68 88 89
f 68 89 90
f 68 90 27
f 27 90 91
f 27 91 28
f 28 91 92
f 28 92 29
f 29 92 93
f 29 93 94
f 29 94 30
f 30 94 31
f 31 94 93
f 31 93 95
f 31 95 96
f 31 96 32
f 32 96 97
f 32 97 98
f 32 98 33
f 33 98 99
f 33 99 100
f 33 100 101
f 33 101 102
f 33 102 103
f 33 103 34
f 34 103 104
f 34 104 35
f 35 104 105
f 35 105 106
f 35 106 107
f 35 107 108
f 35 108 109
f 35 109 36
f 36 109 37
f 37 109 110
f 37 110 111
f 37 111 38
f 38 111 39
f 39 111 112
f 39 112 40
f 40 112 113
f 40 113 87
f 40 87 77
f 40 77 41
f 41 77 42
f 24 78 25
f 25 78 59
f 114 115 50
f 114 50 116
f 114 116 117
f 114 117 115
f 115 117 118
f 115 118 119
f 115 119 120
f 115 120 121
f 115 121 122
f 115 122 123
f 115 123 124
f 115 124 125
f 115 125 51
f 115 51 50
f 126 127 128
f 126 128 129
f 126 129 130
f 126 130 131
f 126 131 132
f 126 132 133
f 126 133 127
f 127 133 134
f 127 134 135
f 127 135 128
f 128 135 136
f 128 136 129
f 129 136 137
f 129 137 138
f 129 138 139
f 129 139 140
f 129 140 130
f 130 140 141
f 130 141 131
f 131 141 47
f 131 47 142
f 131 142 143
f 131 143 132
f 132 143 144
f 132 144 133
f 133 144 145
f 133 145 134
f 134 145 146
f 134 146 147
f 134 147 135
f 135 147 137
f 135 137 136
f 148 149 140
f 148 140 150
f 148 150 151
f 148 151 152
f 148 152 153
f 148 153 154
f 148 154 149
f 149 154 155
f 149 155 156
f 149 156 140
f 140 156 141
f 141 156 157
f 141 157 47
f 47 157 48
f 48 157 49
f 49 157 158
f 49 158 50
f 50 158 116
f 116 158 159
f 116 159 160
f 116 160 161
f 116 161 162
f 116 162 117
f 117 162 163
f 117 163 118
f 118 163 164
f 118 164 165
f 118 165 166
f 118 166 167
f 118 167 168
f 118 168 119
f 119 168 169
f 119 169 120
f 120 169 170
f 120 170 121
f 121 170 171
f 121 171 172
f 121 172 122
f 122 172 123
f 123 172 173
f 123 173 124
f 124 173 22
f 124 22 57
f 124 57 53
f 124 53 174
f 124 174 125
f 125 174 51
f 51 174 52
f 52 174 53
f 175 176 177
f 175 177 178
f 175 178 179
f 175 179 180
f 175 180 181
f 175 181 182
f 175 182 183
f 175 183 160
f 175 160 176
f 176 160 159
f 176 159 155
f 176 155 184
f 176 184 177
f 177 184 185
f 177 185 186
f 177 186 187
f 177 187 178
f 178 187 188
f 178 188 179
f 179 188 147
f 179 147 146
f 179 146 180
f 180 146 189
f 180 189 181
f 181 189 190
f 181 190 182
f 182 190 191
f 182 191 183
f 183 191 192
f 183 192 161
f 183 161 160
f 193 194 152
f 193 152 195
f 193 195 137
f 193 137 147
f 193 147 196
f 196 147 197
f 197 147 187
f 197 187 194
f 194 187 152
f 152 187 186
f 152 186 153
f 153 186 185
f 153 185 154
f 154 185 184
f 154 184 155
f 23 79 78
f 23 78 24
f 23 22 79
f 79 22 198
f 79 198 199
f 79 199 80
f 80 199 81
f 81 199 200
f 81 200 201
f 81 201 202
f 81 202 82
f 82 202 203
f 82 203 204
f 82 204 83
f 83 204 205
f 83 205 84
f 84 205 85
f 85 205 206
f 85 206 207
f 85 207 86
f 86 207 208
f 86 208 209
f 86 209 210
f 86 210 45
f 86 45 44
f 86 44 43
f 22 211 198
f 198 211 199
f 199 211 200
f 200 211 172
f 200 172 171
f 200 171 201
f 201 171 170
f 201 170 202
f 202 170 169
f 202 169 212
f 202 212 213
f 202 213 214
f 202 214 215
f 202 215 203
f 203 215 216
f 203 216 204
f 204 216 206
f 204 206 205
f 169 168 212
f 212 168 167
f 212 167 213
f 213 167 217
f 213 217 214
f 214 217 218
f 214 218 215
f 215 218 216
f 216 218 219
f 216 219 220
f 216 220 221
f 216 221 206
f 206 221 207
f 207 221 220
f 207 220 208
f 208 220 209
f 209 220 219
f 209 219 210
f 210 219 222
f 210 222 45
f 45 222 46
f 46 222 47
f 47 222 219
f 47 219 142
f 142 219 223
f 142 223 166
f 142 166 165
f 142 165 164
f 142 164 224
f 142 224 225
f 142 225 143
f 143 225 144
f 144 225 224
f 144 224 226
f 144 226 189
f 144 189 145
f 145 189 146
f 159 158 155
f 155 158 156
f 156 158 157
f 147 188 187
f 150 139 138
f 150 138 151
f 151 138 195
f 151 195 152
f 195 138 137
f 140 139 150
f 190 227 191
f 191 227 192
f 192 227 164
f 192 164 228
f 192 228 161
f 161 228 162
f 162 228 163
f 163 228 164
f 226 190 189
f 190 226 224
f 190 224 227
f 227 224 164
f 218 217 219
f 219 217 223
f 223 217 167
f 223 167 166
f 229 172 211
f 229 211 22
f 229 22 173
f 229 173 172
f 53 55 54
f 55 53 57
f 55 57 56
f 87 113 88
f 88 113 89
f 89 113 230
f 89 230 231
f 89 231 232
f 89 232 90
f 90 232 92
f 90 92 91
f 112 230 113
f 230 112 233
f 230 233 234
f 230 234 235
f 230 235 236
f 230 236 231
f 231 236 237
f 231 237 232
f 232 237 238
f 232 238 93
f 232 93 92
f 239 240 102
f 239 102 101
f 239 101 241
f 239 241 242
f 239 242 243
f 239 243 244
f 239 244 245
f 239 245 246
f 239 246 247
f 239 247 248
f 239 248 249
f 239 249 240
f 240 249 250
f 240 250 102
f 102 250 251
f 102 251 103
f 103 251 104
f 104 251 252
f 104 252 105
f 105 252 253
f 105 253 254
f 105 254 106
f 106 254 255
f 106 255 256
f 106 256 257
f 106 257 107
f 107 257 258
f 107 258 259
f 107 259 260
f 107 260 261
f 107 261 262
f 107 262 263
f 107 263 108
f 108 263 264
f 108 264 265
f 108 265 266
f 108 266 267
f 108 267 268
f 108 268 110
f 108 110 109
f 255 269 270
f 255 270 271
f 255 271 272
f 255 272 256
f 256 272 273
f 256 273 257
f 257 273 258
f 258 273 259
f 259 273 274
f 259 274 275
f 259 275 276
f 259 276 260
f 260 276 277
f 260 277 278
f 260 278 279
f 260 279 248
f 260 248 261
f 261 248 262
f 262 248 280
f 262 280 263
f 263 280 264
f 264 280 281
f 264 281 282
f 264 282 265
f 265 282 283
f 265 283 266
f 266 283 284
f 266 284 285
f 266 285 286
f 266 286 287
f 266 287 267
f 267 287 288
f 267 288 289
f 267 289 268
f 268 289 111
f 268 111 110
f 290 291 253
f 290 253 292
f 290 292 293
f 290 293 294
f 290 294 295
f 290 295 296
f 290 296 291
f 291 296 297
f 291 297 298
f 291 298 253
f 253 298 269
f 253 269 254
f 254 269 255
f 299 300 301
f 299 301 302
f 299 302 303
f 299 303 304
f 299 304 305
f 299 305 306
f 299 306 307
f 299 307 308
f 299 308 300
f 300 308 309
f 300 309 310
f 300 310 301
f 301 310 311
f 301 311 312
f 301 312 313
f 301 313 302
f 302 313 314
f 302 314 315
f 302 315 303
f 303 315 250
f 303 250 316
f 303 316 304
f 304 316 277
f 304 277 317
f 304 317 305
f 305 317 275
f 305 275 306
f 306 275 318
f 306 318 307
f 307 318 319
f 307 319 308
f 308 319 320
f 308 320 309
f 309 320 310
f 310 320 321
f 310 321 322
f 310 322 295
f 310 295 311
f 311 295 294
f 311 294 312
f 312 294 293
f 312 293 313
f 313 293 314
f 314 293 292
f 314 292 252
f 314 252 251
f 314 251 315
f 315 251 250
f 323 324 325
f 323 325 295
f 323 295 322
f 320 326 321
f 326 320 323
f 323 320 324
f 324 320 327
f 324 327 328
f 324 328 325
f 325 328 269
f 325 269 297
f 325 297 296
f 325 296 295
f 93 238 329
f 93 329 330
f 93 330 331
f 93 331 242
f 93 242 95
f 95 242 99
f 95 99 97
f 95 97 96
f 329 238 237
f 329 237 332
f 329 332 333
f 329 333 330
f 330 333 331
f 331 333 243
f 331 243 242
f 334 245 333
f 334 333 332
f 334 332 335
f 334 335 336
f 334 336 245
f 245 336 246
f 246 336 337
f 246 337 247
f 247 337 338
f 247 338 248
f 248 338 280
f 280 338 339
f 280 339 281
f 281 339 340
f 281 340 282
f 282 340 283
f 283 340 284
f 284 340 235
f 284 235 285
f 285 235 234
f 285 234 341
f 285 341 286
f 286 341 342
f 286 342 288
f 286 288 287
f 337 339 338
f 339 337 340
f 340 337 336
f 340 336 335
f 340 335 236
f 340 236 235
f 297 269 298
f 343 271 327
f 343 327 320
f 343 320 319
f 343 319 344
f 343 344 272
f 343 272 271
f 328 270 269
f 270 328 327
f 270 327 271
f 244 333 245
f 333 244 243
f 241 345 242
f 242 345 99
f 99 345 100
f 100 345 101
f 101 345 241
f 319 318 344
f 344 318 273
f 344 273 272
f 317 276 275
f 276 317 277
f 275 274 318
f 318 274 273
f 236 332 237
f 332 236 335
f 250 346 316
f 316 346 278
f 316 278 277
f 248 279 249
f 249 279 346
f 249 346 250
f 233 342 341
f 233 341 234
f 233 112 342
f 342 112 111
f 342 111 288
f 288 111 289
f 97 99 98
f 346 279 278
f 252 292 253
