# RS2 Model 8935
# Vertices: 63
# Faces: 109

v 13 3 10
v 14 4 4
v 8 8 5
v 8 8 11
v 13 2 19
v 8 -2 19
v 8 -1 11
v 9 -1 5
v 15 -5 1
v 16 -5 0
v 16 3 -4
v 8 10 -1
v 4 4 4
v 5 3 10
v 8 9 19
v 5 2 19
v 12 -17 2
v 16 -13 -4
v 15 -12 -1
v 11 -11 1
v 6 -13 -1
v 6 -14 -4
v 11 -15 -4
v 16 -5 -4
v 10 -5 3
v 5 -5 1
v 4 -5 0
v 4 -5 -4
v 3 3 -4
v 8 9 -4
v -6 -2 -4
v 0 4 -4
v 5 -2 -4
v -13 3 10
v -8 8 11
v -8 8 5
v -14 4 4
v -9 -1 5
v -8 -1 11
v -8 -2 19
v -13 2 19
v -8 9 19
v -5 3 10
v -4 4 4
v -8 10 -1
v -16 3 -4
v -16 -5 0
v -15 -5 1
v -10 -5 3
v -5 -5 1
v -5 2 19
v -12 -17 2
v -15 -12 -1
v -16 -13 -4
v -11 -15 -4
v -6 -14 -4
v -6 -13 -1
v -11 -11 1
v -16 -5 -4
v -4 -5 -4
v -4 -5 0
v -3 3 -4
v -8 9 -4

f 1 2 3
f 1 3 4
f 1 4 5
f 1 5 6
f 1 6 7
f 1 7 8
f 1 8 2
f 2 8 9
f 2 9 10
f 2 10 11
f 2 11 12
f 2 12 3
f 3 12 13
f 3 13 4
f 4 13 14
f 4 14 15
f 4 15 5
f 14 13 8
f 14 8 7
f 14 7 16
f 14 16 15
f 17 18 19
f 17 19 20
f 17 20 21
f 17 21 22
f 17 22 23
f 17 23 18
f 18 23 24
f 18 24 10
f 18 10 19
f 19 10 9
f 19 9 25
f 19 25 20
f 20 25 21
f 21 25 26
f 21 26 27
f 21 27 22
f 22 27 28
f 22 28 23
f 23 28 24
f 24 28 29
f 24 29 11
f 24 11 10
f 29 28 27
f 29 27 13
f 29 13 12
f 29 12 30
f 29 30 11
f 11 30 12
f 9 8 25
f 25 8 26
f 26 8 13
f 26 13 27
f 7 6 16
f 31 32 33
f 34 35 36
f 34 36 37
f 34 37 38
f 34 38 39
f 34 39 40
f 34 40 41
f 34 41 35
f 35 41 42
f 35 42 43
f 35 43 44
f 35 44 36
f 36 44 45
f 36 45 37
f 37 45 46
f 37 46 47
f 37 47 48
f 37 48 38
f 38 48 49
f 38 49 50
f 38 50 44
f 38 44 43
f 38 43 39
f 39 43 51
f 39 51 40
f 52 53 54
f 52 54 55
f 52 55 56
f 52 56 57
f 52 57 58
f 52 58 53
f 53 58 49
f 53 49 48
f 53 48 47
f 53 47 54
f 54 47 59
f 54 59 55
f 55 59 60
f 55 60 56
f 56 60 61
f 56 61 57
f 57 61 50
f 57 50 49
f 57 49 58
f 46 59 47
f 59 46 62
f 59 62 60
f 60 62 61
f 61 62 44
f 61 44 50
f 63 45 62
f 63 62 46
f 63 46 45
f 45 44 62
f 43 42 51
