# RS2 Model 8942
# Vertices: 150
# Faces: 262

v 13 -2 129
v 10 -6 129
v 10 -6 126
v 15 -1 127
v 14 -1 132
v 12 -3 135
v 8 -7 135
v 8 -9 126
v 0 12 127
v 0 10 135
v 6 9 135
v 7 9 128
v 8 8 132
v 9 6 131
v 9 6 128
v 11 4 130
v 13 1 130
v 11 4 133
v 11 4 135
v 12 1 135
v 14 -1 135
v 11 -5 137
v 12 -6 140
v 9 -9 139
v 4 -10 139
v 5 -8 135
v 6 -9 130
v 3 -11 126
v 1 -11 130
v 0 -12 126
v 0 -10 135
v -1 -11 130
v -3 -11 126
v -6 -9 130
v -8 -9 126
v -8 -7 135
v -10 -6 129
v -10 -6 126
v -13 -2 129
v -15 -1 127
v -14 -1 132
v -13 1 130
v -11 4 130
v -9 6 128
v -9 6 131
v -7 9 128
v -8 8 132
v -6 9 135
v -7 8 140
v 0 11 140
v 7 8 140
v 14 0 141
v 11 3 137
v 9 6 135
v 2 -9 153
v 7 -9 153
v 4 -5 157
v 0 -9 153
v 4 -14 147
v 9 -10 151
v 13 -7 154
v 12 -2 158
v 4 -1 161
v 0 0 163
v 0 -5 158
v -4 -5 157
v -2 -9 153
v -4 -14 147
v 0 -14 147
v 0 -10 139
v 6 -12 143
v 9 -12 147
v 10 -11 149
v 11 -11 147
v 14 -5 146
v 15 2 146
v 15 -2 157
v 14 4 163
v 11 4 164
v 4 5 166
v 7 11 161
v 0 13 161
v 0 10 167
v 15 11 157
v 9 13 157
v 0 15 157
v -9 13 157
v -7 11 161
v -4 5 166
v -11 4 164
v -4 -1 161
v 14 -4 141
v 9 9 147
v 15 4 147
v 0 14 147
v -9 9 147
v 6 -6 121
v 12 0 124
v 12 -1 131
v 5 -5 130
v 0 -8 130
v 0 -8 121
v 0 -9 116
v 8 -7 117
v 14 2 119
v 8 10 119
v 6 7 123
v 6 6 131
v 0 8 130
v 0 9 123
v -6 7 123
v -6 6 131
v -12 -1 131
v -12 0 124
v -6 -6 121
v -5 -5 130
v -8 -7 117
v -14 2 119
v -8 10 119
v 0 12 119
v 1 -10 133
v -5 -8 135
v -1 -10 133
v -4 -10 139
v -9 -9 139
v -12 -6 140
v -11 -5 137
v -12 -3 135
v -7 -9 153
v -9 -10 151
v -10 -11 149
v -9 -12 147
v -6 -12 143
v -12 -2 158
v -13 -7 154
v -11 -11 147
v -15 11 157
v -14 4 163
v -15 4 147
v -15 2 146
v -15 -2 157
v -14 -5 146
v -14 -4 141
v -14 0 141
v -14 -1 135
v -11 3 137
v -12 1 135
v -9 6 135
v -11 4 135
v -11 4 133

f 1 2 3
f 1 3 4
f 1 4 5
f 1 5 6
f 1 6 7
f 1 7 2
f 2 7 8
f 2 8 3
f 9 10 11
f 9 11 12
f 12 11 13
f 12 13 14
f 12 14 15
f 15 14 16
f 15 16 4
f 4 16 17
f 4 17 5
f 5 17 18
f 5 18 19
f 5 19 20
f 5 20 21
f 5 21 6
f 6 21 22
f 6 22 7
f 7 22 23
f 7 23 24
f 7 24 25
f 7 25 26
f 7 26 27
f 7 27 8
f 8 27 28
f 28 27 29
f 28 29 30
f 30 29 31
f 30 31 32
f 30 32 33
f 33 32 34
f 33 34 35
f 35 34 36
f 35 36 37
f 35 37 38
f 38 37 39
f 38 39 40
f 40 39 41
f 40 41 42
f 40 42 43
f 40 43 44
f 44 43 45
f 44 45 46
f 46 45 47
f 46 47 48
f 46 48 9
f 9 48 10
f 10 48 49
f 10 49 50
f 10 50 51
f 10 51 11
f 11 51 52
f 11 52 53
f 11 53 54
f 11 54 13
f 13 54 14
f 14 54 19
f 14 19 18
f 14 18 16
f 16 18 17
f 55 56 57
f 55 57 58
f 55 58 59
f 55 59 60
f 55 60 56
f 56 60 61
f 56 61 57
f 57 61 62
f 57 62 63
f 57 63 64
f 57 64 65
f 57 65 58
f 58 65 66
f 58 66 67
f 58 67 68
f 58 68 69
f 58 69 59
f 59 69 70
f 59 70 25
f 59 25 71
f 59 71 72
f 59 72 73
f 59 73 60
f 60 73 61
f 61 73 74
f 61 74 75
f 61 75 76
f 61 76 77
f 61 77 62
f 62 77 78
f 62 78 79
f 62 79 63
f 63 79 80
f 63 80 64
f 81 82 83
f 81 83 80
f 81 80 79
f 81 79 78
f 81 78 84
f 81 84 85
f 81 85 82
f 82 85 86
f 82 86 87
f 82 87 88
f 82 88 83
f 83 88 89
f 89 88 90
f 89 90 91
f 89 91 64
f 64 91 66
f 64 66 65
f 72 71 24
f 72 24 74
f 72 74 73
f 24 23 74
f 74 23 92
f 74 92 75
f 75 92 52
f 75 52 76
f 76 52 51
f 76 51 93
f 76 93 94
f 76 94 77
f 24 71 25
f 92 21 52
f 52 21 53
f 53 21 20
f 53 20 19
f 53 19 54
f 95 86 85
f 95 85 93
f 95 93 51
f 95 51 50
f 95 50 49
f 95 49 96
f 95 96 87
f 95 87 86
f 93 85 84
f 93 84 94
f 97 98 99
f 97 99 100
f 97 100 101
f 97 101 102
f 97 102 103
f 97 103 104
f 97 104 98
f 98 104 105
f 98 105 106
f 98 106 107
f 98 107 99
f 99 107 108
f 108 107 109
f 109 107 110
f 109 110 111
f 109 111 112
f 112 111 113
f 113 111 114
f 113 114 115
f 113 115 116
f 116 115 101
f 101 115 102
f 102 115 103
f 103 115 117
f 117 115 114
f 117 114 118
f 118 114 119
f 119 114 111
f 119 111 120
f 120 111 110
f 120 110 107
f 120 107 106
f 27 26 121
f 27 121 29
f 29 121 31
f 31 121 26
f 31 26 70
f 31 70 122
f 31 122 123
f 31 123 32
f 32 123 34
f 34 123 122
f 34 122 36
f 36 122 124
f 36 124 125
f 36 125 126
f 36 126 127
f 36 127 128
f 36 128 39
f 36 39 37
f 22 21 92
f 22 92 23
f 67 66 129
f 67 129 130
f 67 130 68
f 68 130 131
f 68 131 132
f 68 132 133
f 68 133 124
f 68 124 70
f 68 70 69
f 91 90 134
f 91 134 66
f 66 134 135
f 66 135 129
f 129 135 130
f 130 135 131
f 131 135 136
f 131 136 132
f 132 136 125
f 132 125 133
f 133 125 124
f 137 138 88
f 137 88 87
f 137 87 96
f 137 96 139
f 139 96 140
f 139 140 141
f 141 140 135
f 141 135 134
f 141 134 138
f 138 134 90
f 138 90 88
f 136 135 142
f 136 142 143
f 136 143 126
f 136 126 125
f 140 142 135
f 142 140 144
f 142 144 143
f 143 144 145
f 143 145 127
f 143 127 126
f 49 140 96
f 140 49 144
f 144 49 48
f 144 48 146
f 144 146 145
f 145 146 147
f 145 147 41
f 145 41 128
f 145 128 127
f 124 122 70
f 128 41 39
f 148 47 45
f 148 45 149
f 148 149 146
f 148 146 48
f 148 48 47
f 150 149 45
f 150 45 43
f 150 43 42
f 150 42 41
f 150 41 149
f 149 41 147
f 149 147 146
f 25 70 26
