# RS2 Model 8978
# Vertices: 65
# Faces: 75

v 1 -3 18
v -1 -3 18
v 0 -7 18
v -2 -11 18
v -2 -8 18
v -4 -8 18
v -4 -11 18
v 4 -11 18
v 4 -8 18
v 2 -8 18
v 2 -11 18
v -20 -6 8
v -15 -15 8
v -12 -12 16
v -15 -5 16
v -20 6 8
v -20 6 0
v -20 -6 0
v -15 -15 0
v -6 -20 8
v -5 -15 16
v 5 -15 16
v 13 -11 16
v 16 -5 16
v 16 5 16
v 12 12 16
v 5 15 16
v -5 15 16
v -12 12 16
v -15 5 16
v -15 15 8
v -15 15 0
v 6 -20 8
v 16 -14 8
v 20 -6 8
v 20 6 8
v 15 15 8
v 6 20 8
v -6 20 8
v -6 -20 0
v 6 -20 0
v 16 -14 0
v 20 -6 0
v 20 6 0
v 15 15 0
v 6 20 0
v -6 20 0
v 9 10 17
v 7 14 17
v -11 2 17
v -9 0 17
v -3 -14 17
v 3 -14 17
v 7 -10 17
v 7 -6 17
v 3 -4 17
v -3 -4 17
v -7 -6 17
v -7 -10 17
v 5 0 17
v -5 0 17
v 9 0 17
v 11 2 17
v -7 14 17
v -9 10 17

f 1 2 3
f 4 5 6
f 4 6 7
f 8 9 10
f 8 10 11
f 12 13 14
f 12 14 15
f 12 15 16
f 12 16 17
f 12 17 18
f 12 18 13
f 13 18 19
f 13 19 20
f 13 20 21
f 13 21 14
f 14 21 15
f 15 21 22
f 15 22 23
f 15 23 24
f 15 24 25
f 15 25 26
f 15 26 27
f 15 27 28
f 15 28 29
f 15 29 30
f 15 30 16
f 16 30 31
f 16 31 32
f 16 32 17
f 20 33 22
f 20 22 21
f 33 34 23
f 33 23 22
f 34 35 24
f 34 24 23
f 35 36 25
f 35 25 24
f 36 37 26
f 36 26 25
f 37 38 27
f 37 27 26
f 38 39 28
f 38 28 27
f 39 31 29
f 39 29 28
f 31 30 29
f 19 40 20
f 20 40 33
f 33 40 41
f 33 41 34
f 34 41 42
f 34 42 35
f 35 42 43
f 35 43 36
f 36 43 44
f 36 44 37
f 37 44 45
f 37 45 38
f 38 45 46
f 38 46 39
f 39 46 47
f 39 47 31
f 31 47 32
f 48 49 50
f 48 50 51
f 52 53 54
f 52 54 55
f 52 55 56
f 52 56 57
f 52 57 58
f 52 58 59
f 56 60 61
f 56 61 57
f 62 63 64
f 62 64 65
