# RS2 Model 8994
# Vertices: 62
# Faces: 66

v -17 -21 8
v -24 -47 7
v -6 -49 9
v -6 -23 10
v -11 -1 9
v -21 -20 7
v -28 -46 6
v -28 -47 4
v -23 -19 4
v -15 1 7
v -17 2 5
v -16 6 5
v -14 5 7
v -10 2 9
v -6 1 9
v -6 5 9
v 24 -47 7
v 28 -46 6
v 21 -20 7
v 17 -21 8
v 6 -49 9
v 6 -23 10
v 11 -1 9
v 6 1 9
v 6 5 9
v 10 2 9
v 15 1 7
v 14 5 7
v 17 2 5
v 16 6 5
v 28 -47 4
v 23 -19 4
v -17 51 7
v -18 32 1
v -18 32 7
v -13 46 9
v -7 53 3
v -7 52 7
v -6 41 9
v 0 43 9
v 7 52 7
v 6 41 9
v 13 46 9
v 7 53 3
v 17 51 7
v 17 51 3
v 18 32 7
v 18 32 1
v 17 5 5
v 15 4 7
v 11 2 9
v 6 4 9
v -6 4 9
v -11 2 9
v -15 4 7
v -17 5 5
v 23 61 4
v -26 61 4
v 26 3 10
v 21 56 0
v -21 56 0
v 21 -49 14

f 1 2 3
f 1 3 4
f 1 4 5
f 1 5 6
f 1 6 2
f 2 6 7
f 7 6 8
f 8 6 9
f 9 6 10
f 9 10 11
f 11 10 12
f 12 10 13
f 13 10 5
f 13 5 14
f 14 5 15
f 14 15 16
f 17 18 19
f 17 19 20
f 17 20 21
f 21 20 22
f 22 20 23
f 22 23 24
f 24 23 25
f 25 23 26
f 26 23 27
f 26 27 28
f 28 27 29
f 28 29 30
f 18 31 19
f 19 31 32
f 19 32 27
f 19 27 23
f 19 23 20
f 5 4 15
f 5 10 6
f 32 29 27
f 33 34 35
f 33 35 36
f 33 36 37
f 37 36 38
f 38 36 39
f 38 39 40
f 38 40 41
f 41 40 42
f 41 42 43
f 41 43 44
f 44 43 45
f 44 45 46
f 46 45 47
f 46 47 48
f 48 47 49
f 49 47 50
f 50 47 51
f 51 47 43
f 51 43 42
f 51 42 52
f 52 42 53
f 53 42 39
f 53 39 54
f 54 39 36
f 54 36 35
f 54 35 55
f 55 35 56
f 56 35 34
f 45 43 47
f 39 42 40
