# RS2 Model 9000
# Vertices: 69
# Faces: 94

v -64 -44 221
v -56 -44 221
v -56 64 221
v -64 64 221
v -64 64 213
v -56 64 213
v -56 -44 213
v -64 -44 213
v -57 -47 220
v -57 -47 214
v -57 -43 214
v -57 -43 220
v -63 -47 220
v -63 -43 220
v -63 -47 214
v -63 -43 214
v -54 -52 225
v -54 -52 209
v -55 -47 211
v -55 -47 223
v -66 -52 225
v -60 -67 217
v -66 -52 209
v -65 -47 211
v -65 -47 223
v -60 -46 49
v -60 -41 54
v -60 -38 100
v -60 -41 100
v -60 -38 163
v -60 -41 163
v -60 -43 211
v -60 -40 205
v -60 -9 201
v -60 -10 197
v -60 64 189
v -60 64 193
v -60 64 128
v -60 53 120
v -60 53 104
v -60 64 96
v -60 49 80
v -60 64 88
v -60 42 68
v -60 64 76
v -60 34 56
v -60 64 60
v -60 31 52
v -60 64 42
v -60 -9 46
v -60 64 36
v -60 -7 40
v -60 49 144
v -60 46 124
v -60 19 112
v -60 34 112
v -60 46 100
v -60 42 156
v -60 34 132
v -60 4 112
v -60 38 96
v -60 64 136
v -60 31 172
v -60 16 144
v -60 -18 112
v -60 16 84
v -60 64 148
v -60 23 184
v -60 64 168

f 1 2 3
f 1 3 4
f 4 3 5
f 5 3 6
f 5 6 7
f 5 7 8
f 2 7 6
f 2 6 3
f 9 10 11
f 9 11 12
f 9 12 13
f 13 12 14
f 10 15 16
f 10 16 11
f 17 18 19
f 17 19 20
f 17 20 21
f 17 21 22
f 17 22 18
f 18 22 23
f 18 23 24
f 18 24 19
f 19 24 25
f 19 25 20
f 20 25 21
f 21 23 22
f 26 27 28
f 26 28 29
f 29 28 30
f 29 30 31
f 31 30 32
f 32 30 33
f 32 33 34
f 34 33 35
f 34 35 36
f 34 36 37
f 38 39 40
f 38 40 41
f 41 40 42
f 41 42 43
f 43 42 44
f 43 44 45
f 45 44 46
f 45 46 47
f 47 46 48
f 47 48 49
f 49 48 50
f 49 50 51
f 51 50 52
f 52 50 27
f 52 27 26
f 38 53 39
f 39 53 54
f 39 54 55
f 39 55 56
f 39 56 40
f 40 56 55
f 40 55 57
f 40 57 44
f 40 44 42
f 53 58 54
f 54 58 59
f 54 59 60
f 54 60 55
f 55 60 61
f 55 61 57
f 57 61 46
f 57 46 44
f 58 53 38
f 58 38 62
f 58 62 63
f 58 63 59
f 59 63 64
f 59 64 65
f 59 65 60
f 60 65 66
f 60 66 61
f 61 66 48
f 61 48 46
f 62 67 63
f 63 67 68
f 63 68 64
f 64 68 35
f 64 35 30
f 64 30 65
f 65 30 28
f 65 28 66
f 66 28 50
f 66 50 48
f 68 67 69
f 68 69 36
f 68 36 35
f 33 30 35
f 28 27 50
