# RS2 Model 9015
# Vertices: 179
# Faces: 299

v 68 8 -58
v 40 44 30
v 40 8 14
v 68 -12 -34
v 52 -24 -78
v 52 -32 -78
v 40 -28 -110
v 24 -32 -78
v 24 -28 -118
v 24 -24 -78
v 16 -11 -33
v 16 -8 -54
v 68 40 -58
v 0 72 -66
v -40 44 30
v 0 32 58
v 20 8 70
v 40 0 54
v 40 4 22
v 44 4 22
v 44 8 14
v 39 -4 -2
v -40 8 14
v -68 8 -58
v -68 -12 -34
v -39 -4 -2
v -44 8 14
v -44 4 22
v -40 4 22
v -40 0 54
v -20 8 70
v 0 8 72
v 8 -40 58
v 28 -42 50
v 38 -24 26
v 40 -8 18
v 44 -8 18
v 40 -8 10
v 40 -12 2
v 26 -33 -13
v 6 -37 -31
v -7 -37 -31
v -16 -11 -33
v -3 -14 -54
v 3 -14 -54
v 22 2 -54
v -68 40 -58
v -40 -12 2
v -40 -8 10
v -44 -8 18
v -40 -8 18
v -38 -24 26
v -28 -42 50
v -8 -40 58
v 0 -48 46
v 16 -50 38
v 26 -48 36
v 32 -44 30
v 26 -37 23
v 32 -40 6
v 40 -16 10
v -52 -24 -78
v -52 -32 -78
v -16 -8 -54
v -24 -32 -78
v -24 -24 -78
v -24 -28 -118
v -40 -28 -110
v -10 -42 -14
v -9 -41 -15
v 0 -41 -16
v -3 -44 -13
v -3 -44 -11
v -8 -44 -2
v -26 -33 -13
v -13 -41 -14
v -9 -42 -17
v 0 -43 -19
v 9 -42 -17
v 9 -41 -15
v 10 -42 -14
v 3 -44 -13
v 3 -44 -11
v 4 -44 -2
v -4 -44 -2
v -7 -47 -2
v -9 -47 2
v -9 -44 2
v -16 -44 14
v -32 -40 6
v -40 -16 10
v 13 -41 -14
v 8 -44 -2
v -27 -37 23
v -32 -44 30
v -26 -48 36
v -16 -50 38
v -22 -44 21
v -21 -44 23
v -13 -44 30
v -16 -50 36
v -26 -48 35
v -7 -50 35
v -4 -50 36
v -6 -50 37
v 0 -48 29
v 4 -50 36
v 6 -50 37
v 16 -50 36
v 26 -48 35
v 13 -44 30
v 21 -44 23
v 22 -44 21
v 16 -44 14
v 7 -50 35
v 7 -44 24
v 14 -46 26
v 15 -46 19
v 6 -44 22
v 2 -44 22
v 6 -44 5
v 9 -44 2
v 8 -47 -2
v -7 -44 24
v -2 -44 22
v 0 -48 22
v -15 -46 19
v -14 -46 26
v -6 -44 22
v -6 -44 5
v -6 -47 5
v 0 -50 12
v 6 -47 5
v 9 -47 2
v 7 -50 -2
v 1 -52 -2
v 3 -54 0
v -1 -52 -2
v -1 -49 -2
v 1 -49 -2
v -12 -48 22
v 12 -48 22
v -6 -50 -2
v -7 -50 2
v -1 -55 5
v -3 -54 0
v 1 -55 5
v 8 -50 2
v -13 -46 24
v -15 -46 24
v -16 -46 23
v -16 -46 21
v -15 -46 20
v -13 -46 20
v -12 -46 21
v -12 -46 23
v -13 -46 25
v -15 -46 25
v -17 -46 23
v -17 -46 21
v -13 -46 19
v -11 -46 21
v -11 -46 23
v 11 -46 23
v 11 -46 21
v 13 -46 19
v 17 -46 21
v 17 -46 23
v 15 -46 25
v 13 -46 25
v 12 -46 23
v 12 -46 21
v 13 -46 20
v 15 -46 20
v 16 -46 21
v 16 -46 23
v 15 -46 24
v 13 -46 24
v -21 2 -54

f 1 2 3
f 1 3 4
f 1 4 5
f 5 4 6
f 5 6 7
f 7 6 8
f 7 8 9
f 9 8 10
f 10 8 11
f 10 11 12
f 1 13 2
f 2 13 14
f 2 14 15
f 2 15 16
f 2 16 17
f 2 17 18
f 2 18 19
f 2 19 3
f 3 19 20
f 3 20 21
f 3 21 22
f 3 22 4
f 4 22 11
f 4 11 8
f 4 8 6
f 23 15 24
f 23 24 25
f 23 25 26
f 23 26 27
f 23 27 28
f 23 28 29
f 23 29 15
f 15 29 30
f 15 30 31
f 15 31 16
f 16 31 32
f 16 32 17
f 17 32 33
f 17 33 34
f 17 34 18
f 18 34 35
f 18 35 36
f 18 36 19
f 19 36 37
f 19 37 20
f 20 37 21
f 21 37 38
f 21 38 39
f 21 39 22
f 22 39 11
f 11 39 40
f 11 40 41
f 11 41 42
f 11 42 43
f 11 43 44
f 11 44 45
f 11 45 46
f 15 47 24
f 47 15 14
f 25 43 26
f 26 43 48
f 26 48 27
f 27 48 49
f 27 49 50
f 27 50 28
f 28 50 29
f 29 50 51
f 29 51 30
f 30 51 52
f 30 52 53
f 30 53 31
f 31 53 54
f 31 54 32
f 32 54 33
f 33 54 55
f 33 55 34
f 34 55 56
f 34 56 57
f 34 57 58
f 34 58 35
f 35 58 59
f 35 59 60
f 35 60 61
f 35 61 36
f 36 61 38
f 36 38 37
f 62 63 25
f 62 25 24
f 64 43 65
f 64 65 66
f 66 65 67
f 67 65 63
f 67 63 68
f 68 63 62
f 63 65 43
f 63 43 25
f 69 70 71
f 69 71 72
f 69 72 73
f 69 73 74
f 69 74 75
f 69 75 76
f 69 76 70
f 70 76 77
f 70 77 71
f 71 77 78
f 71 78 79
f 71 79 80
f 71 80 81
f 71 81 82
f 71 82 72
f 72 82 83
f 72 83 73
f 73 83 84
f 73 84 85
f 73 85 74
f 74 85 86
f 74 86 87
f 74 87 88
f 74 88 89
f 74 89 90
f 74 90 75
f 75 90 91
f 75 91 48
f 75 48 43
f 75 43 42
f 75 42 77
f 75 77 76
f 92 81 80
f 92 80 79
f 92 79 40
f 92 40 81
f 81 40 93
f 81 93 83
f 81 83 82
f 52 94 95
f 52 95 53
f 53 95 96
f 53 96 97
f 53 97 55
f 53 55 54
f 94 52 90
f 94 90 98
f 94 98 99
f 94 99 95
f 95 99 100
f 95 100 101
f 95 101 102
f 95 102 96
f 96 102 101
f 96 101 97
f 97 101 103
f 97 103 104
f 97 104 105
f 97 105 55
f 55 105 104
f 55 104 106
f 55 106 107
f 55 107 108
f 55 108 56
f 56 108 109
f 56 109 110
f 56 110 57
f 57 110 58
f 58 110 109
f 58 109 111
f 58 111 112
f 58 112 59
f 59 112 113
f 59 113 60
f 60 113 114
f 60 114 93
f 60 93 40
f 60 40 61
f 61 40 39
f 61 39 38
f 91 90 52
f 91 52 51
f 91 51 49
f 91 49 48
f 51 50 49
f 108 107 115
f 108 115 109
f 109 115 111
f 111 115 106
f 111 106 116
f 111 116 117
f 111 117 112
f 112 117 113
f 113 117 118
f 113 118 114
f 114 118 119
f 114 119 120
f 114 120 121
f 114 121 122
f 114 122 93
f 93 122 123
f 93 123 84
f 93 84 83
f 106 104 103
f 106 103 100
f 106 100 124
f 106 124 125
f 106 125 126
f 106 126 120
f 106 120 116
f 116 120 119
f 116 119 118
f 116 118 117
f 106 115 107
f 99 98 127
f 99 127 128
f 99 128 100
f 100 128 124
f 124 128 129
f 124 129 125
f 125 129 89
f 125 89 130
f 125 130 131
f 125 131 132
f 125 132 126
f 126 132 120
f 120 132 133
f 120 133 121
f 121 133 134
f 121 134 122
f 122 134 123
f 123 134 135
f 123 135 136
f 136 135 137
f 136 137 138
f 136 138 139
f 136 139 140
f 140 139 85
f 140 85 84
f 128 127 129
f 129 127 89
f 89 127 98
f 89 98 90
f 128 99 141
f 128 141 124
f 124 141 129
f 99 98 141
f 142 112 117
f 142 117 116
f 142 116 119
f 142 113 112
f 86 138 143
f 86 143 87
f 87 143 144
f 87 144 145
f 87 145 131
f 87 131 88
f 88 131 130
f 88 130 89
f 138 137 146
f 138 146 143
f 143 146 144
f 144 146 145
f 145 146 147
f 145 147 132
f 145 132 131
f 146 137 147
f 147 137 148
f 147 148 133
f 147 133 132
f 134 148 135
f 135 148 137
f 133 148 134
f 103 101 100
f 42 78 77
f 78 42 41
f 78 41 79
f 79 41 40
f 149 150 151
f 149 151 152
f 149 152 153
f 149 153 154
f 149 154 155
f 149 155 156
f 157 158 159
f 157 159 160
f 157 160 127
f 157 127 161
f 157 161 162
f 157 162 163
f 164 165 166
f 164 166 118
f 164 118 167
f 164 167 168
f 164 168 169
f 164 169 170
f 171 172 173
f 171 173 174
f 171 174 175
f 171 175 176
f 171 176 177
f 171 177 178
f 43 179 44
