# RS2 Model 9179
# Vertices: 124
# Faces: 172

v -58 -51 10
v -58 -58 17
v -58 -58 29
v -58 -42 10
v -55 -58 29
v -55 -42 10
v -55 -58 17
v -55 -51 10
v -58 42 17
v -58 -58 120
v -58 -58 133
v -58 42 29
v -58 35 10
v -62 35 10
v -62 42 17
v -58 42 68
v -58 -58 171
v -58 -58 183
v -58 42 81
v -58 -9 10
v -62 -9 10
v -62 42 68
v -62 -22 10
v -62 42 81
v -58 -22 10
v -58 42 171
v -58 -35 262
v -58 -24 262
v -58 42 183
v -58 -58 68
v -62 -58 68
v -62 42 171
v -62 -58 81
v -62 42 183
v -58 -58 81
v -58 -7 10
v -55 -7 10
v -55 -58 68
v -55 7 10
v -55 -58 81
v -58 7 10
v -58 42 223
v -58 8 262
v -58 19 262
v -58 42 236
v -62 -58 120
v -62 42 223
v -62 -58 133
v -62 42 236
v -58 42 120
v -58 -58 236
v -58 42 133
v -62 -58 17
v -62 42 120
v -62 -58 29
v -62 42 133
v -58 -58 223
v -62 -35 262
v -62 -58 236
v -62 -24 262
v -62 -58 223
v -62 -58 171
v -62 19 262
v -62 -58 183
v -62 8 262
v -58 26 10
v -62 42 29
v -62 26 10
v -55 42 29
v -55 -58 133
v -55 -58 120
v -55 42 17
v -55 42 81
v -55 -58 183
v -55 -58 171
v -55 42 68
v -55 42 236
v -55 19 262
v -55 8 262
v -55 42 223
v -55 42 183
v -55 -24 262
v -55 -35 262
v -55 42 171
v -55 42 120
v -55 42 133
v -55 -58 236
v -55 -58 223
v -48 -8 267
v -48 9 265
v -48 13 277
v -48 -8 281
v -48 -25 265
v -64 -25 265
v -64 -8 267
v -64 9 265
v -48 28 258
v -48 32 271
v -64 32 271
v -64 13 277
v -64 -8 281
v -48 -29 277
v -48 -44 258
v -64 -44 258
v -64 -49 271
v -64 -29 277
v -64 28 258
v -47 42 251
v -47 48 262
v -64 48 262
v -62 43 251
v -48 -49 271
v -47 -58 251
v -64 -58 251
v -64 -64 262
v -47 -64 262
v -47 -64 0
v -47 -58 10
v -64 -58 10
v -64 -64 0
v -64 42 10
v -64 48 0
v -47 48 0
v -47 42 10

f 1 2 3
f 1 3 4
f 4 3 5
f 4 5 6
f 6 5 7
f 6 7 8
f 9 10 11
f 9 11 12
f 9 12 13
f 9 13 14
f 9 14 15
f 16 17 18
f 16 18 19
f 16 19 20
f 16 20 21
f 16 21 22
f 22 21 23
f 22 23 24
f 24 23 25
f 24 25 19
f 19 25 20
f 26 27 28
f 26 28 29
f 26 29 30
f 26 30 31
f 26 31 32
f 32 31 33
f 32 33 34
f 34 33 35
f 34 35 29
f 29 35 30
f 30 35 36
f 30 36 37
f 30 37 38
f 38 37 39
f 38 39 40
f 40 39 41
f 40 41 35
f 35 41 36
f 42 43 44
f 42 44 45
f 42 45 10
f 42 10 46
f 42 46 47
f 47 46 48
f 47 48 49
f 49 48 11
f 49 11 45
f 45 11 10
f 50 51 52
f 50 52 3
f 50 3 2
f 50 2 53
f 50 53 54
f 54 53 55
f 54 55 56
f 56 55 3
f 56 3 52
f 50 57 51
f 51 57 27
f 51 27 58
f 51 58 59
f 59 58 60
f 59 60 61
f 61 60 28
f 61 28 57
f 57 28 27
f 43 18 17
f 43 17 44
f 44 17 62
f 44 62 63
f 63 62 64
f 63 64 65
f 65 64 18
f 65 18 43
f 12 66 13
f 66 12 67
f 66 67 68
f 69 70 71
f 69 71 72
f 72 71 10
f 72 10 9
f 73 74 75
f 73 75 76
f 76 75 17
f 76 17 16
f 77 78 79
f 77 79 80
f 80 79 43
f 80 43 42
f 81 82 83
f 81 83 84
f 84 83 27
f 84 27 26
f 85 86 87
f 85 87 88
f 85 88 57
f 85 57 50
f 82 81 29
f 82 29 28
f 78 77 45
f 78 45 44
f 87 86 52
f 87 52 51
f 74 73 19
f 74 19 18
f 70 69 12
f 70 12 11
f 89 90 91
f 89 91 92
f 89 92 93
f 89 93 94
f 89 94 95
f 89 95 90
f 90 95 96
f 90 96 97
f 90 97 98
f 90 98 91
f 91 98 99
f 91 99 100
f 91 100 92
f 92 100 101
f 92 101 102
f 92 102 93
f 93 102 103
f 93 103 104
f 93 104 94
f 94 104 105
f 94 105 106
f 94 106 95
f 95 106 101
f 95 101 96
f 96 101 100
f 96 100 107
f 96 107 97
f 97 107 108
f 97 108 109
f 97 109 98
f 98 109 110
f 98 110 99
f 99 110 111
f 99 111 107
f 99 107 100
f 102 112 103
f 103 112 113
f 103 113 114
f 103 114 104
f 104 114 115
f 104 115 105
f 105 115 116
f 105 116 112
f 105 112 106
f 106 112 102
f 106 102 101
f 112 116 113
f 113 116 117
f 113 117 118
f 113 118 114
f 114 118 119
f 114 119 115
f 115 119 120
f 121 111 110
f 121 110 122
f 122 110 123
f 123 110 109
f 123 109 108
f 123 108 124
f 124 108 111
f 124 111 121
f 124 121 119
f 124 119 118
f 107 111 108
