# RS2 Model 9210
# Vertices: 590
# Faces: 1088

v 66 -135 279
v 68 -133 276
v 70 -135 278
v 68 -136 280
v 72 -122 292
v 66 -119 291
v 68 -117 281
v 75 -120 284
v 84 -105 287
v 74 -100 300
v 65 -94 294
v 74 -99 276
v 80 -98 266
v 96 -104 286
v 79 -94 305
v 65 -87 293
v 8 -52 275
v 15 -68 221
v 91 -75 265
v 104 -84 285
v 116 -112 313
v 97 -104 321
v 92 -77 296
v 81 -68 284
v 43 -42 260
v 50 -49 295
v 30 -60 301
v 10 -32 310
v -4 -32 313
v -5 -44 294
v -12 -26 276
v -14 -31 266
v -41 -64 297
v -19 -84 309
v -29 -100 287
v -5 -47 210
v 25 -91 190
v 49 -72 199
v 42 -50 229
v 98 -57 290
v 98 -62 289
v 114 -62 292
v 121 -96 310
v 142 -103 342
v 141 -116 341
v 102 -105 331
v 95 -91 339
v 91 -90 333
v 109 -90 316
v 113 -92 327
v 136 -101 348
v 169 -107 340
v 168 -106 335
v 167 -113 334
v 174 -122 363
v 175 -126 358
v 130 -112 352
v 102 -83 336
v 87 -69 338
v 82 -73 339
v 82 -74 335
v 99 -81 330
v 87 -70 334
v 44 -59 50
v 32 -8 36
v 31 -22 89
v 39 -63 83
v -2 -91 41
v 12 -106 43
v 44 -84 46
v 46 -64 0
v 58 -48 0
v 58 -49 32
v 53 -24 25
v 39 -3 0
v 39 7 0
v 36 20 36
v -19 0 63
v -7 -14 102
v 50 -56 128
v 25 -98 139
v 2 -85 91
v -44 -48 54
v -23 -106 30
v -5 -98 0
v 8 -108 0
v 30 -127 0
v 29 -124 25
v 46 -109 27
v 62 -108 15
v 64 -92 15
v 48 -84 0
v -29 -54 102
v -50 6 46
v -66 -39 36
v -54 -49 0
v -48 -83 29
v -51 -112 13
v -54 -144 9
v -47 -137 5
v -32 -108 0
v 1 -73 143
v 12 -44 138
v 44 -47 187
v 6 -71 174
v 16 -46 172
v 37 -19 217
v 39 -137 19
v 57 -127 23
v 50 -115 0
v 64 -110 0
v 83 -115 0
v 83 -112 9
v 80 -99 5
v 65 -99 0
v 64 -133 0
v 73 -147 19
v 79 -152 0
v 90 -159 8
v 93 -162 0
v 100 -183 2
v 101 -189 0
v 94 -189 0
v 93 -184 2
v 79 -169 8
v 83 -172 0
v 64 -154 15
v 66 -162 0
v 41 -148 0
v 79 -99 0
v 94 -108 4
v 96 -108 0
v 112 -117 1
v 113 -116 0
v 124 -120 0
v 122 -120 2
v 124 -122 0
v 113 -120 2
v 113 -120 0
v 96 -112 4
v 96 -115 0
v 92 -116 2
v 93 -117 0
v 93 -120 1
v 93 -122 0
v 96 -126 0
v 91 -124 4
v 96 -127 0
v 90 -126 0
v 4 36 43
v -20 7 0
v -51 11 0
v -79 9 0
v -78 6 19
v -83 -28 19
v -86 -28 0
v -75 -39 0
v 2 36 0
v -8 64 15
v -1 69 0
v -3 87 6
v 0 87 0
v -2 102 4
v -4 102 0
v -6 113 0
v -4 111 2
v -4 116 0
v 0 96 5
v 0 98 0
v 2 102 4
v 2 103 0
v 6 115 0
v 6 110 1
v 8 109 0
v 4 95 4
v 4 95 0
v 0 87 9
v 0 88 0
v 1 73 22
v 1 78 0
v 19 49 29
v 18 52 0
v 33 69 11
v 36 70 0
v 64 94 4
v 64 94 0
v 75 105 2
v 75 106 0
v 73 89 0
v 80 103 0
v 71 89 4
v 54 67 12
v 55 67 0
v 58 64 9
v 62 64 0
v 66 69 4
v 66 70 0
v 80 71 1
v 80 71 0
v 77 67 2
v 79 67 0
v 69 62 2
v 69 62 0
v 58 56 6
v 58 56 0
v 46 46 15
v 50 50 0
v 79 103 2
v -99 2 15
v -104 -21 15
v -104 -24 0
v -139 -26 4
v -140 -26 0
v -167 -7 2
v -167 -8 0
v -167 0 0
v -167 -1 2
v -132 -15 4
v -135 -11 0
v -101 6 0
v 2 -20 211
v 14 59 222
v 37 59 226
v 38 42 250
v 36 -7 256
v 55 -5 246
v 57 -14 227
v 60 -37 237
v -48 -81 279
v -64 -71 296
v -59 -59 310
v -53 -75 335
v -42 -87 340
v -16 -103 337
v -22 -119 325
v -57 -107 336
v -68 -94 330
v -77 -77 324
v -86 -55 345
v -87 -48 335
v -79 -45 341
v -64 -61 328
v -59 -73 351
v -47 -67 356
v -43 -63 349
v -33 -72 352
v -48 -87 360
v -41 -119 345
v -30 -106 347
v -14 -118 362
v -6 -120 359
v -9 -134 356
v -61 -85 390
v -71 -103 384
v -71 -77 386
v -80 -79 402
v -102 -106 431
v -106 -111 423
v -90 -94 392
v -84 -92 377
v 24 13 323
v 28 -2 333
v 40 -17 293
v 27 22 283
v 22 25 310
v 4 14 320
v 16 25 362
v 33 27 354
v 57 29 355
v 56 32 341
v 62 17 343
v 36 12 358
v 12 -10 334
v 24 -44 317
v 40 -35 310
v 59 -27 258
v 78 -12 264
v 76 4 255
v 86 0 242
v 88 -17 254
v 0 1 257
v -3 -3 323
v -2 21 303
v -2 20 291
v 8 26 283
v 1 44 250
v -18 -9 227
v -11 -2 253
v -18 -23 259
v -23 -30 230
v -45 -5 249
v -40 7 244
v -26 7 261
v -33 -5 266
v -49 16 287
v -58 17 277
v -55 24 275
v -45 23 283
v -53 36 307
v -58 32 312
v -64 28 288
v -65 24 296
v -66 23 289
v -81 33 291
v -79 37 291
v -77 33 295
v 0 65 253
v -2 85 258
v -1 99 239
v 22 121 260
v 31 76 260
v 25 71 266
v 26 52 266
v 8 54 264
v 6 65 263
v 23 102 276
v -2 102 274
v -34 113 275
v -37 103 273
v -38 111 255
v 0 121 256
v 19 133 273
v 41 136 283
v 43 126 277
v 11 166 299
v 8 155 309
v 19 116 287
v -7 164 299
v -5 188 294
v 0 187 294
v -5 160 307
v 8 172 312
v 13 173 308
v 13 169 314
v 49 118 289
v 47 128 294
v 67 142 279
v 62 147 275
v 64 143 271
v -24 -123 361
v -11 -124 378
v -6 -118 377
v 3 -124 377
v -1 -132 379
v -7 -120 397
v -11 -118 395
v -9 -116 394
v 6 -129 392
v 3 -122 391
v 7 -124 391
v -111 -107 420
v -109 -76 400
v -112 -83 387
v -107 -76 379
v -103 -67 392
v -141 -78 389
v -144 -86 388
v -142 -85 379
v -139 -78 379
v -109 -98 429
v -121 -103 442
v -119 -107 445
v -120 -118 428
v -118 -120 433
v -116 -119 429
v -125 -133 433
v -129 -131 432
v -128 -133 437
v 102 4 270
v 106 13 277
v 104 25 272
v 100 17 262
v 113 12 256
v 115 5 260
v 111 11 272
v 135 29 288
v 134 32 293
v 132 40 288
v 110 22 266
v 118 16 260
v 124 8 241
v 119 7 241
v 121 1 243
v 119 9 263
v 134 35 283
v 54 -19 0
v 69 -26 9
v 69 -28 0
v 87 -32 5
v 87 -32 0
v 102 -42 3
v 105 -42 0
v 101 -44 5
v 104 -44 0
v 91 -41 8
v 90 -43 0
v 71 -42 13
v 71 -44 0
v -80 -136 0
v -80 -134 1
v -82 -133 0
v -66 -116 2
v -66 -116 0
v -54 -102 12
v -54 -104 0
v -58 -76 0
v -66 -122 2
v -66 -122 0
v -51 -112 0
v -52 -179 1
v -53 -180 0
v -50 -182 0
v -54 -161 0
v -54 -161 4
v -57 -161 5
v -58 -159 0
v -58 -144 0
v -44 -139 0
v -11 10 339
v -10 0 354
v -9 -17 311
v -14 -21 318
v -12 -31 320
v -17 -39 310
v -14 -28 291
v -22 -28 309
v -28 -26 336
v -24 -23 338
v -23 -27 339
v -27 -31 337
v -19 2 344
v -25 9 361
v -22 19 371
v -16 4 368
v 22 5 366
v 29 21 396
v 27 34 393
v 23 53 400
v 19 51 382
v 28 51 380
v 41 37 389
v 60 21 356
v 90 26 342
v 91 37 340
v 90 38 331
v 96 26 337
v 44 22 392
v 36 29 428
v 27 27 431
v 26 36 432
v 32 56 398
v 18 85 400
v 9 82 403
v 8 82 393
v 15 84 392
v -27 -6 379
v -32 -5 375
v -28 13 371
v -37 24 402
v -34 31 404
v -21 11 375
v -28 0 383
v -42 -9 407
v -41 -14 406
v -44 -14 404
v -35 1 381
v -32 23 407
v 35 38 431
v 52 25 447
v 52 23 443
v 48 21 447
v 36 32 464
v 33 26 462
v 32 30 462
v -32 124 264
v -61 131 269
v -67 139 280
v -74 136 282
v -72 134 268
v -68 149 265
v -63 147 265
v -66 151 270
v -82 170 264
v -76 171 271
v -84 170 274
v 106 19 338
v 108 21 341
v 110 24 339
v 97 40 323
v 93 44 325
v 90 42 321
v -46 -9 406
v 124 3 243
v 69 139 276
v 78 154 254
v 77 156 258
v 72 159 257
v 72 157 254
v 12 106 386
v 10 108 390
v 6 107 388
v 1 99 387
v -2 98 393
v -1 96 387
v 50 -40 338
v 58 -51 332
v 44 -58 337
v 38 -44 342
v 49 -63 358
v 62 -68 369
v 66 -66 361
v 54 -68 350
v 45 -82 353
v 42 -81 360
v 55 -73 367
v 75 -91 358
v 81 -89 361
v 83 -84 357
v 58 -72 358
v 50 -87 359
v 44 -103 353
v 40 -99 350
v 37 -99 355
v 48 -86 364
v 77 -86 354
v 42 -103 357
v -41 -75 361
v -33 -60 378
v -38 -54 375
v -34 -49 372
v -27 -56 375
v -28 -48 393
v -32 -52 394
v -36 -47 392
v -33 -44 391
v 9 67 281
v 22 71 282
v 21 61 285
v 10 60 284
v 9 77 296
v 10 83 298
v 20 85 299
v 17 80 302
v 11 79 308
v 8 79 306
v 9 82 307
v 20 100 314
v 15 101 311
v 19 102 310
v 10 28 305
v 2 31 302
v -13 44 298
v -18 40 299
v -22 41 291
v 1 29 293
v 23 52 304
v 22 49 295
v 32 46 297
v 29 50 307
v 44 81 288
v 40 79 285
v 40 75 283
v 45 74 285
v -125 -108 443
v -5 189 300
v 172 -126 364
v -16 45 291
v -23 58 285
v -25 62 289
v -29 60 288
v -27 55 284
v -61 39 303
v -65 60 319
v -61 58 320
v -64 55 322
v -77 -51 344
v -79 -27 356
v -83 -27 358
v -95 -34 344
v -99 -39 345
v -100 -34 342
v -80 -24 354
v 105 -59 298
v 112 -40 293
v 107 -39 289
v 111 -42 283
v 117 -45 290
v 111 -25 265
v 112 -21 268
v 109 -22 267

f 1 2 3
f 1 3 4
f 1 4 5
f 1 5 6
f 1 6 2
f 2 6 7
f 2 7 3
f 3 7 8
f 3 8 4
f 4 8 5
f 5 8 9
f 5 9 10
f 5 10 6
f 6 10 11
f 6 11 7
f 7 11 12
f 7 12 8
f 8 12 9
f 9 12 13
f 9 13 14
f 9 14 10
f 10 14 15
f 10 15 11
f 11 15 16
f 11 16 12
f 12 16 13
f 13 16 17
f 13 17 18
f 13 18 19
f 13 19 20
f 13 20 14
f 14 20 21
f 14 21 22
f 14 22 15
f 15 22 23
f 15 23 16
f 16 23 24
f 16 24 25
f 16 25 17
f 17 25 26
f 17 26 27
f 17 27 28
f 17 28 29
f 17 29 30
f 17 30 31
f 17 31 32
f 17 32 33
f 17 33 34
f 17 34 18
f 18 34 35
f 18 35 36
f 18 36 37
f 18 37 38
f 18 38 39
f 18 39 19
f 19 39 24
f 19 24 40
f 19 40 41
f 19 41 20
f 20 41 42
f 20 42 23
f 20 23 43
f 20 43 21
f 21 43 44
f 21 44 45
f 21 45 46
f 21 46 22
f 22 46 47
f 22 47 48
f 22 48 49
f 22 49 23
f 23 49 43
f 43 49 50
f 43 50 44
f 44 50 51
f 44 51 52
f 44 52 53
f 44 53 45
f 45 53 54
f 45 54 51
f 45 51 55
f 45 55 56
f 45 56 57
f 45 57 46
f 46 57 51
f 46 51 50
f 46 50 58
f 46 58 47
f 47 58 59
f 47 59 60
f 47 60 48
f 48 60 61
f 48 61 62
f 48 62 49
f 49 62 50
f 50 62 58
f 58 62 63
f 58 63 59
f 59 63 60
f 60 63 61
f 61 63 62
f 64 65 66
f 64 66 67
f 64 67 68
f 64 68 69
f 64 69 70
f 64 70 71
f 64 71 72
f 64 72 73
f 64 73 65
f 65 73 74
f 65 74 75
f 65 75 76
f 65 76 77
f 65 77 78
f 65 78 79
f 65 79 66
f 66 79 80
f 66 80 67
f 67 80 81
f 67 81 82
f 67 82 68
f 68 82 83
f 68 83 84
f 68 84 85
f 68 85 86
f 68 86 69
f 69 86 87
f 69 87 88
f 69 88 70
f 70 88 89
f 70 89 90
f 70 90 91
f 70 91 92
f 70 92 71
f 82 93 83
f 83 93 78
f 83 78 94
f 83 94 95
f 83 95 96
f 83 96 97
f 83 97 84
f 84 97 98
f 84 98 99
f 84 99 100
f 84 100 101
f 84 101 85
f 93 79 78
f 79 93 102
f 79 102 103
f 79 103 80
f 80 103 104
f 80 104 38
f 80 38 81
f 81 38 37
f 81 37 102
f 81 102 93
f 81 93 82
f 37 105 102
f 102 105 103
f 103 105 106
f 103 106 104
f 104 106 107
f 104 107 39
f 104 39 38
f 89 88 108
f 89 108 109
f 89 109 110
f 89 110 111
f 89 111 90
f 90 111 112
f 90 112 113
f 90 113 91
f 91 113 114
f 91 114 115
f 91 115 92
f 109 116 110
f 116 109 117
f 116 117 118
f 118 117 119
f 118 119 120
f 120 119 121
f 120 121 122
f 122 121 123
f 123 121 124
f 123 124 125
f 123 125 126
f 126 125 127
f 126 127 128
f 128 127 108
f 128 108 129
f 129 108 88
f 129 88 87
f 109 108 127
f 109 127 117
f 117 127 125
f 117 125 119
f 119 125 124
f 119 124 121
f 114 130 115
f 130 114 131
f 130 131 132
f 132 131 133
f 132 133 134
f 134 133 135
f 135 133 136
f 135 136 137
f 137 136 138
f 137 138 139
f 139 138 140
f 139 140 141
f 141 140 142
f 141 142 143
f 143 142 144
f 143 144 145
f 145 144 146
f 146 144 147
f 146 147 148
f 148 147 149
f 149 147 113
f 149 113 112
f 114 113 140
f 114 140 131
f 131 140 138
f 131 138 133
f 133 138 136
f 140 113 142
f 142 113 147
f 142 147 144
f 77 150 78
f 78 150 151
f 78 151 152
f 78 152 94
f 94 152 153
f 94 153 154
f 94 154 95
f 95 154 155
f 95 155 156
f 95 156 157
f 95 157 96
f 150 158 151
f 158 150 159
f 158 159 160
f 160 159 161
f 160 161 162
f 162 161 163
f 162 163 164
f 164 163 165
f 165 163 166
f 165 166 167
f 167 166 168
f 167 168 169
f 169 168 170
f 169 170 171
f 171 170 172
f 172 170 173
f 172 173 174
f 174 173 175
f 174 175 176
f 176 175 177
f 176 177 178
f 178 177 179
f 178 179 180
f 180 179 181
f 180 181 182
f 182 181 183
f 182 183 184
f 184 183 185
f 184 185 186
f 186 185 187
f 186 187 188
f 186 188 189
f 189 188 190
f 189 190 191
f 189 191 192
f 189 192 193
f 193 192 194
f 193 194 195
f 195 194 196
f 195 196 197
f 197 196 198
f 197 198 199
f 199 198 200
f 199 200 201
f 201 200 202
f 201 202 203
f 203 202 204
f 203 204 205
f 205 204 206
f 205 206 207
f 207 206 77
f 207 77 76
f 150 77 206
f 150 206 181
f 150 181 179
f 150 179 159
f 159 179 177
f 159 177 161
f 161 177 168
f 161 168 163
f 163 168 166
f 181 206 192
f 181 192 183
f 183 192 191
f 183 191 185
f 185 191 208
f 185 208 187
f 187 208 190
f 187 190 188
f 168 177 175
f 168 175 170
f 170 175 173
f 192 206 204
f 192 204 194
f 194 204 202
f 194 202 196
f 196 202 200
f 196 200 198
f 155 154 209
f 155 209 210
f 155 210 156
f 156 210 211
f 211 210 212
f 211 212 213
f 213 212 214
f 213 214 215
f 215 214 216
f 216 214 217
f 216 217 218
f 216 218 219
f 219 218 209
f 219 209 220
f 220 209 154
f 220 154 153
f 210 209 218
f 210 218 212
f 212 218 217
f 212 217 214
f 106 221 107
f 107 221 222
f 107 222 223
f 107 223 224
f 107 224 225
f 107 225 226
f 107 226 227
f 107 227 39
f 39 227 228
f 39 228 25
f 39 25 24
f 105 36 221
f 105 221 106
f 36 105 37
f 32 36 229
f 32 229 33
f 33 229 230
f 33 230 231
f 33 231 232
f 33 232 34
f 34 232 233
f 34 233 234
f 34 234 35
f 35 234 235
f 35 235 236
f 35 236 229
f 35 229 36
f 236 237 229
f 229 237 238
f 229 238 230
f 230 238 239
f 230 239 240
f 230 240 231
f 231 240 241
f 231 241 242
f 231 242 232
f 232 242 237
f 232 237 243
f 232 243 244
f 232 244 245
f 232 245 233
f 233 245 246
f 233 246 247
f 233 247 236
f 233 236 248
f 233 248 249
f 233 249 234
f 234 249 250
f 234 250 251
f 234 251 235
f 235 251 252
f 235 252 248
f 235 248 236
f 253 254 236
f 253 236 247
f 253 247 243
f 253 243 255
f 253 255 256
f 253 256 257
f 253 257 254
f 254 257 258
f 254 258 259
f 254 259 260
f 254 260 237
f 254 237 236
f 260 255 243
f 260 243 237
f 261 262 263
f 261 263 225
f 261 225 264
f 261 264 265
f 261 265 266
f 261 266 267
f 261 267 268
f 261 268 269
f 261 269 270
f 261 270 262
f 262 270 271
f 262 271 272
f 262 272 273
f 262 273 28
f 262 28 263
f 263 28 274
f 263 274 275
f 263 275 25
f 263 25 225
f 225 25 276
f 225 276 226
f 226 276 277
f 226 277 278
f 226 278 227
f 227 278 279
f 227 279 228
f 228 279 280
f 228 280 276
f 228 276 25
f 281 32 31
f 281 31 282
f 281 282 266
f 281 266 283
f 281 283 284
f 281 284 285
f 281 285 225
f 281 225 224
f 281 224 286
f 281 286 221
f 281 221 287
f 281 287 288
f 281 288 32
f 32 288 289
f 32 289 36
f 36 289 290
f 36 290 221
f 221 290 287
f 287 290 291
f 287 291 292
f 287 292 288
f 288 292 293
f 288 293 289
f 289 293 294
f 289 294 290
f 290 294 291
f 291 294 295
f 291 295 296
f 291 296 292
f 292 296 297
f 292 297 293
f 293 297 298
f 293 298 294
f 294 298 295
f 295 298 299
f 295 299 300
f 295 300 297
f 295 297 301
f 295 301 302
f 295 302 296
f 296 302 303
f 296 303 297
f 297 303 301
f 301 303 304
f 301 304 305
f 301 305 302
f 302 305 306
f 302 306 303
f 303 306 304
f 304 306 305
f 286 222 221
f 222 286 307
f 222 307 308
f 222 308 309
f 222 309 223
f 223 309 310
f 223 310 311
f 223 311 224
f 224 311 312
f 224 312 313
f 224 313 286
f 286 313 314
f 286 314 307
f 307 314 315
f 307 315 311
f 307 311 308
f 308 311 316
f 308 316 317
f 308 317 318
f 308 318 319
f 308 319 309
f 309 319 320
f 309 320 321
f 309 321 310
f 310 321 322
f 310 322 323
f 310 323 324
f 310 324 316
f 310 316 311
f 325 326 327
f 325 327 322
f 325 322 328
f 325 328 329
f 325 329 330
f 325 330 331
f 325 331 332
f 325 332 333
f 325 333 326
f 326 333 334
f 326 334 331
f 326 331 317
f 326 317 327
f 327 317 316
f 327 316 335
f 327 335 336
f 327 336 322
f 322 336 323
f 323 336 337
f 323 337 338
f 323 338 324
f 324 338 339
f 324 339 335
f 324 335 316
f 321 317 331
f 321 331 328
f 321 328 322
f 252 340 248
f 248 340 249
f 249 340 250
f 250 340 341
f 250 341 342
f 250 342 251
f 251 342 343
f 251 343 252
f 252 343 344
f 252 344 340
f 340 344 341
f 341 344 345
f 341 345 346
f 341 346 342
f 342 346 347
f 342 347 344
f 342 344 348
f 342 348 349
f 342 349 343
f 343 349 350
f 343 350 344
f 344 350 348
f 348 350 349
f 190 208 191
f 258 351 259
f 259 351 256
f 259 256 352
f 259 352 353
f 259 353 260
f 260 353 354
f 260 354 255
f 255 354 355
f 255 355 256
f 256 355 352
f 352 355 356
f 352 356 357
f 352 357 353
f 353 357 358
f 353 358 354
f 354 358 359
f 354 359 355
f 355 359 356
f 356 359 358
f 356 358 357
f 351 360 256
f 256 360 257
f 257 360 361
f 257 361 362
f 257 362 351
f 257 351 363
f 257 363 364
f 257 364 258
f 258 364 365
f 258 365 351
f 351 365 363
f 363 365 366
f 363 366 367
f 363 367 364
f 364 367 368
f 364 368 365
f 365 368 366
f 366 368 367
f 280 277 276
f 277 280 369
f 277 369 370
f 277 370 278
f 278 370 371
f 278 371 372
f 278 372 279
f 279 372 280
f 280 372 369
f 369 372 373
f 369 373 374
f 369 374 375
f 369 375 370
f 370 375 376
f 370 376 377
f 370 377 371
f 371 377 378
f 371 378 379
f 371 379 372
f 372 379 380
f 372 380 373
f 373 380 381
f 373 381 382
f 373 382 374
f 374 382 383
f 374 383 384
f 374 384 375
f 375 384 379
f 375 379 385
f 375 385 376
f 376 385 378
f 376 378 377
f 74 386 75
f 386 74 387
f 386 387 388
f 388 387 389
f 388 389 390
f 390 389 391
f 390 391 392
f 392 391 393
f 392 393 394
f 394 393 395
f 394 395 396
f 396 395 397
f 396 397 398
f 398 397 73
f 398 73 72
f 74 73 397
f 74 397 387
f 387 397 395
f 387 395 389
f 389 395 393
f 389 393 391
f 399 400 401
f 401 400 402
f 401 402 403
f 403 402 404
f 403 404 405
f 405 404 406
f 406 404 97
f 406 97 96
f 407 402 400
f 407 400 408
f 407 408 409
f 407 409 98
f 407 98 402
f 402 98 404
f 404 98 97
f 400 399 408
f 410 411 412
f 410 412 413
f 410 413 414
f 410 414 415
f 410 415 411
f 411 415 416
f 416 415 99
f 416 99 417
f 417 99 98
f 417 98 409
f 418 100 414
f 418 414 413
f 100 418 101
f 415 414 100
f 415 100 99
f 273 266 419
f 273 419 420
f 273 420 282
f 273 282 28
f 28 282 421
f 28 421 29
f 29 421 422
f 29 422 423
f 29 423 30
f 30 423 424
f 30 424 425
f 30 425 31
f 31 425 282
f 282 425 421
f 421 425 426
f 421 426 422
f 422 426 427
f 422 427 428
f 422 428 423
f 423 428 429
f 423 429 424
f 424 429 430
f 424 430 426
f 424 426 425
f 266 282 431
f 266 431 419
f 419 431 432
f 419 432 433
f 419 433 434
f 419 434 420
f 420 434 431
f 420 431 282
f 266 273 435
f 266 435 267
f 267 435 436
f 267 436 437
f 267 437 438
f 267 438 439
f 267 439 268
f 268 439 440
f 268 440 441
f 268 441 272
f 268 272 442
f 268 442 269
f 269 442 443
f 269 443 444
f 269 444 270
f 270 444 445
f 270 445 271
f 271 445 446
f 271 446 442
f 271 442 272
f 272 435 273
f 435 272 447
f 435 447 436
f 436 447 448
f 436 448 449
f 436 449 437
f 437 449 450
f 437 450 441
f 437 441 451
f 437 451 438
f 438 451 452
f 438 452 453
f 438 453 439
f 439 453 454
f 439 454 440
f 440 454 455
f 440 455 451
f 440 451 441
f 434 432 431
f 432 434 456
f 432 456 457
f 432 457 458
f 432 458 433
f 433 458 459
f 433 459 460
f 433 460 461
f 433 461 434
f 434 461 462
f 434 462 456
f 456 462 463
f 456 463 464
f 456 464 457
f 457 464 465
f 457 465 466
f 457 466 458
f 458 466 461
f 458 461 467
f 458 467 459
f 459 467 460
f 460 467 461
f 441 447 272
f 447 441 468
f 447 468 448
f 448 468 469
f 448 469 470
f 448 470 449
f 449 470 471
f 449 471 468
f 449 468 472
f 449 472 473
f 449 473 450
f 450 473 474
f 450 474 468
f 450 468 441
f 320 475 321
f 321 475 317
f 317 475 318
f 318 475 476
f 318 476 477
f 318 477 319
f 319 477 478
f 319 478 320
f 320 478 479
f 320 479 475
f 475 479 476
f 476 479 480
f 476 480 481
f 476 481 477
f 477 481 482
f 477 482 479
f 477 479 483
f 477 483 484
f 477 484 478
f 478 484 485
f 478 485 479
f 479 485 483
f 483 485 484
f 446 443 442
f 443 446 486
f 443 486 487
f 443 487 444
f 444 487 488
f 444 488 446
f 444 446 489
f 444 489 490
f 444 490 445
f 445 490 491
f 445 491 446
f 446 491 489
f 489 491 490
f 466 462 461
f 462 466 492
f 462 492 463
f 463 492 464
f 464 492 465
f 465 492 466
f 378 385 379
f 384 380 379
f 380 384 493
f 380 493 381
f 381 493 383
f 381 383 382
f 383 493 384
f 339 494 335
f 335 494 336
f 336 494 337
f 337 494 495
f 337 495 496
f 337 496 338
f 338 496 497
f 338 497 339
f 339 497 498
f 339 498 494
f 494 498 495
f 495 498 497
f 495 497 496
f 455 452 451
f 452 455 499
f 452 499 500
f 452 500 453
f 453 500 501
f 453 501 455
f 453 455 502
f 453 502 503
f 453 503 454
f 454 503 504
f 454 504 455
f 455 504 502
f 502 504 503
f 275 26 25
f 26 275 505
f 26 505 506
f 26 506 27
f 27 506 507
f 27 507 274
f 27 274 28
f 507 508 274
f 274 508 275
f 275 508 505
f 505 508 509
f 505 509 510
f 505 510 506
f 506 510 511
f 506 511 512
f 506 512 507
f 507 512 508
f 508 512 509
f 509 512 513
f 509 513 514
f 509 514 515
f 509 515 510
f 510 515 516
f 510 516 517
f 510 517 511
f 511 517 518
f 511 518 519
f 511 519 512
f 512 519 520
f 512 520 513
f 513 520 521
f 513 521 522
f 513 522 514
f 514 522 523
f 514 523 524
f 514 524 515
f 515 524 519
f 515 519 525
f 515 525 516
f 516 525 517
f 517 525 518
f 518 525 519
f 524 520 519
f 520 524 526
f 520 526 521
f 521 526 522
f 522 526 523
f 523 526 524
f 243 247 527
f 243 527 244
f 244 527 528
f 244 528 529
f 244 529 245
f 245 529 530
f 245 530 246
f 246 530 531
f 246 531 527
f 246 527 247
f 531 528 527
f 528 531 532
f 528 532 533
f 528 533 529
f 529 533 534
f 529 534 530
f 530 534 535
f 530 535 531
f 531 535 532
f 532 535 533
f 533 535 534
f 430 427 426
f 427 430 429
f 427 429 428
f 315 312 311
f 312 315 536
f 312 536 537
f 312 537 313
f 313 537 538
f 313 538 314
f 314 538 539
f 314 539 315
f 315 539 536
f 536 539 540
f 536 540 541
f 536 541 537
f 537 541 542
f 537 542 538
f 538 542 543
f 538 543 539
f 539 543 540
f 540 543 544
f 540 544 545
f 540 545 541
f 541 545 546
f 541 546 543
f 541 543 547
f 541 547 548
f 541 548 542
f 542 548 549
f 542 549 543
f 543 549 547
f 547 549 548
f 265 550 266
f 266 550 551
f 266 551 283
f 283 551 552
f 283 552 553
f 283 553 284
f 284 553 554
f 284 554 555
f 284 555 285
f 285 555 550
f 285 550 556
f 285 556 557
f 285 557 264
f 285 264 225
f 557 558 264
f 264 558 265
f 265 558 559
f 265 559 550
f 550 559 556
f 556 559 560
f 556 560 561
f 556 561 557
f 557 561 562
f 557 562 558
f 558 562 563
f 558 563 559
f 559 563 560
f 560 563 561
f 561 563 562
f 362 564 351
f 351 564 360
f 360 564 361
f 361 564 362
f 347 345 344
f 345 347 346
f 471 469 468
f 469 471 470
f 474 472 468
f 472 474 473
f 488 486 446
f 486 488 487
f 501 499 455
f 499 501 500
f 330 565 331
f 331 565 328
f 328 565 329
f 329 565 330
f 334 332 331
f 332 334 333
f 546 544 543
f 544 546 545
f 482 480 479
f 480 482 481
f 51 57 566
f 51 566 55
f 55 566 56
f 56 566 57
f 54 52 51
f 52 54 53
f 555 551 550
f 551 555 567
f 551 567 552
f 552 567 568
f 552 568 569
f 552 569 553
f 553 569 570
f 553 570 554
f 554 570 571
f 554 571 567
f 554 567 555
f 571 568 567
f 568 571 569
f 569 571 570
f 300 572 297
f 297 572 298
f 298 572 299
f 299 572 573
f 299 573 574
f 299 574 300
f 300 574 575
f 300 575 572
f 572 575 573
f 573 575 574
f 242 238 237
f 238 242 576
f 238 576 239
f 239 576 577
f 239 577 578
f 239 578 241
f 239 241 579
f 239 579 580
f 239 580 240
f 240 580 581
f 240 581 241
f 241 581 579
f 579 581 580
f 241 576 242
f 576 241 582
f 576 582 577
f 577 582 578
f 578 582 241
f 42 583 23
f 23 583 24
f 24 583 40
f 40 583 584
f 40 584 585
f 40 585 41
f 41 585 586
f 41 586 42
f 42 586 587
f 42 587 583
f 583 587 584
f 584 587 586
f 584 586 588
f 584 588 589
f 584 589 585
f 585 589 590
f 585 590 586
f 586 590 588
f 588 590 589
