# RS2 Model 9246
# Vertices: 154
# Faces: 264

v 0 -5 78
v 0 0 88
v -21 0 82
v 0 5 78
v 21 0 82
v 0 -5 159
v 0 0 169
v -21 0 163
v 0 5 159
v 21 0 163
v 0 -5 0
v 0 0 10
v -21 0 4
v 0 5 0
v 21 0 4
v 5 0 120
v 0 0 130
v 0 -21 124
v -5 0 120
v 0 21 124
v 5 0 201
v 0 0 211
v 0 -21 205
v -5 0 201
v 0 21 205
v 5 0 39
v 0 0 49
v 0 -21 43
v -5 0 39
v 0 21 43
v -5 5 240
v 0 14 240
v 0 14 228
v -5 5 229
v 5 5 240
v 5 5 257
v -5 5 257
v 0 14 259
v 5 5 229
v 5 5 218
v -5 5 218
v -14 0 220
v -5 -5 229
v 5 -5 229
v 0 -14 228
v 0 -14 240
v -5 -5 240
v 5 -5 240
v 5 -5 218
v 14 0 220
v 14 0 188
v 5 5 190
v 5 -5 190
v 5 -5 177
v 5 5 177
v 0 14 179
v -5 5 190
v -5 -5 190
v 0 -14 179
v 0 -14 147
v 5 -5 149
v -5 -5 177
v -5 -5 149
v -14 0 188
v -5 5 177
v 0 14 147
v -5 5 149
v 5 5 149
v 5 5 138
v -5 5 138
v -14 0 139
v 14 0 139
v 14 0 108
v 5 5 110
v 5 -5 138
v 5 -5 110
v -5 -5 138
v -14 0 108
v -5 -5 110
v -5 5 110
v -5 5 98
v -5 -5 98
v 0 -14 100
v 0 14 100
v 0 14 68
v -5 5 69
v 5 5 98
v 5 5 69
v 5 -5 98
v 0 -14 68
v 5 -5 69
v -5 -5 69
v -5 -5 58
v 5 -5 58
v 14 0 60
v -14 0 60
v -14 0 28
v -5 -5 30
v -5 5 58
v -5 5 30
v 5 5 58
v 14 0 28
v 5 5 30
v 5 -5 30
v 5 -5 17
v 5 5 17
v 0 14 19
v 0 -14 19
v 0 -14 0
v 5 -5 0
v -5 -5 17
v -5 -5 0
v -5 5 17
v 0 14 0
v -5 5 0
v 5 5 0
v 5 -5 257
v 0 -14 259
v -5 -5 257
v -5 -5 218
v 0 -5 240
v 0 0 250
v -21 0 244
v 0 5 240
v 21 0 244
v 5 0 279
v 0 0 289
v 0 -21 283
v -5 0 279
v 0 21 283
v -5 5 320
v 0 14 320
v 0 14 308
v -5 5 309
v 5 5 320
v 5 5 309
v 5 5 298
v -5 5 298
v -14 0 300
v -5 -5 309
v 5 -5 309
v 14 0 300
v 14 0 268
v 5 5 270
v 5 -5 298
v 5 -5 270
v 0 -14 308
v -5 -5 298
v -14 0 268
v -5 -5 270
v -5 5 270
v 0 -14 320
v -5 -5 320
v 5 -5 320

f 1 2 3
f 3 2 4
f 4 2 5
f 5 2 1
f 6 7 8
f 8 7 9
f 9 7 10
f 10 7 6
f 11 12 13
f 13 12 14
f 14 12 15
f 15 12 11
f 16 17 18
f 18 17 19
f 19 17 20
f 20 17 16
f 21 22 23
f 23 22 24
f 24 22 25
f 25 22 21
f 26 27 28
f 28 27 29
f 29 27 30
f 30 27 26
f 31 32 33
f 31 33 34
f 31 34 35
f 31 35 36
f 31 36 37
f 31 37 32
f 32 37 38
f 32 38 35
f 32 35 39
f 32 39 33
f 33 39 40
f 33 40 41
f 33 41 34
f 34 41 42
f 34 42 43
f 34 43 44
f 34 44 39
f 34 39 35
f 43 45 46
f 43 46 47
f 43 47 44
f 44 47 48
f 44 48 45
f 44 45 49
f 44 49 50
f 44 50 39
f 39 50 40
f 40 50 51
f 40 51 52
f 40 52 49
f 49 52 53
f 49 53 50
f 50 53 51
f 51 53 54
f 51 54 55
f 51 55 52
f 52 55 56
f 52 56 57
f 52 57 58
f 52 58 53
f 53 58 59
f 53 59 54
f 54 59 60
f 54 60 61
f 54 61 62
f 62 61 63
f 62 63 59
f 62 59 58
f 62 58 64
f 62 64 65
f 65 64 57
f 65 57 56
f 65 56 66
f 65 66 67
f 65 67 55
f 55 67 68
f 55 68 56
f 56 68 66
f 66 68 69
f 66 69 70
f 66 70 67
f 67 70 71
f 67 71 63
f 67 63 61
f 67 61 68
f 68 61 72
f 68 72 69
f 69 72 73
f 69 73 74
f 69 74 75
f 75 74 76
f 75 76 72
f 75 72 61
f 75 61 60
f 75 60 77
f 77 60 63
f 77 63 71
f 77 71 78
f 77 78 79
f 77 79 70
f 70 79 80
f 70 80 71
f 71 80 78
f 78 80 81
f 78 81 82
f 78 82 79
f 79 82 83
f 79 83 76
f 79 76 74
f 79 74 80
f 80 74 84
f 80 84 81
f 81 84 85
f 81 85 86
f 81 86 87
f 87 86 88
f 87 88 84
f 87 84 74
f 87 74 73
f 87 73 89
f 89 73 76
f 89 76 83
f 89 83 90
f 89 90 91
f 89 91 82
f 82 91 92
f 82 92 83
f 83 92 90
f 90 92 93
f 90 93 94
f 90 94 91
f 91 94 95
f 91 95 88
f 91 88 86
f 91 86 92
f 92 86 96
f 92 96 93
f 93 96 97
f 93 97 98
f 93 98 99
f 99 98 100
f 99 100 96
f 99 96 86
f 99 86 85
f 99 85 101
f 101 85 88
f 101 88 95
f 101 95 102
f 101 102 103
f 101 103 94
f 94 103 104
f 94 104 95
f 95 104 102
f 102 104 105
f 102 105 106
f 102 106 103
f 103 106 107
f 103 107 100
f 103 100 98
f 103 98 104
f 104 98 108
f 104 108 105
f 105 108 109
f 105 109 110
f 105 110 111
f 111 110 112
f 111 112 108
f 111 108 98
f 111 98 97
f 111 97 113
f 113 97 100
f 113 100 107
f 113 107 114
f 113 114 115
f 113 115 106
f 106 115 116
f 106 116 107
f 107 116 114
f 45 48 46
f 46 48 117
f 46 117 118
f 46 118 47
f 47 118 119
f 47 119 48
f 48 119 117
f 120 45 43
f 120 43 42
f 120 42 64
f 120 64 58
f 120 58 41
f 41 58 57
f 41 57 42
f 42 57 64
f 45 120 49
f 84 88 85
f 96 100 97
f 112 109 108
f 63 60 59
f 76 73 72
f 121 122 123
f 123 122 124
f 124 122 125
f 125 122 121
f 126 127 128
f 128 127 129
f 129 127 130
f 130 127 126
f 131 132 133
f 131 133 134
f 131 134 135
f 135 134 136
f 135 136 132
f 132 136 133
f 133 136 137
f 133 137 138
f 133 138 134
f 134 138 139
f 134 139 140
f 134 140 141
f 134 141 136
f 136 141 142
f 136 142 137
f 137 142 143
f 137 143 144
f 137 144 145
f 145 144 146
f 145 146 142
f 145 142 141
f 145 141 147
f 145 147 148
f 148 147 140
f 148 140 139
f 148 139 149
f 148 149 150
f 148 150 138
f 138 150 151
f 138 151 139
f 139 151 149
f 149 151 37
f 149 37 119
f 149 119 150
f 150 119 118
f 150 118 146
f 150 146 144
f 150 144 151
f 151 144 38
f 151 38 37
f 140 147 152
f 140 152 153
f 140 153 141
f 141 153 154
f 141 154 147
f 147 154 152
f 146 143 142
f 143 146 117
f 143 117 36
f 143 36 144
f 144 36 38
f 38 36 35
f 118 117 146
