# RS2 Model 9361
# Vertices: 93
# Faces: 154

v 0 -10 139
v 2 -15 146
v -2 -15 146
v -8 -9 139
v -8 -7 135
v 0 -9 135
v 8 -7 135
v 8 -9 139
v 11 -12 146
v 7 -11 152
v 0 -14 150
v -7 -11 152
v -11 -12 146
v -14 -4 141
v -13 -1 135
v -13 -1 131
v -8 -7 127
v 0 -9 125
v 8 -7 127
v 13 -1 131
v 13 -1 135
v 14 -4 141
v 14 -5 146
v 11 -7 154
v 12 -3 158
v 6 -7 156
v 0 -9 155
v -6 -7 156
v -12 -3 158
v -11 -7 154
v -14 -5 146
v -14 0 141
v -8 9 135
v -8 9 131
v -8 9 128
v -14 -1 126
v -8 -8 119
v 0 -11 116
v 8 -8 119
v 14 -1 126
v 8 9 128
v 8 9 131
v 8 9 135
v 14 0 141
v 15 2 145
v 15 -2 157
v 14 4 163
v 12 4 163
v 4 5 166
v 0 0 163
v -4 5 166
v -12 4 163
v -14 4 163
v -15 -2 157
v -15 2 145
v -8 9 140
v 0 10 135
v 0 10 130
v 0 11 125
v 8 9 140
v 9 10 147
v 15 4 147
v 0 10 167
v 0 13 161
v -7 11 161
v -11 7 162
v -15 11 157
v -9 13 157
v -9 10 147
v -15 4 147
v 0 15 157
v 0 14 147
v 0 11 140
v 9 13 157
v 15 11 157
v -13 -1 127
v -14 2 119
v -8 -7 117
v -5 -7 126
v 0 -8 125
v 0 -9 116
v 8 -7 117
v 5 -7 126
v 13 -1 127
v 14 2 119
v 8 10 119
v 8 8 128
v 0 10 127
v 0 12 119
v -8 10 119
v -8 8 128
v 7 11 161
v 11 7 162

f 1 2 3
f 1 3 4
f 1 4 5
f 1 5 6
f 1 6 7
f 1 7 8
f 1 8 2
f 2 8 9
f 2 9 10
f 2 10 11
f 2 11 3
f 3 11 12
f 3 12 13
f 3 13 4
f 4 13 14
f 4 14 15
f 4 15 5
f 5 15 16
f 5 16 17
f 5 17 6
f 6 17 18
f 6 18 19
f 6 19 7
f 7 19 20
f 7 20 21
f 7 21 8
f 8 21 22
f 8 22 9
f 9 22 23
f 9 23 24
f 9 24 10
f 10 24 25
f 10 25 26
f 10 26 27
f 10 27 11
f 11 27 12
f 12 27 28
f 12 28 29
f 12 29 30
f 12 30 13
f 13 30 31
f 13 31 14
f 14 31 32
f 14 32 15
f 15 32 33
f 15 33 34
f 15 34 16
f 16 34 35
f 16 35 36
f 16 36 17
f 17 36 37
f 17 37 18
f 18 37 38
f 18 38 39
f 18 39 19
f 19 39 40
f 19 40 20
f 20 40 41
f 20 41 42
f 20 42 21
f 21 42 43
f 21 43 44
f 21 44 22
f 22 44 23
f 23 44 45
f 23 45 24
f 24 45 46
f 24 46 25
f 25 46 47
f 25 47 48
f 25 48 49
f 25 49 50
f 25 50 26
f 26 50 27
f 27 50 28
f 28 50 29
f 29 50 51
f 29 51 52
f 29 52 53
f 29 53 54
f 29 54 30
f 30 54 55
f 30 55 31
f 31 55 32
f 32 55 56
f 32 56 33
f 33 56 57
f 33 57 34
f 34 57 58
f 34 58 35
f 35 58 59
f 59 58 41
f 41 58 42
f 42 58 57
f 42 57 43
f 43 57 60
f 43 60 44
f 44 60 45
f 45 60 61
f 45 61 62
f 45 62 46
f 63 64 65
f 63 65 51
f 51 65 66
f 51 66 52
f 52 66 53
f 53 66 67
f 67 66 68
f 67 68 69
f 67 69 70
f 70 69 55
f 70 55 54
f 65 64 71
f 65 71 68
f 65 68 66
f 68 71 72
f 68 72 69
f 69 72 56
f 69 56 55
f 56 72 73
f 56 73 57
f 57 73 60
f 60 73 72
f 60 72 61
f 61 72 74
f 61 74 75
f 61 75 62
f 76 77 78
f 76 78 79
f 79 78 80
f 80 78 81
f 80 81 82
f 80 82 83
f 83 82 84
f 84 82 85
f 84 85 86
f 84 86 87
f 87 86 88
f 88 86 89
f 88 89 90
f 88 90 91
f 91 90 76
f 76 90 77
f 63 92 64
f 64 92 71
f 71 92 74
f 71 74 72
f 63 49 92
f 92 49 93
f 92 93 74
f 74 93 75
f 75 93 47
f 47 93 48
f 48 93 49
