# RS2 Model 9399
# Vertices: 46
# Faces: 62

v 64 -64 176
v 64 64 176
v 64 64 240
v 64 -64 240
v -64 0 240
v -64 -64 240
v -64 -23 197
v -64 -34 177
v -64 -49 145
v -64 -64 175
v 0 -64 0
v 0 -48 0
v -16 -57 139
v 15 -56 0
v -16 -28 129
v 15 -28 0
v 0 -32 169
v 31 -32 0
v 0 0 203
v 31 32 0
v 0 32 169
v 15 28 0
v -16 28 129
v 15 56 0
v -16 55 139
v 0 48 0
v -64 47 145
v 0 64 0
v -64 64 175
v -64 64 240
v -64 36 177
v -64 23 197
v 64 -64 80
v 64 64 80
v 64 -64 0
v 64 64 0
v -16 20 167
v -16 26 194
v -16 -20 167
v -16 0 196
v -16 -26 194
v -16 0 216
v -64 0 214
v -67 63 240
v -67 -65 240
v 65 63 240

f 1 2 3
f 1 3 4
f 4 3 5
f 4 5 6
f 6 5 7
f 6 7 8
f 6 8 9
f 6 9 10
f 10 9 11
f 11 9 12
f 12 9 13
f 12 13 14
f 14 13 15
f 14 15 16
f 16 15 17
f 16 17 18
f 18 17 19
f 18 19 20
f 20 19 21
f 20 21 22
f 22 21 23
f 22 23 24
f 24 23 25
f 24 25 26
f 26 25 27
f 26 27 28
f 28 27 29
f 29 27 30
f 30 27 31
f 30 31 32
f 30 32 5
f 30 5 3
f 2 1 33
f 2 33 34
f 34 33 35
f 34 35 36
f 23 37 25
f 25 37 38
f 25 38 32
f 25 32 31
f 25 31 27
f 15 13 39
f 15 39 17
f 17 39 19
f 19 39 40
f 19 40 37
f 19 37 21
f 21 37 23
f 7 13 8
f 8 13 9
f 13 7 41
f 13 41 39
f 39 41 40
f 40 41 42
f 40 42 38
f 40 38 37
f 5 32 43
f 5 43 7
f 7 43 42
f 7 42 41
f 32 38 42
f 32 42 43
