# RS2 Model 9441
# Vertices: 307
# Faces: 441

v -128 64 0
v 128 64 0
v 128 -64 0
v -128 -64 0
v 0 -48 216
v 0 -24 203
v 0 -24 180
v 0 -48 144
v 0 -8 172
v 0 8 172
v 0 48 144
v 0 -56 136
v 0 -48 224
v 21 -48 144
v 21 48 144
v 21 48 224
v 0 48 224
v 0 56 232
v 0 56 136
v 0 64 128
v 0 -64 128
v 0 -64 240
v 0 -56 232
v -88 48 224
v -88 -48 224
v -88 -48 216
v 0 -8 211
v 0 8 211
v 0 48 216
v 0 24 203
v 0 24 180
v -34 10 198
v -34 10 190
v -34 4 184
v -34 -4 184
v -34 -10 190
v -34 -10 198
v -34 -4 204
v -34 4 204
v -38 8 206
v -38 16 202
v -38 16 186
v -38 8 182
v -38 -8 182
v -38 -16 186
v -38 -16 202
v -38 -8 206
v -30 -8 214
v -30 8 214
v -30 24 202
v -30 24 186
v -30 8 174
v -30 -8 174
v -30 -24 186
v -30 -24 202
v -22 -8 206
v -22 8 206
v -22 16 202
v -22 16 186
v -22 8 182
v -22 -8 182
v -22 -16 186
v -22 -16 202
v -14 -8 214
v -14 8 214
v -14 24 202
v -14 24 186
v -14 8 174
v -14 -8 174
v -14 -24 186
v -14 -24 202
v -6 -16 202
v -6 -8 206
v -6 8 206
v -6 16 202
v -6 16 186
v -6 8 182
v -6 -8 182
v -6 -16 186
v 50 -24 186
v 50 -24 202
v 50 -8 214
v 50 8 214
v 50 24 202
v 50 24 186
v 50 8 174
v 50 -8 174
v 58 -8 206
v 58 8 206
v 58 -16 202
v 66 -24 202
v 66 -8 214
v 66 8 214
v 66 24 202
v 58 16 202
v 58 16 186
v 58 8 182
v 58 -8 182
v 58 -16 186
v 82 -4 194
v 82 4 194
v 66 24 186
v 66 8 174
v 66 -8 174
v 66 -24 186
v 82 4 190
v 82 -4 190
v 113 13 14
v 120 -7 133
v 120 8 133
v 128 14 0
v 128 8 130
v 128 -13 0
v 128 -7 130
v 113 -12 14
v 62 24 166
v 62 24 154
v 62 -24 154
v 62 -24 166
v 128 8 136
v 128 -8 130
v 128 -8 136
v 50 64 80
v 54 56 166
v 54 64 166
v 59 64 64
v 62 64 166
v 59 56 64
v 62 56 166
v 50 56 80
v 50 -56 80
v 54 -64 166
v 54 -56 166
v 59 -56 64
v 62 -56 166
v 59 -64 64
v 62 -64 166
v 50 -64 80
v 54 56 174
v 54 -56 174
v 62 56 174
v 62 64 174
v 54 64 174
v 54 -64 174
v 62 -56 174
v 62 -64 174
v 0 64 240
v 21 56 136
v 21 64 128
v 21 64 240
v 21 56 232
v 21 -56 136
v 21 -64 128
v 21 -64 240
v 21 -56 232
v 21 -48 224
v -88 48 216
v 24 64 64
v 24 -64 64
v 64 64 0
v 64 -64 0
v 19 36 72
v 22 36 73
v 22 -64 73
v 19 -64 72
v 13 32 86
v 16 32 88
v 13 -64 86
v 16 -64 88
v 51 -64 15
v 42 -64 28
v 42 32 28
v 49 32 19
v 54 -64 18
v 51 32 21
v 45 32 31
v 45 -64 31
v 51 48 15
v 42 40 28
v 42 64 28
v 51 64 15
v 54 48 18
v 45 40 31
v 45 64 31
v 40 -64 32
v 30 -64 45
v 33 0 42
v 40 0 32
v 43 -64 34
v 43 0 34
v 37 0 45
v 34 -64 47
v 29 -64 48
v 20 -64 62
v 20 -24 62
v 29 -28 48
v 32 -28 51
v 32 -64 51
v 29 -16 48
v 20 -12 62
v 20 64 62
v 29 64 48
v 32 -16 51
v 24 -12 64
v 32 64 51
v 24 -24 64
v 54 64 18
v 3 -16 108
v 7 -16 110
v 7 64 110
v 3 64 108
v 10 -16 94
v 13 -16 95
v 10 64 94
v 13 64 95
v 2 -64 112
v -4 -64 127
v -4 48 127
v 2 48 112
v 6 -64 114
v 6 48 114
v 0 48 128
v 3 -64 108
v 3 -36 108
v 10 -32 94
v 10 -64 94
v 13 -64 95
v 13 -32 95
v 7 -36 110
v 7 -64 110
v -76 -36 228
v -76 -36 224
v -76 48 224
v -76 48 228
v -88 -36 228
v -88 -36 224
v -88 48 228
v -73 12 228
v -73 12 224
v -73 -48 224
v -73 -48 228
v -61 12 228
v -61 12 224
v -61 -48 228
v -61 -48 224
v -61 24 228
v -61 24 224
v -61 48 224
v -61 48 228
v -73 48 228
v -73 27 228
v -73 27 224
v -73 48 224
v -43 -27 228
v -43 -27 224
v -43 48 224
v -43 48 228
v -55 -24 228
v -55 -24 224
v -55 48 228
v -55 48 224
v -37 9 228
v -37 9 224
v -37 -48 224
v -37 -48 228
v -25 12 228
v -25 12 224
v -25 -48 228
v -25 -48 224
v -10 0 228
v -10 0 224
v -10 48 224
v -10 48 228
v -19 0 228
v -19 0 224
v -22 48 228
v -22 48 224
v 2 -24 228
v 2 -24 224
v 5 48 224
v 5 48 228
v -7 -24 228
v -7 -24 224
v -7 48 228
v -7 48 224
v -7 -30 228
v -7 -30 224
v -7 -48 224
v -7 -48 228
v 5 -36 228
v 5 -36 224
v 5 -48 228
v 5 -48 224
v -25 48 228
v -37 48 228
v -37 18 228
v -25 21 228
v -25 21 224
v -25 48 224
v -37 18 224
v -37 48 224
v -99 -48 224
v 11 -48 224
v -99 48 224
v 0 47 209
v 0 48 137
v 0 -48 209

f 1 2 3
f 1 3 4
f 5 6 7
f 5 7 8
f 8 7 9
f 8 9 10
f 8 10 11
f 8 11 12
f 8 12 13
f 8 13 14
f 8 14 15
f 8 15 11
f 11 15 16
f 11 16 17
f 11 17 18
f 11 18 19
f 11 19 12
f 12 19 20
f 12 20 21
f 12 21 22
f 12 22 23
f 12 23 13
f 13 23 17
f 13 17 24
f 13 24 25
f 13 25 26
f 13 26 5
f 5 27 6
f 27 5 28
f 28 5 29
f 28 29 30
f 30 29 11
f 30 11 31
f 31 11 10
f 32 33 34
f 32 34 35
f 32 35 36
f 32 36 37
f 32 37 38
f 32 38 39
f 32 39 40
f 32 40 41
f 32 41 33
f 33 41 42
f 33 42 34
f 34 42 43
f 34 43 35
f 35 43 44
f 35 44 36
f 36 44 45
f 36 45 37
f 37 45 46
f 37 46 38
f 38 46 47
f 38 47 39
f 39 47 40
f 40 47 48
f 40 48 49
f 40 49 41
f 41 49 50
f 41 50 42
f 42 50 51
f 42 51 52
f 42 52 43
f 43 52 44
f 44 52 53
f 44 53 45
f 45 53 54
f 45 54 46
f 46 54 55
f 46 55 48
f 46 48 47
f 49 48 56
f 49 56 57
f 49 57 58
f 49 58 50
f 50 58 51
f 51 58 59
f 51 59 52
f 52 59 60
f 52 60 53
f 53 60 61
f 53 61 62
f 53 62 54
f 54 62 55
f 55 62 63
f 55 63 48
f 48 63 56
f 56 63 64
f 56 64 57
f 57 64 65
f 57 65 58
f 58 65 66
f 58 66 59
f 59 66 67
f 59 67 68
f 59 68 60
f 60 68 61
f 61 68 69
f 61 69 62
f 62 69 70
f 62 70 63
f 63 70 71
f 63 71 64
f 64 71 72
f 64 72 73
f 64 73 65
f 65 73 74
f 65 74 75
f 65 75 66
f 66 75 67
f 67 75 76
f 67 76 68
f 68 76 77
f 68 77 69
f 69 77 78
f 69 78 79
f 69 79 70
f 70 79 71
f 71 79 72
f 72 79 80
f 72 80 81
f 72 81 73
f 73 81 82
f 73 82 74
f 74 82 83
f 74 83 84
f 74 84 75
f 75 84 76
f 76 84 85
f 76 85 77
f 77 85 86
f 77 86 78
f 78 86 87
f 78 87 80
f 78 80 79
f 88 89 83
f 88 83 82
f 88 82 90
f 88 90 91
f 88 91 92
f 88 92 93
f 88 93 89
f 89 93 94
f 89 94 95
f 89 95 83
f 83 95 84
f 84 95 85
f 85 95 96
f 85 96 86
f 86 96 97
f 86 97 87
f 87 97 98
f 87 98 99
f 87 99 80
f 80 99 81
f 81 99 90
f 81 90 82
f 93 92 100
f 93 100 101
f 93 101 94
f 94 101 102
f 94 102 95
f 95 102 96
f 96 102 97
f 97 102 103
f 97 103 104
f 97 104 98
f 98 104 105
f 98 105 99
f 99 105 91
f 99 91 90
f 106 107 104
f 106 104 103
f 106 103 102
f 106 102 101
f 106 101 100
f 106 100 107
f 107 100 91
f 107 91 105
f 107 105 104
f 92 91 100
f 108 109 110
f 108 110 111
f 111 110 112
f 111 112 113
f 113 112 114
f 113 114 115
f 115 114 109
f 115 109 108
f 116 117 118
f 116 118 119
f 116 119 120
f 116 120 117
f 117 120 112
f 117 112 121
f 117 121 118
f 118 121 119
f 119 121 122
f 119 122 120
f 120 122 112
f 112 122 121
f 123 124 125
f 123 125 126
f 126 125 127
f 126 127 128
f 128 127 129
f 128 129 130
f 130 129 124
f 130 124 123
f 131 132 133
f 131 133 134
f 134 133 135
f 134 135 136
f 136 135 137
f 136 137 138
f 138 137 132
f 138 132 131
f 139 133 140
f 139 140 141
f 139 141 142
f 139 142 143
f 139 143 124
f 139 124 133
f 133 124 135
f 133 135 137
f 133 137 132
f 133 132 140
f 140 132 144
f 140 144 145
f 140 145 141
f 141 145 129
f 141 129 127
f 141 127 142
f 142 127 125
f 142 125 143
f 143 125 124
f 124 125 129
f 124 129 135
f 135 129 145
f 135 145 146
f 135 146 137
f 137 146 144
f 137 144 132
f 145 144 146
f 125 127 129
f 18 147 20
f 18 20 19
f 23 22 147
f 23 147 18
f 23 18 17
f 148 149 150
f 148 150 151
f 148 151 16
f 148 16 15
f 148 15 14
f 148 14 152
f 148 152 153
f 148 153 149
f 149 153 136
f 149 136 126
f 149 126 20
f 149 20 147
f 149 147 150
f 150 147 22
f 150 22 154
f 150 154 151
f 151 154 155
f 151 155 156
f 151 156 16
f 155 154 153
f 155 153 152
f 155 152 14
f 155 14 156
f 156 14 13
f 29 157 24
f 29 24 17
f 157 26 25
f 157 25 24
f 158 159 21
f 158 21 20
f 158 20 126
f 158 126 2
f 158 2 160
f 158 160 159
f 159 160 161
f 159 161 136
f 159 136 153
f 159 153 21
f 21 153 154
f 21 154 22
f 162 163 164
f 162 164 165
f 162 165 166
f 162 166 163
f 163 166 167
f 167 166 168
f 167 168 169
f 165 168 166
f 170 171 172
f 170 172 173
f 170 173 174
f 174 173 175
f 175 173 172
f 175 172 176
f 176 172 171
f 176 171 177
f 178 179 180
f 178 180 181
f 178 181 182
f 178 182 183
f 178 183 179
f 179 183 184
f 179 184 180
f 185 186 187
f 185 187 188
f 185 188 189
f 189 188 190
f 190 188 187
f 190 187 191
f 191 187 186
f 191 186 192
f 193 194 195
f 193 195 196
f 193 196 197
f 193 197 198
f 199 200 201
f 199 201 202
f 199 202 203
f 199 203 204
f 199 204 200
f 200 204 158
f 200 158 201
f 202 205 203
f 195 206 197
f 195 197 196
f 194 159 206
f 194 206 195
f 181 207 182
f 126 136 3
f 126 3 2
f 208 209 210
f 208 210 211
f 208 211 212
f 208 212 209
f 209 212 213
f 213 212 214
f 213 214 215
f 216 217 218
f 216 218 219
f 216 219 220
f 220 219 221
f 221 219 218
f 221 218 222
f 222 218 217
f 222 217 21
f 223 224 225
f 223 225 226
f 226 225 227
f 227 225 228
f 228 225 224
f 228 224 229
f 229 224 223
f 229 223 230
f 212 211 214
f 231 232 233
f 231 233 234
f 231 234 235
f 231 235 232
f 232 235 236
f 236 235 237
f 236 237 24
f 238 239 240
f 238 240 241
f 238 241 242
f 238 242 239
f 239 242 243
f 243 242 244
f 243 244 245
f 246 247 248
f 246 248 249
f 246 249 250
f 246 250 251
f 246 251 247
f 247 251 252
f 252 251 250
f 252 250 253
f 254 255 256
f 254 256 257
f 254 257 258
f 254 258 255
f 255 258 259
f 259 258 260
f 259 260 261
f 262 263 264
f 262 264 265
f 262 265 266
f 262 266 263
f 263 266 267
f 267 266 268
f 267 268 269
f 270 271 272
f 270 272 273
f 270 273 274
f 270 274 271
f 271 274 275
f 275 274 276
f 275 276 277
f 278 279 280
f 278 280 281
f 278 281 282
f 278 282 279
f 279 282 283
f 283 282 284
f 283 284 285
f 286 287 288
f 286 288 289
f 286 289 290
f 286 290 287
f 287 290 291
f 291 290 292
f 291 292 293
f 294 295 296
f 294 296 297
f 294 297 298
f 294 298 299
f 234 237 235
f 257 260 258
f 273 276 274
f 281 284 282
f 266 265 268
f 242 241 244
f 290 289 292
f 296 300 298
f 296 298 297
f 295 301 300
f 295 300 296
f 136 161 3
f 13 17 29
f 13 29 5
f 302 303 304
