# RS2 Model 9493
# Vertices: 78
# Faces: 120

v -64 37 40
v -64 34 48
v -44 31 56
v -40 34 48
v -64 29 40
v -40 26 48
v -64 26 48
v -44 23 56
v -32 18 68
v -32 26 68
v -24 27 64
v -24 19 64
v -20 12 92
v -8 10 20
v -16 11 16
v -4 26 -20
v -8 18 20
v -28 13 40
v -28 5 40
v -32 7 32
v -16 19 16
v -32 15 32
v -64 14 36
v -64 12 44
v -64 4 44
v -64 6 36
v -8 -54 32
v -15 -53 28
v -2 -45 -8
v -8 -46 32
v -28 -48 52
v -28 -56 52
v -32 -55 44
v -15 -45 28
v -32 -47 44
v -64 -48 48
v -65 -49 56
v -65 -57 56
v -64 -56 48
v -64 -38 32
v -64 -30 32
v -34 -27 40
v -34 -35 40
v -64 -35 40
v -39 -32 48
v -64 -27 40
v -39 -24 48
v -24 -20 60
v -14 -21 56
v -14 -29 56
v -24 -28 60
v -9 -15 84
v -12 48 -7
v -22 45 27
v -22 53 27
v -15 52 32
v -15 44 32
v -33 45 50
v -36 46 41
v -36 54 41
v -33 53 50
v -64 56 48
v -64 48 48
v -64 48 40
v -64 56 40
v -35 -10 51
v -35 -18 51
v -19 -24 35
v -19 -16 35
v -38 -12 42
v -64 -11 40
v -64 -8 48
v -64 -16 48
v -38 -20 42
v -25 -25 29
v -16 -32 -4
v -25 -17 29
v -64 -19 40

f 1 2 3
f 1 3 4
f 1 4 5
f 5 4 6
f 5 6 7
f 7 6 8
f 7 8 2
f 2 8 3
f 3 8 9
f 3 9 10
f 3 10 4
f 4 10 11
f 4 11 6
f 6 11 12
f 6 12 8
f 8 12 9
f 9 12 13
f 9 13 10
f 10 13 11
f 11 13 12
f 14 15 16
f 14 16 17
f 14 17 18
f 14 18 19
f 14 19 15
f 15 19 20
f 15 20 21
f 15 21 16
f 16 21 17
f 17 21 22
f 17 22 18
f 18 22 23
f 18 23 24
f 18 24 19
f 19 24 25
f 19 25 20
f 20 25 26
f 20 26 22
f 20 22 21
f 26 23 22
f 27 28 29
f 27 29 30
f 27 30 31
f 27 31 32
f 27 32 28
f 28 32 33
f 28 33 34
f 28 34 29
f 29 34 30
f 30 34 35
f 30 35 31
f 31 35 36
f 31 36 37
f 31 37 32
f 32 37 38
f 32 38 33
f 33 38 39
f 33 39 35
f 33 35 34
f 39 36 35
f 40 41 42
f 40 42 43
f 40 43 44
f 44 43 45
f 44 45 46
f 46 45 47
f 46 47 41
f 41 47 42
f 42 47 48
f 42 48 49
f 42 49 43
f 43 49 50
f 43 50 45
f 45 50 51
f 45 51 47
f 47 51 48
f 48 51 52
f 48 52 49
f 49 52 50
f 50 52 51
f 53 54 55
f 53 55 56
f 53 56 57
f 53 57 54
f 54 57 58
f 54 58 59
f 54 59 55
f 55 59 60
f 55 60 56
f 56 60 61
f 56 61 57
f 57 61 58
f 58 61 62
f 58 62 63
f 58 63 59
f 59 63 64
f 59 64 60
f 60 64 65
f 60 65 61
f 61 65 62
f 66 67 68
f 66 68 69
f 66 69 70
f 66 70 71
f 66 71 72
f 66 72 67
f 67 72 73
f 67 73 74
f 67 74 75
f 67 75 68
f 68 75 76
f 68 76 69
f 69 76 77
f 69 77 70
f 70 77 74
f 70 74 78
f 70 78 71
f 73 78 74
f 74 77 75
f 75 77 76
