# RS2 Model 9496
# Vertices: 47
# Faces: 59

v -8 -36 8
v -4 -44 8
v 16 -24 8
v 8 -20 8
v -8 -36 0
v -4 -44 0
v 16 -24 0
v 20 16 4
v 8 -20 0
v -28 20 8
v -20 16 8
v -8 28 8
v -12 36 8
v -28 20 0
v -20 16 0
v -8 28 0
v 16 40 4
v -12 36 0
v -32 -37 8
v -25 -34 8
v -33 -20 8
v -40 -23 8
v -32 -37 0
v -25 -34 0
v -33 -20 0
v -40 -23 0
v -32 16 0
v -36 8 0
v -36 8 8
v -32 16 8
v -24 12 0
v -24 12 8
v -28 4 0
v -28 4 8
v 44 1 1
v 32 35 9
v 32 35 1
v 16 49 10
v 16 49 2
v -16 48 8
v -16 48 0
v -16 56 1
v -16 56 9
v 20 58 12
v 20 58 4
v 40 40 11
v 40 40 3

f 1 2 3
f 1 3 4
f 1 4 5
f 1 5 2
f 2 5 6
f 2 6 7
f 2 7 3
f 3 7 8
f 3 8 4
f 4 8 9
f 4 9 5
f 10 11 12
f 10 12 13
f 10 13 14
f 10 14 11
f 11 14 15
f 11 15 16
f 11 16 12
f 12 16 17
f 12 17 13
f 13 17 18
f 13 18 14
f 19 20 21
f 19 21 22
f 19 22 23
f 19 23 20
f 20 23 24
f 20 24 25
f 20 25 21
f 21 25 22
f 22 25 26
f 22 26 23
f 27 28 29
f 27 29 30
f 27 30 31
f 31 30 32
f 31 32 33
f 33 32 34
f 33 34 28
f 28 34 29
f 29 34 30
f 30 34 32
f 35 36 37
f 37 36 38
f 37 38 39
f 39 38 40
f 39 40 41
f 41 40 42
f 42 40 43
f 42 43 44
f 42 44 45
f 45 44 46
f 45 46 47
f 47 46 35
f 35 46 36
f 36 46 44
f 36 44 38
f 38 44 43
f 38 43 40
