# RS2 Model 9505
# Vertices: 80
# Faces: 120

v -64 64 0
v -64 64 -16
v 64 64 -16
v 64 64 0
v 64 -64 -16
v 64 -64 0
v -64 -64 -16
v -64 -64 0
v 32 0 16
v 32 8 8
v -32 8 8
v -32 0 16
v 32 -8 8
v 32 0 0
v -32 0 0
v -32 -8 8
v 32 0 56
v 32 8 48
v -32 8 48
v -32 0 56
v 32 -8 48
v 32 0 40
v -32 0 40
v -32 -8 48
v 32 0 96
v 32 8 88
v -32 8 88
v -32 0 96
v 32 -8 88
v 32 0 80
v -32 0 80
v -32 -8 88
v -32 -12 120
v -32 -12 -8
v -32 12 -8
v -32 12 120
v -48 -12 120
v -48 -12 -8
v -32 -12 -136
v -32 12 -136
v -48 12 -136
v -48 12 -8
v -48 12 120
v -48 -12 -136
v 32 -12 120
v 48 -12 120
v 48 12 120
v 32 12 120
v 32 -12 -8
v 48 -12 -8
v 48 12 -8
v 32 12 -8
v 32 -12 -136
v 48 -12 -136
v 48 12 -136
v 32 12 -136
v 32 0 -105
v 32 8 -113
v -32 8 -113
v -32 0 -105
v 32 -8 -113
v 32 0 -121
v -32 0 -121
v -32 -8 -113
v 32 0 -65
v 32 8 -73
v -32 8 -73
v -32 0 -65
v 32 -8 -73
v 32 0 -81
v -32 0 -81
v -32 -8 -73
v 32 0 -25
v 32 8 -33
v -32 8 -33
v -32 0 -25
v 32 -8 -33
v 32 0 -41
v -32 0 -41
v -32 -8 -33

f 1 2 3
f 1 3 4
f 4 3 5
f 4 5 6
f 6 5 7
f 6 7 8
f 8 7 2
f 8 2 1
f 9 10 11
f 9 11 12
f 9 12 13
f 9 13 10
f 10 13 14
f 10 14 15
f 10 15 11
f 11 15 12
f 12 15 16
f 12 16 13
f 13 16 14
f 14 16 15
f 17 18 19
f 17 19 20
f 17 20 21
f 17 21 18
f 18 21 22
f 18 22 23
f 18 23 19
f 19 23 20
f 20 23 24
f 20 24 21
f 21 24 22
f 22 24 23
f 25 26 27
f 25 27 28
f 25 28 29
f 25 29 26
f 26 29 30
f 26 30 31
f 26 31 27
f 27 31 28
f 28 31 32
f 28 32 29
f 29 32 30
f 30 32 31
f 33 34 35
f 33 35 36
f 33 36 37
f 33 37 34
f 34 37 38
f 34 38 39
f 34 39 40
f 34 40 35
f 35 40 41
f 35 41 42
f 35 42 36
f 36 42 43
f 36 43 37
f 37 43 38
f 38 43 42
f 38 42 44
f 38 44 39
f 39 44 41
f 39 41 40
f 45 46 47
f 45 47 48
f 45 48 49
f 45 49 50
f 45 50 46
f 46 50 51
f 46 51 47
f 47 51 52
f 47 52 48
f 48 52 49
f 49 52 53
f 49 53 54
f 49 54 50
f 50 54 55
f 50 55 51
f 51 55 56
f 51 56 52
f 52 56 53
f 53 56 54
f 54 56 55
f 57 58 59
f 57 59 60
f 57 60 61
f 57 61 58
f 58 61 62
f 58 62 63
f 58 63 59
f 59 63 60
f 60 63 64
f 60 64 61
f 61 64 62
f 62 64 63
f 65 66 67
f 65 67 68
f 65 68 69
f 65 69 66
f 66 69 70
f 66 70 71
f 66 71 67
f 67 71 68
f 68 71 72
f 68 72 69
f 69 72 70
f 70 72 71
f 73 74 75
f 73 75 76
f 73 76 77
f 73 77 74
f 74 77 78
f 74 78 79
f 74 79 75
f 75 79 76
f 76 79 80
f 76 80 77
f 77 80 78
f 78 80 79
f 42 41 44
