# RS2 Model 9511
# Vertices: 108
# Faces: 174

v -25 30 152
v -28 23 152
v -25 20 144
v -20 29 144
v -25 40 152
v -35 20 152
v -34 15 144
v -34 15 136
v -25 20 136
v -20 29 136
v -20 41 144
v -28 47 152
v -35 50 152
v -45 50 152
v -52 47 152
v -56 40 152
v -56 30 152
v -53 24 152
v -45 20 152
v -46 15 144
v -46 15 136
v -56 21 144
v -56 21 136
v -60 29 144
v -60 29 136
v -60 41 144
v -60 41 136
v -55 50 144
v -55 50 136
v -46 55 144
v -46 55 136
v -34 55 144
v -34 55 136
v -25 50 144
v -25 50 136
v -20 41 136
v -28 -34 136
v -31 -41 136
v -28 -44 128
v -23 -35 128
v -28 -24 136
v -38 -44 136
v -37 -49 128
v -37 -49 120
v -28 -44 120
v -23 -35 120
v -23 -23 128
v -31 -17 136
v -38 -14 136
v -48 -14 136
v -55 -17 136
v -59 -24 136
v -59 -34 136
v -56 -40 136
v -48 -44 136
v -49 -49 128
v -49 -49 120
v -59 -43 128
v -59 -43 120
v -63 -35 128
v -63 -35 120
v -63 -23 128
v -63 -23 120
v -58 -14 128
v -58 -14 120
v -49 -9 128
v -49 -9 120
v -37 -9 128
v -37 -9 120
v -28 -14 128
v -28 -14 120
v -23 -23 120
v -29 22 136
v -32 15 136
v -29 12 128
v -24 21 128
v -29 32 136
v -39 12 136
v -38 7 128
v -38 7 120
v -29 12 120
v -24 21 120
v -24 33 128
v -32 39 136
v -39 42 136
v -49 42 136
v -56 39 136
v -60 32 136
v -60 22 136
v -57 16 136
v -49 12 136
v -50 7 128
v -50 7 120
v -60 13 128
v -60 13 120
v -64 21 128
v -64 21 120
v -64 33 128
v -64 33 120
v -59 42 128
v -59 42 120
v -50 47 128
v -50 47 120
v -38 47 128
v -38 47 120
v -29 42 128
v -29 42 120
v -24 33 120

f 1 2 3
f 1 3 4
f 1 4 5
f 1 5 2
f 2 5 6
f 2 6 7
f 2 7 3
f 3 7 8
f 3 8 9
f 3 9 4
f 4 9 10
f 4 10 11
f 4 11 5
f 5 11 12
f 5 12 13
f 5 13 14
f 5 14 15
f 5 15 16
f 5 16 17
f 5 17 18
f 5 18 19
f 5 19 6
f 6 19 20
f 6 20 7
f 7 20 21
f 7 21 8
f 19 18 22
f 19 22 20
f 20 22 23
f 20 23 21
f 18 17 24
f 18 24 22
f 22 24 25
f 22 25 23
f 17 16 26
f 17 26 24
f 24 26 27
f 24 27 25
f 16 15 28
f 16 28 26
f 26 28 29
f 26 29 27
f 15 14 30
f 15 30 28
f 28 30 31
f 28 31 29
f 14 13 32
f 14 32 30
f 30 32 33
f 30 33 31
f 13 12 34
f 13 34 32
f 32 34 35
f 32 35 33
f 12 11 34
f 34 11 36
f 34 36 35
f 11 10 36
f 37 38 39
f 37 39 40
f 37 40 41
f 37 41 38
f 38 41 42
f 38 42 43
f 38 43 39
f 39 43 44
f 39 44 45
f 39 45 40
f 40 45 46
f 40 46 47
f 40 47 41
f 41 47 48
f 41 48 49
f 41 49 50
f 41 50 51
f 41 51 52
f 41 52 53
f 41 53 54
f 41 54 55
f 41 55 42
f 42 55 56
f 42 56 43
f 43 56 57
f 43 57 44
f 55 54 58
f 55 58 56
f 56 58 59
f 56 59 57
f 54 53 60
f 54 60 58
f 58 60 61
f 58 61 59
f 53 52 62
f 53 62 60
f 60 62 63
f 60 63 61
f 52 51 64
f 52 64 62
f 62 64 65
f 62 65 63
f 51 50 66
f 51 66 64
f 64 66 67
f 64 67 65
f 50 49 68
f 50 68 66
f 66 68 69
f 66 69 67
f 49 48 70
f 49 70 68
f 68 70 71
f 68 71 69
f 48 47 70
f 70 47 72
f 70 72 71
f 47 46 72
f 73 74 75
f 73 75 76
f 73 76 77
f 73 77 74
f 74 77 78
f 74 78 79
f 74 79 75
f 75 79 80
f 75 80 81
f 75 81 76
f 76 81 82
f 76 82 83
f 76 83 77
f 77 83 84
f 77 84 85
f 77 85 86
f 77 86 87
f 77 87 88
f 77 88 89
f 77 89 90
f 77 90 91
f 77 91 78
f 78 91 92
f 78 92 79
f 79 92 93
f 79 93 80
f 91 90 94
f 91 94 92
f 92 94 95
f 92 95 93
f 90 89 96
f 90 96 94
f 94 96 97
f 94 97 95
f 89 88 98
f 89 98 96
f 96 98 99
f 96 99 97
f 88 87 100
f 88 100 98
f 98 100 101
f 98 101 99
f 87 86 102
f 87 102 100
f 100 102 103
f 100 103 101
f 86 85 104
f 86 104 102
f 102 104 105
f 102 105 103
f 85 84 106
f 85 106 104
f 104 106 107
f 104 107 105
f 84 83 106
f 106 83 108
f 106 108 107
f 83 82 108
