# RS2 Model 9581
# Vertices: 71
# Faces: 74

v -63 64 205
v -63 -64 205
v 65 -64 162
v 65 64 162
v -34 64 209
v -34 56 209
v 7 53 207
v 6 64 207
v 7 53 200
v 6 64 200
v -34 -25 209
v 6 -20 207
v 6 -20 200
v -34 -64 209
v 6 -64 207
v 6 -64 200
v 36 64 189
v 32 30 189
v 63 29 183
v 63 64 182
v 64 29 174
v 64 64 174
v 33 -34 190
v 63 -36 182
v 64 -36 174
v 36 -64 189
v 63 -64 182
v 64 -64 174
v 3 64 200
v 5 45 201
v 40 47 199
v 37 64 198
v 40 48 191
v 38 64 189
v 4 -40 200
v 37 -42 198
v 37 -42 190
v 3 -64 200
v 37 -64 198
v 38 -64 189
v -64 52 219
v -64 -48 219
v -30 -15 218
v -31 47 218
v -64 64 219
v -64 64 210
v -64 52 210
v -64 -48 210
v -64 -64 219
v -30 -64 218
v -28 -64 210
v -29 -15 209
v -30 47 209
v -30 64 218
v -34 64 201
v -35 56 201
v -34 -25 201
v -34 -64 201
v 33 -34 179
v 36 -64 180
v 32 30 179
v 36 64 180
v 3 -40 191
v 2 -64 190
v 7 44 192
v 2 64 190
v -64 -64 210
v -28 64 210
v -63 -64 205
v 65 -64 162
v -63 64 205

f 1 2 3
f 1 3 4
f 5 6 7
f 5 7 8
f 8 7 9
f 8 9 10
f 6 11 12
f 6 12 7
f 7 12 13
f 7 13 9
f 11 14 15
f 11 15 12
f 12 15 16
f 12 16 13
f 17 18 19
f 17 19 20
f 20 19 21
f 20 21 22
f 18 23 24
f 18 24 19
f 19 24 25
f 19 25 21
f 23 26 27
f 23 27 24
f 24 27 28
f 24 28 25
f 29 30 31
f 29 31 32
f 32 31 33
f 32 33 34
f 30 35 36
f 30 36 31
f 31 36 37
f 31 37 33
f 35 38 39
f 35 39 36
f 36 39 40
f 36 40 37
f 41 42 43
f 41 43 44
f 41 44 45
f 41 45 46
f 41 46 47
f 41 47 42
f 42 47 48
f 42 48 49
f 42 49 50
f 42 50 43
f 43 50 51
f 43 51 52
f 43 52 44
f 44 52 53
f 44 53 54
f 44 54 45
f 55 56 6
f 55 6 5
f 56 57 11
f 56 11 6
f 14 11 57
f 14 57 58
f 26 23 59
f 26 59 60
f 61 59 23
f 61 23 18
f 61 18 62
f 62 18 17
f 38 35 63
f 38 63 64
f 65 63 35
f 65 35 30
f 65 30 66
f 66 30 29
f 49 48 67
f 54 53 68
