# RS2 Model 9582
# Vertices: 55
# Faces: 56

v 65 -64 205
v 65 64 205
v -65 64 205
v -65 -64 205
v 62 -52 220
v 62 48 220
v 28 15 219
v 29 -47 219
v 62 -64 220
v 62 -64 210
v 62 -52 210
v 62 48 210
v 62 64 220
v 28 64 219
v 26 64 210
v 27 15 209
v 28 -47 209
v 28 -64 219
v 62 64 210
v 26 -64 210
v 21 -64 219
v 21 -56 219
v -20 -53 219
v -19 -64 219
v -20 -53 208
v -19 -64 208
v 21 25 220
v -19 20 220
v -19 20 208
v 21 64 219
v -19 64 219
v -19 64 208
v 21 -64 209
v 22 -56 209
v 21 25 209
v 21 64 209
v -24 -64 218
v -26 -45 219
v -61 -47 219
v -58 -64 218
v -61 -48 210
v -59 -64 208
v -25 40 218
v -58 42 218
v -58 42 209
v -24 64 218
v -58 64 218
v -59 64 208
v -24 40 208
v -23 64 207
v -28 -44 209
v -23 -64 207
v 65 64 205
v -65 64 205
v 65 -64 205

f 1 2 3
f 1 3 4
f 5 6 7
f 5 7 8
f 5 8 9
f 5 9 10
f 5 10 11
f 5 11 6
f 6 11 12
f 6 12 13
f 6 13 14
f 6 14 7
f 7 14 15
f 7 15 16
f 7 16 8
f 8 16 17
f 8 17 18
f 8 18 9
f 13 12 19
f 18 17 20
f 21 22 23
f 21 23 24
f 24 23 25
f 24 25 26
f 22 27 28
f 22 28 23
f 23 28 29
f 23 29 25
f 27 30 31
f 27 31 28
f 28 31 32
f 28 32 29
f 33 34 22
f 33 22 21
f 34 35 27
f 34 27 22
f 30 27 35
f 30 35 36
f 37 38 39
f 37 39 40
f 40 39 41
f 40 41 42
f 38 43 44
f 38 44 39
f 39 44 45
f 39 45 41
f 43 46 47
f 43 47 44
f 44 47 48
f 44 48 45
f 46 43 49
f 46 49 50
f 51 49 43
f 51 43 38
f 51 38 52
f 52 38 37
