# RS2 Model 9589
# Vertices: 278
# Faces: 392

v -56 -73 64
v -56 -120 64
v -56 -120 95
v -56 -46 96
v -56 73 67
v -56 86 96
v -56 120 63
v -56 120 96
v -56 120 34
v -56 68 34
v -56 73 63
v -56 120 62
v -34 120 34
v -33 120 62
v 32 120 34
v 34 120 63
v 56 120 34
v 56 120 62
v 56 74 34
v 56 72 62
v 56 -68 34
v 56 -73 63
v 56 -120 34
v 56 -120 62
v 34 -120 34
v 33 -120 62
v -32 -120 34
v -34 -120 63
v -56 -120 34
v -56 -120 62
v -56 -74 34
v -56 -72 62
v -48 -74 62
v -48 24 62
v -48 68 62
v -48 112 62
v -28 112 62
v 29 112 62
v 48 112 62
v 48 67 62
v 48 24 62
v 48 -74 62
v 48 -112 62
v 28 -112 62
v -29 -112 62
v -48 -112 62
v -56 -92 8
v -56 -72 32
v -56 68 4
v -56 70 34
v -56 120 8
v -56 120 33
v -48 65 33
v -48 112 33
v -56 -120 9
v -48 -112 96
v -48 112 96
v 56 -120 96
v 48 -112 96
v 48 -112 88
v -48 -112 88
v -48 -76 88
v -48 24 88
v -48 112 88
v -44 112 88
v -28 112 88
v -20 112 88
v -4 112 88
v 4 112 88
v 48 112 96
v 56 120 96
v 48 -76 88
v -44 24 88
v 48 104 0
v 48 104 16
v 40 104 16
v 40 104 0
v 40 112 0
v 40 112 16
v 48 112 16
v 48 112 0
v -40 104 0
v -40 104 16
v -48 104 16
v -48 104 0
v -48 112 0
v -48 112 16
v -40 112 16
v -40 112 0
v 48 -112 0
v 48 -112 16
v 40 -112 16
v 40 -112 0
v 40 -104 0
v 40 -104 16
v 48 -104 16
v 48 -104 0
v -40 -112 0
v -40 -112 16
v -48 -112 16
v -48 -112 0
v -48 -104 0
v -48 -104 16
v -40 -104 16
v -40 -104 0
v 44 112 88
v 36 112 84
v 36 24 84
v 44 24 88
v 48 112 88
v 28 112 88
v 28 24 88
v 12 24 84
v 48 24 88
v 48 24 32
v 48 -72 32
v -48 -72 32
v -48 24 32
v -12 24 84
v -36 24 84
v -36 112 84
v -28 24 88
v -24 112 88
v -24 24 88
v -20 24 88
v -12 112 84
v -4 24 88
v 0 112 88
v 0 24 88
v 4 24 88
v 12 112 84
v 20 112 88
v 24 24 88
v 24 112 88
v 20 24 88
v 7 -94 168
v 4 -98 168
v 4 -98 164
v 7 -94 164
v 4 -90 168
v -7 -94 168
v -3 -98 168
v -3 -98 164
v 4 -90 164
v -3 -90 168
v -3 -90 164
v -7 -94 164
v -3 -89 157
v -3 -89 164
v -3 -64 164
v -3 -64 157
v -3 -53 157
v -3 -64 151
v -3 -53 151
v 4 -53 157
v 4 -53 151
v 4 -64 157
v 4 -64 151
v 4 -89 164
v 4 -64 164
v -10 -94 164
v 12 -94 164
v 12 -94 157
v 4 -89 157
v 4 -55 163
v -3 -55 163
v -3 -100 164
v -10 -94 157
v -3 -100 157
v 4 -100 164
v 4 -100 157
v 4 -100 148
v 12 -94 148
v 4 -89 148
v -3 -89 148
v -3 -100 148
v -10 -94 148
v 7 -94 148
v 4 -98 148
v 4 -98 100
v 7 -94 100
v 4 -90 148
v 4 -90 100
v -3 -90 148
v -3 -90 100
v -7 -94 148
v -7 -94 100
v -3 -98 148
v -3 -98 100
v 12 -94 100
v 4 -100 100
v 4 -100 88
v 12 -94 88
v 4 -89 100
v -10 -94 100
v -3 -100 100
v -3 -100 88
v 4 -89 88
v -3 -89 100
v -3 -89 88
v -10 -94 88
v -3 -113 161
v -3 -122 157
v 4 -122 157
v 4 -113 161
v -3 -113 156
v -3 -119 147
v -3 -124 151
v 4 -124 151
v 4 -113 156
v -3 -128 139
v 4 -128 139
v 4 -119 147
v -3 -124 125
v 4 -124 125
v 4 -119 125
v 4 -122 139
v -3 -122 139
v -3 -119 125
v -3 -122 118
v -3 -128 118
v 4 -128 118
v 4 -122 118
v -3 -130 117
v 4 -130 117
v 4 -124 113
v 4 -119 114
v -3 -119 114
v -3 -124 113
v 56 73 64
v 56 120 64
v 56 46 96
v 56 -73 67
v 56 -86 96
v 56 -120 63
v 56 92 8
v 56 72 32
v 56 -68 4
v 56 -70 34
v 56 -120 8
v 56 -120 33
v 48 -65 33
v 48 -112 33
v 56 120 9
v 33 -120 64
v 56 -120 64
v 21 -120 96
v -34 -120 67
v -40 -120 96
v -56 -120 63
v 42 -120 8
v 33 -120 32
v -32 -120 4
v -33 -120 34
v -56 -120 8
v -56 -120 33
v -28 -112 33
v -48 -112 33
v 56 -120 9
v -33 120 64
v -56 120 64
v -21 120 96
v 34 120 67
v 40 120 96
v 56 120 63
v -42 120 8
v -33 120 32
v 32 120 4
v 33 120 34
v 56 120 8
v 56 120 33
v 28 112 33
v 48 112 33
v -56 120 9
v -48 -67 33
v 48 67 33
v 28 -112 33
v -28 112 33

f 1 2 3
f 1 3 4
f 1 4 5
f 5 4 6
f 5 6 7
f 7 6 8
f 9 10 11
f 9 11 12
f 9 12 13
f 13 12 14
f 13 14 15
f 15 14 16
f 15 16 17
f 17 16 18
f 17 18 19
f 19 18 20
f 19 20 21
f 21 20 22
f 21 22 23
f 23 22 24
f 23 24 25
f 25 24 26
f 25 26 27
f 27 26 28
f 27 28 29
f 29 28 30
f 29 30 31
f 31 30 32
f 31 32 10
f 10 32 11
f 11 32 33
f 11 33 34
f 11 34 35
f 11 35 12
f 12 35 36
f 12 36 14
f 14 36 37
f 14 37 16
f 16 37 38
f 16 38 18
f 18 38 39
f 18 39 20
f 20 39 40
f 20 40 22
f 22 40 41
f 22 41 42
f 22 42 24
f 24 42 43
f 24 43 26
f 26 43 44
f 26 44 28
f 28 44 45
f 28 45 30
f 30 45 46
f 30 46 32
f 32 46 33
f 47 29 48
f 47 48 49
f 49 48 50
f 49 50 51
f 51 50 52
f 52 50 53
f 52 53 54
f 47 55 29
f 56 57 8
f 56 8 3
f 56 3 58
f 56 58 59
f 56 59 60
f 56 60 61
f 56 61 62
f 56 62 63
f 56 63 57
f 57 63 64
f 57 64 65
f 57 65 66
f 57 66 67
f 57 67 68
f 57 68 69
f 57 69 70
f 57 70 8
f 8 70 71
f 71 70 58
f 58 70 59
f 59 70 72
f 59 72 60
f 60 72 61
f 61 72 62
f 62 72 42
f 62 42 33
f 62 33 63
f 63 33 34
f 63 34 73
f 63 73 65
f 63 65 64
f 74 75 76
f 74 76 77
f 77 76 78
f 78 76 79
f 78 79 80
f 78 80 81
f 81 80 75
f 81 75 74
f 82 83 84
f 82 84 85
f 85 84 86
f 86 84 87
f 86 87 88
f 86 88 89
f 89 88 83
f 89 83 82
f 90 91 92
f 90 92 93
f 93 92 94
f 94 92 95
f 94 95 96
f 94 96 97
f 97 96 91
f 97 91 90
f 98 99 100
f 98 100 101
f 101 100 102
f 102 100 103
f 102 103 104
f 102 104 105
f 105 104 99
f 105 99 98
f 106 107 108
f 106 108 109
f 106 109 110
f 106 110 70
f 106 70 111
f 106 111 107
f 107 111 112
f 107 112 108
f 108 112 113
f 108 113 41
f 108 41 109
f 109 41 114
f 109 114 110
f 110 114 70
f 70 114 72
f 72 114 42
f 42 114 41
f 42 41 115
f 42 115 116
f 42 116 33
f 33 116 117
f 33 117 118
f 33 118 34
f 34 118 115
f 34 115 41
f 34 41 113
f 34 113 119
f 34 119 120
f 34 120 73
f 73 120 121
f 73 121 65
f 65 121 66
f 66 121 120
f 66 120 122
f 66 122 123
f 123 122 124
f 123 124 67
f 67 124 125
f 67 125 126
f 67 126 68
f 68 126 119
f 68 119 127
f 68 127 128
f 128 127 129
f 128 129 69
f 69 129 130
f 69 130 131
f 69 131 132
f 69 132 70
f 70 132 111
f 133 112 111
f 133 111 134
f 133 134 135
f 135 134 132
f 135 132 113
f 135 113 112
f 132 131 113
f 113 131 130
f 113 130 119
f 119 130 127
f 125 119 126
f 119 125 122
f 119 122 120
f 116 115 118
f 116 118 117
f 136 137 138
f 136 138 139
f 136 139 140
f 136 140 141
f 136 141 137
f 137 141 142
f 137 142 143
f 137 143 138
f 140 139 144
f 140 144 145
f 140 145 141
f 141 145 146
f 141 146 147
f 141 147 142
f 142 147 143
f 145 144 146
f 148 149 150
f 148 150 151
f 151 150 152
f 151 152 153
f 153 152 154
f 154 152 155
f 154 155 156
f 156 155 157
f 156 157 158
f 159 160 150
f 159 150 149
f 159 149 161
f 159 161 162
f 159 162 163
f 159 163 164
f 159 164 157
f 159 157 160
f 160 157 165
f 160 165 166
f 160 166 150
f 150 166 152
f 152 166 165
f 152 165 155
f 155 165 157
f 167 161 168
f 167 168 169
f 167 169 170
f 167 170 161
f 161 170 162
f 162 170 171
f 162 171 163
f 163 171 172
f 163 172 173
f 163 173 164
f 164 173 174
f 164 174 148
f 148 174 175
f 148 175 168
f 148 168 161
f 148 161 149
f 170 169 171
f 171 169 176
f 171 176 172
f 168 175 177
f 168 177 169
f 169 177 176
f 178 179 180
f 178 180 181
f 178 181 182
f 182 181 183
f 182 183 184
f 184 183 185
f 184 185 186
f 186 185 187
f 186 187 188
f 188 187 189
f 188 189 179
f 179 189 180
f 190 191 192
f 190 192 193
f 190 193 194
f 190 194 195
f 190 195 191
f 191 195 196
f 191 196 197
f 191 197 192
f 194 193 198
f 194 198 199
f 194 199 195
f 195 199 200
f 195 200 201
f 195 201 196
f 196 201 197
f 199 198 200
f 202 203 204
f 202 204 205
f 202 205 167
f 202 167 169
f 202 169 203
f 203 169 206
f 203 206 207
f 203 207 208
f 203 208 209
f 203 209 204
f 204 209 210
f 204 210 205
f 205 210 171
f 205 171 170
f 205 170 167
f 208 211 212
f 208 212 209
f 209 212 213
f 209 213 210
f 210 213 207
f 210 207 206
f 211 214 215
f 211 215 212
f 212 215 216
f 212 216 217
f 212 217 213
f 213 217 218
f 213 218 207
f 207 218 208
f 208 218 211
f 211 218 214
f 214 218 219
f 214 219 220
f 214 220 221
f 214 221 222
f 214 222 215
f 215 222 216
f 216 222 223
f 216 223 220
f 216 220 219
f 216 219 217
f 217 219 218
f 221 224 225
f 221 225 222
f 222 225 226
f 222 226 227
f 222 227 223
f 223 227 228
f 223 228 220
f 220 228 229
f 220 229 224
f 220 224 221
f 230 231 71
f 230 71 232
f 230 232 233
f 233 232 234
f 233 234 235
f 235 234 58
f 236 17 237
f 236 237 238
f 238 237 239
f 238 239 240
f 240 239 241
f 241 239 242
f 241 242 243
f 236 244 17
f 245 246 58
f 245 58 247
f 245 247 248
f 248 247 249
f 248 249 250
f 250 249 3
f 251 23 252
f 251 252 253
f 253 252 254
f 253 254 255
f 255 254 256
f 256 254 257
f 256 257 258
f 251 259 23
f 260 261 8
f 260 8 262
f 260 262 263
f 263 262 264
f 263 264 265
f 265 264 71
f 266 9 267
f 266 267 268
f 268 267 269
f 268 269 270
f 270 269 271
f 271 269 272
f 271 272 273
f 266 274 9
f 48 29 258
f 48 258 275
f 48 275 50
f 50 275 53
f 237 17 273
f 237 273 276
f 237 276 239
f 239 276 242
f 252 23 243
f 252 243 277
f 252 277 254
f 254 277 257
f 267 9 54
f 267 54 278
f 267 278 269
f 269 278 272
