# RS2 Model 9602
# Vertices: 104
# Faces: 180

v -27 -1 94
v -30 -4 95
v -30 -4 93
v -27 -1 92
v -30 4 92
v -30 4 94
v -34 0 94
v -34 0 92
v -35 -4 87
v -32 -7 88
v -27 -7 88
v -24 -7 87
v -24 1 85
v -27 5 88
v -32 5 88
v -27 -7 83
v -27 -6 79
v -32 -7 83
v -36 -6 81
v -27 3 79
v -32 5 83
v -27 5 83
v -35 3 81
v -22 0 165
v -21 1 158
v -14 0 167
v -17 1 154
v -17 5 154
v -14 6 167
v -21 5 158
v -22 6 166
v -21 5 151
v -20 5 142
v -27 6 131
v -21 1 151
v -20 1 142
v -26 0 133
v -19 0 130
v -19 6 130
v -21 0 129
v -25 0 116
v -21 5 129
v -26 0 129
v -28 0 116
v -31 -3 95
v -28 0 94
v -26 2 106
v -29 2 107
v -26 5 129
v -32 -1 102
v -34 0 95
v -30 3 94
v 30 -4 95
v 27 -1 94
v 30 -4 93
v 34 0 94
v 30 4 94
v 30 4 92
v 27 -1 92
v 24 -7 87
v 27 -7 88
v 32 -7 88
v 35 -4 87
v 34 0 92
v 27 -6 79
v 27 -7 83
v 24 1 85
v 27 3 79
v 36 -6 81
v 32 -7 83
v 27 5 83
v 32 5 83
v 27 5 88
v 32 5 88
v 35 3 81
v 21 1 158
v 22 0 165
v 14 0 167
v 17 1 154
v 21 1 151
v 21 5 158
v 22 6 166
v 21 5 151
v 17 5 154
v 14 6 167
v 20 5 142
v 20 1 142
v 26 0 133
v 27 6 131
v 19 0 130
v 19 6 130
v 25 0 116
v 21 0 129
v 21 5 129
v 26 2 106
v 28 0 94
v 31 -3 95
v 28 0 116
v 26 0 129
v 26 5 129
v 29 2 107
v 30 3 94
v 34 0 95
v 32 -1 102

f 1 2 3
f 1 3 4
f 1 4 5
f 1 5 6
f 1 6 7
f 1 7 2
f 2 7 3
f 3 7 8
f 3 8 9
f 3 9 10
f 3 10 11
f 3 11 12
f 3 12 4
f 4 12 13
f 4 13 14
f 4 14 5
f 5 14 15
f 5 15 8
f 5 8 7
f 5 7 6
f 16 17 12
f 16 12 11
f 16 11 18
f 16 18 17
f 17 18 19
f 17 19 20
f 17 20 13
f 17 13 12
f 21 22 20
f 21 20 23
f 21 23 15
f 21 15 22
f 22 15 14
f 22 14 13
f 22 13 20
f 23 19 9
f 23 9 8
f 23 8 15
f 10 9 19
f 10 19 18
f 10 18 11
f 23 20 19
f 24 25 26
f 26 25 27
f 26 27 28
f 26 28 29
f 29 28 30
f 29 30 31
f 31 30 25
f 31 25 24
f 32 30 28
f 32 28 33
f 32 33 34
f 32 34 35
f 32 35 30
f 30 35 25
f 25 35 27
f 27 35 36
f 27 36 33
f 27 33 28
f 36 35 37
f 36 37 38
f 36 38 33
f 33 38 39
f 33 39 34
f 34 39 38
f 34 38 37
f 34 37 35
f 40 41 42
f 40 42 43
f 40 43 41
f 41 43 44
f 41 44 45
f 41 45 46
f 41 46 47
f 41 47 42
f 42 47 48
f 42 48 49
f 42 49 43
f 43 49 44
f 44 49 48
f 44 48 50
f 44 50 45
f 45 50 51
f 45 51 52
f 45 52 46
f 46 52 47
f 47 52 48
f 48 52 51
f 48 51 50
f 53 54 55
f 53 55 56
f 53 56 54
f 54 56 57
f 54 57 58
f 54 58 59
f 54 59 55
f 55 59 60
f 55 60 61
f 55 61 62
f 55 62 63
f 55 63 64
f 55 64 56
f 56 64 58
f 56 58 57
f 65 66 60
f 65 60 67
f 65 67 68
f 65 68 69
f 65 69 70
f 65 70 66
f 66 70 61
f 66 61 60
f 71 72 68
f 71 68 67
f 71 67 73
f 71 73 74
f 71 74 72
f 72 74 75
f 72 75 68
f 68 75 69
f 69 75 63
f 69 63 62
f 69 62 70
f 70 62 61
f 63 75 64
f 64 75 74
f 64 74 58
f 58 74 73
f 58 73 59
f 59 73 67
f 59 67 60
f 76 77 78
f 76 78 79
f 76 79 80
f 76 80 81
f 76 81 82
f 76 82 77
f 81 83 84
f 81 84 85
f 81 85 82
f 79 78 84
f 79 84 86
f 79 86 87
f 79 87 80
f 80 87 88
f 80 88 89
f 80 89 83
f 80 83 81
f 89 86 83
f 83 86 84
f 87 90 88
f 88 90 89
f 89 90 91
f 89 91 86
f 86 91 90
f 86 90 87
f 92 93 94
f 92 94 95
f 92 95 96
f 92 96 97
f 92 97 98
f 92 98 99
f 92 99 93
f 93 99 94
f 94 99 100
f 94 100 101
f 94 101 95
f 95 101 102
f 95 102 96
f 96 102 97
f 97 102 103
f 97 103 104
f 97 104 98
f 98 104 101
f 98 101 100
f 98 100 99
f 101 103 102
f 103 101 104
f 85 84 78
