# RS2 Model 9604
# Vertices: 77
# Faces: 140

v -7 -18 191
v 0 -21 191
v -3 -14 200
v -12 -1 190
v -20 -18 189
v -12 -26 187
v 0 -30 190
v 7 -18 191
v 7 -11 199
v -2 -11 201
v -9 -2 199
v -11 -1 198
v -8 10 191
v -20 9 192
v -23 -3 193
v -21 -16 187
v -12 -26 184
v 0 -30 187
v 12 -25 189
v 21 -15 191
v 12 -1 190
v 10 0 198
v 6 -7 200
v -2 -8 205
v -7 -2 204
v -5 7 200
v -7 9 199
v -1 12 199
v -1 13 191
v -1 23 193
v -14 18 191
v -21 9 188
v -23 -2 190
v -4 -1 210
v -1 -5 210
v 0 1 218
v 3 6 212
v -2 6 206
v 0 10 200
v 8 9 198
v 9 10 191
v 14 18 192
v 0 24 190
v -15 18 187
v 2 -4 214
v 4 -1 223
v 0 -1 223
v -3 -1 219
v -3 0 213
v -3 2 212
v -3 5 219
v 0 5 223
v 4 4 223
v 6 4 220
v 6 0 211
v 6 3 204
v 1 8 206
v 7 6 199
v 19 10 193
v 21 10 189
v 15 19 189
v 6 -1 221
v 9 1 220
v 5 1 226
v 0 2 226
v -6 1 220
v -6 -2 213
v -12 -1 209
v -5 5 213
v -7 1 215
v 5 -4 205
v 6 0 205
v 8 0 199
v 21 -1 193
v 23 -2 189
v 21 -16 188
v 12 -26 186

f 1 2 3
f 1 3 4
f 1 4 5
f 1 5 6
f 1 6 7
f 1 7 2
f 2 7 8
f 2 8 3
f 3 8 9
f 3 9 10
f 3 10 11
f 3 11 12
f 3 12 4
f 4 12 13
f 4 13 14
f 4 14 15
f 4 15 5
f 5 15 16
f 5 16 6
f 6 16 17
f 6 17 18
f 6 18 7
f 7 18 19
f 7 19 8
f 8 19 20
f 8 20 21
f 8 21 9
f 9 21 22
f 9 22 23
f 9 23 10
f 10 23 24
f 10 24 25
f 10 25 11
f 11 25 26
f 11 26 27
f 11 27 12
f 12 27 13
f 13 27 28
f 13 28 29
f 13 29 30
f 13 30 31
f 13 31 14
f 14 31 32
f 14 32 33
f 14 33 15
f 15 33 16
f 34 25 24
f 34 24 35
f 34 35 36
f 34 36 37
f 34 37 38
f 34 38 25
f 25 38 26
f 26 38 39
f 26 39 27
f 27 39 28
f 28 39 40
f 28 40 41
f 28 41 29
f 29 41 30
f 30 41 42
f 30 42 43
f 30 43 31
f 31 43 44
f 31 44 32
f 36 35 45
f 36 45 46
f 36 46 47
f 36 47 48
f 36 48 49
f 36 49 50
f 36 50 51
f 36 51 52
f 36 52 53
f 36 53 54
f 36 54 37
f 37 54 55
f 37 55 56
f 37 56 57
f 37 57 38
f 38 57 39
f 39 57 58
f 39 58 40
f 40 58 22
f 40 22 21
f 40 21 41
f 41 21 59
f 41 59 42
f 42 59 60
f 42 60 61
f 42 61 43
f 46 45 62
f 46 62 63
f 46 63 64
f 46 64 65
f 46 65 47
f 47 65 66
f 47 66 48
f 48 66 67
f 48 67 49
f 49 67 68
f 49 68 50
f 50 68 69
f 50 69 51
f 51 69 70
f 51 70 66
f 51 66 52
f 52 66 65
f 52 65 64
f 52 64 53
f 53 64 54
f 54 64 63
f 54 63 55
f 55 63 62
f 55 62 45
f 55 45 35
f 55 35 71
f 55 71 72
f 55 72 56
f 56 72 73
f 56 73 58
f 56 58 57
f 21 20 74
f 21 74 59
f 59 74 60
f 60 74 75
f 75 74 20
f 75 20 76
f 76 20 19
f 76 19 77
f 77 19 18
f 66 70 67
f 67 70 68
f 68 70 69
f 23 73 72
f 23 72 71
f 23 71 24
f 24 71 35
f 22 73 23
f 73 22 58
