# RS2 Model 9610
# Vertices: 72
# Faces: 137

v 1 1 -1
v 0 -2 -1
v -1 1 -1
v -4 -12 0
v -6 -8 0
v 6 -8 0
v 4 -12 0
v -3 -16 0
v -4 -18 -1
v -6 -16 -1
v -5 -15 0
v -2 -15 7
v -5 2 12
v -9 -2 0
v 9 -2 0
v 5 2 12
v 2 -15 7
v 5 -15 0
v 6 -16 -1
v 4 -18 -1
v 3 -16 0
v -3 -19 0
v -2 -17 5
v -6 -18 -1
v -8 4 0
v 8 4 0
v -2 11 4
v -2 11 2
v 2 11 2
v 2 11 4
v 6 -8 -1
v 7 -8 -1
v 8 -7 -1
v 1 11 6
v -1 -19 7
v 1 -19 7
v 2 -17 5
v 6 -18 -1
v -1 11 6
v -1 18 4
v 0 17 1
v 1 18 4
v -6 -8 -1
v -7 -8 -1
v -8 -7 -1
v 3 -19 0
v -1 -27 0
v -4 -22 2
v -3 -21 4
v -3 -21 5
v -3 -21 6
v -3 -18 6
v 1 -27 0
v 0 -28 1
v -1 -27 3
v -3 -22 4
v 1 -27 3
v 3 -21 6
v -4 -21 8
v 3 -18 6
v 3 -21 5
v 3 -21 4
v 4 -22 2
v 4 -21 8
v 3 -22 4
v 1 24 3
v -1 24 3
v 0 24 1
v 0 31 0
v 1 31 2
v -1 31 2
v 0 36 1

f 1 2 3
f 4 5 6
f 4 6 7
f 4 7 8
f 4 8 9
f 4 9 10
f 4 10 11
f 4 11 12
f 4 12 5
f 5 12 13
f 5 13 14
f 5 14 15
f 5 15 6
f 6 15 16
f 6 16 17
f 6 17 7
f 7 17 18
f 7 18 19
f 7 19 20
f 7 20 21
f 7 21 8
f 8 21 22
f 8 22 23
f 8 23 11
f 8 11 24
f 8 24 9
f 9 24 10
f 10 24 11
f 25 26 15
f 25 15 14
f 25 14 13
f 25 13 27
f 25 27 28
f 25 28 26
f 26 28 29
f 26 29 30
f 26 30 16
f 26 16 15
f 26 15 6
f 6 15 31
f 6 31 32
f 6 32 33
f 6 33 15
f 15 33 32
f 15 32 31
f 30 34 16
f 16 34 13
f 16 13 12
f 16 12 17
f 17 12 35
f 17 35 36
f 17 36 37
f 17 37 18
f 18 37 21
f 18 21 38
f 18 38 19
f 19 38 20
f 20 38 21
f 13 39 27
f 27 39 40
f 27 40 28
f 28 40 41
f 28 41 29
f 29 41 42
f 29 42 30
f 30 42 34
f 34 42 39
f 34 39 13
f 5 14 25
f 14 5 43
f 14 43 44
f 14 44 45
f 14 45 5
f 5 45 44
f 5 44 43
f 21 46 22
f 22 46 47
f 22 47 48
f 22 48 23
f 23 48 49
f 23 49 50
f 23 50 51
f 23 51 52
f 23 52 35
f 23 35 12
f 23 12 11
f 46 53 47
f 47 53 54
f 47 54 55
f 47 55 48
f 48 55 56
f 48 56 49
f 49 56 50
f 50 56 55
f 50 55 51
f 51 55 57
f 51 57 58
f 51 58 36
f 51 36 35
f 51 35 59
f 51 59 52
f 52 59 35
f 36 60 37
f 37 60 58
f 37 58 61
f 37 61 62
f 37 62 63
f 37 63 46
f 37 46 21
f 60 64 58
f 58 64 36
f 36 64 60
f 53 46 63
f 53 63 57
f 53 57 54
f 54 57 55
f 65 61 57
f 65 57 63
f 65 63 62
f 65 62 61
f 61 58 57
f 40 42 66
f 40 66 67
f 40 67 68
f 40 68 41
f 41 68 42
f 42 68 66
f 66 68 69
f 66 69 70
f 66 70 67
f 67 70 71
f 67 71 69
f 67 69 68
f 39 42 40
f 70 69 72
f 70 72 71
f 71 72 69
