# RS2 Model 9674
# Vertices: 270
# Faces: 387

v 11 -85 9
v 11 -84 13
v 11 -86 12
v 10 -86 12
v 10 -85 9
v 10 -83 9
v 10 -81 7
v 10 -80 9
v 10 -84 13
v 8 -89 21
v 10 -94 11
v 10 -87 5
v 10 -83 7
v 6 -76 2
v 3 -72 6
v 10 -76 13
v 5 -76 23
v -5 -76 23
v -8 -89 21
v 0 -94 19
v 5 -99 13
v 7 -94 0
v 8 -90 0
v 8 -87 0
v 8 -83 1
v -11 -86 12
v -11 -84 13
v -11 -85 9
v -10 -86 12
v -10 -84 13
v -10 -80 9
v -10 -81 7
v -10 -83 9
v -10 -85 9
v -10 -94 11
v -10 -76 13
v -3 -72 6
v -6 -76 2
v -10 -83 7
v -10 -87 5
v -7 -94 0
v -5 -99 13
v 0 -96 1
v -17 -64 17
v -17 -65 9
v -13 -60 1
v -7 -65 5
v -8 -87 0
v -8 -90 0
v -8 -83 1
v 16 -59 24
v 17 -64 17
v 17 -64 4
v 13 -60 1
v 7 -65 5
v 0 -50 28
v -16 -59 24
v 0 -14 25
v 1 -14 25
v -1 -14 25
v 10 -12 23
v -10 -12 23
v -13 -41 25
v -1 -47 28
v 0 -47 25
v 1 -47 28
v 13 -41 25
v 18 -44 20
v 13 -13 12
v 11 -13 8
v 13 -37 2
v 18 -43 8
v 29 -30 20
v 29 -30 14
v 31 -25 22
v 38 -14 19
v 38 -14 13
v 31 -23 11
v -1 -62 23
v -17 -58 24
v 0 -65 21
v 1 -62 23
v 17 -58 24
v 12 -52 26
v 15 -63 17
v 19 -47 18
v 34 -34 20
v 38 -28 22
v 44 -17 19
v 48 -6 17
v 44 -5 17
v 44 -5 13
v 48 -6 13
v 45 -4 13
v 45 -4 17
v 42 4 19
v 42 5 10
v 49 12 17
v 49 12 12
v 56 8 17
v 56 8 12
v 53 -1 19
v 54 0 10
v 44 -17 13
v 34 -34 14
v 40 -28 11
v -18 -44 20
v -12 -52 26
v -13 -13 12
v -11 -13 8
v -13 -37 2
v -18 -43 8
v -22 -28 14
v -19 -47 18
v -17 -63 17
v -7 -65 17
v -8 -64 3
v 7 -65 17
v 9 -64 3
v 15 -65 3
v 26 -58 16
v 26 -53 22
v 29 -49 16
v -17 -64 9
v -26 -58 16
v -26 -61 4
v -29 -52 3
v -29 -49 16
v -29 -34 3
v -29 -30 14
v -31 -23 10
v -35 -16 0
v -35 -13 6
v -36 -4 4
v -36 -6 0
v -31 -3 4
v -31 -5 0
v -28 -12 6
v -28 -15 0
v -22 -32 2
v -23 -22 2
v -23 -19 10
v -21 -41 5
v -26 -53 22
v 29 -50 3
v 26 -57 2
v -37 -5 0
v -32 -4 0
v -32 -3 4
v -37 -3 4
v -40 -3 4
v -40 -1 -3
v -43 10 4
v -43 8 -1
v -36 14 4
v -36 12 0
v -29 4 5
v -29 5 -3
v 13 -13 7
v 13 -8 23
v 13 -12 23
v -13 -12 23
v -13 -13 7
v -13 -8 23
v -13 -9 7
v -15 5 27
v -17 4 6
v -17 10 23
v -14 44 20
v -14 40 4
v -16 54 10
v -16 53 3
v -16 62 6
v 13 -9 7
v 15 5 27
v 17 4 5
v 17 10 23
v 0 10 23
v -2 44 20
v -10 56 21
v -16 56 21
v -16 56 18
v -16 63 13
v 29 41 20
v 17 45 20
v 0 4 5
v -2 40 4
v 0 55 14
v 0 56 21
v -5 56 21
v -7 66 21
v 28 38 4
v 16 41 4
v 19 56 14
v 18 54 3
v 21 64 10
v 34 49 3
v 36 58 6
v 34 50 10
v 34 52 18
v 34 52 21
v 29 54 21
v 24 56 21
v 19 57 21
v 22 65 17
v 37 59 13
v 34 63 21
v 29 64 21
v 24 63 21
v 33 53 20
v 38 79 17
v 32 81 17
v 21 56 20
v 20 54 6
v 32 81 7
v 35 89 8
v 41 87 8
v 38 79 7
v 32 50 6
v -6 83 17
v -12 83 17
v -15 56 20
v -3 56 20
v -3 53 6
v -6 83 7
v -6 91 8
v -6 98 14
v -15 98 14
v -12 91 8
v -12 83 7
v -15 53 6
v 23 22 9
v 23 23 14
v 21 19 20
v 22 19 15
v 21 17 10
v 21 18 14
v 20 16 18
v 20 16 14
v -16 33 18
v -16 37 13
v -16 27 8
v -16 29 13
v -12 66 21
v -3 63 21
v 0 64 17
v 0 53 3
v 0 63 10
v 37 106 15
v 49 102 15
v 49 119 0
v 37 123 0
v 37 96 7
v 38 100 18
v 47 97 18
v 46 94 7
v 47 114 -2
v 37 118 -2
v 37 95 14
v 46 93 14
v -15 108 15
v -3 108 15
v 7 117 2
v -3 124 2
v -15 99 7
v -15 103 18
v -5 103 18
v -6 99 7
v 3 114 0
v -6 119 0

f 1 2 3
f 1 3 4
f 1 4 5
f 1 5 6
f 1 6 2
f 2 6 7
f 2 7 8
f 2 8 9
f 2 9 3
f 3 9 4
f 4 9 10
f 4 10 11
f 4 11 5
f 5 11 12
f 5 12 13
f 5 13 6
f 6 13 7
f 7 13 14
f 7 14 15
f 7 15 8
f 8 15 16
f 8 16 9
f 9 16 10
f 10 16 17
f 10 17 18
f 10 18 19
f 10 19 20
f 10 20 21
f 10 21 11
f 11 21 22
f 11 22 12
f 12 22 23
f 12 23 24
f 12 24 25
f 12 25 13
f 13 25 14
f 26 27 28
f 26 28 29
f 26 29 30
f 26 30 27
f 27 30 31
f 27 31 32
f 27 32 33
f 27 33 28
f 28 33 34
f 28 34 29
f 29 34 35
f 29 35 19
f 29 19 30
f 30 19 36
f 30 36 31
f 31 36 37
f 31 37 32
f 32 37 38
f 32 38 39
f 32 39 33
f 33 39 34
f 34 39 40
f 34 40 35
f 35 40 41
f 35 41 42
f 35 42 19
f 19 42 20
f 20 42 21
f 21 42 43
f 21 43 22
f 42 41 43
f 19 18 36
f 36 18 44
f 36 44 45
f 36 45 46
f 36 46 47
f 36 47 37
f 16 15 17
f 40 48 49
f 40 49 41
f 39 50 40
f 40 50 48
f 39 38 50
f 51 17 52
f 52 17 16
f 52 16 53
f 53 16 54
f 54 16 55
f 55 16 15
f 56 18 17
f 56 17 51
f 56 57 18
f 18 57 44
f 18 37 36
f 58 59 60
f 60 59 61
f 60 61 62
f 60 62 63
f 60 63 64
f 60 64 65
f 60 65 66
f 60 66 59
f 59 66 67
f 59 67 61
f 61 67 68
f 61 68 69
f 69 68 70
f 70 68 71
f 71 68 72
f 72 68 73
f 72 73 74
f 74 73 75
f 74 75 76
f 74 76 77
f 74 77 78
f 79 65 64
f 79 64 80
f 79 80 81
f 79 81 65
f 65 81 82
f 65 82 66
f 66 82 83
f 66 83 84
f 66 84 67
f 67 84 68
f 68 84 83
f 68 83 85
f 68 85 86
f 68 86 73
f 73 86 87
f 73 87 88
f 73 88 75
f 75 88 76
f 76 88 89
f 76 89 90
f 76 90 91
f 76 91 77
f 77 91 92
f 92 91 93
f 93 91 90
f 93 90 94
f 94 90 95
f 94 95 96
f 94 96 97
f 97 96 98
f 97 98 99
f 99 98 100
f 99 100 101
f 101 100 102
f 101 102 103
f 103 102 90
f 103 90 93
f 93 90 89
f 93 89 104
f 104 89 88
f 104 88 105
f 104 105 106
f 107 80 108
f 107 108 63
f 107 63 109
f 107 109 110
f 107 110 111
f 107 111 112
f 107 112 113
f 107 113 114
f 107 114 115
f 107 115 80
f 80 115 81
f 81 115 116
f 116 115 117
f 116 117 47
f 63 62 109
f 85 118 119
f 85 119 120
f 85 120 121
f 85 121 122
f 85 122 86
f 86 122 87
f 87 122 123
f 87 123 105
f 87 105 88
f 83 82 81
f 83 81 85
f 85 81 118
f 108 80 64
f 108 64 63
f 117 115 124
f 124 115 125
f 124 125 126
f 126 125 127
f 127 125 128
f 127 128 129
f 129 128 130
f 129 130 131
f 129 131 132
f 132 131 133
f 132 133 134
f 132 134 135
f 135 134 136
f 135 136 137
f 137 136 138
f 137 138 139
f 139 138 140
f 139 140 141
f 55 119 118
f 140 142 113
f 140 113 112
f 140 112 143
f 138 133 131
f 138 131 142
f 138 142 140
f 113 142 131
f 113 131 130
f 113 130 114
f 114 130 144
f 114 144 115
f 115 144 125
f 125 144 128
f 128 144 130
f 145 121 146
f 146 121 120
f 122 121 123
f 123 121 145
f 123 145 105
f 90 102 96
f 90 96 95
f 102 100 98
f 102 98 96
f 147 148 149
f 147 149 150
f 147 150 151
f 147 151 152
f 152 151 153
f 152 153 154
f 154 153 155
f 154 155 156
f 156 155 157
f 156 157 158
f 158 157 149
f 158 149 148
f 149 157 151
f 149 151 150
f 157 155 153
f 157 153 151
f 133 138 136
f 133 136 134
f 159 160 161
f 159 161 162
f 159 162 163
f 163 162 164
f 163 164 165
f 165 164 166
f 165 166 167
f 167 166 168
f 167 168 169
f 167 169 170
f 170 169 171
f 170 171 172
f 172 171 173
f 159 174 160
f 160 174 175
f 160 175 164
f 160 164 161
f 161 164 162
f 175 174 176
f 175 176 177
f 175 177 178
f 175 178 166
f 175 166 164
f 178 168 166
f 168 178 169
f 169 178 179
f 169 179 180
f 169 180 181
f 169 181 182
f 169 182 171
f 171 182 183
f 177 184 185
f 177 185 178
f 178 185 186
f 178 186 187
f 178 187 179
f 179 187 188
f 179 188 189
f 179 189 190
f 179 190 180
f 180 190 191
f 192 184 177
f 192 177 176
f 186 185 193
f 193 185 194
f 193 194 195
f 195 194 196
f 197 198 199
f 197 199 192
f 192 199 184
f 184 199 200
f 184 200 201
f 184 201 202
f 184 202 203
f 184 203 185
f 185 203 204
f 185 204 194
f 194 204 205
f 199 206 200
f 201 207 202
f 202 208 203
f 203 209 204
f 210 211 212
f 210 212 213
f 213 212 214
f 214 212 215
f 215 212 216
f 215 216 217
f 215 217 218
f 218 217 211
f 218 211 210
f 218 210 219
f 220 221 222
f 220 222 223
f 220 223 224
f 220 224 225
f 220 225 226
f 220 226 227
f 220 227 221
f 221 227 228
f 221 228 229
f 221 229 230
f 221 230 222
f 222 230 231
f 232 233 234
f 232 234 235
f 236 237 238
f 236 238 239
f 240 241 242
f 240 242 243
f 180 244 181
f 189 245 190
f 188 246 189
f 247 248 188
f 247 188 187
f 249 250 251
f 249 251 252
f 249 252 253
f 249 253 254
f 249 254 250
f 250 254 255
f 250 255 256
f 250 256 251
f 251 256 257
f 251 257 258
f 251 258 252
f 252 258 253
f 253 258 257
f 253 257 256
f 253 256 216
f 253 216 254
f 254 216 259
f 254 259 255
f 255 259 260
f 255 260 217
f 255 217 256
f 256 217 216
f 261 262 263
f 261 263 264
f 261 264 265
f 261 265 266
f 261 266 267
f 261 267 262
f 262 267 268
f 262 268 263
f 263 268 269
f 263 269 264
f 264 269 270
f 264 270 265
f 265 270 268
f 265 268 226
f 265 226 229
f 265 229 266
f 266 229 228
f 266 228 227
f 266 227 267
f 267 227 226
f 267 226 268
f 260 211 217
f 211 260 259
f 211 259 212
f 212 259 216
f 229 226 225
f 229 225 230
f 268 270 269
