# RS2 Model 9676
# Vertices: 36
# Faces: 39

v -53 60 51
v -15 54 52
v -10 57 0
v -56 62 0
v -58 15 50
v -17 11 52
v -15 8 0
v -61 12 0
v 7 32 55
v 38 50 56
v 39 54 0
v -2 34 0
v 20 -6 56
v 55 11 58
v 61 9 0
v 19 -11 0
v -27 -8 48
v -2 -20 47
v 4 -19 0
v -30 -2 0
v -47 -39 48
v -16 -56 48
v -16 -63 0
v -55 -41 0
v 56 -17 12
v 53 -6 0
v 34 -20 0
v 56 -30 0
v 12 -49 8
v 6 -49 1
v 12 -57 1
v 19 -50 1
v 35 -39 6
v 30 -42 0
v 41 -47 0
v 42 -37 0

f 1 2 3
f 1 3 4
f 1 4 5
f 1 5 2
f 2 5 6
f 2 6 7
f 2 7 3
f 6 5 8
f 6 8 7
f 5 4 8
f 9 10 11
f 9 11 12
f 9 12 13
f 9 13 10
f 10 13 14
f 10 14 15
f 10 15 11
f 14 13 16
f 14 16 15
f 13 12 16
f 17 18 19
f 17 19 20
f 17 20 21
f 17 21 18
f 18 21 22
f 18 22 23
f 18 23 19
f 22 21 24
f 22 24 23
f 21 20 24
f 25 26 27
f 25 27 28
f 25 28 26
f 29 30 31
f 29 31 32
f 29 32 30
f 33 34 35
f 33 35 36
f 33 36 34
