# RS2 Model 9685
# Vertices: 149
# Faces: 124

v -48 -64 132
v -56 -64 132
v -56 -64 190
v -48 -64 192
v -48 64 192
v -56 64 190
v -56 64 132
v -48 64 132
v 64 -64 0
v 64 64 0
v 64 64 236
v 64 -64 236
v -48 -64 236
v -48 64 236
v -48 -64 0
v -48 64 0
v -48 -58 63
v -56 -58 62
v -58 -64 62
v -48 -64 64
v -48 64 64
v -58 64 62
v -56 56 61
v -48 57 61
v -48 56 4
v -56 60 4
v -60 64 4
v -60 -60 4
v -60 -64 4
v -48 -58 4
v -56 -59 126
v -56 -59 71
v -58 -64 70
v -56 -64 126
v -48 -60 128
v -48 -59 71
v -48 -64 128
v -48 64 128
v -56 58 127
v -48 58 128
v -48 58 72
v -56 58 72
v -56 64 126
v -58 64 70
v 36 -8 240
v 4 -8 240
v 4 -60 240
v 36 -60 240
v 4 64 240
v 4 -4 240
v 36 -4 240
v 36 64 240
v 64 -28 240
v 40 -64 240
v 64 -64 240
v 40 -28 240
v 64 12 240
v 40 -24 240
v 64 -24 240
v 40 12 240
v 64 60 240
v 40 16 240
v 64 16 240
v 40 60 240
v -60 -53 169
v -60 -51 191
v -60 52 191
v -60 54 169
v -48 59 192
v -48 59 169
v -48 -58 169
v -48 -58 192
v -48 42 236
v 0 42 240
v -56 44 240
v -48 43 200
v -56 45 198
v -56 64 194
v -56 64 240
v 0 64 240
v -64 -40 240
v -4 -44 240
v -4 36 240
v -64 36 240
v -64 36 224
v -64 -40 224
v -48 -38 224
v -48 -41 236
v -48 36 236
v -48 36 224
v -56 -64 240
v -56 -52 200
v -56 -64 194
v -56 -52 240
v -48 -48 236
v -48 -48 202
v 0 -52 240
v 0 -64 240
v -69 -53 137
v -69 -51 159
v -69 52 159
v -69 54 137
v -48 59 160
v -48 59 137
v -48 -58 137
v -48 -58 160
v -70 -40 197
v -70 -39 219
v -70 31 219
v -70 33 197
v -48 36 220
v -48 36 197
v -48 -43 197
v -48 -43 220
v -60 -46 105
v -60 -44 127
v -60 45 127
v -60 47 105
v -48 51 128
v -48 51 105
v -48 -50 105
v -48 -50 128
v -60 -46 41
v -60 -44 63
v -60 45 63
v -60 47 41
v -48 51 64
v -48 51 41
v -48 -50 41
v -48 -50 64
v -69 -46 73
v -69 -44 95
v -69 45 95
v -69 47 73
v -48 51 96
v -48 51 73
v -48 -50 73
v -48 -50 96
v -69 -46 9
v -69 -44 31
v -69 45 31
v -69 47 9
v -48 51 32
v -48 51 9
v -48 -50 9
v -48 -50 32
v -66 63 238
v -66 -64 237
v 65 63 240

f 1 2 3
f 1 3 4
f 5 6 7
f 5 7 8
f 9 10 11
f 9 11 12
f 12 11 13
f 13 11 14
f 13 14 15
f 15 14 16
f 17 18 19
f 17 19 20
f 21 22 23
f 21 23 24
f 24 23 25
f 25 23 26
f 26 23 27
f 27 23 22
f 17 28 18
f 18 28 19
f 19 28 29
f 17 30 28
f 31 32 33
f 31 33 34
f 31 34 35
f 31 35 32
f 32 35 36
f 35 34 37
f 38 39 40
f 40 39 41
f 41 39 42
f 42 39 43
f 42 43 44
f 38 43 39
f 45 46 47
f 45 47 48
f 49 50 51
f 49 51 52
f 53 54 55
f 54 53 56
f 57 58 59
f 58 57 60
f 61 62 63
f 62 61 64
f 65 66 67
f 65 67 68
f 68 67 69
f 68 69 70
f 66 71 72
f 66 72 69
f 66 69 67
f 66 65 71
f 73 74 75
f 73 75 76
f 76 75 77
f 77 75 78
f 78 75 79
f 79 75 80
f 80 75 74
f 81 82 83
f 81 83 84
f 81 84 85
f 81 85 86
f 81 86 87
f 81 87 88
f 81 88 82
f 84 83 89
f 84 89 85
f 85 89 90
f 91 92 93
f 92 91 94
f 92 94 95
f 92 95 96
f 94 97 95
f 97 94 91
f 97 91 98
f 99 100 101
f 99 101 102
f 102 101 103
f 102 103 104
f 100 105 106
f 100 106 103
f 100 103 101
f 100 99 105
f 107 108 109
f 107 109 110
f 110 109 111
f 110 111 112
f 108 113 114
f 108 114 111
f 108 111 109
f 108 107 113
f 115 116 117
f 115 117 118
f 118 117 119
f 118 119 120
f 116 121 122
f 116 122 119
f 116 119 117
f 116 115 121
f 123 124 125
f 123 125 126
f 126 125 127
f 126 127 128
f 124 129 130
f 124 130 127
f 124 127 125
f 124 123 129
f 131 132 133
f 131 133 134
f 134 133 135
f 134 135 136
f 132 137 138
f 132 138 135
f 132 135 133
f 132 131 137
f 139 140 141
f 139 141 142
f 142 141 143
f 142 143 144
f 140 145 146
f 140 146 143
f 140 143 141
f 140 139 145
