# RS2 Model 9759
# Vertices: 29
# Faces: 49

v 27 30 65
v -27 30 65
v -27 19 90
v 27 19 90
v 39 -7 75
v 43 -7 65
v 46 -4 46
v 30 34 46
v 0 34 46
v 3 34 54
v -30 34 46
v -43 -7 61
v -34 -7 86
v -30 -7 94
v -14 11 94
v -11 -14 94
v 30 -7 94
v 23 -33 75
v 27 -33 68
v 18 -51 65
v 23 -59 46
v -23 -59 46
v -18 -51 65
v -46 -4 46
v 14 -48 75
v 11 -36 90
v -11 -36 90
v -27 -29 82
v 0 -21 94

f 1 2 3
f 1 3 4
f 1 4 5
f 1 5 6
f 1 6 7
f 1 7 8
f 1 8 9
f 1 9 10
f 1 10 2
f 2 10 11
f 2 11 12
f 2 12 3
f 3 12 13
f 3 13 14
f 3 14 15
f 3 15 4
f 4 15 16
f 4 16 17
f 4 17 5
f 5 17 18
f 5 18 19
f 5 19 6
f 6 19 20
f 6 20 21
f 6 21 7
f 22 21 20
f 22 20 23
f 22 23 24
f 24 23 12
f 24 12 11
f 19 25 20
f 20 25 23
f 23 25 26
f 23 26 27
f 23 27 28
f 23 28 12
f 12 28 13
f 13 28 14
f 14 28 27
f 14 27 16
f 14 16 15
f 10 9 11
f 29 16 27
f 29 27 26
f 29 26 17
f 29 17 16
f 25 19 18
f 25 18 26
f 26 18 17
