# RS2 Model 9861
# Vertices: 260
# Faces: 499

v 49 0 41
v 42 28 41
v 42 28 155
v 49 0 155
v 44 -24 41
v 50 -28 36
v 56 0 36
v 47 31 36
v 23 45 41
v 23 45 155
v 26 51 160
v 47 31 160
v 56 0 160
v 44 -24 155
v 23 -44 41
v 26 -50 36
v 26 -50 32
v 50 -28 32
v 56 0 32
v 47 31 32
v 26 51 36
v -6 50 41
v -6 50 155
v -7 57 160
v -7 57 164
v 26 51 164
v 47 31 164
v 56 0 164
v 50 -28 160
v 23 -44 155
v -6 -49 41
v -6 -57 36
v -6 -57 32
v -6 -49 27
v 23 -44 27
v 44 -24 27
v 49 0 27
v 42 28 27
v 26 51 32
v -7 57 36
v -35 36 41
v -35 36 155
v -40 42 160
v -40 42 164
v -35 36 169
v -6 50 169
v 23 45 169
v 42 28 169
v 49 0 169
v 50 -28 164
v 26 -50 160
v -6 -49 155
v -35 -36 41
v -40 -42 36
v -40 -42 32
v -35 -36 27
v -34 -35 18
v -5 -48 18
v 22 -42 18
v 43 -23 18
v 47 0 18
v 40 26 18
v 23 45 27
v -7 57 32
v -40 42 36
v -48 15 41
v -48 15 66
v -48 15 155
v -56 17 160
v -56 17 164
v -48 15 169
v -47 14 178
v -34 35 178
v -6 49 178
v 22 43 178
v 40 26 178
v 47 0 178
v 44 -24 169
v 26 -50 164
v -6 -57 160
v -35 -36 155
v -48 -14 66
v -48 -14 41
v -56 -16 36
v -56 -16 32
v -48 -14 27
v -47 -14 18
v -17 -10 10
v 11 -15 10
v 19 5 10
v 22 43 18
v -6 50 27
v -40 42 32
v -56 17 36
v -56 17 32
v -48 15 27
v -47 14 18
v -20 6 10
v -48 -14 155
v -56 -16 160
v -56 -16 164
v -48 -14 169
v -47 -14 178
v -20 -6 188
v -20 6 188
v -14 15 188
v -1 21 188
v 10 19 188
v 18 11 188
v 21 0 188
v 43 -23 178
v 23 -44 169
v -6 -57 164
v -40 -42 160
v -52 15 66
v -52 -14 66
v -52 -14 41
v -53 -9 62
v -53 -9 45
v -52 15 41
v -53 10 45
v -40 -42 164
v -35 -36 169
v -34 -35 178
v -14 -15 188
v -14 -15 193
v -20 -6 193
v -20 6 193
v -14 15 193
v -1 21 193
v 10 19 193
v 18 11 193
v 21 0 193
v 19 -10 188
v 22 -42 178
v -6 -49 169
v -5 -48 178
v -1 -21 188
v -1 -21 193
v 0 -15 194
v -10 -10 194
v -14 -4 194
v -14 4 194
v -10 10 194
v 0 15 194
v 11 9 194
v 15 0 194
v 19 -10 193
v 10 -19 188
v 10 -19 193
v 11 -9 194
v 11 -9 222
v 0 -15 222
v -10 -10 222
v -14 -4 222
v -14 4 222
v -10 10 222
v 0 15 222
v 11 9 222
v 15 0 222
v -35 36 27
v -34 35 18
v -7 18 10
v -6 49 18
v 10 19 10
v 19 0 223
v 12 -13 223
v 0 -19 223
v -12 -13 223
v -17 -5 223
v -17 5 223
v -13 13 223
v 0 19 223
v 12 14 223
v 12 14 229
v 19 0 229
v 12 -13 229
v 0 -19 229
v -12 -13 229
v -17 -5 229
v -17 5 229
v -13 13 229
v 0 19 229
v 0 15 230
v 11 10 230
v 14 0 230
v 11 -10 230
v 0 -15 230
v -10 -10 230
v -14 -4 230
v -14 4 230
v -10 10 230
v -9 10 247
v 1 15 243
v 9 10 239
v 13 0 238
v 9 -10 239
v 1 -15 243
v -9 -10 247
v -12 -4 249
v -12 4 249
v 0 4 267
v 2 10 264
v 9 15 255
v 15 10 249
v 17 0 245
v 15 -10 249
v 9 -15 255
v 2 -10 264
v 0 -4 267
v 27 -3 272
v 27 3 272
v 27 10 269
v 27 14 260
v 27 10 252
v 27 0 246
v 27 -10 252
v 27 -14 260
v 27 -9 269
v 29 -12 272
v 29 -4 277
v 29 4 277
v 29 13 272
v 29 17 262
v 29 12 249
v 29 0 243
v 29 -12 249
v 29 -17 262
v 33 -17 262
v 33 -12 272
v 33 -4 277
v 33 4 277
v 33 13 272
v 33 17 262
v 33 12 249
v 33 0 243
v 33 -12 249
v 35 -10 252
v 35 -13 261
v 35 -10 269
v 35 -2 272
v 35 2 272
v 35 10 269
v 35 13 261
v 35 10 252
v 35 0 246
v 64 0 246
v 64 -10 252
v 64 -13 261
v 64 -10 269
v 64 -2 272
v 64 2 272
v 64 10 269
v 64 13 261
v 64 10 252
v -53 10 62
v -64 10 62
v -64 -9 62
v -64 -9 45
v -64 10 45

f 1 2 3
f 1 3 4
f 1 4 5
f 1 5 6
f 1 6 7
f 1 7 2
f 2 7 8
f 2 8 9
f 2 9 10
f 2 10 3
f 3 10 11
f 3 11 12
f 3 12 4
f 4 12 13
f 4 13 14
f 4 14 5
f 5 14 15
f 5 15 16
f 5 16 6
f 6 16 17
f 6 17 18
f 6 18 7
f 7 18 19
f 7 19 8
f 8 19 20
f 8 20 21
f 8 21 9
f 9 21 22
f 9 22 23
f 9 23 10
f 10 23 24
f 10 24 11
f 11 24 25
f 11 25 26
f 11 26 12
f 12 26 27
f 12 27 13
f 13 27 28
f 13 28 29
f 13 29 14
f 14 29 30
f 14 30 15
f 15 30 31
f 15 31 32
f 15 32 16
f 16 32 33
f 16 33 17
f 17 33 34
f 17 34 35
f 17 35 18
f 18 35 36
f 18 36 19
f 19 36 37
f 19 37 20
f 20 37 38
f 20 38 39
f 20 39 21
f 21 39 40
f 21 40 22
f 22 40 41
f 22 41 42
f 22 42 23
f 23 42 43
f 23 43 24
f 24 43 44
f 24 44 25
f 25 44 45
f 25 45 46
f 25 46 26
f 26 46 47
f 26 47 27
f 27 47 48
f 27 48 28
f 28 48 49
f 28 49 50
f 28 50 29
f 29 50 51
f 29 51 30
f 30 51 52
f 30 52 31
f 31 52 53
f 31 53 54
f 31 54 32
f 32 54 55
f 32 55 33
f 33 55 56
f 33 56 34
f 34 56 57
f 34 57 58
f 34 58 35
f 35 58 59
f 35 59 36
f 36 59 60
f 36 60 37
f 37 60 61
f 37 61 38
f 38 61 62
f 38 62 63
f 38 63 39
f 39 63 64
f 39 64 40
f 40 64 65
f 40 65 41
f 41 65 66
f 41 66 67
f 41 67 68
f 41 68 42
f 42 68 69
f 42 69 43
f 43 69 70
f 43 70 44
f 44 70 71
f 44 71 45
f 45 71 72
f 45 72 73
f 45 73 46
f 46 73 74
f 46 74 47
f 47 74 75
f 47 75 48
f 48 75 76
f 48 76 49
f 49 76 77
f 49 77 78
f 49 78 50
f 50 78 79
f 50 79 51
f 51 79 80
f 51 80 52
f 52 80 81
f 52 81 53
f 53 81 82
f 53 82 83
f 53 83 84
f 53 84 54
f 54 84 85
f 54 85 55
f 55 85 86
f 55 86 56
f 56 86 87
f 56 87 57
f 57 87 88
f 57 88 58
f 58 88 89
f 58 89 59
f 59 89 60
f 60 89 61
f 61 89 90
f 61 90 62
f 62 90 91
f 62 91 63
f 63 91 92
f 63 92 64
f 64 92 93
f 64 93 65
f 65 93 94
f 65 94 66
f 66 94 83
f 83 94 84
f 84 94 95
f 84 95 85
f 85 95 96
f 85 96 86
f 86 96 97
f 86 97 87
f 87 97 98
f 87 98 88
f 68 99 100
f 68 100 69
f 69 100 101
f 69 101 70
f 70 101 102
f 70 102 71
f 71 102 103
f 71 103 72
f 72 103 104
f 72 104 105
f 72 105 73
f 73 105 106
f 73 106 74
f 74 106 107
f 74 107 75
f 75 107 108
f 75 108 76
f 76 108 109
f 76 109 77
f 77 109 110
f 77 110 111
f 77 111 78
f 78 111 112
f 78 112 79
f 79 112 113
f 79 113 80
f 80 113 114
f 80 114 81
f 81 114 99
f 81 99 82
f 82 99 67
f 82 67 115
f 82 115 116
f 82 116 83
f 83 116 117
f 117 116 118
f 117 118 119
f 117 119 120
f 120 119 121
f 120 121 115
f 120 115 67
f 120 67 66
f 99 114 100
f 100 114 122
f 100 122 101
f 101 122 123
f 101 123 102
f 102 123 124
f 102 124 103
f 103 124 125
f 103 125 104
f 104 125 126
f 104 126 127
f 104 127 105
f 105 127 128
f 105 128 106
f 106 128 129
f 106 129 107
f 107 129 130
f 107 130 108
f 108 130 131
f 108 131 109
f 109 131 132
f 109 132 110
f 110 132 133
f 110 133 134
f 110 134 111
f 111 134 135
f 111 135 112
f 112 135 136
f 112 136 113
f 113 136 122
f 113 122 114
f 122 136 123
f 123 136 137
f 123 137 124
f 124 137 138
f 124 138 125
f 125 138 139
f 125 139 126
f 126 139 140
f 126 140 141
f 126 141 127
f 127 141 142
f 127 142 128
f 128 142 143
f 128 143 129
f 129 143 144
f 129 144 130
f 130 144 145
f 130 145 131
f 131 145 146
f 131 146 132
f 132 146 147
f 132 147 133
f 133 147 148
f 133 148 134
f 134 148 149
f 134 149 135
f 135 149 137
f 135 137 136
f 137 149 138
f 138 149 150
f 138 150 139
f 139 150 151
f 139 151 140
f 140 151 152
f 140 152 153
f 140 153 141
f 141 153 154
f 141 154 142
f 142 154 155
f 142 155 143
f 143 155 156
f 143 156 144
f 144 156 157
f 144 157 145
f 145 157 158
f 145 158 146
f 146 158 159
f 146 159 147
f 147 159 160
f 147 160 151
f 147 151 150
f 147 150 148
f 148 150 149
f 93 95 94
f 95 93 161
f 95 161 96
f 96 161 162
f 96 162 97
f 97 162 163
f 97 163 98
f 92 161 93
f 161 92 164
f 161 164 162
f 162 164 163
f 163 164 165
f 165 164 91
f 165 91 90
f 91 164 92
f 151 160 152
f 152 160 166
f 152 166 167
f 152 167 153
f 153 167 168
f 153 168 154
f 154 168 169
f 154 169 155
f 155 169 170
f 155 170 156
f 156 170 171
f 156 171 157
f 157 171 172
f 157 172 158
f 158 172 173
f 158 173 159
f 159 173 174
f 159 174 160
f 160 174 166
f 166 174 175
f 166 175 176
f 166 176 167
f 167 176 177
f 167 177 168
f 168 177 178
f 168 178 169
f 169 178 179
f 169 179 170
f 170 179 180
f 170 180 171
f 171 180 181
f 171 181 172
f 172 181 182
f 172 182 173
f 173 182 183
f 173 183 174
f 174 183 175
f 175 183 184
f 175 184 185
f 175 185 176
f 176 185 186
f 176 186 177
f 177 186 187
f 177 187 178
f 178 187 188
f 178 188 179
f 179 188 189
f 179 189 180
f 180 189 190
f 180 190 181
f 181 190 191
f 181 191 182
f 182 191 192
f 182 192 183
f 183 192 184
f 184 192 193
f 184 193 194
f 184 194 185
f 185 194 195
f 185 195 186
f 186 195 196
f 186 196 187
f 187 196 197
f 187 197 188
f 188 197 198
f 188 198 189
f 189 198 199
f 189 199 190
f 190 199 200
f 190 200 191
f 191 200 201
f 191 201 192
f 192 201 193
f 193 201 202
f 193 202 203
f 193 203 194
f 194 203 204
f 194 204 195
f 195 204 205
f 195 205 196
f 196 205 206
f 196 206 197
f 197 206 207
f 197 207 198
f 198 207 208
f 198 208 199
f 199 208 209
f 199 209 200
f 200 209 210
f 200 210 201
f 201 210 202
f 202 210 211
f 202 211 212
f 202 212 203
f 203 212 213
f 203 213 204
f 204 213 214
f 204 214 205
f 205 214 215
f 205 215 206
f 206 215 216
f 206 216 207
f 207 216 217
f 207 217 208
f 208 217 218
f 208 218 209
f 209 218 219
f 209 219 210
f 210 219 211
f 211 219 220
f 211 220 221
f 211 221 212
f 212 221 222
f 212 222 213
f 213 222 223
f 213 223 214
f 214 223 224
f 214 224 215
f 215 224 225
f 215 225 216
f 216 225 226
f 216 226 217
f 217 226 227
f 217 227 218
f 218 227 228
f 218 228 219
f 219 228 220
f 220 228 229
f 220 229 230
f 220 230 221
f 221 230 231
f 221 231 222
f 222 231 232
f 222 232 223
f 223 232 233
f 223 233 224
f 224 233 234
f 224 234 225
f 225 234 235
f 225 235 226
f 226 235 236
f 226 236 227
f 227 236 237
f 227 237 228
f 228 237 229
f 229 237 238
f 229 238 239
f 229 239 230
f 230 239 240
f 230 240 231
f 231 240 241
f 231 241 232
f 232 241 242
f 232 242 233
f 233 242 243
f 233 243 234
f 234 243 244
f 234 244 235
f 235 244 245
f 235 245 236
f 236 245 246
f 236 246 237
f 237 246 238
f 238 246 247
f 238 247 248
f 238 248 239
f 239 248 249
f 239 249 240
f 240 249 250
f 240 250 241
f 241 250 251
f 241 251 242
f 242 251 252
f 242 252 243
f 243 252 253
f 243 253 244
f 244 253 254
f 244 254 245
f 245 254 255
f 245 255 246
f 246 255 247
f 67 99 68
f 115 121 256
f 115 256 116
f 116 256 118
f 118 256 257
f 118 257 258
f 118 258 119
f 119 258 259
f 256 121 260
f 256 260 257
