# RS2 Model 9863
# Vertices: 98
# Faces: 199

v -1 25 58
v -2 21 44
v 3 17 46
v 3 25 57
v 6 28 76
v 3 31 79
v 0 29 57
v 3 21 43
v -2 37 55
v -13 30 58
v -3 15 49
v -1 22 64
v -1 19 66
v -3 19 63
v -1 5 63
v 7 17 46
v 6 34 77
v 16 19 90
v 18 10 2
v 0 -13 1
v -20 9 4
v 14 12 3
v 15 15 5
v 18 16 8
v 14 15 16
v 17 -19 20
v 14 -8 30
v -17 -22 22
v -24 -3 11
v -20 3 24
v -12 16 17
v 7 22 7
v 10 21 5
v 7 14 2
v -12 -9 29
v -12 -9 30
v 0 -9 42
v -28 8 34
v -18 25 29
v -2 19 12
v 11 19 14
v 7 24 5
v 9 23 3
v 12 19 1
v 14 21 2
v 16 19 3
v 18 17 6
v 16 21 10
v 17 18 10
v 20 25 29
v -2 34 25
v -2 29 42
v 11 24 46
v 12 3 48
v -10 1 48
v -16 12 46
v -10 24 46
v -2 30 44
v -1 46 58
v 16 34 59
v 12 2 50
v -16 15 49
v -13 23 47
v -15 30 48
v -18 37 59
v 0 -1 68
v -28 17 63
v -22 21 53
v -20 21 52
v -18 20 47
v -18 21 47
v -21 24 48
v -18 27 45
v -16 24 51
v -15 21 47
v -18 23 53
v -22 21 48
v -24 23 53
v -22 25 48
v -22 20 60
v -23 27 58
v -12 15 49
v -10 22 64
v -5 19 63
v -3 23 73
v -1 23 72
v -3 22 73
v -3 25 75
v -10 23 72
v -10 19 66
v 15 23 4
v 10 26 10
v 15 26 10
v -22 32 58
v -20 32 55
v -22 32 55
v -26 31 55
v -26 28 58

f 1 2 3
f 1 3 4
f 1 4 5
f 1 5 6
f 1 6 7
f 1 7 2
f 2 7 8
f 2 8 9
f 2 9 10
f 2 10 11
f 2 11 3
f 3 11 12
f 3 12 13
f 3 13 14
f 3 14 11
f 3 11 15
f 3 15 16
f 3 16 8
f 3 8 7
f 3 7 4
f 4 7 17
f 4 17 5
f 5 17 18
f 5 18 6
f 6 18 17
f 6 17 7
f 19 20 21
f 19 21 22
f 19 22 23
f 19 23 24
f 19 24 25
f 19 25 26
f 26 25 27
f 26 27 28
f 26 28 20
f 20 28 29
f 20 29 21
f 21 29 30
f 21 30 31
f 21 31 32
f 21 32 33
f 21 33 34
f 21 34 22
f 22 34 33
f 20 29 19
f 27 35 28
f 28 35 29
f 29 35 30
f 30 35 36
f 30 36 37
f 30 37 38
f 30 38 31
f 31 38 39
f 31 39 40
f 31 40 32
f 32 40 41
f 32 41 42
f 32 42 43
f 32 43 33
f 33 43 34
f 34 43 44
f 44 43 45
f 44 45 22
f 22 45 46
f 22 46 23
f 23 46 47
f 23 47 24
f 24 47 48
f 24 48 49
f 24 49 25
f 25 49 41
f 25 41 27
f 27 41 50
f 27 50 37
f 27 37 36
f 27 36 35
f 40 39 51
f 40 51 41
f 41 51 50
f 50 51 52
f 50 52 53
f 50 53 37
f 37 53 54
f 37 54 55
f 37 55 38
f 38 55 56
f 38 56 39
f 39 56 57
f 39 57 51
f 51 57 52
f 52 57 58
f 52 58 53
f 53 58 59
f 53 59 60
f 53 60 61
f 53 61 54
f 54 61 55
f 55 61 62
f 55 62 56
f 56 62 57
f 57 62 63
f 57 63 64
f 57 64 65
f 57 65 58
f 58 65 59
f 59 65 10
f 59 10 9
f 61 66 55
f 55 66 62
f 62 66 67
f 62 67 68
f 62 68 69
f 62 69 70
f 62 70 71
f 62 71 63
f 63 71 72
f 63 72 73
f 63 73 74
f 63 74 75
f 75 74 76
f 75 76 70
f 70 76 69
f 70 69 77
f 70 77 71
f 71 77 72
f 72 77 78
f 72 78 79
f 72 79 73
f 73 79 64
f 73 64 74
f 74 64 63
f 61 60 66
f 66 60 15
f 66 15 67
f 67 15 80
f 67 80 65
f 67 65 81
f 67 81 68
f 68 81 78
f 68 78 77
f 68 77 69
f 60 66 59
f 80 10 65
f 10 80 82
f 10 82 11
f 11 82 83
f 11 83 84
f 11 84 82
f 11 82 15
f 15 82 80
f 12 11 14
f 12 14 85
f 12 85 86
f 12 86 13
f 13 86 14
f 14 86 87
f 14 87 85
f 85 87 86
f 85 86 88
f 85 88 89
f 85 89 86
f 86 89 88
f 89 85 84
f 89 84 83
f 89 83 90
f 89 90 87
f 89 87 85
f 85 87 84
f 84 87 90
f 84 90 82
f 82 90 83
f 8 60 9
f 60 8 15
f 15 8 16
f 91 47 46
f 91 46 45
f 91 45 42
f 91 42 92
f 91 92 93
f 91 93 47
f 47 93 48
f 48 93 41
f 48 41 49
f 42 45 43
f 41 93 92
f 41 92 42
f 94 95 96
f 94 96 97
f 94 97 98
f 94 98 81
f 94 81 65
f 94 65 95
f 95 65 64
f 95 64 96
f 96 64 97
f 97 64 79
f 97 79 98
f 98 79 78
f 98 78 81
