# RS2 Model 9881
# Vertices: 125
# Faces: 178

v -64 64 100
v -64 -64 100
v 64 -64 40
v 64 64 40
v 63 29 61
v 64 -36 60
v 63 -36 51
v 62 29 51
v 64 64 60
v 37 64 64
v 32 30 65
v 34 -34 65
v 64 -64 60
v 63 -64 51
v 63 64 51
v 37 -64 64
v 33 -34 55
v 36 -64 55
v 31 30 55
v 36 64 55
v 40 64 73
v 43 47 73
v 42 48 65
v 39 64 64
v 4 -64 80
v 5 -40 80
v 3 -40 71
v 2 -64 71
v 7 44 72
v 7 45 81
v 2 64 71
v 4 64 80
v 40 -42 73
v 40 -64 73
v 39 -64 64
v 39 -42 65
v 9 -20 87
v 9 -64 87
v 7 -64 80
v 7 -20 80
v 10 53 87
v -34 56 96
v -34 -25 96
v -34 -64 96
v -35 -25 88
v -35 -64 88
v 9 53 80
v 9 64 87
v -34 64 96
v -35 64 88
v -36 56 88
v 7 64 80
v -64 52 101
v -64 -48 101
v -63 -48 110
v -63 52 110
v -64 64 101
v -63 64 110
v -28 47 104
v -27 64 104
v -29 47 95
v -27 64 95
v -63 -64 110
v -64 -64 101
v -27 -15 104
v -28 -15 95
v -27 -64 104
v -27 -64 95
v 47 0 356
v 47 0 57
v 33 34 356
v 43 43 387
v 60 0 387
v 33 -34 356
v 33 -34 65
v 33 34 65
v 0 48 356
v 0 60 387
v 0 60 394
v 43 43 394
v 60 0 394
v 43 -43 387
v 0 -48 356
v 0 -48 84
v 0 48 84
v -33 34 356
v -43 43 387
v -43 43 394
v -51 51 438
v 0 71 469
v 51 51 438
v 71 0 469
v 43 -43 394
v 0 -60 387
v -33 -34 356
v -33 -34 103
v -33 34 103
v -47 0 356
v -60 0 387
v -60 0 394
v -71 0 469
v -59 0 466
v -42 42 436
v 0 59 466
v 42 42 436
v 59 0 466
v 51 -51 438
v 0 -60 394
v -43 -43 387
v -47 0 110
v -43 -43 394
v -51 -51 438
v -42 -42 436
v -32 -32 376
v -39 0 377
v -28 28 377
v 0 40 376
v 28 28 377
v 39 0 377
v 42 -42 436
v 0 -71 469
v 0 -59 466
v 0 -40 377
v 0 0 87
v 28 -28 377

f 1 2 3
f 1 3 4
f 5 6 7
f 5 7 8
f 5 8 9
f 5 9 10
f 5 10 11
f 5 11 6
f 6 11 12
f 6 12 13
f 6 13 14
f 6 14 7
f 9 8 15
f 16 12 17
f 16 17 18
f 19 17 12
f 19 12 11
f 19 11 20
f 20 11 10
f 21 22 23
f 21 23 24
f 25 26 27
f 25 27 28
f 29 27 26
f 29 26 30
f 29 30 31
f 31 30 32
f 32 30 22
f 32 22 21
f 33 34 35
f 33 35 36
f 33 36 22
f 33 22 30
f 33 30 26
f 33 26 34
f 34 26 25
f 22 36 23
f 37 38 39
f 37 39 40
f 37 40 41
f 37 41 42
f 37 42 43
f 37 43 38
f 38 43 44
f 44 43 45
f 44 45 46
f 41 40 47
f 41 47 48
f 41 48 49
f 41 49 42
f 42 49 50
f 42 50 51
f 42 51 43
f 43 51 45
f 48 47 52
f 53 54 55
f 53 55 56
f 53 56 57
f 57 56 58
f 58 56 59
f 58 59 60
f 60 59 61
f 60 61 62
f 63 55 54
f 63 54 64
f 59 65 66
f 59 66 61
f 65 67 68
f 65 68 66
f 12 16 13
f 56 55 65
f 56 65 59
f 55 63 67
f 55 67 65
f 69 70 71
f 69 71 72
f 69 72 73
f 69 73 74
f 69 74 75
f 69 75 70
f 71 70 76
f 71 76 77
f 71 77 78
f 71 78 72
f 72 78 79
f 72 79 80
f 72 80 73
f 73 80 81
f 73 81 82
f 73 82 74
f 74 82 83
f 74 83 84
f 74 84 75
f 77 76 85
f 77 85 86
f 77 86 87
f 77 87 78
f 78 87 88
f 78 88 79
f 79 88 89
f 79 89 90
f 79 90 80
f 80 90 91
f 80 91 81
f 81 91 92
f 81 92 93
f 81 93 82
f 82 93 94
f 82 94 83
f 83 94 95
f 83 95 96
f 83 96 84
f 86 85 97
f 86 97 98
f 86 98 99
f 86 99 87
f 87 99 100
f 87 100 88
f 88 100 101
f 88 101 89
f 89 101 102
f 89 102 103
f 89 103 90
f 90 103 104
f 90 104 91
f 91 104 105
f 91 105 92
f 92 105 106
f 92 106 107
f 92 107 93
f 93 107 108
f 93 108 94
f 94 108 109
f 94 109 95
f 95 109 98
f 95 98 110
f 95 110 96
f 98 97 110
f 98 109 99
f 99 109 111
f 99 111 100
f 100 111 112
f 100 112 101
f 101 112 113
f 101 113 102
f 102 113 114
f 102 114 115
f 102 115 103
f 103 115 116
f 103 116 104
f 104 116 117
f 104 117 105
f 105 117 118
f 105 118 106
f 106 118 119
f 106 119 120
f 106 120 107
f 107 120 121
f 107 121 108
f 108 121 111
f 108 111 109
f 111 121 112
f 112 121 122
f 112 122 113
f 113 122 123
f 113 123 114
f 114 123 124
f 114 124 115
f 115 124 116
f 116 124 117
f 117 124 118
f 118 124 119
f 119 124 125
f 119 125 120
f 120 125 122
f 120 122 121
f 125 124 123
f 125 123 122
