# RS2 Model 9889
# Vertices: 24
# Faces: 36

v -55 -55 214
v -61 -57 215
v -61 -61 195
v -55 -59 195
v -55 59 182
v -61 57 182
v -61 53 163
v -55 55 162
v -55 -61 55
v -61 -62 54
v -61 -50 38
v -55 -48 40
v -53 52 107
v -59 50 105
v -59 63 90
v -53 64 91
v -55 -54 185
v -61 -55 185
v -61 -63 167
v -55 -62 166
v -55 63 125
v -61 62 126
v -61 54 107
v -55 55 107

f 1 2 3
f 1 3 4
f 1 4 5
f 1 5 2
f 2 5 6
f 2 6 7
f 2 7 3
f 3 7 4
f 4 7 8
f 4 8 5
f 5 8 6
f 6 8 7
f 9 10 11
f 9 11 12
f 9 12 13
f 9 13 10
f 10 13 14
f 10 14 15
f 10 15 11
f 11 15 12
f 12 15 16
f 12 16 13
f 13 16 14
f 14 16 15
f 17 18 19
f 17 19 20
f 17 20 21
f 17 21 18
f 18 21 22
f 18 22 23
f 18 23 19
f 19 23 20
f 20 23 24
f 20 24 21
f 21 24 22
f 22 24 23
