# RS2 Model 9914
# Vertices: 153
# Faces: 271

v 4 -17 188
v 6 -17 189
v 1 -17 189
v 4 -17 187
v 8 -15 185
v 10 -12 190
v 8 -17 192
v 3 -17 192
v 3 -17 190
v 0 -18 192
v 0 -19 188
v 0 -20 184
v 2 -17 183
v 6 -13 178
v 10 -10 186
v 10 -8 188
v 10 -6 197
v 7 -17 196
v 3 -19 193
v 0 -17 196
v 0 4 193
v 0 -17 183
v 0 -16 175
v 3 -9 175
v 10 -9 184
v 10 -8 186
v 11 -8 188
v 10 -5 189
v 8 4 193
v 5 -4 202
v 0 -16 198
v 8 -2 180
v 5 2 179
v 10 -4 187
v 10 -7 183
v 11 -4 187
v 11 -5 189
v 0 -4 202
v 0 2 198
v 0 2 179
v 0 -9 175
v 7 -8 170
v 7 4 171
v 0 4 171
v 0 -8 170
v 0 -12 159
v 18 -8 150
v 18 8 150
v 17 4 169
v 17 -4 169
v 13 -12 159
v 17 -11 129
v 18 9 132
v 11 11 135
v 6 9 161
v 6 -14 159
v 11 -13 131
v 11 -8 120
v 8 -8 134
v 0 -8 134
v 0 -8 120
v 13 -8 116
v 13 8 116
v 13 8 120
v 11 5 134
v 0 8 118
v 0 5 134
v 0 9 164
v 0 11 132
v 3 11 130
v 0 7 168
v 0 -13 129
v 4 -12 125
v 23 -2 136
v 25 -2 120
v 25 -4 127
v 32 -4 129
v 31 -2 138
v 30 -5 148
v 22 -5 148
v 20 -5 151
v 23 3 136
v 23 5 131
v 25 4 120
v 28 3 109
v 28 -1 109
v 32 -2 120
v 32 5 132
v 31 3 138
v 31 3 152
v 31 -5 152
v 21 5 150
v 31 5 151
v 32 4 120
v 32 3 109
v 32 -1 109
v 19 3 150
v 28 4 165
v 16 4 169
v 16 -4 169
v 28 -4 165
v 33 8 151
v 17 8 150
v 17 -8 150
v 33 -8 151
v 32 3 108
v 28 3 108
v 28 -1 108
v 32 -1 108
v 35 -4 100
v 35 5 102
v 27 5 102
v 27 -4 100
v 33 3 99
v 30 3 98
v 30 -2 97
v 33 -2 98
v 0 7 100
v 0 -5 100
v 0 -8 116
v 17 -8 103
v 15 13 103
v 0 9 98
v 3 -9 67
v 15 -9 67
v 15 7 64
v 17 9 98
v 3 7 64
v 1 -9 54
v 17 -9 54
v 17 9 52
v 1 9 52
v 6 -4 24
v 12 -4 24
v 12 6 25
v 6 6 25
v 6 -3 16
v 12 -3 16
v 15 4 10
v 6 4 10
v 5 8 5
v 6 -3 8
v 15 -3 8
v 15 8 5
v 15 5 0
v 3 5 0
v 3 -16 0
v 5 -18 5
v 15 -18 5
v 15 -16 0
v 0 6 0
v 6 -2 0
v -6 -2 0

f 1 2 3
f 1 3 4
f 1 4 2
f 2 4 5
f 2 5 6
f 2 6 7
f 2 7 8
f 2 8 9
f 2 9 3
f 3 9 8
f 3 8 10
f 3 10 11
f 3 11 12
f 3 12 13
f 3 13 4
f 4 13 5
f 5 13 14
f 5 14 15
f 5 15 6
f 6 15 16
f 6 16 17
f 6 17 18
f 6 18 7
f 7 18 19
f 7 19 8
f 8 19 10
f 10 19 20
f 10 20 21
f 10 21 11
f 11 21 12
f 12 21 22
f 22 21 23
f 22 23 13
f 13 23 14
f 14 23 24
f 14 24 25
f 14 25 15
f 15 25 26
f 15 26 16
f 16 26 27
f 16 27 28
f 16 28 17
f 17 28 29
f 17 29 30
f 17 30 18
f 18 30 31
f 18 31 20
f 18 20 19
f 32 24 33
f 32 33 29
f 32 29 34
f 32 34 35
f 32 35 24
f 24 35 25
f 25 35 36
f 25 36 26
f 26 36 27
f 27 36 37
f 27 37 28
f 28 37 34
f 28 34 29
f 35 34 36
f 36 34 37
f 30 38 31
f 31 38 20
f 20 38 39
f 20 39 21
f 21 39 29
f 21 29 33
f 21 33 40
f 21 40 41
f 21 41 23
f 23 41 24
f 24 41 42
f 24 42 43
f 24 43 33
f 33 43 40
f 40 43 44
f 40 44 41
f 41 44 45
f 45 44 46
f 45 46 42
f 45 42 40
f 40 42 41
f 39 38 30
f 39 30 29
f 47 48 49
f 47 49 50
f 47 50 51
f 47 51 52
f 47 52 53
f 47 53 48
f 48 53 54
f 48 54 55
f 48 55 43
f 48 43 49
f 49 43 50
f 50 43 42
f 50 42 56
f 50 56 51
f 51 56 57
f 51 57 52
f 58 59 60
f 58 60 61
f 58 61 62
f 58 62 63
f 58 63 64
f 58 64 59
f 59 64 65
f 65 64 66
f 65 66 67
f 67 66 61
f 67 61 60
f 67 60 46
f 67 46 68
f 67 68 69
f 69 68 55
f 69 55 70
f 70 55 54
f 71 44 43
f 71 43 68
f 71 68 46
f 71 46 44
f 72 73 56
f 72 56 46
f 72 46 60
f 73 57 56
f 42 46 56
f 43 55 68
f 74 75 76
f 74 76 77
f 74 77 78
f 74 78 79
f 74 79 80
f 74 80 81
f 74 81 82
f 74 82 83
f 74 83 84
f 74 84 75
f 75 84 85
f 75 85 86
f 75 86 87
f 75 87 76
f 76 87 77
f 77 87 78
f 78 87 88
f 78 88 89
f 78 89 90
f 78 90 91
f 78 91 79
f 79 91 80
f 80 91 81
f 88 84 83
f 88 83 82
f 88 82 89
f 89 82 92
f 89 92 93
f 89 93 90
f 88 94 84
f 84 94 95
f 84 95 85
f 85 95 86
f 86 95 96
f 86 96 87
f 87 96 94
f 87 94 88
f 97 92 82
f 97 82 81
f 98 99 100
f 98 100 101
f 98 101 102
f 98 102 99
f 99 102 103
f 99 103 104
f 99 104 100
f 100 104 105
f 100 105 101
f 101 105 102
f 102 105 103
f 103 105 104
f 106 107 108
f 106 108 109
f 106 109 110
f 106 110 111
f 106 111 112
f 106 112 107
f 107 112 108
f 108 112 113
f 108 113 110
f 108 110 109
f 111 114 115
f 111 115 112
f 112 115 113
f 113 115 116
f 113 116 117
f 113 117 110
f 110 117 111
f 111 117 114
f 114 117 116
f 114 116 115
f 96 95 94
f 66 64 63
f 66 63 118
f 66 118 119
f 66 119 120
f 66 120 61
f 61 120 62
f 62 120 119
f 62 119 121
f 62 121 122
f 62 122 63
f 63 122 118
f 118 122 123
f 118 123 119
f 119 123 124
f 119 124 121
f 121 124 125
f 121 125 126
f 121 126 127
f 121 127 122
f 122 127 123
f 123 127 126
f 123 126 128
f 123 128 124
f 124 128 129
f 124 129 125
f 125 129 130
f 125 130 131
f 125 131 126
f 126 131 128
f 128 131 132
f 128 132 129
f 129 132 133
f 129 133 130
f 130 133 134
f 130 134 135
f 130 135 131
f 131 135 132
f 132 135 136
f 132 136 133
f 133 136 137
f 133 137 138
f 133 138 134
f 134 138 135
f 135 138 139
f 135 139 140
f 135 140 136
f 136 140 137
f 137 140 141
f 137 141 142
f 137 142 143
f 137 143 138
f 138 143 144
f 138 144 139
f 139 144 140
f 140 144 141
f 141 144 145
f 141 145 146
f 141 146 142
f 142 146 147
f 142 147 148
f 142 148 149
f 142 149 143
f 143 149 150
f 143 150 145
f 143 145 144
f 151 152 153
f 150 147 146
f 150 146 145
f 150 149 148
f 150 148 147
