# RS2 Model 9917
# Vertices: 342
# Faces: 523

v 4 -17 187
v 6 -17 188
v 1 -17 188
v 4 -17 186
v 8 -15 184
v 10 -12 189
v 8 -17 191
v 3 -17 191
v 3 -17 189
v 0 -18 191
v 0 -19 187
v 0 -20 183
v 2 -17 182
v 6 -13 177
v 10 -10 185
v 10 -8 187
v 10 -6 196
v 7 -17 195
v 3 -19 192
v 0 -17 195
v -3 -19 192
v -3 -17 191
v -1 -17 188
v -2 -17 182
v -4 -17 186
v -8 -15 184
v -6 -13 177
v 0 -16 174
v 3 -9 174
v 10 -9 183
v 10 -8 185
v 11 -8 187
v 10 -5 188
v 8 4 192
v 5 -4 201
v 0 -16 197
v -6 -17 188
v -4 -17 187
v -10 -12 189
v -10 -10 185
v -10 -9 183
v -3 -9 174
v -7 -8 169
v 7 -8 169
v 7 4 170
v 5 2 178
v 8 -2 179
v 10 -7 182
v 11 -4 186
v 11 -5 188
v 10 -4 186
v -5 2 178
v -8 4 192
v 0 2 197
v -5 -4 201
v -7 -17 195
v -8 -17 191
v -3 -17 189
v -10 -8 185
v -11 -4 186
v -10 -7 182
v -8 -2 179
v -7 4 170
v -17 4 168
v -17 -4 168
v -6 -14 158
v 0 -12 158
v 7 -14 158
v 17 -4 168
v 17 4 168
v 18 8 149
v 6 9 160
v 0 9 163
v 0 7 167
v -10 -4 186
v -11 -5 188
v -10 -5 188
v -11 -8 187
v -10 -8 187
v -10 -6 196
v -18 8 149
v -18 -8 149
v -13 -12 158
v -11 -13 130
v -4 -12 124
v 0 -13 128
v 3 -13 128
v 13 -12 131
v 13 -12 158
v 18 -8 149
v 18 9 131
v 10 11 134
v 8 11 131
v 0 11 131
v -6 9 160
v 11 5 133
v 8 -8 133
v 11 -8 119
v 13 8 119
v -11 5 133
v -13 8 119
v -8 -8 133
v -11 -8 119
v 18 -10 128
v 19 -2 134
v -17 -11 128
v -18 9 131
v -11 11 134
v -3 11 129
v 24 4 137
v 24 6 131
v 24 -2 137
v 17 -6 153
v 17 4 153
v 19 5 152
v 28 4 139
v 29 6 132
v 25 4 119
v 25 -2 119
v 23 -3 129
v 31 -3 130
v 28 -2 139
v 28 -4 146
v 22 -4 145
v 28 -6 154
v 25 -3 163
v 15 -4 168
v 15 4 168
v 25 6 158
v 28 4 154
v 32 -2 119
v 32 4 119
v 32 3 108
v 28 3 108
v 28 -1 108
v -24 -2 137
v -24 6 131
v -24 4 137
v -17 -6 153
v -22 -4 145
v -28 -4 146
v -28 -2 139
v -31 -3 130
v -23 -3 129
v -25 -2 119
v -25 4 119
v -29 6 132
v -28 4 139
v -19 5 152
v -17 4 153
v -15 4 168
v -15 -4 168
v -25 -3 163
v -28 -6 154
v -28 4 154
v -32 -2 119
v -32 -1 108
v -28 -1 108
v -28 3 108
v -32 4 119
v -32 3 108
v -25 6 158
v 25 3 163
v -25 3 163
v 32 3 107
v 35 5 101
v 27 5 101
v 28 3 107
v 28 -1 107
v 32 -1 107
v 35 -4 99
v 33 -2 97
v 33 3 98
v 30 3 97
v 27 -4 99
v 30 -2 96
v -32 -1 107
v -28 -1 107
v -28 3 107
v -32 3 107
v -35 5 101
v -35 -4 99
v -27 -4 99
v -27 5 101
v -30 3 97
v -33 3 98
v -33 -2 97
v -30 -2 96
v 32 -1 108
v 13 -8 118
v 13 8 114
v 13 8 118
v -13 8 118
v -13 -8 118
v -13 -8 114
v 13 -8 114
v 15 13 101
v -13 8 114
v -15 13 101
v -17 -8 101
v 0 -9 101
v 17 -9 101
v 17 9 96
v 0 9 96
v -17 9 96
v -14 7 62
v -14 -9 65
v -2 -9 65
v 3 7 62
v 3 -9 65
v 15 -9 65
v 15 7 62
v -2 7 62
v 0 2 51
v 0 9 50
v -5 9 50
v -10 9 50
v -16 9 50
v -16 6 50
v -16 -2 51
v -16 -9 52
v -11 -9 52
v -5 -9 52
v 0 -9 52
v 0 -2 42
v 1 -9 52
v 4 -9 45
v 6 -9 52
v 1 2 51
v 1 -2 42
v 9 -9 43
v 12 -9 52
v 14 -9 49
v 17 -9 52
v 17 -2 51
v 17 6 50
v 17 9 50
v 11 9 50
v 6 9 50
v 1 9 50
v 17 -6 43
v 17 1 43
v 13 9 40
v 8 9 40
v 4 9 43
v 1 5 42
v 15 8 50
v 12 6 23
v 6 6 23
v 3 8 50
v 3 -6 52
v 6 -4 22
v 12 -4 22
v 15 -6 52
v 12 -3 14
v 15 4 8
v 6 4 8
v 6 -3 14
v -6 6 23
v -12 6 23
v -15 8 50
v -3 8 50
v -3 -6 52
v -6 -4 22
v -6 -3 14
v -6 4 8
v -15 4 8
v -12 -3 14
v -12 -4 22
v -15 -6 52
v -15 -3 6
v -6 -3 6
v -5 8 3
v -15 8 3
v -15 5 -2
v -15 -16 -2
v -15 -18 3
v -5 -18 3
v -3 -16 -2
v -3 5 -2
v 6 9 88
v 14 9 83
v 9 9 74
v 4 9 78
v 5 -10 86
v 6 -10 79
v 11 -10 75
v 9 -10 82
v 15 -4 81
v 15 1 81
v 15 6 86
v 15 1 85
v 15 -4 87
v 15 0 87
v 15 4 89
v 15 0 89
v -10 7 75
v -4 7 76
v -8 7 71
v -14 7 71
v -16 5 73
v -16 0 69
v -16 -5 78
v -16 0 77
v -12 -6 35
v -9 -6 35
v -4 -7 40
v -9 -7 39
v -12 -7 41
v -10 -7 41
v -6 -7 43
v -10 -7 43
v -7 -10 53
v -5 -10 59
v -15 -10 61
v -12 -10 57
v 3 -10 56
v 8 -10 52
v 13 -10 61
v 8 -10 60
v -3 -9 45
v -8 -9 43
v -13 -9 49
v -16 -6 43
v -16 1 43
v -12 9 40
v -7 9 40
v -3 9 43
v 0 5 42
v 6 -2 -2
v -6 -2 -2
v 0 6 -2
v 3 5 -2
v 15 5 -2
v 15 -16 -2
v 3 -16 -2
v 6 -3 6
v 5 8 3
v 15 8 3
v 15 -3 6
v 15 -18 3
v 5 -18 3

f 1 2 3
f 1 3 4
f 1 4 2
f 2 4 5
f 2 5 6
f 2 6 7
f 2 7 8
f 2 8 9
f 2 9 3
f 3 9 8
f 3 8 10
f 3 10 11
f 3 11 12
f 3 12 13
f 3 13 4
f 4 13 5
f 5 13 14
f 5 14 15
f 5 15 6
f 6 15 16
f 6 16 17
f 6 17 18
f 6 18 7
f 7 18 19
f 7 19 8
f 8 19 10
f 10 19 20
f 10 20 21
f 10 21 22
f 10 22 23
f 10 23 11
f 11 23 12
f 12 23 24
f 24 23 25
f 24 25 26
f 24 26 27
f 24 27 28
f 24 28 13
f 13 28 14
f 14 28 29
f 14 29 30
f 14 30 15
f 15 30 31
f 15 31 16
f 16 31 32
f 16 32 33
f 16 33 17
f 17 33 34
f 17 34 35
f 17 35 18
f 18 35 36
f 18 36 20
f 18 20 19
f 23 37 38
f 23 38 25
f 25 38 37
f 25 37 26
f 26 37 39
f 26 39 40
f 26 40 27
f 27 40 41
f 27 41 42
f 27 42 28
f 28 42 29
f 29 42 43
f 29 43 44
f 29 44 45
f 29 45 46
f 29 46 47
f 29 47 48
f 29 48 30
f 30 48 49
f 30 49 31
f 31 49 32
f 32 49 50
f 32 50 33
f 33 50 51
f 33 51 34
f 34 51 47
f 34 47 46
f 34 46 52
f 34 52 53
f 34 53 54
f 34 54 35
f 35 54 55
f 35 55 36
f 36 55 56
f 36 56 20
f 20 56 21
f 21 56 57
f 21 57 22
f 22 57 37
f 22 37 58
f 22 58 23
f 23 58 37
f 57 56 39
f 57 39 37
f 40 59 41
f 41 59 60
f 41 60 61
f 41 61 42
f 42 61 62
f 42 62 52
f 42 52 63
f 42 63 43
f 43 63 64
f 43 64 65
f 43 65 66
f 43 66 67
f 43 67 44
f 44 67 68
f 44 68 69
f 44 69 45
f 45 69 70
f 45 70 71
f 45 71 72
f 45 72 73
f 45 73 74
f 45 74 63
f 45 63 46
f 46 63 52
f 48 47 51
f 48 51 49
f 49 51 50
f 75 62 61
f 75 61 60
f 75 60 76
f 75 76 77
f 75 77 53
f 75 53 62
f 62 53 52
f 76 60 78
f 76 78 77
f 77 78 79
f 77 79 80
f 77 80 53
f 53 80 55
f 53 55 54
f 59 78 60
f 78 59 79
f 79 59 40
f 79 40 39
f 79 39 80
f 80 39 56
f 80 56 55
f 65 64 81
f 65 81 82
f 65 82 83
f 65 83 66
f 66 83 84
f 66 84 85
f 66 85 86
f 66 86 67
f 67 86 68
f 68 86 87
f 68 87 88
f 68 88 89
f 68 89 69
f 69 89 90
f 69 90 70
f 70 90 71
f 71 90 91
f 71 91 92
f 71 92 72
f 72 92 93
f 72 93 94
f 72 94 73
f 73 94 95
f 73 95 63
f 73 63 74
f 96 97 98
f 96 98 99
f 96 99 100
f 100 99 101
f 100 101 102
f 102 101 103
f 102 103 97
f 97 103 98
f 88 104 89
f 89 104 90
f 90 104 105
f 90 105 91
f 83 106 84
f 106 83 82
f 106 82 107
f 107 82 81
f 107 81 108
f 108 81 95
f 108 95 109
f 109 95 94
f 63 81 64
f 81 63 95
f 110 111 112
f 110 112 113
f 110 113 114
f 110 114 115
f 110 115 116
f 110 116 117
f 110 117 111
f 111 117 118
f 111 118 112
f 112 118 119
f 112 119 120
f 112 120 121
f 112 121 122
f 112 122 123
f 112 123 124
f 112 124 113
f 113 124 125
f 113 125 126
f 113 126 127
f 113 127 128
f 113 128 114
f 114 128 115
f 115 128 129
f 115 129 116
f 116 129 130
f 116 130 122
f 116 122 117
f 117 122 131
f 117 131 132
f 117 132 118
f 118 132 133
f 118 133 134
f 118 134 119
f 119 134 135
f 119 135 131
f 119 131 120
f 120 131 121
f 121 131 122
f 136 137 138
f 136 138 139
f 136 139 140
f 136 140 141
f 136 141 142
f 136 142 143
f 136 143 144
f 136 144 145
f 136 145 146
f 136 146 137
f 137 146 147
f 137 147 138
f 138 147 148
f 138 148 149
f 138 149 150
f 138 150 139
f 139 150 151
f 139 151 152
f 139 152 153
f 139 153 154
f 139 154 140
f 140 154 141
f 141 154 142
f 142 154 155
f 142 155 148
f 142 148 147
f 142 147 156
f 142 156 143
f 143 156 144
f 144 156 145
f 145 156 157
f 145 157 158
f 145 158 146
f 146 158 159
f 146 159 160
f 146 160 147
f 147 160 156
f 156 160 161
f 156 161 157
f 157 161 159
f 157 159 158
f 155 162 148
f 148 162 149
f 149 162 151
f 149 151 150
f 124 123 125
f 125 123 122
f 125 122 130
f 125 130 163
f 125 163 126
f 126 163 127
f 127 163 128
f 128 163 129
f 129 163 130
f 152 164 153
f 153 164 154
f 154 164 155
f 155 164 162
f 162 164 151
f 151 164 152
f 165 166 167
f 165 167 168
f 165 168 169
f 165 169 170
f 165 170 171
f 165 171 166
f 166 171 172
f 166 172 173
f 166 173 174
f 166 174 167
f 167 174 175
f 167 175 169
f 167 169 168
f 171 170 169
f 171 169 175
f 171 175 172
f 172 175 176
f 172 176 173
f 173 176 174
f 174 176 175
f 177 178 179
f 177 179 180
f 177 180 181
f 177 181 182
f 177 182 183
f 177 183 178
f 178 183 179
f 179 183 184
f 179 184 181
f 179 181 180
f 184 185 186
f 184 186 181
f 181 186 182
f 182 186 187
f 182 187 188
f 182 188 183
f 183 188 184
f 184 188 185
f 185 188 187
f 185 187 186
f 160 159 161
f 134 133 189
f 134 189 135
f 135 189 131
f 131 189 132
f 132 189 133
f 190 191 192
f 190 192 193
f 190 193 194
f 190 194 195
f 190 195 196
f 190 196 191
f 191 196 197
f 191 197 198
f 191 198 192
f 192 198 193
f 193 198 194
f 194 198 195
f 195 198 199
f 195 199 200
f 195 200 201
f 195 201 196
f 196 201 202
f 196 202 197
f 197 202 203
f 197 203 204
f 197 204 199
f 197 199 198
f 204 205 199
f 199 205 200
f 200 205 206
f 200 206 207
f 200 207 208
f 200 208 201
f 201 208 204
f 201 204 209
f 201 209 210
f 201 210 211
f 201 211 202
f 202 211 203
f 203 211 212
f 203 212 209
f 203 209 204
f 204 213 206
f 204 206 205
f 208 213 204
f 213 208 214
f 213 214 215
f 213 215 216
f 213 216 217
f 213 217 206
f 206 217 218
f 206 218 219
f 206 219 220
f 206 220 207
f 207 220 221
f 207 221 222
f 207 222 223
f 207 223 208
f 208 223 224
f 208 224 214
f 214 224 225
f 226 227 228
f 226 228 210
f 226 210 229
f 226 229 230
f 228 231 232
f 228 232 211
f 228 211 210
f 232 233 234
f 232 234 211
f 211 234 235
f 211 235 212
f 212 235 236
f 212 236 237
f 212 237 238
f 212 238 239
f 212 239 209
f 209 239 240
f 209 240 229
f 209 229 210
f 234 241 235
f 235 242 236
f 237 243 238
f 238 244 239
f 239 245 240
f 240 246 229
f 247 248 249
f 247 249 250
f 250 249 251
f 251 249 252
f 251 252 253
f 251 253 254
f 254 253 247
f 247 253 248
f 248 253 255
f 248 255 256
f 248 256 257
f 248 257 249
f 249 257 258
f 249 258 252
f 252 258 255
f 252 255 253
f 259 260 261
f 259 261 262
f 259 262 263
f 259 263 264
f 259 264 265
f 259 265 266
f 259 266 260
f 260 266 267
f 260 267 268
f 260 268 269
f 260 269 261
f 261 269 270
f 270 269 263
f 263 269 264
f 264 269 268
f 264 268 265
f 265 268 271
f 265 271 272
f 265 272 273
f 265 273 266
f 266 273 274
f 266 274 267
f 267 274 268
f 268 274 271
f 271 274 275
f 271 275 276
f 271 276 277
f 271 277 272
f 272 277 278
f 272 278 279
f 272 279 280
f 272 280 273
f 273 280 275
f 273 275 274
f 281 282 283
f 281 283 284
f 285 286 287
f 285 287 288
f 289 290 291
f 289 291 292
f 293 294 295
f 293 295 296
f 297 298 299
f 297 299 300
f 301 302 303
f 301 303 304
f 305 306 307
f 305 307 308
f 309 310 311
f 309 311 312
f 313 314 315
f 313 315 316
f 317 318 319
f 317 319 320
f 223 321 224
f 222 322 223
f 221 323 222
f 220 324 221
f 219 325 220
f 217 326 218
f 216 327 217
f 215 328 216
f 214 329 215
f 330 331 332
f 333 334 335
f 333 335 336
f 333 336 337
f 333 337 338
f 333 338 334
f 334 338 339
f 334 339 340
f 334 340 335
f 335 340 341
f 335 341 342
f 335 342 336
f 336 342 337
f 337 342 341
f 337 341 340
f 337 340 258
f 337 258 338
f 338 258 257
f 338 257 339
f 339 257 256
f 339 256 255
f 339 255 340
f 340 255 258
f 275 280 279
f 275 279 276
f 276 279 278
f 276 278 277
