# RS2 Model 9928
# Vertices: 80
# Faces: 134

v -8 -1 7
v -3 -8 7
v -1 -7 7
v -7 0 7
v -7 0 2
v -8 -1 2
v -3 -8 2
v -3 -14 9
v 2 -6 9
v 2 -6 0
v -1 -7 2
v -6 2 0
v -6 2 9
v -15 -3 9
v -15 -3 0
v -16 1 7
v -16 1 1
v -18 3 7
v -18 3 1
v -11 3 1
v -16 9 5
v -11 3 8
v -3 -14 0
v -1 -15 7
v 3 -11 8
v 3 -11 1
v -1 -15 1
v 0 -17 7
v 6 -16 5
v 0 -17 1
v 1 -28 10
v 8 -21 8
v 8 -21 1
v 1 -28 -1
v 10 -31 7
v 13 -25 4
v 10 -31 2
v 21 -29 7
v 23 -24 4
v 21 -29 2
v 32 -29 7
v 34 -26 4
v 32 -29 2
v 37 -34 7
v 41 -30 4
v 37 -34 2
v 39 -41 8
v 46 -40 8
v 46 -40 0
v 40 -49 2
v 40 -49 6
v 32 -53 4
v 39 -41 0
v -20 11 8
v -28 7 10
v -28 7 -1
v -20 11 1
v -24 15 4
v -29 15 7
v -29 15 2
v -26 26 2
v -22 27 4
v -26 26 7
v -26 37 7
v -26 37 2
v -22 37 4
v -26 45 4
v -30 42 7
v -30 42 2
v -37 45 8
v -37 45 0
v -47 43 4
v -45 47 6
v -45 47 2
v -35 51 8
v -36 52 0
v -22 33 5
v 34 -26 5
v 41 -30 5
v -22 37 5

f 1 2 3
f 1 3 4
f 1 4 5
f 1 5 6
f 1 6 2
f 2 6 7
f 2 7 8
f 2 8 9
f 2 9 3
f 3 9 10
f 3 10 11
f 3 11 4
f 4 11 5
f 4 5 12
f 4 12 13
f 4 13 1
f 1 13 14
f 1 14 6
f 6 14 15
f 15 14 16
f 15 16 17
f 17 16 18
f 17 18 19
f 17 19 20
f 20 19 21
f 20 21 22
f 20 22 13
f 20 13 12
f 7 23 8
f 8 23 24
f 8 24 25
f 8 25 9
f 9 25 26
f 9 26 10
f 23 27 24
f 24 27 28
f 24 28 29
f 24 29 25
f 25 29 26
f 26 29 30
f 26 30 27
f 27 30 28
f 28 30 31
f 28 31 32
f 28 32 29
f 29 32 33
f 29 33 34
f 29 34 30
f 30 34 31
f 31 34 35
f 31 35 36
f 31 36 32
f 32 36 33
f 33 36 37
f 33 37 34
f 34 37 35
f 35 37 38
f 35 38 39
f 35 39 36
f 36 39 40
f 36 40 37
f 37 40 38
f 38 40 41
f 38 41 42
f 38 42 39
f 39 42 43
f 39 43 40
f 40 43 41
f 41 43 44
f 41 44 45
f 41 45 42
f 42 45 46
f 42 46 43
f 43 46 44
f 44 46 47
f 44 47 48
f 44 48 45
f 45 48 49
f 49 48 50
f 50 48 51
f 50 51 52
f 52 51 47
f 52 47 53
f 53 47 46
f 51 48 47
f 14 13 22
f 14 22 16
f 16 22 21
f 16 21 18
f 18 21 54
f 18 54 55
f 18 55 19
f 19 55 56
f 19 56 21
f 21 56 57
f 21 57 54
f 54 57 58
f 54 58 55
f 55 58 59
f 55 59 56
f 56 59 60
f 56 60 57
f 57 60 58
f 58 60 61
f 58 61 62
f 58 62 59
f 59 62 63
f 59 63 60
f 60 63 61
f 61 63 64
f 61 64 65
f 61 65 62
f 62 65 66
f 62 66 63
f 63 66 64
f 64 66 67
f 64 67 68
f 64 68 65
f 65 68 69
f 65 69 66
f 66 69 67
f 69 68 70
f 69 70 71
f 71 70 72
f 72 70 73
f 72 73 74
f 74 73 75
f 74 75 76
f 76 75 67
f 67 75 68
f 68 75 70
f 70 75 73
f 77 78 79
f 77 79 80
