# RS2 Model 9947
# Vertices: 217
# Faces: 412

v -85 6 323
v -49 1 331
v -50 14 307
v -73 15 307
v -111 14 304
v -102 6 291
v -77 -5 305
v -53 -9 307
v -26 -16 327
v -13 11 330
v -19 26 297
v -39 -16 294
v -99 18 292
v -116 19 277
v 50 14 307
v 49 1 331
v 85 6 323
v 73 15 307
v 53 -9 307
v 39 -16 294
v 19 26 297
v 13 11 330
v 26 -16 327
v 77 -5 305
v 102 6 291
v 111 14 304
v 99 18 292
v 116 19 277
v 32 -11 57
v 16 -38 57
v 22 -49 1
v 45 -11 1
v 16 17 57
v 13 12 111
v 26 -11 111
v 13 -33 111
v -16 -38 57
v -22 -49 1
v -32 -11 57
v -45 -11 1
v -16 17 57
v -22 29 1
v 22 29 1
v 15 -69 268
v 22 -61 269
v 20 -63 279
v 16 -66 279
v 17 -61 270
v 16 -58 266
v 12 -73 265
v 22 -55 264
v 17 -62 280
v 18 -64 286
v -20 -63 279
v -22 -61 269
v -15 -69 268
v -16 -66 279
v -18 -64 286
v -17 -62 280
v -17 -61 270
v -22 -55 264
v -12 -73 265
v -16 -58 266
v 16 -52 246
v 7 -70 254
v 0 -56 241
v 12 -38 227
v 22 -16 233
v 39 -16 250
v 45 -16 272
v 25 -40 286
v 11 -51 291
v -16 -52 246
v -7 -70 254
v -45 -16 272
v -39 -16 250
v -12 -38 227
v -9 -27 203
v 9 -27 203
v 19 -11 203
v 11 8 226
v 19 7 257
v 22 23 272
v 20 -41 298
v 0 -52 296
v -11 -51 291
v 10 -63 288
v 8 -67 282
v 9 -70 272
v -17 -58 266
v -5 -75 233
v 5 -75 233
v 0 -61 230
v 0 -68 202
v -12 -41 312
v 0 -48 325
v -22 -43 307
v -12 -42 305
v 0 -42 310
v 0 -41 317
v 12 -41 312
v 22 -43 307
v 14 -41 319
v 0 -41 325
v -14 -41 319
v -26 -26 306
v -20 -41 298
v 0 -56 303
v 0 -44 303
v 12 -42 305
v -14 -31 332
v 0 -11 340
v -22 23 272
v -25 -40 286
v 14 -31 332
v 26 -26 306
v -19 7 257
v -11 8 226
v -22 -16 233
v -19 -11 203
v -56 -44 213
v -35 -59 205
v -35 -42 166
v -17 -40 164
v 17 -40 164
v 35 -42 166
v 35 -59 205
v 56 -44 213
v 60 -16 205
v 35 -11 164
v 9 6 203
v 0 -36 333
v -9 -70 272
v -7 -67 282
v -10 -63 288
v -9 6 203
v -17 19 164
v -35 -11 164
v -60 -16 205
v -66 -37 178
v -56 -54 178
v -70 -70 122
v -68 -59 100
v -76 -45 100
v -45 -25 166
v -26 -11 111
v -13 -33 111
v 45 -25 166
v 76 -45 100
v 68 -59 100
v 70 -70 122
v 56 -54 178
v 66 -37 178
v 0 47 218
v -24 44 205
v -9 36 167
v 17 19 164
v -13 12 111
v -86 -42 122
v -89 -61 123
v -105 -83 113
v -80 -79 81
v -99 -45 81
v -117 -62 113
v -121 -71 100
v -113 -85 100
v -125 -72 231
v -104 -70 219
v -117 -86 231
v -109 -67 349
v -96 -67 344
v -103 -77 349
v -75 -55 405
v 89 -61 123
v 86 -42 122
v 99 -45 81
v 80 -79 81
v 105 -83 113
v 116 -87 231
v 104 -70 219
v 117 -62 113
v 121 -71 100
v 113 -85 100
v 125 -71 231
v 109 -68 349
v 103 -76 349
v 96 -67 344
v 75 -55 405
v 9 60 179
v -9 60 179
v -16 80 122
v -8 73 100
v 9 36 167
v 24 44 205
v 16 80 122
v 0 92 123
v -13 117 113
v -19 93 81
v 19 93 81
v 8 73 100
v 10 117 113
v 8 129 231
v 0 109 219
v -10 129 231
v 8 125 100
v -8 125 100
v -5 113 350
v 5 113 350
v 0 102 344
v 1 78 405
v -10 -17 1
v -10 3 1
v 10 3 1
v 10 -17 1
v 85 -89 202
v 83 68 209
v -83 -91 202

f 1 2 3
f 1 3 4
f 1 4 5
f 1 5 6
f 1 6 7
f 1 7 2
f 2 7 8
f 2 8 9
f 2 9 10
f 2 10 3
f 3 10 11
f 3 11 12
f 3 12 8
f 3 8 4
f 4 8 7
f 4 7 13
f 4 13 5
f 5 13 14
f 5 14 6
f 6 14 13
f 6 13 7
f 15 16 17
f 15 17 18
f 15 18 19
f 15 19 20
f 15 20 21
f 15 21 22
f 15 22 16
f 16 22 23
f 16 23 19
f 16 19 24
f 16 24 17
f 17 24 25
f 17 25 26
f 17 26 18
f 18 26 27
f 18 27 24
f 18 24 19
f 27 25 24
f 25 27 28
f 25 28 26
f 26 28 27
f 29 30 31
f 29 31 32
f 29 32 33
f 29 33 34
f 29 34 35
f 29 35 30
f 30 35 36
f 30 36 37
f 30 37 38
f 30 38 31
f 37 39 40
f 37 40 38
f 39 41 42
f 39 42 40
f 41 33 43
f 41 43 42
f 32 43 33
f 44 45 46
f 44 46 47
f 44 47 48
f 44 48 49
f 44 49 50
f 44 50 45
f 45 50 51
f 45 51 48
f 45 48 52
f 45 52 46
f 46 52 53
f 46 53 47
f 47 53 52
f 47 52 48
f 54 55 56
f 54 56 57
f 54 57 58
f 54 58 59
f 54 59 55
f 55 59 60
f 55 60 61
f 55 61 62
f 55 62 56
f 56 62 63
f 56 63 60
f 56 60 57
f 57 60 59
f 57 59 58
f 64 51 50
f 64 50 65
f 64 65 66
f 64 66 67
f 64 67 68
f 64 68 69
f 64 69 51
f 51 69 70
f 51 70 71
f 51 71 72
f 51 72 49
f 51 49 48
f 73 66 74
f 73 74 61
f 73 61 75
f 73 75 76
f 73 76 77
f 73 77 66
f 66 77 67
f 67 77 78
f 67 78 79
f 67 79 68
f 68 79 80
f 68 80 81
f 68 81 82
f 68 82 69
f 69 82 83
f 69 83 70
f 70 83 21
f 70 21 20
f 70 20 71
f 71 20 84
f 71 84 72
f 72 84 85
f 72 85 86
f 72 86 87
f 72 87 49
f 49 87 88
f 49 88 89
f 49 89 90
f 49 90 50
f 50 90 62
f 50 62 74
f 50 74 65
f 65 74 91
f 65 91 92
f 65 92 66
f 66 92 93
f 66 93 74
f 74 93 91
f 91 93 94
f 91 94 92
f 92 94 93
f 74 62 61
f 60 63 61
f 95 96 97
f 95 97 98
f 95 98 99
f 95 99 100
f 95 100 96
f 96 100 101
f 96 101 102
f 96 102 103
f 96 103 104
f 96 104 105
f 96 105 97
f 97 105 106
f 97 106 107
f 97 107 85
f 97 85 108
f 97 108 98
f 98 108 109
f 98 109 99
f 99 109 110
f 99 110 101
f 99 101 100
f 8 12 9
f 9 12 106
f 9 106 105
f 9 105 111
f 9 111 112
f 9 112 10
f 10 112 22
f 10 22 11
f 11 22 21
f 11 21 113
f 11 113 12
f 12 113 75
f 12 75 61
f 12 61 114
f 12 114 107
f 12 107 106
f 23 22 112
f 23 112 115
f 23 115 103
f 23 103 116
f 23 116 20
f 23 20 19
f 21 83 113
f 113 83 117
f 113 117 75
f 75 117 76
f 76 117 118
f 76 118 119
f 76 119 77
f 77 119 120
f 77 120 78
f 78 120 121
f 78 121 122
f 78 122 123
f 78 123 124
f 78 124 79
f 79 124 125
f 79 125 126
f 79 126 127
f 79 127 128
f 79 128 80
f 80 128 129
f 80 129 130
f 80 130 131
f 80 131 81
f 81 131 118
f 81 118 82
f 82 118 117
f 82 117 83
f 111 132 112
f 112 132 115
f 115 132 104
f 115 104 103
f 89 133 90
f 90 133 134
f 90 134 135
f 90 135 86
f 90 86 61
f 61 86 114
f 114 86 107
f 107 86 85
f 133 89 88
f 133 88 134
f 134 88 87
f 134 87 135
f 135 87 86
f 116 84 20
f 84 116 102
f 84 102 85
f 85 102 108
f 108 102 110
f 108 110 109
f 111 105 104
f 111 104 132
f 103 102 116
f 102 101 110
f 119 118 136
f 119 136 120
f 120 136 137
f 120 137 138
f 120 138 139
f 120 139 121
f 121 139 140
f 121 140 141
f 121 141 122
f 122 141 123
f 123 141 142
f 123 142 143
f 123 143 144
f 123 144 145
f 123 145 124
f 124 145 138
f 124 138 146
f 124 146 147
f 124 147 125
f 125 147 36
f 125 36 130
f 125 130 148
f 125 148 126
f 126 148 149
f 126 149 150
f 126 150 151
f 126 151 152
f 126 152 127
f 127 152 128
f 128 152 153
f 128 153 129
f 129 153 148
f 129 148 130
f 131 136 118
f 136 131 154
f 136 154 155
f 136 155 137
f 137 155 156
f 137 156 157
f 137 157 34
f 137 34 158
f 137 158 138
f 138 158 146
f 146 158 41
f 146 41 39
f 146 39 147
f 147 39 37
f 147 37 36
f 138 145 139
f 139 145 140
f 140 145 159
f 140 159 160
f 140 160 141
f 141 160 142
f 142 160 161
f 142 161 162
f 142 162 143
f 143 162 144
f 144 162 163
f 144 163 159
f 144 159 145
f 164 160 159
f 164 159 163
f 164 163 165
f 164 165 166
f 164 166 161
f 164 161 167
f 164 167 168
f 164 168 160
f 160 168 169
f 160 169 161
f 161 169 167
f 167 169 170
f 167 170 171
f 167 171 168
f 168 171 172
f 168 172 169
f 169 172 170
f 170 172 173
f 170 173 171
f 171 173 172
f 162 166 165
f 162 165 163
f 161 166 162
f 152 151 174
f 152 174 153
f 153 174 175
f 153 175 148
f 148 175 149
f 149 175 176
f 149 176 177
f 149 177 150
f 150 177 151
f 151 177 178
f 151 178 174
f 174 178 179
f 174 179 180
f 174 180 181
f 174 181 175
f 175 181 176
f 176 181 182
f 176 182 177
f 177 182 183
f 177 183 178
f 178 183 181
f 178 181 184
f 178 184 179
f 179 184 185
f 179 185 186
f 179 186 180
f 180 186 187
f 180 187 184
f 180 184 181
f 183 182 181
f 187 185 184
f 185 187 188
f 185 188 186
f 186 188 187
f 154 189 190
f 154 190 155
f 155 190 156
f 156 190 191
f 156 191 192
f 156 192 193
f 156 193 157
f 157 193 131
f 157 131 130
f 157 130 35
f 157 35 34
f 154 194 189
f 189 194 193
f 189 193 195
f 189 195 196
f 189 196 190
f 190 196 191
f 191 196 197
f 191 197 198
f 191 198 192
f 192 198 199
f 192 199 200
f 192 200 193
f 193 200 195
f 195 200 199
f 195 199 201
f 195 201 196
f 196 201 202
f 196 202 203
f 196 203 197
f 197 203 204
f 197 204 201
f 197 201 205
f 197 205 206
f 197 206 198
f 198 206 199
f 199 206 205
f 199 205 201
f 131 194 154
f 194 131 193
f 204 202 201
f 202 204 207
f 202 207 208
f 202 208 203
f 203 208 209
f 203 209 204
f 204 209 207
f 207 209 210
f 207 210 208
f 208 210 209
f 36 35 130
f 158 34 33
f 158 33 41
f 211 212 213
f 211 213 214
