# RS2 Model 9988
# Vertices: 84
# Faces: 147

v 12 48 8
v 16 47 8
v 16 47 2
v 12 48 2
v -4 -2 2
v -4 -2 8
v -2 -1 8
v 0 -3 8
v 0 -3 2
v 1 -7 11
v 1 -7 -1
v -4 -22 11
v -4 -22 -1
v 2 -31 -1
v 2 -31 11
v -2 -32 11
v -2 -32 5
v -2 -32 -1
v -4 -39 0
v 4 -41 5
v -6 -46 5
v -6 -46 -1
v -11 -44 5
v -15 -43 0
v -20 -56 5
v -20 -41 5
v -25 -39 -1
v -25 -39 5
v -23 -33 0
v -30 -29 5
v -21 -26 5
v -21 -26 -1
v -23 -23 -1
v -21 -26 11
v -23 -23 11
v -13 -19 -1
v -13 -19 11
v -8 -4 11
v -8 -4 -1
v -3 -31 13
v -8 -29 13
v -11 -38 13
v -7 -43 13
v -7 -43 12
v -3 -31 12
v -1 -30 12
v -1 -30 13
v -9 -28 13
v -8 -29 12
v -11 -38 12
v -14 -39 12
v -14 -39 13
v -22 -38 13
v -22 -38 12
v -25 -39 11
v -6 -46 11
v -4 -25 12
v -4 -25 13
v -9 -28 12
v -10 -26 11
v -11 -29 11
v -11 -37 11
v -14 -37 11
v -16 -36 12
v -16 -36 13
v -14 -27 13
v -18 -26 13
v -18 -26 12
v -23 -33 10
v -15 -43 10
v -4 -39 10
v -14 -27 12
v -11 -27 12
v -11 -27 13
v -20 -24 13
v -20 -24 12
v -2 -1 11
v -14 -22 12
v -15 -35 11
v -15 -35 -1
v -11 -29 -1
v -11 -37 -1
v -14 -37 -1
v -14 -22 13

f 1 2 3
f 1 3 4
f 1 4 5
f 1 5 6
f 1 6 7
f 1 7 2
f 2 7 8
f 2 8 3
f 3 8 9
f 9 8 10
f 9 10 11
f 11 10 12
f 11 12 13
f 13 12 14
f 14 12 15
f 14 15 16
f 14 16 17
f 14 17 18
f 18 17 19
f 19 17 20
f 19 20 21
f 19 21 22
f 22 21 23
f 22 23 24
f 24 23 25
f 24 25 26
f 24 26 27
f 27 26 28
f 27 28 29
f 29 28 30
f 29 30 31
f 29 31 32
f 32 31 33
f 33 31 34
f 33 34 35
f 33 35 36
f 36 35 37
f 36 37 38
f 36 38 39
f 39 38 6
f 39 6 5
f 40 41 42
f 40 42 43
f 40 43 44
f 40 44 45
f 40 45 46
f 40 46 47
f 40 47 41
f 41 47 48
f 41 48 49
f 41 49 42
f 42 49 50
f 42 50 51
f 42 51 52
f 42 52 43
f 43 52 53
f 43 53 44
f 44 53 54
f 44 54 55
f 44 55 56
f 44 56 45
f 45 56 16
f 45 16 46
f 46 16 15
f 46 15 57
f 46 57 47
f 47 57 58
f 47 58 48
f 48 58 59
f 48 59 49
f 49 59 60
f 49 60 61
f 49 61 50
f 50 61 62
f 50 62 51
f 51 62 63
f 51 63 64
f 51 64 52
f 52 64 65
f 52 65 53
f 53 65 66
f 53 66 67
f 53 67 68
f 53 68 54
f 54 68 34
f 54 34 55
f 55 34 69
f 55 69 28
f 55 28 26
f 55 26 70
f 55 70 56
f 56 70 23
f 56 23 21
f 56 21 71
f 56 71 16
f 16 71 17
f 17 71 20
f 20 71 21
f 66 65 64
f 66 64 72
f 66 72 73
f 66 73 74
f 66 74 67
f 67 74 75
f 67 75 68
f 68 75 76
f 68 76 35
f 68 35 34
f 58 57 59
f 59 57 12
f 59 12 60
f 60 12 10
f 60 10 77
f 60 77 37
f 60 37 78
f 60 78 73
f 60 73 61
f 61 73 72
f 61 72 79
f 61 79 80
f 61 80 81
f 61 81 62
f 62 81 82
f 62 82 63
f 63 82 83
f 63 83 79
f 63 79 64
f 64 79 72
f 84 75 74
f 84 74 78
f 84 78 76
f 84 76 75
f 78 74 73
f 57 15 12
f 76 78 37
f 76 37 35
f 31 69 34
f 69 31 30
f 69 30 28
f 25 23 70
f 25 70 26
f 83 80 79
f 37 77 38
f 38 77 7
f 38 7 6
f 77 10 8
f 77 8 7
